<svg width="143" height="12" viewBox="0 0 143 12" fill="none" xmlns="http://www.w3.org/2000/svg"><path d="M7.196 6.551H1.665c.08.473.293.85.64 1.128.346.28.789.419 1.327.419.644 0 1.197-.219 1.66-.654l1.45.66a3.388 3.388 0 01-1.3 1.104c-.504.239-1.103.357-1.796.357-1.077 0-1.953-.328-2.63-.987C.339 7.919 0 7.095 0 6.103c0-.99.338-1.858 1.012-2.53.675-.67 1.521-1.005 2.54-1.005 1.08 0 1.959.336 2.636 1.006.677.67 1.016 1.556 1.016 2.658l-.006.318-.002.001zM5.475 5.236a1.674 1.674 0 00-.673-.905 1.99 1.99 0 00-1.166-.35c-.48 0-.901.132-1.264.392-.227.163-.438.45-.632.863h3.734zM12.565 3.67l-1.066 1.033c-.433-.416-.826-.624-1.179-.624-.193 0-.345.04-.454.119a.353.353 0 00-.163.296c0 .09.034.173.104.247.069.076.24.18.513.309l.631.306c.665.318 1.121.642 1.369.972.248.33.373.717.373 1.161a1.89 1.89 0 01-.672 1.48c-.449.396-1.049.593-1.801.593-1.001 0-1.8-.38-2.397-1.138l1.06-1.12c.2.229.437.413.708.554.271.14.513.211.723.211.228 0 .41-.053.548-.158.139-.106.208-.228.208-.368 0-.256-.25-.507-.75-.752l-.58-.28c-1.11-.543-1.665-1.222-1.665-2.037 0-.526.21-.976.628-1.349.418-.373.954-.56 1.605-.56.445 0 .865.096 1.258.285.394.19.727.462 1 .816l-.001.004zM14.367 7.651c.273 0 .507.092.7.278.194.186.29.41.29.676a.912.912 0 01-.29.68.97.97 0 01-.7.28.972.972 0 01-.7-.28.912.912 0 01-.29-.68.9.9 0 01.29-.676.973.973 0 01.7-.278zM18.13.398h1.72l2.152 6.276L24.174.398h1.72l1.558 8.998h-1.706l-.995-5.682-1.973 5.682H21.22l-1.953-5.682-1.018 5.682h-1.724L18.13.398zM35.478 6.552h-5.532c.08.474.293.85.64 1.13.346.278.79.418 1.33.418.643 0 1.196-.218 1.659-.655l1.451.661a3.398 3.398 0 01-1.3 1.105c-.505.24-1.104.358-1.799.358-1.076 0-1.952-.329-2.63-.988-.678-.658-1.017-1.483-1.017-2.473 0-.99.337-1.859 1.013-2.528.675-.67 1.522-1.006 2.54-1.006 1.08 0 1.958.336 2.635 1.006.677.672 1.016 1.556 1.016 2.657l-.006.318h-.003l.003-.003zm-1.723-1.315a1.68 1.68 0 00-.673-.905 1.991 1.991 0 00-1.166-.349c-.48 0-.9.13-1.265.391-.227.163-.439.451-.632.863h3.736zM41.783.17h1.723v9.224h-1.723v-.703c-.336.31-.673.534-1.01.67a2.921 2.921 0 01-1.101.205c-.886 0-1.652-.334-2.3-1-.647-.666-.97-1.495-.97-2.486 0-.992.311-1.87.938-2.528.627-.656 1.385-.985 2.281-.985.412 0 .798.076 1.16.226.361.15.694.378 1.001.679V.171h.001zm-1.812 3.94c-.532 0-.975.182-1.326.548-.352.364-.529.832-.529 1.404 0 .57.18 1.047.538 1.418.357.37.798.556 1.322.556.525 0 .99-.182 1.346-.548.356-.364.533-.842.533-1.435 0-.593-.178-1.047-.533-1.407-.357-.358-.806-.538-1.352-.538v.002h.002zM45.941 0c.301 0 .561.107.776.318.216.212.325.47.325.77 0 .302-.108.552-.322.762a1.06 1.06 0 01-.766.316c-.297 0-.568-.107-.784-.322a1.061 1.061 0 01-.324-.78c0-.306.107-.544.32-.752.214-.208.471-.312.773-.312h.002zm-.86 2.74h1.722v6.654H45.08V2.74zM55.034 4.087l-1.433.766c-.269-.274-.536-.462-.798-.57a2.454 2.454 0 00-.926-.159c-.644 0-1.166.185-1.563.558-.397.372-.597.85-.597 1.432s.191 1.027.576 1.387c.382.358.886.538 1.51.538.77 0 1.37-.256 1.8-.766l1.355.901c-.736.93-1.774 1.393-3.117 1.393-1.208 0-2.152-.346-2.835-1.04-.683-.694-1.026-1.505-1.026-2.435 0-.644.167-1.237.497-1.78a3.501 3.501 0 011.391-1.279c.594-.31 1.261-.464 1.997-.464.681 0 1.293.132 1.835.395.543.263.986.637 1.33 1.123v.002l.004-.002zM61.019 2.74h1.722v6.653H61.02V8.69c-.337.31-.674.534-1.012.67a2.921 2.921 0 01-1.1.205c-.886 0-1.652-.334-2.3-1-.646-.666-.97-1.495-.97-2.486 0-.991.311-1.87.939-2.527.626-.657 1.385-.986 2.28-.986.413 0 .799.076 1.16.226.361.15.694.378 1.001.68v-.735.002h.002zm-1.812 1.37c-.532 0-.976.18-1.327.547-.351.365-.528.833-.528 1.404s.18 1.047.537 1.418c.357.371.798.556 1.323.556.524 0 .99-.181 1.345-.547.356-.365.533-.843.533-1.436 0-.592-.178-1.047-.533-1.407-.357-.358-.806-.538-1.352-.538v.003h.002zM64.202 2.74h1.477v.838a1.79 1.79 0 01.637-.752c.265-.17.555-.257.87-.257.223 0 .457.056.7.17l-.535 1.437c-.203-.097-.368-.147-.498-.147-.265 0-.489.16-.672.478-.183.318-.275.942-.275 1.872l.007.325v2.692h-1.71V2.739h-.002.001zM75.258 6.552h-5.532c.079.474.293.85.64 1.13.346.278.79.418 1.329.418.643 0 1.196-.218 1.66-.655l1.45.661c-.36.497-.794.867-1.3 1.105-.505.24-1.104.358-1.798.358-1.077 0-1.953-.329-2.631-.988-.677-.658-1.016-1.483-1.016-2.473 0-.99.337-1.859 1.012-2.528.676-.67 1.522-1.006 2.54-1.006 1.08 0 1.959.336 2.636 1.006.677.672 1.016 1.556 1.016 2.657l-.006.318h-.003l.003-.003zm-1.723-1.315a1.68 1.68 0 00-.673-.905 1.997 1.997 0 00-1.166-.349c-.48 0-.901.13-1.265.391-.227.163-.44.451-.632.863h3.736zM77.032 7.652a.98.98 0 01.7.279c.194.185.29.411.29.675a.914.914 0 01-.29.68.972.972 0 01-.7.28.972.972 0 01-.7-.28.91.91 0 01-.29-.68.9.9 0 01.29-.675.98.98 0 01.7-.279zM84.338 2.74h1.716v5.7c0 1.124-.233 1.952-.7 2.482-.626.718-1.57 1.078-2.833 1.078-.673 0-1.237-.08-1.698-.244a3.037 3.037 0 01-1.16-.718 2.924 2.924 0 01-.7-1.152h1.898c.169.187.384.328.65.426.265.096.58.142.94.142.462 0 .835-.07 1.117-.207.282-.14.48-.318.597-.538.115-.22.174-.6.174-1.137a2.872 2.872 0 01-.952.633 3.114 3.114 0 01-1.13.193c-.922 0-1.699-.321-2.334-.967-.633-.644-.951-1.459-.951-2.447 0-1.054.336-1.904 1.008-2.545a3.06 3.06 0 012.182-.867c.396 0 .769.07 1.12.21a3.55 3.55 0 011.056.694V2.74zm-1.785 1.39c-.543 0-.99.176-1.344.527-.354.353-.53.797-.53 1.331 0 .534.182 1.01.544 1.363.361.354.815.532 1.362.532.547 0 .976-.173 1.32-.52.347-.347.522-.801.522-1.363 0-.562-.175-1.006-.525-1.352-.348-.347-.798-.52-1.349-.52v.001zM90.912 2.57a3.74 3.74 0 011.826.471c.57.314 1.015.74 1.334 1.28.32.537.48 1.119.48 1.743 0 .624-.162 1.214-.483 1.761a3.415 3.415 0 01-1.316 1.28 3.717 3.717 0 01-1.835.463c-.984 0-1.824-.34-2.521-1.019a3.323 3.323 0 01-1.045-2.473c0-1.04.394-1.907 1.18-2.6.69-.604 1.481-.905 2.378-.905l.003-.003-.001.001zm.028 1.573c-.536 0-.98.18-1.337.54-.356.362-.533.823-.533 1.387 0 .564.176 1.047.529 1.407.351.36.797.538 1.336.538.54 0 .988-.181 1.345-.545.358-.363.537-.829.537-1.4s-.175-1.036-.528-1.391c-.352-.356-.8-.536-1.349-.536zM94.724 2.74h1.755l1.734 3.927 1.73-3.927h1.745l-2.92 6.654H97.65L94.723 2.74h.002z" fill="#FAF2DE"/><path d="M101.963 11.006l4.189-10.92h1.239l-4.197 10.92h-1.231zM109.188.344h5.138v1.68h-3.375v1.642h2.193v1.655h-2.193v4.073h-1.763V.342v.002zM115.232 2.7h1.485v.843c.161-.333.375-.585.641-.758.266-.172.558-.258.876-.258.224 0 .459.058.704.173l-.539 1.446c-.203-.098-.37-.147-.501-.147-.267 0-.492.16-.676.48-.185.32-.276.948-.276 1.882l.006.327v2.707h-1.719V2.7h-.001zM124.89 2.7h1.732v6.695h-1.732v-.708c-.338.312-.677.536-1.018.673-.34.138-.709.207-1.106.207-.891 0-1.663-.335-2.313-1.006-.651-.67-.976-1.505-.976-2.5 0-.997.314-1.881.944-2.542.63-.66 1.395-.992 2.294-.992.415 0 .803.076 1.166.228.364.153.699.38 1.007.683V2.7h.002zm-1.821 1.38c-.536 0-.98.183-1.334.55-.354.367-.531.837-.531 1.412s.181 1.055.541 1.428c.36.373.804.56 1.332.56.527 0 .995-.183 1.354-.55.358-.367.537-.849.537-1.443 0-.594-.18-1.053-.537-1.414-.359-.362-.812-.542-1.361-.542l-.001-.002zM128.367 2.7h1.751v3.224c0 .627.045 1.063.134 1.308.089.243.233.434.429.569.197.134.44.202.729.202.29 0 .534-.067.735-.2.202-.133.352-.329.448-.588.072-.193.108-.605.108-1.237v-3.28h1.733v2.837c0 1.169-.096 1.97-.286 2.4a2.643 2.643 0 01-1.029 1.21c-.453.28-1.028.42-1.726.42-.758 0-1.37-.164-1.837-.491-.467-.328-.795-.786-.986-1.372-.135-.405-.203-1.145-.203-2.215V2.699zM141.267.115H143v9.279h-1.733v-.708a3.373 3.373 0 01-1.017.673c-.34.138-.709.206-1.106.206-.891 0-1.663-.335-2.313-1.005-.651-.671-.977-1.505-.977-2.501s.315-1.88.945-2.542c.63-.66 1.394-.991 2.294-.991.415 0 .803.076 1.166.228.364.152.699.38 1.007.683V.114l.001.001zm-1.82 3.963c-.536 0-.98.183-1.334.55-.354.368-.531.838-.531 1.413 0 .575.181 1.055.541 1.428.36.373.804.56 1.331.56.528 0 .995-.183 1.354-.55.359-.368.537-.85.537-1.443 0-.594-.179-1.054-.537-1.415-.359-.361-.812-.541-1.36-.541l-.001-.002z" fill="#fff"/></svg>