<svg width="477" height="26" viewBox="0 0 477 26" fill="none" xmlns="http://www.w3.org/2000/svg"><path d="M.736 25V1.672h2.556l5.688 7.92c1.224 1.728 3.78 5.4 3.78 5.4s2.556-3.636 3.78-5.364l5.688-7.956h2.556V25h-2.88V6.532s-.612 1.116-1.728 2.664l-7.416 10.44L5.308 9.124C4.264 7.648 3.616 6.532 3.616 6.532V25H.736zm37.524.36c-4.968 0-9.18-3.564-9.18-9.108 0-5.076 3.816-9.144 8.82-9.144 4.68 0 8.388 4.032 8.388 9.036 0 .504-.072 1.044-.072 1.08H31.924c.432 3.492 3.132 5.688 6.372 5.688 1.98 0 3.96-.684 5.4-1.872l1.188 2.016a10.728 10.728 0 01-6.624 2.304zm-6.336-10.224h11.664c-.288-3.24-2.772-5.58-5.832-5.58-2.988 0-5.436 2.304-5.832 5.58zM57.751 25.36c-4.86 0-8.28-4.032-8.28-9.108 0-5.148 3.42-9.144 8.28-9.144 2.808 0 5.292 1.152 6.588 3.42V1.312h2.736V25h-2.628v-3.06c-1.296 2.304-3.852 3.42-6.696 3.42zm.612-2.664c3.348 0 5.976-2.772 5.976-6.444s-2.628-6.48-5.976-6.48c-3.492 0-6.084 2.736-6.084 6.48 0 3.708 2.592 6.444 6.084 6.444zM71.67 25V7.468h2.736V25h-2.736zM73.04 4.336c-1.008 0-1.8-.792-1.8-1.8S72.031.7 73.04.7s1.836.828 1.836 1.836-.828 1.8-1.836 1.8zM87.515 25.36c-5.148 0-9.216-3.996-9.216-9.108s4.068-9.144 9.216-9.144c2.412 0 4.608.864 6.264 2.34l-1.728 1.944c-1.08-1.008-2.664-1.62-4.5-1.62-3.672 0-6.444 2.736-6.444 6.48 0 3.636 2.664 6.444 6.516 6.444 1.98 0 3.78-.756 5.004-1.98l1.584 2.052c-1.692 1.62-4.068 2.592-6.696 2.592zm17.134 0c-4.86 0-8.28-4.032-8.28-9.108 0-5.148 3.42-9.144 8.28-9.144 2.808 0 5.292 1.152 6.588 3.42v-3.06h2.736V25h-2.736v-3.06c-1.296 2.304-3.78 3.42-6.588 3.42zm.612-2.664c3.348 0 5.976-2.772 5.976-6.444s-2.628-6.48-5.976-6.48c-3.492 0-6.084 2.736-6.084 6.48 0 3.708 2.592 6.444 6.084 6.444zM118.57 25V7.468h2.736v3.708c1.008-2.304 3.276-4.068 6.768-4.068v2.988c-4.104 0-6.768 2.304-6.768 6.588V25h-2.736zm20.764.36c-4.968 0-9.18-3.564-9.18-9.108 0-5.076 3.816-9.144 8.82-9.144 4.68 0 8.388 4.032 8.388 9.036 0 .504-.072 1.044-.072 1.08h-14.292c.432 3.492 3.132 5.688 6.372 5.688 1.98 0 3.96-.684 5.4-1.872l1.188 2.016a10.728 10.728 0 01-6.624 2.304zm-6.336-10.224h11.664c-.288-3.24-2.772-5.58-5.832-5.58-2.988 0-5.436 2.304-5.832 5.58zM277.086 25.36c-3.096 0-4.932-1.512-4.932-5.616V9.736h-2.628V7.468h2.628v-3.78l2.736-.504v4.284h5.976v2.268h-5.976v10.08c0 2.412 1.044 3.096 2.448 3.096 1.62 0 2.88-.972 2.88-.972l.9 2.124c-.684.468-2.124 1.296-4.032 1.296zm15.53 0c-4.968 0-9.18-3.564-9.18-9.108 0-5.076 3.816-9.144 8.82-9.144 4.68 0 8.388 4.032 8.388 9.036 0 .504-.072 1.044-.072 1.08H286.28c.432 3.492 3.132 5.688 6.372 5.688 1.98 0 3.96-.684 5.4-1.872l1.188 2.016a10.728 10.728 0 01-6.624 2.304zm-6.336-10.224h11.664c-.288-3.24-2.772-5.58-5.832-5.58-2.988 0-5.436 2.304-5.832 5.58zm34.602 10.224c-5.148 0-9.216-3.996-9.216-9.108s4.068-9.144 9.216-9.144c2.412 0 4.608.864 6.264 2.34l-1.728 1.944c-1.08-1.008-2.664-1.62-4.5-1.62-3.672 0-6.444 2.736-6.444 6.48 0 3.636 2.664 6.444 6.516 6.444 1.98 0 3.78-.756 5.004-1.98l1.584 2.052c-1.692 1.62-4.068 2.592-6.696 2.592zm18.07 0c-5.148 0-9.216-4.032-9.216-9.108 0-5.112 4.068-9.144 9.216-9.144s9.216 4.032 9.216 9.144c0 5.076-4.068 9.108-9.216 9.108zm0-2.664c3.636 0 6.408-2.772 6.408-6.444 0-3.708-2.772-6.48-6.408-6.48-3.636 0-6.408 2.772-6.408 6.48 0 3.672 2.772 6.444 6.408 6.444zM352.042 25V7.468h2.736v2.988c1.224-2.124 3.492-3.348 6.084-3.348 4.392 0 6.336 2.664 6.336 7.272V25h-2.736V14.74c0-3.24-1.188-4.968-4.356-4.968-3.132 0-5.328 2.448-5.328 5.364V25h-2.736zm25.345.36c-3.096 0-4.932-1.512-4.932-5.616V9.736h-2.628V7.468h2.628v-3.78l2.736-.504v4.284h5.976v2.268h-5.976v10.08c0 2.412 1.044 3.096 2.448 3.096 1.62 0 2.88-.972 2.88-.972l.9 2.124c-.684.468-2.124 1.296-4.032 1.296zm14.629 0c-4.86 0-8.28-4.032-8.28-9.108 0-5.148 3.42-9.144 8.28-9.144 2.808 0 5.292 1.152 6.588 3.42v-3.06h2.736V25h-2.736v-3.06c-1.296 2.304-3.78 3.42-6.588 3.42zm.612-2.664c3.348 0 5.976-2.772 5.976-6.444s-2.628-6.48-5.976-6.48c-3.492 0-6.084 2.736-6.084 6.48 0 3.708 2.592 6.444 6.084 6.444zm21.805 2.664c-5.148 0-9.216-3.996-9.216-9.108s4.068-9.144 9.216-9.144c2.412 0 4.608.864 6.264 2.34l-1.728 1.944c-1.08-1.008-2.664-1.62-4.5-1.62-3.672 0-6.444 2.736-6.444 6.48 0 3.636 2.664 6.444 6.516 6.444 1.98 0 3.78-.756 5.004-1.98l1.584 2.052c-1.692 1.62-4.068 2.592-6.696 2.592zm15.829 0c-3.096 0-4.932-1.512-4.932-5.616V9.736h-2.628V7.468h2.628v-3.78l2.736-.504v4.284h5.976v2.268h-5.976v10.08c0 2.412 1.044 3.096 2.448 3.096 1.62 0 2.88-.972 2.88-.972l.9 2.124c-.684.468-2.124 1.296-4.032 1.296zm14.629 0c-4.86 0-8.28-4.032-8.28-9.108 0-5.148 3.42-9.144 8.28-9.144 2.808 0 5.292 1.152 6.588 3.42v-3.06h2.736V25h-2.736v-3.06c-1.296 2.304-3.78 3.42-6.588 3.42zm.612-2.664c3.348 0 5.976-2.772 5.976-6.444s-2.628-6.48-5.976-6.48c-3.492 0-6.084 2.736-6.084 6.48 0 3.708 2.592 6.444 6.084 6.444zm14.641 2.664c-1.08 0-1.872-.864-1.872-1.908s.828-1.908 1.872-1.908a1.92 1.92 0 011.908 1.908 1.92 1.92 0 01-1.908 1.908zm7.312 0c-1.08 0-1.872-.864-1.872-1.908s.828-1.908 1.872-1.908a1.92 1.92 0 011.908 1.908 1.92 1.92 0 01-1.908 1.908zm7.313 0c-1.08 0-1.872-.864-1.872-1.908s.828-1.908 1.872-1.908a1.92 1.92 0 011.908 1.908 1.92 1.92 0 01-1.908 1.908z" fill="#275D80"/><path d="M158.672 25V7h4.716v2.412c1.44-1.98 3.492-2.772 5.688-2.772 4.752 0 6.408 3.06 6.408 7.992V25h-4.824v-9.756c0-2.628-.684-4.032-3.132-4.032-2.412 0-4.032 1.944-4.032 4.68V25h-4.824zm26.515.36c-4.968 0-6.552-2.916-6.552-7.596V7h4.824v10.116c0 2.52 1.08 3.672 3.312 3.672 2.52 0 3.744-2.124 3.744-4.572V7h4.824v18h-4.536v-2.52c-1.08 1.764-3.528 2.88-5.616 2.88zm13.809-.36V7h4.716v2.412c1.44-1.98 3.492-2.772 5.688-2.772 4.752 0 6.408 3.06 6.408 7.992V25h-4.824v-9.756c0-2.628-.684-4.032-3.132-4.032-2.412 0-4.032 1.944-4.032 4.68V25h-4.824zm29.287.36c-5.364 0-9.612-4.14-9.612-9.36s4.248-9.36 9.612-9.36c2.484 0 4.644.828 6.444 2.304l-2.916 3.384c-.828-.756-1.98-1.224-3.42-1.224-2.808 0-4.824 2.052-4.824 4.896 0 2.808 1.908 4.896 4.968 4.896 1.512 0 2.988-.576 3.924-1.476l2.556 3.6c-1.728 1.476-4.14 2.34-6.732 2.34zm16.243 0c-4.968 0-8.136-4.176-8.136-9.36 0-5.184 3.168-9.36 8.136-9.36 2.088 0 4.32.828 5.616 2.556V7h4.716v18h-4.716v-2.16c-1.26 1.728-3.528 2.52-5.616 2.52zm1.224-4.464c2.484 0 4.284-2.016 4.284-4.896 0-2.808-1.8-4.896-4.284-4.896-2.592 0-4.464 2.088-4.464 4.896 0 2.844 1.872 4.896 4.464 4.896z" fill="#091C29"/></svg>