<svg width="259" height="52" viewBox="0 0 259 52" fill="none" xmlns="http://www.w3.org/2000/svg"><rect x="1" y="1" width="257" height="50" rx="7" fill="#51B9FA" stroke="#99CAE9" stroke-width="2"/><path d="M28.543 33.663V19.407h5.94c4.774 0 7.766 3.234 7.766 7.128s-2.992 7.128-7.766 7.128h-5.94zm4.18-3.542h1.606c2.134 0 3.498-1.518 3.498-3.586 0-2.046-1.364-3.586-3.498-3.586h-1.606v7.172zm12.164 3.542V19.407h11.33v3.542h-7.15v1.738h6.864v3.498h-6.864v1.936h7.414v3.542H44.887zm17.612 0V22.949h-4.466v-3.542h13.112v3.542h-4.466v10.714h-4.18zm10.95 0V19.407h11.33v3.542h-7.15v1.738h6.864v3.498H77.63v1.936h7.414v3.542H73.45zm3.652-14.96l2.31-3.938h3.85l-3.19 3.938h-2.97zm10.264 14.96V19.407h3.63l4.532 6.314c.33.44.638 1.078.638 1.078v-7.392h4.18v14.256h-3.63l-4.532-6.204c-.33-.44-.638-1.078-.638-1.078v7.282h-4.18zm21.601 0V19.407h11.33v3.542h-7.15v1.738h6.864v3.498h-6.864v1.936h7.414v3.542h-11.594zm13.916 0V19.407h4.18V30.12h7.59v3.542h-11.77zm19.732 0V19.407h11v3.542h-6.82v1.738h5.962v3.498h-5.962v5.478h-4.18zm12.971 0V19.407h6.292c4.378 0 6.622 2.53 6.622 5.632 0 1.65-.748 3.344-2.244 4.378l2.662 4.246h-4.774l-1.628-3.058c-.44.044-.682.066-1.034.066h-1.716v2.992h-4.18zm4.18-6.534h2.156c1.298 0 2.156-.946 2.156-2.09 0-1.166-.88-2.09-2.134-2.09h-2.178v4.18zm10.334 6.534l5.764-14.256h4.312l5.764 14.256h-4.268l-.66-1.848h-5.984l-.66 1.848h-4.268zm6.05-5.06h3.74l-1.694-4.818c-.132-.352-.154-.484-.176-.572 0 0-.044.198-.176.572l-1.694 4.818zm17.492 5.324c-3.608 0-6.358-2.002-6.358-5.918v-8.602h4.18v8.36c0 1.716.99 2.376 2.178 2.376s2.178-.66 2.178-2.376v-8.36h4.18v8.602c0 3.916-2.75 5.918-6.358 5.918zm9.385-.264V19.407h5.94c4.774 0 7.766 3.234 7.766 7.128s-2.992 7.128-7.766 7.128h-5.94zm4.18-3.542h1.606c2.134 0 3.498-1.518 3.498-3.586 0-2.046-1.364-3.586-3.498-3.586h-1.606v7.172zm12.163 3.542V19.407h11.33v3.542h-7.15v1.738h6.864v3.498h-6.864v1.936h7.414v3.542h-11.594z" fill="#091C29"/></svg>