<svg width="255" height="64" viewBox="0 0 255 64" fill="none" xmlns="http://www.w3.org/2000/svg"><rect x="1" y="1" width="253" height="62" rx="7" fill="#FFBA1A" stroke="#FFCF61" stroke-width="2"/><path d="M31.489 42V24.504h13.905v4.347h-8.775v2.133h8.424v4.293h-8.424v2.376h9.099V42h-14.23zm16.808 0V24.504h4.374l3.43 4.914c.566.837 1.484 2.268 1.484 2.268s.918-1.431 1.485-2.268l3.43-4.914h4.373V42h-5.13v-8.856s-.89 1.431-1.377 2.106l-2.78 3.888-2.809-3.888c-.486-.675-1.35-2.052-1.35-2.052V42h-5.13zm22.082 0V24.504h7.722c5.373 0 8.127 3.105 8.127 6.912s-2.754 6.912-8.154 6.912H75.51V42h-5.13zm5.13-8.019h2.7c1.512 0 2.592-1.134 2.592-2.565s-1.08-2.565-2.565-2.565H75.51v5.13zM89.165 42V24.504h5.13V42h-5.13zm8.635 0V24.504h13.905v4.347h-8.775v2.133h8.424v4.293h-8.424v2.376h9.099V42H97.8zm15.999 0v-3.672l6.399-7.83c.729-.891 1.512-1.647 1.512-1.647h-7.533v-4.347h14.283v3.726l-6.021 7.425c-.675.837-1.782 1.998-1.782 1.998h8.046V42h-14.904zm16.85 0 7.074-17.496h5.292L150.089 42h-5.238l-.81-2.268h-7.344l-.81 2.268h-5.238zm7.425-6.21h4.59l-2.079-5.913c-.162-.432-.189-.594-.216-.702 0 0-.054.243-.216.702l-2.079 5.913zM157.595 42l7.074-17.496h5.292L177.035 42h-5.238l-.81-2.268h-7.344l-.81 2.268h-5.238zm7.425-6.21h4.59l-2.079-5.913c-.162-.432-.189-.594-.216-.702 0 0-.054.243-.216.702l-2.079 5.913zm22.013 6.534c-5.616 0-9.369-4.023-9.369-9.072 0-4.995 3.753-9.018 9.369-9.018s9.396 4.023 9.396 9.018c0 2.133-.675 4.077-1.89 5.616l1.134 1.134-2.322 2.349-1.296-1.296c-1.404.81-3.105 1.269-5.022 1.269zm0-4.644c.513 0 .972-.081 1.404-.243l-1.296-1.323 2.349-2.322 1.269 1.296c.216-.54.324-1.161.324-1.836 0-2.538-1.674-4.374-4.05-4.374-2.214 0-4.023 1.836-4.023 4.374 0 2.592 1.674 4.428 4.023 4.428zm20.106 4.644c-4.428 0-7.803-2.457-7.803-7.263V24.504h5.13v10.26c0 2.106 1.215 2.916 2.673 2.916s2.673-.81 2.673-2.916v-10.26h5.13v10.557c0 4.806-3.375 7.263-7.803 7.263zM218.387 42V24.504h5.13V42h-5.13zm.108-18.36 2.835-4.833h4.725l-3.915 4.833h-3.645z" fill="#0B2E54"/></svg>