<svg width="245" height="81" viewBox="0 0 245 81" fill="none" xmlns="http://www.w3.org/2000/svg"><path d="M34.637 31V7.494h7.912v2.714c2.162-2.53 4.738-3.174 7.084-3.174 5.934 0 8.234 3.496 8.234 10.396V31h-8.372V18.488c0-2.668-1.012-3.634-2.622-3.634-2.576 0-3.864 2.162-3.864 5.06V31h-8.372zm35.01.46c-7.085 0-8.557-4.416-8.557-10.396V7.494h8.373v12.512c0 2.484.828 3.634 3.036 3.634 2.53 0 3.45-2.162 3.45-5.06V7.494h8.371V31h-7.91v-2.576c-1.288 1.656-4.325 3.036-6.763 3.036zM88.004 31V7.494h7.912v2.714c2.162-2.53 4.738-3.174 7.084-3.174 5.934 0 8.234 3.496 8.234 10.396V31h-8.372V18.488c0-2.668-1.012-3.634-2.622-3.634-2.576 0-3.864 2.162-3.864 5.06V31h-8.372zm38.92.46c-7.222 0-12.696-5.428-12.696-12.19 0-6.808 5.474-12.236 12.696-12.236 3.22 0 5.842.966 8.326 2.944l-4.83 5.796c-.874-.828-1.84-1.38-3.266-1.38-2.714 0-4.462 2.07-4.462 4.876 0 2.852 1.702 4.83 4.646 4.83 1.61 0 2.944-.69 3.956-1.702l4.186 6.164c-2.254 1.886-5.244 2.898-8.556 2.898zm19.749 0c-6.532 0-10.074-5.428-10.074-12.19 0-6.808 3.542-12.236 10.074-12.236 1.886 0 5.014.644 6.394 3.082V7.494h7.912V31h-7.912v-2.622c-1.288 2.392-4.508 3.082-6.394 3.082zm2.208-7.36c2.208 0 3.772-1.978 3.772-4.83 0-2.806-1.564-4.876-3.772-4.876-2.208 0-3.772 2.07-3.772 4.876 0 2.852 1.564 4.83 3.772 4.83zm25.957 6.9V.732h8.372V31h-8.372zm24.275.46c-7.222 0-12.696-5.428-12.696-12.19 0-6.808 5.474-12.236 12.696-12.236 7.222 0 12.696 5.428 12.696 12.236 0 6.762-5.474 12.19-12.696 12.19zm0-7.36c2.484 0 4.232-1.978 4.232-4.83 0-2.806-1.748-4.876-4.232-4.876s-4.232 2.07-4.232 4.876c0 2.852 1.748 4.83 4.232 4.83zM13.182 74.46C5.958 74.46.485 69.032.485 62.27c0-6.808 5.474-12.236 12.697-12.236 3.22 0 5.841.966 8.325 2.944l-4.83 5.796c-.873-.828-1.84-1.38-3.265-1.38-2.715 0-4.463 2.07-4.463 4.876 0 2.852 1.703 4.83 4.646 4.83 1.61 0 2.944-.69 3.957-1.702l4.186 6.164c-2.255 1.886-5.244 2.898-8.556 2.898zm22.37 0c-7.221 0-12.695-5.428-12.695-12.19 0-6.808 5.474-12.236 12.696-12.236 7.222 0 12.696 5.428 12.696 12.236 0 6.762-5.474 12.19-12.696 12.19zm0-7.36c2.485 0 4.233-1.978 4.233-4.83 0-2.806-1.748-4.876-4.232-4.876s-4.232 2.07-4.232 4.876c0 2.852 1.748 4.83 4.232 4.83zm15.93 6.9V50.494h7.913v2.576c1.748-1.978 4.462-3.036 7.084-3.036 3.772 0 5.796 1.518 6.9 3.634 2.024-2.944 5.152-3.634 7.498-3.634 7.59 0 8.234 6.118 8.234 10.856V74h-8.372V61.856c0-2.806-.782-4.094-2.622-4.094-2.484 0-3.634 2.254-3.634 5.152V74H66.11V61.856c0-2.806-.782-4.094-2.622-4.094-2.484 0-3.634 2.254-3.634 5.152V74h-8.372zm41.06 6.762V50.494h7.911v2.622c1.886-2.53 4.508-3.082 6.394-3.082 6.532 0 10.074 5.428 10.074 12.19 0 6.808-3.772 12.236-10.35 12.236-1.886 0-4.232-.644-5.658-2.438v8.74h-8.372zm12.05-13.662c2.208 0 3.772-1.978 3.772-4.83 0-2.806-1.564-4.876-3.772-4.876-2.208 0-3.772 2.07-3.772 4.876 0 2.852 1.564 4.83 3.772 4.83zm25.144 7.36c-6.532 0-10.074-5.428-10.074-12.19 0-6.808 3.542-12.236 10.074-12.236 1.886 0 5.014.644 6.394 3.082v-2.622h7.912V74h-7.912v-2.622c-1.288 2.392-4.508 3.082-6.394 3.082zm2.208-7.36c2.208 0 3.772-1.978 3.772-4.83 0-2.806-1.564-4.876-3.772-4.876-2.208 0-3.772 2.07-3.772 4.876 0 2.852 1.564 4.83 3.772 4.83zm15.76 6.9V50.494h8.142v4.186c.138-1.012 2.162-4.646 7.682-4.646v9.108c-6.072 0-7.452 2.53-7.452 6.946V74h-8.372zm28.88.46c-4.508 0-7.452-2.898-7.452-8.05v-9.292h-3.45v-6.624h3.45v-4.232l8.372-2.07v6.302h5.198v6.624h-5.198v8.648c0 1.104.552 1.472 1.288 1.472.69 0 1.518-.322 2.116-.736l2.254 6.118c-2.024 1.426-4.508 1.84-6.578 1.84zm18.379 0c-6.532 0-10.074-5.428-10.074-12.19 0-6.808 3.542-12.236 10.074-12.236 1.886 0 5.014.644 6.394 3.082v-2.622h7.912V74h-7.912v-2.622c-1.288 2.392-4.508 3.082-6.394 3.082zm2.208-7.36c2.208 0 3.772-1.978 3.772-4.83 0-2.806-1.564-4.876-3.772-4.876-2.208 0-3.772 2.07-3.772 4.876 0 2.852 1.564 4.83 3.772 4.83zm24.408 7.36c-5.382 0-8.372-1.61-9.752-2.806l2.668-5.888c1.84 1.242 3.542 1.978 7.13 1.978.092 0 2.3-.138 2.3-1.058 0-.736-1.38-.874-2.76-1.196-5.106-1.242-8.878-3.312-8.878-7.636 0-5.152 4.692-7.82 9.66-7.82 4.554 0 7.268 1.012 9.522 2.208l-2.484 5.612c-2.714-1.058-5.198-1.38-6.762-1.38-.828 0-1.472.276-1.472.736 0 .874 1.978 1.196 4.324 1.84 3.312.966 7.314 2.576 7.314 7.314 0 6.302-6.394 8.096-10.81 8.096zm18.465 0c-2.622 0-4.554-1.978-4.554-4.508 0-2.53 1.932-4.508 4.554-4.508 2.668 0 4.646 1.978 4.646 4.508 0 2.53-1.978 4.508-4.646 4.508z" fill="#0B2E54"/></svg>