<svg width="206" height="120" viewBox="0 0 206 120" fill="none" xmlns="http://www.w3.org/2000/svg"><path d="M39.078 24.39c-1.17 0-2.028-.936-2.028-2.067 0-1.131.897-2.067 2.028-2.067a2.08 2.08 0 0 1 2.067 2.067 2.08 2.08 0 0 1-2.067 2.067zm8.702 0c-1.17 0-2.028-.936-2.028-2.067 0-1.131.897-2.067 2.028-2.067a2.08 2.08 0 0 1 2.067 2.067 2.08 2.08 0 0 1-2.067 2.067zm8.702 0c-1.17 0-2.028-.936-2.028-2.067 0-1.131.897-2.067 2.028-2.067a2.08 2.08 0 0 1 2.067 2.067 2.08 2.08 0 0 1-2.067 2.067zm7.259 5.109V5.007h2.847v3.276c1.404-2.457 4.173-3.666 7.254-3.666 5.265 0 8.97 4.329 8.97 9.867 0 5.538-3.705 9.906-8.97 9.906-3.003 0-5.733-1.248-7.137-3.705v8.814H63.74zm9.438-7.995c3.783 0 6.59-2.964 6.59-7.02 0-4.017-2.807-6.981-6.59-6.981-3.627 0-6.474 3.003-6.474 6.981 0 3.978 2.847 7.02 6.474 7.02zm23.816 2.886c-5.577 0-9.984-4.368-9.984-9.867 0-5.538 4.407-9.906 9.984-9.906s9.984 4.368 9.984 9.906c0 5.499-4.407 9.867-9.984 9.867zm0-2.886c3.939 0 6.942-3.003 6.942-6.981 0-4.017-3.003-7.02-6.942-7.02s-6.942 3.003-6.942 7.02c0 3.978 3.003 6.981 6.942 6.981zM111.956 24V5.007h2.964v4.017c1.092-2.496 3.549-4.407 7.332-4.407v3.237c-4.446 0-7.332 2.496-7.332 7.137V24h-2.964zm30.121.39c-3.354 0-5.343-1.638-5.343-6.084V7.464h-2.847V5.007h2.847V.912l2.964-.546v4.641h6.474v2.457h-6.474v10.92c0 2.613 1.131 3.354 2.652 3.354 1.755 0 3.12-1.053 3.12-1.053l.975 2.301c-.741.507-2.301 1.404-4.368 1.404zm15.258 0c-4.68 0-6.903-2.457-6.903-7.527V5.007h2.964v11.466c0 3.549 1.716 5.031 4.797 5.031 3.432 0 5.421-2.808 5.421-5.733V5.007h2.964V24h-2.847v-3.354c-1.17 2.457-3.9 3.744-6.396 3.744zM7.547 69V50.007h2.964v3.237c1.326-2.301 3.783-3.627 6.591-3.627 4.758 0 6.864 2.886 6.864 7.878V69h-2.964V57.885c0-3.51-1.287-5.382-4.719-5.382-3.393 0-5.772 2.652-5.772 5.811V69H7.547zm27.418-22.035 3.159-5.187h3.237l-3.666 5.187h-2.73zm1.053 22.425c-4.68 0-6.903-2.457-6.903-7.527V50.007h2.964v11.466c0 3.549 1.716 5.031 4.797 5.031 3.432 0 5.42-2.808 5.42-5.733V50.007h2.965V69h-2.847v-3.354c-1.17 2.457-3.9 3.744-6.396 3.744zM51.04 69V50.007h2.964v3.276c1.053-2.067 3.432-3.666 6.084-3.666 3.042 0 5.187 1.326 6.084 4.017 1.365-2.769 4.329-4.017 6.552-4.017 4.563 0 6.98 2.652 6.98 7.878V69h-3.002V57.885c0-3.237-1.131-5.382-4.602-5.382-3.198 0-5.226 2.574-5.226 5.421V69H63.87V57.885c0-3.237-1.131-5.382-4.563-5.382-3.315 0-5.304 2.808-5.304 5.577V69H51.04zm43.232.39c-5.382 0-9.945-3.861-9.945-9.867 0-5.499 4.134-9.906 9.555-9.906 5.07 0 9.087 4.368 9.087 9.789 0 .546-.078 1.131-.078 1.17H87.408c.468 3.783 3.393 6.162 6.903 6.162 2.145 0 4.29-.741 5.85-2.028l1.287 2.184a11.623 11.623 0 0 1-7.176 2.496zm-6.864-11.076h12.636c-.312-3.51-3.003-6.045-6.318-6.045-3.237 0-5.89 2.496-6.318 6.045zM107.977 69V50.007h2.964v4.017c1.092-2.496 3.549-4.407 7.332-4.407v3.237c-4.446 0-7.332 2.496-7.332 7.137V69h-2.964zm23.314.39c-5.577 0-9.984-4.368-9.984-9.867 0-5.538 4.407-9.906 9.984-9.906s9.984 4.368 9.984 9.906c0 5.499-4.407 9.867-9.984 9.867zm0-2.886c3.939 0 6.942-3.003 6.942-6.981 0-4.017-3.003-7.02-6.942-7.02s-6.942 3.003-6.942 7.02c0 3.978 3.003 6.981 6.942 6.981zm32.424 2.886c-5.265 0-8.97-4.368-8.97-9.867 0-5.577 3.705-9.906 8.97-9.906 3.042 0 5.733 1.248 7.137 3.705v-9.984h2.964V69h-2.847v-3.315c-1.404 2.496-4.173 3.705-7.254 3.705zm.663-2.886c3.627 0 6.474-3.003 6.474-6.981 0-3.978-2.847-7.02-6.474-7.02-3.783 0-6.591 2.964-6.591 7.02 0 4.017 2.808 6.981 6.591 6.981zm24.362 2.886c-5.382 0-9.945-3.861-9.945-9.867 0-5.499 4.134-9.906 9.555-9.906 5.07 0 9.087 4.368 9.087 9.789 0 .546-.078 1.131-.078 1.17h-15.483c.468 3.783 3.393 6.162 6.903 6.162 2.145 0 4.29-.741 5.85-2.028l1.287 2.184a11.622 11.622 0 0 1-7.176 2.496zm-6.864-11.076h12.636c-.312-3.51-3.003-6.045-6.318-6.045-3.237 0-5.889 2.496-6.318 6.045z" fill="#000"/><path d="M.02 114V84.192h7.45l5.842 8.372c.966 1.426 2.53 3.864 2.53 3.864s1.564-2.438 2.53-3.864l5.842-8.372h7.452V114h-8.74V98.912s-1.518 2.438-2.346 3.588l-4.738 6.624-4.784-6.624c-.828-1.15-2.3-3.496-2.3-3.496V114H.02zm49.212.46c-7.13 0-13.202-4.462-13.202-12.19 0-6.808 5.29-12.236 12.236-12.236 6.67 0 11.776 5.428 11.776 12.236 0 1.426-.184 2.714-.184 2.714H44.264c.69 2.208 2.76 3.036 5.014 3.036 1.978 0 4.094-.598 5.566-1.426l2.806 5.658c-2.622 1.61-5.52 2.208-8.418 2.208zm-5.198-14.214h8.372c-.276-2.162-1.978-3.634-4.14-3.634-2.07 0-3.726 1.472-4.232 3.634zm29.304 14.214c-6.532 0-10.074-5.428-10.074-12.19 0-6.808 3.772-12.236 10.35-12.236 1.886 0 4.232.644 5.658 2.438v-8.74h8.372V114h-7.912v-2.622c-1.242 2.392-4.508 3.082-6.394 3.082zm2.208-7.36c2.208 0 3.772-1.978 3.772-4.83 0-2.806-1.564-4.876-3.772-4.876-2.208 0-3.772 2.07-3.772 4.876 0 2.852 1.564 4.83 3.772 4.83zm16.22 6.9V90.494h8.372V114h-8.372zm4.14-25.3c-2.576 0-4.738-2.162-4.738-4.738 0-2.622 2.162-4.784 4.738-4.784 2.668 0 4.83 2.162 4.83 4.784 0 2.576-2.162 4.738-4.83 4.738zm20.595 25.76c-7.222 0-12.696-5.428-12.696-12.19 0-6.808 5.474-12.236 12.696-12.236 3.22 0 5.842.966 8.326 2.944l-4.83 5.796c-.874-.828-1.84-1.38-3.266-1.38-2.714 0-4.462 2.07-4.462 4.876 0 2.852 1.702 4.83 4.646 4.83 1.61 0 2.944-.69 3.956-1.702l4.186 6.164c-2.254 1.886-5.244 2.898-8.556 2.898zm20.209 0c-6.532 0-10.074-5.428-10.074-12.19 0-6.808 3.542-12.236 10.074-12.236 1.886 0 5.014.644 6.394 3.082v-2.622h7.912V114h-7.912v-2.622c-1.288 2.392-4.508 3.082-6.394 3.082zm2.208-7.36c2.208 0 3.772-1.978 3.772-4.83 0-2.806-1.564-4.876-3.772-4.876-2.208 0-3.772 2.07-3.772 4.876 0 2.852 1.564 4.83 3.772 4.83zm16.22 6.9V90.494h8.142v4.186c.138-1.012 2.162-4.646 7.682-4.646v9.108c-6.072 0-7.452 2.53-7.452 6.946V114h-8.372zm31.8.46c-7.13 0-13.202-4.462-13.202-12.19 0-6.808 5.29-12.236 12.236-12.236 6.67 0 11.776 5.428 11.776 12.236 0 1.426-.184 2.714-.184 2.714H181.97c.69 2.208 2.76 3.036 5.014 3.036 1.978 0 4.094-.598 5.566-1.426l2.806 5.658c-2.622 1.61-5.52 2.208-8.418 2.208zm-5.198-14.214h8.372c-.276-2.162-1.978-3.634-4.14-3.634-2.07 0-3.726 1.472-4.232 3.634zm19.253 19.097 1.911-8.931h2.925l-2.73 8.931h-2.106z" fill="#0B2E54"/></svg>