<svg width="266" height="118" viewBox="0 0 266 118" fill="none" xmlns="http://www.w3.org/2000/svg"><path d="M30.9 27.39c-4.992 0-8.034-1.989-9.867-3.939l1.326-2.34c2.028 1.989 4.758 3.432 8.58 3.432 3.276 0 6.708-1.443 6.708-4.563 0-2.886-3.276-3.744-6.513-4.563-4.524-1.131-9.048-2.574-9.048-7.254 0-4.524 4.33-6.825 8.853-6.825 3.12 0 5.967.78 8.502 2.808l-1.287 2.379c-2.262-1.755-4.797-2.34-7.215-2.34-2.496 0-5.694 1.17-5.694 3.978 0 2.613 2.886 3.471 6.28 4.329 4.68 1.17 9.398 2.769 9.398 7.488 0 5.187-5.187 7.41-10.023 7.41zM46.09 27V8.007h2.964V27H46.09zm1.48-22.386a1.931 1.931 0 0 1-1.95-1.95c0-1.092.858-1.989 1.95-1.989s1.989.897 1.989 1.989-.897 1.95-1.99 1.95zM70.459 27.39c-3.354 0-5.343-1.638-5.343-6.084V10.464h-2.847V8.007h2.847V3.912l2.964-.546v4.641h6.474v2.457H68.08v10.92c0 2.613 1.13 3.354 2.652 3.354 1.755 0 3.12-1.053 3.12-1.053l.975 2.301c-.741.507-2.301 1.404-4.368 1.404zm17.604 0c-5.382 0-9.945-3.861-9.945-9.867 0-5.499 4.134-9.906 9.555-9.906 5.07 0 9.087 4.368 9.087 9.789 0 .546-.078 1.131-.078 1.17H81.199c.468 3.783 3.393 6.162 6.903 6.162 2.145 0 4.29-.741 5.85-2.028l1.287 2.184a11.622 11.622 0 0 1-7.176 2.496zm-6.864-11.076h12.636c-.312-3.51-3.003-6.045-6.318-6.045-3.237 0-5.89 2.496-6.318 6.045zm39.046 11.076c-5.577 0-9.984-4.368-9.984-9.867 0-5.538 4.407-9.906 9.984-9.906s9.984 4.368 9.984 9.906c0 5.499-4.407 9.867-9.984 9.867zm0-2.886c3.939 0 6.942-3.003 6.942-6.981 0-4.017-3.003-7.02-6.942-7.02s-6.942 3.003-6.942 7.02c0 3.978 3.003 6.981 6.942 6.981zM135.634 27V10.464h-3.081V8.007h3.081V6.564c0-4.719 2.496-6.006 5.109-6.006 1.872 0 3.627.702 4.563 1.287l-.975 2.262c-.39-.234-1.521-.936-2.964-.936-1.482 0-2.769.741-2.769 3.705v1.131h6.045v2.457h-6.045V27h-2.964zm12.615 0V8.007h2.964v4.017c1.092-2.496 3.549-4.407 7.332-4.407v3.237c-4.446 0-7.332 2.496-7.332 7.137V27h-2.964zm23.275.39c-5.382 0-9.945-3.861-9.945-9.867 0-5.499 4.134-9.906 9.555-9.906 5.07 0 9.087 4.368 9.087 9.789 0 .546-.078 1.131-.078 1.17H164.66c.468 3.783 3.393 6.162 6.903 6.162 2.145 0 4.29-.741 5.85-2.028l1.287 2.184a11.622 11.622 0 0 1-7.176 2.496zm-6.864-11.076h12.636c-.312-3.51-3.003-6.045-6.318-6.045-3.237 0-5.889 2.496-6.318 6.045zm29.773 11.076c-5.577 0-9.984-4.329-9.984-9.867 0-5.538 4.407-9.906 9.984-9.906 2.613 0 4.992.936 6.786 2.535l-1.872 2.106c-1.17-1.092-2.886-1.755-4.875-1.755-3.978 0-6.981 2.964-6.981 7.02 0 3.939 2.886 6.981 7.059 6.981 2.145 0 4.095-.819 5.421-2.145l1.716 2.223c-1.833 1.755-4.407 2.808-7.254 2.808zm20.317 0c-5.382 0-9.945-3.861-9.945-9.867 0-5.499 4.134-9.906 9.555-9.906 5.07 0 9.087 4.368 9.087 9.789 0 .546-.078 1.131-.078 1.17h-15.483c.468 3.783 3.393 6.162 6.903 6.162 2.145 0 4.29-.741 5.85-2.028l1.287 2.184a11.622 11.622 0 0 1-7.176 2.496zm-6.864-11.076h12.636c-.312-3.51-3.003-6.045-6.318-6.045-3.237 0-5.889 2.496-6.318 6.045zM228.455 27V8.007h2.964v3.237c1.326-2.301 3.783-3.627 6.591-3.627 4.758 0 6.864 2.886 6.864 7.878V27h-2.964V15.885c0-3.51-1.287-5.382-4.719-5.382-3.393 0-5.772 2.652-5.772 5.811V27h-2.964zm-217.8 42.39c-5.381 0-9.944-3.861-9.944-9.867 0-5.499 4.134-9.906 9.555-9.906 5.07 0 9.087 4.368 9.087 9.789 0 .546-.078 1.131-.078 1.17H3.792c.468 3.783 3.393 6.162 6.903 6.162 2.145 0 4.29-.741 5.85-2.028l1.287 2.184a11.622 11.622 0 0 1-7.176 2.496zM3.793 58.314h12.636c-.312-3.51-3.003-6.045-6.318-6.045-3.237 0-5.89 2.496-6.318 6.045zm35.896 16.185v-8.814c-1.404 2.457-4.095 3.705-7.137 3.705-5.265 0-8.97-4.368-8.97-9.906s3.705-9.867 8.97-9.867c3.08 0 5.85 1.209 7.254 3.666v-3.276h2.847v24.492h-2.964zm-6.474-7.995c3.627 0 6.474-3.042 6.474-7.02 0-3.978-2.847-6.981-6.474-6.981-3.783 0-6.591 2.964-6.591 6.981 0 4.056 2.808 7.02 6.59 7.02zm21.788 2.886c-4.68 0-6.903-2.457-6.903-7.527V50.007h2.964v11.466c0 3.549 1.716 5.031 4.797 5.031 3.432 0 5.421-2.808 5.421-5.733V50.007h2.964V69h-2.847v-3.354c-1.17 2.457-3.9 3.744-6.396 3.744zM70.024 69V50.007h2.964V69h-2.964zm1.482-22.386a1.931 1.931 0 0 1-1.95-1.95c0-1.092.858-1.989 1.95-1.989s1.99.897 1.99 1.989-.898 1.95-1.99 1.95zm7.258 27.885V50.007h2.847v3.276c1.404-2.457 4.173-3.666 7.254-3.666 5.265 0 8.97 4.329 8.97 9.867 0 5.538-3.705 9.906-8.97 9.906-3.003 0-5.733-1.248-7.137-3.705v8.814h-2.964zm9.438-7.995c3.783 0 6.591-2.964 6.591-7.02 0-4.017-2.808-6.981-6.59-6.981-3.628 0-6.475 3.003-6.475 6.981 0 3.978 2.847 7.02 6.474 7.02zm23.817 2.886c-5.577 0-9.984-4.368-9.984-9.867 0-5.538 4.407-9.906 9.984-9.906s9.984 4.368 9.984 9.906c0 5.499-4.407 9.867-9.984 9.867zm0-2.886c3.939 0 6.942-3.003 6.942-6.981 0-4.017-3.003-7.02-6.942-7.02s-6.942 3.003-6.942 7.02c0 3.978 3.003 6.981 6.942 6.981zM136.253 69V50.007h2.964v3.276c1.053-2.067 3.432-3.666 6.084-3.666 3.042 0 5.187 1.326 6.084 4.017 1.365-2.769 4.329-4.017 6.552-4.017 4.563 0 6.981 2.652 6.981 7.878V69h-3.003V57.885c0-3.237-1.131-5.382-4.602-5.382-3.198 0-5.226 2.574-5.226 5.421V69h-3.003V57.885c0-3.237-1.131-5.382-4.563-5.382-3.315 0-5.304 2.808-5.304 5.577V69h-2.964zm40.814-22.035 3.159-5.187h3.237l-3.666 5.187h-2.73zm2.418 22.425c-5.382 0-9.945-3.861-9.945-9.867 0-5.499 4.134-9.906 9.555-9.906 5.07 0 9.087 4.368 9.087 9.789 0 .546-.078 1.131-.078 1.17h-15.483c.468 3.783 3.393 6.162 6.903 6.162 2.145 0 4.29-.741 5.85-2.028l1.287 2.184a11.622 11.622 0 0 1-7.176 2.496zm-6.864-11.076h12.636c-.312-3.51-3.003-6.045-6.318-6.045-3.237 0-5.889 2.496-6.318 6.045zM201.38 69.39c-5.265 0-8.97-4.368-8.97-9.867 0-5.577 3.705-9.906 8.97-9.906 3.042 0 5.733 1.248 7.137 3.705v-9.984h2.964V69h-2.847v-3.315c-1.404 2.496-4.173 3.705-7.254 3.705zm.663-2.886c3.627 0 6.474-3.003 6.474-6.981 0-3.978-2.847-7.02-6.474-7.02-3.783 0-6.591 2.964-6.591 7.02 0 4.017 2.808 6.981 6.591 6.981zM217.24 69V50.007h2.964V69h-2.964zm1.482-22.386a1.931 1.931 0 0 1-1.95-1.95c0-1.092.858-1.989 1.95-1.989s1.989.897 1.989 1.989-.897 1.95-1.989 1.95zm16.462 22.776c-5.577 0-9.984-4.329-9.984-9.867 0-5.538 4.407-9.906 9.984-9.906 2.613 0 4.992.936 6.786 2.535l-1.872 2.106c-1.17-1.092-2.886-1.755-4.875-1.755-3.978 0-6.981 2.964-6.981 7.02 0 3.939 2.886 6.981 7.059 6.981 2.145 0 4.095-.819 5.421-2.145l1.716 2.223c-1.833 1.755-4.407 2.808-7.254 2.808zm20.356 0c-5.577 0-9.984-4.368-9.984-9.867 0-5.538 4.407-9.906 9.984-9.906s9.984 4.368 9.984 9.906c0 5.499-4.407 9.867-9.984 9.867zm0-2.886c3.939 0 6.942-3.003 6.942-6.981 0-4.017-3.003-7.02-6.942-7.02s-6.942 3.003-6.942 7.02c0 3.978 3.003 6.981 6.942 6.981z" fill="#000"/><path d="M41.51 95.406V81.192h6.256v14.214H41.51zm-10.488 0V81.192h6.256v14.214h-6.256zM68 117.762c-4.6 0-8.188-1.058-10.304-2.484l2.99-5.244c1.84 1.196 4.508 1.518 6.394 1.518 3.036 0 4.6-1.38 5.152-2.898.184-.46.276-.92.276-1.38-1.288 1.702-3.818 2.346-5.704 2.346-6.532 0-10.304-5.06-10.304-11.27 0-6.256 3.772-11.316 10.304-11.316 1.886 0 4.876.69 6.164 3.082v-2.622h7.912v17.112c0 6.716-2.99 13.156-12.88 13.156zm.782-15.364c2.208 0 3.772-1.656 3.772-4.048 0-2.392-1.564-4.094-3.772-4.094-2.208 0-3.772 1.702-3.772 4.094 0 2.392 1.564 4.048 3.772 4.048zM85.237 111V87.494h8.142v4.186c.138-1.012 2.162-4.646 7.682-4.646v9.108c-6.072 0-7.452 2.53-7.452 6.946V111h-8.372zm29.131.46c-6.532 0-10.074-5.428-10.074-12.19 0-6.808 3.542-12.236 10.074-12.236 1.886 0 5.014.644 6.394 3.082v-2.622h7.912V111h-7.912v-2.622c-1.288 2.392-4.508 3.082-6.394 3.082zm2.208-7.36c2.208 0 3.772-1.978 3.772-4.83 0-2.806-1.564-4.876-3.772-4.876-2.208 0-3.772 2.07-3.772 4.876 0 2.852 1.564 4.83 3.772 4.83zm26.064 7.36c-4.508 0-7.452-2.898-7.452-8.05v-9.292h-3.45v-6.624h3.45v-4.232l8.372-2.07v6.302h5.198v6.624h-5.198v8.648c0 1.104.552 1.472 1.288 1.472.69 0 1.518-.322 2.116-.736l2.254 6.118c-2.024 1.426-4.508 1.84-6.578 1.84zm9.685-.46V87.494h8.372V111h-8.372zm4.14-25.3c-2.576 0-4.738-2.162-4.738-4.738 0-2.622 2.162-4.784 4.738-4.784 2.668 0 4.83 2.162 4.83 4.784 0 2.576-2.162 4.738-4.83 4.738zm17.467 25.76c-5.382 0-8.372-1.61-9.752-2.806l2.668-5.888c1.84 1.242 3.542 1.978 7.13 1.978.092 0 2.3-.138 2.3-1.058 0-.736-1.38-.874-2.76-1.196-5.106-1.242-8.878-3.312-8.878-7.636 0-5.152 4.692-7.82 9.66-7.82 4.554 0 7.268 1.012 9.522 2.208l-2.484 5.612c-2.714-1.058-5.198-1.38-6.762-1.38-.828 0-1.472.276-1.472.736 0 .874 1.978 1.196 4.324 1.84 3.312.966 7.314 2.576 7.314 7.314 0 6.302-6.394 8.096-10.81 8.096zm27.067-16.054V81.192h6.256v14.214h-6.256zm-10.488 0V81.192h6.256v14.214h-6.256zm28.036 15.984c-1.17 0-2.028-.936-2.028-2.067 0-1.131.897-2.067 2.028-2.067a2.08 2.08 0 0 1 2.067 2.067 2.08 2.08 0 0 1-2.067 2.067zm8.702 0c-1.17 0-2.028-.936-2.028-2.067 0-1.131.897-2.067 2.028-2.067a2.08 2.08 0 0 1 2.067 2.067 2.08 2.08 0 0 1-2.067 2.067zm8.702 0c-1.17 0-2.028-.936-2.028-2.067 0-1.131.897-2.067 2.028-2.067a2.08 2.08 0 0 1 2.067 2.067 2.08 2.08 0 0 1-2.067 2.067z" fill="#0B2E54"/></svg>