<svg width="245" height="23" viewBox="0 0 245 23" fill="none" xmlns="http://www.w3.org/2000/svg"><path d="M12.33 12.556H2.851c.138.906.502 1.629 1.096 2.162.594.536 1.353.803 2.275.803 1.103 0 2.05-.419 2.843-1.254l2.485 1.265c-.619.955-1.361 1.659-2.226 2.116-.865.458-1.891.686-3.079.686-1.844 0-3.345-.63-4.505-1.893C.58 15.178 0 13.598 0 11.698c0-1.9.579-3.563 1.734-4.848C2.89 5.564 4.34 4.922 6.085 4.922c1.851 0 3.357.644 4.516 1.928 1.16 1.285 1.741 2.983 1.741 5.094l-.01.61-.003.002zm-2.95-2.52A3.205 3.205 0 0 0 8.227 8.3a3.16 3.16 0 0 0-1.998-.67c-.822 0-1.543.251-2.164.75-.39.313-.751.863-1.084 1.654H9.38zm12.147-3.002-1.825 1.98c-.742-.798-1.417-1.196-2.02-1.196-.331 0-.592.076-.779.228a.7.7 0 0 0-.28.568c0 .172.06.331.178.474.12.145.412.342.88.59l1.082.587c1.138.61 1.92 1.23 2.345 1.863.424.633.638 1.376.638 2.227 0 1.134-.384 2.079-1.151 2.836-.768.759-1.796 1.136-3.085 1.136-1.716 0-3.083-.727-4.108-2.18L15.219 14c.345.437.75.79 1.214 1.06.465.269.878.405 1.239.405.39 0 .701-.101.939-.304.237-.202.356-.437.356-.704 0-.492-.428-.973-1.285-1.442l-.994-.538c-1.902-1.04-2.852-2.341-2.852-3.903 0-1.008.358-1.87 1.075-2.585.717-.716 1.635-1.072 2.75-1.072a4.48 4.48 0 0 1 2.156.545c.675.363 1.245.885 1.713 1.564l-.002.007zm3.088 7.631c.468 0 .87.177 1.2.533.33.357.496.787.496 1.295 0 .508-.165.943-.496 1.302-.33.359-.732.538-1.2.538-.469 0-.867-.18-1.2-.538a1.854 1.854 0 0 1-.496-1.302c0-.508.165-.94.496-1.295.33-.356.731-.533 1.2-.533zM31.062.763h2.947l3.688 12.03L41.415.763h2.948l2.67 17.246h-2.925l-1.704-10.89-3.38 10.89h-2.67L33.01 7.119l-1.745 10.89H28.31L31.062.763zm29.722 11.796h-9.478c.136.908.503 1.628 1.097 2.164.593.534 1.352.803 2.277.803 1.102 0 2.05-.419 2.843-1.256l2.487 1.267c-.62.952-1.361 1.66-2.228 2.119-.865.457-1.892.685-3.081.685-1.845 0-3.346-.63-4.508-1.893-1.16-1.263-1.74-2.843-1.74-4.74 0-1.898.576-3.563 1.734-4.846 1.157-1.284 2.608-1.928 4.35-1.928 1.852 0 3.357.644 4.517 1.928 1.16 1.288 1.74 2.983 1.74 5.092l-.01.61h-.004l.004-.005zm-2.951-2.521a3.217 3.217 0 0 0-1.154-1.734 3.16 3.16 0 0 0-1.997-.67c-.823 0-1.544.251-2.167.75-.39.313-.753.865-1.084 1.654h6.402zM71.587.327h2.951v17.678h-2.951v-1.348c-.577.593-1.154 1.024-1.733 1.284a4.54 4.54 0 0 1-1.884.393c-1.519 0-2.831-.64-3.94-1.916-1.109-1.277-1.664-2.866-1.664-4.766s.534-3.583 1.609-4.844c1.073-1.258 2.373-1.888 3.908-1.888.706 0 1.367.145 1.986.433.62.287 1.19.724 1.716 1.301V.327h.002zm-3.104 7.551c-.912 0-1.671.347-2.273 1.049-.602.699-.906 1.596-.906 2.69 0 1.096.308 2.009.92 2.72.613.71 1.368 1.064 2.267 1.064.9 0 1.696-.347 2.305-1.049.61-.699.914-1.614.914-2.75s-.306-2.008-.914-2.698c-.61-.686-1.38-1.03-2.315-1.03v.004h.002zM78.71 0c.516 0 .961.205 1.33.61.37.407.556.899.556 1.476s-.185 1.058-.552 1.46c-.366.4-.803.606-1.312.606s-.973-.205-1.342-.617c-.369-.412-.556-.908-.556-1.495 0-.586.183-1.044.547-1.442C77.748.2 78.19 0 78.707 0h.004zm-1.475 5.25h2.952v12.755h-2.952V5.25zm17.054 2.584L91.834 9.3c-.46-.524-.918-.886-1.368-1.09-.452-.205-.98-.306-1.586-.306-1.102 0-1.997.354-2.678 1.07-.68.712-1.022 1.628-1.022 2.743 0 1.116.327 1.97.986 2.66.655.684 1.518 1.03 2.587 1.03 1.319 0 2.347-.49 3.083-1.468l2.324 1.727c-1.262 1.78-3.04 2.67-5.341 2.67-2.07 0-3.688-.664-4.858-1.993-1.17-1.33-1.758-2.885-1.758-4.667a7.02 7.02 0 0 1 .853-3.411 6.318 6.318 0 0 1 2.383-2.452c1.018-.593 2.16-.89 3.42-.89 1.168 0 2.216.253 3.144.757a6.109 6.109 0 0 1 2.28 2.153v.004l.006-.004zm10.253-2.584h2.952v12.754h-2.952v-1.348c-.576.594-1.153 1.024-1.732 1.284a4.54 4.54 0 0 1-1.885.393c-1.518 0-2.83-.64-3.94-1.916-1.108-1.277-1.664-2.866-1.664-4.766s.535-3.583 1.61-4.843c1.072-1.259 2.372-1.889 3.907-1.889a4.66 4.66 0 0 1 1.987.433c.619.287 1.189.724 1.715 1.301V5.246v.004h.002zm-3.104 2.627c-.912 0-1.67.347-2.273 1.049-.602.699-.905 1.596-.905 2.69 0 1.096.307 2.009.92 2.72.613.71 1.368 1.064 2.267 1.064.899 0 1.696-.347 2.304-1.049.611-.699.914-1.614.914-2.75 0-1.137-.305-2.008-.914-2.698-.61-.686-1.38-1.03-2.315-1.03v.004h.002zm8.559-2.627h2.53v1.608c.271-.632.638-1.115 1.092-1.442a2.494 2.494 0 0 1 1.49-.492c.382 0 .782.108 1.2.327l-.918 2.753c-.348-.187-.63-.28-.852-.28-.454 0-.838.305-1.152.915-.313.61-.47 1.805-.47 3.588l.01.623v5.159h-2.928V5.25h-.004.002zm18.941 7.309h-9.478c.136.908.503 1.628 1.096 2.164.594.534 1.353.803 2.278.803 1.102 0 2.05-.419 2.843-1.256l2.487 1.267c-.619.952-1.361 1.66-2.228 2.119-.866.457-1.892.685-3.081.685-1.845 0-3.346-.63-4.508-1.893-1.16-1.263-1.741-2.843-1.741-4.74 0-1.898.577-3.563 1.735-4.846 1.157-1.284 2.608-1.928 4.35-1.928 1.851 0 3.357.644 4.517 1.928 1.159 1.288 1.74 2.983 1.74 5.092l-.01.61h-.004l.004-.005zm-2.952-2.521a3.218 3.218 0 0 0-1.153-1.734 3.17 3.17 0 0 0-1.997-.67c-.823 0-1.544.251-2.167.75-.39.313-.753.865-1.084 1.654h6.401zm5.992 4.629c.467 0 .87.18 1.201.534.33.354.496.788.496 1.294s-.166.944-.496 1.302a1.579 1.579 0 0 1-1.201.538c-.466 0-.869-.179-1.2-.538a1.853 1.853 0 0 1-.496-1.302c0-.51.166-.938.496-1.294a1.59 1.59 0 0 1 1.2-.534zm12.517-9.417h2.94v10.926c0 2.155-.398 3.742-1.2 4.759-1.073 1.375-2.69 2.065-4.853 2.065-1.153 0-2.12-.154-2.909-.467a5.164 5.164 0 0 1-1.987-1.378c-.54-.605-.939-1.343-1.2-2.208h3.253c.288.36.657.63 1.113.817.454.184.992.274 1.611.274.791 0 1.429-.134 1.913-.398.483-.267.822-.61 1.022-1.03.197-.424.299-1.15.299-2.181-.52.563-1.065.968-1.631 1.214-.57.246-1.213.37-1.936.37-1.579 0-2.911-.616-3.998-1.853-1.086-1.235-1.631-2.797-1.631-4.69 0-2.022.577-3.65 1.728-4.878 1.043-1.109 2.292-1.663 3.738-1.663.679 0 1.317.133 1.919.405.602.271 1.206.713 1.809 1.329V5.251zm-3.058 2.664c-.931 0-1.696.338-2.302 1.012-.607.676-.908 1.527-.908 2.551 0 1.024.312 1.934.931 2.613.619.678 1.397 1.019 2.334 1.019s1.671-.332 2.263-.996c.593-.665.892-1.537.892-2.613s-.299-1.927-.899-2.592c-.596-.665-1.367-.996-2.311-.996v.002zm14.321-2.989c1.109 0 2.152.303 3.129.904a6.268 6.268 0 0 1 2.286 2.451c.547 1.03.82 2.146.82 3.342a7.17 7.17 0 0 1-.826 3.377c-.552 1.048-1.304 1.867-2.254 2.454a5.844 5.844 0 0 1-3.145.885c-1.685 0-3.125-.65-4.319-1.952-1.193-1.302-1.789-2.88-1.789-4.74 0-1.995.674-3.655 2.02-4.985 1.181-1.157 2.538-1.734 4.076-1.734l.004-.005-.002.003zm.048 3.015c-.918 0-1.679.345-2.289 1.037-.611.693-.914 1.576-.914 2.657 0 1.08.301 2.008.905 2.698.602.69 1.366 1.03 2.29 1.03.924 0 1.692-.347 2.305-1.044.612-.697.92-1.59.92-2.684 0-1.095-.301-1.985-.905-2.666-.603-.683-1.372-1.028-2.312-1.028zm6.484-2.689h3.006l2.971 7.528 2.964-7.528h2.989l-5.003 12.754h-1.913L162.287 5.25h.005-.002zm12.402 15.845L181.869.163h2.122l-7.19 20.933h-2.109zM187.07.659h8.803v3.22h-5.782v3.149h3.757v3.171h-3.757v7.806h-3.021V.656.66zm10.355 4.516h2.544V6.79c.276-.637.643-1.12 1.099-1.451a2.495 2.495 0 0 1 1.501-.495c.384 0 .787.11 1.206.331l-.924 2.772c-.348-.189-.634-.283-.859-.283-.456 0-.842.306-1.157.92-.316.614-.473 1.817-.473 3.609l.01.625v5.19h-2.945V5.174h-.002zm16.547 0h2.968v12.832h-2.968V16.65c-.579.598-1.16 1.028-1.743 1.29a4.534 4.534 0 0 1-1.896.396c-1.526 0-2.849-.642-3.962-1.927-1.116-1.286-1.673-2.885-1.673-4.794 0-1.909.538-3.604 1.617-4.871 1.08-1.265 2.39-1.9 3.931-1.9a4.64 4.64 0 0 1 1.998.437c.623.292 1.198.727 1.726 1.309V5.175h.002zm-3.119 2.643c-.918 0-1.679.352-2.286 1.056-.606.704-.909 1.605-.909 2.707 0 1.101.309 2.021.926 2.737.617.715 1.378 1.074 2.281 1.074a2.99 2.99 0 0 0 2.32-1.056c.615-.704.92-1.626.92-2.764 0-1.139-.307-2.02-.92-2.712-.615-.692-1.391-1.037-2.33-1.037l-.002-.005zm9.077-2.644h3v6.18c0 1.203.076 2.038.229 2.507.153.467.399.833.736 1.09.337.258.752.389 1.248.389.497 0 .914-.129 1.26-.384s.602-.63.767-1.127c.123-.37.185-1.16.185-2.372V5.172h2.968v5.437c0 2.24-.163 3.774-.489 4.6-.399 1.007-.986 1.778-1.762 2.318-.776.538-1.762.808-2.958.808-1.298 0-2.347-.316-3.147-.943-.801-.628-1.363-1.507-1.69-2.63-.231-.777-.347-2.194-.347-4.245V5.174zM242.032.22H245v17.785h-2.968v-1.357c-.579.598-1.16 1.028-1.743 1.29a4.534 4.534 0 0 1-1.896.395c-1.526 0-2.849-.641-3.963-1.927-1.115-1.286-1.672-2.884-1.672-4.793 0-1.91.538-3.604 1.617-4.872 1.079-1.265 2.39-1.9 3.931-1.9.711 0 1.376.145 1.998.438.623.292 1.198.726 1.725 1.308V.22l.003.002zm-3.119 7.595c-.918 0-1.68.352-2.286 1.056-.606.704-.91 1.605-.91 2.707 0 1.102.31 2.022.927 2.737.617.716 1.378 1.074 2.281 1.074a2.99 2.99 0 0 0 2.32-1.055c.615-.704.92-1.626.92-2.765 0-1.139-.307-2.02-.92-2.712-.615-.692-1.391-1.037-2.33-1.037l-.002-.005z" fill="#fff"/></svg>