<svg width="316" height="76" viewBox="0 0 316 76" fill="none" xmlns="http://www.w3.org/2000/svg"><rect width="316" height="76" rx="2" fill="#EF6129"/><path d="M26.131 46V28.96h6.552c1.888 0 3.464.384 4.728 1.152 1.28.752 2.24 1.776 2.88 3.072.656 1.28.984 2.704.984 4.272 0 1.728-.36 3.232-1.08 4.512a7.362 7.362 0 01-3 2.976c-1.28.704-2.784 1.056-4.512 1.056h-6.552zm10.392-8.544c0-.88-.152-1.648-.456-2.304-.304-.672-.744-1.192-1.32-1.56-.576-.368-1.264-.552-2.064-.552h-1.872v8.88h1.872c.816 0 1.504-.192 2.064-.576a3.676 3.676 0 001.32-1.584c.304-.688.456-1.456.456-2.304zm20.852 4.464V46H45.231V28.96h11.928v4.08h-7.248v2.4h6.192v3.792h-6.192v2.688h7.464zm17.368-8.88h-4.896V46h-4.68V33.04h-4.92v-4.08h14.496v4.08zm15.769 8.88V46H78.368V28.96h11.928v4.08h-7.248v2.4h6.192v3.792h-6.192v2.688h7.464zm-4.584-13.68l-2.88-.768 1.2-3.408h4.056l-2.376 4.176zm13.36 9.384V46h-4.68V28.96h3.648l6.84 8.664V28.96h4.68V46h-3.72l-6.768-8.376zM121.933 46V28.96h4.68v12.96h7.728V46h-12.408zm19.895-17.04h5.232L152.484 46h-4.752l-1.032-3.336h-4.536L141.156 46h-4.776l5.448-17.04zm4.128 10.584l-1.512-6-1.584 6h3.096zm19.996-5.016l-.408-.24a9.817 9.817 0 00-1.08-.528 11.162 11.162 0 00-1.464-.552 5.36 5.36 0 00-1.56-.24c-.4 0-.728.064-.984.192s-.384.344-.384.648c0 .288.128.52.384.696.256.176.616.336 1.08.48.48.144 1.048.32 1.704.528 1.056.32 1.968.688 2.736 1.104.768.416 1.36.952 1.776 1.608.416.64.624 1.496.624 2.568 0 1.024-.184 1.888-.552 2.592a4.508 4.508 0 01-1.488 1.656 6.63 6.63 0 01-2.088.912c-.768.176-1.552.264-2.352.264-.816 0-1.672-.08-2.568-.24a19.58 19.58 0 01-2.568-.696 14.273 14.273 0 01-2.28-1.056l2.016-4.104.48.288c.32.192.744.408 1.272.648.528.24 1.112.456 1.752.648a6.976 6.976 0 001.968.288c.512 0 .864-.064 1.056-.192.208-.144.312-.328.312-.552 0-.336-.176-.592-.528-.768-.352-.192-.816-.368-1.392-.528-.56-.176-1.184-.376-1.872-.6-.992-.336-1.808-.712-2.448-1.128-.64-.432-1.112-.936-1.416-1.512-.304-.592-.456-1.304-.456-2.136 0-1.264.296-2.32.888-3.168a5.572 5.572 0 012.328-1.92 7.446 7.446 0 013.144-.672 9.14 9.14 0 012.4.312c.784.192 1.512.432 2.184.72.688.288 1.288.56 1.8.816l-2.016 3.864zm25.867 7.392V46h-12.144V28.96h11.928v4.08h-7.248v2.4h6.192v3.792h-6.192v2.688h7.464zm14.416-7.392l-.408-.24a9.817 9.817 0 00-1.08-.528 11.162 11.162 0 00-1.464-.552 5.36 5.36 0 00-1.56-.24c-.4 0-.728.064-.984.192s-.384.344-.384.648c0 .288.128.52.384.696.256.176.616.336 1.08.48.48.144 1.048.32 1.704.528 1.056.32 1.968.688 2.736 1.104.768.416 1.36.952 1.776 1.608.416.64.624 1.496.624 2.568 0 1.024-.184 1.888-.552 2.592a4.508 4.508 0 01-1.488 1.656 6.63 6.63 0 01-2.088.912c-.768.176-1.552.264-2.352.264-.816 0-1.672-.08-2.568-.24a19.58 19.58 0 01-2.568-.696 14.273 14.273 0 01-2.28-1.056l2.016-4.104.48.288c.32.192.744.408 1.272.648.528.24 1.112.456 1.752.648a6.976 6.976 0 001.968.288c.512 0 .864-.064 1.056-.192.208-.144.312-.328.312-.552 0-.336-.176-.592-.528-.768-.352-.192-.816-.368-1.392-.528-.56-.176-1.184-.376-1.872-.6-.992-.336-1.808-.712-2.448-1.128-.64-.432-1.112-.936-1.416-1.512-.304-.592-.456-1.304-.456-2.136 0-1.264.296-2.32.888-3.168a5.572 5.572 0 012.328-1.92 7.446 7.446 0 013.144-.672 9.14 9.14 0 012.4.312c.784.192 1.512.432 2.184.72.688.288 1.288.56 1.8.816l-2.016 3.864zm19.685-1.488h-4.896V46h-4.68V33.04h-4.92v-4.08h14.496v4.08zm5.99-4.08h5.232L242.566 46h-4.752l-1.032-3.336h-4.536L231.238 46h-4.776l5.448-17.04zm4.128 10.584l-1.512-6-1.584 6h3.096zM245.902 46V28.96h11.688v4.08h-7.008v2.832h5.712v3.792h-5.712V46h-4.68zm18.278-17.04h5.232L274.836 46h-4.752l-1.032-3.336h-4.536L263.508 46h-4.776l5.448-17.04zm4.128 10.584l-1.512-6-1.584 6h3.096zm19.996-5.016l-.408-.24a9.817 9.817 0 00-1.08-.528 11.162 11.162 0 00-1.464-.552 5.36 5.36 0 00-1.56-.24c-.4 0-.728.064-.984.192s-.384.344-.384.648c0 .288.128.52.384.696.256.176.616.336 1.08.48.48.144 1.048.32 1.704.528 1.056.32 1.968.688 2.736 1.104.768.416 1.36.952 1.776 1.608.416.64.624 1.496.624 2.568 0 1.024-.184 1.888-.552 2.592a4.508 4.508 0 01-1.488 1.656 6.63 6.63 0 01-2.088.912c-.768.176-1.552.264-2.352.264-.816 0-1.672-.08-2.568-.24a19.58 19.58 0 01-2.568-.696 14.273 14.273 0 01-2.28-1.056l2.016-4.104.48.288c.32.192.744.408 1.272.648.528.24 1.112.456 1.752.648a6.976 6.976 0 001.968.288c.512 0 .864-.064 1.056-.192.208-.144.312-.328.312-.552 0-.336-.176-.592-.528-.768-.352-.192-.816-.368-1.392-.528-.56-.176-1.184-.376-1.872-.6-.992-.336-1.808-.712-2.448-1.128-.64-.432-1.112-.936-1.416-1.512-.304-.592-.456-1.304-.456-2.136 0-1.264.296-2.32.888-3.168a5.572 5.572 0 012.328-1.92 7.446 7.446 0 013.144-.672 9.14 9.14 0 012.4.312c.784.192 1.512.432 2.184.72.688.288 1.288.56 1.8.816l-2.016 3.864z" fill="#fff"/></svg>