<svg width="581" height="90" viewBox="0 0 581 90" fill="none" xmlns="http://www.w3.org/2000/svg"><path d="M11.87 29.429c-2.21 0-4.316-.26-6.318-.78-1.976-.546-3.64-1.274-4.992-2.184l2.028-5.577a15.732 15.732 0 002.808 1.404c1.014.39 2.067.702 3.159.936a18.51 18.51 0 003.393.312c1.716 0 2.899-.221 3.549-.663.676-.442 1.014-1.014 1.014-1.716 0-.624-.221-1.105-.663-1.443-.442-.364-1.274-.676-2.496-.936l-4.758-.975c-2.522-.52-4.407-1.417-5.655-2.691-1.248-1.3-1.872-2.99-1.872-5.07 0-1.82.481-3.393 1.443-4.719.988-1.352 2.366-2.392 4.134-3.12 1.768-.754 3.835-1.131 6.201-1.131 1.95 0 3.783.273 5.499.819 1.716.52 3.12 1.248 4.212 2.184l-2.028 5.226a11.613 11.613 0 00-3.51-1.716c-1.3-.416-2.743-.624-4.329-.624-1.508 0-2.652.234-3.432.702-.754.442-1.131 1.079-1.131 1.911 0 .572.221 1.066.663 1.482.468.39 1.313.715 2.535.975l4.68.936c2.522.494 4.407 1.378 5.655 2.652 1.274 1.274 1.911 2.938 1.911 4.992 0 1.768-.494 3.315-1.482 4.641-.962 1.326-2.314 2.353-4.056 3.081-1.742.728-3.796 1.092-6.162 1.092zM27.7 29V9.188h6.942V29H27.7zm-.156-22.62V.14h7.293v6.24h-7.293zM50.989 29V14.609c0-.91-.026-1.82-.078-2.73a45 45 0 00-.234-2.691h6.708l.74 6.084h-1.052c.26-1.482.676-2.704 1.248-3.666.572-.962 1.287-1.677 2.145-2.145.858-.468 1.872-.702 3.042-.702.546 0 .949.026 1.209.078.286.026.585.104.897.234v6.084c-.65-.286-1.17-.468-1.56-.546-.39-.078-.897-.117-1.521-.117-1.066 0-1.937.195-2.613.585-.676.364-1.17.936-1.482 1.716-.286.78-.43 1.781-.43 3.003V29h-7.02zm27.219.429c-3.588 0-6.383-.923-8.385-2.769-1.976-1.846-2.964-4.381-2.964-7.605 0-2.002.416-3.783 1.248-5.343.832-1.56 2.002-2.769 3.51-3.627 1.508-.884 3.276-1.326 5.304-1.326 2.002 0 3.666.442 4.992 1.326 1.352.858 2.366 2.054 3.042 3.588.676 1.508 1.014 3.263 1.014 5.265v1.482h-13.3v-3.276h8.19l-.662.546c0-1.482-.286-2.574-.858-3.276-.546-.728-1.326-1.092-2.34-1.092-1.17 0-2.067.442-2.691 1.326-.598.858-.897 2.158-.897 3.9v.702c0 1.742.429 3.016 1.287 3.822.858.806 2.093 1.209 3.705 1.209 1.04 0 2.015-.117 2.925-.351a9.175 9.175 0 002.652-1.131l1.794 4.524c-.988.676-2.132 1.196-3.432 1.56-1.3.364-2.678.546-4.134.546zm21.48 0c-2.185 0-4.096-.416-5.734-1.248-1.638-.832-2.912-2.015-3.822-3.549-.91-1.56-1.365-3.419-1.365-5.577s.455-4.004 1.365-5.538c.91-1.534 2.184-2.704 3.822-3.51 1.638-.832 3.55-1.248 5.733-1.248 1.352 0 2.678.182 3.978.546 1.3.364 2.353.884 3.159 1.56l-1.95 4.719a6.368 6.368 0 00-2.145-1.17 6.655 6.655 0 00-2.301-.429c-1.43 0-2.548.429-3.354 1.287-.78.858-1.17 2.119-1.17 3.783 0 1.664.39 2.938 1.17 3.822.806.858 1.924 1.287 3.354 1.287.728 0 1.495-.13 2.301-.39a7.425 7.425 0 002.145-1.17l1.95 4.719c-.832.65-1.898 1.17-3.198 1.56a14.267 14.267 0 01-3.939.546zm10.4-.429V9.188h6.942V29h-6.942zm-.156-22.62V.14h7.293v6.24h-7.293zM134.7 29.429c-1.508 0-2.886-.364-4.134-1.092-1.222-.728-2.028-1.69-2.418-2.886h.429V29h-6.864V.296h6.942v12.246h-.468c.442-1.144 1.261-2.054 2.457-2.73 1.222-.702 2.574-1.053 4.056-1.053 1.716 0 3.224.416 4.524 1.248 1.326.832 2.353 2.028 3.081 3.588.754 1.56 1.131 3.406 1.131 5.538 0 2.158-.377 4.004-1.131 5.538-.728 1.534-1.755 2.717-3.081 3.549-1.3.806-2.808 1.209-4.524 1.209zm-2.184-5.148c1.144 0 2.08-.403 2.808-1.209.754-.806 1.131-2.119 1.131-3.939 0-1.82-.377-3.146-1.131-3.978-.728-.832-1.664-1.248-2.808-1.248-1.17 0-2.119.416-2.847 1.248-.728.806-1.092 2.119-1.092 3.939 0 1.82.364 3.146 1.092 3.978.728.806 1.677 1.209 2.847 1.209zm25.138 5.148c-3.588 0-6.383-.923-8.385-2.769-1.976-1.846-2.964-4.381-2.964-7.605 0-2.002.416-3.783 1.248-5.343.832-1.56 2.002-2.769 3.51-3.627 1.508-.884 3.276-1.326 5.304-1.326 2.002 0 3.666.442 4.992 1.326 1.352.858 2.366 2.054 3.042 3.588.676 1.508 1.014 3.263 1.014 5.265v1.482h-13.299v-3.276h8.19l-.663.546c0-1.482-.286-2.574-.858-3.276-.546-.728-1.326-1.092-2.34-1.092-1.17 0-2.067.442-2.691 1.326-.598.858-.897 2.158-.897 3.9v.702c0 1.742.429 3.016 1.287 3.822.858.806 2.093 1.209 3.705 1.209 1.04 0 2.015-.117 2.925-.351a9.175 9.175 0 002.652-1.131l1.794 4.524c-.988.676-2.132 1.196-3.432 1.56-1.3.364-2.678.546-4.134.546zm19.061 0c-1.846 0-3.523-.182-5.031-.546-1.482-.39-2.743-.91-3.783-1.56l1.677-4.524a15.998 15.998 0 003.393 1.404c1.274.364 2.535.546 3.783.546.988 0 1.703-.143 2.145-.429.468-.312.702-.715.702-1.209 0-.39-.143-.702-.429-.936-.286-.234-.715-.403-1.287-.507l-4.212-.741c-1.664-.312-2.964-.923-3.9-1.833-.91-.936-1.365-2.145-1.365-3.627 0-1.352.364-2.522 1.092-3.51.728-1.014 1.768-1.794 3.12-2.34 1.352-.572 2.951-.858 4.797-.858 1.508 0 2.938.169 4.29.507 1.378.338 2.574.871 3.588 1.599l-1.794 4.407c-.806-.546-1.755-.988-2.847-1.326-1.066-.364-2.067-.546-3.003-.546-1.118 0-1.911.169-2.379.507-.468.312-.702.702-.702 1.17 0 .364.13.676.39.936.26.234.676.403 1.248.507l4.212.741c1.716.286 3.029.884 3.939 1.794.936.884 1.404 2.093 1.404 3.627 0 1.43-.39 2.652-1.17 3.666-.754.988-1.807 1.755-3.159 2.301-1.352.52-2.925.78-4.719.78zm31.47 0c-2.522 0-4.394-.689-5.616-2.067-1.196-1.404-1.794-3.523-1.794-6.357V9.188h6.942v11.856c0 1.04.208 1.82.624 2.34.442.494 1.105.741 1.989.741.988 0 1.794-.351 2.418-1.053.65-.728.975-1.677.975-2.847V9.188h6.942V29h-6.747v-3.549h.585c-.624 1.274-1.469 2.262-2.535 2.964-1.066.676-2.327 1.014-3.783 1.014zM225.39 29V14.57a47.169 47.169 0 00-.312-5.382h6.708l.39 3.432h-.429c.65-1.248 1.573-2.197 2.769-2.847 1.196-.676 2.548-1.014 4.056-1.014 2.314 0 4.043.689 5.187 2.067 1.17 1.352 1.755 3.471 1.755 6.357V29h-6.942V17.495c0-1.274-.221-2.158-.663-2.652-.442-.52-1.079-.78-1.911-.78-1.092 0-1.976.364-2.652 1.092-.676.702-1.014 1.638-1.014 2.808V29h-6.942zm32.489.429c-1.716 0-3.224-.403-4.524-1.209-1.3-.832-2.327-2.028-3.081-3.588-.728-1.56-1.092-3.406-1.092-5.538 0-2.158.364-4.004 1.092-5.538.754-1.56 1.781-2.743 3.081-3.549 1.3-.832 2.808-1.248 4.524-1.248 1.534 0 2.912.364 4.134 1.092 1.248.728 2.067 1.677 2.457 2.847h-.39l.429-3.51h6.669c-.078.884-.156 1.781-.234 2.691-.052.91-.078 1.807-.078 2.691V29h-6.864l-.078-3.354h.468c-.39 1.144-1.209 2.067-2.457 2.769-1.222.676-2.574 1.014-4.056 1.014zm2.223-5.148c1.17 0 2.119-.403 2.847-1.209.728-.832 1.092-2.158 1.092-3.978 0-1.82-.364-3.133-1.092-3.939-.728-.832-1.677-1.248-2.847-1.248s-2.119.416-2.847 1.248c-.728.806-1.092 2.119-1.092 3.939 0 1.82.351 3.146 1.053 3.978.728.806 1.69 1.209 2.886 1.209zM287.231 29V.296h6.942V29h-6.942zm11.626 0V.296h6.942V29h-6.942zm19.425.429c-1.716 0-3.224-.403-4.524-1.209-1.3-.832-2.327-2.028-3.081-3.588-.728-1.56-1.092-3.406-1.092-5.538 0-2.158.364-4.004 1.092-5.538.754-1.56 1.781-2.743 3.081-3.549 1.3-.832 2.808-1.248 4.524-1.248 1.534 0 2.912.364 4.134 1.092 1.248.728 2.067 1.677 2.457 2.847h-.39l.429-3.51h6.669c-.078.884-.156 1.781-.234 2.691-.052.91-.078 1.807-.078 2.691V29h-6.864l-.078-3.354h.468c-.39 1.144-1.209 2.067-2.457 2.769-1.222.676-2.574 1.014-4.056 1.014zm2.223-5.148c1.17 0 2.119-.403 2.847-1.209.728-.832 1.092-2.158 1.092-3.978 0-1.82-.364-3.133-1.092-3.939-.728-.832-1.677-1.248-2.847-1.248s-2.119.416-2.847 1.248c-.728.806-1.092 2.119-1.092 3.939 0 1.82.351 3.146 1.053 3.978.728.806 1.69 1.209 2.886 1.209zM335.971 29V14.57a47.169 47.169 0 00-.312-5.382h6.708l.39 3.432h-.429a6.47 6.47 0 012.535-2.808c1.118-.702 2.431-1.053 3.939-1.053 1.456 0 2.691.351 3.705 1.053 1.04.676 1.794 1.755 2.262 3.237h-.663c.65-1.352 1.586-2.405 2.808-3.159 1.248-.754 2.639-1.131 4.173-1.131 2.262 0 3.952.689 5.07 2.067 1.118 1.352 1.677 3.471 1.677 6.357V29h-6.981V17.417c0-1.222-.182-2.08-.546-2.574-.364-.52-.949-.78-1.755-.78-1.014 0-1.807.364-2.379 1.092-.546.728-.819 1.729-.819 3.003V29h-6.942V17.417c0-1.222-.195-2.08-.585-2.574-.364-.52-.936-.78-1.716-.78-1.014 0-1.807.364-2.379 1.092-.546.728-.819 1.729-.819 3.003V29h-6.942zm44.219.429c-1.716 0-3.224-.403-4.524-1.209-1.3-.832-2.327-2.028-3.081-3.588-.728-1.56-1.092-3.406-1.092-5.538 0-2.158.364-4.004 1.092-5.538.754-1.56 1.781-2.743 3.081-3.549 1.3-.832 2.808-1.248 4.524-1.248 1.534 0 2.912.364 4.134 1.092 1.248.728 2.067 1.677 2.457 2.847h-.39l.429-3.51h6.669c-.078.884-.156 1.781-.234 2.691-.052.91-.078 1.807-.078 2.691V29h-6.864l-.078-3.354h.468c-.39 1.144-1.209 2.067-2.457 2.769-1.222.676-2.574 1.014-4.056 1.014zm2.223-5.148c1.17 0 2.119-.403 2.847-1.209.728-.832 1.092-2.158 1.092-3.978 0-1.82-.364-3.133-1.092-3.939-.728-.832-1.677-1.248-2.847-1.248s-2.119.416-2.847 1.248c-.728.806-1.092 2.119-1.092 3.939 0 1.82.351 3.146 1.053 3.978.728.806 1.69 1.209 2.886 1.209zm23.344 5.148c-1.69 0-3.198-.403-4.524-1.209-1.326-.832-2.366-2.028-3.12-3.588s-1.131-3.406-1.131-5.538c0-2.158.364-4.004 1.092-5.538.754-1.56 1.794-2.743 3.12-3.549 1.352-.832 2.873-1.248 4.563-1.248 1.508 0 2.873.351 4.095 1.053 1.222.676 2.041 1.586 2.457 2.73h-.585V.296h6.942V29h-6.825v-3.549h.507c-.364 1.196-1.17 2.158-2.418 2.886-1.222.728-2.613 1.092-4.173 1.092zm2.223-5.148c1.144 0 2.08-.403 2.808-1.209.754-.832 1.131-2.158 1.131-3.978 0-1.82-.377-3.133-1.131-3.939-.728-.832-1.664-1.248-2.808-1.248-1.17 0-2.132.416-2.886 1.248-.728.806-1.092 2.119-1.092 3.939 0 1.82.364 3.146 1.092 3.978.754.806 1.716 1.209 2.886 1.209zm23.187 5.148c-1.716 0-3.224-.403-4.524-1.209-1.3-.832-2.327-2.028-3.081-3.588-.728-1.56-1.092-3.406-1.092-5.538 0-2.158.364-4.004 1.092-5.538.754-1.56 1.781-2.743 3.081-3.549 1.3-.832 2.808-1.248 4.524-1.248 1.534 0 2.912.364 4.134 1.092 1.248.728 2.067 1.677 2.457 2.847h-.39l.429-3.51h6.669c-.078.884-.156 1.781-.234 2.691-.052.91-.078 1.807-.078 2.691V29h-6.864l-.078-3.354h.468c-.39 1.144-1.209 2.067-2.457 2.769-1.222.676-2.574 1.014-4.056 1.014zm2.223-5.148c1.17 0 2.119-.403 2.847-1.209.728-.832 1.092-2.158 1.092-3.978 0-1.82-.364-3.133-1.092-3.939-.728-.832-1.677-1.248-2.847-1.248s-2.119.416-2.847 1.248c-.728.806-1.092 2.119-1.092 3.939 0 1.82.351 3.146 1.053 3.978.728.806 1.69 1.209 2.886 1.209zm18.274 10.764l-2.613-2.067c1.014-.988 1.729-1.924 2.145-2.808a6.278 6.278 0 00.663-2.847L453.341 29h-4.953v-7.098h7.215v4.485c0 1.638-.299 3.12-.897 4.446-.572 1.352-1.586 2.756-3.042 4.212zm27.164-5.616c-2.522 0-4.394-.689-5.616-2.067-1.196-1.404-1.794-3.523-1.794-6.357V9.188h6.942v11.856c0 1.04.208 1.82.624 2.34.442.494 1.105.741 1.989.741.988 0 1.794-.351 2.418-1.053.65-.728.975-1.677.975-2.847V9.188h6.942V29h-6.747v-3.549h.585c-.624 1.274-1.469 2.262-2.535 2.964-1.066.676-2.327 1.014-3.783 1.014zM496.034 29V14.57a47.169 47.169 0 00-.312-5.382h6.708l.39 3.432h-.429c.65-1.248 1.573-2.197 2.769-2.847 1.196-.676 2.548-1.014 4.056-1.014 2.314 0 4.043.689 5.187 2.067 1.17 1.352 1.755 3.471 1.755 6.357V29h-6.942V17.495c0-1.274-.221-2.158-.663-2.652-.442-.52-1.079-.78-1.911-.78-1.092 0-1.976.364-2.652 1.092-.676.702-1.014 1.638-1.014 2.808V29h-6.942zM1.145 81V66.57a47.169 47.169 0 00-.312-5.382h6.708l.39 3.432h-.429a6.47 6.47 0 012.535-2.808c1.118-.702 2.431-1.053 3.939-1.053 1.456 0 2.691.351 3.705 1.053 1.04.676 1.794 1.755 2.262 3.237h-.663c.65-1.352 1.586-2.405 2.808-3.159 1.248-.754 2.639-1.131 4.173-1.131 2.262 0 3.952.689 5.07 2.067 1.118 1.352 1.677 3.471 1.677 6.357V81h-6.981V69.417c0-1.222-.182-2.08-.546-2.574-.364-.52-.949-.78-1.755-.78-1.014 0-1.807.364-2.379 1.092-.546.728-.819 1.729-.819 3.003V81h-6.942V69.417c0-1.222-.195-2.08-.585-2.574-.364-.52-.936-.78-1.716-.78-1.014 0-1.807.364-2.379 1.092-.546.728-.819 1.729-.819 3.003V81H1.145zm46.871.429c-3.588 0-6.383-.923-8.385-2.769-1.976-1.846-2.964-4.381-2.964-7.605 0-2.002.416-3.783 1.248-5.343.832-1.56 2.002-2.769 3.51-3.627 1.508-.884 3.276-1.326 5.304-1.326 2.002 0 3.666.442 4.992 1.326 1.352.858 2.366 2.054 3.042 3.588.676 1.508 1.014 3.263 1.014 5.265v1.482H42.478v-3.276h8.19l-.663.546c0-1.482-.286-2.574-.858-3.276-.546-.728-1.326-1.092-2.34-1.092-1.17 0-2.067.442-2.69 1.326-.599.858-.898 2.158-.898 3.9v.702c0 1.742.43 3.016 1.287 3.822.858.806 2.093 1.209 3.705 1.209 1.04 0 2.015-.117 2.925-.351a9.175 9.175 0 002.652-1.131l1.794 4.524c-.988.676-2.132 1.196-3.432 1.56-1.3.364-2.678.546-4.134.546zM59.473 81V66.57a47.169 47.169 0 00-.312-5.382h6.708l.39 3.432h-.43c.65-1.248 1.574-2.197 2.77-2.847 1.196-.676 2.548-1.014 4.056-1.014 2.314 0 4.043.689 5.187 2.067 1.17 1.352 1.755 3.471 1.755 6.357V81h-6.942V69.495c0-1.274-.221-2.158-.663-2.652-.442-.52-1.08-.78-1.911-.78-1.092 0-1.976.364-2.652 1.092-.676.702-1.014 1.638-1.014 2.808V81h-6.942zm32.294.429c-1.846 0-3.523-.182-5.031-.546-1.482-.39-2.743-.91-3.783-1.56l1.677-4.524a15.998 15.998 0 003.393 1.404c1.274.364 2.535.546 3.783.546.988 0 1.703-.143 2.145-.429.468-.312.702-.715.702-1.209 0-.39-.143-.702-.43-.936-.285-.234-.714-.403-1.286-.507l-4.212-.741c-1.664-.312-2.964-.923-3.9-1.833-.91-.936-1.365-2.145-1.365-3.627 0-1.352.364-2.522 1.092-3.51.728-1.014 1.768-1.794 3.12-2.34 1.352-.572 2.95-.858 4.797-.858 1.508 0 2.938.169 4.29.507 1.378.338 2.574.871 3.588 1.599l-1.794 4.407c-.806-.546-1.755-.988-2.847-1.326-1.066-.364-2.067-.546-3.003-.546-1.118 0-1.911.169-2.38.507-.467.312-.701.702-.701 1.17 0 .364.13.676.39.936.26.234.676.403 1.248.507l4.212.741c1.716.286 3.029.884 3.939 1.794.936.884 1.404 2.093 1.404 3.627 0 1.43-.39 2.652-1.17 3.666-.754.988-1.807 1.755-3.16 2.301-1.351.52-2.924.78-4.718.78zm20.313 0c-1.716 0-3.224-.403-4.524-1.209-1.3-.832-2.327-2.028-3.081-3.588-.728-1.56-1.092-3.406-1.092-5.538 0-2.158.364-4.004 1.092-5.538.754-1.56 1.781-2.743 3.081-3.549 1.3-.832 2.808-1.248 4.524-1.248 1.534 0 2.912.364 4.134 1.092 1.248.728 2.067 1.677 2.457 2.847h-.39l.429-3.51h6.669c-.078.884-.156 1.781-.234 2.691-.052.91-.078 1.807-.078 2.691V81h-6.864l-.078-3.354h.468c-.39 1.144-1.209 2.067-2.457 2.769-1.222.676-2.574 1.014-4.056 1.014zm2.223-5.148c1.17 0 2.119-.403 2.847-1.209.728-.832 1.092-2.158 1.092-3.978 0-1.82-.364-3.133-1.092-3.939-.728-.832-1.677-1.248-2.847-1.248s-2.119.416-2.847 1.248c-.728.806-1.092 2.119-1.092 3.939 0 1.82.351 3.146 1.053 3.978.728.806 1.69 1.209 2.886 1.209zm14.218 13.494c-.624 0-1.248-.039-1.872-.117a7.014 7.014 0 01-1.794-.468v-5.343c.39.13.767.221 1.131.273.338.052.702.078 1.092.078.754 0 1.378-.221 1.872-.663.52-.416.78-1.183.78-2.301V61.188h6.942v20.28c0 2.73-.65 4.797-1.95 6.201-1.274 1.404-3.341 2.106-6.201 2.106zm1.014-31.395v-6.24h7.293v6.24h-7.293zm22.311 23.049c-3.588 0-6.383-.923-8.385-2.769-1.976-1.846-2.964-4.381-2.964-7.605 0-2.002.416-3.783 1.248-5.343.832-1.56 2.002-2.769 3.51-3.627 1.508-.884 3.276-1.326 5.304-1.326 2.002 0 3.666.442 4.992 1.326 1.352.858 2.366 2.054 3.042 3.588.676 1.508 1.014 3.263 1.014 5.265v1.482h-13.299v-3.276h8.19l-.663.546c0-1.482-.286-2.574-.858-3.276-.546-.728-1.326-1.092-2.34-1.092-1.17 0-2.067.442-2.691 1.326-.598.858-.897 2.158-.897 3.9v.702c0 1.742.429 3.016 1.287 3.822.858.806 2.093 1.209 3.705 1.209 1.04 0 2.015-.117 2.925-.351a9.175 9.175 0 002.652-1.131l1.794 4.524c-.988.676-2.132 1.196-3.432 1.56-1.3.364-2.678.546-4.134.546zm30.998 0c-1.69 0-3.198-.403-4.524-1.209-1.326-.832-2.366-2.028-3.12-3.588s-1.131-3.406-1.131-5.538c0-2.158.364-4.004 1.092-5.538.754-1.56 1.794-2.743 3.12-3.549 1.352-.832 2.873-1.248 4.563-1.248 1.508 0 2.873.351 4.095 1.053 1.222.676 2.041 1.586 2.457 2.73h-.585V52.296h6.942V81h-6.825v-3.549h.507c-.364 1.196-1.17 2.158-2.418 2.886-1.222.728-2.613 1.092-4.173 1.092zm2.223-5.148c1.144 0 2.08-.403 2.808-1.209.754-.832 1.131-2.158 1.131-3.978 0-1.82-.377-3.133-1.131-3.939-.728-.832-1.664-1.248-2.808-1.248-1.17 0-2.132.416-2.886 1.248-.728.806-1.092 2.119-1.092 3.939 0 1.82.364 3.146 1.092 3.978.754.806 1.716 1.209 2.886 1.209zm25.84 5.148c-3.588 0-6.383-.923-8.385-2.769-1.976-1.846-2.964-4.381-2.964-7.605 0-2.002.416-3.783 1.248-5.343.832-1.56 2.002-2.769 3.51-3.627 1.508-.884 3.276-1.326 5.304-1.326 2.002 0 3.666.442 4.992 1.326 1.352.858 2.366 2.054 3.042 3.588.676 1.508 1.014 3.263 1.014 5.265v1.482h-13.299v-3.276h8.19l-.663.546c0-1.482-.286-2.574-.858-3.276-.546-.728-1.326-1.092-2.34-1.092-1.17 0-2.067.442-2.691 1.326-.598.858-.897 2.158-.897 3.9v.702c0 1.742.429 3.016 1.287 3.822.858.806 2.093 1.209 3.705 1.209 1.04 0 2.015-.117 2.925-.351a9.175 9.175 0 002.652-1.131l1.794 4.524c-.988.676-2.132 1.196-3.432 1.56-1.3.364-2.678.546-4.134.546zm33.26 0c-2.808 0-4.927-.663-6.357-1.989-1.404-1.352-2.106-3.393-2.106-6.123v-7.02h-3.705v-5.109h3.705v-4.68l6.942-1.638v6.318h4.836v5.109h-4.836v6.747c0 1.144.26 1.911.78 2.301.52.364 1.144.546 1.872.546.442 0 .819-.026 1.131-.078a9.467 9.467 0 001.053-.312v5.343a7.033 7.033 0 01-1.716.468c-.546.078-1.079.117-1.599.117zm16.66 0c-3.588 0-6.383-.923-8.385-2.769-1.976-1.846-2.964-4.381-2.964-7.605 0-2.002.416-3.783 1.248-5.343.832-1.56 2.002-2.769 3.51-3.627 1.508-.884 3.276-1.326 5.304-1.326 2.002 0 3.666.442 4.992 1.326 1.352.858 2.366 2.054 3.042 3.588.676 1.508 1.014 3.263 1.014 5.265v1.482h-13.299v-3.276h8.19l-.663.546c0-1.482-.286-2.574-.858-3.276-.546-.728-1.326-1.092-2.34-1.092-1.17 0-2.067.442-2.691 1.326-.598.858-.897 2.158-.897 3.9v.702c0 1.742.429 3.016 1.287 3.822.858.806 2.093 1.209 3.705 1.209 1.04 0 2.015-.117 2.925-.351a9.175 9.175 0 002.652-1.131l1.794 4.524c-.988.676-2.132 1.196-3.432 1.56-1.3.364-2.678.546-4.134.546zm7.908-.429l9.594-11.7v3.003l-9.048-11.115h8.112l4.914 6.435h-2.496l4.953-6.435h8.073l-9.048 11.154v-3.12L293.422 81h-8.19l-5.421-6.981h2.496L276.847 81h-8.112zm36.13.429c-2.808 0-4.927-.663-6.357-1.989-1.404-1.352-2.106-3.393-2.106-6.123v-7.02h-3.705v-5.109h3.705v-4.68l6.942-1.638v6.318h4.836v5.109h-4.836v6.747c0 1.144.26 1.911.78 2.301.52.364 1.144.546 1.872.546.442 0 .819-.026 1.131-.078a9.467 9.467 0 001.053-.312v5.343a7.033 7.033 0 01-1.716.468c-.546.078-1.079.117-1.599.117zm16.114 0c-2.21 0-4.121-.416-5.733-1.248-1.612-.832-2.86-2.015-3.744-3.549-.884-1.56-1.326-3.406-1.326-5.538 0-2.158.442-4.004 1.326-5.538.884-1.534 2.132-2.717 3.744-3.549 1.612-.832 3.523-1.248 5.733-1.248 2.184 0 4.082.416 5.694 1.248a8.901 8.901 0 013.744 3.588c.884 1.534 1.326 3.367 1.326 5.499 0 2.106-.442 3.939-1.326 5.499a8.901 8.901 0 01-3.744 3.588c-1.612.832-3.51 1.248-5.694 1.248zm0-5.148c1.144 0 2.054-.403 2.73-1.209.676-.832 1.014-2.158 1.014-3.978 0-1.82-.338-3.133-1.014-3.939-.676-.832-1.586-1.248-2.73-1.248-1.17 0-2.093.416-2.769 1.248-.676.806-1.014 2.119-1.014 3.939 0 1.82.338 3.146 1.014 3.978.676.806 1.599 1.209 2.769 1.209zm36.124 5.148c-2.21 0-4.121-.416-5.733-1.248-1.612-.832-2.86-2.015-3.744-3.549-.884-1.56-1.326-3.406-1.326-5.538 0-2.158.442-4.004 1.326-5.538.884-1.534 2.132-2.717 3.744-3.549 1.612-.832 3.523-1.248 5.733-1.248 2.184 0 4.082.416 5.694 1.248a8.901 8.901 0 013.744 3.588c.884 1.534 1.326 3.367 1.326 5.499 0 2.106-.442 3.939-1.326 5.499a8.901 8.901 0 01-3.744 3.588c-1.612.832-3.51 1.248-5.694 1.248zm0-5.148c1.144 0 2.054-.403 2.73-1.209.676-.832 1.014-2.158 1.014-3.978 0-1.82-.338-3.133-1.014-3.939-.676-.832-1.586-1.248-2.73-1.248-1.17 0-2.093.416-2.769 1.248-.676.806-1.014 2.119-1.014 3.939 0 1.82.338 3.146 1.014 3.978.676.806 1.599 1.209 2.769 1.209zm33.511 5.148c-2.522 0-4.394-.689-5.616-2.067-1.196-1.404-1.794-3.523-1.794-6.357V61.188h6.942v11.856c0 1.04.208 1.82.624 2.34.442.494 1.105.741 1.989.741.988 0 1.794-.351 2.418-1.053.65-.728.975-1.677.975-2.847V61.188h6.942V81h-6.747v-3.549h.585c-.624 1.274-1.469 2.262-2.535 2.964-1.066.676-2.327 1.014-3.783 1.014zM407.819 81V66.57a47.169 47.169 0 00-.312-5.382h6.708l.39 3.432h-.429c.65-1.248 1.573-2.197 2.769-2.847 1.196-.676 2.548-1.014 4.056-1.014 2.314 0 4.043.689 5.187 2.067 1.17 1.352 1.755 3.471 1.755 6.357V81h-6.942V69.495c0-1.274-.221-2.158-.663-2.652-.442-.52-1.079-.78-1.911-.78-1.092 0-1.976.364-2.652 1.092-.676.702-1.014 1.638-1.014 2.808V81h-6.942zm46.804.429c-3.588 0-6.383-.923-8.385-2.769-1.976-1.846-2.964-4.381-2.964-7.605 0-2.002.416-3.783 1.248-5.343.832-1.56 2.002-2.769 3.51-3.627 1.508-.884 3.276-1.326 5.304-1.326 2.002 0 3.666.442 4.992 1.326 1.352.858 2.366 2.054 3.042 3.588.676 1.508 1.014 3.263 1.014 5.265v1.482h-13.299v-3.276h8.19l-.663.546c0-1.482-.286-2.574-.858-3.276-.546-.728-1.326-1.092-2.34-1.092-1.17 0-2.067.442-2.691 1.326-.598.858-.897 2.158-.897 3.9v.702c0 1.742.429 3.016 1.287 3.822.858.806 2.093 1.209 3.705 1.209 1.04 0 2.015-.117 2.925-.351a9.175 9.175 0 002.652-1.131l1.794 4.524c-.988.676-2.132 1.196-3.432 1.56-1.3.364-2.678.546-4.134.546zM466.08 81V66.57a47.169 47.169 0 00-.312-5.382h6.708l.39 3.432h-.429a6.47 6.47 0 012.535-2.808c1.118-.702 2.431-1.053 3.939-1.053 1.456 0 2.691.351 3.705 1.053 1.04.676 1.794 1.755 2.262 3.237h-.663c.65-1.352 1.586-2.405 2.808-3.159 1.248-.754 2.639-1.131 4.173-1.131 2.262 0 3.952.689 5.07 2.067 1.118 1.352 1.677 3.471 1.677 6.357V81h-6.981V69.417c0-1.222-.182-2.08-.546-2.574-.364-.52-.949-.78-1.755-.78-1.014 0-1.807.364-2.379 1.092-.546.728-.819 1.729-.819 3.003V81h-6.942V69.417c0-1.222-.195-2.08-.585-2.574-.364-.52-.936-.78-1.716-.78-1.014 0-1.807.364-2.379 1.092-.546.728-.819 1.729-.819 3.003V81h-6.942zm44.219.429c-1.716 0-3.224-.403-4.524-1.209-1.3-.832-2.327-2.028-3.081-3.588-.728-1.56-1.092-3.406-1.092-5.538 0-2.158.364-4.004 1.092-5.538.754-1.56 1.781-2.743 3.081-3.549 1.3-.832 2.808-1.248 4.524-1.248 1.534 0 2.912.364 4.134 1.092 1.248.728 2.067 1.677 2.457 2.847h-.39l.429-3.51h6.669c-.078.884-.156 1.781-.234 2.691-.052.91-.078 1.807-.078 2.691V81h-6.864l-.078-3.354h.468c-.39 1.144-1.209 2.067-2.457 2.769-1.222.676-2.574 1.014-4.056 1.014zm2.223-5.148c1.17 0 2.119-.403 2.847-1.209.728-.832 1.092-2.158 1.092-3.978 0-1.82-.364-3.133-1.092-3.939-.728-.832-1.677-1.248-2.847-1.248s-2.119.416-2.847 1.248c-.728.806-1.092 2.119-1.092 3.939 0 1.82.351 3.146 1.053 3.978.728.806 1.69 1.209 2.886 1.209zM527.988 81V61.188h6.942V81h-6.942zm-.156-22.62v-6.24h7.293v6.24h-7.293zM539.613 81V52.296h6.942V81h-6.942zm11.158 0v-7.098h7.215V81h-7.215zm11.015 0v-7.098h7.215V81h-7.215zm11.016 0v-7.098h7.215V81h-7.215z" fill="#fff"/></svg>