<svg width="249" height="128" viewBox="0 0 249 128" fill="none" xmlns="http://www.w3.org/2000/svg"><path d="M20.04 5.26l-3.415 2.024c-.638-1.108-1.246-1.83-1.824-2.168-.602-.385-1.38-.578-2.33-.578-1.17 0-2.139.331-2.91.994-.77.65-1.156 1.47-1.156 2.457 0 1.36 1.012 2.457 3.035 3.288l2.783 1.138c2.264.915 3.92 2.036 4.968 3.36 1.048 1.313 1.572 2.927 1.572 4.842 0 2.566-.855 4.685-2.566 6.36-1.722 1.686-3.86 2.529-6.413 2.529-2.421 0-4.42-.717-5.998-2.15-1.554-1.433-2.524-3.45-2.909-6.052l4.264-.94c.192 1.638.53 2.77 1.011 3.397.868 1.204 2.132 1.806 3.794 1.806 1.313 0 2.403-.44 3.27-1.319.868-.879 1.301-1.993 1.301-3.342 0-.542-.078-1.036-.235-1.481a3.475 3.475 0 00-.704-1.247 5.152 5.152 0 00-1.229-1.066 11.397 11.397 0 00-1.806-.957l-2.692-1.12C6.033 13.42 4.124 11.06 4.124 7.953c0-2.096.8-3.849 2.402-5.258 1.602-1.42 3.596-2.132 5.98-2.132 3.216 0 5.727 1.566 7.534 4.698zm9.087 6.143V29h-4.064V11.403h4.064zm-4.679-7.317c0-.71.26-1.324.777-1.842a2.539 2.539 0 011.86-.777 2.56 2.56 0 011.88.777 2.5 2.5 0 01.777 1.86 2.56 2.56 0 01-.777 1.88 2.5 2.5 0 01-1.861.776 2.56 2.56 0 01-1.879-.777 2.58 2.58 0 01-.777-1.897zM50.301 21.16h-12.61c.108 1.446.578 2.596 1.41 3.45.83.844 1.896 1.265 3.197 1.265 1.012 0 1.849-.24 2.511-.722.65-.482 1.391-1.373 2.222-2.674l3.433 1.915c-.53.903-1.09 1.68-1.68 2.33a9.306 9.306 0 01-1.897 1.59c-.675.41-1.403.711-2.186.904-.783.193-1.632.289-2.548.289-2.625 0-4.733-.843-6.323-2.53-1.59-1.698-2.385-3.95-2.385-6.756 0-2.782.771-5.035 2.313-6.757 1.553-1.698 3.613-2.547 6.178-2.547 2.59 0 4.638.825 6.143 2.475 1.494 1.638 2.24 3.908 2.24 6.81l-.018.958zm-4.173-3.324c-.566-2.168-1.933-3.252-4.101-3.252-.494 0-.958.078-1.391.235a3.836 3.836 0 00-1.193.65 4.06 4.06 0 00-.903 1.012c-.253.397-.446.85-.578 1.355h8.166zm8.636-6.432h4.065v1.626c.782-.819 1.45-1.373 2.005-1.662.59-.3 1.33-.452 2.222-.452 1.987 0 3.56.868 4.716 2.602 1.276-1.734 3.004-2.601 5.184-2.601 3.963 0 5.944 2.402 5.944 7.208V29h-4.083v-9.774c0-1.686-.204-2.878-.614-3.577-.421-.71-1.114-1.066-2.078-1.066-1.12 0-1.939.422-2.457 1.265-.505.843-.758 2.198-.758 4.065V29h-4.083v-9.72c0-3.131-.904-4.697-2.71-4.697-1.145 0-1.982.428-2.511 1.283-.518.855-.777 2.204-.777 4.047V29h-4.065V11.403zm33.802 27.172H84.5V11.403h4.065v1.915c1.602-1.601 3.42-2.402 5.456-2.402 2.42 0 4.414.89 5.98 2.673 1.59 1.77 2.385 4.005 2.385 6.703 0 2.638-.789 4.836-2.367 6.594-1.566 1.747-3.541 2.62-5.926 2.62-2.06 0-3.902-.825-5.528-2.475v11.544zM98.23 20.31c0-1.686-.457-3.06-1.373-4.12-.927-1.071-2.095-1.607-3.505-1.607-1.493 0-2.703.518-3.63 1.554-.928 1.035-1.392 2.396-1.392 4.083 0 1.65.464 3.01 1.391 4.083.916 1.048 2.12 1.572 3.613 1.572 1.41 0 2.572-.53 3.487-1.59.94-1.06 1.41-2.385 1.41-3.975zm8.456-8.907h4.064v1.572c.747-.783 1.41-1.319 1.988-1.608.59-.3 1.289-.452 2.095-.452 1.072 0 2.193.35 3.361 1.048l-1.861 3.722c-.771-.554-1.524-.831-2.258-.831-2.216 0-3.325 1.674-3.325 5.023V29h-4.064V11.403zm29.61 9.756h-12.61c.108 1.446.578 2.596 1.409 3.45.831.844 1.897 1.265 3.198 1.265 1.012 0 1.849-.24 2.511-.722.651-.482 1.391-1.373 2.222-2.674l3.433 1.915c-.53.903-1.09 1.68-1.68 2.33a9.314 9.314 0 01-1.897 1.59c-.675.41-1.403.711-2.186.904-.783.193-1.632.289-2.548.289-2.625 0-4.733-.843-6.323-2.53-1.59-1.698-2.385-3.95-2.385-6.756 0-2.782.771-5.035 2.313-6.757 1.554-1.698 3.613-2.547 6.179-2.547 2.589 0 4.637.825 6.142 2.475 1.494 1.638 2.24 3.908 2.24 6.81l-.018.958zm-4.173-3.324c-.566-2.168-1.933-3.252-4.101-3.252a4.06 4.06 0 00-1.391.235 3.843 3.843 0 00-1.193.65c-.349.277-.65.614-.903 1.012-.253.397-.446.85-.578 1.355h8.166zm20.054-6.432h4.065v1.572c.746-.783 1.409-1.319 1.987-1.608.59-.3 1.289-.452 2.096-.452 1.072 0 2.192.35 3.36 1.048l-1.861 3.722c-.771-.554-1.523-.831-2.258-.831-2.216 0-3.324 1.674-3.324 5.023V29h-4.065V11.403zm29.611 9.756h-12.611c.109 1.446.578 2.596 1.409 3.45.831.844 1.897 1.265 3.198 1.265 1.012 0 1.849-.24 2.511-.722.651-.482 1.392-1.373 2.223-2.674l3.432 1.915c-.53.903-1.09 1.68-1.68 2.33a9.287 9.287 0 01-1.897 1.59c-.674.41-1.403.711-2.186.904-.783.193-1.632.289-2.547.289-2.626 0-4.734-.843-6.324-2.53-1.589-1.698-2.384-3.95-2.384-6.756 0-2.782.77-5.035 2.312-6.757 1.554-1.698 3.613-2.547 6.179-2.547 2.589 0 4.637.825 6.142 2.475 1.494 1.638 2.241 3.908 2.241 6.81l-.018.958zm-4.174-3.324c-.566-2.168-1.933-3.252-4.101-3.252-.494 0-.957.078-1.391.235a3.827 3.827 0 00-1.192.65c-.35.277-.651.614-.904 1.012-.253.397-.445.85-.578 1.355h8.166zm10.172-6.432l4.552 9.883 4.535-9.883h4.571l-9.142 18.807-9.069-18.807h4.553zm20.487 0V29h-4.065V11.403h4.065zm-4.679-7.317c0-.71.259-1.324.777-1.842a2.536 2.536 0 011.86-.777 2.56 2.56 0 011.879.777 2.5 2.5 0 01.777 1.86 2.56 2.56 0 01-.777 1.88 2.5 2.5 0 01-1.861.776 2.557 2.557 0 01-1.878-.777c-.518-.518-.777-1.15-.777-1.897zm20.053 10.316l-3.36 1.789c-.53-1.084-1.186-1.626-1.969-1.626-.374 0-.693.126-.958.38-.265.24-.397.553-.397.939 0 .674.783 1.343 2.348 2.005 2.156.928 3.608 1.783 4.355 2.566.746.783 1.12 1.836 1.12 3.161 0 1.698-.627 3.12-1.879 4.264-1.217 1.084-2.686 1.626-4.408 1.626-2.951 0-5.041-1.44-6.27-4.318l3.469-1.608c.482.843.849 1.38 1.102 1.608a2.515 2.515 0 001.771.687c1.373 0 2.059-.627 2.059-1.88 0-.722-.53-1.396-1.589-2.023-.41-.205-.82-.403-1.229-.596-.41-.193-.825-.392-1.247-.596-1.18-.578-2.011-1.157-2.493-1.735-.614-.734-.921-1.68-.921-2.836 0-1.53.524-2.794 1.572-3.794 1.072-1 2.372-1.5 3.902-1.5 2.252 0 3.926 1.163 5.022 3.487zm17.778-2.999h4.083V29h-4.083v-1.843c-1.674 1.566-3.475 2.349-5.402 2.349-2.433 0-4.444-.88-6.034-2.638-1.578-1.794-2.367-4.035-2.367-6.72 0-2.638.789-4.836 2.367-6.595 1.578-1.758 3.553-2.638 5.926-2.638 2.047 0 3.884.844 5.51 2.53v-2.042zm-9.648 8.745c0 1.686.452 3.059 1.355 4.119.928 1.072 2.096 1.608 3.505 1.608 1.506 0 2.722-.518 3.65-1.554.927-1.072 1.391-2.433 1.391-4.083 0-1.65-.464-3.011-1.391-4.083-.928-1.048-2.132-1.572-3.614-1.572-1.397 0-2.565.53-3.505 1.59-.927 1.072-1.391 2.397-1.391 3.975zM19.438 64.606V78H12.74V64.606h-2.22v-5.587h2.22v-5.698h6.697v5.698h3.81v5.587h-3.81zm13.026-5.587v10.693c0 2.343 1.134 3.515 3.404 3.515 2.269 0 3.404-1.172 3.404-3.515V59.019h6.697v11.988c0 2.565-.851 4.49-2.553 5.772-1.678 1.283-4.194 1.924-7.548 1.924-3.355 0-5.883-.641-7.585-1.924-1.678-1.283-2.516-3.207-2.516-5.772V59.019h6.697zm30.634 4.884c-1.234-.641-2.442-.962-3.626-.962-.617 0-1.123.123-1.517.37-.37.247-.555.58-.555.999 0 .222.024.407.074.555.074.123.21.247.407.37.222.123.53.234.925.333.419.099.962.222 1.628.37 1.85.37 3.231 1.036 4.144 1.998.912.937 1.369 2.146 1.369 3.626 0 1.11-.222 2.109-.666 2.997a6.547 6.547 0 01-1.85 2.257c-.79.592-1.74 1.048-2.85 1.369-1.11.345-2.33.518-3.662.518-2.566 0-5.094-.728-7.585-2.183l2.442-4.736c1.874 1.283 3.65 1.924 5.328 1.924.616 0 1.122-.136 1.517-.407.394-.271.592-.617.592-1.036 0-.247-.037-.444-.111-.592-.05-.173-.173-.32-.37-.444-.198-.148-.494-.271-.888-.37-.37-.123-.864-.247-1.48-.37-2.072-.42-3.528-1.036-4.366-1.85-.814-.839-1.221-1.986-1.221-3.441 0-1.06.197-2.01.592-2.849a5.899 5.899 0 011.702-2.183c.74-.592 1.628-1.048 2.664-1.369 1.06-.32 2.232-.481 3.515-.481 2.096 0 4.131.407 6.105 1.221l-2.257 4.366zm26.071.703V78h-6.697V64.606h-2.405v-5.587h2.405V56.17c0-1.579.148-2.837.444-3.774a6.506 6.506 0 011.184-2.183 8.59 8.59 0 011.887-1.776 9.55 9.55 0 012.368-1.147 8.023 8.023 0 012.479-.407c.567 0 1.085.062 1.554.185a8.81 8.81 0 011.48.518v5.846a6.2 6.2 0 00-1.258-.481 3.721 3.721 0 00-1.184-.185c-.271 0-.555.05-.851.148-.271.074-.53.247-.777.518s-.42.666-.518 1.184c-.074.493-.111 1.172-.111 2.035v2.368h4.699v5.587h-4.699zm13.815 3.848c0 .617.111 1.196.333 1.739.222.518.518.974.888 1.369.394.395.851.703 1.369.925a4.544 4.544 0 001.739.333c.592 0 1.147-.111 1.665-.333.542-.222.999-.53 1.369-.925a4.34 4.34 0 00.925-1.369c.246-.518.37-1.073.37-1.665 0-.592-.124-1.147-.37-1.665a4.237 4.237 0 00-.925-1.406 3.844 3.844 0 00-1.369-.925 4.182 4.182 0 00-1.665-.333c-.617 0-1.197.111-1.739.333-.518.222-.975.53-1.369.925-.37.395-.666.851-.888 1.369a3.922 3.922 0 00-.333 1.628zm8.436-9.435h6.734V78h-6.734v-2.109c-1.431 1.8-3.367 2.701-5.809 2.701-1.382 0-2.652-.247-3.811-.74a9.422 9.422 0 01-3.034-2.146 10.078 10.078 0 01-2.035-3.219c-.469-1.233-.703-2.578-.703-4.033 0-1.357.234-2.64.703-3.848a9.9 9.9 0 011.96-3.219 9.013 9.013 0 012.998-2.146c1.159-.543 2.442-.814 3.848-.814 2.368 0 4.329.826 5.883 2.479v-1.887zm25.61 6.142c-1.159-.79-2.331-1.184-3.515-1.184a4.93 4.93 0 00-1.813.333 4.347 4.347 0 00-1.443.962 4.328 4.328 0 00-.999 1.443c-.222.543-.333 1.16-.333 1.85 0 .666.111 1.283.333 1.85.247.543.567 1.024.962 1.443.419.395.913.703 1.48.925a4.93 4.93 0 001.813.333c1.258 0 2.43-.432 3.515-1.295v5.698c-1.653.715-3.219 1.073-4.699 1.073-1.381 0-2.701-.234-3.959-.703a10.437 10.437 0 01-3.293-1.998 10.335 10.335 0 01-2.257-3.145c-.567-1.233-.851-2.602-.851-4.107 0-1.505.271-2.874.814-4.107.543-1.258 1.283-2.331 2.22-3.219a9.7 9.7 0 013.33-2.109 11.244 11.244 0 014.181-.777c1.628 0 3.133.345 4.514 1.036v5.698zm11.294-.555V78h-6.697V64.606h-2.22v-5.587h2.22v-5.698h6.697v5.698h3.811v5.587h-3.811zm13.025-5.587v10.693c0 2.343 1.135 3.515 3.404 3.515 2.27 0 3.404-1.172 3.404-3.515V59.019h6.697v11.988c0 2.565-.851 4.49-2.553 5.772-1.677 1.283-4.193 1.924-7.548 1.924-3.354 0-5.883-.641-7.585-1.924-1.677-1.283-2.516-3.207-2.516-5.772V59.019h6.697zm18.054 0h6.697v3.108c.716-1.135 1.591-1.998 2.627-2.59 1.036-.617 2.245-.925 3.626-.925h.555c.222 0 .469.025.74.074v6.401a6.363 6.363 0 00-2.886-.666c-1.554 0-2.725.469-3.515 1.406-.764.913-1.147 2.257-1.147 4.033V78h-6.697V59.019zm23.669 9.435c0 .617.111 1.196.333 1.739.222.518.518.974.888 1.369.394.395.851.703 1.369.925a4.544 4.544 0 001.739.333c.592 0 1.147-.111 1.665-.333.542-.222.999-.53 1.369-.925a4.34 4.34 0 00.925-1.369c.246-.518.37-1.073.37-1.665 0-.592-.124-1.147-.37-1.665a4.237 4.237 0 00-.925-1.406 3.844 3.844 0 00-1.369-.925 4.182 4.182 0 00-1.665-.333c-.617 0-1.197.111-1.739.333-.518.222-.975.53-1.369.925-.37.395-.666.851-.888 1.369a3.922 3.922 0 00-.333 1.628zm8.436-9.435h6.734V78h-6.734v-2.109c-1.431 1.8-3.367 2.701-5.809 2.701-1.382 0-2.652-.247-3.811-.74a9.416 9.416 0 01-3.034-2.146 10.059 10.059 0 01-2.035-3.219c-.469-1.233-.703-2.578-.703-4.033 0-1.357.234-2.64.703-3.848a9.88 9.88 0 011.961-3.219 9.004 9.004 0 012.997-2.146c1.159-.543 2.442-.814 3.848-.814 2.368 0 4.329.826 5.883 2.479v-1.887zm23.871 4.884c-1.233-.641-2.442-.962-3.626-.962-.617 0-1.122.123-1.517.37-.37.247-.555.58-.555.999 0 .222.025.407.074.555.074.123.21.247.407.37.222.123.53.234.925.333.419.099.962.222 1.628.37 1.85.37 3.231 1.036 4.144 1.998.913.937 1.369 2.146 1.369 3.626 0 1.11-.222 2.109-.666 2.997a6.552 6.552 0 01-1.85 2.257c-.789.592-1.739 1.048-2.849 1.369-1.11.345-2.331.518-3.663.518-2.565 0-5.094-.728-7.585-2.183l2.442-4.736c1.875 1.283 3.651 1.924 5.328 1.924.617 0 1.122-.136 1.517-.407.395-.271.592-.617.592-1.036 0-.247-.037-.444-.111-.592-.049-.173-.173-.32-.37-.444-.197-.148-.493-.271-.888-.37-.37-.123-.863-.247-1.48-.37-2.072-.42-3.527-1.036-4.366-1.85-.814-.839-1.221-1.986-1.221-3.441 0-1.06.197-2.01.592-2.849a5.902 5.902 0 011.702-2.183c.74-.592 1.628-1.048 2.664-1.369 1.061-.32 2.232-.481 3.515-.481 2.097 0 4.132.407 6.105 1.221l-2.257 4.366zM6.863 118.228c0 .567.102 1.099.306 1.598a4.3 4.3 0 00.816 1.258c.363.363.782.646 1.258.85a4.18 4.18 0 001.598.306c.544 0 1.054-.102 1.53-.306a3.524 3.524 0 001.258-.85c.363-.363.646-.782.85-1.258.227-.476.34-.986.34-1.53s-.113-1.054-.34-1.53a3.885 3.885 0 00-.85-1.292 3.524 3.524 0 00-1.258-.85 3.843 3.843 0 00-1.53-.306c-.544 0-1.065.102-1.564.306a3.973 3.973 0 00-1.258.85c-.34.363-.623.782-.85 1.258a3.603 3.603 0 00-.306 1.496zm7.752-19.448h6.188V127h-6.188v-1.938c-1.315 1.655-3.094 2.482-5.338 2.482-1.27 0-2.437-.238-3.502-.714a8.658 8.658 0 01-2.788-1.972 9.266 9.266 0 01-1.87-2.958c-.43-1.133-.646-2.357-.646-3.672 0-1.247.204-2.425.612-3.536a9.101 9.101 0 011.802-2.958 8.282 8.282 0 012.754-1.972c1.088-.499 2.278-.748 3.57-.748 2.176 0 3.978.759 5.406 2.278V98.78zm23.126 16.966c-.204-.861-.623-1.553-1.258-2.074-.635-.521-1.405-.782-2.312-.782-.952 0-1.734.249-2.346.748-.59.499-.963 1.201-1.122 2.108h7.038zm-7.208 3.57c0 2.652 1.246 3.978 3.74 3.978 1.337 0 2.346-.544 3.026-1.632h5.95c-1.202 3.989-4.205 5.984-9.01 5.984-1.473 0-2.822-.215-4.046-.646-1.224-.453-2.278-1.088-3.162-1.904a8.525 8.525 0 01-2.006-2.924c-.476-1.133-.714-2.403-.714-3.808 0-1.451.227-2.754.68-3.91.453-1.179 1.1-2.176 1.938-2.992.838-.816 1.847-1.439 3.026-1.87 1.201-.453 2.55-.68 4.046-.68 1.473 0 2.8.227 3.978.68 1.178.431 2.176 1.065 2.992 1.904.816.839 1.44 1.87 1.87 3.094.43 1.201.646 2.561.646 4.08v.646H30.533zM57.98 127l4.352-25.636h6.596l5.134 13.668 5.1-13.668h6.596L90.111 127h-6.63l-2.21-14.756L75.22 127h-2.652l-5.746-14.756L64.611 127h-6.63zm47.594-11.254c-.204-.861-.624-1.553-1.258-2.074-.635-.521-1.406-.782-2.312-.782-.952 0-1.734.249-2.346.748-.59.499-.964 1.201-1.122 2.108h7.038zm-7.208 3.57c0 2.652 1.246 3.978 3.74 3.978 1.337 0 2.346-.544 3.026-1.632h5.95c-1.202 3.989-4.205 5.984-9.01 5.984-1.474 0-2.822-.215-4.046-.646-1.224-.453-2.278-1.088-3.162-1.904a8.525 8.525 0 01-2.006-2.924c-.476-1.133-.714-2.403-.714-3.808 0-1.451.227-2.754.68-3.91.453-1.179 1.1-2.176 1.938-2.992.838-.816 1.847-1.439 3.026-1.87 1.201-.453 2.55-.68 4.046-.68 1.473 0 2.799.227 3.978.68 1.178.431 2.176 1.065 2.992 1.904.816.839 1.439 1.87 1.87 3.094.43 1.201.646 2.561.646 4.08v.646H98.367zm22.183-1.088c0 .567.102 1.099.306 1.598a4.3 4.3 0 00.816 1.258c.363.363.782.646 1.258.85a4.183 4.183 0 001.598.306c.544 0 1.054-.102 1.53-.306a3.52 3.52 0 001.258-.85c.363-.363.646-.782.85-1.258.227-.476.34-.986.34-1.53s-.113-1.054-.34-1.53a3.879 3.879 0 00-.85-1.292 3.52 3.52 0 00-1.258-.85 3.843 3.843 0 00-1.53-.306c-.544 0-1.065.102-1.564.306a3.977 3.977 0 00-1.258.85c-.34.363-.623.782-.85 1.258a3.603 3.603 0 00-.306 1.496zm7.752-19.448h6.188V127h-6.188v-1.938c-1.314 1.655-3.094 2.482-5.338 2.482-1.269 0-2.436-.238-3.502-.714a8.669 8.669 0 01-2.788-1.972 9.283 9.283 0 01-1.87-2.958c-.43-1.133-.646-2.357-.646-3.672 0-1.247.204-2.425.612-3.536a9.119 9.119 0 011.802-2.958 8.289 8.289 0 012.754-1.972c1.088-.499 2.278-.748 3.57-.748 2.176 0 3.978.759 5.406 2.278V98.78zm16.53 10.778V127h-6.154v-17.442h6.154zm-6.562-6.698c0-.476.091-.918.272-1.326.182-.431.431-.805.748-1.122a3.6 3.6 0 011.088-.748 3.471 3.471 0 011.36-.272c.476 0 .918.09 1.326.272.431.181.805.431 1.122.748.318.317.567.691.748 1.122.182.408.272.85.272 1.326 0 .476-.09.929-.272 1.36-.181.408-.43.771-.748 1.088a3.469 3.469 0 01-1.122.748c-.408.181-.85.272-1.326.272-.476 0-.929-.091-1.36-.272a3.594 3.594 0 01-1.088-.748 3.6 3.6 0 01-.748-1.088 3.476 3.476 0 01-.272-1.36zm23.926 12.342c-1.066-.725-2.142-1.088-3.23-1.088-.59 0-1.145.102-1.666.306a4 4 0 00-1.326.884 3.955 3.955 0 00-.918 1.326c-.204.499-.306 1.065-.306 1.7 0 .612.102 1.179.306 1.7.226.499.521.941.884 1.326.385.363.838.646 1.36.85a4.527 4.527 0 001.666.306c1.156 0 2.232-.397 3.23-1.19v5.236c-1.519.657-2.958.986-4.318.986-1.27 0-2.482-.215-3.638-.646a9.59 9.59 0 01-3.026-1.836 9.477 9.477 0 01-2.074-2.89c-.522-1.133-.782-2.391-.782-3.774s.249-2.641.748-3.774a8.826 8.826 0 012.04-2.958 8.904 8.904 0 013.06-1.938 10.333 10.333 0 013.842-.714c1.496 0 2.878.317 4.148.952v5.236zm9.222 3.026c0 .567.102 1.099.306 1.598a4.3 4.3 0 00.816 1.258c.362.363.782.646 1.258.85a4.176 4.176 0 001.598.306c.544 0 1.054-.102 1.53-.306a3.53 3.53 0 001.258-.85c.362-.363.646-.782.85-1.258.226-.476.34-.986.34-1.53s-.114-1.054-.34-1.53a3.894 3.894 0 00-.85-1.292 3.53 3.53 0 00-1.258-.85 3.843 3.843 0 00-1.53-.306c-.567 0-1.1.102-1.598.306a3.965 3.965 0 00-1.258.85 4.3 4.3 0 00-.816 1.258 3.603 3.603 0 00-.306 1.496zm7.752-8.67h6.188V127h-6.188v-1.938c-1.315 1.655-3.094 2.482-5.338 2.482-1.27 0-2.437-.227-3.502-.68a8.647 8.647 0 01-2.788-1.972 9.248 9.248 0 01-1.87-2.958c-.431-1.133-.646-2.369-.646-3.706 0-1.247.215-2.425.646-3.536a9.084 9.084 0 011.802-2.958 8.269 8.269 0 012.754-1.972c1.065-.499 2.244-.748 3.536-.748 2.176 0 3.978.759 5.406 2.278v-1.734zm10.376 0h6.154v2.856c.657-1.043 1.462-1.836 2.414-2.38.952-.567 2.062-.85 3.332-.85h.51c.204 0 .43.023.68.068v5.882a5.847 5.847 0 00-2.652-.612c-1.428 0-2.505.431-3.23 1.292-.703.839-1.054 2.074-1.054 3.706V127h-6.154v-17.442zm28.787 6.188c-.204-.861-.624-1.553-1.258-2.074-.635-.521-1.406-.782-2.312-.782-.952 0-1.734.249-2.346.748-.59.499-.964 1.201-1.122 2.108h7.038zm-7.208 3.57c0 2.652 1.246 3.978 3.74 3.978 1.337 0 2.346-.544 3.026-1.632h5.95c-1.202 3.989-4.205 5.984-9.01 5.984-1.474 0-2.822-.215-4.046-.646-1.224-.453-2.278-1.088-3.162-1.904a8.515 8.515 0 01-2.006-2.924c-.476-1.133-.714-2.403-.714-3.808 0-1.451.226-2.754.68-3.91.453-1.179 1.099-2.176 1.938-2.992.838-.816 1.847-1.439 3.026-1.87 1.201-.453 2.55-.68 4.046-.68 1.473 0 2.799.227 3.978.68 1.178.431 2.176 1.065 2.992 1.904.816.839 1.439 1.87 1.87 3.094.43 1.201.646 2.561.646 4.08v.646h-12.954zm15.635 5.38c0-.384.072-.744.216-1.08.144-.352.344-.656.6-.912s.552-.456.888-.6c.352-.144.72-.216 1.104-.216.384 0 .744.072 1.08.216.352.144.656.344.912.6s.456.56.6.912c.144.336.216.696.216 1.08 0 .384-.072.752-.216 1.104a2.808 2.808 0 01-.6.888c-.256.256-.56.456-.912.6a2.712 2.712 0 01-1.08.216c-.384 0-.752-.072-1.104-.216a2.808 2.808 0 01-1.488-1.488 2.888 2.888 0 01-.216-1.104zm8.157 0c0-.384.072-.744.216-1.08.144-.352.344-.656.6-.912s.552-.456.888-.6c.352-.144.72-.216 1.104-.216.384 0 .744.072 1.08.216.352.144.656.344.912.6s.456.56.6.912c.144.336.216.696.216 1.08 0 .384-.072.752-.216 1.104a2.808 2.808 0 01-.6.888c-.256.256-.56.456-.912.6a2.712 2.712 0 01-1.08.216c-.384 0-.752-.072-1.104-.216a2.808 2.808 0 01-1.488-1.488 2.888 2.888 0 01-.216-1.104zm8.156 0c0-.384.072-.744.216-1.08.144-.352.344-.656.6-.912s.552-.456.888-.6c.352-.144.72-.216 1.104-.216.384 0 .744.072 1.08.216.352.144.656.344.912.6s.456.56.6.912c.144.336.216.696.216 1.08 0 .384-.072.752-.216 1.104a2.808 2.808 0 01-.6.888c-.256.256-.56.456-.912.6a2.712 2.712 0 01-1.08.216c-.384 0-.752-.072-1.104-.216a2.808 2.808 0 01-1.488-1.488 2.888 2.888 0 01-.216-1.104z" fill="#fff"/></svg>