<svg width="557" height="36" viewBox="0 0 557 36" fill="none" xmlns="http://www.w3.org/2000/svg"><path d="M.03 30V3.432h5.494l9.143 12.628c1.476 2.009 3.157 4.879 3.157 4.879V3.432h5.74V30H18.03L9.173 17.864C7.41 15.486 5.77 12.657 5.77 12.657V30H.03zm38.587.41c-6.109 0-10.947-4.715-10.947-10.66S32.508 9.09 38.617 9.09c6.15 0 10.988 4.715 10.988 10.66s-4.838 10.66-10.988 10.66zm0-5.084c3.075 0 5.371-2.337 5.371-5.576 0-3.198-2.296-5.576-5.37-5.576-3.076 0-5.372 2.378-5.372 5.576 0 3.239 2.296 5.576 5.371 5.576zM72.53 30.41c-6.109 0-10.947-4.715-10.947-10.66S66.421 9.09 72.53 9.09c2.83 0 5.29.943 7.34 2.624l-3.322 3.854c-.943-.861-2.255-1.394-3.895-1.394-3.198 0-5.494 2.337-5.494 5.576 0 3.198 2.173 5.576 5.658 5.576 1.722 0 3.403-.656 4.47-1.681l2.91 4.1c-1.968 1.681-4.715 2.665-7.667 2.665zm20.18 0c-6.109 0-10.947-4.715-10.947-10.66S86.601 9.09 92.71 9.09c6.15 0 10.988 4.715 10.988 10.66S98.86 30.41 92.71 30.41zm0-5.084c3.075 0 5.371-2.337 5.371-5.576 0-3.198-2.296-5.576-5.37-5.576-3.076 0-5.372 2.378-5.372 5.576 0 3.239 2.296 5.576 5.371 5.576zM107.282 30V9.5h5.371v2.747c1.189-1.845 3.608-3.157 6.068-3.157 3.239 0 5.248 1.353 6.314 3.649 1.476-2.46 4.305-3.649 6.642-3.649 5.781 0 7.585 3.977 7.585 9.225V30h-5.494V19.012c0-2.706-.656-4.715-3.567-4.715-2.706 0-4.182 2.173-4.182 4.879V30h-5.494V19.012c0-2.706-.615-4.715-3.567-4.715-2.788 0-4.182 2.378-4.182 5.084V30h-5.494zm35.875 5.904V9.5h5.207v2.46c1.681-2.009 4.1-2.87 6.56-2.87 5.658 0 9.266 4.756 9.266 10.619 0 5.945-3.69 10.701-9.348 10.701-2.378 0-4.715-.943-6.191-2.747v8.241h-5.494zm10.332-10.578c2.993 0 5.084-2.337 5.084-5.576 0-3.239-2.091-5.576-5.084-5.576-2.788 0-4.879 2.296-4.879 5.576 0 3.239 2.05 5.576 4.879 5.576zm22.903 5.084c-5.658 0-9.266-4.756-9.266-10.66s3.608-10.66 9.266-10.66c2.378 0 4.92.943 6.396 2.911V9.5h5.371V30h-5.371v-2.46c-1.435 1.968-4.018 2.87-6.396 2.87zm1.394-5.084c2.829 0 4.879-2.296 4.879-5.576 0-3.198-2.05-5.576-4.879-5.576-2.952 0-5.084 2.378-5.084 5.576 0 3.239 2.132 5.576 5.084 5.576zM192.325 30V9.5h5.412v3.936c.574-1.681 2.665-4.346 7.175-4.346v5.986c-4.756 0-7.093 2.173-7.093 7.052V30h-5.494zm24.084.41c-4.1 0-6.314-2.378-6.314-7.011v-9.471h-2.993V9.5h2.993V5.564l5.494-1.23V9.5h5.658v4.428h-5.658v9.389c0 1.763.861 2.337 1.845 2.337 1.312 0 2.46-.738 2.624-.861l1.558 4.059a9.447 9.447 0 01-5.207 1.558zm16.438 0c-5.658 0-9.266-4.756-9.266-10.66s3.608-10.66 9.266-10.66c2.378 0 4.92.943 6.396 2.911V9.5h5.371V30h-5.371v-2.46c-1.435 1.968-4.018 2.87-6.396 2.87zm1.394-5.084c2.829 0 4.879-2.296 4.879-5.576 0-3.198-2.05-5.576-4.879-5.576-2.952 0-5.084 2.378-5.084 5.576 0 3.239 2.132 5.576 5.084 5.576zm21.837 5.084c-4.387 0-7.216-1.722-8.364-2.788l1.968-4.223c1.394 1.066 3.321 2.173 6.396 2.173 1.271 0 3.362-.492 3.362-1.722s-1.763-1.517-3.526-2.009c-4.059-1.066-7.38-2.419-7.38-6.355 0-4.182 4.1-6.396 7.954-6.396 3.362 0 5.494.82 7.626 2.05l-1.845 4.1c-2.009-.984-3.895-1.435-5.699-1.435-1.271 0-2.46.574-2.46 1.435 0 1.148 1.722 1.517 3.608 1.927 3.485.82 7.298 2.337 7.298 6.519 0 5.043-5.125 6.724-8.938 6.724zm28.918 0c-4.1 0-6.314-2.378-6.314-7.011v-9.471h-2.993V9.5h2.993V5.564l5.494-1.23V9.5h5.658v4.428h-5.658v9.389c0 1.763.861 2.337 1.845 2.337 1.312 0 2.46-.738 2.624-.861l1.558 4.059a9.447 9.447 0 01-5.207 1.558zm15.083 0c-5.658 0-7.462-3.321-7.462-8.651V9.5h5.494v11.521c0 2.87 1.23 4.182 3.772 4.182 2.87 0 4.264-2.419 4.264-5.207V9.5h5.494V30h-5.166v-2.87c-1.23 2.009-4.018 3.28-6.396 3.28zm24.736-.41V9.5h5.494V30h-5.494zm2.706-23.001c-1.763 0-3.239-1.476-3.239-3.239 0-1.804 1.476-3.28 3.239-3.28a3.29 3.29 0 013.28 3.28c0 1.763-1.476 3.239-3.28 3.239zM334.504 30V9.5h5.371v2.747c1.64-2.255 3.977-3.157 6.478-3.157 5.412 0 7.298 3.485 7.298 9.102V30h-5.494V18.889c0-2.993-.779-4.592-3.567-4.592-2.747 0-4.592 2.214-4.592 5.33V30h-5.494zm23.884 0V13.969h-3.198V9.541h3.198V8.188c0-4.756 2.624-6.806 6.109-6.806 1.845 0 3.895.533 5.33 1.271l-1.558 4.059c-.451-.205-1.353-.615-2.296-.615-1.148 0-2.091.574-2.091 2.706v.738h5.125v4.428h-5.125V30h-5.494zm22.884.41c-6.109 0-10.947-4.715-10.947-10.66s4.838-10.66 10.947-10.66c6.15 0 10.988 4.715 10.988 10.66s-4.838 10.66-10.988 10.66zm0-5.084c3.075 0 5.371-2.337 5.371-5.576 0-3.198-2.296-5.576-5.371-5.576-3.075 0-5.371 2.378-5.371 5.576 0 3.239 2.296 5.576 5.371 5.576zM395.844 30V9.5h5.412v3.936c.574-1.681 2.665-4.346 7.175-4.346v5.986c-4.756 0-7.093 2.173-7.093 7.052V30h-5.494zm15.575 0V9.5h5.371v2.747c1.189-1.845 3.608-3.157 6.068-3.157 3.239 0 5.248 1.353 6.314 3.649 1.476-2.46 4.305-3.649 6.642-3.649 5.781 0 7.585 3.977 7.585 9.225V30h-5.494V19.012c0-2.706-.656-4.715-3.567-4.715-2.706 0-4.182 2.173-4.182 4.879V30h-5.494V19.012c0-2.706-.615-4.715-3.567-4.715-2.788 0-4.182 2.378-4.182 5.084V30h-5.494zm44.526.41c-5.658 0-9.266-4.756-9.266-10.66s3.608-10.66 9.266-10.66c2.378 0 4.92.943 6.396 2.911V9.5h5.371V30h-5.371v-2.46c-1.435 1.968-4.018 2.87-6.396 2.87zm1.394-5.084c2.829 0 4.879-2.296 4.879-5.576 0-3.198-2.05-5.576-4.879-5.576-2.952 0-5.084 2.378-5.084 5.576 0 3.239 2.132 5.576 5.084 5.576zm24.871 5.084c-6.109 0-10.947-4.715-10.947-10.66s4.838-10.66 10.947-10.66c2.829 0 5.289.943 7.339 2.624l-3.321 3.854c-.943-.861-2.255-1.394-3.895-1.394-3.198 0-5.494 2.337-5.494 5.576 0 3.198 2.173 5.576 5.658 5.576 1.722 0 3.403-.656 4.469-1.681l2.911 4.1c-1.968 1.681-4.715 2.665-7.667 2.665zm10.488-.41V9.5h5.494V30h-5.494zm2.706-23.001c-1.763 0-3.239-1.476-3.239-3.239 0-1.804 1.476-3.28 3.239-3.28a3.29 3.29 0 013.28 3.28c0 1.763-1.476 3.239-3.28 3.239zm13.708-.287l3.854-6.437h5.453l-4.797 6.437h-4.51zm3.608 23.698c-6.109 0-10.947-4.715-10.947-10.66s4.838-10.66 10.947-10.66c6.15 0 10.988 4.715 10.988 10.66s-4.838 10.66-10.988 10.66zm0-5.084c3.075 0 5.371-2.337 5.371-5.576 0-3.198-2.296-5.576-5.371-5.576-3.075 0-5.371 2.378-5.371 5.576 0 3.239 2.296 5.576 5.371 5.576zM527.292 30V9.5h5.371v2.747c1.64-2.255 3.977-3.157 6.478-3.157 5.412 0 7.298 3.485 7.298 9.102V30h-5.494V18.889c0-2.993-.779-4.592-3.567-4.592-2.747 0-4.592 2.214-4.592 5.33V30h-5.494zm26.098.41c-1.845 0-3.239-1.435-3.239-3.198 0-1.845 1.435-3.239 3.239-3.239 1.845 0 3.28 1.394 3.28 3.239 0 1.763-1.435 3.198-3.28 3.198z" fill="#fff"/></svg>