<svg width="400" height="35" viewBox="0 0 400 35" fill="none" xmlns="http://www.w3.org/2000/svg"><path d="M20.13 19.107H4.655c.225 1.38.82 2.478 1.79 3.29.969.816 2.208 1.222 3.714 1.222 1.8 0 3.347-.637 4.642-1.908l4.057 1.925c-1.01 1.453-2.222 2.524-3.635 3.22-1.412.697-3.088 1.043-5.026 1.043-3.012 0-5.462-.959-7.356-2.88C.948 23.097 0 20.693 0 17.802s.945-5.422 2.832-7.378C4.718 8.467 7.086 7.49 9.935 7.49c3.022 0 5.48.98 7.373 2.933 1.894 1.956 2.842 4.54 2.842 7.752l-.017.928-.004.003zm-4.816-3.836c-.318-1.081-.945-1.963-1.883-2.639-.938-.679-2.021-1.018-3.26-1.018-1.344 0-2.52.381-3.535 1.14-.637.477-1.225 1.313-1.769 2.517H15.314zM35.147 10.704l-2.98 3.013c-1.213-1.214-2.313-1.82-3.3-1.82-.54 0-.966.116-1.27.347-.308.23-.457.521-.457.864 0 .263.097.504.29.721.194.22.672.522 1.437.9l1.766.892c1.859.928 3.136 1.873 3.828 2.835.693.963 1.042 2.093 1.042 3.388 0 1.726-.627 3.164-1.88 4.316-1.253 1.155-2.932 1.729-5.036 1.729-2.8 0-5.034-1.106-6.706-3.318l2.964-3.266a6.858 6.858 0 001.983 1.614c.758.41 1.433.616 2.022.616.637 0 1.146-.154 1.533-.462.388-.308.582-.665.582-1.071 0-.75-.7-1.48-2.098-2.195l-1.623-.819c-3.105-1.582-4.656-3.563-4.656-5.94 0-1.532.585-2.845 1.755-3.933 1.17-1.089 2.669-1.631 4.49-1.631 1.246 0 2.42.276 3.52.83 1.1.552 2.032 1.347 2.797 2.38l-.003.01zM40.187 22.315c.765 0 1.42.27 1.96.812.54.543.81 1.197.81 1.97 0 .774-.27 1.436-.81 1.982a2.656 2.656 0 01-1.96.819 2.661 2.661 0 01-1.959-.82 2.715 2.715 0 01-.81-1.98c0-.774.27-1.432.81-1.97a2.663 2.663 0 011.96-.813zM50.714 1.162h4.812l6.02 18.305 6.071-18.305h4.812l4.358 26.243h-4.774L69.23 10.833l-5.518 16.572h-4.358l-5.462-16.572-2.85 16.572h-4.821l4.493-26.243zM99.239 19.111H83.765c.222 1.383.82 2.478 1.79 3.293.97.813 2.208 1.222 3.718 1.222 1.8 0 3.347-.637 4.642-1.911l4.06 1.928c-1.01 1.45-2.222 2.527-3.638 3.224-1.412.696-3.088 1.043-5.03 1.043-3.011 0-5.462-.96-7.36-2.88-1.893-1.922-2.841-4.327-2.841-7.214 0-2.887.942-5.421 2.832-7.374 1.89-1.953 4.257-2.933 7.103-2.933 3.022 0 5.48.98 7.373 2.932 1.894 1.96 2.842 4.54 2.842 7.75l-.017.927h-.007l.007-.007zm-4.819-3.836c-.318-1.082-.948-1.963-1.883-2.639-.938-.679-2.022-1.018-3.26-1.018-1.344 0-2.52.381-3.539 1.14-.636.477-1.228 1.317-1.769 2.517H94.42zM116.876.498h4.819V27.4h-4.819v-2.05c-.941.902-1.883 1.557-2.828 1.952a7.879 7.879 0 01-3.077.599c-2.479 0-4.622-.973-6.432-2.916-1.811-1.942-2.718-4.36-2.718-7.252 0-2.89.873-5.453 2.628-7.37 1.751-1.915 3.873-2.874 6.38-2.874 1.152 0 2.232.22 3.243.658 1.011.437 1.942 1.102 2.801 1.98V.499h.003zm-5.068 11.49c-1.488 0-2.728.53-3.711 1.597-.983 1.064-1.478 2.429-1.478 4.095s.502 3.055 1.503 4.137c1 1.081 2.232 1.62 3.7 1.62s2.769-.528 3.763-1.596c.997-1.064 1.492-2.457 1.492-4.186s-.499-3.055-1.492-4.105c-.997-1.043-2.254-1.568-3.78-1.568v.007h.003zM128.507 0c.842 0 1.568.311 2.171.927a3.11 3.11 0 01.907 2.247c0 .879-.301 1.61-.9 2.223-.599.609-1.312.92-2.143.92a2.967 2.967 0 01-2.191-.938c-.603-.626-.907-1.382-.907-2.275 0-.892.298-1.589.893-2.194.599-.606 1.319-.91 2.163-.91h.007zm-2.409 7.99h4.819v19.408h-4.819V7.99zM153.941 11.92l-4.009 2.234c-.751-.798-1.499-1.348-2.232-1.66-.738-.31-1.6-.465-2.59-.465-1.8 0-3.261.54-4.372 1.628-1.111 1.085-1.668 2.478-1.668 4.175 0 1.698.533 2.996 1.609 4.046 1.07 1.043 2.479 1.568 4.224 1.568 2.153 0 3.832-.745 5.033-2.233l3.794 2.629c-2.06 2.709-4.964 4.063-8.72 4.063-3.379 0-6.02-1.011-7.931-3.034-1.91-2.023-2.869-4.39-2.869-7.102 0-1.88.467-3.608 1.391-5.19.931-1.579 2.23-2.825 3.891-3.731 1.662-.903 3.528-1.355 5.584-1.355 1.907 0 3.617.385 5.133 1.152a9.727 9.727 0 013.722 3.276v.007l.01-.007zM170.681 7.99h4.819v19.407h-4.819v-2.051c-.942.903-1.883 1.558-2.828 1.953a7.88 7.88 0 01-3.078.599c-2.478 0-4.621-.974-6.431-2.916-1.811-1.942-2.718-4.361-2.718-7.252 0-2.89.873-5.453 2.628-7.37 1.751-1.915 3.873-2.874 6.379-2.874 1.153 0 2.233.22 3.244.658 1.011.437 1.942 1.102 2.8 1.98V7.984v.007h.004zm-5.068 3.997c-1.488 0-2.728.528-3.711 1.596-.983 1.064-1.478 2.429-1.478 4.094 0 1.666.502 3.056 1.502 4.137 1.001 1.082 2.233 1.621 3.701 1.621s2.769-.528 3.763-1.596c.997-1.064 1.492-2.457 1.492-4.186s-.499-3.055-1.492-4.105c-.997-1.043-2.254-1.568-3.78-1.568v.007h.003zM179.587 7.99h4.13v2.447c.443-.963 1.042-1.698 1.783-2.195a4.275 4.275 0 012.433-.749c.623 0 1.277.165 1.959.497l-1.499 4.19c-.567-.284-1.028-.427-1.391-.427-.741 0-1.367.465-1.88 1.393-.512.927-.768 2.747-.768 5.46l.017.948v7.85h-4.78V7.99h-.007.003zM210.511 19.111h-15.474c.222 1.383.821 2.478 1.79 3.293.969.813 2.208 1.222 3.718 1.222 1.8 0 3.347-.637 4.642-1.911l4.06 1.928c-1.011 1.45-2.222 2.527-3.638 3.224-1.412.696-3.088 1.043-5.03 1.043-3.011 0-5.462-.96-7.359-2.88-1.894-1.922-2.842-4.327-2.842-7.214 0-2.887.941-5.421 2.831-7.374 1.89-1.953 4.258-2.933 7.104-2.933 3.022 0 5.479.98 7.373 2.932 1.893 1.96 2.842 4.54 2.842 7.75l-.017.927h-.007l.007-.007zm-4.819-3.836c-.318-1.082-.948-1.963-1.883-2.639-.935-.675-2.022-1.018-3.261-1.018-1.343 0-2.52.381-3.538 1.14-.637.477-1.229 1.317-1.769 2.517h10.451zM215.475 22.32c.761 0 1.419.272 1.959.811.54.54.81 1.2.81 1.97s-.27 1.436-.81 1.982a2.662 2.662 0 01-1.959.819 2.66 2.66 0 01-1.959-.82 2.71 2.71 0 01-.81-1.98c0-.777.27-1.428.81-1.97a2.68 2.68 0 011.959-.813zM235.91 7.99h4.801v16.626c0 3.28-.651 5.694-1.959 7.241C237 33.95 234.359 35 230.828 35c-1.883 0-3.461-.234-4.749-.71-1.281-.476-2.368-1.173-3.244-2.097-.883-.92-1.533-2.044-1.959-3.36h5.31c.471.546 1.073.96 1.817 1.243.741.28 1.62.416 2.631.416 1.291 0 2.333-.203 3.123-.605.789-.406 1.343-.928 1.668-1.568.322-.644.488-1.75.488-3.318-.848.857-1.737 1.473-2.662 1.848-.931.374-1.98.563-3.16.563-2.579 0-4.753-.938-6.529-2.82-1.772-1.88-2.662-4.257-2.662-7.137 0-3.077.942-5.555 2.821-7.424 1.704-1.687 3.742-2.53 6.103-2.53 1.108 0 2.15.203 3.133.616.983.413 1.97 1.085 2.953 2.023V7.99zm-4.992 4.054c-1.52 0-2.769.514-3.759 1.54-.99 1.029-1.482 2.324-1.482 3.881 0 1.558.509 2.944 1.52 3.976 1.011 1.033 2.281 1.55 3.811 1.55 1.53 0 2.728-.503 3.694-1.515.969-1.011 1.457-2.338 1.457-3.976s-.488-2.933-1.468-3.944c-.972-1.012-2.232-1.516-3.773-1.516v.004zM254.298 7.494c1.811 0 3.514.462 5.11 1.376 1.592.917 2.838 2.156 3.731 3.73a10.111 10.111 0 011.34 5.086c0 1.82-.45 3.542-1.35 5.138-.9 1.596-2.129 2.842-3.68 3.735-1.551.9-3.268 1.347-5.133 1.347-2.752 0-5.103-.99-7.052-2.971-1.949-1.981-2.921-4.382-2.921-7.214 0-3.034 1.1-5.561 3.298-7.584 1.929-1.76 4.144-2.64 6.654-2.64l.007-.006-.004.003zm.08 4.589c-1.499 0-2.742.525-3.739 1.578-.997 1.054-1.492 2.398-1.492 4.043s.492 3.055 1.478 4.105c.984 1.05 2.23 1.568 3.739 1.568s2.762-.528 3.763-1.589c1-1.06 1.502-2.418 1.502-4.084 0-1.666-.491-3.02-1.478-4.057-.983-1.04-2.24-1.564-3.773-1.564zM264.963 7.991h4.908l4.85 11.456L279.56 7.99h4.881L276.272 27.4h-3.123l-8.19-19.408h.007-.003z" fill="#A6DAFC"/><path d="M285.211 32.101L296.928.248h3.465l-11.738 31.853h-3.444zM305.42 1.002h14.373v4.9h-9.44v4.791h6.134v4.827h-6.134v11.879h-4.933V.999v.003zM322.327 7.876h4.154v2.457c.45-.97 1.049-1.705 1.793-2.209a4.275 4.275 0 012.451-.752c.626 0 1.284.168 1.969.504l-1.509 4.217c-.568-.287-1.035-.43-1.402-.43-.744 0-1.374.465-1.89 1.4-.516.934-.772 2.765-.772 5.491l.017.952v7.896h-4.808V7.876h-.003zM349.342 7.876h4.846v19.526h-4.846v-2.065c-.945.91-1.894 1.565-2.846 1.964-.952.402-1.983.602-3.094.602-2.493 0-4.653-.977-6.47-2.933-1.821-1.957-2.731-4.39-2.731-7.294 0-2.905.879-5.485 2.641-7.413 1.762-1.925 3.901-2.891 6.418-2.891 1.159 0 2.246.22 3.261.665 1.017.444 1.955 1.106 2.817 1.991V7.876h.004zm-5.092 4.021c-1.499 0-2.742.536-3.732 1.607-.99 1.07-1.485 2.443-1.485 4.12 0 1.676.505 3.076 1.513 4.164 1.007 1.089 2.25 1.635 3.724 1.635 1.475 0 2.784-.536 3.787-1.607 1.004-1.07 1.503-2.474 1.503-4.207 0-1.732-.502-3.073-1.503-4.126-1.003-1.054-2.27-1.579-3.804-1.579l-.003-.007zM359.069 7.873h4.898v9.405c0 1.83.125 3.1.374 3.815.249.71.651 1.267 1.201 1.659.55.392 1.229.591 2.039.591s1.492-.196 2.056-.584c.564-.389.983-.96 1.253-1.715.201-.564.302-1.764.302-3.609V7.87h4.846v8.274c0 3.409-.267 5.743-.8 7-.651 1.533-1.61 2.705-2.876 3.528-1.267.819-2.877 1.228-4.829 1.228-2.119 0-3.832-.48-5.138-1.435-1.308-.955-2.225-2.292-2.758-4-.378-1.183-.568-3.34-.568-6.461v-8.13zM395.154.336H400v27.062h-4.846v-2.065c-.945.91-1.894 1.564-2.846 1.963-.952.403-1.983.602-3.095.602-2.492 0-4.652-.976-6.469-2.933-1.821-1.956-2.732-4.389-2.732-7.294 0-2.905.88-5.484 2.642-7.413 1.762-1.925 3.901-2.89 6.417-2.89 1.16 0 2.247.22 3.261.664 1.018.445 1.956 1.106 2.818 1.992V.332l.004.004zm-5.093 11.557c-1.498 0-2.741.535-3.731 1.606-.99 1.071-1.485 2.443-1.485 4.12 0 1.676.505 3.076 1.512 4.165 1.008 1.088 2.251 1.634 3.725 1.634 1.475 0 2.783-.535 3.787-1.606 1.004-1.071 1.503-2.475 1.503-4.207 0-1.733-.502-3.073-1.503-4.127-1.004-1.053-2.271-1.578-3.804-1.578l-.004-.007z" fill="#fff"/></svg>