<svg width="111" height="31" viewBox="0 0 111 31" fill="none" xmlns="http://www.w3.org/2000/svg"><rect x="1.178" y="5.281" width="108" height="23.85" rx="3" fill="#FFBA1A" stroke="#FFCF61" stroke-width="2"/><path d="M19.618 20.13v-6.48h5.15v1.61h-3.25v.79h3.12v1.59h-3.12v.88h3.37v1.61h-5.27zm6.225 0v-6.48h1.62l1.27 1.82c.21.31.55.84.55.84s.34-.53.55-.84l1.27-1.82h1.62v6.48h-1.9v-3.28s-.33.53-.51.78l-1.03 1.44-1.04-1.44c-.18-.25-.5-.76-.5-.76v3.26h-1.9zm8.179 0v-6.48h2.86c1.99 0 3.01 1.15 3.01 2.56 0 1.41-1.02 2.56-3.02 2.56h-.95v1.36h-1.9zm1.9-2.97h1c.56 0 .96-.42.96-.95s-.4-.95-.95-.95h-1.01v1.9zm5.058 2.97v-6.48h1.9v6.48h-1.9zm3.198 0v-6.48h5.15v1.61h-3.25v.79h3.12v1.59h-3.12v.88h3.37v1.61h-5.27zm5.925 0v-1.36l2.37-2.9c.27-.33.56-.61.56-.61h-2.79v-1.61h5.29v1.38l-2.23 2.75c-.25.31-.66.74-.66.74h2.98v1.61h-5.52zm6.241 0l2.62-6.48h1.96l2.62 6.48h-1.94l-.3-.84h-2.72l-.3.84h-1.94zm2.75-2.3h1.7l-.77-2.19c-.06-.16-.07-.22-.08-.26 0 0-.02.09-.08.26l-.77 2.19zm7.23 2.3l2.62-6.48h1.96l2.62 6.48h-1.94l-.3-.84h-2.72l-.3.84h-1.94zm2.75-2.3h1.7l-.77-2.19c-.06-.16-.07-.22-.08-.26 0 0-.02.09-.08.26l-.77 2.19zm8.153 2.42c-2.08 0-3.47-1.49-3.47-3.36 0-1.85 1.39-3.34 3.47-3.34s3.48 1.49 3.48 3.34c0 .79-.25 1.51-.7 2.08l.42.42-.86.87-.48-.48c-.52.3-1.15.47-1.86.47zm0-1.72c.19 0 .36-.03.52-.09l-.48-.49.87-.86.47.48c.08-.2.12-.43.12-.68 0-.94-.62-1.62-1.5-1.62-.82 0-1.49.68-1.49 1.62 0 .96.62 1.64 1.49 1.64zm7.447 1.72c-1.64 0-2.89-.91-2.89-2.69v-3.91h1.9v3.8c0 .78.45 1.08.99 1.08s.99-.3.99-1.08v-3.8h1.9v3.91c0 1.78-1.25 2.69-2.89 2.69zm4.165-.12v-6.48h1.9v6.48h-1.9zm.04-6.8l1.05-1.79h1.75l-1.45 1.79h-1.35z" fill="#101B31"/></svg>