<svg width="249" height="49" viewBox="0 0 249 49" fill="none" xmlns="http://www.w3.org/2000/svg"><rect x="1" y="1" width="247" height="47" rx="3" fill="#FFBA1A" stroke="#FFCF61" stroke-width="2"/><path d="M46.523 32.292V18.036h11.33v3.542h-7.15v1.739h6.864v3.497h-6.864v1.936h7.414v3.542H46.523zm13.696 0V18.036h3.564l2.794 4.005c.462.681 1.21 1.848 1.21 1.848s.748-1.166 1.21-1.848l2.794-4.005h3.564v14.256h-4.18v-7.216s-.726 1.166-1.122 1.716l-2.266 3.168-2.288-3.168c-.396-.55-1.1-1.672-1.1-1.672v7.172h-4.18zm17.993 0V18.036h6.292c4.378 0 6.622 2.53 6.622 5.633 0 3.101-2.244 5.631-6.644 5.631h-2.09v2.992h-4.18zm4.18-6.534h2.2c1.232 0 2.112-.924 2.112-2.09 0-1.165-.88-2.09-2.09-2.09h-2.222v4.18zm11.127 6.534V18.036h4.18v14.256h-4.18zm7.036 0V18.036h11.33v3.542h-7.15v1.739h6.864v3.497h-6.864v1.936h7.414v3.542h-11.594zm13.036 0V29.3l5.214-6.38c.594-.726 1.232-1.342 1.232-1.342h-6.138v-3.541h11.638v3.036l-4.906 6.05c-.55.681-1.452 1.627-1.452 1.627h6.556v3.542h-12.144zm13.73 0l5.764-14.256h4.312l5.764 14.256h-4.268l-.66-1.848h-5.984l-.66 1.848h-4.268zm6.05-5.06h3.74l-1.694-4.817c-.132-.352-.154-.485-.176-.572 0 0-.044.198-.176.572l-1.694 4.818zm15.906 5.06l5.764-14.256h4.312l5.764 14.256h-4.268l-.66-1.848h-5.984l-.66 1.848h-4.268zm6.05-5.06h3.74l-1.694-4.817c-.132-.352-.154-.485-.176-.572 0 0-.044.198-.176.572l-1.694 4.818zm17.936 5.325c-4.576 0-7.634-3.279-7.634-7.393 0-4.07 3.058-7.348 7.634-7.348 4.576 0 7.656 3.279 7.656 7.349 0 1.738-.55 3.322-1.54 4.576l.924.924-1.892 1.913-1.056-1.056c-1.144.66-2.53 1.035-4.092 1.035zm0-3.785c.418 0 .792-.066 1.144-.197l-1.056-1.078 1.914-1.892 1.034 1.055c.176-.44.264-.945.264-1.495 0-2.069-1.364-3.564-3.3-3.564-1.804 0-3.278 1.495-3.278 3.564 0 2.111 1.364 3.608 3.278 3.608zm16.382 3.785c-3.608 0-6.358-2.003-6.358-5.919v-8.602h4.18v8.36c0 1.716.99 2.377 2.178 2.377s2.178-.66 2.178-2.377v-8.36h4.18v8.602c0 3.916-2.75 5.918-6.358 5.918zm9.165-.265V18.036h4.18v14.256h-4.18zm.088-14.96l2.31-3.938h3.85l-3.19 3.938h-2.97z" fill="#101B31"/></svg>