<svg width="190" height="26" viewBox="0 0 190 26" fill="none" xmlns="http://www.w3.org/2000/svg"><path d="M.948 10V.952H3.3l4.344 5.532V.952h2.34V10h-2.34L3.3 4.468V10H.948zm12.875-3.108c0 .208.036.4.108.576.08.168.18.316.3.444.128.128.276.228.444.3a1.444 1.444 0 001.092 0c.176-.072.324-.172.444-.3.128-.128.228-.276.3-.444.08-.176.12-.364.12-.564 0-.192-.04-.372-.12-.54a1.37 1.37 0 00-.3-.456 1.245 1.245 0 00-.444-.3 1.444 1.444 0 00-1.092 0 1.404 1.404 0 00-.444.3c-.12.128-.22.276-.3.444a1.356 1.356 0 00-.108.54zm-2.292-.024c0-.456.092-.88.276-1.272.184-.4.44-.744.768-1.032a3.607 3.607 0 011.164-.696 4.272 4.272 0 011.488-.252c.528 0 1.016.084 1.464.252.456.16.848.388 1.176.684.336.288.596.636.78 1.044.184.4.276.844.276 1.332a3.186 3.186 0 01-1.056 2.388 3.512 3.512 0 01-1.188.672c-.456.16-.952.24-1.488.24-.528 0-1.016-.08-1.464-.24a3.445 3.445 0 01-1.164-.684 3.231 3.231 0 01-.756-1.056 3.374 3.374 0 01-.276-1.38zm12.723-1.44c-.4-.208-.792-.312-1.176-.312-.2 0-.364.04-.492.12a.371.371 0 00-.18.324c0 .072.008.132.024.18.024.04.068.08.132.12.072.04.172.076.3.108.136.032.312.072.528.12.6.12 1.048.336 1.344.648.296.304.444.696.444 1.176 0 .36-.072.684-.216.972a2.124 2.124 0 01-.6.732c-.256.192-.564.34-.924.444-.36.112-.756.168-1.188.168-.832 0-1.652-.236-2.46-.708l.792-1.536c.608.416 1.184.624 1.728.624a.85.85 0 00.492-.132c.128-.088.192-.2.192-.336a.432.432 0 00-.036-.192.256.256 0 00-.12-.144.818.818 0 00-.288-.12c-.12-.04-.28-.08-.48-.12-.672-.136-1.144-.336-1.416-.6-.264-.272-.396-.644-.396-1.116 0-.344.064-.652.192-.924.128-.28.312-.516.552-.708.24-.192.528-.34.864-.444a3.928 3.928 0 011.14-.156c.68 0 1.34.132 1.98.396l-.732 1.416zm4.077 1.464c0 .208.036.4.108.576.08.168.18.316.3.444.128.128.276.228.444.3a1.444 1.444 0 001.092 0c.176-.072.324-.172.444-.3.128-.128.228-.276.3-.444.08-.176.12-.364.12-.564 0-.192-.04-.372-.12-.54a1.37 1.37 0 00-.3-.456 1.245 1.245 0 00-.444-.3 1.444 1.444 0 00-1.092 0 1.404 1.404 0 00-.444.3c-.12.128-.22.276-.3.444a1.356 1.356 0 00-.108.54zm-2.292-.024c0-.456.092-.88.276-1.272.184-.4.44-.744.768-1.032a3.607 3.607 0 011.164-.696 4.272 4.272 0 011.488-.252c.528 0 1.016.084 1.464.252.456.16.848.388 1.176.684.336.288.596.636.78 1.044.184.4.276.844.276 1.332a3.186 3.186 0 01-1.056 2.388 3.512 3.512 0 01-1.188.672c-.456.16-.952.24-1.488.24-.528 0-1.016-.08-1.464-.24a3.445 3.445 0 01-1.164-.684 3.231 3.231 0 01-.756-1.056 3.374 3.374 0 01-.276-1.38zm11.102-1.212V10h-2.172V5.656h-.72V3.844h.72V1.996h2.172v1.848h1.236v1.812H37.14zm2.052-1.812h2.172v1.008a2.44 2.44 0 01.852-.84c.336-.2.728-.3 1.176-.3h.18c.072 0 .152.008.24.024v2.076a2.064 2.064 0 00-.936-.216c-.504 0-.884.152-1.14.456-.248.296-.372.732-.372 1.308V10h-2.172V3.844zm7.676 3.06c0 .2.036.388.108.564.072.168.168.316.288.444.128.128.276.228.444.3a1.475 1.475 0 001.104 0c.176-.072.324-.172.444-.3.128-.128.228-.276.3-.444.08-.168.12-.348.12-.54 0-.192-.04-.372-.12-.54a1.37 1.37 0 00-.3-.456 1.245 1.245 0 00-.444-.3 1.475 1.475 0 00-1.104 0 1.404 1.404 0 00-.444.3c-.12.128-.216.276-.288.444-.072.16-.108.336-.108.528zm2.736-3.06h2.184V10h-2.184v-.684c-.464.584-1.092.876-1.884.876-.448 0-.86-.08-1.236-.24a3.058 3.058 0 01-.984-.696c-.28-.296-.5-.644-.66-1.044a3.653 3.653 0 01-.228-1.308c0-.44.076-.856.228-1.248.152-.4.364-.748.636-1.044.272-.296.596-.528.972-.696a2.907 2.907 0 011.248-.264c.768 0 1.404.268 1.908.804v-.612zm7.742 1.584c-.4-.208-.792-.312-1.176-.312-.2 0-.364.04-.492.12a.371.371 0 00-.18.324c0 .072.008.132.024.18.024.04.068.08.132.12.072.04.172.076.3.108.136.032.312.072.528.12.6.12 1.048.336 1.344.648.296.304.444.696.444 1.176 0 .36-.072.684-.216.972a2.124 2.124 0 01-.6.732c-.256.192-.564.34-.924.444-.36.112-.756.168-1.188.168-.832 0-1.652-.236-2.46-.708l.792-1.536c.608.416 1.184.624 1.728.624a.85.85 0 00.492-.132c.128-.088.192-.2.192-.336a.432.432 0 00-.036-.192.256.256 0 00-.12-.144.818.818 0 00-.288-.12c-.12-.04-.28-.08-.48-.12-.672-.136-1.144-.336-1.416-.6-.264-.272-.396-.644-.396-1.116 0-.344.064-.652.192-.924.128-.28.312-.516.552-.708.24-.192.528-.34.864-.444a3.928 3.928 0 011.14-.156c.68 0 1.34.132 1.98.396l-.732 1.416zm6.104-1.584h2.172v.78c.296-.36.596-.6.9-.72.304-.128.66-.192 1.068-.192.432 0 .8.072 1.104.216.312.136.576.332.792.588.176.208.296.44.36.696.064.256.096.548.096.876V10h-2.172V6.892a3 3 0 00-.072-.732.823.823 0 00-.552-.66c-.12-.04-.248-.06-.384-.06-.368 0-.652.112-.852.336-.192.216-.288.528-.288.936V10h-2.172V3.844zm10.02 3.048c0 .208.037.4.109.576.08.168.18.316.3.444.128.128.276.228.444.3a1.444 1.444 0 001.092 0c.176-.072.324-.172.444-.3.128-.128.228-.276.3-.444.08-.176.12-.364.12-.564 0-.192-.04-.372-.12-.54a1.37 1.37 0 00-.3-.456 1.245 1.245 0 00-.444-.3 1.444 1.444 0 00-1.092 0 1.404 1.404 0 00-.444.3c-.12.128-.22.276-.3.444a1.356 1.356 0 00-.108.54zm-2.291-.024c0-.456.092-.88.276-1.272.184-.4.44-.744.768-1.032a3.607 3.607 0 011.164-.696 4.272 4.272 0 011.488-.252c.528 0 1.016.084 1.464.252.456.16.848.388 1.176.684.336.288.596.636.78 1.044.184.4.276.844.276 1.332a3.186 3.186 0 01-1.056 2.388 3.512 3.512 0 01-1.188.672c-.456.16-.952.24-1.488.24-.528 0-1.016-.08-1.464-.24a3.445 3.445 0 01-1.164-.684 3.231 3.231 0 01-.756-1.056 3.374 3.374 0 01-.276-1.38zm17.364-1.032c-.376-.256-.756-.384-1.14-.384a1.6 1.6 0 00-.588.108 1.412 1.412 0 00-.468.312 1.4 1.4 0 00-.324.468 1.573 1.573 0 00-.108.6c0 .216.036.416.108.6.08.176.184.332.312.468.136.128.296.228.48.3a1.6 1.6 0 00.588.108c.408 0 .788-.14 1.14-.42v1.848c-.536.232-1.044.348-1.524.348-.448 0-.876-.076-1.284-.228a3.383 3.383 0 01-1.068-.648 3.352 3.352 0 01-.732-1.02 3.15 3.15 0 01-.276-1.332c0-.488.088-.932.264-1.332.176-.408.416-.756.72-1.044a3.148 3.148 0 011.08-.684 3.647 3.647 0 011.356-.252c.528 0 1.016.112 1.464.336v1.848zm3.291 1.056c0 .208.036.4.108.576.08.168.18.316.3.444.128.128.276.228.444.3a1.444 1.444 0 001.092 0c.176-.072.324-.172.444-.3.128-.128.228-.276.3-.444.08-.176.12-.364.12-.564 0-.192-.04-.372-.12-.54a1.37 1.37 0 00-.3-.456 1.245 1.245 0 00-.444-.3 1.444 1.444 0 00-1.092 0 1.404 1.404 0 00-.444.3c-.12.128-.22.276-.3.444a1.356 1.356 0 00-.108.54zm-2.292-.024c0-.456.092-.88.276-1.272.184-.4.44-.744.768-1.032a3.607 3.607 0 011.164-.696 4.272 4.272 0 011.488-.252c.528 0 1.016.084 1.464.252.456.16.848.388 1.176.684.336.288.596.636.78 1.044.184.4.276.844.276 1.332a3.186 3.186 0 01-1.056 2.388 3.512 3.512 0 01-1.188.672c-.456.16-.952.24-1.488.24-.528 0-1.016-.08-1.464-.24a3.445 3.445 0 01-1.164-.684 3.231 3.231 0 01-.756-1.056 3.374 3.374 0 01-.276-1.38zm8.642-3.024h2.172V4.6c.592-.568 1.256-.852 1.992-.852.912 0 1.608.384 2.088 1.152.488-.776 1.184-1.164 2.088-1.164.288 0 .56.044.816.132.256.08.476.212.66.396.184.176.328.408.432.696.112.288.168.636.168 1.044V10h-2.172V6.964a3.38 3.38 0 00-.072-.768c-.04-.2-.104-.356-.192-.468a.603.603 0 00-.288-.228 1.062 1.062 0 00-.36-.06c-.696 0-1.044.508-1.044 1.524V10h-2.172V6.964c0-.312-.02-.568-.06-.768a1.35 1.35 0 00-.18-.492.525.525 0 00-.288-.24 1.126 1.126 0 00-.42-.072c-.136 0-.264.02-.384.06a.703.703 0 00-.324.24c-.088.112-.16.272-.216.48-.048.2-.072.464-.072.792V10h-2.172V3.844zm17.026 3.096c0-.192-.036-.372-.108-.54a1.23 1.23 0 00-.288-.456 1.37 1.37 0 00-.456-.3 1.267 1.267 0 00-.552-.12c-.192 0-.372.036-.54.108a1.404 1.404 0 00-.444.3c-.12.128-.22.28-.3.456a1.356 1.356 0 00-.108.54c0 .192.036.372.108.54.072.168.172.316.3.444.128.12.276.22.444.3a1.444 1.444 0 001.092 0 1.27 1.27 0 00.432-.3c.128-.128.228-.276.3-.444.08-.168.12-.344.12-.528zm-2.736 6.132h-2.172V3.844h2.172v.684c.464-.584 1.096-.876 1.896-.876.44 0 .848.088 1.224.264a3.023 3.023 0 011.644 1.74c.16.4.24.828.24 1.284 0 .456-.08.88-.24 1.272a3.134 3.134 0 01-.648 1.032 2.925 2.925 0 01-.972.696 2.966 2.966 0 01-1.224.252c-.768 0-1.408-.264-1.92-.792v3.672zm8.258-6.168c0 .2.036.388.108.564.072.168.168.316.288.444.128.128.276.228.444.3a1.475 1.475 0 001.104 0c.176-.072.324-.172.444-.3.128-.128.228-.276.3-.444.08-.168.12-.348.12-.54 0-.192-.04-.372-.12-.54a1.37 1.37 0 00-.3-.456 1.245 1.245 0 00-.444-.3 1.475 1.475 0 00-1.104 0 1.404 1.404 0 00-.444.3c-.12.128-.216.276-.288.444-.072.16-.108.336-.108.528zm2.736-3.06h2.184V10h-2.184v-.684c-.464.584-1.092.876-1.884.876-.448 0-.86-.08-1.236-.24a3.058 3.058 0 01-.984-.696c-.28-.296-.5-.644-.66-1.044a3.653 3.653 0 01-.228-1.308c0-.44.076-.856.228-1.248.152-.4.364-.748.636-1.044.272-.296.596-.528.972-.696a2.907 2.907 0 011.248-.264c.768 0 1.404.268 1.908.804v-.612zm3.662 0h2.172v1.008a2.44 2.44 0 01.852-.84c.336-.2.728-.3 1.176-.3h.18c.072 0 .152.008.24.024v2.076a2.064 2.064 0 00-.936-.216c-.504 0-.884.152-1.14.456-.248.296-.372.732-.372 1.308V10h-2.172V3.844zm8.236 1.812V10h-2.172V5.656h-.72V3.844h.72V1.996h2.172v1.848h1.236v1.812h-1.236zm4.389-1.812V10h-2.172V3.844h2.172zM137.44 1.48c0-.168.032-.324.096-.468.064-.152.152-.284.264-.396.112-.112.24-.2.384-.264a1.224 1.224 0 011.608.66 1.224 1.224 0 010 .948 1.266 1.266 0 01-.264.384c-.112.112-.244.2-.396.264a1.224 1.224 0 01-.948 0 1.266 1.266 0 01-.648-.648 1.224 1.224 0 01-.096-.48zm3.8 2.364h2.172V4.6c.592-.568 1.256-.852 1.992-.852.912 0 1.608.384 2.088 1.152.488-.776 1.184-1.164 2.088-1.164.288 0 .56.044.816.132.256.08.476.212.66.396.184.176.328.408.432.696.112.288.168.636.168 1.044V10h-2.172V6.964a3.38 3.38 0 00-.072-.768c-.04-.2-.104-.356-.192-.468a.603.603 0 00-.288-.228 1.062 1.062 0 00-.36-.06c-.696 0-1.044.508-1.044 1.524V10h-2.172V6.964c0-.312-.02-.568-.06-.768a1.35 1.35 0 00-.18-.492.525.525 0 00-.288-.24 1.126 1.126 0 00-.42-.072c-.136 0-.264.02-.384.06a.703.703 0 00-.324.24c-.088.112-.16.272-.216.48-.048.2-.072.464-.072.792V10h-2.172V3.844zm13.958 3.048c0 .208.036.4.108.576.08.168.18.316.3.444.128.128.276.228.444.3a1.444 1.444 0 001.092 0c.176-.072.324-.172.444-.3.128-.128.228-.276.3-.444.08-.176.12-.364.12-.564 0-.192-.04-.372-.12-.54a1.37 1.37 0 00-.3-.456 1.245 1.245 0 00-.444-.3 1.444 1.444 0 00-1.092 0 1.404 1.404 0 00-.444.3c-.12.128-.22.276-.3.444a1.356 1.356 0 00-.108.54zm-2.292-.024c0-.456.092-.88.276-1.272.184-.4.44-.744.768-1.032a3.607 3.607 0 011.164-.696 4.272 4.272 0 011.488-.252c.528 0 1.016.084 1.464.252.456.16.848.388 1.176.684.336.288.596.636.78 1.044.184.4.276.844.276 1.332a3.186 3.186 0 01-1.056 2.388 3.512 3.512 0 01-1.188.672c-.456.16-.952.24-1.488.24-.528 0-1.016-.08-1.464-.24a3.445 3.445 0 01-1.164-.684 3.231 3.231 0 01-.756-1.056 3.374 3.374 0 01-.276-1.38zm12.723-1.44c-.4-.208-.792-.312-1.176-.312-.2 0-.364.04-.492.12a.371.371 0 00-.18.324c0 .072.008.132.024.18.024.04.068.08.132.12.072.04.172.076.3.108.136.032.312.072.528.12.6.12 1.048.336 1.344.648.296.304.444.696.444 1.176 0 .36-.072.684-.216.972a2.124 2.124 0 01-.6.732c-.256.192-.564.34-.924.444-.36.112-.756.168-1.188.168-.832 0-1.652-.236-2.46-.708l.792-1.536c.608.416 1.184.624 1.728.624a.85.85 0 00.492-.132c.128-.088.192-.2.192-.336a.432.432 0 00-.036-.192.256.256 0 00-.12-.144.818.818 0 00-.288-.12c-.12-.04-.28-.08-.48-.12-.672-.136-1.144-.336-1.416-.6-.264-.272-.396-.644-.396-1.116 0-.344.064-.652.192-.924.128-.28.312-.516.552-.708.24-.192.528-.34.864-.444a3.928 3.928 0 011.14-.156c.68 0 1.34.132 1.98.396l-.732 1.416zM.744 18.844h2.172v.78c.296-.36.596-.6.9-.72.304-.128.66-.192 1.068-.192.432 0 .8.072 1.104.216.312.136.576.332.792.588.176.208.296.44.36.696.064.256.096.548.096.876V25H5.064v-3.108a3 3 0 00-.072-.732.823.823 0 00-.552-.66c-.12-.04-.248-.06-.384-.06-.368 0-.652.112-.852.336-.192.216-.288.528-.288.936V25H.744v-6.156zm10.14 0v3.468c0 .76.369 1.14 1.105 1.14s1.104-.38 1.104-1.14v-3.468h2.172v3.888c0 .832-.276 1.456-.828 1.872-.544.416-1.36.624-2.448.624-1.088 0-1.908-.208-2.46-.624-.544-.416-.816-1.04-.816-1.872v-3.888h2.172zm10.356 2.184a1.307 1.307 0 00-.444-.732 1.244 1.244 0 00-.816-.276c-.336 0-.612.088-.828.264-.208.176-.34.424-.396.744h2.484zm-2.544 1.26c0 .936.44 1.404 1.32 1.404.472 0 .828-.192 1.068-.576h2.1c-.424 1.408-1.484 2.112-3.18 2.112-.52 0-.996-.076-1.428-.228a3.328 3.328 0 01-1.116-.672 3.007 3.007 0 01-.708-1.032 3.44 3.44 0 01-.252-1.344c0-.512.08-.972.24-1.38.16-.416.388-.768.684-1.056a2.971 2.971 0 011.068-.66c.424-.16.9-.24 1.428-.24.52 0 .988.08 1.404.24a2.78 2.78 0 011.056.672c.288.296.508.66.66 1.092.152.424.228.904.228 1.44v.228h-4.572zm9.894-1.86c-.4-.208-.792-.312-1.176-.312-.2 0-.364.04-.492.12a.371.371 0 00-.18.324c0 .072.008.132.024.18.024.04.068.08.132.12.072.04.172.076.3.108.136.032.312.072.528.12.6.12 1.048.336 1.344.648.296.304.444.696.444 1.176 0 .36-.072.684-.216.972a2.124 2.124 0 01-.6.732c-.256.192-.564.34-.924.444-.36.112-.756.168-1.188.168-.832 0-1.652-.236-2.46-.708l.792-1.536c.608.416 1.184.624 1.728.624a.85.85 0 00.492-.132c.128-.088.192-.2.192-.336a.432.432 0 00-.036-.192.256.256 0 00-.12-.144.818.818 0 00-.288-.12c-.12-.04-.28-.08-.48-.12-.672-.136-1.144-.336-1.416-.6-.264-.272-.396-.644-.396-1.116 0-.344.064-.652.192-.924.128-.28.312-.516.552-.708.24-.192.528-.34.864-.444a3.928 3.928 0 011.14-.156c.68 0 1.34.132 1.98.396l-.732 1.416zm4.613.228V25h-2.172v-4.344h-.72v-1.812h.72v-1.848h2.172v1.848h1.236v1.812h-1.236zm2.053-1.812h2.172v1.008a2.44 2.44 0 01.852-.84c.336-.2.728-.3 1.176-.3h.18c.072 0 .152.008.24.024v2.076a2.064 2.064 0 00-.936-.216c-.504 0-.884.152-1.14.456-.248.296-.372.732-.372 1.308V25h-2.172v-6.156zm7.688 3.048c0 .208.036.4.108.576.08.168.18.316.3.444.128.128.276.228.444.3a1.444 1.444 0 001.092 0c.176-.072.324-.172.444-.3.128-.128.228-.276.3-.444.08-.176.12-.364.12-.564 0-.192-.04-.372-.12-.54a1.37 1.37 0 00-.3-.456 1.245 1.245 0 00-.444-.3 1.444 1.444 0 00-1.092 0 1.404 1.404 0 00-.444.3c-.12.128-.22.276-.3.444a1.356 1.356 0 00-.108.54zm-2.292-.024c0-.456.092-.88.276-1.272.184-.4.44-.744.768-1.032a3.607 3.607 0 011.164-.696 4.272 4.272 0 011.488-.252c.528 0 1.016.084 1.464.252.456.16.848.388 1.176.684.336.288.596.636.78 1.044.184.4.276.844.276 1.332a3.186 3.186 0 01-1.056 2.388 3.512 3.512 0 01-1.188.672c-.456.16-.952.24-1.488.24-.528 0-1.016-.08-1.464-.24a3.445 3.445 0 01-1.164-.684 3.231 3.231 0 01-.756-1.056 3.374 3.374 0 01-.276-1.38zm12.72-3.024h2.173v.78c.296-.36.596-.6.9-.72.304-.128.66-.192 1.068-.192.432 0 .8.072 1.104.216.312.136.576.332.792.588.176.208.296.44.36.696.064.256.096.548.096.876V25h-2.172v-3.108a3 3 0 00-.072-.732.823.823 0 00-.552-.66c-.12-.04-.248-.06-.384-.06-.368 0-.652.112-.852.336-.192.216-.288.528-.288.936V25h-2.172v-6.156zm10.142 0v3.468c0 .76.368 1.14 1.104 1.14.736 0 1.104-.38 1.104-1.14v-3.468h2.172v3.888c0 .832-.276 1.456-.828 1.872-.544.416-1.36.624-2.448.624-1.088 0-1.908-.208-2.46-.624-.544-.416-.816-1.04-.816-1.872v-3.888h2.172zm3.192-2.748l-2.088 1.848-1.008-.744 1.716-2.1 1.38.996zm2.663 2.748h2.172v.756c.592-.568 1.256-.852 1.992-.852.912 0 1.608.384 2.088 1.152.488-.776 1.184-1.164 2.088-1.164.288 0 .56.044.816.132.256.08.476.212.66.396.184.176.328.408.432.696.112.288.168.636.168 1.044V25h-2.172v-3.036a3.38 3.38 0 00-.072-.768c-.04-.2-.104-.356-.192-.468a.603.603 0 00-.288-.228 1.062 1.062 0 00-.36-.06c-.696 0-1.044.508-1.044 1.524V25h-2.172v-3.036c0-.312-.02-.568-.06-.768a1.35 1.35 0 00-.18-.492.525.525 0 00-.288-.24 1.126 1.126 0 00-.42-.072c-.136 0-.264.02-.384.06a.703.703 0 00-.324.24c-.088.112-.16.272-.216.48-.048.2-.072.464-.072.792V25h-2.172v-6.156zm16.406 2.184a1.307 1.307 0 00-.444-.732 1.244 1.244 0 00-.816-.276c-.336 0-.612.088-.828.264-.208.176-.34.424-.396.744h2.484zm-2.544 1.26c0 .936.44 1.404 1.32 1.404.472 0 .828-.192 1.068-.576h2.1c-.424 1.408-1.484 2.112-3.18 2.112-.52 0-.996-.076-1.428-.228a3.328 3.328 0 01-1.116-.672 3.007 3.007 0 01-.708-1.032 3.44 3.44 0 01-.252-1.344c0-.512.08-.972.24-1.38.16-.416.388-.768.684-1.056a2.971 2.971 0 011.068-.66c.424-.16.9-.24 1.428-.24.52 0 .988.08 1.404.24a2.78 2.78 0 011.056.672c.288.296.508.66.66 1.092.152.424.228.904.228 1.44v.228h-4.572zm5.814-3.444h2.172v1.008a2.44 2.44 0 01.852-.84c.336-.2.728-.3 1.176-.3h.18c.072 0 .152.008.24.024v2.076a2.064 2.064 0 00-.936-.216c-.504 0-.884.152-1.14.456-.248.296-.372.732-.372 1.308V25h-2.172v-6.156zm7.689 3.048c0 .208.035.4.108.576.08.168.18.316.3.444.127.128.276.228.444.3a1.444 1.444 0 001.091 0c.176-.072.324-.172.444-.3.129-.128.229-.276.3-.444.08-.176.12-.364.12-.564 0-.192-.04-.372-.12-.54a1.37 1.37 0 00-.3-.456 1.245 1.245 0 00-.444-.3 1.444 1.444 0 00-1.092 0 1.404 1.404 0 00-.444.3c-.12.128-.22.276-.3.444a1.356 1.356 0 00-.107.54zm-2.292-.024c0-.456.092-.88.276-1.272.183-.4.44-.744.767-1.032a3.607 3.607 0 011.165-.696 4.272 4.272 0 011.487-.252c.528 0 1.016.084 1.465.252.456.16.848.388 1.176.684.336.288.596.636.78 1.044.184.4.276.844.276 1.332a3.186 3.186 0 01-1.056 2.388 3.51 3.51 0 01-1.189.672c-.456.16-.951.24-1.487.24-.529 0-1.017-.08-1.465-.24a3.445 3.445 0 01-1.163-.684 3.231 3.231 0 01-.757-1.056 3.374 3.374 0 01-.275-1.38zm14.736.036c0 .2.036.388.108.564.072.168.168.316.288.444.128.128.276.228.444.3a1.475 1.475 0 001.104 0c.176-.072.324-.172.444-.3.128-.128.228-.276.3-.444.08-.168.12-.348.12-.54 0-.192-.04-.372-.12-.54a1.37 1.37 0 00-.3-.456 1.245 1.245 0 00-.444-.3 1.444 1.444 0 00-1.092 0 1.404 1.404 0 00-.444.3c-.12.128-.22.276-.3.444-.072.16-.108.336-.108.528zm2.736-6.864h2.184V25h-2.184v-.684c-.464.584-1.092.876-1.884.876a2.995 2.995 0 01-2.22-.948c-.28-.296-.5-.644-.66-1.044a3.618 3.618 0 01-.228-1.296c0-.44.072-.856.216-1.248.152-.4.364-.748.636-1.044.272-.296.596-.528.972-.696a2.988 2.988 0 011.26-.264c.768 0 1.404.268 1.908.804V15.04zm8.162 5.988a1.307 1.307 0 00-.444-.732 1.244 1.244 0 00-.816-.276c-.336 0-.612.088-.828.264-.208.176-.34.424-.396.744h2.484zm-2.544 1.26c0 .936.44 1.404 1.32 1.404.472 0 .828-.192 1.068-.576h2.1c-.424 1.408-1.484 2.112-3.18 2.112-.52 0-.996-.076-1.428-.228a3.328 3.328 0 01-1.116-.672 3.007 3.007 0 01-.708-1.032 3.44 3.44 0 01-.252-1.344c0-.512.08-.972.24-1.38.16-.416.388-.768.684-1.056a2.971 2.971 0 011.068-.66c.424-.16.9-.24 1.428-.24.52 0 .988.08 1.404.24a2.78 2.78 0 011.056.672c.288.296.508.66.66 1.092.152.424.228.904.228 1.44v.228h-4.572zM127.22 25l1.536-9.048h2.328l1.812 4.824 1.8-4.824h2.328L138.56 25h-2.34l-.78-5.208L133.304 25h-.936l-2.028-5.208-.78 5.208h-2.34zm16.797-3.972a1.307 1.307 0 00-.444-.732 1.244 1.244 0 00-.816-.276c-.336 0-.612.088-.828.264-.208.176-.34.424-.396.744h2.484zm-2.544 1.26c0 .936.44 1.404 1.32 1.404.472 0 .828-.192 1.068-.576h2.1c-.424 1.408-1.484 2.112-3.18 2.112-.52 0-.996-.076-1.428-.228a3.328 3.328 0 01-1.116-.672 3.007 3.007 0 01-.708-1.032 3.44 3.44 0 01-.252-1.344c0-.512.08-.972.24-1.38.16-.416.388-.768.684-1.056a2.971 2.971 0 011.068-.66c.424-.16.9-.24 1.428-.24.52 0 .988.08 1.404.24a2.78 2.78 0 011.056.672c.288.296.508.66.66 1.092.152.424.228.904.228 1.44v.228h-4.572zm7.83-.384c0 .2.036.388.108.564.072.168.168.316.288.444.128.128.276.228.444.3a1.475 1.475 0 001.104 0c.176-.072.324-.172.444-.3.128-.128.228-.276.3-.444.08-.168.12-.348.12-.54 0-.192-.04-.372-.12-.54a1.37 1.37 0 00-.3-.456 1.245 1.245 0 00-.444-.3 1.444 1.444 0 00-1.092 0 1.404 1.404 0 00-.444.3c-.12.128-.22.276-.3.444-.072.16-.108.336-.108.528zm2.736-6.864h2.184V25h-2.184v-.684c-.464.584-1.092.876-1.884.876a2.995 2.995 0 01-2.22-.948c-.28-.296-.5-.644-.66-1.044a3.618 3.618 0 01-.228-1.296c0-.44.072-.856.216-1.248.152-.4.364-.748.636-1.044.272-.296.596-.528.972-.696a2.988 2.988 0 011.26-.264c.768 0 1.404.268 1.908.804V15.04zm5.834 3.804V25h-2.172v-6.156h2.172zm-2.316-2.364c0-.168.032-.324.096-.468.064-.152.152-.284.264-.396.112-.112.24-.2.384-.264a1.224 1.224 0 011.608.66 1.224 1.224 0 010 .948 1.266 1.266 0 01-.264.384c-.112.112-.244.2-.396.264a1.224 1.224 0 01-.948 0 1.266 1.266 0 01-.648-.648 1.224 1.224 0 01-.096-.48zm8.444 4.356c-.376-.256-.756-.384-1.14-.384a1.6 1.6 0 00-.588.108 1.412 1.412 0 00-.468.312 1.4 1.4 0 00-.324.468 1.573 1.573 0 00-.108.6c0 .216.036.416.108.6.08.176.184.332.312.468.136.128.296.228.48.3a1.6 1.6 0 00.588.108c.408 0 .788-.14 1.14-.42v1.848c-.536.232-1.044.348-1.524.348-.448 0-.876-.076-1.284-.228a3.383 3.383 0 01-1.068-.648 3.352 3.352 0 01-.732-1.02 3.15 3.15 0 01-.276-1.332c0-.488.088-.932.264-1.332.176-.408.416-.756.72-1.044a3.148 3.148 0 011.08-.684 3.647 3.647 0 011.356-.252c.528 0 1.016.112 1.464.336v1.848zm3.255 1.068c0 .2.036.388.108.564.072.168.168.316.288.444.128.128.276.228.444.3a1.475 1.475 0 001.104 0c.176-.072.324-.172.444-.3.128-.128.228-.276.3-.444.08-.168.12-.348.12-.54 0-.192-.04-.372-.12-.54a1.37 1.37 0 00-.3-.456 1.245 1.245 0 00-.444-.3 1.475 1.475 0 00-1.104 0 1.404 1.404 0 00-.444.3c-.12.128-.216.276-.288.444-.072.16-.108.336-.108.528zm2.736-3.06h2.184V25h-2.184v-.684c-.464.584-1.092.876-1.884.876-.448 0-.86-.08-1.236-.24a3.058 3.058 0 01-.984-.696c-.28-.296-.5-.644-.66-1.044a3.653 3.653 0 01-.228-1.308c0-.44.076-.856.228-1.248.152-.4.364-.748.636-1.044.272-.296.596-.528.972-.696a2.907 2.907 0 011.248-.264c.768 0 1.404.268 1.908.804v-.612zm3.662 0h2.172v1.008a2.44 2.44 0 01.852-.84c.336-.2.728-.3 1.176-.3h.18c.072 0 .152.008.24.024v2.076a2.064 2.064 0 00-.936-.216c-.504 0-.884.152-1.14.456-.248.296-.372.732-.372 1.308V25h-2.172v-6.156zm10.16 2.184a1.307 1.307 0 00-.444-.732 1.244 1.244 0 00-.816-.276c-.336 0-.612.088-.828.264-.208.176-.34.424-.396.744h2.484zm-2.544 1.26c0 .936.44 1.404 1.32 1.404.472 0 .828-.192 1.068-.576h2.1c-.424 1.408-1.484 2.112-3.18 2.112-.52 0-.996-.076-1.428-.228a3.328 3.328 0 01-1.116-.672 3.007 3.007 0 01-.708-1.032 3.44 3.44 0 01-.252-1.344c0-.512.08-.972.24-1.38.16-.416.388-.768.684-1.056a2.971 2.971 0 011.068-.66c.424-.16.9-.24 1.428-.24.52 0 .988.08 1.404.24a2.78 2.78 0 011.056.672c.288.296.508.66.66 1.092.152.424.228.904.228 1.44v.228h-4.572zm5.706 1.56c0-.192.036-.372.108-.54a1.37 1.37 0 01.744-.756 1.444 1.444 0 011.092 0c.176.072.328.172.456.3s.228.28.3.456a1.444 1.444 0 010 1.092 1.37 1.37 0 01-.756.744 1.444 1.444 0 01-1.092 0 1.404 1.404 0 01-.852-1.296z" fill="#fff"/></svg>