<svg width="245" height="102" viewBox="0 0 245 102" fill="none" xmlns="http://www.w3.org/2000/svg"><path d="M23.266 22.504l2.624-.288-1.152-3.328h-7.936l-1.12 3.328 2.528.288V25H9.282v-2.496l1.408-.352c.384-.096.672-.224.8-.608l7.008-19.712h5.664l6.976 19.776c.128.384.384.448.768.544l1.472.352V25H23.266v-2.496zM20.738 6.728l-2.944 8.704h5.984L20.93 6.728h-.192zm13.849 22.496l1.28-.192c.448-.064.576-.192.576-.672V12.2c0-.352-.064-.544-.416-.672l-1.696-.608.352-2.592h5.632l.288 1.632.16.064c1.536-1.248 3.616-2.016 5.44-2.016 3.584 0 6.144 2.24 6.144 8.192 0 3.84-1.312 9.184-6.592 9.184-1.664 0-3.168-.544-4.512-1.6v4.544c0 .512.032.608.512.64l3.264.288v2.528H34.587v-2.56zm6.656-8.8c.704.608 1.824 1.216 3.008 1.216 2.144 0 3.04-2.048 3.04-5.184 0-3.296-1.12-4.64-2.72-4.64-1.344 0-2.624.672-3.328 1.152v7.456zm13.383 1.984l1.44-.192c.448-.064.512-.16.512-.64V12.2c0-.352-.096-.576-.416-.672l-1.728-.608.352-2.592h5.632l.384 2.56h.192c1.056-1.632 2.464-2.88 4.512-2.88.736 0 2.208.128 2.784.288v5.824l-3.84-.128-.32-1.696c-.064-.288-.16-.352-.416-.352-.832 0-1.824.704-2.304 1.12v8.48c0 .512.032.608.512.64l3.168.256V25H54.626v-2.592zm30.17 1.344c-1.985.96-4.16 1.632-6.56 1.632-6.177 0-8.289-3.84-8.289-8.832 0-5.792 3.552-8.544 7.936-8.544 4.224 0 7.04 2.208 7.04 7.744 0 .384-.032 1.504-.064 2.144h-9.792c.16 2.272 1.152 3.776 3.776 3.776 1.248 0 2.592-.288 4.768-1.088l1.184 3.168zm-4.609-8.896c-.032-2.688-1.088-3.392-2.4-3.392-1.376 0-2.496.768-2.688 3.392h5.088zm18.669-.192c0-1.536-.096-2.816-1.696-2.816-1.184 0-2.656.672-3.328 1.184v8.576c0 .512.032.576.512.64l1.536.224V25h-8.832v-2.56l1.44-.192c.448-.064.512-.16.512-.64V12.2c0-.352-.096-.576-.416-.672l-1.728-.608.384-2.592h5.6l.256 1.664.128.064c1.6-1.184 3.456-2.048 5.632-2.048 3.488 0 4.832 1.92 4.832 5.44v8.16c0 .512.032.576.512.64l1.6.224V25h-6.944V14.664zm20.448 8.544l-.224-.032c-1.344 1.312-2.912 2.208-5.248 2.208-3.776 0-6.208-2.4-6.208-8.512 0-6.432 3.232-8.864 6.784-8.864 1.856 0 3.296.64 4.512 1.536V4.68c0-.32-.128-.544-.416-.64l-1.76-.608.352-2.592h6.432v20.8c0 .48.032.544.512.608l1.536.224V25h-5.952l-.32-1.792zm-.576-10.528c-.8-.544-1.824-.96-2.752-.96-2.368 0-3.296 2.208-3.296 5.056 0 3.104.896 4.832 2.912 4.832 1.088 0 2.272-.64 3.136-1.376V12.68zm23.121 11.072c-1.984.96-4.16 1.632-6.56 1.632-6.176 0-8.288-3.84-8.288-8.832 0-5.792 3.552-8.544 7.936-8.544 4.224 0 7.04 2.208 7.04 7.744 0 .384-.032 1.504-.064 2.144h-9.792c.16 2.272 1.152 3.776 3.776 3.776 1.248 0 2.592-.288 4.768-1.088l1.184 3.168zm-4.608-8.896c-.032-2.688-1.088-3.392-2.4-3.392-1.376 0-2.496.768-2.688 3.392h5.088zm23.313-3.168c-.064-.288-.096-.384-.32-.448-.416-.128-1.184-.256-2.048-.256-1.6 0-2.496.608-2.496 1.632 0 1.312 1.76 1.6 3.712 2.048 2.528.576 5.376 1.472 5.376 5.216 0 3.904-3.168 5.504-7.232 5.504-2.912 0-5.76-.768-6.336-1.152v-4.64l3.424.256.32 1.824c.064.288.096.384.384.48.384.128 1.248.32 2.464.32 1.696 0 2.656-.48 2.656-1.664 0-1.28-1.28-1.664-2.912-1.952-2.688-.48-6.208-1.056-6.208-5.248 0-3.968 3.392-5.6 7.072-5.6 2.528 0 4.992.576 5.888.928v4.64l-3.424-.224-.32-1.664zm14.506 13.696c-5.856 0-8.224-3.584-8.224-8.608 0-5.312 2.784-8.768 8.64-8.768 5.92 0 8.224 3.52 8.224 8.416 0 5.44-2.752 8.96-8.64 8.96zm.224-3.36c2.08 0 3.36-1.44 3.36-5.44 0-3.776-1.152-5.12-3.232-5.12-2.112 0-3.52 1.312-3.52 5.152 0 3.872 1.248 5.408 3.392 5.408zM186.557 25c.224-1.44.48-3.104.48-4.672V4.712c0-.352-.096-.576-.416-.672l-1.76-.608.352-2.592h6.592v8.864l.128.032c1.376-1.12 2.88-1.728 4.832-1.728 3.456 0 6.176 2.24 6.176 8.192 0 6.592-2.784 9.184-6.72 9.184-2.112 0-3.712-.896-4.704-2.016l-.16.032-.224 1.6h-4.576zm5.28-4.608c.736.672 1.824 1.248 2.944 1.248 2.112 0 3.104-1.984 3.104-5.184 0-2.496-.8-4.672-2.944-4.672-1.152 0-2.336.608-3.104 1.12v7.488zm13.388 2.016l1.44-.192c.448-.064.512-.16.512-.64V12.2c0-.352-.096-.576-.416-.672l-1.728-.608.352-2.592h5.632l.384 2.56h.192c1.056-1.632 2.464-2.88 4.512-2.88.736 0 2.208.128 2.784.288v5.824l-3.84-.128-.32-1.696c-.064-.288-.16-.352-.416-.352-.832 0-1.824.704-2.304 1.12v8.48c0 .512.032.608.512.64l3.168.256V25h-10.464v-2.592zm30.169 1.344c-1.984.96-4.16 1.632-6.56 1.632-6.176 0-8.288-3.84-8.288-8.832 0-5.792 3.552-8.544 7.936-8.544 4.224 0 7.04 2.208 7.04 7.744 0 .384-.032 1.504-.064 2.144h-9.792c.16 2.272 1.152 3.776 3.776 3.776 1.248 0 2.592-.288 4.768-1.088l1.184 3.168zm-4.608-8.896c-.032-2.688-1.088-3.392-2.4-3.392-1.376 0-2.496.768-2.688 3.392h5.088zM42.146 60.472l1.6-.224c.448-.064.512-.16.512-.64V42.712c0-.352-.096-.576-.416-.672l-1.76-.608.352-2.592h6.656v20.768c0 .512.032.576.512.64l1.568.224V63h-9.024v-2.528zm21.037.8l-.16-.032c-1.216 1.184-2.816 2.144-5.376 2.144-4.032 0-4.672-2.752-4.672-4.736 0-3.2 1.952-4.64 5.984-4.928l3.68-.256v-1.76c0-1.504-.16-2.528-2.144-2.528-1.536 0-2.336.224-2.336 2.144l-4.512-.384c0-4.32 3.936-4.928 6.88-4.928 4.864 0 6.816 1.312 6.816 5.792v7.776c0 .512.032.576.512.64l1.536.256V63h-5.888l-.32-1.728zm-2.72-4.992c-1.888.128-2.56.608-2.56 1.888 0 1.28.768 1.76 1.824 1.76 1.088 0 2.176-.608 2.912-1.152V56.12l-2.176.16zm19.897-6.592c-.064-.288-.096-.384-.32-.448-.416-.128-1.184-.256-2.048-.256-1.6 0-2.496.608-2.496 1.632 0 1.312 1.76 1.6 3.712 2.048 2.528.576 5.376 1.472 5.376 5.216 0 3.904-3.168 5.504-7.232 5.504-2.912 0-5.76-.768-6.336-1.152v-4.64l3.424.256.32 1.824c.064.288.096.384.384.48.384.128 1.248.32 2.464.32 1.696 0 2.656-.48 2.656-1.664 0-1.28-1.28-1.664-2.912-1.952-2.688-.48-6.208-1.056-6.208-5.248 0-3.968 3.392-5.6 7.072-5.6 2.528 0 4.992.576 5.888.928v4.64l-3.424-.224-.32-1.664zm27.919 12.064c-1.984.96-4.16 1.632-6.56 1.632-6.176 0-8.288-3.84-8.288-8.832 0-5.792 3.552-8.544 7.936-8.544 4.224 0 7.04 2.208 7.04 7.744 0 .384-.032 1.504-.064 2.144h-9.792c.16 2.272 1.152 3.776 3.776 3.776 1.248 0 2.592-.288 4.768-1.088l1.184 3.168zm-4.608-8.896c-.032-2.688-1.088-3.392-2.4-3.392-1.376 0-2.496.768-2.688 3.392h5.088zm16.337-3.168c-.064-.288-.096-.384-.32-.448-.416-.128-1.184-.256-2.048-.256-1.6 0-2.496.608-2.496 1.632 0 1.312 1.76 1.6 3.712 2.048 2.528.576 5.376 1.472 5.376 5.216 0 3.904-3.168 5.504-7.232 5.504-2.912 0-5.76-.768-6.336-1.152v-4.64l3.424.256.32 1.824c.064.288.096.384.384.48.384.128 1.248.32 2.464.32 1.696 0 2.656-.48 2.656-1.664 0-1.28-1.28-1.664-2.912-1.952-2.688-.48-6.208-1.056-6.208-5.248 0-3.968 3.392-5.6 7.072-5.6 2.528 0 4.992.576 5.888.928v4.64l-3.424-.224-.32-1.664zm18.634 12.416c-1.376.672-3.392 1.28-5.216 1.28-3.808 0-5.248-1.536-5.248-5.152v-8.384c0-.192 0-.32-.256-.32h-2.24V46.68c2.816-.32 3.936-1.728 4.288-5.216h3.04v4.544c0 .224 0 .32.256.32h4.512v3.2h-4.768v7.648c0 1.888.448 2.624 2.176 2.624.896 0 1.824-.224 2.592-.512l.864 2.816zm11.836-.832l-.16-.032c-1.216 1.184-2.816 2.144-5.376 2.144-4.032 0-4.672-2.752-4.672-4.736 0-3.2 1.952-4.64 5.984-4.928l3.68-.256v-1.76c0-1.504-.16-2.528-2.144-2.528-1.536 0-2.336.224-2.336 2.144l-4.512-.384c0-4.32 3.936-4.928 6.88-4.928 4.864 0 6.816 1.312 6.816 5.792v7.776c0 .512.032.576.512.64l1.536.256V63h-5.888l-.32-1.728zm-2.72-4.992c-1.888.128-2.56.608-2.56 1.888 0 1.28.768 1.76 1.824 1.76 1.088 0 2.176-.608 2.912-1.152V56.12l-2.176.16zm10.453 4.16l1.792-.192c.448-.064.512-.192.512-.672v-9.728c0-.192 0-.32-.256-.32h-2.144v-3.2h2.4v-1.76c0-4.32 2.432-6.112 6.848-6.112 2.976 0 5.728.736 5.728 4.608l-4.48.544c.032-1.632-.416-2.016-1.472-2.016-1.6 0-1.792.864-1.792 2.4v2.016c0 .224 0 .32.256.32h5.056v3.2h-5.312v9.952c0 .512.096.608.576.64l3.904.352V63h-11.616v-2.56zm23.72.832l-.16-.032c-1.216 1.184-2.816 2.144-5.376 2.144-4.032 0-4.672-2.752-4.672-4.736 0-3.2 1.952-4.64 5.984-4.928l3.68-.256v-1.76c0-1.504-.16-2.528-2.144-2.528-1.536 0-2.336.224-2.336 2.144l-4.512-.384c0-4.32 3.936-4.928 6.88-4.928 4.864 0 6.816 1.312 6.816 5.792v7.776c0 .512.032.576.512.64l1.536.256V63h-5.888l-.32-1.728zm-2.72-4.992c-1.888.128-2.56.608-2.56 1.888 0 1.28.768 1.76 1.824 1.76 1.088 0 2.176-.608 2.912-1.152V56.12l-2.176.16zm19.897-6.592c-.064-.288-.096-.384-.32-.448-.416-.128-1.184-.256-2.048-.256-1.6 0-2.496.608-2.496 1.632 0 1.312 1.76 1.6 3.712 2.048 2.528.576 5.376 1.472 5.376 5.216 0 3.904-3.168 5.504-7.232 5.504-2.912 0-5.76-.768-6.336-1.152v-4.64l3.424.256.32 1.824c.064.288.096.384.384.48.384.128 1.248.32 2.464.32 1.696 0 2.656-.48 2.656-1.664 0-1.28-1.28-1.664-2.912-1.952-2.688-.48-6.208-1.056-6.208-5.248 0-3.968 3.392-5.6 7.072-5.6 2.528 0 4.992.576 5.888.928v4.64l-3.424-.224-.32-1.664zM14.358 99.89c-1.38.84-3.51 1.47-5.7 1.47-5.43 0-7.86-3.39-7.86-7.95 0-5.61 3.42-8.34 8.22-8.34 2.34 0 4.41.66 5.34 1.26v4.71l-3.21-.15-.36-1.98c-.03-.21-.09-.39-.36-.48-.36-.12-.93-.21-1.53-.21-1.8 0-3.33 1.23-3.33 4.74 0 3.9 1.74 5.01 3.87 5.01 1.5 0 2.85-.48 3.75-.87l1.17 2.79zm9.362 1.47c-5.49 0-7.71-3.36-7.71-8.07 0-4.98 2.61-8.22 8.1-8.22 5.55 0 7.71 3.3 7.71 7.89 0 5.1-2.58 8.4-8.1 8.4zm.21-3.15c1.95 0 3.15-1.35 3.15-5.1 0-3.54-1.08-4.8-3.03-4.8-1.98 0-3.3 1.23-3.3 4.83 0 3.63 1.17 5.07 3.18 5.07zm20.764-6.9c0-1.44-.09-2.64-1.59-2.64-1.11 0-2.49.63-3.12 1.11v8.04c0 .48.03.54.48.6l1.44.21V101h-8.28v-2.4l1.35-.18c.42-.06.48-.15.48-.6V89c0-.33-.09-.54-.39-.63l-1.62-.57.36-2.43h5.25l.24 1.56.12.06c1.5-1.11 3.24-1.92 5.28-1.92 3.27 0 4.53 1.8 4.53 5.1v7.65c0 .48.03.54.48.6l1.5.21V101h-6.51v-9.69zm19.414 8.85c-1.29.63-3.18 1.2-4.89 1.2-3.57 0-4.92-1.44-4.92-4.83v-7.86c0-.18 0-.3-.24-.3h-2.1V85.7c2.64-.3 3.69-1.62 4.02-4.89h2.85v4.26c0 .21 0 .3.24.3h4.23v3h-4.47v7.17c0 1.77.42 2.46 2.04 2.46.84 0 1.71-.21 2.43-.48l.81 2.64zm1.757-1.59l1.35-.18c.42-.06.48-.15.48-.6V89c0-.33-.09-.54-.39-.63l-1.62-.57.33-2.43h5.28l.36 2.4h.18c.99-1.53 2.31-2.7 4.23-2.7.69 0 2.07.12 2.61.27v5.46l-3.6-.12-.3-1.59c-.06-.27-.15-.33-.39-.33-.78 0-1.71.66-2.16 1.05v7.95c0 .48.03.57.48.6l2.97.24v2.4h-9.81v-2.43zm23.498.81l-.15-.03c-1.14 1.11-2.64 2.01-5.04 2.01-3.78 0-4.38-2.58-4.38-4.44 0-3 1.83-4.35 5.61-4.62l3.45-.24v-1.65c0-1.41-.15-2.37-2.01-2.37-1.44 0-2.19.21-2.19 2.01l-4.23-.36c0-4.05 3.69-4.62 6.45-4.62 4.56 0 6.39 1.23 6.39 5.43v7.29c0 .48.03.54.48.6l1.44.24V101h-5.52l-.3-1.62zm-2.55-4.68c-1.77.12-2.4.57-2.4 1.77 0 1.2.72 1.65 1.71 1.65 1.02 0 2.04-.57 2.73-1.08v-2.49l-2.04.15zm33.293 3.96l2.46-.21c.45-.03.48-.18.48-.6v-11.4h-.12l-4.29 10.23h-4.89l-4.23-10.26h-.15v11.4c0 .48.06.57.48.6l2.58.24V101h-9.12v-2.34l1.89-.21c.42-.06.48-.15.48-.6V82.46c0-.45-.06-.54-.48-.6l-1.89-.21v-2.37h8.04l5.22 13.59h.12l5.49-13.59h7.8v2.34l-2.01.24c-.45.06-.48.12-.48.57v15.42c0 .39.09.51.48.57l2.01.24V101h-9.87v-2.34zm25.655 1.17c-1.86.9-3.9 1.53-6.15 1.53-5.79 0-7.77-3.6-7.77-8.28 0-5.43 3.33-8.01 7.44-8.01 3.96 0 6.6 2.07 6.6 7.26 0 .36-.03 1.41-.06 2.01h-9.18c.15 2.13 1.08 3.54 3.54 3.54 1.17 0 2.43-.27 4.47-1.02l1.11 2.97zm-4.32-8.34c-.03-2.52-1.02-3.18-2.25-3.18-1.29 0-2.34.72-2.52 3.18h4.77zm17.564 7.83l-.21-.03c-1.26 1.23-2.73 2.07-4.92 2.07-3.54 0-5.82-2.25-5.82-7.98 0-6.03 3.03-8.31 6.36-8.31 1.74 0 3.09.6 4.23 1.44v-4.56c0-.3-.12-.51-.39-.6l-1.65-.57.33-2.43h6.03v19.5c0 .45.03.51.48.57l1.44.21V101h-5.58l-.3-1.68zm-.54-9.87c-.75-.51-1.71-.9-2.58-.9-2.22 0-3.09 2.07-3.09 4.74 0 2.91.84 4.53 2.73 4.53 1.02 0 2.13-.6 2.94-1.29v-7.08zm14.38-9.18c0 1.71-.99 2.7-2.73 2.7-1.71 0-2.7-.99-2.7-2.7 0-1.71.99-2.64 2.7-2.64 1.74 0 2.73.93 2.73 2.64zm-6.6 18.36l1.53-.21c.42-.06.48-.15.48-.6V89c0-.33-.09-.54-.39-.63l-1.62-.57.33-2.43h6.21v12.45c0 .48.03.54.48.6l1.53.21V101h-8.55v-2.37zm23.562 1.26c-1.38.84-3.51 1.47-5.7 1.47-5.43 0-7.86-3.39-7.86-7.95 0-5.61 3.42-8.34 8.22-8.34 2.34 0 4.41.66 5.34 1.26v4.71l-3.21-.15-.36-1.98c-.03-.21-.09-.39-.36-.48-.36-.12-.93-.21-1.53-.21-1.8 0-3.33 1.23-3.33 4.74 0 3.9 1.74 5.01 3.87 5.01 1.5 0 2.85-.48 3.75-.87l1.17 2.79zm11.373-.51l-.15-.03c-1.14 1.11-2.64 2.01-5.04 2.01-3.78 0-4.38-2.58-4.38-4.44 0-3 1.83-4.35 5.61-4.62l3.45-.24v-1.65c0-1.41-.15-2.37-2.01-2.37-1.44 0-2.19.21-2.19 2.01l-4.23-.36c0-4.05 3.69-4.62 6.45-4.62 4.56 0 6.39 1.23 6.39 5.43v7.29c0 .48.03.54.48.6l1.44.24V101h-5.52l-.3-1.62zm-2.55-4.68c-1.77.12-2.4.57-2.4 1.77 0 1.2.72 1.65 1.71 1.65 1.02 0 2.04-.57 2.73-1.08v-2.49l-2.04.15zm9.769 3.87l1.35-.18c.42-.06.48-.15.48-.6V89c0-.33-.09-.54-.39-.63l-1.62-.57.33-2.43h5.28l.36 2.4h.18c.99-1.53 2.31-2.7 4.23-2.7.69 0 2.07.12 2.61.27v5.46l-3.6-.12-.3-1.59c-.06-.27-.15-.33-.39-.33-.78 0-1.71.66-2.16 1.05v7.95c0 .48.03.57.48.6l2.97.24v2.4h-9.81v-2.43zm28.283 1.26c-1.86.9-3.9 1.53-6.15 1.53-5.79 0-7.77-3.6-7.77-8.28 0-5.43 3.33-8.01 7.44-8.01 3.96 0 6.6 2.07 6.6 7.26 0 .36-.03 1.41-.06 2.01h-9.18c.15 2.13 1.08 3.54 3.54 3.54 1.17 0 2.43-.27 4.47-1.02l1.11 2.97zm-4.32-8.34c-.03-2.52-1.02-3.18-2.25-3.18-1.29 0-2.34.72-2.52 3.18h4.77zm12.135 7.53c0 1.53-.84 2.34-2.55 2.34-1.74 0-2.58-.78-2.58-2.34 0-1.53.84-2.34 2.58-2.34 1.68 0 2.55.81 2.55 2.34z" fill="#fff"/></svg>