<svg width="230" height="102" viewBox="0 0 230 102" fill="none" xmlns="http://www.w3.org/2000/svg"><path d="M7.689 7.774v13.728c0 .528.033.594.528.66l2.211.264V25H1.254v-2.574l2.079-.231c.462-.066.528-.165.528-.66V4.573c0-.495-.033-.594-.528-.66l-2.079-.231V1.108h8.184L19.8 18.367V4.639c0-.495-.033-.594-.528-.66l-2.079-.231v-2.64h9.174v2.64l-2.211.264c-.495.066-.528.132-.528.627V25h-5.412L7.689 7.774zm28.664 17.622c-6.039 0-8.48-3.696-8.48-8.877 0-5.478 2.87-9.042 8.91-9.042 6.104 0 8.48 3.63 8.48 8.679 0 5.61-2.838 9.24-8.91 9.24zm.231-3.465c2.145 0 3.465-1.485 3.465-5.61 0-3.894-1.188-5.28-3.333-5.28-2.178 0-3.63 1.353-3.63 5.313 0 3.993 1.287 5.577 3.498 5.577zm17.761.396l1.485-.198c.462-.066.528-.165.528-.66V11.8c0-.363-.099-.594-.429-.693l-1.782-.627.363-2.673h5.808l.396 2.64h.198c1.09-1.683 2.541-2.97 4.653-2.97.76 0 2.277.132 2.871.297v6.006l-3.96-.132-.33-1.749c-.066-.297-.165-.363-.429-.363-.858 0-1.88.726-2.376 1.155v8.745c0 .528.033.627.528.66l3.267.264V25h-10.79v-2.673zm31.112 1.386c-2.046.99-4.29 1.683-6.765 1.683-6.37 0-8.547-3.96-8.547-9.108 0-5.973 3.663-8.811 8.184-8.811 4.356 0 7.26 2.277 7.26 7.986 0 .396-.033 1.551-.066 2.211H75.425c.165 2.343 1.188 3.894 3.894 3.894 1.287 0 2.673-.297 4.917-1.122l1.22 3.267zm-4.752-9.174c-.033-2.772-1.122-3.498-2.475-3.498-1.42 0-2.574.792-2.772 3.498h5.247zm16.847-3.267c-.066-.297-.099-.396-.33-.462-.429-.132-1.22-.264-2.112-.264-1.65 0-2.574.627-2.574 1.683 0 1.353 1.815 1.65 3.828 2.112 2.607.594 5.544 1.518 5.544 5.379 0 4.026-3.267 5.676-7.458 5.676-3.003 0-5.94-.792-6.534-1.188v-4.785l3.531.264.33 1.881c.066.297.1.396.396.495.396.132 1.287.33 2.541.33 1.75 0 2.74-.495 2.74-1.716 0-1.32-1.32-1.716-3.004-2.013-2.772-.495-6.402-1.089-6.402-5.412 0-4.092 3.498-5.775 7.293-5.775 2.607 0 5.148.594 6.072.957v4.785l-3.53-.231-.33-1.716zm6.412 18.084l1.32-.198c.462-.066.594-.198.594-.693V11.8c0-.363-.066-.561-.429-.693l-1.749-.627.363-2.673h5.808l.297 1.683.165.066c1.584-1.287 3.729-2.079 5.61-2.079 3.696 0 6.336 2.31 6.336 8.448 0 3.96-1.353 9.471-6.798 9.471-1.716 0-3.267-.561-4.653-1.65v4.686c0 .528.033.627.528.66l3.366.297v2.607h-10.758v-2.64zm6.864-9.075c.726.627 1.881 1.254 3.102 1.254 2.211 0 3.135-2.112 3.135-5.346 0-3.399-1.155-4.785-2.805-4.785-1.386 0-2.706.693-3.432 1.188v7.689zm22.155 5.115c-6.039 0-8.481-3.696-8.481-8.877 0-5.478 2.871-9.042 8.91-9.042 6.105 0 8.481 3.63 8.481 8.679 0 5.61-2.838 9.24-8.91 9.24zm.231-3.465c2.145 0 3.465-1.485 3.465-5.61 0-3.894-1.188-5.28-3.333-5.28-2.178 0-3.63 1.353-3.63 5.313 0 3.993 1.287 5.577 3.498 5.577zm22.84-7.59c0-1.584-.099-2.904-1.749-2.904-1.221 0-2.739.693-3.432 1.221v8.844c0 .528.033.594.528.66l1.584.231V25h-9.108v-2.64l1.485-.198c.462-.066.528-.165.528-.66V11.8c0-.363-.099-.594-.429-.693l-1.782-.627.396-2.673h5.775l.264 1.716.132.066c1.65-1.221 3.564-2.112 5.808-2.112 3.597 0 4.983 1.98 4.983 5.61v8.415c0 .528.033.594.528.66l1.65.231V25h-7.161V14.341zm21.088 8.811l-.231-.033c-1.386 1.353-3.003 2.277-5.412 2.277-3.894 0-6.402-2.475-6.402-8.778 0-6.633 3.333-9.141 6.996-9.141 1.914 0 3.399.66 4.653 1.584V4.045c0-.33-.132-.561-.429-.66l-1.815-.627.363-2.673h6.633v21.45c0 .495.033.561.528.627l1.584.231V25h-6.138l-.33-1.848zm-.594-10.857c-.825-.561-1.881-.99-2.838-.99-2.442 0-3.399 2.277-3.399 5.214 0 3.201.924 4.983 3.003 4.983 1.122 0 2.343-.66 3.234-1.419v-7.788zm19.514 10.923l-.165-.033c-1.254 1.221-2.904 2.211-5.544 2.211-4.158 0-4.818-2.838-4.818-4.884 0-3.3 2.013-4.785 6.171-5.082l3.795-.264v-1.815c0-1.551-.165-2.607-2.211-2.607-1.584 0-2.409.231-2.409 2.211l-4.653-.396c0-4.455 4.059-5.082 7.095-5.082 5.016 0 7.029 1.353 7.029 5.973v8.019c0 .528.033.594.528.66l1.584.264V25h-6.072l-.33-1.782zm-2.805-5.148c-1.947.132-2.64.627-2.64 1.947s.792 1.815 1.881 1.815c1.122 0 2.244-.627 3.003-1.188v-2.739l-2.244.165zm20.518-6.798c-.066-.297-.099-.396-.33-.462-.429-.132-1.221-.264-2.112-.264-1.65 0-2.574.627-2.574 1.683 0 1.353 1.815 1.65 3.828 2.112 2.607.594 5.544 1.518 5.544 5.379 0 4.026-3.267 5.676-7.458 5.676-3.003 0-5.94-.792-6.534-1.188v-4.785l3.531.264.33 1.881c.066.297.099.396.396.495.396.132 1.287.33 2.541.33 1.749 0 2.739-.495 2.739-1.716 0-1.32-1.32-1.716-3.003-2.013-2.772-.495-6.402-1.089-6.402-5.412 0-4.092 3.498-5.775 7.293-5.775 2.607 0 5.148.594 6.072.957v4.785l-3.531-.231-.33-1.716zm12.88 11.55c0 1.683-.924 2.574-2.805 2.574-1.914 0-2.838-.858-2.838-2.574 0-1.683.924-2.574 2.838-2.574 1.848 0 2.805.891 2.805 2.574z" fill="#8F3FB0"/><path d="M1.254 60.393l2.079-.231c.462-.066.528-.165.528-.66V42.639c0-.495-.033-.594-.528-.66l-2.079-.231v-2.64h11.187c6.105 0 7.953 3.234 7.953 7.029 0 5.742-3.465 8.052-9.042 8.052H8.943v5.28c0 .528.066.627.528.66l4.719.264V63H1.254v-2.607zm9.339-9.735c2.178 0 4.587-.495 4.587-4.224 0-3.168-1.947-3.729-4.29-3.729H8.943v7.953h1.65zm19.315 12.738c-6.039 0-8.48-3.696-8.48-8.877 0-5.478 2.87-9.042 8.91-9.042 6.104 0 8.48 3.63 8.48 8.679 0 5.61-2.838 9.24-8.91 9.24zm.231-3.465c2.145 0 3.465-1.485 3.465-5.61 0-3.894-1.188-5.28-3.333-5.28-2.178 0-3.63 1.353-3.63 5.313 0 3.993 1.287 5.577 3.498 5.577zm23.102 1.221l-.231-.033c-1.386 1.353-3.003 2.277-5.412 2.277-3.894 0-6.402-2.475-6.402-8.778 0-6.633 3.333-9.141 6.996-9.141 1.914 0 3.399.66 4.653 1.584v-5.016c0-.33-.132-.561-.43-.66l-1.814-.627.363-2.673h6.633v21.45c0 .495.033.561.528.627l1.584.231V63H53.57l-.33-1.848zm-.594-10.857c-.825-.561-1.881-.99-2.838-.99-2.442 0-3.4 2.277-3.4 5.214 0 3.201.925 4.983 3.004 4.983 1.122 0 2.343-.66 3.234-1.419v-7.788zm8.756 10.032l1.485-.198c.462-.066.528-.165.528-.66V49.8c0-.363-.1-.594-.43-.693l-1.781-.627.363-2.673h5.808l.396 2.64h.198c1.089-1.683 2.54-2.97 4.653-2.97.759 0 2.277.132 2.87.297v6.006l-3.96-.132-.33-1.749c-.065-.297-.164-.363-.428-.363-.858 0-1.881.726-2.376 1.155v8.745c0 .528.033.627.528.66l3.267.264V63H61.403v-2.673zm15.73.066l1.682-.231c.462-.066.528-.165.528-.66V49.8c0-.363-.099-.594-.429-.693l-1.782-.627.363-2.673h6.831v13.695c0 .528.033.594.528.66l1.683.231V63h-9.405v-2.607zm.296-17.49l5.05-5.742 2.705 2.574-5.907 4.818-1.848-1.65zm21.43 18.315l-.164-.033c-1.254 1.221-2.904 2.211-5.544 2.211-4.158 0-4.818-2.838-4.818-4.884 0-3.3 2.013-4.785 6.17-5.082l3.796-.264v-1.815c0-1.551-.165-2.607-2.211-2.607-1.584 0-2.41.231-2.41 2.211l-4.652-.396c0-4.455 4.059-5.082 7.095-5.082 5.016 0 7.029 1.353 7.029 5.973v8.019c0 .528.033.594.528.66l1.584.264V63H99.19l-.33-1.782zm-2.804-5.148c-1.947.132-2.64.627-2.64 1.947s.792 1.815 1.88 1.815c1.123 0 2.245-.627 3.004-1.188v-2.739l-2.244.165zm27.713-6.798c-.066-.297-.099-.396-.33-.462-.429-.132-1.221-.264-2.112-.264-1.65 0-2.574.627-2.574 1.683 0 1.353 1.815 1.65 3.828 2.112 2.607.594 5.544 1.518 5.544 5.379 0 4.026-3.267 5.676-7.458 5.676-3.003 0-5.94-.792-6.534-1.188v-4.785l3.531.264.33 1.881c.066.297.099.396.396.495.396.132 1.287.33 2.541.33 1.749 0 2.739-.495 2.739-1.716 0-1.32-1.32-1.716-3.003-2.013-2.772-.495-6.402-1.089-6.402-5.412 0-4.092 3.498-5.775 7.293-5.775 2.607 0 5.148.594 6.072.957v4.785l-3.531-.231-.33-1.716zm21.79 12.441c-2.046.99-4.29 1.683-6.765 1.683-6.369 0-8.547-3.96-8.547-9.108 0-5.973 3.663-8.811 8.184-8.811 4.356 0 7.26 2.277 7.26 7.986 0 .396-.033 1.551-.066 2.211h-10.098c.165 2.343 1.188 3.894 3.894 3.894 1.287 0 2.673-.297 4.917-1.122l1.221 3.267zm-4.752-9.174c-.033-2.772-1.122-3.498-2.475-3.498-1.419 0-2.574.792-2.772 3.498h5.247zm7.075 7.788l1.485-.198c.462-.066.528-.165.528-.66V49.8c0-.363-.099-.594-.429-.693l-1.782-.627.363-2.673h5.808l.396 2.64h.198c1.089-1.683 2.541-2.97 4.653-2.97.759 0 2.277.132 2.871.297v6.006l-3.96-.132-.33-1.749c-.066-.297-.165-.363-.429-.363-.858 0-1.881.726-2.376 1.155v8.745c0 .528.033.627.528.66l3.267.264V63h-10.791v-2.673zm35.666.891l-.165-.033c-1.353 1.023-3.069 2.211-5.874 2.211-3.465 0-4.785-1.98-4.785-5.808v-8.052c0-.528-.033-.594-.528-.693l-1.584-.33.33-2.706h6.765V56.73c0 2.013.33 2.772 1.749 2.772 1.452 0 2.64-.825 3.399-1.518v-8.481c0-.528-.033-.561-.528-.66l-1.419-.33.363-2.706h6.567v13.695c0 .429.066.561.462.627l1.65.231V63h-6.138l-.264-1.782zm20.33-8.877c0-1.584-.099-2.904-1.749-2.904-1.221 0-2.739.693-3.432 1.221v8.844c0 .528.033.594.528.66l1.584.231V63H191.7v-2.64l1.485-.198c.462-.066.528-.165.528-.66V49.8c0-.363-.099-.594-.429-.693l-1.782-.627.396-2.673h5.775l.264 1.716.132.066c1.65-1.221 3.564-2.112 5.808-2.112 3.597 0 4.983 1.98 4.983 5.61v8.415c0 .528.033.594.528.66l1.65.231V63h-7.161V52.341zm19.504 8.877l-.165-.033c-1.254 1.221-2.904 2.211-5.544 2.211-4.158 0-4.818-2.838-4.818-4.884 0-3.3 2.013-4.785 6.171-5.082l3.795-.264v-1.815c0-1.551-.165-2.607-2.211-2.607-1.584 0-2.409.231-2.409 2.211l-4.653-.396c0-4.455 4.059-5.082 7.095-5.082 5.016 0 7.029 1.353 7.029 5.973v8.019c0 .528.033.594.528.66l1.584.264V63h-6.072l-.33-1.782zm-2.805-5.148c-1.947.132-2.64.627-2.64 1.947s.792 1.815 1.881 1.815c1.122 0 2.244-.627 3.003-1.188v-2.739l-2.244.165zM16.203 99.713c-2.046.99-4.29 1.683-6.765 1.683-6.369 0-8.547-3.96-8.547-9.108 0-5.973 3.663-8.811 8.184-8.811 4.356 0 7.26 2.277 7.26 7.986 0 .396-.033 1.551-.066 2.211H6.171c.165 2.343 1.188 3.894 3.894 3.894 1.287 0 2.673-.297 4.917-1.122l1.221 3.267zm-4.752-9.174c-.033-2.772-1.122-3.498-2.475-3.498-1.419 0-2.574.792-2.772 3.498h5.247zm16.848-3.267c-.066-.297-.1-.396-.33-.462-.43-.132-1.222-.264-2.113-.264-1.65 0-2.574.627-2.574 1.683 0 1.353 1.816 1.65 3.828 2.112 2.608.594 5.544 1.518 5.544 5.379 0 4.026-3.267 5.676-7.458 5.676-3.003 0-5.94-.792-6.534-1.188v-4.785l3.532.264.33 1.881c.066.297.098.396.395.495.396.132 1.287.33 2.541.33 1.75 0 2.74-.495 2.74-1.716 0-1.32-1.32-1.716-3.003-2.013-2.773-.495-6.402-1.089-6.402-5.412 0-4.092 3.497-5.775 7.292-5.775 2.608 0 5.148.594 6.073.957v4.785l-3.531-.231-.33-1.716zm19.216 12.804c-1.42.693-3.498 1.32-5.38 1.32-3.926 0-5.411-1.584-5.411-5.313v-8.646c0-.198 0-.33-.264-.33h-2.31V84.17c2.904-.33 4.059-1.782 4.422-5.379h3.135v4.686c0 .231 0 .33.264.33h4.653v3.3h-4.917v7.887c0 1.947.462 2.706 2.244 2.706.924 0 1.88-.231 2.673-.528l.89 2.904zm12.206-.858l-.165-.033c-1.254 1.221-2.904 2.211-5.544 2.211-4.158 0-4.818-2.838-4.818-4.884 0-3.3 2.013-4.785 6.171-5.082l3.795-.264v-1.815c0-1.551-.165-2.607-2.21-2.607-1.585 0-2.41.231-2.41 2.211l-4.653-.396c0-4.455 4.06-5.082 7.095-5.082 5.016 0 7.03 1.353 7.03 5.973v8.019c0 .528.032.594.527.66l1.584.264V101h-6.072l-.33-1.782zm-2.805-5.148c-1.947.132-2.64.627-2.64 1.947s.792 1.815 1.881 1.815c1.122 0 2.244-.627 3.003-1.188v-2.739l-2.244.165zm10.78 4.29l1.847-.198c.462-.066.528-.198.528-.693V87.437c0-.198 0-.33-.264-.33h-2.21v-3.3h2.474v-1.815c0-4.455 2.508-6.303 7.062-6.303 3.07 0 5.907.759 5.907 4.752l-4.62.561c.033-1.683-.429-2.079-1.518-2.079-1.65 0-1.848.891-1.848 2.475v2.079c0 .231 0 .33.264.33h5.214v3.3h-5.478V97.37c0 .528.1.627.594.66l4.026.363V101H67.695v-2.64zm24.46.858l-.164-.033c-1.254 1.221-2.904 2.211-5.544 2.211-4.158 0-4.818-2.838-4.818-4.884 0-3.3 2.013-4.785 6.17-5.082l3.796-.264v-1.815c0-1.551-.165-2.607-2.211-2.607-1.584 0-2.41.231-2.41 2.211l-4.652-.396c0-4.455 4.059-5.082 7.095-5.082 5.016 0 7.029 1.353 7.029 5.973v8.019c0 .528.033.594.528.66l1.584.264V101h-6.072l-.33-1.782zm-2.804-5.148c-1.947.132-2.64.627-2.64 1.947s.792 1.815 1.88 1.815c1.123 0 2.245-.627 3.004-1.188v-2.739l-2.244.165zm17.181 4.752c0 1.683-.924 2.574-2.805 2.574-1.914 0-2.838-.858-2.838-2.574 0-1.683.924-2.574 2.838-2.574 1.848 0 2.805.891 2.805 2.574z" fill="#2B3D51"/></svg>