<svg width="142" height="157" viewBox="0 0 142 157" fill="none" xmlns="http://www.w3.org/2000/svg"><path d="M27.956 20V.56h4.95l6.18 8.61c.45.6.87 1.47.87 1.47V.56h5.7V20h-4.95l-6.18-8.46c-.45-.6-.87-1.47-.87-1.47V20h-5.7zm25.985.3c-4.62 0-5.58-2.88-5.58-6.78V4.67h5.46v8.16c0 1.62.54 2.37 1.98 2.37 1.65 0 2.25-1.41 2.25-3.3V4.67h5.46V20h-5.16v-1.68c-.84 1.08-2.82 1.98-4.41 1.98zm11.973-.3V4.67h5.16v1.77c1.41-1.65 3.09-2.07 4.62-2.07 3.87 0 5.37 2.28 5.37 6.78V20h-5.46v-8.16c0-1.74-.66-2.37-1.71-2.37-1.68 0-2.52 1.41-2.52 3.3V20h-5.46zm25.382.3c-4.71 0-8.28-3.54-8.28-7.95 0-4.44 3.57-7.98 8.28-7.98 2.1 0 3.81.63 5.43 1.92l-3.15 3.78c-.57-.54-1.2-.9-2.13-.9-1.77 0-2.91 1.35-2.91 3.18 0 1.86 1.11 3.15 3.03 3.15 1.05 0 1.92-.45 2.58-1.11l2.73 4.02c-1.47 1.23-3.42 1.89-5.58 1.89zm12.88 0c-4.26 0-6.57-3.54-6.57-7.95 0-4.44 2.31-7.98 6.57-7.98 1.23 0 3.27.42 4.17 2.01V4.67h5.16V20h-5.16v-1.71c-.84 1.56-2.94 2.01-4.17 2.01zm1.44-4.8c1.44 0 2.46-1.29 2.46-3.15 0-1.83-1.02-3.18-2.46-3.18s-2.46 1.35-2.46 3.18c0 1.86 1.02 3.15 2.46 3.15zM7.796 54.28C3.402 54.28.07 50.976.07 46.86c0-4.144 3.332-7.448 7.728-7.448 1.96 0 3.555.588 5.067 1.792l-2.94 3.528c-.531-.504-1.12-.84-1.987-.84-1.652 0-2.716 1.26-2.716 2.968 0 1.736 1.036 2.94 2.828 2.94.98 0 1.792-.42 2.408-1.036l2.547 3.752c-1.371 1.148-3.191 1.764-5.207 1.764zm13.618 0c-4.396 0-7.728-3.304-7.728-7.42 0-4.144 3.332-7.448 7.728-7.448s7.728 3.304 7.728 7.448c0 4.116-3.332 7.42-7.728 7.42zm0-4.48c1.512 0 2.576-1.204 2.576-2.94 0-1.708-1.064-2.968-2.576-2.968s-2.576 1.26-2.576 2.968c0 1.736 1.064 2.94 2.576 2.94zM31.11 54V39.692h4.816v1.568c1.064-1.204 2.716-1.848 4.312-1.848 2.296 0 3.528.924 4.2 2.212 1.232-1.792 3.136-2.212 4.564-2.212 4.62 0 5.012 3.724 5.012 6.608V54h-5.096v-7.392c0-1.708-.476-2.492-1.596-2.492-1.512 0-2.212 1.372-2.212 3.136V54h-5.096v-7.392c0-1.708-.476-2.492-1.596-2.492-1.512 0-2.212 1.372-2.212 3.136V54H31.11zm24.992 4.116V39.692h4.816v1.596c1.148-1.54 2.744-1.876 3.892-1.876 3.976 0 6.132 3.304 6.132 7.42 0 4.144-2.296 7.448-6.3 7.448-1.148 0-2.576-.392-3.444-1.484v5.32h-5.096zm7.336-8.316c1.344 0 2.296-1.204 2.296-2.94 0-1.708-.952-2.968-2.296-2.968-1.344 0-2.296 1.26-2.296 2.968 0 1.736.952 2.94 2.296 2.94zm15.305 4.48c-3.975 0-6.131-3.304-6.131-7.42 0-4.144 2.156-7.448 6.132-7.448 1.147 0 3.052.392 3.891 1.876v-1.596h4.816V54h-4.816v-1.596c-.784 1.456-2.744 1.876-3.892 1.876zm1.345-4.48c1.344 0 2.296-1.204 2.296-2.94 0-1.708-.953-2.968-2.296-2.968-1.344 0-2.296 1.26-2.296 2.968 0 1.736.951 2.94 2.296 2.94zM89.68 54V39.692h4.956v2.548c.084-.616 1.316-2.828 4.675-2.828v5.544c-3.695 0-4.535 1.54-4.535 4.228V54H89.68zm17.579.28c-2.744 0-4.536-1.764-4.536-4.9v-5.656h-2.1v-4.032h2.1v-2.576l5.096-1.26v3.836h3.164v4.032h-3.164v5.264c0 .672.336.896.784.896.42 0 .924-.196 1.288-.448l1.372 3.724c-1.232.868-2.744 1.12-4.004 1.12zm11.187 0c-3.976 0-6.132-3.304-6.132-7.42 0-4.144 2.156-7.448 6.132-7.448 1.148 0 3.052.392 3.892 1.876v-1.596h4.816V54h-4.816v-1.596c-.784 1.456-2.744 1.876-3.892 1.876zm1.344-4.48c1.344 0 2.296-1.204 2.296-2.94 0-1.708-.952-2.968-2.296-2.968-1.344 0-2.296 1.26-2.296 2.968 0 1.736.952 2.94 2.296 2.94zm14.857 4.48c-3.276 0-5.096-.98-5.936-1.708l1.624-3.584c1.12.756 2.156 1.204 4.34 1.204.056 0 1.4-.084 1.4-.644 0-.448-.84-.532-1.68-.728-3.108-.756-5.404-2.016-5.404-4.648 0-3.136 2.856-4.76 5.88-4.76 2.772 0 4.424.616 5.796 1.344l-1.512 3.416c-1.652-.644-3.164-.84-4.116-.84-.504 0-.896.168-.896.448 0 .532 1.204.728 2.632 1.12 2.016.588 4.452 1.568 4.452 4.452 0 3.836-3.892 4.928-6.58 4.928zM9.004 88.3c-2.58 0-4.11-1.26-4.11-4.68v-8.34h-2.19v-1.89h2.19v-3.15l2.28-.42v3.57h4.98v1.89h-4.98v8.4c0 2.01.87 2.58 2.04 2.58 1.35 0 2.4-.81 2.4-.81l.75 1.77c-.57.39-1.77 1.08-3.36 1.08zm11.137 0c-3.6 0-5.31-1.89-5.31-5.79v-9.12h2.28v8.82c0 2.73 1.32 3.87 3.69 3.87 2.64 0 4.17-2.16 4.17-4.41v-8.28h2.28V88h-2.19v-2.58c-.9 1.89-3 2.88-4.92 2.88zM37.63 88V73.39h2.28v2.49c1.02-1.77 2.91-2.79 5.07-2.79 3.66 0 5.28 2.22 5.28 6.06V88h-2.28v-8.55c0-2.7-.99-4.14-3.63-4.14-2.61 0-4.44 2.04-4.44 4.47V88h-2.28zm20.49-16.95l2.43-3.99h2.49l-2.82 3.99h-2.1zm.81 17.25c-3.6 0-5.31-1.89-5.31-5.79v-9.12h2.28v8.82c0 2.73 1.32 3.87 3.69 3.87 2.64 0 4.17-2.16 4.17-4.41v-8.28h2.28V88h-2.19v-2.58c-.9 1.89-3 2.88-4.92 2.88zm10.956-.3V73.39h2.28v2.52c.81-1.59 2.64-2.82 4.68-2.82 2.34 0 3.99 1.02 4.68 3.09 1.05-2.13 3.33-3.09 5.04-3.09 3.51 0 5.37 2.04 5.37 6.06V88h-2.31v-8.55c0-2.49-.87-4.14-3.54-4.14-2.46 0-4.02 1.98-4.02 4.17V88h-2.31v-8.55c0-2.49-.87-4.14-3.51-4.14-2.55 0-4.08 2.16-4.08 4.29V88h-2.28zm32.655.3c-4.14 0-7.65-2.97-7.65-7.59 0-4.23 3.18-7.62 7.35-7.62 3.9 0 6.99 3.36 6.99 7.53 0 .42-.06.87-.06.9h-11.91c.36 2.91 2.61 4.74 5.31 4.74 1.65 0 3.3-.57 4.5-1.56l.99 1.68a8.94 8.94 0 01-5.52 1.92zm-5.28-8.52h9.72c-.24-2.7-2.31-4.65-4.86-4.65-2.49 0-4.53 1.92-4.86 4.65zM112.483 88V73.39h2.28v3.09c.84-1.92 2.73-3.39 5.64-3.39v2.49c-3.42 0-5.64 1.92-5.64 5.49V88h-2.28zm17.334.3c-4.29 0-7.68-3.36-7.68-7.59 0-4.26 3.39-7.62 7.68-7.62 4.29 0 7.68 3.36 7.68 7.62 0 4.23-3.39 7.59-7.68 7.59zm0-2.22c3.03 0 5.34-2.31 5.34-5.37 0-3.09-2.31-5.4-5.34-5.4s-5.34 2.31-5.34 5.4c0 3.06 2.31 5.37 5.34 5.37zM61.274 122.3c-4.05 0-6.9-3.36-6.9-7.59 0-4.29 2.85-7.62 6.9-7.62 2.34 0 4.41.96 5.49 2.85v-7.68h2.28V122h-2.19v-2.55c-1.08 1.92-3.21 2.85-5.58 2.85zm.51-2.22c2.79 0 4.98-2.31 4.98-5.37s-2.19-5.4-4.98-5.4c-2.91 0-5.07 2.28-5.07 5.4 0 3.09 2.16 5.37 5.07 5.37zm18.14 2.22c-4.14 0-7.65-2.97-7.65-7.59 0-4.23 3.18-7.62 7.35-7.62 3.9 0 6.99 3.36 6.99 7.53 0 .42-.06.87-.06.9h-11.91c.36 2.91 2.61 4.74 5.31 4.74 1.65 0 3.3-.57 4.5-1.56l.99 1.68a8.94 8.94 0 01-5.52 1.92zm-5.28-8.52h9.72c-.24-2.7-2.31-4.65-4.86-4.65-2.49 0-4.53 1.92-4.86 4.65zM6.833 156v-19.44h2.13l4.74 6.6c1.02 1.44 3.15 4.5 3.15 4.5s2.13-3.03 3.15-4.47l4.74-6.63h2.13V156h-2.4v-15.39s-.51.93-1.44 2.22l-6.18 8.7-6.21-8.76c-.87-1.23-1.41-2.16-1.41-2.16V156h-2.4zm31.27.3c-4.14 0-7.65-2.97-7.65-7.59 0-4.23 3.18-7.62 7.35-7.62 3.9 0 6.99 3.36 6.99 7.53 0 .42-.06.87-.06.9h-11.91c.36 2.91 2.61 4.74 5.31 4.74 1.65 0 3.3-.57 4.5-1.56l.99 1.68a8.94 8.94 0 01-5.52 1.92zm-5.28-8.52h9.72c-.24-2.7-2.31-4.65-4.86-4.65-2.49 0-4.53 1.92-4.86 4.65zm21.522 8.52c-4.05 0-6.9-3.36-6.9-7.59 0-4.29 2.85-7.62 6.9-7.62 2.34 0 4.41.96 5.49 2.85v-7.68h2.28V156h-2.19v-2.55c-1.08 1.92-3.21 2.85-5.58 2.85zm.51-2.22c2.79 0 4.98-2.31 4.98-5.37s-2.19-5.4-4.98-5.4c-2.91 0-5.07 2.28-5.07 5.4 0 3.09 2.16 5.37 5.07 5.37zm11.09 1.92v-14.61h2.28V156h-2.28zm1.14-17.22c-.84 0-1.5-.66-1.5-1.5s.66-1.53 1.5-1.53 1.53.69 1.53 1.53c0 .84-.69 1.5-1.53 1.5zm12.063 17.52c-4.29 0-7.68-3.33-7.68-7.59s3.39-7.62 7.68-7.62c2.01 0 3.84.72 5.22 1.95l-1.44 1.62c-.9-.84-2.22-1.35-3.75-1.35-3.06 0-5.37 2.28-5.37 5.4 0 3.03 2.22 5.37 5.43 5.37 1.65 0 3.15-.63 4.17-1.65l1.32 1.71c-1.41 1.35-3.39 2.16-5.58 2.16zm14.279 0c-4.05 0-6.9-3.36-6.9-7.59 0-4.29 2.85-7.62 6.9-7.62 2.34 0 4.41.96 5.49 2.85v-2.55h2.28V156h-2.28v-2.55c-1.08 1.92-3.15 2.85-5.49 2.85zm.51-2.22c2.79 0 4.98-2.31 4.98-5.37s-2.19-5.4-4.98-5.4c-2.91 0-5.07 2.28-5.07 5.4 0 3.09 2.16 5.37 5.07 5.37zm11.09 1.92v-14.61h2.28v3.09c.84-1.92 2.73-3.39 5.64-3.39v2.49c-3.42 0-5.64 1.92-5.64 5.49V156h-2.28zm17.304.3c-4.14 0-7.65-2.97-7.65-7.59 0-4.23 3.18-7.62 7.35-7.62 3.9 0 6.99 3.36 6.99 7.53 0 .42-.06.87-.06.9h-11.91c.36 2.91 2.61 4.74 5.31 4.74 1.65 0 3.3-.57 4.5-1.56l.99 1.68a8.94 8.94 0 01-5.52 1.92zm-5.28-8.52h9.72c-.24-2.7-2.31-4.65-4.86-4.65-2.49 0-4.53 1.92-4.86 4.65zm16.333 8.52c-.9 0-1.56-.72-1.56-1.59 0-.87.69-1.59 1.56-1.59.87 0 1.59.72 1.59 1.59a1.6 1.6 0 01-1.59 1.59z" fill="#42443C"/></svg>