<svg width="147" height="177" viewBox="0 0 147 177" fill="none" xmlns="http://www.w3.org/2000/svg"><path fill="#FCD77D" d="M17 167h102v10H17z"/><path d="M52.559 97V74.32h18.025v5.635H59.209v2.765h10.92v5.565h-10.92v3.08h11.795V97H52.559zm27.144.35c-4.095 0-6.37-1.225-7.42-2.135l2.03-4.48c1.4.945 2.695 1.505 5.425 1.505.07 0 1.75-.105 1.75-.805 0-.56-1.05-.665-2.1-.91-3.885-.945-6.755-2.52-6.755-5.81 0-3.92 3.57-5.95 7.35-5.95 3.465 0 5.53.77 7.245 1.68l-1.89 4.27c-2.065-.805-3.955-1.05-5.145-1.05-.63 0-1.12.21-1.12.56 0 .665 1.505.91 3.29 1.4 2.52.735 5.565 1.96 5.565 5.565 0 4.795-4.865 6.16-8.225 6.16zm-33.143 36c-5.39 0-6.51-3.36-6.51-7.91v-10.325h6.37v9.52c0 1.89.63 2.765 2.31 2.765 1.925 0 2.625-1.645 2.625-3.85v-8.435h6.37V133h-6.02v-1.96c-.98 1.26-3.29 2.31-5.145 2.31zm13.967-.35v-17.885h6.02v2.065c1.645-1.925 3.605-2.415 5.39-2.415 4.515 0 6.265 2.66 6.265 7.91V133h-6.37v-9.52c0-2.03-.77-2.765-1.995-2.765-1.96 0-2.94 1.645-2.94 3.85V133h-6.37zm27.618.35c-4.97 0-7.665-4.13-7.665-9.275 0-5.18 2.695-9.31 7.665-9.31 1.435 0 3.815.49 4.865 2.345v-1.995h6.02V133h-6.02v-1.995c-.98 1.82-3.43 2.345-4.865 2.345zm1.68-5.6c1.68 0 2.87-1.505 2.87-3.675 0-2.135-1.19-3.71-2.87-3.71-1.68 0-2.87 1.575-2.87 3.71 0 2.17 1.19 3.675 2.87 3.675zm-62.498 41.6c-5.425 0-10.045-3.395-10.045-9.275 0-5.18 4.025-9.31 9.31-9.31 5.075 0 8.96 4.13 8.96 9.31 0 1.085-.14 2.065-.14 2.065H23.547c.525 1.68 2.1 2.31 3.815 2.31 1.505 0 3.115-.455 4.235-1.085l2.135 4.305c-1.995 1.225-4.2 1.68-6.405 1.68zm-3.955-10.815h6.37c-.21-1.645-1.505-2.765-3.15-2.765-1.575 0-2.835 1.12-3.22 2.765zm21.211 10.815c-4.095 0-6.37-1.225-7.42-2.135l2.03-4.48c1.4.945 2.695 1.505 5.425 1.505.07 0 1.75-.105 1.75-.805 0-.56-1.05-.665-2.1-.91-3.885-.945-6.755-2.52-6.755-5.81 0-3.92 3.57-5.95 7.35-5.95 3.465 0 5.53.77 7.245 1.68l-1.89 4.27c-2.065-.805-3.955-1.05-5.145-1.05-.63 0-1.12.21-1.12.56 0 .665 1.505.91 3.29 1.4 2.52.735 5.565 1.96 5.565 5.565 0 4.795-4.865 6.16-8.225 6.16zm17.445 0c-3.43 0-5.67-2.205-5.67-6.125v-7.07h-2.625v-5.04h2.625v-3.22l6.37-1.575v4.795h3.955v5.04h-3.955v6.58c0 .84.42 1.12.98 1.12.525 0 1.155-.245 1.61-.56l1.715 4.655c-1.54 1.085-3.43 1.4-5.005 1.4zm13.983 0c-4.97 0-7.665-4.13-7.665-9.275 0-5.18 2.695-9.31 7.665-9.31 1.435 0 3.815.49 4.865 2.345v-1.995h6.02V169h-6.02v-1.995c-.98 1.82-3.43 2.345-4.865 2.345zm1.68-5.6c1.68 0 2.87-1.505 2.87-3.675 0-2.135-1.19-3.71-2.87-3.71-1.68 0-2.87 1.575-2.87 3.71 0 2.17 1.19 3.675 2.87 3.675zM90.733 169v-12.705h-2.695v-5.04h2.695v-1.12c0-3.92 2.24-6.125 5.67-6.125 1.575 0 3.465.245 5.005 1.015l-1.715 4.655a3.99 3.99 0 00-1.4-.28c-.665 0-1.19.35-1.19 1.47v.385h3.5v5.04h-3.5V169h-6.37zm18.638.35c-4.97 0-7.665-4.13-7.665-9.275 0-5.18 2.695-9.31 7.665-9.31 1.435 0 3.815.49 4.865 2.345v-1.995h6.02V169h-6.02v-1.995c-.98 1.82-3.43 2.345-4.865 2.345zm1.68-5.6c1.68 0 2.87-1.505 2.87-3.675 0-2.135-1.19-3.71-2.87-3.71-1.68 0-2.87 1.575-2.87 3.71 0 2.17 1.19 3.675 2.87 3.675zm15.736 5.6c-1.995 0-3.465-1.505-3.465-3.43 0-1.925 1.47-3.43 3.465-3.43 2.03 0 3.535 1.505 3.535 3.43 0 1.925-1.505 3.43-3.535 3.43z" fill="#42443C"/></svg>