<svg width="138" height="60" viewBox="0 0 138 60" fill="none" xmlns="http://www.w3.org/2000/svg"><rect x="1" y="1" width="136" height="58" rx="5" fill="#FFC332" stroke="#FFDC87" stroke-width="2"/><path d="M26.692 26.947V15.283h4.86c3.906 0 6.354 2.646 6.354 5.832s-2.448 5.832-6.354 5.832h-4.86zm3.42-2.898h1.314c1.746 0 2.862-1.242 2.862-2.934 0-1.674-1.116-2.934-2.862-2.934h-1.314v5.868zm9.772 2.898V15.283h9.27v2.898h-5.85v1.422h5.616v2.862h-5.616v1.584h6.066v2.898h-9.486zm14.23 0V18.18H50.46v-2.898h10.728v2.898h-3.654v8.766h-3.42zm8.78 0V15.283h9.27v2.898h-5.85v1.422h5.615v2.862h-5.616v1.584h6.066v2.898h-9.486zm2.987-12.24l1.89-3.222h3.15l-2.61 3.222h-2.43zm8.218 12.24V15.283h2.97l3.708 5.166c.27.36.522.882.522.882v-6.048h3.42v11.664h-2.97l-3.708-5.076c-.27-.36-.522-.882-.522-.882v5.958h-3.42zm17.314 0V15.283h9.27v2.898h-5.85v1.422h5.616v2.862h-5.616v1.584h6.066v2.898h-9.486zm11.205 0V15.283h3.42v8.766h6.21v2.898h-9.63zM34 46.947V35.283h9v2.898h-5.58v1.422h4.878v2.862H37.42v4.482H34zm10.432 0V35.283h5.148c3.582 0 5.418 2.07 5.418 4.608 0 1.35-.612 2.736-1.836 3.582l2.178 3.474h-3.906l-1.332-2.502c-.36.036-.558.054-.846.054h-1.404v2.448h-3.42zm3.42-5.346h1.764c1.062 0 1.764-.774 1.764-1.71 0-.954-.72-1.71-1.746-1.71h-1.782v3.42zm8.276 5.346l4.716-11.664h3.528l4.716 11.664h-3.492l-.54-1.512H60.16l-.54 1.512h-3.492zm4.95-4.14h3.06l-1.386-3.942c-.108-.288-.126-.396-.144-.468 0 0-.036.162-.144.468l-1.386 3.942zm14.13 4.356c-2.951 0-5.201-1.638-5.201-4.842v-7.038h3.42v6.84c0 1.404.81 1.944 1.782 1.944s1.782-.54 1.782-1.944v-6.84h3.42v7.038c0 3.204-2.25 4.842-5.202 4.842zm7.5-.216V35.283h4.86c3.905 0 6.353 2.646 6.353 5.832s-2.448 5.832-6.354 5.832h-4.86zm3.42-2.898h1.313c1.746 0 2.862-1.242 2.862-2.934 0-1.674-1.116-2.934-2.862-2.934h-1.314v5.868zm9.771 2.898V35.283h9.27v2.898h-5.85v1.422h5.616v2.862h-5.616v1.584h6.066v2.898h-9.486z" fill="#1F211C"/></svg>