<svg width="94" height="83" viewBox="0 0 94 83" fill="none" xmlns="http://www.w3.org/2000/svg"><path d="M56.4 3.094H12.533c-5.191 0-9.4 4.155-9.4 9.281v74.25c0 5.126 4.209 9.281 9.4 9.281H56.4c5.192 0 9.4-4.155 9.4-9.281v-74.25c0-5.126-4.208-9.281-9.4-9.281z" fill="#F2F2F2"/><path d="M65.8 12.375c0-2.462-.99-4.822-2.753-6.563A9.461 9.461 0 0056.4 3.094H12.533a9.461 9.461 0 00-6.646 2.718 9.222 9.222 0 00-2.754 6.563V24.75H65.8V12.375zM3.133 86.625c0 2.462.99 4.822 2.754 6.563a9.461 9.461 0 006.646 2.718H56.4a9.461 9.461 0 006.647-2.718 9.222 9.222 0 002.753-6.563V74.25H3.133v12.375z" fill="#C1C5C8"/><path d="M56.4 99H12.533a12.615 12.615 0 01-8.862-3.625A12.296 12.296 0 010 86.625v-74.25c0-3.282 1.32-6.43 3.67-8.75A12.615 12.615 0 0112.534 0H56.4c3.324 0 6.512 1.304 8.862 3.625a12.296 12.296 0 013.671 8.75v74.25c0 3.282-1.32 6.43-3.67 8.75A12.615 12.615 0 0156.4 99zM12.533 6.187A6.308 6.308 0 008.103 8a6.148 6.148 0 00-1.836 4.375v74.25c0 1.641.66 3.215 1.835 4.375a6.307 6.307 0 004.431 1.813H56.4A6.307 6.307 0 0060.831 91a6.148 6.148 0 001.836-4.375v-74.25c0-1.641-.66-3.215-1.836-4.375A6.308 6.308 0 0056.4 6.187H12.533z" fill="#101B31"/><path d="M34.467 18.563H21.933a3.154 3.154 0 01-2.215-.907 3.074 3.074 0 01-.918-2.187c0-.82.33-1.608.918-2.188a3.154 3.154 0 012.215-.906h12.534c.83 0 1.628.326 2.215.906.588.58.918 1.367.918 2.188 0 .82-.33 1.607-.918 2.187a3.154 3.154 0 01-2.215.907zM78.333 64.969a3.154 3.154 0 01-2.215-.906 3.074 3.074 0 01-.918-2.188v-24.75c0-.82.33-1.607.918-2.188a3.154 3.154 0 012.215-.906c.831 0 1.628.326 2.216.906.587.58.918 1.367.918 2.188v24.75c0 .82-.33 1.607-.918 2.188a3.154 3.154 0 01-2.216.906zM90.867 55.688a3.154 3.154 0 01-2.216-.906 3.074 3.074 0 01-.918-2.188v-9.281c0-.82.33-1.608.918-2.188a3.154 3.154 0 012.216-.906c.83 0 1.628.326 2.215.906.588.58.918 1.367.918 2.188v9.281c0 .82-.33 1.607-.918 2.188a3.154 3.154 0 01-2.215.906zM47 18.563c1.73 0 3.133-1.386 3.133-3.094 0-1.709-1.403-3.094-3.133-3.094s-3.133 1.385-3.133 3.094c0 1.708 1.402 3.094 3.133 3.094zM34.467 87.404c1.73 0 3.133-1.385 3.133-3.093 0-1.709-1.403-3.094-3.133-3.094s-3.134 1.385-3.134 3.094c0 1.708 1.403 3.093 3.134 3.093z" fill="#101B31"/><path d="M34.279 65.278c8.912 0 16.136-7.133 16.136-15.933 0-8.799-7.224-15.932-16.136-15.932-8.912 0-16.137 7.133-16.137 15.932 0 8.8 7.225 15.933 16.137 15.933z" fill="#C80000"/><path d="M34.279 52.068a2.788 2.788 0 001.95-.797 2.692 2.692 0 00.808-1.925v-8.137a2.69 2.69 0 00-.692-2.11 2.787 2.787 0 00-4.102 0 2.69 2.69 0 00-.69 2.11V49.5c.04.69.343 1.339.85 1.816a2.776 2.776 0 001.876.752zM34.279 60.205c1.522 0 2.757-1.22 2.757-2.723 0-1.504-1.235-2.722-2.757-2.722-1.523 0-2.758 1.218-2.758 2.722s1.235 2.723 2.758 2.723z" fill="#fff"/></svg>