<svg width="368" height="32" viewBox="0 0 368 32" fill="none" xmlns="http://www.w3.org/2000/svg"><path d="M18.52 17.561H4.282c.207 1.222.755 2.195 1.647 2.915.892.722 2.032 1.081 3.417 1.081 1.656 0 3.08-.564 4.27-1.69l3.733 1.706c-.93 1.286-2.044 2.235-3.344 2.852-1.299.617-2.84.924-4.624.924-2.77 0-5.025-.85-6.767-2.552C.873 21.096 0 18.966 0 16.405c0-2.56.87-4.802 2.605-6.535C4.341 8.138 6.52 7.273 9.14 7.273c2.78 0 5.042.868 6.784 2.597 1.742 1.733 2.614 4.021 2.614 6.867l-.016.821-.003.003zm-4.43-3.397c-.294-.958-.87-1.74-1.733-2.337-.863-.602-1.86-.902-3-.902-1.236 0-2.319.337-3.252 1.01-.586.422-1.127 1.163-1.627 2.229h9.611zM32.335 10.118l-2.742 2.67c-1.114-1.076-2.127-1.613-3.035-1.613-.497 0-.888.103-1.168.307-.284.205-.42.462-.42.766 0 .232.088.446.267.639.178.195.618.461 1.321.796l1.625.79c1.71.822 2.885 1.66 3.522 2.512.637.852.958 1.854.958 3 0 1.529-.576 2.803-1.729 3.823-1.153 1.023-2.697 1.531-4.634 1.531-2.576 0-4.63-.98-6.169-2.938l2.727-2.893a6.269 6.269 0 001.825 1.43c.697.362 1.318.545 1.86.545.585 0 1.053-.137 1.41-.41.357-.272.535-.588.535-.948 0-.663-.643-1.311-1.93-1.944l-1.493-.725c-2.857-1.401-4.284-3.156-4.284-5.26 0-1.358.538-2.521 1.615-3.485 1.076-.964 2.455-1.445 4.13-1.445 1.147 0 2.227.245 3.24.735a7.133 7.133 0 012.573 2.108l-.004.01zM36.972 20.404c.704 0 1.306.238 1.802.719.497.48.746 1.06.746 1.745a2.36 2.36 0 01-.746 1.755 2.491 2.491 0 01-1.802.725 2.497 2.497 0 01-1.803-.725 2.36 2.36 0 01-.745-1.755c0-.685.248-1.268.745-1.745a2.498 2.498 0 011.803-.72zM46.657 1.667h4.427l5.538 16.213 5.586-16.213h4.427l4.01 23.244h-4.392l-2.56-14.679-5.077 14.679h-4.01l-5.025-14.679-2.621 14.679h-4.437l4.134-23.244zM91.3 17.565H77.064c.204 1.224.755 2.195 1.647 2.917.892.72 2.032 1.082 3.42 1.082 1.656 0 3.08-.564 4.27-1.693l3.737 1.708c-.93 1.284-2.045 2.238-3.348 2.855-1.299.617-2.84.924-4.627.924-2.77 0-5.025-.85-6.77-2.551-1.743-1.702-2.615-3.832-2.615-6.39 0-2.557.866-4.801 2.605-6.53 1.739-1.73 3.917-2.599 6.535-2.599 2.78 0 5.041.868 6.783 2.598 1.742 1.736 2.615 4.02 2.615 6.864l-.016.821h-.006l.006-.006zm-4.433-3.398c-.293-.958-.873-1.739-1.733-2.337-.863-.602-1.86-.902-3-.902-1.235 0-2.318.338-3.255 1.01-.586.422-1.13 1.166-1.627 2.23h9.615zM107.526 1.08h4.433v23.826h-4.433v-1.817c-.867.8-1.733 1.38-2.602 1.73-.867.35-1.812.53-2.832.53-2.28 0-4.251-.862-5.917-2.582-1.665-1.72-2.5-3.863-2.5-6.423s.803-4.83 2.417-6.529c1.612-1.696 3.564-2.545 5.87-2.545 1.06 0 2.054.195 2.984.583.93.387 1.787.976 2.576 1.754V1.08h.004zm-4.663 10.177c-1.369 0-2.509.468-3.414 1.413-.904.943-1.36 2.152-1.36 3.627 0 1.476.462 2.706 1.382 3.664.921.958 2.055 1.436 3.405 1.436 1.35 0 2.548-.468 3.462-1.414.917-.942 1.372-2.176 1.372-3.707 0-1.532-.458-2.707-1.372-3.637-.918-.924-2.074-1.389-3.478-1.389v.007h.003zM118.227.638c.774 0 1.443.276 1.997.822.554.548.834 1.212.834 1.99a2.65 2.65 0 01-.828 1.968c-.551.54-1.207.816-1.971.816a2.782 2.782 0 01-2.016-.831 2.747 2.747 0 01-.835-2.015c0-.79.274-1.408.822-1.944a2.75 2.75 0 011.99-.806h.007zm-2.217 7.077h4.433v17.19h-4.433V7.715zM141.626 11.196l-3.688 1.978c-.691-.707-1.379-1.193-2.054-1.47-.679-.275-1.472-.412-2.382-.412-1.656 0-3 .478-4.023 1.442-1.022.961-1.535 2.195-1.535 3.698 0 1.504.491 2.654 1.481 3.584.984.924 2.28 1.389 3.886 1.389 1.98 0 3.525-.66 4.63-1.978l3.491 2.328c-1.895 2.4-4.567 3.599-8.023 3.599-3.108 0-5.538-.896-7.296-2.688-1.758-1.791-2.64-3.887-2.64-6.29a8.7 8.7 0 011.28-4.597c.857-1.398 2.051-2.502 3.58-3.304 1.529-.8 3.245-1.2 5.137-1.2 1.755 0 3.328.34 4.723 1.02a8.844 8.844 0 013.423 2.901v.007l.01-.007zM157.027 7.714h4.433v17.19h-4.433v-1.817c-.866.8-1.733 1.38-2.602 1.73a7.49 7.49 0 01-2.831.53c-2.281 0-4.252-.862-5.917-2.582-1.666-1.72-2.5-3.863-2.5-6.423s.802-4.83 2.417-6.529c1.611-1.696 3.563-2.545 5.869-2.545 1.061 0 2.054.195 2.984.583.93.387 1.787.976 2.577 1.754V7.708v.006h.003zm-4.663 3.54c-1.369 0-2.509.469-3.414 1.414-.904.943-1.359 2.152-1.359 3.627 0 1.476.461 2.706 1.382 3.664.92.958 2.054 1.436 3.404 1.436 1.351 0 2.548-.468 3.462-1.414.917-.942 1.373-2.176 1.373-3.708 0-1.53-.459-2.706-1.373-3.636-.917-.924-2.073-1.389-3.478-1.389v.007h.003zM165.22 7.715h3.799v2.167c.408-.852.959-1.503 1.64-1.944a4.046 4.046 0 012.239-.663c.573 0 1.175.146 1.803.44l-1.379 3.71c-.523-.25-.946-.377-1.281-.377-.681 0-1.258.412-1.729 1.233-.471.822-.707 2.434-.707 4.836l.016.84v6.954h-4.398V7.715h-.007.004zM193.669 17.565h-14.235c.203 1.224.754 2.195 1.646 2.917.892.72 2.032 1.082 3.421 1.082 1.656 0 3.079-.564 4.27-1.693l3.736 1.708c-.93 1.284-2.045 2.238-3.347 2.855-1.3.617-2.841.924-4.628.924-2.77 0-5.025-.85-6.77-2.551-1.742-1.702-2.615-3.832-2.615-6.39 0-2.557.866-4.801 2.605-6.53 1.739-1.73 3.917-2.599 6.535-2.599 2.78 0 5.042.868 6.784 2.598 1.742 1.736 2.614 4.02 2.614 6.864l-.016.821h-.006l.006-.006zm-4.433-3.398c-.293-.958-.872-1.739-1.732-2.337-.86-.598-1.86-.902-3-.902-1.236 0-2.319.338-3.255 1.01-.586.422-1.131 1.166-1.627 2.23h9.614zM198.237 20.407c.701 0 1.306.241 1.803.719.497.477.745 1.063.745 1.745 0 .682-.248 1.271-.745 1.755a2.497 2.497 0 01-1.803.725c-.7 0-1.306-.242-1.802-.725a2.355 2.355 0 01-.746-1.755c0-.688.249-1.265.746-1.745a2.515 2.515 0 011.802-.72zM217.037 7.715h4.417V22.44c0 2.905-.599 5.044-1.803 6.414-1.611 1.854-4.041 2.784-7.289 2.784-1.733 0-3.185-.208-4.37-.63-1.178-.42-2.178-1.038-2.984-1.856-.812-.815-1.411-1.81-1.803-2.976h4.886c.433.484.987.85 1.672 1.1.681.248 1.49.37 2.42.37 1.188 0 2.147-.18 2.873-.537.726-.36 1.236-.822 1.535-1.389.296-.57.449-1.55.449-2.939-.78.76-1.599 1.306-2.449 1.637-.857.332-1.822.5-2.908.5-2.372 0-4.372-.831-6.006-2.5-1.631-1.664-2.449-3.769-2.449-6.32 0-2.725.866-4.92 2.595-6.575 1.567-1.494 3.443-2.242 5.615-2.242 1.019 0 1.978.18 2.882.546.905.366 1.812.961 2.717 1.792V7.715zm-4.593 3.59c-1.398 0-2.547.456-3.458 1.364-.911.912-1.363 2.059-1.363 3.438 0 1.38.468 2.607 1.398 3.522.93.914 2.099 1.373 3.506 1.373 1.408 0 2.51-.446 3.398-1.342.892-.896 1.341-2.071 1.341-3.522 0-1.45-.449-2.598-1.35-3.494-.895-.895-2.054-1.342-3.472-1.342v.003zM233.954 7.276c1.666 0 3.233.409 4.701 1.218 1.465.812 2.611 1.91 3.433 3.305a8.694 8.694 0 011.232 4.504 8.875 8.875 0 01-1.242 4.55 8.8 8.8 0 01-3.385 3.308c-1.427.797-3.006 1.194-4.723 1.194-2.532 0-4.694-.877-6.487-2.632-1.793-1.755-2.688-3.881-2.688-6.389 0-2.688 1.013-4.926 3.035-6.718 1.774-1.559 3.812-2.337 6.121-2.337l.006-.006-.003.003zm.073 4.064c-1.379 0-2.522.465-3.439 1.398-.917.933-1.373 2.123-1.373 3.58 0 1.457.452 2.707 1.36 3.637.905.93 2.051 1.389 3.44 1.389 1.388 0 2.541-.469 3.461-1.408.921-.94 1.383-2.142 1.383-3.617 0-1.476-.453-2.676-1.36-3.593-.905-.921-2.061-1.386-3.472-1.386zM243.765 7.716h4.516l4.462 10.147 4.452-10.147h4.49l-7.516 17.19h-2.872l-7.535-17.19h.006-.003zM262.394 29.071L273.174.858h3.188l-10.799 28.213h-3.169zM280.986 1.526h13.223v4.34h-8.684v4.244h5.643v4.274h-5.643v10.522h-4.539V1.523v.003zM296.541 7.614h3.821V9.79c.414-.859.965-1.51 1.65-1.956a4.042 4.042 0 012.255-.667c.576 0 1.181.149 1.812.447l-1.389 3.735c-.522-.254-.952-.381-1.289-.381-.685 0-1.265.412-1.739 1.24-.475.828-.71 2.449-.71 4.864l.016.843v6.993h-4.424V7.614h-.003zM321.394 7.614h4.458v17.294h-4.458V23.08c-.87.806-1.742 1.386-2.618 1.74-.876.356-1.825.533-2.847.533-2.293 0-4.281-.865-5.953-2.598-1.675-1.733-2.512-3.887-2.512-6.46s.809-4.858 2.43-6.566c1.621-1.705 3.589-2.56 5.904-2.56 1.067 0 2.067.195 3 .588.937.394 1.8.98 2.593 1.764V7.614h.003zm-4.685 3.561c-1.379 0-2.522.475-3.433 1.423-.911.949-1.366 2.164-1.366 3.65 0 1.484.465 2.724 1.391 3.688.927.964 2.07 1.448 3.427 1.448 1.357 0 2.561-.474 3.484-1.423.924-.949 1.382-2.192 1.382-3.726 0-1.535-.461-2.722-1.382-3.655-.923-.933-2.089-1.398-3.5-1.398l-.003-.007zM330.342 7.612h4.507v8.33c0 1.62.114 2.746.344 3.378.229.63.598 1.123 1.105 1.47.506.347 1.13.524 1.876.524.745 0 1.372-.174 1.891-.518.52-.344.905-.85 1.153-1.519.185-.5.277-1.562.277-3.196V7.609h4.459v7.328c0 3.02-.245 5.087-.736 6.2-.598 1.358-1.481 2.396-2.646 3.125-1.166.725-2.647 1.088-4.443 1.088-1.949 0-3.525-.425-4.726-1.271-1.204-.846-2.048-2.03-2.538-3.543-.347-1.048-.523-2.958-.523-5.723V7.612zM363.541.935H368v23.97h-4.459v-1.83c-.869.806-1.742 1.386-2.617 1.74-.876.356-1.825.533-2.848.533-2.293 0-4.28-.865-5.952-2.598-1.675-1.733-2.513-3.887-2.513-6.46s.809-4.858 2.43-6.566c1.621-1.705 3.589-2.56 5.905-2.56 1.067 0 2.067.195 3 .588.936.394 1.799.98 2.592 1.764V.932l.003.003zm-4.684 10.237c-1.379 0-2.523.474-3.434 1.422-.91.95-1.366 2.164-1.366 3.65 0 1.484.465 2.724 1.392 3.688.927.964 2.07 1.448 3.427 1.448 1.356 0 2.56-.474 3.484-1.423.923-.949 1.382-2.192 1.382-3.726 0-1.535-.462-2.722-1.382-3.655-.924-.933-2.089-1.398-3.5-1.398l-.003-.006z" fill="#fff"/></svg>