<svg width="428" height="42" viewBox="0 0 428 42" fill="none" xmlns="http://www.w3.org/2000/svg"><path d="M.37 41V6.008h14.58c11.718 0 19.062 7.938 19.062 17.496S26.668 41 14.95 41H.37zm10.26-8.694h3.942c5.238 0 8.586-3.726 8.586-8.802 0-5.022-3.348-8.802-8.586-8.802H10.63v17.604zm44.004 9.234c-8.37 0-15.498-5.238-15.498-14.31 0-7.992 6.21-14.364 14.364-14.364 7.83 0 13.824 6.372 13.824 14.364 0 1.674-.216 3.186-.216 3.186H48.802c.81 2.592 3.24 3.564 5.886 3.564 2.322 0 4.806-.702 6.534-1.674l3.294 6.642c-3.078 1.89-6.48 2.592-9.882 2.592zm-6.102-16.686h9.828c-.324-2.538-2.322-4.266-4.86-4.266-2.43 0-4.374 1.728-4.968 4.266zm35.21 16.686c-5.292 0-8.748-3.402-8.748-9.45V21.182h-4.05v-7.776h4.05V8.438l9.828-2.43v7.398h6.102v7.776h-6.102v10.152c0 1.296.648 1.728 1.512 1.728.81 0 1.782-.378 2.484-.864l2.646 7.182c-2.376 1.674-5.292 2.16-7.722 2.16zm21.52-31.32l5.67-9.666h9.45l-7.83 9.666h-7.29zm5.346 31.32c-8.37 0-15.498-5.238-15.498-14.31 0-7.992 6.21-14.364 14.364-14.364 7.83 0 13.824 6.372 13.824 14.364 0 1.674-.216 3.186-.216 3.186h-18.306c.81 2.592 3.24 3.564 5.886 3.564 2.322 0 4.806-.702 6.534-1.674l3.294 6.642c-3.078 1.89-6.48 2.592-9.882 2.592zm-6.102-16.686h9.828c-.324-2.538-2.322-4.266-4.86-4.266-2.43 0-4.374 1.728-4.968 4.266zM128.7 41V13.406h9.288v3.186c2.538-2.97 5.562-3.726 8.316-3.726 6.966 0 9.666 4.104 9.666 12.204V41h-9.828V26.312c0-3.132-1.188-4.266-3.078-4.266-3.024 0-4.536 2.538-4.536 5.94V41H128.7zm61.493.54c-8.37 0-15.498-5.238-15.498-14.31 0-7.992 6.21-14.364 14.364-14.364 7.83 0 13.824 6.372 13.824 14.364 0 1.674-.216 3.186-.216 3.186h-18.306c.81 2.592 3.24 3.564 5.886 3.564 2.322 0 4.806-.702 6.534-1.674l3.294 6.642c-3.078 1.89-6.48 2.592-9.882 2.592zm-6.102-16.686h9.828c-.324-2.538-2.322-4.266-4.86-4.266-2.43 0-4.374 1.728-4.968 4.266zM208.285 41V5.468h9.828V41h-9.828zm30.963 0V21.398h-4.158v-7.776h4.158v-1.728c0-6.048 3.456-9.45 8.748-9.45 2.43 0 5.346.378 7.722 1.566l-2.646 7.182c-.702-.27-1.458-.432-2.16-.432-1.026 0-1.836.54-1.836 2.268v.594h5.4v7.776h-5.4V41h-9.828zm19.09 0V13.406h9.558v4.914c.162-1.188 2.538-5.454 9.018-5.454v10.692c-7.128 0-8.748 2.97-8.748 8.154V41h-9.828zm34.738.54c-7.668 0-11.826-6.372-11.826-14.31 0-7.992 4.158-14.364 11.826-14.364 2.214 0 5.886.756 7.506 3.618v-3.078h9.288V41h-9.288v-3.078c-1.512 2.808-5.292 3.618-7.506 3.618zm2.592-8.64c2.592 0 4.428-2.322 4.428-5.67 0-3.294-1.836-5.724-4.428-5.724-2.592 0-4.428 2.43-4.428 5.724 0 3.348 1.836 5.67 4.428 5.67zm29.895 8.64c-8.316 0-10.044-5.184-10.044-12.204v-15.93h9.828v14.688c0 2.916.972 4.266 3.564 4.266 2.97 0 4.05-2.538 4.05-5.94V13.406h9.828V41h-9.288v-3.024c-1.512 1.944-5.076 3.564-7.938 3.564zm34.456 0c-7.668 0-11.826-6.372-11.826-14.31 0-7.992 4.428-14.364 12.15-14.364 2.214 0 4.968.756 6.642 2.862V5.468h9.828V41h-9.288v-3.078c-1.458 2.808-5.292 3.618-7.506 3.618zm2.592-8.64c2.592 0 4.428-2.322 4.428-5.67 0-3.294-1.836-5.724-4.428-5.724-2.592 0-4.428 2.43-4.428 5.724 0 3.348 1.836 5.67 4.428 5.67zm35.079 8.64c-8.37 0-15.498-5.238-15.498-14.31 0-7.992 6.21-14.364 14.364-14.364 7.83 0 13.824 6.372 13.824 14.364 0 1.674-.216 3.186-.216 3.186h-18.306c.81 2.592 3.24 3.564 5.886 3.564 2.322 0 4.806-.702 6.534-1.674l3.294 6.642c-3.078 1.89-6.48 2.592-9.882 2.592zm-6.102-16.686h9.828c-.324-2.538-2.322-4.266-4.86-4.266-2.43 0-4.374 1.728-4.968 4.266zM421.56 41.54c-3.078 0-5.346-2.322-5.346-5.292 0-2.97 2.268-5.292 5.346-5.292 3.132 0 5.454 2.322 5.454 5.292 0 2.97-2.322 5.292-5.454 5.292z" fill="#fff"/></svg>