<svg width="249" height="49" viewBox="0 0 249 49" fill="none" xmlns="http://www.w3.org/2000/svg"><rect x="1" y="1" width="247" height="47" rx="3" fill="#FF9759" stroke="#F2B795" stroke-width="2"/><path d="M35.67 32.292l5.765-14.256h4.312l5.764 14.256h-4.268l-.66-1.848h-5.984l-.66 1.848H35.67zm6.05-5.06h3.74l-1.693-4.817c-.132-.352-.154-.485-.176-.572 0 0-.044.198-.176.572l-1.694 4.818zm11.624 5.06V18.036h6.292c4.378 0 6.622 2.53 6.622 5.633 0 3.101-2.244 5.631-6.644 5.631h-2.09v2.992h-4.18zm4.18-6.534h2.2c1.232 0 2.112-.924 2.112-2.09 0-1.165-.88-2.09-2.09-2.09h-2.222v4.18zm11.127 6.534V18.036h6.292c4.378 0 6.622 2.53 6.622 5.633 0 1.65-.748 3.343-2.244 4.378l2.662 4.245H77.21l-1.628-3.058c-.44.044-.682.066-1.034.066h-1.716v2.992h-4.18zm4.18-6.534h2.156c1.298 0 2.156-.945 2.156-2.09 0-1.165-.88-2.09-2.134-2.09h-2.178v4.18zm11.149 6.534V18.036h11.33v3.542h-7.15v1.739h6.864v3.497H88.16v1.936h7.414v3.542H83.98zm13.696 0V18.036h3.63l4.532 6.314c.33.44.638 1.078.638 1.078v-7.392h4.18v14.256h-3.63l-4.532-6.204c-.33-.44-.638-1.078-.638-1.078v7.282h-4.18zm15.844 0V18.036h5.94c4.774 0 7.766 3.234 7.766 7.128s-2.992 7.128-7.766 7.128h-5.94zm4.18-3.542h1.606c2.134 0 3.498-1.517 3.498-3.585 0-2.046-1.364-3.587-3.498-3.587H117.7v7.172zm11.944 3.542V18.036h11.33v3.542h-7.15v1.739h6.864v3.497h-6.864v1.936h7.414v3.542h-11.594zm26.118.264c-4.532 0-7.546-3.277-7.546-7.391 0-4.07 3.014-7.348 7.546-7.348 2.178 0 4.136.77 5.434 2.067l-2.75 2.838c-1.012-1.034-1.826-1.122-2.508-1.122-1.848 0-3.366 1.496-3.366 3.564 0 2.112 1.408 3.608 3.366 3.608 1.166 0 2.244-.527 3.036-1.583l2.662 2.925c-1.43 1.584-3.432 2.442-5.874 2.442zm14.579 0c-4.576 0-7.634-3.277-7.634-7.391 0-4.07 3.058-7.348 7.634-7.348 4.576 0 7.656 3.277 7.656 7.348 0 4.114-3.08 7.392-7.656 7.392zm0-3.783c1.936 0 3.3-1.497 3.3-3.608 0-2.069-1.364-3.564-3.3-3.564-1.804 0-3.278 1.495-3.278 3.564 0 2.111 1.364 3.608 3.278 3.608zm-1.87-11.44l2.31-3.938h3.85l-3.19 3.938h-2.97zm11.938 14.96V18.036h3.564l2.794 4.004c.462.681 1.21 1.848 1.21 1.848s.748-1.166 1.21-1.848l2.794-4.005h3.564v14.256h-4.18v-7.216s-.726 1.166-1.122 1.716l-2.266 3.168-2.288-3.168c-.396-.55-1.1-1.672-1.1-1.672v7.172h-4.18zm25.187.264c-4.576 0-7.634-3.279-7.634-7.393 0-4.07 3.058-7.348 7.634-7.348 4.576 0 7.656 3.279 7.656 7.349 0 4.114-3.08 7.392-7.656 7.392zm0-3.785c1.936 0 3.3-1.495 3.3-3.607 0-2.069-1.364-3.564-3.3-3.564-1.804 0-3.278 1.495-3.278 3.564 0 2.111 1.364 3.608 3.278 3.608z" fill="#101B31"/></svg>