<svg width="352" height="41" viewBox="0 0 352 41" fill="none" xmlns="http://www.w3.org/2000/svg"><path d="M5.545 34.51c-2.907 0-5.05-2.193-5.05-4.998s2.143-4.998 5.05-4.998c2.958 0 5.15 2.193 5.15 4.998s-2.192 4.998-5.15 4.998zm15.09 0c-2.906 0-5.048-2.193-5.048-4.998s2.142-4.998 5.049-4.998c2.958 0 5.15 2.193 5.15 4.998s-2.192 4.998-5.15 4.998zm15.091 0c-2.907 0-5.049-2.193-5.049-4.998s2.142-4.998 5.05-4.998c2.958 0 5.15 2.193 5.15 4.998s-2.193 4.998-5.15 4.998zm18.865 0c-7.854 0-9.486-4.896-9.486-11.526V7.939h9.282v13.872c0 2.754.918 4.029 3.366 4.029 2.805 0 3.825-2.397 3.825-5.61V7.939h9.282V34h-8.772v-2.856c-1.428 1.836-4.794 3.366-7.497 3.366zM74.944 34V7.939h8.772v3.009c2.397-2.805 5.253-3.519 7.854-3.519 6.58 0 9.129 3.876 9.129 11.526V34h-9.282V20.128c0-2.958-1.122-4.029-2.907-4.029-2.856 0-4.284 2.397-4.284 5.61V34h-9.282zm40.243.51c-7.242 0-11.169-6.018-11.169-13.515 0-7.548 3.927-13.566 11.169-13.566 2.091 0 5.559.714 7.089 3.417V7.939h8.772V34h-8.772v-2.907c-1.428 2.652-4.998 3.417-7.089 3.417zm2.448-8.16c2.448 0 4.182-2.193 4.182-5.355 0-3.111-1.734-5.406-4.182-5.406-2.448 0-4.182 2.295-4.182 5.406 0 3.162 1.734 5.355 4.182 5.355zM146.414 34V.442h9.282V34h-9.282zm13.348 0V.442h9.282V34h-9.282zm24.006.51c-7.242 0-11.169-6.018-11.169-13.515 0-7.548 3.927-13.566 11.169-13.566 2.091 0 5.559.714 7.089 3.417V7.939h8.772V34h-8.772v-2.907c-1.428 2.652-4.998 3.417-7.089 3.417zm2.448-8.16c2.448 0 4.182-2.193 4.182-5.355 0-3.111-1.734-5.406-4.182-5.406-2.448 0-4.182 2.295-4.182 5.406 0 3.162 1.734 5.355 4.182 5.355zM203.689 34V7.939h8.772v2.856c1.938-2.193 4.947-3.366 7.854-3.366 4.182 0 6.426 1.683 7.65 4.029 2.244-3.264 5.712-4.029 8.313-4.029 8.415 0 9.129 6.783 9.129 12.036V34h-9.282V20.536c0-3.111-.867-4.539-2.907-4.539-2.754 0-4.029 2.499-4.029 5.712V34h-9.282V20.536c0-3.111-.867-4.539-2.907-4.539-2.754 0-4.029 2.499-4.029 5.712V34h-9.282zm56.181.51c-7.242 0-11.169-6.018-11.169-13.515 0-7.548 3.927-13.566 11.169-13.566 2.091 0 5.559.714 7.089 3.417V7.939h8.772V34h-8.772v-2.907c-1.428 2.652-4.998 3.417-7.089 3.417zm2.448-8.16c2.448 0 4.182-2.193 4.182-5.355 0-3.111-1.734-5.406-4.182-5.406-2.448 0-4.182 2.295-4.182 5.406 0 3.162 1.734 5.355 4.182 5.355zm28.132 8.16c-7.242 0-11.169-6.018-11.169-13.515 0-7.548 4.182-13.566 11.475-13.566 2.091 0 4.692.714 6.273 2.703V.442h9.282V34h-8.772v-2.907c-1.377 2.652-4.998 3.417-7.089 3.417zm2.448-8.16c2.448 0 4.182-2.193 4.182-5.355 0-3.111-1.734-5.406-4.182-5.406-2.448 0-4.182 2.295-4.182 5.406 0 3.162 1.734 5.355 4.182 5.355zm28.132 8.16c-7.242 0-11.169-6.018-11.169-13.515 0-7.548 3.927-13.566 11.169-13.566 2.091 0 5.559.714 7.089 3.417V7.939h8.772V34h-8.772v-2.907c-1.428 2.652-4.998 3.417-7.089 3.417zm2.448-8.16c2.448 0 4.182-2.193 4.182-5.355 0-3.111-1.734-5.406-4.182-5.406-2.448 0-4.182 2.295-4.182 5.406 0 3.162 1.734 5.355 4.182 5.355zm16.555 14.637l3.468-15.708h7.905l-5.916 15.708h-5.457z" fill="#fff"/></svg>