<svg width="261" height="23" viewBox="0 0 261 23" fill="none" xmlns="http://www.w3.org/2000/svg"><path d="M13.135 12.556H3.038c.147.906.535 1.629 1.168 2.162.632.536 1.44.803 2.423.803 1.175 0 2.185-.419 3.03-1.254l2.647 1.265c-.66.955-1.45 1.659-2.372 2.116-.922.458-2.015.686-3.28.686-1.965 0-3.564-.63-4.8-1.893C.62 15.178 0 13.598 0 11.698c0-1.9.617-3.562 1.848-4.848 1.23-1.286 2.776-1.928 4.635-1.928 1.971 0 3.575.644 4.81 1.928 1.236 1.286 1.855 2.983 1.855 5.094l-.011.61-.002.002zm-3.142-2.52A3.2 3.2 0 008.763 8.3c-.611-.446-1.318-.67-2.127-.67-.876 0-1.644.252-2.306.75-.416.313-.8.863-1.154 1.654h6.817zM22.933 7.034l-1.944 1.98c-.791-.798-1.51-1.196-2.153-1.196-.352 0-.63.076-.829.228a.686.686 0 00-.108 1.042c.126.145.438.342.937.59l1.152.587c1.213.61 2.046 1.23 2.498 1.863.452.633.68 1.376.68 2.227 0 1.133-.409 2.079-1.227 2.835-.817.76-1.913 1.137-3.286 1.137-1.827 0-3.284-.727-4.375-2.18L16.21 14c.369.437.8.792 1.295 1.06.494.27.935.405 1.319.405.415 0 .747-.1 1-.303.253-.203.38-.437.38-.704 0-.492-.456-.973-1.369-1.442l-1.06-.538c-2.025-1.04-3.037-2.342-3.037-3.903 0-1.008.381-1.87 1.145-2.585.763-.716 1.741-1.072 2.93-1.072.813 0 1.578.181 2.297.545a5.113 5.113 0 011.825 1.564l-.003.007zM26.222 14.665c.5 0 .926.177 1.279.533.352.357.528.787.528 1.295 0 .508-.176.943-.528 1.302-.353.359-.78.538-1.279.538-.499 0-.924-.18-1.278-.538a1.79 1.79 0 01-.529-1.302c0-.508.176-.94.529-1.295.352-.356.78-.533 1.278-.533zM33.09.764h3.14l3.928 12.028L44.12.764h3.14l2.843 17.245H46.99l-1.816-10.89-3.6 10.89h-2.845l-3.564-10.89-1.859 10.89H30.16L33.09.764zM64.753 12.558H54.657c.144.909.535 1.629 1.168 2.165.632.533 1.44.802 2.425.802 1.175 0 2.185-.418 3.03-1.255l2.649 1.267c-.66.952-1.45 1.66-2.374 2.118-.922.458-2.015.686-3.282.686-1.965 0-3.564-.63-4.802-1.893-1.235-1.263-1.854-2.843-1.854-4.74 0-1.898.614-3.563 1.847-4.847 1.233-1.283 2.779-1.927 4.635-1.927 1.972 0 3.576.644 4.811 1.927 1.236 1.288 1.855 2.983 1.855 5.093l-.012.609h-.004l.004-.005zm-3.144-2.52a3.212 3.212 0 00-1.229-1.735c-.612-.446-1.319-.669-2.127-.669-.877 0-1.645.25-2.309.75-.415.313-.802.865-1.154 1.654h6.82zM76.262.327h3.144v17.678h-3.144v-1.348c-.615.594-1.229 1.024-1.846 1.284a5.108 5.108 0 01-2.008.393c-1.617 0-3.015-.64-4.196-1.916-1.182-1.276-1.773-2.866-1.773-4.766s.569-3.583 1.714-4.843C69.296 5.55 70.68 4.92 72.316 4.92c.752 0 1.457.145 2.116.433.66.287 1.267.724 1.828 1.302V.327h.002zm-3.307 7.551c-.971 0-1.78.347-2.421 1.049-.642.7-.965 1.596-.965 2.69 0 1.096.328 2.009.98 2.72.653.71 1.457 1.064 2.415 1.064s1.807-.347 2.455-1.048c.65-.7.974-1.615.974-2.751s-.326-2.008-.974-2.698c-.65-.685-1.47-1.03-2.466-1.03v.004h.002zM83.851 0a1.91 1.91 0 011.416.61c.393.407.592.899.592 1.476a2.01 2.01 0 01-.587 1.46c-.391.4-.856.605-1.398.605a1.93 1.93 0 01-1.43-.616 2.085 2.085 0 01-.592-1.495c0-.586.194-1.044.583-1.442.39-.398.86-.598 1.412-.598h.004zM82.28 5.25h3.144v12.754H82.28V5.251zM100.447 7.834L97.831 9.3c-.49-.524-.978-.885-1.457-1.09-.481-.205-1.043-.306-1.69-.306-1.174 0-2.127.354-2.852 1.07-.725.712-1.089 1.628-1.089 2.743 0 1.116.348 1.97 1.05 2.66.698.685 1.618 1.03 2.756 1.03 1.405 0 2.5-.49 3.284-1.468l2.476 1.728c-1.344 1.78-3.24 2.67-5.69 2.67-2.204 0-3.928-.665-5.175-1.994-1.247-1.33-1.872-2.885-1.872-4.667 0-1.235.305-2.371.908-3.41a6.522 6.522 0 012.539-2.453c1.084-.593 2.301-.89 3.643-.89 1.244 0 2.36.253 3.35.757a6.36 6.36 0 012.428 2.153v.004l.007-.004zM111.369 5.25h3.145v12.754h-3.145v-1.348c-.614.593-1.228 1.024-1.845 1.283a5.106 5.106 0 01-2.008.394c-1.617 0-3.015-.64-4.197-1.916-1.181-1.277-1.773-2.866-1.773-4.766s.569-3.583 1.715-4.844c1.142-1.258 2.527-1.888 4.162-1.888.753 0 1.457.145 2.117.433.659.287 1.267.724 1.827 1.301V5.246v.004h.002zm-3.306 2.627c-.972 0-1.78.347-2.422 1.049-.641.699-.964 1.596-.964 2.69 0 1.096.327 2.009.98 2.72.653.71 1.457 1.064 2.415 1.064.957 0 1.807-.347 2.455-1.049.65-.699.973-1.614.973-2.75 0-1.137-.325-2.008-.973-2.698-.651-.686-1.471-1.03-2.467-1.03v.004h.003zM117.181 5.25h2.694v1.608c.289-.632.68-1.115 1.164-1.442a2.774 2.774 0 011.587-.492c.407 0 .834.108 1.279.327l-.978 2.753c-.371-.186-.671-.28-.908-.28-.484 0-.892.305-1.227.915-.334.61-.501 1.805-.501 3.588l.011.623v5.159h-3.119V5.25h-.005.003zM137.358 12.558h-10.096c.144.909.535 1.629 1.168 2.165.632.533 1.441.802 2.425.802 1.175 0 2.185-.418 3.029-1.255l2.65 1.267c-.66.952-1.45 1.66-2.374 2.118-.922.458-2.015.686-3.282.686-1.965 0-3.564-.63-4.802-1.893-1.236-1.263-1.854-2.843-1.854-4.74 0-1.898.614-3.563 1.847-4.847 1.233-1.283 2.778-1.927 4.635-1.927 1.972 0 3.576.644 4.811 1.927 1.236 1.288 1.855 2.983 1.855 5.093l-.012.609h-.004l.004-.005zm-3.144-2.52a3.213 3.213 0 00-1.229-1.735c-.609-.443-1.319-.669-2.127-.669-.877 0-1.645.25-2.309.75-.415.313-.802.865-1.154 1.654h6.819zM140.597 14.667c.497 0 .926.18 1.279.534.352.354.528.788.528 1.294s-.176.944-.528 1.302a1.733 1.733 0 01-1.279.538c-.497 0-.926-.179-1.278-.538a1.79 1.79 0 01-.529-1.302c0-.51.177-.938.529-1.294a1.742 1.742 0 011.278-.534zM153.931 5.251h3.133v10.925c0 2.155-.425 3.742-1.278 4.759-1.143 1.375-2.867 2.065-5.171 2.065-1.228 0-2.258-.154-3.099-.467-.835-.313-1.545-.77-2.116-1.378-.576-.605-1.001-1.343-1.278-2.208h3.464c.308.36.701.63 1.186.817.484.184 1.057.274 1.717.274.842 0 1.522-.134 2.037-.398.515-.267.877-.61 1.089-1.03.21-.424.318-1.15.318-2.181-.553.563-1.133.968-1.736 1.214-.608.246-1.292.37-2.063.37-1.682 0-3.101-.616-4.26-1.853-1.156-1.235-1.737-2.797-1.737-4.69 0-2.022.615-3.65 1.841-4.878 1.112-1.109 2.442-1.663 3.982-1.663a5.19 5.19 0 012.045.405c.641.271 1.285.713 1.926 1.33V5.25zm-3.257 2.663c-.991 0-1.807.338-2.453 1.012-.646.677-.967 1.527-.967 2.551 0 1.024.332 1.934.992 2.613.66.678 1.488 1.019 2.487 1.019.998 0 1.78-.332 2.41-.996.632-.665.951-1.537.951-2.613s-.319-1.927-.958-2.592c-.635-.665-1.457-.996-2.462-.996v.002zM165.93 4.925c1.181 0 2.292.303 3.333.904a6.44 6.44 0 012.435 2.451 6.679 6.679 0 01.875 3.342 6.82 6.82 0 01-.881 3.377 6.39 6.39 0 01-2.401 2.454c-1.012.59-2.133.885-3.35.885-1.796 0-3.33-.65-4.601-1.952-1.272-1.302-1.907-2.88-1.907-4.74 0-1.995.719-3.655 2.153-4.985 1.258-1.157 2.704-1.734 4.341-1.734l.005-.005-.002.003zm.052 3.015c-.978 0-1.789.345-2.44 1.037-.65.693-.973 1.576-.973 2.657 0 1.08.32 2.008.964 2.698.642.69 1.455 1.03 2.44 1.03.984 0 1.802-.347 2.455-1.044.653-.697.98-1.59.98-2.684 0-1.095-.321-1.985-.964-2.666-.642-.683-1.462-1.028-2.462-1.028zM172.888 5.251h3.203l3.164 7.528 3.158-7.528h3.185l-5.331 12.754h-2.037L172.886 5.25h.004-.002z" fill="#DEEDFC"/><path d="M186.1 21.095L193.746.163h2.261l-7.66 20.932H186.1zM199.287.659h9.378v3.22h-6.16v3.148h4.003V10.2h-4.003v7.806h-3.218V.656.66zM210.318 5.175h2.711V6.79c.293-.637.684-1.12 1.17-1.451a2.773 2.773 0 011.599-.495c.409 0 .838.11 1.285.331l-.985 2.772c-.37-.189-.675-.283-.914-.283-.486 0-.897.306-1.234.92-.336.614-.503 1.817-.503 3.609l.011.625v5.19h-3.138V5.174h-.002zM227.946 5.175h3.162v12.832h-3.162V16.65c-.617.598-1.236 1.028-1.857 1.29a5.098 5.098 0 01-2.019.396c-1.627 0-3.036-.642-4.222-1.927-1.188-1.286-1.782-2.885-1.782-4.794 0-1.909.574-3.604 1.723-4.871 1.15-1.265 2.546-1.9 4.188-1.9a5.21 5.21 0 012.128.437 5.799 5.799 0 011.838 1.309V5.175h.003zm-3.323 2.643c-.978 0-1.789.352-2.435 1.056-.646.704-.969 1.605-.969 2.707 0 1.102.33 2.022.987 2.737.657.715 1.468 1.074 2.43 1.074.963 0 1.816-.352 2.472-1.056.655-.704.98-1.626.98-2.764 0-1.139-.328-2.02-.98-2.712-.656-.692-1.482-1.037-2.483-1.037l-.002-.005zM234.292 5.174h3.197v6.18c0 1.203.081 2.038.243 2.507.163.467.425.833.784 1.09.359.258.802.389 1.331.389.528 0 .973-.129 1.341-.384.369-.255.642-.63.818-1.127.131-.37.197-1.16.197-2.372V5.172h3.162v5.437c0 2.24-.174 3.774-.522 4.6-.425 1.007-1.05 1.778-1.877 2.318-.827.538-1.877.807-3.151.807-1.382 0-2.5-.315-3.352-.942-.854-.628-1.452-1.507-1.8-2.63-.246-.777-.371-2.194-.371-4.245V5.174zM257.838.22H261v17.784h-3.162v-1.357c-.617.598-1.236 1.028-1.857 1.29a5.098 5.098 0 01-2.019.396c-1.627 0-3.036-.642-4.222-1.927-1.188-1.286-1.782-2.884-1.782-4.793 0-1.91.574-3.605 1.723-4.872 1.15-1.265 2.546-1.9 4.188-1.9a5.21 5.21 0 012.128.437 5.814 5.814 0 011.839 1.31V.217l.002.003zm-3.323 7.595c-.978 0-1.789.352-2.435 1.056-.646.704-.969 1.605-.969 2.707 0 1.102.33 2.022.987 2.737.658.715 1.468 1.074 2.431 1.074.962 0 1.816-.352 2.471-1.056.655-.703.98-1.626.98-2.764 0-1.139-.327-2.02-.98-2.712-.655-.692-1.482-1.037-2.483-1.037l-.002-.005z" fill="#fff"/></svg>