<svg width="223" height="74" viewBox="0 0 223 74" fill="none" xmlns="http://www.w3.org/2000/svg"><path d="M13.449 8.832V30H6.393V8.832H.597V2.856h18.648v5.976h-5.796zm13.994 2.7v10.404c0 2.28 1.104 3.42 3.312 3.42 2.208 0 3.312-1.14 3.312-3.42V11.532h6.516v11.664c0 2.496-.828 4.368-2.484 5.616-1.632 1.248-4.08 1.872-7.344 1.872-3.264 0-5.724-.624-7.38-1.872-1.632-1.248-2.448-3.12-2.448-5.616V11.532h6.516zm9.576-8.244l-6.264 5.544L27.731 6.6 32.88.3l4.14 2.988zm27.497 13.68V30H58V16.968h-2.16v-5.436H58V5.988h6.516v5.544h3.708v5.436h-3.708zm12.557 3.744c0 .6.108 1.164.324 1.692.216.504.504.948.864 1.332.384.384.828.684 1.332.9a4.425 4.425 0 001.692.324c.576 0 1.116-.108 1.62-.324a3.735 3.735 0 001.332-.9c.384-.384.684-.828.9-1.332a3.72 3.72 0 00.36-1.62 3.72 3.72 0 00-.36-1.62 4.113 4.113 0 00-.9-1.368 3.735 3.735 0 00-1.332-.9 4.069 4.069 0 00-1.62-.324c-.6 0-1.164.108-1.692.324a4.212 4.212 0 00-1.332.9 4.55 4.55 0 00-.864 1.332 3.816 3.816 0 00-.324 1.584zm8.208-9.18h6.552V30h-6.552v-2.052c-1.392 1.752-3.276 2.628-5.652 2.628-1.344 0-2.58-.24-3.708-.72a9.173 9.173 0 01-2.952-2.088 9.803 9.803 0 01-1.98-3.132c-.456-1.2-.684-2.508-.684-3.924 0-1.32.228-2.568.684-3.744a9.63 9.63 0 011.908-3.132 8.774 8.774 0 012.916-2.088c1.128-.528 2.376-.792 3.744-.792 2.304 0 4.212.804 5.724 2.412v-1.836zm10.986 0h6.516V13.8c1.776-1.704 3.768-2.556 5.976-2.556 2.736 0 4.824 1.152 6.264 3.456 1.464-2.328 3.552-3.492 6.264-3.492.864 0 1.68.132 2.448.396.768.24 1.428.636 1.98 1.188.552.528.984 1.224 1.296 2.088.336.864.504 1.908.504 3.132V30h-6.516v-9.108c0-.936-.072-1.704-.216-2.304-.12-.6-.312-1.068-.576-1.404-.24-.336-.528-.564-.864-.684a3.187 3.187 0 00-1.08-.18c-2.088 0-3.132 1.524-3.132 4.572V30h-6.516v-9.108c0-.936-.06-1.704-.18-2.304-.12-.624-.3-1.116-.54-1.476-.216-.36-.504-.6-.864-.72-.36-.144-.78-.216-1.26-.216-.408 0-.792.06-1.152.18-.36.12-.684.36-.972.72-.264.336-.48.816-.648 1.44-.144.6-.216 1.392-.216 2.376V30h-6.516V11.532zm51.076 9.288c0-.576-.108-1.116-.324-1.62a3.692 3.692 0 00-.864-1.368 4.113 4.113 0 00-1.368-.9 3.802 3.802 0 00-1.656-.36c-.576 0-1.116.108-1.62.324a4.212 4.212 0 00-1.332.9c-.36.384-.66.84-.9 1.368a4.069 4.069 0 00-.324 1.62c0 .576.108 1.116.324 1.62.216.504.516.948.9 1.332a5.2 5.2 0 001.332.9c.528.216 1.08.324 1.656.324.576 0 1.116-.108 1.62-.324a3.81 3.81 0 001.296-.9c.384-.384.684-.828.9-1.332a3.64 3.64 0 00.36-1.584zm-8.208 18.396h-6.516V11.532h6.516v2.052c1.392-1.752 3.288-2.628 5.688-2.628 1.32 0 2.544.264 3.672.792a9.068 9.068 0 012.988 2.088 9.32 9.32 0 011.944 3.132c.48 1.2.72 2.484.72 3.852 0 1.368-.24 2.64-.72 3.816a9.402 9.402 0 01-1.944 3.096 8.774 8.774 0 01-2.916 2.088c-1.128.504-2.352.756-3.672.756-2.304 0-4.224-.792-5.76-2.376v11.016zm24.882-18.54c0 .624.108 1.2.324 1.728.24.504.54.948.9 1.332.384.384.828.684 1.332.9.528.216 1.08.324 1.656.324.576 0 1.116-.108 1.62-.324a3.735 3.735 0 001.332-.9c.384-.384.684-.828.9-1.332a4.04 4.04 0 00.36-1.692 3.72 3.72 0 00-.36-1.62 4.113 4.113 0 00-.9-1.368 3.735 3.735 0 00-1.332-.9 4.069 4.069 0 00-1.62-.324c-.576 0-1.128.108-1.656.324a4.212 4.212 0 00-1.332.9 5.2 5.2 0 00-.9 1.332 4.069 4.069 0 00-.324 1.62zm-6.876-.072c0-1.368.276-2.64.828-3.816a9.176 9.176 0 012.304-3.096c.984-.888 2.148-1.584 3.492-2.088 1.368-.504 2.856-.756 4.464-.756 1.584 0 3.048.252 4.392.756 1.368.48 2.544 1.164 3.528 2.052a8.882 8.882 0 012.34 3.132c.552 1.2.828 2.532.828 3.996s-.288 2.808-.864 4.032a9.557 9.557 0 01-2.304 3.132c-.984.864-2.172 1.536-3.564 2.016-1.368.48-2.856.72-4.464.72-1.584 0-3.048-.24-4.392-.72-1.344-.48-2.508-1.164-3.492-2.052a9.694 9.694 0 01-2.268-3.168c-.552-1.248-.828-2.628-.828-4.14zM197 17.508c-1.128-.768-2.268-1.152-3.42-1.152-.624 0-1.212.108-1.764.324a4.236 4.236 0 00-1.404.936 4.2 4.2 0 00-.972 1.404c-.216.528-.324 1.128-.324 1.8 0 .648.108 1.248.324 1.8.24.528.552.996.936 1.404.408.384.888.684 1.44.9.552.216 1.14.324 1.764.324 1.224 0 2.364-.42 3.42-1.26v5.544c-1.608.696-3.132 1.044-4.572 1.044-1.344 0-2.628-.228-3.852-.684a10.15 10.15 0 01-3.204-1.944 10.056 10.056 0 01-2.196-3.06c-.552-1.2-.828-2.532-.828-3.996s.264-2.796.792-3.996c.528-1.224 1.248-2.268 2.16-3.132a9.445 9.445 0 013.24-2.052 10.942 10.942 0 014.068-.756c1.584 0 3.048.336 4.392 1.008v5.544zm9.872 3.168c0 .624.108 1.2.324 1.728.24.504.54.948.9 1.332.384.384.828.684 1.332.9.528.216 1.08.324 1.656.324.576 0 1.116-.108 1.62-.324a3.735 3.735 0 001.332-.9c.384-.384.684-.828.9-1.332a4.04 4.04 0 00.36-1.692 3.72 3.72 0 00-.36-1.62 4.113 4.113 0 00-.9-1.368 3.735 3.735 0 00-1.332-.9 4.069 4.069 0 00-1.62-.324c-.576 0-1.128.108-1.656.324a4.212 4.212 0 00-1.332.9 5.2 5.2 0 00-.9 1.332 4.069 4.069 0 00-.324 1.62zm-6.876-.072c0-1.368.276-2.64.828-3.816a9.176 9.176 0 012.304-3.096c.984-.888 2.148-1.584 3.492-2.088 1.368-.504 2.856-.756 4.464-.756 1.584 0 3.048.252 4.392.756 1.368.48 2.544 1.164 3.528 2.052a8.882 8.882 0 012.34 3.132c.552 1.2.828 2.532.828 3.996s-.288 2.808-.864 4.032a9.557 9.557 0 01-2.304 3.132c-.984.864-2.172 1.536-3.564 2.016-1.368.48-2.856.72-4.464.72-1.584 0-3.048-.24-4.392-.72-1.344-.48-2.508-1.164-3.492-2.052a9.694 9.694 0 01-2.268-3.168c-.552-1.248-.828-2.628-.828-4.14zM29.981 63.712c0 .6.108 1.164.324 1.692.216.504.504.948.864 1.332.384.384.828.684 1.332.9a4.425 4.425 0 001.692.324c.576 0 1.116-.108 1.62-.324a3.735 3.735 0 001.332-.9c.384-.384.684-.828.9-1.332a3.72 3.72 0 00.36-1.62 3.72 3.72 0 00-.36-1.62 4.113 4.113 0 00-.9-1.368 3.735 3.735 0 00-1.332-.9 4.069 4.069 0 00-1.62-.324c-.576 0-1.128.108-1.656.324a4.212 4.212 0 00-1.332.9 5.2 5.2 0 00-.9 1.332 3.816 3.816 0 00-.324 1.584zM38.19 43.12h6.552V73H38.19v-2.052c-1.392 1.752-3.276 2.628-5.652 2.628-1.344 0-2.58-.252-3.708-.756a9.173 9.173 0 01-2.952-2.088 9.803 9.803 0 01-1.98-3.132c-.456-1.2-.684-2.496-.684-3.888 0-1.32.216-2.568.648-3.744a9.63 9.63 0 011.908-3.132 8.774 8.774 0 012.916-2.088c1.152-.528 2.412-.792 3.78-.792 2.304 0 4.212.804 5.724 2.412V43.12zm24.486 17.964c-.216-.912-.66-1.644-1.332-2.196-.672-.552-1.488-.828-2.448-.828-1.008 0-1.836.264-2.484.792-.624.528-1.02 1.272-1.188 2.232h7.452zm-7.632 3.78c0 2.808 1.32 4.212 3.96 4.212 1.416 0 2.484-.576 3.204-1.728h6.3c-1.272 4.224-4.452 6.336-9.54 6.336-1.56 0-2.988-.228-4.284-.684-1.296-.48-2.412-1.152-3.348-2.016a9.022 9.022 0 01-2.124-3.096c-.504-1.2-.756-2.544-.756-4.032 0-1.536.24-2.916.72-4.14.48-1.248 1.164-2.304 2.052-3.168.888-.864 1.956-1.524 3.204-1.98 1.272-.48 2.7-.72 4.284-.72 1.56 0 2.964.24 4.212.72 1.248.456 2.304 1.128 3.168 2.016.864.888 1.524 1.98 1.98 3.276.456 1.272.684 2.712.684 4.32v.684H55.043zm32.165-1.044c0-.576-.108-1.116-.324-1.62a4.113 4.113 0 00-.9-1.368 4.212 4.212 0 00-1.332-.9 3.802 3.802 0 00-1.656-.36c-.576 0-1.116.108-1.62.324a4.212 4.212 0 00-1.332.9c-.36.384-.66.84-.9 1.368a4.069 4.069 0 00-.324 1.62c0 .576.108 1.116.324 1.62.216.504.516.948.9 1.332a5.2 5.2 0 001.332.9c.528.216 1.08.324 1.656.324.576 0 1.116-.108 1.62-.324a3.81 3.81 0 001.296-.9c.384-.384.684-.828.9-1.332a3.64 3.64 0 00.36-1.584zM79 43.12v13.248c1.536-1.608 3.456-2.412 5.76-2.412 1.368 0 2.616.264 3.744.792 1.152.504 2.124 1.2 2.916 2.088.816.864 1.452 1.896 1.908 3.096.456 1.176.684 2.436.684 3.78 0 1.368-.24 2.652-.72 3.852a9.32 9.32 0 01-1.944 3.132 9.536 9.536 0 01-2.988 2.124c-1.128.504-2.352.756-3.672.756-2.4 0-4.296-.876-5.688-2.628V73h-6.516V43.12H79zm32.226 17.964c-.216-.912-.66-1.644-1.332-2.196-.672-.552-1.488-.828-2.448-.828-1.008 0-1.836.264-2.484.792-.624.528-1.02 1.272-1.188 2.232h7.452zm-7.632 3.78c0 2.808 1.32 4.212 3.96 4.212 1.416 0 2.484-.576 3.204-1.728h6.3c-1.272 4.224-4.452 6.336-9.54 6.336-1.56 0-2.988-.228-4.284-.684-1.296-.48-2.412-1.152-3.348-2.016a9.022 9.022 0 01-2.124-3.096c-.504-1.2-.756-2.544-.756-4.032 0-1.536.24-2.916.72-4.14.48-1.248 1.164-2.304 2.052-3.168.888-.864 1.956-1.524 3.204-1.98 1.272-.48 2.7-.72 4.284-.72 1.56 0 2.964.24 4.212.72 1.248.456 2.304 1.128 3.168 2.016.864.888 1.524 1.98 1.98 3.276.456 1.272.684 2.712.684 4.32v.684h-13.716zm17.441-10.332h6.516v3.024c.696-1.104 1.548-1.944 2.556-2.52 1.008-.6 2.184-.9 3.528-.9h.54c.216 0 .456.024.72.072v6.228a6.19 6.19 0 00-2.808-.648c-1.512 0-2.652.456-3.42 1.368-.744.888-1.116 2.196-1.116 3.924V73h-6.516V54.532zm23.25 0V73h-6.516V54.532h6.516zm3.024-8.244l-6.264 5.544-3.024-2.232 5.148-6.3 4.14 2.988zm7.477 17.424c0 .6.108 1.164.324 1.692.216.504.504.948.864 1.332.384.384.828.684 1.332.9a4.425 4.425 0 001.692.324c.576 0 1.116-.108 1.62-.324a3.735 3.735 0 001.332-.9c.384-.384.684-.828.9-1.332a3.72 3.72 0 00.36-1.62 3.72 3.72 0 00-.36-1.62 4.113 4.113 0 00-.9-1.368 3.735 3.735 0 00-1.332-.9 4.069 4.069 0 00-1.62-.324c-.6 0-1.164.108-1.692.324a4.212 4.212 0 00-1.332.9 4.55 4.55 0 00-.864 1.332 3.816 3.816 0 00-.324 1.584zm8.208-9.18h6.552V73h-6.552v-2.052c-1.392 1.752-3.276 2.628-5.652 2.628-1.344 0-2.58-.24-3.708-.72a9.173 9.173 0 01-2.952-2.088 9.803 9.803 0 01-1.98-3.132c-.456-1.2-.684-2.508-.684-3.924 0-1.32.228-2.568.684-3.744a9.63 9.63 0 011.908-3.132 8.774 8.774 0 012.916-2.088c1.128-.528 2.376-.792 3.744-.792 2.304 0 4.212.804 5.724 2.412v-1.836zm23.226 4.752c-1.2-.624-2.376-.936-3.528-.936-.6 0-1.092.12-1.476.36-.36.24-.54.564-.54.972 0 .216.024.396.072.54.072.12.204.24.396.36.216.12.516.228.9.324.408.096.936.216 1.584.36 1.8.36 3.144 1.008 4.032 1.944.888.912 1.332 2.088 1.332 3.528 0 1.08-.216 2.052-.648 2.916a6.37 6.37 0 01-1.8 2.196c-.768.576-1.692 1.02-2.772 1.332-1.08.336-2.268.504-3.564.504-2.496 0-4.956-.708-7.38-2.124l2.376-4.608c1.824 1.248 3.552 1.872 5.184 1.872.6 0 1.092-.132 1.476-.396.384-.264.576-.6.576-1.008 0-.24-.036-.432-.108-.576-.048-.168-.168-.312-.36-.432-.192-.144-.48-.264-.864-.36-.36-.12-.84-.24-1.44-.36-2.016-.408-3.432-1.008-4.248-1.8-.792-.816-1.188-1.932-1.188-3.348 0-1.032.192-1.956.576-2.772a5.739 5.739 0 011.656-2.124c.72-.576 1.584-1.02 2.592-1.332 1.032-.312 2.172-.468 3.42-.468 2.04 0 4.02.396 5.94 1.188l-2.196 4.248zm5.752 10.26c0-.576.108-1.116.324-1.62.216-.528.516-.984.9-1.368a4.212 4.212 0 011.332-.9 4.332 4.332 0 011.656-.324c.576 0 1.116.108 1.62.324.528.216.984.516 1.368.9.384.384.684.84.9 1.368.216.504.324 1.044.324 1.62 0 .576-.108 1.128-.324 1.656a4.212 4.212 0 01-.9 1.332c-.384.384-.84.684-1.368.9a4.069 4.069 0 01-1.62.324 4.332 4.332 0 01-1.656-.324 4.212 4.212 0 01-1.332-.9 4.212 4.212 0 01-.9-1.332 4.332 4.332 0 01-.324-1.656z" fill="#fff"/></svg>