<svg width="262" height="58" viewBox="0 0 262 58" fill="none" xmlns="http://www.w3.org/2000/svg"><rect x="1" y="1" width="260" height="56" rx="7" fill="#DEEDFC" stroke="#09C0CB" stroke-width="2"/><path d="M30.824 34.348h.99c.748 0 1.415-.117 2.002-.352a4.161 4.161 0 001.474-.968c.41-.41.718-.895.924-1.452.22-.572.33-1.195.33-1.87 0-.66-.11-1.276-.33-1.848a4.175 4.175 0 00-.946-1.474 4.161 4.161 0 00-1.474-.968c-.587-.235-1.247-.352-1.98-.352h-.99v9.284zm-4.312-12.936h6.38c1.13 0 2.185.227 3.168.682a8.39 8.39 0 012.596 1.826 8.164 8.164 0 011.76 2.64c.425.997.638 2.046.638 3.146a8.041 8.041 0 01-.638 3.146 8.183 8.183 0 01-1.738 2.64 8.39 8.39 0 01-2.596 1.826 7.503 7.503 0 01-3.19.682h-6.38V21.412zm27.173 3.652h-5.126v2.772h4.84v3.652h-4.84v2.86h5.126V38h-9.438V21.412h9.438v3.652zm9.84 0V38h-4.311V25.064h-3.542v-3.652h11.395v3.652h-3.541zm15.339 0h-5.127v2.772h4.84v3.652h-4.84v2.86h5.127V38h-9.439V21.412h9.439v3.652zm-.815-7.876l-4.224 2.904-1.672-1.562 3.587-3.432 2.31 2.09zM82.412 38V21.412h4.312l7.964 10.142V21.412h4.29V38h-4.29l-7.964-10.142V38h-4.312zm37.84-12.936h-5.126v2.772h4.84v3.652h-4.84v2.86h5.126V38h-9.438V21.412h9.438v3.652zm7.861-3.652v12.936h5.17V38h-9.482V21.412h4.312zm25.257 3.652h-5.192v2.772h4.73v3.652h-4.73V38h-4.312V21.412h9.504v3.652zm7.322 3.762h.814c.851 0 1.504-.176 1.958-.528.455-.352.682-.858.682-1.518s-.227-1.166-.682-1.518c-.454-.352-1.107-.528-1.958-.528h-.814v4.092zM170.174 38h-5.368l-4.114-6.38V38h-4.312V21.412h6.71c.924 0 1.731.14 2.42.418.69.264 1.254.63 1.694 1.1.455.47.792 1.012 1.012 1.628.235.616.352 1.276.352 1.98 0 1.261-.308 2.288-.924 3.08-.601.777-1.496 1.305-2.684 1.584L170.174 38zm11.264-6.16l-1.936-5.522-1.936 5.522h3.872zm1.144 3.278h-6.16l-.99 2.882h-4.598l6.314-16.588h4.708L188.17 38h-4.598l-.99-2.882zm11.754-13.706v9.02c0 .484.015.983.044 1.496.044.499.154.953.33 1.364.191.41.484.748.88 1.012.396.25.953.374 1.672.374s1.269-.125 1.65-.374c.396-.264.689-.601.88-1.012.191-.41.301-.865.33-1.364.044-.513.066-1.012.066-1.496v-9.02h4.29v9.614c0 2.581-.594 4.466-1.782 5.654-1.173 1.188-2.985 1.782-5.434 1.782-2.449 0-4.268-.594-5.456-1.782-1.188-1.188-1.782-3.073-1.782-5.654v-9.614h4.312zm18.38 12.936h.99c.748 0 1.415-.117 2.002-.352a4.167 4.167 0 001.474-.968c.41-.41.718-.895.924-1.452.22-.572.33-1.195.33-1.87 0-.66-.11-1.276-.33-1.848a4.185 4.185 0 00-.946-1.474 4.167 4.167 0 00-1.474-.968c-.587-.235-1.247-.352-1.98-.352h-.99v9.284zm-4.312-12.936h6.38c1.129 0 2.185.227 3.168.682a8.402 8.402 0 012.596 1.826 8.176 8.176 0 011.76 2.64c.425.997.638 2.046.638 3.146a8.048 8.048 0 01-.638 3.146 8.19 8.19 0 01-1.738 2.64 8.402 8.402 0 01-2.596 1.826 7.504 7.504 0 01-3.19.682h-6.38V21.412zm27.173 3.652h-5.126v2.772h4.84v3.652h-4.84v2.86h5.126V38h-9.438V21.412h9.438v3.652z" fill="#4A2B43"/></svg>