<svg width="264" height="101" viewBox="0 0 264 101" fill="none" xmlns="http://www.w3.org/2000/svg"><path d="M52.525 18.873h-9.037L41.137 24h-3.432L48.15 1.564 58.227 24H54.74l-2.215-5.127zm-1.298-2.994L48.096 8.7l-3.281 7.178h6.412zm12.14 15.367h-3.076V10.684h3.076v1.449c1.212-1.212 2.589-1.818 4.13-1.818 1.831 0 3.34.674 4.525 2.023 1.203 1.34 1.804 3.03 1.804 5.072 0 1.996-.597 3.66-1.79 4.99-1.186 1.322-2.68 1.983-4.485 1.983-1.559 0-2.953-.624-4.184-1.873v8.736zm7.315-13.822c0-1.276-.347-2.315-1.04-3.117-.701-.812-1.585-1.217-2.652-1.217-1.13 0-2.046.392-2.748 1.176-.702.784-1.053 1.813-1.053 3.09 0 1.248.351 2.278 1.053 3.09.693.792 1.604 1.189 2.735 1.189 1.066 0 1.945-.401 2.638-1.203.711-.802 1.067-1.805 1.067-3.008zm6.398-6.74h3.076v1.189c.565-.592 1.067-.998 1.504-1.217.447-.228.975-.341 1.586-.341.811 0 1.659.264 2.543.792l-1.408 2.817c-.584-.42-1.153-.63-1.71-.63-1.676 0-2.515 1.268-2.515 3.802V24H77.08V10.684zm22.408 7.382h-9.543c.082 1.094.438 1.965 1.067 2.612.629.638 1.435.957 2.42.957.765 0 1.399-.183 1.9-.547.492-.365 1.053-1.04 1.682-2.024l2.597 1.45a10.578 10.578 0 01-1.271 1.763 7.041 7.041 0 01-1.436 1.203c-.51.31-1.062.538-1.654.684a8.054 8.054 0 01-1.928.219c-1.987 0-3.582-.638-4.785-1.914-1.203-1.285-1.805-2.99-1.805-5.114 0-2.105.584-3.81 1.75-5.113 1.176-1.285 2.735-1.928 4.676-1.928 1.96 0 3.51.625 4.649 1.873 1.13 1.24 1.695 2.958 1.695 5.155l-.014.724zm-3.158-2.515c-.428-1.64-1.463-2.461-3.103-2.461-.374 0-.725.06-1.053.178-.328.109-.63.273-.903.492-.264.21-.492.465-.683.765-.191.301-.337.643-.438 1.026h6.18zm6.535-4.867h3.09v1.23c1.076-1.066 2.288-1.6 3.637-1.6 1.549 0 2.757.488 3.623 1.463.747.83 1.121 2.183 1.121 4.06V24h-3.09v-7.438c0-1.312-.182-2.219-.547-2.72-.355-.51-1.002-.766-1.941-.766-1.021 0-1.746.337-2.174 1.012-.419.665-.629 1.827-.629 3.486V24h-3.09V10.684zM128.049.908h3.09V24h-3.09v-1.395c-1.212 1.185-2.584 1.778-4.115 1.778-1.823 0-3.336-.666-4.539-1.996-1.194-1.358-1.791-3.054-1.791-5.086 0-1.987.597-3.646 1.791-4.977 1.184-1.34 2.675-2.01 4.47-2.01 1.559 0 2.953.639 4.184 1.915V.909zm-7.301 16.393c0 1.276.342 2.315 1.025 3.117.702.811 1.586 1.217 2.653 1.217 1.139 0 2.06-.392 2.762-1.176.701-.811 1.052-1.841 1.052-3.09 0-1.249-.351-2.278-1.052-3.09-.702-.793-1.614-1.19-2.735-1.19-1.057 0-1.941.402-2.652 1.204-.702.811-1.053 1.814-1.053 3.008zm26.4.765h-9.543c.083 1.094.438 1.965 1.067 2.612.629.638 1.435.957 2.42.957.765 0 1.399-.183 1.9-.547.492-.365 1.053-1.04 1.682-2.024l2.597 1.45A10.56 10.56 0 01146 22.277a7.038 7.038 0 01-1.436 1.203 5.86 5.86 0 01-1.654.684 8.053 8.053 0 01-1.928.219c-1.987 0-3.582-.638-4.785-1.914-1.203-1.285-1.804-2.99-1.804-5.114 0-2.105.583-3.81 1.75-5.113 1.175-1.285 2.734-1.928 4.675-1.928 1.96 0 3.509.625 4.649 1.873 1.13 1.24 1.695 2.958 1.695 5.155l-.014.724zm-3.158-2.515c-.428-1.64-1.463-2.461-3.103-2.461-.374 0-.725.06-1.053.178-.328.109-.629.273-.902.492-.265.21-.493.465-.684.765-.191.301-.337.643-.437 1.026h6.179zm25.539-4.293v4.088c-.702-.857-1.33-1.445-1.886-1.764-.547-.328-1.19-.492-1.928-.492-1.158 0-2.119.405-2.885 1.217-.766.81-1.148 1.827-1.148 3.048 0 1.25.369 2.275 1.107 3.077.747.802 1.7 1.203 2.857 1.203.739 0 1.39-.16 1.956-.479.546-.31 1.189-.911 1.927-1.804v4.06c-1.248.647-2.497.97-3.746.97-2.06 0-3.782-.665-5.168-1.995-1.385-1.34-2.078-3.003-2.078-4.99s.702-3.665 2.106-5.032c1.403-1.367 3.126-2.05 5.168-2.05 1.312 0 2.552.314 3.718.943zm2.352 5.988c0-1.923.688-3.56 2.064-4.908 1.377-1.35 3.054-2.023 5.032-2.023 1.987 0 3.673.678 5.058 2.037 1.367 1.358 2.051 3.026 2.051 5.003 0 1.997-.688 3.67-2.065 5.018-1.385 1.34-3.085 2.01-5.099 2.01-1.996 0-3.669-.684-5.018-2.051-1.349-1.349-2.023-3.044-2.023-5.086zm3.144.055c0 1.33.356 2.383 1.067 3.158.729.784 1.691 1.176 2.885 1.176 1.203 0 2.164-.388 2.884-1.162.72-.775 1.08-1.81 1.08-3.104s-.36-2.329-1.08-3.103c-.729-.784-1.69-1.176-2.884-1.176-1.176 0-2.129.392-2.858 1.176-.729.784-1.094 1.795-1.094 3.035zm8.573-13.18l-4.977 4.512-1.682-1.04 3.76-4.976 2.899 1.504zm5.756 6.563h3.076v1.23c.592-.62 1.098-1.039 1.517-1.258.447-.228 1.007-.341 1.682-.341 1.504 0 2.693.656 3.568 1.968.966-1.312 2.274-1.968 3.924-1.968 2.999 0 4.498 1.818 4.498 5.455V24h-3.09v-7.396c0-1.276-.155-2.179-.465-2.707-.319-.538-.843-.807-1.572-.807-.847 0-1.467.319-1.859.957-.383.638-.574 1.663-.574 3.076V24h-3.09v-7.355c0-2.37-.684-3.555-2.051-3.555-.866 0-1.499.323-1.9.97-.392.648-.588 1.668-.588 3.063V24h-3.076V10.684zm21.519 6.562c0-1.923.688-3.56 2.065-4.908 1.376-1.35 3.053-2.023 5.031-2.023 1.987 0 3.673.678 5.058 2.037 1.368 1.358 2.051 3.026 2.051 5.003 0 1.997-.688 3.67-2.064 5.018-1.386 1.34-3.086 2.01-5.1 2.01-1.996 0-3.669-.684-5.018-2.051-1.348-1.349-2.023-3.044-2.023-5.086zm3.145.055c0 1.33.355 2.383 1.066 3.158.729.784 1.691 1.176 2.885 1.176 1.203 0 2.164-.388 2.885-1.162.72-.775 1.08-1.81 1.08-3.104s-.36-2.329-1.08-3.103c-.73-.784-1.691-1.176-2.885-1.176-1.176 0-2.129.392-2.858 1.176-.729.784-1.093 1.795-1.093 3.035zM9.705 69.246H6.63V48.684h3.076v1.449c1.212-1.212 2.589-1.819 4.129-1.819 1.832 0 3.34.675 4.525 2.024 1.203 1.34 1.805 3.03 1.805 5.072 0 1.996-.597 3.66-1.791 4.99-1.185 1.322-2.68 1.983-4.484 1.983-1.559 0-2.954-.625-4.184-1.873v8.736zm7.315-13.822c0-1.276-.347-2.315-1.04-3.117-.701-.812-1.585-1.217-2.652-1.217-1.13 0-2.046.392-2.748 1.176-.702.784-1.053 1.813-1.053 3.09 0 1.248.351 2.278 1.053 3.09.693.792 1.604 1.189 2.735 1.189 1.066 0 1.945-.401 2.638-1.203.711-.802 1.067-1.805 1.067-3.008zm6.398-6.74h3.076v1.189c.565-.592 1.067-.998 1.504-1.217.447-.228.975-.341 1.586-.341.811 0 1.659.264 2.543.792l-1.408 2.817c-.584-.42-1.153-.63-1.71-.63-1.676 0-2.515 1.268-2.515 3.802V62h-3.076V48.684zm9.598 6.562c0-1.923.688-3.56 2.064-4.908 1.376-1.35 3.053-2.023 5.031-2.023 1.987 0 3.674.678 5.059 2.037 1.367 1.358 2.05 3.026 2.05 5.004 0 1.996-.687 3.668-2.064 5.017-1.385 1.34-3.085 2.01-5.1 2.01-1.995 0-3.668-.684-5.017-2.051-1.349-1.349-2.023-3.044-2.023-5.086zm3.144.055c0 1.33.356 2.383 1.067 3.158.729.784 1.69 1.176 2.884 1.176 1.204 0 2.165-.388 2.885-1.162.72-.775 1.08-1.81 1.08-3.104s-.36-2.329-1.08-3.103c-.73-.784-1.69-1.176-2.885-1.176-1.175 0-2.128.392-2.857 1.176-.73.784-1.094 1.795-1.094 3.035zm17.664-3.746V62h-3.076V51.555h-1.313v-2.871h1.313v-4.881h3.076v4.88h2.393v2.872h-2.393zm16.858 4.511h-9.543c.082 1.094.437 1.965 1.066 2.612.629.638 1.436.957 2.42.957.766 0 1.4-.182 1.9-.547.493-.365 1.053-1.04 1.682-2.023l2.598 1.449a10.59 10.59 0 01-1.272 1.763 7.041 7.041 0 01-1.435 1.203c-.51.31-1.062.538-1.655.684a8.056 8.056 0 01-1.927.219c-1.987 0-3.582-.638-4.786-1.914-1.203-1.285-1.804-2.99-1.804-5.114 0-2.105.583-3.81 1.75-5.113 1.176-1.285 2.734-1.927 4.676-1.927 1.96 0 3.509.624 4.648 1.873 1.13 1.24 1.695 2.957 1.695 5.154l-.013.724zm-3.159-2.515c-.428-1.64-1.462-2.461-3.103-2.461-.374 0-.725.06-1.053.178-.328.109-.629.273-.902.492-.265.21-.492.465-.684.765-.191.301-.337.643-.437 1.026h6.18zm19.415 8.134c0 .63-.023 1.18-.069 1.655a10.63 10.63 0 01-.164 1.271c-.219 1.003-.647 1.864-1.285 2.584-1.203 1.386-2.858 2.078-4.963 2.078-1.777 0-3.24-.478-4.389-1.435-1.184-.984-1.868-2.347-2.05-4.088h3.09c.118.656.314 1.162.587 1.518.638.829 1.568 1.244 2.79 1.244 2.25 0 3.376-1.381 3.376-4.143v-1.86c-1.221 1.25-2.63 1.874-4.224 1.874-1.814 0-3.3-.656-4.457-1.969-1.167-1.33-1.75-2.994-1.75-4.99 0-1.942.542-3.591 1.627-4.95 1.166-1.44 2.707-2.16 4.62-2.16 1.678 0 3.072.625 4.184 1.873v-1.503h3.076v13.002zm-2.954-6.316c0-1.294-.346-2.329-1.039-3.103-.701-.793-1.6-1.19-2.693-1.19-1.167 0-2.087.433-2.762 1.299-.61.775-.916 1.777-.916 3.008 0 1.212.306 2.206.916 2.98.666.848 1.586 1.272 2.762 1.272s2.105-.429 2.789-1.285c.629-.775.943-1.769.943-2.98zm18.963.697h-9.543c.082 1.094.438 1.965 1.067 2.612.629.638 1.435.957 2.42.957.765 0 1.399-.182 1.9-.547.492-.365 1.053-1.04 1.682-2.023l2.597 1.449a10.617 10.617 0 01-1.271 1.763 7.038 7.038 0 01-1.436 1.203c-.51.31-1.062.538-1.654.684a8.055 8.055 0 01-1.928.219c-1.987 0-3.582-.638-4.785-1.914-1.203-1.285-1.805-2.99-1.805-5.114 0-2.105.584-3.81 1.75-5.113 1.176-1.285 2.735-1.927 4.676-1.927 1.96 0 3.509.624 4.649 1.873 1.13 1.24 1.695 2.957 1.695 5.154l-.014.724zm-3.158-2.515c-.428-1.64-1.463-2.461-3.103-2.461-.374 0-.725.06-1.053.178-.328.109-.63.273-.902.492a3.07 3.07 0 00-.684.765c-.191.301-.337.643-.438 1.026h6.18zm6.535-4.867h3.076v1.189c.565-.592 1.067-.998 1.504-1.217.447-.228.976-.341 1.586-.341.811 0 1.659.264 2.543.792l-1.408 2.817c-.583-.42-1.153-.63-1.709-.63-1.677 0-2.516 1.268-2.516 3.802V62h-3.076V48.684zm14.656 2.87V62h-3.076V51.555h-1.312v-2.871h1.312v-4.881h3.076v4.88h2.393v2.872h-2.393zm16.858 4.512h-9.543c.082 1.094.437 1.965 1.066 2.612.629.638 1.436.957 2.42.957.766 0 1.399-.182 1.901-.547.492-.365 1.052-1.04 1.681-2.023l2.598 1.449a10.562 10.562 0 01-1.272 1.763 7.033 7.033 0 01-1.435 1.203 5.884 5.884 0 01-1.654.684 8.059 8.059 0 01-1.928.219c-1.987 0-3.582-.638-4.785-1.914-1.203-1.285-1.805-2.99-1.805-5.114 0-2.105.583-3.81 1.75-5.113 1.176-1.285 2.734-1.927 4.676-1.927 1.959 0 3.509.624 4.648 1.873 1.13 1.24 1.696 2.957 1.696 5.154l-.014.724zm-3.158-2.515c-.429-1.64-1.463-2.461-3.104-2.461-.374 0-.724.06-1.053.178a2.91 2.91 0 00-.902.492c-.264.21-.492.465-.683.765-.192.301-.338.643-.438 1.026h6.18zm25.539-4.293v4.088c-.702-.857-1.331-1.445-1.887-1.764-.547-.328-1.189-.492-1.928-.492-1.157 0-2.119.405-2.884 1.217-.766.81-1.149 1.827-1.149 3.048 0 1.25.369 2.275 1.108 3.077.747.802 1.699 1.203 2.857 1.203.738 0 1.39-.16 1.955-.479.547-.31 1.189-.911 1.928-1.804v4.06c-1.249.647-2.498.97-3.746.97-2.06 0-3.783-.665-5.168-1.995-1.386-1.34-2.078-3.004-2.078-4.99 0-1.987.701-3.665 2.105-5.032s3.126-2.05 5.168-2.05c1.312 0 2.552.314 3.719.943zm2.351 5.988c0-1.923.688-3.56 2.065-4.908 1.376-1.35 3.053-2.023 5.031-2.023 1.987 0 3.673.678 5.059 2.037 1.367 1.358 2.05 3.026 2.05 5.004 0 1.996-.688 3.668-2.064 5.017-1.385 1.34-3.085 2.01-5.1 2.01-1.996 0-3.668-.684-5.017-2.051-1.349-1.349-2.024-3.044-2.024-5.086zm3.145.055c0 1.33.355 2.383 1.066 3.158.729.784 1.691 1.176 2.885 1.176 1.203 0 2.165-.388 2.885-1.162.72-.775 1.08-1.81 1.08-3.104s-.36-2.329-1.08-3.103c-.729-.784-1.691-1.176-2.885-1.176-1.176 0-2.128.392-2.857 1.176-.73.784-1.094 1.795-1.094 3.035zm14.328-6.617h3.09v1.23c1.075-1.066 2.288-1.6 3.637-1.6 1.549 0 2.757.488 3.623 1.463.747.83 1.121 2.183 1.121 4.06V62h-3.09v-7.438c0-1.312-.182-2.219-.547-2.72-.356-.51-1.003-.766-1.941-.766-1.021 0-1.746.337-2.174 1.012-.42.665-.629 1.827-.629 3.486V62h-3.09V48.684zm18.539 2.87V62h-3.076V51.555h-1.313v-2.871h1.313v-4.881h3.076v4.88h2.393v2.872h-2.393zm4.484-2.87h3.077v1.189c.565-.592 1.066-.998 1.503-1.217.447-.228.976-.341 1.586-.341.812 0 1.659.264 2.543.792l-1.408 2.817c-.583-.42-1.153-.63-1.709-.63-1.677 0-2.515 1.268-2.515 3.802V62h-3.077V48.684zm20.098 0h3.09V62h-3.09v-1.395c-1.267 1.185-2.629 1.778-4.088 1.778-1.841 0-3.363-.666-4.566-1.996-1.194-1.358-1.791-3.054-1.791-5.086 0-1.996.597-3.66 1.791-4.99 1.194-1.331 2.689-1.996 4.484-1.996 1.55 0 2.94.638 4.17 1.913v-1.544zm-7.301 6.617c0 1.276.342 2.315 1.026 3.117.701.811 1.586 1.217 2.652 1.217 1.139 0 2.06-.392 2.762-1.176.702-.811 1.052-1.841 1.052-3.09 0-1.249-.35-2.279-1.052-3.09-.702-.793-1.614-1.19-2.735-1.19-1.057 0-1.941.402-2.652 1.204-.702.811-1.053 1.814-1.053 3.008zm35.041.765h-9.543c.082 1.094.438 1.965 1.067 2.612.629.638 1.435.957 2.42.957.765 0 1.399-.182 1.9-.547.492-.365 1.053-1.04 1.682-2.023l2.597 1.449a10.617 10.617 0 01-1.271 1.763 7.038 7.038 0 01-1.436 1.203c-.51.31-1.062.538-1.654.684a8.053 8.053 0 01-1.928.219c-1.987 0-3.582-.638-4.785-1.914-1.203-1.285-1.805-2.99-1.805-5.114 0-2.105.584-3.81 1.75-5.113 1.176-1.285 2.735-1.927 4.676-1.927 1.96 0 3.509.624 4.649 1.873 1.13 1.24 1.695 2.957 1.695 5.154l-.014.724zm-3.158-2.515c-.428-1.64-1.463-2.461-3.103-2.461-.374 0-.725.06-1.053.178-.328.109-.629.273-.902.492-.265.21-.493.465-.684.765-.192.301-.337.643-.438 1.026h6.18zm9.611-14.643V62h-3.076V38.908h3.076zM4.264 89.555V100h-3.09V89.555H.08v-2.871h1.094v-5.141c0-1.677.291-2.862.875-3.555.802-.966 1.969-1.449 3.5-1.449.547 0 1.235.16 2.064.479v3.144l-.314-.164c-.666-.337-1.212-.506-1.64-.506-.548 0-.917.196-1.108.588-.192.383-.287 1.121-.287 2.215v4.389h3.35v2.87h-3.35zm5.127-2.871h3.076v1.189c.565-.592 1.066-.998 1.504-1.217.446-.228.975-.342 1.586-.342.81 0 1.658.265 2.543.793l-1.409 2.817c-.583-.42-1.153-.63-1.709-.63-1.677 0-2.515 1.268-2.515 3.802V100H9.39V86.684zm20.097 0h3.09V100h-3.09v-1.394c-1.267 1.184-2.63 1.777-4.088 1.777-1.84 0-3.363-.666-4.566-1.996-1.194-1.358-1.791-3.054-1.791-5.086 0-1.996.597-3.66 1.791-4.99 1.194-1.331 2.689-1.997 4.484-1.997 1.55 0 2.94.639 4.17 1.915v-1.545zm-7.3 6.617c0 1.276.341 2.315 1.025 3.117.702.811 1.586 1.217 2.652 1.217 1.14 0 2.06-.392 2.762-1.176.702-.811 1.053-1.841 1.053-3.09 0-1.249-.351-2.278-1.053-3.09-.702-.793-1.613-1.19-2.734-1.19-1.058 0-1.942.402-2.653 1.204-.702.811-1.052 1.814-1.052 3.008zm17.35-6.617v7.642c0 2.206.87 3.309 2.61 3.309 1.741 0 2.612-1.103 2.612-3.309v-7.642h3.076v7.71c0 1.067-.132 1.987-.396 2.762-.256.693-.698 1.317-1.327 1.873-1.039.903-2.36 1.354-3.965 1.354-1.595 0-2.912-.451-3.95-1.354-.639-.556-1.09-1.18-1.354-1.873-.255-.62-.383-1.54-.383-2.762v-7.71h3.076zm21.997-9.776h3.09V100h-3.09v-1.394c-1.212 1.184-2.584 1.777-4.115 1.777-1.823 0-3.336-.666-4.54-1.996-1.193-1.358-1.79-3.054-1.79-5.086 0-1.987.597-3.646 1.79-4.977 1.186-1.34 2.676-2.01 4.472-2.01 1.558 0 2.953.639 4.183 1.915v-11.32zm-7.3 16.393c0 1.276.341 2.315 1.025 3.117.702.811 1.586 1.217 2.652 1.217 1.14 0 2.06-.392 2.762-1.176.702-.811 1.053-1.841 1.053-3.09 0-1.249-.351-2.278-1.053-3.09-.702-.793-1.614-1.19-2.734-1.19-1.058 0-1.942.402-2.653 1.204-.702.811-1.053 1.814-1.053 3.008zm26.4.765h-9.543c.082 1.094.437 1.965 1.066 2.612.63.638 1.436.957 2.42.957.766 0 1.4-.183 1.9-.547.493-.365 1.053-1.04 1.682-2.023l2.598 1.449a10.583 10.583 0 01-1.272 1.763 7.041 7.041 0 01-1.435 1.204c-.51.31-1.062.537-1.654.683a8.044 8.044 0 01-1.928.219c-1.987 0-3.582-.638-4.785-1.914-1.203-1.285-1.805-2.99-1.805-5.113 0-2.106.583-3.81 1.75-5.114 1.176-1.285 2.734-1.928 4.676-1.928 1.96 0 3.509.625 4.648 1.874 1.13 1.24 1.695 2.957 1.695 5.154l-.013.724zm-3.158-2.515c-.429-1.64-1.463-2.461-3.104-2.461-.374 0-.725.06-1.053.178-.328.109-.629.273-.902.492a3.07 3.07 0 00-.684.765c-.191.301-.337.643-.437 1.026h6.18zm24.992-4.867h3.09V100h-3.09v-1.394c-1.267 1.184-2.63 1.777-4.088 1.777-1.841 0-3.363-.666-4.567-1.996-1.194-1.358-1.79-3.054-1.79-5.086 0-1.996.596-3.66 1.79-4.99 1.195-1.331 2.69-1.997 4.485-1.997 1.55 0 2.939.639 4.17 1.915v-1.545zM95.168 93.3c0 1.276.342 2.315 1.025 3.117.702.811 1.586 1.217 2.653 1.217 1.139 0 2.06-.392 2.761-1.176.702-.811 1.053-1.841 1.053-3.09 0-1.249-.351-2.278-1.053-3.09-.701-.793-1.613-1.19-2.734-1.19-1.057 0-1.941.402-2.652 1.204-.702.811-1.053 1.814-1.053 3.008z" fill="#DEEDFC"/><path d="M117.401 100l3.584-21.112h5.432l4.228 11.256 4.2-11.256h5.432L143.861 100h-5.46l-1.82-12.152L131.597 100h-2.184l-4.732-12.152-1.82 12.152h-5.46zm39.194-9.268c-.168-.71-.513-1.279-1.036-1.708-.522-.43-1.157-.644-1.904-.644-.784 0-1.428.205-1.932.616-.485.41-.793.99-.924 1.736h5.796zm-5.936 2.94c0 2.184 1.027 3.276 3.08 3.276 1.102 0 1.932-.448 2.492-1.344h4.9c-.989 3.285-3.462 4.928-7.42 4.928-1.213 0-2.324-.177-3.332-.532-1.008-.373-1.876-.896-2.604-1.568a7.022 7.022 0 01-1.652-2.408c-.392-.933-.588-1.979-.588-3.136 0-1.195.187-2.268.56-3.22.374-.97.906-1.792 1.596-2.464a6.943 6.943 0 012.492-1.54c.99-.373 2.1-.56 3.332-.56 1.214 0 2.306.187 3.276.56.971.355 1.792.877 2.464 1.568.672.69 1.186 1.54 1.54 2.548.355.99.532 2.11.532 3.36v.532h-10.668zm18.269-.896c0 .467.084.905.252 1.316.168.392.392.737.672 1.036a3.28 3.28 0 001.036.7c.411.168.85.252 1.316.252.448 0 .868-.084 1.26-.252a2.902 2.902 0 001.036-.7c.299-.299.532-.644.7-1.036.187-.392.28-.812.28-1.26 0-.448-.093-.868-.28-1.26a3.194 3.194 0 00-.7-1.064 2.902 2.902 0 00-1.036-.7 3.165 3.165 0 00-1.26-.252 3.37 3.37 0 00-1.288.252 3.28 3.28 0 00-1.036.7c-.28.299-.513.644-.7 1.036a2.968 2.968 0 00-.252 1.232zm6.384-16.016h5.096V100h-5.096v-1.596c-1.082 1.363-2.548 2.044-4.396 2.044-1.045 0-2.006-.196-2.884-.588a7.145 7.145 0 01-2.296-1.624 7.642 7.642 0 01-1.54-2.436 8.457 8.457 0 01-.532-3.024c0-1.027.168-1.997.504-2.912a7.507 7.507 0 011.484-2.436 6.83 6.83 0 012.268-1.624c.896-.41 1.876-.616 2.94-.616 1.792 0 3.276.625 4.452 1.876V76.76zm13.613 8.876V100h-5.068V85.636h5.068zm-5.404-5.516c0-.392.075-.756.224-1.092.149-.355.355-.663.616-.924a2.95 2.95 0 01.896-.616c.355-.15.728-.224 1.12-.224.392 0 .756.075 1.092.224.355.15.663.355.924.616s.467.57.616.924c.149.336.224.7.224 1.092 0 .392-.075.765-.224 1.12a2.953 2.953 0 01-.616.896 2.855 2.855 0 01-.924.616c-.336.15-.7.224-1.092.224-.392 0-.765-.075-1.12-.224a2.95 2.95 0 01-.896-.616 2.953 2.953 0 01-.616-.896 2.863 2.863 0 01-.224-1.12zm19.703 10.164c-.877-.597-1.764-.896-2.66-.896-.485 0-.942.084-1.372.252-.41.168-.774.41-1.092.728a3.277 3.277 0 00-.756 1.092 3.67 3.67 0 00-.252 1.4c0 .504.084.97.252 1.4.187.41.43.775.728 1.092.318.299.691.532 1.12.7.43.168.887.252 1.372.252.952 0 1.839-.327 2.66-.98v4.312c-1.25.541-2.436.812-3.556.812a8.506 8.506 0 01-2.996-.532 7.9 7.9 0 01-2.492-1.512 7.838 7.838 0 01-1.708-2.38c-.429-.933-.644-1.97-.644-3.108 0-1.139.206-2.175.616-3.108a7.294 7.294 0 011.68-2.436 7.358 7.358 0 012.52-1.596 8.513 8.513 0 013.164-.588c1.232 0 2.371.261 3.416.784v4.312zm7.595 2.492c0 .467.084.905.252 1.316.168.392.392.737.672 1.036a3.28 3.28 0 001.036.7c.411.168.849.252 1.316.252.448 0 .868-.084 1.26-.252a2.902 2.902 0 001.036-.7c.299-.299.532-.644.7-1.036.187-.392.28-.812.28-1.26 0-.448-.093-.868-.28-1.26a3.194 3.194 0 00-.7-1.064 2.902 2.902 0 00-1.036-.7 3.165 3.165 0 00-1.26-.252c-.467 0-.905.084-1.316.252a3.28 3.28 0 00-1.036.7c-.28.299-.504.644-.672 1.036a2.968 2.968 0 00-.252 1.232zm6.384-7.14h5.096V100h-5.096v-1.596c-1.083 1.363-2.548 2.044-4.396 2.044-1.045 0-2.007-.187-2.884-.56a7.134 7.134 0 01-2.296-1.624 7.625 7.625 0 01-1.54-2.436c-.355-.933-.532-1.95-.532-3.052 0-1.027.177-1.997.532-2.912a7.49 7.49 0 011.484-2.436 6.83 6.83 0 012.268-1.624c.877-.41 1.848-.616 2.912-.616 1.792 0 3.276.625 4.452 1.876v-1.428zm8.545 0h5.068v2.352c.541-.859 1.204-1.512 1.988-1.96.784-.467 1.698-.7 2.744-.7h.42c.168 0 .354.019.56.056v4.844a4.815 4.815 0 00-2.184-.504c-1.176 0-2.063.355-2.66 1.064-.579.69-.868 1.708-.868 3.052V100h-5.068V85.636zm23.707 5.096c-.168-.71-.514-1.279-1.036-1.708-.523-.43-1.158-.644-1.904-.644-.784 0-1.428.205-1.932.616-.486.41-.794.99-.924 1.736h5.796zm-5.936 2.94c0 2.184 1.026 3.276 3.08 3.276 1.101 0 1.932-.448 2.492-1.344h4.9c-.99 3.285-3.463 4.928-7.42 4.928-1.214 0-2.324-.177-3.332-.532-1.008-.373-1.876-.896-2.604-1.568a7.009 7.009 0 01-1.652-2.408c-.392-.933-.588-1.979-.588-3.136 0-1.195.186-2.268.56-3.22.373-.97.905-1.792 1.596-2.464.69-.672 1.521-1.185 2.492-1.54.989-.373 2.1-.56 3.332-.56 1.213 0 2.305.187 3.276.56.97.355 1.792.877 2.464 1.568.672.69 1.185 1.54 1.54 2.548.354.99.532 2.11.532 3.36v.532h-10.668zm13.313 3.64c0-.448.084-.868.252-1.26.168-.41.401-.765.7-1.064a3.268 3.268 0 011.036-.7c.41-.168.84-.252 1.288-.252.448 0 .868.084 1.26.252.41.168.765.401 1.064.7.298.299.532.653.7 1.064.168.392.252.812.252 1.26 0 .448-.084.877-.252 1.288a3.208 3.208 0 01-1.764 1.736 3.165 3.165 0 01-1.26.252c-.448 0-.878-.084-1.288-.252a3.268 3.268 0 01-1.036-.7 3.271 3.271 0 01-.7-1.036 3.37 3.37 0 01-.252-1.288z" fill="#fff"/></svg>