<svg width="206" height="114" viewBox="0 0 206 114" fill="none" xmlns="http://www.w3.org/2000/svg"><path d="M.125 29 12.251 1.136h5.934L30.311 29h-6.106l-1.892-4.429H8.166L6.274 29H.125zm9.89-9.116h10.406l-3.225-7.955c-.86-2.107-1.935-4.902-1.978-4.988-.043.086-1.118 2.881-1.978 4.988l-3.225 7.955zM32.92 35.192V7.5h5.462v2.58c1.763-2.107 4.3-3.01 6.88-3.01 5.934 0 9.718 4.988 9.718 11.137 0 6.235-3.87 11.223-9.804 11.223-2.495 0-4.946-.989-6.494-2.881v8.643H32.92zm10.837-11.094c3.139 0 5.332-2.451 5.332-5.848s-2.194-5.848-5.332-5.848c-2.924 0-5.117 2.408-5.117 5.848 0 3.397 2.15 5.848 5.117 5.848zM58.704 29V7.5h5.676v4.128c.602-1.763 2.795-4.558 7.525-4.558v6.278c-4.988 0-7.44 2.279-7.44 7.396V29h-5.761zm27.304.43c-6.278 0-11.782-4.085-11.782-11.18 0-6.192 4.816-11.18 11.137-11.18 5.848 0 10.449 4.988 10.449 11.094 0 1.032-.13 2.064-.13 2.064H80.075c.688 2.967 3.139 4.386 5.977 4.386 2.064 0 4.214-.602 5.805-1.677l2.15 4.128c-2.408 1.591-5.203 2.365-7.998 2.365zm-6.02-13.029h10.406c-.43-2.709-2.58-4.515-5.203-4.515-2.494 0-4.644 1.806-5.203 4.515zM99.604 29V7.5h5.633v2.881c1.72-2.365 4.171-3.311 6.794-3.311 5.676 0 7.654 3.655 7.654 9.546V29h-5.762V17.347c0-3.139-.817-4.816-3.741-4.816-2.881 0-4.816 2.322-4.816 5.59V29h-5.762zm33.219.43c-5.934 0-9.718-4.988-9.718-11.18 0-6.192 3.87-11.18 9.804-11.18 2.494 0 4.945.989 6.493 2.838V.706h5.762V29h-5.461v-2.58c-1.548 2.064-4.3 3.01-6.88 3.01zm1.462-5.332c2.967 0 5.117-2.408 5.117-5.848 0-3.354-2.15-5.848-5.117-5.848-3.096 0-5.332 2.494-5.332 5.848 0 3.397 2.236 5.848 5.332 5.848zm26.385 5.332c-6.278 0-11.782-4.085-11.782-11.18 0-6.192 4.816-11.18 11.137-11.18 5.848 0 10.449 4.988 10.449 11.094 0 1.032-.129 2.064-.129 2.064h-15.609c.688 2.967 3.139 4.386 5.977 4.386 2.064 0 4.214-.602 5.805-1.677l2.15 4.128c-2.408 1.591-5.203 2.365-7.998 2.365zm-6.02-13.029h10.406c-.43-2.709-2.58-4.515-5.203-4.515-2.494 0-4.644 1.806-5.203 4.515zm38.137 13.029c-5.934 0-9.718-4.988-9.718-11.18 0-6.192 3.784-11.18 9.718-11.18 2.494 0 5.16.989 6.708 3.053V7.5h5.633V29h-5.633v-2.58c-1.505 2.064-4.214 3.01-6.708 3.01zm1.462-5.332c2.967 0 5.117-2.408 5.117-5.848 0-3.354-2.15-5.848-5.117-5.848-3.096 0-5.332 2.494-5.332 5.848 0 3.397 2.236 5.848 5.332 5.848zM28.913 71.43c-5.934 0-9.718-4.988-9.718-11.18 0-6.192 3.87-11.18 9.804-11.18 2.494 0 4.945.989 6.493 2.838v-9.202h5.762V71h-5.461v-2.58c-1.548 2.064-4.3 3.01-6.88 3.01zm1.462-5.332c2.967 0 5.117-2.408 5.117-5.848 0-3.354-2.15-5.848-5.117-5.848-3.096 0-5.332 2.494-5.332 5.848 0 3.397 2.236 5.848 5.332 5.848zM56.76 71.43c-6.278 0-11.782-4.085-11.782-11.18 0-6.192 4.816-11.18 11.137-11.18 5.848 0 10.45 4.988 10.45 11.094 0 1.032-.13 2.064-.13 2.064H50.826c.688 2.967 3.14 4.386 5.977 4.386 2.064 0 4.214-.602 5.805-1.677l2.15 4.128c-2.408 1.591-5.203 2.365-7.998 2.365zm-6.02-13.029h10.406c-.43-2.709-2.58-4.515-5.203-4.515-2.494 0-4.644 1.806-5.203 4.515zm27.7 13.029c-4.3 0-6.621-2.494-6.621-7.353v-9.933h-3.14V49.5h3.14v-4.128l5.762-1.29V49.5h5.934v4.644H77.58v9.847c0 1.849.903 2.451 1.935 2.451 1.376 0 2.58-.774 2.752-.903l1.634 4.257a9.908 9.908 0 0 1-5.461 1.634zm19.305 0c-6.278 0-11.782-4.085-11.782-11.18 0-6.192 4.816-11.18 11.137-11.18 5.848 0 10.449 4.988 10.449 11.094 0 1.032-.129 2.064-.129 2.064H91.81c.689 2.967 3.14 4.386 5.978 4.386 2.064 0 4.214-.602 5.805-1.677l2.15 4.128c-2.408 1.591-5.203 2.365-7.998 2.365zm-6.02-13.029h10.406c-.43-2.709-2.58-4.515-5.203-4.515-2.494 0-4.644 1.806-5.203 4.515zm30.452 13.029c-6.407 0-11.481-4.945-11.481-11.18 0-6.235 5.074-11.18 11.481-11.18 2.967 0 5.547.989 7.697 2.752l-3.483 4.042c-.989-.903-2.365-1.462-4.085-1.462-3.354 0-5.762 2.451-5.762 5.848 0 3.354 2.279 5.848 5.934 5.848 1.806 0 3.569-.688 4.687-1.763l3.053 4.3c-2.064 1.763-4.945 2.795-8.041 2.795zm19.084 0c-4.3 0-6.622-2.494-6.622-7.353v-9.933H131.5V49.5h3.139v-4.128l5.762-1.29V49.5h5.934v4.644h-5.934v9.847c0 1.849.903 2.451 1.935 2.451 1.376 0 2.58-.774 2.752-.903l1.634 4.257a9.908 9.908 0 0 1-5.461 1.634zm17.24 0c-5.934 0-9.718-4.988-9.718-11.18 0-6.192 3.784-11.18 9.718-11.18 2.494 0 5.16.989 6.708 3.053V49.5h5.633V71h-5.633v-2.58c-1.505 2.064-4.214 3.01-6.708 3.01zm1.462-5.332c2.967 0 5.117-2.408 5.117-5.848 0-3.354-2.15-5.848-5.117-5.848-3.096 0-5.332 2.494-5.332 5.848 0 3.397 2.236 5.848 5.332 5.848zM175.211 71V49.5h5.676v4.128c.602-1.763 2.795-4.558 7.525-4.558v6.278c-4.988 0-7.439 2.279-7.439 7.396V71h-5.762zM37.633 113.43c-6.278 0-11.782-4.085-11.782-11.18 0-6.192 4.816-11.18 11.137-11.18 5.848 0 10.449 4.988 10.449 11.094 0 1.032-.13 2.064-.13 2.064H31.7c.688 2.967 3.139 4.386 5.977 4.386 2.064 0 4.214-.602 5.805-1.677l2.15 4.128c-2.408 1.591-5.203 2.365-7.998 2.365zm-6.02-13.029h10.406c-.43-2.709-2.58-4.515-5.203-4.515-2.494 0-4.644 1.806-5.203 4.515zm27.27 13.029c-4.6 0-7.568-1.806-8.772-2.924l2.064-4.429c1.462 1.118 3.483 2.279 6.708 2.279 1.333 0 3.526-.516 3.526-1.806s-1.849-1.591-3.698-2.107c-4.257-1.118-7.74-2.537-7.74-6.665 0-4.386 4.3-6.708 8.342-6.708 3.526 0 5.762.86 7.998 2.15l-1.935 4.3c-2.107-1.032-4.085-1.505-5.977-1.505-1.333 0-2.58.602-2.58 1.505 0 1.204 1.806 1.591 3.784 2.021 3.655.86 7.654 2.451 7.654 6.837 0 5.289-5.375 7.052-9.374 7.052zm20.88 0c-4.3 0-6.622-2.494-6.622-7.353v-9.933h-3.139V91.5h3.14v-4.128l5.761-1.29V91.5h5.934v4.644h-5.934v9.847c0 1.849.903 2.451 1.935 2.451 1.376 0 2.58-.774 2.752-.903l1.634 4.257a9.908 9.908 0 0 1-5.46 1.634zm17.24 0c-5.934 0-9.718-4.988-9.718-11.18 0-6.192 3.784-11.18 9.718-11.18 2.494 0 5.16.989 6.708 3.053V91.5h5.633V113h-5.633v-2.58c-1.505 2.064-4.214 3.01-6.708 3.01zm1.462-5.332c2.967 0 5.117-2.408 5.117-5.848 0-3.354-2.15-5.848-5.117-5.848-3.096 0-5.332 2.494-5.332 5.848 0 3.397 2.236 5.848 5.332 5.848zM114.617 113V96.187h-3.354v-4.644h3.354v-1.419c0-4.988 2.752-7.138 6.407-7.138 1.935 0 4.085.559 5.59 1.333l-1.634 4.257c-.473-.215-1.419-.645-2.408-.645-1.204 0-2.193.602-2.193 2.838v.774h5.375v4.644h-5.375V113h-5.762zm22.237.43c-5.934 0-9.718-4.988-9.718-11.18 0-6.192 3.784-11.18 9.718-11.18 2.494 0 5.16.989 6.708 3.053V91.5h5.633V113h-5.633v-2.58c-1.505 2.064-4.214 3.01-6.708 3.01zm1.462-5.332c2.967 0 5.117-2.408 5.117-5.848 0-3.354-2.15-5.848-5.117-5.848-3.096 0-5.332 2.494-5.332 5.848 0 3.397 2.236 5.848 5.332 5.848zm22.902 5.332c-4.601 0-7.568-1.806-8.772-2.924l2.064-4.429c1.462 1.118 3.483 2.279 6.708 2.279 1.333 0 3.526-.516 3.526-1.806s-1.849-1.591-3.698-2.107c-4.257-1.118-7.74-2.537-7.74-6.665 0-4.386 4.3-6.708 8.342-6.708 3.526 0 5.762.86 7.998 2.15l-1.935 4.3c-2.107-1.032-4.085-1.505-5.977-1.505-1.333 0-2.58.602-2.58 1.505 0 1.204 1.806 1.591 3.784 2.021 3.655.86 7.654 2.451 7.654 6.837 0 5.289-5.375 7.052-9.374 7.052zm16.021 0c-1.935 0-3.397-1.505-3.397-3.354 0-1.935 1.505-3.397 3.397-3.397 1.935 0 3.44 1.462 3.44 3.397 0 1.849-1.505 3.354-3.44 3.354z" fill="#fff"/></svg>