<svg width="250" height="58" viewBox="0 0 250 58" fill="none" xmlns="http://www.w3.org/2000/svg"><rect x="1" y="1" width="248" height="56" rx="7" fill="#51B9FA" stroke="#99CAE9" stroke-width="2"/><path d="M27.161 36V22.392h5.67c4.557 0 7.413 3.087 7.413 6.804S37.388 36 32.831 36h-5.67zm3.99-3.381h1.533c2.037 0 3.339-1.449 3.339-3.423 0-1.953-1.302-3.423-3.339-3.423h-1.533v6.846zM42.971 36V22.392h10.816v3.381h-6.825v1.659h6.552v3.339h-6.552v1.848h7.077V36H42.972zm17.022 0V25.773H55.73v-3.381h12.516v3.381h-4.263V36h-3.99zm10.663 0V22.392H81.47v3.381h-6.825v1.659h6.552v3.339h-6.552v1.848h7.077V36H70.656zm3.486-14.28l2.205-3.759h3.675l-3.045 3.759h-2.835zM84.149 36V22.392h3.465l4.326 6.027c.315.42.609 1.029.609 1.029v-7.056h3.99V36h-3.465l-4.326-5.922c-.315-.42-.61-1.029-.61-1.029V36h-3.99zm21.039 0V22.392h10.815v3.381h-6.825v1.659h6.552v3.339h-6.552v1.848h7.077V36h-11.067zm13.494 0V22.392h3.99v10.227h7.245V36h-11.235zm19.255 0V22.392h10.5v3.381h-6.51v1.659h5.691v3.339h-5.691V36h-3.99zm12.591 0V22.392h6.006c4.179 0 6.321 2.415 6.321 5.376 0 1.575-.714 3.192-2.142 4.179L163.254 36h-4.557l-1.554-2.919c-.42.042-.651.063-.987.063h-1.638V36h-3.99zm3.99-6.237h2.058c1.239 0 2.058-.903 2.058-1.995 0-1.113-.84-1.995-2.037-1.995h-2.079v3.99zM164.593 36l5.502-13.608h4.116L179.713 36h-4.074l-.63-1.764h-5.712l-.63 1.764h-4.074zm5.775-4.83h3.57l-1.617-4.599c-.126-.336-.147-.462-.168-.546 0 0-.042.189-.168.546l-1.617 4.599zm16.906 5.082c-3.444 0-6.069-1.911-6.069-5.649v-8.211h3.99v7.98c0 1.638.945 2.268 2.079 2.268 1.134 0 2.079-.63 2.079-2.268v-7.98h3.99v8.211c0 3.738-2.625 5.649-6.069 5.649zm9.168-.252V22.392h5.67c4.557 0 7.413 3.087 7.413 6.804S206.669 36 202.112 36h-5.67zm3.99-3.381h1.533c2.037 0 3.339-1.449 3.339-3.423 0-1.953-1.302-3.423-3.339-3.423h-1.533v6.846zM212.253 36V22.392h10.815v3.381h-6.825v1.659h6.552v3.339h-6.552v1.848h7.077V36h-11.067z" fill="#091C29"/></svg>