<svg width="180" height="88" viewBox="0 0 180 88" fill="none" xmlns="http://www.w3.org/2000/svg"><path d="M2.022 15.29c-.87 0-1.508-.696-1.508-1.537s.667-1.537 1.508-1.537 1.537.696 1.537 1.537-.696 1.537-1.537 1.537zm5.6 0c-.87 0-1.507-.696-1.507-1.537s.667-1.537 1.508-1.537c.84 0 1.537.696 1.537 1.537s-.696 1.537-1.537 1.537zm5.601 0c-.87 0-1.508-.696-1.508-1.537s.668-1.537 1.508-1.537c.841 0 1.537.696 1.537 1.537s-.695 1.537-1.537 1.537zm10.618 0c-3.915 0-6.67-3.248-6.67-7.337 0-4.147 2.755-7.366 6.67-7.366 2.262 0 4.263.928 5.307 2.755V.877h2.204V15h-2.204v-2.465c-1.044 1.856-3.045 2.755-5.307 2.755zm.493-2.146c2.697 0 4.814-2.233 4.814-5.191 0-2.958-2.117-5.22-4.814-5.22-2.813 0-4.9 2.204-4.9 5.22 0 2.987 2.087 5.191 4.9 5.191zM40.79 15V.877h2.204v2.436c.783-1.537 2.552-2.726 4.524-2.726 2.262 0 3.857.986 4.524 2.987 1.015-2.059 3.22-2.987 4.872-2.987 3.393 0 5.191 1.972 5.191 5.858V15h-2.233V6.735c0-2.407-.84-4.002-3.422-4.002-2.378 0-3.886 1.914-3.886 4.031V15h-2.233V6.735c0-2.407-.84-4.002-3.393-4.002-2.465 0-3.944 2.088-3.944 4.147V15H40.79zm31.277.29c-4.002 0-7.395-2.871-7.395-7.337 0-4.089 3.074-7.366 7.105-7.366 3.77 0 6.757 3.248 6.757 7.279 0 .406-.058.841-.058.87H66.963c.348 2.813 2.523 4.582 5.133 4.582 1.595 0 3.19-.551 4.35-1.508l.957 1.624a8.642 8.642 0 01-5.336 1.856zm-5.104-8.236h9.396c-.232-2.61-2.233-4.495-4.698-4.495-2.407 0-4.379 1.856-4.698 4.495zM81.388 15V.877h2.204v2.407c.986-1.711 2.813-2.697 4.901-2.697 3.538 0 5.104 2.146 5.104 5.858V15h-2.204V6.735c0-2.61-.957-4.002-3.509-4.002-2.523 0-4.292 1.972-4.292 4.321V15h-2.204zm22.243.29c-4.147 0-7.424-3.248-7.424-7.337 0-4.118 3.278-7.366 7.424-7.366 4.147 0 7.424 3.248 7.424 7.366 0 4.089-3.277 7.337-7.424 7.337zm0-2.146c2.929 0 5.162-2.233 5.162-5.191 0-2.987-2.233-5.22-5.162-5.22s-5.162 2.233-5.162 5.22c0 2.958 2.233 5.191 5.162 5.191zm15.011 2.146c-2.871 0-4.698-1.305-5.51-2.146l.899-1.798c1.044 1.015 2.552 1.856 4.611 1.856 1.943 0 3.538-.899 3.538-2.175 0-1.479-1.711-1.885-3.422-2.32-2.61-.667-4.988-1.392-4.988-4.089 0-2.552 2.668-4.031 5.046-4.031 1.943 0 3.364.522 4.814 1.508l-.87 1.798c-1.189-.812-2.436-1.218-3.915-1.218-1.45 0-2.813.812-2.813 1.914 0 1.392 1.566 1.711 3.219 2.059 2.552.58 5.191 1.537 5.191 4.321 0 2.987-3.045 4.321-5.8 4.321zm25.97 3.799v-6.554c-1.044 1.827-3.045 2.755-5.307 2.755-3.915 0-6.67-3.248-6.67-7.366 0-4.118 2.755-7.337 6.67-7.337 2.291 0 4.35.899 5.394 2.726V.877h2.117v18.212h-2.204zm-4.814-5.945c2.697 0 4.814-2.262 4.814-5.22 0-2.958-2.117-5.191-4.814-5.191-2.813 0-4.901 2.204-4.901 5.191 0 3.016 2.088 5.22 4.901 5.22zm15.332 2.146c-3.48 0-5.133-1.827-5.133-5.597V.877h2.204v8.526c0 2.639 1.276 3.741 3.567 3.741 2.552 0 4.031-2.088 4.031-4.263V.877h2.204V15h-2.117v-2.494c-.87 1.827-2.9 2.784-4.756 2.784zm17.115 0c-4.002 0-7.395-2.871-7.395-7.337 0-4.089 3.074-7.366 7.105-7.366 3.77 0 6.757 3.248 6.757 7.279 0 .406-.058.841-.058.87h-11.513c.348 2.813 2.523 4.582 5.133 4.582 1.595 0 3.19-.551 4.35-1.508l.957 1.624a8.642 8.642 0 01-5.336 1.856zm-5.104-8.236h9.396c-.232-2.61-2.233-4.495-4.698-4.495-2.407 0-4.379 1.856-4.698 4.495zM76.099 87.089V68.877h2.117v2.436c1.044-1.827 3.103-2.726 5.394-2.726 3.915 0 6.67 3.219 6.67 7.337s-2.755 7.366-6.67 7.366c-2.233 0-4.263-.928-5.307-2.755v6.554h-2.204zm7.018-5.945c2.813 0 4.9-2.204 4.9-5.22 0-2.987-2.087-5.191-4.9-5.191-2.697 0-4.814 2.233-4.814 5.191 0 2.958 2.117 5.22 4.814 5.22zM93.113 83V68.877h2.204v2.987c.812-1.856 2.639-3.277 5.452-3.277v2.407c-3.306 0-5.452 1.856-5.452 5.307V83h-2.204zm9.905 0V68.877h2.204V83h-2.204zm1.102-16.646c-.812 0-1.45-.638-1.45-1.45 0-.812.638-1.479 1.45-1.479.812 0 1.479.667 1.479 1.479s-.667 1.45-1.479 1.45zM108.647 83V68.877h2.204v2.436c.783-1.537 2.552-2.726 4.524-2.726 2.262 0 3.857.986 4.524 2.987 1.015-2.059 3.219-2.987 4.872-2.987 3.393 0 5.191 1.972 5.191 5.858V83h-2.233v-8.265c0-2.407-.841-4.002-3.422-4.002-2.378 0-3.886 1.914-3.886 4.031V83h-2.233v-8.265c0-2.407-.841-4.002-3.393-4.002-2.465 0-3.944 2.088-3.944 4.147V83h-2.204zm31.277.29c-4.002 0-7.395-2.871-7.395-7.337 0-4.089 3.074-7.366 7.105-7.366 3.77 0 6.757 3.248 6.757 7.279 0 .406-.058.841-.058.87H134.82c.348 2.813 2.523 4.582 5.133 4.582 1.595 0 3.19-.551 4.35-1.508l.957 1.624a8.642 8.642 0 01-5.336 1.856zm-5.104-8.236h9.396c-.232-2.61-2.233-4.495-4.698-4.495-2.407 0-4.379 1.856-4.698 4.495zM149.245 83V68.877h2.204v2.987c.812-1.856 2.639-3.277 5.452-3.277v2.407c-3.306 0-5.452 1.856-5.452 5.307V83h-2.204zm16.466.29c-4.147 0-7.424-3.248-7.424-7.337 0-4.118 3.277-7.366 7.424-7.366s7.424 3.248 7.424 7.366c0 4.089-3.277 7.337-7.424 7.337zm0-2.146c2.929 0 5.162-2.233 5.162-5.191 0-2.987-2.233-5.22-5.162-5.22s-5.162 2.233-5.162 5.22c0 2.958 2.233 5.191 5.162 5.191zm11.327 2.146c-.87 0-1.508-.696-1.508-1.537s.667-1.537 1.508-1.537 1.537.696 1.537 1.537-.696 1.537-1.537 1.537z" fill="#275D80"/><path d="M25.304 49.29c-2.9 0-4.466-1.682-4.466-4.959v-6.699H18.72V34.5h2.117v-2.784l3.886-.87V34.5h4.002v3.132h-4.002v6.641c0 1.247.609 1.653 1.305 1.653.928 0 1.74-.522 1.856-.609l1.102 2.871a6.682 6.682 0 01-3.683 1.102zm9.305-16.762l2.725-4.553h3.857l-3.393 4.553h-3.19zM35.68 49.29c-4.001 0-5.277-2.349-5.277-6.119V34.5h3.885v8.149c0 2.03.87 2.958 2.669 2.958 2.03 0 3.016-1.711 3.016-3.683V34.5h3.886V49h-3.654v-2.03c-.87 1.421-2.843 2.32-4.525 2.32zM52.599 49V29.918h3.886V49h-3.886zm13.871.29c-4.32 0-7.743-3.335-7.743-7.54s3.422-7.54 7.743-7.54c4.35 0 7.772 3.335 7.772 7.54s-3.422 7.54-7.772 7.54zm0-3.596c2.175 0 3.8-1.653 3.8-3.944 0-2.262-1.625-3.944-3.8-3.944s-3.799 1.682-3.799 3.944c0 2.291 1.624 3.944 3.8 3.944zm15.095 3.596c-3.103 0-5.104-1.218-5.916-1.972l1.392-2.987c.986.754 2.349 1.537 4.524 1.537.899 0 2.378-.348 2.378-1.218s-1.247-1.073-2.494-1.421c-2.871-.754-5.22-1.711-5.22-4.495 0-2.958 2.9-4.524 5.626-4.524 2.378 0 3.886.58 5.394 1.45l-1.305 2.9c-1.421-.696-2.755-1.015-4.031-1.015-.9 0-1.74.406-1.74 1.015 0 .812 1.218 1.073 2.552 1.363 2.465.58 5.162 1.653 5.162 4.611 0 3.567-3.625 4.756-6.322 4.756zM95.986 49V29.918h3.886V49h-3.886zm6.563 0V29.918h3.886V49h-3.886zm12.683.29c-4.002 0-6.554-3.364-6.554-7.54s2.552-7.54 6.554-7.54c1.682 0 3.48.667 4.524 2.059V34.5h3.799V49h-3.799v-1.74c-1.015 1.392-2.842 2.03-4.524 2.03zm.986-3.596c2.001 0 3.451-1.624 3.451-3.944 0-2.262-1.45-3.944-3.451-3.944-2.088 0-3.596 1.682-3.596 3.944 0 2.291 1.508 3.944 3.596 3.944zM126.211 49V34.5h3.799v1.943c.841-1.305 2.552-2.233 4.292-2.233 2.291 0 3.712.957 4.466 2.581 1.044-1.74 3.045-2.581 4.698-2.581 4.089 0 5.365 2.813 5.365 6.525V49h-3.886v-7.772c0-1.914-.464-3.335-2.523-3.335-1.914 0-2.958 1.537-2.958 3.451V49h-3.886v-7.772c0-1.914-.435-3.335-2.523-3.335-1.972 0-2.958 1.682-2.958 3.596V49h-3.886zm32.596.29c-4.234 0-7.946-2.755-7.946-7.54 0-4.176 3.248-7.54 7.511-7.54 3.944 0 7.047 3.364 7.047 7.482 0 .696-.087 1.392-.087 1.392h-10.527c.464 2.001 2.117 2.958 4.031 2.958 1.392 0 2.842-.406 3.915-1.131l1.45 2.784c-1.624 1.073-3.509 1.595-5.394 1.595zm-4.06-8.787h7.018c-.29-1.827-1.74-3.045-3.509-3.045-1.682 0-3.132 1.218-3.509 3.045zm18.102 8.787c-3.103 0-5.104-1.218-5.916-1.972l1.392-2.987c.986.754 2.349 1.537 4.524 1.537.899 0 2.378-.348 2.378-1.218s-1.247-1.073-2.494-1.421c-2.871-.754-5.22-1.711-5.22-4.495 0-2.958 2.9-4.524 5.626-4.524 2.378 0 3.886.58 5.394 1.45l-1.305 2.9c-1.421-.696-2.755-1.015-4.031-1.015-.899 0-1.74.406-1.74 1.015 0 .812 1.218 1.073 2.552 1.363 2.465.58 5.162 1.653 5.162 4.611 0 3.567-3.625 4.756-6.322 4.756z" fill="#091C29"/></svg>