<svg width="240" height="109" viewBox="0 0 240 109" fill="none" xmlns="http://www.w3.org/2000/svg"><path d="M1.548 28v-6.552h6.66V28h-6.66zm10.169 0v-6.552h6.66V28h-6.66zm10.168 0v-6.552h6.66V28h-6.66zm21.367 7.776V14.68a43.54 43.54 0 00-.288-4.968h6.192l.396 3.24h-.36c.336-1.08 1.08-1.956 2.232-2.628 1.152-.672 2.436-1.008 3.852-1.008 1.584 0 2.976.384 4.176 1.152 1.2.744 2.136 1.836 2.808 3.276.696 1.416 1.044 3.12 1.044 5.112 0 1.968-.348 3.672-1.044 5.112-.672 1.44-1.608 2.544-2.808 3.312-1.2.744-2.592 1.116-4.176 1.116-1.392 0-2.652-.312-3.78-.936-1.128-.648-1.872-1.5-2.232-2.556h.396v10.872h-6.408zm9.972-12.132c1.104 0 1.98-.372 2.628-1.116.672-.768 1.008-1.992 1.008-3.672 0-1.68-.336-2.892-1.008-3.636-.648-.768-1.524-1.152-2.628-1.152-1.08 0-1.956.384-2.628 1.152-.672.744-1.008 1.956-1.008 3.636 0 1.68.336 2.904 1.008 3.672.672.744 1.548 1.116 2.628 1.116zM66.78 28V9.712h6.408V28H66.78zm-.144-20.88V1.36h6.732v5.76h-6.732zm18.147 21.276c-1.56 0-2.952-.372-4.176-1.116-1.224-.768-2.184-1.872-2.88-3.312-.696-1.44-1.044-3.144-1.044-5.112 0-1.992.336-3.696 1.008-5.112.696-1.44 1.656-2.532 2.88-3.276 1.248-.768 2.652-1.152 4.212-1.152 1.392 0 2.652.324 3.78.972 1.128.624 1.884 1.464 2.268 2.52h-.54V1.504H96.7V28h-6.3v-3.276h.468c-.336 1.104-1.08 1.992-2.232 2.664-1.128.672-2.412 1.008-3.852 1.008zm2.052-4.752c1.056 0 1.92-.372 2.592-1.116.696-.768 1.044-1.992 1.044-3.672 0-1.68-.348-2.892-1.044-3.636-.672-.768-1.536-1.152-2.592-1.152-1.08 0-1.968.384-2.664 1.152-.672.744-1.008 1.956-1.008 3.636 0 1.68.336 2.904 1.008 3.672.696.744 1.584 1.116 2.664 1.116zM101.04 28V9.712h6.408V28h-6.408zm-.144-20.88V1.36h6.732v5.76h-6.732zm20.523 21.276c-3.312 0-5.892-.852-7.74-2.556-1.824-1.704-2.736-4.044-2.736-7.02 0-1.848.384-3.492 1.152-4.932.768-1.44 1.848-2.556 3.24-3.348 1.392-.816 3.024-1.224 4.896-1.224 1.848 0 3.384.408 4.608 1.224 1.248.792 2.184 1.896 2.808 3.312.624 1.392.936 3.012.936 4.86v1.368h-12.276v-3.024h7.56l-.612.504c0-1.368-.264-2.376-.792-3.024-.504-.672-1.224-1.008-2.16-1.008-1.08 0-1.908.408-2.484 1.224-.552.792-.828 1.992-.828 3.6V19c0 1.608.396 2.784 1.188 3.528.792.744 1.932 1.116 3.42 1.116.96 0 1.86-.108 2.7-.324a8.47 8.47 0 002.448-1.044l1.656 4.176c-.912.624-1.968 1.104-3.168 1.44-1.2.336-2.472.504-3.816.504zm-3.24-20.448l3.636-7.38h6.012l-5.544 7.38h-4.104zM131.993 28V14.68a43.54 43.54 0 00-.288-4.968h6.192l.36 3.168h-.396c.6-1.152 1.452-2.028 2.556-2.628 1.104-.624 2.352-.936 3.744-.936 2.136 0 3.732.636 4.788 1.908 1.08 1.248 1.62 3.204 1.62 5.868V28h-6.408V17.38c0-1.176-.204-1.992-.612-2.448-.408-.48-.996-.72-1.764-.72-1.008 0-1.824.336-2.448 1.008-.624.648-.936 1.512-.936 2.592V28h-6.408zm30.062.396c-1.56 0-2.952-.372-4.176-1.116-1.224-.768-2.184-1.872-2.88-3.312-.696-1.44-1.044-3.144-1.044-5.112 0-1.992.336-3.696 1.008-5.112.696-1.44 1.656-2.532 2.88-3.276 1.248-.768 2.652-1.152 4.212-1.152 1.392 0 2.652.324 3.78.972 1.128.624 1.884 1.464 2.268 2.52h-.54V1.504h6.408V28h-6.3v-3.276h.468c-.336 1.104-1.08 1.992-2.232 2.664-1.128.672-2.412 1.008-3.852 1.008zm2.052-4.752c1.056 0 1.92-.372 2.592-1.116.696-.768 1.044-1.992 1.044-3.672 0-1.68-.348-2.892-1.044-3.636-.672-.768-1.536-1.152-2.592-1.152-1.08 0-1.968.384-2.664 1.152-.672.744-1.008 1.956-1.008 3.636 0 1.68.336 2.904 1.008 3.672.696.744 1.584 1.116 2.664 1.116zm23.348 4.752c-2.04 0-3.804-.384-5.292-1.152-1.488-.768-2.64-1.86-3.456-3.276-.816-1.44-1.224-3.144-1.224-5.112 0-1.992.408-3.696 1.224-5.112.816-1.416 1.968-2.508 3.456-3.276 1.488-.768 3.252-1.152 5.292-1.152 2.016 0 3.768.384 5.256 1.152a8.217 8.217 0 013.456 3.312c.816 1.416 1.224 3.108 1.224 5.076 0 1.944-.408 3.636-1.224 5.076a8.217 8.217 0 01-3.456 3.312c-1.488.768-3.24 1.152-5.256 1.152zm0-4.752c1.056 0 1.896-.372 2.52-1.116.624-.768.936-1.992.936-3.672 0-1.68-.312-2.892-.936-3.636-.624-.768-1.464-1.152-2.52-1.152-1.08 0-1.932.384-2.556 1.152-.624.744-.936 1.956-.936 3.636 0 1.68.312 2.904.936 3.672.624.744 1.476 1.116 2.556 1.116zm22.619 4.752c-2.592 0-4.548-.612-5.868-1.836-1.296-1.248-1.944-3.132-1.944-5.652v-6.48h-3.42V9.712h3.42v-4.32l6.408-1.512v5.832h4.464v4.716h-4.464v6.228c0 1.056.24 1.764.72 2.124.48.336 1.056.504 1.728.504.408 0 .756-.024 1.044-.072a8.74 8.74 0 00.972-.288v4.932a6.492 6.492 0 01-1.584.432c-.504.072-.996.108-1.476.108zm15.379 0c-3.312 0-5.892-.852-7.74-2.556-1.824-1.704-2.736-4.044-2.736-7.02 0-1.848.384-3.492 1.152-4.932.768-1.44 1.848-2.556 3.24-3.348 1.392-.816 3.024-1.224 4.896-1.224 1.848 0 3.384.408 4.608 1.224 1.248.792 2.184 1.896 2.808 3.312.624 1.392.936 3.012.936 4.86v1.368h-12.276v-3.024h7.56l-.612.504c0-1.368-.264-2.376-.792-3.024-.504-.672-1.224-1.008-2.16-1.008-1.08 0-1.908.408-2.484 1.224-.552.792-.828 1.992-.828 3.6V19c0 1.608.396 2.784 1.188 3.528.792.744 1.932 1.116 3.42 1.116.96 0 1.86-.108 2.7-.324a8.47 8.47 0 002.448-1.044l1.656 4.176c-.912.624-1.968 1.104-3.168 1.44-1.2.336-2.472.504-3.816.504zm-214.113 40c-2.592 0-4.548-.612-5.868-1.836-1.296-1.248-1.944-3.132-1.944-5.652v-6.48H.108v-4.716h3.42v-4.32l6.408-1.512v5.832H14.4v4.716H9.936v6.228c0 1.056.24 1.764.72 2.124.48.336 1.056.504 1.728.504.408 0 .756-.024 1.044-.072a8.74 8.74 0 00.972-.288v4.932a6.492 6.492 0 01-1.584.432c-.504.072-.996.108-1.476.108zm12.638 0c-2.328 0-4.056-.636-5.184-1.908-1.104-1.296-1.656-3.252-1.656-5.868V49.712h6.408v10.944c0 .96.192 1.68.576 2.16.408.456 1.02.684 1.836.684.912 0 1.656-.324 2.232-.972.6-.672.9-1.548.9-2.628V49.712h6.408V68H29.27v-3.276h.54c-.576 1.176-1.356 2.088-2.34 2.736-.984.624-2.148.936-3.492.936zM50.626 68V54.68a43.54 43.54 0 00-.288-4.968h6.192l.36 3.168h-.396c.6-1.152 1.452-2.028 2.556-2.628 1.104-.624 2.352-.936 3.744-.936 2.136 0 3.732.636 4.788 1.908 1.08 1.248 1.62 3.204 1.62 5.868V68h-6.408V57.38c0-1.176-.204-1.992-.612-2.448-.408-.48-.996-.72-1.764-.72-1.008 0-1.824.336-2.448 1.008-.624.648-.936 1.512-.936 2.592V68h-6.408zm29.522.396c-2.328 0-4.056-.636-5.184-1.908-1.104-1.296-1.656-3.252-1.656-5.868V49.712h6.408v10.944c0 .96.192 1.68.576 2.16.408.456 1.02.684 1.836.684.912 0 1.656-.324 2.232-.972.6-.672.9-1.548.9-2.628V49.712h6.408V68H85.44v-3.276h.54c-.576 1.176-1.356 2.088-2.34 2.736-.984.624-2.148.936-3.492.936zm.324-20.448l3.636-7.38h6.012l-5.544 7.38h-4.104zM96.03 68V54.68a43.54 43.54 0 00-.288-4.968h6.192l.36 3.168h-.396a5.973 5.973 0 012.34-2.592c1.032-.648 2.244-.972 3.636-.972 1.344 0 2.484.324 3.42.972.96.624 1.656 1.62 2.088 2.988h-.612c.6-1.248 1.464-2.22 2.592-2.916 1.152-.696 2.436-1.044 3.852-1.044 2.088 0 3.648.636 4.68 1.908 1.032 1.248 1.548 3.204 1.548 5.868V68h-6.444V57.308c0-1.128-.168-1.92-.504-2.376-.336-.48-.876-.72-1.62-.72-.936 0-1.668.336-2.196 1.008-.504.672-.756 1.596-.756 2.772V68h-6.408V57.308c0-1.128-.18-1.92-.54-2.376-.336-.48-.864-.72-1.584-.72-.936 0-1.668.336-2.196 1.008-.504.672-.756 1.596-.756 2.772V68H96.03zm43.266.396c-3.312 0-5.892-.852-7.74-2.556-1.824-1.704-2.736-4.044-2.736-7.02 0-1.848.384-3.492 1.152-4.932.768-1.44 1.848-2.556 3.24-3.348 1.392-.816 3.024-1.224 4.896-1.224 1.848 0 3.384.408 4.608 1.224 1.248.792 2.184 1.896 2.808 3.312.624 1.392.936 3.012.936 4.86v1.368h-12.276v-3.024h7.56l-.612.504c0-1.368-.264-2.376-.792-3.024-.504-.672-1.224-1.008-2.16-1.008-1.08 0-1.908.408-2.484 1.224-.552.792-.828 1.992-.828 3.6V59c0 1.608.396 2.784 1.188 3.528.792.744 1.932 1.116 3.42 1.116.96 0 1.86-.108 2.7-.324a8.47 8.47 0 002.448-1.044l1.656 4.176c-.912.624-1.968 1.104-3.168 1.44-1.2.336-2.472.504-3.816.504zM149.871 68V54.716c0-.84-.024-1.68-.072-2.52-.048-.84-.12-1.668-.216-2.484h6.192l.684 5.616h-.972c.24-1.368.624-2.496 1.152-3.384.528-.888 1.188-1.548 1.98-1.98.792-.432 1.728-.648 2.808-.648.504 0 .876.024 1.116.072.264.024.54.096.828.216v5.616c-.6-.264-1.08-.432-1.44-.504-.36-.072-.828-.108-1.404-.108-.984 0-1.788.18-2.412.54-.624.336-1.08.864-1.368 1.584-.264.72-.396 1.644-.396 2.772V68h-6.48zm24.621.396c-2.04 0-3.804-.384-5.292-1.152-1.488-.768-2.64-1.86-3.456-3.276-.816-1.44-1.224-3.144-1.224-5.112 0-1.992.408-3.696 1.224-5.112.816-1.416 1.968-2.508 3.456-3.276 1.488-.768 3.252-1.152 5.292-1.152 2.016 0 3.768.384 5.256 1.152a8.217 8.217 0 013.456 3.312c.816 1.416 1.224 3.108 1.224 5.076 0 1.944-.408 3.636-1.224 5.076a8.217 8.217 0 01-3.456 3.312c-1.488.768-3.24 1.152-5.256 1.152zm0-4.752c1.056 0 1.896-.372 2.52-1.116.624-.768.936-1.992.936-3.672 0-1.68-.312-2.892-.936-3.636-.624-.768-1.464-1.152-2.52-1.152-1.08 0-1.932.384-2.556 1.152-.624.744-.936 1.956-.936 3.636 0 1.68.312 2.904.936 3.672.624.744 1.476 1.116 2.556 1.116zm31.473 4.752c-1.56 0-2.952-.372-4.176-1.116-1.224-.768-2.184-1.872-2.88-3.312-.696-1.44-1.044-3.144-1.044-5.112 0-1.992.336-3.696 1.008-5.112.696-1.44 1.656-2.532 2.88-3.276 1.248-.768 2.652-1.152 4.212-1.152 1.392 0 2.652.324 3.78.972 1.128.624 1.884 1.464 2.268 2.52h-.54V41.504h6.408V68h-6.3v-3.276h.468c-.336 1.104-1.08 1.992-2.232 2.664-1.128.672-2.412 1.008-3.852 1.008zm2.052-4.752c1.056 0 1.92-.372 2.592-1.116.696-.768 1.044-1.992 1.044-3.672 0-1.68-.348-2.892-1.044-3.636-.672-.768-1.536-1.152-2.592-1.152-1.08 0-1.968.384-2.664 1.152-.672.744-1.008 1.956-1.008 3.636 0 1.68.336 2.904 1.008 3.672.696.744 1.584 1.116 2.664 1.116zm23.852 4.752c-3.312 0-5.892-.852-7.74-2.556-1.824-1.704-2.736-4.044-2.736-7.02 0-1.848.384-3.492 1.152-4.932.768-1.44 1.848-2.556 3.24-3.348 1.392-.816 3.024-1.224 4.896-1.224 1.848 0 3.384.408 4.608 1.224 1.248.792 2.184 1.896 2.808 3.312.624 1.392.936 3.012.936 4.86v1.368h-12.276v-3.024h7.56l-.612.504c0-1.368-.264-2.376-.792-3.024-.504-.672-1.224-1.008-2.16-1.008-1.08 0-1.908.408-2.484 1.224-.552.792-.828 1.992-.828 3.6V59c0 1.608.396 2.784 1.188 3.528.792.744 1.932 1.116 3.42 1.116.96 0 1.86-.108 2.7-.324a8.47 8.47 0 002.448-1.044l1.656 4.176c-.912.624-1.968 1.104-3.168 1.44-1.2.336-2.472.504-3.816.504zM2.448 108V82.62h5.76l8.316 18.612h-1.188l8.28-18.612h5.796V108H23.4V92.448h1.548L17.748 108h-3.744L6.768 92.448h1.656V108H2.448zm41.356.396c-3.312 0-5.892-.852-7.74-2.556-1.824-1.704-2.736-4.044-2.736-7.02 0-1.848.384-3.492 1.152-4.932.768-1.44 1.848-2.556 3.24-3.348 1.392-.816 3.024-1.224 4.896-1.224 1.848 0 3.384.408 4.608 1.224 1.248.792 2.184 1.896 2.808 3.312.624 1.392.936 3.012.936 4.86v1.368H38.692v-3.024h7.56l-.612.504c0-1.368-.264-2.376-.792-3.024-.504-.672-1.224-1.008-2.16-1.008-1.08 0-1.908.408-2.484 1.224-.552.792-.828 1.992-.828 3.6V99c0 1.608.396 2.784 1.188 3.528.792.744 1.932 1.116 3.42 1.116.96 0 1.86-.108 2.7-.324a8.47 8.47 0 002.448-1.044l1.656 4.176c-.912.624-1.968 1.104-3.168 1.44-1.2.336-2.472.504-3.816.504zm17.848 0c-1.56 0-2.952-.372-4.176-1.116-1.224-.768-2.184-1.872-2.88-3.312-.696-1.44-1.044-3.144-1.044-5.112 0-1.992.336-3.696 1.008-5.112.696-1.44 1.656-2.532 2.88-3.276 1.248-.768 2.652-1.152 4.212-1.152 1.392 0 2.652.324 3.78.972 1.128.624 1.884 1.464 2.268 2.52h-.54V81.504h6.408V108h-6.3v-3.276h.468c-.336 1.104-1.08 1.992-2.232 2.664-1.128.672-2.412 1.008-3.852 1.008zm2.052-4.752c1.056 0 1.92-.372 2.592-1.116.696-.768 1.044-1.992 1.044-3.672 0-1.68-.348-2.892-1.044-3.636-.672-.768-1.536-1.152-2.592-1.152-1.08 0-1.968.384-2.664 1.152-.672.744-1.008 1.956-1.008 3.636 0 1.68.336 2.904 1.008 3.672.696.744 1.584 1.116 2.664 1.116zM77.908 108V89.712h6.408V108h-6.408zm-.144-20.88v-5.76h6.732v5.76h-6.732zm20.127 21.276c-2.016 0-3.78-.384-5.292-1.152-1.512-.768-2.688-1.86-3.528-3.276-.84-1.44-1.26-3.156-1.26-5.148 0-1.992.42-3.696 1.26-5.112.84-1.416 2.016-2.496 3.528-3.24 1.512-.768 3.276-1.152 5.292-1.152 1.248 0 2.472.168 3.672.504 1.2.336 2.172.816 2.916 1.44l-1.8 4.356a5.878 5.878 0 00-1.98-1.08 6.145 6.145 0 00-2.124-.396c-1.32 0-2.352.396-3.096 1.188-.72.792-1.08 1.956-1.08 3.492s.36 2.712 1.08 3.528c.744.792 1.776 1.188 3.096 1.188.672 0 1.38-.12 2.124-.36a6.854 6.854 0 001.98-1.08l1.8 4.356c-.768.6-1.752 1.08-2.952 1.44a13.171 13.171 0 01-3.636.504zm16.765 0c-1.584 0-2.976-.372-4.176-1.116-1.2-.768-2.148-1.872-2.844-3.312-.672-1.44-1.008-3.144-1.008-5.112 0-1.992.336-3.696 1.008-5.112.696-1.44 1.644-2.532 2.844-3.276 1.2-.768 2.592-1.152 4.176-1.152 1.416 0 2.688.336 3.816 1.008 1.152.672 1.908 1.548 2.268 2.628h-.36l.396-3.24h6.156c-.072.816-.144 1.644-.216 2.484a43.54 43.54 0 00-.072 2.484V108h-6.336l-.072-3.096h.432c-.36 1.056-1.116 1.908-2.268 2.556-1.128.624-2.376.936-3.744.936zm2.052-4.752c1.08 0 1.956-.372 2.628-1.116.672-.768 1.008-1.992 1.008-3.672 0-1.68-.336-2.892-1.008-3.636-.672-.768-1.548-1.152-2.628-1.152s-1.956.384-2.628 1.152c-.672.744-1.008 1.956-1.008 3.636 0 1.68.324 2.904.972 3.672.672.744 1.56 1.116 2.664 1.116zM130.984 108V94.716c0-.84-.024-1.68-.072-2.52-.048-.84-.12-1.668-.216-2.484h6.192l.684 5.616h-.972c.24-1.368.624-2.496 1.152-3.384.528-.888 1.188-1.548 1.98-1.98.792-.432 1.728-.648 2.808-.648.504 0 .876.024 1.116.072.264.024.54.096.828.216v5.616c-.6-.264-1.08-.432-1.44-.504-.36-.072-.828-.108-1.404-.108-.984 0-1.788.18-2.412.54-.624.336-1.08.864-1.368 1.584-.264.72-.396 1.644-.396 2.772V108h-6.48zm25.125.396c-3.312 0-5.892-.852-7.74-2.556-1.824-1.704-2.736-4.044-2.736-7.02 0-1.848.384-3.492 1.152-4.932.768-1.44 1.848-2.556 3.24-3.348 1.392-.816 3.024-1.224 4.896-1.224 1.848 0 3.384.408 4.608 1.224 1.248.792 2.184 1.896 2.808 3.312.624 1.392.936 3.012.936 4.86v1.368h-12.276v-3.024h7.56l-.612.504c0-1.368-.264-2.376-.792-3.024-.504-.672-1.224-1.008-2.16-1.008-1.08 0-1.908.408-2.484 1.224-.552.792-.828 1.992-.828 3.6V99c0 1.608.396 2.784 1.188 3.528.792.744 1.932 1.116 3.42 1.116.96 0 1.86-.108 2.7-.324a8.47 8.47 0 002.448-1.044l1.656 4.176c-.912.624-1.968 1.104-3.168 1.44-1.2.336-2.472.504-3.816.504zm10.143-.396v-6.552h6.66V108h-6.66z" fill="#fff"/></svg>