<svg width="143" height="13" viewBox="0 0 143 13" fill="none" xmlns="http://www.w3.org/2000/svg"><path d="M7.196 7.097H1.665c.08.512.293.92.64 1.222.346.303.789.454 1.327.454.644 0 1.197-.237 1.66-.709l1.45.715c-.361.54-.794.937-1.3 1.196-.504.259-1.103.388-1.796.388-1.077 0-1.953-.357-2.63-1.07C.339 8.579 0 7.686 0 6.613c0-1.075.338-2.015 1.012-2.741.675-.727 1.521-1.09 2.54-1.09 1.08 0 1.959.364 2.636 1.09.677.726 1.016 1.686 1.016 2.88l-.006.344-.002.001zM5.475 5.672a1.81 1.81 0 00-.673-.98 1.884 1.884 0 00-1.166-.378c-.48 0-.901.141-1.264.423-.227.177-.438.488-.632.935h3.734zM12.565 3.976l-1.066 1.119c-.433-.451-.826-.676-1.179-.676-.193 0-.345.043-.454.129a.391.391 0 00-.163.32c0 .098.034.188.104.268.069.082.24.194.513.335l.631.331c.665.345 1.121.696 1.369 1.053.248.358.373.777.373 1.258 0 .641-.224 1.176-.672 1.603-.449.43-1.049.643-1.801.643-1.001 0-1.8-.411-2.397-1.233l1.06-1.213c.2.247.437.447.708.6.271.152.513.228.723.228.228 0 .41-.057.548-.171.139-.115.208-.247.208-.398 0-.278-.25-.55-.75-.815l-.58-.304c-1.11-.588-1.665-1.324-1.665-2.206 0-.57.21-1.057.628-1.462.418-.404.954-.605 1.605-.605.445 0 .865.102 1.258.308.394.205.727.5 1 .884l-.001.004zM14.367 8.289c.273 0 .507.1.7.301.194.202.29.445.29.732 0 .288-.096.533-.29.736a.932.932 0 01-.7.304.934.934 0 01-.7-.304 1.03 1.03 0 01-.29-.736c0-.287.096-.531.29-.732a.935.935 0 01.7-.301zM18.13.432h1.72l2.152 6.799 2.171-6.8h1.72l1.558 9.748h-1.706l-.995-6.156-1.973 6.156H21.22l-1.953-6.156-1.018 6.156h-1.724L18.13.432zM35.478 7.098h-5.532c.08.514.293.92.64 1.224.346.301.79.453 1.329.453.644 0 1.197-.236 1.66-.71l1.451.717c-.361.538-.794.938-1.3 1.197-.505.259-1.104.388-1.799.388-1.076 0-1.952-.357-2.63-1.07-.678-.714-1.017-1.607-1.017-2.68 0-1.072.337-2.013 1.013-2.739.675-.725 1.522-1.09 2.54-1.09 1.08 0 1.958.365 2.635 1.09.677.728 1.016 1.686 1.016 2.878l-.006.345h-.003l.003-.003zm-1.723-1.425a1.816 1.816 0 00-.673-.98 1.884 1.884 0 00-1.166-.378c-.48 0-.9.142-1.265.424-.227.177-.439.489-.632.934h3.736zM41.783.185h1.723v9.992h-1.723v-.762c-.336.335-.673.578-1.01.725a2.724 2.724 0 01-1.101.223c-.886 0-1.652-.362-2.3-1.083-.647-.722-.97-1.62-.97-2.694 0-1.074.311-2.025.938-2.738.627-.71 1.385-1.067 2.281-1.067.412 0 .798.082 1.16.244.361.163.694.41 1.001.736V.185h.001zm-1.812 4.268c-.532 0-.975.196-1.326.593-.352.395-.529.902-.529 1.52 0 .62.18 1.136.538 1.537a1.7 1.7 0 001.322.602c.525 0 .99-.196 1.346-.593.356-.395.533-.912.533-1.554 0-.643-.178-1.135-.533-1.525a1.756 1.756 0 00-1.352-.583v.003h.002zM45.941 0c.301 0 .561.116.776.344.216.23.325.509.325.835 0 .326-.108.598-.322.826a1.043 1.043 0 01-1.55-.006 1.2 1.2 0 01-.324-.846c0-.331.107-.59.32-.815A1.03 1.03 0 0145.938 0h.002zm-.86 2.968h1.722v7.208H45.08V2.968zM55.034 4.428l-1.433.83c-.269-.297-.536-.501-.798-.617a2.286 2.286 0 00-.926-.173c-.644 0-1.166.2-1.563.605-.397.403-.597.92-.597 1.55s.191 1.113.576 1.503c.382.388.886.583 1.51.583.77 0 1.37-.277 1.8-.83l1.355.977c-.736 1.006-1.774 1.509-3.117 1.509-1.208 0-2.152-.376-2.835-1.127A3.797 3.797 0 0147.98 6.6c0-.698.167-1.34.497-1.928a3.627 3.627 0 011.391-1.386 3.993 3.993 0 011.997-.503c.681 0 1.293.143 1.835.428.543.285.986.69 1.33 1.217v.002l.004-.002zM61.019 2.968h1.722v7.208H61.02v-.762c-.337.336-.674.579-1.012.726a2.724 2.724 0 01-1.1.222c-.886 0-1.652-.361-2.3-1.083-.646-.721-.97-1.62-.97-2.694 0-1.073.311-2.025.939-2.737.626-.711 1.385-1.068 2.28-1.068.413 0 .799.082 1.16.245.361.162.694.41 1.001.736v-.796.003h.002zm-1.812 1.484c-.532 0-.976.196-1.327.593-.351.395-.528.902-.528 1.52 0 .62.18 1.136.537 1.538.357.401.798.601 1.323.601.524 0 .99-.196 1.345-.592.356-.396.533-.913.533-1.555 0-.642-.178-1.135-.533-1.525a1.757 1.757 0 00-1.352-.582v.002h.002zM64.202 2.968h1.477v.909c.158-.358.372-.631.637-.816a1.49 1.49 0 01.87-.278c.223 0 .457.061.7.185l-.535 1.556c-.203-.105-.368-.159-.498-.159-.265 0-.489.173-.672.518-.183.344-.275 1.02-.275 2.028l.007.352v2.916h-1.71V2.968h-.002.001zM75.258 7.098h-5.532c.079.514.293.92.64 1.224.346.301.79.453 1.329.453.643 0 1.196-.236 1.66-.71l1.45.717c-.36.538-.794.938-1.3 1.197-.505.259-1.104.388-1.798.388-1.077 0-1.953-.357-2.63-1.07-.678-.714-1.017-1.607-1.017-2.68 0-1.072.337-2.013 1.012-2.739.676-.725 1.522-1.09 2.54-1.09 1.08 0 1.959.365 2.636 1.09.677.728 1.016 1.686 1.016 2.878l-.006.345h-.003l.003-.003zm-1.723-1.425a1.815 1.815 0 00-.673-.98 1.89 1.89 0 00-1.166-.378c-.48 0-.901.142-1.265.424-.227.177-.44.489-.632.934h3.736zM77.032 8.29c.273 0 .508.102.7.302.194.2.29.446.29.732s-.096.533-.29.735a.934.934 0 01-.7.305.934.934 0 01-.7-.305 1.027 1.027 0 01-.29-.735c0-.289.097-.53.29-.732a.941.941 0 01.7-.302zM84.338 2.968h1.716v6.175c0 1.218-.232 2.115-.7 2.69-.626.777-1.57 1.167-2.833 1.167-.673 0-1.237-.087-1.698-.264a3.012 3.012 0 01-1.16-.779 3.224 3.224 0 01-.7-1.248h1.899c.168.203.383.357.65.462.264.104.578.155.94.155.461 0 .834-.076 1.116-.225.282-.151.48-.345.597-.583.115-.239.174-.65.174-1.232a2.865 2.865 0 01-.952.686 2.9 2.9 0 01-1.13.21c-.922 0-1.699-.349-2.334-1.048-.633-.698-.951-1.581-.951-2.65 0-1.144.336-2.064 1.008-2.758.61-.627 1.338-.94 2.182-.94.396 0 .769.075 1.12.229.352.153.704.403 1.056.751v-.798zm-1.785 1.505c-.543 0-.99.191-1.344.572-.354.382-.53.863-.53 1.442 0 .578.183 1.093.544 1.477.361.383.815.576 1.362.576.547 0 .976-.188 1.32-.563.347-.376.522-.869.522-1.477 0-.608-.175-1.09-.525-1.465-.348-.376-.798-.563-1.349-.563v.001zM90.912 2.784c.647 0 1.256.171 1.826.51.57.341 1.015.801 1.334 1.386.32.583.48 1.213.48 1.89 0 .675-.162 1.315-.483 1.908a3.56 3.56 0 01-1.316 1.387c-.554.334-1.168.5-1.835.5-.984 0-1.824-.368-2.521-1.104-.697-.735-1.045-1.627-1.045-2.679 0-1.127.394-2.066 1.18-2.817.69-.654 1.481-.98 2.378-.98l.003-.003-.001.002zm.028 1.704c-.536 0-.98.195-1.337.586-.356.391-.533.89-.533 1.502 0 .61.176 1.135.529 1.525.351.39.797.582 1.336.582.54 0 .988-.196 1.345-.59.358-.394.537-.899.537-1.517 0-.62-.175-1.122-.528-1.507-.352-.386-.8-.581-1.349-.581zM94.724 2.968h1.755l1.734 4.255 1.73-4.255h1.745l-2.92 7.209H97.65l-2.928-7.209h.002z" fill="#DEEDFC"/><path d="M101.963 11.924L106.152.091h1.239l-4.197 11.832h-1.231zM109.188.372h5.138v1.82h-3.375v1.78h2.193v1.793h-2.193v4.412h-1.763V.37v.001zM115.232 2.925h1.485v.913c.161-.36.375-.633.641-.82.266-.188.558-.28.876-.28.224 0 .459.063.704.187l-.539 1.567c-.203-.107-.37-.16-.502-.16-.266 0-.491.173-.675.52-.185.347-.276 1.027-.276 2.04l.006.353v2.933h-1.719V2.925h-.001zM124.89 2.925h1.732v7.253h-1.732v-.767c-.338.338-.677.581-1.018.73-.34.149-.709.223-1.106.223-.891 0-1.663-.363-2.313-1.09-.651-.726-.976-1.63-.976-2.709 0-1.079.314-2.037.944-2.753.63-.715 1.395-1.074 2.294-1.074.415 0 .803.082 1.166.247.364.165.699.41 1.007.74v-.8h.002zm-1.821 1.494c-.536 0-.98.199-1.334.597-.354.397-.531.907-.531 1.53 0 .622.181 1.143.541 1.547.36.404.804.607 1.332.607.527 0 .995-.199 1.354-.597.358-.398.537-.919.537-1.562 0-.644-.18-1.142-.537-1.533-.359-.391-.812-.586-1.361-.586l-.001-.003zM128.367 2.924h1.751v3.494c0 .68.045 1.151.134 1.417.089.263.233.47.429.616.197.145.44.22.729.22.29 0 .534-.073.735-.218.202-.144.352-.356.448-.637.072-.209.108-.655.108-1.34V2.923h1.733v3.073c0 1.267-.096 2.134-.286 2.6-.233.57-.576 1.005-1.029 1.31-.453.305-1.028.457-1.726.457-.757 0-1.37-.178-1.837-.533-.467-.355-.795-.851-.986-1.486-.135-.44-.203-1.24-.203-2.4v-3.02zM141.267.125H143v10.051h-1.733V9.41c-.337.338-.677.581-1.017.73-.34.15-.709.223-1.106.223-.891 0-1.663-.362-2.313-1.09-.651-.726-.977-1.63-.977-2.708 0-1.08.315-2.037.945-2.754.63-.715 1.394-1.074 2.294-1.074.415 0 .803.082 1.166.247.364.166.699.411 1.007.74v-3.6l.001.002zm-1.82 4.292c-.536 0-.98.2-1.334.597-.354.398-.531.907-.531 1.53s.181 1.143.541 1.547c.36.404.804.607 1.331.607a1.77 1.77 0 001.354-.596c.359-.398.537-.92.537-1.563 0-.644-.179-1.141-.537-1.533-.359-.391-.812-.586-1.36-.586l-.001-.003z" fill="#fff"/></svg>