<svg width="144" height="99" viewBox="0 0 144 99" fill="none" xmlns="http://www.w3.org/2000/svg"><path d="M65.98 6.948V24h-5.685V6.948h-4.669V2.134H70.65v4.814h-4.67zm11.273 2.175v8.381c0 1.837.89 2.755 2.668 2.755 1.779 0 2.668-.918 2.668-2.755V9.123h5.25v9.396c0 2.01-.668 3.519-2.002 4.524-1.315 1.005-3.287 1.508-5.916 1.508-2.63 0-4.61-.503-5.945-1.508-1.315-1.005-1.972-2.513-1.972-4.524V9.123h5.25zm7.714-6.641l-5.046 4.466-2.436-1.798L81.632.075l3.335 2.407zm-72.751 48.02V61h-5.25V50.502h-1.74v-4.379h1.74v-4.466h5.25v4.466h2.987v4.379h-2.987zm10.115 3.016c0 .483.087.938.261 1.363.174.406.406.764.696 1.073.31.31.667.551 1.073.725.425.174.88.261 1.363.261.464 0 .9-.087 1.305-.261a3.009 3.009 0 001.073-.725c.31-.31.551-.667.725-1.073.193-.406.29-.841.29-1.305 0-.464-.097-.899-.29-1.305a3.312 3.312 0 00-.725-1.102 3.009 3.009 0 00-1.073-.725 3.278 3.278 0 00-1.305-.261c-.483 0-.938.087-1.363.261a3.395 3.395 0 00-1.073.725c-.29.31-.522.667-.696 1.073a3.074 3.074 0 00-.26 1.276zm6.612-7.395h5.278V61h-5.278v-1.653c-1.121 1.411-2.639 2.117-4.553 2.117-1.082 0-2.078-.193-2.987-.58a7.39 7.39 0 01-2.378-1.682 7.898 7.898 0 01-1.595-2.523c-.367-.967-.55-2.02-.55-3.161a8.27 8.27 0 01.55-3.016 7.758 7.758 0 011.537-2.523 7.07 7.07 0 012.35-1.682c.908-.425 1.913-.638 3.015-.638 1.856 0 3.393.648 4.611 1.943v-1.479zm8.85 0h5.25v1.827c1.43-1.373 3.035-2.059 4.813-2.059 2.204 0 3.886.928 5.046 2.784 1.18-1.875 2.861-2.813 5.046-2.813.696 0 1.353.106 1.972.319.619.193 1.15.512 1.595.957.445.425.793.986 1.044 1.682.27.696.406 1.537.406 2.523V61h-5.249v-7.337c0-.754-.058-1.373-.174-1.856-.096-.483-.251-.86-.464-1.131a1.456 1.456 0 00-.696-.551 2.566 2.566 0 00-.87-.145c-1.682 0-2.523 1.228-2.523 3.683V61H47.74v-7.337c0-.754-.048-1.373-.145-1.856-.096-.503-.242-.899-.435-1.189a1.27 1.27 0 00-.696-.58 2.722 2.722 0 00-1.015-.174c-.328 0-.638.048-.928.145-.29.097-.55.29-.783.58-.212.27-.386.657-.522 1.16-.116.483-.174 1.121-.174 1.914V61h-5.249V46.123zm41.144 7.482c0-.464-.087-.899-.26-1.305a2.973 2.973 0 00-.697-1.102 3.312 3.312 0 00-1.102-.725 3.063 3.063 0 00-1.334-.29c-.464 0-.899.087-1.305.261a3.395 3.395 0 00-1.073.725 4.04 4.04 0 00-.725 1.102 3.278 3.278 0 00-.26 1.305c0 .464.086.899.26 1.305.174.406.416.764.725 1.073.31.29.667.532 1.073.725.426.174.87.261 1.334.261.464 0 .9-.087 1.305-.261a3.07 3.07 0 001.044-.725c.31-.31.551-.667.725-1.073.194-.406.29-.831.29-1.276zm-6.612 14.819h-5.249V46.123h5.25v1.653c1.12-1.411 2.648-2.117 4.581-2.117a6.89 6.89 0 012.958.638c.928.406 1.73.967 2.407 1.682a7.506 7.506 0 011.566 2.523c.387.967.58 2.001.58 3.103a8.055 8.055 0 01-.58 3.074 7.573 7.573 0 01-1.566 2.494 7.068 7.068 0 01-2.349 1.682 7.167 7.167 0 01-2.958.609c-1.856 0-3.402-.638-4.64-1.914v8.874zM92.37 53.489c0 .503.087.967.261 1.392.194.406.435.764.725 1.073.31.31.667.551 1.073.725.426.174.87.261 1.334.261.464 0 .9-.087 1.305-.261a3.01 3.01 0 001.073-.725c.31-.31.551-.667.725-1.073.194-.425.29-.88.29-1.363 0-.464-.096-.899-.29-1.305a3.313 3.313 0 00-.725-1.102 3.01 3.01 0 00-1.073-.725 3.278 3.278 0 00-1.305-.261 3.49 3.49 0 00-1.334.261 3.394 3.394 0 00-1.073.725c-.29.31-.531.667-.725 1.073a3.278 3.278 0 00-.26 1.305zm-5.539-.058c0-1.102.223-2.127.667-3.074a7.391 7.391 0 011.856-2.494c.793-.715 1.73-1.276 2.813-1.682 1.102-.406 2.301-.609 3.596-.609 1.276 0 2.456.203 3.538.609 1.102.387 2.05.938 2.842 1.653a7.147 7.147 0 011.885 2.523c.445.967.667 2.04.667 3.219 0 1.18-.232 2.262-.696 3.248a7.684 7.684 0 01-1.856 2.523c-.792.696-1.749 1.237-2.87 1.624-1.103.387-2.301.58-3.597.58-1.276 0-2.455-.193-3.538-.58-1.082-.387-2.02-.938-2.813-1.653a7.81 7.81 0 01-1.827-2.552c-.444-1.005-.667-2.117-.667-3.335zm32.109-2.494c-.909-.619-1.827-.928-2.755-.928-.503 0-.976.087-1.421.261a3.419 3.419 0 00-1.131.754c-.329.31-.59.686-.783 1.131a3.802 3.802 0 00-.261 1.45c0 .522.087 1.005.261 1.45.193.425.445.802.754 1.131.329.31.715.551 1.16.725.445.174.918.261 1.421.261.986 0 1.904-.338 2.755-1.015v4.466c-1.295.56-2.523.841-3.683.841a8.815 8.815 0 01-3.103-.551 8.171 8.171 0 01-2.581-1.566 8.101 8.101 0 01-1.769-2.465c-.445-.967-.667-2.04-.667-3.219 0-1.18.213-2.252.638-3.219a7.535 7.535 0 011.74-2.523 7.616 7.616 0 012.61-1.653 8.815 8.815 0 013.277-.609c1.276 0 2.455.27 3.538.812v4.466zm7.953 2.552c0 .503.087.967.261 1.392.193.406.435.764.725 1.073.309.31.667.551 1.073.725.425.174.87.261 1.334.261.464 0 .899-.087 1.305-.261a3.012 3.012 0 001.073-.725c.309-.31.551-.667.725-1.073.193-.425.29-.88.29-1.363 0-.464-.097-.899-.29-1.305a3.318 3.318 0 00-.725-1.102 3.012 3.012 0 00-1.073-.725 3.278 3.278 0 00-1.305-.261c-.464 0-.909.087-1.334.261a3.39 3.39 0 00-1.073.725 4.18 4.18 0 00-.725 1.073 3.278 3.278 0 00-.261 1.305zm-5.539-.058c0-1.102.222-2.127.667-3.074a7.378 7.378 0 011.856-2.494c.792-.715 1.73-1.276 2.813-1.682 1.102-.406 2.3-.609 3.596-.609 1.276 0 2.455.203 3.538.609 1.102.387 2.049.938 2.842 1.653a7.159 7.159 0 011.885 2.523c.444.967.667 2.04.667 3.219 0 1.18-.232 2.262-.696 3.248a7.712 7.712 0 01-1.856 2.523c-.793.696-1.75 1.237-2.871 1.624-1.102.387-2.301.58-3.596.58-1.276 0-2.456-.193-3.538-.58-1.083-.387-2.021-.938-2.813-1.653a7.79 7.79 0 01-1.827-2.552c-.445-1.005-.667-2.117-.667-3.335zM6.429 90.518c0 .483.087.938.261 1.363.174.406.406.764.696 1.073.31.31.667.551 1.073.725.426.174.88.261 1.363.261.464 0 .9-.087 1.305-.261a3.01 3.01 0 001.073-.725c.31-.31.551-.667.725-1.073.194-.406.29-.841.29-1.305 0-.464-.096-.899-.29-1.305a3.313 3.313 0 00-.725-1.102 3.01 3.01 0 00-1.073-.725 3.278 3.278 0 00-1.305-.261 3.49 3.49 0 00-1.334.261 3.394 3.394 0 00-1.073.725c-.29.31-.531.667-.725 1.073a3.074 3.074 0 00-.26 1.276zm6.612-16.588h5.278V98h-5.278v-1.653c-1.121 1.411-2.639 2.117-4.553 2.117-1.082 0-2.078-.203-2.987-.609a7.39 7.39 0 01-2.378-1.682 7.896 7.896 0 01-1.595-2.523c-.367-.967-.55-2.01-.55-3.132 0-1.063.173-2.069.521-3.016a7.756 7.756 0 011.537-2.523 7.068 7.068 0 012.35-1.682c.927-.425 1.942-.638 3.044-.638 1.856 0 3.393.648 4.611 1.943V73.93zm19.725 14.471c-.174-.735-.531-1.324-1.073-1.769-.541-.445-1.198-.667-1.972-.667-.812 0-1.479.213-2 .638-.503.425-.822 1.025-.958 1.798h6.003zm-6.148 3.045c0 2.262 1.064 3.393 3.19 3.393 1.14 0 2.001-.464 2.581-1.392h5.075c-1.024 3.403-3.586 5.104-7.685 5.104-1.256 0-2.407-.184-3.45-.551-1.045-.387-1.944-.928-2.698-1.624a7.267 7.267 0 01-1.71-2.494c-.407-.967-.61-2.05-.61-3.248 0-1.237.194-2.349.58-3.335.387-1.005.938-1.856 1.653-2.552.716-.696 1.576-1.228 2.581-1.595 1.025-.387 2.175-.58 3.451-.58 1.257 0 2.388.193 3.393.58 1.006.367 1.856.909 2.552 1.624.696.715 1.228 1.595 1.595 2.639.368 1.025.551 2.185.551 3.48v.551H26.618zm25.91-.841c0-.464-.086-.899-.26-1.305a3.312 3.312 0 00-.725-1.102 3.394 3.394 0 00-1.073-.725 3.063 3.063 0 00-1.334-.29c-.464 0-.9.087-1.305.261a3.395 3.395 0 00-1.073.725 4.04 4.04 0 00-.725 1.102 3.278 3.278 0 00-.261 1.305c0 .464.087.899.26 1.305.175.406.416.764.726 1.073.309.29.667.532 1.073.725.425.174.87.261 1.334.261.464 0 .899-.087 1.305-.261a3.07 3.07 0 001.044-.725c.309-.31.55-.667.725-1.073.193-.406.29-.831.29-1.276zM45.918 73.93v10.672c1.237-1.295 2.784-1.943 4.64-1.943 1.102 0 2.107.213 3.016.638a6.697 6.697 0 012.349 1.682 7.424 7.424 0 011.537 2.494c.367.947.55 1.962.55 3.045a8.276 8.276 0 01-.58 3.103 7.506 7.506 0 01-1.565 2.523 7.68 7.68 0 01-2.407 1.711 7.167 7.167 0 01-2.958.609c-1.934 0-3.461-.706-4.582-2.117V98h-5.25V73.93h5.25zm25.96 14.471c-.174-.735-.532-1.324-1.073-1.769-.542-.445-1.2-.667-1.972-.667-.812 0-1.48.213-2.001.638-.503.425-.822 1.025-.957 1.798h6.003zm-6.148 3.045c0 2.262 1.063 3.393 3.19 3.393 1.14 0 2-.464 2.58-1.392h5.076c-1.025 3.403-3.587 5.104-7.685 5.104-1.257 0-2.407-.184-3.451-.551-1.044-.387-1.943-.928-2.697-1.624a7.267 7.267 0 01-1.711-2.494c-.406-.967-.61-2.05-.61-3.248 0-1.237.194-2.349.58-3.335.387-1.005.938-1.856 1.654-2.552.715-.696 1.575-1.228 2.58-1.595 1.025-.387 2.176-.58 3.452-.58 1.256 0 2.387.193 3.393.58 1.005.367 1.856.909 2.552 1.624.696.715 1.227 1.595 1.595 2.639.367 1.025.55 2.185.55 3.48v.551H65.73zm14.049-8.323h5.249v2.436c.56-.89 1.247-1.566 2.059-2.03.812-.483 1.76-.725 2.842-.725h.435c.174 0 .367.02.58.058v5.017a4.987 4.987 0 00-2.262-.522c-1.218 0-2.136.367-2.755 1.102-.6.715-.899 1.769-.899 3.161V98h-5.249V83.123zm18.73 0V98h-5.25V83.123h5.25zm2.435-6.641l-5.046 4.466-2.436-1.798 4.147-5.075 3.335 2.407zm6.023 14.036c0 .483.087.938.261 1.363.174.406.406.764.696 1.073.31.31.667.551 1.073.725.426.174.88.261 1.363.261.464 0 .899-.087 1.305-.261a3.003 3.003 0 001.073-.725c.31-.31.551-.667.725-1.073.194-.406.29-.841.29-1.305 0-.464-.096-.899-.29-1.305a3.303 3.303 0 00-.725-1.102 3.003 3.003 0 00-1.073-.725 3.278 3.278 0 00-1.305-.261c-.483 0-.937.087-1.363.261a3.401 3.401 0 00-1.073.725c-.29.31-.522.667-.696 1.073a3.074 3.074 0 00-.261 1.276zm6.612-7.395h5.278V98h-5.278v-1.653c-1.121 1.411-2.639 2.117-4.553 2.117-1.082 0-2.078-.193-2.987-.58a7.4 7.4 0 01-2.378-1.682 7.913 7.913 0 01-1.595-2.523c-.367-.967-.551-2.02-.551-3.161 0-1.063.184-2.069.551-3.016a7.773 7.773 0 011.537-2.523 7.082 7.082 0 012.349-1.682c.909-.425 1.914-.638 3.016-.638 1.856 0 3.393.648 4.611 1.943v-1.479zm18.71 3.828c-.966-.503-1.914-.754-2.842-.754-.483 0-.879.097-1.189.29-.29.193-.435.454-.435.783 0 .174.02.319.058.435a.957.957 0 00.319.29c.174.097.416.184.725.261.329.077.754.174 1.276.29 1.45.29 2.533.812 3.248 1.566.716.735 1.073 1.682 1.073 2.842 0 .87-.174 1.653-.522 2.349a5.128 5.128 0 01-1.45 1.769c-.618.464-1.363.822-2.233 1.073-.87.27-1.827.406-2.871.406-2.01 0-3.992-.57-5.945-1.711l1.914-3.712c1.47 1.005 2.862 1.508 4.176 1.508.484 0 .88-.106 1.189-.319.31-.213.464-.483.464-.812 0-.193-.029-.348-.087-.464-.038-.135-.135-.251-.29-.348-.154-.116-.386-.213-.696-.29a9.996 9.996 0 00-1.16-.29c-1.624-.329-2.764-.812-3.422-1.45-.638-.657-.957-1.556-.957-2.697 0-.831.155-1.576.464-2.233a4.63 4.63 0 011.334-1.711c.58-.464 1.276-.822 2.088-1.073.832-.251 1.75-.377 2.755-.377 1.644 0 3.239.319 4.785.957l-1.769 3.422zm4.634 8.265c0-.464.087-.899.261-1.305a3.318 3.318 0 011.798-1.827c.426-.174.87-.261 1.334-.261.464 0 .899.087 1.305.261.426.174.793.416 1.102.725.31.31.551.677.725 1.102.174.406.261.841.261 1.305 0 .464-.087.909-.261 1.334a3.382 3.382 0 01-.725 1.073c-.309.31-.676.551-1.102.725a3.278 3.278 0 01-1.305.261c-.464 0-.908-.087-1.334-.261a3.401 3.401 0 01-1.798-1.798 3.49 3.49 0 01-.261-1.334z" fill="#fff"/></svg>