<svg width="131" height="177" viewBox="0 0 131 177" fill="none" xmlns="http://www.w3.org/2000/svg"><path d="M29.282 16.422h-8.07L19.114 21H16.05L25.375.968 34.373 21H31.26l-1.977-4.578zm-1.16-2.673L25.327 7.34l-2.93 6.409h5.725zm10.84 13.72h-2.747V9.11h2.747v1.294c1.082-1.082 2.311-1.623 3.686-1.623 1.636 0 2.983.602 4.041 1.806 1.074 1.197 1.611 2.706 1.611 4.53 0 1.781-.533 3.267-1.599 4.455-1.058 1.18-2.392 1.77-4.004 1.77-1.391 0-2.637-.558-3.735-1.673v7.8zm6.53-12.34c0-1.14-.309-2.068-.927-2.784-.627-.724-1.416-1.086-2.368-1.086-1.01 0-1.827.35-2.454 1.05-.627.7-.94 1.62-.94 2.758 0 1.115.314 2.035.94 2.76.619.707 1.432 1.061 2.442 1.061.952 0 1.737-.358 2.355-1.074.635-.716.953-1.611.953-2.686zm5.714-6.019h2.746v1.062c.505-.529.952-.89 1.343-1.086.399-.204.87-.305 1.416-.305.724 0 1.481.236 2.27.708l-1.257 2.514c-.52-.374-1.03-.561-1.526-.561-1.497 0-2.246 1.131-2.246 3.393V21h-2.746V9.11zm20.007 6.592h-8.52c.073.977.39 1.754.952 2.332.561.57 1.281.854 2.16.854.684 0 1.25-.163 1.697-.488.44-.326.94-.928 1.501-1.807l2.32 1.294a9.45 9.45 0 01-1.135 1.575c-.4.431-.826.79-1.282 1.074-.456.277-.948.48-1.477.61a7.19 7.19 0 01-1.722.196c-1.774 0-3.198-.57-4.272-1.71-1.074-1.147-1.611-2.669-1.611-4.565 0-1.88.52-3.401 1.562-4.565 1.05-1.148 2.442-1.721 4.175-1.721 1.75 0 3.133.557 4.15 1.672 1.01 1.107 1.514 2.64 1.514 4.602l-.012.647zm-2.82-2.246c-.382-1.465-1.306-2.197-2.77-2.197-.335 0-.648.053-.94.159a2.592 2.592 0 00-.807.439c-.235.187-.439.415-.61.684-.17.268-.301.573-.39.915h5.517zm5.835-4.346h2.759v1.099c.96-.952 2.043-1.428 3.247-1.428 1.383 0 2.462.435 3.235 1.306.667.74 1 1.949 1 3.625V21h-2.758v-6.64c0-1.172-.163-1.982-.488-2.43-.318-.456-.895-.683-1.734-.683-.911 0-1.558.3-1.94.903-.375.594-.562 1.632-.562 3.113V21h-2.759V9.11zM96.713.382h2.76V21h-2.76v-1.245c-1.082 1.058-2.307 1.587-3.674 1.587-1.627 0-2.978-.594-4.053-1.782-1.066-1.213-1.599-2.727-1.599-4.541 0-1.774.533-3.256 1.6-4.444 1.057-1.196 2.388-1.794 3.991-1.794 1.392 0 2.637.57 3.735 1.709V.382zM90.195 15.02c0 1.139.305 2.067.915 2.783.627.724 1.416 1.086 2.368 1.086 1.018 0 1.84-.35 2.466-1.05.627-.724.94-1.643.94-2.758s-.313-2.035-.94-2.76c-.626-.707-1.44-1.061-2.441-1.061-.944 0-1.734.358-2.368 1.074-.627.724-.94 1.62-.94 2.686zm23.572.683h-8.521c.073.977.391 1.754.952 2.332.562.57 1.282.854 2.161.854.683 0 1.249-.163 1.697-.488.439-.326.94-.928 1.501-1.807l2.319 1.294a9.432 9.432 0 01-1.135 1.575c-.399.431-.826.79-1.282 1.074-.455.277-.948.48-1.477.61a7.186 7.186 0 01-1.721.196c-1.774 0-3.198-.57-4.272-1.71-1.074-1.147-1.612-2.669-1.612-4.565 0-1.88.521-3.401 1.563-4.565 1.05-1.148 2.441-1.721 4.175-1.721 1.749 0 3.133.557 4.15 1.672 1.009 1.107 1.514 2.64 1.514 4.602l-.012.647zm-2.82-2.246c-.383-1.465-1.306-2.197-2.771-2.197-.334 0-.647.053-.94.159a2.592 2.592 0 00-.806.439 2.745 2.745 0 00-.61.684 3.217 3.217 0 00-.391.915h5.518zM45.602 40.623v3.65c-.626-.765-1.188-1.29-1.684-1.575-.488-.293-1.062-.44-1.721-.44-1.034 0-1.892.363-2.576 1.087-.684.724-1.025 1.632-1.025 2.722 0 1.115.33 2.03.989 2.747.667.716 1.517 1.074 2.55 1.074.66 0 1.242-.142 1.746-.427.489-.277 1.062-.814 1.721-1.611v3.625c-1.114.578-2.23.867-3.344.867-1.84 0-3.378-.594-4.614-1.782-1.237-1.197-1.856-2.682-1.856-4.456 0-1.774.627-3.271 1.88-4.492 1.253-1.22 2.791-1.831 4.614-1.831 1.172 0 2.279.28 3.32.842zm2.1 5.347c0-1.717.615-3.178 1.843-4.383 1.23-1.204 2.727-1.806 4.493-1.806 1.774 0 3.28.606 4.516 1.819 1.22 1.212 1.831 2.701 1.831 4.467 0 1.783-.614 3.276-1.843 4.48-1.237 1.197-2.755 1.795-4.553 1.795-1.782 0-3.276-.61-4.48-1.831-1.205-1.205-1.807-2.718-1.807-4.541zm2.808.049c0 1.188.317 2.128.952 2.82.651.7 1.51 1.05 2.576 1.05 1.074 0 1.932-.347 2.575-1.038.643-.692.965-1.616.965-2.771 0-1.156-.322-2.08-.965-2.771-.65-.7-1.51-1.05-2.575-1.05-1.05 0-1.9.35-2.552 1.05-.65.7-.976 1.603-.976 2.71zm7.654-11.768l-4.444 4.028-1.501-.927 3.357-4.444 2.588 1.343zm5.139 5.86h2.746v1.098c.53-.553.98-.928 1.355-1.123.4-.203.9-.305 1.502-.305 1.343 0 2.404.586 3.186 1.758.862-1.172 2.03-1.758 3.503-1.758 2.678 0 4.016 1.623 4.016 4.87V52h-2.758v-6.604c0-1.14-.139-1.945-.415-2.417-.285-.48-.753-.72-1.404-.72-.757 0-1.31.285-1.66.854-.342.57-.513 1.486-.513 2.747V52h-2.759v-6.567c0-2.116-.61-3.174-1.831-3.174-.773 0-1.339.289-1.697.867-.35.577-.525 1.489-.525 2.734V52h-2.746V40.11zm19.214 5.859c0-1.717.614-3.178 1.843-4.383 1.229-1.204 2.726-1.806 4.492-1.806 1.774 0 3.28.606 4.517 1.819 1.22 1.212 1.83 2.701 1.83 4.467 0 1.783-.614 3.276-1.843 4.48-1.236 1.197-2.754 1.795-4.553 1.795-1.782 0-3.275-.61-4.48-1.831-1.204-1.205-1.806-2.718-1.806-4.541zm2.807.049c0 1.188.318 2.128.952 2.82.651.7 1.51 1.05 2.576 1.05 1.074 0 1.933-.347 2.576-1.038.643-.692.964-1.616.964-2.771 0-1.156-.321-2.08-.964-2.771-.651-.7-1.51-1.05-2.576-1.05-1.05 0-1.9.35-2.551 1.05-.651.7-.977 1.603-.977 2.71zM9.897 89.469H7.15V71.11h2.747v1.294c1.082-1.082 2.311-1.623 3.687-1.623 1.635 0 2.982.602 4.04 1.806 1.074 1.197 1.611 2.706 1.611 4.53 0 1.781-.533 3.267-1.599 4.455-1.058 1.18-2.392 1.77-4.004 1.77-1.391 0-2.636-.558-3.735-1.673v7.8zm6.53-12.34c0-1.14-.308-2.068-.927-2.784-.627-.724-1.416-1.086-2.368-1.086-1.01 0-1.827.35-2.454 1.05-.626.7-.94 1.62-.94 2.758 0 1.115.314 2.035.94 2.76.619.707 1.432 1.061 2.442 1.061.952 0 1.737-.358 2.356-1.074.634-.716.952-1.611.952-2.686zm5.714-6.019h2.746v1.062c.505-.529.952-.89 1.343-1.086.399-.204.87-.305 1.416-.305.724 0 1.481.236 2.27.708l-1.257 2.514c-.52-.374-1.03-.561-1.526-.561-1.497 0-2.246 1.131-2.246 3.393V83h-2.746V71.11zm8.569 5.86c0-1.717.614-3.178 1.843-4.383 1.23-1.204 2.727-1.806 4.492-1.806 1.774 0 3.28.606 4.517 1.819 1.22 1.212 1.831 2.701 1.831 4.467 0 1.783-.614 3.276-1.843 4.48-1.237 1.197-2.755 1.795-4.553 1.795-1.783 0-3.276-.61-4.48-1.831-1.205-1.205-1.807-2.718-1.807-4.541zm2.808.049c0 1.188.317 2.128.952 2.82.65.7 1.51 1.05 2.575 1.05 1.075 0 1.933-.347 2.576-1.038.643-.692.964-1.616.964-2.771 0-1.156-.321-2.08-.964-2.771-.65-.7-1.51-1.05-2.576-1.05-1.05 0-1.9.35-2.55 1.05-.652.7-.977 1.603-.977 2.71zm15.771-3.345V83h-2.747v-9.326h-1.171V71.11h1.171v-4.358h2.747v4.358h2.136v2.564H49.29zm15.051 4.028h-8.52c.073.977.39 1.754.952 2.332.562.57 1.282.854 2.16.854.684 0 1.25-.163 1.697-.488.44-.326.94-.928 1.502-1.807l2.32 1.294a9.45 9.45 0 01-1.136 1.575c-.399.431-.826.79-1.282 1.074-.456.277-.948.48-1.477.61a7.19 7.19 0 01-1.721.196c-1.774 0-3.198-.57-4.273-1.71-1.074-1.147-1.61-2.669-1.61-4.565 0-1.88.52-3.401 1.562-4.565 1.05-1.147 2.441-1.721 4.174-1.721 1.75 0 3.134.557 4.15 1.672 1.01 1.107 1.515 2.64 1.515 4.602l-.013.647zm-2.82-2.246c-.382-1.465-1.306-2.197-2.77-2.197-.334 0-.648.053-.94.159a2.592 2.592 0 00-.806.439c-.236.187-.44.415-.61.683-.171.27-.302.574-.391.916h5.517zm17.334 7.263c0 .562-.02 1.054-.06 1.477-.033.432-.082.81-.147 1.136-.195.895-.578 1.664-1.148 2.307-1.074 1.237-2.55 1.855-4.43 1.855-1.588 0-2.894-.427-3.92-1.282-1.057-.879-1.667-2.095-1.83-3.65h2.759c.105.586.28 1.038.525 1.356.57.74 1.4 1.11 2.49 1.11 2.01 0 3.015-1.233 3.015-3.698v-1.66c-1.09 1.114-2.348 1.672-3.772 1.672-1.62 0-2.946-.586-3.98-1.758-1.041-1.188-1.562-2.673-1.562-4.456 0-1.733.484-3.206 1.453-4.418 1.041-1.286 2.417-1.93 4.126-1.93 1.497 0 2.742.558 3.735 1.673V71.11h2.746v11.61zm-2.636-5.64c0-1.155-.31-2.079-.928-2.77-.627-.708-1.428-1.062-2.405-1.062-1.041 0-1.863.386-2.466 1.16-.545.691-.817 1.586-.817 2.685 0 1.082.272 1.97.817 2.66.594.758 1.416 1.136 2.466 1.136 1.05 0 1.88-.382 2.49-1.147.562-.692.843-1.58.843-2.661zm16.93.623h-8.52c.074.977.391 1.754.953 2.332.561.57 1.281.854 2.16.854.684 0 1.25-.163 1.697-.488.44-.326.94-.928 1.501-1.807l2.32 1.294a9.45 9.45 0 01-1.135 1.575c-.4.431-.826.79-1.282 1.074-.456.277-.948.48-1.477.61a7.19 7.19 0 01-1.721.196c-1.775 0-3.199-.57-4.273-1.71-1.074-1.147-1.611-2.669-1.611-4.565 0-1.88.52-3.401 1.562-4.565 1.05-1.147 2.442-1.721 4.175-1.721 1.75 0 3.133.557 4.15 1.672 1.01 1.107 1.514 2.64 1.514 4.602l-.012.647zm-2.819-2.246c-.382-1.465-1.306-2.197-2.77-2.197-.335 0-.648.053-.94.159a2.592 2.592 0 00-.806.439c-.237.187-.44.415-.61.683-.172.27-.302.574-.392.916h5.518zm5.835-4.346h2.747v1.062c.504-.529.952-.89 1.342-1.086.399-.204.871-.305 1.416-.305.725 0 1.482.236 2.271.708l-1.257 2.514c-.521-.374-1.03-.561-1.526-.561-1.498 0-2.246 1.131-2.246 3.393V83h-2.747V71.11zm13.086 2.564V83h-2.747v-9.326h-1.171V71.11h1.171v-4.358h2.747v4.358h2.136v2.564h-2.136zm15.051 4.028h-8.52c.073.977.39 1.754.952 2.332.561.57 1.282.854 2.161.854.683 0 1.249-.163 1.696-.488.44-.326.94-.928 1.502-1.807l2.319 1.294a9.432 9.432 0 01-1.135 1.575c-.399.431-.826.79-1.282 1.074-.456.277-.948.48-1.477.61a7.192 7.192 0 01-1.721.196c-1.774 0-3.198-.57-4.273-1.71-1.074-1.147-1.611-2.669-1.611-4.565 0-1.88.521-3.401 1.563-4.565 1.049-1.147 2.441-1.721 4.174-1.721 1.75 0 3.134.557 4.151 1.672 1.009 1.107 1.513 2.64 1.513 4.602l-.012.647zm-2.82-2.246c-.382-1.465-1.306-2.197-2.771-2.197a2.74 2.74 0 00-.939.159 2.592 2.592 0 00-.806.439c-.236.187-.44.415-.611.683-.17.27-.301.574-.39.916h5.517zm-94.726 27.167v3.65c-.627-.765-1.188-1.29-1.685-1.575-.488-.293-1.062-.439-1.72-.439-1.034 0-1.893.362-2.577 1.086-.683.724-1.025 1.632-1.025 2.722 0 1.115.33 2.031.989 2.747.667.716 1.518 1.074 2.551 1.074.66 0 1.241-.142 1.746-.427.488-.277 1.062-.814 1.72-1.611v3.625c-1.114.578-2.229.867-3.344.867-1.839 0-3.377-.594-4.614-1.782-1.237-1.197-1.856-2.682-1.856-4.456 0-1.774.627-3.271 1.88-4.492 1.254-1.221 2.792-1.831 4.615-1.831a6.9 6.9 0 013.32.842zm2.1 5.347c0-1.717.614-3.178 1.843-4.383 1.229-1.204 2.726-1.806 4.492-1.806 1.774 0 3.28.606 4.517 1.819 1.22 1.212 1.83 2.701 1.83 4.467 0 1.783-.614 3.276-1.843 4.48-1.237 1.197-2.754 1.795-4.553 1.795-1.782 0-3.275-.611-4.48-1.831-1.204-1.205-1.806-2.718-1.806-4.541zm2.807.049c0 1.188.318 2.128.952 2.819.651.7 1.51 1.05 2.576 1.05 1.074 0 1.933-.346 2.576-1.037.642-.692.964-1.616.964-2.771 0-1.156-.322-2.08-.964-2.771-.651-.7-1.51-1.05-2.576-1.05-1.05 0-1.9.35-2.551 1.05-.651.699-.977 1.603-.977 2.71zm12.793-5.909h2.759v1.099c.96-.952 2.043-1.428 3.247-1.428 1.383 0 2.462.435 3.235 1.306.667.74 1 1.949 1 3.625V114h-2.758v-6.641c0-1.171-.163-1.981-.488-2.429-.318-.456-.896-.683-1.734-.683-.911 0-1.558.301-1.94.903-.375.594-.562 1.632-.562 3.113V114h-2.759v-11.89zm16.553 2.564V114H58.26v-9.326H57.09v-2.564h1.172v-4.358h2.747v4.358h2.136v2.564h-2.136zm4.004-2.564h2.746v1.062c.505-.529.952-.891 1.343-1.086.399-.204.87-.305 1.416-.305.724 0 1.481.236 2.27.708l-1.257 2.514c-.52-.374-1.03-.561-1.526-.561-1.497 0-2.246 1.131-2.246 3.393V114h-2.746v-11.89zm17.944 0h2.759V114h-2.759v-1.245c-1.131 1.058-2.348 1.587-3.65 1.587-1.644 0-3.003-.594-4.077-1.782-1.066-1.213-1.6-2.727-1.6-4.541 0-1.783.534-3.268 1.6-4.456 1.066-1.188 2.4-1.782 4.004-1.782 1.383 0 2.624.569 3.723 1.709v-1.38zm-6.519 5.909c0 1.139.306 2.067.916 2.783.627.724 1.416 1.086 2.368 1.086 1.017 0 1.84-.35 2.466-1.05.627-.724.94-1.644.94-2.758 0-1.115-.313-2.035-.94-2.759-.627-.708-1.44-1.062-2.441-1.062-.944 0-1.734.358-2.369 1.074-.626.724-.94 1.619-.94 2.686zm31.287.683h-8.52c.073.977.39 1.754.952 2.332.561.569 1.282.854 2.16.854.684 0 1.25-.163 1.697-.488.44-.326.94-.928 1.502-1.807l2.319 1.294a9.493 9.493 0 01-1.135 1.575 6.302 6.302 0 01-1.282 1.074 5.23 5.23 0 01-1.477.61 7.15 7.15 0 01-1.721.196c-1.774 0-3.198-.57-4.273-1.709-1.074-1.148-1.611-2.669-1.611-4.566 0-1.879.52-3.401 1.563-4.565 1.05-1.148 2.441-1.721 4.174-1.721 1.75 0 3.133.557 4.151 1.672 1.009 1.107 1.513 2.641 1.513 4.602l-.012.647zm-2.82-2.246c-.382-1.465-1.306-2.197-2.771-2.197-.333 0-.647.053-.94.158a2.603 2.603 0 00-.805.44c-.236.187-.44.415-.61.684-.172.268-.302.573-.391.915h5.517zm8.582-13.074V114h-2.747V93.382h2.747zm-91.785 42.292V145h-2.759v-9.326h-.976v-2.564h.976v-4.589c0-1.498.26-2.556.782-3.174.716-.863 1.757-1.294 3.125-1.294.488 0 1.102.142 1.843.427v2.808l-.28-.147c-.595-.301-1.083-.452-1.466-.452-.488 0-.818.175-.989.525-.17.342-.256 1.001-.256 1.978v3.918h2.99v2.564h-2.99zm4.578-2.564h2.746v1.062c.505-.529.953-.891 1.343-1.086.399-.204.87-.305 1.416-.305.724 0 1.481.236 2.27.708l-1.257 2.514c-.52-.374-1.03-.561-1.525-.561-1.498 0-2.247 1.131-2.247 3.393V145H26.28v-11.89zm17.944 0h2.759V145h-2.759v-1.245c-1.131 1.058-2.348 1.587-3.65 1.587-1.644 0-3.003-.594-4.077-1.782-1.066-1.213-1.599-2.727-1.599-4.541 0-1.783.533-3.268 1.6-4.456 1.065-1.188 2.4-1.782 4.003-1.782 1.383 0 2.624.569 3.723 1.709v-1.38zm-6.518 5.909c0 1.139.305 2.067.915 2.783.627.724 1.416 1.086 2.368 1.086 1.017 0 1.84-.35 2.466-1.05.627-.724.94-1.644.94-2.758 0-1.115-.313-2.035-.94-2.759-.627-.708-1.44-1.062-2.441-1.062-.944 0-1.734.358-2.368 1.074-.627.724-.94 1.619-.94 2.686zm15.49-5.909v6.824c0 1.969.777 2.954 2.332 2.954 1.554 0 2.331-.985 2.331-2.954v-6.824h2.747v6.885c0 .952-.118 1.774-.354 2.466-.228.618-.623 1.176-1.184 1.672-.928.806-2.108 1.209-3.54 1.209-1.424 0-2.6-.403-3.528-1.209-.57-.496-.973-1.054-1.209-1.672-.227-.553-.341-1.375-.341-2.466v-6.885h2.746zm19.641-8.728h2.76V145h-2.76v-1.245c-1.082 1.058-2.307 1.587-3.674 1.587-1.628 0-2.978-.594-4.053-1.782-1.066-1.213-1.599-2.727-1.599-4.541 0-1.775.533-3.256 1.6-4.444 1.057-1.196 2.388-1.794 3.991-1.794 1.392 0 2.637.569 3.735 1.709v-10.108zm-6.518 14.637c0 1.139.305 2.067.915 2.783.627.724 1.416 1.086 2.369 1.086 1.017 0 1.839-.35 2.465-1.05.627-.724.94-1.644.94-2.758 0-1.115-.313-2.035-.94-2.759-.626-.708-1.44-1.062-2.441-1.062-.944 0-1.733.358-2.368 1.074-.627.724-.94 1.619-.94 2.686zm23.572.683h-8.52c.072.977.39 1.754.951 2.332.562.569 1.282.854 2.16.854.684 0 1.25-.163 1.698-.488.44-.326.94-.928 1.501-1.807l2.32 1.294a9.459 9.459 0 01-1.136 1.575 6.304 6.304 0 01-1.282 1.074c-.455.277-.948.48-1.476.61a7.15 7.15 0 01-1.722.196c-1.774 0-3.198-.57-4.272-1.709-1.074-1.148-1.611-2.669-1.611-4.566 0-1.879.52-3.401 1.562-4.565 1.05-1.148 2.441-1.721 4.175-1.721 1.75 0 3.133.557 4.15 1.672 1.01 1.107 1.514 2.641 1.514 4.602l-.012.647zm-2.82-2.246c-.383-1.465-1.306-2.197-2.771-2.197-.334 0-.647.053-.94.158a2.609 2.609 0 00-.806.44c-.236.187-.44.415-.61.684-.171.268-.301.573-.39.915h5.517zm22.314-4.346h2.759V145h-2.759v-1.245c-1.131 1.058-2.348 1.587-3.65 1.587-1.644 0-3.003-.594-4.077-1.782-1.066-1.213-1.599-2.727-1.599-4.541 0-1.783.533-3.268 1.599-4.456 1.066-1.188 2.401-1.782 4.004-1.782 1.384 0 2.625.569 3.723 1.709v-1.38zm-6.518 5.909c0 1.139.305 2.067.915 2.783.627.724 1.416 1.086 2.368 1.086 1.018 0 1.84-.35 2.466-1.05.627-.724.94-1.644.94-2.758 0-1.115-.313-2.035-.94-2.759-.626-.708-1.44-1.062-2.441-1.062-.944 0-1.734.358-2.368 1.074-.627.724-.94 1.619-.94 2.686z" fill="#DEEDFC"/><path d="M.231 176l3.2-18.85h4.85l3.775 10.05 3.75-10.05h4.85l3.2 18.85h-4.875l-1.625-10.85-4.45 10.85h-1.95l-4.225-10.85L5.106 176H.231zm34.995-8.275c-.15-.633-.458-1.142-.925-1.525-.466-.383-1.033-.575-1.7-.575-.7 0-1.275.183-1.725.55-.433.367-.708.883-.825 1.55h5.175zm-5.3 2.625c0 1.95.917 2.925 2.75 2.925.984 0 1.725-.4 2.225-1.2h4.375c-.883 2.933-3.091 4.4-6.625 4.4-1.083 0-2.075-.158-2.975-.475-.9-.333-1.675-.8-2.325-1.4a6.268 6.268 0 01-1.475-2.15c-.35-.833-.525-1.767-.525-2.8 0-1.067.167-2.025.5-2.875.334-.867.809-1.6 1.425-2.2a6.194 6.194 0 012.225-1.375c.884-.333 1.875-.5 2.975-.5 1.084 0 2.059.167 2.925.5.867.317 1.6.783 2.2 1.4.6.617 1.059 1.375 1.375 2.275.317.883.475 1.883.475 3v.475h-9.525zm16.312-.8c0 .417.075.808.225 1.175.15.35.35.658.6.925.267.267.575.475.925.625.367.15.758.225 1.175.225.4 0 .775-.075 1.125-.225a2.59 2.59 0 00.925-.625c.267-.267.475-.575.625-.925.166-.35.25-.725.25-1.125s-.084-.775-.25-1.125a2.855 2.855 0 00-.625-.95 2.59 2.59 0 00-.925-.625 2.825 2.825 0 00-1.125-.225c-.4 0-.783.075-1.15.225a2.92 2.92 0 00-.925.625c-.25.267-.459.575-.625.925-.15.333-.225.7-.225 1.1zm5.7-14.3h4.55V176h-4.55v-1.425c-.967 1.217-2.275 1.825-3.925 1.825-.933 0-1.792-.175-2.575-.525a6.365 6.365 0 01-2.05-1.45 6.815 6.815 0 01-1.375-2.175 7.535 7.535 0 01-.475-2.7c0-.917.15-1.783.45-2.6a6.694 6.694 0 011.325-2.175 6.09 6.09 0 012.025-1.45c.8-.367 1.675-.55 2.625-.55 1.6 0 2.925.558 3.975 1.675v-9.2zm12.154 7.925V176h-4.525v-12.825h4.525zm-4.825-4.925c0-.35.067-.675.2-.975.133-.317.317-.592.55-.825.233-.233.5-.417.8-.55.317-.133.65-.2 1-.2s.675.067.975.2c.317.133.592.317.825.55.233.233.417.508.55.825a2.553 2.553 0 010 1.975c-.133.3-.317.567-.55.8a2.555 2.555 0 01-.825.55c-.3.133-.625.2-.975.2s-.683-.067-1-.2a2.636 2.636 0 01-.8-.55 2.633 2.633 0 01-.55-.8c-.133-.317-.2-.65-.2-1zm17.592 9.075c-.783-.533-1.575-.8-2.375-.8-.433 0-.841.075-1.225.225-.366.15-.691.367-.975.65a2.922 2.922 0 00-.675.975c-.15.367-.225.783-.225 1.25 0 .45.075.867.225 1.25.167.367.384.692.65.975.284.267.617.475 1 .625.384.15.792.225 1.225.225.85 0 1.642-.292 2.375-.875v3.85c-1.116.483-2.175.725-3.175.725a7.592 7.592 0 01-2.675-.475 7.06 7.06 0 01-2.225-1.35 6.978 6.978 0 01-1.525-2.125c-.383-.833-.575-1.758-.575-2.775s.184-1.942.55-2.775a6.502 6.502 0 011.5-2.175 6.548 6.548 0 012.25-1.425 7.598 7.598 0 012.825-.525c1.1 0 2.117.233 3.05.7v3.85zm6.781 2.225c0 .417.075.808.225 1.175.15.35.35.658.6.925.267.267.575.475.925.625.367.15.758.225 1.175.225.4 0 .775-.075 1.125-.225a2.59 2.59 0 00.925-.625c.267-.267.475-.575.625-.925.167-.35.25-.725.25-1.125s-.083-.775-.25-1.125a2.855 2.855 0 00-.625-.95 2.59 2.59 0 00-.925-.625 2.825 2.825 0 00-1.125-.225c-.416 0-.808.075-1.175.225a2.92 2.92 0 00-.925.625c-.25.267-.45.575-.6.925-.15.333-.225.7-.225 1.1zm5.7-6.375h4.55V176h-4.55v-1.425c-.966 1.217-2.275 1.825-3.925 1.825-.933 0-1.791-.167-2.575-.5a6.366 6.366 0 01-2.05-1.45 6.817 6.817 0 01-1.375-2.175c-.317-.833-.475-1.742-.475-2.725 0-.917.159-1.783.475-2.6a6.696 6.696 0 011.325-2.175 6.09 6.09 0 012.025-1.45c.784-.367 1.65-.55 2.6-.55 1.6 0 2.925.558 3.975 1.675v-1.275zm7.63 0h4.524v2.1c.484-.767 1.075-1.35 1.775-1.75.7-.417 1.517-.625 2.45-.625h.375c.15 0 .317.017.5.05v4.325a4.3 4.3 0 00-1.95-.45c-1.05 0-1.841.317-2.375.95-.516.617-.775 1.525-.775 2.725v5.5h-4.525v-12.825zm21.166 4.55c-.15-.633-.458-1.142-.925-1.525-.466-.383-1.033-.575-1.7-.575-.7 0-1.275.183-1.725.55-.433.367-.708.883-.825 1.55h5.175zm-5.3 2.625c0 1.95.917 2.925 2.75 2.925.984 0 1.725-.4 2.225-1.2h4.375c-.883 2.933-3.091 4.4-6.625 4.4-1.083 0-2.075-.158-2.975-.475-.9-.333-1.675-.8-2.325-1.4a6.273 6.273 0 01-1.475-2.15c-.35-.833-.525-1.767-.525-2.8 0-1.067.167-2.025.5-2.875.334-.867.809-1.6 1.425-2.2a6.204 6.204 0 012.225-1.375c.884-.333 1.875-.5 2.975-.5 1.084 0 2.059.167 2.925.5a5.79 5.79 0 012.2 1.4c.6.617 1.059 1.375 1.375 2.275.317.883.475 1.883.475 3v.475h-9.525zm11.887 3.25c0-.4.075-.775.225-1.125a2.85 2.85 0 01.625-.95c.267-.267.575-.475.925-.625a3.01 3.01 0 011.15-.225c.4 0 .775.075 1.125.225.367.15.683.358.95.625.267.267.475.583.625.95.15.35.225.725.225 1.125s-.075.783-.225 1.15c-.15.35-.358.658-.625.925a2.85 2.85 0 01-.95.625c-.35.15-.725.225-1.125.225s-.783-.075-1.15-.225a2.924 2.924 0 01-1.55-1.55 3.01 3.01 0 01-.225-1.15z" fill="#fff"/></svg>