<svg width="142" height="13" viewBox="0 0 142 13" fill="none" xmlns="http://www.w3.org/2000/svg"><path d="M7.146 7.314H1.653c.08.472.291.85.635 1.128.344.28.784.418 1.319.418.639 0 1.188-.218 1.648-.654l1.44.66a3.37 3.37 0 01-1.29 1.104c-.502.24-1.096.358-1.785.358-1.069 0-1.939-.329-2.611-.988C.337 8.682 0 7.857 0 6.866c0-.991.335-1.859 1.005-2.53.67-.67 1.51-1.005 2.522-1.005 1.073 0 1.945.336 2.617 1.005.673.671 1.01 1.557 1.01 2.658l-.007.318-.001.002zm-1.71-1.316a1.673 1.673 0 00-.668-.904 1.967 1.967 0 00-1.158-.35c-.476 0-.894.131-1.254.392-.226.163-.435.45-.628.862H5.437zM12.477 4.432L11.42 5.465c-.43-.416-.82-.624-1.171-.624-.192 0-.343.04-.451.12a.354.354 0 00-.162.296c0 .09.034.172.103.247.069.075.238.179.51.308l.627.306c.66.318 1.113.642 1.359.972.246.33.37.718.37 1.162 0 .591-.223 1.085-.667 1.48-.445.395-1.041.592-1.789.592-.994 0-1.786-.379-2.38-1.137l1.052-1.12c.2.228.435.413.704.553.27.14.509.211.718.211.226 0 .407-.052.544-.158.138-.106.207-.228.207-.367 0-.257-.248-.508-.745-.753l-.576-.28C8.569 6.73 8.019 6.05 8.019 5.236c0-.525.207-.975.623-1.349.415-.373.947-.559 1.594-.559.442 0 .859.095 1.25.285.39.19.72.462.992.816v.003zM14.267 8.414c.271 0 .503.092.695.278.192.186.288.41.288.676a.915.915 0 01-.288.679.96.96 0 01-.695.28.962.962 0 01-.696-.28.915.915 0 01-.288-.68c0-.265.096-.49.288-.675a.963.963 0 01.696-.278zM18.003 1.16h1.709l2.137 6.277 2.155-6.276h1.708l1.547 8.998h-1.694l-.988-5.683-1.96 5.683h-1.546l-1.94-5.683-1.01 5.683h-1.713l1.595-8.998zM35.23 7.315h-5.493c.078.474.291.85.635 1.129.344.278.784.419 1.32.419.639 0 1.188-.219 1.648-.655l1.441.66c-.358.498-.789.867-1.291 1.106-.502.239-1.096.358-1.786.358-1.069 0-1.939-.33-2.612-.988-.673-.659-1.01-1.483-1.01-2.473 0-.99.335-1.859 1.006-2.529.67-.67 1.511-1.005 2.522-1.005 1.072 0 1.945.336 2.617 1.005C34.9 5.014 35.236 5.9 35.236 7l-.006.318h-.003l.003-.002zM33.52 6a1.68 1.68 0 00-.67-.905 1.967 1.967 0 00-1.157-.35c-.477 0-.895.131-1.256.392-.226.163-.436.451-.628.863h3.71zM41.491.933h1.71v9.223h-1.71v-.703c-.334.31-.669.534-1.004.67-.334.136-.7.205-1.092.205-.88 0-1.641-.334-2.284-1-.642-.666-.964-1.495-.964-2.486 0-.991.31-1.87.932-2.527.622-.657 1.376-.985 2.265-.985.41 0 .793.075 1.152.225.358.15.69.378.994.68V.932h.001zm-1.799 3.94c-.529 0-.968.181-1.317.547-.35.365-.525.833-.525 1.404s.178 1.048.533 1.418c.355.371.793.556 1.314.556.52 0 .983-.181 1.336-.547.354-.365.53-.843.53-1.435 0-.593-.178-1.048-.53-1.408-.354-.358-.8-.538-1.342-.538v.003h.001zM45.62.763c.299 0 .557.106.77.318.215.212.323.469.323.77 0 .301-.107.552-.32.762a1.05 1.05 0 01-.76.316c-.296 0-.565-.107-.778-.322a1.064 1.064 0 01-.322-.78c0-.306.105-.545.317-.752a1.06 1.06 0 01.768-.312h.002zm-.855 2.74h1.71v6.653h-1.71V3.502zM54.65 4.85l-1.424.765c-.267-.273-.532-.462-.793-.569a2.421 2.421 0 00-.919-.16c-.639 0-1.157.186-1.552.559-.394.372-.592.85-.592 1.431 0 .582.189 1.028.571 1.388.38.357.88.537 1.5.537.764 0 1.36-.255 1.786-.765l1.347.9c-.731.93-1.762 1.394-3.095 1.394-1.2 0-2.137-.347-2.816-1.04-.678-.694-1.019-1.505-1.019-2.435 0-.645.166-1.237.494-1.78.331-.541.792-.968 1.382-1.279.59-.31 1.252-.464 1.982-.464.677 0 1.284.132 1.822.394.54.263.98.638 1.321 1.124v.002l.004-.002zM60.592 3.502h1.71v6.654h-1.71v-.703c-.334.31-.669.534-1.004.67-.334.135-.7.204-1.093.204-.88 0-1.64-.333-2.283-1-.643-.665-.965-1.494-.965-2.486 0-.99.31-1.87.933-2.527.622-.656 1.375-.985 2.265-.985.41 0 .792.076 1.151.226.36.15.69.378.995.679v-.735.003zm-1.8 1.37c-.528 0-.968.181-1.317.547-.349.365-.524.833-.524 1.404 0 .572.178 1.048.533 1.419.355.37.792.555 1.314.555.52 0 .983-.18 1.335-.547.354-.365.53-.842.53-1.435 0-.593-.177-1.048-.53-1.408-.354-.357-.8-.537-1.342-.537v.002h.002zM63.753 3.502h1.466v.839c.158-.33.37-.582.633-.753.263-.17.55-.256.864-.256.222 0 .454.056.696.17l-.532 1.436c-.202-.097-.365-.146-.494-.146-.263 0-.486.16-.668.478-.181.318-.272.942-.272 1.872l.006.325v2.691h-1.697V3.502h-.003.001zM74.731 7.315h-5.493c.079.474.291.85.636 1.129.344.278.784.419 1.32.419.638 0 1.188-.219 1.647-.655l1.442.66c-.359.498-.79.867-1.292 1.106-.501.239-1.096.358-1.785.358-1.07 0-1.94-.33-2.613-.988-.672-.659-1.009-1.483-1.009-2.473 0-.99.334-1.859 1.005-2.529.671-.67 1.512-1.005 2.522-1.005 1.073 0 1.945.336 2.618 1.005C74.4 5.014 74.737 5.9 74.737 7l-.006.318h-.002l.002-.002zM73.021 6a1.679 1.679 0 00-.669-.905 1.973 1.973 0 00-1.157-.35c-.477 0-.895.131-1.256.392-.226.163-.437.451-.628.863h3.71zM76.494 8.415a.97.97 0 01.695.278.905.905 0 01.288.676.917.917 0 01-.288.68.962.962 0 01-.695.28.962.962 0 01-.696-.28.913.913 0 01-.288-.68c0-.267.096-.49.288-.676a.97.97 0 01.696-.278zM83.748 3.502h1.704v5.7c0 1.125-.23 1.953-.695 2.483-.622.718-1.56 1.078-2.813 1.078-.669 0-1.229-.08-1.686-.244a3.013 3.013 0 01-1.152-.719 2.927 2.927 0 01-.695-1.152h1.885c.167.187.381.329.645.426.263.096.575.143.934.143.459 0 .828-.07 1.109-.208.28-.139.476-.318.592-.537.114-.221.173-.6.173-1.138a2.85 2.85 0 01-.945.634c-.33.128-.703.193-1.122.193-.915 0-1.687-.322-2.317-.967-.63-.645-.945-1.46-.945-2.447 0-1.055.334-1.904 1.001-2.545a3.028 3.028 0 012.167-.868c.393 0 .763.07 1.112.211.349.142.699.372 1.048.694v-.737zm-1.772 1.39c-.54 0-.983.176-1.335.528-.351.353-.526.797-.526 1.33 0 .535.181 1.01.54 1.364.359.354.81.531 1.353.531.543 0 .968-.172 1.311-.52.344-.346.517-.8.517-1.362s-.173-1.006-.52-1.353c-.346-.347-.793-.52-1.34-.52v.002zM90.276 3.332c.643 0 1.247.158 1.814.472a3.44 3.44 0 011.325 1.279c.316.537.475 1.12.475 1.743 0 .624-.16 1.215-.48 1.762-.319.547-.755.974-1.305 1.28a3.67 3.67 0 01-1.823.462c-.977 0-1.811-.34-2.503-1.018a3.334 3.334 0 01-1.037-2.474c0-1.04.39-1.906 1.17-2.6.685-.604 1.472-.905 2.363-.905l.002-.002-.001.001zm.028 1.573c-.532 0-.973.18-1.327.541-.354.362-.53.822-.53 1.386s.175 1.048.525 1.408c.349.36.791.538 1.327.538.536 0 .98-.182 1.336-.545.355-.364.533-.83.533-1.4 0-.572-.174-1.036-.524-1.391-.35-.357-.796-.537-1.34-.537zM94.062 3.502h1.742l1.722 3.928 1.718-3.928h1.733l-2.9 6.654h-1.109L94.06 3.502h.003-.001zM101.25 11.769L105.41.848h1.23l-4.167 10.92h-1.223zM108.424 1.106h5.103v1.68h-3.352V4.43h2.178v1.655h-2.178v4.073h-1.751V1.105v.001zM114.426 3.463h1.475v.842c.159-.332.372-.584.636-.757.264-.173.554-.258.87-.258.223 0 .456.058.7.173l-.536 1.446c-.202-.099-.368-.148-.498-.148-.264 0-.488.16-.671.48-.183.32-.274.948-.274 1.883l.006.326v2.708h-1.707V3.463h-.001zM124.016 3.463h1.721v6.695h-1.721V9.45c-.335.312-.672.536-1.01.673a2.877 2.877 0 01-1.098.206c-.885 0-1.652-.335-2.297-1.005-.647-.671-.97-1.505-.97-2.501s.312-1.88.938-2.542c.625-.66 1.385-.991 2.278-.991.412 0 .798.076 1.158.228.361.152.694.38 1 .683v-.738h.001zm-1.807 1.379c-.533 0-.974.183-1.325.55-.352.368-.527.838-.527 1.413 0 .575.179 1.055.537 1.428.357.373.798.56 1.322.56a1.82 1.82 0 001.344-.55c.357-.368.534-.85.534-1.443 0-.594-.178-1.054-.534-1.415-.356-.361-.806-.541-1.35-.541l-.001-.002zM127.469 3.462h1.739v3.224c0 .628.045 1.064.133 1.308.089.244.231.435.427.57.195.134.436.202.723.202.288 0 .53-.067.73-.2.201-.134.349-.33.445-.588.071-.194.107-.605.107-1.238V3.46h1.721v2.838c0 1.168-.095 1.969-.284 2.4a2.636 2.636 0 01-1.022 1.21c-.449.28-1.021.42-1.714.42-.752 0-1.36-.164-1.824-.492-.464-.327-.79-.786-.979-1.371-.134-.406-.202-1.145-.202-2.215V3.462zM140.279.878H142v9.278h-1.721v-.708c-.335.312-.672.536-1.01.673a2.877 2.877 0 01-1.098.207c-.885 0-1.652-.335-2.297-1.006-.647-.67-.97-1.505-.97-2.5 0-.997.312-1.881.938-2.542.625-.66 1.385-.992 2.278-.992.412 0 .798.076 1.158.228.361.153.694.38 1 .683V.876l.001.002zm-1.807 3.962c-.532 0-.974.184-1.325.55-.351.368-.527.838-.527 1.413 0 .575.179 1.055.537 1.428.357.373.799.56 1.322.56.524 0 .988-.183 1.345-.55.356-.367.533-.849.533-1.443 0-.594-.178-1.053-.533-1.414-.357-.362-.807-.542-1.351-.542l-.001-.002z" fill="#fff"/></svg>