<svg width="160" height="180" viewBox="0 0 160 180" fill="none" xmlns="http://www.w3.org/2000/svg"><path fill-rule="evenodd" clip-rule="evenodd" d="M98.26 9.603a86.13 86.13 0 00-47.635 14.359c-14.1 9.361-25.09 22.668-31.58 38.236a84.698 84.698 0 00-4.878 49.225 85.032 85.032 0 0023.465 43.623 85.917 85.917 0 0043.9 23.317 86.255 86.255 0 0049.539-4.848c15.667-6.449 29.058-17.369 38.479-31.38A84.818 84.818 0 00184 94.802c0-22.597-9.033-44.267-25.113-60.245C142.808 18.58 120.999 9.603 98.26 9.603z" fill="#495E89" opacity=".54"/><path fill-rule="evenodd" clip-rule="evenodd" d="M40.453 0a63.156 63.156 0 00-34.93 10.527 62.56 62.56 0 00-23.159 28.037 62.105 62.105 0 00-3.579 36.096A62.351 62.351 0 00-4.008 106.65a62.989 62.989 0 0032.192 17.098 63.247 63.247 0 0036.326-3.556 62.789 62.789 0 0028.216-23.012 62.193 62.193 0 0010.593-34.71c0-16.568-6.623-32.457-18.413-44.172C73.116 6.58 57.126 0 40.453 0z" fill="#1A2B4F" opacity=".51"/></svg>