<svg width="109" height="144" viewBox="0 0 109 144" fill="none" xmlns="http://www.w3.org/2000/svg"><path d="M.32 19V.856h13.72v1.96H2.56v5.516H13.31v1.932H2.56v6.776h11.9V19H.32zm16.863 0V.576h2.128V19h-2.128zm12.12 0V7.128h-2.212V5.364h2.212V4.328c0-3.388 1.792-4.312 3.668-4.312 1.344 0 2.604.504 3.276.924l-.7 1.624c-.28-.168-1.092-.672-2.128-.672-1.064 0-1.988.532-1.988 2.66v.812h4.34v1.764h-4.34V19h-2.128zm8.497 0V5.364h2.128v2.884c.784-1.792 2.548-3.164 5.264-3.164v2.324c-3.192 0-5.264 1.792-5.264 5.124V19H37.8zm15.45.28c-3.78 0-6.44-3.136-6.44-7.084 0-4.004 2.66-7.112 6.44-7.112 2.184 0 4.116.896 5.124 2.66v-2.38h2.128V19h-2.128v-2.38c-1.008 1.792-2.94 2.66-5.124 2.66zm.476-2.072c2.604 0 4.648-2.156 4.648-5.012 0-2.856-2.044-5.04-4.648-5.04-2.716 0-4.732 2.128-4.732 5.04 0 2.884 2.016 5.012 4.732 5.012zM68.81 19.28c-3.36 0-4.956-1.764-4.956-5.404V5.364h2.128v8.232c0 2.548 1.232 3.612 3.444 3.612 2.464 0 3.892-2.016 3.892-4.116V5.364h2.128V19h-2.044v-2.408c-.84 1.764-2.8 2.688-4.592 2.688zm16.105 0c-3.78 0-6.44-3.136-6.44-7.084 0-4.004 2.66-7.112 6.44-7.112 2.184 0 4.116.896 5.124 2.66V.576h2.128V19h-2.044v-2.38c-1.008 1.792-2.996 2.66-5.208 2.66zm.476-2.072c2.604 0 4.648-2.156 4.648-5.012 0-2.856-2.044-5.04-4.648-5.04-2.716 0-4.732 2.128-4.732 5.04 0 2.884 2.016 5.012 4.732 5.012zm16.931 2.072c-3.864 0-7.14-2.772-7.14-7.084 0-3.948 2.968-7.112 6.86-7.112 3.64 0 6.524 3.136 6.524 7.028 0 .392-.056.812-.056.84H97.393c.336 2.716 2.436 4.424 4.956 4.424 1.54 0 3.08-.532 4.2-1.456l.924 1.568a8.344 8.344 0 01-5.152 1.792zm-4.928-7.952h9.072c-.224-2.52-2.156-4.34-4.536-4.34-2.324 0-4.228 1.792-4.536 4.34zm-81.646 42.62V36.364h2.044v2.352c1.008-1.764 2.996-2.632 5.208-2.632 3.78 0 6.44 3.108 6.44 7.084 0 3.976-2.66 7.112-6.44 7.112-2.156 0-4.116-.896-5.124-2.66v6.328h-2.128zm6.776-5.74c2.716 0 4.732-2.128 4.732-5.04 0-2.884-2.016-5.012-4.732-5.012-2.604 0-4.648 2.156-4.648 5.012 0 2.856 2.044 5.04 4.648 5.04zm14.663 2.072c-3.36 0-4.956-1.764-4.956-5.404v-8.512h2.128v8.232c0 2.548 1.232 3.612 3.444 3.612 2.464 0 3.892-2.016 3.892-4.116v-7.728h2.128V50h-2.044v-2.408c-.84 1.764-2.8 2.688-4.592 2.688zm16.805 0c-3.864 0-7.14-2.772-7.14-7.084 0-3.948 2.968-7.112 6.86-7.112 3.64 0 6.524 3.136 6.524 7.028 0 .392-.056.812-.056.84H49.063c.336 2.716 2.436 4.424 4.956 4.424 1.54 0 3.08-.532 4.2-1.456l.924 1.568a8.344 8.344 0 01-5.152 1.792zm-4.928-7.952h9.072c-.224-2.52-2.156-4.34-4.536-4.34-2.324 0-4.228 1.792-4.536 4.34zM69.15 50.28c-3.78 0-6.44-3.136-6.44-7.084 0-4.004 2.66-7.112 6.44-7.112 2.184 0 4.116.896 5.124 2.66v-7.168h2.129V50h-2.044v-2.38c-1.008 1.792-2.996 2.66-5.209 2.66zm.476-2.072c2.605 0 4.648-2.156 4.648-5.012 0-2.856-2.043-5.04-4.648-5.04-2.716 0-4.732 2.128-4.732 5.04 0 2.884 2.016 5.012 4.732 5.012zm16.931 2.072c-3.864 0-7.14-2.772-7.14-7.084 0-3.948 2.968-7.112 6.86-7.112 3.64 0 6.525 3.136 6.525 7.028 0 .392-.056.812-.056.84H81.629c.337 2.716 2.436 4.424 4.956 4.424 1.54 0 3.08-.532 4.2-1.456l.925 1.568a8.344 8.344 0 01-5.152 1.792zm-4.928-7.952h9.072c-.223-2.52-2.155-4.34-4.535-4.34-2.325 0-4.228 1.792-4.537 4.34zM9.157 81V62.576h2.128V81H9.157zm5.715 0V62.576H17V81h-2.128zm12.295.28c-3.864 0-7.14-2.772-7.14-7.084 0-3.948 2.968-7.112 6.86-7.112 3.64 0 6.524 3.136 6.524 7.028 0 .392-.056.812-.056.84H22.239c.336 2.716 2.436 4.424 4.956 4.424 1.54 0 3.08-.532 4.2-1.456l.924 1.568a8.344 8.344 0 01-5.152 1.792zm-4.928-7.952h9.072c-.224-2.52-2.156-4.34-4.536-4.34-2.324 0-4.228 1.792-4.536 4.34zm20.34 11.788c-2.185 0-4.06-.728-5.349-2.016l.896-1.372c1.092 1.092 2.688 1.708 4.284 1.708 2.324 0 4.956-1.428 4.956-5.46v-.448c-.588 1.54-2.464 2.8-5.096 2.8-3.752 0-6.384-2.912-6.384-6.608 0-3.696 2.632-6.636 6.384-6.636 2.352 0 4.48 1.064 5.18 2.772v-2.492h2.044V77.92c0 5.488-3.92 7.196-6.916 7.196zm.111-6.692c2.66 0 4.676-2.016 4.676-4.872 0-2.576-2.1-4.564-4.676-4.564-2.604 0-4.62 2.044-4.62 4.732s2.016 4.704 4.62 4.704zm16.261 2.856c-3.78 0-6.44-3.136-6.44-7.084 0-4.004 2.66-7.112 6.44-7.112 2.184 0 4.116.896 5.124 2.66v-2.38h2.128V81h-2.128v-2.38c-1.008 1.792-2.94 2.66-5.124 2.66zm.476-2.072c2.604 0 4.648-2.156 4.648-5.012 0-2.856-2.044-5.04-4.648-5.04-2.716 0-4.732 2.128-4.732 5.04 0 2.884 2.016 5.012 4.732 5.012zM69.778 81V67.364h2.128v2.884c.784-1.792 2.548-3.164 5.264-3.164v2.324c-3.192 0-5.264 1.792-5.264 5.124V81h-2.128zm21.822.28c-3.78 0-6.44-3.136-6.44-7.084 0-4.004 2.66-7.112 6.44-7.112 2.184 0 4.116.896 5.124 2.66v-2.38h2.128V81h-2.128v-2.38c-1.008 1.792-2.94 2.66-5.124 2.66zm.476-2.072c2.604 0 4.648-2.156 4.648-5.012 0-2.856-2.044-5.04-4.648-5.04-2.716 0-4.732 2.128-4.732 5.04 0 2.884 2.016 5.012 4.732 5.012zM17.495 112.28c-2.408 0-3.836-1.176-3.836-4.368v-7.784h-2.044v-1.764h2.044v-2.94l2.128-.392v3.332h4.648v1.764h-4.648v7.84c0 1.876.812 2.408 1.904 2.408 1.26 0 2.24-.756 2.24-.756l.7 1.652c-.532.364-1.652 1.008-3.136 1.008zm5.662-.28V98.364h2.128v2.884c.784-1.792 2.548-3.164 5.264-3.164v2.324c-3.192 0-5.264 1.792-5.264 5.124V112h-2.128zm15.45.28c-3.78 0-6.44-3.136-6.44-7.084 0-4.004 2.66-7.112 6.44-7.112 2.184 0 4.117.896 5.124 2.66v-2.38h2.128V112h-2.128v-2.38c-1.008 1.792-2.94 2.66-5.123 2.66zm.477-2.072c2.603 0 4.647-2.156 4.647-5.012 0-2.856-2.044-5.04-4.648-5.04-2.715 0-4.731 2.128-4.731 5.04 0 2.884 2.016 5.012 4.732 5.012zm14.83 1.876l-6.02-13.72h2.157l3.864 8.708c.56 1.26.98 2.716.98 2.716s.42-1.456.98-2.716l3.836-8.708h2.156l-5.992 13.72h-1.96zM68.416 96.18l2.268-3.724h2.324l-2.632 3.724h-1.96zm1.736 16.1c-3.864 0-7.14-2.772-7.14-7.084 0-3.948 2.968-7.112 6.86-7.112 3.64 0 6.524 3.136 6.524 7.028 0 .392-.056.812-.056.84H65.223c.336 2.716 2.436 4.424 4.956 4.424 1.54 0 3.08-.532 4.2-1.456l.924 1.568a8.344 8.344 0 01-5.152 1.792zm-4.928-7.952h9.072c-.224-2.52-2.156-4.34-4.536-4.34-2.324 0-4.228 1.792-4.536 4.34zm18.8 7.952c-2.772 0-4.536-1.26-5.32-2.072l.868-1.736c1.008.98 2.464 1.792 4.452 1.792 1.876 0 3.416-.868 3.416-2.1 0-1.428-1.652-1.82-3.304-2.24-2.52-.644-4.816-1.344-4.816-3.948 0-2.464 2.576-3.892 4.872-3.892 1.876 0 3.248.504 4.648 1.456l-.84 1.736c-1.148-.784-2.352-1.176-3.78-1.176-1.4 0-2.716.784-2.716 1.848 0 1.344 1.512 1.652 3.108 1.988 2.464.56 5.012 1.484 5.012 4.172 0 2.884-2.94 4.172-5.6 4.172zm-47.165 31c-3.78 0-6.44-3.136-6.44-7.084 0-4.004 2.66-7.112 6.44-7.112 2.184 0 4.116.896 5.123 2.66v-7.168h2.128V143h-2.044v-2.38c-1.008 1.792-2.995 2.66-5.207 2.66zm.476-2.072c2.603 0 4.647-2.156 4.647-5.012 0-2.856-2.044-5.04-4.648-5.04-2.715 0-4.731 2.128-4.731 5.04 0 2.884 2.016 5.012 4.732 5.012zm16.93 2.072c-3.863 0-7.14-2.772-7.14-7.084 0-3.948 2.969-7.112 6.86-7.112 3.64 0 6.525 3.136 6.525 7.028 0 .392-.056.812-.056.84H49.337c.336 2.716 2.436 4.424 4.956 4.424 1.54 0 3.08-.532 4.2-1.456l.924 1.568a8.344 8.344 0 01-5.152 1.792zm-4.927-7.952h9.072c-.224-2.52-2.156-4.34-4.536-4.34-2.324 0-4.228 1.792-4.536 4.34zm15.243 7.952c-.84 0-1.456-.672-1.456-1.484 0-.812.644-1.484 1.456-1.484.812 0 1.484.672 1.484 1.484 0 .812-.672 1.484-1.484 1.484zm5.688 0c-.84 0-1.457-.672-1.457-1.484 0-.812.644-1.484 1.456-1.484.813 0 1.484.672 1.484 1.484 0 .812-.672 1.484-1.484 1.484zm5.687 0c-.84 0-1.456-.672-1.456-1.484 0-.812.644-1.484 1.456-1.484.812 0 1.484.672 1.484 1.484 0 .812-.672 1.484-1.484 1.484z" fill="#fff" fill-opacity=".75"/></svg>