<svg width="121" height="26" viewBox="0 0 121 26" fill="none" xmlns="http://www.w3.org/2000/svg"><path d="M9.594 25.83c-5.181 0-9.108-3.894-9.108-8.745 0-4.884 3.927-8.778 9.108-8.778 5.18 0 9.108 3.894 9.108 8.778 0 4.851-3.927 8.745-9.108 8.745zm0-5.28c1.782 0 3.036-1.419 3.036-3.465 0-2.013-1.254-3.498-3.036-3.498s-3.036 1.485-3.036 3.498c0 2.046 1.254 3.465 3.036 3.465zm27.884 5.28c-5.115 0-9.47-3.201-9.47-8.745 0-4.884 3.794-8.778 8.777-8.778 4.785 0 8.448 3.894 8.448 8.778 0 1.023-.132 1.947-.132 1.947H33.914c.495 1.584 1.98 2.178 3.597 2.178 1.42 0 2.937-.429 3.993-1.023l2.013 4.059c-1.88 1.155-3.96 1.584-6.039 1.584zM33.75 15.633h6.006c-.198-1.551-1.419-2.607-2.97-2.607-1.485 0-2.673 1.056-3.036 2.607zM47.544 25.5V8.637h5.676v1.848c1.254-1.419 3.201-2.178 5.082-2.178 2.706 0 4.158 1.089 4.95 2.607 1.452-2.112 3.696-2.607 5.38-2.607 5.444 0 5.906 4.389 5.906 7.788V25.5h-6.006v-8.712c0-2.013-.56-2.937-1.88-2.937-1.783 0-2.608 1.617-2.608 3.696V25.5h-6.006v-8.712c0-2.013-.56-2.937-1.88-2.937-1.783 0-2.608 1.617-2.608 3.696V25.5h-6.006zm36.352.33c-4.686 0-7.227-3.894-7.227-8.745 0-4.884 2.541-8.778 7.227-8.778 1.353 0 3.597.462 4.587 2.211V8.637h5.676V25.5h-5.676v-1.881c-.924 1.716-3.234 2.211-4.587 2.211zm1.584-5.28c1.584 0 2.706-1.419 2.706-3.465 0-2.013-1.122-3.498-2.706-3.498-1.584 0-2.706 1.485-2.706 3.498 0 2.046 1.122 3.465 2.706 3.465zm11.306 4.95V8.637h6.006V25.5h-6.006zm2.97-18.15c-1.848 0-3.399-1.551-3.399-3.399 0-1.881 1.551-3.432 3.4-3.432 1.913 0 3.464 1.551 3.464 3.432 0 1.848-1.551 3.399-3.465 3.399zm5.667 18.15V3.786h6.006V25.5h-6.006zm12.168.33c-1.881 0-3.267-1.419-3.267-3.234s1.386-3.234 3.267-3.234c1.914 0 3.333 1.419 3.333 3.234s-1.419 3.234-3.333 3.234z" fill="#fff"/></svg>