<svg width="112" height="134" viewBox="0 0 112 134" fill="none" xmlns="http://www.w3.org/2000/svg"><path d="M77.149 4.471h-59.77c-7.073 0-12.807 5.583-12.807 12.469v99.75c0 6.886 5.734 12.469 12.808 12.469h59.769c7.073 0 12.807-5.583 12.807-12.469V16.94c0-6.886-5.734-12.469-12.807-12.469z" fill="#F2F2F2"/><path d="M89.956 16.94c0-3.307-1.349-6.479-3.75-8.817-2.403-2.338-5.66-3.652-9.057-3.652h-59.77c-3.396 0-6.654 1.314-9.056 3.652-2.402 2.338-3.751 5.51-3.751 8.817v16.625h85.384V16.94zM4.572 116.69c0 3.307 1.35 6.478 3.751 8.817 2.402 2.338 5.66 3.652 9.056 3.652h59.77c3.397 0 6.654-1.314 9.056-3.652 2.402-2.339 3.751-5.51 3.751-8.817v-16.625H4.572v16.625z" fill="#C1C5C8"/><path d="M107.033 33.565v41.562c0 1.103-.45 2.16-1.25 2.94a4.33 4.33 0 01-3.019 1.217H81.418L68.61 91.752 55.803 79.284H42.995a4.329 4.329 0 01-3.019-1.218 4.102 4.102 0 01-1.25-2.939V33.565c0-1.102.45-2.16 1.25-2.939a4.329 4.329 0 013.019-1.217h59.769a4.33 4.33 0 013.019 1.217c.8.78 1.25 1.837 1.25 2.939z" fill="#F2F2F2"/><path d="M102.764 25.252h-8.538V16.94c0-4.41-1.8-8.638-5.002-11.756C86.02 2.066 81.678.314 77.149.314h-59.77c-4.529 0-8.872 1.752-12.075 4.87C2.102 8.302.302 12.531.302 16.94v99.75c0 4.409 1.8 8.638 5.002 11.756 3.203 3.117 7.546 4.869 12.075 4.869h59.77c4.529 0 8.872-1.752 12.075-4.869 3.202-3.118 5.002-7.347 5.002-11.756V95.909c0-1.103-.45-2.16-1.25-2.94a4.329 4.329 0 00-3.02-1.217 4.329 4.329 0 00-3.019 1.218c-.8.78-1.25 1.836-1.25 2.939v20.781c0 2.205-.9 4.319-2.5 5.878a8.656 8.656 0 01-6.038 2.434h-59.77a8.657 8.657 0 01-6.037-2.434 8.202 8.202 0 01-2.501-5.878V16.94c0-2.205.9-4.319 2.5-5.878a8.658 8.658 0 016.038-2.435h59.77c2.264 0 4.436.876 6.037 2.435a8.202 8.202 0 012.501 5.878v8.312H42.995a8.658 8.658 0 00-6.038 2.435 8.202 8.202 0 00-2.5 5.878v41.562c0 2.205.899 4.32 2.5 5.878a8.658 8.658 0 006.038 2.435h11.057L65.58 94.703c.397.39.87.7 1.39.91a4.369 4.369 0 003.283 0c.52-.21.993-.52 1.39-.91L83.167 83.44h19.596a8.659 8.659 0 006.038-2.435 8.203 8.203 0 002.5-5.878V33.565a8.203 8.203 0 00-2.5-5.878 8.66 8.66 0 00-6.038-2.435zm0 49.875H81.418a4.37 4.37 0 00-1.64.309 4.28 4.28 0 00-1.391.897l-9.777 9.56-9.776-9.56a4.28 4.28 0 00-1.393-.897 4.371 4.371 0 00-1.639-.309H42.995V33.565h59.769v41.562z" fill="#101B31"/><path d="M102.764 25.252h-59.77a8.657 8.657 0 00-6.037 2.435 8.202 8.202 0 00-2.5 5.878v41.562c0 2.205.899 4.32 2.5 5.878a8.657 8.657 0 006.038 2.435h11.057L65.58 94.703c.397.39.87.7 1.39.91a4.368 4.368 0 003.283 0 4.28 4.28 0 001.39-.91L83.167 83.44h19.596a8.659 8.659 0 006.038-2.435 8.203 8.203 0 002.5-5.878V33.565a8.203 8.203 0 00-2.5-5.878 8.66 8.66 0 00-6.038-2.435zm0 49.875H81.418a4.371 4.371 0 00-1.64.309 4.28 4.28 0 00-1.391.897l-9.777 9.56-9.776-9.56a4.28 4.28 0 00-1.393-.897 4.37 4.37 0 00-1.639-.309H42.995V33.565h59.769v41.562z" fill="#C80000"/><path d="M60.072 50.19h25.615a4.328 4.328 0 003.019-1.217c.8-.78 1.25-1.837 1.25-2.94 0-1.102-.45-2.159-1.25-2.938a4.329 4.329 0 00-3.019-1.218H60.072a4.329 4.329 0 00-3.02 1.218c-.8.78-1.25 1.836-1.25 2.939 0 1.102.45 2.16 1.25 2.939.802.78 1.888 1.217 3.02 1.217zM60.072 66.815h25.615a4.329 4.329 0 003.019-1.217c.8-.78 1.25-1.837 1.25-2.94 0-1.102-.45-2.159-1.25-2.938a4.329 4.329 0 00-3.019-1.218H60.072a4.329 4.329 0 00-3.02 1.218c-.8.78-1.25 1.836-1.25 2.939 0 1.102.45 2.16 1.25 2.939a4.33 4.33 0 003.02 1.217z" fill="#C80000"/><path d="M47.264 117.231c2.358 0 4.27-1.922 4.27-4.292s-1.912-4.291-4.27-4.291c-2.358 0-4.27 1.921-4.27 4.291s1.912 4.292 4.27 4.292z" fill="#101B31"/></svg>