<svg width="128" height="137" viewBox="0 0 128 137" fill="none" xmlns="http://www.w3.org/2000/svg"><path d="M76.8 4.281H17.067c-7.07 0-12.8 5.75-12.8 12.844v102.75c0 7.094 5.73 12.844 12.8 12.844H76.8c7.07 0 12.8-5.75 12.8-12.844V17.125c0-7.093-5.73-12.844-12.8-12.844z" fill="#F2F2F2"/><path d="M89.6 17.125c0-3.406-1.349-6.673-3.749-9.082A12.778 12.778 0 0076.8 4.281H17.067c-3.395 0-6.65 1.354-9.051 3.762a12.866 12.866 0 00-3.75 9.082V34.25H89.6V17.125zM4.267 119.875c0 3.406 1.348 6.673 3.749 9.082a12.777 12.777 0 009.05 3.762H76.8c3.395 0 6.65-1.353 9.051-3.762a12.867 12.867 0 003.75-9.082V102.75H4.266v17.125z" fill="#C1C5C8"/><path d="M76.8 137H17.067a17.036 17.036 0 01-12.068-5.016A17.153 17.153 0 010 119.875V17.125c0-4.542 1.798-8.898 4.999-12.11A17.037 17.037 0 0117.067 0H76.8c4.526 0 8.867 1.804 12.068 5.016a17.155 17.155 0 014.999 12.109v102.75c0 4.542-1.798 8.898-4.999 12.109A17.036 17.036 0 0176.8 137zM17.067 8.562a8.519 8.519 0 00-6.034 2.508 8.577 8.577 0 00-2.5 6.055v102.75c0 2.271.9 4.449 2.5 6.055a8.522 8.522 0 006.034 2.508H76.8a8.522 8.522 0 006.034-2.508 8.579 8.579 0 002.5-6.055V17.125c0-2.27-.9-4.449-2.5-6.055A8.519 8.519 0 0076.8 8.562H17.067z" fill="#101B31"/><path d="M46.933 25.688H29.867a4.26 4.26 0 01-3.017-1.254 4.288 4.288 0 010-6.055 4.26 4.26 0 013.017-1.254h17.066a4.26 4.26 0 013.017 1.254 4.289 4.289 0 010 6.055 4.26 4.26 0 01-3.017 1.254zM106.667 89.906a4.258 4.258 0 01-3.017-1.254 4.29 4.29 0 01-1.25-3.027v-34.25a4.29 4.29 0 011.25-3.027 4.258 4.258 0 016.034 0 4.289 4.289 0 011.249 3.027v34.25a4.288 4.288 0 01-1.249 3.027 4.26 4.26 0 01-3.017 1.254zM123.733 77.063a4.262 4.262 0 01-3.017-1.254 4.289 4.289 0 01-1.249-3.028V59.938c0-1.136.449-2.225 1.249-3.028a4.259 4.259 0 016.034 0 4.29 4.29 0 011.25 3.028V72.78a4.29 4.29 0 01-1.25 3.028 4.258 4.258 0 01-3.017 1.254zM64 25.688a4.274 4.274 0 004.267-4.282A4.274 4.274 0 0064 17.126a4.274 4.274 0 00-4.267 4.28A4.274 4.274 0 0064 25.688zM46.933 120.954a4.274 4.274 0 004.267-4.282 4.274 4.274 0 00-4.267-4.281 4.274 4.274 0 00-4.266 4.281 4.274 4.274 0 004.266 4.282z" fill="#101B31"/><path d="M46.677 90.335c12.136 0 21.974-9.872 21.974-22.049s-9.838-22.048-21.974-22.048c-12.135 0-21.973 9.871-21.973 22.048 0 12.177 9.838 22.049 21.973 22.049z" fill="#C80000"/><path d="M46.677 83.313a3.761 3.761 0 003.755-3.767 3.761 3.761 0 00-3.755-3.768 3.761 3.761 0 00-3.754 3.768 3.761 3.761 0 003.754 3.767zM46.677 72.054a3.744 3.744 0 002.655-1.104 3.767 3.767 0 001.1-2.664v-11.26a3.78 3.78 0 00-.94-2.919 3.755 3.755 0 00-2.793-1.249 3.744 3.744 0 00-2.793 1.25 3.772 3.772 0 00-.94 2.919V68.5a3.773 3.773 0 001.156 2.513 3.748 3.748 0 002.555 1.04z" fill="#fff"/></svg>