<svg width="121" height="49" viewBox="0 0 121 49" fill="none" xmlns="http://www.w3.org/2000/svg"><rect x="1" y="1" width="119" height="47" rx="5" fill="#FF9759" stroke="#F2B795" stroke-width="2"/><path d="M24.267 22l3.93-9.72h2.94l3.93 9.72h-2.91l-.45-1.26h-4.08l-.45 1.26h-2.91zm4.125-3.45h2.55l-1.155-3.285c-.09-.24-.105-.33-.12-.39 0 0-.03.135-.12.39l-1.155 3.285zM36.317 22v-9.72h4.29c2.985 0 4.515 1.725 4.515 3.84 0 2.115-1.53 3.84-4.53 3.84h-1.425V22h-2.85zm2.85-4.455h1.5c.84 0 1.44-.63 1.44-1.425s-.6-1.425-1.425-1.425h-1.515v2.85zM46.754 22v-9.72h4.29c2.985 0 4.515 1.725 4.515 3.84 0 1.125-.51 2.28-1.53 2.985L55.844 22h-3.255l-1.11-2.085c-.3.03-.465.045-.705.045h-1.17V22h-2.85zm2.85-4.455h1.47c.885 0 1.47-.645 1.47-1.425 0-.795-.6-1.425-1.455-1.425h-1.485v2.85zM57.205 22v-9.72h7.725v2.415h-4.875v1.185h4.68v2.385h-4.68v1.32h5.055V22h-7.905zm9.338 0v-9.72h2.475l3.09 4.305c.225.3.435.735.435.735v-5.04h2.85V22h-2.475l-3.09-4.23c-.225-.3-.435-.735-.435-.735V22h-2.85zm10.803 0v-9.72h4.05c3.255 0 5.295 2.205 5.295 4.86 0 2.655-2.04 4.86-5.295 4.86h-4.05zm2.85-2.415h1.095c1.455 0 2.385-1.035 2.385-2.445 0-1.395-.93-2.445-2.385-2.445h-1.095v4.89zM88.34 22v-9.72h7.725v2.415H91.19v1.185h4.68v2.385h-4.68v1.32h5.055V22H88.34zM43.476 38.18c-3.09 0-5.145-2.235-5.145-5.04 0-2.775 2.055-5.01 5.145-5.01 1.485 0 2.82.525 3.705 1.41l-1.875 1.935c-.69-.705-1.245-.765-1.71-.765-1.26 0-2.295 1.02-2.295 2.43 0 1.44.96 2.46 2.295 2.46.795 0 1.53-.36 2.07-1.08l1.815 1.995c-.975 1.08-2.34 1.665-4.005 1.665zm9.94 0c-3.12 0-5.205-2.235-5.205-5.04 0-2.775 2.085-5.01 5.205-5.01s5.22 2.235 5.22 5.01c0 2.805-2.1 5.04-5.22 5.04zm0-2.58c1.32 0 2.25-1.02 2.25-2.46 0-1.41-.93-2.43-2.25-2.43-1.23 0-2.235 1.02-2.235 2.43 0 1.44.93 2.46 2.235 2.46zm-1.275-7.8l1.575-2.685h2.625L54.166 27.8h-2.025zm8.14 10.2v-9.72h2.43l1.905 2.73c.315.465.825 1.26.825 1.26s.51-.795.825-1.26l1.905-2.73h2.43V38h-2.85v-4.92s-.495.795-.765 1.17l-1.545 2.16-1.56-2.16c-.27-.375-.75-1.14-.75-1.14V38h-2.85zm17.173.18c-3.12 0-5.205-2.235-5.205-5.04 0-2.775 2.085-5.01 5.205-5.01s5.22 2.235 5.22 5.01c0 2.805-2.1 5.04-5.22 5.04zm0-2.58c1.32 0 2.25-1.02 2.25-2.46 0-1.41-.93-2.43-2.25-2.43-1.23 0-2.235 1.02-2.235 2.43 0 1.44.93 2.46 2.235 2.46z" fill="#101B31"/></svg>