<svg width="240" height="21" viewBox="0 0 240 21" fill="none" xmlns="http://www.w3.org/2000/svg"><path d="M12.078 11.464H2.794c.135.828.492 1.487 1.073 1.974.582.49 1.325.733 2.229.733 1.08 0 2.008-.382 2.785-1.144l2.434 1.155c-.606.871-1.333 1.514-2.18 1.932-.848.418-1.853.625-3.016.625-1.807 0-3.278-.575-4.414-1.728C.57 13.858 0 12.416 0 10.681c0-1.735.567-3.253 1.699-4.427 1.132-1.174 2.553-1.76 4.262-1.76 1.813 0 3.288.588 4.424 1.76 1.136 1.174 1.705 2.724 1.705 4.652l-.01.556-.002.002zm-2.89-2.301a2.923 2.923 0 00-1.13-1.584c-.562-.407-1.212-.61-1.956-.61-.806 0-1.512.228-2.12.684-.383.285-.736.787-1.062 1.51H9.19zM21.088 6.422L19.3 8.23c-.727-.729-1.388-1.092-1.98-1.092-.324 0-.58.07-.762.208a.625.625 0 00-.1.951c.117.133.403.313.862.54l1.06.536c1.115.556 1.882 1.123 2.297 1.7.415.578.625 1.256.625 2.033 0 1.036-.376 1.899-1.128 2.59-.752.693-1.759 1.037-3.022 1.037-1.68 0-3.02-.664-4.023-1.99l1.778-1.96c.338.399.735.722 1.19.968.455.246.86.37 1.213.37.382 0 .688-.093.92-.278.233-.184.35-.399.35-.642 0-.45-.42-.889-1.26-1.317l-.974-.491c-1.863-.95-2.793-2.138-2.793-3.564 0-.92.35-1.707 1.053-2.36.702-.654 1.601-.979 2.694-.979.747 0 1.451.166 2.112.498.66.331 1.22.808 1.678 1.428l-.002.006zM24.112 13.39c.46 0 .852.161 1.176.487.324.325.486.718.486 1.182 0 .464-.162.861-.486 1.189a1.594 1.594 0 01-1.176.491c-.459 0-.85-.164-1.175-.491a1.63 1.63 0 01-.486-1.189c0-.464.162-.859.486-1.182a1.598 1.598 0 011.175-.488zM30.428.697h2.887l3.612 10.983L40.57.697h2.887l2.615 15.746h-2.864l-1.67-9.944-3.31 9.944h-2.616l-3.277-9.944-1.71 9.944h-2.893L30.428.697zM59.543 11.466H50.26c.133.83.492 1.487 1.074 1.977.582.487 1.325.732 2.23.732 1.08 0 2.01-.382 2.786-1.146l2.436 1.157c-.606.87-1.333 1.516-2.183 1.934-.847.418-1.852.626-3.017.626-1.807 0-3.278-.576-4.416-1.728-1.136-1.153-1.705-2.596-1.705-4.329 0-1.732.565-3.253 1.699-4.424 1.134-1.172 2.554-1.76 4.262-1.76 1.813 0 3.288.588 4.424 1.76 1.136 1.176 1.705 2.723 1.705 4.65l-.01.556h-.005l.004-.005zm-2.89-2.301a2.934 2.934 0 00-1.13-1.584c-.564-.407-1.214-.61-1.957-.61-.806 0-1.512.228-2.123.684-.382.285-.737.79-1.061 1.51h6.27zM70.126.299h2.891v16.14h-2.891v-1.23c-.565.542-1.13.934-1.697 1.172a4.726 4.726 0 01-1.847.359c-1.487 0-2.772-.584-3.859-1.75-1.086-1.165-1.63-2.616-1.63-4.35 0-1.735.523-3.273 1.576-4.423 1.051-1.15 2.325-1.725 3.828-1.725.692 0 1.34.133 1.946.395.607.263 1.166.662 1.68 1.189V.299h.003zm-3.04 6.894c-.894 0-1.638.317-2.227.958-.59.638-.887 1.457-.887 2.457 0 1 .3 1.833.901 2.482.6.649 1.34.972 2.22.972.881 0 1.662-.317 2.258-.957.598-.639.895-1.475.895-2.512s-.299-1.833-.895-2.463c-.598-.626-1.352-.941-2.268-.941v.004h.002zM77.104 0c.505 0 .941.187 1.303.557.361.371.544.82.544 1.348 0 .527-.18.966-.54 1.333-.36.366-.787.553-1.286.553-.498 0-.953-.187-1.314-.563a1.897 1.897 0 01-.545-1.365c0-.536.179-.954.536-1.317A1.76 1.76 0 0177.1 0h.004zM75.66 4.794h2.891V16.44h-2.891V4.794zM92.365 7.152l-2.405 1.34c-.451-.479-.9-.808-1.34-.995-.443-.187-.96-.28-1.554-.28-1.08 0-1.956.324-2.623.977-.667.651-1.001 1.487-1.001 2.505 0 1.019.32 1.798.966 2.428.641.626 1.487.94 2.534.94 1.292 0 2.299-.447 3.02-1.339l2.276 1.577c-1.236 1.626-2.978 2.438-5.232 2.438-2.027 0-3.612-.607-4.758-1.82-1.147-1.214-1.722-2.634-1.722-4.261 0-1.128.28-2.166.835-3.115a5.978 5.978 0 012.334-2.238c.997-.542 2.117-.813 3.35-.813 1.145 0 2.17.231 3.08.69a5.834 5.834 0 012.233 1.966v.005l.007-.005zM102.409 4.794h2.891v11.644h-2.891v-1.23c-.565.542-1.13.934-1.697 1.172a4.728 4.728 0 01-1.847.359c-1.487 0-2.772-.584-3.859-1.75-1.086-1.165-1.63-2.616-1.63-4.35 0-1.735.523-3.273 1.576-4.423 1.051-1.15 2.324-1.725 3.828-1.725.692 0 1.34.133 1.946.395.607.263 1.165.662 1.681 1.189V4.79v.004h.002zm-3.041 2.398c-.893 0-1.637.317-2.227.958-.59.638-.887 1.457-.887 2.457 0 1 .302 1.833.902 2.482.6.649 1.34.972 2.22.972.881 0 1.662-.317 2.258-.957.598-.639.895-1.475.895-2.512s-.299-1.833-.895-2.463c-.598-.626-1.352-.941-2.268-.941v.004h.002zM107.752 4.794h2.478v1.468c.266-.577.625-1.018 1.07-1.317.444-.298.93-.449 1.46-.449.374 0 .766.099 1.176.298l-.9 2.514c-.34-.17-.617-.256-.835-.256-.444 0-.82.279-1.128.835-.307.557-.461 1.649-.461 3.277l.011.569v4.71h-2.869V4.794h-.004.002zM126.306 11.466h-9.284c.133.83.493 1.487 1.074 1.977.582.487 1.325.732 2.231.732 1.08 0 2.008-.382 2.785-1.146l2.436 1.157c-.606.87-1.333 1.516-2.183 1.934-.847.418-1.852.626-3.017.626-1.807 0-3.278-.576-4.416-1.728-1.136-1.153-1.705-2.596-1.705-4.329 0-1.732.565-3.253 1.699-4.424 1.134-1.172 2.554-1.76 4.262-1.76 1.813 0 3.288.588 4.424 1.76 1.136 1.176 1.705 2.723 1.705 4.65l-.011.556h-.004l.004-.005zm-2.891-2.301a2.932 2.932 0 00-1.13-1.584c-.56-.405-1.213-.61-1.956-.61-.806 0-1.512.228-2.123.684-.382.285-.737.79-1.061 1.51h6.27zM129.285 13.392c.457 0 .852.163 1.176.487.324.323.486.72.486 1.182 0 .462-.162.861-.486 1.189a1.598 1.598 0 01-1.176.491c-.457 0-.852-.164-1.176-.491a1.626 1.626 0 01-.486-1.189c0-.466.162-.857.486-1.182a1.61 1.61 0 011.176-.487zM141.546 4.794h2.881v9.975c0 1.968-.391 3.417-1.176 4.345C142.2 20.37 140.615 21 138.497 21c-1.13 0-2.077-.14-2.85-.426-.768-.286-1.421-.704-1.946-1.258-.53-.552-.92-1.227-1.176-2.016h3.187c.282.327.643.575 1.09.745.444.168.972.25 1.578.25.775 0 1.4-.122 1.874-.363.473-.244.806-.557 1.001-.94.193-.387.293-1.05.293-1.992-.509.515-1.043.884-1.597 1.11-.559.224-1.188.337-1.897.337-1.547 0-2.851-.563-3.917-1.692-1.063-1.128-1.597-2.554-1.597-4.282 0-1.846.565-3.333 1.693-4.454 1.022-1.013 2.245-1.519 3.661-1.519.665 0 1.29.122 1.88.37.59.248 1.182.65 1.772 1.214v-1.29zm-2.995 2.432c-.912 0-1.662.309-2.256.924-.594.617-.889 1.394-.889 2.329 0 .935.306 1.766.912 2.386.606.62 1.369.93 2.287.93.918 0 1.636-.303 2.216-.91.582-.606.874-1.402.874-2.385 0-.983-.292-1.76-.88-2.367-.584-.607-1.34-.909-2.264-.909v.002zM152.579 4.496a6.08 6.08 0 013.066.826 5.915 5.915 0 012.239 2.238c.535.941.803 1.96.803 3.052a6.19 6.19 0 01-.81 3.082 5.847 5.847 0 01-2.208 2.241c-.93.54-1.96.809-3.08.809-1.651 0-3.061-.595-4.231-1.783-1.169-1.189-1.753-2.63-1.753-4.328 0-1.821.661-3.337 1.98-4.551 1.157-1.056 2.486-1.583 3.992-1.583l.004-.005-.002.002zm.048 2.754c-.9 0-1.645.315-2.244.947-.598.632-.895 1.438-.895 2.425 0 .987.295 1.834.887 2.463.59.63 1.338.941 2.243.941.906 0 1.658-.317 2.258-.953.6-.636.901-1.451.901-2.45 0-1-.294-1.813-.886-2.435-.59-.623-1.344-.938-2.264-.938zM158.978 4.795h2.945l2.91 6.873 2.903-6.873h2.929l-4.902 11.644h-1.873l-4.915-11.644h.005-.002zM171.126 19.261L178.157.15h2.079l-7.043 19.112h-2.067zM183.252.601h8.624v2.94h-5.664v2.875h3.68v2.896h-3.68v7.128h-2.96V.6.6zM193.396 4.726h2.493V6.2c.27-.582.629-1.023 1.075-1.325a2.568 2.568 0 011.471-.452c.376 0 .77.1 1.182.303l-.906 2.53c-.34-.172-.621-.258-.841-.258-.447 0-.825.279-1.134.84-.31.56-.463 1.659-.463 3.295l.01.57v4.738h-2.885V4.726h-.002zM209.605 4.726h2.908V16.44h-2.908v-1.239c-.567.546-1.136.94-1.707 1.179a4.717 4.717 0 01-1.857.36c-1.496 0-2.792-.585-3.882-1.76-1.093-1.173-1.639-2.633-1.639-4.376 0-1.742.528-3.29 1.585-4.447 1.057-1.155 2.341-1.735 3.851-1.735.695 0 1.348.132 1.956.4a5.333 5.333 0 011.691 1.194V4.725h.002zm-3.055 2.412c-.9 0-1.645.322-2.239.964-.594.643-.891 1.466-.891 2.472s.303 1.846.907 2.499c.605.653 1.35.98 2.235.98.885 0 1.67-.32 2.272-.963.603-.643.902-1.485.902-2.524 0-1.04-.301-1.844-.902-2.476-.602-.632-1.362-.947-2.282-.947l-.002-.005zM215.441 4.724h2.939v5.643c0 1.098.075 1.86.225 2.289.149.426.39.76.72.995.331.236.738.355 1.224.355s.895-.117 1.233-.35c.339-.234.59-.576.752-1.03.121-.337.181-1.058.181-2.165V4.722h2.908v4.965c0 2.045-.16 3.446-.48 4.2-.39.92-.966 1.623-1.726 2.116-.76.492-1.726.738-2.897.738-1.272 0-2.3-.288-3.083-.861-.785-.574-1.335-1.376-1.655-2.4-.226-.71-.341-2.004-.341-3.877V4.724zM237.092.201H240V16.44h-2.908v-1.24c-.567.547-1.136.94-1.707 1.179a4.717 4.717 0 01-1.857.361c-1.495 0-2.791-.586-3.882-1.76-1.092-1.174-1.639-2.633-1.639-4.376 0-1.743.528-3.29 1.585-4.448 1.057-1.155 2.341-1.735 3.851-1.735.696 0 1.348.133 1.956.4a5.333 5.333 0 011.691 1.194V.2l.002.002zm-3.055 6.935c-.899 0-1.645.321-2.239.964-.594.642-.891 1.465-.891 2.471s.303 1.846.908 2.5c.604.652 1.35.98 2.234.98.885 0 1.67-.321 2.273-.964.602-.643.901-1.485.901-2.524 0-1.04-.301-1.844-.901-2.476-.603-.632-1.363-.947-2.283-.947l-.002-.004z" fill="#fff"/></svg>