<svg width="177" height="119" viewBox="0 0 177 119" fill="none" xmlns="http://www.w3.org/2000/svg"><path d="M11 17.05l2.05-.225-.9-2.6h-6.2l-.875 2.6 1.975.225V19H.075v-1.95l1.1-.275c.3-.075.525-.175.625-.475L7.275.9H11.7l5.45 15.45c.1.3.3.35.6.425l1.15.275V19H11v-1.95zM9.025 4.725l-2.3 6.8H11.4l-2.225-6.8h-.15zM19.845 22.3l1-.15c.35-.05.45-.15.45-.525V9c0-.275-.05-.425-.325-.525L19.645 8l.275-2.025h4.4l.225 1.275.125.05c1.2-.975 2.825-1.575 4.25-1.575 2.8 0 4.8 1.75 4.8 6.4 0 3-1.025 7.175-5.15 7.175-1.3 0-2.475-.425-3.525-1.25v3.55c0 .4.025.475.4.5l2.55.225V24.3h-8.15v-2zm5.2-6.875c.55.475 1.425.95 2.35.95 1.675 0 2.375-1.6 2.375-4.05 0-2.575-.875-3.625-2.125-3.625-1.05 0-2.05.525-2.6.9v5.825zm10.456 1.55l1.125-.15c.35-.05.4-.125.4-.5V9c0-.275-.075-.45-.325-.525L35.35 8l.275-2.025h4.4l.3 2h.15C41.3 6.7 42.4 5.725 44 5.725c.575 0 1.725.1 2.175.225v4.55l-3-.1-.25-1.325c-.05-.225-.125-.275-.325-.275-.65 0-1.425.55-1.8.875V16.3c0 .4.025.475.4.5l2.475.2v2H35.5v-2.025zm23.569 1.05c-1.55.75-3.25 1.275-5.125 1.275-4.825 0-6.475-3-6.475-6.9 0-4.525 2.775-6.675 6.2-6.675 3.3 0 5.5 1.725 5.5 6.05 0 .3-.025 1.175-.05 1.675h-7.65c.125 1.775.9 2.95 2.95 2.95.975 0 2.025-.225 3.725-.85l.925 2.475zm-3.6-6.95c-.025-2.1-.85-2.65-1.875-2.65-1.075 0-1.95.6-2.1 2.65h3.975zm14.585-.15c0-1.2-.075-2.2-1.325-2.2-.925 0-2.075.525-2.6.925v6.7c0 .4.025.45.4.5l1.2.175V19h-6.9v-2l1.125-.15c.35-.05.4-.125.4-.5V9c0-.275-.075-.45-.325-.525L60.68 8l.3-2.025h4.375l.2 1.3.1.05c1.25-.925 2.7-1.6 4.4-1.6 2.725 0 3.775 1.5 3.775 4.25v6.375c0 .4.025.45.4.5l1.25.175V19h-5.425v-8.075zM86.03 17.6l-.175-.025c-1.05 1.025-2.275 1.725-4.1 1.725-2.95 0-4.85-1.875-4.85-6.65 0-5.025 2.525-6.925 5.3-6.925 1.45 0 2.575.5 3.525 1.2v-3.8c0-.25-.1-.425-.325-.5L84.03 2.15l.275-2.025h5.025v16.25c0 .375.025.425.4.475l1.2.175V19h-4.65l-.25-1.4zm-.45-8.225c-.625-.425-1.425-.75-2.15-.75-1.85 0-2.575 1.725-2.575 3.95 0 2.425.7 3.775 2.275 3.775.85 0 1.775-.5 2.45-1.075v-5.9zm18.063 8.65c-1.55.75-3.25 1.275-5.125 1.275-4.825 0-6.475-3-6.475-6.9 0-4.525 2.775-6.675 6.2-6.675 3.3 0 5.5 1.725 5.5 6.05 0 .3-.025 1.175-.05 1.675h-7.65c.125 1.775.9 2.95 2.95 2.95.975 0 2.025-.225 3.725-.85l.925 2.475zm-3.6-6.95c-.025-2.1-.85-2.65-1.875-2.65-1.075 0-1.95.6-2.1 2.65h3.975zM118.257 8.6c-.05-.225-.075-.3-.25-.35-.325-.1-.925-.2-1.6-.2-1.25 0-1.95.475-1.95 1.275 0 1.025 1.375 1.25 2.9 1.6 1.975.45 4.2 1.15 4.2 4.075 0 3.05-2.475 4.3-5.65 4.3-2.275 0-4.5-.6-4.95-.9v-3.625l2.675.2.25 1.425c.05.225.075.3.3.375.3.1.975.25 1.925.25 1.325 0 2.075-.375 2.075-1.3 0-1-1-1.3-2.275-1.525-2.1-.375-4.85-.825-4.85-4.1 0-3.1 2.65-4.375 5.525-4.375 1.975 0 3.9.45 4.6.725v3.625l-2.675-.175-.25-1.3zm11.332 10.7c-4.575 0-6.425-2.8-6.425-6.725 0-4.15 2.175-6.85 6.75-6.85 4.625 0 6.425 2.75 6.425 6.575 0 4.25-2.15 7-6.75 7zm.175-2.625c1.625 0 2.625-1.125 2.625-4.25 0-2.95-.9-4-2.525-4-1.65 0-2.75 1.025-2.75 4.025 0 3.025.975 4.225 2.65 4.225zM138.571 19c.175-1.125.375-2.425.375-3.65V3.15c0-.275-.075-.45-.325-.525l-1.375-.475.275-2.025h5.15V7.05l.1.025c1.075-.875 2.25-1.35 3.775-1.35 2.7 0 4.825 1.75 4.825 6.4 0 5.15-2.175 7.175-5.25 7.175-1.65 0-2.9-.7-3.675-1.575l-.125.025-.175 1.25h-3.575zm4.125-3.6c.575.525 1.425.975 2.3.975 1.65 0 2.425-1.55 2.425-4.05 0-1.95-.625-3.65-2.3-3.65-.9 0-1.825.475-2.425.875v5.85zm10.46 1.575l1.125-.15c.35-.05.4-.125.4-.5V9c0-.275-.075-.45-.325-.525L153.006 8l.275-2.025h4.4l.3 2h.15c.825-1.275 1.925-2.25 3.525-2.25.575 0 1.725.1 2.175.225v4.55l-3-.1-.25-1.325c-.05-.225-.125-.275-.325-.275-.65 0-1.425.55-1.8.875V16.3c0 .4.025.475.4.5l2.475.2v2h-8.175v-2.025zm23.569 1.05c-1.55.75-3.25 1.275-5.125 1.275-4.825 0-6.475-3-6.475-6.9 0-4.525 2.775-6.675 6.2-6.675 3.3 0 5.5 1.725 5.5 6.05 0 .3-.025 1.175-.05 1.675h-7.65c.125 1.775.9 2.95 2.95 2.95.975 0 2.025-.225 3.725-.85l.925 2.475zm-3.6-6.95c-.025-2.1-.85-2.65-1.875-2.65-1.075 0-1.95.6-2.1 2.65h3.975zM.525 50.025l1.25-.175c.35-.05.4-.125.4-.5v-13.2c0-.275-.075-.45-.325-.525L.475 35.15l.275-2.025h5.2V49.35c0 .4.025.45.4.5l1.225.175V52H.525v-1.975zm16.435.625l-.125-.025c-.95.925-2.2 1.675-4.2 1.675-3.15 0-3.65-2.15-3.65-3.7 0-2.5 1.525-3.625 4.675-3.85l2.875-.2v-1.375c0-1.175-.125-1.975-1.675-1.975-1.2 0-1.825.175-1.825 1.675l-3.525-.3c0-3.375 3.075-3.85 5.375-3.85 3.8 0 5.325 1.025 5.325 4.525v6.075c0 .4.025.45.4.5l1.2.2V52h-4.6l-.25-1.35zm-2.125-3.9c-1.475.1-2 .475-2 1.475s.6 1.375 1.425 1.375c.85 0 1.7-.475 2.275-.9v-2.075l-1.7.125zM30.38 41.6c-.05-.225-.075-.3-.25-.35-.325-.1-.925-.2-1.6-.2-1.25 0-1.95.475-1.95 1.275 0 1.025 1.375 1.25 2.9 1.6 1.975.45 4.2 1.15 4.2 4.075 0 3.05-2.475 4.3-5.65 4.3-2.275 0-4.5-.6-4.95-.9v-3.625l2.675.2.25 1.425c.05.225.075.3.3.375.3.1.975.25 1.925.25 1.325 0 2.075-.375 2.075-1.3 0-1-1-1.3-2.275-1.525-2.1-.375-4.85-.825-4.85-4.1 0-3.1 2.65-4.375 5.525-4.375 1.975 0 3.9.45 4.6.725v3.625L30.63 42.9l-.25-1.3z" fill="#2B3D51"/><path d="M52.191 51.025c-1.55.75-3.25 1.275-5.125 1.275-4.825 0-6.475-3-6.475-6.9 0-4.525 2.775-6.675 6.2-6.675 3.3 0 5.5 1.725 5.5 6.05 0 .3-.025 1.175-.05 1.675h-7.65c.125 1.775.9 2.95 2.95 2.95.975 0 2.025-.225 3.725-.85l.925 2.475zm-3.6-6.95c-.025-2.1-.85-2.65-1.875-2.65-1.075 0-1.95.6-2.1 2.65h3.975zM61.354 41.6c-.05-.225-.075-.3-.25-.35-.325-.1-.925-.2-1.6-.2-1.25 0-1.95.475-1.95 1.275 0 1.025 1.375 1.25 2.9 1.6 1.975.45 4.2 1.15 4.2 4.075 0 3.05-2.475 4.3-5.65 4.3-2.275 0-4.5-.6-4.95-.9v-3.625l2.675.2.25 1.425c.05.225.075.3.3.375.3.1.975.25 1.925.25 1.325 0 2.075-.375 2.075-1.3 0-1-1-1.3-2.275-1.525-2.1-.375-4.85-.825-4.85-4.1 0-3.1 2.65-4.375 5.525-4.375 1.975 0 3.9.45 4.6.725v3.625l-2.675-.175-.25-1.3zm14.558 9.7c-1.075.525-2.65 1-4.075 1-2.975 0-4.1-1.2-4.1-4.025v-6.55c0-.15 0-.25-.2-.25h-1.75V39.25c2.2-.25 3.075-1.35 3.35-4.075h2.375v3.55c0 .175 0 .25.2.25h3.525v2.5h-3.725v5.975c0 1.475.35 2.05 1.7 2.05.7 0 1.425-.175 2.025-.4l.675 2.2zm9.247-.65l-.125-.025c-.95.925-2.2 1.675-4.2 1.675-3.15 0-3.65-2.15-3.65-3.7 0-2.5 1.525-3.625 4.675-3.85l2.875-.2v-1.375c0-1.175-.125-1.975-1.675-1.975-1.2 0-1.825.175-1.825 1.675l-3.525-.3c0-3.375 3.075-3.85 5.375-3.85 3.8 0 5.325 1.025 5.325 4.525v6.075c0 .4.025.45.4.5l1.2.2V52h-4.6l-.25-1.35zm-2.125-3.9c-1.475.1-2 .475-2 1.475s.6 1.375 1.425 1.375c.85 0 1.7-.475 2.275-.9v-2.075l-1.7.125zM91.2 50l1.4-.15c.35-.05.4-.15.4-.525v-7.6c0-.15 0-.25-.2-.25h-1.675v-2.5H93V37.6c0-3.375 1.9-4.775 5.35-4.775 2.325 0 4.475.575 4.475 3.6l-3.5.425c.025-1.275-.325-1.575-1.15-1.575-1.25 0-1.4.675-1.4 1.875v1.575c0 .175 0 .25.2.25h3.95v2.5h-4.15v7.775c0 .4.075.475.45.5l3.05.275V52H91.2v-2zm18.532.65l-.125-.025c-.95.925-2.2 1.675-4.2 1.675-3.15 0-3.65-2.15-3.65-3.7 0-2.5 1.525-3.625 4.675-3.85l2.875-.2v-1.375c0-1.175-.125-1.975-1.675-1.975-1.2 0-1.825.175-1.825 1.675l-3.525-.3c0-3.375 3.075-3.85 5.375-3.85 3.8 0 5.325 1.025 5.325 4.525v6.075c0 .4.025.45.4.5l1.2.2V52h-4.6l-.25-1.35zm-2.125-3.9c-1.475.1-2 .475-2 1.475s.6 1.375 1.425 1.375c.85 0 1.7-.475 2.275-.9v-2.075l-1.7.125zm15.544-5.15c-.05-.225-.075-.3-.25-.35-.325-.1-.925-.2-1.6-.2-1.25 0-1.95.475-1.95 1.275 0 1.025 1.375 1.25 2.9 1.6 1.975.45 4.2 1.15 4.2 4.075 0 3.05-2.475 4.3-5.65 4.3-2.275 0-4.5-.6-4.95-.9v-3.625l2.675.2.25 1.425c.05.225.075.3.3.375.3.1.975.25 1.925.25 1.325 0 2.075-.375 2.075-1.3 0-1-1-1.3-2.275-1.525-2.1-.375-4.85-.825-4.85-4.1 0-3.1 2.65-4.375 5.525-4.375 1.975 0 3.9.45 4.6.725v3.625l-2.675-.175-.25-1.3zM11.975 84.075c-1.15.7-2.925 1.225-4.75 1.225-4.525 0-6.55-2.825-6.55-6.625 0-4.675 2.85-6.95 6.85-6.95 1.95 0 3.675.55 4.45 1.05V76.7L9.3 76.575l-.3-1.65c-.025-.175-.075-.325-.3-.4-.3-.1-.775-.175-1.275-.175-1.5 0-2.775 1.025-2.775 3.95 0 3.25 1.45 4.175 3.225 4.175 1.25 0 2.375-.4 3.125-.725l.975 2.325zm7.802 1.225c-4.575 0-6.425-2.8-6.425-6.725 0-4.15 2.175-6.85 6.75-6.85 4.625 0 6.425 2.75 6.425 6.575 0 4.25-2.15 7-6.75 7zm.175-2.625c1.625 0 2.625-1.125 2.625-4.25 0-2.95-.9-4-2.525-4-1.65 0-2.75 1.025-2.75 4.025 0 3.025.975 4.225 2.65 4.225zm17.303-5.75c0-1.2-.075-2.2-1.325-2.2-.925 0-2.075.525-2.6.925v6.7c0 .4.025.45.4.5l1.2.175V85h-6.9v-2l1.125-.15c.35-.05.4-.125.4-.5V75c0-.275-.075-.45-.325-.525L27.88 74l.3-2.025h4.375l.2 1.3.1.05c1.25-.925 2.7-1.6 4.4-1.6 2.725 0 3.775 1.5 3.775 4.25v6.375c0 .4.025.45.4.5l1.25.175V85h-5.425v-8.075zM53.433 84.3c-1.075.525-2.65 1-4.075 1-2.975 0-4.1-1.2-4.1-4.025v-6.55c0-.15 0-.25-.2-.25h-1.75V72.25c2.2-.25 3.075-1.35 3.35-4.075h2.375v3.55c0 .175 0 .25.2.25h3.525v2.5h-3.725v5.975c0 1.475.35 2.05 1.7 2.05.7 0 1.425-.175 2.025-.4l.675 2.2zm1.464-1.325l1.125-.15c.35-.05.4-.125.4-.5V75c0-.275-.075-.45-.325-.525L54.747 74l.275-2.025h4.4l.3 2h.15c.825-1.275 1.925-2.25 3.525-2.25.575 0 1.725.1 2.175.225v4.55l-3-.1-.25-1.325c-.05-.225-.125-.275-.325-.275-.65 0-1.425.55-1.8.875V82.3c0 .4.025.475.4.5l2.475.2v2h-8.175v-2.025zm19.582.675l-.125-.025c-.95.925-2.2 1.675-4.2 1.675-3.15 0-3.65-2.15-3.65-3.7 0-2.5 1.525-3.625 4.675-3.85l2.875-.2v-1.375c0-1.175-.125-1.975-1.675-1.975-1.2 0-1.825.175-1.825 1.675l-3.525-.3c0-3.375 3.075-3.85 5.375-3.85 3.8 0 5.325 1.025 5.325 4.525v6.075c0 .4.025.45.4.5l1.2.2V85h-4.6l-.25-1.35zm-2.125-3.9c-1.475.1-2 .475-2 1.475s.6 1.375 1.425 1.375c.85 0 1.7-.475 2.275-.9v-2.075l-1.7.125zm-57.404 36.3l2.05-.175c.375-.025.4-.15.4-.5v-9.5h-.1l-3.575 8.525H9.65l-3.525-8.55H6v9.5c0 .4.05.475.4.5l2.15.2V118H.95v-1.95l1.575-.175c.35-.05.4-.125.4-.5V102.55c0-.375-.05-.45-.4-.5l-1.575-.175V99.9h6.7L12 111.225h.1L16.675 99.9h6.5v1.95l-1.675.2c-.375.05-.4.1-.4.475v12.85c0 .325.075.425.4.475l1.675.2V118H14.95v-1.95zm21.379.975c-1.55.75-3.25 1.275-5.125 1.275-4.825 0-6.475-3-6.475-6.9 0-4.525 2.775-6.675 6.2-6.675 3.3 0 5.5 1.725 5.5 6.05 0 .3-.025 1.175-.05 1.675h-7.65c.125 1.775.9 2.95 2.95 2.95.975 0 2.025-.225 3.725-.85l.925 2.475zm-3.6-6.95c-.025-2.1-.85-2.65-1.875-2.65-1.075 0-1.95.6-2.1 2.65h3.975zm14.636 6.525l-.175-.025c-1.05 1.025-2.275 1.725-4.1 1.725-2.95 0-4.85-1.875-4.85-6.65 0-5.025 2.525-6.925 5.3-6.925 1.45 0 2.575.5 3.525 1.2v-3.8c0-.25-.1-.425-.325-.5l-1.375-.475.275-2.025h5.025v16.25c0 .375.025.425.4.475l1.2.175V118h-4.65l-.25-1.4zm-.45-8.225c-.625-.425-1.425-.75-2.15-.75-1.85 0-2.575 1.725-2.575 3.95 0 2.425.7 3.775 2.275 3.775.85 0 1.775-.5 2.45-1.075v-5.9zm11.983-7.65c0 1.425-.825 2.25-2.275 2.25-1.425 0-2.25-.825-2.25-2.25s.825-2.2 2.25-2.2c1.45 0 2.275.775 2.275 2.2zm-5.5 15.3l1.275-.175c.35-.05.4-.125.4-.5V108c0-.275-.075-.45-.325-.525l-1.35-.475.275-2.025h5.175v10.375c0 .4.025.45.4.5l1.275.175V118h-7.125v-1.975zm19.636 1.05c-1.15.7-2.925 1.225-4.75 1.225-4.525 0-6.55-2.825-6.55-6.625 0-4.675 2.85-6.95 6.85-6.95 1.95 0 3.675.55 4.45 1.05v3.925l-2.675-.125-.3-1.65c-.025-.175-.075-.325-.3-.4-.3-.1-.775-.175-1.275-.175-1.5 0-2.775 1.025-2.775 3.95 0 3.25 1.45 4.175 3.225 4.175 1.25 0 2.375-.4 3.125-.725l.975 2.325zm9.477-.425l-.125-.025c-.95.925-2.2 1.675-4.2 1.675-3.15 0-3.65-2.15-3.65-3.7 0-2.5 1.525-3.625 4.675-3.85l2.875-.2v-1.375c0-1.175-.125-1.975-1.675-1.975-1.2 0-1.825.175-1.825 1.675l-3.525-.3c0-3.375 3.075-3.85 5.375-3.85 3.8 0 5.325 1.025 5.325 4.525v6.075c0 .4.025.45.4.5l1.2.2V118h-4.6l-.25-1.35zm-2.125-3.9c-1.475.1-2 .475-2 1.475s.6 1.375 1.425 1.375c.85 0 1.7-.475 2.275-.9v-2.075l-1.7.125zm8.141 3.225l1.125-.15c.35-.05.4-.125.4-.5V108c0-.275-.075-.45-.325-.525l-1.35-.475.275-2.025h4.4l.3 2h.15c.825-1.275 1.925-2.25 3.525-2.25.575 0 1.725.1 2.175.225v4.55l-3-.1-.25-1.325c-.05-.225-.125-.275-.325-.275-.65 0-1.425.55-1.8.875v6.625c0 .4.025.475.4.5l2.475.2v2h-8.175v-2.025zm23.569 1.05c-1.55.75-3.25 1.275-5.125 1.275-4.825 0-6.475-3-6.475-6.9 0-4.525 2.775-6.675 6.2-6.675 3.3 0 5.5 1.725 5.5 6.05 0 .3-.025 1.175-.05 1.675h-7.65c.125 1.775.9 2.95 2.95 2.95.975 0 2.025-.225 3.725-.85l.925 2.475zm-3.6-6.95c-.025-2.1-.85-2.65-1.875-2.65-1.075 0-1.95.6-2.1 2.65h3.975zm10.113 6.275c0 1.275-.7 1.95-2.125 1.95-1.45 0-2.15-.65-2.15-1.95 0-1.275.7-1.95 2.15-1.95 1.4 0 2.125.675 2.125 1.95z" fill="#8F3FB0"/></svg>