<svg width="175" height="90" viewBox="0 0 175 90" fill="none" xmlns="http://www.w3.org/2000/svg"><path d="M10.175 5.175c-.05-.3-.125-.4-.3-.475-.4-.125-1-.275-1.825-.275-1.875 0-2.8.85-2.8 2.125 0 1.65 1.7 2.1 3.6 2.675 2.375.725 5.025 1.625 5.025 5.375 0 4.1-3.2 5.7-7.025 5.7-2.25 0-4.775-.575-5.725-1.025V14.4h2.8l.5 2.375c.075.325.1.375.425.45.3.075 1.15.275 2.1.275 2.025 0 3.15-.8 3.15-2.325 0-1.6-1.425-2.1-3.1-2.575-2.475-.7-5.525-1.375-5.525-5.4 0-3.85 2.9-5.625 6.7-5.625 2.15 0 4 .525 5.125 1V7.45l-2.825-.25-.3-2.025zm10.894-2.45c0 1.425-.825 2.25-2.275 2.25-1.425 0-2.25-.825-2.25-2.25s.825-2.2 2.25-2.2c1.45 0 2.275.775 2.275 2.2zm-5.5 15.3l1.275-.175c.35-.05.4-.125.4-.5V10c0-.275-.075-.45-.325-.525L15.57 9l.275-2.025h5.175V17.35c0 .4.025.45.4.5l1.275.175V20H15.57v-1.975zM38.86 19.3c-1.076.525-2.65 1-4.076 1-2.975 0-4.1-1.2-4.1-4.025v-6.55c0-.15 0-.25-.2-.25h-1.75V7.25c2.2-.25 3.075-1.35 3.35-4.075h2.375v3.55c0 .175 0 .25.2.25h3.525v2.5h-3.725v5.975c0 1.475.35 2.05 1.7 2.05.7 0 1.425-.175 2.025-.4l.675 2.2zm12.282-.275c-1.55.75-3.25 1.275-5.125 1.275-4.825 0-6.475-3-6.475-6.9 0-4.525 2.775-6.675 6.2-6.675 3.3 0 5.5 1.725 5.5 6.05 0 .3-.025 1.175-.05 1.675h-7.65c.125 1.775.9 2.95 2.95 2.95.975 0 2.025-.225 3.725-.85l.925 2.475zm-3.6-6.95c-.025-2.1-.85-2.65-1.875-2.65-1.075 0-1.95.6-2.1 2.65h3.975zM64.655 20.3c-4.575 0-6.425-2.8-6.425-6.725 0-4.15 2.175-6.85 6.75-6.85 4.625 0 6.425 2.75 6.425 6.575 0 4.25-2.15 7-6.75 7zm.175-2.625c1.625 0 2.625-1.125 2.625-4.25 0-2.95-.9-4-2.525-4-1.65 0-2.75 1.025-2.75 4.025 0 3.025.975 4.225 2.65 4.225zm8.176.325l1.4-.15c.35-.05.4-.15.4-.525v-7.6c0-.15 0-.25-.2-.25h-1.675v-2.5h1.875V5.6c0-3.375 1.9-4.775 5.35-4.775 2.325 0 4.475.575 4.475 3.6l-3.5.425c.025-1.275-.325-1.575-1.15-1.575-1.25 0-1.4.675-1.4 1.875v1.575c0 .175 0 .25.2.25h3.95v2.5h-4.15v7.775c0 .4.075.475.45.5l3.05.275V20h-9.075v-2zm11.138-.025l1.125-.15c.35-.05.4-.125.4-.5V10c0-.275-.075-.45-.325-.525L83.994 9l.275-2.025h4.4l.3 2h.15c.825-1.275 1.925-2.25 3.525-2.25.575 0 1.725.1 2.175.225v4.55l-3-.1-.25-1.325c-.05-.225-.125-.275-.325-.275-.65 0-1.425.55-1.8.875V17.3c0 .4.025.475.4.5l2.475.2v2h-8.175v-2.025zm23.569 1.05c-1.55.75-3.25 1.275-5.125 1.275-4.825 0-6.474-3-6.474-6.9 0-4.525 2.774-6.675 6.199-6.675 3.3 0 5.5 1.725 5.5 6.05 0 .3-.025 1.175-.05 1.675h-7.65c.125 1.775.9 2.95 2.95 2.95.975 0 2.025-.225 3.725-.85l.925 2.475zm-3.6-6.95c-.025-2.1-.85-2.65-1.875-2.65-1.075 0-1.95.6-2.1 2.65h3.975zm16.612 7c-1.15.7-2.925 1.225-4.75 1.225-4.525 0-6.55-2.825-6.55-6.625 0-4.675 2.85-6.95 6.85-6.95 1.95 0 3.675.55 4.45 1.05V11.7l-2.675-.125-.3-1.65c-.025-.175-.075-.325-.3-.4-.3-.1-.775-.175-1.275-.175-1.5 0-2.775 1.025-2.775 3.95 0 3.25 1.45 4.175 3.225 4.175 1.25 0 2.375-.4 3.125-.725l.975 2.325zm12.977-.05c-1.55.75-3.25 1.275-5.125 1.275-4.825 0-6.475-3-6.475-6.9 0-4.525 2.775-6.675 6.2-6.675 3.3 0 5.5 1.725 5.5 6.05 0 .3-.025 1.175-.05 1.675h-7.65c.125 1.775.9 2.95 2.95 2.95.975 0 2.025-.225 3.725-.85l.925 2.475zm-3.6-6.95c-.025-2.1-.85-2.65-1.875-2.65-1.075 0-1.95.6-2.1 2.65h3.975zm14.585-.15c0-1.2-.075-2.2-1.325-2.2-.925 0-2.075.525-2.6.925v6.7c0 .4.025.45.4.5l1.2.175V20h-6.9v-2l1.125-.15c.35-.05.4-.125.4-.5V10c0-.275-.075-.45-.325-.525L135.312 9l.3-2.025h4.375l.2 1.3.1.05c1.25-.925 2.7-1.6 4.4-1.6 2.725 0 3.775 1.5 3.775 4.25v6.375c0 .4.025.45.4.5l1.25.175V20h-5.425v-8.075zm-132.412 39.1c-1.55.75-3.25 1.275-5.125 1.275-4.825 0-6.475-3-6.475-6.9 0-4.525 2.775-6.675 6.2-6.675 3.3 0 5.5 1.725 5.5 6.05 0 .3-.025 1.175-.05 1.675h-7.65c.125 1.775.9 2.95 2.95 2.95.975 0 2.025-.225 3.725-.85l.925 2.475zm-3.6-6.95c-.025-2.1-.85-2.65-1.875-2.65-1.075 0-1.95.6-2.1 2.65h3.975zM20.262 55.3l2.15-.175c.4-.025.5-.125.5-.45v-3.65l-.125-.05c-.875.75-2.075 1.325-3.625 1.325-2.95 0-4.975-1.875-4.975-6.55 0-5.125 2.624-7.025 5.35-7.025 1.5 0 2.675.6 3.625 1.425l.375-1.175h3.274c-.15 1.4-.2 2.775-.2 4.05v11.65c0 .375.026.425.4.475l1.175.175V57.3h-7.924v-2zm2.575-12.875c-.625-.425-1.425-.8-2.2-.8-1.8 0-2.526 1.725-2.526 3.95 0 2.425.675 3.775 2.35 3.775.85 0 1.7-.45 2.376-1.025v-5.9zm15.917 8.225l-.125-.025c-1.025.775-2.325 1.675-4.45 1.675-2.625 0-3.625-1.5-3.625-4.4v-6.1c0-.4-.025-.45-.4-.525l-1.2-.25.25-2.05h5.125v8.275c0 1.525.25 2.1 1.325 2.1 1.1 0 2-.625 2.575-1.15v-6.425c0-.4-.025-.425-.4-.5l-1.075-.25.275-2.05h4.975V49.35c0 .325.05.425.35.475l1.25.175v2h-4.65l-.2-1.35zM50.28 34.725c0 1.425-.825 2.25-2.275 2.25-1.425 0-2.25-.825-2.25-2.25s.825-2.2 2.25-2.2c1.45 0 2.275.775 2.275 2.2zm-5.5 15.3l1.275-.175c.35-.05.4-.125.4-.5V42c0-.275-.075-.45-.325-.525L44.78 41l.275-2.025h5.175V49.35c0 .4.025.45.4.5l1.275.175V52H44.78v-1.975zm8.285 5.275l1-.15c.35-.05.45-.15.45-.525V42c0-.275-.05-.425-.325-.525L52.865 41l.275-2.025h4.4l.225 1.275.125.05c1.2-.975 2.825-1.575 4.25-1.575 2.8 0 4.8 1.75 4.8 6.4 0 3-1.025 7.175-5.15 7.175-1.3 0-2.475-.425-3.525-1.25v3.55c0 .4.025.475.4.5l2.55.225V57.3h-8.15v-2zm5.2-6.875c.55.475 1.425.95 2.35.95 1.675 0 2.375-1.6 2.375-4.05 0-2.575-.875-3.625-2.125-3.625-1.05 0-2.05.525-2.6.9v5.825zM75.05 52.3c-4.575 0-6.425-2.8-6.425-6.725 0-4.15 2.175-6.85 6.75-6.85 4.625 0 6.425 2.75 6.425 6.575 0 4.25-2.15 7-6.75 7zm.175-2.625c1.625 0 2.625-1.125 2.625-4.25 0-2.95-.9-4-2.525-4-1.65 0-2.75 1.025-2.75 4.025 0 3.025.975 4.225 2.65 4.225zm29.28-5.75c0-.975-.1-2.15-1.4-2.15-.7 0-1.375.25-2.025.675.05.4.075.8.075 1.225v5.675c0 .425.025.475.4.525l1 .15V52h-5.175v-8.2c0-.925-.075-2.025-1.325-2.025-.75 0-1.575.375-2.075.8v6.775c0 .4.025.45.4.5l1.225.175V52H88.68v-1.975l1.125-.175c.35-.05.4-.125.4-.5V42c0-.275-.075-.45-.325-.525L88.53 41l.275-2.025h4.4l.2 1.3.125.025c1.125-.925 2.4-1.575 4-1.575 1.225 0 2.35.325 3.05 1.5.825-.65 2.275-1.5 4.025-1.5 2.675 0 3.675 1.325 3.675 4.225v6.4c0 .4.025.475.4.525l1.25.15V52h-5.425v-8.075zm18.267 7.1c-1.55.75-3.25 1.275-5.125 1.275-4.825 0-6.475-3-6.475-6.9 0-4.525 2.775-6.675 6.2-6.675 3.3 0 5.5 1.725 5.5 6.05 0 .3-.025 1.175-.05 1.675h-7.65c.125 1.775.9 2.95 2.95 2.95.975 0 2.025-.225 3.725-.85l.925 2.475zm-3.6-6.95c-.025-2.1-.85-2.65-1.875-2.65-1.075 0-1.95.6-2.1 2.65h3.975zm-4.7-7.35l3.825-4.35 2.05 1.95-4.475 3.65-1.4-1.25zM133.808 50.6l-.175-.025c-1.05 1.025-2.275 1.725-4.1 1.725-2.95 0-4.85-1.875-4.85-6.65 0-5.025 2.525-6.925 5.3-6.925 1.45 0 2.575.5 3.525 1.2v-3.8c0-.25-.1-.425-.325-.5l-1.375-.475.275-2.025h5.025v16.25c0 .375.025.425.4.475l1.2.175V52h-4.65l-.25-1.4zm-.45-8.225c-.625-.425-1.425-.75-2.15-.75-1.85 0-2.575 1.725-2.575 3.95 0 2.425.7 3.775 2.275 3.775.85 0 1.775-.5 2.45-1.075v-5.9zm11.983-7.65c0 1.425-.825 2.25-2.275 2.25-1.425 0-2.25-.825-2.25-2.25s.825-2.2 2.25-2.2c1.45 0 2.275.775 2.275 2.2zm-5.5 15.3l1.275-.175c.35-.05.4-.125.4-.5V42c0-.275-.075-.45-.325-.525l-1.35-.475.275-2.025h5.175V49.35c0 .4.025.45.4.5l1.275.175V52h-7.125v-1.975zm19.635 1.05c-1.15.7-2.925 1.225-4.75 1.225-4.525 0-6.55-2.825-6.55-6.625 0-4.675 2.85-6.95 6.85-6.95 1.95 0 3.675.55 4.45 1.05V43.7l-2.675-.125-.3-1.65c-.025-.175-.075-.325-.3-.4-.3-.1-.775-.175-1.275-.175-1.5 0-2.775 1.025-2.775 3.95 0 3.25 1.45 4.175 3.225 4.175 1.25 0 2.375-.4 3.125-.725l.975 2.325zm7.802 1.225c-4.575 0-6.425-2.8-6.425-6.725 0-4.15 2.175-6.85 6.75-6.85 4.625 0 6.425 2.75 6.425 6.575 0 4.25-2.15 7-6.75 7zm.175-2.625c1.625 0 2.625-1.125 2.625-4.25 0-2.95-.9-4-2.525-4-1.65 0-2.75 1.025-2.75 4.025 0 3.025.975 4.225 2.65 4.225zM4.25 70.575C2.475 70.55 1 70.35 1 68.75c0-.5.2-1.05.475-1.6l1.2-2.525 1.575.475-.575 2.475c-.05.175-.025.225.125.275l.95.325-.5 2.4zm4.5 0C6.975 70.55 5.5 70.35 5.5 68.75c0-.5.2-1.05.475-1.6l1.2-2.525 1.575.475-.575 2.475c-.05.175-.025.225.125.275l.95.325-.5 2.4zm11.596 2.7c.45.575.925 1.375.925 2.525 0 2.775-2.175 4.4-5.325 4.4-.8 0-1.525-.1-1.975-.225l-.825 1.325 2.45.15c4.35.275 6.875.4 6.875 3.725 0 2.875-2.525 4.5-6.875 4.5-4.525 0-6.25-1.15-6.25-3.125 0-1.125.5-1.725 1.375-2.55-.825-.35-1.1-.975-1.1-1.65 0-.55.275-1.05.725-1.525.45-.475.95-.95 1.55-1.5-1.225-.6-2.15-1.9-2.15-3.75 0-2.875 1.9-4.85 5.725-4.85 1.075 0 1.725.1 2.3.25h4.875V73.1l-2.3.175zm-2.375 2.175c0-1.475-.85-2.25-2.275-2.25-1.375 0-2.4.675-2.4 2.3 0 1.225.675 2.075 2.325 2.075 1.4 0 2.35-.825 2.35-2.125zm-5.025 9.225c-.325.4-.65.825-.65 1.325 0 1 1.275 1.3 3.025 1.3 1.45 0 3.425-.1 3.425-1.45 0-.8-.95-.85-2.15-.925l-3.65-.25zm10.934-2.7l1.125-.15c.35-.05.4-.125.4-.5V74c0-.275-.076-.45-.326-.525L23.73 73l.276-2.025h4.4l.3 2h.15c.825-1.275 1.924-2.25 3.524-2.25.576 0 1.726.1 2.175.225v4.55l-3-.1-.25-1.325c-.05-.225-.124-.275-.324-.275-.65 0-1.425.55-1.8.875V81.3c0 .4.024.475.4.5l2.474.2v2H23.88v-2.025zm19.581.675l-.125-.025c-.95.925-2.2 1.675-4.2 1.675-3.15 0-3.65-2.15-3.65-3.7 0-2.5 1.525-3.625 4.675-3.85l2.875-.2v-1.375c0-1.175-.125-1.975-1.675-1.975-1.2 0-1.825.175-1.825 1.675l-3.525-.3c0-3.375 3.075-3.85 5.375-3.85 3.8 0 5.325 1.025 5.325 4.525v6.075c0 .4.025.45.4.5l1.2.2V84h-4.6l-.25-1.35zm-2.125-3.9c-1.475.1-2 .475-2 1.475s.6 1.375 1.425 1.375c.85 0 1.7-.475 2.275-.9v-2.075l-1.7.125zm17.572 4.55c-1.075.525-2.65 1-4.075 1-2.975 0-4.1-1.2-4.1-4.025v-6.55c0-.15 0-.25-.2-.25h-1.75V71.25c2.2-.25 3.075-1.35 3.35-4.075h2.375v3.55c0 .175 0 .25.2.25h3.525v2.5h-3.725v5.975c0 1.475.35 2.05 1.7 2.05.7 0 1.425-.175 2.025-.4l.675 2.2zm6.814-16.575c0 1.425-.825 2.25-2.275 2.25-1.425 0-2.25-.825-2.25-2.25s.825-2.2 2.25-2.2c1.45 0 2.275.775 2.275 2.2zm-5.5 15.3l1.275-.175c.35-.05.4-.125.4-.5V74c0-.275-.075-.45-.325-.525L60.222 73l.275-2.025h5.175V81.35c0 .4.025.45.4.5l1.275.175V84h-7.125v-1.975zm15.86-8.425c-.05-.225-.075-.3-.25-.35-.325-.1-.925-.2-1.6-.2-1.25 0-1.95.475-1.95 1.275 0 1.025 1.375 1.25 2.9 1.6 1.975.45 4.2 1.15 4.2 4.075 0 3.05-2.475 4.3-5.65 4.3-2.275 0-4.5-.6-4.95-.9v-3.625l2.675.2.25 1.425c.05.225.075.3.3.375.3.1.975.25 1.925.25 1.325 0 2.075-.375 2.075-1.3 0-1-1-1.3-2.275-1.525-2.1-.375-4.85-.825-4.85-4.1 0-3.1 2.65-4.375 5.525-4.375 1.975 0 3.9.45 4.6.725v3.625l-2.675-.175-.25-1.3zm5.694-5.95c.05-.225.025-.275-.125-.325l-.95-.3.5-2.4c1.775.025 3.25.2 3.25 1.825 0 .5-.175 1.05-.45 1.6l-1.2 2.525-1.6-.475.575-2.45zm4.5 0c.05-.225.025-.275-.125-.325l-.95-.3.5-2.4c1.775.025 3.25.2 3.25 1.825 0 .5-.175 1.05-.45 1.6l-1.2 2.525-1.6-.475.575-2.45zm9.457 14.7c0 1.275-.7 1.95-2.125 1.95-1.45 0-2.15-.65-2.15-1.95 0-1.275.7-1.95 2.15-1.95 1.4 0 2.125.675 2.125 1.95zm7.037 0c0 1.275-.7 1.95-2.125 1.95-1.45 0-2.15-.65-2.15-1.95 0-1.275.7-1.95 2.15-1.95 1.4 0 2.125.675 2.125 1.95zm7.037 0c0 1.275-.7 1.95-2.125 1.95-1.45 0-2.15-.65-2.15-1.95 0-1.275.7-1.95 2.15-1.95 1.4 0 2.125.675 2.125 1.95z" fill="#2B3D51"/></svg>