<svg width="175" height="84" viewBox="0 0 175 84" fill="none" xmlns="http://www.w3.org/2000/svg"><path d="M5.825 5.95v10.4c0 .4.025.45.4.5l1.675.2V19H.95v-1.95l1.575-.175c.35-.05.4-.125.4-.5V3.525c0-.375-.025-.45-.4-.5L.95 2.85V.9h6.2L15 13.975v-10.4c0-.375-.025-.45-.4-.5L13.025 2.9v-2h6.95v2l-1.675.2c-.375.05-.4.1-.4.475V19h-4.1L5.825 5.95zM27.54 19.3c-4.575 0-6.425-2.8-6.425-6.725 0-4.15 2.175-6.85 6.75-6.85 4.625 0 6.425 2.75 6.425 6.575 0 4.25-2.15 7-6.75 7zm.175-2.625c1.625 0 2.625-1.125 2.625-4.25 0-2.95-.9-4-2.525-4-1.65 0-2.75 1.025-2.75 4.025 0 3.025.975 4.225 2.65 4.225zm13.455.3l1.125-.15c.35-.05.4-.125.4-.5V9c0-.275-.075-.45-.325-.525L41.02 8l.275-2.025h4.4l.3 2h.15c.825-1.275 1.925-2.25 3.525-2.25.575 0 1.725.1 2.175.225v4.55l-3-.1-.25-1.325c-.05-.225-.124-.275-.325-.275-.65 0-1.425.55-1.8.875V16.3c0 .4.026.475.4.5l2.476.2v2H41.17v-2.025zm23.57 1.05c-1.55.75-3.25 1.275-5.125 1.275-4.825 0-6.475-3-6.475-6.9 0-4.525 2.775-6.675 6.2-6.675 3.3 0 5.5 1.725 5.5 6.05 0 .3-.025 1.175-.05 1.675h-7.65c.125 1.775.9 2.95 2.95 2.95.975 0 2.025-.225 3.725-.85l.925 2.475zm-3.6-6.95c-.025-2.1-.85-2.65-1.875-2.65-1.075 0-1.95.6-2.1 2.65h3.975zM73.903 8.6c-.05-.225-.075-.3-.25-.35-.325-.1-.925-.2-1.6-.2-1.25 0-1.95.475-1.95 1.275 0 1.025 1.375 1.25 2.9 1.6 1.975.45 4.2 1.15 4.2 4.075 0 3.05-2.475 4.3-5.65 4.3-2.275 0-4.5-.6-4.95-.9v-3.625l2.675.2.25 1.425c.05.225.075.3.3.375.3.1.975.25 1.925.25 1.325 0 2.075-.375 2.075-1.3 0-1-1-1.3-2.275-1.525-2.1-.375-4.85-.825-4.85-4.1 0-3.1 2.65-4.375 5.525-4.375 1.975 0 3.9.45 4.6.725v3.625L74.153 9.9l-.25-1.3zm4.858 13.7l1-.15c.35-.05.45-.15.45-.525V9c0-.275-.05-.425-.325-.525L78.56 8l.275-2.025h4.4l.225 1.275.125.05c1.2-.975 2.825-1.575 4.25-1.575 2.8 0 4.8 1.75 4.8 6.4 0 3-1.025 7.175-5.15 7.175-1.3 0-2.475-.425-3.525-1.25v3.55c0 .4.025.475.4.5l2.55.225V24.3h-8.15v-2zm5.2-6.875c.55.475 1.425.95 2.35.95 1.675 0 2.375-1.6 2.375-4.05 0-2.575-.875-3.625-2.125-3.625-1.05 0-2.05.525-2.6.9v5.825zm16.784 3.875c-4.576 0-6.425-2.8-6.425-6.725 0-4.15 2.175-6.85 6.75-6.85 4.625 0 6.425 2.75 6.425 6.575 0 4.25-2.15 7-6.75 7zm.175-2.625c1.625 0 2.625-1.125 2.625-4.25 0-2.95-.9-4-2.525-4-1.65 0-2.75 1.025-2.75 4.025 0 3.025.975 4.225 2.65 4.225zm17.303-5.75c0-1.2-.075-2.2-1.325-2.2-.925 0-2.075.525-2.6.925v6.7c0 .4.025.45.4.5l1.2.175V19h-6.9v-2l1.125-.15c.35-.05.4-.125.4-.5V9c0-.275-.075-.45-.325-.525L108.848 8l.3-2.025h4.375l.2 1.3.1.05c1.25-.925 2.7-1.6 4.4-1.6 2.725 0 3.775 1.5 3.775 4.25v6.375c0 .4.025.45.4.5l1.25.175V19h-5.425v-8.075zm15.975 6.675l-.175-.025c-1.05 1.025-2.275 1.725-4.1 1.725-2.95 0-4.85-1.875-4.85-6.65 0-5.025 2.525-6.925 5.3-6.925 1.45 0 2.575.5 3.525 1.2v-3.8c0-.25-.1-.425-.325-.5l-1.375-.475.275-2.025h5.025v16.25c0 .375.025.425.4.475l1.2.175V19h-4.65l-.25-1.4zm-.45-8.225c-.625-.425-1.425-.75-2.15-.75-1.85 0-2.575 1.725-2.575 3.95 0 2.425.7 3.775 2.275 3.775.85 0 1.775-.5 2.45-1.075v-5.9zm14.783 8.275l-.125-.025c-.95.925-2.2 1.675-4.2 1.675-3.15 0-3.65-2.15-3.65-3.7 0-2.5 1.525-3.625 4.675-3.85l2.875-.2v-1.375c0-1.175-.125-1.975-1.675-1.975-1.2 0-1.825.175-1.825 1.675l-3.525-.3c0-3.375 3.075-3.85 5.375-3.85 3.8 0 5.325 1.025 5.325 4.525v6.075c0 .4.025.45.4.5l1.2.2V19h-4.6l-.25-1.35zm-2.125-3.9c-1.475.1-2 .475-2 1.475s.6 1.375 1.425 1.375c.85 0 1.7-.475 2.275-.9v-2.075l-1.7.125zm15.545-5.15c-.05-.225-.075-.3-.25-.35-.325-.1-.925-.2-1.6-.2-1.25 0-1.95.475-1.95 1.275 0 1.025 1.375 1.25 2.9 1.6 1.975.45 4.2 1.15 4.2 4.075 0 3.05-2.475 4.3-5.65 4.3-2.275 0-4.5-.6-4.95-.9v-3.625l2.675.2.25 1.425c.05.225.075.3.3.375.3.1.975.25 1.925.25 1.325 0 2.075-.375 2.075-1.3 0-1-1-1.3-2.275-1.525-2.1-.375-4.85-.825-4.85-4.1 0-3.1 2.65-4.375 5.525-4.375 1.975 0 3.9.45 4.6.725v3.625l-2.675-.175-.25-1.3zm9.758 8.75c0 1.275-.7 1.95-2.125 1.95-1.45 0-2.15-.65-2.15-1.95 0-1.275.7-1.95 2.15-1.95 1.4 0 2.125.675 2.125 1.95z" fill="#8F3FB0"/><path d="M.95 49.025l1.575-.175c.35-.05.4-.125.4-.5V35.575c0-.375-.025-.45-.4-.5L.95 34.9v-2h8.475c4.625 0 6.025 2.45 6.025 5.325 0 4.35-2.625 6.1-6.85 6.1H6.775v4c0 .4.05.475.4.5l3.575.2V51H.95v-1.975zm7.075-7.375c1.65 0 3.475-.375 3.475-3.2 0-2.4-1.475-2.825-3.25-2.825H6.775v6.025h1.25zm14.633 9.65c-4.575 0-6.425-2.8-6.425-6.725 0-4.15 2.175-6.85 6.75-6.85 4.625 0 6.425 2.75 6.425 6.575 0 4.25-2.15 7-6.75 7zm.175-2.625c1.625 0 2.625-1.125 2.625-4.25 0-2.95-.9-4-2.525-4-1.65 0-2.75 1.025-2.75 4.025 0 3.025.975 4.225 2.65 4.225zm17.501.925l-.175-.025c-1.05 1.025-2.275 1.725-4.1 1.725-2.95 0-4.85-1.875-4.85-6.65 0-5.025 2.525-6.925 5.3-6.925 1.45 0 2.575.5 3.525 1.2v-3.8c0-.25-.1-.425-.325-.5l-1.375-.475.275-2.025h5.025v16.25c0 .375.025.425.4.475l1.2.175V51h-4.65l-.25-1.4zm-.45-8.225c-.625-.425-1.425-.75-2.15-.75-1.85 0-2.575 1.725-2.575 3.95 0 2.425.7 3.775 2.275 3.775.85 0 1.775-.5 2.45-1.075v-5.9zm6.633 7.6l1.125-.15c.35-.05.4-.125.4-.5V41c0-.275-.075-.45-.325-.525L46.367 40l.275-2.025h4.4l.3 2h.15c.825-1.275 1.925-2.25 3.525-2.25.575 0 1.725.1 2.175.225v4.55l-3-.1-.25-1.325c-.05-.225-.125-.275-.325-.275-.65 0-1.425.55-1.8.875V48.3c0 .4.025.475.4.5l2.475.2v2h-8.175v-2.025zm11.917.05l1.275-.175c.35-.05.4-.125.4-.5V41c0-.275-.075-.45-.325-.525L58.434 40l.275-2.025h5.175V48.35c0 .4.025.45.4.5l1.275.175V51h-7.125v-1.975zm.225-13.25l3.825-4.35 2.05 1.95-4.475 3.65-1.4-1.25zM74.894 49.65l-.125-.025c-.95.925-2.2 1.675-4.2 1.675-3.15 0-3.65-2.15-3.65-3.7 0-2.5 1.525-3.625 4.675-3.85l2.875-.2v-1.375c0-1.175-.125-1.975-1.675-1.975-1.2 0-1.825.175-1.825 1.675l-3.525-.3c0-3.375 3.075-3.85 5.375-3.85 3.8 0 5.325 1.025 5.325 4.525v6.075c0 .4.025.45.4.5l1.2.2V51h-4.6l-.25-1.35zm-2.125-3.9c-1.475.1-2 .475-2 1.475s.6 1.375 1.425 1.375c.85 0 1.7-.475 2.275-.9v-2.075l-1.7.125zm20.994-5.15c-.05-.225-.075-.3-.25-.35-.325-.1-.925-.2-1.6-.2-1.25 0-1.95.475-1.95 1.275 0 1.025 1.376 1.25 2.9 1.6 1.975.45 4.2 1.15 4.2 4.075 0 3.05-2.475 4.3-5.65 4.3-2.275 0-4.5-.6-4.95-.9v-3.625l2.675.2.25 1.425c.05.225.075.3.3.375.3.1.975.25 1.925.25 1.326 0 2.076-.375 2.076-1.3 0-1-1-1.3-2.275-1.525-2.1-.375-4.85-.825-4.85-4.1 0-3.1 2.65-4.375 5.525-4.375 1.975 0 3.9.45 4.6.725v3.625l-2.675-.175-.25-1.3zm16.508 9.425c-1.55.75-3.25 1.275-5.125 1.275-4.825 0-6.475-3-6.475-6.9 0-4.525 2.775-6.675 6.2-6.675 3.3 0 5.5 1.725 5.5 6.05 0 .3-.025 1.175-.05 1.675h-7.65c.125 1.775.9 2.95 2.95 2.95.975 0 2.025-.225 3.725-.85l.925 2.475zm-3.6-6.95c-.025-2.1-.85-2.65-1.875-2.65-1.075 0-1.95.6-2.1 2.65h3.975zm5.36 5.9l1.125-.15c.35-.05.4-.125.4-.5V41c0-.275-.075-.45-.325-.525l-1.35-.475.275-2.025h4.4l.3 2h.15c.825-1.275 1.925-2.25 3.525-2.25.575 0 1.725.1 2.175.225v4.55l-3-.1-.25-1.325c-.05-.225-.125-.275-.325-.275-.65 0-1.425.55-1.8.875V48.3c0 .4.025.475.4.5l2.475.2v2h-8.175v-2.025zm27.02.675l-.125-.025c-1.025.775-2.325 1.675-4.45 1.675-2.625 0-3.625-1.5-3.625-4.4v-6.1c0-.4-.025-.45-.4-.525l-1.2-.25.25-2.05h5.125v8.275c0 1.525.25 2.1 1.325 2.1 1.1 0 2-.625 2.575-1.15v-6.425c0-.4-.025-.425-.4-.5l-1.075-.25.275-2.05h4.975V48.35c0 .325.05.425.35.475l1.25.175v2h-4.65l-.2-1.35zm15.401-6.725c0-1.2-.075-2.2-1.325-2.2-.925 0-2.075.525-2.6.925v6.7c0 .4.025.45.4.5l1.2.175V51h-6.9v-2l1.125-.15c.35-.05.4-.125.4-.5V41c0-.275-.075-.45-.325-.525l-1.35-.475.3-2.025h4.375l.2 1.3.1.05c1.25-.925 2.7-1.6 4.4-1.6 2.725 0 3.775 1.5 3.775 4.25v6.375c0 .4.025.45.4.5l1.25.175V51h-5.425v-8.075zm14.776 6.725l-.125-.025c-.95.925-2.2 1.675-4.2 1.675-3.15 0-3.65-2.15-3.65-3.7 0-2.5 1.525-3.625 4.675-3.85l2.875-.2v-1.375c0-1.175-.125-1.975-1.675-1.975-1.2 0-1.825.175-1.825 1.675l-3.525-.3c0-3.375 3.075-3.85 5.375-3.85 3.8 0 5.325 1.025 5.325 4.525v6.075c0 .4.025.45.4.5l1.2.2V51h-4.6l-.25-1.35zm-2.125-3.9c-1.475.1-2 .475-2 1.475s.6 1.375 1.425 1.375c.85 0 1.7-.475 2.275-.9v-2.075l-1.7.125zM12.275 82.025c-1.55.75-3.25 1.275-5.125 1.275-4.825 0-6.475-3-6.475-6.9 0-4.525 2.775-6.675 6.2-6.675 3.3 0 5.5 1.725 5.5 6.05 0 .3-.025 1.175-.05 1.675h-7.65c.125 1.775.9 2.95 2.95 2.95.975 0 2.025-.225 3.725-.85l.925 2.475zm-3.6-6.95c-.025-2.1-.85-2.65-1.875-2.65-1.075 0-1.95.6-2.1 2.65h3.975zM21.438 72.6c-.05-.225-.075-.3-.25-.35-.325-.1-.925-.2-1.6-.2-1.25 0-1.95.475-1.95 1.275 0 1.025 1.375 1.25 2.9 1.6 1.975.45 4.2 1.15 4.2 4.075 0 3.05-2.475 4.3-5.65 4.3-2.275 0-4.5-.6-4.95-.9v-3.625l2.675.2.25 1.425c.05.225.075.3.3.375.3.1.975.25 1.925.25 1.325 0 2.075-.375 2.075-1.3 0-1-1-1.3-2.275-1.525-2.1-.375-4.85-.825-4.85-4.1 0-3.1 2.65-4.375 5.525-4.375 1.975 0 3.9.45 4.6.725v3.625l-2.675-.175-.25-1.3zm14.558 9.7c-1.075.525-2.65 1-4.075 1-2.975 0-4.1-1.2-4.1-4.025v-6.55c0-.15 0-.25-.2-.25h-1.75V70.25c2.2-.25 3.075-1.35 3.35-4.075h2.375v3.55c0 .175 0 .25.2.25h3.525v2.5h-3.725v5.975c0 1.475.35 2.05 1.7 2.05.7 0 1.425-.175 2.025-.4l.675 2.2zm9.247-.65l-.125-.025c-.95.925-2.2 1.675-4.2 1.675-3.15 0-3.65-2.15-3.65-3.7 0-2.5 1.525-3.625 4.675-3.85l2.875-.2v-1.375c0-1.175-.125-1.975-1.675-1.975-1.2 0-1.825.175-1.825 1.675l-3.525-.3c0-3.375 3.075-3.85 5.375-3.85 3.8 0 5.325 1.025 5.325 4.525v6.075c0 .4.025.45.4.5l1.2.2V83h-4.6l-.25-1.35zm-2.125-3.9c-1.475.1-2 .475-2 1.475s.6 1.375 1.425 1.375c.85 0 1.7-.475 2.275-.9v-2.075l-1.7.125zM51.284 81l1.4-.15c.35-.05.4-.15.4-.525v-7.6c0-.15 0-.25-.2-.25H51.21v-2.5h1.875V68.6c0-3.375 1.9-4.775 5.35-4.775 2.325 0 4.475.575 4.475 3.6l-3.5.425c.025-1.275-.325-1.575-1.15-1.575-1.25 0-1.4.675-1.4 1.875v1.575c0 .175 0 .25.2.25h3.95v2.5h-4.15v7.775c0 .4.075.475.45.5l3.05.275V83h-9.075v-2zm18.532.65l-.125-.025c-.95.925-2.2 1.675-4.2 1.675-3.15 0-3.65-2.15-3.65-3.7 0-2.5 1.525-3.625 4.675-3.85l2.875-.2v-1.375c0-1.175-.125-1.975-1.675-1.975-1.2 0-1.825.175-1.825 1.675l-3.525-.3c0-3.375 3.075-3.85 5.375-3.85 3.8 0 5.325 1.025 5.325 4.525v6.075c0 .4.025.45.4.5l1.2.2V83h-4.6l-.25-1.35zm-2.125-3.9c-1.475.1-2 .475-2 1.475s.6 1.375 1.425 1.375c.85 0 1.7-.475 2.275-.9v-2.075l-1.7.125zm13.016 3.6c0 1.275-.7 1.95-2.125 1.95-1.45 0-2.15-.65-2.15-1.95 0-1.275.7-1.95 2.15-1.95 1.4 0 2.125.675 2.125 1.95z" fill="#2B3D51"/></svg>