<svg width="258" height="58" viewBox="0 0 258 58" fill="none" xmlns="http://www.w3.org/2000/svg"><rect x="1" y="1" width="256" height="56" rx="7" fill="#DEEDFC" stroke="#09C0CB" stroke-width="2"/><path d="M33.375 33.514h.945c.714 0 1.351-.112 1.911-.336a3.972 3.972 0 001.407-.924c.392-.392.686-.854.882-1.386.21-.546.315-1.141.315-1.785 0-.63-.105-1.218-.315-1.764a3.986 3.986 0 00-.903-1.407 3.972 3.972 0 00-1.407-.924c-.56-.224-1.19-.336-1.89-.336h-.945v8.862zM29.26 21.166h6.09c1.078 0 2.086.217 3.024.651a8.01 8.01 0 012.478 1.743 7.794 7.794 0 011.68 2.52c.406.952.61 1.953.61 3.003a7.677 7.677 0 01-.61 3.003 7.811 7.811 0 01-1.659 2.52 8.01 8.01 0 01-2.478 1.743A7.162 7.162 0 0135.35 37h-6.09V21.166zm25.938 3.486h-4.893v2.646h4.62v3.486h-4.62v2.73h4.893V37h-9.009V21.166h9.01v3.486zm9.394 0V37h-4.116V24.652h-3.381v-3.486h10.878v3.486H64.59zm14.64 0H74.34v2.646h4.62v3.486h-4.62v2.73h4.892V37h-9.008V21.166h9.008v3.486zm-.776-7.518l-4.032 2.772-1.597-1.491 3.424-3.276 2.204 1.995zM82.618 37V21.166h4.116l7.602 9.681v-9.681h4.095V37h-4.095l-7.602-9.681V37h-4.116zm36.12-12.348h-4.893v2.646h4.62v3.486h-4.62v2.73h4.893V37h-9.009V21.166h9.009v3.486zm7.503-3.486v12.348h4.935V37h-9.051V21.166h4.116zm24.11 3.486h-4.956v2.646h4.515v3.486h-4.515V37h-4.116V21.166h9.072v3.486zm6.989 3.591h.777c.812 0 1.435-.168 1.869-.504.434-.336.651-.819.651-1.449 0-.63-.217-1.113-.651-1.449-.434-.336-1.057-.504-1.869-.504h-.777v3.906zM166.392 37h-5.124l-3.927-6.09V37h-4.116V21.166h6.405c.882 0 1.652.133 2.31.399.658.252 1.197.602 1.617 1.05.434.448.756.966.966 1.554.224.588.336 1.218.336 1.89 0 1.204-.294 2.184-.882 2.94-.574.742-1.428 1.246-2.562 1.512L166.392 37zm10.752-5.88l-1.848-5.271-1.848 5.271h3.696zm1.092 3.129h-5.88L171.411 37h-4.389l6.027-15.834h4.494L183.57 37h-4.389l-.945-2.751zm11.219-13.083v8.61c0 .462.014.938.042 1.428.042.476.147.91.315 1.302.182.392.462.714.84.966.378.238.91.357 1.596.357s1.211-.119 1.575-.357c.378-.252.658-.574.84-.966a3.56 3.56 0 00.315-1.302c.042-.49.063-.966.063-1.428v-8.61h4.095v9.177c0 2.464-.567 4.263-1.701 5.397-1.12 1.134-2.849 1.701-5.187 1.701s-4.074-.567-5.208-1.701c-1.134-1.134-1.701-2.933-1.701-5.397v-9.177h4.116zm17.544 12.348h.945c.714 0 1.351-.112 1.911-.336a3.972 3.972 0 001.407-.924c.392-.392.686-.854.882-1.386.21-.546.315-1.141.315-1.785 0-.63-.105-1.218-.315-1.764a3.986 3.986 0 00-.903-1.407 3.972 3.972 0 00-1.407-.924c-.56-.224-1.19-.336-1.89-.336h-.945v8.862zm-4.116-12.348h6.09c1.078 0 2.086.217 3.024.651a8.01 8.01 0 012.478 1.743 7.794 7.794 0 011.68 2.52c.406.952.609 1.953.609 3.003a7.677 7.677 0 01-.609 3.003 7.811 7.811 0 01-1.659 2.52 8.01 8.01 0 01-2.478 1.743 7.162 7.162 0 01-3.045.651h-6.09V21.166zm25.938 3.486h-4.893v2.646h4.62v3.486h-4.62v2.73h4.893V37h-9.009V21.166h9.009v3.486z" fill="#4A2B43"/></svg>