<svg width="247" height="166" viewBox="0 0 247 166" fill="none" xmlns="http://www.w3.org/2000/svg"><path d="M75.819 16.031c0-.656.24-1.224.72-1.705a2.35 2.35 0 011.723-.72c.668 0 1.242.24 1.723.72.48.48.72 1.055.72 1.723 0 .68-.24 1.26-.72 1.74-.469.469-1.043.703-1.723.703-.691 0-1.271-.234-1.74-.703-.469-.469-.703-1.055-.703-1.758zm7.87 0c0-.656.24-1.224.72-1.705a2.35 2.35 0 011.723-.72c.668 0 1.242.24 1.722.72s.721 1.055.721 1.723c0 .68-.24 1.26-.72 1.74a2.343 2.343 0 01-1.723.703c-.692 0-1.272-.234-1.74-.703-.47-.469-.704-1.055-.704-1.758zm7.869 0c0-.656.24-1.224.72-1.705a2.35 2.35 0 011.723-.72c.668 0 1.242.24 1.723.72.48.48.72 1.055.72 1.723 0 .68-.24 1.26-.72 1.74a2.343 2.343 0 01-1.723.703c-.691 0-1.271-.234-1.74-.703-.469-.469-.703-1.055-.703-1.758zm11.209 11.285h-3.955V.88h3.955v1.863c1.559-1.558 3.328-2.338 5.309-2.338 2.355 0 4.294.867 5.818 2.602 1.547 1.723 2.32 3.896 2.32 6.521 0 2.567-.767 4.705-2.303 6.416-1.523 1.7-3.445 2.55-5.765 2.55-2.004 0-3.797-.803-5.379-2.409v11.232zm9.404-17.771c0-1.64-.445-2.977-1.336-4.008-.902-1.043-2.039-1.564-3.41-1.564-1.453 0-2.631.504-3.533 1.511-.902 1.008-1.354 2.332-1.354 3.973 0 1.605.452 2.93 1.354 3.973.891 1.02 2.062 1.529 3.516 1.529 1.371 0 2.502-.516 3.392-1.547.914-1.031 1.371-2.32 1.371-3.867zM133.019.879h3.973V18h-3.973v-1.793c-1.629 1.523-3.381 2.285-5.256 2.285-2.367 0-4.324-.855-5.871-2.566-1.535-1.746-2.303-3.926-2.303-6.54 0-2.566.768-4.704 2.303-6.415 1.535-1.711 3.457-2.567 5.766-2.567 1.992 0 3.779.82 5.361 2.461V.88zm-9.387 8.508c0 1.64.44 2.976 1.319 4.008.902 1.043 2.039 1.564 3.41 1.564 1.465 0 2.648-.504 3.55-1.512.903-1.043 1.354-2.367 1.354-3.972 0-1.606-.451-2.93-1.354-3.973-.902-1.02-2.074-1.53-3.515-1.53-1.36 0-2.496.516-3.41 1.548-.903 1.043-1.354 2.332-1.354 3.867zM141.984.879h3.955v1.53c.726-.763 1.371-1.284 1.933-1.565.575-.293 1.254-.44 2.039-.44 1.043 0 2.133.34 3.27 1.02l-1.811 3.62c-.75-.538-1.482-.808-2.197-.808-2.156 0-3.234 1.63-3.234 4.887V18h-3.955V.879zm25.84 0h3.972V18h-3.972v-1.793c-1.629 1.523-3.381 2.285-5.256 2.285-2.367 0-4.324-.855-5.871-2.566-1.536-1.746-2.303-3.926-2.303-6.54 0-2.566.767-4.704 2.303-6.415 1.535-1.711 3.457-2.567 5.765-2.567 1.992 0 3.78.82 5.362 2.461V.88zm-9.387 8.508c0 1.64.439 2.976 1.318 4.008.903 1.043 2.039 1.564 3.41 1.564 1.465 0 2.649-.504 3.551-1.512.903-1.043 1.354-2.367 1.354-3.972 0-1.606-.451-2.93-1.354-3.973-.902-1.02-2.074-1.53-3.515-1.53-1.36 0-2.497.516-3.411 1.548-.902 1.043-1.353 2.332-1.353 3.867zM13.795 47.879h3.973V65h-3.973v-1.793c-1.629 1.524-3.38 2.285-5.256 2.285-2.367 0-4.324-.855-5.871-2.566C1.133 61.18.365 59 .365 56.386c0-2.566.768-4.704 2.303-6.415 1.535-1.711 3.457-2.567 5.766-2.567 1.992 0 3.779.82 5.36 2.461V47.88zm-9.387 8.508c0 1.64.44 2.976 1.319 4.008.902 1.042 2.039 1.564 3.41 1.564 1.465 0 2.648-.504 3.55-1.512.903-1.043 1.354-2.367 1.354-3.972 0-1.606-.451-2.93-1.354-3.973-.902-1.02-2.074-1.53-3.515-1.53-1.36 0-2.496.516-3.41 1.547-.903 1.044-1.354 2.333-1.354 3.868zm28.301-5.59l-3.27 1.74c-.515-1.055-1.154-1.582-1.916-1.582a1.3 1.3 0 00-.931.37c-.258.234-.387.538-.387.913 0 .657.762 1.307 2.285 1.952 2.098.902 3.51 1.734 4.237 2.495.726.762 1.09 1.788 1.09 3.077 0 1.652-.61 3.035-1.829 4.148-1.183 1.055-2.613 1.582-4.289 1.582-2.87 0-4.904-1.4-6.1-4.201l3.376-1.564c.468.82.826 1.341 1.072 1.564.48.445 1.055.668 1.723.668 1.335 0 2.003-.61 2.003-1.828 0-.703-.515-1.36-1.546-1.969a55.91 55.91 0 00-1.196-.58c-.398-.188-.802-.38-1.213-.58-1.148-.563-1.957-1.125-2.425-1.688-.598-.714-.897-1.634-.897-2.76 0-1.488.51-2.718 1.53-3.69 1.042-.973 2.308-1.46 3.796-1.46 2.192 0 3.82 1.131 4.887 3.393zm20.268 6.574h-12.27c.105 1.406.563 2.526 1.371 3.357.809.82 1.846 1.231 3.111 1.231.985 0 1.8-.234 2.444-.703.633-.469 1.353-1.336 2.162-2.602l3.34 1.864a13.625 13.625 0 01-1.635 2.267 9.055 9.055 0 01-1.846 1.547 7.547 7.547 0 01-2.127.879c-.761.187-1.587.281-2.478.281-2.555 0-4.606-.82-6.152-2.46-1.547-1.653-2.32-3.844-2.32-6.575 0-2.707.75-4.898 2.25-6.574 1.51-1.653 3.515-2.479 6.01-2.479 2.52 0 4.513.803 5.977 2.408 1.454 1.594 2.18 3.803 2.18 6.628l-.017.931zm-4.061-3.234c-.55-2.11-1.88-3.164-3.99-3.164-.48 0-.932.076-1.354.228-.422.14-.808.352-1.16.633-.34.27-.633.598-.879.984a4.614 4.614 0 00-.562 1.319h7.945zm24.961 10.459c0 .808-.03 1.517-.088 2.127a13.669 13.669 0 01-.21 1.634c-.282 1.29-.833 2.397-1.653 3.323-1.547 1.78-3.674 2.672-6.381 2.672-2.285 0-4.166-.616-5.643-1.846-1.523-1.266-2.402-3.018-2.636-5.256h3.972c.153.844.405 1.494.756 1.951.82 1.067 2.016 1.6 3.586 1.6 2.895 0 4.342-1.776 4.342-5.326v-2.391c-1.57 1.605-3.381 2.408-5.432 2.408-2.332 0-4.242-.844-5.73-2.531-1.5-1.711-2.25-3.85-2.25-6.416 0-2.496.697-4.617 2.092-6.363 1.5-1.852 3.48-2.778 5.941-2.778 2.156 0 3.95.803 5.379 2.408V47.88h3.955v16.717zm-3.797-8.121c0-1.665-.445-2.995-1.336-3.99-.902-1.02-2.056-1.53-3.463-1.53-1.5 0-2.683.557-3.55 1.67-.786.996-1.178 2.285-1.178 3.867 0 1.559.392 2.836 1.178 3.832.855 1.09 2.038 1.635 3.55 1.635s2.707-.55 3.586-1.652c.809-.997 1.213-2.274 1.213-3.832zm12.744-8.596v9.826c0 2.836 1.12 4.254 3.358 4.254s3.357-1.418 3.357-4.254V47.88h3.955v9.914c0 1.371-.17 2.555-.51 3.55-.328.891-.896 1.694-1.705 2.409-1.336 1.16-3.035 1.74-5.097 1.74-2.051 0-3.745-.58-5.08-1.74-.82-.715-1.4-1.518-1.74-2.408-.329-.797-.493-1.98-.493-3.551v-9.914h3.955zm15.662 0h3.955v1.53c.727-.762 1.371-1.284 1.934-1.565.574-.293 1.254-.44 2.039-.44 1.043 0 2.133.34 3.27 1.02l-1.811 3.62c-.75-.538-1.482-.808-2.197-.808-2.156 0-3.235 1.63-3.235 4.887V65h-3.955V47.879zm25.84 0h3.973V65h-3.973v-1.793c-1.629 1.524-3.381 2.285-5.256 2.285-2.367 0-4.324-.855-5.871-2.566-1.535-1.746-2.303-3.926-2.303-6.54 0-2.566.768-4.704 2.303-6.415 1.535-1.711 3.457-2.567 5.766-2.567 1.992 0 3.779.82 5.361 2.461V47.88zm-9.387 8.508c0 1.64.44 2.976 1.319 4.008.902 1.042 2.039 1.564 3.41 1.564 1.465 0 2.648-.504 3.551-1.512.902-1.043 1.353-2.367 1.353-3.972 0-1.606-.451-2.93-1.353-3.973-.903-1.02-2.074-1.53-3.516-1.53-1.359 0-2.496.516-3.41 1.547-.902 1.044-1.354 2.333-1.354 3.868zm18.352-8.508h3.955v1.53c.727-.762 1.371-1.284 1.934-1.565.574-.293 1.254-.44 2.039-.44 1.043 0 2.133.34 3.269 1.02l-1.81 3.62c-.75-.538-1.483-.808-2.198-.808-2.156 0-3.234 1.63-3.234 4.887V65h-3.955V47.879zm18.844 3.691V65h-3.955V51.57h-1.688V47.88h1.688v-6.276h3.955v6.276h3.076v3.691h-3.076zm21.674 5.801h-12.27c.106 1.406.563 2.526 1.371 3.357.809.82 1.846 1.231 3.111 1.231.985 0 1.799-.234 2.444-.703.633-.469 1.353-1.336 2.162-2.602l3.34 1.864a13.654 13.654 0 01-1.635 2.267 9.03 9.03 0 01-1.846 1.547 7.541 7.541 0 01-2.127.879c-.761.187-1.588.281-2.478.281-2.555 0-4.606-.82-6.152-2.46-1.547-1.653-2.321-3.844-2.321-6.575 0-2.707.75-4.898 2.25-6.574 1.512-1.653 3.516-2.479 6.012-2.479 2.519 0 4.512.803 5.976 2.408 1.454 1.594 2.18 3.803 2.18 6.628l-.017.931zm-4.061-3.234c-.551-2.11-1.881-3.164-3.99-3.164-.481 0-.932.076-1.354.228-.422.14-.808.352-1.16.633-.34.27-.633.598-.879.984a4.62 4.62 0 00-.562 1.319h7.945zm32.133 20.18V63.083c-1.57 1.605-3.363 2.408-5.379 2.408-2.309 0-4.225-.85-5.748-2.549-1.535-1.71-2.303-3.85-2.303-6.416 0-2.601.768-4.775 2.303-6.521 1.547-1.734 3.486-2.602 5.818-2.602 1.981 0 3.75.78 5.309 2.338V47.88h3.973v26.437h-3.973zm-9.387-17.965c0 1.652.445 2.994 1.336 4.025.891 1.055 2.022 1.582 3.393 1.582 1.453 0 2.631-.504 3.533-1.512.914-1.02 1.371-2.344 1.371-3.972 0-1.606-.451-2.93-1.354-3.973-.902-1.02-2.074-1.53-3.515-1.53-1.36 0-2.496.516-3.41 1.547-.903 1.044-1.354 2.32-1.354 3.833zm22.729-8.473v9.826c0 2.836 1.119 4.254 3.357 4.254 2.238 0 3.358-1.418 3.358-4.254V47.88h3.955v9.914c0 1.371-.17 2.555-.51 3.55-.328.891-.897 1.694-1.705 2.409-1.336 1.16-3.035 1.74-5.098 1.74-2.051 0-3.744-.58-5.08-1.74-.82-.715-1.4-1.518-1.74-2.408-.328-.797-.492-1.98-.492-3.551v-9.914h3.955zm31.254 9.492h-12.27c.105 1.406.563 2.526 1.371 3.357.809.82 1.846 1.231 3.111 1.231.985 0 1.799-.234 2.444-.703.633-.469 1.353-1.336 2.162-2.602l3.34 1.864A13.654 13.654 0 01245 62.785a9.03 9.03 0 01-1.846 1.547 7.541 7.541 0 01-2.127.879c-.761.187-1.588.281-2.478.281-2.555 0-4.606-.82-6.153-2.46-1.546-1.653-2.32-3.844-2.32-6.575 0-2.707.75-4.898 2.25-6.574 1.512-1.653 3.516-2.479 6.012-2.479 2.519 0 4.512.803 5.976 2.408 1.454 1.594 2.18 3.803 2.18 6.628l-.017.931zm-4.061-3.234c-.551-2.11-1.881-3.164-3.99-3.164-.481 0-.932.076-1.354.228-.422.14-.808.352-1.16.633-.34.27-.633.598-.879.984a4.62 4.62 0 00-.562 1.319h7.945zm-162.861 46.63c-.258-1.09-.789-1.964-1.591-2.623-.803-.66-1.778-.989-2.924-.989-1.204 0-2.193.315-2.967.946-.746.63-1.219 1.52-1.42 2.666h8.902zm-9.116 4.515c0 3.354 1.576 5.031 4.73 5.031 1.691 0 2.967-.688 3.827-2.064h7.525c-1.52 5.045-5.318 7.568-11.395 7.568-1.864 0-3.57-.272-5.117-.817-1.548-.573-2.881-1.376-4-2.408a10.779 10.779 0 01-2.536-3.698c-.602-1.433-.903-3.039-.903-4.816 0-1.835.286-3.483.86-4.945.573-1.49 1.39-2.752 2.45-3.784 1.061-1.032 2.337-1.82 3.828-2.365 1.519-.573 3.225-.86 5.117-.86 1.863 0 3.54.287 5.03.86 1.491.545 2.753 1.347 3.785 2.408 1.032 1.06 1.82 2.365 2.365 3.913.544 1.519.817 3.239.817 5.16v.817H70.439zm35.451-6.665c-1.433-.745-2.838-1.118-4.214-1.118-.716 0-1.304.143-1.763.43-.43.287-.644.674-.644 1.161 0 .258.028.473.085.645.087.143.244.287.474.43.257.143.616.272 1.074.387.488.115 1.118.258 1.892.43 2.15.43 3.756 1.204 4.816 2.322 1.061 1.089 1.591 2.494 1.591 4.214 0 1.29-.258 2.451-.774 3.483a7.605 7.605 0 01-2.15 2.623c-.917.688-2.021 1.218-3.311 1.591-1.29.401-2.709.602-4.256.602-2.982 0-5.92-.846-8.816-2.537l2.838-5.504c2.18 1.491 4.243 2.236 6.192 2.236.717 0 1.305-.158 1.763-.473.459-.315.688-.717.688-1.204 0-.287-.043-.516-.129-.688-.057-.201-.2-.373-.43-.516-.229-.172-.573-.315-1.032-.43a14.873 14.873 0 00-1.72-.43c-2.407-.487-4.099-1.204-5.073-2.15-.947-.975-1.42-2.308-1.42-3.999 0-1.233.23-2.336.689-3.311a6.855 6.855 0 011.977-2.537c.86-.688 1.892-1.218 3.097-1.591 1.232-.373 2.594-.559 4.084-.559 2.437 0 4.802.473 7.095 1.419l-2.623 5.074zm16.532.817V115h-7.783V99.434h-2.58v-6.493h2.58v-6.622h7.783v6.622h4.429v6.493h-4.429zm14.999 4.472c0 .717.129 1.39.387 2.021a5.438 5.438 0 001.032 1.591 5.03 5.03 0 001.591 1.075 5.29 5.29 0 002.021.387 4.86 4.86 0 001.935-.387 4.454 4.454 0 001.591-1.075 5.03 5.03 0 001.075-1.591c.287-.602.43-1.247.43-1.935s-.143-1.333-.43-1.935a4.907 4.907 0 00-1.075-1.634 4.458 4.458 0 00-1.591-1.075 4.86 4.86 0 00-1.935-.387 5.29 5.29 0 00-2.021.387 5.035 5.035 0 00-1.591 1.075c-.43.459-.774.989-1.032 1.591a4.556 4.556 0 00-.387 1.892zm9.804-10.965h7.826V115h-7.826v-2.451c-1.662 2.093-3.913 3.139-6.751 3.139-1.605 0-3.081-.287-4.429-.86a10.962 10.962 0 01-3.526-2.494c-1.003-1.061-1.791-2.308-2.365-3.741-.544-1.433-.817-2.996-.817-4.687 0-1.577.273-3.067.817-4.472.545-1.433 1.305-2.68 2.279-3.741a10.487 10.487 0 013.483-2.494c1.348-.63 2.838-.946 4.472-.946 2.752 0 5.031.96 6.837 2.881v-2.193zm2.881-9.847l-7.482 6.622-3.612-2.666 6.149-7.525 4.945 3.569zm10.242 9.847h7.783v2.795c1.06-1.29 2.135-2.15 3.225-2.58 1.089-.459 2.365-.688 3.827-.688 1.548 0 2.866.258 3.956.774a7.67 7.67 0 012.838 2.107 6.132 6.132 0 011.29 2.494c.229.917.344 1.964.344 3.139V115h-7.783v-11.137c0-1.089-.086-1.964-.258-2.623-.144-.688-.416-1.233-.817-1.634a2.949 2.949 0 00-1.161-.731 4.326 4.326 0 00-1.376-.215c-1.319 0-2.337.401-3.053 1.204-.688.774-1.032 1.892-1.032 3.354V115h-7.783V92.941zM31.045 150.079c-1.348-.917-2.71-1.376-4.085-1.376a5.73 5.73 0 00-2.107.387c-.63.258-1.19.631-1.677 1.118a5.025 5.025 0 00-1.161 1.677c-.258.631-.387 1.347-.387 2.15 0 .774.129 1.491.387 2.15.287.631.66 1.19 1.118 1.677a5.29 5.29 0 001.72 1.075 5.73 5.73 0 002.107.387c1.462 0 2.823-.502 4.085-1.505v6.622c-1.92.831-3.741 1.247-5.461 1.247-1.605 0-3.14-.272-4.601-.817a12.136 12.136 0 01-3.827-2.322 12.007 12.007 0 01-2.623-3.655c-.66-1.433-.99-3.024-.99-4.773 0-1.749.316-3.34.947-4.773.63-1.462 1.49-2.709 2.58-3.741 1.09-1.061 2.38-1.878 3.87-2.451 1.52-.602 3.139-.903 4.859-.903 1.892 0 3.64.401 5.246 1.204v6.622zm11.792 3.784c0 .745.129 1.433.387 2.064a6.215 6.215 0 001.075 1.591c.459.459.989.817 1.59 1.075.631.258 1.29.387 1.979.387a4.86 4.86 0 001.935-.387 4.458 4.458 0 001.59-1.075 5.036 5.036 0 001.076-1.591c.286-.631.43-1.304.43-2.021 0-.688-.144-1.333-.43-1.935a4.913 4.913 0 00-1.075-1.634 4.458 4.458 0 00-1.591-1.075 4.86 4.86 0 00-1.935-.387c-.688 0-1.348.129-1.978.387a5.025 5.025 0 00-1.591 1.075c-.43.459-.788.989-1.075 1.591a4.86 4.86 0 00-.387 1.935zm-8.213-.086c0-1.634.33-3.153.989-4.558a10.962 10.962 0 012.752-3.698c1.175-1.061 2.566-1.892 4.17-2.494 1.635-.602 3.412-.903 5.333-.903 1.892 0 3.64.301 5.246.903 1.634.573 3.039 1.39 4.214 2.451a10.61 10.61 0 012.795 3.741c.66 1.433.989 3.024.989 4.773 0 1.749-.344 3.354-1.032 4.816a11.423 11.423 0 01-2.752 3.741c-1.175 1.032-2.595 1.835-4.257 2.408-1.634.573-3.411.86-5.332.86-1.892 0-3.64-.287-5.246-.86-1.605-.573-2.996-1.39-4.171-2.451a11.581 11.581 0 01-2.71-3.784c-.659-1.491-.988-3.139-.988-4.945zm30.968-10.836h7.783v3.612c.832-1.319 1.85-2.322 3.053-3.01 1.204-.717 2.609-1.075 4.214-1.075h.645c.258 0 .545.029.86.086v7.439a7.395 7.395 0 00-3.354-.774c-1.806 0-3.167.545-4.085 1.634-.888 1.061-1.333 2.623-1.333 4.687V165h-7.783v-22.059zm20.03 0h7.784v3.612c.83-1.319 1.848-2.322 3.052-3.01 1.204-.717 2.61-1.075 4.215-1.075h.645c.258 0 .544.029.86.086v7.439a7.395 7.395 0 00-3.355-.774c-1.805 0-3.167.545-4.084 1.634-.89 1.061-1.334 2.623-1.334 4.687V165h-7.782v-22.059zm36.408 7.826c-.258-1.089-.789-1.964-1.591-2.623-.803-.659-1.778-.989-2.924-.989-1.204 0-2.193.315-2.967.946-.746.631-1.219 1.519-1.419 2.666h8.901zm-9.116 4.515c0 3.354 1.576 5.031 4.73 5.031 1.691 0 2.967-.688 3.827-2.064h7.525c-1.52 5.045-5.318 7.568-11.395 7.568-1.864 0-3.569-.272-5.117-.817-1.548-.573-2.881-1.376-3.999-2.408a10.77 10.77 0 01-2.537-3.698c-.602-1.433-.903-3.039-.903-4.816 0-1.835.286-3.483.86-4.945.573-1.491 1.39-2.752 2.451-3.784 1.06-1.032 2.336-1.82 3.827-2.365 1.519-.573 3.225-.86 5.117-.86 1.863 0 3.54.287 5.031.86 1.49.545 2.752 1.347 3.784 2.408s1.82 2.365 2.365 3.913c.544 1.519.817 3.239.817 5.16v.817h-16.383zm37.473-5.203c-1.348-.917-2.709-1.376-4.085-1.376-.746 0-1.448.129-2.107.387a5.058 5.058 0 00-1.677 1.118 5.005 5.005 0 00-1.161 1.677c-.258.631-.387 1.347-.387 2.15 0 .774.129 1.491.387 2.15.286.631.659 1.19 1.118 1.677a5.28 5.28 0 001.72 1.075 5.726 5.726 0 002.107.387c1.462 0 2.823-.502 4.085-1.505v6.622c-1.921.831-3.741 1.247-5.461 1.247-1.606 0-3.139-.272-4.601-.817a12.128 12.128 0 01-3.827-2.322 11.99 11.99 0 01-2.623-3.655c-.66-1.433-.989-3.024-.989-4.773 0-1.749.315-3.34.946-4.773.63-1.462 1.49-2.709 2.58-3.741 1.089-1.061 2.379-1.878 3.87-2.451 1.519-.602 3.139-.903 4.859-.903 1.892 0 3.64.401 5.246 1.204v6.622zm13.125-.645V165h-7.783v-15.566h-2.58v-6.493h2.58v-6.622h7.783v6.622h4.429v6.493h-4.429zm14.999 4.472c0 .717.129 1.39.387 2.021a5.438 5.438 0 001.032 1.591c.458.459.989.817 1.591 1.075.63.258 1.304.387 2.021.387a4.86 4.86 0 001.935-.387 4.463 4.463 0 001.591-1.075 5.046 5.046 0 001.075-1.591c.286-.602.43-1.247.43-1.935s-.144-1.333-.43-1.935a4.923 4.923 0 00-1.075-1.634 4.463 4.463 0 00-1.591-1.075 4.86 4.86 0 00-1.935-.387c-.717 0-1.391.129-2.021.387a5.019 5.019 0 00-1.591 1.075c-.43.459-.774.989-1.032 1.591a4.556 4.556 0 00-.387 1.892zm9.804-10.965h7.826V165h-7.826v-2.451c-1.663 2.093-3.913 3.139-6.751 3.139-1.606 0-3.082-.287-4.429-.86a10.94 10.94 0 01-3.526-2.494c-1.004-1.061-1.792-2.308-2.365-3.741-.545-1.433-.817-2.996-.817-4.687 0-1.577.272-3.067.817-4.472.544-1.433 1.304-2.68 2.279-3.741a10.462 10.462 0 013.483-2.494c1.347-.631 2.838-.946 4.472-.946 2.752 0 5.031.96 6.837 2.881v-2.193zm27.742 5.676c-1.433-.745-2.838-1.118-4.214-1.118-.717 0-1.304.143-1.763.43-.43.287-.645.674-.645 1.161 0 .258.029.473.086.645.086.143.244.287.473.43.258.143.616.272 1.075.387.487.115 1.118.258 1.892.43 2.15.43 3.755 1.204 4.816 2.322 1.061 1.089 1.591 2.494 1.591 4.214 0 1.29-.258 2.451-.774 3.483a7.616 7.616 0 01-2.15 2.623c-.917.688-2.021 1.218-3.311 1.591-1.29.401-2.709.602-4.257.602-2.981 0-5.92-.846-8.815-2.537l2.838-5.504c2.179 1.491 4.243 2.236 6.192 2.236.717 0 1.304-.158 1.763-.473.459-.315.688-.717.688-1.204 0-.287-.043-.516-.129-.688-.057-.201-.201-.373-.43-.516-.229-.172-.573-.315-1.032-.43a14.857 14.857 0 00-1.72-.43c-2.408-.487-4.099-1.204-5.074-2.15-.946-.975-1.419-2.308-1.419-3.999 0-1.233.229-2.336.688-3.311a6.86 6.86 0 011.978-2.537c.86-.688 1.892-1.218 3.096-1.591 1.233-.373 2.594-.559 4.085-.559 2.437 0 4.802.473 7.095 1.419l-2.623 5.074zm6.871 12.255c0-.688.129-1.333.387-1.935a4.907 4.907 0 011.075-1.634 5.03 5.03 0 011.591-1.075 5.176 5.176 0 011.978-.387 4.86 4.86 0 011.935.387 4.907 4.907 0 011.634 1.075 4.907 4.907 0 011.075 1.634 4.86 4.86 0 01.387 1.935c0 .688-.129 1.347-.387 1.978a5.03 5.03 0 01-1.075 1.591 4.907 4.907 0 01-1.634 1.075 4.86 4.86 0 01-1.935.387 5.176 5.176 0 01-1.978-.387 5.03 5.03 0 01-1.591-1.075 5.03 5.03 0 01-1.075-1.591 5.176 5.176 0 01-.387-1.978z" fill="#fff"/></svg>