<svg width="233" height="178" viewBox="0 0 233 178" fill="none" xmlns="http://www.w3.org/2000/svg"><path d="M65.642 5.62l-3.507 2.077c-.656-1.138-1.28-1.88-1.874-2.226-.619-.396-1.417-.594-2.394-.594-1.2 0-2.195.34-2.987 1.02-.792.668-1.188 1.51-1.188 2.524 0 1.398 1.04 2.523 3.118 3.377l2.857 1.169c2.325.94 4.026 2.09 5.102 3.451 1.077 1.348 1.615 3.006 1.615 4.973 0 2.634-.879 4.812-2.635 6.53-1.769 1.733-3.965 2.599-6.587 2.599-2.486 0-4.54-.736-6.16-2.209-1.596-1.471-2.592-3.543-2.987-6.215l4.379-.965c.198 1.682.544 2.845 1.039 3.488.89 1.237 2.19 1.856 3.896 1.856 1.348 0 2.468-.452 3.358-1.355.891-.903 1.336-2.047 1.336-3.433 0-.556-.08-1.063-.24-1.521a3.57 3.57 0 00-.724-1.28c-.322-.396-.743-.761-1.262-1.095a11.712 11.712 0 00-1.856-.983l-2.764-1.15c-3.922-1.658-5.882-4.083-5.882-7.274 0-2.153.822-3.952 2.468-5.4 1.645-1.46 3.692-2.19 6.141-2.19 3.303 0 5.882 1.609 7.738 4.825zm9.333 6.308V30H70.8V11.928h4.175zm-4.806-7.515c0-.73.266-1.36.798-1.892a2.607 2.607 0 011.91-.798c.755 0 1.399.266 1.93.798.532.519.799 1.156.799 1.91 0 .755-.266 1.398-.798 1.93a2.568 2.568 0 01-1.912.798 2.629 2.629 0 01-1.93-.798c-.531-.532-.797-1.181-.797-1.948zM96.72 21.947H83.769c.112 1.485.594 2.666 1.448 3.544.853.866 1.948 1.299 3.284 1.299 1.039 0 1.899-.247 2.58-.742.667-.495 1.428-1.41 2.281-2.746l3.526 1.967c-.545.927-1.12 1.725-1.726 2.393a9.555 9.555 0 01-1.948 1.633 7.97 7.97 0 01-2.245.928c-.804.198-1.676.297-2.616.297-2.697 0-4.862-.866-6.495-2.598-1.632-1.744-2.449-4.057-2.449-6.94 0-2.857.792-5.17 2.375-6.939 1.596-1.744 3.711-2.616 6.346-2.616 2.66 0 4.762.847 6.309 2.542 1.533 1.682 2.3 4.014 2.3 6.995l-.018.983zm-4.286-3.414c-.582-2.226-1.986-3.34-4.212-3.34-.507 0-.984.08-1.43.242a3.943 3.943 0 00-1.224.667 4.17 4.17 0 00-.927 1.04 4.87 4.87 0 00-.594 1.391h8.387zm8.869-6.605h4.175v1.67c.804-.841 1.49-1.41 2.059-1.707.606-.31 1.367-.464 2.282-.464 2.041 0 3.656.89 4.843 2.672 1.311-1.782 3.086-2.672 5.325-2.672 4.07 0 6.105 2.468 6.105 7.403V30h-4.194V19.962c0-1.732-.21-2.956-.63-3.674-.433-.73-1.145-1.095-2.134-1.095-1.151 0-1.992.433-2.524 1.3-.519.865-.779 2.257-.779 4.174V30h-4.193v-9.982c0-3.217-.928-4.825-2.784-4.825-1.175 0-2.034.44-2.579 1.318-.532.878-.797 2.263-.797 4.156V30h-4.175V11.928zm34.716 27.906h-4.175V11.928h4.175v1.966c1.645-1.645 3.513-2.467 5.603-2.467 2.486 0 4.534.915 6.142 2.746 1.632 1.818 2.449 4.113 2.449 6.884 0 2.709-.81 4.966-2.431 6.772-1.608 1.794-3.637 2.69-6.086 2.69-2.115 0-4.008-.847-5.677-2.541v11.856zm9.926-18.759c0-1.732-.47-3.142-1.41-4.23-.952-1.101-2.152-1.652-3.599-1.652-1.534 0-2.777.532-3.73 1.596-.952 1.064-1.429 2.462-1.429 4.193 0 1.695.477 3.093 1.429 4.194.94 1.076 2.177 1.614 3.711 1.614 1.447 0 2.641-.544 3.581-1.633.965-1.088 1.447-2.449 1.447-4.082zm8.684-9.147h4.175v1.614c.767-.804 1.447-1.354 2.041-1.651.606-.31 1.323-.464 2.152-.464 1.101 0 2.251.359 3.451 1.076l-1.911 3.822c-.792-.569-1.565-.853-2.319-.853-2.276 0-3.414 1.72-3.414 5.158V30h-4.175V11.928zm30.411 10.02H172.09c.111 1.484.594 2.665 1.447 3.543.854.866 1.948 1.299 3.284 1.299 1.039 0 1.899-.247 2.579-.742.668-.495 1.429-1.41 2.283-2.746l3.525 1.967c-.544.927-1.119 1.725-1.726 2.393a9.543 9.543 0 01-1.948 1.633c-.693.42-1.441.73-2.245.928-.804.198-1.676.297-2.616.297-2.697 0-4.861-.866-6.494-2.598-1.633-1.744-2.45-4.057-2.45-6.94 0-2.857.792-5.17 2.375-6.939 1.596-1.744 3.711-2.616 6.346-2.616 2.66 0 4.763.847 6.309 2.542 1.534 1.682 2.301 4.014 2.301 6.995l-.019.983zm-4.286-3.415c-.581-2.226-1.985-3.34-4.212-3.34-.507 0-.983.08-1.429.242a3.942 3.942 0 00-1.224.667 4.17 4.17 0 00-.928 1.04c-.26.408-.458.872-.594 1.391h8.387zM22.291 58.55h4.724v1.827c.867-.91 1.637-1.533 2.31-1.87.685-.35 1.497-.524 2.435-.524 1.245 0 2.547.406 3.905 1.218l-2.163 4.325c-.895-.644-1.77-.966-2.624-.966-2.576 0-3.863 1.946-3.863 5.837V79H22.29V58.55zm34.412 11.338H42.048c.126 1.68.672 3.016 1.637 4.01.966.98 2.205 1.47 3.717 1.47 1.176 0 2.148-.28 2.918-.84.756-.56 1.617-1.596 2.583-3.108l3.99 2.226c-.617 1.05-1.268 1.953-1.953 2.709a10.815 10.815 0 01-2.205 1.847 9.016 9.016 0 01-2.54 1.05 12.37 12.37 0 01-2.961.336c-3.052 0-5.501-.98-7.349-2.94-1.847-1.973-2.771-4.59-2.771-7.852 0-3.234.896-5.851 2.687-7.853 1.806-1.973 4.2-2.96 7.18-2.96 3.01 0 5.39.959 7.14 2.876 1.735 1.904 2.603 4.542 2.603 7.916l-.02 1.113zm-4.85-3.864c-.658-2.52-2.247-3.779-4.766-3.779-.574 0-1.113.091-1.617.273a4.46 4.46 0 00-1.386.756 4.717 4.717 0 00-1.05 1.176 5.512 5.512 0 00-.671 1.574h9.49zm11.82-7.474l5.292 11.485 5.27-11.485h5.312L68.923 80.407 58.383 58.55h5.29zm23.81 0V79H82.76V58.55h4.724zm-5.438-8.504c0-.825.301-1.54.903-2.141.602-.602 1.323-.903 2.163-.903.854 0 1.581.3 2.183.903.602.588.903 1.309.903 2.162 0 .854-.3 1.582-.903 2.184-.587.602-1.308.903-2.162.903-.854 0-1.582-.301-2.184-.903-.602-.602-.903-1.337-.903-2.205zm23.306 11.99l-3.905 2.078c-.616-1.26-1.379-1.89-2.289-1.89-.434 0-.805.147-1.113.441-.307.28-.462.644-.462 1.092 0 .784.91 1.56 2.73 2.33 2.506 1.078 4.192 2.072 5.06 2.982.868.91 1.302 2.135 1.302 3.674 0 1.974-.728 3.626-2.184 4.955-1.414 1.26-3.121 1.89-5.123 1.89-3.43 0-5.858-1.673-7.285-5.018l4.03-1.869c.56.98.988 1.603 1.282 1.869.573.532 1.26.798 2.057.798 1.596 0 2.394-.728 2.394-2.184 0-.84-.616-1.624-1.848-2.352a67.14 67.14 0 00-1.428-.692c-.476-.224-.959-.455-1.448-.693-1.372-.672-2.338-1.344-2.898-2.016-.714-.854-1.07-1.953-1.07-3.296 0-1.778.608-3.248 1.826-4.41 1.246-1.161 2.758-1.742 4.535-1.742 2.618 0 4.563 1.35 5.837 4.052zm20.66-3.486h4.745V79h-4.745v-2.142c-1.945 1.82-4.038 2.73-6.278 2.73-2.827 0-5.165-1.022-7.012-3.066-1.834-2.085-2.751-4.689-2.751-7.81 0-3.066.917-5.62 2.751-7.664 1.833-2.043 4.129-3.065 6.886-3.065 2.38 0 4.515.98 6.404 2.94V58.55zm-11.212 10.162c0 1.96.525 3.555 1.575 4.787 1.078 1.246 2.436 1.869 4.073 1.869 1.75 0 3.164-.602 4.241-1.806 1.078-1.246 1.617-2.828 1.617-4.745 0-1.918-.539-3.5-1.617-4.745-1.077-1.218-2.477-1.827-4.199-1.827-1.623 0-2.981.616-4.073 1.848-1.078 1.245-1.617 2.785-1.617 4.619zm43.56-5.278V79h-7.783V63.434h-2.58v-6.493h2.58v-6.622h7.783v6.622h4.429v6.493h-4.429zm15.138-6.493v12.427c0 2.723 1.319 4.085 3.956 4.085 2.638 0 3.956-1.362 3.956-4.085V56.941h7.783v13.932c0 2.981-.989 5.217-2.967 6.708-1.949 1.49-4.873 2.236-8.772 2.236-3.898 0-6.837-.745-8.815-2.236-1.949-1.49-2.924-3.727-2.924-6.708V56.941h7.783zm35.602 5.676c-1.433-.745-2.838-1.118-4.214-1.118-.717 0-1.304.143-1.763.43-.43.287-.645.674-.645 1.161 0 .258.029.473.086.645.086.143.244.287.473.43.258.143.616.272 1.075.387.487.115 1.118.258 1.892.43 2.15.43 3.755 1.204 4.816 2.322 1.061 1.09 1.591 2.494 1.591 4.214 0 1.29-.258 2.451-.774 3.483a7.614 7.614 0 01-2.15 2.623c-.917.688-2.021 1.218-3.311 1.591-1.29.401-2.709.602-4.257.602-2.981 0-5.92-.846-8.815-2.537l2.838-5.504c2.179 1.49 4.243 2.236 6.192 2.236.717 0 1.304-.158 1.763-.473.459-.315.688-.717.688-1.204 0-.287-.043-.516-.129-.688-.057-.2-.201-.373-.43-.516-.229-.172-.573-.315-1.032-.43a14.857 14.857 0 00-1.72-.43c-2.408-.487-4.099-1.204-5.074-2.15-.946-.975-1.419-2.308-1.419-3.999 0-1.233.229-2.336.688-3.311a6.858 6.858 0 011.978-2.537c.86-.688 1.892-1.218 3.096-1.591 1.233-.373 2.594-.559 4.085-.559 2.437 0 4.802.473 7.095 1.419l-2.623 5.074zM12.211 114.244V128H5.333v-13.756h-2.47v-5.738h2.47v-2.926c0-1.621.152-2.913.456-3.876a6.676 6.676 0 011.216-2.242 8.825 8.825 0 011.938-1.824c.76-.507 1.57-.9 2.432-1.178a8.238 8.238 0 012.546-.418c.583 0 1.115.063 1.596.19a9.054 9.054 0 011.52.532v6.004a6.346 6.346 0 00-1.292-.494 3.811 3.811 0 00-1.216-.19c-.278 0-.57.051-.874.152-.278.076-.544.253-.798.532-.253.279-.43.684-.532 1.216-.076.507-.114 1.203-.114 2.09v2.432h4.826v5.738h-4.826zm14.188 3.952c0 .633.114 1.229.342 1.786.228.532.532 1.001.912 1.406.405.405.874.722 1.406.95a4.67 4.67 0 001.786.342c.608 0 1.178-.114 1.71-.342a3.947 3.947 0 001.406-.95c.406-.405.722-.874.95-1.406.253-.532.38-1.102.38-1.71 0-.608-.127-1.178-.38-1.71a4.342 4.342 0 00-.95-1.444 3.947 3.947 0 00-1.406-.95 4.295 4.295 0 00-1.71-.342 4.67 4.67 0 00-1.786.342c-.532.228-1 .545-1.406.95-.38.405-.684.874-.912 1.406a4.029 4.029 0 00-.342 1.672zm8.664-9.69h6.916V128h-6.916v-2.166c-1.47 1.849-3.458 2.774-5.966 2.774-1.419 0-2.723-.253-3.914-.76a9.686 9.686 0 01-3.116-2.204 10.338 10.338 0 01-2.09-3.306c-.481-1.267-.722-2.647-.722-4.142 0-1.393.24-2.711.722-3.952.482-1.267 1.153-2.369 2.014-3.306a9.266 9.266 0 013.078-2.204c1.19-.557 2.508-.836 3.952-.836 2.432 0 4.446.849 6.042 2.546v-1.938zm26.303 6.308c-1.191-.811-2.394-1.216-3.61-1.216-.659 0-1.28.114-1.862.342a4.467 4.467 0 00-1.482.988c-.431.405-.773.899-1.026 1.482-.228.557-.342 1.191-.342 1.9 0 .684.114 1.317.342 1.9.253.557.582 1.051.988 1.482.43.405.937.722 1.52.95a5.064 5.064 0 001.862.342c1.292 0 2.495-.443 3.61-1.33v5.852c-1.698.735-3.306 1.102-4.826 1.102a11.56 11.56 0 01-4.066-.722 10.701 10.701 0 01-3.382-2.052 10.619 10.619 0 01-2.318-3.23c-.583-1.267-.874-2.673-.874-4.218s.278-2.951.836-4.218c.557-1.292 1.317-2.394 2.28-3.306a9.98 9.98 0 013.42-2.166 11.55 11.55 0 014.294-.798c1.672 0 3.217.355 4.636 1.064v5.852zm11.599-.57V128h-6.878v-13.756h-2.28v-5.738h2.28v-5.852h6.878v5.852h3.914v5.738h-3.914zm13.377-5.738v10.982c0 2.407 1.166 3.61 3.496 3.61 2.331 0 3.496-1.203 3.496-3.61v-10.982h6.878v12.312c0 2.635-.874 4.611-2.622 5.928-1.722 1.317-4.306 1.976-7.752 1.976-3.445 0-6.042-.659-7.79-1.976-1.722-1.317-2.584-3.293-2.584-5.928v-12.312h6.878zm18.542 0h6.878v3.192c.735-1.165 1.634-2.052 2.698-2.66 1.064-.633 2.306-.95 3.724-.95h.57c.228 0 .482.025.76.076v6.574a6.535 6.535 0 00-2.964-.684c-1.596 0-2.799.481-3.61 1.444-.785.937-1.178 2.318-1.178 4.142V128h-6.878v-19.494zm24.308 9.69c0 .633.114 1.229.342 1.786.228.532.532 1.001.912 1.406.405.405.874.722 1.406.95a4.67 4.67 0 001.786.342c.608 0 1.178-.114 1.71-.342a3.95 3.95 0 001.406-.95c.405-.405.722-.874.95-1.406.253-.532.38-1.102.38-1.71 0-.608-.127-1.178-.38-1.71a4.346 4.346 0 00-.95-1.444 3.95 3.95 0 00-1.406-.95 4.295 4.295 0 00-1.71-.342 4.67 4.67 0 00-1.786.342 4.448 4.448 0 00-1.406.95c-.38.405-.684.874-.912 1.406a4.029 4.029 0 00-.342 1.672zm8.664-9.69h6.916V128h-6.916v-2.166c-1.469 1.849-3.458 2.774-5.966 2.774-1.419 0-2.723-.253-3.914-.76a9.687 9.687 0 01-3.116-2.204 10.34 10.34 0 01-2.09-3.306c-.481-1.267-.722-2.647-.722-4.142 0-1.393.241-2.711.722-3.952a10.157 10.157 0 012.014-3.306 9.26 9.26 0 013.078-2.204c1.191-.557 2.508-.836 3.952-.836 2.432 0 4.446.849 6.042 2.546v-1.938zm24.517 5.016c-1.267-.659-2.508-.988-3.724-.988-.634 0-1.153.127-1.558.38-.38.253-.57.595-.57 1.026 0 .228.025.418.076.57.076.127.215.253.418.38.228.127.544.241.95.342.43.101.988.228 1.672.38 1.9.38 3.318 1.064 4.256 2.052.937.963 1.406 2.204 1.406 3.724 0 1.14-.228 2.166-.684 3.078a6.73 6.73 0 01-1.9 2.318c-.811.608-1.786 1.077-2.926 1.406-1.14.355-2.394.532-3.762.532-2.635 0-5.232-.747-7.79-2.242l2.508-4.864c1.925 1.317 3.749 1.976 5.472 1.976.633 0 1.152-.139 1.558-.418.405-.279.608-.633.608-1.064 0-.253-.038-.456-.114-.608-.051-.177-.178-.329-.38-.456-.203-.152-.507-.279-.912-.38-.38-.127-.887-.253-1.52-.38-2.128-.431-3.623-1.064-4.484-1.9-.836-.861-1.254-2.039-1.254-3.534 0-1.089.202-2.065.608-2.926a6.051 6.051 0 011.748-2.242c.76-.608 1.672-1.077 2.736-1.406 1.089-.329 2.292-.494 3.61-.494 2.153 0 4.243.418 6.27 1.254l-2.318 4.484zm25.712 4.674c0 .633.114 1.229.342 1.786.228.532.532 1.001.912 1.406.405.405.874.722 1.406.95a4.667 4.667 0 001.786.342c.608 0 1.178-.114 1.71-.342a3.95 3.95 0 001.406-.95c.405-.405.722-.874.95-1.406.253-.532.38-1.102.38-1.71 0-.608-.127-1.178-.38-1.71a4.346 4.346 0 00-.95-1.444 3.95 3.95 0 00-1.406-.95 4.295 4.295 0 00-1.71-.342c-.608 0-1.191.114-1.748.342a4.448 4.448 0 00-1.406.95c-.38.405-.697.874-.95 1.406a4.029 4.029 0 00-.342 1.672zm8.664-21.736h6.916V128h-6.916v-2.166c-1.47 1.849-3.458 2.774-5.966 2.774-1.419 0-2.724-.266-3.914-.798a9.676 9.676 0 01-3.116-2.204 10.323 10.323 0 01-2.09-3.306c-.482-1.267-.722-2.635-.722-4.104 0-1.393.228-2.711.684-3.952.481-1.267 1.152-2.369 2.014-3.306a9.26 9.26 0 013.078-2.204c1.216-.557 2.546-.836 3.99-.836 2.432 0 4.446.849 6.042 2.546V96.46zm25.846 18.962c-.228-.963-.696-1.735-1.406-2.318-.709-.583-1.57-.874-2.584-.874-1.064 0-1.938.279-2.622.836-.658.557-1.076 1.343-1.254 2.356h7.866zm-8.056 3.99c0 2.964 1.394 4.446 4.18 4.446 1.495 0 2.622-.608 3.382-1.824h6.65c-1.342 4.459-4.699 6.688-10.07 6.688-1.646 0-3.154-.241-4.522-.722-1.368-.507-2.546-1.216-3.534-2.128a9.53 9.53 0 01-2.242-3.268c-.532-1.267-.798-2.685-.798-4.256 0-1.621.254-3.078.76-4.37.507-1.317 1.229-2.432 2.166-3.344.938-.912 2.065-1.609 3.382-2.09 1.343-.507 2.85-.76 4.522-.76 1.647 0 3.129.253 4.446.76 1.318.481 2.432 1.191 3.344 2.128.912.937 1.609 2.09 2.09 3.458.482 1.343.722 2.863.722 4.56v.722h-14.478zM.623 177l5.248-30.914h7.954l6.19 16.482 6.15-16.482h7.955L39.368 177h-7.995l-2.665-17.794L21.41 177h-3.198l-6.93-17.794L8.619 177H.623zm57.392-13.571c-.246-1.039-.752-1.872-1.517-2.501-.765-.629-1.694-.943-2.788-.943-1.148 0-2.09.301-2.829.902-.71.601-1.162 1.449-1.353 2.542h8.487zm-8.692 4.305c0 3.198 1.504 4.797 4.51 4.797 1.613 0 2.83-.656 3.65-1.968h7.174c-1.448 4.811-5.07 7.216-10.865 7.216-1.776 0-3.403-.26-4.879-.779-1.476-.547-2.747-1.312-3.813-2.296a10.273 10.273 0 01-2.419-3.526c-.574-1.367-.86-2.897-.86-4.592 0-1.749.273-3.321.82-4.715.546-1.421 1.325-2.624 2.336-3.608 1.012-.984 2.228-1.736 3.65-2.255 1.448-.547 3.074-.82 4.878-.82 1.777 0 3.376.273 4.797.82 1.422.519 2.624 1.285 3.608 2.296s1.736 2.255 2.255 3.731c.52 1.449.78 3.089.78 4.92v.779H49.322zm26.751-1.312c0 .683.123 1.326.369 1.927.246.574.574 1.08.984 1.517.437.437.943.779 1.517 1.025a5.04 5.04 0 001.927.369c.656 0 1.271-.123 1.845-.369a4.258 4.258 0 001.517-1.025 4.793 4.793 0 001.025-1.517c.273-.574.41-1.189.41-1.845 0-.656-.137-1.271-.41-1.845a4.683 4.683 0 00-1.025-1.558 4.258 4.258 0 00-1.517-1.025 4.634 4.634 0 00-1.845-.369c-.656 0-1.285.123-1.886.369a4.804 4.804 0 00-1.517 1.025c-.41.437-.752.943-1.025 1.517a4.347 4.347 0 00-.369 1.804zm9.348-23.452h7.462V177h-7.462v-2.337c-1.585 1.995-3.731 2.993-6.437 2.993-1.53 0-2.938-.287-4.223-.861a10.453 10.453 0 01-3.362-2.378c-.957-1.011-1.708-2.2-2.255-3.567-.52-1.367-.779-2.843-.779-4.428 0-1.503.246-2.925.738-4.264.52-1.367 1.244-2.556 2.173-3.567a9.999 9.999 0 013.321-2.378c1.312-.601 2.747-.902 4.305-.902 2.624 0 4.797.916 6.519 2.747V142.97zm19.933 12.997V177h-7.42v-21.033h7.42zm-7.913-8.077c0-.574.11-1.107.328-1.599.219-.519.52-.97.902-1.353.383-.383.82-.683 1.312-.902a4.176 4.176 0 011.64-.328c.574 0 1.107.109 1.599.328.519.219.97.519 1.353.902s.683.834.902 1.353c.219.492.328 1.025.328 1.599 0 .574-.109 1.121-.328 1.64a4.328 4.328 0 01-.902 1.312 4.199 4.199 0 01-1.353.902 3.887 3.887 0 01-1.599.328 4.176 4.176 0 01-1.64-.328 4.325 4.325 0 01-1.312-.902 4.328 4.328 0 01-.902-1.312 4.182 4.182 0 01-.328-1.64zm28.851 14.883c-1.284-.875-2.583-1.312-3.895-1.312-.71 0-1.38.123-2.009.369a4.826 4.826 0 00-1.599 1.066c-.464.437-.833.97-1.107 1.599-.246.601-.369 1.285-.369 2.05 0 .738.123 1.421.369 2.05a5.872 5.872 0 001.066 1.599 5.066 5.066 0 001.64 1.025 5.467 5.467 0 002.009.369c1.394 0 2.693-.478 3.895-1.435v6.314c-1.831.793-3.567 1.189-5.207 1.189-1.53 0-2.993-.26-4.387-.779a11.555 11.555 0 01-3.649-2.214 11.474 11.474 0 01-2.501-3.485c-.628-1.367-.943-2.884-.943-4.551 0-1.667.301-3.184.902-4.551.602-1.394 1.422-2.583 2.46-3.567 1.039-1.011 2.269-1.79 3.69-2.337 1.449-.574 2.993-.861 4.633-.861 1.804 0 3.472.383 5.002 1.148v6.314zm11.121 3.649c0 .683.123 1.326.369 1.927.246.574.574 1.08.984 1.517a4.8 4.8 0 001.517 1.025 5.04 5.04 0 001.927.369c.656 0 1.271-.123 1.845-.369a4.261 4.261 0 001.517-1.025 4.8 4.8 0 001.025-1.517c.273-.574.41-1.189.41-1.845 0-.656-.137-1.271-.41-1.845a4.689 4.689 0 00-1.025-1.558 4.261 4.261 0 00-1.517-1.025 4.634 4.634 0 00-1.845-.369 5.04 5.04 0 00-1.927.369 4.8 4.8 0 00-1.517 1.025c-.41.437-.738.943-.984 1.517a4.347 4.347 0 00-.369 1.804zm9.348-10.455h7.462V177h-7.462v-2.337c-1.585 1.995-3.731 2.993-6.437 2.993-1.531 0-2.938-.273-4.223-.82a10.452 10.452 0 01-3.362-2.378c-.957-1.011-1.708-2.2-2.255-3.567-.519-1.367-.779-2.856-.779-4.469 0-1.503.26-2.925.779-4.264.519-1.367 1.244-2.556 2.173-3.567a9.99 9.99 0 013.321-2.378c1.285-.601 2.706-.902 4.264-.902 2.624 0 4.797.916 6.519 2.747v-2.091zm12.512 0h7.421v3.444c.793-1.257 1.763-2.214 2.911-2.87 1.148-.683 2.487-1.025 4.018-1.025h.615c.246 0 .519.027.82.082v7.093a7.05 7.05 0 00-3.198-.738c-1.722 0-3.02.519-3.895 1.558-.847 1.011-1.271 2.501-1.271 4.469V177h-7.421v-21.033zm34.714 7.462c-.246-1.039-.752-1.872-1.517-2.501-.766-.629-1.695-.943-2.788-.943-1.148 0-2.091.301-2.829.902-.711.601-1.162 1.449-1.353 2.542h8.487zm-8.692 4.305c0 3.198 1.503 4.797 4.51 4.797 1.612 0 2.829-.656 3.649-1.968h7.175c-1.449 4.811-5.071 7.216-10.865 7.216-1.777 0-3.403-.26-4.879-.779-1.476-.547-2.747-1.312-3.813-2.296a10.268 10.268 0 01-2.419-3.526c-.574-1.367-.861-2.897-.861-4.592 0-1.749.273-3.321.82-4.715.546-1.421 1.325-2.624 2.337-3.608 1.011-.984 2.227-1.736 3.649-2.255 1.448-.547 3.075-.82 4.879-.82 1.776 0 3.375.273 4.797.82 1.421.519 2.624 1.285 3.608 2.296s1.735 2.255 2.255 3.731c.519 1.449.779 3.089.779 4.92v.779h-15.621zm18.964 6.29c0-.496.093-.961.279-1.395.186-.455.444-.847.775-1.178.33-.331.713-.589 1.147-.775.454-.186.93-.279 1.426-.279.496 0 .961.093 1.395.279.454.186.847.444 1.178.775.33.331.589.723.775 1.178.186.434.279.899.279 1.395s-.093.971-.279 1.426a3.642 3.642 0 01-.775 1.147 3.546 3.546 0 01-1.178.775 3.504 3.504 0 01-1.395.279c-.496 0-.972-.093-1.426-.279a3.626 3.626 0 01-1.922-1.922 3.732 3.732 0 01-.279-1.426zm10.535 0c0-.496.093-.961.279-1.395.186-.455.444-.847.775-1.178a3.626 3.626 0 011.147-.775c.455-.186.93-.279 1.426-.279.496 0 .961.093 1.395.279.455.186.847.444 1.178.775.331.331.589.723.775 1.178.186.434.279.899.279 1.395s-.093.971-.279 1.426a3.626 3.626 0 01-.775 1.147 3.536 3.536 0 01-1.178.775 3.504 3.504 0 01-1.395.279c-.496 0-.971-.093-1.426-.279a3.626 3.626 0 01-1.922-1.922 3.732 3.732 0 01-.279-1.426zm10.535 0c0-.496.093-.961.279-1.395.186-.455.444-.847.775-1.178a3.626 3.626 0 011.147-.775c.455-.186.93-.279 1.426-.279.496 0 .961.093 1.395.279.455.186.847.444 1.178.775.331.331.589.723.775 1.178.186.434.279.899.279 1.395s-.093.971-.279 1.426a3.626 3.626 0 01-.775 1.147 3.536 3.536 0 01-1.178.775 3.504 3.504 0 01-1.395.279c-.496 0-.971-.093-1.426-.279a3.626 3.626 0 01-1.922-1.922 3.732 3.732 0 01-.279-1.426z" fill="#fff"/></svg>