<svg width="570" height="34" viewBox="0 0 570 34" fill="none" xmlns="http://www.w3.org/2000/svg"><path d="M12.024 7.024c-.064-.384-.16-.512-.384-.608a7.615 7.615 0 00-2.336-.352c-2.4 0-3.584 1.088-3.584 2.72 0 2.112 2.176 2.688 4.608 3.424 3.04.928 6.432 2.08 6.432 6.88 0 5.248-4.096 7.296-8.992 7.296-2.88 0-6.112-.736-7.328-1.312v-6.24h3.584l.64 3.04c.096.416.128.48.544.576.384.096 1.472.352 2.688.352 2.592 0 4.032-1.024 4.032-2.976 0-2.048-1.824-2.688-3.968-3.296-3.168-.896-7.072-1.76-7.072-6.912 0-4.928 3.712-7.2 8.576-7.2 2.752 0 5.12.672 6.56 1.28v6.24l-3.616-.32-.384-2.592zm13.945-3.136c0 1.824-1.056 2.88-2.912 2.88-1.824 0-2.88-1.056-2.88-2.88 0-1.824 1.056-2.816 2.88-2.816 1.856 0 2.912.992 2.912 2.816zm-7.04 19.584l1.632-.224c.448-.064.512-.16.512-.64V13.2c0-.352-.096-.576-.416-.672l-1.728-.608.352-2.592h6.624v13.28c0 .512.032.576.512.64l1.632.224V26h-9.12v-2.528zm29.81 1.632c-1.377.672-3.392 1.28-5.216 1.28-3.809 0-5.248-1.536-5.248-5.152v-8.384c0-.192 0-.32-.256-.32h-2.24V9.68c2.815-.32 3.935-1.728 4.287-5.216h3.04v4.544c0 .224 0 .32.256.32h4.512v3.2h-4.768v7.648c0 1.888.448 2.624 2.176 2.624.897 0 1.825-.224 2.593-.512l.864 2.816zm15.722-.352c-1.984.96-4.16 1.632-6.56 1.632-6.176 0-8.288-3.84-8.288-8.832 0-5.792 3.552-8.544 7.936-8.544 4.224 0 7.04 2.208 7.04 7.744 0 .384-.032 1.504-.064 2.144h-9.792c.16 2.272 1.152 3.776 3.776 3.776 1.248 0 2.592-.288 4.768-1.088l1.184 3.168zm-4.608-8.896c-.032-2.688-1.088-3.392-2.4-3.392-1.376 0-2.496.768-2.688 3.392h5.088zm21.905 10.528c-5.856 0-8.224-3.584-8.224-8.608 0-5.312 2.784-8.768 8.64-8.768 5.92 0 8.224 3.52 8.224 8.416 0 5.44-2.752 8.96-8.64 8.96zm.224-3.36c2.08 0 3.36-1.44 3.36-5.44 0-3.776-1.152-5.12-3.232-5.12-2.112 0-3.52 1.312-3.52 5.152 0 3.872 1.248 5.408 3.392 5.408zm10.466.416l1.792-.192c.448-.064.512-.192.512-.672v-9.728c0-.192 0-.32-.256-.32h-2.144v-3.2h2.4v-1.76c0-4.32 2.432-6.112 6.848-6.112 2.976 0 5.728.736 5.728 4.608l-4.48.544c.032-1.632-.416-2.016-1.472-2.016-1.6 0-1.792.864-1.792 2.4v2.016c0 .224 0 .32.256.32h5.056v3.2h-5.312v9.952c0 .512.096.608.576.64l3.904.352V26H92.448v-2.56zm14.256-.032l1.44-.192c.448-.064.512-.16.512-.64V13.2c0-.352-.096-.576-.416-.672l-1.728-.608.352-2.592h5.632l.384 2.56h.192c1.056-1.632 2.464-2.88 4.512-2.88.736 0 2.208.128 2.784.288v5.824l-3.84-.128-.32-1.696c-.064-.288-.16-.352-.416-.352-.832 0-1.824.704-2.304 1.12v8.48c0 .512.032.608.512.64l3.168.256V26h-10.464v-2.592zm30.169 1.344c-1.984.96-4.16 1.632-6.56 1.632-6.176 0-8.288-3.84-8.288-8.832 0-5.792 3.552-8.544 7.936-8.544 4.224 0 7.04 2.208 7.04 7.744 0 .384-.032 1.504-.064 2.144h-9.792c.16 2.272 1.152 3.776 3.776 3.776 1.248 0 2.592-.288 4.768-1.088l1.184 3.168zm-4.608-8.896c-.032-2.688-1.088-3.392-2.4-3.392-1.376 0-2.496.768-2.688 3.392h5.088zm21.263 8.96c-1.472.896-3.744 1.568-6.08 1.568-5.792 0-8.384-3.616-8.384-8.48 0-5.984 3.648-8.896 8.768-8.896 2.496 0 4.704.704 5.696 1.344v5.024l-3.424-.16-.384-2.112c-.032-.224-.096-.416-.384-.512-.384-.128-.992-.224-1.632-.224-1.92 0-3.552 1.312-3.552 5.056 0 4.16 1.856 5.344 4.128 5.344 1.6 0 3.04-.512 4-.928l1.248 2.976zm16.61-.064c-1.984.96-4.16 1.632-6.56 1.632-6.176 0-8.288-3.84-8.288-8.832 0-5.792 3.552-8.544 7.936-8.544 4.224 0 7.04 2.208 7.04 7.744 0 .384-.032 1.504-.064 2.144h-9.792c.16 2.272 1.152 3.776 3.776 3.776 1.248 0 2.592-.288 4.768-1.088l1.184 3.168zm-4.608-8.896c-.032-2.688-1.088-3.392-2.4-3.392-1.376 0-2.496.768-2.688 3.392h5.088zm18.669-.192c0-1.536-.096-2.816-1.696-2.816-1.184 0-2.656.672-3.328 1.184v8.576c0 .512.032.576.512.64l1.536.224V26h-8.832v-2.56l1.44-.192c.448-.064.512-.16.512-.64V13.2c0-.352-.096-.576-.416-.672l-1.728-.608.384-2.592h5.6l.256 1.664.128.064c1.6-1.184 3.456-2.048 5.632-2.048 3.488 0 4.832 1.92 4.832 5.44v8.16c0 .512.032.576.512.64l1.6.224V26h-6.944V15.664zm30.149 9.088c-1.984.96-4.16 1.632-6.56 1.632-6.176 0-8.288-3.84-8.288-8.832 0-5.792 3.552-8.544 7.936-8.544 4.224 0 7.04 2.208 7.04 7.744 0 .384-.032 1.504-.064 2.144h-9.792c.16 2.272 1.152 3.776 3.776 3.776 1.248 0 2.592-.288 4.768-1.088l1.184 3.168zm-4.608-8.896c-.032-2.688-1.088-3.392-2.4-3.392-1.376 0-2.496.768-2.688 3.392h5.088zm14.831 14.368l2.752-.224c.512-.032.64-.16.64-.576v-4.672l-.16-.064c-1.12.96-2.656 1.696-4.64 1.696-3.776 0-6.368-2.4-6.368-8.384 0-6.56 3.36-8.992 6.848-8.992 1.92 0 3.424.768 4.64 1.824l.48-1.504h4.192a48.842 48.842 0 00-.256 5.184v14.912c0 .48.032.544.512.608l1.504.224v2.528h-10.144v-2.56zm3.296-16.48c-.8-.544-1.824-1.024-2.816-1.024-2.304 0-3.232 2.208-3.232 5.056 0 3.104.864 4.832 3.008 4.832 1.088 0 2.176-.576 3.04-1.312v-7.552zm20.374 10.528l-.16-.032c-1.312.992-2.976 2.144-5.696 2.144-3.36 0-4.64-1.92-4.64-5.632v-7.808c0-.512-.032-.576-.512-.672l-1.536-.32.32-2.624h6.56V19.92c0 1.952.32 2.688 1.696 2.688 1.408 0 2.56-.8 3.296-1.472v-8.224c0-.512-.032-.544-.512-.64l-1.376-.32.352-2.624h6.368v13.28c0 .416.064.544.448.608l1.6.224V26h-5.952l-.256-1.728zm14.754-20.384c0 1.824-1.056 2.88-2.912 2.88-1.824 0-2.88-1.056-2.88-2.88 0-1.824 1.056-2.816 2.88-2.816 1.856 0 2.912.992 2.912 2.816zm-7.04 19.584l1.632-.224c.448-.064.512-.16.512-.64V13.2c0-.352-.096-.576-.416-.672l-1.728-.608.352-2.592h6.624v13.28c0 .512.032.576.512.64l1.632.224V26h-9.12v-2.528zm10.605 6.752l1.28-.192c.448-.064.576-.192.576-.672V13.2c0-.352-.064-.544-.416-.672l-1.696-.608.352-2.592h5.632l.288 1.632.16.064c1.536-1.248 3.616-2.016 5.44-2.016 3.584 0 6.144 2.24 6.144 8.192 0 3.84-1.312 9.184-6.592 9.184-1.664 0-3.168-.544-4.512-1.6v4.544c0 .512.032.608.512.64l3.264.288v2.528H266.56v-2.56zm6.656-8.8c.704.608 1.824 1.216 3.008 1.216 2.144 0 3.04-2.048 3.04-5.184 0-3.296-1.12-4.64-2.72-4.64-1.344 0-2.624.672-3.328 1.152v7.456zm21.483 4.96c-5.856 0-8.224-3.584-8.224-8.608 0-5.312 2.784-8.768 8.64-8.768 5.92 0 8.224 3.52 8.224 8.416 0 5.44-2.752 8.96-8.64 8.96zm.224-3.36c2.08 0 3.36-1.44 3.36-5.44 0-3.776-1.152-5.12-3.232-5.12-2.112 0-3.52 1.312-3.52 5.152 0 3.872 1.248 5.408 3.392 5.408zm37.479-7.36c0-1.248-.128-2.752-1.792-2.752-.896 0-1.76.32-2.592.864.064.512.096 1.024.096 1.568v7.264c0 .544.032.608.512.672l1.28.192V26h-6.624V15.504c0-1.184-.096-2.592-1.696-2.592-.96 0-2.016.48-2.656 1.024v8.672c0 .512.032.576.512.64l1.568.224V26h-8.864v-2.528l1.44-.224c.448-.064.512-.16.512-.64V13.2c0-.352-.096-.576-.416-.672l-1.728-.608.352-2.592h5.632l.256 1.664.16.032c1.44-1.184 3.072-2.016 5.12-2.016 1.568 0 3.008.416 3.904 1.92 1.056-.832 2.912-1.92 5.152-1.92 3.424 0 4.704 1.696 4.704 5.408v8.192c0 .512.032.608.512.672l1.6.192V26h-6.944V15.664zm23.381 9.088c-1.984.96-4.16 1.632-6.56 1.632-6.176 0-8.288-3.84-8.288-8.832 0-5.792 3.552-8.544 7.936-8.544 4.224 0 7.04 2.208 7.04 7.744 0 .384-.032 1.504-.064 2.144h-9.792c.16 2.272 1.152 3.776 3.776 3.776 1.248 0 2.592-.288 4.768-1.088l1.184 3.168zm-4.608-8.896c-.032-2.688-1.088-3.392-2.4-3.392-1.376 0-2.496.768-2.688 3.392h5.088zm-6.016-9.408L350.055.88l2.624 2.496-5.728 4.672-1.792-1.6zm24.751 17.76l-.224-.032c-1.344 1.312-2.912 2.208-5.248 2.208-3.776 0-6.208-2.4-6.208-8.512 0-6.432 3.232-8.864 6.784-8.864 1.856 0 3.296.64 4.512 1.536V5.68c0-.32-.128-.544-.416-.64l-1.76-.608.352-2.592h6.432v20.8c0 .48.032.544.512.608l1.536.224V26h-5.952l-.32-1.792zm-.576-10.528c-.8-.544-1.824-.96-2.752-.96-2.368 0-3.296 2.208-3.296 5.056 0 3.104.896 4.832 2.912 4.832 1.088 0 2.272-.64 3.136-1.376V13.68zm15.338-9.792c0 1.824-1.056 2.88-2.912 2.88-1.824 0-2.88-1.056-2.88-2.88 0-1.824 1.056-2.816 2.88-2.816 1.856 0 2.912.992 2.912 2.816zm-7.04 19.584l1.632-.224c.448-.064.512-.16.512-.64V13.2c0-.352-.096-.576-.416-.672l-1.728-.608.352-2.592h6.624v13.28c0 .512.032.576.512.64l1.632.224V26h-9.12v-2.528zm25.134 1.344c-1.472.896-3.744 1.568-6.08 1.568-5.792 0-8.384-3.616-8.384-8.48 0-5.984 3.648-8.896 8.768-8.896 2.496 0 4.704.704 5.696 1.344v5.024l-3.424-.16-.384-2.112c-.032-.224-.096-.416-.384-.512-.384-.128-.992-.224-1.632-.224-1.92 0-3.552 1.312-3.552 5.056 0 4.16 1.856 5.344 4.128 5.344 1.6 0 3.04-.512 4-.928l1.248 2.976zm9.986 1.568c-5.856 0-8.224-3.584-8.224-8.608 0-5.312 2.784-8.768 8.64-8.768 5.92 0 8.224 3.52 8.224 8.416 0 5.44-2.752 8.96-8.64 8.96zm.224-3.36c2.08 0 3.36-1.44 3.36-5.44 0-3.776-1.152-5.12-3.232-5.12-2.112 0-3.52 1.312-3.52 5.152 0 3.872 1.248 5.408 3.392 5.408zm21.83-14.208c-2.272-.032-4.16-.288-4.16-2.336 0-.64.256-1.344.608-2.048L432.79 1.2l2.016.608-.736 3.168c-.064.224-.032.288.16.352l1.216.416-.64 3.072zm5.76 0c-2.272-.032-4.16-.288-4.16-2.336 0-.64.256-1.344.608-2.048L438.55 1.2l2.016.608-.736 3.168c-.064.224-.032.288.16.352l1.216.416-.64 3.072zm14.843 3.456c.576.736 1.184 1.76 1.184 3.232 0 3.552-2.784 5.632-6.816 5.632-1.024 0-1.952-.128-2.528-.288l-1.056 1.696 3.136.192c5.568.352 8.8.512 8.8 4.768 0 3.68-3.232 5.76-8.8 5.76-5.792 0-8-1.472-8-4 0-1.44.64-2.208 1.76-3.264-1.056-.448-1.408-1.248-1.408-2.112 0-.704.352-1.344.928-1.952a39.263 39.263 0 011.984-1.92c-1.568-.768-2.752-2.432-2.752-4.8 0-3.68 2.432-6.208 7.328-6.208 1.376 0 2.208.128 2.944.32h6.24v2.72l-2.944.224zm-3.04 2.784c0-1.888-1.088-2.88-2.912-2.88-1.76 0-3.072.864-3.072 2.944 0 1.568.864 2.656 2.976 2.656 1.792 0 3.008-1.056 3.008-2.72zm-6.432 11.808c-.416.512-.832 1.056-.832 1.696 0 1.28 1.632 1.664 3.872 1.664 1.856 0 4.384-.128 4.384-1.856 0-1.024-1.216-1.088-2.752-1.184l-4.672-.32zm13.995-3.456l1.44-.192c.448-.064.512-.16.512-.64V13.2c0-.352-.096-.576-.416-.672l-1.728-.608.352-2.592h5.632l.384 2.56h.192c1.056-1.632 2.464-2.88 4.512-2.88.736 0 2.208.128 2.784.288v5.824l-3.84-.128-.32-1.696c-.064-.288-.16-.352-.416-.352-.832 0-1.824.704-2.304 1.12v8.48c0 .512.032.608.512.64l3.168.256V26h-10.464v-2.592zm25.065.864l-.16-.032c-1.216 1.184-2.816 2.144-5.376 2.144-4.032 0-4.672-2.752-4.672-4.736 0-3.2 1.952-4.64 5.984-4.928l3.68-.256v-1.76c0-1.504-.16-2.528-2.144-2.528-1.536 0-2.336.224-2.336 2.144l-4.512-.384c0-4.32 3.936-4.928 6.88-4.928 4.864 0 6.816 1.312 6.816 5.792v7.776c0 .512.032.576.512.64l1.536.256V26h-5.888l-.32-1.728zm-2.72-4.992c-1.888.128-2.56.608-2.56 1.888 0 1.28.768 1.76 1.824 1.76 1.088 0 2.176-.608 2.912-1.152V19.12l-2.176.16zm22.491 5.824c-1.376.672-3.392 1.28-5.216 1.28-3.808 0-5.248-1.536-5.248-5.152v-8.384c0-.192 0-.32-.256-.32h-2.24V9.68c2.816-.32 3.936-1.728 4.288-5.216h3.04v4.544c0 .224 0 .32.256.32h4.512v3.2h-4.768v7.648c0 1.888.448 2.624 2.176 2.624.896 0 1.824-.224 2.592-.512l.864 2.816zm8.722-21.216c0 1.824-1.056 2.88-2.912 2.88-1.824 0-2.88-1.056-2.88-2.88 0-1.824 1.056-2.816 2.88-2.816 1.856 0 2.912.992 2.912 2.816zm-7.04 19.584l1.632-.224c.448-.064.512-.16.512-.64V13.2c0-.352-.096-.576-.416-.672l-1.728-.608.352-2.592h6.624v13.28c0 .512.032.576.512.64l1.632.224V26h-9.12v-2.528zm20.301-10.784c-.064-.288-.096-.384-.32-.448-.416-.128-1.184-.256-2.048-.256-1.6 0-2.496.608-2.496 1.632 0 1.312 1.76 1.6 3.712 2.048 2.528.576 5.376 1.472 5.376 5.216 0 3.904-3.168 5.504-7.232 5.504-2.912 0-5.76-.768-6.336-1.152v-4.64l3.424.256.32 1.824c.064.288.096.384.384.48.384.128 1.248.32 2.464.32 1.696 0 2.656-.48 2.656-1.664 0-1.28-1.28-1.664-2.912-1.952-2.688-.48-6.208-1.056-6.208-5.248 0-3.968 3.392-5.6 7.072-5.6 2.528 0 4.992.576 5.888.928v4.64l-3.424-.224-.32-1.664zm7.289-7.616c.064-.288.032-.352-.16-.416l-1.216-.384.64-3.072c2.272.032 4.16.256 4.16 2.336 0 .64-.224 1.344-.576 2.048l-1.536 3.232-2.048-.608.736-3.136zm5.76 0c.064-.288.032-.352-.16-.416l-1.216-.384.64-3.072c2.272.032 4.16.256 4.16 2.336 0 .64-.224 1.344-.576 2.048l-1.536 3.232-2.048-.608.736-3.136zm12.105 18.816c0 1.632-.896 2.496-2.72 2.496-1.856 0-2.752-.832-2.752-2.496 0-1.632.896-2.496 2.752-2.496 1.792 0 2.72.864 2.72 2.496zm9.007 0c0 1.632-.896 2.496-2.72 2.496-1.856 0-2.752-.832-2.752-2.496 0-1.632.896-2.496 2.752-2.496 1.792 0 2.72.864 2.72 2.496zm9.007 0c0 1.632-.896 2.496-2.72 2.496-1.856 0-2.752-.832-2.752-2.496 0-1.632.896-2.496 2.752-2.496 1.792 0 2.72.864 2.72 2.496z" fill="#2B3D51"/></svg>