<svg width="132" height="27" viewBox="0 0 132 27" fill="none" xmlns="http://www.w3.org/2000/svg"><path d="M4.729 10.208h1.56c1.728 0 2.592-.752 2.592-2.256 0-1.504-.864-2.256-2.592-2.256h-1.56v4.512zm0 9.792H.025V1.904h7.488c2.032 0 3.584.528 4.656 1.584C13.257 4.544 13.8 6.032 13.8 7.952c0 1.92-.544 3.408-1.632 4.464C11.097 13.472 9.545 14 7.513 14H4.729v6zM15.883 7.688h4.344v2.016c.463-.736 1.032-1.296 1.703-1.68.672-.4 1.457-.6 2.352-.6h.36c.145 0 .305.016.48.048v4.152a4.127 4.127 0 00-1.872-.432c-1.008 0-1.767.304-2.28.912-.495.592-.743 1.464-.743 2.616V20h-4.345V7.688zm15.377 6.096c0 .416.072.8.216 1.152.16.336.36.632.6.888.256.256.552.456.888.6.352.144.72.216 1.104.216.384 0 .744-.072 1.08-.216a2.49 2.49 0 00.888-.6c.256-.256.456-.552.6-.888.16-.352.24-.728.24-1.128 0-.384-.08-.744-.24-1.08a2.742 2.742 0 00-.6-.912 2.49 2.49 0 00-.888-.6 2.712 2.712 0 00-1.08-.216c-.384 0-.752.072-1.104.216a2.808 2.808 0 00-.888.6c-.24.256-.44.552-.6.888a2.712 2.712 0 00-.216 1.08zm-4.584-.048c0-.912.184-1.76.552-2.544.368-.8.88-1.488 1.536-2.064a7.214 7.214 0 012.328-1.392c.912-.336 1.904-.504 2.976-.504 1.056 0 2.032.168 2.928.504.912.32 1.696.776 2.352 1.368a5.921 5.921 0 011.56 2.088c.368.8.552 1.688.552 2.664 0 .976-.192 1.872-.576 2.688-.368.8-.88 1.496-1.536 2.088-.656.576-1.448 1.024-2.376 1.344-.912.32-1.904.48-2.976.48-1.056 0-2.032-.16-2.928-.48a6.89 6.89 0 01-2.328-1.368 6.463 6.463 0 01-1.512-2.112c-.368-.832-.552-1.752-.552-2.76zm22.203-2.424V20h-4.344v-8.688h-1.44V7.688h1.44V3.992h4.344v3.696h2.472v3.624h-2.472zm13.34.744c-.145-.608-.44-1.096-.889-1.464-.447-.368-.991-.552-1.631-.552-.672 0-1.224.176-1.657.528-.416.352-.68.848-.791 1.488h4.968zm-5.089 2.52c0 1.872.88 2.808 2.64 2.808.944 0 1.656-.384 2.136-1.152h4.2c-.847 2.816-2.967 4.224-6.36 4.224-1.04 0-1.992-.152-2.855-.456a6.656 6.656 0 01-2.233-1.344 6.015 6.015 0 01-1.416-2.064c-.335-.8-.503-1.696-.503-2.688 0-1.024.16-1.944.48-2.76a5.81 5.81 0 011.367-2.112 5.943 5.943 0 012.136-1.32c.849-.32 1.8-.48 2.856-.48 1.04 0 1.976.16 2.808.48A5.56 5.56 0 0164.5 9.056c.576.592 1.016 1.32 1.32 2.184.303.848.456 1.808.456 2.88v.456H57.13zm6.552-12.384l-4.175 3.696L57.49 4.4 60.922.2l2.76 1.992zm9.108 11.592c0 .4.072.776.215 1.128.145.336.337.632.577.888.256.256.552.456.888.6a2.95 2.95 0 001.127.216c.385 0 .745-.072 1.08-.216a2.49 2.49 0 00.888-.6c.257-.256.457-.552.6-.888.16-.352.24-.72.24-1.104 0-.4-.08-.768-.24-1.104a2.808 2.808 0 00-.6-.888 2.742 2.742 0 00-.912-.6A2.653 2.653 0 0075.597 11c-.383 0-.743.08-1.08.24a2.808 2.808 0 00-.888.6 2.85 2.85 0 00-.624.864 2.712 2.712 0 00-.215 1.08zm9.743-6.096V19.16c0 .688-.04 1.304-.12 1.848a7.965 7.965 0 01-.335 1.44 4.308 4.308 0 01-.913 1.464 5.71 5.71 0 01-1.464 1.2c-.575.336-1.231.6-1.967.792a9.109 9.109 0 01-2.352.288c-.96 0-1.84-.12-2.64-.36a7.174 7.174 0 01-2.113-1.008 5.624 5.624 0 01-1.464-1.488 4.83 4.83 0 01-.768-1.848h4.896c.304.816.992 1.224 2.064 1.224.912 0 1.609-.256 2.088-.768.497-.512.745-1.224.745-2.136v-1.176c-.32.304-.632.56-.936.768a5.326 5.326 0 01-.889.48 3.875 3.875 0 01-.96.264 5.91 5.91 0 01-1.103.096c-.88 0-1.689-.152-2.425-.456a5.833 5.833 0 01-1.92-1.272 5.967 5.967 0 01-1.247-1.944c-.288-.768-.432-1.616-.432-2.544 0-.944.16-1.816.48-2.616.32-.816.752-1.52 1.296-2.112a5.948 5.948 0 011.968-1.416 5.918 5.918 0 012.495-.528c1.457 0 2.68.544 3.672 1.632V7.688h4.345zm12.24 4.368c-.144-.608-.44-1.096-.888-1.464-.448-.368-.992-.552-1.632-.552-.672 0-1.224.176-1.656.528-.416.352-.68.848-.792 1.488h4.968zm-5.088 2.52c0 1.872.88 2.808 2.64 2.808.944 0 1.656-.384 2.136-1.152h4.2c-.848 2.816-2.968 4.224-6.36 4.224-1.04 0-1.992-.152-2.856-.456a6.656 6.656 0 01-2.232-1.344 6.015 6.015 0 01-1.416-2.064c-.336-.8-.504-1.696-.504-2.688 0-1.024.16-1.944.48-2.76a5.81 5.81 0 011.368-2.112 5.943 5.943 0 012.136-1.32c.848-.32 1.8-.48 2.856-.48 1.04 0 1.976.16 2.808.48a5.56 5.56 0 012.112 1.344c.576.592 1.016 1.32 1.32 2.184.304.848.456 1.808.456 2.88v.456h-9.144zm16.639-3.264V20h-4.344v-8.688h-1.44V7.688h1.44V3.992h4.344v3.696h2.472v3.624h-2.472zm13.34.744c-.144-.608-.44-1.096-.888-1.464-.448-.368-.992-.552-1.632-.552-.672 0-1.224.176-1.656.528-.416.352-.68.848-.792 1.488h4.968zm-5.088 2.52c0 1.872.88 2.808 2.64 2.808.944 0 1.656-.384 2.136-1.152h4.2c-.848 2.816-2.968 4.224-6.36 4.224-1.04 0-1.992-.152-2.856-.456a6.656 6.656 0 01-2.232-1.344 6.015 6.015 0 01-1.416-2.064c-.336-.8-.504-1.696-.504-2.688 0-1.024.16-1.944.48-2.76a5.81 5.81 0 011.368-2.112 5.943 5.943 0 012.136-1.32c.848-.32 1.8-.48 2.856-.48 1.04 0 1.976.16 2.808.48a5.56 5.56 0 012.112 1.344c.576.592 1.016 1.32 1.32 2.184.304.848.456 1.808.456 2.88v.456h-9.144zm11.411 3.12c0-.384.072-.744.216-1.08.144-.352.344-.656.6-.912s.552-.456.888-.6c.352-.144.72-.216 1.104-.216.384 0 .744.072 1.08.216.352.144.656.344.912.6s.456.56.6.912c.144.336.216.696.216 1.08 0 .384-.072.752-.216 1.104a2.808 2.808 0 01-.6.888c-.256.256-.56.456-.912.6a2.712 2.712 0 01-1.08.216c-.384 0-.752-.072-1.104-.216a2.808 2.808 0 01-1.488-1.488 2.888 2.888 0 01-.216-1.104z" fill="#fff"/></svg>