<svg width="138" height="60" viewBox="0 0 138 60" fill="none" xmlns="http://www.w3.org/2000/svg"><rect x="1" y="1" width="136" height="58" rx="5" fill="#EFD63A" stroke="#EFE28E" stroke-width="2"/><path d="M33.781 21.187l-1.496-4.267-1.496 4.267h2.992zm.884 2.533h-4.76l-.765 2.227h-3.553l4.88-12.818h3.637l4.88 12.818H35.43l-.765-2.227zm9.448-4.71h1.105c1.224 0 1.836-.532 1.836-1.597 0-1.066-.612-1.598-1.836-1.598h-1.105v3.196zm0 6.937h-3.332V13.129h5.304c1.44 0 2.539.374 3.298 1.122.77.748 1.156 1.802 1.156 3.162 0 1.36-.385 2.414-1.156 3.162-.76.748-1.858 1.122-3.298 1.122h-1.972v4.25zm11.862-7.09h.629c.657 0 1.161-.135 1.513-.407.351-.272.527-.663.527-1.173s-.176-.901-.527-1.173c-.352-.272-.856-.408-1.513-.408h-.63v3.162zm7.327 7.09h-4.148l-3.18-4.93v4.93h-3.331V13.129h5.185c.714 0 1.337.107 1.87.323.532.204.969.487 1.309.85.351.362.612.782.782 1.258.181.476.272.986.272 1.53 0 .974-.238 1.768-.714 2.38-.465.6-1.156 1.008-2.074 1.224l4.029 5.253zm9.026-9.996h-3.96v2.142h3.74v2.822h-3.74v2.21h3.96v2.822h-7.293V13.129h7.293v2.822zm2.743 9.996V13.129h3.332l6.154 7.837v-7.837h3.315v12.818h-3.315l-6.154-7.837v7.837H75.07zm19.161-2.822h.765c.578 0 1.094-.091 1.547-.272.453-.182.833-.431 1.139-.748.317-.318.555-.692.714-1.122.17-.442.255-.924.255-1.445 0-.51-.085-.986-.255-1.428a3.227 3.227 0 00-.731-1.14 3.216 3.216 0 00-1.139-.747 4.09 4.09 0 00-1.53-.272h-.765v7.174zM90.9 13.129h4.93c.873 0 1.689.175 2.448.527.77.35 1.44.821 2.006 1.41a6.315 6.315 0 011.36 2.04c.329.771.493 1.582.493 2.432 0 .838-.164 1.649-.493 2.43a6.317 6.317 0 01-1.343 2.04 6.484 6.484 0 01-2.006 1.412 5.798 5.798 0 01-2.465.527H90.9V13.129zm20.997 2.822h-3.961v2.142h3.74v2.822h-3.74v2.21h3.961v2.822h-7.293V13.129h7.293v2.822zM49.165 40.413c-.77-.941-1.722-1.411-2.856-1.411-.498 0-.963.09-1.394.272a3.33 3.33 0 00-1.088.748c-.306.306-.55.674-.73 1.105-.17.43-.256.895-.256 1.394 0 .51.085.98.255 1.41.182.431.425.805.731 1.123.318.317.686.566 1.105.748.42.18.873.272 1.36.272 1.066 0 2.023-.454 2.873-1.36v3.944l-.34.119c-.51.18-.986.311-1.428.39a6.5 6.5 0 01-1.309.137 6.762 6.762 0 01-2.55-.493 6.967 6.967 0 01-2.142-1.411 7.237 7.237 0 01-1.479-2.16 6.643 6.643 0 01-.56-2.736c0-.986.18-1.887.543-2.703a6.804 6.804 0 011.48-2.125 6.673 6.673 0 012.158-1.394 6.609 6.609 0 012.567-.51c.51 0 1.009.056 1.496.17a8.52 8.52 0 011.564.493v3.978zm5.538 2.125c0 .51.096.98.289 1.41.192.431.453.805.782 1.123.328.317.708.566 1.139.748.442.17.906.255 1.394.255.487 0 .946-.085 1.377-.255.442-.182.827-.431 1.156-.748a3.417 3.417 0 001.088-2.533 3.417 3.417 0 00-1.088-2.533 3.404 3.404 0 00-1.156-.731 3.513 3.513 0 00-1.377-.272c-.488 0-.952.09-1.394.272-.431.17-.81.413-1.14.73-.328.318-.589.692-.781 1.123-.193.43-.29.9-.29 1.41zm-3.485 0c0-.952.175-1.836.527-2.652a6.614 6.614 0 011.462-2.16 6.591 6.591 0 012.227-1.427c.872-.352 1.83-.527 2.873-.527 1.031 0 1.983.175 2.856.527.872.34 1.62.816 2.244 1.428a6.635 6.635 0 012.006 4.811c0 .952-.176 1.841-.527 2.669a6.538 6.538 0 01-1.48 2.142 6.77 6.77 0 01-2.243 1.445c-.873.34-1.825.51-2.856.51-1.043 0-2-.17-2.873-.51a6.808 6.808 0 01-2.227-1.445 6.662 6.662 0 01-1.462-2.142 6.755 6.755 0 01-.527-2.67zm10.149-9.673l-3.264 2.244-1.292-1.207 2.77-2.652 1.786 1.615zm5.912 16.082l2.176-12.818h3.298l2.567 6.834 2.55-6.834h3.298l2.176 12.818H80.03l-1.105-7.378-3.026 7.378h-1.326L71.7 41.569l-1.105 7.378H67.28zm21.423-6.41c0 .51.096.98.289 1.412.193.43.453.804.782 1.122a3.68 3.68 0 001.139.748c.442.17.907.255 1.394.255.487 0 .946-.085 1.377-.255.442-.182.827-.431 1.156-.748a3.415 3.415 0 001.088-2.533 3.415 3.415 0 00-1.088-2.533 3.404 3.404 0 00-1.156-.731 3.513 3.513 0 00-1.377-.272c-.487 0-.952.09-1.394.272-.43.17-.81.413-1.139.73-.329.318-.59.692-.782 1.123-.193.43-.289.9-.289 1.41zm-3.485 0c0-.951.176-1.835.527-2.651a6.615 6.615 0 011.462-2.16 6.592 6.592 0 012.227-1.427c.873-.352 1.83-.527 2.873-.527 1.031 0 1.983.175 2.856.527.873.34 1.62.816 2.244 1.428a6.635 6.635 0 012.006 4.811c0 .952-.176 1.841-.527 2.669a6.535 6.535 0 01-1.479 2.142 6.768 6.768 0 01-2.244 1.445c-.873.34-1.825.51-2.856.51-1.043 0-2-.17-2.873-.51a6.81 6.81 0 01-2.227-1.445 6.664 6.664 0 01-1.462-2.142 6.757 6.757 0 01-.527-2.67z" fill="#66124B"/></svg>