<svg width="137" height="179" viewBox="0 0 137 179" fill="none" xmlns="http://www.w3.org/2000/svg"><path d="M11.984 14.25c0-.583.214-1.088.641-1.516a2.09 2.09 0 011.531-.64 2.09 2.09 0 011.531.64c.428.428.641.938.641 1.532 0 .604-.213 1.12-.64 1.546a2.082 2.082 0 01-1.532.626c-.614 0-1.13-.209-1.547-.625-.416-.417-.625-.938-.625-1.563zm9.875 0c0-.583.214-1.088.641-1.516a2.09 2.09 0 011.531-.64 2.09 2.09 0 011.532.64c.427.428.64.938.64 1.532 0 .604-.213 1.12-.64 1.546a2.082 2.082 0 01-1.532.626c-.614 0-1.13-.209-1.547-.625-.416-.417-.625-.938-.625-1.563zm9.875 0c0-.583.214-1.088.641-1.516a2.09 2.09 0 011.531-.64 2.09 2.09 0 011.532.64c.427.428.64.938.64 1.532 0 .604-.213 1.12-.64 1.546a2.082 2.082 0 01-1.532.626c-.614 0-1.13-.209-1.547-.625-.416-.417-.625-.938-.625-1.563zM52.906 1.437V6.11c-.802-.979-1.52-1.65-2.156-2.015-.625-.375-1.36-.563-2.203-.563-1.323 0-2.422.464-3.297 1.39-.875.928-1.313 2.09-1.313 3.485 0 1.427.422 2.6 1.266 3.516.854.916 1.943 1.375 3.266 1.375.843 0 1.588-.182 2.234-.547.625-.354 1.36-1.042 2.203-2.063v4.641c-1.427.74-2.854 1.11-4.281 1.11-2.354 0-4.323-.76-5.906-2.282-1.584-1.531-2.375-3.432-2.375-5.703 0-2.27.802-4.187 2.406-5.75C44.354 1.141 46.323.36 48.656.36c1.5 0 2.917.36 4.25 1.079zm2.688 6.844c0-2.198.786-4.067 2.36-5.61C59.525 1.132 61.442.36 63.703.36c2.27 0 4.197.776 5.78 2.329 1.563 1.552 2.344 3.458 2.344 5.718 0 2.281-.786 4.193-2.36 5.735-1.583 1.53-3.525 2.296-5.827 2.296-2.282 0-4.193-.78-5.735-2.343-1.541-1.542-2.312-3.48-2.312-5.813zm3.593.063c0 1.52.407 2.724 1.22 3.61.833.895 1.932 1.343 3.296 1.343 1.375 0 2.474-.443 3.297-1.328.823-.886 1.234-2.068 1.234-3.547 0-1.48-.411-2.662-1.234-3.547-.833-.896-1.932-1.344-3.297-1.344-1.344 0-2.432.448-3.266 1.344-.833.896-1.25 2.052-1.25 3.469zM75.564.78h3.515v1.406C79.755 1.48 80.333 1 80.812.75c.51-.26 1.151-.39 1.922-.39 1.72 0 3.079.75 4.079 2.25 1.104-1.5 2.599-2.25 4.484-2.25 3.427 0 5.14 2.078 5.14 6.234V16h-3.53V7.547c0-1.458-.178-2.49-.532-3.094-.365-.614-.963-.922-1.797-.922-.969 0-1.677.365-2.125 1.094-.437.73-.656 1.901-.656 3.516V16h-3.531V7.594c0-2.709-.782-4.063-2.344-4.063-.99 0-1.714.37-2.172 1.11-.448.74-.672 1.906-.672 3.5V16h-3.516V.781zm24.593 7.5c0-2.198.787-4.067 2.36-5.61 1.573-1.54 3.489-2.312 5.75-2.312 2.27 0 4.198.776 5.781 2.329 1.562 1.552 2.344 3.458 2.344 5.718 0 2.281-.787 4.193-2.36 5.735-1.583 1.53-3.526 2.296-5.828 2.296-2.281 0-4.193-.78-5.734-2.343-1.542-1.542-2.313-3.48-2.313-5.813zm3.594.063c0 1.52.406 2.724 1.219 3.61.833.895 1.932 1.343 3.297 1.343 1.375 0 2.474-.443 3.296-1.328.823-.886 1.235-2.068 1.235-3.547 0-1.48-.412-2.662-1.235-3.547-.833-.896-1.932-1.344-3.296-1.344-1.344 0-2.433.448-3.266 1.344-.833.896-1.25 2.052-1.25 3.469zM18.516 40.437v4.672c-.802-.979-1.521-1.65-2.157-2.015-.625-.375-1.359-.563-2.203-.563-1.323 0-2.422.464-3.297 1.39-.875.928-1.312 2.09-1.312 3.485 0 1.427.422 2.6 1.265 3.516.855.917 1.943 1.375 3.266 1.375.844 0 1.589-.182 2.235-.547.625-.354 1.359-1.042 2.203-2.063v4.641c-1.427.74-2.854 1.11-4.282 1.11-2.354 0-4.323-.76-5.906-2.282-1.583-1.531-2.375-3.432-2.375-5.703 0-2.27.802-4.187 2.406-5.75 1.605-1.562 3.573-2.344 5.907-2.344 1.5 0 2.916.36 4.25 1.078zm6.922-.656v8.735c0 2.52.994 3.78 2.984 3.78s2.984-1.26 2.984-3.78V39.78h3.516v8.813c0 1.218-.151 2.27-.453 3.156-.292.792-.797 1.505-1.516 2.14-1.187 1.032-2.698 1.547-4.531 1.547-1.823 0-3.328-.515-4.516-1.546-.729-.636-1.244-1.35-1.547-2.141-.291-.708-.437-1.76-.437-3.156V39.78h3.515zm17.437 0V55h-3.516V39.781h3.516zm-4.047-6.328c0-.614.224-1.146.672-1.594a2.196 2.196 0 011.61-.672c.635 0 1.176.224 1.624.672.448.438.672.974.672 1.61 0 .635-.224 1.177-.672 1.625a2.163 2.163 0 01-1.609.672 2.214 2.214 0 01-1.625-.672 2.232 2.232 0 01-.672-1.64zm19.719-4.844h3.531V55h-3.531v-1.594c-1.386 1.354-2.953 2.032-4.703 2.032-2.084 0-3.813-.76-5.188-2.282-1.364-1.552-2.047-3.49-2.047-5.812 0-2.271.683-4.167 2.047-5.688 1.354-1.531 3.058-2.297 5.11-2.297 1.78 0 3.375.73 4.78 2.188V28.609zm-8.344 18.735c0 1.458.39 2.646 1.172 3.562.802.927 1.813 1.39 3.031 1.39 1.302 0 2.354-.447 3.157-1.343.802-.927 1.203-2.104 1.203-3.531s-.401-2.604-1.203-3.531c-.803-.907-1.844-1.36-3.126-1.36-1.208 0-2.218.459-3.03 1.375-.803.927-1.204 2.073-1.204 3.438zm27.531-7.563h3.532V55h-3.532v-1.594c-1.447 1.354-3.005 2.032-4.671 2.032-2.105 0-3.844-.76-5.22-2.282-1.364-1.552-2.046-3.49-2.046-5.812 0-2.282.682-4.183 2.047-5.703 1.364-1.521 3.073-2.282 5.125-2.282 1.77 0 3.36.73 4.765 2.188V39.78zm-8.343 7.563c0 1.458.39 2.646 1.171 3.562.803.927 1.813 1.39 3.032 1.39 1.302 0 2.354-.447 3.156-1.343.802-.927 1.203-2.104 1.203-3.531s-.4-2.604-1.203-3.531c-.802-.907-1.844-1.36-3.125-1.36-1.208 0-2.219.459-3.031 1.375-.802.927-1.203 2.073-1.203 3.438zm25.156-4.969l-2.906 1.547c-.459-.938-1.026-1.406-1.704-1.406-.322 0-.599.109-.828.328-.229.208-.343.479-.343.812 0 .584.677 1.162 2.03 1.735 1.865.802 3.12 1.541 3.766 2.218.646.677.97 1.589.97 2.735 0 1.468-.542 2.698-1.626 3.687-1.052.938-2.323 1.407-3.812 1.407-2.552 0-4.36-1.245-5.422-3.735l3-1.39c.416.729.734 1.192.953 1.39.427.396.938.594 1.531.594 1.188 0 1.781-.542 1.781-1.625 0-.625-.458-1.208-1.374-1.75a49.696 49.696 0 00-1.063-.516 95.482 95.482 0 01-1.078-.515c-1.021-.5-1.74-1-2.156-1.5-.532-.636-.797-1.453-.797-2.453 0-1.323.453-2.417 1.36-3.282.926-.864 2.051-1.297 3.374-1.297 1.948 0 3.396 1.006 4.344 3.016zm17.656.688V55h-3.515V43.062h-1.5v-3.28h1.5v-5.579h3.515v5.578h2.735v3.282h-2.735zm8.641-3.282v8.735c0 2.52.995 3.78 2.984 3.78 1.99 0 2.984-1.26 2.984-3.78V39.78h3.516v8.813c0 1.218-.151 2.27-.453 3.156-.292.792-.797 1.505-1.516 2.14-1.187 1.032-2.698 1.547-4.531 1.547-1.823 0-3.328-.515-4.516-1.546-.729-.636-1.244-1.35-1.546-2.141-.292-.708-.438-1.76-.438-3.156V39.78h3.516zM22.528 83.14V94h-5.43V83.14h-1.8v-4.53h1.8v-4.62h5.43v4.62h3.09v4.53h-3.09zm10.465 3.12c0 .5.09.97.27 1.41.18.42.42.79.72 1.11.32.32.69.57 1.11.75.44.18.91.27 1.41.27.48 0 .93-.09 1.35-.27.44-.18.81-.43 1.11-.75.32-.32.57-.69.75-1.11.2-.42.3-.87.3-1.35 0-.48-.1-.93-.3-1.35-.18-.44-.43-.82-.75-1.14-.3-.32-.67-.57-1.11-.75a3.39 3.39 0 00-1.35-.27c-.5 0-.97.09-1.41.27-.42.18-.79.43-1.11.75-.3.32-.54.69-.72 1.11-.18.4-.27.84-.27 1.32zm6.84-7.65h5.46V94h-5.46v-1.71c-1.16 1.46-2.73 2.19-4.71 2.19-1.12 0-2.15-.2-3.09-.6-.94-.42-1.76-1-2.46-1.74s-1.25-1.61-1.65-2.61c-.38-1-.57-2.09-.57-3.27 0-1.1.19-2.14.57-3.12.38-1 .91-1.87 1.59-2.61.68-.74 1.49-1.32 2.43-1.74.94-.44 1.98-.66 3.12-.66 1.92 0 3.51.67 4.77 2.01v-1.53zm9.155 0h5.43v2.52c.58-.92 1.29-1.62 2.13-2.1.84-.5 1.82-.75 2.94-.75h.45c.18 0 .38.02.6.06v5.19a5.16 5.16 0 00-2.34-.54c-1.26 0-2.21.38-2.85 1.14-.62.74-.93 1.83-.93 3.27V94h-5.43V78.61zm19.404 0v23.07h-5.43V78.61h5.43zm-5.79-5.91c0-.42.08-.81.24-1.17.16-.38.38-.71.66-.99s.6-.5.96-.66c.38-.16.78-.24 1.2-.24.42 0 .81.08 1.17.24.38.16.71.38.99.66s.5.61.66.99c.16.36.24.75.24 1.17 0 .42-.08.82-.24 1.2-.16.36-.38.68-.66.96-.28.28-.61.5-.99.66-.36.16-.75.24-1.17.24-.42 0-.82-.08-1.2-.24-.36-.16-.68-.38-.96-.66-.28-.28-.5-.6-.66-.96-.16-.38-.24-.78-.24-1.2zm20.751 11.37c-.18-.76-.55-1.37-1.11-1.83-.56-.46-1.24-.69-2.04-.69-.84 0-1.53.22-2.07.66-.52.44-.85 1.06-.99 1.86h6.21zm-6.36 3.15c0 2.34 1.1 3.51 3.3 3.51 1.18 0 2.07-.48 2.67-1.44h5.25c-1.06 3.52-3.71 5.28-7.95 5.28-1.3 0-2.49-.19-3.57-.57-1.08-.4-2.01-.96-2.79-1.68a7.519 7.519 0 01-1.77-2.58c-.42-1-.63-2.12-.63-3.36 0-1.28.2-2.43.6-3.45.4-1.04.97-1.92 1.71-2.64.74-.72 1.63-1.27 2.67-1.65 1.06-.4 2.25-.6 3.57-.6 1.3 0 2.47.2 3.51.6 1.04.38 1.92.94 2.64 1.68.72.74 1.27 1.65 1.65 2.73.38 1.06.57 2.26.57 3.6v.57h-11.43zm20.8-4.08V94h-5.43V83.14h-1.8v-4.53h1.8v-4.62h5.43v4.62h3.089v4.53h-3.09zm10.463 3.12c0 .5.09.97.27 1.41.18.42.42.79.72 1.11.32.32.69.57 1.11.75.44.18.91.27 1.41.27.48 0 .93-.09 1.35-.27.44-.18.81-.43 1.11-.75.32-.32.57-.69.75-1.11.2-.42.3-.87.3-1.35 0-.48-.1-.93-.3-1.35-.18-.44-.43-.82-.75-1.14-.3-.32-.67-.57-1.11-.75a3.39 3.39 0 00-1.35-.27c-.5 0-.97.09-1.41.27-.42.18-.79.43-1.11.75-.3.32-.54.69-.72 1.11-.18.4-.27.84-.27 1.32zm6.84-7.65h5.46V94h-5.46v-1.71c-1.16 1.46-2.73 2.19-4.71 2.19-1.12 0-2.15-.2-3.09-.6-.94-.42-1.76-1-2.46-1.74s-1.25-1.61-1.65-2.61c-.38-1-.57-2.09-.57-3.27 0-1.1.19-2.14.57-3.12.38-1 .91-1.87 1.59-2.61.68-.74 1.49-1.32 2.43-1.74.94-.44 1.98-.66 3.12-.66 1.92 0 3.51.67 4.77 2.01v-1.53zM55.17 128.26c0 .5.09.97.27 1.41.18.42.42.79.72 1.11.32.32.69.57 1.11.75.44.18.91.27 1.41.27.48 0 .93-.09 1.35-.27.44-.18.81-.43 1.11-.75.32-.32.57-.69.75-1.11.2-.42.3-.87.3-1.35 0-.48-.1-.93-.3-1.35-.18-.44-.43-.82-.75-1.14-.3-.32-.67-.57-1.11-.75a3.39 3.39 0 00-1.35-.27c-.48 0-.94.09-1.38.27-.42.18-.79.43-1.11.75-.3.32-.55.69-.75 1.11-.18.4-.27.84-.27 1.32zm6.84-17.16h5.46V136h-5.46v-1.71c-1.16 1.46-2.73 2.19-4.71 2.19-1.12 0-2.15-.21-3.09-.63-.94-.42-1.76-1-2.46-1.74s-1.25-1.61-1.65-2.61c-.38-1-.57-2.08-.57-3.24 0-1.1.18-2.14.54-3.12.38-1 .91-1.87 1.59-2.61.68-.74 1.49-1.32 2.43-1.74.96-.44 2.01-.66 3.15-.66 1.92 0 3.51.67 4.77 2.01V111.1zm20.406 14.97c-.18-.76-.55-1.37-1.11-1.83-.56-.46-1.24-.69-2.04-.69-.84 0-1.53.22-2.07.66-.52.44-.85 1.06-.99 1.86h6.21zm-6.36 3.15c0 2.34 1.1 3.51 3.3 3.51 1.18 0 2.07-.48 2.67-1.44h5.25c-1.06 3.52-3.71 5.28-7.95 5.28-1.3 0-2.49-.19-3.57-.57-1.08-.4-2.01-.96-2.79-1.68a7.519 7.519 0 01-1.77-2.58c-.42-1-.63-2.12-.63-3.36 0-1.28.2-2.43.6-3.45.4-1.04.97-1.92 1.71-2.64.74-.72 1.63-1.27 2.67-1.65 1.06-.4 2.25-.6 3.57-.6 1.3 0 2.47.2 3.51.6 1.04.38 1.92.94 2.64 1.68.72.74 1.27 1.65 1.65 2.73.38 1.06.57 2.26.57 3.6v.57h-11.43zm-60.961 36.635c-1.097-.747-2.205-1.12-3.325-1.12-.607 0-1.178.105-1.715.315-.513.21-.968.513-1.365.91a4.077 4.077 0 00-.945 1.365c-.21.513-.315 1.097-.315 1.75 0 .63.105 1.213.315 1.75.233.513.537.968.91 1.365.397.373.863.665 1.4.875.537.21 1.108.315 1.715.315 1.19 0 2.298-.408 3.325-1.225v5.39c-1.563.677-3.045 1.015-4.445 1.015-1.307 0-2.555-.222-3.745-.665a9.856 9.856 0 01-3.115-1.89 9.781 9.781 0 01-2.135-2.975c-.537-1.167-.805-2.462-.805-3.885 0-1.423.257-2.718.77-3.885.513-1.19 1.213-2.205 2.1-3.045a9.193 9.193 0 013.15-1.995 10.638 10.638 0 013.955-.735c1.54 0 2.963.327 4.27.98v5.39zm3.613-5.81h6.335v2.94c.677-1.073 1.505-1.89 2.485-2.45.98-.583 2.123-.875 3.43-.875h.525c.21 0 .443.023.7.07v6.055c-.84-.42-1.75-.63-2.73-.63-1.47 0-2.578.443-3.325 1.33-.723.863-1.085 2.135-1.085 3.815v7.7h-6.335v-17.955zm29.634 6.37c-.21-.887-.642-1.598-1.295-2.135-.653-.537-1.447-.805-2.38-.805-.98 0-1.785.257-2.415.77-.607.513-.992 1.237-1.155 2.17h7.245zm-7.42 3.675c0 2.73 1.283 4.095 3.85 4.095 1.377 0 2.415-.56 3.115-1.68h6.125c-1.237 4.107-4.328 6.16-9.275 6.16-1.517 0-2.905-.222-4.165-.665-1.26-.467-2.345-1.12-3.255-1.96a8.768 8.768 0 01-2.065-3.01c-.49-1.167-.735-2.473-.735-3.92 0-1.493.233-2.835.7-4.025.467-1.213 1.132-2.24 1.995-3.08.863-.84 1.901-1.482 3.115-1.925 1.236-.467 2.625-.7 4.165-.7 1.517 0 2.882.233 4.095.7 1.213.443 2.24 1.097 3.08 1.96.84.863 1.481 1.925 1.925 3.185.443 1.237.665 2.637.665 4.2v.665H40.922zm9.555-18.06l-6.09 5.39-2.94-2.17 5.005-6.125 4.025 2.905zm13.281 16.94c0 .583.105 1.132.315 1.645.21.49.49.922.84 1.295a4.1 4.1 0 001.295.875c.513.21 1.062.315 1.645.315.56 0 1.085-.105 1.575-.315.513-.21.945-.502 1.295-.875.373-.373.665-.805.875-1.295.233-.49.35-1.015.35-1.575s-.117-1.085-.35-1.575a3.999 3.999 0 00-.875-1.33 3.636 3.636 0 00-1.295-.875 3.956 3.956 0 00-1.575-.315c-.56 0-1.097.105-1.61.315a4.1 4.1 0 00-1.295.875 5.05 5.05 0 00-.875 1.295 3.71 3.71 0 00-.315 1.54zm7.98-20.02h6.37V178h-6.37v-1.995c-1.353 1.703-3.185 2.555-5.495 2.555-1.307 0-2.508-.245-3.605-.735a8.923 8.923 0 01-2.87-2.03 9.523 9.523 0 01-1.925-3.045c-.443-1.167-.665-2.427-.665-3.78 0-1.283.21-2.497.63-3.64a9.355 9.355 0 011.855-3.045 8.534 8.534 0 012.835-2.03c1.12-.513 2.345-.77 3.675-.77 2.24 0 4.095.782 5.565 2.345v-12.88zm17.016 11.095V178h-6.335v-17.955h6.335zm-6.755-6.895c0-.49.093-.945.28-1.365.187-.443.443-.828.77-1.155.327-.327.7-.583 1.12-.77.443-.187.91-.28 1.4-.28.49 0 .945.093 1.365.28.443.187.828.443 1.155.77.327.327.583.712.77 1.155.187.42.28.875.28 1.365s-.093.957-.28 1.4c-.187.42-.443.793-.77 1.12a3.577 3.577 0 01-1.155.77c-.42.187-.875.28-1.365.28s-.957-.093-1.4-.28a3.692 3.692 0 01-1.12-.77 3.697 3.697 0 01-.77-1.12 3.571 3.571 0 01-.28-1.4zm18.154 12.18V178h-6.335v-12.67h-2.1v-5.285h2.1v-5.39h6.335v5.39h3.605v5.285h-3.605zm12.279 3.605c0 .607.105 1.167.315 1.68.234.49.525.922.875 1.295.374.373.805.665 1.295.875.514.21 1.05.315 1.61.315s1.085-.105 1.575-.315a3.63 3.63 0 001.295-.875 4.08 4.08 0 00.875-1.295c.234-.513.35-1.062.35-1.645 0-.56-.116-1.085-.35-1.575a3.988 3.988 0 00-.875-1.33 3.63 3.63 0 00-1.295-.875 3.956 3.956 0 00-1.575-.315c-.56 0-1.096.105-1.61.315-.49.21-.921.502-1.295.875-.35.373-.641.805-.875 1.295a3.956 3.956 0 00-.315 1.575zm-6.685-.07c0-1.33.269-2.567.805-3.71a8.93 8.93 0 012.24-3.01c.957-.863 2.089-1.54 3.395-2.03 1.33-.49 2.777-.735 4.34-.735 1.54 0 2.964.245 4.27.735 1.33.467 2.474 1.132 3.43 1.995a8.627 8.627 0 012.275 3.045c.537 1.167.805 2.462.805 3.885 0 1.423-.28 2.73-.84 3.92a9.27 9.27 0 01-2.24 3.045c-.956.84-2.111 1.493-3.465 1.96-1.33.467-2.776.7-4.34.7-1.54 0-2.963-.233-4.27-.7-1.306-.467-2.438-1.132-3.395-1.995a9.43 9.43 0 01-2.205-3.08c-.536-1.213-.805-2.555-.805-4.025zm24.415 6.639c0-.416.078-.806.234-1.17a2.975 2.975 0 011.612-1.638c.382-.156.78-.234 1.196-.234.416 0 .806.078 1.17.234.382.156.711.373.988.65.278.277.494.607.65.988.156.364.234.754.234 1.17 0 .416-.078.815-.234 1.196a3.028 3.028 0 01-.65.962 2.965 2.965 0 01-.988.65 2.938 2.938 0 01-1.17.234c-.416 0-.814-.078-1.196-.234a3.055 3.055 0 01-1.612-1.612 3.128 3.128 0 01-.234-1.196z" fill="#66124B"/></svg>