<svg width="724" height="44" viewBox="0 0 724 44" fill="none" xmlns="http://www.w3.org/2000/svg"><path d="M.111 31.031c0-.656.24-1.224.721-1.705a2.35 2.35 0 011.723-.72c.668 0 1.242.24 1.722.72s.721 1.055.721 1.723c0 .68-.24 1.26-.72 1.74a2.343 2.343 0 01-1.723.703c-.692 0-1.272-.234-1.74-.703-.47-.469-.704-1.055-.704-1.758zm7.87 0c0-.656.24-1.224.72-1.705a2.35 2.35 0 011.723-.72c.668 0 1.242.24 1.723.72.48.48.72 1.055.72 1.723 0 .68-.24 1.26-.72 1.74-.469.469-1.043.703-1.723.703-.691 0-1.271-.234-1.74-.703-.469-.469-.703-1.055-.703-1.758zm7.87 0c0-.656.24-1.224.72-1.705a2.35 2.35 0 011.722-.72c.668 0 1.243.24 1.723.72s.72 1.055.72 1.723c0 .68-.24 1.26-.72 1.74a2.343 2.343 0 01-1.723.703c-.691 0-1.271-.234-1.74-.703-.469-.469-.703-1.055-.703-1.758zm11.746 12.062h-4.285v-28.64h4.285v2.018c1.688-1.689 3.605-2.533 5.75-2.533 2.553 0 4.654.94 6.304 2.818 1.676 1.867 2.514 4.221 2.514 7.065 0 2.78-.832 5.098-2.495 6.951-1.65 1.84-3.732 2.761-6.246 2.761-2.17 0-4.113-.87-5.827-2.609v12.169zM37.785 23.84c0-1.777-.482-3.224-1.447-4.341-.978-1.13-2.21-1.695-3.695-1.695-1.574 0-2.85.546-3.827 1.637-.978 1.092-1.467 2.527-1.467 4.304 0 1.74.49 3.174 1.467 4.304.965 1.104 2.234 1.657 3.808 1.657 1.486 0 2.71-.559 3.675-1.676.99-1.117 1.486-2.514 1.486-4.19zm22.585-9.388h4.304V33H60.37v-1.942c-1.765 1.65-3.663 2.475-5.694 2.475-2.565 0-4.685-.927-6.36-2.78-1.663-1.892-2.495-4.253-2.495-7.084 0-2.78.832-5.097 2.495-6.95 1.663-1.854 3.745-2.781 6.246-2.781 2.158 0 4.094.889 5.808 2.666v-2.152zM50.2 23.67c0 1.777.477 3.225 1.43 4.342.977 1.13 2.208 1.695 3.694 1.695 1.586 0 2.869-.546 3.846-1.638.978-1.13 1.466-2.565 1.466-4.304 0-1.74-.488-3.174-1.466-4.304-.977-1.104-2.247-1.656-3.809-1.656-1.472 0-2.704.558-3.694 1.676-.977 1.13-1.466 2.526-1.466 4.189zm19.882-9.217h4.284v1.657c.787-.825 1.486-1.39 2.095-1.695.622-.317 1.359-.476 2.21-.476 1.129 0 2.31.368 3.541 1.104l-1.961 3.923c-.813-.584-1.606-.876-2.38-.876-2.337 0-3.505 1.765-3.505 5.294V33h-4.284V14.452zm27.993 0h4.304V33h-4.304v-1.942c-1.765 1.65-3.663 2.475-5.694 2.475-2.564 0-4.684-.927-6.36-2.78-1.663-1.892-2.495-4.253-2.495-7.084 0-2.78.832-5.097 2.495-6.95 1.663-1.854 3.745-2.781 6.246-2.781 2.158 0 4.094.889 5.808 2.666v-2.152zM87.906 23.67c0 1.777.476 3.225 1.428 4.342.978 1.13 2.21 1.695 3.694 1.695 1.587 0 2.87-.546 3.847-1.638.978-1.13 1.466-2.565 1.466-4.304 0-1.74-.488-3.174-1.466-4.304-.977-1.104-2.247-1.656-3.808-1.656-1.473 0-2.704.558-3.695 1.676-.977 1.13-1.466 2.526-1.466 4.189zm45.589-9.217h4.304V33h-4.304v-1.942c-1.765 1.65-3.663 2.475-5.694 2.475-2.564 0-4.685-.927-6.36-2.78-1.663-1.892-2.495-4.253-2.495-7.084 0-2.78.832-5.097 2.495-6.95 1.663-1.854 3.745-2.781 6.246-2.781 2.158 0 4.094.889 5.808 2.666v-2.152zm-10.169 9.217c0 1.777.476 3.225 1.428 4.342.978 1.13 2.209 1.695 3.694 1.695 1.587 0 2.87-.546 3.847-1.638.978-1.13 1.466-2.565 1.466-4.304 0-1.74-.488-3.174-1.466-4.304-.977-1.104-2.247-1.656-3.808-1.656-1.473 0-2.705.558-3.695 1.676-.977 1.13-1.466 2.526-1.466 4.189zm30.659-6.056l-3.542 1.886c-.559-1.143-1.25-1.714-2.076-1.714-.393 0-.73.133-1.009.4-.279.254-.419.584-.419.99 0 .71.825 1.415 2.476 2.114 2.272.977 3.802 1.878 4.589 2.704.787.825 1.181 1.936 1.181 3.332 0 1.79-.66 3.288-1.981 4.494-1.282 1.143-2.831 1.714-4.646 1.714-3.111 0-5.313-1.517-6.608-4.551l3.656-1.695c.508.889.895 1.454 1.162 1.695.52.482 1.142.724 1.866.724 1.447 0 2.171-.66 2.171-1.98 0-.763-.559-1.474-1.676-2.134a60.447 60.447 0 00-1.295-.628c-.431-.203-.869-.413-1.314-.629-1.244-.609-2.12-1.218-2.628-1.828-.647-.774-.971-1.77-.971-2.99 0-1.612.552-2.945 1.657-3.998 1.13-1.054 2.501-1.581 4.113-1.581 2.374 0 4.139 1.225 5.294 3.675zm21.957 7.122H162.65c.114 1.524.609 2.736 1.485 3.638.876.888 1.999 1.333 3.371 1.333 1.066 0 1.948-.254 2.647-.762.685-.508 1.466-1.447 2.342-2.819l3.618 2.019c-.559.952-1.149 1.771-1.771 2.457a9.811 9.811 0 01-2 1.675 8.168 8.168 0 01-2.304.952c-.825.204-1.72.305-2.685.305-2.767 0-4.989-.889-6.665-2.666-1.676-1.79-2.513-4.164-2.513-7.122 0-2.933.812-5.306 2.437-7.122 1.638-1.79 3.809-2.685 6.513-2.685 2.729 0 4.887.87 6.474 2.609 1.575 1.726 2.362 4.12 2.362 7.18l-.019 1.008zm-4.399-3.504c-.597-2.285-2.038-3.427-4.323-3.427a4.28 4.28 0 00-1.466.247c-.457.153-.876.381-1.257.686a4.27 4.27 0 00-.952 1.066 5 5 0 00-.61 1.428h8.608zm27.041 11.331c0 .876-.032 1.644-.096 2.304-.05.673-.126 1.263-.228 1.771-.305 1.397-.901 2.596-1.79 3.6-1.676 1.929-3.98 2.894-6.913 2.894-2.475 0-4.513-.667-6.112-2-1.651-1.37-2.603-3.269-2.857-5.694h4.304c.165.915.438 1.62.819 2.114.888 1.155 2.183 1.733 3.884 1.733 3.136 0 4.704-1.923 4.704-5.77v-2.59c-1.701 1.74-3.663 2.61-5.884 2.61-2.527 0-4.596-.915-6.208-2.743-1.625-1.854-2.438-4.17-2.438-6.95 0-2.705.756-5.003 2.266-6.894 1.625-2.006 3.771-3.009 6.437-3.009 2.336 0 4.278.87 5.827 2.609v-2.095h4.285v18.11zm-4.114-8.798c0-1.803-.482-3.244-1.447-4.323-.977-1.104-2.228-1.656-3.751-1.656-1.625 0-2.908.603-3.847 1.809-.851 1.079-1.276 2.475-1.276 4.19 0 1.688.425 3.072 1.276 4.15.927 1.181 2.209 1.772 3.847 1.772 1.637 0 2.932-.597 3.884-1.79.876-1.08 1.314-2.463 1.314-4.152zm13.807-9.312v10.645c0 3.072 1.212 4.609 3.637 4.609s3.637-1.537 3.637-4.609V14.452h4.285v10.74c0 1.486-.184 2.768-.553 3.847-.355.965-.971 1.834-1.847 2.609-1.447 1.257-3.288 1.885-5.522 1.885-2.222 0-4.056-.628-5.504-1.885-.888-.774-1.517-1.644-1.885-2.609-.355-.863-.533-2.145-.533-3.847v-10.74h4.285zm16.967 0h4.285v1.657c.787-.825 1.485-1.39 2.094-1.695.622-.317 1.359-.476 2.209-.476 1.13 0 2.311.368 3.542 1.104l-1.961 3.923c-.813-.584-1.606-.876-2.381-.876-2.335 0-3.503 1.765-3.503 5.294V33h-4.285V14.452zm27.993 0h4.304V33h-4.304v-1.942c-1.765 1.65-3.663 2.475-5.694 2.475-2.564 0-4.684-.927-6.36-2.78-1.663-1.892-2.495-4.253-2.495-7.084 0-2.78.832-5.097 2.495-6.95 1.663-1.854 3.745-2.781 6.246-2.781 2.158 0 4.094.889 5.808 2.666v-2.152zm-10.169 9.217c0 1.777.476 3.225 1.428 4.342.978 1.13 2.209 1.695 3.695 1.695 1.587 0 2.869-.546 3.846-1.638.978-1.13 1.467-2.565 1.467-4.304 0-1.74-.489-3.174-1.467-4.304-.977-1.104-2.247-1.656-3.808-1.656-1.473 0-2.704.558-3.695 1.676-.977 1.13-1.466 2.526-1.466 4.189zm19.881-9.217h4.285v1.657c.787-.825 1.485-1.39 2.094-1.695.622-.317 1.359-.476 2.209-.476 1.13 0 2.311.368 3.542 1.104l-1.961 3.923c-.813-.584-1.606-.876-2.38-.876-2.336 0-3.504 1.765-3.504 5.294V33h-4.285V14.452zm20.414 4V33h-4.285V18.451h-1.828v-3.999h1.828V7.654h4.285v6.798h3.333v4h-3.333zm23.48 6.283h-13.292c.114 1.524.609 2.736 1.485 3.638.876.888 2 1.333 3.371 1.333 1.066 0 1.949-.254 2.647-.762.685-.508 1.466-1.447 2.342-2.819l3.618 2.019c-.558.952-1.149 1.771-1.771 2.457a9.806 9.806 0 01-1.999 1.675 8.18 8.18 0 01-2.304.952c-.826.204-1.721.305-2.685.305-2.768 0-4.99-.889-6.665-2.666-1.676-1.79-2.514-4.164-2.514-7.122 0-2.933.812-5.306 2.437-7.122 1.638-1.79 3.809-2.685 6.513-2.685 2.73 0 4.888.87 6.475 2.609 1.574 1.726 2.361 4.12 2.361 7.18l-.019 1.008zm-4.399-3.504c-.597-2.285-2.038-3.427-4.323-3.427-.52 0-1.009.082-1.466.247-.457.153-.876.381-1.257.686a4.29 4.29 0 00-.952 1.066 4.97 4.97 0 00-.609 1.428h8.607zm34.811 21.862V30.924c-1.702 1.74-3.644 2.61-5.828 2.61-2.501 0-4.576-.921-6.227-2.762-1.663-1.853-2.494-4.17-2.494-6.95 0-2.82.831-5.174 2.494-7.066 1.676-1.879 3.777-2.818 6.304-2.818 2.145 0 4.062.844 5.751 2.533v-2.019h4.303v28.64h-4.303zM327.086 23.63c0 1.79.482 3.244 1.447 4.36.965 1.143 2.19 1.715 3.675 1.715 1.574 0 2.85-.546 3.828-1.638.99-1.105 1.485-2.54 1.485-4.304 0-1.74-.489-3.174-1.466-4.304-.978-1.104-2.247-1.656-3.809-1.656-1.472 0-2.704.558-3.694 1.676-.978 1.13-1.466 2.513-1.466 4.15zm24.622-9.179v10.645c0 3.072 1.213 4.609 3.637 4.609 2.425 0 3.638-1.537 3.638-4.609V14.452h4.284v10.74c0 1.486-.184 2.768-.552 3.847-.355.965-.971 1.834-1.847 2.609-1.447 1.257-3.288 1.885-5.523 1.885-2.221 0-4.056-.628-5.503-1.885-.889-.774-1.517-1.644-1.885-2.609-.356-.863-.533-2.145-.533-3.847v-10.74h4.284zm33.859 10.283h-13.292c.114 1.524.609 2.736 1.485 3.638.876.888 1.999 1.333 3.371 1.333 1.066 0 1.948-.254 2.647-.762.685-.508 1.466-1.447 2.342-2.819l3.618 2.019c-.559.952-1.149 1.771-1.771 2.457a9.811 9.811 0 01-2 1.675 8.168 8.168 0 01-2.304.952c-.825.204-1.72.305-2.685.305-2.767 0-4.989-.889-6.665-2.666-1.676-1.79-2.513-4.164-2.513-7.122 0-2.933.812-5.306 2.437-7.122 1.638-1.79 3.809-2.685 6.513-2.685 2.729 0 4.887.87 6.474 2.609 1.575 1.726 2.362 4.12 2.362 7.18l-.019 1.008zm-4.399-3.504c-.597-2.285-2.038-3.427-4.323-3.427a4.28 4.28 0 00-1.466.247c-.457.153-.876.381-1.257.686a4.27 4.27 0 00-.952 1.066 5 5 0 00-.61 1.428h8.608zm35.476-1.14c-.234-.988-.715-1.781-1.443-2.379-.728-.598-1.612-.897-2.652-.897-1.092 0-1.989.286-2.691.858-.676.572-1.105 1.378-1.287 2.418h8.073zm-8.268 4.095c0 3.042 1.43 4.563 4.29 4.563 1.534 0 2.691-.624 3.471-1.872h6.825c-1.378 4.576-4.823 6.864-10.335 6.864-1.69 0-3.237-.247-4.641-.741-1.404-.52-2.613-1.248-3.627-2.184a9.774 9.774 0 01-2.301-3.354c-.546-1.3-.819-2.756-.819-4.368 0-1.664.26-3.159.78-4.485.52-1.352 1.261-2.496 2.223-3.432.962-.936 2.119-1.651 3.471-2.145 1.378-.52 2.925-.78 4.641-.78 1.69 0 3.211.26 4.563.78 1.352.494 2.496 1.222 3.432 2.184.936.962 1.651 2.145 2.145 3.549.494 1.378.741 2.938.741 4.68v.741h-14.859zm32.154-6.045c-1.3-.676-2.574-1.014-3.822-1.014-.65 0-1.183.13-1.599.39-.39.26-.585.611-.585 1.053 0 .234.026.429.078.585.078.13.221.26.429.39.234.13.559.247.975.351.442.104 1.014.234 1.716.39 1.95.39 3.406 1.092 4.368 2.106.962.988 1.443 2.262 1.443 3.822 0 1.17-.234 2.223-.702 3.159a6.902 6.902 0 01-1.95 2.379c-.832.624-1.833 1.105-3.003 1.443-1.17.364-2.457.546-3.861.546-2.704 0-5.369-.767-7.995-2.301l2.574-4.992c1.976 1.352 3.848 2.028 5.616 2.028.65 0 1.183-.143 1.599-.429.416-.286.624-.65.624-1.092 0-.26-.039-.468-.117-.624-.052-.182-.182-.338-.39-.468-.208-.156-.52-.286-.936-.39-.39-.13-.91-.26-1.56-.39-2.184-.442-3.718-1.092-4.602-1.95-.858-.884-1.287-2.093-1.287-3.627 0-1.118.208-2.119.624-3.003a6.217 6.217 0 011.794-2.301c.78-.624 1.716-1.105 2.808-1.443 1.118-.338 2.353-.507 3.705-.507 2.21 0 4.355.429 6.435 1.287l-2.379 4.602zm14.994.741V33h-7.059V18.882h-2.34v-5.889h2.34V6.987h7.059v6.006h4.017v5.889h-4.017zm13.604 4.056c0 .65.117 1.261.351 1.833.234.546.546 1.027.936 1.443.416.416.897.741 1.443.975a4.794 4.794 0 001.833.351c.624 0 1.209-.117 1.755-.351a4.046 4.046 0 001.443-.975c.416-.416.741-.897.975-1.443a4.03 4.03 0 00.39-1.755 4.03 4.03 0 00-.39-1.755 4.455 4.455 0 00-.975-1.482 4.046 4.046 0 00-1.443-.975 4.408 4.408 0 00-1.755-.351c-.65 0-1.261.117-1.833.351a4.563 4.563 0 00-1.443.975c-.39.416-.702.897-.936 1.443a4.134 4.134 0 00-.351 1.716zm8.892-9.945h7.098V33h-7.098v-2.223c-1.508 1.898-3.549 2.847-6.123 2.847-1.456 0-2.795-.26-4.017-.78a9.937 9.937 0 01-3.198-2.262 10.62 10.62 0 01-2.145-3.393c-.494-1.3-.741-2.717-.741-4.251 0-1.43.247-2.782.741-4.056.494-1.3 1.183-2.431 2.067-3.393a9.505 9.505 0 013.159-2.262c1.222-.572 2.574-.858 4.056-.858 2.496 0 4.563.871 6.201 2.613v-1.989zm2.613-8.931l-6.786 6.006-3.276-2.418 5.577-6.825 4.485 3.237zm9.289 8.931h7.059v2.535c.962-1.17 1.937-1.95 2.925-2.34.988-.416 2.145-.624 3.471-.624 1.404 0 2.6.234 3.588.702a6.957 6.957 0 012.574 1.911c.572.676.962 1.43 1.17 2.262.208.832.312 1.781.312 2.847V33h-7.059V22.899c0-.988-.078-1.781-.234-2.379-.13-.624-.377-1.118-.741-1.482a2.675 2.675 0 00-1.053-.663 3.921 3.921 0 00-1.248-.195c-1.196 0-2.119.364-2.769 1.092-.624.702-.936 1.716-.936 3.042V33h-7.059V12.993zm54.245 6.474c-1.222-.832-2.457-1.248-3.705-1.248-.676 0-1.313.117-1.911.351a4.59 4.59 0 00-1.521 1.014 4.55 4.55 0 00-1.053 1.521c-.234.572-.351 1.222-.351 1.95 0 .702.117 1.352.351 1.95.26.572.598 1.079 1.014 1.521.442.416.962.741 1.56.975a5.197 5.197 0 001.911.351c1.326 0 2.561-.455 3.705-1.365v6.006c-1.742.754-3.393 1.131-4.953 1.131-1.456 0-2.847-.247-4.173-.741a10.995 10.995 0 01-3.471-2.106 10.894 10.894 0 01-2.379-3.315c-.598-1.3-.897-2.743-.897-4.329 0-1.586.286-3.029.858-4.329.572-1.326 1.352-2.457 2.34-3.393a10.232 10.232 0 013.51-2.223 11.854 11.854 0 014.407-.819c1.716 0 3.302.364 4.758 1.092v6.006zm10.695 3.432c0 .676.117 1.3.351 1.872.26.546.585 1.027.975 1.443.416.416.897.741 1.443.975.572.234 1.17.351 1.794.351.624 0 1.209-.117 1.755-.351a4.046 4.046 0 001.443-.975c.416-.416.741-.897.975-1.443.26-.572.39-1.183.39-1.833a4.03 4.03 0 00-.39-1.755 4.455 4.455 0 00-.975-1.482 4.046 4.046 0 00-1.443-.975 4.408 4.408 0 00-1.755-.351c-.624 0-1.222.117-1.794.351a4.563 4.563 0 00-1.443.975c-.39.416-.715.897-.975 1.443a4.408 4.408 0 00-.351 1.755zm-7.449-.078c0-1.482.299-2.86.897-4.134a9.94 9.94 0 012.496-3.354c1.066-.962 2.327-1.716 3.783-2.262 1.482-.546 3.094-.819 4.836-.819 1.716 0 3.302.273 4.758.819 1.482.52 2.756 1.261 3.822 2.223a9.622 9.622 0 012.535 3.393c.598 1.3.897 2.743.897 4.329 0 1.586-.312 3.042-.936 4.368a10.353 10.353 0 01-2.496 3.393c-1.066.936-2.353 1.664-3.861 2.184-1.482.52-3.094.78-4.836.78-1.716 0-3.302-.26-4.758-.78s-2.717-1.261-3.783-2.223a10.502 10.502 0 01-2.457-3.432c-.598-1.352-.897-2.847-.897-4.485zm28.088-9.828h7.059v3.276c.754-1.196 1.677-2.106 2.769-2.73 1.092-.65 2.366-.975 3.822-.975h.585c.234 0 .494.026.78.078v6.747a6.707 6.707 0 00-3.042-.702c-1.638 0-2.873.494-3.705 1.482-.806.962-1.209 2.379-1.209 4.251V33h-7.059V12.993zm18.167 0h7.059v3.276c.754-1.196 1.677-2.106 2.769-2.73 1.092-.65 2.366-.975 3.822-.975h.585c.234 0 .494.026.78.078v6.747a6.707 6.707 0 00-3.042-.702c-1.638 0-2.873.494-3.705 1.482-.806.962-1.209 2.379-1.209 4.251V33h-7.059V12.993zm33.02 7.098c-.234-.988-.715-1.781-1.443-2.379-.728-.598-1.612-.897-2.652-.897-1.092 0-1.989.286-2.691.858-.676.572-1.105 1.378-1.287 2.418h8.073zm-8.268 4.095c0 3.042 1.43 4.563 4.29 4.563 1.534 0 2.691-.624 3.471-1.872h6.825c-1.378 4.576-4.823 6.864-10.335 6.864-1.69 0-3.237-.247-4.641-.741-1.404-.52-2.613-1.248-3.627-2.184a9.774 9.774 0 01-2.301-3.354c-.546-1.3-.819-2.756-.819-4.368 0-1.664.26-3.159.78-4.485.52-1.352 1.261-2.496 2.223-3.432.962-.936 2.119-1.651 3.471-2.145 1.378-.52 2.925-.78 4.641-.78 1.69 0 3.211.26 4.563.78 1.352.494 2.496 1.222 3.432 2.184.936.962 1.651 2.145 2.145 3.549.494 1.378.741 2.938.741 4.68v.741H618.42zm33.987-4.719c-1.222-.832-2.457-1.248-3.705-1.248-.676 0-1.313.117-1.911.351a4.59 4.59 0 00-1.521 1.014 4.55 4.55 0 00-1.053 1.521c-.234.572-.351 1.222-.351 1.95 0 .702.117 1.352.351 1.95.26.572.598 1.079 1.014 1.521.442.416.962.741 1.56.975a5.197 5.197 0 001.911.351c1.326 0 2.561-.455 3.705-1.365v6.006c-1.742.754-3.393 1.131-4.953 1.131-1.456 0-2.847-.247-4.173-.741a10.995 10.995 0 01-3.471-2.106 10.894 10.894 0 01-2.379-3.315c-.598-1.3-.897-2.743-.897-4.329 0-1.586.286-3.029.858-4.329.572-1.326 1.352-2.457 2.34-3.393a10.232 10.232 0 013.51-2.223 11.854 11.854 0 014.407-.819c1.716 0 3.302.364 4.758 1.092v6.006zm11.904-.585V33h-7.059V18.882h-2.34v-5.889h2.34V6.987h7.059v6.006h4.017v5.889h-4.017zm13.604 4.056c0 .65.117 1.261.351 1.833.234.546.546 1.027.936 1.443.416.416.897.741 1.443.975a4.794 4.794 0 001.833.351c.624 0 1.209-.117 1.755-.351a4.046 4.046 0 001.443-.975c.416-.416.741-.897.975-1.443a4.03 4.03 0 00.39-1.755 4.03 4.03 0 00-.39-1.755 4.455 4.455 0 00-.975-1.482 4.046 4.046 0 00-1.443-.975 4.408 4.408 0 00-1.755-.351c-.65 0-1.261.117-1.833.351a4.563 4.563 0 00-1.443.975c-.39.416-.702.897-.936 1.443a4.134 4.134 0 00-.351 1.716zm8.892-9.945h7.098V33h-7.098v-2.223c-1.508 1.898-3.549 2.847-6.123 2.847-1.456 0-2.795-.26-4.017-.78a9.937 9.937 0 01-3.198-2.262 10.62 10.62 0 01-2.145-3.393c-.494-1.3-.741-2.717-.741-4.251 0-1.43.247-2.782.741-4.056.494-1.3 1.183-2.431 2.067-3.393a9.505 9.505 0 013.159-2.262c1.222-.572 2.574-.858 4.056-.858 2.496 0 4.563.871 6.201 2.613v-1.989zm25.162 5.148c-1.3-.676-2.574-1.014-3.822-1.014-.65 0-1.183.13-1.599.39-.39.26-.585.611-.585 1.053 0 .234.026.429.078.585.078.13.221.26.429.39.234.13.559.247.975.351.442.104 1.014.234 1.716.39 1.95.39 3.406 1.092 4.368 2.106.962.988 1.443 2.262 1.443 3.822 0 1.17-.234 2.223-.702 3.159a6.902 6.902 0 01-1.95 2.379c-.832.624-1.833 1.105-3.003 1.443-1.17.364-2.457.546-3.861.546-2.704 0-5.369-.767-7.995-2.301l2.574-4.992c1.976 1.352 3.848 2.028 5.616 2.028.65 0 1.183-.143 1.599-.429.416-.286.624-.65.624-1.092 0-.26-.039-.468-.117-.624-.052-.182-.182-.338-.39-.468-.208-.156-.52-.286-.936-.39-.39-.13-.91-.26-1.56-.39-2.184-.442-3.718-1.092-4.602-1.95-.858-.884-1.287-2.093-1.287-3.627 0-1.118.208-2.119.624-3.003a6.217 6.217 0 011.794-2.301c.78-.624 1.716-1.105 2.808-1.443 1.118-.338 2.353-.507 3.705-.507 2.21 0 4.355.429 6.435 1.287l-2.379 4.602zm5.596 12.267c0-.432.081-.837.243-1.215.162-.396.387-.738.675-1.026a3.16 3.16 0 01.999-.675 3.25 3.25 0 011.242-.243c.432 0 .837.081 1.215.243.396.162.738.387 1.026.675.288.288.513.63.675 1.026.162.378.243.783.243 1.215 0 .432-.081.846-.243 1.242a3.16 3.16 0 01-.675.999c-.288.288-.63.513-1.026.675a3.051 3.051 0 01-1.215.243 3.25 3.25 0 01-1.242-.243 3.16 3.16 0 01-1.674-1.674 3.25 3.25 0 01-.243-1.242z" fill="#fff"/></svg>