<svg width="255" height="12" viewBox="0 0 255 12" fill="none" xmlns="http://www.w3.org/2000/svg"><path d="M.736 9L4.696.54h1.8L10.48 9H8.26L7.24 6.672l.852.612H3.124l.84-.612L2.956 9H.736zm4.848-6.18L4.18 6.168l-.336-.564H7.36l-.3.564L5.644 2.82h-.06zm5.419 8.772V4.56a14.513 14.513 0 00-.096-1.656h2.064l.132 1.08h-.12c.112-.36.36-.652.744-.876a2.501 2.501 0 011.284-.336c.528 0 .992.128 1.392.384.4.248.712.612.936 1.092.232.472.348 1.04.348 1.704 0 .656-.116 1.224-.348 1.704-.224.48-.536.848-.936 1.104-.4.248-.864.372-1.392.372-.464 0-.884-.104-1.26-.312-.376-.216-.624-.5-.744-.852h.132v3.624h-2.136zm3.324-4.044c.368 0 .66-.124.876-.372.224-.256.336-.664.336-1.224 0-.56-.112-.964-.336-1.212-.216-.256-.508-.384-.876-.384-.36 0-.652.128-.876.384-.224.248-.336.652-.336 1.212 0 .56.112.968.336 1.224.224.248.516.372.876.372zM18.845 9V4.572a14.721 14.721 0 00-.096-1.668h2.064l.228 1.872h-.324c.08-.456.208-.832.384-1.128a1.74 1.74 0 01.66-.66c.264-.144.576-.216.936-.216.168 0 .292.008.372.024a.94.94 0 01.276.072V4.74c-.2-.088-.36-.144-.48-.168a2.468 2.468 0 00-.468-.036c-.328 0-.596.06-.804.18a.994.994 0 00-.456.528c-.088.24-.132.548-.132.924V9h-2.16zm8.375.132c-1.104 0-1.964-.284-2.58-.852-.608-.568-.912-1.348-.912-2.34 0-.616.128-1.164.384-1.644s.616-.852 1.08-1.116c.464-.272 1.008-.408 1.632-.408.616 0 1.128.136 1.536.408.416.264.728.632.936 1.104.208.464.312 1.004.312 1.62v.456h-4.092V5.352h2.52l-.204.168c0-.456-.088-.792-.264-1.008-.168-.224-.408-.336-.72-.336-.36 0-.636.136-.828.408-.184.264-.276.664-.276 1.2V6c0 .536.132.928.396 1.176.264.248.644.372 1.14.372.32 0 .62-.036.9-.108.288-.072.56-.188.816-.348l.552 1.392a3.549 3.549 0 01-1.056.48c-.4.112-.824.168-1.272.168zM30.746 9V4.56a14.513 14.513 0 00-.096-1.656h2.064l.12 1.056H32.7c.2-.384.484-.676.852-.876a2.492 2.492 0 011.248-.312c.712 0 1.244.212 1.596.636.36.416.54 1.068.54 1.956V9h-2.136V5.46c0-.392-.068-.664-.204-.816-.136-.16-.331-.24-.587-.24-.337 0-.608.112-.816.336-.209.216-.313.504-.313.864V9h-2.136zm10.02.132c-.52 0-.984-.124-1.392-.372-.408-.256-.728-.624-.96-1.104-.232-.48-.348-1.048-.348-1.704 0-.664.112-1.232.336-1.704.232-.48.552-.844.96-1.092a2.625 2.625 0 011.404-.384c.464 0 .884.108 1.26.324.376.208.628.488.756.84h-.18V.168h2.136V9h-2.1V7.908h.156c-.112.368-.36.664-.744.888a2.46 2.46 0 01-1.284.336zm.684-1.584c.352 0 .64-.124.864-.372.232-.256.348-.664.348-1.224 0-.56-.116-.964-.348-1.212a1.096 1.096 0 00-.864-.384c-.36 0-.656.128-.888.384-.224.248-.336.652-.336 1.212 0 .56.112.968.336 1.224.232.248.528.372.888.372zm7.95 1.584c-1.103 0-1.963-.284-2.58-.852-.607-.568-.911-1.348-.911-2.34 0-.616.128-1.164.384-1.644s.616-.852 1.08-1.116c.464-.272 1.008-.408 1.632-.408.616 0 1.128.136 1.536.408.416.264.728.632.936 1.104.208.464.312 1.004.312 1.62v.456h-4.092V5.352h2.52l-.204.168c0-.456-.088-.792-.264-1.008-.168-.224-.408-.336-.72-.336-.36 0-.636.136-.828.408-.184.264-.276.664-.276 1.2V6c0 .536.132.928.396 1.176.264.248.644.372 1.14.372.32 0 .62-.036.9-.108.288-.072.56-.188.816-.348l.552 1.392a3.549 3.549 0 01-1.056.48c-.4.112-.824.168-1.272.168zm9.514 0c-.528 0-.992-.124-1.392-.372-.4-.256-.715-.624-.947-1.104-.225-.48-.337-1.048-.337-1.704 0-.664.112-1.232.337-1.704.231-.48.547-.844.947-1.092.4-.256.864-.384 1.392-.384.472 0 .896.112 1.273.336.384.224.636.516.756.876h-.12l.132-1.08h2.052l-.072.828c-.017.28-.025.556-.025.828V9H60.8l-.024-1.032h.144c-.12.352-.372.636-.756.852a2.535 2.535 0 01-1.248.312zm.684-1.584c.36 0 .653-.124.877-.372.224-.256.335-.664.335-1.224 0-.56-.111-.964-.336-1.212a1.109 1.109 0 00-.875-.384c-.36 0-.652.128-.877.384-.224.248-.336.652-.336 1.212 0 .56.108.968.325 1.224.224.248.52.372.888.372zM67.947 9V2.904h2.136V9h-2.136zm-.048-6.96V.12h2.244v1.92h-2.244zm6.049 7.092c-.52 0-.984-.124-1.392-.372-.408-.256-.728-.624-.96-1.104-.232-.48-.348-1.048-.348-1.704 0-.664.112-1.232.336-1.704.232-.48.552-.844.96-1.092a2.625 2.625 0 011.404-.384c.464 0 .884.108 1.26.324.376.208.628.488.756.84h-.18V.168h2.136V9h-2.1V7.908h.156c-.112.368-.36.664-.744.888a2.46 2.46 0 01-1.284.336zm.684-1.584c.352 0 .64-.124.864-.372.232-.256.348-.664.348-1.224 0-.56-.116-.964-.348-1.212a1.096 1.096 0 00-.864-.384c-.36 0-.656.128-.888.384-.224.248-.336.652-.336 1.212 0 .56.112.968.336 1.224.232.248.528.372.888.372zm7.95 1.584c-1.103 0-1.963-.284-2.58-.852-.607-.568-.911-1.348-.911-2.34 0-.616.128-1.164.384-1.644s.616-.852 1.08-1.116c.464-.272 1.008-.408 1.632-.408.616 0 1.128.136 1.536.408.416.264.728.632.936 1.104.208.464.312 1.004.312 1.62v.456h-4.092V5.352h2.52l-.204.168c0-.456-.088-.792-.264-1.008-.168-.224-.408-.336-.72-.336-.36 0-.636.136-.828.408-.184.264-.276.664-.276 1.2V6c0 .536.132.928.396 1.176.264.248.644.372 1.14.372.32 0 .62-.036.9-.108.288-.072.56-.188.816-.348l.552 1.392a3.549 3.549 0 01-1.056.48c-.4.112-.824.168-1.272.168zM86.108 9V4.56a14.513 14.513 0 00-.096-1.656h2.064l.12 1.056h-.132c.2-.384.484-.676.852-.876a2.492 2.492 0 011.248-.312c.712 0 1.244.212 1.596.636.36.416.54 1.068.54 1.956V9h-2.136V5.46c0-.392-.068-.664-.204-.816-.136-.16-.332-.24-.588-.24-.336 0-.608.112-.816.336-.208.216-.312.504-.312.864V9h-2.136zm10.716.132c-.864 0-1.516-.204-1.956-.612-.432-.416-.648-1.044-.648-1.884v-2.16h-1.14V2.904h1.14v-1.44L96.355.96v1.944h1.488v1.572h-1.488v2.076c0 .352.08.588.24.708.16.112.352.168.576.168.136 0 .252-.008.348-.024.104-.024.212-.056.324-.096v1.644c-.176.072-.352.12-.528.144a3.477 3.477 0 01-.492.036zM98.792 9V2.904h2.136V9h-2.136zm-.048-6.96V.12h2.244v1.92h-2.244zM102.885 9V4.476h-1.14V2.904h1.74l-.6.552v-.828c0-.84.216-1.468.648-1.884.432-.416 1.064-.624 1.896-.624.208 0 .424.012.648.036a2.2 2.2 0 01.6.144v1.632a1.702 1.702 0 00-.384-.084 2.553 2.553 0 00-.42-.036.98.98 0 00-.612.192c-.168.12-.252.348-.252.684v.54l-.3-.324h4.632V9h-2.136V4.476h-2.184V9h-2.136zm4.26-6.96V.12h2.244v1.92h-2.244zm6.725 7.092c-.672 0-1.26-.128-1.764-.384a2.821 2.821 0 01-1.176-1.092c-.28-.48-.42-1.052-.42-1.716 0-.664.14-1.232.42-1.704.28-.472.672-.832 1.176-1.08.504-.256 1.092-.384 1.764-.384.416 0 .824.056 1.224.168.4.112.724.272.972.48l-.6 1.452a1.96 1.96 0 00-.66-.36 2.048 2.048 0 00-.708-.132c-.44 0-.784.132-1.032.396-.24.264-.36.652-.36 1.164 0 .512.12.904.36 1.176.248.264.592.396 1.032.396.224 0 .46-.04.708-.12.248-.088.468-.208.66-.36l.6 1.452c-.256.2-.584.36-.984.48a4.39 4.39 0 01-1.212.168zm5.588 0c-.528 0-.992-.124-1.392-.372-.4-.256-.716-.624-.948-1.104-.224-.48-.336-1.048-.336-1.704 0-.664.112-1.232.336-1.704.232-.48.548-.844.948-1.092.4-.256.864-.384 1.392-.384.472 0 .896.112 1.272.336.384.224.636.516.756.876h-.12l.132-1.08h2.052l-.072.828c-.016.28-.024.556-.024.828V9h-2.112l-.024-1.032h.144c-.12.352-.372.636-.756.852a2.535 2.535 0 01-1.248.312zm.684-1.584c.36 0 .652-.124.876-.372.224-.256.336-.664.336-1.224 0-.56-.112-.964-.336-1.212a1.109 1.109 0 00-.876-.384c-.36 0-.652.128-.876.384-.224.248-.336.652-.336 1.212 0 .56.108.968.324 1.224.224.248.52.372.888.372zM124.901 9V4.572a14.721 14.721 0 00-.096-1.668h2.064l.228 1.872h-.324c.08-.456.208-.832.384-1.128a1.74 1.74 0 01.66-.66c.264-.144.576-.216.936-.216.168 0 .292.008.372.024a.94.94 0 01.276.072V4.74c-.2-.088-.36-.144-.48-.168a2.468 2.468 0 00-.468-.036c-.328 0-.596.06-.804.18a.994.994 0 00-.456.528c-.088.24-.132.548-.132.924V9h-2.16zm8.877 2.724l-.504-1.656a6.96 6.96 0 00.96-.24c.264-.08.48-.192.648-.336.168-.144.3-.332.396-.564l.3-.696-.048.804-2.664-6.132h2.256l1.56 4.044h-.396l1.608-4.044h2.112l-2.736 6.228a5.523 5.523 0 01-.696 1.2 3.1 3.1 0 01-1.716 1.152 9.038 9.038 0 01-1.08.24zM144.154 9V4.572a14.721 14.721 0 00-.096-1.668h2.064l.228 1.872h-.324c.08-.456.208-.832.384-1.128a1.74 1.74 0 01.66-.66c.264-.144.576-.216.936-.216.168 0 .292.008.372.024a.94.94 0 01.276.072V4.74c-.2-.088-.36-.144-.48-.168a2.468 2.468 0 00-.468-.036c-.328 0-.596.06-.804.18a.994.994 0 00-.456.528c-.088.24-.132.548-.132.924V9h-2.16zm8.375.132c-1.104 0-1.964-.284-2.58-.852-.608-.568-.912-1.348-.912-2.34 0-.616.128-1.164.384-1.644s.616-.852 1.08-1.116c.464-.272 1.008-.408 1.632-.408.616 0 1.128.136 1.536.408.416.264.728.632.936 1.104.208.464.312 1.004.312 1.62v.456h-4.092V5.352h2.52l-.204.168c0-.456-.088-.792-.264-1.008-.168-.224-.408-.336-.72-.336-.36 0-.636.136-.828.408-.184.264-.276.664-.276 1.2V6c0 .536.132.928.396 1.176.264.248.644.372 1.14.372.32 0 .62-.036.9-.108.288-.072.56-.188.816-.348l.552 1.392a3.549 3.549 0 01-1.056.48c-.4.112-.824.168-1.272.168zm3.526 2.46V4.56a14.513 14.513 0 00-.096-1.656h2.064l.132 1.08h-.12c.112-.36.36-.652.744-.876a2.501 2.501 0 011.284-.336c.528 0 .992.128 1.392.384.4.248.712.612.936 1.092.232.472.348 1.04.348 1.704 0 .656-.116 1.224-.348 1.704-.224.48-.536.848-.936 1.104-.4.248-.864.372-1.392.372-.464 0-.884-.104-1.26-.312-.376-.216-.624-.5-.744-.852h.132v3.624h-2.136zm3.324-4.044c.368 0 .66-.124.876-.372.224-.256.336-.664.336-1.224 0-.56-.112-.964-.336-1.212-.216-.256-.508-.384-.876-.384-.36 0-.652.128-.876.384-.224.248-.336.652-.336 1.212 0 .56.112.968.336 1.224.224.248.516.372.876.372zm7.566 1.584c-.68 0-1.268-.128-1.764-.384a2.76 2.76 0 01-1.152-1.092c-.272-.48-.408-1.048-.408-1.704 0-.664.136-1.232.408-1.704a2.76 2.76 0 011.152-1.092c.496-.256 1.084-.384 1.764-.384.672 0 1.256.128 1.752.384s.88.624 1.152 1.104c.272.472.408 1.036.408 1.692 0 .648-.136 1.212-.408 1.692-.272.48-.656.848-1.152 1.104-.496.256-1.08.384-1.752.384zm0-1.584c.352 0 .632-.124.84-.372.208-.256.312-.664.312-1.224 0-.56-.104-.964-.312-1.212-.208-.256-.488-.384-.84-.384-.36 0-.644.128-.852.384-.208.248-.312.652-.312 1.212 0 .56.104.968.312 1.224.208.248.492.372.852.372zM171.423 9V4.572a14.721 14.721 0 00-.096-1.668h2.064l.228 1.872h-.324c.08-.456.208-.832.384-1.128a1.74 1.74 0 01.66-.66c.264-.144.576-.216.936-.216.168 0 .292.008.372.024a.94.94 0 01.276.072V4.74c-.2-.088-.36-.144-.48-.168a2.468 2.468 0 00-.468-.036c-.328 0-.596.06-.804.18a.994.994 0 00-.456.528c-.088.24-.132.548-.132.924V9h-2.16zm8.737.132c-.864 0-1.516-.204-1.956-.612-.432-.416-.648-1.044-.648-1.884v-2.16h-1.14V2.904h1.14v-1.44l2.136-.504v1.944h1.488v1.572h-1.488v2.076c0 .352.08.588.24.708.16.112.352.168.576.168.136 0 .252-.008.348-.024.104-.024.212-.056.324-.096v1.644c-.176.072-.352.12-.528.144a3.477 3.477 0 01-.492.036zm4.368 0c-.528 0-.992-.124-1.392-.372-.4-.256-.716-.624-.948-1.104-.224-.48-.336-1.048-.336-1.704 0-.664.112-1.232.336-1.704.232-.48.548-.844.948-1.092.4-.256.864-.384 1.392-.384.472 0 .896.112 1.272.336.384.224.636.516.756.876h-.12l.132-1.08h2.052l-.072.828c-.016.28-.024.556-.024.828V9h-2.112l-.024-1.032h.144c-.12.352-.372.636-.756.852a2.535 2.535 0 01-1.248.312zm.684-1.584c.36 0 .652-.124.876-.372.224-.256.336-.664.336-1.224 0-.56-.112-.964-.336-1.212a1.109 1.109 0 00-.876-.384c-.36 0-.652.128-.876.384-.224.248-.336.652-.336 1.212 0 .56.108.968.324 1.224.224.248.52.372.888.372zM189.971 9V4.572a14.721 14.721 0 00-.096-1.668h2.064l.228 1.872h-.324c.08-.456.208-.832.384-1.128a1.74 1.74 0 01.66-.66c.264-.144.576-.216.936-.216.168 0 .292.008.372.024a.94.94 0 01.276.072V4.74c-.2-.088-.36-.144-.48-.168a2.468 2.468 0 00-.468-.036c-.328 0-.596.06-.804.18a.994.994 0 00-.456.528c-.088.24-.132.548-.132.924V9h-2.16zm12.069.132c-1.104 0-1.964-.284-2.58-.852-.608-.568-.912-1.348-.912-2.34 0-.616.128-1.164.384-1.644s.616-.852 1.08-1.116c.464-.272 1.008-.408 1.632-.408.616 0 1.128.136 1.536.408.416.264.728.632.936 1.104.208.464.312 1.004.312 1.62v.456h-4.092V5.352h2.52l-.204.168c0-.456-.088-.792-.264-1.008-.168-.224-.408-.336-.72-.336-.36 0-.636.136-.828.408-.184.264-.276.664-.276 1.2V6c0 .536.132.928.396 1.176.264.248.644.372 1.14.372.32 0 .62-.036.9-.108.288-.072.56-.188.816-.348l.552 1.392a3.549 3.549 0 01-1.056.48c-.4.112-.824.168-1.272.168zM205.565 9V.168h2.136V9h-2.136zm7.682 0V4.476h-1.14V2.904h1.74l-.6.552v-.828c0-.84.22-1.468.66-1.884.44-.416 1.104-.624 1.992-.624.2 0 .412.012.636.036a2.2 2.2 0 01.6.144v1.632a1.702 1.702 0 00-.384-.084 2.553 2.553 0 00-.42-.036c-.16 0-.316.028-.468.084a.732.732 0 00-.36.264c-.088.128-.132.304-.132.528v.54l-.3-.324h1.776v1.572h-1.464V9h-2.136zm4.456 0V4.572a14.721 14.721 0 00-.096-1.668h2.064l.228 1.872h-.324c.08-.456.208-.832.384-1.128a1.74 1.74 0 01.66-.66c.264-.144.576-.216.936-.216.168 0 .292.008.372.024a.94.94 0 01.276.072V4.74c-.2-.088-.36-.144-.48-.168a2.468 2.468 0 00-.468-.036c-.328 0-.596.06-.804.18a.994.994 0 00-.456.528c-.088.24-.132.548-.132.924V9h-2.16zm7.606.132c-.528 0-.992-.124-1.392-.372-.4-.256-.716-.624-.948-1.104-.224-.48-.336-1.048-.336-1.704 0-.664.112-1.232.336-1.704.232-.48.548-.844.948-1.092.4-.256.864-.384 1.392-.384.472 0 .896.112 1.272.336.384.224.636.516.756.876h-.12l.132-1.08h2.052l-.072.828c-.016.28-.024.556-.024.828V9h-2.112l-.024-1.032h.144c-.12.352-.372.636-.756.852a2.535 2.535 0 01-1.248.312zm.684-1.584c.36 0 .652-.124.876-.372.224-.256.336-.664.336-1.224 0-.56-.112-.964-.336-1.212a1.109 1.109 0 00-.876-.384c-.36 0-.652.128-.876.384-.224.248-.336.652-.336 1.212 0 .56.108.968.324 1.224.224.248.52.372.888.372zm7.002 1.584c-.776 0-1.352-.212-1.728-.636-.368-.432-.552-1.084-.552-1.956V2.904h2.136v3.648c0 .32.064.56.192.72.136.152.34.228.612.228a.95.95 0 00.744-.324c.2-.224.3-.516.3-.876V2.904h2.136V9h-2.076V7.908h.18a2.244 2.244 0 01-.78.912c-.328.208-.716.312-1.164.312zm7.718 0c-.52 0-.984-.124-1.392-.372-.408-.256-.728-.624-.96-1.104-.232-.48-.348-1.048-.348-1.704 0-.664.112-1.232.336-1.704.232-.48.552-.844.96-1.092a2.625 2.625 0 011.404-.384c.464 0 .884.108 1.26.324.376.208.628.488.756.84h-.18V.168h2.136V9h-2.1V7.908h.156c-.112.368-.36.664-.744.888a2.46 2.46 0 01-1.284.336zm.684-1.584c.352 0 .64-.124.864-.372.232-.256.348-.664.348-1.224 0-.56-.116-.964-.348-1.212a1.096 1.096 0 00-.864-.384c-.36 0-.656.128-.888.384-.224.248-.336.652-.336 1.212 0 .56.112.968.336 1.224.232.248.528.372.888.372zm7.951 1.584c-1.104 0-1.964-.284-2.58-.852-.608-.568-.912-1.348-.912-2.34 0-.616.128-1.164.384-1.644s.616-.852 1.08-1.116c.464-.272 1.008-.408 1.632-.408.616 0 1.128.136 1.536.408.416.264.728.632.936 1.104.208.464.312 1.004.312 1.62v.456h-4.092V5.352h2.52l-.204.168c0-.456-.088-.792-.264-1.008-.168-.224-.408-.336-.72-.336-.36 0-.636.136-.828.408-.184.264-.276.664-.276 1.2V6c0 .536.132.928.396 1.176.264.248.644.372 1.14.372.32 0 .62-.036.9-.108.288-.072.56-.188.816-.348l.552 1.392a3.549 3.549 0 01-1.056.48c-.4.112-.824.168-1.272.168zM252.729 9V6.816h2.22V9h-2.22z" fill="#fff"/></svg>