<svg width="192" height="39" viewBox="0 0 192 39" fill="none" xmlns="http://www.w3.org/2000/svg"><rect y=".289" width="192" height="38" rx="2" fill="#F3C501"/><path d="M17.52 24.973v-9.94h4.563c.486 0 .934.098 1.344.294.411.196.766.462 1.064.798.299.326.528.695.686 1.106.168.41.252.826.252 1.246 0 .382-.056.751-.168 1.106a3.449 3.449 0 01-.49.98c-.214.29-.471.541-.77.756l2.1 3.654h-2.996l-1.75-3.052H20.25v3.052h-2.73zm2.73-5.432h1.721c.112 0 .22-.042.322-.126a.904.904 0 00.252-.364 1.34 1.34 0 00.112-.574c0-.234-.042-.425-.126-.574a.891.891 0 00-.294-.364.559.559 0 00-.336-.126H20.25v2.128zm14.92 3.052v2.38h-7.083v-9.94h6.958v2.38h-4.228v1.4h3.612v2.212h-3.612v1.568h4.354zm2.39 2.38v-9.94h4.284c.486 0 .934.098 1.344.294.41.196.765.462 1.064.798.299.326.527.695.686 1.106.168.41.252.826.252 1.246 0 .588-.14 1.143-.42 1.666a3.46 3.46 0 01-1.148 1.288c-.485.326-1.054.49-1.708.49H40.29v3.052h-2.73zm2.73-5.432h1.442c.112 0 .22-.033.322-.098a.695.695 0 00.252-.336c.075-.159.112-.369.112-.63 0-.28-.042-.495-.126-.644a.627.627 0 00-.294-.322.661.661 0 00-.336-.098H40.29v2.128zm11.593 5.516c-.756 0-1.442-.14-2.058-.42a5.208 5.208 0 01-1.596-1.148 5.485 5.485 0 01-1.022-1.624 5.184 5.184 0 01-.35-1.876c0-.663.126-1.293.378-1.89a5.207 5.207 0 011.05-1.596c.457-.476.994-.85 1.61-1.12a5.09 5.09 0 012.044-.406c.756 0 1.442.144 2.058.434a4.76 4.76 0 011.582 1.148 5.213 5.213 0 011.008 1.638 4.866 4.866 0 01-.014 3.724 5.052 5.052 0 01-1.05 1.61 5.13 5.13 0 01-1.596 1.12 5.028 5.028 0 01-2.044.406zm-2.254-5.04c0 .336.047.662.14.98.093.308.233.588.42.84.187.242.42.438.7.588.29.14.63.21 1.022.21a2.2 2.2 0 001.022-.224c.29-.15.523-.35.7-.602.186-.262.322-.546.406-.854a3.409 3.409 0 000-1.932 2.556 2.556 0 00-.42-.826 1.909 1.909 0 00-.714-.588c-.29-.14-.626-.21-1.008-.21a2.2 2.2 0 00-1.022.224c-.28.15-.514.35-.7.602a2.534 2.534 0 00-.42.84 3.602 3.602 0 00-.126.952zm9.599 4.956v-9.94h4.564c.485 0 .933.098 1.344.294.41.196.765.462 1.064.798.299.326.527.695.686 1.106.168.41.252.826.252 1.246 0 .382-.056.751-.168 1.106a3.449 3.449 0 01-.49.98c-.215.29-.472.541-.77.756l2.1 3.654h-2.996l-1.75-3.052h-1.106v3.052h-2.73zm2.73-5.432h1.722c.112 0 .22-.042.322-.126a.904.904 0 00.252-.364 1.34 1.34 0 00.112-.574c0-.234-.042-.425-.126-.574a.891.891 0 00-.294-.364.559.559 0 00-.336-.126h-1.652v2.128zM77.4 17.413h-2.856v7.56h-2.73v-7.56h-2.87v-2.38H77.4v2.38zm3.495-2.38h3.052l3.164 9.94h-2.772l-.602-1.946H81.09l-.588 1.946h-2.786l3.178-9.94zm2.408 6.174l-.882-3.5-.924 3.5h1.806zm16.678 1.386v2.38h-7.084v-9.94h6.958v2.38h-4.228v1.4h3.612v2.212h-3.612v1.568h4.354zm2.39 2.38v-9.94h2.73v7.56h4.508v2.38h-7.238zm13.164 0v-9.94h6.818v2.38h-4.088v1.652h3.332v2.212h-3.332v3.696h-2.73zm9.008 0v-9.94h4.564c.486 0 .934.098 1.344.294.411.196.766.462 1.064.798.299.326.528.695.686 1.106.168.41.252.826.252 1.246 0 .382-.056.751-.168 1.106a3.439 3.439 0 01-.49.98c-.214.29-.471.541-.77.756l2.1 3.654h-2.996l-1.75-3.052h-1.106v3.052h-2.73zm2.73-5.432h1.722c.112 0 .22-.042.322-.126a.896.896 0 00.252-.364c.075-.159.112-.35.112-.574 0-.234-.042-.425-.126-.574a.88.88 0 00-.294-.364.559.559 0 00-.336-.126h-1.652v2.128zm10.134-4.508h3.052l3.164 9.94h-2.772l-.602-1.946h-2.646l-.588 1.946h-2.786l3.178-9.94zm2.408 6.174l-.882-3.5-.924 3.5h1.806zm9.711 3.85c-.794 0-1.475-.13-2.044-.392a3.756 3.756 0 01-1.4-1.078 4.581 4.581 0 01-.784-1.568 6.897 6.897 0 01-.252-1.876v-5.11h2.73v5.11c0 .326.032.64.098.938.065.298.168.564.308.798.14.233.317.42.532.56.224.13.494.196.812.196.326 0 .602-.066.826-.196.224-.14.401-.327.532-.56a2.84 2.84 0 00.308-.812c.065-.299.098-.607.098-.924v-5.11h2.73v5.11c0 .69-.094 1.334-.28 1.932a4.487 4.487 0 01-.812 1.568 3.7 3.7 0 01-1.4 1.05c-.56.242-1.228.364-2.002.364zm7.184-.084v-9.94h3.822c1.101 0 2.021.224 2.758.672a4.197 4.197 0 011.68 1.792c.383.746.574 1.577.574 2.492 0 1.008-.21 1.885-.63 2.632a4.297 4.297 0 01-1.75 1.736c-.747.41-1.624.616-2.632.616h-3.822zm6.062-4.984c0-.514-.089-.962-.266-1.344a2.05 2.05 0 00-.77-.91c-.336-.215-.737-.322-1.204-.322h-1.092v5.18h1.092c.476 0 .877-.112 1.204-.336.336-.224.593-.532.77-.924.177-.402.266-.85.266-1.344zm12.163 2.604v2.38h-7.084v-9.94h6.958v2.38h-4.228v1.4h3.612v2.212h-3.612v1.568h4.354z" fill="#2B3D51"/></svg>