<svg width="575" height="43" viewBox="0 0 575 43" fill="none" xmlns="http://www.w3.org/2000/svg"><path d="M2.343 36.43c-1.29 0-2.236-1.032-2.236-2.279 0-1.247.989-2.279 2.236-2.279a2.294 2.294 0 012.279 2.279 2.294 2.294 0 01-2.279 2.279zm8.734 0c-1.29 0-2.236-1.032-2.236-2.279 0-1.247.99-2.279 2.236-2.279a2.294 2.294 0 012.28 2.279 2.294 2.294 0 01-2.28 2.279zm8.735 0c-1.29 0-2.236-1.032-2.236-2.279 0-1.247.989-2.279 2.236-2.279a2.294 2.294 0 012.279 2.279 2.294 2.294 0 01-2.28 2.279zm7.143 5.633V15.059h3.14v3.612c1.547-2.709 4.6-4.042 7.997-4.042 5.805 0 9.89 4.773 9.89 10.879s-4.085 10.922-9.89 10.922c-3.31 0-6.32-1.376-7.869-4.085v9.718h-3.268zm10.406-8.815c4.171 0 7.267-3.268 7.267-7.74 0-4.429-3.096-7.697-7.267-7.697-3.999 0-7.138 3.311-7.138 7.697s3.14 7.74 7.138 7.74zm25.4 3.182c-6.15 0-11.009-4.816-11.009-10.879 0-6.106 4.86-10.922 11.008-10.922 6.15 0 11.008 4.816 11.008 10.922 0 6.063-4.859 10.879-11.008 10.879zm0-3.182c4.342 0 7.653-3.311 7.653-7.697 0-4.429-3.31-7.74-7.654-7.74-4.343 0-7.654 3.311-7.654 7.74 0 4.386 3.311 7.697 7.654 7.697zM78.395 36V15.059h3.268v4.429c1.204-2.752 3.913-4.859 8.084-4.859v3.569c-4.902 0-8.084 2.752-8.084 7.869V36h-3.268zm31.49.43c-3.698 0-5.891-1.806-5.891-6.708V17.768h-3.139v-2.709h3.139v-4.515l3.268-.602v5.117h7.138v2.709h-7.138v12.04c0 2.881 1.247 3.698 2.924 3.698 1.935 0 3.44-1.161 3.44-1.161l1.075 2.537c-.817.559-2.537 1.548-4.816 1.548zm15.963 0c-5.16 0-7.611-2.709-7.611-8.299V15.059h3.268v12.642c0 3.913 1.892 5.547 5.289 5.547 3.784 0 5.977-3.096 5.977-6.321V15.059h3.268V36h-3.139v-3.698c-1.29 2.709-4.3 4.128-7.052 4.128zm25.067-.43V15.059h3.268v3.569c1.462-2.537 4.171-3.999 7.267-3.999 5.246 0 7.568 3.182 7.568 8.686V36h-3.268V23.745c0-3.87-1.419-5.934-5.203-5.934-3.741 0-6.364 2.924-6.364 6.407V36h-3.268zm29.37-24.295l3.483-5.719h3.569l-4.042 5.719h-3.01zm1.161 24.725c-5.16 0-7.611-2.709-7.611-8.299V15.059h3.268v12.642c0 3.913 1.892 5.547 5.289 5.547 3.784 0 5.977-3.096 5.977-6.321V15.059h3.268V36h-3.139v-3.698c-1.29 2.709-4.3 4.128-7.052 4.128zm15.702-.43V15.059h3.268v3.612c1.161-2.279 3.784-4.042 6.708-4.042 3.354 0 5.719 1.462 6.708 4.429 1.505-3.053 4.773-4.429 7.224-4.429 5.031 0 7.697 2.924 7.697 8.686V36h-3.311V23.745c0-3.569-1.247-5.934-5.074-5.934-3.526 0-5.762 2.838-5.762 5.977V36h-3.311V23.745c0-3.569-1.247-5.934-5.031-5.934-3.655 0-5.848 3.096-5.848 6.149V36h-3.268zm46.807.43c-5.934 0-10.965-4.257-10.965-10.879 0-6.063 4.558-10.922 10.535-10.922 5.59 0 10.019 4.816 10.019 10.793 0 .602-.086 1.247-.086 1.29h-17.071c.516 4.171 3.741 6.794 7.611 6.794 2.365 0 4.73-.817 6.45-2.236l1.419 2.408a12.814 12.814 0 01-7.912 2.752zm-7.568-12.212h13.932c-.344-3.87-3.311-6.665-6.966-6.665-3.569 0-6.493 2.752-6.966 6.665zM258.206 36V15.059h3.268v4.429c1.204-2.752 3.913-4.859 8.084-4.859v3.569c-4.902 0-8.084 2.752-8.084 7.869V36h-3.268zm24.845.43c-6.149 0-11.008-4.816-11.008-10.879 0-6.106 4.859-10.922 11.008-10.922 6.149 0 11.008 4.816 11.008 10.922 0 6.063-4.859 10.879-11.008 10.879zm0-3.182c4.343 0 7.654-3.311 7.654-7.697 0-4.429-3.311-7.74-7.654-7.74s-7.654 3.311-7.654 7.74c0 4.386 3.311 7.697 7.654 7.697zm34.03 3.182c-5.805 0-9.89-4.816-9.89-10.879 0-6.149 4.085-10.922 9.89-10.922 3.354 0 6.321 1.376 7.869 4.085V7.706h3.268V36h-3.139v-3.655c-1.548 2.752-4.601 4.085-7.998 4.085zm.731-3.182c3.999 0 7.138-3.311 7.138-7.697s-3.139-7.74-7.138-7.74c-4.171 0-7.267 3.268-7.267 7.74 0 4.429 3.096 7.697 7.267 7.697zm26.001 3.182c-5.934 0-10.965-4.257-10.965-10.879 0-6.063 4.558-10.922 10.535-10.922 5.59 0 10.019 4.816 10.019 10.793 0 .602-.086 1.247-.086 1.29h-17.071c.516 4.171 3.741 6.794 7.611 6.794 2.365 0 4.73-.817 6.45-2.236l1.419 2.408a12.814 12.814 0 01-7.912 2.752zm-7.568-12.212h13.932c-.344-3.87-3.311-6.665-6.966-6.665-3.569 0-6.493 2.752-6.966 6.665z" fill="#000"/><path d="M367.261 36V5.544h7.614l5.969 8.554a247.755 247.755 0 012.585 3.948s1.598-2.491 2.585-3.948l5.969-8.554h7.614V36h-8.93V20.584s-1.551 2.491-2.397 3.666l-4.841 6.768-4.888-6.768c-.846-1.175-2.35-3.572-2.35-3.572V36h-8.93zm49.813.47c-7.285 0-13.489-4.559-13.489-12.455 0-6.956 5.405-12.502 12.502-12.502 6.815 0 12.032 5.546 12.032 12.502 0 1.457-.188 2.773-.188 2.773h-15.933c.705 2.256 2.82 3.102 5.123 3.102 2.021 0 4.183-.611 5.687-1.457l2.867 5.781c-2.679 1.645-5.64 2.256-8.601 2.256zm-5.311-14.523h8.554c-.282-2.209-2.021-3.713-4.23-3.713-2.115 0-3.807 1.504-4.324 3.713zm29.47 14.523c-6.674 0-10.293-5.546-10.293-12.455 0-6.956 3.854-12.502 10.575-12.502 1.927 0 4.324.658 5.781 2.491v-8.93h8.554V36h-8.084v-2.679c-1.269 2.444-4.606 3.149-6.533 3.149zm2.256-7.52c2.256 0 3.854-2.021 3.854-4.935 0-2.867-1.598-4.982-3.854-4.982-2.256 0-3.854 2.115-3.854 4.982 0 2.914 1.598 4.935 3.854 4.935zM459.592 36V11.983h8.554V36h-8.554zm4.23-25.85c-2.632 0-4.841-2.209-4.841-4.841 0-2.679 2.209-4.888 4.841-4.888 2.726 0 4.935 2.209 4.935 4.888 0 2.632-2.209 4.841-4.935 4.841zm20.573 26.32c-7.379 0-12.972-5.546-12.972-12.455 0-6.956 5.593-12.502 12.972-12.502 3.29 0 5.969.987 8.507 3.008l-4.935 5.922c-.893-.846-1.88-1.41-3.337-1.41-2.773 0-4.559 2.115-4.559 4.982 0 2.914 1.739 4.935 4.747 4.935 1.645 0 3.008-.705 4.042-1.739l4.277 6.298c-2.303 1.927-5.358 2.961-8.742 2.961zm20.178 0c-6.674 0-10.293-5.546-10.293-12.455 0-6.956 3.619-12.502 10.293-12.502 1.927 0 5.123.658 6.533 3.149v-2.679h8.084V36h-8.084v-2.679c-1.316 2.444-4.606 3.149-6.533 3.149zm2.256-7.52c2.256 0 3.854-2.021 3.854-4.935 0-2.867-1.598-4.982-3.854-4.982-2.256 0-3.854 2.115-3.854 4.982 0 2.914 1.598 4.935 3.854 4.935zM522.932 36V11.983h8.319v4.277c.141-1.034 2.209-4.747 7.849-4.747v9.306c-6.204 0-7.614 2.585-7.614 7.097V36h-8.554zm32.021.47c-7.285 0-13.489-4.559-13.489-12.455 0-6.956 5.405-12.502 12.502-12.502 6.815 0 12.032 5.546 12.032 12.502 0 1.457-.188 2.773-.188 2.773h-15.933c.705 2.256 2.82 3.102 5.123 3.102 2.021 0 4.183-.611 5.687-1.457l2.867 5.781c-2.679 1.645-5.64 2.256-8.601 2.256zm-5.311-14.523h8.554c-.282-2.209-2.021-3.713-4.23-3.713-2.115 0-3.807 1.504-4.324 3.713zm19.315 19.944l2.107-9.847h3.225l-3.01 9.847h-2.322z" fill="#0B2E54"/></svg>