<svg width="565" height="96" viewBox="0 0 565 96" fill="none" xmlns="http://www.w3.org/2000/svg"><path d="M11.846 32.46c-5.888 0-9.476-2.346-11.638-4.646l1.564-2.76c2.392 2.346 5.612 4.048 10.12 4.048 3.864 0 7.912-1.702 7.912-5.382 0-3.404-3.864-4.416-7.682-5.382C6.786 17.004 1.45 15.302 1.45 9.782c0-5.336 5.106-8.05 10.442-8.05 3.68 0 7.038.92 10.028 3.312L20.402 7.85c-2.668-2.07-5.658-2.76-8.51-2.76-2.944 0-6.716 1.38-6.716 4.692 0 3.082 3.404 4.094 7.406 5.106 5.52 1.38 11.086 3.266 11.086 8.832 0 6.118-6.118 8.74-11.822 8.74zM29.3 32V9.598h3.497V32H29.3zm1.748-26.404a2.278 2.278 0 01-2.3-2.3c0-1.288 1.012-2.346 2.3-2.346a2.356 2.356 0 012.347 2.346c0 1.288-1.059 2.3-2.347 2.3zM57.126 32.46c-3.956 0-6.302-1.932-6.302-7.176V12.496h-3.358V9.598h3.358v-4.83l3.496-.644v5.474h7.636v2.898h-7.636v12.88c0 3.082 1.334 3.956 3.128 3.956 2.07 0 3.68-1.242 3.68-1.242l1.15 2.714c-.874.598-2.714 1.656-5.152 1.656zm20.303 0c-6.348 0-11.73-4.554-11.73-11.638 0-6.486 4.876-11.684 11.27-11.684 5.98 0 10.718 5.152 10.718 11.546 0 .644-.092 1.334-.092 1.38H69.332c.552 4.462 4.002 7.268 8.142 7.268 2.53 0 5.06-.874 6.9-2.392l1.518 2.576a13.707 13.707 0 01-8.464 2.944zm-8.096-13.064h14.904c-.368-4.14-3.542-7.13-7.452-7.13-3.818 0-6.946 2.944-7.452 7.13zm45.134 13.064c-6.578 0-11.776-5.152-11.776-11.638 0-6.532 5.198-11.684 11.776-11.684 6.578 0 11.776 5.152 11.776 11.684 0 6.486-5.198 11.638-11.776 11.638zm0-3.404c4.646 0 8.188-3.542 8.188-8.234 0-4.738-3.542-8.28-8.188-8.28-4.646 0-8.188 3.542-8.188 8.28 0 4.692 3.542 8.234 8.188 8.234zM132.158 32V12.496h-3.634V9.598h3.634V7.896c0-5.566 2.944-7.084 6.026-7.084 2.208 0 4.278.828 5.382 1.518l-1.15 2.668c-.46-.276-1.794-1.104-3.496-1.104-1.748 0-3.266.874-3.266 4.37v1.334h7.13v2.898h-7.13V32h-3.496zm14.419 0V9.598h3.496v4.738c1.288-2.944 4.186-5.198 8.648-5.198v3.818c-5.244 0-8.648 2.944-8.648 8.418V32h-3.496zm26.993.46c-6.348 0-11.73-4.554-11.73-11.638 0-6.486 4.876-11.684 11.27-11.684 5.98 0 10.718 5.152 10.718 11.546 0 .644-.092 1.334-.092 1.38h-18.262c.552 4.462 4.002 7.268 8.142 7.268 2.53 0 5.06-.874 6.9-2.392l1.518 2.576a13.707 13.707 0 01-8.464 2.944zm-8.096-13.064h14.904c-.368-4.14-3.542-7.13-7.452-7.13-3.818 0-6.946 2.944-7.452 7.13zM200.13 32.46c-6.578 0-11.776-5.106-11.776-11.638s5.198-11.684 11.776-11.684c3.082 0 5.888 1.104 8.004 2.99l-2.208 2.484c-1.38-1.288-3.404-2.07-5.75-2.07-4.692 0-8.234 3.496-8.234 8.28 0 4.646 3.404 8.234 8.326 8.234 2.53 0 4.83-.966 6.394-2.53l2.024 2.622c-2.162 2.07-5.198 3.312-8.556 3.312zm23.504 0c-6.348 0-11.73-4.554-11.73-11.638 0-6.486 4.876-11.684 11.27-11.684 5.98 0 10.718 5.152 10.718 11.546 0 .644-.092 1.334-.092 1.38h-18.262c.552 4.462 4.002 7.268 8.142 7.268 2.53 0 5.06-.874 6.9-2.392l1.518 2.576a13.707 13.707 0 01-8.464 2.944zm-8.096-13.064h14.904c-.368-4.14-3.542-7.13-7.452-7.13-3.818 0-6.946 2.944-7.452 7.13zM239.339 32V9.598h3.496v3.818c1.564-2.714 4.462-4.278 7.774-4.278 5.612 0 8.096 3.404 8.096 9.292V32h-3.496V18.89c0-4.14-1.518-6.348-5.566-6.348-4.002 0-6.808 3.128-6.808 6.854V32h-3.496zM11.754 88.46c-6.348 0-11.73-4.554-11.73-11.638 0-6.486 4.876-11.684 11.27-11.684 5.98 0 10.718 5.152 10.718 11.546 0 .644-.092 1.334-.092 1.38H3.658c.552 4.462 4.002 7.268 8.142 7.268 2.53 0 5.06-.874 6.9-2.392l1.518 2.576a13.707 13.707 0 01-8.464 2.944zM3.658 75.396h14.904c-.368-4.14-3.542-7.13-7.452-7.13-3.818 0-6.946 2.944-7.452 7.13zm41.879 19.09V84.09c-1.656 2.898-4.83 4.37-8.418 4.37-6.21 0-10.58-5.152-10.58-11.684 0-6.532 4.37-11.638 10.58-11.638 3.634 0 6.9 1.426 8.556 4.324v-3.864h3.358v28.888h-3.496zm-7.636-9.43c4.278 0 7.636-3.588 7.636-8.28 0-4.692-3.358-8.234-7.636-8.234-4.462 0-7.774 3.496-7.774 8.234 0 4.784 3.312 8.28 7.774 8.28zM63.14 88.46c-5.52 0-8.142-2.898-8.142-8.878V65.598h3.496v13.524c0 4.186 2.024 5.934 5.658 5.934 4.048 0 6.394-3.312 6.394-6.762V65.598h3.496V88h-3.358v-3.956c-1.38 2.898-4.6 4.416-7.544 4.416zM80.398 88V65.598h3.496V88h-3.496zm1.748-26.404a2.278 2.278 0 01-2.3-2.3c0-1.288 1.012-2.346 2.3-2.346a2.356 2.356 0 012.346 2.346c0 1.288-1.058 2.3-2.346 2.3zm8.1 32.89V65.598h3.359v3.864c1.656-2.898 4.922-4.324 8.556-4.324 6.21 0 10.58 5.106 10.58 11.638s-4.37 11.684-10.58 11.684c-3.542 0-6.762-1.472-8.418-4.37v10.396h-3.496zm11.133-9.43c4.462 0 7.774-3.496 7.774-8.28 0-4.738-3.312-8.234-7.774-8.234-4.278 0-7.636 3.542-7.636 8.234s3.358 8.28 7.636 8.28zm27.631 3.404c-6.578 0-11.776-5.152-11.776-11.638 0-6.532 5.198-11.684 11.776-11.684 6.578 0 11.776 5.152 11.776 11.684 0 6.486-5.198 11.638-11.776 11.638zm0-3.404c4.646 0 8.188-3.542 8.188-8.234 0-4.738-3.542-8.28-8.188-8.28-4.646 0-8.188 3.542-8.188 8.28 0 4.692 3.542 8.234 8.188 8.234zM156.674 88V65.598h3.496v3.864c1.242-2.438 4.048-4.324 7.176-4.324 3.588 0 6.118 1.564 7.176 4.738 1.61-3.266 5.106-4.738 7.728-4.738 5.382 0 8.234 3.128 8.234 9.292V88h-3.542V74.89c0-3.818-1.334-6.348-5.428-6.348-3.772 0-6.164 3.036-6.164 6.394V88h-3.542V74.89c0-3.818-1.334-6.348-5.382-6.348-3.91 0-6.256 3.312-6.256 6.578V88h-3.496zm47.679-25.99l3.726-6.118h3.818l-4.324 6.118h-3.22zm2.852 26.45c-6.348 0-11.73-4.554-11.73-11.638 0-6.486 4.876-11.684 11.27-11.684 5.98 0 10.718 5.152 10.718 11.546 0 .644-.092 1.334-.092 1.38h-18.262c.552 4.462 4.002 7.268 8.142 7.268 2.53 0 5.06-.874 6.9-2.392l1.518 2.576a13.707 13.707 0 01-8.464 2.944zm-8.096-13.064h14.904c-.368-4.14-3.542-7.13-7.452-7.13-3.818 0-6.946 2.944-7.452 7.13zM232.57 88.46c-6.21 0-10.58-5.152-10.58-11.638 0-6.578 4.37-11.684 10.58-11.684 3.588 0 6.762 1.472 8.418 4.37V57.732h3.496V88h-3.358v-3.91c-1.656 2.944-4.922 4.37-8.556 4.37zm.782-3.404c4.278 0 7.636-3.542 7.636-8.234s-3.358-8.28-7.636-8.28c-4.462 0-7.774 3.496-7.774 8.28 0 4.738 3.312 8.234 7.774 8.234zM250.817 88V65.598h3.496V88h-3.496zm1.748-26.404a2.278 2.278 0 01-2.3-2.3c0-1.288 1.012-2.346 2.3-2.346a2.356 2.356 0 012.346 2.346c0 1.288-1.058 2.3-2.346 2.3zm18.957 26.864c-6.578 0-11.776-5.106-11.776-11.638s5.198-11.684 11.776-11.684c3.082 0 5.888 1.104 8.004 2.99l-2.208 2.484c-1.38-1.288-3.404-2.07-5.75-2.07-4.692 0-8.234 3.496-8.234 8.28 0 4.646 3.404 8.234 8.326 8.234 2.53 0 4.83-.966 6.394-2.53l2.024 2.622c-2.162 2.07-5.198 3.312-8.556 3.312zm23.55 0c-6.578 0-11.776-5.152-11.776-11.638 0-6.532 5.198-11.684 11.776-11.684 6.578 0 11.776 5.152 11.776 11.684 0 6.486-5.198 11.638-11.776 11.638zm0-3.404c4.646 0 8.188-3.542 8.188-8.234 0-4.738-3.542-8.28-8.188-8.28-4.646 0-8.188 3.542-8.188 8.28 0 4.692 3.542 8.234 8.188 8.234z" fill="#000"/><path d="M338.006 70.372V54.304h7.072v16.068h-7.072zm-11.856 0V54.304h7.072v16.068h-7.072zm41.8 25.272c-5.2 0-9.256-1.196-11.648-2.808l3.38-5.928c2.08 1.352 5.096 1.716 7.228 1.716 3.432 0 5.2-1.56 5.824-3.276.208-.52.312-1.04.312-1.56-1.456 1.924-4.316 2.652-6.448 2.652-7.384 0-11.648-5.72-11.648-12.74 0-7.072 4.264-12.792 11.648-12.792 2.132 0 5.512.78 6.968 3.484v-2.964h8.944v19.344c0 7.592-3.38 14.872-14.56 14.872zm.884-17.368c2.496 0 4.264-1.872 4.264-4.576 0-2.704-1.768-4.628-4.264-4.628-2.496 0-4.264 1.924-4.264 4.628s1.768 4.576 4.264 4.576zM387.436 88V61.428h9.204v4.732c.156-1.144 2.444-5.252 8.684-5.252v10.296c-6.864 0-8.424 2.86-8.424 7.852V88h-9.464zm32.931.52c-7.384 0-11.388-6.136-11.388-13.78 0-7.696 4.004-13.832 11.388-13.832 2.132 0 5.668.728 7.228 3.484v-2.964h8.944V88h-8.944v-2.964c-1.456 2.704-5.096 3.484-7.228 3.484zm2.496-8.32c2.496 0 4.264-2.236 4.264-5.46 0-3.172-1.768-5.512-4.264-5.512-2.496 0-4.264 2.34-4.264 5.512 0 3.224 1.768 5.46 4.264 5.46zm29.464 8.32c-5.096 0-8.424-3.276-8.424-9.1V68.916h-3.9v-7.488h3.9v-4.784l9.464-2.34v7.124h5.876v7.488h-5.876v9.776c0 1.248.624 1.664 1.456 1.664.78 0 1.716-.364 2.392-.832l2.548 6.916c-2.288 1.612-5.096 2.08-7.436 2.08zm10.948-.52V61.428h9.464V88h-9.464zm4.68-28.6c-2.912 0-5.356-2.444-5.356-5.356 0-2.964 2.444-5.408 5.356-5.408 3.016 0 5.46 2.444 5.46 5.408 0 2.912-2.444 5.356-5.46 5.356zM487.7 88.52c-6.084 0-9.464-1.82-11.024-3.172l3.016-6.656c2.08 1.404 4.004 2.236 8.06 2.236.104 0 2.6-.156 2.6-1.196 0-.832-1.56-.988-3.12-1.352-5.772-1.404-10.036-3.744-10.036-8.632 0-5.824 5.304-8.84 10.92-8.84 5.148 0 8.216 1.144 10.764 2.496l-2.808 6.344c-3.068-1.196-5.876-1.56-7.644-1.56-.936 0-1.664.312-1.664.832 0 .988 2.236 1.352 4.888 2.08 3.744 1.092 8.268 2.912 8.268 8.268 0 7.124-7.228 9.152-12.22 9.152zm30.598-18.148V54.304h7.072v16.068h-7.072zm-11.856 0V54.304h7.072v16.068h-7.072zm32.492 18.148c-1.56 0-2.704-1.248-2.704-2.756 0-1.508 1.196-2.756 2.704-2.756a2.774 2.774 0 012.756 2.756 2.774 2.774 0 01-2.756 2.756zm11.602 0c-1.56 0-2.704-1.248-2.704-2.756 0-1.508 1.196-2.756 2.704-2.756a2.774 2.774 0 012.756 2.756 2.774 2.774 0 01-2.756 2.756zm11.603 0c-1.56 0-2.704-1.248-2.704-2.756 0-1.508 1.196-2.756 2.704-2.756a2.774 2.774 0 012.756 2.756 2.774 2.774 0 01-2.756 2.756z" fill="#0B2E54"/></svg>