<svg width="292" height="64" viewBox="0 0 292 64" fill="none" xmlns="http://www.w3.org/2000/svg"><rect x="1" y="1" width="290" height="62" rx="3" fill="#FFBA1A" stroke="#FFCF61" stroke-width="2"/><path d="M46.731 41.525V23.38h14.42v4.508h-9.1V30.1h8.736v4.452h-8.736v2.464h9.436v4.508H46.731zm17.431 0V23.38h4.536l3.556 5.096c.588.868 1.54 2.352 1.54 2.352s.952-1.484 1.54-2.352l3.556-5.096h4.536v18.144h-5.32V32.34s-.924 1.484-1.428 2.184l-2.884 4.032-2.912-4.032c-.504-.7-1.4-2.128-1.4-2.128v9.128h-5.32zm22.9 0V23.38h8.008c5.572 0 8.428 3.22 8.428 7.168s-2.856 7.168-8.456 7.168h-2.66v3.808h-5.32zm5.32-8.316h2.8c1.568 0 2.688-1.176 2.688-2.66 0-1.484-1.12-2.66-2.66-2.66h-2.828v5.32zm14.162 8.316V23.38h5.32v18.144h-5.32zm8.955 0V23.38h14.42v4.508h-9.1V30.1h8.736v4.452h-8.736v2.464h9.436v4.508h-14.756zm16.591 0v-3.808l6.636-8.12a22.464 22.464 0 011.568-1.708h-7.812V23.38h14.812v3.864l-6.244 7.7c-.7.868-1.848 2.072-1.848 2.072h8.344v4.508H132.09zm17.474 0L156.9 23.38h5.488l7.336 18.144h-5.432l-.84-2.352h-7.616l-.84 2.352h-5.432zm7.7-6.44h4.76l-2.156-6.132c-.168-.448-.196-.616-.224-.728 0 0-.056.252-.224.728l-2.156 6.132zm20.245 6.44l7.336-18.144h5.488l7.336 18.144h-5.432l-.84-2.352h-7.616l-.84 2.352h-5.432zm7.7-6.44h4.76l-2.156-6.132c-.168-.448-.196-.616-.224-.728 0 0-.056.252-.224.728l-2.156 6.132zm22.828 6.776c-5.824 0-9.716-4.172-9.716-9.408 0-5.18 3.892-9.352 9.716-9.352s9.744 4.172 9.744 9.352c0 2.212-.7 4.228-1.96 5.824l1.176 1.176-2.408 2.436-1.344-1.344c-1.456.84-3.22 1.316-5.208 1.316zm0-4.816c.532 0 1.008-.084 1.456-.252l-1.344-1.372 2.436-2.408 1.316 1.344c.224-.56.336-1.204.336-1.904 0-2.632-1.736-4.536-4.2-4.536-2.296 0-4.172 1.904-4.172 4.536 0 2.688 1.736 4.592 4.172 4.592zm20.85 4.816c-4.592 0-8.092-2.548-8.092-7.532V23.38h5.32v10.64c0 2.184 1.26 3.024 2.772 3.024 1.512 0 2.772-.84 2.772-3.024V23.38h5.32v10.948c0 4.984-3.5 7.532-8.092 7.532zm11.664-.336V23.38h5.32v18.144h-5.32zm.112-19.04l2.94-5.012h4.9l-4.06 5.012h-3.78z" fill="#101B31"/></svg>