<svg width="530" height="46" viewBox="0 0 530 46" fill="none" xmlns="http://www.w3.org/2000/svg"><path d="M.24 37V8.384h9.632v3.304c2.632-3.08 5.768-3.864 8.624-3.864 7.224 0 10.024 4.256 10.024 12.656V37H18.328V21.768c0-3.248-1.232-4.424-3.192-4.424-3.136 0-4.704 2.632-4.704 6.16V37H.24zm42.62.56c-8.624 0-10.416-5.376-10.416-12.656V8.384h10.192v15.232c0 3.024 1.008 4.424 3.696 4.424 3.08 0 4.2-2.632 4.2-6.16V8.384h10.192V37h-9.632v-3.136c-1.568 2.016-5.264 3.696-8.232 3.696zM65.21 37V8.384h9.632v3.304c2.632-3.08 5.768-3.864 8.624-3.864 7.224 0 10.024 4.256 10.024 12.656V37H83.297V21.768c0-3.248-1.232-4.424-3.192-4.424-3.136 0-4.704 2.632-4.704 6.16V37H65.209zm47.38.56c-8.792 0-15.456-6.608-15.456-14.84 0-8.288 6.664-14.896 15.456-14.896 3.92 0 7.112 1.176 10.136 3.584l-5.88 7.056c-1.064-1.008-2.24-1.68-3.976-1.68-3.304 0-5.432 2.52-5.432 5.936 0 3.472 2.072 5.88 5.656 5.88 1.96 0 3.584-.84 4.816-2.072l5.096 7.504c-2.744 2.296-6.384 3.528-10.416 3.528zm24.043 0c-7.952 0-12.264-6.608-12.264-14.84 0-8.288 4.312-14.896 12.264-14.896 2.296 0 6.104.784 7.784 3.752V8.384h9.632V37h-9.632v-3.192c-1.568 2.912-5.488 3.752-7.784 3.752zm2.688-8.96c2.688 0 4.592-2.408 4.592-5.88 0-3.416-1.904-5.936-4.592-5.936-2.688 0-4.592 2.52-4.592 5.936 0 3.472 1.904 5.88 4.592 5.88zm31.6 8.4V.152h10.192V37H170.92zm29.552.56c-8.792 0-15.456-6.608-15.456-14.84 0-8.288 6.664-14.896 15.456-14.896s15.456 6.608 15.456 14.896c0 8.232-6.664 14.84-15.456 14.84zm0-8.96c3.024 0 5.152-2.408 5.152-5.88 0-3.416-2.128-5.936-5.152-5.936s-5.152 2.52-5.152 5.936c0 3.472 2.128 5.88 5.152 5.88zm46.703 8.96c-8.792 0-15.456-6.608-15.456-14.84 0-8.288 6.664-14.896 15.456-14.896 3.92 0 7.112 1.176 10.136 3.584l-5.88 7.056c-1.064-1.008-2.24-1.68-3.976-1.68-3.304 0-5.432 2.52-5.432 5.936 0 3.472 2.072 5.88 5.656 5.88 1.96 0 3.584-.84 4.816-2.072l5.096 7.504c-2.744 2.296-6.384 3.528-10.416 3.528zm27.234 0c-8.792 0-15.456-6.608-15.456-14.84 0-8.288 6.664-14.896 15.456-14.896s15.456 6.608 15.456 14.896c0 8.232-6.664 14.84-15.456 14.84zm0-8.96c3.024 0 5.152-2.408 5.152-5.88 0-3.416-2.128-5.936-5.152-5.936s-5.152 2.52-5.152 5.936c0 3.472 2.128 5.88 5.152 5.88zm19.394 8.4V8.384h9.632v3.136c2.127-2.408 5.432-3.696 8.624-3.696 4.592 0 7.056 1.848 8.4 4.424 2.464-3.584 6.272-4.424 9.128-4.424 9.24 0 10.024 7.448 10.024 13.216V37h-10.192V22.216c0-3.416-.952-4.984-3.192-4.984-3.025 0-4.424 2.744-4.424 6.272V37h-10.192V22.216c0-3.416-.952-4.984-3.192-4.984-3.024 0-4.424 2.744-4.424 6.272V37h-10.192zm49.984 8.232V8.384h9.632v3.192c2.296-3.08 5.488-3.752 7.784-3.752 7.952 0 12.264 6.608 12.264 14.84 0 8.288-4.592 14.896-12.6 14.896-2.296 0-5.152-.784-6.888-2.968v10.64h-10.192zM358.459 28.6c2.688 0 4.592-2.408 4.592-5.88 0-3.416-1.904-5.936-4.592-5.936-2.688 0-4.592 2.52-4.592 5.936 0 3.472 1.904 5.88 4.592 5.88zm30.61 8.96c-7.952 0-12.264-6.608-12.264-14.84 0-8.288 4.312-14.896 12.264-14.896 2.296 0 6.104.784 7.784 3.752V8.384h9.632V37h-9.632v-3.192c-1.568 2.912-5.488 3.752-7.784 3.752zm2.688-8.96c2.688 0 4.592-2.408 4.592-5.88 0-3.416-1.904-5.936-4.592-5.936-2.688 0-4.592 2.52-4.592 5.936 0 3.472 1.904 5.88 4.592 5.88zm19.186 8.4V8.384h9.912v5.096c.168-1.232 2.632-5.656 9.352-5.656v11.088c-7.392 0-9.072 3.08-9.072 8.456V37h-10.192zm35.159.56c-5.488 0-9.072-3.528-9.072-9.8V16.448h-4.2V8.384h4.2V3.232l10.191-2.52v7.672h6.329v8.064h-6.329v10.528c0 1.344.673 1.792 1.569 1.792.84 0 1.848-.392 2.576-.896l2.744 7.448c-2.464 1.736-5.488 2.24-8.008 2.24zm22.373 0c-7.952 0-12.264-6.608-12.264-14.84 0-8.288 4.312-14.896 12.264-14.896 2.296 0 6.104.784 7.784 3.752V8.384h9.632V37h-9.632v-3.192c-1.568 2.912-5.488 3.752-7.784 3.752zm2.688-8.96c2.688 0 4.592-2.408 4.592-5.88 0-3.416-1.904-5.936-4.592-5.936-2.688 0-4.592 2.52-4.592 5.936 0 3.472 1.904 5.88 4.592 5.88zm29.714 8.96c-6.552 0-10.192-1.96-11.872-3.416l3.248-7.168c2.24 1.512 4.312 2.408 8.68 2.408.112 0 2.8-.168 2.8-1.288 0-.896-1.68-1.064-3.36-1.456-6.216-1.512-10.808-4.032-10.808-9.296 0-6.272 5.712-9.52 11.76-9.52 5.544 0 8.848 1.232 11.592 2.688l-3.024 6.832c-3.304-1.288-6.328-1.68-8.232-1.68-1.008 0-1.792.336-1.792.896 0 1.064 2.408 1.456 5.264 2.24 4.032 1.176 8.904 3.136 8.904 8.904 0 7.672-7.784 9.856-13.16 9.856zm22.48 0c-3.192 0-5.544-2.408-5.544-5.488 0-3.08 2.352-5.488 5.544-5.488 3.248 0 5.656 2.408 5.656 5.488 0 3.08-2.408 5.488-5.656 5.488z" fill="#0B2E54"/></svg>