<svg width="476" height="40" viewBox="0 0 476 40" fill="none" xmlns="http://www.w3.org/2000/svg"><path d="M23.954 21.837H5.541c.267 1.576.976 2.832 2.13 3.76 1.153.932 2.628 1.396 4.42 1.396 2.142 0 3.983-.728 5.524-2.18l4.827 2.2c-1.203 1.66-2.644 2.884-4.325 3.68-1.68.796-3.674 1.192-5.981 1.192-3.584 0-6.5-1.096-8.754-3.292C1.129 26.397 0 23.649 0 20.345c0-3.304 1.125-6.196 3.37-8.432C5.615 9.677 8.432 8.56 11.823 8.56c3.596 0 6.52 1.12 8.774 3.352 2.253 2.236 3.382 5.188 3.382 8.86l-.02 1.06-.005.004zm-5.73-4.384c-.379-1.236-1.124-2.244-2.24-3.016-1.117-.776-2.406-1.164-3.881-1.164-1.599 0-3 .436-4.206 1.304-.758.544-1.458 1.5-2.105 2.876h12.432zM41.825 12.232l-3.547 3.445c-1.441-1.388-2.751-2.08-3.925-2.08-.643 0-1.15.132-1.512.396-.367.264-.544.595-.544.987 0 .3.115.576.346.825.23.252.8.596 1.71 1.027l2.1 1.02c2.213 1.06 3.733 2.14 4.556 3.24.824 1.1 1.24 2.392 1.24 3.872 0 1.972-.745 3.616-2.236 4.932-1.492 1.32-3.49 1.976-5.994 1.976-3.333 0-5.99-1.264-7.98-3.792l3.527-3.732a8.105 8.105 0 002.36 1.844c.902.468 1.706.704 2.406.704.758 0 1.364-.176 1.825-.528.461-.352.692-.76.692-1.224 0-.856-.832-1.692-2.496-2.508l-1.932-.935c-3.695-1.809-5.541-4.073-5.541-6.789 0-1.752.696-3.252 2.089-4.496 1.392-1.244 3.176-1.864 5.342-1.864 1.483 0 2.88.316 4.19.948a9.222 9.222 0 013.328 2.72l-.004.012zM47.822 25.504c.91 0 1.69.308 2.332.928.642.62.964 1.368.964 2.252 0 .884-.322 1.64-.964 2.264-.643.624-1.421.936-2.332.936-.91 0-1.684-.312-2.331-.936-.643-.624-.964-1.38-.964-2.264 0-.884.321-1.636.964-2.252.642-.62 1.42-.928 2.331-.928zM60.35 1.328h5.726l7.163 20.92 7.226-20.92h5.726l5.186 29.992h-5.68l-3.313-18.94-6.566 18.94h-5.186l-6.5-18.94-3.39 18.94h-5.74L60.35 1.328zM118.095 21.84H99.681c.264 1.58.976 2.832 2.13 3.765 1.153.927 2.628 1.395 4.424 1.395 2.142 0 3.983-.727 5.524-2.183l4.832 2.203c-1.203 1.657-2.645 2.889-4.329 3.684-1.681.796-3.675 1.192-5.986 1.192-3.584 0-6.5-1.096-8.758-3.291-2.253-2.197-3.382-4.945-3.382-8.245 0-3.3 1.12-6.195 3.37-8.427 2.25-2.232 5.067-3.352 8.453-3.352 3.596 0 6.521 1.12 8.774 3.352 2.253 2.24 3.382 5.188 3.382 8.855l-.02 1.06h-.009l.009-.008zm-5.735-4.384c-.379-1.235-1.128-2.243-2.241-3.015-1.116-.776-2.405-1.164-3.88-1.164-1.598 0-2.999.436-4.21 1.304-.758.544-1.462 1.504-2.105 2.875h12.436zM139.082.57h5.734v30.743h-5.734V28.97c-1.12 1.032-2.241 1.78-3.366 2.232-1.12.452-2.343.684-3.662.684-2.949 0-5.499-1.112-7.653-3.332-2.155-2.22-3.234-4.984-3.234-8.288 0-3.304 1.038-6.232 3.126-8.424 2.085-2.188 4.61-3.284 7.592-3.284 1.372 0 2.657.252 3.86.752 1.203.5 2.311 1.26 3.333 2.264V.57h.004zM133.051 13.7c-1.771 0-3.246.604-4.416 1.824-1.17 1.216-1.759 2.776-1.759 4.68s.598 3.492 1.788 4.728c1.191 1.236 2.657 1.852 4.404 1.852 1.746 0 3.295-.604 4.477-1.824 1.187-1.216 1.776-2.808 1.776-4.784s-.593-3.492-1.776-4.692c-1.186-1.192-2.681-1.792-4.498-1.792v.008h.004zM152.924 0c1.001 0 1.866.356 2.583 1.06.717.708 1.079 1.564 1.079 2.568s-.358 1.84-1.071 2.54c-.713.696-1.561 1.052-2.55 1.052a3.601 3.601 0 01-2.607-1.072c-.717-.716-1.08-1.58-1.08-2.6s.355-1.816 1.063-2.508c.713-.692 1.57-1.04 2.575-1.04h.008zm-2.867 9.132h5.734v22.18h-5.734V9.132zM183.19 13.624l-4.77 2.552c-.894-.912-1.784-1.54-2.657-1.896-.878-.356-1.903-.532-3.081-.532-2.143 0-3.881.616-5.203 1.86-1.323 1.24-1.986 2.832-1.986 4.772 0 1.94.635 3.424 1.916 4.624 1.273 1.192 2.949 1.792 5.025 1.792 2.563 0 4.561-.852 5.99-2.552l4.515 3.004c-2.451 3.096-5.907 4.644-10.377 4.644-4.02 0-7.163-1.156-9.437-3.468-2.274-2.312-3.415-5.016-3.415-8.116 0-2.148.556-4.124 1.656-5.932 1.108-1.804 2.653-3.228 4.63-4.264 1.977-1.032 4.197-1.548 6.644-1.548 2.27 0 4.305.44 6.109 1.316a11.433 11.433 0 014.429 3.744v.008l.012-.008zM203.111 9.13h5.734v22.18h-5.734v-2.343c-1.121 1.032-2.241 1.78-3.366 2.232-1.12.452-2.344.684-3.662.684-2.949 0-5.499-1.112-7.654-3.332-2.154-2.22-3.233-4.984-3.233-8.288 0-3.304 1.038-6.232 3.126-8.424 2.085-2.188 4.61-3.284 7.592-3.284 1.372 0 2.657.252 3.86.752 1.203.5 2.311 1.26 3.333 2.264V9.123v.008h.004zM197.08 13.7c-1.771 0-3.246.604-4.416 1.824-1.17 1.216-1.759 2.776-1.759 4.68s.598 3.492 1.788 4.728c1.191 1.236 2.657 1.852 4.404 1.852 1.746 0 3.295-.604 4.477-1.824 1.187-1.216 1.776-2.808 1.776-4.784s-.593-3.492-1.776-4.692c-1.186-1.192-2.681-1.792-4.498-1.792v.008h.004zM213.708 9.132h4.914v2.796c.528-1.1 1.24-1.94 2.122-2.508a5.238 5.238 0 012.896-.856c.741 0 1.52.188 2.331.568l-1.783 4.788c-.676-.324-1.224-.488-1.656-.488-.882 0-1.627.532-2.237 1.592-.61 1.06-.915 3.14-.915 6.24l.021 1.084v8.972h-5.689V9.132h-.008.004zM250.507 21.84h-18.413c.263 1.58.976 2.832 2.129 3.765 1.154.927 2.628 1.395 4.425 1.395 2.142 0 3.983-.727 5.524-2.183l4.832 2.203c-1.203 1.657-2.645 2.889-4.33 3.684-1.681.796-3.674 1.192-5.985 1.192-3.584 0-6.501-1.096-8.758-3.291-2.253-2.197-3.382-4.945-3.382-8.245 0-3.3 1.12-6.195 3.37-8.427 2.249-2.232 5.066-3.352 8.453-3.352 3.596 0 6.521 1.12 8.774 3.352 2.253 2.24 3.382 5.188 3.382 8.855l-.021 1.06h-.008l.008-.008zm-5.734-4.384c-.379-1.235-1.129-2.243-2.241-3.015-1.112-.772-2.406-1.164-3.88-1.164-1.599 0-2.999.436-4.21 1.304-.758.544-1.463 1.504-2.105 2.875h12.436zM256.416 25.508c.906 0 1.689.312 2.331.928.643.616.964 1.372.964 2.252 0 .88-.321 1.64-.964 2.264-.642.624-1.425.936-2.331.936-.907 0-1.689-.312-2.332-.936-.643-.624-.964-1.376-.964-2.264 0-.888.321-1.632.964-2.252.643-.616 1.425-.928 2.332-.928zM280.732 9.132h5.714v19c0 3.748-.774 6.508-2.332 8.276C282.03 38.8 278.887 40 274.685 40c-2.241 0-4.119-.268-5.652-.812-1.524-.544-2.817-1.34-3.86-2.396-1.05-1.052-1.824-2.336-2.331-3.84h6.319c.56.624 1.277 1.096 2.163 1.42.881.32 1.928.476 3.13.476 1.537 0 2.777-.232 3.716-.692.939-.464 1.598-1.06 1.986-1.792.383-.736.58-2 .58-3.792-1.009.98-2.067 1.684-3.167 2.112-1.108.428-2.357.644-3.761.644-3.069 0-5.656-1.072-7.769-3.224-2.11-2.148-3.168-4.864-3.168-8.156 0-3.516 1.12-6.348 3.357-8.484 2.027-1.928 4.453-2.892 7.262-2.892 1.319 0 2.559.232 3.729.704 1.169.472 2.343 1.24 3.513 2.312V9.132zm-5.94 4.632c-1.808 0-3.295.588-4.473 1.76-1.179 1.176-1.764 2.656-1.764 4.436 0 1.78.606 3.364 1.809 4.544 1.203 1.18 2.715 1.772 4.535 1.772 1.821 0 3.246-.576 4.396-1.732 1.153-1.156 1.734-2.672 1.734-4.544 0-1.872-.581-3.352-1.747-4.508-1.157-1.156-2.657-1.732-4.49-1.732v.004zM302.615 8.565c2.154 0 4.181.528 6.08 1.572 1.895 1.048 3.378 2.464 4.441 4.264a11.209 11.209 0 011.594 5.812c0 2.08-.536 4.048-1.607 5.872a11.37 11.37 0 01-4.379 4.268c-1.845 1.028-3.888 1.54-6.109 1.54-3.275 0-6.072-1.132-8.391-3.396-2.319-2.264-3.477-5.008-3.477-8.244 0-3.468 1.31-6.356 3.926-8.668 2.295-2.012 4.931-3.016 7.918-3.016l.008-.008-.004.004zm.094 5.244c-1.783 0-3.262.6-4.449 1.804-1.186 1.204-1.775 2.74-1.775 4.62s.585 3.492 1.759 4.692c1.17 1.2 2.653 1.792 4.449 1.792 1.796 0 3.287-.604 4.478-1.816 1.19-1.212 1.788-2.764 1.788-4.668 0-1.904-.585-3.452-1.759-4.636-1.17-1.188-2.666-1.788-4.491-1.788zM315.305 9.133h5.841l5.771 13.092 5.759-13.092h5.808l-9.721 22.18h-3.716L315.3 9.133h.009-.004zM339.401 36.688L353.345.284h4.123L343.5 36.688h-4.099zM363.45 1.145h17.103v5.6H369.32v5.476h7.299v5.516h-7.299v13.576h-5.87V1.141v.004zM383.569 9h4.943v2.809c.536-1.108 1.249-1.948 2.134-2.524a5.239 5.239 0 012.917-.86c.745 0 1.528.192 2.344.576l-1.796 4.82c-.676-.328-1.232-.492-1.669-.492-.885 0-1.635.532-2.249 1.6-.614 1.068-.919 3.16-.919 6.276l.021 1.088v9.024h-5.722V9h-.004zM415.716 9h5.767v22.317h-5.767v-2.36c-1.125 1.04-2.253 1.788-3.386 2.244-1.133.46-2.361.688-3.683.688-2.966 0-5.536-1.116-7.699-3.352-2.167-2.236-3.25-5.016-3.25-8.336 0-3.32 1.046-6.268 3.143-8.472 2.097-2.2 4.642-3.304 7.637-3.304 1.38 0 2.674.252 3.881.76 1.211.508 2.327 1.264 3.353 2.276V9h.004zm-6.06 4.597c-1.783 0-3.262.612-4.44 1.836-1.179 1.224-1.768 2.792-1.768 4.708 0 1.916.602 3.516 1.801 4.76 1.198 1.244 2.677 1.868 4.432 1.868 1.755 0 3.312-.612 4.507-1.836 1.194-1.224 1.787-2.828 1.787-4.808s-.597-3.512-1.787-4.716c-1.195-1.204-2.703-1.804-4.528-1.804l-.004-.008zM427.291 8.998h5.829v10.748c0 2.092.148 3.544.445 4.36.296.812.774 1.448 1.429 1.896.655.448 1.462.676 2.426.676.964 0 1.776-.224 2.447-.668.672-.444 1.17-1.096 1.492-1.96.238-.644.358-2.016.358-4.124V8.994h5.767v9.456c0 3.896-.317 6.564-.952 8-.774 1.752-1.915 3.092-3.423 4.032-1.507.936-3.423 1.404-5.746 1.404-2.521 0-4.56-.548-6.113-1.64-1.558-1.092-2.649-2.62-3.284-4.572-.449-1.352-.675-3.816-.675-7.384V8.998zM470.233.383H476v30.928h-5.767v-2.36c-1.125 1.04-2.253 1.788-3.386 2.244-1.133.46-2.361.688-3.683.688-2.966 0-5.536-1.116-7.699-3.352-2.167-2.236-3.25-5.016-3.25-8.336 0-3.32 1.046-6.268 3.143-8.472 2.097-2.2 4.642-3.304 7.637-3.304 1.38 0 2.674.252 3.881.76 1.211.508 2.327 1.264 3.353 2.276V.38l.004.004zm-6.06 13.208c-1.783 0-3.262.612-4.44 1.836-1.179 1.224-1.768 2.792-1.768 4.708 0 1.916.602 3.516 1.8 4.76 1.199 1.244 2.678 1.868 4.433 1.868s3.312-.612 4.507-1.836c1.194-1.224 1.787-2.828 1.787-4.808s-.597-3.512-1.787-4.716c-1.195-1.204-2.703-1.804-4.528-1.804l-.004-.008z" fill="#fff"/></svg>