<svg width="253" height="139" viewBox="0 0 253 139" fill="none" xmlns="http://www.w3.org/2000/svg"><path d="M34.317 17.555h3.25c3.6 0 5.4-1.566 5.4-4.7 0-3.133-1.8-4.7-5.4-4.7h-3.25v9.4zm0 20.4h-9.8V.255h15.6c4.234 0 7.467 1.1 9.7 3.3 2.267 2.2 3.4 5.3 3.4 9.3 0 4-1.133 7.1-3.4 9.3-2.233 2.2-5.466 3.3-9.7 3.3h-5.8v12.5zm23.237-25.65h9.05v4.2c.967-1.533 2.15-2.7 3.55-3.5 1.4-.833 3.033-1.25 4.9-1.25h.75c.3 0 .633.034 1 .1v8.65c-1.2-.6-2.5-.9-3.9-.9-2.1 0-3.683.633-4.75 1.9-1.033 1.233-1.55 3.05-1.55 5.45v11h-9.05v-25.65zm32.036 12.7c0 .867.15 1.667.45 2.4.334.7.75 1.317 1.25 1.85.534.534 1.15.95 1.85 1.25.734.3 1.5.45 2.3.45.8 0 1.55-.15 2.25-.45.734-.3 1.35-.716 1.85-1.25.534-.533.95-1.15 1.25-1.85.334-.733.5-1.517.5-2.35 0-.8-.166-1.55-.5-2.25a5.707 5.707 0 00-1.25-1.9 5.187 5.187 0 00-1.85-1.25c-.7-.3-1.45-.45-2.25-.45s-1.566.15-2.3.45c-.7.3-1.316.717-1.85 1.25-.5.534-.916 1.15-1.25 1.85-.3.7-.45 1.45-.45 2.25zm-9.55-.1c0-1.9.384-3.667 1.15-5.3a12.745 12.745 0 013.2-4.3c1.367-1.233 2.984-2.2 4.85-2.9 1.9-.7 3.967-1.05 6.2-1.05 2.2 0 4.234.35 6.1 1.05 1.9.667 3.534 1.617 4.9 2.85 1.4 1.2 2.484 2.65 3.25 4.35.767 1.667 1.15 3.517 1.15 5.55 0 2.034-.4 3.9-1.2 5.6a13.259 13.259 0 01-3.2 4.35c-1.366 1.2-3.016 2.134-4.95 2.8-1.9.667-3.966 1-6.2 1-2.2 0-4.233-.333-6.1-1-1.866-.666-3.483-1.617-4.85-2.85a13.464 13.464 0 01-3.15-4.4c-.766-1.733-1.15-3.65-1.15-5.75zm46.257-5.05v18.1h-9.05v-18.1h-3v-7.55h3v-7.7h9.05v7.7h5.15v7.55h-5.15zm27.79 1.55c-.3-1.267-.916-2.283-1.85-3.05-.933-.767-2.066-1.15-3.4-1.15-1.4 0-2.55.367-3.45 1.1-.866.733-1.416 1.767-1.65 3.1h10.35zm-10.6 5.25c0 3.9 1.834 5.85 5.5 5.85 1.967 0 3.45-.8 4.45-2.4h8.75c-1.766 5.867-6.183 8.8-13.25 8.8-2.166 0-4.15-.316-5.95-.95-1.8-.666-3.35-1.6-4.65-2.8a12.54 12.54 0 01-2.95-4.3c-.7-1.666-1.05-3.533-1.05-5.6 0-2.133.334-4.05 1-5.75.667-1.733 1.617-3.2 2.85-4.4 1.234-1.2 2.717-2.117 4.45-2.75 1.767-.667 3.75-1 5.95-1 2.167 0 4.117.333 5.85 1 1.734.633 3.2 1.567 4.4 2.8 1.2 1.234 2.117 2.75 2.75 4.55.634 1.767.95 3.767.95 6v.95h-19.05zm32.623-1.65c0 .834.15 1.617.45 2.35.3.7.7 1.317 1.2 1.85.534.534 1.15.95 1.85 1.25.734.3 1.517.45 2.35.45.8 0 1.55-.15 2.25-.45.734-.3 1.35-.716 1.85-1.25a5.84 5.84 0 001.25-1.85c.334-.733.5-1.5.5-2.3 0-.833-.166-1.6-.5-2.3a5.84 5.84 0 00-1.25-1.85 5.702 5.702 0 00-1.9-1.25c-.7-.3-1.433-.45-2.2-.45-.8 0-1.55.167-2.25.5-.7.3-1.316.717-1.85 1.25-.533.5-.966 1.1-1.3 1.8-.3.7-.45 1.45-.45 2.25zm20.3-12.7v23.9c0 1.434-.083 2.717-.25 3.85-.166 1.133-.4 2.133-.7 3-.4 1.1-1.033 2.117-1.9 3.05-.833.967-1.85 1.8-3.05 2.5-1.2.7-2.566 1.25-4.1 1.65-1.5.4-3.133.6-4.9.6-2 0-3.833-.25-5.5-.75-1.666-.5-3.133-1.2-4.4-2.1a11.723 11.723 0 01-3.05-3.1 10.07 10.07 0 01-1.6-3.85h10.2c.634 1.7 2.067 2.55 4.3 2.55 1.9 0 3.35-.533 4.35-1.6 1.034-1.067 1.55-2.55 1.55-4.45v-2.45a15.783 15.783 0 01-1.95 1.6c-.6.4-1.216.733-1.85 1-.633.267-1.3.45-2 .55-.7.133-1.466.2-2.3.2-1.833 0-3.516-.316-5.05-.95a12.162 12.162 0 01-4-2.65c-1.1-1.133-1.966-2.483-2.6-4.05-.6-1.6-.9-3.366-.9-5.3 0-1.966.334-3.783 1-5.45.667-1.7 1.567-3.166 2.7-4.4a12.4 12.4 0 014.1-2.95c1.6-.733 3.334-1.1 5.2-1.1 3.034 0 5.584 1.133 7.65 3.4v-2.7h9.05zm25.5 9.1c-.3-1.267-.917-2.283-1.85-3.05-.934-.767-2.067-1.15-3.4-1.15-1.4 0-2.55.367-3.45 1.1-.867.733-1.417 1.767-1.65 3.1h10.35zm-10.6 5.25c0 3.9 1.833 5.85 5.5 5.85 1.966 0 3.45-.8 4.45-2.4h8.75c-1.767 5.867-6.184 8.8-13.25 8.8-2.167 0-4.15-.316-5.95-.95-1.8-.666-3.35-1.6-4.65-2.8a12.526 12.526 0 01-2.95-4.3c-.7-1.666-1.05-3.533-1.05-5.6 0-2.133.333-4.05 1-5.75.666-1.733 1.616-3.2 2.85-4.4 1.233-1.2 2.716-2.117 4.45-2.75 1.766-.667 3.75-1 5.95-1 2.166 0 4.116.333 5.85 1 1.733.633 3.2 1.567 4.4 2.8 1.2 1.234 2.116 2.75 2.75 4.55.633 1.767.95 3.767.95 6v.95h-19.05zM13.922 73.033v14.922H9.527V73.033H7.652v-4.101h1.875v-6.973h4.395v6.973h3.418v4.101h-3.418zm10.8-4.101V79.85c0 3.15 1.244 4.726 3.731 4.726s3.73-1.575 3.73-4.726V68.932h4.395v11.015c0 1.524-.189 2.839-.566 3.946-.365.99-.996 1.881-1.895 2.675-1.484 1.29-3.372 1.934-5.664 1.934-2.279 0-4.16-.644-5.644-1.933-.912-.795-1.556-1.687-1.934-2.676-.365-.886-.547-2.2-.547-3.946V68.932h4.395zm29.747 0h4.414v1.758c1.536-1.524 3.268-2.286 5.195-2.286 2.214 0 3.939.697 5.176 2.09 1.068 1.185 1.602 3.119 1.602 5.801v11.66H66.44V77.33c0-1.875-.26-3.17-.78-3.886-.509-.73-1.433-1.094-2.774-1.094-1.459 0-2.494.482-3.106 1.445-.599.95-.898 2.61-.898 4.98v9.18h-4.414V68.932zm26.347 0V79.85c0 3.15 1.244 4.726 3.73 4.726 2.488 0 3.731-1.575 3.731-4.726V68.932h4.395v11.015c0 1.524-.189 2.839-.566 3.946-.365.99-.997 1.881-1.895 2.675-1.484 1.29-3.373 1.934-5.664 1.934-2.279 0-4.16-.644-5.645-1.933-.911-.795-1.556-1.687-1.933-2.676-.365-.886-.547-2.2-.547-3.946V68.932h4.394zm10.625-9.375l-7.109 6.445-2.402-1.484 5.37-7.11 4.141 2.149zm6.778 9.375h4.394v1.758c.847-.886 1.569-1.485 2.168-1.797.638-.326 1.439-.489 2.403-.489 2.148 0 3.847.938 5.097 2.813 1.38-1.875 3.249-2.813 5.606-2.813 4.284 0 6.425 2.598 6.425 7.793v11.758h-4.414V77.39c0-1.823-.221-3.112-.664-3.867-.455-.769-1.204-1.153-2.246-1.153-1.211 0-2.096.456-2.656 1.368-.547.91-.82 2.376-.82 4.394v9.824h-4.414V77.447c0-3.385-.977-5.078-2.93-5.078-1.237 0-2.142.463-2.715 1.387-.56.924-.84 2.383-.84 4.375v9.824h-4.394V68.932zm48.965 10.547h-13.633c.117 1.562.625 2.806 1.523 3.73.899.912 2.051 1.367 3.457 1.367 1.094 0 1.999-.26 2.715-.781.703-.52 1.504-1.484 2.402-2.89l3.711 2.07c-.573.976-1.178 1.816-1.816 2.52a10.064 10.064 0 01-2.051 1.718 8.39 8.39 0 01-2.363.977c-.846.208-1.764.312-2.754.312-2.839 0-5.117-.911-6.836-2.734-1.719-1.836-2.578-4.271-2.578-7.305 0-3.008.833-5.443 2.5-7.305 1.68-1.836 3.906-2.754 6.68-2.754 2.799 0 5.013.892 6.64 2.676 1.615 1.771 2.422 4.225 2.422 7.364l-.019 1.035zm-4.512-3.594c-.612-2.344-2.09-3.516-4.434-3.516-.534 0-1.035.085-1.504.254a4.16 4.16 0 00-1.289.703c-.377.3-.703.664-.976 1.094-.274.43-.482.918-.625 1.465h8.828zm9.336-6.953h4.394v1.699c.808-.846 1.524-1.426 2.149-1.738.638-.326 1.393-.489 2.265-.489 1.159 0 2.37.378 3.633 1.133l-2.011 4.024c-.834-.6-1.648-.899-2.442-.899-2.396 0-3.594 1.81-3.594 5.43v9.863h-4.394V68.932zm13.711 9.375c0-2.748.983-5.085 2.949-7.012 1.966-1.927 4.362-2.89 7.187-2.89 2.839 0 5.248.97 7.227 2.91 1.953 1.94 2.93 4.323 2.93 7.148 0 2.852-.983 5.24-2.95 7.168-1.979 1.914-4.407 2.871-7.285 2.871-2.851 0-5.241-.977-7.168-2.93-1.927-1.927-2.89-4.349-2.89-7.265zm4.492.078c0 1.9.508 3.405 1.523 4.512 1.042 1.12 2.416 1.68 4.121 1.68 1.719 0 3.093-.554 4.122-1.66 1.028-1.108 1.543-2.585 1.543-4.434 0-1.85-.515-3.327-1.543-4.434-1.042-1.12-2.416-1.68-4.122-1.68-1.679 0-3.04.56-4.082 1.68-1.041 1.12-1.562 2.565-1.562 4.336zm46.836-23.418h4.414v32.988h-4.414v-1.992c-1.732 1.693-3.692 2.54-5.879 2.54-2.604 0-4.766-.951-6.484-2.853-1.706-1.94-2.559-4.362-2.559-7.265 0-2.839.853-5.208 2.559-7.11 1.692-1.913 3.821-2.87 6.386-2.87 2.227 0 4.219.91 5.977 2.734V54.967zm-10.43 23.418c0 1.823.488 3.307 1.465 4.453 1.003 1.159 2.266 1.738 3.789 1.738 1.628 0 2.943-.56 3.945-1.68 1.003-1.158 1.504-2.63 1.504-4.413 0-1.784-.501-3.256-1.504-4.415-1.002-1.132-2.304-1.699-3.906-1.699-1.51 0-2.773.573-3.789 1.719-1.003 1.159-1.504 2.591-1.504 4.297zm37.715 1.094h-13.633c.117 1.562.625 2.806 1.524 3.73.898.912 2.05 1.367 3.457 1.367 1.093 0 1.998-.26 2.715-.781.703-.52 1.503-1.484 2.402-2.89l3.711 2.07c-.573.976-1.179 1.816-1.817 2.52a10.059 10.059 0 01-2.05 1.718 8.397 8.397 0 01-2.364.977c-.846.208-1.764.312-2.754.312-2.838 0-5.117-.911-6.835-2.734-1.719-1.836-2.579-4.271-2.579-7.305 0-3.008.834-5.443 2.5-7.305 1.68-1.836 3.907-2.754 6.68-2.754 2.8 0 5.013.892 6.641 2.676 1.614 1.771 2.422 4.225 2.422 7.364l-.02 1.035zm-4.512-3.594c-.612-2.344-2.09-3.516-4.433-3.516-.534 0-1.035.085-1.504.254-.469.156-.899.39-1.289.703-.378.3-.703.664-.977 1.094-.273.43-.482.918-.625 1.465h8.828zM.35 137.955l5.76-33.93h8.73l6.795 18.09 6.75-18.09h8.73l5.76 33.93H34.1l-2.925-19.53-8.01 19.53h-3.51l-7.605-19.53-2.925 19.53H.35zM63.34 123.06c-.27-1.14-.825-2.055-1.665-2.745-.84-.69-1.86-1.035-3.06-1.035-1.26 0-2.295.33-3.105.99-.78.66-1.275 1.59-1.485 2.79h9.315zm-9.54 4.725c0 3.51 1.65 5.265 4.95 5.265 1.77 0 3.105-.72 4.005-2.16h7.875c-1.59 5.28-5.565 7.92-11.925 7.92-1.95 0-3.735-.285-5.355-.855-1.62-.6-3.015-1.44-4.185-2.52a11.278 11.278 0 01-2.655-3.87c-.63-1.5-.945-3.18-.945-5.04 0-1.92.3-3.645.9-5.175.6-1.56 1.455-2.88 2.565-3.96 1.11-1.08 2.445-1.905 4.005-2.475 1.59-.6 3.375-.9 5.355-.9 1.95 0 3.705.3 5.265.9 1.56.57 2.88 1.41 3.96 2.52s1.905 2.475 2.475 4.095c.57 1.59.855 3.39.855 5.4v.855H53.801zm29.361-1.44c0 .75.135 1.455.405 2.115.27.63.63 1.185 1.08 1.665.48.48 1.035.855 1.665 1.125.66.27 1.365.405 2.115.405.72 0 1.395-.135 2.025-.405a4.669 4.669 0 001.665-1.125c.48-.48.855-1.035 1.125-1.665.3-.63.45-1.305.45-2.025s-.15-1.395-.45-2.025a5.14 5.14 0 00-1.125-1.71 4.669 4.669 0 00-1.665-1.125 5.086 5.086 0 00-2.025-.405c-.72 0-1.41.135-2.07.405-.63.27-1.185.645-1.665 1.125a6.5 6.5 0 00-1.125 1.665 4.77 4.77 0 00-.405 1.98zm10.26-25.74h8.19v37.35h-8.19v-2.565c-1.74 2.19-4.095 3.285-7.065 3.285-1.68 0-3.225-.315-4.635-.945-1.41-.63-2.64-1.5-3.69-2.61-1.05-1.11-1.875-2.415-2.475-3.915-.57-1.5-.855-3.12-.855-4.86 0-1.65.27-3.21.81-4.68.57-1.5 1.365-2.805 2.385-3.915a10.968 10.968 0 013.645-2.61c1.44-.66 3.015-.99 4.725-.99 2.88 0 5.265 1.005 7.155 3.015v-16.56zM115.3 114.87v23.085h-8.145V114.87h8.145zm-8.685-8.865c0-.63.12-1.215.36-1.755a4.6 4.6 0 01.99-1.485c.42-.42.9-.75 1.44-.99.57-.24 1.17-.36 1.8-.36.63 0 1.215.12 1.755.36a4.6 4.6 0 011.485.99c.42.42.75.915.99 1.485.24.54.36 1.125.36 1.755 0 .63-.12 1.23-.36 1.8-.24.54-.57 1.02-.99 1.44a4.6 4.6 0 01-1.485.99c-.54.24-1.125.36-1.755.36-.63 0-1.23-.12-1.8-.36-.54-.24-1.02-.57-1.44-.99-.42-.42-.75-.9-.99-1.44-.24-.57-.36-1.17-.36-1.8zm31.666 16.335c-1.41-.96-2.835-1.44-4.275-1.44-.78 0-1.515.135-2.205.405-.66.27-1.245.66-1.755 1.17a5.25 5.25 0 00-1.215 1.755c-.27.66-.405 1.41-.405 2.25 0 .81.135 1.56.405 2.25.3.66.69 1.245 1.17 1.755.51.48 1.11.855 1.8 1.125s1.425.405 2.205.405c1.53 0 2.955-.525 4.275-1.575v6.93c-2.01.87-3.915 1.305-5.715 1.305a13.68 13.68 0 01-4.815-.855c-1.5-.57-2.835-1.38-4.005-2.43a12.57 12.57 0 01-2.745-3.825c-.69-1.5-1.035-3.165-1.035-4.995s.33-3.495.99-4.995c.66-1.53 1.56-2.835 2.7-3.915 1.14-1.11 2.49-1.965 4.05-2.565 1.59-.63 3.285-.945 5.085-.945 1.98 0 3.81.42 5.49 1.26v6.93zm12.205 4.005c0 .75.135 1.455.405 2.115.27.63.63 1.185 1.08 1.665.48.48 1.035.855 1.665 1.125.66.27 1.365.405 2.115.405.72 0 1.395-.135 2.025-.405a4.669 4.669 0 001.665-1.125c.48-.48.855-1.035 1.125-1.665.3-.63.45-1.305.45-2.025s-.15-1.395-.45-2.025a5.14 5.14 0 00-1.125-1.71 4.669 4.669 0 00-1.665-1.125 5.086 5.086 0 00-2.025-.405c-.75 0-1.455.135-2.115.405-.63.27-1.185.645-1.665 1.125-.45.48-.81 1.035-1.08 1.665a4.77 4.77 0 00-.405 1.98zm10.26-11.475h8.19v23.085h-8.19v-2.565c-1.74 2.19-4.095 3.285-7.065 3.285-1.68 0-3.225-.3-4.635-.9-1.41-.63-2.64-1.5-3.69-2.61-1.05-1.11-1.875-2.415-2.475-3.915-.57-1.5-.855-3.135-.855-4.905 0-1.65.285-3.21.855-4.68.57-1.5 1.365-2.805 2.385-3.915a10.968 10.968 0 013.645-2.61c1.41-.66 2.97-.99 4.68-.99 2.88 0 5.265 1.005 7.155 3.015v-2.295zm13.733 0h8.145v3.78c.87-1.38 1.935-2.43 3.195-3.15 1.26-.75 2.73-1.125 4.41-1.125h.675c.27 0 .57.03.9.09v7.785a7.739 7.739 0 00-3.51-.81c-1.89 0-3.315.57-4.275 1.71-.93 1.11-1.395 2.745-1.395 4.905v9.9h-8.145V114.87zm38.101 8.19c-.27-1.14-.825-2.055-1.665-2.745-.84-.69-1.86-1.035-3.06-1.035-1.26 0-2.295.33-3.105.99-.78.66-1.275 1.59-1.485 2.79h9.315zm-9.54 4.725c0 3.51 1.65 5.265 4.95 5.265 1.77 0 3.105-.72 4.005-2.16h7.875c-1.59 5.28-5.565 7.92-11.925 7.92-1.95 0-3.735-.285-5.355-.855-1.62-.6-3.015-1.44-4.185-2.52a11.278 11.278 0 01-2.655-3.87c-.63-1.5-.945-3.18-.945-5.04 0-1.92.3-3.645.9-5.175.6-1.56 1.455-2.88 2.565-3.96 1.11-1.08 2.445-1.905 4.005-2.475 1.59-.6 3.375-.9 5.355-.9 1.95 0 3.705.3 5.265.9 1.56.57 2.88 1.41 3.96 2.52s1.905 2.475 2.475 4.095c.57 1.59.855 3.39.855 5.4v.855H203.04zm20.706 7.098c0-.512.096-.992.288-1.44a3.671 3.671 0 011.984-2.016c.47-.192.96-.288 1.472-.288s.992.096 1.44.288c.47.192.875.459 1.216.8.342.342.608.747.8 1.216.192.448.288.928.288 1.44a3.85 3.85 0 01-.288 1.472 3.73 3.73 0 01-.8 1.184 3.635 3.635 0 01-1.216.8 3.617 3.617 0 01-1.44.288 3.853 3.853 0 01-1.472-.288 3.746 3.746 0 01-1.984-1.984 3.85 3.85 0 01-.288-1.472zm10.875 0c0-.512.096-.992.288-1.44a3.671 3.671 0 011.984-2.016c.47-.192.96-.288 1.472-.288s.992.096 1.44.288c.47.192.875.459 1.216.8.342.342.608.747.8 1.216.192.448.288.928.288 1.44a3.85 3.85 0 01-.288 1.472 3.73 3.73 0 01-.8 1.184 3.635 3.635 0 01-1.216.8 3.617 3.617 0 01-1.44.288 3.853 3.853 0 01-1.472-.288 3.746 3.746 0 01-1.984-1.984 3.85 3.85 0 01-.288-1.472zm10.875 0c0-.512.096-.992.288-1.44a3.671 3.671 0 011.984-2.016c.47-.192.96-.288 1.472-.288s.992.096 1.44.288c.47.192.875.459 1.216.8.342.342.608.747.8 1.216.192.448.288.928.288 1.44a3.85 3.85 0 01-.288 1.472 3.73 3.73 0 01-.8 1.184 3.635 3.635 0 01-1.216.8 3.617 3.617 0 01-1.44.288 3.853 3.853 0 01-1.472-.288 3.746 3.746 0 01-1.984-1.984 3.85 3.85 0 01-.288-1.472z" fill="#66124B"/></svg>