<svg width="499" height="91" viewBox="0 0 499 91" fill="none" xmlns="http://www.w3.org/2000/svg"><path d="M19.36 30.568l3.608-.396-1.584-4.576H10.472l-1.54 4.576 3.476.396V34H.132v-3.432l1.936-.484c.528-.132.924-.308 1.1-.836l9.636-27.104h7.788l9.592 27.192c.176.528.528.616 1.056.748l2.024.484V34H19.36v-3.432zM15.884 8.876l-4.048 11.968h8.228L16.148 8.876h-.264zm19.043 30.932l1.76-.264c.616-.088.792-.264.792-.924V16.4c0-.484-.088-.748-.572-.924l-2.332-.836.484-3.564h7.744l.396 2.244.22.088c2.112-1.716 4.972-2.772 7.48-2.772 4.928 0 8.448 3.08 8.448 11.264 0 5.28-1.804 12.628-9.064 12.628-2.288 0-4.356-.748-6.204-2.2v6.248c0 .704.044.836.704.88l4.488.396v3.476H34.927v-3.52zm9.152-12.1c.968.836 2.508 1.672 4.136 1.672 2.948 0 4.18-2.816 4.18-7.128 0-4.532-1.54-6.38-3.74-6.38-1.848 0-3.608.924-4.576 1.584v10.252zm18.402 2.728l1.98-.264c.616-.088.704-.22.704-.88V16.4c0-.484-.132-.792-.572-.924l-2.376-.836.484-3.564h7.744l.528 3.52h.264c1.452-2.244 3.388-3.96 6.204-3.96 1.012 0 3.036.176 3.828.396v8.008l-5.28-.176-.44-2.332c-.088-.396-.22-.484-.572-.484-1.144 0-2.508.968-3.168 1.54v11.66c0 .704.044.836.704.88l4.356.352V34H62.481v-3.564zm41.482 1.848c-2.728 1.32-5.72 2.244-9.02 2.244-8.492 0-11.396-5.28-11.396-12.144 0-7.964 4.884-11.748 10.912-11.748 5.808 0 9.68 3.036 9.68 10.648 0 .528-.044 2.068-.088 2.948H90.587c.22 3.124 1.584 5.192 5.192 5.192 1.716 0 3.564-.396 6.556-1.496l1.628 4.356zm-6.336-12.232c-.044-3.696-1.496-4.664-3.3-4.664-1.892 0-3.432 1.056-3.696 4.664h6.996zm25.669-.264c0-2.112-.132-3.872-2.332-3.872-1.628 0-3.652.924-4.576 1.628v11.792c0 .704.044.792.704.88l2.112.308V34H107.06v-3.52l1.98-.264c.616-.088.704-.22.704-.88V16.4c0-.484-.132-.792-.572-.924l-2.376-.836.528-3.564h7.7l.352 2.288.176.088c2.2-1.628 4.752-2.816 7.744-2.816 4.796 0 6.644 2.64 6.644 7.48v11.22c0 .704.044.792.704.88l2.2.308V34h-9.548V19.788zm28.117 11.748l-.308-.044c-1.848 1.804-4.004 3.036-7.216 3.036-5.192 0-8.536-3.3-8.536-11.704 0-8.844 4.444-12.188 9.328-12.188 2.552 0 4.532.88 6.204 2.112V6.06c0-.44-.176-.748-.572-.88l-2.42-.836.484-3.564h8.844v28.6c0 .66.044.748.704.836l2.112.308V34h-8.184l-.44-2.464zm-.792-14.476c-1.1-.748-2.508-1.32-3.784-1.32-3.256 0-4.532 3.036-4.532 6.952 0 4.268 1.232 6.644 4.004 6.644 1.496 0 3.124-.88 4.312-1.892V17.06zm31.791 15.224c-2.728 1.32-5.72 2.244-9.02 2.244-8.492 0-11.396-5.28-11.396-12.144 0-7.964 4.884-11.748 10.912-11.748 5.808 0 9.68 3.036 9.68 10.648 0 .528-.044 2.068-.088 2.948h-13.464c.22 3.124 1.584 5.192 5.192 5.192 1.716 0 3.564-.396 6.556-1.496l1.628 4.356zm-6.336-12.232c-.044-3.696-1.496-4.664-3.3-4.664-1.892 0-3.432 1.056-3.696 4.664h6.996zm32.056-4.356c-.088-.396-.132-.528-.44-.616-.572-.176-1.628-.352-2.816-.352-2.2 0-3.432.836-3.432 2.244 0 1.804 2.42 2.2 5.104 2.816 3.476.792 7.392 2.024 7.392 7.172 0 5.368-4.356 7.568-9.944 7.568-4.004 0-7.92-1.056-8.712-1.584v-6.38l4.708.352.44 2.508c.088.396.132.528.528.66.528.176 1.716.44 3.388.44 2.332 0 3.652-.66 3.652-2.288 0-1.76-1.76-2.288-4.004-2.684-3.696-.66-8.536-1.452-8.536-7.216 0-5.456 4.664-7.7 9.724-7.7 3.476 0 6.864.792 8.096 1.276v6.38l-4.708-.308-.44-2.288zm19.945 18.832c-8.052 0-11.308-4.928-11.308-11.836 0-7.304 3.828-12.056 11.88-12.056 8.14 0 11.308 4.84 11.308 11.572 0 7.48-3.784 12.32-11.88 12.32zm.308-4.62c2.86 0 4.62-1.98 4.62-7.48 0-5.192-1.584-7.04-4.444-7.04-2.904 0-4.84 1.804-4.84 7.084 0 5.324 1.716 7.436 4.664 7.436zM243.886 34c.308-1.98.66-4.268.66-6.424V6.104c0-.484-.132-.792-.572-.924l-2.42-.836.484-3.564h9.064v12.188l.176.044c1.892-1.54 3.96-2.376 6.644-2.376 4.752 0 8.492 3.08 8.492 11.264 0 9.064-3.828 12.628-9.24 12.628-2.904 0-5.104-1.232-6.468-2.772l-.22.044-.308 2.2h-6.292zm7.26-6.336c1.012.924 2.508 1.716 4.048 1.716 2.904 0 4.268-2.728 4.268-7.128 0-3.432-1.1-6.424-4.048-6.424-1.584 0-3.212.836-4.268 1.54v10.296zm18.408 2.772l1.98-.264c.616-.088.704-.22.704-.88V16.4c0-.484-.132-.792-.572-.924l-2.376-.836.484-3.564h7.744l.528 3.52h.264c1.452-2.244 3.388-3.96 6.204-3.96 1.012 0 3.036.176 3.828.396v8.008l-5.28-.176-.44-2.332c-.088-.396-.22-.484-.572-.484-1.144 0-2.508.968-3.168 1.54v11.66c0 .704.044.836.704.88l4.356.352V34h-14.388v-3.564zm41.482 1.848c-2.728 1.32-5.72 2.244-9.02 2.244-8.492 0-11.396-5.28-11.396-12.144 0-7.964 4.884-11.748 10.912-11.748 5.808 0 9.68 3.036 9.68 10.648 0 .528-.044 2.068-.088 2.948H297.66c.22 3.124 1.584 5.192 5.192 5.192 1.716 0 3.564-.396 6.556-1.496l1.628 4.356zM304.7 20.052c-.044-3.696-1.496-4.664-3.3-4.664-1.892 0-3.432 1.056-3.696 4.664h6.996zm18.548 10.472l2.2-.308c.616-.088.704-.22.704-.88V6.104c0-.484-.132-.792-.572-.924l-2.42-.836.484-3.564h9.152v28.556c0 .704.044.792.704.88l2.156.308V34h-12.408v-3.476zm28.926 1.1l-.22-.044c-1.672 1.628-3.872 2.948-7.392 2.948-5.544 0-6.424-3.784-6.424-6.512 0-4.4 2.684-6.38 8.228-6.776l5.06-.352v-2.42c0-2.068-.22-3.476-2.948-3.476-2.112 0-3.212.308-3.212 2.948l-6.204-.528c0-5.94 5.412-6.776 9.46-6.776 6.688 0 9.372 1.804 9.372 7.964v10.692c0 .704.044.792.704.88l2.112.352V34h-8.096l-.44-2.376zm-3.74-6.864c-2.596.176-3.52.836-3.52 2.596 0 1.76 1.056 2.42 2.508 2.42 1.496 0 2.992-.836 4.004-1.584V24.54l-2.992.22zm27.358-9.064c-.088-.396-.132-.528-.44-.616-.572-.176-1.628-.352-2.816-.352-2.2 0-3.432.836-3.432 2.244 0 1.804 2.42 2.2 5.104 2.816 3.476.792 7.392 2.024 7.392 7.172 0 5.368-4.356 7.568-9.944 7.568-4.004 0-7.92-1.056-8.712-1.584v-6.38l4.708.352.44 2.508c.088.396.132.528.528.66.528.176 1.716.44 3.388.44 2.332 0 3.652-.66 3.652-2.288 0-1.76-1.76-2.288-4.004-2.684-3.696-.66-8.536-1.452-8.536-7.216 0-5.456 4.664-7.7 9.724-7.7 3.476 0 6.864.792 8.096 1.276v6.38l-4.708-.308-.44-2.288z" fill="#2B3D51"/><path d="M20.622 88.362c-2.604 1.26-5.46 2.142-8.61 2.142-8.106 0-10.878-5.04-10.878-11.592 0-7.602 4.662-11.214 10.416-11.214 5.544 0 9.24 2.898 9.24 10.164 0 .504-.042 1.974-.084 2.814H7.854c.21 2.982 1.512 4.956 4.956 4.956 1.638 0 3.402-.378 6.258-1.428l1.554 4.158zm-6.048-11.676c-.042-3.528-1.428-4.452-3.15-4.452-1.806 0-3.276 1.008-3.528 4.452h6.678zm21.442-4.158c-.084-.378-.126-.504-.42-.588-.546-.168-1.554-.336-2.688-.336-2.1 0-3.276.798-3.276 2.142 0 1.722 2.31 2.1 4.872 2.688 3.318.756 7.056 1.932 7.056 6.846 0 5.124-4.158 7.224-9.492 7.224-3.822 0-7.56-1.008-8.316-1.512v-6.09l4.494.336.42 2.394c.084.378.126.504.504.63.504.168 1.638.42 3.234.42 2.226 0 3.486-.63 3.486-2.184 0-1.68-1.68-2.184-3.822-2.562-3.528-.63-8.148-1.386-8.148-6.888 0-5.208 4.452-7.35 9.282-7.35 3.318 0 6.552.756 7.728 1.218v6.09l-4.494-.294-.42-2.184zm24.457 16.296c-1.806.882-4.452 1.68-6.846 1.68-4.998 0-6.888-2.016-6.888-6.762V72.738c0-.252 0-.42-.336-.42h-2.94V68.58c3.696-.42 5.166-2.268 5.628-6.846h3.99v5.964c0 .294 0 .42.336.42h5.922v4.2h-6.258v10.038c0 2.478.588 3.444 2.856 3.444 1.176 0 2.394-.294 3.402-.672l1.134 3.696zm15.536-1.092l-.21-.042c-1.596 1.554-3.696 2.814-7.056 2.814-5.292 0-6.132-3.612-6.132-6.216 0-4.2 2.562-6.09 7.854-6.468l4.83-.336v-2.31c0-1.974-.21-3.318-2.814-3.318-2.016 0-3.066.294-3.066 2.814l-5.922-.504c0-5.67 5.166-6.468 9.03-6.468 6.384 0 8.946 1.722 8.946 7.602v10.206c0 .672.042.756.672.84l2.016.336V90h-7.728l-.42-2.268zm-3.57-6.552c-2.478.168-3.36.798-3.36 2.478 0 1.68 1.008 2.31 2.394 2.31 1.428 0 2.856-.798 3.822-1.512V80.97l-2.856.21zm13.719 5.46l2.352-.252c.588-.084.672-.252.672-.882V72.738c0-.252 0-.42-.336-.42h-2.814v-4.2h3.15v-2.31c0-5.67 3.192-8.022 8.988-8.022 3.906 0 7.518.966 7.518 6.048l-5.88.714c.042-2.142-.546-2.646-1.932-2.646-2.1 0-2.352 1.134-2.352 3.15v2.646c0 .294 0 .42.336.42h6.636v4.2h-6.972V85.38c0 .672.126.798.756.84l5.124.462V90H86.158v-3.36zm31.132 1.092l-.21-.042c-1.596 1.554-3.696 2.814-7.056 2.814-5.292 0-6.132-3.612-6.132-6.216 0-4.2 2.562-6.09 7.854-6.468l4.83-.336v-2.31c0-1.974-.21-3.318-2.814-3.318-2.016 0-3.066.294-3.066 2.814l-5.922-.504c0-5.67 5.166-6.468 9.03-6.468 6.384 0 8.946 1.722 8.946 7.602v10.206c0 .672.042.756.672.84l2.016.336V90h-7.728l-.42-2.268zm-3.57-6.552c-2.478.168-3.36.798-3.36 2.478 0 1.68 1.008 2.31 2.394 2.31 1.428 0 2.856-.798 3.822-1.512V80.97l-2.856.21zm26.115-8.652c-.084-.378-.126-.504-.42-.588-.546-.168-1.554-.336-2.688-.336-2.1 0-3.276.798-3.276 2.142 0 1.722 2.31 2.1 4.872 2.688 3.318.756 7.056 1.932 7.056 6.846 0 5.124-4.158 7.224-9.492 7.224-3.822 0-7.56-1.008-8.316-1.512v-6.09l4.494.336.42 2.394c.084.378.126.504.504.63.504.168 1.638.42 3.234.42 2.226 0 3.486-.63 3.486-2.184 0-1.68-1.68-2.184-3.822-2.562-3.528-.63-8.148-1.386-8.148-6.888 0-5.208 4.452-7.35 9.282-7.35 3.318 0 6.552.756 7.728 1.218v6.09l-4.494-.294-.42-2.184zm36.139 15.918c-1.932 1.176-4.914 2.058-7.98 2.058-7.602 0-11.004-4.746-11.004-11.13 0-7.854 4.788-11.676 11.508-11.676 3.276 0 6.174.924 7.476 1.764v6.594l-4.494-.21-.504-2.772c-.042-.294-.126-.546-.504-.672-.504-.168-1.302-.294-2.142-.294-2.52 0-4.662 1.722-4.662 6.636 0 5.46 2.436 7.014 5.418 7.014 2.1 0 3.99-.672 5.25-1.218l1.638 3.906zm13.107 2.058c-7.686 0-10.794-4.704-10.794-11.298 0-6.972 3.654-11.508 11.34-11.508 7.77 0 10.794 4.62 10.794 11.046 0 7.14-3.612 11.76-11.34 11.76zm.294-4.41c2.73 0 4.41-1.89 4.41-7.14 0-4.956-1.512-6.72-4.242-6.72-2.772 0-4.62 1.722-4.62 6.762 0 5.082 1.638 7.098 4.452 7.098zm29.069-9.66c0-2.016-.126-3.696-2.226-3.696-1.554 0-3.486.882-4.368 1.554v11.256c0 .672.042.756.672.84l2.016.294V90h-11.592v-3.36l1.89-.252c.588-.084.672-.21.672-.84V73.2c0-.462-.126-.756-.546-.882l-2.268-.798.504-3.402h7.35l.336 2.184.168.084c2.1-1.554 4.536-2.688 7.392-2.688 4.578 0 6.342 2.52 6.342 7.14v10.71c0 .672.042.756.672.84l2.1.294V90h-9.114V76.434zm27.18 12.39c-1.806.882-4.452 1.68-6.846 1.68-4.998 0-6.888-2.016-6.888-6.762V72.738c0-.252 0-.42-.336-.42h-2.94V68.58c3.696-.42 5.166-2.268 5.628-6.846h3.99v5.964c0 .294 0 .42.336.42h5.922v4.2h-6.258v10.038c0 2.478.588 3.444 2.856 3.444 1.176 0 2.394-.294 3.402-.672l1.134 3.696zm2.459-2.226l1.89-.252c.588-.084.672-.21.672-.84V73.2c0-.462-.126-.756-.546-.882l-2.268-.798.462-3.402h7.392l.504 3.36h.252c1.386-2.142 3.234-3.78 5.922-3.78.966 0 2.898.168 3.654.378v7.644l-5.04-.168-.42-2.226c-.084-.378-.21-.462-.546-.462-1.092 0-2.394.924-3.024 1.47v11.13c0 .672.042.798.672.84l4.158.336V90h-13.734v-3.402zm32.897 1.134l-.21-.042c-1.596 1.554-3.696 2.814-7.056 2.814-5.292 0-6.132-3.612-6.132-6.216 0-4.2 2.562-6.09 7.854-6.468l4.83-.336v-2.31c0-1.974-.21-3.318-2.814-3.318-2.016 0-3.066.294-3.066 2.814l-5.922-.504c0-5.67 5.166-6.468 9.03-6.468 6.384 0 8.946 1.722 8.946 7.602v10.206c0 .672.042.756.672.84l2.016.336V90H281.4l-.42-2.268zm-3.57-6.552c-2.478.168-3.36.798-3.36 2.478 0 1.68 1.008 2.31 2.394 2.31 1.428 0 2.856-.798 3.822-1.512V80.97l-2.856.21zm46.611 5.544l3.444-.294c.63-.042.672-.252.672-.84V69.63h-.168l-6.006 14.322h-6.846l-5.922-14.364h-.21v15.96c0 .672.084.798.672.84l3.612.336V90h-12.768v-3.276l2.646-.294c.588-.084.672-.21.672-.84V64.044c0-.63-.084-.756-.672-.84l-2.646-.294v-3.318h11.256l7.308 19.026h.168l7.686-19.026h10.92v3.276l-2.814.336c-.63.084-.672.168-.672.798V85.59c0 .546.126.714.672.798l2.814.336V90h-13.818v-3.276zm35.917 1.638c-2.604 1.26-5.46 2.142-8.61 2.142-8.106 0-10.878-5.04-10.878-11.592 0-7.602 4.662-11.214 10.416-11.214 5.544 0 9.24 2.898 9.24 10.164 0 .504-.042 1.974-.084 2.814H347.17c.21 2.982 1.512 4.956 4.956 4.956 1.638 0 3.402-.378 6.258-1.428l1.554 4.158zm-6.048-11.676c-.042-3.528-1.428-4.452-3.15-4.452-1.806 0-3.276 1.008-3.528 4.452h6.678zm24.589 10.962l-.294-.042c-1.764 1.722-3.822 2.898-6.888 2.898-4.956 0-8.148-3.15-8.148-11.172 0-8.442 4.242-11.634 8.904-11.634 2.436 0 4.326.84 5.922 2.016V63.33c0-.42-.168-.714-.546-.84l-2.31-.798.462-3.402h8.442v27.3c0 .63.042.714.672.798l2.016.294V90h-7.812l-.42-2.352zm-.756-13.818c-1.05-.714-2.394-1.26-3.612-1.26-3.108 0-4.326 2.898-4.326 6.636 0 4.074 1.176 6.342 3.822 6.342 1.428 0 2.982-.84 4.116-1.806V73.83zm20.132-12.852c0 2.394-1.386 3.78-3.822 3.78-2.394 0-3.78-1.386-3.78-3.78s1.386-3.696 3.78-3.696c2.436 0 3.822 1.302 3.822 3.696zm-9.24 25.704l2.142-.294c.588-.084.672-.21.672-.84V73.2c0-.462-.126-.756-.546-.882l-2.268-.798.462-3.402h8.694v17.43c0 .672.042.756.672.84l2.142.294V90h-11.97v-3.318zm32.987 1.764c-1.932 1.176-4.914 2.058-7.98 2.058-7.602 0-11.004-4.746-11.004-11.13 0-7.854 4.788-11.676 11.508-11.676 3.276 0 6.174.924 7.476 1.764v6.594l-4.494-.21-.504-2.772c-.042-.294-.126-.546-.504-.672-.504-.168-1.302-.294-2.142-.294-2.52 0-4.662 1.722-4.662 6.636 0 5.46 2.436 7.014 5.418 7.014 2.1 0 3.99-.672 5.25-1.218l1.638 3.906zm15.922-.714l-.21-.042c-1.596 1.554-3.696 2.814-7.056 2.814-5.292 0-6.132-3.612-6.132-6.216 0-4.2 2.562-6.09 7.854-6.468l4.83-.336v-2.31c0-1.974-.21-3.318-2.814-3.318-2.016 0-3.066.294-3.066 2.814l-5.922-.504c0-5.67 5.166-6.468 9.03-6.468 6.384 0 8.946 1.722 8.946 7.602v10.206c0 .672.042.756.672.84l2.016.336V90h-7.728l-.42-2.268zm-3.57-6.552c-2.478.168-3.36.798-3.36 2.478 0 1.68 1.008 2.31 2.394 2.31 1.428 0 2.856-.798 3.822-1.512V80.97l-2.856.21zm13.677 5.418l1.89-.252c.588-.084.672-.21.672-.84V73.2c0-.462-.126-.756-.546-.882l-2.268-.798.462-3.402h7.392l.504 3.36h.252c1.386-2.142 3.234-3.78 5.922-3.78.966 0 2.898.168 3.654.378v7.644l-5.04-.168-.42-2.226c-.084-.378-.21-.462-.546-.462-1.092 0-2.394.924-3.024 1.47v11.13c0 .672.042.798.672.84l4.158.336V90h-13.734v-3.402zm39.596 1.764c-2.604 1.26-5.46 2.142-8.61 2.142-8.106 0-10.878-5.04-10.878-11.592 0-7.602 4.662-11.214 10.416-11.214 5.544 0 9.24 2.898 9.24 10.164 0 .504-.042 1.974-.084 2.814h-12.852c.21 2.982 1.512 4.956 4.956 4.956 1.638 0 3.402-.378 6.258-1.428l1.554 4.158zm-6.048-11.676c-.042-3.528-1.428-4.452-3.15-4.452-1.806 0-3.276 1.008-3.528 4.452h6.678zm16.99 10.542c0 2.142-1.176 3.276-3.57 3.276-2.436 0-3.612-1.092-3.612-3.276 0-2.142 1.176-3.276 3.612-3.276 2.352 0 3.57 1.134 3.57 3.276z" fill="#8F3FB0"/></svg>