<svg width="223" height="26" viewBox="0 0 223 26" fill="none" xmlns="http://www.w3.org/2000/svg"><path d="M.69 20V1.67h3.536l9.282 11.518h-.754V1.67H17.2V20h-3.536L4.434 8.482h.754V20H.69zm26.485.286c-1.474 0-2.748-.277-3.822-.832a5.98 5.98 0 01-2.496-2.366c-.59-1.04-.884-2.27-.884-3.692 0-1.439.294-2.67.884-3.692a5.98 5.98 0 012.496-2.366c1.074-.555 2.348-.832 3.822-.832 1.456 0 2.721.277 3.796.832a5.935 5.935 0 012.496 2.392c.59 1.023.884 2.245.884 3.666 0 1.404-.295 2.626-.884 3.666a5.935 5.935 0 01-2.496 2.392c-1.075.555-2.34.832-3.796.832zm0-3.432c.762 0 1.37-.269 1.82-.806.45-.555.676-1.439.676-2.652s-.226-2.089-.676-2.626c-.45-.555-1.058-.832-1.82-.832-.78 0-1.396.277-1.846.832-.45.537-.676 1.413-.676 2.626 0 1.213.225 2.097.676 2.652.45.537 1.066.806 1.846.806zM44.653 20V.864h4.628V20h-4.628zm14.355.286c-1.474 0-2.748-.277-3.822-.832a5.98 5.98 0 01-2.496-2.366c-.59-1.04-.884-2.27-.884-3.692 0-1.439.294-2.67.884-3.692a5.98 5.98 0 012.496-2.366c1.074-.555 2.348-.832 3.822-.832 1.456 0 2.72.277 3.796.832A5.934 5.934 0 0165.3 9.73c.589 1.023.884 2.245.884 3.666 0 1.404-.295 2.626-.884 3.666a5.934 5.934 0 01-2.496 2.392c-1.075.555-2.34.832-3.796.832zm0-3.432c.762 0 1.369-.269 1.82-.806.45-.555.676-1.439.676-2.652s-.226-2.089-.676-2.626c-.451-.555-1.058-.832-1.82-.832-.78 0-1.396.277-1.846.832-.451.537-.676 1.413-.676 2.626 0 1.213.225 2.097.676 2.652.45.537 1.066.806 1.846.806zm24.16 3.432c-1.456 0-2.73-.277-3.822-.832a6.113 6.113 0 01-2.548-2.366c-.607-1.04-.91-2.28-.91-3.718 0-1.439.303-2.67.91-3.692a5.946 5.946 0 012.548-2.34c1.092-.555 2.366-.832 3.822-.832a9.79 9.79 0 012.652.364c.867.243 1.569.59 2.106 1.04l-1.3 3.146a4.244 4.244 0 00-1.43-.78 4.436 4.436 0 00-1.534-.286c-.953 0-1.699.286-2.236.858-.52.572-.78 1.413-.78 2.522 0 1.11.26 1.959.78 2.548.537.572 1.283.858 2.236.858.485 0 .997-.087 1.534-.26a4.952 4.952 0 001.43-.78l1.3 3.146c-.555.433-1.265.78-2.132 1.04a9.51 9.51 0 01-2.626.364zm13.284 0c-1.474 0-2.748-.277-3.822-.832a5.98 5.98 0 01-2.496-2.366c-.59-1.04-.884-2.27-.884-3.692 0-1.439.294-2.67.884-3.692a5.98 5.98 0 012.496-2.366c1.074-.555 2.348-.832 3.822-.832 1.456 0 2.721.277 3.796.832a5.942 5.942 0 012.496 2.392c.589 1.023.884 2.245.884 3.666 0 1.404-.295 2.626-.884 3.666a5.942 5.942 0 01-2.496 2.392c-1.075.555-2.34.832-3.796.832zm0-3.432c.762 0 1.369-.269 1.82-.806.45-.555.676-1.439.676-2.652s-.226-2.089-.676-2.626c-.451-.555-1.058-.832-1.82-.832-.78 0-1.396.277-1.846.832-.451.537-.676 1.413-.676 2.626 0 1.213.225 2.097.676 2.652.45.537 1.066.806 1.846.806zM106.155 20v-9.62a30.562 30.562 0 00-.208-3.588h4.472l.26 2.288h-.286a4.307 4.307 0 011.69-1.872c.745-.468 1.62-.702 2.626-.702.97 0 1.794.234 2.47.702.693.45 1.196 1.17 1.508 2.158h-.442c.433-.901 1.057-1.603 1.872-2.106.832-.503 1.759-.754 2.782-.754 1.508 0 2.634.46 3.38 1.378.745.901 1.118 2.314 1.118 4.238V20h-4.654v-7.722c0-.815-.122-1.387-.364-1.716-.243-.347-.633-.52-1.17-.52-.676 0-1.205.243-1.586.728-.364.485-.546 1.153-.546 2.002V20h-4.628v-7.722c0-.815-.13-1.387-.39-1.716-.243-.347-.624-.52-1.144-.52-.676 0-1.205.243-1.586.728-.364.485-.546 1.153-.546 2.002V20h-4.628zm24.279 5.616V10.38a31.142 31.142 0 00-.208-3.588h4.472l.286 2.34h-.26c.243-.78.78-1.413 1.612-1.898.832-.485 1.759-.728 2.782-.728 1.144 0 2.149.277 3.016.832.867.537 1.543 1.326 2.028 2.366.503 1.023.754 2.253.754 3.692 0 1.421-.251 2.652-.754 3.692-.485 1.04-1.161 1.837-2.028 2.392-.867.537-1.872.806-3.016.806-1.005 0-1.915-.225-2.73-.676-.815-.468-1.352-1.083-1.612-1.846h.286v7.852h-4.628zm7.202-8.762c.797 0 1.43-.269 1.898-.806.485-.555.728-1.439.728-2.652s-.243-2.089-.728-2.626c-.468-.555-1.101-.832-1.898-.832-.78 0-1.413.277-1.898.832-.485.537-.728 1.413-.728 2.626 0 1.213.243 2.097.728 2.652.485.537 1.118.806 1.898.806zm14.99 3.432c-1.144 0-2.149-.269-3.016-.806-.866-.555-1.551-1.352-2.054-2.392-.485-1.04-.728-2.27-.728-3.692 0-1.439.243-2.67.728-3.692.503-1.04 1.188-1.829 2.054-2.366.867-.555 1.872-.832 3.016-.832 1.023 0 1.942.243 2.756.728.832.485 1.378 1.118 1.638 1.898h-.26l.286-2.34h4.446l-.156 1.794a32.072 32.072 0 00-.052 1.794V20h-4.576l-.052-2.236h.312c-.26.763-.806 1.378-1.638 1.846-.814.45-1.716.676-2.704.676zm1.482-3.432c.78 0 1.413-.269 1.898-.806.486-.555.728-1.439.728-2.652s-.242-2.089-.728-2.626c-.485-.555-1.118-.832-1.898-.832-.78 0-1.412.277-1.898.832-.485.537-.728 1.413-.728 2.626 0 1.213.234 2.097.702 2.652.486.537 1.127.806 1.924.806zM164.419 20v-9.594a31.592 31.592 0 00-.208-3.614h4.472l.494 4.056h-.702c.173-.988.451-1.803.832-2.444.381-.641.858-1.118 1.43-1.43.572-.312 1.248-.468 2.028-.468.364 0 .633.017.806.052.191.017.39.07.598.156v4.056c-.433-.19-.78-.312-1.04-.364a5.348 5.348 0 00-1.014-.078c-.711 0-1.291.13-1.742.39-.451.243-.78.624-.988 1.144-.191.52-.286 1.187-.286 2.002V20h-4.68zm18.928.286c-1.872 0-3.285-.442-4.238-1.326-.936-.901-1.404-2.262-1.404-4.082v-4.68h-2.47V6.792h2.47v-3.12l4.628-1.092v4.212h3.224v3.406h-3.224v4.498c0 .763.173 1.274.52 1.534.347.243.763.364 1.248.364.295 0 .546-.017.754-.052.225-.052.459-.121.702-.208v3.562c-.381.156-.763.26-1.144.312a7.53 7.53 0 01-1.066.078zm9.466 0c-1.144 0-2.15-.269-3.016-.806-.867-.555-1.552-1.352-2.054-2.392-.486-1.04-.728-2.27-.728-3.692 0-1.439.242-2.67.728-3.692.502-1.04 1.187-1.829 2.054-2.366.866-.555 1.872-.832 3.016-.832 1.022 0 1.941.243 2.756.728.832.485 1.378 1.118 1.638 1.898h-.26l.286-2.34h4.446l-.156 1.794a31.142 31.142 0 00-.052 1.794V20h-4.576l-.052-2.236h.312c-.26.763-.806 1.378-1.638 1.846-.815.45-1.716.676-2.704.676zm1.482-3.432c.78 0 1.412-.269 1.898-.806.485-.555.728-1.439.728-2.652s-.243-2.089-.728-2.626c-.486-.555-1.118-.832-1.898-.832-.78 0-1.413.277-1.898.832-.486.537-.728 1.413-.728 2.626 0 1.213.234 2.097.702 2.652.485.537 1.126.806 1.924.806zm15.38 3.432c-1.231 0-2.349-.121-3.354-.364-.988-.26-1.829-.607-2.522-1.04l1.118-3.016c.676.381 1.43.693 2.262.936.849.243 1.69.364 2.522.364.659 0 1.135-.095 1.43-.286.312-.208.468-.477.468-.806a.764.764 0 00-.286-.624c-.191-.156-.477-.269-.858-.338l-2.808-.494c-1.109-.208-1.976-.615-2.6-1.222-.607-.624-.91-1.43-.91-2.418 0-.901.243-1.681.728-2.34.485-.676 1.179-1.196 2.08-1.56.901-.381 1.967-.572 3.198-.572 1.005 0 1.959.113 2.86.338.919.225 1.716.58 2.392 1.066l-1.196 2.938a7.108 7.108 0 00-1.898-.884c-.711-.243-1.378-.364-2.002-.364-.745 0-1.274.113-1.586.338-.312.208-.468.468-.468.78 0 .243.087.45.26.624.173.156.451.269.832.338l2.808.494c1.144.19 2.019.59 2.626 1.196.624.59.936 1.395.936 2.418 0 .953-.26 1.768-.78 2.444-.503.659-1.205 1.17-2.106 1.534-.901.347-1.95.52-3.146.52zm7.904-.286v-4.732h4.81V20h-4.81z" fill="#fff"/></svg>