<svg width="483" height="26" viewBox="0 0 483 26" fill="none" xmlns="http://www.w3.org/2000/svg"><path d="M.118 20v-4.732h4.81V20H.118zm7.344 0v-4.732h4.81V20h-4.81zm7.344 0v-4.732h4.81V20h-4.81zm15.432 5.616V10.38a31.507 31.507 0 00-.208-3.588h4.472l.286 2.34h-.26c.242-.78.78-1.413 1.612-1.898.832-.485 1.759-.728 2.782-.728 1.144 0 2.149.277 3.016.832.866.537 1.542 1.326 2.028 2.366.502 1.023.754 2.253.754 3.692 0 1.421-.252 2.652-.754 3.692-.486 1.04-1.162 1.837-2.028 2.392-.867.537-1.872.806-3.016.806-1.006 0-1.916-.225-2.73-.676-.815-.468-1.352-1.083-1.612-1.846h.286v7.852h-4.628zm7.202-8.762c.797 0 1.43-.269 1.898-.806.485-.555.728-1.439.728-2.652s-.243-2.089-.728-2.626c-.468-.555-1.101-.832-1.898-.832-.78 0-1.413.277-1.898.832-.486.537-.728 1.413-.728 2.626 0 1.213.242 2.097.728 2.652.485.537 1.118.806 1.898.806zM47.23 20V6.792h4.628V20H47.23zm-.104-15.08V.76h4.862v4.16h-4.862zm13.106 15.366c-1.126 0-2.132-.269-3.016-.806-.884-.555-1.577-1.352-2.08-2.392-.502-1.04-.754-2.27-.754-3.692 0-1.439.243-2.67.728-3.692.503-1.04 1.196-1.829 2.08-2.366.902-.555 1.916-.832 3.042-.832 1.006 0 1.916.234 2.73.702.815.45 1.36 1.057 1.638 1.82h-.39V.864h4.628V20h-4.55v-2.366h.338c-.242.797-.78 1.439-1.612 1.924-.814.485-1.742.728-2.782.728zm1.482-3.432c.763 0 1.387-.269 1.872-.806.503-.555.754-1.439.754-2.652s-.251-2.089-.754-2.626c-.485-.555-1.11-.832-1.872-.832-.78 0-1.421.277-1.924.832-.485.537-.728 1.413-.728 2.626 0 1.213.243 2.097.728 2.652.503.537 1.144.806 1.924.806zM71.973 20V6.792H76.6V20h-4.628zm-.104-15.08V.76h4.862v4.16h-4.862zM86.69 20.286c-2.392 0-4.255-.615-5.59-1.846-1.317-1.23-1.976-2.92-1.976-5.07 0-1.335.277-2.522.832-3.562a5.935 5.935 0 012.34-2.418c1.005-.59 2.184-.884 3.536-.884 1.335 0 2.444.295 3.328.884.901.572 1.577 1.37 2.028 2.392.45 1.005.676 2.175.676 3.51v.988h-8.866v-2.184h5.46l-.442.364c0-.988-.19-1.716-.572-2.184-.364-.485-.884-.728-1.56-.728-.78 0-1.378.295-1.794.884-.399.572-.598 1.439-.598 2.6v.468c0 1.161.286 2.01.858 2.548.572.537 1.395.806 2.47.806.693 0 1.343-.078 1.95-.234a6.116 6.116 0 001.768-.754l1.196 3.016c-.659.45-1.421.797-2.288 1.04-.867.243-1.785.364-2.756.364zM84.35 5.518l2.626-5.33h4.342l-4.004 5.33H84.35zM94.329 20v-9.62a31.415 31.415 0 00-.208-3.588h4.472l.26 2.288h-.286a4.435 4.435 0 011.846-1.898c.797-.45 1.698-.676 2.704-.676 1.542 0 2.695.46 3.458 1.378.78.901 1.17 2.314 1.17 4.238V20h-4.628v-7.67c0-.85-.148-1.439-.442-1.768-.295-.347-.72-.52-1.274-.52-.728 0-1.318.243-1.768.728-.451.468-.676 1.092-.676 1.872V20h-4.628zm21.711.286c-1.127 0-2.132-.269-3.016-.806-.884-.555-1.578-1.352-2.08-2.392-.503-1.04-.754-2.27-.754-3.692 0-1.439.242-2.67.728-3.692.502-1.04 1.196-1.829 2.08-2.366.901-.555 1.915-.832 3.042-.832 1.005 0 1.915.234 2.73.702.814.45 1.36 1.057 1.638 1.82h-.39V.864h4.628V20h-4.55v-2.366h.338c-.243.797-.78 1.439-1.612 1.924-.815.485-1.742.728-2.782.728zm1.482-3.432c.762 0 1.386-.269 1.872-.806.502-.555.754-1.439.754-2.652s-.252-2.089-.754-2.626c-.486-.555-1.11-.832-1.872-.832-.78 0-1.422.277-1.924.832-.486.537-.728 1.413-.728 2.626 0 1.213.242 2.097.728 2.652.502.537 1.144.806 1.924.806zm16.862 3.432c-1.473 0-2.747-.277-3.822-.832a5.988 5.988 0 01-2.496-2.366c-.589-1.04-.884-2.27-.884-3.692 0-1.439.295-2.67.884-3.692a5.988 5.988 0 012.496-2.366c1.075-.555 2.349-.832 3.822-.832 1.456 0 2.722.277 3.796.832a5.93 5.93 0 012.496 2.392c.59 1.023.884 2.245.884 3.666 0 1.404-.294 2.626-.884 3.666a5.93 5.93 0 01-2.496 2.392c-1.074.555-2.34.832-3.796.832zm0-3.432c.763 0 1.37-.269 1.82-.806.451-.555.676-1.439.676-2.652s-.225-2.089-.676-2.626c-.45-.555-1.057-.832-1.82-.832-.78 0-1.395.277-1.846.832-.45.537-.676 1.413-.676 2.626 0 1.213.226 2.097.676 2.652.451.537 1.066.806 1.846.806zm16.336 3.432c-1.872 0-3.285-.442-4.238-1.326-.936-.901-1.404-2.262-1.404-4.082v-4.68h-2.47V6.792h2.47v-3.12l4.628-1.092v4.212h3.224v3.406h-3.224v4.498c0 .763.173 1.274.52 1.534.347.243.763.364 1.248.364.295 0 .546-.017.754-.052.225-.052.459-.121.702-.208v3.562c-.381.156-.763.26-1.144.312a7.53 7.53 0 01-1.066.078zm11.107 0c-2.392 0-4.256-.615-5.59-1.846-1.318-1.23-1.976-2.92-1.976-5.07 0-1.335.277-2.522.832-3.562a5.926 5.926 0 012.34-2.418c1.005-.59 2.184-.884 3.536-.884 1.335 0 2.444.295 3.328.884.901.572 1.577 1.37 2.028 2.392.451 1.005.676 2.175.676 3.51v.988h-8.866v-2.184h5.46l-.442.364c0-.988-.191-1.716-.572-2.184-.364-.485-.884-.728-1.56-.728-.78 0-1.378.295-1.794.884-.399.572-.598 1.439-.598 2.6v.468c0 1.161.286 2.01.858 2.548.572.537 1.395.806 2.47.806.693 0 1.343-.078 1.95-.234a6.12 6.12 0 001.768-.754l1.196 3.016a7.689 7.689 0 01-2.288 1.04c-.867.243-1.786.364-2.756.364zm22.173 0c-1.872 0-3.285-.442-4.238-1.326-.936-.901-1.404-2.262-1.404-4.082v-4.68h-2.47V6.792h2.47v-3.12l4.628-1.092v4.212h3.224v3.406h-3.224v4.498c0 .763.173 1.274.52 1.534.347.243.763.364 1.248.364.295 0 .546-.017.754-.052.225-.052.459-.121.702-.208v3.562c-.381.156-.763.26-1.144.312a7.53 7.53 0 01-1.066.078zm9.128 0c-1.682 0-2.93-.46-3.744-1.378-.798-.936-1.196-2.349-1.196-4.238V6.792h4.628v7.904c0 .693.138 1.213.416 1.56.294.33.736.494 1.326.494.658 0 1.196-.234 1.612-.702.433-.485.65-1.118.65-1.898V6.792h4.628V20h-4.498v-2.366h.39c-.416.85-.98 1.508-1.69 1.976-.711.45-1.552.676-2.522.676zM212.374 20v-9.62a30.562 30.562 0 00-.208-3.588h4.472l.26 2.288h-.286a4.431 4.431 0 011.846-1.898c.797-.45 1.698-.676 2.704-.676 1.542 0 2.695.46 3.458 1.378.78.901 1.17 2.314 1.17 4.238V20h-4.628v-7.67c0-.85-.148-1.439-.442-1.768-.295-.347-.72-.52-1.274-.52-.728 0-1.318.243-1.768.728-.451.468-.676 1.092-.676 1.872V20h-4.628zm21.321.286c-1.681 0-2.929-.46-3.744-1.378-.797-.936-1.196-2.349-1.196-4.238V6.792h4.628v7.904c0 .693.139 1.213.416 1.56.295.33.737.494 1.326.494.659 0 1.196-.234 1.612-.702.433-.485.65-1.118.65-1.898V6.792h4.628V20h-4.498v-2.366h.39c-.416.85-.979 1.508-1.69 1.976-.711.45-1.551.676-2.522.676zm.234-14.768l2.626-5.33h4.342l-4.004 5.33h-2.964zM245.165 20v-9.62a31.142 31.142 0 00-.208-3.588h4.472l.26 2.288h-.286a4.314 4.314 0 011.69-1.872c.745-.468 1.621-.702 2.626-.702.971 0 1.794.234 2.47.702.693.45 1.196 1.17 1.508 2.158h-.442c.433-.901 1.057-1.603 1.872-2.106.832-.503 1.759-.754 2.782-.754 1.508 0 2.635.46 3.38 1.378.745.901 1.118 2.314 1.118 4.238V20h-4.654v-7.722c0-.815-.121-1.387-.364-1.716-.243-.347-.633-.52-1.17-.52-.676 0-1.205.243-1.586.728-.364.485-.546 1.153-.546 2.002V20h-4.628v-7.722c0-.815-.13-1.387-.39-1.716-.243-.347-.624-.52-1.144-.52-.676 0-1.205.243-1.586.728-.364.485-.546 1.153-.546 2.002V20h-4.628zm31.248.286c-2.392 0-4.256-.615-5.59-1.846-1.318-1.23-1.976-2.92-1.976-5.07 0-1.335.277-2.522.832-3.562a5.926 5.926 0 012.34-2.418c1.005-.59 2.184-.884 3.536-.884 1.334 0 2.444.295 3.328.884.901.572 1.577 1.37 2.028 2.392.45 1.005.676 2.175.676 3.51v.988h-8.866v-2.184h5.46l-.442.364c0-.988-.191-1.716-.572-2.184-.364-.485-.884-.728-1.56-.728-.78 0-1.378.295-1.794.884-.399.572-.598 1.439-.598 2.6v.468c0 1.161.286 2.01.858 2.548.572.537 1.395.806 2.47.806.693 0 1.343-.078 1.95-.234a6.12 6.12 0 001.768-.754l1.196 3.016c-.659.45-1.422.797-2.288 1.04-.867.243-1.786.364-2.756.364zM284.05 20v-9.594a31.592 31.592 0 00-.208-3.614h4.472l.494 4.056h-.702c.174-.988.451-1.803.832-2.444.382-.641.858-1.118 1.43-1.43.572-.312 1.248-.468 2.028-.468.364 0 .633.017.806.052.191.017.39.07.598.156v4.056c-.433-.19-.78-.312-1.04-.364a5.348 5.348 0 00-1.014-.078c-.71 0-1.291.13-1.742.39-.45.243-.78.624-.988 1.144-.19.52-.286 1.187-.286 2.002V20h-4.68zm17.782.286c-1.473 0-2.747-.277-3.822-.832a5.988 5.988 0 01-2.496-2.366c-.589-1.04-.884-2.27-.884-3.692 0-1.439.295-2.67.884-3.692a5.988 5.988 0 012.496-2.366c1.075-.555 2.349-.832 3.822-.832 1.456 0 2.722.277 3.796.832a5.93 5.93 0 012.496 2.392c.59 1.023.884 2.245.884 3.666 0 1.404-.294 2.626-.884 3.666a5.93 5.93 0 01-2.496 2.392c-1.074.555-2.34.832-3.796.832zm0-3.432c.763 0 1.37-.269 1.82-.806.451-.555.676-1.439.676-2.652s-.225-2.089-.676-2.626c-.45-.555-1.057-.832-1.82-.832-.78 0-1.395.277-1.846.832-.45.537-.676 1.413-.676 2.626 0 1.213.226 2.097.676 2.652.451.537 1.066.806 1.846.806zm22.731 3.432c-1.127 0-2.132-.269-3.016-.806-.884-.555-1.577-1.352-2.08-2.392-.503-1.04-.754-2.27-.754-3.692 0-1.439.243-2.67.728-3.692.503-1.04 1.196-1.829 2.08-2.366.901-.555 1.915-.832 3.042-.832 1.005 0 1.915.234 2.73.702.815.45 1.361 1.057 1.638 1.82h-.39V.864h4.628V20h-4.55v-2.366h.338c-.243.797-.78 1.439-1.612 1.924-.815.485-1.742.728-2.782.728zm1.482-3.432c.763 0 1.387-.269 1.872-.806.503-.555.754-1.439.754-2.652s-.251-2.089-.754-2.626c-.485-.555-1.109-.832-1.872-.832-.78 0-1.421.277-1.924.832-.485.537-.728 1.413-.728 2.626 0 1.213.243 2.097.728 2.652.503.537 1.144.806 1.924.806zm17.226 3.432c-2.392 0-4.255-.615-5.59-1.846-1.317-1.23-1.976-2.92-1.976-5.07 0-1.335.278-2.522.832-3.562a5.938 5.938 0 012.34-2.418c1.006-.59 2.184-.884 3.536-.884 1.335 0 2.444.295 3.328.884.902.572 1.578 1.37 2.028 2.392.451 1.005.676 2.175.676 3.51v.988h-8.866v-2.184h5.46l-.442.364c0-.988-.19-1.716-.572-2.184-.364-.485-.884-.728-1.56-.728-.78 0-1.378.295-1.794.884-.398.572-.598 1.439-.598 2.6v.468c0 1.161.286 2.01.858 2.548.572.537 1.396.806 2.47.806a7.8 7.8 0 001.95-.234 6.108 6.108 0 001.768-.754l1.196 3.016c-.658.45-1.421.797-2.288 1.04-.866.243-1.785.364-2.756.364zM359.023 20V1.67h4.16l6.006 13.442h-.858l5.98-13.442h4.186V20h-4.342V8.768h1.118L370.073 20h-2.704l-5.226-11.232h1.196V20h-4.316zm29.868.286c-2.392 0-4.255-.615-5.59-1.846-1.317-1.23-1.976-2.92-1.976-5.07 0-1.335.277-2.522.832-3.562a5.938 5.938 0 012.34-2.418c1.005-.59 2.184-.884 3.536-.884 1.335 0 2.444.295 3.328.884.901.572 1.577 1.37 2.028 2.392.451 1.005.676 2.175.676 3.51v.988h-8.866v-2.184h5.46l-.442.364c0-.988-.191-1.716-.572-2.184-.364-.485-.884-.728-1.56-.728-.78 0-1.378.295-1.794.884-.399.572-.598 1.439-.598 2.6v.468c0 1.161.286 2.01.858 2.548.572.537 1.395.806 2.47.806.693 0 1.343-.078 1.95-.234a6.12 6.12 0 001.768-.754l1.196 3.016a7.689 7.689 0 01-2.288 1.04c-.867.243-1.785.364-2.756.364zm12.89 0c-1.127 0-2.132-.269-3.016-.806-.884-.555-1.578-1.352-2.08-2.392-.503-1.04-.754-2.27-.754-3.692 0-1.439.242-2.67.728-3.692.502-1.04 1.196-1.829 2.08-2.366.901-.555 1.915-.832 3.042-.832 1.005 0 1.915.234 2.73.702.814.45 1.36 1.057 1.638 1.82h-.39V.864h4.628V20h-4.55v-2.366h.338c-.243.797-.78 1.439-1.612 1.924-.815.485-1.742.728-2.782.728zm1.482-3.432c.762 0 1.386-.269 1.872-.806.502-.555.754-1.439.754-2.652s-.252-2.089-.754-2.626c-.486-.555-1.11-.832-1.872-.832-.78 0-1.422.277-1.924.832-.486.537-.728 1.413-.728 2.626 0 1.213.242 2.097.728 2.652.502.537 1.144.806 1.924.806zM413.521 20V6.792h4.628V20h-4.628zm-.104-15.08V.76h4.862v4.16h-4.862zm14.536 15.366c-1.456 0-2.73-.277-3.822-.832a6.114 6.114 0 01-2.548-2.366c-.606-1.04-.91-2.28-.91-3.718 0-1.439.304-2.67.91-3.692a5.948 5.948 0 012.548-2.34c1.092-.555 2.366-.832 3.822-.832.902 0 1.786.121 2.652.364.867.243 1.569.59 2.106 1.04l-1.3 3.146a4.238 4.238 0 00-1.43-.78 4.435 4.435 0 00-1.534-.286c-.953 0-1.698.286-2.236.858-.52.572-.78 1.413-.78 2.522 0 1.11.26 1.959.78 2.548.538.572 1.283.858 2.236.858.486 0 .997-.087 1.534-.26a4.943 4.943 0 001.43-.78l1.3 3.146c-.554.433-1.265.78-2.132 1.04a9.505 9.505 0 01-2.626.364zm12.109 0c-1.144 0-2.15-.269-3.016-.806-.867-.555-1.552-1.352-2.054-2.392-.486-1.04-.728-2.27-.728-3.692 0-1.439.242-2.67.728-3.692.502-1.04 1.187-1.829 2.054-2.366.866-.555 1.872-.832 3.016-.832 1.022 0 1.941.243 2.756.728.832.485 1.378 1.118 1.638 1.898h-.26l.286-2.34h4.446l-.156 1.794a31.142 31.142 0 00-.052 1.794V20h-4.576l-.052-2.236h.312c-.26.763-.806 1.378-1.638 1.846-.815.45-1.716.676-2.704.676zm1.482-3.432c.78 0 1.412-.269 1.898-.806.485-.555.728-1.439.728-2.652s-.243-2.089-.728-2.626c-.486-.555-1.118-.832-1.898-.832-.78 0-1.413.277-1.898.832-.486.537-.728 1.413-.728 2.626 0 1.213.234 2.097.702 2.652.485.537 1.126.806 1.924.806zM451.854 20v-9.594a31.592 31.592 0 00-.208-3.614h4.472l.494 4.056h-.702c.173-.988.451-1.803.832-2.444.381-.641.858-1.118 1.43-1.43.572-.312 1.248-.468 2.028-.468.364 0 .633.017.806.052.191.017.39.07.598.156v4.056c-.433-.19-.78-.312-1.04-.364a5.348 5.348 0 00-1.014-.078c-.711 0-1.291.13-1.742.39-.451.243-.78.624-.988 1.144-.191.52-.286 1.187-.286 2.002V20h-4.68zm18.146.286c-2.392 0-4.255-.615-5.59-1.846-1.317-1.23-1.976-2.92-1.976-5.07 0-1.335.277-2.522.832-3.562a5.938 5.938 0 012.34-2.418c1.005-.59 2.184-.884 3.536-.884 1.335 0 2.444.295 3.328.884.901.572 1.577 1.37 2.028 2.392.451 1.005.676 2.175.676 3.51v.988h-8.866v-2.184h5.46l-.442.364c0-.988-.191-1.716-.572-2.184-.364-.485-.884-.728-1.56-.728-.78 0-1.378.295-1.794.884-.399.572-.598 1.439-.598 2.6v.468c0 1.161.286 2.01.858 2.548.572.537 1.395.806 2.47.806.693 0 1.343-.078 1.95-.234a6.12 6.12 0 001.768-.754l1.196 3.016a7.689 7.689 0 01-2.288 1.04c-.867.243-1.785.364-2.756.364zm7.326-.286v-4.732h4.81V20h-4.81z" fill="#fff"/></svg>