<svg width="575" height="56" viewBox="0 0 575 56" fill="none" xmlns="http://www.w3.org/2000/svg"><path fill="#FCD77D" d="M142 40h127v10H142z"/><path d="M2.365 46V18.136H24.51v6.923H10.535v3.397h13.416v6.837H10.535v3.784h14.491V46H2.365zm33.348.43c-5.03 0-7.826-1.505-9.116-2.623l2.494-5.504c1.72 1.161 3.311 1.849 6.665 1.849.086 0 2.15-.129 2.15-.989 0-.688-1.29-.817-2.58-1.118-4.773-1.161-8.299-3.096-8.299-7.138 0-4.816 4.386-7.31 9.03-7.31 4.257 0 6.794.946 8.901 2.064l-2.322 5.246c-2.537-.989-4.859-1.29-6.32-1.29-.775 0-1.377.258-1.377.688 0 .817 1.85 1.118 4.042 1.72 3.096.903 6.837 2.408 6.837 6.837 0 5.891-5.977 7.568-10.105 7.568zm29.976 0c-6.622 0-7.998-4.128-7.998-9.718V24.027h7.825v11.696c0 2.322.774 3.397 2.838 3.397 2.365 0 3.225-2.021 3.225-4.73V24.027h7.827V46h-7.397v-2.408c-1.204 1.548-4.041 2.838-6.32 2.838zm17.16-.43V24.027h7.396v2.537c2.02-2.365 4.429-2.967 6.622-2.967 5.547 0 7.697 3.268 7.697 9.718V46h-7.826V34.304c0-2.494-.946-3.397-2.451-3.397-2.408 0-3.612 2.021-3.612 4.73V46h-7.826zm33.93.43c-6.106 0-9.417-5.074-9.417-11.395 0-6.364 3.311-11.438 9.417-11.438 1.763 0 4.687.602 5.977 2.881v-2.451h7.396V46h-7.396v-2.451c-1.204 2.236-4.214 2.881-5.977 2.881zm2.064-6.88c2.064 0 3.526-1.849 3.526-4.515 0-2.623-1.462-4.558-3.526-4.558s-3.526 1.935-3.526 4.558c0 2.666 1.462 4.515 3.526 4.515zm36.176 6.88c-6.665 0-12.341-4.171-12.341-11.395 0-6.364 4.945-11.438 11.438-11.438 6.235 0 11.008 5.074 11.008 11.438 0 1.333-.172 2.537-.172 2.537h-14.577c.645 2.064 2.58 2.838 4.687 2.838 1.849 0 3.827-.559 5.203-1.333l2.623 5.289c-2.451 1.505-5.16 2.064-7.869 2.064zm-4.859-13.287h7.826c-.258-2.021-1.849-3.397-3.87-3.397-1.935 0-3.483 1.376-3.956 3.397zm26.059 13.287c-5.031 0-7.826-1.505-9.116-2.623l2.494-5.504c1.72 1.161 3.311 1.849 6.665 1.849.086 0 2.15-.129 2.15-.989 0-.688-1.29-.817-2.58-1.118-4.773-1.161-8.299-3.096-8.299-7.138 0-4.816 4.386-7.31 9.03-7.31 4.257 0 6.794.946 8.901 2.064l-2.322 5.246c-2.537-.989-4.859-1.29-6.321-1.29-.774 0-1.376.258-1.376.688 0 .817 1.849 1.118 4.042 1.72 3.096.903 6.837 2.408 6.837 6.837 0 5.891-5.977 7.568-10.105 7.568zm21.432 0c-4.214 0-6.966-2.709-6.966-7.525v-8.686h-3.225v-6.192h3.225v-3.956l7.826-1.935v5.891h4.859v6.192h-4.859v8.084c0 1.032.516 1.376 1.204 1.376.645 0 1.419-.301 1.978-.688l2.107 5.719c-1.892 1.333-4.214 1.72-6.149 1.72zm17.18 0c-6.106 0-9.417-5.074-9.417-11.395 0-6.364 3.311-11.438 9.417-11.438 1.763 0 4.687.602 5.977 2.881v-2.451h7.396V46h-7.396v-2.451c-1.204 2.236-4.214 2.881-5.977 2.881zm2.064-6.88c2.064 0 3.526-1.849 3.526-4.515 0-2.623-1.462-4.558-3.526-4.558s-3.526 1.935-3.526 4.558c0 2.666 1.462 4.515 3.526 4.515zM232.917 46V30.391h-3.311v-6.192h3.311v-1.376c0-4.816 2.752-7.525 6.966-7.525 1.935 0 4.257.301 6.149 1.247l-2.107 5.719c-.559-.215-1.161-.344-1.72-.344-.817 0-1.462.43-1.462 1.806v.473h4.3v6.192h-4.3V46h-7.826zm22.898.43c-6.106 0-9.417-5.074-9.417-11.395 0-6.364 3.311-11.438 9.417-11.438 1.763 0 4.687.602 5.977 2.881v-2.451h7.396V46h-7.396v-2.451c-1.204 2.236-4.214 2.881-5.977 2.881zm2.064-6.88c2.064 0 3.526-1.849 3.526-4.515 0-2.623-1.462-4.558-3.526-4.558s-3.526 1.935-3.526 4.558c0 2.666 1.462 4.515 3.526 4.515zm19.334 6.88c-2.451 0-4.257-1.849-4.257-4.214s1.806-4.214 4.257-4.214c2.494 0 4.343 1.849 4.343 4.214s-1.849 4.214-4.343 4.214z" fill="#42443C"/></svg>