<svg width="241" height="165" viewBox="0 0 241 165" fill="none" xmlns="http://www.w3.org/2000/svg"><path d="M51.186 20.484c0-.838.307-1.564.921-2.178.614-.614 1.348-.921 2.202-.921.853 0 1.587.307 2.2.92.615.615.922 1.348.922 2.202a3.03 3.03 0 01-.921 2.223c-.6.6-1.333.899-2.201.899-.884 0-1.625-.3-2.224-.899-.6-.599-.899-1.347-.899-2.246zm10.976 0c0-.838.307-1.564.92-2.178.615-.614 1.348-.921 2.202-.921.853 0 1.587.307 2.201.92.614.615.92 1.348.92 2.202a3.03 3.03 0 01-.92 2.223c-.599.6-1.333.899-2.201.899-.884 0-1.625-.3-2.224-.899-.599-.599-.898-1.347-.898-2.246zm10.975 0c0-.838.307-1.564.921-2.178.614-.614 1.348-.921 2.201-.921.854 0 1.587.307 2.201.92.614.615.921 1.348.921 2.202a3.03 3.03 0 01-.92 2.223c-.6.6-1.333.899-2.202.899-.883 0-1.624-.3-2.224-.899-.599-.599-.898-1.347-.898-2.246zm27.215-18.418v6.716c-1.153-1.407-2.187-2.373-3.1-2.897-.898-.54-1.954-.809-3.167-.809-1.902 0-3.481.667-4.74 2-1.257 1.332-1.886 3.002-1.886 5.008 0 2.051.606 3.736 1.82 5.054 1.227 1.317 2.792 1.976 4.694 1.976 1.213 0 2.283-.262 3.212-.786.898-.509 1.954-1.497 3.167-2.965v6.671c-2.052 1.063-4.103 1.595-6.155 1.595-3.384 0-6.214-1.093-8.49-3.28-2.276-2.2-3.414-4.933-3.414-8.198 0-3.264 1.153-6.02 3.459-8.265 2.306-2.246 5.136-3.37 8.49-3.37 2.156 0 4.193.517 6.11 1.55zm3.863 9.838c0-3.16 1.13-5.847 3.392-8.063 2.261-2.216 5.016-3.324 8.265-3.324 3.264 0 6.035 1.115 8.311 3.346 2.246 2.231 3.369 4.972 3.369 8.221 0 3.28-1.131 6.027-3.392 8.243-2.276 2.201-5.068 3.302-8.378 3.302-3.279 0-6.027-1.123-8.243-3.37-2.216-2.215-3.324-5-3.324-8.355zm5.166.09c0 2.186.584 3.916 1.752 5.189 1.198 1.287 2.778 1.931 4.739 1.931 1.977 0 3.556-.636 4.739-1.909 1.183-1.273 1.775-2.972 1.775-5.099 0-2.126-.592-3.825-1.775-5.098-1.198-1.288-2.777-1.932-4.739-1.932-1.931 0-3.496.644-4.694 1.932-1.198 1.288-1.797 2.95-1.797 4.986zM132.92 1.123h5.054v2.022c.973-1.019 1.804-1.708 2.493-2.067.734-.374 1.654-.561 2.763-.561 2.47 0 4.424 1.078 5.862 3.234 1.587-2.156 3.736-3.234 6.446-3.234 4.927 0 7.39 2.987 7.39 8.962V23h-5.076V10.849c0-2.097-.255-3.58-.764-4.448-.524-.883-1.385-1.325-2.583-1.325-1.393 0-2.411.524-3.055 1.572-.629 1.049-.943 2.733-.943 5.054V23h-5.076V10.916c0-3.893-1.123-5.84-3.369-5.84-1.423 0-2.464.532-3.122 1.595-.644 1.063-.966 2.74-.966 5.031V23h-5.054V1.123zm35.354 10.781c0-3.16 1.13-5.847 3.391-8.063s5.016-3.324 8.266-3.324c3.264 0 6.034 1.115 8.31 3.346 2.246 2.231 3.369 4.972 3.369 8.221 0 3.28-1.13 6.027-3.391 8.243-2.276 2.201-5.069 3.302-8.378 3.302-3.279 0-6.027-1.123-8.243-3.37-2.216-2.215-3.324-5-3.324-8.355zm5.166.09c0 2.186.584 3.916 1.751 5.189 1.198 1.287 2.778 1.931 4.74 1.931 1.976 0 3.556-.636 4.739-1.909 1.183-1.273 1.774-2.972 1.774-5.099 0-2.126-.591-3.825-1.774-5.098-1.198-1.288-2.778-1.932-4.739-1.932-1.932 0-3.497.644-4.695 1.932-1.198 1.288-1.796 2.95-1.796 4.986zM48.648 49.066v6.716c-1.154-1.407-2.187-2.373-3.1-2.897-.899-.54-1.954-.809-3.167-.809-1.902 0-3.482.666-4.74 2-1.257 1.332-1.886 3.002-1.886 5.008 0 2.051.606 3.736 1.82 5.054 1.227 1.317 2.792 1.976 4.694 1.976 1.212 0 2.283-.262 3.212-.786.898-.509 1.954-1.497 3.166-2.965v6.671c-2.051 1.063-4.102 1.595-6.154 1.595-3.384 0-6.214-1.093-8.49-3.28-2.276-2.2-3.414-4.933-3.414-8.198 0-3.264 1.153-6.02 3.459-8.265 2.306-2.246 5.136-3.37 8.49-3.37 2.156 0 4.193.517 6.11 1.55zm9.95-.943v12.556c0 3.623 1.43 5.435 4.29 5.435 2.86 0 4.29-1.812 4.29-5.435V48.123h5.053v12.668c0 1.752-.217 3.264-.65 4.537-.42 1.138-1.146 2.164-2.18 3.077-1.707 1.483-3.878 2.224-6.513 2.224-2.62 0-4.785-.741-6.491-2.224-1.049-.913-1.79-1.939-2.224-3.077-.42-1.018-.63-2.53-.63-4.537V48.123h5.055zm25.066 0V70H78.61V48.123h5.054zm-5.817-9.097c0-.883.322-1.647.966-2.29.643-.644 1.415-.966 2.313-.966.913 0 1.692.322 2.336.965.644.63.966 1.4.966 2.314 0 .913-.322 1.692-.966 2.336-.629.644-1.4.966-2.314.966a3.182 3.182 0 01-2.335-.966c-.644-.644-.966-1.43-.966-2.359zm28.345-6.963h5.077V70h-5.077v-2.291c-1.991 1.947-4.245 2.92-6.76 2.92-2.995 0-5.48-1.093-7.457-3.28-1.962-2.23-2.943-5.016-2.943-8.355 0-3.264.981-5.99 2.943-8.176 1.946-2.2 4.395-3.301 7.344-3.301 2.561 0 4.852 1.048 6.873 3.144V32.063zM94.198 58.995c0 2.096.562 3.803 1.685 5.121 1.153 1.333 2.605 2 4.357 2 1.872 0 3.384-.645 4.537-1.932 1.153-1.333 1.73-3.025 1.73-5.077 0-2.051-.577-3.743-1.73-5.076-1.153-1.303-2.65-1.954-4.492-1.954-1.737 0-3.19.659-4.357 1.977-1.153 1.332-1.73 2.98-1.73 4.941zm39.576-10.871h5.077V70h-5.077v-2.291c-2.081 1.947-4.32 2.92-6.715 2.92-3.025 0-5.526-1.093-7.502-3.28-1.962-2.23-2.943-5.016-2.943-8.355 0-3.28.981-6.012 2.943-8.198 1.961-2.186 4.417-3.28 7.367-3.28 2.545 0 4.829 1.049 6.85 3.145v-2.538zM121.78 58.994c0 2.096.562 3.803 1.685 5.121 1.153 1.333 2.605 2 4.357 2 1.872 0 3.384-.645 4.537-1.932 1.153-1.333 1.73-3.025 1.73-5.077 0-2.051-.577-3.743-1.73-5.076-1.153-1.303-2.65-1.954-4.492-1.954-1.737 0-3.189.659-4.357 1.977-1.153 1.332-1.73 2.98-1.73 4.941zm36.162-7.142l-4.177 2.223c-.659-1.348-1.475-2.021-2.449-2.021a1.66 1.66 0 00-1.19.471c-.329.3-.494.69-.494 1.168 0 .839.973 1.67 2.92 2.494 2.68 1.153 4.484 2.216 5.413 3.189.928.973 1.392 2.284 1.392 3.93 0 2.112-.778 3.879-2.336 5.301-1.512 1.348-3.339 2.022-5.48 2.022-3.669 0-6.267-1.79-7.794-5.368l4.313-2c.599 1.049 1.055 1.715 1.37 2 .614.569 1.347.853 2.201.853 1.707 0 2.56-.778 2.56-2.336 0-.898-.658-1.737-1.976-2.515a71.17 71.17 0 00-1.527-.741c-.51-.24-1.026-.487-1.55-.742-1.468-.718-2.501-1.437-3.1-2.156-.764-.913-1.145-2.089-1.145-3.526 0-1.902.651-3.474 1.954-4.717 1.332-1.243 2.95-1.864 4.851-1.864 2.8 0 4.882 1.445 6.244 4.335zm25.381.988V70h-5.053V52.84h-2.157v-4.717h2.157v-8.018h5.053v8.018h3.931v4.717h-3.931zm12.421-4.717v12.556c0 3.623 1.43 5.435 4.29 5.435 2.86 0 4.29-1.812 4.29-5.435V48.123h5.054v12.668c0 1.752-.217 3.264-.651 4.537-.42 1.138-1.146 2.164-2.179 3.077-1.707 1.483-3.878 2.224-6.514 2.224-2.62 0-4.784-.741-6.491-2.224-1.048-.913-1.789-1.939-2.224-3.077-.419-1.018-.629-2.53-.629-4.537V48.123h5.054zM11.175 100.348V117H2.85v-16.652H.09v-6.946h2.76v-7.084h8.326v7.084h4.738v6.946h-4.738zm16.046 4.784c0 .767.138 1.487.414 2.162a5.817 5.817 0 001.104 1.702c.49.491 1.058.874 1.702 1.15a5.655 5.655 0 002.162.414c.736 0 1.426-.138 2.07-.414a4.768 4.768 0 001.702-1.15 5.386 5.386 0 001.15-1.702c.306-.644.46-1.334.46-2.07 0-.736-.154-1.426-.46-2.07a5.254 5.254 0 00-1.15-1.748 4.768 4.768 0 00-1.702-1.15 5.199 5.199 0 00-2.07-.414c-.767 0-1.488.138-2.162.414a5.377 5.377 0 00-1.702 1.15 5.817 5.817 0 00-1.104 1.702 4.874 4.874 0 00-.414 2.024zm10.488-11.73h8.372V117h-8.372v-2.622c-1.779 2.239-4.186 3.358-7.222 3.358-1.718 0-3.297-.307-4.738-.92a11.717 11.717 0 01-3.772-2.668c-1.074-1.135-1.917-2.469-2.53-4.002-.583-1.533-.874-3.205-.874-5.014 0-1.687.291-3.281.874-4.784.582-1.533 1.395-2.867 2.438-4.002a11.212 11.212 0 013.726-2.668c1.441-.675 3.036-1.012 4.784-1.012 2.944 0 5.382 1.027 7.314 3.082v-2.346zm14.037 0h8.326v3.864c.89-1.41 1.978-2.484 3.267-3.22 1.287-.767 2.79-1.15 4.508-1.15h.69c.275 0 .582.03.92.092v7.958a7.91 7.91 0 00-3.588-.828c-1.932 0-3.39.583-4.37 1.748-.951 1.135-1.427 2.806-1.427 5.014V117h-8.326V93.402zm29.754 0v35.374h-8.326V93.402H81.5zm-8.878-9.062c0-.644.123-1.242.368-1.794a4.7 4.7 0 011.012-1.518c.43-.43.92-.767 1.472-1.012a4.694 4.694 0 011.84-.368c.644 0 1.242.123 1.794.368a4.704 4.704 0 011.518 1.012c.43.43.767.935 1.012 1.518.246.552.368 1.15.368 1.794 0 .644-.122 1.257-.368 1.84a4.853 4.853 0 01-1.012 1.472c-.43.43-.935.767-1.518 1.012a4.367 4.367 0 01-1.794.368 4.694 4.694 0 01-1.84-.368 4.851 4.851 0 01-1.472-1.012 4.85 4.85 0 01-1.012-1.472 4.693 4.693 0 01-.368-1.84zm31.818 17.434c-.276-1.165-.843-2.1-1.702-2.806-.859-.705-1.901-1.058-3.128-1.058-1.288 0-2.346.337-3.174 1.012-.797.675-1.303 1.625-1.518 2.852h9.522zm-9.752 4.83c0 3.588 1.687 5.382 5.06 5.382 1.809 0 3.174-.736 4.094-2.208h8.05c-1.625 5.397-5.689 8.096-12.19 8.096-1.993 0-3.818-.291-5.474-.874-1.656-.613-3.082-1.472-4.278-2.576a11.532 11.532 0 01-2.714-3.956c-.644-1.533-.966-3.251-.966-5.152 0-1.963.307-3.726.92-5.29.613-1.595 1.487-2.944 2.622-4.048 1.135-1.104 2.5-1.947 4.094-2.53 1.625-.613 3.45-.92 5.474-.92 1.993 0 3.787.307 5.382.92 1.595.583 2.944 1.441 4.048 2.576s1.947 2.53 2.53 4.186c.583 1.625.874 3.465.874 5.52v.874H94.688zm31.892-6.256V117h-8.326v-16.652h-2.76v-6.946h2.76v-7.084h8.326v7.084h4.738v6.946h-4.738zm16.045 4.784c0 .767.138 1.487.414 2.162a5.817 5.817 0 001.104 1.702 5.38 5.38 0 001.702 1.15 5.654 5.654 0 002.162.414c.736 0 1.426-.138 2.07-.414a4.765 4.765 0 001.702-1.15 5.38 5.38 0 001.15-1.702c.307-.644.46-1.334.46-2.07 0-.736-.153-1.426-.46-2.07a5.25 5.25 0 00-1.15-1.748 4.765 4.765 0 00-1.702-1.15 5.199 5.199 0 00-2.07-.414c-.767 0-1.487.138-2.162.414a5.38 5.38 0 00-1.702 1.15 5.817 5.817 0 00-1.104 1.702 4.874 4.874 0 00-.414 2.024zm10.488-11.73h8.372V117h-8.372v-2.622c-1.779 2.239-4.186 3.358-7.222 3.358-1.717 0-3.297-.307-4.738-.92a11.715 11.715 0 01-3.772-2.668c-1.073-1.135-1.917-2.469-2.53-4.002-.583-1.533-.874-3.205-.874-5.014 0-1.687.291-3.281.874-4.784.583-1.533 1.395-2.867 2.438-4.002a11.218 11.218 0 013.726-2.668c1.441-.675 3.036-1.012 4.784-1.012 2.944 0 5.382 1.027 7.314 3.082v-2.346zm37.399 11.73c0 .767.138 1.487.414 2.162a5.817 5.817 0 001.104 1.702 5.37 5.37 0 001.702 1.15 5.65 5.65 0 002.162.414c.736 0 1.426-.138 2.07-.414a4.774 4.774 0 001.702-1.15 5.397 5.397 0 001.15-1.702c.306-.644.46-1.334.46-2.07 0-.736-.154-1.426-.46-2.07a5.265 5.265 0 00-1.15-1.748 4.774 4.774 0 00-1.702-1.15 5.199 5.199 0 00-2.07-.414c-.736 0-1.442.138-2.116.414a5.37 5.37 0 00-1.702 1.15 6.633 6.633 0 00-1.15 1.702 4.874 4.874 0 00-.414 2.024zM201 78.82h8.372V117H201v-2.622c-1.779 2.239-4.186 3.358-7.222 3.358-1.718 0-3.297-.322-4.738-.966a11.705 11.705 0 01-3.772-2.668c-1.074-1.135-1.917-2.469-2.53-4.002-.583-1.533-.874-3.189-.874-4.968 0-1.687.276-3.281.828-4.784.582-1.533 1.395-2.867 2.438-4.002a11.197 11.197 0 013.726-2.668c1.472-.675 3.082-1.012 4.83-1.012 2.944 0 5.382 1.027 7.314 3.082V78.82zm31.288 22.954c-.276-1.165-.844-2.1-1.702-2.806-.859-.705-1.902-1.058-3.128-1.058-1.288 0-2.346.337-3.174 1.012-.798.675-1.304 1.625-1.518 2.852h9.522zm-9.752 4.83c0 3.588 1.686 5.382 5.06 5.382 1.809 0 3.174-.736 4.094-2.208h8.05c-1.626 5.397-5.689 8.096-12.19 8.096-1.994 0-3.818-.291-5.474-.874-1.656-.613-3.082-1.472-4.278-2.576a11.523 11.523 0 01-2.714-3.956c-.644-1.533-.966-3.251-.966-5.152 0-1.963.306-3.726.92-5.29.613-1.595 1.487-2.944 2.622-4.048 1.134-1.104 2.499-1.947 4.094-2.53 1.625-.613 3.45-.92 5.474-.92 1.993 0 3.787.307 5.382.92 1.594.583 2.944 1.441 4.048 2.576s1.947 2.53 2.53 4.186c.582 1.625.874 3.465.874 5.52v.874h-17.526zM48.3 148.038c-1.44-.981-2.897-1.472-4.37-1.472a6.13 6.13 0 00-2.254.414 5.417 5.417 0 00-1.794 1.196 5.375 5.375 0 00-1.241 1.794c-.276.675-.414 1.441-.414 2.3 0 .828.138 1.595.414 2.3a6.541 6.541 0 001.196 1.794 5.66 5.66 0 001.84 1.15 6.13 6.13 0 002.254.414c1.564 0 3.02-.537 4.37-1.61v7.084c-2.055.889-4.003 1.334-5.843 1.334-1.717 0-3.358-.291-4.922-.874a12.982 12.982 0 01-4.093-2.484 12.845 12.845 0 01-2.806-3.91c-.706-1.533-1.059-3.235-1.059-5.106s.338-3.573 1.012-5.106c.675-1.564 1.595-2.898 2.76-4.002 1.166-1.135 2.546-2.009 4.14-2.622 1.626-.644 3.358-.966 5.198-.966 2.024 0 3.895.429 5.612 1.288v7.084zm4.75-7.636h8.325v3.864c.89-1.411 1.978-2.484 3.266-3.22 1.288-.767 2.79-1.15 4.508-1.15h.69c.276 0 .583.031.92.092v7.958a7.91 7.91 0 00-3.588-.828c-1.932 0-3.388.583-4.37 1.748-.95 1.135-1.426 2.806-1.426 5.014V164H53.05v-23.598zm38.947 8.372c-.276-1.165-.844-2.101-1.703-2.806-.858-.705-1.9-1.058-3.127-1.058-1.288 0-2.347.337-3.174 1.012-.798.675-1.304 1.625-1.518 2.852h9.522zm-9.752 4.83c0 3.588 1.686 5.382 5.06 5.382 1.809 0 3.173-.736 4.093-2.208h8.05c-1.625 5.397-5.688 8.096-12.19 8.096-1.993 0-3.817-.291-5.474-.874-1.656-.613-3.082-1.472-4.278-2.576a11.532 11.532 0 01-2.713-3.956c-.645-1.533-.967-3.251-.967-5.152 0-1.963.307-3.726.92-5.29.614-1.595 1.488-2.944 2.623-4.048 1.134-1.104 2.499-1.947 4.094-2.53 1.625-.613 3.45-.92 5.474-.92 1.993 0 3.787.307 5.382.92 1.594.583 2.944 1.441 4.047 2.576 1.105 1.135 1.948 2.53 2.53 4.186.583 1.625.874 3.465.874 5.52v.874H82.245zm12.557-23.736l-8.004 7.084-3.864-2.852 6.579-8.05 5.29 3.818zm17.456 22.264c0 .767.138 1.487.414 2.162a5.817 5.817 0 001.104 1.702 5.37 5.37 0 001.702 1.15 5.65 5.65 0 002.162.414c.736 0 1.426-.138 2.07-.414a4.774 4.774 0 001.702-1.15 5.397 5.397 0 001.15-1.702c.306-.644.46-1.334.46-2.07 0-.736-.154-1.426-.46-2.07a5.265 5.265 0 00-1.15-1.748 4.774 4.774 0 00-1.702-1.15 5.199 5.199 0 00-2.07-.414c-.736 0-1.442.138-2.116.414a5.37 5.37 0 00-1.702 1.15 6.633 6.633 0 00-1.15 1.702 4.874 4.874 0 00-.414 2.024zm10.488-26.312h8.372V164h-8.372v-2.622c-1.779 2.239-4.186 3.358-7.222 3.358-1.718 0-3.297-.322-4.738-.966a11.705 11.705 0 01-3.772-2.668c-1.074-1.135-1.917-2.469-2.53-4.002-.583-1.533-.874-3.189-.874-4.968 0-1.687.276-3.281.828-4.784.582-1.533 1.395-2.867 2.438-4.002a11.193 11.193 0 013.726-2.668c1.472-.675 3.082-1.012 4.83-1.012 2.944 0 5.382 1.027 7.314 3.082V125.82zm22.364 14.582V164h-8.326v-23.598h8.326zm-8.878-9.062c0-.644.122-1.242.368-1.794a4.68 4.68 0 011.012-1.518c.429-.429.92-.767 1.472-1.012a4.697 4.697 0 011.84-.368c.644 0 1.242.123 1.794.368a4.717 4.717 0 011.518 1.012c.429.429.766.935 1.012 1.518.245.552.368 1.15.368 1.794a4.7 4.7 0 01-.368 1.84 4.865 4.865 0 01-1.012 1.472c-.43.429-.936.767-1.518 1.012a4.372 4.372 0 01-1.794.368 4.697 4.697 0 01-1.84-.368 4.848 4.848 0 01-1.472-1.012 4.83 4.83 0 01-1.012-1.472 4.683 4.683 0 01-.368-1.84zm23.859 16.008V164h-8.326v-16.652h-2.76v-6.946h2.76v-7.084h8.326v7.084h4.738v6.946h-4.738zm16.139 4.738c0 .797.138 1.533.414 2.208.306.644.69 1.211 1.15 1.702a5.37 5.37 0 001.702 1.15c.674.276 1.38.414 2.116.414.736 0 1.426-.138 2.07-.414a4.774 4.774 0 001.702-1.15 5.397 5.397 0 001.15-1.702c.306-.675.46-1.395.46-2.162 0-.736-.154-1.426-.46-2.07a5.265 5.265 0 00-1.15-1.748 4.774 4.774 0 00-1.702-1.15 5.199 5.199 0 00-2.07-.414c-.736 0-1.442.138-2.116.414a5.37 5.37 0 00-1.702 1.15 6.633 6.633 0 00-1.15 1.702 5.199 5.199 0 00-.414 2.07zm-8.786-.092c0-1.748.352-3.373 1.058-4.876a11.715 11.715 0 012.944-3.956c1.257-1.135 2.744-2.024 4.462-2.668 1.748-.644 3.649-.966 5.704-.966 2.024 0 3.894.322 5.612.966 1.748.613 3.25 1.487 4.508 2.622a11.357 11.357 0 012.99 4.002c.705 1.533 1.058 3.235 1.058 5.106s-.368 3.588-1.104 5.152a12.233 12.233 0 01-2.944 4.002c-1.258 1.104-2.776 1.963-4.554 2.576-1.748.613-3.65.92-5.704.92-2.024 0-3.895-.307-5.612-.92-1.718-.613-3.205-1.487-4.462-2.622a12.38 12.38 0 01-2.898-4.048c-.706-1.595-1.058-3.358-1.058-5.29zm32.715 7.59c0-.736.138-1.426.414-2.07a5.25 5.25 0 011.15-1.748 5.37 5.37 0 011.702-1.15 5.533 5.533 0 012.116-.414c.736 0 1.426.138 2.07.414a5.26 5.26 0 011.748 1.15c.49.491.874 1.073 1.15 1.748.276.644.414 1.334.414 2.07 0 .736-.138 1.441-.414 2.116a5.397 5.397 0 01-1.15 1.702 5.26 5.26 0 01-1.748 1.15 5.199 5.199 0 01-2.07.414 5.533 5.533 0 01-2.116-.414 5.37 5.37 0 01-1.702-1.15 5.38 5.38 0 01-1.15-1.702 5.537 5.537 0 01-.414-2.116z" fill="#66124B"/></svg>