<svg width="228" height="14" viewBox="0 0 228 14" fill="none" xmlns="http://www.w3.org/2000/svg"><path d="M.037 9.344c0-.219.08-.408.24-.569.16-.16.352-.24.575-.24.222 0 .414.08.574.24.16.16.24.352.24.575a.79.79 0 01-.24.58.781.781 0 01-.574.234.788.788 0 01-.58-.234.795.795 0 01-.235-.586zm3.703 0c0-.219.08-.408.24-.569.16-.16.352-.24.575-.24.222 0 .414.08.574.24.16.16.24.352.24.575a.79.79 0 01-.24.58.781.781 0 01-.574.234.788.788 0 01-.58-.234.795.795 0 01-.235-.586zm3.703 0c0-.219.08-.408.24-.569.16-.16.352-.24.575-.24.222 0 .414.08.574.24.16.16.24.352.24.575a.79.79 0 01-.24.58.781.781 0 01-.574.234.788.788 0 01-.58-.234.795.795 0 01-.235-.586zm4.817 3.761H10.94V4.293h1.319v.621c.52-.52 1.11-.78 1.77-.78.785 0 1.43.29 1.939.868.515.574.773 1.299.773 2.174 0 .855-.256 1.568-.767 2.138-.508.567-1.149.85-1.922.85-.668 0-1.266-.268-1.793-.803v3.744zm3.135-5.923c0-.547-.149-.993-.446-1.336a1.44 1.44 0 00-1.136-.522c-.485 0-.878.168-1.178.504-.301.336-.451.777-.451 1.324 0 .535.15.977.45 1.325.298.34.688.51 1.173.51.457 0 .834-.173 1.13-.516.305-.344.458-.774.458-1.29zm6.949-2.889h1.324V10h-1.324v-.598c-.543.508-1.127.762-1.752.762-.79 0-1.442-.285-1.957-.855-.512-.582-.768-1.309-.768-2.18 0-.856.256-1.568.768-2.139a2.474 2.474 0 011.922-.855c.664 0 1.26.273 1.787.82v-.662zm-3.13 2.836c0 .547.147.992.44 1.336.301.348.68.521 1.137.521.488 0 .883-.168 1.184-.504.3-.347.45-.789.45-1.324s-.15-.976-.45-1.324c-.301-.34-.692-.51-1.172-.51-.453 0-.832.172-1.137.516-.3.348-.451.777-.451 1.289zm6.118-2.836h1.318v.51c.243-.254.457-.428.645-.522.191-.097.418-.146.68-.146.347 0 .71.113 1.09.34l-.604 1.207c-.25-.18-.494-.27-.732-.27-.72 0-1.079.543-1.079 1.629V10h-1.318V4.293zm8.613 0h1.325V10h-1.325v-.598c-.543.508-1.127.762-1.752.762-.789 0-1.441-.285-1.957-.855-.511-.582-.767-1.309-.767-2.18 0-.856.256-1.568.767-2.139a2.474 2.474 0 011.922-.855c.664 0 1.26.273 1.787.82v-.662zm-3.129 2.836c0 .547.147.992.44 1.336.3.348.68.521 1.137.521.488 0 .882-.168 1.183-.504.301-.347.451-.789.451-1.324s-.15-.976-.45-1.324c-.302-.34-.692-.51-1.173-.51-.453 0-.832.172-1.136.516-.301.348-.452.777-.452 1.289zm14.028-2.836h1.324V10h-1.324v-.598c-.543.508-1.127.762-1.752.762-.79 0-1.442-.285-1.957-.855-.512-.582-.768-1.309-.768-2.18 0-.856.256-1.568.768-2.139a2.474 2.474 0 011.922-.855c.664 0 1.26.273 1.787.82v-.662zm-3.13 2.836c0 .547.147.992.44 1.336.301.348.68.521 1.137.521.488 0 .883-.168 1.184-.504.3-.347.45-.789.45-1.324s-.15-.976-.45-1.324c-.301-.34-.692-.51-1.172-.51-.453 0-.832.172-1.137.516-.3.348-.451.777-.451 1.289zm9.434-1.863l-1.09.58c-.171-.352-.384-.528-.638-.528a.433.433 0 00-.31.123.392.392 0 00-.13.305c0 .219.254.436.762.65.7.301 1.17.579 1.412.833.242.253.364.595.364 1.025 0 .55-.203 1.012-.61 1.383-.394.351-.87.527-1.43.527-.956 0-1.634-.467-2.033-1.4l1.125-.522c.157.274.276.447.358.522.16.148.351.222.574.222.445 0 .668-.203.668-.609 0-.234-.172-.453-.516-.656-.133-.067-.265-.131-.398-.194a35.461 35.461 0 01-.404-.193c-.383-.188-.653-.375-.809-.563-.2-.238-.299-.544-.299-.92 0-.496.17-.906.51-1.23.348-.324.77-.486 1.266-.486.73 0 1.273.377 1.628 1.13zm6.756 2.191h-4.09c.036.469.188.842.458 1.12.269.273.615.41 1.037.41.328 0 .6-.079.814-.235.211-.156.451-.445.72-.867l1.114.62a4.534 4.534 0 01-.545.757 3.019 3.019 0 01-.615.515c-.219.133-.455.23-.71.293-.253.063-.528.094-.825.094-.852 0-1.535-.273-2.051-.82-.516-.551-.773-1.281-.773-2.192 0-.902.25-1.632.75-2.191.503-.55 1.171-.826 2.003-.826.84 0 1.504.267 1.993.803.484.53.726 1.267.726 2.208l-.006.311zm-1.353-1.078c-.184-.703-.627-1.055-1.33-1.055-.16 0-.31.026-.451.076-.141.047-.27.118-.387.211-.114.09-.211.2-.293.328a1.54 1.54 0 00-.188.44h2.649zm8.32 3.486a7.518 7.518 0 01-.1 1.254c-.093.43-.277.799-.55 1.108-.516.593-1.225.89-2.127.89-.762 0-1.389-.205-1.881-.615-.508-.422-.8-1.006-.879-1.752h1.324c.051.281.135.498.252.65.274.356.672.534 1.196.534.964 0 1.447-.592 1.447-1.776v-.797c-.524.535-1.127.803-1.81.803-.778 0-1.415-.281-1.911-.844-.5-.57-.75-1.283-.75-2.138 0-.832.233-1.54.697-2.121.5-.618 1.16-.926 1.98-.926a2.3 2.3 0 011.794.803v-.645h1.318v5.572zm-1.265-2.707c0-.554-.149-.998-.446-1.33-.3-.34-.685-.51-1.154-.51-.5 0-.895.186-1.184.557-.262.332-.392.762-.392 1.29 0 .519.13.944.392 1.276.285.364.68.545 1.184.545.504 0 .902-.183 1.195-.55.27-.332.404-.758.404-1.278zm4.247-2.865v3.275c0 .946.374 1.418 1.12 1.418.746 0 1.119-.472 1.119-1.418V4.293h1.318v3.305c0 .457-.056.851-.17 1.183-.11.297-.299.565-.568.803-.445.387-1.012.58-1.7.58-.683 0-1.247-.193-1.693-.58a2.021 2.021 0 01-.58-.803c-.11-.265-.164-.66-.164-1.183V4.293h1.319zm5.221 0h1.319v.51c.242-.254.457-.428.644-.522.191-.097.418-.146.68-.146.347 0 .71.113 1.09.34l-.604 1.207c-.25-.18-.494-.27-.732-.27-.719 0-1.078.543-1.078 1.629V10h-1.319V4.293zm8.614 0h1.324V10h-1.325v-.598c-.543.508-1.126.762-1.751.762-.79 0-1.442-.285-1.958-.855-.511-.582-.767-1.309-.767-2.18 0-.856.256-1.568.767-2.139a2.474 2.474 0 011.922-.855c.664 0 1.26.273 1.787.82v-.662zm-3.13 2.836c0 .547.147.992.44 1.336.3.348.68.521 1.137.521.488 0 .883-.168 1.183-.504.301-.347.451-.789.451-1.324s-.15-.976-.45-1.324c-.301-.34-.692-.51-1.172-.51-.454 0-.833.172-1.137.516-.301.348-.451.777-.451 1.289zm6.118-2.836h1.318v.51c.242-.254.457-.428.645-.522.191-.097.418-.146.68-.146.347 0 .71.113 1.09.34l-.604 1.207c-.25-.18-.495-.27-.733-.27-.719 0-1.078.543-1.078 1.629V10h-1.318V4.293zm6.281 1.23V10h-1.318V5.523h-.563v-1.23h.563V2.201h1.318v2.092h1.025v1.23h-1.025zm7.225 1.934h-4.09c.035.469.187.842.457 1.12.27.273.615.41 1.037.41.328 0 .6-.079.814-.235.211-.156.452-.445.721-.867l1.113.62a4.54 4.54 0 01-.544.757 3.02 3.02 0 01-.616.515c-.218.133-.455.23-.709.293-.254.063-.53.094-.826.094-.852 0-1.535-.273-2.05-.82-.516-.551-.774-1.281-.774-2.192 0-.902.25-1.632.75-2.191.504-.55 1.172-.826 2.004-.826.84 0 1.504.267 1.992.803.484.53.727 1.267.727 2.208l-.006.311zm-1.354-1.078c-.184-.703-.627-1.055-1.33-1.055-.16 0-.31.026-.451.076-.14.047-.27.118-.387.211-.113.09-.21.2-.293.328a1.54 1.54 0 00-.187.44h2.648zm10.711 6.726V9.361c-.523.535-1.121.803-1.793.803-.769 0-1.408-.283-1.916-.85-.512-.57-.768-1.283-.768-2.138 0-.867.256-1.592.768-2.174a2.49 2.49 0 011.94-.867c.66 0 1.25.26 1.769.78v-.622h1.324v8.813h-1.324zm-3.129-5.988c0 .551.149.998.445 1.342.297.352.674.527 1.131.527.485 0 .877-.168 1.178-.504.305-.34.457-.78.457-1.324 0-.535-.15-.976-.451-1.324-.301-.34-.691-.51-1.172-.51-.453 0-.832.172-1.137.516-.3.348-.451.773-.451 1.277zm7.576-2.824v3.275c0 .946.373 1.418 1.119 1.418.747 0 1.12-.472 1.12-1.418V4.293h1.318v3.305c0 .457-.057.851-.17 1.183a1.989 1.989 0 01-.568.803c-.446.387-1.012.58-1.7.58-.683 0-1.248-.193-1.693-.58a2.022 2.022 0 01-.58-.803c-.109-.265-.164-.66-.164-1.183V4.293h1.318zm10.418 3.164h-4.09c.036.469.188.842.457 1.12.27.273.616.41 1.038.41.328 0 .599-.079.814-.235.211-.156.451-.445.721-.867l1.113.62a4.512 4.512 0 01-.545.757 3 3 0 01-.615.515c-.219.133-.455.23-.709.293a3.45 3.45 0 01-.826.094c-.852 0-1.535-.273-2.051-.82-.516-.551-.773-1.281-.773-2.192 0-.902.25-1.632.75-2.191.503-.55 1.171-.826 2.003-.826.84 0 1.504.267 1.993.803.484.53.726 1.267.726 2.208l-.006.311zm-1.353-1.078c-.184-.703-.627-1.055-1.33-1.055-.16 0-.311.026-.451.076a1.24 1.24 0 00-.387.211c-.113.09-.211.2-.293.328a1.541 1.541 0 00-.188.44h2.649zm10.916-.351a1.307 1.307 0 00-.444-.732 1.244 1.244 0 00-.816-.276c-.336 0-.612.088-.828.264-.208.176-.34.424-.396.744h2.484zm-2.544 1.26c0 .936.44 1.404 1.32 1.404.472 0 .828-.192 1.068-.576h2.1c-.424 1.408-1.484 2.112-3.18 2.112-.52 0-.996-.076-1.428-.228a3.328 3.328 0 01-1.116-.672 3.007 3.007 0 01-.708-1.032 3.44 3.44 0 01-.252-1.344c0-.512.08-.972.24-1.38.16-.416.388-.768.684-1.056a2.971 2.971 0 011.068-.66c.424-.16.9-.24 1.428-.24.52 0 .988.08 1.404.24a2.78 2.78 0 011.056.672c.288.296.508.66.66 1.092.152.424.228.904.228 1.44v.228h-4.572zm9.893-1.86c-.4-.208-.792-.312-1.176-.312-.2 0-.364.04-.492.12a.371.371 0 00-.18.324c0 .072.008.132.024.18.024.04.068.08.132.12.072.04.172.076.3.108.136.032.312.072.528.12.6.12 1.048.336 1.344.648.296.304.444.696.444 1.176 0 .36-.072.684-.216.972a2.124 2.124 0 01-.6.732c-.256.192-.564.34-.924.444-.36.112-.756.168-1.188.168-.832 0-1.652-.236-2.46-.708l.792-1.536c.608.416 1.184.624 1.728.624a.85.85 0 00.492-.132c.128-.088.192-.2.192-.336a.432.432 0 00-.036-.192.256.256 0 00-.12-.144.818.818 0 00-.288-.12c-.12-.04-.28-.08-.48-.12-.672-.136-1.144-.336-1.416-.6-.264-.272-.396-.644-.396-1.116 0-.344.064-.652.192-.924.128-.28.312-.516.552-.708.24-.192.528-.34.864-.444a3.928 3.928 0 011.14-.156c.68 0 1.34.132 1.98.396l-.732 1.416zm4.614.228V10h-2.172V5.656h-.72V3.844h.72V1.996h2.172v1.848h1.236v1.812h-1.236zm4.185 1.248c0 .2.036.388.108.564.072.168.168.316.288.444.128.128.276.228.444.3a1.475 1.475 0 001.104 0c.176-.072.324-.172.444-.3.128-.128.228-.276.3-.444.08-.168.12-.348.12-.54 0-.192-.04-.372-.12-.54a1.37 1.37 0 00-.3-.456 1.245 1.245 0 00-.444-.3 1.475 1.475 0 00-1.104 0 1.404 1.404 0 00-.444.3c-.12.128-.216.276-.288.444-.072.16-.108.336-.108.528zm2.736-3.06h2.184V10h-2.184v-.684c-.464.584-1.092.876-1.884.876-.448 0-.86-.08-1.236-.24a3.058 3.058 0 01-.984-.696c-.28-.296-.5-.644-.66-1.044a3.653 3.653 0 01-.228-1.308c0-.44.076-.856.228-1.248.152-.4.364-.748.636-1.044.272-.296.596-.528.972-.696a2.907 2.907 0 011.248-.264c.768 0 1.404.268 1.908.804v-.612zm.804-2.748l-2.088 1.848-1.008-.744 1.716-2.1 1.38.996zm2.859 2.748h2.172v.78c.296-.36.596-.6.9-.72.304-.128.66-.192 1.068-.192.432 0 .8.072 1.104.216.312.136.576.332.792.588.176.208.296.44.36.696.064.256.096.548.096.876V10h-2.172V6.892a3 3 0 00-.072-.732.823.823 0 00-.552-.66c-.12-.04-.248-.06-.384-.06-.368 0-.652.112-.852.336-.192.216-.288.528-.288.936V10h-2.172V3.844zm16.69 1.992c-.376-.256-.756-.384-1.14-.384a1.6 1.6 0 00-.588.108 1.412 1.412 0 00-.468.312 1.4 1.4 0 00-.324.468 1.573 1.573 0 00-.108.6c0 .216.036.416.108.6.08.176.184.332.312.468.136.128.296.228.48.3a1.6 1.6 0 00.588.108c.408 0 .788-.14 1.14-.42v1.848c-.536.232-1.044.348-1.524.348-.448 0-.876-.076-1.284-.228a3.383 3.383 0 01-1.068-.648 3.352 3.352 0 01-.732-1.02 3.15 3.15 0 01-.276-1.332c0-.488.088-.932.264-1.332.176-.408.416-.756.72-1.044a3.148 3.148 0 011.08-.684 3.647 3.647 0 011.356-.252c.528 0 1.016.112 1.464.336v1.848zm3.291 1.056c0 .208.036.4.108.576.08.168.18.316.3.444.128.128.276.228.444.3a1.444 1.444 0 001.092 0c.176-.072.324-.172.444-.3.128-.128.228-.276.3-.444.08-.176.12-.364.12-.564 0-.192-.04-.372-.12-.54a1.37 1.37 0 00-.3-.456 1.245 1.245 0 00-.444-.3 1.444 1.444 0 00-1.092 0 1.404 1.404 0 00-.444.3c-.12.128-.22.276-.3.444a1.356 1.356 0 00-.108.54zm-2.292-.024c0-.456.092-.88.276-1.272.184-.4.44-.744.768-1.032a3.607 3.607 0 011.164-.696 4.272 4.272 0 011.488-.252c.528 0 1.016.084 1.464.252.456.16.848.388 1.176.684.336.288.596.636.78 1.044.184.4.276.844.276 1.332a3.186 3.186 0 01-1.056 2.388 3.512 3.512 0 01-1.188.672c-.456.16-.952.24-1.488.24-.528 0-1.016-.08-1.464-.24a3.445 3.445 0 01-1.164-.684 3.231 3.231 0 01-.756-1.056 3.374 3.374 0 01-.276-1.38zm8.643-3.024h2.172v1.008a2.44 2.44 0 01.852-.84c.336-.2.728-.3 1.176-.3h.18c.072 0 .152.008.24.024v2.076a2.064 2.064 0 00-.936-.216c-.504 0-.884.152-1.14.456-.248.296-.372.732-.372 1.308V10h-2.172V3.844zm5.589 0h2.172v1.008a2.44 2.44 0 01.852-.84c.336-.2.728-.3 1.176-.3h.18c.072 0 .152.008.24.024v2.076a2.064 2.064 0 00-.936-.216c-.504 0-.884.152-1.14.456-.248.296-.372.732-.372 1.308V10h-2.172V3.844zm10.161 2.184a1.307 1.307 0 00-.444-.732 1.244 1.244 0 00-.816-.276c-.336 0-.612.088-.828.264-.208.176-.34.424-.396.744h2.484zm-2.544 1.26c0 .936.44 1.404 1.32 1.404.472 0 .828-.192 1.068-.576h2.1c-.424 1.408-1.484 2.112-3.18 2.112-.52 0-.996-.076-1.428-.228a3.328 3.328 0 01-1.116-.672 3.007 3.007 0 01-.708-1.032 3.44 3.44 0 01-.252-1.344c0-.512.08-.972.24-1.38.16-.416.388-.768.684-1.056a2.971 2.971 0 011.068-.66c.424-.16.9-.24 1.428-.24.52 0 .988.08 1.404.24a2.78 2.78 0 011.056.672c.288.296.508.66.66 1.092.152.424.228.904.228 1.44v.228h-4.572zm10.457-1.452c-.376-.256-.756-.384-1.14-.384a1.6 1.6 0 00-.588.108 1.412 1.412 0 00-.468.312 1.4 1.4 0 00-.324.468 1.573 1.573 0 00-.108.6c0 .216.036.416.108.6.08.176.184.332.312.468.136.128.296.228.48.3a1.6 1.6 0 00.588.108c.408 0 .788-.14 1.14-.42v1.848c-.536.232-1.044.348-1.524.348-.448 0-.876-.076-1.284-.228a3.383 3.383 0 01-1.068-.648 3.352 3.352 0 01-.732-1.02 3.15 3.15 0 01-.276-1.332c0-.488.088-.932.264-1.332.176-.408.416-.756.72-1.044a3.148 3.148 0 011.08-.684 3.647 3.647 0 011.356-.252c.528 0 1.016.112 1.464.336v1.848zm3.663-.18V10H206V5.656h-.72V3.844h.72V1.996h2.172v1.848h1.236v1.812h-1.236zm4.186 1.248c0 .2.036.388.108.564.072.168.168.316.288.444.128.128.276.228.444.3a1.475 1.475 0 001.104 0c.176-.072.324-.172.444-.3.128-.128.228-.276.3-.444.08-.168.12-.348.12-.54 0-.192-.04-.372-.12-.54a1.37 1.37 0 00-.3-.456 1.245 1.245 0 00-.444-.3 1.475 1.475 0 00-1.104 0 1.404 1.404 0 00-.444.3c-.12.128-.216.276-.288.444-.072.16-.108.336-.108.528zm2.736-3.06h2.184V10h-2.184v-.684c-.464.584-1.092.876-1.884.876-.448 0-.86-.08-1.236-.24a3.058 3.058 0 01-.984-.696c-.28-.296-.5-.644-.66-1.044a3.653 3.653 0 01-.228-1.308c0-.44.076-.856.228-1.248.152-.4.364-.748.636-1.044.272-.296.596-.528.972-.696a2.907 2.907 0 011.248-.264c.768 0 1.404.268 1.908.804v-.612zm7.742 1.584c-.4-.208-.792-.312-1.176-.312-.2 0-.364.04-.492.12a.371.371 0 00-.18.324c0 .072.008.132.024.18.024.04.068.08.132.12.072.04.172.076.3.108.136.032.312.072.528.12.6.12 1.048.336 1.344.648.296.304.444.696.444 1.176 0 .36-.072.684-.216.972a2.124 2.124 0 01-.6.732c-.256.192-.564.34-.924.444-.36.112-.756.168-1.188.168-.832 0-1.652-.236-2.46-.708l.792-1.536c.608.416 1.184.624 1.728.624a.85.85 0 00.492-.132c.128-.088.192-.2.192-.336a.432.432 0 00-.036-.192.256.256 0 00-.12-.144.818.818 0 00-.288-.12c-.12-.04-.28-.08-.48-.12-.672-.136-1.144-.336-1.416-.6-.264-.272-.396-.644-.396-1.116 0-.344.064-.652.192-.924.128-.28.312-.516.552-.708.24-.192.528-.34.864-.444a3.928 3.928 0 011.14-.156c.68 0 1.34.132 1.98.396l-.732 1.416zm1.917 3.42c0-.192.036-.372.108-.54a1.37 1.37 0 01.744-.756 1.444 1.444 0 011.092 0c.176.072.328.172.456.3s.228.28.3.456a1.444 1.444 0 010 1.092 1.37 1.37 0 01-.756.744 1.444 1.444 0 01-1.092 0 1.404 1.404 0 01-.852-1.296z" fill="#fff"/></svg>