<svg width="130" height="27" viewBox="0 0 130 27" fill="none" xmlns="http://www.w3.org/2000/svg"><rect x=".5" y=".5" width="129" height="26" rx="2.5" fill="#FFF98F" stroke="#FFFCCD"/><path d="M14.191 15.34h.45c.34 0 .643-.053.91-.16a1.891 1.891 0 001.09-1.1c.1-.26.15-.543.15-.85 0-.3-.05-.58-.15-.84-.1-.26-.243-.483-.43-.67a1.891 1.891 0 00-.67-.44 2.405 2.405 0 00-.9-.16h-.45v4.22zm-1.96-5.88h2.9c.514 0 .994.103 1.44.31.453.207.847.483 1.18.83.34.34.607.74.8 1.2.194.453.29.93.29 1.43 0 .493-.097.97-.29 1.43-.186.453-.45.853-.79 1.2a3.814 3.814 0 01-1.18.83 3.41 3.41 0 01-1.45.31h-2.9V9.46zm12.252 1.66h-2.33v1.26h2.2v1.66h-2.2v1.3h2.33V17h-4.29V9.46h4.29v1.66zm4.373 0V17h-1.96v-5.88h-1.61V9.46h5.18v1.66h-1.61zm6.871 0h-2.33v1.26h2.2v1.66h-2.2v1.3h2.33V17h-4.29V9.46h4.29v1.66zm-.37-3.58l-1.92 1.32-.76-.71 1.63-1.56 1.05.95zM37.242 17V9.46h1.96l3.62 4.61V9.46h1.95V17h-1.95l-3.62-4.61V17h-1.96zm14.67-7.54v5.88h2.35V17h-4.31V9.46h1.96zm7.874 4.74l-.88-2.51-.88 2.51h1.76zm.52 1.49h-2.8l-.45 1.31h-2.09l2.87-7.54h2.14l2.87 7.54h-2.09l-.45-1.31zm7.638-4.3a2.312 2.312 0 00-.64-.38 1.642 1.642 0 00-.62-.13c-.254 0-.46.06-.62.18a.56.56 0 00-.24.47c0 .133.04.243.12.33.08.087.183.163.31.23.133.06.28.113.44.16.166.047.33.097.49.15.64.213 1.106.5 1.4.86.3.353.45.817.45 1.39 0 .387-.067.737-.2 1.05a2.16 2.16 0 01-.57.81c-.247.22-.554.39-.92.51-.36.127-.77.19-1.23.19-.954 0-1.837-.283-2.65-.85l.84-1.58c.293.26.583.453.87.58.286.127.57.19.85.19.32 0 .556-.073.71-.22a.664.664 0 00.18-.79.59.59 0 00-.2-.23 1.463 1.463 0 00-.37-.2c-.147-.06-.327-.127-.54-.2-.254-.08-.504-.167-.75-.26-.24-.1-.457-.23-.65-.39-.187-.16-.34-.36-.46-.6-.114-.247-.17-.557-.17-.93s.06-.71.18-1.01c.126-.307.3-.567.52-.78.226-.22.5-.39.82-.51.326-.12.69-.18 1.09-.18.373 0 .763.053 1.17.16.406.1.796.25 1.17.45l-.78 1.53zm10.213-.27h-2.33v1.26h2.2v1.66h-2.2v1.3h2.33V17h-4.29V9.46h4.29v1.66zm5.653.27a2.312 2.312 0 00-.64-.38 1.642 1.642 0 00-.62-.13c-.253 0-.46.06-.62.18a.56.56 0 00-.24.47c0 .133.04.243.12.33.08.087.183.163.31.23.133.06.28.113.44.16.167.047.33.097.49.15.64.213 1.107.5 1.4.86.3.353.45.817.45 1.39 0 .387-.067.737-.2 1.05a2.16 2.16 0 01-.57.81c-.247.22-.553.39-.92.51-.36.127-.77.19-1.23.19-.953 0-1.837-.283-2.65-.85l.84-1.58c.293.26.583.453.87.58.287.127.57.19.85.19.32 0 .557-.073.71-.22a.664.664 0 00.18-.79.59.59 0 00-.2-.23 1.463 1.463 0 00-.37-.2c-.147-.06-.327-.127-.54-.2-.253-.08-.503-.167-.75-.26-.24-.1-.457-.23-.65-.39-.187-.16-.34-.36-.46-.6-.113-.247-.17-.557-.17-.93s.06-.71.18-1.01c.127-.307.3-.567.52-.78.227-.22.5-.39.82-.51.327-.12.69-.18 1.09-.18.373 0 .763.053 1.17.16.407.1.797.25 1.17.45l-.78 1.53zm5.334-.27V17h-1.96v-5.88h-1.61V9.46h5.18v1.66h-1.61zm6.33 3.08l-.88-2.51-.88 2.51h1.76zm.52 1.49h-2.8l-.45 1.31h-2.09l2.87-7.54h2.14l2.87 7.54h-2.09l-.45-1.31zm7.818-4.57h-2.36v1.26h2.15v1.66h-2.15V17h-1.96V9.46h4.32v1.66zm5.055 3.08l-.88-2.51-.88 2.51h1.76zm.52 1.49h-2.8l-.45 1.31h-2.09l2.87-7.54h2.14l2.87 7.54h-2.09l-.45-1.31zm7.638-4.3a2.312 2.312 0 00-.64-.38 1.64 1.64 0 00-.62-.13c-.253 0-.46.06-.62.18a.56.56 0 00-.24.47c0 .133.04.243.12.33.08.087.183.163.31.23.133.06.28.113.44.16.167.047.33.097.49.15.64.213 1.107.5 1.4.86.3.353.45.817.45 1.39 0 .387-.067.737-.2 1.05a2.168 2.168 0 01-.57.81c-.247.22-.553.39-.92.51-.36.127-.77.19-1.23.19-.953 0-1.837-.283-2.65-.85l.84-1.58c.293.26.583.453.87.58.287.127.57.19.85.19.32 0 .557-.073.71-.22a.664.664 0 00.18-.79.592.592 0 00-.2-.23 1.463 1.463 0 00-.37-.2 10.5 10.5 0 00-.54-.2c-.253-.08-.503-.167-.75-.26-.24-.1-.457-.23-.65-.39-.187-.16-.34-.36-.46-.6-.113-.247-.17-.557-.17-.93s.06-.71.18-1.01c.127-.307.3-.567.52-.78.227-.22.5-.39.82-.51.327-.12.69-.18 1.09-.18.373 0 .763.053 1.17.16.407.1.797.25 1.17.45l-.78 1.53z" fill="#484240"/></svg>