<svg width="230" height="114" viewBox="0 0 230 114" fill="none" xmlns="http://www.w3.org/2000/svg"><path d="M13.431 6.431c-.066-.396-.165-.528-.396-.627a7.853 7.853 0 00-2.409-.363c-2.475 0-3.696 1.122-3.696 2.805 0 2.178 2.244 2.772 4.752 3.531 3.135.957 6.633 2.145 6.633 7.095 0 5.412-4.224 7.524-9.273 7.524-2.97 0-6.303-.759-7.557-1.353v-6.435h3.696l.66 3.135c.099.429.132.495.561.594.396.099 1.518.363 2.772.363 2.673 0 4.158-1.056 4.158-3.069 0-2.112-1.881-2.772-4.092-3.399-3.267-.924-7.293-1.815-7.293-7.128 0-5.082 3.828-7.425 8.844-7.425 2.838 0 5.28.693 6.765 1.32v6.435l-3.729-.33-.396-2.673zm14.38-3.234c0 1.881-1.088 2.97-3.003 2.97-1.88 0-2.97-1.089-2.97-2.97 0-1.881 1.09-2.904 2.97-2.904 1.915 0 3.003 1.023 3.003 2.904zm-7.26 20.196l1.684-.231c.462-.066.527-.165.527-.66V12.8c0-.363-.099-.594-.428-.693l-1.782-.627.363-2.673h6.83v13.695c0 .528.034.594.528.66l1.683.231V26h-9.404v-2.607zm30.742 1.683c-1.42.693-3.498 1.32-5.38 1.32-3.926 0-5.411-1.584-5.411-5.313v-8.646c0-.198 0-.33-.264-.33h-2.31V9.17c2.904-.33 4.059-1.782 4.422-5.379h3.135v4.686c0 .231 0 .33.264.33h4.653v3.3h-4.917v7.887c0 1.947.462 2.706 2.244 2.706.924 0 1.88-.231 2.673-.528l.89 2.904zm16.213-.363c-2.046.99-4.29 1.683-6.765 1.683-6.369 0-8.547-3.96-8.547-9.108 0-5.973 3.663-8.811 8.184-8.811 4.356 0 7.26 2.277 7.26 7.986 0 .396-.033 1.551-.066 2.211H57.474c.165 2.343 1.188 3.894 3.894 3.894 1.287 0 2.673-.297 4.917-1.122l1.221 3.267zm-4.752-9.174c-.033-2.772-1.122-3.498-2.475-3.498-1.419 0-2.574.792-2.772 3.498h5.247zm22.59 10.857c-6.039 0-8.48-3.696-8.48-8.877 0-5.478 2.87-9.042 8.91-9.042 6.104 0 8.48 3.63 8.48 8.679 0 5.61-2.838 9.24-8.91 9.24zm.231-3.465c2.145 0 3.465-1.485 3.465-5.61 0-3.894-1.188-5.28-3.333-5.28-2.178 0-3.63 1.353-3.63 5.313 0 3.993 1.287 5.577 3.498 5.577zm10.793.429l1.848-.198c.462-.066.528-.198.528-.693V12.437c0-.198 0-.33-.264-.33h-2.211v-3.3h2.475V6.992c0-4.455 2.508-6.303 7.062-6.303 3.069 0 5.907.759 5.907 4.752l-4.62.561c.033-1.683-.429-2.079-1.518-2.079-1.65 0-1.848.891-1.848 2.475v2.079c0 .231 0 .33.264.33h5.214v3.3h-5.478V22.37c0 .528.099.627.594.66l4.026.363V26H96.368v-2.64zm14.702-.033l1.485-.198c.462-.066.528-.165.528-.66V12.8c0-.363-.099-.594-.429-.693l-1.782-.627.363-2.673h5.808l.396 2.64h.198c1.089-1.683 2.541-2.97 4.653-2.97.759 0 2.277.132 2.871.297v6.006l-3.96-.132-.33-1.749c-.066-.297-.165-.363-.429-.363-.858 0-1.881.726-2.376 1.155v8.745c0 .528.033.627.528.66l3.267.264V26H111.07v-2.673zm31.112 1.386c-2.046.99-4.29 1.683-6.765 1.683-6.369 0-8.547-3.96-8.547-9.108 0-5.973 3.663-8.811 8.184-8.811 4.356 0 7.26 2.277 7.26 7.986 0 .396-.033 1.551-.066 2.211H132.15c.165 2.343 1.188 3.894 3.894 3.894 1.287 0 2.673-.297 4.917-1.122l1.221 3.267zm-4.752-9.174c-.033-2.772-1.122-3.498-2.475-3.498-1.419 0-2.574.792-2.772 3.498h5.247zm21.927 9.24c-1.518.924-3.861 1.617-6.27 1.617-5.973 0-8.646-3.729-8.646-8.745 0-6.171 3.762-9.174 9.042-9.174 2.574 0 4.851.726 5.874 1.386v5.181l-3.531-.165-.396-2.178c-.033-.231-.099-.429-.396-.528-.396-.132-1.023-.231-1.683-.231-1.98 0-3.663 1.353-3.663 5.214 0 4.29 1.914 5.511 4.257 5.511 1.65 0 3.135-.528 4.125-.957l1.287 3.069zm17.129-.066c-2.046.99-4.29 1.683-6.765 1.683-6.369 0-8.547-3.96-8.547-9.108 0-5.973 3.663-8.811 8.184-8.811 4.356 0 7.26 2.277 7.26 7.986 0 .396-.033 1.551-.066 2.211h-10.098c.165 2.343 1.188 3.894 3.894 3.894 1.287 0 2.673-.297 4.917-1.122l1.221 3.267zm-4.752-9.174c-.033-2.772-1.122-3.498-2.475-3.498-1.419 0-2.574.792-2.772 3.498h5.247zm19.252-.198c0-1.584-.099-2.904-1.749-2.904-1.221 0-2.739.693-3.432 1.221v8.844c0 .528.033.594.528.66l1.584.231V26h-9.108v-2.64l1.485-.198c.462-.066.528-.165.528-.66V12.8c0-.363-.099-.594-.429-.693l-1.782-.627.396-2.673h5.775l.264 1.716.132.066c1.65-1.221 3.564-2.112 5.808-2.112 3.597 0 4.983 1.98 4.983 5.61v8.415c0 .528.033.594.528.66l1.65.231V26h-7.161V15.341zM16.203 64.713c-2.046.99-4.29 1.683-6.765 1.683-6.369 0-8.547-3.96-8.547-9.108 0-5.973 3.663-8.811 8.184-8.811 4.356 0 7.26 2.277 7.26 7.986 0 .396-.033 1.551-.066 2.211H6.171c.165 2.343 1.188 3.894 3.894 3.894 1.287 0 2.673-.297 4.917-1.122l1.221 3.267zm-4.752-9.174c-.033-2.772-1.122-3.498-2.475-3.498-1.419 0-2.574.792-2.772 3.498h5.247zm15.294 14.817l2.838-.231c.528-.033.66-.165.66-.594v-4.818l-.165-.066c-1.155.99-2.739 1.749-4.785 1.749-3.894 0-6.567-2.475-6.567-8.646 0-6.765 3.465-9.273 7.062-9.273 1.98 0 3.531.792 4.785 1.881l.495-1.551h4.323a50.368 50.368 0 00-.264 5.346v15.378c0 .495.033.561.528.627l1.551.231v2.607h-10.46v-2.64zm3.4-16.995c-.826-.561-1.882-1.056-2.905-1.056-2.376 0-3.333 2.277-3.333 5.214 0 3.201.891 4.983 3.102 4.983 1.122 0 2.244-.594 3.135-1.353v-7.788zm21.01 10.857l-.165-.033c-1.353 1.023-3.069 2.211-5.874 2.211-3.465 0-4.785-1.98-4.785-5.808v-8.052c0-.528-.033-.594-.528-.693l-1.584-.33.33-2.706h6.765V59.73c0 2.013.33 2.772 1.75 2.772 1.451 0 2.64-.825 3.398-1.518v-8.481c0-.528-.033-.561-.528-.66l-1.419-.33.363-2.706h6.567v13.695c0 .429.066.561.462.627l1.65.231V66H51.42l-.264-1.782zM66.37 43.197c0 1.881-1.089 2.97-3.003 2.97-1.881 0-2.97-1.089-2.97-2.97 0-1.881 1.089-2.904 2.97-2.904 1.914 0 3.003 1.023 3.003 2.904zm-7.26 20.196l1.683-.231c.462-.066.528-.165.528-.66V52.8c0-.363-.099-.594-.429-.693l-1.782-.627.363-2.673h6.831v13.695c0 .528.033.594.528.66l1.683.231V66H59.11v-2.607zm10.936 6.963l1.32-.198c.462-.066.594-.198.594-.693V52.8c0-.363-.066-.561-.429-.693l-1.749-.627.363-2.673h5.808l.297 1.683.165.066c1.584-1.287 3.73-2.079 5.61-2.079 3.696 0 6.336 2.31 6.336 8.448 0 3.96-1.353 9.471-6.798 9.471-1.716 0-3.267-.561-4.653-1.65v4.686c0 .528.033.627.528.66l3.366.297v2.607H70.046v-2.64zm6.864-9.075c.726.627 1.881 1.254 3.102 1.254 2.211 0 3.135-2.112 3.135-5.346 0-3.399-1.155-4.785-2.805-4.785-1.386 0-2.706.693-3.432 1.188v7.689zm22.155 5.115c-6.039 0-8.481-3.696-8.481-8.877 0-5.478 2.871-9.042 8.91-9.042 6.105 0 8.481 3.63 8.481 8.679 0 5.61-2.838 9.24-8.91 9.24zm.231-3.465c2.145 0 3.465-1.485 3.465-5.61 0-3.894-1.188-5.28-3.333-5.28-2.178 0-3.63 1.353-3.63 5.313 0 3.993 1.287 5.577 3.498 5.577zm38.65-7.59c0-1.287-.132-2.838-1.848-2.838-.924 0-1.815.33-2.673.891.066.528.099 1.056.099 1.617v7.491c0 .561.033.627.528.693l1.32.198V66h-6.831V55.176c0-1.221-.099-2.673-1.749-2.673-.99 0-2.079.495-2.739 1.056v8.943c0 .528.033.594.528.66l1.617.231V66h-9.141v-2.607l1.485-.231c.462-.066.528-.165.528-.66V52.8c0-.363-.099-.594-.429-.693l-1.782-.627.363-2.673h5.808l.264 1.716.165.033c1.485-1.221 3.168-2.079 5.28-2.079 1.617 0 3.102.429 4.026 1.98 1.089-.858 3.003-1.98 5.313-1.98 3.531 0 4.851 1.749 4.851 5.577v8.448c0 .528.033.627.528.693l1.65.198V66h-7.161V55.341zm24.112 9.372c-2.046.99-4.29 1.683-6.765 1.683-6.369 0-8.547-3.96-8.547-9.108 0-5.973 3.663-8.811 8.184-8.811 4.356 0 7.26 2.277 7.26 7.986 0 .396-.033 1.551-.066 2.211h-10.098c.165 2.343 1.188 3.894 3.894 3.894 1.287 0 2.673-.297 4.917-1.122l1.221 3.267zm-4.752-9.174c-.033-2.772-1.122-3.498-2.475-3.498-1.419 0-2.574.792-2.772 3.498h5.247zm-6.204-9.702l5.049-5.742 2.706 2.574-5.907 4.818-1.848-1.65zm25.524 18.315l-.231-.033c-1.386 1.353-3.003 2.277-5.412 2.277-3.894 0-6.402-2.475-6.402-8.778 0-6.633 3.333-9.141 6.996-9.141 1.914 0 3.399.66 4.653 1.584v-5.016c0-.33-.132-.561-.429-.66l-1.815-.627.363-2.673h6.633v21.45c0 .495.033.561.528.627l1.584.231V66h-6.138l-.33-1.848zm-.594-10.857c-.825-.561-1.881-.99-2.838-.99-2.442 0-3.399 2.277-3.399 5.214 0 3.201.924 4.983 3.003 4.983 1.122 0 2.343-.66 3.234-1.419v-7.788zm15.818-10.098c0 1.881-1.089 2.97-3.003 2.97-1.881 0-2.97-1.089-2.97-2.97 0-1.881 1.089-2.904 2.97-2.904 1.914 0 3.003 1.023 3.003 2.904zm-7.26 20.196l1.683-.231c.462-.066.528-.165.528-.66V52.8c0-.363-.099-.594-.429-.693l-1.782-.627.363-2.673h6.831v13.695c0 .528.033.594.528.66l1.683.231V66h-9.405v-2.607zm25.918 1.386c-1.518.924-3.861 1.617-6.27 1.617-5.973 0-8.646-3.729-8.646-8.745 0-6.171 3.762-9.174 9.042-9.174 2.574 0 4.851.726 5.874 1.386v5.181l-3.531-.165-.396-2.178c-.033-.231-.099-.429-.396-.528-.396-.132-1.023-.231-1.683-.231-1.98 0-3.663 1.353-3.663 5.214 0 4.29 1.914 5.511 4.257 5.511 1.65 0 3.135-.528 4.125-.957l1.287 3.069zm10.299 1.617c-6.039 0-8.481-3.696-8.481-8.877 0-5.478 2.871-9.042 8.91-9.042 6.105 0 8.481 3.63 8.481 8.679 0 5.61-2.838 9.24-8.91 9.24zm.231-3.465c2.145 0 3.465-1.485 3.465-5.61 0-3.894-1.188-5.28-3.333-5.28-2.178 0-3.63 1.353-3.63 5.313 0 3.993 1.287 5.577 3.498 5.577zM5.61 88.279c-2.343-.033-4.29-.297-4.29-2.409 0-.66.264-1.386.627-2.112l1.584-3.333 2.079.627-.759 3.267c-.066.231-.033.297.165.363l1.254.429-.66 3.168zm5.94 0c-2.343-.033-4.29-.297-4.29-2.409 0-.66.264-1.386.627-2.112l1.584-3.333 2.079.627-.759 3.267c-.066.231-.033.297.165.363l1.254.429-.66 3.168zm15.307 3.564c.594.759 1.22 1.815 1.22 3.333 0 3.663-2.87 5.808-7.028 5.808-1.056 0-2.013-.132-2.607-.297l-1.09 1.749 3.235.198c5.742.363 9.075.528 9.075 4.917 0 3.795-3.333 5.94-9.075 5.94-5.973 0-8.25-1.518-8.25-4.125 0-1.485.66-2.277 1.815-3.366-1.09-.462-1.452-1.287-1.452-2.178 0-.726.363-1.386.957-2.013a40.49 40.49 0 012.046-1.98c-1.617-.792-2.838-2.508-2.838-4.95 0-3.795 2.508-6.402 7.557-6.402 1.419 0 2.277.132 3.036.33h6.435v2.805l-3.036.231zm-3.135 2.871c0-1.947-1.122-2.97-3.003-2.97-1.815 0-3.168.891-3.168 3.036 0 1.617.89 2.739 3.069 2.739 1.848 0 3.102-1.089 3.102-2.805zm-6.633 12.177c-.43.528-.858 1.089-.858 1.749 0 1.32 1.683 1.716 3.993 1.716 1.914 0 4.52-.132 4.52-1.914 0-1.056-1.253-1.122-2.837-1.221l-4.818-.33zm14.432-3.564l1.485-.198c.462-.066.528-.165.528-.66V92.8c0-.363-.1-.594-.43-.693l-1.781-.627.363-2.673h5.808l.396 2.64h.198c1.089-1.683 2.54-2.97 4.653-2.97.759 0 2.277.132 2.87.297v6.006l-3.96-.132-.33-1.749c-.065-.297-.164-.363-.428-.363-.858 0-1.881.726-2.376 1.155v8.745c0 .528.033.627.528.66l3.267.264V106H31.52v-2.673zm25.848.891l-.165-.033c-1.254 1.221-2.904 2.211-5.544 2.211-4.158 0-4.818-2.838-4.818-4.884 0-3.3 2.013-4.785 6.17-5.082l3.796-.264v-1.815c0-1.551-.165-2.607-2.211-2.607-1.584 0-2.41.231-2.41 2.211l-4.652-.396c0-4.455 4.059-5.082 7.095-5.082 5.016 0 7.029 1.353 7.029 5.973v8.019c0 .528.033.594.528.66l1.584.264V106h-6.072l-.33-1.782zm-2.805-5.148c-1.947.132-2.64.627-2.64 1.947s.792 1.815 1.88 1.815c1.123 0 2.245-.627 3.004-1.188v-2.739l-2.244.165zm23.195 6.006c-1.42.693-3.498 1.32-5.38 1.32-3.926 0-5.411-1.584-5.411-5.313v-8.646c0-.198 0-.33-.264-.33h-2.31V89.17c2.904-.33 4.059-1.782 4.422-5.379h3.135v4.686c0 .231 0 .33.264.33h4.653v3.3H71.95v7.887c0 1.947.462 2.706 2.244 2.706.924 0 1.88-.231 2.673-.528l.89 2.904zm8.994-21.879c0 1.881-1.09 2.97-3.003 2.97-1.881 0-2.97-1.089-2.97-2.97 0-1.881 1.089-2.904 2.97-2.904 1.914 0 3.003 1.023 3.003 2.904zm-7.26 20.196l1.683-.231c.462-.066.528-.165.528-.66V92.8c0-.363-.1-.594-.43-.693l-1.781-.627.363-2.673h6.83v13.695c0 .528.034.594.529.66l1.683.231V106h-9.405v-2.607zm20.935-11.121c-.066-.297-.099-.396-.33-.462-.429-.132-1.221-.264-2.112-.264-1.65 0-2.574.627-2.574 1.683 0 1.353 1.815 1.65 3.828 2.112 2.607.594 5.544 1.518 5.544 5.379 0 4.026-3.267 5.676-7.458 5.676-3.003 0-5.94-.792-6.534-1.188v-4.785l3.531.264.33 1.881c.066.297.099.396.396.495.396.132 1.287.33 2.541.33 1.749 0 2.739-.495 2.739-1.716 0-1.32-1.32-1.716-3.003-2.013-2.772-.495-6.402-1.089-6.402-5.412 0-4.092 3.498-5.775 7.293-5.775 2.607 0 5.148.594 6.072.957v4.785l-3.531-.231-.33-1.716zm7.517-7.854c.066-.297.033-.363-.165-.429l-1.254-.396.66-3.168c2.343.033 4.29.264 4.29 2.409 0 .66-.231 1.386-.594 2.112l-1.584 3.333-2.112-.627.759-3.234zm5.94 0c.066-.297.033-.363-.165-.429l-1.254-.396.66-3.168c2.343.033 4.29.264 4.29 2.409 0 .66-.231 1.386-.594 2.112l-1.584 3.333-2.112-.627.759-3.234zm12.483 19.404c0 1.683-.924 2.574-2.805 2.574-1.914 0-2.838-.858-2.838-2.574 0-1.683.924-2.574 2.838-2.574 1.848 0 2.805.891 2.805 2.574zm9.289 0c0 1.683-.924 2.574-2.805 2.574-1.914 0-2.838-.858-2.838-2.574 0-1.683.924-2.574 2.838-2.574 1.848 0 2.805.891 2.805 2.574zm9.289 0c0 1.683-.924 2.574-2.805 2.574-1.914 0-2.838-.858-2.838-2.574 0-1.683.924-2.574 2.838-2.574 1.848 0 2.805.891 2.805 2.574z" fill="#2B3D51"/></svg>