<svg width="594" height="32" viewBox="0 0 594 32" fill="none" xmlns="http://www.w3.org/2000/svg"><path d="M.376 25v-5.824h5.92V25H.376zm9.039 0v-5.824h5.92V25h-5.92zm9.038 0v-5.824h5.92V25h-5.92zm18.993 6.912V13.16a38.674 38.674 0 00-.256-4.416h5.504l.352 2.88h-.32c.299-.96.96-1.739 1.984-2.336 1.024-.597 2.166-.896 3.424-.896 1.408 0 2.646.341 3.712 1.024 1.067.661 1.899 1.632 2.496 2.912.619 1.259.928 2.773.928 4.544 0 1.75-.31 3.264-.928 4.544-.597 1.28-1.43 2.261-2.496 2.944-1.066.661-2.304.992-3.712.992-1.237 0-2.357-.277-3.36-.832-1.002-.576-1.664-1.333-1.984-2.272h.352v9.664h-5.696zm8.864-10.784c.982 0 1.76-.33 2.336-.992.598-.683.896-1.77.896-3.264 0-1.493-.298-2.57-.896-3.232-.576-.683-1.354-1.024-2.336-1.024-.96 0-1.738.341-2.336 1.024-.597.661-.896 1.739-.896 3.232s.299 2.581.896 3.264c.598.661 1.376.992 2.336.992zM58.36 25V8.744h5.696V25H58.36zm-.128-18.56V1.32h5.984v5.12h-5.984zm16.13 18.912c-1.386 0-2.623-.33-3.711-.992-1.088-.683-1.942-1.664-2.56-2.944-.619-1.28-.928-2.795-.928-4.544 0-1.77.298-3.285.896-4.544.618-1.28 1.472-2.25 2.56-2.912 1.11-.683 2.357-1.024 3.744-1.024 1.237 0 2.357.288 3.36.864 1.002.555 1.674 1.301 2.016 2.24h-.48V1.448h5.696V25h-5.6v-2.912h.416c-.299.981-.96 1.77-1.984 2.368-1.003.597-2.144.896-3.424.896zm1.825-4.224c.938 0 1.706-.33 2.304-.992.618-.683.928-1.77.928-3.264 0-1.493-.31-2.57-.928-3.232-.598-.683-1.366-1.024-2.304-1.024-.96 0-1.75.341-2.368 1.024-.598.661-.896 1.739-.896 3.232s.298 2.581.896 3.264c.618.661 1.408.992 2.368.992zM88.813 25V8.744h5.695V25h-5.695zm-.129-18.56V1.32h5.984v5.12h-5.984zm18.243 18.912c-2.944 0-5.237-.757-6.88-2.272-1.621-1.515-2.432-3.595-2.432-6.24 0-1.643.342-3.104 1.024-4.384a7.305 7.305 0 012.88-2.976c1.238-.725 2.688-1.088 4.352-1.088 1.643 0 3.008.363 4.096 1.088 1.11.704 1.942 1.685 2.496 2.944.555 1.237.832 2.677.832 4.32v1.216h-10.912v-2.688h6.72l-.544.448c0-1.216-.234-2.112-.704-2.688-.448-.597-1.088-.896-1.92-.896-.96 0-1.696.363-2.208 1.088-.49.704-.736 1.77-.736 3.2V17c0 1.43.352 2.475 1.056 3.136.704.661 1.718.992 3.04.992.854 0 1.654-.096 2.4-.288a7.52 7.52 0 002.176-.928l1.472 3.712c-.81.555-1.749.981-2.816 1.28a12.52 12.52 0 01-3.392.448zm-2.88-18.176l3.232-6.56h5.344l-4.928 6.56h-3.648zM116.327 25V13.16a38.4 38.4 0 00-.256-4.416h5.504l.32 2.816h-.352c.534-1.024 1.291-1.803 2.272-2.336.982-.555 2.091-.832 3.328-.832 1.899 0 3.318.565 4.256 1.696.96 1.11 1.44 2.848 1.44 5.216V25h-5.696v-9.44c0-1.045-.181-1.77-.544-2.176-.362-.427-.885-.64-1.568-.64-.896 0-1.621.299-2.176.896-.554.576-.832 1.344-.832 2.304V25h-5.696zm26.722.352c-1.387 0-2.624-.33-3.712-.992-1.088-.683-1.941-1.664-2.56-2.944s-.928-2.795-.928-4.544c0-1.77.299-3.285.896-4.544.619-1.28 1.472-2.25 2.56-2.912 1.109-.683 2.357-1.024 3.744-1.024 1.237 0 2.357.288 3.36.864 1.003.555 1.675 1.301 2.016 2.24h-.48V1.448h5.696V25h-5.6v-2.912h.416c-.299.981-.96 1.77-1.984 2.368-1.003.597-2.144.896-3.424.896zm1.824-4.224c.939 0 1.707-.33 2.304-.992.619-.683.928-1.77.928-3.264 0-1.493-.309-2.57-.928-3.232-.597-.683-1.365-1.024-2.304-1.024-.96 0-1.749.341-2.368 1.024-.597.661-.896 1.739-.896 3.232s.299 2.581.896 3.264c.619.661 1.408.992 2.368.992zm20.754 4.224c-1.814 0-3.382-.341-4.704-1.024-1.323-.683-2.347-1.653-3.072-2.912-.726-1.28-1.088-2.795-1.088-4.544 0-1.77.362-3.285 1.088-4.544.725-1.259 1.749-2.23 3.072-2.912 1.322-.683 2.89-1.024 4.704-1.024 1.792 0 3.349.341 4.672 1.024a7.312 7.312 0 013.072 2.944c.725 1.259 1.088 2.763 1.088 4.512 0 1.728-.363 3.232-1.088 4.512a7.312 7.312 0 01-3.072 2.944c-1.323.683-2.88 1.024-4.672 1.024zm0-4.224c.938 0 1.685-.33 2.24-.992.554-.683.832-1.77.832-3.264 0-1.493-.278-2.57-.832-3.232-.555-.683-1.302-1.024-2.24-1.024-.96 0-1.718.341-2.272 1.024-.555.661-.832 1.739-.832 3.232s.277 2.581.832 3.264c.554.661 1.312.992 2.272.992zm20.105 4.224c-2.304 0-4.042-.544-5.216-1.632-1.152-1.11-1.728-2.784-1.728-5.024v-5.76h-3.04V8.744h3.04v-3.84l5.696-1.344v5.184h3.968v4.192h-3.968v5.536c0 .939.214 1.568.64 1.888.427.299.939.448 1.536.448.363 0 .672-.021.928-.064.278-.064.566-.15.864-.256v4.384c-.469.192-.938.32-1.408.384a9.27 9.27 0 01-1.312.096zm13.67 0c-2.944 0-5.237-.757-6.88-2.272-1.621-1.515-2.432-3.595-2.432-6.24 0-1.643.342-3.104 1.024-4.384a7.308 7.308 0 012.88-2.976c1.238-.725 2.688-1.088 4.352-1.088 1.643 0 3.008.363 4.096 1.088 1.11.704 1.942 1.685 2.496 2.944.555 1.237.832 2.677.832 4.32v1.216h-10.912v-2.688h6.72l-.544.448c0-1.216-.234-2.112-.704-2.688-.448-.597-1.088-.896-1.92-.896-.96 0-1.696.363-2.208 1.088-.49.704-.736 1.77-.736 3.2V17c0 1.43.352 2.475 1.056 3.136.704.661 1.718.992 3.04.992.854 0 1.654-.096 2.4-.288a7.52 7.52 0 002.176-.928l1.472 3.712c-.81.555-1.749.981-2.816 1.28a12.52 12.52 0 01-3.392.448zm27.291 0c-2.304 0-4.043-.544-5.216-1.632-1.152-1.11-1.728-2.784-1.728-5.024v-5.76h-3.04V8.744h3.04v-3.84l5.696-1.344v5.184h3.968v4.192h-3.968v5.536c0 .939.213 1.568.64 1.888.426.299.938.448 1.536.448.362 0 .672-.021.928-.064.277-.064.565-.15.864-.256v4.384c-.47.192-.939.32-1.408.384a9.28 9.28 0 01-1.312.096zm11.233 0c-2.069 0-3.605-.565-4.608-1.696-.981-1.152-1.472-2.89-1.472-5.216V8.744h5.696v9.728c0 .853.171 1.493.512 1.92.363.405.907.608 1.632.608.811 0 1.472-.288 1.984-.864.534-.597.8-1.376.8-2.336V8.744h5.696V25h-5.536v-2.912h.48c-.512 1.045-1.205 1.856-2.08 2.432-.874.555-1.909.832-3.104.832zM261.614 25V13.16c0-.725-.022-1.461-.064-2.208a37.481 37.481 0 00-.192-2.208h5.504l.32 2.816h-.352c.533-1.024 1.29-1.803 2.272-2.336.981-.555 2.09-.832 3.328-.832 1.898 0 3.317.565 4.256 1.696.96 1.11 1.44 2.848 1.44 5.216V25h-5.696v-9.44c0-1.045-.182-1.77-.544-2.176-.363-.427-.886-.64-1.568-.64-.896 0-1.622.299-2.176.896-.555.576-.832 1.344-.832 2.304V25h-5.696zm26.241.352c-2.069 0-3.605-.565-4.608-1.696-.981-1.152-1.472-2.89-1.472-5.216V8.744h5.696v9.728c0 .853.171 1.493.512 1.92.363.405.907.608 1.632.608.811 0 1.472-.288 1.984-.864.534-.597.8-1.376.8-2.336V8.744h5.696V25h-5.536v-2.912h.48c-.512 1.045-1.205 1.856-2.08 2.432-.874.555-1.909.832-3.104.832zm.288-18.176l3.232-6.56h5.344l-4.928 6.56h-3.648zM301.972 25V13.16a38.4 38.4 0 00-.256-4.416h5.504l.32 2.816h-.352a5.315 5.315 0 012.08-2.304c.918-.576 1.995-.864 3.232-.864 1.195 0 2.208.288 3.04.864.854.555 1.472 1.44 1.856 2.656h-.544c.534-1.11 1.302-1.973 2.304-2.592 1.024-.619 2.166-.928 3.424-.928 1.856 0 3.243.565 4.16 1.696.918 1.11 1.376 2.848 1.376 5.216V25h-5.728v-9.504c0-1.003-.149-1.707-.448-2.112-.298-.427-.778-.64-1.44-.64-.832 0-1.482.299-1.952.896-.448.597-.672 1.419-.672 2.464V25h-5.696v-9.504c0-1.003-.16-1.707-.48-2.112-.298-.427-.768-.64-1.408-.64-.832 0-1.482.299-1.952.896-.448.597-.672 1.419-.672 2.464V25h-5.696zm38.459.352c-2.944 0-5.237-.757-6.88-2.272-1.621-1.515-2.432-3.595-2.432-6.24 0-1.643.341-3.104 1.024-4.384a7.308 7.308 0 012.88-2.976c1.237-.725 2.688-1.088 4.352-1.088 1.643 0 3.008.363 4.096 1.088 1.109.704 1.941 1.685 2.496 2.944.555 1.237.832 2.677.832 4.32v1.216h-10.912v-2.688h6.72l-.544.448c0-1.216-.235-2.112-.704-2.688-.448-.597-1.088-.896-1.92-.896-.96 0-1.696.363-2.208 1.088-.491.704-.736 1.77-.736 3.2V17c0 1.43.352 2.475 1.056 3.136.704.661 1.717.992 3.04.992.853 0 1.653-.096 2.4-.288a7.531 7.531 0 002.176-.928l1.472 3.712c-.811.555-1.749.981-2.816 1.28a12.525 12.525 0 01-3.392.448zm9.4-.352V13.192a38.952 38.952 0 00-.256-4.448h5.504l.608 4.992h-.864c.214-1.216.555-2.219 1.024-3.008.47-.79 1.056-1.376 1.76-1.76.704-.384 1.536-.576 2.496-.576.448 0 .779.021.992.064.235.021.48.085.736.192v4.992c-.533-.235-.96-.384-1.28-.448-.32-.064-.736-.096-1.248-.096-.874 0-1.589.16-2.144.48-.554.299-.96.768-1.216 1.408-.234.64-.352 1.461-.352 2.464V25h-5.76zm21.886.352c-1.814 0-3.382-.341-4.704-1.024-1.323-.683-2.347-1.653-3.072-2.912-.726-1.28-1.088-2.795-1.088-4.544 0-1.77.362-3.285 1.088-4.544.725-1.259 1.749-2.23 3.072-2.912 1.322-.683 2.89-1.024 4.704-1.024 1.792 0 3.349.341 4.672 1.024a7.312 7.312 0 013.072 2.944c.725 1.259 1.088 2.763 1.088 4.512 0 1.728-.363 3.232-1.088 4.512a7.312 7.312 0 01-3.072 2.944c-1.323.683-2.88 1.024-4.672 1.024zm0-4.224c.938 0 1.685-.33 2.24-.992.554-.683.832-1.77.832-3.264 0-1.493-.278-2.57-.832-3.232-.555-.683-1.302-1.024-2.24-1.024-.96 0-1.718.341-2.272 1.024-.555.661-.832 1.739-.832 3.232s.277 2.581.832 3.264c.554.661 1.312.992 2.272.992zm27.976 4.224c-1.387 0-2.624-.33-3.712-.992-1.088-.683-1.942-1.664-2.56-2.944-.619-1.28-.928-2.795-.928-4.544 0-1.77.298-3.285.896-4.544.618-1.28 1.472-2.25 2.56-2.912 1.109-.683 2.357-1.024 3.744-1.024 1.237 0 2.357.288 3.36.864 1.002.555 1.674 1.301 2.016 2.24h-.48V1.448h5.696V25h-5.6v-2.912h.416c-.299.981-.96 1.77-1.984 2.368-1.003.597-2.144.896-3.424.896zm1.824-4.224c.938 0 1.706-.33 2.304-.992.618-.683.928-1.77.928-3.264 0-1.493-.31-2.57-.928-3.232-.598-.683-1.366-1.024-2.304-1.024-.96 0-1.75.341-2.368 1.024-.598.661-.896 1.739-.896 3.232s.298 2.581.896 3.264c.618.661 1.408.992 2.368.992zm21.202 4.224c-2.944 0-5.238-.757-6.88-2.272-1.622-1.515-2.432-3.595-2.432-6.24 0-1.643.341-3.104 1.024-4.384a7.295 7.295 0 012.88-2.976c1.237-.725 2.688-1.088 4.352-1.088 1.642 0 3.008.363 4.096 1.088 1.109.704 1.941 1.685 2.496 2.944.554 1.237.832 2.677.832 4.32v1.216h-10.912v-2.688h6.72l-.544.448c0-1.216-.235-2.112-.704-2.688-.448-.597-1.088-.896-1.92-.896-.96 0-1.696.363-2.208 1.088-.491.704-.736 1.77-.736 3.2V17c0 1.43.352 2.475 1.056 3.136.704.661 1.717.992 3.04.992.853 0 1.653-.096 2.4-.288a7.531 7.531 0 002.176-.928l1.472 3.712c-.811.555-1.75.981-2.816 1.28a12.53 12.53 0 01-3.392.448zM442.105 25V2.44h5.12l7.392 16.544h-1.056l7.36-16.544h5.152V25h-5.344V11.176h1.376L455.705 25h-3.328l-6.432-13.824h1.472V25h-5.312zm36.761.352c-2.944 0-5.237-.757-6.88-2.272-1.621-1.515-2.432-3.595-2.432-6.24 0-1.643.341-3.104 1.024-4.384a7.308 7.308 0 012.88-2.976c1.237-.725 2.688-1.088 4.352-1.088 1.643 0 3.008.363 4.096 1.088 1.109.704 1.941 1.685 2.496 2.944.555 1.237.832 2.677.832 4.32v1.216h-10.912v-2.688h6.72l-.544.448c0-1.216-.235-2.112-.704-2.688-.448-.597-1.088-.896-1.92-.896-.96 0-1.696.363-2.208 1.088-.491.704-.736 1.77-.736 3.2V17c0 1.43.352 2.475 1.056 3.136.704.661 1.717.992 3.04.992.853 0 1.653-.096 2.4-.288a7.531 7.531 0 002.176-.928l1.472 3.712c-.811.555-1.749.981-2.816 1.28a12.525 12.525 0 01-3.392.448zm15.864 0c-1.386 0-2.624-.33-3.712-.992-1.088-.683-1.941-1.664-2.56-2.944-.618-1.28-.928-2.795-.928-4.544 0-1.77.299-3.285.896-4.544.619-1.28 1.472-2.25 2.56-2.912 1.11-.683 2.358-1.024 3.744-1.024 1.238 0 2.358.288 3.36.864 1.003.555 1.675 1.301 2.016 2.24h-.48V1.448h5.696V25h-5.6v-2.912h.416c-.298.981-.96 1.77-1.984 2.368-1.002.597-2.144.896-3.424.896zm1.824-4.224c.939 0 1.707-.33 2.304-.992.619-.683.928-1.77.928-3.264 0-1.493-.309-2.57-.928-3.232-.597-.683-1.365-1.024-2.304-1.024-.96 0-1.749.341-2.368 1.024-.597.661-.896 1.739-.896 3.232s.299 2.581.896 3.264c.619.661 1.408.992 2.368.992zM509.18 25V8.744h5.696V25h-5.696zm-.128-18.56V1.32h5.984v5.12h-5.984zm17.891 18.912c-1.792 0-3.36-.341-4.704-1.024-1.344-.683-2.39-1.653-3.136-2.912-.747-1.28-1.12-2.805-1.12-4.576 0-1.77.373-3.285 1.12-4.544.746-1.259 1.792-2.219 3.136-2.88 1.344-.683 2.912-1.024 4.704-1.024 1.109 0 2.197.15 3.264.448 1.066.299 1.93.725 2.592 1.28l-1.6 3.872a5.227 5.227 0 00-1.76-.96 5.463 5.463 0 00-1.888-.352c-1.174 0-2.091.352-2.752 1.056-.64.704-.96 1.739-.96 3.104s.32 2.41.96 3.136c.661.704 1.578 1.056 2.752 1.056.597 0 1.226-.107 1.888-.32a6.098 6.098 0 001.76-.96l1.6 3.872c-.683.533-1.558.96-2.624 1.28a11.71 11.71 0 01-3.232.448zm14.902 0c-1.408 0-2.645-.33-3.712-.992-1.067-.683-1.909-1.664-2.528-2.944-.597-1.28-.896-2.795-.896-4.544 0-1.77.299-3.285.896-4.544.619-1.28 1.461-2.25 2.528-2.912 1.067-.683 2.304-1.024 3.712-1.024 1.259 0 2.389.299 3.392.896 1.024.597 1.696 1.376 2.016 2.336h-.32l.352-2.88h5.472l-.192 2.208a38.4 38.4 0 00-.064 2.208V25h-5.632l-.064-2.752h.384c-.32.939-.992 1.696-2.016 2.272-1.003.555-2.112.832-3.328.832zm1.824-4.224c.96 0 1.739-.33 2.336-.992.597-.683.896-1.77.896-3.264 0-1.493-.299-2.57-.896-3.232-.597-.683-1.376-1.024-2.336-1.024s-1.739.341-2.336 1.024c-.597.661-.896 1.739-.896 3.232s.288 2.581.864 3.264c.597.661 1.387.992 2.368.992zM556.359 25V13.192c0-.747-.022-1.493-.064-2.24a37.481 37.481 0 00-.192-2.208h5.504l.608 4.992h-.864c.213-1.216.554-2.219 1.024-3.008.469-.79 1.056-1.376 1.76-1.76.704-.384 1.536-.576 2.496-.576.448 0 .778.021.992.064.234.021.48.085.736.192v4.992c-.534-.235-.96-.384-1.28-.448-.32-.064-.736-.096-1.248-.096-.875 0-1.59.16-2.144.48-.555.299-.96.768-1.216 1.408-.235.64-.352 1.461-.352 2.464V25h-5.76zm22.333.352c-2.944 0-5.237-.757-6.88-2.272-1.621-1.515-2.432-3.595-2.432-6.24 0-1.643.342-3.104 1.024-4.384a7.308 7.308 0 012.88-2.976c1.238-.725 2.688-1.088 4.352-1.088 1.643 0 3.008.363 4.096 1.088 1.11.704 1.942 1.685 2.496 2.944.555 1.237.832 2.677.832 4.32v1.216h-10.912v-2.688h6.72l-.544.448c0-1.216-.234-2.112-.704-2.688-.448-.597-1.088-.896-1.92-.896-.96 0-1.696.363-2.208 1.088-.49.704-.736 1.77-.736 3.2V17c0 1.43.352 2.475 1.056 3.136.704.661 1.718.992 3.04.992.854 0 1.654-.096 2.4-.288a7.52 7.52 0 002.176-.928l1.472 3.712c-.81.555-1.749.981-2.816 1.28a12.52 12.52 0 01-3.392.448zm9.017-.352v-5.824h5.92V25h-5.92z" fill="#fff"/></svg>