<svg width="428" height="25" viewBox="0 0 428 25" fill="none" xmlns="http://www.w3.org/2000/svg"><path d="M8.768 4.768c-.048-.288-.12-.384-.288-.456a5.711 5.711 0 00-1.752-.264c-1.8 0-2.688.816-2.688 2.04 0 1.584 1.632 2.016 3.456 2.568 2.28.696 4.824 1.56 4.824 5.16 0 3.936-3.072 5.472-6.744 5.472-2.16 0-4.584-.552-5.496-.984v-4.68h2.688l.48 2.28c.072.312.096.36.408.432a8.616 8.616 0 002.016.264c1.944 0 3.024-.768 3.024-2.232 0-1.536-1.368-2.016-2.976-2.472-2.376-.672-5.304-1.32-5.304-5.184 0-3.696 2.784-5.4 6.432-5.4 2.064 0 3.84.504 4.92.96v4.68l-2.712-.24-.288-1.944zm10.459-2.352c0 1.368-.792 2.16-2.184 2.16-1.368 0-2.16-.792-2.16-2.16s.792-2.112 2.16-2.112c1.392 0 2.184.744 2.184 2.112zm-5.28 14.688l1.224-.168c.336-.048.384-.12.384-.48V9.4c0-.264-.072-.432-.312-.504l-1.296-.456.264-1.944h4.968v9.96c0 .384.024.432.384.48l1.224.168V19h-6.84v-1.896zm22.357 1.224c-1.032.504-2.544.96-3.912.96-2.856 0-3.936-1.152-3.936-3.864V9.136c0-.144 0-.24-.192-.24h-1.68V6.76c2.112-.24 2.952-1.296 3.216-3.912h2.28v3.408c0 .168 0 .24.192.24h3.384v2.4H32.08v5.736c0 1.416.336 1.968 1.632 1.968.672 0 1.368-.168 1.944-.384l.648 2.112zm11.792-.264c-1.488.72-3.12 1.224-4.92 1.224-4.632 0-6.216-2.88-6.216-6.624 0-4.344 2.664-6.408 5.952-6.408 3.168 0 5.28 1.656 5.28 5.808 0 .288-.024 1.128-.048 1.608H40.8c.12 1.704.864 2.832 2.832 2.832.936 0 1.944-.216 3.576-.816l.888 2.376zm-3.456-6.672c-.024-2.016-.816-2.544-1.8-2.544-1.032 0-1.872.576-2.016 2.544h3.816zm16.428 7.896c-4.392 0-6.167-2.688-6.167-6.456 0-3.984 2.087-6.576 6.48-6.576 4.44 0 6.168 2.64 6.168 6.312 0 4.08-2.065 6.72-6.48 6.72zm.169-2.52c1.56 0 2.52-1.08 2.52-4.08 0-2.832-.864-3.84-2.424-3.84-1.584 0-2.64.984-2.64 3.864 0 2.904.936 4.056 2.544 4.056zm7.849.312l1.344-.144c.336-.048.384-.144.384-.504V9.136c0-.144 0-.24-.192-.24h-1.608v-2.4h1.8v-1.32c0-3.24 1.824-4.584 5.136-4.584 2.232 0 4.296.552 4.296 3.456l-3.36.408c.024-1.224-.312-1.512-1.104-1.512-1.2 0-1.344.648-1.344 1.8v1.512c0 .168 0 .24.192.24h3.792v2.4h-3.984v7.464c0 .384.072.456.432.48l2.928.264V19h-8.712v-1.92zm10.692-.024l1.08-.144c.336-.048.384-.12.384-.48V9.4c0-.264-.072-.432-.312-.504l-1.296-.456.264-1.944h4.224l.288 1.92h.144c.792-1.224 1.848-2.16 3.384-2.16.552 0 1.656.096 2.088.216v4.368l-2.88-.096-.24-1.272c-.048-.216-.12-.264-.312-.264-.624 0-1.368.528-1.728.84v6.36c0 .384.024.456.384.48l2.376.192V19h-7.848v-1.944zm22.627 1.008c-1.488.72-3.12 1.224-4.92 1.224-4.632 0-6.216-2.88-6.216-6.624 0-4.344 2.664-6.408 5.952-6.408 3.168 0 5.28 1.656 5.28 5.808 0 .288-.024 1.128-.048 1.608h-7.344c.12 1.704.864 2.832 2.832 2.832.936 0 1.944-.216 3.576-.816l.888 2.376zm-3.456-6.672c-.024-2.016-.816-2.544-1.8-2.544-1.032 0-1.872.576-2.016 2.544h3.816zm15.947 6.72c-1.104.672-2.808 1.176-4.56 1.176-4.344 0-6.288-2.712-6.288-6.36 0-4.488 2.736-6.672 6.576-6.672 1.872 0 3.528.528 4.272 1.008v3.768l-2.568-.12-.288-1.584c-.024-.168-.072-.312-.288-.384-.288-.096-.744-.168-1.224-.168-1.44 0-2.664.984-2.664 3.792 0 3.12 1.392 4.008 3.096 4.008 1.2 0 2.28-.384 3-.696l.936 2.232zm12.458-.048c-1.488.72-3.12 1.224-4.92 1.224-4.632 0-6.216-2.88-6.216-6.624 0-4.344 2.664-6.408 5.952-6.408 3.168 0 5.28 1.656 5.28 5.808 0 .288-.024 1.128-.048 1.608h-7.344c.12 1.704.864 2.832 2.832 2.832.936 0 1.944-.216 3.576-.816l.888 2.376zm-3.456-6.672c-.024-2.016-.816-2.544-1.8-2.544-1.032 0-1.872.576-2.016 2.544h3.816zm14.001-.144c0-1.152-.072-2.112-1.272-2.112-.888 0-1.992.504-2.496.888v6.432c0 .384.024.432.384.48l1.152.168V19h-6.624v-1.92l1.08-.144c.336-.048.384-.12.384-.48V9.4c0-.264-.072-.432-.312-.504l-1.296-.456.288-1.944h4.2l.192 1.248.096.048c1.2-.888 2.592-1.536 4.224-1.536 2.616 0 3.624 1.44 3.624 4.08v6.12c0 .384.024.432.384.48l1.2.168V19h-5.208v-7.752zm22.612 6.816c-1.488.72-3.12 1.224-4.92 1.224-4.632 0-6.216-2.88-6.216-6.624 0-4.344 2.664-6.408 5.952-6.408 3.168 0 5.28 1.656 5.28 5.808 0 .288-.024 1.128-.048 1.608h-7.344c.12 1.704.864 2.832 2.832 2.832.936 0 1.944-.216 3.576-.816l.888 2.376zm-3.456-6.672c-.024-2.016-.816-2.544-1.8-2.544-1.032 0-1.872.576-2.016 2.544h3.816zm11.123 10.776l2.064-.168c.384-.024.48-.12.48-.432v-3.504l-.12-.048c-.84.72-1.992 1.272-3.48 1.272-2.832 0-4.776-1.8-4.776-6.288 0-4.92 2.52-6.744 5.136-6.744 1.44 0 2.568.576 3.48 1.368l.36-1.128h3.144a36.631 36.631 0 00-.192 3.888v11.184c0 .36.024.408.384.456l1.128.168v1.896h-7.608v-1.92zm2.472-12.36c-.6-.408-1.368-.768-2.112-.768-1.728 0-2.424 1.656-2.424 3.792 0 2.328.648 3.624 2.256 3.624.816 0 1.632-.432 2.28-.984V9.808zm15.281 7.896l-.12-.024c-.984.744-2.232 1.608-4.272 1.608-2.52 0-3.48-1.44-3.48-4.224V9.208c0-.384-.024-.432-.384-.504l-1.152-.24.24-1.968h4.92v7.944c0 1.464.24 2.016 1.272 2.016 1.056 0 1.92-.6 2.472-1.104V9.184c0-.384-.024-.408-.384-.48l-1.032-.24.264-1.968h4.776v9.96c0 .312.048.408.336.456l1.2.168V19h-4.464l-.192-1.296zm11.065-15.288c0 1.368-.792 2.16-2.184 2.16-1.368 0-2.16-.792-2.16-2.16s.792-2.112 2.16-2.112c1.392 0 2.184.744 2.184 2.112zm-5.28 14.688l1.224-.168c.336-.048.384-.12.384-.48V9.4c0-.264-.072-.432-.312-.504l-1.296-.456.264-1.944h4.968v9.96c0 .384.024.432.384.48l1.224.168V19h-6.84v-1.896zm7.954 5.064l.96-.144c.336-.048.432-.144.432-.504V9.4c0-.264-.048-.408-.312-.504l-1.272-.456.264-1.944h4.224l.216 1.224.12.048c1.152-.936 2.712-1.512 4.08-1.512 2.688 0 4.608 1.68 4.608 6.144 0 2.88-.984 6.888-4.944 6.888-1.248 0-2.376-.408-3.384-1.2v3.408c0 .384.024.456.384.48l2.448.216v1.896h-7.824v-1.92zm4.992-6.6c.528.456 1.368.912 2.256.912 1.608 0 2.28-1.536 2.28-3.888 0-2.472-.84-3.48-2.04-3.48-1.008 0-1.968.504-2.496.864v5.592zm16.112 3.72c-4.392 0-6.168-2.688-6.168-6.456 0-3.984 2.088-6.576 6.48-6.576 4.44 0 6.168 2.64 6.168 6.312 0 4.08-2.064 6.72-6.48 6.72zm.168-2.52c1.56 0 2.52-1.08 2.52-4.08 0-2.832-.864-3.84-2.424-3.84-1.584 0-2.64.984-2.64 3.864 0 2.904.936 4.056 2.544 4.056zm28.109-5.52c0-.936-.096-2.064-1.344-2.064-.672 0-1.32.24-1.944.648.048.384.072.768.072 1.176v5.448c0 .408.024.456.384.504l.96.144V19h-4.968v-7.872c0-.888-.072-1.944-1.272-1.944-.72 0-1.512.36-1.992.768v6.504c0 .384.024.432.384.48l1.176.168V19h-6.648v-1.896l1.08-.168c.336-.048.384-.12.384-.48V9.4c0-.264-.072-.432-.312-.504l-1.296-.456.264-1.944h4.224l.192 1.248.12.024c1.08-.888 2.304-1.512 3.84-1.512 1.176 0 2.256.312 2.928 1.44.792-.624 2.184-1.44 3.864-1.44 2.568 0 3.528 1.272 3.528 4.056v6.144c0 .384.024.456.384.504l1.2.144V19h-5.208v-7.752zm17.536 6.816c-1.488.72-3.12 1.224-4.92 1.224-4.632 0-6.216-2.88-6.216-6.624 0-4.344 2.664-6.408 5.952-6.408 3.168 0 5.28 1.656 5.28 5.808 0 .288-.024 1.128-.048 1.608h-7.344c.12 1.704.864 2.832 2.832 2.832.936 0 1.944-.216 3.576-.816l.888 2.376zm-3.456-6.672c-.024-2.016-.816-2.544-1.8-2.544-1.032 0-1.872.576-2.016 2.544h3.816zm-4.512-7.056L262.291.16l1.968 1.872-4.296 3.504-1.344-1.2zm18.563 13.32l-.168-.024c-1.008.984-2.184 1.656-3.936 1.656-2.832 0-4.656-1.8-4.656-6.384 0-4.824 2.424-6.648 5.088-6.648 1.392 0 2.472.48 3.384 1.152V3.76c0-.24-.096-.408-.312-.48l-1.32-.456.264-1.944h4.824v15.6c0 .36.024.408.384.456l1.152.168V19h-4.464l-.24-1.344zm-.432-7.896c-.6-.408-1.368-.72-2.064-.72-1.776 0-2.472 1.656-2.472 3.792 0 2.328.672 3.624 2.184 3.624.816 0 1.704-.48 2.352-1.032V9.76zm11.504-7.344c0 1.368-.792 2.16-2.184 2.16-1.368 0-2.16-.792-2.16-2.16s.792-2.112 2.16-2.112c1.392 0 2.184.744 2.184 2.112zm-5.28 14.688l1.224-.168c.336-.048.384-.12.384-.48V9.4c0-.264-.072-.432-.312-.504l-1.296-.456.264-1.944h4.968v9.96c0 .384.024.432.384.48l1.224.168V19h-6.84v-1.896zm18.85 1.008c-1.104.672-2.808 1.176-4.56 1.176-4.344 0-6.288-2.712-6.288-6.36 0-4.488 2.736-6.672 6.576-6.672 1.872 0 3.528.528 4.272 1.008v3.768l-2.568-.12-.288-1.584c-.024-.168-.072-.312-.288-.384-.288-.096-.744-.168-1.224-.168-1.44 0-2.664.984-2.664 3.792 0 3.12 1.392 4.008 3.096 4.008 1.2 0 2.28-.384 3-.696l.936 2.232zm7.49 1.176c-4.392 0-6.168-2.688-6.168-6.456 0-3.984 2.088-6.576 6.48-6.576 4.44 0 6.168 2.64 6.168 6.312 0 4.08-2.064 6.72-6.48 6.72zm.168-2.52c1.56 0 2.52-1.08 2.52-4.08 0-2.832-.864-3.84-2.424-3.84-1.584 0-2.64.984-2.64 3.864 0 2.904.936 4.056 2.544 4.056zm16.373-10.656c-1.704-.024-3.12-.216-3.12-1.752 0-.48.192-1.008.456-1.536L324.343.4l1.512.456-.552 2.376c-.048.168-.024.216.12.264l.912.312-.48 2.304zm4.32 0c-1.704-.024-3.12-.216-3.12-1.752 0-.48.192-1.008.456-1.536L328.663.4l1.512.456-.552 2.376c-.048.168-.024.216.12.264l.912.312-.48 2.304zm11.132 2.592c.432.552.888 1.32.888 2.424 0 2.664-2.088 4.224-5.112 4.224-.768 0-1.464-.096-1.896-.216l-.792 1.272 2.352.144c4.176.264 6.6.384 6.6 3.576 0 2.76-2.424 4.32-6.6 4.32-4.344 0-6-1.104-6-3 0-1.08.48-1.656 1.32-2.448-.792-.336-1.056-.936-1.056-1.584 0-.528.264-1.008.696-1.464.432-.456.912-.912 1.488-1.44-1.176-.576-2.064-1.824-2.064-3.6 0-2.76 1.824-4.656 5.496-4.656 1.032 0 1.656.096 2.208.24h4.68v2.04l-2.208.168zm-2.28 2.088c0-1.416-.816-2.16-2.184-2.16-1.32 0-2.304.648-2.304 2.208 0 1.176.648 1.992 2.232 1.992 1.344 0 2.256-.792 2.256-2.04zm-4.824 8.856c-.312.384-.624.792-.624 1.272 0 .96 1.224 1.248 2.904 1.248 1.392 0 3.288-.096 3.288-1.392 0-.768-.912-.816-2.064-.888l-3.504-.24zm10.496-2.592l1.08-.144c.336-.048.384-.12.384-.48V9.4c0-.264-.072-.432-.312-.504l-1.296-.456.264-1.944h4.224l.288 1.92h.144c.792-1.224 1.848-2.16 3.384-2.16.552 0 1.656.096 2.088.216v4.368l-2.88-.096-.24-1.272c-.048-.216-.12-.264-.312-.264-.624 0-1.368.528-1.728.84v6.36c0 .384.024.456.384.48l2.376.192V19h-7.848v-1.944zm18.798.648l-.12-.024c-.912.888-2.112 1.608-4.032 1.608-3.024 0-3.504-2.064-3.504-3.552 0-2.4 1.464-3.48 4.488-3.696l2.76-.192v-1.32c0-1.128-.12-1.896-1.608-1.896-1.152 0-1.752.168-1.752 1.608l-3.384-.288c0-3.24 2.952-3.696 5.16-3.696 3.648 0 5.112.984 5.112 4.344v5.832c0 .384.024.432.384.48l1.152.192V19h-4.416l-.24-1.296zm-2.04-3.744c-1.416.096-1.92.456-1.92 1.416s.576 1.32 1.368 1.32c.816 0 1.632-.456 2.184-.864V13.84l-1.632.12zm16.869 4.368c-1.032.504-2.544.96-3.912.96-2.856 0-3.936-1.152-3.936-3.864V9.136c0-.144 0-.24-.192-.24h-1.68V6.76c2.112-.24 2.952-1.296 3.216-3.912h2.28v3.408c0 .168 0 .24.192.24h3.384v2.4h-3.576v5.736c0 1.416.336 1.968 1.632 1.968.672 0 1.368-.168 1.944-.384l.648 2.112zm6.542-15.912c0 1.368-.792 2.16-2.184 2.16-1.368 0-2.16-.792-2.16-2.16s.792-2.112 2.16-2.112c1.392 0 2.184.744 2.184 2.112zm-5.28 14.688l1.224-.168c.336-.048.384-.12.384-.48V9.4c0-.264-.072-.432-.312-.504l-1.296-.456.264-1.944h4.968v9.96c0 .384.024.432.384.48l1.224.168V19h-6.84v-1.896zm15.225-8.088c-.048-.216-.072-.288-.24-.336-.312-.096-.888-.192-1.536-.192-1.2 0-1.872.456-1.872 1.224 0 .984 1.32 1.2 2.784 1.536 1.896.432 4.032 1.104 4.032 3.912 0 2.928-2.376 4.128-5.424 4.128-2.184 0-4.32-.576-4.752-.864v-3.48l2.568.192.24 1.368c.048.216.072.288.288.36.288.096.936.24 1.848.24 1.272 0 1.992-.36 1.992-1.248 0-.96-.96-1.248-2.184-1.464-2.016-.36-4.656-.792-4.656-3.936 0-2.976 2.544-4.2 5.304-4.2 1.896 0 3.744.432 4.416.696v3.48l-2.568-.168-.24-1.248zm5.467-5.712c.048-.216.024-.264-.12-.312l-.912-.288.48-2.304c1.704.024 3.12.192 3.12 1.752 0 .48-.168 1.008-.432 1.536l-1.152 2.424-1.536-.456.552-2.352zm4.32 0c.048-.216.024-.264-.12-.312l-.912-.288.48-2.304c1.704.024 3.12.192 3.12 1.752 0 .48-.168 1.008-.432 1.536l-1.152 2.424-1.536-.456.552-2.352zm9.078 14.112c0 1.224-.672 1.872-2.04 1.872-1.392 0-2.064-.624-2.064-1.872 0-1.224.672-1.872 2.064-1.872 1.344 0 2.04.648 2.04 1.872zm6.756 0c0 1.224-.672 1.872-2.04 1.872-1.392 0-2.064-.624-2.064-1.872 0-1.224.672-1.872 2.064-1.872 1.344 0 2.04.648 2.04 1.872zm6.756 0c0 1.224-.672 1.872-2.04 1.872-1.392 0-2.064-.624-2.064-1.872 0-1.224.672-1.872 2.064-1.872 1.344 0 2.04.648 2.04 1.872z" fill="#2B3D51"/></svg>