<svg width="143" height="114" viewBox="0 0 143 114" fill="none" xmlns="http://www.w3.org/2000/svg"><path d="M6.291 5.906v11.232c0 .432.027.486.432.54l1.809.216V20H1.026v-2.106l1.701-.189c.378-.054.432-.135.432-.54V3.287c0-.405-.027-.486-.432-.54l-1.701-.189V.452h6.696L16.2 14.573V3.341c0-.405-.027-.486-.432-.54l-1.701-.189V.452h7.506v2.16l-1.809.216c-.405.054-.432.108-.432.513V20h-4.428L6.291 5.906zm23.453 14.418c-4.941 0-6.94-3.024-6.94-7.263 0-4.482 2.35-7.398 7.29-7.398 4.996 0 6.94 2.97 6.94 7.101 0 4.59-2.322 7.56-7.29 7.56zm.189-2.835c1.755 0 2.835-1.215 2.835-4.59 0-3.186-.972-4.32-2.727-4.32-1.782 0-2.97 1.107-2.97 4.347 0 3.267 1.053 4.563 2.862 4.563zM.702 48.813l1.215-.162c.378-.054.432-.135.432-.54V40.2c0-.297-.081-.486-.351-.567L.54 39.12l.297-2.187h4.752l.324 2.16h.162c.891-1.377 2.079-2.43 3.807-2.43.621 0 1.863.108 2.349.243v4.914l-3.24-.108-.27-1.431c-.054-.243-.135-.297-.351-.297-.702 0-1.539.594-1.944.945v7.155c0 .432.027.513.432.54l2.673.216V51H.702v-2.187zm25.455 1.134c-1.674.81-3.51 1.377-5.535 1.377-5.211 0-6.993-3.24-6.993-7.452 0-4.887 2.997-7.209 6.696-7.209 3.564 0 5.94 1.863 5.94 6.534 0 .324-.027 1.269-.054 1.809h-8.262c.135 1.917.972 3.186 3.186 3.186 1.053 0 2.187-.243 4.023-.918l.999 2.673zm-3.888-7.506c-.027-2.268-.918-2.862-2.025-2.862-1.161 0-2.106.648-2.268 2.862h4.293zm13.784-2.673c-.054-.243-.08-.324-.27-.378-.35-.108-.999-.216-1.728-.216-1.35 0-2.106.513-2.106 1.377 0 1.107 1.485 1.35 3.132 1.728 2.133.486 4.536 1.242 4.536 4.401 0 3.294-2.673 4.644-6.102 4.644-2.457 0-4.86-.648-5.346-.972v-3.915l2.89.216.27 1.539c.053.243.08.324.323.405.324.108 1.053.27 2.08.27 1.43 0 2.24-.405 2.24-1.404 0-1.08-1.08-1.404-2.457-1.647-2.268-.405-5.238-.891-5.238-4.428 0-3.348 2.862-4.725 5.967-4.725 2.133 0 4.212.486 4.968.783v3.915l-2.889-.189-.27-1.404zM41.3 54.564l1.08-.162c.377-.054.485-.162.485-.567V40.2c0-.297-.053-.459-.35-.567l-1.431-.513.296-2.187h4.752l.244 1.377.135.054c1.295-1.053 3.05-1.701 4.59-1.701 3.023 0 5.184 1.89 5.184 6.912 0 3.24-1.107 7.749-5.563 7.749-1.404 0-2.672-.459-3.806-1.35v3.834c0 .432.027.513.431.54l2.755.243v2.133H41.3v-2.16zm5.616-7.425c.594.513 1.539 1.026 2.538 1.026 1.809 0 2.565-1.728 2.565-4.374 0-2.781-.945-3.915-2.295-3.915-1.134 0-2.214.567-2.808.972v6.291zm18.126 4.185c-4.941 0-6.94-3.024-6.94-7.263 0-4.482 2.35-7.398 7.29-7.398 4.996 0 6.94 2.97 6.94 7.101 0 4.59-2.322 7.56-7.29 7.56zm.189-2.835c1.755 0 2.835-1.215 2.835-4.59 0-3.186-.972-4.32-2.727-4.32-1.782 0-2.97 1.107-2.97 4.347 0 3.267 1.053 4.563 2.862 4.563zm18.687-6.21c0-1.296-.08-2.376-1.43-2.376-1 0-2.242.567-2.809.999v7.236c0 .432.027.486.432.54l1.296.189V51h-7.452v-2.16l1.215-.162c.378-.054.432-.135.432-.54V40.2c0-.297-.08-.486-.35-.567l-1.459-.513.324-2.187h4.725l.216 1.404.108.054c1.35-.999 2.916-1.728 4.752-1.728 2.943 0 4.077 1.62 4.077 4.59v6.885c0 .432.027.486.432.54l1.35.189V51h-5.859v-8.721zm17.254 7.209l-.189-.027c-1.134 1.107-2.457 1.863-4.428 1.863-3.186 0-5.238-2.025-5.238-7.182 0-5.427 2.727-7.479 5.724-7.479 1.566 0 2.781.54 3.807 1.296v-4.104c0-.27-.108-.459-.351-.54l-1.485-.513.297-2.187h5.427v17.55c0 .405.027.459.432.513l1.296.189V51h-5.022l-.27-1.512zm-.486-8.883c-.675-.459-1.539-.81-2.322-.81-1.998 0-2.781 1.863-2.781 4.266 0 2.619.756 4.077 2.457 4.077.918 0 1.917-.54 2.646-1.161v-6.372zm15.966 8.937l-.135-.027c-1.026.999-2.376 1.809-4.536 1.809-3.402 0-3.942-2.322-3.942-3.996 0-2.7 1.647-3.915 5.049-4.158l3.105-.216v-1.485c0-1.269-.135-2.133-1.809-2.133-1.296 0-1.971.189-1.971 1.809l-3.807-.324c0-3.645 3.321-4.158 5.805-4.158 4.104 0 5.751 1.107 5.751 4.887v6.561c0 .432.027.486.432.54l1.296.216V51h-4.968l-.27-1.458zm-2.295-4.212c-1.593.108-2.16.513-2.16 1.593s.648 1.485 1.539 1.485c.918 0 1.836-.513 2.457-.972v-2.241l-1.836.135zm16.788-5.562c-.054-.243-.081-.324-.27-.378-.351-.108-.999-.216-1.728-.216-1.35 0-2.106.513-2.106 1.377 0 1.107 1.485 1.35 3.132 1.728 2.133.486 4.536 1.242 4.536 4.401 0 3.294-2.673 4.644-6.102 4.644-2.457 0-4.86-.648-5.346-.972v-3.915l2.889.216.27 1.539c.054.243.081.324.324.405.324.108 1.053.27 2.079.27 1.431 0 2.241-.405 2.241-1.404 0-1.08-1.08-1.404-2.457-1.647-2.268-.405-5.238-.891-5.238-4.428 0-3.348 2.862-4.725 5.967-4.725 2.133 0 4.212.486 4.968.783v3.915l-2.889-.189-.27-1.404zm10.538 9.45c0 1.377-.756 2.106-2.295 2.106-1.566 0-2.322-.702-2.322-2.106 0-1.377.756-2.106 2.322-2.106 1.512 0 2.295.729 2.295 2.106z" fill="#8F3FB0"/><path d="M1.026 79.867l1.701-.189c.378-.054.432-.135.432-.54V65.341c0-.405-.027-.486-.432-.54l-1.701-.189v-2.16h9.153c4.995 0 6.507 2.646 6.507 5.751 0 4.698-2.835 6.588-7.398 6.588H7.317v4.32c0 .432.054.513.432.54l3.861.216V82H1.026v-2.133zm7.641-7.965c1.782 0 3.753-.405 3.753-3.456 0-2.592-1.593-3.051-3.51-3.051H7.317v6.507h1.35zM24.47 82.324c-4.94 0-6.939-3.024-6.939-7.263 0-4.482 2.35-7.398 7.29-7.398 4.995 0 6.94 2.97 6.94 7.101 0 4.59-2.323 7.56-7.29 7.56zm.19-2.835c1.754 0 2.834-1.215 2.834-4.59 0-3.186-.972-4.32-2.727-4.32-1.782 0-2.97 1.107-2.97 4.347 0 3.267 1.053 4.563 2.862 4.563zm18.9.999l-.188-.027c-1.134 1.107-2.457 1.863-4.428 1.863-3.186 0-5.238-2.025-5.238-7.182 0-5.427 2.727-7.479 5.724-7.479 1.566 0 2.78.54 3.807 1.296v-4.104c0-.27-.108-.459-.351-.54l-1.485-.513.297-2.187h5.427v17.55c0 .405.027.459.432.513l1.296.189V82H43.83l-.27-1.512zm-.485-8.883c-.675-.459-1.54-.81-2.322-.81-1.998 0-2.781 1.863-2.781 4.266 0 2.619.756 4.077 2.457 4.077.918 0 1.917-.54 2.646-1.161v-6.372zm7.164 8.208l1.215-.162c.378-.054.432-.135.432-.54V71.2c0-.297-.081-.486-.351-.567l-1.458-.513.297-2.187h4.752l.324 2.16h.162c.89-1.377 2.079-2.43 3.807-2.43.62 0 1.863.108 2.349.243v4.914l-3.24-.108-.27-1.431c-.054-.243-.135-.297-.351-.297-.702 0-1.54.594-1.944.945v7.155c0 .432.027.513.432.54l2.673.216V82h-8.83v-2.187zm12.87.054l1.376-.189c.378-.054.432-.135.432-.54V71.2c0-.297-.08-.486-.35-.567l-1.459-.513.297-2.187h5.59v11.205c0 .432.026.486.431.54l1.377.189V82h-7.695v-2.133zm.242-14.31l4.131-4.698 2.214 2.106-4.833 3.942-1.512-1.35zm17.534 14.985l-.135-.027c-1.026.999-2.376 1.809-4.536 1.809-3.402 0-3.942-2.322-3.942-3.996 0-2.7 1.647-3.915 5.05-4.158l3.104-.216v-1.485c0-1.269-.135-2.133-1.809-2.133-1.296 0-1.97.189-1.97 1.809l-3.808-.324c0-3.645 3.321-4.158 5.805-4.158 4.104 0 5.751 1.107 5.751 4.887v6.561c0 .432.027.486.432.54l1.296.216V82h-4.968l-.27-1.458zM78.59 76.33c-1.593.108-2.16.513-2.16 1.593s.648 1.485 1.54 1.485c.917 0 1.835-.513 2.456-.972v-2.241l-1.836.135zm22.675-5.562c-.054-.243-.081-.324-.27-.378-.351-.108-1-.216-1.728-.216-1.35 0-2.106.513-2.106 1.377 0 1.107 1.485 1.35 3.132 1.728 2.133.486 4.536 1.242 4.536 4.401 0 3.294-2.673 4.644-6.102 4.644-2.457 0-4.86-.648-5.346-.972v-3.915l2.889.216.27 1.539c.054.243.08.324.324.405.324.108 1.053.27 2.079.27 1.431 0 2.241-.405 2.241-1.404 0-1.08-1.08-1.404-2.457-1.647-2.268-.405-5.238-.891-5.238-4.428 0-3.348 2.862-4.725 5.967-4.725 2.133 0 4.212.486 4.968.783v3.915l-2.889-.189-.27-1.404zm17.828 10.179c-1.674.81-3.51 1.377-5.535 1.377-5.211 0-6.993-3.24-6.993-7.452 0-4.887 2.997-7.209 6.696-7.209 3.564 0 5.94 1.863 5.94 6.534 0 .324-.027 1.269-.054 1.809h-8.262c.135 1.917.972 3.186 3.186 3.186 1.053 0 2.187-.243 4.023-.918l.999 2.673zm-3.888-7.506c-.027-2.268-.918-2.862-2.025-2.862-1.161 0-2.106.648-2.268 2.862h4.293zm5.788 6.372l1.215-.162c.378-.054.432-.135.432-.54V71.2c0-.297-.081-.486-.351-.567l-1.458-.513.297-2.187h4.752l.324 2.16h.162c.891-1.377 2.079-2.43 3.807-2.43.621 0 1.863.108 2.349.243v4.914l-3.24-.108-.27-1.431c-.054-.243-.135-.297-.351-.297-.702 0-1.539.594-1.944.945v7.155c0 .432.027.513.432.54l2.673.216V82h-8.829v-2.187zM11.124 111.542l-.135-.027c-1.107.837-2.511 1.809-4.806 1.809-2.835 0-3.915-1.62-3.915-4.752v-6.588c0-.432-.027-.486-.432-.567l-1.296-.27.27-2.214h5.535v8.937c0 1.647.27 2.268 1.431 2.268 1.188 0 2.16-.675 2.781-1.242v-6.939c0-.432-.027-.459-.432-.54l-1.161-.27.297-2.214h5.373v11.205c0 .351.054.459.378.513l1.35.189V113H11.34l-.216-1.458zm16.633-7.263c0-1.296-.08-2.376-1.43-2.376-1 0-2.242.567-2.809.999v7.236c0 .432.027.486.432.54l1.296.189V113h-7.452v-2.16l1.215-.162c.378-.054.432-.135.432-.54V102.2c0-.297-.08-.486-.35-.567l-1.459-.513.324-2.187h4.725l.216 1.404.108.054c1.35-.999 2.916-1.728 4.752-1.728 2.943 0 4.077 1.62 4.077 4.59v6.885c0 .432.027.486.432.54l1.35.189V113h-5.859v-8.721zm15.958 7.263l-.135-.027c-1.026.999-2.376 1.809-4.536 1.809-3.402 0-3.942-2.322-3.942-3.996 0-2.7 1.647-3.915 5.049-4.158l3.105-.216v-1.485c0-1.269-.135-2.133-1.81-2.133-1.295 0-1.97.189-1.97 1.809l-3.807-.324c0-3.645 3.32-4.158 5.805-4.158 4.104 0 5.75 1.107 5.75 4.887v6.561c0 .432.028.486.433.54l1.296.216V113h-4.968l-.27-1.458zm-2.295-4.212c-1.593.108-2.16.513-2.16 1.593s.648 1.485 1.539 1.485c.918 0 1.836-.513 2.457-.972v-2.241l-1.836.135zm27.075 4.617c-1.674.81-3.51 1.377-5.535 1.377-5.21 0-6.993-3.24-6.993-7.452 0-4.887 2.997-7.209 6.696-7.209 3.564 0 5.94 1.863 5.94 6.534 0 .324-.027 1.269-.054 1.809h-8.262c.135 1.917.972 3.186 3.186 3.186 1.053 0 2.187-.243 4.023-.918l1 2.673zm-3.888-7.506c-.027-2.268-.918-2.862-2.025-2.862-1.16 0-2.106.648-2.268 2.862h4.293zm13.784-2.673c-.053-.243-.08-.324-.27-.378-.35-.108-.998-.216-1.727-.216-1.35 0-2.107.513-2.107 1.377 0 1.107 1.485 1.35 3.132 1.728 2.133.486 4.537 1.242 4.537 4.401 0 3.294-2.674 4.644-6.103 4.644-2.456 0-4.86-.648-5.346-.972v-3.915l2.89.216.27 1.539c.053.243.08.324.323.405.325.108 1.053.27 2.08.27 1.43 0 2.24-.405 2.24-1.404 0-1.08-1.08-1.404-2.457-1.647-2.267-.405-5.237-.891-5.237-4.428 0-3.348 2.862-4.725 5.966-4.725 2.134 0 4.213.486 4.969.783v3.915l-2.89-.189-.27-1.404zm15.723 10.476c-1.161.567-2.862 1.08-4.401 1.08-3.213 0-4.428-1.296-4.428-4.347v-7.074c0-.162 0-.27-.216-.27h-1.89V99.23c2.376-.27 3.32-1.458 3.618-4.401h2.565v3.834c0 .189 0 .27.216.27h3.807v2.7h-4.023v6.453c0 1.593.378 2.214 1.836 2.214.756 0 1.539-.189 2.187-.432l.729 2.376zm9.987-.702l-.135-.027c-1.026.999-2.376 1.809-4.536 1.809-3.402 0-3.942-2.322-3.942-3.996 0-2.7 1.647-3.915 5.049-4.158l3.105-.216v-1.485c0-1.269-.135-2.133-1.809-2.133-1.296 0-1.971.189-1.971 1.809l-3.807-.324c0-3.645 3.321-4.158 5.805-4.158 4.104 0 5.751 1.107 5.751 4.887v6.561c0 .432.027.486.432.54l1.296.216V113h-4.968l-.27-1.458zm-2.295-4.212c-1.593.108-2.16.513-2.16 1.593s.648 1.485 1.539 1.485c.918 0 1.836-.513 2.457-.972v-2.241l-1.836.135zm8.819 3.51l1.512-.162c.378-.054.432-.162.432-.567v-8.208c0-.162 0-.27-.216-.27h-1.809v-2.7h2.025v-1.485c0-3.645 2.052-5.157 5.778-5.157 2.511 0 4.833.621 4.833 3.888l-3.78.459c.027-1.377-.351-1.701-1.242-1.701-1.35 0-1.512.729-1.512 2.025v1.701c0 .189 0 .27.216.27h4.266v2.7h-4.482v8.397c0 .432.081.513.486.54l3.294.297V113h-9.801v-2.16zm20.014.702l-.135-.027c-1.026.999-2.376 1.809-4.536 1.809-3.402 0-3.942-2.322-3.942-3.996 0-2.7 1.647-3.915 5.049-4.158l3.105-.216v-1.485c0-1.269-.135-2.133-1.809-2.133-1.296 0-1.971.189-1.971 1.809l-3.807-.324c0-3.645 3.321-4.158 5.805-4.158 4.104 0 5.751 1.107 5.751 4.887v6.561c0 .432.027.486.432.54l1.296.216V113h-4.968l-.27-1.458zm-2.295-4.212c-1.593.108-2.16.513-2.16 1.593s.648 1.485 1.539 1.485c.918 0 1.836-.513 2.457-.972v-2.241l-1.836.135zm14.057 3.888c0 1.377-.756 2.106-2.295 2.106-1.566 0-2.322-.702-2.322-2.106 0-1.377.756-2.106 2.322-2.106 1.512 0 2.295.729 2.295 2.106z" fill="#2B3D51"/></svg>