<svg width="229" height="45" viewBox="0 0 229 45" fill="none" xmlns="http://www.w3.org/2000/svg"><rect width="229" height="45" rx="2" fill="#F3C501"/><path d="M18.325 28.25V16.18h5.542c.59 0 1.133.119 1.632.357.498.238.93.56 1.292.969.363.396.64.844.833 1.343.204.498.306 1.003.306 1.513 0 .464-.068.912-.204 1.343-.136.43-.334.827-.595 1.19-.26.351-.573.657-.935.918l2.55 4.437h-3.638l-2.125-3.706H21.64v3.706h-3.315zm3.315-6.596h2.09a.61.61 0 00.392-.153c.125-.102.227-.25.306-.442.09-.193.136-.425.136-.697 0-.284-.051-.516-.153-.697-.09-.193-.21-.34-.357-.442a.678.678 0 00-.408-.153H21.64v2.584zm18.118 3.706v2.89h-8.602V16.18h8.45v2.89H34.47v1.7h4.387v2.686h-4.386v1.904h5.286zm2.902 2.89V16.18h5.202c.59 0 1.133.119 1.632.357.499.238.93.56 1.292.969.363.396.64.844.833 1.343.204.498.306 1.003.306 1.513 0 .714-.17 1.388-.51 2.023a4.201 4.201 0 01-1.394 1.564c-.59.396-1.28.595-2.074.595h-1.972v3.706H42.66zm3.315-6.596h1.751c.136 0 .266-.04.391-.12.125-.079.227-.215.306-.407.09-.193.136-.448.136-.765 0-.34-.05-.6-.153-.782-.09-.193-.21-.323-.357-.391a.803.803 0 00-.408-.12h-1.666v2.585zm14.077 6.698c-.918 0-1.751-.17-2.5-.51a6.324 6.324 0 01-1.937-1.394 6.66 6.66 0 01-1.241-1.972 6.295 6.295 0 01-.425-2.278c0-.805.153-1.57.459-2.295a6.323 6.323 0 011.275-1.938 6.065 6.065 0 011.955-1.36 6.18 6.18 0 012.482-.493c.918 0 1.75.175 2.499.527a5.78 5.78 0 011.92 1.394c.534.59.942 1.252 1.225 1.989a5.908 5.908 0 01-.017 4.522 6.134 6.134 0 01-1.275 1.955 6.23 6.23 0 01-1.938 1.36c-.748.328-1.575.493-2.482.493zm-2.737-6.12c0 .408.057.804.17 1.19.113.374.283.714.51 1.02.227.294.51.532.85.714.351.17.765.255 1.24.255.477 0 .89-.09 1.242-.272.351-.182.635-.425.85-.731.227-.318.39-.663.493-1.037a4.139 4.139 0 000-2.346 3.104 3.104 0 00-.51-1.003 2.317 2.317 0 00-.867-.714c-.351-.17-.76-.255-1.224-.255-.476 0-.89.09-1.241.272a2.52 2.52 0 00-.85.73 3.077 3.077 0 00-.51 1.02c-.102.375-.153.76-.153 1.157zM68.97 28.25V16.18h5.542c.59 0 1.133.119 1.632.357.499.238.93.56 1.292.969.363.396.64.844.833 1.343.204.498.306 1.003.306 1.513 0 .464-.068.912-.204 1.343-.136.43-.334.827-.595 1.19a4.23 4.23 0 01-.935.918l2.55 4.437h-3.638l-2.125-3.706h-1.343v3.706H68.97zm3.315-6.596h2.09a.61.61 0 00.392-.153c.125-.102.227-.25.306-.442.09-.193.136-.425.136-.697 0-.284-.051-.516-.153-.697-.09-.193-.21-.34-.357-.442a.678.678 0 00-.408-.153h-2.006v2.584zm18.752-2.584H87.57v9.18h-3.315v-9.18H80.77v-2.89h10.268v2.89zm4.243-2.89h3.706l3.842 12.07h-3.366l-.731-2.363h-3.213l-.714 2.363h-3.383l3.859-12.07zm2.924 7.497l-1.071-4.25-1.122 4.25h2.193zm20.252 1.683v2.89h-8.602V16.18h8.449v2.89h-5.134v1.7h4.386v2.686h-4.386v1.904h5.287zm2.902 2.89V16.18h3.315v9.18h5.474v2.89h-8.789zm15.984 0V16.18h8.279v2.89h-4.964v2.006h4.046v2.686h-4.046v4.488h-3.315zm10.94 0V16.18h5.542c.589 0 1.133.119 1.632.357.498.238.929.56 1.292.969.362.396.64.844.833 1.343.204.498.306 1.003.306 1.513 0 .464-.068.912-.204 1.343-.136.43-.335.827-.595 1.19a4.252 4.252 0 01-.935.918l2.55 4.437h-3.638l-2.125-3.706h-1.343v3.706h-3.315zm3.315-6.596h2.091a.61.61 0 00.391-.153 1.11 1.11 0 00.306-.442c.09-.193.136-.425.136-.697 0-.284-.051-.516-.153-.697a1.087 1.087 0 00-.357-.442.678.678 0 00-.408-.153h-2.006v2.584zm12.304-5.474h3.706l3.842 12.07h-3.366l-.731-2.363h-3.213l-.714 2.363h-3.383l3.859-12.07zm2.924 7.497l-1.071-4.25-1.122 4.25h2.193zm11.792 4.675c-.963 0-1.79-.159-2.482-.476a4.57 4.57 0 01-1.7-1.31 5.582 5.582 0 01-.952-1.903 8.375 8.375 0 01-.306-2.278V16.18h3.315v6.205c0 .396.04.776.119 1.139.08.362.204.685.374.969.17.283.386.51.646.68.272.158.601.238.986.238.397 0 .731-.08 1.003-.238.272-.17.488-.397.646-.68.17-.295.295-.624.374-.986.08-.363.119-.737.119-1.122V16.18h3.315v6.205c0 .838-.113 1.62-.34 2.346a5.43 5.43 0 01-.986 1.904 4.484 4.484 0 01-1.7 1.275c-.68.294-1.49.442-2.431.442zm8.724-.102V16.18h4.641c1.337 0 2.454.272 3.349.816a5.097 5.097 0 012.04 2.176c.465.906.697 1.915.697 3.026 0 1.224-.255 2.29-.765 3.196a5.217 5.217 0 01-2.125 2.108c-.907.498-1.972.748-3.196.748h-4.641zm7.361-6.052c0-.624-.108-1.168-.323-1.632a2.49 2.49 0 00-.935-1.105c-.408-.26-.895-.391-1.462-.391h-1.326v6.29h1.326c.578 0 1.065-.136 1.462-.408.408-.272.72-.646.935-1.122a4.001 4.001 0 00.323-1.632zm14.77 3.162v2.89h-8.602V16.18h8.449v2.89h-5.134v1.7h4.386v2.686h-4.386v1.904h5.287z" fill="#2B3D51"/></svg>