<svg width="569" height="29" viewBox="0 0 569 29" fill="none" xmlns="http://www.w3.org/2000/svg"><path d="M10.396 5.396c-.056-.336-.14-.448-.336-.532a6.663 6.663 0 00-2.044-.308c-2.1 0-3.136.952-3.136 2.38 0 1.848 1.904 2.352 4.032 2.996 2.66.812 5.628 1.82 5.628 6.02 0 4.592-3.584 6.384-7.868 6.384-2.52 0-5.348-.644-6.412-1.148v-5.46h3.136l.56 2.66c.084.364.112.42.476.504.336.084 1.288.308 2.352.308 2.268 0 3.528-.896 3.528-2.604 0-1.792-1.596-2.352-3.472-2.884-2.772-.784-6.188-1.54-6.188-6.048 0-4.312 3.248-6.3 7.504-6.3 2.408 0 4.48.588 5.74 1.12v5.46l-3.164-.28-.336-2.268zm12.202-2.744c0 1.596-.924 2.52-2.548 2.52-1.596 0-2.52-.924-2.52-2.52S18.454.188 20.05.188c1.624 0 2.548.868 2.548 2.464zm-6.16 17.136l1.428-.196c.392-.056.448-.14.448-.56V10.8c0-.308-.084-.504-.364-.588l-1.512-.532.308-2.268h5.796v11.62c0 .448.028.504.448.56l1.428.196V22h-7.98v-2.212zm24.375.7l-.14-.028c-1.064 1.036-2.464 1.876-4.704 1.876-3.528 0-4.088-2.408-4.088-4.144 0-2.8 1.708-4.06 5.236-4.312l3.22-.224v-1.54c0-1.316-.14-2.212-1.876-2.212-1.344 0-2.044.196-2.044 1.876l-3.948-.336c0-3.78 3.444-4.312 6.02-4.312 4.256 0 5.964 1.148 5.964 5.068v6.804c0 .448.028.504.448.56l1.344.224V22h-5.152l-.28-1.512zm-2.38-4.368c-1.652.112-2.24.532-2.24 1.652 0 1.12.672 1.54 1.596 1.54.952 0 1.904-.532 2.548-1.008V15.98l-1.904.14zm8.978 3.668l1.4-.196c.392-.056.448-.14.448-.56V4.248c0-.308-.084-.504-.364-.588l-1.54-.532.308-2.268h5.824v18.172c0 .448.028.504.448.56l1.372.196V22h-7.896v-2.212zm21.543-9.8c.505.644 1.037 1.54 1.037 2.828 0 3.108-2.436 4.928-5.965 4.928-.895 0-1.707-.112-2.211-.252l-.924 1.484 2.744.168c4.872.308 7.7.448 7.7 4.172 0 3.22-2.828 5.04-7.7 5.04-5.069 0-7-1.288-7-3.5 0-1.26.56-1.932 1.54-2.856-.924-.392-1.232-1.092-1.232-1.848 0-.616.308-1.176.812-1.708a34.355 34.355 0 011.735-1.68c-1.372-.672-2.407-2.128-2.407-4.2 0-3.22 2.128-5.432 6.412-5.432 1.203 0 1.932.112 2.575.28h5.46v2.38l-2.576.196zm-2.66 2.436c0-1.652-.951-2.52-2.547-2.52-1.54 0-2.688.756-2.688 2.576 0 1.372.756 2.324 2.604 2.324 1.568 0 2.632-.924 2.632-2.38zm-5.627 10.332c-.364.448-.729.924-.729 1.484 0 1.12 1.428 1.456 3.389 1.456 1.624 0 3.835-.112 3.835-1.624 0-.896-1.064-.952-2.408-1.036l-4.088-.28zm23.053-2.268l-.14-.028c-1.148.868-2.604 1.876-4.984 1.876-2.94 0-4.06-1.68-4.06-4.928v-6.832c0-.448-.028-.504-.448-.588l-1.344-.28.28-2.296h5.74v9.268c0 1.708.28 2.352 1.484 2.352 1.232 0 2.24-.7 2.884-1.288v-7.196c0-.448-.028-.476-.448-.56l-1.204-.28.308-2.296h5.572v11.62c0 .364.056.476.392.532l1.4.196V22h-5.208l-.224-1.512zM96.63 2.652c0 1.596-.925 2.52-2.549 2.52-1.596 0-2.52-.924-2.52-2.52s.924-2.464 2.52-2.464c1.624 0 2.548.868 2.548 2.464zm-6.16 17.136l1.427-.196c.392-.056.448-.14.448-.56V10.8c0-.308-.084-.504-.364-.588L90.47 9.68l.308-2.268h5.796v11.62c0 .448.028.504.448.56l1.428.196V22h-7.98v-2.212zm22.327 1.12c-1.736.84-3.64 1.428-5.74 1.428-5.404 0-7.252-3.36-7.252-7.728 0-5.068 3.108-7.476 6.944-7.476 3.696 0 6.16 1.932 6.16 6.776 0 .336-.028 1.316-.056 1.876h-8.568c.14 1.988 1.008 3.304 3.304 3.304 1.092 0 2.268-.252 4.172-.952l1.036 2.772zm-4.032-7.784c-.028-2.352-.952-2.968-2.1-2.968-1.204 0-2.184.672-2.352 2.968h4.452zm16.335-.168c0-1.344-.084-2.464-1.484-2.464-1.036 0-2.324.588-2.912 1.036v7.504c0 .448.028.504.448.56l1.344.196V22h-7.728v-2.24l1.26-.168c.392-.056.448-.14.448-.56V10.8c0-.308-.084-.504-.364-.588L114.6 9.68l.336-2.268h4.9l.224 1.456.112.056c1.4-1.036 3.024-1.792 4.928-1.792 3.052 0 4.228 1.68 4.228 4.76v7.14c0 .448.028.504.448.56l1.4.196V22H125.1v-9.044zm24.196 8.26c-1.204.588-2.968 1.12-4.564 1.12-3.332 0-4.592-1.344-4.592-4.508v-7.336c0-.168 0-.28-.224-.28h-1.96V7.72c2.464-.28 3.444-1.512 3.752-4.564h2.66v3.976c0 .196 0 .28.224.28h3.948v2.8h-4.172v6.692c0 1.652.392 2.296 1.904 2.296.784 0 1.596-.196 2.268-.448l.756 2.464zm13.757-.308c-1.736.84-3.64 1.428-5.74 1.428-5.404 0-7.252-3.36-7.252-7.728 0-5.068 3.108-7.476 6.944-7.476 3.696 0 6.16 1.932 6.16 6.776 0 .336-.028 1.316-.056 1.876h-8.568c.14 1.988 1.008 3.304 3.304 3.304 1.092 0 2.268-.252 4.172-.952l1.036 2.772zm-4.032-7.784c-.028-2.352-.952-2.968-2.1-2.968-1.204 0-2.184.672-2.352 2.968h4.452zm11.915 12.572l1.12-.168c.392-.056.504-.168.504-.588V10.8c0-.308-.056-.476-.364-.588l-1.484-.532.308-2.268h4.928l.252 1.428.14.056c1.344-1.092 3.164-1.764 4.76-1.764 3.136 0 5.376 1.96 5.376 7.168 0 3.36-1.148 8.036-5.768 8.036-1.456 0-2.772-.476-3.948-1.4v3.976c0 .448.028.532.448.56l2.856.252v2.212h-9.128v-2.24zm5.824-7.7c.616.532 1.596 1.064 2.632 1.064 1.876 0 2.66-1.792 2.66-4.536 0-2.884-.98-4.06-2.38-4.06-1.176 0-2.296.588-2.912 1.008v6.524zm17.566-15.344c0 1.596-.924 2.52-2.548 2.52-1.596 0-2.52-.924-2.52-2.52s.924-2.464 2.52-2.464c1.624 0 2.548.868 2.548 2.464zm-6.16 17.136l1.428-.196c.392-.056.448-.14.448-.56V10.8c0-.308-.084-.504-.364-.588l-1.512-.532.308-2.268h5.796v11.62c0 .448.028.504.448.56l1.428.196V22h-7.98v-2.212zm19.698.644l-.196-.028c-1.176 1.148-2.548 1.932-4.592 1.932-3.304 0-5.432-2.1-5.432-7.448 0-5.628 2.828-7.756 5.936-7.756 1.624 0 2.884.56 3.948 1.344V4.22c0-.28-.112-.476-.364-.56l-1.54-.532.308-2.268h5.628v18.2c0 .42.028.476.448.532l1.344.196V22h-5.208l-.28-1.568zm-.504-9.212c-.7-.476-1.596-.84-2.408-.84-2.072 0-2.884 1.932-2.884 4.424 0 2.716.784 4.228 2.548 4.228.952 0 1.988-.56 2.744-1.204V11.22zm20.23 9.688c-1.736.84-3.64 1.428-5.74 1.428-5.404 0-7.252-3.36-7.252-7.728 0-5.068 3.108-7.476 6.944-7.476 3.696 0 6.16 1.932 6.16 6.776 0 .336-.028 1.316-.056 1.876h-8.568c.14 1.988 1.008 3.304 3.304 3.304 1.092 0 2.268-.252 4.172-.952l1.036 2.772zm-4.032-7.784c-.028-2.352-.952-2.968-2.1-2.968-1.204 0-2.184.672-2.352 2.968h4.452zm22.779 8.092c-1.204.588-2.968 1.12-4.564 1.12-3.332 0-4.592-1.344-4.592-4.508v-7.336c0-.168 0-.28-.224-.28h-1.96V7.72c2.464-.28 3.444-1.512 3.752-4.564h2.66v3.976c0 .196 0 .28.224.28h3.948v2.8h-4.172v6.692c0 1.652.392 2.296 1.904 2.296.784 0 1.596-.196 2.268-.448l.756 2.464zm11.791-.728l-.14-.028c-1.148.868-2.604 1.876-4.984 1.876-2.94 0-4.06-1.68-4.06-4.928v-6.832c0-.448-.028-.504-.448-.588l-1.344-.28.28-2.296h5.74v9.268c0 1.708.28 2.352 1.484 2.352 1.232 0 2.24-.7 2.884-1.288v-7.196c0-.448-.028-.476-.448-.56l-1.204-.28.308-2.296h5.572v11.62c0 .364.056.476.392.532l1.4.196V22h-5.208l-.224-1.512zm23.19-7.532c0-1.344-.084-2.464-1.484-2.464-1.036 0-2.324.588-2.912 1.036v7.504c0 .448.028.504.448.56l1.344.196V22h-7.728v-2.24l1.26-.168c.392-.056.448-.14.448-.56V10.8c0-.308-.084-.504-.364-.588l-1.512-.532.336-2.268h4.9l.224 1.456.112.056c1.4-1.036 3.024-1.792 4.928-1.792 3.052 0 4.228 1.68 4.228 4.76v7.14c0 .448.028.504.448.56l1.4.196V22h-6.076v-9.044zm17.955 7.532l-.14-.028c-1.148.868-2.604 1.876-4.984 1.876-2.94 0-4.06-1.68-4.06-4.928v-6.832c0-.448-.028-.504-.448-.588l-1.344-.28.28-2.296h5.74v9.268c0 1.708.28 2.352 1.484 2.352 1.232 0 2.24-.7 2.884-1.288v-7.196c0-.448-.028-.476-.448-.56l-1.204-.28.308-2.296h5.572v11.62c0 .364.056.476.392.532l1.4.196V22h-5.208l-.224-1.512zm-5.824-15.596L297.733.02l2.296 2.184-5.012 4.088-1.568-1.4zm30.465 8.064c0-1.092-.112-2.408-1.568-2.408-.784 0-1.54.28-2.268.756.056.448.084.896.084 1.372v6.356c0 .476.028.532.448.588l1.12.168V22h-5.796v-9.184c0-1.036-.084-2.268-1.484-2.268-.84 0-1.764.42-2.324.896v7.588c0 .448.028.504.448.56l1.372.196V22h-7.756v-2.212l1.26-.196c.392-.056.448-.14.448-.56V10.8c0-.308-.084-.504-.364-.588l-1.512-.532.308-2.268h4.928l.224 1.456.14.028c1.26-1.036 2.688-1.764 4.48-1.764 1.372 0 2.632.364 3.416 1.68.924-.728 2.548-1.68 4.508-1.68 2.996 0 4.116 1.484 4.116 4.732v7.168c0 .448.028.532.448.588l1.4.168V22h-6.076v-9.044zm20.459 7.952c-1.736.84-3.64 1.428-5.74 1.428-5.404 0-7.252-3.36-7.252-7.728 0-5.068 3.108-7.476 6.944-7.476 3.696 0 6.16 1.932 6.16 6.776 0 .336-.028 1.316-.056 1.876h-8.568c.14 1.988 1.008 3.304 3.304 3.304 1.092 0 2.268-.252 4.172-.952l1.036 2.772zm-4.032-7.784c-.028-2.352-.952-2.968-2.1-2.968-1.204 0-2.184.672-2.352 2.968h4.452zm6.003 6.608l1.26-.168c.392-.056.448-.14.448-.56V10.8c0-.308-.084-.504-.364-.588l-1.512-.532.308-2.268h4.928l.336 2.24h.168c.924-1.428 2.156-2.52 3.948-2.52.644 0 1.932.112 2.436.252v5.096l-3.36-.112-.28-1.484c-.056-.252-.14-.308-.364-.308-.728 0-1.596.616-2.016.98v7.42c0 .448.028.532.448.56l2.772.224V22h-9.156v-2.268zm20.602 2.604c-5.124 0-7.196-3.136-7.196-7.532 0-4.648 2.436-7.672 7.56-7.672 5.18 0 7.196 3.08 7.196 7.364 0 4.76-2.408 7.84-7.56 7.84zm.196-2.94c1.82 0 2.94-1.26 2.94-4.76 0-3.304-1.008-4.48-2.828-4.48-1.848 0-3.08 1.148-3.08 4.508 0 3.388 1.092 4.732 2.968 4.732zm25.541 1.036l-.196-.028c-1.176 1.148-2.548 1.932-4.592 1.932-3.304 0-5.432-2.1-5.432-7.448 0-5.628 2.828-7.756 5.936-7.756 1.624 0 2.884.56 3.948 1.344V4.22c0-.28-.112-.476-.364-.56l-1.54-.532.308-2.268h5.628v18.2c0 .42.028.476.448.532l1.344.196V22h-5.208l-.28-1.568zm-.504-9.212c-.7-.476-1.596-.84-2.408-.84-2.072 0-2.884 1.932-2.884 4.424 0 2.716.784 4.228 2.548 4.228.952 0 1.988-.56 2.744-1.204V11.22zm20.231 9.688c-1.736.84-3.64 1.428-5.74 1.428-5.404 0-7.252-3.36-7.252-7.728 0-5.068 3.108-7.476 6.944-7.476 3.696 0 6.16 1.932 6.16 6.776 0 .336-.028 1.316-.056 1.876h-8.568c.14 1.988 1.008 3.304 3.304 3.304 1.092 0 2.268-.252 4.172-.952l1.036 2.772zm-4.032-7.784c-.028-2.352-.952-2.968-2.1-2.968-1.204 0-2.184.672-2.352 2.968h4.452zm27.959 6.692l2.296-.196c.42-.028.448-.168.448-.56V8.42h-.112l-4.004 9.548h-4.564l-3.948-9.576h-.14v10.64c0 .448.056.532.448.56l2.408.224V22h-8.512v-2.184l1.764-.196c.392-.056.448-.14.448-.56V4.696c0-.42-.056-.504-.448-.56l-1.764-.196V1.728h7.504l4.872 12.684h.112l5.124-12.684h7.28v2.184l-1.876.224c-.42.056-.448.112-.448.532V19.06c0 .364.084.476.448.532l1.876.224V22h-9.212v-2.184zm23.944 1.092c-1.736.84-3.64 1.428-5.74 1.428-5.404 0-7.252-3.36-7.252-7.728 0-5.068 3.108-7.476 6.944-7.476 3.696 0 6.16 1.932 6.16 6.776 0 .336-.028 1.316-.056 1.876h-8.568c.14 1.988 1.008 3.304 3.304 3.304 1.092 0 2.268-.252 4.172-.952l1.036 2.772zm-4.032-7.784c-.028-2.352-.952-2.968-2.1-2.968-1.204 0-2.184.672-2.352 2.968h4.452zm16.393 7.308l-.196-.028c-1.176 1.148-2.548 1.932-4.592 1.932-3.304 0-5.432-2.1-5.432-7.448 0-5.628 2.828-7.756 5.936-7.756 1.624 0 2.884.56 3.948 1.344V4.22c0-.28-.112-.476-.364-.56l-1.54-.532.308-2.268h5.628v18.2c0 .42.028.476.448.532l1.344.196V22h-5.208l-.28-1.568zm-.504-9.212c-.7-.476-1.596-.84-2.408-.84-2.072 0-2.884 1.932-2.884 4.424 0 2.716.784 4.228 2.548 4.228.952 0 1.988-.56 2.744-1.204V11.22zm13.421-8.568c0 1.596-.924 2.52-2.548 2.52-1.596 0-2.52-.924-2.52-2.52s.924-2.464 2.52-2.464c1.624 0 2.548.868 2.548 2.464zm-6.16 17.136l1.428-.196c.392-.056.448-.14.448-.56V10.8c0-.308-.084-.504-.364-.588l-1.512-.532.308-2.268h5.796v11.62c0 .448.028.504.448.56l1.428.196V22h-7.98v-2.212zm21.991 1.176c-1.288.784-3.276 1.372-5.32 1.372-5.068 0-7.336-3.164-7.336-7.42 0-5.236 3.192-7.784 7.672-7.784 2.184 0 4.116.616 4.984 1.176v4.396l-2.996-.14-.336-1.848c-.028-.196-.084-.364-.336-.448-.336-.112-.868-.196-1.428-.196-1.68 0-3.108 1.148-3.108 4.424 0 3.64 1.624 4.676 3.612 4.676 1.4 0 2.66-.448 3.5-.812l1.092 2.604zm10.615-.476l-.14-.028c-1.064 1.036-2.464 1.876-4.704 1.876-3.528 0-4.088-2.408-4.088-4.144 0-2.8 1.708-4.06 5.236-4.312l3.22-.224v-1.54c0-1.316-.14-2.212-1.876-2.212-1.344 0-2.044.196-2.044 1.876l-3.948-.336c0-3.78 3.444-4.312 6.02-4.312 4.256 0 5.964 1.148 5.964 5.068v6.804c0 .448.028.504.448.56l1.344.224V22h-5.152l-.28-1.512zm-2.38-4.368c-1.652.112-2.24.532-2.24 1.652 0 1.12.672 1.54 1.596 1.54.952 0 1.904-.532 2.548-1.008V15.98l-1.904.14zm9.118 3.612l1.26-.168c.392-.056.448-.14.448-.56V10.8c0-.308-.084-.504-.364-.588l-1.512-.532.308-2.268h4.928l.336 2.24h.168c.924-1.428 2.156-2.52 3.948-2.52.644 0 1.932.112 2.436.252v5.096l-3.36-.112-.28-1.484c-.056-.252-.14-.308-.364-.308-.728 0-1.596.616-2.016.98v7.42c0 .448.028.532.448.56l2.772.224V22h-9.156v-2.268zm26.398 1.176c-1.736.84-3.64 1.428-5.74 1.428-5.404 0-7.252-3.36-7.252-7.728 0-5.068 3.108-7.476 6.944-7.476 3.696 0 6.16 1.932 6.16 6.776 0 .336-.028 1.316-.056 1.876h-8.568c.14 1.988 1.008 3.304 3.304 3.304 1.092 0 2.268-.252 4.172-.952l1.036 2.772zm-4.032-7.784c-.028-2.352-.952-2.968-2.1-2.968-1.204 0-2.184.672-2.352 2.968h4.452zm11.326 7.028c0 1.428-.784 2.184-2.38 2.184-1.624 0-2.408-.728-2.408-2.184 0-1.428.784-2.184 2.408-2.184 1.568 0 2.38.756 2.38 2.184zm7.881 0c0 1.428-.784 2.184-2.38 2.184-1.624 0-2.408-.728-2.408-2.184 0-1.428.784-2.184 2.408-2.184 1.568 0 2.38.756 2.38 2.184zm7.882 0c0 1.428-.784 2.184-2.38 2.184-1.624 0-2.408-.728-2.408-2.184 0-1.428.784-2.184 2.408-2.184 1.568 0 2.38.756 2.38 2.184z" fill="#fff"/></svg>