<svg width="380" height="28" viewBox="0 0 380 28" fill="none" xmlns="http://www.w3.org/2000/svg"><path d="M12.076 19.816l1.764-.196c.392-.056.448-.14.448-.56v-5.908H6.616v5.88c0 .448.028.504.448.56l1.876.224V22H.064v-2.184l1.764-.196c.392-.056.448-.14.448-.56V4.724c0-.42-.028-.504-.448-.56L.064 3.968v-2.24H8.94v2.24l-1.876.224c-.42.056-.448.112-.448.532v5.292h7.672V4.724c0-.42-.028-.504-.448-.56l-1.764-.196v-2.24h8.848v2.24l-1.876.224c-.42.056-.448.112-.448.532v14.308c0 .448.028.504.448.56l1.876.224V22h-8.848v-2.184zm19.974.672l-.14-.028c-1.064 1.036-2.464 1.876-4.704 1.876-3.528 0-4.088-2.408-4.088-4.144 0-2.8 1.708-4.06 5.236-4.312l3.22-.224v-1.54c0-1.316-.14-2.212-1.876-2.212-1.344 0-2.044.196-2.044 1.876l-3.948-.336c0-3.78 3.444-4.312 6.02-4.312 4.256 0 5.964 1.148 5.964 5.068v6.804c0 .448.028.504.448.56l1.344.224V22H32.33l-.28-1.512zm-2.38-4.368c-1.652.112-2.24.532-2.24 1.652 0 1.12.672 1.54 1.596 1.54.952 0 1.904-.532 2.548-1.008V15.98l-1.904.14zm9.37 3.528l7.504-9.604h-3.92c-.252 0-.28.168-.308.364l-.336 1.568-2.968.168V7.412h12.292V9.82l-7.364 9.576h4.116c.252 0 .28-.168.308-.364L48.7 17.1l3.052-.14V22H39.04v-2.352zm33.453 1.26c-1.736.84-3.64 1.428-5.74 1.428-5.404 0-7.252-3.36-7.252-7.728 0-5.068 3.108-7.476 6.944-7.476 3.696 0 6.16 1.932 6.16 6.776 0 .336-.028 1.316-.056 1.876h-8.568c.14 1.988 1.008 3.304 3.304 3.304 1.092 0 2.268-.252 4.172-.952l1.036 2.772zm-4.032-7.784c-.028-2.352-.952-2.968-2.1-2.968-1.204 0-2.184.672-2.352 2.968h4.452zm12.977 12.572l2.408-.196c.448-.028.56-.14.56-.504v-4.088l-.14-.056c-.98.84-2.324 1.484-4.06 1.484-3.304 0-5.572-2.1-5.572-7.336 0-5.74 2.94-7.868 5.992-7.868 1.68 0 2.996.672 4.06 1.596l.42-1.316h3.668a42.737 42.737 0 00-.224 4.536v13.048c0 .42.028.476.448.532l1.316.196v2.212h-8.876v-2.24zm2.884-14.42c-.7-.476-1.596-.896-2.464-.896-2.016 0-2.828 1.932-2.828 4.424 0 2.716.756 4.228 2.632 4.228.952 0 1.904-.504 2.66-1.148v-6.608zm17.828 9.212l-.14-.028c-1.148.868-2.604 1.876-4.984 1.876-2.94 0-4.06-1.68-4.06-4.928v-6.832c0-.448-.028-.504-.448-.588l-1.344-.28.28-2.296h5.74v9.268c0 1.708.28 2.352 1.484 2.352 1.232 0 2.24-.7 2.884-1.288v-7.196c0-.448-.028-.476-.448-.56l-1.204-.28.308-2.296h5.572v11.62c0 .364.056.476.392.532l1.4.196V22h-5.208l-.224-1.512zm12.909-17.836c0 1.596-.924 2.52-2.548 2.52-1.596 0-2.52-.924-2.52-2.52s.924-2.464 2.52-2.464c1.624 0 2.548.868 2.548 2.464zm-6.16 17.136l1.428-.196c.392-.056.448-.14.448-.56V10.8c0-.308-.084-.504-.364-.588l-1.512-.532.308-2.268h5.796v11.62c0 .448.028.504.448.56l1.428.196V22h-7.98v-2.212zm9.279 5.908l1.12-.168c.392-.056.504-.168.504-.588V10.8c0-.308-.056-.476-.364-.588l-1.484-.532.308-2.268h4.928l.252 1.428.14.056c1.344-1.092 3.164-1.764 4.76-1.764 3.136 0 5.376 1.96 5.376 7.168 0 3.36-1.148 8.036-5.768 8.036-1.456 0-2.772-.476-3.948-1.4v3.976c0 .448.028.532.448.56l2.856.252v2.212h-9.128v-2.24zm5.824-7.7c.616.532 1.596 1.064 2.632 1.064 1.876 0 2.66-1.792 2.66-4.536 0-2.884-.98-4.06-2.38-4.06-1.176 0-2.296.588-2.912 1.008v6.524zm18.798 4.34c-5.124 0-7.196-3.136-7.196-7.532 0-4.648 2.436-7.672 7.56-7.672 5.18 0 7.196 3.08 7.196 7.364 0 4.76-2.408 7.84-7.56 7.84zm.196-2.94c1.82 0 2.94-1.26 2.94-4.76 0-3.304-1.008-4.48-2.828-4.48-1.848 0-3.08 1.148-3.08 4.508 0 3.388 1.092 4.732 2.968 4.732zm27.754 1.568c-1.288.784-3.276 1.372-5.32 1.372-5.068 0-7.336-3.164-7.336-7.42 0-5.236 3.192-7.784 7.672-7.784 2.184 0 4.116.616 4.984 1.176v4.396l-2.996-.14-.336-1.848c-.028-.196-.084-.364-.336-.448-.336-.112-.868-.196-1.428-.196-1.68 0-3.108 1.148-3.108 4.424 0 3.64 1.624 4.676 3.612 4.676 1.4 0 2.66-.448 3.5-.812l1.092 2.604zm8.738 1.372c-5.124 0-7.196-3.136-7.196-7.532 0-4.648 2.436-7.672 7.56-7.672 5.18 0 7.196 3.08 7.196 7.364 0 4.76-2.408 7.84-7.56 7.84zm.196-2.94c1.82 0 2.94-1.26 2.94-4.76 0-3.304-1.008-4.48-2.828-4.48-1.848 0-3.08 1.148-3.08 4.508 0 3.388 1.092 4.732 2.968 4.732zm19.379-6.44c0-1.344-.084-2.464-1.484-2.464-1.036 0-2.324.588-2.912 1.036v7.504c0 .448.028.504.448.56l1.344.196V22h-7.728v-2.24l1.26-.168c.392-.056.448-.14.448-.56V10.8c0-.308-.084-.504-.364-.588l-1.512-.532.336-2.268h4.9l.224 1.456.112.056c1.4-1.036 3.024-1.792 4.928-1.792 3.052 0 4.228 1.68 4.228 4.76v7.14c0 .448.028.504.448.56l1.4.196V22h-6.076v-9.044zm18.12 8.26c-1.204.588-2.968 1.12-4.564 1.12-3.332 0-4.592-1.344-4.592-4.508v-7.336c0-.168 0-.28-.224-.28h-1.96V7.72c2.464-.28 3.444-1.512 3.752-4.564h2.66v3.976c0 .196 0 .28.224.28h3.948v2.8h-4.172v6.692c0 1.652.392 2.296 1.904 2.296.784 0 1.596-.196 2.268-.448l.756 2.464zm1.64-1.484l1.26-.168c.392-.056.448-.14.448-.56V10.8c0-.308-.084-.504-.364-.588l-1.512-.532.308-2.268h4.928l.336 2.24h.168c.924-1.428 2.156-2.52 3.948-2.52.644 0 1.932.112 2.436.252v5.096l-3.36-.112-.28-1.484c-.056-.252-.14-.308-.364-.308-.728 0-1.596.616-2.016.98v7.42c0 .448.028.532.448.56l2.772.224V22h-9.156v-2.268zm21.931.756l-.14-.028c-1.064 1.036-2.464 1.876-4.704 1.876-3.528 0-4.088-2.408-4.088-4.144 0-2.8 1.708-4.06 5.236-4.312l3.22-.224v-1.54c0-1.316-.14-2.212-1.876-2.212-1.344 0-2.044.196-2.044 1.876l-3.948-.336c0-3.78 3.444-4.312 6.02-4.312 4.256 0 5.964 1.148 5.964 5.068v6.804c0 .448.028.504.448.56l1.344.224V22h-5.152l-.28-1.512zm-2.38-4.368c-1.652.112-2.24.532-2.24 1.652 0 1.12.672 1.54 1.596 1.54.952 0 1.904-.532 2.548-1.008V15.98l-1.904.14zm28.078 4.788c-1.736.84-3.64 1.428-5.74 1.428-5.404 0-7.252-3.36-7.252-7.728 0-5.068 3.108-7.476 6.944-7.476 3.696 0 6.16 1.932 6.16 6.776 0 .336-.028 1.316-.056 1.876h-8.568c.14 1.988 1.008 3.304 3.304 3.304 1.092 0 2.268-.252 4.172-.952l1.036 2.772zm-4.032-7.784c-.028-2.352-.952-2.968-2.1-2.968-1.204 0-2.184.672-2.352 2.968h4.452zm5.863 6.664l1.4-.196c.392-.056.448-.14.448-.56V4.248c0-.308-.084-.504-.364-.588l-1.54-.532.308-2.268h5.824v18.172c0 .448.028.504.448.56l1.372.196V22h-7.896v-2.212zm15.248-.028l1.568-.168c.392-.056.448-.168.448-.588v-8.512c0-.168 0-.28-.224-.28h-1.876v-2.8h2.1v-1.54c0-3.78 2.128-5.348 5.992-5.348 2.604 0 5.012.644 5.012 4.032l-3.92.476c.028-1.428-.364-1.764-1.288-1.764-1.4 0-1.568.756-1.568 2.1v1.764c0 .196 0 .28.224.28h4.424v2.8h-4.648v8.708c0 .448.084.532.504.56l3.416.308V22h-10.164v-2.24zm12.474-.028l1.26-.168c.392-.056.448-.14.448-.56V10.8c0-.308-.084-.504-.364-.588l-1.512-.532.308-2.268h4.928l.336 2.24h.168c.924-1.428 2.156-2.52 3.948-2.52.644 0 1.932.112 2.436.252v5.096l-3.36-.112-.28-1.484c-.056-.252-.14-.308-.364-.308-.728 0-1.596.616-2.016.98v7.42c0 .448.028.532.448.56l2.772.224V22h-9.156v-2.268zm21.932.756l-.14-.028c-1.064 1.036-2.464 1.876-4.704 1.876-3.528 0-4.088-2.408-4.088-4.144 0-2.8 1.708-4.06 5.236-4.312l3.22-.224v-1.54c0-1.316-.14-2.212-1.876-2.212-1.344 0-2.044.196-2.044 1.876l-3.948-.336c0-3.78 3.444-4.312 6.02-4.312 4.256 0 5.964 1.148 5.964 5.068v6.804c0 .448.028.504.448.56l1.344.224V22h-5.152l-.28-1.512zm-2.38-4.368c-1.652.112-2.24.532-2.24 1.652 0 1.12.672 1.54 1.596 1.54.952 0 1.904-.532 2.548-1.008V15.98l-1.904.14zm19.433 4.368l-.14-.028c-1.148.868-2.604 1.876-4.984 1.876-2.94 0-4.06-1.68-4.06-4.928v-6.832c0-.448-.028-.504-.448-.588l-1.344-.28.28-2.296h5.74v9.268c0 1.708.28 2.352 1.484 2.352 1.232 0 2.24-.7 2.884-1.288v-7.196c0-.448-.028-.476-.448-.56l-1.204-.28.308-2.296h5.572v11.62c0 .364.056.476.392.532l1.4.196V22h-5.208l-.224-1.512zm17.226-.056l-.196-.028c-1.176 1.148-2.548 1.932-4.592 1.932-3.304 0-5.432-2.1-5.432-7.448 0-5.628 2.828-7.756 5.936-7.756 1.624 0 2.884.56 3.948 1.344V4.22c0-.28-.112-.476-.364-.56l-1.54-.532.308-2.268h5.628v18.2c0 .42.028.476.448.532l1.344.196V22h-5.208l-.28-1.568zm-.504-9.212c-.7-.476-1.596-.84-2.408-.84-2.072 0-2.884 1.932-2.884 4.424 0 2.716.784 4.228 2.548 4.228.952 0 1.988-.56 2.744-1.204V11.22zm20.23 9.688c-1.736.84-3.64 1.428-5.74 1.428-5.404 0-7.252-3.36-7.252-7.728 0-5.068 3.108-7.476 6.944-7.476 3.696 0 6.16 1.932 6.16 6.776 0 .336-.028 1.316-.056 1.876h-8.568c.14 1.988 1.008 3.304 3.304 3.304 1.092 0 2.268-.252 4.172-.952l1.036 2.772zm-4.032-7.784c-.028-2.352-.952-2.968-2.1-2.968-1.204 0-2.184.672-2.352 2.968h4.452zm11.326 7.028c0 1.428-.784 2.184-2.38 2.184-1.624 0-2.408-.728-2.408-2.184 0-1.428.784-2.184 2.408-2.184 1.568 0 2.38.756 2.38 2.184z" fill="#fff"/></svg>