<svg width="694" height="27" viewBox="0 0 694 27" fill="none" xmlns="http://www.w3.org/2000/svg"><path d="M6.685 26.901c-3.625 0-6.061-2.639-6.061-5.945 0-2.958 2.117-5.307 5.017-5.742l.232-2.465h1.885l.261 3.915c-3.19.029-5.133 1.885-5.133 4.321 0 2.059 1.711 3.77 3.886 3.77 1.74 0 3.103-.899 3.799-2.494l1.827.87c-.899 2.349-2.958 3.77-5.713 3.77zm.116-16.298a1.547 1.547 0 01-1.537-1.537c0-.87.696-1.537 1.537-1.537.87 0 1.537.667 1.537 1.537 0 .841-.696 1.537-1.537 1.537zM14.939 22V3.208h14.21v2.03H17.26v5.713h11.136v2.001H17.26v7.018h12.325V22H14.94zm28.863 4.089v-6.554c-1.044 1.827-3.045 2.755-5.307 2.755-3.915 0-6.67-3.248-6.67-7.366 0-4.118 2.755-7.337 6.67-7.337 2.29 0 4.35.899 5.394 2.726V7.877h2.117v18.212h-2.204zm-4.814-5.945c2.697 0 4.814-2.262 4.814-5.22 0-2.958-2.117-5.191-4.814-5.191-2.813 0-4.901 2.204-4.901 5.191 0 3.016 2.088 5.22 4.9 5.22zm15.621 2.146c-3.48 0-5.133-1.827-5.133-5.597V7.877h2.205v8.526c0 2.639 1.276 3.741 3.567 3.741 2.552 0 4.03-2.088 4.03-4.263V7.877h2.205V22h-2.117v-2.494c-.87 1.827-2.9 2.784-4.757 2.784zM65.2 22V7.877h2.205V22H65.2zm1.103-16.646c-.812 0-1.45-.638-1.45-1.45 0-.812.638-1.479 1.45-1.479.812 0 1.479.667 1.479 1.479s-.667 1.45-1.48 1.45zm4.817 20.735V7.877h2.117v2.436c1.044-1.827 3.103-2.726 5.394-2.726 3.915 0 6.67 3.219 6.67 7.337s-2.755 7.366-6.67 7.366c-2.233 0-4.263-.928-5.307-2.755v6.554h-2.204zm7.018-5.945c2.813 0 4.9-2.204 4.9-5.22 0-2.987-2.087-5.191-4.9-5.191-2.697 0-4.814 2.233-4.814 5.191 0 2.958 2.117 5.22 4.814 5.22zm17.13 2.146c-4.148 0-7.425-3.248-7.425-7.337 0-4.118 3.277-7.366 7.424-7.366s7.424 3.248 7.424 7.366c0 4.089-3.277 7.337-7.424 7.337zm0-2.146c2.928 0 5.161-2.233 5.161-5.191 0-2.987-2.233-5.22-5.162-5.22s-5.162 2.233-5.162 5.22c0 2.958 2.233 5.191 5.162 5.191zM112.126 22V7.877h2.204v2.436c.783-1.537 2.552-2.726 4.524-2.726 2.262 0 3.857.986 4.524 2.987 1.015-2.059 3.219-2.987 4.872-2.987 3.393 0 5.191 1.972 5.191 5.858V22h-2.233v-8.265c0-2.407-.841-4.002-3.422-4.002-2.378 0-3.886 1.914-3.886 4.031V22h-2.233v-8.265c0-2.407-.841-4.002-3.393-4.002-2.465 0-3.944 2.088-3.944 4.147V22h-2.204zm29.768-16.385l2.349-3.857h2.407l-2.726 3.857h-2.03zm1.798 16.675c-4.002 0-7.395-2.871-7.395-7.337 0-4.089 3.074-7.366 7.105-7.366 3.77 0 6.757 3.248 6.757 7.279 0 .406-.058.841-.058.87h-11.513c.348 2.813 2.523 4.582 5.133 4.582 1.595 0 3.19-.551 4.35-1.508l.957 1.624a8.642 8.642 0 01-5.336 1.856zm-5.104-8.236h9.396c-.232-2.61-2.233-4.495-4.698-4.495-2.407 0-4.379 1.856-4.698 4.495zm20.805 8.236c-3.915 0-6.67-3.248-6.67-7.337 0-4.147 2.755-7.366 6.67-7.366 2.262 0 4.263.928 5.307 2.755V2.918h2.204V22h-2.117v-2.465c-1.044 1.856-3.103 2.755-5.394 2.755zm.493-2.146c2.697 0 4.814-2.233 4.814-5.191 0-2.958-2.117-5.22-4.814-5.22-2.813 0-4.901 2.204-4.901 5.22 0 2.987 2.088 5.191 4.901 5.191zM170.608 22V7.877h2.204V22h-2.204zm1.102-16.646c-.812 0-1.45-.638-1.45-1.45 0-.812.638-1.479 1.45-1.479.812 0 1.479.667 1.479 1.479s-.667 1.45-1.479 1.45zm11.661 16.936c-4.147 0-7.424-3.219-7.424-7.337s3.277-7.366 7.424-7.366c1.943 0 3.712.696 5.046 1.885l-1.392 1.566c-.87-.812-2.146-1.305-3.625-1.305-2.958 0-5.191 2.204-5.191 5.22 0 2.929 2.146 5.191 5.249 5.191 1.595 0 3.045-.609 4.031-1.595l1.276 1.653c-1.363 1.305-3.277 2.088-5.394 2.088zm14.557 0c-4.147 0-7.424-3.248-7.424-7.337 0-4.118 3.277-7.366 7.424-7.366s7.424 3.248 7.424 7.366c0 4.089-3.277 7.337-7.424 7.337zm0-2.146c2.929 0 5.162-2.233 5.162-5.191 0-2.987-2.233-5.22-5.162-5.22s-5.162 2.233-5.162 5.22c0 2.958 2.233 5.191 5.162 5.191zm24.11-7.975V3.208h3.944v8.961h-3.944zm-6.612 0V3.208h3.944v8.961h-3.944zm22.731 14.094c-2.9 0-5.162-.667-6.496-1.566l1.885-3.306c1.16.754 2.842.957 4.031.957 1.914 0 2.9-.87 3.248-1.827.116-.29.174-.58.174-.87-.812 1.073-2.407 1.479-3.596 1.479-4.118 0-6.496-3.19-6.496-7.105 0-3.944 2.378-7.134 6.496-7.134 1.189 0 3.074.435 3.886 1.943V7.181h4.988v10.788c0 4.234-1.885 8.294-8.12 8.294zm.493-9.686c1.392 0 2.378-1.044 2.378-2.552s-.986-2.581-2.378-2.581c-1.392 0-2.378 1.073-2.378 2.581s.986 2.552 2.378 2.552zM248.444 22V7.181h5.133V9.82c.087-.638 1.363-2.929 4.843-2.929v5.742c-3.828 0-4.698 1.595-4.698 4.379V22h-5.278zm17.786.29c-4.118 0-6.351-3.422-6.351-7.685 0-4.292 2.233-7.714 6.351-7.714 1.189 0 3.161.406 4.031 1.943V7.181h4.988V22h-4.988v-1.653c-.812 1.508-2.842 1.943-4.031 1.943zm1.392-4.64c1.392 0 2.378-1.247 2.378-3.045 0-1.769-.986-3.074-2.378-3.074-1.392 0-2.378 1.305-2.378 3.074 0 1.798.986 3.045 2.378 3.045zm15.851 4.64c-2.842 0-4.698-1.827-4.698-5.075v-5.858H276.6V7.181h2.175V4.513l5.278-1.305v3.973h3.277v4.176h-3.277v5.452c0 .696.348.928.812.928.435 0 .957-.203 1.334-.464l1.421 3.857c-1.276.899-2.842 1.16-4.147 1.16zm5.526-.29V7.181h5.278V22h-5.278zm2.61-15.95c-1.624 0-2.987-1.363-2.987-2.987 0-1.653 1.363-3.016 2.987-3.016 1.682 0 3.045 1.363 3.045 3.016 0 1.624-1.363 2.987-3.045 2.987zm10.432 16.24c-3.393 0-5.278-1.015-6.148-1.769l1.682-3.712c1.16.783 2.233 1.247 4.495 1.247.058 0 1.45-.087 1.45-.667 0-.464-.87-.551-1.74-.754-3.219-.783-5.597-2.088-5.597-4.814 0-3.248 2.958-4.93 6.09-4.93 2.871 0 4.582.638 6.003 1.392l-1.566 3.538c-1.711-.667-3.277-.87-4.263-.87-.522 0-.928.174-.928.464 0 .551 1.247.754 2.726 1.16 2.088.609 4.611 1.624 4.611 4.611 0 3.973-4.031 5.104-6.815 5.104zm16.484-10.121V3.208h3.944v8.961h-3.944zm-6.612 0V3.208h3.944v8.961h-3.944zm16.467 13.92V7.877h2.117v2.436c1.044-1.827 3.103-2.726 5.394-2.726 3.915 0 6.67 3.219 6.67 7.337s-2.755 7.366-6.67 7.366c-2.233 0-4.263-.928-5.307-2.755v6.554h-2.204zm7.018-5.945c2.813 0 4.901-2.204 4.901-5.22 0-2.987-2.088-5.191-4.901-5.191-2.697 0-4.814 2.233-4.814 5.191 0 2.958 2.117 5.22 4.814 5.22zm17.13 2.146c-4.147 0-7.424-3.248-7.424-7.337 0-4.118 3.277-7.366 7.424-7.366s7.424 3.248 7.424 7.366c0 4.089-3.277 7.337-7.424 7.337zm0-2.146c2.929 0 5.162-2.233 5.162-5.191 0-2.987-2.233-5.22-5.162-5.22s-5.162 2.233-5.162 5.22c0 2.958 2.233 5.191 5.162 5.191zM363.073 22V7.877h2.204v2.987c.812-1.856 2.639-3.277 5.452-3.277v2.407c-3.306 0-5.452 1.856-5.452 5.307V22h-2.204zm21.238.29c-2.494 0-3.973-1.218-3.973-4.524V9.704h-2.117V7.877h2.117V4.832l2.204-.406v3.451h4.814v1.827h-4.814v8.12c0 1.943.841 2.494 1.972 2.494 1.305 0 2.32-.783 2.32-.783l.725 1.711c-.551.377-1.711 1.044-3.248 1.044zm10.765 0c-3.48 0-5.133-1.827-5.133-5.597V7.877h2.204v8.526c0 2.639 1.276 3.741 3.567 3.741 2.552 0 4.031-2.088 4.031-4.263V7.877h2.204V22h-2.117v-2.494c-.87 1.827-2.9 2.784-4.756 2.784zm16.906-.29V7.877h2.204v2.407c.986-1.711 2.813-2.697 4.901-2.697 3.538 0 5.104 2.146 5.104 5.858V22h-2.204v-8.265c0-2.61-.957-4.002-3.509-4.002-2.523 0-4.292 1.972-4.292 4.321V22h-2.204zm19.807-16.385l2.349-3.857h2.407l-2.726 3.857h-2.03zm.783 16.675c-3.48 0-5.133-1.827-5.133-5.597V7.877h2.204v8.526c0 2.639 1.276 3.741 3.567 3.741 2.552 0 4.031-2.088 4.031-4.263V7.877h2.204V22h-2.117v-2.494c-.87 1.827-2.9 2.784-4.756 2.784zm10.591-.29V7.877h2.204v2.436c.783-1.537 2.552-2.726 4.524-2.726 2.262 0 3.857.986 4.524 2.987 1.015-2.059 3.219-2.987 4.872-2.987 3.393 0 5.191 1.972 5.191 5.858V22h-2.233v-8.265c0-2.407-.841-4.002-3.422-4.002-2.378 0-3.886 1.914-3.886 4.031V22h-2.233v-8.265c0-2.407-.841-4.002-3.393-4.002-2.465 0-3.944 2.088-3.944 4.147V22h-2.204zm31.567.29c-4.002 0-7.395-2.871-7.395-7.337 0-4.089 3.074-7.366 7.105-7.366 3.77 0 6.757 3.248 6.757 7.279 0 .406-.058.841-.058.87h-11.513c.348 2.813 2.523 4.582 5.133 4.582 1.595 0 3.19-.551 4.35-1.508l.957 1.624a8.642 8.642 0 01-5.336 1.856zm-5.104-8.236h9.396c-.232-2.61-2.233-4.495-4.698-4.495-2.407 0-4.379 1.856-4.698 4.495zM484.34 22V7.877h2.204v2.987c.812-1.856 2.639-3.277 5.452-3.277v2.407c-3.306 0-5.452 1.856-5.452 5.307V22h-2.204zm16.756.29c-4.147 0-7.424-3.248-7.424-7.337 0-4.118 3.277-7.366 7.424-7.366s7.424 3.248 7.424 7.366c0 4.089-3.277 7.337-7.424 7.337zm0-2.146c2.929 0 5.162-2.233 5.162-5.191 0-2.987-2.233-5.22-5.162-5.22s-5.162 2.233-5.162 5.22c0 2.958 2.233 5.191 5.162 5.191zm22.951 2.146c-3.915 0-6.67-3.248-6.67-7.337 0-4.147 2.755-7.366 6.67-7.366 2.262 0 4.263.928 5.307 2.755V2.918h2.204V22h-2.117v-2.465c-1.044 1.856-3.103 2.755-5.394 2.755zm.493-2.146c2.697 0 4.814-2.233 4.814-5.191 0-2.958-2.117-5.22-4.814-5.22-2.813 0-4.901 2.204-4.901 5.22 0 2.987 2.088 5.191 4.901 5.191zm17.535 2.146c-4.002 0-7.395-2.871-7.395-7.337 0-4.089 3.074-7.366 7.105-7.366 3.77 0 6.757 3.248 6.757 7.279 0 .406-.058.841-.058.87h-11.513c.348 2.813 2.523 4.582 5.133 4.582 1.595 0 3.19-.551 4.35-1.508l.957 1.624a8.642 8.642 0 01-5.336 1.856zm-5.104-8.236h9.396c-.232-2.61-2.233-4.495-4.698-4.495-2.407 0-4.379 1.856-4.698 4.495zM557.741 22V3.208h4.698l3.683 5.278c.609.899 1.595 2.436 1.595 2.436s.986-1.537 1.595-2.436l3.683-5.278h4.698V22h-5.51v-9.512s-.957 1.537-1.479 2.262l-2.987 4.176-3.016-4.176c-.522-.725-1.45-2.204-1.45-2.204V22h-5.51zm30.735.29c-4.495 0-8.323-2.813-8.323-7.685 0-4.292 3.335-7.714 7.714-7.714 4.205 0 7.424 3.422 7.424 7.714 0 .899-.116 1.711-.116 1.711h-9.831c.435 1.392 1.74 1.914 3.161 1.914 1.247 0 2.581-.377 3.509-.899l1.769 3.567c-1.653 1.015-3.48 1.392-5.307 1.392zm-3.277-8.961h5.278c-.174-1.363-1.247-2.291-2.61-2.291-1.305 0-2.349.928-2.668 2.291zm18.184 8.961c-4.118 0-6.351-3.422-6.351-7.685 0-4.292 2.378-7.714 6.525-7.714 1.189 0 2.668.406 3.567 1.537v-5.51h5.278V22h-4.988v-1.653c-.783 1.508-2.842 1.943-4.031 1.943zm1.392-4.64c1.392 0 2.378-1.247 2.378-3.045 0-1.769-.986-3.074-2.378-3.074-1.392 0-2.378 1.305-2.378 3.074 0 1.798.986 3.045 2.378 3.045zm9.936 4.35V7.181h5.278V22h-5.278zm2.61-15.95c-1.624 0-2.987-1.363-2.987-2.987 0-1.653 1.363-3.016 2.987-3.016 1.682 0 3.045 1.363 3.045 3.016 0 1.624-1.363 2.987-3.045 2.987zm12.694 16.24c-4.553 0-8.004-3.422-8.004-7.685 0-4.292 3.451-7.714 8.004-7.714 2.03 0 3.683.609 5.249 1.856l-3.045 3.654c-.551-.522-1.16-.87-2.059-.87-1.711 0-2.813 1.305-2.813 3.074 0 1.798 1.073 3.045 2.929 3.045 1.015 0 1.856-.435 2.494-1.073l2.639 3.886c-1.421 1.189-3.306 1.827-5.394 1.827zm12.45 0c-4.118 0-6.351-3.422-6.351-7.685 0-4.292 2.233-7.714 6.351-7.714 1.189 0 3.161.406 4.031 1.943V7.181h4.988V22h-4.988v-1.653c-.812 1.508-2.842 1.943-4.031 1.943zm1.392-4.64c1.392 0 2.378-1.247 2.378-3.045 0-1.769-.986-3.074-2.378-3.074-1.392 0-2.378 1.305-2.378 3.074 0 1.798.986 3.045 2.378 3.045zm9.936 4.35V7.181h5.133V9.82c.087-.638 1.363-2.929 4.843-2.929v5.742c-3.828 0-4.698 1.595-4.698 4.379V22h-5.278zm19.757.29c-4.495 0-8.323-2.813-8.323-7.685 0-4.292 3.335-7.714 7.714-7.714 4.205 0 7.424 3.422 7.424 7.714 0 .899-.116 1.711-.116 1.711h-9.831c.435 1.392 1.74 1.914 3.161 1.914 1.247 0 2.581-.377 3.509-.899l1.769 3.567c-1.653 1.015-3.48 1.392-5.307 1.392zm-3.277-8.961h5.278c-.174-1.363-1.247-2.291-2.61-2.291-1.305 0-2.349.928-2.668 2.291zm17.314-10.411c3.625 0 6.061 2.639 6.061 5.945 0 2.958-2.117 5.307-5.017 5.742l-.232 2.465h-1.885l-.261-3.915c3.19-.029 5.133-1.885 5.133-4.321 0-2.059-1.711-3.77-3.886-3.77-1.74 0-3.103.899-3.799 2.494l-1.827-.87c.899-2.349 2.958-3.77 5.713-3.77zm-.116 16.298c.841 0 1.537.696 1.537 1.537 0 .87-.696 1.537-1.537 1.537a1.51 1.51 0 01-1.537-1.537c0-.841.696-1.537 1.537-1.537z" fill="#42443C"/></svg>