<svg width="209" height="103" viewBox="0 0 209 103" fill="none" xmlns="http://www.w3.org/2000/svg"><path d="M6.293 23.822c0 1.683-.924 2.574-2.805 2.574-1.914 0-2.838-.858-2.838-2.574 0-1.683.924-2.574 2.838-2.574 1.848 0 2.805.891 2.805 2.574zm9.289 0c0 1.683-.924 2.574-2.805 2.574-1.914 0-2.838-.858-2.838-2.574 0-1.683.924-2.574 2.838-2.574 1.848 0 2.805.891 2.805 2.574zm9.289 0c0 1.683-.924 2.574-2.805 2.574-1.914 0-2.838-.858-2.838-2.574 0-1.683.924-2.574 2.838-2.574 1.848 0 2.805.891 2.805 2.574zm20.613.396l-.165-.033c-1.254 1.221-2.904 2.211-5.544 2.211-4.158 0-4.818-2.838-4.818-4.884 0-3.3 2.013-4.785 6.17-5.082l3.796-.264v-1.815c0-1.551-.165-2.607-2.211-2.607-1.584 0-2.41.231-2.41 2.211l-4.652-.396c0-4.455 4.059-5.082 7.095-5.082 5.016 0 7.029 1.353 7.029 5.973v8.019c0 .528.033.594.528.66l1.584.264V26h-6.072l-.33-1.782zm-2.805-5.148c-1.947.132-2.64.627-2.64 1.947s.792 1.815 1.88 1.815c1.123 0 2.245-.627 3.004-1.188v-2.739l-2.244.165zm32.696 5.709c-1.518.924-3.861 1.617-6.27 1.617-5.973 0-8.646-3.729-8.646-8.745 0-6.171 3.762-9.174 9.042-9.174 2.574 0 4.85.726 5.874 1.386v5.181l-3.531-.165-.396-2.178c-.033-.231-.1-.429-.396-.528-.396-.132-1.023-.231-1.683-.231-1.98 0-3.663 1.353-3.663 5.214 0 4.29 1.914 5.511 4.257 5.511 1.65 0 3.135-.528 4.125-.957l1.287 3.069zm12.51-.561l-.165-.033c-1.254 1.221-2.904 2.211-5.544 2.211-4.158 0-4.818-2.838-4.818-4.884 0-3.3 2.013-4.785 6.171-5.082l3.795-.264v-1.815c0-1.551-.165-2.607-2.211-2.607-1.584 0-2.409.231-2.409 2.211l-4.653-.396c0-4.455 4.059-5.082 7.095-5.082 5.016 0 7.029 1.353 7.029 5.973v8.019c0 .528.033.594.528.66l1.584.264V26h-6.072l-.33-1.782zM85.08 19.07c-1.947.132-2.64.627-2.64 1.947s.792 1.815 1.881 1.815c1.122 0 2.244-.627 3.003-1.188v-2.739l-2.244.165zm31.635-3.729c0-1.287-.132-2.838-1.848-2.838-.924 0-1.815.33-2.673.891.066.528.099 1.056.099 1.617v7.491c0 .561.033.627.528.693l1.32.198V26h-6.831V15.176c0-1.221-.099-2.673-1.749-2.673-.99 0-2.079.495-2.739 1.056v8.943c0 .528.033.594.528.66l1.617.231V26h-9.14v-2.607l1.484-.231c.462-.066.528-.165.528-.66V12.8c0-.363-.099-.594-.429-.693l-1.782-.627.363-2.673h5.808l.264 1.716.165.033c1.485-1.221 3.168-2.079 5.28-2.079 1.617 0 3.102.429 4.026 1.98 1.089-.858 3.003-1.98 5.313-1.98 3.531 0 4.851 1.749 4.851 5.577v8.448c0 .528.033.627.528.693l1.65.198V26h-7.161V15.341zM126.67 26c.231-1.485.495-3.201.495-4.818V5.078c0-.363-.099-.594-.429-.693l-1.815-.627.363-2.673h6.798v9.141l.132.033c1.419-1.155 2.97-1.782 4.983-1.782 3.564 0 6.369 2.31 6.369 8.448 0 6.798-2.871 9.471-6.93 9.471-2.178 0-3.828-.924-4.851-2.079l-.165.033-.231 1.65h-4.719zm5.445-4.752c.759.693 1.881 1.287 3.036 1.287 2.178 0 3.201-2.046 3.201-5.346 0-2.574-.825-4.818-3.036-4.818-1.188 0-2.409.627-3.201 1.155v7.722zm20.708-18.051c0 1.881-1.089 2.97-3.003 2.97-1.881 0-2.97-1.089-2.97-2.97 0-1.881 1.089-2.904 2.97-2.904 1.914 0 3.003 1.023 3.003 2.904zm-7.26 20.196l1.683-.231c.462-.066.528-.165.528-.66V12.8c0-.363-.099-.594-.429-.693l-1.782-.627.363-2.673h6.831v13.695c0 .528.033.594.528.66l1.683.231V26h-9.405v-2.607zm19.483 3.003c-6.039 0-8.481-3.696-8.481-8.877 0-5.478 2.871-9.042 8.91-9.042 6.105 0 8.481 3.63 8.481 8.679 0 5.61-2.838 9.24-8.91 9.24zm.231-3.465c2.145 0 3.465-1.485 3.465-5.61 0-3.894-1.188-5.28-3.333-5.28-2.178 0-3.63 1.353-3.63 5.313 0 3.993 1.287 5.577 3.498 5.577zM12.2 62.152l-.231-.033c-1.386 1.353-3.003 2.277-5.412 2.277-3.894 0-6.402-2.475-6.402-8.778 0-6.633 3.333-9.141 6.996-9.141 1.914 0 3.399.66 4.653 1.584v-5.016c0-.33-.132-.561-.429-.66l-1.815-.627.363-2.673h6.633v21.45c0 .495.033.561.528.627l1.584.231V64H12.53l-.33-1.848zm-.594-10.857c-.825-.561-1.881-.99-2.838-.99-2.442 0-3.399 2.277-3.399 5.214 0 3.201.924 4.983 3.003 4.983 1.122 0 2.343-.66 3.234-1.419v-7.788zm23.843 11.418c-2.046.99-4.29 1.683-6.765 1.683-6.369 0-8.547-3.96-8.547-9.108 0-5.973 3.663-8.811 8.184-8.811 4.356 0 7.26 2.277 7.26 7.986 0 .396-.033 1.551-.066 2.211H25.417c.165 2.343 1.188 3.894 3.894 3.894 1.287 0 2.673-.297 4.917-1.122l1.221 3.267zm-4.752-9.174c-.033-2.772-1.122-3.498-2.475-3.498-1.419 0-2.574.792-2.772 3.498h5.247zm26.847 9.537c-1.42.693-3.498 1.32-5.38 1.32-3.926 0-5.411-1.584-5.411-5.313v-8.646c0-.198 0-.33-.264-.33h-2.31V47.17c2.904-.33 4.059-1.782 4.422-5.379h3.135v4.686c0 .231 0 .33.264.33h4.653v3.3h-4.917v7.887c0 1.947.462 2.706 2.244 2.706.924 0 1.88-.231 2.673-.528l.89 2.904zm13.896-.858l-.165-.033c-1.353 1.023-3.069 2.211-5.874 2.211-3.465 0-4.785-1.98-4.785-5.808v-8.052c0-.528-.033-.594-.528-.693l-1.584-.33.33-2.706H65.6V57.73c0 2.013.33 2.772 1.75 2.772 1.451 0 2.64-.825 3.398-1.518v-8.481c0-.528-.033-.561-.528-.66l-1.419-.33.363-2.706h6.567v13.695c0 .429.066.561.462.627l1.65.231V64h-6.138l-.264-1.782zm27.33-8.877c0-1.584-.098-2.904-1.748-2.904-1.221 0-2.74.693-3.432 1.221v8.844c0 .528.033.594.528.66l1.584.231V64h-9.108v-2.64l1.485-.198c.462-.066.528-.165.528-.66V50.8c0-.363-.1-.594-.43-.693l-1.781-.627.396-2.673h5.775l.264 1.716.132.066c1.65-1.221 3.564-2.112 5.808-2.112 3.597 0 4.983 1.98 4.983 5.61v8.415c0 .528.033.594.528.66l1.65.231V64h-7.161V53.341zm21.162 8.877l-.165-.033c-1.353 1.023-3.069 2.211-5.874 2.211-3.465 0-4.785-1.98-4.785-5.808v-8.052c0-.528-.033-.594-.528-.693l-1.584-.33.33-2.706h6.765V57.73c0 2.013.33 2.772 1.749 2.772 1.452 0 2.64-.825 3.399-1.518v-8.481c0-.528-.033-.561-.528-.66l-1.419-.33.363-2.706h6.567v13.695c0 .429.066.561.462.627l1.65.231V64h-6.138l-.264-1.782zm-6.864-18.381l5.049-5.742 2.706 2.574-5.907 4.818-1.848-1.65zm35.906 9.504c0-1.287-.132-2.838-1.848-2.838-.924 0-1.815.33-2.673.891.066.528.099 1.056.099 1.617v7.491c0 .561.033.627.528.693l1.32.198V64h-6.831V53.176c0-1.221-.099-2.673-1.749-2.673-.99 0-2.079.495-2.739 1.056v8.943c0 .528.033.594.528.66l1.617.231V64h-9.141v-2.607l1.485-.231c.462-.066.528-.165.528-.66V50.8c0-.363-.099-.594-.429-.693l-1.782-.627.363-2.673h5.808l.264 1.716.165.033c1.485-1.221 3.168-2.079 5.28-2.079 1.617 0 3.102.429 4.026 1.98 1.089-.858 3.003-1.98 5.313-1.98 3.531 0 4.851 1.749 4.851 5.577v8.448c0 .528.033.627.528.693l1.65.198V64h-7.161V53.341zm24.112 9.372c-2.046.99-4.29 1.683-6.765 1.683-6.369 0-8.547-3.96-8.547-9.108 0-5.973 3.663-8.811 8.184-8.811 4.356 0 7.26 2.277 7.26 7.986 0 .396-.033 1.551-.066 2.211h-10.098c.165 2.343 1.188 3.894 3.894 3.894 1.287 0 2.673-.297 4.917-1.122l1.221 3.267zm-4.752-9.174c-.033-2.772-1.122-3.498-2.475-3.498-1.419 0-2.574.792-2.772 3.498h5.247zm7.075 7.788l1.485-.198c.462-.066.528-.165.528-.66V50.8c0-.363-.099-.594-.429-.693l-1.782-.627.363-2.673h5.808l.396 2.64h.198c1.089-1.683 2.541-2.97 4.653-2.97.759 0 2.277.132 2.871.297v6.006l-3.96-.132-.33-1.749c-.066-.297-.165-.363-.429-.363-.858 0-1.881.726-2.376 1.155v8.745c0 .528.033.627.528.66l3.267.264V64h-10.791v-2.673zm24.281 3.069c-6.039 0-8.481-3.696-8.481-8.877 0-5.478 2.871-9.042 8.91-9.042 6.105 0 8.481 3.63 8.481 8.679 0 5.61-2.838 9.24-8.91 9.24zm.231-3.465c2.145 0 3.465-1.485 3.465-5.61 0-3.894-1.188-5.28-3.333-5.28-2.178 0-3.63 1.353-3.63 5.313 0 3.993 1.287 5.577 3.498 5.577zM12.2 100.152l-.231-.033c-1.386 1.353-3.003 2.277-5.412 2.277-3.894 0-6.402-2.475-6.402-8.778 0-6.633 3.333-9.141 6.996-9.141 1.914 0 3.399.66 4.653 1.584v-5.016c0-.33-.132-.561-.429-.66l-1.815-.627.363-2.673h6.633v21.45c0 .495.033.561.528.627l1.584.231V102H12.53l-.33-1.848zm-.594-10.857c-.825-.561-1.881-.99-2.838-.99-2.442 0-3.399 2.277-3.399 5.214 0 3.201.924 4.983 3.003 4.983 1.122 0 2.343-.66 3.234-1.419v-7.788zm23.843 11.418c-2.046.99-4.29 1.683-6.765 1.683-6.369 0-8.547-3.96-8.547-9.108 0-5.973 3.663-8.811 8.184-8.811 4.356 0 7.26 2.277 7.26 7.986 0 .396-.033 1.551-.066 2.211H25.417c.165 2.343 1.188 3.894 3.894 3.894 1.287 0 2.673-.297 4.917-1.122l1.221 3.267zm-4.752-9.174c-.033-2.772-1.122-3.498-2.475-3.498-1.419 0-2.574.792-2.772 3.498h5.247zm32.952 7.887l2.706-.231c.495-.033.528-.198.528-.66v-12.54h-.132l-4.72 11.253h-5.378L52 85.962h-.165v12.54c0 .528.066.627.528.66l2.838.264V102H45.169v-2.574l2.079-.231c.462-.066.528-.165.528-.66V81.606c0-.495-.066-.594-.528-.66l-2.08-.231v-2.607h8.845l5.742 14.949h.132l6.039-14.949h8.58v2.574l-2.211.264c-.495.066-.528.132-.528.627v16.962c0 .429.099.561.528.627l2.21.264V102H63.65v-2.574zm28.22 1.287c-2.046.99-4.29 1.683-6.765 1.683-6.37 0-8.547-3.96-8.547-9.108 0-5.973 3.663-8.811 8.184-8.811 4.356 0 7.26 2.277 7.26 7.986 0 .396-.033 1.551-.066 2.211H81.837c.165 2.343 1.188 3.894 3.894 3.894 1.287 0 2.673-.297 4.917-1.122l1.22 3.267zm-4.752-9.174c-.033-2.772-1.122-3.498-2.475-3.498-1.42 0-2.574.792-2.772 3.498h5.247zm19.32 8.613l-.231-.033c-1.386 1.353-3.003 2.277-5.412 2.277-3.894 0-6.402-2.475-6.402-8.778 0-6.633 3.333-9.141 6.996-9.141 1.914 0 3.399.66 4.653 1.584v-5.016c0-.33-.132-.561-.429-.66l-1.815-.627.363-2.673h6.633v21.45c0 .495.033.561.528.627l1.584.231V102h-6.138l-.33-1.848zm-.594-10.857c-.825-.561-1.881-.99-2.838-.99-2.442 0-3.4 2.277-3.4 5.214 0 3.201.925 4.983 3.004 4.983 1.122 0 2.343-.66 3.234-1.419v-7.788zm15.818-10.098c0 1.881-1.089 2.97-3.003 2.97-1.881 0-2.97-1.089-2.97-2.97 0-1.881 1.089-2.904 2.97-2.904 1.914 0 3.003 1.023 3.003 2.904zm-7.26 20.196l1.683-.231c.462-.066.528-.165.528-.66V88.8c0-.363-.099-.594-.429-.693l-1.782-.627.363-2.673h6.831v13.695c0 .528.033.594.528.66l1.683.231V102h-9.405v-2.607zm25.918 1.386c-1.518.924-3.861 1.617-6.27 1.617-5.973 0-8.646-3.729-8.646-8.745 0-6.171 3.762-9.174 9.042-9.174 2.574 0 4.851.726 5.874 1.386v5.181l-3.531-.165-.396-2.178c-.033-.231-.099-.429-.396-.528-.396-.132-1.023-.231-1.683-.231-1.98 0-3.663 1.353-3.663 5.214 0 4.29 1.914 5.511 4.257 5.511 1.65 0 3.135-.528 4.125-.957l1.287 3.069zm12.51-.561l-.165-.033c-1.254 1.221-2.904 2.211-5.544 2.211-4.158 0-4.818-2.838-4.818-4.884 0-3.3 2.013-4.785 6.171-5.082l3.795-.264v-1.815c0-1.551-.165-2.607-2.211-2.607-1.584 0-2.409.231-2.409 2.211l-4.653-.396c0-4.455 4.059-5.082 7.095-5.082 5.016 0 7.029 1.353 7.029 5.973v8.019c0 .528.033.594.528.66l1.584.264V102h-6.072l-.33-1.782zm-2.805-5.148c-1.947.132-2.64.627-2.64 1.947s.792 1.815 1.881 1.815c1.122 0 2.244-.627 3.003-1.188v-2.739l-2.244.165zm10.746 4.257l1.485-.198c.462-.066.528-.165.528-.66V88.8c0-.363-.099-.594-.429-.693l-1.782-.627.363-2.673h5.808l.396 2.64h.198c1.089-1.683 2.541-2.97 4.653-2.97.759 0 2.277.132 2.871.297v6.006l-3.96-.132-.33-1.749c-.066-.297-.165-.363-.429-.363-.858 0-1.881.726-2.376 1.155v8.745c0 .528.033.627.528.66l3.267.264V102H160.77v-2.673zm31.112 1.386c-2.046.99-4.29 1.683-6.765 1.683-6.369 0-8.547-3.96-8.547-9.108 0-5.973 3.663-8.811 8.184-8.811 4.356 0 7.26 2.277 7.26 7.986 0 .396-.033 1.551-.066 2.211H181.85c.165 2.343 1.188 3.894 3.894 3.894 1.287 0 2.673-.297 4.917-1.122l1.221 3.267zm-4.752-9.174c-.033-2.772-1.122-3.498-2.475-3.498-1.419 0-2.574.792-2.772 3.498h5.247zm13.349 8.283c0 1.683-.924 2.574-2.805 2.574-1.914 0-2.838-.858-2.838-2.574 0-1.683.924-2.574 2.838-2.574 1.848 0 2.805.891 2.805 2.574z" fill="#2B3D51"/></svg>