<svg width="547" height="99" viewBox="0 0 547 99" fill="none" xmlns="http://www.w3.org/2000/svg"><path d="M5.757 29.57c-1.71 0-2.964-1.368-2.964-3.021 0-1.653 1.311-3.021 2.964-3.021a3.041 3.041 0 013.021 3.021 3.041 3.041 0 01-3.021 3.021zm11.578 0c-1.71 0-2.964-1.368-2.964-3.021 0-1.653 1.311-3.021 2.964-3.021a3.041 3.041 0 013.021 3.021 3.041 3.041 0 01-3.02 3.021zm11.578 0c-1.71 0-2.964-1.368-2.964-3.021 0-1.653 1.311-3.021 2.964-3.021a3.041 3.041 0 013.021 3.021 3.041 3.041 0 01-3.02 3.021zm21.44 0c-7.696 0-13.11-6.384-13.11-14.421 0-8.151 5.414-14.478 13.11-14.478 4.445 0 8.378 1.824 10.43 5.415V1.241h4.332V29h-4.332v-4.845c-2.052 3.648-5.985 5.415-10.43 5.415zm.968-4.218c5.301 0 9.462-4.389 9.462-10.203 0-5.814-4.16-10.26-9.462-10.26-5.529 0-9.633 4.332-9.633 10.26 0 5.871 4.104 10.203 9.633 10.203zM84.806 29V1.241h4.332v4.788C90.678 3.008 94.154.671 98.03.671c4.446 0 7.581 1.938 8.892 5.871 1.995-4.047 6.327-5.871 9.576-5.871 6.669 0 10.203 3.876 10.203 11.514V29h-4.389V12.755c0-4.731-1.653-7.866-6.726-7.866-4.674 0-7.638 3.762-7.638 7.923V29h-4.389V12.755c0-4.731-1.653-7.866-6.669-7.866-4.845 0-7.752 4.104-7.752 8.151V29h-4.332zm62.046.57c-7.866 0-14.535-5.643-14.535-14.421 0-8.037 6.042-14.478 13.965-14.478 7.41 0 13.281 6.384 13.281 14.307 0 .798-.114 1.653-.114 1.71H136.82c.684 5.529 4.959 9.006 10.089 9.006 3.135 0 6.27-1.083 8.55-2.964l1.881 3.192a16.985 16.985 0 01-10.488 3.648zM136.82 13.382h18.468c-.456-5.13-4.389-8.835-9.234-8.835-4.731 0-8.607 3.648-9.234 8.835zM165.742 29V1.241h4.332v4.731c1.938-3.363 5.529-5.301 9.633-5.301 6.954 0 10.032 4.218 10.032 11.514V29h-4.332V12.755c0-5.13-1.881-7.866-6.897-7.866-4.959 0-8.436 3.876-8.436 8.493V29h-4.332zm44.29.57c-8.151 0-14.592-6.384-14.592-14.421 0-8.094 6.441-14.478 14.592-14.478s14.592 6.384 14.592 14.478c0 8.037-6.441 14.421-14.592 14.421zm0-4.218c5.757 0 10.146-4.389 10.146-10.203 0-5.871-4.389-10.26-10.146-10.26-5.757 0-10.146 4.389-10.146 10.26 0 5.814 4.389 10.203 10.146 10.203zm30.073 4.218c-5.643 0-9.234-2.565-10.83-4.218l1.767-3.534c2.052 1.995 5.016 3.648 9.063 3.648 3.819 0 6.954-1.767 6.954-4.275 0-2.907-3.363-3.705-6.726-4.56-5.13-1.311-9.804-2.736-9.804-8.037 0-5.016 5.244-7.923 9.918-7.923 3.819 0 6.612 1.026 9.462 2.964l-1.71 3.534c-2.337-1.596-4.788-2.394-7.695-2.394-2.85 0-5.529 1.596-5.529 3.762 0 2.736 3.078 3.363 6.327 4.047 5.016 1.14 10.203 3.021 10.203 8.493 0 5.871-5.985 8.493-11.4 8.493zm52.185 7.467V24.155c-2.052 3.591-5.985 5.415-10.431 5.415-7.695 0-13.11-6.384-13.11-14.478S274.164.671 281.859.671c4.503 0 8.55 1.767 10.602 5.358V1.241h4.161v35.796h-4.332zm-9.462-11.685c5.301 0 9.462-4.446 9.462-10.26s-4.161-10.203-9.462-10.203c-5.529 0-9.633 4.332-9.633 10.203 0 5.928 4.104 10.26 9.633 10.26zm30.705 4.218c-6.84 0-10.089-3.591-10.089-11.001V1.241h4.332v16.758c0 5.187 2.508 7.353 7.011 7.353 5.016 0 7.923-4.104 7.923-8.379V1.241h4.332V29h-4.161v-4.902c-1.71 3.591-5.7 5.472-9.348 5.472zm34.21 0c-7.866 0-14.535-5.643-14.535-14.421 0-8.037 6.042-14.478 13.965-14.478 7.41 0 13.281 6.384 13.281 14.307 0 .798-.114 1.653-.114 1.71h-22.629c.684 5.529 4.959 9.006 10.089 9.006 3.135 0 6.27-1.083 8.55-2.964l1.881 3.192a16.985 16.985 0 01-10.488 3.648zm-10.032-16.188h18.468c-.456-5.13-4.389-8.835-9.234-8.835-4.731 0-8.607 3.648-9.234 8.835zm2.983 84.655V62.241h4.161v4.788c2.052-3.591 6.099-5.358 10.602-5.358 7.695 0 13.11 6.327 13.11 14.421s-5.415 14.478-13.11 14.478c-4.389 0-8.379-1.824-10.431-5.415v12.882h-4.332zm13.794-11.685c5.529 0 9.633-4.332 9.633-10.26 0-5.871-4.104-10.203-9.633-10.203-5.301 0-9.462 4.389-9.462 10.203 0 5.814 4.161 10.26 9.462 10.26zM374.705 90V62.241h4.332v5.871c1.596-3.648 5.187-6.441 10.716-6.441v4.731c-6.498 0-10.716 3.648-10.716 10.431V90h-4.332zm20.039 0V62.241h4.332V90h-4.332zm2.166-32.718a2.822 2.822 0 01-2.85-2.85c0-1.596 1.254-2.907 2.85-2.907a2.92 2.92 0 012.907 2.907c0 1.596-1.311 2.85-2.907 2.85zM406.377 90V62.241h4.332v4.788c1.539-3.021 5.016-5.358 8.892-5.358 4.446 0 7.581 1.938 8.892 5.871 1.995-4.047 6.327-5.871 9.576-5.871 6.669 0 10.203 3.876 10.203 11.514V90h-4.389V73.755c0-4.731-1.653-7.866-6.726-7.866-4.674 0-7.638 3.762-7.638 7.923V90h-4.389V73.755c0-4.731-1.653-7.866-6.669-7.866-4.845 0-7.752 4.104-7.752 8.151V90h-4.332zm62.046.57c-7.866 0-14.535-5.643-14.535-14.421 0-8.037 6.042-14.478 13.965-14.478 7.41 0 13.281 6.384 13.281 14.307 0 .798-.114 1.653-.114 1.71h-22.629c.684 5.529 4.959 9.006 10.089 9.006 3.135 0 6.27-1.083 8.55-2.964l1.881 3.192a16.985 16.985 0 01-10.488 3.648zm-10.032-16.188h18.468c-.456-5.13-4.389-8.835-9.234-8.835-4.731 0-8.607 3.648-9.234 8.835zM487.313 90V62.241h4.332v5.871c1.596-3.648 5.187-6.441 10.716-6.441v4.731c-6.498 0-10.716 3.648-10.716 10.431V90h-4.332zm32.934.57c-8.151 0-14.592-6.384-14.592-14.421 0-8.094 6.441-14.478 14.592-14.478s14.592 6.384 14.592 14.478c0 8.037-6.441 14.421-14.592 14.421zm0-4.218c5.757 0 10.146-4.389 10.146-10.203 0-5.871-4.389-10.26-10.146-10.26-5.757 0-10.146 4.389-10.146 10.26 0 5.814 4.389 10.203 10.146 10.203zm22.835 4.218c-1.71 0-2.964-1.368-2.964-3.021 0-1.653 1.311-3.021 2.964-3.021a3.041 3.041 0 013.021 3.021 3.041 3.041 0 01-3.021 3.021z" fill="#275D80"/><path d="M13.623 90.57c-5.7 0-8.778-3.306-8.778-9.747V67.656H.684V61.5h4.161v-5.472l7.638-1.71V61.5h7.866v6.156h-7.866v13.053c0 2.451 1.197 3.249 2.565 3.249 1.824 0 3.42-1.026 3.648-1.197l2.166 5.643a13.134 13.134 0 01-7.239 2.166zm18.859-32.946l5.358-8.949h7.581l-6.669 8.949h-6.27zm2.109 32.946c-7.866 0-10.374-4.617-10.374-12.027V61.5h7.638v16.017c0 3.99 1.71 5.814 5.244 5.814 3.99 0 5.928-3.363 5.928-7.239V61.5h7.638V90h-7.182v-3.99c-1.71 2.793-5.586 4.56-8.892 4.56zm34.39-.57V52.494h7.637V90H68.98zm27.834.57c-8.493 0-15.22-6.555-15.22-14.82s6.727-14.82 15.22-14.82c8.55 0 15.276 6.555 15.276 14.82s-6.726 14.82-15.276 14.82zm0-7.068c4.275 0 7.467-3.249 7.467-7.752 0-4.446-3.192-7.752-7.467-7.752-4.275 0-7.467 3.306-7.467 7.752 0 4.503 3.192 7.752 7.467 7.752zm30.238 7.068c-6.099 0-10.032-2.394-11.628-3.876l2.736-5.871c1.938 1.482 4.617 3.021 8.892 3.021 1.767 0 4.674-.684 4.674-2.394s-2.451-2.109-4.902-2.793c-5.643-1.482-10.26-3.363-10.26-8.835 0-5.814 5.7-8.892 11.058-8.892 4.674 0 7.638 1.14 10.602 2.85l-2.565 5.7c-2.793-1.368-5.415-1.995-7.923-1.995-1.767 0-3.42.798-3.42 1.995 0 1.596 2.394 2.109 5.016 2.679 4.845 1.14 10.146 3.249 10.146 9.063 0 7.011-7.125 9.348-12.426 9.348zM156.54 90V52.494h7.638V90h-7.638zm13.471 0V52.494h7.638V90h-7.638zm25.497.57c-7.866 0-12.882-6.612-12.882-14.82s5.016-14.82 12.882-14.82c3.306 0 6.84 1.311 8.892 4.047V61.5h7.467V90H204.4v-3.42c-1.995 2.736-5.586 3.99-8.892 3.99zm1.938-7.068c3.933 0 6.783-3.192 6.783-7.752 0-4.446-2.85-7.752-6.783-7.752-4.104 0-7.068 3.306-7.068 7.752 0 4.503 2.964 7.752 7.068 7.752zM217.659 90V61.5h7.467v3.819c1.653-2.565 5.016-4.389 8.436-4.389 4.503 0 7.296 1.881 8.778 5.073 2.052-3.42 5.985-5.073 9.234-5.073 8.037 0 10.545 5.529 10.545 12.825V90h-7.638V74.724c0-3.762-.912-6.555-4.959-6.555-3.762 0-5.814 3.021-5.814 6.783V90h-7.638V74.724c0-3.762-.855-6.555-4.959-6.555-3.876 0-5.814 3.306-5.814 7.068V90h-7.638zm64.638.57c-8.322 0-15.618-5.415-15.618-14.82 0-8.208 6.384-14.82 14.763-14.82 7.752 0 13.851 6.612 13.851 14.706 0 1.368-.171 2.736-.171 2.736h-20.691c.912 3.933 4.161 5.814 7.923 5.814 2.736 0 5.586-.798 7.695-2.223l2.85 5.472c-3.192 2.109-6.897 3.135-10.602 3.135zm-7.98-17.271h13.794c-.57-3.591-3.42-5.985-6.897-5.985-3.306 0-6.156 2.394-6.897 5.985zm36.149 17.271c-6.099 0-10.032-2.394-11.628-3.876l2.736-5.871c1.938 1.482 4.617 3.021 8.892 3.021 1.767 0 4.674-.684 4.674-2.394s-2.451-2.109-4.902-2.793c-5.643-1.482-10.26-3.363-10.26-8.835 0-5.814 5.7-8.892 11.058-8.892 4.674 0 7.638 1.14 10.602 2.85l-2.565 5.7c-2.793-1.368-5.415-1.995-7.923-1.995-1.767 0-3.42.798-3.42 1.995 0 1.596 2.394 2.109 5.016 2.679 4.845 1.14 10.146 3.249 10.146 9.063 0 7.011-7.125 9.348-12.426 9.348z" fill="#091C29"/></svg>