<svg width="471" height="41" viewBox="0 0 471 41" fill="none" xmlns="http://www.w3.org/2000/svg"><path d="M23.703 22.383H5.483c.264 1.616.965 2.903 2.107 3.854 1.141.956 2.6 1.431 4.373 1.431 2.12 0 3.942-.746 5.467-2.234l4.777 2.255c-1.19 1.701-2.617 2.956-4.28 3.771-1.663.816-3.636 1.222-5.919 1.222-3.546 0-6.432-1.123-8.662-3.374C1.116 27.058 0 24.241 0 20.854c0-3.387 1.113-6.35 3.334-8.643 2.222-2.292 5.01-3.436 8.364-3.436 3.559 0 6.453 1.148 8.683 3.436 2.23 2.292 3.346 5.318 3.346 9.082l-.02 1.086-.004.004zm-5.67-4.493c-.375-1.267-1.113-2.3-2.218-3.092-1.104-.795-2.38-1.193-3.84-1.193-1.58 0-2.967.447-4.161 1.337-.75.557-1.443 1.537-2.083 2.948h12.302zM41.386 12.539l-3.51 3.53c-1.427-1.423-2.723-2.132-3.885-2.132-.636 0-1.137.135-1.495.406-.363.27-.539.61-.539 1.012 0 .308.115.59.343.845.228.258.79.61 1.691 1.053l2.08 1.046c2.188 1.087 3.692 2.194 4.507 3.321.816 1.127 1.227 2.452 1.227 3.969 0 2.021-.737 3.706-2.213 5.055-1.475 1.353-3.453 2.026-5.93 2.026-3.298 0-5.927-1.296-7.896-3.887l3.489-3.826a8.068 8.068 0 002.336 1.89c.892.48 1.687.722 2.38.722.75 0 1.35-.18 1.806-.541.456-.36.684-.78.684-1.255 0-.877-.823-1.734-2.47-2.57l-1.911-.96c-3.657-1.853-5.483-4.174-5.483-6.957 0-1.796.69-3.334 2.067-4.609 1.378-1.275 3.143-1.91 5.287-1.91 1.467 0 2.849.324 4.145.971 1.296.648 2.393 1.579 3.294 2.788l-.005.013zM47.32 26.141c.901 0 1.672.316 2.308.951.636.636.954 1.402.954 2.309 0 .906-.318 1.68-.954 2.32-.636.64-1.407.96-2.307.96-.901 0-1.667-.32-2.307-.96a3.173 3.173 0 01-.954-2.32c0-.907.318-1.677.954-2.309a3.144 3.144 0 012.307-.95zM59.716 1.362h5.665l7.089 21.442 7.15-21.442h5.665l5.132 30.741h-5.621L81.519 12.69 75.02 32.103H69.89L63.457 12.69l-3.354 19.413h-5.678l5.29-30.741zM116.854 22.388h-18.22c.26 1.62.966 2.902 2.107 3.858 1.141.95 2.601 1.43 4.378 1.43 2.119 0 3.941-.746 5.466-2.238l4.781 2.259c-1.19 1.697-2.617 2.96-4.284 3.776-1.663.816-3.636 1.222-5.923 1.222-3.546 0-6.432-1.123-8.665-3.374-2.23-2.251-3.347-5.068-3.347-8.45 0-3.383 1.109-6.351 3.334-8.64 2.226-2.287 5.014-3.435 8.365-3.435 3.558 0 6.452 1.148 8.682 3.436 2.229 2.296 3.346 5.318 3.346 9.077l-.02 1.087h-.008l.008-.008zm-5.674-4.494c-.375-1.267-1.117-2.3-2.218-3.091-1.104-.796-2.38-1.194-3.839-1.194-1.582 0-2.968.447-4.166 1.337-.75.558-1.447 1.542-2.083 2.948h12.306zM137.622.583h5.674v31.513h-5.674v-2.403c-1.109 1.058-2.218 1.825-3.33 2.288-1.109.463-2.32.701-3.624.701-2.919 0-5.442-1.14-7.573-3.415-2.132-2.276-3.2-5.109-3.2-8.495 0-3.387 1.027-6.388 3.094-8.635 2.062-2.242 4.561-3.366 7.512-3.366a9.55 9.55 0 013.819.771c1.19.513 2.287 1.291 3.298 2.32V.584h.004zm-5.968 13.46c-1.752 0-3.212.62-4.369 1.87-1.158 1.247-1.741 2.846-1.741 4.797 0 1.952.591 3.58 1.769 4.846 1.178 1.267 2.629 1.899 4.358 1.899 1.728 0 3.261-.62 4.43-1.87 1.174-1.246 1.757-2.878 1.757-4.903 0-2.026-.587-3.58-1.757-4.81-1.174-1.222-2.653-1.836-4.451-1.836v.008h.004zM151.317 0c.991 0 1.847.365 2.556 1.086.709.726 1.068 1.604 1.068 2.633s-.355 1.886-1.06 2.603c-.705.714-1.545 1.078-2.523 1.078a3.504 3.504 0 01-2.58-1.098c-.709-.734-1.068-1.62-1.068-2.665 0-1.046.351-1.862 1.052-2.571.705-.71 1.553-1.066 2.547-1.066h.008zm-2.837 9.36h5.674v22.735h-5.674V9.36zM181.266 13.964l-4.72 2.616c-.885-.934-1.765-1.578-2.63-1.943-.868-.365-1.883-.545-3.048-.545-2.12 0-3.84.631-5.149 1.906-1.308 1.271-1.964 2.903-1.964 4.891 0 1.989.627 3.51 1.895 4.74 1.26 1.222 2.919 1.837 4.973 1.837 2.535 0 4.512-.873 5.927-2.616l4.467 3.08c-2.425 3.172-5.845 4.76-10.268 4.76-3.978 0-7.088-1.186-9.338-3.555-2.25-2.37-3.379-5.142-3.379-8.32 0-2.201.55-4.227 1.638-6.08 1.097-1.849 2.625-3.308 4.582-4.37 1.957-1.058 4.154-1.587 6.575-1.587 2.246 0 4.259.451 6.045 1.349a11.44 11.44 0 014.382 3.837v.009l.012-.009zM200.977 9.36h5.674v22.734h-5.674V29.69c-1.109 1.058-2.217 1.825-3.33 2.288-1.109.463-2.319.701-3.624.701-2.918 0-5.441-1.14-7.573-3.415-2.132-2.276-3.2-5.109-3.2-8.495 0-3.387 1.027-6.388 3.094-8.635 2.062-2.243 4.561-3.366 7.512-3.366a9.55 9.55 0 013.819.77c1.191.513 2.287 1.292 3.298 2.321V9.351v.008h.004zm-5.967 4.682c-1.753 0-3.212.619-4.37 1.87-1.158 1.246-1.741 2.845-1.741 4.796 0 1.952.592 3.58 1.77 4.846 1.178 1.267 2.629 1.899 4.357 1.899 1.728 0 3.261-.62 4.431-1.87 1.174-1.246 1.756-2.878 1.756-4.903 0-2.026-.587-3.58-1.756-4.81-1.174-1.222-2.654-1.837-4.451-1.837v.009h.004zM211.464 9.36h4.863v2.866c.521-1.127 1.227-1.988 2.099-2.57a5.055 5.055 0 012.865-.878c.734 0 1.504.193 2.307.582l-1.764 4.908c-.669-.332-1.211-.5-1.639-.5-.872 0-1.61.545-2.213 1.631-.604 1.087-.905 3.219-.905 6.397l.02 1.11v9.197h-5.629V9.36h-.008.004zM247.877 22.388h-18.221c.261 1.62.966 2.902 2.108 3.858 1.141.95 2.6 1.43 4.377 1.43 2.12 0 3.942-.746 5.466-2.238l4.782 2.259c-1.19 1.697-2.617 2.96-4.284 3.776-1.663.816-3.636 1.222-5.923 1.222-3.546 0-6.432-1.123-8.666-3.374-2.229-2.251-3.346-5.068-3.346-8.45 0-3.383 1.109-6.351 3.334-8.64 2.226-2.287 5.014-3.435 8.364-3.435 3.559 0 6.453 1.148 8.682 3.436 2.23 2.296 3.347 5.318 3.347 9.077l-.02 1.087h-.009l.009-.008zm-5.674-4.494c-.375-1.267-1.117-2.3-2.218-3.091-1.1-.792-2.38-1.194-3.84-1.194-1.581 0-2.967.447-4.165 1.337-.75.558-1.447 1.542-2.083 2.948h12.306zM253.722 26.145c.896 0 1.671.32 2.307.951.635.632.953 1.407.953 2.308 0 .902-.318 1.681-.953 2.321-.636.64-1.411.96-2.307.96-.897 0-1.672-.32-2.308-.96a3.169 3.169 0 01-.953-2.32c0-.91.318-1.673.953-2.309a3.168 3.168 0 012.308-.951zM277.784 9.36h5.654v19.476c0 3.841-.767 6.67-2.307 8.482C279.068 39.77 275.958 41 271.8 41c-2.217 0-4.076-.275-5.592-.832-1.508-.558-2.788-1.374-3.82-2.456-1.039-1.078-1.805-2.394-2.307-3.936h6.253c.555.64 1.264 1.123 2.14 1.455.872.328 1.908.488 3.098.488 1.52 0 2.747-.237 3.677-.709.929-.475 1.581-1.086 1.964-1.837.379-.754.575-2.05.575-3.887-.999 1.005-2.046 1.727-3.134 2.165-1.097.439-2.332.66-3.722.66-3.037 0-5.596-1.098-7.688-3.304-2.086-2.202-3.134-4.986-3.134-8.36 0-3.604 1.109-6.507 3.322-8.696 2.005-1.976 4.406-2.964 7.186-2.964 1.305 0 2.531.237 3.689.721s2.319 1.271 3.477 2.37V9.361zm-5.878 4.748c-1.789 0-3.261.603-4.426 1.804-1.166 1.206-1.745 2.723-1.745 4.547 0 1.825.599 3.448 1.789 4.658 1.191 1.21 2.687 1.816 4.488 1.816 1.802 0 3.212-.59 4.349-1.775 1.142-1.185 1.717-2.739 1.717-4.658 0-1.919-.575-3.436-1.729-4.62-1.145-1.185-2.629-1.776-4.443-1.776v.004zM299.436 8.78c2.132 0 4.138.54 6.017 1.61 1.875 1.075 3.342 2.526 4.394 4.371a11.801 11.801 0 011.577 5.958c0 2.132-.53 4.149-1.59 6.018-1.059 1.87-2.506 3.33-4.332 4.375-1.827 1.054-3.848 1.579-6.045 1.579-3.241 0-6.009-1.16-8.303-3.481-2.295-2.32-3.441-5.134-3.441-8.45 0-3.555 1.297-6.515 3.885-8.885 2.27-2.062 4.879-3.091 7.834-3.091l.008-.009-.004.004zm.094 5.375c-1.765 0-3.228.615-4.402 1.849s-1.757 2.808-1.757 4.735c0 1.927.579 3.58 1.74 4.81 1.158 1.23 2.626 1.836 4.403 1.836 1.777 0 3.252-.619 4.43-1.861s1.769-2.833 1.769-4.785c0-1.951-.578-3.538-1.74-4.752-1.158-1.217-2.637-1.832-4.443-1.832zM311.993 9.36h5.78l5.711 13.42 5.698-13.42h5.748l-9.62 22.735h-3.677l-9.644-22.734h.009-.005z" fill="#A6DAFC"/><path d="M335.836 37.604L349.633.291h4.08l-13.822 37.313h-4.055zM359.633 1.174h16.924v5.74h-11.116v5.613h7.223v5.653h-7.223v13.916h-5.808V1.17v.004zM379.54 9.226h4.891v2.878c.53-1.135 1.235-1.996 2.112-2.587a5.052 5.052 0 012.886-.881c.737 0 1.512.197 2.319.59l-1.777 4.94c-.669-.336-1.219-.504-1.651-.504-.876 0-1.618.546-2.226 1.64-.607 1.095-.909 3.24-.909 6.433l.021 1.115v9.25h-5.662V9.226h-.004zM411.35 9.226h5.707V32.1h-5.707v-2.42c-1.113 1.067-2.229 1.834-3.35 2.301-1.121.471-2.336.705-3.644.705-2.935 0-5.479-1.144-7.619-3.436-2.144-2.291-3.216-5.141-3.216-8.544 0-3.403 1.036-6.425 3.11-8.684 2.075-2.255 4.594-3.386 7.557-3.386a9.5 9.5 0 013.84.779c1.199.52 2.303 1.295 3.318 2.333V9.226h.004zm-5.996 4.711c-1.765 0-3.228.627-4.394 1.882-1.166 1.254-1.749 2.862-1.749 4.826 0 1.963.596 3.603 1.782 4.878 1.186 1.276 2.649 1.915 4.386 1.915 1.736 0 3.277-.627 4.459-1.882 1.182-1.254 1.769-2.898 1.769-4.928s-.591-3.6-1.769-4.834c-1.182-1.234-2.674-1.849-4.48-1.849l-.004-.008zM422.804 9.223h5.767v11.016c0 2.145.147 3.633.441 4.47.293.832.766 1.484 1.414 1.943.648.459 1.447.693 2.401.693.954 0 1.757-.23 2.421-.685.665-.455 1.158-1.123 1.476-2.009.236-.66.354-2.066.354-4.227V9.219h5.707v9.692c0 3.993-.314 6.728-.942 8.2-.766 1.796-1.895 3.17-3.387 4.133-1.492.96-3.387 1.439-5.686 1.439-2.495 0-4.512-.562-6.049-1.681-1.541-1.12-2.621-2.686-3.249-4.686-.444-1.386-.668-3.912-.668-7.569V9.223zM465.293.394H471v31.7h-5.707v-2.419c-1.112 1.066-2.229 1.833-3.35 2.3-1.121.472-2.336.706-3.644.706-2.935 0-5.478-1.144-7.618-3.436-2.144-2.292-3.217-5.141-3.217-8.544 0-3.403 1.036-6.425 3.111-8.684 2.074-2.255 4.593-3.387 7.557-3.387 1.365 0 2.645.259 3.839.78 1.199.52 2.303 1.295 3.318 2.332V.39l.004.005zm-5.996 13.538c-1.764 0-3.228.627-4.394 1.881-1.165 1.255-1.748 2.862-1.748 4.826 0 1.964.595 3.604 1.781 4.88 1.186 1.274 2.649 1.914 4.386 1.914 1.736 0 3.277-.628 4.459-1.882 1.182-1.255 1.769-2.899 1.769-4.928 0-2.03-.591-3.6-1.769-4.834-1.182-1.234-2.674-1.85-4.479-1.85l-.005-.007z" fill="#fff"/></svg>