<svg width="676" height="36" viewBox="0 0 676 36" fill="none" xmlns="http://www.w3.org/2000/svg"><path d="M.876 35V1.952h3.621l8.058 11.22c1.734 2.448 5.355 7.65 5.355 7.65s3.621-5.151 5.355-7.599l8.058-11.271h3.621V35h-4.08V8.837s-.867 1.581-2.448 3.774L17.91 27.401 7.353 12.509c-1.479-2.091-2.397-3.672-2.397-3.672V35H.876zm53.16.51c-7.039 0-13.006-5.049-13.006-12.903 0-7.191 5.406-12.954 12.495-12.954 6.63 0 11.883 5.712 11.883 12.801 0 .714-.102 1.479-.102 1.53H45.06c.612 4.947 4.437 8.058 9.027 8.058 2.805 0 5.61-.969 7.65-2.652l1.683 2.856a15.197 15.197 0 01-9.384 3.264zm-8.977-14.484h16.524c-.408-4.59-3.927-7.905-8.262-7.905-4.233 0-7.7 3.264-8.262 7.905zM81.647 35.51c-6.885 0-11.73-5.712-11.73-12.903 0-7.293 4.845-12.954 11.73-12.954 3.978 0 7.497 1.632 9.333 4.845V1.442h3.876V35h-3.723v-4.335c-1.836 3.264-5.457 4.845-9.486 4.845zm.867-3.774c4.743 0 8.466-3.927 8.466-9.129s-3.723-9.18-8.466-9.18c-4.947 0-8.62 3.876-8.62 9.18 0 5.253 3.673 9.129 8.62 9.129zM101.368 35V10.163h3.876V35h-3.876zm1.938-29.274a2.525 2.525 0 01-2.55-2.55c0-1.428 1.122-2.601 2.55-2.601a2.612 2.612 0 012.601 2.601c0 1.428-1.173 2.55-2.601 2.55zm20.507 29.784c-7.293 0-13.056-5.661-13.056-12.903 0-7.242 5.763-12.954 13.056-12.954 3.417 0 6.528 1.224 8.874 3.315l-2.448 2.754c-1.53-1.428-3.774-2.295-6.375-2.295-5.202 0-9.129 3.876-9.129 9.18 0 5.151 3.774 9.129 9.231 9.129 2.805 0 5.355-1.071 7.089-2.805l2.244 2.907c-2.397 2.295-5.763 3.672-9.486 3.672zm24.273 0c-6.885 0-11.73-5.712-11.73-12.903 0-7.293 4.845-12.954 11.73-12.954 3.978 0 7.497 1.632 9.333 4.845v-4.335h3.876V35h-3.876v-4.335c-1.836 3.264-5.355 4.845-9.333 4.845zm.867-3.774c4.743 0 8.466-3.927 8.466-9.129s-3.723-9.18-8.466-9.18c-4.947 0-8.619 3.876-8.619 9.18 0 5.253 3.672 9.129 8.619 9.129zM167.807 35V10.163h3.876v5.253c1.428-3.264 4.641-5.763 9.588-5.763v4.233c-5.814 0-9.588 3.264-9.588 9.333V35h-3.876zm29.417.51c-7.038 0-13.005-5.049-13.005-12.903 0-7.191 5.406-12.954 12.495-12.954 6.63 0 11.883 5.712 11.883 12.801 0 .714-.102 1.479-.102 1.53h-20.247c.612 4.947 4.437 8.058 9.027 8.058 2.805 0 5.61-.969 7.65-2.652l1.683 2.856a15.197 15.197 0 01-9.384 3.264zm-8.976-14.484h16.524c-.408-4.59-3.927-7.905-8.262-7.905-4.233 0-7.701 3.264-8.262 7.905zM392.372 35.51c-4.386 0-6.987-2.142-6.987-7.956V13.376h-3.723v-3.213h3.723V4.808l3.876-.714v6.069h8.466v3.213h-8.466v14.28c0 3.417 1.479 4.386 3.468 4.386 2.295 0 4.08-1.377 4.08-1.377l1.275 3.009c-.969.663-3.009 1.836-5.712 1.836zm22 0c-7.038 0-13.005-5.049-13.005-12.903 0-7.191 5.406-12.954 12.495-12.954 6.63 0 11.883 5.712 11.883 12.801 0 .714-.102 1.479-.102 1.53h-20.247c.612 4.947 4.437 8.058 9.027 8.058 2.805 0 5.61-.969 7.65-2.652l1.683 2.856a15.197 15.197 0 01-9.384 3.264zm-8.976-14.484h16.524c-.408-4.59-3.927-7.905-8.262-7.905-4.233 0-7.701 3.264-8.262 7.905zm49.02 14.484c-7.293 0-13.056-5.661-13.056-12.903 0-7.242 5.763-12.954 13.056-12.954 3.417 0 6.528 1.224 8.874 3.315l-2.448 2.754c-1.53-1.428-3.774-2.295-6.375-2.295-5.202 0-9.129 3.876-9.129 9.18 0 5.151 3.774 9.129 9.231 9.129 2.805 0 5.355-1.071 7.089-2.805l2.244 2.907c-2.397 2.295-5.763 3.672-9.486 3.672zm25.6 0c-7.293 0-13.056-5.712-13.056-12.903 0-7.242 5.763-12.954 13.056-12.954 7.293 0 13.056 5.712 13.056 12.954 0 7.191-5.763 12.903-13.056 12.903zm0-3.774c5.151 0 9.078-3.927 9.078-9.129 0-5.253-3.927-9.18-9.078-9.18s-9.078 3.927-9.078 9.18c0 5.202 3.927 9.129 9.078 9.129zM498.56 35V10.163h3.876v4.233c1.734-3.009 4.947-4.743 8.619-4.743 6.222 0 8.976 3.774 8.976 10.302V35h-3.876V20.465c0-4.59-1.683-7.038-6.171-7.038-4.437 0-7.548 3.468-7.548 7.599V35h-3.876zm35.905.51c-4.386 0-6.987-2.142-6.987-7.956V13.376h-3.723v-3.213h3.723V4.808l3.876-.714v6.069h8.466v3.213h-8.466v14.28c0 3.417 1.479 4.386 3.468 4.386 2.295 0 4.08-1.377 4.08-1.377l1.275 3.009c-.969.663-3.009 1.836-5.712 1.836zm20.725 0c-6.885 0-11.73-5.712-11.73-12.903 0-7.293 4.845-12.954 11.73-12.954 3.978 0 7.497 1.632 9.333 4.845v-4.335h3.876V35h-3.876v-4.335c-1.836 3.264-5.355 4.845-9.333 4.845zm.867-3.774c4.743 0 8.466-3.927 8.466-9.129s-3.723-9.18-8.466-9.18c-4.947 0-8.619 3.876-8.619 9.18 0 5.253 3.672 9.129 8.619 9.129zm30.889 3.774c-7.293 0-13.056-5.661-13.056-12.903 0-7.242 5.763-12.954 13.056-12.954 3.417 0 6.528 1.224 8.874 3.315l-2.448 2.754c-1.53-1.428-3.774-2.295-6.375-2.295-5.202 0-9.129 3.876-9.129 9.18 0 5.151 3.774 9.129 9.231 9.129 2.805 0 5.355-1.071 7.089-2.805l2.244 2.907c-2.397 2.295-5.763 3.672-9.486 3.672zm22.425 0c-4.386 0-6.987-2.142-6.987-7.956V13.376h-3.723v-3.213h3.723V4.808l3.876-.714v6.069h8.466v3.213h-8.466v14.28c0 3.417 1.479 4.386 3.468 4.386 2.295 0 4.08-1.377 4.08-1.377l1.275 3.009c-.969.663-3.009 1.836-5.712 1.836zm20.725 0c-6.885 0-11.73-5.712-11.73-12.903 0-7.293 4.845-12.954 11.73-12.954 3.978 0 7.497 1.632 9.333 4.845v-4.335h3.876V35h-3.876v-4.335c-1.836 3.264-5.355 4.845-9.333 4.845zm.867-3.774c4.743 0 8.466-3.927 8.466-9.129s-3.723-9.18-8.466-9.18c-4.947 0-8.619 3.876-8.619 9.18 0 5.253 3.672 9.129 8.619 9.129zm20.741 3.774c-1.53 0-2.652-1.224-2.652-2.703 0-1.479 1.173-2.703 2.652-2.703a2.72 2.72 0 012.703 2.703 2.72 2.72 0 01-2.703 2.703zm10.359 0c-1.53 0-2.652-1.224-2.652-2.703 0-1.479 1.173-2.703 2.652-2.703a2.72 2.72 0 012.703 2.703 2.72 2.72 0 01-2.703 2.703zm10.359 0c-1.53 0-2.652-1.224-2.652-2.703 0-1.479 1.173-2.703 2.652-2.703a2.72 2.72 0 012.703 2.703 2.72 2.72 0 01-2.703 2.703z" fill="#275D80"/><path d="M224.619 35V9.5h6.681v3.417c2.04-2.805 4.947-3.927 8.058-3.927 6.732 0 9.078 4.335 9.078 11.322V35h-6.834V21.179c0-3.723-.969-5.712-4.437-5.712-3.417 0-5.712 2.754-5.712 6.63V35h-6.834zm37.562.51c-7.038 0-9.282-4.131-9.282-10.761V9.5h6.834v14.331c0 3.57 1.53 5.202 4.692 5.202 3.57 0 5.304-3.009 5.304-6.477V9.5h6.834V35h-6.426v-3.57c-1.53 2.499-4.998 4.08-7.956 4.08zm19.564-.51V9.5h6.681v3.417c2.04-2.805 4.947-3.927 8.058-3.927 6.732 0 9.078 4.335 9.078 11.322V35h-6.834V21.179c0-3.723-.969-5.712-4.437-5.712-3.417 0-5.712 2.754-5.712 6.63V35h-6.834zm41.489.51c-7.599 0-13.617-5.865-13.617-13.26s6.018-13.26 13.617-13.26c3.519 0 6.579 1.173 9.129 3.264l-4.131 4.794c-1.173-1.071-2.805-1.734-4.845-1.734-3.978 0-6.834 2.907-6.834 6.936 0 3.978 2.703 6.936 7.038 6.936 2.142 0 4.233-.816 5.559-2.091l3.621 5.1c-2.448 2.091-5.865 3.315-9.537 3.315zm23.011 0c-7.038 0-11.526-5.916-11.526-13.26 0-7.344 4.488-13.26 11.526-13.26 2.958 0 6.12 1.173 7.956 3.621V9.5h6.681V35h-6.681v-3.06c-1.785 2.448-4.998 3.57-7.956 3.57zm1.734-6.324c3.519 0 6.069-2.856 6.069-6.936 0-3.978-2.55-6.936-6.069-6.936-3.672 0-6.324 2.958-6.324 6.936 0 4.029 2.652 6.936 6.324 6.936z" fill="#091C29"/></svg>