<svg width="190" height="203" viewBox="0 0 190 203" fill="none" xmlns="http://www.w3.org/2000/svg"><path d="M114 6.344H25.333c-10.493 0-19 8.52-19 19.031v152.25c0 10.511 8.507 19.031 19 19.031H114c10.493 0 19-8.52 19-19.031V25.375c0-10.51-8.507-19.031-19-19.031z" fill="#F2F2F2"/><path d="M133 25.375c0-5.047-2.002-9.888-5.565-13.457A18.984 18.984 0 00114 6.344H25.333c-5.039 0-9.871 2.005-13.435 5.574a19.047 19.047 0 00-5.565 13.457V50.75H133V25.375zM6.333 177.625c0 5.048 2.002 9.888 5.565 13.457a18.985 18.985 0 0013.435 5.574H114c5.039 0 9.872-2.005 13.435-5.574A19.047 19.047 0 00133 177.625V152.25H6.333v25.375z" fill="#C1C5C8"/><path d="M114 203H25.333a25.311 25.311 0 01-17.913-7.432A25.397 25.397 0 010 177.625V25.375c0-6.73 2.669-13.184 7.42-17.943A25.312 25.312 0 0125.333 0H114a25.311 25.311 0 0117.913 7.432 25.396 25.396 0 017.42 17.943v152.25c0 6.73-2.669 13.184-7.42 17.943A25.31 25.31 0 01114 203zM25.333 12.687c-3.36 0-6.58 1.337-8.956 3.717a12.698 12.698 0 00-3.71 8.971v152.25c0 3.365 1.334 6.592 3.71 8.971a12.654 12.654 0 008.956 3.716H114c3.359 0 6.581-1.336 8.957-3.716a12.698 12.698 0 003.71-8.971V25.375a12.7 12.7 0 00-3.71-8.971A12.658 12.658 0 00114 12.688H25.333z" fill="#101B31"/><path d="M69.667 38.063H44.333c-1.68 0-3.29-.669-4.478-1.858a6.35 6.35 0 010-8.972 6.328 6.328 0 014.478-1.858h25.334c1.68 0 3.29.668 4.478 1.858a6.35 6.35 0 010 8.972 6.328 6.328 0 01-4.478 1.858zM158.333 133.219a6.332 6.332 0 01-4.478-1.858 6.35 6.35 0 01-1.855-4.486v-50.75c0-1.683.667-3.296 1.855-4.486a6.329 6.329 0 018.957 0 6.352 6.352 0 011.855 4.486v50.75a6.354 6.354 0 01-1.855 4.486 6.332 6.332 0 01-4.479 1.858zM183.667 114.188a6.328 6.328 0 01-4.479-1.858 6.352 6.352 0 01-1.855-4.486V88.813c0-1.683.668-3.296 1.855-4.486a6.33 6.33 0 018.957 0A6.348 6.348 0 01190 88.813v19.031a6.348 6.348 0 01-1.855 4.486 6.328 6.328 0 01-4.478 1.858zM95 38.063c3.498 0 6.333-2.84 6.333-6.344 0-3.504-2.835-6.344-6.333-6.344s-6.334 2.84-6.334 6.344c0 3.503 2.836 6.343 6.334 6.343zM69.667 179.223A6.338 6.338 0 0076 172.88c0-3.504-2.836-6.344-6.333-6.344-3.498 0-6.334 2.84-6.334 6.344a6.338 6.338 0 006.334 6.343z" fill="#101B31"/><path d="M69.287 133.853c18.013 0 32.616-14.627 32.616-32.67S87.3 68.513 69.287 68.513c-18.014 0-32.617 14.627-32.617 32.67s14.603 32.67 32.617 32.67z" fill="#C80000"/><path d="M69.287 106.766a5.557 5.557 0 003.94-1.635 5.582 5.582 0 001.633-3.947V84.5a5.59 5.59 0 00-1.396-4.326 5.575 5.575 0 00-4.146-1.851 5.566 5.566 0 00-4.145 1.85 5.583 5.583 0 00-1.397 4.326v17.002a5.587 5.587 0 001.718 3.722 5.568 5.568 0 003.793 1.543zM69.287 123.449a5.578 5.578 0 005.573-5.582 5.578 5.578 0 00-5.573-5.583 5.578 5.578 0 00-5.574 5.583 5.578 5.578 0 005.574 5.582z" fill="#fff"/></svg>