<svg width="215" height="98" viewBox="0 0 215 98" fill="none" xmlns="http://www.w3.org/2000/svg"><path d="M.184 40V13.428h8.944v2.912c1.976-2.236 5.044-3.432 8.008-3.432 4.264 0 6.552 1.716 7.8 4.108 2.288-3.328 5.824-4.108 8.476-4.108 8.58 0 9.308 6.916 9.308 12.272V40h-9.464V26.272c0-3.172-.884-4.628-2.964-4.628-2.808 0-4.108 2.548-4.108 5.824V40H16.72V26.272c0-3.172-.884-4.628-2.964-4.628-2.808 0-4.108 2.548-4.108 5.824V40H.184zm61.858.52c-8.06 0-14.924-5.044-14.924-13.78 0-7.696 5.98-13.832 13.832-13.832 7.54 0 13.312 6.136 13.312 13.832 0 1.612-.208 3.068-.208 3.068H56.426c.78 2.496 3.12 3.432 5.668 3.432 2.236 0 4.628-.676 6.292-1.612l3.172 6.396c-2.964 1.82-6.24 2.496-9.516 2.496zm-5.876-16.068h9.464c-.312-2.444-2.236-4.108-4.68-4.108-2.34 0-4.212 1.664-4.784 4.108zM78.944 40V13.428h8.944v3.068c2.444-2.86 5.356-3.588 8.008-3.588 6.708 0 9.308 3.952 9.308 11.752V40H95.74V25.856c0-3.016-1.144-4.108-2.964-4.108-2.912 0-4.368 2.444-4.368 5.72V40h-9.464zm40.98.52c-6.084 0-9.464-1.82-11.024-3.172l3.016-6.656c2.08 1.404 4.004 2.236 8.06 2.236.104 0 2.6-.156 2.6-1.196 0-.832-1.56-.988-3.12-1.352-5.772-1.404-10.036-3.744-10.036-8.632 0-5.824 5.304-8.84 10.92-8.84 5.148 0 8.216 1.144 10.764 2.496l-2.808 6.344c-3.068-1.196-5.876-1.56-7.644-1.56-.936 0-1.664.312-1.664.832 0 .988 2.236 1.352 4.888 2.08 3.744 1.092 8.268 2.912 8.268 8.268 0 7.124-7.228 9.152-12.22 9.152zm27.218 0c-7.384 0-11.388-6.136-11.388-13.78 0-7.696 4.004-13.832 11.388-13.832 2.132 0 5.668.728 7.228 3.484v-2.964h8.944V40h-8.944v-2.964c-1.456 2.704-5.096 3.484-7.228 3.484zm2.496-8.32c2.496 0 4.264-2.236 4.264-5.46 0-3.172-1.768-5.512-4.264-5.512-2.496 0-4.264 2.34-4.264 5.512 0 3.224 1.768 5.46 4.264 5.46zm17.868 17.888l-3.432-6.396c3.328-1.664 4.42-4.628 4.42-7.748V13.428h9.464v21.008c0 8.268-3.64 12.636-10.452 15.652zm5.668-38.688c-2.912 0-5.356-2.444-5.356-5.356 0-2.964 2.444-5.408 5.356-5.408 3.016 0 5.46 2.444 5.46 5.408 0 2.912-2.444 5.356-5.46 5.356zm24.373 29.12c-8.06 0-14.924-5.044-14.924-13.78 0-7.696 5.98-13.832 13.832-13.832 7.54 0 13.312 6.136 13.312 13.832 0 1.612-.208 3.068-.208 3.068h-17.628c.78 2.496 3.12 3.432 5.668 3.432 2.236 0 4.628-.676 6.292-1.612l3.172 6.396c-2.964 1.82-6.24 2.496-9.516 2.496zm-5.876-16.068h9.464c-.312-2.444-2.236-4.108-4.68-4.108-2.34 0-4.212 1.664-4.784 4.108zM18.721 97.52c-7.385 0-11.389-6.136-11.389-13.78 0-7.696 4.264-13.832 11.7-13.832 2.132 0 4.784.728 6.396 2.756v-9.88h9.464V97h-8.944v-2.964c-1.404 2.704-5.096 3.484-7.228 3.484zm2.495-8.32c2.496 0 4.264-2.236 4.264-5.46 0-3.172-1.768-5.512-4.264-5.512-2.496 0-4.264 2.34-4.264 5.512 0 3.224 1.768 5.46 4.264 5.46zm33.26 8.32c-8.06 0-14.924-5.044-14.924-13.78 0-7.696 5.98-13.832 13.832-13.832 7.54 0 13.312 6.136 13.312 13.832 0 1.612-.208 3.068-.208 3.068H48.86c.78 2.496 3.12 3.432 5.668 3.432 2.236 0 4.628-.676 6.292-1.612l3.172 6.396c-2.964 1.82-6.24 2.496-9.516 2.496zM48.6 81.452h9.464c-.312-2.444-2.236-4.108-4.68-4.108-2.34 0-4.212 1.664-4.784 4.108zM94.553 97.52c-5.096 0-8.424-3.276-8.424-9.1V77.916h-3.9v-7.488h3.9v-4.784l9.464-2.34v7.124h5.876v7.488h-5.876v9.776c0 1.248.624 1.664 1.456 1.664.78 0 1.716-.364 2.392-.832l2.548 6.916c-2.288 1.612-5.096 2.08-7.436 2.08zm25.351 0c-8.06 0-14.924-5.044-14.924-13.78 0-7.696 5.98-13.832 13.832-13.832 7.54 0 13.312 6.136 13.312 13.832 0 1.612-.208 3.068-.208 3.068h-17.628c.78 2.496 3.12 3.432 5.668 3.432 2.236 0 4.628-.676 6.292-1.612l3.172 6.396c-2.964 1.82-6.24 2.496-9.516 2.496zm-5.876-16.068h9.464c-.312-2.444-2.236-4.108-4.68-4.108-2.34 0-4.212 1.664-4.784 4.108zM133.522 97l7.852-13.624-7.852-12.948h10.192l1.092 2.288c1.04 2.184 2.548 5.772 2.548 5.772s1.508-3.588 2.548-5.772l1.092-2.288h10.192l-7.852 12.948L161.186 97H150.89l-1.3-2.912c-.936-2.132-2.236-5.668-2.236-5.668s-1.352 3.484-2.288 5.668L143.818 97h-10.296zm41.998.52c-5.096 0-8.424-3.276-8.424-9.1V77.916h-3.9v-7.488h3.9v-4.784l9.464-2.34v7.124h5.876v7.488h-5.876v9.776c0 1.248.624 1.664 1.456 1.664.78 0 1.716-.364 2.392-.832l2.548 6.916c-2.288 1.612-5.096 2.08-7.436 2.08zm24.78 0c-8.164 0-14.352-6.136-14.352-13.78 0-7.696 6.188-13.832 14.352-13.832 8.164 0 14.352 6.136 14.352 13.832 0 7.644-6.188 13.78-14.352 13.78zm0-8.32c2.808 0 4.784-2.236 4.784-5.46 0-3.172-1.976-5.512-4.784-5.512s-4.784 2.34-4.784 5.512c0 3.224 1.976 5.46 4.784 5.46z" fill="#fff"/></svg>