<svg width="239" height="97" viewBox="0 0 239 97" fill="none" xmlns="http://www.w3.org/2000/svg"><path d="M40.356 39V5.304h14.04c11.284 0 18.356 7.644 18.356 16.848C72.752 31.356 65.68 39 54.396 39h-14.04zm9.88-8.372h3.796c5.044 0 8.268-3.588 8.268-8.476 0-4.836-3.224-8.476-8.268-8.476h-3.796v16.952zM92.09 39.52c-8.06 0-14.924-5.044-14.924-13.78 0-7.696 5.98-13.832 13.832-13.832 7.54 0 13.312 6.136 13.312 13.832 0 1.612-.208 3.068-.208 3.068H86.474c.78 2.496 3.12 3.432 5.668 3.432 2.236 0 4.628-.676 6.292-1.612l3.172 6.396c-2.964 1.82-6.24 2.496-9.516 2.496zm-5.876-16.068h9.464c-.312-2.444-2.236-4.108-4.68-4.108-2.34 0-4.212 1.664-4.784 4.108zM119.6 39.52c-5.096 0-8.424-3.276-8.424-9.1V19.916h-3.9v-7.488h3.9V7.644l9.464-2.34v7.124h5.876v7.488h-5.876v9.776c0 1.248.624 1.664 1.456 1.664.78 0 1.716-.364 2.392-.832l2.548 6.916c-2.288 1.612-5.096 2.08-7.436 2.08zm20.203-30.16l5.46-9.308h9.1l-7.54 9.308h-7.02zm5.148 30.16c-8.06 0-14.924-5.044-14.924-13.78 0-7.696 5.98-13.832 13.832-13.832 7.54 0 13.312 6.136 13.312 13.832 0 1.612-.208 3.068-.208 3.068h-17.628c.78 2.496 3.12 3.432 5.668 3.432 2.236 0 4.628-.676 6.292-1.612l3.172 6.396c-2.964 1.82-6.24 2.496-9.516 2.496zm-5.876-16.068h9.464c-.312-2.444-2.236-4.108-4.68-4.108-2.34 0-4.212 1.664-4.784 4.108zM161.853 39V12.428h8.944v3.068c2.444-2.86 5.356-3.588 8.008-3.588 6.708 0 9.308 3.952 9.308 11.752V39h-9.464V24.856c0-3.016-1.144-4.108-2.964-4.108-2.912 0-4.368 2.444-4.368 5.72V39h-9.464zM15.312 96.52C7.252 96.52.388 91.476.388 82.74c0-7.696 5.98-13.832 13.832-13.832 7.54 0 13.312 6.136 13.312 13.832 0 1.612-.208 3.068-.208 3.068H9.696c.78 2.496 3.12 3.432 5.668 3.432 2.236 0 4.628-.676 6.292-1.612l3.172 6.396c-2.964 1.82-6.24 2.496-9.516 2.496zM9.436 80.452H18.9c-.312-2.444-2.236-4.108-4.68-4.108-2.34 0-4.212 1.664-4.784 4.108zM32.213 96V61.784h9.464V96h-9.464zm28.777 0V77.124h-4.004v-7.488h4.004v-1.664c0-5.824 3.328-9.1 8.424-9.1 2.34 0 5.148.364 7.436 1.508l-2.548 6.916c-.676-.26-1.404-.416-2.08-.416-.988 0-1.768.52-1.768 2.184v.572h5.2v7.488h-5.2V96H60.99zm17.863 0V69.428h9.204v4.732c.156-1.144 2.444-5.252 8.684-5.252v10.296c-6.864 0-8.424 2.86-8.424 7.852V96h-9.464zm32.931.52c-7.384 0-11.388-6.136-11.388-13.78 0-7.696 4.004-13.832 11.388-13.832 2.132 0 5.668.728 7.228 3.484v-2.964h8.944V96h-8.944v-2.964c-1.456 2.704-5.096 3.484-7.228 3.484zm2.496-8.32c2.496 0 4.264-2.236 4.264-5.46 0-3.172-1.768-5.512-4.264-5.512-2.496 0-4.264 2.34-4.264 5.512 0 3.224 1.768 5.46 4.264 5.46zm28.268 8.32c-8.008 0-9.672-4.992-9.672-11.752v-15.34h9.464v14.144c0 2.808.936 4.108 3.432 4.108 2.86 0 3.9-2.444 3.9-5.72V69.428h9.464V96h-8.944v-2.912c-1.456 1.872-4.888 3.432-7.644 3.432zm32.66 0c-7.384 0-11.388-6.136-11.388-13.78 0-7.696 4.264-13.832 11.7-13.832 2.132 0 4.784.728 6.396 2.756v-9.88h9.464V96h-8.944v-2.964c-1.404 2.704-5.096 3.484-7.228 3.484zm2.496-8.32c2.496 0 4.264-2.236 4.264-5.46 0-3.172-1.768-5.512-4.264-5.512-2.496 0-4.264 2.34-4.264 5.512 0 3.224 1.768 5.46 4.264 5.46zm33.26 8.32c-8.06 0-14.924-5.044-14.924-13.78 0-7.696 5.98-13.832 13.832-13.832 7.54 0 13.312 6.136 13.312 13.832 0 1.612-.208 3.068-.208 3.068h-17.628c.78 2.496 3.12 3.432 5.668 3.432 2.236 0 4.628-.676 6.292-1.612l3.172 6.396c-2.964 1.82-6.24 2.496-9.516 2.496zm-5.876-16.068h9.464c-.312-2.444-2.236-4.108-4.68-4.108-2.34 0-4.212 1.664-4.784 4.108zm28.341 16.068c-2.964 0-5.148-2.236-5.148-5.096s2.184-5.096 5.148-5.096c3.016 0 5.252 2.236 5.252 5.096s-2.236 5.096-5.252 5.096z" fill="#fff"/></svg>