<svg width="236" height="58" viewBox="0 0 236 58" fill="none" xmlns="http://www.w3.org/2000/svg"><rect x="1.376" y="1" width="233" height="56" rx="7" fill="#FF9759" stroke="#F2B795" stroke-width="2"/><path d="M27.595 36.116l5.764-14.256h4.311l5.764 14.256h-4.267l-.66-1.848h-5.984l-.66 1.848h-4.268zm6.05-5.06h3.74l-1.694-4.818c-.133-.352-.155-.484-.177-.572 0 0-.044.198-.175.572l-1.694 4.818zm11.623 5.06V21.86h6.292c4.378 0 6.622 2.53 6.622 5.632s-2.244 5.632-6.644 5.632h-2.09v2.992h-4.18zm4.18-6.534h2.2c1.232 0 2.112-.924 2.112-2.09s-.88-2.09-2.09-2.09h-2.222v4.18zm11.127 6.534V21.86h6.292c4.378 0 6.622 2.53 6.622 5.632 0 1.65-.748 3.344-2.244 4.378l2.662 4.246h-4.774l-1.628-3.058c-.44.044-.682.066-1.034.066h-1.716v2.992h-4.18zm4.18-6.534h2.156c1.298 0 2.156-.946 2.156-2.09 0-1.166-.88-2.09-2.134-2.09h-2.178v4.18zm11.149 6.534V21.86h11.33v3.542h-7.15v1.738h6.864v3.498h-6.864v1.936h7.414v3.542H75.904zm13.695 0V21.86h3.63l4.532 6.314c.33.44.638 1.078.638 1.078V21.86h4.18v14.256h-3.63l-4.532-6.204c-.33-.44-.638-1.078-.638-1.078v7.282H89.6zm15.845 0V21.86h5.94c4.774 0 7.766 3.234 7.766 7.128s-2.992 7.128-7.766 7.128h-5.94zm4.18-3.542h1.606c2.134 0 3.498-1.518 3.498-3.586 0-2.046-1.364-3.586-3.498-3.586h-1.606v7.172zm11.943 3.542V21.86h11.33v3.542h-7.15v1.738h6.864v3.498h-6.864v1.936h7.414v3.542h-11.594zm26.119.264c-4.532 0-7.546-3.278-7.546-7.392 0-4.07 3.014-7.348 7.546-7.348 2.178 0 4.136.77 5.434 2.068l-2.75 2.838c-1.012-1.034-1.826-1.122-2.508-1.122-1.848 0-3.366 1.496-3.366 3.564 0 2.112 1.408 3.608 3.366 3.608 1.166 0 2.244-.528 3.036-1.584l2.662 2.926c-1.43 1.584-3.432 2.442-5.874 2.442zm14.579 0c-4.576 0-7.634-3.278-7.634-7.392 0-4.07 3.058-7.348 7.634-7.348 4.576 0 7.656 3.278 7.656 7.348 0 4.114-3.08 7.392-7.656 7.392zm0-3.784c1.936 0 3.3-1.496 3.3-3.608 0-2.068-1.364-3.564-3.3-3.564-1.804 0-3.278 1.496-3.278 3.564 0 2.112 1.364 3.608 3.278 3.608zm-1.87-11.44l2.31-3.938h3.85l-3.19 3.938h-2.97zm11.938 14.96V21.86h3.564l2.794 4.004c.462.682 1.21 1.848 1.21 1.848s.748-1.166 1.21-1.848l2.794-4.004h3.564v14.256h-4.18V28.9s-.726 1.166-1.122 1.716l-2.266 3.168-2.288-3.168c-.396-.55-1.1-1.672-1.1-1.672v7.172h-4.18zm25.187.264c-4.576 0-7.634-3.278-7.634-7.392 0-4.07 3.058-7.348 7.634-7.348 4.576 0 7.656 3.278 7.656 7.348 0 4.114-3.08 7.392-7.656 7.392zm0-3.784c1.936 0 3.3-1.496 3.3-3.608 0-2.068-1.364-3.564-3.3-3.564-1.804 0-3.278 1.496-3.278 3.564 0 2.112 1.364 3.608 3.278 3.608z" fill="#101B31"/></svg>