<svg width="166" height="204" viewBox="0 0 166 204" fill="none" xmlns="http://www.w3.org/2000/svg"><path d="M114.407 6.738H25.561c-10.514 0-19.038 8.303-19.038 18.546v148.374c0 10.243 8.524 18.547 19.038 18.547h88.846c10.515 0 19.039-8.304 19.039-18.547V25.284c0-10.243-8.524-18.546-19.039-18.546z" fill="#F2F2F2"/><path d="M133.446 25.284c0-4.919-2.006-9.636-5.577-13.114-3.57-3.478-8.412-5.432-13.462-5.432H25.561c-5.05 0-9.892 1.954-13.462 5.432-3.57 3.478-5.576 8.195-5.576 13.114v24.73h126.923v-24.73zM6.573 175.764c0 4.36 1.996 8.542 5.55 11.625 3.553 3.084 8.373 4.816 13.398 4.816h88.426c5.026 0 9.846-1.732 13.399-4.816 3.554-3.083 5.55-7.265 5.55-11.625v-21.921H6.573v21.921zM156.673 65.417l-48.612 36.477L59.45 65.417a6.348 6.348 0 014.188-1.586h88.846a6.348 6.348 0 014.189 1.586z" fill="#C1C5C8"/><path d="M158.83 70.175v63.438a6.34 6.34 0 01-6.346 6.343H63.638a6.346 6.346 0 01-6.346-6.343V70.175a6.34 6.34 0 012.158-4.758l48.611 36.477 48.612-36.477a6.342 6.342 0 012.157 4.758z" fill="#F2F2F2"/><path d="M76.33 32.112a6.342 6.342 0 00-6.346-6.343H44.6a6.348 6.348 0 00-6.347 6.343 6.343 6.343 0 006.346 6.344h25.385a6.348 6.348 0 006.346-6.344z" fill="#101B31"/><path d="M160.861 60.66a12.697 12.697 0 00-8.377-3.172h-12.692v-31.72c0-6.73-2.675-13.183-7.435-17.942a25.39 25.39 0 00-17.95-7.432H25.561a25.39 25.39 0 00-17.95 7.432A25.37 25.37 0 00.176 25.769v152.25a25.37 25.37 0 007.435 17.943 25.392 25.392 0 0017.95 7.432h88.846a25.393 25.393 0 0017.95-7.432 25.373 25.373 0 007.435-17.943V146.3h12.692a12.686 12.686 0 0012.692-12.687V70.175a12.68 12.68 0 00-4.315-9.516zm-21.069 9.515l-31.731 23.79-31.73-23.79h63.461zM127.1 178.019a12.692 12.692 0 01-12.693 12.687H25.561a12.692 12.692 0 01-12.692-12.687V25.769c0-3.365 1.337-6.592 3.717-8.972a12.694 12.694 0 018.975-3.716h88.846A12.695 12.695 0 01127.1 25.77v31.718H63.638a12.695 12.695 0 00-8.377 3.172 12.687 12.687 0 00-4.315 9.516v63.438c0 3.364 1.337 6.592 3.717 8.971a12.696 12.696 0 008.975 3.716H127.1v31.719zm-63.462-44.406V76.519l40.615 30.45a6.354 6.354 0 007.616 0l40.615-30.45v57.094H63.638z" fill="#101B31"/><path d="M95.369 38.456a6.345 6.345 0 006.346-6.344 6.345 6.345 0 00-6.346-6.343 6.345 6.345 0 100 12.687zM69.984 174.822a6.345 6.345 0 100-12.687 6.345 6.345 0 100 12.687z" fill="#101B31"/><path d="M160.861 60.66a12.697 12.697 0 00-8.377-3.172H63.638a12.695 12.695 0 00-8.377 3.171 12.687 12.687 0 00-4.315 9.516v63.438c0 3.364 1.337 6.592 3.717 8.971a12.696 12.696 0 008.975 3.716h88.846a12.686 12.686 0 0012.692-12.687V70.175a12.68 12.68 0 00-4.315-9.516zm-21.069 9.515l-31.731 23.79-31.73-23.79h63.461zm12.692 63.438H63.638V76.519l40.615 30.45a6.354 6.354 0 007.616 0l40.615-30.45v57.094z" fill="#C80000"/></svg>