<svg width="261" height="54" viewBox="0 0 261 54" fill="none" xmlns="http://www.w3.org/2000/svg"><path d="M.979 53.024l.885-24.013h8.614l.826 24.013H.979zm5.133-27.258c-3.363 0-5.841-2.537-5.841-5.782s2.478-5.782 5.84-5.782c3.423 0 5.96 2.537 5.96 5.782s-2.537 5.782-5.96 5.782zm31.312 19.942c-12.154 0-20.237-8.791-20.237-19.824 0-10.915 8.083-19.706 20.237-19.706 5.84 0 11.092 2.065 14.573 5.546l-7.375 7.611c-2.714-2.773-4.897-3.009-6.726-3.009-4.956 0-9.027 4.012-9.027 9.558 0 5.664 3.776 9.676 9.027 9.676 3.127 0 6.018-1.416 8.142-4.248l7.139 7.847c-3.835 4.248-9.204 6.549-15.753 6.549zm29.57-.118c-9.085 0-10.973-5.664-10.973-13.334V14.851h10.738v16.048c0 3.186 1.062 4.661 3.894 4.661 3.245 0 4.425-2.773 4.425-6.49V14.851h10.738V45H75.668v-3.304c-1.652 2.124-5.546 3.894-8.673 3.894zM90.54 45V14.851h10.738V45H90.54zm5.31-32.45c-3.304 0-6.077-2.773-6.077-6.077 0-3.363 2.773-6.136 6.077-6.136 3.422 0 6.195 2.773 6.195 6.136 0 3.304-2.773 6.077-6.195 6.077zm22.463 33.04c-8.378 0-12.921-6.962-12.921-15.635 0-8.732 4.838-15.694 13.275-15.694 2.419 0 5.428.826 7.257 3.127V6.178h10.738V45h-10.148v-3.363c-1.593 3.068-5.782 3.953-8.201 3.953zm2.832-9.44c2.832 0 4.838-2.537 4.838-6.195 0-3.599-2.006-6.254-4.838-6.254-2.832 0-4.838 2.655-4.838 6.254 0 3.658 2.006 6.195 4.838 6.195zm32.545 9.44c-8.378 0-12.921-6.962-12.921-15.635 0-8.732 4.543-15.694 12.921-15.694 2.419 0 6.431.826 8.201 3.953v-3.363h10.148V45h-10.148v-3.363c-1.652 3.068-5.782 3.953-8.201 3.953zm2.832-9.44c2.832 0 4.838-2.537 4.838-6.195 0-3.599-2.006-6.254-4.838-6.254-2.832 0-4.838 2.655-4.838 6.254 0 3.658 2.006 6.195 4.838 6.195zm32.544 9.44c-8.378 0-12.921-6.962-12.921-15.635 0-8.732 4.838-15.694 13.275-15.694 2.419 0 5.428.826 7.257 3.127V6.178h10.738V45h-10.148v-3.363c-1.593 3.068-5.782 3.953-8.201 3.953zm2.832-9.44c2.832 0 4.838-2.537 4.838-6.195 0-3.599-2.006-6.254-4.838-6.254-2.832 0-4.838 2.655-4.838 6.254 0 3.658 2.006 6.195 4.838 6.195zm35.908 9.44c-9.263 0-16.284-6.962-16.284-15.635 0-8.732 7.021-15.694 16.284-15.694 9.263 0 16.284 6.962 16.284 15.694 0 8.673-7.021 15.635-16.284 15.635zm0-9.44c3.186 0 5.428-2.537 5.428-6.195 0-3.599-2.242-6.254-5.428-6.254s-5.428 2.655-5.428 6.254c0 3.658 2.242 6.195 5.428 6.195zm22.733-5.369l-.885-24.013h10.325l-.826 24.013h-8.614zm4.248 3.245c3.422 0 5.959 2.537 5.959 5.782s-2.537 5.782-5.959 5.782c-3.363 0-5.841-2.537-5.841-5.782s2.478-5.782 5.841-5.782z" fill="#fff"/></svg>