<svg width="166" height="198" viewBox="0 0 166 198" fill="none" xmlns="http://www.w3.org/2000/svg"><path d="M114.617 6.55H25.771C15.257 6.55 6.733 14.82 6.733 25.02v147.75c0 10.2 8.524 18.469 19.038 18.469h88.846c10.515 0 19.039-8.269 19.039-18.469V25.019c0-10.2-8.524-18.469-19.039-18.469z" fill="#F2F2F2"/><path d="M133.656 25.019c0-4.898-2.006-9.596-5.576-13.06-3.571-3.463-8.413-5.409-13.463-5.409H25.771c-5.05 0-9.892 1.946-13.462 5.41-3.57 3.463-5.576 8.16-5.576 13.059v24.625h126.923V25.019zM6.733 172.769c0 4.898 2.006 9.596 5.576 13.059 3.57 3.464 8.413 5.41 13.462 5.41h88.846c5.05 0 9.892-1.946 13.463-5.41 3.57-3.463 5.576-8.161 5.576-13.059v-24.625H6.733v24.625z" fill="#C1C5C8"/><path d="M159.04 49.644v61.562a6.062 6.062 0 01-1.858 4.353 6.447 6.447 0 01-4.488 1.804h-31.731l-19.038 18.468-19.038-18.468H63.848a6.445 6.445 0 01-4.487-1.804 6.063 6.063 0 01-1.859-4.353V49.644c0-1.633.669-3.199 1.859-4.353a6.447 6.447 0 014.487-1.803h88.846c1.683 0 3.298.648 4.488 1.803a6.064 6.064 0 011.858 4.353z" fill="#F2F2F2"/><path d="M152.694 37.331h-12.692V25.02c0-6.531-2.675-12.795-7.435-17.413-4.761-4.618-11.217-7.212-17.95-7.212H25.771c-6.732 0-13.189 2.594-17.95 7.212C3.062 12.224.388 18.488.388 25.02v147.75c0 6.531 2.674 12.794 7.435 17.412 4.76 4.618 11.217 7.213 17.95 7.213h88.845c6.733 0 13.189-2.595 17.95-7.213 4.76-4.618 7.435-10.881 7.435-17.412v-30.781a6.067 6.067 0 00-1.859-4.354 6.448 6.448 0 00-4.487-1.803 6.45 6.45 0 00-4.488 1.803 6.066 6.066 0 00-1.858 4.354v30.781c0 3.265-1.338 6.397-3.718 8.706-2.38 2.309-5.608 3.606-8.975 3.606H25.771c-3.366 0-6.594-1.297-8.975-3.606-2.38-2.309-3.717-5.441-3.717-8.706V25.019c0-3.266 1.337-6.397 3.717-8.706 2.38-2.31 5.609-3.607 8.975-3.607h88.846c3.367 0 6.595 1.298 8.975 3.607s3.718 5.44 3.718 8.706V37.33H63.848c-3.366 0-6.594 1.297-8.975 3.606-2.38 2.31-3.717 5.441-3.717 8.707v61.562c0 3.266 1.337 6.398 3.717 8.707 2.38 2.309 5.609 3.606 8.975 3.606h16.437l17.134 16.683a6.37 6.37 0 002.065 1.348 6.527 6.527 0 004.882 0 6.373 6.373 0 002.065-1.348l17.134-16.683h29.129c3.366 0 6.595-1.297 8.975-3.606s3.718-5.441 3.718-8.707V49.644c0-3.266-1.338-6.397-3.718-8.706-2.38-2.31-5.609-3.607-8.975-3.607zm0 73.875h-31.731a6.537 6.537 0 00-2.436.457 6.37 6.37 0 00-2.069 1.329l-14.533 14.159-14.533-14.159a6.37 6.37 0 00-2.07-1.329 6.539 6.539 0 00-2.436-.457H63.849V49.644h88.846v61.562z" fill="#101B31"/><path d="M152.694 37.331H63.848c-3.366 0-6.594 1.297-8.975 3.606-2.38 2.31-3.717 5.441-3.717 8.707v61.562c0 3.266 1.337 6.398 3.717 8.707 2.38 2.309 5.609 3.606 8.975 3.606h16.437l17.134 16.683a6.37 6.37 0 002.065 1.348 6.527 6.527 0 004.882 0 6.373 6.373 0 002.065-1.348l17.134-16.683h29.129c3.366 0 6.595-1.297 8.975-3.606s3.718-5.441 3.718-8.707V49.644c0-3.266-1.338-6.397-3.718-8.706-2.38-2.31-5.609-3.607-8.975-3.607zm0 73.875h-31.731a6.537 6.537 0 00-2.436.457 6.37 6.37 0 00-2.069 1.329l-14.533 14.159-14.533-14.159a6.37 6.37 0 00-2.07-1.329 6.539 6.539 0 00-2.436-.457H63.849V49.644h88.846v61.562z" fill="#C80000"/><path d="M89.233 74.269h38.077a6.446 6.446 0 004.487-1.803 6.065 6.065 0 001.859-4.353 6.065 6.065 0 00-1.859-4.354 6.446 6.446 0 00-4.487-1.803H89.233a6.447 6.447 0 00-4.488 1.803 6.064 6.064 0 00-1.859 4.353c0 1.633.67 3.2 1.86 4.354a6.447 6.447 0 004.487 1.803zM89.233 98.894h38.077a6.446 6.446 0 004.487-1.803 6.065 6.065 0 001.859-4.353 6.065 6.065 0 00-1.859-4.353 6.446 6.446 0 00-4.487-1.803H89.233a6.446 6.446 0 00-4.488 1.803 6.064 6.064 0 00-1.859 4.353c0 1.633.67 3.198 1.86 4.353a6.447 6.447 0 004.487 1.803z" fill="#C80000"/><path d="M70.194 173.57c3.505 0 6.346-2.846 6.346-6.357a6.351 6.351 0 00-6.346-6.356 6.351 6.351 0 00-6.346 6.356c0 3.511 2.841 6.357 6.346 6.357z" fill="#101B31"/></svg>