<svg width="270" height="25" viewBox="0 0 270 25" fill="none" xmlns="http://www.w3.org/2000/svg"><path d="M13.588 13.52H3.143c.152.945.554 1.699 1.208 2.256.654.559 1.49.837 2.507.837 1.215 0 2.26-.436 3.133-1.308l2.739 1.32c-.682.996-1.5 1.73-2.454 2.208-.953.478-2.084.716-3.392.716-2.033 0-3.688-.658-4.966-1.976C.64 16.256 0 14.607 0 12.625c0-1.983.638-3.718 1.911-5.06 1.274-1.341 2.872-2.01 4.795-2.01 2.04 0 3.699.671 4.977 2.01 1.278 1.342 1.918 3.113 1.918 5.316l-.011.636-.002.003zm-3.25-2.63a3.34 3.34 0 00-1.272-1.81c-.633-.466-1.364-.699-2.201-.699-.907 0-1.701.262-2.386.783-.43.326-.827.9-1.194 1.725h7.052zM23.724 7.757l-2.012 2.066c-.817-.832-1.56-1.248-2.227-1.248-.364 0-.651.08-.857.238a.717.717 0 00-.308.593c0 .18.065.345.196.494.13.152.453.358.97.617l1.191.612c1.255.636 2.117 1.284 2.585 1.944.467.66.703 1.435.703 2.323 0 1.183-.423 2.17-1.269 2.96-.846.791-1.98 1.185-3.4 1.185-1.89 0-3.397-.758-4.526-2.275l2-2.24c.381.457.828.826 1.34 1.107.511.28.967.422 1.364.422.43 0 .773-.105 1.035-.316.262-.212.392-.456.392-.735 0-.513-.471-1.015-1.416-1.505l-1.095-.561c-2.096-1.085-3.143-2.443-3.143-4.073 0-1.051.395-1.951 1.184-2.698.79-.746 1.802-1.118 3.031-1.118.841 0 1.634.19 2.377.569.743.38 1.371.924 1.888 1.632l-.003.007zM27.127 15.72c.516 0 .957.185 1.322.557.365.372.547.82.547 1.351 0 .53-.182.984-.547 1.358a1.78 1.78 0 01-1.323.562c-.516 0-.955-.187-1.322-.562a1.877 1.877 0 01-.547-1.358c0-.53.182-.982.547-1.351a1.784 1.784 0 011.323-.557zM34.232 1.214h3.248l4.063 12.552 4.099-12.552h3.247l2.942 17.995H48.61L46.73 7.846l-3.724 11.363h-2.942L36.377 7.846l-1.923 11.363h-3.255l3.033-17.995zM66.986 13.522H56.542c.15.948.553 1.7 1.208 2.258.654.557 1.49.838 2.51.838 1.214 0 2.259-.437 3.133-1.31l2.74 1.322c-.682.994-1.5 1.733-2.455 2.21-.954.478-2.084.716-3.395.716-2.033 0-3.688-.658-4.968-1.976-1.278-1.317-1.918-2.966-1.918-4.946 0-1.98.635-3.717 1.911-5.057 1.276-1.339 2.874-2.01 4.795-2.01 2.04 0 3.699.671 4.977 2.01 1.278 1.344 1.918 3.113 1.918 5.314l-.012.636h-.004l.004-.005zm-3.252-2.63a3.352 3.352 0 00-1.271-1.81c-.633-.465-1.365-.698-2.201-.698-.907 0-1.701.261-2.388.782-.43.327-.83.903-1.194 1.726h7.054zM78.891.759h3.253v18.446h-3.253V17.8c-.635.62-1.27 1.068-1.909 1.34-.635.27-1.329.41-2.077.41-1.673 0-3.12-.668-4.341-2-1.222-1.332-1.834-2.99-1.834-4.972 0-1.983.588-3.74 1.773-5.055 1.182-1.313 2.615-1.97 4.306-1.97.779 0 1.508.151 2.19.451.682.3 1.31.756 1.89 1.358V.76h.002zm-3.42 7.88c-1.005 0-1.842.362-2.505 1.094-.664.73-.998 1.665-.998 2.808 0 1.142.339 2.095 1.014 2.836.675.742 1.507 1.112 2.498 1.112.99 0 1.87-.363 2.54-1.095.673-.73 1.007-1.685 1.007-2.87 0-1.186-.336-2.095-1.007-2.815-.673-.716-1.521-1.076-2.552-1.076v.005h.003zM86.743.418c.567 0 1.058.213 1.465.636.406.425.612.938.612 1.54 0 .603-.203 1.105-.608 1.525-.404.417-.885.63-1.446.63-.56 0-1.073-.213-1.48-.642a2.186 2.186 0 01-.611-1.56c0-.612.2-1.09.603-1.505.404-.415.89-.624 1.46-.624h.005zm-1.627 5.479h3.253v13.308h-3.253V5.897zM103.91 8.592l-2.706 1.531c-.507-.547-1.011-.924-1.507-1.137-.497-.214-1.08-.32-1.748-.32-1.215 0-2.2.37-2.95 1.116-.75.744-1.127 1.7-1.127 2.864 0 1.163.36 2.054 1.087 2.774.722.715 1.673 1.075 2.85 1.075 1.454 0 2.587-.511 3.398-1.531l2.561 1.802c-1.391 1.858-3.351 2.787-5.886 2.787-2.28 0-4.064-.694-5.354-2.081s-1.937-3.01-1.937-4.87c0-1.289.316-2.474.94-3.559a6.774 6.774 0 012.626-2.558c1.122-.62 2.381-.93 3.77-.93 1.287 0 2.441.265 3.464.79a6.59 6.59 0 012.512 2.247v.005l.007-.005zM115.21 5.896h3.252v13.308h-3.252v-1.406c-.636.62-1.271 1.068-1.909 1.34-.636.27-1.33.41-2.078.41-1.673 0-3.119-.668-4.341-2-1.222-1.332-1.834-2.99-1.834-4.972 0-1.983.589-3.74 1.773-5.055 1.183-1.313 2.615-1.97 4.307-1.97.778 0 1.507.151 2.189.451.682.3 1.311.756 1.89 1.358V5.892v.004h.003zm-3.421 2.741c-1.005 0-1.841.363-2.505 1.095-.664.73-.998 1.665-.998 2.808 0 1.142.339 2.095 1.014 2.836.676.742 1.508 1.112 2.498 1.112.991 0 1.87-.363 2.54-1.095.673-.73 1.007-1.685 1.007-2.87 0-1.186-.336-2.095-1.007-2.815-.673-.716-1.521-1.076-2.551-1.076v.005h.002zM121.221 5.897h2.788v1.677c.299-.66.703-1.164 1.203-1.504.5-.341 1.047-.514 1.643-.514.421 0 .862.113 1.322.34l-1.011 2.874c-.383-.195-.694-.293-.94-.293-.5 0-.923.319-1.268.955-.346.636-.519 1.884-.519 3.744l.012.65v5.383h-3.227V5.897h-.005.002zM142.095 13.522H131.65c.15.948.554 1.7 1.208 2.258.654.557 1.491.838 2.51.838 1.215 0 2.259-.437 3.133-1.31l2.741 1.322c-.682.994-1.5 1.733-2.456 2.21-.953.478-2.084.716-3.395.716-2.033 0-3.687-.658-4.968-1.976-1.278-1.317-1.918-2.966-1.918-4.946 0-1.98.635-3.717 1.911-5.057 1.276-1.339 2.874-2.01 4.795-2.01 2.04 0 3.699.671 4.977 2.01 1.278 1.344 1.918 3.113 1.918 5.314l-.011.636h-.005l.005-.005zm-3.253-2.63a3.351 3.351 0 00-1.271-1.81c-.631-.463-1.365-.698-2.201-.698-.907 0-1.701.261-2.388.782-.43.327-.83.903-1.194 1.726h7.054zM145.446 15.722c.514 0 .958.188 1.322.557.365.37.547.823.547 1.351s-.182.984-.547 1.359a1.781 1.781 0 01-1.322.561c-.514 0-.958-.187-1.323-.561a1.876 1.876 0 01-.547-1.359c0-.532.183-.979.547-1.35.365-.37.809-.558 1.323-.558zM159.239 5.897h3.241v11.4c0 2.249-.439 3.905-1.322 4.966-1.183 1.435-2.966 2.155-5.349 2.155-1.271 0-2.337-.161-3.206-.487-.864-.327-1.598-.804-2.189-1.438-.596-.631-1.035-1.402-1.323-2.304h3.585c.317.374.724.658 1.226.852.5.192 1.094.286 1.776.286.872 0 1.575-.14 2.108-.416.533-.278.906-.636 1.126-1.075.217-.441.33-1.2.33-2.275-.573.588-1.173 1.01-1.797 1.267-.629.257-1.337.387-2.134.387-1.74 0-3.208-.644-4.407-1.935-1.196-1.289-1.796-2.918-1.796-4.893 0-2.11.635-3.81 1.904-5.09 1.15-1.158 2.526-1.736 4.119-1.736.748 0 1.451.14 2.115.422.664.284 1.33.744 1.993 1.388V5.897zm-3.369 2.78c-1.026 0-1.87.352-2.538 1.055-.668.706-1 1.594-1 2.662 0 1.068.344 2.018 1.026 2.726.682.708 1.54 1.063 2.573 1.063 1.032 0 1.841-.345 2.493-1.039.654-.693.983-1.603.983-2.726s-.329-2.011-.99-2.705c-.657-.694-1.507-1.04-2.547-1.04v.003zM171.651 5.557c1.222 0 2.372.316 3.449.943a6.704 6.704 0 012.519 2.558 7.016 7.016 0 01.904 3.487 7.168 7.168 0 01-.911 3.524 6.639 6.639 0 01-2.484 2.56c-1.047.617-2.206.924-3.465.924-1.858 0-3.444-.679-4.76-2.037-1.315-1.359-1.972-3.005-1.972-4.947 0-2.08.743-3.813 2.227-5.2 1.301-1.208 2.797-1.81 4.491-1.81l.005-.005-.003.003zm.054 3.146c-1.012 0-1.851.36-2.524 1.082-.673.723-1.007 1.644-1.007 2.772s.332 2.096.998 2.816c.664.72 1.505 1.075 2.524 1.075 1.018 0 1.864-.363 2.539-1.09.676-.727 1.015-1.658 1.015-2.8 0-1.143-.332-2.072-.998-2.782-.664-.713-1.512-1.073-2.547-1.073zM178.85 5.898h3.313l3.274 7.855 3.266-7.855h3.295l-5.514 13.308h-2.108l-5.529-13.308h.005-.002zM192.517 22.43l7.91-21.842h2.339l-7.924 21.842h-2.325zM206.159 1.105h9.701v3.36h-6.372v3.286h4.141v3.31h-4.141v8.145h-3.329V1.103v.002zM217.571 5.818h2.804v1.685c.303-.665.708-1.169 1.21-1.514a2.854 2.854 0 011.654-.516c.423 0 .867.115 1.33.345L223.55 8.71c-.383-.197-.699-.295-.946-.295-.503 0-.928.32-1.276.96-.348.64-.521 1.896-.521 3.766l.011.652v5.415h-3.245V5.818h-.002zM235.806 5.818h3.271v13.39h-3.271v-1.416c-.638.624-1.279 1.073-1.921 1.346a5.238 5.238 0 01-2.089.413c-1.682 0-3.14-.67-4.367-2.011-1.229-1.342-1.844-3.01-1.844-5.002s.594-3.76 1.783-5.083c1.189-1.32 2.633-1.982 4.332-1.982.783 0 1.517.15 2.201.456.687.304 1.32.758 1.902 1.365V5.818h.003zm-3.438 2.758c-1.011 0-1.85.367-2.518 1.101-.669.735-1.003 1.676-1.003 2.825 0 1.15.341 2.11 1.021 2.856.68.747 1.519 1.121 2.514 1.121.996 0 1.879-.367 2.557-1.102.677-.734 1.014-1.696 1.014-2.884s-.339-2.108-1.014-2.83c-.678-.722-1.533-1.082-2.568-1.082l-.003-.005zM242.372 5.817h3.306v6.449c0 1.255.084 2.126.252 2.616.168.487.44.868.811 1.137.372.269.83.406 1.376.406.547 0 1.007-.135 1.388-.401s.664-.658.846-1.176c.136-.386.203-1.21.203-2.474v-6.56h3.272v5.674c0 2.338-.18 3.938-.54 4.8-.439 1.051-1.087 1.855-1.942 2.42-.855.56-1.942.842-3.259.842-1.43 0-2.587-.33-3.468-.984-.883-.656-1.502-1.572-1.862-2.744-.255-.81-.383-2.29-.383-4.43V5.817zM266.729.648H270v18.557h-3.271v-1.416c-.638.624-1.278 1.073-1.921 1.346a5.238 5.238 0 01-2.089.413c-1.682 0-3.14-.67-4.367-2.011-1.229-1.342-1.844-3.01-1.844-5.002s.594-3.76 1.783-5.083c1.189-1.32 2.634-1.982 4.332-1.982.783 0 1.517.15 2.201.456.687.305 1.321.758 1.902 1.365V.646l.003.002zm-3.437 7.925c-1.012 0-1.851.367-2.519 1.102-.669.734-1.003 1.675-1.003 2.824 0 1.15.341 2.11 1.021 2.856.68.747 1.519 1.121 2.515 1.121.995 0 1.878-.367 2.556-1.101.677-.735 1.014-1.697 1.014-2.885 0-1.188-.339-2.107-1.014-2.83-.678-.722-1.533-1.082-2.568-1.082l-.002-.005z" fill="#fff"/></svg>