<svg width="302" height="70" viewBox="0 0 302 70" fill="none" xmlns="http://www.w3.org/2000/svg"><rect x="1" y="1" width="300" height="68" rx="7" fill="#51B9FA" stroke="#99CAE9" stroke-width="2"/><path d="M25.216 44.686V27.19h7.29c5.86 0 9.531 3.969 9.531 8.748s-3.672 8.748-9.53 8.748h-7.29zm5.13-4.347h1.971c2.62 0 4.293-1.863 4.293-4.401 0-2.511-1.674-4.401-4.293-4.401h-1.97v8.802zm15.198 4.347V27.19H59.45v4.347h-8.775v2.133h8.424v4.293h-8.424v2.376h9.1v4.347h-14.23zm21.885 0V31.537h-5.481V27.19H78.04v4.347h-5.481v13.149h-5.13zm13.709 0V27.19h13.905v4.347h-8.775v2.133h8.424v4.293h-8.424v2.376h9.099v4.347H81.138zm4.482-18.36l2.835-4.833h4.725l-3.915 4.833H85.62zm12.867 18.36V27.19h4.455l5.562 7.749c.405.54.783 1.323.783 1.323V27.19h5.13v17.496h-4.455l-5.562-7.614c-.405-.54-.783-1.323-.783-1.323v8.937h-5.13zm27.05 0V27.19h13.905v4.347h-8.775v2.133h8.424v4.293h-8.424v2.376h9.099v4.347h-14.229zm17.349 0V27.19h5.13v13.149h9.315v4.347h-14.445zm24.756 0V27.19h13.5v4.347h-8.37v2.133h7.317v4.293h-7.317v6.723h-5.13zm16.189 0V27.19h7.722c5.373 0 8.127 3.105 8.127 6.912 0 2.025-.918 4.104-2.754 5.373l3.267 5.211h-5.859l-1.998-3.753c-.54.054-.837.081-1.269.081h-2.106v3.672h-5.13zm5.13-8.019h2.646c1.593 0 2.646-1.161 2.646-2.565 0-1.431-1.08-2.565-2.619-2.565h-2.673v5.13zm12.953 8.019l7.074-17.496h5.292l7.074 17.496h-5.238l-.81-2.268h-7.344l-.81 2.268h-5.238zm7.425-6.21h4.59l-2.079-5.913c-.162-.432-.189-.594-.216-.702 0 0-.054.243-.216.702l-2.079 5.913zm21.737 6.534c-4.428 0-7.803-2.457-7.803-7.263V27.19h5.13v10.26c0 2.106 1.215 2.916 2.673 2.916s2.673-.81 2.673-2.916V27.19h5.13v10.557c0 4.806-3.375 7.263-7.803 7.263zm11.788-.324V27.19h7.29c5.859 0 9.531 3.969 9.531 8.748s-3.672 8.748-9.531 8.748h-7.29zm5.13-4.347h1.971c2.619 0 4.293-1.863 4.293-4.401 0-2.511-1.674-4.401-4.293-4.401h-1.971v8.802zm15.198 4.347V27.19h13.905v4.347h-8.775v2.133h8.424v4.293h-8.424v2.376h9.099v4.347h-14.229z" fill="#091C29"/></svg>