<svg width="762" height="50" viewBox="0 0 762 50" fill="none" xmlns="http://www.w3.org/2000/svg"><path d="M.834 41V4.712h7.504L20.826 21.96c2.016 2.744 4.312 6.664 4.312 6.664V4.712h7.84V41h-7.56L13.322 24.424c-2.408-3.248-4.648-7.112-4.648-7.112V41H.834zm52.704.56c-8.344 0-14.952-6.44-14.952-14.56 0-8.12 6.608-14.56 14.952-14.56 8.4 0 15.008 6.44 15.008 14.56 0 8.12-6.608 14.56-15.008 14.56zm0-6.944c4.2 0 7.336-3.192 7.336-7.616 0-4.368-3.136-7.616-7.336-7.616S46.202 22.632 46.202 27c0 4.424 3.136 7.616 7.336 7.616zm46.32 6.944c-8.343 0-14.951-6.44-14.951-14.56 0-8.12 6.608-14.56 14.952-14.56 3.864 0 7.224 1.288 10.024 3.584l-4.536 5.264c-1.288-1.176-3.08-1.904-5.32-1.904-4.368 0-7.504 3.192-7.504 7.616 0 4.368 2.968 7.616 7.728 7.616 2.352 0 4.648-.896 6.104-2.296l3.976 5.6c-2.688 2.296-6.44 3.64-10.472 3.64zm27.563 0c-8.344 0-14.952-6.44-14.952-14.56 0-8.12 6.608-14.56 14.952-14.56 8.4 0 15.008 6.44 15.008 14.56 0 8.12-6.608 14.56-15.008 14.56zm0-6.944c4.2 0 7.336-3.192 7.336-7.616 0-4.368-3.136-7.616-7.336-7.616s-7.336 3.248-7.336 7.616c0 4.424 3.136 7.616 7.336 7.616zM147.325 41V13h7.336v3.752c1.624-2.52 4.928-4.312 8.288-4.312 4.424 0 7.168 1.848 8.624 4.984 2.016-3.36 5.88-4.984 9.072-4.984 7.896 0 10.36 5.432 10.36 12.6V41h-7.504V25.992c0-3.696-.896-6.44-4.872-6.44-3.696 0-5.712 2.968-5.712 6.664V41h-7.504V25.992c0-3.696-.84-6.44-4.872-6.44-3.808 0-5.712 3.248-5.712 6.944V41h-7.504zm49 8.064V13h7.112v3.36c2.296-2.744 5.6-3.92 8.96-3.92 7.728 0 12.656 6.496 12.656 14.504 0 8.12-5.04 14.616-12.768 14.616-3.248 0-6.44-1.288-8.456-3.752v11.256h-7.504zm14.112-14.448c4.088 0 6.944-3.192 6.944-7.616 0-4.424-2.856-7.616-6.944-7.616-3.808 0-6.664 3.136-6.664 7.616 0 4.424 2.8 7.616 6.664 7.616zm31.282 6.944c-7.728 0-12.656-6.496-12.656-14.56s4.928-14.56 12.656-14.56c3.248 0 6.72 1.288 8.736 3.976V13h7.336v28h-7.336v-3.36c-1.96 2.688-5.488 3.92-8.736 3.92zm1.904-6.944c3.864 0 6.664-3.136 6.664-7.616 0-4.368-2.8-7.616-6.664-7.616-4.032 0-6.944 3.248-6.944 7.616 0 4.424 2.912 7.616 6.944 7.616zM263.481 41V13h7.392v5.376c.784-2.296 3.64-5.936 9.8-5.936v8.176c-6.496 0-9.688 2.968-9.688 9.632V41h-7.504zm32.895.56c-5.6 0-8.624-3.248-8.624-9.576V19.048h-4.088V13h4.088V7.624l7.504-1.68V13h7.728v6.048h-7.728v12.824c0 2.408 1.176 3.192 2.52 3.192 1.792 0 3.36-1.008 3.584-1.176l2.128 5.544a12.904 12.904 0 01-7.112 2.128zm22.452 0c-7.728 0-12.656-6.496-12.656-14.56s4.928-14.56 12.656-14.56c3.248 0 6.72 1.288 8.736 3.976V13h7.336v28h-7.336v-3.36c-1.96 2.688-5.488 3.92-8.736 3.92zm1.904-6.944c3.864 0 6.664-3.136 6.664-7.616 0-4.368-2.8-7.616-6.664-7.616-4.032 0-6.944 3.248-6.944 7.616 0 4.424 2.912 7.616 6.944 7.616zm29.826 6.944c-5.992 0-9.856-2.352-11.424-3.808l2.688-5.768c1.904 1.456 4.536 2.968 8.736 2.968 1.736 0 4.592-.672 4.592-2.352 0-1.68-2.408-2.072-4.816-2.744-5.544-1.456-10.08-3.304-10.08-8.68 0-5.712 5.6-8.736 10.864-8.736 4.592 0 7.504 1.12 10.416 2.8l-2.52 5.6c-2.744-1.344-5.32-1.96-7.784-1.96-1.736 0-3.36.784-3.36 1.96 0 1.568 2.352 2.072 4.928 2.632 4.76 1.12 9.968 3.192 9.968 8.904 0 6.888-7 9.184-12.208 9.184zm39.498 0c-5.6 0-8.624-3.248-8.624-9.576V19.048h-4.088V13h4.088V7.624l7.504-1.68V13h7.728v6.048h-7.728v12.824c0 2.408 1.176 3.192 2.52 3.192 1.792 0 3.36-1.008 3.584-1.176l2.128 5.544a12.904 12.904 0 01-7.112 2.128zm20.6 0c-7.728 0-10.192-4.536-10.192-11.816V13h7.504v15.736c0 3.92 1.68 5.712 5.152 5.712 3.92 0 5.824-3.304 5.824-7.112V13h7.504v28h-7.056v-3.92c-1.68 2.744-5.488 4.48-8.736 4.48zm33.786-.56V13h7.504v28h-7.504zm3.696-31.416c-2.408 0-4.424-2.016-4.424-4.424 0-2.464 2.016-4.48 4.424-4.48a4.493 4.493 0 014.48 4.48c0 2.408-2.016 4.424-4.48 4.424zM457.676 41V13h7.336v3.752c2.24-3.08 5.432-4.312 8.848-4.312 7.392 0 9.968 4.76 9.968 12.432V41h-7.504V25.824c0-4.088-1.064-6.272-4.872-6.272-3.752 0-6.272 3.024-6.272 7.28V41h-7.504zm32.622 0V19.104h-4.368v-6.048h4.368v-1.848c0-6.496 3.584-9.296 8.344-9.296 2.52 0 5.32.728 7.28 1.736l-2.128 5.544c-.616-.28-1.848-.84-3.136-.84-1.568 0-2.856.784-2.856 3.696v1.008h7v6.048h-7V41h-7.504zm31.256.56c-8.344 0-14.952-6.44-14.952-14.56 0-8.12 6.608-14.56 14.952-14.56 8.4 0 15.008 6.44 15.008 14.56 0 8.12-6.608 14.56-15.008 14.56zm0-6.944c4.2 0 7.336-3.192 7.336-7.616 0-4.368-3.136-7.616-7.336-7.616s-7.336 3.248-7.336 7.616c0 4.424 3.136 7.616 7.336 7.616zM541.458 41V13h7.392v5.376c.784-2.296 3.64-5.936 9.8-5.936v8.176c-6.496 0-9.688 2.968-9.688 9.632V41h-7.504zm21.273 0V13h7.336v3.752c1.624-2.52 4.928-4.312 8.288-4.312 4.424 0 7.168 1.848 8.624 4.984 2.016-3.36 5.88-4.984 9.072-4.984 7.896 0 10.36 5.432 10.36 12.6V41h-7.504V25.992c0-3.696-.896-6.44-4.872-6.44-3.696 0-5.712 2.968-5.712 6.664V41h-7.504V25.992c0-3.696-.84-6.44-4.872-6.44-3.808 0-5.712 3.248-5.712 6.944V41h-7.504zm60.816.56c-7.728 0-12.656-6.496-12.656-14.56s4.928-14.56 12.656-14.56c3.248 0 6.72 1.288 8.736 3.976V13h7.336v28h-7.336v-3.36c-1.96 2.688-5.488 3.92-8.736 3.92zm1.904-6.944c3.864 0 6.664-3.136 6.664-7.616 0-4.368-2.8-7.616-6.664-7.616-4.032 0-6.944 3.248-6.944 7.616 0 4.424 2.912 7.616 6.944 7.616zm33.97 6.944c-8.344 0-14.952-6.44-14.952-14.56 0-8.12 6.608-14.56 14.952-14.56 3.864 0 7.224 1.288 10.024 3.584l-4.536 5.264c-1.288-1.176-3.08-1.904-5.32-1.904-4.368 0-7.504 3.192-7.504 7.616 0 4.368 2.968 7.616 7.728 7.616 2.352 0 4.648-.896 6.104-2.296l3.976 5.6c-2.688 2.296-6.44 3.64-10.472 3.64zm14.326-.56V13h7.504v28h-7.504zm3.696-31.416c-2.408 0-4.424-2.016-4.424-4.424 0-2.464 2.016-4.48 4.424-4.48a4.493 4.493 0 014.48 4.48c0 2.408-2.016 4.424-4.48 4.424zm18.722-.392L701.429.4h7.448l-6.552 8.792h-6.16zm4.928 32.368c-8.344 0-14.952-6.44-14.952-14.56 0-8.12 6.608-14.56 14.952-14.56 8.4 0 15.008 6.44 15.008 14.56 0 8.12-6.608 14.56-15.008 14.56zm0-6.944c4.2 0 7.336-3.192 7.336-7.616 0-4.368-3.136-7.616-7.336-7.616s-7.336 3.248-7.336 7.616c0 4.424 3.136 7.616 7.336 7.616zM720.997 41V13h7.336v3.752c2.24-3.08 5.432-4.312 8.848-4.312 7.392 0 9.968 4.76 9.968 12.432V41h-7.504V25.824c0-4.088-1.064-6.272-4.872-6.272-3.752 0-6.272 3.024-6.272 7.28V41h-7.504zm35.645.56c-2.52 0-4.424-1.96-4.424-4.368 0-2.52 1.96-4.424 4.424-4.424 2.52 0 4.48 1.904 4.48 4.424 0 2.408-1.96 4.368-4.48 4.368z" fill="#fff"/></svg>