<svg width="970" height="26" viewBox="0 0 970 26" fill="none" xmlns="http://www.w3.org/2000/svg"><path fill="#51B9FA" d="M0 0h970v26H0z"/><path d="M57.236 6.228v7.38c0 .396.012.804.036 1.224.036.408.126.78.27 1.116.156.336.396.612.72.828.324.204.78.306 1.368.306.588 0 1.038-.102 1.35-.306.324-.216.564-.492.72-.828.156-.336.246-.708.27-1.116.036-.42.054-.828.054-1.224v-7.38h3.51v7.866c0 2.112-.486 3.654-1.458 4.626-.96.972-2.442 1.458-4.446 1.458-2.004 0-3.492-.486-4.464-1.458-.972-.972-1.458-2.514-1.458-4.626V6.228h3.528zM75.046 19.8V6.228h3.527l6.516 8.298V6.228h3.51V19.8h-3.51l-6.516-8.298V19.8h-3.528zm35.225 0l2.304-13.572h3.492l2.718 7.236 2.7-7.236h3.492l2.304 13.572h-3.51l-1.17-7.812-3.204 7.812h-1.404l-3.042-7.812-1.17 7.812h-3.51zm33.627-10.584h-4.194v2.268h3.96v2.988h-3.96v2.34h4.194V19.8h-7.722V6.228h7.722v2.988zm9.203 10.584V6.228h3.528l6.516 8.298V6.228h3.51V19.8h-3.51l-6.516-8.298V19.8h-3.528zm30.513-10.098a4.16 4.16 0 00-1.152-.684 2.957 2.957 0 00-1.116-.234c-.456 0-.828.108-1.116.324a1.01 1.01 0 00-.432.846c0 .24.072.438.216.594.144.156.33.294.558.414.24.108.504.204.792.288.3.084.594.174.882.27 1.152.384 1.992.9 2.52 1.548.54.636.81 1.47.81 2.502 0 .696-.12 1.326-.36 1.89a3.887 3.887 0 01-1.026 1.458c-.444.396-.996.702-1.656.918-.648.228-1.386.342-2.214.342-1.716 0-3.306-.51-4.77-1.53l1.512-2.844c.528.468 1.05.816 1.566 1.044a3.764 3.764 0 001.53.342c.576 0 1.002-.132 1.278-.396.288-.264.432-.564.432-.9a1.06 1.06 0 00-.468-.936 2.632 2.632 0 00-.666-.36 18.54 18.54 0 00-.972-.36c-.456-.144-.906-.3-1.35-.468a4.594 4.594 0 01-1.17-.702 3.409 3.409 0 01-.828-1.08c-.204-.444-.306-1.002-.306-1.674 0-.672.108-1.278.324-1.818.228-.552.54-1.02.936-1.404.408-.396.9-.702 1.476-.918a5.655 5.655 0 011.962-.324c.672 0 1.374.096 2.106.288a8.99 8.99 0 012.106.81l-1.404 2.754zm17.978 5.058l-1.584-4.518-1.584 4.518h3.168zm.936 2.682h-5.04l-.81 2.358h-3.762l5.166-13.572h3.852L207.1 19.8h-3.762l-.81-2.358zm19.454-11.214v9.414c0 .396-.024.762-.072 1.098a3.277 3.277 0 01-.198.864 3.884 3.884 0 01-.648 1.062 4.066 4.066 0 01-.936.81c-.36.216-.762.384-1.206.504a4.656 4.656 0 01-1.368.198c-1.452 0-2.634-.666-3.546-1.998l2.304-2.358c.06.408.192.732.396.972.204.24.456.36.756.36.66 0 .99-.522.99-1.566v-9.36h3.528zm17.249 2.988h-4.194v2.268h3.96v2.988h-3.96v2.34h4.194V19.8h-7.722V6.228h7.722v2.988zm25.059 3.798c0 .54.102 1.038.306 1.494.204.456.48.852.828 1.188.348.336.75.6 1.206.792.468.18.96.27 1.476.27s1.002-.09 1.458-.27a3.842 3.842 0 001.224-.792 3.616 3.616 0 001.152-2.682 3.616 3.616 0 00-1.152-2.682 3.604 3.604 0 00-1.224-.774 3.718 3.718 0 00-1.458-.288c-.516 0-1.008.096-1.476.288-.456.18-.858.438-1.206.774a3.778 3.778 0 00-.828 1.188 3.616 3.616 0 00-.306 1.494zm-3.69 0c0-1.008.186-1.944.558-2.808a7.005 7.005 0 011.548-2.286 6.98 6.98 0 012.358-1.512c.924-.372 1.938-.558 3.042-.558 1.092 0 2.1.186 3.024.558.924.36 1.716.864 2.376 1.512a7.025 7.025 0 012.124 5.094c0 1.008-.186 1.95-.558 2.826a6.92 6.92 0 01-1.566 2.268 7.167 7.167 0 01-2.376 1.53c-.924.36-1.932.54-3.024.54-1.104 0-2.118-.18-3.042-.54a7.21 7.21 0 01-2.358-1.53 7.056 7.056 0 01-1.548-2.268 7.154 7.154 0 01-.558-2.826zm31.694-3.798h-4.248v2.268h3.87v2.988h-3.87V19.8h-3.528V6.228h7.776v2.988zm12.291-2.988V19.8h-3.528V6.228h3.528zm19.27 4.536c-.816-.996-1.824-1.494-3.024-1.494-.528 0-1.02.096-1.476.288a3.525 3.525 0 00-1.152.792 3.62 3.62 0 00-.774 1.17c-.18.456-.27.948-.27 1.476 0 .54.09 1.038.27 1.494.192.456.45.852.774 1.188.336.336.726.6 1.17.792.444.192.924.288 1.44.288 1.128 0 2.142-.48 3.042-1.44v4.176l-.36.126c-.54.192-1.044.33-1.512.414-.468.096-.93.144-1.386.144a7.16 7.16 0 01-2.7-.522 7.378 7.378 0 01-2.268-1.494 7.662 7.662 0 01-1.566-2.286c-.396-.888-.594-1.854-.594-2.898s.192-1.998.576-2.862a7.205 7.205 0 011.566-2.25 7.066 7.066 0 012.286-1.476c.864-.36 1.77-.54 2.718-.54.54 0 1.068.06 1.584.18.528.108 1.08.282 1.656.522v4.212zm12.419-4.536V19.8h-3.528V6.228h3.528zm16.876 8.532l-1.584-4.518-1.584 4.518h3.168zm.936 2.682h-5.04l-.81 2.358h-3.762l5.166-13.572h3.852l5.166 13.572h-3.762l-.81-2.358zm16.303-11.214v10.584h4.23V19.8h-7.758V6.228h3.528zm29.018 10.584h.81c.612 0 1.158-.096 1.638-.288.48-.192.882-.456 1.206-.792.336-.336.588-.732.756-1.188.18-.468.27-.978.27-1.53 0-.54-.09-1.044-.27-1.512a3.416 3.416 0 00-.774-1.206 3.405 3.405 0 00-1.206-.792 4.33 4.33 0 00-1.62-.288h-.81v7.596zm-3.528-10.584h5.22c.924 0 1.788.186 2.592.558.816.372 1.524.87 2.124 1.494a6.68 6.68 0 011.44 2.16c.348.816.522 1.674.522 2.574a6.58 6.58 0 01-.522 2.574 6.696 6.696 0 01-1.422 2.16 6.865 6.865 0 01-2.124 1.494 6.14 6.14 0 01-2.61.558h-5.22V6.228zm28.532 2.988h-4.194v2.268h3.96v2.988h-3.96v2.34h4.194V19.8h-7.722V6.228h7.722v2.988zM445.78 19.8l2.304-13.572h3.492l2.718 7.236 2.7-7.236h3.492L462.79 19.8h-3.51l-1.17-7.812-3.204 7.812h-1.404l-3.042-7.812-1.17 7.812h-3.51zm33.627-10.584h-4.194v2.268h3.96v2.988h-3.96v2.34h4.194V19.8h-7.722V6.228h7.722v2.988zm12.731 7.596h.81c.612 0 1.158-.096 1.638-.288.48-.192.882-.456 1.206-.792.336-.336.588-.732.756-1.188.18-.468.27-.978.27-1.53 0-.54-.09-1.044-.27-1.512a3.416 3.416 0 00-.774-1.206 3.405 3.405 0 00-1.206-.792 4.33 4.33 0 00-1.62-.288h-.81v7.596zM488.61 6.228h5.22c.924 0 1.788.186 2.592.558.816.372 1.524.87 2.124 1.494a6.68 6.68 0 011.44 2.16c.348.816.522 1.674.522 2.574a6.58 6.58 0 01-.522 2.574 6.696 6.696 0 01-1.422 2.16 6.865 6.865 0 01-2.124 1.494 6.14 6.14 0 01-2.61.558h-5.22V6.228zm24.339 0V19.8h-3.528V6.228h3.528zm19.269 4.536c-.816-.996-1.824-1.494-3.024-1.494-.528 0-1.02.096-1.476.288a3.525 3.525 0 00-1.152.792 3.62 3.62 0 00-.774 1.17c-.18.456-.27.948-.27 1.476 0 .54.09 1.038.27 1.494.192.456.45.852.774 1.188.336.336.726.6 1.17.792.444.192.924.288 1.44.288 1.128 0 2.142-.48 3.042-1.44v4.176l-.36.126c-.54.192-1.044.33-1.512.414-.468.096-.93.144-1.386.144a7.16 7.16 0 01-2.7-.522 7.378 7.378 0 01-2.268-1.494 7.662 7.662 0 01-1.566-2.286c-.396-.888-.594-1.854-.594-2.898s.192-1.998.576-2.862a7.205 7.205 0 011.566-2.25 7.066 7.066 0 012.286-1.476c.864-.36 1.77-.54 2.718-.54.54 0 1.068.06 1.584.18.528.108 1.08.282 1.656.522v4.212zm16.588 3.996l-1.584-4.518-1.584 4.518h3.168zm.936 2.682h-5.04l-.81 2.358h-3.762l5.166-13.572h3.852l5.166 13.572h-3.762l-.81-2.358zm16.304-5.148h.666c.696 0 1.23-.144 1.602-.432.372-.288.558-.702.558-1.242s-.186-.954-.558-1.242c-.372-.288-.906-.432-1.602-.432h-.666v3.348zm7.758 7.506h-4.392l-3.366-5.22v5.22h-3.528V6.228h5.49c.756 0 1.416.114 1.98.342.564.216 1.026.516 1.386.9.372.384.648.828.828 1.332.192.504.288 1.044.288 1.62 0 1.032-.252 1.872-.756 2.52-.492.636-1.224 1.068-2.196 1.296l4.266 5.562zm15.858-10.584h-4.194v2.268h3.96v2.988h-3.96v2.34h4.194V19.8h-7.722V6.228h7.722v2.988z" fill="#091C29"/></svg>