<svg width="311" height="33" viewBox="0 0 311 33" fill="none" xmlns="http://www.w3.org/2000/svg"><path d="M.247 23.578c0-.474.174-.884.52-1.231.348-.347.762-.52 1.245-.52.482 0 .897.173 1.244.52.347.347.52.761.52 1.244 0 .49-.173.91-.52 1.257a1.692 1.692 0 01-1.244.508c-.5 0-.919-.17-1.257-.508-.339-.339-.508-.762-.508-1.27zm6.204 0c0-.474.173-.884.52-1.231.347-.347.762-.52 1.244-.52.483 0 .897.173 1.244.52.347.347.52.761.52 1.244 0 .49-.173.91-.52 1.257a1.692 1.692 0 01-1.244.508c-.5 0-.918-.17-1.257-.508-.338-.339-.507-.762-.507-1.27zm6.203 0c0-.474.173-.884.52-1.231.348-.347.762-.52 1.245-.52.482 0 .897.173 1.244.52.347.347.52.761.52 1.244 0 .49-.173.91-.52 1.257a1.692 1.692 0 01-1.244.508c-.5 0-.919-.17-1.257-.508-.339-.339-.508-.762-.508-1.27zM18.47 9.61h5.43v1.89c1.48-1.42 3.14-2.13 4.98-2.13 2.28 0 4.02.96 5.22 2.88 1.22-1.94 2.96-2.91 5.22-2.91.72 0 1.4.11 2.04.33.64.2 1.19.53 1.65.99.46.44.82 1.02 1.08 1.74.28.72.42 1.59.42 2.61V25h-5.43v-7.59c0-.78-.06-1.42-.18-1.92-.1-.5-.26-.89-.48-1.17-.2-.28-.44-.47-.72-.57-.28-.1-.58-.15-.9-.15-1.74 0-2.61 1.27-2.61 3.81V25h-5.43v-7.59c0-.78-.05-1.42-.15-1.92-.1-.52-.25-.93-.45-1.23-.18-.3-.42-.5-.72-.6-.3-.12-.65-.18-1.05-.18-.34 0-.66.05-.96.15-.3.1-.57.3-.81.6-.22.28-.4.68-.54 1.2-.12.5-.18 1.16-.18 1.98V25h-5.43V9.61zm41.016 5.46c-.18-.76-.55-1.37-1.11-1.83-.56-.46-1.24-.69-2.04-.69-.84 0-1.53.22-2.07.66-.52.44-.85 1.06-.99 1.86h6.21zm-6.36 3.15c0 2.34 1.1 3.51 3.3 3.51 1.18 0 2.07-.48 2.67-1.44h5.25c-1.06 3.52-3.71 5.28-7.95 5.28-1.3 0-2.49-.19-3.57-.57-1.08-.4-2.01-.96-2.79-1.68a7.519 7.519 0 01-1.77-2.58c-.42-1-.63-2.12-.63-3.36 0-1.28.2-2.43.6-3.45.4-1.04.97-1.92 1.71-2.64.74-.72 1.63-1.27 2.67-1.65 1.06-.4 2.25-.6 3.57-.6 1.3 0 2.47.2 3.51.6 1.04.38 1.92.94 2.64 1.68.72.74 1.27 1.65 1.65 2.73.38 1.06.57 2.26.57 3.6v.57h-11.43zM67.66 9.61h5.43v1.95c.74-.9 1.49-1.5 2.25-1.8.76-.32 1.65-.48 2.67-.48 1.08 0 2 .18 2.76.54.78.34 1.44.83 1.98 1.47.44.52.74 1.1.9 1.74.16.64.24 1.37.24 2.19V25h-5.43v-7.77c0-.76-.06-1.37-.18-1.83-.1-.48-.29-.86-.57-1.14-.24-.24-.51-.41-.81-.51-.3-.1-.62-.15-.96-.15-.92 0-1.63.28-2.13.84-.48.54-.72 1.32-.72 2.34V25h-5.43V9.61zm30.122 3.96c-1-.52-1.98-.78-2.94-.78-.5 0-.91.1-1.23.3-.3.2-.45.47-.45.81 0 .18.02.33.06.45.06.1.17.2.33.3.18.1.43.19.75.27.34.08.78.18 1.32.3 1.5.3 2.62.84 3.36 1.62.74.76 1.11 1.74 1.11 2.94 0 .9-.18 1.71-.54 2.43-.36.72-.86 1.33-1.5 1.83-.64.48-1.41.85-2.31 1.11-.9.28-1.89.42-2.97.42-2.08 0-4.13-.59-6.15-1.77l1.98-3.84c1.52 1.04 2.96 1.56 4.32 1.56.5 0 .91-.11 1.23-.33.32-.22.48-.5.48-.84 0-.2-.03-.36-.09-.48-.04-.14-.14-.26-.3-.36-.16-.12-.4-.22-.72-.3-.3-.1-.7-.2-1.2-.3-1.68-.34-2.86-.84-3.54-1.5-.66-.68-.99-1.61-.99-2.79 0-.86.16-1.63.48-2.31.32-.7.78-1.29 1.38-1.77.6-.48 1.32-.85 2.16-1.11.86-.26 1.81-.39 2.85-.39 1.7 0 3.35.33 4.95.99l-1.83 3.54zm10.103 3.69c0 .5.09.97.27 1.41.18.42.42.79.72 1.11.32.32.69.57 1.11.75.44.18.91.27 1.41.27.48 0 .93-.09 1.35-.27.44-.18.81-.43 1.11-.75.32-.32.57-.69.75-1.11.2-.42.3-.87.3-1.35 0-.48-.1-.93-.3-1.35-.18-.44-.43-.82-.75-1.14-.3-.32-.67-.57-1.11-.75a3.39 3.39 0 00-1.35-.27c-.5 0-.97.09-1.41.27-.42.18-.79.43-1.11.75-.3.32-.54.69-.72 1.11-.18.4-.27.84-.27 1.32zm6.84-7.65h5.46V25h-5.46v-1.71c-1.16 1.46-2.73 2.19-4.71 2.19-1.12 0-2.15-.2-3.09-.6-.94-.42-1.76-1-2.46-1.74s-1.25-1.61-1.65-2.61c-.38-1-.57-2.09-.57-3.27 0-1.1.19-2.14.57-3.12.38-1 .91-1.87 1.59-2.61.68-.74 1.49-1.32 2.43-1.74.94-.44 1.98-.66 3.12-.66 1.92 0 3.51.67 4.77 2.01V9.61zm15.142 0v23.07h-5.43V9.61h5.43zm-5.79-5.91c0-.42.08-.81.24-1.17.16-.38.38-.71.66-.99s.6-.5.96-.66c.38-.16.78-.24 1.2-.24.42 0 .81.08 1.17.24.38.16.71.38.99.66s.5.61.66.99c.16.36.24.75.24 1.17 0 .42-.08.82-.24 1.2-.16.36-.38.68-.66.96-.28.28-.61.5-.99.66-.36.16-.75.24-1.17.24-.42 0-.82-.08-1.2-.24-.36-.16-.68-.38-.96-.66-.28-.28-.5-.6-.66-.96-.16-.38-.24-.78-.24-1.2zm20.751 11.37c-.18-.76-.55-1.37-1.11-1.83-.56-.46-1.24-.69-2.04-.69-.84 0-1.53.22-2.07.66-.52.44-.85 1.06-.99 1.86h6.21zm-6.36 3.15c0 2.34 1.1 3.51 3.3 3.51 1.18 0 2.07-.48 2.67-1.44h5.25c-1.06 3.52-3.71 5.28-7.95 5.28-1.3 0-2.49-.19-3.57-.57-1.08-.4-2.01-.96-2.79-1.68a7.519 7.519 0 01-1.77-2.58c-.42-1-.63-2.12-.63-3.36 0-1.28.2-2.43.6-3.45.4-1.04.97-1.92 1.71-2.64.74-.72 1.63-1.27 2.67-1.65 1.06-.4 2.25-.6 3.57-.6 1.3 0 2.47.2 3.51.6 1.04.38 1.92.94 2.64 1.68.72.74 1.27 1.65 1.65 2.73.38 1.06.57 2.26.57 3.6v.57h-11.43zm24.734-4.65c-1-.52-1.98-.78-2.94-.78-.5 0-.91.1-1.23.3-.3.2-.45.47-.45.81 0 .18.02.33.06.45.06.1.17.2.33.3.18.1.43.19.75.27.34.08.78.18 1.32.3 1.5.3 2.62.84 3.36 1.62.74.76 1.11 1.74 1.11 2.94 0 .9-.18 1.71-.54 2.43-.36.72-.86 1.33-1.5 1.83-.64.48-1.41.85-2.31 1.11-.9.28-1.89.42-2.97.42-2.08 0-4.13-.59-6.15-1.77l1.98-3.84c1.52 1.04 2.96 1.56 4.32 1.56.5 0 .91-.11 1.23-.33.32-.22.48-.5.48-.84 0-.2-.03-.36-.09-.48-.04-.14-.14-.26-.3-.36-.16-.12-.4-.22-.72-.3-.3-.1-.7-.2-1.2-.3-1.68-.34-2.86-.84-3.54-1.5-.66-.68-.99-1.61-.99-2.79 0-.86.16-1.63.48-2.31.32-.7.78-1.29 1.38-1.77.6-.48 1.32-.85 2.16-1.11.86-.26 1.81-.39 2.85-.39 1.7 0 3.35.33 4.95.99l-1.83 3.54zm20.299 3.69c0 .5.09.97.27 1.41.18.42.42.79.72 1.11.32.32.69.57 1.11.75.44.18.91.27 1.41.27.48 0 .93-.09 1.35-.27.44-.18.81-.43 1.11-.75.32-.32.57-.69.75-1.11.2-.42.3-.87.3-1.35 0-.48-.1-.93-.3-1.35-.18-.44-.43-.82-.75-1.14-.3-.32-.67-.57-1.11-.75a3.39 3.39 0 00-1.35-.27c-.48 0-.94.09-1.38.27-.42.18-.79.43-1.11.75-.3.32-.55.69-.75 1.11-.18.4-.27.84-.27 1.32zM190.341.1h5.46V25h-5.46v-1.71c-1.16 1.46-2.73 2.19-4.71 2.19-1.12 0-2.15-.21-3.09-.63-.94-.42-1.76-1-2.46-1.74s-1.25-1.61-1.65-2.61c-.38-1-.57-2.08-.57-3.24 0-1.1.18-2.14.54-3.12.38-1 .91-1.87 1.59-2.61.68-.74 1.49-1.32 2.43-1.74.96-.44 2.01-.66 3.15-.66 1.92 0 3.51.67 4.77 2.01V.1zm20.405 14.97c-.18-.76-.55-1.37-1.11-1.83-.56-.46-1.24-.69-2.04-.69-.84 0-1.53.22-2.07.66-.52.44-.85 1.06-.99 1.86h6.21zm-6.36 3.15c0 2.34 1.1 3.51 3.3 3.51 1.18 0 2.07-.48 2.67-1.44h5.25c-1.06 3.52-3.71 5.28-7.95 5.28-1.3 0-2.49-.19-3.57-.57-1.08-.4-2.01-.96-2.79-1.68a7.519 7.519 0 01-1.77-2.58c-.42-1-.63-2.12-.63-3.36 0-1.28.2-2.43.6-3.45.4-1.04.97-1.92 1.71-2.64.74-.72 1.63-1.27 2.67-1.65 1.06-.4 2.25-.6 3.57-.6 1.3 0 2.47.2 3.51.6 1.04.38 1.92.94 2.64 1.68.72.74 1.27 1.65 1.65 2.73.38 1.06.57 2.26.57 3.6v.57h-11.43zm30.789-4.08V25h-5.43V14.14h-1.8V9.61h1.8V4.99h5.43v4.62h3.09v4.53h-3.09zm16.674.93c-.18-.76-.55-1.37-1.11-1.83-.56-.46-1.24-.69-2.04-.69-.84 0-1.53.22-2.07.66-.52.44-.85 1.06-.99 1.86h6.21zm-6.36 3.15c0 2.34 1.1 3.51 3.3 3.51 1.18 0 2.07-.48 2.67-1.44h5.25c-1.06 3.52-3.71 5.28-7.95 5.28-1.3 0-2.49-.19-3.57-.57-1.08-.4-2.01-.96-2.79-1.68a7.519 7.519 0 01-1.77-2.58c-.42-1-.63-2.12-.63-3.36 0-1.28.2-2.43.6-3.45.4-1.04.97-1.92 1.71-2.64.74-.72 1.63-1.27 2.67-1.65 1.06-.4 2.25-.6 3.57-.6 1.3 0 2.47.2 3.51.6 1.04.38 1.92.94 2.64 1.68.72.74 1.27 1.65 1.65 2.73.38 1.06.57 2.26.57 3.6v.57h-11.43zm19.534-1.56l-6.24-7.05h7.08l2.64 3.18 2.7-3.18h7.08l-6.39 7.05 7.71 8.34h-7.2l-3.93-4.56-3.96 4.56h-7.17l7.68-8.34zm22.505-2.52V25h-5.43V14.14h-1.8V9.61h1.8V4.99h5.43v4.62h3.09v4.53h-3.09zm10.525 3.09c0 .52.09 1 .27 1.44.2.42.45.79.75 1.11.32.32.69.57 1.11.75.44.18.9.27 1.38.27.48 0 .93-.09 1.35-.27.44-.18.81-.43 1.11-.75.32-.32.57-.69.75-1.11.2-.44.3-.91.3-1.41 0-.48-.1-.93-.3-1.35-.18-.44-.43-.82-.75-1.14-.3-.32-.67-.57-1.11-.75a3.39 3.39 0 00-1.35-.27c-.48 0-.94.09-1.38.27-.42.18-.79.43-1.11.75-.3.32-.55.69-.75 1.11-.18.42-.27.87-.27 1.35zm-5.73-.06c0-1.14.23-2.2.69-3.18.46-1 1.1-1.86 1.92-2.58.82-.74 1.79-1.32 2.91-1.74 1.14-.42 2.38-.63 3.72-.63 1.32 0 2.54.21 3.66.63 1.14.4 2.12.97 2.94 1.71.84.72 1.49 1.59 1.95 2.61.46 1 .69 2.11.69 3.33 0 1.22-.24 2.34-.72 3.36-.46 1-1.1 1.87-1.92 2.61-.82.72-1.81 1.28-2.97 1.68-1.14.4-2.38.6-3.72.6-1.32 0-2.54-.2-3.66-.6-1.12-.4-2.09-.97-2.91-1.71-.8-.74-1.43-1.62-1.89-2.64-.46-1.04-.69-2.19-.69-3.45z" fill="#fff"/></svg>