<svg width="548" height="33" viewBox="0 0 548 33" fill="none" xmlns="http://www.w3.org/2000/svg"><path d="M.593 23.36c0-.547.2-1.021.6-1.421.4-.4.88-.601 1.436-.601.557 0 1.035.2 1.435.6.4.4.601.88.601 1.436 0 .566-.2 1.05-.6 1.45-.391.39-.87.586-1.436.586-.576 0-1.06-.195-1.45-.586-.39-.39-.586-.879-.586-1.465zm6.858 0c0-.547.2-1.021.6-1.421.4-.4.88-.601 1.436-.601.556 0 1.035.2 1.435.6.4.4.6.88.6 1.436 0 .566-.2 1.05-.6 1.45-.39.39-.869.586-1.435.586-.576 0-1.06-.195-1.45-.586-.391-.39-.586-.879-.586-1.465zm6.857 0c0-.547.2-1.021.601-1.421.4-.4.879-.601 1.435-.601.557 0 1.036.2 1.436.6.4.4.6.88.6 1.436 0 .566-.2 1.05-.6 1.45-.39.39-.87.586-1.436.586-.576 0-1.059-.195-1.45-.586-.39-.39-.586-.879-.586-1.465zm16.863 9.404v-9.36c-1.308 1.337-2.803 2.006-4.482 2.006-1.924 0-3.52-.708-4.79-2.124-1.28-1.426-1.92-3.208-1.92-5.347 0-2.168.64-3.979 1.92-5.434 1.289-1.445 2.905-2.168 4.848-2.168 1.65 0 3.125.65 4.424 1.948v-1.553h3.31v22.032h-3.31zM23.35 17.793c0 1.377.37 2.495 1.113 3.355.742.878 1.685 1.318 2.827 1.318 1.211 0 2.193-.42 2.945-1.26.761-.85 1.142-1.953 1.142-3.31 0-1.338-.376-2.442-1.128-3.311-.752-.85-1.728-1.275-2.93-1.275-1.132 0-2.08.43-2.841 1.29-.752.869-1.128 1.933-1.128 3.193zm18.94-7.06v8.188c0 2.363.933 3.545 2.798 3.545s2.798-1.182 2.798-3.545v-8.189h3.296v8.262c0 1.143-.142 2.129-.425 2.96-.273.741-.747 1.41-1.42 2.006-1.114.967-2.53 1.45-4.249 1.45-1.709 0-3.12-.483-4.233-1.45-.684-.596-1.167-1.265-1.45-2.007-.274-.664-.41-1.65-.41-2.959v-8.262h3.295zm26.045 7.91H58.11c.087 1.171.468 2.104 1.142 2.797.674.684 1.538 1.026 2.593 1.026.82 0 1.499-.196 2.036-.586.527-.39 1.128-1.113 1.802-2.168l2.783 1.553c-.43.732-.884 1.362-1.362 1.89a7.544 7.544 0 01-1.538 1.288 6.294 6.294 0 01-1.773.733 8.632 8.632 0 01-2.065.234c-2.13 0-3.838-.683-5.127-2.05-1.29-1.378-1.934-3.204-1.934-5.48 0-2.255.625-4.081 1.875-5.478 1.26-1.377 2.93-2.065 5.01-2.065 2.1 0 3.76.669 4.98 2.007 1.211 1.328 1.817 3.169 1.817 5.522l-.015.777zm-3.384-2.696c-.459-1.757-1.567-2.636-3.325-2.636-.4 0-.776.063-1.128.19a3.11 3.11 0 00-.966.527 3.293 3.293 0 00-.733.82 3.848 3.848 0 00-.469 1.1h6.621zM84.61 13.81V25h-3.296V13.809h-1.407v-3.077h1.407v-5.23h3.296v5.23h2.563v3.077H84.61zm18.061 4.834H92.445c.088 1.171.47 2.104 1.143 2.797.674.684 1.538 1.026 2.593 1.026.82 0 1.499-.196 2.036-.586.527-.39 1.128-1.113 1.802-2.168l2.783 1.553c-.43.732-.884 1.362-1.362 1.89a7.572 7.572 0 01-1.538 1.288 6.293 6.293 0 01-1.773.733 8.63 8.63 0 01-2.065.234c-2.13 0-3.838-.683-5.127-2.05-1.29-1.378-1.934-3.204-1.934-5.48 0-2.255.625-4.081 1.875-5.478 1.26-1.377 2.93-2.065 5.01-2.065 2.1 0 3.76.669 4.98 2.007 1.211 1.328 1.817 3.169 1.817 5.522l-.015.777zm-3.384-2.696c-.459-1.757-1.567-2.636-3.325-2.636-.4 0-.776.063-1.128.19a3.112 3.112 0 00-.967.527 3.293 3.293 0 00-.732.82 3.848 3.848 0 00-.469 1.1h6.621zm19.556 16.817h-3.296V10.732h3.296v1.553c1.299-1.299 2.773-1.948 4.424-1.948 1.963 0 3.579.723 4.848 2.168 1.29 1.435 1.934 3.247 1.934 5.434 0 2.14-.64 3.921-1.919 5.347-1.269 1.416-2.871 2.124-4.805 2.124-1.67 0-3.164-.669-4.482-2.007v9.36zm7.837-14.81c0-1.367-.371-2.48-1.113-3.34-.752-.869-1.7-1.304-2.842-1.304-1.211 0-2.193.42-2.945 1.26-.751.84-1.127 1.944-1.127 3.31 0 1.339.376 2.442 1.127 3.311.743.85 1.719 1.275 2.93 1.275 1.143 0 2.085-.43 2.827-1.29.762-.859 1.143-1.933 1.143-3.222zm10.151-7.222V25h-3.296V10.732h3.296zM133.036 4.8c0-.576.21-1.074.63-1.494.42-.42.923-.63 1.509-.63.596 0 1.104.21 1.523.63.42.41.63.913.63 1.508 0 .596-.21 1.104-.63 1.524-.41.42-.913.63-1.508.63-.596 0-1.104-.21-1.524-.63-.42-.42-.63-.933-.63-1.538zM151.523.259h3.31V25h-3.31v-1.494c-1.299 1.27-2.769 1.904-4.41 1.904-1.953 0-3.574-.713-4.863-2.139-1.279-1.455-1.919-3.271-1.919-5.449 0-2.129.64-3.906 1.919-5.332 1.27-1.435 2.866-2.153 4.79-2.153 1.67 0 3.164.684 4.483 2.05V.26zM143.7 17.822c0 1.367.367 2.48 1.099 3.34.752.87 1.699 1.304 2.842 1.304 1.221 0 2.207-.42 2.959-1.26.752-.87 1.128-1.973 1.128-3.31 0-1.338-.376-2.442-1.128-3.311-.752-.85-1.729-1.275-2.93-1.275-1.133 0-2.08.43-2.842 1.29-.752.869-1.128 1.943-1.128 3.222zm25.811-7.09h3.31V25h-3.31v-1.494c-1.357 1.27-2.817 1.904-4.38 1.904-1.973 0-3.603-.713-4.893-2.139-1.279-1.455-1.918-3.271-1.918-5.449 0-2.138.639-3.92 1.918-5.346 1.28-1.426 2.881-2.14 4.805-2.14 1.66 0 3.15.684 4.468 2.052v-1.656zm-7.822 7.09c0 1.367.366 2.48 1.098 3.34.752.87 1.7 1.304 2.842 1.304 1.221 0 2.207-.42 2.959-1.26.752-.87 1.128-1.973 1.128-3.31 0-1.338-.376-2.442-1.128-3.311-.752-.85-1.728-1.275-2.93-1.275-1.132 0-2.08.43-2.841 1.29-.752.869-1.128 1.943-1.128 3.222zm15.293-7.09h3.31v1.319c1.153-1.143 2.451-1.714 3.897-1.714 1.66 0 2.954.522 3.882 1.567.8.889 1.201 2.34 1.201 4.35V25h-3.311v-7.969c0-1.406-.195-2.378-.586-2.915-.381-.547-1.074-.82-2.08-.82-1.094 0-1.87.361-2.329 1.084-.449.713-.674 1.958-.674 3.735V25h-3.31V10.732zm29.121 3.077V25h-3.296V13.809h-1.406v-3.077h1.406v-5.23h3.296v5.23h2.563v3.077h-2.563zm8.1-3.077v8.189c0 2.363.933 3.545 2.798 3.545s2.798-1.182 2.798-3.545v-8.189h3.296v8.262c0 1.143-.142 2.129-.425 2.96-.273.741-.747 1.41-1.421 2.006-1.113.967-2.529 1.45-4.248 1.45-1.709 0-3.12-.483-4.233-1.45-.684-.596-1.167-1.265-1.45-2.007-.274-.664-.411-1.65-.411-2.959v-8.262h3.296zm22.31 0h3.31v1.319c1.153-1.143 2.452-1.714 3.897-1.714 1.66 0 2.954.522 3.882 1.567.801.889 1.201 2.34 1.201 4.35V25h-3.311v-7.969c0-1.406-.195-2.378-.586-2.915-.38-.547-1.074-.82-2.08-.82-1.093 0-1.87.361-2.329 1.084-.449.713-.674 1.958-.674 3.735V25h-3.31V10.732zm19.761 0v8.189c0 2.363.932 3.545 2.797 3.545 1.866 0 2.798-1.182 2.798-3.545v-8.189h3.296v8.262c0 1.143-.141 2.129-.425 2.96-.273.741-.747 1.41-1.42 2.006-1.114.967-2.53 1.45-4.249 1.45-1.708 0-3.12-.483-4.233-1.45-.684-.596-1.167-1.265-1.45-2.007-.274-.664-.41-1.65-.41-2.959v-8.262h3.296zm7.968-7.03l-5.332 4.833-1.801-1.113 4.028-5.332 3.105 1.611zm5.083 7.03h3.296v1.319c.635-.664 1.177-1.114 1.626-1.348.479-.244 1.079-.366 1.802-.366 1.611 0 2.886.703 3.823 2.11 1.035-1.407 2.437-2.11 4.204-2.11 3.213 0 4.82 1.948 4.82 5.845V25h-3.311v-7.925c0-1.367-.166-2.334-.498-2.9-.342-.576-.903-.865-1.684-.865-.909 0-1.573.342-1.993 1.026-.41.684-.615 1.782-.615 3.296V25h-3.31v-7.88c0-2.54-.733-3.81-2.198-3.81-.927 0-1.606.347-2.036 1.04-.42.694-.63 1.788-.63 3.282V25h-3.296V10.732zm36.724 7.91h-10.225c.088 1.172.469 2.105 1.143 2.798.674.684 1.538 1.026 2.593 1.026.82 0 1.499-.196 2.036-.586.527-.39 1.128-1.113 1.802-2.168l2.783 1.553c-.43.732-.884 1.362-1.362 1.89a7.559 7.559 0 01-1.539 1.288 6.277 6.277 0 01-1.772.733 8.63 8.63 0 01-2.065.234c-2.129 0-3.838-.683-5.127-2.05-1.289-1.378-1.934-3.204-1.934-5.48 0-2.255.625-4.081 1.875-5.478 1.26-1.377 2.93-2.065 5.01-2.065 2.099 0 3.76.669 4.98 2.007 1.211 1.328 1.817 3.169 1.817 5.522l-.015.777zm-3.384-2.695c-.459-1.757-1.567-2.636-3.325-2.636-.4 0-.776.063-1.128.19a3.12 3.12 0 00-.967.527 3.293 3.293 0 00-.732.82 3.865 3.865 0 00-.469 1.1h6.621zm7.002-5.215h3.296v1.275c.606-.635 1.143-1.07 1.611-1.304.479-.244 1.045-.366 1.7-.366.869 0 1.777.283 2.724.85l-1.509 3.017c-.625-.45-1.235-.674-1.831-.674-1.796 0-2.695 1.358-2.695 4.072V25h-3.296V10.732zm10.283 7.032c0-2.06.738-3.814 2.212-5.26 1.475-1.444 3.272-2.167 5.391-2.167 2.129 0 3.935.728 5.42 2.183 1.465 1.455 2.197 3.242 2.197 5.36 0 2.14-.737 3.931-2.212 5.377-1.484 1.435-3.305 2.153-5.464 2.153-2.138 0-3.93-.732-5.376-2.197-1.445-1.445-2.168-3.262-2.168-5.45zm3.37.058c0 1.426.38 2.554 1.142 3.384.781.84 1.812 1.26 3.091 1.26 1.289 0 2.319-.415 3.091-1.245.771-.83 1.157-1.939 1.157-3.326 0-1.386-.386-2.495-1.157-3.325-.782-.84-1.812-1.26-3.091-1.26-1.26 0-2.28.42-3.062 1.26-.781.84-1.171 1.924-1.171 3.252zM358.446.26h3.311V25h-3.311v-1.494c-1.298 1.27-2.768 1.904-4.409 1.904-1.953 0-3.574-.713-4.863-2.139-1.279-1.455-1.919-3.271-1.919-5.449 0-2.129.64-3.906 1.919-5.332 1.27-1.435 2.866-2.153 4.79-2.153 1.67 0 3.164.684 4.482 2.05V.26zm-7.822 17.563c0 1.367.366 2.48 1.099 3.34.752.87 1.699 1.304 2.842 1.304 1.22 0 2.207-.42 2.959-1.26.752-.87 1.128-1.973 1.128-3.31 0-1.338-.376-2.442-1.128-3.311-.752-.85-1.729-1.275-2.93-1.275-1.133 0-2.08.43-2.842 1.29-.752.869-1.128 1.943-1.128 3.222zm28.286.82h-10.224c.088 1.172.468 2.105 1.142 2.798.674.684 1.538 1.026 2.593 1.026.82 0 1.499-.196 2.036-.586.528-.39 1.128-1.113 1.802-2.168l2.783 1.553c-.43.732-.884 1.362-1.362 1.89a7.554 7.554 0 01-1.538 1.288 6.295 6.295 0 01-1.773.733 8.624 8.624 0 01-2.065.234c-2.129 0-3.838-.683-5.127-2.05-1.289-1.378-1.934-3.204-1.934-5.48 0-2.255.625-4.081 1.875-5.478 1.26-1.377 2.93-2.065 5.01-2.065 2.1 0 3.76.669 4.981 2.007 1.211 1.328 1.816 3.169 1.816 5.522l-.015.777zm-3.383-2.695c-.459-1.757-1.568-2.636-3.326-2.636-.4 0-.776.063-1.128.19a3.114 3.114 0 00-.966.527 3.277 3.277 0 00-.733.82 3.865 3.865 0 00-.469 1.1h6.622z" fill="#fff" fill-opacity=".75"/><path d="M391.056 25l3.84-22.62h5.82l4.53 12.06 4.5-12.06h5.82l3.84 22.62h-5.85l-1.95-13.02-5.34 13.02h-2.34l-5.07-13.02-1.95 13.02h-5.85zm41.995-9.93c-.18-.76-.55-1.37-1.11-1.83-.56-.46-1.24-.69-2.04-.69-.84 0-1.53.22-2.07.66-.52.44-.85 1.06-.99 1.86h6.21zm-6.36 3.15c0 2.34 1.1 3.51 3.3 3.51 1.18 0 2.07-.48 2.67-1.44h5.25c-1.06 3.52-3.71 5.28-7.95 5.28-1.3 0-2.49-.19-3.57-.57-1.08-.4-2.01-.96-2.79-1.68a7.519 7.519 0 01-1.77-2.58c-.42-1-.63-2.12-.63-3.36 0-1.28.2-2.43.6-3.45.4-1.04.97-1.92 1.71-2.64.74-.72 1.63-1.27 2.67-1.65 1.06-.4 2.25-.6 3.57-.6 1.3 0 2.47.2 3.51.6 1.04.38 1.92.94 2.64 1.68.72.74 1.27 1.65 1.65 2.73.38 1.06.57 2.26.57 3.6v.57h-11.43zm19.573-.96c0 .5.09.97.27 1.41.18.42.42.79.72 1.11.32.32.69.57 1.11.75.44.18.91.27 1.41.27.48 0 .93-.09 1.35-.27.44-.18.81-.43 1.11-.75.32-.32.57-.69.75-1.11.2-.42.3-.87.3-1.35 0-.48-.1-.93-.3-1.35-.18-.44-.43-.82-.75-1.14-.3-.32-.67-.57-1.11-.75a3.39 3.39 0 00-1.35-.27c-.48 0-.94.09-1.38.27-.42.18-.79.43-1.11.75-.3.32-.55.69-.75 1.11-.18.4-.27.84-.27 1.32zM453.104.1h5.46V25h-5.46v-1.71c-1.16 1.46-2.73 2.19-4.71 2.19-1.12 0-2.15-.21-3.09-.63-.94-.42-1.76-1-2.46-1.74s-1.25-1.61-1.65-2.61c-.38-1-.57-2.08-.57-3.24 0-1.1.18-2.14.54-3.12.38-1 .91-1.87 1.59-2.61.68-.74 1.49-1.32 2.43-1.74.96-.44 2.01-.66 3.15-.66 1.92 0 3.51.67 4.77 2.01V.1zm14.586 9.51V25h-5.43V9.61h5.43zM461.9 3.7c0-.42.08-.81.24-1.17.16-.38.38-.71.66-.99s.6-.5.96-.66c.38-.16.78-.24 1.2-.24.42 0 .81.08 1.17.24.38.16.71.38.99.66s.5.61.66.99c.16.36.24.75.24 1.17 0 .42-.08.82-.24 1.2-.16.36-.38.68-.66.96-.28.28-.61.5-.99.66-.36.16-.75.24-1.17.24-.42 0-.82-.08-1.2-.24-.36-.16-.68-.38-.96-.66-.28-.28-.5-.6-.66-.96-.16-.38-.24-.78-.24-1.2zm21.11 10.89c-.94-.64-1.89-.96-2.85-.96-.52 0-1.01.09-1.47.27-.44.18-.83.44-1.17.78a3.5 3.5 0 00-.81 1.17c-.18.44-.27.94-.27 1.5 0 .54.09 1.04.27 1.5.2.44.46.83.78 1.17.34.32.74.57 1.2.75.46.18.95.27 1.47.27 1.02 0 1.97-.35 2.85-1.05v4.62c-1.34.58-2.61.87-3.81.87a9.12 9.12 0 01-3.21-.57c-1-.38-1.89-.92-2.67-1.62a8.38 8.38 0 01-1.83-2.55c-.46-1-.69-2.11-.69-3.33 0-1.22.22-2.33.66-3.33a7.805 7.805 0 011.8-2.61 7.87 7.87 0 012.7-1.71c1.06-.42 2.19-.63 3.39-.63 1.32 0 2.54.28 3.66.84v4.62zm8.137 2.67c0 .5.09.97.27 1.41.18.42.42.79.72 1.11.32.32.69.57 1.11.75.44.18.91.27 1.41.27.48 0 .93-.09 1.35-.27.44-.18.81-.43 1.11-.75.32-.32.57-.69.75-1.11.2-.42.3-.87.3-1.35 0-.48-.1-.93-.3-1.35-.18-.44-.43-.82-.75-1.14-.3-.32-.67-.57-1.11-.75a3.39 3.39 0 00-1.35-.27c-.5 0-.97.09-1.41.27-.42.18-.79.43-1.11.75-.3.32-.54.69-.72 1.11-.18.4-.27.84-.27 1.32zm6.84-7.65h5.46V25h-5.46v-1.71c-1.16 1.46-2.73 2.19-4.71 2.19-1.12 0-2.15-.2-3.09-.6-.94-.42-1.76-1-2.46-1.74s-1.25-1.61-1.65-2.61c-.38-1-.57-2.09-.57-3.27 0-1.1.19-2.14.57-3.12.38-1 .91-1.87 1.59-2.61.68-.74 1.49-1.32 2.43-1.74.94-.44 1.98-.66 3.12-.66 1.92 0 3.51.67 4.77 2.01V9.61zm9.155 0h5.43v2.52c.58-.92 1.29-1.62 2.13-2.1.84-.5 1.82-.75 2.94-.75h.45c.18 0 .38.02.6.06v5.19a5.16 5.16 0 00-2.34-.54c-1.26 0-2.21.38-2.85 1.14-.62.74-.93 1.83-.93 3.27V25h-5.43V9.61zm25.401 5.46c-.18-.76-.55-1.37-1.11-1.83-.56-.46-1.24-.69-2.04-.69-.84 0-1.53.22-2.07.66-.52.44-.85 1.06-.99 1.86h6.21zm-6.36 3.15c0 2.34 1.1 3.51 3.3 3.51 1.18 0 2.07-.48 2.67-1.44h5.25c-1.06 3.52-3.71 5.28-7.95 5.28-1.3 0-2.49-.19-3.57-.57-1.08-.4-2.01-.96-2.79-1.68a7.519 7.519 0 01-1.77-2.58c-.42-1-.63-2.12-.63-3.36 0-1.28.2-2.43.6-3.45.4-1.04.97-1.92 1.71-2.64.74-.72 1.63-1.27 2.67-1.65 1.06-.4 2.25-.6 3.57-.6 1.3 0 2.47.2 3.51.6 1.04.38 1.92.94 2.64 1.68.72.74 1.27 1.65 1.65 2.73.38 1.06.57 2.26.57 3.6v.57h-11.43zm14.264 3.9c0-.48.09-.93.27-1.35.18-.44.43-.82.75-1.14.32-.32.69-.57 1.11-.75.44-.18.9-.27 1.38-.27.48 0 .93.09 1.35.27.44.18.82.43 1.14.75.32.32.57.7.75 1.14.18.42.27.87.27 1.35 0 .48-.09.94-.27 1.38-.18.42-.43.79-.75 1.11-.32.32-.7.57-1.14.75-.42.18-.87.27-1.35.27-.48 0-.94-.09-1.38-.27a3.51 3.51 0 01-1.86-1.86c-.18-.44-.27-.9-.27-1.38z" fill="#fff"/></svg>