<svg width="758" height="34" viewBox="0 0 758 34" fill="none" xmlns="http://www.w3.org/2000/svg"><path d="M.2 28V2.08h6.6l8.24 11.48c.6.8 1.16 1.96 1.16 1.96V2.08h7.6V28h-6.6L8.96 16.72c-.6-.8-1.16-1.96-1.16-1.96V28H.2zm34.648.4c-6.16 0-7.44-3.84-7.44-9.04V7.56h7.28v10.88c0 2.16.72 3.16 2.64 3.16 2.2 0 3-1.88 3-4.4V7.56h7.28V28h-6.88v-2.24c-1.12 1.44-3.76 2.64-5.88 2.64zM50.81 28V7.56h6.88v2.36c1.88-2.2 4.12-2.76 6.16-2.76 5.16 0 7.16 3.04 7.16 9.04V28h-7.28V17.12c0-2.32-.88-3.16-2.28-3.16-2.24 0-3.36 1.88-3.36 4.4V28h-7.28zm33.843.4c-6.28 0-11.04-4.72-11.04-10.6 0-5.92 4.76-10.64 11.04-10.64 2.8 0 5.08.84 7.24 2.56l-4.2 5.04c-.76-.72-1.6-1.2-2.84-1.2-2.36 0-3.88 1.8-3.88 4.24 0 2.48 1.48 4.2 4.04 4.2 1.4 0 2.56-.6 3.44-1.48l3.64 5.36c-1.96 1.64-4.56 2.52-7.44 2.52zm17.173 0c-5.68 0-8.76-4.72-8.76-10.6 0-5.92 3.08-10.64 8.76-10.64 1.64 0 4.36.56 5.56 2.68V7.56h6.88V28h-6.88v-2.28c-1.12 2.08-3.92 2.68-5.56 2.68zm1.92-6.4c1.92 0 3.28-1.72 3.28-4.2 0-2.44-1.36-4.24-3.28-4.24-1.92 0-3.28 1.8-3.28 4.24 0 2.48 1.36 4.2 3.28 4.2zm33.212 6.4c-6.28 0-11.04-4.72-11.04-10.6 0-5.92 4.76-10.64 11.04-10.64 2.8 0 5.08.84 7.24 2.56l-4.2 5.04c-.76-.72-1.6-1.2-2.84-1.2-2.36 0-3.88 1.8-3.88 4.24 0 2.48 1.48 4.2 4.04 4.2 1.4 0 2.56-.6 3.44-1.48l3.64 5.36c-1.96 1.64-4.56 2.52-7.44 2.52zm19.453 0c-6.28 0-11.04-4.72-11.04-10.6 0-5.92 4.76-10.64 11.04-10.64 6.28 0 11.04 4.72 11.04 10.64 0 5.88-4.76 10.6-11.04 10.6zm0-6.4c2.16 0 3.68-1.72 3.68-4.2 0-2.44-1.52-4.24-3.68-4.24s-3.68 1.8-3.68 4.24c0 2.48 1.52 4.2 3.68 4.2zm13.852 6V7.56h6.88V9.8c1.52-1.72 3.88-2.64 6.16-2.64 3.28 0 5.04 1.32 6 3.16 1.76-2.56 4.48-3.16 6.52-3.16 6.6 0 7.16 5.32 7.16 9.44V28h-7.28V17.44c0-2.44-.68-3.56-2.28-3.56-2.16 0-3.16 1.96-3.16 4.48V28h-7.28V17.44c0-2.44-.68-3.56-2.28-3.56-2.16 0-3.16 1.96-3.16 4.48V28h-7.28zm35.703 5.88V7.56h6.88v2.28c1.64-2.2 3.92-2.68 5.56-2.68 5.68 0 8.76 4.72 8.76 10.6 0 5.92-3.28 10.64-9 10.64-1.64 0-3.68-.56-4.92-2.12v7.6h-7.28zM216.447 22c1.92 0 3.28-1.72 3.28-4.2 0-2.44-1.36-4.24-3.28-4.24-1.92 0-3.28 1.8-3.28 4.24 0 2.48 1.36 4.2 3.28 4.2zm21.865 6.4c-5.68 0-8.76-4.72-8.76-10.6 0-5.92 3.08-10.64 8.76-10.64 1.64 0 4.36.56 5.56 2.68V7.56h6.88V28h-6.88v-2.28c-1.12 2.08-3.92 2.68-5.56 2.68zm1.92-6.4c1.92 0 3.28-1.72 3.28-4.2 0-2.44-1.36-4.24-3.28-4.24-1.92 0-3.28 1.8-3.28 4.24 0 2.48 1.36 4.2 3.28 4.2zm13.704 6V7.56h7.08v3.64c.12-.88 1.88-4.04 6.68-4.04v7.92c-5.28 0-6.48 2.2-6.48 6.04V28h-7.28zm25.113.4c-3.92 0-6.48-2.52-6.48-7v-8.08h-3V7.56h3V3.88l7.28-1.8v5.48h4.52v5.76h-4.52v7.52c0 .96.48 1.28 1.12 1.28.6 0 1.32-.28 1.84-.64l1.96 5.32c-1.76 1.24-3.92 1.6-5.72 1.6zm15.981 0c-5.68 0-8.76-4.72-8.76-10.6 0-5.92 3.08-10.64 8.76-10.64 1.64 0 4.36.56 5.56 2.68V7.56h6.88V28h-6.88v-2.28c-1.12 2.08-3.92 2.68-5.56 2.68zm1.92-6.4c1.92 0 3.28-1.72 3.28-4.2 0-2.44-1.36-4.24-3.28-4.24-1.92 0-3.28 1.8-3.28 4.24 0 2.48 1.36 4.2 3.28 4.2zm21.225 6.4c-4.68 0-7.28-1.4-8.48-2.44l2.32-5.12c1.6 1.08 3.08 1.72 6.2 1.72.08 0 2-.12 2-.92 0-.64-1.2-.76-2.4-1.04-4.44-1.08-7.72-2.88-7.72-6.64 0-4.48 4.08-6.8 8.4-6.8 3.96 0 6.32.88 8.28 1.92l-2.16 4.88c-2.36-.92-4.52-1.2-5.88-1.2-.72 0-1.28.24-1.28.64 0 .76 1.72 1.04 3.76 1.6 2.88.84 6.36 2.24 6.36 6.36 0 5.48-5.56 7.04-9.4 7.04zm28.124 0c-3.44 0-5.48-1.68-5.48-6.24V11.04h-2.92V8.52h2.92v-4.2l3.04-.56v4.76h6.64v2.52h-6.64v11.2c0 2.68 1.16 3.44 2.72 3.44 1.8 0 3.2-1.08 3.2-1.08l1 2.36c-.76.52-2.36 1.44-4.48 1.44zm14.849 0c-4.8 0-7.08-2.52-7.08-7.72V8.52h3.04v11.76c0 3.64 1.76 5.16 4.92 5.16 3.52 0 5.56-2.88 5.56-5.88V8.52h3.04V28h-2.92v-3.44c-1.2 2.52-4 3.84-6.56 3.84zm23.318-.4V8.52h3.04v3.32c1.36-2.36 3.88-3.72 6.76-3.72 4.88 0 7.04 2.96 7.04 8.08V28h-3.04V16.6c0-3.6-1.32-5.52-4.84-5.52-3.48 0-5.92 2.72-5.92 5.96V28h-3.04zm27.321-22.6l3.24-5.32h3.32l-3.76 5.32h-2.8zm1.08 23c-4.8 0-7.08-2.52-7.08-7.72V8.52h3.04v11.76c0 3.64 1.76 5.16 4.92 5.16 3.52 0 5.56-2.88 5.56-5.88V8.52h3.04V28h-2.92v-3.44c-1.2 2.52-4 3.84-6.56 3.84zm14.607-.4V8.52h3.04v3.36c1.08-2.12 3.52-3.76 6.24-3.76 3.12 0 5.32 1.36 6.24 4.12 1.4-2.84 4.44-4.12 6.72-4.12 4.68 0 7.16 2.72 7.16 8.08V28h-3.08V16.6c0-3.32-1.16-5.52-4.72-5.52-3.28 0-5.36 2.64-5.36 5.56V28h-3.08V16.6c0-3.32-1.16-5.52-4.68-5.52-3.4 0-5.44 2.88-5.44 5.72V28h-3.04zm43.541.4c-5.52 0-10.2-3.96-10.2-10.12 0-5.64 4.24-10.16 9.8-10.16 5.2 0 9.32 4.48 9.32 10.04 0 .56-.08 1.16-.08 1.2h-15.88c.48 3.88 3.48 6.32 7.08 6.32 2.2 0 4.4-.76 6-2.08l1.32 2.24a11.92 11.92 0 01-7.36 2.56zm-7.04-11.36h12.96c-.32-3.6-3.08-6.2-6.48-6.2-3.32 0-6.04 2.56-6.48 6.2zM484.271 28V8.52h3.04v4.12c1.12-2.56 3.64-4.52 7.52-4.52v3.32c-4.56 0-7.52 2.56-7.52 7.32V28h-3.04zm23.112.4c-5.72 0-10.24-4.48-10.24-10.12 0-5.68 4.52-10.16 10.24-10.16 5.72 0 10.24 4.48 10.24 10.16 0 5.64-4.52 10.12-10.24 10.12zm0-2.96c4.04 0 7.12-3.08 7.12-7.16 0-4.12-3.08-7.2-7.12-7.2s-7.12 3.08-7.12 7.2c0 4.08 3.08 7.16 7.12 7.16zm31.655 2.96c-5.4 0-9.2-4.48-9.2-10.12 0-5.72 3.8-10.16 9.2-10.16 3.12 0 5.88 1.28 7.32 3.8V1.68h3.04V28h-2.92v-3.4c-1.44 2.56-4.28 3.8-7.44 3.8zm.68-2.96c3.72 0 6.64-3.08 6.64-7.16s-2.92-7.2-6.64-7.2c-3.88 0-6.76 3.04-6.76 7.2 0 4.12 2.88 7.16 6.76 7.16zm24.187 2.96c-5.52 0-10.2-3.96-10.2-10.12 0-5.64 4.24-10.16 9.8-10.16 5.2 0 9.32 4.48 9.32 10.04 0 .56-.08 1.16-.08 1.2h-15.88c.48 3.88 3.48 6.32 7.08 6.32 2.2 0 4.4-.76 6-2.08l1.32 2.24a11.92 11.92 0 01-7.36 2.56zm-7.04-11.36h12.96c-.32-3.6-3.08-6.2-6.48-6.2-3.32 0-6.04 2.56-6.48 6.2zM586.353 28V2.08h2.839l6.321 8.8c1.36 1.92 4.2 6 4.2 6s2.84-4.04 4.2-5.96l6.32-8.84h2.84V28h-3.2V7.48s-.68 1.24-1.92 2.96l-8.24 11.6-8.28-11.68c-1.16-1.64-1.88-2.88-1.88-2.88V28h-3.2zm41.693.4c-5.52 0-10.2-3.96-10.2-10.12 0-5.64 4.24-10.16 9.8-10.16 5.2 0 9.32 4.48 9.32 10.04 0 .56-.08 1.16-.08 1.2h-15.88c.48 3.88 3.48 6.32 7.08 6.32 2.2 0 4.4-.76 6-2.08l1.32 2.24a11.92 11.92 0 01-7.36 2.56zm-7.04-11.36h12.96c-.32-3.6-3.08-6.2-6.48-6.2-3.32 0-6.04 2.56-6.48 6.2zm28.696 11.36c-5.4 0-9.2-4.48-9.2-10.12 0-5.72 3.8-10.16 9.2-10.16 3.12 0 5.88 1.28 7.32 3.8V1.68h3.04V28h-2.92v-3.4c-1.44 2.56-4.28 3.8-7.44 3.8zm.68-2.96c3.72 0 6.64-3.08 6.64-7.16s-2.92-7.2-6.64-7.2c-3.88 0-6.76 3.04-6.76 7.2 0 4.12 2.88 7.16 6.76 7.16zM665.169 28V8.52h3.04V28h-3.04zm1.52-22.96c-1.12 0-2-.88-2-2s.88-2.04 2-2.04 2.04.92 2.04 2.04-.92 2-2.04 2zm16.084 23.36c-5.72 0-10.24-4.44-10.24-10.12 0-5.68 4.52-10.16 10.24-10.16 2.68 0 5.12.96 6.96 2.6l-1.92 2.16c-1.2-1.12-2.96-1.8-5-1.8-4.08 0-7.16 3.04-7.16 7.2 0 4.04 2.96 7.16 7.24 7.16 2.2 0 4.2-.84 5.56-2.2l1.76 2.28c-1.88 1.8-4.52 2.88-7.44 2.88zm19.039 0c-5.4 0-9.2-4.48-9.2-10.12 0-5.72 3.8-10.16 9.2-10.16 3.12 0 5.88 1.28 7.32 3.8v-3.4h3.04V28h-3.04v-3.4c-1.44 2.56-4.2 3.8-7.32 3.8zm.68-2.96c3.72 0 6.64-3.08 6.64-7.16s-2.92-7.2-6.64-7.2c-3.88 0-6.76 3.04-6.76 7.2 0 4.12 2.88 7.16 6.76 7.16zM717.279 28V8.52h3.04v4.12c1.12-2.56 3.64-4.52 7.52-4.52v3.32c-4.56 0-7.52 2.56-7.52 7.32V28h-3.04zm23.072.4c-5.52 0-10.2-3.96-10.2-10.12 0-5.64 4.24-10.16 9.8-10.16 5.2 0 9.32 4.48 9.32 10.04 0 .56-.08 1.16-.08 1.2h-15.88c.48 3.88 3.48 6.32 7.08 6.32 2.2 0 4.4-.76 6-2.08l1.32 2.24a11.92 11.92 0 01-7.36 2.56zm-7.04-11.36h12.96c-.32-3.6-3.08-6.2-6.48-6.2-3.32 0-6.04 2.56-6.48 6.2zm21.776 11.36c-1.2 0-2.08-.96-2.08-2.12 0-1.16.92-2.12 2.08-2.12 1.16 0 2.12.96 2.12 2.12 0 1.16-.96 2.12-2.12 2.12z" fill="#42443C"/></svg>