<svg width="399" height="35" viewBox="0 0 399 35" fill="none" xmlns="http://www.w3.org/2000/svg"><path d="M20.08 19.107H4.643c.225 1.38.819 2.478 1.786 3.29.966.816 2.203 1.222 3.705 1.222 1.795 0 3.339-.637 4.63-1.908l4.047 1.925c-1.008 1.453-2.217 2.524-3.626 3.22-1.409.697-3.08 1.043-5.013 1.043-3.005 0-5.45-.959-7.338-2.88C.946 23.097 0 20.693 0 17.802s.943-5.422 2.825-7.378C4.706 8.467 7.068 7.49 9.91 7.49c3.015 0 5.466.98 7.355 2.933 1.889 1.956 2.835 4.54 2.835 7.752l-.017.928-.004.003zm-4.804-3.836a4.87 4.87 0 00-1.878-2.639c-.936-.679-2.017-1.018-3.253-1.018-1.34 0-2.514.381-3.526 1.14-.635.477-1.222 1.313-1.764 2.517h10.421zM35.059 10.703l-2.973 3.014c-1.209-1.215-2.307-1.82-3.29-1.82-.54 0-.964.115-1.268.346-.307.231-.456.522-.456.865 0 .262.097.504.29.72.194.221.67.522 1.433.9l1.761.893c1.855.927 3.129 1.872 3.82 2.835.69.962 1.039 2.093 1.039 3.388 0 1.725-.625 3.164-1.875 4.315-1.25 1.155-2.925 1.73-5.024 1.73-2.794 0-5.021-1.107-6.689-3.319l2.956-3.265a6.846 6.846 0 001.978 1.613c.757.41 1.43.616 2.017.616.635 0 1.143-.154 1.53-.462.386-.308.58-.665.58-1.07 0-.75-.698-1.481-2.093-2.195l-1.62-.82c-3.097-1.581-4.643-3.562-4.643-5.939 0-1.533.583-2.845 1.75-3.934 1.167-1.088 2.662-1.63 4.479-1.63 1.243 0 2.413.276 3.512.829 1.097.553 2.026 1.347 2.79 2.38l-.004.01zM40.087 22.315c.763 0 1.416.27 1.954.812a2.69 2.69 0 01.808 1.97c0 .774-.269 1.436-.808 1.982a2.646 2.646 0 01-1.954.819 2.652 2.652 0 01-1.955-.82 2.72 2.72 0 01-.807-1.98c0-.774.269-1.432.807-1.97a2.653 2.653 0 011.955-.813zM50.587 1.162h4.8l6.005 18.305 6.056-18.305h4.8l4.347 26.242h-4.761l-2.777-16.572-5.504 16.572h-4.347l-5.45-16.572-2.84 16.572h-4.811l4.482-26.242zM98.991 19.111H83.556c.221 1.383.818 2.478 1.785 3.293.967.812 2.203 1.222 3.709 1.222 1.795 0 3.339-.637 4.63-1.911l4.05 1.928c-1.008 1.45-2.216 2.527-3.629 3.224-1.408.696-3.08 1.043-5.017 1.043-3.004 0-5.449-.96-7.34-2.88-1.89-1.922-2.836-4.327-2.836-7.214 0-2.887.94-5.421 2.825-7.374 1.885-1.953 4.247-2.933 7.085-2.933 3.015 0 5.466.98 7.355 2.932 1.89 1.96 2.835 4.54 2.835 7.75l-.017.927h-.007l.007-.007zm-4.807-3.836c-.317-1.082-.946-1.963-1.878-2.639-.936-.679-2.017-1.018-3.253-1.018-1.34 0-2.514.381-3.529 1.14-.635.477-1.226 1.317-1.764 2.517h10.424zM116.584.498h4.807v26.9h-4.807v-2.05c-.939.903-1.878 1.557-2.821 1.953a7.84 7.84 0 01-3.07.598c-2.472 0-4.61-.973-6.415-2.915-1.806-1.943-2.711-4.361-2.711-7.252s.87-5.453 2.621-7.371c1.747-1.915 3.864-2.874 6.364-2.874 1.15 0 2.227.22 3.235.658 1.008.438 1.937 1.103 2.794 1.981V.498h.003zm-5.055 11.49c-1.485 0-2.721.529-3.702 1.596-.98 1.064-1.474 2.43-1.474 4.095 0 1.666.5 3.056 1.498 4.137.998 1.082 2.228 1.62 3.692 1.62s2.762-.528 3.753-1.595c.995-1.064 1.488-2.457 1.488-4.186 0-1.73-.497-3.056-1.488-4.106-.994-1.043-2.248-1.568-3.771-1.568v.007h.004zM128.186 0c.839 0 1.564.311 2.165.927.601.62.905 1.369.905 2.247 0 .879-.301 1.61-.898 2.223-.597.609-1.309.92-2.137.92a2.958 2.958 0 01-2.186-.938c-.601-.626-.905-1.382-.905-2.275 0-.892.297-1.589.891-2.194.597-.606 1.316-.91 2.158-.91h.007zm-2.403 7.99h4.806v19.408h-4.806V7.99zM153.556 11.92l-3.998 2.233c-.75-.798-1.495-1.347-2.228-1.659-.735-.311-1.595-.465-2.582-.465-1.796 0-3.253.539-4.362 1.627-1.108 1.085-1.664 2.478-1.664 4.176 0 1.697.532 2.996 1.606 4.046 1.067 1.043 2.472 1.568 4.212 1.568 2.148 0 3.823-.746 5.021-2.233l3.785 2.628c-2.055 2.71-4.952 4.064-8.699 4.064-3.37 0-6.004-1.012-7.91-3.035-1.906-2.023-2.863-4.389-2.863-7.101 0-1.88.466-3.609 1.388-5.19.929-1.58 2.224-2.825 3.881-3.732 1.658-.903 3.519-1.354 5.57-1.354 1.903 0 3.608.385 5.121 1.151a9.705 9.705 0 013.712 3.276v.007l.01-.007zM170.254 7.99h4.807v19.407h-4.807v-2.05c-.939.902-1.878 1.557-2.821 1.952a7.84 7.84 0 01-3.069.599c-2.473 0-4.61-.973-6.416-2.915-1.806-1.943-2.711-4.361-2.711-7.253 0-2.89.87-5.452 2.621-7.37 1.747-1.915 3.864-2.874 6.364-2.874 1.15 0 2.227.22 3.235.658 1.009.438 1.938 1.103 2.794 1.981V7.983v.007h.003zm-5.055 3.997c-1.485 0-2.721.528-3.701 1.596-.981 1.064-1.475 2.429-1.475 4.095s.501 3.055 1.499 4.137c.998 1.081 2.227 1.62 3.691 1.62s2.762-.528 3.753-1.595c.995-1.064 1.489-2.457 1.489-4.186 0-1.73-.498-3.056-1.489-4.106-.994-1.043-2.248-1.568-3.77-1.568v.007h.003zM179.138 7.99h4.12v2.446c.442-.962 1.039-1.697 1.778-2.194a4.26 4.26 0 012.427-.75c.622 0 1.275.165 1.955.498l-1.495 4.19c-.567-.284-1.026-.428-1.388-.428-.739 0-1.364.466-1.875 1.393-.511.928-.767 2.748-.767 5.46l.017.949v7.85h-4.768V7.99h-.007.003zM209.985 19.111H194.55c.221 1.383.818 2.478 1.785 3.293.967.812 2.203 1.222 3.708 1.222 1.796 0 3.339-.637 4.631-1.911l4.05 1.928c-1.008 1.45-2.217 2.527-3.629 3.224-1.409.696-3.08 1.043-5.017 1.043-3.004 0-5.449-.96-7.341-2.88-1.889-1.922-2.835-4.327-2.835-7.214 0-2.887.939-5.421 2.824-7.374 1.886-1.953 4.248-2.933 7.086-2.933 3.014 0 5.466.98 7.355 2.932 1.889 1.96 2.835 4.54 2.835 7.75l-.017.927h-.007l.007-.007zm-4.807-3.836c-.318-1.082-.946-1.963-1.879-2.639-.932-.675-2.016-1.018-3.252-1.018-1.34 0-2.514.381-3.529 1.14-.636.477-1.226 1.317-1.765 2.517h10.425zM214.936 22.32c.76 0 1.416.272 1.955.811.538.54.808 1.2.808 1.97s-.27 1.436-.808 1.982a2.653 2.653 0 01-1.955.819 2.652 2.652 0 01-1.954-.82 2.712 2.712 0 01-.808-1.98c0-.777.269-1.428.808-1.97a2.673 2.673 0 011.954-.813zM235.32 7.99h4.789v16.626c0 3.28-.649 5.694-1.954 7.241-1.747 2.093-4.382 3.143-7.904 3.143-1.879 0-3.453-.234-4.738-.71-1.277-.477-2.361-1.173-3.235-2.097-.881-.92-1.53-2.044-1.955-3.36h5.297c.47.546 1.071.96 1.813 1.243.739.28 1.616.416 2.625.416 1.288 0 2.327-.203 3.114-.605.787-.406 1.34-.928 1.665-1.568.321-.644.486-1.75.486-3.318-.846.857-1.733 1.473-2.655 1.848-.929.374-1.975.563-3.153.563-2.572 0-4.741-.938-6.512-2.82-1.768-1.88-2.655-4.257-2.655-7.137 0-3.077.939-5.555 2.814-7.424 1.699-1.687 3.733-2.53 6.088-2.53a7.96 7.96 0 013.125.616c.98.413 1.964 1.085 2.945 2.023V7.99zm-4.979 4.054c-1.516 0-2.763.514-3.75 1.54-.988 1.029-1.478 2.324-1.478 3.881 0 1.558.507 2.944 1.516 3.976 1.008 1.033 2.275 1.55 3.801 1.55 1.527 0 2.721-.503 3.685-1.515.967-1.011 1.454-2.338 1.454-3.976s-.487-2.933-1.465-3.944c-.97-1.012-2.227-1.516-3.763-1.516v.004zM253.662 7.494c1.806 0 3.505.462 5.097 1.376 1.589.917 2.832 2.156 3.722 3.73a10.129 10.129 0 011.337 5.086c0 1.82-.449 3.542-1.347 5.138-.898 1.596-2.123 2.842-3.67 3.735-1.547.9-3.26 1.347-5.121 1.347-2.745 0-5.09-.99-7.034-2.971s-2.914-4.382-2.914-7.214c0-3.034 1.098-5.561 3.29-7.584 1.924-1.76 4.134-2.64 6.637-2.64l.007-.006-.004.003zm.08 4.589c-1.495 0-2.735.525-3.729 1.578-.995 1.054-1.489 2.398-1.489 4.043s.491 3.055 1.475 4.105c.98 1.05 2.224 1.568 3.729 1.568 1.506 0 2.756-.528 3.754-1.589.997-1.06 1.498-2.418 1.498-4.084 0-1.666-.49-3.02-1.474-4.057-.981-1.04-2.234-1.564-3.764-1.564zM264.3 7.991h4.896l4.838 11.456 4.828-11.456h4.868L275.581 27.4h-3.115L264.297 7.99h.007-.004z" fill="#FAF2DE"/><path d="M284.498 32.102L296.186.249h3.457l-11.709 31.853h-3.436zM304.657 1.002h14.337v4.9h-9.417v4.791h6.119v4.827h-6.119v11.879h-4.92V.999v.003zM321.521 7.876h4.144v2.457c.449-.97 1.046-1.705 1.788-2.209a4.26 4.26 0 012.445-.752c.625 0 1.281.168 1.965.504l-1.506 4.217c-.566-.287-1.032-.43-1.398-.43-.743 0-1.371.465-1.886 1.4-.514.934-.77 2.765-.77 5.491l.018.952v7.896h-4.797V7.876h-.003zM348.468 7.876h4.834v19.526h-4.834v-2.065c-.942.91-1.889 1.565-2.838 1.964-.95.402-1.979.602-3.087.602-2.486 0-4.641-.977-6.454-2.933-1.816-1.957-2.724-4.39-2.724-7.294 0-2.905.877-5.485 2.634-7.413 1.758-1.925 3.892-2.891 6.402-2.891 1.157 0 2.241.22 3.253.665 1.015.444 1.951 1.106 2.811 1.991V7.876h.003zm-5.079 4.021c-1.495 0-2.735.536-3.722 1.607-.988 1.07-1.482 2.443-1.482 4.12 0 1.676.504 3.076 1.509 4.164 1.005 1.089 2.245 1.635 3.716 1.635s2.776-.536 3.777-1.607c1.002-1.07 1.499-2.474 1.499-4.207 0-1.732-.501-3.073-1.499-4.126-1.001-1.054-2.265-1.579-3.795-1.579l-.003-.007zM358.171 7.874h4.886v9.404c0 1.83.124 3.101.373 3.815.249.71.649 1.267 1.198 1.659.549.392 1.226.591 2.034.591.808 0 1.488-.195 2.051-.584.563-.389.981-.959 1.25-1.715.2-.564.301-1.764.301-3.608V7.87h4.834v8.274c0 3.409-.266 5.744-.798 7-.649 1.533-1.606 2.706-2.869 3.528-1.264.819-2.87 1.229-4.817 1.229-2.114 0-3.823-.48-5.125-1.436-1.305-.955-2.22-2.292-2.752-4-.376-1.183-.566-3.339-.566-6.461v-8.13zM394.166.336H399v27.061h-4.834v-2.065c-.943.91-1.889 1.565-2.839 1.964-.949.402-1.978.602-3.087.602-2.486 0-4.64-.977-6.453-2.933-1.817-1.957-2.725-4.39-2.725-7.294 0-2.905.877-5.485 2.635-7.413 1.757-1.925 3.891-2.891 6.402-2.891 1.157 0 2.241.22 3.253.665 1.015.444 1.95 1.106 2.81 1.992V.332l.004.004zm-5.08 11.556c-1.495 0-2.734.536-3.722 1.607-.988 1.07-1.481 2.443-1.481 4.12 0 1.676.504 3.076 1.509 4.164 1.004 1.089 2.244 1.635 3.715 1.635 1.471 0 2.776-.536 3.778-1.607 1.001-1.07 1.498-2.474 1.498-4.207 0-1.732-.5-3.073-1.498-4.126-1.002-1.054-2.265-1.579-3.795-1.579l-.004-.007z" fill="#fff"/></svg>