<svg width="803" height="37" viewBox="0 0 803 37" fill="none" xmlns="http://www.w3.org/2000/svg"><path fill="#FCD77D" d="M163 27h135v10H163z"/><path d="M2.475 33V3.84H25.65v7.245H11.025v3.555h14.04v7.155h-14.04v3.96H26.19V33H2.475zm36.25.45c-5.266 0-8.19-1.575-9.54-2.745l2.61-5.76c1.8 1.215 3.464 1.935 6.974 1.935.09 0 2.25-.135 2.25-1.035 0-.72-1.35-.855-2.7-1.17-4.995-1.215-8.685-3.24-8.685-7.47 0-5.04 4.59-7.65 9.45-7.65 4.455 0 7.11.99 9.315 2.16l-2.43 5.49c-2.655-1.035-5.085-1.35-6.615-1.35-.81 0-1.44.27-1.44.72 0 .855 1.935 1.17 4.23 1.8 3.24.945 7.155 2.52 7.155 7.155 0 6.165-6.255 7.92-10.575 7.92zm34.069 0c-6.93 0-8.37-4.32-8.37-10.17V10.005h8.19v12.24c0 2.43.81 3.555 2.97 3.555 2.475 0 3.375-2.115 3.375-4.95V10.005h8.19V33h-7.74v-2.52c-1.26 1.62-4.23 2.97-6.615 2.97zM92.102 33V10.005h7.74v2.655c2.115-2.475 4.635-3.105 6.93-3.105 5.805 0 8.055 3.42 8.055 10.17V33h-8.19V20.76c0-2.61-.99-3.555-2.565-3.555-2.52 0-3.78 2.115-3.78 4.95V33h-8.19zm36.859.45c-6.39 0-9.855-5.31-9.855-11.925 0-6.66 3.465-11.97 9.855-11.97 1.845 0 4.905.63 6.255 3.015v-2.565h7.74V33h-7.74v-2.565c-1.26 2.34-4.41 3.015-6.255 3.015zm2.16-7.2c2.16 0 3.69-1.935 3.69-4.725 0-2.745-1.53-4.77-3.69-4.77s-3.69 2.025-3.69 4.77c0 2.79 1.53 4.725 3.69 4.725zm40.558 7.2c-6.975 0-12.915-4.365-12.915-11.925 0-6.66 5.175-11.97 11.97-11.97 6.525 0 11.52 5.31 11.52 11.97 0 1.395-.18 2.655-.18 2.655h-15.255c.675 2.16 2.7 2.97 4.905 2.97 1.935 0 4.005-.585 5.445-1.395l2.745 5.535c-2.565 1.575-5.4 2.16-8.235 2.16zm-5.085-13.905h8.19c-.27-2.115-1.935-3.555-4.05-3.555-2.025 0-3.645 1.44-4.14 3.555zm28.621 13.905c-5.265 0-8.19-1.575-9.54-2.745l2.61-5.76c1.8 1.215 3.465 1.935 6.975 1.935.09 0 2.25-.135 2.25-1.035 0-.72-1.35-.855-2.7-1.17-4.995-1.215-8.685-3.24-8.685-7.47 0-5.04 4.59-7.65 9.45-7.65 4.455 0 7.11.99 9.315 2.16l-2.43 5.49c-2.655-1.035-5.085-1.35-6.615-1.35-.81 0-1.44.27-1.44.72 0 .855 1.935 1.17 4.23 1.8 3.24.945 7.155 2.52 7.155 7.155 0 6.165-6.255 7.92-10.575 7.92zm23.779 0c-4.41 0-7.29-2.835-7.29-7.875v-9.09h-3.375v-6.48h3.375v-4.14l8.19-2.025v6.165h5.085v6.48h-5.085v8.46c0 1.08.54 1.44 1.26 1.44.675 0 1.485-.315 2.07-.72l2.205 5.985c-1.98 1.395-4.41 1.8-6.435 1.8zm19.329 0c-6.39 0-9.855-5.31-9.855-11.925 0-6.66 3.465-11.97 9.855-11.97 1.845 0 4.905.63 6.255 3.015v-2.565h7.74V33h-7.74v-2.565c-1.26 2.34-4.41 3.015-6.255 3.015zm2.16-7.2c2.16 0 3.69-1.935 3.69-4.725 0-2.745-1.53-4.77-3.69-4.77s-3.69 2.025-3.69 4.77c0 2.79 1.53 4.725 3.69 4.725zM258.601 33V16.665h-3.465v-6.48h3.465v-1.44c0-5.04 2.88-7.875 7.29-7.875 2.025 0 4.455.315 6.435 1.305l-2.205 5.985c-.585-.225-1.215-.36-1.8-.36-.855 0-1.53.45-1.53 1.89v.495h4.5v6.48h-4.5V33h-8.19zm25.313.45c-6.39 0-9.855-5.31-9.855-11.925 0-6.66 3.465-11.97 9.855-11.97 1.845 0 4.905.63 6.255 3.015v-2.565h7.74V33h-7.74v-2.565c-1.26 2.34-4.41 3.015-6.255 3.015zm2.16-7.2c2.16 0 3.69-1.935 3.69-4.725 0-2.745-1.53-4.77-3.69-4.77s-3.69 2.025-3.69 4.77c0 2.79 1.53 4.725 3.69 4.725zm21.582 7.2c-2.565 0-4.455-1.935-4.455-4.41s1.89-4.41 4.455-4.41c2.61 0 4.545 1.935 4.545 4.41s-1.935 4.41-4.545 4.41z" fill="#42443C"/></svg>