<svg width="257" height="52" viewBox="0 0 257 52" fill="none" xmlns="http://www.w3.org/2000/svg"><rect x="1.555" y="1" width="254.172" height="50" rx="7" fill="#FFC332" stroke="#FFE094" stroke-width="2"/><path d="M33.722 32.747V19.139h5.67c4.557 0 7.413 3.087 7.413 6.804s-2.856 6.804-7.413 6.804h-5.67zm3.99-3.381h1.533c2.037 0 3.34-1.45 3.34-3.423 0-1.953-1.303-3.423-3.34-3.423h-1.533v6.846zm11.401 3.38V19.14h10.815v3.38h-6.825v1.66h6.552v3.339h-6.552v1.848h7.077v3.38H49.113zm16.601 0V22.52h-4.263v-3.381h12.516v3.38h-4.263v10.228h-3.99zm10.243 0V19.14h10.815v3.38h-6.825v1.66h6.552v3.339h-6.552v1.848h7.077v3.38H75.957zm3.486-14.28l2.205-3.758h3.675l-3.045 3.759h-2.835zm9.587 14.28V19.14h3.465l4.326 6.027c.315.42.61 1.029.61 1.029v-7.056h3.989v13.608h-3.465l-4.326-5.922c-.315-.42-.609-1.03-.609-1.03v6.952h-3.99zm20.2 0V19.14h10.815v3.38h-6.825v1.66h6.552v3.339h-6.552v1.848h7.077v3.38H109.23zm13.073 0V19.14h3.99v10.227h7.245v3.38h-11.235zm18.415 0V19.14h10.5v3.38h-6.51v1.66h5.691v3.339h-5.691v5.229h-3.99zm12.171 0V19.14h6.006c4.179 0 6.321 2.415 6.321 5.376 0 1.575-.714 3.192-2.142 4.179l2.541 4.053h-4.557l-1.554-2.92c-.42.043-.651.064-.987.064h-1.638v2.856h-3.99zm3.99-6.236h2.058c1.239 0 2.058-.903 2.058-1.995 0-1.113-.84-1.995-2.037-1.995h-2.079v3.99zm9.655 6.237l5.502-13.608h4.116l5.502 13.608h-4.074l-.63-1.764h-5.712l-.63 1.764h-4.074zm5.775-4.83h3.57l-1.617-4.6c-.126-.335-.147-.461-.168-.545 0 0-.042.189-.168.546l-1.617 4.599zm16.486 5.082c-3.444 0-6.069-1.911-6.069-5.65v-8.21h3.99v7.98c0 1.638.945 2.268 2.079 2.268 1.134 0 2.079-.63 2.079-2.268v-7.98h3.99v8.21c0 3.739-2.625 5.65-6.069 5.65zm8.749-.252V19.139h5.67c4.557 0 7.413 3.087 7.413 6.804s-2.856 6.804-7.413 6.804h-5.67zm3.99-3.381h1.533c2.037 0 3.339-1.45 3.339-3.423 0-1.953-1.302-3.423-3.339-3.423h-1.533v6.846zm11.4 3.38V19.14h10.815v3.38h-6.825v1.66h6.552v3.339h-6.552v1.848h7.077v3.38h-11.067z" fill="#1F211C"/></svg>