<svg width="266" height="13" viewBox="0 0 266 13" fill="none" xmlns="http://www.w3.org/2000/svg"><path d="M.77 10V.928h2.31l2.884 4.018c.21.28.406.686.406.686V.928h2.66V10H6.72L3.836 6.052a4.971 4.971 0 01-.406-.686V10H.77zm12.127.14c-2.156 0-2.604-1.344-2.604-3.164v-4.13h2.548v3.808c0 .756.252 1.106.924 1.106.77 0 1.05-.658 1.05-1.54V2.846h2.548V10h-2.408v-.784c-.392.504-1.316.924-2.058.924zm5.587-.14V2.846h2.408v.826c.658-.77 1.442-.966 2.156-.966 1.806 0 2.506 1.064 2.506 3.164V10h-2.548V6.192c0-.812-.308-1.106-.798-1.106-.784 0-1.176.658-1.176 1.54V10h-2.548zm11.845.14c-2.198 0-3.864-1.652-3.864-3.71 0-2.072 1.666-3.724 3.864-3.724.98 0 1.778.294 2.534.896l-1.47 1.764c-.266-.252-.56-.42-.994-.42-.826 0-1.358.63-1.358 1.484 0 .868.518 1.47 1.414 1.47.49 0 .896-.21 1.204-.518l1.274 1.876c-.686.574-1.596.882-2.604.882zm6.01 0c-1.987 0-3.066-1.652-3.066-3.71 0-2.072 1.078-3.724 3.066-3.724.575 0 1.526.196 1.947.938v-.798h2.407V10h-2.407v-.798c-.392.728-1.373.938-1.947.938zm.672-2.24c.672 0 1.148-.602 1.148-1.47 0-.854-.475-1.484-1.148-1.484-.672 0-1.148.63-1.148 1.484 0 .868.477 1.47 1.148 1.47zm11.625 2.24c-2.198 0-3.864-1.652-3.864-3.71 0-2.072 1.666-3.724 3.864-3.724.98 0 1.778.294 2.534.896L49.7 5.366c-.266-.252-.56-.42-.994-.42-.826 0-1.358.63-1.358 1.484 0 .868.518 1.47 1.414 1.47.49 0 .896-.21 1.204-.518l1.274 1.876c-.686.574-1.596.882-2.604.882zm6.808 0c-2.198 0-3.864-1.652-3.864-3.71 0-2.072 1.666-3.724 3.864-3.724s3.864 1.652 3.864 3.724c0 2.058-1.666 3.71-3.864 3.71zm0-2.24c.756 0 1.288-.602 1.288-1.47 0-.854-.532-1.484-1.288-1.484s-1.288.63-1.288 1.484c0 .868.532 1.47 1.288 1.47zm4.848 2.1V2.846H62.7v.784c.532-.602 1.358-.924 2.156-.924 1.148 0 1.764.462 2.1 1.106.616-.896 1.568-1.106 2.282-1.106 2.31 0 2.506 1.862 2.506 3.304V10h-2.548V6.304c0-.854-.238-1.246-.798-1.246-.756 0-1.106.686-1.106 1.568V10h-2.548V6.304c0-.854-.238-1.246-.798-1.246-.756 0-1.106.686-1.106 1.568V10h-2.548zm12.496 2.058V2.846h2.409v.798c.573-.77 1.371-.938 1.945-.938 1.989 0 3.067 1.652 3.067 3.71 0 2.072-1.148 3.724-3.15 3.724-.575 0-1.288-.196-1.722-.742v2.66h-2.549zM76.457 7.9c.672 0 1.148-.602 1.148-1.47 0-.854-.477-1.484-1.148-1.484-.672 0-1.148.63-1.148 1.484 0 .868.475 1.47 1.148 1.47zm7.652 2.24c-1.988 0-3.066-1.652-3.066-3.71 0-2.072 1.078-3.724 3.066-3.724.574 0 1.526.196 1.946.938v-.798h2.408V10h-2.408v-.798c-.392.728-1.372.938-1.946.938zm.672-2.24c.672 0 1.148-.602 1.148-1.47 0-.854-.476-1.484-1.148-1.484-.672 0-1.148.63-1.148 1.484 0 .868.476 1.47 1.148 1.47zm4.797 2.1V2.846h2.478V4.12c.042-.308.658-1.414 2.338-1.414v2.772c-1.848 0-2.268.77-2.268 2.114V10h-2.548zm8.79.14c-1.373 0-2.269-.882-2.269-2.45V4.862h-1.05V2.846h1.05V1.558l2.548-.63v1.918h1.582v2.016h-1.582v2.632c0 .336.168.448.392.448.21 0 .462-.098.644-.224l.686 1.862c-.616.434-1.372.56-2.002.56zm5.593 0c-1.988 0-3.066-1.652-3.066-3.71 0-2.072 1.078-3.724 3.066-3.724.574 0 1.526.196 1.946.938v-.798h2.408V10h-2.408v-.798c-.392.728-1.372.938-1.946.938zm.672-2.24c.672 0 1.148-.602 1.148-1.47 0-.854-.476-1.484-1.148-1.484-.672 0-1.148.63-1.148 1.484 0 .868.476 1.47 1.148 1.47zm7.428 2.24c-1.638 0-2.548-.49-2.968-.854l.812-1.792c.56.378 1.078.602 2.17.602.028 0 .7-.042.7-.322 0-.224-.42-.266-.84-.364-1.554-.378-2.702-1.008-2.702-2.324 0-1.568 1.428-2.38 2.94-2.38 1.386 0 2.212.308 2.898.672l-.756 1.708c-.826-.322-1.582-.42-2.058-.42-.252 0-.448.084-.448.224 0 .266.602.364 1.316.56 1.008.294 2.226.784 2.226 2.226 0 1.918-1.946 2.464-3.29 2.464zm9.844 0c-1.204 0-1.918-.588-1.918-2.184V4.064h-1.022v-.882h1.022v-1.47l1.064-.196v1.666h2.324v.882h-2.324v3.92c0 .938.406 1.204.952 1.204.63 0 1.12-.378 1.12-.378l.35.826a2.806 2.806 0 01-1.568.504zm5.197 0c-1.68 0-2.478-.882-2.478-2.702V3.182h1.064v4.116c0 1.274.616 1.806 1.722 1.806 1.232 0 1.946-1.008 1.946-2.058V3.182h1.064V10h-1.022V8.796c-.42.882-1.4 1.344-2.296 1.344zm8.161-.14V3.182h1.064v1.162c.476-.826 1.358-1.302 2.366-1.302 1.708 0 2.464 1.036 2.464 2.828V10h-1.064V6.01c0-1.26-.462-1.932-1.694-1.932-1.218 0-2.072.952-2.072 2.086V10h-1.064zm9.562-7.91l1.134-1.862h1.162l-1.316 1.862h-.98zm.378 8.05c-1.68 0-2.478-.882-2.478-2.702V3.182h1.064v4.116c0 1.274.616 1.806 1.722 1.806 1.232 0 1.946-1.008 1.946-2.058V3.182h1.064V10h-1.022V8.796c-.42.882-1.4 1.344-2.296 1.344zm5.113-.14V3.182h1.064v1.176c.378-.742 1.232-1.316 2.184-1.316 1.092 0 1.862.476 2.184 1.442.49-.994 1.554-1.442 2.352-1.442 1.638 0 2.506.952 2.506 2.828V10h-1.078V6.01c0-1.162-.406-1.932-1.652-1.932-1.148 0-1.876.924-1.876 1.946V10h-1.078V6.01c0-1.162-.406-1.932-1.638-1.932-1.19 0-1.904 1.008-1.904 2.002V10h-1.064zm15.239.14c-1.932 0-3.57-1.386-3.57-3.542 0-1.974 1.484-3.556 3.43-3.556 1.82 0 3.262 1.568 3.262 3.514 0 .196-.028.406-.028.42h-5.558c.168 1.358 1.218 2.212 2.478 2.212.77 0 1.54-.266 2.1-.728l.462.784a4.172 4.172 0 01-2.576.896zm-2.464-3.976h4.536c-.112-1.26-1.078-2.17-2.268-2.17-1.162 0-2.114.896-2.268 2.17zM170.195 10V3.182h1.064v1.442c.392-.896 1.274-1.582 2.632-1.582v1.162c-1.596 0-2.632.896-2.632 2.562V10h-1.064zm8.089.14c-2.002 0-3.584-1.568-3.584-3.542 0-1.988 1.582-3.556 3.584-3.556s3.584 1.568 3.584 3.556c0 1.974-1.582 3.542-3.584 3.542zm0-1.036c1.414 0 2.492-1.078 2.492-2.506 0-1.442-1.078-2.52-2.492-2.52s-2.492 1.078-2.492 2.52c0 1.428 1.078 2.506 2.492 2.506zm11.079 1.036c-1.89 0-3.22-1.568-3.22-3.542 0-2.002 1.33-3.556 3.22-3.556 1.092 0 2.058.448 2.562 1.33V.788h1.064V10h-1.022V8.81c-.504.896-1.498 1.33-2.604 1.33zm.238-1.036c1.302 0 2.324-1.078 2.324-2.506 0-1.428-1.022-2.52-2.324-2.52-1.358 0-2.366 1.064-2.366 2.52 0 1.442 1.008 2.506 2.366 2.506zm8.466 1.036c-1.932 0-3.57-1.386-3.57-3.542 0-1.974 1.484-3.556 3.43-3.556 1.82 0 3.262 1.568 3.262 3.514 0 .196-.028.406-.028.42h-5.558c.168 1.358 1.218 2.212 2.478 2.212.77 0 1.54-.266 2.1-.728l.462.784a4.172 4.172 0 01-2.576.896zm-2.464-3.976h4.536c-.112-1.26-1.078-2.17-2.268-2.17-1.162 0-2.114.896-2.268 2.17zM205.923 10V.928h.994l2.212 3.08c.476.672 1.47 2.1 1.47 2.1s.994-1.414 1.47-2.086l2.212-3.094h.994V10h-1.12V2.818s-.238.434-.672 1.036l-2.884 4.06-2.898-4.088c-.406-.574-.658-1.008-.658-1.008V10h-1.12zm14.593.14c-1.932 0-3.57-1.386-3.57-3.542 0-1.974 1.484-3.556 3.43-3.556 1.82 0 3.262 1.568 3.262 3.514 0 .196-.028.406-.028.42h-5.558c.168 1.358 1.218 2.212 2.478 2.212.77 0 1.54-.266 2.1-.728l.462.784a4.172 4.172 0 01-2.576.896zm-2.464-3.976h4.536c-.112-1.26-1.078-2.17-2.268-2.17-1.162 0-2.114.896-2.268 2.17zm10.044 3.976c-1.89 0-3.22-1.568-3.22-3.542 0-2.002 1.33-3.556 3.22-3.556 1.092 0 2.058.448 2.562 1.33V.788h1.064V10H230.7V8.81c-.504.896-1.498 1.33-2.604 1.33zm.238-1.036c1.302 0 2.324-1.078 2.324-2.506 0-1.428-1.022-2.52-2.324-2.52-1.358 0-2.366 1.064-2.366 2.52 0 1.442 1.008 2.506 2.366 2.506zm5.175.896V3.182h1.064V10h-1.064zm.532-8.036a.693.693 0 01-.7-.7c0-.392.308-.714.7-.714.392 0 .714.322.714.714 0 .392-.322.7-.714.7zm5.63 8.176c-2.002 0-3.584-1.554-3.584-3.542 0-1.988 1.582-3.556 3.584-3.556.938 0 1.792.336 2.436.91l-.672.756c-.42-.392-1.036-.63-1.75-.63-1.428 0-2.506 1.064-2.506 2.52 0 1.414 1.036 2.506 2.534 2.506.77 0 1.47-.294 1.946-.77l.616.798c-.658.63-1.582 1.008-2.604 1.008zm6.663 0c-1.89 0-3.22-1.568-3.22-3.542 0-2.002 1.33-3.556 3.22-3.556 1.092 0 2.058.448 2.562 1.33v-1.19h1.064V10h-1.064V8.81c-.504.896-1.47 1.33-2.562 1.33zm.238-1.036c1.302 0 2.324-1.078 2.324-2.506 0-1.428-1.022-2.52-2.324-2.52-1.358 0-2.366 1.064-2.366 2.52 0 1.442 1.008 2.506 2.366 2.506zm5.176.896V3.182h1.064v1.442c.392-.896 1.274-1.582 2.632-1.582v1.162c-1.596 0-2.632.896-2.632 2.562V10h-1.064zm8.075.14c-1.932 0-3.57-1.386-3.57-3.542 0-1.974 1.484-3.556 3.43-3.556 1.82 0 3.262 1.568 3.262 3.514 0 .196-.028.406-.028.42h-5.558c.168 1.358 1.218 2.212 2.478 2.212.77 0 1.54-.266 2.1-.728l.462.784a4.172 4.172 0 01-2.576.896zm-2.464-3.976h4.536c-.112-1.26-1.078-2.17-2.268-2.17-1.162 0-2.114.896-2.268 2.17zm7.621 3.976a.726.726 0 01-.728-.742c0-.406.322-.742.728-.742.406 0 .742.336.742.742a.747.747 0 01-.742.742z" fill="#42443C"/></svg>