<svg width="369" height="72" viewBox="0 0 369 72" fill="none" xmlns="http://www.w3.org/2000/svg"><path d="M1.408 71.244l1.185-32.153h11.534l1.106 32.153H1.408zm6.873-36.498c-4.503 0-7.82-3.397-7.82-7.742 0-4.345 3.317-7.742 7.82-7.742 4.582 0 7.98 3.397 7.98 7.742 0 4.345-3.398 7.742-7.98 7.742zm44.296 26.702c-16.274 0-27.097-11.771-27.097-26.544 0-14.615 10.823-26.386 27.097-26.386 7.821 0 14.852 2.765 19.513 7.426l-9.875 10.191c-3.634-3.713-6.557-4.029-9.006-4.029-6.636 0-12.087 5.372-12.087 12.798 0 7.584 5.056 12.956 12.087 12.956 4.187 0 8.058-1.896 10.902-5.688l9.56 10.507c-5.136 5.688-12.325 8.769-21.094 8.769zm41.965-.158c-12.166 0-14.694-7.584-14.694-17.854V20.131h14.378v21.488c0 4.266 1.422 6.241 5.214 6.241 4.345 0 5.925-3.713 5.925-8.69V20.131h14.378V60.5h-13.588v-4.424c-2.212 2.844-7.426 5.214-11.613 5.214zm33.897-.79V20.131h14.378V60.5h-14.378zm7.11-43.45c-4.424 0-8.137-3.713-8.137-8.137 0-4.503 3.713-8.216 8.137-8.216 4.582 0 8.295 3.713 8.295 8.216 0 4.424-3.713 8.137-8.295 8.137zm32.447 44.24c-11.218 0-17.301-9.322-17.301-20.935 0-11.692 6.478-21.014 17.775-21.014 3.239 0 7.268 1.106 9.717 4.187V8.518h14.378V60.5h-13.588v-4.503c-2.133 4.108-7.742 5.293-10.981 5.293zm3.792-12.64c3.792 0 6.478-3.397 6.478-8.295 0-4.819-2.686-8.374-6.478-8.374s-6.478 3.555-6.478 8.374c0 4.898 2.686 8.295 6.478 8.295zm45.947 12.64c-11.218 0-17.301-9.322-17.301-20.935 0-11.692 6.083-21.014 17.301-21.014 3.239 0 8.611 1.106 10.981 5.293v-4.503h13.588V60.5h-13.588v-4.503c-2.212 4.108-7.742 5.293-10.981 5.293zm3.792-12.64c3.792 0 6.478-3.397 6.478-8.295 0-4.819-2.686-8.374-6.478-8.374s-6.478 3.555-6.478 8.374c0 4.898 2.686 8.295 6.478 8.295zm45.948 12.64c-11.218 0-17.301-9.322-17.301-20.935 0-11.692 6.478-21.014 17.775-21.014 3.239 0 7.268 1.106 9.717 4.187V8.518h14.378V60.5h-13.588v-4.503c-2.133 4.108-7.742 5.293-10.981 5.293zm3.792-12.64c3.792 0 6.478-3.397 6.478-8.295 0-4.819-2.686-8.374-6.478-8.374s-6.478 3.555-6.478 8.374c0 4.898 2.686 8.295 6.478 8.295zm50.45 12.64c-12.403 0-21.804-9.322-21.804-20.935 0-11.692 9.401-21.014 21.804-21.014 12.403 0 21.804 9.322 21.804 21.014 0 11.613-9.401 20.935-21.804 20.935zm0-12.64c4.266 0 7.268-3.397 7.268-8.295 0-4.819-3.002-8.374-7.268-8.374s-7.268 3.555-7.268 8.374c0 4.898 3.002 8.295 7.268 8.295zm32.809-7.189l-1.185-32.153h13.825l-1.106 32.153h-11.534zm5.688 4.345c4.582 0 7.979 3.397 7.979 7.742 0 4.345-3.397 7.742-7.979 7.742-4.503 0-7.821-3.397-7.821-7.742 0-4.345 3.318-7.742 7.821-7.742z" fill="#fff"/></svg>