<svg width="455" height="53" viewBox="0 0 455 53" fill="none" xmlns="http://www.w3.org/2000/svg"><path d="M6.911 44.16c-3.762 0-6.534-2.838-6.534-6.468s2.772-6.468 6.534-6.468c3.828 0 6.666 2.838 6.666 6.468s-2.838 6.468-6.666 6.468zm19.53 0c-3.763 0-6.535-2.838-6.535-6.468s2.772-6.468 6.534-6.468c3.828 0 6.666 2.838 6.666 6.468s-2.838 6.468-6.666 6.468zm19.529 0c-3.762 0-6.534-2.838-6.534-6.468s2.772-6.468 6.534-6.468c3.828 0 6.666 2.838 6.666 6.468s-2.838 6.468-6.666 6.468zm24.413 0c-10.164 0-12.276-6.336-12.276-14.916V9.774h12.012v17.952c0 3.564 1.188 5.214 4.356 5.214 3.63 0 4.95-3.102 4.95-7.26V9.774h12.012V43.5H80.085v-3.696c-1.848 2.376-6.204 4.356-9.702 4.356zm26.339-.66V9.774h11.352v3.894c3.102-3.63 6.798-4.554 10.164-4.554 8.514 0 11.814 5.016 11.814 14.916V43.5H118.04V25.548c0-3.828-1.452-5.214-3.762-5.214-3.696 0-5.544 3.102-5.544 7.26V43.5H96.722zm52.079.66c-9.372 0-14.454-7.788-14.454-17.49 0-9.768 5.082-17.556 14.454-17.556 2.706 0 7.194.924 9.174 4.422V9.774h11.352V43.5h-11.352v-3.762c-1.848 3.432-6.468 4.422-9.174 4.422zm3.168-10.56c3.168 0 5.412-2.838 5.412-6.93 0-4.026-2.244-6.996-5.412-6.996-3.168 0-5.412 2.97-5.412 6.996 0 4.092 2.244 6.93 5.412 6.93zm37.243 9.9V.072h12.012V43.5h-12.012zm17.274 0V.072h12.012V43.5h-12.012zm31.067.66c-9.372 0-14.454-7.788-14.454-17.49 0-9.768 5.082-17.556 14.454-17.556 2.706 0 7.194.924 9.174 4.422V9.774h11.352V43.5h-11.352v-3.762c-1.848 3.432-6.468 4.422-9.174 4.422zm3.168-10.56c3.168 0 5.412-2.838 5.412-6.93 0-4.026-2.244-6.996-5.412-6.996-3.168 0-5.412 2.97-5.412 6.996 0 4.092 2.244 6.93 5.412 6.93zm22.612 9.9V9.774h11.352v3.696c2.508-2.838 6.402-4.356 10.164-4.356 5.412 0 8.316 2.178 9.9 5.214 2.904-4.224 7.392-5.214 10.758-5.214 10.89 0 11.814 8.778 11.814 15.576V43.5h-12.012V26.076c0-4.026-1.122-5.874-3.762-5.874-3.564 0-5.214 3.234-5.214 7.392V43.5h-12.012V26.076c0-4.026-1.122-5.874-3.762-5.874-3.564 0-5.214 3.234-5.214 7.392V43.5h-12.012zm72.705.66c-9.372 0-14.454-7.788-14.454-17.49 0-9.768 5.082-17.556 14.454-17.556 2.706 0 7.194.924 9.174 4.422V9.774h11.352V43.5h-11.352v-3.762c-1.848 3.432-6.468 4.422-9.174 4.422zm3.168-10.56c3.168 0 5.412-2.838 5.412-6.93 0-4.026-2.244-6.996-5.412-6.996-3.168 0-5.412 2.97-5.412 6.996 0 4.092 2.244 6.93 5.412 6.93zm36.406 10.56c-9.372 0-14.454-7.788-14.454-17.49 0-9.768 5.412-17.556 14.85-17.556 2.706 0 6.072.924 8.118 3.498V.072h12.012V43.5h-11.352v-3.762c-1.782 3.432-6.468 4.422-9.174 4.422zm3.168-10.56c3.168 0 5.412-2.838 5.412-6.93 0-4.026-2.244-6.996-5.412-6.996-3.168 0-5.412 2.97-5.412 6.996 0 4.092 2.244 6.93 5.412 6.93zm36.406 10.56c-9.372 0-14.454-7.788-14.454-17.49 0-9.768 5.082-17.556 14.454-17.556 2.706 0 7.194.924 9.174 4.422V9.774h11.352V43.5H424.36v-3.762c-1.848 3.432-6.468 4.422-9.174 4.422zm3.168-10.56c3.168 0 5.412-2.838 5.412-6.93 0-4.026-2.244-6.996-5.412-6.996-3.168 0-5.412 2.97-5.412 6.996 0 4.092 2.244 6.93 5.412 6.93zm21.424 18.942l4.488-20.328h10.23l-7.656 20.328h-7.062z" fill="#fff"/></svg>