<svg width="300" height="237" viewBox="0 0 300 237" fill="none" xmlns="http://www.w3.org/2000/svg"><path fill-rule="evenodd" clip-rule="evenodd" d="M123.664 223.342c24.459 0 48.368-7.106 68.704-20.421 20.337-13.314 36.187-32.239 45.547-54.38 9.36-22.141 11.809-46.504 7.037-70.01-4.771-23.504-16.549-45.095-33.844-62.04-17.295-16.947-39.33-28.487-63.318-33.163-23.989-4.675-48.853-2.276-71.45 6.896-22.597 9.17-41.91 24.702-55.499 44.628C7.253 54.78 0 78.206 0 102.171c0 32.137 13.029 62.957 36.22 85.681 23.192 22.724 54.646 35.49 87.444 35.49z" fill="#495E89" opacity=".54"/><path fill-rule="evenodd" clip-rule="evenodd" d="M285.878 70.008c2.793 0 5.523-.811 7.846-2.331a13.905 13.905 0 005.201-6.21 13.577 13.577 0 00.804-7.995 13.754 13.754 0 00-3.865-7.086 14.217 14.217 0 00-7.231-3.787 14.39 14.39 0 00-8.159.788 14.058 14.058 0 00-6.338 5.096 13.638 13.638 0 00-2.38 7.688 13.7 13.7 0 004.136 9.785c2.648 2.595 6.24 4.052 9.986 4.052zM16.221 221.098c2.078 0 4.11-.603 5.837-1.735a10.34 10.34 0 003.868-4.62 10.099 10.099 0 00.597-5.947 10.229 10.229 0 00-2.877-5.27 10.571 10.571 0 00-5.38-2.815 10.708 10.708 0 00-6.07.589c-1.919.78-3.559 2.1-4.712 3.794a10.143 10.143 0 00-1.767 5.72 10.19 10.19 0 003.08 7.273 10.616 10.616 0 007.424 3.011z" fill="#7588AF"/><path fill-rule="evenodd" clip-rule="evenodd" d="M207.038 237c17.935.001 35.468-5.208 50.382-14.971 14.913-9.763 26.537-23.639 33.401-39.875a87.189 87.189 0 005.162-51.338c-3.498-17.236-12.135-33.068-24.817-45.495-12.682-12.426-28.841-20.889-46.431-24.317a92.414 92.414 0 00-52.394 5.058c-16.57 6.726-30.732 18.115-40.696 32.728-9.963 14.613-15.28 31.792-15.279 49.366 0 23.563 9.553 46.161 26.558 62.822C159.928 227.64 182.99 237 207.038 237z" fill="#1A2B4F" opacity=".51"/></svg>