<svg width="141" height="165" viewBox="0 0 141 165" fill="none" xmlns="http://www.w3.org/2000/svg"><path d="M97.368 5.448H21.984c-8.922 0-16.154 6.883-16.154 15.375v123c0 8.491 7.232 15.375 16.154 15.375h75.384c8.922 0 16.154-6.884 16.154-15.375v-123c0-8.492-7.232-15.375-16.154-15.375z" fill="#F2F2F2"/><path d="M113.522 20.823c0-4.078-1.702-7.989-4.731-10.872-3.03-2.883-7.138-4.503-11.423-4.503H21.984c-4.285 0-8.393 1.62-11.423 4.503-3.03 2.883-4.731 6.794-4.731 10.872v20.5h107.692v-20.5zM5.83 143.823c0 4.078 1.702 7.988 4.731 10.872 3.03 2.883 7.139 4.503 11.423 4.503h75.384c4.285 0 8.393-1.62 11.423-4.503 3.029-2.884 4.731-6.794 4.731-10.872v-20.5H5.83v20.5z" fill="#C1C5C8"/><path d="M135.061 41.323v51.25c0 1.359-.568 2.663-1.577 3.624a5.528 5.528 0 01-3.808 1.5h-26.923l-16.154 15.376-16.154-15.375H54.292a5.526 5.526 0 01-3.808-1.501 5.003 5.003 0 01-1.577-3.624v-51.25c0-1.36.567-2.663 1.577-3.624a5.526 5.526 0 013.807-1.501h75.385c1.428 0 2.798.54 3.808 1.5a5.006 5.006 0 011.577 3.625z" fill="#F2F2F2"/><path d="M129.676 31.073h-10.769v-10.25c0-5.437-2.269-10.651-6.309-14.496-4.039-3.844-9.517-6.004-15.23-6.004H21.984c-5.713 0-11.19 2.16-15.23 6.004C2.714 10.172.445 15.386.445 20.823v123c0 5.437 2.27 10.651 6.309 14.495 4.04 3.845 9.518 6.005 15.23 6.005h75.384c5.713 0 11.191-2.16 15.23-6.005 4.04-3.844 6.309-9.058 6.309-14.495v-25.625a5.002 5.002 0 00-1.577-3.624 5.528 5.528 0 00-3.808-1.501c-1.428 0-2.797.54-3.807 1.501a5.002 5.002 0 00-1.577 3.624v25.625c0 2.718-1.135 5.325-3.155 7.248-2.019 1.922-4.758 3.002-7.615 3.002H21.984c-2.856 0-5.596-1.08-7.615-3.002-2.02-1.923-3.154-4.53-3.154-7.248v-123c0-2.719 1.134-5.326 3.154-7.248 2.02-1.922 4.759-3.002 7.615-3.002h75.384c2.857 0 5.596 1.08 7.615 3.002 2.02 1.922 3.155 4.53 3.155 7.248v10.25H54.291c-2.856 0-5.595 1.08-7.614 3.002-2.02 1.922-3.155 4.53-3.155 7.248v51.25c0 2.718 1.135 5.325 3.154 7.248 2.02 1.922 4.76 3.002 7.615 3.002h13.947l14.538 13.888c.5.481 1.096.862 1.752 1.122.657.261 1.36.394 2.071.394.711 0 1.415-.133 2.071-.394a5.395 5.395 0 001.752-1.122l14.539-13.888h24.715c2.856 0 5.596-1.08 7.615-3.002 2.02-1.923 3.154-4.53 3.154-7.248v-51.25c0-2.719-1.134-5.326-3.154-7.248-2.019-1.922-4.759-3.002-7.615-3.002zm0 61.5h-26.923a5.62 5.62 0 00-2.067.38 5.413 5.413 0 00-1.756 1.106L86.6 105.847 74.267 94.059a5.413 5.413 0 00-1.755-1.106 5.623 5.623 0 00-2.068-.38H54.292v-51.25h75.384v51.25z" fill="#101B31"/><path d="M129.676 31.073H54.292c-2.857 0-5.596 1.08-7.615 3.002-2.02 1.922-3.155 4.53-3.155 7.248v51.25c0 2.718 1.135 5.325 3.155 7.248 2.02 1.922 4.758 3.002 7.615 3.002h13.946l14.538 13.888c.5.481 1.096.862 1.752 1.122.657.261 1.36.394 2.071.394.711 0 1.415-.133 2.071-.394a5.395 5.395 0 001.752-1.122l14.539-13.888h24.715c2.856 0 5.596-1.08 7.615-3.002 2.02-1.923 3.154-4.53 3.154-7.248v-51.25c0-2.719-1.134-5.326-3.154-7.248-2.019-1.922-4.759-3.002-7.615-3.002zm0 61.5h-26.923a5.62 5.62 0 00-2.067.38 5.414 5.414 0 00-1.756 1.106L86.6 105.847 74.268 94.059a5.413 5.413 0 00-1.756-1.106 5.622 5.622 0 00-2.068-.38H54.292v-51.25h75.384v51.25z" fill="#C80000"/><path d="M75.83 61.823h32.308c1.428 0 2.797-.54 3.807-1.501a5.002 5.002 0 001.577-3.624c0-1.36-.567-2.663-1.577-3.624a5.525 5.525 0 00-3.807-1.501H75.83c-1.428 0-2.798.54-3.808 1.5a5.003 5.003 0 00-1.577 3.625c0 1.359.568 2.663 1.578 3.624a5.527 5.527 0 003.807 1.5zM75.83 82.323h32.308c1.428 0 2.797-.54 3.807-1.501a5.002 5.002 0 001.577-3.624c0-1.36-.567-2.663-1.577-3.624a5.525 5.525 0 00-3.807-1.501H75.83c-1.428 0-2.798.54-3.808 1.5a5.003 5.003 0 00-1.577 3.625c0 1.359.568 2.663 1.578 3.624a5.527 5.527 0 003.807 1.5z" fill="#C80000"/><path d="M59.676 144.49c2.974 0 5.385-2.37 5.385-5.292 0-2.923-2.411-5.292-5.385-5.292-2.974 0-5.385 2.369-5.385 5.292 0 2.922 2.411 5.292 5.385 5.292z" fill="#101B31"/></svg>