<svg width="162" height="169" viewBox="0 0 162 169" fill="none" xmlns="http://www.w3.org/2000/svg"><path d="M97.2 5.281H21.6c-8.947 0-16.2 7.094-16.2 15.844v126.75c0 8.751 7.253 15.844 16.2 15.844h75.6c8.947 0 16.2-7.093 16.2-15.844V21.125c0-8.75-7.253-15.844-16.2-15.844z" fill="#F2F2F2"/><path d="M113.4 21.125c0-4.202-1.707-8.232-4.745-11.203-3.038-2.971-7.158-4.64-11.455-4.64H21.6c-4.297 0-8.417 1.669-11.455 4.64C7.107 12.893 5.4 16.923 5.4 21.125V42.25h108V21.125zM5.4 147.875c0 4.202 1.707 8.232 4.745 11.203 3.038 2.972 7.159 4.641 11.455 4.641h75.6c4.297 0 8.417-1.669 11.455-4.641 3.038-2.971 4.745-7.001 4.745-11.203V126.75H5.4v21.125z" fill="#C1C5C8"/><path d="M97.2 169H21.6c-5.729 0-11.223-2.226-15.274-6.187C2.276 158.851 0 153.478 0 147.875V21.125c0-5.603 2.276-10.976 6.326-14.938C10.377 2.226 15.871 0 21.6 0h75.6c5.729 0 11.223 2.226 15.274 6.187 4.05 3.962 6.326 9.335 6.326 14.938v126.75c0 5.603-2.276 10.976-6.326 14.938-4.051 3.961-9.545 6.187-15.274 6.187zM21.6 10.562a10.924 10.924 0 00-7.637 3.094 10.446 10.446 0 00-3.163 7.469v126.75c0 2.801 1.138 5.488 3.163 7.469a10.924 10.924 0 007.637 3.094h75.6c2.864 0 5.611-1.113 7.637-3.094a10.449 10.449 0 003.163-7.469V21.125c0-2.801-1.138-5.488-3.163-7.469a10.926 10.926 0 00-7.637-3.094H21.6z" fill="#101B31"/><path d="M59.4 31.688H37.8a5.462 5.462 0 01-3.818-1.547 5.223 5.223 0 01-1.582-3.735c0-1.4.569-2.744 1.582-3.734a5.462 5.462 0 013.818-1.547h21.6c1.432 0 2.806.556 3.818 1.547a5.223 5.223 0 011.582 3.734c0 1.4-.569 2.744-1.582 3.735a5.462 5.462 0 01-3.818 1.547zM135 110.906a5.458 5.458 0 01-3.818-1.547 5.22 5.22 0 01-1.582-3.734v-42.25c0-1.4.569-2.744 1.582-3.734A5.46 5.46 0 01135 58.094a5.46 5.46 0 013.818 1.547 5.222 5.222 0 011.582 3.734v42.25a5.22 5.22 0 01-1.582 3.734 5.458 5.458 0 01-3.818 1.547zM156.6 95.063a5.46 5.46 0 01-3.818-1.547 5.222 5.222 0 01-1.582-3.735V73.938c0-1.4.569-2.744 1.582-3.735a5.46 5.46 0 013.818-1.547 5.46 5.46 0 013.818 1.547A5.222 5.222 0 01162 73.938V89.78c0 1.401-.569 2.744-1.582 3.735a5.46 5.46 0 01-3.818 1.547zM81 31.688c2.982 0 5.4-2.365 5.4-5.282 0-2.916-2.418-5.281-5.4-5.281-2.983 0-5.4 2.364-5.4 5.281s2.418 5.282 5.4 5.282zM59.4 149.206c2.982 0 5.4-2.365 5.4-5.281 0-2.917-2.418-5.282-5.4-5.282s-5.4 2.365-5.4 5.282c0 2.916 2.418 5.281 5.4 5.281z" fill="#101B31"/><path d="M59.076 111.434c15.36 0 27.81-12.177 27.81-27.198s-12.45-27.198-27.81-27.198c-15.359 0-27.81 12.177-27.81 27.198s12.451 27.198 27.81 27.198z" fill="#C80000"/><path d="M59.076 88.884c.624 0 1.242-.12 1.818-.354a4.761 4.761 0 001.542-1.007 4.643 4.643 0 001.03-1.508 4.559 4.559 0 00.362-1.778v-13.89a4.55 4.55 0 00-.204-1.925 4.624 4.624 0 00-.987-1.676 4.751 4.751 0 00-1.6-1.139 4.843 4.843 0 00-3.869 0 4.749 4.749 0 00-1.6 1.139 4.626 4.626 0 00-.987 1.676 4.55 4.55 0 00-.203 1.925V84.5a4.604 4.604 0 001.464 3.098 4.809 4.809 0 003.234 1.285zM59.076 102.773c2.624 0 4.752-2.081 4.752-4.647 0-2.567-2.128-4.648-4.752-4.648-2.624 0-4.752 2.08-4.752 4.648 0 2.566 2.128 4.647 4.752 4.647z" fill="#fff"/></svg>