<svg width="304" height="65" viewBox="0 0 304 65" fill="none" xmlns="http://www.w3.org/2000/svg"><path d="M23.705 64.33C10.675 64.33.797 54.536.797 42.335c0-12.284 9.877-22.078 22.908-22.078s22.908 9.794 22.908 22.078c0 12.201-9.877 21.995-22.908 21.995zm0-13.28c4.482 0 7.636-3.569 7.636-8.715 0-5.063-3.154-8.798-7.636-8.798s-7.636 3.735-7.636 8.798c0 5.146 3.154 8.715 7.636 8.715zM93.84 64.33c-12.865 0-23.821-8.051-23.821-21.995 0-12.284 9.545-22.078 22.078-22.078 12.035 0 21.248 9.794 21.248 22.078 0 2.573-.332 4.897-.332 4.897H84.875c1.245 3.984 4.98 5.478 9.047 5.478 3.569 0 7.387-1.079 10.043-2.573l5.063 10.209c-4.731 2.905-9.96 3.984-15.19 3.984zm-9.38-25.647h15.107c-.498-3.901-3.57-6.557-7.47-6.557-3.735 0-6.723 2.656-7.636 6.557zM119.157 63.5V21.087h14.276v4.648c3.154-3.569 8.051-5.478 12.782-5.478 6.806 0 10.458 2.739 12.45 6.557 3.652-5.312 9.296-6.557 13.529-6.557 13.695 0 14.857 11.039 14.857 19.588V63.5h-15.106V41.588c0-5.063-1.411-7.387-4.731-7.387-4.482 0-6.557 4.067-6.557 9.296V63.5H145.55V41.588c0-5.063-1.411-7.387-4.731-7.387-4.482 0-6.557 4.067-6.557 9.296V63.5h-15.106zm91.431.83c-11.786 0-18.177-9.794-18.177-21.995 0-12.284 6.391-22.078 18.177-22.078 3.403 0 9.047 1.162 11.537 5.561v-4.731H236.4V63.5h-14.276v-4.731c-2.324 4.316-8.134 5.561-11.537 5.561zm3.984-13.28c3.984 0 6.806-3.569 6.806-8.715 0-5.063-2.822-8.798-6.806-8.798s-6.806 3.735-6.806 8.798c0 5.146 2.822 8.715 6.806 8.715zm28.437 12.45V21.087h15.106V63.5h-15.106zm7.47-45.65c-4.648 0-8.549-3.901-8.549-8.549 0-4.731 3.901-8.632 8.549-8.632 4.814 0 8.715 3.901 8.715 8.632 0 4.648-3.901 8.549-8.715 8.549zm14.253 45.65V8.886h15.106V63.5h-15.106zm30.603.83c-4.731 0-8.217-3.569-8.217-8.134s3.486-8.134 8.217-8.134c4.814 0 8.383 3.569 8.383 8.134s-3.569 8.134-8.383 8.134z" fill="#fff"/></svg>