<svg width="141" height="170" viewBox="0 0 141 170" fill="none" xmlns="http://www.w3.org/2000/svg"><path d="M97.452 5.604H22.068c-8.922 0-16.154 6.913-16.154 15.44v123.523c0 8.528 7.232 15.441 16.154 15.441h75.384c8.922 0 16.154-6.913 16.154-15.441V21.044c0-8.527-7.232-15.44-16.154-15.44z" fill="#F2F2F2"/><path d="M113.606 21.044c0-4.095-1.702-8.022-4.731-10.918-3.029-2.895-7.138-4.522-11.423-4.522H22.068c-4.284 0-8.393 1.627-11.423 4.522-3.03 2.896-4.731 6.823-4.731 10.918v20.588h107.692V21.044zM5.957 146.321c0 3.63 1.693 7.111 4.708 9.678 3.016 2.567 7.105 4.009 11.37 4.009h75.028c4.264 0 8.353-1.442 11.368-4.009 3.015-2.567 4.709-6.048 4.709-9.678v-18.25H5.957v18.25zM133.314 54.456L92.068 84.823 50.822 54.456a5.445 5.445 0 013.554-1.32h75.384a5.444 5.444 0 013.554 1.32z" fill="#C1C5C8"/><path d="M135.145 58.416v52.813a5.231 5.231 0 01-1.577 3.734 5.438 5.438 0 01-3.808 1.547H54.376a5.436 5.436 0 01-3.808-1.547 5.228 5.228 0 01-1.577-3.734V58.416c0-.75.165-1.49.48-2.173a5.29 5.29 0 011.35-1.787l41.247 30.367 41.246-30.367a5.285 5.285 0 011.35 1.787c.316.683.48 1.424.481 2.173z" fill="#F2F2F2"/><path d="M65.145 26.729a5.23 5.23 0 00-1.577-3.734 5.439 5.439 0 00-3.808-1.547H38.222a5.439 5.439 0 00-3.808 1.547 5.23 5.23 0 00-1.577 3.734c0 1.4.567 2.744 1.577 3.734a5.439 5.439 0 003.808 1.547H59.76a5.439 5.439 0 003.808-1.547 5.23 5.23 0 001.577-3.734z" fill="#101B31"/><path d="M136.868 50.495a10.891 10.891 0 00-7.108-2.641h-10.769V21.448c0-5.603-2.269-10.976-6.309-14.938-4.039-3.962-9.517-6.187-15.23-6.187H22.069c-5.713 0-11.19 2.225-15.23 6.187C2.798 10.472.529 15.845.529 21.448v126.75c0 5.602 2.27 10.976 6.309 14.937 4.04 3.962 9.517 6.188 15.23 6.188h75.385c5.712 0 11.19-2.226 15.229-6.188 4.04-3.961 6.309-9.335 6.309-14.937v-26.406h10.769c2.856 0 5.596-1.113 7.615-3.094a10.46 10.46 0 003.154-7.469V58.416a10.397 10.397 0 00-.96-4.347 10.585 10.585 0 00-2.701-3.574zm-17.877 7.922L92.068 78.22 65.145 58.416h53.846zm-10.769 89.781c0 2.801-1.135 5.488-3.155 7.469a10.877 10.877 0 01-7.614 3.093H22.067a10.88 10.88 0 01-7.615-3.093 10.462 10.462 0 01-3.154-7.469V21.448c0-2.802 1.134-5.488 3.154-7.47a10.877 10.877 0 017.615-3.093h75.385c2.856 0 5.595 1.113 7.614 3.094a10.46 10.46 0 013.155 7.469v26.406H54.376a10.892 10.892 0 00-7.108 2.64 10.58 10.58 0 00-2.7 3.575 10.393 10.393 0 00-.962 4.347v52.813c0 2.801 1.135 5.488 3.155 7.469a10.877 10.877 0 007.615 3.094h53.846v26.406zm-53.846-36.969V63.698l34.461 25.35a5.454 5.454 0 003.23 1.056c1.166 0 2.3-.37 3.232-1.056l34.461-25.35v47.531H54.376z" fill="#101B31"/><path d="M81.299 32.01c2.973 0 5.384-2.364 5.384-5.281s-2.41-5.281-5.384-5.281-5.385 2.364-5.385 5.281 2.41 5.281 5.385 5.281zM59.76 145.536c2.974 0 5.385-2.364 5.385-5.281s-2.411-5.281-5.385-5.281c-2.974 0-5.384 2.364-5.384 5.281s2.41 5.281 5.384 5.281z" fill="#101B31"/><path d="M136.868 50.495a10.891 10.891 0 00-7.108-2.641H54.376a10.892 10.892 0 00-7.108 2.64 10.579 10.579 0 00-2.7 3.575 10.391 10.391 0 00-.962 4.347v52.813c0 2.801 1.135 5.488 3.155 7.469a10.877 10.877 0 007.615 3.094h75.384c2.856 0 5.596-1.113 7.615-3.094a10.46 10.46 0 003.154-7.469V58.416a10.381 10.381 0 00-.96-4.347 10.585 10.585 0 00-2.701-3.574zm-17.877 7.922L92.068 78.22 65.145 58.416h53.846zm10.769 52.812H54.376V63.698l34.461 25.35a5.454 5.454 0 003.23 1.056c1.166 0 2.3-.37 3.232-1.056l34.461-25.35v47.531z" fill="#C80000"/></svg>