<svg width="234" height="64" viewBox="0 0 234 64" fill="none" xmlns="http://www.w3.org/2000/svg"><path d="M8.73 23V.968h4.556l7.582 10.472c1.224 1.666 2.618 4.046 2.618 4.046V.968h4.76V23h-4.59l-7.344-10.064c-1.462-1.972-2.822-4.318-2.822-4.318V23H8.73zm31.999.34c-5.066 0-9.078-3.91-9.078-8.84s4.012-8.84 9.078-8.84c5.1 0 9.112 3.91 9.112 8.84s-4.012 8.84-9.112 8.84zm0-4.216c2.55 0 4.454-1.938 4.454-4.624 0-2.652-1.904-4.624-4.454-4.624s-4.454 1.972-4.454 4.624c0 2.686 1.904 4.624 4.454 4.624zm28.123 4.216c-5.066 0-9.078-3.91-9.078-8.84s4.012-8.84 9.078-8.84c2.346 0 4.386.782 6.086 2.176l-2.754 3.196c-.782-.714-1.87-1.156-3.23-1.156-2.652 0-4.556 1.938-4.556 4.624 0 2.652 1.802 4.624 4.692 4.624 1.428 0 2.822-.544 3.706-1.394l2.414 3.4c-1.632 1.394-3.91 2.21-6.358 2.21zm16.734 0c-5.066 0-9.078-3.91-9.078-8.84s4.012-8.84 9.078-8.84c5.1 0 9.112 3.91 9.112 8.84s-4.012 8.84-9.112 8.84zm0-4.216c2.55 0 4.454-1.938 4.454-4.624 0-2.652-1.904-4.624-4.454-4.624s-4.454 1.972-4.454 4.624c0 2.686 1.904 4.624 4.454 4.624zM97.671 23V6h4.454v2.278c.986-1.53 2.992-2.618 5.032-2.618 2.686 0 4.352 1.122 5.236 3.026 1.224-2.04 3.57-3.026 5.508-3.026 4.794 0 6.29 3.298 6.29 7.65V23h-4.556v-9.112c0-2.244-.544-3.91-2.958-3.91-2.244 0-3.468 1.802-3.468 4.046V23h-4.556v-9.112c0-2.244-.51-3.91-2.958-3.91-2.312 0-3.468 1.972-3.468 4.216V23h-4.556zm29.75 4.896V6h4.318v2.04c1.394-1.666 3.4-2.38 5.44-2.38 4.692 0 7.684 3.944 7.684 8.806 0 4.93-3.06 8.874-7.752 8.874-1.972 0-3.91-.782-5.134-2.278v6.834h-4.556zm8.568-8.772c2.482 0 4.216-1.938 4.216-4.624s-1.734-4.624-4.216-4.624c-2.312 0-4.046 1.904-4.046 4.624 0 2.686 1.7 4.624 4.046 4.624zm18.992 4.216c-4.692 0-7.684-3.944-7.684-8.84s2.992-8.84 7.684-8.84c1.972 0 4.08.782 5.304 2.414V6h4.454v17h-4.454v-2.04c-1.19 1.632-3.332 2.38-5.304 2.38zm1.156-4.216c2.346 0 4.046-1.904 4.046-4.624 0-2.652-1.7-4.624-4.046-4.624-2.448 0-4.216 1.972-4.216 4.624 0 2.686 1.768 4.624 4.216 4.624zM168.194 23V6h4.488v3.264c.476-1.394 2.21-3.604 5.95-3.604v4.964c-3.944 0-5.882 1.802-5.882 5.848V23h-4.556zm19.972.34c-3.4 0-5.236-1.972-5.236-5.814V9.672h-2.482V6h2.482V2.736l4.556-1.02V6h4.692v3.672h-4.692v7.786c0 1.462.714 1.938 1.53 1.938 1.088 0 2.04-.612 2.176-.714l1.292 3.366a7.834 7.834 0 01-4.318 1.292zm13.632 0c-4.692 0-7.684-3.944-7.684-8.84s2.992-8.84 7.684-8.84c1.972 0 4.08.782 5.304 2.414V6h4.454v17h-4.454v-2.04c-1.19 1.632-3.332 2.38-5.304 2.38zm1.156-4.216c2.346 0 4.046-1.904 4.046-4.624 0-2.652-1.7-4.624-4.046-4.624-2.448 0-4.216 1.972-4.216 4.624 0 2.686 1.768 4.624 4.216 4.624zm18.108 4.216c-3.638 0-5.984-1.428-6.936-2.312l1.632-3.502c1.156.884 2.754 1.802 5.304 1.802 1.054 0 2.788-.408 2.788-1.428s-1.462-1.258-2.924-1.666c-3.366-.884-6.12-2.006-6.12-5.27 0-3.468 3.4-5.304 6.596-5.304 2.788 0 4.556.68 6.324 1.7l-1.53 3.4c-1.666-.816-3.23-1.19-4.726-1.19-1.054 0-2.04.476-2.04 1.19 0 .952 1.428 1.258 2.992 1.598 2.89.68 6.052 1.938 6.052 5.406 0 4.182-4.25 5.576-7.412 5.576zM8.62 63.34c-3.4 0-5.236-1.972-5.236-5.814v-7.854H.902V46h2.482v-3.264l4.556-1.02V46h4.692v3.672H7.94v7.786c0 1.462.714 1.938 1.53 1.938 1.088 0 2.04-.612 2.176-.714l1.292 3.366A7.834 7.834 0 018.62 63.34zm12.507 0c-4.692 0-6.188-2.754-6.188-7.174V46h4.556v9.554c0 2.38 1.02 3.468 3.128 3.468 2.38 0 3.536-2.006 3.536-4.318V46h4.556v17h-4.284v-2.38c-1.02 1.666-3.332 2.72-5.304 2.72zM41.64 63V46h4.556v17H41.64zm2.244-19.074c-1.462 0-2.686-1.224-2.686-2.686 0-1.496 1.224-2.72 2.686-2.72a2.728 2.728 0 012.72 2.72c0 1.462-1.224 2.686-2.72 2.686zM49.675 63V46h4.454v2.278c1.36-1.87 3.298-2.618 5.372-2.618 4.488 0 6.052 2.89 6.052 7.548V63h-4.556v-9.214c0-2.482-.646-3.808-2.958-3.808-2.278 0-3.808 1.836-3.808 4.42V63h-4.556zm19.806 0V49.706H66.83v-3.672h2.652v-1.122c0-3.944 2.176-5.644 5.066-5.644 1.53 0 3.23.442 4.42 1.054l-1.292 3.366c-.374-.17-1.122-.51-1.904-.51-.952 0-1.734.476-1.734 2.244v.612h4.25v3.672h-4.25V63h-4.556zm18.977.34c-5.066 0-9.078-3.91-9.078-8.84s4.012-8.84 9.078-8.84c5.1 0 9.112 3.91 9.112 8.84s-4.012 8.84-9.112 8.84zm0-4.216c2.55 0 4.454-1.938 4.454-4.624 0-2.652-1.904-4.624-4.454-4.624s-4.454 1.972-4.454 4.624c0 2.686 1.904 4.624 4.454 4.624zM100.543 63V46h4.488v3.264c.476-1.394 2.21-3.604 5.95-3.604v4.964c-3.944 0-5.882 1.802-5.882 5.848V63h-4.556zm12.916 0V46h4.454v2.278c.986-1.53 2.992-2.618 5.032-2.618 2.686 0 4.352 1.122 5.236 3.026 1.224-2.04 3.57-3.026 5.508-3.026 4.794 0 6.29 3.298 6.29 7.65V63h-4.556v-9.112c0-2.244-.544-3.91-2.958-3.91-2.244 0-3.468 1.802-3.468 4.046V63h-4.556v-9.112c0-2.244-.51-3.91-2.958-3.91-2.312 0-3.468 1.972-3.468 4.216V63h-4.556zm36.924.34c-4.692 0-7.684-3.944-7.684-8.84s2.992-8.84 7.684-8.84c1.972 0 4.08.782 5.304 2.414V46h4.454v17h-4.454v-2.04c-1.19 1.632-3.332 2.38-5.304 2.38zm1.156-4.216c2.346 0 4.046-1.904 4.046-4.624 0-2.652-1.7-4.624-4.046-4.624-2.448 0-4.216 1.972-4.216 4.624 0 2.686 1.768 4.624 4.216 4.624zm20.624 4.216c-5.066 0-9.078-3.91-9.078-8.84s4.012-8.84 9.078-8.84c2.346 0 4.386.782 6.086 2.176l-2.754 3.196c-.782-.714-1.87-1.156-3.23-1.156-2.652 0-4.556 1.938-4.556 4.624 0 2.652 1.802 4.624 4.692 4.624 1.428 0 2.822-.544 3.706-1.394l2.414 3.4c-1.632 1.394-3.91 2.21-6.358 2.21zm8.698-.34V46h4.556v17h-4.556zm2.244-19.074c-1.462 0-2.686-1.224-2.686-2.686 0-1.496 1.224-2.72 2.686-2.72a2.728 2.728 0 012.72 2.72c0 1.462-1.224 2.686-2.72 2.686zm11.367-.238l3.196-5.338h4.522l-3.978 5.338h-3.74zm2.992 19.652c-5.066 0-9.078-3.91-9.078-8.84s4.012-8.84 9.078-8.84c5.1 0 9.112 3.91 9.112 8.84s-4.012 8.84-9.112 8.84zm0-4.216c2.55 0 4.454-1.938 4.454-4.624 0-2.652-1.904-4.624-4.454-4.624s-4.454 1.972-4.454 4.624c0 2.686 1.904 4.624 4.454 4.624zM209.548 63V46h4.454v2.278c1.36-1.87 3.298-2.618 5.372-2.618 4.488 0 6.052 2.89 6.052 7.548V63h-4.556v-9.214c0-2.482-.646-3.808-2.958-3.808-2.278 0-3.808 1.836-3.808 4.42V63h-4.556zm21.642.34c-1.53 0-2.686-1.19-2.686-2.652 0-1.53 1.19-2.686 2.686-2.686 1.53 0 2.72 1.156 2.72 2.686 0 1.462-1.19 2.652-2.72 2.652z" fill="#fff"/></svg>