<svg width="197" height="164" viewBox="0 0 197 164" fill="none" xmlns="http://www.w3.org/2000/svg"><path d="M4.475 22.44c-1.32 0-2.288-1.056-2.288-2.332 0-1.276 1.012-2.332 2.288-2.332a2.347 2.347 0 012.332 2.332 2.347 2.347 0 01-2.332 2.332zm8.938 0c-1.32 0-2.288-1.056-2.288-2.332 0-1.276 1.012-2.332 2.288-2.332a2.347 2.347 0 012.332 2.332 2.347 2.347 0 01-2.332 2.332zm8.937 0c-1.32 0-2.288-1.056-2.288-2.332 0-1.276 1.012-2.332 2.288-2.332a2.347 2.347 0 012.332 2.332 2.347 2.347 0 01-2.332 2.332zm16.55 0c-5.94 0-10.12-4.928-10.12-11.132C28.78 5.016 32.96.132 38.9.132c3.432 0 6.468 1.408 8.052 4.18V.572h3.344V22h-3.344v-3.74c-1.584 2.816-4.62 4.18-8.052 4.18zm.748-3.256c4.092 0 7.304-3.388 7.304-7.876s-3.212-7.92-7.304-7.92c-4.268 0-7.436 3.344-7.436 7.92 0 4.532 3.168 7.876 7.436 7.876zM65.496 22V.572h3.344v3.696C70.028 1.936 72.712.132 75.704.132c3.432 0 5.852 1.496 6.864 4.532C84.108 1.54 87.452.132 89.96.132c5.148 0 7.876 2.992 7.876 8.888V22h-3.388V9.46c0-3.652-1.276-6.072-5.192-6.072-3.608 0-5.896 2.904-5.896 6.116V22h-3.388V9.46c0-3.652-1.276-6.072-5.148-6.072-3.74 0-5.984 3.168-5.984 6.292V22h-3.344zm47.894.44c-6.072 0-11.22-4.356-11.22-11.132 0-6.204 4.664-11.176 10.78-11.176 5.72 0 10.252 4.928 10.252 11.044 0 .616-.088 1.276-.088 1.32h-17.468c.528 4.268 3.828 6.952 7.788 6.952 2.42 0 4.84-.836 6.6-2.288l1.452 2.464a13.112 13.112 0 01-8.096 2.816zm-7.744-12.496h14.256c-.352-3.96-3.388-6.82-7.128-6.82-3.652 0-6.644 2.816-7.128 6.82zM127.972 22V.572h3.344v3.652c1.496-2.596 4.268-4.092 7.436-4.092 5.368 0 7.744 3.256 7.744 8.888V22h-3.344V9.46c0-3.96-1.452-6.072-5.324-6.072-3.828 0-6.512 2.992-6.512 6.556V22h-3.344zm34.189.44c-6.292 0-11.264-4.928-11.264-11.132 0-6.248 4.972-11.176 11.264-11.176 6.292 0 11.264 4.928 11.264 11.176 0 6.204-4.972 11.132-11.264 11.132zm0-3.256c4.444 0 7.832-3.388 7.832-7.876 0-4.532-3.388-7.92-7.832-7.92s-7.832 3.388-7.832 7.92c0 4.488 3.388 7.876 7.832 7.876zm23.215 3.256c-4.356 0-7.128-1.98-8.36-3.256l1.364-2.728c1.584 1.54 3.872 2.816 6.996 2.816 2.948 0 5.368-1.364 5.368-3.3 0-2.244-2.596-2.86-5.192-3.52-3.96-1.012-7.568-2.112-7.568-6.204 0-3.872 4.048-6.116 7.656-6.116 2.948 0 5.104.792 7.304 2.288l-1.32 2.728c-1.804-1.232-3.696-1.848-5.94-1.848-2.2 0-4.268 1.232-4.268 2.904 0 2.112 2.376 2.596 4.884 3.124 3.872.88 7.876 2.332 7.876 6.556 0 4.532-4.62 6.556-8.8 6.556zm-134.9 50.764V63.26c-1.585 2.772-4.62 4.18-8.053 4.18-5.94 0-10.12-4.928-10.12-11.176s4.18-11.132 10.12-11.132c3.476 0 6.6 1.364 8.184 4.136v-3.696h3.212v27.632h-3.344zm-7.305-9.02c4.092 0 7.304-3.432 7.304-7.92 0-4.488-3.212-7.876-7.304-7.876-4.268 0-7.436 3.344-7.436 7.876 0 4.576 3.168 7.92 7.436 7.92zm23.702 3.256c-5.28 0-7.788-2.772-7.788-8.492V45.572h3.344v12.936c0 4.004 1.936 5.676 5.412 5.676 3.872 0 6.116-3.168 6.116-6.468V45.572h3.344V67H74.09v-3.784c-1.32 2.772-4.4 4.224-7.216 4.224zm26.408 0c-6.072 0-11.22-4.356-11.22-11.132 0-6.204 4.664-11.176 10.78-11.176 5.72 0 10.252 4.928 10.252 11.044 0 .616-.088 1.276-.088 1.32H85.537c.528 4.268 3.828 6.952 7.788 6.952 2.42 0 4.84-.836 6.6-2.288l1.452 2.464a13.112 13.112 0 01-8.096 2.816zm-7.744-12.496h14.256c-.352-3.96-3.388-6.82-7.128-6.82-3.652 0-6.644 2.816-7.128 6.82zm-66.49 108.26v-27.632h3.212v3.696c1.584-2.772 4.707-4.136 8.183-4.136 5.94 0 10.12 4.884 10.12 11.132 0 6.248-4.18 11.176-10.12 11.176-3.387 0-6.468-1.408-8.052-4.18v9.944h-3.343zm10.648-9.02c4.267 0 7.435-3.344 7.435-7.92 0-4.532-3.168-7.876-7.436-7.876-4.091 0-7.303 3.388-7.303 7.876s3.212 7.92 7.304 7.92zM45.3 157v-21.428h3.344v4.532c1.232-2.816 4.004-4.972 8.272-4.972v3.652c-5.016 0-8.272 2.816-8.272 8.052V157H45.3zm15.47 0v-21.428h3.343V157H60.77zm1.671-25.256c-1.232 0-2.2-.968-2.2-2.2 0-1.232.968-2.244 2.2-2.244a2.253 2.253 0 012.244 2.244c0 1.232-1.012 2.2-2.244 2.2zM69.75 157v-21.428h3.344v3.696c1.188-2.332 3.872-4.136 6.864-4.136 3.432 0 5.852 1.496 6.864 4.532 1.54-3.124 4.884-4.532 7.392-4.532 5.148 0 7.876 2.992 7.876 8.888V157h-3.388v-12.54c0-3.652-1.276-6.072-5.192-6.072-3.608 0-5.896 2.904-5.896 6.116V157h-3.388v-12.54c0-3.652-1.276-6.072-5.148-6.072-3.74 0-5.984 3.168-5.984 6.292V157H69.75zm47.894.44c-6.072 0-11.22-4.356-11.22-11.132 0-6.204 4.664-11.176 10.78-11.176 5.72 0 10.252 4.928 10.252 11.044 0 .616-.088 1.276-.088 1.32H109.9c.528 4.268 3.828 6.952 7.788 6.952 2.42 0 4.84-.836 6.6-2.288l1.452 2.464a13.112 13.112 0 01-8.096 2.816zm-7.744-12.496h14.256c-.352-3.96-3.388-6.82-7.128-6.82-3.652 0-6.644 2.816-7.128 6.82zM132.226 157v-21.428h3.344v4.532c1.232-2.816 4.004-4.972 8.272-4.972v3.652c-5.016 0-8.272 2.816-8.272 8.052V157h-3.344zm25.423.44c-6.292 0-11.264-4.928-11.264-11.132 0-6.248 4.972-11.176 11.264-11.176 6.292 0 11.264 4.928 11.264 11.176 0 6.204-4.972 11.132-11.264 11.132zm0-3.256c4.444 0 7.832-3.388 7.832-7.876 0-4.532-3.388-7.92-7.832-7.92s-7.832 3.388-7.832 7.92c0 4.488 3.388 7.876 7.832 7.876zm17.627 3.256c-1.32 0-2.288-1.056-2.288-2.332 0-1.276 1.012-2.332 2.288-2.332a2.347 2.347 0 012.332 2.332 2.347 2.347 0 01-2.332 2.332z" fill="#275D80"/><path d="M125.145 67.44c-4.4 0-6.776-2.552-6.776-7.524V49.752h-3.212V45h3.212v-4.224l5.896-1.32V45h6.072v4.752h-6.072v10.076c0 1.892.924 2.508 1.98 2.508 1.408 0 2.64-.792 2.816-.924l1.672 4.356a10.139 10.139 0 01-5.588 1.672zm14.558-25.432l4.136-6.908h5.852l-5.148 6.908h-4.84zm1.628 25.432c-6.072 0-8.008-3.564-8.008-9.284V45h5.896v12.364c0 3.08 1.32 4.488 4.048 4.488 3.08 0 4.576-2.596 4.576-5.588V45h5.896v22h-5.544v-3.08c-1.32 2.156-4.312 3.52-6.864 3.52zM.492 112V83.048h5.896V112H.492zm21.486.44c-6.556 0-11.748-5.06-11.748-11.44s5.192-11.44 11.748-11.44c6.6 0 11.792 5.06 11.792 11.44s-5.192 11.44-11.792 11.44zm0-5.456c3.3 0 5.764-2.508 5.764-5.984 0-3.432-2.463-5.984-5.764-5.984-3.3 0-5.764 2.552-5.764 5.984 0 3.476 2.465 5.984 5.765 5.984zm23.342 5.456c-4.708 0-7.744-1.848-8.976-2.992l2.112-4.532c1.496 1.144 3.564 2.332 6.864 2.332 1.364 0 3.608-.528 3.608-1.848s-1.892-1.628-3.784-2.156c-4.356-1.144-7.92-2.596-7.92-6.82 0-4.488 4.4-6.864 8.536-6.864 3.608 0 5.896.88 8.184 2.2l-1.98 4.4c-2.156-1.056-4.18-1.54-6.116-1.54-1.364 0-2.64.616-2.64 1.54 0 1.232 1.848 1.628 3.872 2.068 3.74.88 7.832 2.508 7.832 6.996 0 5.412-5.5 7.216-9.592 7.216zm22.762-.44V83.048h5.896V112h-5.896zm10.398 0V83.048h5.896V112H78.48zm19.683.44c-6.072 0-9.944-5.104-9.944-11.44 0-6.336 3.872-11.44 9.944-11.44 2.552 0 5.28 1.012 6.864 3.124V90h5.764v22h-5.764v-2.64c-1.54 2.112-4.312 3.08-6.864 3.08zm1.496-5.456c3.036 0 5.236-2.464 5.236-5.984 0-3.432-2.2-5.984-5.236-5.984-3.168 0-5.456 2.552-5.456 5.984 0 3.476 2.288 5.984 5.456 5.984zM115.262 112V90h5.764v2.948c1.276-1.98 3.872-3.388 6.512-3.388 3.476 0 5.632 1.452 6.776 3.916 1.584-2.64 4.62-3.916 7.128-3.916 6.204 0 8.14 4.268 8.14 9.9V112h-5.896v-11.792c0-2.904-.704-5.06-3.828-5.06-2.904 0-4.488 2.332-4.488 5.236V112h-5.896v-11.792c0-2.904-.66-5.06-3.828-5.06-2.992 0-4.488 2.552-4.488 5.456V112h-5.896zm49.896.44c-6.424 0-12.056-4.18-12.056-11.44 0-6.336 4.928-11.44 11.396-11.44 5.984 0 10.692 5.104 10.692 11.352 0 1.056-.132 2.112-.132 2.112h-15.972c.704 3.036 3.212 4.488 6.116 4.488 2.112 0 4.312-.616 5.94-1.716l2.2 4.224c-2.464 1.628-5.324 2.42-8.184 2.42zm-6.16-13.332h10.648c-.44-2.772-2.64-4.62-5.324-4.62-2.552 0-4.752 1.848-5.324 4.62zm27.904 13.332c-4.708 0-7.744-1.848-8.976-2.992l2.112-4.532c1.496 1.144 3.564 2.332 6.864 2.332 1.364 0 3.608-.528 3.608-1.848s-1.892-1.628-3.784-2.156c-4.356-1.144-7.92-2.596-7.92-6.82 0-4.488 4.4-6.864 8.536-6.864 3.608 0 5.896.88 8.184 2.2l-1.98 4.4c-2.156-1.056-4.18-1.54-6.116-1.54-1.364 0-2.64.616-2.64 1.54 0 1.232 1.848 1.628 3.872 2.068 3.74.88 7.832 2.508 7.832 6.996 0 5.412-5.5 7.216-9.592 7.216z" fill="#091C29"/></svg>