<svg width="402" height="32" viewBox="0 0 402 32" fill="none" xmlns="http://www.w3.org/2000/svg"><path d="M1.929 27.29c-.87 0-1.508-.696-1.508-1.537s.667-1.537 1.508-1.537 1.537.696 1.537 1.537-.696 1.537-1.537 1.537zm5.89 0c-.87 0-1.507-.696-1.507-1.537s.667-1.537 1.508-1.537c.84 0 1.537.696 1.537 1.537S8.66 27.29 7.82 27.29zm5.891 0c-.87 0-1.508-.696-1.508-1.537s.667-1.537 1.508-1.537 1.537.696 1.537 1.537-.696 1.537-1.537 1.537zm4.818 3.799V12.877h2.117v2.436c1.044-1.827 3.103-2.726 5.394-2.726 3.915 0 6.67 3.219 6.67 7.337s-2.755 7.366-6.67 7.366c-2.233 0-4.263-.928-5.307-2.755v6.554h-2.204zm7.018-5.945c2.813 0 4.9-2.204 4.9-5.22 0-2.987-2.087-5.191-4.9-5.191-2.697 0-4.814 2.233-4.814 5.191 0 2.958 2.117 5.22 4.814 5.22zm17.13 2.146c-4.147 0-7.424-3.248-7.424-7.337 0-4.118 3.277-7.366 7.424-7.366s7.424 3.248 7.424 7.366c0 4.089-3.277 7.337-7.424 7.337zm0-2.146c2.929 0 5.162-2.233 5.162-5.191 0-2.987-2.233-5.22-5.162-5.22-2.93 0-5.162 2.233-5.162 5.22 0 2.958 2.233 5.191 5.162 5.191zM53.22 27V12.877h2.204v2.987c.812-1.856 2.64-3.277 5.452-3.277v2.407c-3.306 0-5.452 1.856-5.452 5.307V27H53.22zm21.238.29c-2.494 0-3.973-1.218-3.973-4.524v-8.062h-2.117v-1.827h2.117V9.832l2.204-.406v3.451h4.814v1.827h-4.814v8.12c0 1.943.841 2.494 1.972 2.494 1.305 0 2.32-.783 2.32-.783l.725 1.711c-.551.377-1.711 1.044-3.248 1.044zm10.766 0c-3.48 0-5.133-1.827-5.133-5.597v-8.816h2.204v8.526c0 2.639 1.276 3.741 3.567 3.741 2.552 0 4.03-2.088 4.03-4.263v-8.004h2.205V27H89.98v-2.494c-.87 1.827-2.9 2.784-4.756 2.784zm16.905-.29V12.877h2.204v2.407c.986-1.711 2.813-2.697 4.901-2.697 3.538 0 5.104 2.146 5.104 5.858V27h-2.204v-8.265c0-2.61-.957-4.002-3.509-4.002-2.523 0-4.292 1.972-4.292 4.321V27h-2.204zm19.808-16.385 2.349-3.857h2.407l-2.726 3.857h-2.03zm.783 16.675c-3.48 0-5.133-1.827-5.133-5.597v-8.816h2.204v8.526c0 2.639 1.276 3.741 3.567 3.741 2.552 0 4.031-2.088 4.031-4.263v-8.004h2.204V27h-2.117v-2.494c-.87 1.827-2.9 2.784-4.756 2.784zm10.59-.29V12.877h2.204v2.436c.783-1.537 2.552-2.726 4.524-2.726 2.262 0 3.857.986 4.524 2.987 1.015-2.059 3.219-2.987 4.872-2.987 3.393 0 5.191 1.972 5.191 5.858V27h-2.233v-8.265c0-2.407-.841-4.002-3.422-4.002-2.378 0-3.886 1.914-3.886 4.031V27h-2.233v-8.265c0-2.407-.841-4.002-3.393-4.002-2.465 0-3.944 2.088-3.944 4.147V27h-2.204zm31.567.29c-4.002 0-7.395-2.871-7.395-7.337 0-4.089 3.074-7.366 7.105-7.366 3.77 0 6.757 3.248 6.757 7.279 0 .406-.058.841-.058.87h-11.513c.348 2.813 2.523 4.582 5.133 4.582 1.595 0 3.19-.551 4.35-1.508l.957 1.624a8.642 8.642 0 0 1-5.336 1.856zm-5.104-8.236h9.396c-.232-2.61-2.233-4.495-4.698-4.495-2.407 0-4.379 1.856-4.698 4.495zM174.488 27V12.877h2.204v2.987c.812-1.856 2.639-3.277 5.452-3.277v2.407c-3.306 0-5.452 1.856-5.452 5.307V27h-2.204zm16.756.29c-4.147 0-7.424-3.248-7.424-7.337 0-4.118 3.277-7.366 7.424-7.366s7.424 3.248 7.424 7.366c0 4.089-3.277 7.337-7.424 7.337zm0-2.146c2.929 0 5.162-2.233 5.162-5.191 0-2.987-2.233-5.22-5.162-5.22s-5.162 2.233-5.162 5.22c0 2.958 2.233 5.191 5.162 5.191zm22.95 2.146c-3.915 0-6.67-3.248-6.67-7.337 0-4.147 2.755-7.366 6.67-7.366 2.262 0 4.263.928 5.307 2.755V7.918h2.204V27h-2.117v-2.465c-1.044 1.856-3.103 2.755-5.394 2.755zm.493-2.146c2.697 0 4.814-2.233 4.814-5.191 0-2.958-2.117-5.22-4.814-5.22-2.813 0-4.901 2.204-4.901 5.22 0 2.987 2.088 5.191 4.901 5.191zm17.536 2.146c-4.002 0-7.395-2.871-7.395-7.337 0-4.089 3.074-7.366 7.105-7.366 3.77 0 6.757 3.248 6.757 7.279 0 .406-.058.841-.058.87h-11.513c.348 2.813 2.523 4.582 5.133 4.582 1.595 0 3.19-.551 4.35-1.508l.957 1.624a8.642 8.642 0 0 1-5.336 1.856zm-5.104-8.236h9.396c-.232-2.61-2.233-4.495-4.698-4.495-2.407 0-4.379 1.856-4.698 4.495z" fill="#000"/><path d="M247.782 27V4.32h5.67l4.445 6.37c.735 1.085 1.925 2.94 1.925 2.94s1.19-1.855 1.925-2.94l4.445-6.37h5.67V27h-6.65V15.52s-1.155 1.855-1.785 2.73l-3.605 5.04-3.64-5.04c-.63-.875-1.75-2.66-1.75-2.66V27h-6.65zm37.095.35c-5.425 0-10.045-3.395-10.045-9.275 0-5.18 4.025-9.31 9.31-9.31 5.075 0 8.96 4.13 8.96 9.31 0 1.085-.14 2.065-.14 2.065h-11.865c.525 1.68 2.1 2.31 3.815 2.31 1.505 0 3.115-.455 4.235-1.085l2.135 4.305c-1.995 1.225-4.2 1.68-6.405 1.68zm-3.955-10.815h6.37c-.21-1.645-1.505-2.765-3.15-2.765-1.575 0-2.835 1.12-3.22 2.765zm21.946 10.815c-4.97 0-7.665-4.13-7.665-9.275 0-5.18 2.87-9.31 7.875-9.31 1.435 0 3.22.49 4.305 1.855V3.97h6.37V27h-6.02v-1.995c-.945 1.82-3.43 2.345-4.865 2.345zm1.68-5.6c1.68 0 2.87-1.505 2.87-3.675 0-2.135-1.19-3.71-2.87-3.71-1.68 0-2.87 1.575-2.87 3.71 0 2.17 1.19 3.675 2.87 3.675zM316.54 27V9.115h6.37V27h-6.37zm3.15-19.25c-1.96 0-3.605-1.645-3.605-3.605 0-1.995 1.645-3.64 3.605-3.64 2.03 0 3.675 1.645 3.675 3.64 0 1.96-1.645 3.605-3.675 3.605zm15.32 19.6c-5.495 0-9.66-4.13-9.66-9.275 0-5.18 4.165-9.31 9.66-9.31 2.45 0 4.445.735 6.335 2.24l-3.675 4.41c-.665-.63-1.4-1.05-2.485-1.05-2.065 0-3.395 1.575-3.395 3.71 0 2.17 1.295 3.675 3.535 3.675 1.225 0 2.24-.525 3.01-1.295l3.185 4.69c-1.715 1.435-3.99 2.205-6.51 2.205zm15.026 0c-4.97 0-7.665-4.13-7.665-9.275 0-5.18 2.695-9.31 7.665-9.31 1.435 0 3.815.49 4.865 2.345V9.115h6.02V27h-6.02v-1.995c-.98 1.82-3.43 2.345-4.865 2.345zm1.68-5.6c1.68 0 2.87-1.505 2.87-3.675 0-2.135-1.19-3.71-2.87-3.71-1.68 0-2.87 1.575-2.87 3.71 0 2.17 1.19 3.675 2.87 3.675zM363.708 27V9.115h6.195V12.3c.105-.77 1.645-3.535 5.845-3.535v6.93c-4.62 0-5.67 1.925-5.67 5.285V27h-6.37zm23.845.35c-5.425 0-10.045-3.395-10.045-9.275 0-5.18 4.025-9.31 9.31-9.31 5.075 0 8.96 4.13 8.96 9.31 0 1.085-.14 2.065-.14 2.065h-11.865c.525 1.68 2.1 2.31 3.815 2.31 1.505 0 3.115-.455 4.235-1.085l2.135 4.305c-1.995 1.225-4.2 1.68-6.405 1.68zm-3.955-10.815h6.37c-.21-1.645-1.505-2.765-3.15-2.765-1.575 0-2.835 1.12-3.22 2.765zm14.275 14.438 1.421-6.641h2.175l-2.03 6.641h-1.566z" fill="#0B2E54"/></svg>