<svg width="340" height="28" viewBox="0 0 340 28" fill="none" xmlns="http://www.w3.org/2000/svg"><path d="M.36 23V5.626h5.848v2.006c1.598-1.87 3.502-2.346 5.236-2.346 4.386 0 6.086 2.584 6.086 7.684V23h-6.188v-9.248c0-1.972-.748-2.686-1.938-2.686-1.904 0-2.856 1.598-2.856 3.74V23H.36zm26.897.34c-5.236 0-6.324-3.264-6.324-7.684V5.626h6.188v9.248c0 1.836.612 2.686 2.244 2.686 1.87 0 2.55-1.598 2.55-3.74V5.626h6.188V23h-5.848v-1.904c-.952 1.224-3.196 2.244-4.998 2.244zM41.845 23V5.626h5.848v2.006c1.598-1.87 3.502-2.346 5.236-2.346 4.386 0 6.086 2.584 6.086 7.684V23h-6.188v-9.248c0-1.972-.748-2.686-1.938-2.686-1.904 0-2.856 1.598-2.856 3.74V23h-6.188zm29.787.34c-5.338 0-9.384-4.012-9.384-9.01 0-5.032 4.046-9.044 9.384-9.044 2.38 0 4.318.714 6.154 2.176l-3.57 4.284c-.646-.612-1.36-1.02-2.414-1.02-2.006 0-3.298 1.53-3.298 3.604 0 2.108 1.258 3.57 3.434 3.57 1.19 0 2.176-.51 2.924-1.258l3.094 4.556c-1.666 1.394-3.876 2.142-6.324 2.142zm15.617 0c-4.828 0-7.446-4.012-7.446-9.01 0-5.032 2.618-9.044 7.446-9.044 1.394 0 3.706.476 4.726 2.278V5.626h5.848V23h-5.848v-1.938c-.952 1.768-3.332 2.278-4.726 2.278zm1.632-5.44c1.632 0 2.788-1.462 2.788-3.57 0-2.074-1.156-3.604-2.788-3.604s-2.788 1.53-2.788 3.604c0 2.108 1.156 3.57 2.788 3.57zm21.226 5.1V.628h6.188V23h-6.188zm18.962.34c-5.338 0-9.384-4.012-9.384-9.01 0-5.032 4.046-9.044 9.384-9.044s9.384 4.012 9.384 9.044c0 4.998-4.046 9.01-9.384 9.01zm0-5.44c1.836 0 3.128-1.462 3.128-3.57 0-2.074-1.292-3.604-3.128-3.604s-3.128 1.53-3.128 3.604c0 2.108 1.292 3.57 3.128 3.57zm30.396 5.44c-5.338 0-9.384-4.012-9.384-9.01 0-5.032 4.046-9.044 9.384-9.044 2.38 0 4.318.714 6.154 2.176l-3.57 4.284c-.646-.612-1.36-1.02-2.414-1.02-2.006 0-3.298 1.53-3.298 3.604 0 2.108 1.258 3.57 3.434 3.57 1.19 0 2.176-.51 2.924-1.258l3.094 4.556c-1.666 1.394-3.876 2.142-6.324 2.142zm17.555 0c-5.338 0-9.384-4.012-9.384-9.01 0-5.032 4.046-9.044 9.384-9.044s9.384 4.012 9.384 9.044c0 4.998-4.046 9.01-9.384 9.01zm0-5.44c1.836 0 3.128-1.462 3.128-3.57 0-2.074-1.292-3.604-3.128-3.604s-3.128 1.53-3.128 3.604c0 2.108 1.292 3.57 3.128 3.57zm12.794 5.1V5.626h5.848V7.53c1.292-1.462 3.298-2.244 5.236-2.244 2.788 0 4.284 1.122 5.1 2.686 1.496-2.176 3.808-2.686 5.542-2.686 5.61 0 6.086 4.522 6.086 8.024V23h-6.188v-8.976c0-2.074-.578-3.026-1.938-3.026-1.836 0-2.686 1.666-2.686 3.808V23h-6.188v-8.976c0-2.074-.578-3.026-1.938-3.026-1.836 0-2.686 1.666-2.686 3.808V23h-6.188zm31.368 4.998V5.626h5.848v1.938c1.394-1.87 3.332-2.278 4.726-2.278 4.828 0 7.446 4.012 7.446 9.01 0 5.032-2.788 9.044-7.65 9.044-1.394 0-3.128-.476-4.182-1.802v6.46h-6.188zM230.09 17.9c1.632 0 2.788-1.462 2.788-3.57 0-2.074-1.156-3.604-2.788-3.604s-2.788 1.53-2.788 3.604c0 2.108 1.156 3.57 2.788 3.57zm19.605 5.44c-4.828 0-7.446-4.012-7.446-9.01 0-5.032 2.618-9.044 7.446-9.044 1.394 0 3.706.476 4.726 2.278V5.626h5.848V23h-5.848v-1.938c-.952 1.768-3.332 2.278-4.726 2.278zm1.632-5.44c1.632 0 2.788-1.462 2.788-3.57 0-2.074-1.156-3.604-2.788-3.604s-2.788 1.53-2.788 3.604c0 2.108 1.156 3.57 2.788 3.57zm12.668 5.1V5.626h6.018V8.72c.102-.748 1.598-3.434 5.678-3.434v6.732c-4.488 0-5.508 1.87-5.508 5.134V23h-6.188zm22.367.34c-3.332 0-5.508-2.142-5.508-5.95v-6.868h-2.55V5.626h2.55V2.498l6.188-1.53v4.658h3.842v4.896h-3.842v6.392c0 .816.408 1.088.952 1.088.51 0 1.122-.238 1.564-.544l1.666 4.522c-1.496 1.054-3.332 1.36-4.862 1.36zm14.604 0c-4.828 0-7.446-4.012-7.446-9.01 0-5.032 2.618-9.044 7.446-9.044 1.394 0 3.706.476 4.726 2.278V5.626h5.848V23h-5.848v-1.938c-.952 1.768-3.332 2.278-4.726 2.278zm1.632-5.44c1.632 0 2.788-1.462 2.788-3.57 0-2.074-1.156-3.604-2.788-3.604s-2.788 1.53-2.788 3.604c0 2.108 1.156 3.57 2.788 3.57zm19.06 5.44c-3.978 0-6.188-1.19-7.208-2.074l1.972-4.352c1.36.918 2.618 1.462 5.27 1.462.068 0 1.7-.102 1.7-.782 0-.544-1.02-.646-2.04-.884-3.774-.918-6.562-2.448-6.562-5.644 0-3.808 3.468-5.78 7.14-5.78 3.366 0 5.372.748 7.038 1.632l-1.836 4.148c-2.006-.782-3.842-1.02-4.998-1.02-.612 0-1.088.204-1.088.544 0 .646 1.462.884 3.196 1.36 2.448.714 5.406 1.904 5.406 5.406 0 4.658-4.726 5.984-7.99 5.984zm14.669 0c-1.938 0-3.366-1.462-3.366-3.332 0-1.87 1.428-3.332 3.366-3.332 1.972 0 3.434 1.462 3.434 3.332 0 1.87-1.462 3.332-3.434 3.332z" fill="#0B2E54"/></svg>