<svg width="366" height="53" viewBox="0 0 366 53" fill="none" xmlns="http://www.w3.org/2000/svg"><path d="M8.03 21.3c-3.84 0-6.18-1.53-7.59-3.03l1.02-1.8c1.56 1.53 3.66 2.64 6.6 2.64 2.52 0 5.16-1.11 5.16-3.51 0-2.22-2.52-2.88-5.01-3.51-3.48-.87-6.96-1.98-6.96-5.58 0-3.48 3.33-5.25 6.81-5.25 2.4 0 4.59.6 6.54 2.16l-.99 1.83c-1.74-1.35-3.69-1.8-5.55-1.8-1.92 0-4.38.9-4.38 3.06 0 2.01 2.22 2.67 4.83 3.33 3.6.9 7.23 2.13 7.23 5.76 0 3.99-3.99 5.7-7.71 5.7zm11.683-.3V6.39h2.28V21h-2.28zm1.14-17.22c-.84 0-1.5-.66-1.5-1.5s.66-1.53 1.5-1.53 1.53.69 1.53 1.53c0 .84-.69 1.5-1.53 1.5zM38.46 21.3c-2.58 0-4.11-1.26-4.11-4.68V8.28h-2.19V6.39h2.19V3.24l2.28-.42v3.57h4.98v1.89h-4.98v8.4c0 2.01.87 2.58 2.04 2.58 1.35 0 2.4-.81 2.4-.81l.75 1.77c-.57.39-1.77 1.08-3.36 1.08zm13.54 0c-4.14 0-7.65-2.97-7.65-7.59 0-4.23 3.18-7.62 7.35-7.62 3.9 0 6.99 3.36 6.99 7.53 0 .42-.06.87-.06.9H46.72c.36 2.91 2.61 4.74 5.31 4.74 1.65 0 3.3-.57 4.5-1.56l.99 1.68A8.94 8.94 0 0 1 52 21.3zm-5.28-8.52h9.72c-.24-2.7-2.31-4.65-4.86-4.65-2.49 0-4.53 1.92-4.86 4.65zm30.036 8.52c-4.29 0-7.68-3.36-7.68-7.59 0-4.26 3.39-7.62 7.68-7.62 4.29 0 7.68 3.36 7.68 7.62 0 4.23-3.39 7.59-7.68 7.59zm0-2.22c3.03 0 5.34-2.31 5.34-5.37 0-3.09-2.31-5.4-5.34-5.4s-5.34 2.31-5.34 5.4c0 3.06 2.31 5.37 5.34 5.37zM88.594 21V8.28h-2.37V6.39h2.37V5.28c0-3.63 1.92-4.62 3.93-4.62 1.44 0 2.79.54 3.51.99l-.75 1.74c-.3-.18-1.17-.72-2.28-.72-1.14 0-2.13.57-2.13 2.85v.87h4.65v1.89h-4.65V21h-2.28zm9.704 0V6.39h2.28v3.09c.84-1.92 2.73-3.39 5.64-3.39v2.49c-3.42 0-5.64 1.92-5.64 5.49V21h-2.28zm17.904.3c-4.14 0-7.65-2.97-7.65-7.59 0-4.23 3.18-7.62 7.35-7.62 3.9 0 6.99 3.36 6.99 7.53 0 .42-.06.87-.06.9h-11.91c.36 2.91 2.61 4.74 5.31 4.74 1.65 0 3.3-.57 4.5-1.56l.99 1.68a8.94 8.94 0 0 1-5.52 1.92zm-5.28-8.52h9.72c-.24-2.7-2.31-4.65-4.86-4.65-2.49 0-4.53 1.92-4.86 4.65zm22.902 8.52c-4.29 0-7.68-3.33-7.68-7.59s3.39-7.62 7.68-7.62c2.01 0 3.84.72 5.22 1.95l-1.44 1.62c-.9-.84-2.22-1.35-3.75-1.35-3.06 0-5.37 2.28-5.37 5.4 0 3.03 2.22 5.37 5.43 5.37 1.65 0 3.15-.63 4.17-1.65l1.32 1.71c-1.41 1.35-3.39 2.16-5.58 2.16zm15.629 0c-4.14 0-7.65-2.97-7.65-7.59 0-4.23 3.18-7.62 7.35-7.62 3.9 0 6.99 3.36 6.99 7.53 0 .42-.06.87-.06.9h-11.91c.36 2.91 2.61 4.74 5.31 4.74 1.65 0 3.3-.57 4.5-1.56l.99 1.68a8.94 8.94 0 0 1-5.52 1.92zm-5.28-8.52h9.72c-.24-2.7-2.31-4.65-4.86-4.65-2.49 0-4.53 1.92-4.86 4.65zM159.995 21V6.39h2.28v2.49c1.02-1.77 2.91-2.79 5.07-2.79 3.66 0 5.28 2.22 5.28 6.06V21h-2.28v-8.55c0-2.7-.99-4.14-3.63-4.14-2.61 0-4.44 2.04-4.44 4.47V21h-2.28zM7.97 48.3c-4.14 0-7.65-2.97-7.65-7.59 0-4.23 3.18-7.62 7.35-7.62 3.9 0 6.99 3.36 6.99 7.53 0 .42-.06.87-.06.9H2.69c.36 2.91 2.61 4.74 5.31 4.74 1.65 0 3.3-.57 4.5-1.56l.99 1.68a8.94 8.94 0 0 1-5.52 1.92zm-5.28-8.52h9.72c-.24-2.7-2.31-4.65-4.86-4.65-2.49 0-4.53 1.92-4.86 4.65zm27.612 12.45v-6.78c-1.08 1.89-3.15 2.85-5.49 2.85-4.05 0-6.9-3.36-6.9-7.62s2.85-7.59 6.9-7.59c2.37 0 4.5.93 5.58 2.82v-2.52h2.19v18.84h-2.28zm-4.98-6.15c2.79 0 4.98-2.34 4.98-5.4 0-3.06-2.19-5.37-4.98-5.37-2.91 0-5.07 2.28-5.07 5.37 0 3.12 2.16 5.4 5.07 5.4zm16.76 2.22c-3.6 0-5.31-1.89-5.31-5.79v-9.12h2.28v8.82c0 2.73 1.32 3.87 3.69 3.87 2.64 0 4.17-2.16 4.17-4.41v-8.28h2.28V48h-2.19v-2.58c-.9 1.89-3 2.88-4.92 2.88zm11.556-.3V33.39h2.28V48h-2.28zm1.14-17.22c-.84 0-1.5-.66-1.5-1.5s.66-1.53 1.5-1.53 1.53.69 1.53 1.53c0 .84-.69 1.5-1.53 1.5zm5.583 21.45V33.39h2.19v2.52c1.08-1.89 3.21-2.82 5.58-2.82 4.05 0 6.9 3.33 6.9 7.59s-2.85 7.62-6.9 7.62c-2.31 0-4.41-.96-5.49-2.85v6.78h-2.28zm7.26-6.15c2.91 0 5.07-2.28 5.07-5.4 0-3.09-2.16-5.37-5.07-5.37-2.79 0-4.98 2.31-4.98 5.37s2.19 5.4 4.98 5.4zm18.32 2.22c-4.29 0-7.68-3.36-7.68-7.59 0-4.26 3.39-7.62 7.68-7.62 4.29 0 7.68 3.36 7.68 7.62 0 4.23-3.39 7.59-7.68 7.59zm0-2.22c3.03 0 5.34-2.31 5.34-5.37 0-3.09-2.31-5.4-5.34-5.4s-5.34 2.31-5.34 5.4c0 3.06 2.31 5.37 5.34 5.37zM104.583 48V33.39h2.28v2.52c.81-1.59 2.64-2.82 4.68-2.82 2.34 0 3.99 1.02 4.68 3.09 1.05-2.13 3.33-3.09 5.04-3.09 3.51 0 5.37 2.04 5.37 6.06V48h-2.31v-8.55c0-2.49-.87-4.14-3.54-4.14-2.46 0-4.02 1.98-4.02 4.17V48h-2.31v-8.55c0-2.49-.87-4.14-3.51-4.14-2.55 0-4.08 2.16-4.08 4.29V48h-2.28zm31.395-16.95 2.43-3.99h2.49l-2.82 3.99h-2.1zm1.86 17.25c-4.14 0-7.65-2.97-7.65-7.59 0-4.23 3.18-7.62 7.35-7.62 3.9 0 6.99 3.36 6.99 7.53 0 .42-.06.87-.06.9h-11.91c.36 2.91 2.61 4.74 5.31 4.74 1.65 0 3.3-.57 4.5-1.56l.99 1.68a8.94 8.94 0 0 1-5.52 1.92zm-5.28-8.52h9.72c-.24-2.7-2.31-4.65-4.86-4.65-2.49 0-4.53 1.92-4.86 4.65zm22.123 8.52c-4.05 0-6.9-3.36-6.9-7.59 0-4.29 2.85-7.62 6.9-7.62 2.34 0 4.41.96 5.49 2.85v-7.68h2.28V48h-2.19v-2.55c-1.08 1.92-3.21 2.85-5.58 2.85zm.51-2.22c2.79 0 4.98-2.31 4.98-5.37s-2.19-5.4-4.98-5.4c-2.91 0-5.07 2.28-5.07 5.4 0 3.09 2.16 5.37 5.07 5.37zm11.69 1.92V33.39h2.28V48h-2.28zm1.14-17.22c-.84 0-1.5-.66-1.5-1.5s.66-1.53 1.5-1.53 1.53.69 1.53 1.53c0 .84-.69 1.5-1.53 1.5zm12.663 17.52c-4.29 0-7.68-3.33-7.68-7.59s3.39-7.62 7.68-7.62c2.01 0 3.84.72 5.22 1.95l-1.44 1.62c-.9-.84-2.22-1.35-3.75-1.35-3.06 0-5.37 2.28-5.37 5.4 0 3.03 2.22 5.37 5.43 5.37 1.65 0 3.15-.63 4.17-1.65l1.32 1.71c-1.41 1.35-3.39 2.16-5.58 2.16zm15.659 0c-4.29 0-7.68-3.36-7.68-7.59 0-4.26 3.39-7.62 7.68-7.62 4.29 0 7.68 3.36 7.68 7.62 0 4.23-3.39 7.59-7.68 7.59zm0-2.22c3.03 0 5.34-2.31 5.34-5.37 0-3.09-2.31-5.4-5.34-5.4s-5.34 2.31-5.34 5.4c0 3.06 2.31 5.37 5.34 5.37z" fill="#000"/><path d="M223.426 36.813V26.616h4.488v10.197h-4.488zm-7.524 0V26.616h4.488v10.197h-4.488zm26.527 16.038c-3.3 0-5.874-.759-7.392-1.782l2.145-3.762c1.32.858 3.234 1.089 4.587 1.089 2.178 0 3.3-.99 3.696-2.079.132-.33.198-.66.198-.99-.924 1.221-2.739 1.683-4.092 1.683-4.686 0-7.392-3.63-7.392-8.085 0-4.488 2.706-8.118 7.392-8.118 1.353 0 3.498.495 4.422 2.211v-1.881h5.676v12.276c0 4.818-2.145 9.438-9.24 9.438zm.561-11.022c1.584 0 2.706-1.188 2.706-2.904s-1.122-2.937-2.706-2.937c-1.584 0-2.706 1.221-2.706 2.937 0 1.716 1.122 2.904 2.706 2.904zM254.795 48V31.137h5.841v3.003c.099-.726 1.551-3.333 5.511-3.333v6.534c-4.356 0-5.346 1.815-5.346 4.983V48h-6.006zm20.899.33c-4.686 0-7.227-3.894-7.227-8.745 0-4.884 2.541-8.778 7.227-8.778 1.353 0 3.597.462 4.587 2.211v-1.881h5.676V48h-5.676v-1.881c-.924 1.716-3.234 2.211-4.587 2.211zm1.584-5.28c1.584 0 2.706-1.419 2.706-3.465 0-2.013-1.122-3.498-2.706-3.498-1.584 0-2.706 1.485-2.706 3.498 0 2.046 1.122 3.465 2.706 3.465zm18.698 5.28c-3.234 0-5.346-2.079-5.346-5.775v-6.666h-2.475v-4.752h2.475v-3.036l6.006-1.485v4.521h3.729v4.752h-3.729v6.204c0 .792.396 1.056.924 1.056.495 0 1.089-.231 1.518-.528l1.617 4.389c-1.452 1.023-3.234 1.32-4.719 1.32zm6.947-.33V31.137h6.006V48h-6.006zm2.97-18.15c-1.848 0-3.399-1.551-3.399-3.399 0-1.881 1.551-3.432 3.399-3.432 1.914 0 3.465 1.551 3.465 3.432 0 1.848-1.551 3.399-3.465 3.399zm12.531 18.48c-3.861 0-6.006-1.155-6.996-2.013l1.914-4.224c1.32.891 2.541 1.419 5.115 1.419.066 0 1.65-.099 1.65-.759 0-.528-.99-.627-1.98-.858-3.663-.891-6.369-2.376-6.369-5.478 0-3.696 3.366-5.61 6.93-5.61 3.267 0 5.214.726 6.831 1.584l-1.782 4.026c-1.947-.759-3.729-.99-4.851-.99-.594 0-1.056.198-1.056.528 0 .627 1.419.858 3.102 1.32 2.376.693 5.247 1.848 5.247 5.247 0 4.521-4.587 5.808-7.755 5.808zm19.418-11.517V26.616h4.488v10.197h-4.488zm-7.524 0V26.616h4.488v10.197h-4.488zM350.635 48.3c-.9 0-1.56-.72-1.56-1.59 0-.87.69-1.59 1.56-1.59.87 0 1.59.72 1.59 1.59a1.6 1.6 0 0 1-1.59 1.59zm6.694 0c-.9 0-1.56-.72-1.56-1.59 0-.87.69-1.59 1.56-1.59.87 0 1.59.72 1.59 1.59a1.6 1.6 0 0 1-1.59 1.59zm6.693 0c-.9 0-1.56-.72-1.56-1.59 0-.87.69-1.59 1.56-1.59.87 0 1.59.72 1.59 1.59a1.6 1.6 0 0 1-1.59 1.59z" fill="#0B2E54"/></svg>