<svg width="204" height="41" viewBox="0 0 204 41" fill="none" xmlns="http://www.w3.org/2000/svg"><rect x="1" y="1" width="202" height="39" rx="3" fill="#FFBA1A" stroke="#FFCF61" stroke-width="2"/><path d="M34.645 26.997V14.685h9.785v3.059h-6.175v1.5h5.928v3.022h-5.928v1.672h6.403v3.059H34.645zm11.828 0V14.685h3.078l2.413 3.458c.4.589 1.045 1.596 1.045 1.596s.646-1.007 1.045-1.596l2.413-3.458h3.078v12.312h-3.61v-6.232s-.627 1.007-.969 1.482l-1.957 2.736-1.976-2.736a37.813 37.813 0 0 1-.95-1.444v6.194h-3.61zm15.54 0V14.685h5.434c3.78 0 5.718 2.185 5.718 4.864s-1.938 4.864-5.738 4.864h-1.805v2.584h-3.61zm3.61-5.643h1.9c1.064 0 1.824-.798 1.824-1.805s-.76-1.805-1.805-1.805h-1.92v3.61zm9.61 5.643V14.685h3.61v12.312h-3.61zm6.076 0V14.685h9.785v3.059h-6.175v1.5h5.928v3.022h-5.928v1.672h6.403v3.059H81.309zm11.258 0v-2.584l4.503-5.51c.513-.627 1.064-1.16 1.064-1.16h-5.301v-3.058h10.051v2.622l-4.237 5.225c-.475.589-1.254 1.406-1.254 1.406h5.662v3.059H92.567zm11.858 0 4.978-12.312h3.724l4.978 12.312h-3.686l-.57-1.596h-5.168l-.57 1.596h-3.686zm5.225-4.37h3.23l-1.463-4.161c-.114-.304-.133-.418-.152-.494 0 0-.038.17-.152.494l-1.463 4.16zm13.737 4.37 4.978-12.312h3.724l4.978 12.312h-3.686l-.57-1.596h-5.168l-.57 1.596h-3.686zm5.225-4.37h3.23l-1.463-4.161c-.114-.304-.133-.418-.152-.494 0 0-.038.17-.152.494l-1.463 4.16zm15.49 4.598c-3.952 0-6.593-2.831-6.593-6.384 0-3.515 2.641-6.346 6.593-6.346s6.612 2.83 6.612 6.346c0 1.5-.475 2.869-1.33 3.952l.798.798-1.634 1.653-.912-.912c-.988.57-2.185.893-3.534.893zm0-3.268c.361 0 .684-.057.988-.171l-.912-.931 1.653-1.634.893.912c.152-.38.228-.817.228-1.292 0-1.786-1.178-3.078-2.85-3.078-1.558 0-2.831 1.292-2.831 3.078 0 1.824 1.178 3.116 2.831 3.116zm14.149 3.268c-3.116 0-5.491-1.73-5.491-5.111v-7.43h3.61v7.22c0 1.483.855 2.053 1.881 2.053s1.881-.57 1.881-2.052v-7.22h3.61v7.429c0 3.382-2.375 5.11-5.491 5.11zm7.915-.228V14.685h3.61v12.312h-3.61zm.076-12.92 1.995-3.401h3.325l-2.755 3.4h-2.565z" fill="#101B31"/></svg>