<svg width="236" height="57" viewBox="0 0 236 57" fill="none" xmlns="http://www.w3.org/2000/svg"><path d="M2.074 18.688c0-.438.16-.817.48-1.137.321-.32.704-.48 1.15-.48.444 0 .827.16 1.148.48.32.32.48.703.48 1.148 0 .453-.16.84-.48 1.16a1.562 1.562 0 01-1.149.47c-.46 0-.848-.157-1.16-.47-.313-.312-.469-.703-.469-1.172zm6.686 0c0-.438.16-.817.48-1.137.321-.32.704-.48 1.15-.48.445 0 .827.16 1.148.48.32.32.48.703.48 1.148 0 .453-.16.84-.48 1.16a1.562 1.562 0 01-1.149.47c-.46 0-.847-.157-1.16-.47-.312-.312-.469-.703-.469-1.172zm6.687 0c0-.438.16-.817.48-1.137.32-.32.703-.48 1.149-.48.445 0 .828.16 1.148.48.32.32.48.703.48 1.148 0 .453-.16.84-.48 1.16a1.562 1.562 0 01-1.148.47c-.461 0-.848-.157-1.16-.47-.313-.312-.47-.703-.47-1.172zm15.159-9.61v3.504c-.602-.734-1.141-1.238-1.618-1.512-.468-.28-1.02-.422-1.652-.422-.992 0-1.816.348-2.473 1.043-.656.696-.984 1.567-.984 2.614 0 1.07.316 1.949.95 2.636.64.688 1.456 1.032 2.448 1.032.633 0 1.192-.137 1.676-.41.469-.266 1.02-.782 1.653-1.547v3.48c-1.07.555-2.141.832-3.211.832-1.766 0-3.242-.57-4.43-1.71-1.188-1.15-1.781-2.575-1.781-4.278 0-1.703.601-3.14 1.804-4.313 1.204-1.172 2.68-1.757 4.43-1.757a6.62 6.62 0 013.188.808zm1.295 5.133c0-1.649.59-3.05 1.77-4.207 1.18-1.156 2.617-1.734 4.312-1.734 1.703 0 3.149.582 4.336 1.746 1.172 1.164 1.758 2.593 1.758 4.289 0 1.71-.59 3.144-1.77 4.3-1.187 1.149-2.644 1.723-4.37 1.723-1.712 0-3.145-.586-4.301-1.758-1.157-1.156-1.735-2.61-1.735-4.36zm2.696.047c0 1.14.304 2.043.914 2.707.625.672 1.449 1.008 2.472 1.008 1.032 0 1.856-.332 2.473-.996.617-.665.926-1.551.926-2.66 0-1.11-.309-1.997-.926-2.66-.625-.673-1.45-1.009-2.473-1.009-1.008 0-1.824.336-2.449 1.008-.625.672-.937 1.54-.937 2.602zm11.56-5.672h2.638V9.64c.507-.532.94-.891 1.3-1.079.383-.195.864-.292 1.442-.292 1.289 0 2.308.562 3.058 1.687.828-1.125 1.95-1.687 3.364-1.687 2.57 0 3.855 1.558 3.855 4.675V20h-2.648v-6.34c0-1.094-.133-1.867-.399-2.32-.273-.461-.723-.692-1.348-.692-.726 0-1.257.274-1.593.82-.328.548-.492 1.427-.492 2.637V20h-2.649v-6.305c0-2.03-.586-3.047-1.758-3.047-.742 0-1.285.278-1.629.832-.336.555-.504 1.43-.504 2.625V20h-2.636V8.586zm17.726 5.625c0-1.649.59-3.05 1.77-4.207 1.18-1.156 2.617-1.734 4.312-1.734 1.703 0 3.149.582 4.336 1.746 1.172 1.164 1.758 2.593 1.758 4.289 0 1.71-.59 3.144-1.77 4.3-1.187 1.149-2.644 1.723-4.37 1.723-1.712 0-3.145-.586-4.301-1.758-1.157-1.156-1.735-2.61-1.735-4.36zm2.695.047c0 1.14.305 2.043.915 2.707.625.672 1.449 1.008 2.472 1.008 1.031 0 1.856-.332 2.473-.996.617-.665.926-1.551.926-2.66 0-1.11-.309-1.997-.926-2.66-.625-.673-1.45-1.009-2.473-1.009-1.008 0-1.824.336-2.45 1.008-.624.672-.937 1.54-.937 2.602zm27.13-5.18v3.504c-.6-.734-1.14-1.238-1.616-1.512-.47-.28-1.02-.422-1.653-.422-.992 0-1.816.348-2.472 1.043-.657.696-.985 1.567-.985 2.614 0 1.07.317 1.949.95 2.636.64.688 1.456 1.032 2.449 1.032.632 0 1.191-.137 1.675-.41.47-.266 1.02-.782 1.653-1.547v3.48c-1.07.555-2.14.832-3.211.832-1.766 0-3.242-.57-4.43-1.71-1.187-1.15-1.781-2.575-1.781-4.278 0-1.703.601-3.14 1.805-4.313 1.203-1.172 2.68-1.757 4.43-1.757a6.62 6.62 0 013.187.808zm4.472-.492v6.55c0 1.891.746 2.837 2.238 2.837 1.493 0 2.239-.946 2.239-2.836V8.586h2.636v6.61c0 .913-.113 1.702-.339 2.367-.219.593-.598 1.128-1.137 1.605-.891.773-2.024 1.16-3.399 1.16-1.367 0-2.496-.387-3.386-1.16-.547-.477-.934-1.012-1.16-1.605-.22-.532-.329-1.32-.329-2.368v-6.61h2.637zm12.358 0V20h-2.636V8.586h2.636zm-3.035-4.746c0-.461.168-.86.504-1.195a1.646 1.646 0 011.207-.504c.477 0 .883.168 1.219.504.336.328.504.73.504 1.207 0 .476-.168.882-.504 1.218a1.623 1.623 0 01-1.207.504 1.66 1.66 0 01-1.219-.504 1.674 1.674 0 01-.504-1.23zM121.572.207h2.649V20h-2.649v-1.195c-1.039 1.015-2.215 1.523-3.527 1.523-1.563 0-2.86-.57-3.891-1.71-1.023-1.165-1.535-2.618-1.535-4.36 0-1.703.512-3.125 1.535-4.266 1.016-1.148 2.293-1.722 3.832-1.722 1.336 0 2.532.546 3.586 1.64V.207zm-6.258 14.05c0 1.095.293 1.985.879 2.673.602.695 1.36 1.043 2.274 1.043.976 0 1.765-.336 2.367-1.008.601-.695.902-1.578.902-2.649 0-1.07-.301-1.953-.902-2.648-.602-.68-1.383-1.02-2.344-1.02-.906 0-1.664.344-2.273 1.032-.602.695-.903 1.554-.903 2.578zm19.929-5.671h2.648V20h-2.648v-1.195c-1.086 1.015-2.254 1.523-3.504 1.523-1.578 0-2.883-.57-3.914-1.71-1.024-1.165-1.535-2.618-1.535-4.36 0-1.711.511-3.137 1.535-4.278 1.023-1.14 2.305-1.71 3.844-1.71 1.328 0 2.519.546 3.574 1.64V8.586zm-6.258 5.672c0 1.094.293 1.984.879 2.672.601.695 1.359 1.043 2.273 1.043.977 0 1.766-.336 2.368-1.008.601-.695.902-1.578.902-2.649 0-1.07-.301-1.953-.902-2.648-.602-.68-1.383-1.02-2.344-1.02-.906 0-1.664.344-2.274 1.032-.601.695-.902 1.554-.902 2.578zm18.147-3.727l-2.18 1.16c-.343-.703-.769-1.054-1.277-1.054a.868.868 0 00-.621.246.785.785 0 00-.258.61c0 .437.508.87 1.524 1.3 1.398.602 2.34 1.156 2.824 1.664s.726 1.191.726 2.05c0 1.102-.406 2.024-1.218 2.766-.789.704-1.742 1.055-2.86 1.055-1.914 0-3.269-.933-4.066-2.8l2.25-1.044c.312.547.551.895.715 1.043.32.297.703.446 1.148.446.891 0 1.336-.407 1.336-1.22 0-.468-.344-.905-1.031-1.312a37.276 37.276 0 00-.797-.386 74.705 74.705 0 01-.809-.387c-.765-.375-1.304-.75-1.617-1.125-.398-.477-.597-1.09-.597-1.84 0-.992.339-1.812 1.019-2.46.695-.65 1.539-.973 2.531-.973 1.461 0 2.547.753 3.258 2.261zm11.802.516V20h-2.636v-8.953h-1.125V8.586h1.125V4.402h2.636v4.184h2.051v2.46h-2.051zm5.761-2.461v6.55c0 1.891.746 2.837 2.238 2.837s2.238-.946 2.238-2.836V8.586h2.637v6.61c0 .913-.113 1.702-.34 2.367-.218.593-.597 1.128-1.136 1.605-.891.773-2.024 1.16-3.399 1.16-1.367 0-2.496-.387-3.387-1.16-.546-.477-.933-1.012-1.16-1.605-.219-.532-.328-1.32-.328-2.368v-6.61h2.637zM6.864 40.588V50H2.158v-9.412H.598v-3.926h1.56v-4.004h4.706v4.004h2.678v3.926H6.864zm8.29 2.704c0 .433.077.84.233 1.222.156.364.364.685.624.962.277.277.598.494.962.65.382.156.789.234 1.222.234.416 0 .806-.078 1.17-.234.382-.156.702-.373.962-.65a3.04 3.04 0 00.65-.962c.174-.364.26-.754.26-1.17 0-.416-.086-.806-.26-1.17a2.97 2.97 0 00-.65-.988 2.697 2.697 0 00-.962-.65 2.938 2.938 0 00-1.17-.234c-.433 0-.84.078-1.222.234a3.044 3.044 0 00-.962.65c-.26.277-.468.598-.624.962a2.756 2.756 0 00-.234 1.144zm5.927-6.63h4.732V50h-4.732v-1.482c-1.005 1.265-2.366 1.898-4.082 1.898-.97 0-1.863-.173-2.678-.52a6.626 6.626 0 01-2.132-1.508 7.08 7.08 0 01-1.43-2.262c-.33-.867-.494-1.811-.494-2.834 0-.953.165-1.855.494-2.704.33-.867.789-1.62 1.378-2.262a6.339 6.339 0 012.106-1.508c.815-.381 1.716-.572 2.704-.572 1.664 0 3.042.58 4.134 1.742v-1.326zm7.155 0h4.706v2.184c.502-.797 1.118-1.404 1.846-1.82.728-.433 1.577-.65 2.548-.65h.39c.156 0 .329.017.52.052v4.498a4.471 4.471 0 00-2.028-.468c-1.092 0-1.916.33-2.47.988-.538.641-.806 1.586-.806 2.834V50h-4.706V36.662zm16.037 0v19.994h-4.706V36.662h4.706zm-5.018-5.122c0-.364.07-.702.208-1.014.139-.33.33-.615.572-.858.243-.243.52-.433.832-.572.33-.139.676-.208 1.04-.208s.702.07 1.014.208c.33.139.615.33.858.572.243.243.433.529.572.858.139.312.208.65.208 1.014s-.07.71-.208 1.04a2.74 2.74 0 01-.572.832 2.657 2.657 0 01-.858.572c-.312.139-.65.208-1.014.208s-.71-.07-1.04-.208a2.743 2.743 0 01-.832-.572 2.744 2.744 0 01-.572-.832 2.654 2.654 0 01-.208-1.04zm17.204 9.854c-.156-.659-.477-1.187-.962-1.586-.486-.399-1.075-.598-1.768-.598-.728 0-1.326.19-1.794.572-.45.381-.737.919-.858 1.612h5.382zm-5.512 2.73c0 2.028.953 3.042 2.86 3.042 1.023 0 1.794-.416 2.314-1.248h4.55c-.919 3.05-3.215 4.576-6.89 4.576-1.127 0-2.158-.165-3.094-.494a7.211 7.211 0 01-2.418-1.456 6.515 6.515 0 01-1.534-2.236c-.364-.867-.546-1.837-.546-2.912 0-1.11.173-2.106.52-2.99.346-.901.84-1.664 1.482-2.288a6.438 6.438 0 012.314-1.43c.918-.347 1.95-.52 3.094-.52 1.127 0 2.14.173 3.042.52.901.33 1.664.815 2.288 1.456.624.641 1.1 1.43 1.43 2.366.33.919.494 1.959.494 3.12v.494h-9.906zm17.245-3.536V50h-4.705v-9.412h-1.56v-3.926h1.56v-4.004h4.705v4.004h2.679v3.926h-2.678zm8.29 2.704c0 .433.078.84.234 1.222.156.364.364.685.624.962.277.277.598.494.962.65.381.156.788.234 1.222.234.416 0 .806-.078 1.17-.234.381-.156.702-.373.962-.65a3.04 3.04 0 00.65-.962c.173-.364.26-.754.26-1.17 0-.416-.087-.806-.26-1.17a2.97 2.97 0 00-.65-.988 2.697 2.697 0 00-.962-.65 2.938 2.938 0 00-1.17-.234c-.434 0-.841.078-1.222.234a3.044 3.044 0 00-.962.65c-.26.277-.468.598-.624.962a2.756 2.756 0 00-.234 1.144zm5.928-6.63h4.732V50H82.41v-1.482c-1.006 1.265-2.366 1.898-4.082 1.898-.971 0-1.864-.173-2.678-.52a6.626 6.626 0 01-2.132-1.508 7.08 7.08 0 01-1.43-2.262c-.33-.867-.494-1.811-.494-2.834 0-.953.164-1.855.494-2.704.329-.867.788-1.62 1.378-2.262a6.339 6.339 0 012.106-1.508c.814-.381 1.716-.572 2.704-.572 1.664 0 3.042.58 4.134 1.742v-1.326zm19.578 6.63c0 .433.078.84.234 1.222.156.364.364.685.624.962.277.277.598.494.962.65.381.156.789.234 1.222.234.416 0 .806-.078 1.17-.234a2.7 2.7 0 00.962-.65c.277-.277.494-.598.65-.962.173-.364.26-.754.26-1.17 0-.416-.087-.806-.26-1.17a2.975 2.975 0 00-.65-.988 2.7 2.7 0 00-.962-.65 2.938 2.938 0 00-1.17-.234c-.416 0-.815.078-1.196.234a3.04 3.04 0 00-.962.65c-.26.277-.477.598-.65.962a2.756 2.756 0 00-.234 1.144zm5.928-14.872h4.732V50h-4.732v-1.482c-1.005 1.265-2.366 1.898-4.082 1.898-.971 0-1.863-.182-2.678-.546a6.622 6.622 0 01-2.132-1.508 7.08 7.08 0 01-1.43-2.262 7.84 7.84 0 01-.494-2.808c0-.953.156-1.855.468-2.704.33-.867.789-1.62 1.378-2.262a6.335 6.335 0 012.106-1.508c.832-.381 1.742-.572 2.73-.572 1.664 0 3.042.58 4.134 1.742V28.42zm16.905 12.974c-.156-.659-.477-1.187-.962-1.586-.486-.399-1.075-.598-1.768-.598-.728 0-1.326.19-1.794.572-.451.381-.737.919-.858 1.612h5.382zm-5.512 2.73c0 2.028.953 3.042 2.86 3.042 1.022 0 1.794-.416 2.314-1.248h4.55c-.919 3.05-3.216 4.576-6.89 4.576-1.127 0-2.158-.165-3.094-.494a7.211 7.211 0 01-2.418-1.456 6.511 6.511 0 01-1.534-2.236c-.364-.867-.546-1.837-.546-2.912 0-1.11.173-2.106.52-2.99.346-.901.84-1.664 1.482-2.288a6.43 6.43 0 012.314-1.43c.918-.347 1.95-.52 3.094-.52 1.126 0 2.14.173 3.042.52.901.33 1.664.815 2.288 1.456.624.641 1.1 1.43 1.43 2.366.329.919.494 1.959.494 3.12v.494h-9.906zm29.933-3.146c-.814-.555-1.638-.832-2.47-.832-.45 0-.875.078-1.274.234a3.066 3.066 0 00-1.014.676 3.052 3.052 0 00-.702 1.014 3.408 3.408 0 00-.234 1.3c0 .468.078.901.234 1.3.174.381.399.72.676 1.014.295.277.642.494 1.04.65.399.156.824.234 1.274.234.884 0 1.708-.303 2.47-.91v4.004c-1.161.503-2.262.754-3.302.754-.97 0-1.898-.165-2.782-.494a7.337 7.337 0 01-2.314-1.404 7.28 7.28 0 01-1.586-2.21c-.398-.867-.598-1.829-.598-2.886 0-1.057.191-2.02.572-2.886a6.783 6.783 0 011.56-2.262 6.829 6.829 0 012.34-1.482 7.904 7.904 0 012.938-.546c1.144 0 2.202.243 3.172.728v4.004zm1.905-4.316h4.706v2.184c.502-.797 1.118-1.404 1.846-1.82.728-.433 1.577-.65 2.548-.65h.39c.156 0 .329.017.52.052v4.498a4.471 4.471 0 00-2.028-.468c-1.092 0-1.916.33-2.47.988-.538.641-.806 1.586-.806 2.834V50h-4.706V36.662zm21.233 4.732c-.156-.659-.476-1.187-.962-1.586-.485-.399-1.074-.598-1.768-.598-.728 0-1.326.19-1.794.572-.45.381-.736.919-.858 1.612h5.382zm-5.512 2.73c0 2.028.954 3.042 2.86 3.042 1.023 0 1.794-.416 2.314-1.248h4.55c-.918 3.05-3.215 4.576-6.89 4.576-1.126 0-2.158-.165-3.094-.494a7.211 7.211 0 01-2.418-1.456 6.525 6.525 0 01-1.534-2.236c-.364-.867-.546-1.837-.546-2.912 0-1.11.174-2.106.52-2.99.347-.901.841-1.664 1.482-2.288a6.446 6.446 0 012.314-1.43c.919-.347 1.95-.52 3.094-.52 1.127 0 2.141.173 3.042.52a6.02 6.02 0 012.288 1.456c.624.641 1.101 1.43 1.43 2.366.33.919.494 1.959.494 3.12v.494h-9.906zm7.098-13.416l-4.524 4.004-2.184-1.612 3.718-4.55 2.99 2.158zm9.086 12.584c0 .433.078.84.234 1.222.156.364.364.685.624.962.278.277.598.494.962.65a3.2 3.2 0 001.222.234c.416 0 .806-.078 1.17-.234.382-.156.702-.373.962-.65a3.03 3.03 0 00.65-.962c.174-.364.26-.754.26-1.17 0-.416-.086-.806-.26-1.17a2.96 2.96 0 00-.65-.988 2.692 2.692 0 00-.962-.65 2.938 2.938 0 00-1.17-.234c-.416 0-.814.078-1.196.234a3.05 3.05 0 00-.962.65c-.26.277-.476.598-.65.962a2.756 2.756 0 00-.234 1.144zm5.928-14.872h4.732V50h-4.732v-1.482c-1.005 1.265-2.366 1.898-4.082 1.898-.97 0-1.863-.182-2.678-.546a6.636 6.636 0 01-2.132-1.508 7.096 7.096 0 01-1.43-2.262 7.847 7.847 0 01-.494-2.808c0-.953.156-1.855.468-2.704.33-.867.789-1.62 1.378-2.262a6.35 6.35 0 012.106-1.508c.832-.381 1.742-.572 2.73-.572 1.664 0 3.042.58 4.134 1.742V28.42zm11.861 8.242V50h-4.706V36.662h4.706zm-5.018-5.122c0-.364.069-.702.208-1.014.138-.33.329-.615.572-.858.242-.243.52-.433.832-.572a2.651 2.651 0 011.04-.208c.364 0 .702.07 1.014.208.329.139.615.33.858.572.242.243.433.529.572.858.138.312.208.65.208 1.014s-.07.71-.208 1.04a2.76 2.76 0 01-.572.832 2.665 2.665 0 01-.858.572c-.312.139-.65.208-1.014.208s-.711-.07-1.04-.208a2.734 2.734 0 01-.832-.572 2.725 2.725 0 01-.572-.832 2.647 2.647 0 01-.208-1.04zm12.706 9.048V50h-4.706v-9.412h-1.56v-3.926h1.56v-4.004h4.706v4.004h2.678v3.926h-2.678zm8.341 2.678c0 .45.078.867.234 1.248.174.364.39.685.65.962.278.277.598.494.962.65.382.156.78.234 1.196.234.416 0 .806-.078 1.17-.234.382-.156.702-.373.962-.65a3.03 3.03 0 00.65-.962c.174-.381.26-.789.26-1.222 0-.416-.086-.806-.26-1.17a2.96 2.96 0 00-.65-.988 2.692 2.692 0 00-.962-.65 2.938 2.938 0 00-1.17-.234c-.416 0-.814.078-1.196.234a3.05 3.05 0 00-.962.65c-.26.277-.476.598-.65.962a2.938 2.938 0 00-.234 1.17zm-4.966-.052c0-.988.2-1.907.598-2.756a6.64 6.64 0 011.664-2.236 7.826 7.826 0 012.522-1.508c.988-.364 2.063-.546 3.224-.546 1.144 0 2.202.182 3.172.546.988.347 1.838.84 2.548 1.482a6.407 6.407 0 011.69 2.262c.399.867.598 1.829.598 2.886 0 1.057-.208 2.028-.624 2.912a6.887 6.887 0 01-1.664 2.262c-.71.624-1.568 1.11-2.574 1.456-.988.347-2.062.52-3.224.52-1.144 0-2.201-.173-3.172-.52a7.474 7.474 0 01-2.522-1.482 7.01 7.01 0 01-1.638-2.288c-.398-.901-.598-1.898-.598-2.99zm17.711 4.29c0-.416.078-.806.234-1.17a2.975 2.975 0 011.612-1.638c.382-.156.78-.234 1.196-.234.416 0 .806.078 1.17.234.382.156.711.373.988.65.278.277.494.607.65.988.156.364.234.754.234 1.17 0 .416-.078.815-.234 1.196a3.03 3.03 0 01-.65.962 2.96 2.96 0 01-.988.65 2.938 2.938 0 01-1.17.234c-.416 0-.814-.078-1.196-.234a3.05 3.05 0 01-1.612-1.612 3.129 3.129 0 01-.234-1.196z" fill="#66124B"/></svg>