<svg width="171" height="34" viewBox="0 0 171 34" fill="none" xmlns="http://www.w3.org/2000/svg"><path d="M7.004 13.352h2.015c2.232 0 3.348-.971 3.348-2.914s-1.116-2.914-3.348-2.914H7.004v5.828zm0 12.648H.928V2.626H10.6c2.625 0 4.63.682 6.014 2.046 1.405 1.364 2.108 3.286 2.108 5.766s-.703 4.402-2.108 5.766c-1.385 1.364-3.39 2.046-6.014 2.046H7.004V26zm14.407-15.903h5.61v2.604c.6-.95 1.334-1.674 2.202-2.17.868-.517 1.88-.775 3.038-.775h.465c.186 0 .392.02.62.062v5.363a5.331 5.331 0 00-2.418-.558c-1.302 0-2.284.393-2.945 1.178-.64.765-.961 1.891-.961 3.379V26H21.41V10.097zm19.862 7.874c0 .537.093 1.033.28 1.488.206.434.464.816.774 1.147.331.33.713.589 1.147.775.455.186.93.279 1.426.279.496 0 .961-.093 1.395-.279a3.216 3.216 0 001.147-.775c.331-.33.59-.713.775-1.147.207-.455.31-.94.31-1.457 0-.496-.103-.961-.31-1.395a3.54 3.54 0 00-.775-1.178 3.216 3.216 0 00-1.147-.775 3.504 3.504 0 00-1.395-.279 3.73 3.73 0 00-1.426.279 3.627 3.627 0 00-1.147.775 4.48 4.48 0 00-.775 1.147 3.504 3.504 0 00-.279 1.395zm-5.92-.062c0-1.178.237-2.273.712-3.286a7.902 7.902 0 011.984-2.666c.848-.765 1.85-1.364 3.007-1.798 1.178-.434 2.46-.651 3.844-.651 1.364 0 2.625.217 3.782.651 1.178.413 2.191 1.002 3.038 1.767a7.648 7.648 0 012.015 2.697c.476 1.033.713 2.18.713 3.441 0 1.26-.248 2.418-.744 3.472a8.23 8.23 0 01-1.984 2.697c-.847.744-1.87 1.323-3.069 1.736-1.178.413-2.459.62-3.844.62-1.364 0-2.624-.207-3.782-.62-1.157-.413-2.16-1.002-3.007-1.767a8.347 8.347 0 01-1.953-2.728c-.475-1.075-.713-2.263-.713-3.565zm28.678-3.131V26h-5.61V14.778h-1.86v-4.681h1.86V5.323h5.61v4.774h3.193v4.681h-3.193zm17.23.961c-.186-.785-.568-1.416-1.147-1.891-.578-.475-1.281-.713-2.108-.713-.868 0-1.58.227-2.139.682-.537.455-.878 1.095-1.023 1.922h6.417zm-6.572 3.255c0 2.418 1.137 3.627 3.41 3.627 1.22 0 2.14-.496 2.76-1.488h5.424c-1.095 3.637-3.833 5.456-8.215 5.456-1.343 0-2.573-.196-3.689-.589-1.116-.413-2.077-.992-2.883-1.736a7.769 7.769 0 01-1.829-2.666c-.434-1.033-.65-2.19-.65-3.472 0-1.323.206-2.511.62-3.565.413-1.075 1.002-1.984 1.766-2.728.765-.744 1.685-1.312 2.76-1.705 1.095-.413 2.324-.62 3.688-.62 1.344 0 2.553.207 3.627.62 1.075.393 1.984.971 2.728 1.736.744.765 1.313 1.705 1.705 2.821.393 1.095.59 2.335.59 3.72v.589H74.688zm8.463-15.996l-5.394 4.774-2.604-1.922L79.587.425l3.565 2.573zm11.764 14.973c0 .517.093 1.002.279 1.457.186.434.434.816.744 1.147.33.33.713.589 1.147.775.454.186.94.279 1.457.279.496 0 .96-.093 1.395-.279a3.22 3.22 0 001.147-.775c.33-.33.589-.713.775-1.147.206-.455.31-.93.31-1.426 0-.517-.104-.992-.31-1.426a3.549 3.549 0 00-1.953-1.922 3.427 3.427 0 00-1.364-.279c-.496 0-.961.103-1.395.31A3.627 3.627 0 0096 15.46c-.331.31-.6.682-.806 1.116a3.504 3.504 0 00-.28 1.395zm12.586-7.874v14.818c0 .889-.052 1.684-.155 2.387a10.344 10.344 0 01-.434 1.86 5.57 5.57 0 01-1.178 1.891 7.38 7.38 0 01-1.891 1.55c-.744.434-1.592.775-2.542 1.023-.93.248-1.943.372-3.038.372-1.24 0-2.377-.155-3.41-.465-1.034-.31-1.943-.744-2.728-1.302a7.265 7.265 0 01-1.891-1.922 6.24 6.24 0 01-.992-2.387h6.324c.392 1.054 1.281 1.581 2.666 1.581 1.178 0 2.077-.33 2.697-.992.64-.661.961-1.581.961-2.759v-1.519a9.948 9.948 0 01-1.209.992 6.879 6.879 0 01-1.147.62 5.006 5.006 0 01-1.24.341c-.434.083-.91.124-1.426.124-1.137 0-2.18-.196-3.131-.589a7.535 7.535 0 01-2.48-1.643 7.709 7.709 0 01-1.612-2.511c-.372-.992-.558-2.087-.558-3.286 0-1.22.206-2.346.62-3.379.413-1.054.971-1.963 1.674-2.728a7.684 7.684 0 012.542-1.829 7.644 7.644 0 013.224-.682c1.88 0 3.461.703 4.743 2.108v-1.674h5.611zm15.809 5.642c-.186-.785-.568-1.416-1.147-1.891-.579-.475-1.281-.713-2.108-.713-.868 0-1.581.227-2.139.682-.537.455-.878 1.095-1.023 1.922h6.417zm-6.572 3.255c0 2.418 1.137 3.627 3.41 3.627 1.219 0 2.139-.496 2.759-1.488h5.425c-1.095 3.637-3.834 5.456-8.215 5.456-1.343 0-2.573-.196-3.689-.589-1.116-.413-2.077-.992-2.883-1.736a7.774 7.774 0 01-1.829-2.666c-.434-1.033-.651-2.19-.651-3.472 0-1.323.207-2.511.62-3.565.413-1.075 1.002-1.984 1.767-2.728.765-.744 1.684-1.312 2.759-1.705 1.095-.413 2.325-.62 3.689-.62 1.343 0 2.552.207 3.627.62 1.075.393 1.984.971 2.728 1.736.744.765 1.312 1.705 1.705 2.821.393 1.095.589 2.335.589 3.72v.589h-11.811zm21.492-4.216V26h-5.611V14.778h-1.86v-4.681h1.86V5.323h5.611v4.774h3.193v4.681h-3.193zm17.231.961c-.186-.785-.569-1.416-1.147-1.891-.579-.475-1.282-.713-2.108-.713-.868 0-1.581.227-2.139.682-.538.455-.879 1.095-1.023 1.922h6.417zm-6.572 3.255c0 2.418 1.136 3.627 3.41 3.627 1.219 0 2.139-.496 2.759-1.488h5.425c-1.096 3.637-3.834 5.456-8.215 5.456-1.344 0-2.573-.196-3.689-.589-1.116-.413-2.077-.992-2.883-1.736a7.76 7.76 0 01-1.829-2.666c-.434-1.033-.651-2.19-.651-3.472 0-1.323.206-2.511.62-3.565.413-1.075 1.002-1.984 1.767-2.728.764-.744 1.684-1.312 2.759-1.705 1.095-.413 2.325-.62 3.689-.62 1.343 0 2.552.207 3.627.62 1.074.393 1.984.971 2.728 1.736.744.765 1.312 1.705 1.705 2.821.392 1.095.589 2.335.589 3.72v.589H148.89zm14.739 4.03c0-.496.093-.961.279-1.395.186-.455.444-.847.775-1.178a3.63 3.63 0 011.147-.775c.455-.186.93-.279 1.426-.279.496 0 .961.093 1.395.279a3.54 3.54 0 011.178.775c.331.33.589.723.775 1.178.186.434.279.899.279 1.395s-.093.971-.279 1.426a3.622 3.622 0 01-.775 1.147 3.54 3.54 0 01-1.178.775 3.504 3.504 0 01-1.395.279c-.496 0-.971-.093-1.426-.279a3.63 3.63 0 01-1.922-1.922 3.73 3.73 0 01-.279-1.426z" fill="#fff"/></svg>