<svg width="250" height="58" viewBox="0 0 250 58" fill="none" xmlns="http://www.w3.org/2000/svg"><rect x="1" y="1" width="248" height="56" rx="7" fill="#EFD63A" stroke="#EFE28E" stroke-width="2"/><path d="M35 30.84l-1.935-5.522-1.936 5.522H35zm1.145 3.278h-6.16L28.995 37h-4.598l6.314-16.588h4.708L41.733 37h-4.598l-.99-2.882zm12.226-6.094h1.43c1.584 0 2.377-.69 2.377-2.068 0-1.379-.792-2.068-2.377-2.068h-1.43v4.136zm0 8.976H44.06V20.412h6.864c1.863 0 3.286.484 4.268 1.452.998.968 1.496 2.332 1.496 4.092 0 1.76-.498 3.124-1.495 4.092-.983.968-2.406 1.452-4.269 1.452h-2.552V37zm15.35-9.174h.815c.85 0 1.503-.176 1.958-.528.454-.352.682-.858.682-1.518s-.228-1.166-.682-1.518c-.455-.352-1.108-.528-1.958-.528h-.814v4.092zM73.205 37h-5.368l-4.114-6.38V37H59.41V20.412h6.71c.924 0 1.73.14 2.42.418.689.264 1.254.63 1.694 1.1.454.47.792 1.012 1.012 1.628.234.616.352 1.276.352 1.98 0 1.261-.308 2.288-.924 3.08-.602.777-1.496 1.305-2.684 1.584L73.204 37zm11.681-12.936H79.76v2.772h4.84v3.652h-4.84v2.86h5.126V37h-9.438V20.412h9.438v3.652zM88.435 37V20.412h4.311l7.964 10.142V20.412H105V37h-4.29l-7.964-10.142V37h-4.312zm24.796-3.652h.99c.748 0 1.415-.117 2.002-.352a4.158 4.158 0 001.474-.968c.411-.41.719-.895.924-1.452.22-.572.33-1.195.33-1.87 0-.66-.11-1.276-.33-1.848a4.171 4.171 0 00-.946-1.474 4.158 4.158 0 00-1.474-.968c-.587-.235-1.247-.352-1.98-.352h-.99v9.284zm-4.312-12.936h6.38c1.129 0 2.185.227 3.168.682a8.39 8.39 0 012.596 1.826 8.16 8.16 0 011.76 2.64c.425.997.638 2.046.638 3.146a8.048 8.048 0 01-.638 3.146 8.19 8.19 0 01-1.738 2.64 8.39 8.39 0 01-2.596 1.826 7.504 7.504 0 01-3.19.682h-6.38V20.412zm27.173 3.652h-5.126v2.772h4.84v3.652h-4.84v2.86h5.126V37h-9.438V20.412h9.438v3.652zm23.411 1.892c-.997-1.217-2.229-1.826-3.696-1.826-.645 0-1.246.117-1.804.352a4.315 4.315 0 00-1.408.968 4.43 4.43 0 00-.946 1.43 4.87 4.87 0 00-.33 1.804c0 .66.11 1.269.33 1.826.235.557.55 1.041.946 1.452.411.41.888.733 1.43.968a4.39 4.39 0 001.76.352c1.379 0 2.618-.587 3.718-1.76v5.104l-.44.154c-.66.235-1.276.403-1.848.506a8.412 8.412 0 01-1.694.176 8.753 8.753 0 01-3.3-.638 9.026 9.026 0 01-2.772-1.826 9.365 9.365 0 01-1.914-2.794c-.484-1.085-.726-2.266-.726-3.542 0-1.276.235-2.442.704-3.498a8.806 8.806 0 011.914-2.75 8.64 8.64 0 012.794-1.804 8.555 8.555 0 013.322-.66c.66 0 1.306.073 1.936.22.646.132 1.32.345 2.024.638v5.148zm7.167 2.75c0 .66.124 1.269.374 1.826a4.602 4.602 0 001.012 1.452c.425.41.916.733 1.474.968a4.98 4.98 0 001.804.33c.63 0 1.224-.11 1.782-.33a4.703 4.703 0 001.496-.968c.44-.41.784-.895 1.034-1.452a4.425 4.425 0 00.374-1.826c0-.66-.125-1.269-.374-1.826a4.462 4.462 0 00-1.034-1.452 4.41 4.41 0 00-1.496-.946 4.549 4.549 0 00-1.782-.352c-.631 0-1.232.117-1.804.352a4.445 4.445 0 00-1.474.946c-.426.41-.763.895-1.012 1.452a4.41 4.41 0 00-.374 1.826zm-4.51 0c0-1.232.227-2.376.682-3.432a8.545 8.545 0 011.892-2.794 8.521 8.521 0 012.882-1.848c1.129-.455 2.368-.682 3.718-.682 1.334 0 2.566.227 3.696.682 1.129.44 2.097 1.056 2.904 1.848a8.407 8.407 0 011.914 2.794c.454 1.056.682 2.2.682 3.432a8.756 8.756 0 01-.682 3.454 8.468 8.468 0 01-1.914 2.772c-.807.792-1.775 1.415-2.904 1.87-1.13.44-2.362.66-3.696.66-1.35 0-2.589-.22-3.718-.66a8.803 8.803 0 01-2.882-1.87 8.608 8.608 0 01-1.892-2.772 8.738 8.738 0 01-.682-3.454zm13.134-12.518l-4.224 2.904-1.672-1.562 3.586-3.432 2.31 2.09zM182.945 37l2.816-16.588h4.268l3.322 8.844 3.3-8.844h4.268L203.735 37h-4.29l-1.43-9.548L194.099 37h-1.716l-3.718-9.548-1.43 9.548h-4.29zm27.724-8.294c0 .66.124 1.269.374 1.826a4.602 4.602 0 001.012 1.452c.425.41.916.733 1.474.968a4.98 4.98 0 001.804.33c.63 0 1.224-.11 1.782-.33a4.703 4.703 0 001.496-.968c.44-.41.784-.895 1.034-1.452a4.425 4.425 0 00.374-1.826c0-.66-.125-1.269-.374-1.826a4.462 4.462 0 00-1.034-1.452 4.41 4.41 0 00-1.496-.946 4.549 4.549 0 00-1.782-.352c-.631 0-1.232.117-1.804.352a4.445 4.445 0 00-1.474.946c-.426.41-.763.895-1.012 1.452a4.41 4.41 0 00-.374 1.826zm-4.51 0c0-1.232.227-2.376.682-3.432a8.545 8.545 0 011.892-2.794 8.521 8.521 0 012.882-1.848c1.129-.455 2.368-.682 3.718-.682 1.334 0 2.566.227 3.696.682 1.129.44 2.097 1.056 2.904 1.848a8.407 8.407 0 011.914 2.794c.454 1.056.682 2.2.682 3.432a8.756 8.756 0 01-.682 3.454 8.468 8.468 0 01-1.914 2.772c-.807.792-1.775 1.415-2.904 1.87-1.13.44-2.362.66-3.696.66-1.35 0-2.589-.22-3.718-.66a8.803 8.803 0 01-2.882-1.87 8.608 8.608 0 01-1.892-2.772 8.738 8.738 0 01-.682-3.454z" fill="#66124B"/></svg>