<svg width="129" height="16" viewBox="0 0 129 16" fill="none" xmlns="http://www.w3.org/2000/svg"><path d="M.975 12V1.425h2.04L8.37 8.07h-.435V1.425H10.5V12H8.46L3.135 5.355h.435V12H.975zm15.28.165c-.85 0-1.585-.16-2.205-.48a3.45 3.45 0 01-1.44-1.365c-.34-.6-.51-1.31-.51-2.13 0-.83.17-1.54.51-2.13a3.45 3.45 0 011.44-1.365c.62-.32 1.355-.48 2.205-.48.84 0 1.57.16 2.19.48.62.32 1.1.78 1.44 1.38.34.59.51 1.295.51 2.115 0 .81-.17 1.515-.51 2.115-.34.6-.82 1.06-1.44 1.38-.62.32-1.35.48-2.19.48zm0-1.98c.44 0 .79-.155 1.05-.465.26-.32.39-.83.39-1.53 0-.7-.13-1.205-.39-1.515-.26-.32-.61-.48-1.05-.48-.45 0-.805.16-1.065.48-.26.31-.39.815-.39 1.515s.13 1.21.39 1.53c.26.31.615.465 1.065.465zM26.339 12V.96h2.67V12h-2.67zm8.28.165c-.85 0-1.584-.16-2.204-.48a3.45 3.45 0 01-1.44-1.365c-.34-.6-.51-1.31-.51-2.13 0-.83.17-1.54.51-2.13a3.45 3.45 0 011.44-1.365c.62-.32 1.355-.48 2.205-.48.84 0 1.57.16 2.19.48.62.32 1.1.78 1.44 1.38.34.59.51 1.295.51 2.115 0 .81-.17 1.515-.51 2.115-.34.6-.82 1.06-1.44 1.38-.62.32-1.35.48-2.19.48zm0-1.98c.44 0 .79-.155 1.05-.465.26-.32.39-.83.39-1.53 0-.7-.13-1.205-.39-1.515-.26-.32-.61-.48-1.05-.48-.45 0-.804.16-1.064.48-.26.31-.39.815-.39 1.515s.13 1.21.39 1.53c.26.31.615.465 1.065.465zm13.94 1.98c-.84 0-1.575-.16-2.206-.48a3.526 3.526 0 01-1.47-1.365c-.35-.6-.525-1.315-.525-2.145 0-.83.175-1.54.526-2.13.35-.59.84-1.04 1.47-1.35.63-.32 1.364-.48 2.205-.48.52 0 1.03.07 1.53.21.5.14.904.34 1.215.6l-.75 1.815a2.45 2.45 0 00-.826-.45 2.56 2.56 0 00-.885-.165c-.55 0-.98.165-1.29.495-.3.33-.45.815-.45 1.455 0 .64.15 1.13.45 1.47.31.33.74.495 1.29.495.28 0 .575-.05.885-.15.31-.11.585-.26.825-.45l.75 1.815c-.32.25-.73.45-1.23.6-.49.14-.995.21-1.514.21zm7.663 0c-.85 0-1.585-.16-2.205-.48a3.45 3.45 0 01-1.44-1.365c-.34-.6-.51-1.31-.51-2.13 0-.83.17-1.54.51-2.13a3.45 3.45 0 011.44-1.365c.62-.32 1.355-.48 2.205-.48.84 0 1.57.16 2.19.48.62.32 1.1.78 1.44 1.38.34.59.51 1.295.51 2.115 0 .81-.17 1.515-.51 2.115-.34.6-.82 1.06-1.44 1.38-.62.32-1.35.48-2.19.48zm0-1.98c.44 0 .79-.155 1.05-.465.26-.32.39-.83.39-1.53 0-.7-.13-1.205-.39-1.515-.26-.32-.61-.48-1.05-.48-.45 0-.805.16-1.065.48-.26.31-.39.815-.39 1.515s.13 1.21.39 1.53c.26.31.615.465 1.065.465zM61.82 12V6.45a18.142 18.142 0 00-.12-2.07h2.58l.15 1.32h-.165c.22-.46.545-.82.975-1.08.43-.27.935-.405 1.515-.405.56 0 1.035.135 1.425.405.4.26.69.675.87 1.245h-.255c.25-.52.61-.925 1.08-1.215a3.043 3.043 0 011.605-.435c.87 0 1.52.265 1.95.795.43.52.645 1.335.645 2.445V12H71.39V7.545c0-.47-.07-.8-.21-.99-.14-.2-.365-.3-.675-.3-.39 0-.695.14-.915.42-.21.28-.315.665-.315 1.155V12h-2.67V7.545c0-.47-.075-.8-.225-.99-.14-.2-.36-.3-.66-.3-.39 0-.695.14-.915.42-.21.28-.315.665-.315 1.155V12h-2.67zm14.007 3.24V6.45a18.142 18.142 0 00-.12-2.07h2.58l.165 1.35h-.15c.14-.45.45-.815.93-1.095.48-.28 1.015-.42 1.605-.42.66 0 1.24.16 1.74.48.5.31.89.765 1.17 1.365.29.59.435 1.3.435 2.13 0 .82-.145 1.53-.435 2.13-.28.6-.67 1.06-1.17 1.38-.5.31-1.08.465-1.74.465-.58 0-1.105-.13-1.575-.39-.47-.27-.78-.625-.93-1.065h.165v4.53h-2.67zm4.155-5.055c.46 0 .825-.155 1.095-.465.28-.32.42-.83.42-1.53 0-.7-.14-1.205-.42-1.515-.27-.32-.635-.48-1.095-.48-.45 0-.815.16-1.095.48-.28.31-.42.815-.42 1.515s.14 1.21.42 1.53c.28.31.645.465 1.095.465zm8.649 1.98c-.66 0-1.24-.155-1.74-.465-.5-.32-.895-.78-1.185-1.38-.28-.6-.42-1.31-.42-2.13 0-.83.14-1.54.42-2.13.29-.6.685-1.055 1.185-1.365.5-.32 1.08-.48 1.74-.48.59 0 1.12.14 1.59.42.48.28.795.645.945 1.095h-.15l.165-1.35h2.565l-.09 1.035c-.02.35-.03.695-.03 1.035V12h-2.64l-.03-1.29h.18c-.15.44-.465.795-.945 1.065-.47.26-.99.39-1.56.39zm.855-1.98c.45 0 .815-.155 1.095-.465.28-.32.42-.83.42-1.53 0-.7-.14-1.205-.42-1.515-.28-.32-.645-.48-1.095-.48-.45 0-.815.16-1.095.48-.28.31-.42.815-.42 1.515s.135 1.21.405 1.53c.28.31.65.465 1.11.465zM95.434 12V6.465a18.401 18.401 0 00-.12-2.085h2.58l.285 2.34h-.405c.1-.57.26-1.04.48-1.41.22-.37.495-.645.825-.825.33-.18.72-.27 1.17-.27.21 0 .365.01.465.03.11.01.225.04.345.09v2.34c-.25-.11-.45-.18-.6-.21a3.085 3.085 0 00-.585-.045c-.41 0-.745.075-1.005.225-.26.14-.45.36-.57.66-.11.3-.165.685-.165 1.155V12h-2.7zm10.92.165c-1.08 0-1.895-.255-2.445-.765-.54-.52-.81-1.305-.81-2.355v-2.7h-1.425V4.38h1.425v-1.8l2.67-.63v2.43h1.86v1.965h-1.86V8.94c0 .44.1.735.3.885.2.14.44.21.72.21.17 0 .315-.01.435-.03.13-.03.265-.07.405-.12v2.055c-.22.09-.44.15-.66.18-.21.03-.415.045-.615.045zm5.461 0c-.66 0-1.24-.155-1.74-.465-.5-.32-.895-.78-1.185-1.38-.28-.6-.42-1.31-.42-2.13 0-.83.14-1.54.42-2.13.29-.6.685-1.055 1.185-1.365.5-.32 1.08-.48 1.74-.48.59 0 1.12.14 1.59.42.48.28.795.645.945 1.095h-.15l.165-1.35h2.565l-.09 1.035c-.02.35-.03.695-.03 1.035V12h-2.64l-.03-1.29h.18c-.15.44-.465.795-.945 1.065-.47.26-.99.39-1.56.39zm.855-1.98c.45 0 .815-.155 1.095-.465.28-.32.42-.83.42-1.53 0-.7-.14-1.205-.42-1.515-.28-.32-.645-.48-1.095-.48-.45 0-.815.16-1.095.48-.28.31-.42.815-.42 1.515s.135 1.21.405 1.53c.28.31.65.465 1.11.465zm8.873 1.98c-.71 0-1.355-.07-1.935-.21-.57-.15-1.055-.35-1.455-.6l.645-1.74c.39.22.825.4 1.305.54.49.14.975.21 1.455.21.38 0 .655-.055.825-.165.18-.12.27-.275.27-.465 0-.15-.055-.27-.165-.36-.11-.09-.275-.155-.495-.195l-1.62-.285c-.64-.12-1.14-.355-1.5-.705-.35-.36-.525-.825-.525-1.395 0-.52.14-.97.42-1.35.28-.39.68-.69 1.2-.9.52-.22 1.135-.33 1.845-.33.58 0 1.13.065 1.65.195.53.13.99.335 1.38.615l-.69 1.695c-.31-.21-.675-.38-1.095-.51-.41-.14-.795-.21-1.155-.21-.43 0-.735.065-.915.195-.18.12-.27.27-.27.45 0 .14.05.26.15.36.1.09.26.155.48.195l1.62.285c.66.11 1.165.34 1.515.69.36.34.54.805.54 1.395 0 .55-.15 1.02-.45 1.41-.29.38-.695.675-1.215.885-.52.2-1.125.3-1.815.3zm4.56-.165V9.27h2.775V12h-2.775z" fill="#fff"/></svg>