<svg width="212" height="24" viewBox="0 0 212 24" fill="none" xmlns="http://www.w3.org/2000/svg"><path d="M3.63 9.121a7.062 7.062 0 01-1.782-.22C1.291 8.747.821 8.541.44 8.285l.572-1.573c.242.154.506.286.792.396.286.11.583.198.891.264.315.059.634.088.957.088.484 0 .818-.062 1.001-.187.19-.125.286-.286.286-.484a.482.482 0 00-.187-.407c-.125-.103-.36-.19-.704-.264l-1.342-.275c-.711-.147-1.243-.4-1.595-.759-.352-.367-.528-.843-.528-1.43 0-.513.136-.957.407-1.331.279-.381.667-.675 1.166-.88.499-.213 1.082-.319 1.749-.319.55 0 1.067.077 1.551.231.484.147.88.352 1.188.616l-.572 1.474a3.275 3.275 0 00-.99-.484 3.992 3.992 0 00-1.221-.176c-.425 0-.748.066-.968.198a.592.592 0 00-.319.539c0 .161.062.3.187.418.132.11.37.202.715.275l1.32.264c.711.14 1.243.389 1.595.748.36.36.539.829.539 1.408 0 .499-.14.935-.418 1.309-.271.374-.653.664-1.144.869-.491.205-1.07.308-1.738.308zM8.095 9V3.412h1.958V9H8.095zM8.05 2.62V.86h2.057v1.76H8.05zM14.664 9V4.941a13.464 13.464 0 00-.088-1.529h1.892l.209 1.716h-.297c.073-.418.19-.763.352-1.034.16-.271.363-.473.605-.605.241-.132.527-.198.858-.198.154 0 .267.007.34.022.081.007.166.03.253.066v1.716a2.284 2.284 0 00-.44-.154 2.262 2.262 0 00-.428-.033c-.301 0-.547.055-.738.165a.911.911 0 00-.417.484c-.081.22-.122.502-.122.847V9h-1.98zm7.677.121c-1.012 0-1.8-.26-2.365-.781-.558-.52-.836-1.236-.836-2.145 0-.565.117-1.067.352-1.507a2.51 2.51 0 01.99-1.023c.425-.25.924-.374 1.496-.374.564 0 1.034.125 1.408.374.381.242.667.58.858 1.012.19.425.286.92.286 1.485v.418h-3.751v-.924h2.31l-.187.154c0-.418-.081-.726-.242-.924-.154-.205-.374-.308-.66-.308-.33 0-.583.125-.76.374-.168.242-.252.609-.252 1.1v.198c0 .491.12.85.363 1.078.242.227.59.341 1.045.341.293 0 .568-.033.825-.099.264-.066.513-.172.748-.319l.506 1.276c-.279.19-.602.337-.968.44a4.306 4.306 0 01-1.166.154zm6.058 0c-.616 0-1.155-.117-1.617-.352a2.586 2.586 0 01-1.078-1.001c-.257-.44-.385-.964-.385-1.573s.128-1.13.385-1.562a2.516 2.516 0 011.078-.99c.462-.235 1.001-.352 1.617-.352.381 0 .755.051 1.122.154.367.103.664.25.891.44l-.55 1.331a1.796 1.796 0 00-.605-.33 1.877 1.877 0 00-.649-.121c-.403 0-.719.121-.946.363-.22.242-.33.598-.33 1.067 0 .47.11.829.33 1.078.227.242.543.363.946.363.205 0 .422-.037.649-.11.227-.08.429-.19.605-.33l.55 1.331c-.235.183-.535.33-.902.44-.36.103-.73.154-1.111.154zM31.332 9V3.412h1.958V9h-1.958zm-.044-6.38V.86h2.057v1.76h-2.057zm6.986 6.501c-.425 0-.814-.103-1.166-.308-.344-.205-.572-.477-.682-.814h.121V9h-1.936V.904h1.958v3.454h-.132c.125-.323.356-.58.693-.77a2.256 2.256 0 011.144-.297c.484 0 .91.117 1.276.352.374.235.664.572.87 1.012.212.44.318.96.318 1.562 0 .609-.106 1.13-.319 1.562a2.325 2.325 0 01-.869 1.001c-.366.227-.792.341-1.276.341zm-.616-1.452c.323 0 .587-.114.792-.341.213-.227.32-.598.32-1.111s-.107-.887-.32-1.122a1.004 1.004 0 00-.792-.352c-.33 0-.597.117-.803.352-.205.227-.308.598-.308 1.111s.103.887.308 1.122c.206.227.473.341.803.341zm7.09 1.452c-1.012 0-1.8-.26-2.365-.781-.557-.52-.836-1.236-.836-2.145 0-.565.118-1.067.352-1.507.235-.44.565-.781.99-1.023.426-.25.924-.374 1.496-.374.565 0 1.034.125 1.408.374.382.242.668.58.858 1.012.191.425.286.92.286 1.485v.418h-3.75v-.924h2.31l-.188.154c0-.418-.08-.726-.242-.924-.154-.205-.374-.308-.66-.308-.33 0-.583.125-.759.374-.168.242-.253.609-.253 1.1v.198c0 .491.121.85.363 1.078.242.227.59.341 1.045.341.294 0 .569-.033.825-.099.264-.066.514-.172.748-.319l.506 1.276c-.278.19-.6.337-.968.44a4.305 4.305 0 01-1.166.154zm5.377 0c-.52 0-.994-.051-1.42-.154a3.86 3.86 0 01-1.066-.44l.473-1.276c.286.161.605.293.957.396.36.103.715.154 1.067.154.278 0 .48-.04.605-.121.132-.088.198-.202.198-.341 0-.11-.04-.198-.121-.264a.798.798 0 00-.363-.143l-1.188-.209c-.47-.088-.836-.26-1.1-.517-.257-.264-.385-.605-.385-1.023 0-.381.102-.711.308-.99.205-.286.498-.506.88-.66.381-.161.832-.242 1.353-.242.425 0 .828.048 1.21.143a2.9 2.9 0 011.012.451l-.506 1.243a3.01 3.01 0 00-.803-.374 2.628 2.628 0 00-.847-.154c-.316 0-.54.048-.671.143-.132.088-.198.198-.198.33 0 .103.036.19.11.264.073.066.19.114.352.143l1.188.209c.484.08.854.25 1.11.506.265.25.397.59.397 1.023 0 .403-.11.748-.33 1.034-.213.279-.51.495-.891.649-.382.147-.825.22-1.331.22zm8.876 0c-.711 0-1.24-.194-1.584-.583-.337-.396-.506-.994-.506-1.793V3.412h1.958v3.344c0 .293.059.513.176.66.125.14.312.209.56.209a.87.87 0 00.683-.297c.183-.205.275-.473.275-.803V3.412h1.958V9h-1.903V7.999h.165c-.176.36-.414.638-.715.836-.3.19-.656.286-1.067.286zM63.854 9V4.93a13.274 13.274 0 00-.088-1.518h1.892l.11.968h-.121c.183-.352.443-.62.78-.803.338-.19.72-.286 1.145-.286.652 0 1.14.194 1.463.583.33.381.495.979.495 1.793V9h-1.958V5.755c0-.36-.063-.609-.187-.748-.125-.147-.305-.22-.54-.22-.307 0-.557.103-.747.308-.191.198-.286.462-.286.792V9h-1.958zm9.163.121c-.484 0-.91-.114-1.276-.341-.366-.235-.656-.572-.869-1.012-.205-.44-.308-.96-.308-1.562 0-.609.103-1.13.308-1.562.213-.44.503-.774.87-1.001a2.315 2.315 0 011.275-.352c.433 0 .822.103 1.166.308.352.205.583.473.693.803h-.11l.121-.99h1.881l-.066.759c-.014.257-.022.51-.022.759V9h-1.936l-.022-.946h.132c-.11.323-.34.583-.693.781-.344.19-.726.286-1.144.286zm.627-1.452c.33 0 .598-.114.803-.341.206-.235.308-.609.308-1.122 0-.513-.102-.884-.308-1.111a1.016 1.016 0 00-.803-.352c-.33 0-.597.117-.803.352-.205.227-.308.598-.308 1.111s.1.887.297 1.122c.206.227.477.341.814.341zM81.296 9V.904h1.958V9h-1.958zm3.279 0V.904h1.958V9h-1.958zm5.479.121c-.484 0-.91-.114-1.276-.341-.367-.235-.656-.572-.87-1.012-.204-.44-.307-.96-.307-1.562 0-.609.103-1.13.308-1.562.213-.44.502-.774.869-1.001a2.315 2.315 0 011.276-.352c.433 0 .821.103 1.166.308.352.205.583.473.693.803h-.11l.12-.99h1.882l-.066.759c-.015.257-.022.51-.022.759V9H91.78l-.022-.946h.132c-.11.323-.341.583-.693.781-.345.19-.726.286-1.144.286zm.627-1.452c.33 0 .598-.114.803-.341.205-.235.308-.609.308-1.122 0-.513-.103-.884-.308-1.111a1.016 1.016 0 00-.803-.352c-.33 0-.598.117-.803.352-.205.227-.308.598-.308 1.111s.099.887.297 1.122c.205.227.477.341.814.341zM95.043 9V4.93a13.274 13.274 0 00-.088-1.518h1.892l.11.968h-.121c.161-.337.4-.601.715-.792.315-.198.686-.297 1.111-.297.41 0 .759.099 1.045.297.293.19.506.495.638.913h-.187c.183-.381.447-.678.792-.891a2.231 2.231 0 011.177-.319c.638 0 1.115.194 1.43.583.315.381.473.979.473 1.793V9h-1.969V5.733c0-.345-.051-.587-.154-.726-.103-.147-.268-.22-.495-.22-.286 0-.51.103-.671.308-.154.205-.231.488-.231.847V9h-1.958V5.733c0-.345-.055-.587-.165-.726-.103-.147-.264-.22-.484-.22-.286 0-.51.103-.671.308-.154.205-.231.488-.231.847V9h-1.958zm12.472.121c-.484 0-.909-.114-1.276-.341-.367-.235-.656-.572-.869-1.012-.205-.44-.308-.96-.308-1.562 0-.609.103-1.13.308-1.562.213-.44.502-.774.869-1.001a2.316 2.316 0 011.276-.352c.433 0 .821.103 1.166.308.352.205.583.473.693.803h-.11l.121-.99h1.881l-.066.759c-.015.257-.022.51-.022.759V9h-1.936l-.022-.946h.132c-.11.323-.341.583-.693.781-.345.19-.726.286-1.144.286zm.627-1.452c.33 0 .598-.114.803-.341.205-.235.308-.609.308-1.122 0-.513-.103-.884-.308-1.111a1.016 1.016 0 00-.803-.352c-.33 0-.598.117-.803.352-.205.227-.308.598-.308 1.111s.099.887.297 1.122c.205.227.477.341.814.341zm6.584 1.452a2.41 2.41 0 01-1.276-.341 2.386 2.386 0 01-.88-1.012c-.212-.44-.319-.96-.319-1.562 0-.609.103-1.13.308-1.562.213-.44.506-.774.88-1.001a2.41 2.41 0 011.287-.352c.426 0 .811.099 1.155.297.345.19.576.447.693.77h-.165V.904h1.958V9h-1.925V7.999h.143c-.102.337-.33.609-.682.814a2.254 2.254 0 01-1.177.308zm.627-1.452c.323 0 .587-.114.792-.341.213-.235.319-.609.319-1.122 0-.513-.106-.884-.319-1.111a1.003 1.003 0 00-.792-.352c-.33 0-.601.117-.814.352-.205.227-.308.598-.308 1.111s.103.887.308 1.122c.213.227.484.341.814.341zm6.54 1.452c-.484 0-.909-.114-1.276-.341a2.418 2.418 0 01-.869-1.012c-.205-.44-.308-.96-.308-1.562 0-.609.103-1.13.308-1.562.213-.44.503-.774.869-1.001a2.316 2.316 0 011.276-.352c.433 0 .822.103 1.166.308.352.205.583.473.693.803h-.11l.121-.99h1.881l-.066.759c-.014.257-.022.51-.022.759V9h-1.936l-.022-.946h.132c-.11.323-.341.583-.693.781-.344.19-.726.286-1.144.286zm.627-1.452c.33 0 .598-.114.803-.341.206-.235.308-.609.308-1.122 0-.513-.102-.884-.308-1.111a1.016 1.016 0 00-.803-.352c-.33 0-.597.117-.803.352-.205.227-.308.598-.308 1.111s.099.887.297 1.122c.206.227.477.341.814.341zm5.154 3.036l-.737-.583c.286-.279.488-.543.605-.792.125-.25.187-.517.187-.803l.418.473h-1.397V6.998h2.035v1.265c0 .462-.084.88-.253 1.254-.161.381-.447.777-.858 1.188zm7.662-1.584c-.711 0-1.239-.194-1.584-.583-.337-.396-.506-.994-.506-1.793V3.412h1.958v3.344c0 .293.059.513.176.66.125.14.312.209.561.209a.87.87 0 00.682-.297c.184-.205.275-.473.275-.803V3.412h1.958V9h-1.903V7.999h.165c-.176.36-.414.638-.715.836-.3.19-.656.286-1.067.286zM140.189 9V4.93a13.004 13.004 0 00-.088-1.518h1.892l.11.968h-.121c.183-.352.444-.62.781-.803.337-.19.719-.286 1.144-.286.653 0 1.14.194 1.463.583.33.381.495.979.495 1.793V9h-1.958V5.755c0-.36-.062-.609-.187-.748-.125-.147-.304-.22-.539-.22-.308 0-.557.103-.748.308-.191.198-.286.462-.286.792V9h-1.958zm10.253 0V4.93a13.004 13.004 0 00-.088-1.518h1.892l.11.968h-.121c.162-.337.4-.601.715-.792a2.048 2.048 0 011.111-.297c.411 0 .759.099 1.045.297.294.19.506.495.638.913h-.187c.184-.381.448-.678.792-.891a2.234 2.234 0 011.177-.319c.638 0 1.115.194 1.43.583.316.381.473.979.473 1.793V9h-1.969V5.733c0-.345-.051-.587-.154-.726-.102-.147-.267-.22-.495-.22-.286 0-.509.103-.671.308-.154.205-.231.488-.231.847V9h-1.958V5.733c0-.345-.055-.587-.165-.726-.102-.147-.264-.22-.484-.22-.286 0-.509.103-.671.308-.154.205-.231.488-.231.847V9h-1.958zm13.22.121c-1.012 0-1.8-.26-2.365-.781-.557-.52-.836-1.236-.836-2.145 0-.565.118-1.067.352-1.507.235-.44.565-.781.99-1.023.426-.25.924-.374 1.496-.374.565 0 1.034.125 1.408.374.382.242.668.58.858 1.012.191.425.286.92.286 1.485v.418H162.1v-.924h2.31l-.187.154c0-.418-.08-.726-.242-.924-.154-.205-.374-.308-.66-.308-.33 0-.583.125-.759.374-.168.242-.253.609-.253 1.1v.198c0 .491.121.85.363 1.078.242.227.591.341 1.045.341.294 0 .569-.033.825-.099a2.58 2.58 0 00.748-.319l.506 1.276c-.278.19-.601.337-.968.44a4.3 4.3 0 01-1.166.154zM166.894 9V4.93a13.947 13.947 0 00-.088-1.518h1.892l.11.968h-.121c.183-.352.443-.62.781-.803.337-.19.718-.286 1.144-.286.652 0 1.14.194 1.463.583.33.381.495.979.495 1.793V9h-1.958V5.755c0-.36-.063-.609-.187-.748-.125-.147-.305-.22-.539-.22-.308 0-.558.103-.748.308-.191.198-.286.462-.286.792V9h-1.958zm9.108.121a6.05 6.05 0 01-1.419-.154 3.856 3.856 0 01-1.067-.44l.473-1.276c.286.161.605.293.957.396.359.103.715.154 1.067.154.279 0 .48-.04.605-.121.132-.088.198-.202.198-.341 0-.11-.04-.198-.121-.264a.801.801 0 00-.363-.143l-1.188-.209c-.469-.088-.836-.26-1.1-.517-.257-.264-.385-.605-.385-1.023 0-.381.103-.711.308-.99.205-.286.499-.506.88-.66.381-.161.832-.242 1.353-.242.425 0 .829.048 1.21.143.389.095.726.246 1.012.451l-.506 1.243a3.005 3.005 0 00-.803-.374 2.629 2.629 0 00-.847-.154c-.315 0-.539.048-.671.143-.132.088-.198.198-.198.33 0 .103.037.19.11.264.073.066.191.114.352.143l1.188.209c.484.08.854.25 1.111.506.264.25.396.59.396 1.023 0 .403-.11.748-.33 1.034-.213.279-.51.495-.891.649-.381.147-.825.22-1.331.22zm5.73 0c-.484 0-.91-.114-1.276-.341a2.405 2.405 0 01-.869-1.012c-.206-.44-.308-.96-.308-1.562 0-.609.102-1.13.308-1.562.212-.44.502-.774.869-1.001a2.314 2.314 0 011.276-.352c.432 0 .821.103 1.166.308.352.205.583.473.693.803h-.11l.121-.99h1.881l-.066.759c-.015.257-.022.51-.022.759V9h-1.936l-.022-.946h.132c-.11.323-.341.583-.693.781-.345.19-.726.286-1.144.286zm.627-1.452c.33 0 .597-.114.803-.341.205-.235.308-.609.308-1.122 0-.513-.103-.884-.308-1.111a1.017 1.017 0 00-.803-.352c-.33 0-.598.117-.803.352-.206.227-.308.598-.308 1.111s.099.887.297 1.122c.205.227.476.341.814.341zm4.01 3.806c-.176 0-.352-.011-.528-.033a1.975 1.975 0 01-.506-.132V9.803c.11.037.216.062.319.077.095.015.198.022.308.022a.765.765 0 00.528-.187c.146-.117.22-.334.22-.649V3.412h1.958v5.72c0 .77-.184 1.353-.55 1.749-.36.396-.943.594-1.749.594zm.286-8.855V.86h2.057v1.76h-2.057zm6.293 6.501c-1.012 0-1.801-.26-2.365-.781-.558-.52-.836-1.236-.836-2.145 0-.565.117-1.067.352-1.507.234-.44.564-.781.99-1.023.425-.25.924-.374 1.496-.374.564 0 1.034.125 1.408.374.381.242.667.58.858 1.012.19.425.286.92.286 1.485v.418h-3.751v-.924h2.31l-.187.154c0-.418-.081-.726-.242-.924-.154-.205-.374-.308-.66-.308-.33 0-.583.125-.759.374-.169.242-.253.609-.253 1.1v.198c0 .491.121.85.363 1.078.242.227.59.341 1.045.341.293 0 .568-.033.825-.099.264-.066.513-.172.748-.319l.506 1.276c-.279.19-.602.337-.968.44a4.311 4.311 0 01-1.166.154zm8.743 0c-.477 0-.902-.114-1.276-.341a2.38 2.38 0 01-.88-1.012c-.213-.44-.319-.96-.319-1.562 0-.609.102-1.13.308-1.562.212-.44.506-.774.88-1.001.381-.235.81-.352 1.287-.352.425 0 .81.099 1.155.297.344.19.575.447.693.77h-.165V.904h1.958V9h-1.925V7.999h.143c-.103.337-.33.609-.682.814a2.256 2.256 0 01-1.177.308zm.627-1.452c.322 0 .586-.114.792-.341.212-.235.319-.609.319-1.122 0-.513-.107-.884-.319-1.111a1.006 1.006 0 00-.792-.352c-.33 0-.602.117-.814.352-.206.227-.308.598-.308 1.111s.102.887.308 1.122c.212.227.484.341.814.341zm7.288 1.452c-1.012 0-1.801-.26-2.365-.781-.558-.52-.836-1.236-.836-2.145 0-.565.117-1.067.352-1.507.234-.44.564-.781.99-1.023.425-.25.924-.374 1.496-.374.564 0 1.034.125 1.408.374.381.242.667.58.858 1.012.19.425.286.92.286 1.485v.418h-3.751v-.924h2.31l-.187.154c0-.418-.081-.726-.242-.924-.154-.205-.374-.308-.66-.308-.33 0-.583.125-.759.374-.169.242-.253.609-.253 1.1v.198c0 .491.121.85.363 1.078.242.227.59.341 1.045.341.293 0 .568-.033.825-.099.264-.066.513-.172.748-.319l.506 1.276c-.279.19-.602.337-.968.44a4.311 4.311 0 01-1.166.154zm-206.141 14c-.792 0-1.39-.187-1.793-.561-.396-.381-.594-.957-.594-1.727v-1.98H.033v-1.441h1.045v-1.32l1.958-.462v1.782H4.4v1.441H3.036v1.903c0 .323.073.539.22.649a.897.897 0 00.528.154c.125 0 .231-.007.319-.022.095-.022.194-.051.297-.088v1.507c-.161.066-.323.11-.484.132a3.188 3.188 0 01-.451.033zm4.699 0c-1.012 0-1.8-.26-2.365-.781-.557-.52-.836-1.236-.836-2.145 0-.565.117-1.067.352-1.507a2.51 2.51 0 01.99-1.023c.425-.25.924-.374 1.496-.374.565 0 1.034.125 1.408.374.381.242.667.58.858 1.012.19.425.286.92.286 1.485v.418H6.602v-.924h2.31l-.187.154c0-.418-.08-.726-.242-.924-.154-.205-.374-.308-.66-.308-.33 0-.583.125-.759.374-.169.242-.253.609-.253 1.1v.198c0 .491.121.85.363 1.078.242.227.59.341 1.045.341.293 0 .568-.033.825-.099.264-.066.513-.172.748-.319l.506 1.276c-.279.19-.601.337-.968.44a4.305 4.305 0 01-1.166.154zm2.23-.121l2.707-3.3v.847l-2.552-3.135h2.288l1.386 1.815h-.704l1.397-1.815h2.277l-2.552 3.146v-.88L17.358 23h-2.31l-1.53-1.969h.705L12.683 23h-2.288zm10.191.121c-.792 0-1.39-.187-1.793-.561-.396-.381-.594-.957-.594-1.727v-1.98h-1.045v-1.441h1.045v-1.32l1.958-.462v1.782h1.364v1.441h-1.364v1.903c0 .323.073.539.22.649a.897.897 0 00.528.154c.125 0 .231-.007.319-.022.095-.022.194-.051.297-.088v1.507c-.161.066-.323.11-.484.132a3.187 3.187 0 01-.451.033zm4.545 0c-.623 0-1.162-.117-1.617-.352a2.53 2.53 0 01-1.056-1.001c-.25-.44-.374-.96-.374-1.562 0-.609.125-1.13.374-1.562a2.53 2.53 0 011.056-1.001c.455-.235.994-.352 1.617-.352.616 0 1.151.117 1.606.352a2.51 2.51 0 011.056 1.012c.25.433.374.95.374 1.551 0 .594-.125 1.111-.374 1.551a2.51 2.51 0 01-1.056 1.012c-.455.235-.99.352-1.606.352zm0-1.452c.323 0 .58-.114.77-.341.19-.235.286-.609.286-1.122 0-.513-.095-.884-.286-1.111a.94.94 0 00-.77-.352c-.33 0-.59.117-.781.352-.19.227-.286.598-.286 1.111s.095.887.286 1.122c.19.227.451.341.781.341zm10.189 1.452c-.624 0-1.163-.117-1.617-.352a2.53 2.53 0 01-1.056-1.001c-.25-.44-.374-.96-.374-1.562 0-.609.124-1.13.374-1.562a2.53 2.53 0 011.056-1.001c.454-.235.993-.352 1.617-.352.616 0 1.151.117 1.606.352.454.235.806.572 1.056 1.012.25.433.374.95.374 1.551 0 .594-.125 1.111-.374 1.551-.25.44-.602.777-1.056 1.012-.455.235-.99.352-1.606.352zm0-1.452c.322 0 .58-.114.77-.341.19-.235.286-.609.286-1.122 0-.513-.096-.884-.286-1.111a.94.94 0 00-.77-.352c-.33 0-.59.117-.781.352-.19.227-.286.598-.286 1.111s.095.887.286 1.122c.19.227.45.341.78.341zm9.451 1.452c-.71 0-1.239-.194-1.584-.583-.337-.396-.505-.994-.505-1.793v-3.333h1.958v3.344c0 .293.058.513.175.66.125.14.312.209.562.209a.87.87 0 00.681-.297c.184-.205.276-.473.276-.803v-3.113h1.958V23h-1.903v-1.001h.165c-.176.36-.415.638-.715.836-.301.19-.657.286-1.068.286zM49.623 23v-4.07a13.275 13.275 0 00-.088-1.518h1.892l.11.968h-.12c.183-.352.443-.62.78-.803.338-.19.719-.286 1.144-.286.653 0 1.14.194 1.463.583.33.381.495.979.495 1.793V23h-1.958v-3.245c0-.36-.062-.609-.187-.748-.124-.147-.304-.22-.539-.22-.308 0-.557.103-.748.308-.19.198-.286.462-.286.792V23h-1.958zm13.202.121c-1.013 0-1.8-.26-2.366-.781-.557-.52-.836-1.236-.836-2.145 0-.565.118-1.067.352-1.507.235-.44.565-.781.99-1.023.426-.25.924-.374 1.496-.374.565 0 1.035.125 1.409.374.38.242.667.58.858 1.012.19.425.285.92.285 1.485v.418h-3.75v-.924h2.31l-.188.154c0-.418-.08-.726-.241-.924-.154-.205-.374-.308-.66-.308-.33 0-.584.125-.76.374-.168.242-.252.609-.252 1.1v.198c0 .491.12.85.362 1.078.242.227.59.341 1.045.341.294 0 .569-.033.826-.099.264-.066.513-.172.748-.319l.505 1.276c-.278.19-.6.337-.968.44a4.304 4.304 0 01-1.166.154zm3.23-.121v-4.07a13.367 13.367 0 00-.087-1.518h1.892l.11.968h-.121c.161-.337.4-.601.715-.792.315-.198.686-.297 1.11-.297.411 0 .76.099 1.046.297.293.19.506.495.638.913h-.187a2.08 2.08 0 01.792-.891 2.231 2.231 0 011.177-.319c.638 0 1.114.194 1.43.583.315.381.473.979.473 1.793V23h-1.97v-3.267c0-.345-.05-.587-.153-.726-.103-.147-.268-.22-.495-.22-.286 0-.51.103-.671.308-.154.205-.231.488-.231.847V23h-1.958v-3.267c0-.345-.055-.587-.165-.726-.103-.147-.264-.22-.484-.22-.286 0-.51.103-.671.308-.154.205-.231.488-.231.847V23h-1.958zm12.473.121c-.484 0-.91-.114-1.276-.341-.367-.235-.656-.572-.869-1.012-.205-.44-.308-.96-.308-1.562 0-.609.103-1.13.308-1.562.213-.44.502-.774.869-1.001a2.315 2.315 0 011.276-.352c.433 0 .821.103 1.166.308.352.205.583.473.693.803h-.11l.121-.99h1.881l-.066.759c-.015.257-.022.51-.022.759V23h-1.936l-.022-.946h.132c-.11.323-.341.583-.693.781-.345.19-.726.286-1.144.286zm.627-1.452c.33 0 .598-.114.803-.341.205-.235.308-.609.308-1.122 0-.513-.103-.884-.308-1.111a1.016 1.016 0 00-.803-.352c-.33 0-.598.117-.803.352-.205.227-.308.598-.308 1.111s.099.887.297 1.122c.205.227.477.341.814.341zM83.517 23v-5.588h1.958V23h-1.958zm-.044-6.38v-1.76h2.057v1.76h-2.057zM86.796 23v-8.096h1.958V23h-1.958zm3.147 0v-2.002h2.035V23h-2.035zm3.107 0v-2.002h2.035V23H93.05zm3.107 0v-2.002h2.035V23h-2.035z" fill="#fff"/></svg>