<svg width="526" height="29" viewBox="0 0 526 29" fill="none" xmlns="http://www.w3.org/2000/svg"><path d="M.508 24V2.616h16.17v2.31H3.148v6.501H15.82v2.277H3.148v7.986h14.025V24H.508zm20.204 0V2.286h2.509V24h-2.509zm14.945 0V10.008H33.05V7.929h2.607V6.708c0-3.993 2.112-5.082 4.323-5.082 1.584 0 3.07.594 3.861 1.089l-.825 1.914c-.33-.198-1.287-.792-2.508-.792-1.254 0-2.343.627-2.343 3.135v.957h5.115v2.079h-5.115V24h-2.508zm10.344 0V7.929h2.508v3.399c.924-2.112 3.003-3.729 6.204-3.729v2.739c-3.762 0-6.204 2.112-6.204 6.039V24h-2.508zm18.54.33c-4.455 0-7.59-3.696-7.59-8.349 0-4.719 3.135-8.382 7.59-8.382 2.574 0 4.85 1.056 6.039 3.135V7.929h2.508V24H70.58v-2.805c-1.188 2.112-3.465 3.135-6.04 3.135zm.56-2.442c3.07 0 5.479-2.541 5.479-5.907s-2.41-5.94-5.478-5.94c-3.201 0-5.577 2.508-5.577 5.94 0 3.399 2.376 5.907 5.577 5.907zm18.107 2.442c-3.96 0-5.84-2.079-5.84-6.369V7.929h2.507v9.702c0 3.003 1.452 4.257 4.06 4.257 2.903 0 4.586-2.376 4.586-4.851V7.929h2.508V24H88.62v-2.838c-.99 2.079-3.3 3.168-5.412 3.168zm19.311 0c-4.455 0-7.59-3.696-7.59-8.349 0-4.719 3.135-8.382 7.59-8.382 2.574 0 4.851 1.056 6.039 3.135V2.286h2.508V24h-2.409v-2.805c-1.188 2.112-3.531 3.135-6.138 3.135zm.561-2.442c3.069 0 5.478-2.541 5.478-5.907s-2.409-5.94-5.478-5.94c-3.201 0-5.577 2.508-5.577 5.94 0 3.399 2.376 5.907 5.577 5.907zm20.284 2.442c-4.554 0-8.415-3.267-8.415-8.349 0-4.653 3.498-8.382 8.085-8.382 4.29 0 7.689 3.696 7.689 8.283 0 .462-.066.957-.066.99h-13.101c.396 3.201 2.871 5.214 5.841 5.214 1.815 0 3.63-.627 4.95-1.716l1.089 1.848a9.834 9.834 0 01-6.072 2.112zm-5.808-9.372h10.692c-.264-2.97-2.541-5.115-5.346-5.115-2.739 0-4.983 2.112-5.346 5.115zm24.591 13.695V7.929h2.409v2.772c1.188-2.079 3.531-3.102 6.138-3.102 4.455 0 7.59 3.663 7.59 8.349s-3.135 8.382-7.59 8.382c-2.541 0-4.851-1.056-6.039-3.135v7.458h-2.508zm7.986-6.765c3.201 0 5.577-2.508 5.577-5.94 0-3.399-2.376-5.907-5.577-5.907-3.069 0-5.478 2.541-5.478 5.907s2.409 5.94 5.478 5.94zm17.612 2.442c-3.96 0-5.841-2.079-5.841-6.369V7.929h2.508v9.702c0 3.003 1.452 4.257 4.059 4.257 2.904 0 4.587-2.376 4.587-4.851V7.929h2.508V24h-2.409v-2.838c-.99 2.079-3.3 3.168-5.412 3.168zm20.136 0c-4.554 0-8.415-3.267-8.415-8.349 0-4.653 3.498-8.382 8.085-8.382 4.29 0 7.689 3.696 7.689 8.283 0 .462-.066.957-.066.99h-13.101c.396 3.201 2.871 5.214 5.841 5.214 1.815 0 3.63-.627 4.95-1.716l1.089 1.848a9.834 9.834 0 01-6.072 2.112zm-5.808-9.372h10.692c-.264-2.97-2.541-5.115-5.346-5.115-2.739 0-4.983 2.112-5.346 5.115zm24.004 9.372c-4.455 0-7.59-3.696-7.59-8.349 0-4.719 3.135-8.382 7.59-8.382 2.574 0 4.851 1.056 6.039 3.135V2.286h2.508V24h-2.409v-2.805c-1.188 2.112-3.531 3.135-6.138 3.135zm.561-2.442c3.069 0 5.478-2.541 5.478-5.907s-2.409-5.94-5.478-5.94c-3.201 0-5.577 2.508-5.577 5.94 0 3.399 2.376 5.907 5.577 5.907zm20.285 2.442c-4.554 0-8.415-3.267-8.415-8.349 0-4.653 3.498-8.382 8.085-8.382 4.29 0 7.689 3.696 7.689 8.283 0 .462-.066.957-.066.99h-13.101c.396 3.201 2.871 5.214 5.841 5.214 1.815 0 3.63-.627 4.95-1.716l1.089 1.848a9.834 9.834 0 01-6.072 2.112zm-5.808-9.372h10.692c-.264-2.97-2.541-5.115-5.346-5.115-2.739 0-4.983 2.112-5.346 5.115zM245.705 24V2.286h2.508V24h-2.508zm7.066 0V2.286h2.508V24h-2.508zm14.82.33c-4.554 0-8.415-3.267-8.415-8.349 0-4.653 3.498-8.382 8.085-8.382 4.29 0 7.689 3.696 7.689 8.283 0 .462-.066.957-.066.99h-13.101c.396 3.201 2.871 5.214 5.841 5.214 1.815 0 3.63-.627 4.95-1.716l1.089 1.848a9.834 9.834 0 01-6.072 2.112zm-5.808-9.372h10.692c-.264-2.97-2.541-5.115-5.346-5.115-2.739 0-4.983 2.112-5.346 5.115zm24.302 13.893c-2.574 0-4.785-.858-6.303-2.376l1.056-1.617c1.287 1.287 3.168 2.013 5.049 2.013 2.739 0 5.841-1.683 5.841-6.435v-.528c-.693 1.815-2.904 3.3-6.006 3.3-4.422 0-7.524-3.432-7.524-7.788s3.102-7.821 7.524-7.821c2.772 0 5.28 1.254 6.105 3.267V7.929h2.409V20.37c0 6.468-4.62 8.481-8.151 8.481zm.132-7.887c3.135 0 5.511-2.376 5.511-5.742 0-3.036-2.475-5.379-5.511-5.379-3.069 0-5.445 2.409-5.445 5.577s2.376 5.544 5.445 5.544zm19.494 3.366c-4.455 0-7.59-3.696-7.59-8.349 0-4.719 3.135-8.382 7.59-8.382 2.574 0 4.851 1.056 6.039 3.135V7.929h2.508V24h-2.508v-2.805c-1.188 2.112-3.465 3.135-6.039 3.135zm.561-2.442c3.069 0 5.478-2.541 5.478-5.907s-2.409-5.94-5.478-5.94c-3.201 0-5.577 2.508-5.577 5.94 0 3.399 2.376 5.907 5.577 5.907zM318.802 24V7.929h2.508v3.399c.924-2.112 3.003-3.729 6.204-3.729v2.739c-3.762 0-6.204 2.112-6.204 6.039V24h-2.508zm26.378.33c-4.455 0-7.59-3.696-7.59-8.349 0-4.719 3.135-8.382 7.59-8.382 2.574 0 4.851 1.056 6.039 3.135V7.929h2.508V24h-2.508v-2.805c-1.188 2.112-3.465 3.135-6.039 3.135zm.561-2.442c3.069 0 5.478-2.541 5.478-5.907s-2.409-5.94-5.478-5.94c-3.201 0-5.577 2.508-5.577 5.94 0 3.399 2.376 5.907 5.577 5.907zm25.425 2.442c-2.838 0-4.521-1.386-4.521-5.148v-9.174h-2.409V7.929h2.409V4.464l2.508-.462v3.927h5.478v2.079h-5.478v9.24c0 2.211.957 2.838 2.244 2.838 1.485 0 2.64-.891 2.64-.891l.825 1.947c-.627.429-1.947 1.188-3.696 1.188zm7.004-.33V7.929h2.508v3.399c.924-2.112 3.003-3.729 6.204-3.729v2.739c-3.762 0-6.204 2.112-6.204 6.039V24h-2.508zm18.539.33c-4.455 0-7.59-3.696-7.59-8.349 0-4.719 3.135-8.382 7.59-8.382 2.574 0 4.851 1.056 6.039 3.135V7.929h2.508V24h-2.508v-2.805c-1.188 2.112-3.465 3.135-6.039 3.135zm.561-2.442c3.069 0 5.478-2.541 5.478-5.907s-2.409-5.94-5.478-5.94c-3.201 0-5.577 2.508-5.577 5.94 0 3.399 2.376 5.907 5.577 5.907zm17.809 2.211l-7.095-16.17h2.541l4.554 10.263c.66 1.485 1.155 3.201 1.155 3.201s.495-1.716 1.155-3.201l4.521-10.263h2.541l-7.062 16.17h-2.31zm17.42-18.744l2.673-4.389h2.739l-3.102 4.389h-2.31zm2.046 18.975c-4.554 0-8.415-3.267-8.415-8.349 0-4.653 3.498-8.382 8.085-8.382 4.29 0 7.689 3.696 7.689 8.283 0 .462-.066.957-.066.99h-13.101c.396 3.201 2.871 5.214 5.841 5.214 1.815 0 3.63-.627 4.95-1.716l1.089 1.848a9.834 9.834 0 01-6.072 2.112zm-5.808-9.372h10.692c-.264-2.97-2.541-5.115-5.346-5.115-2.739 0-4.983 2.112-5.346 5.115zm22.487 9.372c-3.267 0-5.346-1.485-6.27-2.442l1.023-2.046c1.188 1.155 2.904 2.112 5.247 2.112 2.211 0 4.026-1.023 4.026-2.475 0-1.683-1.947-2.145-3.894-2.64-2.97-.759-5.676-1.584-5.676-4.653 0-2.904 3.036-4.587 5.742-4.587 2.211 0 3.828.594 5.478 1.716l-.99 2.046c-1.353-.924-2.772-1.386-4.455-1.386-1.65 0-3.201.924-3.201 2.178 0 1.584 1.782 1.947 3.663 2.343 2.904.66 5.907 1.749 5.907 4.917 0 3.399-3.465 4.917-6.6 4.917zm24.833 0c-4.455 0-7.59-3.696-7.59-8.349 0-4.719 3.135-8.382 7.59-8.382 2.574 0 4.851 1.056 6.039 3.135V2.286h2.508V24h-2.409v-2.805c-1.188 2.112-3.531 3.135-6.138 3.135zm.561-2.442c3.069 0 5.478-2.541 5.478-5.907s-2.409-5.94-5.478-5.94c-3.201 0-5.577 2.508-5.577 5.94 0 3.399 2.376 5.907 5.577 5.907zm20.285 2.442c-4.554 0-8.415-3.267-8.415-8.349 0-4.653 3.498-8.382 8.085-8.382 4.29 0 7.689 3.696 7.689 8.283 0 .462-.066.957-.066.99h-13.101c.396 3.201 2.871 5.214 5.841 5.214 1.815 0 3.63-.627 4.95-1.716l1.089 1.848a9.834 9.834 0 01-6.072 2.112zm-5.808-9.372h10.692c-.264-2.97-2.541-5.115-5.346-5.115-2.739 0-4.983 2.112-5.346 5.115zm18.295 9.372c-.99 0-1.716-.792-1.716-1.749 0-.957.759-1.749 1.716-1.749a1.76 1.76 0 011.749 1.749 1.76 1.76 0 01-1.749 1.749zm7.033 0c-.99 0-1.716-.792-1.716-1.749 0-.957.759-1.749 1.716-1.749a1.76 1.76 0 011.749 1.749 1.76 1.76 0 01-1.749 1.749zm7.033 0c-.99 0-1.716-.792-1.716-1.749 0-.957.759-1.749 1.716-1.749a1.76 1.76 0 011.749 1.749 1.76 1.76 0 01-1.749 1.749z" fill="#fff" fill-opacity=".75"/></svg>