<svg width="258" height="90" viewBox="0 0 258 90" fill="none" xmlns="http://www.w3.org/2000/svg"><path fill-rule="evenodd" clip-rule="evenodd" d="M106.351 171.209c21.034 0 41.596-6.134 59.086-17.629 17.489-11.494 31.12-27.831 39.17-46.945a103.017 103.017 0 006.052-60.438c-4.104-20.291-14.233-38.93-29.106-53.559-14.874-14.63-33.824-24.592-54.454-28.628a108.001 108.001 0 00-61.447 5.953C46.22-22.12 29.61-8.713 17.923 8.489 6.237 25.692 0 45.916 0 66.605c0 27.743 11.205 54.349 31.15 73.966 19.944 19.618 46.995 30.638 75.201 30.638z" fill="#495E89" opacity=".54"/><path fill-rule="evenodd" clip-rule="evenodd" d="M245.855 38.84c2.402 0 4.75-.701 6.747-2.014a11.993 11.993 0 004.474-5.36 11.77 11.77 0 00.691-6.903 11.893 11.893 0 00-3.324-6.116 12.212 12.212 0 00-6.219-3.27 12.333 12.333 0 00-7.017.68 12.1 12.1 0 00-5.45 4.4 11.803 11.803 0 00-2.047 6.637c0 3.168 1.279 6.206 3.557 8.447a12.25 12.25 0 008.588 3.498z" fill="#7588AF"/><path fill-rule="evenodd" clip-rule="evenodd" d="M178.053 183c15.424.001 30.503-4.496 43.328-12.924 12.825-8.428 22.822-20.407 28.725-34.423a75.546 75.546 0 004.44-44.32c-3.009-14.879-10.437-28.547-21.343-39.274-10.907-10.728-24.803-18.033-39.931-20.993a79.195 79.195 0 00-45.059 4.367c-14.25 5.806-26.429 15.638-34.998 28.253-8.568 12.615-13.141 27.446-13.14 42.617 0 20.341 8.216 39.849 22.839 54.233C137.538 174.919 157.372 183 178.053 183z" fill="#1A2B4F" opacity=".51"/></svg>