<svg width="188" height="40" viewBox="0 0 188 40" fill="none" xmlns="http://www.w3.org/2000/svg"><path d="M15.054 39.51C7.047 39.51.978 33.492.978 25.995c0-7.548 6.069-13.566 14.076-13.566 8.007 0 14.076 6.018 14.076 13.566 0 7.497-6.07 13.515-14.076 13.515zm0-8.16c2.754 0 4.692-2.193 4.692-5.355 0-3.111-1.938-5.406-4.692-5.406-2.754 0-4.692 2.295-4.692 5.406 0 3.162 1.938 5.355 4.692 5.355zm43.094 8.16c-7.905 0-14.637-4.947-14.637-13.515 0-7.548 5.865-13.566 13.566-13.566 7.395 0 13.056 6.018 13.056 13.566 0 1.581-.204 3.009-.204 3.009H52.64c.765 2.448 3.06 3.366 5.559 3.366 2.193 0 4.539-.663 6.171-1.581l3.111 6.273c-2.907 1.785-6.12 2.448-9.333 2.448zm-5.763-15.759h9.282c-.306-2.397-2.193-4.029-4.59-4.029-2.295 0-4.131 1.632-4.692 4.029zM73.705 39V12.939h8.772v2.856c1.938-2.193 4.947-3.366 7.854-3.366 4.182 0 6.426 1.683 7.65 4.029 2.244-3.264 5.712-4.029 8.313-4.029 8.415 0 9.129 6.783 9.129 12.036V39h-9.282V25.536c0-3.111-.867-4.539-2.907-4.539-2.754 0-4.03 2.499-4.03 5.712V39h-9.281V25.536c0-3.111-.867-4.539-2.907-4.539-2.754 0-4.03 2.499-4.03 5.712V39h-9.281zm56.18.51c-7.242 0-11.169-6.018-11.169-13.515 0-7.548 3.927-13.566 11.169-13.566 2.091 0 5.559.714 7.089 3.417v-2.907h8.772V39h-8.772v-2.907c-1.428 2.652-4.998 3.417-7.089 3.417zm2.448-8.16c2.448 0 4.182-2.193 4.182-5.355 0-3.111-1.734-5.406-4.182-5.406-2.448 0-4.182 2.295-4.182 5.406 0 3.162 1.734 5.355 4.182 5.355zM149.806 39V12.939h9.282V39h-9.282zm4.59-28.05c-2.856 0-5.253-2.397-5.253-5.253 0-2.907 2.397-5.304 5.253-5.304 2.958 0 5.355 2.397 5.355 5.304 0 2.856-2.397 5.253-5.355 5.253zM163.154 39V5.442h9.282V39h-9.282zm18.804.51c-2.907 0-5.049-2.193-5.049-4.998s2.142-4.998 5.049-4.998c2.958 0 5.151 2.193 5.151 4.998s-2.193 4.998-5.151 4.998z" fill="#fff"/></svg>