<svg width="411" height="49" viewBox="0 0 411 49" fill="none" xmlns="http://www.w3.org/2000/svg"><path d="M.25 39V12.939h8.773v2.856c1.938-2.193 4.947-3.366 7.854-3.366 4.182 0 6.426 1.683 7.65 4.029 2.244-3.264 5.712-4.029 8.313-4.029 8.415 0 9.129 6.783 9.129 12.036V39h-9.282V25.536c0-3.111-.867-4.539-2.907-4.539-2.754 0-4.03 2.499-4.03 5.712V39H16.47V25.536c0-3.111-.867-4.539-2.907-4.539-2.754 0-4.03 2.499-4.03 5.712V39H.252zm59.65.51c-7.906 0-14.638-4.947-14.638-13.515 0-7.548 5.865-13.566 13.566-13.566 7.395 0 13.056 6.018 13.056 13.566 0 1.581-.204 3.009-.204 3.009H54.391c.765 2.448 3.06 3.366 5.56 3.366 2.192 0 4.538-.663 6.17-1.581l3.111 6.273c-2.907 1.785-6.12 2.448-9.333 2.448zm-5.764-15.759h9.282c-.306-2.397-2.193-4.029-4.59-4.029-2.295 0-4.13 1.632-4.692 4.029zM75.456 39V12.939h8.772v3.009c2.397-2.805 5.253-3.519 7.854-3.519 6.579 0 9.129 3.876 9.129 11.526V39h-9.282V25.128c0-2.958-1.122-4.029-2.907-4.029-2.856 0-4.284 2.397-4.284 5.61V39h-9.282zm39.172.51c-5.967 0-9.282-1.785-10.812-3.111l2.958-6.528c2.04 1.377 3.927 2.193 7.905 2.193.102 0 2.55-.153 2.55-1.173 0-.816-1.53-.969-3.06-1.326-5.661-1.377-9.843-3.672-9.843-8.466 0-5.712 5.202-8.67 10.71-8.67 5.049 0 8.058 1.122 10.557 2.448l-2.754 6.222c-3.009-1.173-5.763-1.53-7.497-1.53-.918 0-1.632.306-1.632.816 0 .969 2.193 1.326 4.794 2.04 3.672 1.071 8.109 2.856 8.109 8.109 0 6.987-7.089 8.976-11.985 8.976zm25.675 0c-7.242 0-11.169-6.018-11.169-13.515 0-7.548 3.927-13.566 11.169-13.566 2.091 0 5.559.714 7.089 3.417v-2.907h8.772V39h-8.772v-2.907c-1.428 2.652-4.998 3.417-7.089 3.417zm2.448-8.16c2.448 0 4.182-2.193 4.182-5.355 0-3.111-1.734-5.406-4.182-5.406-2.448 0-4.182 2.295-4.182 5.406 0 3.162 1.734 5.355 4.182 5.355zm16.504 17.544l-3.366-6.273c3.264-1.632 4.335-4.539 4.335-7.599V12.939h9.282v20.604c0 8.109-3.57 12.393-10.251 15.351zm5.559-37.944c-2.856 0-5.253-2.397-5.253-5.253 0-2.907 2.397-5.304 5.253-5.304 2.958 0 5.355 2.397 5.355 5.304 0 2.856-2.397 5.253-5.355 5.253zm22.884 28.56c-7.905 0-14.637-4.947-14.637-13.515 0-7.548 5.865-13.566 13.566-13.566 7.395 0 13.056 6.018 13.056 13.566 0 1.581-.204 3.009-.204 3.009H182.19c.765 2.448 3.06 3.366 5.559 3.366 2.193 0 4.539-.663 6.171-1.581l3.111 6.273c-2.907 1.785-6.12 2.448-9.333 2.448zm-5.763-15.759h9.282c-.306-2.397-2.193-4.029-4.59-4.029-2.295 0-4.131 1.632-4.692 4.029zM225.22 39.51c-7.242 0-11.169-6.018-11.169-13.515 0-7.548 4.182-13.566 11.475-13.566 2.091 0 4.692.714 6.273 2.703v-9.69h9.282V39h-8.772v-2.907c-1.377 2.652-4.998 3.417-7.089 3.417zm2.448-8.16c2.448 0 4.182-2.193 4.182-5.355 0-3.111-1.734-5.406-4.182-5.406-2.448 0-4.182 2.295-4.182 5.406 0 3.162 1.734 5.355 4.182 5.355zm31.6 8.16c-7.905 0-14.637-4.947-14.637-13.515 0-7.548 5.865-13.566 13.566-13.566 7.395 0 13.056 6.018 13.056 13.566 0 1.581-.204 3.009-.204 3.009H253.76c.765 2.448 3.06 3.366 5.559 3.366 2.193 0 4.539-.663 6.171-1.581l3.111 6.273c-2.907 1.785-6.12 2.448-9.333 2.448zm-5.763-15.759h9.282c-.306-2.397-2.193-4.029-4.59-4.029-2.295 0-4.131 1.632-4.692 4.029zm43.029 15.759c-4.998 0-8.262-3.213-8.262-8.925V20.283h-3.825v-7.344h3.825V8.247l9.282-2.295v6.987h5.763v7.344h-5.763v9.588c0 1.224.612 1.632 1.428 1.632.765 0 1.683-.357 2.346-.816l2.499 6.783c-2.244 1.581-4.998 2.04-7.293 2.04zm23.844 0c-7.905 0-14.637-4.947-14.637-13.515 0-7.548 5.865-13.566 13.566-13.566 7.395 0 13.056 6.018 13.056 13.566 0 1.581-.204 3.009-.204 3.009H314.87c.765 2.448 3.06 3.366 5.559 3.366 2.193 0 4.539-.663 6.171-1.581l3.111 6.273c-2.907 1.785-6.12 2.448-9.333 2.448zm-5.763-15.759h9.282c-.306-2.397-2.193-4.029-4.59-4.029-2.295 0-4.131 1.632-4.692 4.029zM332.714 39l7.701-13.362-7.701-12.699h9.996l1.071 2.244c1.02 2.142 2.499 5.661 2.499 5.661s1.479-3.519 2.499-5.661l1.071-2.244h9.996l-7.701 12.699L359.846 39h-10.098l-1.275-2.856c-.918-2.091-2.193-5.559-2.193-5.559s-1.326 3.417-2.244 5.559L342.812 39h-10.098zm40.17.51c-4.998 0-8.262-3.213-8.262-8.925V20.283h-3.825v-7.344h3.825V8.247l9.282-2.295v6.987h5.763v7.344h-5.763v9.588c0 1.224.612 1.632 1.428 1.632.765 0 1.683-.357 2.346-.816l2.499 6.783c-2.244 1.581-4.998 2.04-7.293 2.04zm23.284 0c-8.007 0-14.076-6.018-14.076-13.515 0-7.548 6.069-13.566 14.076-13.566 8.007 0 14.076 6.018 14.076 13.566 0 7.497-6.069 13.515-14.076 13.515zm0-8.16c2.754 0 4.692-2.193 4.692-5.355 0-3.111-1.938-5.406-4.692-5.406-2.754 0-4.692 2.295-4.692 5.406 0 3.162 1.938 5.355 4.692 5.355z" fill="#fff"/></svg>