<svg width="83" height="80" viewBox="0 0 83 80" fill="none" xmlns="http://www.w3.org/2000/svg"><path d="M57.299 3.212H13.145c-5.226 0-9.462 4.05-9.462 9.045v72.36c0 4.995 4.236 9.044 9.462 9.044h44.154c5.225 0 9.461-4.05 9.461-9.044v-72.36c0-4.996-4.236-9.045-9.461-9.045z" fill="#F2F2F2"/><path d="M66.76 12.257c0-2.399-.997-4.7-2.771-6.396-1.774-1.696-4.181-2.65-6.69-2.65H13.145c-2.51 0-4.916.954-6.69 2.65-1.775 1.696-2.772 3.997-2.772 6.396v12.06H66.76v-12.06zM3.708 85.644c0 2.126.992 4.165 2.758 5.67 1.766 1.503 4.161 2.348 6.659 2.348H57.07c2.498 0 4.893-.845 6.659-2.349 1.766-1.504 2.758-3.543 2.758-5.67v-10.69H3.707v10.69zM78.303 31.83L54.145 49.617 29.986 31.83a3.189 3.189 0 012.082-.773h44.154a3.189 3.189 0 012.081.773z" fill="#C1C5C8"/><path d="M79.376 34.15v30.937c0 .82-.333 1.607-.924 2.188a3.185 3.185 0 01-2.23.906H32.068a3.185 3.185 0 01-2.23-.906 3.064 3.064 0 01-.924-2.188V34.149c0-.439.096-.873.281-1.273.185-.4.455-.757.791-1.047l24.159 17.79 24.158-17.79c.337.29.606.647.791 1.047.185.4.281.834.282 1.273z" fill="#F2F2F2"/><path d="M38.376 15.587c0-.82-.333-1.607-.924-2.188a3.185 3.185 0 00-2.23-.906H22.606c-.836 0-1.638.326-2.23.906a3.064 3.064 0 00-.924 2.188c0 .82.333 1.607.924 2.188.592.58 1.394.906 2.23.906h12.616c.836 0 1.638-.326 2.23-.907.591-.58.924-1.367.924-2.187z" fill="#101B31"/><path d="M80.385 29.509a6.379 6.379 0 00-4.163-1.547h-6.308V12.493c0-3.282-1.33-6.43-3.695-8.75A12.74 12.74 0 0057.3.118H13.145a12.74 12.74 0 00-8.92 3.625 12.257 12.257 0 00-3.696 8.75v74.25c0 3.282 1.33 6.43 3.695 8.75a12.74 12.74 0 008.92 3.625H57.3a12.74 12.74 0 008.92-3.624 12.257 12.257 0 003.695-8.75v-15.47h6.308a6.37 6.37 0 004.46-1.812 6.128 6.128 0 001.847-4.375V34.149a6.089 6.089 0 00-.562-2.547c-.37-.8-.91-1.513-1.582-2.093zm-10.471 4.64l-15.77 11.602-15.768-11.602h31.538zm-6.308 52.594a6.128 6.128 0 01-1.847 4.375 6.37 6.37 0 01-4.46 1.813H13.145a6.37 6.37 0 01-4.46-1.813 6.128 6.128 0 01-1.848-4.375v-74.25c0-1.64.665-3.215 1.848-4.375a6.37 6.37 0 014.46-1.812h44.154a6.37 6.37 0 014.46 1.812 6.128 6.128 0 011.847 4.375v15.469H32.068a6.379 6.379 0 00-4.163 1.547 6.198 6.198 0 00-1.582 2.093c-.37.8-.562 1.669-.563 2.547v30.938c0 1.64.665 3.215 1.848 4.375a6.37 6.37 0 004.46 1.812h31.538v15.47zM32.068 65.087V37.243l20.184 14.85c.546.402 1.21.619 1.893.619.682 0 1.346-.217 1.892-.619l20.185-14.85v27.844H32.068z" fill="#101B31"/><path d="M47.837 18.68c1.742 0 3.154-1.384 3.154-3.093s-1.412-3.094-3.154-3.094-3.154 1.385-3.154 3.094c0 1.709 1.412 3.094 3.154 3.094zM35.222 85.184c1.742 0 3.154-1.385 3.154-3.094 0-1.708-1.412-3.093-3.154-3.093s-3.154 1.385-3.154 3.093c0 1.709 1.412 3.094 3.154 3.094z" fill="#101B31"/><path d="M80.385 29.509a6.379 6.379 0 00-4.163-1.547H32.068a6.38 6.38 0 00-4.163 1.547 6.198 6.198 0 00-1.582 2.093 6.09 6.09 0 00-.563 2.547v30.938c0 1.64.665 3.215 1.848 4.375a6.37 6.37 0 004.46 1.812h44.154a6.37 6.37 0 004.46-1.812 6.128 6.128 0 001.847-4.375V34.149a6.09 6.09 0 00-.562-2.547 6.197 6.197 0 00-1.582-2.093zm-10.471 4.64l-15.77 11.602-15.768-11.602h31.538zm6.308 30.938H32.068V37.243l20.184 14.85c.546.402 1.21.619 1.893.619.682 0 1.346-.217 1.892-.619l20.185-14.85v27.844z" fill="#C80000"/></svg>