<svg width="83" height="80" viewBox="0 0 83 80" fill="none" xmlns="http://www.w3.org/2000/svg"><path d="M56.929 3.118H12.775c-5.225 0-9.462 4.03-9.462 9v72c0 4.97 4.237 9 9.462 9h44.154c5.225 0 9.461-4.03 9.461-9v-72c0-4.97-4.236-9-9.461-9z" fill="#F2F2F2"/><path d="M66.39 12.118c0-2.387-.996-4.676-2.77-6.364-1.775-1.688-4.182-2.636-6.691-2.636H12.775c-2.51 0-4.916.948-6.69 2.636-1.775 1.688-2.772 3.977-2.772 6.364v12H66.39v-12zM3.313 84.118c0 2.387.997 4.676 2.772 6.364 1.774 1.688 4.18 2.636 6.69 2.636h44.154c2.51 0 4.916-.948 6.69-2.636 1.775-1.688 2.771-3.977 2.771-6.364v-12H3.313v12z" fill="#C1C5C8"/><path d="M79.006 24.118v30c0 .796-.332 1.559-.924 2.121a3.238 3.238 0 01-2.23.88h-15.77l-9.46 9-9.462-9h-9.462a3.238 3.238 0 01-2.23-.88 2.928 2.928 0 01-.924-2.12v-30c0-.796.333-1.56.924-2.122a3.238 3.238 0 012.23-.879h44.154c.837 0 1.639.316 2.23.879.592.563.924 1.326.924 2.121z" fill="#F2F2F2"/><path d="M75.852 18.118h-6.308v-6c0-3.182-1.329-6.235-3.695-8.485-2.366-2.25-5.574-3.515-8.92-3.515H12.775c-3.346 0-6.555 1.264-8.92 3.515C1.489 5.883.16 8.936.16 12.118v72c0 3.183 1.329 6.235 3.695 8.485 2.365 2.25 5.574 3.515 8.92 3.515H56.93c3.346 0 6.554-1.264 8.92-3.515 2.366-2.25 3.695-5.302 3.695-8.485v-15c0-.795-.332-1.558-.923-2.121a3.238 3.238 0 00-2.23-.879c-.837 0-1.64.316-2.23.879a2.928 2.928 0 00-.924 2.121v15c0 1.592-.665 3.118-1.848 4.243-1.183 1.125-2.787 1.757-4.46 1.757H12.775c-1.673 0-3.277-.632-4.46-1.757-1.183-1.125-1.848-2.651-1.848-4.243v-72c0-1.591.665-3.117 1.848-4.242 1.183-1.126 2.787-1.758 4.46-1.758H56.93c1.673 0 3.277.632 4.46 1.758 1.183 1.125 1.848 2.65 1.848 4.242v6H31.698c-1.673 0-3.277.632-4.46 1.758-1.183 1.125-1.848 2.65-1.848 4.242v30c0 1.591.665 3.118 1.848 4.243 1.183 1.125 2.787 1.757 4.46 1.757h8.169l8.515 8.13a3.17 3.17 0 001.026.657 3.295 3.295 0 002.426 0 3.17 3.17 0 001.026-.657l8.516-8.13h14.476c1.673 0 3.277-.632 4.46-1.757 1.183-1.125 1.848-2.651 1.848-4.243v-30c0-1.591-.665-3.117-1.848-4.242-1.183-1.126-2.787-1.758-4.46-1.758zm0 36h-15.77a3.297 3.297 0 00-1.21.223 3.17 3.17 0 00-1.029.647l-7.222 6.9-7.222-6.9a3.171 3.171 0 00-1.029-.647 3.298 3.298 0 00-1.21-.223h-9.462v-30h44.154v30z" fill="#101B31"/><path d="M75.852 18.118H31.698c-1.673 0-3.277.632-4.46 1.758-1.183 1.125-1.848 2.65-1.848 4.242v30c0 1.591.665 3.118 1.848 4.243 1.183 1.125 2.787 1.757 4.46 1.757h8.169l8.515 8.13c.293.281.642.504 1.026.657a3.294 3.294 0 002.426 0 3.169 3.169 0 001.026-.657l8.516-8.13h14.476c1.673 0 3.277-.632 4.46-1.757 1.183-1.125 1.848-2.651 1.848-4.243v-30c0-1.591-.665-3.117-1.848-4.242-1.183-1.126-2.787-1.758-4.46-1.758zm0 36h-15.77a3.297 3.297 0 00-1.21.223 3.17 3.17 0 00-1.029.647l-7.222 6.9-7.222-6.9a3.17 3.17 0 00-1.029-.647 3.297 3.297 0 00-1.21-.223h-9.462v-30h44.154v30z" fill="#C80000"/><path d="M44.313 36.118h18.924c.836 0 1.638-.316 2.23-.879a2.928 2.928 0 00.923-2.12c0-.797-.332-1.56-.923-2.122a3.238 3.238 0 00-2.23-.879H44.313c-.836 0-1.638.316-2.23.879a2.928 2.928 0 00-.923 2.121c0 .796.332 1.559.923 2.121a3.238 3.238 0 002.23.88zM44.313 48.118h18.924c.836 0 1.638-.316 2.23-.879a2.928 2.928 0 00.923-2.12c0-.797-.332-1.56-.923-2.122a3.238 3.238 0 00-2.23-.879H44.313c-.836 0-1.638.316-2.23.879a2.928 2.928 0 00-.923 2.121c0 .796.332 1.559.923 2.121a3.238 3.238 0 002.23.88z" fill="#C80000"/><path d="M34.852 84.508c1.742 0 3.154-1.386 3.154-3.097 0-1.71-1.412-3.098-3.154-3.098s-3.154 1.387-3.154 3.098c0 1.71 1.412 3.097 3.154 3.097z" fill="#101B31"/></svg>