<svg width="244" height="15" viewBox="0 0 244 15" fill="none" xmlns="http://www.w3.org/2000/svg"><path d="M.124 10.29c0-.238.086-.443.26-.617a.849.849 0 01.622-.26c.241 0 .448.087.622.26.173.174.26.381.26.622a.856.856 0 01-.26.629.846.846 0 01-.622.254.853.853 0 01-.629-.254.861.861 0 01-.253-.635zm2.841 0c0-.238.087-.443.26-.617a.849.849 0 01.623-.26c.24 0 .448.087.622.26.173.174.26.381.26.622a.856.856 0 01-.26.629.846.846 0 01-.622.254.853.853 0 01-.629-.254.861.861 0 01-.254-.635zm2.842 0c0-.238.087-.443.26-.617a.849.849 0 01.622-.26c.242 0 .449.087.622.26.174.174.26.381.26.622a.856.856 0 01-.26.629.846.846 0 01-.622.254.853.853 0 01-.628-.254.861.861 0 01-.254-.635zm4.048 4.074H8.427V4.817h1.428v.673c.563-.563 1.202-.844 1.917-.844.85 0 1.55.313 2.1.94.56.622.839 1.407.839 2.354 0 .927-.277 1.7-.832 2.317-.55.614-1.244.92-2.082.92-.724 0-1.371-.29-1.942-.869v4.056zm3.396-6.417c0-.593-.161-1.075-.483-1.447a1.56 1.56 0 00-1.231-.565c-.525 0-.95.182-1.276.545-.326.364-.489.843-.489 1.435 0 .58.163 1.058.489 1.435.322.368.745.552 1.27.552.495 0 .903-.186 1.225-.559.33-.372.495-.838.495-1.396zm7.528-3.13h1.435V11h-1.435v-.648c-.588.55-1.22.826-1.898.826-.855 0-1.561-.31-2.12-.927-.554-.63-.831-1.418-.831-2.361 0-.927.277-1.7.831-2.317a2.68 2.68 0 012.082-.927c.72 0 1.365.296 1.936.889v-.718zM17.39 7.89c0 .592.16 1.075.477 1.447a1.56 1.56 0 001.23.565c.53 0 .957-.182 1.283-.546.326-.377.489-.855.489-1.435 0-.58-.163-1.058-.489-1.434-.326-.368-.749-.552-1.27-.552-.49 0-.9.186-1.23.558-.327.377-.49.842-.49 1.397zm6.627-3.073h1.429v.553c.262-.275.495-.464.698-.565.207-.106.453-.159.736-.159.377 0 .77.123 1.18.368l-.653 1.308c-.27-.195-.535-.292-.793-.292-.78 0-1.168.588-1.168 1.764V11h-1.429V4.817zm9.331 0h1.435V11h-1.435v-.648c-.588.55-1.22.826-1.898.826-.854 0-1.561-.31-2.12-.927-.554-.63-.831-1.418-.831-2.361 0-.927.277-1.7.831-2.317.555-.618 1.249-.927 2.082-.927.72 0 1.365.296 1.936.889v-.718zm-3.39 3.073c0 .592.16 1.075.477 1.447a1.56 1.56 0 001.231.565c.53 0 .957-.182 1.282-.546.326-.377.49-.855.49-1.435 0-.58-.164-1.058-.49-1.434-.325-.368-.748-.552-1.269-.552-.49 0-.901.186-1.232.558-.325.377-.488.842-.488 1.397zm15.197-3.073h1.435V11h-1.435v-.648c-.588.55-1.22.826-1.898.826-.855 0-1.561-.31-2.12-.927-.554-.63-.832-1.418-.832-2.361 0-.927.278-1.7.832-2.317a2.68 2.68 0 012.082-.927c.72 0 1.365.296 1.936.889v-.718zm-3.39 3.073c0 .592.16 1.075.476 1.447a1.56 1.56 0 001.232.565c.529 0 .956-.182 1.282-.546.326-.377.489-.855.489-1.435 0-.58-.163-1.058-.489-1.434-.326-.368-.749-.552-1.27-.552-.49 0-.9.186-1.23.558-.327.377-.49.842-.49 1.397zm10.22-2.019l-1.18.629c-.187-.381-.417-.572-.692-.572a.47.47 0 00-.337.134.425.425 0 00-.14.33c0 .237.276.471.826.704.757.326 1.267.626 1.53.902.262.275.393.645.393 1.11 0 .597-.22 1.096-.66 1.498-.427.381-.944.572-1.549.572-1.037 0-1.77-.506-2.203-1.517l1.22-.565c.168.296.297.484.386.565.174.16.381.24.622.24.483 0 .724-.22.724-.66 0-.253-.186-.49-.559-.71a20.167 20.167 0 00-.431-.21c-.144-.067-.29-.137-.438-.21-.415-.202-.707-.405-.876-.609-.216-.258-.324-.59-.324-.996 0-.538.184-.982.552-1.333a1.937 1.937 0 011.371-.527c.792 0 1.38.408 1.765 1.225zm7.319 2.374h-4.43c.037.508.203.912.494 1.213.292.296.667.444 1.124.444.355 0 .65-.085.882-.254.229-.17.49-.482.781-.94l1.206.673a4.92 4.92 0 01-.59.82 3.27 3.27 0 01-.667.558c-.237.144-.493.25-.768.317a3.739 3.739 0 01-.895.102c-.922 0-1.663-.296-2.221-.889-.56-.597-.838-1.388-.838-2.374 0-.978.27-1.769.812-2.374.546-.597 1.27-.895 2.171-.895.91 0 1.63.29 2.158.87.525.575.787 1.373.787 2.393l-.006.336zm-1.466-1.168c-.2-.762-.68-1.142-1.441-1.142-.174 0-.337.027-.489.082a1.35 1.35 0 00-.419.229 1.425 1.425 0 00-.317.355c-.09.14-.157.298-.203.476h2.869zm9.013 3.777c0 .292-.01.548-.031.768a4.924 4.924 0 01-.077.59c-.101.466-.3.866-.596 1.2-.559.643-1.327.965-2.304.965-.826 0-1.505-.222-2.038-.667-.55-.457-.867-1.09-.952-1.898h1.434c.055.305.146.54.273.705.297.385.728.578 1.295.578 1.046 0 1.568-.641 1.568-1.924v-.863c-.567.58-1.22.87-1.961.87-.842 0-1.532-.305-2.07-.914-.541-.618-.812-1.39-.812-2.317 0-.902.252-1.668.755-2.298.542-.669 1.257-1.003 2.146-1.003.778 0 1.426.29 1.942.87v-.699h1.428v6.037zm-1.37-2.933c0-.6-.162-1.08-.483-1.44a1.595 1.595 0 00-1.25-.553c-.542 0-.97.201-1.283.603-.283.36-.425.825-.425 1.397 0 .563.142 1.024.425 1.384.309.393.736.59 1.282.59s.978-.199 1.295-.597c.292-.36.438-.82.438-1.384zm4.601-3.104v3.549c0 1.024.404 1.536 1.213 1.536.808 0 1.212-.512 1.212-1.536V4.817h1.428v3.58c0 .496-.061.923-.184 1.283a2.154 2.154 0 01-.615.87c-.483.418-1.097.628-1.841.628-.74 0-1.352-.21-1.835-.629a2.189 2.189 0 01-.628-.87c-.119-.287-.178-.714-.178-1.282v-3.58h1.428zm5.656 0h1.428v.553c.263-.275.495-.464.698-.565.208-.106.453-.159.737-.159.377 0 .77.123 1.18.368l-.653 1.308c-.271-.195-.536-.292-.794-.292-.778 0-1.168.588-1.168 1.764V11h-1.428V4.817zm9.331 0h1.435V11h-1.435v-.648c-.588.55-1.22.826-1.898.826-.855 0-1.561-.31-2.12-.927-.554-.63-.831-1.418-.831-2.361 0-.927.277-1.7.831-2.317.554-.618 1.248-.927 2.082-.927.72 0 1.365.296 1.936.889v-.718zm-3.39 3.073c0 .592.16 1.075.477 1.447a1.56 1.56 0 001.231.565c.529 0 .956-.182 1.282-.546.326-.377.489-.855.489-1.435 0-.58-.163-1.058-.489-1.434-.326-.368-.749-.552-1.27-.552-.49 0-.9.186-1.23.558-.327.377-.49.842-.49 1.397zm6.627-3.073h1.429v.553c.262-.275.495-.464.698-.565.207-.106.453-.159.736-.159.377 0 .77.123 1.18.368l-.653 1.308c-.27-.195-.535-.292-.793-.292-.779 0-1.168.588-1.168 1.764V11h-1.429V4.817zM95.11 6.15V11h-1.428V6.15h-.61V4.817h.61V2.551h1.428v2.266h1.111V6.15h-1.11zm7.827 2.095h-4.43c.037.508.202.912.494 1.213.292.296.667.444 1.124.444.355 0 .649-.085.882-.254.229-.17.489-.482.781-.94l1.206.673c-.186.318-.383.59-.59.82-.208.223-.43.41-.667.558-.237.144-.493.25-.768.317a3.737 3.737 0 01-.895.102c-.922 0-1.663-.296-2.222-.889-.558-.597-.838-1.388-.838-2.374 0-.978.271-1.769.813-2.374.546-.597 1.27-.895 2.17-.895.911 0 1.63.29 2.159.87.525.575.787 1.373.787 2.393l-.006.336zm-1.467-1.168c-.198-.762-.679-1.142-1.44-1.142-.174 0-.337.027-.49.082a1.425 1.425 0 00-.736.584c-.088.14-.156.298-.203.476h2.869zm11.604 7.287v-4.056c-.567.58-1.215.87-1.942.87-.834 0-1.526-.307-2.076-.92-.554-.619-.832-1.39-.832-2.318 0-.939.278-1.724.832-2.355a2.698 2.698 0 012.101-.939c.715 0 1.354.281 1.917.844v-.673h1.435v9.547h-1.435zm-3.39-6.487c0 .597.161 1.081.483 1.454.321.38.73.57 1.225.57.525 0 .95-.181 1.276-.545.33-.368.495-.846.495-1.435 0-.58-.163-1.058-.489-1.434-.326-.368-.749-.552-1.269-.552a1.58 1.58 0 00-1.232.558c-.326.377-.489.838-.489 1.384zm8.208-3.06v3.549c0 1.024.404 1.536 1.212 1.536.809 0 1.213-.512 1.213-1.536V4.817h1.428v3.58c0 .496-.061.923-.184 1.283a2.16 2.16 0 01-.616.87c-.482.418-1.096.628-1.841.628-.74 0-1.352-.21-1.834-.629a2.195 2.195 0 01-.629-.87c-.118-.287-.177-.714-.177-1.282v-3.58h1.428zm11.286 3.428h-4.431c.038.508.203.912.495 1.213.292.296.667.444 1.124.444.355 0 .65-.085.882-.254.229-.17.489-.482.781-.94l1.206.673c-.186.318-.383.59-.59.82-.208.223-.43.41-.667.558-.237.144-.493.25-.768.317a3.737 3.737 0 01-.895.102c-.922 0-1.663-.296-2.221-.889-.559-.597-.838-1.388-.838-2.374 0-.978.27-1.769.812-2.374.546-.597 1.27-.895 2.171-.895.91 0 1.629.29 2.158.87.525.575.787 1.373.787 2.393l-.006.336zm-1.466-1.168c-.199-.762-.68-1.142-1.441-1.142-.174 0-.337.027-.489.082-.152.05-.292.127-.419.229a1.422 1.422 0 00-.317.355c-.089.14-.157.298-.203.476h2.869zm11.825-.38a1.414 1.414 0 00-.481-.793 1.346 1.346 0 00-.884-.299c-.364 0-.663.095-.897.286-.225.19-.368.46-.429.806h2.691zm-2.756 1.365c0 1.014.477 1.521 1.43 1.521.512 0 .897-.208 1.157-.624h2.275c-.459 1.525-1.607 2.288-3.445 2.288a4.634 4.634 0 01-1.547-.247 3.605 3.605 0 01-1.209-.728 3.263 3.263 0 01-.767-1.118 3.726 3.726 0 01-.273-1.456c0-.555.087-1.053.26-1.495.174-.45.421-.832.741-1.144.321-.312.707-.55 1.157-.715.46-.173.975-.26 1.547-.26.564 0 1.071.087 1.521.26a3.01 3.01 0 011.144.728c.312.32.551.715.715 1.183.165.46.247.98.247 1.56v.247h-4.953zm10.718-2.015c-.433-.225-.858-.338-1.274-.338a.993.993 0 00-.533.13.402.402 0 00-.195.351c0 .078.009.143.026.195a.43.43 0 00.143.13c.078.043.187.082.325.117.148.035.338.078.572.13.65.13 1.136.364 1.456.702.321.33.481.754.481 1.274 0 .39-.078.741-.234 1.053a2.293 2.293 0 01-.65.793 3.07 3.07 0 01-1.001.481c-.39.121-.819.182-1.287.182-.901 0-1.789-.256-2.665-.767l.858-1.664c.659.45 1.283.676 1.872.676a.919.919 0 00.533-.143c.139-.095.208-.217.208-.364a.468.468 0 00-.039-.208.274.274 0 00-.13-.156.88.88 0 00-.312-.13 4.48 4.48 0 00-.52-.13c-.728-.147-1.239-.364-1.534-.65-.286-.295-.429-.698-.429-1.209 0-.373.07-.706.208-1.001.139-.303.338-.559.598-.767.26-.208.572-.368.936-.481a4.26 4.26 0 011.235-.169c.737 0 1.452.143 2.145.429l-.793 1.534zm4.998.247V11h-2.353V6.294h-.78V4.331h.78V2.329h2.353v2.002h1.339v1.963h-1.339zm4.535 1.352c0 .217.039.42.117.611.078.182.182.342.312.481.138.139.299.247.481.325a1.594 1.594 0 001.196 0c.19-.078.351-.186.481-.325.138-.139.247-.299.325-.481.086-.182.13-.377.13-.585 0-.208-.044-.403-.13-.585a1.495 1.495 0 00-.325-.494 1.355 1.355 0 00-.481-.325 1.594 1.594 0 00-1.196 0 1.514 1.514 0 00-.481.325c-.13.139-.234.299-.312.481a1.378 1.378 0 00-.117.572zm2.964-3.315h2.366V11h-2.366v-.741c-.503.633-1.183.949-2.041.949-.486 0-.932-.087-1.339-.26a3.301 3.301 0 01-1.066-.754 3.523 3.523 0 01-.715-1.131 3.95 3.95 0 01-.247-1.417 3.7 3.7 0 01.247-1.352 3.46 3.46 0 01.689-1.131c.294-.32.645-.572 1.053-.754.407-.19.858-.286 1.352-.286.832 0 1.521.29 2.067.871v-.663zm.871-2.977l-2.262 2.002-1.092-.806 1.859-2.275 1.495 1.079zm3.096 2.977h2.353v.845c.321-.39.646-.65.975-.78.329-.139.715-.208 1.157-.208.468 0 .867.078 1.196.234.338.147.624.36.858.637.191.225.321.477.39.754s.104.594.104.949V11h-2.353V7.633c0-.33-.026-.594-.078-.793a.892.892 0 00-.598-.715 1.309 1.309 0 00-.416-.065c-.399 0-.706.121-.923.364-.208.234-.312.572-.312 1.014V11h-2.353V4.331zm18.082 2.158c-.408-.277-.819-.416-1.235-.416-.226 0-.438.039-.637.117-.191.078-.36.19-.507.338a1.498 1.498 0 00-.351.507c-.078.19-.117.407-.117.65 0 .234.039.45.117.65.086.19.199.36.338.507.147.139.32.247.52.325.199.078.411.117.637.117.442 0 .853-.152 1.235-.455v2.002c-.581.251-1.131.377-1.651.377-.486 0-.949-.082-1.391-.247a3.659 3.659 0 01-1.157-.702 3.615 3.615 0 01-.793-1.105 3.402 3.402 0 01-.299-1.443c0-.529.095-1.01.286-1.443.19-.442.45-.819.78-1.131.329-.32.719-.568 1.17-.741a3.95 3.95 0 011.469-.273c.572 0 1.1.121 1.586.364v2.002zm3.565 1.144c0 .225.039.433.117.624.086.182.195.342.325.481.138.139.299.247.481.325a1.562 1.562 0 001.183 0c.19-.078.351-.186.481-.325.138-.139.247-.299.325-.481.086-.19.13-.394.13-.611 0-.208-.044-.403-.13-.585a1.495 1.495 0 00-.325-.494 1.355 1.355 0 00-.481-.325 1.562 1.562 0 00-1.183 0 1.514 1.514 0 00-.481.325c-.13.139-.239.299-.325.481a1.47 1.47 0 00-.117.585zm-2.483-.026c0-.494.099-.953.299-1.378a3.3 3.3 0 01.832-1.118c.355-.32.775-.572 1.261-.754a4.627 4.627 0 011.612-.273c.572 0 1.1.091 1.586.273.494.173.918.42 1.274.741.364.312.645.689.845 1.131.199.433.299.914.299 1.443s-.104 1.014-.312 1.456c-.2.433-.477.81-.832 1.131a3.817 3.817 0 01-1.287.728 4.84 4.84 0 01-1.612.26 4.683 4.683 0 01-1.586-.26 3.72 3.72 0 01-1.261-.741 3.49 3.49 0 01-.819-1.144c-.2-.45-.299-.949-.299-1.495zm9.362-3.276h2.353v1.092a2.65 2.65 0 01.923-.91c.364-.217.789-.325 1.274-.325h.195c.078 0 .165.009.26.026v2.249a2.236 2.236 0 00-1.014-.234c-.546 0-.957.165-1.235.494-.268.32-.403.793-.403 1.417V11h-2.353V4.331zm6.056 0h2.353v1.092c.251-.399.559-.702.923-.91.364-.217.789-.325 1.274-.325h.195c.078 0 .165.009.26.026v2.249a2.236 2.236 0 00-1.014-.234c-.546 0-.958.165-1.235.494-.269.32-.403.793-.403 1.417V11h-2.353V4.331zm11.007 2.366a1.414 1.414 0 00-.481-.793 1.347 1.347 0 00-.884-.299c-.364 0-.663.095-.897.286-.225.19-.368.46-.429.806h2.691zm-2.756 1.365c0 1.014.477 1.521 1.43 1.521.511 0 .897-.208 1.157-.624h2.275c-.459 1.525-1.608 2.288-3.445 2.288a4.634 4.634 0 01-1.547-.247 3.605 3.605 0 01-1.209-.728 3.263 3.263 0 01-.767-1.118 3.726 3.726 0 01-.273-1.456c0-.555.087-1.053.26-1.495.173-.45.42-.832.741-1.144a3.22 3.22 0 011.157-.715c.459-.173.975-.26 1.547-.26.563 0 1.07.087 1.521.26a3.01 3.01 0 011.144.728c.312.32.55.715.715 1.183.165.46.247.98.247 1.56v.247h-4.953zm11.329-1.573c-.407-.277-.819-.416-1.235-.416-.225 0-.438.039-.637.117-.191.078-.36.19-.507.338a1.527 1.527 0 00-.351.507c-.078.19-.117.407-.117.65 0 .234.039.45.117.65.087.19.199.36.338.507a1.6 1.6 0 00.52.325c.199.078.412.117.637.117.442 0 .854-.152 1.235-.455v2.002c-.581.251-1.131.377-1.651.377-.485 0-.949-.082-1.391-.247a3.67 3.67 0 01-1.157-.702 3.631 3.631 0 01-.793-1.105 3.417 3.417 0 01-.299-1.443c0-.529.095-1.01.286-1.443.191-.442.451-.819.78-1.131.329-.32.719-.568 1.17-.741a3.95 3.95 0 011.469-.273c.572 0 1.101.121 1.586.364v2.002zm3.968-.195V11h-2.353V6.294h-.78V4.331h.78V2.329h2.353v2.002h1.339v1.963h-1.339zm4.534 1.352c0 .217.039.42.117.611.078.182.182.342.312.481.139.139.299.247.481.325a1.602 1.602 0 001.196 0c.191-.078.351-.186.481-.325.139-.139.247-.299.325-.481.087-.182.13-.377.13-.585 0-.208-.043-.403-.13-.585a1.48 1.48 0 00-.325-.494 1.346 1.346 0 00-.481-.325 1.602 1.602 0 00-1.196 0 1.525 1.525 0 00-.481.325c-.13.139-.234.299-.312.481a1.378 1.378 0 00-.117.572zm2.964-3.315h2.366V11h-2.366v-.741c-.502.633-1.183.949-2.041.949-.485 0-.931-.087-1.339-.26a3.323 3.323 0 01-1.066-.754 3.557 3.557 0 01-.715-1.131 3.972 3.972 0 01-.247-1.417c0-.477.083-.927.247-1.352.165-.433.395-.81.689-1.131.295-.32.646-.572 1.053-.754.408-.19.858-.286 1.352-.286.832 0 1.521.29 2.067.871v-.663zm8.388 1.716c-.434-.225-.858-.338-1.274-.338a.989.989 0 00-.533.13.402.402 0 00-.195.351c0 .078.008.143.026.195a.42.42 0 00.143.13c.078.043.186.082.325.117.147.035.338.078.572.13.65.13 1.135.364 1.456.702.32.33.481.754.481 1.274 0 .39-.078.741-.234 1.053a2.305 2.305 0 01-.65.793 3.08 3.08 0 01-1.001.481c-.39.121-.819.182-1.287.182-.902 0-1.79-.256-2.665-.767l.858-1.664c.658.45 1.282.676 1.872.676a.923.923 0 00.533-.143c.138-.095.208-.217.208-.364a.468.468 0 00-.039-.208.282.282 0 00-.13-.156.898.898 0 00-.312-.13 4.533 4.533 0 00-.52-.13c-.728-.147-1.24-.364-1.534-.65-.286-.295-.429-.698-.429-1.209 0-.373.069-.706.208-1.001.138-.303.338-.559.598-.767.26-.208.572-.368.936-.481a4.25 4.25 0 011.235-.169 5.58 5.58 0 012.145.429l-.793 1.534zm2.077 3.705c0-.208.039-.403.117-.585a1.48 1.48 0 01.806-.819 1.566 1.566 0 011.183 0c.191.078.355.186.494.325s.247.303.325.494a1.565 1.565 0 010 1.183 1.485 1.485 0 01-.819.806 1.566 1.566 0 01-1.183 0 1.524 1.524 0 01-.806-.806 1.565 1.565 0 01-.117-.598z" fill="#fff"/></svg>