<svg width="179" height="28" viewBox="0 0 179 28" fill="none" xmlns="http://www.w3.org/2000/svg"><path d="M7.232 2.018l-1.292.765c-.241-.42-.471-.693-.69-.82-.228-.146-.522-.219-.882-.219-.442 0-.809.125-1.1.376a1.165 1.165 0 00-.438.93c0 .515.383.93 1.149 1.244l1.052.43c.857.347 1.484.77 1.88 1.272.397.497.595 1.108.595 1.832 0 .97-.324 1.773-.97 2.406-.653.638-1.461.957-2.428.957-.916 0-1.672-.27-2.27-.813-.587-.542-.954-1.306-1.1-2.29l1.614-.356c.072.62.2 1.049.382 1.286.329.455.807.683 1.436.683.497 0 .91-.166 1.237-.499.328-.333.492-.754.492-1.264 0-.206-.03-.392-.088-.561a1.315 1.315 0 00-.267-.472 1.95 1.95 0 00-.465-.403 4.311 4.311 0 00-.683-.362l-1.019-.424c-1.445-.61-2.167-1.504-2.167-2.68 0-.793.303-1.456.91-1.99C2.724.51 3.48.24 4.381.24c1.217 0 2.167.593 2.85 1.778zm3.439 2.324V11H9.133V4.342h1.538zM8.9 1.573c0-.269.097-.501.293-.697a.96.96 0 01.704-.294c.278 0 .515.098.711.294a.946.946 0 01.294.704.969.969 0 01-.294.711.946.946 0 01-.704.294.968.968 0 01-.71-.294.977.977 0 01-.295-.718zm9.782 6.46H13.91c.041.547.219.982.533 1.306.315.319.718.478 1.21.478.383 0 .7-.09.95-.273.247-.182.527-.52.841-1.012l1.3.725c-.201.342-.413.636-.637.882a3.522 3.522 0 01-.717.601c-.256.155-.531.27-.827.342-.297.073-.618.11-.964.11-.994 0-1.791-.32-2.393-.958-.602-.642-.902-1.494-.902-2.556 0-1.053.291-1.905.875-2.557.588-.642 1.367-.964 2.338-.964.98 0 1.754.312 2.324.937.565.62.848 1.479.848 2.577l-.007.362zm-1.58-1.258c-.214-.82-.73-1.23-1.551-1.23-.187 0-.362.03-.527.089a1.452 1.452 0 00-.45.246 1.537 1.537 0 00-.343.383c-.095.15-.168.321-.218.512h3.09zm3.268-2.433h1.538v.615c.296-.31.55-.52.759-.629.223-.114.504-.17.84-.17.753 0 1.348.327 1.785.984.483-.657 1.137-.985 1.962-.985 1.5 0 2.249.91 2.249 2.728V11h-1.545V7.302c0-.638-.078-1.09-.232-1.354-.16-.269-.422-.403-.787-.403-.423 0-.733.16-.93.478-.19.32-.286.832-.286 1.539V11h-1.545V7.322c0-1.185-.342-1.777-1.026-1.777-.433 0-.75.162-.95.485-.196.324-.294.834-.294 1.532V11h-1.538V4.342zm12.79 10.281h-1.538V4.342h1.538v.724c.606-.606 1.294-.909 2.065-.909.916 0 1.67.337 2.262 1.012.602.67.903 1.515.903 2.536 0 .998-.299 1.83-.896 2.495-.592.661-1.34.991-2.242.991-.78 0-1.477-.312-2.092-.936v4.368zm3.657-6.911c0-.638-.173-1.158-.52-1.559a1.68 1.68 0 00-1.325-.608c-.565 0-1.023.196-1.374.588-.351.392-.527.907-.527 1.545 0 .624.176 1.14.527 1.545.346.396.802.594 1.367.594.533 0 .973-.2 1.32-.601.355-.401.532-.903.532-1.504zm3.2-3.37h1.538v.595c.282-.297.533-.5.752-.609.223-.114.487-.17.793-.17.405 0 .829.131 1.271.396l-.704 1.408c-.292-.21-.576-.315-.855-.315-.838 0-1.257.634-1.257 1.9V11h-1.538V4.342zm11.204 3.691H46.45c.041.547.219.982.533 1.306.315.319.718.478 1.21.478.383 0 .7-.09.95-.273.247-.182.527-.52.841-1.012l1.3.725c-.201.342-.413.636-.636.882a3.522 3.522 0 01-.718.601c-.255.155-.531.27-.828.342-.296.073-.617.11-.963.11-.994 0-1.791-.32-2.393-.958-.602-.642-.902-1.494-.902-2.556 0-1.053.291-1.905.875-2.557.588-.642 1.367-.964 2.338-.964.98 0 1.754.312 2.324.937.565.62.847 1.479.847 2.577l-.006.362zm-1.58-1.258c-.214-.82-.73-1.23-1.551-1.23-.187 0-.363.03-.526.089a1.452 1.452 0 00-.452.246 1.535 1.535 0 00-.341.383c-.096.15-.17.321-.22.512h3.09zm7.588-2.433h1.539v.595c.282-.297.533-.5.752-.609.223-.114.487-.17.792-.17.406 0 .83.131 1.272.396l-.704 1.408c-.292-.21-.577-.315-.855-.315-.838 0-1.257.634-1.257 1.9V11H57.23V4.342zm11.205 3.691h-4.772c.041.547.219.982.533 1.306.315.319.718.478 1.21.478.383 0 .7-.09.95-.273.247-.182.527-.52.841-1.012l1.3.725c-.201.342-.413.636-.637.882a3.524 3.524 0 01-.717.601c-.256.155-.531.27-.828.342-.296.073-.617.11-.963.11-.994 0-1.792-.32-2.393-.958-.602-.642-.902-1.494-.902-2.556 0-1.053.291-1.905.875-2.557.587-.642 1.367-.964 2.337-.964.98 0 1.755.312 2.325.937.565.62.847 1.479.847 2.577l-.006.362zm-1.58-1.258c-.214-.82-.731-1.23-1.551-1.23-.187 0-.363.03-.527.089a1.453 1.453 0 00-.45.246 1.535 1.535 0 00-.343.383c-.095.15-.168.321-.218.512h3.09zm3.85-2.433l1.722 3.739 1.716-3.74h1.73l-3.46 7.117-3.432-7.116h1.723zm7.751 0V11h-1.538V4.342h1.538zm-1.77-2.769c0-.269.097-.501.293-.697a.96.96 0 01.705-.294c.278 0 .515.098.71.294a.946.946 0 01.294.704.968.968 0 01-.294.711.946.946 0 01-.704.294.968.968 0 01-.71-.294.976.976 0 01-.294-.718zm7.587 3.904l-1.271.676c-.2-.41-.449-.615-.745-.615a.506.506 0 00-.363.144c-.1.09-.15.21-.15.355 0 .255.296.508.889.759.816.35 1.365.674 1.647.97.283.297.424.696.424 1.197 0 .642-.237 1.18-.71 1.613-.461.41-1.017.615-1.669.615-1.116 0-1.907-.544-2.372-1.633l1.313-.609c.182.32.32.522.417.609.186.173.41.26.67.26.52 0 .779-.238.779-.712 0-.273-.2-.528-.602-.765-.155-.078-.31-.153-.465-.226a42.792 42.792 0 01-.471-.225c-.447-.22-.761-.438-.944-.657-.232-.278-.348-.635-.348-1.073 0-.579.198-1.057.594-1.435a2.086 2.086 0 011.477-.568c.852 0 1.486.44 1.9 1.32zM91 4.342h1.545V11H91v-.697c-.633.592-1.315.888-2.044.888-.92 0-1.682-.332-2.283-.998-.597-.679-.896-1.526-.896-2.543 0-.998.299-1.83.896-2.495s1.344-.998 2.242-.998c.775 0 1.47.32 2.085.957v-.772zM87.35 7.65c0 .638.17 1.158.512 1.559.351.406.793.608 1.327.608.57 0 1.03-.196 1.38-.588.351-.405.527-.92.527-1.544 0-.625-.176-1.14-.527-1.545-.35-.397-.806-.595-1.367-.595-.528 0-.97.2-1.326.601-.35.406-.526.907-.526 1.504zm13.918-1.356V11h-2.353V6.294h-.78V4.331h.78V2.329h2.353v2.002h1.339v1.963h-1.339zm4.577-1.963v3.757c0 .823.398 1.235 1.196 1.235.797 0 1.196-.412 1.196-1.235V4.331h2.353v4.212c0 .901-.299 1.577-.897 2.028-.59.45-1.474.676-2.652.676-1.179 0-2.067-.225-2.665-.676-.59-.45-.884-1.127-.884-2.028V4.331h2.353zm10.763 1.716c-.433-.225-.858-.338-1.274-.338a.991.991 0 00-.533.13.402.402 0 00-.195.351c0 .078.009.143.026.195a.43.43 0 00.143.13c.078.043.186.082.325.117.147.035.338.078.572.13.65.13 1.135.364 1.456.702.321.33.481.754.481 1.274 0 .39-.078.741-.234 1.053a2.305 2.305 0 01-.65.793 3.07 3.07 0 01-1.001.481c-.39.121-.819.182-1.287.182-.901 0-1.79-.256-2.665-.767l.858-1.664c.659.45 1.283.676 1.872.676a.921.921 0 00.533-.143c.139-.095.208-.217.208-.364a.468.468 0 00-.039-.208.277.277 0 00-.13-.156.88.88 0 00-.312-.13 4.48 4.48 0 00-.52-.13c-.728-.147-1.239-.364-1.534-.65-.286-.295-.429-.698-.429-1.209 0-.373.069-.706.208-1.001.139-.303.338-.559.598-.767.26-.208.572-.368.936-.481a4.255 4.255 0 011.235-.169c.737 0 1.452.143 2.145.429l-.793 1.534zm9.16.247V11h-2.353V6.294h-.845V4.331h.845V3.33c0-.555.052-.997.156-1.326.087-.277.225-.533.416-.767.191-.243.412-.45.663-.624a3.35 3.35 0 01.832-.403 2.82 2.82 0 01.871-.143c.199 0 .381.022.546.065.173.043.347.104.52.182v2.054a2.17 2.17 0 00-.442-.169 1.309 1.309 0 00-.416-.065.946.946 0 00-.299.052.586.586 0 00-.273.182.842.842 0 00-.182.416 5.086 5.086 0 00-.039.715v.832h1.651v1.963h-1.651zm4.854 1.352c0 .217.039.42.117.611.078.182.182.342.312.481.139.139.299.247.481.325a1.598 1.598 0 001.196 0c.191-.078.351-.186.481-.325.139-.139.247-.299.325-.481.087-.182.13-.377.13-.585 0-.208-.043-.403-.13-.585a1.48 1.48 0 00-.325-.494 1.346 1.346 0 00-.481-.325 1.598 1.598 0 00-1.196 0 1.525 1.525 0 00-.481.325c-.13.139-.234.299-.312.481a1.378 1.378 0 00-.117.572zm2.964-3.315h2.366V11h-2.366v-.741c-.503.633-1.183.949-2.041.949-.485 0-.932-.087-1.339-.26a3.312 3.312 0 01-1.066-.754 3.54 3.54 0 01-.715-1.131 3.95 3.95 0 01-.247-1.417 3.7 3.7 0 01.247-1.352c.165-.433.394-.81.689-1.131.295-.32.646-.572 1.053-.754.407-.19.858-.286 1.352-.286.832 0 1.521.29 2.067.871v-.663zm8.998 2.158c-.407-.277-.819-.416-1.235-.416-.225 0-.438.039-.637.117-.191.078-.36.19-.507.338a1.527 1.527 0 00-.351.507c-.078.19-.117.407-.117.65 0 .234.039.45.117.65.087.19.199.36.338.507a1.6 1.6 0 00.52.325c.199.078.412.117.637.117.442 0 .854-.152 1.235-.455v2.002c-.581.251-1.131.377-1.651.377-.485 0-.949-.082-1.391-.247a3.67 3.67 0 01-1.157-.702 3.631 3.631 0 01-.793-1.105 3.417 3.417 0 01-.299-1.443c0-.529.095-1.01.286-1.443.191-.442.451-.819.78-1.131.329-.32.719-.568 1.17-.741a3.95 3.95 0 011.469-.273c.572 0 1.101.121 1.586.364v2.002zm3.968-.195V11h-2.353V6.294h-.78V4.331h.78V2.329h2.353v2.002h1.339v1.963h-1.339zm4.577-1.963v3.757c0 .823.398 1.235 1.196 1.235.797 0 1.196-.412 1.196-1.235V4.331h2.353v4.212c0 .901-.299 1.577-.897 2.028-.59.45-1.474.676-2.652.676-1.179 0-2.067-.225-2.665-.676-.59-.45-.884-1.127-.884-2.028V4.331h2.353zm6.343 0h2.353v1.092c.251-.399.559-.702.923-.91.364-.217.789-.325 1.274-.325h.195c.078 0 .165.009.26.026v2.249a2.236 2.236 0 00-1.014-.234c-.546 0-.958.165-1.235.494-.269.32-.403.793-.403 1.417V11h-2.353V4.331zm8.316 3.315c0 .217.039.42.117.611.078.182.182.342.312.481.139.139.299.247.481.325a1.598 1.598 0 001.196 0c.191-.078.351-.186.481-.325.139-.139.247-.299.325-.481.087-.182.13-.377.13-.585 0-.208-.043-.403-.13-.585a1.48 1.48 0 00-.325-.494 1.346 1.346 0 00-.481-.325 1.598 1.598 0 00-1.196 0 1.525 1.525 0 00-.481.325c-.13.139-.234.299-.312.481a1.378 1.378 0 00-.117.572zm2.964-3.315h2.366V11h-2.366v-.741c-.503.633-1.183.949-2.041.949-.485 0-.932-.087-1.339-.26a3.312 3.312 0 01-1.066-.754 3.54 3.54 0 01-.715-1.131 3.95 3.95 0 01-.247-1.417 3.7 3.7 0 01.247-1.352c.165-.433.394-.81.689-1.131.295-.32.646-.572 1.053-.754.407-.19.858-.286 1.352-.286.832 0 1.521.29 2.067.871v-.663zm8.387 1.716c-.433-.225-.858-.338-1.274-.338a.991.991 0 00-.533.13.402.402 0 00-.195.351c0 .078.009.143.026.195a.43.43 0 00.143.13c.078.043.186.082.325.117.147.035.338.078.572.13.65.13 1.135.364 1.456.702.321.33.481.754.481 1.274 0 .39-.078.741-.234 1.053a2.305 2.305 0 01-.65.793 3.07 3.07 0 01-1.001.481c-.39.121-.819.182-1.287.182-.901 0-1.79-.256-2.665-.767l.858-1.664c.659.45 1.283.676 1.872.676a.921.921 0 00.533-.143c.139-.095.208-.217.208-.364a.468.468 0 00-.039-.208.277.277 0 00-.13-.156.88.88 0 00-.312-.13 4.48 4.48 0 00-.52-.13c-.728-.147-1.239-.364-1.534-.65-.286-.295-.429-.698-.429-1.209 0-.373.069-.706.208-1.001.139-.303.338-.559.598-.767.26-.208.572-.368.936-.481a4.255 4.255 0 011.235-.169c.737 0 1.452.143 2.145.429l-.793 1.534zM2.99 23.646c0 .217.039.42.117.611.078.182.182.342.312.481.139.139.299.247.481.325a1.598 1.598 0 001.196 0c.19-.078.351-.186.481-.325.139-.139.247-.299.325-.481.087-.182.13-.377.13-.585 0-.208-.043-.403-.13-.585a1.485 1.485 0 00-.325-.494 1.348 1.348 0 00-.481-.325 1.564 1.564 0 00-1.183 0 1.52 1.52 0 00-.481.325c-.13.139-.238.299-.325.481a1.378 1.378 0 00-.117.572zm2.964-7.436H8.32V27H5.954v-.741c-.503.633-1.183.949-2.041.949a3.245 3.245 0 01-2.405-1.027 3.54 3.54 0 01-.715-1.131 3.92 3.92 0 01-.247-1.404c0-.477.078-.927.234-1.352.165-.433.394-.81.689-1.131.295-.32.646-.572 1.053-.754.416-.19.871-.286 1.365-.286.832 0 1.521.29 2.067.871V16.21zm8.842 6.487a1.415 1.415 0 00-.48-.793 1.347 1.347 0 00-.885-.299c-.364 0-.663.095-.897.286-.225.19-.368.46-.429.806h2.691zm-2.756 1.365c0 1.014.477 1.521 1.43 1.521.512 0 .897-.208 1.157-.624h2.275c-.46 1.525-1.607 2.288-3.445 2.288A4.633 4.633 0 0111.91 27a3.605 3.605 0 01-1.209-.728 3.258 3.258 0 01-.767-1.118 3.726 3.726 0 01-.273-1.456c0-.555.087-1.053.26-1.495.174-.45.42-.832.741-1.144a3.22 3.22 0 011.157-.715c.46-.173.975-.26 1.547-.26.564 0 1.07.087 1.521.26.45.165.832.407 1.144.728.312.32.55.715.715 1.183.165.46.247.98.247 1.56v.247H12.04zM22.535 27l1.664-9.802h2.522l1.963 5.226 1.95-5.226h2.522L34.82 27h-2.535l-.845-5.642L29.126 27h-1.014l-2.197-5.642L25.07 27h-2.535zm18.198-4.303a1.416 1.416 0 00-.481-.793 1.348 1.348 0 00-.884-.299c-.364 0-.663.095-.897.286-.226.19-.369.46-.43.806h2.692zm-2.756 1.365c0 1.014.476 1.521 1.43 1.521.511 0 .897-.208 1.157-.624h2.275c-.46 1.525-1.608 2.288-3.445 2.288A4.633 4.633 0 0137.847 27a3.605 3.605 0 01-1.21-.728 3.257 3.257 0 01-.766-1.118 3.726 3.726 0 01-.273-1.456c0-.555.086-1.053.26-1.495.173-.45.42-.832.74-1.144.321-.312.707-.55 1.158-.715.46-.173.975-.26 1.547-.26.563 0 1.07.087 1.52.26.451.165.833.407 1.145.728.312.32.55.715.715 1.183.164.46.247.98.247 1.56v.247h-4.953zm8.482-.416c0 .217.039.42.117.611.078.182.182.342.312.481.138.139.299.247.48.325a1.598 1.598 0 001.197 0c.19-.078.35-.186.48-.325.14-.139.248-.299.326-.481.086-.182.13-.377.13-.585 0-.208-.044-.403-.13-.585a1.486 1.486 0 00-.325-.494 1.349 1.349 0 00-.481-.325 1.564 1.564 0 00-1.183 0 1.521 1.521 0 00-.481.325c-.13.139-.239.299-.325.481a1.378 1.378 0 00-.117.572zm2.964-7.436h2.366V27h-2.366v-.741c-.503.633-1.183.949-2.041.949a3.245 3.245 0 01-2.405-1.027 3.539 3.539 0 01-.715-1.131 3.919 3.919 0 01-.247-1.404c0-.477.078-.927.234-1.352.164-.433.394-.81.689-1.131.294-.32.645-.572 1.053-.754.416-.19.87-.286 1.365-.286.832 0 1.52.29 2.067.871V16.21zm6.32 4.121V27H53.39v-6.669h2.353zm-2.509-2.561c0-.182.035-.351.104-.507.07-.165.165-.308.286-.429a1.37 1.37 0 01.416-.286 1.327 1.327 0 011.742.715 1.327 1.327 0 010 1.027 1.37 1.37 0 01-.286.416 1.328 1.328 0 01-.429.286 1.327 1.327 0 01-1.027 0 1.37 1.37 0 01-.702-.702 1.327 1.327 0 01-.104-.52zm9.148 4.719c-.407-.277-.82-.416-1.235-.416-.225 0-.438.039-.637.117-.19.078-.36.19-.507.338a1.519 1.519 0 00-.351.507c-.078.19-.117.407-.117.65 0 .234.039.45.117.65.087.19.2.36.338.507.147.139.32.247.52.325.2.078.412.117.637.117.442 0 .854-.152 1.235-.455v2.002c-.58.251-1.131.377-1.651.377-.485 0-.95-.082-1.391-.247a3.667 3.667 0 01-1.157-.702 3.633 3.633 0 01-.793-1.105 3.412 3.412 0 01-.3-1.443c0-.529.096-1.01.287-1.443.19-.442.45-.819.78-1.131.33-.32.72-.568 1.17-.741.46-.182.949-.273 1.469-.273.572 0 1.1.121 1.586.364v2.002zm3.526 1.157c0 .217.039.42.117.611.078.182.182.342.312.481.139.139.299.247.481.325a1.598 1.598 0 001.196 0c.19-.078.351-.186.481-.325.139-.139.247-.299.325-.481.087-.182.13-.377.13-.585 0-.208-.043-.403-.13-.585a1.486 1.486 0 00-.325-.494 1.349 1.349 0 00-.481-.325 1.598 1.598 0 00-1.196 0 1.52 1.52 0 00-.481.325c-.13.139-.234.299-.312.481a1.378 1.378 0 00-.117.572zm2.964-3.315h2.366V27h-2.366v-.741c-.503.633-1.183.949-2.041.949-.485 0-.932-.087-1.339-.26a3.31 3.31 0 01-1.066-.754 3.539 3.539 0 01-.715-1.131 3.957 3.957 0 01-.247-1.417c0-.477.082-.927.247-1.352.165-.433.394-.81.689-1.131.295-.32.646-.572 1.053-.754a3.15 3.15 0 011.352-.286c.832 0 1.521.29 2.067.871v-.663zm3.967 0h2.353v1.092c.252-.399.56-.702.923-.91.364-.217.789-.325 1.274-.325h.195c.078 0 .165.009.26.026v2.249a2.236 2.236 0 00-1.014-.234c-.546 0-.957.165-1.235.494-.269.32-.403.793-.403 1.417V27H72.84v-6.669zm11.007 2.366a1.415 1.415 0 00-.481-.793 1.347 1.347 0 00-.884-.299c-.364 0-.663.095-.897.286-.225.19-.368.46-.429.806h2.691zm-2.756 1.365c0 1.014.477 1.521 1.43 1.521.511 0 .897-.208 1.157-.624h2.275c-.46 1.525-1.608 2.288-3.445 2.288A4.633 4.633 0 0180.96 27a3.605 3.605 0 01-1.209-.728 3.259 3.259 0 01-.767-1.118 3.726 3.726 0 01-.273-1.456c0-.555.087-1.053.26-1.495.173-.45.42-.832.741-1.144a3.22 3.22 0 011.157-.715c.46-.173.975-.26 1.547-.26.563 0 1.07.087 1.521.26.45.165.832.407 1.144.728.312.32.55.715.715 1.183.165.46.247.98.247 1.56v.247H81.09zm6.022 1.978c0-.16.03-.31.09-.45a1.143 1.143 0 01.62-.63 1.204 1.204 0 01.91 0 1.14 1.14 0 01.63.63 1.204 1.204 0 010 .91 1.14 1.14 0 01-.63.62 1.204 1.204 0 01-.91 0 1.17 1.17 0 01-.71-1.08zm3.398 0c0-.16.03-.31.09-.45a1.142 1.142 0 01.62-.63 1.203 1.203 0 01.91 0c.147.06.274.143.38.25.107.107.19.233.25.38a1.204 1.204 0 010 .91 1.143 1.143 0 01-.63.62 1.203 1.203 0 01-.91 0 1.169 1.169 0 01-.71-1.08zm3.399 0c0-.16.03-.31.09-.45a1.142 1.142 0 01.62-.63 1.204 1.204 0 01.91 0c.147.06.273.143.38.25.107.107.19.233.25.38a1.204 1.204 0 010 .91 1.142 1.142 0 01-.63.62 1.204 1.204 0 01-.91 0 1.17 1.17 0 01-.71-1.08z" fill="#fff"/></svg>