<svg width="210" height="71" viewBox="0 0 210 71" fill="none" xmlns="http://www.w3.org/2000/svg"><path d="M12.424 9.008V29H5.76V9.008H.286V3.364h17.612v5.644h-5.474zm13.217 2.55v9.826c0 2.153 1.043 3.23 3.128 3.23s3.128-1.077 3.128-3.23v-9.826h6.154v11.016c0 2.357-.782 4.125-2.346 5.304-1.541 1.179-3.853 1.768-6.936 1.768-3.083 0-5.406-.59-6.97-1.768-1.541-1.179-2.312-2.947-2.312-5.304V11.558h6.154zm9.044-7.786l-5.916 5.236L25.913 6.9 30.775.95l3.91 2.822zm25.969 12.92V29H54.5V16.692h-2.04v-5.134h2.04V6.322h6.154v5.236h3.502v5.134h-3.502zm11.86 3.536c0 .567.101 1.1.305 1.598.204.476.476.895.816 1.258.363.363.782.646 1.258.85a4.179 4.179 0 001.598.306c.544 0 1.054-.102 1.53-.306a3.528 3.528 0 001.258-.85 3.98 3.98 0 00.85-1.258c.227-.476.34-.986.34-1.53s-.113-1.054-.34-1.53a3.885 3.885 0 00-.85-1.292 3.528 3.528 0 00-1.258-.85 3.843 3.843 0 00-1.53-.306c-.566 0-1.099.102-1.598.306a3.977 3.977 0 00-1.258.85c-.34.363-.612.782-.816 1.258a3.604 3.604 0 00-.306 1.496zm7.751-8.67h6.188V29h-6.188v-1.938c-1.314 1.655-3.094 2.482-5.338 2.482-1.269 0-2.436-.227-3.502-.68a8.661 8.661 0 01-2.788-1.972 9.257 9.257 0 01-1.87-2.958c-.43-1.133-.646-2.369-.646-3.706 0-1.247.216-2.425.646-3.536a9.093 9.093 0 011.802-2.958 8.285 8.285 0 012.754-1.972c1.066-.499 2.244-.748 3.536-.748 2.176 0 3.978.76 5.406 2.278v-1.734zm10.376 0h6.154V13.7c1.677-1.61 3.559-2.414 5.644-2.414 2.584 0 4.556 1.088 5.916 3.264 1.383-2.199 3.355-3.298 5.916-3.298.816 0 1.587.125 2.312.374.726.227 1.349.6 1.87 1.122.522.499.93 1.156 1.224 1.972.318.816.476 1.802.476 2.958V29h-6.154v-8.602c0-.884-.068-1.61-.204-2.176-.113-.567-.294-1.009-.544-1.326-.226-.317-.498-.533-.816-.646a3.008 3.008 0 00-1.02-.17c-1.972 0-2.958 1.44-2.958 4.318V29h-6.154v-8.602c0-.884-.056-1.61-.17-2.176-.113-.59-.283-1.054-.51-1.394-.204-.34-.476-.567-.816-.68a3.188 3.188 0 00-1.19-.204 3.42 3.42 0 00-1.088.17c-.34.113-.646.34-.918.68-.25.317-.453.77-.612 1.36-.136.567-.204 1.315-.204 2.244V29h-6.154V11.558zm48.238 8.772c0-.544-.102-1.054-.306-1.53a3.479 3.479 0 00-.816-1.292 3.874 3.874 0 00-1.292-.85 3.59 3.59 0 00-1.564-.34c-.544 0-1.054.102-1.53.306a3.982 3.982 0 00-1.258.85c-.34.363-.623.793-.85 1.292a3.843 3.843 0 00-.306 1.53c0 .544.102 1.054.306 1.53.204.476.488.895.85 1.258.363.34.782.623 1.258.85.499.204 1.02.306 1.564.306s1.054-.102 1.53-.306a3.599 3.599 0 001.224-.85c.363-.363.646-.782.85-1.258.227-.476.34-.975.34-1.496zm-7.752 17.374h-6.154V11.558h6.154v1.938c1.315-1.655 3.106-2.482 5.372-2.482 1.247 0 2.403.25 3.468.748a8.56 8.56 0 012.822 1.972 8.781 8.781 0 011.836 2.958 9.69 9.69 0 01.68 3.638c0 1.292-.226 2.493-.68 3.604a8.858 8.858 0 01-1.836 2.924 8.273 8.273 0 01-2.754 1.972c-1.065.476-2.221.714-3.468.714-2.176 0-3.989-.748-5.44-2.244v10.404zm23.5-17.51c0 .59.102 1.133.306 1.632.227.476.51.895.85 1.258.363.363.782.646 1.258.85.499.204 1.02.306 1.564.306s1.054-.102 1.53-.306a3.524 3.524 0 001.258-.85c.363-.363.646-.782.85-1.258.227-.499.34-1.031.34-1.598 0-.544-.113-1.054-.34-1.53a3.879 3.879 0 00-.85-1.292 3.524 3.524 0 00-1.258-.85 3.843 3.843 0 00-1.53-.306c-.544 0-1.065.102-1.564.306a3.982 3.982 0 00-1.258.85 4.92 4.92 0 00-.85 1.258 3.843 3.843 0 00-.306 1.53zm-6.494-.068a8.38 8.38 0 01.782-3.604 8.666 8.666 0 012.176-2.924c.929-.839 2.029-1.496 3.298-1.972 1.292-.476 2.697-.714 4.216-.714 1.496 0 2.879.238 4.148.714 1.292.453 2.403 1.1 3.332 1.938a8.384 8.384 0 012.21 2.958c.521 1.133.782 2.391.782 3.774s-.272 2.652-.816 3.808a9.027 9.027 0 01-2.176 2.958c-.929.816-2.051 1.45-3.366 1.904-1.292.453-2.697.68-4.216.68-1.496 0-2.879-.227-4.148-.68-1.269-.453-2.369-1.1-3.298-1.938a9.146 9.146 0 01-2.142-2.992c-.521-1.179-.782-2.482-.782-3.91zm37.645-2.924c-1.066-.725-2.142-1.088-3.23-1.088-.59 0-1.145.102-1.666.306a3.994 3.994 0 00-1.326.884 3.949 3.949 0 00-.918 1.326c-.204.499-.306 1.065-.306 1.7 0 .612.102 1.179.306 1.7.226.499.521.94.884 1.326.385.363.838.646 1.36.85a4.527 4.527 0 001.666.306c1.156 0 2.232-.397 3.23-1.19v5.236c-1.519.657-2.958.986-4.318.986-1.27 0-2.482-.215-3.638-.646a9.58 9.58 0 01-3.026-1.836 9.48 9.48 0 01-2.074-2.89c-.522-1.133-.782-2.391-.782-3.774s.249-2.64.748-3.774a8.826 8.826 0 012.04-2.958 8.913 8.913 0 013.06-1.938 10.333 10.333 0 013.842-.714c1.496 0 2.878.317 4.148.952v5.236zm9.324 2.992c0 .59.102 1.133.306 1.632.226.476.51.895.85 1.258a3.97 3.97 0 001.258.85 4.09 4.09 0 001.564.306c.544 0 1.054-.102 1.53-.306a3.533 3.533 0 001.258-.85 3.99 3.99 0 00.85-1.258c.226-.499.34-1.031.34-1.598 0-.544-.114-1.054-.34-1.53a3.894 3.894 0 00-.85-1.292 3.533 3.533 0 00-1.258-.85 3.843 3.843 0 00-1.53-.306 4.09 4.09 0 00-1.564.306 3.97 3.97 0 00-1.258.85c-.34.363-.624.782-.85 1.258a3.843 3.843 0 00-.306 1.53zm-6.494-.068c0-1.292.26-2.493.782-3.604a8.653 8.653 0 012.176-2.924c.929-.839 2.028-1.496 3.298-1.972 1.292-.476 2.697-.714 4.216-.714 1.496 0 2.878.238 4.148.714 1.292.453 2.402 1.1 3.332 1.938a8.396 8.396 0 012.21 2.958c.521 1.133.782 2.391.782 3.774s-.272 2.652-.816 3.808a9.04 9.04 0 01-2.176 2.958c-.93.816-2.052 1.45-3.366 1.904-1.292.453-2.698.68-4.216.68-1.496 0-2.879-.227-4.148-.68-1.27-.453-2.369-1.1-3.298-1.938a9.146 9.146 0 01-2.142-2.992c-.522-1.179-.782-2.482-.782-3.91zM28.038 61.228c0 .567.102 1.1.306 1.598.204.476.476.895.816 1.258.362.363.782.646 1.258.85a4.179 4.179 0 001.598.306c.544 0 1.054-.102 1.53-.306a3.528 3.528 0 001.258-.85 3.98 3.98 0 00.85-1.258c.226-.476.34-.986.34-1.53s-.114-1.054-.34-1.53a3.885 3.885 0 00-.85-1.292 3.528 3.528 0 00-1.258-.85 3.843 3.843 0 00-1.53-.306c-.544 0-1.066.102-1.564.306a3.977 3.977 0 00-1.258.85 4.91 4.91 0 00-.85 1.258 3.604 3.604 0 00-.306 1.496zM35.79 41.78h6.188V70H35.79v-1.938c-1.315 1.655-3.094 2.482-5.338 2.482-1.27 0-2.437-.238-3.502-.714a8.661 8.661 0 01-2.788-1.972 9.257 9.257 0 01-1.87-2.958c-.43-1.133-.646-2.357-.646-3.672 0-1.247.204-2.425.612-3.536a9.093 9.093 0 011.802-2.958 8.285 8.285 0 012.754-1.972c1.088-.499 2.278-.748 3.57-.748 2.176 0 3.978.76 5.406 2.278V41.78zm23.126 16.966c-.204-.861-.624-1.553-1.258-2.074-.635-.521-1.406-.782-2.312-.782-.952 0-1.734.25-2.346.748-.59.499-.964 1.201-1.122 2.108h7.038zm-7.208 3.57c0 2.652 1.246 3.978 3.74 3.978 1.337 0 2.346-.544 3.026-1.632h5.95c-1.202 3.99-4.205 5.984-9.01 5.984-1.474 0-2.822-.215-4.046-.646-1.224-.453-2.278-1.088-3.162-1.904a8.522 8.522 0 01-2.006-2.924c-.476-1.133-.714-2.403-.714-3.808 0-1.45.226-2.754.68-3.91.453-1.179 1.099-2.176 1.938-2.992.838-.816 1.847-1.44 3.026-1.87 1.201-.453 2.55-.68 4.046-.68 1.473 0 2.799.227 3.978.68 1.178.43 2.176 1.065 2.992 1.904.816.839 1.439 1.87 1.87 3.094.43 1.201.646 2.561.646 4.08v.646H51.708zm30.377-.986c0-.544-.102-1.054-.306-1.53a3.884 3.884 0 00-.85-1.292 3.978 3.978 0 00-1.258-.85 3.59 3.59 0 00-1.564-.34c-.544 0-1.054.102-1.53.306a3.978 3.978 0 00-1.258.85c-.34.363-.623.793-.85 1.292a3.843 3.843 0 00-.306 1.53c0 .544.102 1.054.306 1.53.204.476.488.895.85 1.258.363.34.782.623 1.258.85.499.204 1.02.306 1.564.306s1.054-.102 1.53-.306a3.599 3.599 0 001.224-.85c.363-.363.646-.782.85-1.258.227-.476.34-.975.34-1.496zm-7.752-19.55v12.512c1.451-1.519 3.264-2.278 5.44-2.278 1.292 0 2.471.25 3.536.748a7.85 7.85 0 012.754 1.972c.771.816 1.372 1.79 1.802 2.924.431 1.11.646 2.3.646 3.57a9.704 9.704 0 01-.68 3.638 8.803 8.803 0 01-1.836 2.958 9.005 9.005 0 01-2.822 2.006c-1.065.476-2.221.714-3.468.714-2.266 0-4.057-.827-5.372-2.482V70H68.18V41.78h6.154zm30.436 16.966c-.204-.861-.623-1.553-1.258-2.074-.635-.521-1.405-.782-2.312-.782-.952 0-1.734.25-2.346.748-.59.499-.963 1.201-1.122 2.108h7.038zm-7.208 3.57c0 2.652 1.247 3.978 3.74 3.978 1.337 0 2.346-.544 3.026-1.632h5.95c-1.201 3.99-4.205 5.984-9.01 5.984-1.473 0-2.822-.215-4.046-.646-1.224-.453-2.278-1.088-3.162-1.904a8.522 8.522 0 01-2.006-2.924c-.476-1.133-.714-2.403-.714-3.808 0-1.45.227-2.754.68-3.91.453-1.179 1.1-2.176 1.938-2.992.839-.816 1.848-1.44 3.026-1.87 1.201-.453 2.55-.68 4.046-.68 1.473 0 2.799.227 3.978.68 1.179.43 2.176 1.065 2.992 1.904.816.839 1.439 1.87 1.87 3.094.431 1.201.646 2.561.646 4.08v.646H97.561zm16.472-9.758h6.154v2.856c.657-1.043 1.462-1.836 2.414-2.38.952-.567 2.062-.85 3.332-.85h.51c.204 0 .43.023.68.068v5.882a5.847 5.847 0 00-2.652-.612c-1.428 0-2.505.43-3.23 1.292-.703.839-1.054 2.074-1.054 3.706V70h-6.154V52.558zm21.958 0V70h-6.154V52.558h6.154zm2.856-7.786l-5.916 5.236-2.856-2.108 4.862-5.95 3.91 2.822zm7.062 16.456c0 .567.102 1.1.306 1.598.204.476.476.895.816 1.258.363.363.782.646 1.258.85a4.18 4.18 0 001.598.306c.544 0 1.054-.102 1.53-.306a3.524 3.524 0 001.258-.85c.363-.363.646-.782.85-1.258.227-.476.34-.986.34-1.53s-.113-1.054-.34-1.53a3.879 3.879 0 00-.85-1.292 3.524 3.524 0 00-1.258-.85 3.843 3.843 0 00-1.53-.306 4.18 4.18 0 00-1.598.306 3.982 3.982 0 00-1.258.85c-.34.363-.612.782-.816 1.258a3.604 3.604 0 00-.306 1.496zm7.752-8.67h6.188V70h-6.188v-1.938c-1.315 1.655-3.094 2.482-5.338 2.482-1.269 0-2.437-.227-3.502-.68a8.663 8.663 0 01-2.788-1.972 9.259 9.259 0 01-1.87-2.958c-.431-1.133-.646-2.369-.646-3.706 0-1.247.215-2.425.646-3.536a9.095 9.095 0 011.802-2.958 8.293 8.293 0 012.754-1.972c1.065-.499 2.244-.748 3.536-.748 2.176 0 3.978.76 5.406 2.278v-1.734zm21.936 4.488c-1.134-.59-2.244-.884-3.332-.884-.567 0-1.032.113-1.394.34-.34.227-.51.533-.51.918 0 .204.022.374.068.51.068.113.192.227.374.34.204.113.487.215.85.306.385.09.884.204 1.496.34 1.7.34 2.969.952 3.808 1.836.838.861 1.258 1.972 1.258 3.332 0 1.02-.204 1.938-.612 2.754a6.02 6.02 0 01-1.7 2.074c-.726.544-1.598.963-2.618 1.258-1.02.317-2.142.476-3.366.476-2.358 0-4.681-.669-6.97-2.006l2.244-4.352c1.722 1.179 3.354 1.768 4.896 1.768.566 0 1.031-.125 1.394-.374.362-.25.544-.567.544-.952 0-.227-.034-.408-.102-.544-.046-.159-.159-.295-.34-.408-.182-.136-.454-.25-.816-.34-.34-.113-.794-.227-1.36-.34-1.904-.385-3.242-.952-4.012-1.7-.748-.77-1.122-1.825-1.122-3.162 0-.975.181-1.847.544-2.618a5.413 5.413 0 011.564-2.006c.68-.544 1.496-.963 2.448-1.258.974-.295 2.051-.442 3.23-.442 1.926 0 3.796.374 5.61 1.122l-2.074 4.012zm5.433 9.69c0-.544.102-1.054.306-1.53.204-.499.487-.93.85-1.292a3.97 3.97 0 011.258-.85 4.09 4.09 0 011.564-.306c.544 0 1.054.102 1.53.306.498.204.929.487 1.292.85.362.363.646.793.85 1.292.204.476.306.986.306 1.53s-.102 1.065-.306 1.564a3.894 3.894 0 01-2.142 2.108 3.843 3.843 0 01-1.53.306 4.09 4.09 0 01-1.564-.306 3.97 3.97 0 01-1.258-.85 3.973 3.973 0 01-.85-1.258 4.092 4.092 0 01-.306-1.564z" fill="#fff"/></svg>