<svg width="227" height="16" viewBox="0 0 227 16" fill="none" xmlns="http://www.w3.org/2000/svg"><path d="M.04 13V1.984h2.277L6.108 7.22c.612.833 1.31 2.023 1.31 2.023V1.984h2.38V13H7.501L3.83 7.968c-.73-.986-1.41-2.159-1.41-2.159V13H.04zm15.829.17c-2.533 0-4.54-1.955-4.54-4.42s2.007-4.42 4.54-4.42c2.55 0 4.556 1.955 4.556 4.42s-2.006 4.42-4.556 4.42zm0-2.108c1.275 0 2.227-.969 2.227-2.312 0-1.326-.952-2.312-2.227-2.312s-2.227.986-2.227 2.312c0 1.343.952 2.312 2.227 2.312zM29.59 13.17c-2.533 0-4.539-1.955-4.539-4.42s2.006-4.42 4.54-4.42c1.172 0 2.192.391 3.042 1.088l-1.377 1.598c-.39-.357-.935-.578-1.615-.578-1.326 0-2.278.969-2.278 2.312 0 1.326.901 2.312 2.346 2.312.714 0 1.411-.272 1.853-.697l1.207 1.7c-.816.697-1.955 1.105-3.179 1.105zm8.198 0c-2.533 0-4.54-1.955-4.54-4.42s2.007-4.42 4.54-4.42c2.55 0 4.556 1.955 4.556 4.42s-2.007 4.42-4.556 4.42zm0-2.108c1.275 0 2.227-.969 2.227-2.312 0-1.326-.953-2.312-2.227-2.312-1.275 0-2.227.986-2.227 2.312 0 1.343.952 2.312 2.227 2.312zM43.66 13V4.5h2.227v1.139c.493-.765 1.496-1.309 2.516-1.309 1.343 0 2.176.561 2.618 1.513.612-1.02 1.785-1.513 2.754-1.513 2.397 0 3.145 1.649 3.145 3.825V13h-2.278V8.444c0-1.122-.272-1.955-1.48-1.955-1.121 0-1.733.901-1.733 2.023V13H49.15V8.444c0-1.122-.255-1.955-1.48-1.955-1.155 0-1.733.986-1.733 2.108V13H43.66zm14.705 2.448V4.5h2.159v1.02c.697-.833 1.7-1.19 2.72-1.19 2.346 0 3.842 1.972 3.842 4.403 0 2.465-1.53 4.437-3.876 4.437-.986 0-1.955-.391-2.567-1.139v3.417h-2.278zm4.284-4.386c1.24 0 2.108-.969 2.108-2.312s-.867-2.312-2.108-2.312c-1.156 0-2.023.952-2.023 2.312 0 1.343.85 2.312 2.023 2.312zm9.326 2.108c-2.346 0-3.842-1.972-3.842-4.42s1.496-4.42 3.842-4.42c.986 0 2.04.391 2.652 1.207V4.5h2.227V13h-2.227v-1.02c-.595.816-1.666 1.19-2.652 1.19zm.578-2.108c1.173 0 2.023-.952 2.023-2.312 0-1.326-.85-2.312-2.023-2.312-1.224 0-2.108.986-2.108 2.312 0 1.343.884 2.312 2.108 2.312zM78.411 13V4.5h2.244v1.632c.238-.697 1.105-1.802 2.975-1.802v2.482c-1.972 0-2.94.901-2.94 2.924V13H78.41zm9.816.17c-1.7 0-2.618-.986-2.618-2.907V6.336h-1.24V4.5h1.24V2.868l2.278-.51V4.5h2.346v1.836h-2.346v3.893c0 .731.357.969.765.969.544 0 1.02-.306 1.088-.357l.646 1.683c-.51.34-1.258.646-2.159.646zm6.646 0c-2.346 0-3.842-1.972-3.842-4.42s1.496-4.42 3.842-4.42c.986 0 2.04.391 2.652 1.207V4.5h2.227V13h-2.227v-1.02c-.595.816-1.666 1.19-2.652 1.19zm.578-2.108c1.173 0 2.023-.952 2.023-2.312 0-1.326-.85-2.312-2.023-2.312-1.224 0-2.108.986-2.108 2.312 0 1.343.884 2.312 2.108 2.312zm8.885 2.108c-1.819 0-2.992-.714-3.468-1.156l.816-1.751c.578.442 1.377.901 2.652.901.527 0 1.394-.204 1.394-.714s-.731-.629-1.462-.833c-1.683-.442-3.06-1.003-3.06-2.635 0-1.734 1.7-2.652 3.298-2.652 1.394 0 2.278.34 3.162.85l-.765 1.7c-.833-.408-1.615-.595-2.363-.595-.527 0-1.02.238-1.02.595 0 .476.714.629 1.496.799 1.445.34 3.026.969 3.026 2.703 0 2.091-2.125 2.788-3.706 2.788zm11.65 0c-1.7 0-2.618-.986-2.618-2.907V6.336h-1.241V4.5h1.241V2.868l2.278-.51V4.5h2.346v1.836h-2.346v3.893c0 .731.357.969.765.969.544 0 1.02-.306 1.088-.357l.646 1.683c-.51.34-1.258.646-2.159.646zm6.084 0c-2.346 0-3.094-1.377-3.094-3.587V4.5h2.278v4.777c0 1.19.51 1.734 1.564 1.734 1.19 0 1.768-1.003 1.768-2.159V4.5h2.278V13h-2.142v-1.19c-.51.833-1.666 1.36-2.652 1.36zm9.916-.17V4.5h2.278V13h-2.278zm1.122-9.537a1.357 1.357 0 01-1.343-1.343c0-.748.612-1.36 1.343-1.36.748 0 1.36.612 1.36 1.36a1.36 1.36 0 01-1.36 1.343zM135.834 13V4.5h2.227v1.139c.68-.935 1.649-1.309 2.686-1.309 2.244 0 3.026 1.445 3.026 3.774V13h-2.278V8.393c0-1.241-.323-1.904-1.479-1.904-1.139 0-1.904.918-1.904 2.21V13h-2.278zm9.732 0V6.353h-1.326V4.517h1.326v-.561c0-1.972 1.088-2.822 2.533-2.822.765 0 1.615.221 2.21.527l-.646 1.683c-.187-.085-.561-.255-.952-.255-.476 0-.867.238-.867 1.122v.306h2.125v1.836h-2.125V13h-2.278zm9.319.17c-2.533 0-4.539-1.955-4.539-4.42s2.006-4.42 4.539-4.42c2.55 0 4.556 1.955 4.556 4.42s-2.006 4.42-4.556 4.42zm0-2.108c1.275 0 2.227-.969 2.227-2.312 0-1.326-.952-2.312-2.227-2.312s-2.227.986-2.227 2.312c0 1.343.952 2.312 2.227 2.312zM160.757 13V4.5h2.244v1.632c.238-.697 1.105-1.802 2.975-1.802v2.482c-1.972 0-2.941.901-2.941 2.924V13h-2.278zm6.288 0V4.5h2.227v1.139c.493-.765 1.496-1.309 2.516-1.309 1.343 0 2.176.561 2.618 1.513.612-1.02 1.785-1.513 2.754-1.513 2.397 0 3.145 1.649 3.145 3.825V13h-2.278V8.444c0-1.122-.272-1.955-1.479-1.955-1.122 0-1.734.901-1.734 2.023V13h-2.278V8.444c0-1.122-.255-1.955-1.479-1.955-1.156 0-1.734.986-1.734 2.108V13h-2.278zm18.292.17c-2.346 0-3.842-1.972-3.842-4.42s1.496-4.42 3.842-4.42c.986 0 2.04.391 2.652 1.207V4.5h2.227V13h-2.227v-1.02c-.595.816-1.666 1.19-2.652 1.19zm.578-2.108c1.173 0 2.023-.952 2.023-2.312 0-1.326-.85-2.312-2.023-2.312-1.224 0-2.108.986-2.108 2.312 0 1.343.884 2.312 2.108 2.312zm10.142 2.108c-2.533 0-4.539-1.955-4.539-4.42s2.006-4.42 4.539-4.42c1.173 0 2.193.391 3.043 1.088l-1.377 1.598c-.391-.357-.935-.578-1.615-.578-1.326 0-2.278.969-2.278 2.312 0 1.326.901 2.312 2.346 2.312.714 0 1.411-.272 1.853-.697l1.207 1.7c-.816.697-1.955 1.105-3.179 1.105zm4.179-.17V4.5h2.278V13h-2.278zm1.122-9.537a1.357 1.357 0 01-1.343-1.343c0-.748.612-1.36 1.343-1.36.748 0 1.36.612 1.36 1.36a1.36 1.36 0 01-1.36 1.343zm5.514-.119L208.47.675h2.261l-1.989 2.669h-1.87zm1.496 9.826c-2.533 0-4.539-1.955-4.539-4.42s2.006-4.42 4.539-4.42c2.55 0 4.556 1.955 4.556 4.42s-2.006 4.42-4.556 4.42zm0-2.108c1.275 0 2.227-.969 2.227-2.312 0-1.326-.952-2.312-2.227-2.312s-2.227.986-2.227 2.312c0 1.343.952 2.312 2.227 2.312zM214.24 13V4.5h2.227v1.139c.68-.935 1.649-1.309 2.686-1.309 2.244 0 3.026 1.445 3.026 3.774V13h-2.278V8.393c0-1.241-.323-1.904-1.479-1.904-1.139 0-1.904.918-1.904 2.21V13h-2.278zm10.651.17a1.32 1.32 0 01-1.343-1.326c0-.765.595-1.343 1.343-1.343.765 0 1.36.578 1.36 1.343 0 .731-.595 1.326-1.36 1.326z" fill="#fff"/></svg>