<svg width="132" height="13" viewBox="0 0 132 13" fill="none" xmlns="http://www.w3.org/2000/svg"><path d="M6.643 6.964H1.536c.075.472.271.85.591 1.128.32.28.729.418 1.226.418.594 0 1.104-.218 1.532-.654l1.339.66c-.334.498-.734.866-1.2 1.104-.466.24-1.019.358-1.659.358-.993 0-1.802-.329-2.427-.988C.313 8.332 0 7.507 0 6.516c0-.991.312-1.859.934-2.53.623-.67 1.404-1.005 2.345-1.005.997 0 1.808.336 2.433 1.005.625.671.938 1.557.938 2.658l-.006.318-.001.002zm-1.59-1.316a1.67 1.67 0 00-.62-.904 1.74 1.74 0 00-1.077-.35c-.443 0-.831.131-1.166.392-.21.163-.405.45-.584.862h3.447zM11.598 4.082l-.983 1.033c-.4-.416-.763-.624-1.089-.624-.178 0-.318.04-.419.12a.361.361 0 00-.15.296c0 .09.031.172.095.247.064.075.222.179.474.308l.583.306c.613.318 1.035.642 1.263.972.229.33.344.718.344 1.162 0 .591-.207 1.085-.62 1.48-.414.395-.968.592-1.662.592-.924 0-1.661-.379-2.213-1.137l.978-1.12c.186.228.404.413.654.553.25.14.473.211.668.211.21 0 .378-.052.506-.158.128-.106.192-.228.192-.367 0-.257-.231-.508-.693-.753l-.536-.28C7.966 6.38 7.454 5.7 7.454 4.886c0-.525.193-.975.58-1.349.385-.373.88-.559 1.48-.559.412 0 .8.095 1.163.285.363.19.67.462.923.816l-.002.003zM13.262 8.064c.252 0 .468.092.646.278a.94.94 0 01.268.676.95.95 0 01-.268.679.86.86 0 01-.646.28.862.862 0 01-.647-.28.95.95 0 01-.267-.68c0-.265.089-.49.267-.675a.863.863 0 01.647-.278zM16.736.81h1.587l1.987 6.277L22.314.81H23.9l1.439 8.997h-1.576l-.918-5.682-1.82 5.682h-1.44l-1.802-5.682-.94 5.682h-1.591L16.736.811zM32.749 6.965h-5.107c.074.474.271.85.591 1.129.32.278.729.419 1.227.419.594 0 1.105-.219 1.532-.655l1.34.66c-.334.498-.733.867-1.2 1.106-.467.239-1.02.358-1.66.358-.994 0-1.803-.33-2.43-.988-.624-.659-.937-1.483-.937-2.473 0-.99.31-1.859.934-2.529.624-.67 1.405-1.005 2.344-1.005.998 0 1.809.336 2.434 1.005.624.672.938 1.557.938 2.657l-.006.318h-.003l.003-.002zm-1.59-1.315a1.676 1.676 0 00-.622-.905 1.74 1.74 0 00-1.076-.35c-.443 0-.831.131-1.167.392-.21.163-.406.451-.584.863h3.449zM38.57.583h1.59v9.223h-1.59v-.703c-.312.31-.622.534-.934.67-.31.135-.65.205-1.016.205-.818 0-1.525-.334-2.122-1-.598-.666-.897-1.495-.897-2.486 0-.991.288-1.87.867-2.527.578-.657 1.278-.985 2.105-.985.38 0 .737.075 1.07.225.334.15.642.378.925.68V.582h.001zm-1.673 3.94c-.491 0-.9.181-1.225.547-.324.365-.488.833-.488 1.404s.166 1.048.496 1.418c.33.371.737.556 1.221.556.485 0 .914-.181 1.242-.547.33-.365.492-.843.492-1.435 0-.593-.164-1.048-.492-1.408a1.621 1.621 0 00-1.247-.538v.003zM42.407.413c.278 0 .518.106.717.318.198.212.299.469.299.77 0 .301-.1.552-.297.762a.963.963 0 01-1.43-.006 1.107 1.107 0 01-.3-.78c0-.306.099-.545.295-.752a.95.95 0 01.714-.312h.002zm-.795 2.74h1.59v6.653h-1.59V3.152zM50.8 4.5l-1.322.765c-.248-.273-.495-.462-.737-.569a2.11 2.11 0 00-.855-.16c-.594 0-1.076.186-1.442.559-.367.372-.551.85-.551 1.431 0 .582.176 1.028.531 1.388.353.357.818.537 1.394.537.71 0 1.264-.255 1.66-.765l1.253.9c-.68.93-1.638 1.394-2.878 1.394-1.115 0-1.986-.347-2.617-1.04a3.505 3.505 0 01-.947-2.435c0-.645.154-1.237.46-1.78a3.348 3.348 0 011.283-1.279 3.686 3.686 0 011.843-.464c.63 0 1.194.132 1.694.394.502.263.91.638 1.228 1.124v.002l.004-.002zM56.325 3.152h1.59v6.654h-1.59v-.703c-.311.31-.622.534-.934.67-.31.135-.65.204-1.015.204-.818 0-1.525-.333-2.123-1-.597-.665-.896-1.494-.896-2.486 0-.99.288-1.87.867-2.527.578-.656 1.278-.985 2.105-.985.38 0 .737.076 1.07.226.334.15.641.378.925.679v-.735.003zm-1.673 1.37c-.49 0-.9.181-1.224.547-.325.365-.488.833-.488 1.404 0 .572.166 1.048.496 1.419.33.37.736.555 1.22.555.485 0 .915-.18 1.243-.547.329-.365.492-.842.492-1.435 0-.593-.165-1.048-.492-1.408a1.621 1.621 0 00-1.248-.537v.002h.001zM59.264 3.152h1.362v.839c.147-.33.344-.582.589-.753.244-.17.512-.256.803-.256.206 0 .421.056.646.17l-.494 1.436c-.188-.097-.34-.146-.46-.146-.244 0-.45.16-.62.478-.169.318-.253.942-.253 1.872l.005.325v2.691h-1.577V3.152h-.002zM69.469 6.965h-5.107c.073.474.271.85.59 1.129.32.278.73.419 1.228.419.594 0 1.104-.219 1.532-.655l1.34.66c-.334.498-.734.867-1.201 1.106-.466.239-1.019.358-1.66.358-.994 0-1.803-.33-2.428-.988-.625-.659-.938-1.483-.938-2.473 0-.99.31-1.859.934-2.529.624-.67 1.405-1.005 2.344-1.005.997 0 1.809.336 2.433 1.005.625.672.938 1.557.938 2.657l-.005.318h-.003l.003-.002zm-1.59-1.315a1.676 1.676 0 00-.622-.905 1.744 1.744 0 00-1.076-.35c-.443 0-.832.131-1.168.392-.21.163-.405.451-.583.863h3.448zM71.107 8.065c.251 0 .468.093.646.278a.94.94 0 01.268.676c0 .264-.09.492-.268.68a.862.862 0 01-.646.28.863.863 0 01-.647-.28.948.948 0 01-.267-.68c0-.267.089-.49.267-.676a.869.869 0 01.647-.278zM77.85 3.152h1.585v5.7c0 1.125-.215 1.953-.647 2.483-.578.717-1.45 1.077-2.615 1.077-.621 0-1.142-.08-1.567-.243a2.78 2.78 0 01-1.07-.719 2.975 2.975 0 01-.647-1.152h1.752c.156.187.354.329.6.426.245.096.535.143.868.143.426 0 .77-.07 1.03-.208.261-.139.444-.318.551-.537.106-.221.161-.6.161-1.138-.28.294-.573.505-.878.634a2.678 2.678 0 01-1.043.193c-.851 0-1.569-.322-2.155-.967-.585-.645-.878-1.46-.878-2.447 0-1.055.31-1.904.93-2.545.563-.579 1.236-.868 2.015-.868.365 0 .71.07 1.034.211.324.142.65.372.974.694v-.737zm-1.647 1.39c-.502 0-.914.176-1.24.528-.328.353-.49.797-.49 1.33 0 .535.168 1.01.502 1.364.333.354.753.531 1.258.531.504 0 .9-.172 1.218-.52.32-.346.481-.8.481-1.362s-.16-1.006-.484-1.353c-.321-.347-.737-.52-1.245-.52v.002zM83.918 2.982c.598 0 1.16.158 1.686.472.526.314.937.739 1.232 1.279.295.537.442 1.12.442 1.743 0 .624-.148 1.215-.445 1.762a3.286 3.286 0 01-1.215 1.28 3.225 3.225 0 01-1.694.462c-.908 0-1.684-.34-2.327-1.018-.643-.68-.964-1.503-.964-2.474 0-1.04.363-1.906 1.089-2.6.636-.604 1.367-.905 2.195-.905l.003-.002-.002.001zm.027 1.573c-.495 0-.905.18-1.234.541-.329.362-.492.822-.492 1.386s.162 1.048.487 1.408c.325.36.736.538 1.234.538s.912-.182 1.242-.545c.33-.364.496-.83.496-1.4 0-.572-.163-1.036-.488-1.391-.325-.357-.74-.537-1.245-.537zM87.438 3.152h1.62l1.6 3.928 1.597-3.928h1.61L91.17 9.806h-1.03l-2.704-6.654h.003-.001z" fill="#A6DAFC"/><path d="M94.12 11.419L97.985.498h1.144l-3.874 10.92H94.12zM100.789.756h4.743v1.68h-3.115V4.08h2.024v1.655h-2.024v4.073h-1.628V.755v.001zM106.368 3.113h1.371v.842c.148-.332.346-.584.591-.757.246-.173.516-.258.809-.258.207 0 .424.058.65.173l-.498 1.446c-.187-.099-.341-.148-.462-.148-.246 0-.454.16-.624.48-.17.32-.255.948-.255 1.883l.006.326v2.708h-1.587V3.113h-.001zM115.283 3.113h1.599v6.695h-1.599V9.1c-.312.312-.625.536-.939.673a2.513 2.513 0 01-1.022.206c-.822 0-1.535-.335-2.135-1.005-.6-.671-.901-1.505-.901-2.501s.29-1.88.872-2.542c.581-.66 1.287-.991 2.118-.991.382 0 .741.076 1.076.228.336.152.645.38.93.683v-.738h.001zm-1.681 1.379c-.494 0-.904.183-1.231.55-.327.368-.49.838-.49 1.413 0 .575.167 1.055.499 1.428.332.373.743.56 1.229.56.487 0 .919-.183 1.25-.55.331-.368.496-.85.496-1.443 0-.594-.166-1.054-.496-1.415a1.629 1.629 0 00-1.256-.541l-.001-.002zM118.493 3.112h1.616v3.224c0 .628.041 1.064.123 1.308.083.244.215.435.397.57.181.134.405.202.673.202.267 0 .492-.067.678-.2.186-.134.325-.33.414-.588.066-.194.099-.605.099-1.238V3.11h1.599v2.838c0 1.168-.087 1.969-.263 2.4-.215.525-.532.927-.95 1.21-.418.28-.949.42-1.593.42-.699 0-1.265-.164-1.696-.492-.431-.327-.734-.786-.91-1.371-.124-.406-.187-1.145-.187-2.215V3.112zM130.401.528H132v9.278h-1.599v-.708c-.312.312-.625.536-.939.673a2.513 2.513 0 01-1.022.207c-.822 0-1.535-.335-2.135-1.006-.601-.67-.901-1.505-.901-2.5 0-.997.29-1.881.872-2.542.581-.66 1.287-.992 2.118-.992.382 0 .741.076 1.076.228.336.153.645.38.93.683V.526l.001.002zM128.72 4.49c-.494 0-.904.184-1.231.55-.327.368-.49.838-.49 1.413 0 .575.167 1.055.499 1.428.332.373.743.56 1.229.56.487 0 .919-.183 1.25-.55.331-.367.496-.849.496-1.443 0-.594-.166-1.053-.496-1.414a1.629 1.629 0 00-1.256-.542l-.001-.002z" fill="#fff"/></svg>