<svg width="154" height="26" viewBox="0 0 154 26" fill="none" xmlns="http://www.w3.org/2000/svg"><path d="M1.616 8.16a.83.83 0 01-.832-.848.84.84 0 01.832-.848c.464 0 .848.384.848.848a.854.854 0 01-.848.848zm3.25 0a.83.83 0 01-.832-.848.84.84 0 01.832-.848c.464 0 .848.384.848.848a.854.854 0 01-.848.848zm3.25 0a.83.83 0 01-.832-.848.84.84 0 01.832-.848c.464 0 .848.384.848.848a.854.854 0 01-.848.848zm6.018 0c-2.16 0-3.68-1.792-3.68-4.048 0-2.288 1.52-4.064 3.68-4.064 1.248 0 2.352.512 2.928 1.52V.208h1.216V8h-1.216V6.64c-.576 1.024-1.68 1.52-2.928 1.52zm.272-1.184c1.488 0 2.656-1.232 2.656-2.864s-1.168-2.88-2.656-2.88c-1.552 0-2.704 1.216-2.704 2.88 0 1.648 1.152 2.864 2.704 2.864zM23.806 8V.208h1.215v1.344C25.453.704 26.43.048 27.517.048c1.248 0 2.128.544 2.496 1.648C30.573.56 31.79.048 32.701.048c1.872 0 2.864 1.088 2.864 3.232V8h-1.232V3.44c0-1.328-.464-2.208-1.888-2.208-1.312 0-2.144 1.056-2.144 2.224V8H29.07V3.44c0-1.328-.464-2.208-1.872-2.208-1.36 0-2.176 1.152-2.176 2.288V8h-1.216zm17.415.16c-2.207 0-4.08-1.584-4.08-4.048 0-2.256 1.697-4.064 3.92-4.064 2.08 0 3.728 1.792 3.728 4.016 0 .224-.032.464-.032.48h-6.351c.191 1.552 1.392 2.528 2.831 2.528.88 0 1.76-.304 2.4-.832l.529.896a4.768 4.768 0 01-2.944 1.024zm-2.815-4.544h5.184c-.129-1.44-1.233-2.48-2.593-2.48-1.328 0-2.416 1.024-2.591 2.48zM46.524 8V.208h1.216v1.328C48.284.592 49.292.048 50.444.048c1.952 0 2.816 1.184 2.816 3.232V8h-1.216V3.44c0-1.44-.528-2.208-1.936-2.208-1.392 0-2.368 1.088-2.368 2.384V8h-1.216zm12.432.16c-2.288 0-4.096-1.792-4.096-4.048 0-2.272 1.808-4.064 4.096-4.064 2.288 0 4.096 1.792 4.096 4.064 0 2.256-1.808 4.048-4.096 4.048zm0-1.184c1.616 0 2.848-1.232 2.848-2.864 0-1.648-1.232-2.88-2.848-2.88-1.616 0-2.848 1.232-2.848 2.88 0 1.632 1.232 2.864 2.848 2.864zm8.442 1.184c-1.584 0-2.592-.72-3.04-1.184l.496-.992a3.554 3.554 0 002.544 1.024c1.072 0 1.952-.496 1.952-1.2 0-.816-.944-1.04-1.888-1.28-1.44-.368-2.752-.768-2.752-2.256 0-1.408 1.472-2.224 2.784-2.224 1.072 0 1.856.288 2.656.832l-.48.992a3.678 3.678 0 00-2.16-.672c-.8 0-1.552.448-1.552 1.056 0 .768.864.944 1.776 1.136 1.408.32 2.864.848 2.864 2.384 0 1.648-1.68 2.384-3.2 2.384zm14.648 2.096V6.64c-.576 1.008-1.68 1.52-2.928 1.52-2.16 0-3.68-1.792-3.68-4.064 0-2.272 1.52-4.048 3.68-4.048 1.264 0 2.4.496 2.976 1.504V.208h1.168v10.048h-1.216zm-2.656-3.28c1.488 0 2.656-1.248 2.656-2.88s-1.168-2.864-2.656-2.864c-1.552 0-2.704 1.216-2.704 2.864 0 1.664 1.152 2.88 2.704 2.88zm8.62 1.184c-1.92 0-2.833-1.008-2.833-3.088V.208h1.216v4.704c0 1.456.704 2.064 1.968 2.064 1.408 0 2.224-1.152 2.224-2.352V.208h1.216V8h-1.168V6.624c-.48 1.008-1.6 1.536-2.624 1.536zm9.602 0c-2.208 0-4.08-1.584-4.08-4.048 0-2.256 1.696-4.064 3.92-4.064 2.08 0 3.728 1.792 3.728 4.016 0 .224-.032.464-.032.48h-6.352c.192 1.552 1.392 2.528 2.832 2.528.88 0 1.76-.304 2.4-.832l.528.896a4.767 4.767 0 01-2.944 1.024zm-2.816-4.544h5.184c-.128-1.44-1.232-2.48-2.592-2.48-1.328 0-2.416 1.024-2.592 2.48zm.837 21.64V15.208h1.168v1.344c.576-1.008 1.712-1.504 2.976-1.504 2.16 0 3.68 1.776 3.68 4.048 0 2.272-1.52 4.064-3.68 4.064-1.232 0-2.352-.512-2.928-1.52v3.616h-1.216zm3.872-3.28c1.552 0 2.704-1.216 2.704-2.88 0-1.648-1.152-2.864-2.704-2.864-1.488 0-2.656 1.232-2.656 2.864s1.168 2.88 2.656 2.88zM105.18 23v-7.792h1.216v1.648c.448-1.024 1.456-1.808 3.008-1.808v1.328c-1.824 0-3.008 1.024-3.008 2.928V23h-1.216zm5.625 0v-7.792h1.216V23h-1.216zm.608-9.184a.792.792 0 01-.8-.8c0-.448.352-.816.8-.816a.82.82 0 01.816.816c0 .448-.368.8-.816.8zM114.071 23v-7.792h1.216v1.344c.432-.848 1.408-1.504 2.496-1.504 1.248 0 2.128.544 2.496 1.648.56-1.136 1.776-1.648 2.688-1.648 1.872 0 2.864 1.088 2.864 3.232V23h-1.232v-4.56c0-1.328-.464-2.208-1.888-2.208-1.312 0-2.144 1.056-2.144 2.224V23h-1.232v-4.56c0-1.328-.464-2.208-1.872-2.208-1.36 0-2.176 1.152-2.176 2.288V23h-1.216zm17.416.16c-2.208 0-4.08-1.584-4.08-4.048 0-2.256 1.696-4.064 3.92-4.064 2.08 0 3.728 1.792 3.728 4.016 0 .224-.032.464-.032.48h-6.352c.192 1.552 1.392 2.528 2.832 2.528.88 0 1.76-.304 2.4-.832l.528.896a4.768 4.768 0 01-2.944 1.024zm-2.816-4.544h5.184c-.128-1.44-1.232-2.48-2.592-2.48-1.328 0-2.416 1.024-2.592 2.48zM136.79 23v-7.792h1.216v1.648c.448-1.024 1.456-1.808 3.008-1.808v1.328c-1.824 0-3.008 1.024-3.008 2.928V23h-1.216zm9.244.16c-2.288 0-4.096-1.792-4.096-4.048 0-2.272 1.808-4.064 4.096-4.064 2.288 0 4.096 1.792 4.096 4.064 0 2.256-1.808 4.048-4.096 4.048zm0-1.184c1.616 0 2.848-1.232 2.848-2.864 0-1.648-1.232-2.88-2.848-2.88-1.616 0-2.848 1.232-2.848 2.88 0 1.632 1.232 2.864 2.848 2.864zm6.41 1.184a.83.83 0 01-.832-.848.84.84 0 01.832-.848c.464 0 .848.384.848.848a.854.854 0 01-.848.848z" fill="#275D80"/><path d="M3.824 23.16c-1.6 0-2.464-.928-2.464-2.736v-3.696H.192V15H1.36v-1.536l2.144-.48V15h2.208v1.728H3.504v3.664c0 .688.336.912.72.912.512 0 .96-.288 1.024-.336l.608 1.584c-.48.32-1.184.608-2.032.608zm5.294-9.248l1.504-2.512h2.128l-1.872 2.512h-1.76zm.592 9.248c-2.208 0-2.912-1.296-2.912-3.376V15h2.144v4.496c0 1.12.48 1.632 1.472 1.632 1.12 0 1.664-.944 1.664-2.032V15h2.144v8h-2.016v-1.12c-.48.784-1.568 1.28-2.496 1.28zm9.653-.16V12.472h2.144V23h-2.144zm7.813.16c-2.384 0-4.272-1.84-4.272-4.16 0-2.32 1.888-4.16 4.272-4.16 2.4 0 4.288 1.84 4.288 4.16 0 2.32-1.888 4.16-4.288 4.16zm0-1.984c1.2 0 2.096-.912 2.096-2.176 0-1.248-.896-2.176-2.096-2.176-1.2 0-2.096.928-2.096 2.176 0 1.264.896 2.176 2.096 2.176zm8.488 1.984c-1.712 0-2.816-.672-3.264-1.088l.768-1.648c.544.416 1.296.848 2.496.848.496 0 1.312-.192 1.312-.672 0-.48-.688-.592-1.376-.784-1.584-.416-2.88-.944-2.88-2.48 0-1.632 1.6-2.496 3.104-2.496 1.312 0 2.144.32 2.976.8l-.72 1.6c-.784-.384-1.52-.56-2.224-.56-.496 0-.96.224-.96.56 0 .448.672.592 1.408.752 1.36.32 2.848.912 2.848 2.544 0 1.968-2 2.624-3.488 2.624zm8.277-.16V12.472h2.144V23h-2.144zm3.781 0V12.472h2.144V23h-2.144zm7.157.16c-2.207 0-3.615-1.856-3.615-4.16 0-2.304 1.407-4.16 3.615-4.16.928 0 1.92.368 2.497 1.136V15h2.096v8h-2.096v-.96c-.56.768-1.569 1.12-2.496 1.12zm.544-1.984c1.105 0 1.904-.896 1.904-2.176 0-1.248-.8-2.176-1.904-2.176-1.151 0-1.983.928-1.983 2.176 0 1.264.832 2.176 1.983 2.176zM61.097 23v-8h2.096v1.072c.464-.72 1.408-1.232 2.368-1.232 1.264 0 2.048.528 2.464 1.424.576-.96 1.68-1.424 2.592-1.424 2.256 0 2.96 1.552 2.96 3.6V23h-2.144v-4.288c0-1.056-.256-1.84-1.392-1.84-1.056 0-1.632.848-1.632 1.904V23h-2.144v-4.288c0-1.056-.24-1.84-1.392-1.84-1.088 0-1.632.928-1.632 1.984V23h-2.144zm18.144.16c-2.336 0-4.384-1.52-4.384-4.16 0-2.304 1.792-4.16 4.144-4.16 2.176 0 3.888 1.856 3.888 4.128 0 .384-.048.768-.048.768h-5.808c.256 1.104 1.168 1.632 2.224 1.632.768 0 1.568-.224 2.16-.624l.8 1.536a5.39 5.39 0 01-2.976.88zm-2.24-4.848h3.872c-.16-1.008-.96-1.68-1.936-1.68-.928 0-1.728.672-1.936 1.68zm10.147 4.848c-1.712 0-2.816-.672-3.264-1.088l.768-1.648c.544.416 1.296.848 2.496.848.496 0 1.312-.192 1.312-.672 0-.48-.688-.592-1.376-.784-1.584-.416-2.88-.944-2.88-2.48 0-1.632 1.6-2.496 3.104-2.496 1.312 0 2.144.32 2.976.8l-.72 1.6c-.784-.384-1.52-.56-2.224-.56-.496 0-.96.224-.96.56 0 .448.672.592 1.408.752 1.36.32 2.848.912 2.848 2.544 0 1.968-2 2.624-3.488 2.624z" fill="#091C29"/></svg>