<svg width="320" height="20" viewBox="0 0 320 20" fill="none" xmlns="http://www.w3.org/2000/svg"><path fill="#EF6129" d="M0 0h320v20H0z"/><path d="M16.854 14.132c-1.264 0-2.212-.312-2.844-.936-.632-.624-.948-1.556-.948-2.796V5.54h2.208v4.872c0 .616.128 1.084.384 1.404.256.312.656.468 1.2.468.544 0 .944-.156 1.2-.468.256-.32.384-.788.384-1.404V5.54h2.184v4.86c0 1.24-.312 2.172-.936 2.796-.624.624-1.568.936-2.832.936zM24.749 14V5.54h1.632l4.284 5.316h-.348V5.54h2.052V14h-1.632l-4.26-5.316h.348V14H24.75zm17.96 0V5.54h1.92l2.773 6.204h-.396l2.76-6.204h1.932V14h-2.004V8.816h.516L47.81 14h-1.248L44.15 8.816h.552V14H42.71zm13.21 0V5.54h6.072v1.692h-3.948v1.62h3.66v1.704h-3.66v1.74h3.948V14H55.92zm9.87 0V5.54h1.633l4.284 5.316h-.348V5.54h2.052V14h-1.632l-4.26-5.316h.348V14H65.79zm14.997.132c-.68 0-1.328-.08-1.944-.24-.608-.168-1.12-.392-1.536-.672l.624-1.716c.264.168.552.312.864.432.312.12.636.216.972.288.344.064.692.096 1.044.096.528 0 .892-.068 1.092-.204.208-.136.312-.312.312-.528a.526.526 0 00-.204-.444c-.136-.112-.392-.208-.768-.288l-1.464-.3c-.776-.16-1.356-.436-1.74-.828-.384-.4-.576-.92-.576-1.56 0-.56.148-1.044.444-1.452.304-.416.728-.736 1.272-.96.544-.232 1.18-.348 1.908-.348.6 0 1.164.084 1.692.252.528.16.96.384 1.296.672L83.45 7.94a3.573 3.573 0 00-1.08-.528 4.355 4.355 0 00-1.332-.192c-.464 0-.816.072-1.056.216-.232.136-.348.332-.348.588 0 .176.068.328.204.456.144.12.404.22.78.3l1.44.288c.776.152 1.356.424 1.74.816.392.392.588.904.588 1.536 0 .544-.152 1.02-.456 1.428-.296.408-.712.724-1.248.948-.536.224-1.168.336-1.896.336zM87.159 14l3.96-8.46h1.8L96.903 14h-2.22l-1.02-2.328.852.612h-4.968l.84-.612L89.379 14h-2.22zm4.848-6.18l-1.404 3.348-.336-.564h3.516l-.3.564-1.416-3.348h-.06zm8.737 8.424c-.144 0-.324-.008-.54-.024a4.522 4.522 0 01-.648-.096v-1.692c.152.032.304.052.456.06.152.016.272.024.36.024.36 0 .608-.1.744-.3.144-.2.216-.524.216-.972V5.54h2.22v7.704c0 .672-.096 1.232-.288 1.68-.184.448-.48.78-.888.996-.408.216-.952.324-1.632.324zM107.756 14V5.54h6.072v1.692h-3.948v1.62h3.66v1.704h-3.66v1.74h3.948V14h-6.072zm15.751-4.236c0-.88.172-1.644.516-2.292a3.663 3.663 0 011.476-1.524c.64-.36 1.396-.54 2.268-.54.88 0 1.64.18 2.28.54.64.36 1.132.868 1.476 1.524.352.648.528 1.412.528 2.292 0 .872-.176 1.636-.528 2.292a3.74 3.74 0 01-1.476 1.536c-.64.36-1.4.54-2.28.54-.872 0-1.628-.18-2.268-.54a3.843 3.843 0 01-1.476-1.536c-.344-.656-.516-1.42-.516-2.292zm2.316 0c0 .792.16 1.412.48 1.86.32.44.808.66 1.464.66.656 0 1.148-.22 1.476-.66.328-.448.492-1.068.492-1.86s-.164-1.408-.492-1.848c-.328-.44-.82-.66-1.476-.66s-1.144.22-1.464.66c-.32.432-.48 1.048-.48 1.848zM136.02 14V5.54h5.94v1.692h-3.72v1.716h3.444v1.692h-3.444V14h-2.22zm9.636 0V5.54h2.22V14h-2.22zm10.673.132c-.92 0-1.716-.18-2.388-.54a3.836 3.836 0 01-1.548-1.524c-.36-.656-.54-1.424-.54-2.304 0-.88.18-1.644.54-2.292a3.836 3.836 0 011.548-1.524c.672-.36 1.468-.54 2.388-.54.584 0 1.116.08 1.596.24.48.152.884.372 1.212.66l-.66 1.74c-.368-.264-.708-.448-1.02-.552a3.009 3.009 0 00-1.044-.168c-.72 0-1.276.212-1.668.636-.384.416-.576 1.016-.576 1.8 0 .792.192 1.4.576 1.824.392.416.948.624 1.668.624.392 0 .74-.052 1.044-.156.312-.112.652-.3 1.02-.564l.66 1.74a3.478 3.478 0 01-1.212.672 5.269 5.269 0 01-1.596.228zm6.607-.132V5.54h2.22V14h-2.22zm5.381 0l3.96-8.46h1.8l3.984 8.46h-2.22l-1.02-2.328.852.612h-4.968l.84-.612L170.537 14h-2.22zm4.848-6.18l-1.404 3.348-.336-.564h3.516l-.3.564-1.416-3.348h-.06zm8.059 6.18V5.54h2.22v6.624h3.624V14h-5.844zm15.686 0V5.54h3.408c1 0 1.844.172 2.532.516.688.336 1.208.82 1.56 1.452.36.624.54 1.376.54 2.256 0 .872-.18 1.624-.54 2.256-.352.632-.872 1.12-1.56 1.464-.688.344-1.532.516-2.532.516h-3.408zm2.22-1.8h1.044c.872 0 1.516-.2 1.932-.6.424-.4.636-1.012.636-1.836 0-.832-.212-1.444-.636-1.836-.416-.4-1.06-.6-1.932-.6h-1.044V12.2zm9.795 1.8V5.54h6.072v1.692h-3.948v1.62h3.66v1.704h-3.66v1.74h3.948V14h-6.072zm16.015 0V5.54h1.92l2.772 6.204h-.396l2.76-6.204h1.932V14h-2.004V8.816h.516L230.04 14h-1.248l-2.412-5.184h.552V14h-1.992zm13.21 0V5.54h6.072v1.692h-3.948v1.62h3.66v1.704h-3.66v1.74h3.948V14h-6.072zm9.87 0V5.54h3.408c1 0 1.844.172 2.532.516.688.336 1.208.82 1.56 1.452.36.624.54 1.376.54 2.256 0 .872-.18 1.624-.54 2.256-.352.632-.872 1.12-1.56 1.464-.688.344-1.532.516-2.532.516h-3.408zm2.22-1.8h1.044c.872 0 1.516-.2 1.932-.6.424-.4.636-1.012.636-1.836 0-.832-.212-1.444-.636-1.836-.416-.4-1.06-.6-1.932-.6h-1.044V12.2zm9.795 1.8V5.54h2.22V14h-2.22zm10.673.132c-.92 0-1.716-.18-2.388-.54a3.836 3.836 0 01-1.548-1.524c-.36-.656-.54-1.424-.54-2.304 0-.88.18-1.644.54-2.292a3.836 3.836 0 011.548-1.524c.672-.36 1.468-.54 2.388-.54.584 0 1.116.08 1.596.24.48.152.884.372 1.212.66l-.66 1.74c-.368-.264-.708-.448-1.02-.552a3.009 3.009 0 00-1.044-.168c-.72 0-1.276.212-1.668.636-.384.416-.576 1.016-.576 1.8 0 .792.192 1.4.576 1.824.392.416.948.624 1.668.624.392 0 .74-.052 1.044-.156.312-.112.652-.3 1.02-.564l.66 1.74a3.478 3.478 0 01-1.212.672 5.269 5.269 0 01-1.596.228zm5.423-.132l3.96-8.46h1.8l3.984 8.46h-2.22l-1.02-2.328.852.612h-4.968l.84-.612L278.351 14h-2.22zm4.848-6.18l-1.404 3.348-.336-.564h3.516l-.3.564-1.416-3.348h-.06zm8.058 6.18V5.54h3.996c.976 0 1.728.232 2.256.696.536.464.804 1.108.804 1.932 0 .552-.12 1.024-.36 1.416-.24.384-.588.684-1.044.9-.456.208-1 .312-1.632.312l.108-.3h.6c.352 0 .664.096.936.288.272.192.496.46.672.804L296.657 14h-2.424l-1.38-2.7a.699.699 0 00-.396-.36 1.61 1.61 0 00-.576-.096h-.624V14h-2.22zm2.22-4.728h1.392c.432 0 .76-.084.984-.252.224-.176.336-.436.336-.78 0-.336-.112-.588-.336-.756-.224-.168-.552-.252-.984-.252h-1.392v2.04zM300.232 14V5.54h6.072v1.692h-3.948v1.62h3.66v1.704h-3.66v1.74h3.948V14h-6.072z" fill="#fff"/></svg>