<svg width="256" height="144" viewBox="0 0 256 144" fill="none" xmlns="http://www.w3.org/2000/svg"><path d="M9.9 23.33c-1.7 0-3.32-.2-4.86-.6-1.52-.42-2.8-.98-3.84-1.68l1.56-4.29c.66.42 1.38.78 2.16 1.08.78.3 1.59.54 2.43.72.86.16 1.73.24 2.61.24 1.32 0 2.23-.17 2.73-.51.52-.34.78-.78.78-1.32 0-.48-.17-.85-.51-1.11-.34-.28-.98-.52-1.92-.72l-3.66-.75c-1.94-.4-3.39-1.09-4.35-2.07-.96-1-1.44-2.3-1.44-3.9 0-1.4.37-2.61 1.11-3.63.76-1.04 1.82-1.84 3.18-2.4 1.36-.58 2.95-.87 4.77-.87 1.5 0 2.91.21 4.23.63 1.32.4 2.4.96 3.24 1.68l-1.56 4.02c-.8-.58-1.7-1.02-2.7-1.32-1-.32-2.11-.48-3.33-.48-1.16 0-2.04.18-2.64.54-.58.34-.87.83-.87 1.47 0 .44.17.82.51 1.14.36.3 1.01.55 1.95.75l3.6.72c1.94.38 3.39 1.06 4.35 2.04.98.98 1.47 2.26 1.47 3.84 0 1.36-.38 2.55-1.14 3.57-.74 1.02-1.78 1.81-3.12 2.37s-2.92.84-4.74.84zM22.077 23V7.76h5.34V23h-5.34zm-.12-17.4V.8h5.61v4.8h-5.61zM39.991 23V11.93c0-.7-.02-1.4-.06-2.1-.04-.7-.1-1.39-.18-2.07h5.16l.57 4.68h-.81c.2-1.14.52-2.08.96-2.82.44-.74.99-1.29 1.65-1.65.66-.36 1.44-.54 2.34-.54.42 0 .73.02.93.06.22.02.45.08.69.18v4.68c-.5-.22-.9-.36-1.2-.42-.3-.06-.69-.09-1.17-.09-.82 0-1.49.15-2.01.45-.52.28-.9.72-1.14 1.32-.22.6-.33 1.37-.33 2.31V23h-5.4zm20.938.33c-2.76 0-4.91-.71-6.45-2.13-1.52-1.42-2.28-3.37-2.28-5.85 0-1.54.32-2.91.96-4.11.64-1.2 1.54-2.13 2.7-2.79 1.16-.68 2.52-1.02 4.08-1.02 1.54 0 2.82.34 3.84 1.02 1.04.66 1.82 1.58 2.34 2.76.52 1.16.78 2.51.78 4.05v1.14H56.67v-2.52h6.3l-.51.42c0-1.14-.22-1.98-.66-2.52-.42-.56-1.02-.84-1.8-.84-.9 0-1.59.34-2.07 1.02-.46.66-.69 1.66-.69 3v.54c0 1.34.33 2.32.99 2.94.66.62 1.61.93 2.85.93.8 0 1.55-.09 2.25-.27.72-.18 1.4-.47 2.04-.87l1.38 3.48c-.76.52-1.64.92-2.64 1.2-1 .28-2.06.42-3.18.42zm16.523 0c-1.68 0-3.15-.32-4.41-.96-1.26-.64-2.24-1.55-2.94-2.73-.7-1.2-1.05-2.63-1.05-4.29 0-1.66.35-3.08 1.05-4.26.7-1.18 1.68-2.08 2.94-2.7 1.26-.64 2.73-.96 4.41-.96 1.04 0 2.06.14 3.06.42 1 .28 1.81.68 2.43 1.2l-1.5 3.63c-.48-.4-1.03-.7-1.65-.9a5.12 5.12 0 00-1.77-.33c-1.1 0-1.96.33-2.58.99-.6.66-.9 1.63-.9 2.91 0 1.28.3 2.26.9 2.94.62.66 1.48.99 2.58.99.56 0 1.15-.1 1.77-.3.62-.22 1.17-.52 1.65-.9l1.5 3.63c-.64.5-1.46.9-2.46 1.2-.98.28-1.99.42-3.03.42zm8-.33V7.76h5.34V23h-5.34zm-.12-17.4V.8h5.61v4.8h-5.61zm19.053 17.73c-1.16 0-2.22-.28-3.18-.84-.94-.56-1.56-1.3-1.86-2.22h.33V23h-5.28V.92h5.34v9.42h-.36c.34-.88.97-1.58 1.89-2.1.94-.54 1.98-.81 3.12-.81 1.32 0 2.48.32 3.48.96 1.02.64 1.81 1.56 2.37 2.76.58 1.2.87 2.62.87 4.26 0 1.66-.29 3.08-.87 4.26-.56 1.18-1.35 2.09-2.37 2.73-1 .62-2.16.93-3.48.93zm-1.68-3.96c.88 0 1.6-.31 2.16-.93.58-.62.87-1.63.87-3.03s-.29-2.42-.87-3.06c-.56-.64-1.28-.96-2.16-.96-.9 0-1.63.32-2.19.96-.56.62-.84 1.63-.84 3.03s.28 2.42.84 3.06c.56.62 1.29.93 2.19.93zm19.336 3.96c-2.76 0-4.91-.71-6.45-2.13-1.52-1.42-2.28-3.37-2.28-5.85 0-1.54.32-2.91.96-4.11.64-1.2 1.54-2.13 2.7-2.79 1.16-.68 2.52-1.02 4.08-1.02 1.54 0 2.82.34 3.84 1.02 1.04.66 1.82 1.58 2.34 2.76.52 1.16.78 2.51.78 4.05v1.14h-10.23v-2.52h6.3l-.51.42c0-1.14-.22-1.98-.66-2.52-.42-.56-1.02-.84-1.8-.84-.9 0-1.59.34-2.07 1.02-.46.66-.69 1.66-.69 3v.54c0 1.34.33 2.32.99 2.94.66.62 1.61.93 2.85.93.8 0 1.55-.09 2.25-.27.72-.18 1.4-.47 2.04-.87l1.38 3.48c-.76.52-1.64.92-2.64 1.2-1 .28-2.06.42-3.18.42zm14.663 0c-1.42 0-2.71-.14-3.87-.42-1.14-.3-2.11-.7-2.91-1.2l1.29-3.48c.78.44 1.65.8 2.61 1.08.98.28 1.95.42 2.91.42.76 0 1.31-.11 1.65-.33.36-.24.54-.55.54-.93 0-.3-.11-.54-.33-.72-.22-.18-.55-.31-.99-.39l-3.24-.57c-1.28-.24-2.28-.71-3-1.41-.7-.72-1.05-1.65-1.05-2.79 0-1.04.28-1.94.84-2.7.56-.78 1.36-1.38 2.4-1.8 1.04-.44 2.27-.66 3.69-.66 1.16 0 2.26.13 3.3.39 1.06.26 1.98.67 2.76 1.23l-1.38 3.39c-.62-.42-1.35-.76-2.19-1.02-.82-.28-1.59-.42-2.31-.42-.86 0-1.47.13-1.83.39-.36.24-.54.54-.54.9 0 .28.1.52.3.72.2.18.52.31.96.39l3.24.57c1.32.22 2.33.68 3.03 1.38.72.68 1.08 1.61 1.08 2.79 0 1.1-.3 2.04-.9 2.82-.58.76-1.39 1.35-2.43 1.77-1.04.4-2.25.6-3.63.6zm24.208 0c-1.94 0-3.38-.53-4.32-1.59-.92-1.08-1.38-2.71-1.38-4.89V7.76h5.34v9.12c0 .8.16 1.4.48 1.8.34.38.85.57 1.53.57.76 0 1.38-.27 1.86-.81.5-.56.75-1.29.75-2.19V7.76h5.34V23h-5.19v-2.73h.45c-.48.98-1.13 1.74-1.95 2.28-.82.52-1.79.78-2.91.78zm13.234-.33V11.9a36.284 36.284 0 00-.24-4.14h5.16l.3 2.64h-.33c.5-.96 1.21-1.69 2.13-2.19.92-.52 1.96-.78 3.12-.78 1.78 0 3.11.53 3.99 1.59.9 1.04 1.35 2.67 1.35 4.89V23h-5.34v-8.85c0-.98-.17-1.66-.51-2.04-.34-.4-.83-.6-1.47-.6-.84 0-1.52.28-2.04.84-.52.54-.78 1.26-.78 2.16V23h-5.34zm24.992.33c-1.32 0-2.48-.31-3.48-.93-1-.64-1.79-1.56-2.37-2.76-.56-1.2-.84-2.62-.84-4.26 0-1.66.28-3.08.84-4.26.58-1.2 1.37-2.11 2.37-2.73 1-.64 2.16-.96 3.48-.96 1.18 0 2.24.28 3.18.84.96.56 1.59 1.29 1.89 2.19h-.3l.33-2.7h5.13l-.18 2.07c-.04.7-.06 1.39-.06 2.07V23h-5.28l-.06-2.58h.36c-.3.88-.93 1.59-1.89 2.13-.94.52-1.98.78-3.12.78zm1.71-3.96c.9 0 1.63-.31 2.19-.93.56-.64.84-1.66.84-3.06 0-1.4-.28-2.41-.84-3.03-.56-.64-1.29-.96-2.19-.96-.9 0-1.63.32-2.19.96-.56.62-.84 1.63-.84 3.03s.27 2.42.81 3.06c.56.62 1.3.93 2.22.93zM1.65 63V40.92h5.34V63H1.65zm8.943 0V40.92h5.34V63h-5.34zm14.942.33c-1.32 0-2.48-.31-3.48-.93-1-.64-1.79-1.56-2.37-2.76-.56-1.2-.84-2.62-.84-4.26 0-1.66.28-3.08.84-4.26.58-1.2 1.37-2.11 2.37-2.73 1-.64 2.16-.96 3.48-.96 1.18 0 2.24.28 3.18.84.96.56 1.59 1.29 1.89 2.19h-.3l.33-2.7h5.13l-.18 2.07c-.04.7-.06 1.39-.06 2.07V63h-5.28l-.06-2.58h.36c-.3.88-.93 1.59-1.89 2.13-.94.52-1.98.78-3.12.78zm1.71-3.96c.9 0 1.63-.31 2.19-.93.56-.64.84-1.66.84-3.06 0-1.4-.28-2.41-.84-3.03-.56-.64-1.29-.96-2.19-.96-.9 0-1.63.32-2.19.96-.56.62-.84 1.63-.84 3.03s.27 2.42.81 3.06c.56.62 1.3.93 2.22.93zM39.142 63V51.9a36.284 36.284 0 00-.24-4.14h5.16l.3 2.64h-.33c.44-.92 1.09-1.64 1.95-2.16.86-.54 1.87-.81 3.03-.81 1.12 0 2.07.27 2.85.81.8.52 1.38 1.35 1.74 2.49h-.51c.5-1.04 1.22-1.85 2.16-2.43.96-.58 2.03-.87 3.21-.87 1.74 0 3.04.53 3.9 1.59.86 1.04 1.29 2.67 1.29 4.89V63h-5.37v-8.91c0-.94-.14-1.6-.42-1.98-.28-.4-.73-.6-1.35-.6-.78 0-1.39.28-1.83.84-.42.56-.63 1.33-.63 2.31V63h-5.34v-8.91c0-.94-.15-1.6-.45-1.98-.28-.4-.72-.6-1.32-.6-.78 0-1.39.28-1.83.84-.42.56-.63 1.33-.63 2.31V63h-5.34zm34.015.33c-1.32 0-2.48-.31-3.48-.93-1-.64-1.79-1.56-2.37-2.76-.56-1.2-.84-2.62-.84-4.26 0-1.66.28-3.08.84-4.26.58-1.2 1.37-2.11 2.37-2.73 1-.64 2.16-.96 3.48-.96 1.18 0 2.24.28 3.18.84.96.56 1.59 1.29 1.89 2.19h-.3l.33-2.7h5.13l-.18 2.07c-.04.7-.06 1.39-.06 2.07V63h-5.28l-.06-2.58h.36c-.3.88-.93 1.59-1.89 2.13-.94.52-1.98.78-3.12.78zm1.71-3.96c.9 0 1.63-.31 2.19-.93.56-.64.84-1.66.84-3.06 0-1.4-.28-2.41-.84-3.03-.56-.64-1.29-.96-2.19-.96-.9 0-1.63.32-2.19.96-.56.62-.84 1.63-.84 3.03s.27 2.42.81 3.06c.56.62 1.3.93 2.22.93zm17.956 3.96c-1.3 0-2.46-.31-3.48-.93-1.02-.64-1.82-1.56-2.4-2.76-.58-1.2-.87-2.62-.87-4.26 0-1.66.28-3.08.84-4.26.58-1.2 1.38-2.11 2.4-2.73 1.04-.64 2.21-.96 3.51-.96 1.16 0 2.21.27 3.15.81.94.52 1.57 1.22 1.89 2.1h-.45v-9.42h5.34V63h-5.25v-2.73h.39c-.28.92-.9 1.66-1.86 2.22-.94.56-2.01.84-3.21.84zm1.71-3.96c.88 0 1.6-.31 2.16-.93.58-.64.87-1.66.87-3.06 0-1.4-.29-2.41-.87-3.03-.56-.64-1.28-.96-2.16-.96-.9 0-1.64.32-2.22.96-.56.62-.84 1.63-.84 3.03s.28 2.42.84 3.06c.58.62 1.32.93 2.22.93zm17.837 3.96c-1.32 0-2.48-.31-3.48-.93-1-.64-1.79-1.56-2.37-2.76-.56-1.2-.84-2.62-.84-4.26 0-1.66.28-3.08.84-4.26.58-1.2 1.37-2.11 2.37-2.73 1-.64 2.16-.96 3.48-.96 1.18 0 2.24.28 3.18.84.96.56 1.59 1.29 1.89 2.19h-.3l.33-2.7h5.13l-.18 2.07c-.04.7-.06 1.39-.06 2.07V63h-5.28l-.06-2.58h.36c-.3.88-.93 1.59-1.89 2.13-.94.52-1.98.78-3.12.78zm1.71-3.96c.9 0 1.63-.31 2.19-.93.56-.64.84-1.66.84-3.06 0-1.4-.28-2.41-.84-3.03-.56-.64-1.29-.96-2.19-.96-.9 0-1.63.32-2.19.96-.56.62-.84 1.63-.84 3.03s.27 2.42.81 3.06c.56.62 1.3.93 2.22.93zm14.057 8.28l-2.01-1.59c.78-.76 1.33-1.48 1.65-2.16.34-.68.51-1.41.51-2.19l1.14 1.29h-3.81v-5.46h5.55v3.45c0 1.26-.23 2.4-.69 3.42-.44 1.04-1.22 2.12-2.34 3.24zm20.895-4.32c-1.94 0-3.38-.53-4.32-1.59-.92-1.08-1.38-2.71-1.38-4.89v-9.09h5.34v9.12c0 .8.16 1.4.48 1.8.34.38.85.57 1.53.57.76 0 1.38-.27 1.86-.81.5-.56.75-1.29.75-2.19v-8.49h5.34V63h-5.19v-2.73h.45c-.48.98-1.13 1.74-1.95 2.28-.82.52-1.79.78-2.91.78zm13.235-.33V51.9a36.284 36.284 0 00-.24-4.14h5.16l.3 2.64h-.33c.5-.96 1.21-1.69 2.13-2.19.92-.52 1.96-.78 3.12-.78 1.78 0 3.11.53 3.99 1.59.9 1.04 1.35 2.67 1.35 4.89V63h-5.34v-8.85c0-.98-.17-1.66-.51-2.04-.34-.4-.83-.6-1.47-.6-.84 0-1.52.28-2.04.84-.52.54-.78 1.26-.78 2.16V63h-5.34zM1.65 103V91.9a36.284 36.284 0 00-.24-4.14h5.16l.3 2.64h-.33c.44-.92 1.09-1.64 1.95-2.16.86-.54 1.87-.81 3.03-.81 1.12 0 2.07.27 2.85.81.8.52 1.38 1.35 1.74 2.49h-.51c.5-1.04 1.22-1.85 2.16-2.43.96-.58 2.03-.87 3.21-.87 1.74 0 3.04.53 3.9 1.59.86 1.04 1.29 2.67 1.29 4.89V103h-5.37v-8.91c0-.94-.14-1.6-.42-1.98-.28-.4-.73-.6-1.35-.6-.78 0-1.39.28-1.83.84-.42.56-.63 1.33-.63 2.31V103h-5.34v-8.91c0-.94-.15-1.6-.45-1.98-.28-.4-.72-.6-1.32-.6-.78 0-1.39.28-1.83.84-.42.56-.63 1.33-.63 2.31V103H1.65zm36.055.33c-2.76 0-4.91-.71-6.45-2.13-1.52-1.42-2.28-3.37-2.28-5.85 0-1.54.32-2.91.96-4.11.64-1.2 1.54-2.13 2.7-2.79 1.16-.68 2.52-1.02 4.08-1.02 1.54 0 2.82.34 3.84 1.02 1.04.66 1.82 1.58 2.34 2.76.52 1.16.78 2.51.78 4.05v1.14h-10.23v-2.52h6.3l-.51.42c0-1.14-.22-1.98-.66-2.52-.42-.56-1.02-.84-1.8-.84-.9 0-1.59.34-2.07 1.02-.46.66-.69 1.66-.69 3v.54c0 1.34.33 2.32.99 2.94.66.62 1.61.93 2.85.93.8 0 1.55-.09 2.25-.27.72-.18 1.4-.47 2.04-.87l1.38 3.48c-.76.52-1.64.92-2.64 1.2-1 .28-2.06.42-3.18.42zm8.813-.33V91.9a36.284 36.284 0 00-.24-4.14h5.16l.3 2.64h-.33c.5-.96 1.21-1.69 2.13-2.19.92-.52 1.96-.78 3.12-.78 1.78 0 3.11.53 3.99 1.59.9 1.04 1.35 2.67 1.35 4.89V103h-5.34v-8.85c0-.98-.17-1.66-.51-2.04-.34-.4-.83-.6-1.47-.6-.84 0-1.52.28-2.04.84-.52.54-.78 1.26-.78 2.16V103h-5.34zm24.841.33c-1.42 0-2.71-.14-3.87-.42-1.14-.3-2.11-.7-2.91-1.2l1.29-3.48c.78.44 1.65.8 2.61 1.08.98.28 1.95.42 2.91.42.76 0 1.31-.11 1.65-.33.36-.24.54-.55.54-.93 0-.3-.11-.54-.33-.72-.22-.18-.55-.31-.99-.39l-3.24-.57c-1.28-.24-2.28-.71-3-1.41-.7-.72-1.05-1.65-1.05-2.79 0-1.04.28-1.94.84-2.7.56-.78 1.36-1.38 2.4-1.8 1.04-.44 2.27-.66 3.69-.66 1.16 0 2.26.13 3.3.39 1.06.26 1.98.67 2.76 1.23l-1.38 3.39c-.62-.42-1.35-.76-2.19-1.02-.82-.28-1.59-.42-2.31-.42-.86 0-1.47.13-1.83.39-.36.24-.54.54-.54.9 0 .28.1.52.3.72.2.18.52.31.96.39l3.24.57c1.32.22 2.33.68 3.03 1.38.72.68 1.08 1.61 1.08 2.79 0 1.1-.3 2.04-.9 2.82-.58.76-1.39 1.35-2.43 1.77-1.04.4-2.25.6-3.63.6zm15.626 0c-1.32 0-2.48-.31-3.48-.93-1-.64-1.79-1.56-2.37-2.76-.56-1.2-.84-2.62-.84-4.26 0-1.66.28-3.08.84-4.26.58-1.2 1.37-2.11 2.37-2.73 1-.64 2.16-.96 3.48-.96 1.18 0 2.24.28 3.18.84.96.56 1.59 1.29 1.89 2.19h-.3l.33-2.7h5.13l-.18 2.07c-.04.7-.06 1.39-.06 2.07V103h-5.28l-.06-2.58h.36c-.3.88-.93 1.59-1.89 2.13-.94.52-1.98.78-3.12.78zm1.71-3.96c.9 0 1.63-.31 2.19-.93.56-.64.84-1.66.84-3.06 0-1.4-.28-2.41-.84-3.03-.56-.64-1.29-.96-2.19-.96-.9 0-1.63.32-2.19.96-.56.62-.84 1.63-.84 3.03s.27 2.42.81 3.06c.56.62 1.3.93 2.22.93zm10.936 10.38c-.48 0-.96-.03-1.44-.09s-.94-.18-1.38-.36v-4.11c.3.1.59.17.87.21.26.04.54.06.84.06.58 0 1.06-.17 1.44-.51.4-.32.6-.91.6-1.77V87.76h5.34v15.6c0 2.1-.5 3.69-1.5 4.77-.98 1.08-2.57 1.62-4.77 1.62zm.78-24.15v-4.8h5.61v4.8h-5.61zm17.163 17.73c-2.76 0-4.91-.71-6.45-2.13-1.52-1.42-2.28-3.37-2.28-5.85 0-1.54.32-2.91.96-4.11.64-1.2 1.54-2.13 2.7-2.79 1.16-.68 2.52-1.02 4.08-1.02 1.54 0 2.82.34 3.84 1.02 1.04.66 1.82 1.58 2.34 2.76.52 1.16.78 2.51.78 4.05v1.14h-10.23v-2.52h6.3l-.51.42c0-1.14-.22-1.98-.66-2.52-.42-.56-1.02-.84-1.8-.84-.9 0-1.59.34-2.07 1.02-.46.66-.69 1.66-.69 3v.54c0 1.34.33 2.32.99 2.94.66.62 1.61.93 2.85.93.8 0 1.55-.09 2.25-.27.72-.18 1.4-.47 2.04-.87l1.38 3.48c-.76.52-1.64.92-2.64 1.2-1 .28-2.06.42-3.18.42zm23.845 0c-1.3 0-2.46-.31-3.48-.93-1.02-.64-1.82-1.56-2.4-2.76-.58-1.2-.87-2.62-.87-4.26 0-1.66.28-3.08.84-4.26.58-1.2 1.38-2.11 2.4-2.73 1.04-.64 2.21-.96 3.51-.96 1.16 0 2.21.27 3.15.81.94.52 1.57 1.22 1.89 2.1h-.45v-9.42h5.34V103h-5.25v-2.73h.39c-.28.92-.9 1.66-1.86 2.22-.94.56-2.01.84-3.21.84zm1.71-3.96c.88 0 1.6-.31 2.16-.93.58-.64.87-1.66.87-3.06 0-1.4-.29-2.41-.87-3.03-.56-.64-1.28-.96-2.16-.96-.9 0-1.64.32-2.22.96-.56.62-.84 1.63-.84 3.03s.28 2.42.84 3.06c.58.62 1.32.93 2.22.93zm19.876 3.96c-2.76 0-4.91-.71-6.45-2.13-1.52-1.42-2.28-3.37-2.28-5.85 0-1.54.32-2.91.96-4.11.64-1.2 1.54-2.13 2.7-2.79 1.16-.68 2.52-1.02 4.08-1.02 1.54 0 2.82.34 3.84 1.02 1.04.66 1.82 1.58 2.34 2.76.52 1.16.78 2.51.78 4.05v1.14h-10.23v-2.52h6.3l-.51.42c0-1.14-.22-1.98-.66-2.52-.42-.56-1.02-.84-1.8-.84-.9 0-1.59.34-2.07 1.02-.46.66-.69 1.66-.69 3v.54c0 1.34.33 2.32.99 2.94.66.62 1.61.93 2.85.93.8 0 1.55-.09 2.25-.27.72-.18 1.4-.47 2.04-.87l1.38 3.48c-.76.52-1.64.92-2.64 1.2-1 .28-2.06.42-3.18.42zm25.585 0c-2.16 0-3.79-.51-4.89-1.53-1.08-1.04-1.62-2.61-1.62-4.71v-5.4h-2.85v-3.93h2.85v-3.6l5.34-1.26v4.86h3.72v3.93h-3.72v5.19c0 .88.2 1.47.6 1.77.4.28.88.42 1.44.42.34 0 .63-.02.87-.06.26-.06.53-.14.81-.24v4.11c-.44.18-.88.3-1.32.36-.42.06-.83.09-1.23.09zm12.815 0c-2.76 0-4.91-.71-6.45-2.13-1.52-1.42-2.28-3.37-2.28-5.85 0-1.54.32-2.91.96-4.11.64-1.2 1.54-2.13 2.7-2.79 1.16-.68 2.52-1.02 4.08-1.02 1.54 0 2.82.34 3.84 1.02 1.04.66 1.82 1.58 2.34 2.76.52 1.16.78 2.51.78 4.05v1.14h-10.23v-2.52h6.3l-.51.42c0-1.14-.22-1.98-.66-2.52-.42-.56-1.02-.84-1.8-.84-.9 0-1.59.34-2.07 1.02-.46.66-.69 1.66-.69 3v.54c0 1.34.33 2.32.99 2.94.66.62 1.61.93 2.85.93.8 0 1.55-.09 2.25-.27.72-.18 1.4-.47 2.04-.87l1.38 3.48c-.76.52-1.64.92-2.64 1.2-1 .28-2.06.42-3.18.42zm6.084-.33l7.38-9v2.31l-6.96-8.55h6.24l3.78 4.95h-1.92l3.81-4.95h6.21l-6.96 8.58v-2.4l7.41 9.06h-6.3l-4.17-5.37h1.92l-4.2 5.37h-6.24zm27.792.33c-2.16 0-3.79-.51-4.89-1.53-1.08-1.04-1.62-2.61-1.62-4.71v-5.4h-2.85v-3.93h2.85v-3.6l5.34-1.26v4.86h3.72v3.93h-3.72v5.19c0 .88.2 1.47.6 1.77.4.28.88.42 1.44.42.34 0 .63-.02.87-.06.26-.06.53-.14.81-.24v4.11c-.44.18-.88.3-1.32.36-.42.06-.83.09-1.23.09zm12.395 0c-1.7 0-3.17-.32-4.41-.96-1.24-.64-2.2-1.55-2.88-2.73-.68-1.2-1.02-2.62-1.02-4.26 0-1.66.34-3.08 1.02-4.26.68-1.18 1.64-2.09 2.88-2.73 1.24-.64 2.71-.96 4.41-.96 1.68 0 3.14.32 4.38.96 1.24.64 2.2 1.56 2.88 2.76.68 1.18 1.02 2.59 1.02 4.23 0 1.62-.34 3.03-1.02 4.23a6.847 6.847 0 01-2.88 2.76c-1.24.64-2.7.96-4.38.96zm0-3.96c.88 0 1.58-.31 2.1-.93.52-.64.78-1.66.78-3.06 0-1.4-.26-2.41-.78-3.03-.52-.64-1.22-.96-2.1-.96-.9 0-1.61.32-2.13.96-.52.62-.78 1.63-.78 3.03s.26 2.42.78 3.06c.52.62 1.23.93 2.13.93zM9.27 143.33c-1.7 0-3.17-.32-4.41-.96-1.24-.64-2.2-1.55-2.88-2.73-.68-1.2-1.02-2.62-1.02-4.26 0-1.66.34-3.08 1.02-4.26.68-1.18 1.64-2.09 2.88-2.73 1.24-.64 2.71-.96 4.41-.96 1.68 0 3.14.32 4.38.96 1.24.64 2.2 1.56 2.88 2.76.68 1.18 1.02 2.59 1.02 4.23 0 1.62-.34 3.03-1.02 4.23a6.847 6.847 0 01-2.88 2.76c-1.24.64-2.7.96-4.38.96zm0-3.96c.88 0 1.58-.31 2.1-.93.52-.64.78-1.66.78-3.06 0-1.4-.26-2.41-.78-3.03-.52-.64-1.22-.96-2.1-.96-.9 0-1.61.32-2.13.96-.52.62-.78 1.63-.78 3.03s.26 2.42.78 3.06c.52.62 1.23.93 2.13.93zm25.777 3.96c-1.94 0-3.38-.53-4.32-1.59-.92-1.08-1.38-2.71-1.38-4.89v-9.09h5.34v9.12c0 .8.16 1.4.48 1.8.34.38.85.57 1.53.57.76 0 1.38-.27 1.86-.81.5-.56.75-1.29.75-2.19v-8.49h5.34V143h-5.19v-2.73h.45c-.48.98-1.13 1.74-1.95 2.28-.82.52-1.79.78-2.91.78zm13.235-.33v-11.1a36.284 36.284 0 00-.24-4.14h5.16l.3 2.64h-.33c.5-.96 1.21-1.69 2.13-2.19.92-.52 1.96-.78 3.12-.78 1.78 0 3.11.53 3.99 1.59.9 1.04 1.35 2.67 1.35 4.89V143h-5.34v-8.85c0-.98-.17-1.66-.51-2.04-.34-.4-.83-.6-1.47-.6-.84 0-1.52.28-2.04.84-.52.54-.78 1.26-.78 2.16V143h-5.34zm36.004.33c-2.76 0-4.91-.71-6.45-2.13-1.52-1.42-2.28-3.37-2.28-5.85 0-1.54.32-2.91.96-4.11.64-1.2 1.54-2.13 2.7-2.79 1.16-.68 2.52-1.02 4.08-1.02 1.54 0 2.82.34 3.84 1.02 1.04.66 1.82 1.58 2.34 2.76.52 1.16.78 2.51.78 4.05v1.14h-10.23v-2.52h6.3l-.51.42c0-1.14-.22-1.98-.66-2.52-.42-.56-1.02-.84-1.8-.84-.9 0-1.59.34-2.07 1.02-.46.66-.69 1.66-.69 3v.54c0 1.34.33 2.32.99 2.94.66.62 1.61.93 2.85.93.8 0 1.55-.09 2.25-.27.72-.18 1.4-.47 2.04-.87l1.38 3.48c-.76.52-1.64.92-2.64 1.2-1 .28-2.06.42-3.18.42zm8.812-.33v-11.1a36.284 36.284 0 00-.24-4.14h5.16l.3 2.64h-.33c.44-.92 1.09-1.64 1.95-2.16.86-.54 1.87-.81 3.03-.81 1.12 0 2.07.27 2.85.81.8.52 1.38 1.35 1.74 2.49h-.51c.5-1.04 1.22-1.85 2.16-2.43.96-.58 2.03-.87 3.21-.87 1.74 0 3.04.53 3.9 1.59.86 1.04 1.29 2.67 1.29 4.89V143h-5.37v-8.91c0-.94-.14-1.6-.42-1.98-.28-.4-.73-.6-1.35-.6-.78 0-1.39.28-1.83.84-.42.56-.63 1.33-.63 2.31V143h-5.34v-8.91c0-.94-.15-1.6-.45-1.98-.28-.4-.72-.6-1.32-.6-.78 0-1.39.28-1.83.84-.42.56-.63 1.33-.63 2.31V143h-5.34zm34.015.33c-1.32 0-2.48-.31-3.48-.93-1-.64-1.79-1.56-2.37-2.76-.56-1.2-.84-2.62-.84-4.26 0-1.66.28-3.08.84-4.26.58-1.2 1.37-2.11 2.37-2.73 1-.64 2.16-.96 3.48-.96 1.18 0 2.24.28 3.18.84.96.56 1.59 1.29 1.89 2.19h-.3l.33-2.7h5.13l-.18 2.07c-.04.7-.06 1.39-.06 2.07V143h-5.28l-.06-2.58h.36c-.3.88-.93 1.59-1.89 2.13-.94.52-1.98.78-3.12.78zm1.71-3.96c.9 0 1.63-.31 2.19-.93.56-.64.84-1.66.84-3.06 0-1.4-.28-2.41-.84-3.03-.56-.64-1.29-.96-2.19-.96-.9 0-1.63.32-2.19.96-.56.62-.84 1.63-.84 3.03s.27 2.42.81 3.06c.56.62 1.3.93 2.22.93zM140.72 143v-15.24h5.34V143h-5.34zm-.12-17.4v-4.8h5.61v4.8h-5.61zm9.062 17.4v-22.08h5.34V143h-5.34zm8.583 0v-5.46h5.55V143h-5.55zm8.474 0v-5.46h5.55V143h-5.55zm8.474 0v-5.46h5.55V143h-5.55z" fill="#fff"/></svg>