<svg width="201" height="77" viewBox="0 0 201 77" fill="none" xmlns="http://www.w3.org/2000/svg"><path d="M.674 14.688c0-.438.16-.817.48-1.137.321-.32.704-.48 1.15-.48.444 0 .827.16 1.148.48.32.32.48.703.48 1.148 0 .453-.16.84-.48 1.16a1.562 1.562 0 01-1.149.47c-.46 0-.848-.157-1.16-.47-.313-.312-.469-.703-.469-1.171zm6.206 0c0-.438.16-.817.481-1.137.32-.32.703-.48 1.148-.48.446 0 .829.16 1.149.48.32.32.48.703.48 1.148 0 .453-.16.84-.48 1.16a1.562 1.562 0 01-1.149.47c-.46 0-.847-.157-1.16-.47-.312-.312-.469-.703-.469-1.171zm6.207 0c0-.438.16-.817.48-1.137.32-.32.703-.48 1.149-.48.445 0 .828.16 1.148.48.32.32.48.703.48 1.148 0 .453-.16.84-.48 1.16a1.562 1.562 0 01-1.148.47c-.461 0-.848-.157-1.16-.47-.313-.312-.47-.703-.47-1.171zm8.433 7.523h-2.637V4.586h2.637v1.242c1.039-1.039 2.218-1.558 3.539-1.558 1.57 0 2.863.578 3.878 1.734 1.032 1.148 1.547 2.598 1.547 4.348 0 1.71-.511 3.136-1.535 4.277-1.015 1.133-2.297 1.7-3.844 1.7-1.335 0-2.53-.536-3.585-1.606v7.488zm6.27-11.848c0-1.093-.298-1.984-.892-2.672-.601-.695-1.359-1.043-2.273-1.043-.969 0-1.754.336-2.355 1.008-.602.672-.903 1.555-.903 2.649 0 1.07.301 1.953.902 2.648.594.68 1.376 1.02 2.344 1.02.914 0 1.668-.344 2.262-1.032.61-.687.914-1.546.914-2.578zm13.898-5.777h2.648V16h-2.648v-1.195c-1.086 1.015-2.254 1.523-3.504 1.523-1.578 0-2.883-.57-3.914-1.71-1.024-1.165-1.536-2.618-1.536-4.36 0-1.711.512-3.137 1.535-4.278 1.024-1.14 2.305-1.71 3.844-1.71 1.328 0 2.52.546 3.575 1.64V4.586zm-6.258 5.672c0 1.094.293 1.984.879 2.672.601.695 1.359 1.043 2.273 1.043.977 0 1.766-.336 2.367-1.008.602-.695.903-1.578.903-2.649 0-1.07-.301-1.953-.903-2.648-.601-.68-1.383-1.02-2.343-1.02-.907 0-1.665.344-2.274 1.032-.602.695-.902 1.554-.902 2.578zm12.234-5.672h2.637v1.02c.484-.508.914-.856 1.289-1.043.383-.196.836-.293 1.36-.293.694 0 1.421.226 2.179.68l-1.207 2.413c-.5-.36-.988-.539-1.465-.539-1.438 0-2.156 1.086-2.156 3.258V16h-2.637V4.586zm17.227 0h2.648V16h-2.648v-1.195c-1.086 1.015-2.254 1.523-3.504 1.523-1.578 0-2.883-.57-3.914-1.71-1.024-1.165-1.535-2.618-1.535-4.36 0-1.711.511-3.137 1.535-4.278 1.023-1.14 2.304-1.71 3.843-1.71 1.328 0 2.52.546 3.575 1.64V4.586zm-6.258 5.672c0 1.094.293 1.984.879 2.672.601.695 1.36 1.043 2.273 1.043.977 0 1.766-.336 2.367-1.008.602-.695.903-1.578.903-2.649 0-1.07-.301-1.953-.903-2.648-.601-.68-1.383-1.02-2.343-1.02-.907 0-1.664.344-2.274 1.032-.601.695-.902 1.554-.902 2.578zm28.054-5.672h2.649V16h-2.648v-1.195c-1.086 1.015-2.254 1.523-3.504 1.523-1.578 0-2.883-.57-3.915-1.71-1.023-1.165-1.535-2.618-1.535-4.36 0-1.711.512-3.137 1.535-4.278 1.024-1.14 2.305-1.71 3.844-1.71 1.328 0 2.52.546 3.575 1.64V4.586zm-6.257 5.672c0 1.094.293 1.984.879 2.672.601.695 1.359 1.043 2.273 1.043.977 0 1.766-.336 2.367-1.008.602-.695.903-1.578.903-2.649 0-1.07-.301-1.953-.903-2.648-.601-.68-1.383-1.02-2.343-1.02-.907 0-1.665.344-2.274 1.032-.601.695-.902 1.554-.902 2.578zM99.297 6.53l-2.18 1.16c-.344-.703-.77-1.054-1.277-1.054a.867.867 0 00-.621.246.785.785 0 00-.258.61c0 .437.508.87 1.523 1.3 1.399.602 2.34 1.156 2.825 1.664.484.508.726 1.191.726 2.05 0 1.102-.406 2.024-1.219 2.766-.789.704-1.742 1.055-2.859 1.055-1.914 0-3.27-.933-4.066-2.8l2.25-1.044c.312.547.55.895.715 1.043.32.297.703.446 1.148.446.89 0 1.336-.407 1.336-1.22 0-.468-.344-.905-1.031-1.312a37.27 37.27 0 00-.797-.386 73.8 73.8 0 01-.809-.387c-.766-.375-1.305-.75-1.617-1.125-.398-.477-.598-1.09-.598-1.84 0-.992.34-1.812 1.02-2.46.695-.65 1.539-.973 2.531-.973 1.461 0 2.547.753 3.258 2.261zm13.512 4.383h-8.18c.07.938.375 1.684.914 2.238.539.547 1.23.82 2.074.82.656 0 1.199-.156 1.629-.468.422-.313.902-.89 1.442-1.734l2.226 1.242a9.075 9.075 0 01-1.09 1.511 6.053 6.053 0 01-1.23 1.032c-.438.265-.91.46-1.418.586a6.908 6.908 0 01-1.653.187c-1.703 0-3.07-.547-4.101-1.64-1.031-1.102-1.547-2.563-1.547-4.383 0-1.805.5-3.266 1.5-4.383 1.008-1.102 2.344-1.652 4.008-1.652 1.679 0 3.008.535 3.984 1.605.969 1.063 1.453 2.535 1.453 4.418l-.011.621zm-2.707-2.156c-.368-1.406-1.254-2.11-2.661-2.11-.32 0-.621.051-.902.153a2.486 2.486 0 00-.773.422c-.227.18-.422.398-.586.656a3.08 3.08 0 00-.375.879h5.297zm16.64 6.973c0 .539-.019 1.011-.058 1.417a9.376 9.376 0 01-.141 1.09c-.188.86-.555 1.598-1.102 2.215-1.031 1.188-2.449 1.781-4.253 1.781-1.524 0-2.778-.41-3.762-1.23-1.016-.844-1.602-2.012-1.758-3.504h2.648c.102.563.27.996.504 1.3.547.712 1.344 1.067 2.391 1.067 1.93 0 2.894-1.183 2.894-3.55v-1.594c-1.046 1.07-2.253 1.605-3.621 1.605-1.554 0-2.828-.562-3.82-1.687-1-1.141-1.5-2.567-1.5-4.278 0-1.664.465-3.078 1.395-4.242 1-1.234 2.32-1.851 3.961-1.851 1.437 0 2.632.535 3.585 1.605v-1.29h2.637V15.73zm-2.531-5.415c0-1.109-.297-1.996-.891-2.66-.601-.68-1.371-1.02-2.308-1.02-1 0-1.789.372-2.367 1.114-.524.664-.786 1.523-.786 2.578 0 1.04.262 1.89.786 2.555.57.726 1.359 1.09 2.367 1.09s1.804-.368 2.39-1.102c.539-.664.809-1.516.809-2.555zm8.496-5.73v6.55c0 1.891.746 2.837 2.238 2.837 1.493 0 2.239-.946 2.239-2.836V4.586h2.636v6.61c0 .913-.113 1.702-.34 2.367-.218.593-.597 1.128-1.136 1.605-.891.773-2.024 1.16-3.399 1.16-1.367 0-2.496-.387-3.386-1.16-.547-.477-.934-1.012-1.161-1.605-.218-.532-.328-1.32-.328-2.368v-6.61h2.637zm10.441 0h2.637v1.02c.485-.508.914-.856 1.289-1.043.383-.196.836-.293 1.36-.293.695 0 1.421.226 2.179.68l-1.207 2.413c-.5-.36-.988-.539-1.465-.539-1.437 0-2.156 1.086-2.156 3.258V16h-2.637V4.586zm17.227 0h2.648V16h-2.648v-1.195c-1.086 1.015-2.254 1.523-3.504 1.523-1.578 0-2.883-.57-3.914-1.71-1.023-1.165-1.535-2.618-1.535-4.36 0-1.711.512-3.137 1.535-4.278 1.023-1.14 2.305-1.71 3.844-1.71 1.328 0 2.519.546 3.574 1.64V4.586zm-6.258 5.672c0 1.094.293 1.984.879 2.672.602.695 1.359 1.043 2.274 1.043.976 0 1.765-.336 2.367-1.008.601-.695.902-1.578.902-2.649 0-1.07-.301-1.953-.902-2.648-.602-.68-1.383-1.02-2.344-1.02-.906 0-1.664.344-2.273 1.032-.602.695-.903 1.554-.903 2.578zm12.235-5.672h2.636v1.02c.485-.508.914-.856 1.289-1.043.383-.196.836-.293 1.36-.293.695 0 1.422.226 2.179.68l-1.207 2.413c-.5-.36-.988-.539-1.464-.539-1.438 0-2.157 1.086-2.157 3.258V16h-2.636V4.586zm12.562 2.46V16h-2.637V7.047h-1.125V4.586h1.125V.402h2.637v4.184h2.051v2.46h-2.051zm14.449 3.868h-8.179c.07.938.375 1.684.914 2.238.539.547 1.23.82 2.074.82.656 0 1.199-.156 1.629-.468.422-.313.902-.89 1.441-1.734l2.227 1.242a9.075 9.075 0 01-1.09 1.511 6.031 6.031 0 01-1.231 1.032c-.437.265-.91.46-1.418.586a6.893 6.893 0 01-1.652.187c-1.703 0-3.07-.547-4.101-1.64-1.032-1.102-1.547-2.563-1.547-4.383 0-1.805.5-3.266 1.5-4.383 1.008-1.102 2.343-1.652 4.008-1.652 1.679 0 3.007.535 3.984 1.605.969 1.063 1.453 2.535 1.453 4.418l-.012.621zm-2.707-2.156c-.367-1.406-1.254-2.11-2.66-2.11-.32 0-.621.051-.902.153a2.491 2.491 0 00-.774.422c-.226.18-.422.398-.586.656a3.08 3.08 0 00-.375.879h5.297zM71.156 52.47v-7.8c-1.091 1.114-2.336 1.672-3.736 1.672-1.603 0-2.934-.59-3.992-1.77-1.066-1.188-1.599-2.674-1.599-4.456 0-1.806.533-3.316 1.6-4.529 1.073-1.204 2.42-1.806 4.04-1.806 1.375 0 2.604.54 3.686 1.623V34.11h2.76v18.36h-2.76zm-6.52-12.476c0 1.148.31 2.08.928 2.796.619.732 1.404 1.098 2.356 1.098 1.01 0 1.827-.35 2.454-1.05.635-.708.952-1.627.952-2.758 0-1.115-.313-2.035-.94-2.76-.626-.707-1.44-1.061-2.441-1.061-.944 0-1.734.358-2.368 1.074-.627.724-.94 1.611-.94 2.661zM80.42 34.11v6.824c0 1.97.778 2.954 2.332 2.954 1.554 0 2.332-.984 2.332-2.954V34.11h2.746v6.885c0 .952-.118 1.774-.354 2.466-.228.618-.623 1.176-1.184 1.672-.928.806-2.108 1.209-3.54 1.209-1.424 0-2.6-.403-3.528-1.209-.57-.496-.972-1.054-1.208-1.672-.228-.553-.342-1.375-.342-2.466V34.11h2.746zm21.705 6.592h-8.521c.073.977.39 1.754.952 2.332.562.57 1.282.854 2.16.854.684 0 1.25-.163 1.698-.488.439-.326.94-.928 1.501-1.807l2.319 1.294a9.432 9.432 0 01-1.135 1.575c-.399.431-.826.79-1.282 1.074-.455.277-.948.48-1.477.61a7.19 7.19 0 01-1.72.196c-1.775 0-3.2-.57-4.273-1.71-1.075-1.147-1.612-2.668-1.612-4.565 0-1.88.521-3.401 1.563-4.565 1.05-1.148 2.441-1.721 4.175-1.721 1.75 0 3.133.557 4.15 1.672 1.009 1.107 1.514 2.64 1.514 4.602l-.012.647zm-2.82-2.246c-.383-1.465-1.306-2.197-2.771-2.197-.334 0-.647.053-.94.158a2.592 2.592 0 00-.806.44c-.236.187-.44.415-.61.684-.171.268-.301.573-.39.915h5.517zm24.052-1.724c-.168-.71-.513-1.279-1.036-1.708-.523-.43-1.157-.644-1.904-.644-.784 0-1.428.205-1.932.616-.485.41-.793.99-.924 1.736h5.796zm-5.936 2.94c0 2.184 1.027 3.276 3.08 3.276 1.101 0 1.932-.448 2.492-1.344h4.9c-.989 3.285-3.463 4.928-7.42 4.928-1.213 0-2.324-.177-3.332-.532-1.008-.373-1.876-.896-2.604-1.568a7.022 7.022 0 01-1.652-2.408c-.392-.933-.588-1.979-.588-3.136 0-1.195.187-2.268.56-3.22.373-.97.905-1.792 1.596-2.464a6.934 6.934 0 012.492-1.54c.989-.373 2.1-.56 3.332-.56 1.213 0 2.305.187 3.276.56.971.355 1.792.877 2.464 1.568.672.69 1.185 1.54 1.54 2.548.355.99.532 2.11.532 3.36v.532h-10.668zm23.085-4.34c-.933-.485-1.848-.728-2.744-.728-.467 0-.849.093-1.148.28-.28.187-.42.439-.42.756 0 .168.019.308.056.42a.921.921 0 00.308.28c.168.093.401.177.7.252.317.075.728.168 1.232.28 1.4.28 2.445.784 3.136 1.512.691.71 1.036 1.624 1.036 2.744 0 .84-.168 1.596-.504 2.268a4.96 4.96 0 01-1.4 1.708c-.597.448-1.316.793-2.156 1.036-.84.261-1.764.392-2.772.392-1.941 0-3.855-.55-5.74-1.652l1.848-3.584c1.419.97 2.763 1.456 4.032 1.456.467 0 .849-.103 1.148-.308.299-.205.448-.467.448-.784 0-.187-.028-.336-.084-.448-.037-.13-.131-.243-.28-.336-.149-.112-.373-.205-.672-.28a9.668 9.668 0 00-1.12-.28c-1.568-.317-2.669-.784-3.304-1.4-.616-.635-.924-1.503-.924-2.604 0-.803.149-1.521.448-2.156a4.467 4.467 0 011.288-1.652c.56-.448 1.232-.793 2.016-1.036.803-.243 1.689-.364 2.66-.364 1.587 0 3.127.308 4.62.924l-1.708 3.304zm10.765.532V46h-5.068V35.864h-1.68v-4.228h1.68v-4.312h5.068v4.312h2.884v4.228h-2.884zm9.767 2.912c0 .467.084.905.252 1.316.168.392.392.737.672 1.036.298.299.644.532 1.036.7.41.168.849.252 1.316.252.448 0 .868-.084 1.26-.252a2.91 2.91 0 001.036-.7c.298-.299.532-.644.7-1.036.186-.392.28-.812.28-1.26 0-.448-.094-.868-.28-1.26a3.209 3.209 0 00-.7-1.064 2.91 2.91 0 00-1.036-.7 3.165 3.165 0 00-1.26-.252c-.467 0-.906.084-1.316.252a3.268 3.268 0 00-1.036.7c-.28.299-.504.644-.672 1.036a2.968 2.968 0 00-.252 1.232zm6.384-7.14h5.096V46h-5.096v-1.596c-1.083 1.363-2.548 2.044-4.396 2.044-1.046 0-2.007-.187-2.884-.56a7.123 7.123 0 01-2.296-1.624 7.608 7.608 0 01-1.54-2.436c-.355-.933-.532-1.95-.532-3.052 0-1.027.177-1.997.532-2.912a7.473 7.473 0 011.484-2.436 6.81 6.81 0 012.268-1.624c.877-.41 1.848-.616 2.912-.616 1.792 0 3.276.625 4.452 1.876v-1.428zm1.876-6.412l-4.872 4.312-2.352-1.736 4.004-4.9 3.22 2.324zm6.668 6.412h5.068v1.82c.691-.84 1.391-1.4 2.1-1.68.71-.299 1.54-.448 2.492-.448 1.008 0 1.867.168 2.576.504a4.995 4.995 0 011.848 1.372c.411.485.691 1.027.84 1.624.15.597.224 1.279.224 2.044V46h-5.068v-7.252c0-.71-.056-1.279-.168-1.708-.093-.448-.27-.803-.532-1.064a1.92 1.92 0 00-.756-.476 2.813 2.813 0 00-.896-.14c-.858 0-1.521.261-1.988.784-.448.504-.672 1.232-.672 2.184V46h-5.068V31.636zM68.341 66.284c-.877-.597-1.763-.896-2.66-.896-.485 0-.942.084-1.371.252-.411.168-.775.41-1.093.728-.317.299-.569.663-.755 1.092a3.67 3.67 0 00-.253 1.4c0 .504.084.97.252 1.4.187.41.43.775.729 1.092.317.299.69.532 1.12.7.429.168.886.252 1.371.252.953 0 1.84-.327 2.66-.98v4.312c-1.25.541-2.435.812-3.555.812a8.511 8.511 0 01-2.997-.532 7.896 7.896 0 01-2.492-1.512 7.823 7.823 0 01-1.707-2.38c-.43-.933-.645-1.97-.645-3.108 0-1.139.206-2.175.617-3.108.41-.952.97-1.764 1.68-2.436a7.346 7.346 0 012.52-1.596 8.51 8.51 0 013.163-.588c1.233 0 2.371.261 3.416.784v4.312zm7.68 2.464c0 .485.083.933.251 1.344.187.392.42.737.7 1.036.299.299.644.532 1.036.7.41.168.84.252 1.288.252.448 0 .868-.084 1.26-.252.41-.168.756-.401 1.036-.7.299-.299.532-.644.7-1.036.187-.41.28-.85.28-1.316 0-.448-.093-.868-.28-1.26a3.198 3.198 0 00-.7-1.064 2.904 2.904 0 00-1.036-.7 3.165 3.165 0 00-1.26-.252 3.37 3.37 0 00-1.288.252 3.276 3.276 0 00-1.036.7c-.28.299-.513.644-.7 1.036a3.165 3.165 0 00-.252 1.26zm-5.349-.056c0-1.064.215-2.053.644-2.968a7.137 7.137 0 011.792-2.408c.765-.69 1.67-1.232 2.716-1.624 1.064-.392 2.221-.588 3.472-.588 1.232 0 2.37.196 3.416.588 1.064.373 1.979.905 2.744 1.596a6.908 6.908 0 011.82 2.436c.43.933.644 1.97.644 3.108 0 1.139-.224 2.184-.672 3.136a7.434 7.434 0 01-1.792 2.436c-.765.672-1.69 1.195-2.772 1.568-1.064.373-2.221.56-3.472.56-1.232 0-2.37-.187-3.416-.56-1.045-.373-1.95-.905-2.716-1.596a7.539 7.539 0 01-1.764-2.464c-.43-.97-.644-2.044-.644-3.22zm20.166-7.056h5.068v2.352c.54-.859 1.204-1.512 1.988-1.96.784-.467 1.698-.7 2.744-.7h.42c.168 0 .354.019.56.056v4.844a4.816 4.816 0 00-2.184-.504c-1.176 0-2.063.355-2.66 1.064-.58.69-.868 1.708-.868 3.052V76h-5.068V61.636zm13.043 0h5.068v2.352c.541-.859 1.204-1.512 1.988-1.96.784-.467 1.698-.7 2.744-.7h.42c.168 0 .354.019.56.056v4.844a4.815 4.815 0 00-2.184-.504c-1.176 0-2.063.355-2.66 1.064-.579.69-.868 1.708-.868 3.052V76h-5.068V61.636zm23.707 5.096c-.168-.71-.514-1.279-1.036-1.708-.523-.43-1.158-.644-1.904-.644-.784 0-1.428.205-1.932.616-.486.41-.794.99-.924 1.736h5.796zm-5.936 2.94c0 2.184 1.026 3.276 3.08 3.276 1.101 0 1.932-.448 2.492-1.344h4.9c-.99 3.285-3.463 4.928-7.42 4.928-1.214 0-2.324-.177-3.332-.532-1.008-.373-1.876-.896-2.604-1.568a7.009 7.009 0 01-1.652-2.408c-.392-.933-.588-1.979-.588-3.136 0-1.195.186-2.268.56-3.22.373-.97.905-1.792 1.596-2.464.69-.672 1.521-1.185 2.492-1.54.989-.373 2.1-.56 3.332-.56 1.213 0 2.305.187 3.276.56.97.355 1.792.877 2.464 1.568.672.69 1.185 1.54 1.54 2.548.354.99.532 2.11.532 3.36v.532h-10.668zm24.4-3.388c-.877-.597-1.764-.896-2.66-.896-.485 0-.942.084-1.372.252-.41.168-.774.41-1.092.728a3.277 3.277 0 00-.756 1.092 3.67 3.67 0 00-.252 1.4c0 .504.084.97.252 1.4.187.41.43.775.728 1.092.318.299.691.532 1.12.7.43.168.887.252 1.372.252.952 0 1.839-.327 2.66-.98v4.312c-1.25.541-2.436.812-3.556.812a8.512 8.512 0 01-2.996-.532 7.9 7.9 0 01-2.492-1.512 7.838 7.838 0 01-1.708-2.38c-.429-.933-.644-1.97-.644-3.108 0-1.139.206-2.175.616-3.108a7.294 7.294 0 011.68-2.436 7.358 7.358 0 012.52-1.596 8.513 8.513 0 013.164-.588c1.232 0 2.371.261 3.416.784v4.312zm8.547-.42V76h-5.068V65.864h-1.68v-4.228h1.68v-4.312h5.068v4.312h2.884v4.228h-2.884zm9.767 2.912c0 .467.084.905.252 1.316.168.392.392.737.672 1.036.298.299.644.532 1.036.7.41.168.849.252 1.316.252.448 0 .868-.084 1.26-.252a2.91 2.91 0 001.036-.7c.298-.299.532-.644.7-1.036.186-.392.28-.812.28-1.26 0-.448-.094-.868-.28-1.26a3.209 3.209 0 00-.7-1.064 2.91 2.91 0 00-1.036-.7 3.165 3.165 0 00-1.26-.252c-.467 0-.906.084-1.316.252a3.268 3.268 0 00-1.036.7c-.28.299-.504.644-.672 1.036a2.968 2.968 0 00-.252 1.232zm6.384-7.14h5.096V76h-5.096v-1.596c-1.083 1.363-2.548 2.044-4.396 2.044-1.046 0-2.007-.187-2.884-.56a7.123 7.123 0 01-2.296-1.624 7.608 7.608 0 01-1.54-2.436c-.355-.933-.532-1.95-.532-3.052 0-1.027.177-1.997.532-2.912a7.473 7.473 0 011.484-2.436 6.81 6.81 0 012.268-1.624c.877-.41 1.848-.616 2.912-.616 1.792 0 3.276.625 4.452 1.876v-1.428zm18.065 3.696c-.934-.485-1.848-.728-2.744-.728-.467 0-.85.093-1.148.28-.28.187-.42.439-.42.756 0 .168.018.308.056.42a.911.911 0 00.308.28c.168.093.401.177.7.252.317.075.728.168 1.232.28 1.4.28 2.445.784 3.136 1.512.69.71 1.036 1.624 1.036 2.744 0 .84-.168 1.596-.504 2.268a4.96 4.96 0 01-1.4 1.708c-.598.448-1.316.793-2.156 1.036-.84.261-1.764.392-2.772.392-1.942 0-3.855-.55-5.74-1.652l1.848-3.584c1.418.97 2.762 1.456 4.032 1.456.466 0 .849-.103 1.148-.308.298-.205.448-.467.448-.784 0-.187-.028-.336-.084-.448a.601.601 0 00-.28-.336c-.15-.112-.374-.205-.672-.28a9.722 9.722 0 00-1.12-.28c-1.568-.317-2.67-.784-3.304-1.4-.616-.635-.924-1.503-.924-2.604 0-.803.149-1.521.448-2.156a4.457 4.457 0 011.288-1.652c.56-.448 1.232-.793 2.016-1.036.802-.243 1.689-.364 2.66-.364 1.586 0 3.126.308 4.62.924l-1.708 3.304zm4.58 7.788c0-.48.09-.93.27-1.35.18-.44.43-.82.75-1.14.32-.32.69-.57 1.11-.75.44-.18.9-.27 1.38-.27.48 0 .93.09 1.35.27.44.18.82.43 1.14.75.32.32.57.7.75 1.14.18.42.27.87.27 1.35 0 .48-.09.94-.27 1.38-.18.42-.43.79-.75 1.11-.32.32-.7.57-1.14.75-.42.18-.87.27-1.35.27-.48 0-.94-.09-1.38-.27a3.51 3.51 0 01-1.86-1.86c-.18-.44-.27-.9-.27-1.38z" fill="#fff"/></svg>