<svg width="241" height="50" viewBox="0 0 241 50" fill="none" xmlns="http://www.w3.org/2000/svg"><path d="M22.976 13.298l-2.112-6.024-2.112 6.024h4.224zm1.248 3.576h-6.72l-1.08 3.144h-5.016l6.888-18.096h5.136l6.888 18.096h-5.016l-1.08-3.144zm17.58-2.976c0-.384-.072-.744-.216-1.08a2.462 2.462 0 00-.576-.912 2.742 2.742 0 00-.912-.6 2.535 2.535 0 00-1.104-.24c-.384 0-.744.072-1.08.216a2.808 2.808 0 00-.888.6c-.24.256-.44.56-.6.912a2.712 2.712 0 00-.216 1.08c0 .384.072.744.216 1.08.144.336.344.632.6.888.256.24.552.44.888.6.352.144.72.216 1.104.216.384 0 .744-.072 1.08-.216a2.54 2.54 0 00.864-.6c.256-.256.456-.552.6-.888.16-.336.24-.688.24-1.056zm-5.472 12.264h-4.344V7.706h4.344v1.368c.928-1.168 2.192-1.752 3.792-1.752.88 0 1.696.176 2.448.528.768.336 1.432.8 1.992 1.392.56.592.992 1.288 1.296 2.088.32.8.48 1.656.48 2.568 0 .912-.16 1.76-.48 2.544a6.268 6.268 0 01-1.296 2.064 5.85 5.85 0 01-1.944 1.392 5.932 5.932 0 01-2.448.504c-1.536 0-2.816-.528-3.84-1.584v7.344zM48.576 7.706h4.344v2.016c.464-.736 1.032-1.296 1.704-1.68.672-.4 1.456-.6 2.352-.6h.36c.144 0 .304.016.48.048v4.152a4.127 4.127 0 00-1.872-.432c-1.008 0-1.768.304-2.28.912-.496.592-.744 1.464-.744 2.616v5.28h-4.344V7.706zm20.08 4.368c-.143-.608-.44-1.096-.887-1.464-.448-.368-.992-.552-1.632-.552-.672 0-1.224.176-1.656.528-.416.352-.68.848-.792 1.488h4.968zm-5.087 2.52c0 1.872.88 2.808 2.64 2.808.944 0 1.656-.384 2.136-1.152h4.2c-.848 2.816-2.968 4.224-6.36 4.224-1.04 0-1.992-.152-2.856-.456a6.656 6.656 0 01-2.232-1.344 6.015 6.015 0 01-1.416-2.064c-.336-.8-.504-1.696-.504-2.688 0-1.024.16-1.944.48-2.76a5.81 5.81 0 011.368-2.112 5.943 5.943 0 012.136-1.32c.848-.32 1.8-.48 2.856-.48 1.04 0 1.976.16 2.808.48a5.56 5.56 0 012.112 1.344c.576.592 1.016 1.32 1.32 2.184.304.848.456 1.808.456 2.88v.456h-9.144zm11.387-6.888H79.3v1.56c.592-.72 1.192-1.2 1.8-1.44.608-.256 1.32-.384 2.136-.384.864 0 1.6.144 2.208.432a4.281 4.281 0 011.584 1.176c.352.416.592.88.72 1.392a7.25 7.25 0 01.192 1.752v7.824h-4.344v-6.216c0-.608-.048-1.096-.144-1.464-.08-.384-.232-.688-.456-.912a1.646 1.646 0 00-.648-.408c-.24-.08-.496-.12-.768-.12-.736 0-1.304.224-1.704.672-.384.432-.576 1.056-.576 1.872v6.576h-4.344V7.706zm19.73 6.12c0 .4.071.776.215 1.128.144.336.336.632.576.888.256.256.552.456.888.6a2.95 2.95 0 001.128.216c.384 0 .744-.072 1.08-.216a2.49 2.49 0 00.888-.6c.256-.256.456-.552.6-.888.16-.336.24-.696.24-1.08 0-.384-.08-.744-.24-1.08a2.736 2.736 0 00-.6-.912 2.49 2.49 0 00-.888-.6 2.712 2.712 0 00-1.08-.216c-.384 0-.752.072-1.104.216a2.808 2.808 0 00-.888.6c-.24.256-.44.552-.6.888-.144.32-.216.672-.216 1.056zM100.156.098h4.368v19.92h-4.368V18.65c-.928 1.168-2.184 1.752-3.768 1.752a5.99 5.99 0 01-4.44-1.896c-.56-.592-1-1.288-1.32-2.088a7.237 7.237 0 01-.456-2.592c0-.88.144-1.712.432-2.496a6.42 6.42 0 011.272-2.088 5.85 5.85 0 011.944-1.392 5.975 5.975 0 012.52-.528c1.536 0 2.808.536 3.816 1.608V.098zm16.084 11.976c-.144-.608-.44-1.096-.888-1.464-.448-.368-.992-.552-1.632-.552-.672 0-1.224.176-1.656.528-.416.352-.68.848-.792 1.488h4.968zm-5.088 2.52c0 1.872.88 2.808 2.64 2.808.944 0 1.656-.384 2.136-1.152h4.2c-.848 2.816-2.968 4.224-6.36 4.224-1.04 0-1.992-.152-2.856-.456a6.656 6.656 0 01-2.232-1.344 6.015 6.015 0 01-1.416-2.064c-.336-.8-.504-1.696-.504-2.688 0-1.024.16-1.944.48-2.76a5.81 5.81 0 011.368-2.112 5.943 5.943 0 012.136-1.32c.848-.32 1.8-.48 2.856-.48 1.04 0 1.976.16 2.808.48a5.56 5.56 0 012.112 1.344c.576.592 1.016 1.32 1.32 2.184.304.848.456 1.808.456 2.88v.456h-9.144zm27.464-3.72c-.8-.416-1.584-.624-2.352-.624-.4 0-.728.08-.984.24-.24.16-.36.376-.36.648 0 .144.016.264.048.36.048.08.136.16.264.24.144.08.344.152.6.216.272.064.624.144 1.056.24 1.2.24 2.096.672 2.688 1.296.592.608.888 1.392.888 2.352 0 .72-.144 1.368-.432 1.944a4.247 4.247 0 01-1.2 1.464c-.512.384-1.128.68-1.848.888a7.969 7.969 0 01-2.376.336c-1.664 0-3.304-.472-4.92-1.416l1.584-3.072c1.216.832 2.368 1.248 3.456 1.248.4 0 .728-.088.984-.264.256-.176.384-.4.384-.672a.865.865 0 00-.072-.384.512.512 0 00-.24-.288c-.128-.096-.32-.176-.576-.24-.24-.08-.56-.16-.96-.24-1.344-.272-2.288-.672-2.832-1.2-.528-.544-.792-1.288-.792-2.232 0-.688.128-1.304.384-1.848a3.826 3.826 0 011.104-1.416c.48-.384 1.056-.68 1.728-.888a7.856 7.856 0 012.28-.312c1.36 0 2.68.264 3.96.792l-1.464 2.832zm7.915 2.928c0 .416.072.8.216 1.152.16.336.36.632.6.888.256.256.552.456.888.6.352.144.72.216 1.104.216.384 0 .744-.072 1.08-.216a2.49 2.49 0 00.888-.6c.256-.256.456-.552.6-.888.16-.352.24-.728.24-1.128 0-.384-.08-.744-.24-1.08a2.742 2.742 0 00-.6-.912 2.49 2.49 0 00-.888-.6 2.712 2.712 0 00-1.08-.216c-.384 0-.752.072-1.104.216a2.808 2.808 0 00-.888.6c-.24.256-.44.552-.6.888a2.712 2.712 0 00-.216 1.08zm-4.584-.048c0-.912.184-1.76.552-2.544.368-.8.88-1.488 1.536-2.064a7.214 7.214 0 012.328-1.392c.912-.336 1.904-.504 2.976-.504 1.056 0 2.032.168 2.928.504.912.32 1.696.776 2.352 1.368a5.921 5.921 0 011.56 2.088c.368.8.552 1.688.552 2.664 0 .976-.192 1.872-.576 2.688-.368.8-.88 1.496-1.536 2.088-.656.576-1.448 1.024-2.376 1.344-.912.32-1.904.48-2.976.48-1.056 0-2.032-.16-2.928-.48a6.89 6.89 0 01-2.328-1.368 6.463 6.463 0 01-1.512-2.112c-.368-.832-.552-1.752-.552-2.76zm26.86.144c0-.384-.072-.744-.216-1.08a2.742 2.742 0 00-.6-.912 2.808 2.808 0 00-.888-.6 2.535 2.535 0 00-1.104-.24c-.384 0-.744.072-1.08.216a2.808 2.808 0 00-.888.6c-.24.256-.44.56-.6.912a2.712 2.712 0 00-.216 1.08c0 .384.072.744.216 1.08.144.336.344.632.6.888.256.24.552.44.888.6.352.144.72.216 1.104.216.384 0 .744-.072 1.08-.216a2.54 2.54 0 00.864-.6c.256-.256.456-.552.6-.888.16-.336.24-.688.24-1.056zm-5.472-13.8V8.93c1.024-1.072 2.304-1.608 3.84-1.608.912 0 1.744.176 2.496.528.768.336 1.416.8 1.944 1.392a6.146 6.146 0 011.272 2.064 6.91 6.91 0 01.456 2.52 6.85 6.85 0 01-.48 2.568 6.213 6.213 0 01-1.296 2.088 6.357 6.357 0 01-1.992 1.416 5.932 5.932 0 01-2.448.504c-1.6 0-2.864-.584-3.792-1.752v1.368h-4.344V.098h4.344zm12.244 7.608h4.344v2.016c.464-.736 1.032-1.296 1.704-1.68.672-.4 1.456-.6 2.352-.6h.36c.144 0 .304.016.48.048v4.152a4.127 4.127 0 00-1.872-.432c-1.008 0-1.768.304-2.28.912-.496.592-.744 1.464-.744 2.616v5.28h-4.344V7.706zm20.081 4.368c-.144-.608-.44-1.096-.888-1.464-.448-.368-.992-.552-1.632-.552-.672 0-1.224.176-1.656.528-.416.352-.68.848-.792 1.488h4.968zm-5.088 2.52c0 1.872.88 2.808 2.64 2.808.944 0 1.656-.384 2.136-1.152h4.2c-.848 2.816-2.968 4.224-6.36 4.224-1.04 0-1.992-.152-2.856-.456a6.656 6.656 0 01-2.232-1.344 6.015 6.015 0 01-1.416-2.064c-.336-.8-.504-1.696-.504-2.688 0-1.024.16-1.944.48-2.76a5.81 5.81 0 011.368-2.112 5.943 5.943 0 012.136-1.32c.848-.32 1.8-.48 2.856-.48 1.04 0 1.976.16 2.808.48a5.56 5.56 0 012.112 1.344c.576.592 1.016 1.32 1.32 2.184.304.848.456 1.808.456 2.88v.456h-9.144zm28.303-2.52c-.144-.608-.44-1.096-.888-1.464-.448-.368-.992-.552-1.632-.552-.672 0-1.224.176-1.656.528-.416.352-.68.848-.792 1.488h4.968zm-5.088 2.52c0 1.872.88 2.808 2.64 2.808.944 0 1.656-.384 2.136-1.152h4.2c-.848 2.816-2.968 4.224-6.36 4.224-1.04 0-1.992-.152-2.856-.456a6.656 6.656 0 01-2.232-1.344 6.015 6.015 0 01-1.416-2.064c-.336-.8-.504-1.696-.504-2.688 0-1.024.16-1.944.48-2.76a5.81 5.81 0 011.368-2.112 5.943 5.943 0 012.136-1.32c.848-.32 1.8-.48 2.856-.48 1.04 0 1.976.16 2.808.48a5.56 5.56 0 012.112 1.344c.576.592 1.016 1.32 1.32 2.184.304.848.456 1.808.456 2.88v.456h-9.144zM229.519.098v19.92h-4.344V.098h4.344zM5.951 40.33v8.688H1.607V40.33H.047v-3.624h1.56v-1.848c0-1.024.096-1.84.288-2.448.16-.512.416-.984.768-1.416.352-.448.76-.832 1.224-1.152.48-.32.992-.568 1.536-.744a5.204 5.204 0 011.608-.264c.368 0 .704.04 1.008.12.32.08.64.192.96.336v3.792a4.021 4.021 0 00-.816-.312c-.24-.08-.496-.12-.768-.12-.176 0-.36.032-.552.096-.176.048-.344.16-.504.336-.16.176-.272.432-.336.768-.048.32-.072.76-.072 1.32v1.536h3.048v3.624H5.95zm4.43-3.624h4.345v2.016c.464-.736 1.032-1.296 1.704-1.68.672-.4 1.456-.6 2.352-.6h.36c.144 0 .304.016.48.048v4.152a4.127 4.127 0 00-1.872-.432c-1.008 0-1.768.304-2.28.912-.496.592-.744 1.464-.744 2.616v5.28h-4.344V36.706zm15.113 6.12c0 .4.072.776.216 1.128.144.336.336.632.576.888.256.256.552.456.888.6a2.95 2.95 0 001.128.216c.384 0 .744-.072 1.08-.216a2.49 2.49 0 00.888-.6c.256-.256.456-.552.6-.888.16-.336.24-.696.24-1.08 0-.384-.08-.744-.24-1.08a2.742 2.742 0 00-.6-.912 2.49 2.49 0 00-.888-.6 2.712 2.712 0 00-1.08-.216c-.4 0-.776.072-1.128.216a2.808 2.808 0 00-.888.6c-.24.256-.432.552-.576.888-.144.32-.216.672-.216 1.056zm5.472-6.12h4.368v12.312h-4.368V47.65c-.928 1.168-2.184 1.752-3.768 1.752-.896 0-1.72-.16-2.472-.48a6.115 6.115 0 01-1.968-1.392c-.56-.592-1-1.288-1.32-2.088a7.306 7.306 0 01-.456-2.616c0-.88.152-1.712.456-2.496a6.42 6.42 0 011.272-2.088 5.85 5.85 0 011.944-1.392c.752-.352 1.584-.528 2.496-.528 1.536 0 2.808.536 3.816 1.608v-1.224zm11.428 0v6.936c0 1.52.736 2.28 2.208 2.28 1.472 0 2.208-.76 2.208-2.28v-6.936h4.344v7.776c0 1.664-.552 2.912-1.656 3.744-1.088.832-2.72 1.248-4.896 1.248-2.176 0-3.816-.416-4.92-1.248-1.088-.832-1.632-2.08-1.632-3.744v-7.776h4.344zm15.503 6.12c0 .4.072.776.216 1.128.144.336.336.632.576.888.256.256.552.456.888.6a2.95 2.95 0 001.128.216c.384 0 .744-.072 1.08-.216a2.49 2.49 0 00.888-.6c.256-.256.456-.552.6-.888.16-.336.24-.696.24-1.08 0-.384-.08-.744-.24-1.08a2.742 2.742 0 00-.6-.912 2.49 2.49 0 00-.888-.6 2.712 2.712 0 00-1.08-.216c-.384 0-.752.072-1.104.216a2.808 2.808 0 00-.888.6c-.24.256-.44.552-.6.888-.144.32-.216.672-.216 1.056zm5.472-13.728h4.368v19.92h-4.368V47.65c-.928 1.168-2.184 1.752-3.768 1.752a5.99 5.99 0 01-4.44-1.896c-.56-.592-1-1.288-1.32-2.088a7.237 7.237 0 01-.456-2.592c0-.88.144-1.712.432-2.496a6.42 6.42 0 011.272-2.088 5.85 5.85 0 011.944-1.392 5.975 5.975 0 012.52-.528c1.536 0 2.808.536 3.816 1.608v-8.832zm16.084 11.976c-.144-.608-.44-1.096-.888-1.464-.448-.368-.992-.552-1.632-.552-.672 0-1.224.176-1.656.528-.416.352-.68.848-.792 1.488h4.968zm-5.088 2.52c0 1.872.88 2.808 2.64 2.808.944 0 1.656-.384 2.136-1.152h4.2c-.848 2.816-2.968 4.224-6.36 4.224-1.04 0-1.992-.152-2.856-.456a6.656 6.656 0 01-2.232-1.344 6.015 6.015 0 01-1.416-2.064c-.336-.8-.504-1.696-.504-2.688 0-1.024.16-1.944.48-2.76a5.81 5.81 0 011.368-2.112 5.943 5.943 0 012.136-1.32c.848-.32 1.8-.48 2.856-.48 1.04 0 1.976.16 2.808.48a5.56 5.56 0 012.112 1.344c.576.592 1.016 1.32 1.32 2.184.304.848.456 1.808.456 2.88v.456h-9.144zm23.335-.768c0 .4.072.776.216 1.128.144.336.336.632.576.888.256.256.552.456.888.6.352.144.728.216 1.128.216.384 0 .744-.072 1.08-.216a2.49 2.49 0 00.888-.6c.256-.256.456-.552.6-.888.16-.336.24-.696.24-1.08 0-.384-.08-.744-.24-1.08a2.742 2.742 0 00-.6-.912 2.49 2.49 0 00-.888-.6 2.712 2.712 0 00-1.08-.216c-.4 0-.776.072-1.128.216a2.808 2.808 0 00-.888.6c-.24.256-.432.552-.576.888-.144.32-.216.672-.216 1.056zm5.472-6.12h4.368v12.312h-4.368V47.65c-.928 1.168-2.184 1.752-3.768 1.752-.896 0-1.72-.16-2.472-.48a6.115 6.115 0 01-1.968-1.392c-.56-.592-1-1.288-1.32-2.088a7.306 7.306 0 01-.456-2.616c0-.88.152-1.712.456-2.496a6.42 6.42 0 011.272-2.088 5.85 5.85 0 011.944-1.392c.752-.352 1.584-.528 2.496-.528 1.536 0 2.808.536 3.816 1.608v-1.224zm14.593 12.312l3.072-18.096h4.656l3.624 9.648 3.6-9.648h4.656l3.072 18.096h-4.68l-1.56-10.416-4.272 10.416h-1.872l-4.056-10.416-1.56 10.416h-4.68zm33.355-7.944c-.144-.608-.44-1.096-.888-1.464-.448-.368-.992-.552-1.632-.552-.672 0-1.224.176-1.656.528-.416.352-.68.848-.792 1.488h4.968zm-5.088 2.52c0 1.872.88 2.808 2.64 2.808.944 0 1.656-.384 2.136-1.152h4.2c-.848 2.816-2.968 4.224-6.36 4.224-1.04 0-1.992-.152-2.856-.456a6.656 6.656 0 01-2.232-1.344 6.015 6.015 0 01-1.416-2.064c-.336-.8-.504-1.696-.504-2.688 0-1.024.16-1.944.48-2.76a5.81 5.81 0 011.368-2.112 5.943 5.943 0 012.136-1.32c.848-.32 1.8-.48 2.856-.48 1.04 0 1.976.16 2.808.48a5.56 5.56 0 012.112 1.344c.576.592 1.016 1.32 1.32 2.184.304.848.456 1.808.456 2.88v.456h-9.144zm15.419-.768c0 .4.072.776.216 1.128.144.336.336.632.576.888.256.256.552.456.888.6a2.95 2.95 0 001.128.216c.384 0 .744-.072 1.08-.216a2.49 2.49 0 00.888-.6c.256-.256.456-.552.6-.888.16-.336.24-.696.24-1.08 0-.384-.08-.744-.24-1.08a2.742 2.742 0 00-.6-.912 2.49 2.49 0 00-.888-.6 2.712 2.712 0 00-1.08-.216c-.384 0-.752.072-1.104.216a2.808 2.808 0 00-.888.6c-.24.256-.44.552-.6.888-.144.32-.216.672-.216 1.056zm5.472-13.728h4.368v19.92h-4.368V47.65c-.928 1.168-2.184 1.752-3.768 1.752a5.99 5.99 0 01-4.44-1.896c-.56-.592-1-1.288-1.32-2.088a7.237 7.237 0 01-.456-2.592c0-.88.144-1.712.432-2.496a6.42 6.42 0 011.272-2.088 5.85 5.85 0 011.944-1.392 5.975 5.975 0 012.52-.528c1.536 0 2.808.536 3.816 1.608v-8.832zm11.428 7.608v12.312h-4.344V36.706h4.344zm-4.632-4.728c0-.336.064-.648.192-.936.128-.304.304-.568.528-.792.224-.224.48-.4.768-.528.304-.128.624-.192.96-.192.336 0 .648.064.936.192.304.128.568.304.792.528.224.224.4.488.528.792.128.288.192.6.192.936 0 .336-.064.656-.192.96a2.531 2.531 0 01-.528.768c-.224.224-.488.4-.792.528-.288.128-.6.192-.936.192-.336 0-.656-.064-.96-.192a2.531 2.531 0 01-.768-.528c-.224-.224-.4-.48-.528-.768a2.449 2.449 0 01-.192-.96zm16.649 8.712c-.752-.512-1.512-.768-2.28-.768-.416 0-.808.072-1.176.216a2.824 2.824 0 00-.936.624 2.8 2.8 0 00-.648.936 3.146 3.146 0 00-.216 1.2c0 .432.072.832.216 1.2.16.352.368.664.624.936.272.256.592.456.96.6.368.144.76.216 1.176.216.816 0 1.576-.28 2.28-.84v3.696c-1.072.464-2.088.696-3.048.696a7.296 7.296 0 01-2.568-.456 6.766 6.766 0 01-2.136-1.296 6.704 6.704 0 01-1.464-2.04c-.368-.8-.552-1.688-.552-2.664 0-.976.176-1.864.528-2.664a6.244 6.244 0 011.44-2.088 6.297 6.297 0 012.16-1.368 7.294 7.294 0 012.712-.504c1.056 0 2.032.224 2.928.672v3.696zm6.269 2.136c0 .4.072.776.216 1.128.144.336.336.632.576.888.256.256.552.456.888.6a2.95 2.95 0 001.128.216c.384 0 .744-.072 1.08-.216a2.49 2.49 0 00.888-.6c.256-.256.456-.552.6-.888.16-.336.24-.696.24-1.08 0-.384-.08-.744-.24-1.08a2.742 2.742 0 00-.6-.912 2.49 2.49 0 00-.888-.6 2.712 2.712 0 00-1.08-.216c-.4 0-.776.072-1.128.216a2.808 2.808 0 00-.888.6c-.24.256-.432.552-.576.888-.144.32-.216.672-.216 1.056zm5.472-6.12h4.368v12.312h-4.368V47.65c-.928 1.168-2.184 1.752-3.768 1.752-.896 0-1.72-.16-2.472-.48a6.115 6.115 0 01-1.968-1.392c-.56-.592-1-1.288-1.32-2.088a7.306 7.306 0 01-.456-2.616c0-.88.152-1.712.456-2.496a6.42 6.42 0 011.272-2.088 5.85 5.85 0 011.944-1.392c.752-.352 1.584-.528 2.496-.528 1.536 0 2.808.536 3.816 1.608v-1.224zm7.085 0h4.344v2.016c.464-.736 1.032-1.296 1.704-1.68.672-.4 1.456-.6 2.352-.6h.36c.144 0 .304.016.48.048v4.152a4.127 4.127 0 00-1.872-.432c-1.008 0-1.768.304-2.28.912-.496.592-.744 1.464-.744 2.616v5.28h-4.344V36.706zm20.08 4.368c-.144-.608-.44-1.096-.888-1.464-.448-.368-.992-.552-1.632-.552-.672 0-1.224.176-1.656.528-.416.352-.68.848-.792 1.488h4.968zm-5.088 2.52c0 1.872.88 2.808 2.64 2.808.944 0 1.656-.384 2.136-1.152h4.2c-.848 2.816-2.968 4.224-6.36 4.224-1.04 0-1.992-.152-2.856-.456a6.656 6.656 0 01-2.232-1.344 6.015 6.015 0 01-1.416-2.064c-.336-.8-.504-1.696-.504-2.688 0-1.024.16-1.944.48-2.76a5.81 5.81 0 011.368-2.112 5.943 5.943 0 012.136-1.32c.848-.32 1.8-.48 2.856-.48 1.04 0 1.976.16 2.808.48a5.56 5.56 0 012.112 1.344c.576.592 1.016 1.32 1.32 2.184.304.848.456 1.808.456 2.88v.456h-9.144zm11.171 3.12c0-.384.072-.744.216-1.08.144-.352.344-.656.6-.912s.552-.456.888-.6c.352-.144.72-.216 1.104-.216.384 0 .744.072 1.08.216.352.144.656.344.912.6s.456.56.6.912c.144.336.216.696.216 1.08 0 .384-.072.752-.216 1.104a2.808 2.808 0 01-.6.888c-.256.256-.56.456-.912.6a2.712 2.712 0 01-1.08.216c-.384 0-.752-.072-1.104-.216a2.808 2.808 0 01-1.488-1.488 2.888 2.888 0 01-.216-1.104z" fill="#fff"/></svg>