<svg width="250" height="41" viewBox="0 0 250 41" fill="none" xmlns="http://www.w3.org/2000/svg"><path d="M9.104 3.81L7.351 4.849c-.328-.57-.64-.94-.937-1.114-.31-.198-.708-.297-1.197-.297-.6 0-1.098.17-1.493.51A1.582 1.582 0 003.13 5.21c0 .7.52 1.262 1.558 1.689l1.43.584c1.162.47 2.012 1.046 2.55 1.726.539.674.808 1.503.808 2.486 0 1.318-.44 2.406-1.318 3.266-.884.866-1.982 1.299-3.293 1.299-1.243 0-2.27-.368-3.08-1.104C.987 14.42.489 13.384.29 12.048l2.19-.483c.098.842.272 1.423.519 1.745.445.618 1.095.927 1.948.927.674 0 1.234-.225 1.68-.677.445-.451.667-1.024.667-1.716 0-.279-.04-.532-.12-.761a1.784 1.784 0 00-.362-.64 2.647 2.647 0 00-.63-.547 5.85 5.85 0 00-.929-.492l-1.382-.575c-1.96-.83-2.94-2.041-2.94-3.637 0-1.076.41-1.976 1.233-2.7.823-.73 1.846-1.095 3.07-1.095 1.652 0 2.942.804 3.87 2.413zm4.667 3.154V16h-2.087V6.964h2.087zm-2.403-3.757c0-.365.133-.68.4-.947.265-.266.584-.399.955-.399.377 0 .698.133.964.4.267.259.4.578.4.955s-.133.699-.4.965c-.26.266-.578.399-.955.399s-.699-.133-.965-.4a1.325 1.325 0 01-.399-.973zm13.276 8.767h-6.475c.055.742.296 1.332.723 1.772.427.432.974.649 1.642.649.52 0 .95-.124 1.29-.371.334-.247.714-.705 1.14-1.373l1.764.983c-.273.464-.56.863-.863 1.197-.303.328-.628.6-.974.817-.347.21-.72.364-1.123.463a5.463 5.463 0 01-1.308.149c-1.348 0-2.43-.433-3.247-1.3-.817-.871-1.225-2.028-1.225-3.469 0-1.428.396-2.585 1.188-3.47.798-.872 1.855-1.308 3.173-1.308 1.33 0 2.38.424 3.154 1.271.767.842 1.15 2.007 1.15 3.498l-.009.492zm-2.143-1.707c-.29-1.114-.993-1.67-2.106-1.67-.254 0-.492.04-.714.12a1.97 1.97 0 00-.613.334c-.179.143-.334.316-.463.52-.13.204-.23.436-.297.696H22.5zm4.434-3.303h2.088v.835c.402-.42.745-.705 1.03-.854.303-.154.683-.232 1.14-.232 1.021 0 1.829.446 2.422 1.336.656-.89 1.543-1.336 2.663-1.336 2.035 0 3.052 1.234 3.052 3.702V16h-2.097v-5.019c0-.866-.105-1.478-.315-1.837-.216-.365-.572-.547-1.067-.547-.575 0-.996.216-1.262.65-.26.432-.39 1.128-.39 2.087V16h-2.096v-4.991c0-1.608-.464-2.412-1.392-2.412-.587 0-1.017.22-1.29.658-.265.44-.398 1.132-.398 2.079V16h-2.087V6.964zm17.359 13.953h-2.088V6.964h2.087v.983c.823-.822 1.757-1.234 2.802-1.234 1.243 0 2.267.458 3.071 1.373.816.91 1.225 2.057 1.225 3.442 0 1.355-.405 2.484-1.216 3.387-.804.896-1.818 1.345-3.043 1.345-1.057 0-2.004-.424-2.838-1.271v5.928zm4.963-9.38c0-.865-.235-1.57-.705-2.115a2.28 2.28 0 00-1.8-.825c-.767 0-1.389.266-1.865.798-.476.531-.714 1.23-.714 2.096 0 .848.238 1.546.714 2.097.47.538 1.089.807 1.856.807.723 0 1.32-.272 1.79-.816.483-.545.724-1.225.724-2.041zm4.342-4.573h2.087v.807c.383-.402.724-.677 1.02-.826.304-.154.662-.232 1.077-.232.55 0 1.125.18 1.725.538l-.955 1.912c-.396-.285-.783-.427-1.16-.427-1.138 0-1.707.86-1.707 2.579V16h-2.087V6.964zm15.205 5.01H62.33c.055.742.297 1.332.723 1.772.427.432.974.649 1.642.649.52 0 .95-.124 1.29-.371.334-.247.714-.705 1.141-1.373l1.763.983c-.272.464-.56.863-.863 1.197-.303.328-.628.6-.974.817-.347.21-.72.364-1.123.463a5.462 5.462 0 01-1.308.149c-1.348 0-2.43-.433-3.247-1.3-.816-.871-1.225-2.028-1.225-3.469 0-1.428.396-2.585 1.188-3.47.798-.872 1.855-1.308 3.173-1.308 1.33 0 2.381.424 3.154 1.271.767.842 1.15 2.007 1.15 3.498l-.009.492zm-2.143-1.707c-.29-1.114-.993-1.67-2.106-1.67-.253 0-.492.04-.714.12a1.972 1.972 0 00-.613.334c-.179.143-.334.316-.463.52-.13.204-.23.436-.297.696h4.193zM76.96 6.964h2.087v.807c.384-.402.724-.677 1.02-.826.304-.154.663-.232 1.077-.232.55 0 1.126.18 1.726.538l-.956 1.912c-.396-.285-.782-.427-1.16-.427-1.138 0-1.707.86-1.707 2.579V16H76.96V6.964zm15.206 5.01h-6.476c.056.742.297 1.332.724 1.772.426.432.974.649 1.642.649.52 0 .95-.124 1.29-.371.333-.247.714-.705 1.14-1.373l1.763.983a7.19 7.19 0 01-.863 1.197 4.78 4.78 0 01-.974.817c-.346.21-.72.364-1.122.463a5.463 5.463 0 01-1.308.149c-1.349 0-2.431-.433-3.248-1.3-.816-.871-1.224-2.028-1.224-3.469 0-1.428.396-2.585 1.187-3.47.798-.872 1.856-1.308 3.173-1.308 1.33 0 2.381.424 3.154 1.271.767.842 1.15 2.007 1.15 3.498l-.008.492zm-2.144-1.707c-.29-1.114-.992-1.67-2.106-1.67-.253 0-.491.04-.714.12a1.97 1.97 0 00-.612.334c-.18.143-.334.316-.464.52-.13.204-.229.436-.297.696h4.194zm5.224-3.303l2.337 5.075 2.33-5.075h2.346l-4.694 9.658-4.657-9.658h2.338zm10.52 0V16h-2.087V6.964h2.087zm-2.403-3.757c0-.365.133-.68.399-.947.266-.266.585-.399.956-.399.377 0 .699.133.965.4.266.259.399.578.399.955s-.133.699-.399.965c-.26.266-.579.399-.956.399s-.699-.133-.965-.4a1.325 1.325 0 01-.399-.973zm10.298 5.297l-1.725.918c-.273-.556-.61-.835-1.012-.835a.686.686 0 00-.491.195.622.622 0 00-.204.483c0 .346.402.69 1.206 1.03 1.107.476 1.852.915 2.235 1.317.384.402.576.943.576 1.623 0 .872-.322 1.602-.965 2.19-.625.556-1.379.835-2.264.835-1.515 0-2.588-.74-3.219-2.218l1.781-.825c.248.433.436.708.566.825.254.236.557.353.909.353.705 0 1.058-.322 1.058-.965 0-.37-.272-.717-.817-1.039-.21-.105-.42-.207-.63-.306a55.914 55.914 0 01-.641-.306c-.606-.297-1.032-.594-1.28-.89-.315-.378-.473-.864-.473-1.457 0-.786.269-1.435.807-1.949.551-.513 1.219-.77 2.004-.77 1.157 0 2.016.597 2.579 1.79zm9.129-1.54h2.097V16h-2.097v-.946c-.86.804-1.784 1.206-2.774 1.206-1.249 0-2.282-.452-3.098-1.355-.811-.921-1.216-2.072-1.216-3.45 0-1.355.405-2.484 1.216-3.387.81-.903 1.824-1.355 3.042-1.355 1.052 0 1.995.433 2.83 1.3v-1.05zm-4.954 4.49c0 .866.232 1.571.696 2.115.476.55 1.076.826 1.8.826.773 0 1.397-.266 1.874-.798.476-.55.714-1.25.714-2.096 0-.848-.238-1.547-.714-2.097-.477-.538-1.095-.807-1.856-.807-.717 0-1.317.272-1.8.816-.476.55-.714 1.23-.714 2.041zm19.247-2.332V16h-3.439V9.122h-1.14V6.253h1.14V3.327h3.439v2.926h1.957v2.869h-1.957zm6.689-2.869v5.491c0 1.203.583 1.805 1.748 1.805 1.166 0 1.748-.602 1.748-1.805V6.253h3.439v6.156c0 1.317-.437 2.305-1.311 2.964-.861.659-2.153.988-3.876.988-1.722 0-3.021-.33-3.895-.988-.861-.659-1.292-1.647-1.292-2.964V6.253h3.439zm15.731 2.508c-.633-.33-1.254-.494-1.862-.494-.316 0-.576.063-.779.19a.588.588 0 00-.285.513c0 .114.013.209.038.285a.626.626 0 00.209.19c.114.063.273.12.475.171.216.05.494.114.836.19.95.19 1.66.532 2.128 1.026.469.481.703 1.102.703 1.862 0 .57-.114 1.083-.342 1.539a3.355 3.355 0 01-.95 1.159 4.487 4.487 0 01-1.463.703 6.31 6.31 0 01-1.881.266c-1.317 0-2.615-.374-3.895-1.121l1.254-2.432c.963.659 1.875.988 2.736.988.317 0 .577-.07.779-.209.203-.14.304-.317.304-.532a.685.685 0 00-.057-.304.401.401 0 00-.19-.228 1.29 1.29 0 00-.456-.19 6.555 6.555 0 00-.76-.19c-1.064-.215-1.811-.532-2.242-.95-.418-.43-.627-1.02-.627-1.767 0-.545.102-1.032.304-1.463.203-.443.494-.817.874-1.121.38-.304.836-.538 1.368-.703a6.224 6.224 0 011.805-.247c1.077 0 2.122.209 3.135.627l-1.159 2.242zm13.388.361V16h-3.439V9.122h-1.235V6.253h1.235V4.79c0-.81.076-1.457.228-1.938.127-.405.33-.779.608-1.121.279-.355.602-.659.969-.912.38-.253.786-.45 1.216-.589.431-.14.855-.209 1.273-.209.292 0 .558.032.798.095.254.063.507.152.76.266v3.002a3.176 3.176 0 00-.646-.247 1.908 1.908 0 00-.608-.095c-.139 0-.285.025-.437.076a.855.855 0 00-.399.266c-.126.14-.215.342-.266.608a7.433 7.433 0 00-.057 1.045v1.216h2.413v2.869h-2.413zm7.094 1.976c0 .317.057.614.171.893.114.266.266.5.456.703.203.203.437.361.703.475.279.114.577.171.893.171.304 0 .589-.057.855-.171.279-.114.513-.272.703-.475.203-.203.361-.437.475-.703.127-.266.19-.551.19-.855 0-.304-.063-.589-.19-.855a2.165 2.165 0 00-.475-.722 1.968 1.968 0 00-.703-.475 2.147 2.147 0 00-.855-.171 2.34 2.34 0 00-.893.171c-.266.114-.5.272-.703.475a2.4 2.4 0 00-.456.703 2.014 2.014 0 00-.171.836zm4.332-4.845h3.458V16h-3.458v-1.083c-.734.925-1.729 1.387-2.983 1.387a4.95 4.95 0 01-1.957-.38 4.851 4.851 0 01-1.558-1.102 5.192 5.192 0 01-1.045-1.653 5.798 5.798 0 01-.361-2.071c0-.697.121-1.355.361-1.976a5.1 5.1 0 011.007-1.653 4.638 4.638 0 011.539-1.102 4.605 4.605 0 011.976-.418c1.216 0 2.223.424 3.021 1.273v-.969zm13.152 3.154c-.596-.405-1.197-.608-1.805-.608-.33 0-.64.057-.931.171a2.229 2.229 0 00-.741.494c-.216.203-.387.45-.513.741a2.49 2.49 0 00-.171.95c0 .342.057.659.171.95.126.279.291.526.494.741.215.203.468.361.76.475.291.114.601.171.931.171.646 0 1.247-.222 1.805-.665v2.926c-.849.367-1.653.551-2.413.551-.71 0-1.387-.12-2.033-.361a5.35 5.35 0 01-1.691-1.026 5.29 5.29 0 01-1.159-1.615c-.292-.633-.437-1.336-.437-2.109 0-.773.139-1.476.418-2.109a4.924 4.924 0 011.14-1.653 4.978 4.978 0 011.71-1.083 5.774 5.774 0 012.147-.399c.836 0 1.608.177 2.318.532v2.926zm5.799-.285V16h-3.439V9.122h-1.14V6.253h1.14V3.327h3.439v2.926h1.957v2.869h-1.957zm6.689-2.869v5.491c0 1.203.583 1.805 1.748 1.805s1.748-.602 1.748-1.805V6.253h3.439v6.156c0 1.317-.437 2.305-1.311 2.964-.861.659-2.153.988-3.876.988-1.723 0-3.021-.33-3.895-.988-.861-.659-1.292-1.647-1.292-2.964V6.253h3.439zm9.271 0h3.439v1.596c.367-.583.817-1.026 1.349-1.33.532-.317 1.152-.475 1.862-.475h.285c.114 0 .24.013.38.038v3.287a3.267 3.267 0 00-1.482-.342c-.798 0-1.4.24-1.805.722-.393.469-.589 1.159-.589 2.071V16h-3.439V6.253zm12.154 4.845c0 .317.057.614.171.893.114.266.266.5.456.703.202.203.437.361.703.475.278.114.576.171.893.171.304 0 .589-.057.855-.171.278-.114.513-.272.703-.475.202-.203.361-.437.475-.703.126-.266.19-.551.19-.855 0-.304-.064-.589-.19-.855a2.18 2.18 0 00-.475-.722 1.977 1.977 0 00-.703-.475 2.147 2.147 0 00-.855-.171c-.317 0-.615.057-.893.171a2.216 2.216 0 00-.703.475 2.4 2.4 0 00-.456.703 2.014 2.014 0 00-.171.836zm4.332-4.845h3.458V16h-3.458v-1.083c-.735.925-1.729 1.387-2.983 1.387-.71 0-1.362-.127-1.957-.38a4.83 4.83 0 01-1.558-1.102 5.157 5.157 0 01-1.045-1.653 5.777 5.777 0 01-.361-2.071c0-.697.12-1.355.361-1.976a5.065 5.065 0 011.007-1.653c.43-.469.943-.836 1.539-1.102a4.602 4.602 0 011.976-.418c1.216 0 2.223.424 3.021 1.273v-.969zm12.258 2.508c-.633-.33-1.254-.494-1.862-.494-.317 0-.576.063-.779.19a.588.588 0 00-.285.513c0 .114.013.209.038.285a.626.626 0 00.209.19 2 2 0 00.475.171c.215.05.494.114.836.19.95.19 1.659.532 2.128 1.026.469.481.703 1.102.703 1.862 0 .57-.114 1.083-.342 1.539a3.366 3.366 0 01-.95 1.159 4.487 4.487 0 01-1.463.703 6.31 6.31 0 01-1.881.266c-1.317 0-2.616-.374-3.895-1.121l1.254-2.432c.963.659 1.875.988 2.736.988.317 0 .576-.07.779-.209.203-.14.304-.317.304-.532a.685.685 0 00-.057-.304.405.405 0 00-.19-.228 1.29 1.29 0 00-.456-.19 6.555 6.555 0 00-.76-.19c-1.064-.215-1.811-.532-2.242-.95-.418-.43-.627-1.02-.627-1.767 0-.545.101-1.032.304-1.463.203-.443.494-.817.874-1.121.38-.304.836-.538 1.368-.703a6.22 6.22 0 011.805-.247c1.077 0 2.122.209 3.135.627l-1.159 2.242zM108.456 35.098c0 .317.057.614.171.893.114.266.266.5.456.703.203.203.437.361.703.475a2.335 2.335 0 001.748 0c.279-.114.513-.272.703-.475.203-.203.361-.437.475-.703.127-.266.19-.551.19-.855 0-.304-.063-.589-.19-.855a2.165 2.165 0 00-.475-.722 1.968 1.968 0 00-.703-.475 2.147 2.147 0 00-.855-.171c-.304 0-.595.057-.874.171-.266.114-.5.272-.703.475-.19.203-.348.437-.475.703a2.014 2.014 0 00-.171.836zm4.332-10.868h3.458V40h-3.458v-1.083c-.735.925-1.729 1.387-2.983 1.387a4.743 4.743 0 01-3.515-1.501 5.174 5.174 0 01-1.045-1.653 5.722 5.722 0 01-.361-2.052c0-.697.114-1.355.342-1.976a5.083 5.083 0 011.007-1.653 4.637 4.637 0 011.539-1.102 4.73 4.73 0 011.995-.418c1.216 0 2.223.424 3.021 1.273V24.23zm12.923 9.481a2.067 2.067 0 00-.703-1.159c-.354-.291-.785-.437-1.292-.437-.532 0-.969.14-1.311.418-.329.279-.538.671-.627 1.178h3.933zm-4.028 1.995c0 1.482.697 2.223 2.09 2.223.748 0 1.311-.304 1.691-.912h3.325c-.671 2.23-2.349 3.344-5.035 3.344-.823 0-1.577-.12-2.261-.361a5.269 5.269 0 01-1.767-1.064c-.481-.456-.855-1-1.121-1.634-.266-.633-.399-1.343-.399-2.128 0-.81.127-1.539.38-2.185a4.617 4.617 0 011.083-1.672 4.714 4.714 0 011.691-1.045c.672-.253 1.425-.38 2.261-.38.824 0 1.565.127 2.223.38a4.4 4.4 0 011.672 1.064 4.645 4.645 0 011.045 1.729c.241.671.361 1.431.361 2.28v.361h-7.239zM137.022 40l2.432-14.326h3.686l2.869 7.638 2.85-7.638h3.686L154.977 40h-3.705l-1.235-8.246L146.655 40h-1.482l-3.211-8.246L140.727 40h-3.705zm26.596-6.289a2.067 2.067 0 00-.703-1.159c-.354-.291-.785-.437-1.292-.437-.532 0-.969.14-1.311.418-.329.279-.538.671-.627 1.178h3.933zm-4.028 1.995c0 1.482.697 2.223 2.09 2.223.748 0 1.311-.304 1.691-.912h3.325c-.671 2.23-2.349 3.344-5.035 3.344-.823 0-1.577-.12-2.261-.361a5.269 5.269 0 01-1.767-1.064c-.481-.456-.855-1-1.121-1.634-.266-.633-.399-1.343-.399-2.128 0-.81.127-1.539.38-2.185a4.617 4.617 0 011.083-1.672 4.714 4.714 0 011.691-1.045c.672-.253 1.425-.38 2.261-.38.824 0 1.565.127 2.223.38a4.4 4.4 0 011.672 1.064 4.645 4.645 0 011.045 1.729c.241.671.361 1.431.361 2.28v.361h-7.239zm12.397-.608c0 .317.057.614.171.893.114.266.266.5.456.703.203.203.437.361.703.475.279.114.577.171.893.171.304 0 .589-.057.855-.171.279-.114.513-.272.703-.475.203-.203.361-.437.475-.703.127-.266.19-.551.19-.855 0-.304-.063-.589-.19-.855a2.165 2.165 0 00-.475-.722 1.968 1.968 0 00-.703-.475 2.147 2.147 0 00-.855-.171c-.304 0-.595.057-.874.171-.266.114-.5.272-.703.475-.19.203-.348.437-.475.703a2.014 2.014 0 00-.171.836zm4.332-10.868h3.458V40h-3.458v-1.083c-.734.925-1.729 1.387-2.983 1.387a4.746 4.746 0 01-3.515-1.501 5.192 5.192 0 01-1.045-1.653 5.743 5.743 0 01-.361-2.052c0-.697.114-1.355.342-1.976a5.1 5.1 0 011.007-1.653 4.637 4.637 0 011.539-1.102 4.73 4.73 0 011.995-.418c1.216 0 2.223.424 3.021 1.273V24.23zm9.237 6.023V40h-3.439v-9.747h3.439zm-3.667-3.743c0-.266.051-.513.152-.741a1.958 1.958 0 011.026-1.045 1.94 1.94 0 012.546 1.045c.102.228.152.475.152.741s-.05.52-.152.76a1.986 1.986 0 01-1.045 1.026 1.94 1.94 0 01-1.501 0 2.012 2.012 0 01-1.026-1.026 1.945 1.945 0 01-.152-.76zm13.371 6.897c-.596-.405-1.197-.608-1.805-.608-.33 0-.64.057-.931.171a2.23 2.23 0 00-.741.494c-.216.203-.387.45-.513.741a2.49 2.49 0 00-.171.95c0 .342.057.659.171.95.126.279.291.526.494.741.215.203.468.361.76.475.291.114.601.171.931.171.646 0 1.247-.222 1.805-.665v2.926c-.849.367-1.653.551-2.413.551-.71 0-1.387-.12-2.033-.361a5.35 5.35 0 01-1.691-1.026 5.29 5.29 0 01-1.159-1.615c-.292-.633-.437-1.336-.437-2.109 0-.773.139-1.476.418-2.109a4.924 4.924 0 011.14-1.653 4.978 4.978 0 011.71-1.083 5.774 5.774 0 012.147-.399c.836 0 1.608.177 2.318.532v2.926zm5.153 1.691c0 .317.057.614.171.893.114.266.266.5.456.703.203.203.437.361.703.475a2.335 2.335 0 001.748 0c.279-.114.513-.272.703-.475.203-.203.361-.437.475-.703.127-.266.19-.551.19-.855 0-.304-.063-.589-.19-.855a2.165 2.165 0 00-.475-.722 1.968 1.968 0 00-.703-.475 2.335 2.335 0 00-1.748 0c-.266.114-.5.272-.703.475-.19.203-.342.437-.456.703a2.014 2.014 0 00-.171.836zm4.332-4.845h3.458V40h-3.458v-1.083c-.735.925-1.729 1.387-2.983 1.387a4.947 4.947 0 01-1.957-.38 4.84 4.84 0 01-1.558-1.102 5.174 5.174 0 01-1.045-1.653 5.777 5.777 0 01-.361-2.071c0-.697.12-1.355.361-1.976a5.083 5.083 0 011.007-1.653 4.637 4.637 0 011.539-1.102 4.602 4.602 0 011.976-.418c1.216 0 2.223.424 3.021 1.273v-.969zm5.798 0h3.439v1.596c.368-.583.817-1.026 1.349-1.33.532-.317 1.153-.475 1.862-.475h.285c.114 0 .241.013.38.038v3.287a3.267 3.267 0 00-1.482-.342c-.798 0-1.399.24-1.805.722-.392.469-.589 1.159-.589 2.071V40h-3.439v-9.747zm16.087 3.458a2.067 2.067 0 00-.703-1.159c-.355-.291-.785-.437-1.292-.437-.532 0-.969.14-1.311.418-.329.279-.538.671-.627 1.178h3.933zm-4.028 1.995c0 1.482.697 2.223 2.09 2.223.747 0 1.311-.304 1.691-.912h3.325c-.671 2.23-2.35 3.344-5.035 3.344-.823 0-1.577-.12-2.261-.361a5.269 5.269 0 01-1.767-1.064c-.481-.456-.855-1-1.121-1.634-.266-.633-.399-1.343-.399-2.128 0-.81.127-1.539.38-2.185a4.591 4.591 0 011.083-1.672 4.705 4.705 0 011.691-1.045c.671-.253 1.425-.38 2.261-.38.823 0 1.564.127 2.223.38a4.4 4.4 0 011.672 1.064c.456.469.804 1.045 1.045 1.729.241.671.361 1.431.361 2.28v.361h-7.239zm9.034 2.47c0-.304.057-.589.171-.855.114-.279.272-.52.475-.722.203-.203.437-.361.703-.475.279-.114.57-.171.874-.171.304 0 .589.057.855.171.279.114.519.272.722.475.203.203.361.443.475.722a2.287 2.287 0 010 1.729 2.17 2.17 0 01-1.197 1.178 2.147 2.147 0 01-.855.171c-.304 0-.595-.057-.874-.171a2.226 2.226 0 01-1.178-1.178 2.287 2.287 0 01-.171-.874zm6.457 0c0-.304.057-.589.171-.855.114-.279.272-.52.475-.722.203-.203.437-.361.703-.475.279-.114.57-.171.874-.171.304 0 .589.057.855.171.279.114.519.272.722.475.203.203.361.443.475.722a2.287 2.287 0 010 1.729 2.17 2.17 0 01-1.197 1.178 2.147 2.147 0 01-.855.171c-.304 0-.595-.057-.874-.171a2.226 2.226 0 01-1.178-1.178 2.287 2.287 0 01-.171-.874zm6.457 0c0-.304.057-.589.171-.855.114-.279.272-.52.475-.722.203-.203.437-.361.703-.475.279-.114.57-.171.874-.171.304 0 .589.057.855.171.279.114.519.272.722.475.203.203.361.443.475.722a2.287 2.287 0 010 1.729 2.17 2.17 0 01-1.197 1.178 2.147 2.147 0 01-.855.171c-.304 0-.595-.057-.874-.171a2.226 2.226 0 01-1.178-1.178 2.287 2.287 0 01-.171-.874z" fill="#fff"/></svg>