<svg width="173" height="28" viewBox="0 0 173 28" fill="none" xmlns="http://www.w3.org/2000/svg"><path d="M1.818 9.18c-.54 0-.936-.432-.936-.954s.414-.954.936-.954a.96.96 0 01.954.954.96.96 0 01-.954.954zm3.656 0c-.54 0-.936-.432-.936-.954s.414-.954.936-.954a.96.96 0 01.954.954.96.96 0 01-.954.954zm3.656 0c-.54 0-.936-.432-.936-.954s.414-.954.936-.954a.96.96 0 01.954.954.96.96 0 01-.954.954zm6.77 0c-2.43 0-4.14-2.016-4.14-4.554 0-2.574 1.71-4.572 4.14-4.572 1.405 0 2.647.576 3.295 1.71V.234h1.368V9h-1.368V7.47c-.648 1.152-1.89 1.71-3.294 1.71zm.307-1.332c1.674 0 2.988-1.386 2.988-3.222s-1.314-3.24-2.988-3.24c-1.746 0-3.042 1.368-3.042 3.24 0 1.854 1.296 3.222 3.042 3.222zM26.78 9V.234h1.368v1.512C28.635.792 29.733.054 30.957.054c1.404 0 2.394.612 2.808 1.854C34.395.63 35.763.054 36.789.054c2.106 0 3.222 1.224 3.222 3.636V9h-1.386V3.87c0-1.494-.522-2.484-2.124-2.484-1.476 0-2.412 1.188-2.412 2.502V9h-1.386V3.87c0-1.494-.522-2.484-2.106-2.484-1.53 0-2.448 1.296-2.448 2.574V9H26.78zm19.593.18c-2.484 0-4.59-1.782-4.59-4.554 0-2.538 1.908-4.572 4.41-4.572 2.34 0 4.194 2.016 4.194 4.518 0 .252-.036.522-.036.54h-7.146c.216 1.746 1.566 2.844 3.186 2.844.99 0 1.98-.342 2.7-.936l.594 1.008a5.364 5.364 0 01-3.312 1.152zm-3.168-5.112h5.832c-.144-1.62-1.386-2.79-2.916-2.79-1.494 0-2.718 1.152-2.916 2.79zM52.34 9V.234h1.369v1.494C54.319.666 55.453.054 56.748.054c2.197 0 3.168 1.332 3.168 3.636V9H58.55V3.87c0-1.62-.594-2.484-2.178-2.484-1.566 0-2.664 1.224-2.664 2.682V9H52.34zm13.987.18c-2.574 0-4.608-2.016-4.608-4.554 0-2.556 2.034-4.572 4.608-4.572s4.608 2.016 4.608 4.572c0 2.538-2.034 4.554-4.608 4.554zm0-1.332c1.818 0 3.204-1.386 3.204-3.222 0-1.854-1.386-3.24-3.204-3.24-1.818 0-3.204 1.386-3.204 3.24 0 1.836 1.386 3.222 3.204 3.222zm9.497 1.332c-1.782 0-2.916-.81-3.42-1.332l.558-1.116a3.999 3.999 0 002.862 1.152c1.206 0 2.196-.558 2.196-1.35 0-.918-1.062-1.17-2.124-1.44-1.62-.414-3.096-.864-3.096-2.538 0-1.584 1.656-2.502 3.132-2.502 1.206 0 2.088.324 2.988.936l-.54 1.116a4.137 4.137 0 00-2.43-.756c-.9 0-1.746.504-1.746 1.188 0 .864.972 1.062 1.998 1.278 1.584.36 3.222.954 3.222 2.682 0 1.854-1.89 2.682-3.6 2.682zm16.48 2.358V7.47c-.649 1.134-1.89 1.71-3.295 1.71-2.43 0-4.14-2.016-4.14-4.572s1.71-4.554 4.14-4.554c1.422 0 2.7.558 3.348 1.692V.234h1.314v11.304h-1.368zm-2.989-3.69c1.674 0 2.988-1.404 2.988-3.24 0-1.836-1.314-3.222-2.988-3.222-1.746 0-3.042 1.368-3.042 3.222 0 1.872 1.296 3.24 3.042 3.24zM99.01 9.18c-2.16 0-3.186-1.134-3.186-3.474V.234h1.368v5.292c0 1.638.792 2.322 2.214 2.322 1.584 0 2.502-1.296 2.502-2.646V.234h1.368V9h-1.314V7.452c-.54 1.134-1.8 1.728-2.952 1.728zm10.804 0c-2.484 0-4.59-1.782-4.59-4.554 0-2.538 1.908-4.572 4.41-4.572 2.34 0 4.194 2.016 4.194 4.518 0 .252-.036.522-.036.54h-7.146c.216 1.746 1.566 2.844 3.186 2.844.99 0 1.98-.342 2.7-.936l.594 1.008a5.364 5.364 0 01-3.312 1.152zm-3.168-5.112h5.832c-.144-1.62-1.386-2.79-2.916-2.79-1.494 0-2.718 1.152-2.916 2.79zm.942 23.47V16.234h1.314v1.512c.648-1.134 1.926-1.692 3.348-1.692 2.43 0 4.14 1.998 4.14 4.554s-1.71 4.572-4.14 4.572c-1.386 0-2.646-.576-3.294-1.71v4.068h-1.368zm4.356-3.69c1.746 0 3.042-1.368 3.042-3.24 0-1.854-1.296-3.222-3.042-3.222-1.674 0-2.988 1.386-2.988 3.222s1.314 3.24 2.988 3.24zM118.328 25v-8.766h1.368v1.854c.504-1.152 1.638-2.034 3.384-2.034v1.494c-2.052 0-3.384 1.152-3.384 3.294V25h-1.368zm6.328 0v-8.766h1.368V25h-1.368zm.684-10.332a.891.891 0 01-.9-.9c0-.504.396-.918.9-.918s.918.414.918.918-.414.9-.918.9zM128.33 25v-8.766h1.368v1.512c.486-.954 1.584-1.692 2.808-1.692 1.404 0 2.394.612 2.808 1.854.63-1.278 1.998-1.854 3.024-1.854 2.106 0 3.222 1.224 3.222 3.636V25h-1.386v-5.13c0-1.494-.522-2.484-2.124-2.484-1.476 0-2.412 1.188-2.412 2.502V25h-1.386v-5.13c0-1.494-.522-2.484-2.106-2.484-1.53 0-2.448 1.296-2.448 2.574V25h-1.368zm19.593.18c-2.484 0-4.59-1.782-4.59-4.554 0-2.538 1.908-4.572 4.41-4.572 2.34 0 4.194 2.016 4.194 4.518 0 .252-.036.522-.036.54h-7.146c.216 1.746 1.566 2.844 3.186 2.844.99 0 1.98-.342 2.7-.936l.594 1.008a5.364 5.364 0 01-3.312 1.152zm-3.168-5.112h5.832c-.144-1.62-1.386-2.79-2.916-2.79-1.494 0-2.718 1.152-2.916 2.79zM153.888 25v-8.766h1.368v1.854c.504-1.152 1.638-2.034 3.384-2.034v1.494c-2.052 0-3.384 1.152-3.384 3.294V25h-1.368zm10.401.18c-2.574 0-4.608-2.016-4.608-4.554 0-2.556 2.034-4.572 4.608-4.572s4.608 2.016 4.608 4.572c0 2.538-2.034 4.554-4.608 4.554zm0-1.332c1.818 0 3.204-1.386 3.204-3.222 0-1.854-1.386-3.24-3.204-3.24-1.818 0-3.204 1.386-3.204 3.24 0 1.836 1.386 3.222 3.204 3.222zm7.211 1.332c-.54 0-.936-.432-.936-.954s.414-.954.936-.954a.96.96 0 01.954.954.96.96 0 01-.954.954z" fill="#275D80"/><path d="M4.302 25.18c-1.8 0-2.772-1.044-2.772-3.078v-4.158H.216V16H1.53v-1.728l2.412-.54V16h2.484v1.944H3.942v4.122c0 .774.378 1.026.81 1.026.576 0 1.08-.324 1.152-.378l.684 1.782c-.54.36-1.332.684-2.286.684zm5.956-10.404l1.692-2.826h2.394l-2.106 2.826h-1.98zm.666 10.404c-2.485 0-3.277-1.458-3.277-3.798V16h2.412v5.058c0 1.26.54 1.836 1.657 1.836 1.26 0 1.872-1.062 1.872-2.286V16H16v9h-2.268v-1.26c-.54.882-1.764 1.44-2.808 1.44zm10.86-.18V13.156h2.411V25h-2.412zm8.79.18c-2.683 0-4.807-2.07-4.807-4.68s2.124-4.68 4.806-4.68c2.7 0 4.824 2.07 4.824 4.68s-2.124 4.68-4.824 4.68zm0-2.232c1.35 0 2.357-1.026 2.357-2.448 0-1.404-1.008-2.448-2.358-2.448s-2.358 1.044-2.358 2.448c0 1.422 1.008 2.448 2.358 2.448zm9.548 2.232c-1.926 0-3.168-.756-3.672-1.224l.864-1.854c.612.468 1.458.954 2.808.954.558 0 1.476-.216 1.476-.756s-.774-.666-1.548-.882c-1.782-.468-3.24-1.062-3.24-2.79 0-1.836 1.8-2.808 3.492-2.808 1.476 0 2.412.36 3.348.9l-.81 1.8c-.882-.432-1.71-.63-2.502-.63-.558 0-1.08.252-1.08.63 0 .504.756.666 1.584.846 1.53.36 3.204 1.026 3.204 2.862 0 2.214-2.25 2.952-3.924 2.952zm9.312-.18V13.156h2.412V25h-2.412zm4.254 0V13.156h2.411V25h-2.411zm8.051.18c-2.484 0-4.068-2.088-4.068-4.68 0-2.592 1.584-4.68 4.068-4.68 1.044 0 2.16.414 2.808 1.278V16h2.358v9h-2.358v-1.08c-.63.864-1.764 1.26-2.808 1.26zm.612-2.232c1.242 0 2.142-1.008 2.142-2.448 0-1.404-.9-2.448-2.142-2.448-1.296 0-2.232 1.044-2.232 2.448 0 1.422.936 2.448 2.232 2.448zM68.734 25v-9h2.358v1.206c.522-.81 1.584-1.386 2.664-1.386 1.422 0 2.304.594 2.772 1.602.648-1.08 1.89-1.602 2.916-1.602 2.538 0 3.33 1.746 3.33 4.05V25h-2.412v-4.824c0-1.188-.288-2.07-1.566-2.07-1.188 0-1.836.954-1.836 2.142V25h-2.412v-4.824c0-1.188-.27-2.07-1.566-2.07-1.224 0-1.836 1.044-1.836 2.232V25h-2.412zm20.412.18c-2.628 0-4.932-1.71-4.932-4.68 0-2.592 2.016-4.68 4.662-4.68 2.448 0 4.374 2.088 4.374 4.644 0 .432-.054.864-.054.864h-6.534c.288 1.242 1.314 1.836 2.502 1.836.864 0 1.764-.252 2.43-.702l.9 1.728a6.063 6.063 0 01-3.348.99zm-2.52-5.454h4.356c-.18-1.134-1.08-1.89-2.178-1.89-1.044 0-1.944.756-2.178 1.89zm11.416 5.454c-1.926 0-3.168-.756-3.672-1.224l.864-1.854c.612.468 1.458.954 2.808.954.558 0 1.476-.216 1.476-.756s-.774-.666-1.548-.882c-1.782-.468-3.24-1.062-3.24-2.79 0-1.836 1.8-2.808 3.492-2.808 1.476 0 2.412.36 3.348.9l-.81 1.8c-.882-.432-1.71-.63-2.502-.63-.558 0-1.08.252-1.08.63 0 .504.756.666 1.584.846 1.53.36 3.204 1.026 3.204 2.862 0 2.214-2.25 2.952-3.924 2.952z" fill="#091C29"/></svg>