<svg width="134" height="12" viewBox="0 0 134 12" fill="none" xmlns="http://www.w3.org/2000/svg"><path d="M6.743 6.55H1.56c.075.474.275.85.6 1.129.324.28.74.419 1.244.419.603 0 1.121-.219 1.555-.654l1.359.66c-.339.498-.745.865-1.218 1.104-.473.239-1.034.357-1.684.357-1.009 0-1.83-.329-2.464-.987C.318 7.918 0 7.095 0 6.103c0-.99.317-1.858.949-2.53.632-.67 1.425-1.005 2.38-1.005 1.012 0 1.835.336 2.47 1.006.634.67.951 1.556.951 2.658l-.005.318h-.002zM5.13 5.237a1.67 1.67 0 00-.63-.905 1.783 1.783 0 00-1.093-.35c-.45 0-.844.132-1.184.392-.213.163-.41.45-.593.863h3.5zM11.774 3.67l-.998 1.033C10.37 4.287 10 4.08 9.67 4.08c-.181 0-.324.04-.426.119a.36.36 0 00-.153.296c0 .09.032.173.097.248.065.075.225.178.482.308l.591.306c.623.318 1.05.642 1.283.972.232.33.349.718.349 1.162 0 .591-.21 1.084-.63 1.48-.42.395-.982.592-1.687.592-.939 0-1.687-.38-2.247-1.138l.993-1.12c.19.229.41.414.665.554.253.14.48.211.677.211.213 0 .384-.053.514-.158.13-.106.194-.228.194-.367 0-.257-.234-.508-.702-.753l-.544-.28c-1.04-.543-1.56-1.222-1.56-2.037 0-.526.196-.976.588-1.349.392-.373.894-.56 1.504-.56.417 0 .81.096 1.18.285.368.19.68.462.936.816v.004zM13.463 7.651c.256 0 .475.093.656.279.181.186.271.41.271.675 0 .265-.09.492-.27.68a.88.88 0 01-.657.28.882.882 0 01-.657-.28.942.942 0 01-.271-.68c0-.265.09-.49.271-.675.181-.186.4-.279.657-.279zM16.99.398H18.6l2.017 6.276L22.652.398h1.612l1.46 8.998h-1.6l-.932-5.682-1.848 5.682h-1.46l-1.83-5.682-.955 5.682h-1.615L16.989.398zM33.245 6.552h-5.184c.075.474.275.85.6 1.13.325.278.74.418 1.245.418.603 0 1.122-.218 1.556-.655l1.36.661c-.339.497-.745.866-1.22 1.105-.472.24-1.034.358-1.684.358-1.009 0-1.83-.329-2.465-.988-.635-.659-.953-1.483-.953-2.473 0-.99.316-1.859.949-2.528.633-.67 1.426-1.006 2.38-1.006 1.012 0 1.835.336 2.47 1.006.634.672.952 1.556.952 2.656l-.006.318h-.002l.002-.002zm-1.614-1.315A1.676 1.676 0 0031 4.332a1.783 1.783 0 00-1.093-.35c-.45 0-.844.132-1.185.392-.213.163-.411.451-.592.863h3.5zM39.154.17h1.614v9.224h-1.614V8.69c-.316.31-.631.534-.948.67-.315.136-.66.205-1.03.205-.831 0-1.549-.333-2.156-1-.606-.665-.91-1.495-.91-2.486 0-.991.292-1.87.88-2.527.587-.656 1.298-.985 2.138-.985.386 0 .748.075 1.086.225.339.15.65.378.938.68V.17h.002zm-1.698 3.94a1.6 1.6 0 00-1.243.547c-.33.365-.496.833-.496 1.404s.169 1.048.504 1.419c.335.37.748.555 1.24.555.491 0 .927-.181 1.26-.547.334-.365.5-.842.5-1.435 0-.593-.167-1.048-.5-1.408-.334-.357-.755-.537-1.266-.537v.002zM43.05 0c.282 0 .525.107.727.318.202.212.304.47.304.77 0 .302-.101.552-.302.762a.963.963 0 01-.717.316.984.984 0 01-.734-.322 1.098 1.098 0 01-.304-.78c0-.306.1-.544.299-.752A.971.971 0 0143.048 0h.002zm-.807 2.74h1.614v6.654h-1.614V2.74zM51.57 4.087l-1.343.766c-.251-.274-.502-.462-.748-.57a2.17 2.17 0 00-.867-.159c-.603 0-1.092.185-1.465.558-.372.372-.559.85-.559 1.432s.179 1.027.54 1.387c.358.358.83.538 1.414.538.722 0 1.284-.256 1.686-.766l1.271.901c-.69.93-1.662 1.393-2.92 1.393-1.133 0-2.017-.346-2.657-1.04-.64-.694-.962-1.505-.962-2.435 0-.644.157-1.237.466-1.78a3.373 3.373 0 011.304-1.279 3.787 3.787 0 011.87-.464c.64 0 1.212.132 1.72.395.51.263.924.637 1.247 1.123v.002l.003-.002zM57.178 2.74h1.614v6.653h-1.614V8.69c-.315.31-.63.534-.947.67-.316.135-.66.205-1.031.205-.83 0-1.548-.334-2.155-1-.606-.666-.91-1.495-.91-2.486 0-.991.292-1.87.88-2.527.587-.657 1.298-.985 2.137-.985.386 0 .748.075 1.087.225.339.15.65.378.938.68v-.735.002h.001zM55.48 4.11a1.6 1.6 0 00-1.243.547c-.33.365-.495.833-.495 1.404s.168 1.048.503 1.418c.336.371.748.556 1.24.556s.928-.181 1.26-.547c.335-.365.5-.843.5-1.435 0-.593-.167-1.048-.5-1.408-.333-.358-.754-.538-1.266-.538v.003h.001zM60.162 2.74h1.383v.838c.149-.33.35-.582.597-.752.248-.17.52-.257.816-.257.208 0 .428.056.656.17l-.502 1.437c-.19-.097-.345-.147-.466-.147-.248 0-.458.16-.63.478-.172.318-.258.942-.258 1.872l.006.325v2.692h-1.601V2.739h-.002zM70.521 6.552h-5.184c.075.474.275.85.6 1.13.325.278.74.418 1.245.418.603 0 1.122-.218 1.555-.655l1.36.661c-.338.497-.744.866-1.218 1.105-.473.24-1.034.358-1.685.358-1.009 0-1.83-.329-2.465-.988-.635-.659-.953-1.483-.953-2.473 0-.99.316-1.859.95-2.528.632-.67 1.425-1.006 2.379-1.006 1.012 0 1.835.336 2.47 1.006.634.672.952 1.556.952 2.656l-.006.318h-.002l.002-.002zm-1.614-1.315a1.675 1.675 0 00-.631-.905 1.789 1.789 0 00-1.092-.35c-.45 0-.845.132-1.186.392-.213.163-.411.451-.592.863h3.5zM72.184 7.652c.255 0 .475.094.656.279.181.185.272.411.272.675 0 .264-.09.492-.272.68a.882.882 0 01-.656.28.882.882 0 01-.656-.28.94.94 0 01-.272-.68c0-.266.09-.49.272-.675a.888.888 0 01.656-.279zM79.03 2.74h1.608v5.7c0 1.124-.218 1.952-.656 2.483C79.395 11.64 78.51 12 77.327 12c-.63 0-1.16-.08-1.59-.243a2.826 2.826 0 01-1.087-.72 2.963 2.963 0 01-.657-1.151h1.78c.157.187.359.329.608.426.248.096.543.143.881.143.433 0 .782-.07 1.046-.208.265-.14.45-.318.56-.538.107-.22.163-.6.163-1.137a2.684 2.684 0 01-.892.633 2.755 2.755 0 01-1.059.194c-.864 0-1.592-.322-2.187-.968-.594-.644-.892-1.459-.892-2.446 0-1.055.316-1.905.946-2.546.57-.578 1.253-.867 2.044-.867.371 0 .72.07 1.05.211.329.142.66.372.989.694V2.74zm-1.672 1.39c-.51 0-.928.176-1.26.527-.332.353-.496.797-.496 1.331 0 .534.17 1.01.509 1.363.338.354.764.532 1.277.532.512 0 .913-.173 1.237-.52.325-.346.488-.801.488-1.363 0-.561-.163-1.005-.491-1.352-.326-.347-.748-.52-1.264-.52v.001zM85.19 2.57c.606 0 1.177.158 1.712.47.533.315.95.74 1.25 1.28.299.538.448 1.12.448 1.744 0 .624-.15 1.214-.452 1.761a3.307 3.307 0 01-1.233 1.28 3.31 3.31 0 01-1.72.463c-.921 0-1.709-.34-2.362-1.02-.653-.678-.978-1.501-.978-2.472 0-1.04.368-1.907 1.105-2.6.646-.604 1.388-.905 2.229-.905l.002-.003-.001.001zm.026 1.573c-.502 0-.918.18-1.252.54-.334.362-.5.823-.5 1.387 0 .564.165 1.047.495 1.407.33.36.747.538 1.253.538.505 0 .925-.181 1.26-.545.336-.363.504-.83.504-1.4 0-.571-.165-1.036-.495-1.391-.33-.356-.75-.536-1.264-.536zM88.762 2.74h1.645l1.624 3.928 1.622-3.928h1.635L92.55 9.394h-1.046L88.761 2.74h.003-.002z" fill="#A6DAFC"/><path d="M95.546 11.006L99.47.086h1.161l-3.933 10.92h-1.153zM102.316.344h4.815v1.68h-3.163v1.642h2.055v1.655h-2.055v4.073h-1.652V.342v.002zM107.979 2.7h1.392v.843c.151-.333.351-.585.601-.758.249-.172.523-.258.821-.258.21 0 .43.058.66.173l-.506 1.446c-.19-.098-.347-.147-.47-.147-.249 0-.46.16-.633.48-.173.32-.258.948-.258 1.882l.005.327v2.707h-1.61V2.7h-.002zM117.029 2.7h1.624v6.695h-1.624v-.708c-.316.312-.634.536-.953.673a2.58 2.58 0 01-1.037.207c-.834 0-1.558-.335-2.167-1.006-.61-.67-.915-1.505-.915-2.5 0-.997.295-1.881.885-2.542.59-.66 1.307-.992 2.15-.992.388 0 .753.076 1.092.228.341.153.656.38.944.683V2.7h.001zm-1.705 1.379a1.61 1.61 0 00-1.25.55c-.332.368-.498.838-.498 1.413 0 .575.169 1.055.507 1.428.337.373.754.56 1.248.56s.932-.183 1.268-.55c.337-.367.504-.849.504-1.443 0-.594-.169-1.053-.504-1.414-.336-.362-.761-.542-1.274-.542l-.001-.002zM120.288 2.7h1.641v3.224c0 .628.042 1.063.125 1.308.084.244.218.434.403.569.184.134.411.203.683.203.271 0 .499-.068.688-.2.189-.134.33-.33.42-.589.067-.193.101-.605.101-1.237v-3.28h1.624v2.837c0 1.169-.09 1.97-.268 2.4-.218.526-.539.928-.964 1.21-.424.28-.964.42-1.618.42-.709 0-1.283-.163-1.721-.491-.438-.328-.745-.786-.924-1.372-.126-.405-.19-1.144-.19-2.215V2.7zM132.376.115H134v9.278h-1.624v-.708c-.316.312-.634.537-.953.674a2.58 2.58 0 01-1.037.206c-.835 0-1.558-.335-2.167-1.006-.61-.67-.915-1.504-.915-2.5s.295-1.88.885-2.542c.59-.66 1.307-.991 2.15-.991.388 0 .753.075 1.092.228.341.152.656.38.944.683V.114l.001.001zm-1.705 3.962c-.503 0-.919.184-1.251.551-.331.367-.497.838-.497 1.413 0 .574.169 1.054.507 1.428.337.373.754.56 1.248.56s.932-.184 1.268-.55c.337-.368.503-.85.503-1.443 0-.594-.168-1.054-.503-1.415-.336-.361-.761-.541-1.274-.541l-.001-.003z" fill="#fff"/></svg>