<svg width="119" height="27" viewBox="0 0 119 27" fill="none" xmlns="http://www.w3.org/2000/svg"><rect x="1" y="1" width="117" height="25" rx="2" fill="#51B9FA" stroke="#99CAE9" stroke-width="2"/><path d="M11.125 17V9.872h2.97c2.387 0 3.883 1.617 3.883 3.564S16.482 17 14.095 17h-2.97zm2.09-1.771h.803c1.067 0 1.749-.759 1.749-1.793 0-1.023-.682-1.793-1.75-1.793h-.802v3.586zM19.076 17V9.872h5.665v1.771h-3.575v.869h3.432v1.749h-3.432v.968h3.707V17h-5.797zm8.586 0v-5.357H25.43V9.872h6.556v1.771h-2.233V17h-2.09zm5.255 0V9.872h5.665v1.771h-3.575v.869h3.432v1.749h-3.432v.968h3.707V17h-5.797zm1.826-7.48l1.155-1.969h1.925L36.228 9.52h-1.485zM39.655 17V9.872h1.815l2.266 3.157c.165.22.32.539.32.539V9.872h2.09V17H44.33l-2.266-3.102c-.165-.22-.319-.539-.319-.539V17h-2.09zm10.361 0V9.872h5.665v1.771h-3.575v.869h3.432v1.749h-3.432v.968h3.707V17h-5.797zm6.738 0V9.872h2.09v5.357h3.795V17h-5.885zm9.426 0V9.872h5.5v1.771h-3.41v.869h2.981v1.749H68.27V17h-2.09zm6.265 0V9.872h3.146c2.19 0 3.311 1.265 3.311 2.816 0 .825-.374 1.672-1.122 2.189L79.111 17h-2.387l-.814-1.529c-.22.022-.34.033-.517.033h-.858V17h-2.09zm2.09-3.267h1.078c.65 0 1.078-.473 1.078-1.045 0-.583-.44-1.045-1.067-1.045h-1.089v2.09zM79.483 17l2.882-7.128h2.156L87.403 17h-2.134l-.33-.924h-2.992l-.33.924h-2.134zm3.025-2.53h1.87l-.847-2.409c-.066-.176-.077-.242-.088-.286 0 0-.022.099-.088.286l-.847 2.409zm8.525 2.662c-1.804 0-3.179-1.001-3.179-2.959V9.872h2.09v4.18c0 .858.495 1.188 1.09 1.188.593 0 1.088-.33 1.088-1.188v-4.18h2.09v4.301c0 1.958-1.375 2.959-3.179 2.959zM95.506 17V9.872h2.97c2.387 0 3.883 1.617 3.883 3.564S100.863 17 98.476 17h-2.97zm2.09-1.771h.803c1.067 0 1.749-.759 1.749-1.793 0-1.023-.682-1.793-1.75-1.793h-.802v3.586zM103.458 17V9.872h5.665v1.771h-3.575v.869h3.432v1.749h-3.432v.968h3.707V17h-5.797z" fill="#091C29"/></svg>