<svg width="184" height="48" viewBox="0 0 184 48" fill="none" xmlns="http://www.w3.org/2000/svg"><path d="M.152 18V1.152h1.846l4.108 5.72c.884 1.248 2.73 3.9 2.73 3.9s1.846-2.626 2.73-3.874l4.108-5.746h1.846V18h-2.08V4.662s-.442.806-1.248 1.924l-5.356 7.54-5.382-7.592C2.7 5.468 2.232 4.662 2.232 4.662V18H.152zm27.1.26c-3.587 0-6.63-2.574-6.63-6.578 0-3.666 2.756-6.604 6.37-6.604 3.38 0 6.058 2.912 6.058 6.526 0 .364-.051.754-.051.78H22.675c.313 2.522 2.263 4.108 4.603 4.108 1.43 0 2.86-.494 3.9-1.352l.857 1.456a7.748 7.748 0 01-4.784 1.664zm-4.575-7.384H31.1c-.209-2.34-2.002-4.03-4.212-4.03-2.159 0-3.927 1.664-4.212 4.03zm18.652 7.384c-3.51 0-5.98-2.912-5.98-6.578 0-3.718 2.47-6.604 5.98-6.604 2.028 0 3.822.832 4.758 2.47V.892h1.976V18h-1.898v-2.21c-.936 1.664-2.782 2.47-4.836 2.47zm.442-1.924c2.418 0 4.316-2.002 4.316-4.654s-1.898-4.68-4.316-4.68c-2.522 0-4.394 1.976-4.394 4.68 0 2.678 1.872 4.654 4.394 4.654zM51.383 18V5.338h1.976V18h-1.976zm.988-14.924c-.728 0-1.3-.572-1.3-1.3A1.31 1.31 0 0152.37.45c.728 0 1.326.598 1.326 1.326 0 .728-.598 1.3-1.326 1.3zM62.825 18.26c-3.718 0-6.656-2.886-6.656-6.578s2.938-6.604 6.656-6.604c1.742 0 3.328.624 4.524 1.69l-1.248 1.404c-.78-.728-1.924-1.17-3.25-1.17-2.652 0-4.654 1.976-4.654 4.68 0 2.626 1.924 4.654 4.706 4.654 1.43 0 2.73-.546 3.614-1.43l1.144 1.482c-1.222 1.17-2.938 1.872-4.836 1.872zm12.375 0c-3.51 0-5.98-2.912-5.98-6.578 0-3.718 2.47-6.604 5.98-6.604 2.028 0 3.822.832 4.758 2.47v-2.21h1.976V18h-1.976v-2.21c-.936 1.664-2.73 2.47-4.758 2.47zm.442-1.924c2.418 0 4.316-2.002 4.316-4.654s-1.898-4.68-4.316-4.68c-2.522 0-4.394 1.976-4.394 4.68 0 2.678 1.872 4.654 4.394 4.654zM85.254 18V5.338h1.976v2.678c.728-1.664 2.366-2.938 4.888-2.938v2.158c-2.964 0-4.888 1.664-4.888 4.758V18h-1.976zm14.997.26c-3.588 0-6.63-2.574-6.63-6.578 0-3.666 2.756-6.604 6.37-6.604 3.38 0 6.058 2.912 6.058 6.526 0 .364-.052.754-.052.78H95.675c.312 2.522 2.262 4.108 4.602 4.108 1.43 0 2.86-.494 3.9-1.352l.858 1.456a7.748 7.748 0 01-4.784 1.664zm-4.576-7.384h8.424c-.208-2.34-2.002-4.03-4.212-4.03-2.158 0-3.926 1.664-4.212 4.03zM46.334 47.26c-2.236 0-3.562-1.092-3.562-4.056v-7.228h-1.898v-1.638h1.898v-2.73l1.976-.364v3.094h4.316v1.638h-4.316v7.28c0 1.742.754 2.236 1.768 2.236 1.17 0 2.08-.702 2.08-.702l.65 1.534c-.494.338-1.534.936-2.912.936zm10.696 0c-3.588 0-6.63-2.574-6.63-6.578 0-3.666 2.756-6.604 6.37-6.604 3.38 0 6.058 2.912 6.058 6.526 0 .364-.052.754-.052.78H52.454c.312 2.522 2.262 4.108 4.602 4.108 1.43 0 2.86-.494 3.9-1.352l.858 1.456a7.748 7.748 0 01-4.784 1.664zm-4.576-7.384h8.424c-.208-2.34-2.002-4.03-4.212-4.03-2.158 0-3.926 1.664-4.212 4.03zm23.95 7.384c-3.718 0-6.656-2.886-6.656-6.578s2.938-6.604 6.656-6.604c1.742 0 3.328.624 4.524 1.69l-1.248 1.404c-.78-.728-1.924-1.17-3.25-1.17-2.652 0-4.654 1.976-4.654 4.68 0 2.626 1.924 4.654 4.706 4.654 1.43 0 2.73-.546 3.614-1.43l1.144 1.482c-1.222 1.17-2.938 1.872-4.836 1.872zm12.531 0c-3.718 0-6.656-2.912-6.656-6.578 0-3.692 2.938-6.604 6.656-6.604 3.718 0 6.656 2.912 6.656 6.604 0 3.666-2.938 6.578-6.656 6.578zm0-1.924c2.626 0 4.628-2.002 4.628-4.654 0-2.678-2.002-4.68-4.628-4.68-2.626 0-4.628 2.002-4.628 4.68 0 2.652 2.002 4.654 4.628 4.654zM97.87 47V34.338h1.976v2.158c.884-1.534 2.522-2.418 4.394-2.418 3.172 0 4.576 1.924 4.576 5.252V47h-1.976v-7.41c0-2.34-.858-3.588-3.146-3.588-2.262 0-3.848 1.768-3.848 3.874V47h-1.976zm17.784.26c-2.236 0-3.562-1.092-3.562-4.056v-7.228h-1.898v-1.638h1.898v-2.73l1.976-.364v3.094h4.316v1.638h-4.316v7.28c0 1.742.754 2.236 1.768 2.236 1.17 0 2.08-.702 2.08-.702l.65 1.534c-.494.338-1.534.936-2.912.936zm10.046 0c-3.51 0-5.98-2.912-5.98-6.578 0-3.718 2.47-6.604 5.98-6.604 2.028 0 3.822.832 4.758 2.47v-2.21h1.976V47h-1.976v-2.21c-.936 1.664-2.73 2.47-4.758 2.47zm.442-1.924c2.418 0 4.316-2.002 4.316-4.654s-1.898-4.68-4.316-4.68c-2.522 0-4.394 1.976-4.394 4.68 0 2.678 1.872 4.654 4.394 4.654zm15.228 1.924c-3.718 0-6.656-2.886-6.656-6.578s2.938-6.604 6.656-6.604c1.742 0 3.328.624 4.524 1.69l-1.248 1.404c-.78-.728-1.924-1.17-3.25-1.17-2.652 0-4.654 1.976-4.654 4.68 0 2.626 1.924 4.654 4.706 4.654 1.43 0 2.73-.546 3.614-1.43l1.144 1.482c-1.222 1.17-2.938 1.872-4.836 1.872zm10.912 0c-2.236 0-3.562-1.092-3.562-4.056v-7.228h-1.898v-1.638h1.898v-2.73l1.976-.364v3.094h4.316v1.638h-4.316v7.28c0 1.742.754 2.236 1.768 2.236 1.17 0 2.08-.702 2.08-.702l.65 1.534c-.494.338-1.534.936-2.912.936zm10.046 0c-3.51 0-5.98-2.912-5.98-6.578 0-3.718 2.47-6.604 5.98-6.604 2.028 0 3.822.832 4.758 2.47v-2.21h1.976V47h-1.976v-2.21c-.936 1.664-2.73 2.47-4.758 2.47zm.442-1.924c2.418 0 4.316-2.002 4.316-4.654s-1.898-4.68-4.316-4.68c-2.522 0-4.394 1.976-4.394 4.68 0 2.678 1.872 4.654 4.394 4.654zm10.053 1.924c-.78 0-1.352-.624-1.352-1.378 0-.754.598-1.378 1.352-1.378.754 0 1.378.624 1.378 1.378 0 .754-.624 1.378-1.378 1.378zm4.761 0c-.78 0-1.352-.624-1.352-1.378 0-.754.598-1.378 1.352-1.378.754 0 1.378.624 1.378 1.378 0 .754-.624 1.378-1.378 1.378zm4.762 0c-.78 0-1.352-.624-1.352-1.378 0-.754.598-1.378 1.352-1.378.754 0 1.378.624 1.378 1.378 0 .754-.624 1.378-1.378 1.378z" fill="#275D80"/><path d="M114.217 18V5h3.406v1.742c1.04-1.43 2.522-2.002 4.108-2.002 3.432 0 4.628 2.21 4.628 5.772V18h-3.484v-7.046c0-1.898-.494-2.912-2.262-2.912-1.742 0-2.912 1.404-2.912 3.38V18h-3.484zm19.149.26c-3.588 0-4.732-2.106-4.732-5.486V5h3.484v7.306c0 1.82.78 2.652 2.392 2.652 1.82 0 2.704-1.534 2.704-3.302V5h3.484v13h-3.276v-1.82c-.78 1.274-2.548 2.08-4.056 2.08zm9.974-.26V5h3.406v1.742c1.04-1.43 2.522-2.002 4.108-2.002 3.432 0 4.628 2.21 4.628 5.772V18h-3.484v-7.046c0-1.898-.494-2.912-2.262-2.912-1.742 0-2.912 1.404-2.912 3.38V18h-3.484zm21.151.26c-3.874 0-6.942-2.99-6.942-6.76 0-3.77 3.068-6.76 6.942-6.76 1.794 0 3.354.598 4.654 1.664l-2.106 2.444c-.598-.546-1.43-.884-2.47-.884-2.028 0-3.484 1.482-3.484 3.536 0 2.028 1.378 3.536 3.588 3.536 1.092 0 2.158-.416 2.834-1.066l1.846 2.6c-1.248 1.066-2.99 1.69-4.862 1.69zm11.731 0c-3.588 0-5.876-3.016-5.876-6.76 0-3.744 2.288-6.76 5.876-6.76 1.508 0 3.12.598 4.056 1.846V5h3.406v13h-3.406v-1.56c-.91 1.248-2.548 1.82-4.056 1.82zm.884-3.224c1.794 0 3.094-1.456 3.094-3.536 0-2.028-1.3-3.536-3.094-3.536-1.872 0-3.224 1.508-3.224 3.536 0 2.054 1.352 3.536 3.224 3.536z" fill="#091C29"/></svg>