<svg width="249" height="26" viewBox="0 0 249 26" fill="none" xmlns="http://www.w3.org/2000/svg"><path d="M5.8 20.186h1.304c.986 0 1.866-.155 2.64-.464.773-.31 1.42-.735 1.942-1.276a5.225 5.225 0 001.218-1.914 6.81 6.81 0 00.435-2.465c0-.87-.145-1.682-.435-2.436a5.503 5.503 0 00-1.247-1.943c-.522-.541-1.17-.967-1.943-1.276-.773-.31-1.643-.464-2.61-.464H5.8v12.238zM.114 3.134h8.41c1.489 0 2.881.3 4.176.899 1.315.6 2.456 1.402 3.422 2.407.986.986 1.76 2.146 2.32 3.48.561 1.315.841 2.697.841 4.147a10.6 10.6 0 01-.84 4.147 10.786 10.786 0 01-2.292 3.48 11.059 11.059 0 01-3.422 2.407c-1.295.6-2.697.899-4.205.899H.115V3.134zm33.18 12.267c-.174-.735-.532-1.324-1.073-1.769-.541-.445-1.199-.667-1.972-.667-.812 0-1.479.213-2 .638-.503.425-.823 1.025-.958 1.798h6.003zm-6.148 3.045c0 2.262 1.064 3.393 3.19 3.393 1.14 0 2.001-.464 2.581-1.392h5.075c-1.025 3.403-3.586 5.104-7.685 5.104-1.256 0-2.407-.184-3.45-.551-1.045-.387-1.944-.928-2.698-1.624a7.267 7.267 0 01-1.71-2.494c-.407-.967-.61-2.05-.61-3.248 0-1.237.194-2.349.58-3.335.387-1.005.938-1.856 1.653-2.552.715-.696 1.576-1.228 2.581-1.595 1.025-.387 2.175-.58 3.451-.58 1.257 0 2.388.193 3.393.58 1.006.367 1.856.909 2.552 1.624.696.715 1.228 1.595 1.595 2.639.367 1.025.551 2.185.551 3.48v.551H27.147zm20.106-3.944V25h-5.25V14.502h-1.74v-4.379h1.74V5.657h5.25v4.466h2.987v4.379h-2.987zm16.118.899c-.174-.735-.531-1.324-1.073-1.769-.541-.445-1.198-.667-1.972-.667-.812 0-1.479.213-2 .638-.503.425-.822 1.025-.958 1.798h6.003zm-6.148 3.045c0 2.262 1.064 3.393 3.19 3.393 1.141 0 2.001-.464 2.581-1.392h5.075c-1.024 3.403-3.586 5.104-7.685 5.104-1.256 0-2.407-.184-3.45-.551-1.045-.387-1.944-.928-2.698-1.624a7.267 7.267 0 01-1.71-2.494c-.407-.967-.61-2.05-.61-3.248 0-1.237.194-2.349.58-3.335.387-1.005.938-1.856 1.653-2.552.716-.696 1.576-1.228 2.581-1.595 1.025-.387 2.175-.58 3.451-.58 1.257 0 2.388.193 3.393.58 1.006.367 1.856.909 2.552 1.624.696.715 1.228 1.595 1.595 2.639.368 1.025.551 2.185.551 3.48v.551H57.223zM65.14 3.482l-5.046 4.466-2.436-1.798 4.147-5.075 3.335 2.407zm6.133 6.641h5.249v1.885c.715-.87 1.44-1.45 2.175-1.74.734-.31 1.595-.464 2.58-.464 1.045 0 1.934.174 2.669.522a5.173 5.173 0 011.914 1.421c.425.503.715 1.063.87 1.682.154.619.232 1.324.232 2.117V25h-5.25v-7.511c0-.735-.057-1.324-.173-1.769-.097-.464-.28-.831-.551-1.102a1.99 1.99 0 00-.783-.493c-.29-.097-.6-.145-.928-.145-.89 0-1.576.27-2.06.812-.463.522-.695 1.276-.695 2.262V25h-5.25V10.123zm39.988 5.278c-.174-.735-.532-1.324-1.073-1.769-.541-.445-1.199-.667-1.972-.667-.812 0-1.479.213-2.001.638-.503.425-.822 1.025-.957 1.798h6.003zm-6.148 3.045c0 2.262 1.063 3.393 3.19 3.393 1.141 0 2.001-.464 2.581-1.392h5.075c-1.025 3.403-3.586 5.104-7.685 5.104-1.257 0-2.407-.184-3.451-.551-1.044-.387-1.943-.928-2.697-1.624a7.263 7.263 0 01-1.711-2.494c-.406-.967-.609-2.05-.609-3.248 0-1.237.193-2.349.58-3.335.387-1.005.938-1.856 1.653-2.552.715-.696 1.576-1.228 2.581-1.595 1.025-.387 2.175-.58 3.451-.58 1.257 0 2.388.193 3.393.58 1.005.367 1.856.909 2.552 1.624.696.715 1.228 1.595 1.595 2.639.367 1.025.551 2.185.551 3.48v.551h-11.049zM124.411.93V25h-5.249V.93h5.249zm19.127 13.572V25h-5.249V14.502h-1.885v-4.379h1.885V7.89c0-1.237.116-2.223.348-2.958a5.08 5.08 0 01.928-1.711 6.719 6.719 0 011.479-1.392A7.473 7.473 0 01142.9.93a6.286 6.286 0 011.943-.319c.444 0 .85.048 1.218.145a6.94 6.94 0 011.16.406v4.582a4.866 4.866 0 00-.986-.377c-.29-.097-.6-.145-.928-.145-.213 0-.435.039-.667.116-.213.058-.416.193-.609.406-.194.213-.329.522-.406.928-.058.387-.087.918-.087 1.595v1.856h3.683v4.379h-3.683zm5.644-4.379h5.249v2.436c.561-.89 1.247-1.566 2.059-2.03.812-.483 1.759-.725 2.842-.725h.435c.174 0 .367.02.58.058v5.017a4.987 4.987 0 00-2.262-.522c-1.218 0-2.136.367-2.755 1.102-.599.715-.899 1.769-.899 3.161V25h-5.249V10.123zm18.551 7.395c0 .483.087.938.261 1.363.174.406.406.764.696 1.073.309.31.667.551 1.073.725a3.56 3.56 0 001.363.261c.464 0 .899-.087 1.305-.261a3.012 3.012 0 001.073-.725c.309-.31.551-.667.725-1.073.193-.406.29-.841.29-1.305 0-.464-.097-.899-.29-1.305a3.318 3.318 0 00-.725-1.102 3.012 3.012 0 00-1.073-.725 3.278 3.278 0 00-1.305-.261 3.56 3.56 0 00-1.363.261 3.39 3.39 0 00-1.073.725c-.29.31-.522.667-.696 1.073a3.074 3.074 0 00-.261 1.276zm6.612-7.395h5.278V25h-5.278v-1.653c-1.122 1.411-2.639 2.117-4.553 2.117-1.083 0-2.079-.193-2.987-.58a7.379 7.379 0 01-2.378-1.682 7.879 7.879 0 01-1.595-2.523c-.368-.967-.551-2.02-.551-3.161 0-1.063.183-2.069.551-3.016a7.74 7.74 0 011.537-2.523 7.062 7.062 0 012.349-1.682c.908-.425 1.914-.638 3.016-.638 1.856 0 3.393.648 4.611 1.943v-1.479zm14.099 0v8.381c0 1.837.889 2.755 2.668 2.755 1.778 0 2.668-.918 2.668-2.755v-8.381h5.249v9.396c0 2.01-.667 3.519-2.001 4.524-1.315 1.005-3.287 1.508-5.916 1.508-2.63 0-4.611-.503-5.945-1.508-1.315-1.005-1.972-2.513-1.972-4.524v-9.396h5.249zm19.022 7.395c0 .483.087.938.261 1.363.174.406.406.764.696 1.073.309.31.667.551 1.073.725.425.174.88.261 1.363.261.464 0 .899-.087 1.305-.261a3.012 3.012 0 001.073-.725c.309-.31.551-.667.725-1.073.193-.406.29-.841.29-1.305 0-.464-.097-.899-.29-1.305a3.318 3.318 0 00-.725-1.102 3.012 3.012 0 00-1.073-.725 3.278 3.278 0 00-1.305-.261c-.464 0-.909.087-1.334.261a3.39 3.39 0 00-1.073.725 4.18 4.18 0 00-.725 1.073 3.074 3.074 0 00-.261 1.276zM214.078.93h5.278V25h-5.278v-1.653c-1.121 1.411-2.639 2.117-4.553 2.117-1.083 0-2.078-.203-2.987-.609a7.39 7.39 0 01-2.378-1.682 7.896 7.896 0 01-1.595-2.523 8.752 8.752 0 01-.551-3.132c0-1.063.174-2.069.522-3.016a7.756 7.756 0 011.537-2.523 7.062 7.062 0 012.349-1.682c.928-.425 1.943-.638 3.045-.638 1.856 0 3.393.648 4.611 1.943V.93zm19.725 14.471c-.174-.735-.532-1.324-1.073-1.769-.541-.445-1.199-.667-1.972-.667-.812 0-1.479.213-2.001.638-.503.425-.822 1.025-.957 1.798h6.003zm-6.148 3.045c0 2.262 1.063 3.393 3.19 3.393 1.141 0 2.001-.464 2.581-1.392h5.075c-1.025 3.403-3.586 5.104-7.685 5.104-1.257 0-2.407-.184-3.451-.551-1.044-.387-1.943-.928-2.697-1.624a7.263 7.263 0 01-1.711-2.494c-.406-.967-.609-2.05-.609-3.248 0-1.237.193-2.349.58-3.335.387-1.005.938-1.856 1.653-2.552.715-.696 1.576-1.228 2.581-1.595 1.025-.387 2.175-.58 3.451-.58 1.257 0 2.388.193 3.393.58 1.005.367 1.856.909 2.552 1.624.696.715 1.228 1.595 1.595 2.639.367 1.025.551 2.185.551 3.48v.551h-11.049zm13.788 3.77c0-.464.087-.899.261-1.305a3.318 3.318 0 011.798-1.827c.426-.174.87-.261 1.334-.261.464 0 .899.087 1.305.261.426.174.793.416 1.102.725.31.31.551.677.725 1.102.174.406.261.841.261 1.305 0 .464-.087.909-.261 1.334a3.382 3.382 0 01-.725 1.073c-.309.31-.676.551-1.102.725a3.278 3.278 0 01-1.305.261c-.464 0-.908-.087-1.334-.261a3.401 3.401 0 01-1.798-1.798 3.49 3.49 0 01-.261-1.334z" fill="#fff"/></svg>