<svg width="230" height="25" viewBox="0 0 230 25" fill="none" xmlns="http://www.w3.org/2000/svg"><path d="M.542 17.688c0-.438.16-.817.48-1.137.321-.32.704-.48 1.15-.48.445 0 .827.16 1.148.48.32.32.48.703.48 1.148 0 .453-.16.84-.48 1.16a1.562 1.562 0 01-1.149.47c-.46 0-.847-.157-1.16-.47-.312-.312-.469-.703-.469-1.172zm5.247 0c0-.438.16-.817.48-1.137.32-.32.703-.48 1.148-.48.446 0 .829.16 1.149.48.32.32.48.703.48 1.148 0 .453-.16.84-.48 1.16a1.562 1.562 0 01-1.149.47c-.46 0-.847-.157-1.16-.47-.312-.312-.468-.703-.468-1.172zm5.246 0c0-.438.16-.817.48-1.137.32-.32.703-.48 1.149-.48.445 0 .828.16 1.148.48.32.32.48.703.48 1.148 0 .453-.16.84-.48 1.16a1.562 1.562 0 01-1.148.47c-.461 0-.848-.157-1.16-.47-.313-.312-.47-.703-.47-1.172zm4.536-9.974h3.982V9.1c1.085-1.041 2.302-1.562 3.652-1.562 1.672 0 2.948.704 3.828 2.112.894-1.423 2.17-2.134 3.828-2.134.528 0 1.026.08 1.496.242.47.147.873.389 1.21.726.337.323.601.748.792 1.276.205.528.308 1.166.308 1.914V19h-3.982v-5.566c0-.572-.044-1.041-.132-1.408-.073-.367-.19-.653-.352-.858a1.104 1.104 0 00-.528-.418 1.948 1.948 0 00-.66-.11c-1.276 0-1.914.931-1.914 2.794V19h-3.982v-5.566c0-.572-.037-1.041-.11-1.408-.074-.381-.184-.682-.33-.902a.963.963 0 00-.528-.44 2.065 2.065 0 00-.77-.132c-.25 0-.484.037-.704.11-.22.073-.418.22-.594.44-.162.205-.293.499-.396.88-.088.367-.132.85-.132 1.452V19H15.57V7.714zm30.078 4.004c-.132-.557-.403-1.005-.814-1.342-.41-.337-.91-.506-1.496-.506-.616 0-1.122.161-1.518.484-.381.323-.623.777-.726 1.364h4.554zm-4.664 2.31c0 1.716.807 2.574 2.42 2.574.865 0 1.518-.352 1.958-1.056h3.85c-.777 2.581-2.72 3.872-5.83 3.872-.953 0-1.826-.14-2.618-.418a6.1 6.1 0 01-2.046-1.232 5.513 5.513 0 01-1.298-1.892c-.308-.733-.462-1.555-.462-2.464 0-.939.147-1.782.44-2.53a5.325 5.325 0 011.254-1.936 5.447 5.447 0 011.958-1.21c.777-.293 1.65-.44 2.618-.44.953 0 1.811.147 2.574.44.763.279 1.408.69 1.936 1.232.528.543.931 1.21 1.21 2.002.279.777.418 1.657.418 2.64v.418h-8.382zm10.658-6.314h3.982v1.43c.543-.66 1.093-1.1 1.65-1.32.557-.235 1.21-.352 1.958-.352.792 0 1.467.132 2.024.396.572.25 1.056.609 1.452 1.078.323.381.543.807.66 1.276.117.47.176 1.005.176 1.606V19h-3.982v-5.698c0-.557-.044-1.005-.132-1.342-.073-.352-.213-.63-.418-.836a1.508 1.508 0 00-.594-.374 2.213 2.213 0 00-.704-.11c-.675 0-1.195.205-1.562.616-.352.396-.528.968-.528 1.716V19h-3.982V7.714zm22.09 2.904c-.734-.381-1.453-.572-2.157-.572-.366 0-.667.073-.901.22a.68.68 0 00-.33.594c0 .132.014.242.043.33a.72.72 0 00.242.22c.133.073.316.14.55.198.25.059.572.132.968.22 1.1.22 1.922.616 2.465 1.188.542.557.814 1.276.814 2.156 0 .66-.133 1.254-.397 1.782s-.63.975-1.1 1.342c-.469.352-1.034.623-1.694.814a7.306 7.306 0 01-2.178.308c-1.525 0-3.028-.433-4.51-1.298l1.453-2.816c1.114.763 2.17 1.144 3.167 1.144.367 0 .668-.08.902-.242.235-.161.353-.367.353-.616a.793.793 0 00-.067-.352.47.47 0 00-.22-.264c-.117-.088-.293-.161-.527-.22a7.614 7.614 0 00-.88-.22c-1.233-.25-2.098-.616-2.597-1.1-.484-.499-.726-1.18-.726-2.046 0-.63.118-1.195.352-1.694a3.506 3.506 0 011.013-1.298c.44-.352.968-.623 1.584-.814a7.2 7.2 0 012.09-.286c1.246 0 2.456.242 3.63.726l-1.343 2.596zm7.409 2.706c0 .367.066.711.198 1.034.132.308.308.58.528.814.235.235.506.418.814.55.322.132.667.198 1.034.198.352 0 .682-.066.99-.198.322-.132.594-.315.814-.55.234-.235.418-.506.55-.814.147-.308.22-.638.22-.99s-.074-.682-.22-.99a2.513 2.513 0 00-.55-.836 2.282 2.282 0 00-.814-.55 2.486 2.486 0 00-.99-.198c-.367 0-.712.066-1.034.198-.308.132-.58.315-.814.55a2.78 2.78 0 00-.528.814 2.332 2.332 0 00-.198.968zm5.016-5.61h4.004V19h-4.004v-1.254c-.85 1.07-2.002 1.606-3.454 1.606a5.729 5.729 0 01-2.266-.44 5.606 5.606 0 01-1.804-1.276 5.993 5.993 0 01-1.21-1.914 6.699 6.699 0 01-.418-2.398c0-.807.14-1.57.418-2.288a5.887 5.887 0 011.166-1.914 5.363 5.363 0 011.782-1.276c.69-.323 1.452-.484 2.288-.484 1.408 0 2.574.491 3.498 1.474V7.714zm11.104 0v16.918H93.28V7.714h3.982zM93.016 3.38c0-.308.058-.594.176-.858a2.25 2.25 0 01.484-.726c.205-.205.44-.367.704-.484a2.245 2.245 0 012.948 1.21 2.244 2.244 0 010 1.738 2.319 2.319 0 01-.484.704 2.248 2.248 0 01-.726.484 2.245 2.245 0 01-1.738 0 2.321 2.321 0 01-.704-.484 2.322 2.322 0 01-.484-.704 2.245 2.245 0 01-.176-.88zm15.217 8.338c-.132-.557-.403-1.005-.814-1.342-.411-.337-.909-.506-1.496-.506-.616 0-1.122.161-1.518.484-.381.323-.623.777-.726 1.364h4.554zm-4.664 2.31c0 1.716.807 2.574 2.42 2.574.865 0 1.518-.352 1.958-1.056h3.85c-.777 2.581-2.721 3.872-5.83 3.872-.953 0-1.826-.14-2.618-.418a6.1 6.1 0 01-2.046-1.232 5.519 5.519 0 01-1.298-1.892c-.308-.733-.462-1.555-.462-2.464 0-.939.147-1.782.44-2.53a5.319 5.319 0 011.254-1.936 5.448 5.448 0 011.958-1.21c.777-.293 1.65-.44 2.618-.44.953 0 1.811.147 2.574.44.763.279 1.408.69 1.936 1.232.528.543.931 1.21 1.21 2.002.279.777.418 1.657.418 2.64v.418h-8.382zm18.138-3.41c-.733-.381-1.452-.572-2.156-.572-.367 0-.667.073-.902.22a.68.68 0 00-.33.594c0 .132.015.242.044.33a.724.724 0 00.242.22c.132.073.315.14.55.198.249.059.572.132.968.22 1.1.22 1.921.616 2.464 1.188.543.557.814 1.276.814 2.156 0 .66-.132 1.254-.396 1.782a3.897 3.897 0 01-1.1 1.342c-.469.352-1.034.623-1.694.814a7.306 7.306 0 01-2.178.308c-1.525 0-3.029-.433-4.51-1.298l1.452-2.816c1.115.763 2.171 1.144 3.168 1.144.367 0 .667-.08.902-.242.235-.161.352-.367.352-.616a.793.793 0 00-.066-.352.47.47 0 00-.22-.264c-.117-.088-.293-.161-.528-.22a7.593 7.593 0 00-.88-.22c-1.232-.25-2.097-.616-2.596-1.1-.484-.499-.726-1.18-.726-2.046 0-.63.117-1.195.352-1.694a3.51 3.51 0 011.012-1.298c.44-.352.968-.623 1.584-.814a7.201 7.201 0 012.09-.286 9.43 9.43 0 013.63.726l-1.342 2.596zm14.886 2.706c0 .367.066.711.198 1.034.132.308.308.58.528.814.235.235.506.418.814.55.323.132.667.198 1.034.198.352 0 .682-.066.99-.198a2.28 2.28 0 00.814-.55 2.57 2.57 0 00.55-.814c.147-.308.22-.638.22-.99s-.073-.682-.22-.99a2.508 2.508 0 00-.55-.836 2.28 2.28 0 00-.814-.55 2.486 2.486 0 00-.99-.198c-.352 0-.689.066-1.012.198a2.577 2.577 0 00-.814.55c-.22.235-.403.506-.55.814a2.332 2.332 0 00-.198.968zM141.609.74h4.004V19h-4.004v-1.254c-.851 1.07-2.002 1.606-3.454 1.606a5.491 5.491 0 01-4.07-1.738 5.991 5.991 0 01-1.21-1.914 6.626 6.626 0 01-.418-2.376c0-.807.132-1.57.396-2.288a5.885 5.885 0 011.166-1.914 5.369 5.369 0 011.782-1.276 5.477 5.477 0 012.31-.484c1.408 0 2.574.491 3.498 1.474V.74zm14.964 10.978c-.132-.557-.404-1.005-.814-1.342-.411-.337-.91-.506-1.496-.506-.616 0-1.122.161-1.518.484-.382.323-.624.777-.726 1.364h4.554zm-4.664 2.31c0 1.716.806 2.574 2.42 2.574.865 0 1.518-.352 1.958-1.056h3.85c-.778 2.581-2.721 3.872-5.83 3.872-.954 0-1.826-.14-2.618-.418a6.1 6.1 0 01-2.046-1.232 5.505 5.505 0 01-1.298-1.892c-.308-.733-.462-1.555-.462-2.464 0-.939.146-1.782.44-2.53a5.317 5.317 0 011.254-1.936 5.44 5.44 0 011.958-1.21c.777-.293 1.65-.44 2.618-.44.953 0 1.811.147 2.574.44.762.279 1.408.69 1.936 1.232.528.543.931 1.21 1.21 2.002.278.777.418 1.657.418 2.64v.418h-8.382zm22.579-2.992V19h-3.982v-7.964h-1.32V7.714h1.32V4.326h3.982v3.388h2.266v3.322h-2.266zm12.227.682c-.132-.557-.403-1.005-.814-1.342-.41-.337-.909-.506-1.496-.506-.616 0-1.122.161-1.518.484-.381.323-.623.777-.726 1.364h4.554zm-4.664 2.31c0 1.716.807 2.574 2.42 2.574.866 0 1.518-.352 1.958-1.056h3.85c-.777 2.581-2.72 3.872-5.83 3.872-.953 0-1.826-.14-2.618-.418a6.1 6.1 0 01-2.046-1.232 5.519 5.519 0 01-1.298-1.892c-.308-.733-.462-1.555-.462-2.464 0-.939.147-1.782.44-2.53a5.343 5.343 0 011.254-1.936 5.456 5.456 0 011.958-1.21c.778-.293 1.65-.44 2.618-.44.954 0 1.812.147 2.574.44.763.279 1.408.69 1.936 1.232.528.543.932 1.21 1.21 2.002.279.777.418 1.657.418 2.64v.418h-8.382zm14.325-1.144l-4.576-5.17h5.192l1.936 2.332 1.98-2.332h5.192l-4.686 5.17L207.068 19h-5.28l-2.882-3.344L196.002 19h-5.258l5.632-6.116zm16.504-1.848V19h-3.982v-7.964h-1.32V7.714h1.32V4.326h3.982v3.388h2.266v3.322h-2.266zm7.718 2.266c0 .381.066.733.198 1.056.147.308.33.58.55.814.235.235.506.418.814.55.323.132.66.198 1.012.198s.682-.066.99-.198a2.28 2.28 0 00.814-.55 2.57 2.57 0 00.55-.814c.147-.323.22-.667.22-1.034 0-.352-.073-.682-.22-.99a2.508 2.508 0 00-.55-.836 2.28 2.28 0 00-.814-.55 2.486 2.486 0 00-.99-.198c-.352 0-.689.066-1.012.198a2.577 2.577 0 00-.814.55c-.22.235-.403.506-.55.814a2.486 2.486 0 00-.198.99zm-4.202-.044c0-.836.169-1.613.506-2.332a5.621 5.621 0 011.408-1.892 6.623 6.623 0 012.134-1.276c.836-.308 1.746-.462 2.728-.462.968 0 1.863.154 2.684.462a6.274 6.274 0 012.156 1.254 5.424 5.424 0 011.43 1.914c.338.733.506 1.547.506 2.442 0 .895-.176 1.716-.528 2.464a5.827 5.827 0 01-1.408 1.914c-.601.528-1.327.939-2.178 1.232-.836.293-1.745.44-2.728.44a7.93 7.93 0 01-2.684-.44 6.324 6.324 0 01-2.134-1.254 5.944 5.944 0 01-1.386-1.936c-.337-.763-.506-1.606-.506-2.53z" fill="#fff"/></svg>