<svg width="146" height="25" viewBox="0 0 146 25" fill="none" xmlns="http://www.w3.org/2000/svg"><path d="M6.051 16.748c0 .485.084.933.252 1.344.187.392.42.737.7 1.036.299.299.644.532 1.036.7.41.168.84.252 1.288.252.448 0 .868-.084 1.26-.252.41-.168.756-.401 1.036-.7.299-.299.532-.644.7-1.036.187-.41.28-.85.28-1.316 0-.448-.093-.868-.28-1.26a3.2 3.2 0 00-.7-1.064 2.905 2.905 0 00-1.036-.7 3.165 3.165 0 00-1.26-.252 3.37 3.37 0 00-1.288.252 3.276 3.276 0 00-1.036.7c-.28.299-.513.644-.7 1.036a3.164 3.164 0 00-.252 1.26zm-5.348-.056c0-1.064.215-2.053.644-2.968a7.137 7.137 0 011.792-2.408c.765-.69 1.67-1.232 2.716-1.624 1.064-.392 2.221-.588 3.472-.588 1.232 0 2.37.196 3.416.588 1.064.373 1.979.905 2.744 1.596a6.909 6.909 0 011.82 2.436c.43.933.644 1.97.644 3.108 0 1.139-.224 2.184-.672 3.136a7.435 7.435 0 01-1.792 2.436c-.765.672-1.69 1.195-2.772 1.568-1.064.373-2.221.56-3.472.56-1.232 0-2.37-.187-3.416-.56-1.045-.373-1.95-.905-2.716-1.596a7.54 7.54 0 01-1.764-2.464c-.43-.97-.644-2.044-.644-3.22zm40.181-1.96c-.168-.71-.513-1.279-1.036-1.708-.523-.43-1.157-.644-1.904-.644-.784 0-1.428.205-1.932.616-.485.41-.793.99-.924 1.736h5.796zm-5.936 2.94c0 2.184 1.027 3.276 3.08 3.276 1.101 0 1.932-.448 2.492-1.344h4.9c-.99 3.285-3.463 4.928-7.42 4.928-1.213 0-2.324-.177-3.332-.532-1.008-.373-1.876-.896-2.604-1.568a7.018 7.018 0 01-1.652-2.408c-.392-.933-.588-1.979-.588-3.136 0-1.195.187-2.268.56-3.22.373-.97.905-1.792 1.596-2.464a6.935 6.935 0 012.492-1.54c.99-.373 2.1-.56 3.332-.56 1.213 0 2.305.187 3.276.56.97.355 1.792.877 2.464 1.568.672.69 1.185 1.54 1.54 2.548.355.99.532 2.11.532 3.36v.532H34.948zm13.565-8.036h5.068V11.4c1.381-1.325 2.93-1.988 4.648-1.988 2.128 0 3.752.896 4.872 2.688 1.139-1.81 2.763-2.716 4.872-2.716.672 0 1.307.103 1.904.308.597.187 1.11.495 1.54.924.43.41.765.952 1.008 1.624.261.672.392 1.484.392 2.436V24h-5.068v-7.084c0-.728-.056-1.325-.168-1.792-.093-.467-.243-.83-.448-1.092a1.407 1.407 0 00-.672-.532 2.48 2.48 0 00-.84-.14c-1.624 0-2.436 1.185-2.436 3.556V24h-5.068v-7.084c0-.728-.047-1.325-.14-1.792-.093-.485-.233-.868-.42-1.148a1.225 1.225 0 00-.672-.56 2.628 2.628 0 00-.98-.168c-.317 0-.616.047-.896.14-.28.093-.532.28-.756.56-.205.261-.373.635-.504 1.12-.112.467-.168 1.083-.168 1.848V24h-5.068V9.636zm32.485 7.14c0 .467.084.905.252 1.316.168.392.392.737.672 1.036.299.299.644.532 1.036.7.41.168.85.252 1.316.252.448 0 .868-.084 1.26-.252.41-.168.756-.401 1.036-.7.299-.299.532-.644.7-1.036.187-.392.28-.812.28-1.26 0-.448-.093-.868-.28-1.26a3.198 3.198 0 00-.7-1.064 2.904 2.904 0 00-1.036-.7 3.165 3.165 0 00-1.26-.252c-.466 0-.905.084-1.316.252a3.276 3.276 0 00-1.036.7c-.28.299-.504.644-.672 1.036a2.968 2.968 0 00-.252 1.232zm6.384-7.14h5.096V24h-5.096v-1.596c-1.083 1.363-2.548 2.044-4.396 2.044-1.045 0-2.007-.187-2.884-.56a7.134 7.134 0 01-2.296-1.624 7.625 7.625 0 01-1.54-2.436c-.355-.933-.532-1.95-.532-3.052 0-1.027.178-1.997.532-2.912a7.49 7.49 0 011.484-2.436 6.825 6.825 0 012.268-1.624c.877-.41 1.848-.616 2.912-.616 1.792 0 3.276.625 4.452 1.876V9.636zm13.613 0V24h-5.068V9.636h5.068zM95.591 4.12c0-.392.075-.756.224-1.092.15-.355.355-.663.616-.924s.56-.467.896-.616c.355-.15.728-.224 1.12-.224.392 0 .756.075 1.092.224.355.15.663.355.924.616s.467.57.616.924c.149.336.224.7.224 1.092 0 .392-.075.765-.224 1.12a2.953 2.953 0 01-.616.896c-.261.261-.57.467-.924.616-.336.15-.7.224-1.092.224-.392 0-.765-.075-1.12-.224a2.953 2.953 0 01-.896-.616 2.953 2.953 0 01-.616-.896 2.858 2.858 0 01-.224-1.12zM109.526.76V24h-5.068V.76h5.068zm12.984 12.572c-.934-.485-1.848-.728-2.744-.728-.467 0-.85.093-1.148.28-.28.187-.42.439-.42.756 0 .168.018.308.056.42a.911.911 0 00.308.28c.168.093.401.177.7.252.317.075.728.168 1.232.28 1.4.28 2.445.784 3.136 1.512.69.71 1.036 1.624 1.036 2.744 0 .84-.168 1.596-.504 2.268a4.96 4.96 0 01-1.4 1.708c-.598.448-1.316.793-2.156 1.036-.84.261-1.764.392-2.772.392-1.942 0-3.855-.55-5.74-1.652l1.848-3.584c1.418.97 2.762 1.456 4.032 1.456.466 0 .849-.103 1.148-.308.298-.205.448-.467.448-.784 0-.187-.028-.336-.084-.448a.601.601 0 00-.28-.336c-.15-.112-.374-.205-.672-.28a9.722 9.722 0 00-1.12-.28c-1.568-.317-2.67-.784-3.304-1.4-.616-.635-.924-1.503-.924-2.604 0-.803.149-1.521.448-2.156a4.457 4.457 0 011.288-1.652c.56-.448 1.232-.793 2.016-1.036.802-.243 1.689-.364 2.66-.364 1.586 0 3.126.308 4.62.924l-1.708 3.304zm5.582 9.027c0-.547.201-1.02.601-1.42.4-.4.879-.601 1.436-.601.556 0 1.035.2 1.435.6.4.4.601.88.601 1.436 0 .566-.201 1.05-.601 1.45-.391.39-.869.586-1.435.586-.577 0-1.06-.195-1.451-.586-.39-.39-.586-.879-.586-1.465zm6.858 0c0-.547.2-1.02.601-1.42.4-.4.879-.601 1.435-.601.557 0 1.035.2 1.436.6.4.4.6.88.6 1.436 0 .566-.2 1.05-.6 1.45-.391.39-.869.586-1.436.586-.576 0-1.059-.195-1.45-.586-.39-.39-.586-.879-.586-1.465zm6.858 0c0-.547.2-1.02.601-1.42.4-.4.879-.601 1.435-.601.557 0 1.035.2 1.436.6.4.4.6.88.6 1.436 0 .566-.2 1.05-.6 1.45-.391.39-.869.586-1.436.586-.576 0-1.059-.195-1.45-.586-.391-.39-.586-.879-.586-1.465z" fill="#fff"/></svg>