<svg width="438" height="20" viewBox="0 0 438 20" fill="none" xmlns="http://www.w3.org/2000/svg"><path d="M4.304 17.416c0 1.224-.672 1.872-2.04 1.872C.872 19.288.2 18.664.2 17.416c0-1.224.672-1.872 2.064-1.872 1.344 0 2.04.648 2.04 1.872zm6.756 0c0 1.224-.672 1.872-2.04 1.872-1.392 0-2.064-.624-2.064-1.872 0-1.224.672-1.872 2.064-1.872 1.344 0 2.04.648 2.04 1.872zm6.755 0c0 1.224-.672 1.872-2.04 1.872-1.392 0-2.064-.624-2.064-1.872 0-1.224.672-1.872 2.064-1.872 1.344 0 2.04.648 2.04 1.872zm14.991.288l-.12-.024c-.912.888-2.112 1.608-4.032 1.608-3.024 0-3.504-2.064-3.504-3.552 0-2.4 1.464-3.48 4.488-3.696l2.76-.192v-1.32c0-1.128-.12-1.896-1.608-1.896-1.152 0-1.752.168-1.752 1.608l-3.384-.288c0-3.24 2.952-3.696 5.16-3.696 3.648 0 5.112.984 5.112 4.344v5.832c0 .384.024.432.384.48l1.152.192V19h-4.416l-.24-1.296zm-2.04-3.744c-1.416.096-1.92.456-1.92 1.416s.576 1.32 1.368 1.32c.816 0 1.632-.456 2.184-.864V13.84l-1.632.12zm23.78 4.152c-1.105.672-2.809 1.176-4.56 1.176-4.345 0-6.289-2.712-6.289-6.36 0-4.488 2.736-6.672 6.576-6.672 1.872 0 3.528.528 4.272 1.008v3.768l-2.568-.12-.288-1.584c-.024-.168-.072-.312-.288-.384-.288-.096-.744-.168-1.224-.168-1.44 0-2.664.984-2.664 3.792 0 3.12 1.392 4.008 3.096 4.008 1.2 0 2.28-.384 3-.696l.936 2.232zm9.098-.408l-.12-.024c-.912.888-2.112 1.608-4.032 1.608-3.024 0-3.504-2.064-3.504-3.552 0-2.4 1.464-3.48 4.488-3.696l2.76-.192v-1.32c0-1.128-.12-1.896-1.608-1.896-1.152 0-1.752.168-1.752 1.608l-3.384-.288c0-3.24 2.952-3.696 5.16-3.696 3.648 0 5.112.984 5.112 4.344v5.832c0 .384.024.432.384.48l1.152.192V19h-4.416l-.24-1.296zm-2.04-3.744c-1.416.096-1.92.456-1.92 1.416s.576 1.32 1.368 1.32c.816 0 1.632-.456 2.184-.864V13.84l-1.632.12zm23.007-2.712c0-.936-.096-2.064-1.344-2.064-.672 0-1.32.24-1.944.648.048.384.072.768.072 1.176v5.448c0 .408.024.456.384.504l.96.144V19h-4.968v-7.872c0-.888-.072-1.944-1.272-1.944-.72 0-1.512.36-1.992.768v6.504c0 .384.024.432.384.48l1.176.168V19h-6.648v-1.896l1.08-.168c.336-.048.384-.12.384-.48V9.4c0-.264-.072-.432-.312-.504l-1.296-.456.264-1.944h4.224l.192 1.248.12.024c1.08-.888 2.304-1.512 3.84-1.512 1.176 0 2.256.312 2.928 1.44.792-.624 2.184-1.44 3.864-1.44 2.568 0 3.528 1.272 3.528 4.056v6.144c0 .384.024.456.384.504l1.2.144V19h-5.208v-7.752zM91.851 19c.168-1.08.36-2.328.36-3.504V3.784c0-.264-.072-.432-.312-.504l-1.32-.456.264-1.944h4.944v6.648l.096.024c1.032-.84 2.16-1.296 3.624-1.296 2.592 0 4.632 1.68 4.632 6.144 0 4.944-2.088 6.888-5.04 6.888-1.584 0-2.784-.672-3.528-1.512l-.12.024-.168 1.2h-3.432zm3.96-3.456c.552.504 1.368.936 2.208.936 1.584 0 2.328-1.488 2.328-3.888 0-1.872-.6-3.504-2.208-3.504-.864 0-1.752.456-2.328.84v5.616zm15.06-13.128c0 1.368-.792 2.16-2.184 2.16-1.368 0-2.16-.792-2.16-2.16s.792-2.112 2.16-2.112c1.392 0 2.184.744 2.184 2.112zm-5.28 14.688l1.224-.168c.336-.048.384-.12.384-.48V9.4c0-.264-.072-.432-.312-.504l-1.296-.456.264-1.944h4.968v9.96c0 .384.024.432.384.48l1.224.168V19h-6.84v-1.896zm14.17 2.184c-4.392 0-6.168-2.688-6.168-6.456 0-3.984 2.088-6.576 6.48-6.576 4.44 0 6.168 2.64 6.168 6.312 0 4.08-2.064 6.72-6.48 6.72zm.168-2.52c1.56 0 2.52-1.08 2.52-4.08 0-2.832-.864-3.84-2.424-3.84-1.584 0-2.64.984-2.64 3.864 0 2.904.936 4.056 2.544 4.056zm21.893.888l-.168-.024c-1.008.984-2.184 1.656-3.936 1.656-2.832 0-4.656-1.8-4.656-6.384 0-4.824 2.424-6.648 5.088-6.648 1.392 0 2.472.48 3.384 1.152V3.76c0-.24-.096-.408-.312-.48l-1.32-.456.264-1.944h4.824v15.6c0 .36.024.408.384.456l1.152.168V19h-4.464l-.24-1.344zm-.432-7.896c-.6-.408-1.368-.72-2.064-.72-1.776 0-2.472 1.656-2.472 3.792 0 2.328.672 3.624 2.184 3.624.816 0 1.704-.48 2.352-1.032V9.76zm17.34 8.304c-1.488.72-3.12 1.224-4.92 1.224-4.632 0-6.216-2.88-6.216-6.624 0-4.344 2.664-6.408 5.952-6.408 3.168 0 5.28 1.656 5.28 5.808 0 .288-.024 1.128-.048 1.608h-7.344c.12 1.704.864 2.832 2.832 2.832.936 0 1.944-.216 3.576-.816l.888 2.376zm-3.456-6.672c-.024-2.016-.816-2.544-1.8-2.544-1.032 0-1.872.576-2.016 2.544h3.816zm19.525 6.936c-1.032.504-2.544.96-3.912.96-2.856 0-3.936-1.152-3.936-3.864V9.136c0-.144 0-.24-.192-.24h-1.68V6.76c2.112-.24 2.952-1.296 3.216-3.912h2.28v3.408c0 .168 0 .24.192.24h3.384v2.4h-3.576v5.736c0 1.416.336 1.968 1.632 1.968.672 0 1.368-.168 1.944-.384l.648 2.112zm10.107-.624l-.12-.024c-.984.744-2.232 1.608-4.272 1.608-2.52 0-3.48-1.44-3.48-4.224V9.208c0-.384-.024-.432-.384-.504l-1.152-.24.24-1.968h4.92v7.944c0 1.464.24 2.016 1.272 2.016 1.056 0 1.92-.6 2.472-1.104V9.184c0-.384-.024-.408-.384-.48l-1.032-.24.264-1.968h4.776v9.96c0 .312.048.408.336.456l1.2.168V19h-4.464l-.192-1.296zm19.876-6.456c0-1.152-.072-2.112-1.272-2.112-.888 0-1.992.504-2.496.888v6.432c0 .384.024.432.384.48l1.152.168V19h-6.624v-1.92l1.08-.144c.336-.048.384-.12.384-.48V9.4c0-.264-.072-.432-.312-.504l-1.296-.456.288-1.944h4.2l.192 1.248.096.048c1.2-.888 2.592-1.536 4.224-1.536 2.616 0 3.624 1.44 3.624 4.08v6.12c0 .384.024.432.384.48l1.2.168V19h-5.208v-7.752zm15.39 6.456l-.12-.024c-.984.744-2.232 1.608-4.272 1.608-2.52 0-3.48-1.44-3.48-4.224V9.208c0-.384-.024-.432-.384-.504l-1.152-.24.24-1.968h4.92v7.944c0 1.464.24 2.016 1.272 2.016 1.056 0 1.92-.6 2.472-1.104V9.184c0-.384-.024-.408-.384-.48l-1.032-.24.264-1.968h4.776v9.96c0 .312.048.408.336.456l1.2.168V19h-4.464l-.192-1.296zM215.18 4.336L218.852.16l1.968 1.872-4.296 3.504-1.344-1.2zm26.113 6.912c0-.936-.096-2.064-1.344-2.064-.672 0-1.32.24-1.944.648.048.384.072.768.072 1.176v5.448c0 .408.024.456.384.504l.96.144V19h-4.968v-7.872c0-.888-.072-1.944-1.272-1.944-.72 0-1.512.36-1.992.768v6.504c0 .384.024.432.384.48l1.176.168V19h-6.648v-1.896l1.08-.168c.336-.048.384-.12.384-.48V9.4c0-.264-.072-.432-.312-.504l-1.296-.456.264-1.944h4.224l.192 1.248.12.024c1.08-.888 2.304-1.512 3.84-1.512 1.176 0 2.256.312 2.928 1.44.792-.624 2.184-1.44 3.864-1.44 2.568 0 3.528 1.272 3.528 4.056v6.144c0 .384.024.456.384.504l1.2.144V19h-5.208v-7.752zm17.537 6.816c-1.488.72-3.12 1.224-4.92 1.224-4.632 0-6.216-2.88-6.216-6.624 0-4.344 2.664-6.408 5.952-6.408 3.168 0 5.28 1.656 5.28 5.808 0 .288-.024 1.128-.048 1.608h-7.344c.12 1.704.864 2.832 2.832 2.832.936 0 1.944-.216 3.576-.816l.888 2.376zm-3.456-6.672c-.024-2.016-.816-2.544-1.8-2.544-1.032 0-1.872.576-2.016 2.544h3.816zm5.145 5.664l1.08-.144c.336-.048.384-.12.384-.48V9.4c0-.264-.072-.432-.312-.504l-1.296-.456.264-1.944h4.224l.288 1.92h.144c.792-1.224 1.848-2.16 3.384-2.16.552 0 1.656.096 2.088.216v4.368l-2.88-.096-.24-1.272c-.048-.216-.12-.264-.312-.264-.624 0-1.368.528-1.728.84v6.36c0 .384.024.456.384.48l2.376.192V19h-7.848v-1.944zm17.659 2.232c-4.392 0-6.168-2.688-6.168-6.456 0-3.984 2.088-6.576 6.48-6.576 4.44 0 6.168 2.64 6.168 6.312 0 4.08-2.064 6.72-6.48 6.72zm.168-2.52c1.56 0 2.52-1.08 2.52-4.08 0-2.832-.864-3.84-2.424-3.84-1.584 0-2.64.984-2.64 3.864 0 2.904.936 4.056 2.544 4.056zm21.892.888l-.168-.024c-1.008.984-2.184 1.656-3.936 1.656-2.832 0-4.656-1.8-4.656-6.384 0-4.824 2.424-6.648 5.088-6.648 1.392 0 2.472.48 3.384 1.152V3.76c0-.24-.096-.408-.312-.48l-1.32-.456.264-1.944h4.824v15.6c0 .36.024.408.384.456l1.152.168V19h-4.464l-.24-1.344zm-.432-7.896c-.6-.408-1.368-.72-2.064-.72-1.776 0-2.472 1.656-2.472 3.792 0 2.328.672 3.624 2.184 3.624.816 0 1.704-.48 2.352-1.032V9.76zm17.341 8.304c-1.488.72-3.12 1.224-4.92 1.224-4.632 0-6.216-2.88-6.216-6.624 0-4.344 2.664-6.408 5.952-6.408 3.168 0 5.28 1.656 5.28 5.808 0 .288-.024 1.128-.048 1.608h-7.344c.12 1.704.864 2.832 2.832 2.832.936 0 1.944-.216 3.576-.816l.888 2.376zm-3.456-6.672c-.024-2.016-.816-2.544-1.8-2.544-1.032 0-1.872.576-2.016 2.544h3.816zm23.965 5.736l1.968-.168c.36-.024.384-.144.384-.48V7.36h-.096l-3.432 8.184h-3.912l-3.384-8.208h-.12v9.12c0 .384.048.456.384.48l2.064.192V19h-7.296v-1.872l1.512-.168c.336-.048.384-.12.384-.48V4.168c0-.36-.048-.432-.384-.48l-1.512-.168V1.624h6.432l4.176 10.872h.096l4.392-10.872h6.24v1.872l-1.608.192c-.36.048-.384.096-.384.456V16.48c0 .312.072.408.384.456l1.608.192V19h-7.896v-1.872zm20.523.936c-1.488.72-3.12 1.224-4.92 1.224-4.632 0-6.216-2.88-6.216-6.624 0-4.344 2.664-6.408 5.952-6.408 3.168 0 5.28 1.656 5.28 5.808 0 .288-.024 1.128-.048 1.608h-7.344c.12 1.704.864 2.832 2.832 2.832.936 0 1.944-.216 3.576-.816l.888 2.376zm-3.456-6.672c-.024-2.016-.816-2.544-1.8-2.544-1.032 0-1.872.576-2.016 2.544h3.816zm14.051 6.264l-.168-.024c-1.008.984-2.184 1.656-3.936 1.656-2.832 0-4.656-1.8-4.656-6.384 0-4.824 2.424-6.648 5.088-6.648 1.392 0 2.472.48 3.384 1.152V3.76c0-.24-.096-.408-.312-.48l-1.32-.456.264-1.944h4.824v15.6c0 .36.024.408.384.456l1.152.168V19h-4.464l-.24-1.344zm-.432-7.896c-.6-.408-1.368-.72-2.064-.72-1.776 0-2.472 1.656-2.472 3.792 0 2.328.672 3.624 2.184 3.624.816 0 1.704-.48 2.352-1.032V9.76zm11.504-7.344c0 1.368-.792 2.16-2.184 2.16-1.368 0-2.16-.792-2.16-2.16s.792-2.112 2.16-2.112c1.392 0 2.184.744 2.184 2.112zm-5.28 14.688l1.224-.168c.336-.048.384-.12.384-.48V9.4c0-.264-.072-.432-.312-.504l-1.296-.456.264-1.944h4.968v9.96c0 .384.024.432.384.48l1.224.168V19h-6.84v-1.896zm18.85 1.008c-1.104.672-2.808 1.176-4.56 1.176-4.344 0-6.288-2.712-6.288-6.36 0-4.488 2.736-6.672 6.576-6.672 1.872 0 3.528.528 4.272 1.008v3.768l-2.568-.12-.288-1.584c-.024-.168-.072-.312-.288-.384-.288-.096-.744-.168-1.224-.168-1.44 0-2.664.984-2.664 3.792 0 3.12 1.392 4.008 3.096 4.008 1.2 0 2.28-.384 3-.696l.936 2.232zm9.098-.408l-.12-.024c-.912.888-2.112 1.608-4.032 1.608-3.024 0-3.504-2.064-3.504-3.552 0-2.4 1.464-3.48 4.488-3.696l2.76-.192v-1.32c0-1.128-.12-1.896-1.608-1.896-1.152 0-1.752.168-1.752 1.608l-3.384-.288c0-3.24 2.952-3.696 5.16-3.696 3.648 0 5.112.984 5.112 4.344v5.832c0 .384.024.432.384.48l1.152.192V19h-4.416l-.24-1.296zm-2.04-3.744c-1.416.096-1.92.456-1.92 1.416s.576 1.32 1.368 1.32c.816 0 1.632-.456 2.184-.864V13.84l-1.632.12zm7.816 3.096l1.08-.144c.336-.048.384-.12.384-.48V9.4c0-.264-.072-.432-.312-.504l-1.296-.456.264-1.944h4.224l.288 1.92h.144c.792-1.224 1.848-2.16 3.384-2.16.552 0 1.656.096 2.088.216v4.368l-2.88-.096-.24-1.272c-.048-.216-.12-.264-.312-.264-.624 0-1.368.528-1.728.84v6.36c0 .384.024.456.384.48l2.376.192V19h-7.848v-1.944zm22.626 1.008c-1.488.72-3.12 1.224-4.92 1.224-4.632 0-6.216-2.88-6.216-6.624 0-4.344 2.664-6.408 5.952-6.408 3.168 0 5.28 1.656 5.28 5.808 0 .288-.024 1.128-.048 1.608h-7.344c.12 1.704.864 2.832 2.832 2.832.936 0 1.944-.216 3.576-.816l.888 2.376zm-3.456-6.672c-.024-2.016-.816-2.544-1.8-2.544-1.032 0-1.872.576-2.016 2.544h3.816zm9.708 6.024c0 1.224-.672 1.872-2.04 1.872-1.392 0-2.064-.624-2.064-1.872 0-1.224.672-1.872 2.064-1.872 1.344 0 2.04.648 2.04 1.872z" fill="#2B3D51"/></svg>