<svg width="300" height="19" viewBox="0 0 300 19" fill="none" xmlns="http://www.w3.org/2000/svg"><path fill="#F3C501" d="M0 0h300v19H0z"/><path d="M20.338 13.132c-1.804 0-3.179-1.001-3.179-2.959V5.872h2.09v4.18c0 .858.495 1.188 1.09 1.188.593 0 1.088-.33 1.088-1.188v-4.18h2.09v4.301c0 1.958-1.375 2.959-3.179 2.959zM27.341 13V5.872h1.815l2.266 3.157c.165.22.319.539.319.539V5.872h2.09V13h-1.815L29.75 9.898c-.165-.22-.319-.539-.319-.539V13h-2.09zm15.42 0V5.872h1.783l1.397 2.002c.23.341.605.924.605.924s.374-.583.605-.924l1.397-2.002h1.782V13h-2.09V9.392s-.363.583-.561.858l-1.133 1.584-1.144-1.584c-.198-.275-.55-.836-.55-.836V13h-2.09zm11.417 0V5.872h5.665v1.771h-3.575v.869H59.7v1.749h-3.432v.968h3.707V13h-5.797zm9.268 0V5.872h1.815l2.266 3.157c.165.22.319.539.319.539V5.872h2.09V13H68.12l-2.266-3.102c-.165-.22-.32-.539-.32-.539V13h-2.09zm13.081.132c-2.002 0-2.783-.77-3.003-.858l.682-1.628c.55.308 1.177.649 2.321.649.22 0 .858-.066.858-.44 0-.341-.451-.396-.858-.495-1.375-.308-2.816-.836-2.816-2.442 0-1.485 1.353-2.156 2.816-2.156 1.177 0 2.035.297 2.761.726l-.704 1.617c-.418-.286-1.364-.517-2.057-.517-.176 0-.638.044-.638.33 0 .253.264.363.638.451 1.067.231 3.036.66 3.036 2.486 0 1.628-1.562 2.277-3.036 2.277zM82.722 13l2.882-7.128h2.156L90.642 13h-2.134l-.33-.924h-2.992l-.33.924h-2.134zm3.025-2.53h1.87l-.847-2.409c-.066-.176-.077-.242-.088-.286 0 0-.022.099-.088.286l-.847 2.409zm10.662 2.662c-1.089 0-2.21-.418-2.794-1.617l1.386-1.155c.341.704.792.88 1.42.88.736 0 1.143-.44 1.143-1.221V5.872h2.09v4.081c0 2.057-1.155 3.179-3.245 3.179zm7.073-.132V5.872h5.665v1.771h-3.575v.869h3.432v1.749h-3.432v.968h3.707V13h-5.797zm17.944.132c-2.288 0-3.817-1.639-3.817-3.696 0-2.035 1.529-3.674 3.817-3.674 2.288 0 3.828 1.639 3.828 3.674 0 2.057-1.54 3.696-3.828 3.696zm0-1.892c.968 0 1.65-.748 1.65-1.804 0-1.034-.682-1.782-1.65-1.782-.902 0-1.639.748-1.639 1.782 0 1.056.682 1.804 1.639 1.804zM128.88 13V5.872h5.5v1.771h-3.41v.869h2.981v1.749h-2.981V13h-2.09zm8.795 0V5.872h2.09V13h-2.09zm9.491.132c-2.266 0-3.773-1.639-3.773-3.696 0-2.035 1.507-3.674 3.773-3.674 1.089 0 2.068.385 2.717 1.034l-1.375 1.419c-.506-.517-.913-.561-1.254-.561-.924 0-1.683.748-1.683 1.782 0 1.056.704 1.804 1.683 1.804.583 0 1.122-.264 1.518-.792l1.331 1.463c-.715.792-1.716 1.221-2.937 1.221zm6.327-.132V5.872h2.09V13h-2.09zm5.421 0l2.882-7.128h2.156L166.834 13H164.7l-.33-.924h-2.992l-.33.924h-2.134zm3.025-2.53h1.87l-.847-2.409c-.066-.176-.077-.242-.088-.286 0 0-.022.099-.088.286l-.847 2.409zm8.232 2.53V5.872h2.09v5.357h3.795V13h-5.885zm14.486 0V5.872h2.97c2.387 0 3.883 1.617 3.883 3.564S190.014 13 187.627 13h-2.97zm2.09-1.771h.803c1.067 0 1.749-.759 1.749-1.793 0-1.023-.682-1.793-1.749-1.793h-.803v3.586zM195.139 13V5.872h5.665v1.771h-3.575v.869h3.432v1.749h-3.432v.968h3.707V13h-5.797zm14.346 0V5.872h1.782l1.397 2.002c.231.341.605.924.605.924s.374-.583.605-.924l1.397-2.002h1.782V13h-2.09V9.392s-.363.583-.561.858l-1.133 1.584-1.144-1.584c-.198-.275-.55-.836-.55-.836V13h-2.09zm11.416 0V5.872h5.665v1.771h-3.575v.869h3.432v1.749h-3.432v.968h3.707V13h-5.797zm9.268 0V5.872h2.97c2.387 0 3.883 1.617 3.883 3.564S235.526 13 233.139 13h-2.97zm2.09-1.771h.803c1.067 0 1.749-.759 1.749-1.793 0-1.023-.682-1.793-1.749-1.793h-.803v3.586zM240.651 13V5.872h2.09V13h-2.09zm9.491.132c-2.266 0-3.773-1.639-3.773-3.696 0-2.035 1.507-3.674 3.773-3.674 1.089 0 2.068.385 2.717 1.034l-1.375 1.419c-.506-.517-.913-.561-1.254-.561-.924 0-1.683.748-1.683 1.782 0 1.056.704 1.804 1.683 1.804.583 0 1.122-.264 1.518-.792l1.331 1.463c-.715.792-1.716 1.221-2.937 1.221zM256.06 13l2.882-7.128h2.156L263.98 13h-2.134l-.33-.924h-2.992l-.33.924h-2.134zm3.025-2.53h1.87l-.847-2.409c-.066-.176-.077-.242-.088-.286 0 0-.022.099-.088.286l-.847 2.409zm8.231 2.53V5.872h3.146c2.189 0 3.311 1.265 3.311 2.816 0 .825-.374 1.672-1.122 2.189L273.982 13h-2.387l-.814-1.529c-.22.022-.341.033-.517.033h-.858V13h-2.09zm2.09-3.267h1.078c.649 0 1.078-.473 1.078-1.045 0-.583-.44-1.045-1.067-1.045h-1.089v2.09zM277.401 13V5.872h5.665v1.771h-3.575v.869h3.432v1.749h-3.432v.968h3.707V13h-5.797z" fill="#2B3D51"/></svg>