<svg width="234" height="106" viewBox="0 0 234 106" fill="none" xmlns="http://www.w3.org/2000/svg"><path d="M13.024 6.024c-.064-.384-.16-.512-.384-.608a7.615 7.615 0 00-2.336-.352c-2.4 0-3.584 1.088-3.584 2.72 0 2.112 2.176 2.688 4.608 3.424 3.04.928 6.432 2.08 6.432 6.88 0 5.248-4.096 7.296-8.992 7.296-2.88 0-6.112-.736-7.328-1.312v-6.24h3.584l.64 3.04c.096.416.128.48.544.576.384.096 1.472.352 2.688.352 2.592 0 4.032-1.024 4.032-2.976 0-2.048-1.824-2.688-3.968-3.296-3.168-.896-7.072-1.76-7.072-6.912 0-4.928 3.712-7.2 8.576-7.2 2.752 0 5.12.672 6.56 1.28v6.24l-3.616-.32-.384-2.592zm13.945-3.136c0 1.824-1.056 2.88-2.912 2.88-1.824 0-2.88-1.056-2.88-2.88 0-1.824 1.056-2.816 2.88-2.816 1.856 0 2.912.992 2.912 2.816zm-7.04 19.584l1.632-.224c.448-.064.512-.16.512-.64V12.2c0-.352-.096-.576-.416-.672l-1.728-.608.352-2.592h6.624v13.28c0 .512.032.576.512.64l1.632.224V25h-9.12v-2.528zm27.857.8l-.16-.032c-1.215 1.184-2.816 2.144-5.375 2.144-4.032 0-4.672-2.752-4.672-4.736 0-3.2 1.952-4.64 5.983-4.928l3.68-.256v-1.76c0-1.504-.16-2.528-2.143-2.528-1.536 0-2.336.224-2.336 2.144l-4.512-.384c0-4.32 3.936-4.928 6.88-4.928 4.864 0 6.816 1.312 6.816 5.792v7.776c0 .512.031.576.511.64l1.537.256V25h-5.889l-.32-1.728zm-2.72-4.992c-1.888.128-2.56.608-2.56 1.888 0 1.28.769 1.76 1.825 1.76 1.087 0 2.175-.608 2.911-1.152V18.12l-2.175.16zm10.261 4.192l1.6-.224c.448-.064.512-.16.512-.64V4.712c0-.352-.096-.576-.416-.672l-1.76-.608.352-2.592h6.656v20.768c0 .512.032.576.512.64l1.568.224V25h-9.024v-2.528zm24.621-11.2c.576.736 1.184 1.76 1.184 3.232 0 3.552-2.784 5.632-6.816 5.632-1.024 0-1.952-.128-2.528-.288l-1.056 1.696 3.136.192c5.568.352 8.8.512 8.8 4.768 0 3.68-3.232 5.76-8.8 5.76-5.792 0-8-1.472-8-4 0-1.44.64-2.208 1.76-3.264-1.056-.448-1.408-1.248-1.408-2.112 0-.704.352-1.344.928-1.952a39.263 39.263 0 011.984-1.92c-1.568-.768-2.752-2.432-2.752-4.8 0-3.68 2.432-6.208 7.328-6.208 1.376 0 2.208.128 2.944.32h6.24v2.72l-2.944.224zm-3.04 2.784c0-1.888-1.088-2.88-2.912-2.88-1.76 0-3.072.864-3.072 2.944 0 1.568.864 2.656 2.976 2.656 1.792 0 3.008-1.056 3.008-2.72zm-6.432 11.808c-.416.512-.832 1.056-.832 1.696 0 1.28 1.632 1.664 3.872 1.664 1.856 0 4.384-.128 4.384-1.856 0-1.024-1.216-1.088-2.752-1.184l-4.672-.32zm26.347-2.592l-.16-.032c-1.312.992-2.976 2.144-5.696 2.144-3.36 0-4.64-1.92-4.64-5.632v-7.808c0-.512-.032-.576-.512-.672l-1.536-.32.32-2.624h6.56V18.92c0 1.952.32 2.688 1.696 2.688 1.408 0 2.56-.8 3.296-1.472v-8.224c0-.512-.032-.544-.512-.64l-1.376-.32.352-2.624h6.368v13.28c0 .416.064.544.448.608l1.6.224V25h-5.952l-.256-1.728zm14.753-20.384c0 1.824-1.056 2.88-2.912 2.88-1.824 0-2.88-1.056-2.88-2.88 0-1.824 1.056-2.816 2.88-2.816 1.856 0 2.912.992 2.912 2.816zm-7.04 19.584l1.632-.224c.448-.064.512-.16.512-.64V12.2c0-.352-.096-.576-.416-.672l-1.728-.608.352-2.592h6.624v13.28c0 .512.032.576.512.64l1.632.224V25h-9.12v-2.528zm25.517 1.28c-1.984.96-4.16 1.632-6.56 1.632-6.176 0-8.288-3.84-8.288-8.832 0-5.792 3.552-8.544 7.936-8.544 4.224 0 7.04 2.208 7.04 7.744 0 .384-.032 1.504-.064 2.144h-9.792c.16 2.272 1.152 3.776 3.776 3.776 1.248 0 2.592-.288 4.768-1.088l1.184 3.168zm-4.608-8.896c-.032-2.688-1.088-3.392-2.4-3.392-1.376 0-2.496.768-2.688 3.392h5.088zm18.669-.192c0-1.536-.096-2.816-1.696-2.816-1.184 0-2.656.672-3.328 1.184v8.576c0 .512.032.576.512.64l1.536.224V25h-8.832v-2.56l1.44-.192c.448-.064.512-.16.512-.64V12.2c0-.352-.096-.576-.416-.672l-1.728-.608.384-2.592h5.6l.256 1.664.128.064c1.6-1.184 3.456-2.048 5.632-2.048 3.488 0 4.832 1.92 4.832 5.44v8.16c0 .512.032.576.512.64l1.6.224V25h-6.944V14.664zm27.653 9.44c-1.376.672-3.392 1.28-5.216 1.28-3.808 0-5.248-1.536-5.248-5.152v-8.384c0-.192 0-.32-.256-.32h-2.24V8.68c2.816-.32 3.936-1.728 4.288-5.216h3.04v4.544c0 .224 0 .32.256.32h4.512v3.2h-4.768v7.648c0 1.888.448 2.624 2.176 2.624.896 0 1.824-.224 2.592-.512l.864 2.816zm15.722-.352c-1.984.96-4.16 1.632-6.56 1.632-6.176 0-8.288-3.84-8.288-8.832 0-5.792 3.552-8.544 7.936-8.544 4.224 0 7.04 2.208 7.04 7.744 0 .384-.032 1.504-.064 2.144h-9.792c.16 2.272 1.152 3.776 3.776 3.776 1.248 0 2.592-.288 4.768-1.088l1.184 3.168zm-4.608-8.896c-.032-2.688-1.088-3.392-2.4-3.392-1.376 0-2.496.768-2.688 3.392h5.088zM.8 69.224l1.28-.192c.448-.064.576-.192.576-.672V52.2c0-.352-.064-.544-.416-.672L.544 50.92l.352-2.592h5.632l.288 1.632.16.064c1.536-1.248 3.616-2.016 5.44-2.016 3.584 0 6.144 2.24 6.144 8.192 0 3.84-1.312 9.184-6.592 9.184-1.664 0-3.168-.544-4.512-1.6v4.544c0 .512.032.608.512.64l3.264.288v2.528H.8v-2.56zm6.656-8.8c.704.608 1.824 1.216 3.008 1.216 2.144 0 3.04-2.048 3.04-5.184 0-3.296-1.12-4.64-2.72-4.64-1.344 0-2.624.672-3.328 1.152v7.456zm20.075-17.536c0 1.824-1.056 2.88-2.912 2.88-1.824 0-2.88-1.056-2.88-2.88 0-1.824 1.056-2.816 2.88-2.816 1.856 0 2.912.992 2.912 2.816zm-7.04 19.584l1.632-.224c.448-.064.512-.16.512-.64V52.2c0-.352-.096-.576-.416-.672l-1.728-.608.352-2.592h6.624v13.28c0 .512.032.576.512.64l1.632.224V65h-9.12v-2.528zm22.511.736l-.224-.032c-1.343 1.312-2.911 2.208-5.247 2.208-3.776 0-6.208-2.4-6.208-8.512 0-6.432 3.231-8.864 6.783-8.864 1.856 0 3.297.64 4.512 1.536V44.68c0-.32-.128-.544-.416-.64l-1.76-.608.352-2.592h6.433v20.8c0 .48.032.544.512.608l1.536.224V65h-5.953l-.32-1.792zm-.576-10.528c-.8-.544-1.824-.96-2.752-.96-2.367 0-3.295 2.208-3.295 5.056 0 3.104.896 4.832 2.912 4.832 1.088 0 2.272-.64 3.136-1.376V52.68zm23.121 11.072c-1.984.96-4.16 1.632-6.56 1.632-6.176 0-8.288-3.84-8.288-8.832 0-5.792 3.552-8.544 7.936-8.544 4.224 0 7.04 2.208 7.04 7.744 0 .384-.032 1.504-.064 2.144h-9.792c.16 2.272 1.152 3.776 3.776 3.776 1.248 0 2.592-.288 4.768-1.088l1.184 3.168zm-4.608-8.896c-.032-2.688-1.088-3.392-2.4-3.392-1.376 0-2.496.768-2.688 3.392h5.088zm26.033 9.248c-1.376.672-3.392 1.28-5.216 1.28-3.808 0-5.248-1.536-5.248-5.152v-8.384c0-.192 0-.32-.256-.32h-2.24V48.68c2.816-.32 3.936-1.728 4.288-5.216h3.04v4.544c0 .224 0 .32.256.32h4.512v3.2H81.34v7.648c0 1.888.448 2.624 2.176 2.624.896 0 1.824-.224 2.592-.512l.864 2.816zm13.476-.832l-.16-.032c-1.312.992-2.976 2.144-5.696 2.144-3.36 0-4.64-1.92-4.64-5.632v-7.808c0-.512-.032-.576-.512-.672l-1.536-.32.32-2.624h6.56V58.92c0 1.952.32 2.688 1.696 2.688 1.408 0 2.56-.8 3.296-1.472v-8.224c0-.512-.032-.544-.512-.64l-1.376-.32.352-2.624h6.368v13.28c0 .416.064.544.448.608l1.6.224V65h-5.952l-.256-1.728zm26.502-8.608c0-1.536-.096-2.816-1.696-2.816-1.184 0-2.656.672-3.328 1.184v8.576c0 .512.032.576.512.64l1.536.224V65h-8.832v-2.56l1.44-.192c.448-.064.512-.16.512-.64V52.2c0-.352-.096-.576-.416-.672l-1.728-.608.384-2.592h5.6l.256 1.664.128.064c1.6-1.184 3.456-2.048 5.632-2.048 3.488 0 4.832 1.92 4.832 5.44v8.16c0 .512.032.576.512.64l1.6.224V65h-6.944V54.664zm20.52 8.608l-.16-.032c-1.312.992-2.976 2.144-5.696 2.144-3.36 0-4.64-1.92-4.64-5.632v-7.808c0-.512-.032-.576-.512-.672l-1.536-.32.32-2.624h6.56V58.92c0 1.952.32 2.688 1.696 2.688 1.408 0 2.56-.8 3.296-1.472v-8.224c0-.512-.032-.544-.512-.64l-1.376-.32.352-2.624h6.368v13.28c0 .416.064.544.448.608l1.6.224V65h-5.952l-.256-1.728zm-6.656-17.824l4.896-5.568 2.624 2.496-5.728 4.672-1.792-1.6zm34.818 9.216c0-1.248-.128-2.752-1.792-2.752-.896 0-1.76.32-2.592.864.064.512.096 1.024.096 1.568v7.264c0 .544.032.608.512.672l1.28.192V65h-6.624V54.504c0-1.184-.096-2.592-1.696-2.592-.96 0-2.016.48-2.656 1.024v8.672c0 .512.032.576.512.64l1.568.224V65h-8.864v-2.528l1.44-.224c.448-.064.512-.16.512-.64V52.2c0-.352-.096-.576-.416-.672l-1.728-.608.352-2.592h5.632l.256 1.664.16.032c1.44-1.184 3.072-2.016 5.12-2.016 1.568 0 3.008.416 3.904 1.92 1.056-.832 2.912-1.92 5.152-1.92 3.424 0 4.704 1.696 4.704 5.408v8.192c0 .512.032.608.512.672l1.6.192V65h-6.944V54.664zm23.381 9.088c-1.984.96-4.16 1.632-6.56 1.632-6.176 0-8.288-3.84-8.288-8.832 0-5.792 3.552-8.544 7.936-8.544 4.224 0 7.04 2.208 7.04 7.744 0 .384-.032 1.504-.064 2.144h-9.792c.16 2.272 1.152 3.776 3.776 3.776 1.248 0 2.592-.288 4.768-1.088l1.184 3.168zm-4.608-8.896c-.032-2.688-1.088-3.392-2.4-3.392-1.376 0-2.496.768-2.688 3.392h5.088zm6.861 7.552l1.44-.192c.448-.064.512-.16.512-.64V52.2c0-.352-.096-.576-.416-.672l-1.728-.608.352-2.592h5.632l.384 2.56h.192c1.056-1.632 2.464-2.88 4.512-2.88.736 0 2.208.128 2.784.288v5.824l-3.84-.128-.32-1.696c-.064-.288-.16-.352-.416-.352-.832 0-1.824.704-2.304 1.12v8.48c0 .512.032.608.512.64l3.168.256V65h-10.464v-2.592zm23.545 2.976c-5.856 0-8.224-3.584-8.224-8.608 0-5.312 2.784-8.768 8.64-8.768 5.92 0 8.224 3.52 8.224 8.416 0 5.44-2.752 8.96-8.64 8.96zm.224-3.36c2.08 0 3.36-1.44 3.36-5.44 0-3.776-1.152-5.12-3.232-5.12-2.112 0-3.52 1.312-3.52 5.152 0 3.872 1.248 5.408 3.392 5.408zM12.8 103.208l-.224-.032c-1.344 1.312-2.912 2.208-5.248 2.208-3.776 0-6.208-2.4-6.208-8.512 0-6.432 3.232-8.864 6.784-8.864 1.856 0 3.296.64 4.512 1.536V84.68c0-.32-.128-.544-.416-.64l-1.76-.608.352-2.592h6.432v20.8c0 .48.032.544.512.608l1.536.224V105H13.12l-.32-1.792zm-.576-10.528c-.8-.544-1.824-.96-2.752-.96-2.368 0-3.296 2.208-3.296 5.056 0 3.104.896 4.832 2.912 4.832 1.088 0 2.272-.64 3.136-1.376V92.68zm23.12 11.072c-1.983.96-4.16 1.632-6.56 1.632-6.175 0-8.287-3.84-8.287-8.832 0-5.792 3.552-8.544 7.936-8.544 4.224 0 7.04 2.208 7.04 7.744 0 .384-.032 1.504-.065 2.144h-9.792c.16 2.272 1.152 3.776 3.776 3.776 1.248 0 2.593-.288 4.768-1.088l1.184 3.168zm-4.608-8.896c-.032-2.688-1.088-3.392-2.4-3.392-1.375 0-2.495.768-2.688 3.392h5.088zm31.954 7.648l2.624-.224c.48-.032.512-.192.512-.64V89.48h-.128l-4.576 10.912h-5.216l-4.512-10.944h-.16v12.16c0 .512.064.608.512.64l2.752.256V105H44.77v-2.496l2.016-.224c.448-.064.512-.16.512-.64V85.224c0-.48-.064-.576-.512-.64l-2.016-.224v-2.528h8.576l5.568 14.496h.128l5.856-14.496h8.32v2.496l-2.144.256c-.48.064-.512.128-.512.608v16.448c0 .416.096.544.512.608l2.144.256V105H62.69v-2.496zm27.365 1.248c-1.985.96-4.16 1.632-6.56 1.632-6.177 0-8.288-3.84-8.288-8.832 0-5.792 3.552-8.544 7.936-8.544 4.224 0 7.04 2.208 7.04 7.744 0 .384-.033 1.504-.065 2.144h-9.791c.16 2.272 1.151 3.776 3.776 3.776 1.248 0 2.592-.288 4.768-1.088l1.184 3.168zm-4.609-8.896c-.031-2.688-1.087-3.392-2.4-3.392-1.376 0-2.496.768-2.688 3.392h5.088zm18.735 8.352l-.224-.032c-1.344 1.312-2.912 2.208-5.248 2.208-3.776 0-6.208-2.4-6.208-8.512 0-6.432 3.232-8.864 6.784-8.864 1.856 0 3.296.64 4.512 1.536V84.68c0-.32-.128-.544-.416-.64l-1.76-.608.352-2.592h6.432v20.8c0 .48.032.544.512.608l1.536.224V105h-5.952l-.32-1.792zm-.576-10.528c-.8-.544-1.824-.96-2.752-.96-2.368 0-3.296 2.208-3.296 5.056 0 3.104.896 4.832 2.912 4.832 1.088 0 2.272-.64 3.136-1.376V92.68zm15.339-9.792c0 1.824-1.056 2.88-2.912 2.88-1.824 0-2.88-1.056-2.88-2.88 0-1.824 1.056-2.816 2.88-2.816 1.856 0 2.912.992 2.912 2.816zm-7.04 19.584l1.632-.224c.448-.064.512-.16.512-.64V92.2c0-.352-.096-.576-.416-.672l-1.728-.608.352-2.592h6.624v13.28c0 .512.032.576.512.64l1.632.224V105h-9.12v-2.528zm25.133 1.344c-1.472.896-3.744 1.568-6.08 1.568-5.792 0-8.384-3.616-8.384-8.48 0-5.984 3.648-8.896 8.768-8.896 2.496 0 4.704.704 5.696 1.344v5.024l-3.424-.16-.384-2.112c-.032-.224-.096-.416-.384-.512-.384-.128-.992-.224-1.632-.224-1.92 0-3.552 1.312-3.552 5.056 0 4.16 1.856 5.344 4.128 5.344 1.6 0 3.04-.512 4-.928l1.248 2.976zm12.131-.544l-.16-.032c-1.216 1.184-2.816 2.144-5.376 2.144-4.032 0-4.672-2.752-4.672-4.736 0-3.2 1.952-4.64 5.984-4.928l3.68-.256v-1.76c0-1.504-.16-2.528-2.144-2.528-1.536 0-2.336.224-2.336 2.144l-4.512-.384c0-4.32 3.936-4.928 6.88-4.928 4.864 0 6.816 1.312 6.816 5.792v7.776c0 .512.032.576.512.64l1.536.256V105h-5.888l-.32-1.728zm-2.72-4.992c-1.888.128-2.56.608-2.56 1.888 0 1.28.768 1.76 1.824 1.76 1.088 0 2.176-.608 2.912-1.152V98.12l-2.176.16zm10.42 4.128l1.44-.192c.448-.064.512-.16.512-.64V92.2c0-.352-.096-.576-.416-.672l-1.728-.608.352-2.592h5.632l.384 2.56h.192c1.056-1.632 2.464-2.88 4.512-2.88.736 0 2.208.128 2.784.288v5.824l-3.84-.128-.32-1.696c-.064-.288-.16-.352-.416-.352-.832 0-1.824.704-2.304 1.12v8.48c0 .512.032.608.512.64l3.168.256V105h-10.464v-2.592zm30.169 1.344c-1.984.96-4.16 1.632-6.56 1.632-6.176 0-8.288-3.84-8.288-8.832 0-5.792 3.552-8.544 7.936-8.544 4.224 0 7.04 2.208 7.04 7.744 0 .384-.032 1.504-.064 2.144h-9.792c.16 2.272 1.152 3.776 3.776 3.776 1.248 0 2.592-.288 4.768-1.088l1.184 3.168zm-4.608-8.896c-.032-2.688-1.088-3.392-2.4-3.392-1.376 0-2.496.768-2.688 3.392h5.088zm12.944 8.032c0 1.632-.896 2.496-2.72 2.496-1.856 0-2.752-.832-2.752-2.496 0-1.632.896-2.496 2.752-2.496 1.792 0 2.72.864 2.72 2.496zm9.008 0c0 1.632-.896 2.496-2.72 2.496-1.856 0-2.752-.832-2.752-2.496 0-1.632.896-2.496 2.752-2.496 1.792 0 2.72.864 2.72 2.496zm9.007 0c0 1.632-.896 2.496-2.72 2.496-1.856 0-2.752-.832-2.752-2.496 0-1.632.896-2.496 2.752-2.496 1.792 0 2.72.864 2.72 2.496z" fill="#fff"/></svg>