<svg width="242" height="48" viewBox="0 0 242 48" fill="none" xmlns="http://www.w3.org/2000/svg"><rect width="242" height="48" rx="2" fill="#F3C501"/><path d="M26.569 30.148v-12.07h5.542c.59 0 1.133.119 1.632.357.498.238.93.56 1.292.969.362.396.64.844.833 1.343.204.498.306 1.003.306 1.512 0 .465-.068.913-.204 1.343-.136.431-.335.828-.595 1.19-.26.352-.573.658-.935.918l2.55 4.438h-3.638l-2.125-3.706h-1.343v3.706h-3.315zm3.315-6.596h2.09a.61.61 0 00.392-.154c.124-.101.226-.249.306-.442.09-.192.136-.424.136-.697 0-.283-.051-.515-.153-.697a1.08 1.08 0 00-.357-.442.678.678 0 00-.408-.152h-2.006v2.584zm18.118 3.706v2.89H39.4v-12.07h8.45v2.89h-5.135v1.7h4.386v2.686h-4.386v1.904h5.287zm2.902 2.89v-12.07h5.202c.59 0 1.133.119 1.632.357.499.238.93.56 1.292.969.363.396.64.844.833 1.343.204.498.306 1.003.306 1.512 0 .715-.17 1.389-.51 2.023a4.202 4.202 0 01-1.394 1.564c-.59.397-1.28.596-2.074.596h-1.972v3.706h-3.315zm3.315-6.596h1.751c.136 0 .266-.04.391-.12.125-.079.227-.215.306-.407.09-.193.136-.448.136-.765 0-.34-.051-.601-.153-.783-.09-.192-.21-.323-.357-.39a.803.803 0 00-.408-.12h-1.666v2.585zm14.077 6.698c-.918 0-1.751-.17-2.5-.51a6.324 6.324 0 01-1.937-1.394 6.658 6.658 0 01-1.241-1.973 6.293 6.293 0 01-.425-2.277c0-.805.153-1.57.459-2.296a6.323 6.323 0 011.275-1.938 6.065 6.065 0 011.955-1.36 6.18 6.18 0 012.482-.492c.918 0 1.75.175 2.499.526a5.78 5.78 0 011.92 1.394c.533.59.941 1.253 1.225 1.99a5.91 5.91 0 01-.017 4.521 6.134 6.134 0 01-1.275 1.956 6.23 6.23 0 01-1.938 1.36c-.748.328-1.576.492-2.482.492zm-2.737-6.12c0 .408.056.804.17 1.19.113.373.283.713.51 1.02.226.294.51.532.85.713.351.17.765.255 1.24.255.477 0 .89-.09 1.242-.271.351-.182.634-.425.85-.732.226-.317.39-.663.493-1.037a4.139 4.139 0 000-2.346 3.108 3.108 0 00-.51-1.003 2.317 2.317 0 00-.867-.713c-.352-.17-.76-.255-1.224-.255-.476 0-.89.09-1.241.271-.34.182-.624.425-.85.731a3.077 3.077 0 00-.51 1.02c-.102.375-.153.76-.153 1.157zm11.656 6.018v-12.07h5.542c.59 0 1.133.119 1.632.357.499.238.93.56 1.292.969.362.396.64.844.833 1.343.204.498.306 1.003.306 1.512 0 .465-.068.913-.204 1.343-.136.431-.335.828-.595 1.19a4.23 4.23 0 01-.935.918l2.55 4.438h-3.638l-2.125-3.706H80.53v3.706h-3.315zm3.315-6.596h2.09a.61.61 0 00.392-.154c.124-.101.227-.249.306-.442.09-.192.136-.424.136-.697 0-.283-.051-.515-.153-.697-.09-.192-.21-.34-.357-.442a.678.678 0 00-.408-.152H80.53v2.584zm18.751-2.584h-3.468v9.18H92.5v-9.18h-3.486v-2.89h10.268v2.89zm4.244-2.89h3.706l3.842 12.07h-3.366l-.731-2.363h-3.213l-.714 2.363h-3.383l3.859-12.07zm2.924 7.497l-1.071-4.25-1.122 4.25h2.193zm20.252 1.683v2.89h-8.602v-12.07h8.449v2.89h-5.134v1.7h4.386v2.686h-4.386v1.904h5.287zm2.902 2.89v-12.07h3.315v9.18h5.474v2.89h-8.789zm15.984 0v-12.07h8.279v2.89h-4.964v2.006h4.046v2.686h-4.046v4.488h-3.315zm10.939 0v-12.07h5.542c.59 0 1.134.119 1.632.357.499.238.93.56 1.292.969.363.396.641.844.833 1.343.204.498.306 1.003.306 1.512 0 .465-.068.913-.204 1.343-.136.431-.334.828-.595 1.19-.26.352-.572.658-.935.918l2.55 4.438h-3.638l-2.125-3.706h-1.343v3.706h-3.315zm3.315-6.596h2.091a.609.609 0 00.391-.154 1.09 1.09 0 00.306-.442c.091-.192.136-.424.136-.697 0-.283-.051-.515-.153-.697a1.07 1.07 0 00-.357-.442.678.678 0 00-.408-.152h-2.006v2.584zm12.305-5.474h3.706l3.842 12.07h-3.366l-.731-2.363h-3.213l-.714 2.363h-3.383l3.859-12.07zm2.924 7.497l-1.071-4.25-1.122 4.25h2.193zm11.792 4.675c-.963 0-1.791-.16-2.482-.477a4.57 4.57 0 01-1.7-1.308 5.564 5.564 0 01-.952-1.904 8.375 8.375 0 01-.306-2.279v-6.204h3.315v6.204c0 .397.04.777.119 1.14.079.362.204.685.374.968.17.284.385.51.646.68.272.16.601.238.986.238.397 0 .731-.079 1.003-.238.272-.17.487-.396.646-.68.17-.294.295-.623.374-.986.079-.362.119-.736.119-1.122v-6.204h3.315v6.204c0 .84-.113 1.621-.34 2.346a5.43 5.43 0 01-.986 1.904 4.492 4.492 0 01-1.7 1.276c-.68.294-1.49.442-2.431.442zm8.724-.102v-12.07h4.641c1.337 0 2.454.271 3.349.816a5.097 5.097 0 012.04 2.176c.465.906.697 1.915.697 3.026 0 1.224-.255 2.289-.765 3.195a5.217 5.217 0 01-2.125 2.108c-.907.5-1.972.748-3.196.748h-4.641zm7.361-6.052c0-.624-.108-1.168-.323-1.633a2.49 2.49 0 00-.935-1.105c-.408-.26-.895-.39-1.462-.39h-1.326v6.29h1.326c.578 0 1.065-.136 1.462-.409.408-.271.72-.646.935-1.122a4.001 4.001 0 00.323-1.631zm14.77 3.162v2.89h-8.602v-12.07h8.449v2.89h-5.134v1.7h4.386v2.686h-4.386v1.904h5.287z" fill="#2B3D51"/></svg>