<svg width="139" height="115" viewBox="0 0 139 115" fill="none" xmlns="http://www.w3.org/2000/svg"><path d="M36.834 12.523c0-.492.18-.918.54-1.278.361-.36.792-.54 1.293-.54.5 0 .931.18 1.292.54.36.36.54.79.54 1.292 0 .51-.18.944-.54 1.305a1.756 1.756 0 0 1-1.292.527c-.519 0-.954-.176-1.305-.527-.352-.352-.528-.791-.528-1.319Zm6.172 0c0-.492.18-.918.54-1.278.361-.36.792-.54 1.293-.54.5 0 .931.18 1.292.54.36.36.54.79.54 1.292 0 .51-.18.944-.54 1.305a1.756 1.756 0 0 1-1.292.527c-.519 0-.954-.176-1.305-.527-.352-.352-.528-.791-.528-1.319Zm6.172 0c0-.492.18-.918.54-1.278.361-.36.792-.54 1.293-.54.5 0 .931.18 1.292.54.36.36.54.79.54 1.292 0 .51-.18.944-.54 1.305a1.756 1.756 0 0 1-1.292.527c-.519 0-.954-.176-1.305-.527-.352-.352-.528-.791-.528-1.319Zm8.677 8.464H54.89V1.16h2.966v1.398c1.17-1.17 2.496-1.754 3.982-1.754 1.766 0 3.22.65 4.363 1.951 1.16 1.292 1.74 2.923 1.74 4.892 0 1.924-.575 3.528-1.726 4.811-1.143 1.275-2.584 1.912-4.325 1.912-1.503 0-2.847-.602-4.034-1.806v8.424l-.001-.001ZM64.908 7.66c0-1.23-.334-2.233-1.002-3.006-.676-.782-1.529-1.174-2.557-1.174-1.09 0-1.973.378-2.65 1.134-.677.756-1.015 1.75-1.015 2.98 0 1.204.338 2.197 1.015 2.98.668.764 1.547 1.146 2.637 1.146 1.028 0 1.876-.386 2.544-1.16.686-.773 1.028-1.74 1.028-2.9Zm15.636-6.5h2.98V14h-2.98v-1.345c-1.221 1.143-2.535 1.714-3.942 1.714-1.775 0-3.243-.642-4.403-1.925-1.151-1.31-1.727-2.944-1.727-4.904 0-1.925.576-3.529 1.727-4.812C73.35 1.445 74.792.803 76.523.803c1.494 0 2.835.615 4.021 1.846V1.16Zm-7.04 6.381c0 1.23.33 2.232.989 3.006.677.782 1.53 1.173 2.558 1.173 1.098 0 1.986-.378 2.663-1.134.676-.782 1.015-1.775 1.015-2.979 0-1.204-.339-2.197-1.015-2.98-.677-.764-1.556-1.147-2.637-1.147-1.02 0-1.872.387-2.558 1.16-.677.783-1.015 1.75-1.015 2.901Zm13.764-6.38h2.966v1.146c.545-.571 1.028-.962 1.45-1.173.431-.22.94-.33 1.53-.33.782 0 1.6.255 2.452.765l-1.358 2.716c-.563-.405-1.112-.607-1.648-.607-1.617 0-2.426 1.222-2.426 3.665V14h-2.966V1.16v.001Zm19.38 0h2.979V14h-2.979v-1.345c-1.222 1.143-2.536 1.714-3.942 1.714-1.776 0-3.243-.642-4.404-1.925-1.15-1.31-1.727-2.944-1.727-4.904 0-1.925.576-3.529 1.727-4.812 1.152-1.283 2.593-1.925 4.325-1.925 1.494 0 2.834.615 4.021 1.846v-1.49.002Zm-7.04 6.38c0 1.23.33 2.232.988 3.006.677.782 1.53 1.173 2.558 1.173 1.099 0 1.986-.378 2.663-1.134.677-.782 1.015-1.775 1.015-2.979 0-1.204-.338-2.197-1.015-2.98-.677-.764-1.556-1.147-2.637-1.147-1.019 0-1.872.387-2.557 1.16-.677.783-1.015 1.75-1.015 2.901ZM17.972 36.16h2.98V49h-2.98v-1.345c-1.222 1.143-2.536 1.714-3.942 1.714-1.776 0-3.243-.642-4.404-1.925C8.476 46.134 7.9 44.5 7.9 42.54c0-1.925.576-3.529 1.727-4.812 1.152-1.283 2.593-1.925 4.325-1.925 1.494 0 2.834.616 4.02 1.846V36.16Zm-7.04 6.38c0 1.23.33 2.233.988 3.006.677.782 1.53 1.173 2.558 1.173 1.099 0 1.986-.378 2.663-1.134.677-.782 1.015-1.775 1.015-2.979 0-1.204-.338-2.197-1.015-2.98-.677-.764-1.556-1.146-2.637-1.146-1.02 0-1.872.386-2.557 1.16-.677.782-1.015 1.749-1.015 2.9Zm21.225-4.192-2.452 1.305c-.387-.791-.866-1.187-1.437-1.187a.974.974 0 0 0-.699.277.884.884 0 0 0-.29.686c0 .492.572.98 1.714 1.463 1.573.677 2.633 1.3 3.177 1.872.545.571.818 1.34.818 2.307 0 1.24-.457 2.277-1.371 3.112-.888.79-1.96 1.186-3.217 1.186-2.153 0-3.678-1.05-4.575-3.15l2.531-1.174c.352.615.62 1.006.805 1.173.36.334.79.501 1.292.501 1.002 0 1.503-.457 1.503-1.37 0-.528-.387-1.02-1.16-1.477-.3-.15-.598-.295-.897-.435-.299-.141-.602-.286-.91-.435-.861-.422-1.468-.844-1.82-1.266-.447-.536-.671-1.226-.671-2.07 0-1.116.382-2.039 1.146-2.768.783-.73 1.732-1.095 2.848-1.095 1.644 0 2.865.848 3.665 2.545Zm15.2 4.93h-9.201c.079 1.055.422 1.894 1.028 2.518.607.616 1.384.923 2.334.923.738 0 1.349-.175 1.832-.527.475-.352 1.015-1.002 1.622-1.951l2.505 1.397c-.387.66-.796 1.226-1.226 1.7a6.787 6.787 0 0 1-1.385 1.161c-.495.3-1.033.523-1.595.66-.571.14-1.19.21-1.859.21-1.916 0-3.454-.615-4.614-1.846-1.16-1.239-1.74-2.882-1.74-4.93 0-2.03.562-3.674 1.687-4.93 1.134-1.24 2.637-1.86 4.509-1.86 1.89 0 3.384.602 4.482 1.806 1.09 1.196 1.635 2.852 1.635 4.97l-.013.7-.001-.001Zm-3.044-2.425c-.414-1.583-1.411-2.373-2.993-2.373-.36 0-.699.057-1.015.17a2.8 2.8 0 0 0-.87.476c-.26.207-.483.457-.66.738a3.46 3.46 0 0 0-.422.989h5.96Zm18.72 7.844c0 .606-.022 1.138-.066 1.595a10.3 10.3 0 0 1-.158 1.226c-.21.967-.624 1.797-1.24 2.492-1.16 1.336-2.755 2.004-4.785 2.004-1.714 0-3.124-.462-4.232-1.385-1.142-.949-1.801-2.263-1.977-3.941h2.98c.114.632.302 1.12.566 1.463.615.8 1.512 1.2 2.69 1.2 2.17 0 3.256-1.332 3.256-3.995v-1.793c-1.178 1.204-2.536 1.806-4.074 1.806-1.749 0-3.181-.633-4.298-1.898-1.125-1.283-1.687-2.887-1.687-4.812 0-1.872.523-3.463 1.569-4.773 1.125-1.388 2.61-2.083 4.456-2.083 1.617 0 2.962.602 4.034 1.806v-1.45h2.966v12.538Zm-2.848-6.091c0-1.248-.333-2.246-1.001-2.993-.677-.764-1.543-1.147-2.598-1.147-1.125 0-2.012.418-2.663 1.253-.589.747-.883 1.714-.883 2.9 0 1.17.294 2.127.883 2.874.642.817 1.53 1.226 2.663 1.226 1.134 0 2.03-.413 2.69-1.239.606-.747.909-1.705.909-2.874Zm9.56-6.447v7.37c0 2.127.838 3.19 2.517 3.19 1.678 0 2.518-1.063 2.518-3.19v-7.37h2.966v7.436c0 1.028-.127 1.916-.382 2.663-.246.668-.673 1.27-1.279 1.806-1.002.87-2.276 1.305-3.823 1.305-1.538 0-2.808-.435-3.81-1.305-.616-.536-1.05-1.138-1.305-1.806-.247-.598-.37-1.486-.37-2.663v-7.436h2.967Zm11.745 0h2.967v1.147c.544-.571 1.028-.962 1.45-1.173.43-.22.94-.33 1.529-.33.782 0 1.6.255 2.452.765l-1.358 2.716c-.562-.405-1.112-.607-1.648-.607-1.617 0-2.425 1.222-2.425 3.665V49H81.49V36.159Zm19.38 0h2.98V49h-2.98v-1.345c-1.222 1.143-2.535 1.714-3.942 1.714-1.775 0-3.243-.642-4.403-1.925-1.151-1.31-1.727-2.944-1.727-4.904 0-1.925.576-3.529 1.727-4.812 1.151-1.283 2.593-1.925 4.324-1.925 1.494 0 2.835.616 4.021 1.846v-1.49Zm-7.04 6.381c0 1.23.33 2.233.989 3.006.677.782 1.53 1.173 2.557 1.173 1.1 0 1.987-.378 2.664-1.134.676-.782 1.015-1.775 1.015-2.979 0-1.204-.339-2.197-1.015-2.98-.677-.764-1.556-1.146-2.637-1.146-1.02 0-1.872.386-2.558 1.16-.677.782-1.015 1.749-1.015 2.9Zm13.764-6.38h2.966v1.146c.545-.571 1.028-.962 1.45-1.173.431-.22.941-.33 1.53-.33.782 0 1.599.255 2.452.765l-1.358 2.716c-.563-.405-1.112-.607-1.648-.607-1.617 0-2.426 1.222-2.426 3.665V49h-2.966V36.16Zm14.133 2.768V49h-2.967V38.928h-1.265v-2.769h1.265v-4.706h2.967v4.706h2.307v2.769h-2.307Zm16.255 4.35h-9.202c.079 1.055.422 1.894 1.028 2.518.607.616 1.384.923 2.334.923.738 0 1.349-.175 1.832-.527.475-.352 1.015-1.002 1.622-1.951l2.505 1.397c-.387.66-.796 1.226-1.226 1.7a6.816 6.816 0 0 1-1.385 1.161c-.495.3-1.033.523-1.595.66-.571.14-1.191.21-1.859.21-1.916 0-3.454-.615-4.614-1.846-1.16-1.239-1.74-2.882-1.74-4.93 0-2.03.562-3.674 1.687-4.93 1.134-1.24 2.637-1.86 4.509-1.86 1.89 0 3.384.602 4.482 1.806 1.09 1.196 1.635 2.852 1.635 4.97l-.013.699Zm-3.045-2.425c-.414-1.583-1.411-2.373-2.993-2.373a2.958 2.958 0 0 0-1.015.17 2.782 2.782 0 0 0-.87.476c-.26.207-.483.457-.66.738a3.46 3.46 0 0 0-.421.989h5.959ZM17.695 90.987v-8.424c-1.178 1.204-2.523 1.806-4.034 1.806-1.732 0-3.169-.637-4.311-1.912-1.152-1.283-1.727-2.887-1.727-4.811 0-1.952.575-3.582 1.727-4.892 1.16-1.3 2.614-1.95 4.363-1.95 1.486 0 2.813.584 3.982 1.753v-1.398h2.98v19.828h-2.98Zm-7.04-13.473c0 1.239.334 2.245 1.002 3.019.668.79 1.516 1.186 2.544 1.186 1.09 0 1.973-.378 2.65-1.134.686-.764 1.028-1.757 1.028-2.979 0-1.204-.338-2.197-1.015-2.98-.677-.764-1.555-1.147-2.637-1.147-1.019 0-1.872.387-2.557 1.16-.677.783-1.015 1.74-1.015 2.875ZM27.7 71.159v7.37c0 2.127.84 3.19 2.518 3.19 1.679 0 2.518-1.063 2.518-3.19v-7.37h2.967v7.436c0 1.028-.128 1.916-.383 2.663-.246.668-.672 1.27-1.279 1.806-1.002.87-2.276 1.305-3.823 1.305-1.538 0-2.808-.435-3.81-1.305-.615-.536-1.05-1.138-1.305-1.806-.246-.598-.37-1.486-.37-2.663v-7.436H27.7Zm23.44 7.12h-9.2c.079 1.054.421 1.893 1.028 2.517.606.616 1.384.923 2.333.923.739 0 1.35-.175 1.833-.527.474-.352 1.015-1.002 1.621-1.951l2.505 1.397c-.386.66-.795 1.226-1.226 1.7A6.793 6.793 0 0 1 48.65 83.5c-.495.3-1.033.523-1.595.66-.572.14-1.191.21-1.86.21-1.915 0-3.453-.615-4.614-1.846-1.16-1.239-1.74-2.882-1.74-4.93 0-2.03.563-3.674 1.688-4.93 1.134-1.24 2.636-1.86 4.509-1.86 1.89 0 3.383.602 4.482 1.806 1.09 1.196 1.635 2.852 1.635 4.97l-.013.7-.002-.001Zm-3.045-2.426c-.413-1.582-1.41-2.373-2.992-2.373a3 3 0 0 0-1.016.17 2.8 2.8 0 0 0-.87.475c-.26.208-.482.457-.659.739a3.46 3.46 0 0 0-.422.989h5.959Zm24.56-.79c-.161-.684-.494-1.233-.998-1.647-.504-.414-1.116-.621-1.836-.621-.756 0-1.377.198-1.863.594-.468.396-.765.954-.89 1.674h5.587Zm-5.723 2.835c0 2.106.99 3.159 2.97 3.159 1.062 0 1.863-.432 2.403-1.296h4.725c-.954 3.168-3.34 4.752-7.155 4.752-1.17 0-2.24-.171-3.213-.513-.972-.36-1.81-.864-2.511-1.512a6.769 6.769 0 0 1-1.593-2.322c-.378-.9-.567-1.908-.567-3.024 0-1.152.18-2.187.54-3.105.36-.936.873-1.728 1.539-2.376a6.686 6.686 0 0 1 2.403-1.485c.954-.36 2.025-.54 3.213-.54 1.17 0 2.223.18 3.159.54.936.342 1.728.846 2.376 1.512.648.666 1.143 1.485 1.485 2.457.342.954.513 2.034.513 3.24v.513H66.932Zm22.26-4.185c-.9-.468-1.782-.702-2.646-.702-.45 0-.819.09-1.107.27-.27.18-.405.423-.405.729 0 .162.018.297.054.405.054.09.153.18.297.27.162.09.387.171.675.243.306.072.702.162 1.188.27 1.35.27 2.358.756 3.024 1.458.666.684 1 1.566 1 2.646 0 .81-.163 1.539-.487 2.187a4.778 4.778 0 0 1-1.35 1.647c-.576.432-1.269.765-2.079.999-.81.252-1.7.378-2.673.378-1.872 0-3.717-.531-5.535-1.593l1.782-3.456c1.368.936 2.664 1.404 3.888 1.404.45 0 .82-.099 1.107-.297.288-.198.432-.45.432-.756a.971.971 0 0 0-.08-.432.576.576 0 0 0-.27-.324c-.145-.108-.36-.198-.649-.27a9.326 9.326 0 0 0-1.08-.27c-1.512-.306-2.574-.756-3.186-1.35-.594-.612-.89-1.449-.89-2.511 0-.774.143-1.467.431-2.079a4.304 4.304 0 0 1 1.242-1.593c.54-.432 1.188-.765 1.944-.999.774-.234 1.63-.351 2.565-.351 1.53 0 3.015.297 4.455.891l-1.647 3.186Zm10.38.513V84h-4.886v-9.774h-1.62v-4.077h1.62v-4.158h4.887v4.158h2.781v4.077h-2.782Zm9.419 2.808c0 .45.081.873.243 1.269.162.378.378.711.648.999.288.288.621.513.999.675.396.162.819.243 1.269.243.432 0 .837-.081 1.215-.243.396-.162.729-.387.999-.675.287-.287.516-.626.675-.999.18-.378.27-.783.27-1.215 0-.432-.09-.837-.27-1.215a3.078 3.078 0 0 0-.675-1.026 2.8 2.8 0 0 0-.999-.675 3.05 3.05 0 0 0-1.215-.243c-.45 0-.873.081-1.269.243a3.166 3.166 0 0 0-.999.675c-.27.288-.486.621-.648.999-.162.36-.243.756-.243 1.188Zm6.156-6.885h4.914V84h-4.914v-1.539c-1.044 1.314-2.457 1.971-4.239 1.971-1.008 0-1.935-.18-2.781-.54a6.879 6.879 0 0 1-2.214-1.566 7.346 7.346 0 0 1-1.485-2.349c-.342-.9-.513-1.881-.513-2.943 0-.99.171-1.926.513-2.808.342-.9.819-1.683 1.431-2.349a6.576 6.576 0 0 1 2.187-1.566c.846-.396 1.782-.594 2.808-.594 1.728 0 3.159.603 4.293 1.809v-1.377Zm1.809-6.183-4.698 4.158-2.268-1.674 3.861-4.725 3.105 2.241Zm6.43 6.183h4.887v1.755c.666-.81 1.341-1.35 2.025-1.62.684-.288 1.485-.432 2.403-.432.972 0 1.8.162 2.484.486.689.296 1.299.75 1.782 1.323.396.468.666.99.81 1.566.144.576.216 1.233.216 1.971V84h-4.887v-6.993c0-.684-.054-1.233-.162-1.647-.09-.432-.261-.774-.513-1.026a1.852 1.852 0 0 0-.729-.459 2.717 2.717 0 0 0-.864-.135c-.828 0-1.467.252-1.917.756-.432.486-.648 1.188-.648 2.106V84h-4.887V70.149ZM19.915 105.325c-.783-.533-1.575-.8-2.375-.8-.433 0-.842.075-1.225.225a2.94 2.94 0 0 0-.975.65c-.29.275-.519.607-.675.975-.15.367-.225.783-.225 1.25 0 .45.075.867.225 1.25.167.367.383.692.65.975.283.267.617.475 1 .625.383.15.792.225 1.225.225.85 0 1.642-.292 2.375-.875v3.85c-1.117.483-2.175.725-3.175.725a7.585 7.585 0 0 1-2.675-.475 7.056 7.056 0 0 1-2.225-1.35 6.984 6.984 0 0 1-1.525-2.125c-.383-.833-.575-1.758-.575-2.775s.183-1.942.55-2.775c.346-.82.857-1.56 1.5-2.175a6.553 6.553 0 0 1 2.25-1.425 7.606 7.606 0 0 1 2.825-.525c1.1 0 2.117.233 3.05.7v3.85Zm6.856 2.2c0 .433.075.833.225 1.2.167.35.375.658.625.925.267.267.575.475.925.625.367.15.75.225 1.15.225.4 0 .775-.075 1.125-.225.35-.139.666-.352.925-.625.267-.267.475-.575.625-.925.167-.367.25-.758.25-1.175 0-.4-.083-.775-.25-1.125a2.862 2.862 0 0 0-.625-.95 2.596 2.596 0 0 0-.925-.625 2.823 2.823 0 0 0-1.125-.225c-.4 0-.784.075-1.15.225a2.92 2.92 0 0 0-.925.625c-.25.267-.458.575-.625.925-.15.35-.225.725-.225 1.125Zm-4.775-.05c0-.95.191-1.833.575-2.65a6.374 6.374 0 0 1 1.6-2.15 7.507 7.507 0 0 1 2.425-1.45c.95-.35 1.983-.525 3.1-.525 1.1 0 2.116.175 3.05.525.95.333 1.767.808 2.45 1.425.7.6 1.241 1.325 1.625 2.175.383.833.575 1.758.575 2.775s-.2 1.95-.6 2.8a6.644 6.644 0 0 1-1.6 2.175c-.684.6-1.509 1.067-2.475 1.4-.95.333-1.983.5-3.1.5-1.1 0-2.117-.167-3.05-.5a7.157 7.157 0 0 1-2.425-1.425 6.736 6.736 0 0 1-1.575-2.2c-.383-.867-.575-1.825-.575-2.875Zm18.005-6.3h4.525v2.1c.483-.767 1.075-1.35 1.775-1.75.7-.417 1.516-.625 2.45-.625h.375c.15 0 .316.017.5.05v4.325a4.309 4.309 0 0 0-1.95-.45c-1.05 0-1.842.317-2.375.95-.517.617-.775 1.525-.775 2.725v5.5H40l.001-12.825Zm11.645 0h4.525v2.1c.483-.767 1.075-1.35 1.775-1.75.7-.417 1.517-.625 2.45-.625h.375c.15 0 .317.017.5.05v4.325a4.309 4.309 0 0 0-1.95-.45c-1.05 0-1.841.317-2.375.95-.517.617-.775 1.525-.775 2.725v5.5h-4.525v-12.825Zm21.167 4.55c-.15-.633-.458-1.142-.925-1.525-.466-.383-1.033-.575-1.7-.575-.7 0-1.275.183-1.725.55-.433.367-.708.883-.825 1.55h5.175Zm-5.3 2.625c0 1.95.917 2.925 2.75 2.925.983 0 1.725-.4 2.225-1.2h4.375c-.883 2.933-3.091 4.4-6.625 4.4-1.083 0-2.075-.158-2.975-.475-.9-.333-1.675-.8-2.325-1.4a6.269 6.269 0 0 1-1.475-2.15c-.35-.833-.525-1.767-.525-2.8 0-1.067.167-2.025.5-2.875.334-.867.808-1.6 1.425-2.2a6.206 6.206 0 0 1 2.225-1.375c.883-.333 1.875-.5 2.975-.5 1.084 0 2.058.167 2.925.5a5.79 5.79 0 0 1 2.2 1.4c.6.617 1.058 1.375 1.375 2.275.317.883.475 1.883.475 3v.475h-9.525Zm21.787-3.025c-.784-.533-1.575-.8-2.375-.8-.434 0-.842.075-1.225.225a2.94 2.94 0 0 0-.975.65c-.29.275-.519.607-.675.975-.15.367-.225.783-.225 1.25 0 .45.075.867.225 1.25.166.367.383.692.65.975.283.267.616.475 1 .625.383.15.791.225 1.225.225.85 0 1.641-.292 2.375-.875v3.85c-1.117.483-2.175.725-3.175.725a7.585 7.585 0 0 1-2.675-.475 7.057 7.057 0 0 1-2.225-1.35 6.984 6.984 0 0 1-1.525-2.125c-.384-.833-.575-1.758-.575-2.775s.183-1.942.55-2.775c.346-.82.856-1.56 1.5-2.175a6.552 6.552 0 0 1 2.25-1.425 7.606 7.606 0 0 1 2.825-.525c1.1 0 2.116.233 3.05.7v3.85Zm7.63-.375V114h-4.524v-9.05h-1.5v-3.775h1.5v-3.85h4.525v3.85h2.575v3.775H96.93Zm8.72 2.6c0 .417.076.808.226 1.175.15.35.35.658.6.925.267.267.575.475.925.625.367.15.758.225 1.175.225.4 0 .775-.075 1.125-.225.367-.15.675-.358.925-.625.267-.267.475-.575.625-.925.167-.35.25-.725.25-1.125s-.083-.775-.25-1.125a2.844 2.844 0 0 0-.625-.95 2.595 2.595 0 0 0-.925-.625 2.826 2.826 0 0 0-1.125-.225c-.417 0-.808.075-1.175.225-.35.15-.658.358-.925.625-.25.267-.45.575-.6.925-.15.333-.226.7-.226 1.1Zm5.701-6.375h4.55V114h-4.55v-1.425c-.967 1.217-2.275 1.825-3.925 1.825-.933 0-1.792-.167-2.575-.5a6.349 6.349 0 0 1-2.05-1.45 6.815 6.815 0 0 1-1.375-2.175c-.317-.833-.475-1.742-.475-2.725 0-.917.158-1.783.475-2.6a6.679 6.679 0 0 1 1.325-2.175 6.088 6.088 0 0 1 2.025-1.45c.783-.367 1.65-.55 2.6-.55 1.6 0 2.925.558 3.975 1.675v-1.275Zm16.129 3.3c-.833-.433-1.65-.65-2.45-.65-.416 0-.758.083-1.025.25-.25.167-.375.392-.375.675 0 .15.017.275.05.375.05.083.142.167.275.25.15.083.359.158.625.225.284.067.65.15 1.1.25 1.25.25 2.184.7 2.8 1.35.617.633.925 1.45.925 2.45 0 .75-.15 1.425-.45 2.025a4.419 4.419 0 0 1-1.25 1.525c-.533.4-1.175.708-1.925.925-.75.233-1.575.35-2.475.35-1.733 0-3.441-.492-5.125-1.475l1.65-3.2c1.267.867 2.467 1.3 3.6 1.3.417 0 .759-.092 1.025-.275.267-.183.4-.417.4-.7a.902.902 0 0 0-.075-.4.526.526 0 0 0-.25-.3c-.133-.1-.333-.183-.6-.25a8.598 8.598 0 0 0-1-.25c-1.4-.283-2.383-.7-2.95-1.25-.55-.567-.825-1.342-.825-2.325 0-.717.134-1.358.4-1.925a3.989 3.989 0 0 1 1.15-1.475c.5-.4 1.1-.708 1.8-.925.717-.217 1.509-.325 2.375-.325 1.417 0 2.792.275 4.125.825l-1.525 2.95Zm3.995 7.125c0-.4.075-.775.225-1.125.142-.355.355-.679.625-.95.267-.267.575-.475.925-.625.365-.15.756-.226 1.15-.225.4 0 .775.075 1.125.225.367.15.683.358.95.625.267.267.475.583.625.95.15.35.225.725.225 1.125s-.075.783-.225 1.15c-.15.35-.358.658-.625.925-.271.27-.595.483-.95.625-.35.15-.725.225-1.125.225s-.783-.075-1.15-.225a2.924 2.924 0 0 1-1.55-1.55 3.006 3.006 0 0 1-.225-1.15Z" fill="#fff"/></svg>