<svg width="138" height="60" viewBox="0 0 138 60" fill="none" xmlns="http://www.w3.org/2000/svg"><rect x="1" y="1" width="136" height="58" rx="5" fill="#FFF98F" stroke="#FFFCCD" stroke-width="2"/><path d="M23.877 24.125h.765c.578 0 1.093-.091 1.547-.272.453-.182.833-.431 1.139-.748.317-.318.555-.692.714-1.122.17-.442.255-.924.255-1.445 0-.51-.085-.986-.255-1.428a3.227 3.227 0 00-.731-1.14 3.216 3.216 0 00-1.14-.747 4.09 4.09 0 00-1.53-.272h-.764v7.174zm-3.332-9.996h4.93a5.76 5.76 0 012.448.527c.77.35 1.439.821 2.006 1.41a6.31 6.31 0 011.36 2.04c.328.771.493 1.582.493 2.432 0 .838-.165 1.649-.493 2.43a6.324 6.324 0 01-1.343 2.04 6.485 6.485 0 01-2.006 1.412 5.799 5.799 0 01-2.465.527h-4.93V14.129zm20.997 2.822H37.58v2.142h3.74v2.822h-3.74v2.21h3.96v2.822H34.25V14.129h7.293v2.822zm7.604 0v9.996h-3.332V16.95h-2.737v-2.822h8.806v2.822h-2.737zm11.852 0h-3.96v2.142h3.74v2.822h-3.74v2.21h3.96v2.822h-7.293V14.129h7.293v2.822zm-.629-6.086l-3.264 2.244-1.292-1.207 2.771-2.652 1.785 1.615zm3.371 16.082V14.129h3.333l6.154 7.837v-7.837h3.314v12.818h-3.314l-6.154-7.837v7.837H63.74zm25.28-12.818v9.996h3.994v2.822h-7.327V14.129h3.332zm13.556 8.058l-1.496-4.267-1.496 4.267h2.992zm.884 2.533H98.7l-.765 2.227h-3.553l4.88-12.818h3.637l4.879 12.818h-3.553l-.765-2.227zm13.154-7.31a3.928 3.928 0 00-1.088-.646 2.795 2.795 0 00-1.054-.221c-.431 0-.782.102-1.054.306a.953.953 0 00-.408.799c0 .226.068.413.204.56.136.148.312.278.527.392.227.102.476.192.748.272.283.079.561.164.833.255 1.088.362 1.881.85 2.38 1.462.51.6.765 1.388.765 2.363 0 .657-.113 1.252-.34 1.785a3.663 3.663 0 01-.969 1.377c-.419.374-.941.663-1.564.867-.612.215-1.309.323-2.091.323-1.621 0-3.122-.482-4.505-1.445l1.428-2.686c.499.442.992.77 1.479.986.487.215.969.323 1.445.323.544 0 .946-.125 1.207-.374.272-.25.408-.533.408-.85 0-.193-.034-.357-.102-.493a.998.998 0 00-.34-.391 2.485 2.485 0 00-.629-.34 17.318 17.318 0 00-.918-.34 23.923 23.923 0 01-1.275-.442 4.344 4.344 0 01-1.105-.663 3.224 3.224 0 01-.782-1.02c-.193-.42-.289-.947-.289-1.581 0-.635.102-1.207.306-1.717.215-.522.51-.964.884-1.326.385-.374.85-.663 1.394-.867a5.34 5.34 0 011.853-.306c.635 0 1.298.09 1.989.272.691.17 1.354.425 1.989.765l-1.326 2.6zM38.848 36.95h-3.961v2.143h3.74v2.822h-3.74v2.21h3.961v2.822h-7.293V34.129h7.293v2.822zm9.78.46a3.93 3.93 0 00-1.088-.646 2.794 2.794 0 00-1.054-.221c-.43 0-.782.102-1.054.306a.953.953 0 00-.408.799c0 .226.068.413.204.56.136.148.312.278.527.392.227.102.476.192.748.272.284.079.561.164.833.255 1.088.362 1.882.85 2.38 1.462.51.6.765 1.388.765 2.363 0 .657-.113 1.252-.34 1.785a3.672 3.672 0 01-.969 1.377c-.419.374-.94.663-1.564.867-.612.215-1.309.323-2.09.323-1.621 0-3.123-.482-4.506-1.445l1.428-2.686c.499.442.992.77 1.48.986.487.215.968.323 1.444.323.544 0 .947-.125 1.207-.374.272-.25.408-.533.408-.85a1.002 1.002 0 00-.442-.884 2.487 2.487 0 00-.629-.34c-.249-.102-.555-.216-.918-.34a24.11 24.11 0 01-1.275-.442 4.338 4.338 0 01-1.105-.663 3.218 3.218 0 01-.782-1.02c-.192-.42-.289-.947-.289-1.581 0-.635.102-1.207.306-1.717.216-.522.51-.964.884-1.326.386-.374.85-.663 1.394-.867a5.34 5.34 0 011.853-.306c.635 0 1.298.09 1.99.272.69.17 1.354.425 1.988.765l-1.326 2.6zm9.238-.46v9.997h-3.332V36.95h-2.737v-2.822h8.806v2.822h-2.737zm10.931 5.237l-1.496-4.267-1.496 4.267h2.992zm.884 2.533h-4.76l-.765 2.227h-3.553l4.879-12.818h3.638l4.879 12.818h-3.553l-.765-2.227zm13.46-7.77h-4.012v2.143h3.655v2.822h-3.655v5.032h-3.332V34.129h7.344v2.822zm8.765 5.237L90.41 37.92l-1.496 4.267h2.992zm.884 2.533h-4.76l-.765 2.227h-3.553l4.879-12.818h3.638l4.879 12.818h-3.553l-.765-2.227zm13.154-7.31a3.942 3.942 0 00-1.088-.646 2.795 2.795 0 00-1.054-.221c-.431 0-.782.102-1.054.306a.953.953 0 00-.408.799c0 .226.068.413.204.56.136.148.311.278.527.392a5.7 5.7 0 00.748.272c.283.079.561.164.833.255 1.088.362 1.881.85 2.38 1.462.51.6.765 1.388.765 2.363 0 .657-.114 1.252-.34 1.785a3.686 3.686 0 01-.969 1.377c-.42.374-.941.663-1.564.867-.612.215-1.309.323-2.091.323-1.621 0-3.123-.482-4.505-1.445l1.428-2.686c.498.442.991.77 1.479.986.487.215.969.323 1.445.323.544 0 .946-.125 1.207-.374.272-.25.408-.533.408-.85 0-.193-.034-.357-.102-.493a1.007 1.007 0 00-.34-.391 2.502 2.502 0 00-.629-.34c-.25-.102-.556-.216-.918-.34a23.923 23.923 0 01-1.275-.442 4.336 4.336 0 01-1.105-.663 3.22 3.22 0 01-.782-1.02c-.193-.42-.29-.947-.29-1.581 0-.635.103-1.207.307-1.717.215-.522.51-.964.884-1.326.385-.374.85-.663 1.394-.867a5.34 5.34 0 011.853-.306c.634 0 1.297.09 1.989.272.691.17 1.354.425 1.989.765l-1.326 2.6z" fill="#484240"/></svg>