<svg width="121" height="111" viewBox="0 0 121 111" fill="none" xmlns="http://www.w3.org/2000/svg">
    <g clip-path="url(#a)">
        <path d="m17.915 13.317-2.023-5.773-2.024 5.773h4.047Zm1.197 3.427h-6.44l-1.036 3.013H6.83l6.6-17.342h4.922l6.601 17.342h-4.806l-1.035-3.013Zm17.077-2.852a2.599 2.599 0 0 0-.207-1.035 2.358 2.358 0 0 0-.552-.874 2.626 2.626 0 0 0-.874-.575 2.427 2.427 0 0 0-1.058-.23 2.6 2.6 0 0 0-1.035.207 2.69 2.69 0 0 0-.85.575 3.2 3.2 0 0 0-.576.874 2.6 2.6 0 0 0-.207 1.035c0 .368.07.713.207 1.035.138.322.33.605.575.85.245.23.53.422.851.576.337.138.69.207 1.058.207a2.6 2.6 0 0 0 1.035-.207 2.44 2.44 0 0 0 .828-.575c.245-.246.437-.53.575-.851.153-.322.23-.66.23-1.012Zm-5.244 11.753h-4.163V7.958h4.163v1.31c.89-1.119 2.1-1.678 3.634-1.678.843 0 1.625.168 2.346.506.72.31 1.37.765 1.91 1.334.536.567.95 1.234 1.241 2 .307.767.46 1.588.46 2.462a6.39 6.39 0 0 1-.46 2.438 6.009 6.009 0 0 1-1.242 1.978 5.608 5.608 0 0 1-1.863 1.334 5.685 5.685 0 0 1-2.346.483c-1.472 0-2.699-.506-3.68-1.518v7.038ZM42.91 7.958h4.163V9.89c.445-.706.99-1.242 1.633-1.61.644-.384 1.395-.575 2.254-.575h.345c.138 0 .291.015.46.046v3.979a3.954 3.954 0 0 0-1.794-.414c-.966 0-1.694.291-2.185.874-.475.567-.713 1.403-.713 2.507v5.06H42.91v-11.8.001Zm19.474 4.186c-.139-.583-.422-1.05-.852-1.403-.429-.353-.95-.53-1.563-.53-.645 0-1.174.17-1.588.507-.398.337-.65.812-.759 1.426h4.762Zm-4.877 2.415c0 1.794.844 2.69 2.53 2.69.905 0 1.587-.367 2.047-1.103h4.026c-.813 2.698-2.845 4.048-6.096 4.048-.996 0-1.908-.146-2.736-.437a6.382 6.382 0 0 1-2.14-1.288 5.767 5.767 0 0 1-1.356-1.978c-.322-.767-.483-1.626-.483-2.576 0-.982.153-1.863.46-2.645a5.57 5.57 0 0 1 1.31-2.024 5.697 5.697 0 0 1 2.047-1.265c.813-.307 1.725-.46 2.737-.46.997 0 1.894.153 2.692.46a5.32 5.32 0 0 1 2.024 1.288c.552.567.973 1.265 1.265 2.093.29.812.437 1.732.437 2.76v.437h-8.764ZM68.65 7.958h4.163v1.495c.567-.69 1.142-1.15 1.725-1.38.583-.246 1.265-.368 2.047-.368.828 0 1.534.138 2.116.414.598.26 1.104.636 1.518 1.127.337.398.567.843.69 1.334.123.49.184 1.05.184 1.679v7.498H76.93V13.8c0-.583-.046-1.05-.138-1.403-.076-.368-.222-.66-.437-.874a1.577 1.577 0 0 0-.62-.391 2.311 2.311 0 0 0-.737-.115c-.705 0-1.25.214-1.633.644-.368.414-.552 1.012-.552 1.794v6.302H68.65v-11.8.001Zm19.138 5.865c0 .383.07.743.207 1.08.138.323.322.606.552.852a2.7 2.7 0 0 0 .85.575c.338.138.698.207 1.082.207a2.6 2.6 0 0 0 1.035-.207c.337-.138.62-.33.85-.575.246-.246.438-.53.576-.851.153-.322.23-.667.23-1.035 0-.368-.077-.713-.23-1.035a2.627 2.627 0 0 0-.575-.874 2.384 2.384 0 0 0-.85-.575 2.6 2.6 0 0 0-1.036-.207c-.368 0-.72.069-1.058.207a2.69 2.69 0 0 0-.85.575 3.323 3.323 0 0 0-.576.85c-.14.319-.211.664-.207 1.013ZM93.03.667h4.186v19.09H93.03v-1.311c-.89 1.12-2.093 1.679-3.61 1.679a5.741 5.741 0 0 1-4.256-1.817 6.265 6.265 0 0 1-1.265-2.001 6.934 6.934 0 0 1-.437-2.484c0-.844.138-1.64.414-2.392a6.15 6.15 0 0 1 1.22-2.001 5.605 5.605 0 0 1 1.862-1.334 5.726 5.726 0 0 1 2.415-.506c1.472 0 2.69.513 3.657 1.54V.667Zm15.644 11.477c-.138-.583-.422-1.05-.851-1.403-.43-.353-.951-.53-1.564-.53-.644 0-1.173.17-1.587.507-.399.337-.652.812-.759 1.426h4.761Zm-4.876 2.415c0 1.794.843 2.69 2.53 2.69.904 0 1.587-.367 2.047-1.103h4.025c-.813 2.698-2.845 4.048-6.095 4.048-.997 0-1.909-.146-2.737-.437a6.385 6.385 0 0 1-2.14-1.288 5.755 5.755 0 0 1-1.356-1.978c-.322-.767-.483-1.626-.483-2.576 0-.982.153-1.863.46-2.645a5.577 5.577 0 0 1 1.31-2.024 5.697 5.697 0 0 1 2.048-1.265c.812-.307 1.725-.46 2.737-.46.996 0 1.893.153 2.691.46a5.32 5.32 0 0 1 2.024 1.288c.552.567.973 1.265 1.265 2.093.291.812.437 1.732.437 2.76v.437h-8.763ZM18.551 40.994c-.766-.399-1.518-.598-2.254-.598-.383 0-.698.076-.943.23a.712.712 0 0 0-.345.62c0 .139.015.254.046.346.046.076.13.153.253.23.138.076.33.145.575.207.26.061.598.138 1.012.23 1.15.23 2.01.644 2.576 1.242.567.582.851 1.334.851 2.254 0 .69-.138 1.31-.414 1.863a4.071 4.071 0 0 1-1.15 1.403c-.49.368-1.08.651-1.77.85a7.64 7.64 0 0 1-2.278.323c-1.595 0-3.166-.453-4.715-1.357l1.518-2.944c1.165.797 2.27 1.196 3.312 1.196.384 0 .698-.085.943-.253.245-.169.368-.384.368-.644a.828.828 0 0 0-.069-.368.49.49 0 0 0-.23-.276c-.122-.092-.306-.169-.552-.23a7.95 7.95 0 0 0-.92-.23c-1.288-.26-2.192-.644-2.714-1.15-.506-.522-.759-1.235-.759-2.14 0-.659.123-1.249.368-1.77.24-.53.603-.995 1.058-1.357a4.974 4.974 0 0 1 1.656-.851c.66-.2 1.388-.3 2.185-.3 1.303 0 2.57.254 3.795.76l-1.403 2.714Zm7.815 2.806c0 .398.07.766.207 1.104.154.322.345.605.575.85.246.246.53.438.851.576.338.138.69.207 1.058.207a2.6 2.6 0 0 0 1.035-.207c.338-.138.621-.33.851-.575.245-.244.44-.533.575-.851a2.58 2.58 0 0 0 .23-1.081c0-.368-.076-.713-.23-1.035a2.624 2.624 0 0 0-.575-.874 2.384 2.384 0 0 0-.85-.575 2.6 2.6 0 0 0-1.036-.207c-.368 0-.72.069-1.058.207a2.69 2.69 0 0 0-.85.575c-.23.245-.422.529-.576.85-.139.328-.21.68-.207 1.036Zm-4.393-.046c0-.874.177-1.687.53-2.438a5.863 5.863 0 0 1 1.471-1.978 6.914 6.914 0 0 1 2.231-1.334c.874-.322 1.825-.483 2.852-.483 1.012 0 1.948.16 2.806.483.874.306 1.626.743 2.254 1.31a5.674 5.674 0 0 1 1.495 2.002c.353.766.53 1.617.53 2.553 0 .935-.185 1.794-.553 2.576a6.106 6.106 0 0 1-1.472 2c-.628.553-1.387.982-2.277 1.289-.874.306-1.824.46-2.852.46-1.012 0-1.947-.154-2.806-.46a6.605 6.605 0 0 1-2.23-1.311 6.196 6.196 0 0 1-1.45-2.024c-.352-.798-.529-1.68-.529-2.645Zm25.972.138a2.599 2.599 0 0 0-.207-1.035 2.627 2.627 0 0 0-.575-.874 2.69 2.69 0 0 0-.85-.575 2.427 2.427 0 0 0-1.059-.23 2.6 2.6 0 0 0-1.035.207 2.69 2.69 0 0 0-.85.575 3.2 3.2 0 0 0-.576.874 2.6 2.6 0 0 0-.207 1.035c0 .368.07.713.207 1.035.138.322.33.605.575.85.245.23.53.422.85.576.338.138.69.207 1.06.207a2.6 2.6 0 0 0 1.034-.207 2.44 2.44 0 0 0 .828-.575c.245-.244.44-.533.575-.851.153-.322.23-.66.23-1.012ZM42.7 30.667v8.464c.981-1.028 2.208-1.541 3.68-1.541.874 0 1.671.168 2.392.506a5.31 5.31 0 0 1 1.863 1.334 5.887 5.887 0 0 1 1.22 1.978c.294.77.442 1.59.436 2.415a6.57 6.57 0 0 1-.46 2.46 5.954 5.954 0 0 1-1.242 2.002 6.093 6.093 0 0 1-1.91 1.357 5.684 5.684 0 0 1-2.345.483c-1.534 0-2.745-.56-3.634-1.68v1.312h-4.163v-19.09H42.7Zm11.964 7.29h4.163v1.933c.444-.706.99-1.242 1.633-1.61.644-.384 1.395-.575 2.254-.575h.345c.138 0 .291.015.46.046v3.979a3.954 3.954 0 0 0-1.794-.414c-.966 0-1.695.291-2.185.874-.476.567-.713 1.403-.713 2.507v5.06h-4.163v-11.8Zm19.473 4.187c-.138-.583-.42-1.05-.85-1.403s-.95-.53-1.565-.53c-.644 0-1.173.17-1.587.507-.398.337-.65.812-.759 1.426h4.761Zm-4.876 2.415c0 1.794.844 2.69 2.53 2.69.905 0 1.587-.367 2.047-1.103h4.025c-.812 2.698-2.844 4.048-6.095 4.048-.996 0-1.909-.146-2.737-.437a6.38 6.38 0 0 1-2.139-1.288 5.765 5.765 0 0 1-1.357-1.978c-.322-.767-.483-1.626-.483-2.576 0-.982.154-1.863.46-2.645a5.57 5.57 0 0 1 1.311-2.024 5.694 5.694 0 0 1 2.047-1.265c.813-.307 1.725-.46 2.737-.46.997 0 1.894.153 2.691.46.798.291 1.472.72 2.024 1.288.552.567.974 1.265 1.265 2.093.292.812.437 1.732.437 2.76v.437h-8.763Zm27.584-2.415c-.138-.583-.42-1.05-.85-1.403s-.95-.53-1.565-.53c-.644 0-1.173.17-1.587.507-.398.337-.65.812-.759 1.426h4.761Zm-4.876 2.415c0 1.794.844 2.69 2.53 2.69.905 0 1.587-.367 2.047-1.103h4.025c-.812 2.698-2.844 4.048-6.095 4.048-.996 0-1.909-.146-2.737-.437a6.38 6.38 0 0 1-2.139-1.288 5.765 5.765 0 0 1-1.357-1.978c-.322-.767-.483-1.626-.483-2.576 0-.982.154-1.863.46-2.645a5.57 5.57 0 0 1 1.311-2.024 5.694 5.694 0 0 1 2.047-1.265c.813-.307 1.725-.46 2.737-.46.997 0 1.894.153 2.691.46.798.291 1.472.72 2.024 1.288.552.567.974 1.265 1.265 2.093.292.812.437 1.732.437 2.76v.437h-8.763Zm15.306-13.892v19.09h-4.163v-19.09h4.163ZM12.872 71.43v8.326H8.71V71.43H7.214v-3.473H8.71v-1.771c0-.982.092-1.764.276-2.346a4.05 4.05 0 0 1 .736-1.357c.337-.43.728-.798 1.173-1.104a5.89 5.89 0 0 1 1.472-.713 4.986 4.986 0 0 1 1.541-.253c.353 0 .675.038.966.115.307.076.613.184.92.322v3.634a3.855 3.855 0 0 0-.782-.3 2.313 2.313 0 0 0-.736-.114c-.169 0-.345.03-.529.092-.169.046-.33.153-.483.322-.153.168-.26.414-.322.736-.053.42-.076.842-.069 1.265v1.472h2.921v3.473h-2.92Zm4.476-3.473h4.163v1.932c.445-.706.99-1.242 1.633-1.61.644-.384 1.396-.575 2.254-.575h.345c.138 0 .292.015.46.046v3.979a3.954 3.954 0 0 0-1.794-.414c-.966 0-1.694.291-2.185.874-.475.567-.713 1.403-.713 2.507v5.06h-4.163V67.957Zm14.713 5.865c0 .383.07.743.207 1.08.138.323.322.606.552.852.245.245.53.437.851.575.337.138.698.207 1.081.207a2.6 2.6 0 0 0 1.035-.207c.337-.138.621-.33.851-.575.245-.246.437-.53.575-.851.153-.322.23-.667.23-1.035 0-.368-.077-.713-.23-1.035a2.625 2.625 0 0 0-.575-.874 2.384 2.384 0 0 0-.85-.575 2.6 2.6 0 0 0-1.036-.207c-.383 0-.744.069-1.08.207a2.69 2.69 0 0 0-.852.575 2.91 2.91 0 0 0-.552.85c-.14.319-.211.664-.207 1.013Zm5.244-5.865h4.186v11.799h-4.186v-1.311c-.89 1.12-2.093 1.679-3.61 1.679a5.989 5.989 0 0 1-2.37-.46 5.86 5.86 0 0 1-1.886-1.334 6.265 6.265 0 0 1-1.265-2.001 7.006 7.006 0 0 1-.437-2.507c0-.844.146-1.64.437-2.392a6.15 6.15 0 0 1 1.22-2.001 5.605 5.605 0 0 1 1.862-1.334c.72-.338 1.518-.506 2.392-.506 1.472 0 2.691.513 3.657 1.54v-1.172Zm11.182 0v6.647c0 1.456.705 2.185 2.116 2.185 1.41 0 2.116-.729 2.116-2.185v-6.647h4.163v7.452c0 1.594-.529 2.79-1.587 3.588-1.043.797-2.607 1.196-4.692 1.196s-3.657-.399-4.715-1.196c-1.043-.798-1.564-1.994-1.564-3.588v-7.452h4.163Zm15.087 5.865c0 .383.07.743.207 1.08.138.323.322.606.552.852a2.7 2.7 0 0 0 .85.575c.338.138.698.207 1.082.207a2.6 2.6 0 0 0 1.035-.207c.337-.138.62-.33.85-.575.246-.246.438-.53.576-.851.153-.322.23-.667.23-1.035 0-.368-.077-.713-.23-1.035a2.627 2.627 0 0 0-.575-.874 2.384 2.384 0 0 0-.85-.575 2.6 2.6 0 0 0-1.036-.207c-.368 0-.72.069-1.058.207a2.69 2.69 0 0 0-.85.575 3.323 3.323 0 0 0-.576.85c-.14.319-.211.664-.207 1.013Zm5.244-13.156h4.186v19.09h-4.186v-1.311c-.89 1.12-2.093 1.679-3.61 1.679a5.74 5.74 0 0 1-4.256-1.817 6.265 6.265 0 0 1-1.265-2.001 6.939 6.939 0 0 1-.437-2.484c0-.844.138-1.64.414-2.392a6.15 6.15 0 0 1 1.22-2.001 5.605 5.605 0 0 1 1.862-1.334 5.725 5.725 0 0 1 2.415-.506c1.472 0 2.69.513 3.657 1.54v-8.463Zm15.644 11.477c-.138-.583-.422-1.05-.85-1.403-.43-.353-.952-.53-1.565-.53-.644 0-1.173.17-1.587.507-.399.337-.652.812-.76 1.426h4.762Zm-4.876 2.415c0 1.794.843 2.69 2.53 2.69.904 0 1.587-.367 2.047-1.103h4.025c-.813 2.698-2.845 4.048-6.095 4.048-.997 0-1.91-.146-2.737-.437a6.382 6.382 0 0 1-2.14-1.288 5.767 5.767 0 0 1-1.356-1.978c-.322-.767-.483-1.626-.483-2.576 0-.982.153-1.863.46-2.645a5.57 5.57 0 0 1 1.31-2.024 5.695 5.695 0 0 1 2.048-1.265c.812-.307 1.725-.46 2.737-.46.996 0 1.893.153 2.69.46.798.291 1.473.72 2.025 1.288.552.567.973 1.265 1.265 2.093.291.812.437 1.732.437 2.76v.437h-8.763Zm22.823-.736c0 .383.069.743.207 1.08.138.323.322.606.552.852.245.245.529.437.851.575.337.138.697.207 1.081.207.356.002.708-.068 1.035-.207.322-.128.612-.324.851-.575.245-.246.437-.53.575-.851.153-.322.23-.667.23-1.035 0-.368-.077-.713-.23-1.035a2.631 2.631 0 0 0-.575-.874 2.383 2.383 0 0 0-.851-.575 2.598 2.598 0 0 0-1.035-.207c-.384 0-.744.069-1.081.207-.322.138-.606.33-.851.575a2.916 2.916 0 0 0-.552.85 2.436 2.436 0 0 0-.207 1.013Zm5.244-5.865h4.186v11.799h-4.186v-1.311c-.89 1.12-2.093 1.679-3.611 1.679a5.992 5.992 0 0 1-2.37-.46 5.868 5.868 0 0 1-1.885-1.334 6.265 6.265 0 0 1-1.265-2.001 7.002 7.002 0 0 1-.437-2.507c0-.844.145-1.64.437-2.392a6.15 6.15 0 0 1 1.22-2.001 5.61 5.61 0 0 1 1.862-1.334c.72-.338 1.518-.506 2.392-.506 1.472 0 2.691.513 3.657 1.54v-1.172Zm-106.7 41.8 2.943-17.342h4.462l3.473 9.246 3.45-9.246h4.463l2.944 17.342h-4.485l-1.495-9.982-4.094 9.982H10.82l-3.887-9.982-1.495 9.982H.953Zm32.195-7.613c-.138-.583-.422-1.051-.85-1.403-.43-.353-.952-.529-1.565-.529-.644 0-1.173.168-1.587.506-.399.337-.652.812-.759 1.426h4.761Zm-4.876 2.415c0 1.794.844 2.691 2.53 2.691.905 0 1.587-.368 2.047-1.104h4.025c-.813 2.698-2.844 4.048-6.095 4.048-.997 0-1.909-.146-2.737-.437a6.378 6.378 0 0 1-2.139-1.288 5.772 5.772 0 0 1-1.357-1.978c-.322-.767-.483-1.626-.483-2.576 0-.982.154-1.863.46-2.645a5.567 5.567 0 0 1 1.311-2.024 5.694 5.694 0 0 1 2.047-1.265c.813-.307 1.725-.46 2.737-.46.997 0 1.894.153 2.691.46a5.32 5.32 0 0 1 2.024 1.288c.552.567.974 1.265 1.265 2.093.291.812.437 1.732.437 2.76v.437h-8.763Zm15.007-.736c0 .383.07.743.207 1.081.138.322.322.605.552.851a2.7 2.7 0 0 0 .85.575c.338.138.698.207 1.082.207.356.002.708-.068 1.035-.207a2.39 2.39 0 0 0 .85-.575c.245-.244.44-.533.576-.851.153-.322.23-.667.23-1.035 0-.368-.077-.713-.23-1.035a2.622 2.622 0 0 0-.575-.874 2.377 2.377 0 0 0-.85-.575 2.609 2.609 0 0 0-1.036-.207c-.368 0-.72.069-1.058.207-.318.135-.607.33-.85.575-.23.245-.423.529-.576.851a2.44 2.44 0 0 0-.207 1.012Zm5.244-13.156h4.186v19.09h-4.186v-1.311c-.89 1.119-2.093 1.679-3.61 1.679a5.736 5.736 0 0 1-4.256-1.817 6.28 6.28 0 0 1-1.265-2.001 6.936 6.936 0 0 1-.437-2.484c0-.844.138-1.641.414-2.392a6.152 6.152 0 0 1 1.22-2.001 5.605 5.605 0 0 1 1.862-1.334 5.725 5.725 0 0 1 2.415-.506c1.472 0 2.69.513 3.657 1.54v-8.463Zm11.182 7.29v11.8h-4.163v-11.8h4.163Zm-4.44-4.53c0-.322.062-.621.185-.897.122-.292.291-.545.506-.76.214-.214.46-.383.736-.505a2.347 2.347 0 0 1 3.082 1.265 2.346 2.346 0 0 1 0 1.817 2.425 2.425 0 0 1-.506.736 2.35 2.35 0 0 1-.76.506 2.348 2.348 0 0 1-1.817 0 2.43 2.43 0 0 1-.735-.506 2.428 2.428 0 0 1-.506-.736 2.349 2.349 0 0 1-.185-.92Zm16.186 8.349c-.72-.491-1.45-.736-2.185-.736-.4 0-.775.069-1.128.207-.336.137-.641.34-.897.598a2.68 2.68 0 0 0-.62.897c-.138.337-.207.72-.207 1.15 0 .414.07.797.207 1.15.153.337.352.636.598.897.26.245.567.437.92.575.352.138.728.207 1.127.207.781 0 1.51-.269 2.184-.805v3.542c-1.027.444-2 .667-2.92.667a7.012 7.012 0 0 1-2.462-.437 6.508 6.508 0 0 1-2.046-1.242 6.427 6.427 0 0 1-1.404-1.955c-.352-.767-.529-1.618-.529-2.553 0-.936.17-1.787.507-2.553a5.99 5.99 0 0 1 1.38-2.001 6.033 6.033 0 0 1 2.07-1.311 6.99 6.99 0 0 1 2.598-.483c1.012 0 1.948.214 2.806.644l.001 3.542Zm6.238 2.047c0 .383.07.743.207 1.081.138.322.322.605.552.851a2.7 2.7 0 0 0 .85.575c.338.138.7.207 1.082.207a2.61 2.61 0 0 0 1.035-.207 2.39 2.39 0 0 0 .85-.575 2.69 2.69 0 0 0 .576-.851c.153-.322.23-.667.23-1.035 0-.368-.077-.713-.23-1.035a2.619 2.619 0 0 0-.575-.874 2.377 2.377 0 0 0-.85-.575 2.61 2.61 0 0 0-1.036-.207c-.383 0-.744.069-1.08.207-.319.135-.608.33-.852.575-.23.245-.414.529-.552.851a2.44 2.44 0 0 0-.207 1.012Zm5.244-5.865h4.186v11.799h-4.186v-1.311c-.89 1.119-2.093 1.679-3.61 1.679a6.003 6.003 0 0 1-2.37-.46 5.864 5.864 0 0 1-1.886-1.334 6.284 6.284 0 0 1-1.265-2.001 7.007 7.007 0 0 1-.437-2.507c0-.844.146-1.641.437-2.392a6.154 6.154 0 0 1 1.22-2.001 5.607 5.607 0 0 1 1.862-1.334c.72-.338 1.518-.506 2.392-.506 1.472 0 2.69.513 3.657 1.54v-1.172Zm7.02 0h4.162v1.932c.445-.706.99-1.242 1.633-1.61.644-.384 1.395-.575 2.254-.575h.345c.138 0 .291.015.46.046v3.979a3.958 3.958 0 0 0-1.794-.414c-.966 0-1.695.291-2.185.874-.475.567-.713 1.403-.713 2.507v5.06h-4.163V97.958Zm19.473 4.186c-.138-.583-.422-1.051-.851-1.403-.43-.353-.951-.529-1.564-.529-.644 0-1.173.168-1.587.506-.399.337-.652.812-.759 1.426h4.761Zm-4.876 2.415c0 1.794.843 2.691 2.53 2.691.904 0 1.587-.368 2.047-1.104h4.025c-.813 2.698-2.845 4.048-6.095 4.048-.997 0-1.909-.146-2.737-.437a6.373 6.373 0 0 1-2.139-1.288 5.773 5.773 0 0 1-1.357-1.978c-.322-.767-.483-1.626-.483-2.576 0-.982.153-1.863.46-2.645a5.542 5.542 0 0 1 1.311-2.024 5.681 5.681 0 0 1 2.047-1.265c.812-.307 1.725-.46 2.737-.46.996 0 1.893.153 2.691.46.764.27 1.456.71 2.024 1.288.552.567.973 1.265 1.265 2.093.291.812.437 1.732.437 2.76v.437h-8.763Zm10.935 2.99a2.607 2.607 0 0 1 .207-1.035c.138-.338.33-.629.575-.874.245-.246.529-.437.851-.575.337-.138.69-.207 1.058-.207.356-.002.708.068 1.035.207.337.138.629.329.874.575.245.245.437.536.575.874.139.327.21.679.207 1.035 0 .368-.069.72-.207 1.058a2.638 2.638 0 0 1-1.449 1.426 2.607 2.607 0 0 1-1.035.207c-.368 0-.721-.069-1.058-.207a2.696 2.696 0 0 1-1.426-1.426 2.762 2.762 0 0 1-.207-1.058Z" fill="#fff"/>
    </g>
    <defs>
        <clipPath id="a">
            <path fill="#fff" d="M0 0h121v111H0z"/>
        </clipPath>
    </defs>
</svg>
