<svg width="121" height="111" viewBox="0 0 121 111" fill="none" xmlns="http://www.w3.org/2000/svg"><path d="M14.915 13.317l-2.023-5.773-2.024 5.773h4.047zm1.197 3.427h-6.44l-1.036 3.013H3.83L10.43 2.415h4.922l6.601 17.342h-4.806l-1.035-3.013zm17.077-2.852a2.6 2.6 0 00-.207-1.035 2.359 2.359 0 00-.552-.874 2.627 2.627 0 00-.874-.575 2.428 2.428 0 00-1.058-.23 2.6 2.6 0 00-1.035.207 2.69 2.69 0 00-.851.575 3.2 3.2 0 00-.575.874 2.6 2.6 0 00-.207 1.035c0 .368.069.713.207 1.035.138.322.33.605.575.85.245.23.529.422.851.576.337.138.69.207 1.058.207a2.6 2.6 0 001.035-.207c.322-.138.598-.33.828-.575.245-.246.437-.53.575-.851.153-.322.23-.66.23-1.012zm-5.244 11.753h-4.163V7.958h4.163v1.31c.89-1.119 2.1-1.678 3.634-1.678.843 0 1.625.168 2.346.506a5.794 5.794 0 011.909 1.334c.537.567.95 1.234 1.242 2 .307.767.46 1.588.46 2.462a6.39 6.39 0 01-.46 2.438 6.01 6.01 0 01-1.242 1.978 5.608 5.608 0 01-1.863 1.334 5.685 5.685 0 01-2.346.483c-1.472 0-2.699-.506-3.68-1.518v7.038zM39.909 7.958h4.163V9.89c.445-.706.989-1.242 1.633-1.61.644-.384 1.395-.575 2.254-.575h.345c.138 0 .291.015.46.046v3.979a3.955 3.955 0 00-1.794-.414c-.966 0-1.694.291-2.185.874-.475.567-.713 1.403-.713 2.507v5.06h-4.163v-11.8zm19.474 4.186c-.139-.583-.422-1.05-.852-1.403-.429-.353-.95-.53-1.563-.53-.645 0-1.174.17-1.588.507-.398.337-.651.812-.759 1.426h4.761zm-4.877 2.415c0 1.794.844 2.69 2.53 2.69.905 0 1.587-.367 2.047-1.103h4.026c-.813 2.698-2.845 4.048-6.096 4.048-.996 0-1.908-.146-2.736-.437a6.38 6.38 0 01-2.14-1.288 5.766 5.766 0 01-1.356-1.978c-.322-.767-.483-1.626-.483-2.576 0-.982.153-1.863.46-2.645a5.569 5.569 0 011.31-2.024 5.696 5.696 0 012.047-1.265c.813-.307 1.725-.46 2.737-.46.997 0 1.894.153 2.692.46.797.291 1.472.72 2.024 1.288.552.567.973 1.265 1.265 2.093.29.812.437 1.732.437 2.76v.437h-8.764zM65.65 7.958h4.163v1.495c.567-.69 1.142-1.15 1.725-1.38.583-.246 1.265-.368 2.047-.368.828 0 1.534.138 2.116.414.598.26 1.104.636 1.518 1.127.337.398.567.843.69 1.334.123.49.184 1.05.184 1.679v7.498H73.93V13.8c0-.583-.046-1.05-.138-1.403-.076-.368-.222-.66-.437-.874a1.577 1.577 0 00-.62-.391 2.312 2.312 0 00-.737-.115c-.705 0-1.25.214-1.633.644-.368.414-.552 1.012-.552 1.794v6.302H65.65v-11.8zm19.138 5.865c0 .383.069.743.207 1.08.138.323.322.606.552.852.245.245.529.437.85.575.338.138.698.207 1.082.207a2.6 2.6 0 001.035-.207c.337-.138.62-.33.85-.575.246-.246.438-.53.576-.851.153-.322.23-.667.23-1.035 0-.368-.077-.713-.23-1.035a2.627 2.627 0 00-.575-.874 2.386 2.386 0 00-.851-.575 2.6 2.6 0 00-1.035-.207c-.368 0-.721.069-1.058.207a2.69 2.69 0 00-.851.575 3.32 3.32 0 00-.575.85 2.438 2.438 0 00-.207 1.013zM90.03.667h4.186v19.09H90.03v-1.311c-.89 1.12-2.093 1.679-3.611 1.679a5.74 5.74 0 01-4.255-1.817 6.263 6.263 0 01-1.265-2.001 6.934 6.934 0 01-.437-2.484c0-.844.138-1.64.414-2.392a6.15 6.15 0 011.219-2.001 5.605 5.605 0 011.863-1.334 5.726 5.726 0 012.415-.506c1.472 0 2.69.513 3.657 1.54V.668zm15.644 11.477c-.138-.583-.422-1.05-.851-1.403-.43-.353-.951-.53-1.564-.53-.644 0-1.173.17-1.587.507-.399.337-.652.812-.759 1.426h4.761zm-4.876 2.415c0 1.794.843 2.69 2.53 2.69.904 0 1.587-.367 2.047-1.103h4.025c-.813 2.698-2.845 4.048-6.095 4.048-.997 0-1.909-.146-2.737-.437a6.377 6.377 0 01-2.14-1.288 5.766 5.766 0 01-1.356-1.978c-.322-.767-.483-1.626-.483-2.576 0-.982.153-1.863.46-2.645a5.569 5.569 0 011.31-2.024 5.694 5.694 0 012.048-1.265c.812-.307 1.725-.46 2.737-.46.996 0 1.893.153 2.691.46.797.291 1.472.72 2.024 1.288.552.567.973 1.265 1.265 2.093.291.812.437 1.732.437 2.76v.437h-8.763zM20.551 40.994c-.766-.399-1.518-.598-2.254-.598-.383 0-.698.076-.943.23a.712.712 0 00-.345.62c0 .139.015.254.046.346.046.076.13.153.253.23.138.076.33.145.575.207.26.061.598.138 1.012.23 1.15.23 2.009.644 2.576 1.242.567.582.851 1.334.851 2.254 0 .69-.138 1.31-.414 1.863a4.072 4.072 0 01-1.15 1.403c-.49.368-1.08.651-1.77.85a7.639 7.639 0 01-2.278.323c-1.595 0-3.166-.453-4.715-1.357l1.518-2.944c1.165.797 2.27 1.196 3.312 1.196.384 0 .698-.085.943-.253.245-.169.368-.384.368-.644a.829.829 0 00-.069-.368.49.49 0 00-.23-.276c-.122-.092-.306-.169-.552-.23a7.937 7.937 0 00-.92-.23c-1.288-.26-2.192-.644-2.714-1.15-.506-.522-.759-1.235-.759-2.14 0-.659.123-1.249.368-1.77a3.666 3.666 0 011.058-1.357 4.973 4.973 0 011.656-.851c.66-.2 1.388-.3 2.185-.3 1.303 0 2.569.254 3.795.76l-1.403 2.714zm7.815 2.806c0 .398.07.766.207 1.104.154.322.345.605.575.85.246.246.53.438.851.576.338.138.69.207 1.058.207a2.6 2.6 0 001.035-.207c.338-.138.621-.33.851-.575a2.69 2.69 0 00.575-.851 2.58 2.58 0 00.23-1.081c0-.368-.076-.713-.23-1.035a2.625 2.625 0 00-.575-.874 2.385 2.385 0 00-.85-.575 2.6 2.6 0 00-1.036-.207c-.368 0-.72.069-1.058.207a2.69 2.69 0 00-.85.575c-.23.245-.422.529-.576.85a2.6 2.6 0 00-.207 1.036zm-4.393-.046c0-.874.177-1.687.53-2.438a5.863 5.863 0 011.471-1.978 6.913 6.913 0 012.231-1.334c.874-.322 1.825-.483 2.852-.483 1.012 0 1.948.16 2.806.483.874.306 1.626.743 2.254 1.31a5.674 5.674 0 011.495 2.002c.353.766.53 1.617.53 2.553 0 .935-.185 1.794-.553 2.576a6.106 6.106 0 01-1.472 2c-.628.553-1.387.982-2.277 1.289-.874.306-1.824.46-2.852.46-1.012 0-1.947-.154-2.806-.46a6.604 6.604 0 01-2.23-1.311 6.195 6.195 0 01-1.45-2.024c-.352-.798-.529-1.68-.529-2.645zm25.972.138a2.6 2.6 0 00-.207-1.035 2.627 2.627 0 00-.575-.874 2.69 2.69 0 00-.851-.575 2.428 2.428 0 00-1.058-.23 2.6 2.6 0 00-1.035.207 2.69 2.69 0 00-.851.575 3.2 3.2 0 00-.575.874 2.6 2.6 0 00-.207 1.035c0 .368.069.713.207 1.035.138.322.33.605.575.85.245.23.529.422.85.576.338.138.69.207 1.059.207a2.6 2.6 0 001.035-.207c.322-.138.598-.33.828-.575a2.69 2.69 0 00.575-.851c.153-.322.23-.66.23-1.012zM44.7 30.667v8.464c.981-1.028 2.208-1.541 3.68-1.541.874 0 1.671.168 2.392.506a5.31 5.31 0 011.863 1.334 5.888 5.888 0 011.219 1.978 6.62 6.62 0 01.437 2.415c0 .874-.154 1.694-.46 2.46a5.954 5.954 0 01-1.242 2.002 6.094 6.094 0 01-1.91 1.357 5.684 5.684 0 01-2.345.483c-1.534 0-2.745-.56-3.634-1.68v1.312h-4.163v-19.09H44.7zm11.964 7.29h4.163v1.933c.444-.706.989-1.242 1.633-1.61.644-.384 1.395-.575 2.254-.575h.345c.138 0 .291.015.46.046v3.979a3.955 3.955 0 00-1.794-.414c-.966 0-1.695.291-2.185.874-.476.567-.713 1.403-.713 2.507v5.06h-4.163v-11.8zm19.473 4.187c-.138-.583-.421-1.05-.85-1.403-.43-.353-.951-.53-1.565-.53-.644 0-1.173.17-1.587.507-.398.337-.651.812-.759 1.426h4.761zm-4.876 2.415c0 1.794.844 2.69 2.53 2.69.905 0 1.587-.367 2.047-1.103h4.025c-.812 2.698-2.844 4.048-6.095 4.048-.996 0-1.909-.146-2.737-.437a6.38 6.38 0 01-2.139-1.288 5.764 5.764 0 01-1.357-1.978c-.322-.767-.483-1.626-.483-2.576 0-.982.154-1.863.46-2.645a5.569 5.569 0 011.311-2.024 5.695 5.695 0 012.047-1.265c.813-.307 1.725-.46 2.737-.46.997 0 1.894.153 2.691.46.798.291 1.472.72 2.024 1.288.552.567.974 1.265 1.265 2.093.292.812.437 1.732.437 2.76v.437h-8.763zm27.584-2.415c-.138-.583-.421-1.05-.85-1.403-.43-.353-.951-.53-1.565-.53-.644 0-1.173.17-1.587.507-.398.337-.651.812-.759 1.426h4.761zm-4.876 2.415c0 1.794.844 2.69 2.53 2.69.905 0 1.587-.367 2.047-1.103h4.025c-.812 2.698-2.844 4.048-6.095 4.048-.996 0-1.909-.146-2.737-.437a6.38 6.38 0 01-2.139-1.288 5.764 5.764 0 01-1.357-1.978c-.322-.767-.483-1.626-.483-2.576 0-.982.154-1.863.46-2.645a5.569 5.569 0 011.311-2.024 5.695 5.695 0 012.047-1.265c.813-.307 1.725-.46 2.737-.46.997 0 1.894.153 2.691.46.798.291 1.472.72 2.024 1.288.552.567.974 1.265 1.265 2.093.292.812.437 1.732.437 2.76v.437H93.97zm15.306-13.892v19.09h-4.163v-19.09h4.163zM9.872 71.43v8.326H5.709V71.43H4.214v-3.473h1.495v-1.771c0-.982.092-1.764.276-2.346.153-.49.399-.943.736-1.357.337-.43.728-.798 1.173-1.104.46-.307.95-.545 1.472-.713a4.986 4.986 0 011.541-.253c.353 0 .675.038.966.115.307.076.613.184.92.322v3.634a3.852 3.852 0 00-.782-.3 2.312 2.312 0 00-.736-.114c-.169 0-.345.03-.529.092-.169.046-.33.153-.483.322-.153.168-.26.414-.322.736a8.997 8.997 0 00-.069 1.265v1.472h2.921v3.473H9.872zm4.476-3.473h4.163v1.932c.445-.706.99-1.242 1.633-1.61.644-.384 1.396-.575 2.254-.575h.345c.138 0 .292.015.46.046v3.979a3.955 3.955 0 00-1.794-.414c-.966 0-1.694.291-2.185.874-.475.567-.713 1.403-.713 2.507v5.06h-4.163v-11.8zm14.713 5.865c0 .383.069.743.207 1.08.138.323.322.606.552.852.245.245.529.437.851.575.337.138.698.207 1.081.207a2.6 2.6 0 001.035-.207c.337-.138.621-.33.851-.575.245-.246.437-.53.575-.851.153-.322.23-.667.23-1.035 0-.368-.077-.713-.23-1.035a2.627 2.627 0 00-.575-.874 2.386 2.386 0 00-.851-.575 2.6 2.6 0 00-1.035-.207c-.383 0-.744.069-1.081.207a2.69 2.69 0 00-.851.575c-.23.245-.414.529-.552.85a2.438 2.438 0 00-.207 1.013zm5.244-5.865h4.186v11.799h-4.186v-1.311c-.89 1.12-2.093 1.679-3.611 1.679a5.99 5.99 0 01-2.369-.46 5.86 5.86 0 01-1.886-1.334 6.264 6.264 0 01-1.265-2.001 7.003 7.003 0 01-.437-2.507c0-.844.146-1.64.437-2.392a6.151 6.151 0 011.219-2.001 5.604 5.604 0 011.863-1.334c.72-.338 1.518-.506 2.392-.506 1.472 0 2.691.513 3.657 1.54v-1.172zm11.182 0v6.647c0 1.456.705 2.185 2.116 2.185 1.41 0 2.116-.729 2.116-2.185v-6.647h4.163v7.452c0 1.594-.529 2.79-1.587 3.588-1.043.797-2.607 1.196-4.692 1.196s-3.657-.399-4.715-1.196c-1.043-.798-1.564-1.994-1.564-3.588v-7.452h4.163zm15.087 5.865c0 .383.069.743.207 1.08.138.323.322.606.552.852.245.245.529.437.85.575.338.138.698.207 1.082.207a2.6 2.6 0 001.035-.207c.337-.138.62-.33.85-.575.246-.246.438-.53.576-.851.153-.322.23-.667.23-1.035 0-.368-.077-.713-.23-1.035a2.627 2.627 0 00-.575-.874 2.386 2.386 0 00-.851-.575 2.6 2.6 0 00-1.035-.207c-.368 0-.721.069-1.058.207a2.69 2.69 0 00-.851.575 3.32 3.32 0 00-.575.85 2.438 2.438 0 00-.207 1.013zm5.244-13.156h4.186v19.09h-4.186v-1.311c-.89 1.12-2.093 1.679-3.611 1.679a5.741 5.741 0 01-4.255-1.817 6.264 6.264 0 01-1.265-2.001 6.936 6.936 0 01-.437-2.484c0-.844.138-1.64.414-2.392a6.151 6.151 0 011.219-2.001 5.604 5.604 0 011.863-1.334 5.725 5.725 0 012.415-.506c1.472 0 2.69.513 3.657 1.54v-8.463zm15.644 11.477c-.138-.583-.422-1.05-.851-1.403-.43-.353-.951-.53-1.564-.53-.644 0-1.173.17-1.587.507-.399.337-.652.812-.76 1.426h4.762zm-4.876 2.415c0 1.794.843 2.69 2.53 2.69.904 0 1.587-.367 2.047-1.103h4.025c-.813 2.698-2.845 4.048-6.095 4.048-.997 0-1.91-.146-2.737-.437a6.38 6.38 0 01-2.14-1.288 5.766 5.766 0 01-1.356-1.978c-.322-.767-.483-1.626-.483-2.576 0-.982.153-1.863.46-2.645a5.569 5.569 0 011.31-2.024 5.696 5.696 0 012.048-1.265c.812-.307 1.725-.46 2.737-.46.996 0 1.893.153 2.69.46.798.291 1.473.72 2.025 1.288.552.567.973 1.265 1.265 2.093.291.812.437 1.732.437 2.76v.437h-8.763zm22.823-.736c0 .383.069.743.207 1.08.138.323.322.606.552.852.245.245.529.437.851.575.337.138.697.207 1.081.207a2.6 2.6 0 001.035-.207 2.39 2.39 0 00.851-.575c.245-.246.437-.53.575-.851.153-.322.23-.667.23-1.035 0-.368-.077-.713-.23-1.035a2.632 2.632 0 00-.575-.874 2.388 2.388 0 00-.851-.575 2.6 2.6 0 00-1.035-.207c-.384 0-.744.069-1.081.207-.322.138-.606.33-.851.575a2.9 2.9 0 00-.552.85 2.438 2.438 0 00-.207 1.013zm5.244-5.865h4.186v11.799h-4.186v-1.311c-.89 1.12-2.093 1.679-3.611 1.679a5.99 5.99 0 01-2.37-.46 5.86 5.86 0 01-1.885-1.334 6.263 6.263 0 01-1.265-2.001 7 7 0 01-.437-2.507c0-.844.145-1.64.437-2.392a6.15 6.15 0 011.219-2.001 5.604 5.604 0 011.863-1.334c.72-.338 1.518-.506 2.392-.506 1.472 0 2.691.513 3.657 1.54v-1.172zM.953 109.757l2.943-17.342h4.462l3.473 9.246 3.45-9.246h4.463l2.944 17.342h-4.485l-1.495-9.982-4.094 9.982h-1.795l-3.887-9.982-1.495 9.982H.952zm32.195-7.613c-.138-.583-.422-1.051-.85-1.403-.43-.353-.952-.529-1.565-.529-.644 0-1.173.168-1.587.506-.399.337-.652.812-.759 1.426h4.761zm-4.876 2.415c0 1.794.844 2.691 2.53 2.691.905 0 1.587-.368 2.047-1.104h4.025c-.813 2.698-2.844 4.048-6.095 4.048-.997 0-1.909-.146-2.737-.437a6.384 6.384 0 01-2.139-1.288 5.77 5.77 0 01-1.357-1.978c-.322-.767-.483-1.626-.483-2.576 0-.982.154-1.863.46-2.645a5.562 5.562 0 011.311-2.024 5.694 5.694 0 012.047-1.265c.813-.307 1.725-.46 2.737-.46.997 0 1.894.153 2.691.46.797.291 1.472.72 2.024 1.288.552.567.974 1.265 1.265 2.093.291.812.437 1.732.437 2.76v.437h-8.763zm15.007-.736c0 .383.069.743.207 1.081.138.322.322.605.552.851.245.245.529.437.85.575.338.138.698.207 1.082.207a2.6 2.6 0 001.035-.207 2.39 2.39 0 00.85-.575 2.7 2.7 0 00.576-.851c.153-.322.23-.667.23-1.035 0-.368-.077-.713-.23-1.035a2.618 2.618 0 00-.575-.874 2.378 2.378 0 00-.851-.575 2.6 2.6 0 00-1.035-.207c-.368 0-.72.069-1.058.207a2.68 2.68 0 00-.851.575c-.23.245-.422.529-.575.851a2.436 2.436 0 00-.207 1.012zm5.244-13.156h4.186v19.09h-4.186v-1.311c-.89 1.119-2.093 1.679-3.611 1.679a5.74 5.74 0 01-4.255-1.817 6.276 6.276 0 01-1.265-2.001 6.936 6.936 0 01-.437-2.484c0-.844.138-1.641.414-2.392a6.147 6.147 0 011.219-2.001 5.604 5.604 0 011.863-1.334 5.725 5.725 0 012.415-.506c1.472 0 2.69.513 3.657 1.54v-8.463zm11.182 7.29v11.8h-4.163v-11.8h4.163zm-4.44-4.53c0-.322.062-.621.185-.897.122-.292.291-.545.506-.76.214-.214.46-.383.736-.505a2.346 2.346 0 012.576.506c.214.214.383.467.506.759a2.346 2.346 0 010 1.817 2.425 2.425 0 01-.506.736 2.352 2.352 0 01-.76.506 2.348 2.348 0 01-1.817 0 2.428 2.428 0 01-.735-.506 2.428 2.428 0 01-.506-.736 2.348 2.348 0 01-.184-.92zm16.186 8.349c-.721-.491-1.45-.736-2.185-.736-.4 0-.775.069-1.128.207a2.702 2.702 0 00-.897.598c-.26.245-.467.544-.62.897-.138.337-.207.72-.207 1.15 0 .414.069.797.207 1.15.153.337.352.636.598.897.26.245.567.437.92.575.352.138.728.207 1.127.207.781 0 1.51-.269 2.184-.805v3.542c-1.027.444-2 .667-2.92.667a7 7 0 01-2.462-.437 6.51 6.51 0 01-2.046-1.242 6.43 6.43 0 01-1.404-1.955c-.352-.767-.529-1.618-.529-2.553 0-.936.17-1.787.507-2.553a5.986 5.986 0 011.38-2.001 6.033 6.033 0 012.07-1.311 6.99 6.99 0 012.598-.483c1.012 0 1.948.214 2.806.644v3.542zm6.238 2.047c0 .383.069.743.207 1.081.138.322.322.605.552.851.245.245.529.437.85.575.338.138.699.207 1.082.207a2.6 2.6 0 001.035-.207 2.39 2.39 0 00.85-.575c.246-.246.438-.529.576-.851.153-.322.23-.667.23-1.035 0-.368-.077-.713-.23-1.035a2.616 2.616 0 00-.575-.874 2.377 2.377 0 00-.851-.575 2.6 2.6 0 00-1.035-.207c-.383 0-.744.069-1.081.207a2.681 2.681 0 00-.851.575c-.23.245-.414.529-.552.851a2.436 2.436 0 00-.207 1.012zm5.244-5.865h4.186v11.799h-4.186v-1.311c-.89 1.119-2.093 1.679-3.611 1.679a6 6 0 01-2.37-.46 5.866 5.866 0 01-1.885-1.334 6.28 6.28 0 01-1.265-2.001 7.006 7.006 0 01-.437-2.507c0-.844.146-1.641.437-2.392a6.15 6.15 0 011.219-2.001 5.606 5.606 0 011.863-1.334c.72-.338 1.518-.506 2.392-.506 1.472 0 2.69.513 3.657 1.54v-1.172zm7.019 0h4.163v1.932c.445-.706.989-1.242 1.633-1.61.644-.384 1.395-.575 2.254-.575h.345c.138 0 .291.015.46.046v3.979a3.955 3.955 0 00-1.794-.414c-.966 0-1.695.291-2.185.874-.475.567-.713 1.403-.713 2.507v5.06h-4.163v-11.8zm19.474 4.186c-.138-.583-.422-1.051-.851-1.403-.43-.353-.951-.529-1.564-.529-.644 0-1.173.168-1.587.506-.399.337-.652.812-.759 1.426h4.761zm-4.876 2.415c0 1.794.843 2.691 2.53 2.691.904 0 1.587-.368 2.047-1.104h4.025c-.813 2.698-2.845 4.048-6.095 4.048-.997 0-1.909-.146-2.737-.437a6.384 6.384 0 01-2.139-1.288 5.766 5.766 0 01-1.357-1.978c-.322-.767-.483-1.626-.483-2.576 0-.982.153-1.863.46-2.645a5.546 5.546 0 011.311-2.024 5.686 5.686 0 012.047-1.265c.812-.307 1.725-.46 2.737-.46.996 0 1.893.153 2.691.46a5.33 5.33 0 012.024 1.288c.552.567.973 1.265 1.265 2.093.291.812.437 1.732.437 2.76v.437h-8.763zm10.935 2.99a2.6 2.6 0 01.207-1.035c.138-.338.33-.629.575-.874.245-.246.529-.437.851-.575.337-.138.69-.207 1.058-.207a2.6 2.6 0 011.035.207c.337.138.629.329.874.575.245.245.437.536.575.874a2.6 2.6 0 01.207 1.035c0 .368-.069.72-.207 1.058a2.633 2.633 0 01-1.449 1.426 2.6 2.6 0 01-1.035.207c-.368 0-.721-.069-1.058-.207a2.693 2.693 0 01-1.426-1.426 2.77 2.77 0 01-.207-1.058z" fill="#fff"/></svg>