<svg width="270" height="149" viewBox="0 0 270 149" fill="none" xmlns="http://www.w3.org/2000/svg"><path d="M31.59 25V.872h6.272l11.584 14.752V.872h6.24V25h-6.24L37.862 10.248V25H31.59zm34.335-8.288c0 .555.096 1.067.288 1.536.213.448.48.843.8 1.184.341.341.736.608 1.184.8.47.192.96.288 1.472.288s.992-.096 1.44-.288a3.32 3.32 0 001.184-.8c.341-.341.608-.736.8-1.184.213-.47.32-.97.32-1.504 0-.512-.107-.992-.32-1.44a3.656 3.656 0 00-.8-1.216 3.32 3.32 0 00-1.184-.8 3.617 3.617 0 00-1.44-.288 3.85 3.85 0 00-1.472.288 3.745 3.745 0 00-1.184.8c-.32.341-.587.736-.8 1.184a3.617 3.617 0 00-.288 1.44zm-6.112-.064c0-1.216.245-2.347.736-3.392a8.155 8.155 0 012.048-2.752c.874-.79 1.91-1.408 3.104-1.856 1.216-.448 2.538-.672 3.968-.672 1.408 0 2.71.224 3.904.672 1.216.427 2.261 1.035 3.136 1.824a7.895 7.895 0 012.08 2.784c.49 1.067.736 2.25.736 3.552 0 1.301-.256 2.496-.768 3.584a8.496 8.496 0 01-2.048 2.784c-.875.768-1.93 1.365-3.168 1.792-1.216.427-2.539.64-3.968.64-1.408 0-2.71-.213-3.904-.64-1.195-.427-2.23-1.035-3.104-1.824a8.614 8.614 0 01-2.016-2.816c-.49-1.11-.736-2.336-.736-3.68zm33.926-3.84c-1.067-.555-2.112-.832-3.136-.832-.533 0-.97.107-1.312.32-.32.213-.48.501-.48.864 0 .192.021.352.064.48.064.107.181.213.352.32.192.107.459.203.8.288.363.085.832.192 1.408.32 1.6.32 2.795.896 3.584 1.728.79.81 1.184 1.856 1.184 3.136 0 .96-.192 1.824-.576 2.592a5.662 5.662 0 01-1.6 1.952c-.683.512-1.504.907-2.464 1.184-.96.299-2.016.448-3.168.448-2.219 0-4.405-.63-6.56-1.888l2.112-4.096c1.621 1.11 3.157 1.664 4.608 1.664.533 0 .97-.117 1.312-.352.341-.235.512-.533.512-.896 0-.213-.032-.384-.096-.512-.043-.15-.15-.277-.32-.384-.17-.128-.427-.235-.768-.32-.32-.107-.747-.213-1.28-.32-1.792-.363-3.05-.896-3.776-1.6-.704-.725-1.056-1.717-1.056-2.976 0-.917.17-1.739.512-2.464a5.1 5.1 0 011.472-1.888c.64-.512 1.408-.907 2.304-1.184.917-.277 1.93-.416 3.04-.416 1.813 0 3.573.352 5.28 1.056l-1.952 3.776zm10.873 3.904c0 .555.096 1.067.288 1.536.214.448.48.843.8 1.184.342.341.736.608 1.184.8.47.192.96.288 1.472.288s.992-.096 1.44-.288c.47-.192.864-.459 1.184-.8.342-.341.608-.736.8-1.184.214-.47.32-.97.32-1.504 0-.512-.106-.992-.32-1.44a3.645 3.645 0 00-.8-1.216 3.315 3.315 0 00-1.184-.8 3.617 3.617 0 00-1.44-.288c-.512 0-1.002.096-1.472.288a3.752 3.752 0 00-1.184.8c-.32.341-.586.736-.8 1.184a3.617 3.617 0 00-.288 1.44zm-6.112-.064c0-1.216.246-2.347.736-3.392a8.163 8.163 0 012.048-2.752c.875-.79 1.91-1.408 3.104-1.856 1.216-.448 2.539-.672 3.968-.672 1.408 0 2.71.224 3.904.672 1.216.427 2.262 1.035 3.136 1.824a7.887 7.887 0 012.08 2.784c.491 1.067.736 2.25.736 3.552 0 1.301-.256 2.496-.768 3.584a8.48 8.48 0 01-2.048 2.784c-.874.768-1.93 1.365-3.168 1.792-1.216.427-2.538.64-3.968.64-1.408 0-2.709-.213-3.904-.64-1.194-.427-2.229-1.035-3.104-1.824a8.62 8.62 0 01-2.016-2.816c-.49-1.11-.736-2.336-.736-3.68zm29.604-3.232V25h-5.792V13.416h-1.92V8.584h1.92V3.656h5.792v4.928h3.296v4.832h-3.296zm5.474-4.832h5.792v2.688c.618-.981 1.376-1.728 2.272-2.24.896-.533 1.941-.8 3.136-.8h.48c.192 0 .405.021.64.064v5.536a5.503 5.503 0 00-2.496-.576c-1.344 0-2.358.405-3.04 1.216-.662.79-.992 1.952-.992 3.488V25h-5.792V8.584zm20.47 8.16c0 .533.096 1.035.288 1.504.192.448.448.843.768 1.184.341.341.736.608 1.184.8.469.192.97.288 1.504.288.512 0 .992-.096 1.44-.288a3.323 3.323 0 001.184-.8 3.75 3.75 0 00.8-1.184c.213-.448.32-.928.32-1.44 0-.512-.107-.992-.32-1.44a3.66 3.66 0 00-.8-1.216 3.323 3.323 0 00-1.184-.8 3.617 3.617 0 00-1.44-.288 3.93 3.93 0 00-1.504.288 3.741 3.741 0 00-1.184.8c-.32.341-.576.736-.768 1.184a3.392 3.392 0 00-.288 1.408zm7.296-8.16h5.824V25h-5.824v-1.824c-1.238 1.557-2.912 2.336-5.024 2.336-1.195 0-2.294-.213-3.296-.64a8.143 8.143 0 01-2.624-1.856 8.696 8.696 0 01-1.76-2.784c-.406-1.067-.608-2.23-.608-3.488a9.11 9.11 0 01.608-3.328 8.542 8.542 0 011.696-2.784 7.793 7.793 0 012.592-1.856c1.002-.47 2.112-.704 3.328-.704 2.048 0 3.744.715 5.088 2.144V8.584zm20.645 4.224c-1.067-.555-2.112-.832-3.136-.832-.533 0-.971.107-1.312.32-.32.213-.48.501-.48.864 0 .192.021.352.064.48.064.107.181.213.352.32.192.107.459.203.8.288.363.085.832.192 1.408.32 1.6.32 2.795.896 3.584 1.728.789.81 1.184 1.856 1.184 3.136 0 .96-.192 1.824-.576 2.592a5.659 5.659 0 01-1.6 1.952c-.683.512-1.504.907-2.464 1.184-.96.299-2.016.448-3.168.448-2.219 0-4.405-.63-6.56-1.888l2.112-4.096c1.621 1.11 3.157 1.664 4.608 1.664.533 0 .971-.117 1.312-.352.341-.235.512-.533.512-.896 0-.213-.032-.384-.096-.512-.043-.15-.149-.277-.32-.384-.171-.128-.427-.235-.768-.32-.32-.107-.747-.213-1.28-.32-1.792-.363-3.051-.896-3.776-1.6-.704-.725-1.056-1.717-1.056-2.976 0-.917.171-1.739.512-2.464a5.097 5.097 0 011.472-1.888c.64-.512 1.408-.907 2.304-1.184.917-.277 1.931-.416 3.04-.416 1.813 0 3.573.352 5.28 1.056l-1.952 3.776zm16.276-4.224h5.792v2.08c.79-.96 1.59-1.6 2.4-1.92.811-.341 1.76-.512 2.848-.512 1.152 0 2.134.192 2.944.576a5.708 5.708 0 012.112 1.568c.47.555.79 1.173.96 1.856.171.683.256 1.461.256 2.336V25h-5.792v-8.288c0-.81-.064-1.461-.192-1.952-.106-.512-.309-.917-.608-1.216a2.195 2.195 0 00-.864-.544 3.215 3.215 0 00-1.024-.16c-.981 0-1.738.299-2.272.896-.512.576-.768 1.408-.768 2.496V25h-5.792V8.584zm26.722 8.128c0 .555.096 1.067.288 1.536.214.448.48.843.8 1.184.342.341.736.608 1.184.8.47.192.96.288 1.472.288s.992-.096 1.44-.288c.47-.192.864-.459 1.184-.8.342-.341.608-.736.8-1.184.214-.47.32-.97.32-1.504 0-.512-.106-.992-.32-1.44a3.645 3.645 0 00-.8-1.216 3.315 3.315 0 00-1.184-.8 3.617 3.617 0 00-1.44-.288c-.512 0-1.002.096-1.472.288a3.752 3.752 0 00-1.184.8c-.32.341-.586.736-.8 1.184a3.617 3.617 0 00-.288 1.44zm-6.112-.064c0-1.216.246-2.347.736-3.392a8.17 8.17 0 012.048-2.752c.875-.79 1.91-1.408 3.104-1.856 1.216-.448 2.539-.672 3.968-.672 1.408 0 2.71.224 3.904.672 1.216.427 2.262 1.035 3.136 1.824a7.887 7.887 0 012.08 2.784c.491 1.067.736 2.25.736 3.552 0 1.301-.256 2.496-.768 3.584a8.48 8.48 0 01-2.048 2.784c-.874.768-1.93 1.365-3.168 1.792-1.216.427-2.538.64-3.968.64-1.408 0-2.709-.213-3.904-.64-1.194-.427-2.229-1.035-3.104-1.824a8.626 8.626 0 01-2.016-2.816c-.49-1.11-.736-2.336-.736-3.68zM37.196 54.896c-1.002-.683-2.016-1.024-3.04-1.024-.554 0-1.077.096-1.568.288-.47.192-.885.47-1.248.832-.363.341-.65.757-.864 1.248-.192.47-.288 1.003-.288 1.6 0 .576.096 1.11.288 1.6.213.47.49.885.832 1.248.363.341.79.608 1.28.8.49.192 1.014.288 1.568.288 1.088 0 2.102-.373 3.04-1.12v4.928c-1.43.619-2.784.928-4.064.928a9.729 9.729 0 01-3.424-.608 9.021 9.021 0 01-2.848-1.728 8.94 8.94 0 01-1.952-2.72c-.49-1.067-.736-2.25-.736-3.552 0-1.301.235-2.485.704-3.552a8.327 8.327 0 011.92-2.784 8.397 8.397 0 012.88-1.824 9.726 9.726 0 013.616-.672c1.408 0 2.71.299 3.904.896v4.928zm8.776 2.816c0 .555.096 1.067.288 1.536.213.448.48.843.8 1.184.341.341.736.608 1.184.8.469.192.96.288 1.472.288s.992-.096 1.44-.288a3.32 3.32 0 001.184-.8c.341-.341.608-.736.8-1.184.213-.47.32-.97.32-1.504 0-.512-.107-.992-.32-1.44a3.655 3.655 0 00-.8-1.216 3.32 3.32 0 00-1.184-.8 3.617 3.617 0 00-1.44-.288c-.512 0-1.003.096-1.472.288a3.746 3.746 0 00-1.184.8c-.32.341-.587.736-.8 1.184a3.617 3.617 0 00-.288 1.44zm-6.112-.064c0-1.216.245-2.347.736-3.392a8.157 8.157 0 012.048-2.752c.874-.79 1.909-1.408 3.104-1.856 1.216-.448 2.538-.672 3.968-.672 1.408 0 2.709.224 3.904.672 1.216.427 2.261 1.035 3.136 1.824a7.894 7.894 0 012.08 2.784c.49 1.067.736 2.25.736 3.552 0 1.301-.256 2.496-.768 3.584a8.493 8.493 0 01-2.048 2.784c-.875.768-1.931 1.365-3.168 1.792-1.216.427-2.539.64-3.968.64-1.408 0-2.71-.213-3.904-.64-1.195-.427-2.23-1.035-3.104-1.824a8.617 8.617 0 01-2.016-2.816c-.491-1.11-.736-2.336-.736-3.68zm23.046-8.064h5.792V51.6c1.579-1.515 3.35-2.272 5.312-2.272 2.432 0 4.288 1.024 5.568 3.072 1.301-2.07 3.157-3.104 5.568-3.104.768 0 1.493.117 2.176.352.682.213 1.27.565 1.76 1.056.49.47.875 1.088 1.152 1.856.299.768.448 1.696.448 2.784V66H84.89v-8.096c0-.832-.064-1.515-.192-2.048-.107-.533-.277-.95-.512-1.248-.214-.299-.47-.501-.768-.608a2.833 2.833 0 00-.96-.16c-1.856 0-2.784 1.355-2.784 4.064V66h-5.792v-8.096c0-.832-.053-1.515-.16-2.048-.107-.555-.267-.992-.48-1.312-.192-.32-.448-.533-.768-.64a3.004 3.004 0 00-1.12-.192c-.363 0-.704.053-1.024.16-.32.107-.608.32-.864.64-.235.299-.427.725-.576 1.28-.128.533-.192 1.237-.192 2.112V66h-5.792V49.584zm45.4 8.256c0-.512-.096-.992-.288-1.44a3.265 3.265 0 00-.768-1.216 3.646 3.646 0 00-1.216-.8 3.378 3.378 0 00-1.472-.32c-.512 0-.992.096-1.44.288a3.752 3.752 0 00-1.184.8c-.32.341-.586.747-.8 1.216a3.617 3.617 0 00-.288 1.44c0 .512.096.992.288 1.44.192.448.459.843.8 1.184.342.32.736.587 1.184.8.47.192.96.288 1.472.288s.992-.096 1.44-.288a3.388 3.388 0 001.152-.8c.342-.341.608-.736.8-1.184.214-.448.32-.917.32-1.408zm-7.296 16.352h-5.792V49.584h5.792v1.824c1.238-1.557 2.923-2.336 5.056-2.336 1.174 0 2.262.235 3.264.704a8.054 8.054 0 012.656 1.856 8.273 8.273 0 011.728 2.784 9.127 9.127 0 01.64 3.424c0 1.216-.213 2.347-.64 3.392a8.346 8.346 0 01-1.728 2.752 7.793 7.793 0 01-2.592 1.856c-1.002.448-2.09.672-3.264.672-2.048 0-3.754-.704-5.12-2.112v9.792zm22.022-16.448c0 .533.096 1.035.288 1.504.192.448.448.843.768 1.184.341.341.736.608 1.184.8.469.192.971.288 1.504.288.512 0 .992-.096 1.44-.288a3.323 3.323 0 001.184-.8 3.75 3.75 0 00.8-1.184c.213-.448.32-.928.32-1.44 0-.512-.107-.992-.32-1.44a3.66 3.66 0 00-.8-1.216 3.323 3.323 0 00-1.184-.8 3.617 3.617 0 00-1.44-.288c-.533 0-1.035.096-1.504.288a3.741 3.741 0 00-1.184.8c-.32.341-.576.736-.768 1.184a3.392 3.392 0 00-.288 1.408zm7.296-8.16h5.824V66h-5.824v-1.824c-1.237 1.557-2.912 2.336-5.024 2.336-1.195 0-2.293-.213-3.296-.64a8.154 8.154 0 01-2.624-1.856 8.713 8.713 0 01-1.76-2.784c-.405-1.067-.608-2.23-.608-3.488a9.13 9.13 0 01.608-3.328 8.559 8.559 0 011.696-2.784 7.793 7.793 0 012.592-1.856c1.003-.47 2.112-.704 3.328-.704 2.048 0 3.744.715 5.088 2.144v-1.632zm9.765 0h5.792v2.688c.619-.981 1.376-1.728 2.272-2.24.896-.533 1.942-.8 3.136-.8h.48c.192 0 .406.021.64.064v5.536a5.503 5.503 0 00-2.496-.576c-1.344 0-2.357.405-3.04 1.216-.661.79-.992 1.952-.992 3.488V66h-5.792V49.584zm21.964 4.832V66h-5.792V54.416h-1.92v-4.832h1.92v-4.928h5.792v4.928h3.296v4.832h-3.296zm11.703-4.832V66h-5.792V49.584h5.792zm-6.176-6.304c0-.448.086-.864.256-1.248.171-.405.406-.757.704-1.056a3.38 3.38 0 011.024-.704c.406-.17.832-.256 1.28-.256.448 0 .864.085 1.248.256.406.17.758.405 1.056.704.299.299.534.65.704 1.056.171.384.256.8.256 1.248 0 .448-.085.875-.256 1.28-.17.384-.405.725-.704 1.024-.298.299-.65.533-1.056.704-.384.17-.8.256-1.248.256-.448 0-.874-.085-1.28-.256a3.38 3.38 0 01-1.024-.704 3.393 3.393 0 01-.704-1.024 3.277 3.277 0 01-.256-1.28zm10.134 6.304h5.792V51.6c1.579-1.515 3.35-2.272 5.312-2.272 2.432 0 4.288 1.024 5.568 3.072 1.302-2.07 3.158-3.104 5.568-3.104.768 0 1.494.117 2.176.352.683.213 1.27.565 1.76 1.056.491.47.875 1.088 1.152 1.856.299.768.448 1.696.448 2.784V66h-5.792v-8.096c0-.832-.064-1.515-.192-2.048-.106-.533-.277-.95-.512-1.248-.213-.299-.469-.501-.768-.608a2.827 2.827 0 00-.96-.16c-1.856 0-2.784 1.355-2.784 4.064V66h-5.792v-8.096c0-.832-.053-1.515-.16-2.048-.106-.555-.266-.992-.48-1.312-.192-.32-.448-.533-.768-.64a3.002 3.002 0 00-1.12-.192 3.22 3.22 0 00-1.024.16c-.32.107-.608.32-.864.64-.234.299-.426.725-.576 1.28-.128.533-.192 1.237-.192 2.112V66h-5.792V49.584zm37.222 8.128c0 .555.096 1.067.288 1.536.214.448.48.843.8 1.184.342.341.736.608 1.184.8.47.192.96.288 1.472.288s.992-.096 1.44-.288c.47-.192.864-.459 1.184-.8.342-.341.608-.736.8-1.184.214-.47.32-.97.32-1.504 0-.512-.106-.992-.32-1.44a3.645 3.645 0 00-.8-1.216 3.315 3.315 0 00-1.184-.8 3.617 3.617 0 00-1.44-.288c-.512 0-1.002.096-1.472.288a3.752 3.752 0 00-1.184.8c-.32.341-.586.736-.8 1.184a3.617 3.617 0 00-.288 1.44zm-6.112-.064c0-1.216.246-2.347.736-3.392a8.17 8.17 0 012.048-2.752c.875-.79 1.91-1.408 3.104-1.856 1.216-.448 2.539-.672 3.968-.672 1.408 0 2.71.224 3.904.672 1.216.427 2.262 1.035 3.136 1.824a7.887 7.887 0 012.08 2.784c.491 1.067.736 2.25.736 3.552 0 1.301-.256 2.496-.768 3.584a8.48 8.48 0 01-2.048 2.784c-.874.768-1.93 1.365-3.168 1.792-1.216.427-2.538.64-3.968.64-1.408 0-2.709-.213-3.904-.64-1.194-.427-2.229-1.035-3.104-1.824a8.626 8.626 0 01-2.016-2.816c-.49-1.11-.736-2.336-.736-3.68zm33.927-3.84c-1.067-.555-2.112-.832-3.136-.832-.534 0-.971.107-1.312.32-.32.213-.48.501-.48.864 0 .192.021.352.064.48.064.107.181.213.352.32.192.107.458.203.8.288.362.085.832.192 1.408.32 1.6.32 2.794.896 3.584 1.728.789.81 1.184 1.856 1.184 3.136 0 .96-.192 1.824-.576 2.592a5.67 5.67 0 01-1.6 1.952c-.683.512-1.504.907-2.464 1.184-.96.299-2.016.448-3.168.448-2.219 0-4.406-.63-6.56-1.888l2.112-4.096c1.621 1.11 3.157 1.664 4.608 1.664.533 0 .97-.117 1.312-.352.341-.235.512-.533.512-.896 0-.213-.032-.384-.096-.512-.043-.15-.15-.277-.32-.384-.171-.128-.427-.235-.768-.32-.32-.107-.747-.213-1.28-.32-1.792-.363-3.051-.896-3.776-1.6-.704-.725-1.056-1.717-1.056-2.976 0-.917.17-1.739.512-2.464a5.097 5.097 0 011.472-1.888c.64-.512 1.408-.907 2.304-1.184.917-.277 1.93-.416 3.04-.416 1.813 0 3.573.352 5.28 1.056l-1.952 3.776zM.031 90.584h5.792v2.08c.79-.96 1.59-1.6 2.4-1.92.81-.341 1.76-.512 2.848-.512 1.152 0 2.133.192 2.944.576a5.708 5.708 0 012.112 1.568c.47.555.79 1.173.96 1.856.17.683.256 1.461.256 2.336V107H11.55v-8.288c0-.81-.064-1.461-.192-1.952-.107-.512-.31-.917-.608-1.216A2.195 2.195 0 009.887 95a3.217 3.217 0 00-1.024-.16c-.981 0-1.739.299-2.272.896-.512.576-.768 1.408-.768 2.496V107H.03V90.584zm27.042 0v9.248c0 2.027.981 3.04 2.944 3.04s2.944-1.013 2.944-3.04v-9.248h5.792v10.368c0 2.219-.736 3.883-2.208 4.992-1.45 1.109-3.627 1.664-6.528 1.664s-5.088-.555-6.56-1.664c-1.45-1.109-2.176-2.773-2.176-4.992V90.584h5.792zm27.614 5.824c-.192-.81-.587-1.461-1.184-1.952-.597-.49-1.322-.736-2.176-.736-.896 0-1.632.235-2.208.704-.554.47-.907 1.13-1.056 1.984h6.624zm-6.784 3.36c0 2.496 1.174 3.744 3.52 3.744 1.259 0 2.208-.512 2.848-1.536h5.6c-1.13 3.755-3.957 5.632-8.48 5.632-1.386 0-2.656-.203-3.808-.608-1.152-.427-2.144-1.024-2.976-1.792a8.018 8.018 0 01-1.888-2.752c-.448-1.067-.672-2.261-.672-3.584 0-1.365.214-2.592.64-3.68.427-1.11 1.035-2.048 1.824-2.816.79-.768 1.739-1.355 2.848-1.76 1.13-.427 2.4-.64 3.808-.64 1.387 0 2.635.213 3.744.64 1.11.405 2.048 1.003 2.816 1.792.768.79 1.355 1.76 1.76 2.912.405 1.13.608 2.41.608 3.84v.608H47.903zm26.383-4.96c-1.067-.555-2.112-.832-3.136-.832-.534 0-.97.107-1.312.32-.32.213-.48.501-.48.864 0 .192.021.352.064.48.064.107.181.213.352.32.192.107.459.203.8.288.362.085.832.192 1.408.32 1.6.32 2.794.896 3.584 1.728.79.81 1.184 1.856 1.184 3.136 0 .96-.192 1.824-.576 2.592a5.66 5.66 0 01-1.6 1.952c-.683.512-1.504.907-2.464 1.184-.96.299-2.016.448-3.168.448-2.219 0-4.405-.629-6.56-1.888l2.112-4.096c1.621 1.109 3.157 1.664 4.608 1.664.533 0 .97-.117 1.312-.352.341-.235.512-.533.512-.896 0-.213-.032-.384-.096-.512-.043-.149-.15-.277-.32-.384-.17-.128-.427-.235-.768-.32-.32-.107-.747-.213-1.28-.32-1.792-.363-3.05-.896-3.776-1.6-.704-.725-1.056-1.717-1.056-2.976 0-.917.17-1.739.512-2.464a5.1 5.1 0 011.472-1.888c.64-.512 1.408-.907 2.304-1.184.917-.277 1.93-.416 3.04-.416 1.813 0 3.573.352 5.28 1.056l-1.952 3.776zm12.303.608V107h-5.792V95.416h-1.92v-4.832h1.92v-4.928h5.792v4.928h3.296v4.832h-3.296zm5.473-4.832h5.792v2.688c.619-.981 1.376-1.728 2.272-2.24.896-.533 1.941-.8 3.136-.8h.48c.192 0 .405.021.64.064v5.536a5.503 5.503 0 00-2.496-.576c-1.344 0-2.357.405-3.04 1.216-.661.79-.992 1.952-.992 3.488V107h-5.792V90.584zm20.503 8.128c0 .555.096 1.067.288 1.536.214.448.48.843.8 1.184.342.341.736.608 1.184.8.47.192.96.288 1.472.288s.992-.096 1.44-.288c.47-.192.864-.459 1.184-.8a3.73 3.73 0 00.8-1.184c.214-.47.32-.97.32-1.504 0-.512-.106-.992-.32-1.44a3.645 3.645 0 00-.8-1.216 3.315 3.315 0 00-1.184-.8 3.617 3.617 0 00-1.44-.288c-.512 0-1.002.096-1.472.288a3.752 3.752 0 00-1.184.8c-.32.341-.586.736-.8 1.184a3.617 3.617 0 00-.288 1.44zm-6.112-.064c0-1.216.246-2.347.736-3.392a8.17 8.17 0 012.048-2.752c.875-.79 1.91-1.408 3.104-1.856 1.216-.448 2.539-.672 3.968-.672 1.408 0 2.71.224 3.904.672 1.216.427 2.262 1.035 3.136 1.824a7.887 7.887 0 012.08 2.784c.491 1.067.736 2.25.736 3.552 0 1.301-.256 2.496-.768 3.584a8.474 8.474 0 01-2.048 2.784c-.874.768-1.93 1.365-3.168 1.792-1.216.427-2.538.64-3.968.64-1.408 0-2.709-.213-3.904-.64-1.194-.427-2.229-1.035-3.104-1.824a8.623 8.623 0 01-2.016-2.816c-.49-1.109-.736-2.336-.736-3.68zm33.922-8.064h5.792v2.08c.789-.96 1.589-1.6 2.4-1.92.81-.341 1.76-.512 2.848-.512 1.152 0 2.133.192 2.944.576a5.708 5.708 0 012.112 1.568 4.56 4.56 0 01.96 1.856c.17.683.256 1.461.256 2.336V107h-5.792v-8.288c0-.81-.064-1.461-.192-1.952-.107-.512-.31-.917-.608-1.216a2.195 2.195 0 00-.864-.544 3.22 3.22 0 00-1.024-.16c-.982 0-1.739.299-2.272.896-.512.576-.768 1.408-.768 2.496V107h-5.792V90.584zm27.042 0v9.248c0 2.027.981 3.04 2.944 3.04 1.962 0 2.944-1.013 2.944-3.04v-9.248h5.792v10.368c0 2.219-.736 3.883-2.208 4.992-1.451 1.109-3.627 1.664-6.528 1.664-2.902 0-5.088-.555-6.56-1.664-1.451-1.109-2.176-2.773-2.176-4.992V90.584h5.792zm8.512-7.328l-5.568 4.928-2.688-1.984 4.576-5.6 3.68 2.656zm7.102 7.328h5.792V92.6c1.579-1.515 3.349-2.272 5.312-2.272 2.432 0 4.288 1.024 5.568 3.072 1.301-2.07 3.157-3.104 5.568-3.104.768 0 1.493.117 2.176.352a4.234 4.234 0 011.76 1.056c.491.47.875 1.088 1.152 1.856.299.768.448 1.696.448 2.784V107h-5.792v-8.096c0-.832-.064-1.515-.192-2.048-.107-.533-.277-.95-.512-1.248-.213-.299-.469-.501-.768-.608a2.835 2.835 0 00-.96-.16c-1.856 0-2.784 1.355-2.784 4.064V107h-5.792v-8.096c0-.832-.053-1.515-.16-2.048-.107-.555-.267-.992-.48-1.312-.192-.32-.448-.533-.768-.64a3.002 3.002 0 00-1.12-.192c-.363 0-.704.053-1.024.16-.32.107-.608.32-.864.64-.235.299-.427.725-.576 1.28-.128.533-.192 1.237-.192 2.112V107h-5.792V90.584zm43.75 5.824c-.192-.81-.587-1.461-1.184-1.952-.597-.49-1.323-.736-2.176-.736-.896 0-1.632.235-2.208.704-.555.47-.907 1.13-1.056 1.984h6.624zm-6.784 3.36c0 2.496 1.173 3.744 3.52 3.744 1.259 0 2.208-.512 2.848-1.536h5.6c-1.131 3.755-3.957 5.632-8.48 5.632-1.387 0-2.656-.203-3.808-.608-1.152-.427-2.144-1.024-2.976-1.792a8.012 8.012 0 01-1.888-2.752c-.448-1.067-.672-2.261-.672-3.584 0-1.365.213-2.592.64-3.68.427-1.11 1.035-2.048 1.824-2.816.789-.768 1.739-1.355 2.848-1.76 1.131-.427 2.4-.64 3.808-.64 1.387 0 2.635.213 3.744.64 1.109.405 2.048 1.003 2.816 1.792.768.79 1.355 1.76 1.76 2.912.405 1.13.608 2.41.608 3.84v.608h-12.192zm15.503-9.184h5.792v2.688c.618-.981 1.376-1.728 2.272-2.24.896-.533 1.941-.8 3.136-.8h.48c.192 0 .405.021.64.064v5.536a5.503 5.503 0 00-2.496-.576c-1.344 0-2.358.405-3.04 1.216-.662.79-.992 1.952-.992 3.488V107H235.5V90.584zm20.503 8.128c0 .555.096 1.067.288 1.536.213.448.48.843.8 1.184.341.341.736.608 1.184.8.469.192.96.288 1.472.288s.992-.096 1.44-.288a3.327 3.327 0 001.184-.8c.341-.341.608-.736.8-1.184.213-.47.32-.97.32-1.504 0-.512-.107-.992-.32-1.44a3.66 3.66 0 00-.8-1.216 3.323 3.323 0 00-1.184-.8 3.617 3.617 0 00-1.44-.288 3.85 3.85 0 00-1.472.288 3.741 3.741 0 00-1.184.8c-.32.341-.587.736-.8 1.184a3.617 3.617 0 00-.288 1.44zm-6.112-.064c0-1.216.245-2.347.736-3.392a8.156 8.156 0 012.048-2.752c.875-.79 1.909-1.408 3.104-1.856 1.216-.448 2.539-.672 3.968-.672 1.408 0 2.709.224 3.904.672 1.216.427 2.261 1.035 3.136 1.824a7.899 7.899 0 012.08 2.784c.491 1.067.736 2.25.736 3.552 0 1.301-.256 2.496-.768 3.584a8.488 8.488 0 01-2.048 2.784c-.875.768-1.931 1.365-3.168 1.792-1.216.427-2.539.64-3.968.64-1.408 0-2.709-.213-3.904-.64-1.195-.427-2.229-1.035-3.104-1.824a8.623 8.623 0 01-2.016-2.816c-.491-1.109-.736-2.336-.736-3.68zM29.86 139.744c0 .533.096 1.035.288 1.504.192.448.448.843.768 1.184a3.75 3.75 0 001.184.8c.47.192.97.288 1.504.288.512 0 .992-.096 1.44-.288.47-.192.864-.459 1.184-.8.341-.341.608-.736.8-1.184.213-.448.32-.928.32-1.44 0-.512-.107-.992-.32-1.44a3.656 3.656 0 00-.8-1.216 3.325 3.325 0 00-1.184-.8 3.617 3.617 0 00-1.44-.288 3.85 3.85 0 00-1.472.288 3.75 3.75 0 00-1.184.8c-.32.341-.587.736-.8 1.184a3.393 3.393 0 00-.288 1.408zm7.296-18.304h5.824V148h-5.824v-1.824c-1.237 1.557-2.912 2.336-5.024 2.336-1.195 0-2.293-.224-3.296-.672a8.159 8.159 0 01-2.624-1.856 8.706 8.706 0 01-1.76-2.784c-.405-1.067-.608-2.219-.608-3.456 0-1.173.192-2.283.576-3.328a8.552 8.552 0 011.696-2.784 7.803 7.803 0 012.592-1.856c1.024-.469 2.144-.704 3.36-.704 2.048 0 3.744.715 5.088 2.144V121.44zm21.766 15.968c-.192-.811-.587-1.461-1.184-1.952-.598-.491-1.323-.736-2.176-.736-.896 0-1.633.235-2.209.704-.554.469-.906 1.131-1.056 1.984h6.625zm-6.784 3.36c0 2.496 1.173 3.744 3.52 3.744 1.258 0 2.207-.512 2.847-1.536h5.6c-1.13 3.755-3.957 5.632-8.48 5.632-1.386 0-2.656-.203-3.807-.608-1.152-.427-2.145-1.024-2.976-1.792a8.016 8.016 0 01-1.889-2.752c-.448-1.067-.672-2.261-.672-3.584 0-1.365.214-2.592.64-3.68.427-1.109 1.035-2.048 1.825-2.816.789-.768 1.738-1.355 2.847-1.76 1.131-.427 2.4-.64 3.808-.64 1.387 0 2.635.213 3.744.64 1.11.405 2.048 1.003 2.816 1.792.769.789 1.355 1.76 1.76 2.912.406 1.131.608 2.411.608 3.84v.608H52.138zM77.97 148l4.096-24.128h6.208l4.832 12.864 4.8-12.864h6.208L108.211 148h-6.24l-2.08-13.888L94.195 148H91.7l-5.408-13.888L84.211 148h-6.24zm44.794-10.592c-.192-.811-.586-1.461-1.184-1.952-.597-.491-1.322-.736-2.176-.736-.896 0-1.632.235-2.208.704-.554.469-.906 1.131-1.056 1.984h6.624zm-6.784 3.36c0 2.496 1.174 3.744 3.52 3.744 1.259 0 2.208-.512 2.848-1.536h5.6c-1.13 3.755-3.957 5.632-8.48 5.632-1.386 0-2.656-.203-3.808-.608-1.152-.427-2.144-1.024-2.976-1.792a8.026 8.026 0 01-1.888-2.752c-.448-1.067-.672-2.261-.672-3.584 0-1.365.214-2.592.64-3.68.427-1.109 1.035-2.048 1.824-2.816.79-.768 1.739-1.355 2.848-1.76 1.131-.427 2.4-.64 3.808-.64 1.387 0 2.635.213 3.744.64 1.11.405 2.048 1.003 2.816 1.792.768.789 1.355 1.76 1.76 2.912.406 1.131.608 2.411.608 3.84v.608h-12.192zm20.879-1.024c0 .533.096 1.035.288 1.504.192.448.448.843.768 1.184.341.341.736.608 1.184.8.469.192.971.288 1.504.288.512 0 .992-.096 1.44-.288a3.327 3.327 0 001.184-.8c.341-.341.608-.736.8-1.184.213-.448.32-.928.32-1.44 0-.512-.107-.992-.32-1.44a3.66 3.66 0 00-.8-1.216 3.327 3.327 0 00-1.184-.8 3.617 3.617 0 00-1.44-.288 3.85 3.85 0 00-1.472.288 3.746 3.746 0 00-1.184.8c-.32.341-.587.736-.8 1.184a3.393 3.393 0 00-.288 1.408zm7.296-18.304h5.824V148h-5.824v-1.824c-1.237 1.557-2.912 2.336-5.024 2.336-1.195 0-2.293-.224-3.296-.672a8.159 8.159 0 01-2.624-1.856 8.706 8.706 0 01-1.76-2.784c-.405-1.067-.608-2.219-.608-3.456 0-1.173.192-2.283.576-3.328a8.552 8.552 0 011.696-2.784 7.797 7.797 0 012.592-1.856c1.024-.469 2.144-.704 3.36-.704 2.048 0 3.744.715 5.088 2.144V121.44zm15.558 10.144V148h-5.792v-16.416h5.792zm-6.176-6.304c0-.448.085-.864.256-1.248.17-.405.405-.757.704-1.056.298-.299.64-.533 1.024-.704a3.258 3.258 0 011.28-.256c.448 0 .864.085 1.248.256.405.171.757.405 1.056.704.298.299.533.651.704 1.056.17.384.256.8.256 1.248 0 .448-.086.875-.256 1.28a3.397 3.397 0 01-.704 1.024 3.279 3.279 0 01-1.056.704c-.384.171-.8.256-1.248.256-.448 0-.875-.085-1.28-.256a3.367 3.367 0 01-1.024-.704 3.361 3.361 0 01-.704-1.024 3.258 3.258 0 01-.256-1.28zm22.518 11.616c-1.003-.683-2.016-1.024-3.04-1.024a4.26 4.26 0 00-1.568.288c-.47.192-.886.469-1.248.832a3.718 3.718 0 00-.864 1.248c-.192.469-.288 1.003-.288 1.6 0 .576.096 1.109.288 1.6.213.469.49.885.832 1.248.362.341.789.608 1.28.8a4.26 4.26 0 001.568.288c1.088 0 2.101-.373 3.04-1.12v4.928c-1.43.619-2.784.928-4.064.928a9.734 9.734 0 01-3.424-.608 9.006 9.006 0 01-2.848-1.728 8.926 8.926 0 01-1.952-2.72c-.491-1.067-.736-2.251-.736-3.552 0-1.301.234-2.485.704-3.552a8.315 8.315 0 011.92-2.784 8.393 8.393 0 012.88-1.824 9.723 9.723 0 013.616-.672c1.408 0 2.709.299 3.904.896v4.928zm8.679 2.848c0 .533.096 1.035.288 1.504.192.448.448.843.768 1.184.341.341.736.608 1.184.8.469.192.971.288 1.504.288.512 0 .992-.096 1.44-.288a3.327 3.327 0 001.184-.8c.341-.341.608-.736.8-1.184.213-.448.32-.928.32-1.44 0-.512-.107-.992-.32-1.44a3.66 3.66 0 00-.8-1.216 3.327 3.327 0 00-1.184-.8 3.617 3.617 0 00-1.44-.288c-.533 0-1.035.096-1.504.288a3.746 3.746 0 00-1.184.8 4.04 4.04 0 00-.768 1.184 3.393 3.393 0 00-.288 1.408zm7.296-8.16h5.824V148h-5.824v-1.824c-1.237 1.557-2.912 2.336-5.024 2.336-1.195 0-2.293-.213-3.296-.64a8.159 8.159 0 01-2.624-1.856 8.706 8.706 0 01-1.76-2.784c-.405-1.067-.608-2.229-.608-3.488a9.13 9.13 0 01.608-3.328 8.552 8.552 0 011.696-2.784 7.797 7.797 0 012.592-1.856c1.003-.469 2.112-.704 3.328-.704 2.048 0 3.744.715 5.088 2.144v-1.632zm9.766 0h5.792v2.688c.618-.981 1.376-1.728 2.272-2.24.896-.533 1.941-.8 3.136-.8h.48c.192 0 .405.021.64.064v5.536a5.503 5.503 0 00-2.496-.576c-1.344 0-2.358.405-3.04 1.216-.662.789-.992 1.952-.992 3.488V148h-5.792v-16.416zm27.093 5.824c-.192-.811-.586-1.461-1.184-1.952-.597-.491-1.322-.736-2.176-.736-.896 0-1.632.235-2.208.704-.554.469-.906 1.131-1.056 1.984h6.624zm-6.784 3.36c0 2.496 1.174 3.744 3.52 3.744 1.259 0 2.208-.512 2.848-1.536h5.6c-1.13 3.755-3.957 5.632-8.48 5.632-1.386 0-2.656-.203-3.808-.608-1.152-.427-2.144-1.024-2.976-1.792a8.026 8.026 0 01-1.888-2.752c-.448-1.067-.672-2.261-.672-3.584 0-1.365.214-2.592.64-3.68.427-1.109 1.035-2.048 1.824-2.816.79-.768 1.739-1.355 2.848-1.76 1.131-.427 2.4-.64 3.808-.64 1.387 0 2.635.213 3.744.64 1.11.405 2.048 1.003 2.816 1.792.768.789 1.355 1.76 1.76 2.912.406 1.131.608 2.411.608 3.84v.608h-12.192zm15.215 4.16c0-.512.096-.992.288-1.44a3.66 3.66 0 01.8-1.216 3.746 3.746 0 011.184-.8 3.85 3.85 0 011.472-.288c.512 0 .992.096 1.44.288a3.66 3.66 0 011.216.8c.341.341.608.747.8 1.216.192.448.288.928.288 1.44a3.85 3.85 0 01-.288 1.472 3.746 3.746 0 01-.8 1.184 3.66 3.66 0 01-1.216.8 3.617 3.617 0 01-1.44.288 3.85 3.85 0 01-1.472-.288 3.746 3.746 0 01-1.984-1.984 3.85 3.85 0 01-.288-1.472z" fill="#fff"/></svg>