<svg width="199" height="273" viewBox="0 0 199 273" fill="none" xmlns="http://www.w3.org/2000/svg"><path d="M41.791 23.408h-11.62L27.149 30h-4.412l13.43-28.846L49.121 30H44.64l-2.848-6.592zm-1.67-3.85l-4.025-9.228-4.219 9.229h8.244zm15.61 19.758h-3.956V12.88h3.956v1.863c1.558-1.558 3.328-2.338 5.308-2.338 2.355 0 4.295.867 5.818 2.602 1.547 1.723 2.32 3.896 2.32 6.521 0 2.567-.767 4.705-2.302 6.416-1.523 1.7-3.445 2.55-5.766 2.55-2.004 0-3.797-.803-5.379-2.409v11.232zm9.404-17.771c0-1.64-.446-2.977-1.336-4.008-.902-1.043-2.04-1.564-3.41-1.564-1.454 0-2.631.504-3.534 1.511-.902 1.008-1.353 2.332-1.353 3.973 0 1.605.451 2.93 1.353 3.973.891 1.02 2.063 1.529 3.516 1.529 1.371 0 2.502-.516 3.393-1.547.914-1.031 1.37-2.32 1.37-3.867zm8.226-8.666h3.955v1.53c.727-.763 1.371-1.284 1.934-1.565.574-.293 1.254-.44 2.04-.44 1.042 0 2.132.34 3.269 1.02l-1.811 3.62c-.75-.538-1.482-.808-2.197-.808-2.157 0-3.235 1.63-3.235 4.887V30h-3.955V12.879zm28.811 9.492h-12.27c.106 1.406.563 2.526 1.371 3.358.809.82 1.846 1.23 3.112 1.23.984 0 1.799-.234 2.443-.703.633-.469 1.354-1.336 2.162-2.602l3.34 1.864c-.516.878-1.06 1.634-1.635 2.267a9.046 9.046 0 01-1.845 1.547 7.547 7.547 0 01-2.127.879c-.762.187-1.588.281-2.479.281-2.555 0-4.605-.82-6.152-2.46-1.547-1.653-2.32-3.845-2.32-6.575 0-2.707.75-4.898 2.25-6.574 1.511-1.652 3.515-2.479 6.011-2.479 2.52 0 4.512.803 5.977 2.409 1.453 1.593 2.179 3.802 2.179 6.626l-.017.932zm-4.06-3.234c-.551-2.11-1.881-3.164-3.99-3.164-.481 0-.933.076-1.354.228-.422.14-.809.352-1.16.633-.34.27-.633.598-.88.984a4.614 4.614 0 00-.562 1.319h7.945zm8.402-6.258h3.972v1.582c1.383-1.371 2.942-2.057 4.676-2.057 1.992 0 3.545.627 4.658 1.881.961 1.067 1.442 2.807 1.442 5.22V30h-3.973v-9.563c0-1.687-.234-2.853-.703-3.498-.457-.656-1.289-.984-2.496-.984-1.313 0-2.244.434-2.795 1.3-.539.856-.809 2.35-.809 4.483V30h-3.972V12.879zM138.893.31h3.972V30h-3.972v-1.793c-1.559 1.523-3.323 2.285-5.291 2.285-2.344 0-4.29-.855-5.836-2.566-1.536-1.746-2.303-3.926-2.303-6.54 0-2.554.767-4.687 2.303-6.398 1.523-1.722 3.439-2.584 5.748-2.584 2.004 0 3.797.82 5.379 2.461V.311zm-9.387 21.076c0 1.64.439 2.976 1.318 4.008.903 1.043 2.039 1.564 3.41 1.564 1.465 0 2.649-.504 3.551-1.512.903-1.043 1.354-2.367 1.354-3.972 0-1.606-.451-2.93-1.354-3.973-.902-1.02-2.074-1.53-3.515-1.53-1.36 0-2.497.516-3.411 1.548-.902 1.043-1.353 2.332-1.353 3.867zm33.943.984H151.18c.105 1.406.562 2.526 1.371 3.358.808.82 1.845 1.23 3.111 1.23.984 0 1.799-.234 2.443-.703.633-.469 1.354-1.336 2.163-2.602l3.339 1.864a13.594 13.594 0 01-1.634 2.267 9.084 9.084 0 01-1.846 1.547 7.541 7.541 0 01-2.127.879c-.762.187-1.588.281-2.479.281-2.554 0-4.605-.82-6.152-2.46-1.547-1.653-2.32-3.845-2.32-6.575 0-2.707.75-4.898 2.25-6.574 1.512-1.652 3.515-2.479 6.012-2.479 2.519 0 4.511.803 5.976 2.409 1.453 1.593 2.18 3.802 2.18 6.626l-.018.932zm-4.06-3.234c-.551-2.11-1.881-3.164-3.991-3.164-.48 0-.931.076-1.353.228-.422.14-.809.352-1.16.633-.34.27-.633.598-.879.984a4.62 4.62 0 00-.563 1.319h7.946zm-94.096 41.48v5.256c-.902-1.102-1.711-1.857-2.426-2.268-.703-.421-1.53-.632-2.478-.632-1.489 0-2.725.521-3.71 1.564-.984 1.043-1.476 2.35-1.476 3.92 0 1.606.475 2.924 1.424 3.955.96 1.031 2.185 1.547 3.674 1.547.949 0 1.787-.205 2.514-.615.703-.399 1.529-1.172 2.478-2.32v5.22c-1.606.832-3.211 1.248-4.816 1.248-2.649 0-4.864-.855-6.645-2.566-1.781-1.723-2.672-3.862-2.672-6.416 0-2.555.903-4.711 2.707-6.469 1.805-1.758 4.02-2.637 6.645-2.637 1.687 0 3.281.405 4.781 1.213zm3.023 7.7c0-2.473.885-4.577 2.655-6.311 1.77-1.734 3.925-2.602 6.468-2.602 2.555 0 4.723.873 6.504 2.62 1.758 1.745 2.637 3.89 2.637 6.433 0 2.566-.885 4.717-2.654 6.451-1.782 1.723-3.967 2.584-6.557 2.584-2.566 0-4.717-.879-6.451-2.636-1.734-1.735-2.602-3.915-2.602-6.54zm4.043.07c0 1.71.457 3.064 1.372 4.06.937 1.008 2.173 1.512 3.709 1.512 1.546 0 2.783-.498 3.708-1.494.926-.996 1.39-2.326 1.39-3.99 0-1.664-.464-2.994-1.39-3.99-.937-1.008-2.173-1.512-3.709-1.512-1.511 0-2.736.504-3.673 1.511-.938 1.008-1.407 2.309-1.407 3.903zM83.381 51.44l-6.399 5.801-2.162-1.336 4.834-6.398 3.727 1.933zm7.4 8.438h3.955v1.582c.762-.797 1.412-1.336 1.951-1.617.575-.293 1.295-.44 2.163-.44 1.933 0 3.462.844 4.588 2.531 1.242-1.687 2.923-2.53 5.044-2.53 3.856 0 5.784 2.337 5.784 7.013V77h-3.973v-9.51c0-1.64-.199-2.8-.598-3.48-.41-.692-1.084-1.037-2.021-1.037-1.09 0-1.887.41-2.391 1.23-.492.82-.738 2.139-.738 3.955V77h-3.973v-9.457c0-3.047-.879-4.57-2.636-4.57-1.114 0-1.928.416-2.444 1.248-.504.832-.756 2.144-.756 3.937V77h-3.955V59.879zm27.668 8.437c0-2.472.885-4.576 2.655-6.31 1.769-1.734 3.925-2.602 6.468-2.602 2.555 0 4.723.873 6.504 2.62 1.758 1.745 2.637 3.89 2.637 6.433 0 2.566-.885 4.717-2.654 6.451-1.782 1.723-3.967 2.584-6.557 2.584-2.566 0-4.717-.879-6.451-2.636-1.735-1.735-2.602-3.915-2.602-6.54zm4.043.07c0 1.712.457 3.065 1.371 4.061.938 1.008 2.174 1.512 3.709 1.512 1.547 0 2.783-.498 3.709-1.494.926-.996 1.389-2.326 1.389-3.99 0-1.664-.463-2.994-1.389-3.99-.937-1.008-2.174-1.512-3.709-1.512-1.511 0-2.736.504-3.674 1.511-.937 1.008-1.406 2.309-1.406 3.903zm-103.06 64.93h-3.955v-26.437h3.955v1.863c1.558-1.558 3.328-2.338 5.308-2.338 2.356 0 4.295.867 5.819 2.602 1.546 1.723 2.32 3.896 2.32 6.521 0 2.567-.768 4.705-2.303 6.416-1.523 1.7-3.445 2.549-5.765 2.549-2.004 0-3.797-.803-5.38-2.408v11.232zm9.404-17.771c0-1.641-.445-2.977-1.336-4.008-.902-1.043-2.04-1.564-3.41-1.564-1.453 0-2.631.504-3.533 1.511-.903 1.008-1.354 2.332-1.354 3.973 0 1.605.451 2.93 1.354 3.973.89 1.019 2.062 1.529 3.515 1.529 1.371 0 2.502-.516 3.393-1.547.914-1.031 1.37-2.32 1.37-3.867zm8.227-8.666h3.955v1.529c.726-.762 1.37-1.283 1.933-1.564.574-.293 1.254-.44 2.04-.44 1.042 0 2.132.34 3.269 1.02l-1.81 3.621c-.75-.539-1.483-.809-2.198-.809-2.156 0-3.234 1.629-3.234 4.887V124h-3.956v-17.121zm12.34 8.437c0-2.472.884-4.576 2.654-6.31 1.77-1.735 3.925-2.602 6.468-2.602 2.555 0 4.723.873 6.504 2.619 1.758 1.747 2.637 3.891 2.637 6.434 0 2.566-.885 4.717-2.654 6.451-1.782 1.723-3.967 2.584-6.557 2.584-2.566 0-4.717-.879-6.451-2.637-1.734-1.734-2.602-3.914-2.602-6.539zm4.042.071c0 1.711.457 3.064 1.371 4.06.938 1.008 2.174 1.512 3.71 1.512 1.546 0 2.783-.498 3.708-1.494.926-.996 1.389-2.326 1.389-3.99 0-1.664-.463-2.995-1.389-3.991-.937-1.007-2.174-1.511-3.709-1.511-1.511 0-2.736.504-3.673 1.511-.938 1.008-1.407 2.309-1.407 3.903zm22.711-4.817V124h-3.955v-13.43h-1.687v-3.691H72.2v-6.275h3.955v6.275h3.076v3.691h-3.076zm21.674 5.801H85.56c.106 1.406.563 2.525 1.372 3.358.808.82 1.845 1.23 3.111 1.23.984 0 1.799-.234 2.443-.703.633-.469 1.354-1.336 2.162-2.602l3.34 1.864a13.655 13.655 0 01-1.635 2.267 9.05 9.05 0 01-1.845 1.547 7.576 7.576 0 01-2.127.879 10.38 10.38 0 01-2.479.281c-2.554 0-4.605-.82-6.152-2.461-1.547-1.652-2.32-3.843-2.32-6.574 0-2.707.75-4.898 2.25-6.574 1.511-1.653 3.515-2.479 6.011-2.479 2.52 0 4.512.803 5.977 2.408 1.453 1.594 2.18 3.803 2.18 6.627l-.018.932zm-4.06-3.234c-.551-2.11-1.881-3.164-3.99-3.164-.481 0-.932.076-1.354.228a3.748 3.748 0 00-1.16.633 3.97 3.97 0 00-.88.984 4.625 4.625 0 00-.562 1.319h7.945zm24.96 10.459c0 .808-.029 1.517-.087 2.127a13.826 13.826 0 01-.211 1.634c-.282 1.289-.832 2.397-1.653 3.323-1.547 1.781-3.674 2.672-6.381 2.672-2.285 0-4.166-.616-5.642-1.846-1.524-1.266-2.402-3.018-2.637-5.256h3.973c.152.844.404 1.494.756 1.951.82 1.067 2.015 1.6 3.586 1.6 2.894 0 4.341-1.776 4.341-5.326v-2.391c-1.57 1.605-3.38 2.408-5.431 2.408-2.332 0-4.242-.844-5.731-2.531-1.5-1.711-2.25-3.85-2.25-6.416 0-2.496.698-4.617 2.092-6.363 1.5-1.852 3.481-2.778 5.941-2.778 2.157 0 3.95.803 5.379 2.408v-1.933h3.955v16.717zm-3.796-8.121c0-1.664-.446-2.995-1.336-3.991-.903-1.019-2.057-1.529-3.463-1.529-1.5 0-2.684.557-3.551 1.67-.785.996-1.178 2.285-1.178 3.867 0 1.559.393 2.836 1.178 3.832.855 1.09 2.039 1.635 3.551 1.635 1.511 0 2.707-.551 3.586-1.652.808-.996 1.213-2.274 1.213-3.832zm24.38.896h-12.269c.105 1.406.562 2.525 1.371 3.358.809.82 1.846 1.23 3.111 1.23.985 0 1.799-.234 2.444-.703.633-.469 1.353-1.336 2.162-2.602l3.34 1.864a13.69 13.69 0 01-1.635 2.267 9.055 9.055 0 01-1.846 1.547 7.57 7.57 0 01-2.127.879c-.761.187-1.588.281-2.478.281-2.555 0-4.606-.82-6.153-2.461-1.546-1.652-2.32-3.843-2.32-6.574 0-2.707.75-4.898 2.25-6.574 1.512-1.653 3.516-2.479 6.012-2.479 2.519 0 4.512.803 5.976 2.408 1.453 1.594 2.18 3.803 2.18 6.627l-.018.932zm-4.06-3.234c-.551-2.11-1.881-3.164-3.99-3.164-.481 0-.932.076-1.354.228a3.75 3.75 0 00-1.16.633c-.34.27-.633.598-.879.984a4.63 4.63 0 00-.562 1.319h7.945zm8.402-6.258h3.955v1.529c.727-.762 1.371-1.283 1.934-1.564.574-.293 1.254-.44 2.039-.44 1.043 0 2.133.34 3.27 1.02l-1.811 3.621c-.75-.539-1.482-.809-2.197-.809-2.157 0-3.235 1.629-3.235 4.887V124h-3.955v-17.121zm18.844 3.691V124h-3.955v-13.43h-1.688v-3.691h1.688v-6.275h3.955v6.275h3.076v3.691H162.5zm21.674 5.801h-12.27c.106 1.406.563 2.525 1.371 3.358.809.82 1.846 1.23 3.112 1.23.984 0 1.799-.234 2.443-.703.633-.469 1.354-1.336 2.162-2.602l3.34 1.864a13.69 13.69 0 01-1.635 2.267 9.05 9.05 0 01-1.845 1.547 7.595 7.595 0 01-2.127.879c-.762.187-1.588.281-2.479.281-2.555 0-4.605-.82-6.152-2.461-1.547-1.652-2.321-3.843-2.321-6.574 0-2.707.75-4.898 2.25-6.574 1.512-1.653 3.516-2.479 6.012-2.479 2.52 0 4.512.803 5.977 2.408 1.453 1.594 2.179 3.803 2.179 6.627l-.017.932zm-4.061-3.234c-.551-2.11-1.881-3.164-3.99-3.164-.48 0-.932.076-1.353.228a3.755 3.755 0 00-1.161.633c-.339.27-.632.598-.879.984a4.63 4.63 0 00-.562 1.319h7.945zm-141.96 41.48v5.256c-.903-1.102-1.712-1.857-2.426-2.268-.704-.421-1.53-.632-2.479-.632-1.488 0-2.725.521-3.709 1.564-.984 1.043-1.477 2.35-1.477 3.92 0 1.605.475 2.924 1.424 3.955.961 1.031 2.186 1.547 3.674 1.547.95 0 1.787-.205 2.514-.615.703-.399 1.53-1.172 2.478-2.321v5.221c-1.605.832-3.21 1.248-4.816 1.248-2.648 0-4.863-.855-6.645-2.566-1.78-1.723-2.671-3.862-2.671-6.416 0-2.555.902-4.711 2.707-6.469 1.804-1.758 4.02-2.637 6.644-2.637 1.688 0 3.281.405 4.781 1.213zm3.023 7.699c0-2.472.884-4.576 2.654-6.31 1.77-1.735 3.926-2.602 6.469-2.602 2.554 0 4.723.873 6.504 2.619 1.758 1.747 2.637 3.891 2.637 6.434 0 2.566-.885 4.717-2.655 6.451-1.781 1.723-3.967 2.584-6.556 2.584-2.567 0-4.717-.879-6.452-2.637-1.734-1.734-2.601-3.914-2.601-6.539zm4.043.071c0 1.711.457 3.064 1.37 4.06.938 1.008 2.175 1.512 3.71 1.512 1.547 0 2.783-.498 3.709-1.494.926-.996 1.389-2.326 1.389-3.99 0-1.664-.463-2.995-1.39-3.991-.937-1.007-2.173-1.511-3.708-1.511-1.512 0-2.736.504-3.674 1.511-.938 1.008-1.406 2.309-1.406 3.903zm18.422-8.508h3.972v1.582c1.383-1.371 2.942-2.057 4.676-2.057 1.992 0 3.545.627 4.658 1.881.961 1.067 1.442 2.807 1.442 5.221V171h-3.973v-9.562c0-1.688-.234-2.854-.703-3.499-.457-.656-1.29-.984-2.496-.984-1.313 0-2.244.434-2.795 1.301-.54.855-.809 2.349-.809 4.482V171h-3.972v-17.121zm23.836 3.691V171H83.52v-13.43h-1.687v-3.691h1.688v-6.275h3.955v6.275h3.076v3.691h-3.076zm5.765-3.691h3.955v1.529c.727-.762 1.371-1.283 1.934-1.564.574-.293 1.254-.44 2.039-.44 1.043 0 2.133.34 3.269 1.02l-1.81 3.621c-.75-.539-1.483-.809-2.197-.809-2.157 0-3.235 1.629-3.235 4.887V171h-3.955v-17.121zm25.84 0h3.973V171h-3.973v-1.793c-1.629 1.523-3.381 2.285-5.256 2.285-2.367 0-4.324-.855-5.871-2.566-1.535-1.746-2.303-3.926-2.303-6.539 0-2.567.768-4.705 2.303-6.416 1.535-1.711 3.457-2.567 5.766-2.567 1.992 0 3.779.821 5.361 2.461v-1.986zm-9.387 8.508c0 1.64.44 2.976 1.319 4.008.902 1.043 2.039 1.564 3.41 1.564 1.465 0 2.648-.504 3.551-1.512.902-1.043 1.353-2.367 1.353-3.972 0-1.606-.451-2.93-1.353-3.973-.903-1.02-2.075-1.529-3.516-1.529-1.359 0-2.496.515-3.41 1.547-.903 1.042-1.354 2.332-1.354 3.867zm45.053.984h-12.269c.105 1.406.562 2.525 1.371 3.358.808.82 1.845 1.23 3.111 1.23.984 0 1.799-.234 2.443-.703.633-.469 1.354-1.336 2.162-2.602l3.34 1.864a13.575 13.575 0 01-1.635 2.267 9.05 9.05 0 01-1.845 1.547 7.57 7.57 0 01-2.127.879c-.762.187-1.588.281-2.479.281-2.554 0-4.605-.82-6.152-2.461-1.547-1.652-2.32-3.843-2.32-6.574 0-2.707.75-4.898 2.25-6.574 1.511-1.653 3.515-2.479 6.011-2.479 2.52 0 4.512.803 5.977 2.408 1.453 1.594 2.18 3.803 2.18 6.627l-.018.932zm-4.06-3.234c-.551-2.11-1.881-3.164-3.991-3.164-.48 0-.931.076-1.353.228a3.74 3.74 0 00-1.16.633c-.34.27-.633.598-.879.984a4.631 4.631 0 00-.563 1.319h7.946zm12.357-18.826V171h-3.955v-29.689h3.955zM36.43 204.57V218h-3.973v-13.43h-1.406v-3.691h1.406v-6.609c0-2.157.375-3.68 1.125-4.571 1.031-1.242 2.531-1.863 4.5-1.863.703 0 1.588.205 2.654.615v4.043l-.404-.211c-.855-.433-1.559-.65-2.11-.65-.703 0-1.177.252-1.423.756-.246.492-.37 1.441-.37 2.847v5.643h4.307v3.691H36.43zm6.592-3.691h3.955v1.529c.726-.762 1.37-1.283 1.933-1.564.574-.293 1.254-.44 2.04-.44 1.042 0 2.132.34 3.269 1.02l-1.81 3.621c-.75-.539-1.483-.809-2.198-.809-2.156 0-3.234 1.629-3.234 4.887V218h-3.955v-17.121zm25.84 0h3.972V218h-3.973v-1.793c-1.629 1.523-3.38 2.285-5.256 2.285-2.367 0-4.324-.855-5.87-2.566-1.536-1.746-2.303-3.926-2.303-6.539 0-2.567.767-4.705 2.302-6.416 1.535-1.711 3.457-2.567 5.766-2.567 1.992 0 3.78.821 5.361 2.461v-1.986zm-9.387 8.508c0 1.64.44 2.976 1.318 4.008.902 1.043 2.039 1.564 3.41 1.564 1.465 0 2.649-.504 3.55-1.512.903-1.043 1.354-2.367 1.354-3.972 0-1.606-.45-2.93-1.353-3.973-.902-1.02-2.074-1.529-3.516-1.529-1.36 0-2.496.515-3.41 1.547-.902 1.042-1.353 2.332-1.353 3.867zm22.306-8.508v9.826c0 2.836 1.12 4.254 3.358 4.254s3.357-1.418 3.357-4.254v-9.826h3.955v9.914c0 1.371-.17 2.555-.51 3.551-.328.89-.896 1.693-1.705 2.408-1.336 1.16-3.035 1.74-5.097 1.74-2.051 0-3.745-.58-5.08-1.74-.82-.715-1.4-1.518-1.74-2.408-.329-.797-.493-1.981-.493-3.551v-9.914h3.955zm28.283-12.568h3.973V218h-3.973v-1.793c-1.558 1.523-3.322 2.285-5.291 2.285-2.343 0-4.289-.855-5.835-2.566-1.536-1.746-2.303-3.926-2.303-6.539 0-2.555.767-4.688 2.302-6.399 1.524-1.722 3.44-2.584 5.749-2.584 2.003 0 3.796.821 5.378 2.461v-14.554zm-9.386 21.076c0 1.64.439 2.976 1.318 4.008.902 1.043 2.039 1.564 3.41 1.564 1.465 0 2.649-.504 3.551-1.512.902-1.043 1.354-2.367 1.354-3.972 0-1.606-.452-2.93-1.354-3.973-.902-1.02-2.074-1.529-3.516-1.529-1.359 0-2.496.515-3.41 1.547-.902 1.042-1.353 2.332-1.353 3.867zm33.943.984h-12.269c.105 1.406.562 2.525 1.371 3.358.808.82 1.845 1.23 3.111 1.23.984 0 1.799-.234 2.443-.703.633-.469 1.354-1.336 2.162-2.602l3.34 1.864a13.63 13.63 0 01-1.634 2.267 9.082 9.082 0 01-1.846 1.547 7.57 7.57 0 01-2.127.879c-.762.187-1.588.281-2.479.281-2.554 0-4.605-.82-6.152-2.461-1.547-1.652-2.32-3.843-2.32-6.574 0-2.707.75-4.898 2.25-6.574 1.511-1.653 3.515-2.479 6.011-2.479 2.52 0 4.512.803 5.977 2.408 1.453 1.594 2.18 3.803 2.18 6.627l-.018.932zm-4.06-3.234c-.551-2.11-1.881-3.164-3.991-3.164-.48 0-.931.076-1.353.228a3.74 3.74 0 00-1.16.633c-.34.27-.633.598-.879.984a4.631 4.631 0 00-.563 1.319h7.946zm32.132-6.258h3.973V218h-3.973v-1.793c-1.629 1.523-3.381 2.285-5.255 2.285-2.368 0-4.325-.855-5.872-2.566-1.535-1.746-2.302-3.926-2.302-6.539 0-2.567.767-4.705 2.302-6.416 1.536-1.711 3.457-2.567 5.766-2.567 1.992 0 3.779.821 5.361 2.461v-1.986zm-9.386 8.508c0 1.64.439 2.976 1.318 4.008.902 1.043 2.039 1.564 3.41 1.564 1.465 0 2.649-.504 3.551-1.512.902-1.043 1.353-2.367 1.353-3.972 0-1.606-.451-2.93-1.353-3.973-.902-1.02-2.074-1.529-3.516-1.529-1.359 0-2.496.515-3.41 1.547-.902 1.042-1.353 2.332-1.353 3.867z" fill="#DEEDFC"/><path d="M.291 272l4.864-28.652h7.372l5.738 15.276 5.7-15.276h7.372L36.201 272h-7.41l-2.47-16.492L19.557 272h-2.964l-6.422-16.492L7.701 272H.291zm53.193-12.578c-.228-.963-.697-1.735-1.406-2.318-.71-.583-1.57-.874-2.584-.874-1.064 0-1.938.279-2.622.836-.659.557-1.077 1.343-1.254 2.356h7.866zm-8.056 3.99c0 2.964 1.393 4.446 4.18 4.446 1.495 0 2.622-.608 3.382-1.824h6.65c-1.343 4.459-4.7 6.688-10.07 6.688-1.647 0-3.154-.241-4.522-.722-1.368-.507-2.546-1.216-3.534-2.128a9.521 9.521 0 01-2.242-3.268c-.532-1.267-.798-2.685-.798-4.256 0-1.621.253-3.078.76-4.37.507-1.317 1.229-2.432 2.166-3.344.937-.912 2.065-1.609 3.382-2.09 1.343-.507 2.85-.76 4.522-.76 1.647 0 3.129.253 4.446.76 1.317.481 2.432 1.191 3.344 2.128.912.937 1.609 2.09 2.09 3.458.481 1.343.722 2.863.722 4.56v.722H45.428zm24.793-1.216c0 .633.114 1.229.342 1.786.228.532.532 1.001.912 1.406.406.405.874.722 1.406.95a4.671 4.671 0 001.786.342c.608 0 1.178-.114 1.71-.342a3.946 3.946 0 001.406-.95c.406-.405.722-.874.95-1.406.254-.532.38-1.102.38-1.71 0-.608-.126-1.178-.38-1.71a4.34 4.34 0 00-.95-1.444 3.946 3.946 0 00-1.406-.95 4.295 4.295 0 00-1.71-.342c-.608 0-1.19.114-1.748.342-.532.228-1 .545-1.406.95-.38.405-.696.874-.95 1.406a4.029 4.029 0 00-.342 1.672zm8.664-21.736h6.916V272h-6.916v-2.166c-1.469 1.849-3.458 2.774-5.966 2.774-1.418 0-2.723-.266-3.914-.798a9.688 9.688 0 01-3.116-2.204 10.342 10.342 0 01-2.09-3.306c-.48-1.267-.722-2.635-.722-4.104 0-1.393.228-2.711.684-3.952.482-1.267 1.153-2.369 2.014-3.306a9.268 9.268 0 013.078-2.204c1.216-.557 2.546-.836 3.99-.836 2.432 0 4.446.849 6.042 2.546V240.46zm18.475 12.046V272h-6.878v-19.494h6.878zm-7.334-7.486c0-.532.101-1.026.304-1.482a3.89 3.89 0 01.836-1.254c.355-.355.76-.633 1.216-.836a3.871 3.871 0 011.52-.304c.532 0 1.026.101 1.482.304.481.203.9.481 1.254.836.355.355.633.773.836 1.254.203.456.304.95.304 1.482s-.101 1.039-.304 1.52a4.014 4.014 0 01-.836 1.216 3.886 3.886 0 01-1.254.836c-.456.203-.95.304-1.482.304a3.871 3.871 0 01-1.52-.304 4.007 4.007 0 01-1.216-.836 4.01 4.01 0 01-.836-1.216 3.876 3.876 0 01-.304-1.52zm26.74 13.794c-1.191-.811-2.394-1.216-3.61-1.216-.659 0-1.279.114-1.862.342a4.473 4.473 0 00-1.482.988 4.418 4.418 0 00-1.026 1.482c-.228.557-.342 1.191-.342 1.9 0 .684.114 1.317.342 1.9.253.557.583 1.051.988 1.482.431.405.937.722 1.52.95a5.064 5.064 0 001.862.342c1.292 0 2.495-.443 3.61-1.33v5.852c-1.697.735-3.306 1.102-4.826 1.102-1.419 0-2.774-.241-4.066-.722a10.698 10.698 0 01-3.382-2.052 10.619 10.619 0 01-2.318-3.23c-.583-1.267-.874-2.673-.874-4.218s.279-2.951.836-4.218c.557-1.292 1.317-2.394 2.28-3.306a9.986 9.986 0 013.42-2.166 11.55 11.55 0 014.294-.798c1.672 0 3.217.355 4.636 1.064v5.852zm10.307 3.382c0 .633.114 1.229.342 1.786.228.532.532 1.001.912 1.406.405.405.874.722 1.406.95a4.67 4.67 0 001.786.342c.608 0 1.178-.114 1.71-.342a3.95 3.95 0 001.406-.95c.405-.405.722-.874.95-1.406.253-.532.38-1.102.38-1.71 0-.608-.127-1.178-.38-1.71a4.346 4.346 0 00-.95-1.444 3.95 3.95 0 00-1.406-.95 4.295 4.295 0 00-1.71-.342 4.67 4.67 0 00-1.786.342 4.448 4.448 0 00-1.406.95c-.38.405-.684.874-.912 1.406a4.029 4.029 0 00-.342 1.672zm8.664-9.69h6.916V272h-6.916v-2.166c-1.469 1.849-3.458 2.774-5.966 2.774-1.419 0-2.723-.253-3.914-.76a9.687 9.687 0 01-3.116-2.204 10.34 10.34 0 01-2.09-3.306c-.481-1.267-.722-2.647-.722-4.142 0-1.393.241-2.711.722-3.952a10.157 10.157 0 012.014-3.306 9.26 9.26 0 013.078-2.204c1.191-.557 2.508-.836 3.952-.836 2.432 0 4.446.849 6.042 2.546v-1.938zm11.597 0h6.878v3.192c.734-1.165 1.634-2.052 2.698-2.66 1.064-.633 2.305-.95 3.724-.95h.57c.228 0 .481.025.76.076v6.574a6.535 6.535 0 00-2.964-.684c-1.596 0-2.8.481-3.61 1.444-.786.937-1.178 2.318-1.178 4.142V272h-6.878v-19.494zm32.173 6.916c-.228-.963-.696-1.735-1.406-2.318-.709-.583-1.57-.874-2.584-.874-1.064 0-1.938.279-2.622.836-.658.557-1.076 1.343-1.254 2.356h7.866zm-8.056 3.99c0 2.964 1.394 4.446 4.18 4.446 1.495 0 2.622-.608 3.382-1.824h6.65c-1.342 4.459-4.699 6.688-10.07 6.688-1.646 0-3.154-.241-4.522-.722-1.368-.507-2.546-1.216-3.534-2.128a9.53 9.53 0 01-2.242-3.268c-.532-1.267-.798-2.685-.798-4.256 0-1.621.254-3.078.76-4.37.507-1.317 1.229-2.432 2.166-3.344.938-.912 2.065-1.609 3.382-2.09 1.343-.507 2.85-.76 4.522-.76 1.647 0 3.129.253 4.446.76 1.318.481 2.432 1.191 3.344 2.128.912.937 1.609 2.09 2.09 3.458.482 1.343.722 2.863.722 4.56v.722h-14.478zm18.068 4.94c0-.608.114-1.178.342-1.71a4.346 4.346 0 01.95-1.444 4.448 4.448 0 011.406-.95 4.572 4.572 0 011.748-.342c.608 0 1.178.114 1.71.342a4.346 4.346 0 011.444.95c.405.405.722.887.95 1.444.228.532.342 1.102.342 1.71 0 .608-.114 1.191-.342 1.748a4.448 4.448 0 01-.95 1.406 4.346 4.346 0 01-1.444.95 4.295 4.295 0 01-1.71.342 4.572 4.572 0 01-1.748-.342 4.448 4.448 0 01-2.356-2.356 4.572 4.572 0 01-.342-1.748z" fill="#fff"/></svg>