<svg width="489" height="101" viewBox="0 0 489 101" fill="none" xmlns="http://www.w3.org/2000/svg"><path d="M19.36 31.568l3.608-.396-1.584-4.576H10.472l-1.54 4.576 3.476.396V35H.132v-3.432l1.936-.484c.528-.132.924-.308 1.1-.836l9.636-27.104h7.788l9.592 27.192c.176.528.528.616 1.056.748l2.024.484V35H19.36v-3.432zM15.884 9.876l-4.048 11.968h8.228L16.148 9.876h-.264zm19.043 30.932l1.76-.264c.616-.088.792-.264.792-.924V17.4c0-.484-.088-.748-.572-.924l-2.332-.836.484-3.564h7.744l.396 2.244.22.088c2.112-1.716 4.972-2.772 7.48-2.772 4.928 0 8.448 3.08 8.448 11.264 0 5.28-1.804 12.628-9.064 12.628-2.288 0-4.356-.748-6.204-2.2v6.248c0 .704.044.836.704.88l4.488.396v3.476H34.927v-3.52zm9.152-12.1c.968.836 2.508 1.672 4.136 1.672 2.948 0 4.18-2.816 4.18-7.128 0-4.532-1.54-6.38-3.74-6.38-1.848 0-3.608.924-4.576 1.584v10.252zm18.402 2.728l1.98-.264c.616-.088.704-.22.704-.88V17.4c0-.484-.132-.792-.572-.924l-2.376-.836.484-3.564h7.744l.528 3.52h.264c1.452-2.244 3.388-3.96 6.204-3.96 1.012 0 3.036.176 3.828.396v8.008l-5.28-.176-.44-2.332c-.088-.396-.22-.484-.572-.484-1.144 0-2.508.968-3.168 1.54v11.66c0 .704.044.836.704.88l4.356.352V35H62.481v-3.564zm41.482 1.848c-2.728 1.32-5.72 2.244-9.02 2.244-8.492 0-11.396-5.28-11.396-12.144 0-7.964 4.884-11.748 10.912-11.748 5.808 0 9.68 3.036 9.68 10.648 0 .528-.044 2.068-.088 2.948H90.587c.22 3.124 1.584 5.192 5.192 5.192 1.716 0 3.564-.396 6.556-1.496l1.628 4.356zm-6.336-12.232c-.044-3.696-1.496-4.664-3.3-4.664-1.892 0-3.432 1.056-3.696 4.664h6.996zm25.669-.264c0-2.112-.132-3.872-2.332-3.872-1.628 0-3.652.924-4.576 1.628v11.792c0 .704.044.792.704.88l2.112.308V35H107.06v-3.52l1.98-.264c.616-.088.704-.22.704-.88V17.4c0-.484-.132-.792-.572-.924l-2.376-.836.528-3.564h7.7l.352 2.288.176.088c2.2-1.628 4.752-2.816 7.744-2.816 4.796 0 6.644 2.64 6.644 7.48v11.22c0 .704.044.792.704.88l2.2.308V35h-9.548V20.788zm28.117 11.748l-.308-.044c-1.848 1.804-4.004 3.036-7.216 3.036-5.192 0-8.536-3.3-8.536-11.704 0-8.844 4.444-12.188 9.328-12.188 2.552 0 4.532.88 6.204 2.112V7.06c0-.44-.176-.748-.572-.88l-2.42-.836.484-3.564h8.844v28.6c0 .66.044.748.704.836l2.112.308V35h-8.184l-.44-2.464zm-.792-14.476c-1.1-.748-2.508-1.32-3.784-1.32-3.256 0-4.532 3.036-4.532 6.952 0 4.268 1.232 6.644 4.004 6.644 1.496 0 3.124-.88 4.312-1.892V18.06zm31.791 15.224c-2.728 1.32-5.72 2.244-9.02 2.244-8.492 0-11.396-5.28-11.396-12.144 0-7.964 4.884-11.748 10.912-11.748 5.808 0 9.68 3.036 9.68 10.648 0 .528-.044 2.068-.088 2.948h-13.464c.22 3.124 1.584 5.192 5.192 5.192 1.716 0 3.564-.396 6.556-1.496l1.628 4.356zm-6.336-12.232c-.044-3.696-1.496-4.664-3.3-4.664-1.892 0-3.432 1.056-3.696 4.664h6.996zm33.112 11.572l-.22-.044c-1.672 1.628-3.872 2.948-7.392 2.948-5.544 0-6.424-3.784-6.424-6.512 0-4.4 2.684-6.38 8.228-6.776l5.06-.352v-2.42c0-2.068-.22-3.476-2.948-3.476-2.112 0-3.212.308-3.212 2.948l-6.204-.528c0-5.94 5.412-6.776 9.46-6.776 6.688 0 9.372 1.804 9.372 7.964v10.692c0 .704.044.792.704.88l2.112.352V35h-8.096l-.44-2.376zm-3.74-6.864c-2.596.176-3.52.836-3.52 2.596 0 1.76 1.056 2.42 2.508 2.42 1.496 0 2.992-.836 4.004-1.584V25.54l-2.992.22zm33.078-21.164c0 2.508-1.452 3.96-4.004 3.96-2.508 0-3.96-1.452-3.96-3.96s1.452-3.872 3.96-3.872c2.552 0 4.004 1.364 4.004 3.872zm-9.68 26.928l2.244-.308c.616-.088.704-.22.704-.88V17.4c0-.484-.132-.792-.572-.924l-2.376-.836.484-3.564h9.108v18.26c0 .704.044.792.704.88l2.244.308V35h-12.54v-3.476zm30.953 1.012l-.308-.044c-1.848 1.804-4.004 3.036-7.216 3.036-5.192 0-8.536-3.3-8.536-11.704 0-8.844 4.444-12.188 9.328-12.188 2.552 0 4.532.88 6.204 2.112V7.06c0-.44-.176-.748-.572-.88l-2.42-.836.484-3.564h8.844v28.6c0 .66.044.748.704.836l2.112.308V35h-8.184l-.44-2.464zm-.792-14.476c-1.1-.748-2.508-1.32-3.784-1.32-3.256 0-4.532 3.036-4.532 6.952 0 4.268 1.232 6.644 4.004 6.644 1.496 0 3.124-.88 4.312-1.892V18.06zm31.791 15.224c-2.728 1.32-5.72 2.244-9.02 2.244-8.492 0-11.396-5.28-11.396-12.144 0-7.964 4.884-11.748 10.912-11.748 5.808 0 9.68 3.036 9.68 10.648 0 .528-.044 2.068-.088 2.948h-13.464c.22 3.124 1.584 5.192 5.192 5.192 1.716 0 3.564-.396 6.556-1.496l1.628 4.356zm-6.336-12.232c-.044-3.696-1.496-4.664-3.3-4.664-1.892 0-3.432 1.056-3.696 4.664h6.996zm25.669-.264c0-2.112-.132-3.872-2.332-3.872-1.628 0-3.652.924-4.576 1.628v11.792c0 .704.044.792.704.88l2.112.308V35h-12.144v-3.52l1.98-.264c.616-.088.704-.22.704-.88V17.4c0-.484-.132-.792-.572-.924l-2.376-.836.528-3.564h7.7l.352 2.288.176.088c2.2-1.628 4.752-2.816 7.744-2.816 4.796 0 6.644 2.64 6.644 7.48v11.22c0 .704.044.792.704.88l2.2.308V35h-9.548V20.788zm28.474 12.98c-1.892.924-4.664 1.76-7.172 1.76-5.236 0-7.216-2.112-7.216-7.084V16.916c0-.264 0-.44-.352-.44h-3.08V12.56c3.872-.44 5.412-2.376 5.896-7.172h4.18v6.248c0 .308 0 .44.352.44h6.204v4.4h-6.556v10.516c0 2.596.616 3.608 2.992 3.608 1.232 0 2.508-.308 3.564-.704l1.188 3.872zm11.993-29.172c0 2.508-1.452 3.96-4.004 3.96-2.508 0-3.96-1.452-3.96-3.96s1.452-3.872 3.96-3.872c2.552 0 4.004 1.364 4.004 3.872zm-9.68 26.928l2.244-.308c.616-.088.704-.22.704-.88V17.4c0-.484-.132-.792-.572-.924l-2.376-.836.484-3.564h9.108v18.26c0 .704.044.792.704.88l2.244.308V35h-12.54v-3.476zm31.917-14.52c0-.352-.088-.528-.44-.528h-6.996V30.16c0 .792.132.836.792.924l3.08.44V35h-13.684v-3.476l2.376-.308c.748-.088.792-.22.792-1.056V16.916c0-.264 0-.44-.352-.44h-2.948v-4.4h3.3v-2.2c0-6.512 3.784-8.624 10.956-8.624 5.456 0 9.24.924 9.328 6.952l-6.248.748c0-2.728-.616-3.388-3.432-3.388-2.948 0-3.96.88-3.96 3.388v2.684c0 .352.044.44.484.44h13.596v18.26c0 .704.044.792.704.88l2.244.308V35h-9.592V17.004zm31.612 16.368c-2.024 1.232-5.148 2.156-8.36 2.156-7.964 0-11.528-4.972-11.528-11.66 0-8.228 5.016-12.232 12.056-12.232 3.432 0 6.468.968 7.832 1.848v6.908l-4.708-.22-.528-2.904c-.044-.308-.132-.572-.528-.704-.528-.176-1.364-.308-2.244-.308-2.64 0-4.884 1.804-4.884 6.952 0 5.72 2.552 7.348 5.676 7.348 2.2 0 4.18-.704 5.5-1.276l1.716 4.092zm16.68-.748l-.22-.044c-1.672 1.628-3.872 2.948-7.392 2.948-5.544 0-6.424-3.784-6.424-6.512 0-4.4 2.684-6.38 8.228-6.776l5.06-.352v-2.42c0-2.068-.22-3.476-2.948-3.476-2.112 0-3.212.308-3.212 2.948l-6.204-.528c0-5.94 5.412-6.776 9.46-6.776 6.688 0 9.372 1.804 9.372 7.964v10.692c0 .704.044.792.704.88l2.112.352V35h-8.096l-.44-2.376zm-3.74-6.864c-2.596.176-3.52.836-3.52 2.596 0 1.76 1.056 2.42 2.508 2.42 1.496 0 2.992-.836 4.004-1.584V25.54l-2.992.22zm14.328 5.676l1.98-.264c.616-.088.704-.22.704-.88V17.4c0-.484-.132-.792-.572-.924l-2.376-.836.484-3.564h7.744l.528 3.52h.264c1.452-2.244 3.388-3.96 6.204-3.96 1.012 0 3.036.176 3.828.396v8.008l-5.28-.176-.44-2.332c-.088-.396-.22-.484-.572-.484-1.144 0-2.508.968-3.168 1.54v11.66c0 .704.044.836.704.88l4.356.352V35h-14.388v-3.564zm34.267 9.328l3.432-.396c.572-.044.836-.352 1.1-.968l1.892-4.18-8.404-18.392c-.264-.528-.396-.616-.924-.748l-1.804-.44.704-3.564h11.66v3.564l-2.772.352 4.884 11.616h.308l4.664-11.616-2.86-.352.572-3.564h9.812v3.564l-1.408.264c-.528.088-.88.22-1.1.748l-9.68 23.672 4.576.484v3.52h-14.652v-3.564zM1.144 87.436l1.98-.264c.616-.088.704-.22.704-.88V73.4c0-.484-.132-.792-.572-.924L.88 71.64l.484-3.564h7.744l.528 3.52H9.9c1.452-2.244 3.388-3.96 6.204-3.96 1.012 0 3.036.176 3.828.396v8.008l-5.28-.176-.44-2.332c-.088-.396-.22-.484-.572-.484-1.144 0-2.508.968-3.168 1.54v11.66c0 .704.044.836.704.88l4.356.352V91H1.144v-3.564zm41.482 1.848c-2.728 1.32-5.72 2.244-9.02 2.244-8.492 0-11.396-5.28-11.396-12.144 0-7.964 4.884-11.748 10.912-11.748 5.808 0 9.68 3.036 9.68 10.648 0 .528-.044 2.068-.088 2.948H29.25c.22 3.124 1.584 5.192 5.192 5.192 1.716 0 3.564-.396 6.556-1.496l1.628 4.356zM36.29 77.052c-.044-3.696-1.496-4.664-3.3-4.664-1.892 0-3.432 1.056-3.696 4.664h6.996zm9.26 19.756l1.76-.264c.616-.088.792-.264.792-.924V73.4c0-.484-.088-.748-.572-.924l-2.332-.836.484-3.564h7.744l.396 2.244.22.088c2.112-1.716 4.972-2.772 7.48-2.772 4.928 0 8.448 3.08 8.448 11.264 0 5.28-1.804 12.628-9.064 12.628-2.288 0-4.356-.748-6.204-2.2v6.248c0 .704.044.836.704.88l4.488.396v3.476H45.55v-3.52zm9.152-12.1c.968.836 2.508 1.672 4.136 1.672 2.948 0 4.18-2.816 4.18-7.128 0-4.532-1.54-6.38-3.74-6.38-1.848 0-3.608.924-4.576 1.584v10.252zm29.54 6.82c-8.052 0-11.308-4.928-11.308-11.836 0-7.304 3.828-12.056 11.88-12.056 8.14 0 11.308 4.84 11.308 11.572 0 7.48-3.784 12.32-11.88 12.32zm.308-4.62c2.86 0 4.62-1.98 4.62-7.48 0-5.192-1.584-7.04-4.444-7.04-2.904 0-4.84 1.804-4.84 7.084 0 5.324 1.716 7.436 4.664 7.436zm14.217.528l1.98-.264c.616-.088.704-.22.704-.88V73.4c0-.484-.132-.792-.572-.924l-2.376-.836.484-3.564h7.744l.528 3.52h.264c1.452-2.244 3.388-3.96 6.204-3.96 1.012 0 3.036.176 3.828.396v8.008l-5.28-.176-.44-2.332c-.088-.396-.22-.484-.572-.484-1.144 0-2.508.968-3.168 1.54v11.66c0 .704.044.836.704.88l4.356.352V91H98.767v-3.564zm38.609 2.332c-1.892.924-4.664 1.76-7.172 1.76-5.236 0-7.216-2.112-7.216-7.084V72.916c0-.264 0-.44-.352-.44h-3.08V68.56c3.872-.44 5.412-2.376 5.896-7.172h4.18v6.248c0 .308 0 .44.352.44h6.204v4.4h-6.556v10.516c0 2.596.616 3.608 2.992 3.608 1.232 0 2.508-.308 3.564-.704l1.188 3.872zm16.275-1.144l-.22-.044c-1.672 1.628-3.872 2.948-7.392 2.948-5.544 0-6.424-3.784-6.424-6.512 0-4.4 2.684-6.38 8.228-6.776l5.06-.352v-2.42c0-2.068-.22-3.476-2.948-3.476-2.112 0-3.212.308-3.212 2.948l-6.204-.528c0-5.94 5.412-6.776 9.46-6.776 6.688 0 9.372 1.804 9.372 7.964v10.692c0 .704.044.792.704.88l2.112.352V91h-8.096l-.44-2.376zm-3.74-6.864c-2.596.176-3.52.836-3.52 2.596 0 1.76 1.056 2.42 2.508 2.42 1.496 0 2.992-.836 4.004-1.584V81.54l-2.992.22zm14.329 5.676l1.98-.264c.616-.088.704-.22.704-.88V73.4c0-.484-.132-.792-.572-.924l-2.376-.836.484-3.564h7.744l.528 3.52h.264c1.452-2.244 3.388-3.96 6.204-3.96 1.012 0 3.036.176 3.828.396v8.008l-5.28-.176-.44-2.332c-.088-.396-.22-.484-.572-.484-1.144 0-2.508.968-3.168 1.54v11.66c0 .704.044.836.704.88l4.356.352V91H164.24v-3.564zm51.031 1.848c-2.728 1.32-5.72 2.244-9.02 2.244-8.492 0-11.396-5.28-11.396-12.144 0-7.964 4.884-11.748 10.912-11.748 5.808 0 9.68 3.036 9.68 10.648 0 .528-.044 2.068-.088 2.948h-13.464c.22 3.124 1.584 5.192 5.192 5.192 1.716 0 3.564-.396 6.556-1.496l1.628 4.356zm-6.336-12.232c-.044-3.696-1.496-4.664-3.3-4.664-1.892 0-3.432 1.056-3.696 4.664h6.996zm9.213 10.472l2.2-.308c.616-.088.704-.22.704-.88V63.104c0-.484-.132-.792-.572-.924l-2.42-.836.484-3.564h9.152v28.556c0 .704.044.792.704.88l2.156.308V91h-12.408v-3.476zm23.961-.044l2.464-.264c.616-.088.704-.264.704-.924V72.916c0-.264 0-.44-.352-.44h-2.948v-4.4h3.3v-2.42c0-5.94 3.344-8.404 9.416-8.404 4.092 0 7.876 1.012 7.876 6.336l-6.16.748c.044-2.244-.572-2.772-2.024-2.772-2.2 0-2.464 1.188-2.464 3.3v2.772c0 .308 0 .44.352.44h6.952v4.4h-7.304V86.16c0 .704.132.836.792.88l5.368.484V91h-15.972v-3.52zm19.603-.044l1.98-.264c.616-.088.704-.22.704-.88V73.4c0-.484-.132-.792-.572-.924l-2.376-.836.484-3.564h7.744l.528 3.52h.264c1.452-2.244 3.388-3.96 6.204-3.96 1.012 0 3.036.176 3.828.396v8.008l-5.28-.176-.44-2.332c-.088-.396-.22-.484-.572-.484-1.144 0-2.508.968-3.168 1.54v11.66c0 .704.044.836.704.88l4.356.352V91h-14.388v-3.564zm34.463 1.188l-.22-.044c-1.672 1.628-3.872 2.948-7.392 2.948-5.544 0-6.424-3.784-6.424-6.512 0-4.4 2.684-6.38 8.228-6.776l5.06-.352v-2.42c0-2.068-.22-3.476-2.948-3.476-2.112 0-3.212.308-3.212 2.948l-6.204-.528c0-5.94 5.412-6.776 9.46-6.776 6.688 0 9.372 1.804 9.372 7.964v10.692c0 .704.044.792.704.88l2.112.352V91h-8.096l-.44-2.376zm-3.74-6.864c-2.596.176-3.52.836-3.52 2.596 0 1.76 1.056 2.42 2.508 2.42 1.496 0 2.992-.836 4.004-1.584V81.54l-2.992.22zm30.539 6.864l-.22-.044c-1.804 1.364-4.092 2.948-7.832 2.948-4.62 0-6.38-2.64-6.38-7.744V73.048c0-.704-.044-.792-.704-.924l-2.112-.44.44-3.608h9.02V82.64c0 2.684.44 3.696 2.332 3.696 1.936 0 3.52-1.1 4.532-2.024V73.004c0-.704-.044-.748-.704-.88l-1.892-.44.484-3.608h8.756v18.26c0 .572.088.748.616.836l2.2.308V91h-8.184l-.352-2.376zm27.068-.088l-.308-.044c-1.848 1.804-4.004 3.036-7.216 3.036-5.192 0-8.536-3.3-8.536-11.704 0-8.844 4.444-12.188 9.328-12.188 2.552 0 4.532.88 6.204 2.112V63.06c0-.44-.176-.748-.572-.88l-2.42-.836.484-3.564h8.844v28.6c0 .66.044.748.704.836l2.112.308V91h-8.184l-.44-2.464zm-.792-14.476c-1.1-.748-2.508-1.32-3.784-1.32-3.256 0-4.532 3.036-4.532 6.952 0 4.268 1.232 6.644 4.004 6.644 1.496 0 3.124-.88 4.312-1.892V74.06zm31.791 15.224c-2.728 1.32-5.72 2.244-9.02 2.244-8.492 0-11.396-5.28-11.396-12.144 0-7.964 4.884-11.748 10.912-11.748 5.808 0 9.68 3.036 9.68 10.648 0 .528-.044 2.068-.088 2.948h-13.464c.22 3.124 1.584 5.192 5.192 5.192 1.716 0 3.564-.396 6.556-1.496l1.628 4.356zm-6.336-12.232c-.044-3.696-1.496-4.664-3.3-4.664-1.892 0-3.432 1.056-3.696 4.664h6.996zm17.798 11.044c0 2.244-1.232 3.432-3.74 3.432-2.552 0-3.784-1.144-3.784-3.432 0-2.244 1.232-3.432 3.784-3.432 2.464 0 3.74 1.188 3.74 3.432z" fill="#fff"/></svg>