<svg width="141" height="111" viewBox="0 0 141 111" fill="none" xmlns="http://www.w3.org/2000/svg"><path d="M.494 17L8.084.785h3.45L19.17 17h-4.255l-1.955-4.462 1.633 1.173H5.071l1.61-1.173L4.749 17H.494zM9.786 5.155l-2.691 6.417-.644-1.081h6.739l-.575 1.081-2.714-6.417h-.115zm10.386 16.813V8.49a27.879 27.879 0 00-.184-3.174h3.956l.253 2.07h-.23c.214-.69.69-1.25 1.426-1.679.736-.43 1.556-.644 2.46-.644 1.013 0 1.902.245 2.669.736.766.475 1.364 1.173 1.794 2.093.444.905.667 1.993.667 3.266 0 1.257-.223 2.346-.667 3.266-.43.92-1.028 1.625-1.794 2.116-.767.475-1.656.713-2.668.713-.89 0-1.695-.2-2.415-.598-.72-.414-1.196-.958-1.426-1.633h.253v6.946h-4.094zm6.37-7.751c.706 0 1.266-.238 1.68-.713.43-.49.644-1.273.644-2.346 0-1.073-.215-1.848-.644-2.323-.414-.49-.974-.736-1.68-.736-.69 0-1.249.245-1.678.736-.43.475-.644 1.25-.644 2.323s.214 1.855.644 2.346c.43.475.989.713 1.679.713zM35.204 17V8.513a28.185 28.185 0 00-.184-3.197h3.956l.438 3.588h-.621c.153-.874.398-1.595.736-2.162.337-.567.758-.989 1.264-1.265.506-.276 1.105-.414 1.794-.414.322 0 .56.015.714.046.168.015.345.061.529.138v3.588c-.384-.169-.69-.276-.92-.322a4.73 4.73 0 00-.898-.069c-.628 0-1.142.115-1.54.345-.4.215-.69.552-.874 1.012-.17.46-.254 1.05-.254 1.771V17h-4.14zm16.053.253c-2.116 0-3.765-.544-4.945-1.633-1.166-1.089-1.748-2.584-1.748-4.485 0-1.18.245-2.231.736-3.151a5.25 5.25 0 012.07-2.139c.89-.521 1.932-.782 3.128-.782 1.18 0 2.162.26 2.944.782.797.506 1.395 1.211 1.794 2.116.398.89.598 1.924.598 3.105v.874H47.99v-1.932h4.83l-.391.322c0-.874-.169-1.518-.506-1.932-.322-.43-.782-.644-1.38-.644-.69 0-1.22.26-1.587.782-.353.506-.53 1.273-.53 2.3v.414c0 1.027.254 1.779.76 2.254.506.475 1.234.713 2.185.713.613 0 1.188-.069 1.725-.207a5.41 5.41 0 001.564-.667l1.058 2.668a6.8 6.8 0 01-2.024.92 9.002 9.002 0 01-2.438.322zM58.012 17V8.49a27.787 27.787 0 00-.184-3.174h3.956l.23 2.024h-.253a3.925 3.925 0 011.633-1.679c.706-.399 1.503-.598 2.392-.598 1.365 0 2.385.406 3.06 1.219.69.797 1.034 2.047 1.034 3.749V17h-4.094v-6.785c0-.751-.13-1.273-.39-1.564-.261-.307-.637-.46-1.128-.46-.644 0-1.165.215-1.564.644-.398.414-.598.966-.598 1.656V17h-4.094zm19.206.253c-.996 0-1.886-.238-2.668-.713-.782-.49-1.395-1.196-1.84-2.116-.444-.92-.667-2.009-.667-3.266 0-1.273.215-2.361.644-3.266.445-.92 1.058-1.618 1.84-2.093.798-.49 1.695-.736 2.691-.736.89 0 1.695.207 2.415.621.72.399 1.204.935 1.45 1.61h-.346V.072h4.094V17h-4.025v-2.093h.3c-.215.705-.69 1.273-1.427 1.702-.72.43-1.54.644-2.46.644zm1.311-3.036c.675 0 1.227-.238 1.656-.713.445-.49.667-1.273.667-2.346 0-1.073-.222-1.848-.667-2.323-.43-.49-.981-.736-1.656-.736-.69 0-1.257.245-1.702.736-.43.475-.644 1.25-.644 2.323s.215 1.855.644 2.346c.445.475 1.012.713 1.702.713zm15.239 3.036c-2.116 0-3.764-.544-4.945-1.633-1.165-1.089-1.748-2.584-1.748-4.485 0-1.18.245-2.231.736-3.151a5.249 5.249 0 012.07-2.139c.89-.521 1.932-.782 3.128-.782 1.18 0 2.162.26 2.944.782.797.506 1.395 1.211 1.794 2.116.399.89.598 1.924.598 3.105v.874h-7.843v-1.932h4.83l-.391.322c0-.874-.169-1.518-.506-1.932-.322-.43-.782-.644-1.38-.644-.69 0-1.219.26-1.587.782-.353.506-.529 1.273-.529 2.3v.414c0 1.027.253 1.779.759 2.254.506.475 1.234.713 2.185.713.613 0 1.188-.069 1.725-.207a5.41 5.41 0 001.564-.667l1.058 2.668a6.803 6.803 0 01-2.024.92 9.003 9.003 0 01-2.438.322zm18.235 0c-1.012 0-1.901-.238-2.668-.713-.767-.49-1.372-1.196-1.817-2.116-.429-.92-.644-2.009-.644-3.266 0-1.273.215-2.361.644-3.266.445-.92 1.05-1.618 1.817-2.093.767-.49 1.656-.736 2.668-.736.905 0 1.717.215 2.438.644.736.43 1.219.989 1.449 1.679h-.23l.253-2.07h3.933l-.138 1.587a27.514 27.514 0 00-.046 1.587V17h-4.048l-.046-1.978h.276c-.23.675-.713 1.219-1.449 1.633a4.859 4.859 0 01-2.392.598zm1.311-3.036c.69 0 1.25-.238 1.679-.713.429-.49.644-1.273.644-2.346 0-1.073-.215-1.848-.644-2.323-.429-.49-.989-.736-1.679-.736-.69 0-1.25.245-1.679.736-.429.475-.644 1.25-.644 2.323s.207 1.855.621 2.346c.429.475.997.713 1.702.713zM2.265 48V36.316h4.094V48H2.265zm-.092-13.34v-3.68h4.301v3.68H2.173zm11.594 13.593c-.997 0-1.886-.238-2.668-.713-.782-.49-1.395-1.196-1.84-2.116-.445-.92-.667-2.009-.667-3.266 0-1.273.215-2.361.644-3.266.445-.92 1.058-1.618 1.84-2.093.797-.49 1.694-.736 2.691-.736.89 0 1.694.207 2.415.621.72.399 1.204.935 1.449 1.61h-.345v-7.222h4.094V48h-4.025v-2.093h.299c-.215.705-.69 1.273-1.426 1.702-.72.43-1.541.644-2.461.644zm1.311-3.036c.675 0 1.227-.238 1.656-.713.445-.49.667-1.273.667-2.346 0-1.073-.222-1.848-.667-2.323-.43-.49-.981-.736-1.656-.736-.69 0-1.257.245-1.702.736-.43.475-.644 1.25-.644 2.323s.215 1.855.644 2.346c.445.475 1.012.713 1.702.713zm15.239 3.036c-2.116 0-3.765-.544-4.945-1.633-1.166-1.089-1.748-2.584-1.748-4.485 0-1.18.245-2.231.736-3.151a5.25 5.25 0 012.07-2.139c.89-.521 1.932-.782 3.128-.782 1.18 0 2.162.26 2.944.782.797.506 1.395 1.211 1.794 2.116.398.89.598 1.924.598 3.105v.874H27.05v-1.932h4.83l-.391.322c0-.874-.169-1.518-.506-1.932-.322-.43-.782-.644-1.38-.644-.69 0-1.22.26-1.587.782-.353.506-.53 1.273-.53 2.3v.414c0 1.027.254 1.779.76 2.254.506.475 1.234.713 2.185.713.613 0 1.188-.069 1.725-.207a5.41 5.41 0 001.564-.667l1.058 2.668a6.8 6.8 0 01-2.024.92 9.002 9.002 0 01-2.438.322zM37.073 48v-8.51a27.88 27.88 0 00-.184-3.174h3.956l.23 2.024h-.253a3.924 3.924 0 011.633-1.679c.706-.399 1.503-.598 2.392-.598 1.365 0 2.384.406 3.06 1.219.69.797 1.034 2.047 1.034 3.749V48h-4.094v-6.785c0-.751-.13-1.273-.39-1.564-.261-.307-.637-.46-1.128-.46-.644 0-1.165.215-1.564.644-.398.414-.598.966-.598 1.656V48h-4.094zm20.54.253c-1.656 0-2.905-.391-3.749-1.173-.828-.797-1.242-2.001-1.242-3.611v-4.14h-2.185v-3.013h2.185v-2.76l4.094-.966v3.726h2.852v3.013h-2.852v3.979c0 .675.154 1.127.46 1.357.307.215.675.322 1.104.322.26 0 .483-.015.667-.046.2-.046.407-.107.621-.184v3.151c-.337.138-.674.23-1.012.276a6.665 6.665 0 01-.943.069zM61.387 48V36.316h4.094V48h-4.094zm-.092-13.34v-3.68h4.3v3.68h-4.3zM69.232 48v-8.671h-2.185v-3.013h3.335l-1.15 1.058v-1.587c0-1.61.414-2.814 1.242-3.611.828-.797 2.039-1.196 3.634-1.196.398 0 .812.023 1.242.069.429.046.812.138 1.15.276v3.128a3.263 3.263 0 00-.736-.161 4.895 4.895 0 00-.805-.069c-.46 0-.851.123-1.173.368-.322.23-.483.667-.483 1.311v1.035l-.575-.621h8.878V48h-4.094v-8.671h-4.186V48h-4.094zm8.165-13.34v-3.68h4.3v3.68h-4.3zm12.889 13.593c-1.288 0-2.415-.245-3.381-.736a5.407 5.407 0 01-2.254-2.093c-.537-.92-.805-2.016-.805-3.289 0-1.273.268-2.361.805-3.266a5.26 5.26 0 012.254-2.07c.966-.49 2.093-.736 3.381-.736.797 0 1.58.107 2.346.322.767.215 1.388.521 1.863.92l-1.15 2.783a3.754 3.754 0 00-1.265-.69 3.924 3.924 0 00-1.357-.253c-.843 0-1.503.253-1.978.759-.46.506-.69 1.25-.69 2.231 0 .981.23 1.733.69 2.254.475.506 1.135.759 1.978.759.43 0 .882-.077 1.357-.23a4.38 4.38 0 001.265-.69l1.15 2.783c-.49.383-1.12.69-1.886.92a8.413 8.413 0 01-2.323.322zm10.711 0c-1.012 0-1.901-.238-2.668-.713-.767-.49-1.372-1.196-1.817-2.116-.43-.92-.644-2.009-.644-3.266 0-1.273.215-2.361.644-3.266.445-.92 1.05-1.618 1.817-2.093.767-.49 1.656-.736 2.668-.736.905 0 1.717.215 2.438.644.736.43 1.219.989 1.449 1.679h-.23l.253-2.07h3.933l-.138 1.587a27.516 27.516 0 00-.046 1.587V48h-4.048l-.046-1.978h.276c-.23.675-.713 1.219-1.449 1.633a4.859 4.859 0 01-2.392.598zm1.311-3.036c.69 0 1.25-.238 1.679-.713.429-.49.644-1.273.644-2.346 0-1.073-.215-1.848-.644-2.323-.429-.49-.989-.736-1.679-.736-.69 0-1.25.245-1.679.736-.429.475-.644 1.25-.644 2.323s.207 1.855.621 2.346c.429.475.997.713 1.702.713zM111.429 48v-8.487a27.098 27.098 0 00-.184-3.197h3.956l.437 3.588h-.621c.153-.874.398-1.595.736-2.162.337-.567.759-.989 1.265-1.265.506-.276 1.104-.414 1.794-.414.322 0 .559.015.713.046.168.015.345.061.529.138v3.588c-.384-.169-.69-.276-.92-.322a4.73 4.73 0 00-.897-.069c-.629 0-1.143.115-1.541.345-.399.215-.69.552-.874 1.012-.169.46-.253 1.05-.253 1.771V48h-4.14zm17.015 5.221l-.966-3.174a13.347 13.347 0 001.84-.46c.506-.153.92-.368 1.242-.644.322-.276.575-.636.759-1.081l.575-1.334-.092 1.541-5.106-11.753h4.324l2.99 7.751h-.759l3.082-7.751h4.048l-5.244 11.937c-.414.935-.859 1.702-1.334 2.3-.46.598-.966 1.073-1.518 1.426a5.945 5.945 0 01-1.771.782c-.629.184-1.319.337-2.07.46zM2.265 79v-8.487a28.212 28.212 0 00-.184-3.197h3.956l.437 3.588h-.621c.153-.874.399-1.595.736-2.162.337-.567.759-.989 1.265-1.265.506-.276 1.104-.414 1.794-.414.322 0 .56.015.713.046a1.8 1.8 0 01.529.138v3.588c-.383-.169-.69-.276-.92-.322a4.73 4.73 0 00-.897-.069c-.629 0-1.142.115-1.541.345-.399.215-.69.552-.874 1.012-.169.46-.253 1.05-.253 1.771V79h-4.14zm16.052.253c-2.116 0-3.764-.544-4.945-1.633-1.165-1.089-1.748-2.584-1.748-4.485 0-1.18.245-2.231.736-3.151a5.25 5.25 0 012.07-2.139c.89-.521 1.932-.782 3.128-.782 1.18 0 2.162.26 2.944.782.797.506 1.396 1.211 1.794 2.116.399.89.598 1.924.598 3.105v.874h-7.843v-1.932h4.83l-.39.322c0-.874-.17-1.518-.507-1.932-.322-.43-.782-.644-1.38-.644-.69 0-1.219.26-1.587.782-.352.506-.529 1.273-.529 2.3v.414c0 1.027.253 1.779.76 2.254.505.475 1.233.713 2.184.713.614 0 1.189-.069 1.725-.207a5.41 5.41 0 001.564-.667l1.058 2.668a6.802 6.802 0 01-2.024.92 9.002 9.002 0 01-2.438.322zm6.757 4.715V70.49a27.789 27.789 0 00-.184-3.174h3.956l.253 2.07h-.23c.214-.69.69-1.25 1.426-1.679.736-.43 1.556-.644 2.46-.644 1.013 0 1.902.245 2.669.736.766.475 1.364 1.173 1.794 2.093.444.905.667 1.993.667 3.266 0 1.257-.223 2.346-.667 3.266-.43.92-1.028 1.625-1.794 2.116-.767.475-1.656.713-2.668.713-.89 0-1.695-.2-2.415-.598-.721-.414-1.196-.958-1.426-1.633h.253v6.946h-4.094zm6.37-7.751c.706 0 1.266-.238 1.68-.713.429-.49.644-1.273.644-2.346 0-1.073-.215-1.848-.644-2.323-.414-.49-.974-.736-1.68-.736-.69 0-1.249.245-1.678.736-.43.475-.644 1.25-.644 2.323s.214 1.855.644 2.346c.429.475.989.713 1.679.713zm14.503 3.036c-1.303 0-2.43-.245-3.38-.736a5.29 5.29 0 01-2.209-2.093c-.52-.92-.782-2.009-.782-3.266 0-1.273.261-2.361.782-3.266a5.29 5.29 0 012.208-2.093c.951-.49 2.078-.736 3.381-.736 1.288 0 2.408.245 3.358.736a5.25 5.25 0 012.208 2.116c.522.905.782 1.986.782 3.243 0 1.242-.26 2.323-.782 3.243a5.25 5.25 0 01-2.208 2.116c-.95.49-2.07.736-3.358.736zm0-3.036c.675 0 1.212-.238 1.61-.713.4-.49.598-1.273.598-2.346 0-1.073-.199-1.848-.598-2.323-.398-.49-.935-.736-1.61-.736-.69 0-1.234.245-1.633.736-.398.475-.598 1.25-.598 2.323s.2 1.855.598 2.346c.4.475.943.713 1.633.713zM54.531 79v-8.487a28.185 28.185 0 00-.184-3.197h3.956l.437 3.588h-.621c.153-.874.398-1.595.736-2.162.337-.567.759-.989 1.265-1.265.506-.276 1.104-.414 1.794-.414.322 0 .56.015.713.046a1.8 1.8 0 01.529.138v3.588c-.384-.169-.69-.276-.92-.322a4.73 4.73 0 00-.897-.069c-.629 0-1.143.115-1.541.345-.399.215-.69.552-.874 1.012-.169.46-.253 1.05-.253 1.771V79h-4.14zm16.744.253c-1.656 0-2.906-.391-3.75-1.173-.827-.797-1.241-2.001-1.241-3.611v-4.14h-2.185v-3.013h2.185v-2.76l4.094-.966v3.726h2.852v3.013h-2.852v3.979c0 .675.153 1.127.46 1.357.307.215.675.322 1.104.322.26 0 .483-.015.667-.046.2-.046.406-.107.62-.184v3.151c-.336.138-.674.23-1.011.276a6.665 6.665 0 01-.943.069zm8.373 0c-1.012 0-1.901-.238-2.668-.713-.766-.49-1.372-1.196-1.817-2.116-.429-.92-.644-2.009-.644-3.266 0-1.273.215-2.361.644-3.266.445-.92 1.05-1.618 1.817-2.093.767-.49 1.656-.736 2.668-.736.905 0 1.718.215 2.438.644.736.43 1.22.989 1.45 1.679h-.23l.252-2.07h3.933l-.138 1.587a27.88 27.88 0 00-.046 1.587V79H83.26l-.046-1.978h.276c-.23.675-.713 1.219-1.449 1.633a4.858 4.858 0 01-2.392.598zm1.311-3.036c.69 0 1.25-.238 1.68-.713.429-.49.643-1.273.643-2.346 0-1.073-.214-1.848-.644-2.323-.429-.49-.989-.736-1.679-.736-.69 0-1.25.245-1.679.736-.429.475-.644 1.25-.644 2.323s.207 1.855.621 2.346c.43.475.997.713 1.702.713zM90.08 79v-8.487a28.277 28.277 0 00-.184-3.197h3.956l.437 3.588h-.62c.152-.874.398-1.595.735-2.162.337-.567.76-.989 1.265-1.265.506-.276 1.104-.414 1.794-.414.322 0 .56.015.713.046.169.015.345.061.53.138v3.588c-.384-.169-.69-.276-.92-.322a4.73 4.73 0 00-.898-.069c-.629 0-1.142.115-1.54.345-.4.215-.69.552-.875 1.012-.169.46-.253 1.05-.253 1.771V79h-4.14zm23.133.253c-2.116 0-3.764-.544-4.945-1.633-1.165-1.089-1.748-2.584-1.748-4.485 0-1.18.245-2.231.736-3.151a5.254 5.254 0 012.07-2.139c.889-.521 1.932-.782 3.128-.782 1.181 0 2.162.26 2.944.782.797.506 1.395 1.211 1.794 2.116.399.89.598 1.924.598 3.105v.874h-7.843v-1.932h4.83l-.391.322c0-.874-.169-1.518-.506-1.932-.322-.43-.782-.644-1.38-.644-.69 0-1.219.26-1.587.782-.353.506-.529 1.273-.529 2.3v.414c0 1.027.253 1.779.759 2.254.506.475 1.234.713 2.185.713.613 0 1.188-.069 1.725-.207a5.414 5.414 0 001.564-.667l1.058 2.668a6.802 6.802 0 01-2.024.92 9.002 9.002 0 01-2.438.322zm6.756-.253V62.072h4.094V79h-4.094zM3.254 110v-8.671H1.069v-3.013h3.335l-1.15 1.058v-1.587c0-1.61.422-2.814 1.265-3.611.843-.797 2.116-1.196 3.818-1.196.383 0 .79.023 1.219.069.43.046.813.138 1.15.276v3.128a3.263 3.263 0 00-.736-.161 4.894 4.894 0 00-.805-.069c-.307 0-.606.054-.897.161-.276.092-.506.26-.69.506-.169.245-.253.583-.253 1.012v1.035l-.575-.621h3.404v3.013H7.348V110H3.254zm8.54 0v-8.487a28.185 28.185 0 00-.184-3.197h3.956l.437 3.588h-.621c.153-.874.399-1.595.736-2.162.337-.567.759-.989 1.265-1.265.506-.276 1.104-.414 1.794-.414.322 0 .56.015.713.046a1.8 1.8 0 01.529.138v3.588c-.384-.169-.69-.276-.92-.322a4.73 4.73 0 00-.897-.069c-.629 0-1.143.115-1.541.345-.399.215-.69.552-.874 1.012-.169.46-.253 1.05-.253 1.771V110h-4.14zm14.578.253c-1.012 0-1.901-.238-2.668-.713-.767-.491-1.373-1.196-1.817-2.116-.43-.92-.644-2.009-.644-3.266 0-1.273.215-2.361.644-3.266.444-.92 1.05-1.618 1.817-2.093.767-.49 1.656-.736 2.668-.736.904 0 1.717.215 2.438.644.736.43 1.219.989 1.449 1.679h-.23l.253-2.07h3.933l-.138 1.587c-.03.537-.046 1.066-.046 1.587V110h-4.048l-.046-1.978h.276c-.23.675-.713 1.219-1.45 1.633a4.855 4.855 0 01-2.391.598zm1.31-3.036c.69 0 1.25-.238 1.68-.713.43-.491.644-1.273.644-2.346 0-1.073-.215-1.848-.644-2.323-.43-.491-.99-.736-1.68-.736s-1.249.245-1.678.736c-.43.475-.644 1.25-.644 2.323s.207 1.855.62 2.346c.43.475.997.713 1.703.713zm13.423 3.036c-1.488 0-2.592-.406-3.312-1.219-.706-.828-1.058-2.078-1.058-3.749v-6.969h4.094v6.992c0 .613.122 1.073.368 1.38.26.291.651.437 1.173.437.582 0 1.058-.207 1.426-.621.383-.429.575-.989.575-1.679v-6.509h4.094V110h-3.98v-2.093h.346c-.368.751-.867 1.334-1.495 1.748-.629.399-1.373.598-2.231.598zm14.792 0c-.996 0-1.886-.238-2.668-.713-.782-.491-1.395-1.196-1.84-2.116-.444-.92-.667-2.009-.667-3.266 0-1.273.215-2.361.644-3.266.445-.92 1.058-1.618 1.84-2.093.798-.49 1.695-.736 2.691-.736.89 0 1.695.207 2.415.621.721.399 1.204.935 1.45 1.61h-.346v-7.222h4.094V110h-4.025v-2.093h.3c-.215.705-.69 1.273-1.427 1.702-.72.429-1.54.644-2.46.644zm1.311-3.036c.675 0 1.227-.238 1.656-.713.445-.491.667-1.273.667-2.346 0-1.073-.222-1.848-.667-2.323-.429-.491-.98-.736-1.656-.736-.69 0-1.257.245-1.702.736-.429.475-.644 1.25-.644 2.323s.215 1.855.644 2.346c.445.475 1.012.713 1.702.713zm15.24 3.036c-2.117 0-3.765-.544-4.946-1.633-1.165-1.089-1.748-2.584-1.748-4.485 0-1.181.245-2.231.736-3.151a5.249 5.249 0 012.07-2.139c.89-.521 1.932-.782 3.128-.782 1.18 0 2.162.26 2.944.782.797.506 1.395 1.211 1.794 2.116.399.889.598 1.924.598 3.105v.874h-7.843v-1.932h4.83l-.39.322c0-.874-.17-1.518-.507-1.932-.322-.429-.782-.644-1.38-.644-.69 0-1.219.261-1.587.782-.353.506-.529 1.273-.529 2.3v.414c0 1.027.253 1.779.76 2.254.505.475 1.234.713 2.184.713.614 0 1.189-.069 1.725-.207a5.402 5.402 0 001.564-.667l1.058 2.668a6.803 6.803 0 01-2.024.92 8.991 8.991 0 01-2.438.322zm6.48-.253v-4.186h4.255V110h-4.255z" fill="#fff"/></svg>