<svg width="159" height="77" viewBox="0 0 159 77" fill="none" xmlns="http://www.w3.org/2000/svg"><path d="M5.525 18.35c0 1.275-.7 1.95-2.125 1.95-1.45 0-2.15-.65-2.15-1.95 0-1.275.7-1.95 2.15-1.95 1.4 0 2.125.675 2.125 1.95zm7.037 0c0 1.275-.7 1.95-2.125 1.95-1.45 0-2.15-.65-2.15-1.95 0-1.275.7-1.95 2.15-1.95 1.4 0 2.125.675 2.125 1.95zm7.037 0c0 1.275-.7 1.95-2.125 1.95-1.45 0-2.15-.65-2.15-1.95 0-1.275.7-1.95 2.15-1.95 1.4 0 2.125.675 2.125 1.95zm15.616.3l-.125-.025c-.95.925-2.2 1.675-4.2 1.675-3.15 0-3.65-2.15-3.65-3.7 0-2.5 1.525-3.625 4.675-3.85l2.875-.2v-1.375c0-1.175-.125-1.975-1.675-1.975-1.2 0-1.825.175-1.825 1.675l-3.525-.3c0-3.375 3.075-3.85 5.375-3.85 3.8 0 5.325 1.025 5.325 4.525v6.075c0 .4.025.45.4.5l1.2.2V20h-4.6l-.25-1.35zm-2.125-3.9c-1.475.1-2 .475-2 1.475s.6 1.375 1.425 1.375c.85 0 1.7-.475 2.275-.9v-2.075l-1.7.125zm24.77 4.325c-1.15.7-2.925 1.225-4.75 1.225-4.525 0-6.55-2.825-6.55-6.625 0-4.675 2.85-6.95 6.85-6.95 1.95 0 3.675.55 4.45 1.05V11.7l-2.675-.125-.3-1.65c-.025-.175-.075-.325-.3-.4-.3-.1-.775-.175-1.275-.175-1.5 0-2.775 1.025-2.775 3.95 0 3.25 1.45 4.175 3.225 4.175 1.25 0 2.375-.4 3.125-.725l.975 2.325zm9.477-.425l-.125-.025c-.95.925-2.2 1.675-4.2 1.675-3.15 0-3.65-2.15-3.65-3.7 0-2.5 1.525-3.625 4.675-3.85l2.875-.2v-1.375c0-1.175-.125-1.975-1.675-1.975-1.2 0-1.825.175-1.825 1.675l-3.525-.3c0-3.375 3.075-3.85 5.375-3.85 3.8 0 5.325 1.025 5.325 4.525v6.075c0 .4.025.45.4.5l1.2.2V20h-4.6l-.25-1.35zm-2.125-3.9c-1.475.1-2 .475-2 1.475s.6 1.375 1.425 1.375c.85 0 1.7-.475 2.275-.9v-2.075l-1.7.125zm23.966-2.825c0-.975-.1-2.15-1.4-2.15-.7 0-1.375.25-2.025.675.05.4.075.8.075 1.225v5.675c0 .425.025.475.4.525l1 .15V20h-5.175v-8.2c0-.925-.075-2.025-1.325-2.025-.75 0-1.575.375-2.075.8v6.775c0 .4.025.45.4.5l1.225.175V20h-6.925v-1.975l1.125-.175c.35-.05.4-.125.4-.5V10c0-.275-.075-.45-.325-.525L73.203 9l.275-2.025h4.4l.2 1.3.125.025c1.125-.925 2.4-1.575 4-1.575 1.225 0 2.35.325 3.05 1.5.825-.65 2.275-1.5 4.025-1.5 2.675 0 3.675 1.325 3.675 4.225v6.4c0 .4.025.475.4.525l1.25.15V20h-5.425v-8.075zM96.72 20c.175-1.125.375-2.425.375-3.65V4.15c0-.275-.075-.45-.325-.525l-1.375-.475.275-2.025h5.15V8.05l.1.025c1.075-.875 2.25-1.35 3.775-1.35 2.7 0 4.825 1.75 4.825 6.4 0 5.15-2.175 7.175-5.25 7.175-1.65 0-2.9-.7-3.675-1.575l-.125.025-.175 1.25H96.72zm4.125-3.6c.575.525 1.425.975 2.3.975 1.65 0 2.425-1.55 2.425-4.05 0-1.95-.625-3.65-2.3-3.65-.9 0-1.825.475-2.425.875v5.85zm15.687-13.675c0 1.425-.825 2.25-2.275 2.25-1.425 0-2.25-.825-2.25-2.25s.825-2.2 2.25-2.2c1.45 0 2.275.775 2.275 2.2zm-5.5 15.3l1.275-.175c.35-.05.4-.125.4-.5V10c0-.275-.075-.45-.325-.525L111.032 9l.275-2.025h5.175V17.35c0 .4.025.45.4.5l1.275.175V20h-7.125v-1.975zm14.76 2.275c-4.575 0-6.425-2.8-6.425-6.725 0-4.15 2.175-6.85 6.75-6.85 4.625 0 6.425 2.75 6.425 6.575 0 4.25-2.15 7-6.75 7zm.175-2.625c1.625 0 2.625-1.125 2.625-4.25 0-2.95-.9-4-2.525-4-1.65 0-2.75 1.025-2.75 4.025 0 3.025.975 4.225 2.65 4.225zM10 46.6l-.175-.025C8.775 47.6 7.55 48.3 5.725 48.3c-2.95 0-4.85-1.875-4.85-6.65 0-5.025 2.525-6.925 5.3-6.925 1.45 0 2.575.5 3.525 1.2v-3.8c0-.25-.1-.425-.325-.5L8 31.15l.275-2.025H13.3v16.25c0 .375.025.425.4.475l1.2.175V48h-4.65L10 46.6zm-.45-8.225c-.625-.425-1.425-.75-2.15-.75-1.85 0-2.575 1.725-2.575 3.95 0 2.425.7 3.775 2.275 3.775.85 0 1.775-.5 2.45-1.075v-5.9zm18.063 8.65c-1.55.75-3.25 1.275-5.125 1.275-4.825 0-6.475-3-6.475-6.9 0-4.525 2.775-6.675 6.2-6.675 3.3 0 5.5 1.725 5.5 6.05 0 .3-.025 1.175-.05 1.675h-7.65c.125 1.775.9 2.95 2.95 2.95.975 0 2.025-.225 3.725-.85l.925 2.475zm-3.6-6.95c-.025-2.1-.85-2.65-1.875-2.65-1.075 0-1.95.6-2.1 2.65h3.975zM44.35 47.3c-1.075.525-2.65 1-4.075 1-2.975 0-4.1-1.2-4.1-4.025v-6.55c0-.15 0-.25-.2-.25h-1.75V35.25c2.2-.25 3.075-1.35 3.35-4.075h2.375v3.55c0 .175 0 .25.2.25h3.525v2.5h-3.725v5.975c0 1.475.35 2.05 1.7 2.05.7 0 1.425-.175 2.025-.4l.675 2.2zm10.528-.65l-.125-.025c-1.025.775-2.325 1.675-4.45 1.675-2.625 0-3.625-1.5-3.625-4.4v-6.1c0-.4-.025-.45-.4-.525l-1.2-.25.25-2.05h5.125v8.275c0 1.525.25 2.1 1.325 2.1 1.1 0 2-.625 2.575-1.15v-6.425c0-.4-.025-.425-.4-.5l-1.075-.25.275-2.05h4.975V45.35c0 .325.05.425.35.475l1.25.175v2h-4.65l-.2-1.35zm20.705-6.725c0-1.2-.075-2.2-1.325-2.2-.925 0-2.075.525-2.6.925v6.7c0 .4.025.45.4.5l1.2.175V48h-6.9v-2l1.125-.15c.35-.05.4-.125.4-.5V38c0-.275-.075-.45-.325-.525L66.209 37l.3-2.025h4.375l.2 1.3.1.05c1.25-.925 2.7-1.6 4.4-1.6 2.725 0 3.775 1.5 3.775 4.25v6.375c0 .4.025.45.4.5l1.25.175V48h-5.425v-8.075zm16.031 6.725l-.125-.025c-1.025.775-2.325 1.675-4.45 1.675-2.625 0-3.625-1.5-3.625-4.4v-6.1c0-.4-.025-.45-.4-.525l-1.2-.25.25-2.05h5.125v8.275c0 1.525.25 2.1 1.325 2.1 1.1 0 2-.625 2.575-1.15v-6.425c0-.4-.025-.425-.4-.5l-1.075-.25.275-2.05h4.975V45.35c0 .325.05.425.35.475l1.25.175v2h-4.65l-.2-1.35zm-5.2-13.925l3.825-4.35 2.05 1.95-4.475 3.65-1.4-1.25zm27.202 7.2c0-.975-.1-2.15-1.4-2.15-.7 0-1.375.25-2.025.675.05.4.075.8.075 1.225v5.675c0 .425.025.475.4.525l1 .15V48h-5.175v-8.2c0-.925-.075-2.025-1.325-2.025-.75 0-1.575.375-2.075.8v6.775c0 .4.025.45.4.5l1.225.175V48h-6.925v-1.975l1.125-.175c.35-.05.4-.125.4-.5V38c0-.275-.075-.45-.325-.525L97.642 37l.275-2.025h4.4l.2 1.3.125.025c1.125-.925 2.4-1.575 4-1.575 1.225 0 2.35.325 3.05 1.5.825-.65 2.275-1.5 4.025-1.5 2.675 0 3.675 1.325 3.675 4.225v6.4c0 .4.025.475.4.525l1.25.15V48h-5.425v-8.075zm18.266 7.1c-1.55.75-3.25 1.275-5.125 1.275-4.825 0-6.475-3-6.475-6.9 0-4.525 2.775-6.675 6.2-6.675 3.3 0 5.5 1.725 5.5 6.05 0 .3-.025 1.175-.05 1.675h-7.65c.125 1.775.9 2.95 2.95 2.95.975 0 2.025-.225 3.725-.85l.925 2.475zm-3.6-6.95c-.025-2.1-.85-2.65-1.875-2.65-1.075 0-1.95.6-2.1 2.65h3.975zm5.36 5.9l1.125-.15c.35-.05.4-.125.4-.5V38c0-.275-.075-.45-.325-.525l-1.35-.475.275-2.025h4.4l.3 2h.15c.825-1.275 1.925-2.25 3.525-2.25.575 0 1.725.1 2.175.225v4.55l-3-.1-.25-1.325c-.05-.225-.125-.275-.325-.275-.65 0-1.425.55-1.8.875V45.3c0 .4.025.475.4.5l2.475.2v2h-8.175v-2.025zm18.395 2.325c-4.575 0-6.425-2.8-6.425-6.725 0-4.15 2.175-6.85 6.75-6.85 4.625 0 6.425 2.75 6.425 6.575 0 4.25-2.15 7-6.75 7zm.175-2.625c1.625 0 2.625-1.125 2.625-4.25 0-2.95-.9-4-2.525-4-1.65 0-2.75 1.025-2.75 4.025 0 3.025.975 4.225 2.65 4.225zM10 74.6l-.175-.025C8.775 75.6 7.55 76.3 5.725 76.3c-2.95 0-4.85-1.875-4.85-6.65 0-5.025 2.525-6.925 5.3-6.925 1.45 0 2.575.5 3.525 1.2v-3.8c0-.25-.1-.425-.325-.5L8 59.15l.275-2.025H13.3v16.25c0 .375.025.425.4.475l1.2.175V76h-4.65L10 74.6zm-.45-8.225c-.625-.425-1.425-.75-2.15-.75-1.85 0-2.575 1.725-2.575 3.95 0 2.425.7 3.775 2.275 3.775.85 0 1.775-.5 2.45-1.075v-5.9zm18.063 8.65c-1.55.75-3.25 1.275-5.125 1.275-4.825 0-6.475-3-6.475-6.9 0-4.525 2.775-6.675 6.2-6.675 3.3 0 5.5 1.725 5.5 6.05 0 .3-.025 1.175-.05 1.675h-7.65c.125 1.775.9 2.95 2.95 2.95.975 0 2.025-.225 3.725-.85l.925 2.475zm-3.6-6.95c-.025-2.1-.85-2.65-1.875-2.65-1.075 0-1.95.6-2.1 2.65h3.975zm24.963 5.975l2.05-.175c.375-.025.4-.15.4-.5v-9.5h-.1L47.751 72.4h-4.075l-3.525-8.55h-.125v9.5c0 .4.05.475.4.5l2.15.2V76h-7.6v-1.95l1.575-.175c.35-.05.4-.125.4-.5V60.55c0-.375-.05-.45-.4-.5l-1.575-.175V57.9h6.7l4.35 11.325h.1L50.701 57.9h6.5v1.95l-1.675.2c-.375.05-.4.1-.4.475v12.85c0 .325.075.425.4.475l1.675.2V76h-8.225v-1.95zm21.38.975c-1.55.75-3.25 1.275-5.126 1.275-4.825 0-6.475-3-6.475-6.9 0-4.525 2.775-6.675 6.2-6.675 3.3 0 5.5 1.725 5.5 6.05 0 .3-.025 1.175-.05 1.675h-7.65c.125 1.775.9 2.95 2.95 2.95.975 0 2.025-.225 3.725-.85l.925 2.475zm-3.6-6.95c-.026-2.1-.85-2.65-1.876-2.65-1.075 0-1.95.6-2.1 2.65h3.975zM81.391 74.6l-.175-.025c-1.05 1.025-2.275 1.725-4.1 1.725-2.95 0-4.85-1.875-4.85-6.65 0-5.025 2.525-6.925 5.3-6.925 1.45 0 2.575.5 3.525 1.2v-3.8c0-.25-.1-.425-.325-.5l-1.375-.475.275-2.025h5.025v16.25c0 .375.025.425.4.475l1.2.175V76h-4.65l-.25-1.4zm-.45-8.225c-.625-.425-1.425-.75-2.15-.75-1.85 0-2.575 1.725-2.575 3.95 0 2.425.7 3.775 2.275 3.775.85 0 1.775-.5 2.45-1.075v-5.9zm11.983-7.65c0 1.425-.825 2.25-2.275 2.25-1.425 0-2.25-.825-2.25-2.25s.825-2.2 2.25-2.2c1.45 0 2.275.775 2.275 2.2zm-5.5 15.3l1.275-.175c.35-.05.4-.125.4-.5V66c0-.275-.075-.45-.325-.525L87.425 65l.275-2.025h5.175V73.35c0 .4.025.45.4.5l1.275.175V76h-7.125v-1.975zm19.635 1.05c-1.15.7-2.925 1.225-4.75 1.225-4.525 0-6.55-2.825-6.55-6.625 0-4.675 2.85-6.95 6.85-6.95 1.95 0 3.675.55 4.45 1.05V67.7l-2.675-.125-.3-1.65c-.025-.175-.075-.325-.3-.4-.3-.1-.775-.175-1.275-.175-1.5 0-2.775 1.025-2.775 3.95 0 3.25 1.45 4.175 3.225 4.175 1.25 0 2.375-.4 3.125-.725l.975 2.325zm9.477-.425l-.125-.025c-.95.925-2.2 1.675-4.2 1.675-3.15 0-3.65-2.15-3.65-3.7 0-2.5 1.525-3.625 4.675-3.85l2.875-.2v-1.375c0-1.175-.125-1.975-1.675-1.975-1.2 0-1.825.175-1.825 1.675l-3.525-.3c0-3.375 3.075-3.85 5.375-3.85 3.8 0 5.325 1.025 5.325 4.525v6.075c0 .4.025.45.4.5l1.2.2V76h-4.6l-.25-1.35zm-2.125-3.9c-1.475.1-2 .475-2 1.475s.6 1.375 1.425 1.375c.85 0 1.7-.475 2.275-.9v-2.075l-1.7.125zm8.141 3.225l1.125-.15c.35-.05.4-.125.4-.5V66c0-.275-.075-.45-.325-.525l-1.35-.475.275-2.025h4.4l.3 2h.15c.825-1.275 1.925-2.25 3.525-2.25.575 0 1.725.1 2.175.225v4.55l-3-.1-.25-1.325c-.05-.225-.125-.275-.325-.275-.65 0-1.425.55-1.8.875V73.3c0 .4.025.475.4.5l2.475.2v2h-8.175v-2.025zm23.57 1.05c-1.55.75-3.25 1.275-5.125 1.275-4.825 0-6.475-3-6.475-6.9 0-4.525 2.775-6.675 6.2-6.675 3.3 0 5.5 1.725 5.5 6.05 0 .3-.025 1.175-.05 1.675h-7.65c.125 1.775.9 2.95 2.95 2.95.975 0 2.025-.225 3.725-.85l.925 2.475zm-3.6-6.95c-.025-2.1-.85-2.65-1.875-2.65-1.075 0-1.95.6-2.1 2.65h3.975zm10.112 6.275c0 1.275-.7 1.95-2.125 1.95-1.45 0-2.15-.65-2.15-1.95 0-1.275.7-1.95 2.15-1.95 1.4 0 2.125.675 2.125 1.95z" fill="#2B3D51"/></svg>