<svg width="129" height="142" viewBox="0 0 129 142" fill="none" xmlns="http://www.w3.org/2000/svg"><path d="M11.88 18.894l2.214-.243-.972-2.808H6.426l-.945 2.808 2.133.243V21H.081v-2.106l1.188-.297c.324-.081.567-.189.675-.513L7.857 1.452h4.779l5.886 16.686c.108.324.324.378.648.459l1.242.297V21H11.88v-2.106zM9.747 5.583l-2.484 7.344h5.049L9.909 5.583h-.162zm11.685 18.981l1.08-.162c.378-.054.486-.162.486-.567V10.2c0-.297-.054-.459-.35-.567l-1.432-.513.297-2.187h4.752l.243 1.377.135.054c1.296-1.053 3.051-1.701 4.59-1.701 3.024 0 5.184 1.89 5.184 6.912 0 3.24-1.107 7.749-5.562 7.749-1.404 0-2.673-.459-3.807-1.35v3.834c0 .432.027.513.432.54l2.754.243v2.133h-8.802v-2.16zm5.616-7.425c.594.513 1.54 1.026 2.538 1.026 1.81 0 2.565-1.728 2.565-4.374 0-2.781-.945-3.915-2.295-3.915-1.134 0-2.214.567-2.808.972v6.291zm11.293 1.674l1.215-.162c.378-.054.432-.135.432-.54V10.2c0-.297-.081-.486-.351-.567l-1.458-.513.297-2.187h4.752l.324 2.16h.162c.89-1.377 2.079-2.43 3.807-2.43.62 0 1.863.108 2.349.243v4.914l-3.24-.108-.27-1.431c-.054-.243-.135-.297-.351-.297-.702 0-1.54.594-1.944.945v7.155c0 .432.027.513.432.54l2.673.216V21h-8.83v-2.187zm25.454 1.134c-1.674.81-3.51 1.377-5.535 1.377-5.21 0-6.992-3.24-6.992-7.452 0-4.887 2.996-7.209 6.696-7.209 3.564 0 5.94 1.863 5.94 6.534 0 .324-.028 1.269-.055 1.809h-8.261c.134 1.917.971 3.186 3.185 3.186 1.053 0 2.188-.243 4.023-.918l1 2.673zm-3.888-7.506c-.026-2.268-.917-2.862-2.024-2.862-1.162 0-2.107.648-2.269 2.862h4.294zm15.752-.162c0-1.296-.08-2.376-1.43-2.376-1 0-2.242.567-2.809.999v7.236c0 .432.027.486.432.54l1.296.189V21h-7.452v-2.16l1.215-.162c.378-.054.432-.135.432-.54V10.2c0-.297-.08-.486-.35-.567l-1.459-.513.324-2.187h4.725l.216 1.404.108.054c1.35-.999 2.916-1.728 4.752-1.728 2.943 0 4.077 1.62 4.077 4.59v6.885c0 .432.027.486.432.54l1.35.189V21H75.66v-8.721zm17.254 7.209l-.19-.027c-1.133 1.107-2.456 1.863-4.427 1.863-3.186 0-5.238-2.025-5.238-7.182 0-5.427 2.727-7.479 5.724-7.479 1.566 0 2.78.54 3.807 1.296V3.855c0-.27-.108-.459-.351-.54l-1.485-.513.297-2.187h5.427v17.55c0 .405.027.459.432.513l1.296.189V21h-5.022l-.27-1.512zm-.486-8.883c-.675-.459-1.54-.81-2.322-.81-1.998 0-2.781 1.863-2.781 4.266 0 2.619.756 4.077 2.457 4.077.918 0 1.917-.54 2.646-1.161v-6.372zm19.508 9.342c-1.674.81-3.51 1.377-5.535 1.377-5.211 0-6.993-3.24-6.993-7.452 0-4.887 2.997-7.209 6.696-7.209 3.564 0 5.94 1.863 5.94 6.534 0 .324-.027 1.269-.054 1.809h-8.262c.135 1.917.972 3.186 3.186 3.186 1.053 0 2.187-.243 4.023-.918l.999 2.673zm-3.888-7.506c-.027-2.268-.918-2.862-2.025-2.862-1.161 0-2.106.648-2.268 2.862h4.293zM8.856 39.768c-.054-.243-.081-.324-.27-.378-.351-.108-.999-.216-1.728-.216-1.35 0-2.106.513-2.106 1.377 0 1.107 1.485 1.35 3.132 1.728 2.133.486 4.536 1.242 4.536 4.401 0 3.294-2.673 4.644-6.102 4.644-2.457 0-4.86-.648-5.346-.972v-3.915l2.889.216.27 1.539c.054.243.081.324.324.405.324.108 1.053.27 2.079.27 1.431 0 2.241-.405 2.241-1.404 0-1.08-1.08-1.404-2.457-1.647-2.268-.405-5.238-.891-5.238-4.428 0-3.348 2.862-4.725 5.967-4.725 2.133 0 4.212.486 4.968.783v3.915l-2.889-.189-.27-1.404zm12.24 11.556c-4.942 0-6.94-3.024-6.94-7.263 0-4.482 2.35-7.398 7.29-7.398 4.995 0 6.94 2.97 6.94 7.101 0 4.59-2.323 7.56-7.29 7.56zm.188-2.835c1.755 0 2.835-1.215 2.835-4.59 0-3.186-.972-4.32-2.727-4.32-1.782 0-2.97 1.107-2.97 4.347 0 3.267 1.053 4.563 2.862 4.563zM30.796 51c.189-1.215.405-2.619.405-3.942V33.882c0-.297-.081-.486-.351-.567l-1.485-.513.297-2.187h5.562v7.479l.108.027c1.161-.945 2.43-1.458 4.077-1.458 2.916 0 5.211 1.89 5.211 6.912 0 5.562-2.349 7.749-5.67 7.749-1.782 0-3.132-.756-3.969-1.701l-.135.027-.189 1.35h-3.861zm4.455-3.888c.621.567 1.539 1.053 2.484 1.053 1.782 0 2.619-1.674 2.619-4.374 0-2.106-.675-3.942-2.484-3.942-.972 0-1.971.513-2.619.945v6.318zm11.296 1.701l1.215-.162c.378-.054.432-.135.432-.54V40.2c0-.297-.08-.486-.35-.567l-1.459-.513.297-2.187h4.752l.324 2.16h.162c.891-1.377 2.08-2.43 3.807-2.43.621 0 1.863.108 2.35.243v4.914l-3.24-.108-.27-1.431c-.055-.243-.136-.297-.352-.297-.702 0-1.539.594-1.944.945v7.155c0 .432.027.513.432.54l2.673.216V51h-8.829v-2.187zm25.455 1.134c-1.674.81-3.51 1.377-5.535 1.377-5.211 0-6.993-3.24-6.993-7.452 0-4.887 2.997-7.209 6.696-7.209 3.564 0 5.94 1.863 5.94 6.534 0 .324-.027 1.269-.054 1.809h-8.262c.135 1.917.972 3.186 3.186 3.186 1.053 0 2.187-.243 4.023-.918l.999 2.673zm-3.888-7.506c-.027-2.268-.918-2.862-2.025-2.862-1.161 0-2.106.648-2.268 2.862h4.293zm11.382 6.426l1.35-.189c.378-.054.432-.135.432-.54V33.882c0-.297-.081-.486-.351-.567l-1.485-.513.297-2.187h5.616v17.523c0 .432.027.486.432.54l1.323.189V51h-7.614v-2.133zm17.75.675l-.135-.027c-1.026.999-2.376 1.809-4.536 1.809-3.402 0-3.942-2.322-3.942-3.996 0-2.7 1.647-3.915 5.049-4.158l3.105-.216v-1.485c0-1.269-.135-2.133-1.81-2.133-1.295 0-1.97.189-1.97 1.809l-3.807-.324c0-3.645 3.32-4.158 5.805-4.158 4.104 0 5.751 1.107 5.751 4.887v6.561c0 .432.027.486.432.54l1.296.216V51h-4.968l-.27-1.458zM94.95 45.33c-1.593.108-2.16.513-2.16 1.593s.648 1.485 1.539 1.485c.918 0 1.836-.513 2.457-.972v-2.241l-1.836.135zm16.788-5.562c-.054-.243-.081-.324-.27-.378-.351-.108-.999-.216-1.728-.216-1.35 0-2.106.513-2.106 1.377 0 1.107 1.485 1.35 3.132 1.728 2.133.486 4.536 1.242 4.536 4.401 0 3.294-2.673 4.644-6.102 4.644-2.457 0-4.86-.648-5.346-.972v-3.915l2.889.216.27 1.539c.054.243.081.324.324.405.324.108 1.053.27 2.079.27 1.431 0 2.241-.405 2.241-1.404 0-1.08-1.08-1.404-2.457-1.647-2.268-.405-5.238-.891-5.238-4.428 0-3.348 2.862-4.725 5.967-4.725 2.133 0 4.212.486 4.968.783v3.915l-2.889-.189-.27-1.404z" fill="#2B3D51"/><path d="M13.257 79.947c-1.674.81-3.51 1.377-5.535 1.377-5.211 0-6.993-3.24-6.993-7.452 0-4.887 2.997-7.209 6.696-7.209 3.564 0 5.94 1.863 5.94 6.534 0 .324-.027 1.269-.054 1.809H5.049c.135 1.917.972 3.186 3.186 3.186 1.053 0 2.187-.243 4.023-.918l.999 2.673zm-3.888-7.506c-.027-2.268-.918-2.862-2.025-2.862-1.161 0-2.106.648-2.268 2.862h4.293zm13.784-2.673c-.054-.243-.08-.324-.27-.378-.35-.108-.999-.216-1.728-.216-1.35 0-2.106.513-2.106 1.377 0 1.107 1.485 1.35 3.132 1.728 2.133.486 4.536 1.242 4.536 4.401 0 3.294-2.673 4.644-6.102 4.644-2.457 0-4.86-.648-5.346-.972v-3.915l2.89.216.27 1.539c.053.243.08.324.323.405.324.108 1.053.27 2.08.27 1.43 0 2.24-.405 2.24-1.404 0-1.08-1.08-1.404-2.457-1.647-2.268-.405-5.238-.891-5.238-4.428 0-3.348 2.862-4.725 5.967-4.725 2.133 0 4.212.486 4.968.783v3.915l-2.889-.189-.27-1.404zm15.723 10.476c-1.161.567-2.862 1.08-4.401 1.08-3.213 0-4.428-1.296-4.428-4.347v-7.074c0-.162 0-.27-.216-.27h-1.89V67.23c2.376-.27 3.32-1.458 3.618-4.401h2.565v3.834c0 .189 0 .27.216.27h3.807v2.7h-4.023v6.453c0 1.593.378 2.214 1.836 2.214.756 0 1.539-.189 2.187-.432l.729 2.376zm9.987-.702l-.135-.027c-1.026.999-2.376 1.809-4.536 1.809-3.402 0-3.942-2.322-3.942-3.996 0-2.7 1.647-3.915 5.049-4.158l3.105-.216v-1.485c0-1.269-.135-2.133-1.81-2.133-1.295 0-1.97.189-1.97 1.809l-3.807-.324c0-3.645 3.32-4.158 5.805-4.158 4.104 0 5.75 1.107 5.75 4.887v6.561c0 .432.028.486.433.54l1.296.216V81h-4.968l-.27-1.458zm-2.295-4.212c-1.593.108-2.16.513-2.16 1.593s.648 1.485 1.539 1.485c.918 0 1.836-.513 2.457-.972v-2.241l-1.836.135zm8.82 3.51l1.511-.162c.378-.054.432-.162.432-.567v-8.208c0-.162 0-.27-.216-.27h-1.809v-2.7h2.025v-1.485c0-3.645 2.052-5.157 5.778-5.157 2.511 0 4.833.621 4.833 3.888l-3.78.459c.027-1.377-.35-1.701-1.242-1.701-1.35 0-1.512.729-1.512 2.025v1.701c0 .189 0 .27.216.27h4.266v2.7h-4.482v8.397c0 .432.081.513.486.54l3.294.297V81h-9.8v-2.16zm20.013.702l-.135-.027c-1.026.999-2.376 1.809-4.536 1.809-3.402 0-3.942-2.322-3.942-3.996 0-2.7 1.647-3.915 5.049-4.158l3.105-.216v-1.485c0-1.269-.135-2.133-1.81-2.133-1.295 0-1.97.189-1.97 1.809l-3.807-.324c0-3.645 3.32-4.158 5.805-4.158 4.104 0 5.75 1.107 5.75 4.887v6.561c0 .432.028.486.433.54l1.296.216V81H75.67l-.27-1.458zm-2.295-4.212c-1.593.108-2.16.513-2.16 1.593s.648 1.485 1.539 1.485c.918 0 1.836-.513 2.457-.972v-2.241l-1.836.135zm16.788-5.562c-.054-.243-.081-.324-.27-.378-.351-.108-.999-.216-1.728-.216-1.35 0-2.106.513-2.106 1.377 0 1.107 1.485 1.35 3.132 1.728 2.133.486 4.536 1.242 4.536 4.401 0 3.294-2.673 4.644-6.102 4.644-2.457 0-4.86-.648-5.346-.972v-3.915l2.889.216.27 1.539c.054.243.081.324.324.405.324.108 1.053.27 2.079.27 1.431 0 2.241-.405 2.241-1.404 0-1.08-1.08-1.404-2.457-1.647-2.268-.405-5.238-.891-5.238-4.428 0-3.348 2.862-4.725 5.967-4.725 2.133 0 4.212.486 4.968.783v3.915l-2.889-.189-.27-1.404zm-76.961 40.233c-1.242.756-3.159 1.323-5.13 1.323-4.887 0-7.074-3.051-7.074-7.155 0-5.049 3.078-7.506 7.398-7.506 2.106 0 3.969.594 4.806 1.134v4.239l-2.889-.135-.324-1.782c-.027-.189-.081-.351-.324-.432-.324-.108-.837-.189-1.377-.189-1.62 0-2.997 1.107-2.997 4.266 0 3.51 1.566 4.509 3.483 4.509 1.35 0 2.565-.432 3.375-.783l1.053 2.511zm8.426 1.323c-4.941 0-6.94-3.024-6.94-7.263 0-4.482 2.35-7.398 7.29-7.398 4.996 0 6.94 2.97 6.94 7.101 0 4.59-2.322 7.56-7.29 7.56zm.189-2.835c1.755 0 2.835-1.215 2.835-4.59 0-3.186-.972-4.32-2.727-4.32-1.782 0-2.97 1.107-2.97 4.347 0 3.267 1.053 4.563 2.862 4.563zm18.687-6.21c0-1.296-.08-2.376-1.43-2.376-1 0-2.242.567-2.809.999v7.236c0 .432.027.486.432.54l1.296.189V111h-7.452v-2.16l1.215-.162c.378-.054.432-.135.432-.54V100.2c0-.297-.08-.486-.35-.567l-1.459-.513.324-2.187h4.725l.216 1.404.108.054c1.35-.999 2.916-1.728 4.752-1.728 2.943 0 4.077 1.62 4.077 4.59v6.885c0 .432.027.486.432.54l1.35.189V111h-5.859v-8.721zm17.473 7.965c-1.16.567-2.862 1.08-4.4 1.08-3.214 0-4.429-1.296-4.429-4.347v-7.074c0-.162 0-.27-.216-.27h-1.89V97.23c2.376-.27 3.321-1.458 3.618-4.401h2.565v3.834c0 .189 0 .27.216.27h3.807v2.7h-4.023v6.453c0 1.593.378 2.214 1.836 2.214.756 0 1.54-.189 2.187-.432l.73 2.376zm1.58-1.431l1.216-.162c.378-.054.432-.135.432-.54V100.2c0-.297-.081-.486-.351-.567l-1.458-.513.297-2.187h4.752l.324 2.16h.162c.89-1.377 2.079-2.43 3.807-2.43.62 0 1.863.108 2.349.243v4.914l-3.24-.108-.27-1.431c-.054-.243-.135-.297-.351-.297-.702 0-1.54.594-1.944.945v7.155c0 .432.027.513.432.54l2.673.216V111h-8.83v-2.187zm21.149.729l-.135-.027c-1.026.999-2.376 1.809-4.536 1.809-3.402 0-3.942-2.322-3.942-3.996 0-2.7 1.647-3.915 5.049-4.158l3.105-.216v-1.485c0-1.269-.135-2.133-1.809-2.133-1.296 0-1.971.189-1.971 1.809l-3.807-.324c0-3.645 3.321-4.158 5.805-4.158 4.104 0 5.751 1.107 5.751 4.887v6.561c0 .432.027.486.432.54l1.296.216V111h-4.968l-.27-1.458zm-2.295-4.212c-1.593.108-2.16.513-2.16 1.593s.648 1.485 1.539 1.485c.918 0 1.836-.513 2.457-.972v-2.241l-1.836.135zm-61.996 33.564l2.214-.189c.405-.027.432-.162.432-.54v-10.26h-.108l-3.861 9.207h-4.401l-3.807-9.234H6.48v10.26c0 .432.054.513.432.54l2.322.216V141H1.026v-2.106l1.701-.189c.378-.054.432-.135.432-.54v-13.851c0-.405-.054-.486-.432-.54l-1.701-.189v-2.133h7.236l4.698 12.231h.108l4.941-12.231h7.02v2.106l-1.809.216c-.405.054-.432.108-.432.513v13.878c0 .351.081.459.432.513l1.809.216V141h-8.883v-2.106zm23.089 1.053c-1.674.81-3.51 1.377-5.535 1.377-5.211 0-6.993-3.24-6.993-7.452 0-4.887 2.997-7.209 6.696-7.209 3.564 0 5.94 1.863 5.94 6.534 0 .324-.027 1.269-.054 1.809h-8.262c.135 1.917.972 3.186 3.186 3.186 1.053 0 2.187-.243 4.023-.918l.999 2.673zm-3.888-7.506c-.027-2.268-.918-2.862-2.025-2.862-1.161 0-2.106.648-2.268 2.862h4.293zm15.807 7.047l-.189-.027c-1.134 1.107-2.457 1.863-4.428 1.863-3.185 0-5.237-2.025-5.237-7.182 0-5.427 2.727-7.479 5.724-7.479 1.566 0 2.78.54 3.806 1.296v-4.104c0-.27-.108-.459-.35-.54l-1.485-.513.297-2.187h5.426v17.55c0 .405.027.459.432.513l1.297.189V141h-5.023l-.27-1.512zm-.486-8.883c-.675-.459-1.538-.81-2.322-.81-1.997 0-2.78 1.863-2.78 4.266 0 2.619.755 4.077 2.456 4.077.919 0 1.918-.54 2.647-1.161v-6.372zm12.942-8.262c0 1.539-.89 2.43-2.457 2.43-1.539 0-2.43-.891-2.43-2.43 0-1.539.891-2.376 2.43-2.376 1.566 0 2.457.837 2.457 2.376zm-5.94 16.524l1.377-.189c.378-.054.432-.135.432-.54V130.2c0-.297-.08-.486-.35-.567l-1.459-.513.297-2.187h5.59v11.205c0 .432.026.486.431.54l1.377.189V141H57.67v-2.133zm21.206 1.134c-1.242.756-3.159 1.323-5.13 1.323-4.887 0-7.074-3.051-7.074-7.155 0-5.049 3.078-7.506 7.398-7.506 2.106 0 3.97.594 4.806 1.134v4.239l-2.889-.135-.324-1.782c-.027-.189-.08-.351-.324-.432-.324-.108-.837-.189-1.377-.189-1.62 0-2.997 1.107-2.997 4.266 0 3.51 1.566 4.509 3.483 4.509 1.35 0 2.565-.432 3.375-.783l1.053 2.511zm10.236-.459l-.135-.027c-1.026.999-2.376 1.809-4.536 1.809-3.402 0-3.942-2.322-3.942-3.996 0-2.7 1.647-3.915 5.049-4.158l3.105-.216v-1.485c0-1.269-.135-2.133-1.81-2.133-1.295 0-1.97.189-1.97 1.809l-3.807-.324c0-3.645 3.32-4.158 5.805-4.158 4.104 0 5.75 1.107 5.75 4.887v6.561c0 .432.028.486.433.54l1.296.216V141h-4.968l-.27-1.458zm-2.295-4.212c-1.593.108-2.16.513-2.16 1.593s.648 1.485 1.539 1.485c.918 0 1.836-.513 2.457-.972v-2.241l-1.836.135zm8.792 3.483l1.215-.162c.378-.054.432-.135.432-.54V130.2c0-.297-.08-.486-.35-.567l-1.459-.513.297-2.187h4.752l.324 2.16h.162c.891-1.377 2.079-2.43 3.807-2.43.621 0 1.863.108 2.349.243v4.914l-3.24-.108-.27-1.431c-.054-.243-.135-.297-.351-.297-.702 0-1.539.594-1.944.945v7.155c0 .432.027.513.432.54l2.673.216V141h-8.829v-2.187zm25.455 1.134c-1.674.81-3.51 1.377-5.535 1.377-5.211 0-6.993-3.24-6.993-7.452 0-4.887 2.997-7.209 6.696-7.209 3.564 0 5.94 1.863 5.94 6.534 0 .324-.027 1.269-.054 1.809h-8.262c.135 1.917.972 3.186 3.186 3.186 1.053 0 2.187-.243 4.023-.918l.999 2.673zm-3.888-7.506c-.027-2.268-.918-2.862-2.025-2.862-1.161 0-2.106.648-2.268 2.862h4.293zm10.922 6.777c0 1.377-.756 2.106-2.295 2.106-1.566 0-2.322-.702-2.322-2.106 0-1.377.756-2.106 2.322-2.106 1.512 0 2.295.729 2.295 2.106z" fill="#8F3FB0"/></svg>