<svg width="193" height="39" viewBox="0 0 193 39" fill="none" xmlns="http://www.w3.org/2000/svg"><path d="M7.375 14.72H9.65c2.52 0 3.78-1.097 3.78-3.29s-1.26-3.29-3.78-3.29H7.375v6.58zm0 14.28H.515V2.61h10.92c2.964 0 5.227.77 6.79 2.31 1.587 1.54 2.38 3.71 2.38 6.51s-.793 4.97-2.38 6.51c-1.563 1.54-3.826 2.31-6.79 2.31h-4.06V29zm16.266-17.955h6.335v2.94c.677-1.073 1.505-1.89 2.485-2.45.98-.583 2.123-.875 3.43-.875h.525c.21 0 .444.023.7.07v6.055c-.84-.42-1.75-.63-2.73-.63-1.47 0-2.578.443-3.325 1.33-.723.863-1.085 2.135-1.085 3.815V29h-6.335V11.045zm22.426 8.89c0 .607.105 1.167.315 1.68.233.49.525.922.875 1.295.373.373.805.665 1.295.875.513.21 1.05.315 1.61.315s1.085-.105 1.575-.315c.513-.21.945-.502 1.295-.875.373-.373.665-.805.875-1.295.233-.513.35-1.062.35-1.645 0-.56-.117-1.085-.35-1.575a3.997 3.997 0 00-.875-1.33 3.631 3.631 0 00-1.295-.875 3.956 3.956 0 00-1.575-.315c-.56 0-1.097.105-1.61.315-.49.21-.922.502-1.295.875-.35.373-.642.805-.875 1.295a3.956 3.956 0 00-.315 1.575zm-6.685-.07c0-1.33.268-2.567.805-3.71a8.922 8.922 0 012.24-3.01c.956-.863 2.088-1.54 3.395-2.03 1.33-.49 2.776-.735 4.34-.735 1.54 0 2.963.245 4.27.735 1.33.467 2.473 1.132 3.43 1.995a8.634 8.634 0 012.275 3.045c.536 1.167.805 2.462.805 3.885 0 1.423-.28 2.73-.84 3.92a9.29 9.29 0 01-2.24 3.045c-.957.84-2.112 1.493-3.465 1.96-1.33.467-2.777.7-4.34.7-1.54 0-2.964-.233-4.27-.7-1.307-.467-2.439-1.132-3.395-1.995a9.425 9.425 0 01-2.205-3.08c-.537-1.213-.805-2.555-.805-4.025zM71.76 16.33V29h-6.335V16.33h-2.1v-5.285h2.1v-5.39h6.335v5.39h3.605v5.285h-3.605zm19.453 1.085c-.21-.887-.641-1.598-1.295-2.135-.653-.537-1.446-.805-2.38-.805-.98 0-1.785.257-2.415.77-.606.513-.991 1.237-1.155 2.17h7.245zm-7.42 3.675c0 2.73 1.284 4.095 3.85 4.095 1.377 0 2.415-.56 3.115-1.68h6.125c-1.236 4.107-4.328 6.16-9.275 6.16-1.516 0-2.905-.222-4.165-.665-1.26-.467-2.345-1.12-3.255-1.96a8.772 8.772 0 01-2.065-3.01c-.49-1.167-.735-2.473-.735-3.92 0-1.493.234-2.835.7-4.025.467-1.213 1.132-2.24 1.995-3.08.864-.84 1.902-1.482 3.115-1.925 1.237-.467 2.625-.7 4.165-.7 1.517 0 2.882.233 4.095.7 1.214.443 2.24 1.097 3.08 1.96.84.863 1.482 1.925 1.925 3.185.444 1.237.665 2.637.665 4.2v.665H83.794zM93.35 3.03l-6.09 5.39-2.94-2.17L89.324.125 93.35 3.03zm13.282 16.905c0 .583.105 1.132.315 1.645.21.49.49.922.84 1.295.373.373.805.665 1.295.875.513.21 1.061.315 1.645.315.56 0 1.085-.105 1.575-.315.513-.21.945-.502 1.295-.875a4.1 4.1 0 00.875-1.295c.233-.513.35-1.05.35-1.61 0-.583-.117-1.12-.35-1.61a4.009 4.009 0 00-2.205-2.17 3.872 3.872 0 00-1.54-.315c-.56 0-1.085.117-1.575.35-.49.21-.922.502-1.295.875-.374.35-.677.77-.91 1.26a3.956 3.956 0 00-.315 1.575zm14.21-8.89v16.73c0 1.003-.059 1.902-.175 2.695-.117.793-.28 1.493-.49 2.1a6.293 6.293 0 01-1.33 2.135 8.337 8.337 0 01-2.135 1.75c-.84.49-1.797.875-2.87 1.155-1.05.28-2.194.42-3.43.42-1.4 0-2.684-.175-3.85-.525-1.167-.35-2.194-.84-3.08-1.47a8.192 8.192 0 01-2.135-2.17 7.035 7.035 0 01-1.12-2.695h7.14c.443 1.19 1.446 1.785 3.01 1.785 1.33 0 2.345-.373 3.045-1.12.723-.747 1.085-1.785 1.085-3.115v-1.715c-.467.443-.922.817-1.365 1.12-.42.28-.852.513-1.295.7-.444.187-.91.315-1.4.385-.49.093-1.027.14-1.61.14-1.284 0-2.462-.222-3.535-.665a8.496 8.496 0 01-2.8-1.855 8.696 8.696 0 01-1.82-2.835c-.42-1.12-.63-2.357-.63-3.71 0-1.377.233-2.648.7-3.815.466-1.19 1.096-2.217 1.89-3.08a8.663 8.663 0 012.87-2.065c1.12-.513 2.333-.77 3.64-.77 2.123 0 3.908.793 5.355 2.38v-1.89h6.335zm17.849 6.37c-.21-.887-.642-1.598-1.295-2.135-.653-.537-1.447-.805-2.38-.805-.98 0-1.785.257-2.415.77-.607.513-.992 1.237-1.155 2.17h7.245zm-7.42 3.675c0 2.73 1.283 4.095 3.85 4.095 1.377 0 2.415-.56 3.115-1.68h6.125c-1.237 4.107-4.328 6.16-9.275 6.16-1.517 0-2.905-.222-4.165-.665-1.26-.467-2.345-1.12-3.255-1.96a8.767 8.767 0 01-2.065-3.01c-.49-1.167-.735-2.473-.735-3.92 0-1.493.233-2.835.7-4.025.467-1.213 1.132-2.24 1.995-3.08.863-.84 1.902-1.482 3.115-1.925 1.237-.467 2.625-.7 4.165-.7 1.517 0 2.882.233 4.095.7 1.213.443 2.24 1.097 3.08 1.96.84.863 1.482 1.925 1.925 3.185.443 1.237.665 2.637.665 4.2v.665H131.27zm24.265-4.76V29H149.2V16.33h-2.1v-5.285h2.1v-5.39h6.335v5.39h3.605v5.285h-3.605zm19.454 1.085c-.21-.887-.642-1.598-1.295-2.135-.653-.537-1.447-.805-2.38-.805-.98 0-1.785.257-2.415.77-.607.513-.992 1.237-1.155 2.17h7.245zm-7.42 3.675c0 2.73 1.283 4.095 3.85 4.095 1.377 0 2.415-.56 3.115-1.68h6.125c-1.237 4.107-4.328 6.16-9.275 6.16-1.517 0-2.905-.222-4.165-.665-1.26-.467-2.345-1.12-3.255-1.96a8.767 8.767 0 01-2.065-3.01c-.49-1.167-.735-2.473-.735-3.92 0-1.493.233-2.835.7-4.025.467-1.213 1.132-2.24 1.995-3.08.863-.84 1.902-1.482 3.115-1.925 1.237-.467 2.625-.7 4.165-.7 1.517 0 2.882.233 4.095.7 1.213.443 2.24 1.097 3.08 1.96.84.863 1.482 1.925 1.925 3.185.443 1.237.665 2.637.665 4.2v.665h-13.335zm16.641 4.55c0-.56.105-1.085.315-1.575.21-.513.502-.957.875-1.33a4.092 4.092 0 011.295-.875 4.21 4.21 0 011.61-.315c.56 0 1.085.105 1.575.315.513.21.957.502 1.33.875.373.373.665.817.875 1.33.21.49.315 1.015.315 1.575s-.105 1.097-.315 1.61a4.1 4.1 0 01-.875 1.295 3.999 3.999 0 01-1.33.875c-.49.21-1.015.315-1.575.315a4.21 4.21 0 01-1.61-.315 4.1 4.1 0 01-2.17-2.17 4.212 4.212 0 01-.315-1.61z" fill="#fff"/></svg>