<svg width="279" height="64" viewBox="0 0 279 64" fill="none" xmlns="http://www.w3.org/2000/svg"><path d="M33.458 22.902c0-.62.227-1.157.68-1.61a2.22 2.22 0 011.628-.681c.63 0 1.173.227 1.627.68.453.454.68.997.68 1.628a2.24 2.24 0 01-.68 1.643 2.212 2.212 0 01-1.627.664c-.654 0-1.201-.221-1.644-.664-.443-.443-.664-.996-.664-1.66zm7.092 0c0-.62.227-1.157.68-1.61a2.22 2.22 0 011.628-.681c.63 0 1.173.227 1.627.68.453.454.68.997.68 1.628a2.24 2.24 0 01-.68 1.643 2.213 2.213 0 01-1.627.664c-.653 0-1.201-.221-1.644-.664-.443-.443-.664-.996-.664-1.66zm7.092 0c0-.62.227-1.157.68-1.61a2.22 2.22 0 011.628-.681c.63 0 1.173.227 1.627.68.454.454.68.997.68 1.628a2.24 2.24 0 01-.68 1.643 2.213 2.213 0 01-1.627.664c-.653 0-1.2-.221-1.644-.664-.442-.443-.664-.996-.664-1.66zM64.54 11.564v4.234c-.727-.887-1.378-1.496-1.954-1.827-.566-.34-1.232-.51-1.997-.51-1.198 0-2.194.42-2.987 1.26-.793.84-1.19 1.893-1.19 3.158 0 1.294.383 2.356 1.147 3.186.774.831 1.76 1.246 2.96 1.246.764 0 1.44-.165 2.025-.495.566-.321 1.232-.944 1.996-1.87v4.206c-1.293.67-2.587 1.006-3.88 1.006-2.133 0-3.917-.69-5.352-2.068-1.435-1.387-2.153-3.11-2.153-5.168 0-2.058.727-3.795 2.181-5.211 1.454-1.416 3.238-2.124 5.353-2.124 1.359 0 2.643.326 3.851.977zm2.436 6.202c0-1.992.712-3.686 2.138-5.083 1.425-1.397 3.162-2.096 5.21-2.096 2.059 0 3.805.703 5.24 2.11 1.416 1.406 2.124 3.134 2.124 5.182 0 2.068-.713 3.8-2.138 5.197-1.435 1.388-3.196 2.082-5.282 2.082-2.067 0-3.8-.708-5.197-2.124-1.397-1.397-2.095-3.153-2.095-5.268zm3.257.057c0 1.378.368 2.468 1.104 3.27.755.813 1.751 1.218 2.988 1.218 1.246 0 2.242-.4 2.988-1.203.745-.803 1.118-1.874 1.118-3.214 0-1.34-.373-2.412-1.118-3.215-.756-.812-1.752-1.218-2.988-1.218-1.218 0-2.204.406-2.96 1.218-.755.812-1.132 1.86-1.132 3.144zm14.84-6.854h3.185v1.275c.614-.642 1.138-1.076 1.572-1.303.463-.236 1.043-.354 1.742-.354 1.557 0 2.79.68 3.696 2.039 1-1.36 2.355-2.04 4.064-2.04 3.105 0 4.658 1.884 4.658 5.65v8.525h-3.2v-7.66c0-1.322-.16-2.257-.481-2.804-.33-.557-.873-.836-1.629-.836-.878 0-1.52.33-1.926.992-.396.66-.594 1.723-.594 3.186v7.122h-3.2v-7.618c0-2.454-.708-3.682-2.124-3.682-.897 0-1.553.335-1.969 1.006-.406.67-.609 1.727-.609 3.172v7.122h-3.186V10.97zm22.287 6.797c0-1.992.713-3.686 2.139-5.083 1.425-1.397 3.162-2.096 5.211-2.096 2.058 0 3.804.703 5.239 2.11 1.416 1.406 2.124 3.134 2.124 5.182 0 2.068-.713 3.8-2.138 5.197-1.435 1.388-3.196 2.082-5.282 2.082-2.067 0-3.8-.708-5.197-2.124-1.397-1.397-2.096-3.153-2.096-5.268zm3.257.057c0 1.378.368 2.468 1.105 3.27.755.813 1.751 1.218 2.988 1.218 1.246 0 2.242-.4 2.987-1.203.746-.803 1.119-1.874 1.119-3.214 0-1.34-.373-2.412-1.119-3.215-.755-.812-1.751-1.218-2.987-1.218-1.218 0-2.205.406-2.96 1.218-.755.812-1.133 1.86-1.133 3.144zm34.523-6.259v4.234c-.727-.887-1.379-1.496-1.954-1.827-.567-.34-1.232-.51-1.997-.51-1.199 0-2.195.42-2.988 1.26-.793.84-1.189 1.893-1.189 3.158 0 1.294.382 2.356 1.147 3.186.774.831 1.76 1.246 2.959 1.246.765 0 1.44-.165 2.025-.495.567-.321 1.232-.944 1.997-1.87v4.206c-1.294.67-2.587 1.006-3.88 1.006-2.134 0-3.918-.69-5.353-2.068-1.435-1.387-2.152-3.11-2.152-5.168 0-2.058.727-3.795 2.181-5.211 1.453-1.416 3.238-2.124 5.352-2.124a8 8 0 013.852.977zm6.273-.595v7.916c0 2.284.901 3.426 2.704 3.426 1.803 0 2.705-1.142 2.705-3.426v-7.916h3.186v7.987c0 1.104-.137 2.058-.411 2.86-.264.717-.722 1.364-1.373 1.94-1.076.934-2.445 1.402-4.107 1.402-1.652 0-3.016-.468-4.092-1.402-.661-.576-1.128-1.223-1.402-1.94-.264-.642-.396-1.595-.396-2.86v-7.987h3.186zm15.802 0v13.792h-3.186V10.97h3.186zm-3.667-5.735c0-.557.203-1.038.609-1.444a1.99 1.99 0 011.458-.609c.576 0 1.067.203 1.473.609.406.397.609.883.609 1.459 0 .575-.203 1.066-.609 1.472a1.961 1.961 0 01-1.459.61 2.006 2.006 0 01-1.472-.61 2.023 2.023 0 01-.609-1.487zm17.87-4.39h3.2v23.917h-3.2v-1.444c-1.255 1.227-2.676 1.84-4.262 1.84-1.888 0-3.455-.688-4.701-2.067-1.237-1.406-1.855-3.162-1.855-5.267 0-2.058.618-3.776 1.855-5.155 1.227-1.387 2.77-2.081 4.63-2.081 1.614 0 3.059.66 4.333 1.982V.845zm-7.561 16.979c0 1.321.354 2.398 1.062 3.228.726.84 1.642 1.26 2.747 1.26 1.18 0 2.133-.405 2.86-1.217.727-.84 1.09-1.907 1.09-3.2 0-1.294-.363-2.36-1.09-3.2-.727-.822-1.671-1.233-2.832-1.233-1.095 0-2.011.416-2.747 1.246-.727.84-1.09 1.88-1.09 3.116zm24.95-6.854h3.2v13.792h-3.2v-1.444c-1.312 1.227-2.724 1.84-4.234 1.84-1.907 0-3.484-.688-4.73-2.067-1.236-1.406-1.855-3.162-1.855-5.267 0-2.068.619-3.79 1.855-5.169 1.237-1.378 2.785-2.067 4.645-2.067 1.605 0 3.044.66 4.319 1.982v-1.6zm-7.562 6.854c0 1.321.354 2.398 1.062 3.228.727.84 1.643 1.26 2.747 1.26 1.18 0 2.134-.405 2.861-1.217.727-.84 1.09-1.907 1.09-3.2 0-1.294-.363-2.36-1.09-3.2-.727-.822-1.671-1.233-2.832-1.233-1.095 0-2.011.416-2.747 1.246-.727.84-1.091 1.88-1.091 3.116zm22.798-4.503l-2.634 1.402c-.415-.85-.93-1.275-1.543-1.275-.293 0-.543.1-.751.298a.95.95 0 00-.311.736c0 .529.613 1.053 1.841 1.572 1.689.727 2.827 1.397 3.412 2.01.586.614.878 1.44.878 2.479 0 1.33-.491 2.444-1.473 3.341-.953.85-2.105 1.275-3.455 1.275-2.312 0-3.95-1.128-4.913-3.385l2.719-1.26c.377.661.665 1.081.863 1.26.387.36.85.538 1.388.538 1.076 0 1.614-.49 1.614-1.472 0-.566-.415-1.095-1.246-1.586-.321-.16-.642-.316-.963-.467a93.829 93.829 0 01-.977-.468c-.925-.453-1.576-.906-1.954-1.359-.481-.576-.722-1.317-.722-2.223 0-1.2.411-2.19 1.232-2.974.84-.783 1.86-1.175 3.059-1.175 1.765 0 3.077.91 3.936 2.733zm16.001.623V24.76h-3.186V13.943h-1.359v-2.974h1.359V5.914h3.186v5.055h2.478v2.974h-2.478zm7.831-2.974v7.916c0 2.284.901 3.426 2.704 3.426 1.803 0 2.705-1.142 2.705-3.426v-7.916h3.186v7.987c0 1.104-.137 2.058-.411 2.86-.264.717-.722 1.364-1.373 1.94-1.077.934-2.445 1.402-4.107 1.402-1.652 0-3.016-.468-4.092-1.402-.661-.576-1.128-1.223-1.402-1.94-.264-.642-.396-1.595-.396-2.86v-7.987h3.186zM7.112 45.263v10.498H1.863V45.263H.123v-4.379h1.74v-4.466h5.249v4.466H10.1v4.38H7.112zm10.116 3.016c0 .484.087.938.26 1.363.175.406.407.764.697 1.073.309.31.667.551 1.073.725.425.174.88.261 1.363.261.464 0 .899-.087 1.305-.26a3.007 3.007 0 001.073-.726c.309-.31.55-.667.725-1.073.193-.406.29-.84.29-1.305 0-.464-.097-.899-.29-1.305a3.313 3.313 0 00-.725-1.102 3.009 3.009 0 00-1.073-.725 3.278 3.278 0 00-1.305-.26c-.484 0-.938.086-1.363.26a3.395 3.395 0 00-1.073.725c-.29.31-.522.667-.696 1.073a3.074 3.074 0 00-.261 1.276zm6.612-7.395h5.278v14.877H23.84v-1.653c-1.122 1.412-2.64 2.117-4.553 2.117-1.083 0-2.079-.193-2.987-.58a7.39 7.39 0 01-2.378-1.682 7.898 7.898 0 01-1.595-2.523c-.368-.966-.551-2.02-.551-3.16a8.27 8.27 0 01.55-3.017 7.76 7.76 0 011.538-2.523 7.07 7.07 0 012.349-1.682c.908-.425 1.914-.638 3.016-.638 1.856 0 3.393.648 4.61 1.943v-1.479zm8.85 0h5.249v2.436c.56-.89 1.247-1.566 2.059-2.03.812-.483 1.759-.725 2.842-.725h.435c.174 0 .367.02.58.058v5.017a4.987 4.987 0 00-2.262-.522c-1.218 0-2.137.368-2.755 1.102-.6.716-.9 1.77-.9 3.161v6.38H32.69V40.884zm18.757 0v22.301h-5.249v-22.3h5.25zm-5.597-5.713c0-.406.078-.783.232-1.13.155-.368.368-.687.638-.958.271-.27.58-.483.928-.638a2.96 2.96 0 011.16-.232c.406 0 .783.078 1.131.232.368.155.687.368.957.638.271.27.484.59.638.957.155.348.232.725.232 1.131s-.077.793-.232 1.16a3.058 3.058 0 01-.638.928c-.27.27-.59.484-.957.638a2.752 2.752 0 01-1.13.232c-.407 0-.793-.077-1.16-.232a3.057 3.057 0 01-.929-.638c-.27-.27-.483-.58-.638-.928a2.958 2.958 0 01-.232-1.16zm20.06 10.991c-.175-.734-.532-1.324-1.074-1.769-.541-.444-1.198-.667-1.972-.667-.812 0-1.479.213-2 .638-.503.426-.822 1.025-.958 1.798h6.003zm-6.149 3.045c0 2.262 1.064 3.393 3.19 3.393 1.141 0 2.001-.464 2.581-1.392h5.075c-1.024 3.403-3.586 5.104-7.685 5.104-1.256 0-2.407-.183-3.45-.55-1.045-.387-1.944-.929-2.698-1.625a7.269 7.269 0 01-1.71-2.494c-.407-.966-.61-2.05-.61-3.248 0-1.237.194-2.349.58-3.335.387-1.005.938-1.856 1.653-2.552.716-.696 1.576-1.227 2.581-1.595 1.025-.386 2.175-.58 3.451-.58 1.257 0 2.388.194 3.393.58 1.006.368 1.856.909 2.552 1.624.696.716 1.228 1.595 1.595 2.64.368 1.024.551 2.184.551 3.48v.55H59.761zm20.106-3.944v10.498h-5.25V45.263h-1.74v-4.379h1.74v-4.466h5.25v4.466h2.987v4.38h-2.987zm10.115 3.016c0 .484.088.938.261 1.363.175.406.407.764.697 1.073.309.31.666.551 1.073.725.425.174.88.261 1.362.261.465 0 .9-.087 1.305-.26a3.008 3.008 0 001.073-.726c.31-.31.552-.667.725-1.073.194-.406.29-.84.29-1.305 0-.464-.096-.899-.29-1.305a3.314 3.314 0 00-.724-1.102 3.01 3.01 0 00-1.074-.725 3.278 3.278 0 00-1.305-.26c-.483 0-.937.086-1.362.26a3.394 3.394 0 00-1.074.725c-.29.31-.521.667-.695 1.073a3.074 3.074 0 00-.261 1.276zm6.612-7.395h5.279v14.877h-5.279v-1.653c-1.12 1.412-2.638 2.117-4.552 2.117-1.083 0-2.079-.193-2.987-.58a7.388 7.388 0 01-2.379-1.682 7.896 7.896 0 01-1.594-2.523c-.368-.966-.551-2.02-.551-3.16a8.27 8.27 0 01.55-3.017 7.758 7.758 0 011.537-2.523 7.068 7.068 0 012.35-1.682c.908-.425 1.913-.638 3.016-.638 1.856 0 3.392.648 4.61 1.943v-1.479zm23.578 7.395c0 .484.087.938.261 1.363.174.406.406.764.696 1.073.309.31.667.551 1.073.725.425.174.88.261 1.363.261.464 0 .899-.087 1.305-.26a3.01 3.01 0 001.073-.726c.309-.31.551-.667.725-1.073.193-.406.29-.84.29-1.305 0-.464-.097-.899-.29-1.305a3.32 3.32 0 00-.725-1.102 3.012 3.012 0 00-1.073-.725 3.278 3.278 0 00-1.305-.26c-.464 0-.909.086-1.334.26a3.39 3.39 0 00-1.073.725c-.29.31-.532.667-.725 1.073a3.074 3.074 0 00-.261 1.276zm6.612-16.588h5.278v24.07h-5.278v-1.653c-1.121 1.412-2.639 2.117-4.553 2.117-1.083 0-2.078-.203-2.987-.609a7.388 7.388 0 01-2.378-1.682 7.896 7.896 0 01-1.595-2.523 8.751 8.751 0 01-.551-3.132c0-1.063.174-2.068.522-3.016a7.758 7.758 0 011.537-2.523 7.062 7.062 0 012.349-1.682c.928-.425 1.943-.638 3.045-.638 1.856 0 3.393.648 4.611 1.943V31.691zm19.725 14.471c-.174-.734-.532-1.324-1.073-1.769-.541-.444-1.199-.667-1.972-.667-.812 0-1.479.213-2.001.638-.503.426-.822 1.025-.957 1.798h6.003zm-6.148 3.045c0 2.262 1.063 3.393 3.19 3.393 1.141 0 2.001-.464 2.581-1.392h5.075c-1.025 3.403-3.586 5.104-7.685 5.104-1.257 0-2.407-.183-3.451-.55-1.044-.387-1.943-.929-2.697-1.625a7.263 7.263 0 01-1.711-2.494c-.406-.966-.609-2.05-.609-3.248 0-1.237.193-2.349.58-3.335.387-1.005.938-1.856 1.653-2.552.715-.696 1.576-1.227 2.581-1.595 1.025-.386 2.175-.58 3.451-.58 1.257 0 2.388.194 3.393.58 1.005.368 1.856.909 2.552 1.624.696.716 1.228 1.595 1.595 2.64.367 1.024.551 2.184.551 3.48v.55h-11.049zm35.128-3.509c-.909-.618-1.827-.928-2.755-.928a3.86 3.86 0 00-1.421.261 3.4 3.4 0 00-1.131.754c-.329.31-.59.687-.783 1.131a3.802 3.802 0 00-.261 1.45c0 .522.087 1.006.261 1.45.193.426.444.803.754 1.131.328.31.715.551 1.16.725a3.86 3.86 0 001.421.261c.986 0 1.904-.338 2.755-1.015v4.466c-1.296.56-2.523.841-3.683.841a8.813 8.813 0 01-3.103-.55 8.171 8.171 0 01-2.581-1.567 8.083 8.083 0 01-1.769-2.465c-.445-.966-.667-2.04-.667-3.219 0-1.18.212-2.252.638-3.219a7.535 7.535 0 011.74-2.523 7.597 7.597 0 012.61-1.653 8.812 8.812 0 013.277-.609c1.276 0 2.455.27 3.538.812v4.466zm2.994-4.814h5.249v2.436c.56-.89 1.247-1.566 2.059-2.03.812-.483 1.759-.725 2.842-.725h.435c.174 0 .367.02.58.058v5.017a4.987 4.987 0 00-2.262-.522c-1.218 0-2.137.368-2.755 1.102-.6.716-.899 1.77-.899 3.161v6.38h-5.249V40.884zm24.553 5.278c-.174-.734-.531-1.324-1.073-1.769-.541-.444-1.198-.667-1.972-.667-.812 0-1.479.213-2.001.638-.502.426-.821 1.025-.957 1.798h6.003zm-6.148 3.045c0 2.262 1.064 3.393 3.19 3.393 1.141 0 2.001-.464 2.581-1.392h5.075c-1.024 3.403-3.586 5.104-7.685 5.104-1.256 0-2.407-.183-3.451-.55-1.044-.387-1.943-.929-2.697-1.625a7.277 7.277 0 01-1.711-2.494c-.406-.966-.609-2.05-.609-3.248 0-1.237.194-2.349.58-3.335.387-1.005.938-1.856 1.653-2.552.716-.696 1.576-1.227 2.581-1.595 1.025-.386 2.175-.58 3.451-.58 1.257 0 2.388.194 3.393.58 1.006.368 1.856.909 2.552 1.624.696.716 1.228 1.595 1.595 2.64.368 1.024.551 2.184.551 3.48v.55h-11.049zm7.917-14.964l-5.046 4.466-2.436-1.798 4.147-5.075 3.335 2.407zM215.81 48.28c0 .484.087.938.261 1.363.174.406.406.764.696 1.073.309.31.667.551 1.073.725a3.56 3.56 0 001.363.261c.464 0 .899-.087 1.305-.26a3.01 3.01 0 001.073-.726c.309-.31.551-.667.725-1.073.193-.406.29-.84.29-1.305 0-.464-.097-.899-.29-1.305a3.32 3.32 0 00-.725-1.102 3.012 3.012 0 00-1.073-.725 3.278 3.278 0 00-1.305-.26c-.464 0-.909.086-1.334.26a3.39 3.39 0 00-1.073.725c-.29.31-.532.667-.725 1.073a3.074 3.074 0 00-.261 1.276zm6.612-16.588h5.278v24.07h-5.278v-1.653c-1.122 1.412-2.639 2.117-4.553 2.117-1.083 0-2.079-.203-2.987-.609a7.377 7.377 0 01-2.378-1.682 7.879 7.879 0 01-1.595-2.523c-.368-.966-.551-2.01-.551-3.132 0-1.063.174-2.068.522-3.016a7.741 7.741 0 011.537-2.523 7.062 7.062 0 012.349-1.682c.928-.425 1.943-.638 3.045-.638 1.856 0 3.393.648 4.611 1.943V31.691zm14.099 9.193v14.877h-5.249V40.884h5.249zm-5.597-5.713c0-.406.077-.783.232-1.13a2.95 2.95 0 01.638-.958c.27-.27.58-.483.928-.638a2.96 2.96 0 011.16-.232c.406 0 .783.078 1.131.232.367.155.686.368.957.638.27.27.483.59.638.957.154.348.232.725.232 1.131s-.078.793-.232 1.16a3.076 3.076 0 01-.638.928 2.97 2.97 0 01-.957.638 2.752 2.752 0 01-1.131.232c-.406 0-.793-.077-1.16-.232a3.049 3.049 0 01-.928-.638 3.04 3.04 0 01-.638-.928 2.953 2.953 0 01-.232-1.16zm15.042 10.092v10.498h-5.249V45.263h-1.74v-4.379h1.74v-4.466h5.249v4.466h2.987v4.38h-2.987zm10.174 2.987c0 .503.087.967.261 1.392.193.406.435.764.725 1.073.309.31.667.551 1.073.725.425.174.87.261 1.334.261.464 0 .899-.087 1.305-.26a3.01 3.01 0 001.073-.726c.309-.31.551-.667.725-1.073.193-.425.29-.88.29-1.363 0-.464-.097-.899-.29-1.305a3.32 3.32 0 00-.725-1.102 3.012 3.012 0 00-1.073-.725 3.278 3.278 0 00-1.305-.26c-.464 0-.909.086-1.334.26a3.39 3.39 0 00-1.073.725c-.29.31-.532.667-.725 1.073a3.278 3.278 0 00-.261 1.305zm-5.539-.058c0-1.102.222-2.126.667-3.074a7.38 7.38 0 011.856-2.494c.792-.715 1.73-1.276 2.813-1.682 1.102-.406 2.3-.609 3.596-.609 1.276 0 2.455.203 3.538.61 1.102.386 2.049.937 2.842 1.652a7.159 7.159 0 011.885 2.523c.444.967.667 2.04.667 3.22 0 1.179-.232 2.261-.696 3.247a7.712 7.712 0 01-1.856 2.523c-.793.696-1.75 1.238-2.871 1.624-1.102.387-2.301.58-3.596.58-1.276 0-2.456-.193-3.538-.58-1.083-.386-2.021-.937-2.813-1.653a7.79 7.79 0 01-1.827-2.552c-.445-1.005-.667-2.117-.667-3.335zm20.624 4.785c0-.464.087-.899.261-1.305a3.32 3.32 0 011.798-1.827c.426-.174.87-.26 1.334-.26.464 0 .899.086 1.305.26.426.174.793.416 1.102.725.31.31.551.677.725 1.102.174.406.261.841.261 1.305 0 .464-.087.909-.261 1.334a3.382 3.382 0 01-.725 1.073c-.309.31-.676.551-1.102.725a3.278 3.278 0 01-1.305.261c-.464 0-.908-.087-1.334-.26a3.4 3.4 0 01-1.798-1.799 3.49 3.49 0 01-.261-1.334z" fill="#66124B"/></svg>