<svg width="121" height="49" viewBox="0 0 121 49" fill="none" xmlns="http://www.w3.org/2000/svg"><rect x="1" y="1" width="119" height="47" rx="5" fill="#FFBA1A" stroke="#FFCF61" stroke-width="2"/><path d="M25.573 22V11.632h8.24v2.576h-5.2v1.264h4.992v2.544h-4.992v1.408h5.392V22h-8.433zm9.96 0V11.632h2.592l2.032 2.912c.336.496.88 1.344.88 1.344s.544-.848.88-1.344l2.032-2.912h2.592V22h-3.04v-5.248s-.528.848-.816 1.248l-1.648 2.304L39.373 18c-.288-.4-.8-1.216-.8-1.216V22h-3.04zm13.086 0V11.632h4.576c3.184 0 4.816 1.84 4.816 4.096 0 2.256-1.632 4.096-4.832 4.096h-1.52V22h-3.04zm3.04-4.752h1.6c.896 0 1.536-.672 1.536-1.52s-.64-1.52-1.52-1.52h-1.616v3.04zM59.75 22V11.632h3.04V22h-3.04zm5.117 0V11.632h8.24v2.576h-5.2v1.264H72.9v2.544h-4.992v1.408H73.3V22h-8.432zm9.48 0v-2.176l3.793-4.64c.432-.528.896-.976.896-.976h-4.464v-2.576h8.464v2.208l-3.568 4.4a24.17 24.17 0 01-1.056 1.184h4.768V22h-8.832zm9.986 0l4.192-10.368h3.136L95.854 22H92.75l-.48-1.344h-4.352L87.438 22h-3.104zm4.4-3.68h2.72l-1.232-3.504c-.096-.256-.112-.352-.128-.416 0 0-.032.144-.128.416l-1.232 3.504zM40.594 39l4.191-10.368h3.136L52.113 39H49.01l-.48-1.344h-4.352L43.697 39h-3.104zm4.4-3.68h2.72l-1.233-3.504c-.096-.256-.112-.352-.128-.416 0 0-.032.144-.128.416l-1.232 3.504zm13.044 3.872c-3.328 0-5.552-2.384-5.552-5.376 0-2.96 2.224-5.344 5.552-5.344 3.328 0 5.568 2.384 5.568 5.344 0 1.264-.4 2.416-1.12 3.328l.672.672-1.376 1.392-.768-.768c-.832.48-1.84.752-2.976.752zm0-2.752c.304 0 .576-.048.832-.144l-.768-.784 1.392-1.376.752.768a2.93 2.93 0 00.192-1.088c0-1.504-.992-2.592-2.4-2.592-1.312 0-2.384 1.088-2.384 2.592 0 1.536.992 2.624 2.384 2.624zm11.914 2.752c-2.624 0-4.624-1.456-4.624-4.304v-6.256h3.04v6.08c0 1.248.72 1.728 1.584 1.728.864 0 1.584-.48 1.584-1.728v-6.08h3.04v6.256c0 2.848-2 4.304-4.624 4.304zM76.618 39V28.632h3.04V39h-3.04zm.064-10.88l1.68-2.864h2.8l-2.32 2.864h-2.16z" fill="#101B31"/></svg>