<svg width="126" height="127" viewBox="0 0 126 127" fill="none" xmlns="http://www.w3.org/2000/svg"><path d="M42.462 17.24c-3.073 0-4.945-1.224-6.073-2.424l.816-1.44c1.248 1.224 2.928 2.112 5.28 2.112 2.017 0 4.129-.888 4.129-2.808 0-1.776-2.017-2.304-4.008-2.808-2.785-.696-5.569-1.584-5.569-4.464 0-2.784 2.665-4.2 5.449-4.2 1.92 0 3.672.48 5.232 1.728L46.925 4.4c-1.392-1.08-2.951-1.44-4.44-1.44-1.535 0-3.504.72-3.504 2.448 0 1.608 1.776 2.136 3.864 2.664 2.88.72 5.785 1.704 5.785 4.608 0 3.192-3.193 4.56-6.169 4.56zm9.346-.24V5.312h1.824V17h-1.824zm.912-13.776c-.672 0-1.2-.528-1.2-1.2 0-.672.528-1.224 1.2-1.224a1.23 1.23 0 011.224 1.224c0 .672-.552 1.2-1.224 1.2zM66.805 17.24c-2.064 0-3.288-1.008-3.288-3.744V6.824h-1.752V5.312h1.752v-2.52l1.824-.336v2.856h3.984v1.512h-3.984v6.72c0 1.608.696 2.064 1.632 2.064 1.08 0 1.92-.648 1.92-.648l.6 1.416c-.456.312-1.416.864-2.688.864zm10.833 0c-3.312 0-6.12-2.376-6.12-6.072 0-3.384 2.544-6.096 5.88-6.096 3.12 0 5.592 2.688 5.592 6.024 0 .336-.048.696-.048.72h-9.528c.288 2.328 2.088 3.792 4.248 3.792 1.32 0 2.64-.456 3.6-1.248l.792 1.344a7.152 7.152 0 01-4.416 1.536zm-4.224-6.816h7.776c-.192-2.16-1.848-3.72-3.888-3.72-1.992 0-3.624 1.536-3.888 3.72zM26.84 43.24c-3.432 0-6.144-2.688-6.144-6.072 0-3.408 2.712-6.096 6.144-6.096s6.144 2.688 6.144 6.096c0 3.384-2.712 6.072-6.144 6.072zm0-1.776c2.424 0 4.272-1.848 4.272-4.296 0-2.472-1.848-4.32-4.272-4.32-2.424 0-4.272 1.848-4.272 4.32 0 2.448 1.848 4.296 4.272 4.296zM36.31 43V32.824h-1.895v-1.512h1.896v-.888c0-2.904 1.536-3.696 3.144-3.696 1.152 0 2.232.432 2.808.792l-.6 1.392c-.24-.144-.936-.576-1.824-.576-.912 0-1.704.456-1.704 2.28v.696h3.72v1.512h-3.72V43H36.31zm7.764 0V31.312h1.824v2.472c.672-1.536 2.184-2.712 4.512-2.712v1.992c-2.736 0-4.512 1.536-4.512 4.392V43h-1.824zm14.323.24c-3.312 0-6.12-2.376-6.12-6.072 0-3.384 2.544-6.096 5.88-6.096 3.12 0 5.592 2.688 5.592 6.024 0 .336-.048.696-.048.72h-9.528c.288 2.328 2.088 3.792 4.248 3.792 1.32 0 2.64-.456 3.6-1.248l.792 1.344a7.152 7.152 0 01-4.416 1.536zm-4.224-6.816h7.776c-.192-2.16-1.848-3.72-3.888-3.72-1.992 0-3.624 1.536-3.888 3.72zm18.322 6.816c-3.432 0-6.144-2.664-6.144-6.072s2.712-6.096 6.144-6.096c1.608 0 3.072.576 4.176 1.56l-1.152 1.296c-.72-.672-1.776-1.08-3-1.08-2.448 0-4.296 1.824-4.296 4.32 0 2.424 1.776 4.296 4.344 4.296 1.32 0 2.52-.504 3.336-1.32l1.056 1.368c-1.128 1.08-2.712 1.728-4.464 1.728zm12.503 0c-3.312 0-6.12-2.376-6.12-6.072 0-3.384 2.544-6.096 5.88-6.096 3.12 0 5.592 2.688 5.592 6.024 0 .336-.048.696-.048.72h-9.528c.288 2.328 2.088 3.792 4.248 3.792 1.32 0 2.64-.456 3.6-1.248l.792 1.344a7.152 7.152 0 01-4.416 1.536zm-4.224-6.816h7.776c-.192-2.16-1.848-3.72-3.888-3.72-1.992 0-3.624 1.536-3.888 3.72zM93.43 43V31.312h1.824v1.992c.816-1.416 2.328-2.232 4.056-2.232 2.928 0 4.224 1.776 4.224 4.848V43h-1.824v-6.84c0-2.16-.792-3.312-2.904-3.312-2.088 0-3.552 1.632-3.552 3.576V43h-1.824zM31.064 69.24c-3.312 0-6.12-2.376-6.12-6.072 0-3.384 2.544-6.096 5.88-6.096 3.12 0 5.592 2.688 5.592 6.024 0 .336-.048.696-.048.72H26.84c.288 2.328 2.088 3.792 4.248 3.792 1.32 0 2.64-.456 3.6-1.248l.792 1.344a7.152 7.152 0 01-4.416 1.536zm-4.224-6.816h7.776c-.192-2.16-1.848-3.72-3.888-3.72-1.992 0-3.624 1.536-3.888 3.72zm22.09 9.96V66.96c-.864 1.512-2.52 2.28-4.392 2.28-3.24 0-5.52-2.688-5.52-6.096s2.28-6.072 5.52-6.072c1.896 0 3.6.744 4.464 2.256v-2.016h1.752v15.072H48.93zm-3.984-4.92c2.232 0 3.984-1.872 3.984-4.32 0-2.448-1.752-4.296-3.984-4.296-2.328 0-4.056 1.824-4.056 4.296 0 2.496 1.728 4.32 4.056 4.32zm13.408 1.776c-2.88 0-4.248-1.512-4.248-4.632v-7.296h1.824v7.056c0 2.184 1.056 3.096 2.952 3.096 2.112 0 3.336-1.728 3.336-3.528v-6.624h1.824V69H62.29v-2.064c-.72 1.512-2.4 2.304-3.936 2.304zM67.6 69V57.312h1.823V69H67.6zm.911-13.776c-.672 0-1.2-.528-1.2-1.2 0-.672.528-1.224 1.2-1.224a1.23 1.23 0 011.224 1.224c0 .672-.551 1.2-1.224 1.2zm4.467 17.16V57.312h1.752v2.016c.864-1.512 2.568-2.256 4.464-2.256 3.24 0 5.52 2.664 5.52 6.072s-2.28 6.096-5.52 6.096c-1.848 0-3.528-.768-4.392-2.28v5.424h-1.824zm5.808-4.92c2.328 0 4.056-1.824 4.056-4.32 0-2.472-1.728-4.296-4.056-4.296-2.232 0-3.984 1.848-3.984 4.296 0 2.448 1.752 4.32 3.984 4.32zM93.44 69.24c-3.432 0-6.144-2.688-6.144-6.072 0-3.408 2.712-6.096 6.144-6.096s6.144 2.688 6.144 6.096c0 3.384-2.712 6.072-6.144 6.072zm0-1.776c2.424 0 4.272-1.848 4.272-4.296 0-2.472-1.848-4.32-4.272-4.32-2.424 0-4.272 1.848-4.272 4.32 0 2.448 1.848 4.296 4.272 4.296zM22.73 96V84.312h1.824v2.016c.648-1.272 2.112-2.256 3.744-2.256 1.872 0 3.192.816 3.744 2.472.84-1.704 2.664-2.472 4.032-2.472 2.808 0 4.296 1.632 4.296 4.848V96H38.52v-6.84c0-1.992-.696-3.312-2.832-3.312-1.968 0-3.216 1.584-3.216 3.336V96h-1.848v-6.84c0-1.992-.696-3.312-2.808-3.312-2.04 0-3.264 1.728-3.264 3.432V96h-1.824zm26.604.24c-3.312 0-6.12-2.376-6.12-6.072 0-3.384 2.544-6.096 5.88-6.096 3.12 0 5.592 2.688 5.592 6.024 0 .336-.048.696-.048.72H45.11c.288 2.328 2.088 3.792 4.248 3.792 1.32 0 2.64-.456 3.6-1.248l.792 1.344a7.152 7.152 0 01-4.416 1.536zm-4.224-6.816h7.776c-.192-2.16-1.848-3.72-3.888-3.72-1.992 0-3.624 1.536-3.888 3.72zm17.698 6.816c-3.24 0-5.52-2.688-5.52-6.072 0-3.432 2.28-6.096 5.52-6.096 1.872 0 3.528.768 4.392 2.28v-6.144h1.824V96H67.27v-2.04c-.864 1.536-2.568 2.28-4.464 2.28zm.408-1.776c2.232 0 3.984-1.848 3.984-4.296 0-2.448-1.752-4.32-3.984-4.32-2.328 0-4.056 1.824-4.056 4.32 0 2.472 1.728 4.296 4.056 4.296zM72.567 96V84.312h1.824V96h-1.824zm.912-13.776c-.672 0-1.2-.528-1.2-1.2 0-.672.528-1.224 1.2-1.224a1.23 1.23 0 011.224 1.224c0 .672-.552 1.2-1.224 1.2zM83.61 96.24c-3.431 0-6.143-2.664-6.143-6.072s2.712-6.096 6.144-6.096c1.608 0 3.072.576 4.176 1.56l-1.152 1.296c-.72-.672-1.776-1.08-3-1.08-2.448 0-4.296 1.824-4.296 4.32 0 2.424 1.776 4.296 4.344 4.296 1.32 0 2.52-.504 3.336-1.32l1.056 1.368c-1.128 1.08-2.712 1.728-4.464 1.728zm12.528 0c-3.432 0-6.144-2.688-6.144-6.072 0-3.408 2.712-6.096 6.144-6.096s6.144 2.688 6.144 6.096c0 3.384-2.712 6.072-6.144 6.072zm0-1.776c2.424 0 4.272-1.848 4.272-4.296 0-2.472-1.848-4.32-4.272-4.32-2.424 0-4.272 1.848-4.272 4.32 0 2.448 1.848 4.296 4.272 4.296z" fill="#000"/><path d="M6.523 113.847v-8.343h3.672v8.343H6.523zm-6.156 0v-8.343h3.672v8.343H.367zm21.703 13.122c-2.7 0-4.805-.621-6.047-1.458l1.755-3.078c1.08.702 2.646.891 3.753.891 1.782 0 2.7-.81 3.024-1.701.108-.27.162-.54.162-.81-.756.999-2.241 1.377-3.348 1.377-3.834 0-6.049-2.97-6.049-6.615 0-3.672 2.215-6.642 6.049-6.642 1.107 0 2.861.405 3.617 1.809v-1.539h4.645v10.044c0 3.942-1.756 7.722-7.56 7.722zm.46-9.018c1.296 0 2.213-.972 2.213-2.376s-.917-2.403-2.213-2.403c-1.297 0-2.215.999-2.215 2.403s.918 2.376 2.214 2.376zM32.188 123v-13.797h4.78v2.457c.08-.594 1.268-2.727 4.508-2.727v5.346c-3.564 0-4.374 1.485-4.374 4.077V123h-4.914zm17.1.27c-3.835 0-5.914-3.186-5.914-7.155 0-3.996 2.08-7.182 5.913-7.182 1.107 0 2.943.378 3.753 1.809v-1.539h4.644V123H53.04v-1.539c-.756 1.404-2.646 1.809-3.753 1.809zm1.295-4.32c1.296 0 2.214-1.161 2.214-2.835 0-1.647-.918-2.862-2.214-2.862-1.296 0-2.214 1.215-2.214 2.862 0 1.674.918 2.835 2.214 2.835zm15.299 4.32c-2.647 0-4.375-1.701-4.375-4.725v-5.454h-2.024v-3.888h2.025v-2.484l4.913-1.215v3.699h3.051v3.888h-3.05v5.076c0 .648.324.864.755.864.405 0 .891-.189 1.242-.432l1.324 3.591c-1.188.837-2.646 1.08-3.861 1.08zm5.684-.27v-13.797h4.914V123h-4.914zm2.43-14.85c-1.512 0-2.781-1.269-2.781-2.781 0-1.539 1.269-2.808 2.78-2.808 1.567 0 2.836 1.269 2.836 2.808 0 1.512-1.27 2.781-2.835 2.781zm10.252 15.12c-3.159 0-4.914-.945-5.724-1.647l1.566-3.456c1.08.729 2.08 1.161 4.185 1.161.054 0 1.35-.081 1.35-.621 0-.432-.81-.513-1.62-.702-2.997-.729-5.21-1.944-5.21-4.482 0-3.024 2.753-4.59 5.67-4.59 2.672 0 4.265.594 5.588 1.296l-1.458 3.294c-1.593-.621-3.05-.81-3.969-.81-.486 0-.864.162-.864.432 0 .513 1.161.702 2.538 1.08 1.944.567 4.293 1.512 4.293 4.293 0 3.699-3.753 4.752-6.345 4.752zm15.888-9.423v-8.343h3.672v8.343h-3.672zm-6.156 0v-8.343h3.672v8.343H93.98zm17.072 9.443c-.87 0-1.508-.696-1.508-1.537s.667-1.537 1.508-1.537 1.537.696 1.537 1.537-.696 1.537-1.537 1.537zm6.471 0c-.87 0-1.508-.696-1.508-1.537s.667-1.537 1.508-1.537 1.537.696 1.537 1.537-.696 1.537-1.537 1.537zm6.471 0c-.87 0-1.508-.696-1.508-1.537s.667-1.537 1.508-1.537 1.537.696 1.537 1.537-.696 1.537-1.537 1.537z" fill="#0B2E54"/></svg>