<svg width="125" height="79" viewBox="0 0 125 79" fill="none" xmlns="http://www.w3.org/2000/svg"><path d="M23.471 15.24c-.72 0-1.248-.576-1.248-1.272 0-.696.552-1.272 1.248-1.272a1.28 1.28 0 011.272 1.272 1.28 1.28 0 01-1.272 1.272zm5.355 0c-.72 0-1.248-.576-1.248-1.272 0-.696.552-1.272 1.248-1.272a1.28 1.28 0 011.272 1.272 1.28 1.28 0 01-1.272 1.272zm5.355 0c-.72 0-1.248-.576-1.248-1.272 0-.696.552-1.272 1.248-1.272a1.28 1.28 0 011.272 1.272 1.28 1.28 0 01-1.272 1.272zm4.467 3.144V3.312H40.4v2.016c.864-1.512 2.568-2.256 4.464-2.256 3.24 0 5.52 2.664 5.52 6.072s-2.28 6.096-5.52 6.096c-1.848 0-3.528-.768-4.392-2.28v5.424h-1.824zm5.808-4.92c2.328 0 4.056-1.824 4.056-4.32 0-2.472-1.728-4.296-4.056-4.296-2.232 0-3.984 1.848-3.984 4.296 0 2.448 1.752 4.32 3.984 4.32zm14.656 1.776c-3.432 0-6.144-2.688-6.144-6.072 0-3.408 2.712-6.096 6.144-6.096s6.144 2.688 6.144 6.096c0 3.384-2.712 6.072-6.144 6.072zm0-1.776c2.424 0 4.272-1.848 4.272-4.296 0-2.472-1.848-4.32-4.272-4.32-2.424 0-4.272 1.848-4.272 4.32 0 2.448 1.848 4.296 4.272 4.296zM68.32 15V3.312h1.824v2.472c.672-1.536 2.184-2.712 4.512-2.712v1.992c-2.736 0-4.512 1.536-4.512 4.392V15h-1.824zm18.536.24c-2.064 0-3.288-1.008-3.288-3.744V4.824h-1.752V3.312h1.752V.792l1.824-.336v2.856h3.984v1.512h-3.984v6.72c0 1.608.696 2.064 1.632 2.064 1.08 0 1.92-.648 1.92-.648l.6 1.416c-.456.312-1.416.864-2.688.864zm9.39 0c-2.88 0-4.248-1.512-4.248-4.632V3.312h1.824v7.056c0 2.184 1.056 3.096 2.952 3.096 2.112 0 3.336-1.728 3.336-3.528V3.312h1.824V15h-1.752v-2.064c-.72 1.512-2.4 2.304-3.936 2.304zM4.067 45V33.312h1.824v1.992c.816-1.416 2.328-2.232 4.056-2.232 2.928 0 4.224 1.776 4.224 4.848V45h-1.824v-6.84c0-2.16-.792-3.312-2.904-3.312-2.088 0-3.552 1.632-3.552 3.576V45H4.067zM20.94 31.44l1.944-3.192h1.992L22.62 31.44h-1.68zm.648 13.8c-2.88 0-4.248-1.512-4.248-4.632v-7.296h1.824v7.056c0 2.184 1.056 3.096 2.952 3.096 2.112 0 3.336-1.728 3.336-3.528v-6.624h1.824V45h-1.752v-2.064c-.72 1.512-2.4 2.304-3.936 2.304zm9.244-.24V33.312h1.824v2.016c.648-1.272 2.112-2.256 3.744-2.256 1.872 0 3.192.816 3.744 2.472.84-1.704 2.664-2.472 4.032-2.472 2.808 0 4.296 1.632 4.296 4.848V45h-1.848v-6.84c0-1.992-.696-3.312-2.832-3.312-1.968 0-3.216 1.584-3.216 3.336V45h-1.848v-6.84c0-1.992-.696-3.312-2.808-3.312-2.04 0-3.264 1.728-3.264 3.432V45h-1.824zm26.605.24c-3.313 0-6.12-2.376-6.12-6.072 0-3.384 2.544-6.096 5.88-6.096 3.12 0 5.591 2.688 5.591 6.024 0 .336-.047.696-.047.72h-9.529c.288 2.328 2.088 3.792 4.248 3.792 1.32 0 2.64-.456 3.6-1.248l.792 1.344a7.152 7.152 0 01-4.415 1.536zm-4.224-6.816h7.776c-.192-2.16-1.848-3.72-3.889-3.72-1.992 0-3.623 1.536-3.888 3.72zM65.87 45V33.312h1.824v2.472c.672-1.536 2.184-2.712 4.512-2.712v1.992c-2.736 0-4.512 1.536-4.512 4.392V45H65.87zm14.347.24c-3.432 0-6.144-2.688-6.144-6.072 0-3.408 2.712-6.096 6.144-6.096s6.144 2.688 6.144 6.096c0 3.384-2.712 6.072-6.144 6.072zm0-1.776c2.424 0 4.272-1.848 4.272-4.296 0-2.472-1.848-4.32-4.272-4.32-2.424 0-4.272 1.848-4.272 4.32 0 2.448 1.848 4.296 4.272 4.296zm19.954 1.776c-3.24 0-5.52-2.688-5.52-6.072 0-3.432 2.28-6.096 5.52-6.096 1.872 0 3.528.768 4.392 2.28v-6.144h1.824V45h-1.752v-2.04c-.864 1.536-2.568 2.28-4.464 2.28zm.408-1.776c2.232 0 3.984-1.848 3.984-4.296 0-2.448-1.752-4.32-3.984-4.32-2.328 0-4.056 1.824-4.056 4.32 0 2.472 1.728 4.296 4.056 4.296zm14.992 1.776c-3.312 0-6.12-2.376-6.12-6.072 0-3.384 2.544-6.096 5.88-6.096 3.12 0 5.592 2.688 5.592 6.024 0 .336-.048.696-.048.72h-9.528c.288 2.328 2.088 3.792 4.248 3.792 1.32 0 2.64-.456 3.6-1.248l.792 1.344a7.152 7.152 0 01-4.416 1.536zm-4.224-6.816h7.776c-.192-2.16-1.848-3.72-3.888-3.72-1.992 0-3.624 1.536-3.888 3.72z" fill="#000"/><path d="M.75 75V57.504h4.373l3.43 4.914a142.27 142.27 0 011.484 2.268s.918-1.431 1.485-2.268l3.43-4.914h4.373V75h-5.13v-8.856s-.89 1.431-1.377 2.106l-2.78 3.888-2.809-3.888c-.486-.675-1.35-2.052-1.35-2.052V75H.75zm29.155.27c-4.185 0-7.749-2.619-7.749-7.155 0-3.996 3.105-7.182 7.182-7.182 3.915 0 6.912 3.186 6.912 7.182 0 .837-.108 1.593-.108 1.593H26.99c.405 1.296 1.62 1.782 2.943 1.782 1.161 0 2.403-.351 3.267-.837l1.647 3.321c-1.539.945-3.24 1.296-4.94 1.296zm-3.05-8.343h4.913c-.162-1.269-1.16-2.133-2.43-2.133-1.215 0-2.187.864-2.484 2.133zm17.47 8.343c-3.835 0-5.914-3.186-5.914-7.155 0-3.996 2.214-7.182 6.075-7.182 1.107 0 2.484.378 3.321 1.431v-5.13h4.914V75h-4.644v-1.539c-.729 1.404-2.646 1.809-3.753 1.809zm1.295-4.32c1.296 0 2.214-1.161 2.214-2.835 0-1.647-.918-2.862-2.214-2.862-1.296 0-2.214 1.215-2.214 2.862 0 1.674.918 2.835 2.214 2.835zM55.41 75V61.203h4.915V75H55.41zm2.43-14.85c-1.511 0-2.78-1.269-2.78-2.781 0-1.539 1.269-2.808 2.78-2.808 1.567 0 2.836 1.269 2.836 2.808 0 1.512-1.27 2.781-2.835 2.781zM70.2 75.27c-4.239 0-7.452-3.186-7.452-7.155 0-3.996 3.213-7.182 7.452-7.182 1.89 0 3.429.567 4.887 1.728l-2.835 3.402c-.513-.486-1.08-.81-1.917-.81-1.593 0-2.619 1.215-2.619 2.862 0 1.674.999 2.835 2.727 2.835.945 0 1.728-.405 2.322-.999l2.457 3.618c-1.323 1.107-3.078 1.701-5.022 1.701zm12.132 0c-3.834 0-5.913-3.186-5.913-7.155 0-3.996 2.079-7.182 5.913-7.182 1.107 0 2.943.378 3.753 1.809v-1.539h4.644V75h-4.644v-1.539c-.756 1.404-2.646 1.809-3.753 1.809zm1.296-4.32c1.296 0 2.214-1.161 2.214-2.835 0-1.647-.918-2.862-2.214-2.862-1.296 0-2.214 1.215-2.214 2.862 0 1.674.918 2.835 2.214 2.835zm9.79 4.05V61.203h4.78v2.457c.08-.594 1.268-2.727 4.508-2.727v5.346c-3.564 0-4.374 1.485-4.374 4.077V75h-4.914zm18.935.27c-4.185 0-7.749-2.619-7.749-7.155 0-3.996 3.105-7.182 7.182-7.182 3.915 0 6.912 3.186 6.912 7.182 0 .837-.108 1.593-.108 1.593h-9.153c.405 1.296 1.62 1.782 2.943 1.782 1.161 0 2.403-.351 3.267-.837l1.647 3.321c-1.539.945-3.24 1.296-4.941 1.296zm-3.051-8.343h4.914c-.162-1.269-1.161-2.133-2.43-2.133-1.215 0-2.187.864-2.484 2.133zm11.755 11.909l1.372-6.412h2.1l-1.96 6.412h-1.512z" fill="#0B2E54"/></svg>