<svg width="145" height="137" viewBox="0 0 145 137" fill="none" xmlns="http://www.w3.org/2000/svg"><path d="M9.994 72l7.332-16.848h3.588L28.246 72h-3.692l-1.144-2.678h-8.554L13.712 72H9.994zm5.98-5.512h6.292l-1.95-4.81c-.52-1.274-1.17-2.964-1.196-3.016-.026.052-.676 1.742-1.196 3.016l-1.95 4.81zm13.85 9.256V59h3.302v1.56c1.066-1.274 2.6-1.82 4.16-1.82 3.588 0 5.876 3.016 5.876 6.734 0 3.77-2.34 6.786-5.928 6.786-1.508 0-2.99-.598-3.926-1.742v5.226h-3.484zm6.552-6.708c1.898 0 3.224-1.482 3.224-3.536 0-2.054-1.326-3.536-3.224-3.536-1.768 0-3.094 1.456-3.094 3.536 0 2.054 1.3 3.536 3.094 3.536zM45.414 72V59h3.432v2.496c.364-1.066 1.69-2.756 4.55-2.756v3.796c-3.016 0-4.498 1.378-4.498 4.472V72h-3.484zm16.51.26c-3.797 0-7.125-2.47-7.125-6.76 0-3.744 2.912-6.76 6.734-6.76 3.536 0 6.318 3.016 6.318 6.708 0 .624-.078 1.248-.078 1.248h-9.438c.416 1.794 1.898 2.652 3.614 2.652 1.248 0 2.548-.364 3.51-1.014l1.3 2.496a8.758 8.758 0 01-4.836 1.43zm-3.64-7.878h6.291c-.26-1.638-1.56-2.73-3.146-2.73-1.508 0-2.808 1.092-3.146 2.73zM70.143 72V59h3.406v1.742c1.04-1.43 2.522-2.002 4.108-2.002 3.432 0 4.628 2.21 4.628 5.772V72h-3.484v-7.046c0-1.898-.494-2.912-2.262-2.912-1.742 0-2.912 1.404-2.912 3.38V72h-3.484zm20.086.26c-3.588 0-5.876-3.016-5.876-6.76 0-3.744 2.34-6.76 5.928-6.76 1.508 0 2.99.598 3.926 1.716v-5.564h3.484V72H94.39v-1.56c-.936 1.248-2.6 1.82-4.16 1.82zm.884-3.224c1.794 0 3.094-1.456 3.094-3.536 0-2.028-1.3-3.536-3.094-3.536-1.872 0-3.224 1.508-3.224 3.536 0 2.054 1.352 3.536 3.224 3.536zm15.954 3.224c-3.796 0-7.124-2.47-7.124-6.76 0-3.744 2.912-6.76 6.734-6.76 3.536 0 6.318 3.016 6.318 6.708 0 .624-.078 1.248-.078 1.248h-9.438c.416 1.794 1.898 2.652 3.614 2.652 1.248 0 2.548-.364 3.51-1.014l1.3 2.496a8.758 8.758 0 01-4.836 1.43zm-3.64-7.878h6.292c-.26-1.638-1.56-2.73-3.146-2.73-1.508 0-2.808 1.092-3.146 2.73zm23.06 7.878c-3.588 0-5.876-3.016-5.876-6.76 0-3.744 2.288-6.76 5.876-6.76 1.508 0 3.12.598 4.056 1.846V59h3.406v13h-3.406v-1.56c-.91 1.248-2.548 1.82-4.056 1.82zm.884-3.224c1.794 0 3.094-1.456 3.094-3.536 0-2.028-1.3-3.536-3.094-3.536-1.872 0-3.224 1.508-3.224 3.536 0 2.054 1.352 3.536 3.224 3.536zM27.401 102.26c-3.588 0-5.876-3.016-5.876-6.76 0-3.744 2.34-6.76 5.928-6.76 1.508 0 2.99.598 3.926 1.716v-5.564h3.484V102H31.56v-1.56c-.936 1.248-2.6 1.82-4.16 1.82zm.884-3.224c1.794 0 3.094-1.456 3.094-3.536 0-2.028-1.3-3.536-3.094-3.536-1.872 0-3.224 1.508-3.224 3.536 0 2.054 1.352 3.536 3.224 3.536zm15.954 3.224c-3.796 0-7.124-2.47-7.124-6.76 0-3.744 2.912-6.76 6.734-6.76 3.536 0 6.318 3.016 6.318 6.708 0 .624-.078 1.248-.078 1.248H40.65c.416 1.794 1.898 2.652 3.614 2.652 1.248 0 2.548-.364 3.51-1.014l1.3 2.496a8.758 8.758 0 01-4.836 1.43zm-3.64-7.878h6.292c-.26-1.638-1.56-2.73-3.146-2.73-1.508 0-2.808 1.092-3.146 2.73zm16.749 7.878c-2.6 0-4.004-1.508-4.004-4.446v-6.006h-1.898V89h1.898v-2.496l3.484-.78V89h3.588v2.808h-3.588v5.954c0 1.118.546 1.482 1.17 1.482.832 0 1.56-.468 1.664-.546l.988 2.574c-.78.52-1.924.988-3.302.988zm11.672 0c-3.796 0-7.124-2.47-7.124-6.76 0-3.744 2.912-6.76 6.734-6.76 3.536 0 6.318 3.016 6.318 6.708 0 .624-.078 1.248-.078 1.248h-9.438c.416 1.794 1.898 2.652 3.614 2.652 1.248 0 2.548-.364 3.51-1.014l1.3 2.496a8.758 8.758 0 01-4.836 1.43zm-3.64-7.878h6.292c-.26-1.638-1.56-2.73-3.146-2.73-1.508 0-2.808 1.092-3.146 2.73zm18.413 7.878c-3.874 0-6.942-2.99-6.942-6.76 0-3.77 3.068-6.76 6.942-6.76 1.794 0 3.354.598 4.654 1.664l-2.106 2.444c-.598-.546-1.43-.884-2.47-.884-2.028 0-3.484 1.482-3.484 3.536 0 2.028 1.378 3.536 3.588 3.536 1.092 0 2.158-.416 2.834-1.066l1.846 2.6c-1.248 1.066-2.99 1.69-4.862 1.69zm11.54 0c-2.6 0-4.005-1.508-4.005-4.446v-6.006H89.43V89h1.898v-2.496l3.484-.78V89H98.4v2.808h-3.588v5.954c0 1.118.546 1.482 1.17 1.482.832 0 1.56-.468 1.664-.546l.988 2.574c-.78.52-1.924.988-3.302.988zm10.423 0c-3.588 0-5.876-3.016-5.876-6.76 0-3.744 2.288-6.76 5.876-6.76 1.508 0 3.12.598 4.056 1.846V89h3.406v13h-3.406v-1.56c-.91 1.248-2.548 1.82-4.056 1.82zm.884-3.224c1.794 0 3.094-1.456 3.094-3.536 0-2.028-1.3-3.536-3.094-3.536-1.872 0-3.224 1.508-3.224 3.536 0 2.054 1.352 3.536 3.224 3.536zm9.22 2.964V89h3.432v2.496c.364-1.066 1.69-2.756 4.55-2.756v3.796c-3.016 0-4.498 1.378-4.498 4.472V102h-3.484zm-83.187 30.26c-3.796 0-7.124-2.47-7.124-6.76 0-3.744 2.912-6.76 6.734-6.76 3.536 0 6.318 3.016 6.318 6.708 0 .624-.078 1.248-.078 1.248h-9.438c.416 1.794 1.898 2.652 3.614 2.652 1.248 0 2.548-.364 3.51-1.014l1.3 2.496a8.758 8.758 0 01-4.836 1.43zm-3.64-7.878h6.292c-.26-1.638-1.56-2.73-3.146-2.73-1.508 0-2.808 1.092-3.146 2.73zm16.49 7.878c-2.783 0-4.577-1.092-5.305-1.768l1.248-2.678c.884.676 2.106 1.378 4.056 1.378.806 0 2.132-.312 2.132-1.092s-1.118-.962-2.236-1.274c-2.574-.676-4.68-1.534-4.68-4.03 0-2.652 2.6-4.056 5.044-4.056 2.132 0 3.484.52 4.836 1.3l-1.17 2.6c-1.274-.624-2.47-.91-3.614-.91-.806 0-1.56.364-1.56.91 0 .728 1.092.962 2.288 1.222 2.21.52 4.628 1.482 4.628 4.134 0 3.198-3.25 4.264-5.668 4.264zm12.625 0c-2.6 0-4.004-1.508-4.004-4.446v-6.006h-1.898V119h1.898v-2.496l3.484-.78V119h3.588v2.808h-3.588v5.954c0 1.118.546 1.482 1.17 1.482.832 0 1.56-.468 1.664-.546l.988 2.574c-.78.52-1.924.988-3.302.988zm10.424 0c-3.588 0-5.876-3.016-5.876-6.76 0-3.744 2.288-6.76 5.876-6.76 1.508 0 3.12.598 4.056 1.846V119h3.406v13h-3.406v-1.56c-.91 1.248-2.548 1.82-4.056 1.82zm.884-3.224c1.794 0 3.094-1.456 3.094-3.536 0-2.028-1.3-3.536-3.094-3.536-1.872 0-3.224 1.508-3.224 3.536 0 2.054 1.352 3.536 3.224 3.536zM79.222 132v-10.166h-2.028v-2.808h2.028v-.858c0-3.016 1.664-4.316 3.874-4.316 1.17 0 2.47.338 3.38.806l-.988 2.574c-.286-.13-.858-.39-1.456-.39-.728 0-1.326.364-1.326 1.716v.468h3.25v2.808h-3.25V132h-3.484zm13.446.26c-3.589 0-5.877-3.016-5.877-6.76 0-3.744 2.288-6.76 5.877-6.76 1.507 0 3.12.598 4.055 1.846V119h3.406v13h-3.406v-1.56c-.91 1.248-2.547 1.82-4.055 1.82zm.883-3.224c1.794 0 3.094-1.456 3.094-3.536 0-2.028-1.3-3.536-3.093-3.536-1.873 0-3.225 1.508-3.225 3.536 0 2.054 1.353 3.536 3.225 3.536zm13.848 3.224c-2.782 0-4.576-1.092-5.304-1.768l1.248-2.678c.884.676 2.106 1.378 4.056 1.378.806 0 2.132-.312 2.132-1.092s-1.118-.962-2.236-1.274c-2.574-.676-4.68-1.534-4.68-4.03 0-2.652 2.6-4.056 5.044-4.056 2.132 0 3.484.52 4.836 1.3l-1.17 2.6c-1.274-.624-2.47-.91-3.614-.91-.806 0-1.56.364-1.56.91 0 .728 1.092.962 2.288 1.222 2.21.52 4.628 1.482 4.628 4.134 0 3.198-3.25 4.264-5.668 4.264zm9.688 0c-1.17 0-2.054-.91-2.054-2.028 0-1.17.91-2.054 2.054-2.054 1.17 0 2.08.884 2.08 2.054 0 1.118-.91 2.028-2.08 2.028z" fill="#fff"/></svg>