<svg width="523" height="63" viewBox="0 0 523 63" fill="none" xmlns="http://www.w3.org/2000/svg"><path d="M.045 49.5V16.285h11.18v3.64c2.47-2.795 6.305-4.29 10.01-4.29 5.33 0 8.19 2.145 9.75 5.135 2.86-4.16 7.28-5.135 10.595-5.135 10.725 0 11.635 8.645 11.635 15.34V49.5h-11.83V32.34c0-3.965-1.105-5.785-3.705-5.785-3.51 0-5.135 3.185-5.135 7.28V49.5h-11.83V32.34c0-3.965-1.105-5.785-3.705-5.785-3.51 0-5.135 3.185-5.135 7.28V49.5H.045zm76.023.65c-10.075 0-18.655-6.305-18.655-17.225 0-9.62 7.475-17.29 17.29-17.29 9.425 0 16.64 7.67 16.64 17.29 0 2.015-.26 3.835-.26 3.835H69.048c.975 3.12 3.9 4.29 7.085 4.29 2.795 0 5.785-.845 7.865-2.015l3.965 7.995c-3.705 2.275-7.8 3.12-11.895 3.12zm-7.345-20.085h11.83c-.39-3.055-2.795-5.135-5.85-5.135-2.925 0-5.265 2.08-5.98 5.135zM95.895 49.5V16.285h11.18v3.835c3.055-3.575 6.695-4.485 10.01-4.485 8.385 0 11.635 4.94 11.635 14.69V49.5h-11.83V31.82c0-3.77-1.43-5.135-3.705-5.135-3.64 0-5.46 3.055-5.46 7.15V49.5h-11.83zm49.925.65c-7.605 0-11.83-2.275-13.78-3.965l3.77-8.32c2.6 1.755 5.005 2.795 10.075 2.795.13 0 3.25-.195 3.25-1.495 0-1.04-1.95-1.235-3.9-1.69-7.215-1.755-12.545-4.68-12.545-10.79 0-7.28 6.63-11.05 13.65-11.05 6.435 0 10.27 1.43 13.455 3.12l-3.51 7.93c-3.835-1.495-7.345-1.95-9.555-1.95-1.17 0-2.08.39-2.08 1.04 0 1.235 2.795 1.69 6.11 2.6 4.68 1.365 10.335 3.64 10.335 10.335 0 8.905-9.035 11.44-15.275 11.44zm32.722 0c-9.23 0-14.235-7.67-14.235-17.225 0-9.62 5.005-17.29 14.235-17.29 2.665 0 7.085.91 9.035 4.355v-3.705h11.18V49.5h-11.18v-3.705c-1.82 3.38-6.37 4.355-9.035 4.355zm3.12-10.4c3.12 0 5.33-2.795 5.33-6.825 0-3.965-2.21-6.89-5.33-6.89s-5.33 2.925-5.33 6.89c0 4.03 2.21 6.825 5.33 6.825zm21.035 22.36l-4.29-7.995c4.16-2.08 5.525-5.785 5.525-9.685V16.285h11.83v26.26c0 10.335-4.55 15.795-13.065 19.565zm7.085-48.36c-3.64 0-6.695-3.055-6.695-6.695 0-3.705 3.055-6.76 6.695-6.76 3.77 0 6.825 3.055 6.825 6.76 0 3.64-3.055 6.695-6.825 6.695zm29.167 36.4c-10.075 0-18.655-6.305-18.655-17.225 0-9.62 7.475-17.29 17.29-17.29 9.425 0 16.64 7.67 16.64 17.29 0 2.015-.26 3.835-.26 3.835h-22.035c.975 3.12 3.9 4.29 7.085 4.29 2.795 0 5.785-.845 7.865-2.015l3.965 7.995c-3.705 2.275-7.8 3.12-11.895 3.12zm-7.345-20.085h11.83c-.39-3.055-2.795-5.135-5.85-5.135-2.925 0-5.265 2.08-5.98 5.135zM286.77 50.15c-9.23 0-14.235-7.67-14.235-17.225 0-9.62 5.33-17.29 14.625-17.29 2.665 0 5.98.91 7.995 3.445V6.73h11.83V49.5h-11.18v-3.705c-1.755 3.38-6.37 4.355-9.035 4.355zm3.12-10.4c3.12 0 5.33-2.795 5.33-6.825 0-3.965-2.21-6.89-5.33-6.89s-5.33 2.925-5.33 6.89c0 4.03 2.21 6.825 5.33 6.825zm40.275 10.4c-10.075 0-18.655-6.305-18.655-17.225 0-9.62 7.475-17.29 17.29-17.29 9.425 0 16.64 7.67 16.64 17.29 0 2.015-.26 3.835-.26 3.835h-22.035c.975 3.12 3.9 4.29 7.085 4.29 2.795 0 5.785-.845 7.865-2.015l3.965 7.995c-3.705 2.275-7.8 3.12-11.895 3.12zm-7.345-20.085h11.83c-.39-3.055-2.795-5.135-5.85-5.135-2.925 0-5.265 2.08-5.98 5.135zm54.841 20.085c-6.37 0-10.53-4.095-10.53-11.375v-13.13h-4.875v-9.36h4.875v-5.98l11.83-2.925v8.905h7.345v9.36h-7.345v12.22c0 1.56.78 2.08 1.82 2.08.975 0 2.145-.455 2.99-1.04l3.185 8.645c-2.86 2.015-6.37 2.6-9.295 2.6zm30.389 0c-10.075 0-18.655-6.305-18.655-17.225 0-9.62 7.475-17.29 17.29-17.29 9.425 0 16.64 7.67 16.64 17.29 0 2.015-.26 3.835-.26 3.835H401.03c.975 3.12 3.9 4.29 7.085 4.29 2.795 0 5.785-.845 7.865-2.015l3.965 7.995c-3.705 2.275-7.8 3.12-11.895 3.12zm-7.345-20.085h11.83c-.39-3.055-2.795-5.135-5.85-5.135-2.925 0-5.265 2.08-5.98 5.135zM423.772 49.5l9.815-17.03-9.815-16.185h12.74l1.365 2.86c1.3 2.73 3.185 7.215 3.185 7.215s1.885-4.485 3.185-7.215l1.365-2.86h12.74l-9.815 16.185 9.815 17.03h-12.87l-1.625-3.64c-1.17-2.665-2.795-7.085-2.795-7.085s-1.69 4.355-2.86 7.085l-1.56 3.64h-12.87zm51.198.65c-6.37 0-10.53-4.095-10.53-11.375v-13.13h-4.875v-9.36h4.875v-5.98l11.83-2.925v8.905h7.345v9.36h-7.345v12.22c0 1.56.78 2.08 1.82 2.08.975 0 2.145-.455 2.99-1.04l3.185 8.645c-2.86 2.015-6.37 2.6-9.295 2.6zm29.675 0c-10.205 0-17.94-7.67-17.94-17.225 0-9.62 7.735-17.29 17.94-17.29 10.205 0 17.94 7.67 17.94 17.29 0 9.555-7.735 17.225-17.94 17.225zm0-10.4c3.51 0 5.98-2.795 5.98-6.825 0-3.965-2.47-6.89-5.98-6.89-3.51 0-5.98 2.925-5.98 6.89 0 4.03 2.47 6.825 5.98 6.825z" fill="#fff"/></svg>