<svg width="302" height="237" viewBox="0 0 302 237" fill="none" xmlns="http://www.w3.org/2000/svg"><path fill-rule="evenodd" clip-rule="evenodd" d="M177.511-5.342c-24.621 0-48.69 7.106-69.162 20.42-20.472 13.315-36.428 32.24-45.85 54.38-9.422 22.142-11.888 46.505-7.084 70.01 4.803 23.505 16.66 45.096 34.07 62.042 17.41 16.946 39.592 28.486 63.74 33.162 24.148 4.675 49.179 2.275 71.926-6.896s42.19-24.702 55.869-44.628c13.679-19.927 20.98-43.354 20.98-67.319 0-32.137-13.116-62.957-36.462-85.681-23.346-22.724-55.01-35.49-88.027-35.49z" fill="#495E89" opacity=".54"/><path fill-rule="evenodd" clip-rule="evenodd" d="M14.216 147.991c-2.811 0-5.56.812-7.898 2.332a13.928 13.928 0 00-5.236 6.211 13.492 13.492 0 00-.809 7.994 13.723 13.723 0 003.89 7.085 14.328 14.328 0 007.28 3.787 14.58 14.58 0 008.214-.787 14.141 14.141 0 006.38-5.096 13.578 13.578 0 002.396-7.688c0-3.67-1.498-7.19-4.164-9.785-2.666-2.595-6.282-4.053-10.053-4.053zM285.671-3.098c-2.092 0-4.137.603-5.876 1.735a10.356 10.356 0 00-3.894 4.62 10.043 10.043 0 00-.601 5.947 10.217 10.217 0 002.896 5.27 10.671 10.671 0 005.416 2.815c2.052.396 4.178.191 6.11-.589 1.932-.78 3.583-2.1 4.744-3.794a10.093 10.093 0 001.778-5.72 10.157 10.157 0 00-3.099-7.273 10.723 10.723 0 00-7.474-3.011z" fill="#7588AF"/><path fill-rule="evenodd" clip-rule="evenodd" d="M93.582-19c-18.055-.002-35.705 5.209-50.718 14.971C27.851 5.734 16.15 19.611 9.24 35.846 2.33 52.082.522 69.947 4.044 87.183c3.522 17.237 12.216 33.069 24.982 45.496 12.767 12.426 29.033 20.889 46.741 24.317 17.708 3.428 36.063 1.668 52.743-5.058 16.681-6.726 30.937-18.116 40.967-32.728 10.03-14.613 15.382-31.792 15.381-49.366 0-23.563-9.617-46.16-26.734-62.822C141.006-9.64 117.79-19 93.582-19z" fill="#1A2B4F" opacity=".51"/></svg>