<svg width="609" height="59" viewBox="0 0 609 59" fill="none" xmlns="http://www.w3.org/2000/svg"><path d="M.592 58V8.104h20.79c16.71 0 27.181 11.319 27.181 24.948S38.091 58 21.383 58H.592zm14.63-12.397h5.621c7.47 0 12.243-5.313 12.243-12.551 0-7.161-4.774-12.551-12.243-12.551h-5.62v25.102zM77.97 58.77c-11.935 0-22.1-7.469-22.1-20.405 0-11.396 8.856-20.482 20.483-20.482 11.165 0 19.712 9.086 19.712 20.482 0 2.387-.308 4.543-.308 4.543H69.653c1.155 3.696 4.62 5.082 8.393 5.082 3.31 0 6.853-1.001 9.317-2.387l4.697 9.471c-4.39 2.695-9.24 3.696-14.091 3.696zm-8.701-23.793h14.014c-.462-3.619-3.311-6.083-6.93-6.083-3.465 0-6.237 2.464-7.084 6.083zm50.206 23.793c-7.546 0-12.474-4.851-12.474-13.475V29.741h-5.775V18.653H107v-7.084l14.014-3.465v10.549h8.701v11.088h-8.701v14.476c0 1.848.924 2.464 2.156 2.464 1.155 0 2.541-.539 3.542-1.232l3.773 10.241c-3.388 2.387-7.546 3.08-11.011 3.08zm30.687-44.66L158.246.327h13.475L160.556 14.11h-10.395zm7.623 44.66c-11.935 0-22.099-7.469-22.099-20.405 0-11.396 8.855-20.482 20.482-20.482 11.165 0 19.712 9.086 19.712 20.482 0 2.387-.308 4.543-.308 4.543h-26.103c1.155 3.696 4.62 5.082 8.393 5.082 3.311 0 6.853-1.001 9.317-2.387l4.697 9.471c-4.389 2.695-9.24 3.696-14.091 3.696zm-8.701-23.793h14.014c-.462-3.619-3.311-6.083-6.93-6.083-3.465 0-6.237 2.464-7.084 6.083zM183.581 58V18.653h13.244v4.543c3.619-4.235 7.931-5.313 11.858-5.313 9.933 0 13.783 5.852 13.783 17.402V58h-14.014V37.056c0-4.466-1.694-6.083-4.389-6.083-4.312 0-6.468 3.619-6.468 8.47V58h-14.014zm87.685.77c-11.935 0-22.099-7.469-22.099-20.405 0-11.396 8.855-20.482 20.482-20.482 11.165 0 19.712 9.086 19.712 20.482 0 2.387-.308 4.543-.308 4.543H262.95c1.155 3.696 4.62 5.082 8.393 5.082 3.311 0 6.853-1.001 9.317-2.387l4.697 9.471c-4.389 2.695-9.24 3.696-14.091 3.696zm-8.701-23.793h14.014c-.462-3.619-3.311-6.083-6.93-6.083-3.465 0-6.237 2.464-7.084 6.083zM297.063 58V7.334h14.014V58h-14.014zm44.152 0V30.049h-5.929V18.961h5.929v-2.464c0-8.624 4.928-13.475 12.474-13.475 3.465 0 7.623.539 11.011 2.233l-3.773 10.241c-1.001-.385-2.079-.616-3.08-.616-1.463 0-2.618.77-2.618 3.234v.847h7.7v11.088h-7.7V58h-14.014zm27.221 0V18.653h13.629v7.007c.231-1.694 3.619-7.777 12.859-7.777v15.246c-10.164 0-12.474 4.235-12.474 11.627V58h-14.014zm49.533.77c-10.934 0-16.863-9.086-16.863-20.405 0-11.396 5.929-20.482 16.863-20.482 3.157 0 8.393 1.078 10.703 5.159v-4.389h13.244V58h-13.244v-4.389c-2.156 4.004-7.546 5.159-10.703 5.159zm3.696-12.32c3.696 0 6.314-3.311 6.314-8.085 0-4.697-2.618-8.162-6.314-8.162s-6.314 3.465-6.314 8.162c0 4.774 2.618 8.085 6.314 8.085zm42.628 12.32c-11.858 0-14.322-7.392-14.322-17.402V18.653h14.014v20.944c0 4.158 1.386 6.083 5.082 6.083 4.235 0 5.775-3.619 5.775-8.47V18.653h14.014V58h-13.244v-4.312c-2.156 2.772-7.238 5.082-11.319 5.082zm49.132 0c-10.934 0-16.863-9.086-16.863-20.405 0-11.396 6.314-20.482 17.325-20.482 3.157 0 7.084 1.078 9.471 4.081V7.334h14.014V58h-13.244v-4.389c-2.079 4.004-7.546 5.159-10.703 5.159zm3.696-12.32c3.696 0 6.314-3.311 6.314-8.085 0-4.697-2.618-8.162-6.314-8.162s-6.314 3.465-6.314 8.162c0 4.774 2.618 8.085 6.314 8.085zm50.02 12.32c-11.935 0-22.099-7.469-22.099-20.405 0-11.396 8.855-20.482 20.482-20.482 11.165 0 19.712 9.086 19.712 20.482 0 2.387-.308 4.543-.308 4.543h-26.103c1.155 3.696 4.62 5.082 8.393 5.082 3.311 0 6.853-1.001 9.317-2.387l4.697 9.471c-4.389 2.695-9.24 3.696-14.091 3.696zm-8.701-23.793h14.014c-.462-3.619-3.311-6.083-6.93-6.083-3.465 0-6.237 2.464-7.084 6.083zm42.738 23.793c-4.389 0-7.623-3.311-7.623-7.546s3.234-7.546 7.623-7.546c4.466 0 7.777 3.311 7.777 7.546s-3.311 7.546-7.777 7.546z" fill="#fff"/></svg>