<svg width="407" height="92" viewBox="0 0 407 92" fill="none" xmlns="http://www.w3.org/2000/svg"><path d="M.648 33V1.896h23.52v3.36H4.488v9.456H22.92v3.312H4.488V29.64h20.4V33H.648zm29.388 0V1.416h3.648V33h-3.648zm21.738 0V12.648h-3.792V9.624h3.792V7.848c0-5.808 3.072-7.392 6.288-7.392 2.304 0 4.464.864 5.616 1.584l-1.2 2.784c-.48-.288-1.872-1.152-3.648-1.152-1.824 0-3.408.912-3.408 4.56v1.392h7.44v3.024h-7.44V33h-3.648zm15.046 0V9.624h3.648v4.944c1.344-3.072 4.368-5.424 9.024-5.424v3.984c-5.472 0-9.024 3.072-9.024 8.784V33H66.82zm26.966.48c-6.48 0-11.04-5.376-11.04-12.144 0-6.864 4.56-12.192 11.04-12.192 3.744 0 7.056 1.536 8.784 4.56v-4.08h3.648V33h-3.648v-4.08c-1.728 3.072-5.04 4.56-8.784 4.56zm.816-3.552c4.464 0 7.968-3.696 7.968-8.592 0-4.896-3.504-8.64-7.968-8.64-4.656 0-8.112 3.648-8.112 8.64 0 4.944 3.456 8.592 8.112 8.592zm26.337 3.552c-5.76 0-8.496-3.024-8.496-9.264V9.624h3.648v14.112c0 4.368 2.112 6.192 5.904 6.192 4.224 0 6.672-3.456 6.672-7.056V9.624h3.648V33h-3.504v-4.128c-1.44 3.024-4.8 4.608-7.872 4.608zm28.089 0c-6.48 0-11.04-5.376-11.04-12.144 0-6.864 4.56-12.192 11.04-12.192 3.744 0 7.056 1.536 8.784 4.56V1.416h3.648V33h-3.504v-4.08c-1.728 3.072-5.136 4.56-8.928 4.56zm.816-3.552c4.464 0 7.968-3.696 7.968-8.592 0-4.896-3.504-8.64-7.968-8.64-4.656 0-8.112 3.648-8.112 8.64 0 4.944 3.456 8.592 8.112 8.592zm29.504 3.552c-6.624 0-12.24-4.752-12.24-12.144 0-6.768 5.088-12.192 11.76-12.192 6.24 0 11.184 5.376 11.184 12.048 0 .672-.096 1.392-.096 1.44H170.9c.576 4.656 4.176 7.584 8.496 7.584 2.64 0 5.28-.912 7.2-2.496l1.584 2.688a14.303 14.303 0 01-8.832 3.072zM170.9 19.848h15.552c-.384-4.32-3.696-7.44-7.776-7.44-3.984 0-7.248 3.072-7.776 7.44zm35.769 19.92V9.624h3.504v4.032c1.728-3.024 5.136-4.512 8.928-4.512 6.48 0 11.04 5.328 11.04 12.144s-4.56 12.192-11.04 12.192c-3.696 0-7.056-1.536-8.784-4.56v10.848h-3.648zm11.616-9.84c4.656 0 8.112-3.648 8.112-8.64 0-4.944-3.456-8.592-8.112-8.592-4.464 0-7.968 3.696-7.968 8.592 0 4.896 3.504 8.64 7.968 8.64zm25.616 3.552c-5.76 0-8.496-3.024-8.496-9.264V9.624h3.648v14.112c0 4.368 2.112 6.192 5.904 6.192 4.224 0 6.672-3.456 6.672-7.056V9.624h3.649V33h-3.505v-4.128c-1.44 3.024-4.8 4.608-7.872 4.608zm29.289 0c-6.624 0-12.24-4.752-12.24-12.144 0-6.768 5.088-12.192 11.76-12.192 6.24 0 11.184 5.376 11.184 12.048 0 .672-.096 1.392-.096 1.44h-19.056c.576 4.656 4.176 7.584 8.496 7.584 2.64 0 5.28-.912 7.2-2.496l1.584 2.688a14.303 14.303 0 01-8.832 3.072zm-8.448-13.632h15.552c-.384-4.32-3.696-7.44-7.776-7.44-3.984 0-7.248 3.072-7.776 7.44zm34.916 13.632c-6.48 0-11.04-5.376-11.04-12.144 0-6.864 4.56-12.192 11.04-12.192 3.744 0 7.056 1.536 8.784 4.56V1.416h3.648V33h-3.504v-4.08c-1.728 3.072-5.136 4.56-8.928 4.56zm.816-3.552c4.464 0 7.968-3.696 7.968-8.592 0-4.896-3.504-8.64-7.968-8.64-4.656 0-8.112 3.648-8.112 8.64 0 4.944 3.456 8.592 8.112 8.592zm29.504 3.552c-6.624 0-12.24-4.752-12.24-12.144 0-6.768 5.088-12.192 11.76-12.192 6.24 0 11.184 5.376 11.184 12.048 0 .672-.096 1.392-.096 1.44H321.53c.576 4.656 4.176 7.584 8.496 7.584 2.64 0 5.28-.912 7.2-2.496l1.584 2.688a14.303 14.303 0 01-8.832 3.072zm-8.448-13.632h15.552c-.384-4.32-3.696-7.44-7.776-7.44-3.984 0-7.248 3.072-7.776 7.44zM.072 84V52.416H3.72V84H.072zm10.277 0V52.416h3.648V84h-3.648zm21.557.48c-6.624 0-12.24-4.752-12.24-12.144 0-6.768 5.088-12.192 11.76-12.192 6.24 0 11.184 5.376 11.184 12.048 0 .672-.096 1.392-.096 1.44H23.458c.576 4.656 4.176 7.584 8.496 7.584 2.64 0 5.28-.912 7.2-2.496l1.584 2.688a14.303 14.303 0 01-8.832 3.072zm-8.448-13.632H39.01c-.384-4.32-3.696-7.44-7.776-7.44-3.984 0-7.248 3.072-7.776 7.44zm35.347 20.208c-3.744 0-6.96-1.248-9.168-3.456l1.536-2.352c1.872 1.872 4.608 2.928 7.344 2.928 3.984 0 8.496-2.448 8.496-9.36v-.768c-1.008 2.64-4.224 4.8-8.736 4.8-6.432 0-10.944-4.992-10.944-11.328 0-6.336 4.512-11.376 10.944-11.376 4.032 0 7.68 1.824 8.88 4.752v-4.272h3.504V78.72c0 9.408-6.72 12.336-11.856 12.336zm.192-11.472c4.56 0 8.016-3.456 8.016-8.352 0-4.416-3.6-7.824-8.016-7.824-4.464 0-7.92 3.504-7.92 8.112 0 4.608 3.456 8.064 7.92 8.064zm28.356 4.896c-6.48 0-11.04-5.376-11.04-12.144 0-6.864 4.56-12.192 11.04-12.192 3.744 0 7.056 1.536 8.784 4.56v-4.08h3.648V84h-3.648v-4.08c-1.728 3.072-5.04 4.56-8.784 4.56zm.816-3.552c4.464 0 7.968-3.696 7.968-8.592 0-4.896-3.504-8.64-7.968-8.64-4.656 0-8.112 3.648-8.112 8.64 0 4.944 3.456 8.592 8.112 8.592zM106.394 84V60.624h3.648v4.944c1.344-3.072 4.368-5.424 9.024-5.424v3.984c-5.472 0-9.024 3.072-9.024 8.784V84h-3.648zm38.368.48c-6.48 0-11.04-5.376-11.04-12.144 0-6.864 4.56-12.192 11.04-12.192 3.744 0 7.056 1.536 8.784 4.56v-4.08h3.648V84h-3.648v-4.08c-1.728 3.072-5.04 4.56-8.784 4.56zm.816-3.552c4.464 0 7.968-3.696 7.968-8.592 0-4.896-3.504-8.64-7.968-8.64-4.656 0-8.112 3.648-8.112 8.64 0 4.944 3.456 8.592 8.112 8.592zm36.982 3.552c-4.128 0-6.576-2.016-6.576-7.488V63.648h-3.504v-3.024h3.504v-5.04l3.648-.672v5.712h7.968v3.024h-7.968v13.44c0 3.216 1.392 4.128 3.264 4.128 2.16 0 3.84-1.296 3.84-1.296l1.2 2.832c-.912.624-2.832 1.728-5.376 1.728zm10.187-.48V60.624h3.648v4.944c1.344-3.072 4.368-5.424 9.024-5.424v3.984c-5.472 0-9.024 3.072-9.024 8.784V84h-3.648zm26.966.48c-6.48 0-11.04-5.376-11.04-12.144 0-6.864 4.56-12.192 11.04-12.192 3.744 0 7.056 1.536 8.784 4.56v-4.08h3.648V84h-3.648v-4.08c-1.728 3.072-5.04 4.56-8.784 4.56zm.816-3.552c4.464 0 7.968-3.696 7.968-8.592 0-4.896-3.504-8.64-7.968-8.64-4.656 0-8.112 3.648-8.112 8.64 0 4.944 3.456 8.592 8.112 8.592zm25.905 3.216l-10.32-23.52h3.696l6.624 14.928c.96 2.16 1.68 4.656 1.68 4.656s.72-2.496 1.68-4.656l6.576-14.928h3.696l-10.272 23.52h-3.36zm25.338-27.264l3.888-6.384h3.984l-4.512 6.384h-3.36zm2.976 27.6c-6.624 0-12.24-4.752-12.24-12.144 0-6.768 5.088-12.192 11.76-12.192 6.24 0 11.184 5.376 11.184 12.048 0 .672-.096 1.392-.096 1.44H266.3c.576 4.656 4.176 7.584 8.496 7.584 2.64 0 5.28-.912 7.2-2.496l1.584 2.688a14.303 14.303 0 01-8.832 3.072zM266.3 70.848h15.552c-.384-4.32-3.696-7.44-7.776-7.44-3.984 0-7.248 3.072-7.776 7.44zm32.708 13.632c-4.752 0-7.776-2.16-9.12-3.552l1.488-2.976c1.728 1.68 4.224 3.072 7.632 3.072 3.216 0 5.856-1.488 5.856-3.6 0-2.448-2.832-3.12-5.664-3.84-4.32-1.104-8.256-2.304-8.256-6.768 0-4.224 4.416-6.672 8.352-6.672 3.216 0 5.568.864 7.968 2.496l-1.44 2.976c-1.968-1.344-4.032-2.016-6.48-2.016-2.4 0-4.656 1.344-4.656 3.168 0 2.304 2.592 2.832 5.328 3.408 4.224.96 8.592 2.544 8.592 7.152 0 4.944-5.04 7.152-9.6 7.152zm36.121 0c-6.48 0-11.04-5.376-11.04-12.144 0-6.864 4.56-12.192 11.04-12.192 3.744 0 7.056 1.536 8.784 4.56V52.416h3.648V84h-3.504v-4.08c-1.728 3.072-5.136 4.56-8.928 4.56zm.816-3.552c4.464 0 7.968-3.696 7.968-8.592 0-4.896-3.504-8.64-7.968-8.64-4.656 0-8.112 3.648-8.112 8.64 0 4.944 3.456 8.592 8.112 8.592zm29.505 3.552c-6.624 0-12.24-4.752-12.24-12.144 0-6.768 5.088-12.192 11.76-12.192 6.24 0 11.184 5.376 11.184 12.048 0 .672-.096 1.392-.096 1.44h-19.056c.576 4.656 4.176 7.584 8.496 7.584 2.64 0 5.28-.912 7.2-2.496l1.584 2.688a14.303 14.303 0 01-8.832 3.072zm-8.448-13.632h15.552c-.384-4.32-3.696-7.44-7.776-7.44-3.984 0-7.248 3.072-7.776 7.44zm26.611 13.632c-1.44 0-2.496-1.152-2.496-2.544 0-1.392 1.104-2.544 2.496-2.544a2.56 2.56 0 012.544 2.544 2.56 2.56 0 01-2.544 2.544zm10.23 0c-1.44 0-2.496-1.152-2.496-2.544 0-1.392 1.104-2.544 2.496-2.544a2.56 2.56 0 012.544 2.544 2.56 2.56 0 01-2.544 2.544zm10.23 0c-1.44 0-2.496-1.152-2.496-2.544 0-1.392 1.104-2.544 2.496-2.544a2.56 2.56 0 012.544 2.544 2.56 2.56 0 01-2.544 2.544z" fill="#fff" fill-opacity=".75"/></svg>