<svg width="292" height="64" viewBox="0 0 292 64" fill="none" xmlns="http://www.w3.org/2000/svg"><rect x="1" y="1" width="290" height="62" rx="3" fill="#FF9759" stroke="#F2B795" stroke-width="2"/><path d="M32.92 41.525l7.335-18.144h5.488l7.336 18.144h-5.432l-.84-2.352h-7.616l-.84 2.352H32.92zm7.7-6.44h4.76l-2.157-6.132c-.168-.448-.196-.616-.224-.728 0 0-.056.252-.224.728l-2.156 6.132zm14.792 6.44V23.38h8.008c5.572 0 8.428 3.22 8.428 7.168s-2.856 7.168-8.456 7.168h-2.66v3.808h-5.32zm5.32-8.316h2.8c1.568 0 2.688-1.176 2.688-2.66 0-1.484-1.12-2.66-2.66-2.66h-2.828v5.32zm14.162 8.316V23.38h8.008c5.572 0 8.428 3.22 8.428 7.168 0 2.1-.952 4.256-2.856 5.572l3.388 5.404h-6.076l-2.072-3.892c-.56.056-.868.084-1.316.084h-2.184v3.808h-5.32zm5.32-8.316h2.744c1.652 0 2.744-1.204 2.744-2.66 0-1.484-1.12-2.66-2.716-2.66h-2.772v5.32zm14.19 8.316V23.38h14.419v4.508h-9.1V30.1h8.736v4.452h-8.736v2.464h9.436v4.508H94.403zm17.431 0V23.38h4.62l5.768 8.036c.42.56.812 1.372.812 1.372V23.38h5.32v18.144h-4.62l-5.768-7.896c-.42-.56-.812-1.372-.812-1.372v9.268h-5.32zm20.165 0V23.38h7.56c6.076 0 9.884 4.116 9.884 9.072 0 4.956-3.808 9.072-9.884 9.072H132zm5.32-4.508h2.044c2.716 0 4.452-1.932 4.452-4.564 0-2.604-1.736-4.564-4.452-4.564h-2.044v9.128zm15.201 4.508V23.38h14.42v4.508h-9.1V30.1h8.736v4.452h-8.736v2.464h9.436v4.508h-14.756zm33.242.336c-5.768 0-9.604-4.172-9.604-9.408 0-5.18 3.836-9.352 9.604-9.352 2.772 0 5.264.98 6.916 2.632l-3.5 3.612c-1.288-1.316-2.324-1.428-3.192-1.428-2.352 0-4.284 1.904-4.284 4.536 0 2.688 1.792 4.592 4.284 4.592 1.484 0 2.856-.672 3.864-2.016l3.388 3.724c-1.82 2.016-4.368 3.108-7.476 3.108zm18.555 0c-5.824 0-9.716-4.172-9.716-9.408 0-5.18 3.892-9.352 9.716-9.352s9.744 4.172 9.744 9.352c0 5.236-3.92 9.408-9.744 9.408zm0-4.816c2.464 0 4.2-1.904 4.2-4.592 0-2.632-1.736-4.536-4.2-4.536-2.296 0-4.172 1.904-4.172 4.536 0 2.688 1.736 4.592 4.172 4.592zm-2.38-14.56l2.94-5.012h4.9l-4.06 5.012h-3.78zm15.194 19.04V23.38h4.536l3.556 5.096c.588.868 1.54 2.352 1.54 2.352s.952-1.484 1.54-2.352l3.556-5.096h4.536v18.144h-5.32V32.34s-.924 1.484-1.428 2.184l-2.884 4.032-2.912-4.032c-.504-.7-1.4-2.128-1.4-2.128v9.128h-5.32zm32.056.336c-5.824 0-9.716-4.172-9.716-9.408 0-5.18 3.892-9.352 9.716-9.352s9.744 4.172 9.744 9.352c0 5.236-3.92 9.408-9.744 9.408zm0-4.816c2.464 0 4.2-1.904 4.2-4.592 0-2.632-1.736-4.536-4.2-4.536-2.296 0-4.172 1.904-4.172 4.536 0 2.688 1.736 4.592 4.172 4.592z" fill="#101B31"/></svg>