<svg width="138" height="60" viewBox="0 0 138 60" fill="none" xmlns="http://www.w3.org/2000/svg"><rect x="1" y="1" width="136" height="58" rx="5" fill="#DEEDFC" stroke="#09C0CB" stroke-width="2"/><path d="M31.775 24.125h.765c.578 0 1.093-.091 1.547-.272.453-.182.833-.431 1.139-.748.317-.318.555-.692.714-1.122.17-.442.255-.924.255-1.445 0-.51-.085-.986-.255-1.428a3.227 3.227 0 00-.731-1.14 3.216 3.216 0 00-1.14-.747 4.09 4.09 0 00-1.53-.272h-.764v7.174zm-3.332-9.996h4.93c.872 0 1.688.175 2.448.527.77.35 1.439.821 2.006 1.41a6.31 6.31 0 011.36 2.04c.328.771.493 1.582.493 2.432 0 .838-.165 1.649-.493 2.43a6.322 6.322 0 01-1.343 2.04 6.484 6.484 0 01-2.006 1.412 5.798 5.798 0 01-2.465.527h-4.93V14.129zM49.44 16.95h-3.961v2.142h3.74v2.822h-3.74v2.21h3.96v2.822h-7.292V14.129h7.293v2.822zm7.604 0v9.996h-3.332V16.95h-2.737v-2.822h8.806v2.822h-2.737zm11.852 0h-3.96v2.142h3.74v2.822h-3.74v2.21h3.96v2.822h-7.293V14.129h7.293v2.822zm-.629-6.086l-3.264 2.244-1.292-1.207 2.771-2.652 1.785 1.615zm3.371 16.082V14.129h3.332l6.154 7.837v-7.837h3.316v12.818h-3.316l-6.153-7.837v7.837h-3.333zm29.24-9.996h-3.96v2.142h3.739v2.822h-3.74v2.21h3.961v2.822h-7.293V14.129h7.293v2.822zm6.074-2.822v9.996h3.995v2.822h-7.327V14.129h3.332zM41.435 36.95h-4.012v2.142h3.655v2.822h-3.655v5.032H34.09V34.129h7.344v2.822zm5.658 2.907h.629c.657 0 1.161-.136 1.513-.408.351-.272.527-.663.527-1.173s-.176-.901-.527-1.173c-.352-.272-.856-.408-1.513-.408h-.63v3.162zm7.327 7.089h-4.148l-3.18-4.93v4.93h-3.331V34.129h5.185c.714 0 1.337.107 1.87.323.532.204.969.487 1.309.85.351.362.612.782.782 1.258.181.476.272.986.272 1.53 0 .974-.238 1.768-.714 2.38-.465.6-1.156 1.008-2.074 1.224l4.029 5.253zm8.704-4.76l-1.496-4.267-1.496 4.267h2.992zm.884 2.533h-4.76l-.765 2.227H54.93l4.879-12.818h3.638l4.879 12.818h-3.553l-.765-2.227zm9.082-10.591v6.97c0 .374.012.759.034 1.156.034.385.12.736.255 1.054.148.317.374.578.68.782.306.192.737.289 1.292.289.556 0 .98-.097 1.275-.29a1.88 1.88 0 00.68-.781c.148-.318.233-.67.255-1.054.034-.397.051-.782.051-1.156v-6.97h3.315v7.429c0 1.994-.459 3.45-1.377 4.369-.906.918-2.306 1.377-4.199 1.377-1.892 0-3.298-.46-4.216-1.377-.918-.918-1.377-2.375-1.377-4.37V34.13h3.332zm14.203 9.996h.764c.578 0 1.094-.091 1.547-.272.454-.182.834-.431 1.14-.748.317-.318.555-.692.713-1.122.17-.442.256-.924.256-1.445 0-.51-.085-.986-.255-1.428a3.225 3.225 0 00-.731-1.14 3.215 3.215 0 00-1.14-.747 4.09 4.09 0 00-1.53-.272h-.764v7.174zm-3.333-9.996h4.93c.873 0 1.69.175 2.448.527.771.35 1.44.821 2.007 1.41a6.308 6.308 0 011.36 2.04c.328.771.493 1.582.493 2.432 0 .838-.165 1.649-.493 2.43a6.322 6.322 0 01-1.343 2.04 6.482 6.482 0 01-2.006 1.412 5.798 5.798 0 01-2.465.527h-4.93V34.129zm20.998 2.822h-3.961v2.142h3.74v2.822h-3.74v2.21h3.961v2.822h-7.293V34.129h7.293v2.822z" fill="#4A2B43"/></svg>