<svg width="728" height="15" viewBox="0 0 728 15" fill="none" xmlns="http://www.w3.org/2000/svg"><path fill="#EF6129" d="M0 0h728v15H0z"/><path d="M34.78 11.11c-1.053 0-1.843-.26-2.37-.78-.527-.52-.79-1.297-.79-2.33V3.95h1.84v4.06c0 .513.107.903.32 1.17.213.26.547.39 1 .39.453 0 .787-.13 1-.39.213-.267.32-.657.32-1.17V3.95h1.82V8c0 1.033-.26 1.81-.78 2.33s-1.307.78-2.36.78zm7.98-.11V3.95h1.36l3.57 4.43h-.29V3.95h1.71V11h-1.36L44.2 6.57h.29V11h-1.73zm17.767 0V3.95h1.6l2.31 5.17h-.33l2.3-5.17h1.61V11h-1.67V6.68h.43l-2 4.32h-1.04l-2.01-4.32h.46V11h-1.66zm12.408 0V3.95h5.06v1.41h-3.29v1.35h3.05v1.42h-3.05v1.45h3.29V11h-5.06zm9.625 0V3.95h1.36l3.57 4.43h-.29V3.95h1.71V11h-1.36L84 6.57h.29V11h-1.73zm13.897.11a6.422 6.422 0 01-1.62-.2c-.507-.14-.934-.327-1.28-.56l.52-1.43c.22.14.46.26.72.36.26.1.53.18.81.24.286.053.576.08.87.08.44 0 .743-.057.91-.17.173-.113.26-.26.26-.44a.438.438 0 00-.17-.37c-.114-.093-.327-.173-.64-.24l-1.22-.25c-.647-.133-1.13-.363-1.45-.69-.32-.333-.48-.767-.48-1.3 0-.467.123-.87.37-1.21.253-.347.606-.613 1.06-.8.453-.193.983-.29 1.59-.29.5 0 .97.07 1.41.21.44.133.8.32 1.08.56l-.52 1.34a2.976 2.976 0 00-.9-.44 3.629 3.629 0 00-1.11-.16c-.387 0-.68.06-.88.18a.538.538 0 00-.29.49c0 .147.056.273.17.38.12.1.336.183.65.25l1.2.24c.646.127 1.13.353 1.45.68.326.327.49.753.49 1.28 0 .453-.127.85-.38 1.19-.247.34-.594.603-1.04.79-.447.187-.974.28-1.58.28zm6.71-.11l3.3-7.05h1.5l3.32 7.05h-1.85l-.85-1.94.71.51h-4.14l.7-.51-.84 1.94h-1.85zm4.04-5.15l-1.17 2.79-.28-.47h2.93l-.25.47-1.18-2.79h-.05zm8.681 7.02c-.12 0-.27-.007-.45-.02-.18-.013-.36-.04-.54-.08v-1.41c.127.027.254.043.38.05.127.013.227.02.3.02.3 0 .507-.083.62-.25.12-.167.18-.437.18-.81V3.95h1.85v6.42c0 .56-.08 1.027-.24 1.4-.153.373-.4.65-.74.83-.34.18-.793.27-1.36.27zm7.244-1.87V3.95h5.06v1.41h-3.29v1.35h3.05v1.42h-3.05v1.45h3.29V11h-5.06zm15.926-3.53c0-.733.143-1.37.43-1.91.287-.547.697-.97 1.23-1.27.533-.3 1.163-.45 1.89-.45.733 0 1.367.15 1.9.45.533.3.943.723 1.23 1.27.293.54.44 1.177.44 1.91 0 .727-.147 1.363-.44 1.91a3.121 3.121 0 01-1.23 1.28c-.533.3-1.167.45-1.9.45-.727 0-1.357-.15-1.89-.45a3.198 3.198 0 01-1.23-1.28c-.287-.547-.43-1.183-.43-1.91zm1.93 0c0 .66.133 1.177.4 1.55.267.367.673.55 1.22.55.547 0 .957-.183 1.23-.55.273-.373.41-.89.41-1.55s-.137-1.173-.41-1.54c-.273-.367-.683-.55-1.23-.55-.547 0-.953.183-1.22.55-.267.36-.4.873-.4 1.54zm9.897 3.53V3.95h4.95v1.41h-3.1v1.43h2.87V8.2h-2.87V11h-1.85zm9.43 0V3.95h1.85V11h-1.85zm10.295.11c-.767 0-1.43-.15-1.99-.45a3.189 3.189 0 01-1.29-1.27c-.3-.547-.45-1.187-.45-1.92 0-.733.15-1.37.45-1.91.306-.547.736-.97 1.29-1.27.56-.3 1.223-.45 1.99-.45.486 0 .93.067 1.33.2.4.127.736.31 1.01.55l-.55 1.45a3.278 3.278 0 00-.85-.46 2.513 2.513 0 00-.87-.14c-.6 0-1.064.177-1.39.53-.32.347-.48.847-.48 1.5 0 .66.16 1.167.48 1.52.326.347.79.52 1.39.52.326 0 .616-.043.87-.13.26-.093.543-.25.85-.47l.55 1.45c-.274.24-.61.427-1.01.56-.4.127-.844.19-1.33.19zm6.905-.11V3.95h1.85V11h-1.85zm5.885 0l3.3-7.05h1.5l3.32 7.05h-1.85l-.85-1.94.71.51h-4.14l.7-.51-.84 1.94h-1.85zm4.04-5.15l-1.17 2.79-.28-.47h2.93l-.25.47-1.18-2.79h-.05zm8.115 5.15V3.95h1.85v5.52h3.02V11h-4.87zm15.872 0V3.95h2.84c.833 0 1.537.143 2.11.43a2.9 2.9 0 011.3 1.21c.3.52.45 1.147.45 1.88 0 .727-.15 1.353-.45 1.88a2.958 2.958 0 01-1.3 1.22c-.573.287-1.277.43-2.11.43h-2.84zm1.85-1.5h.87c.727 0 1.263-.167 1.61-.5.353-.333.53-.843.53-1.53 0-.693-.177-1.203-.53-1.53-.347-.333-.883-.5-1.61-.5h-.87V9.5zm9.562 1.5V3.95h5.06v1.41h-3.29v1.35h3.05v1.42h-3.05v1.45h3.29V11h-5.06zm16.146 0V3.95h1.6l2.31 5.17h-.33l2.3-5.17h1.61V11h-1.67V6.68h.43l-2 4.32h-1.04l-2.01-4.32h.46V11h-1.66zm12.408 0V3.95h5.06v1.41h-3.29v1.35h3.05v1.42h-3.05v1.45h3.29V11h-5.06zm9.626 0V3.95h2.84c.833 0 1.536.143 2.11.43.573.28 1.006.683 1.3 1.21.3.52.45 1.147.45 1.88 0 .727-.15 1.353-.45 1.88a2.963 2.963 0 01-1.3 1.22c-.574.287-1.277.43-2.11.43h-2.84zm1.85-1.5h.87c.726 0 1.263-.167 1.61-.5.353-.333.53-.843.53-1.53 0-.693-.177-1.203-.53-1.53-.347-.333-.884-.5-1.61-.5h-.87V9.5zm9.562 1.5V3.95h1.85V11h-1.85zm10.295.11c-.767 0-1.43-.15-1.99-.45a3.189 3.189 0 01-1.29-1.27c-.3-.547-.45-1.187-.45-1.92 0-.733.15-1.37.45-1.91.306-.547.736-.97 1.29-1.27.56-.3 1.223-.45 1.99-.45.486 0 .93.067 1.33.2.4.127.736.31 1.01.55l-.55 1.45a3.278 3.278 0 00-.85-.46 2.513 2.513 0 00-.87-.14c-.6 0-1.064.177-1.39.53-.32.347-.48.847-.48 1.5 0 .66.16 1.167.48 1.52.326.347.79.52 1.39.52.326 0 .616-.043.87-.13.26-.093.543-.25.85-.47l.55 1.45c-.274.24-.61.427-1.01.56-.4.127-.844.19-1.33.19zm5.918-.11l3.3-7.05h1.5l3.32 7.05h-1.85l-.85-1.94.71.51h-4.14l.7-.51-.84 1.94h-1.85zm4.04-5.15l-1.17 2.79-.28-.47h2.93l-.25.47-1.18-2.79h-.05zM300.8 11V3.95h3.33c.813 0 1.44.193 1.88.58.446.387.67.923.67 1.61 0 .46-.1.853-.3 1.18-.2.32-.49.57-.87.75-.38.173-.834.26-1.36.26l.09-.25h.5c.293 0 .553.08.78.24.226.16.413.383.56.67l1.07 2.01h-2.02l-1.15-2.25a.586.586 0 00-.33-.3c-.14-.053-.3-.08-.48-.08h-.52V11h-1.85zm1.85-3.94h1.16c.36 0 .633-.07.82-.21.186-.147.28-.363.28-.65 0-.28-.094-.49-.28-.63-.187-.14-.46-.21-.82-.21h-1.16v1.7zm8.879 3.94V3.95h5.06v1.41h-3.29v1.35h3.05v1.42h-3.05v1.45h3.29V11h-5.06z" fill="#fff"/></svg>