<svg width="300" height="26" viewBox="0 0 300 26" fill="none" xmlns="http://www.w3.org/2000/svg"><path d="M15.097 14.194H3.492c.169 1.024.615 1.84 1.342 2.444.727.606 1.657.907 2.786.907 1.35 0 2.51-.473 3.482-1.417l3.042 1.43c-.758 1.08-1.666 1.875-2.726 2.393-1.059.517-2.316.774-3.77.774-2.258 0-4.096-.712-5.516-2.14C.712 17.159 0 15.372 0 13.226c0-2.148.709-4.028 2.124-5.481 1.415-1.454 3.19-2.18 5.327-2.18 2.267 0 4.11.729 5.53 2.18 1.42 1.453 2.132 3.372 2.132 5.758l-.013.69-.003.002zm-3.611-2.85a3.62 3.62 0 00-1.413-1.96c-.703-.504-1.516-.757-2.445-.757-1.008 0-1.89.284-2.651.848-.478.354-.92.975-1.327 1.87h7.836zM26.36 7.951l-2.235 2.239c-.909-.903-1.735-1.352-2.474-1.352-.405 0-.725.085-.953.257-.231.172-.343.387-.343.642 0 .195.073.375.218.536.145.164.504.387 1.078.668l1.324.663c1.394.69 2.352 1.391 2.871 2.106.52.715.782 1.555.782 2.517 0 1.282-.47 2.35-1.41 3.206-.94.858-2.2 1.284-3.778 1.284-2.1 0-3.775-.822-5.029-2.465l2.223-2.425c.423.493.919.894 1.487 1.198.569.304 1.075.458 1.517.458.477 0 .859-.115 1.15-.343.29-.23.436-.495.436-.796 0-.557-.525-1.1-1.573-1.63l-1.218-.609c-2.329-1.175-3.492-2.646-3.492-4.412 0-1.139.439-2.114 1.316-2.922.878-.809 2.002-1.212 3.367-1.212a5.848 5.848 0 014.739 2.384l-.003.008zM30.14 16.577c.574 0 1.065.2 1.47.604.405.403.608.889.608 1.463 0 .575-.203 1.066-.608 1.472a2.002 2.002 0 01-1.47.608 2.006 2.006 0 01-1.469-.608 2.008 2.008 0 01-.607-1.472c0-.574.202-1.063.607-1.463a2.007 2.007 0 011.47-.604zM38.035.863h3.61l4.514 13.598L50.713.863h3.609l3.268 19.495h-3.58L51.923 8.047l-4.139 12.31h-3.268l-4.097-12.31-2.137 12.31h-3.616L38.035.864zM74.43 14.196H62.823c.166 1.027.615 1.841 1.342 2.447.727.603 1.657.907 2.789.907 1.35 0 2.51-.473 3.481-1.42l3.046 1.433c-.758 1.077-1.667 1.878-2.729 2.395-1.06.517-2.316.775-3.772.775-2.26 0-4.097-.713-5.52-2.14-1.42-1.427-2.131-3.214-2.131-5.359s.706-4.027 2.123-5.478c1.418-1.45 3.194-2.179 5.328-2.179 2.266 0 4.11.728 5.53 2.18 1.42 1.455 2.131 3.371 2.131 5.756l-.013.689h-.005l.005-.006zm-3.615-2.85a3.633 3.633 0 00-1.412-1.96c-.704-.504-1.516-.756-2.446-.756-1.007 0-1.89.283-2.653.847-.478.354-.922.978-1.327 1.87h7.838zM87.657.37h3.614v19.983h-3.614V18.83c-.706.67-1.412 1.157-2.12 1.45a5.957 5.957 0 01-2.309.445c-1.859 0-3.466-.723-4.824-2.166-1.358-1.443-2.038-3.24-2.038-5.387 0-2.148.654-4.05 1.97-5.476 1.314-1.422 2.906-2.134 4.786-2.134.864 0 1.674.164 2.432.489.758.325 1.457.819 2.1 1.471V.37h.003zm-3.8 8.535c-1.117 0-2.046.393-2.784 1.186-.737.79-1.108 1.805-1.108 3.042 0 1.238.376 2.27 1.126 3.073.75.804 1.675 1.204 2.776 1.204 1.1 0 2.077-.393 2.822-1.186.748-.79 1.119-1.825 1.119-3.11 0-1.284-.374-2.269-1.12-3.049-.747-.775-1.69-1.165-2.834-1.165v.005h.002zM96.38 0c.632 0 1.177.231 1.628.689.452.46.68 1.017.68 1.67 0 .652-.225 1.195-.674 1.65-.45.453-.984.684-1.608.684a2.237 2.237 0 01-1.643-.697 2.337 2.337 0 01-.68-1.69c0-.663.223-1.18.67-1.63.449-.45.989-.676 1.622-.676h.006zm-1.806 5.936h3.614v14.417h-3.614V5.936zM115.456 8.856l-3.007 1.659c-.563-.593-1.124-1.002-1.674-1.233-.553-.231-1.2-.346-1.942-.346-1.35 0-2.446.4-3.279 1.21-.834.805-1.252 1.84-1.252 3.101s.4 2.226 1.208 3.006c.802.774 1.858 1.165 3.167 1.165 1.615 0 2.874-.554 3.775-1.66l2.845 1.953c-1.544 2.013-3.723 3.019-6.54 3.019-2.533 0-4.514-.752-5.948-2.254-1.433-1.503-2.152-3.26-2.152-5.276 0-1.396.351-2.68 1.044-3.856.698-1.172 1.672-2.098 2.918-2.771 1.246-.671 2.646-1.006 4.188-1.006 1.43 0 2.713.286 3.85.855a7.27 7.27 0 012.791 2.434v.005l.008-.005zM128.011 5.935h3.614v14.417h-3.614V18.83c-.706.67-1.413 1.157-2.121 1.45a5.96 5.96 0 01-2.308.445c-1.859 0-3.466-.723-4.824-2.166-1.358-1.443-2.038-3.24-2.038-5.387 0-2.148.654-4.05 1.97-5.476 1.314-1.422 2.905-2.134 4.785-2.134.865 0 1.675.164 2.433.489.758.325 1.456.819 2.1 1.471V5.93v.005h.003zm-3.801 2.97c-1.116 0-2.046.392-2.783 1.185-.738.79-1.109 1.804-1.109 3.042 0 1.238.377 2.27 1.127 3.073.75.804 1.674 1.204 2.775 1.204s2.077-.393 2.822-1.186c.748-.79 1.119-1.825 1.119-3.11 0-1.284-.373-2.269-1.119-3.049-.747-.775-1.69-1.165-2.835-1.165v.005h.003zM134.69 5.936h3.098v1.817c.332-.715.781-1.26 1.337-1.63a3.229 3.229 0 011.825-.556c.467 0 .958.122 1.469.369l-1.124 3.112c-.426-.21-.771-.317-1.043-.317-.556 0-1.026.346-1.41 1.035-.384.689-.577 2.04-.577 4.056l.013.704v5.832h-3.585V5.936h-.005.002zM157.883 14.196h-11.605c.166 1.027.615 1.841 1.342 2.447.727.603 1.657.907 2.789.907 1.35 0 2.51-.473 3.481-1.42l3.045 1.433c-.758 1.077-1.666 1.878-2.728 2.395-1.059.517-2.316.775-3.773.775-2.258 0-4.096-.713-5.519-2.14-1.42-1.427-2.132-3.214-2.132-5.359s.707-4.027 2.124-5.478c1.418-1.45 3.193-2.179 5.328-2.179 2.266 0 4.109.728 5.53 2.18 1.42 1.455 2.131 3.371 2.131 5.756l-.013.689h-.005l.005-.006zm-3.614-2.85a3.633 3.633 0 00-1.412-1.96c-.701-.501-1.516-.756-2.446-.756-1.007 0-1.89.283-2.653.847-.478.354-.922.978-1.327 1.87h7.838zM161.606 16.58c.571 0 1.065.203 1.47.603.405.4.607.892.607 1.464s-.202 1.066-.607 1.472a2.007 2.007 0 01-1.47.608 2.005 2.005 0 01-1.469-.608 2.004 2.004 0 01-.608-1.472c0-.577.203-1.06.608-1.464a2.02 2.02 0 011.469-.603zM176.932 5.936h3.601v12.35c0 2.436-.488 4.23-1.469 5.38C177.75 25.22 175.769 26 173.121 26c-1.412 0-2.596-.174-3.562-.528-.961-.353-1.776-.87-2.433-1.557-.662-.684-1.15-1.519-1.469-2.496h3.982c.353.405.805.712 1.363.923.556.208 1.215.31 1.974.31.968 0 1.749-.152 2.341-.45.592-.302 1.008-.69 1.252-1.165.241-.479.366-1.3.366-2.465-.636.637-1.303 1.094-1.997 1.373-.698.278-1.485.418-2.37.418-1.934 0-3.565-.697-4.897-2.095-1.329-1.397-1.996-3.162-1.996-5.302 0-2.285.706-4.126 2.116-5.514 1.277-1.254 2.806-1.88 4.577-1.88.831 0 1.612.15 2.35.457.737.307 1.477.806 2.214 1.503V5.936zm-3.744 3.01c-1.139 0-2.077.383-2.819 1.145-.743.764-1.111 1.726-1.111 2.883s.381 2.187 1.14 2.954c.758.767 1.71 1.151 2.858 1.151 1.148 0 2.046-.374 2.77-1.125.727-.752 1.093-1.737 1.093-2.954s-.366-2.179-1.101-2.93c-.729-.752-1.674-1.126-2.83-1.126v.003zM190.724 5.567c1.357 0 2.635.343 3.832 1.022 1.194.681 2.129 1.602 2.798 2.772a7.453 7.453 0 011.005 3.777 7.607 7.607 0 01-1.012 3.817 7.278 7.278 0 01-2.76 2.775c-1.163.668-2.451 1-3.85 1-2.064 0-3.827-.735-5.289-2.207-1.462-1.471-2.191-3.255-2.191-5.358 0-2.255.825-4.132 2.474-5.635 1.446-1.308 3.108-1.96 4.99-1.96l.005-.005-.002.002zm.059 3.409c-1.124 0-2.056.39-2.804 1.172-.747.783-1.119 1.782-1.119 3.004s.369 2.27 1.109 3.05c.737.78 1.672 1.164 2.804 1.164s2.072-.392 2.822-1.18c.75-.788 1.127-1.797 1.127-3.034 0-1.238-.369-2.244-1.109-3.014-.737-.772-1.68-1.162-2.83-1.162zM198.722 5.937h3.681l3.638 8.51 3.629-8.51h3.661l-6.127 14.416h-2.342l-6.143-14.416h.006-.003zM213.908 23.847L222.696.185h2.599l-8.804 23.662h-2.583zM229.065.744h10.78v3.64h-7.08v3.56h4.6v3.585h-4.6v8.825h-3.7V.742v.002zM241.745 5.85h3.116v1.826c.337-.72.786-1.266 1.345-1.64a3.228 3.228 0 011.838-.56c.47 0 .963.125 1.477.375l-1.132 3.133c-.426-.213-.776-.32-1.051-.32-.559 0-1.031.346-1.418 1.04-.387.694-.579 2.054-.579 4.08l.013.707v5.865h-3.606V5.851h-.003zM262.006 5.85h3.635v14.506h-3.635v-1.534c-.709.676-1.42 1.162-2.134 1.459a5.949 5.949 0 01-2.321.447c-1.869 0-3.489-.726-4.852-2.179-1.366-1.453-2.049-3.26-2.049-5.418 0-2.158.66-4.074 1.981-5.507 1.322-1.43 2.926-2.148 4.814-2.148.869 0 1.685.164 2.445.494.764.33 1.467.822 2.114 1.48v-1.6h.002zm-3.819 2.988c-1.124 0-2.056.398-2.799 1.194-.742.795-1.113 1.814-1.113 3.06 0 1.245.379 2.285 1.134 3.094.756.808 1.688 1.214 2.794 1.214s2.087-.398 2.84-1.194c.753-.795 1.127-1.838 1.127-3.125s-.377-2.282-1.127-3.065c-.753-.783-1.703-1.173-2.853-1.173l-.003-.005zM269.302 5.849h3.673v6.986c0 1.36.094 2.304.281 2.834.187.528.488.941.901 1.233.412.29.921.439 1.529.439.607 0 1.119-.146 1.542-.434.423-.289.737-.713.94-1.274.15-.419.226-1.31.226-2.68V5.845h3.634v6.147c0 2.532-.199 4.266-.599 5.2-.488 1.139-1.207 2.01-2.158 2.62-.95.609-2.157.913-3.622.913-1.588 0-2.874-.356-3.852-1.066-.982-.71-1.67-1.703-2.07-2.972-.283-.878-.425-2.48-.425-4.8V5.85zM296.365.25H300v20.103h-3.635v-1.534c-.709.676-1.42 1.162-2.134 1.458a5.949 5.949 0 01-2.321.447c-1.869 0-3.489-.725-4.852-2.178-1.366-1.454-2.049-3.26-2.049-5.419 0-2.158.66-4.074 1.981-5.507 1.322-1.43 2.926-2.147 4.814-2.147.869 0 1.685.164 2.445.494.764.33 1.467.821 2.114 1.48v-7.2l.002.002zm-3.819 8.585c-1.124 0-2.056.397-2.799 1.193-.742.796-1.113 1.815-1.113 3.06 0 1.246.379 2.286 1.134 3.094.756.809 1.688 1.214 2.794 1.214s2.087-.397 2.84-1.193c.753-.796 1.127-1.838 1.127-3.125s-.377-2.283-1.127-3.066c-.753-.782-1.703-1.172-2.853-1.172l-.003-.005z" fill="#fff"/></svg>