<svg width="138" height="121" viewBox="0 0 138 121" fill="none" xmlns="http://www.w3.org/2000/svg"><path d="M32.864 3.677l-2.492 1.476c-.466-.808-.91-1.336-1.331-1.582-.44-.281-1.007-.422-1.701-.422-.853 0-1.56.242-2.123.726-.562.474-.843 1.072-.843 1.792 0 .994.738 1.793 2.214 2.4l2.03.83c1.653.668 2.862 1.486 3.626 2.453.765.958 1.147 2.135 1.147 3.533 0 1.872-.624 3.419-1.872 4.64-1.257 1.23-2.817 1.846-4.68 1.846-1.767 0-3.226-.523-4.377-1.569-1.134-1.046-1.841-2.518-2.123-4.416l3.112-.686c.14 1.196.386 2.022.738 2.479.633.879 1.556 1.318 2.768 1.318.959 0 1.754-.32 2.387-.962.633-.642.949-1.455.949-2.44 0-.395-.057-.755-.171-1.08a2.537 2.537 0 00-.515-.91 3.76 3.76 0 00-.896-.778 8.312 8.312 0 00-1.318-.698l-1.965-.818c-2.786-1.178-4.179-2.9-4.179-5.168 0-1.53.585-2.808 1.753-3.836C24.172.768 25.626.249 27.366.249c2.347 0 4.18 1.143 5.498 3.428zm6.631 4.482V21H36.53V8.16h2.966zm-3.414-5.34c0-.518.188-.966.566-1.344.378-.378.831-.567 1.358-.567.536 0 .993.19 1.371.567.378.37.567.822.567 1.358 0 .536-.189.993-.566 1.371-.37.378-.822.567-1.358.567-.537 0-.994-.189-1.371-.567a1.883 1.883 0 01-.567-1.384zm18.865 12.46h-9.202c.08 1.054.422 1.893 1.029 2.517.606.616 1.384.923 2.333.923.738 0 1.35-.175 1.832-.527.475-.352 1.016-1.002 1.622-1.951l2.505 1.397c-.387.66-.795 1.226-1.226 1.7a6.79 6.79 0 01-1.384 1.161 5.66 5.66 0 01-1.596.66c-.57.14-1.19.21-1.858.21-1.916 0-3.455-.615-4.615-1.846-1.16-1.239-1.74-2.882-1.74-4.93 0-2.03.563-3.674 1.688-4.93 1.133-1.24 2.636-1.86 4.508-1.86 1.89 0 3.384.602 4.483 1.806 1.09 1.196 1.634 2.852 1.634 4.97l-.013.7zm-3.045-2.427c-.413-1.582-1.41-2.373-2.993-2.373-.36 0-.699.058-1.015.172a2.8 2.8 0 00-.87.475 2.96 2.96 0 00-.66.738 3.46 3.46 0 00-.421.988H51.9zm6.302-4.693h2.966v1.187c.571-.598 1.059-1.002 1.463-1.213.431-.22.971-.33 1.622-.33 1.45 0 2.597.633 3.44 1.899.932-1.266 2.194-1.899 3.784-1.899 2.892 0 4.338 1.754 4.338 5.26V21h-2.98v-7.132c0-1.23-.149-2.1-.448-2.61-.307-.52-.813-.778-1.516-.778-.817 0-1.415.307-1.793.922-.369.616-.554 1.604-.554 2.967V21h-2.98v-7.093c0-2.285-.658-3.428-1.977-3.428-.835 0-1.445.313-1.832.937-.378.624-.567 1.608-.567 2.953V21h-2.966V8.16zm24.666 19.828h-2.966V8.16h2.966v1.398c1.17-1.17 2.496-1.754 3.982-1.754 1.766 0 3.22.65 4.363 1.951 1.16 1.292 1.74 2.923 1.74 4.892 0 1.924-.575 3.528-1.726 4.811-1.143 1.275-2.584 1.912-4.325 1.912-1.503 0-2.847-.602-4.034-1.806v8.424zm7.053-13.328c0-1.23-.334-2.233-1.002-3.006-.676-.782-1.529-1.174-2.557-1.174-1.09 0-1.973.378-2.65 1.134-.677.756-1.015 1.75-1.015 2.98 0 1.204.338 2.197 1.015 2.98.668.764 1.547 1.146 2.637 1.146 1.028 0 1.876-.387 2.544-1.16.686-.773 1.028-1.74 1.028-2.9zm6.17-6.5h2.967v1.147c.544-.571 1.028-.962 1.45-1.173.43-.22.94-.33 1.529-.33.782 0 1.6.255 2.452.765l-1.358 2.716c-.562-.405-1.111-.607-1.648-.607-1.617 0-2.425 1.222-2.425 3.665V21h-2.967V8.16zm21.608 7.12h-9.202c.079 1.054.422 1.893 1.028 2.517.607.616 1.385.923 2.334.923.738 0 1.349-.175 1.832-.527.475-.352 1.016-1.002 1.622-1.951l2.505 1.397c-.387.66-.796 1.226-1.226 1.7a6.781 6.781 0 01-1.385 1.161 5.647 5.647 0 01-1.595.66c-.571.14-1.191.21-1.859.21-1.916 0-3.454-.615-4.614-1.846-1.16-1.239-1.74-2.882-1.74-4.93 0-2.03.562-3.674 1.687-4.93 1.134-1.24 2.637-1.86 4.509-1.86 1.89 0 3.384.602 4.483 1.806 1.089 1.196 1.634 2.852 1.634 4.97l-.013.7zm-3.045-2.427c-.413-1.582-1.411-2.373-2.993-2.373-.36 0-.699.058-1.015.172a2.808 2.808 0 00-.87.475 2.946 2.946 0 00-.659.738 3.43 3.43 0 00-.422.988h5.959zM9.845 41.16h2.966v1.147c.545-.571 1.029-.962 1.45-1.173.431-.22.941-.33 1.53-.33.782 0 1.6.255 2.452.765l-1.358 2.716c-.562-.405-1.112-.607-1.648-.607-1.617 0-2.425 1.222-2.425 3.665V54H9.845V41.16zm21.608 7.12h-9.202c.08 1.054.422 1.893 1.028 2.517.607.616 1.385.923 2.334.923.738 0 1.349-.175 1.832-.527.475-.352 1.015-1.002 1.622-1.951l2.505 1.397c-.387.66-.796 1.226-1.226 1.7A6.79 6.79 0 0128.96 53.5a5.66 5.66 0 01-1.595.66c-.571.14-1.19.21-1.859.21-1.916 0-3.454-.615-4.614-1.846-1.16-1.239-1.74-2.882-1.74-4.93 0-2.03.562-3.674 1.687-4.93 1.134-1.24 2.637-1.86 4.51-1.86 1.889 0 3.383.602 4.481 1.806 1.09 1.196 1.635 2.852 1.635 4.97l-.013.7zm-3.045-2.427c-.413-1.581-1.41-2.372-2.993-2.372-.36 0-.699.057-1.015.17a2.8 2.8 0 00-.87.476 2.96 2.96 0 00-.66.738 3.46 3.46 0 00-.421.989h5.959zm7.422-4.693l3.322 7.212 3.31-7.212h3.335l-6.671 13.724-6.618-13.724h3.322zm14.95 0V54h-2.966V41.16h2.966zm-3.414-5.34c0-.518.189-.966.567-1.344.377-.378.83-.567 1.358-.567.536 0 .993.19 1.37.567.379.37.567.822.567 1.358 0 .536-.188.993-.566 1.371-.37.378-.822.567-1.358.567-.536 0-.994-.189-1.371-.567a1.883 1.883 0 01-.567-1.384zm14.633 7.529l-2.452 1.305c-.386-.791-.865-1.187-1.437-1.187a.976.976 0 00-.698.277.883.883 0 00-.29.686c0 .492.57.98 1.713 1.463 1.574.677 2.633 1.3 3.178 1.872.545.571.817 1.34.817 2.307 0 1.24-.457 2.277-1.371 3.112-.888.79-1.96 1.186-3.217 1.186-2.153 0-3.678-1.05-4.575-3.15l2.532-1.174c.351.615.62 1.006.804 1.173.36.334.79.501 1.292.501 1.002 0 1.503-.457 1.503-1.37 0-.528-.387-1.02-1.16-1.477-.3-.15-.598-.295-.897-.435-.299-.141-.602-.286-.91-.435-.86-.422-1.467-.844-1.819-1.266-.448-.536-.672-1.226-.672-2.07 0-1.116.382-2.039 1.147-2.768.782-.73 1.731-1.095 2.847-1.095 1.644 0 2.866.848 3.665 2.545zm12.973-2.189h2.98V54h-2.98v-1.345c-1.221 1.143-2.535 1.714-3.942 1.714-1.775 0-3.243-.642-4.403-1.925-1.151-1.31-1.727-2.944-1.727-4.904 0-1.925.576-3.529 1.727-4.812 1.151-1.283 2.593-1.925 4.324-1.925 1.494 0 2.835.616 4.021 1.846v-1.49zm-7.04 6.381c0 1.23.33 2.233.989 3.006.677.782 1.53 1.173 2.557 1.173 1.1 0 1.987-.378 2.664-1.134.676-.782 1.015-1.775 1.015-2.979 0-1.204-.339-2.197-1.015-2.98-.677-.764-1.556-1.146-2.637-1.146-1.02 0-1.872.386-2.558 1.16-.677.782-1.015 1.749-1.015 2.9zm27.352-3.314V54h-4.887v-9.774h-1.62v-4.077h1.62v-4.158h4.887v4.158h2.78v4.077h-2.78zm9.505-4.077v7.803c0 1.71.828 2.565 2.484 2.565 1.656 0 2.484-.855 2.484-2.565v-7.803h4.887v8.748c0 1.872-.621 3.276-1.863 4.212-1.224.936-3.06 1.404-5.508 1.404s-4.293-.468-5.535-1.404c-1.224-.936-1.836-2.34-1.836-4.212v-8.748h4.887zm22.355 3.564c-.9-.468-1.782-.702-2.646-.702-.45 0-.819.09-1.107.27-.27.18-.405.423-.405.729 0 .162.018.297.054.405.054.09.153.18.297.27.162.09.387.171.675.243.306.072.702.162 1.188.27 1.35.27 2.358.756 3.024 1.458.666.684.999 1.566.999 2.646 0 .81-.162 1.539-.486 2.187a4.778 4.778 0 01-1.35 1.647c-.576.432-1.269.765-2.079.999-.81.252-1.701.378-2.673.378-1.872 0-3.717-.531-5.535-1.593l1.782-3.456c1.368.936 2.664 1.404 3.888 1.404.45 0 .819-.099 1.107-.297.288-.198.432-.45.432-.756a.973.973 0 00-.081-.432.576.576 0 00-.27-.324c-.144-.108-.36-.198-.648-.27a9.34 9.34 0 00-1.08-.27c-1.512-.306-2.574-.756-3.186-1.35-.594-.612-.891-1.449-.891-2.511 0-.774.144-1.467.432-2.079a4.304 4.304 0 011.242-1.593c.54-.432 1.188-.765 1.944-.999.774-.234 1.629-.351 2.565-.351 1.53 0 3.015.297 4.455.891l-1.647 3.186zM5.878 78.674V87H1.715v-8.326H.22v-3.473h1.495V73.43c0-.981.092-1.763.276-2.346.153-.49.399-.943.736-1.357.337-.43.728-.797 1.173-1.104.46-.307.95-.544 1.472-.713a4.986 4.986 0 011.54-.253c.354 0 .676.038.967.115.307.077.613.184.92.322v3.634a3.852 3.852 0 00-.782-.299 2.312 2.312 0 00-.736-.115c-.169 0-.345.03-.53.092-.168.046-.329.153-.482.322-.153.169-.26.414-.322.736a8.998 8.998 0 00-.07 1.265v1.472H8.8v3.473H5.878zm8.587 2.392c0 .383.07.744.207 1.081.138.322.322.606.552.851.246.245.53.437.851.575.338.138.698.207 1.081.207a2.6 2.6 0 001.035-.207c.338-.138.621-.33.851-.575.246-.245.437-.529.575-.851.154-.322.23-.667.23-1.035 0-.368-.076-.713-.23-1.035a2.628 2.628 0 00-.575-.874 2.387 2.387 0 00-.85-.575 2.6 2.6 0 00-1.036-.207c-.383 0-.743.069-1.08.207-.323.138-.606.33-.852.575-.23.245-.414.529-.552.851a2.438 2.438 0 00-.207 1.012zm5.244-5.865h4.186V87H19.71v-1.311c-.889 1.12-2.093 1.679-3.61 1.679a5.988 5.988 0 01-2.37-.46 5.86 5.86 0 01-1.886-1.334 6.262 6.262 0 01-1.265-2.001 7.002 7.002 0 01-.437-2.507c0-.843.146-1.64.437-2.392a6.151 6.151 0 011.22-2.001 5.606 5.606 0 011.862-1.334c.721-.337 1.518-.506 2.392-.506 1.472 0 2.691.514 3.657 1.541v-1.173zm15.92 3.818c-.72-.49-1.449-.736-2.185-.736-.398 0-.774.069-1.127.207a2.707 2.707 0 00-.897.598c-.26.245-.467.544-.62.897-.139.337-.208.72-.208 1.15 0 .414.07.797.207 1.15.154.337.353.636.598.897.26.245.568.437.92.575.353.138.729.207 1.127.207.782 0 1.51-.268 2.185-.805v3.542c-1.027.445-2 .667-2.92.667a6.993 6.993 0 01-2.462-.437 6.484 6.484 0 01-2.047-1.242 6.427 6.427 0 01-1.403-1.955c-.352-.767-.529-1.618-.529-2.553 0-.935.169-1.786.506-2.553a5.985 5.985 0 011.38-2.001 6.036 6.036 0 012.07-1.311 6.99 6.99 0 012.6-.483c1.011 0 1.947.215 2.805.644v3.542zm7.02-.345V87h-4.162v-8.326h-1.38v-3.473h1.38v-3.542h4.163v3.542h2.369v3.473h-2.37zm8.098-3.473v6.647c0 1.457.705 2.185 2.116 2.185 1.41 0 2.116-.728 2.116-2.185v-6.647h4.163v7.452c0 1.595-.53 2.79-1.587 3.588-1.043.797-2.607 1.196-4.692 1.196-2.086 0-3.657-.399-4.715-1.196-1.043-.797-1.564-1.993-1.564-3.588v-7.452h4.163zm11.222 0h4.163v1.932c.445-.705.99-1.242 1.633-1.61.644-.383 1.396-.575 2.254-.575h.346c.138 0 .29.015.46.046v3.979a3.955 3.955 0 00-1.794-.414c-.967 0-1.695.291-2.186.874-.475.567-.713 1.403-.713 2.507V87H61.97V75.201zm14.713 5.865c0 .383.07.744.207 1.081.138.322.322.606.552.851.245.245.53.437.851.575.337.138.698.207 1.081.207a2.6 2.6 0 001.035-.207c.337-.138.621-.33.851-.575.245-.245.437-.529.575-.851.153-.322.23-.667.23-1.035 0-.368-.077-.713-.23-1.035a2.628 2.628 0 00-.575-.874 2.387 2.387 0 00-.85-.575 2.6 2.6 0 00-1.036-.207c-.383 0-.744.069-1.08.207-.323.138-.607.33-.852.575-.23.245-.414.529-.552.851a2.438 2.438 0 00-.207 1.012zm5.244-5.865h4.186V87h-4.186v-1.311c-.89 1.12-2.093 1.679-3.61 1.679a5.988 5.988 0 01-2.37-.46 5.86 5.86 0 01-1.886-1.334 6.262 6.262 0 01-1.265-2.001 7.002 7.002 0 01-.437-2.507c0-.843.146-1.64.437-2.392a6.151 6.151 0 011.22-2.001 5.606 5.606 0 011.862-1.334c.72-.337 1.518-.506 2.392-.506 1.472 0 2.691.514 3.657 1.541v-1.173zm14.839 3.036c-.767-.399-1.518-.598-2.254-.598-.383 0-.698.077-.943.23a.712.712 0 00-.345.621c0 .138.015.253.046.345.046.077.13.153.253.23.138.077.33.146.575.207.26.061.598.138 1.012.23 1.15.23 2.009.644 2.576 1.242.567.583.851 1.334.851 2.254 0 .69-.138 1.311-.414 1.863a4.07 4.07 0 01-1.15 1.403c-.49.368-1.081.652-1.771.851a7.636 7.636 0 01-2.277.322c-1.595 0-3.166-.452-4.715-1.357l1.518-2.944c1.165.797 2.27 1.196 3.312 1.196.383 0 .698-.084.943-.253.245-.169.368-.383.368-.644a.829.829 0 00-.069-.368.49.49 0 00-.23-.276c-.123-.092-.307-.169-.552-.23a7.953 7.953 0 00-.92-.23c-1.288-.26-2.193-.644-2.714-1.15-.506-.521-.759-1.234-.759-2.139 0-.66.123-1.25.368-1.771a3.667 3.667 0 011.058-1.357 4.973 4.973 0 011.656-.851 7.53 7.53 0 012.185-.299c1.303 0 2.568.253 3.795.759l-1.403 2.714zm15.563 2.829c0 .383.069.744.207 1.081.138.322.322.606.552.851.245.245.529.437.851.575.337.138.697.207 1.081.207a2.6 2.6 0 001.035-.207 2.39 2.39 0 00.851-.575c.245-.245.437-.529.575-.851.153-.322.23-.667.23-1.035 0-.368-.077-.713-.23-1.035a2.633 2.633 0 00-.575-.874 2.39 2.39 0 00-.851-.575 2.6 2.6 0 00-1.035-.207c-.368 0-.721.069-1.058.207-.322.138-.606.33-.851.575-.23.245-.422.529-.575.851a2.438 2.438 0 00-.207 1.012zm5.244-13.156h4.186V87h-4.186v-1.311c-.89 1.12-2.093 1.679-3.611 1.679a5.738 5.738 0 01-4.255-1.817 6.245 6.245 0 01-1.265-2.001 6.921 6.921 0 01-.437-2.484c0-.843.138-1.64.414-2.392a6.134 6.134 0 011.219-2.001 5.6 5.6 0 011.863-1.334 5.727 5.727 0 012.415-.506c1.472 0 2.691.514 3.657 1.541V67.91zm15.644 11.477c-.138-.583-.422-1.05-.851-1.403-.43-.353-.951-.529-1.564-.529-.644 0-1.173.169-1.587.506-.399.337-.652.813-.759 1.426h4.761zm-4.876 2.415c0 1.794.843 2.691 2.53 2.691.904 0 1.587-.368 2.047-1.104h4.025c-.813 2.699-2.845 4.048-6.095 4.048-.997 0-1.909-.146-2.737-.437a6.38 6.38 0 01-2.139-1.288 5.76 5.76 0 01-1.357-1.978c-.322-.767-.483-1.625-.483-2.576 0-.981.153-1.863.46-2.645a5.551 5.551 0 011.311-2.024 5.686 5.686 0 012.047-1.265c.812-.307 1.725-.46 2.737-.46.996 0 1.893.153 2.691.46.797.291 1.472.72 2.024 1.288.552.567.973 1.265 1.265 2.093.291.813.437 1.733.437 2.76v.437h-8.763zM.842 120l3.2-18.85h4.85l3.775 10.05 3.75-10.05h4.85l3.2 18.85h-4.875l-1.625-10.85-4.45 10.85h-1.95l-4.225-10.85L5.717 120H.842zm34.996-8.275c-.15-.633-.459-1.142-.925-1.525-.467-.383-1.034-.575-1.7-.575-.7 0-1.275.183-1.725.55-.434.367-.709.883-.825 1.55h5.175zm-5.3 2.625c0 1.95.916 2.925 2.75 2.925.983 0 1.725-.4 2.225-1.2h4.375c-.884 2.933-3.092 4.4-6.625 4.4-1.084 0-2.075-.158-2.975-.475-.9-.333-1.675-.8-2.325-1.4a6.27 6.27 0 01-1.475-2.15c-.35-.833-.525-1.767-.525-2.8 0-1.067.166-2.025.5-2.875.333-.867.808-1.6 1.425-2.2a6.195 6.195 0 012.225-1.375c.883-.333 1.875-.5 2.975-.5 1.083 0 2.058.167 2.925.5.866.317 1.6.783 2.2 1.4.6.617 1.058 1.375 1.375 2.275.316.883.475 1.883.475 3v.475h-9.525zm16.311-.8c0 .417.075.808.225 1.175.15.35.35.658.6.925.267.267.575.475.925.625.367.15.759.225 1.175.225.4 0 .775-.075 1.125-.225a2.59 2.59 0 00.925-.625c.267-.267.475-.575.625-.925.167-.35.25-.725.25-1.125s-.083-.775-.25-1.125a2.855 2.855 0 00-.625-.95 2.59 2.59 0 00-.925-.625 2.825 2.825 0 00-1.125-.225c-.4 0-.783.075-1.15.225a2.92 2.92 0 00-.925.625c-.25.267-.458.575-.625.925-.15.333-.225.7-.225 1.1zm5.7-14.3h4.55V120h-4.55v-1.425c-.966 1.217-2.275 1.825-3.925 1.825-.933 0-1.791-.175-2.575-.525a6.366 6.366 0 01-2.05-1.45 6.817 6.817 0 01-1.375-2.175 7.537 7.537 0 01-.475-2.7c0-.917.15-1.783.45-2.6a6.696 6.696 0 011.325-2.175 6.09 6.09 0 012.025-1.45c.8-.367 1.675-.55 2.625-.55 1.6 0 2.925.558 3.975 1.675v-9.2zm12.154 7.925V120h-4.525v-12.825h4.525zm-4.825-4.925c0-.35.067-.675.2-.975a2.55 2.55 0 01.55-.825c.234-.233.5-.417.8-.55.317-.133.65-.2 1-.2s.675.067.975.2c.317.133.592.317.825.55.234.233.417.508.55.825.134.3.2.625.2.975s-.066.683-.2 1c-.133.3-.316.567-.55.8a2.555 2.555 0 01-.825.55c-.3.133-.625.2-.975.2s-.683-.067-1-.2a2.638 2.638 0 01-.8-.55 2.635 2.635 0 01-.55-.8c-.133-.317-.2-.65-.2-1zm17.593 9.075c-.784-.533-1.575-.8-2.375-.8-.434 0-.842.075-1.225.225-.367.15-.692.367-.975.65a2.925 2.925 0 00-.675.975c-.15.367-.225.783-.225 1.25 0 .45.075.867.225 1.25.166.367.383.692.65.975.283.267.616.475 1 .625.383.15.791.225 1.225.225.85 0 1.641-.292 2.375-.875v3.85c-1.117.483-2.175.725-3.175.725a7.592 7.592 0 01-2.675-.475 7.061 7.061 0 01-2.225-1.35 6.98 6.98 0 01-1.525-2.125c-.384-.833-.575-1.758-.575-2.775s.183-1.942.55-2.775a6.505 6.505 0 011.5-2.175 6.548 6.548 0 012.25-1.425 7.598 7.598 0 012.825-.525c1.1 0 2.116.233 3.05.7v3.85zm6.78 2.225c0 .417.075.808.225 1.175.15.35.35.658.6.925.267.267.576.475.925.625.367.15.759.225 1.175.225.4 0 .775-.075 1.126-.225a2.59 2.59 0 00.924-.625 2.93 2.93 0 00.626-.925c.166-.35.25-.725.25-1.125s-.084-.775-.25-1.125a2.857 2.857 0 00-.626-.95 2.59 2.59 0 00-.924-.625 2.825 2.825 0 00-1.126-.225c-.416 0-.808.075-1.175.225-.35.15-.658.358-.925.625-.25.267-.45.575-.6.925-.15.333-.225.7-.225 1.1zm5.7-6.375h4.55V120h-4.55v-1.425c-.966 1.217-2.274 1.825-3.924 1.825-.934 0-1.792-.167-2.576-.5a6.364 6.364 0 01-2.05-1.45 6.813 6.813 0 01-1.374-2.175c-.317-.833-.475-1.742-.475-2.725 0-.917.158-1.783.474-2.6a6.692 6.692 0 011.326-2.175 6.087 6.087 0 012.024-1.45c.784-.367 1.65-.55 2.6-.55 1.6 0 2.925.558 3.975 1.675v-1.275zm7.63 0h4.525v2.1c.483-.767 1.075-1.35 1.775-1.75.7-.417 1.516-.625 2.45-.625h.375c.15 0 .316.017.5.05v4.325a4.3 4.3 0 00-1.95-.45c-1.05 0-1.842.317-2.375.95-.517.617-.775 1.525-.775 2.725v5.5h-4.525v-12.825zm21.167 4.55c-.15-.633-.459-1.142-.925-1.525-.467-.383-1.034-.575-1.7-.575-.7 0-1.275.183-1.725.55-.434.367-.709.883-.825 1.55h5.175zm-5.3 2.625c0 1.95.916 2.925 2.75 2.925.983 0 1.725-.4 2.225-1.2h4.375c-.884 2.933-3.092 4.4-6.625 4.4-1.084 0-2.075-.158-2.975-.475-.9-.333-1.675-.8-2.325-1.4a6.26 6.26 0 01-1.475-2.15c-.35-.833-.525-1.767-.525-2.8 0-1.067.166-2.025.5-2.875.333-.867.808-1.6 1.425-2.2a6.187 6.187 0 012.225-1.375c.883-.333 1.875-.5 2.975-.5 1.083 0 2.058.167 2.925.5.866.317 1.6.783 2.2 1.4.6.617 1.058 1.375 1.375 2.275.316.883.475 1.883.475 3v.475h-9.525zm11.303 4.306c0-.224.042-.434.126-.63a1.604 1.604 0 011.512-1.008c.224 0 .434.042.63.126a1.59 1.59 0 01.882.882 1.684 1.684 0 010 1.274 1.624 1.624 0 01-.882.868 1.687 1.687 0 01-1.274 0 1.651 1.651 0 01-.868-.868 1.684 1.684 0 01-.126-.644zm4.758 0c0-.224.042-.434.126-.63a1.604 1.604 0 011.512-1.008c.224 0 .434.042.63.126.205.084.383.201.532.35.149.149.266.327.35.532a1.684 1.684 0 010 1.274 1.604 1.604 0 01-.882.868 1.684 1.684 0 01-1.274 0 1.64 1.64 0 01-.868-.868 1.684 1.684 0 01-.126-.644zm4.758 0c0-.224.042-.434.126-.63a1.604 1.604 0 011.512-1.008c.224 0 .434.042.63.126.205.084.383.201.532.35.149.149.266.327.35.532a1.684 1.684 0 010 1.274 1.604 1.604 0 01-.882.868 1.684 1.684 0 01-1.274 0 1.64 1.64 0 01-.868-.868 1.684 1.684 0 01-.126-.644z" fill="#fff"/></svg>