<svg width="260" height="50" viewBox="0 0 260 50" fill="none" xmlns="http://www.w3.org/2000/svg"><path d="M9.48 19.64h2.924c3.24 0 4.86-1.41 4.86-4.23 0-2.82-1.62-4.23-4.86-4.23H9.48v8.46zm0 18.36H.66V4.07H14.7c3.81 0 6.72.99 8.73 2.97 2.04 1.98 3.06 4.77 3.06 8.37 0 3.6-1.02 6.39-3.06 8.37-2.01 1.98-4.92 2.97-8.73 2.97H9.48V38zm22.262-23.085h8.145v3.78c.87-1.38 1.935-2.43 3.195-3.15 1.26-.75 2.73-1.125 4.41-1.125h.675c.27 0 .57.03.9.09v7.785a7.739 7.739 0 00-3.51-.81c-1.89 0-3.315.57-4.275 1.71-.93 1.11-1.395 2.745-1.395 4.905V38h-8.145V14.915zm30.183 11.43c0 .78.135 1.5.405 2.16a6.5 6.5 0 001.125 1.665c.48.48 1.035.855 1.665 1.125.66.27 1.35.405 2.07.405.72 0 1.395-.135 2.025-.405a4.669 4.669 0 001.665-1.125c.48-.48.855-1.035 1.125-1.665.3-.66.45-1.365.45-2.115 0-.72-.15-1.395-.45-2.025a5.14 5.14 0 00-1.125-1.71 4.669 4.669 0 00-1.665-1.125 5.086 5.086 0 00-2.025-.405c-.72 0-1.41.135-2.07.405-.63.27-1.185.645-1.665 1.125a6.5 6.5 0 00-1.125 1.665 5.086 5.086 0 00-.405 2.025zm-8.595-.09c0-1.71.345-3.3 1.035-4.77.69-1.5 1.65-2.79 2.88-3.87 1.23-1.11 2.685-1.98 4.365-2.61 1.71-.63 3.57-.945 5.58-.945 1.98 0 3.81.315 5.49.945 1.71.6 3.18 1.455 4.41 2.565a11.102 11.102 0 012.925 3.915c.69 1.5 1.035 3.165 1.035 4.995s-.36 3.51-1.08 5.04c-.69 1.5-1.65 2.805-2.88 3.915-1.23 1.08-2.715 1.92-4.455 2.52-1.71.6-3.57.9-5.58.9-1.98 0-3.81-.3-5.49-.9-1.68-.6-3.135-1.455-4.365-2.565a12.117 12.117 0 01-2.835-3.96c-.69-1.56-1.035-3.285-1.035-5.175zm42.98-4.545V38h-8.144V21.71h-2.7v-6.795h2.7v-6.93h8.145v6.93h4.635v6.795h-4.635zm26.362 1.395c-.27-1.14-.825-2.055-1.665-2.745-.84-.69-1.86-1.035-3.06-1.035-1.26 0-2.295.33-3.105.99-.78.66-1.275 1.59-1.485 2.79h9.315zm-9.54 4.725c0 3.51 1.65 5.265 4.95 5.265 1.77 0 3.105-.72 4.005-2.16h7.875c-1.59 5.28-5.565 7.92-11.925 7.92-1.95 0-3.735-.285-5.355-.855-1.62-.6-3.015-1.44-4.185-2.52a11.278 11.278 0 01-2.655-3.87c-.63-1.5-.945-3.18-.945-5.04 0-1.92.3-3.645.9-5.175.6-1.56 1.455-2.88 2.565-3.96 1.11-1.08 2.445-1.905 4.005-2.475 1.59-.6 3.375-.9 5.355-.9 1.95 0 3.705.3 5.265.9 1.56.57 2.88 1.41 3.96 2.52s1.905 2.475 2.475 4.095c.57 1.59.855 3.39.855 5.4v.855h-17.145zm12.285-23.22l-7.83 6.93-3.78-2.79 6.435-7.875 5.175 3.735zm18.426 21.735c0 .75.135 1.455.405 2.115.27.63.63 1.185 1.08 1.665.48.48 1.035.855 1.665 1.125.66.27 1.365.405 2.115.405.72 0 1.395-.135 2.025-.405a4.669 4.669 0 001.665-1.125c.48-.48.855-1.035 1.125-1.665.3-.66.45-1.35.45-2.07 0-.75-.15-1.44-.45-2.07a5.266 5.266 0 00-1.125-1.665 5.14 5.14 0 00-1.71-1.125 4.975 4.975 0 00-1.98-.405c-.72 0-1.395.15-2.025.45-.63.27-1.185.645-1.665 1.125-.48.45-.87.99-1.17 1.62a5.086 5.086 0 00-.405 2.025zm18.27-11.43v21.51c0 1.29-.075 2.445-.225 3.465-.15 1.02-.36 1.92-.63 2.7-.36.99-.93 1.905-1.71 2.745-.75.87-1.665 1.62-2.745 2.25-1.08.63-2.31 1.125-3.69 1.485-1.35.36-2.82.54-4.41.54-1.8 0-3.45-.225-4.95-.675-1.5-.45-2.82-1.08-3.96-1.89a10.545 10.545 0 01-2.745-2.79 9.058 9.058 0 01-1.44-3.465h9.18c.57 1.53 1.86 2.295 3.87 2.295 1.71 0 3.015-.48 3.915-1.44.93-.96 1.395-2.295 1.395-4.005v-2.205c-.6.57-1.185 1.05-1.755 1.44-.54.36-1.095.66-1.665.9-.57.24-1.17.405-1.8.495-.63.12-1.32.18-2.07.18-1.65 0-3.165-.285-4.545-.855a10.937 10.937 0 01-3.6-2.385c-.99-1.02-1.77-2.235-2.34-3.645-.54-1.44-.81-3.03-.81-4.77 0-1.77.3-3.405.9-4.905.6-1.53 1.41-2.85 2.43-3.96a11.152 11.152 0 013.69-2.655c1.44-.66 3-.99 4.68-.99 2.73 0 5.025 1.02 6.885 3.06v-2.43h8.145zm24.299 8.19c-.27-1.14-.825-2.055-1.665-2.745-.84-.69-1.86-1.035-3.06-1.035-1.26 0-2.295.33-3.105.99-.78.66-1.275 1.59-1.485 2.79h9.315zm-9.54 4.725c0 3.51 1.65 5.265 4.95 5.265 1.77 0 3.105-.72 4.005-2.16h7.875c-1.59 5.28-5.565 7.92-11.925 7.92-1.95 0-3.735-.285-5.355-.855-1.62-.6-3.015-1.44-4.185-2.52a11.278 11.278 0 01-2.655-3.87c-.63-1.5-.945-3.18-.945-5.04 0-1.92.3-3.645.9-5.175.6-1.56 1.455-2.88 2.565-3.96 1.11-1.08 2.445-1.905 4.005-2.475 1.59-.6 3.375-.9 5.355-.9 1.95 0 3.705.3 5.265.9 1.56.57 2.88 1.41 3.96 2.52s1.905 2.475 2.475 4.095c.57 1.59.855 3.39.855 5.4v.855h-17.145zm32.549-6.12V38h-8.145V21.71h-2.7v-6.795h2.7v-6.93h8.145v6.93h4.635v6.795h-4.635zm26.361 1.395c-.27-1.14-.825-2.055-1.665-2.745-.84-.69-1.86-1.035-3.06-1.035-1.26 0-2.295.33-3.105.99-.78.66-1.275 1.59-1.485 2.79h9.315zm-9.54 4.725c0 3.51 1.65 5.265 4.95 5.265 1.77 0 3.105-.72 4.005-2.16h7.875c-1.59 5.28-5.565 7.92-11.925 7.92-1.95 0-3.735-.285-5.355-.855-1.62-.6-3.015-1.44-4.185-2.52a11.278 11.278 0 01-2.655-3.87c-.63-1.5-.945-3.18-.945-5.04 0-1.92.3-3.645.9-5.175.6-1.56 1.455-2.88 2.565-3.96 1.11-1.08 2.445-1.905 4.005-2.475 1.59-.6 3.375-.9 5.355-.9 1.95 0 3.705.3 5.265.9 1.56.57 2.88 1.41 3.96 2.52s1.905 2.475 2.475 4.095c.57 1.59.855 3.39.855 5.4v.855h-17.145zm22.746 5.85c0-.72.135-1.395.405-2.025a5.14 5.14 0 011.125-1.71 5.266 5.266 0 011.665-1.125c.66-.27 1.35-.405 2.07-.405.72 0 1.395.135 2.025.405.66.27 1.23.645 1.71 1.125s.855 1.05 1.125 1.71c.27.63.405 1.305.405 2.025s-.135 1.41-.405 2.07a5.266 5.266 0 01-1.125 1.665 5.14 5.14 0 01-1.71 1.125c-.63.27-1.305.405-2.025.405s-1.41-.135-2.07-.405a5.266 5.266 0 01-1.665-1.125 5.266 5.266 0 01-1.125-1.665 5.415 5.415 0 01-.405-2.07z" fill="#fff"/></svg>