<svg width="708" height="46" viewBox="0 0 708 46" fill="none" xmlns="http://www.w3.org/2000/svg"><path d="M.543 32.758c0-.748.274-1.395.821-1.942a2.677 2.677 0 011.962-.82c.76 0 1.415.273 1.962.82.547.547.82 1.201.82 1.962a2.7 2.7 0 01-.82 1.982c-.534.534-1.188.8-1.962.8-.787 0-1.448-.266-1.982-.8s-.8-1.201-.8-2.002zm8.553 0c0-.748.273-1.395.82-1.942a2.677 2.677 0 011.963-.82c.76 0 1.414.273 1.961.82.548.547.821 1.201.821 1.962a2.7 2.7 0 01-.82 1.982c-.534.534-1.188.8-1.962.8-.788 0-1.449-.266-1.982-.8-.534-.534-.801-1.201-.801-2.002zm8.552 0c0-.748.274-1.395.82-1.942a2.678 2.678 0 011.963-.82c.76 0 1.415.273 1.962.82.547.547.82 1.201.82 1.962a2.7 2.7 0 01-.82 1.982c-.534.534-1.188.8-1.962.8-.788 0-1.448-.266-1.982-.8s-.8-1.201-.8-2.002zm23.027-16.416v5.986c-1.028-1.255-1.949-2.116-2.763-2.583-.8-.48-1.742-.72-2.823-.72-1.695 0-3.103.593-4.224 1.781s-1.682 2.676-1.682 4.464c0 1.829.54 3.33 1.622 4.505 1.094 1.174 2.49 1.762 4.184 1.762 1.081 0 2.035-.234 2.863-.701.8-.454 1.742-1.335 2.823-2.643v5.946c-1.829.948-3.657 1.421-5.486 1.421-3.016 0-5.538-.974-7.567-2.922-2.029-1.962-3.043-4.398-3.043-7.307 0-2.91 1.028-5.366 3.083-7.368 2.055-2.002 4.578-3.003 7.567-3.003 1.922 0 3.737.46 5.446 1.382zm3.443 8.768c0-2.816 1.008-5.211 3.023-7.187 2.015-1.975 4.47-2.963 7.367-2.963 2.91 0 5.379.995 7.407 2.983 2.002 1.989 3.003 4.431 3.003 7.327 0 2.923-1.007 5.372-3.023 7.348-2.028 1.962-4.517 2.942-7.467 2.942-2.923 0-5.372-1-7.347-3.002-1.975-1.976-2.963-4.458-2.963-7.448zm4.604.08c0 1.949.521 3.49 1.562 4.625 1.068 1.148 2.476 1.722 4.224 1.722 1.762 0 3.17-.568 4.224-1.702 1.055-1.134 1.582-2.65 1.582-4.544 0-1.896-.527-3.41-1.582-4.545-1.068-1.148-2.475-1.722-4.224-1.722-1.722 0-3.116.574-4.184 1.722-1.068 1.148-1.602 2.63-1.602 4.444zm20.98-9.689h4.505v1.802c.868-.908 1.609-1.522 2.223-1.842.653-.334 1.474-.5 2.462-.5 2.202 0 3.944.96 5.225 2.882 1.415-1.922 3.33-2.883 5.746-2.883 4.39 0 6.586 2.663 6.586 7.988V35h-4.524V24.17c0-1.87-.227-3.19-.681-3.964-.467-.788-1.235-1.182-2.302-1.182-1.241 0-2.15.467-2.723 1.402-.56.934-.84 2.436-.84 4.504V35h-4.525V24.23c0-3.47-1.001-5.206-3.003-5.206-1.268 0-2.196.474-2.783 1.422-.574.947-.86 2.442-.86 4.484V35h-4.505V15.501zm31.512 9.61c0-2.817 1.007-5.212 3.023-7.188 2.015-1.975 4.471-2.963 7.367-2.963 2.909 0 5.378.995 7.407 2.983 2.002 1.989 3.003 4.431 3.003 7.327 0 2.923-1.008 5.372-3.023 7.348-2.029 1.962-4.518 2.942-7.467 2.942-2.923 0-5.372-1-7.347-3.002-1.976-1.976-2.963-4.458-2.963-7.448zm4.604.08c0 1.948.521 3.49 1.562 4.624 1.067 1.148 2.475 1.722 4.224 1.722 1.762 0 3.17-.568 4.224-1.702 1.054-1.134 1.581-2.65 1.581-4.544 0-1.896-.527-3.41-1.581-4.545-1.068-1.148-2.476-1.722-4.224-1.722-1.722 0-3.117.574-4.184 1.722-1.068 1.148-1.602 2.63-1.602 4.444zm48.808-8.85v5.987c-1.028-1.255-1.949-2.116-2.763-2.583-.801-.48-1.742-.72-2.823-.72-1.695 0-3.103.593-4.224 1.781s-1.681 2.676-1.681 4.464c0 1.829.54 3.33 1.621 4.505 1.095 1.174 2.489 1.762 4.184 1.762 1.081 0 2.036-.234 2.863-.701.801-.454 1.742-1.335 2.823-2.643v5.946c-1.829.948-3.657 1.421-5.486 1.421-3.016 0-5.538-.974-7.567-2.922-2.029-1.962-3.043-4.398-3.043-7.307 0-2.91 1.028-5.366 3.083-7.368 2.055-2.002 4.578-3.003 7.567-3.003 1.922 0 3.737.46 5.446 1.382zm8.868-.84v11.19c0 3.23 1.275 4.846 3.824 4.846s3.824-1.615 3.824-4.845V15.5h4.504v11.291c0 1.561-.193 2.91-.58 4.044-.374 1.014-1.021 1.928-1.942 2.743-1.522 1.32-3.457 1.981-5.806 1.981-2.335 0-4.264-.66-5.785-1.981-.935-.815-1.595-1.729-1.982-2.743-.374-.908-.561-2.256-.561-4.044V15.501h4.504zm22.342 0V35h-4.504V15.501h4.504zm-5.185-8.108c0-.787.287-1.468.861-2.042a2.813 2.813 0 012.062-.86c.814 0 1.508.286 2.082.86.574.56.861 1.248.861 2.062 0 .814-.287 1.508-.861 2.082-.56.574-1.248.861-2.062.861a2.837 2.837 0 01-2.082-.86c-.574-.575-.861-1.275-.861-2.103zm25.265-6.206h4.524V35h-4.524v-2.042c-1.775 1.735-3.784 2.602-6.026 2.602-2.669 0-4.885-.974-6.647-2.922-1.748-1.989-2.622-4.471-2.622-7.448 0-2.91.874-5.338 2.622-7.287 1.735-1.962 3.918-2.943 6.547-2.943 2.282 0 4.324.935 6.126 2.803V1.187zM195.225 25.19c0 1.869.501 3.39 1.502 4.565 1.028 1.188 2.322 1.782 3.884 1.782 1.668 0 3.016-.574 4.044-1.722 1.027-1.188 1.541-2.696 1.541-4.524 0-1.829-.514-3.337-1.541-4.525-1.028-1.161-2.363-1.742-4.004-1.742-1.548 0-2.843.588-3.884 1.762-1.028 1.188-1.542 2.656-1.542 4.404zm35.275-9.689h4.524V35H230.5v-2.042c-1.855 1.735-3.851 2.602-5.986 2.602-2.696 0-4.925-.974-6.687-2.922-1.748-1.989-2.622-4.471-2.622-7.448 0-2.922.874-5.358 2.622-7.307 1.749-1.948 3.938-2.923 6.567-2.923 2.269 0 4.304.935 6.106 2.803v-2.262zm-10.691 9.69c0 1.868.501 3.39 1.502 4.564 1.028 1.188 2.322 1.782 3.884 1.782 1.668 0 3.016-.574 4.044-1.722 1.027-1.188 1.541-2.696 1.541-4.524 0-1.829-.514-3.337-1.541-4.525-1.028-1.161-2.363-1.742-4.004-1.742-1.549 0-2.843.588-3.884 1.762-1.028 1.188-1.542 2.656-1.542 4.404zm32.232-6.367l-3.724 1.982c-.587-1.201-1.314-1.802-2.182-1.802-.414 0-.767.14-1.061.42-.294.268-.44.615-.44 1.042 0 .747.867 1.488 2.602 2.222 2.389 1.028 3.997 1.975 4.825 2.843.827.867 1.241 2.035 1.241 3.503 0 1.882-.694 3.457-2.082 4.725-1.348 1.201-2.976 1.801-4.885 1.801-3.27 0-5.585-1.594-6.947-4.784l3.844-1.782c.534.934.941 1.528 1.221 1.782a2.79 2.79 0 001.962.76c1.522 0 2.283-.693 2.283-2.081 0-.801-.588-1.549-1.762-2.243a65.665 65.665 0 00-1.361-.66c-.454-.214-.915-.434-1.382-.66-1.308-.642-2.229-1.282-2.763-1.923-.68-.814-1.021-1.862-1.021-3.143 0-1.695.581-3.096 1.742-4.204 1.188-1.108 2.629-1.662 4.324-1.662 2.496 0 4.351 1.288 5.566 3.864zm22.622.881V35h-4.504V19.705h-1.922v-4.204h1.922V8.354h4.504v7.147h3.503v4.204h-3.503zm11.071-4.204v11.19c0 3.23 1.274 4.846 3.823 4.846 2.55 0 3.824-1.615 3.824-4.845V15.5h4.505v11.291c0 1.561-.194 2.91-.581 4.044-.374 1.014-1.021 1.928-1.942 2.743-1.521 1.32-3.457 1.981-5.806 1.981-2.335 0-4.264-.66-5.785-1.981-.934-.815-1.595-1.729-1.982-2.743-.374-.908-.561-2.256-.561-4.044V15.501h4.505zm38.471 4.657V35h-7.421V20.158h-2.46v-6.191h2.46V7.653h7.421v6.314h4.223v6.191h-4.223zm14.301 4.264c0 .683.123 1.326.369 1.927a5.18 5.18 0 00.984 1.517c.437.437.943.779 1.517 1.025a5.04 5.04 0 001.927.369c.656 0 1.271-.123 1.845-.369a4.257 4.257 0 001.517-1.025 4.803 4.803 0 001.025-1.517c.273-.574.41-1.189.41-1.845 0-.656-.137-1.271-.41-1.845a4.689 4.689 0 00-1.025-1.558 4.257 4.257 0 00-1.517-1.025 4.634 4.634 0 00-1.845-.369 5.04 5.04 0 00-1.927.369 4.794 4.794 0 00-1.517 1.025 5.18 5.18 0 00-.984 1.517 4.346 4.346 0 00-.369 1.804zm9.348-10.455h7.462V35h-7.462v-2.337c-1.585 1.995-3.731 2.993-6.437 2.993-1.531 0-2.938-.273-4.223-.82a10.447 10.447 0 01-3.362-2.378c-.957-1.011-1.708-2.2-2.255-3.567-.519-1.367-.779-2.856-.779-4.469 0-1.503.26-2.925.779-4.264.519-1.367 1.244-2.556 2.173-3.567a9.986 9.986 0 013.321-2.378c1.285-.601 2.706-.902 4.264-.902 2.624 0 4.797.916 6.519 2.747v-2.091zm12.512 0h7.421v3.444c.793-1.257 1.763-2.214 2.911-2.87 1.148-.683 2.487-1.025 4.018-1.025h.615c.246 0 .519.027.82.082v7.093a7.05 7.05 0 00-3.198-.738c-1.722 0-3.02.52-3.895 1.558-.847 1.011-1.271 2.501-1.271 4.469V35h-7.421V13.967zm26.52 0v31.529h-7.421V13.967h7.421zm-7.913-8.077c0-.574.109-1.107.328-1.599.218-.52.519-.97.902-1.353.382-.383.82-.683 1.312-.902a4.182 4.182 0 011.64-.328c.574 0 1.107.11 1.599.328.519.219.97.52 1.353.902.382.383.683.834.902 1.353.218.492.328 1.025.328 1.599 0 .574-.11 1.12-.328 1.64-.219.492-.52.93-.902 1.312a4.199 4.199 0 01-1.353.902 3.892 3.892 0 01-1.599.328c-.574 0-1.121-.11-1.64-.328a4.316 4.316 0 01-1.312-.902 4.307 4.307 0 01-.902-1.312 4.178 4.178 0 01-.328-1.64zm28.359 15.539c-.246-1.039-.752-1.872-1.517-2.501-.765-.629-1.695-.943-2.788-.943-1.148 0-2.091.3-2.829.902-.711.601-1.162 1.449-1.353 2.542h8.487zm-8.692 4.305c0 3.198 1.503 4.797 4.51 4.797 1.613 0 2.829-.656 3.649-1.968h7.175c-1.449 4.81-5.07 7.216-10.865 7.216-1.777 0-3.403-.26-4.879-.779-1.476-.547-2.747-1.312-3.813-2.296a10.27 10.27 0 01-2.419-3.526c-.574-1.367-.861-2.897-.861-4.592 0-1.75.273-3.321.82-4.715.547-1.421 1.326-2.624 2.337-3.608 1.011-.984 2.228-1.736 3.649-2.255 1.449-.547 3.075-.82 4.879-.82 1.777 0 3.376.273 4.797.82 1.421.52 2.624 1.285 3.608 2.296s1.736 2.255 2.255 3.731c.519 1.449.779 3.089.779 4.92v.779H398.64zm28.425-5.576V35h-7.421V20.158h-2.46v-6.191h2.46V7.653h7.421v6.314h4.223v6.191h-4.223zm14.301 4.264c0 .683.123 1.326.369 1.927a5.18 5.18 0 00.984 1.517c.438.437.943.779 1.517 1.025a5.043 5.043 0 001.927.369c.656 0 1.271-.123 1.845-.369a4.248 4.248 0 001.517-1.025 4.786 4.786 0 001.025-1.517c.274-.574.41-1.189.41-1.845 0-.656-.136-1.271-.41-1.845a4.674 4.674 0 00-1.025-1.558 4.248 4.248 0 00-1.517-1.025 4.634 4.634 0 00-1.845-.369c-.683 0-1.325.123-1.927.369a4.806 4.806 0 00-1.517 1.025 5.18 5.18 0 00-.984 1.517 4.346 4.346 0 00-.369 1.804zm9.348-10.455h7.462V35h-7.462v-2.337c-1.585 1.995-3.731 2.993-6.437 2.993-1.53 0-2.938-.273-4.223-.82a10.458 10.458 0 01-3.362-2.378 11.18 11.18 0 01-2.255-3.567c-.519-1.367-.779-2.856-.779-4.469 0-1.503.26-2.925.779-4.264.52-1.367 1.244-2.556 2.173-3.567a10.007 10.007 0 013.321-2.378c1.285-.601 2.706-.902 4.264-.902 2.624 0 4.797.916 6.519 2.747v-2.091zm33.334 10.455c0 .683.123 1.326.369 1.927a5.18 5.18 0 00.984 1.517c.437.437.943.779 1.517 1.025a5.04 5.04 0 001.927.369c.656 0 1.271-.123 1.845-.369a4.257 4.257 0 001.517-1.025 4.803 4.803 0 001.025-1.517c.273-.574.41-1.189.41-1.845 0-.656-.137-1.271-.41-1.845a4.689 4.689 0 00-1.025-1.558 4.257 4.257 0 00-1.517-1.025 4.634 4.634 0 00-1.845-.369c-.656 0-1.285.123-1.886.369a4.794 4.794 0 00-1.517 1.025c-.41.437-.752.943-1.025 1.517a4.346 4.346 0 00-.369 1.804zM493.396.97h7.462V35h-7.462v-2.337c-1.585 1.995-3.731 2.993-6.437 2.993-1.531 0-2.938-.287-4.223-.861a10.447 10.447 0 01-3.362-2.378c-.957-1.011-1.708-2.2-2.255-3.567-.519-1.367-.779-2.843-.779-4.428 0-1.503.246-2.925.738-4.264.519-1.367 1.244-2.556 2.173-3.567a9.986 9.986 0 013.321-2.378c1.312-.601 2.747-.902 4.305-.902 2.624 0 4.797.916 6.519 2.747V.97zm27.887 20.459c-.246-1.039-.752-1.872-1.517-2.501-.765-.629-1.695-.943-2.788-.943-1.148 0-2.091.3-2.829.902-.711.601-1.162 1.449-1.353 2.542h8.487zm-8.692 4.305c0 3.198 1.503 4.797 4.51 4.797 1.613 0 2.829-.656 3.649-1.968h7.175c-1.449 4.81-5.07 7.216-10.865 7.216-1.777 0-3.403-.26-4.879-.779-1.476-.547-2.747-1.312-3.813-2.296a10.27 10.27 0 01-2.419-3.526c-.574-1.367-.861-2.897-.861-4.592 0-1.75.273-3.321.82-4.715.547-1.421 1.326-2.624 2.337-3.608 1.011-.984 2.228-1.736 3.649-2.255 1.449-.547 3.075-.82 4.879-.82 1.777 0 3.376.273 4.797.82 1.421.52 2.624 1.285 3.608 2.296s1.736 2.255 2.255 3.731c.519 1.449.779 3.089.779 4.92v.779h-15.621zm49.664-4.961c-1.285-.875-2.583-1.312-3.895-1.312a5.46 5.46 0 00-2.009.369 4.81 4.81 0 00-1.599 1.066c-.465.437-.834.97-1.107 1.599-.246.601-.369 1.285-.369 2.05 0 .738.123 1.421.369 2.05a5.817 5.817 0 001.066 1.599 5.04 5.04 0 001.64 1.025 5.46 5.46 0 002.009.369c1.394 0 2.692-.478 3.895-1.435v6.314c-1.832.793-3.567 1.189-5.207 1.189-1.531 0-2.993-.26-4.387-.779a11.554 11.554 0 01-3.649-2.214 11.436 11.436 0 01-2.501-3.485c-.629-1.367-.943-2.884-.943-4.551 0-1.667.3-3.184.902-4.551.601-1.394 1.421-2.583 2.46-3.567 1.038-1.011 2.268-1.79 3.69-2.337 1.448-.574 2.993-.861 4.633-.861 1.804 0 3.471.383 5.002 1.148v6.314zm4.232-6.806h7.421v3.444c.793-1.257 1.763-2.214 2.911-2.87 1.148-.683 2.487-1.025 4.018-1.025h.615c.246 0 .519.027.82.082v7.093a7.05 7.05 0 00-3.198-.738c-1.722 0-3.02.52-3.895 1.558-.847 1.011-1.271 2.501-1.271 4.469V35h-7.421V13.967zm34.714 7.462c-.246-1.039-.752-1.872-1.517-2.501-.765-.629-1.695-.943-2.788-.943-1.148 0-2.091.3-2.829.902-.711.601-1.162 1.449-1.353 2.542h8.487zm-8.692 4.305c0 3.198 1.503 4.797 4.51 4.797 1.613 0 2.829-.656 3.649-1.968h7.175c-1.449 4.81-5.07 7.216-10.865 7.216-1.777 0-3.403-.26-4.879-.779-1.476-.547-2.747-1.312-3.813-2.296a10.27 10.27 0 01-2.419-3.526c-.574-1.367-.861-2.897-.861-4.592 0-1.75.273-3.321.82-4.715.547-1.421 1.326-2.624 2.337-3.608 1.011-.984 2.228-1.736 3.649-2.255 1.449-.547 3.075-.82 4.879-.82 1.777 0 3.376.273 4.797.82 1.421.52 2.624 1.285 3.608 2.296s1.736 2.255 2.255 3.731c.519 1.449.779 3.089.779 4.92v.779h-15.621zm11.193-21.156l-7.134 6.314-3.444-2.542 5.863-7.175 4.715 3.403zm15.558 19.844c0 .683.123 1.326.369 1.927a5.18 5.18 0 00.984 1.517c.437.437.943.779 1.517 1.025a5.04 5.04 0 001.927.369c.656 0 1.271-.123 1.845-.369a4.257 4.257 0 001.517-1.025 4.803 4.803 0 001.025-1.517c.273-.574.41-1.189.41-1.845 0-.656-.137-1.271-.41-1.845a4.689 4.689 0 00-1.025-1.558 4.257 4.257 0 00-1.517-1.025 4.634 4.634 0 00-1.845-.369c-.656 0-1.285.123-1.886.369a4.794 4.794 0 00-1.517 1.025c-.41.437-.752.943-1.025 1.517a4.346 4.346 0 00-.369 1.804zM628.608.97h7.462V35h-7.462v-2.337c-1.585 1.995-3.731 2.993-6.437 2.993-1.531 0-2.938-.287-4.223-.861a10.447 10.447 0 01-3.362-2.378c-.957-1.011-1.708-2.2-2.255-3.567-.519-1.367-.779-2.843-.779-4.428 0-1.503.246-2.925.738-4.264.519-1.367 1.244-2.556 2.173-3.567a9.986 9.986 0 013.321-2.378c1.312-.601 2.747-.902 4.305-.902 2.624 0 4.797.916 6.519 2.747V.97zm19.933 12.997V35h-7.421V13.967h7.421zm-7.913-8.077c0-.574.109-1.107.328-1.599.219-.52.519-.97.902-1.353s.82-.683 1.312-.902a4.182 4.182 0 011.64-.328c.574 0 1.107.11 1.599.328.519.219.97.52 1.353.902.383.383.683.834.902 1.353.219.492.328 1.025.328 1.599 0 .574-.109 1.12-.328 1.64-.219.492-.519.93-.902 1.312a4.199 4.199 0 01-1.353.902 3.892 3.892 0 01-1.599.328c-.574 0-1.121-.11-1.64-.328a4.328 4.328 0 01-1.312-.902 4.324 4.324 0 01-.902-1.312 4.178 4.178 0 01-.328-1.64zm21.266 14.268V35h-7.421V20.158h-2.46v-6.191h2.46V7.653h7.421v6.314h4.223v6.191h-4.223zm14.384 4.223c0 .71.123 1.367.369 1.968.274.574.615 1.08 1.025 1.517.438.437.943.779 1.517 1.025.602.246 1.23.369 1.886.369.656 0 1.271-.123 1.845-.369a4.248 4.248 0 001.517-1.025 4.786 4.786 0 001.025-1.517c.274-.601.41-1.244.41-1.927 0-.656-.136-1.271-.41-1.845a4.674 4.674 0 00-1.025-1.558 4.248 4.248 0 00-1.517-1.025 4.634 4.634 0 00-1.845-.369c-.656 0-1.284.123-1.886.369a4.806 4.806 0 00-1.517 1.025c-.41.437-.751.943-1.025 1.517a4.634 4.634 0 00-.369 1.845zm-7.831-.082c0-1.558.315-3.007.943-4.346a10.463 10.463 0 012.624-3.526c1.121-1.011 2.447-1.804 3.977-2.378 1.558-.574 3.253-.861 5.084-.861 1.804 0 3.472.287 5.002.861 1.558.547 2.898 1.326 4.018 2.337a10.107 10.107 0 012.665 3.567c.629 1.367.943 2.884.943 4.551 0 1.667-.328 3.198-.984 4.592a10.87 10.87 0 01-2.624 3.567c-1.12.984-2.473 1.75-4.059 2.296-1.558.547-3.252.82-5.084.82-1.804 0-3.471-.273-5.002-.82-1.53-.547-2.856-1.326-3.977-2.337a11.05 11.05 0 01-2.583-3.608c-.628-1.421-.943-2.993-.943-4.715zm29.159 6.765c0-.656.123-1.271.369-1.845A4.689 4.689 0 01699 27.661a4.806 4.806 0 011.517-1.025 4.936 4.936 0 011.886-.369c.656 0 1.271.123 1.845.369a4.674 4.674 0 011.558 1.025c.438.437.779.957 1.025 1.558.246.574.369 1.189.369 1.845 0 .656-.123 1.285-.369 1.886a4.786 4.786 0 01-1.025 1.517 4.674 4.674 0 01-1.558 1.025 4.634 4.634 0 01-1.845.369 4.936 4.936 0 01-1.886-.369 4.806 4.806 0 01-2.542-2.542 4.934 4.934 0 01-.369-1.886z" fill="#66124B"/></svg>