<svg width="339" height="31" viewBox="0 0 339 31" fill="none" xmlns="http://www.w3.org/2000/svg"><path d="M17.06 16.728H3.946c.19 1.182.695 2.124 1.517 2.82.821.699 1.871 1.047 3.148 1.047 1.525 0 2.836-.546 3.934-1.635l3.438 1.65c-.857 1.245-1.883 2.163-3.08 2.76s-2.617.894-4.26.894c-2.553 0-4.63-.822-6.234-2.47C.804 20.149 0 18.088 0 15.61c0-2.478.8-4.647 2.4-6.324 1.599-1.677 3.605-2.514 6.02-2.514 2.561 0 4.644.84 6.249 2.514 1.605 1.677 2.408 3.89 2.408 6.645l-.014.795-.003.003zm-4.081-3.288a4.175 4.175 0 00-1.596-2.262c-.795-.582-1.713-.873-2.764-.873-1.138 0-2.135.327-2.995.978-.54.408-1.039 1.125-1.5 2.157h8.855zM29.787 9.525l-2.526 2.583c-1.027-1.041-1.96-1.56-2.796-1.56-.457 0-.818.099-1.077.297-.26.198-.387.447-.387.74 0 .226.082.433.247.619.164.189.569.447 1.217.77l1.496.766c1.576.795 2.658 1.605 3.245 2.43.587.825.883 1.794.883 2.904 0 1.479-.53 2.712-1.593 3.699-1.062.99-2.485 1.482-4.268 1.482-2.374 0-4.266-.948-5.683-2.844l2.511-2.8a5.826 5.826 0 001.681 1.384c.643.35 1.215.528 1.714.528.54 0 .97-.132 1.3-.396.328-.264.492-.57.492-.918 0-.642-.593-1.27-1.778-1.881l-1.376-.702c-2.631-1.356-3.946-3.054-3.946-5.091 0-1.314.496-2.44 1.488-3.372.991-.933 2.262-1.398 3.805-1.398 1.056 0 2.05.237 2.983.71a6.649 6.649 0 012.37 2.04l-.002.01zM34.059 19.478c.648 0 1.203.23 1.66.696.458.465.687 1.026.687 1.689s-.229 1.23-.687 1.698a2.239 2.239 0 01-1.66.702c-.648 0-1.2-.234-1.66-.702a2.341 2.341 0 01-.687-1.698c0-.663.229-1.227.686-1.69a2.244 2.244 0 011.66-.695zM42.98 1.346h4.078l5.102 15.69 5.146-15.69h4.078l3.693 22.494h-4.045l-2.36-14.205-4.676 14.205h-3.693l-4.63-14.205L43.26 23.84h-4.087L42.98 1.346zM84.105 16.731H70.991c.188 1.185.695 2.124 1.517 2.823.821.696 1.871 1.047 3.15 1.047 1.526 0 2.838-.546 3.935-1.638l3.441 1.653c-.857 1.242-1.883 2.166-3.083 2.763-1.197.597-2.617.894-4.263.894-2.552 0-4.63-.822-6.237-2.469-1.605-1.647-2.409-3.708-2.409-6.183 0-2.475.798-4.647 2.4-6.32 1.602-1.675 3.609-2.515 6.02-2.515 2.561 0 4.644.84 6.249 2.514 1.605 1.68 2.409 3.891 2.409 6.642l-.015.795h-.006l.006-.006zm-4.084-3.288a4.19 4.19 0 00-1.596-2.262c-.795-.582-1.713-.873-2.763-.873-1.139 0-2.136.327-2.999.978-.54.408-1.041 1.128-1.499 2.157h8.857zM99.053.777h4.083v23.058h-4.083v-1.759c-.798.774-1.596 1.335-2.397 1.674a6.61 6.61 0 01-2.608.514c-2.1 0-3.917-.834-5.451-2.5-1.535-1.665-2.303-3.738-2.303-6.215 0-2.479.739-4.674 2.226-6.318 1.485-1.641 3.283-2.463 5.407-2.463.977 0 1.893.189 2.75.564.856.375 1.645.945 2.373 1.698V.777h.003zm-4.295 9.849c-1.262 0-2.312.453-3.145 1.367-.834.912-1.253 2.082-1.253 3.51s.425 2.62 1.273 3.546c.848.928 1.892 1.39 3.136 1.39 1.244 0 2.347-.454 3.19-1.369.844-.912 1.264-2.105 1.264-3.588 0-1.481-.423-2.618-1.265-3.518-.845-.894-1.91-1.344-3.203-1.344v.006h.003zM108.91.35c.713 0 1.329.267 1.84.795.51.53.768 1.173.768 1.926 0 .753-.255 1.38-.763 1.905-.507.522-1.112.789-1.816.789a2.503 2.503 0 01-1.857-.804c-.51-.537-.768-1.185-.768-1.95 0-.765.252-1.362.757-1.881a2.47 2.47 0 011.833-.78h.006zm-2.042 6.849h4.084v16.635h-4.084V7.199zM130.465 10.568l-3.397 1.914c-.637-.684-1.27-1.155-1.892-1.422-.625-.267-1.356-.4-2.195-.4-1.525 0-2.763.463-3.705 1.396-.942.93-1.414 2.124-1.414 3.579s.452 2.568 1.364 3.468c.906.894 2.101 1.344 3.579 1.344 1.825 0 3.248-.64 4.266-1.914l3.215 2.253c-1.745 2.322-4.207 3.483-7.39 3.483-2.863 0-5.102-.867-6.721-2.601-1.62-1.734-2.432-3.762-2.432-6.087 0-1.611.396-3.093 1.179-4.45.789-1.352 1.889-2.42 3.298-3.197 1.408-.774 2.989-1.161 4.732-1.161 1.616 0 3.066.33 4.351.987a8.263 8.263 0 013.153 2.808v.006l.009-.006zM144.652 7.198h4.084v16.635h-4.084v-1.758c-.798.774-1.596 1.335-2.397 1.674a6.61 6.61 0 01-2.608.513c-2.1 0-3.916-.834-5.451-2.499-1.534-1.665-2.303-3.738-2.303-6.216s.74-4.674 2.227-6.318c1.485-1.64 3.283-2.463 5.407-2.463.977 0 1.892.19 2.749.564.857.375 1.646.945 2.373 1.698V7.192v.006h.003zm-4.295 3.426c-1.261 0-2.312.453-3.145 1.368-.833.912-1.252 2.082-1.252 3.51s.425 2.62 1.273 3.546c.848.927 1.892 1.39 3.136 1.39 1.244 0 2.347-.454 3.189-1.369.845-.912 1.264-2.106 1.264-3.588 0-1.482-.422-2.619-1.264-3.519-.845-.894-1.91-1.344-3.204-1.344v.006h.003zM152.2 7.199h3.5v2.097c.376-.825.883-1.455 1.511-1.881a3.597 3.597 0 012.062-.642c.529 0 1.083.141 1.661.426l-1.27 3.59c-.481-.242-.872-.365-1.18-.365-.628 0-1.159.399-1.593 1.194-.434.795-.651 2.355-.651 4.68l.015.813v6.729h-4.052V7.199h-.006.003zM178.408 16.731h-13.114c.188 1.185.695 2.124 1.517 2.823.821.696 1.871 1.047 3.151 1.047 1.525 0 2.837-.546 3.934-1.638l3.441 1.653c-.857 1.242-1.883 2.166-3.083 2.763-1.197.597-2.617.894-4.263.894-2.552 0-4.63-.822-6.237-2.469-1.605-1.647-2.409-3.708-2.409-6.183 0-2.475.798-4.647 2.4-6.32 1.602-1.675 3.608-2.515 6.02-2.515 2.561 0 4.644.84 6.249 2.514 1.605 1.68 2.409 3.891 2.409 6.642l-.015.795h-.006l.006-.006zm-4.084-3.288a4.19 4.19 0 00-1.596-2.262c-.792-.579-1.713-.873-2.763-.873-1.139 0-2.136.327-2.999.978-.54.408-1.041 1.128-1.499 2.157h8.857zM182.615 19.48c.645 0 1.203.234 1.66.696.458.462.687 1.03.687 1.69 0 .66-.229 1.23-.687 1.697a2.242 2.242 0 01-1.66.702 2.244 2.244 0 01-1.661-.702 2.339 2.339 0 01-.686-1.698c0-.666.229-1.224.686-1.689a2.261 2.261 0 011.661-.696zM199.934 7.199h4.069v14.25c0 2.81-.552 4.88-1.661 6.207-1.484 1.794-3.723 2.694-6.715 2.694-1.596 0-2.934-.201-4.025-.61-1.086-.407-2.007-1.004-2.749-1.796-.748-.79-1.3-1.752-1.661-2.88h4.501c.399.468.909.822 1.54 1.065.628.24 1.373.357 2.23.357 1.094 0 1.977-.174 2.646-.52.669-.347 1.138-.794 1.414-1.343.273-.552.414-1.5.414-2.844-.719.735-1.473 1.263-2.256 1.584-.79.32-1.679.483-2.679.483-2.186 0-4.028-.804-5.533-2.418-1.502-1.611-2.256-3.648-2.256-6.117 0-2.637.798-4.761 2.391-6.363 1.443-1.446 3.171-2.169 5.172-2.169.939 0 1.822.174 2.655.528.833.354 1.669.93 2.503 1.734V7.199zm-4.231 3.474c-1.288 0-2.347.441-3.186 1.32-.839.882-1.256 1.992-1.256 3.327s.432 2.523 1.288 3.408c.857.885 1.934 1.329 3.23 1.329 1.297 0 2.312-.432 3.131-1.299.821-.867 1.235-2.004 1.235-3.408s-.414-2.514-1.244-3.381c-.824-.867-1.892-1.299-3.198-1.299v.003zM215.518 6.774c1.534 0 2.978.396 4.33 1.179a8.395 8.395 0 013.163 3.198 8.74 8.74 0 011.135 4.359 8.92 8.92 0 01-1.144 4.404c-.763 1.368-1.804 2.436-3.119 3.2-1.314.772-2.769 1.156-4.351 1.156-2.332 0-4.324-.85-5.976-2.547-1.651-1.698-2.476-3.756-2.476-6.183 0-2.601.933-4.767 2.796-6.501 1.634-1.509 3.512-2.262 5.639-2.262l.006-.006-.003.003zm.067 3.933c-1.27 0-2.323.45-3.168 1.353-.845.903-1.265 2.055-1.265 3.465 0 1.41.417 2.619 1.253 3.519.833.9 1.889 1.344 3.169 1.344 1.279 0 2.341-.453 3.189-1.362.847-.91 1.273-2.073 1.273-3.501s-.417-2.589-1.253-3.477c-.833-.891-1.898-1.341-3.198-1.341zM224.556 7.2h4.16l4.11 9.818 4.102-9.819h4.136l-6.924 16.635h-2.646L224.553 7.2h.006-.003z" fill="#F3F0DA"/><path d="M241.716 27.865L251.647.563h2.937l-9.949 27.302h-2.919zM258.844 1.209h12.181v4.2h-8.001v4.107h5.199v4.137h-5.199v10.182h-4.18V1.205v.004zM273.172 7.1h3.52v2.107c.382-.831.889-1.461 1.52-1.893a3.595 3.595 0 012.077-.645c.531 0 1.089.144 1.67.432l-1.28 3.615c-.481-.246-.877-.37-1.188-.37-.63 0-1.164.4-1.602 1.2-.437.802-.654 2.37-.654 4.708l.015.816v6.768h-4.075V7.1h-.003zM296.067 7.1h4.107v16.738h-4.107v-1.77c-.801.78-1.605 1.34-2.411 1.683a6.6 6.6 0 01-2.623.516c-2.113 0-3.943-.837-5.483-2.514-1.544-1.677-2.315-3.762-2.315-6.252 0-2.49.745-4.701 2.238-6.354 1.494-1.65 3.307-2.478 5.44-2.478a6.74 6.74 0 012.763.57c.863.38 1.658.948 2.388 1.707V7.1h.003zm-4.315 3.448c-1.271 0-2.324.459-3.163 1.377-.839.918-1.259 2.094-1.259 3.53 0 1.438.429 2.638 1.282 3.57.854.934 1.907 1.402 3.157 1.402s2.359-.46 3.21-1.377c.85-.918 1.273-2.121 1.273-3.606 0-1.485-.425-2.634-1.273-3.537-.851-.903-1.925-1.353-3.225-1.353l-.002-.006zM304.311 7.098h4.151v8.061c0 1.57.106 2.658.317 3.27.211.61.551 1.086 1.018 1.422.466.336 1.041.507 1.728.507.686 0 1.264-.168 1.743-.5.478-.334.833-.823 1.062-1.47.17-.484.255-1.513.255-3.094V7.095h4.107v7.092c0 2.922-.226 4.923-.678 6-.551 1.314-1.364 2.32-2.438 3.024-1.073.702-2.438 1.053-4.092 1.053-1.796 0-3.248-.41-4.354-1.23-1.109-.819-1.886-1.965-2.338-3.429-.32-1.014-.481-2.862-.481-5.538V7.098zM334.893.638H339v23.196h-4.107v-1.77c-.801.78-1.605 1.34-2.412 1.683a6.6 6.6 0 01-2.623.516c-2.112 0-3.943-.837-5.483-2.514-1.543-1.677-2.315-3.762-2.315-6.252 0-2.49.746-4.701 2.239-6.354 1.493-1.65 3.306-2.478 5.439-2.478.983 0 1.904.189 2.764.57.862.38 1.657.948 2.388 1.707V.635l.003.003zm-4.316 9.906c-1.27 0-2.323.459-3.162 1.377-.84.918-1.259 2.094-1.259 3.53 0 1.438.428 2.638 1.282 3.57.854.934 1.907 1.402 3.157 1.402s2.359-.46 3.209-1.377c.851-.918 1.274-2.121 1.274-3.606 0-1.485-.426-2.634-1.274-3.537-.85-.903-1.924-1.353-3.224-1.353l-.003-.006z" fill="#fff"/></svg>