<svg width="308" height="52" viewBox="0 0 308 52" fill="none" xmlns="http://www.w3.org/2000/svg"><rect x="1" y="1" width="306" height="50" rx="7" fill="#EFD63A" stroke="#EFE28E" stroke-width="2"/><path d="M55.802 28.943l-2.112-6.024-2.112 6.024h4.224zm1.248 3.576h-6.72l-1.08 3.144h-5.016l6.888-18.096h5.136l6.888 18.096H58.13l-1.08-3.144zm13.338-6.648h1.56c1.728 0 2.592-.752 2.592-2.256 0-1.504-.864-2.256-2.592-2.256h-1.56v4.512zm0 9.792h-4.704V17.567h7.488c2.032 0 3.584.528 4.656 1.584 1.088 1.056 1.632 2.544 1.632 4.464 0 1.92-.544 3.408-1.632 4.464-1.072 1.056-2.624 1.584-4.656 1.584h-2.784v6zm16.746-10.008h.888c.928 0 1.64-.192 2.136-.576.496-.384.744-.936.744-1.656 0-.72-.248-1.272-.744-1.656-.496-.384-1.208-.576-2.136-.576h-.888v4.464zm10.344 10.008h-5.856l-4.488-6.96v6.96H82.43V17.567h7.32c1.008 0 1.888.152 2.64.456.752.288 1.368.688 1.848 1.2a4.885 4.885 0 011.104 1.776c.256.672.384 1.392.384 2.16 0 1.376-.336 2.496-1.008 3.36-.656.848-1.632 1.424-2.928 1.728l5.688 7.416zM110.22 21.55h-5.592v3.024h5.28v3.984h-5.28v3.12h5.592v3.984H99.925V17.567h10.296v3.984zm3.872 14.112V17.567h4.704l8.688 11.064V17.567h4.68v18.096h-4.68l-8.688-11.064v11.064h-4.704zm27.051-3.984h1.08c.816 0 1.544-.128 2.184-.384a4.54 4.54 0 001.608-1.056 4.326 4.326 0 001.008-1.584c.24-.624.36-1.304.36-2.04 0-.72-.12-1.392-.36-2.016a4.555 4.555 0 00-1.032-1.608 4.54 4.54 0 00-1.608-1.056c-.64-.256-1.36-.384-2.16-.384h-1.08v10.128zm-4.704-14.112h6.96a8.13 8.13 0 013.456.744 9.153 9.153 0 012.832 1.992 8.907 8.907 0 011.92 2.88 8.659 8.659 0 01.696 3.432 8.773 8.773 0 01-.696 3.432 8.927 8.927 0 01-1.896 2.88 9.153 9.153 0 01-2.832 1.992c-1.072.496-2.232.744-3.48.744h-6.96V17.567zm29.643 3.984h-5.592v3.024h5.28v3.984h-5.28v3.12h5.592v3.984h-10.296V17.567h10.296v3.984zm25.54 2.064c-1.088-1.328-2.432-1.992-4.032-1.992a5.02 5.02 0 00-1.968.384 4.7 4.7 0 00-1.536 1.056 4.826 4.826 0 00-1.032 1.56 5.312 5.312 0 00-.36 1.968c0 .72.12 1.384.36 1.992.256.608.6 1.136 1.032 1.584.448.448.968.8 1.56 1.056a4.785 4.785 0 001.92.384c1.504 0 2.856-.64 4.056-1.92v5.568l-.48.168c-.72.256-1.392.44-2.016.552a9.18 9.18 0 01-1.848.192 9.548 9.548 0 01-3.6-.696 9.837 9.837 0 01-3.024-1.992 10.216 10.216 0 01-2.088-3.048c-.528-1.184-.792-2.472-.792-3.864s.256-2.664.768-3.816c.528-1.168 1.224-2.168 2.088-3a9.42 9.42 0 013.048-1.968 9.33 9.33 0 013.624-.72c.72 0 1.424.08 2.112.24.704.144 1.44.376 2.208.696v5.616zm7.818 3c0 .72.136 1.384.408 1.992.272.608.64 1.136 1.104 1.584.464.448 1 .8 1.608 1.056.624.24 1.28.36 1.968.36s1.336-.12 1.944-.36a5.122 5.122 0 001.632-1.056c.48-.448.856-.976 1.128-1.584a4.822 4.822 0 00.408-1.992c0-.72-.136-1.384-.408-1.992a4.856 4.856 0 00-1.128-1.584 4.805 4.805 0 00-1.632-1.032 4.958 4.958 0 00-1.944-.384c-.688 0-1.344.128-1.968.384a4.86 4.86 0 00-1.608 1.032 5.037 5.037 0 00-1.104 1.584 4.822 4.822 0 00-.408 1.992zm-4.92 0c0-1.344.248-2.592.744-3.744a9.339 9.339 0 012.064-3.048c.88-.864 1.928-1.536 3.144-2.016 1.232-.496 2.584-.744 4.056-.744 1.456 0 2.8.248 4.032.744 1.232.48 2.288 1.152 3.168 2.016a9.161 9.161 0 012.088 3.048c.496 1.152.744 2.4.744 3.744 0 1.344-.248 2.6-.744 3.768a9.227 9.227 0 01-2.088 3.024c-.88.864-1.936 1.544-3.168 2.04-1.232.48-2.576.72-4.032.72-1.472 0-2.824-.24-4.056-.72-1.216-.496-2.264-1.176-3.144-2.04a9.408 9.408 0 01-2.064-3.024c-.496-1.168-.744-2.424-.744-3.768zm14.328-13.656l-4.608 3.168-1.824-1.704 3.912-3.744 2.52 2.28zm8.347 22.704l3.072-18.096h4.656l3.624 9.648 3.6-9.648h4.656l3.072 18.096h-4.68l-1.56-10.416-4.272 10.416h-1.872l-4.056-10.416-1.56 10.416h-4.68zm30.244-9.048c0 .72.136 1.384.408 1.992.272.608.64 1.136 1.104 1.584.464.448 1 .8 1.608 1.056.624.24 1.28.36 1.968.36s1.336-.12 1.944-.36a5.122 5.122 0 001.632-1.056c.48-.448.856-.976 1.128-1.584a4.822 4.822 0 00.408-1.992c0-.72-.136-1.384-.408-1.992a4.856 4.856 0 00-1.128-1.584 4.805 4.805 0 00-1.632-1.032 4.958 4.958 0 00-1.944-.384c-.688 0-1.344.128-1.968.384a4.86 4.86 0 00-1.608 1.032 5.037 5.037 0 00-1.104 1.584 4.822 4.822 0 00-.408 1.992zm-4.92 0c0-1.344.248-2.592.744-3.744a9.339 9.339 0 012.064-3.048c.88-.864 1.928-1.536 3.144-2.016 1.232-.496 2.584-.744 4.056-.744 1.456 0 2.8.248 4.032.744 1.232.48 2.288 1.152 3.168 2.016a9.161 9.161 0 012.088 3.048c.496 1.152.744 2.4.744 3.744 0 1.344-.248 2.6-.744 3.768a9.227 9.227 0 01-2.088 3.024c-.88.864-1.936 1.544-3.168 2.04-1.232.48-2.576.72-4.032.72-1.472 0-2.824-.24-4.056-.72-1.216-.496-2.264-1.176-3.144-2.04a9.408 9.408 0 01-2.064-3.024c-.496-1.168-.744-2.424-.744-3.768z" fill="#66124B"/></svg>