<svg width="213" height="52" viewBox="0 0 213 52" fill="none" xmlns="http://www.w3.org/2000/svg"><path d="M.34 19V.208h3.887l6.467 8.932c1.044 1.421 2.233 3.451 2.233 3.451V.208h4.06V19h-3.915l-6.264-8.584C5.56 8.734 4.4 6.733 4.4 6.733V19H.34zm26.714.29c-4.32 0-7.743-3.335-7.743-7.54s3.422-7.54 7.743-7.54c4.35 0 7.772 3.335 7.772 7.54s-3.422 7.54-7.772 7.54zm0-3.596c2.175 0 3.8-1.653 3.8-3.944 0-2.262-1.625-3.944-3.8-3.944s-3.799 1.682-3.799 3.944c0 2.291 1.624 3.944 3.8 3.944zm22.827 3.596c-4.32 0-7.743-3.335-7.743-7.54s3.422-7.54 7.743-7.54c2.001 0 3.741.667 5.191 1.856l-2.349 2.726c-.667-.609-1.595-.986-2.755-.986-2.262 0-3.886 1.653-3.886 3.944 0 2.262 1.537 3.944 4.002 3.944 1.218 0 2.407-.464 3.161-1.189l2.06 2.9c-1.393 1.189-3.336 1.885-5.424 1.885zm13.694 0c-4.321 0-7.743-3.335-7.743-7.54s3.422-7.54 7.743-7.54c4.35 0 7.772 3.335 7.772 7.54s-3.422 7.54-7.772 7.54zm0-3.596c2.175 0 3.799-1.653 3.799-3.944 0-2.262-1.624-3.944-3.8-3.944-2.174 0-3.798 1.682-3.798 3.944 0 2.291 1.624 3.944 3.799 3.944zM73.302 19V4.5h3.799v1.943c.841-1.305 2.552-2.233 4.292-2.233 2.291 0 3.712.957 4.466 2.581 1.044-1.74 3.045-2.581 4.698-2.581 4.089 0 5.365 2.813 5.365 6.525V19h-3.886v-7.772c0-1.914-.464-3.335-2.523-3.335-1.914 0-2.958 1.537-2.958 3.451V19h-3.886v-7.772c0-1.914-.435-3.335-2.523-3.335-1.972 0-2.958 1.682-2.958 3.596V19h-3.886zm24.795 4.176V4.5h3.683v1.74c1.189-1.421 2.9-2.03 4.64-2.03 4.002 0 6.554 3.364 6.554 7.511 0 4.205-2.61 7.569-6.612 7.569-1.682 0-3.335-.667-4.379-1.943v5.829h-3.886zm7.308-7.482c2.117 0 3.596-1.653 3.596-3.944s-1.479-3.944-3.596-3.944c-1.972 0-3.451 1.624-3.451 3.944 0 2.291 1.45 3.944 3.451 3.944zm15.62 3.596c-4.002 0-6.554-3.364-6.554-7.54s2.552-7.54 6.554-7.54c1.682 0 3.48.667 4.524 2.059V4.5h3.799V19h-3.799v-1.74c-1.015 1.392-2.842 2.03-4.524 2.03zm.986-3.596c2.001 0 3.451-1.624 3.451-3.944 0-2.262-1.45-3.944-3.451-3.944-2.088 0-3.596 1.682-3.596 3.944 0 2.291 1.508 3.944 3.596 3.944zM131.714 19V4.5h3.828v2.784c.406-1.189 1.885-3.074 5.075-3.074v4.234c-3.364 0-5.017 1.537-5.017 4.988V19h-3.886zm16.455.29c-2.9 0-4.466-1.682-4.466-4.959V7.632h-2.117V4.5h2.117V1.716l3.886-.87V4.5h4.002v3.132h-4.002v6.641c0 1.247.609 1.653 1.305 1.653.928 0 1.74-.522 1.856-.609l1.102 2.871a6.682 6.682 0 01-3.683 1.102zm11.047 0c-4.002 0-6.554-3.364-6.554-7.54s2.552-7.54 6.554-7.54c1.682 0 3.48.667 4.524 2.059V4.5h3.799V19h-3.799v-1.74c-1.015 1.392-2.842 2.03-4.524 2.03zm.986-3.596c2.001 0 3.451-1.624 3.451-3.944 0-2.262-1.45-3.944-3.451-3.944-2.088 0-3.596 1.682-3.596 3.944 0 2.291 1.508 3.944 3.596 3.944zm14.866 3.596c-3.103 0-5.104-1.218-5.916-1.972l1.392-2.987c.986.754 2.349 1.537 4.524 1.537.899 0 2.378-.348 2.378-1.218s-1.247-1.073-2.494-1.421c-2.871-.754-5.22-1.711-5.22-4.495 0-2.958 2.9-4.524 5.626-4.524 2.378 0 3.886.58 5.394 1.45l-1.305 2.9c-1.421-.696-2.755-1.015-4.031-1.015-.899 0-1.74.406-1.74 1.015 0 .812 1.218 1.073 2.552 1.363 2.465.58 5.162 1.653 5.162 4.611 0 3.567-3.625 4.756-6.322 4.756zm19.294 0c-2.9 0-4.466-1.682-4.466-4.959V7.632h-2.117V4.5h2.117V1.716l3.886-.87V4.5h4.002v3.132h-4.002v6.641c0 1.247.609 1.653 1.305 1.653.928 0 1.74-.522 1.856-.609l1.102 2.871a6.682 6.682 0 01-3.683 1.102zm10.088 0c-4.002 0-5.278-2.349-5.278-6.119V4.5h3.886v8.149c0 2.03.87 2.958 2.668 2.958 2.03 0 3.016-1.711 3.016-3.683V4.5h3.886V19h-3.654v-2.03c-.87 1.421-2.842 2.32-4.524 2.32zM27.252 51V36.5h3.886V51H27.25zm1.914-16.269a2.315 2.315 0 01-2.291-2.291c0-1.276 1.044-2.32 2.29-2.32a2.327 2.327 0 012.32 2.32c0 1.247-1.043 2.291-2.32 2.291zM33.525 51V36.5h3.799v1.943c1.16-1.595 2.813-2.233 4.582-2.233 3.828 0 5.162 2.465 5.162 6.438V51h-3.886v-7.859c0-2.117-.551-3.248-2.523-3.248-1.943 0-3.248 1.566-3.248 3.77V51h-3.886zm16.313 0V39.661h-2.262v-3.132h2.262v-.957c0-3.364 1.856-4.814 4.321-4.814 1.305 0 2.755.377 3.77.899l-1.102 2.871c-.319-.145-.957-.435-1.624-.435-.812 0-1.479.406-1.479 1.914v.522h3.625v3.132h-3.625V51h-3.886zm15.607.29c-4.321 0-7.743-3.335-7.743-7.54s3.422-7.54 7.743-7.54c4.35 0 7.772 3.335 7.772 7.54s-3.422 7.54-7.772 7.54zm0-3.596c2.175 0 3.799-1.653 3.799-3.944 0-2.262-1.624-3.944-3.8-3.944-2.175 0-3.799 1.682-3.799 3.944 0 2.291 1.624 3.944 3.8 3.944zM75.172 51V36.5H79v2.784c.406-1.189 1.885-3.074 5.075-3.074v4.234c-3.364 0-5.017 1.537-5.017 4.988V51h-3.886zm10.436 0V36.5h3.8v1.943c.84-1.305 2.551-2.233 4.291-2.233 2.291 0 3.712.957 4.466 2.581 1.044-1.74 3.045-2.581 4.698-2.581 4.089 0 5.365 2.813 5.365 6.525V51h-3.886v-7.772c0-1.914-.464-3.335-2.523-3.335-1.914 0-2.958 1.537-2.958 3.451V51h-3.886v-7.772c0-1.914-.435-3.335-2.523-3.335-1.972 0-2.958 1.682-2.958 3.596V51h-3.886zm30.914.29c-4.002 0-6.554-3.364-6.554-7.54s2.552-7.54 6.554-7.54c1.682 0 3.48.667 4.524 2.059V36.5h3.799V51h-3.799v-1.74c-1.015 1.392-2.842 2.03-4.524 2.03zm.986-3.596c2.001 0 3.451-1.624 3.451-3.944 0-2.262-1.45-3.944-3.451-3.944-2.088 0-3.596 1.682-3.596 3.944 0 2.291 1.508 3.944 3.596 3.944zm17.012 3.596c-4.321 0-7.743-3.335-7.743-7.54s3.422-7.54 7.743-7.54c2.001 0 3.741.667 5.191 1.856l-2.349 2.726c-.667-.609-1.595-.986-2.755-.986-2.262 0-3.886 1.653-3.886 3.944 0 2.262 1.537 3.944 4.002 3.944 1.218 0 2.407-.464 3.161-1.189l2.059 2.9c-1.392 1.189-3.335 1.885-5.423 1.885zm6.839-.29V36.5h3.886V51h-3.886zm1.914-16.269a2.315 2.315 0 01-2.291-2.291c0-1.276 1.044-2.32 2.291-2.32a2.327 2.327 0 012.32 2.32c0 1.247-1.044 2.291-2.32 2.291zm9.115-.203l2.726-4.553h3.857l-3.393 4.553h-3.19zm2.552 16.762c-4.321 0-7.743-3.335-7.743-7.54s3.422-7.54 7.743-7.54c4.35 0 7.772 3.335 7.772 7.54s-3.422 7.54-7.772 7.54zm0-3.596c2.175 0 3.799-1.653 3.799-3.944 0-2.262-1.624-3.944-3.799-3.944s-3.799 1.682-3.799 3.944c0 2.291 1.624 3.944 3.799 3.944zM164.667 51V36.5h3.799v1.943c1.16-1.595 2.813-2.233 4.582-2.233 3.828 0 5.162 2.465 5.162 6.438V51h-3.886v-7.859c0-2.117-.551-3.248-2.523-3.248-1.943 0-3.248 1.566-3.248 3.77V51h-3.886zm17.88.29c-1.305 0-2.291-1.015-2.291-2.262 0-1.305 1.015-2.291 2.291-2.291 1.305 0 2.32.986 2.32 2.291 0 1.247-1.015 2.262-2.32 2.262z" fill="#fff"/></svg>