<svg width="161" height="71" viewBox="0 0 161 71" fill="none" xmlns="http://www.w3.org/2000/svg"><path d="M1.434 13.26c-.78 0-1.352-.624-1.352-1.378 0-.754.598-1.378 1.352-1.378.754 0 1.378.624 1.378 1.378 0 .754-.624 1.378-1.378 1.378zm5.021 0c-.78 0-1.352-.624-1.352-1.378 0-.754.598-1.378 1.352-1.378.754 0 1.378.624 1.378 1.378 0 .754-.624 1.378-1.378 1.378zm5.021 0c-.78 0-1.352-.624-1.352-1.378 0-.754.598-1.378 1.352-1.378.754 0 1.378.624 1.378 1.378 0 .754-.624 1.378-1.378 1.378zm9.52 0c-3.51 0-5.98-2.912-5.98-6.578 0-3.718 2.47-6.604 5.98-6.604 2.027 0 3.822.832 4.758 2.47V.338h1.976V13h-1.977v-2.21c-.936 1.664-2.73 2.47-4.758 2.47zm.442-1.924c2.418 0 4.316-2.002 4.316-4.654s-1.899-4.68-4.317-4.68c-2.521 0-4.393 1.976-4.393 4.68 0 2.678 1.872 4.654 4.393 4.654zM36.19 13V.338h1.976v2.184C38.87 1.144 40.455.078 42.223.078c2.028 0 3.458.884 4.056 2.678C47.19.91 49.165.078 50.647.078c3.042 0 4.654 1.768 4.654 5.252V13H53.3V5.59c0-2.158-.754-3.588-3.068-3.588-2.132 0-3.484 1.716-3.484 3.614V13h-2.002V5.59c0-2.158-.754-3.588-3.042-3.588-2.21 0-3.536 1.872-3.536 3.718V13h-1.976zm28.042.26c-3.588 0-6.63-2.574-6.63-6.578 0-3.666 2.756-6.604 6.37-6.604 3.38 0 6.058 2.912 6.058 6.526 0 .364-.052.754-.052.78H59.657c.312 2.522 2.262 4.108 4.602 4.108 1.43 0 2.86-.494 3.9-1.352l.858 1.456a7.748 7.748 0 01-4.784 1.664zm-4.576-7.384h8.424c-.208-2.34-2.002-4.03-4.212-4.03-2.158 0-3.926 1.664-4.212 4.03zM72.589 13V.338h1.976v2.158C75.45.962 77.087.078 78.96.078c3.172 0 4.576 1.924 4.576 5.252V13H81.56V5.59c0-2.34-.858-3.588-3.146-3.588-2.262 0-3.848 1.768-3.848 3.874V13H72.59zm19.943.26c-3.718 0-6.656-2.912-6.656-6.578 0-3.692 2.938-6.604 6.656-6.604 3.718 0 6.656 2.912 6.656 6.604 0 3.666-2.938 6.578-6.656 6.578zm0-1.924c2.626 0 4.628-2.002 4.628-4.654 0-2.678-2.002-4.68-4.628-4.68-2.626 0-4.628 2.002-4.628 4.68 0 2.652 2.002 4.654 4.628 4.654zm13.457 1.924c-2.574 0-4.212-1.17-4.94-1.924l.806-1.612c.936.91 2.288 1.664 4.134 1.664 1.742 0 3.172-.806 3.172-1.95 0-1.326-1.534-1.69-3.068-2.08-2.34-.598-4.472-1.248-4.472-3.666 0-2.288 2.392-3.614 4.524-3.614 1.742 0 3.016.468 4.316 1.352l-.78 1.612c-1.066-.728-2.184-1.092-3.51-1.092-1.3 0-2.522.728-2.522 1.716 0 1.248 1.404 1.534 2.886 1.846 2.288.52 4.654 1.378 4.654 3.874 0 2.678-2.73 3.874-5.2 3.874zm23.284 3.406V10.79c-.936 1.638-2.73 2.47-4.758 2.47-3.51 0-5.98-2.912-5.98-6.604s2.47-6.578 5.98-6.578c2.054 0 3.9.806 4.836 2.444V.338h1.898v16.328h-1.976zm-4.316-5.33c2.418 0 4.316-2.028 4.316-4.68 0-2.652-1.898-4.654-4.316-4.654-2.522 0-4.394 1.976-4.394 4.654 0 2.704 1.872 4.68 4.394 4.68zm13.746 1.924c-3.12 0-4.602-1.638-4.602-5.018V.338h1.976v7.644c0 2.366 1.144 3.354 3.198 3.354 2.288 0 3.614-1.872 3.614-3.822V.338h1.976V13h-1.898v-2.236c-.78 1.638-2.6 2.496-4.264 2.496zm15.344 0c-3.588 0-6.63-2.574-6.63-6.578 0-3.666 2.756-6.604 6.37-6.604 3.38 0 6.058 2.912 6.058 6.526 0 .364-.052.754-.052.78h-10.322c.312 2.522 2.262 4.108 4.602 4.108 1.43 0 2.86-.494 3.9-1.352l.858 1.456a7.748 7.748 0 01-4.784 1.664zm-4.576-7.384h8.424c-.208-2.34-2.002-4.03-4.212-4.03-2.158 0-3.926 1.664-4.212 4.03zm-83.444 64.79V54.338h1.898v2.184c.936-1.638 2.782-2.444 4.836-2.444 3.51 0 5.98 2.886 5.98 6.578s-2.47 6.604-5.98 6.604c-2.002 0-3.822-.832-4.758-2.47v5.876h-1.976zm6.292-5.33c2.522 0 4.394-1.976 4.394-4.68 0-2.678-1.872-4.654-4.394-4.654-2.418 0-4.316 2.002-4.316 4.654s1.898 4.68 4.316 4.68zM81.541 67V54.338h1.976v2.678c.728-1.664 2.366-2.938 4.888-2.938v2.158c-2.964 0-4.888 1.664-4.888 4.758V67h-1.976zm9.14 0V54.338h1.977V67h-1.976zm.989-14.924c-.728 0-1.3-.572-1.3-1.3a1.31 1.31 0 011.3-1.326c.728 0 1.326.598 1.326 1.326 0 .728-.598 1.3-1.326 1.3zM95.988 67V54.338h1.976v2.184c.702-1.378 2.288-2.444 4.056-2.444 2.028 0 3.458.884 4.056 2.678.91-1.846 2.886-2.678 4.368-2.678 3.042 0 4.654 1.768 4.654 5.252V67h-2.002v-7.41c0-2.158-.754-3.588-3.068-3.588-2.132 0-3.484 1.716-3.484 3.614V67h-2.002v-7.41c0-2.158-.754-3.588-3.042-3.588-2.21 0-3.536 1.872-3.536 3.718V67h-1.976zm28.302.26c-3.588 0-6.63-2.574-6.63-6.578 0-3.666 2.756-6.604 6.37-6.604 3.38 0 6.058 2.912 6.058 6.526 0 .364-.052.754-.052.78h-10.322c.312 2.522 2.262 4.108 4.602 4.108 1.43 0 2.86-.494 3.9-1.352l.858 1.456a7.748 7.748 0 01-4.784 1.664zm-4.576-7.384h8.424c-.208-2.34-2.002-4.03-4.212-4.03-2.158 0-3.926 1.664-4.212 4.03zM132.906 67V54.338h1.976v2.678c.728-1.664 2.366-2.938 4.888-2.938v2.158c-2.964 0-4.888 1.664-4.888 4.758V67h-1.976zm15.023.26c-3.718 0-6.656-2.912-6.656-6.578 0-3.692 2.938-6.604 6.656-6.604 3.718 0 6.656 2.912 6.656 6.604 0 3.666-2.938 6.578-6.656 6.578zm0-1.924c2.626 0 4.628-2.002 4.628-4.654 0-2.678-2.002-4.68-4.628-4.68-2.626 0-4.628 2.002-4.628 4.68 0 2.652 2.002 4.654 4.628 4.654zm10.416 1.924c-.78 0-1.352-.624-1.352-1.378 0-.754.598-1.378 1.352-1.378.754 0 1.378.624 1.378 1.378 0 .754-.624 1.378-1.378 1.378z" fill="#275D80"/><path d="M8.278 40.28c-2.8 0-4.312-1.624-4.312-4.788v-6.468H1.922V26h2.044v-2.688l3.752-.84V26h3.864v3.024H7.718v6.412c0 1.204.588 1.596 1.26 1.596.896 0 1.68-.504 1.792-.588l1.064 2.772a6.452 6.452 0 01-3.556 1.064zm9.264-16.184l2.632-4.396h3.724l-3.276 4.396h-3.08zm1.036 16.184c-3.864 0-5.096-2.268-5.096-5.908V26h3.752v7.868c0 1.96.84 2.856 2.576 2.856 1.96 0 2.912-1.652 2.912-3.556V26h3.752v14h-3.528v-1.96c-.84 1.372-2.744 2.24-4.368 2.24zM35.471 40V21.576h3.752V40h-3.752zm13.673.28c-4.172 0-7.476-3.22-7.476-7.28 0-4.06 3.304-7.28 7.476-7.28 4.2 0 7.504 3.22 7.504 7.28 0 4.06-3.304 7.28-7.504 7.28zm0-3.472c2.1 0 3.668-1.596 3.668-3.808 0-2.184-1.568-3.808-3.668-3.808S45.476 30.816 45.476 33c0 2.212 1.568 3.808 3.668 3.808zm14.854 3.472c-2.996 0-4.928-1.176-5.712-1.904l1.344-2.884c.952.728 2.268 1.484 4.368 1.484.868 0 2.296-.336 2.296-1.176 0-.84-1.204-1.036-2.408-1.372-2.772-.728-5.04-1.652-5.04-4.34 0-2.856 2.8-4.368 5.432-4.368 2.296 0 3.752.56 5.208 1.4l-1.26 2.8c-1.372-.672-2.66-.98-3.892-.98-.868 0-1.68.392-1.68.98 0 .784 1.176 1.036 2.464 1.316 2.38.56 4.984 1.596 4.984 4.452 0 3.444-3.5 4.592-6.104 4.592zM78.483 40V21.576h3.752V40h-3.752zm6.617 0V21.576h3.752V40H85.1zm12.525.28c-3.864 0-6.328-3.248-6.328-7.28s2.464-7.28 6.328-7.28c1.624 0 3.36.644 4.368 1.988V26h3.668v14h-3.668v-1.68c-.98 1.344-2.744 1.96-4.368 1.96zm.952-3.472c1.932 0 3.332-1.568 3.332-3.808 0-2.184-1.4-3.808-3.332-3.808-2.016 0-3.472 1.624-3.472 3.808 0 2.212 1.456 3.808 3.472 3.808zM108.506 40V26h3.668v1.876c.812-1.26 2.464-2.156 4.144-2.156 2.212 0 3.584.924 4.312 2.492 1.008-1.68 2.94-2.492 4.536-2.492 3.948 0 5.18 2.716 5.18 6.3V40h-3.752v-7.504c0-1.848-.448-3.22-2.436-3.22-1.848 0-2.856 1.484-2.856 3.332V40h-3.752v-7.504c0-1.848-.42-3.22-2.436-3.22-1.904 0-2.856 1.624-2.856 3.472V40h-3.752zm31.752.28c-4.088 0-7.672-2.66-7.672-7.28 0-4.032 3.136-7.28 7.252-7.28 3.808 0 6.804 3.248 6.804 7.224 0 .672-.084 1.344-.084 1.344h-10.164c.448 1.932 2.044 2.856 3.892 2.856 1.344 0 2.744-.392 3.78-1.092l1.4 2.688a9.431 9.431 0 01-5.208 1.54zm-3.92-8.484h6.776c-.28-1.764-1.68-2.94-3.388-2.94-1.624 0-3.024 1.176-3.388 2.94zm17.758 8.484c-2.996 0-4.928-1.176-5.712-1.904l1.344-2.884c.952.728 2.268 1.484 4.368 1.484.868 0 2.296-.336 2.296-1.176 0-.84-1.204-1.036-2.408-1.372-2.772-.728-5.04-1.652-5.04-4.34 0-2.856 2.8-4.368 5.432-4.368 2.296 0 3.752.56 5.208 1.4l-1.26 2.8c-1.372-.672-2.66-.98-3.892-.98-.868 0-1.68.392-1.68.98 0 .784 1.176 1.036 2.464 1.316 2.38.56 4.984 1.596 4.984 4.452 0 3.444-3.5 4.592-6.104 4.592z" fill="#091C29"/></svg>