<svg width="164" height="75" viewBox="0 0 164 75" fill="none" xmlns="http://www.w3.org/2000/svg"><path d="M32.154 18V1.152h12.74v1.82h-10.66v5.122h9.984v1.794h-9.984v6.292h11.05V18h-13.13zm15.658 0V.892h1.976V18h-1.976zm11.255 0V6.976h-2.054V5.338h2.054v-.962c0-3.146 1.664-4.004 3.406-4.004 1.248 0 2.418.468 3.042.858l-.65 1.508c-.26-.156-1.014-.624-1.976-.624-.988 0-1.846.494-1.846 2.47v.754h4.03v1.638h-4.03V18h-1.976zm7.89 0V5.338h1.976v2.678c.728-1.664 2.366-2.938 4.888-2.938v2.158c-2.964 0-4.888 1.664-4.888 4.758V18h-1.976zm14.347.26c-3.51 0-5.98-2.912-5.98-6.578 0-3.718 2.47-6.604 5.98-6.604 2.028 0 3.822.832 4.758 2.47v-2.21h1.976V18h-1.976v-2.21c-.936 1.664-2.73 2.47-4.758 2.47zm.442-1.924c2.418 0 4.316-2.002 4.316-4.654s-1.898-4.68-4.316-4.68c-2.522 0-4.394 1.976-4.394 4.68 0 2.678 1.872 4.654 4.394 4.654zM95.75 18.26c-3.12 0-4.602-1.638-4.602-5.018V5.338h1.976v7.644c0 2.366 1.144 3.354 3.198 3.354 2.288 0 3.614-1.872 3.614-3.822V5.338h1.976V18h-1.898v-2.236c-.78 1.638-2.6 2.496-4.264 2.496zm14.955 0c-3.51 0-5.98-2.912-5.98-6.578 0-3.718 2.47-6.604 5.98-6.604 2.028 0 3.822.832 4.758 2.47V.892h1.976V18h-1.898v-2.21c-.936 1.664-2.782 2.47-4.836 2.47zm.442-1.924c2.418 0 4.316-2.002 4.316-4.654s-1.898-4.68-4.316-4.68c-2.522 0-4.394 1.976-4.394 4.68 0 2.678 1.872 4.654 4.394 4.654zm15.722 1.924c-3.588 0-6.63-2.574-6.63-6.578 0-3.666 2.756-6.604 6.37-6.604 3.38 0 6.058 2.912 6.058 6.526 0 .364-.052.754-.052.78h-10.322c.312 2.522 2.262 4.108 4.602 4.108 1.43 0 2.86-.494 3.9-1.352l.858 1.456a7.748 7.748 0 01-4.784 1.664zm-4.576-7.384h8.424c-.208-2.34-2.002-4.03-4.212-4.03-2.158 0-3.926 1.664-4.212 4.03zM.344 49.666V33.338h1.899v2.184c.936-1.638 2.782-2.444 4.836-2.444 3.51 0 5.98 2.886 5.98 6.578s-2.47 6.604-5.98 6.604c-2.002 0-3.822-.832-4.758-2.47v5.876H.345zm6.293-5.33c2.522 0 4.394-1.976 4.394-4.68 0-2.678-1.872-4.654-4.394-4.654-2.418 0-4.316 2.002-4.316 4.654s1.898 4.68 4.316 4.68zm13.615 1.924c-3.12 0-4.602-1.638-4.602-5.018v-7.904h1.976v7.644c0 2.366 1.144 3.354 3.198 3.354 2.288 0 3.614-1.872 3.614-3.822v-7.176h1.976V46h-1.898v-2.236c-.78 1.638-2.6 2.496-4.264 2.496zm15.605 0c-3.588 0-6.63-2.574-6.63-6.578 0-3.666 2.756-6.604 6.37-6.604 3.38 0 6.058 2.912 6.058 6.526 0 .364-.052.754-.052.78H31.281c.312 2.522 2.262 4.108 4.602 4.108 1.43 0 2.86-.494 3.9-1.352l.858 1.456a7.748 7.748 0 01-4.784 1.664zm-4.576-7.384h8.424c-.208-2.34-2.002-4.03-4.212-4.03-2.158 0-3.926 1.664-4.212 4.03zm18.653 7.384c-3.51 0-5.98-2.912-5.98-6.578 0-3.718 2.47-6.604 5.98-6.604 2.028 0 3.822.832 4.758 2.47v-6.656h1.976V46H54.77v-2.21c-.936 1.664-2.782 2.47-4.836 2.47zm.442-1.924c2.418 0 4.316-2.002 4.316-4.654s-1.898-4.68-4.316-4.68c-2.522 0-4.394 1.976-4.394 4.68 0 2.678 1.872 4.654 4.394 4.654zm15.721 1.924c-3.588 0-6.63-2.574-6.63-6.578 0-3.666 2.756-6.604 6.37-6.604 3.38 0 6.058 2.912 6.058 6.526 0 .364-.052.754-.052.78H61.521c.312 2.522 2.262 4.108 4.602 4.108 1.43 0 2.86-.494 3.9-1.352l.858 1.456a7.748 7.748 0 01-4.784 1.664zm-4.576-7.384h8.424c-.208-2.34-2.002-4.03-4.212-4.03-2.158 0-3.926 1.664-4.212 4.03zM80.376 46V28.892h1.976V46h-1.976zm5.307 0V28.892h1.976V46h-1.976zm11.416.26c-3.588 0-6.63-2.574-6.63-6.578 0-3.666 2.756-6.604 6.37-6.604 3.38 0 6.058 2.912 6.058 6.526 0 .364-.052.754-.052.78H92.523c.312 2.522 2.262 4.108 4.602 4.108 1.43 0 2.86-.494 3.9-1.352l.858 1.456a7.747 7.747 0 01-4.784 1.664zm-4.576-7.384h8.424c-.208-2.34-2.002-4.03-4.212-4.03-2.158 0-3.926 1.664-4.212 4.03zm18.887 10.946c-2.028 0-3.77-.676-4.966-1.872l.832-1.274c1.014 1.014 2.496 1.586 3.978 1.586 2.158 0 4.602-1.326 4.602-5.07v-.416c-.546 1.43-2.288 2.6-4.732 2.6-3.484 0-5.928-2.704-5.928-6.136s2.444-6.162 5.928-6.162c2.184 0 4.16.988 4.81 2.574v-2.314h1.898v9.802c0 5.096-3.64 6.682-6.422 6.682zm.104-6.214c2.47 0 4.342-1.872 4.342-4.524 0-2.392-1.95-4.238-4.342-4.238-2.418 0-4.29 1.898-4.29 4.394 0 2.496 1.872 4.368 4.29 4.368zm15.099 2.652c-3.51 0-5.98-2.912-5.98-6.578 0-3.718 2.47-6.604 5.98-6.604 2.028 0 3.822.832 4.758 2.47v-2.21h1.976V46h-1.976v-2.21c-.936 1.664-2.73 2.47-4.758 2.47zm.442-1.924c2.418 0 4.316-2.002 4.316-4.654s-1.898-4.68-4.316-4.68c-2.522 0-4.394 1.976-4.394 4.68 0 2.678 1.872 4.654 4.394 4.654zM136.667 46V33.338h1.976v2.678c.728-1.664 2.366-2.938 4.888-2.938v2.158c-2.964 0-4.888 1.664-4.888 4.758V46h-1.976zm20.263.26c-3.51 0-5.98-2.912-5.98-6.578 0-3.718 2.47-6.604 5.98-6.604 2.028 0 3.822.832 4.758 2.47v-2.21h1.976V46h-1.976v-2.21c-.936 1.664-2.73 2.47-4.758 2.47zm.442-1.924c2.418 0 4.316-2.002 4.316-4.654s-1.898-4.68-4.316-4.68c-2.522 0-4.394 1.976-4.394 4.68 0 2.678 1.872 4.654 4.394 4.654zM25.06 74.26c-2.236 0-3.562-1.092-3.562-4.056v-7.228H19.6v-1.638h1.898v-2.73l1.976-.364v3.094h4.316v1.638h-4.316v7.28c0 1.742.754 2.236 1.768 2.236 1.17 0 2.08-.702 2.08-.702l.65 1.534c-.494.338-1.534.936-2.912.936zm5.258-.26V61.338h1.976v2.678c.728-1.664 2.366-2.938 4.888-2.938v2.158c-2.964 0-4.888 1.664-4.888 4.758V74h-1.976zm14.347.26c-3.51 0-5.98-2.912-5.98-6.578 0-3.718 2.47-6.604 5.98-6.604 2.028 0 3.822.832 4.758 2.47v-2.21h1.976V74h-1.976v-2.21c-.936 1.664-2.73 2.47-4.758 2.47zm.442-1.924c2.418 0 4.316-2.002 4.316-4.654s-1.898-4.68-4.316-4.68c-2.522 0-4.394 1.976-4.394 4.68 0 2.678 1.872 4.654 4.394 4.654zm13.772 1.742l-5.59-12.74h2.002l3.588 8.086c.52 1.17.91 2.522.91 2.522s.39-1.352.91-2.522l3.562-8.086h2.002l-5.564 12.74h-1.82zM72.344 59.31l2.106-3.458h2.158l-2.444 3.458h-1.82zm1.612 14.95c-3.588 0-6.63-2.574-6.63-6.578 0-3.666 2.756-6.604 6.37-6.604 3.38 0 6.058 2.912 6.058 6.526 0 .364-.052.754-.052.78H69.38c.312 2.522 2.262 4.108 4.602 4.108 1.43 0 2.86-.494 3.9-1.352l.858 1.456a7.748 7.748 0 01-4.784 1.664zm-4.576-7.384h8.424c-.208-2.34-2.002-4.03-4.212-4.03-2.158 0-3.926 1.664-4.212 4.03zm17.456 7.384c-2.574 0-4.212-1.17-4.94-1.924l.806-1.612c.936.91 2.288 1.664 4.134 1.664 1.742 0 3.172-.806 3.172-1.95 0-1.326-1.534-1.69-3.068-2.08-2.34-.598-4.472-1.248-4.472-3.666 0-2.288 2.392-3.614 4.524-3.614 1.742 0 3.016.468 4.316 1.352l-.78 1.612c-1.066-.728-2.184-1.092-3.51-1.092-1.3 0-2.522.728-2.522 1.716 0 1.248 1.404 1.534 2.886 1.846 2.288.52 4.654 1.378 4.654 3.874 0 2.678-2.73 3.874-5.2 3.874zm19.046 0c-3.51 0-5.98-2.912-5.98-6.578 0-3.718 2.47-6.604 5.98-6.604 2.028 0 3.822.832 4.758 2.47v-6.656h1.976V74h-1.898v-2.21c-.936 1.664-2.782 2.47-4.836 2.47zm.442-1.924c2.418 0 4.316-2.002 4.316-4.654s-1.898-4.68-4.316-4.68c-2.522 0-4.394 1.976-4.394 4.68 0 2.678 1.872 4.654 4.394 4.654zm15.721 1.924c-3.588 0-6.63-2.574-6.63-6.578 0-3.666 2.756-6.604 6.37-6.604 3.38 0 6.058 2.912 6.058 6.526 0 .364-.052.754-.052.78h-10.322c.312 2.522 2.262 4.108 4.602 4.108 1.43 0 2.86-.494 3.9-1.352l.858 1.456a7.748 7.748 0 01-4.784 1.664zm-4.576-7.384h8.424c-.208-2.34-2.002-4.03-4.212-4.03-2.158 0-3.926 1.664-4.212 4.03zm14.155 7.384c-.78 0-1.352-.624-1.352-1.378 0-.754.598-1.378 1.352-1.378.754 0 1.378.624 1.378 1.378 0 .754-.624 1.378-1.378 1.378zm5.281 0c-.78 0-1.352-.624-1.352-1.378 0-.754.598-1.378 1.352-1.378.754 0 1.378.624 1.378 1.378 0 .754-.624 1.378-1.378 1.378zm5.282 0c-.78 0-1.352-.624-1.352-1.378 0-.754.598-1.378 1.352-1.378.754 0 1.378.624 1.378 1.378 0 .754-.624 1.378-1.378 1.378z" fill="#fff" fill-opacity=".75"/></svg>