<svg width="188" height="38" viewBox="0 0 188 38" fill="none" xmlns="http://www.w3.org/2000/svg"><path d="M.804 37.576l.615-16.687h5.986l.574 16.687H.804zM4.37 18.634c-2.337 0-4.06-1.763-4.06-4.018s1.723-4.018 4.06-4.018c2.378 0 4.14 1.763 4.14 4.018s-1.762 4.018-4.14 4.018zM26.95 32.492c-8.446 0-14.063-6.109-14.063-13.776 0-7.585 5.617-13.694 14.063-13.694 4.059 0 7.708 1.435 10.127 3.854l-5.125 5.289c-1.886-1.927-3.403-2.091-4.674-2.091-3.444 0-6.273 2.788-6.273 6.642 0 3.936 2.624 6.724 6.273 6.724 2.173 0 4.182-.984 5.658-2.952l4.96 5.453c-2.664 2.952-6.395 4.551-10.946 4.551zm21.37-.082c-6.315 0-7.627-3.936-7.627-9.266V11.049h7.462v11.152c0 2.214.738 3.239 2.706 3.239 2.255 0 3.075-1.927 3.075-4.51v-9.881h7.462V32h-7.052v-2.296c-1.148 1.476-3.854 2.706-6.027 2.706zM65.5 32V11.049h7.462V32h-7.462zm3.69-22.55c-2.296 0-4.223-1.927-4.223-4.223 0-2.337 1.927-4.264 4.223-4.264 2.378 0 4.305 1.927 4.305 4.264 0 2.296-1.927 4.223-4.305 4.223zm16.43 22.96c-5.822 0-8.98-4.838-8.98-10.865 0-6.068 3.363-10.906 9.226-10.906 1.68 0 3.772.574 5.043 2.173v-7.79h7.462V32H91.32v-2.337c-1.107 2.132-4.018 2.747-5.7 2.747zm1.968-6.56c1.968 0 3.362-1.763 3.362-4.305 0-2.501-1.394-4.346-3.362-4.346-1.968 0-3.362 1.845-3.362 4.346 0 2.542 1.394 4.305 3.362 4.305zm23.436 6.56c-5.822 0-8.979-4.838-8.979-10.865 0-6.068 3.157-10.906 8.979-10.906 1.681 0 4.469.574 5.699 2.747v-2.337h7.052V32h-7.052v-2.337c-1.148 2.132-4.018 2.747-5.699 2.747zm1.968-6.56c1.968 0 3.362-1.763 3.362-4.305 0-2.501-1.394-4.346-3.362-4.346-1.968 0-3.362 1.845-3.362 4.346 0 2.542 1.394 4.305 3.362 4.305zm23.436 6.56c-5.822 0-8.979-4.838-8.979-10.865 0-6.068 3.362-10.906 9.225-10.906 1.681 0 3.772.574 5.043 2.173v-7.79h7.462V32h-7.052v-2.337c-1.107 2.132-4.018 2.747-5.699 2.747zm1.968-6.56c1.968 0 3.362-1.763 3.362-4.305 0-2.501-1.394-4.346-3.362-4.346-1.968 0-3.362 1.845-3.362 4.346 0 2.542 1.394 4.305 3.362 4.305zm25.773 6.56c-6.437 0-11.316-4.838-11.316-10.865 0-6.068 4.879-10.906 11.316-10.906 6.437 0 11.316 4.838 11.316 10.906 0 6.027-4.879 10.865-11.316 10.865zm0-6.56c2.214 0 3.772-1.763 3.772-4.305 0-2.501-1.558-4.346-3.772-4.346-2.214 0-3.772 1.845-3.772 4.346 0 2.542 1.558 4.305 3.772 4.305zm16.617-3.731l-.615-16.687h7.175l-.574 16.687h-5.986zm2.952 2.255c2.378 0 4.141 1.763 4.141 4.018s-1.763 4.018-4.141 4.018c-2.337 0-4.059-1.763-4.059-4.018s1.722-4.018 4.059-4.018z" fill="#fff"/></svg>