<svg width="92" height="109" viewBox="0 0 92 109" fill="none" xmlns="http://www.w3.org/2000/svg"><path d="M63.53 3.965h-49c-5.8 0-10.5 4.575-10.5 10.22v81.75c0 5.643 4.7 10.218 10.5 10.218h49c5.798 0 10.5-4.575 10.5-10.219v-81.75c0-5.644-4.702-10.219-10.5-10.219z" fill="#F2F2F2"/><path d="M74.03 14.184c0-2.71-1.107-5.31-3.076-7.226a10.648 10.648 0 00-7.425-2.993h-49a10.648 10.648 0 00-7.424 2.993 10.082 10.082 0 00-3.076 7.226V27.81h70V14.184zM4.03 95.934c0 2.71 1.106 5.309 3.075 7.226a10.65 10.65 0 007.424 2.993h49a10.65 10.65 0 007.425-2.993c1.97-1.917 3.075-4.516 3.075-7.226V82.31h-70v13.625z" fill="#C1C5C8"/><path d="M88.03 27.81v34.062a3.36 3.36 0 01-1.026 2.408 3.55 3.55 0 01-2.475.998h-17.5l-10.5 10.219-10.5-10.22h-10.5a3.55 3.55 0 01-2.475-.997 3.361 3.361 0 01-1.025-2.408V27.809c0-.903.37-1.77 1.025-2.409a3.55 3.55 0 012.475-.997h49a3.55 3.55 0 012.475.998 3.36 3.36 0 011.025 2.408z" fill="#F2F2F2"/><path d="M84.53 20.997h-7v-6.813c0-3.614-1.476-7.08-4.101-9.634-2.626-2.555-6.187-3.99-9.9-3.99h-49c-3.713 0-7.274 1.435-9.9 3.99-2.625 2.555-4.1 6.02-4.1 9.634v81.75c0 3.614 1.475 7.079 4.1 9.634 2.626 2.556 6.187 3.991 9.9 3.991h49c3.713 0 7.274-1.435 9.9-3.991 2.625-2.555 4.1-6.02 4.1-9.634V78.903a3.36 3.36 0 00-1.025-2.409 3.55 3.55 0 00-2.475-.997 3.55 3.55 0 00-2.474.997 3.361 3.361 0 00-1.026 2.409v17.031a6.72 6.72 0 01-2.05 4.817 7.098 7.098 0 01-4.95 1.996h-49a7.098 7.098 0 01-4.95-1.996 6.72 6.72 0 01-2.05-4.817v-81.75c0-1.807.738-3.54 2.05-4.817a7.099 7.099 0 014.95-1.995h49a7.1 7.1 0 014.95 1.995 6.721 6.721 0 012.05 4.817v6.813h-35a7.099 7.099 0 00-4.95 1.995 6.721 6.721 0 00-2.05 4.817v34.063a6.72 6.72 0 002.05 4.817 7.099 7.099 0 004.95 1.995h9.065l9.45 9.231c.326.32.713.573 1.14.746a3.582 3.582 0 002.691 0 3.507 3.507 0 001.14-.746l9.45-9.23h16.064a7.1 7.1 0 004.95-1.996 6.721 6.721 0 002.05-4.817V27.809c0-1.807-.737-3.54-2.05-4.817a7.1 7.1 0 00-4.95-1.995zm0 40.875h-17.5a3.585 3.585 0 00-1.344.252 3.51 3.51 0 00-1.142.735l-8.015 7.835-8.015-7.835a3.509 3.509 0 00-1.14-.735 3.584 3.584 0 00-1.345-.252h-10.5V27.809h49v34.063z" fill="#101B31"/><path d="M84.53 20.997h-49a7.099 7.099 0 00-4.95 1.995 6.721 6.721 0 00-2.05 4.817v34.063a6.72 6.72 0 002.05 4.817 7.099 7.099 0 004.95 1.995h9.064l9.45 9.231c.326.32.713.573 1.14.746a3.582 3.582 0 002.691 0 3.507 3.507 0 001.14-.746l9.45-9.23h16.064a7.1 7.1 0 004.95-1.996 6.721 6.721 0 002.05-4.817V27.809c0-1.807-.737-3.54-2.05-4.817a7.1 7.1 0 00-4.95-1.995zm0 40.875h-17.5a3.585 3.585 0 00-1.344.252 3.51 3.51 0 00-1.142.735l-8.015 7.835-8.015-7.835a3.509 3.509 0 00-1.14-.735 3.584 3.584 0 00-1.345-.252h-10.5V27.809h49v34.063z" fill="#C80000"/><path d="M49.53 41.434h21a3.55 3.55 0 002.474-.998 3.36 3.36 0 001.025-2.408 3.36 3.36 0 00-1.025-2.409 3.55 3.55 0 00-2.475-.997h-21a3.55 3.55 0 00-2.475.997 3.36 3.36 0 00-1.025 2.409c0 .903.37 1.77 1.025 2.408a3.55 3.55 0 002.475.998zM49.53 55.06h21a3.55 3.55 0 002.474-.999 3.36 3.36 0 001.025-2.408 3.36 3.36 0 00-1.025-2.409 3.55 3.55 0 00-2.475-.997h-21a3.55 3.55 0 00-2.475.997 3.361 3.361 0 00-1.025 2.409c0 .903.37 1.77 1.025 2.408a3.55 3.55 0 002.475.998z" fill="#C80000"/><path d="M39.03 96.377c1.932 0 3.5-1.574 3.5-3.517a3.509 3.509 0 00-3.5-3.517 3.509 3.509 0 00-3.5 3.517 3.509 3.509 0 003.5 3.517z" fill="#101B31"/></svg>