<svg width="107" height="113" viewBox="0 0 107 113" fill="none" xmlns="http://www.w3.org/2000/svg"><path d="M64.2 3.563H14.267c-5.91 0-10.7 4.785-10.7 10.687v85.5c0 5.903 4.79 10.688 10.7 10.688H64.2c5.91 0 10.7-4.785 10.7-10.688v-85.5c0-5.902-4.79-10.687-10.7-10.687z" fill="#F2F2F2"/><path d="M74.9 14.25a10.68 10.68 0 00-3.134-7.557 10.706 10.706 0 00-7.566-3.13H14.267c-2.838 0-5.56 1.126-7.566 3.13a10.681 10.681 0 00-3.134 7.557V28.5H74.9V14.25zM3.567 99.75a10.68 10.68 0 003.134 7.557 10.704 10.704 0 007.566 3.131H64.2c2.838 0 5.56-1.126 7.566-3.131A10.679 10.679 0 0074.9 99.75V85.5H3.567v14.25z" fill="#C1C5C8"/><path d="M64.2 114H14.267a14.273 14.273 0 01-10.088-4.174A14.24 14.24 0 010 99.75v-85.5c0-3.78 1.503-7.404 4.179-10.076A14.275 14.275 0 0114.267 0H64.2c3.784 0 7.412 1.501 10.088 4.174a14.242 14.242 0 014.179 10.076v85.5a14.24 14.24 0 01-4.179 10.076A14.273 14.273 0 0164.2 114zM14.267 7.125c-1.892 0-3.707.75-5.044 2.087a7.12 7.12 0 00-2.09 5.038v85.5a7.12 7.12 0 002.09 5.038 7.139 7.139 0 005.044 2.087H64.2a7.138 7.138 0 005.044-2.087 7.12 7.12 0 002.09-5.038v-85.5a7.12 7.12 0 00-2.09-5.038A7.137 7.137 0 0064.2 7.125H14.267z" fill="#101B31"/><path d="M39.233 21.375H24.967a3.56 3.56 0 110-7.125h14.266a3.569 3.569 0 013.567 3.563 3.56 3.56 0 01-3.567 3.562zM89.167 74.813A3.56 3.56 0 0185.6 71.25v-28.5a3.56 3.56 0 013.567-3.563c.946 0 1.853.376 2.522 1.044a3.56 3.56 0 011.044 2.519v28.5a3.56 3.56 0 01-3.566 3.563zM103.433 64.125a3.569 3.569 0 01-2.522-1.043 3.56 3.56 0 01-1.044-2.52V49.876c0-.945.375-1.85 1.044-2.519a3.569 3.569 0 016.089 2.52v10.687a3.569 3.569 0 01-3.567 3.563zM53.5 21.375a3.565 3.565 0 003.567-3.563A3.565 3.565 0 0053.5 14.25a3.565 3.565 0 00-3.567 3.563 3.565 3.565 0 003.567 3.562zM39.233 100.648a3.565 3.565 0 003.567-3.563 3.565 3.565 0 00-3.567-3.562 3.565 3.565 0 00-3.566 3.562 3.565 3.565 0 003.566 3.563z" fill="#101B31"/><path d="M39.02 75.169c10.144 0 18.368-8.214 18.368-18.347 0-10.133-8.224-18.347-18.369-18.347-10.144 0-18.368 8.214-18.368 18.347 0 10.133 8.224 18.347 18.368 18.347z" fill="#C80000"/><path d="M39.02 59.957a3.143 3.143 0 002.9-1.935c.157-.38.238-.788.238-1.2v-9.37a3.13 3.13 0 00-1.843-3.196 3.142 3.142 0 00-4.264 1.899c-.136.418-.181.86-.135 1.298V57a3.133 3.133 0 003.103 2.957zM39.02 69.326a3.137 3.137 0 003.138-3.135 3.137 3.137 0 00-3.139-3.135 3.137 3.137 0 00-3.138 3.135 3.137 3.137 0 003.138 3.135z" fill="#fff"/></svg>