<svg width="149" height="122" viewBox="0 0 149 122" fill="none" xmlns="http://www.w3.org/2000/svg"><path fill-rule="evenodd" clip-rule="evenodd" d="M61.42 124.011a61.003 61.003 0 0034.123-10.45c10.1-6.813 17.973-16.497 22.621-27.827a62.56 62.56 0 003.496-35.825 62.19 62.19 0 00-16.81-31.748 61.24 61.24 0 00-31.448-16.97A60.881 60.881 0 0037.916 4.72C26.693 9.413 17.1 17.36 10.35 27.557A62.427 62.427 0 000 62.006C0 78.45 6.471 94.222 17.99 105.85c11.518 11.628 27.14 18.161 43.43 18.161z" fill="#495E89" opacity=".54"/><path fill-rule="evenodd" clip-rule="evenodd" d="M141.986 45.547a6.97 6.97 0 003.897-1.193 7.07 7.07 0 002.583-3.178 7.14 7.14 0 00-1.52-7.717 6.995 6.995 0 00-3.592-1.938 6.952 6.952 0 00-4.052.403 7.029 7.029 0 00-3.148 2.608 7.127 7.127 0 00-1.182 3.934c0 1.878.739 3.68 2.054 5.007a6.983 6.983 0 004.96 2.074zM8.057 122.863c1.032 0 2.04-.309 2.898-.888a5.26 5.26 0 001.922-2.364 5.315 5.315 0 00.296-3.044 5.283 5.283 0 00-1.429-2.696 5.2 5.2 0 00-2.672-1.441 5.163 5.163 0 00-3.014.302 5.223 5.223 0 00-2.34 1.941 5.303 5.303 0 00.651 6.649 5.195 5.195 0 003.688 1.541z" fill="#7588AF"/><path fill-rule="evenodd" clip-rule="evenodd" d="M102.829 131a44.731 44.731 0 0025.023-7.661 45.377 45.377 0 0016.589-20.405 45.868 45.868 0 002.564-26.27 45.604 45.604 0 00-12.326-23.28 44.907 44.907 0 00-23.061-12.444 44.641 44.641 0 00-26.022 2.588 45.133 45.133 0 00-20.212 16.747 45.776 45.776 0 00-7.589 25.262c0 12.057 4.745 23.621 13.19 32.147C79.431 126.21 90.885 131 102.83 131z" fill="#1A2B4F" opacity=".51"/></svg>