<svg width="232" height="21" viewBox="0 0 232 21" fill="none" xmlns="http://www.w3.org/2000/svg"><path d="M11.675 11.143H2.7c.13.788.476 1.416 1.038 1.88.563.466 1.281.698 2.155.698a3.739 3.739 0 002.692-1.09l2.353 1.1c-.586.83-1.289 1.442-2.108 1.84-.819.398-1.79.596-2.915.596-1.747 0-3.168-.548-4.267-1.646C.55 13.423 0 12.05 0 10.397 0 8.745.548 7.3 1.642 6.181c1.095-1.118 2.468-1.676 4.12-1.676 1.753 0 3.179.56 4.277 1.676 1.098 1.118 1.648 2.594 1.648 4.43l-.01.53-.002.002zM8.882 8.951A2.785 2.785 0 007.79 7.443c-.544-.388-1.172-.582-1.891-.582-.78 0-1.462.218-2.05.652-.37.272-.71.75-1.026 1.438h6.059zM20.385 6.341l-1.729 1.722c-.702-.694-1.34-1.04-1.913-1.04-.313 0-.56.066-.737.198a.593.593 0 00-.265.494.6.6 0 00.169.412c.112.126.39.298.833.514l1.024.51c1.078.53 1.82 1.07 2.22 1.62.402.55.605 1.196.605 1.936 0 .986-.363 1.808-1.09 2.466-.727.66-1.7.988-2.921.988-1.625 0-2.92-.632-3.89-1.896l1.72-1.866c.326.38.71.688 1.15.922.44.234.83.352 1.172.352.37 0 .665-.088.89-.264.224-.176.337-.38.337-.612 0-.428-.406-.846-1.217-1.254l-.942-.468c-1.8-.904-2.7-2.036-2.7-3.394 0-.876.34-1.626 1.018-2.248.679-.622 1.548-.932 2.604-.932a4.52 4.52 0 013.664 1.834l-.002.006zM23.309 12.977c.443 0 .823.154 1.136.464.313.31.47.684.47 1.126 0 .442-.157.82-.47 1.132a1.552 1.552 0 01-1.136.468c-.444 0-.822-.156-1.137-.468a1.54 1.54 0 01-.47-1.132c0-.442.157-.818.47-1.126.313-.31.693-.464 1.137-.464zM29.414.889h2.79l3.492 10.46L39.218.889h2.79l2.528 14.996h-2.768l-1.614-9.47-3.2 9.47h-2.529l-3.168-9.47-1.652 9.47h-2.797L29.414.889zM57.559 11.145h-8.975c.128.79.476 1.416 1.038 1.882.562.464 1.28.698 2.156.698a3.733 3.733 0 002.693-1.092l2.355 1.102c-.586.828-1.29 1.444-2.11 1.842-.82.398-1.791.596-2.918.596-1.746 0-3.168-.548-4.268-1.646-1.098-1.098-1.648-2.472-1.648-4.122s.546-3.098 1.642-4.214c1.096-1.116 2.47-1.676 4.12-1.676 1.753 0 3.178.56 4.276 1.676 1.099 1.12 1.649 2.594 1.649 4.428l-.01.53h-.004l.004-.004zm-2.795-2.192a2.795 2.795 0 00-1.092-1.508c-.544-.388-1.173-.582-1.892-.582-.779 0-1.461.218-2.052.652-.37.272-.712.752-1.026 1.438h6.062zM67.788.51h2.795v15.372h-2.795V14.71c-.546.515-1.092.89-1.64 1.115a4.628 4.628 0 01-1.785.343c-1.438 0-2.68-.556-3.73-1.666-1.05-1.11-1.577-2.493-1.577-4.145 0-1.651.506-3.115 1.524-4.211 1.016-1.094 2.247-1.642 3.7-1.642.67 0 1.296.126 1.882.376.586.25 1.126.63 1.624 1.132V.51h.002zm-2.94 6.566c-.862 0-1.581.302-2.151.912-.57.608-.858 1.388-.858 2.34s.291 1.745.872 2.364c.58.617 1.295.925 2.146.925s1.606-.302 2.182-.912c.579-.607.866-1.403.866-2.392 0-.987-.29-1.745-.866-2.345-.578-.596-1.307-.896-2.192-.896v.004h.002zM74.534.225c.488 0 .91.178 1.26.53.349.354.525.782.525 1.284s-.175.92-.522 1.27c-.347.348-.76.526-1.243.526-.481 0-.921-.178-1.27-.536a1.793 1.793 0 01-.527-1.3c0-.51.173-.908.518-1.254.348-.346.765-.52 1.255-.52h.004zm-1.397 4.566h2.795v11.09h-2.795V4.79zM89.286 7.037L86.96 8.313c-.436-.456-.87-.77-1.295-.948-.428-.178-.928-.266-1.502-.266-1.044 0-1.891.308-2.536.93-.644.62-.968 1.416-.968 2.386 0 .97.31 1.712.934 2.312.62.596 1.438.896 2.45.896 1.248 0 2.222-.426 2.919-1.276l2.2 1.502c-1.194 1.548-2.879 2.322-5.057 2.322-1.96 0-3.492-.578-4.6-1.734-1.108-1.156-1.664-2.508-1.664-4.058a5.71 5.71 0 01.807-2.966 5.742 5.742 0 012.256-2.132c.964-.516 2.046-.774 3.239-.774 1.106 0 2.098.22 2.977.658a5.613 5.613 0 012.159 1.872v.004l.006-.004zM98.995 4.79h2.795v11.09h-2.795v-1.172c-.546.516-1.092.89-1.64 1.116a4.628 4.628 0 01-1.785.342c-1.438 0-2.68-.556-3.73-1.666-1.05-1.11-1.577-2.492-1.577-4.144 0-1.652.506-3.116 1.524-4.212 1.016-1.094 2.247-1.642 3.7-1.642.669 0 1.296.126 1.882.376.586.25 1.126.63 1.624 1.132V4.786v.004h.002zm-2.94 2.284c-.863 0-1.582.302-2.152.912-.57.608-.857 1.388-.857 2.34s.291 1.746.871 2.364c.58.618 1.295.926 2.147.926.851 0 1.606-.302 2.182-.912.578-.608.866-1.404.866-2.392s-.29-1.746-.866-2.346c-.578-.596-1.307-.896-2.192-.896v.004h.002zM104.16 4.79h2.396V6.19c.257-.55.604-.97 1.034-1.254a2.505 2.505 0 011.411-.428c.362 0 .741.094 1.137.284l-.87 2.394c-.329-.162-.596-.244-.807-.244-.43 0-.793.266-1.09.796-.297.53-.446 1.57-.446 3.12l.01.542v4.486h-2.773V4.79h-.004.002zM122.096 11.145h-8.974c.128.79.475 1.416 1.038 1.882.562.464 1.28.698 2.156.698a3.732 3.732 0 002.692-1.092l2.355 1.102c-.586.828-1.289 1.444-2.11 1.842-.819.398-1.791.596-2.917.596-1.747 0-3.168-.548-4.269-1.646-1.098-1.098-1.648-2.472-1.648-4.122s.546-3.098 1.642-4.214c1.097-1.116 2.47-1.676 4.12-1.676 1.753 0 3.179.56 4.277 1.676 1.098 1.12 1.648 2.594 1.648 4.428l-.01.53h-.004l.004-.004zm-2.795-2.192a2.792 2.792 0 00-1.092-1.508c-.542-.386-1.172-.582-1.891-.582-.779 0-1.462.218-2.052.652-.369.272-.713.752-1.026 1.438h6.061zM124.975 12.979c.442 0 .824.156 1.137.464.313.308.47.686.47 1.126 0 .44-.157.82-.47 1.132a1.556 1.556 0 01-1.137.468c-.441 0-.823-.156-1.136-.468a1.538 1.538 0 01-.47-1.132c0-.444.157-.816.47-1.126a1.567 1.567 0 011.136-.464zM136.828 4.791h2.784v9.5c0 1.874-.377 3.254-1.136 4.138-1.016 1.196-2.548 1.796-4.596 1.796-1.092 0-2.008-.134-2.754-.406-.743-.272-1.374-.67-1.882-1.198-.512-.526-.889-1.168-1.136-1.92h3.08c.273.312.622.548 1.054.71.43.16.94.238 1.526.238.749 0 1.353-.116 1.811-.346.458-.232.779-.53.968-.896.186-.368.283-1 .283-1.896-.492.49-1.008.842-1.544 1.056-.54.214-1.149.322-1.833.322-1.496 0-2.757-.536-3.787-1.612-1.028-1.074-1.544-2.432-1.544-4.078 0-1.758.546-3.174 1.636-4.242.988-.964 2.171-1.446 3.54-1.446.642 0 1.247.116 1.817.352.57.236 1.142.62 1.713 1.156V4.791zm-2.896 2.316c-.881 0-1.606.294-2.18.88-.574.588-.859 1.328-.859 2.218 0 .89.295 1.682.881 2.272.586.59 1.323.886 2.211.886.887 0 1.582-.288 2.142-.866.562-.578.845-1.336.845-2.272 0-.936-.283-1.676-.851-2.254-.564-.578-1.295-.866-2.189-.866v.002zM147.493 4.507c1.05 0 2.038.264 2.963.786a5.67 5.67 0 012.165 2.132c.518.896.777 1.866.777 2.906s-.261 2.024-.783 2.936a5.61 5.61 0 01-2.135 2.134c-.899.514-1.895.77-2.977.77-1.596 0-2.96-.566-4.09-1.698-1.13-1.132-1.694-2.504-1.694-4.122 0-1.734.638-3.178 1.913-4.334 1.118-1.006 2.403-1.508 3.859-1.508l.004-.004-.002.002zm.046 2.622c-.869 0-1.59.3-2.168.902-.579.602-.866 1.37-.866 2.31s.285 1.746.858 2.346c.57.6 1.293.896 2.168.896.875 0 1.602-.302 2.182-.908.581-.606.872-1.382.872-2.334 0-.952-.285-1.726-.857-2.318-.571-.594-1.3-.894-2.189-.894zM153.678 4.791h2.847l2.813 6.546 2.807-6.546h2.831l-4.738 11.09h-1.811l-4.751-11.09h.004-.002zM165.422 18.569L172.218.367h2.01l-6.808 18.202h-1.998zM177.144.798h8.336v2.8h-5.475v2.738h3.558v2.758h-3.558v6.788h-2.861V.796v.002zM186.949 4.725h2.41V6.13c.261-.554.608-.974 1.04-1.262.431-.288.905-.43 1.421-.43.364 0 .745.096 1.143.288l-.876 2.41c-.329-.164-.6-.246-.813-.246-.431 0-.797.266-1.096.8-.299.534-.448 1.58-.448 3.138l.01.544v4.512h-2.789V4.725h-.002zM202.618 4.725h2.811v11.158h-2.811v-1.18c-.548.52-1.098.894-1.65 1.122a4.622 4.622 0 01-1.795.344c-1.446 0-2.699-.558-3.753-1.676-1.056-1.118-1.584-2.508-1.584-4.168 0-1.66.51-3.134 1.532-4.236 1.022-1.1 2.263-1.652 3.722-1.652a4.72 4.72 0 011.892.38c.59.254 1.134.632 1.634 1.138v-1.23h.002zm-2.953 2.298c-.87 0-1.59.306-2.165.918-.574.612-.861 1.396-.861 2.354 0 .958.293 1.758.877 2.38a2.85 2.85 0 002.161.934c.855 0 1.614-.306 2.196-.918.583-.612.872-1.414.872-2.404s-.291-1.756-.872-2.358c-.582-.602-1.317-.902-2.206-.902l-.002-.004zM208.26 4.724h2.841v5.374c0 1.046.072 1.772.217 2.18.144.406.377.724.696.948.32.224.713.338 1.183.338.47 0 .865-.112 1.193-.334.327-.222.57-.548.726-.98.117-.322.175-1.008.175-2.062V4.722h2.811V9.45c0 1.948-.155 3.282-.464 4-.377.876-.933 1.546-1.668 2.016-.735.468-1.669.702-2.801.702-1.229 0-2.223-.274-2.98-.82-.759-.546-1.291-1.31-1.6-2.286-.219-.676-.329-1.908-.329-3.692V4.724zM229.189.417H232V15.88h-2.811V14.7c-.548.52-1.098.894-1.65 1.122a4.622 4.622 0 01-1.795.344c-1.446 0-2.699-.558-3.753-1.676-1.056-1.118-1.584-2.508-1.584-4.168 0-1.66.51-3.134 1.532-4.236 1.022-1.1 2.263-1.652 3.722-1.652.673 0 1.303.126 1.892.38.59.254 1.134.632 1.634 1.138V.415l.002.002zm-2.953 6.604c-.87 0-1.59.306-2.165.918-.574.612-.861 1.396-.861 2.354 0 .958.293 1.758.877 2.38a2.85 2.85 0 002.161.934c.855 0 1.614-.306 2.196-.918.582-.612.872-1.414.872-2.404s-.292-1.756-.872-2.358c-.582-.602-1.317-.902-2.206-.902l-.002-.004z" fill="#fff"/></svg>