<svg width="94" height="110" viewBox="0 0 94 110" fill="none" xmlns="http://www.w3.org/2000/svg"><path d="M64.679 4.153H14.602C8.675 4.153 3.87 8.816 3.87 14.57v83.323c0 5.752 4.804 10.415 10.73 10.415H64.68c5.926 0 10.73-4.663 10.73-10.415V14.569c0-5.753-4.804-10.416-10.73-10.416z" fill="#F2F2F2"/><path d="M75.41 14.569c0-2.763-1.131-5.412-3.144-7.365-2.012-1.954-4.741-3.05-7.587-3.05H14.602c-2.846 0-5.576 1.096-7.588 3.05-2.012 1.953-3.143 4.602-3.143 7.365v13.887h71.538V14.569zM3.9 99.074c0 2.449 1.124 4.797 3.127 6.529 2.003 1.731 4.72 2.704 7.552 2.704h49.84c2.833 0 5.55-.973 7.553-2.704 2.002-1.732 3.128-4.08 3.128-6.529v-12.31H3.9v12.31zM88.501 37.106l-27.4 20.485-27.398-20.485a3.585 3.585 0 012.36-.89H86.14c.87 0 1.709.317 2.361.89z" fill="#C1C5C8"/><path d="M89.717 39.778v35.625c0 .945-.377 1.851-1.047 2.52a3.584 3.584 0 01-2.53 1.043H36.063a3.584 3.584 0 01-2.529-1.044 3.555 3.555 0 01-1.047-2.519V39.778a3.55 3.55 0 011.216-2.672l27.399 20.485 27.4-20.485a3.564 3.564 0 011.215 2.672z" fill="#F2F2F2"/><path d="M43.217 18.403c0-.945-.377-1.85-1.047-2.519a3.584 3.584 0 00-2.53-1.043H25.333c-.95 0-1.859.375-2.53 1.043a3.555 3.555 0 000 5.038 3.584 3.584 0 002.53 1.044H39.64c.949 0 1.859-.376 2.53-1.044a3.555 3.555 0 001.047-2.519z" fill="#101B31"/><path d="M90.862 34.434a7.17 7.17 0 00-4.722-1.78h-7.154V14.84a14.22 14.22 0 00-4.19-10.077A14.337 14.337 0 0064.679.591H14.602A14.337 14.337 0 004.485 4.764a14.22 14.22 0 00-4.19 10.077v85.5c0 3.779 1.507 7.403 4.19 10.076a14.34 14.34 0 0010.117 4.174h50.077c3.794 0 7.434-1.502 10.117-4.174a14.222 14.222 0 004.19-10.076V82.528h7.154c1.898 0 3.717-.75 5.059-2.087a7.11 7.11 0 002.095-5.038V39.778a7.1 7.1 0 00-2.432-5.344zm-11.876 5.344l-17.884 13.36-17.885-13.36h35.77zm-7.153 60.563a7.111 7.111 0 01-2.096 5.038 7.17 7.17 0 01-5.058 2.087H14.602a7.17 7.17 0 01-5.059-2.087 7.111 7.111 0 01-2.095-5.038v-85.5a7.11 7.11 0 012.095-5.039 7.169 7.169 0 015.059-2.086h50.077c1.897 0 3.717.75 5.058 2.086a7.11 7.11 0 012.096 5.039v17.812h-35.77a7.17 7.17 0 00-6.515 4.192 7.1 7.1 0 00-.638 2.933v35.625a7.11 7.11 0 002.095 5.038 7.169 7.169 0 005.058 2.087h35.77v17.813zm-35.77-24.938V43.341l22.893 17.1a3.586 3.586 0 004.292 0l22.892-17.1v32.062H36.063z" fill="#101B31"/><path d="M53.948 21.966a3.57 3.57 0 003.577-3.563 3.57 3.57 0 00-3.577-3.562 3.57 3.57 0 00-3.577 3.562 3.57 3.57 0 003.577 3.563zM39.64 98.545a3.57 3.57 0 003.577-3.562 3.57 3.57 0 00-3.577-3.563 3.57 3.57 0 00-3.577 3.563 3.57 3.57 0 003.577 3.562z" fill="#101B31"/><path d="M90.862 34.434a7.17 7.17 0 00-4.722-1.78H36.063a7.17 7.17 0 00-6.515 4.191 7.1 7.1 0 00-.638 2.933v35.625a7.11 7.11 0 002.095 5.038 7.169 7.169 0 005.058 2.087H86.14c1.898 0 3.717-.75 5.059-2.087a7.11 7.11 0 002.095-5.038V39.778a7.1 7.1 0 00-2.432-5.344zm-11.875 5.344l-17.885 13.36-17.885-13.36h35.77zm7.153 35.625H36.063V43.341l22.893 17.1a3.587 3.587 0 004.292 0l22.892-17.1v32.062z" fill="#C80000"/></svg>