<svg width="125" height="25" viewBox="0 0 125 25" fill="none" xmlns="http://www.w3.org/2000/svg"><rect width="125" height="25" rx="1" fill="#EF6129"/><path d="M7.58 16.025v-7.1h2.73c.786 0 1.443.16 1.97.48a3 3 0 011.2 1.28c.273.533.41 1.126.41 1.78 0 .72-.15 1.346-.45 1.88-.294.533-.71.946-1.25 1.24-.534.293-1.16.44-1.88.44H7.58zm4.33-3.56c0-.367-.064-.687-.19-.96a1.466 1.466 0 00-.55-.65 1.563 1.563 0 00-.86-.23h-.78v3.7h.78c.34 0 .626-.08.86-.24.24-.16.423-.38.55-.66a2.35 2.35 0 00.19-.96zm8.688 1.86v1.7h-5.06v-7.1h4.97v1.7h-3.02v1h2.58v1.58h-2.58v1.12h3.11zm7.236-3.7h-2.04v5.4h-1.95v-5.4h-2.05v-1.7h6.04v1.7zm6.57 3.7v1.7h-5.06v-7.1h4.97v1.7h-3.02v1h2.58v1.58h-2.58v1.12h3.11zm-1.91-5.7l-1.2-.32.5-1.42h1.69l-.99 1.74zm5.567 3.91v3.49h-1.95v-7.1h1.52l2.85 3.61v-3.61h1.95v7.1h-1.55l-2.82-3.49zm9.435 3.49v-7.1h1.95v5.4h3.22v1.7h-5.17zm8.29-7.1h2.18l2.26 7.1h-1.98l-.43-1.39h-1.89l-.42 1.39h-1.99l2.27-7.1zm1.72 4.41l-.63-2.5-.66 2.5h1.29zm8.332-2.09l-.17-.1a4.078 4.078 0 00-.45-.22 4.647 4.647 0 00-.61-.23c-.22-.067-.437-.1-.65-.1a.917.917 0 00-.41.08c-.107.053-.16.143-.16.27 0 .12.053.216.16.29.107.073.257.14.45.2.2.06.437.133.71.22.44.133.82.286 1.14.46.32.173.567.396.74.67.173.266.26.623.26 1.07 0 .426-.077.786-.23 1.08-.153.286-.36.516-.62.69-.26.173-.55.3-.87.38-.32.073-.647.11-.98.11-.34 0-.697-.034-1.07-.1a8.157 8.157 0 01-1.07-.29 5.951 5.951 0 01-.95-.44l.84-1.71.2.12a5.781 5.781 0 001.26.54c.273.08.547.12.82.12.213 0 .36-.027.44-.08.087-.06.13-.137.13-.23 0-.14-.073-.247-.22-.32a2.796 2.796 0 00-.58-.22 81.19 81.19 0 01-.78-.25 4.578 4.578 0 01-1.02-.47 1.758 1.758 0 01-.59-.63c-.127-.247-.19-.544-.19-.89 0-.527.123-.967.37-1.32.247-.354.57-.62.97-.8.407-.187.843-.28 1.31-.28.347 0 .68.043 1 .13.327.08.63.18.91.3.287.12.537.233.75.34l-.84 1.61zm10.778 3.08v1.7h-5.06v-7.1h4.97v1.7h-3.02v1h2.58v1.58h-2.58v1.12h3.11zm6.007-3.08l-.17-.1a4.078 4.078 0 00-.45-.22 4.653 4.653 0 00-.61-.23c-.22-.067-.437-.1-.65-.1a.917.917 0 00-.41.08c-.107.053-.16.143-.16.27 0 .12.053.216.16.29.106.073.256.14.45.2.2.06.436.133.71.22.44.133.82.286 1.14.46.32.173.566.396.74.67.173.266.26.623.26 1.07 0 .426-.077.786-.23 1.08-.154.286-.36.516-.62.69-.26.173-.55.3-.87.38-.32.073-.647.11-.98.11-.34 0-.697-.034-1.07-.1a8.153 8.153 0 01-1.07-.29 5.947 5.947 0 01-.95-.44l.84-1.71.2.12a5.776 5.776 0 001.26.54c.273.08.546.12.82.12.213 0 .36-.027.44-.08.086-.06.13-.137.13-.23 0-.14-.074-.247-.22-.32a2.798 2.798 0 00-.58-.22 81.19 81.19 0 01-.78-.25 4.578 4.578 0 01-1.02-.47 1.758 1.758 0 01-.59-.63c-.127-.247-.19-.544-.19-.89 0-.527.123-.967.37-1.32.246-.354.57-.62.97-.8.406-.187.843-.28 1.31-.28.346 0 .68.043 1 .13.326.08.63.18.91.3.286.12.536.233.75.34l-.84 1.61zm8.202-.62h-2.04v5.4h-1.95v-5.4h-2.05v-1.7h6.04v1.7zm2.495-1.7h2.18l2.26 7.1h-1.98l-.43-1.39h-1.89l-.42 1.39h-1.99l2.27-7.1zm1.72 4.41l-.63-2.5-.66 2.5h1.29zm4.11 2.69v-7.1h4.87v1.7h-2.92v1.18h2.38v1.58h-2.38v2.64h-1.95zm7.616-7.1h2.18l2.26 7.1h-1.98l-.43-1.39h-1.89l-.42 1.39h-1.99l2.27-7.1zm1.72 4.41l-.63-2.5-.66 2.5h1.29zm8.332-2.09l-.17-.1a4.025 4.025 0 00-.45-.22 4.669 4.669 0 00-.61-.23c-.22-.067-.437-.1-.65-.1a.917.917 0 00-.41.08c-.107.053-.16.143-.16.27 0 .12.053.216.16.29.107.073.257.14.45.2.2.06.437.133.71.22.44.133.82.286 1.14.46.32.173.567.396.74.67.173.266.26.623.26 1.07 0 .426-.077.786-.23 1.08-.153.286-.36.516-.62.69-.26.173-.55.3-.87.38-.32.073-.647.11-.98.11-.34 0-.697-.034-1.07-.1a8.153 8.153 0 01-1.07-.29 5.947 5.947 0 01-.95-.44l.84-1.71.2.12a5.759 5.759 0 001.26.54c.273.08.547.12.82.12.213 0 .36-.027.44-.08a.27.27 0 00.13-.23c0-.14-.073-.247-.22-.32a2.805 2.805 0 00-.58-.22 86.984 86.984 0 01-.78-.25 4.591 4.591 0 01-1.02-.47 1.758 1.758 0 01-.59-.63c-.127-.247-.19-.544-.19-.89 0-.527.123-.967.37-1.32.247-.354.57-.62.97-.8.407-.187.843-.28 1.31-.28.347 0 .68.043 1 .13.327.08.63.18.91.3.287.12.537.233.75.34l-.84 1.61z" fill="#fff"/></svg>