<svg width="131" height="50" viewBox="0 0 131 50" fill="none" xmlns="http://www.w3.org/2000/svg"><path d="M1.495 17V.785h3.128l8.211 10.189h-.667V.785H16.1V17h-3.128L4.807 6.811h.667V17H1.495zm23.429.253c-1.303 0-2.43-.245-3.381-.736a5.29 5.29 0 01-2.208-2.093c-.521-.92-.782-2.009-.782-3.266 0-1.273.26-2.361.782-3.266a5.29 5.29 0 012.208-2.093c.95-.49 2.078-.736 3.38-.736 1.289 0 2.408.245 3.359.736a5.25 5.25 0 012.208 2.116c.521.905.782 1.986.782 3.243 0 1.242-.26 2.323-.782 3.243a5.25 5.25 0 01-2.208 2.116c-.95.49-2.07.736-3.358.736zm0-3.036c.675 0 1.211-.238 1.61-.713.399-.49.598-1.273.598-2.346 0-1.073-.2-1.848-.598-2.323-.399-.49-.935-.736-1.61-.736-.69 0-1.234.245-1.633.736-.399.475-.598 1.25-.598 2.323s.2 1.855.598 2.346c.399.475.943.713 1.633.713zM40.386 17V.072h4.094V17h-4.094zm12.698.253c-1.304 0-2.43-.245-3.381-.736a5.29 5.29 0 01-2.208-2.093c-.522-.92-.782-2.009-.782-3.266 0-1.273.26-2.361.782-3.266a5.29 5.29 0 012.208-2.093c.95-.49 2.077-.736 3.38-.736 1.289 0 2.408.245 3.359.736a5.25 5.25 0 012.208 2.116c.521.905.782 1.986.782 3.243 0 1.242-.261 2.323-.782 3.243a5.25 5.25 0 01-2.208 2.116c-.951.49-2.07.736-3.358.736zm0-3.036c.674 0 1.211-.238 1.61-.713.398-.49.598-1.273.598-2.346 0-1.073-.2-1.848-.598-2.323-.399-.49-.936-.736-1.61-.736-.69 0-1.235.245-1.633.736-.399.475-.598 1.25-.598 2.323s.199 1.855.598 2.346c.398.475.943.713 1.633.713zM7.176 45.253c-1.288 0-2.415-.245-3.381-.736a5.407 5.407 0 01-2.254-2.093c-.537-.92-.805-2.016-.805-3.289 0-1.273.268-2.361.805-3.266a5.26 5.26 0 012.254-2.07c.966-.49 2.093-.736 3.381-.736.797 0 1.58.107 2.346.322.767.215 1.388.521 1.863.92l-1.15 2.783a3.754 3.754 0 00-1.265-.69 3.924 3.924 0 00-1.357-.253c-.843 0-1.503.253-1.978.759-.46.506-.69 1.25-.69 2.231 0 .981.23 1.733.69 2.254.475.506 1.135.759 1.978.759.43 0 .882-.077 1.357-.23a4.38 4.38 0 001.265-.69l1.15 2.783c-.49.383-1.12.69-1.886.92a8.413 8.413 0 01-2.323.322zm11.75 0c-1.302 0-2.43-.245-3.38-.736a5.29 5.29 0 01-2.208-2.093c-.521-.92-.782-2.009-.782-3.266 0-1.273.26-2.361.782-3.266a5.29 5.29 0 012.208-2.093c.95-.49 2.078-.736 3.38-.736 1.289 0 2.408.245 3.359.736a5.25 5.25 0 012.208 2.116c.521.905.782 1.986.782 3.243 0 1.242-.26 2.323-.782 3.243a5.25 5.25 0 01-2.208 2.116c-.95.49-2.07.736-3.358.736zm0-3.036c.676 0 1.212-.238 1.61-.713.4-.49.599-1.273.599-2.346 0-1.073-.2-1.848-.598-2.323-.399-.49-.935-.736-1.61-.736-.69 0-1.235.245-1.633.736-.399.475-.598 1.25-.598 2.323s.2 1.855.598 2.346c.398.475.943.713 1.633.713zM27.51 45v-8.51a27.88 27.88 0 00-.184-3.174h3.956l.23 2.024h-.253a3.816 3.816 0 011.495-1.656c.66-.414 1.434-.621 2.323-.621.859 0 1.587.207 2.185.621.614.399 1.058 1.035 1.334 1.909h-.39a4.348 4.348 0 011.655-1.863 4.666 4.666 0 012.461-.667c1.334 0 2.33.406 2.99 1.219.66.797.99 2.047.99 3.749V45h-4.118v-6.831c0-.72-.107-1.227-.322-1.518-.215-.307-.56-.46-1.035-.46-.598 0-1.066.215-1.403.644-.322.43-.483 1.02-.483 1.771V45h-4.094v-6.831c0-.72-.115-1.227-.345-1.518-.215-.307-.552-.46-1.012-.46-.598 0-1.066.215-1.403.644-.322.43-.483 1.02-.483 1.771V45H27.51zm21.478 4.968V36.49a27.789 27.789 0 00-.184-3.174h3.956l.253 2.07h-.23c.215-.69.69-1.25 1.426-1.679.736-.43 1.556-.644 2.461-.644 1.012 0 1.901.245 2.668.736.767.475 1.365 1.173 1.794 2.093.445.905.667 1.993.667 3.266 0 1.257-.222 2.346-.667 3.266-.43.92-1.027 1.625-1.794 2.116-.767.475-1.656.713-2.668.713-.89 0-1.694-.2-2.415-.598-.72-.414-1.196-.958-1.426-1.633h.253v6.946h-4.094zm6.371-7.751c.706 0 1.265-.238 1.68-.713.428-.49.643-1.273.643-2.346 0-1.073-.215-1.848-.644-2.323-.414-.49-.973-.736-1.679-.736-.69 0-1.25.245-1.679.736-.43.475-.644 1.25-.644 2.323s.215 1.855.644 2.346c.43.475.99.713 1.68.713zm13.261 3.036c-1.012 0-1.901-.238-2.668-.713-.767-.49-1.372-1.196-1.817-2.116-.43-.92-.644-2.009-.644-3.266 0-1.273.215-2.361.644-3.266.445-.92 1.05-1.618 1.817-2.093.767-.49 1.656-.736 2.668-.736.905 0 1.717.215 2.438.644.736.43 1.219.989 1.449 1.679h-.23l.253-2.07h3.933l-.138 1.587c-.03.537-.046 1.066-.046 1.587V45h-4.048l-.046-1.978h.276c-.23.675-.713 1.219-1.449 1.633a4.858 4.858 0 01-2.392.598zm1.311-3.036c.69 0 1.25-.238 1.679-.713.43-.49.644-1.273.644-2.346 0-1.073-.215-1.848-.644-2.323-.43-.49-.989-.736-1.679-.736-.69 0-1.25.245-1.679.736-.43.475-.644 1.25-.644 2.323s.207 1.855.621 2.346c.43.475.997.713 1.702.713zM79.051 45v-8.487a28.185 28.185 0 00-.183-3.197h3.956l.437 3.588h-.621c.153-.874.398-1.595.736-2.162.337-.567.759-.989 1.265-1.265.506-.276 1.104-.414 1.794-.414.322 0 .56.015.713.046a1.8 1.8 0 01.529.138v3.588c-.384-.169-.69-.276-.92-.322a4.73 4.73 0 00-.897-.069c-.629 0-1.143.115-1.541.345-.399.215-.69.552-.874 1.012-.169.46-.253 1.05-.253 1.771V45h-4.14zm16.745.253c-1.656 0-2.906-.391-3.75-1.173-.827-.797-1.241-2.001-1.241-3.611v-4.14H88.62v-3.013h2.185v-2.76l4.094-.966v3.726h2.852v3.013h-2.852v3.979c0 .675.153 1.127.46 1.357.307.215.675.322 1.104.322.26 0 .483-.015.667-.046.2-.046.406-.107.62-.184v3.151c-.336.138-.674.23-1.011.276a6.665 6.665 0 01-.943.069zm8.373 0c-1.012 0-1.901-.238-2.668-.713-.766-.49-1.372-1.196-1.817-2.116-.429-.92-.644-2.009-.644-3.266 0-1.273.215-2.361.644-3.266.445-.92 1.051-1.618 1.817-2.093.767-.49 1.656-.736 2.668-.736.905 0 1.718.215 2.438.644.736.43 1.219.989 1.449 1.679h-.23l.253-2.07h3.933l-.138 1.587c-.03.537-.046 1.066-.046 1.587V45h-4.048l-.046-1.978h.276c-.23.675-.713 1.219-1.449 1.633a4.856 4.856 0 01-2.392.598zm1.311-3.036c.69 0 1.25-.238 1.679-.713.43-.49.644-1.273.644-2.346 0-1.073-.214-1.848-.644-2.323-.429-.49-.989-.736-1.679-.736-.69 0-1.249.245-1.679.736-.429.475-.644 1.25-.644 2.323s.207 1.855.621 2.346c.43.475.997.713 1.702.713zm13.606 3.036c-1.089 0-2.078-.107-2.967-.322-.874-.23-1.618-.537-2.231-.92l.989-2.668a9.438 9.438 0 002.001.828 8.09 8.09 0 002.231.322c.583 0 1.004-.084 1.265-.253.276-.184.414-.422.414-.713a.676.676 0 00-.253-.552c-.169-.138-.422-.238-.759-.299l-2.484-.437c-.981-.184-1.748-.544-2.3-1.081-.537-.552-.805-1.265-.805-2.139 0-.797.215-1.487.644-2.07.429-.598 1.043-1.058 1.84-1.38.797-.337 1.74-.506 2.829-.506.889 0 1.733.1 2.53.299.813.2 1.518.514 2.116.943l-1.058 2.599a6.287 6.287 0 00-1.679-.782c-.629-.215-1.219-.322-1.771-.322-.659 0-1.127.1-1.403.299-.276.184-.414.414-.414.69 0 .215.077.399.23.552.153.138.399.238.736.299l2.484.437c1.012.169 1.786.521 2.323 1.058.552.521.828 1.234.828 2.139 0 .843-.23 1.564-.69 2.162-.445.583-1.066 1.035-1.863 1.357-.797.307-1.725.46-2.783.46zm6.992-.253v-4.186h4.255V45h-4.255z" fill="#fff"/></svg>