<svg width="160" height="45" viewBox="0 0 160 45" fill="none" xmlns="http://www.w3.org/2000/svg"><path fill="#EF6129" d="M0 0h160v45H0z"/><path d="M36.964 13.335c-1.159 0-2.028-.286-2.607-.858-.58-.572-.87-1.426-.87-2.563V5.46h2.025v4.466c0 .565.117.994.352 1.287.235.286.601.43 1.1.43.499 0 .865-.144 1.1-.43.235-.293.352-.722.352-1.287V5.46h2.002v4.455c0 1.137-.286 1.991-.858 2.563-.572.572-1.437.858-2.596.858zm7.348-.12V5.458h1.496l3.927 4.873h-.32V5.46h1.882v7.755H49.8l-3.905-4.873h.319v4.873h-1.903zm16.684 0V5.458h1.76l2.54 5.687h-.363l2.53-5.687h1.772v7.755h-1.838V8.462h.474l-2.2 4.752h-1.145l-2.21-4.752h.505v4.752h-1.825zm12.218 0V5.458h5.566V7.01h-3.619v1.485h3.355v1.562h-3.355v1.595h3.62v1.562h-5.567zm9.158 0V5.458h1.496l3.927 4.873h-.319V5.46h1.881v7.755h-1.496l-3.905-4.873h.32v4.873h-1.904zm13.856.12a7.06 7.06 0 01-1.782-.22c-.557-.154-1.026-.36-1.408-.616l.572-1.573c.242.154.506.286.792.396.286.11.583.198.891.264.316.059.635.088.957.088.484 0 .818-.062 1.001-.187.19-.124.286-.286.286-.484a.482.482 0 00-.187-.407c-.124-.102-.36-.19-.704-.264l-1.342-.275c-.711-.146-1.243-.4-1.595-.759-.352-.366-.528-.843-.528-1.43 0-.513.136-.957.407-1.33.279-.382.668-.675 1.166-.88.499-.213 1.082-.32 1.75-.32.55 0 1.066.077 1.55.231.484.147.88.352 1.188.616L98.67 7.66a3.275 3.275 0 00-.99-.484A3.992 3.992 0 0096.46 7c-.426 0-.749.066-.969.198a.592.592 0 00-.319.54c0 .16.063.3.187.417.132.11.37.202.715.275l1.32.264c.712.14 1.243.389 1.595.748.36.36.54.829.54 1.408 0 .499-.14.935-.419 1.31-.271.373-.652.663-1.144.868-.491.206-1.07.308-1.738.308zm5.952-.12l3.63-7.756h1.65l3.652 7.755h-2.035l-.935-2.134.781.561h-4.554l.77-.56-.924 2.133h-2.035zm4.444-5.666l-1.287 3.07-.308-.518h3.223l-.275.517-1.298-3.069h-.055zm8.119 7.722c-.132 0-.297-.007-.495-.022a4.138 4.138 0 01-.594-.088v-1.55c.139.029.279.047.418.054.139.015.249.022.33.022.33 0 .557-.091.682-.275.132-.183.198-.48.198-.89V5.458h2.035v7.062c0 .616-.088 1.13-.264 1.54-.169.41-.44.715-.814.913-.374.198-.873.297-1.496.297zm6.538-2.057V5.46h5.566V7.01h-3.619v1.485h3.355v1.562h-3.355v1.595h3.619v1.562h-5.566zm-73.488 8.117c0-.806.157-1.507.473-2.1a3.358 3.358 0 011.353-1.398c.586-.33 1.28-.495 2.079-.495.806 0 1.503.165 2.09.495.586.33 1.037.796 1.353 1.397.322.594.484 1.295.484 2.101 0 .8-.162 1.5-.484 2.101a3.427 3.427 0 01-1.353 1.408c-.587.33-1.284.495-2.09.495-.8 0-1.493-.165-2.08-.495a3.523 3.523 0 01-1.352-1.408c-.316-.601-.473-1.301-.473-2.1zm2.123 0c0 .726.146 1.295.44 1.705.293.404.74.605 1.342.605.6 0 1.052-.201 1.353-.605.3-.41.45-.979.45-1.705 0-.726-.15-1.29-.45-1.694-.301-.403-.752-.605-1.353-.605-.602 0-1.05.202-1.342.605-.294.396-.44.96-.44 1.694zm9.456 3.883V17.46h5.445v1.551h-3.41v1.573h3.157v1.551h-3.157v3.08h-2.035zm8.944 0V17.46h2.034v7.755h-2.034zm9.893.121c-.843 0-1.573-.165-2.189-.495a3.517 3.517 0 01-1.419-1.397c-.33-.601-.495-1.305-.495-2.112 0-.806.165-1.507.495-2.1a3.518 3.518 0 011.42-1.398c.615-.33 1.345-.495 2.188-.495.536 0 1.023.074 1.463.22.44.14.81.341 1.111.605l-.605 1.595a3.601 3.601 0 00-.935-.506 2.759 2.759 0 00-.957-.154c-.66 0-1.17.195-1.529.583-.352.382-.528.932-.528 1.65 0 .726.176 1.284.528 1.672.36.382.87.572 1.53.572.359 0 .678-.047.956-.143a3.91 3.91 0 00.935-.517l.605 1.595c-.3.264-.67.47-1.11.616-.44.14-.928.21-1.464.21zm6.166-.12v-7.756h2.035v7.755h-2.034zm5.043 0l3.63-7.756h1.65l3.652 7.755h-2.035l-.935-2.134.781.561h-4.554l.77-.56-.924 2.133h-2.035zm4.444-5.666l-1.287 3.07-.308-.518h3.223l-.275.517-1.298-3.069h-.055zm7.497 5.665V17.46h2.035v6.072h3.322v1.683h-5.357zm-71.864 12V29.46h3.124c.917 0 1.69.158 2.321.473.63.308 1.108.752 1.43 1.331.33.572.495 1.262.495 2.068 0 .8-.165 1.489-.495 2.068-.322.58-.8 1.027-1.43 1.342-.63.316-1.404.473-2.32.473h-3.125zm2.035-1.65h.957c.8 0 1.39-.183 1.771-.55.389-.366.583-.927.583-1.683 0-.762-.194-1.323-.583-1.683-.381-.366-.972-.55-1.77-.55h-.958v4.466zm9.089 1.65V29.46h5.566v1.551h-3.62v1.485h3.356v1.562h-3.355v1.595h3.619v1.562h-5.566zm14.9 0V29.46h1.76l2.541 5.687h-.362l2.53-5.687h1.77v7.755h-1.837v-4.752h.474l-2.2 4.752H59.05l-2.21-4.752h.505v4.752H55.52zm12.22 0V29.46h5.565v1.551h-3.619v1.485h3.355v1.562h-3.355v1.595h3.62v1.562h-5.567zm9.157 0V29.46h3.124c.917 0 1.69.158 2.321.473.63.308 1.108.752 1.43 1.331.33.572.495 1.262.495 2.068 0 .8-.165 1.489-.495 2.068-.323.58-.8 1.027-1.43 1.342-.63.316-1.404.473-2.32.473h-3.125zm2.035-1.65h.957c.8 0 1.39-.183 1.771-.55.389-.366.583-.927.583-1.683 0-.762-.194-1.323-.583-1.683-.381-.366-.972-.55-1.77-.55h-.958v4.466zm9.089 1.65V29.46h2.035v7.755H88.02zm9.894.121c-.844 0-1.573-.165-2.19-.495a3.517 3.517 0 01-1.418-1.397c-.33-.601-.495-1.305-.495-2.112 0-.806.165-1.507.495-2.1a3.518 3.518 0 011.419-1.398c.616-.33 1.345-.495 2.189-.495.535 0 1.023.074 1.463.22.44.14.81.341 1.111.605l-.605 1.595a3.601 3.601 0 00-.935-.506 2.759 2.759 0 00-.957-.154c-.66 0-1.17.195-1.53.583-.351.382-.527.932-.527 1.65 0 .726.176 1.284.528 1.672.359.382.869.572 1.529.572.359 0 .678-.047.957-.143a3.91 3.91 0 00.935-.517l.605 1.595c-.301.264-.671.47-1.111.616-.44.14-.928.21-1.463.21zm5.08-.12l3.63-7.756h1.65l3.652 7.755h-2.035l-.935-2.134.781.561h-4.554l.77-.56-.924 2.133h-2.035zm4.444-5.666l-1.287 3.07-.308-.518h3.223l-.275.517-1.298-3.069h-.055zm7.497 5.665V29.46h3.663c.895 0 1.584.213 2.068.638.491.426.737 1.016.737 1.771 0 .506-.11.939-.33 1.298-.22.352-.539.627-.957.825-.418.19-.917.286-1.496.286l.099-.275h.55c.323 0 .609.088.858.264.249.176.455.422.616.737l1.177 2.211h-2.222l-1.265-2.475a.643.643 0 00-.363-.33 1.478 1.478 0 00-.528-.088h-.572v2.893h-2.035zm2.035-4.334h1.276c.396 0 .697-.077.902-.23.205-.162.308-.4.308-.716 0-.308-.103-.539-.308-.693-.205-.154-.506-.23-.902-.23h-1.276v1.87zm8.337 4.334V29.46h5.566v1.551h-3.619v1.485h3.355v1.562h-3.355v1.595h3.619v1.562h-5.566z" fill="#fff"/></svg>