<svg width="131" height="53" viewBox="0 0 131 53" fill="none" xmlns="http://www.w3.org/2000/svg"><rect width="131" height="53" rx="2" fill="#EF6129"/><path d="M15.511 22.36V10.29h4.641c1.337 0 2.454.272 3.35.816a5.101 5.101 0 012.04 2.176c.464.907.696 1.915.696 3.026 0 1.224-.255 2.29-.765 3.196a5.215 5.215 0 01-2.125 2.108c-.907.499-1.972.748-3.196.748h-4.64zm7.361-6.052c0-.623-.108-1.167-.323-1.632a2.493 2.493 0 00-.935-1.105c-.408-.26-.895-.391-1.462-.391h-1.326v6.29h1.326c.578 0 1.065-.136 1.462-.408.408-.272.72-.646.935-1.122a3.996 3.996 0 00.323-1.632zm14.6 3.162v2.89H28.87V10.29h8.449v2.89h-5.134v1.7h4.386v2.686h-4.386v1.904h5.287zm12.133-6.29h-3.468v9.18h-3.315v-9.18h-3.485v-2.89h10.268v2.89zm10.999 6.29v2.89h-8.602V10.29h8.449v2.89h-5.134v1.7h4.386v2.686h-4.386v1.904h5.287zm-3.247-9.69l-2.04-.544.85-2.414h2.873L57.357 9.78zm9.294 6.647v5.933h-3.315V10.29h2.584l4.845 6.137V10.29h3.315v12.07h-2.635l-4.794-5.933zm15.7 5.933V10.29h3.314v9.18h5.474v2.89H82.35zm13.922-12.07h3.706l3.842 12.07h-3.366l-.731-2.363H96.51l-.714 2.363h-3.383l3.859-12.07zm2.924 7.497l-1.071-4.25-1.122 4.25h2.193zm13.994-3.553l-.289-.17a7.02 7.02 0 00-.765-.374 7.943 7.943 0 00-1.037-.391 3.801 3.801 0 00-1.105-.17c-.284 0-.516.045-.697.136-.182.09-.272.244-.272.459 0 .204.09.368.272.493.181.125.436.238.765.34.34.102.742.227 1.207.374.748.227 1.394.487 1.938.782.544.295.963.674 1.258 1.139.294.453.442 1.06.442 1.819 0 .725-.131 1.337-.391 1.836a3.197 3.197 0 01-1.054 1.173c-.442.295-.935.51-1.479.646-.544.125-1.1.187-1.666.187-.578 0-1.185-.057-1.819-.17a13.832 13.832 0 01-1.819-.493 10.07 10.07 0 01-1.615-.748l1.428-2.907.34.204c.226.136.527.289.901.459.374.17.787.323 1.241.459.464.136.929.204 1.394.204.362 0 .612-.045.748-.136.147-.102.221-.232.221-.391 0-.238-.125-.42-.374-.544a4.765 4.765 0 00-.986-.374c-.397-.125-.839-.266-1.326-.425-.703-.238-1.281-.504-1.734-.799-.454-.306-.788-.663-1.003-1.071-.216-.42-.323-.924-.323-1.513 0-.895.209-1.643.629-2.244.419-.6.969-1.054 1.649-1.36a5.271 5.271 0 012.227-.476c.589 0 1.156.074 1.7.221a9.913 9.913 0 011.547.51c.487.204.912.397 1.275.578l-1.428 2.737zM35.585 39.47v2.89h-8.602V30.29h8.45v2.89h-5.135v1.7h4.386v2.686h-4.386v1.904h5.287zm10.042-5.236l-.29-.17a6.965 6.965 0 00-.764-.374 7.91 7.91 0 00-1.037-.391 3.798 3.798 0 00-1.105-.17c-.284 0-.516.045-.697.136-.182.09-.272.244-.272.459 0 .204.09.368.272.493.181.125.436.238.765.34.34.102.742.227 1.207.374.748.227 1.394.487 1.938.782.544.295.963.674 1.258 1.139.294.453.442 1.06.442 1.819 0 .725-.13 1.337-.391 1.836-.261.487-.612.878-1.054 1.173-.442.295-.935.51-1.48.646-.543.125-1.099.187-1.665.187-.578 0-1.185-.057-1.82-.17a13.87 13.87 0 01-1.818-.493 10.106 10.106 0 01-1.615-.748l1.428-2.907.34.204c.226.136.527.289.9.459.375.17.788.323 1.242.459.464.136.929.204 1.394.204.362 0 .612-.045.748-.136.147-.102.22-.232.22-.391 0-.238-.124-.42-.373-.544a4.752 4.752 0 00-.986-.374 136.42 136.42 0 01-1.326-.425c-.703-.238-1.281-.504-1.734-.799-.454-.306-.788-.663-1.003-1.071-.216-.42-.323-.924-.323-1.513 0-.895.21-1.643.629-2.244.419-.6.969-1.054 1.649-1.36a5.274 5.274 0 012.227-.476c.589 0 1.156.074 1.7.221a9.903 9.903 0 011.547.51c.487.204.912.397 1.275.578l-1.428 2.737zM59.4 33.18h-3.468v9.18h-3.315v-9.18h-3.485v-2.89H59.4v2.89zm4.073-2.89h3.706l3.842 12.07h-3.366l-.731-2.363H63.71l-.714 2.363h-3.383l3.859-12.07zm2.924 7.497l-1.071-4.25-1.122 4.25h2.193zm6.817 4.573V30.29h8.279v2.89h-4.964v2.006h4.046v2.686h-4.046v4.488h-3.315zM85.99 30.29h3.706l3.842 12.07h-3.366l-.731-2.363h-3.213l-.714 2.363h-3.383l3.859-12.07zm2.924 7.497l-1.071-4.25-1.122 4.25h2.193zm13.994-3.553l-.289-.17a7.02 7.02 0 00-.765-.374 7.943 7.943 0 00-1.037-.391 3.802 3.802 0 00-1.105-.17c-.284 0-.516.045-.697.136-.182.09-.272.244-.272.459 0 .204.09.368.272.493.181.125.436.238.765.34.34.102.742.227 1.207.374.748.227 1.394.487 1.938.782.544.295.963.674 1.258 1.139.294.453.442 1.06.442 1.819 0 .725-.131 1.337-.391 1.836a3.197 3.197 0 01-1.054 1.173c-.442.295-.935.51-1.479.646-.544.125-1.1.187-1.666.187a10.36 10.36 0 01-1.82-.17 13.874 13.874 0 01-1.818-.493 10.11 10.11 0 01-1.615-.748l1.428-2.907.34.204c.226.136.527.289.9.459.375.17.788.323 1.242.459.464.136.929.204 1.394.204.362 0 .612-.045.748-.136.147-.102.221-.232.221-.391 0-.238-.125-.42-.374-.544a4.762 4.762 0 00-.986-.374 136.42 136.42 0 01-1.326-.425c-.703-.238-1.281-.504-1.734-.799-.454-.306-.788-.663-1.003-1.071-.216-.42-.323-.924-.323-1.513 0-.895.21-1.643.629-2.244.419-.6.969-1.054 1.649-1.36a5.275 5.275 0 012.227-.476c.589 0 1.156.074 1.7.221a9.913 9.913 0 011.547.51c.487.204.912.397 1.275.578l-1.428 2.737z" fill="#fff"/></svg>