<svg width="130" height="73" viewBox="0 0 130 73" fill="none" xmlns="http://www.w3.org/2000/svg"><path d="M.86 16v-3.64h3.7V16H.86zm5.65 0v-3.64h3.7V16h-3.7zm5.648 0v-3.64h3.7V16h-3.7zm11.87 4.32V8.6a24.159 24.159 0 00-.16-2.76h3.44l.22 1.8h-.2c.188-.6.6-1.087 1.24-1.46a4.169 4.169 0 012.14-.56c.88 0 1.654.213 2.32.64.668.413 1.188 1.02 1.56 1.82.388.787.58 1.733.58 2.84 0 1.093-.192 2.04-.58 2.84-.372.8-.892 1.413-1.56 1.84-.666.413-1.44.62-2.32.62-.772 0-1.472-.173-2.1-.52-.626-.36-1.04-.833-1.24-1.42h.22v6.04h-3.56zm5.54-6.74c.614 0 1.1-.207 1.46-.62.374-.427.56-1.107.56-2.04s-.186-1.607-.56-2.02c-.36-.427-.846-.64-1.46-.64-.6 0-1.086.213-1.46.64-.372.413-.56 1.087-.56 2.02s.188 1.613.56 2.04c.374.413.86.62 1.46.62zM37.1 16V5.84h3.56V16H37.1zm-.08-11.6V1.2h3.74v3.2h-3.74zm10.082 11.82c-.867 0-1.64-.207-2.32-.62-.68-.427-1.214-1.04-1.6-1.84-.387-.8-.58-1.747-.58-2.84 0-1.107.186-2.053.56-2.84.386-.8.92-1.407 1.6-1.82.693-.427 1.473-.64 2.34-.64.773 0 1.473.18 2.1.54.626.347 1.046.813 1.26 1.4h-.3V1.28h3.56V16h-3.5v-1.82h.26c-.187.613-.6 1.107-1.24 1.48-.627.373-1.34.56-2.14.56zm1.14-2.64c.586 0 1.066-.207 1.44-.62.386-.427.58-1.107.58-2.04s-.194-1.607-.58-2.02c-.374-.427-.854-.64-1.44-.64-.6 0-1.094.213-1.48.64-.374.413-.56 1.087-.56 2.02s.186 1.613.56 2.04c.386.413.88.62 1.48.62zm7.89 2.42V5.84h3.56V16h-3.56zm-.08-11.6V1.2h3.74v3.2h-3.74zm11.402 11.82c-1.84 0-3.273-.473-4.3-1.42-1.013-.947-1.52-2.247-1.52-3.9 0-1.027.214-1.94.64-2.74a4.565 4.565 0 011.8-1.86c.774-.453 1.68-.68 2.72-.68 1.027 0 1.88.227 2.56.68a4.06 4.06 0 011.56 1.84c.347.773.52 1.673.52 2.7v.76h-6.82V9.92h4.2l-.34.28c0-.76-.146-1.32-.44-1.68-.28-.373-.68-.56-1.2-.56-.6 0-1.06.227-1.38.68-.306.44-.46 1.107-.46 2V11c0 .893.22 1.547.66 1.96.44.413 1.074.62 1.9.62.534 0 1.034-.06 1.5-.18.48-.12.934-.313 1.36-.58l.92 2.32a5.913 5.913 0 01-1.76.8 7.827 7.827 0 01-2.12.28zm-1.8-11.36l2.02-4.1h3.34l-3.08 4.1h-2.28zM73.33 16V8.6a24.159 24.159 0 00-.16-2.76h3.44l.2 1.76h-.22a3.413 3.413 0 011.42-1.46c.613-.347 1.306-.52 2.08-.52 1.186 0 2.073.353 2.66 1.06.6.693.9 1.78.9 3.26V16h-3.56v-5.9c0-.653-.114-1.107-.34-1.36-.227-.267-.554-.4-.98-.4-.56 0-1.014.187-1.36.56-.347.36-.52.84-.52 1.44V16h-3.56zm16.7.22c-.866 0-1.64-.207-2.32-.62-.68-.427-1.213-1.04-1.6-1.84-.386-.8-.58-1.747-.58-2.84 0-1.107.187-2.053.56-2.84.387-.8.92-1.407 1.6-1.82.694-.427 1.474-.64 2.34-.64.774 0 1.474.18 2.1.54.627.347 1.047.813 1.26 1.4h-.3V1.28h3.56V16h-3.5v-1.82h.26c-.186.613-.6 1.107-1.24 1.48-.626.373-1.34.56-2.14.56zm1.14-2.64c.587 0 1.067-.207 1.44-.62.387-.427.58-1.107.58-2.04s-.193-1.607-.58-2.02c-.373-.427-.853-.64-1.44-.64-.6 0-1.093.213-1.48.64-.373.413-.56 1.087-.56 2.02s.187 1.613.56 2.04c.387.413.88.62 1.48.62zm12.972 2.64c-1.134 0-2.114-.213-2.94-.64a4.598 4.598 0 01-1.92-1.82c-.454-.8-.68-1.747-.68-2.84 0-1.107.226-2.053.68-2.84a4.598 4.598 0 011.92-1.82c.826-.427 1.806-.64 2.94-.64 1.12 0 2.093.213 2.92.64a4.572 4.572 0 011.92 1.84c.453.787.68 1.727.68 2.82 0 1.08-.227 2.02-.68 2.82a4.573 4.573 0 01-1.92 1.84c-.827.427-1.8.64-2.92.64zm0-2.64c.586 0 1.053-.207 1.4-.62.346-.427.52-1.107.52-2.04s-.174-1.607-.52-2.02c-.347-.427-.814-.64-1.4-.64-.6 0-1.074.213-1.42.64-.347.413-.52 1.087-.52 2.02s.173 1.613.52 2.04c.346.413.82.62 1.42.62zm12.566 2.64c-1.44 0-2.527-.34-3.26-1.02-.72-.693-1.08-1.74-1.08-3.14v-3.6h-1.9V5.84h1.9v-2.4l3.56-.84v3.24h2.48v2.62h-2.48v3.46c0 .587.133.98.4 1.18.266.187.586.28.96.28.226 0 .42-.013.58-.04a4.89 4.89 0 00.54-.16v2.74c-.294.12-.587.2-.88.24-.28.04-.554.06-.82.06zm8.543 0c-1.84 0-3.273-.473-4.3-1.42-1.013-.947-1.52-2.247-1.52-3.9 0-1.027.214-1.94.64-2.74a4.569 4.569 0 011.8-1.86c.774-.453 1.68-.68 2.72-.68 1.027 0 1.88.227 2.56.68a4.053 4.053 0 011.56 1.84c.347.773.52 1.673.52 2.7v.76h-6.82V9.92h4.2l-.34.28c0-.76-.146-1.32-.44-1.68-.28-.373-.68-.56-1.2-.56-.6 0-1.06.227-1.38.68-.306.44-.46 1.107-.46 2V11c0 .893.22 1.547.66 1.96.44.413 1.074.62 1.9.62.534 0 1.034-.06 1.5-.18.48-.12.934-.313 1.36-.58l.92 2.32a5.903 5.903 0 01-1.76.8 7.823 7.823 0 01-2.12.28zM6.3 44.22c-1.44 0-2.527-.34-3.26-1.02-.72-.693-1.08-1.74-1.08-3.14v-3.6H.06v-2.62h1.9v-2.4l3.56-.84v3.24H8v2.62H5.52v3.46c0 .587.133.98.4 1.18.267.187.587.28.96.28.227 0 .42-.013.58-.04.173-.04.353-.093.54-.16v2.74c-.293.12-.587.2-.88.24-.28.04-.553.06-.82.06zm7.021 0c-1.293 0-2.253-.353-2.88-1.06-.613-.72-.92-1.807-.92-3.26v-6.06h3.56v6.08c0 .533.107.933.32 1.2.227.253.567.38 1.02.38.507 0 .92-.18 1.24-.54.334-.373.5-.86.5-1.46v-5.66h3.56V44h-3.46v-1.82h.3c-.32.653-.753 1.16-1.3 1.52-.546.347-1.193.52-1.94.52zM28.126 44v-7.4a24.252 24.252 0 00-.16-2.76h3.44l.2 1.76h-.22a3.412 3.412 0 011.42-1.46c.613-.347 1.306-.52 2.08-.52 1.186 0 2.073.353 2.66 1.06.6.693.9 1.78.9 3.26V44h-3.56v-5.9c0-.653-.114-1.107-.34-1.36-.227-.267-.554-.4-.98-.4-.56 0-1.014.187-1.36.56-.347.36-.52.84-.52 1.44V44h-3.56zm16.4.22c-1.293 0-2.253-.353-2.88-1.06-.613-.72-.92-1.807-.92-3.26v-6.06h3.56v6.08c0 .533.107.933.32 1.2.227.253.567.38 1.02.38.507 0 .92-.18 1.24-.54.334-.373.5-.86.5-1.46v-5.66h3.56V44h-3.46v-1.82h.3c-.32.653-.753 1.16-1.3 1.52-.546.347-1.193.52-1.94.52zm.18-11.36l2.02-4.1h3.34l-3.08 4.1h-2.28zM53.35 44v-7.4a24.16 24.16 0 00-.16-2.76h3.44l.2 1.76h-.22a3.318 3.318 0 011.3-1.44c.573-.36 1.247-.54 2.02-.54.747 0 1.38.18 1.9.54.533.347.92.9 1.16 1.66h-.34a3.781 3.781 0 011.44-1.62 4.058 4.058 0 012.14-.58c1.16 0 2.027.353 2.6 1.06.573.693.86 1.78.86 3.26V44h-3.58v-5.94c0-.627-.093-1.067-.28-1.32-.187-.267-.487-.4-.9-.4-.52 0-.927.187-1.22.56-.28.373-.42.887-.42 1.54V44h-3.56v-5.94c0-.627-.1-1.067-.3-1.32-.187-.267-.48-.4-.88-.4-.52 0-.927.187-1.22.56-.28.373-.42.887-.42 1.54V44h-3.56zm24.037.22c-1.84 0-3.274-.473-4.3-1.42-1.014-.947-1.52-2.247-1.52-3.9 0-1.027.213-1.94.64-2.74a4.564 4.564 0 011.8-1.86c.773-.453 1.68-.68 2.72-.68 1.026 0 1.88.227 2.56.68a4.061 4.061 0 011.56 1.84c.346.773.52 1.673.52 2.7v.76h-6.82v-1.68h4.2l-.34.28c0-.76-.147-1.32-.44-1.68-.28-.373-.68-.56-1.2-.56-.6 0-1.06.227-1.38.68-.307.44-.46 1.107-.46 2V39c0 .893.22 1.547.66 1.96.44.413 1.073.62 1.9.62.533 0 1.033-.06 1.5-.18.48-.12.933-.313 1.36-.58l.92 2.32a5.916 5.916 0 01-1.76.8 7.828 7.828 0 01-2.12.28zm5.875-.22v-7.38a24.504 24.504 0 00-.16-2.78h3.44l.38 3.12h-.54c.133-.76.346-1.387.64-1.88.293-.493.66-.86 1.1-1.1.44-.24.96-.36 1.56-.36.28 0 .486.013.62.04.146.013.3.053.46.12v3.12a4.15 4.15 0 00-.8-.28c-.2-.04-.46-.06-.78-.06-.547 0-.994.1-1.34.3-.347.187-.6.48-.76.88-.147.4-.22.913-.22 1.54V44h-3.6zm13.678.22c-1.133 0-2.113-.213-2.94-.64a4.6 4.6 0 01-1.92-1.82c-.453-.8-.68-1.747-.68-2.84 0-1.107.227-2.053.68-2.84A4.6 4.6 0 0194 34.26c.827-.427 1.807-.64 2.94-.64 1.12 0 2.094.213 2.92.64a4.562 4.562 0 011.92 1.84c.453.787.68 1.727.68 2.82 0 1.08-.227 2.02-.68 2.82a4.562 4.562 0 01-1.92 1.84c-.826.427-1.8.64-2.92.64zm0-2.64c.587 0 1.053-.207 1.4-.62.347-.427.52-1.107.52-2.04s-.173-1.607-.52-2.02c-.347-.427-.813-.64-1.4-.64-.6 0-1.073.213-1.42.64-.346.413-.52 1.087-.52 2.02s.174 1.613.52 2.04c.347.413.82.62 1.42.62zM5.14 72.22c-.867 0-1.64-.207-2.32-.62-.68-.427-1.213-1.04-1.6-1.84s-.58-1.747-.58-2.84c0-1.107.187-2.053.56-2.84.387-.8.92-1.407 1.6-1.82.693-.427 1.473-.64 2.34-.64.773 0 1.473.18 2.1.54.627.347 1.047.813 1.26 1.4h-.3v-6.28h3.56V72h-3.5v-1.82h.26c-.187.613-.6 1.107-1.24 1.48-.627.373-1.34.56-2.14.56zm1.14-2.64c.587 0 1.067-.207 1.44-.62.387-.427.58-1.107.58-2.04s-.193-1.607-.58-2.02c-.373-.427-.853-.64-1.44-.64-.6 0-1.093.213-1.48.64-.373.413-.56 1.087-.56 2.02s.187 1.613.56 2.04c.387.413.88.62 1.48.62zm13.251 2.64c-1.84 0-3.273-.473-4.3-1.42-1.013-.947-1.52-2.247-1.52-3.9 0-1.027.213-1.94.64-2.74a4.565 4.565 0 011.8-1.86c.773-.453 1.68-.68 2.72-.68 1.027 0 1.88.227 2.56.68a4.061 4.061 0 011.56 1.84c.347.773.52 1.673.52 2.7v.76h-6.82v-1.68h4.2l-.34.28c0-.76-.147-1.32-.44-1.68-.28-.373-.68-.56-1.2-.56-.6 0-1.06.227-1.38.68-.307.44-.46 1.107-.46 2V67c0 .893.22 1.547.66 1.96.44.413 1.073.62 1.9.62.533 0 1.033-.06 1.5-.18.48-.12.933-.313 1.36-.58l.92 2.32a5.915 5.915 0 01-1.76.8 7.828 7.828 0 01-2.12.28zM31.648 72V57.9h3.2l4.62 10.34h-.66l4.6-10.34h3.22V72h-3.34v-8.64h.86l-4 8.64h-2.08l-4.02-8.64h.92V72h-3.32zm22.975.22c-1.84 0-3.273-.473-4.3-1.42-1.013-.947-1.52-2.247-1.52-3.9 0-1.027.214-1.94.64-2.74a4.564 4.564 0 011.8-1.86c.774-.453 1.68-.68 2.72-.68 1.027 0 1.88.227 2.56.68a4.061 4.061 0 011.56 1.84c.347.773.52 1.673.52 2.7v.76h-6.82v-1.68h4.2l-.34.28c0-.76-.146-1.32-.44-1.68-.28-.373-.68-.56-1.2-.56-.6 0-1.06.227-1.38.68-.306.44-.46 1.107-.46 2V67c0 .893.22 1.547.66 1.96.44.413 1.074.62 1.9.62.534 0 1.034-.06 1.5-.18.48-.12.934-.313 1.36-.58l.92 2.32a5.916 5.916 0 01-1.76.8 7.828 7.828 0 01-2.12.28zm9.915 0c-.866 0-1.64-.207-2.32-.62-.68-.427-1.213-1.04-1.6-1.84-.386-.8-.58-1.747-.58-2.84 0-1.107.187-2.053.56-2.84.387-.8.92-1.407 1.6-1.82.694-.427 1.474-.64 2.34-.64.774 0 1.474.18 2.1.54.627.347 1.047.813 1.26 1.4h-.3v-6.28h3.56V72h-3.5v-1.82h.26c-.186.613-.6 1.107-1.24 1.48-.626.373-1.34.56-2.14.56zm1.14-2.64c.587 0 1.067-.207 1.44-.62.387-.427.58-1.107.58-2.04s-.193-1.607-.58-2.02c-.373-.427-.853-.64-1.44-.64-.6 0-1.093.213-1.48.64-.373.413-.56 1.087-.56 2.02s.187 1.613.56 2.04c.387.413.88.62 1.48.62zM73.57 72V61.84h3.56V72h-3.56zm-.08-11.6v-3.2h3.74v3.2h-3.74zM84.67 72.22c-1.12 0-2.1-.213-2.94-.64a4.701 4.701 0 01-1.96-1.82c-.466-.8-.7-1.753-.7-2.86s.234-2.053.7-2.84a4.573 4.573 0 011.96-1.8c.84-.427 1.82-.64 2.94-.64a7.53 7.53 0 012.04.28c.667.187 1.207.453 1.62.8l-1 2.42a3.265 3.265 0 00-1.1-.6c-.4-.147-.793-.22-1.18-.22-.733 0-1.306.22-1.72.66-.4.44-.6 1.087-.6 1.94s.2 1.507.6 1.96c.414.44.987.66 1.72.66.374 0 .767-.067 1.18-.2a3.81 3.81 0 001.1-.6l1 2.42c-.426.333-.973.6-1.64.8a7.316 7.316 0 01-2.02.28zm9.314 0c-.88 0-1.653-.207-2.32-.62-.666-.427-1.193-1.04-1.58-1.84-.373-.8-.56-1.747-.56-2.84 0-1.107.187-2.053.56-2.84.387-.8.914-1.407 1.58-1.82.667-.427 1.44-.64 2.32-.64.787 0 1.493.187 2.12.56.64.373 1.06.86 1.26 1.46h-.2l.22-1.8h3.42l-.12 1.38c-.027.467-.04.927-.04 1.38V72h-3.52l-.04-1.72h.24c-.2.587-.62 1.06-1.26 1.42-.626.347-1.32.52-2.08.52zm1.14-2.64c.6 0 1.087-.207 1.46-.62.374-.427.56-1.107.56-2.04s-.186-1.607-.56-2.02c-.373-.427-.86-.64-1.46-.64s-1.087.213-1.46.64c-.373.413-.56 1.087-.56 2.02s.18 1.613.54 2.04c.374.413.867.62 1.48.62zm7.931 2.42v-7.38a24.232 24.232 0 00-.16-2.78h3.44l.38 3.12h-.54c.134-.76.347-1.387.64-1.88.294-.493.66-.86 1.1-1.1.44-.24.96-.36 1.56-.36.28 0 .487.013.62.04.147.013.3.053.46.12v3.12c-.333-.147-.6-.24-.8-.28-.2-.04-.46-.06-.78-.06-.546 0-.993.1-1.34.3-.346.187-.6.48-.76.88-.146.4-.22.913-.22 1.54V72h-3.6zm13.959.22c-1.84 0-3.274-.473-4.3-1.42-1.014-.947-1.52-2.247-1.52-3.9 0-1.027.213-1.94.64-2.74a4.556 4.556 0 011.8-1.86c.773-.453 1.68-.68 2.72-.68 1.026 0 1.88.227 2.56.68a4.065 4.065 0 011.56 1.84c.346.773.52 1.673.52 2.7v.76h-6.82v-1.68h4.2l-.34.28c0-.76-.147-1.32-.44-1.68-.28-.373-.68-.56-1.2-.56-.6 0-1.06.227-1.38.68-.307.44-.46 1.107-.46 2V67c0 .893.22 1.547.66 1.96.44.413 1.073.62 1.9.62a6.01 6.01 0 001.5-.18c.48-.12.933-.313 1.36-.58l.92 2.32a5.926 5.926 0 01-1.76.8 7.833 7.833 0 01-2.12.28zm5.635-.22v-3.64h3.7V72h-3.7z" fill="#fff"/></svg>