<svg width="174" height="24" viewBox="0 0 174 24" fill="none" xmlns="http://www.w3.org/2000/svg"><path d="M.869 9V.706h2.156l3.982 5.071V.706h2.145V9H7.007L3.025 3.929V9H.869zm11.802-2.849c0 .19.033.367.1.528.073.154.164.29.274.407.118.117.253.209.407.275a1.324 1.324 0 001.001 0c.162-.066.297-.158.407-.275.118-.117.21-.253.275-.407.074-.161.11-.334.11-.517 0-.176-.036-.341-.11-.495a1.257 1.257 0 00-.275-.418 1.142 1.142 0 00-.407-.275 1.324 1.324 0 00-1.001 0c-.154.066-.29.158-.407.275-.11.117-.201.253-.275.407a1.243 1.243 0 00-.099.495zm-2.1-.022a2.804 2.804 0 01.957-2.112c.3-.271.656-.484 1.066-.638a3.916 3.916 0 011.364-.231c.484 0 .932.077 1.342.231.418.147.778.356 1.078.627.308.264.547.583.715.957.17.367.253.774.253 1.221a2.92 2.92 0 01-.968 2.189c-.3.264-.663.47-1.089.616-.418.147-.872.22-1.364.22-.484 0-.93-.073-1.342-.22a3.158 3.158 0 01-1.067-.627 2.963 2.963 0 01-.693-.968 3.093 3.093 0 01-.253-1.265zm11.662-1.32a2.326 2.326 0 00-1.079-.286.839.839 0 00-.45.11.34.34 0 00-.166.297.53.53 0 00.023.165.361.361 0 00.12.11c.066.037.158.07.275.099.125.03.287.066.485.11.55.11.96.308 1.232.594.27.279.407.638.407 1.078 0 .33-.066.627-.198.891a1.946 1.946 0 01-.55.671 2.599 2.599 0 01-.848.407c-.33.103-.693.154-1.089.154-.762 0-1.514-.216-2.255-.649l.726-1.408c.558.381 1.086.572 1.585.572a.78.78 0 00.45-.121c.118-.08.177-.183.177-.308a.396.396 0 00-.034-.176.234.234 0 00-.11-.132.749.749 0 00-.264-.11 3.802 3.802 0 00-.44-.11c-.616-.125-1.048-.308-1.297-.55-.242-.25-.363-.59-.363-1.023 0-.315.058-.598.175-.847.118-.257.287-.473.506-.649.22-.176.484-.312.793-.407a3.601 3.601 0 011.044-.143c.624 0 1.229.121 1.816.363l-.671 1.298zm3.737 1.342c0 .19.033.367.1.528.073.154.164.29.274.407.118.117.253.209.407.275a1.324 1.324 0 001.001 0 1.14 1.14 0 00.407-.275c.118-.117.21-.253.275-.407.074-.161.11-.334.11-.517 0-.176-.036-.341-.11-.495a1.256 1.256 0 00-.275-.418 1.14 1.14 0 00-.407-.275 1.324 1.324 0 00-1.001 0c-.154.066-.29.158-.407.275a1.59 1.59 0 00-.275.407 1.243 1.243 0 00-.099.495zm-2.1-.022a2.805 2.805 0 01.957-2.112c.3-.271.656-.484 1.066-.638a3.916 3.916 0 011.364-.231c.484 0 .932.077 1.342.231.418.147.778.356 1.078.627.308.264.547.583.715.957.169.367.253.774.253 1.221a2.919 2.919 0 01-.968 2.189c-.3.264-.663.47-1.089.616-.418.147-.872.22-1.364.22-.484 0-.931-.073-1.342-.22a3.159 3.159 0 01-1.067-.627 2.963 2.963 0 01-.693-.968 3.094 3.094 0 01-.253-1.265zm10.176-1.111V9h-1.991V5.018h-.66V3.357h.66V1.663h1.99v1.694h1.134v1.661h-1.133zm1.881-1.661h1.991v.924c.213-.337.473-.594.781-.77a2.068 2.068 0 011.078-.275h.165c.066 0 .14.007.22.022v1.903a1.892 1.892 0 00-.858-.198c-.462 0-.81.14-1.045.418-.227.271-.34.671-.34 1.199V9h-1.992V3.357zm7.037 2.805c0 .183.033.356.099.517.066.154.154.29.264.407.117.117.253.209.407.275a1.352 1.352 0 001.012 0c.16-.066.297-.158.407-.275.117-.117.209-.253.275-.407.073-.154.11-.319.11-.495s-.037-.341-.11-.495a1.257 1.257 0 00-.275-.418 1.142 1.142 0 00-.407-.275 1.352 1.352 0 00-1.012 0c-.154.066-.29.158-.407.275a1.39 1.39 0 00-.264.407 1.166 1.166 0 00-.1.484zm2.508-2.805h2.002V9h-2.002v-.627c-.426.535-1.001.803-1.727.803-.411 0-.789-.073-1.133-.22a2.803 2.803 0 01-.902-.638 2.995 2.995 0 01-.605-.957 3.35 3.35 0 01-.21-1.199c0-.403.07-.785.21-1.144.139-.367.333-.686.583-.957a2.68 2.68 0 01.89-.638 2.665 2.665 0 011.145-.242c.704 0 1.287.246 1.749.737v-.561zm7.096 1.452a2.327 2.327 0 00-1.078-.286.839.839 0 00-.45.11.34.34 0 00-.166.297c0 .066.008.121.023.165a.36.36 0 00.12.11c.066.037.158.07.275.099.125.03.286.066.484.11.55.11.961.308 1.232.594.272.279.407.638.407 1.078 0 .33-.066.627-.197.891a1.946 1.946 0 01-.55.671 2.6 2.6 0 01-.847.407c-.33.103-.694.154-1.09.154-.762 0-1.514-.216-2.255-.649l.727-1.408c.557.381 1.085.572 1.583.572a.78.78 0 00.451-.121c.118-.08.176-.183.176-.308a.396.396 0 00-.032-.176.235.235 0 00-.11-.132.75.75 0 00-.264-.11 3.807 3.807 0 00-.44-.11c-.617-.125-1.05-.308-1.298-.55-.242-.25-.363-.59-.363-1.023 0-.315.058-.598.175-.847.118-.257.286-.473.506-.649.22-.176.484-.312.792-.407a3.6 3.6 0 011.046-.143c.623 0 1.228.121 1.815.363l-.672 1.298zm5.595-1.452h1.991v.715c.272-.33.547-.55.825-.66a2.51 2.51 0 01.98-.176c.395 0 .733.066 1.011.198.286.125.528.304.726.539.162.19.272.403.33.638.06.235.088.502.088.803V9h-1.99V6.151a2.75 2.75 0 00-.067-.671.754.754 0 00-.506-.605 1.106 1.106 0 00-.352-.055c-.337 0-.597.103-.78.308-.177.198-.265.484-.265.858V9h-1.99V3.357zm9.186 2.794c0 .19.033.367.1.528.073.154.164.29.274.407.118.117.253.209.407.275a1.324 1.324 0 001.001 0 1.14 1.14 0 00.407-.275c.118-.117.21-.253.275-.407.073-.161.11-.334.11-.517 0-.176-.037-.341-.11-.495a1.256 1.256 0 00-.275-.418 1.14 1.14 0 00-.407-.275 1.324 1.324 0 00-1.001 0c-.154.066-.29.158-.407.275a1.59 1.59 0 00-.275.407 1.243 1.243 0 00-.099.495zm-2.1-.022a2.805 2.805 0 01.957-2.112c.3-.271.656-.484 1.066-.638a3.916 3.916 0 011.364-.231c.484 0 .931.077 1.342.231.418.147.778.356 1.078.627.308.264.547.583.715.957.169.367.253.774.253 1.221a2.919 2.919 0 01-.968 2.189c-.3.264-.664.47-1.089.616-.418.147-.873.22-1.364.22-.484 0-.931-.073-1.342-.22a3.159 3.159 0 01-1.067-.627 2.963 2.963 0 01-.693-.968 3.094 3.094 0 01-.253-1.265zm15.917-.946c-.345-.235-.693-.352-1.045-.352-.191 0-.37.033-.54.099a1.293 1.293 0 00-.428.286c-.125.117-.224.26-.297.429a1.442 1.442 0 00-.1.55c0 .198.034.381.1.55.073.161.168.304.286.429.124.117.27.209.44.275.168.066.348.099.539.099.374 0 .722-.128 1.045-.385v1.694c-.492.213-.957.319-1.397.319-.411 0-.803-.07-1.177-.209a3.1 3.1 0 01-.98-.594 3.071 3.071 0 01-.67-.935 2.887 2.887 0 01-.253-1.221c0-.447.08-.854.242-1.221a2.86 2.86 0 01.66-.957c.278-.271.608-.48.99-.627a3.343 3.343 0 011.243-.231c.484 0 .93.103 1.342.308v1.694zm3.016.968c0 .19.033.367.1.528.073.154.164.29.274.407.118.117.253.209.407.275a1.324 1.324 0 001.001 0 1.14 1.14 0 00.407-.275c.118-.117.21-.253.275-.407.073-.161.11-.334.11-.517 0-.176-.037-.341-.11-.495a1.256 1.256 0 00-.275-.418 1.14 1.14 0 00-.407-.275 1.324 1.324 0 00-1.001 0c-.154.066-.29.158-.407.275a1.59 1.59 0 00-.275.407 1.243 1.243 0 00-.099.495zm-2.1-.022a2.805 2.805 0 01.957-2.112c.3-.271.656-.484 1.066-.638a3.916 3.916 0 011.364-.231c.484 0 .931.077 1.342.231.418.147.777.356 1.078.627.308.264.547.583.715.957.169.367.253.774.253 1.221a2.919 2.919 0 01-.968 2.189c-.3.264-.664.47-1.089.616-.418.147-.873.22-1.364.22-.484 0-.931-.073-1.342-.22a3.159 3.159 0 01-1.067-.627 2.963 2.963 0 01-.693-.968 3.094 3.094 0 01-.253-1.265zm7.921-2.772h1.991v.693c.543-.52 1.152-.781 1.826-.781.836 0 1.474.352 1.914 1.056.448-.711 1.086-1.067 1.914-1.067.264 0 .514.04.748.121.235.073.437.194.605.363.169.161.301.374.396.638.103.264.154.583.154.957V9h-1.99V6.217c0-.286-.023-.52-.067-.704a1.01 1.01 0 00-.176-.429.552.552 0 00-.264-.209.974.974 0 00-.33-.055c-.638 0-.957.466-.957 1.397V9h-1.99V6.217c0-.286-.019-.52-.056-.704a1.238 1.238 0 00-.165-.451.481.481 0 00-.264-.22 1.032 1.032 0 00-.385-.066c-.124 0-.242.018-.352.055a.644.644 0 00-.297.22c-.08.103-.146.25-.198.44a3.22 3.22 0 00-.066.726V9h-1.99V3.357zm15.607 2.838c0-.176-.033-.341-.099-.495a1.137 1.137 0 00-.264-.418 1.267 1.267 0 00-.418-.275 1.163 1.163 0 00-.506-.11c-.176 0-.341.033-.495.099-.154.066-.29.158-.407.275-.11.117-.202.257-.275.418a1.243 1.243 0 00-.099.495 1.276 1.276 0 00.374.902c.117.11.253.202.407.275a1.322 1.322 0 001.001 0c.154-.066.286-.158.396-.275.117-.117.209-.253.275-.407.073-.154.11-.315.11-.484zm-2.508 5.621h-1.991V3.357h1.991v.627c.425-.535 1.004-.803 1.738-.803.403 0 .777.08 1.122.242a2.774 2.774 0 011.507 1.595c.146.367.22.759.22 1.177 0 .418-.074.807-.22 1.166-.14.36-.338.675-.594.946a2.695 2.695 0 01-2.013.869c-.704 0-1.291-.242-1.76-.726v3.366zm7.57-5.654c0 .183.033.356.099.517.066.154.154.29.264.407.117.117.253.209.407.275a1.348 1.348 0 001.012 0c.161-.066.297-.158.407-.275.117-.117.209-.253.275-.407.073-.154.11-.319.11-.495s-.037-.341-.11-.495a1.262 1.262 0 00-.275-.418 1.144 1.144 0 00-.407-.275 1.348 1.348 0 00-1.012 0c-.154.066-.29.158-.407.275a1.39 1.39 0 00-.264.407 1.166 1.166 0 00-.099.484zm2.508-2.805h2.002V9h-2.002v-.627c-.426.535-1.001.803-1.727.803a2.86 2.86 0 01-1.133-.22 2.792 2.792 0 01-.902-.638 2.978 2.978 0 01-.605-.957 3.334 3.334 0 01-.209-1.199c0-.403.069-.785.209-1.144.139-.367.333-.686.583-.957.249-.271.546-.484.891-.638a2.663 2.663 0 011.144-.242c.704 0 1.287.246 1.749.737v-.561zm3.356 0h1.991v.924a2.24 2.24 0 01.781-.77 2.07 2.07 0 011.078-.275h.165c.066 0 .14.007.22.022v1.903a1.892 1.892 0 00-.858-.198c-.462 0-.81.14-1.045.418-.227.271-.341.671-.341 1.199V9h-1.991V3.357zm7.551 1.661V9h-1.991V5.018h-.66V3.357h.66V1.663h1.991v1.694h1.133v1.661h-1.133zm4.023-1.661V9h-1.991V3.357h1.991zm-2.123-2.167c0-.154.029-.297.088-.429a1.152 1.152 0 01.594-.605 1.121 1.121 0 011.474.605c.058.132.088.275.088.429 0 .154-.03.3-.088.44a1.132 1.132 0 01-1.474.594 1.152 1.152 0 01-.352-.242 1.143 1.143 0 01-.242-.352 1.116 1.116 0 01-.088-.44zm3.483 2.167h1.991v.693c.543-.52 1.151-.781 1.826-.781.836 0 1.474.352 1.914 1.056.447-.711 1.085-1.067 1.914-1.067.264 0 .513.04.748.121.235.073.436.194.605.363.169.161.301.374.396.638.103.264.154.583.154.957V9h-1.991V6.217c0-.286-.022-.52-.066-.704a1.01 1.01 0 00-.176-.429.55.55 0 00-.264-.209.977.977 0 00-.33-.055c-.638 0-.957.466-.957 1.397V9h-1.991V6.217c0-.286-.018-.52-.055-.704a1.249 1.249 0 00-.165-.451.481.481 0 00-.264-.22 1.031 1.031 0 00-.385-.066c-.125 0-.242.018-.352.055a.644.644 0 00-.297.22c-.081.103-.147.25-.198.44a3.22 3.22 0 00-.066.726V9h-1.991V3.357zm12.795 2.794c0 .19.033.367.099.528.073.154.165.29.275.407.117.117.253.209.407.275a1.322 1.322 0 001.001 0c.161-.066.297-.158.407-.275.117-.117.209-.253.275-.407a1.24 1.24 0 00.11-.517c0-.176-.037-.341-.11-.495a1.262 1.262 0 00-.275-.418 1.144 1.144 0 00-.407-.275 1.322 1.322 0 00-1.001 0c-.154.066-.29.158-.407.275a1.58 1.58 0 00-.275.407 1.243 1.243 0 00-.099.495zm-2.101-.022c0-.418.084-.807.253-1.166.169-.367.403-.682.704-.946a3.306 3.306 0 011.067-.638 3.918 3.918 0 011.364-.231c.484 0 .931.077 1.342.231.418.147.777.356 1.078.627.308.264.546.583.715.957.169.367.253.774.253 1.221a2.92 2.92 0 01-.968 2.189c-.301.264-.664.47-1.089.616-.418.147-.873.22-1.364.22-.484 0-.931-.073-1.342-.22a3.158 3.158 0 01-1.067-.627 2.972 2.972 0 01-.693-.968 3.088 3.088 0 01-.253-1.265zm11.662-1.32a2.324 2.324 0 00-1.078-.286.841.841 0 00-.451.11.34.34 0 00-.165.297c0 .066.008.121.022.165a.367.367 0 00.121.11c.066.037.158.07.275.099.125.03.286.066.484.11.55.11.961.308 1.232.594.272.279.407.638.407 1.078 0 .33-.066.627-.198.891a1.943 1.943 0 01-.55.671 2.593 2.593 0 01-.847.407c-.33.103-.693.154-1.089.154-.762 0-1.514-.216-2.255-.649l.726-1.408c.558.381 1.086.572 1.584.572.184 0 .334-.04.451-.121.118-.08.176-.183.176-.308a.396.396 0 00-.033-.176.23.23 0 00-.11-.132.739.739 0 00-.264-.11 3.77 3.77 0 00-.44-.11c-.616-.125-1.048-.308-1.298-.55-.242-.25-.363-.59-.363-1.023 0-.315.059-.598.176-.847a1.76 1.76 0 01.506-.649c.22-.176.484-.312.792-.407a3.606 3.606 0 011.045-.143c.624 0 1.229.121 1.815.363l-.671 1.298zM.682 17.357h1.991v.715c.271-.33.546-.55.825-.66a2.51 2.51 0 01.979-.176c.396 0 .733.066 1.012.198.286.125.528.304.726.539.161.19.271.403.33.638s.088.502.088.803V23H4.642v-2.849a2.75 2.75 0 00-.066-.671.755.755 0 00-.506-.605 1.105 1.105 0 00-.352-.055c-.337 0-.598.103-.781.308-.176.198-.264.484-.264.858V23H.682v-5.643zm9.296 0v3.179c0 .697.337 1.045 1.012 1.045.674 0 1.012-.348 1.012-1.045v-3.179h1.99v3.564c0 .763-.252 1.335-.758 1.716-.499.381-1.247.572-2.244.572-.998 0-1.75-.19-2.255-.572-.499-.381-.748-.953-.748-1.716v-3.564h1.99zm9.492 2.002a1.198 1.198 0 00-.407-.671 1.14 1.14 0 00-.748-.253c-.308 0-.56.08-.759.242-.19.161-.312.389-.363.682h2.277zm-2.332 1.155c0 .858.403 1.287 1.21 1.287.433 0 .76-.176.98-.528h1.924c-.389 1.29-1.36 1.936-2.915 1.936-.477 0-.913-.07-1.309-.209a3.051 3.051 0 01-1.023-.616 2.756 2.756 0 01-.649-.946 3.153 3.153 0 01-.23-1.232c0-.47.072-.891.22-1.265.146-.381.355-.704.626-.968s.598-.466.98-.605c.388-.147.824-.22 1.308-.22.477 0 .906.073 1.287.22.381.14.704.345.968.616s.466.605.605 1.001c.14.389.21.829.21 1.32v.209h-4.192zm9.07-1.705a2.326 2.326 0 00-1.079-.286.839.839 0 00-.45.11.34.34 0 00-.166.297c0 .066.007.121.022.165a.36.36 0 00.121.11c.066.037.158.07.275.099.125.03.286.066.484.11.55.11.96.308 1.232.594.272.279.407.638.407 1.078 0 .33-.066.627-.198.891a1.947 1.947 0 01-.55.671 2.599 2.599 0 01-.847.407c-.33.103-.693.154-1.089.154-.762 0-1.514-.216-2.255-.649l.726-1.408c.557.381 1.085.572 1.584.572a.78.78 0 00.451-.121c.117-.08.176-.183.176-.308a.396.396 0 00-.033-.176.235.235 0 00-.11-.132.75.75 0 00-.264-.11 3.807 3.807 0 00-.44-.11c-.616-.125-1.048-.308-1.298-.55-.242-.25-.363-.59-.363-1.023 0-.315.059-.598.176-.847.117-.257.286-.473.506-.649.22-.176.484-.312.792-.407a3.601 3.601 0 011.045-.143c.623 0 1.229.121 1.815.363l-.67 1.298zm4.228.209V23h-1.99v-3.982h-.66v-1.661h.66v-1.694h1.99v1.694h1.133v1.661h-1.133zm1.882-1.661h1.99v.924c.213-.337.474-.594.782-.77a2.068 2.068 0 011.078-.275h.165c.066 0 .14.007.22.022v1.903a1.892 1.892 0 00-.858-.198c-.462 0-.81.14-1.045.418-.228.271-.341.671-.341 1.199V23h-1.991v-5.643zm7.048 2.794c0 .19.033.367.099.528.073.154.165.29.275.407.117.117.253.209.407.275a1.324 1.324 0 001 0c.162-.066.298-.158.408-.275.117-.117.209-.253.275-.407.073-.161.11-.334.11-.517 0-.176-.037-.341-.11-.495a1.256 1.256 0 00-.275-.418 1.141 1.141 0 00-.407-.275 1.324 1.324 0 00-1.001 0c-.154.066-.29.158-.407.275a1.59 1.59 0 00-.275.407 1.243 1.243 0 00-.1.495zm-2.101-.022a2.805 2.805 0 01.957-2.112c.3-.271.656-.484 1.067-.638a3.916 3.916 0 011.364-.231c.484 0 .931.077 1.342.231.418.147.777.356 1.078.627.308.264.546.583.715.957.168.367.253.774.253 1.221a2.918 2.918 0 01-.968 2.189c-.3.264-.664.47-1.09.616-.417.147-.872.22-1.363.22-.484 0-.932-.073-1.342-.22a3.16 3.16 0 01-1.067-.627 2.963 2.963 0 01-.693-.968 3.094 3.094 0 01-.253-1.265zm11.66-2.772h1.991v.715c.272-.33.547-.55.825-.66a2.51 2.51 0 01.98-.176c.395 0 .733.066 1.011.198.286.125.528.304.726.539.162.19.272.403.33.638.059.235.088.502.088.803V23h-1.99v-2.849a2.75 2.75 0 00-.067-.671.755.755 0 00-.506-.605 1.105 1.105 0 00-.352-.055c-.337 0-.597.103-.78.308-.177.198-.265.484-.265.858V23h-1.99v-5.643zm9.296 0v3.179c0 .697.337 1.045 1.012 1.045s1.012-.348 1.012-1.045v-3.179h1.99v3.564c0 .763-.252 1.335-.758 1.716-.499.381-1.247.572-2.244.572-.997 0-1.75-.19-2.255-.572-.499-.381-.748-.953-.748-1.716v-3.564h1.99zm2.926-2.519l-1.914 1.694-.924-.682 1.573-1.925 1.265.913zm2.441 2.519h1.991v.693c.543-.52 1.152-.781 1.826-.781.836 0 1.474.352 1.914 1.056.448-.711 1.086-1.067 1.914-1.067.264 0 .514.04.748.121.235.073.437.194.605.363.169.161.3.374.396.638.103.264.154.583.154.957V23h-1.99v-2.783c0-.286-.023-.52-.067-.704a1.011 1.011 0 00-.176-.429.553.553 0 00-.264-.209.973.973 0 00-.33-.055c-.638 0-.957.466-.957 1.397V23h-1.99v-2.783c0-.286-.02-.52-.056-.704a1.238 1.238 0 00-.165-.451.481.481 0 00-.264-.22 1.033 1.033 0 00-.385-.066c-.124 0-.242.018-.352.055a.645.645 0 00-.297.22c-.08.103-.146.25-.198.44a3.22 3.22 0 00-.066.726V23h-1.99v-5.643zm15.04 2.002a1.198 1.198 0 00-.408-.671 1.14 1.14 0 00-.748-.253c-.308 0-.56.08-.759.242-.19.161-.311.389-.363.682h2.277zm-2.333 1.155c0 .858.404 1.287 1.21 1.287.433 0 .76-.176.98-.528h1.924c-.388 1.29-1.36 1.936-2.915 1.936-.476 0-.913-.07-1.309-.209a3.051 3.051 0 01-1.023-.616 2.756 2.756 0 01-.649-.946 3.153 3.153 0 01-.23-1.232c0-.47.073-.891.22-1.265.146-.381.355-.704.626-.968.272-.264.598-.466.98-.605.388-.147.824-.22 1.308-.22.477 0 .906.073 1.287.22.382.14.704.345.968.616s.466.605.605 1.001c.14.389.21.829.21 1.32v.209h-4.192zm5.33-3.157h1.99v.924c.213-.337.473-.594.781-.77a2.068 2.068 0 011.078-.275h.165c.066 0 .14.007.22.022v1.903a1.892 1.892 0 00-.858-.198c-.462 0-.81.14-1.045.418-.227.271-.34.671-.34 1.199V23h-1.992v-5.643zm7.047 2.794c0 .19.033.367.1.528.073.154.164.29.274.407.118.117.253.209.407.275a1.324 1.324 0 001.001 0c.162-.066.297-.158.407-.275.118-.117.21-.253.275-.407.074-.161.11-.334.11-.517 0-.176-.036-.341-.11-.495a1.257 1.257 0 00-.275-.418 1.142 1.142 0 00-.407-.275 1.324 1.324 0 00-1.001 0c-.154.066-.29.158-.407.275-.11.117-.201.253-.275.407a1.243 1.243 0 00-.099.495zm-2.1-.022a2.802 2.802 0 01.957-2.112c.3-.271.656-.484 1.066-.638a3.916 3.916 0 011.364-.231c.484 0 .932.077 1.342.231a3.14 3.14 0 011.078.627c.308.264.547.583.715.957.169.367.253.774.253 1.221a2.92 2.92 0 01-.968 2.189c-.3.264-.663.47-1.089.616-.418.147-.872.22-1.364.22-.484 0-.931-.073-1.342-.22a3.158 3.158 0 01-1.067-.627 2.96 2.96 0 01-.693-.968 3.092 3.092 0 01-.253-1.265zm13.508.033c0 .183.033.356.099.517.066.154.154.29.264.407.117.117.253.209.407.275a1.348 1.348 0 001.012 0c.161-.066.297-.158.407-.275.117-.117.209-.253.275-.407.073-.154.11-.319.11-.495s-.037-.341-.11-.495a1.262 1.262 0 00-.275-.418 1.145 1.145 0 00-.407-.275 1.322 1.322 0 00-1.001 0c-.154.066-.29.158-.407.275a1.58 1.58 0 00-.275.407 1.166 1.166 0 00-.099.484zm2.508-6.292h2.002V23h-2.002v-.627c-.426.535-1.001.803-1.727.803a2.744 2.744 0 01-2.035-.869 2.995 2.995 0 01-.605-.957 3.318 3.318 0 01-.21-1.188c0-.403.067-.785.199-1.144.14-.367.334-.686.583-.957a2.68 2.68 0 01.89-.638 2.74 2.74 0 011.156-.242c.704 0 1.287.246 1.749.737V13.87zm7.482 5.489a1.2 1.2 0 00-.407-.671 1.142 1.142 0 00-.748-.253c-.308 0-.561.08-.759.242-.191.161-.312.389-.363.682h2.277zm-2.332 1.155c0 .858.403 1.287 1.21 1.287.432 0 .759-.176.979-.528h1.925c-.389 1.29-1.361 1.936-2.915 1.936a3.92 3.92 0 01-1.309-.209 3.051 3.051 0 01-1.023-.616 2.752 2.752 0 01-.649-.946 3.153 3.153 0 01-.231-1.232c0-.47.073-.891.22-1.265.146-.381.355-.704.627-.968.271-.264.597-.466.979-.605.388-.147.825-.22 1.309-.22.476 0 .905.073 1.287.22.381.14.704.345.968.616s.465.605.605 1.001c.139.389.209.829.209 1.32v.209h-4.191zm8.88 2.486l1.408-8.294h2.134l1.661 4.422 1.65-4.422h2.134L127.013 23h-2.145l-.715-4.774L122.195 23h-.858l-1.859-4.774-.715 4.774h-2.145zm15.398-3.641a1.2 1.2 0 00-.407-.671 1.14 1.14 0 00-.748-.253c-.308 0-.561.08-.759.242-.191.161-.312.389-.363.682h2.277zm-2.332 1.155c0 .858.403 1.287 1.21 1.287.433 0 .759-.176.979-.528h1.925c-.389 1.29-1.36 1.936-2.915 1.936a3.92 3.92 0 01-1.309-.209 3.051 3.051 0 01-1.023-.616 2.752 2.752 0 01-.649-.946 3.153 3.153 0 01-.231-1.232c0-.47.073-.891.22-1.265.147-.381.356-.704.627-.968s.598-.466.979-.605c.389-.147.825-.22 1.309-.22.477 0 .906.073 1.287.22.381.14.704.345.968.616s.466.605.605 1.001c.139.389.209.829.209 1.32v.209h-4.191zm7.177-.352c0 .183.033.356.099.517.066.154.154.29.264.407.117.117.253.209.407.275a1.352 1.352 0 001.012 0c.161-.066.297-.158.407-.275.117-.117.209-.253.275-.407.073-.154.11-.319.11-.495s-.037-.341-.11-.495a1.262 1.262 0 00-.275-.418 1.145 1.145 0 00-.407-.275 1.322 1.322 0 00-1.001 0c-.154.066-.29.158-.407.275a1.58 1.58 0 00-.275.407 1.166 1.166 0 00-.099.484zm2.508-6.292h2.002V23h-2.002v-.627c-.425.535-1.001.803-1.727.803a2.746 2.746 0 01-2.035-.869 2.995 2.995 0 01-.605-.957 3.324 3.324 0 01-.209-1.188c0-.403.066-.785.198-1.144.139-.367.334-.686.583-.957.249-.271.546-.484.891-.638a2.74 2.74 0 011.155-.242c.704 0 1.287.246 1.749.737V13.87zm5.348 3.487V23h-1.991v-5.643h1.991zm-2.123-2.167c0-.154.029-.297.088-.429a1.125 1.125 0 011.034-.693 1.132 1.132 0 01.792.33c.103.103.183.224.242.363a1.116 1.116 0 010 .869 1.132 1.132 0 01-1.474.594 1.164 1.164 0 01-.594-.594 1.116 1.116 0 01-.088-.44zm7.741 3.993c-.345-.235-.693-.352-1.045-.352-.191 0-.371.033-.539.099a1.28 1.28 0 00-.429.286c-.125.117-.224.26-.297.429a1.442 1.442 0 00-.099.55c0 .198.033.381.099.55.073.161.168.304.286.429.124.117.271.209.44.275.168.066.348.099.539.099.374 0 .722-.128 1.045-.385v1.694c-.492.213-.957.319-1.397.319-.411 0-.803-.07-1.177-.209a3.096 3.096 0 01-.979-.594 3.056 3.056 0 01-.671-.935 2.882 2.882 0 01-.253-1.221c0-.447.08-.854.242-1.221.161-.374.381-.693.66-.957.278-.271.608-.48.99-.627a3.34 3.34 0 011.243-.231c.484 0 .931.103 1.342.308v1.694zm2.983.979c0 .183.033.356.099.517.066.154.154.29.264.407.117.117.253.209.407.275a1.352 1.352 0 001.012 0c.161-.066.297-.158.407-.275.117-.117.209-.253.275-.407.073-.154.11-.319.11-.495s-.037-.341-.11-.495a1.262 1.262 0 00-.275-.418 1.145 1.145 0 00-.407-.275 1.352 1.352 0 00-1.012 0c-.154.066-.29.158-.407.275a1.39 1.39 0 00-.264.407 1.166 1.166 0 00-.099.484zm2.508-2.805h2.002V23h-2.002v-.627c-.425.535-1.001.803-1.727.803-.411 0-.788-.073-1.133-.22a2.803 2.803 0 01-.902-.638 2.995 2.995 0 01-.605-.957 3.356 3.356 0 01-.209-1.199c0-.403.07-.785.209-1.144.139-.367.334-.686.583-.957.249-.271.546-.484.891-.638a2.667 2.667 0 011.144-.242c.704 0 1.287.246 1.749.737v-.561zm3.357 0h1.991v.924a2.24 2.24 0 01.781-.77 2.067 2.067 0 011.078-.275h.165c.066 0 .139.007.22.022v1.903a1.892 1.892 0 00-.858-.198c-.462 0-.81.14-1.045.418-.227.271-.341.671-.341 1.199V23h-1.991v-5.643zm9.313 2.002a1.194 1.194 0 00-.407-.671 1.138 1.138 0 00-.748-.253c-.308 0-.561.08-.759.242-.19.161-.311.389-.363.682h2.277zm-2.332 1.155c0 .858.404 1.287 1.21 1.287.433 0 .759-.176.979-.528h1.925c-.388 1.29-1.36 1.936-2.915 1.936-.476 0-.913-.07-1.309-.209a3.051 3.051 0 01-1.023-.616 2.766 2.766 0 01-.649-.946 3.153 3.153 0 01-.231-1.232c0-.47.074-.891.22-1.265.147-.381.356-.704.627-.968.272-.264.598-.466.979-.605.389-.147.825-.22 1.309-.22.477 0 .906.073 1.287.22.382.14.704.345.968.616s.466.605.605 1.001c.14.389.209.829.209 1.32v.209h-4.191zm5.231 1.43c0-.176.033-.341.099-.495.066-.161.157-.3.275-.418.117-.117.253-.209.407-.275a1.322 1.322 0 011.001 0c.161.066.3.158.418.275.117.117.209.257.275.418a1.324 1.324 0 010 1.001 1.267 1.267 0 01-.693.682 1.322 1.322 0 01-1.001 0 1.284 1.284 0 01-.781-1.188z" fill="#fff"/></svg>