<svg width="130" height="27" viewBox="0 0 130 27" fill="none" xmlns="http://www.w3.org/2000/svg"><rect x=".5" y=".5" width="129" height="26" rx="2.5" fill="#DEEDFC" stroke="#09C0CB"/><path d="M14.982 16.174h.495c.374 0 .707-.059 1-.176a2.081 2.081 0 001.2-1.21c.11-.286.165-.598.165-.935 0-.33-.055-.638-.165-.924a2.088 2.088 0 00-.473-.737 2.081 2.081 0 00-.737-.484 2.647 2.647 0 00-.99-.176h-.495v4.642zm-2.156-6.468h3.19c.564 0 1.092.114 1.584.341.498.227.93.532 1.298.913.374.374.667.814.88 1.32a3.97 3.97 0 01.319 1.573c0 .543-.107 1.067-.32 1.573a4.092 4.092 0 01-.868 1.32c-.367.381-.8.686-1.298.913a3.752 3.752 0 01-1.595.341h-3.19V9.706zm13.586 1.826h-2.563v1.386h2.42v1.826h-2.42v1.43h2.563V18h-4.719V9.706h4.719v1.826zm4.92 0V18h-2.155v-6.468h-1.771V9.706h5.697v1.826h-1.77zm7.67 0h-2.564v1.386h2.42v1.826h-2.42v1.43h2.563V18h-4.718V9.706H39v1.826zm-.408-3.938l-2.111 1.452-.836-.781 1.793-1.716 1.154 1.045zM40.776 18V9.706h2.156l3.982 5.071V9.706h2.145V18h-2.145l-3.982-5.071V18h-2.156zm18.92-6.468h-2.563v1.386h2.42v1.826h-2.42v1.43h2.563V18h-4.72V9.706h4.72v1.826zm3.93-1.826v6.468h2.585V18h-4.74V9.706h2.155zm12.629 1.826h-2.596v1.386h2.365v1.826h-2.365V18h-2.156V9.706h4.752v1.826zm3.661 1.881h.407c.425 0 .752-.088.979-.264.227-.176.341-.429.341-.759s-.114-.583-.341-.759c-.227-.176-.554-.264-.979-.264h-.407v2.046zM84.657 18h-2.684l-2.057-3.19V18H77.76V9.706h3.355c.462 0 .865.07 1.21.209.345.132.627.315.847.55.227.235.396.506.506.814.117.308.176.638.176.99 0 .63-.154 1.144-.462 1.54-.3.389-.748.653-1.342.792L84.657 18zm5.632-3.08l-.968-2.761-.968 2.761h1.936zm.572 1.639h-3.08L87.286 18h-2.3l3.158-8.294h2.354L93.655 18h-2.3l-.494-1.441zm5.877-6.853v4.51c0 .242.007.491.022.748.022.25.077.477.165.682.095.205.242.374.44.506.198.125.477.187.836.187.36 0 .634-.062.825-.187.198-.132.345-.3.44-.506.095-.205.15-.433.165-.682.022-.257.033-.506.033-.748v-4.51h2.145v4.807c0 1.29-.297 2.233-.891 2.827-.587.594-1.493.891-2.717.891-1.225 0-2.134-.297-2.728-.891-.594-.594-.891-1.536-.891-2.827V9.706h2.156zm9.19 6.468h.495a2.68 2.68 0 001.001-.176 2.084 2.084 0 001.199-1.21c.11-.286.165-.598.165-.935 0-.33-.055-.638-.165-.924a2.092 2.092 0 00-.473-.737 2.084 2.084 0 00-.737-.484 2.652 2.652 0 00-.99-.176h-.495v4.642zm-2.156-6.468h3.19a3.73 3.73 0 011.584.341c.498.227.931.532 1.298.913.374.374.667.814.88 1.32a4.033 4.033 0 010 3.146 4.102 4.102 0 01-.869 1.32c-.367.381-.8.686-1.298.913a3.754 3.754 0 01-1.595.341h-3.19V9.706zm13.586 1.826h-2.563v1.386h2.42v1.826h-2.42v1.43h2.563V18h-4.719V9.706h4.719v1.826z" fill="#4A2B43"/></svg>