<svg width="269" height="154" viewBox="0 0 269 154" fill="none" xmlns="http://www.w3.org/2000/svg"><path d="M8.546 33.422c-4.75 0-7.942-3.458-7.942-7.79 0-3.876 2.774-6.954 6.574-7.524l.304-3.23h2.47l.342 5.13c-4.18.038-6.726 2.47-6.726 5.662 0 2.698 2.242 4.94 5.092 4.94 2.28 0 4.066-1.178 4.978-3.268l2.394 1.14c-1.178 3.078-3.876 4.94-7.486 4.94zm.152-21.356a2.027 2.027 0 01-2.014-2.014c0-1.14.912-2.014 2.014-2.014a1.98 1.98 0 012.014 2.014 2.027 2.027 0 01-2.014 2.014zM19.362 27V2.376h18.62v2.66h-15.58v7.486h14.592v2.622H22.402v9.196h16.15V27h-19.19zm37.82 5.358V23.77c-1.369 2.394-3.99 3.61-6.955 3.61-5.13 0-8.74-4.256-8.74-9.652 0-5.396 3.61-9.614 8.74-9.614 3.002 0 5.7 1.178 7.068 3.572V8.494h2.774v23.864h-2.888zm-6.309-7.79c3.534 0 6.308-2.964 6.308-6.84s-2.774-6.802-6.308-6.802c-3.686 0-6.422 2.888-6.422 6.802 0 3.952 2.736 6.84 6.422 6.84zm20.47 2.812c-4.56 0-6.726-2.394-6.726-7.334V8.494h2.888v11.172c0 3.458 1.672 4.902 4.674 4.902 3.344 0 5.282-2.736 5.282-5.586V8.494h2.888V27h-2.774v-3.268c-1.14 2.394-3.8 3.648-6.232 3.648zM85.22 27V8.494h2.888V27H85.22zm1.444-21.812c-1.064 0-1.9-.836-1.9-1.9s.836-1.938 1.9-1.938 1.938.874 1.938 1.938-.874 1.9-1.938 1.9zm6.312 27.17V8.494h2.774v3.192c1.368-2.394 4.066-3.572 7.068-3.572 5.13 0 8.74 4.218 8.74 9.614 0 5.396-3.61 9.652-8.74 9.652-2.926 0-5.586-1.216-6.954-3.61v8.588h-2.888zm9.196-7.79c3.686 0 6.422-2.888 6.422-6.84 0-3.914-2.736-6.802-6.422-6.802-3.534 0-6.308 2.926-6.308 6.802 0 3.876 2.774 6.84 6.308 6.84zm22.446 2.812c-5.434 0-9.728-4.256-9.728-9.614 0-5.396 4.294-9.652 9.728-9.652s9.728 4.256 9.728 9.652c0 5.358-4.294 9.614-9.728 9.614zm0-2.812c3.838 0 6.764-2.926 6.764-6.802 0-3.914-2.926-6.84-6.764-6.84s-6.764 2.926-6.764 6.84c0 3.876 2.926 6.802 6.764 6.802zM146.71 27V8.494h2.888v3.192c1.026-2.014 3.344-3.572 5.928-3.572 2.964 0 5.054 1.292 5.928 3.914 1.33-2.698 4.218-3.914 6.384-3.914 4.446 0 6.802 2.584 6.802 7.676V27h-2.926V16.17c0-3.154-1.102-5.244-4.484-5.244-3.116 0-5.092 2.508-5.092 5.282V27h-2.926V16.17c0-3.154-1.102-5.244-4.446-5.244-3.23 0-5.168 2.736-5.168 5.434V27h-2.888zm39.008-21.47l3.078-5.054h3.154l-3.572 5.054h-2.66zm2.356 21.85c-5.244 0-9.69-3.762-9.69-9.614 0-5.358 4.028-9.652 9.31-9.652 4.94 0 8.854 4.256 8.854 9.538 0 .532-.076 1.102-.076 1.14h-15.086c.456 3.686 3.306 6.004 6.726 6.004 2.09 0 4.18-.722 5.7-1.976l1.254 2.128a11.324 11.324 0 01-6.992 2.432zm-6.688-10.792h12.312c-.304-3.42-2.926-5.89-6.156-5.89-3.154 0-5.738 2.432-6.156 5.89zm27.261 10.792c-5.13 0-8.74-4.256-8.74-9.614 0-5.434 3.61-9.652 8.74-9.652 2.964 0 5.586 1.216 6.954 3.61V1.996h2.888V27h-2.774v-3.23c-1.368 2.432-4.066 3.61-7.068 3.61zm.646-2.812c3.534 0 6.308-2.926 6.308-6.802 0-3.876-2.774-6.84-6.308-6.84-3.686 0-6.422 2.888-6.422 6.84 0 3.914 2.736 6.802 6.422 6.802zM223.341 27V8.494h2.888V27h-2.888zm1.444-21.812c-1.064 0-1.9-.836-1.9-1.9s.836-1.938 1.9-1.938 1.938.874 1.938 1.938-.874 1.9-1.938 1.9zm15.28 22.192c-5.434 0-9.728-4.218-9.728-9.614 0-5.396 4.294-9.652 9.728-9.652 2.546 0 4.864.912 6.612 2.47l-1.824 2.052c-1.14-1.064-2.812-1.71-4.75-1.71-3.876 0-6.802 2.888-6.802 6.84 0 3.838 2.812 6.802 6.878 6.802 2.09 0 3.99-.798 5.282-2.09l1.672 2.166c-1.786 1.71-4.294 2.736-7.068 2.736zm19.074 0c-5.434 0-9.728-4.256-9.728-9.614 0-5.396 4.294-9.652 9.728-9.652s9.728 4.256 9.728 9.652c0 5.358-4.294 9.614-9.728 9.614zm0-2.812c3.838 0 6.764-2.926 6.764-6.802 0-3.914-2.926-6.84-6.764-6.84s-6.764 2.926-6.764 6.84c0 3.876 2.926 6.802 6.764 6.802zM17.236 56.118V44.376h5.168v11.742h-5.168zm-8.664 0V44.376h5.168v11.742H8.572zm29.786 18.468c-3.8 0-6.764-.874-8.512-2.052l2.47-4.332c1.52.988 3.724 1.254 5.282 1.254 2.508 0 3.8-1.14 4.256-2.394.152-.38.228-.76.228-1.14-1.064 1.406-3.154 1.938-4.712 1.938-5.396 0-8.512-4.18-8.512-9.31 0-5.168 3.116-9.348 8.512-9.348 1.558 0 4.028.57 5.092 2.546v-2.166h6.536v14.136c0 5.548-2.47 10.868-10.64 10.868zm.646-12.692c1.824 0 3.116-1.368 3.116-3.344 0-1.976-1.292-3.382-3.116-3.382s-3.116 1.406-3.116 3.382c0 1.976 1.292 3.344 3.116 3.344zM51.837 69V49.582h6.726v3.458c.114-.836 1.786-3.838 6.346-3.838v7.524c-5.016 0-6.156 2.09-6.156 5.738V69h-6.916zm23.306.38c-5.396 0-8.322-4.484-8.322-10.07 0-5.624 2.926-10.108 8.322-10.108 1.558 0 4.142.532 5.282 2.546v-2.166h6.536V69h-6.536v-2.166C79.36 68.81 76.7 69.38 75.143 69.38zm1.824-6.08c1.824 0 3.116-1.634 3.116-3.99 0-2.318-1.292-4.028-3.116-4.028s-3.116 1.71-3.116 4.028c0 2.356 1.292 3.99 3.116 3.99zm20.77 6.08c-3.723 0-6.155-2.394-6.155-6.65v-7.676h-2.85v-5.472h2.85v-3.496l6.916-1.71v5.206h4.294v5.472h-4.294v7.144c0 .912.456 1.216 1.064 1.216.57 0 1.254-.266 1.748-.608l1.862 5.054c-1.672 1.178-3.724 1.52-5.434 1.52zm7.241-.38V49.582h6.916V69h-6.916zm3.42-20.9c-2.128 0-3.914-1.786-3.914-3.914 0-2.166 1.786-3.952 3.914-3.952 2.204 0 3.99 1.786 3.99 3.952 0 2.128-1.786 3.914-3.99 3.914zm13.669 21.28c-4.446 0-6.916-1.33-8.056-2.318l2.204-4.864c1.52 1.026 2.926 1.634 5.89 1.634.076 0 1.9-.114 1.9-.874 0-.608-1.14-.722-2.28-.988-4.218-1.026-7.334-2.736-7.334-6.308 0-4.256 3.876-6.46 7.98-6.46 3.762 0 6.004.836 7.866 1.824l-2.052 4.636c-2.242-.874-4.294-1.14-5.586-1.14-.684 0-1.216.228-1.216.608 0 .722 1.634.988 3.572 1.52 2.736.798 6.042 2.128 6.042 6.042 0 5.206-5.282 6.688-8.93 6.688zm21.6-13.262V44.376h5.168v11.742h-5.168zm-8.664 0V44.376h5.168v11.742h-5.168zm29.854 18.24V50.494h2.774v3.192c1.368-2.394 4.066-3.572 7.068-3.572 5.13 0 8.74 4.218 8.74 9.614 0 5.396-3.61 9.652-8.74 9.652-2.926 0-5.586-1.216-6.954-3.61v8.588h-2.888zm9.196-7.79c3.686 0 6.422-2.888 6.422-6.84 0-3.914-2.736-6.802-6.422-6.802-3.534 0-6.308 2.926-6.308 6.802 0 3.876 2.774 6.84 6.308 6.84zm22.446 2.812c-5.434 0-9.728-4.256-9.728-9.614 0-5.396 4.294-9.652 9.728-9.652s9.728 4.256 9.728 9.652c0 5.358-4.294 9.614-9.728 9.614zm0-2.812c3.838 0 6.764-2.926 6.764-6.802 0-3.914-2.926-6.84-6.764-6.84s-6.764 2.926-6.764 6.84c0 3.876 2.926 6.802 6.764 6.802zM210.316 69V50.494h2.888v3.914c1.064-2.432 3.458-4.294 7.144-4.294v3.154c-4.332 0-7.144 2.432-7.144 6.954V69h-2.888zm27.829.38c-3.268 0-5.206-1.596-5.206-5.928V52.888h-2.774v-2.394h2.774v-3.99l2.888-.532v4.522h6.308v2.394h-6.308v10.64c0 2.546 1.102 3.268 2.584 3.268 1.71 0 3.04-1.026 3.04-1.026l.95 2.242c-.722.494-2.242 1.368-4.256 1.368zm14.106 0c-4.56 0-6.726-2.394-6.726-7.334V50.494h2.888v11.172c0 3.458 1.672 4.902 4.674 4.902 3.344 0 5.282-2.736 5.282-5.586V50.494h2.888V69h-2.774v-3.268c-1.14 2.394-3.8 3.648-6.232 3.648zM45.401 111V92.494h2.889v3.154c1.292-2.242 3.686-3.534 6.422-3.534 4.636 0 6.688 2.812 6.688 7.676V111h-2.888v-10.83c0-3.42-1.254-5.244-4.598-5.244-3.306 0-5.624 2.584-5.624 5.662V111h-2.888zm25.955-21.47l3.078-5.054h3.154l-3.572 5.054h-2.66zm1.026 21.85c-4.56 0-6.726-2.394-6.726-7.334V92.494h2.888v11.172c0 3.458 1.672 4.902 4.674 4.902 3.344 0 5.282-2.736 5.282-5.586V92.494h2.888V111h-2.774v-3.268c-1.14 2.394-3.8 3.648-6.232 3.648zM86.26 111V92.494h2.888v3.192c1.026-2.014 3.344-3.572 5.928-3.572 2.964 0 5.054 1.292 5.928 3.914 1.33-2.698 4.218-3.914 6.384-3.914 4.446 0 6.802 2.584 6.802 7.676V111h-2.926v-10.83c0-3.154-1.102-5.244-4.484-5.244-3.116 0-5.092 2.508-5.092 5.282V111h-2.926v-10.83c0-3.154-1.102-5.244-4.446-5.244-3.23 0-5.168 2.736-5.168 5.434V111H86.26zm41.364.38c-5.244 0-9.69-3.762-9.69-9.614 0-5.358 4.028-9.652 9.31-9.652 4.94 0 8.854 4.256 8.854 9.538 0 .532-.076 1.102-.076 1.14h-15.086c.456 3.686 3.306 6.004 6.726 6.004 2.09 0 4.18-.722 5.7-1.976l1.254 2.128a11.324 11.324 0 01-6.992 2.432zm-6.688-10.792h12.312c-.304-3.42-2.926-5.89-6.156-5.89-3.154 0-5.738 2.432-6.156 5.89zM140.216 111V92.494h2.888v3.914c1.064-2.432 3.458-4.294 7.144-4.294v3.154c-4.332 0-7.144 2.432-7.144 6.954V111h-2.888zm21.956.38c-5.434 0-9.728-4.256-9.728-9.614 0-5.396 4.294-9.652 9.728-9.652s9.728 4.256 9.728 9.652c0 5.358-4.294 9.614-9.728 9.614zm0-2.812c3.838 0 6.764-2.926 6.764-6.802 0-3.914-2.926-6.84-6.764-6.84s-6.764 2.926-6.764 6.84c0 3.876 2.926 6.802 6.764 6.802zm30.073 2.812c-5.13 0-8.74-4.256-8.74-9.614 0-5.434 3.61-9.652 8.74-9.652 2.964 0 5.586 1.216 6.954 3.61v-9.728h2.888V111h-2.774v-3.23c-1.368 2.432-4.066 3.61-7.068 3.61zm.646-2.812c3.534 0 6.308-2.926 6.308-6.802 0-3.876-2.774-6.84-6.308-6.84-3.686 0-6.422 2.888-6.422 6.84 0 3.914 2.736 6.802 6.422 6.802zm22.978 2.812c-5.244 0-9.69-3.762-9.69-9.614 0-5.358 4.028-9.652 9.31-9.652 4.94 0 8.854 4.256 8.854 9.538 0 .532-.076 1.102-.076 1.14h-15.086c.456 3.686 3.306 6.004 6.726 6.004 2.09 0 4.18-.722 5.7-1.976l1.254 2.128a11.324 11.324 0 01-6.992 2.432zm-6.688-10.792h12.312c-.304-3.42-2.926-5.89-6.156-5.89-3.154 0-5.738 2.432-6.156 5.89zM45.431 153v-24.624h6.156l4.826 6.916c.798 1.178 2.09 3.192 2.09 3.192s1.292-2.014 2.09-3.192l4.826-6.916h6.156V153h-7.22v-12.464s-1.254 2.014-1.938 2.964l-3.914 5.472-3.952-5.472c-.684-.95-1.9-2.888-1.9-2.888V153h-7.22zm40.274.38c-5.89 0-10.906-3.686-10.906-10.07 0-5.624 4.37-10.108 10.108-10.108 5.51 0 9.728 4.484 9.728 10.108 0 1.178-.152 2.242-.152 2.242H81.601c.57 1.824 2.28 2.508 4.142 2.508 1.634 0 3.382-.494 4.598-1.178l2.318 4.674c-2.166 1.33-4.56 1.824-6.954 1.824zm-4.294-11.742h6.916c-.228-1.786-1.634-3.002-3.42-3.002-1.71 0-3.078 1.216-3.496 3.002zm23.827 11.742c-5.396 0-8.322-4.484-8.322-10.07 0-5.624 3.116-10.108 8.55-10.108 1.558 0 3.496.532 4.674 2.014v-7.22h6.916V153h-6.536v-2.166c-1.026 1.976-3.724 2.546-5.282 2.546zm1.824-6.08c1.824 0 3.116-1.634 3.116-3.99 0-2.318-1.292-4.028-3.116-4.028s-3.116 1.71-3.116 4.028c0 2.356 1.292 3.99 3.116 3.99zm13.02 5.7v-19.418h6.916V153h-6.916zm3.42-20.9c-2.128 0-3.914-1.786-3.914-3.914 0-2.166 1.786-3.952 3.914-3.952 2.204 0 3.99 1.786 3.99 3.952 0 2.128-1.786 3.914-3.99 3.914zm16.633 21.28c-5.966 0-10.488-4.484-10.488-10.07 0-5.624 4.522-10.108 10.488-10.108 2.66 0 4.826.798 6.878 2.432l-3.99 4.788c-.722-.684-1.52-1.14-2.698-1.14-2.242 0-3.686 1.71-3.686 4.028 0 2.356 1.406 3.99 3.838 3.99 1.33 0 2.432-.57 3.268-1.406l3.458 5.092c-1.862 1.558-4.332 2.394-7.068 2.394zm16.314 0c-5.396 0-8.322-4.484-8.322-10.07 0-5.624 2.926-10.108 8.322-10.108 1.558 0 4.142.532 5.282 2.546v-2.166h6.536V153h-6.536v-2.166c-1.064 1.976-3.724 2.546-5.282 2.546zm1.824-6.08c1.824 0 3.116-1.634 3.116-3.99 0-2.318-1.292-4.028-3.116-4.028s-3.116 1.71-3.116 4.028c0 2.356 1.292 3.99 3.116 3.99zm13.019 5.7v-19.418h6.726v3.458c.114-.836 1.786-3.838 6.346-3.838v7.524c-5.016 0-6.156 2.09-6.156 5.738V153h-6.916zm25.89.38c-5.89 0-10.906-3.686-10.906-10.07 0-5.624 4.37-10.108 10.108-10.108 5.51 0 9.728 4.484 9.728 10.108 0 1.178-.152 2.242-.152 2.242h-12.882c.57 1.824 2.28 2.508 4.142 2.508 1.634 0 3.382-.494 4.598-1.178l2.318 4.674c-2.166 1.33-4.56 1.824-6.954 1.824zm-4.294-11.742h6.916c-.228-1.786-1.634-3.002-3.42-3.002-1.71 0-3.078 1.216-3.496 3.002zm22.687-13.642c4.75 0 7.942 3.458 7.942 7.79 0 3.876-2.774 6.954-6.574 7.524l-.304 3.23h-2.47l-.342-5.13c4.18-.038 6.726-2.47 6.726-5.662 0-2.698-2.242-4.94-5.092-4.94-2.28 0-4.066 1.178-4.978 3.268l-2.394-1.14c1.178-3.078 3.876-4.94 7.486-4.94zm-.152 21.356c1.102 0 2.014.912 2.014 2.014 0 1.14-.912 2.014-2.014 2.014a1.98 1.98 0 01-2.014-2.014c0-1.102.912-2.014 2.014-2.014z" fill="#42443C"/></svg>