<svg width="248" height="181" viewBox="0 0 248 181" fill="none" xmlns="http://www.w3.org/2000/svg"><path d="M59.265 30V.192h7.59l9.476 13.202c.69.92 1.334 2.254 1.334 2.254V.192h8.74V30h-7.59L69.34 17.028c-.69-.92-1.334-2.254-1.334-2.254V30h-8.74zm39.845.46c-7.084 0-8.556-4.416-8.556-10.396V6.494h8.372v12.512c0 2.484.828 3.634 3.036 3.634 2.53 0 3.45-2.162 3.45-5.06V6.494h8.372V30h-7.912v-2.576c-1.288 1.656-4.324 3.036-6.762 3.036zm18.358-.46V6.494h7.912v2.714c2.162-2.53 4.738-3.174 7.084-3.174 5.934 0 8.234 3.496 8.234 10.396V30h-8.372V17.488c0-2.668-1.012-3.634-2.622-3.634-2.576 0-3.864 2.162-3.864 5.06V30h-8.372zm38.92.46c-7.222 0-12.696-5.428-12.696-12.19 0-6.808 5.474-12.236 12.696-12.236 3.22 0 5.842.966 8.326 2.944l-4.83 5.796c-.874-.828-1.84-1.38-3.266-1.38-2.714 0-4.462 2.07-4.462 4.876 0 2.852 1.702 4.83 4.646 4.83 1.61 0 2.944-.69 3.956-1.702l4.186 6.164c-2.254 1.886-5.244 2.898-8.556 2.898zm19.749 0c-6.532 0-10.074-5.428-10.074-12.19 0-6.808 3.542-12.236 10.074-12.236 1.886 0 5.014.644 6.394 3.082V6.494h7.912V30h-7.912v-2.622c-1.288 2.392-4.508 3.082-6.394 3.082zm2.208-7.36c2.208 0 3.772-1.978 3.772-4.83 0-2.806-1.564-4.876-3.772-4.876-2.208 0-3.772 2.07-3.772 4.876 0 2.852 1.564 4.83 3.772 4.83zM21.487 82.46c-7.222 0-12.696-5.428-12.696-12.19 0-6.808 5.474-12.236 12.696-12.236 3.22 0 5.842.966 8.326 2.944l-4.83 5.796c-.874-.828-1.84-1.38-3.266-1.38-2.714 0-4.462 2.07-4.462 4.876 0 2.852 1.702 4.83 4.646 4.83 1.61 0 2.944-.69 3.956-1.702l4.186 6.164c-2.254 1.886-5.244 2.898-8.556 2.898zm22.371 0c-7.222 0-12.696-5.428-12.696-12.19 0-6.808 5.474-12.236 12.696-12.236 7.222 0 12.696 5.428 12.696 12.236 0 6.762-5.474 12.19-12.696 12.19zm0-7.36c2.484 0 4.232-1.978 4.232-4.83 0-2.806-1.748-4.876-4.232-4.876s-4.232 2.07-4.232 4.876c0 2.852 1.748 4.83 4.232 4.83zm15.93 6.9V58.494H67.7v2.576c1.748-1.978 4.462-3.036 7.084-3.036 3.772 0 5.796 1.518 6.9 3.634 2.024-2.944 5.152-3.634 7.498-3.634 7.59 0 8.234 6.118 8.234 10.856V82h-8.372V69.856c0-2.806-.782-4.094-2.622-4.094-2.484 0-3.634 2.254-3.634 5.152V82h-8.372V69.856c0-2.806-.782-4.094-2.622-4.094-2.484 0-3.634 2.254-3.634 5.152V82h-8.372zm41.059 6.762V58.494h7.912v2.622c1.886-2.53 4.508-3.082 6.394-3.082 6.532 0 10.074 5.428 10.074 12.19 0 6.808-3.772 12.236-10.35 12.236-1.886 0-4.232-.644-5.658-2.438v8.74h-8.372zM112.899 75.1c2.208 0 3.772-1.978 3.772-4.83 0-2.806-1.564-4.876-3.772-4.876-2.208 0-3.772 2.07-3.772 4.876 0 2.852 1.564 4.83 3.772 4.83zm25.144 7.36c-6.532 0-10.074-5.428-10.074-12.19 0-6.808 3.542-12.236 10.074-12.236 1.886 0 5.014.644 6.394 3.082v-2.622h7.912V82h-7.912v-2.622c-1.288 2.392-4.508 3.082-6.394 3.082zm2.208-7.36c2.208 0 3.772-1.978 3.772-4.83 0-2.806-1.564-4.876-3.772-4.876-2.208 0-3.772 2.07-3.772 4.876 0 2.852 1.564 4.83 3.772 4.83zm15.76 6.9V58.494h8.142v4.186c.138-1.012 2.162-4.646 7.682-4.646v9.108c-6.072 0-7.452 2.53-7.452 6.946V82h-8.372zm28.88.46c-4.508 0-7.452-2.898-7.452-8.05v-9.292h-3.45v-6.624h3.45v-4.232l8.372-2.07v6.302h5.198v6.624h-5.198v8.648c0 1.104.552 1.472 1.288 1.472.69 0 1.518-.322 2.116-.736l2.254 6.118c-2.024 1.426-4.508 1.84-6.578 1.84zm18.378 0c-6.532 0-10.074-5.428-10.074-12.19 0-6.808 3.542-12.236 10.074-12.236 1.886 0 5.014.644 6.394 3.082v-2.622h7.912V82h-7.912v-2.622c-1.288 2.392-4.508 3.082-6.394 3.082zm2.208-7.36c2.208 0 3.772-1.978 3.772-4.83 0-2.806-1.564-4.876-3.772-4.876-2.208 0-3.772 2.07-3.772 4.876 0 2.852 1.564 4.83 3.772 4.83zm24.408 7.36c-5.382 0-8.372-1.61-9.752-2.806l2.668-5.888c1.84 1.242 3.542 1.978 7.13 1.978.092 0 2.3-.138 2.3-1.058 0-.736-1.38-.874-2.76-1.196-5.106-1.242-8.878-3.312-8.878-7.636 0-5.152 4.692-7.82 9.66-7.82 4.554 0 7.268 1.012 9.522 2.208l-2.484 5.612c-2.714-1.058-5.198-1.38-6.762-1.38-.828 0-1.472.276-1.472.736 0 .874 1.978 1.196 4.324 1.84 3.312.966 7.314 2.576 7.314 7.314 0 6.302-6.394 8.096-10.81 8.096zM9.408 131.42c-3.612 0-5.754-1.764-5.754-6.552v-11.676H.588v-2.646h3.066v-4.41l3.192-.588v4.998h6.972v2.646H6.846v11.76c0 2.814 1.218 3.612 2.856 3.612 1.89 0 3.36-1.134 3.36-1.134l1.05 2.478c-.798.546-2.478 1.512-4.704 1.512zm15.592 0c-5.04 0-7.434-2.646-7.434-8.106v-12.768h3.192v12.348c0 3.822 1.848 5.418 5.166 5.418 3.696 0 5.838-3.024 5.838-6.174v-11.592h3.192V131h-3.066v-3.612c-1.26 2.646-4.2 4.032-6.888 4.032zm24.484-.42v-20.454h3.192v3.486c1.428-2.478 4.074-3.906 7.098-3.906 5.124 0 7.392 3.108 7.392 8.484V131h-3.192v-11.97c0-3.78-1.386-5.796-5.082-5.796-3.654 0-6.216 2.856-6.216 6.258V131h-3.192zm28.687-23.73l3.402-5.586h3.486l-3.948 5.586h-2.94zm1.134 24.15c-5.04 0-7.434-2.646-7.434-8.106v-12.768h3.192v12.348c0 3.822 1.848 5.418 5.166 5.418 3.696 0 5.838-3.024 5.838-6.174v-11.592h3.192V131h-3.066v-3.612c-1.26 2.646-4.2 4.032-6.888 4.032zm15.337-.42v-20.454h3.192v3.528c1.134-2.226 3.696-3.948 6.552-3.948 3.276 0 5.586 1.428 6.552 4.326 1.47-2.982 4.662-4.326 7.056-4.326 4.914 0 7.518 2.856 7.518 8.484V131h-3.234v-11.97c0-3.486-1.218-5.796-4.956-5.796-3.444 0-5.628 2.772-5.628 5.838V131h-3.234v-11.97c0-3.486-1.218-5.796-4.914-5.796-3.57 0-5.712 3.024-5.712 6.006V131h-3.192zm45.718.42c-5.796 0-10.71-4.158-10.71-10.626 0-5.922 4.452-10.668 10.29-10.668 5.46 0 9.786 4.704 9.786 10.542 0 .588-.084 1.218-.084 1.26h-16.674c.504 4.074 3.654 6.636 7.434 6.636 2.31 0 4.62-.798 6.3-2.184l1.386 2.352a12.516 12.516 0 01-7.728 2.688zm-7.392-11.928h13.608c-.336-3.78-3.234-6.51-6.804-6.51-3.486 0-6.342 2.688-6.804 6.51zM154.279 131v-20.454h3.192v4.326c1.176-2.688 3.822-4.746 7.896-4.746v3.486c-4.788 0-7.896 2.688-7.896 7.686V131h-3.192zm24.267.42c-6.006 0-10.752-4.704-10.752-10.626 0-5.964 4.746-10.668 10.752-10.668s10.752 4.704 10.752 10.668c0 5.922-4.746 10.626-10.752 10.626zm0-3.108c4.242 0 7.476-3.234 7.476-7.518 0-4.326-3.234-7.56-7.476-7.56s-7.476 3.234-7.476 7.56c0 4.284 3.234 7.518 7.476 7.518zm33.238 3.108c-5.67 0-9.66-4.704-9.66-10.626 0-6.006 3.99-10.668 9.66-10.668 3.276 0 6.174 1.344 7.686 3.99v-10.752h3.192V131h-3.066v-3.57c-1.512 2.688-4.494 3.99-7.812 3.99zm.714-3.108c3.906 0 6.972-3.234 6.972-7.518s-3.066-7.56-6.972-7.56c-4.074 0-7.098 3.192-7.098 7.56 0 4.326 3.024 7.518 7.098 7.518zm25.397 3.108c-5.796 0-10.71-4.158-10.71-10.626 0-5.922 4.452-10.668 10.29-10.668 5.46 0 9.786 4.704 9.786 10.542 0 .588-.084 1.218-.084 1.26h-16.674c.504 4.074 3.654 6.636 7.434 6.636 2.31 0 4.62-.798 6.3-2.184l1.386 2.352a12.516 12.516 0 01-7.728 2.688zm-7.392-11.928h13.608c-.336-3.78-3.234-6.51-6.804-6.51-3.486 0-6.342 2.688-6.804 6.51zM35.366 180v-27.216h2.982l6.636 9.24c1.428 2.016 4.41 6.3 4.41 6.3s2.982-4.242 4.41-6.258l6.636-9.282h2.982V180h-3.36v-21.546s-.714 1.302-2.016 3.108l-8.652 12.18-8.694-12.264c-1.218-1.722-1.974-3.024-1.974-3.024V180h-3.36zm43.778.42c-5.796 0-10.71-4.158-10.71-10.626 0-5.922 4.452-10.668 10.29-10.668 5.46 0 9.786 4.704 9.786 10.542 0 .588-.084 1.218-.084 1.26H71.752c.504 4.074 3.654 6.636 7.434 6.636 2.31 0 4.62-.798 6.3-2.184l1.386 2.352a12.516 12.516 0 01-7.728 2.688zm-7.392-11.928H85.36c-.336-3.78-3.234-6.51-6.804-6.51-3.486 0-6.342 2.688-6.804 6.51zm30.131 11.928c-5.67 0-9.66-4.704-9.66-10.626 0-6.006 3.99-10.668 9.66-10.668 3.276 0 6.174 1.344 7.686 3.99v-10.752h3.192V180h-3.066v-3.57c-1.512 2.688-4.494 3.99-7.812 3.99zm.714-3.108c3.906 0 6.972-3.234 6.972-7.518s-3.066-7.56-6.972-7.56c-4.074 0-7.098 3.192-7.098 7.56 0 4.326 3.024 7.518 7.098 7.518zM118.124 180v-20.454h3.192V180h-3.192zm1.596-24.108a2.08 2.08 0 01-2.1-2.1c0-1.176.924-2.142 2.1-2.142 1.176 0 2.142.966 2.142 2.142s-.966 2.1-2.142 2.1zm16.888 24.528c-6.006 0-10.752-4.662-10.752-10.626 0-5.964 4.746-10.668 10.752-10.668 2.814 0 5.376 1.008 7.308 2.73l-2.016 2.268c-1.26-1.176-3.108-1.89-5.25-1.89-4.284 0-7.518 3.192-7.518 7.56 0 4.242 3.108 7.518 7.602 7.518 2.31 0 4.41-.882 5.838-2.31l1.848 2.394c-1.974 1.89-4.746 3.024-7.812 3.024zm19.99 0c-5.67 0-9.66-4.704-9.66-10.626 0-6.006 3.99-10.668 9.66-10.668 3.276 0 6.174 1.344 7.686 3.99v-3.57h3.192V180h-3.192v-3.57c-1.512 2.688-4.41 3.99-7.686 3.99zm.714-3.108c3.906 0 6.972-3.234 6.972-7.518s-3.066-7.56-6.972-7.56c-4.074 0-7.098 3.192-7.098 7.56 0 4.326 3.024 7.518 7.098 7.518zM172.838 180v-20.454h3.192v4.326c1.176-2.688 3.822-4.746 7.896-4.746v3.486c-4.788 0-7.896 2.688-7.896 7.686V180h-3.192zm24.226.42c-5.796 0-10.71-4.158-10.71-10.626 0-5.922 4.452-10.668 10.29-10.668 5.46 0 9.786 4.704 9.786 10.542 0 .588-.084 1.218-.084 1.26h-16.674c.504 4.074 3.654 6.636 7.434 6.636 2.31 0 4.62-.798 6.3-2.184l1.386 2.352a12.516 12.516 0 01-7.728 2.688zm-7.392-11.928h13.608c-.336-3.78-3.234-6.51-6.804-6.51-3.486 0-6.342 2.688-6.804 6.51zm22.865 11.928c-1.26 0-2.184-1.008-2.184-2.226s.966-2.226 2.184-2.226a2.24 2.24 0 012.226 2.226 2.24 2.24 0 01-2.226 2.226z" fill="#42443C"/></svg>