<svg width="282" height="33" viewBox="0 0 282 33" fill="none" xmlns="http://www.w3.org/2000/svg"><path d="M.145 25V1.735h4.488l11.781 14.619h-.957V1.735H21.1V25h-4.488L4.897 10.381h.957V25H.145zm33.615.363c-1.87 0-3.487-.352-4.85-1.056-1.365-.704-2.42-1.705-3.169-3.003-.748-1.32-1.122-2.882-1.122-4.686 0-1.826.374-3.388 1.122-4.686.748-1.298 1.804-2.299 3.168-3.003 1.364-.704 2.981-1.056 4.851-1.056 1.848 0 3.454.352 4.818 1.056a7.532 7.532 0 013.168 3.036c.748 1.298 1.122 2.849 1.122 4.653 0 1.782-.374 3.333-1.122 4.653a7.532 7.532 0 01-3.168 3.036c-1.364.704-2.97 1.056-4.818 1.056zm0-4.356c.968 0 1.738-.341 2.31-1.023.572-.704.858-1.826.858-3.366s-.286-2.651-.858-3.333c-.572-.704-1.342-1.056-2.31-1.056-.99 0-1.77.352-2.343 1.056-.572.682-.858 1.793-.858 3.333 0 1.54.286 2.662.858 3.366.572.682 1.353 1.023 2.343 1.023zM55.945 25V.712h5.874V25h-5.874zm18.218.363c-1.87 0-3.486-.352-4.85-1.056-1.365-.704-2.42-1.705-3.169-3.003-.748-1.32-1.122-2.882-1.122-4.686 0-1.826.374-3.388 1.122-4.686.748-1.298 1.804-2.299 3.168-3.003 1.365-.704 2.981-1.056 4.852-1.056 1.847 0 3.454.352 4.817 1.056a7.532 7.532 0 013.169 3.036c.747 1.298 1.121 2.849 1.121 4.653 0 1.782-.374 3.333-1.121 4.653a7.532 7.532 0 01-3.169 3.036c-1.363.704-2.97 1.056-4.817 1.056zm0-4.356c.969 0 1.739-.341 2.31-1.023.573-.704.859-1.826.859-3.366s-.286-2.651-.858-3.333c-.573-.704-1.343-1.056-2.31-1.056-.99 0-1.772.352-2.344 1.056-.571.682-.857 1.793-.857 3.333 0 1.54.286 2.662.858 3.366.572.682 1.353 1.023 2.343 1.023zm30.666 4.356c-1.848 0-3.465-.352-4.851-1.056-1.386-.704-2.464-1.705-3.234-3.003-.77-1.32-1.155-2.893-1.155-4.719 0-1.826.385-3.388 1.155-4.686s1.848-2.288 3.234-2.97c1.386-.704 3.003-1.056 4.851-1.056 1.144 0 2.266.154 3.366.462 1.1.308 1.991.748 2.673 1.32l-1.65 3.993a5.388 5.388 0 00-1.815-.99 5.631 5.631 0 00-1.947-.363c-1.21 0-2.156.363-2.838 1.089-.66.726-.99 1.793-.99 3.201 0 1.408.33 2.486.99 3.234.682.726 1.628 1.089 2.838 1.089.616 0 1.265-.11 1.947-.33a6.283 6.283 0 001.815-.99l1.65 3.993c-.704.55-1.606.99-2.706 1.32a12.073 12.073 0 01-3.333.462zm16.86 0c-1.87 0-3.487-.352-4.851-1.056-1.364-.704-2.42-1.705-3.168-3.003-.748-1.32-1.122-2.882-1.122-4.686 0-1.826.374-3.388 1.122-4.686.748-1.298 1.804-2.299 3.168-3.003 1.364-.704 2.981-1.056 4.851-1.056 1.848 0 3.454.352 4.818 1.056a7.532 7.532 0 013.168 3.036c.748 1.298 1.122 2.849 1.122 4.653 0 1.782-.374 3.333-1.122 4.653a7.532 7.532 0 01-3.168 3.036c-1.364.704-2.97 1.056-4.818 1.056zm0-4.356c.968 0 1.738-.341 2.31-1.023.572-.704.858-1.826.858-3.366s-.286-2.651-.858-3.333c-.572-.704-1.342-1.056-2.31-1.056-.99 0-1.771.352-2.343 1.056-.572.682-.858 1.793-.858 3.333 0 1.54.286 2.662.858 3.366.572.682 1.353 1.023 2.343 1.023zM134.004 25V12.79a39.912 39.912 0 00-.264-4.554h5.676l.33 2.904h-.363a5.475 5.475 0 012.145-2.376c.946-.594 2.057-.891 3.333-.891 1.232 0 2.277.297 3.135.891.88.572 1.518 1.485 1.914 2.739h-.561c.55-1.144 1.342-2.035 2.376-2.673 1.056-.638 2.233-.957 3.531-.957 1.914 0 3.344.583 4.29 1.749.946 1.144 1.419 2.937 1.419 5.379V25h-5.907v-9.801c0-1.034-.154-1.76-.462-2.178-.308-.44-.803-.66-1.485-.66-.858 0-1.529.308-2.013.924-.462.616-.693 1.463-.693 2.541V25h-5.874v-9.801c0-1.034-.165-1.76-.495-2.178-.308-.44-.792-.66-1.452-.66-.858 0-1.529.308-2.013.924-.462.616-.693 1.463-.693 2.541V25h-5.874zm30.816 7.128V12.79a39.912 39.912 0 00-.264-4.554h5.676l.363 2.97h-.33c.308-.99.99-1.793 2.046-2.409 1.056-.616 2.233-.924 3.531-.924 1.452 0 2.728.352 3.828 1.056 1.1.682 1.958 1.683 2.574 3.003.638 1.298.957 2.86.957 4.686 0 1.804-.319 3.366-.957 4.686-.616 1.32-1.474 2.332-2.574 3.036-1.1.682-2.376 1.023-3.828 1.023-1.276 0-2.431-.286-3.465-.858-1.034-.594-1.716-1.375-2.046-2.343h.363v9.966h-5.874zm9.141-11.121c1.012 0 1.815-.341 2.409-1.023.616-.704.924-1.826.924-3.366s-.308-2.651-.924-3.333c-.594-.704-1.397-1.056-2.409-1.056-.99 0-1.793.352-2.409 1.056-.616.682-.924 1.793-.924 3.333 0 1.54.308 2.662.924 3.366.616.682 1.419 1.023 2.409 1.023zm19.026 4.356c-1.452 0-2.728-.341-3.828-1.023-1.1-.704-1.969-1.716-2.607-3.036-.616-1.32-.924-2.882-.924-4.686 0-1.826.308-3.388.924-4.686.638-1.32 1.507-2.321 2.607-3.003 1.1-.704 2.376-1.056 3.828-1.056 1.298 0 2.464.308 3.498.924 1.056.616 1.749 1.419 2.079 2.409h-.33l.363-2.97h5.643l-.198 2.277c-.044.77-.066 1.529-.066 2.277V25h-5.808l-.066-2.838h.396c-.33.968-1.023 1.749-2.079 2.343-1.034.572-2.178.858-3.432.858zm1.881-4.356c.99 0 1.793-.341 2.409-1.023.616-.704.924-1.826.924-3.366s-.308-2.651-.924-3.333c-.616-.704-1.419-1.056-2.409-1.056-.99 0-1.793.352-2.409 1.056-.616.682-.924 1.793-.924 3.333 0 1.54.297 2.662.891 3.366.616.682 1.43 1.023 2.442 1.023zM207.955 25V12.823c0-.77-.022-1.54-.066-2.31-.044-.77-.11-1.529-.198-2.277h5.676l.627 5.148h-.891c.22-1.254.572-2.288 1.056-3.102.484-.814 1.089-1.419 1.815-1.815.726-.396 1.584-.594 2.574-.594.462 0 .803.022 1.023.066.242.022.495.088.759.198v5.148c-.55-.242-.99-.396-1.32-.462-.33-.066-.759-.099-1.287-.099-.902 0-1.639.165-2.211.495-.572.308-.99.792-1.254 1.452-.242.66-.363 1.507-.363 2.541V25h-5.94zm24.024.363c-2.376 0-4.169-.561-5.379-1.683-1.188-1.144-1.782-2.871-1.782-5.181v-5.94h-3.135V8.236h3.135v-3.96l5.874-1.386v5.346h4.092v4.323h-4.092v5.709c0 .968.22 1.617.66 1.947.44.308.968.462 1.584.462.374 0 .693-.022.957-.066a8.01 8.01 0 00.891-.264v4.521c-.484.198-.968.33-1.452.396a9.563 9.563 0 01-1.353.099zm12.014 0c-1.452 0-2.728-.341-3.828-1.023-1.1-.704-1.969-1.716-2.607-3.036-.616-1.32-.924-2.882-.924-4.686 0-1.826.308-3.388.924-4.686.638-1.32 1.507-2.321 2.607-3.003 1.1-.704 2.376-1.056 3.828-1.056 1.298 0 2.464.308 3.498.924 1.056.616 1.749 1.419 2.079 2.409h-.33l.363-2.97h5.643l-.198 2.277c-.044.77-.066 1.529-.066 2.277V25h-5.808l-.066-2.838h.396c-.33.968-1.023 1.749-2.079 2.343-1.034.572-2.178.858-3.432.858zm1.881-4.356c.99 0 1.793-.341 2.409-1.023.616-.704.924-1.826.924-3.366s-.308-2.651-.924-3.333c-.616-.704-1.419-1.056-2.409-1.056-.99 0-1.793.352-2.409 1.056-.616.682-.924 1.793-.924 3.333 0 1.54.297 2.662.891 3.366.616.682 1.43 1.023 2.442 1.023zm19.521 4.356c-1.562 0-2.981-.154-4.257-.462-1.254-.33-2.321-.77-3.201-1.32l1.419-3.828c.858.484 1.815.88 2.871 1.188a11.61 11.61 0 003.201.462c.836 0 1.441-.121 1.815-.363.396-.264.594-.605.594-1.023a.971.971 0 00-.363-.792c-.242-.198-.605-.341-1.089-.429l-3.564-.627c-1.408-.264-2.508-.781-3.3-1.551-.77-.792-1.155-1.815-1.155-3.069 0-1.144.308-2.134.924-2.97.616-.858 1.496-1.518 2.64-1.98 1.144-.484 2.497-.726 4.059-.726 1.276 0 2.486.143 3.63.429 1.166.286 2.178.737 3.036 1.353l-1.518 3.729c-.682-.462-1.485-.836-2.409-1.122-.902-.308-1.749-.462-2.541-.462-.946 0-1.617.143-2.013.429-.396.264-.594.594-.594.99 0 .308.11.572.33.792.22.198.572.341 1.056.429l3.564.627c1.452.242 2.563.748 3.333 1.518.792.748 1.188 1.771 1.188 3.069 0 1.21-.33 2.244-.99 3.102-.638.836-1.529 1.485-2.673 1.947-1.144.44-2.475.66-3.993.66zM275.427 25v-6.006h6.105V25h-6.105z" fill="#fff"/></svg>