<svg width="334" height="30" viewBox="0 0 334 30" fill="none" xmlns="http://www.w3.org/2000/svg"><path d="M16.808 16.378H3.888c.188 1.182.685 2.124 1.494 2.82.81.699 1.844 1.047 3.102 1.047 1.503 0 2.795-.546 3.876-1.635l3.387 1.65c-.844 1.245-1.855 2.163-3.035 2.76-1.179.597-2.578.894-4.197.894-2.514 0-4.56-.822-6.142-2.47C.792 19.799 0 17.738 0 15.26c0-2.478.79-4.647 2.364-6.324C3.94 7.258 5.917 6.42 8.296 6.42c2.523 0 4.575.84 6.157 2.514 1.58 1.677 2.373 3.89 2.373 6.645l-.015.795-.003.003zm-4.02-3.288a4.174 4.174 0 00-1.573-2.262c-.783-.582-1.688-.873-2.723-.873-1.121 0-2.104.327-2.95.978-.533.408-1.024 1.125-1.478 2.157h8.723zM29.348 9.174l-2.49 2.583c-1.01-1.041-1.93-1.56-2.754-1.56-.45 0-.806.099-1.06.297-.258.198-.382.447-.382.74 0 .226.08.433.243.619.162.189.56.447 1.2.77l1.473.766c1.553.795 2.62 1.605 3.197 2.43.578.825.87 1.794.87 2.904 0 1.479-.523 2.712-1.57 3.699-1.046.99-2.447 1.482-4.205 1.482-2.338 0-4.203-.948-5.599-2.844l2.474-2.8a5.76 5.76 0 001.657 1.384c.633.35 1.196.528 1.688.528.532 0 .957-.132 1.28-.396.324-.264.486-.57.486-.918 0-.642-.584-1.27-1.752-1.881l-1.355-.702c-2.593-1.356-3.888-3.054-3.888-5.091 0-1.314.488-2.44 1.465-3.372.977-.933 2.229-1.398 3.75-1.398 1.04 0 2.02.237 2.939.71.92.475 1.697 1.156 2.335 2.04l-.002.01zM33.556 19.128c.64 0 1.186.23 1.637.696.45.465.676 1.026.676 1.689a2.36 2.36 0 01-.676 1.698 2.19 2.19 0 01-1.636.702c-.64 0-1.183-.234-1.637-.702a2.36 2.36 0 01-.676-1.698c0-.663.226-1.227.677-1.69.45-.464.997-.695 1.636-.695zM42.346.995h4.018l5.026 15.69L56.46.995h4.018l3.64 22.494H60.13L57.807 9.284 53.2 23.49h-3.64L45 9.284 42.62 23.49h-4.026L42.346.995zM82.865 16.38H69.944c.185 1.186.685 2.125 1.494 2.824.81.696 1.844 1.047 3.105 1.047 1.503 0 2.795-.546 3.876-1.638l3.39 1.653c-.843 1.242-1.855 2.166-3.037 2.763-1.18.597-2.579.894-4.2.894-2.515 0-4.562-.822-6.145-2.47-1.582-1.646-2.374-3.707-2.374-6.182 0-2.475.787-4.647 2.365-6.321 1.578-1.674 3.555-2.514 5.931-2.514 2.523 0 4.576.84 6.157 2.514 1.581 1.68 2.373 3.89 2.373 6.642l-.014.795h-.006l.006-.006zm-4.024-3.287a4.19 4.19 0 00-1.572-2.262c-.784-.582-1.689-.873-2.723-.873-1.122 0-2.105.327-2.954.978-.532.408-1.026 1.128-1.477 2.157h8.726zM97.592.427h4.023v23.058h-4.023v-1.758c-.786.774-1.573 1.335-2.362 1.674a6.43 6.43 0 01-2.57.513c-2.069 0-3.858-.834-5.37-2.5-1.512-1.664-2.269-3.737-2.269-6.215 0-2.478.728-4.675 2.194-6.318 1.462-1.641 3.234-2.463 5.327-2.463.963 0 1.864.189 2.709.564.843.375 1.621.945 2.338 1.698V.427h.003zm-4.232 9.848c-1.243 0-2.278.454-3.099 1.368-.82.913-1.234 2.083-1.234 3.51 0 1.429.42 2.62 1.255 3.547s1.864 1.389 3.09 1.389c1.225 0 2.312-.453 3.142-1.368.832-.912 1.246-2.106 1.246-3.588 0-1.482-.417-2.62-1.246-3.52-.833-.893-1.882-1.343-3.157-1.343v.005h.003zM107.304 0c.702 0 1.309.267 1.812.795.503.531.757 1.173.757 1.926 0 .753-.251 1.38-.751 1.905-.5.522-1.096.789-1.789.789a2.449 2.449 0 01-1.83-.804c-.503-.537-.757-1.185-.757-1.95 0-.765.248-1.362.745-1.881.5-.519 1.102-.78 1.807-.78h.006zm-2.012 6.849h4.023v16.635h-4.023V6.849zM128.541 10.218l-3.347 1.914c-.628-.684-1.252-1.155-1.865-1.422-.615-.267-1.335-.399-2.162-.399-1.503 0-2.723.462-3.651 1.395-.927.93-1.393 2.124-1.393 3.58 0 1.454.445 2.567 1.344 3.467.893.894 2.07 1.344 3.527 1.344 1.798 0 3.2-.639 4.203-1.914l3.167 2.253c-1.719 2.322-4.144 3.483-7.281 3.483-2.821 0-5.026-.867-6.622-2.6-1.595-1.735-2.396-3.763-2.396-6.088 0-1.61.39-3.093 1.162-4.449a8.42 8.42 0 013.249-3.198c1.387-.774 2.945-1.16 4.662-1.16 1.593 0 3.021.33 4.287.986a8.184 8.184 0 013.107 2.808v.006l.009-.006zM142.519 6.849h4.023v16.635h-4.023v-1.758c-.786.774-1.573 1.335-2.362 1.674a6.426 6.426 0 01-2.569.513c-2.07 0-3.859-.834-5.371-2.5-1.512-1.664-2.269-3.737-2.269-6.215 0-2.478.728-4.674 2.194-6.318 1.462-1.641 3.234-2.463 5.327-2.463a6.59 6.59 0 012.708.564c.844.375 1.622.945 2.339 1.698V6.843v.006h.003zm-4.232 3.426c-1.243 0-2.278.453-3.099 1.368-.82.912-1.234 2.082-1.234 3.51s.419 2.619 1.255 3.546c.835.927 1.864 1.389 3.09 1.389 1.225 0 2.312-.453 3.142-1.368.832-.912 1.245-2.106 1.245-3.588 0-1.482-.416-2.62-1.245-3.52-.833-.893-1.882-1.343-3.157-1.343v.006h.003zM149.955 6.85h3.449v2.096c.37-.825.87-1.455 1.488-1.88a3.51 3.51 0 012.032-.643c.521 0 1.067.141 1.636.426l-1.251 3.591c-.474-.243-.859-.366-1.162-.366-.619 0-1.142.4-1.57 1.194-.428.795-.642 2.355-.642 4.68l.015.813v6.73h-3.992V6.848h-.006.003zM175.776 16.38h-12.92c.185 1.186.685 2.125 1.494 2.824.81.696 1.844 1.047 3.105 1.047 1.503 0 2.795-.546 3.876-1.638l3.39 1.653c-.844 1.242-1.855 2.166-3.038 2.763-1.179.597-2.578.894-4.199.894-2.515 0-4.562-.822-6.146-2.47-1.581-1.646-2.373-3.707-2.373-6.182 0-2.475.787-4.647 2.365-6.321 1.578-1.674 3.555-2.514 5.931-2.514 2.523 0 4.576.84 6.157 2.514 1.581 1.68 2.373 3.89 2.373 6.642l-.015.795h-.005l.005-.006zm-4.023-3.287a4.188 4.188 0 00-1.573-2.262c-.78-.58-1.688-.873-2.722-.873-1.122 0-2.105.327-2.954.978-.532.408-1.027 1.128-1.478 2.157h8.727zM179.922 19.13c.635 0 1.185.235 1.636.697.45.462.676 1.029.676 1.689 0 .66-.226 1.23-.676 1.698a2.196 2.196 0 01-1.636.702 2.197 2.197 0 01-1.637-.702 2.358 2.358 0 01-.676-1.698c0-.666.226-1.224.676-1.69a2.213 2.213 0 011.637-.695zM196.985 6.849h4.009v14.25c0 2.811-.544 4.881-1.636 6.207C197.895 29.1 195.69 30 192.741 30c-1.572 0-2.89-.201-3.965-.609-1.07-.408-1.978-1.005-2.709-1.797-.737-.789-1.28-1.752-1.636-2.88h4.434c.393.468.896.822 1.518 1.065.618.24 1.352.357 2.196.357 1.079 0 1.949-.174 2.608-.519.659-.348 1.121-.795 1.393-1.344.269-.552.407-1.5.407-2.844-.708.735-1.451 1.263-2.222 1.584-.778.321-1.654.483-2.639.483-2.154 0-3.969-.804-5.452-2.418-1.48-1.611-2.223-3.648-2.223-6.117 0-2.637.787-4.761 2.356-6.363 1.422-1.446 3.125-2.169 5.096-2.169.925 0 1.795.174 2.616.528.821.354 1.645.93 2.466 1.734V6.849zm-4.169 3.474c-1.268 0-2.312.441-3.139 1.32-.826.882-1.237 1.992-1.237 3.327s.425 2.523 1.269 3.408c.844.885 1.905 1.329 3.183 1.329 1.277 0 2.277-.432 3.084-1.299.809-.867 1.217-2.004 1.217-3.408s-.408-2.514-1.226-3.381c-.812-.867-1.864-1.299-3.151-1.299v.003zM212.339 6.424c1.512 0 2.934.396 4.266 1.179a8.338 8.338 0 013.116 3.198 8.842 8.842 0 011.119 4.359c0 1.56-.376 3.036-1.127 4.404-.752 1.368-1.778 2.436-3.073 3.2-1.295.772-2.729 1.156-4.287 1.156-2.298 0-4.26-.85-5.888-2.547-1.627-1.698-2.439-3.756-2.439-6.183 0-2.601.919-4.767 2.754-6.501 1.61-1.51 3.46-2.262 5.556-2.262l.006-.006-.003.003zm.066 3.933c-1.251 0-2.289.45-3.121 1.353-.833.903-1.246 2.055-1.246 3.465 0 1.41.41 2.619 1.234 3.519.821.9 1.862 1.344 3.122 1.344 1.26 0 2.306-.453 3.142-1.362.835-.91 1.254-2.073 1.254-3.501s-.41-2.59-1.234-3.477c-.821-.891-1.87-1.341-3.151-1.341zM221.244 6.85h4.098l4.05 9.819 4.041-9.82h4.076l-6.822 16.636h-2.607L221.241 6.85h.006-.003zM238.151 27.516L247.935.213h2.894l-9.802 27.303h-2.876zM255.026.859h12.001v4.2h-7.882v4.107h5.122v4.137h-5.122v10.182h-4.119V.855.86zM269.143 6.75h3.469v2.107c.375-.831.875-1.461 1.497-1.893a3.503 3.503 0 012.046-.645c.524 0 1.073.144 1.645.432l-1.26 3.615c-.474-.246-.864-.37-1.171-.37-.621 0-1.147.4-1.578 1.2-.431.802-.645 2.37-.645 4.708l.015.816v6.768h-4.015V6.75h-.003zM291.7 6.75h4.047v16.738H291.7v-1.77c-.789.78-1.581 1.34-2.376 1.683a6.418 6.418 0 01-2.584.516c-2.081 0-3.885-.837-5.402-2.514-1.521-1.677-2.281-3.762-2.281-6.252 0-2.49.734-4.701 2.206-6.354 1.471-1.65 3.257-2.478 5.359-2.478.968 0 1.875.189 2.722.57.85.38 1.634.948 2.353 1.707V6.75h.003zm-4.252 3.448c-1.251 0-2.289.459-3.116 1.377-.826.918-1.24 2.094-1.24 3.53 0 1.438.422 2.638 1.263 3.57.842.934 1.879 1.402 3.111 1.402 1.231 0 2.324-.46 3.162-1.377.838-.918 1.254-2.121 1.254-3.606 0-1.485-.419-2.634-1.254-3.537-.838-.903-1.896-1.353-3.177-1.353l-.003-.006zM299.823 6.749h4.09v8.06c0 1.57.104 2.659.312 3.27.208.61.543 1.087 1.003 1.423.459.336 1.026.507 1.702.507.677 0 1.246-.168 1.717-.501.471-.333.821-.822 1.047-1.47.167-.483.251-1.512.251-3.093v-8.2h4.047v7.093c0 2.922-.223 4.923-.668 6-.543 1.314-1.344 2.319-2.402 3.024-1.058.702-2.402 1.053-4.032 1.053-1.769 0-3.2-.411-4.29-1.23-1.092-.82-1.858-1.965-2.303-3.43-.316-1.013-.474-2.861-.474-5.537v-6.97zM329.953.287H334v23.196h-4.047v-1.77c-.789.78-1.581 1.341-2.376 1.683a6.418 6.418 0 01-2.584.517c-2.081 0-3.885-.838-5.402-2.515-1.521-1.677-2.281-3.762-2.281-6.252 0-2.49.734-4.7 2.206-6.354 1.471-1.65 3.257-2.478 5.359-2.478a6.56 6.56 0 012.723.57c.849.381 1.633.948 2.352 1.707V.284l.003.003zm-4.252 9.906c-1.251 0-2.289.46-3.116 1.377-.826.918-1.24 2.094-1.24 3.531 0 1.437.422 2.637 1.264 3.57.841.933 1.878 1.401 3.11 1.401 1.231 0 2.324-.459 3.162-1.377.838-.918 1.254-2.12 1.254-3.606 0-1.485-.419-2.634-1.254-3.537-.838-.903-1.896-1.353-3.177-1.353l-.003-.006z" fill="#fff"/></svg>