<svg width="104" height="18" viewBox="0 0 104 18" fill="none" xmlns="http://www.w3.org/2000/svg"><path d="M4.66 11.82c0 .347.06.667.18.96.133.28.3.527.5.74.213.213.46.38.74.5a2.407 2.407 0 001.82 0c.293-.12.54-.287.74-.5.213-.213.38-.46.5-.74.133-.293.2-.607.2-.94 0-.32-.067-.62-.2-.9a2.285 2.285 0 00-.5-.76c-.2-.213-.447-.38-.74-.5a2.407 2.407 0 00-1.82 0 2.34 2.34 0 00-.74.5c-.2.213-.367.46-.5.74-.12.28-.18.58-.18.9zm-3.82-.04c0-.76.153-1.467.46-2.12a5.098 5.098 0 011.28-1.72 6.011 6.011 0 011.94-1.16A7.12 7.12 0 017 6.36c.88 0 1.693.14 2.44.42.76.267 1.413.647 1.96 1.14.56.48.993 1.06 1.3 1.74.307.667.46 1.407.46 2.22 0 .813-.16 1.56-.48 2.24a5.309 5.309 0 01-1.28 1.74c-.547.48-1.207.853-1.98 1.12-.76.267-1.587.4-2.48.4-.88 0-1.693-.133-2.44-.4a5.742 5.742 0 01-1.94-1.14 5.385 5.385 0 01-1.26-1.76c-.307-.693-.46-1.46-.46-2.3zm28.7-1.4a2.178 2.178 0 00-.74-1.22c-.373-.307-.826-.46-1.36-.46-.56 0-1.02.147-1.38.44-.346.293-.566.707-.66 1.24h4.14zm-4.24 2.1c0 1.56.734 2.34 2.2 2.34.787 0 1.38-.32 1.78-.96h3.5c-.706 2.347-2.473 3.52-5.3 3.52-.866 0-1.66-.127-2.38-.38a5.547 5.547 0 01-1.86-1.12 5.012 5.012 0 01-1.18-1.72c-.28-.667-.42-1.413-.42-2.24 0-.853.134-1.62.4-2.3a4.84 4.84 0 011.14-1.76 4.952 4.952 0 011.78-1.1c.707-.267 1.5-.4 2.38-.4.867 0 1.647.133 2.34.4.694.253 1.28.627 1.76 1.12.48.493.847 1.1 1.1 1.82.254.707.38 1.507.38 2.4v.38H25.3zm9.69-5.74h3.62V8c.987-.947 2.093-1.42 3.32-1.42 1.52 0 2.68.64 3.48 1.92.813-1.293 1.973-1.94 3.48-1.94.48 0 .933.073 1.36.22.427.133.793.353 1.1.66.307.293.547.68.72 1.16.187.48.28 1.06.28 1.74V17h-3.62v-5.06c0-.52-.04-.947-.12-1.28-.067-.333-.173-.593-.32-.78a1.004 1.004 0 00-.48-.38 1.771 1.771 0 00-.6-.1c-1.16 0-1.74.847-1.74 2.54V17h-3.62v-5.06c0-.52-.033-.947-.1-1.28-.067-.347-.167-.62-.3-.82a.875.875 0 00-.48-.4c-.2-.08-.433-.12-.7-.12-.227 0-.44.033-.64.1s-.38.2-.54.4c-.147.187-.267.453-.36.8-.08.333-.12.773-.12 1.32V17h-3.62V6.74zm23.204 5.1c0 .333.06.647.18.94.12.28.28.527.48.74.213.213.46.38.74.5.293.12.606.18.94.18.32 0 .62-.06.9-.18.293-.12.54-.287.74-.5.213-.213.38-.46.5-.74.133-.28.2-.58.2-.9 0-.32-.067-.62-.2-.9a2.285 2.285 0 00-.5-.76c-.2-.213-.447-.38-.74-.5a2.26 2.26 0 00-.9-.18c-.334 0-.647.06-.94.18a2.34 2.34 0 00-.74.5c-.2.213-.36.46-.48.74-.12.267-.18.56-.18.88zm4.56-5.1h3.64V17h-3.64v-1.14c-.774.973-1.82 1.46-3.14 1.46a5.206 5.206 0 01-2.06-.4 5.095 5.095 0 01-1.64-1.16 5.444 5.444 0 01-1.1-1.74 6.087 6.087 0 01-.38-2.18c0-.733.126-1.427.38-2.08a5.348 5.348 0 011.06-1.74c.453-.493.993-.88 1.62-1.16a4.845 4.845 0 012.08-.44c1.28 0 2.34.447 3.18 1.34V6.74zm9.723 0V17h-3.62V6.74h3.62zm-3.86-3.94c0-.28.053-.54.16-.78.107-.253.254-.473.44-.66.187-.187.4-.333.64-.44a2.04 2.04 0 012.68 1.1 2.04 2.04 0 010 1.58 2.11 2.11 0 01-.44.64 2.045 2.045 0 01-.66.44 2.04 2.04 0 01-1.58 0 2.11 2.11 0 01-.64-.44 2.11 2.11 0 01-.44-.64 2.04 2.04 0 01-.16-.8zM78.571.4V17h-3.62V.4h3.62zm9.274 8.98c-.667-.347-1.32-.52-1.96-.52-.334 0-.607.067-.82.2-.2.133-.3.313-.3.54 0 .12.013.22.04.3.04.067.113.133.22.2.12.067.286.127.5.18.226.053.52.12.88.2 1 .2 1.746.56 2.24 1.08.493.507.74 1.16.74 1.96 0 .6-.12 1.14-.36 1.62-.24.48-.574.887-1 1.22-.427.32-.94.567-1.54.74-.6.187-1.26.28-1.98.28-1.387 0-2.754-.393-4.1-1.18l1.32-2.56c1.013.693 1.973 1.04 2.88 1.04.333 0 .606-.073.82-.22.213-.147.32-.333.32-.56a.72.72 0 00-.06-.32.427.427 0 00-.2-.24 1.364 1.364 0 00-.48-.2 6.92 6.92 0 00-.8-.2c-1.12-.227-1.907-.56-2.36-1-.44-.453-.66-1.073-.66-1.86 0-.573.106-1.087.32-1.54.213-.467.52-.86.92-1.18.4-.32.88-.567 1.44-.74a6.547 6.547 0 011.9-.26c1.133 0 2.233.22 3.3.66l-1.22 2.36zm3.778 6.58c0-.345.126-.645.38-.899s.557-.38.91-.38c.352 0 .655.127.908.38.254.254.38.557.38.91 0 .358-.126.664-.38.918-.247.247-.55.37-.909.37-.365 0-.671-.123-.918-.37a1.259 1.259 0 01-.371-.928zm4.533 0c0-.345.127-.645.38-.899.254-.254.557-.38.91-.38.352 0 .655.127.909.38.253.254.38.557.38.91 0 .358-.127.664-.38.918-.248.247-.55.37-.91.37-.364 0-.67-.123-.918-.37a1.259 1.259 0 01-.371-.928zm4.533 0c0-.345.127-.645.38-.899.254-.254.557-.38.91-.38.352 0 .655.127.909.38.253.254.38.557.38.91 0 .358-.127.664-.38.918a1.238 1.238 0 01-.909.37 1.25 1.25 0 01-.919-.37 1.26 1.26 0 01-.371-.928z" fill="#fff"/></svg>