<svg width="164" height="17" viewBox="0 0 164 17" fill="none" xmlns="http://www.w3.org/2000/svg"><path d="M4.694 12.846h.855c.646 0 1.222-.101 1.729-.304a3.594 3.594 0 001.273-.836c.354-.355.62-.773.798-1.254.19-.494.285-1.032.285-1.615 0-.57-.095-1.102-.285-1.596a3.606 3.606 0 00-.817-1.273 3.594 3.594 0 00-1.273-.836c-.507-.203-1.077-.304-1.71-.304h-.855v8.018zM.97 1.674h5.51c.975 0 1.887.196 2.736.589a7.247 7.247 0 012.242 1.577 7.052 7.052 0 011.52 2.28c.367.861.55 1.767.55 2.717 0 .937-.183 1.843-.55 2.717a7.069 7.069 0 01-1.501 2.28 7.247 7.247 0 01-2.242 1.577A6.48 6.48 0 016.48 16H.97V1.674zm21.738 8.037a2.07 2.07 0 00-.703-1.159c-.354-.291-.785-.437-1.292-.437-.532 0-.969.14-1.31.418-.33.279-.54.671-.628 1.178h3.933zm-4.028 1.995c0 1.482.697 2.223 2.09 2.223.748 0 1.311-.304 1.691-.912h3.325c-.671 2.23-2.35 3.344-5.035 3.344-.823 0-1.577-.12-2.26-.361a5.269 5.269 0 01-1.768-1.064c-.481-.456-.855-1-1.12-1.634-.267-.633-.4-1.343-.4-2.128 0-.81.127-1.539.38-2.185a4.6 4.6 0 011.083-1.672 4.704 4.704 0 011.691-1.045c.672-.253 1.425-.38 2.261-.38.824 0 1.565.127 2.223.38.659.24 1.216.595 1.672 1.064a4.654 4.654 0 011.045 1.729c.24.671.361 1.431.361 2.28v.361H18.68zm13.173-2.584V16h-3.44V9.122h-1.14V6.253h1.14V3.327h3.44v2.926h1.957v2.869h-1.957zm10.56.589a2.07 2.07 0 00-.703-1.159c-.354-.291-.785-.437-1.292-.437-.532 0-.969.14-1.31.418-.33.279-.539.671-.628 1.178h3.933zm-4.028 1.995c0 1.482.697 2.223 2.09 2.223.748 0 1.311-.304 1.691-.912h3.325c-.671 2.23-2.35 3.344-5.035 3.344-.823 0-1.577-.12-2.26-.361a5.269 5.269 0 01-1.768-1.064c-.481-.456-.855-1-1.12-1.634-.267-.633-.4-1.343-.4-2.128 0-.81.127-1.539.38-2.185a4.6 4.6 0 011.083-1.672 4.704 4.704 0 011.691-1.045c.672-.253 1.425-.38 2.261-.38.824 0 1.565.127 2.223.38.659.24 1.216.595 1.672 1.064a4.654 4.654 0 011.045 1.729c.241.671.361 1.431.361 2.28v.361h-7.239zm5.187-9.804l-3.306 2.926L38.67 3.65 41.387.325l2.185 1.577zm4.018 4.351h3.44v1.235c.468-.57.943-.95 1.424-1.14.481-.203 1.045-.304 1.691-.304.684 0 1.267.114 1.748.342a3.39 3.39 0 011.254.931c.279.33.469.697.57 1.102.101.405.152.868.152 1.387V16H54.43v-4.921c0-.481-.038-.868-.114-1.159-.063-.304-.184-.545-.36-.722a1.303 1.303 0 00-.514-.323 1.91 1.91 0 00-.608-.095c-.583 0-1.032.177-1.349.532-.304.342-.456.836-.456 1.482V16H47.59V6.253zm26.2 3.458a2.069 2.069 0 00-.704-1.159c-.354-.291-.785-.437-1.292-.437-.532 0-.969.14-1.31.418-.33.279-.539.671-.628 1.178h3.933zm-4.029 1.995c0 1.482.697 2.223 2.09 2.223.748 0 1.311-.304 1.691-.912h3.325c-.671 2.23-2.35 3.344-5.035 3.344-.823 0-1.577-.12-2.26-.361a5.269 5.269 0 01-1.768-1.064c-.481-.456-.855-1-1.12-1.634-.267-.633-.4-1.343-.4-2.128 0-.81.127-1.539.38-2.185a4.602 4.602 0 011.083-1.672 4.706 4.706 0 011.691-1.045c.672-.253 1.425-.38 2.261-.38.824 0 1.565.127 2.223.38.659.24 1.216.595 1.672 1.064a4.653 4.653 0 011.045 1.729c.241.671.361 1.431.361 2.28v.361h-7.239zM82.405.23V16h-3.439V.23h3.44zm12.531 8.892V16h-3.439V9.122h-1.235V6.253h1.235V4.79c0-.81.076-1.457.228-1.938.127-.405.33-.779.608-1.121.279-.355.602-.659.97-.912.38-.253.785-.45 1.215-.589a4.12 4.12 0 011.273-.209c.291 0 .558.032.798.095.254.063.507.152.76.266v3.002a3.185 3.185 0 00-.646-.247 1.91 1.91 0 00-.608-.095c-.14 0-.285.025-.437.076a.852.852 0 00-.399.266c-.127.14-.215.342-.266.608a7.433 7.433 0 00-.057 1.045v1.216h2.413v2.869h-2.413zm3.698-2.869h3.439v1.596c.367-.583.817-1.026 1.349-1.33.532-.317 1.153-.475 1.862-.475h.285c.114 0 .241.013.38.038v3.287a3.267 3.267 0 00-1.482-.342c-.798 0-1.4.24-1.805.722-.393.469-.589 1.159-.589 2.071V16h-3.439V6.253zm12.154 4.845c0 .317.057.614.171.893.114.266.266.5.456.703.203.203.437.361.703.475a2.335 2.335 0 001.748 0c.279-.114.513-.272.703-.475.203-.203.361-.437.475-.703.127-.266.19-.551.19-.855 0-.304-.063-.589-.19-.855a2.165 2.165 0 00-.475-.722 1.968 1.968 0 00-.703-.475 2.335 2.335 0 00-1.748 0c-.266.114-.5.272-.703.475a2.4 2.4 0 00-.456.703 2.014 2.014 0 00-.171.836zm4.332-4.845h3.458V16h-3.458v-1.083c-.735.925-1.729 1.387-2.983 1.387a4.947 4.947 0 01-1.957-.38 4.84 4.84 0 01-1.558-1.102 5.174 5.174 0 01-1.045-1.653 5.777 5.777 0 01-.361-2.071c0-.697.12-1.355.361-1.976a5.082 5.082 0 011.007-1.653 4.638 4.638 0 011.539-1.102 4.602 4.602 0 011.976-.418c1.216 0 2.223.424 3.021 1.273v-.969zm9.237 0v5.491c0 1.203.583 1.805 1.748 1.805 1.166 0 1.748-.602 1.748-1.805V6.253h3.439v6.156c0 1.317-.437 2.305-1.311 2.964-.861.659-2.153.988-3.876.988-1.722 0-3.021-.33-3.895-.988-.861-.659-1.292-1.647-1.292-2.964V6.253h3.439zm12.463 4.845c0 .317.057.614.171.893.114.266.266.5.456.703.203.203.437.361.703.475.279.114.577.171.893.171.304 0 .589-.057.855-.171.279-.114.513-.272.703-.475.203-.203.361-.437.475-.703.127-.266.19-.551.19-.855 0-.304-.063-.589-.19-.855a2.165 2.165 0 00-.475-.722 1.968 1.968 0 00-.703-.475 2.147 2.147 0 00-.855-.171c-.304 0-.595.057-.874.171-.266.114-.5.272-.703.475-.19.203-.348.437-.475.703a2.014 2.014 0 00-.171.836zM141.152.23h3.458V16h-3.458v-1.083c-.734.925-1.729 1.387-2.983 1.387a4.746 4.746 0 01-3.515-1.501 5.192 5.192 0 01-1.045-1.653 5.743 5.743 0 01-.361-2.052c0-.697.114-1.355.342-1.976a5.1 5.1 0 011.007-1.653 4.638 4.638 0 011.539-1.102 4.73 4.73 0 011.995-.418c1.216 0 2.223.424 3.021 1.273V.23zm12.923 9.481a2.067 2.067 0 00-.703-1.159c-.354-.291-.785-.437-1.292-.437-.532 0-.969.14-1.311.418-.329.279-.538.671-.627 1.178h3.933zm-4.028 1.995c0 1.482.697 2.223 2.09 2.223.748 0 1.311-.304 1.691-.912h3.325c-.671 2.23-2.349 3.344-5.035 3.344-.823 0-1.577-.12-2.261-.361a5.269 5.269 0 01-1.767-1.064c-.481-.456-.855-1-1.121-1.634-.266-.633-.399-1.343-.399-2.128 0-.81.127-1.539.38-2.185a4.617 4.617 0 011.083-1.672 4.714 4.714 0 011.691-1.045c.672-.253 1.425-.38 2.261-.38.824 0 1.565.127 2.223.38a4.4 4.4 0 011.672 1.064 4.645 4.645 0 011.045 1.729c.241.671.361 1.431.361 2.28v.361h-7.239zm9.034 2.47c0-.304.057-.589.171-.855a2.18 2.18 0 012.052-1.368c.304 0 .589.057.855.171.279.114.52.272.722.475.203.203.361.443.475.722a2.287 2.287 0 010 1.729c-.114.266-.272.5-.475.703a2.16 2.16 0 01-.722.475 2.147 2.147 0 01-.855.171c-.304 0-.595-.057-.874-.171a2.226 2.226 0 01-1.178-1.178 2.287 2.287 0 01-.171-.874z" fill="#fff"/></svg>