<svg width="203" height="17" viewBox="0 0 203 17" fill="none" xmlns="http://www.w3.org/2000/svg"><path d="M.355 13V.922L8.602 9.55V1.691h1.707V13.69L2.062 5.083V13H.355zm12.122-3.618c0-1.03.368-1.907 1.105-2.63.738-.722 1.636-1.084 2.696-1.084 1.064 0 1.968.364 2.71 1.092.732.727 1.098 1.62 1.098 2.68 0 1.07-.368 1.966-1.105 2.688-.743.718-1.653 1.077-2.733 1.077-1.069 0-1.965-.366-2.688-1.099-.722-.722-1.083-1.63-1.083-2.724zm1.684.03c0 .712.19 1.276.571 1.691.391.42.906.63 1.546.63.644 0 1.16-.208 1.545-.623.386-.415.579-.969.579-1.662 0-.694-.193-1.248-.579-1.663-.39-.42-.905-.63-1.545-.63-.63 0-1.14.21-1.53.63-.392.42-.587.962-.587 1.626zm12.305-3.546h1.648v.637c.302-.317.571-.534.805-.651.24-.123.523-.184.85-.184.435 0 .889.142 1.362.425l-.754 1.51c-.313-.226-.618-.338-.916-.338-.898 0-1.347.679-1.347 2.036V13h-1.648V5.866zM38.47 9.821h-5.112c.044.586.234 1.053.571 1.4.337.341.77.512 1.297.512.41 0 .75-.098 1.018-.293.263-.195.564-.557.9-1.084l1.392.776a5.67 5.67 0 01-.681.945c-.24.259-.496.474-.77.645a3.144 3.144 0 01-.885.366 4.315 4.315 0 01-1.033.117c-1.065 0-1.919-.342-2.564-1.025-.644-.689-.966-1.602-.966-2.74 0-1.127.312-2.04.937-2.739.63-.688 1.465-1.033 2.505-1.033 1.05 0 1.88.335 2.49 1.004.606.664.908 1.584.908 2.761l-.007.388zm-1.692-1.347c-.23-.88-.783-1.319-1.662-1.319-.2 0-.389.032-.564.095a1.555 1.555 0 00-.484.264 1.647 1.647 0 00-.366.41c-.102.161-.18.345-.234.55h3.31zm7.647-1.392l-1.362.725c-.215-.44-.482-.66-.799-.66a.542.542 0 00-.388.155.49.49 0 00-.161.38c0 .274.317.545.952.814.874.376 1.462.722 1.765 1.04.303.317.454.744.454 1.281 0 .689-.254 1.265-.762 1.729-.493.44-1.088.66-1.787.66-1.196 0-2.043-.584-2.541-1.751l1.406-.652c.196.341.344.559.447.652.2.185.44.278.718.278.556 0 .835-.254.835-.762 0-.293-.215-.566-.645-.82a23.267 23.267 0 00-.498-.242 45.712 45.712 0 01-.505-.242c-.479-.234-.816-.468-1.011-.703-.25-.298-.374-.68-.374-1.15 0-.62.213-1.132.638-1.538.434-.405.962-.608 1.582-.608.913 0 1.591.472 2.036 1.414zm3.596 9.8h-1.648V5.866h1.648v.777c.65-.65 1.387-.975 2.212-.975.981 0 1.79.362 2.424 1.084.645.718.967 1.624.967 2.718 0 1.07-.32 1.96-.96 2.673-.634.708-1.435 1.062-2.402 1.062-.835 0-1.582-.334-2.241-1.003v4.68zm3.919-7.405c0-.684-.186-1.24-.557-1.67a1.8 1.8 0 00-1.421-.652c-.606 0-1.096.21-1.472.63-.376.42-.564.972-.564 1.655 0 .67.188 1.221.564 1.656.37.425.86.637 1.465.637.57 0 1.042-.215 1.413-.645.381-.43.572-.966.572-1.61zm3.09-.095c0-1.03.369-1.907 1.106-2.63.737-.722 1.636-1.084 2.695-1.084 1.065 0 1.968.364 2.71 1.092.733.727 1.1 1.62 1.1 2.68 0 1.07-.37 1.966-1.107 2.688-.742.718-1.653 1.077-2.732 1.077-1.07 0-1.965-.366-2.688-1.099-.722-.722-1.084-1.63-1.084-2.724zm1.685.03c0 .712.19 1.276.571 1.691.39.42.906.63 1.545.63.645 0 1.16-.208 1.546-.623.386-.415.579-.969.579-1.662 0-.694-.193-1.248-.579-1.663-.39-.42-.906-.63-1.546-.63-.63 0-1.14.21-1.53.63-.39.42-.586.962-.586 1.626zm7.676-3.546h1.655v.66c.576-.572 1.225-.858 1.948-.858.83 0 1.477.262 1.941.784.4.444.6 1.17.6 2.175V13H68.88V9.016c0-.704-.097-1.19-.293-1.458-.19-.273-.537-.41-1.04-.41-.546 0-.935.18-1.164.542-.225.356-.337.979-.337 1.868V13H64.39V5.866zM77.88.63h1.656V13h-1.655v-.747c-.65.635-1.384.952-2.205.952-.976 0-1.787-.356-2.431-1.07-.64-.727-.96-1.635-.96-2.724 0-1.064.32-1.953.96-2.666.634-.718 1.433-1.077 2.395-1.077.835 0 1.582.342 2.24 1.026V.629zm-3.91 8.782c0 .684.183 1.24.549 1.67a1.8 1.8 0 001.42.652c.611 0 1.104-.21 1.48-.63.376-.434.564-.986.564-1.655 0-.67-.188-1.221-.564-1.656-.376-.424-.864-.637-1.464-.637-.567 0-1.04.215-1.421.645-.376.434-.564.971-.564 1.611zm12.905-3.545h1.655V13h-1.655v-.747c-.679.635-1.409.952-2.19.952-.986 0-1.802-.356-2.446-1.07-.64-.727-.96-1.635-.96-2.724 0-1.07.32-1.96.96-2.673.64-.713 1.44-1.07 2.402-1.07.83 0 1.575.342 2.234 1.026v-.828zm-3.911 3.545c0 .684.183 1.24.55 1.67a1.8 1.8 0 001.42.652c.61 0 1.104-.21 1.48-.63.375-.434.563-.986.563-1.655 0-.67-.188-1.221-.563-1.656-.376-.424-.865-.637-1.465-.637-.567 0-1.04.215-1.421.645-.376.434-.564.971-.564 1.611zm11.792-2.329l-1.363.725c-.214-.44-.48-.66-.798-.66a.542.542 0 00-.388.155.49.49 0 00-.161.38c0 .274.317.545.952.814.874.376 1.462.722 1.765 1.04.303.317.454.744.454 1.281 0 .689-.254 1.265-.761 1.729-.494.44-1.09.66-1.788.66-1.196 0-2.043-.584-2.541-1.751l1.406-.652c.195.341.344.559.447.652.2.185.44.278.718.278.556 0 .835-.254.835-.762 0-.293-.215-.566-.645-.82a23.508 23.508 0 00-.498-.242 45.712 45.712 0 01-.505-.242c-.479-.234-.816-.468-1.011-.703-.249-.298-.374-.68-.374-1.15 0-.62.213-1.132.638-1.538.434-.405.962-.608 1.582-.608.913 0 1.591.472 2.036 1.414zm11.836-1.216h1.655V13h-1.655v-.747c-.679.635-1.409.952-2.19.952-.986 0-1.802-.356-2.446-1.07-.64-.727-.96-1.635-.96-2.724 0-1.07.32-1.96.96-2.673.639-.713 1.44-1.07 2.402-1.07.83 0 1.575.342 2.234 1.026v-.828zm-3.911 3.545c0 .684.183 1.24.549 1.67a1.8 1.8 0 001.421.652c.61 0 1.103-.21 1.479-.63.376-.434.564-.986.564-1.655 0-.67-.188-1.221-.564-1.656-.376-.424-.864-.637-1.464-.637a1.82 1.82 0 00-1.421.645c-.376.434-.564.971-.564 1.611z" fill="#fff" fill-opacity=".75"/><path d="M117.862.55V13h-2.715V.55h2.715zm4.87 0V13h-2.715V.55h2.715zm4.676 8.58c0 .25.045.485.135.705.09.21.21.395.36.555.16.16.345.285.555.375a1.844 1.844 0 001.38 0c.22-.09.405-.215.555-.375.16-.16.285-.345.375-.555.1-.21.15-.435.15-.675 0-.24-.05-.465-.15-.675-.09-.22-.215-.41-.375-.57a1.556 1.556 0 00-.555-.375 1.844 1.844 0 00-1.38 0c-.21.09-.395.215-.555.375-.15.16-.27.345-.36.555-.09.2-.135.42-.135.66zm3.42-3.825h2.73V13h-2.73v-.855c-.58.73-1.365 1.095-2.355 1.095-.56 0-1.075-.1-1.545-.3-.47-.21-.88-.5-1.23-.87a4.085 4.085 0 01-.825-1.305 4.566 4.566 0 01-.285-1.635c0-.55.095-1.07.285-1.56.19-.5.455-.935.795-1.305.34-.37.745-.66 1.215-.87.47-.22.99-.33 1.56-.33.96 0 1.755.335 2.385 1.005v-.765zm4.877 0h2.715v.945c.74-.71 1.57-1.065 2.49-1.065 1.14 0 2.01.48 2.61 1.44.61-.97 1.48-1.455 2.61-1.455.36 0 .7.055 1.02.165.32.1.595.265.825.495.23.22.41.51.54.87.14.36.21.795.21 1.305V13h-2.715V9.205c0-.39-.03-.71-.09-.96-.05-.25-.13-.445-.24-.585a.753.753 0 00-.36-.285c-.14-.05-.29-.075-.45-.075-.87 0-1.305.635-1.305 1.905V13h-2.715V9.205c0-.39-.025-.71-.075-.96a1.687 1.687 0 00-.225-.615.656.656 0 00-.36-.3c-.15-.06-.325-.09-.525-.09-.17 0-.33.025-.48.075a.878.878 0 00-.405.3c-.11.14-.2.34-.27.6-.06.25-.09.58-.09.99V13h-2.715V5.305zm17.703 3.825c0 .25.045.485.135.705.09.21.21.395.36.555.16.16.345.285.555.375a1.844 1.844 0 001.38 0c.22-.09.405-.215.555-.375.16-.16.285-.345.375-.555.1-.21.15-.435.15-.675 0-.24-.05-.465-.15-.675-.09-.22-.215-.41-.375-.57a1.556 1.556 0 00-.555-.375 1.844 1.844 0 00-1.38 0c-.21.09-.395.215-.555.375-.15.16-.27.345-.36.555-.09.2-.135.42-.135.66zm3.42-3.825h2.73V13h-2.73v-.855c-.58.73-1.365 1.095-2.355 1.095-.56 0-1.075-.1-1.545-.3-.47-.21-.88-.5-1.23-.87a4.085 4.085 0 01-.825-1.305 4.566 4.566 0 01-.285-1.635c0-.55.095-1.07.285-1.56.19-.5.455-.935.795-1.305.34-.37.745-.66 1.215-.87.47-.22.99-.33 1.56-.33.96 0 1.755.335 2.385 1.005v-.765zm7.398 3.825c0 .25.045.485.135.705.09.21.21.395.36.555.16.16.345.285.555.375a1.844 1.844 0 001.38 0c.22-.09.405-.215.555-.375.16-.16.285-.345.375-.555.1-.21.15-.435.15-.675 0-.24-.05-.465-.15-.675-.09-.22-.215-.41-.375-.57a1.556 1.556 0 00-.555-.375 1.805 1.805 0 00-1.365 0c-.21.09-.395.215-.555.375-.15.16-.275.345-.375.555-.09.2-.135.42-.135.66zm3.42-8.58h2.73V13h-2.73v-.855c-.58.73-1.365 1.095-2.355 1.095a3.744 3.744 0 01-2.775-1.185 4.085 4.085 0 01-.825-1.305c-.19-.5-.285-1.04-.285-1.62 0-.55.09-1.07.27-1.56.19-.5.455-.935.795-1.305.34-.37.745-.66 1.215-.87.48-.22 1.005-.33 1.575-.33.96 0 1.755.335 2.385 1.005V.55zm7.397 8.58c0 .25.045.485.135.705.09.21.21.395.36.555.16.16.345.285.555.375a1.844 1.844 0 001.38 0c.22-.09.405-.215.555-.375.16-.16.285-.345.375-.555.1-.21.15-.435.15-.675 0-.24-.05-.465-.15-.675-.09-.22-.215-.41-.375-.57a1.556 1.556 0 00-.555-.375 1.844 1.844 0 00-1.38 0c-.21.09-.395.215-.555.375-.15.16-.27.345-.36.555-.09.2-.135.42-.135.66zm3.42-3.825h2.73V13h-2.73v-.855c-.58.73-1.365 1.095-2.355 1.095-.56 0-1.075-.1-1.545-.3-.47-.21-.88-.5-1.23-.87a4.085 4.085 0 01-.825-1.305 4.566 4.566 0 01-.285-1.635c0-.55.095-1.07.285-1.56.19-.5.455-.935.795-1.305.34-.37.745-.66 1.215-.87.47-.22.99-.33 1.56-.33.96 0 1.755.335 2.385 1.005v-.765zm9.978 1.98c-.5-.26-.99-.39-1.47-.39-.25 0-.455.05-.615.15a.464.464 0 00-.225.405c0 .09.01.165.03.225.03.05.085.1.165.15.09.05.215.095.375.135.17.04.39.09.66.15.75.15 1.31.42 1.68.81.37.38.555.87.555 1.47 0 .45-.09.855-.27 1.215-.18.36-.43.665-.75.915-.32.24-.705.425-1.155.555-.45.14-.945.21-1.485.21-1.04 0-2.065-.295-3.075-.885l.99-1.92c.76.52 1.48.78 2.16.78.25 0 .455-.055.615-.165.16-.11.24-.25.24-.42a.54.54 0 00-.045-.24.32.32 0 00-.15-.18c-.08-.06-.2-.11-.36-.15-.15-.05-.35-.1-.6-.15-.84-.17-1.43-.42-1.77-.75-.33-.34-.495-.805-.495-1.395 0-.43.08-.815.24-1.155.16-.35.39-.645.69-.885.3-.24.66-.425 1.08-.555a4.91 4.91 0 011.425-.195c.85 0 1.675.165 2.475.495l-.915 1.77zm3.457 4.73c0-.328.12-.612.361-.852.24-.24.527-.36.861-.36.334 0 .621.12.861.36s.361.527.361.861c0 .34-.121.63-.361.87a1.17 1.17 0 01-.861.352 1.18 1.18 0 01-.87-.351 1.19 1.19 0 01-.352-.88zm4.115 0c0-.328.12-.612.36-.852.241-.24.528-.36.862-.36.334 0 .621.12.861.36s.36.527.36.861c0 .34-.12.63-.36.87a1.171 1.171 0 01-.861.352c-.346 0-.636-.117-.871-.351a1.193 1.193 0 01-.351-.88zm4.115 0c0-.328.12-.612.36-.852s.527-.36.861-.36c.334 0 .621.12.862.36.24.24.36.527.36.861 0 .34-.12.63-.36.87a1.173 1.173 0 01-.862.352c-.345 0-.635-.117-.87-.351a1.193 1.193 0 01-.351-.88z" fill="#fff"/></svg>