<svg width="379" height="49" viewBox="0 0 379 49" fill="none" xmlns="http://www.w3.org/2000/svg"><path d="M.896 20V1.904H5.6l8.688 11.064V1.904h4.68V20h-4.68L5.6 8.936V20H.896zm25.75-6.216c0 .416.073.8.217 1.152.16.336.36.632.6.888.256.256.552.456.888.6.352.144.72.216 1.104.216.384 0 .744-.072 1.08-.216a2.49 2.49 0 00.888-.6c.256-.256.456-.552.6-.888.16-.352.24-.728.24-1.128 0-.384-.08-.744-.24-1.08a2.742 2.742 0 00-.6-.912 2.49 2.49 0 00-.888-.6 2.712 2.712 0 00-1.08-.216c-.384 0-.752.072-1.104.216a2.808 2.808 0 00-.888.6c-.24.256-.44.552-.6.888a2.712 2.712 0 00-.216 1.08zm-4.583-.048c0-.912.184-1.76.552-2.544.368-.8.88-1.488 1.536-2.064a7.214 7.214 0 012.328-1.392c.912-.336 1.904-.504 2.976-.504 1.056 0 2.032.168 2.928.504.912.32 1.696.776 2.352 1.368a5.921 5.921 0 011.56 2.088c.368.8.552 1.688.552 2.664 0 .976-.192 1.872-.576 2.688-.368.8-.88 1.496-1.536 2.088-.656.576-1.448 1.024-2.376 1.344-.912.32-1.904.48-2.976.48-1.056 0-2.032-.16-2.928-.48a6.89 6.89 0 01-2.328-1.368 6.463 6.463 0 01-1.512-2.112c-.368-.832-.552-1.752-.552-2.76zm25.444-2.88c-.8-.416-1.584-.624-2.352-.624-.4 0-.728.08-.984.24-.24.16-.36.376-.36.648 0 .144.016.264.048.36.048.08.136.16.264.24.144.08.344.152.6.216.272.064.624.144 1.056.24 1.2.24 2.096.672 2.688 1.296.592.608.888 1.392.888 2.352 0 .72-.144 1.368-.432 1.944a4.247 4.247 0 01-1.2 1.464c-.512.384-1.128.68-1.848.888a7.969 7.969 0 01-2.376.336c-1.664 0-3.304-.472-4.92-1.416l1.584-3.072c1.216.832 2.368 1.248 3.456 1.248.4 0 .728-.088.984-.264.256-.176.384-.4.384-.672a.865.865 0 00-.072-.384.512.512 0 00-.24-.288c-.128-.096-.32-.176-.576-.24-.24-.08-.56-.16-.96-.24-1.344-.272-2.288-.672-2.832-1.2-.528-.544-.792-1.288-.792-2.232 0-.688.128-1.304.384-1.848a3.826 3.826 0 011.104-1.416c.48-.384 1.056-.68 1.728-.888a7.856 7.856 0 012.28-.312c1.36 0 2.68.264 3.96.792l-1.464 2.832zm8.155 2.928c0 .416.072.8.216 1.152.16.336.36.632.6.888.256.256.552.456.888.6.352.144.72.216 1.104.216.384 0 .744-.072 1.08-.216a2.49 2.49 0 00.888-.6c.256-.256.456-.552.6-.888.16-.352.24-.728.24-1.128 0-.384-.08-.744-.24-1.08a2.742 2.742 0 00-.6-.912 2.49 2.49 0 00-.888-.6A2.712 2.712 0 0058.47 11c-.384 0-.752.072-1.104.216a2.808 2.808 0 00-.888.6c-.24.256-.44.552-.6.888a2.712 2.712 0 00-.216 1.08zm-4.584-.048c0-.912.184-1.76.552-2.544.368-.8.88-1.488 1.536-2.064a7.214 7.214 0 012.328-1.392c.912-.336 1.904-.504 2.976-.504 1.056 0 2.032.168 2.928.504.912.32 1.696.776 2.352 1.368a5.921 5.921 0 011.56 2.088c.368.8.552 1.688.552 2.664 0 .976-.192 1.872-.576 2.688-.368.8-.88 1.496-1.536 2.088-.656.576-1.448 1.024-2.376 1.344-.912.32-1.904.48-2.976.48-1.056 0-2.032-.16-2.928-.48a6.89 6.89 0 01-2.328-1.368 6.463 6.463 0 01-1.512-2.112c-.368-.832-.552-1.752-.552-2.76zm22.203-2.424V20h-4.344v-8.688h-1.44V7.688h1.44V3.992h4.344v3.696h2.472v3.624h-2.472zm4.105-3.624h4.344v2.016c.464-.736 1.032-1.296 1.704-1.68.672-.4 1.456-.6 2.352-.6h.36c.144 0 .304.016.48.048v4.152a4.127 4.127 0 00-1.872-.432c-1.008 0-1.768.304-2.28.912-.496.592-.744 1.464-.744 2.616V20h-4.344V7.688zm15.353 6.12c0 .4.072.776.216 1.128.144.336.336.632.576.888.256.256.552.456.888.6a2.95 2.95 0 001.128.216c.384 0 .744-.072 1.08-.216a2.49 2.49 0 00.888-.6c.256-.256.456-.552.6-.888.16-.336.24-.696.24-1.08 0-.384-.08-.744-.24-1.08a2.742 2.742 0 00-.6-.912 2.49 2.49 0 00-.888-.6 2.712 2.712 0 00-1.08-.216c-.4 0-.776.072-1.128.216a2.808 2.808 0 00-.888.6c-.24.256-.432.552-.576.888-.144.32-.216.672-.216 1.056zm5.472-6.12h4.368V20h-4.368v-1.368c-.928 1.168-2.184 1.752-3.768 1.752-.896 0-1.72-.16-2.472-.48a6.115 6.115 0 01-1.968-1.392c-.56-.592-1-1.288-1.32-2.088a7.306 7.306 0 01-.456-2.616c0-.88.152-1.712.456-2.496a6.42 6.42 0 011.272-2.088 5.85 5.85 0 011.944-1.392c.752-.352 1.584-.528 2.496-.528 1.536 0 2.808.536 3.816 1.608V7.688zm15.484 3.168c-.8-.416-1.584-.624-2.352-.624-.4 0-.728.08-.984.24-.24.16-.36.376-.36.648 0 .144.016.264.048.36.048.08.136.16.264.24.144.08.344.152.6.216.272.064.624.144 1.056.24 1.2.24 2.096.672 2.688 1.296.592.608.888 1.392.888 2.352 0 .72-.144 1.368-.432 1.944a4.247 4.247 0 01-1.2 1.464c-.512.384-1.128.68-1.848.888a7.969 7.969 0 01-2.376.336c-1.664 0-3.304-.472-4.92-1.416l1.584-3.072c1.216.832 2.368 1.248 3.456 1.248.4 0 .728-.088.984-.264.256-.176.384-.4.384-.672a.865.865 0 00-.072-.384.512.512 0 00-.24-.288c-.128-.096-.32-.176-.576-.24-.24-.08-.56-.16-.96-.24-1.344-.272-2.288-.672-2.832-1.2-.528-.544-.792-1.288-.792-2.232 0-.688.128-1.304.384-1.848a3.826 3.826 0 011.104-1.416c.48-.384 1.056-.68 1.728-.888a7.856 7.856 0 012.28-.312c1.36 0 2.68.264 3.96.792l-1.464 2.832zm12.207-3.168h4.344v1.56c.592-.72 1.192-1.2 1.8-1.44.608-.256 1.32-.384 2.136-.384.864 0 1.6.144 2.208.432a4.281 4.281 0 011.584 1.176c.352.416.592.88.72 1.392a7.25 7.25 0 01.192 1.752V20h-4.344v-6.216c0-.608-.048-1.096-.144-1.464-.08-.384-.232-.688-.456-.912a1.646 1.646 0 00-.648-.408c-.24-.08-.496-.12-.768-.12-.736 0-1.304.224-1.704.672-.384.432-.576 1.056-.576 1.872V20h-4.344V7.688zm20.042 6.096c0 .416.072.8.216 1.152.16.336.36.632.6.888.256.256.552.456.888.6.352.144.72.216 1.104.216.384 0 .744-.072 1.08-.216a2.49 2.49 0 00.888-.6c.256-.256.456-.552.6-.888.16-.352.24-.728.24-1.128 0-.384-.08-.744-.24-1.08a2.742 2.742 0 00-.6-.912 2.49 2.49 0 00-.888-.6 2.712 2.712 0 00-1.08-.216c-.384 0-.752.072-1.104.216a2.808 2.808 0 00-.888.6c-.24.256-.44.552-.6.888a2.712 2.712 0 00-.216 1.08zm-4.584-.048c0-.912.184-1.76.552-2.544.368-.8.88-1.488 1.536-2.064a7.214 7.214 0 012.328-1.392c.912-.336 1.904-.504 2.976-.504 1.056 0 2.032.168 2.928.504.912.32 1.696.776 2.352 1.368a5.921 5.921 0 011.56 2.088c.368.8.552 1.688.552 2.664 0 .976-.192 1.872-.576 2.688-.368.8-.88 1.496-1.536 2.088-.656.576-1.448 1.024-2.376 1.344-.912.32-1.904.48-2.976.48-1.056 0-2.032-.16-2.928-.48a6.89 6.89 0 01-2.328-1.368 6.463 6.463 0 01-1.512-2.112c-.368-.832-.552-1.752-.552-2.76zm34.729-2.064c-.752-.512-1.512-.768-2.28-.768-.416 0-.808.072-1.176.216a2.824 2.824 0 00-.936.624 2.8 2.8 0 00-.648.936 3.146 3.146 0 00-.216 1.2c0 .432.072.832.216 1.2.16.352.368.664.624.936.272.256.592.456.96.6.368.144.76.216 1.176.216.816 0 1.576-.28 2.28-.84v3.696c-1.072.464-2.088.696-3.048.696a7.296 7.296 0 01-2.568-.456 6.766 6.766 0 01-2.136-1.296 6.704 6.704 0 01-1.464-2.04c-.368-.8-.552-1.688-.552-2.664 0-.976.176-1.864.528-2.664a6.244 6.244 0 011.44-2.088 6.297 6.297 0 012.16-1.368 7.294 7.294 0 012.712-.504c1.056 0 2.032.224 2.928.672v3.696zm6.581 2.112c0 .416.072.8.216 1.152.16.336.36.632.6.888.256.256.552.456.888.6.352.144.72.216 1.104.216.384 0 .744-.072 1.08-.216a2.49 2.49 0 00.888-.6c.256-.256.456-.552.6-.888.16-.352.24-.728.24-1.128 0-.384-.08-.744-.24-1.08a2.742 2.742 0 00-.6-.912 2.49 2.49 0 00-.888-.6 2.712 2.712 0 00-1.08-.216c-.384 0-.752.072-1.104.216a2.808 2.808 0 00-.888.6c-.24.256-.44.552-.6.888a2.712 2.712 0 00-.216 1.08zm-4.584-.048c0-.912.184-1.76.552-2.544.368-.8.88-1.488 1.536-2.064a7.214 7.214 0 012.328-1.392c.912-.336 1.904-.504 2.976-.504 1.056 0 2.032.168 2.928.504.912.32 1.696.776 2.352 1.368a5.921 5.921 0 011.56 2.088c.368.8.552 1.688.552 2.664 0 .976-.192 1.872-.576 2.688-.368.8-.88 1.496-1.536 2.088-.656.576-1.448 1.024-2.376 1.344-.912.32-1.904.48-2.976.48-1.056 0-2.032-.16-2.928-.48a6.89 6.89 0 01-2.328-1.368 6.463 6.463 0 01-1.512-2.112c-.368-.832-.552-1.752-.552-2.76zm17.285-6.048h4.344V9.2c1.184-1.136 2.512-1.704 3.984-1.704 1.824 0 3.216.768 4.176 2.304.976-1.552 2.368-2.328 4.176-2.328.576 0 1.12.088 1.632.264.512.16.952.424 1.32.792.368.352.656.816.864 1.392.224.576.336 1.272.336 2.088V20h-4.344v-6.072c0-.624-.048-1.136-.144-1.536-.08-.4-.208-.712-.384-.936a1.206 1.206 0 00-.576-.456 2.125 2.125 0 00-.72-.12c-1.392 0-2.088 1.016-2.088 3.048V20h-4.344v-6.072c0-.624-.04-1.136-.12-1.536-.08-.416-.2-.744-.36-.984a1.05 1.05 0 00-.576-.48 2.253 2.253 0 00-.84-.144c-.272 0-.528.04-.768.12-.24.08-.456.24-.648.48-.176.224-.32.544-.432.96-.096.4-.144.928-.144 1.584V20h-4.344V7.688zm34.05 6.192c0-.384-.072-.744-.216-1.08a2.462 2.462 0 00-.576-.912 2.742 2.742 0 00-.912-.6 2.535 2.535 0 00-1.104-.24c-.384 0-.744.072-1.08.216a2.808 2.808 0 00-.888.6c-.24.256-.44.56-.6.912a2.712 2.712 0 00-.216 1.08c0 .384.072.744.216 1.08.144.336.344.632.6.888.256.24.552.44.888.6.352.144.72.216 1.104.216.384 0 .744-.072 1.08-.216a2.54 2.54 0 00.864-.6c.256-.256.456-.552.6-.888.16-.336.24-.688.24-1.056zm-5.472 12.264h-4.344V7.688h4.344v1.368c.928-1.168 2.192-1.752 3.792-1.752.88 0 1.696.176 2.448.528.768.336 1.432.8 1.992 1.392.56.592.992 1.288 1.296 2.088.32.8.48 1.656.48 2.568 0 .912-.16 1.76-.48 2.544a6.268 6.268 0 01-1.296 2.064 5.85 5.85 0 01-1.944 1.392 5.932 5.932 0 01-2.448.504c-1.536 0-2.816-.528-3.84-1.584v7.344zm16.516-12.336c0 .4.072.776.216 1.128.144.336.336.632.576.888.256.256.552.456.888.6a2.95 2.95 0 001.128.216c.384 0 .744-.072 1.08-.216a2.49 2.49 0 00.888-.6c.256-.256.456-.552.6-.888.16-.336.24-.696.24-1.08 0-.384-.08-.744-.24-1.08a2.742 2.742 0 00-.6-.912 2.49 2.49 0 00-.888-.6 2.712 2.712 0 00-1.08-.216c-.4 0-.776.072-1.128.216a2.808 2.808 0 00-.888.6c-.24.256-.432.552-.576.888-.144.32-.216.672-.216 1.056zm5.472-6.12h4.368V20h-4.368v-1.368c-.928 1.168-2.184 1.752-3.768 1.752-.896 0-1.72-.16-2.472-.48a6.115 6.115 0 01-1.968-1.392c-.56-.592-1-1.288-1.32-2.088a7.306 7.306 0 01-.456-2.616c0-.88.152-1.712.456-2.496a6.42 6.42 0 011.272-2.088 5.85 5.85 0 011.944-1.392c.752-.352 1.584-.528 2.496-.528 1.536 0 2.808.536 3.816 1.608V7.688zm7.324 0h4.344v2.016c.464-.736 1.032-1.296 1.704-1.68.672-.4 1.456-.6 2.352-.6h.36c.144 0 .304.016.48.048v4.152a4.127 4.127 0 00-1.872-.432c-1.008 0-1.768.304-2.28.912-.496.592-.744 1.464-.744 2.616V20h-4.344V7.688zm16.473 3.624V20h-4.344v-8.688h-1.44V7.688h1.44V3.992h4.344v3.696h2.472v3.624h-2.472zm8.778-3.624V20h-4.344V7.688h4.344zM273.88 2.96c0-.336.064-.648.192-.936.128-.304.304-.568.528-.792.224-.224.48-.4.768-.528.304-.128.624-.192.96-.192.336 0 .648.064.936.192.304.128.568.304.792.528.224.224.4.488.528.792.128.288.192.6.192.936 0 .336-.064.656-.192.96a2.531 2.531 0 01-.528.768c-.224.224-.488.4-.792.528-.288.128-.6.192-.936.192-.336 0-.656-.064-.96-.192a2.531 2.531 0 01-.768-.528c-.224-.224-.4-.48-.528-.768a2.449 2.449 0 01-.192-.96zm7.6 4.728h4.344V9.2c1.184-1.136 2.512-1.704 3.984-1.704 1.824 0 3.216.768 4.176 2.304.976-1.552 2.368-2.328 4.176-2.328.576 0 1.12.088 1.632.264.512.16.952.424 1.32.792.368.352.656.816.864 1.392.224.576.336 1.272.336 2.088V20h-4.344v-6.072c0-.624-.048-1.136-.144-1.536-.08-.4-.208-.712-.384-.936a1.206 1.206 0 00-.576-.456 2.125 2.125 0 00-.72-.12c-1.392 0-2.088 1.016-2.088 3.048V20h-4.344v-6.072c0-.624-.04-1.136-.12-1.536-.08-.416-.2-.744-.36-.984a1.05 1.05 0 00-.576-.48 2.253 2.253 0 00-.84-.144c-.272 0-.528.04-.768.12-.24.08-.456.24-.648.48-.176.224-.32.544-.432.96-.096.4-.144.928-.144 1.584V20h-4.344V7.688zm27.917 6.096c0 .416.072.8.216 1.152.16.336.36.632.6.888.256.256.552.456.888.6.352.144.72.216 1.104.216.384 0 .744-.072 1.08-.216a2.49 2.49 0 00.888-.6c.256-.256.456-.552.6-.888.16-.352.24-.728.24-1.128 0-.384-.08-.744-.24-1.08a2.742 2.742 0 00-.6-.912 2.49 2.49 0 00-.888-.6 2.712 2.712 0 00-1.08-.216c-.384 0-.752.072-1.104.216a2.808 2.808 0 00-.888.6c-.24.256-.44.552-.6.888a2.712 2.712 0 00-.216 1.08zm-4.584-.048c0-.912.184-1.76.552-2.544.368-.8.88-1.488 1.536-2.064a7.214 7.214 0 012.328-1.392c.912-.336 1.904-.504 2.976-.504 1.056 0 2.032.168 2.928.504.912.32 1.696.776 2.352 1.368a5.921 5.921 0 011.56 2.088c.368.8.552 1.688.552 2.664 0 .976-.192 1.872-.576 2.688-.368.8-.88 1.496-1.536 2.088-.656.576-1.448 1.024-2.376 1.344-.912.32-1.904.48-2.976.48-1.056 0-2.032-.16-2.928-.48a6.89 6.89 0 01-2.328-1.368 6.463 6.463 0 01-1.512-2.112c-.368-.832-.552-1.752-.552-2.76zm25.444-2.88c-.8-.416-1.584-.624-2.352-.624-.4 0-.728.08-.984.24-.24.16-.36.376-.36.648 0 .144.016.264.048.36.048.08.136.16.264.24.144.08.344.152.6.216.272.064.624.144 1.056.24 1.2.24 2.096.672 2.688 1.296.592.608.888 1.392.888 2.352 0 .72-.144 1.368-.432 1.944a4.247 4.247 0 01-1.2 1.464c-.512.384-1.128.68-1.848.888a7.969 7.969 0 01-2.376.336c-1.664 0-3.304-.472-4.92-1.416l1.584-3.072c1.216.832 2.368 1.248 3.456 1.248.4 0 .728-.088.984-.264.256-.176.384-.4.384-.672a.865.865 0 00-.072-.384.512.512 0 00-.24-.288c-.128-.096-.32-.176-.576-.24-.24-.08-.56-.16-.96-.24-1.344-.272-2.288-.672-2.832-1.2-.528-.544-.792-1.288-.792-2.232 0-.688.128-1.304.384-1.848a3.826 3.826 0 011.104-1.416c.48-.384 1.056-.68 1.728-.888a7.856 7.856 0 012.28-.312c1.36 0 2.68.264 3.96.792l-1.464 2.832zM.488 35.688h4.344v1.56c.592-.72 1.192-1.2 1.8-1.44.608-.256 1.32-.384 2.136-.384.864 0 1.6.144 2.208.432a4.281 4.281 0 011.584 1.176c.352.416.592.88.72 1.392a7.25 7.25 0 01.192 1.752V48H9.128v-6.216c0-.608-.048-1.096-.144-1.464-.08-.384-.232-.688-.456-.912A1.646 1.646 0 007.88 39c-.24-.08-.496-.12-.768-.12-.736 0-1.304.224-1.704.672-.384.432-.576 1.056-.576 1.872V48H.488V35.688zm20.282 0v6.936c0 1.52.736 2.28 2.207 2.28 1.473 0 2.209-.76 2.209-2.28v-6.936h4.343v7.776c0 1.664-.552 2.912-1.655 3.744-1.088.832-2.72 1.248-4.896 1.248-2.177 0-3.817-.416-4.92-1.248-1.088-.832-1.633-2.08-1.633-3.744v-7.776h4.345zm20.71 4.368c-.144-.608-.44-1.096-.888-1.464-.448-.368-.992-.552-1.632-.552-.672 0-1.224.176-1.656.528-.416.352-.68.848-.792 1.488h4.968zm-5.088 2.52c0 1.872.88 2.808 2.64 2.808.944 0 1.656-.384 2.136-1.152h4.2c-.848 2.816-2.968 4.224-6.36 4.224-1.04 0-1.992-.152-2.856-.456a6.656 6.656 0 01-2.232-1.344 6.015 6.015 0 01-1.416-2.064c-.336-.8-.504-1.696-.504-2.688 0-1.024.16-1.944.48-2.76a5.81 5.81 0 011.368-2.112 5.943 5.943 0 012.136-1.32c.848-.32 1.8-.48 2.856-.48 1.04 0 1.976.16 2.808.48a5.56 5.56 0 012.112 1.344c.576.592 1.016 1.32 1.32 2.184.304.848.456 1.808.456 2.88v.456h-9.144zm19.787-3.72c-.8-.416-1.584-.624-2.352-.624-.4 0-.728.08-.984.24-.24.16-.36.376-.36.648 0 .144.016.264.048.36.048.08.136.16.264.24.144.08.344.152.6.216.272.064.624.144 1.056.24 1.2.24 2.096.672 2.688 1.296.592.608.888 1.392.888 2.352 0 .72-.144 1.368-.432 1.944a4.247 4.247 0 01-1.2 1.464c-.512.384-1.128.68-1.848.888a7.969 7.969 0 01-2.376.336c-1.664 0-3.304-.472-4.92-1.416l1.584-3.072c1.216.832 2.368 1.248 3.456 1.248.4 0 .728-.088.984-.264.256-.176.384-.4.384-.672a.863.863 0 00-.072-.384.512.512 0 00-.24-.288c-.128-.096-.32-.176-.576-.24-.24-.08-.56-.16-.96-.24-1.344-.272-2.288-.672-2.832-1.2-.528-.544-.792-1.288-.792-2.232 0-.688.128-1.304.384-1.848a3.826 3.826 0 011.104-1.416c.48-.384 1.056-.68 1.728-.888a7.856 7.856 0 012.28-.312c1.36 0 2.68.264 3.96.792l-1.464 2.832zm9.227.456V48h-4.344v-8.688h-1.44v-3.624h1.44v-3.696h4.344v3.696h2.472v3.624h-2.472zm4.105-3.624h4.344v2.016c.464-.736 1.032-1.296 1.704-1.68.672-.4 1.456-.6 2.352-.6h.36c.144 0 .304.016.48.048v4.152a4.127 4.127 0 00-1.872-.432c-1.008 0-1.768.304-2.28.912-.496.592-.744 1.464-.744 2.616V48h-4.344V35.688zm15.378 6.096c0 .416.072.8.216 1.152.16.336.36.632.6.888.256.256.552.456.888.6.352.144.72.216 1.104.216.384 0 .744-.072 1.08-.216a2.49 2.49 0 00.888-.6c.256-.256.456-.552.6-.888.16-.352.24-.728.24-1.128 0-.384-.08-.744-.24-1.08a2.742 2.742 0 00-.6-.912 2.49 2.49 0 00-.888-.6 2.712 2.712 0 00-1.08-.216c-.384 0-.752.072-1.104.216a2.808 2.808 0 00-.888.6c-.24.256-.44.552-.6.888a2.712 2.712 0 00-.216 1.08zm-4.584-.048c0-.912.184-1.76.552-2.544.368-.8.88-1.488 1.536-2.064a7.214 7.214 0 012.328-1.392c.912-.336 1.904-.504 2.976-.504 1.056 0 2.032.168 2.928.504.912.32 1.696.776 2.352 1.368a5.921 5.921 0 011.56 2.088c.368.8.552 1.688.552 2.664 0 .976-.192 1.872-.576 2.688-.368.8-.88 1.496-1.536 2.088-.656.576-1.448 1.024-2.376 1.344-.912.32-1.904.48-2.976.48-1.056 0-2.032-.16-2.928-.48a6.89 6.89 0 01-2.328-1.368 6.463 6.463 0 01-1.512-2.112c-.368-.832-.552-1.752-.552-2.76zm25.441-6.048h4.344v1.56c.592-.72 1.192-1.2 1.8-1.44.608-.256 1.32-.384 2.136-.384.864 0 1.6.144 2.208.432a4.281 4.281 0 011.584 1.176c.352.416.592.88.72 1.392a7.25 7.25 0 01.192 1.752V48h-4.344v-6.216c0-.608-.048-1.096-.144-1.464-.08-.384-.232-.688-.456-.912a1.646 1.646 0 00-.648-.408c-.24-.08-.496-.12-.768-.12-.736 0-1.304.224-1.704.672-.384.432-.576 1.056-.576 1.872V48h-4.344V35.688zm20.281 0v6.936c0 1.52.736 2.28 2.208 2.28 1.472 0 2.208-.76 2.208-2.28v-6.936h4.344v7.776c0 1.664-.552 2.912-1.656 3.744-1.088.832-2.72 1.248-4.896 1.248-2.176 0-3.816-.416-4.92-1.248-1.088-.832-1.632-2.08-1.632-3.744v-7.776h4.344zm6.384-5.496l-4.176 3.696-2.016-1.488 3.432-4.2 2.76 1.992zm5.327 5.496h4.344V37.2c1.184-1.136 2.512-1.704 3.984-1.704 1.824 0 3.216.768 4.176 2.304.976-1.552 2.368-2.328 4.176-2.328.576 0 1.12.088 1.632.264.512.16.952.424 1.32.792.368.352.656.816.864 1.392.224.576.336 1.272.336 2.088V48h-4.344v-6.072c0-.624-.048-1.136-.144-1.536-.08-.4-.208-.712-.384-.936a1.206 1.206 0 00-.576-.456 2.125 2.125 0 00-.72-.12c-1.392 0-2.088 1.016-2.088 3.048V48h-4.344v-6.072c0-.624-.04-1.136-.12-1.536-.08-.416-.2-.744-.36-.984a1.05 1.05 0 00-.576-.48 2.253 2.253 0 00-.84-.144c-.272 0-.528.04-.768.12-.24.08-.456.24-.648.48-.176.224-.32.544-.432.96-.096.4-.144.928-.144 1.584V48h-4.344V35.688zm32.813 4.368c-.144-.608-.44-1.096-.888-1.464-.448-.368-.992-.552-1.632-.552-.672 0-1.224.176-1.656.528-.416.352-.68.848-.792 1.488h4.968zm-5.088 2.52c0 1.872.88 2.808 2.64 2.808.944 0 1.656-.384 2.136-1.152h4.2c-.848 2.816-2.968 4.224-6.36 4.224-1.04 0-1.992-.152-2.856-.456a6.656 6.656 0 01-2.232-1.344 6.015 6.015 0 01-1.416-2.064c-.336-.8-.504-1.696-.504-2.688 0-1.024.16-1.944.48-2.76a5.81 5.81 0 011.368-2.112 5.943 5.943 0 012.136-1.32c.848-.32 1.8-.48 2.856-.48 1.04 0 1.976.16 2.808.48a5.56 5.56 0 012.112 1.344c.576.592 1.016 1.32 1.32 2.184.304.848.456 1.808.456 2.88v.456h-9.144zm11.627-6.888h4.344v2.016c.464-.736 1.032-1.296 1.704-1.68.672-.4 1.456-.6 2.352-.6h.36c.144 0 .304.016.48.048v4.152a4.127 4.127 0 00-1.872-.432c-1.008 0-1.768.304-2.28.912-.496.592-.744 1.464-.744 2.616V48h-4.344V35.688zm15.377 6.096c0 .416.072.8.216 1.152.16.336.36.632.6.888.256.256.552.456.888.6.352.144.72.216 1.104.216.384 0 .744-.072 1.08-.216a2.49 2.49 0 00.888-.6c.256-.256.456-.552.6-.888.16-.352.24-.728.24-1.128 0-.384-.08-.744-.24-1.08a2.742 2.742 0 00-.6-.912 2.49 2.49 0 00-.888-.6 2.712 2.712 0 00-1.08-.216c-.384 0-.752.072-1.104.216a2.808 2.808 0 00-.888.6c-.24.256-.44.552-.6.888a2.712 2.712 0 00-.216 1.08zm-4.584-.048c0-.912.184-1.76.552-2.544.368-.8.88-1.488 1.536-2.064a7.214 7.214 0 012.328-1.392c.912-.336 1.904-.504 2.976-.504 1.056 0 2.032.168 2.928.504.912.32 1.696.776 2.352 1.368a5.921 5.921 0 011.56 2.088c.368.8.552 1.688.552 2.664 0 .976-.192 1.872-.576 2.688-.368.8-.88 1.496-1.536 2.088-.656.576-1.448 1.024-2.376 1.344-.912.32-1.904.48-2.976.48-1.056 0-2.032-.16-2.928-.48a6.89 6.89 0 01-2.328-1.368 6.463 6.463 0 01-1.512-2.112c-.368-.832-.552-1.752-.552-2.76zm29.473.072c0 .4.072.776.216 1.128.144.336.336.632.576.888.256.256.552.456.888.6a2.95 2.95 0 001.128.216c.384 0 .744-.072 1.08-.216a2.49 2.49 0 00.888-.6c.256-.256.456-.552.6-.888.16-.336.24-.696.24-1.08 0-.384-.08-.744-.24-1.08a2.742 2.742 0 00-.6-.912 2.49 2.49 0 00-.888-.6 2.712 2.712 0 00-1.08-.216c-.384 0-.752.072-1.104.216a2.808 2.808 0 00-.888.6c-.24.256-.44.552-.6.888-.144.32-.216.672-.216 1.056zm5.472-13.728h4.368V48h-4.368v-1.368c-.928 1.168-2.184 1.752-3.768 1.752a5.99 5.99 0 01-4.44-1.896c-.56-.592-1-1.288-1.32-2.088a7.237 7.237 0 01-.456-2.592c0-.88.144-1.712.432-2.496a6.42 6.42 0 011.272-2.088 5.85 5.85 0 011.944-1.392 5.975 5.975 0 012.52-.528c1.536 0 2.808.536 3.816 1.608V28.08zm16.324 11.976c-.144-.608-.44-1.096-.888-1.464-.448-.368-.992-.552-1.632-.552-.672 0-1.224.176-1.656.528-.416.352-.68.848-.792 1.488h4.968zm-5.088 2.52c0 1.872.88 2.808 2.64 2.808.944 0 1.656-.384 2.136-1.152h4.2c-.848 2.816-2.968 4.224-6.36 4.224-1.04 0-1.992-.152-2.856-.456a6.656 6.656 0 01-2.232-1.344 6.015 6.015 0 01-1.416-2.064c-.336-.8-.504-1.696-.504-2.688 0-1.024.16-1.944.48-2.76a5.81 5.81 0 011.368-2.112 5.943 5.943 0 012.136-1.32c.848-.32 1.8-.48 2.856-.48 1.04 0 1.976.16 2.808.48a5.56 5.56 0 012.112 1.344c.576.592 1.016 1.32 1.32 2.184.304.848.456 1.808.456 2.88v.456h-9.144zM253.439 48l3.072-18.096h4.656l3.624 9.648 3.6-9.648h4.656L276.119 48h-4.68l-1.56-10.416L265.607 48h-1.872l-4.056-10.416L258.119 48h-4.68zm33.596-7.944c-.144-.608-.44-1.096-.888-1.464-.448-.368-.992-.552-1.632-.552-.672 0-1.224.176-1.656.528-.416.352-.68.848-.792 1.488h4.968zm-5.088 2.52c0 1.872.88 2.808 2.64 2.808.944 0 1.656-.384 2.136-1.152h4.2c-.848 2.816-2.968 4.224-6.36 4.224-1.04 0-1.992-.152-2.856-.456a6.656 6.656 0 01-2.232-1.344 6.015 6.015 0 01-1.416-2.064c-.336-.8-.504-1.696-.504-2.688 0-1.024.16-1.944.48-2.76a5.81 5.81 0 011.368-2.112 5.943 5.943 0 012.136-1.32c.848-.32 1.8-.48 2.856-.48 1.04 0 1.976.16 2.808.48a5.56 5.56 0 012.112 1.344c.576.592 1.016 1.32 1.32 2.184.304.848.456 1.808.456 2.88v.456h-9.144zm15.659-.768c0 .4.072.776.216 1.128.144.336.336.632.576.888.256.256.552.456.888.6a2.95 2.95 0 001.128.216c.384 0 .744-.072 1.08-.216a2.49 2.49 0 00.888-.6c.256-.256.456-.552.6-.888.16-.336.24-.696.24-1.08 0-.384-.08-.744-.24-1.08a2.742 2.742 0 00-.6-.912 2.49 2.49 0 00-.888-.6 2.712 2.712 0 00-1.08-.216c-.384 0-.752.072-1.104.216a2.808 2.808 0 00-.888.6c-.24.256-.44.552-.6.888-.144.32-.216.672-.216 1.056zm5.472-13.728h4.368V48h-4.368v-1.368c-.928 1.168-2.184 1.752-3.768 1.752a5.99 5.99 0 01-4.44-1.896c-.56-.592-1-1.288-1.32-2.088a7.237 7.237 0 01-.456-2.592c0-.88.144-1.712.432-2.496a6.42 6.42 0 011.272-2.088 5.85 5.85 0 011.944-1.392 5.975 5.975 0 012.52-.528c1.536 0 2.808.536 3.816 1.608V28.08zm11.668 7.608V48h-4.344V35.688h4.344zm-4.632-4.728c0-.336.064-.648.192-.936.128-.304.304-.568.528-.792.224-.224.48-.4.768-.528.304-.128.624-.192.96-.192.336 0 .648.064.936.192.304.128.568.304.792.528.224.224.4.488.528.792.128.288.192.6.192.936 0 .336-.064.656-.192.96a2.531 2.531 0 01-.528.768c-.224.224-.488.4-.792.528-.288.128-.6.192-.936.192-.336 0-.656-.064-.96-.192a2.531 2.531 0 01-.768-.528c-.224-.224-.4-.48-.528-.768a2.449 2.449 0 01-.192-.96zm16.889 8.712c-.752-.512-1.512-.768-2.28-.768-.416 0-.808.072-1.176.216a2.824 2.824 0 00-.936.624 2.8 2.8 0 00-.648.936 3.146 3.146 0 00-.216 1.2c0 .432.072.832.216 1.2.16.352.368.664.624.936.272.256.592.456.96.6.368.144.76.216 1.176.216.816 0 1.576-.28 2.28-.84v3.696c-1.072.464-2.088.696-3.048.696a7.296 7.296 0 01-2.568-.456 6.766 6.766 0 01-2.136-1.296 6.704 6.704 0 01-1.464-2.04c-.368-.8-.552-1.688-.552-2.664 0-.976.176-1.864.528-2.664a6.244 6.244 0 011.44-2.088 6.297 6.297 0 012.16-1.368 7.294 7.294 0 012.712-.504c1.056 0 2.032.224 2.928.672v3.696zm6.509 2.136c0 .4.072.776.216 1.128.144.336.336.632.576.888.256.256.552.456.888.6a2.95 2.95 0 001.128.216c.384 0 .744-.072 1.08-.216a2.49 2.49 0 00.888-.6c.256-.256.456-.552.6-.888.16-.336.24-.696.24-1.08 0-.384-.08-.744-.24-1.08a2.742 2.742 0 00-.6-.912 2.49 2.49 0 00-.888-.6 2.712 2.712 0 00-1.08-.216c-.4 0-.776.072-1.128.216a2.808 2.808 0 00-.888.6c-.24.256-.432.552-.576.888-.144.32-.216.672-.216 1.056zm5.472-6.12h4.368V48h-4.368v-1.368c-.928 1.168-2.184 1.752-3.768 1.752-.896 0-1.72-.16-2.472-.48a6.115 6.115 0 01-1.968-1.392c-.56-.592-1-1.288-1.32-2.088a7.306 7.306 0 01-.456-2.616c0-.88.152-1.712.456-2.496a6.42 6.42 0 011.272-2.088 5.85 5.85 0 011.944-1.392c.752-.352 1.584-.528 2.496-.528 1.536 0 2.808.536 3.816 1.608v-1.224zm7.324 0h4.344v2.016c.464-.736 1.032-1.296 1.704-1.68.672-.4 1.456-.6 2.352-.6h.36c.144 0 .304.016.48.048v4.152a4.127 4.127 0 00-1.872-.432c-1.008 0-1.768.304-2.28.912-.496.592-.744 1.464-.744 2.616V48h-4.344V35.688zm20.321 4.368c-.144-.608-.44-1.096-.888-1.464-.448-.368-.992-.552-1.632-.552-.672 0-1.224.176-1.656.528-.416.352-.68.848-.792 1.488h4.968zm-5.088 2.52c0 1.872.88 2.808 2.64 2.808.944 0 1.656-.384 2.136-1.152h4.2c-.848 2.816-2.968 4.224-6.36 4.224-1.04 0-1.992-.152-2.856-.456a6.656 6.656 0 01-2.232-1.344 6.015 6.015 0 01-1.416-2.064c-.336-.8-.504-1.696-.504-2.688 0-1.024.16-1.944.48-2.76a5.81 5.81 0 011.368-2.112 5.943 5.943 0 012.136-1.32c.848-.32 1.8-.48 2.856-.48 1.04 0 1.976.16 2.808.48a5.56 5.56 0 012.112 1.344c.576.592 1.016 1.32 1.32 2.184.304.848.456 1.808.456 2.88v.456h-9.144zm11.411 3.12c0-.384.072-.744.216-1.08.144-.352.344-.656.6-.912s.552-.456.888-.6c.352-.144.72-.216 1.104-.216.384 0 .744.072 1.08.216.352.144.656.344.912.6s.456.56.6.912c.144.336.216.696.216 1.08 0 .384-.072.752-.216 1.104a2.808 2.808 0 01-.6.888c-.256.256-.56.456-.912.6a2.712 2.712 0 01-1.08.216c-.384 0-.752-.072-1.104-.216a2.808 2.808 0 01-1.488-1.488 2.888 2.888 0 01-.216-1.104z" fill="#fff"/></svg>