<svg width="231" height="52" viewBox="0 0 231 52" fill="none" xmlns="http://www.w3.org/2000/svg"><rect x="2.001" y="1" width="227.259" height="50" rx="7" fill="#DEEDFC" stroke="#09C0CB" stroke-width="2"/><path d="M29.108 30.593h.855c.646 0 1.223-.102 1.73-.304a3.595 3.595 0 001.272-.836c.355-.355.621-.773.798-1.254.19-.494.285-1.033.285-1.615 0-.57-.095-1.102-.285-1.596a3.605 3.605 0 00-.816-1.273 3.592 3.592 0 00-1.274-.836c-.506-.203-1.076-.304-1.71-.304h-.855v8.018zM25.384 19.42h5.51c.976 0 1.888.196 2.736.589a7.245 7.245 0 012.242 1.577 7.05 7.05 0 011.52 2.28c.368.86.551 1.767.551 2.717 0 .937-.183 1.843-.55 2.717a7.069 7.069 0 01-1.502 2.28 7.248 7.248 0 01-2.241 1.577 6.481 6.481 0 01-2.755.589h-5.51V19.42zm23.468 3.154h-4.427v2.394h4.18v3.154h-4.18v2.47h4.427v3.154h-8.151V19.42h8.151v3.154zm8.499 0v11.172h-3.724V22.575h-3.059V19.42h9.842v3.154h-3.059zm13.246 0H66.17v2.394h4.18v3.154h-4.18v2.47h4.427v3.154h-8.15V19.42h8.15v3.154zm-.703-6.802l-3.648 2.508-1.444-1.35 3.097-2.963 1.995 1.805zm3.768 17.974V19.42h3.724l6.878 8.759v-8.76h3.705v14.327h-3.705l-6.878-8.76v8.76h-3.724zm32.68-11.172h-4.427v2.394h4.18v3.154h-4.18v2.47h4.427v3.154h-8.151V19.42h8.151v3.154zm6.789-3.154v11.172h4.465v3.154h-8.189V19.42h3.724zm21.813 3.154h-4.484v2.394h4.085v3.154h-4.085v5.624h-3.724V19.42h8.208v3.154zm6.324 3.249h.703c.735 0 1.298-.152 1.691-.456.393-.304.589-.741.589-1.311s-.196-1.007-.589-1.311c-.393-.304-.956-.456-1.691-.456h-.703v3.534zm8.189 7.923h-4.636l-3.553-5.51v5.51h-3.724V19.42h5.795c.798 0 1.495.12 2.09.36.595.229 1.083.545 1.463.95.393.406.684.875.874 1.407.203.532.304 1.102.304 1.71 0 1.089-.266 1.976-.798 2.66-.519.67-1.292 1.127-2.318 1.368l4.503 5.87zm9.728-5.32l-1.672-4.77-1.672 4.77h3.344zm.988 2.83h-5.32l-.855 2.49h-3.971l5.453-14.326h4.066l5.453 14.326h-3.971l-.855-2.49zm10.151-11.836v7.79c0 .418.012.848.038 1.292.038.43.133.823.285 1.178.164.354.418.646.76.874.342.215.823.323 1.444.323.62 0 1.095-.108 1.425-.323.342-.228.595-.52.76-.874.164-.355.259-.748.285-1.178.038-.444.057-.874.057-1.292v-7.79h3.705v8.303c0 2.229-.513 3.857-1.539 4.883-1.014 1.026-2.578 1.539-4.693 1.539-2.116 0-3.686-.513-4.712-1.54-1.026-1.025-1.539-2.653-1.539-4.882V19.42h3.724zm15.873 11.172h.855c.646 0 1.222-.102 1.729-.304a3.592 3.592 0 001.273-.836c.355-.355.621-.773.798-1.254.19-.494.285-1.033.285-1.615 0-.57-.095-1.102-.285-1.596a3.6 3.6 0 00-.817-1.273 3.59 3.59 0 00-1.273-.836c-.507-.203-1.077-.304-1.71-.304h-.855v8.018zm-3.724-11.172h5.51c.975 0 1.887.196 2.736.589a7.245 7.245 0 012.242 1.577 7.046 7.046 0 011.52 2.28 6.86 6.86 0 01.551 2.717c0 .937-.184 1.843-.551 2.717a7.074 7.074 0 01-1.501 2.28 7.248 7.248 0 01-2.242 1.577 6.482 6.482 0 01-2.755.589h-5.51V19.42zm23.467 3.154h-4.427v2.394h4.18v3.154h-4.18v2.47h4.427v3.154h-8.151V19.42h8.151v3.154z" fill="#4A2B43"/></svg>