<svg width="461" height="45" viewBox="0 0 461 45" fill="none" xmlns="http://www.w3.org/2000/svg"><path d="M14.6 10.48V34H6.76V10.48H.32V3.84h20.72v6.64H14.6zm15.55 3v11.56c0 2.533 1.226 3.8 3.68 3.8 2.453 0 3.68-1.267 3.68-3.8V13.48h7.24v12.96c0 2.773-.92 4.853-2.76 6.24-1.814 1.387-4.534 2.08-8.16 2.08-3.627 0-6.36-.693-8.2-2.08-1.814-1.387-2.72-3.467-2.72-6.24V13.48h7.24zm10.64-9.16l-6.96 6.16L30.47 8l5.72-7 4.6 3.32zm30.551 15.2V34h-7.24V19.52h-2.4v-6.04h2.4V7.32h7.24v6.16h4.12v6.04h-4.12zm13.953 4.16c0 .667.12 1.293.36 1.88.24.56.56 1.053.96 1.48.426.427.92.76 1.48 1 .586.24 1.213.36 1.88.36.64 0 1.24-.12 1.8-.36a4.15 4.15 0 001.48-1c.426-.427.76-.92 1-1.48.266-.56.4-1.16.4-1.8 0-.64-.134-1.24-.4-1.8a4.57 4.57 0 00-1-1.52 4.15 4.15 0 00-1.48-1 4.52 4.52 0 00-1.8-.36c-.667 0-1.294.12-1.88.36a4.68 4.68 0 00-1.48 1c-.4.427-.72.92-.96 1.48a4.24 4.24 0 00-.36 1.76zm9.12-10.2h7.28V34h-7.28v-2.28c-1.547 1.947-3.64 2.92-6.28 2.92-1.494 0-2.867-.267-4.12-.8a10.19 10.19 0 01-3.28-2.32 10.891 10.891 0 01-2.2-3.48c-.507-1.333-.76-2.787-.76-4.36 0-1.467.253-2.853.76-4.16.506-1.333 1.213-2.493 2.12-3.48a9.747 9.747 0 013.24-2.32c1.253-.587 2.64-.88 4.16-.88 2.56 0 4.68.893 6.36 2.68v-2.04zm12.207 0h7.24V16c1.973-1.893 4.186-2.84 6.64-2.84 3.04 0 5.36 1.28 6.96 3.84 1.626-2.587 3.946-3.88 6.96-3.88.96 0 1.866.147 2.72.44a5.3 5.3 0 012.2 1.32c.613.587 1.093 1.36 1.44 2.32.373.96.56 2.12.56 3.48V34h-7.24V23.88c0-1.04-.08-1.893-.24-2.56-.134-.667-.347-1.187-.64-1.56-.267-.373-.587-.627-.96-.76a3.548 3.548 0 00-1.2-.2c-2.32 0-3.48 1.693-3.48 5.08V34h-7.24V23.88c0-1.04-.067-1.893-.2-2.56-.134-.693-.334-1.24-.6-1.64-.24-.4-.56-.667-.96-.8-.4-.16-.867-.24-1.4-.24-.454 0-.88.067-1.28.2s-.76.4-1.08.8c-.294.373-.534.907-.72 1.6-.16.667-.24 1.547-.24 2.64V34h-7.24V13.48zm56.75 10.32c0-.64-.12-1.24-.36-1.8a4.094 4.094 0 00-.96-1.52 4.559 4.559 0 00-1.52-1 4.223 4.223 0 00-1.84-.4c-.64 0-1.24.12-1.8.36s-1.053.573-1.48 1c-.4.427-.733.933-1 1.52a4.52 4.52 0 00-.36 1.8c0 .64.12 1.24.36 1.8s.574 1.053 1 1.48c.427.4.92.733 1.48 1 .587.24 1.2.36 1.84.36.64 0 1.24-.12 1.8-.36s1.04-.573 1.44-1c.427-.427.76-.92 1-1.48.267-.56.4-1.147.4-1.76zm-9.12 20.44h-7.24V13.48h7.24v2.28c1.547-1.947 3.654-2.92 6.32-2.92 1.467 0 2.827.293 4.08.88 1.28.56 2.387 1.333 3.32 2.32a10.335 10.335 0 012.16 3.48c.534 1.333.8 2.76.8 4.28 0 1.52-.266 2.933-.8 4.24a10.425 10.425 0 01-2.16 3.44 9.735 9.735 0 01-3.24 2.32c-1.253.56-2.613.84-4.08.84-2.56 0-4.693-.88-6.4-2.64v12.24zm27.647-20.6c0 .693.12 1.333.36 1.92.267.56.6 1.053 1 1.48.427.427.92.76 1.48 1 .587.24 1.2.36 1.84.36.64 0 1.24-.12 1.8-.36a4.147 4.147 0 001.48-1c.427-.427.76-.92 1-1.48.267-.587.4-1.213.4-1.88 0-.64-.133-1.24-.4-1.8a4.564 4.564 0 00-1-1.52c-.4-.427-.893-.76-1.48-1a4.52 4.52 0 00-1.8-.36c-.64 0-1.253.12-1.84.36-.56.24-1.053.573-1.48 1-.4.427-.733.92-1 1.48a4.52 4.52 0 00-.36 1.8zm-7.64-.08c0-1.52.307-2.933.92-4.24a10.196 10.196 0 012.56-3.44c1.093-.987 2.387-1.76 3.88-2.32 1.52-.56 3.173-.84 4.96-.84 1.76 0 3.387.28 4.88.84 1.52.533 2.827 1.293 3.92 2.28a9.864 9.864 0 012.6 3.48c.613 1.333.92 2.813.92 4.44 0 1.627-.32 3.12-.96 4.48a10.62 10.62 0 01-2.56 3.48c-1.093.96-2.413 1.707-3.96 2.24-1.52.533-3.173.8-4.96.8-1.76 0-3.387-.267-4.88-.8-1.493-.533-2.787-1.293-3.88-2.28a10.762 10.762 0 01-2.52-3.52c-.613-1.387-.92-2.92-.92-4.6zm44.288-3.44c-1.253-.853-2.52-1.28-3.8-1.28a5.33 5.33 0 00-1.96.36 4.7 4.7 0 00-1.56 1.04 4.678 4.678 0 00-1.08 1.56c-.24.587-.36 1.253-.36 2 0 .72.12 1.387.36 2a5.696 5.696 0 001.04 1.56c.453.427.987.76 1.6 1a5.33 5.33 0 001.96.36c1.36 0 2.627-.467 3.8-1.4v6.16c-1.787.773-3.48 1.16-5.08 1.16a12.16 12.16 0 01-4.28-.76 11.282 11.282 0 01-3.56-2.16 11.173 11.173 0 01-2.44-3.4c-.613-1.333-.92-2.813-.92-4.44 0-1.627.293-3.107.88-4.44.587-1.36 1.387-2.52 2.4-3.48 1.013-.987 2.213-1.747 3.6-2.28 1.413-.56 2.92-.84 4.52-.84 1.76 0 3.387.373 4.88 1.12v6.16zm10.969 3.52c0 .693.12 1.333.36 1.92.267.56.6 1.053 1 1.48.427.427.92.76 1.48 1 .587.24 1.2.36 1.84.36.64 0 1.24-.12 1.8-.36a4.147 4.147 0 001.48-1c.427-.427.76-.92 1-1.48.267-.587.4-1.213.4-1.88 0-.64-.133-1.24-.4-1.8a4.564 4.564 0 00-1-1.52c-.4-.427-.893-.76-1.48-1a4.52 4.52 0 00-1.8-.36c-.64 0-1.253.12-1.84.36-.56.24-1.053.573-1.48 1-.4.427-.733.92-1 1.48a4.52 4.52 0 00-.36 1.8zm-7.64-.08c0-1.52.307-2.933.92-4.24a10.209 10.209 0 012.56-3.44c1.094-.987 2.387-1.76 3.88-2.32 1.52-.56 3.174-.84 4.96-.84 1.76 0 3.387.28 4.88.84 1.52.533 2.827 1.293 3.92 2.28a9.864 9.864 0 012.6 3.48c.614 1.333.92 2.813.92 4.44 0 1.627-.32 3.12-.96 4.48a10.605 10.605 0 01-2.56 3.48c-1.093.96-2.413 1.707-3.96 2.24-1.52.533-3.173.8-4.96.8-1.76 0-3.386-.267-4.88-.8-1.493-.533-2.786-1.293-3.88-2.28a10.79 10.79 0 01-2.52-3.52c-.613-1.387-.92-2.92-.92-4.6zm49.122.12c0 .667.12 1.293.36 1.88.24.56.56 1.053.96 1.48.427.427.92.76 1.48 1 .587.24 1.213.36 1.88.36.64 0 1.24-.12 1.8-.36a4.147 4.147 0 001.48-1c.427-.427.76-.92 1-1.48.267-.56.4-1.16.4-1.8 0-.64-.133-1.24-.4-1.8a4.564 4.564 0 00-1-1.52c-.4-.427-.893-.76-1.48-1a4.52 4.52 0 00-1.8-.36c-.64 0-1.253.12-1.84.36-.56.24-1.053.573-1.48 1-.4.427-.733.92-1 1.48a4.24 4.24 0 00-.36 1.76zM280.117.8h7.28V34h-7.28v-2.28c-1.547 1.947-3.64 2.92-6.28 2.92-1.493 0-2.867-.28-4.12-.84a10.191 10.191 0 01-3.28-2.32 10.893 10.893 0 01-2.2-3.48c-.507-1.333-.76-2.773-.76-4.32 0-1.467.24-2.853.72-4.16.507-1.333 1.213-2.493 2.12-3.48a9.755 9.755 0 013.24-2.32c1.28-.587 2.68-.88 4.2-.88 2.56 0 4.68.893 6.36 2.68V.8zm27.207 19.96c-.24-1.013-.734-1.827-1.48-2.44-.747-.613-1.654-.92-2.72-.92-1.12 0-2.04.293-2.76.88-.694.587-1.134 1.413-1.32 2.48h8.28zm-8.48 4.2c0 3.12 1.466 4.68 4.4 4.68 1.573 0 2.76-.64 3.56-1.92h7c-1.414 4.693-4.947 7.04-10.6 7.04-1.734 0-3.32-.253-4.76-.76-1.44-.533-2.68-1.28-3.72-2.24a10.016 10.016 0 01-2.36-3.44c-.56-1.333-.84-2.827-.84-4.48 0-1.707.266-3.24.8-4.6.533-1.387 1.293-2.56 2.28-3.52.986-.96 2.173-1.693 3.56-2.2 1.413-.533 3-.8 4.76-.8 1.733 0 3.293.267 4.68.8 1.386.507 2.56 1.253 3.52 2.24.96.987 1.693 2.2 2.2 3.64.506 1.413.76 3.013.76 4.8v.76h-15.24zm35.738-1.16c0-.64-.12-1.24-.36-1.8a4.564 4.564 0 00-1-1.52 4.672 4.672 0 00-1.48-1 4.223 4.223 0 00-1.84-.4c-.64 0-1.24.12-1.8.36s-1.053.573-1.48 1c-.4.427-.733.933-1 1.52a4.52 4.52 0 00-.36 1.8c0 .64.12 1.24.36 1.8s.574 1.053 1 1.48c.427.4.92.733 1.48 1 .587.24 1.2.36 1.84.36.64 0 1.24-.12 1.8-.36s1.04-.573 1.44-1c.427-.427.76-.92 1-1.48.267-.56.4-1.147.4-1.76zm-9.12-23v14.72c1.707-1.787 3.84-2.68 6.4-2.68 1.52 0 2.907.293 4.16.88 1.28.56 2.36 1.333 3.24 2.32.907.96 1.614 2.107 2.12 3.44.507 1.307.76 2.707.76 4.2 0 1.52-.266 2.947-.8 4.28a10.335 10.335 0 01-2.16 3.48 10.591 10.591 0 01-3.32 2.36c-1.253.56-2.613.84-4.08.84-2.666 0-4.773-.973-6.32-2.92V34h-7.24V.8h7.24zm35.807 19.96c-.24-1.013-.733-1.827-1.48-2.44s-1.653-.92-2.72-.92c-1.12 0-2.04.293-2.76.88-.693.587-1.133 1.413-1.32 2.48h8.28zm-8.48 4.2c0 3.12 1.467 4.68 4.4 4.68 1.573 0 2.76-.64 3.56-1.92h7c-1.413 4.693-4.947 7.04-10.6 7.04-1.733 0-3.32-.253-4.76-.76-1.44-.533-2.68-1.28-3.72-2.24a10.03 10.03 0 01-2.36-3.44c-.56-1.333-.84-2.827-.84-4.48 0-1.707.267-3.24.8-4.6.533-1.387 1.293-2.56 2.28-3.52.987-.96 2.173-1.693 3.56-2.2 1.413-.533 3-.8 4.76-.8 1.733 0 3.293.267 4.68.8 1.387.507 2.56 1.253 3.52 2.24.96.987 1.693 2.2 2.2 3.64.507 1.413.76 3.013.76 4.8v.76h-15.24zm19.379-11.48h7.24v3.36c.773-1.227 1.72-2.16 2.84-2.8 1.12-.667 2.426-1 3.92-1h.6c.24 0 .506.027.8.08v6.92c-.96-.48-2-.72-3.12-.72-1.68 0-2.947.507-3.8 1.52-.827.987-1.24 2.44-1.24 4.36V34h-7.24V13.48zm25.833 0V34h-7.24V13.48h7.24zm3.36-9.16l-6.96 6.16-3.36-2.48 5.72-7 4.6 3.32zm8.308 19.36c0 .667.12 1.293.36 1.88.24.56.56 1.053.96 1.48.426.427.92.76 1.48 1 .586.24 1.213.36 1.88.36.64 0 1.24-.12 1.8-.36a4.156 4.156 0 001.48-1c.426-.427.76-.92 1-1.48.266-.56.4-1.16.4-1.8 0-.64-.134-1.24-.4-1.8a4.58 4.58 0 00-1-1.52c-.4-.427-.894-.76-1.48-1a4.52 4.52 0 00-1.8-.36c-.667 0-1.294.12-1.88.36-.56.24-1.054.573-1.48 1-.4.427-.72.92-.96 1.48a4.24 4.24 0 00-.36 1.76zm9.12-10.2h7.28V34h-7.28v-2.28c-1.547 1.947-3.64 2.92-6.28 2.92-1.494 0-2.867-.267-4.12-.8a10.18 10.18 0 01-3.28-2.32 10.876 10.876 0 01-2.2-3.48c-.507-1.333-.76-2.787-.76-4.36 0-1.467.253-2.853.76-4.16.506-1.333 1.213-2.493 2.12-3.48a9.735 9.735 0 013.24-2.32c1.253-.587 2.64-.88 4.16-.88 2.56 0 4.68.893 6.36 2.68v-2.04zm25.807 5.28c-1.334-.693-2.64-1.04-3.92-1.04-.667 0-1.214.133-1.64.4-.4.267-.6.627-.6 1.08 0 .24.026.44.08.6.08.133.226.267.44.4.24.133.573.253 1 .36.453.107 1.04.24 1.76.4 2 .4 3.493 1.12 4.48 2.16.986 1.013 1.48 2.32 1.48 3.92 0 1.2-.24 2.28-.72 3.24a7.083 7.083 0 01-2 2.44c-.854.64-1.88 1.133-3.08 1.48-1.2.373-2.52.56-3.96.56-2.774 0-5.507-.787-8.2-2.36l2.64-5.12c2.026 1.387 3.946 2.08 5.76 2.08.666 0 1.213-.147 1.64-.44.426-.293.64-.667.64-1.12 0-.267-.04-.48-.12-.64-.054-.187-.187-.347-.4-.48-.214-.16-.534-.293-.96-.4-.4-.133-.934-.267-1.6-.4-2.24-.453-3.814-1.12-4.72-2-.88-.907-1.32-2.147-1.32-3.72 0-1.147.213-2.173.64-3.08a6.37 6.37 0 011.84-2.36c.8-.64 1.76-1.133 2.88-1.48 1.146-.347 2.413-.52 3.8-.52 2.266 0 4.466.44 6.6 1.32l-2.44 4.72zm6.391 11.4c0-.64.12-1.24.36-1.8a4.58 4.58 0 011-1.52c.427-.427.92-.76 1.48-1 .587-.24 1.2-.36 1.84-.36.64 0 1.24.12 1.8.36.587.24 1.094.573 1.52 1 .427.427.76.933 1 1.52.24.56.36 1.16.36 1.8 0 .64-.12 1.253-.36 1.84a4.675 4.675 0 01-1 1.48c-.426.427-.933.76-1.52 1-.56.24-1.16.36-1.8.36-.64 0-1.253-.12-1.84-.36a4.684 4.684 0 01-2.48-2.48c-.24-.587-.36-1.2-.36-1.84z" fill="#fff"/></svg>