<svg width="239" height="31" viewBox="0 0 239 31" fill="none" xmlns="http://www.w3.org/2000/svg"><path d="M5.851 21.954c0 1.581-.868 2.418-2.635 2.418-1.798 0-2.666-.806-2.666-2.418 0-1.581.868-2.418 2.666-2.418 1.736 0 2.635.837 2.635 2.418zm8.726 0c0 1.581-.868 2.418-2.635 2.418-1.798 0-2.666-.806-2.666-2.418 0-1.581.868-2.418 2.666-2.418 1.736 0 2.635.837 2.635 2.418zm8.726 0c0 1.581-.868 2.418-2.635 2.418-1.798 0-2.666-.806-2.666-2.418 0-1.581.868-2.418 2.666-2.418 1.736 0 2.635.837 2.635 2.418zM44 13.987c0-1.488-.093-2.728-1.643-2.728-1.147 0-2.573.651-3.224 1.147v8.308c0 .496.03.558.496.62l1.488.217V24H32.56v-2.48l1.395-.186c.434-.062.496-.155.496-.62V11.6c0-.341-.093-.558-.403-.651l-1.674-.589.372-2.511h5.425l.248 1.612.124.062c1.55-1.147 3.348-1.984 5.456-1.984 3.379 0 4.68 1.86 4.68 5.27v7.905c0 .496.032.558.497.62l1.55.217V24H44V13.987zm16.213 10.385c-5.673 0-7.967-3.472-7.967-8.339 0-5.146 2.697-8.494 8.37-8.494 5.735 0 7.967 3.41 7.967 8.153 0 5.27-2.666 8.68-8.37 8.68zm.217-3.255c2.015 0 3.255-1.395 3.255-5.27 0-3.658-1.116-4.96-3.13-4.96-2.047 0-3.41 1.271-3.41 4.991 0 3.751 1.208 5.239 3.285 5.239zm16.685.372l1.395-.186c.434-.062.496-.155.496-.62V11.6c0-.341-.093-.558-.403-.651l-1.674-.589.34-2.511h5.457l.372 2.48h.186c1.023-1.581 2.387-2.79 4.37-2.79.714 0 2.14.124 2.698.279v5.642l-3.72-.124-.31-1.643c-.062-.279-.155-.341-.403-.341-.806 0-1.767.682-2.232 1.085v8.215c0 .496.03.589.496.62l3.069.248V24H77.115v-2.511zm29.226 1.302c-1.922.93-4.03 1.581-6.355 1.581-5.983 0-8.03-3.72-8.03-8.556 0-5.611 3.442-8.277 7.689-8.277 4.092 0 6.82 2.139 6.82 7.502 0 .372-.031 1.457-.062 2.077h-9.486c.155 2.201 1.116 3.658 3.658 3.658 1.209 0 2.511-.279 4.619-1.054l1.147 3.069zm-4.464-8.618c-.031-2.604-1.054-3.286-2.325-3.286-1.333 0-2.418.744-2.604 3.286h4.929zm15.826-3.069c-.062-.279-.093-.372-.31-.434-.403-.124-1.147-.248-1.984-.248-1.55 0-2.418.589-2.418 1.581 0 1.271 1.705 1.55 3.596 1.984 2.449.558 5.208 1.426 5.208 5.053 0 3.782-3.069 5.332-7.006 5.332-2.821 0-5.58-.744-6.138-1.116v-4.495l3.317.248.31 1.767c.062.279.093.372.372.465.372.124 1.209.31 2.387.31 1.643 0 2.573-.465 2.573-1.612 0-1.24-1.24-1.612-2.821-1.891-2.604-.465-6.014-1.023-6.014-5.084 0-3.844 3.286-5.425 6.851-5.425 2.449 0 4.836.558 5.704.899v4.495l-3.317-.217-.31-1.612zm6.024 16.988l1.24-.186c.434-.062.558-.186.558-.651V11.6c0-.341-.062-.527-.403-.651l-1.643-.589.341-2.511h5.456l.279 1.581.155.062c1.488-1.209 3.503-1.953 5.27-1.953 3.472 0 5.952 2.17 5.952 7.936 0 3.72-1.271 8.897-6.386 8.897-1.612 0-3.069-.527-4.371-1.55v4.402c0 .496.031.589.496.62l3.162.279v2.449h-10.106v-2.48zm6.448-8.525c.682.589 1.767 1.178 2.914 1.178 2.077 0 2.945-1.984 2.945-5.022 0-3.193-1.085-4.495-2.635-4.495-1.302 0-2.542.651-3.224 1.116v7.223zm20.811 4.805c-5.673 0-7.967-3.472-7.967-8.339 0-5.146 2.697-8.494 8.37-8.494 5.735 0 7.967 3.41 7.967 8.153 0 5.27-2.666 8.68-8.37 8.68zm.217-3.255c2.015 0 3.255-1.395 3.255-5.27 0-3.658-1.116-4.96-3.131-4.96-2.046 0-3.41 1.271-3.41 4.991 0 3.751 1.209 5.239 3.286 5.239zm21.456-7.13c0-1.488-.093-2.728-1.643-2.728-1.147 0-2.573.651-3.224 1.147v8.308c0 .496.031.558.496.62l1.488.217V24h-8.556v-2.48l1.395-.186c.434-.062.496-.155.496-.62V11.6c0-.341-.093-.558-.403-.651l-1.674-.589.372-2.511h5.425l.248 1.612.124.062c1.55-1.147 3.348-1.984 5.456-1.984 3.379 0 4.681 1.86 4.681 5.27v7.905c0 .496.031.558.496.62l1.55.217V24h-6.727V13.987zm19.81 8.277l-.217-.031c-1.302 1.271-2.821 2.139-5.084 2.139-3.658 0-6.014-2.325-6.014-8.246 0-6.231 3.131-8.587 6.572-8.587 1.798 0 3.193.62 4.371 1.488V4.315c0-.31-.124-.527-.403-.62l-1.705-.589.341-2.511h6.231v20.15c0 .465.031.527.496.589l1.488.217V24h-5.766l-.31-1.736zm-.558-10.199c-.775-.527-1.767-.93-2.666-.93-2.294 0-3.193 2.139-3.193 4.898 0 3.007.868 4.681 2.821 4.681 1.054 0 2.201-.62 3.038-1.333v-7.316zm18.331 10.261l-.155-.031c-1.178 1.147-2.728 2.077-5.208 2.077-3.906 0-4.526-2.666-4.526-4.588 0-3.1 1.891-4.495 5.797-4.774l3.565-.248v-1.705c0-1.457-.155-2.449-2.077-2.449-1.488 0-2.263.217-2.263 2.077l-4.371-.372c0-4.185 3.813-4.774 6.665-4.774 4.712 0 6.603 1.271 6.603 5.611v7.533c0 .496.031.558.496.62l1.488.248V24h-5.704l-.31-1.674zm-2.635-4.836c-1.829.124-2.48.589-2.48 1.829s.744 1.705 1.767 1.705c1.054 0 2.108-.589 2.821-1.116v-2.573l-2.108.155zm19.275-6.386c-.062-.279-.093-.372-.31-.434-.403-.124-1.147-.248-1.984-.248-1.55 0-2.418.589-2.418 1.581 0 1.271 1.705 1.55 3.596 1.984 2.449.558 5.208 1.426 5.208 5.053 0 3.782-3.069 5.332-7.006 5.332-2.821 0-5.58-.744-6.138-1.116v-4.495l3.317.248.31 1.767c.062.279.093.372.372.465.372.124 1.209.31 2.387.31 1.643 0 2.573-.465 2.573-1.612 0-1.24-1.24-1.612-2.821-1.891-2.604-.465-6.014-1.023-6.014-5.084 0-3.844 3.286-5.425 6.851-5.425 2.449 0 4.836.558 5.704.899v4.495l-3.317-.217-.31-1.612zm12.1 10.85c0 1.581-.868 2.418-2.635 2.418-1.798 0-2.666-.806-2.666-2.418 0-1.581.868-2.418 2.666-2.418 1.736 0 2.635.837 2.635 2.418z" fill="#fff"/></svg>