<svg width="444" height="92" viewBox="0 0 444 92" fill="none" xmlns="http://www.w3.org/2000/svg"><path d="M9.724 32.096c0 2.244-1.232 3.432-3.74 3.432-2.552 0-3.784-1.144-3.784-3.432 0-2.244 1.232-3.432 3.784-3.432 2.464 0 3.74 1.188 3.74 3.432zm12.385 0c0 2.244-1.232 3.432-3.74 3.432-2.552 0-3.784-1.144-3.784-3.432 0-2.244 1.232-3.432 3.784-3.432 2.464 0 3.74 1.188 3.74 3.432zm12.386 0c0 2.244-1.232 3.432-3.74 3.432-2.552 0-3.784-1.144-3.784-3.432 0-2.244 1.232-3.432 3.784-3.432 2.464 0 3.74 1.188 3.74 3.432zm27.483.528l-.22-.044c-1.672 1.628-3.872 2.948-7.392 2.948-5.544 0-6.423-3.784-6.423-6.512 0-4.4 2.684-6.38 8.227-6.776l5.06-.352v-2.42c0-2.068-.22-3.476-2.947-3.476-2.113 0-3.212.308-3.212 2.948l-6.204-.528c0-5.94 5.412-6.776 9.46-6.776 6.688 0 9.371 1.804 9.371 7.964v10.692c0 .704.045.792.705.88l2.111.352V35H62.42l-.44-2.376zm-3.74-6.864c-2.596.176-3.52.836-3.52 2.596 0 1.76 1.056 2.42 2.508 2.42 1.496 0 2.992-.836 4.005-1.584V25.54l-2.992.22zm43.595 7.612c-2.024 1.232-5.148 2.156-8.36 2.156-7.964 0-11.528-4.972-11.528-11.66 0-8.228 5.016-12.232 12.056-12.232 3.432 0 6.468.968 7.832 1.848v6.908l-4.708-.22-.528-2.904c-.044-.308-.132-.572-.528-.704-.528-.176-1.364-.308-2.244-.308-2.64 0-4.884 1.804-4.884 6.952 0 5.72 2.552 7.348 5.676 7.348 2.2 0 4.18-.704 5.5-1.276l1.716 4.092zm16.68-.748l-.22-.044c-1.672 1.628-3.872 2.948-7.392 2.948-5.544 0-6.424-3.784-6.424-6.512 0-4.4 2.684-6.38 8.228-6.776l5.06-.352v-2.42c0-2.068-.22-3.476-2.948-3.476-2.112 0-3.212.308-3.212 2.948l-6.204-.528c0-5.94 5.412-6.776 9.46-6.776 6.688 0 9.372 1.804 9.372 7.964v10.692c0 .704.044.792.704.88l2.112.352V35h-8.096l-.44-2.376zm-3.74-6.864c-2.596.176-3.52.836-3.52 2.596 0 1.76 1.056 2.42 2.508 2.42 1.496 0 2.992-.836 4.004-1.584V25.54l-2.992.22zm42.18-4.972c0-1.716-.176-3.784-2.464-3.784-1.232 0-2.42.44-3.564 1.188.088.704.132 1.408.132 2.156v9.988c0 .748.044.836.704.924l1.76.264V35h-9.108V20.568c0-1.628-.132-3.564-2.332-3.564-1.32 0-2.772.66-3.652 1.408v11.924c0 .704.044.792.704.88l2.156.308V35h-12.188v-3.476l1.98-.308c.616-.088.704-.22.704-.88V17.4c0-.484-.132-.792-.572-.924l-2.376-.836.484-3.564h7.744l.352 2.288.22.044c1.98-1.628 4.224-2.772 7.04-2.772 2.156 0 4.136.572 5.368 2.64 1.452-1.144 4.004-2.64 7.084-2.64 4.708 0 6.468 2.332 6.468 7.436v11.264c0 .704.044.836.704.924l2.2.264V35h-9.548V20.788zM170.227 35c.308-1.98.66-4.268.66-6.424V7.104c0-.484-.132-.792-.572-.924l-2.42-.836.484-3.564h9.064v12.188l.176.044c1.892-1.54 3.96-2.376 6.644-2.376 4.752 0 8.492 3.08 8.492 11.264 0 9.064-3.828 12.628-9.24 12.628-2.904 0-5.104-1.232-6.468-2.772l-.22.044-.308 2.2h-6.292zm7.26-6.336c1.012.924 2.508 1.716 4.048 1.716 2.904 0 4.268-2.728 4.268-7.128 0-3.432-1.1-6.424-4.048-6.424-1.584 0-3.212.836-4.268 1.54v10.296zm27.61-24.068c0 2.508-1.452 3.96-4.004 3.96-2.508 0-3.96-1.452-3.96-3.96s1.452-3.872 3.96-3.872c2.552 0 4.004 1.364 4.004 3.872zm-9.68 26.928l2.244-.308c.616-.088.704-.22.704-.88V17.4c0-.484-.132-.792-.572-.924l-2.376-.836.484-3.564h9.108v18.26c0 .704.044.792.704.88l2.244.308V35h-12.54v-3.476zm25.978 4.004c-8.052 0-11.308-4.928-11.308-11.836 0-7.304 3.828-12.056 11.88-12.056 8.14 0 11.308 4.84 11.308 11.572 0 7.48-3.784 12.32-11.88 12.32zm.308-4.62c2.86 0 4.62-1.98 4.62-7.48 0-5.192-1.584-7.04-4.444-7.04-2.904 0-4.84 1.804-4.84 7.084 0 5.324 1.716 7.436 4.664 7.436zm40.137 1.628l-.308-.044c-1.848 1.804-4.004 3.036-7.216 3.036-5.192 0-8.536-3.3-8.536-11.704 0-8.844 4.444-12.188 9.328-12.188 2.552 0 4.532.88 6.204 2.112V7.06c0-.44-.176-.748-.572-.88l-2.42-.836.484-3.564h8.844v28.6c0 .66.044.748.704.836l2.112.308V35h-8.184l-.44-2.464zm-.792-14.476c-1.1-.748-2.508-1.32-3.784-1.32-3.256 0-4.532 3.036-4.532 6.952 0 4.268 1.232 6.644 4.004 6.644 1.496 0 3.124-.88 4.312-1.892V18.06zm31.79 15.224c-2.728 1.32-5.72 2.244-9.02 2.244-8.492 0-11.396-5.28-11.396-12.144 0-7.964 4.884-11.748 10.912-11.748 5.808 0 9.68 3.036 9.68 10.648 0 .528-.044 2.068-.088 2.948h-13.464c.22 3.124 1.584 5.192 5.192 5.192 1.716 0 3.564-.396 6.556-1.496l1.628 4.356zm-6.336-12.232c-.044-3.696-1.496-4.664-3.3-4.664-1.892 0-3.432 1.056-3.696 4.664h6.996zm35.796 12.716c-1.892.924-4.664 1.76-7.172 1.76-5.236 0-7.216-2.112-7.216-7.084V16.916c0-.264 0-.44-.352-.44h-3.08V12.56c3.872-.44 5.412-2.376 5.896-7.172h4.18v6.248c0 .308 0 .44.352.44h6.204v4.4h-6.556v10.516c0 2.596.616 3.608 2.992 3.608 1.232 0 2.508-.308 3.564-.704l1.188 3.872zm18.529-1.144l-.22-.044c-1.804 1.364-4.092 2.948-7.832 2.948-4.62 0-6.38-2.64-6.38-7.744V17.048c0-.704-.044-.792-.704-.924l-2.112-.44.44-3.608h9.02V26.64c0 2.684.44 3.696 2.332 3.696 1.936 0 3.52-1.1 4.532-2.024V17.004c0-.704-.044-.748-.704-.88l-1.892-.44.484-3.608h8.756v18.26c0 .572.088.748.616.836l2.2.308V35h-8.184l-.352-2.376zM17.38 76.788c0-2.112-.132-3.872-2.332-3.872-1.628 0-3.652.924-4.576 1.628v11.792c0 .704.044.792.704.88l2.112.308V91H1.144v-3.52l1.98-.264c.616-.088.704-.22.704-.88V73.4c0-.484-.132-.792-.572-.924L.88 71.64l.528-3.564h7.7l.352 2.288.176.088c2.2-1.628 4.752-2.816 7.744-2.816 4.796 0 6.644 2.64 6.644 7.48v11.22c0 .704.044.792.704.88l2.2.308V91H17.38V76.788zm28.215 11.836l-.22-.044c-1.804 1.364-4.092 2.948-7.832 2.948-4.62 0-6.38-2.64-6.38-7.744V73.048c0-.704-.044-.792-.704-.924l-2.112-.44.44-3.608h9.02V82.64c0 2.684.44 3.696 2.332 3.696 1.936 0 3.52-1.1 4.532-2.024V73.004c0-.704-.044-.748-.704-.88l-1.892-.44.484-3.608h8.756v18.26c0 .572.088.748.616.836l2.2.308V91h-8.184l-.352-2.376zm-9.152-24.508l6.732-7.656 3.608 3.432-7.876 6.424-2.464-2.2zm47.874 12.672c0-1.716-.176-3.784-2.464-3.784-1.232 0-2.42.44-3.564 1.188.088.704.132 1.408.132 2.156v9.988c0 .748.044.836.704.924l1.76.264V91h-9.108V76.568c0-1.628-.132-3.564-2.332-3.564-1.32 0-2.772.66-3.652 1.408v11.924c0 .704.044.792.704.88l2.156.308V91H56.465v-3.476l1.98-.308c.616-.088.704-.22.704-.88V73.4c0-.484-.132-.792-.572-.924l-2.376-.836.484-3.564h7.744l.352 2.288.22.044c1.98-1.628 4.224-2.772 7.04-2.772 2.156 0 4.136.572 5.368 2.64 1.452-1.144 4.004-2.64 7.084-2.64 4.708 0 6.468 2.332 6.468 7.436v11.264c0 .704.044.836.704.924l2.2.264V91h-9.548V76.788zm32.15 12.496c-2.728 1.32-5.72 2.244-9.02 2.244-8.492 0-11.396-5.28-11.396-12.144 0-7.964 4.884-11.748 10.912-11.748 5.808 0 9.68 3.036 9.68 10.648 0 .528-.044 2.068-.088 2.948h-13.464c.22 3.124 1.584 5.192 5.192 5.192 1.716 0 3.564-.396 6.556-1.496l1.628 4.356zm-6.336-12.232c-.044-3.696-1.496-4.664-3.3-4.664-1.892 0-3.432 1.056-3.696 4.664h6.996zm9.433 10.384l1.98-.264c.616-.088.704-.22.704-.88V73.4c0-.484-.132-.792-.572-.924l-2.376-.836.484-3.564h7.744l.528 3.52h.264c1.452-2.244 3.388-3.96 6.204-3.96 1.012 0 3.036.176 3.828.396v8.008l-5.28-.176-.44-2.332c-.088-.396-.22-.484-.572-.484-1.144 0-2.508.968-3.168 1.54v11.66c0 .704.044.836.704.88l4.356.352V91h-14.388v-3.564zm32.374 4.092c-8.052 0-11.308-4.928-11.308-11.836 0-7.304 3.828-12.056 11.88-12.056 8.14 0 11.308 4.84 11.308 11.572 0 7.48-3.784 12.32-11.88 12.32zm.308-4.62c2.86 0 4.62-1.98 4.62-7.48 0-5.192-1.584-7.04-4.444-7.04-2.904 0-4.84 1.804-4.84 7.084 0 5.324 1.716 7.436 4.664 7.436zm40.137 1.628l-.308-.044c-1.848 1.804-4.004 3.036-7.216 3.036-5.192 0-8.536-3.3-8.536-11.704 0-8.844 4.444-12.188 9.328-12.188 2.552 0 4.532.88 6.204 2.112V63.06c0-.44-.176-.748-.572-.88l-2.42-.836.484-3.564h8.844v28.6c0 .66.044.748.704.836l2.112.308V91h-8.184l-.44-2.464zm-.792-14.476c-1.1-.748-2.508-1.32-3.784-1.32-3.256 0-4.532 3.036-4.532 6.952 0 4.268 1.232 6.644 4.004 6.644 1.496 0 3.124-.88 4.312-1.892V74.06zm31.791 15.224c-2.728 1.32-5.72 2.244-9.02 2.244-8.492 0-11.396-5.28-11.396-12.144 0-7.964 4.884-11.748 10.912-11.748 5.808 0 9.68 3.036 9.68 10.648 0 .528-.044 2.068-.088 2.948h-13.464c.22 3.124 1.584 5.192 5.192 5.192 1.716 0 3.564-.396 6.556-1.496l1.628 4.356zm-6.336-12.232c-.044-3.696-1.496-4.664-3.3-4.664-1.892 0-3.432 1.056-3.696 4.664h6.996zm43.936 10.516l3.608-.308c.66-.044.704-.264.704-.88V69.66h-.176l-6.292 15.004h-7.172l-6.204-15.048h-.22v16.72c0 .704.088.836.704.88l3.784.352V91h-13.376v-3.432l2.772-.308c.616-.088.704-.22.704-.88V63.808c0-.66-.088-.792-.704-.88l-2.772-.308v-3.476h11.792l7.656 19.932h.176l8.052-19.932h11.44v3.432l-2.948.352c-.66.088-.704.176-.704.836V86.38c0 .572.132.748.704.836l2.948.352V91h-14.476v-3.432zm37.626 1.716c-2.728 1.32-5.72 2.244-9.02 2.244-8.492 0-11.396-5.28-11.396-12.144 0-7.964 4.884-11.748 10.912-11.748 5.808 0 9.68 3.036 9.68 10.648 0 .528-.044 2.068-.088 2.948h-13.464c.22 3.124 1.584 5.192 5.192 5.192 1.716 0 3.564-.396 6.556-1.496l1.628 4.356zm-6.336-12.232c-.044-3.696-1.496-4.664-3.3-4.664-1.892 0-3.432 1.056-3.696 4.664h6.996zm25.76 11.484l-.308-.044c-1.848 1.804-4.004 3.036-7.216 3.036-5.192 0-8.536-3.3-8.536-11.704 0-8.844 4.444-12.188 9.328-12.188 2.552 0 4.532.88 6.204 2.112V63.06c0-.44-.176-.748-.572-.88l-2.42-.836.484-3.564h8.844v28.6c0 .66.044.748.704.836l2.112.308V91h-8.184l-.44-2.464zm-.792-14.476c-1.1-.748-2.508-1.32-3.784-1.32-3.256 0-4.532 3.036-4.532 6.952 0 4.268 1.232 6.644 4.004 6.644 1.496 0 3.124-.88 4.312-1.892V74.06zm21.091-13.464c0 2.508-1.452 3.96-4.004 3.96-2.508 0-3.96-1.452-3.96-3.96s1.452-3.872 3.96-3.872c2.552 0 4.004 1.364 4.004 3.872zm-9.68 26.928l2.244-.308c.616-.088.704-.22.704-.88V73.4c0-.484-.132-.792-.572-.924l-2.376-.836.484-3.564h9.108v18.26c0 .704.044.792.704.88l2.244.308V91h-12.54v-3.476zm34.558 1.848c-2.024 1.232-5.148 2.156-8.36 2.156-7.964 0-11.528-4.972-11.528-11.66 0-8.228 5.016-12.232 12.056-12.232 3.432 0 6.468.968 7.832 1.848v6.908l-4.708-.22-.528-2.904c-.044-.308-.132-.572-.528-.704-.528-.176-1.364-.308-2.244-.308-2.64 0-4.884 1.804-4.884 6.952 0 5.72 2.552 7.348 5.676 7.348 2.2 0 4.18-.704 5.5-1.276l1.716 4.092zm16.68-.748l-.22-.044c-1.672 1.628-3.872 2.948-7.392 2.948-5.544 0-6.424-3.784-6.424-6.512 0-4.4 2.684-6.38 8.228-6.776l5.06-.352v-2.42c0-2.068-.22-3.476-2.948-3.476-2.112 0-3.212.308-3.212 2.948l-6.204-.528c0-5.94 5.412-6.776 9.46-6.776 6.688 0 9.372 1.804 9.372 7.964v10.692c0 .704.044.792.704.88l2.112.352V91h-8.096l-.44-2.376zm-3.74-6.864c-2.596.176-3.52.836-3.52 2.596 0 1.76 1.056 2.42 2.508 2.42 1.496 0 2.992-.836 4.004-1.584V81.54l-2.992.22zm14.328 5.676l1.98-.264c.616-.088.704-.22.704-.88V73.4c0-.484-.132-.792-.572-.924l-2.376-.836.484-3.564h7.744l.528 3.52h.264c1.452-2.244 3.388-3.96 6.204-3.96 1.012 0 3.036.176 3.828.396v8.008l-5.28-.176-.44-2.332c-.088-.396-.22-.484-.572-.484-1.144 0-2.508.968-3.168 1.54v11.66c0 .704.044.836.704.88l4.356.352V91h-14.388v-3.564zm41.482 1.848c-2.728 1.32-5.72 2.244-9.02 2.244-8.492 0-11.396-5.28-11.396-12.144 0-7.964 4.884-11.748 10.912-11.748 5.808 0 9.68 3.036 9.68 10.648 0 .528-.044 2.068-.088 2.948h-13.464c.22 3.124 1.584 5.192 5.192 5.192 1.716 0 3.564-.396 6.556-1.496l1.628 4.356zm-6.336-12.232c-.044-3.696-1.496-4.664-3.3-4.664-1.892 0-3.432 1.056-3.696 4.664h6.996zm17.798 11.044c0 2.244-1.232 3.432-3.74 3.432-2.552 0-3.784-1.144-3.784-3.432 0-2.244 1.232-3.432 3.784-3.432 2.464 0 3.74 1.188 3.74 3.432z" fill="#2B3D51"/></svg>