<svg width="323" height="71" viewBox="0 0 323 71" fill="none" xmlns="http://www.w3.org/2000/svg"><rect x="3" y="3" width="317" height="65" rx="6" fill="#fff"/><rect x="1.5" y="1.5" width="320" height="68" rx="7.5" stroke="#fff" stroke-opacity=".5" stroke-width="3"/><path d="M35.773 43.2V26.87h6.279c1.81 0 3.32.368 4.53 1.104 1.227.72 2.148 1.702 2.76 2.944.63 1.227.944 2.591.944 4.094 0 1.656-.345 3.097-1.035 4.324a7.056 7.056 0 01-2.875 2.852c-1.227.675-2.668 1.012-4.324 1.012h-6.28zm9.959-8.188c0-.843-.146-1.58-.437-2.208-.291-.644-.713-1.142-1.265-1.495-.552-.353-1.212-.529-1.978-.529h-1.794v8.51h1.794c.782 0 1.441-.184 1.978-.552a3.522 3.522 0 001.265-1.518c.291-.66.437-1.395.437-2.208zm19.983 4.278v3.91H54.077V26.87h11.43v3.91h-6.945v2.3h5.934v3.634h-5.934v2.576h7.153zm16.644-8.51h-4.692V43.2h-4.485V30.78h-4.715v-3.91H82.36v3.91zm15.112 8.51v3.91H85.833V26.87h11.43v3.91h-6.945v2.3h5.934v3.634h-5.934v2.576h7.153zm-4.393-13.11l-2.76-.736 1.15-3.266h3.887l-2.277 4.002zm12.803 8.993V43.2h-4.485V26.87h3.496l6.555 8.303V26.87h4.485V43.2h-3.565l-6.486-8.027zm21.701 8.027V26.87h4.485v12.42h7.406v3.91h-11.891zm19.066-16.33h5.014l5.198 16.33h-4.554l-.989-3.197h-4.347l-.966 3.197h-4.577l5.221-16.33zm3.956 10.143l-1.449-5.75-1.518 5.75h2.967zm19.164-4.807l-.391-.23a9.456 9.456 0 00-1.035-.506c-.43-.2-.897-.376-1.403-.53a5.141 5.141 0 00-1.495-.229c-.384 0-.698.061-.943.184-.246.123-.368.33-.368.621 0 .276.122.498.368.667.245.169.59.322 1.035.46.46.138 1.004.307 1.633.506 1.012.307 1.886.66 2.622 1.058.736.399 1.303.912 1.702 1.541.398.613.598 1.434.598 2.461 0 .981-.177 1.81-.529 2.484a4.324 4.324 0 01-1.426 1.587 6.355 6.355 0 01-2.001.874c-.736.169-1.488.253-2.254.253-.782 0-1.603-.077-2.461-.23a18.726 18.726 0 01-2.461-.667 13.646 13.646 0 01-2.185-1.012l1.932-3.933.46.276c.306.184.713.391 1.219.621.506.23 1.065.437 1.679.621a6.68 6.68 0 001.886.276c.49 0 .828-.061 1.012-.184.199-.138.299-.314.299-.529 0-.322-.169-.567-.506-.736-.338-.184-.782-.353-1.334-.506a182.27 182.27 0 01-1.794-.575c-.951-.322-1.733-.682-2.346-1.081-.614-.414-1.066-.897-1.357-1.449-.292-.567-.437-1.25-.437-2.047 0-1.211.283-2.223.851-3.036a5.338 5.338 0 012.231-1.84 7.131 7.131 0 013.013-.644c.797 0 1.564.1 2.3.299.751.184 1.449.414 2.093.69.659.276 1.234.537 1.725.782l-1.932 3.703zm24.789 7.084v3.91h-11.638V26.87h11.431v3.91h-6.946v2.3h5.934v3.634h-5.934v2.576h7.153zm13.816-7.084l-.391-.23a9.456 9.456 0 00-1.035-.506c-.43-.2-.897-.376-1.403-.53a5.141 5.141 0 00-1.495-.229c-.384 0-.698.061-.943.184-.246.123-.368.33-.368.621 0 .276.122.498.368.667.245.169.59.322 1.035.46.46.138 1.004.307 1.633.506 1.012.307 1.886.66 2.622 1.058.736.399 1.303.912 1.702 1.541.398.613.598 1.434.598 2.461 0 .981-.177 1.81-.529 2.484a4.324 4.324 0 01-1.426 1.587 6.355 6.355 0 01-2.001.874c-.736.169-1.488.253-2.254.253-.782 0-1.603-.077-2.461-.23a18.726 18.726 0 01-2.461-.667 13.646 13.646 0 01-2.185-1.012l1.932-3.933.46.276c.306.184.713.391 1.219.621.506.23 1.065.437 1.679.621a6.68 6.68 0 001.886.276c.49 0 .828-.061 1.012-.184.199-.138.299-.314.299-.529 0-.322-.169-.567-.506-.736-.338-.184-.782-.353-1.334-.506a182.27 182.27 0 01-1.794-.575c-.951-.322-1.733-.682-2.346-1.081-.614-.414-1.066-.897-1.357-1.449-.292-.567-.437-1.25-.437-2.047 0-1.211.283-2.223.851-3.036a5.338 5.338 0 012.231-1.84 7.131 7.131 0 013.013-.644c.797 0 1.564.1 2.3.299.751.184 1.449.414 2.093.69.659.276 1.234.537 1.725.782l-1.932 3.703zm18.864-1.426h-4.692V43.2h-4.485V30.78h-4.715v-3.91h13.892v3.91zm5.74-3.91h5.014l5.198 16.33h-4.554l-.989-3.197h-4.347l-.966 3.197h-4.577l5.221-16.33zm3.956 10.143l-1.449-5.75-1.518 5.75h2.967zm9.453 6.187V26.87h11.201v3.91h-6.716v2.714h5.474v3.634h-5.474V43.2h-4.485zm17.517-16.33h5.014l5.198 16.33h-4.554l-.989-3.197h-4.347l-.966 3.197h-4.577l5.221-16.33zm3.956 10.143l-1.449-5.75-1.518 5.75h2.967zm19.163-4.807l-.391-.23a9.456 9.456 0 00-1.035-.506c-.43-.2-.897-.376-1.403-.53a5.141 5.141 0 00-1.495-.229c-.384 0-.698.061-.943.184-.246.123-.368.33-.368.621 0 .276.122.498.368.667.245.169.59.322 1.035.46.46.138 1.004.307 1.633.506 1.012.307 1.886.66 2.622 1.058.736.399 1.303.912 1.702 1.541.398.613.598 1.434.598 2.461 0 .981-.177 1.81-.529 2.484a4.324 4.324 0 01-1.426 1.587 6.355 6.355 0 01-2.001.874c-.736.169-1.488.253-2.254.253-.782 0-1.603-.077-2.461-.23a18.726 18.726 0 01-2.461-.667 13.646 13.646 0 01-2.185-1.012l1.932-3.933.46.276c.306.184.713.391 1.219.621.506.23 1.065.437 1.679.621a6.68 6.68 0 001.886.276c.49 0 .828-.061 1.012-.184.199-.138.299-.314.299-.529 0-.322-.169-.567-.506-.736-.338-.184-.782-.353-1.334-.506a182.27 182.27 0 01-1.794-.575c-.951-.322-1.733-.682-2.346-1.081-.614-.414-1.066-.897-1.357-1.449-.292-.567-.437-1.25-.437-2.047 0-1.211.283-2.223.851-3.036a5.338 5.338 0 012.231-1.84 7.131 7.131 0 013.013-.644c.797 0 1.564.1 2.3.299.751.184 1.449.414 2.093.69.659.276 1.234.537 1.725.782l-1.932 3.703z" fill="#2B3D51"/></svg>