<svg width="186" height="137" viewBox="0 0 186 137" fill="none" xmlns="http://www.w3.org/2000/svg"><path fill="#FCD77D" d="M3 127h133v10H3z"/><path d="M1.98 91V67.672h18.54v5.796H8.82v2.844h11.232v5.724H8.82v3.168h12.132V91H1.98zm27.92.36c-4.213 0-6.553-1.26-7.633-2.196l2.088-4.608c1.44.972 2.772 1.548 5.58 1.548.072 0 1.8-.108 1.8-.828 0-.576-1.08-.684-2.16-.936-3.996-.972-6.948-2.592-6.948-5.976 0-4.032 3.672-6.12 7.56-6.12 3.564 0 5.688.792 7.452 1.728l-1.944 4.392c-2.124-.828-4.068-1.08-5.292-1.08-.648 0-1.152.216-1.152.576 0 .684 1.548.936 3.384 1.44 2.592.756 5.724 2.016 5.724 5.724 0 4.932-5.004 6.336-8.46 6.336zm25.095 0c-5.544 0-6.696-3.456-6.696-8.136v-10.62h6.552v9.792c0 1.944.648 2.844 2.376 2.844 1.98 0 2.7-1.692 2.7-3.96v-8.676h6.552V91h-6.192v-2.016c-1.008 1.296-3.384 2.376-5.292 2.376zM69.362 91V72.604h6.192v2.124c1.692-1.98 3.708-2.484 5.544-2.484 4.644 0 6.444 2.736 6.444 8.136V91H80.99v-9.792c0-2.088-.792-2.844-2.052-2.844-2.016 0-3.024 1.692-3.024 3.96V91h-6.552zm28.407.36c-5.112 0-7.884-4.248-7.884-9.54 0-5.328 2.772-9.576 7.884-9.576 1.476 0 3.924.504 5.004 2.412v-2.052h6.192V91h-6.192v-2.052c-1.008 1.872-3.528 2.412-5.004 2.412zm1.728-5.76c1.728 0 2.952-1.548 2.952-3.78 0-2.196-1.224-3.816-2.952-3.816s-2.952 1.62-2.952 3.816c0 2.232 1.224 3.78 2.952 3.78zm-85.232 42.85c-6.975 0-12.915-4.365-12.915-11.925 0-6.66 5.175-11.97 11.97-11.97 6.525 0 11.52 5.31 11.52 11.97 0 1.395-.18 2.655-.18 2.655H9.405c.675 2.16 2.7 2.97 4.905 2.97 1.935 0 4.005-.585 5.445-1.395l2.745 5.535c-2.565 1.575-5.4 2.16-8.235 2.16zM9.18 114.545h8.19c-.27-2.115-1.935-3.555-4.05-3.555-2.025 0-3.645 1.44-4.14 3.555zm27.271 13.905c-5.265 0-8.19-1.575-9.54-2.745l2.61-5.76c1.8 1.215 3.465 1.935 6.975 1.935.09 0 2.25-.135 2.25-1.035 0-.72-1.35-.855-2.7-1.17-4.995-1.215-8.685-3.24-8.685-7.47 0-5.04 4.59-7.65 9.45-7.65 4.455 0 7.11.99 9.315 2.16l-2.43 5.49c-2.655-1.035-5.085-1.35-6.615-1.35-.81 0-1.44.27-1.44.72 0 .855 1.935 1.17 4.23 1.8 3.24.945 7.155 2.52 7.155 7.155 0 6.165-6.255 7.92-10.575 7.92zm22.43 0c-4.41 0-7.29-2.835-7.29-7.875v-9.09h-3.376v-6.48h3.375v-4.14l8.19-2.025v6.165h5.085v6.48H59.78v8.46c0 1.08.54 1.44 1.26 1.44.675 0 1.485-.315 2.07-.72l2.205 5.985c-1.98 1.395-4.41 1.8-6.435 1.8zm17.978 0c-6.39 0-9.855-5.31-9.855-11.925 0-6.66 3.465-11.97 9.855-11.97 1.845 0 4.905.63 6.255 3.015v-2.565h7.74V128h-7.74v-2.565c-1.26 2.34-4.41 3.015-6.255 3.015zm2.16-7.2c2.16 0 3.69-1.935 3.69-4.725 0-2.745-1.53-4.77-3.69-4.77s-3.69 2.025-3.69 4.77c0 2.79 1.53 4.725 3.69 4.725zM95.787 128v-16.335h-3.465v-6.48h3.465v-1.44c0-5.04 2.88-7.875 7.29-7.875 2.025 0 4.455.315 6.435 1.305l-2.205 5.985c-.585-.225-1.215-.36-1.8-.36-.855 0-1.53.45-1.53 1.89v.495h4.5v6.48h-4.5V128h-8.19zm23.963.45c-6.39 0-9.855-5.31-9.855-11.925 0-6.66 3.465-11.97 9.855-11.97 1.845 0 4.905.63 6.255 3.015v-2.565h7.74V128h-7.74v-2.565c-1.26 2.34-4.41 3.015-6.255 3.015zm2.16-7.2c2.16 0 3.69-1.935 3.69-4.725 0-2.745-1.53-4.77-3.69-4.77s-3.69 2.025-3.69 4.77c0 2.79 1.53 4.725 3.69 4.725zm20.232 7.2c-2.565 0-4.455-1.935-4.455-4.41s1.89-4.41 4.455-4.41c2.61 0 4.545 1.935 4.545 4.41s-1.935 4.41-4.545 4.41z" fill="#42443C"/></svg>