<svg width="188" height="137" viewBox="0 0 188 137" fill="none" xmlns="http://www.w3.org/2000/svg"><path d="M2.035 24V.024H8.14l7.622 10.619c.555.74 1.073 1.813 1.073 1.813V.024h7.03V24H17.76l-7.622-10.434c-.555-.74-1.073-1.813-1.073-1.813V24h-7.03zm32.05.37c-5.699 0-6.883-3.552-6.883-8.362V5.093h6.734v10.064c0 1.998.666 2.923 2.442 2.923 2.035 0 2.775-1.739 2.775-4.07V5.093h6.734V24h-6.364v-2.072c-1.036 1.332-3.478 2.442-5.439 2.442zM48.85 24V5.093h6.364v2.183c1.74-2.035 3.811-2.553 5.698-2.553 4.773 0 6.623 2.812 6.623 8.362V24h-6.734V13.936c0-2.146-.814-2.923-2.109-2.923-2.072 0-3.108 1.739-3.108 4.07V24H48.85zm31.305.37c-5.809 0-10.212-4.366-10.212-9.805 0-5.476 4.403-9.842 10.212-9.842 2.59 0 4.699.777 6.697 2.368l-3.885 4.662c-.703-.666-1.48-1.11-2.627-1.11-2.183 0-3.589 1.665-3.589 3.922 0 2.294 1.369 3.885 3.737 3.885 1.295 0 2.368-.555 3.182-1.369l3.367 4.958c-1.813 1.517-4.218 2.331-6.882 2.331zm15.885 0c-5.254 0-8.103-4.366-8.103-9.805 0-5.476 2.85-9.842 8.103-9.842 1.517 0 4.033.518 5.143 2.479V5.093h6.364V24h-6.364v-2.109c-1.036 1.924-3.626 2.479-5.143 2.479zm1.776-5.92c1.776 0 3.034-1.591 3.034-3.885 0-2.257-1.258-3.922-3.034-3.922-1.776 0-3.034 1.665-3.034 3.922 0 2.294 1.258 3.885 3.034 3.885zM11.322 60.37c-5.809 0-10.212-4.366-10.212-9.805 0-5.476 4.403-9.842 10.212-9.842 2.59 0 4.699.777 6.697 2.368l-3.885 4.662c-.703-.666-1.48-1.11-2.627-1.11-2.183 0-3.589 1.665-3.589 3.922 0 2.294 1.369 3.885 3.737 3.885 1.295 0 2.368-.555 3.182-1.369l3.367 4.958c-1.813 1.517-4.218 2.331-6.882 2.331zm17.994 0c-5.809 0-10.212-4.366-10.212-9.805 0-5.476 4.403-9.842 10.212-9.842 5.81 0 10.212 4.366 10.212 9.842 0 5.439-4.403 9.805-10.212 9.805zm0-5.92c1.998 0 3.404-1.591 3.404-3.885 0-2.257-1.406-3.922-3.404-3.922s-3.404 1.665-3.404 3.922c0 2.294 1.406 3.885 3.404 3.885zM42.13 60V41.093h6.364v2.072c1.406-1.591 3.59-2.442 5.698-2.442 3.034 0 4.662 1.221 5.55 2.923 1.628-2.368 4.144-2.923 6.031-2.923 6.105 0 6.623 4.921 6.623 8.732V60h-6.734v-9.768c0-2.257-.629-3.293-2.109-3.293-1.998 0-2.923 1.813-2.923 4.144V60h-6.734v-9.768c0-2.257-.629-3.293-2.109-3.293-1.998 0-2.923 1.813-2.923 4.144V60H42.13zm33.026 5.439V41.093h6.364v2.109c1.517-2.035 3.626-2.479 5.143-2.479 5.254 0 8.103 4.366 8.103 9.805 0 5.476-3.034 9.842-8.325 9.842-1.517 0-3.404-.518-4.551-1.961v7.03h-6.734zm9.694-10.989c1.776 0 3.034-1.591 3.034-3.885 0-2.257-1.258-3.922-3.034-3.922-1.776 0-3.034 1.665-3.034 3.922 0 2.294 1.258 3.885 3.034 3.885zm20.224 5.92c-5.254 0-8.103-4.366-8.103-9.805 0-5.476 2.85-9.842 8.103-9.842 1.517 0 4.033.518 5.143 2.479v-2.109h6.364V60h-6.364v-2.109c-1.036 1.924-3.626 2.479-5.143 2.479zm1.776-5.92c1.776 0 3.034-1.591 3.034-3.885 0-2.257-1.258-3.922-3.034-3.922-1.776 0-3.034 1.665-3.034 3.922 0 2.294 1.258 3.885 3.034 3.885zM119.526 60V41.093h6.549v3.367c.111-.814 1.739-3.737 6.179-3.737v7.326c-4.884 0-5.994 2.035-5.994 5.587V60h-6.734zm23.23.37c-3.626 0-5.994-2.331-5.994-6.475v-7.474h-2.775v-5.328h2.775v-3.404l6.734-1.665v5.069h4.181v5.328h-4.181v6.956c0 .888.444 1.184 1.036 1.184.555 0 1.221-.259 1.702-.592l1.813 4.921c-1.628 1.147-3.626 1.48-5.291 1.48zm14.782 0c-5.254 0-8.103-4.366-8.103-9.805 0-5.476 2.849-9.842 8.103-9.842 1.517 0 4.033.518 5.143 2.479v-2.109h6.364V60h-6.364v-2.109c-1.036 1.924-3.626 2.479-5.143 2.479zm1.776-5.92c1.776 0 3.034-1.591 3.034-3.885 0-2.257-1.258-3.922-3.034-3.922-1.776 0-3.034 1.665-3.034 3.922 0 2.294 1.258 3.885 3.034 3.885zm19.633 5.92c-4.329 0-6.734-1.295-7.844-2.257l2.146-4.736c1.48.999 2.849 1.591 5.735 1.591.074 0 1.85-.111 1.85-.851 0-.592-1.11-.703-2.22-.962-4.107-.999-7.141-2.664-7.141-6.142 0-4.144 3.774-6.29 7.77-6.29 3.663 0 5.846.814 7.659 1.776l-1.998 4.514c-2.183-.851-4.181-1.11-5.439-1.11-.666 0-1.184.222-1.184.592 0 .703 1.591.962 3.478 1.48 2.664.777 5.883 2.072 5.883 5.883 0 5.069-5.143 6.512-8.695 6.512zM6.583 98.29c-2.494 0-3.973-1.218-3.973-4.524v-8.062H.493v-1.827H2.61v-3.045l2.204-.406v3.451h4.814v1.827H4.814v8.12c0 1.943.841 2.494 1.972 2.494 1.305 0 2.32-.783 2.32-.783l.725 1.711c-.551.377-1.711 1.044-3.248 1.044zm11.056 0c-3.48 0-5.133-1.827-5.133-5.597v-8.816h2.204v8.526c0 2.639 1.276 3.741 3.567 3.741 2.552 0 4.03-2.088 4.03-4.263v-8.004h2.205V98h-2.117v-2.494c-.87 1.827-2.9 2.784-4.756 2.784zM35.124 98V83.877h2.204v2.407c.986-1.711 2.813-2.697 4.901-2.697 3.538 0 5.104 2.146 5.104 5.858V98H45.13v-8.265c0-2.61-.957-4.002-3.509-4.002-2.523 0-4.292 1.972-4.292 4.321V98h-2.204zm20.098-16.385l2.349-3.857h2.407l-2.726 3.857h-2.03zm.783 16.675c-3.48 0-5.133-1.827-5.133-5.597v-8.816h2.204v8.526c0 2.639 1.276 3.741 3.567 3.741 2.552 0 4.03-2.088 4.03-4.263v-8.004h2.205V98H60.76v-2.494c-.87 1.827-2.9 2.784-4.756 2.784zm10.88-.29V83.877h2.204v2.436c.783-1.537 2.552-2.726 4.524-2.726 2.262 0 3.857.986 4.524 2.987 1.015-2.059 3.22-2.987 4.872-2.987 3.393 0 5.191 1.972 5.191 5.858V98h-2.233v-8.265c0-2.407-.84-4.002-3.422-4.002-2.378 0-3.886 1.914-3.886 4.031V98h-2.233v-8.265c0-2.407-.84-4.002-3.393-4.002-2.465 0-3.944 2.088-3.944 4.147V98h-2.204zm31.857.29c-4.002 0-7.395-2.871-7.395-7.337 0-4.089 3.074-7.366 7.105-7.366 3.77 0 6.757 3.248 6.757 7.279 0 .406-.058.841-.058.87H93.638c.348 2.813 2.523 4.582 5.133 4.582 1.595 0 3.19-.551 4.35-1.508l.957 1.624a8.642 8.642 0 01-5.336 1.856zm-5.104-8.236h9.396c-.232-2.61-2.233-4.495-4.698-4.495-2.407 0-4.379 1.856-4.698 4.495zM108.643 98V83.877h2.204v2.987c.812-1.856 2.639-3.277 5.452-3.277v2.407c-3.306 0-5.452 1.856-5.452 5.307V98h-2.204zm17.046.29c-4.147 0-7.424-3.248-7.424-7.337 0-4.118 3.277-7.366 7.424-7.366s7.424 3.248 7.424 7.366c0 4.089-3.277 7.337-7.424 7.337zm0-2.146c2.929 0 5.162-2.233 5.162-5.191 0-2.987-2.233-5.22-5.162-5.22s-5.162 2.233-5.162 5.22c0 2.958 2.233 5.191 5.162 5.191zm23.53 2.146c-3.915 0-6.67-3.248-6.67-7.337 0-4.147 2.755-7.366 6.67-7.366 2.262 0 4.263.928 5.307 2.755v-7.424h2.204V98h-2.117v-2.465c-1.044 1.856-3.103 2.755-5.394 2.755zm.493-2.146c2.697 0 4.814-2.233 4.814-5.191 0-2.958-2.117-5.22-4.814-5.22-2.813 0-4.901 2.204-4.901 5.22 0 2.987 2.088 5.191 4.901 5.191zm17.826 2.146c-4.002 0-7.395-2.871-7.395-7.337 0-4.089 3.074-7.366 7.105-7.366 3.77 0 6.757 3.248 6.757 7.279 0 .406-.058.841-.058.87h-11.513c.348 2.813 2.523 4.582 5.133 4.582 1.595 0 3.19-.551 4.35-1.508l.957 1.624a8.642 8.642 0 01-5.336 1.856zm-5.104-8.236h9.396c-.232-2.61-2.233-4.495-4.698-4.495-2.407 0-4.379 1.856-4.698 4.495zM2.204 136v-18.792h2.059l4.582 6.38c.986 1.392 3.045 4.35 3.045 4.35s2.059-2.929 3.045-4.321l4.582-6.409h2.059V136h-2.32v-14.877s-.493.899-1.392 2.146l-5.974 8.41-6.003-8.468c-.841-1.189-1.363-2.088-1.363-2.088V136h-2.32zm30.228.29c-4.002 0-7.395-2.871-7.395-7.337 0-4.089 3.074-7.366 7.105-7.366 3.77 0 6.757 3.248 6.757 7.279 0 .406-.058.841-.058.87H27.328c.348 2.813 2.523 4.582 5.133 4.582 1.595 0 3.19-.551 4.35-1.508l.957 1.624a8.642 8.642 0 01-5.336 1.856zm-5.104-8.236h9.396c-.232-2.61-2.233-4.495-4.698-4.495-2.407 0-4.38 1.856-4.698 4.495zm20.805 8.236c-3.916 0-6.67-3.248-6.67-7.337 0-4.147 2.755-7.366 6.67-7.366 2.261 0 4.262.928 5.306 2.755v-7.424h2.205V136h-2.117v-2.465c-1.044 1.856-3.104 2.755-5.395 2.755zm.492-2.146c2.697 0 4.815-2.233 4.815-5.191 0-2.958-2.117-5.22-4.814-5.22-2.813 0-4.901 2.204-4.901 5.22 0 2.987 2.087 5.191 4.9 5.191zM59.347 136v-14.123h2.204V136h-2.204zm1.102-16.646c-.812 0-1.45-.638-1.45-1.45 0-.812.638-1.479 1.45-1.479.812 0 1.48.667 1.48 1.479s-.668 1.45-1.48 1.45zM72.11 136.29c-4.147 0-7.424-3.219-7.424-7.337s3.277-7.366 7.424-7.366c1.943 0 3.712.696 5.046 1.885l-1.392 1.566c-.87-.812-2.146-1.305-3.625-1.305-2.958 0-5.19 2.204-5.19 5.22 0 2.929 2.145 5.191 5.248 5.191 1.595 0 3.045-.609 4.031-1.595l1.276 1.653c-1.363 1.305-3.277 2.088-5.394 2.088zm13.803 0c-3.915 0-6.67-3.248-6.67-7.337 0-4.147 2.755-7.366 6.67-7.366 2.262 0 4.263.928 5.307 2.755v-2.465h2.204V136h-2.204v-2.465c-1.044 1.856-3.045 2.755-5.307 2.755zm.493-2.146c2.697 0 4.814-2.233 4.814-5.191 0-2.958-2.117-5.22-4.814-5.22-2.813 0-4.901 2.204-4.901 5.22 0 2.987 2.088 5.191 4.9 5.191zM97.125 136v-14.123h2.204v2.987c.813-1.856 2.64-3.277 5.453-3.277v2.407c-3.306 0-5.453 1.856-5.453 5.307V136h-2.203zm16.728.29c-4.002 0-7.395-2.871-7.395-7.337 0-4.089 3.074-7.366 7.105-7.366 3.77 0 6.757 3.248 6.757 7.279 0 .406-.058.841-.058.87h-11.513c.348 2.813 2.523 4.582 5.133 4.582 1.595 0 3.19-.551 4.35-1.508l.957 1.624a8.642 8.642 0 01-5.336 1.856zm-5.104-8.236h9.396c-.232-2.61-2.233-4.495-4.698-4.495-2.407 0-4.379 1.856-4.698 4.495zm15.787 8.236c-.87 0-1.508-.696-1.508-1.537s.667-1.537 1.508-1.537 1.537.696 1.537 1.537-.696 1.537-1.537 1.537z" fill="#42443C"/></svg>