<svg width="150" height="33" viewBox="0 0 150 33" fill="none" xmlns="http://www.w3.org/2000/svg"><path d="M11.632 32.41C5.194 32.41.315 27.572.315 21.545c0-6.068 4.88-10.906 11.317-10.906s11.315 4.838 11.315 10.906c0 6.027-4.878 10.865-11.315 10.865zm0-6.56c2.213 0 3.771-1.763 3.771-4.305 0-2.501-1.558-4.346-3.771-4.346-2.215 0-3.773 1.845-3.773 4.346 0 2.542 1.558 4.305 3.773 4.305zm34.644 6.56c-6.355 0-11.767-3.977-11.767-10.865 0-6.068 4.715-10.906 10.906-10.906 5.945 0 10.496 4.838 10.496 10.906 0 1.271-.164 2.419-.164 2.419h-13.9c.616 1.968 2.46 2.706 4.47 2.706 1.763 0 3.649-.533 4.96-1.271l2.502 5.043c-2.337 1.435-4.92 1.968-7.503 1.968zm-4.633-12.669h7.462c-.246-1.927-1.763-3.239-3.69-3.239-1.845 0-3.321 1.312-3.772 3.239zM58.783 32V11.049h7.051v2.296c1.558-1.763 3.977-2.706 6.314-2.706 3.362 0 5.166 1.353 6.15 3.239 1.804-2.624 4.592-3.239 6.683-3.239 6.765 0 7.34 5.453 7.34 9.676V32h-7.463V21.176c0-2.501-.697-3.649-2.337-3.649-2.214 0-3.239 2.009-3.239 4.592V32H71.82V21.176c0-2.501-.697-3.649-2.337-3.649-2.214 0-3.239 2.009-3.239 4.592V32h-7.462zm45.164.41c-5.822 0-8.98-4.838-8.98-10.865 0-6.068 3.158-10.906 8.98-10.906 1.681 0 4.469.574 5.699 2.747v-2.337h7.052V32h-7.052v-2.337c-1.148 2.132-4.018 2.747-5.699 2.747zm1.968-6.56c1.968 0 3.362-1.763 3.362-4.305 0-2.501-1.394-4.346-3.362-4.346-1.968 0-3.362 1.845-3.362 4.346 0 2.542 1.394 4.305 3.362 4.305zM119.962 32V11.049h7.462V32h-7.462zm3.69-22.55c-2.296 0-4.223-1.927-4.223-4.223 0-2.337 1.927-4.264 4.223-4.264 2.378 0 4.305 1.927 4.305 4.264 0 2.296-1.927 4.223-4.305 4.223zm7.04 22.55V5.022h7.462V32h-7.462zm15.118.41c-2.337 0-4.059-1.763-4.059-4.018s1.722-4.018 4.059-4.018c2.378 0 4.141 1.763 4.141 4.018s-1.763 4.018-4.141 4.018z" fill="#fff"/></svg>