<svg width="198" height="172" viewBox="0 0 198 172" fill="none" xmlns="http://www.w3.org/2000/svg"><path fill-rule="evenodd" clip-rule="evenodd" d="M116.382 9.176a81.765 81.765 0 00-45.345 13.72 81.456 81.456 0 00-30.06 36.537 81.221 81.221 0 00-4.645 47.038 81.351 81.351 0 0022.337 41.684 81.685 81.685 0 0041.79 22.281 81.813 81.813 0 0047.157-4.633 81.583 81.583 0 0036.629-29.985A81.267 81.267 0 00198 90.588c0-21.592-8.599-42.299-23.905-57.567a81.726 81.726 0 00-57.713-23.845z" fill="#495E89" opacity=".54"/><path fill-rule="evenodd" clip-rule="evenodd" d="M9.32 112.197a9.342 9.342 0 00-5.178 1.567 9.305 9.305 0 00-3.433 4.173 9.273 9.273 0 002.021 10.131 9.325 9.325 0 004.772 2.545 9.346 9.346 0 005.385-.529 9.316 9.316 0 004.183-3.424 9.282 9.282 0 00-1.159-11.74 9.335 9.335 0 00-6.59-2.723zM187.294 10.684a6.945 6.945 0 00-3.852 1.166 6.915 6.915 0 00-2.947 7.1 6.91 6.91 0 001.899 3.54 6.936 6.936 0 007.556 1.496 6.925 6.925 0 003.11-2.549 6.904 6.904 0 00-.866-8.73 6.94 6.94 0 00-4.9-2.023z" fill="#7588AF"/><path fill-rule="evenodd" clip-rule="evenodd" d="M61.355 0a59.956 59.956 0 00-33.252 10.059 59.73 59.73 0 00-22.045 26.79 59.557 59.557 0 00-3.407 34.493 59.65 59.65 0 0016.38 30.567 59.894 59.894 0 0030.644 16.338 59.991 59.991 0 0034.58-3.398 59.815 59.815 0 0026.859-21.99 59.588 59.588 0 0010.084-33.167 59.615 59.615 0 00-17.528-42.209A59.918 59.918 0 0061.355 0z" fill="#1A2B4F" opacity=".51"/></svg>