<svg width="103" height="123" viewBox="0 0 103 123" fill="none" xmlns="http://www.w3.org/2000/svg"><path d="M71.308 3.844H15.846c-6.564 0-11.884 5.162-11.884 11.531v92.25c0 6.369 5.32 11.531 11.884 11.531h55.462c6.563 0 11.884-5.162 11.884-11.531v-92.25c0-6.369-5.32-11.531-11.884-11.531z" fill="#F2F2F2"/><path d="M83.192 15.375c0-3.058-1.252-5.991-3.48-8.154-2.23-2.162-5.252-3.377-8.404-3.377H15.846c-3.152 0-6.175 1.215-8.404 3.377-2.228 2.163-3.48 5.096-3.48 8.154V30.75h79.23V15.375zM3.962 107.625c0 3.058 1.252 5.991 3.48 8.154 2.23 2.162 5.252 3.377 8.404 3.377h55.462c3.152 0 6.175-1.215 8.403-3.377 2.23-2.163 3.481-5.096 3.481-8.154V92.25H3.962v15.375z" fill="#C1C5C8"/><path d="M99.038 30.75v38.438c0 1.019-.417 1.997-1.16 2.717a4.024 4.024 0 01-2.801 1.126H75.269L63.385 84.562 51.5 73.032H39.615a4.024 4.024 0 01-2.8-1.127 3.787 3.787 0 01-1.161-2.718V30.75c0-1.02.417-1.997 1.16-2.718a4.024 4.024 0 012.801-1.126h55.462c1.05 0 2.058.405 2.801 1.126a3.786 3.786 0 011.16 2.718z" fill="#F2F2F2"/><path d="M95.077 23.063h-7.923v-7.688c0-4.078-1.67-7.988-4.641-10.872C79.54 1.62 75.51 0 71.308 0H15.846C11.643 0 7.613 1.62 4.641 4.503 1.67 7.387 0 11.297 0 15.375v92.25c0 4.078 1.67 7.988 4.641 10.872C7.613 121.38 11.643 123 15.846 123h55.462c4.202 0 8.233-1.62 11.205-4.503 2.971-2.884 4.64-6.794 4.64-10.872V88.406c0-1.02-.416-1.997-1.16-2.718a4.024 4.024 0 00-2.8-1.126c-1.051 0-2.059.406-2.802 1.126a3.786 3.786 0 00-1.16 2.718v19.219a7.574 7.574 0 01-2.32 5.436 8.046 8.046 0 01-5.603 2.251H15.846a8.046 8.046 0 01-5.602-2.251 7.574 7.574 0 01-2.32-5.436v-92.25c0-2.039.834-3.994 2.32-5.436a8.048 8.048 0 015.602-2.252h55.462c2.101 0 4.116.81 5.602 2.252a7.574 7.574 0 012.32 5.436v7.688H39.616c-2.1 0-4.116.81-5.602 2.251a7.574 7.574 0 00-2.32 5.436v38.438c0 2.038.834 3.994 2.32 5.435a8.048 8.048 0 005.602 2.252h10.26l10.697 10.417c.368.36.806.646 1.29.84a4.066 4.066 0 003.046 0 3.97 3.97 0 001.29-.84l10.696-10.417h18.183c2.101 0 4.117-.81 5.602-2.252A7.573 7.573 0 00103 69.187V30.75a7.573 7.573 0 00-2.321-5.436 8.046 8.046 0 00-5.602-2.252zm0 46.124H75.269a4.068 4.068 0 00-1.52.286 3.973 3.973 0 00-1.292.83l-9.072 8.84-9.072-8.84a3.974 3.974 0 00-1.292-.83c-.483-.192-1-.288-1.521-.285H39.615V30.75h55.462v38.438z" fill="#101B31"/><path d="M95.077 23.063H39.615c-2.101 0-4.116.81-5.602 2.251a7.573 7.573 0 00-2.32 5.436v38.438c0 2.038.834 3.994 2.32 5.435a8.048 8.048 0 005.602 2.252h10.26l10.697 10.417c.368.36.806.646 1.29.84a4.065 4.065 0 003.046 0c.483-.194.921-.48 1.29-.84l10.695-10.417h18.184c2.101 0 4.117-.81 5.602-2.252A7.573 7.573 0 00103 69.187V30.75a7.573 7.573 0 00-2.321-5.436 8.046 8.046 0 00-5.602-2.252zm0 46.124H75.269a4.068 4.068 0 00-1.52.286 3.974 3.974 0 00-1.292.83l-9.072 8.84-9.072-8.84a3.971 3.971 0 00-1.292-.83c-.483-.192-1-.288-1.521-.285H39.615V30.75h55.462v38.438z" fill="#C80000"/><path d="M55.462 46.125H79.23c1.05 0 2.058-.405 2.801-1.126a3.787 3.787 0 001.16-2.718c0-1.02-.417-1.997-1.16-2.718a4.024 4.024 0 00-2.801-1.126H55.46c-1.05 0-2.058.406-2.8 1.126a3.787 3.787 0 00-1.161 2.718c0 1.02.417 1.997 1.16 2.718a4.024 4.024 0 002.802 1.126zM55.462 61.5H79.23c1.05 0 2.058-.405 2.801-1.126a3.787 3.787 0 001.16-2.718c0-1.02-.417-1.997-1.16-2.718a4.024 4.024 0 00-2.801-1.126H55.46c-1.05 0-2.058.406-2.8 1.126a3.787 3.787 0 00-1.161 2.718c0 1.02.417 1.997 1.16 2.718a4.024 4.024 0 002.802 1.126z" fill="#C80000"/><path d="M43.577 108.125a3.965 3.965 0 003.961-3.969 3.964 3.964 0 00-3.961-3.968 3.964 3.964 0 00-3.962 3.968 3.965 3.965 0 003.962 3.969z" fill="#101B31"/></svg>