<svg width="103" height="127" viewBox="0 0 103 127" fill="none" xmlns="http://www.w3.org/2000/svg"><path d="M71.308 3.969H15.846c-6.564 0-11.884 5.195-11.884 11.603v92.825c0 6.408 5.32 11.603 11.884 11.603h55.462c6.563 0 11.884-5.195 11.884-11.603V15.572c0-6.408-5.32-11.603-11.884-11.603z" fill="#F2F2F2"/><path d="M83.192 15.572c0-3.077-1.252-6.029-3.48-8.205a12.032 12.032 0 00-8.404-3.398H15.846a12.033 12.033 0 00-8.404 3.398 11.465 11.465 0 00-3.48 8.205v15.47h79.23v-15.47zM3.993 109.714c0 2.728 1.246 5.344 3.464 7.273 2.219 1.929 5.227 3.013 8.364 3.013h55.2c3.137 0 6.145-1.084 8.364-3.013 2.218-1.929 3.464-4.545 3.464-7.273V96H3.993v13.714zM97.692 40.68L67.346 63.5 37.001 40.68a3.957 3.957 0 012.614-.992h55.462a3.957 3.957 0 012.615.992z" fill="#C1C5C8"/><path d="M99.038 43.656v39.688a3.972 3.972 0 01-1.16 2.806 3.958 3.958 0 01-2.801 1.162H39.615a3.958 3.958 0 01-2.8-1.162 3.973 3.973 0 01-1.161-2.806V43.656A3.975 3.975 0 0137 40.68L67.346 63.5l30.346-22.82a3.969 3.969 0 011.346 2.976z" fill="#F2F2F2"/><path d="M47.538 19.844a3.972 3.972 0 00-1.16-2.807 3.958 3.958 0 00-2.801-1.162H27.73c-1.05 0-2.059.418-2.802 1.162a3.973 3.973 0 000 5.613 3.958 3.958 0 002.802 1.163h15.846c1.05 0 2.058-.419 2.801-1.163a3.972 3.972 0 001.16-2.806z" fill="#101B31"/><path d="M100.306 37.703a7.914 7.914 0 00-5.23-1.984h-7.922V15.875c0-4.21-1.67-8.248-4.641-11.225A15.831 15.831 0 0071.308 0H15.846A15.832 15.832 0 004.641 4.65 15.89 15.89 0 000 15.875v95.25c0 4.21 1.67 8.248 4.641 11.225A15.833 15.833 0 0015.846 127h55.462c4.202 0 8.233-1.673 11.205-4.65a15.89 15.89 0 004.64-11.225V91.281h7.924a7.914 7.914 0 005.602-2.325A7.945 7.945 0 00103 83.344V43.656a7.935 7.935 0 00-2.694-5.953zm-13.152 5.953L67.346 58.54 47.538 43.656h39.616zm-7.923 67.469a7.947 7.947 0 01-2.32 5.613 7.918 7.918 0 01-5.603 2.324H15.846a7.917 7.917 0 01-5.602-2.324 7.947 7.947 0 01-2.32-5.613v-95.25c0-2.105.834-4.124 2.32-5.613a7.916 7.916 0 015.602-2.325h55.462c2.101 0 4.116.837 5.602 2.325a7.945 7.945 0 012.32 5.613v19.844H39.616a7.915 7.915 0 00-5.229 1.984 7.936 7.936 0 00-2.694 5.953v39.688c0 2.105.835 4.124 2.32 5.612a7.916 7.916 0 005.603 2.325h39.616v19.844zM39.615 83.344V47.625l25.354 19.05a3.957 3.957 0 004.754 0l25.354-19.05v35.719H39.615z" fill="#101B31"/><path d="M59.423 23.813a3.965 3.965 0 003.962-3.97 3.965 3.965 0 00-3.962-3.968 3.965 3.965 0 00-3.962 3.969 3.965 3.965 0 003.962 3.968zM43.577 109.125a3.965 3.965 0 003.961-3.969 3.964 3.964 0 00-3.961-3.968 3.964 3.964 0 00-3.962 3.968 3.965 3.965 0 003.962 3.969z" fill="#101B31"/><path d="M100.306 37.703a7.914 7.914 0 00-5.23-1.984h-55.46a7.915 7.915 0 00-5.23 1.984 7.937 7.937 0 00-2.694 5.953v39.688c0 2.105.835 4.124 2.32 5.612a7.915 7.915 0 005.603 2.325h55.462a7.914 7.914 0 005.602-2.325A7.945 7.945 0 00103 83.344V43.656a7.935 7.935 0 00-2.694-5.953zm-13.152 5.953L67.346 58.54 47.538 43.656h39.616zm7.923 39.688H39.615V47.625l25.354 19.05a3.957 3.957 0 004.754 0l25.354-19.05v35.719z" fill="#C80000"/></svg>