<svg width="249" height="29" viewBox="0 0 249 29" fill="none" xmlns="http://www.w3.org/2000/svg"><path d="M4.179 24.36c-2.052 0-3.564-1.548-3.564-3.528s1.512-3.528 3.564-3.528c2.088 0 3.636 1.548 3.636 3.528S6.267 24.36 4.179 24.36zm10.652 0c-2.052 0-3.564-1.548-3.564-3.528s1.512-3.528 3.564-3.528c2.088 0 3.636 1.548 3.636 3.528s-1.548 3.528-3.636 3.528zm10.652 0c-2.052 0-3.564-1.548-3.564-3.528s1.512-3.528 3.564-3.528c2.088 0 3.636 1.548 3.636 3.528s-1.548 3.528-3.636 3.528zm13.317 0c-5.544 0-6.696-3.456-6.696-8.136V5.604h6.552v9.792c0 1.944.648 2.844 2.376 2.844 1.98 0 2.7-1.692 2.7-3.96V5.604h6.552V24h-6.192v-2.016c-1.008 1.296-3.384 2.376-5.292 2.376zM53.167 24V5.604h6.192v2.124c1.692-1.98 3.708-2.484 5.544-2.484 4.644 0 6.444 2.736 6.444 8.136V24h-6.552v-9.792c0-2.088-.792-2.844-2.052-2.844-2.016 0-3.024 1.692-3.024 3.96V24h-6.552zm28.406.36c-5.112 0-7.884-4.248-7.884-9.54 0-5.328 2.772-9.576 7.884-9.576 1.476 0 3.924.504 5.004 2.412V5.604h6.192V24h-6.192v-2.052c-1.008 1.872-3.528 2.412-5.004 2.412zm1.728-5.76c1.728 0 2.952-1.548 2.952-3.78 0-2.196-1.224-3.816-2.952-3.816s-2.952 1.62-2.952 3.816c0 2.232 1.224 3.78 2.952 3.78zm20.315 5.4V.312h6.552V24h-6.552zm9.422 0V.312h6.552V24h-6.552zm16.946.36c-5.112 0-7.884-4.248-7.884-9.54 0-5.328 2.772-9.576 7.884-9.576 1.476 0 3.924.504 5.004 2.412V5.604h6.192V24h-6.192v-2.052c-1.008 1.872-3.528 2.412-5.004 2.412zm1.728-5.76c1.728 0 2.952-1.548 2.952-3.78 0-2.196-1.224-3.816-2.952-3.816s-2.952 1.62-2.952 3.816c0 2.232 1.224 3.78 2.952 3.78zm12.333 5.4V5.604h6.192V7.62c1.368-1.548 3.492-2.376 5.544-2.376 2.952 0 4.536 1.188 5.4 2.844 1.584-2.304 4.032-2.844 5.868-2.844 5.94 0 6.444 4.788 6.444 8.496V24h-6.552v-9.504c0-2.196-.612-3.204-2.052-3.204-1.944 0-2.844 1.764-2.844 4.032V24h-6.552v-9.504c0-2.196-.612-3.204-2.052-3.204-1.944 0-2.844 1.764-2.844 4.032V24h-6.552zm39.657.36c-5.112 0-7.884-4.248-7.884-9.54 0-5.328 2.772-9.576 7.884-9.576 1.476 0 3.924.504 5.004 2.412V5.604h6.192V24h-6.192v-2.052c-1.008 1.872-3.528 2.412-5.004 2.412zm1.728-5.76c1.728 0 2.952-1.548 2.952-3.78 0-2.196-1.224-3.816-2.952-3.816s-2.952 1.62-2.952 3.816c0 2.232 1.224 3.78 2.952 3.78zm19.858 5.76c-5.112 0-7.884-4.248-7.884-9.54 0-5.328 2.952-9.576 8.1-9.576 1.476 0 3.312.504 4.428 1.908V.312h6.552V24h-6.192v-2.052c-.972 1.872-3.528 2.412-5.004 2.412zm1.728-5.76c1.728 0 2.952-1.548 2.952-3.78 0-2.196-1.224-3.816-2.952-3.816s-2.952 1.62-2.952 3.816c0 2.232 1.224 3.78 2.952 3.78zm19.858 5.76c-5.112 0-7.884-4.248-7.884-9.54 0-5.328 2.772-9.576 7.884-9.576 1.476 0 3.924.504 5.004 2.412V5.604h6.192V24h-6.192v-2.052c-1.008 1.872-3.528 2.412-5.004 2.412zm1.728-5.76c1.728 0 2.952-1.548 2.952-3.78 0-2.196-1.224-3.816-2.952-3.816s-2.952 1.62-2.952 3.816c0 2.232 1.224 3.78 2.952 3.78zm11.686 10.332l2.448-11.088h5.58l-4.176 11.088h-3.852z" fill="#fff"/></svg>