<svg width="262" height="26" viewBox="0 0 262 26" fill="none" xmlns="http://www.w3.org/2000/svg"><path d="M.815 25V3.616h8.91c7.161 0 11.649 4.851 11.649 10.692S16.886 25 9.725 25H.815zm6.27-5.313h2.409c3.201 0 5.247-2.277 5.247-5.379 0-3.069-2.046-5.379-5.247-5.379H7.085v10.758zm26.891 5.643c-5.115 0-9.47-3.201-9.47-8.745 0-4.884 3.794-8.778 8.777-8.778 4.785 0 8.448 3.894 8.448 8.778 0 1.023-.132 1.947-.132 1.947H30.412c.495 1.584 1.98 2.178 3.597 2.178 1.42 0 2.937-.429 3.993-1.023l2.013 4.059c-1.88 1.155-3.96 1.584-6.039 1.584zm-3.729-10.197h6.006c-.198-1.551-1.419-2.607-2.97-2.607-1.485 0-2.673 1.056-3.036 2.607zM51.764 25.33c-3.234 0-5.346-2.079-5.346-5.775v-6.666h-2.475V8.137h2.475V5.101l6.006-1.485v4.521h3.73v4.752h-3.73v6.204c0 .792.396 1.056.924 1.056.495 0 1.09-.231 1.518-.528l1.617 4.389c-1.452 1.023-3.234 1.32-4.719 1.32zM64.916 6.19L68.381.283h5.775L69.371 6.19h-4.455zm3.267 19.14c-5.115 0-9.471-3.201-9.471-8.745 0-4.884 3.795-8.778 8.778-8.778 4.785 0 8.448 3.894 8.448 8.778 0 1.023-.132 1.947-.132 1.947H64.619c.495 1.584 1.98 2.178 3.597 2.178 1.419 0 2.937-.429 3.993-1.023l2.013 4.059c-1.881 1.155-3.96 1.584-6.039 1.584zm-3.729-10.197h6.006c-.198-1.551-1.419-2.607-2.97-2.607-1.485 0-2.673 1.056-3.036 2.607zM79.239 25V8.137h5.676v1.947c1.551-1.815 3.399-2.277 5.082-2.277 4.257 0 5.907 2.508 5.907 7.458V25h-6.006v-8.976c0-1.914-.726-2.607-1.881-2.607-1.848 0-2.772 1.551-2.772 3.63V25h-6.006zm37.579.33c-5.115 0-9.471-3.201-9.471-8.745 0-4.884 3.795-8.778 8.778-8.778 4.785 0 8.448 3.894 8.448 8.778a15.54 15.54 0 01-.132 1.947h-11.187c.495 1.584 1.98 2.178 3.597 2.178 1.419 0 2.937-.429 3.993-1.023l2.013 4.059c-1.881 1.155-3.96 1.584-6.039 1.584zm-3.729-10.197h6.006c-.198-1.551-1.419-2.607-2.97-2.607-1.485 0-2.673 1.056-3.036 2.607zM127.874 25V3.286h6.006V25h-6.006zm18.922 0V13.021h-2.541V8.269h2.541V7.213c0-3.696 2.112-5.775 5.346-5.775 1.485 0 3.267.231 4.719.957l-1.617 4.389a3.762 3.762 0 00-1.32-.264c-.627 0-1.122.33-1.122 1.386v.363h3.3v4.752h-3.3V25h-6.006zm11.666 0V8.137h5.841v3.003c.099-.726 1.551-3.333 5.511-3.333v6.534c-4.356 0-5.346 1.815-5.346 4.983V25h-6.006zm21.229.33c-4.686 0-7.227-3.894-7.227-8.745 0-4.884 2.541-8.778 7.227-8.778 1.353 0 3.597.462 4.587 2.211V8.137h5.676V25h-5.676v-1.881c-.924 1.716-3.234 2.211-4.587 2.211zm1.584-5.28c1.584 0 2.706-1.419 2.706-3.465 0-2.013-1.122-3.498-2.706-3.498-1.584 0-2.706 1.485-2.706 3.498 0 2.046 1.122 3.465 2.706 3.465zm18.269 5.28c-5.082 0-6.138-3.168-6.138-7.458V8.137h6.006v8.976c0 1.782.594 2.607 2.178 2.607 1.815 0 2.475-1.551 2.475-3.63V8.137h6.006V25h-5.676v-1.848c-.924 1.188-3.102 2.178-4.851 2.178zm21.057 0c-4.686 0-7.227-3.894-7.227-8.745 0-4.884 2.706-8.778 7.425-8.778 1.353 0 3.036.462 4.059 1.749v-6.27h6.006V25h-5.676v-1.881c-.891 1.716-3.234 2.211-4.587 2.211zm1.584-5.28c1.584 0 2.706-1.419 2.706-3.465 0-2.013-1.122-3.498-2.706-3.498-1.584 0-2.706 1.485-2.706 3.498 0 2.046 1.122 3.465 2.706 3.465zm21.437 5.28c-5.115 0-9.471-3.201-9.471-8.745 0-4.884 3.795-8.778 8.778-8.778 4.785 0 8.448 3.894 8.448 8.778 0 1.023-.132 1.947-.132 1.947h-11.187c.495 1.584 1.98 2.178 3.597 2.178 1.419 0 2.937-.429 3.993-1.023l2.013 4.059c-1.881 1.155-3.96 1.584-6.039 1.584zm-3.729-10.197h6.006c-.198-1.551-1.419-2.607-2.97-2.607-1.485 0-2.673 1.056-3.036 2.607zm18.316 10.197c-1.881 0-3.267-1.419-3.267-3.234s1.386-3.234 3.267-3.234c1.914 0 3.333 1.419 3.333 3.234s-1.419 3.234-3.333 3.234z" fill="#fff"/></svg>