<svg width="133" height="102" viewBox="0 0 133 102" fill="none" xmlns="http://www.w3.org/2000/svg"><path d="M7.544 17l7.26-15.51h3.3L25.408 17h-4.07l-1.87-4.268 1.562 1.122h-9.108l1.54-1.122L11.614 17h-4.07zm8.888-11.33l-2.574 6.138-.616-1.034h6.446l-.55 1.034-2.596-6.138h-.11zm9.934 16.082V8.86a26.638 26.638 0 00-.176-3.036h3.784l.242 1.98h-.22c.205-.66.66-1.195 1.364-1.606.704-.41 1.488-.616 2.354-.616.968 0 1.818.235 2.552.704.733.455 1.305 1.122 1.716 2.002.425.865.638 1.907.638 3.124 0 1.203-.213 2.244-.638 3.124-.41.88-.983 1.555-1.716 2.024-.734.455-1.584.682-2.552.682-.85 0-1.62-.19-2.31-.572-.69-.396-1.144-.917-1.364-1.562h.242v6.644h-3.916zm6.094-7.414c.674 0 1.21-.227 1.606-.682.41-.47.616-1.217.616-2.244 0-1.027-.206-1.767-.616-2.222-.396-.47-.932-.704-1.606-.704-.66 0-1.196.235-1.606.704-.41.455-.616 1.195-.616 2.222s.205 1.775.616 2.244c.41.455.946.682 1.606.682zM40.744 17V8.882a27.02 27.02 0 00-.176-3.058h3.784l.418 3.432h-.594c.147-.836.381-1.525.704-2.068.323-.543.726-.946 1.21-1.21s1.056-.396 1.716-.396c.308 0 .535.015.682.044.161.015.33.059.506.132V9.19c-.367-.161-.66-.264-.88-.308a4.525 4.525 0 00-.858-.066c-.601 0-1.093.11-1.474.33-.381.205-.66.528-.836.968-.161.44-.242 1.005-.242 1.694V17h-3.96zm15.354.242c-2.024 0-3.6-.52-4.73-1.562-1.114-1.041-1.672-2.471-1.672-4.29 0-1.13.235-2.134.704-3.014a5.02 5.02 0 011.98-2.046c.85-.499 1.848-.748 2.992-.748 1.13 0 2.068.25 2.816.748.763.484 1.335 1.159 1.716 2.024.382.85.572 1.84.572 2.97v.836h-7.502v-1.848h4.62l-.374.308c0-.836-.161-1.452-.484-1.848-.308-.41-.748-.616-1.32-.616-.66 0-1.166.25-1.518.748-.337.484-.506 1.217-.506 2.2v.396c0 .983.242 1.701.726 2.156.484.455 1.18.682 2.09.682.587 0 1.137-.066 1.65-.198a5.177 5.177 0 001.496-.638l1.012 2.552a6.507 6.507 0 01-1.936.88 8.614 8.614 0 01-2.332.308zM62.561 17V8.86a26.547 26.547 0 00-.176-3.036h3.784l.22 1.936h-.242a3.755 3.755 0 011.562-1.606c.675-.381 1.437-.572 2.288-.572 1.305 0 2.28.389 2.926 1.166.66.763.99 1.958.99 3.586V17h-3.916v-6.49c0-.719-.125-1.217-.374-1.496-.25-.293-.609-.44-1.078-.44-.616 0-1.115.205-1.496.616-.381.396-.572.924-.572 1.584V17H62.56zm18.371.242c-.953 0-1.804-.227-2.552-.682-.748-.47-1.335-1.144-1.76-2.024-.425-.88-.638-1.921-.638-3.124 0-1.217.205-2.259.616-3.124.425-.88 1.012-1.547 1.76-2.002.763-.47 1.62-.704 2.574-.704.85 0 1.62.198 2.31.594.69.381 1.151.895 1.386 1.54h-.33V.808h3.916V17h-3.85v-2.002h.286c-.205.675-.66 1.217-1.364 1.628-.69.41-1.474.616-2.354.616zm1.254-2.904c.645 0 1.173-.227 1.584-.682.425-.47.638-1.217.638-2.244 0-1.027-.213-1.767-.638-2.222-.41-.47-.939-.704-1.584-.704-.66 0-1.203.235-1.628.704-.41.455-.616 1.195-.616 2.222s.205 1.775.616 2.244c.425.455.968.682 1.628.682zm14.576 2.904c-2.024 0-3.6-.52-4.73-1.562-1.114-1.041-1.672-2.471-1.672-4.29 0-1.13.235-2.134.704-3.014a5.02 5.02 0 011.98-2.046c.85-.499 1.848-.748 2.992-.748 1.13 0 2.068.25 2.816.748.763.484 1.335 1.159 1.716 2.024.382.85.572 1.84.572 2.97v.836h-7.502v-1.848h4.62l-.374.308c0-.836-.161-1.452-.484-1.848-.308-.41-.748-.616-1.32-.616-.66 0-1.166.25-1.518.748-.337.484-.506 1.217-.506 2.2v.396c0 .983.242 1.701.726 2.156.484.455 1.18.682 2.09.682.587 0 1.137-.066 1.65-.198a5.174 5.174 0 001.496-.638l1.012 2.552a6.501 6.501 0 01-1.936.88 8.614 8.614 0 01-2.332.308zm17.442 0c-.968 0-1.818-.227-2.552-.682-.733-.47-1.312-1.144-1.738-2.024-.41-.88-.616-1.921-.616-3.124 0-1.217.206-2.259.616-3.124.426-.88 1.005-1.547 1.738-2.002.734-.47 1.584-.704 2.552-.704.866 0 1.643.205 2.332.616.704.41 1.166.946 1.386 1.606h-.22l.242-1.98h3.762l-.132 1.518c-.029.513-.044 1.02-.044 1.518V17h-3.872l-.044-1.892h.264c-.22.645-.682 1.166-1.386 1.562a4.646 4.646 0 01-2.288.572zm1.254-2.904c.66 0 1.196-.227 1.606-.682.411-.47.616-1.217.616-2.244 0-1.027-.205-1.767-.616-2.222-.41-.47-.946-.704-1.606-.704-.66 0-1.195.235-1.606.704-.41.455-.616 1.195-.616 2.222s.198 1.775.594 2.244c.411.455.954.682 1.628.682zM.142 45V33.824h3.916V45H.142zM.054 32.24v-3.52h4.114v3.52H.054zm11.09 13.002c-.954 0-1.804-.227-2.552-.682-.748-.47-1.335-1.144-1.76-2.024-.425-.88-.638-1.921-.638-3.124 0-1.217.205-2.259.616-3.124.425-.88 1.012-1.547 1.76-2.002.763-.47 1.62-.704 2.574-.704.85 0 1.62.198 2.31.594.69.381 1.151.895 1.386 1.54h-.33v-6.908h3.916V45h-3.85v-2.002h.286c-.206.675-.66 1.217-1.364 1.628-.69.41-1.474.616-2.354.616zm1.254-2.904c.645 0 1.173-.227 1.584-.682.425-.47.638-1.217.638-2.244 0-1.027-.213-1.767-.638-2.222-.41-.47-.939-.704-1.584-.704-.66 0-1.203.235-1.628.704-.41.455-.616 1.195-.616 2.222s.205 1.775.616 2.244c.425.455.968.682 1.628.682zm14.576 2.904c-2.024 0-3.6-.52-4.73-1.562-1.115-1.041-1.672-2.471-1.672-4.29 0-1.13.235-2.134.704-3.014a5.022 5.022 0 011.98-2.046c.85-.499 1.848-.748 2.992-.748 1.13 0 2.068.25 2.816.748.763.484 1.335 1.159 1.716 2.024.381.85.572 1.84.572 2.97v.836H23.85v-1.848h4.62l-.374.308c0-.836-.161-1.452-.484-1.848-.308-.41-.748-.616-1.32-.616-.66 0-1.166.25-1.518.748-.337.484-.506 1.217-.506 2.2v.396c0 .983.242 1.701.726 2.156.484.455 1.18.682 2.09.682.587 0 1.137-.066 1.65-.198a5.176 5.176 0 001.496-.638l1.012 2.552a6.505 6.505 0 01-1.936.88 8.613 8.613 0 01-2.332.308zM33.437 45v-8.14a26.545 26.545 0 00-.176-3.036h3.784l.22 1.936h-.242a3.755 3.755 0 011.562-1.606c.674-.381 1.437-.572 2.288-.572 1.305 0 2.28.389 2.926 1.166.66.763.99 1.958.99 3.586V45h-3.916v-6.49c0-.719-.125-1.217-.374-1.496-.25-.293-.609-.44-1.078-.44-.616 0-1.115.205-1.496.616-.382.396-.572.924-.572 1.584V45h-3.916zm19.647.242c-1.584 0-2.78-.374-3.586-1.122-.792-.763-1.188-1.914-1.188-3.454v-3.96h-2.09v-2.882h2.09v-2.64l3.916-.924v3.564h2.728v2.882h-2.728v3.806c0 .645.146 1.078.44 1.298.293.205.645.308 1.056.308.25 0 .462-.015.638-.044.19-.044.388-.103.594-.176v3.014c-.323.132-.646.22-.968.264a6.376 6.376 0 01-.902.066zm3.61-.242V33.824h3.915V45h-3.916zm-.089-12.76v-3.52h4.114v3.52h-4.114zM64.197 45v-8.294h-2.09v-2.882h3.19l-1.1 1.012v-1.518c0-1.54.396-2.691 1.188-3.454.792-.763 1.95-1.144 3.476-1.144.381 0 .777.022 1.188.066.41.044.777.132 1.1.264v2.992a3.12 3.12 0 00-.704-.154 4.682 4.682 0 00-.77-.066c-.44 0-.814.117-1.122.352-.308.22-.462.638-.462 1.254v.99l-.55-.594h8.492V45h-3.916v-8.294h-4.004V45h-3.916zm7.81-12.76v-3.52h4.114v3.52h-4.114zm12.329 13.002c-1.232 0-2.31-.235-3.234-.704a5.172 5.172 0 01-2.156-2.002c-.513-.88-.77-1.929-.77-3.146 0-1.217.257-2.259.77-3.124a5.031 5.031 0 012.156-1.98c.924-.47 2.002-.704 3.234-.704.763 0 1.51.103 2.244.308.733.205 1.327.499 1.782.88l-1.1 2.662a3.594 3.594 0 00-1.21-.66 3.755 3.755 0 00-1.298-.242c-.807 0-1.437.242-1.892.726-.44.484-.66 1.195-.66 2.134 0 .939.22 1.657.66 2.156.455.484 1.085.726 1.892.726.41 0 .843-.073 1.298-.22a4.188 4.188 0 001.21-.66l1.1 2.662c-.47.367-1.07.66-1.804.88a8.05 8.05 0 01-2.222.308zm10.245 0c-.968 0-1.818-.227-2.552-.682-.733-.47-1.312-1.144-1.738-2.024-.41-.88-.616-1.921-.616-3.124 0-1.217.206-2.259.616-3.124.426-.88 1.005-1.547 1.738-2.002.734-.47 1.584-.704 2.552-.704.866 0 1.643.205 2.332.616.704.41 1.166.946 1.386 1.606h-.22l.242-1.98h3.762a611.86 611.86 0 00-.132 1.518c-.029.513-.044 1.02-.044 1.518V45h-3.872l-.044-1.892h.264c-.22.645-.682 1.166-1.386 1.562a4.647 4.647 0 01-2.288.572zm1.254-2.904c.66 0 1.196-.227 1.606-.682.41-.47.616-1.217.616-2.244 0-1.027-.205-1.767-.616-2.222-.41-.47-.946-.704-1.606-.704-.66 0-1.195.235-1.606.704-.41.455-.616 1.195-.616 2.222s.198 1.775.594 2.244c.41.455.954.682 1.628.682zM104.56 45v-8.118a26.389 26.389 0 00-.176-3.058h3.784l.418 3.432h-.594c.147-.836.382-1.525.704-2.068.323-.543.726-.946 1.21-1.21s1.056-.396 1.716-.396c.308 0 .536.015.682.044.162.015.33.059.506.132v3.432c-.366-.161-.66-.264-.88-.308a4.525 4.525 0 00-.858-.066c-.601 0-1.092.11-1.474.33-.381.205-.66.528-.836.968-.161.44-.242 1.005-.242 1.694V45h-3.96zm16.275 4.994l-.924-3.036a12.752 12.752 0 001.76-.44c.484-.147.88-.352 1.188-.616.308-.264.55-.609.726-1.034l.55-1.276-.088 1.474-4.884-11.242h4.136l2.86 7.414h-.726l2.948-7.414h3.872l-5.016 11.418c-.396.895-.821 1.628-1.276 2.2a5.755 5.755 0 01-1.452 1.364 5.68 5.68 0 01-1.694.748c-.601.176-1.261.323-1.98.44zM7.138 73v-8.118a26.992 26.992 0 00-.176-3.058h3.784l.418 3.432h-.594c.146-.836.381-1.525.704-2.068.322-.543.726-.946 1.21-1.21s1.056-.396 1.716-.396c.308 0 .535.015.682.044.161.015.33.059.506.132v3.432c-.367-.161-.66-.264-.88-.308a4.525 4.525 0 00-.858-.066c-.602 0-1.093.11-1.474.33-.382.205-.66.528-.836.968-.162.44-.242 1.005-.242 1.694V73h-3.96zm15.354.242c-2.024 0-3.6-.52-4.73-1.562-1.115-1.041-1.672-2.471-1.672-4.29 0-1.13.235-2.134.704-3.014a5.02 5.02 0 011.98-2.046c.85-.499 1.848-.748 2.992-.748 1.13 0 2.068.25 2.816.748.763.484 1.335 1.159 1.716 2.024.381.85.572 1.84.572 2.97v.836h-7.502v-1.848h4.62l-.374.308c0-.836-.161-1.452-.484-1.848-.308-.41-.748-.616-1.32-.616-.66 0-1.166.25-1.518.748-.337.484-.506 1.217-.506 2.2v.396c0 .983.242 1.701.726 2.156.484.455 1.18.682 2.09.682.587 0 1.137-.066 1.65-.198a5.177 5.177 0 001.496-.638l1.012 2.552a6.507 6.507 0 01-1.936.88 8.614 8.614 0 01-2.332.308zm6.463 4.51V64.86a26.545 26.545 0 00-.176-3.036h3.784l.242 1.98h-.22c.205-.66.66-1.195 1.364-1.606.704-.41 1.488-.616 2.354-.616.968 0 1.818.235 2.552.704.733.455 1.305 1.122 1.716 2.002.425.865.638 1.907.638 3.124 0 1.203-.213 2.244-.638 3.124-.411.88-.983 1.555-1.716 2.024-.734.455-1.584.682-2.552.682-.851 0-1.621-.19-2.31-.572-.69-.396-1.144-.917-1.364-1.562h.242v6.644h-3.916zm6.094-7.414c.674 0 1.21-.227 1.606-.682.41-.47.616-1.217.616-2.244 0-1.027-.206-1.767-.616-2.222-.396-.47-.932-.704-1.606-.704-.66 0-1.196.235-1.606.704-.411.455-.616 1.195-.616 2.222s.205 1.775.616 2.244c.41.455.946.682 1.606.682zm13.872 2.904c-1.247 0-2.325-.235-3.234-.704a5.059 5.059 0 01-2.112-2.002c-.499-.88-.748-1.921-.748-3.124 0-1.217.25-2.259.748-3.124a5.059 5.059 0 012.112-2.002c.91-.47 1.987-.704 3.234-.704 1.232 0 2.303.235 3.212.704a5.021 5.021 0 012.112 2.024c.498.865.748 1.9.748 3.102 0 1.188-.25 2.222-.748 3.102a5.021 5.021 0 01-2.112 2.024c-.91.47-1.98.704-3.212.704zm0-2.904c.645 0 1.159-.227 1.54-.682.381-.47.572-1.217.572-2.244 0-1.027-.19-1.767-.572-2.222-.381-.47-.895-.704-1.54-.704-.66 0-1.18.235-1.562.704-.382.455-.572 1.195-.572 2.222s.19 1.775.572 2.244c.381.455.902.682 1.562.682zM57.13 73v-8.118a27.02 27.02 0 00-.176-3.058h3.784l.418 3.432h-.594c.147-.836.381-1.525.704-2.068.323-.543.726-.946 1.21-1.21s1.056-.396 1.716-.396c.308 0 .535.015.682.044.161.015.33.059.506.132v3.432c-.367-.161-.66-.264-.88-.308a4.525 4.525 0 00-.858-.066c-.601 0-1.093.11-1.474.33-.381.205-.66.528-.836.968-.161.44-.242 1.005-.242 1.694V73h-3.96zm16.016.242c-1.584 0-2.78-.374-3.586-1.122-.792-.763-1.188-1.914-1.188-3.454v-3.96h-2.09v-2.882h2.09v-2.64l3.916-.924v3.564h2.728v2.882H72.29v3.806c0 .645.147 1.078.44 1.298.293.205.645.308 1.056.308.25 0 .462-.015.638-.044.19-.044.389-.103.594-.176v3.014c-.322.132-.645.22-.968.264a6.374 6.374 0 01-.902.066zm8.01 0c-.968 0-1.82-.227-2.552-.682-.734-.47-1.313-1.144-1.739-2.024-.41-.88-.615-1.921-.615-3.124 0-1.217.205-2.259.615-3.124.426-.88 1.005-1.547 1.739-2.002.733-.47 1.584-.704 2.551-.704.866 0 1.643.205 2.332.616.704.41 1.166.946 1.386 1.606h-.22l.243-1.98h3.761a611.86 611.86 0 00-.132 1.518c-.029.513-.043 1.02-.043 1.518V73H84.61l-.043-1.892h.264c-.22.645-.683 1.166-1.386 1.562a4.647 4.647 0 01-2.288.572zm1.254-2.904c.66 0 1.195-.227 1.605-.682.411-.47.616-1.217.616-2.244 0-1.027-.205-1.767-.616-2.222-.41-.47-.946-.704-1.606-.704-.66 0-1.195.235-1.605.704-.411.455-.617 1.195-.617 2.222s.198 1.775.594 2.244c.411.455.954.682 1.629.682zM91.135 73v-8.118a26.927 26.927 0 00-.176-3.058h3.784l.418 3.432h-.594c.146-.836.381-1.525.704-2.068.322-.543.726-.946 1.21-1.21s1.056-.396 1.716-.396c.308 0 .535.015.682.044.161.015.33.059.506.132v3.432c-.367-.161-.66-.264-.88-.308a4.525 4.525 0 00-.858-.066c-.602 0-1.093.11-1.474.33-.382.205-.66.528-.836.968-.162.44-.242 1.005-.242 1.694V73h-3.96zm22.127.242c-2.024 0-3.601-.52-4.73-1.562-1.115-1.041-1.672-2.471-1.672-4.29 0-1.13.234-2.134.704-3.014a5.017 5.017 0 011.98-2.046c.85-.499 1.848-.748 2.992-.748 1.129 0 2.068.25 2.816.748.762.484 1.334 1.159 1.716 2.024.381.85.572 1.84.572 2.97v.836h-7.502v-1.848h4.62l-.374.308c0-.836-.162-1.452-.484-1.848-.308-.41-.748-.616-1.32-.616-.66 0-1.166.25-1.518.748-.338.484-.506 1.217-.506 2.2v.396c0 .983.242 1.701.726 2.156.484.455 1.18.682 2.09.682.586 0 1.136-.066 1.65-.198a5.184 5.184 0 001.496-.638l1.012 2.552a6.518 6.518 0 01-1.936.88 8.619 8.619 0 01-2.332.308zm6.462-.242V56.808h3.916V73h-3.916zm-91.862 28v-8.294h-2.09v-2.882h3.19l-1.1 1.012v-1.518c0-1.54.404-2.691 1.21-3.454.807-.763 2.024-1.144 3.652-1.144.367 0 .756.022 1.166.066.41.044.777.132 1.1.264v2.992a3.12 3.12 0 00-.704-.154 4.682 4.682 0 00-.77-.066c-.293 0-.58.051-.858.154-.264.088-.484.25-.66.484-.161.235-.242.557-.242.968v.99l-.55-.594h3.256v2.882h-2.684V101h-3.916zm8.169 0v-8.118a26.927 26.927 0 00-.176-3.058h3.784l.418 3.432h-.594c.146-.836.381-1.525.704-2.068.322-.543.726-.946 1.21-1.21s1.056-.396 1.716-.396c.308 0 .535.015.682.044.161.015.33.059.506.132v3.432c-.367-.161-.66-.264-.88-.308a4.525 4.525 0 00-.858-.066c-.602 0-1.093.11-1.474.33-.382.205-.66.528-.836.968-.162.44-.242 1.005-.242 1.694V101h-3.96zm13.944.242c-.968 0-1.819-.227-2.552-.682-.733-.469-1.313-1.144-1.738-2.024-.41-.88-.616-1.921-.616-3.124 0-1.217.205-2.259.616-3.124.425-.88 1.005-1.547 1.738-2.002.733-.47 1.584-.704 2.552-.704.865 0 1.643.205 2.332.616.704.41 1.166.946 1.386 1.606h-.22l.242-1.98h3.762a611.86 611.86 0 00-.132 1.518c-.03.513-.044 1.02-.044 1.518V101h-3.872l-.044-1.892h.264c-.22.645-.682 1.166-1.386 1.562a4.65 4.65 0 01-2.288.572zm1.254-2.904c.66 0 1.195-.227 1.606-.682.41-.47.616-1.217.616-2.244 0-1.027-.205-1.767-.616-2.222-.41-.47-.946-.704-1.606-.704-.66 0-1.195.235-1.606.704-.41.455-.616 1.195-.616 2.222s.198 1.775.594 2.244c.41.455.953.682 1.628.682zm12.838 2.904c-1.422 0-2.478-.389-3.168-1.166-.675-.792-1.012-1.987-1.012-3.586v-6.666h3.916v6.688c0 .587.117 1.027.352 1.32.25.279.623.418 1.122.418.558 0 1.012-.198 1.364-.594.367-.41.55-.946.55-1.606v-6.226h3.916V101h-3.806v-2.002h.33c-.352.719-.829 1.276-1.43 1.672-.601.381-1.313.572-2.134.572zm14.15 0c-.954 0-1.804-.227-2.552-.682-.748-.469-1.335-1.144-1.76-2.024-.426-.88-.638-1.921-.638-3.124 0-1.217.205-2.259.616-3.124.425-.88 1.012-1.547 1.76-2.002.762-.47 1.62-.704 2.574-.704.85 0 1.62.198 2.31.594.69.381 1.151.895 1.386 1.54h-.33v-6.908h3.916V101h-3.85v-2.002h.286c-.206.675-.66 1.217-1.364 1.628-.69.411-1.474.616-2.354.616zm1.254-2.904c.645 0 1.173-.227 1.584-.682.425-.47.638-1.217.638-2.244 0-1.027-.213-1.767-.638-2.222-.41-.47-.939-.704-1.584-.704-.66 0-1.203.235-1.628.704-.41.455-.616 1.195-.616 2.222s.205 1.775.616 2.244c.425.455.968.682 1.628.682zm14.576 2.904c-2.024 0-3.6-.521-4.73-1.562-1.115-1.041-1.672-2.471-1.672-4.29 0-1.13.235-2.134.704-3.014a5.02 5.02 0 011.98-2.046c.85-.499 1.848-.748 2.992-.748 1.13 0 2.068.25 2.816.748.763.484 1.335 1.159 1.716 2.024.381.85.572 1.84.572 2.97v.836h-7.502v-1.848h4.62l-.374.308c0-.836-.161-1.452-.484-1.848-.308-.41-.748-.616-1.32-.616-.66 0-1.166.25-1.518.748-.337.484-.506 1.217-.506 2.2v.396c0 .983.242 1.701.726 2.156.484.455 1.18.682 2.09.682.587 0 1.137-.066 1.65-.198a5.177 5.177 0 001.496-.638l1.012 2.552a6.507 6.507 0 01-1.936.88 8.626 8.626 0 01-2.332.308zm6.199-.242v-4.004h4.07V101h-4.07z" fill="#fff"/></svg>