<svg width="244" height="102" viewBox="0 0 244 102" fill="none" xmlns="http://www.w3.org/2000/svg"><path d="M45.864 18.056h-8.715L34.882 23h-3.31L41.646 1.366 51.361 23H48l-2.136-4.944zM44.61 15.17l-3.019-6.921-3.164 6.92h6.183zm11.707 14.818h-2.966V10.16h2.966v1.398c1.17-1.17 2.497-1.754 3.982-1.754 1.766 0 3.221.65 4.364 1.951 1.16 1.292 1.74 2.923 1.74 4.891 0 1.925-.576 3.53-1.727 4.813-1.143 1.274-2.584 1.911-4.325 1.911-1.502 0-2.847-.602-4.034-1.806v8.424zm7.054-13.328c0-1.23-.334-2.233-1.002-3.006-.677-.782-1.53-1.174-2.558-1.174-1.09 0-1.973.378-2.65 1.134-.677.756-1.015 1.75-1.015 2.98 0 1.204.338 2.197 1.015 2.98.668.764 1.547 1.146 2.637 1.146 1.028 0 1.876-.387 2.544-1.16.686-.773 1.029-1.74 1.029-2.9zm6.17-6.5h2.966v1.147c.545-.571 1.028-.962 1.45-1.173.43-.22.94-.33 1.53-.33.781 0 1.599.255 2.451.765l-1.357 2.716c-.563-.405-1.112-.607-1.648-.607-1.618 0-2.426 1.222-2.426 3.665V23h-2.966V10.16zm21.607 7.12h-9.202c.08 1.054.422 1.893 1.029 2.517.606.616 1.384.923 2.333.923.738 0 1.35-.175 1.833-.527.474-.352 1.015-1.002 1.621-1.951l2.505 1.397c-.387.66-.795 1.226-1.226 1.7a6.79 6.79 0 01-1.384 1.161 5.66 5.66 0 01-1.596.66c-.57.14-1.19.21-1.858.21-1.916 0-3.454-.615-4.615-1.846-1.16-1.239-1.74-2.882-1.74-4.93 0-2.03.563-3.674 1.688-4.93 1.133-1.24 2.636-1.86 4.508-1.86 1.89 0 3.384.602 4.483 1.806 1.09 1.196 1.635 2.852 1.635 4.97l-.014.7zm-3.045-2.427c-.413-1.582-1.41-2.373-2.993-2.373-.36 0-.698.058-1.015.172a2.8 2.8 0 00-.87.475 2.96 2.96 0 00-.66.738 3.46 3.46 0 00-.421.988h5.959zm6.302-4.693h2.98v1.187c1.036-1.029 2.205-1.543 3.506-1.543 1.494 0 2.659.47 3.494 1.41.72.8 1.081 2.106 1.081 3.916V23h-2.98v-7.172c0-1.265-.175-2.14-.527-2.623-.343-.493-.967-.739-1.872-.739-.984 0-1.683.325-2.096.976-.405.642-.607 1.762-.607 3.362V23h-2.98V10.16zM118.69.733h2.979V23h-2.979v-1.345c-1.169 1.143-2.492 1.714-3.968 1.714-1.758 0-3.217-.642-4.377-1.925-1.152-1.31-1.727-2.944-1.727-4.904 0-1.916.575-3.516 1.727-4.799 1.142-1.292 2.579-1.938 4.311-1.938 1.503 0 2.847.615 4.034 1.846V.733zm-7.04 15.807c0 1.23.329 2.233.989 3.006.676.782 1.529 1.173 2.557 1.173 1.099 0 1.987-.378 2.663-1.134.677-.782 1.016-1.775 1.016-2.979 0-1.204-.339-2.197-1.016-2.98-.676-.764-1.555-1.146-2.636-1.146-1.02 0-1.872.386-2.558 1.16-.677.782-1.015 1.749-1.015 2.9zm25.457.738h-9.202c.079 1.055.422 1.894 1.029 2.518.606.616 1.384.923 2.333.923.738 0 1.349-.175 1.833-.527.474-.352 1.015-1.002 1.621-1.951l2.505 1.397c-.387.66-.795 1.226-1.226 1.7a6.803 6.803 0 01-1.384 1.161 5.66 5.66 0 01-1.595.66c-.572.14-1.191.21-1.859.21-1.916 0-3.454-.615-4.615-1.846-1.16-1.239-1.74-2.882-1.74-4.93 0-2.03.563-3.674 1.688-4.93 1.133-1.24 2.636-1.86 4.508-1.86 1.89 0 3.384.602 4.483 1.806 1.09 1.196 1.635 2.852 1.635 4.97l-.014.7zm-3.045-2.425c-.413-1.582-1.411-2.373-2.993-2.373-.36 0-.698.057-1.015.17a2.808 2.808 0 00-.87.476 2.946 2.946 0 00-.659.738c-.185.29-.325.62-.422.988h5.959zm24.627-4.14v3.942c-.677-.826-1.283-1.393-1.819-1.7-.528-.317-1.147-.476-1.859-.476-1.116 0-2.044.392-2.782 1.174-.738.782-1.107 1.762-1.107 2.94 0 1.204.356 2.193 1.067 2.966.721.773 1.64 1.16 2.756 1.16.712 0 1.34-.154 1.885-.461.527-.299 1.147-.88 1.859-1.74v3.915c-1.204.624-2.408.936-3.612.936-1.987 0-3.648-.642-4.984-1.925-1.336-1.292-2.004-2.896-2.004-4.812 0-1.916.677-3.533 2.031-4.851 1.353-1.319 3.014-1.978 4.983-1.978 1.266 0 2.461.303 3.586.91zm2.268 5.774c0-1.854.663-3.432 1.99-4.733 1.327-1.3 2.945-1.95 4.852-1.95 1.916 0 3.542.654 4.878 1.964 1.318 1.31 1.977 2.917 1.977 4.825 0 1.925-.663 3.537-1.99 4.838-1.336 1.292-2.976 1.938-4.918 1.938-1.925 0-3.538-.659-4.838-1.977-1.301-1.301-1.951-2.936-1.951-4.905zm3.032.053c0 1.283.343 2.298 1.028 3.045.703.756 1.63 1.134 2.782 1.134 1.16 0 2.087-.373 2.782-1.12.694-.747 1.041-1.745 1.041-2.993 0-1.248-.347-2.246-1.041-2.993-.704-.756-1.631-1.133-2.782-1.133-1.134 0-2.052.377-2.756 1.133-.703.756-1.054 1.732-1.054 2.927zm8.266-12.709l-4.799 4.35-1.622-1.001 3.626-4.8 2.795 1.451zm5.55 6.328h2.966v1.187c.572-.598 1.06-1.002 1.464-1.213.431-.22.971-.33 1.621-.33 1.451 0 2.598.633 3.441 1.899.932-1.266 2.193-1.899 3.784-1.899 2.892 0 4.337 1.754 4.337 5.26V23h-2.979v-7.132c0-1.23-.149-2.1-.448-2.61-.308-.52-.813-.778-1.516-.778-.818 0-1.415.307-1.793.922-.37.616-.554 1.604-.554 2.967V23h-2.98v-7.093c0-2.285-.659-3.428-1.977-3.428-.835 0-1.446.313-1.833.937-.378.624-.567 1.608-.567 2.953V23h-2.966V10.16zm20.751 6.328c0-1.854.664-3.432 1.991-4.733 1.327-1.3 2.944-1.95 4.851-1.95 1.916 0 3.542.654 4.878 1.964 1.319 1.31 1.978 2.917 1.978 4.825 0 1.925-.664 3.537-1.991 4.838-1.336 1.292-2.975 1.938-4.917 1.938-1.925 0-3.538-.659-4.839-1.977-1.3-1.301-1.951-2.936-1.951-4.905zm3.032.053c0 1.283.343 2.298 1.029 3.045.703.756 1.63 1.134 2.781 1.134 1.161 0 2.088-.373 2.782-1.12.695-.747 1.042-1.745 1.042-2.993 0-1.248-.347-2.246-1.042-2.993-.703-.756-1.63-1.133-2.782-1.133-1.133 0-2.052.377-2.755 1.133-.703.756-1.055 1.732-1.055 2.927zM4.573 68.987H1.606V49.16h2.967v1.398c1.169-1.17 2.496-1.754 3.981-1.754 1.767 0 3.221.65 4.364 1.951 1.16 1.292 1.74 2.923 1.74 4.892 0 1.924-.575 3.528-1.727 4.812-1.142 1.274-2.584 1.911-4.324 1.911-1.503 0-2.848-.602-4.034-1.806v8.424zm7.053-13.328c0-1.23-.334-2.233-1.002-3.006-.677-.782-1.53-1.173-2.558-1.173-1.09 0-1.973.377-2.65 1.133-.676.756-1.015 1.75-1.015 2.98 0 1.204.339 2.197 1.016 2.98.667.764 1.546 1.146 2.636 1.146 1.029 0 1.877-.386 2.545-1.16.685-.773 1.028-1.74 1.028-2.9zm6.17-6.5h2.966v1.147c.545-.571 1.029-.962 1.45-1.173.431-.22.94-.33 1.53-.33.782 0 1.6.255 2.452.765l-1.358 2.716c-.563-.405-1.112-.607-1.648-.607-1.617 0-2.426 1.222-2.426 3.665V62h-2.966V49.16zm9.255 6.328c0-1.854.663-3.432 1.99-4.733 1.328-1.3 2.945-1.95 4.852-1.95 1.916 0 3.542.654 4.878 1.964 1.318 1.31 1.977 2.917 1.977 4.825 0 1.925-.663 3.537-1.99 4.838-1.336 1.292-2.975 1.938-4.918 1.938-1.925 0-3.537-.659-4.838-1.977-1.3-1.301-1.951-2.936-1.951-4.905zm3.032.053c0 1.283.343 2.298 1.028 3.045.703.756 1.63 1.134 2.782 1.134 1.16 0 2.087-.373 2.782-1.12.694-.747 1.041-1.745 1.041-2.993 0-1.248-.347-2.246-1.041-2.993-.703-.756-1.63-1.133-2.782-1.133-1.134 0-2.052.377-2.755 1.133-.703.756-1.055 1.732-1.055 2.927zm17.033-3.612V62H44.15V51.928h-1.266v-2.769h1.266v-4.706h2.966v4.706h2.307v2.769h-2.307zm16.256 4.35h-9.203c.08 1.055.422 1.894 1.029 2.518.606.616 1.384.923 2.333.923.739 0 1.35-.175 1.833-.527.474-.352 1.015-1.002 1.621-1.951l2.505 1.397c-.387.66-.795 1.226-1.226 1.7A6.79 6.79 0 0160.88 61.5a5.66 5.66 0 01-1.595.66c-.572.14-1.191.21-1.86.21-1.915 0-3.453-.615-4.613-1.846-1.16-1.239-1.74-2.882-1.74-4.93 0-2.03.562-3.674 1.687-4.93 1.134-1.24 2.636-1.86 4.509-1.86 1.89 0 3.383.602 4.482 1.806 1.09 1.196 1.635 2.852 1.635 4.97l-.013.7zm-3.046-2.425c-.413-1.583-1.41-2.373-2.992-2.373-.36 0-.7.057-1.016.17a2.8 2.8 0 00-.87.476 2.96 2.96 0 00-.659.738 3.46 3.46 0 00-.422.989h5.96zm18.72 7.844c0 .606-.021 1.138-.065 1.595-.035.466-.088.874-.158 1.226-.211.967-.624 1.797-1.24 2.492-1.16 1.336-2.755 2.004-4.785 2.004-1.714 0-3.125-.462-4.232-1.385-1.143-.949-1.802-2.263-1.978-3.942h2.98c.114.633.303 1.121.567 1.464.615.8 1.511 1.2 2.69 1.2 2.17 0 3.256-1.332 3.256-3.995v-1.793c-1.178 1.204-2.536 1.806-4.074 1.806-1.75 0-3.182-.633-4.298-1.898-1.125-1.283-1.688-2.887-1.688-4.812 0-1.872.523-3.463 1.57-4.773 1.124-1.388 2.61-2.083 4.455-2.083 1.618 0 2.962.602 4.035 1.806v-1.45h2.966v12.538zM76.2 55.606c0-1.248-.334-2.246-1.002-2.993-.677-.764-1.542-1.147-2.597-1.147-1.125 0-2.013.418-2.663 1.253-.589.747-.883 1.714-.883 2.9 0 1.17.294 2.127.883 2.874.642.817 1.53 1.226 2.663 1.226 1.134 0 2.03-.413 2.69-1.239.606-.747.91-1.705.91-2.874zm18.286.672h-9.202c.079 1.055.422 1.894 1.028 2.518.606.616 1.384.923 2.333.923.739 0 1.35-.175 1.833-.527.475-.352 1.015-1.002 1.622-1.951l2.504 1.397c-.386.66-.795 1.226-1.226 1.7-.43.467-.892.853-1.384 1.161a5.66 5.66 0 01-1.595.66c-.571.14-1.191.21-1.859.21-1.916 0-3.454-.615-4.614-1.846-1.16-1.239-1.74-2.882-1.74-4.93 0-2.03.562-3.674 1.687-4.93 1.134-1.24 2.637-1.86 4.509-1.86 1.89 0 3.384.602 4.482 1.806 1.09 1.196 1.635 2.852 1.635 4.97l-.013.7zm-3.046-2.425c-.413-1.583-1.41-2.373-2.992-2.373-.36 0-.699.057-1.015.17a2.8 2.8 0 00-.87.476 2.96 2.96 0 00-.66.738 3.46 3.46 0 00-.421.989h5.959zm6.302-4.694h2.967v1.147c.544-.571 1.028-.962 1.45-1.173.43-.22.94-.33 1.529-.33.782 0 1.6.255 2.452.765l-1.358 2.716c-.562-.405-1.112-.607-1.648-.607-1.617 0-2.425 1.222-2.425 3.665V62h-2.967V49.16zm14.133 2.769V62h-2.966V51.928h-1.266v-2.769h1.266v-4.706h2.966v4.706h2.307v2.769h-2.307zm16.255 4.35h-9.202c.079 1.055.422 1.894 1.029 2.518.606.616 1.384.923 2.333.923.738 0 1.349-.175 1.833-.527.474-.352 1.015-1.002 1.621-1.951l2.505 1.397c-.387.66-.795 1.226-1.226 1.7a6.803 6.803 0 01-1.384 1.161 5.653 5.653 0 01-1.596.66c-.571.14-1.19.21-1.858.21-1.916 0-3.455-.615-4.615-1.846-1.16-1.239-1.74-2.882-1.74-4.93 0-2.03.563-3.674 1.688-4.93 1.133-1.24 2.636-1.86 4.508-1.86 1.89 0 3.384.602 4.483 1.806 1.09 1.196 1.635 2.852 1.635 4.97l-.014.7zm-3.045-2.425c-.413-1.583-1.411-2.373-2.993-2.373-.36 0-.698.057-1.015.17a2.808 2.808 0 00-.87.476 2.946 2.946 0 00-.659.738c-.185.29-.325.62-.422.989h5.959zm24.627-4.14v3.942c-.677-.826-1.283-1.393-1.819-1.7-.528-.317-1.147-.475-1.859-.475-1.116 0-2.044.39-2.782 1.173-.738.782-1.107 1.762-1.107 2.94 0 1.204.356 2.193 1.067 2.966.721.774 1.64 1.16 2.756 1.16.712 0 1.34-.154 1.885-.461.527-.299 1.147-.88 1.859-1.74v3.915c-1.204.624-2.408.936-3.612.936-1.987 0-3.648-.642-4.984-1.925-1.336-1.292-2.004-2.896-2.004-4.812 0-1.916.677-3.533 2.031-4.851 1.353-1.319 3.014-1.978 4.983-1.978 1.266 0 2.461.303 3.586.91zm2.268 5.774c0-1.854.663-3.432 1.99-4.733 1.327-1.3 2.945-1.95 4.852-1.95 1.916 0 3.542.654 4.878 1.964 1.318 1.31 1.977 2.917 1.977 4.825 0 1.925-.663 3.537-1.99 4.838-1.336 1.292-2.976 1.938-4.918 1.938-1.925 0-3.538-.659-4.838-1.977-1.301-1.301-1.951-2.936-1.951-4.905zm3.032.053c0 1.283.343 2.298 1.028 3.045.703.756 1.63 1.134 2.782 1.134 1.16 0 2.087-.373 2.782-1.12.694-.747 1.041-1.745 1.041-2.993 0-1.248-.347-2.246-1.041-2.993-.704-.756-1.631-1.133-2.782-1.133-1.134 0-2.052.377-2.756 1.133-.703.756-1.054 1.732-1.054 2.927zm13.816-6.38h2.98v1.186c1.037-1.029 2.206-1.543 3.506-1.543 1.495 0 2.659.47 3.494 1.41.721.8 1.081 2.106 1.081 3.916V62h-2.979v-7.172c0-1.266-.176-2.14-.528-2.623-.342-.493-.966-.739-1.872-.739-.984 0-1.683.325-2.096.976-.404.642-.606 1.762-.606 3.362V62h-2.98V49.16zm17.877 2.768V62h-2.966V51.928h-1.266v-2.769h1.266v-4.706h2.966v4.706h2.307v2.769h-2.307zm4.324-2.769h2.967v1.147c.545-.571 1.028-.962 1.45-1.173.43-.22.94-.33 1.529-.33.782 0 1.6.255 2.452.765l-1.358 2.716c-.562-.405-1.111-.607-1.648-.607-1.617 0-2.425 1.222-2.425 3.665V62h-2.967V49.16zm19.38 0h2.98V62h-2.98v-1.345c-1.221 1.143-2.535 1.714-3.942 1.714-1.775 0-3.243-.642-4.403-1.925-1.151-1.31-1.727-2.944-1.727-4.904 0-1.925.576-3.529 1.727-4.812 1.151-1.283 2.593-1.925 4.324-1.925 1.494 0 2.835.616 4.021 1.846v-1.49zm-7.04 6.381c0 1.23.33 2.233.989 3.006.677.782 1.529 1.173 2.558 1.173 1.098 0 1.986-.378 2.663-1.134.676-.782 1.015-1.775 1.015-2.979 0-1.204-.339-2.197-1.015-2.98-.677-.764-1.556-1.146-2.637-1.146-1.02 0-1.872.386-2.558 1.16-.676.782-1.015 1.749-1.015 2.9zm33.79.738h-9.202c.079 1.055.421 1.894 1.028 2.518.606.616 1.384.923 2.333.923.739 0 1.35-.175 1.833-.527.475-.352 1.015-1.002 1.621-1.951l2.505 1.397a10.15 10.15 0 01-1.226 1.7c-.43.467-.892.853-1.384 1.161a5.66 5.66 0 01-1.595.66c-.571.14-1.191.21-1.859.21-1.916 0-3.454-.615-4.614-1.846-1.16-1.239-1.741-2.882-1.741-4.93 0-2.03.563-3.674 1.688-4.93 1.134-1.24 2.637-1.86 4.509-1.86 1.889 0 3.384.602 4.482 1.806 1.09 1.196 1.635 2.852 1.635 4.97l-.013.7zm-3.046-2.425c-.413-1.583-1.41-2.373-2.992-2.373a2.97 2.97 0 00-1.016.17 2.808 2.808 0 00-.87.476 2.966 2.966 0 00-.659.738c-.184.29-.325.62-.422.989h5.959zm9.268-14.12V62h-2.966V39.733h2.966zM4.637 90.928V101h-2.98V90.928H.604v-2.769h1.055v-4.957c0-1.617.281-2.76.843-3.428.774-.931 1.899-1.397 3.375-1.397.528 0 1.191.154 1.991.461v3.033l-.303-.159c-.642-.325-1.169-.487-1.582-.487-.527 0-.883.189-1.068.567-.185.369-.277 1.08-.277 2.135v4.232h3.23v2.769h-3.23zm4.944-2.769h2.966v1.147c.545-.571 1.029-.962 1.45-1.173.431-.22.941-.33 1.53-.33.782 0 1.6.255 2.452.765l-1.358 2.716c-.562-.405-1.112-.607-1.648-.607-1.617 0-2.426 1.222-2.426 3.665V101H9.581V88.16zm19.38 0h2.98V101h-2.98v-1.345c-1.222 1.143-2.536 1.714-3.942 1.714-1.775 0-3.243-.641-4.403-1.925-1.152-1.31-1.727-2.944-1.727-4.904 0-1.925.575-3.529 1.727-4.812 1.151-1.283 2.593-1.925 4.324-1.925 1.494 0 2.834.615 4.02 1.846v-1.49zm-7.04 6.381c0 1.23.33 2.232.989 3.006.676.782 1.529 1.173 2.557 1.173 1.099 0 1.987-.378 2.663-1.134.677-.782 1.015-1.775 1.015-2.979 0-1.204-.338-2.197-1.015-2.98-.676-.764-1.555-1.147-2.636-1.147-1.02 0-1.872.387-2.558 1.16-.677.783-1.015 1.75-1.015 2.901zm16.73-6.38v7.369c0 2.127.84 3.19 2.518 3.19 1.679 0 2.518-1.063 2.518-3.19v-7.37h2.966v7.436c0 1.028-.127 1.916-.382 2.663-.246.668-.672 1.27-1.279 1.806-1.002.87-2.276 1.305-3.823 1.305-1.538 0-2.808-.435-3.81-1.305-.615-.536-1.05-1.138-1.305-1.806-.246-.598-.37-1.486-.37-2.663v-7.436h2.967zm21.212-9.427h2.98V101h-2.98v-1.345c-1.169 1.143-2.491 1.714-3.968 1.714-1.758 0-3.217-.641-4.377-1.925-1.151-1.31-1.727-2.944-1.727-4.904 0-1.916.576-3.516 1.727-4.799 1.143-1.292 2.58-1.938 4.311-1.938 1.503 0 2.848.615 4.034 1.846V78.733zm-7.04 15.807c0 1.23.33 2.232.989 3.006.677.782 1.53 1.173 2.558 1.173 1.098 0 1.986-.378 2.663-1.134.676-.782 1.015-1.775 1.015-2.979 0-1.204-.339-2.197-1.015-2.98-.677-.764-1.556-1.147-2.637-1.147-1.02 0-1.872.387-2.558 1.16-.676.783-1.015 1.75-1.015 2.901zm25.458.738h-9.202c.079 1.055.422 1.894 1.028 2.518.606.616 1.384.923 2.333.923.739 0 1.35-.175 1.833-.527.475-.352 1.015-1.002 1.621-1.951l2.505 1.397c-.386.66-.795 1.226-1.226 1.7-.43.467-.892.853-1.384 1.161a5.639 5.639 0 01-1.595.659 7.746 7.746 0 01-1.859.211c-1.916 0-3.454-.615-4.614-1.846-1.16-1.239-1.74-2.882-1.74-4.93 0-2.03.562-3.674 1.687-4.93 1.134-1.24 2.637-1.86 4.509-1.86 1.89 0 3.383.602 4.482 1.806 1.09 1.196 1.635 2.852 1.635 4.97l-.013.7zm-3.046-2.425c-.413-1.582-1.41-2.373-2.992-2.373-.36 0-.7.057-1.015.17a2.8 2.8 0 00-.87.475 2.96 2.96 0 00-.66.739 3.46 3.46 0 00-.422.989h5.96zm24.1-4.694h2.979V101h-2.979v-1.345c-1.222 1.143-2.536 1.714-3.942 1.714-1.775 0-3.243-.641-4.403-1.925-1.152-1.31-1.727-2.944-1.727-4.904 0-1.925.575-3.529 1.727-4.812 1.151-1.283 2.593-1.925 4.324-1.925 1.494 0 2.834.615 4.021 1.846v-1.49zm-7.04 6.381c0 1.23.33 2.232.989 3.006.676.782 1.529 1.173 2.557 1.173 1.099 0 1.987-.378 2.663-1.134.677-.782 1.015-1.775 1.015-2.979 0-1.204-.338-2.197-1.015-2.98-.676-.764-1.555-1.147-2.636-1.147-1.02 0-1.872.387-2.558 1.16-.677.783-1.015 1.75-1.015 2.901z" fill="#DEEDFC"/><path d="M113.644 101l3.2-18.85h4.85l3.775 10.05 3.75-10.05h4.85l3.2 18.85h-4.875l-1.625-10.85-4.45 10.85h-1.95l-4.225-10.85-1.625 10.85h-4.875zm34.995-8.275c-.15-.633-.458-1.142-.925-1.525s-1.033-.575-1.7-.575c-.7 0-1.275.183-1.725.55-.433.367-.708.883-.825 1.55h5.175zm-5.3 2.625c0 1.95.917 2.925 2.75 2.925.983 0 1.725-.4 2.225-1.2h4.375c-.883 2.933-3.092 4.4-6.625 4.4-1.083 0-2.075-.158-2.975-.475-.9-.333-1.675-.8-2.325-1.4a6.27 6.27 0 01-1.475-2.15c-.35-.833-.525-1.767-.525-2.8 0-1.067.167-2.025.5-2.875.333-.867.808-1.6 1.425-2.2a6.191 6.191 0 012.225-1.375c.883-.333 1.875-.5 2.975-.5 1.083 0 2.058.167 2.925.5a5.79 5.79 0 012.2 1.4c.6.617 1.058 1.375 1.375 2.275.317.883.475 1.883.475 3v.475h-9.525zm16.311-.8c0 .417.075.808.225 1.175.15.35.35.658.6.925.267.267.575.475.925.625.367.15.759.225 1.175.225.4 0 .775-.075 1.125-.225a2.59 2.59 0 00.925-.625 2.92 2.92 0 00.625-.925c.167-.35.25-.725.25-1.125s-.083-.775-.25-1.125a2.85 2.85 0 00-.625-.95 2.59 2.59 0 00-.925-.625 2.825 2.825 0 00-1.125-.225c-.4 0-.783.075-1.15.225-.35.15-.658.358-.925.625a3.62 3.62 0 00-.625.925c-.15.333-.225.7-.225 1.1zm5.7-14.3h4.55V101h-4.55v-1.425c-.966 1.217-2.275 1.825-3.925 1.825-.933 0-1.791-.175-2.575-.525a6.376 6.376 0 01-2.05-1.45 6.826 6.826 0 01-1.375-2.175 7.553 7.553 0 01-.475-2.7c0-.917.15-1.783.45-2.6a6.705 6.705 0 011.325-2.175 6.1 6.1 0 012.025-1.45c.8-.367 1.675-.55 2.625-.55 1.6 0 2.925.558 3.975 1.675v-9.2zm12.155 7.925V101h-4.525V88.175h4.525zm-4.825-4.925c0-.35.066-.675.2-.975a2.54 2.54 0 01.55-.825c.233-.233.5-.417.8-.55.316-.133.65-.2 1-.2s.675.067.975.2c.316.133.591.317.825.55.233.233.416.508.55.825.133.3.2.625.2.975s-.067.683-.2 1c-.134.3-.317.567-.55.8a2.57 2.57 0 01-.825.55c-.3.133-.625.2-.975.2a2.55 2.55 0 01-1-.2 2.633 2.633 0 01-.8-.55 2.619 2.619 0 01-.55-.8 2.54 2.54 0 01-.2-1zm17.592 9.075c-.783-.533-1.575-.8-2.375-.8-.433 0-.842.075-1.225.225-.367.15-.692.367-.975.65a2.927 2.927 0 00-.675.975c-.15.367-.225.783-.225 1.25 0 .45.075.867.225 1.25.167.367.383.692.65.975.283.267.617.475 1 .625.383.15.792.225 1.225.225.85 0 1.642-.292 2.375-.875v3.85c-1.117.483-2.175.725-3.175.725a7.594 7.594 0 01-2.675-.475 7.064 7.064 0 01-2.225-1.35 6.983 6.983 0 01-1.525-2.125c-.383-.833-.575-1.758-.575-2.775s.183-1.942.55-2.775a6.513 6.513 0 011.5-2.175 6.552 6.552 0 012.25-1.425 7.597 7.597 0 012.825-.525c1.1 0 2.117.233 3.05.7v3.85zm6.781 2.225c0 .417.075.808.225 1.175.15.35.35.658.6.925.266.267.575.475.925.625.366.15.758.225 1.175.225.4 0 .775-.075 1.125-.225a2.6 2.6 0 00.925-.625c.266-.267.475-.575.625-.925.166-.35.25-.725.25-1.125s-.084-.775-.25-1.125a2.866 2.866 0 00-.625-.95 2.6 2.6 0 00-.925-.625 2.825 2.825 0 00-1.125-.225 3.07 3.07 0 00-1.175.225c-.35.15-.659.358-.925.625a3.16 3.16 0 00-.6.925c-.15.333-.225.7-.225 1.1zm5.7-6.375h4.55V101h-4.55v-1.425c-.967 1.217-2.275 1.825-3.925 1.825-.934 0-1.792-.167-2.575-.5a6.354 6.354 0 01-2.05-1.45 6.791 6.791 0 01-1.375-2.175c-.317-.833-.475-1.742-.475-2.725 0-.917.158-1.783.475-2.6a6.67 6.67 0 011.325-2.175 6.08 6.08 0 012.025-1.45c.783-.367 1.65-.55 2.6-.55 1.6 0 2.925.558 3.975 1.675v-1.275zm7.629 0h4.525v2.1c.483-.767 1.075-1.35 1.775-1.75.7-.417 1.517-.625 2.45-.625h.375c.15 0 .317.017.5.05v4.325a4.3 4.3 0 00-1.95-.45c-1.05 0-1.842.317-2.375.95-.517.617-.775 1.525-.775 2.725v5.5h-4.525V88.175zm21.167 4.55c-.15-.633-.458-1.142-.925-1.525s-1.033-.575-1.7-.575c-.7 0-1.275.183-1.725.55-.433.367-.708.883-.825 1.55h5.175zm-5.3 2.625c0 1.95.917 2.925 2.75 2.925.983 0 1.725-.4 2.225-1.2h4.375c-.883 2.933-3.092 4.4-6.625 4.4-1.083 0-2.075-.158-2.975-.475-.9-.333-1.675-.8-2.325-1.4a6.27 6.27 0 01-1.475-2.15c-.35-.833-.525-1.767-.525-2.8 0-1.067.167-2.025.5-2.875.333-.867.808-1.6 1.425-2.2a6.191 6.191 0 012.225-1.375c.883-.333 1.875-.5 2.975-.5 1.083 0 2.058.167 2.925.5a5.79 5.79 0 012.2 1.4c.6.617 1.058 1.375 1.375 2.275.317.883.475 1.883.475 3v.475h-9.525zm11.887 3.25c0-.4.075-.775.225-1.125a2.85 2.85 0 01.625-.95c.266-.267.575-.475.925-.625.366-.15.75-.225 1.15-.225.4 0 .775.075 1.125.225.366.15.683.358.95.625.266.267.475.583.625.95.15.35.225.725.225 1.125s-.075.783-.225 1.15a2.861 2.861 0 01-1.575 1.55c-.35.15-.725.225-1.125.225s-.784-.075-1.15-.225a2.924 2.924 0 01-1.55-1.55 3.009 3.009 0 01-.225-1.15z" fill="#fff"/></svg>