<svg width="269" height="37" viewBox="0 0 269 37" fill="none" xmlns="http://www.w3.org/2000/svg"><path d="M17.45 13V.936h3.137l5.792 7.376V.936h3.12V13h-3.12l-5.792-7.376V13H17.45zm17.808-4.144c0 .277.048.533.144.768.106.224.24.421.4.592.17.17.368.304.592.4a1.926 1.926 0 001.456 0 1.66 1.66 0 00.592-.4c.17-.17.304-.368.4-.592.106-.235.16-.485.16-.752 0-.256-.054-.496-.16-.72a1.827 1.827 0 00-.4-.608 1.66 1.66 0 00-.592-.4 1.926 1.926 0 00-1.456 0c-.224.096-.422.23-.592.4-.16.17-.294.368-.4.592a1.808 1.808 0 00-.144.72zm-3.056-.032c0-.608.122-1.173.368-1.696a4.078 4.078 0 011.024-1.376 4.809 4.809 0 011.552-.928 5.696 5.696 0 011.984-.336c.704 0 1.354.112 1.952.336.608.213 1.13.517 1.568.912.448.384.794.848 1.04 1.392a4.2 4.2 0 01.368 1.776c0 .65-.128 1.248-.384 1.792a4.248 4.248 0 01-1.024 1.392 4.681 4.681 0 01-1.584.896c-.608.213-1.27.32-1.984.32a5.765 5.765 0 01-1.952-.32 4.592 4.592 0 01-1.552-.912 4.308 4.308 0 01-1.008-1.408 4.5 4.5 0 01-.368-1.84zm17.603-1.92c-.533-.277-1.056-.416-1.568-.416-.267 0-.486.053-.656.16a.495.495 0 00-.24.432c0 .096.01.176.032.24.032.053.09.107.176.16.096.053.23.101.4.144.181.043.416.096.704.16.8.16 1.397.448 1.792.864.395.405.592.928.592 1.568 0 .48-.096.912-.288 1.296-.192.384-.459.71-.8.976a3.781 3.781 0 01-1.232.592c-.48.15-1.008.224-1.584.224-1.11 0-2.203-.315-3.28-.944l1.056-2.048c.81.555 1.578.832 2.304.832.267 0 .485-.059.656-.176.17-.117.256-.267.256-.448a.576.576 0 00-.048-.256.341.341 0 00-.16-.192 1.09 1.09 0 00-.384-.16 5.533 5.533 0 00-.64-.16c-.896-.181-1.526-.448-1.888-.8-.352-.363-.528-.859-.528-1.488 0-.459.085-.87.256-1.232a2.55 2.55 0 01.736-.944 3.46 3.46 0 011.152-.592 5.237 5.237 0 011.52-.208 6.86 6.86 0 012.64.528l-.976 1.888zm6.076 1.952c0 .277.048.533.144.768.107.224.24.421.4.592.171.17.368.304.592.4a1.926 1.926 0 001.456 0 1.66 1.66 0 00.592-.4c.171-.17.304-.368.4-.592.107-.235.16-.485.16-.752 0-.256-.053-.496-.16-.72a1.827 1.827 0 00-.4-.608 1.66 1.66 0 00-.592-.4 1.926 1.926 0 00-1.456 0c-.224.096-.42.23-.592.4-.16.17-.293.368-.4.592a1.808 1.808 0 00-.144.72zm-3.056-.032c0-.608.123-1.173.368-1.696a4.08 4.08 0 011.024-1.376 4.81 4.81 0 011.552-.928 5.697 5.697 0 011.984-.336c.704 0 1.355.112 1.952.336.608.213 1.131.517 1.568.912.448.384.795.848 1.04 1.392.246.533.368 1.125.368 1.776 0 .65-.128 1.248-.384 1.792a4.247 4.247 0 01-1.024 1.392 4.681 4.681 0 01-1.584.896c-.608.213-1.269.32-1.984.32a5.766 5.766 0 01-1.952-.32 4.593 4.593 0 01-1.552-.912 4.31 4.31 0 01-1.008-1.408 4.5 4.5 0 01-.368-1.84zm15.442-1.616V13h-2.896V7.208h-.96V4.792h.96V2.328h2.896v2.464h1.648v2.416h-1.648zm3.377-2.416h2.896v1.344c.31-.49.688-.864 1.136-1.12.448-.267.97-.4 1.568-.4h.24c.096 0 .203.01.32.032v2.768a2.752 2.752 0 00-1.248-.288c-.672 0-1.178.203-1.52.608-.33.395-.496.976-.496 1.744V13h-2.896V4.792zm10.875 4.08c0 .267.048.517.144.752.096.224.224.421.384.592.17.17.368.304.592.4a1.966 1.966 0 001.472 0 1.66 1.66 0 00.592-.4c.17-.17.304-.368.4-.592.107-.224.16-.464.16-.72 0-.256-.053-.496-.16-.72a1.829 1.829 0 00-.4-.608 1.66 1.66 0 00-.592-.4 1.966 1.966 0 00-1.472 0c-.224.096-.421.23-.592.4-.16.17-.288.368-.384.592a1.696 1.696 0 00-.144.704zm3.648-4.08h2.912V13h-2.912v-.912c-.619.779-1.456 1.168-2.512 1.168a4.166 4.166 0 01-1.648-.32 4.075 4.075 0 01-1.312-.928 4.356 4.356 0 01-.88-1.392 4.87 4.87 0 01-.304-1.744c0-.587.101-1.141.304-1.664.203-.533.485-.997.848-1.392a3.898 3.898 0 011.296-.928 3.876 3.876 0 011.664-.352c1.024 0 1.872.357 2.544 1.072v-.816zM97.13 6.904c-.533-.277-1.056-.416-1.568-.416-.267 0-.486.053-.656.16a.495.495 0 00-.24.432c0 .096.01.176.032.24.032.053.09.107.176.16.096.053.23.101.4.144.181.043.416.096.704.16.8.16 1.397.448 1.792.864.395.405.592.928.592 1.568 0 .48-.096.912-.288 1.296-.192.384-.459.71-.8.976a3.781 3.781 0 01-1.232.592c-.48.15-1.008.224-1.584.224-1.11 0-2.203-.315-3.28-.944l1.056-2.048c.81.555 1.579.832 2.304.832.267 0 .485-.059.656-.176.17-.117.256-.267.256-.448a.576.576 0 00-.048-.256.341.341 0 00-.16-.192 1.09 1.09 0 00-.384-.16 5.533 5.533 0 00-.64-.16c-.896-.181-1.526-.448-1.888-.8-.352-.363-.528-.859-.528-1.488 0-.459.085-.87.256-1.232a2.55 2.55 0 01.736-.944 3.46 3.46 0 011.152-.592 5.237 5.237 0 011.52-.208 6.86 6.86 0 012.64.528l-.976 1.888zm9.418-2.112h2.896v1.04c.395-.48.795-.8 1.2-.96.405-.17.88-.256 1.424-.256.576 0 1.067.096 1.472.288.416.181.768.443 1.056.784.235.277.395.587.48.928.085.341.128.73.128 1.168V13h-2.896V8.856c0-.405-.032-.73-.096-.976a1.175 1.175 0 00-.304-.608 1.097 1.097 0 00-.432-.272 1.61 1.61 0 00-.512-.08c-.491 0-.869.15-1.136.448-.256.288-.384.704-.384 1.248V13h-2.896V4.792zm14.001 4.064c0 .277.048.533.144.768.107.224.24.421.4.592.171.17.368.304.592.4a1.927 1.927 0 001.456 0c.235-.096.432-.23.592-.4.171-.17.304-.368.4-.592a1.79 1.79 0 00.16-.752c0-.256-.053-.496-.16-.72a1.823 1.823 0 00-.4-.608 1.657 1.657 0 00-.592-.4 1.927 1.927 0 00-1.456 0c-.224.096-.421.23-.592.4a2.32 2.32 0 00-.4.592 1.808 1.808 0 00-.144.72zm-3.056-.032c0-.608.123-1.173.368-1.696a4.078 4.078 0 011.024-1.376 4.809 4.809 0 011.552-.928 5.695 5.695 0 011.984-.336c.704 0 1.355.112 1.952.336a4.562 4.562 0 011.568.912c.448.384.795.848 1.04 1.392.245.533.368 1.125.368 1.776 0 .65-.128 1.248-.384 1.792a4.248 4.248 0 01-1.024 1.392 4.675 4.675 0 01-1.584.896 5.953 5.953 0 01-1.984.32 5.764 5.764 0 01-1.952-.32 4.592 4.592 0 01-1.552-.912 4.299 4.299 0 01-1.008-1.408 4.505 4.505 0 01-.368-1.84zm24.433-1.376c-.502-.341-1.008-.512-1.52-.512-.278 0-.539.048-.784.144a1.876 1.876 0 00-.624.416c-.182.17-.326.379-.432.624a2.097 2.097 0 00-.144.8c0 .288.048.555.144.8.106.235.245.443.416.624.181.17.394.304.64.4.245.096.506.144.784.144.544 0 1.05-.187 1.52-.56v2.464c-.715.31-1.392.464-2.032.464a4.86 4.86 0 01-1.712-.304 4.505 4.505 0 01-1.424-.864 4.452 4.452 0 01-.976-1.36 4.19 4.19 0 01-.368-1.776c0-.65.117-1.243.352-1.776a4.143 4.143 0 01.96-1.392 4.191 4.191 0 011.44-.912 4.862 4.862 0 011.808-.336c.704 0 1.354.15 1.952.448v2.464zm5.027 1.408c0 .277.048.533.144.768.107.224.24.421.4.592.171.17.368.304.592.4a1.927 1.927 0 001.456 0c.235-.096.432-.23.592-.4.171-.17.304-.368.4-.592a1.79 1.79 0 00.16-.752c0-.256-.053-.496-.16-.72a1.823 1.823 0 00-.4-.608 1.657 1.657 0 00-.592-.4 1.927 1.927 0 00-1.456 0c-.224.096-.421.23-.592.4a2.32 2.32 0 00-.4.592 1.808 1.808 0 00-.144.72zm-3.056-.032c0-.608.123-1.173.368-1.696a4.091 4.091 0 011.024-1.376 4.82 4.82 0 011.552-.928 5.7 5.7 0 011.984-.336c.704 0 1.355.112 1.952.336a4.562 4.562 0 011.568.912c.448.384.795.848 1.04 1.392a4.19 4.19 0 01.368 1.776c0 .65-.128 1.248-.384 1.792a4.234 4.234 0 01-1.024 1.392 4.675 4.675 0 01-1.584.896 5.953 5.953 0 01-1.984.32 5.768 5.768 0 01-1.952-.32 4.601 4.601 0 01-1.552-.912 4.328 4.328 0 01-1.008-1.408 4.505 4.505 0 01-.368-1.84zm12.163-4.032h2.896V5.8c.79-.757 1.675-1.136 2.656-1.136 1.216 0 2.144.512 2.784 1.536.651-1.035 1.579-1.552 2.784-1.552.384 0 .747.059 1.088.176.342.107.635.283.88.528.246.235.438.544.576.928.15.384.224.848.224 1.392V13h-2.896V8.952c0-.416-.032-.757-.096-1.024-.053-.267-.138-.475-.256-.624a.798.798 0 00-.384-.304 1.414 1.414 0 00-.48-.08c-.928 0-1.392.677-1.392 2.032V13h-2.896V8.952c0-.416-.026-.757-.08-1.024-.053-.277-.133-.496-.24-.656a.7.7 0 00-.384-.32 1.5 1.5 0 00-.56-.096 1.61 1.61 0 00-.512.08.937.937 0 00-.432.32c-.117.15-.213.363-.288.64-.064.267-.096.619-.096 1.056V13h-2.896V4.792zm23.341 4.128c0-.256-.048-.496-.144-.72a1.658 1.658 0 00-.384-.608 1.838 1.838 0 00-.608-.4 1.692 1.692 0 00-.736-.16c-.256 0-.496.048-.72.144-.224.096-.422.23-.592.4-.16.17-.294.373-.4.608a1.808 1.808 0 00-.144.72c0 .256.048.496.144.72.096.224.229.421.4.592.17.16.368.293.592.4a1.923 1.923 0 001.456 0c.224-.096.416-.23.576-.4.17-.17.304-.368.4-.592.106-.224.16-.459.16-.704zm-3.648 8.176h-2.896V4.792h2.896v.912c.618-.779 1.461-1.168 2.528-1.168.586 0 1.13.117 1.632.352a4.037 4.037 0 012.192 2.32c.213.533.32 1.104.32 1.712 0 .608-.107 1.173-.32 1.696a4.19 4.19 0 01-.864 1.376 3.906 3.906 0 01-1.296.928 3.959 3.959 0 01-1.632.336c-1.024 0-1.878-.352-2.56-1.056v4.896zm11.65-8.224c0 .267.048.517.144.752.096.224.224.421.384.592.171.17.368.304.592.4.235.096.486.144.752.144.256 0 .496-.048.72-.144.235-.096.432-.23.592-.4.171-.17.304-.368.4-.592.107-.224.16-.464.16-.72 0-.256-.053-.496-.16-.72a1.823 1.823 0 00-.4-.608 1.657 1.657 0 00-.592-.4 1.808 1.808 0 00-.72-.144 1.97 1.97 0 00-.752.144c-.224.096-.421.23-.592.4-.16.17-.288.368-.384.592a1.696 1.696 0 00-.144.704zm3.648-4.08h2.912V13h-2.912v-.912c-.618.779-1.456 1.168-2.512 1.168a4.17 4.17 0 01-1.648-.32 4.087 4.087 0 01-1.312-.928 4.375 4.375 0 01-.88-1.392 4.885 4.885 0 01-.304-1.744c0-.587.102-1.141.304-1.664.203-.533.486-.997.848-1.392a3.906 3.906 0 011.296-.928 3.879 3.879 0 011.664-.352c1.024 0 1.872.357 2.544 1.072v-.816zm5.523 0h2.896v1.344c.31-.49.688-.864 1.136-1.12.448-.267.971-.4 1.568-.4h.24c.096 0 .203.01.32.032v2.768a2.752 2.752 0 00-1.248-.288c-.672 0-1.178.203-1.52.608-.33.395-.496.976-.496 1.744V13h-2.896V4.792zm11.622 2.416V13H205.3V7.208h-.96V4.792h.96V2.328h2.896v2.464h1.648v2.416h-1.648zm6.492-2.416V13h-2.896V4.792h2.896zM211.6 1.64c0-.224.042-.432.128-.624a1.62 1.62 0 01.352-.528c.149-.15.32-.267.512-.352a1.63 1.63 0 011.792.352c.149.15.266.325.352.528a1.639 1.639 0 010 1.264 1.65 1.65 0 01-.88.864 1.63 1.63 0 01-1.264 0 1.684 1.684 0 01-.512-.352 1.67 1.67 0 01-.352-.512 1.62 1.62 0 01-.128-.64zm5.707 3.152h2.896V5.8c.789-.757 1.674-1.136 2.656-1.136 1.216 0 2.144.512 2.784 1.536.65-1.035 1.578-1.552 2.784-1.552.384 0 .746.059 1.088.176.341.107.634.283.88.528.245.235.437.544.576.928.149.384.224.848.224 1.392V13h-2.896V8.952c0-.416-.032-.757-.096-1.024-.054-.267-.139-.475-.256-.624a.807.807 0 00-.384-.304c-.15-.053-.31-.08-.48-.08-.928 0-1.392.677-1.392 2.032V13h-2.896V8.952c0-.416-.027-.757-.08-1.024-.054-.277-.134-.496-.24-.656a.7.7 0 00-.384-.32 1.503 1.503 0 00-.56-.096c-.182 0-.352.027-.512.08a.937.937 0 00-.432.32c-.118.15-.214.363-.288.64-.064.267-.096.619-.096 1.056V13h-2.896V4.792zm19.251 4.064c0 .277.048.533.144.768.106.224.24.421.4.592.17.17.368.304.592.4a1.923 1.923 0 001.456 0c.234-.096.432-.23.592-.4.17-.17.304-.368.4-.592.106-.235.16-.485.16-.752 0-.256-.054-.496-.16-.72a1.838 1.838 0 00-.4-.608 1.666 1.666 0 00-.592-.4 1.923 1.923 0 00-1.456 0c-.224.096-.422.23-.592.4-.16.17-.294.368-.4.592a1.808 1.808 0 00-.144.72zm-3.056-.032c0-.608.122-1.173.368-1.696a4.065 4.065 0 011.024-1.376 4.798 4.798 0 011.552-.928 5.695 5.695 0 011.984-.336 5.52 5.52 0 011.952.336c.608.213 1.13.517 1.568.912.448.384.794.848 1.04 1.392.245.533.368 1.125.368 1.776 0 .65-.128 1.248-.384 1.792a4.262 4.262 0 01-1.024 1.392 4.695 4.695 0 01-1.584.896c-.608.213-1.27.32-1.984.32a5.764 5.764 0 01-1.952-.32 4.582 4.582 0 01-1.552-.912 4.299 4.299 0 01-1.008-1.408 4.488 4.488 0 01-.368-1.84zm17.603-1.92c-.534-.277-1.056-.416-1.568-.416-.267 0-.486.053-.656.16a.495.495 0 00-.24.432c0 .096.01.176.032.24.032.053.09.107.176.16.096.053.229.101.4.144.181.043.416.096.704.16.8.16 1.397.448 1.792.864.394.405.592.928.592 1.568 0 .48-.096.912-.288 1.296-.192.384-.459.71-.8.976a3.788 3.788 0 01-1.232.592c-.48.15-1.008.224-1.584.224-1.11 0-2.203-.315-3.28-.944l1.056-2.048c.81.555 1.578.832 2.304.832.266 0 .485-.059.656-.176.17-.117.256-.267.256-.448a.576.576 0 00-.048-.256.345.345 0 00-.16-.192 1.102 1.102 0 00-.384-.16 5.57 5.57 0 00-.64-.16c-.896-.181-1.526-.448-1.888-.8-.352-.363-.528-.859-.528-1.488 0-.459.085-.87.256-1.232.17-.373.416-.688.736-.944a3.46 3.46 0 011.152-.592 5.232 5.232 0 011.52-.208c.906 0 1.786.176 2.64.528l-.976 1.888zM.227 27.792h2.896v1.04c.394-.48.794-.8 1.2-.96.405-.17.88-.256 1.424-.256.576 0 1.066.096 1.472.288.416.181.768.443 1.056.784.234.277.394.587.48.928.085.341.128.73.128 1.168V36H5.987v-4.144c0-.405-.032-.73-.096-.976a1.174 1.174 0 00-.304-.608A1.097 1.097 0 005.155 30a1.61 1.61 0 00-.512-.08c-.491 0-.87.15-1.136.448-.256.288-.384.704-.384 1.248V36H.227v-8.208zm14.16 0v4.624c0 1.013.491 1.52 1.473 1.52.981 0 1.472-.507 1.472-1.52v-4.624h2.896v5.184c0 1.11-.368 1.941-1.104 2.496-.726.555-1.814.832-3.264.832-1.451 0-2.544-.277-3.28-.832-.726-.555-1.088-1.387-1.088-2.496v-5.184h2.896zm14.448 2.912a1.742 1.742 0 00-.592-.976c-.299-.245-.662-.368-1.088-.368-.448 0-.816.117-1.104.352-.277.235-.453.565-.528.992h3.312zm-3.392 1.68c0 1.248.586 1.872 1.76 1.872.63 0 1.104-.256 1.424-.768h2.8c-.566 1.877-1.979 2.816-4.24 2.816A5.702 5.702 0 0125.283 36a4.437 4.437 0 01-1.488-.896 4.01 4.01 0 01-.944-1.376c-.224-.533-.336-1.13-.336-1.792 0-.683.107-1.296.32-1.84a3.872 3.872 0 01.912-1.408c.395-.384.87-.677 1.424-.88.565-.213 1.2-.32 1.904-.32.693 0 1.317.107 1.872.32a3.707 3.707 0 011.408.896c.384.395.677.88.88 1.456.203.565.304 1.205.304 1.92v.304h-6.096zm13.831-2.48c-.533-.277-1.056-.416-1.568-.416-.267 0-.485.053-.656.16a.495.495 0 00-.24.432c0 .096.01.176.032.24.032.053.09.107.176.16.096.053.23.101.4.144.181.043.416.096.704.16.8.16 1.398.448 1.792.864.395.405.592.928.592 1.568 0 .48-.096.912-.288 1.296-.192.384-.459.71-.8.976a3.782 3.782 0 01-1.232.592c-.48.15-1.008.224-1.584.224-1.11 0-2.202-.315-3.28-.944l1.056-2.048c.81.555 1.579.832 2.304.832.267 0 .485-.059.656-.176.17-.117.256-.267.256-.448a.576.576 0 00-.048-.256.342.342 0 00-.16-.192 1.093 1.093 0 00-.384-.16 5.538 5.538 0 00-.64-.16c-.896-.181-1.525-.448-1.888-.8-.352-.363-.528-.859-.528-1.488 0-.459.086-.87.256-1.232a2.55 2.55 0 01.736-.944 3.46 3.46 0 011.152-.592 5.236 5.236 0 011.52-.208c.907 0 1.787.176 2.64.528l-.976 1.888zm6.792.304V36H43.17v-5.792h-.96v-2.416h.96v-2.464h2.896v2.464h1.648v2.416h-1.648zm3.376-2.416h2.896v1.344c.31-.49.688-.864 1.136-1.12.448-.267.971-.4 1.568-.4h.24c.096 0 .203.01.32.032v2.768a2.752 2.752 0 00-1.248-.288c-.672 0-1.178.203-1.52.608-.33.395-.496.976-.496 1.744V36h-2.896v-8.208zm10.892 4.064c0 .277.048.533.144.768.107.224.24.421.4.592.17.17.368.304.592.4a1.926 1.926 0 001.456 0 1.66 1.66 0 00.592-.4c.17-.17.304-.368.4-.592.107-.235.16-.485.16-.752 0-.256-.053-.496-.16-.72a1.827 1.827 0 00-.4-.608 1.66 1.66 0 00-.592-.4 1.926 1.926 0 00-1.456 0c-.224.096-.421.23-.592.4-.16.17-.293.368-.4.592a1.808 1.808 0 00-.144.72zm-3.056-.032c0-.608.123-1.173.368-1.696a4.08 4.08 0 011.024-1.376 4.81 4.81 0 011.552-.928 5.697 5.697 0 011.984-.336c.704 0 1.355.112 1.952.336.608.213 1.13.517 1.568.912.448.384.795.848 1.04 1.392.245.533.368 1.125.368 1.776 0 .65-.128 1.248-.384 1.792a4.247 4.247 0 01-1.024 1.392 4.681 4.681 0 01-1.584.896c-.608.213-1.27.32-1.984.32a5.766 5.766 0 01-1.952-.32 4.593 4.593 0 01-1.552-.912 4.31 4.31 0 01-1.008-1.408 4.5 4.5 0 01-.368-1.84zm18.24-4.032h2.897v1.04c.394-.48.794-.8 1.2-.96.405-.17.88-.256 1.424-.256.576 0 1.066.096 1.472.288.416.181.768.443 1.056.784.234.277.394.587.48.928.085.341.128.73.128 1.168V36h-2.896v-4.144c0-.405-.032-.73-.096-.976a1.175 1.175 0 00-.304-.608 1.097 1.097 0 00-.432-.272 1.61 1.61 0 00-.512-.08c-.491 0-.87.15-1.136.448-.256.288-.384.704-.384 1.248V36h-2.896v-8.208zm14.162 0v4.624c0 1.013.49 1.52 1.472 1.52.98 0 1.472-.507 1.472-1.52v-4.624h2.896v5.184c0 1.11-.368 1.941-1.104 2.496-.726.555-1.814.832-3.264.832-1.451 0-2.544-.277-3.28-.832-.726-.555-1.088-1.387-1.088-2.496v-5.184h2.896zm4.256-3.664l-2.784 2.464-1.344-.992 2.288-2.8 1.84 1.328zm4.19 3.664h2.897V28.8c.789-.757 1.674-1.136 2.656-1.136 1.216 0 2.144.512 2.784 1.536.65-1.035 1.578-1.552 2.784-1.552.384 0 .746.059 1.088.176.341.107.634.283.88.528.245.235.437.544.576.928.149.384.224.848.224 1.392V36h-2.896v-4.048c0-.416-.032-.757-.096-1.024-.054-.267-.139-.475-.256-.624a.807.807 0 00-.384-.304c-.15-.053-.31-.08-.48-.08-.928 0-1.392.677-1.392 2.032V36h-2.896v-4.048c0-.416-.027-.757-.08-1.024-.054-.277-.134-.496-.24-.656a.7.7 0 00-.384-.32 1.503 1.503 0 00-.56-.096c-.182 0-.352.027-.512.08a.937.937 0 00-.432.32c-.118.15-.214.363-.288.64-.064.267-.096.619-.096 1.056V36h-2.896v-8.208zm22.516 2.912a1.746 1.746 0 00-.592-.976c-.299-.245-.662-.368-1.088-.368-.448 0-.816.117-1.104.352-.278.235-.454.565-.528.992h3.312zm-3.392 1.68c0 1.248.586 1.872 1.76 1.872.629 0 1.104-.256 1.424-.768h2.8c-.566 1.877-1.979 2.816-4.24 2.816A5.7 5.7 0 01117.09 36a4.437 4.437 0 01-1.488-.896 4.001 4.001 0 01-.944-1.376c-.224-.533-.336-1.13-.336-1.792 0-.683.106-1.296.32-1.84a3.865 3.865 0 01.912-1.408 3.954 3.954 0 011.424-.88c.565-.213 1.2-.32 1.904-.32.693 0 1.317.107 1.872.32a3.712 3.712 0 011.408.896c.384.395.677.88.88 1.456.202.565.304 1.205.304 1.92v.304h-6.096zm8.391-4.592h2.896v1.344c.309-.49.688-.864 1.136-1.12.448-.267.971-.4 1.568-.4h.24c.096 0 .203.01.32.032v2.768a2.752 2.752 0 00-1.248-.288c-.672 0-1.179.203-1.52.608-.331.395-.496.976-.496 1.744V36h-2.896v-8.208zm10.892 4.064c0 .277.048.533.144.768.106.224.24.421.4.592.17.17.368.304.592.4a1.923 1.923 0 001.456 0c.234-.096.432-.23.592-.4.17-.17.304-.368.4-.592.106-.235.16-.485.16-.752 0-.256-.054-.496-.16-.72a1.838 1.838 0 00-.4-.608 1.665 1.665 0 00-.592-.4 1.923 1.923 0 00-1.456 0c-.224.096-.422.23-.592.4-.16.17-.294.368-.4.592a1.808 1.808 0 00-.144.72zm-3.056-.032c0-.608.122-1.173.368-1.696a4.065 4.065 0 011.024-1.376 4.798 4.798 0 011.552-.928 5.695 5.695 0 011.984-.336 5.52 5.52 0 011.952.336 4.57 4.57 0 011.568.912c.448.384.794.848 1.04 1.392.245.533.368 1.125.368 1.776 0 .65-.128 1.248-.384 1.792a4.262 4.262 0 01-1.024 1.392 4.695 4.695 0 01-1.584.896c-.608.213-1.27.32-1.984.32a5.764 5.764 0 01-1.952-.32 4.582 4.582 0 01-1.552-.912 4.299 4.299 0 01-1.008-1.408 4.488 4.488 0 01-.368-1.84zm20.928.048c0 .267.048.517.144.752.096.224.224.421.384.592.171.17.368.304.592.4.235.096.486.144.752.144.256 0 .496-.048.72-.144.235-.096.432-.23.592-.4.171-.17.304-.368.4-.592.107-.224.16-.464.16-.72 0-.256-.053-.496-.16-.72a1.823 1.823 0 00-.4-.608 1.657 1.657 0 00-.592-.4 1.927 1.927 0 00-1.456 0c-.224.096-.421.23-.592.4a2.32 2.32 0 00-.4.592 1.696 1.696 0 00-.144.704zm3.648-9.152h2.912V36h-2.912v-.912c-.618.779-1.456 1.168-2.512 1.168a3.997 3.997 0 01-2.96-1.264 4.375 4.375 0 01-.88-1.392 4.839 4.839 0 01-.304-1.728c0-.587.096-1.141.288-1.664.203-.533.486-.997.848-1.392a3.906 3.906 0 011.296-.928 3.983 3.983 0 011.68-.352c1.024 0 1.872.357 2.544 1.072V22.72zm11.523 7.984a1.74 1.74 0 00-.592-.976c-.299-.245-.661-.368-1.088-.368-.448 0-.816.117-1.104.352-.277.235-.453.565-.528.992h3.312zm-3.392 1.68c0 1.248.587 1.872 1.76 1.872.629 0 1.104-.256 1.424-.768h2.8c-.565 1.877-1.979 2.816-4.24 2.816a5.704 5.704 0 01-1.904-.304 4.437 4.437 0 01-1.488-.896 4.015 4.015 0 01-.944-1.376c-.224-.533-.336-1.13-.336-1.792 0-.683.107-1.296.32-1.84a3.865 3.865 0 01.912-1.408 3.962 3.962 0 011.424-.88c.565-.213 1.2-.32 1.904-.32.693 0 1.317.107 1.872.32a3.705 3.705 0 011.408.896c.384.395.677.88.88 1.456.203.565.304 1.205.304 1.92v.304h-6.096zM180.381 36l2.048-12.064h3.104l2.416 6.432 2.4-6.432h3.104L195.501 36h-3.12l-1.04-6.944L188.493 36h-1.248l-2.704-6.944-1.04 6.944h-3.12zm23.037-5.296a1.74 1.74 0 00-.592-.976c-.299-.245-.661-.368-1.088-.368-.448 0-.816.117-1.104.352-.277.235-.453.565-.528.992h3.312zm-3.392 1.68c0 1.248.587 1.872 1.76 1.872.629 0 1.104-.256 1.424-.768h2.8c-.565 1.877-1.979 2.816-4.24 2.816a5.704 5.704 0 01-1.904-.304 4.437 4.437 0 01-1.488-.896 4.015 4.015 0 01-.944-1.376c-.224-.533-.336-1.13-.336-1.792 0-.683.107-1.296.32-1.84a3.865 3.865 0 01.912-1.408 3.962 3.962 0 011.424-.88c.565-.213 1.2-.32 1.904-.32.693 0 1.317.107 1.872.32a3.705 3.705 0 011.408.896c.384.395.677.88.88 1.456.203.565.304 1.205.304 1.92v.304h-6.096zm11.079-.512c0 .267.048.517.144.752.096.224.224.421.384.592.171.17.368.304.592.4.235.096.486.144.752.144.256 0 .496-.048.72-.144.235-.096.432-.23.592-.4.171-.17.304-.368.4-.592.107-.224.16-.464.16-.72 0-.256-.053-.496-.16-.72a1.823 1.823 0 00-.4-.608 1.657 1.657 0 00-.592-.4 1.927 1.927 0 00-1.456 0c-.224.096-.421.23-.592.4a2.32 2.32 0 00-.4.592 1.696 1.696 0 00-.144.704zm3.648-9.152h2.912V36h-2.912v-.912c-.618.779-1.456 1.168-2.512 1.168a3.997 3.997 0 01-2.96-1.264 4.375 4.375 0 01-.88-1.392 4.839 4.839 0 01-.304-1.728c0-.587.096-1.141.288-1.664.203-.533.486-.997.848-1.392a3.906 3.906 0 011.296-.928 3.983 3.983 0 011.68-.352c1.024 0 1.872.357 2.544 1.072V22.72zm8.419 5.072V36h-2.896v-8.208h2.896zm-3.088-3.152c0-.224.043-.432.128-.624.085-.203.203-.379.352-.528.149-.15.32-.267.512-.352a1.634 1.634 0 012.144.88 1.639 1.639 0 010 1.264 1.687 1.687 0 01-.352.512c-.149.15-.325.267-.528.352a1.634 1.634 0 01-1.264 0 1.684 1.684 0 01-.512-.352 1.687 1.687 0 01-.352-.512 1.639 1.639 0 01-.128-.64zm11.899 5.808c-.501-.341-1.008-.512-1.52-.512-.277 0-.539.048-.784.144a1.876 1.876 0 00-.624.416c-.181.17-.325.379-.432.624a2.097 2.097 0 00-.144.8c0 .288.048.555.144.8.107.235.245.443.416.624.181.17.395.304.64.4.245.096.507.144.784.144.544 0 1.051-.187 1.52-.56v2.464c-.715.31-1.392.464-2.032.464a4.864 4.864 0 01-1.712-.304 4.516 4.516 0 01-1.424-.864 4.469 4.469 0 01-.976-1.36 4.204 4.204 0 01-.368-1.776c0-.65.117-1.243.352-1.776a4.172 4.172 0 01.96-1.392 4.19 4.19 0 011.44-.912 4.862 4.862 0 011.808-.336c.704 0 1.355.15 1.952.448v2.464zm4.98 1.424c0 .267.048.517.144.752.096.224.224.421.384.592.17.17.368.304.592.4a1.963 1.963 0 001.472 0c.234-.096.432-.23.592-.4.17-.17.304-.368.4-.592.106-.224.16-.464.16-.72 0-.256-.054-.496-.16-.72a1.838 1.838 0 00-.4-.608 1.665 1.665 0 00-.592-.4 1.963 1.963 0 00-1.472 0c-.224.096-.422.23-.592.4-.16.17-.288.368-.384.592a1.696 1.696 0 00-.144.704zm3.648-4.08h2.912V36h-2.912v-.912c-.619.779-1.456 1.168-2.512 1.168a4.163 4.163 0 01-1.648-.32 4.065 4.065 0 01-1.312-.928 4.34 4.34 0 01-.88-1.392 4.863 4.863 0 01-.304-1.744c0-.587.101-1.141.304-1.664.202-.533.485-.997.848-1.392a3.886 3.886 0 011.296-.928 3.875 3.875 0 011.664-.352c1.024 0 1.872.357 2.544 1.072v-.816zm5.523 0h2.896v1.344c.309-.49.688-.864 1.136-1.12.448-.267.97-.4 1.568-.4h.24c.096 0 .202.01.32.032v2.768a2.752 2.752 0 00-1.248-.288c-.672 0-1.179.203-1.52.608-.331.395-.496.976-.496 1.744V36h-2.896v-8.208zm14.186 2.912a1.74 1.74 0 00-.592-.976c-.298-.245-.661-.368-1.088-.368-.448 0-.816.117-1.104.352-.277.235-.453.565-.528.992h3.312zm-3.392 1.68c0 1.248.587 1.872 1.76 1.872.63 0 1.104-.256 1.424-.768h2.8c-.565 1.877-1.978 2.816-4.24 2.816a5.704 5.704 0 01-1.904-.304 4.437 4.437 0 01-1.488-.896 4.015 4.015 0 01-.944-1.376c-.224-.533-.336-1.13-.336-1.792 0-.683.107-1.296.32-1.84a3.89 3.89 0 01.912-1.408c.395-.384.87-.677 1.424-.88.566-.213 1.2-.32 1.904-.32.694 0 1.318.107 1.872.32a3.705 3.705 0 011.408.896c.384.395.678.88.88 1.456.203.565.304 1.205.304 1.92v.304h-6.096zm8.248 2.08c0-.256.048-.496.144-.72.096-.235.229-.437.4-.608.17-.17.368-.304.592-.4a1.923 1.923 0 011.456 0c.234.096.437.23.608.4.17.17.304.373.4.608a1.926 1.926 0 010 1.456 1.838 1.838 0 01-1.008.992 1.923 1.923 0 01-1.456 0 1.864 1.864 0 01-1.136-1.728z" fill="#fff"/></svg>