<svg width="279" height="16" viewBox="0 0 279 16" fill="none" xmlns="http://www.w3.org/2000/svg"><path d="M7.407 8.08L6.175 4.566 4.943 8.08h2.464zm.728 2.086h-3.92L3.585 12H.659L4.677 1.444h2.996L11.69 12H8.764l-.63-1.834zM18.529 8.43c0-.224-.041-.434-.125-.63a1.434 1.434 0 00-.337-.532 1.598 1.598 0 00-.532-.35 1.478 1.478 0 00-.643-.14c-.224 0-.434.042-.63.126-.197.084-.37.2-.519.35-.14.15-.256.327-.35.532a1.582 1.582 0 00-.126.63c0 .224.043.434.127.63.083.196.2.369.35.518.149.14.322.257.518.35a1.685 1.685 0 001.273 0c.197-.084.364-.2.505-.35.149-.15.265-.322.35-.518.093-.196.14-.401.14-.616zm-3.191 7.154h-2.534V4.818h2.534v.798c.54-.681 1.278-1.022 2.211-1.022.514 0 .99.103 1.428.308a3.526 3.526 0 011.918 2.03c.187.467.28.966.28 1.498s-.093 1.027-.28 1.484c-.177.457-.429.859-.755 1.204a3.412 3.412 0 01-1.134.812 3.46 3.46 0 01-1.428.294c-.896 0-1.643-.308-2.24-.924v4.284zM22.62 4.818h2.534v1.176c.27-.43.602-.756.994-.98.392-.233.85-.35 1.372-.35h.21c.084 0 .177.01.28.028v2.422a2.408 2.408 0 00-1.092-.252c-.588 0-1.031.177-1.33.532-.29.345-.434.854-.434 1.526V12H22.62V4.818zm11.854 2.548a1.525 1.525 0 00-.518-.854 1.451 1.451 0 00-.953-.322c-.392 0-.714.103-.965.308-.243.205-.397.495-.462.868h2.898zm-2.968 1.47c0 1.092.513 1.638 1.54 1.638.55 0 .965-.224 1.245-.672h2.45c-.494 1.643-1.73 2.464-3.71 2.464A4.99 4.99 0 0131.367 12a3.883 3.883 0 01-1.302-.784 3.508 3.508 0 01-.826-1.204 4.013 4.013 0 01-.294-1.568c0-.597.093-1.134.28-1.61.186-.485.452-.896.797-1.232.346-.336.761-.593 1.246-.77a4.69 4.69 0 011.667-.28c.606 0 1.152.093 1.638.28.485.177.895.439 1.231.784.337.345.593.77.77 1.274.178.495.267 1.055.267 1.68v.266h-5.335zm6.782-4.018h2.534v.91c.345-.42.695-.7 1.05-.84.355-.15.77-.224 1.246-.224.504 0 .933.084 1.288.252.364.159.672.387.924.686.205.243.345.513.42.812.075.299.112.64.112 1.022V12h-2.534V8.374a3.5 3.5 0 00-.084-.854 1.027 1.027 0 00-.266-.532.96.96 0 00-.378-.238c-.14-.047-.29-.07-.448-.07-.43 0-.76.13-.994.392-.224.252-.336.616-.336 1.092V12h-2.534V4.818zm11.649 3.57c0 .233.042.453.126.658.084.196.196.369.336.518.15.15.322.266.518.35a1.72 1.72 0 001.288 0c.205-.084.378-.2.518-.35.15-.15.266-.322.35-.518.093-.196.14-.406.14-.63 0-.224-.047-.434-.14-.63a1.6 1.6 0 00-.35-.532 1.453 1.453 0 00-.518-.35 1.685 1.685 0 00-1.274 0c-.196.084-.369.2-.518.35-.14.15-.257.322-.35.518a1.484 1.484 0 00-.126.616zM53.129.38h2.548V12h-2.548v-.798c-.541.681-1.274 1.022-2.198 1.022a3.495 3.495 0 01-2.59-1.106 3.811 3.811 0 01-.77-1.218 4.222 4.222 0 01-.266-1.512c0-.513.084-.999.252-1.456.177-.467.424-.873.742-1.218a3.412 3.412 0 011.134-.812 3.486 3.486 0 011.47-.308c.896 0 1.638.313 2.226.938V.38zm9.522 6.986a1.525 1.525 0 00-.518-.854 1.451 1.451 0 00-.952-.322c-.392 0-.714.103-.966.308-.243.205-.397.495-.462.868h2.898zm-2.968 1.47c0 1.092.514 1.638 1.54 1.638.55 0 .966-.224 1.246-.672h2.45c-.495 1.643-1.731 2.464-3.71 2.464A4.99 4.99 0 0159.543 12a3.883 3.883 0 01-1.302-.784 3.508 3.508 0 01-.826-1.204 4.013 4.013 0 01-.294-1.568c0-.597.093-1.134.28-1.61a3.39 3.39 0 01.798-1.232c.346-.336.76-.593 1.246-.77a4.69 4.69 0 011.666-.28c.607 0 1.153.093 1.638.28.485.177.896.439 1.232.784.336.345.593.77.77 1.274.177.495.266 1.055.266 1.68v.266h-5.334zm16.3-2.17c-.466-.243-.924-.364-1.371-.364-.234 0-.425.047-.575.14a.433.433 0 00-.21.378c0 .084.01.154.029.21.028.047.079.093.154.14.084.047.2.089.35.126.158.037.364.084.615.14.7.14 1.223.392 1.569.756.345.355.517.812.517 1.372a2.5 2.5 0 01-.252 1.134c-.168.336-.4.62-.7.854a3.308 3.308 0 01-1.078.518c-.42.13-.882.196-1.386.196-.97 0-1.927-.275-2.87-.826l.924-1.792c.71.485 1.382.728 2.017.728.233 0 .424-.051.574-.154.149-.103.223-.233.223-.392a.504.504 0 00-.041-.224.3.3 0 00-.14-.168.955.955 0 00-.336-.14 4.845 4.845 0 00-.56-.14c-.785-.159-1.335-.392-1.653-.7-.308-.317-.462-.751-.462-1.302 0-.401.075-.76.225-1.078.149-.327.363-.602.643-.826.28-.224.617-.397 1.009-.518a4.582 4.582 0 011.33-.182c.793 0 1.563.154 2.31.462l-.854 1.652zm4.757 1.708c0 .243.043.467.127.672.093.196.21.369.35.518.149.15.322.266.517.35a1.685 1.685 0 001.275 0c.205-.084.377-.2.517-.35.15-.15.267-.322.35-.518.094-.205.14-.425.14-.658 0-.224-.046-.434-.14-.63a1.6 1.6 0 00-.35-.532 1.453 1.453 0 00-.517-.35 1.685 1.685 0 00-1.274 0c-.197.084-.37.2-.519.35-.14.15-.256.322-.35.518a1.582 1.582 0 00-.126.63zm-2.673-.028c0-.532.107-1.027.322-1.484.214-.467.513-.868.895-1.204a4.208 4.208 0 011.358-.812 4.985 4.985 0 011.737-.294c.615 0 1.185.098 1.707.294.532.187.99.453 1.373.798.391.336.695.742.91 1.218.214.467.322.985.322 1.554 0 .57-.112 1.092-.337 1.568a3.716 3.716 0 01-.895 1.218 4.098 4.098 0 01-1.386.784c-.532.187-1.111.28-1.736.28a5.043 5.043 0 01-1.709-.28 4.02 4.02 0 01-1.358-.798 3.77 3.77 0 01-.882-1.232 3.936 3.936 0 01-.322-1.61zm15.808.084c0-.224-.042-.434-.126-.63a1.6 1.6 0 00-.868-.882 1.479 1.479 0 00-.644-.14c-.224 0-.434.042-.63.126-.196.084-.368.2-.518.35-.14.15-.256.327-.35.532a1.582 1.582 0 00-.126.63c0 .224.042.434.126.63.084.196.2.369.35.518.15.14.322.257.518.35a1.685 1.685 0 001.274 0c.196-.084.364-.2.504-.35.15-.15.266-.322.35-.518.094-.196.14-.401.14-.616zM90.683.38v5.152c.598-.625 1.344-.938 2.24-.938.532 0 1.018.103 1.456.308.448.196.826.467 1.134.812.318.336.565.737.742 1.204.178.457.266.947.266 1.47 0 .532-.093 1.031-.28 1.498a3.626 3.626 0 01-1.918 2.044 3.46 3.46 0 01-1.428.294c-.933 0-1.67-.34-2.212-1.022V12H88.15V.38h2.534zm7.283 4.438h2.534v1.176c.27-.43.602-.756.994-.98.392-.233.849-.35 1.372-.35h.21c.084 0 .177.01.28.028v2.422a2.408 2.408 0 00-1.092-.252c-.588 0-1.032.177-1.33.532-.29.345-.434.854-.434 1.526V12h-2.534V4.818zm11.853 2.548a1.52 1.52 0 00-.518-.854 1.45 1.45 0 00-.952-.322c-.392 0-.714.103-.966.308-.242.205-.396.495-.462.868h2.898zm-2.968 1.47c0 1.092.514 1.638 1.54 1.638.551 0 .966-.224 1.246-.672h2.45c-.494 1.643-1.731 2.464-3.71 2.464a4.994 4.994 0 01-1.666-.266 3.883 3.883 0 01-1.302-.784 3.518 3.518 0 01-.826-1.204 4.013 4.013 0 01-.294-1.568c0-.597.094-1.134.28-1.61.187-.485.453-.896.798-1.232a3.475 3.475 0 011.246-.77 4.691 4.691 0 011.666-.28c.607 0 1.153.093 1.638.28.486.177.896.439 1.232.784.336.345.593.77.77 1.274.178.495.266 1.055.266 1.68v.266h-5.334zm16.79-1.47a1.52 1.52 0 00-.518-.854 1.45 1.45 0 00-.952-.322c-.392 0-.714.103-.966.308-.242.205-.396.495-.462.868h2.898zm-2.968 1.47c0 1.092.514 1.638 1.54 1.638.551 0 .966-.224 1.246-.672h2.45c-.494 1.643-1.731 2.464-3.71 2.464a4.994 4.994 0 01-1.666-.266 3.883 3.883 0 01-1.302-.784 3.518 3.518 0 01-.826-1.204 4.013 4.013 0 01-.294-1.568c0-.597.094-1.134.28-1.61.187-.485.453-.896.798-1.232a3.475 3.475 0 011.246-.77 4.691 4.691 0 011.666-.28c.607 0 1.153.093 1.638.28.486.177.896.439 1.232.784.336.345.593.77.77 1.274.178.495.266 1.055.266 1.68v.266h-5.334zM129.99.38V12h-2.534V.38h2.534zm9.233 6.552V12h-2.534V6.932h-.91V4.818h.91V3.74c0-.597.056-1.073.168-1.428.094-.299.243-.574.448-.826a3.28 3.28 0 01.714-.672c.28-.187.579-.331.896-.434.318-.103.63-.154.938-.154.215 0 .411.023.588.07.187.047.374.112.56.196v2.212a2.33 2.33 0 00-.476-.182 1.406 1.406 0 00-.448-.07c-.102 0-.21.019-.322.056a.634.634 0 00-.294.196c-.093.103-.158.252-.196.448a5.477 5.477 0 00-.042.77v.896h1.778v2.114h-1.778zm2.725-2.114h2.534v1.176a2.85 2.85 0 01.994-.98c.392-.233.849-.35 1.372-.35h.21c.084 0 .177.01.28.028v2.422a2.408 2.408 0 00-1.092-.252c-.588 0-1.031.177-1.33.532-.289.345-.434.854-.434 1.526V12h-2.534V4.818zm8.956 3.57c0 .233.042.453.126.658.084.196.196.369.336.518.149.15.322.266.518.35a1.717 1.717 0 001.288 0c.205-.084.378-.2.518-.35.149-.15.266-.322.35-.518.093-.196.14-.406.14-.63 0-.224-.047-.434-.14-.63a1.604 1.604 0 00-.35-.532 1.456 1.456 0 00-.518-.35 1.717 1.717 0 00-1.288 0c-.196.084-.369.2-.518.35-.14.15-.252.322-.336.518a1.484 1.484 0 00-.126.616zm3.192-3.57h2.548V12h-2.548v-.798c-.542.681-1.274 1.022-2.198 1.022a3.641 3.641 0 01-1.442-.28 3.557 3.557 0 01-1.148-.812 3.794 3.794 0 01-.77-1.218 4.247 4.247 0 01-.266-1.526c0-.513.088-.999.266-1.456.177-.467.424-.873.742-1.218a3.405 3.405 0 011.134-.812 3.39 3.39 0 011.456-.308c.896 0 1.638.313 2.226.938v-.714zm6.806 0v4.046c0 .887.429 1.33 1.288 1.33s1.288-.443 1.288-1.33V4.818h2.534v4.536c0 .97-.322 1.699-.966 2.184-.635.485-1.587.728-2.856.728s-2.226-.243-2.87-.728c-.635-.485-.952-1.213-.952-2.184V4.818h2.534zm9.183 3.57c0 .233.042.453.126.658.084.196.196.369.336.518.15.15.322.266.518.35a1.725 1.725 0 001.288 0c.206-.084.378-.2.518-.35.15-.15.266-.322.35-.518.094-.196.14-.406.14-.63 0-.224-.046-.434-.14-.63a1.59 1.59 0 00-.35-.532 1.447 1.447 0 00-.518-.35 1.687 1.687 0 00-1.274 0c-.196.084-.368.2-.518.35a2.04 2.04 0 00-.35.518 1.484 1.484 0 00-.126.616zM173.277.38h2.548V12h-2.548v-.798c-.541.681-1.274 1.022-2.198 1.022a3.498 3.498 0 01-2.59-1.106 3.829 3.829 0 01-.77-1.218 4.229 4.229 0 01-.266-1.512c0-.513.084-.999.252-1.456.178-.467.425-.873.742-1.218a3.426 3.426 0 011.134-.812 3.486 3.486 0 011.47-.308c.896 0 1.638.313 2.226.938V.38zm9.523 6.986a1.526 1.526 0 00-.518-.854 1.453 1.453 0 00-.952-.322c-.392 0-.714.103-.966.308-.243.205-.397.495-.462.868h2.898zm-2.968 1.47c0 1.092.513 1.638 1.54 1.638.55 0 .966-.224 1.246-.672h2.45c-.495 1.643-1.732 2.464-3.71 2.464a4.99 4.99 0 01-1.666-.266 3.883 3.883 0 01-1.302-.784 3.504 3.504 0 01-.826-1.204 4.013 4.013 0 01-.294-1.568c0-.597.093-1.134.28-1.61.186-.485.452-.896.798-1.232.345-.336.76-.593 1.246-.77a4.687 4.687 0 011.666-.28c.606 0 1.152.093 1.638.28.485.177.896.439 1.232.784.336.345.592.77.77 1.274.177.495.266 1.055.266 1.68v.266h-5.334zm13.892-.448c0 .233.042.453.126.658.084.196.196.369.336.518.149.15.322.266.518.35a1.72 1.72 0 001.288 0c.205-.084.378-.2.518-.35.149-.15.266-.322.35-.518.093-.196.14-.406.14-.63 0-.224-.047-.434-.14-.63a1.604 1.604 0 00-.35-.532 1.456 1.456 0 00-.518-.35 1.72 1.72 0 00-1.288 0c-.196.084-.369.2-.518.35-.14.15-.252.322-.336.518a1.484 1.484 0 00-.126.616zm3.192-3.57h2.548V12h-2.548v-.798c-.541.681-1.274 1.022-2.198 1.022a3.644 3.644 0 01-1.442-.28 3.568 3.568 0 01-1.148-.812 3.811 3.811 0 01-.77-1.218 4.27 4.27 0 01-.266-1.526c0-.513.089-.999.266-1.456.177-.467.425-.873.742-1.218a3.405 3.405 0 011.134-.812 3.393 3.393 0 011.456-.308c.896 0 1.638.313 2.226.938v-.714zM205.708 12L207.5 1.444h2.716l2.114 5.628 2.1-5.628h2.716L218.938 12h-2.73l-.91-6.076L212.806 12h-1.092l-2.366-6.076-.91 6.076h-2.73zm19.598-4.634a1.526 1.526 0 00-.518-.854 1.453 1.453 0 00-.952-.322c-.392 0-.714.103-.966.308-.243.205-.397.495-.462.868h2.898zm-2.968 1.47c0 1.092.513 1.638 1.54 1.638.55 0 .966-.224 1.246-.672h2.45c-.495 1.643-1.732 2.464-3.71 2.464a4.99 4.99 0 01-1.666-.266 3.883 3.883 0 01-1.302-.784 3.504 3.504 0 01-.826-1.204 4.013 4.013 0 01-.294-1.568c0-.597.093-1.134.28-1.61.186-.485.452-.896.798-1.232.345-.336.76-.593 1.246-.77a4.687 4.687 0 011.666-.28c.606 0 1.152.093 1.638.28.485.177.896.439 1.232.784.336.345.592.77.77 1.274.177.495.266 1.055.266 1.68v.266h-5.334zm9.134-.448c0 .233.042.453.126.658.084.196.196.369.336.518.149.15.322.266.518.35a1.72 1.72 0 001.288 0c.205-.084.378-.2.518-.35.149-.15.266-.322.35-.518.093-.196.14-.406.14-.63 0-.224-.047-.434-.14-.63a1.604 1.604 0 00-.35-.532 1.456 1.456 0 00-.518-.35 1.684 1.684 0 00-1.274 0c-.196.084-.369.2-.518.35-.14.15-.257.322-.35.518a1.484 1.484 0 00-.126.616zM234.664.38h2.548V12h-2.548v-.798c-.541.681-1.274 1.022-2.198 1.022a3.495 3.495 0 01-2.59-1.106 3.811 3.811 0 01-.77-1.218 4.229 4.229 0 01-.266-1.512c0-.513.084-.999.252-1.456.177-.467.425-.873.742-1.218a3.405 3.405 0 011.134-.812 3.486 3.486 0 011.47-.308c.896 0 1.638.313 2.226.938V.38zm6.806 4.438V12h-2.534V4.818h2.534zm-2.702-2.758a1.448 1.448 0 01.868-1.316 1.43 1.43 0 011.876.77 1.423 1.423 0 010 1.106 1.46 1.46 0 01-.77.756 1.43 1.43 0 01-1.106 0 1.48 1.48 0 01-.756-.756 1.44 1.44 0 01-.112-.56zm9.852 5.082c-.439-.299-.882-.448-1.33-.448-.243 0-.471.042-.686.126a1.654 1.654 0 00-.546.364c-.159.15-.285.331-.378.546a1.835 1.835 0 00-.126.7c0 .252.042.485.126.7.093.205.215.387.364.546.159.15.345.266.56.35.215.084.443.126.686.126.476 0 .919-.163 1.33-.49v2.156c-.625.27-1.218.406-1.778.406a4.255 4.255 0 01-1.498-.266 3.942 3.942 0 01-1.246-.756 3.911 3.911 0 01-.854-1.19 3.67 3.67 0 01-.322-1.554c0-.57.103-1.087.308-1.554.205-.476.485-.882.84-1.218a3.68 3.68 0 011.26-.798 4.256 4.256 0 011.582-.294c.616 0 1.185.13 1.708.392v2.156zm3.797 1.246c0 .233.042.453.126.658.084.196.196.369.336.518.15.15.322.266.518.35a1.725 1.725 0 001.288 0c.206-.084.378-.2.518-.35.15-.15.266-.322.35-.518.094-.196.14-.406.14-.63 0-.224-.046-.434-.14-.63a1.59 1.59 0 00-.35-.532 1.447 1.447 0 00-.518-.35 1.725 1.725 0 00-1.288 0c-.196.084-.368.2-.518.35-.14.15-.252.322-.336.518a1.484 1.484 0 00-.126.616zm3.192-3.57h2.548V12h-2.548v-.798c-.541.681-1.274 1.022-2.198 1.022a3.648 3.648 0 01-1.442-.28 3.579 3.579 0 01-1.148-.812 3.829 3.829 0 01-.77-1.218 4.27 4.27 0 01-.266-1.526c0-.513.089-.999.266-1.456.178-.467.425-.873.742-1.218a3.426 3.426 0 011.134-.812 3.393 3.393 0 011.456-.308c.896 0 1.638.313 2.226.938v-.714zm4.273 0h2.534v1.176c.27-.43.602-.756.994-.98.392-.233.849-.35 1.372-.35h.21c.084 0 .177.01.28.028v2.422a2.408 2.408 0 00-1.092-.252c-.588 0-1.032.177-1.33.532-.29.345-.434.854-.434 1.526V12h-2.534V4.818zm11.853 2.548a1.52 1.52 0 00-.518-.854 1.45 1.45 0 00-.952-.322c-.392 0-.714.103-.966.308-.242.205-.396.495-.462.868h2.898zm-2.968 1.47c0 1.092.514 1.638 1.54 1.638.551 0 .966-.224 1.246-.672h2.45c-.494 1.643-1.731 2.464-3.71 2.464a4.994 4.994 0 01-1.666-.266 3.883 3.883 0 01-1.302-.784 3.518 3.518 0 01-.826-1.204 4.013 4.013 0 01-.294-1.568c0-.597.094-1.134.28-1.61.187-.485.453-.896.798-1.232a3.475 3.475 0 011.246-.77 4.691 4.691 0 011.666-.28c.607 0 1.153.093 1.638.28.486.177.896.439 1.232.784.336.345.593.77.77 1.274.178.495.266 1.055.266 1.68v.266h-5.334zm6.657 1.82c0-.224.042-.434.126-.63.084-.205.2-.383.35-.532.149-.15.322-.266.518-.35a1.684 1.684 0 011.274 0c.205.084.382.2.532.35.149.15.266.327.35.532a1.685 1.685 0 010 1.274 1.61 1.61 0 01-.882.868 1.684 1.684 0 01-1.274 0 1.635 1.635 0 01-.994-1.512z" fill="#fff"/></svg>