<svg width="222" height="51" viewBox="0 0 222 51" fill="none" xmlns="http://www.w3.org/2000/svg"><path d="M6.897 17.24c-3.072 0-4.944-1.224-6.072-2.424l.816-1.44c1.248 1.224 2.928 2.112 5.28 2.112 2.016 0 4.128-.888 4.128-2.808 0-1.776-2.016-2.304-4.008-2.808-2.784-.696-5.568-1.584-5.568-4.464 0-2.784 2.664-4.2 5.448-4.2 1.92 0 3.672.48 5.232 1.728L11.36 4.4C9.969 3.32 8.409 2.96 6.92 2.96c-1.536 0-3.504.72-3.504 2.448 0 1.608 1.776 2.136 3.864 2.664 2.88.72 5.784 1.704 5.784 4.608 0 3.192-3.192 4.56-6.168 4.56zm9.346-.24V5.312h1.824V17h-1.824zm.912-13.776c-.672 0-1.2-.528-1.2-1.2 0-.672.528-1.224 1.2-1.224a1.23 1.23 0 0 1 1.224 1.224c0 .672-.552 1.2-1.224 1.2zM31.24 17.24c-2.064 0-3.288-1.008-3.288-3.744V6.824H26.2V5.312h1.752v-2.52l1.824-.336v2.856h3.984v1.512h-3.984v6.72c0 1.608.696 2.064 1.632 2.064 1.08 0 1.92-.648 1.92-.648l.6 1.416c-.456.312-1.416.864-2.688.864zm10.833 0c-3.312 0-6.12-2.376-6.12-6.072 0-3.384 2.544-6.096 5.88-6.096 3.12 0 5.592 2.688 5.592 6.024 0 .336-.048.696-.048.72H37.85c.288 2.328 2.088 3.792 4.248 3.792 1.32 0 2.64-.456 3.6-1.248l.792 1.344a7.152 7.152 0 0 1-4.416 1.536zm-4.224-6.816h7.776c-.192-2.16-1.848-3.72-3.888-3.72-1.992 0-3.624 1.536-3.888 3.72zm24.029 6.816c-3.432 0-6.144-2.688-6.144-6.072 0-3.408 2.712-6.096 6.144-6.096s6.144 2.688 6.144 6.096c0 3.384-2.712 6.072-6.144 6.072zm0-1.776c2.424 0 4.272-1.848 4.272-4.296 0-2.472-1.848-4.32-4.272-4.32-2.424 0-4.272 1.848-4.272 4.32 0 2.448 1.848 4.296 4.272 4.296zM71.348 17V6.824h-1.896V5.312h1.896v-.888c0-2.904 1.536-3.696 3.144-3.696 1.152 0 2.232.432 2.808.792l-.6 1.392c-.24-.144-.936-.576-1.824-.576-.912 0-1.704.456-1.704 2.28v.696h3.72v1.512h-3.72V17h-1.824zm7.763 0V5.312h1.824v2.472c.672-1.536 2.184-2.712 4.512-2.712v1.992c-2.736 0-4.512 1.536-4.512 4.392V17h-1.824zm14.323.24c-3.312 0-6.12-2.376-6.12-6.072 0-3.384 2.544-6.096 5.88-6.096 3.12 0 5.592 2.688 5.592 6.024 0 .336-.048.696-.048.72H89.21c.288 2.328 2.088 3.792 4.248 3.792 1.32 0 2.64-.456 3.6-1.248l.792 1.344a7.152 7.152 0 0 1-4.416 1.536zm-4.224-6.816h7.776c-.192-2.16-1.848-3.72-3.888-3.72-1.992 0-3.624 1.536-3.888 3.72zm18.322 6.816c-3.432 0-6.144-2.664-6.144-6.072s2.712-6.096 6.144-6.096c1.608 0 3.072.576 4.176 1.56l-1.152 1.296c-.72-.672-1.776-1.08-3-1.08-2.448 0-4.296 1.824-4.296 4.32 0 2.424 1.776 4.296 4.344 4.296 1.32 0 2.52-.504 3.336-1.32l1.056 1.368c-1.128 1.08-2.712 1.728-4.464 1.728zm12.503 0c-3.312 0-6.12-2.376-6.12-6.072 0-3.384 2.544-6.096 5.88-6.096 3.12 0 5.592 2.688 5.592 6.024 0 .336-.048.696-.048.72h-9.528c.288 2.328 2.088 3.792 4.248 3.792 1.32 0 2.64-.456 3.6-1.248l.792 1.344a7.152 7.152 0 0 1-4.416 1.536zm-4.224-6.816h7.776c-.192-2.16-1.848-3.72-3.888-3.72-1.992 0-3.624 1.536-3.888 3.72zM128.469 17V5.312h1.824v1.992c.816-1.416 2.328-2.232 4.056-2.232 2.928 0 4.224 1.776 4.224 4.848V17h-1.824v-6.84c0-2.16-.792-3.312-2.904-3.312-2.088 0-3.552 1.632-3.552 3.576V17h-1.824zm24.811.24c-3.312 0-6.12-2.376-6.12-6.072 0-3.384 2.544-6.096 5.88-6.096 3.12 0 5.592 2.688 5.592 6.024 0 .336-.048.696-.048.72h-9.528c.288 2.328 2.088 3.792 4.248 3.792 1.32 0 2.64-.456 3.6-1.248l.792 1.344a7.152 7.152 0 0 1-4.416 1.536zm-4.224-6.816h7.776c-.192-2.16-1.848-3.72-3.888-3.72-1.992 0-3.624 1.536-3.888 3.72zm22.089 9.96V14.96c-.864 1.512-2.52 2.28-4.392 2.28-3.24 0-5.52-2.688-5.52-6.096s2.28-6.072 5.52-6.072c1.896 0 3.6.744 4.464 2.256V5.312h1.752v15.072h-1.824zm-3.984-4.92c2.232 0 3.984-1.872 3.984-4.32 0-2.448-1.752-4.296-3.984-4.296-2.328 0-4.056 1.824-4.056 4.296 0 2.496 1.728 4.32 4.056 4.32zm13.409 1.776c-2.88 0-4.248-1.512-4.248-4.632V5.312h1.824v7.056c0 2.184 1.056 3.096 2.952 3.096 2.112 0 3.336-1.728 3.336-3.528V5.312h1.824V17h-1.752v-2.064c-.72 1.512-2.4 2.304-3.936 2.304zm9.244-.24V5.312h1.824V17h-1.824zm.912-13.776c-.672 0-1.2-.528-1.2-1.2 0-.672.528-1.224 1.2-1.224a1.23 1.23 0 0 1 1.224 1.224c0 .672-.552 1.2-1.224 1.2zm4.466 17.16V5.312h1.752v2.016c.864-1.512 2.568-2.256 4.464-2.256 3.24 0 5.52 2.664 5.52 6.072s-2.28 6.096-5.52 6.096c-1.848 0-3.528-.768-4.392-2.28v5.424h-1.824zm5.808-4.92c2.328 0 4.056-1.824 4.056-4.32 0-2.472-1.728-4.296-4.056-4.296-2.232 0-3.984 1.848-3.984 4.296 0 2.448 1.752 4.32 3.984 4.32zm14.657 1.776c-3.432 0-6.144-2.688-6.144-6.072 0-3.408 2.712-6.096 6.144-6.096s6.144 2.688 6.144 6.096c0 3.384-2.712 6.072-6.144 6.072zm0-1.776c2.424 0 4.272-1.848 4.272-4.296 0-2.472-1.848-4.32-4.272-4.32-2.424 0-4.272 1.848-4.272 4.32 0 2.448 1.848 4.296 4.272 4.296zM8.141 47V35.312h1.824v2.016c.648-1.272 2.112-2.256 3.744-2.256 1.872 0 3.192.816 3.744 2.472.84-1.704 2.664-2.472 4.032-2.472 2.808 0 4.296 1.632 4.296 4.848V47h-1.848v-6.84c0-1.992-.696-3.312-2.832-3.312-1.968 0-3.216 1.584-3.216 3.336V47h-1.848v-6.84c0-1.992-.696-3.312-2.808-3.312-2.04 0-3.264 1.728-3.264 3.432V47H8.141zm25.117-13.56 1.944-3.192h1.992l-2.257 3.192h-1.68zm1.487 13.8c-3.311 0-6.12-2.376-6.12-6.072 0-3.384 2.544-6.096 5.88-6.096 3.12 0 5.592 2.688 5.592 6.024 0 .336-.047.696-.047.72h-9.528c.288 2.328 2.087 3.792 4.248 3.792 1.32 0 2.64-.456 3.6-1.248l.791 1.344a7.152 7.152 0 0 1-4.416 1.536zm-4.223-6.816h7.776c-.193-2.16-1.849-3.72-3.889-3.72-1.992 0-3.623 1.536-3.887 3.72zm17.697 6.816c-3.24 0-5.52-2.688-5.52-6.072 0-3.432 2.28-6.096 5.52-6.096 1.872 0 3.528.768 4.392 2.28v-6.144h1.824V47h-1.752v-2.04c-.864 1.536-2.568 2.28-4.464 2.28zm.408-1.776c2.232 0 3.984-1.848 3.984-4.296 0-2.448-1.752-4.32-3.984-4.32-2.328 0-4.056 1.824-4.056 4.32 0 2.472 1.728 4.296 4.056 4.296zM57.98 47V35.312h1.824V47H57.98zm.912-13.776c-.672 0-1.2-.528-1.2-1.2 0-.672.528-1.224 1.2-1.224a1.23 1.23 0 0 1 1.224 1.224c0 .672-.552 1.2-1.224 1.2zm10.13 14.016c-3.432 0-6.144-2.664-6.144-6.072s2.712-6.096 6.144-6.096c1.608 0 3.072.576 4.176 1.56l-1.152 1.296c-.72-.672-1.776-1.08-3-1.08-2.448 0-4.296 1.824-4.296 4.32 0 2.424 1.776 4.296 4.344 4.296 1.32 0 2.52-.504 3.336-1.32l1.056 1.368c-1.128 1.08-2.712 1.728-4.464 1.728zm12.527 0c-3.432 0-6.144-2.688-6.144-6.072 0-3.408 2.712-6.096 6.144-6.096s6.144 2.688 6.144 6.096c0 3.384-2.712 6.072-6.144 6.072zm0-1.776c2.424 0 4.272-1.848 4.272-4.296 0-2.472-1.848-4.32-4.272-4.32-2.424 0-4.272 1.848-4.272 4.32 0 2.448 1.848 4.296 4.272 4.296z" fill="#000"/><path d="M102.615 38.186v-8.034h3.536v8.034h-3.536zm-5.928 0v-8.034h3.536v8.034h-3.537zm20.899 12.636c-2.6 0-4.628-.598-5.824-1.404l1.69-2.964c1.04.676 2.548.858 3.614.858 1.716 0 2.6-.78 2.912-1.638.104-.26.156-.52.156-.78-.728.962-2.158 1.326-3.224 1.326-3.692 0-5.824-2.86-5.824-6.37 0-3.536 2.132-6.396 5.824-6.396 1.066 0 2.756.39 3.484 1.742v-1.482h4.472v9.672c0 3.796-1.69 7.436-7.28 7.436zm.442-8.684c1.248 0 2.132-.936 2.132-2.288 0-1.352-.884-2.314-2.132-2.314-1.248 0-2.132.962-2.132 2.314s.884 2.288 2.132 2.288zM127.329 47V33.714h4.602v2.366c.078-.572 1.222-2.626 4.342-2.626v5.148c-3.432 0-4.212 1.43-4.212 3.926V47h-4.732zm16.466.26c-3.692 0-5.694-3.068-5.694-6.89 0-3.848 2.002-6.916 5.694-6.916 1.066 0 2.834.364 3.614 1.742v-1.482h4.472V47h-4.472v-1.482c-.728 1.352-2.548 1.742-3.614 1.742zm1.248-4.16c1.248 0 2.132-1.118 2.132-2.73 0-1.586-.884-2.756-2.132-2.756-1.248 0-2.132 1.17-2.132 2.756 0 1.612.884 2.73 2.132 2.73zm14.732 4.16c-2.548 0-4.212-1.638-4.212-4.55v-5.252h-1.95v-3.744h1.95v-2.392l4.732-1.17v3.562h2.938v3.744h-2.938v4.888c0 .624.312.832.728.832.39 0 .858-.182 1.196-.416l1.274 3.458c-1.144.806-2.548 1.04-3.718 1.04zm5.474-.26V33.714h4.732V47h-4.732zm2.34-14.3c-1.456 0-2.678-1.222-2.678-2.678 0-1.482 1.222-2.704 2.678-2.704 1.508 0 2.73 1.222 2.73 2.704 0 1.456-1.222 2.678-2.73 2.678zm9.872 14.56c-3.042 0-4.732-.91-5.512-1.586l1.508-3.328c1.04.702 2.002 1.118 4.03 1.118.052 0 1.3-.078 1.3-.598 0-.416-.78-.494-1.56-.676-2.886-.702-5.018-1.872-5.018-4.316 0-2.912 2.652-4.42 5.46-4.42 2.574 0 4.108.572 5.382 1.248l-1.404 3.172c-1.534-.598-2.938-.78-3.822-.78-.468 0-.832.156-.832.416 0 .494 1.118.676 2.444 1.04 1.872.546 4.134 1.456 4.134 4.134 0 3.562-3.614 4.576-6.11 4.576zm15.299-9.074v-8.034h3.536v8.034h-3.536zm-5.928 0v-8.034h3.536v8.034h-3.536zm16.448 9.094c-.84 0-1.456-.672-1.456-1.484 0-.812.644-1.484 1.456-1.484.812 0 1.484.672 1.484 1.484 0 .812-.672 1.484-1.484 1.484zm5.128 0c-.84 0-1.456-.672-1.456-1.484 0-.812.644-1.484 1.456-1.484.812 0 1.484.672 1.484 1.484 0 .812-.672 1.484-1.484 1.484zm5.127 0c-.84 0-1.456-.672-1.456-1.484 0-.812.644-1.484 1.456-1.484.812 0 1.484.672 1.484 1.484 0 .812-.672 1.484-1.484 1.484z" fill="#0B2E54"/></svg>