<svg width="239" height="58" viewBox="0 0 239 58" fill="none" xmlns="http://www.w3.org/2000/svg"><rect x="1" y="1" width="237" height="56" rx="7" fill="#FFBA1A" stroke="#FFCF61" stroke-width="2"/><path d="M34.157 37V21.448h12.36v3.864h-7.8v1.896h7.488v3.816h-7.488v2.112h8.087V37H34.156zm14.94 0V21.448h3.889l3.047 4.368c.505.744 1.32 2.016 1.32 2.016s.816-1.272 1.32-2.016l3.048-4.368h3.889V37h-4.56v-7.872S60.258 30.4 59.826 31l-2.473 3.456L54.858 31c-.432-.6-1.2-1.824-1.2-1.824V37h-4.56zm19.629 0V21.448h6.864c4.776 0 7.224 2.76 7.224 6.144 0 3.384-2.448 6.144-7.248 6.144h-2.28V37h-4.56zm4.56-7.128h2.4c1.344 0 2.304-1.008 2.304-2.28 0-1.272-.96-2.28-2.28-2.28h-2.424v4.56zM85.425 37V21.448h4.56V37h-4.56zm7.675 0V21.448h12.36v3.864h-7.8v1.896h7.488v3.816H97.66v2.112h8.088V37H93.1zm14.221 0v-3.264l5.688-6.96c.648-.792 1.344-1.464 1.344-1.464h-6.696v-3.864h12.696v3.312l-5.352 6.6c-.6.744-1.584 1.776-1.584 1.776h7.152V37h-13.248zm14.978 0 6.288-15.552h4.704L139.579 37h-4.656l-.72-2.016h-6.528l-.72 2.016h-4.656zm6.6-5.52h4.08l-1.848-5.256c-.144-.384-.168-.528-.192-.624 0 0-.048.216-.192.624l-1.848 5.256zM146.251 37l6.288-15.552h4.704L163.531 37h-4.656l-.72-2.016h-6.528l-.72 2.016h-4.656zm6.6-5.52h4.08l-1.848-5.256c-.144-.384-.168-.528-.192-.624 0 0-.048.216-.192.624l-1.848 5.256zm19.567 5.808c-4.992 0-8.328-3.576-8.328-8.064 0-4.44 3.336-8.016 8.328-8.016 4.992 0 8.352 3.576 8.352 8.016 0 1.896-.6 3.624-1.68 4.992l1.008 1.008-2.064 2.088-1.152-1.152c-1.248.72-2.76 1.128-4.464 1.128zm0-4.128c.456 0 .864-.072 1.248-.216l-1.152-1.176 2.088-2.064 1.128 1.152c.192-.48.288-1.032.288-1.632 0-2.256-1.488-3.888-3.6-3.888-1.968 0-3.576 1.632-3.576 3.888 0 2.304 1.488 3.936 3.576 3.936zm17.872 4.128c-3.936 0-6.936-2.184-6.936-6.456v-9.384h4.56v9.12c0 1.872 1.08 2.592 2.376 2.592 1.296 0 2.376-.72 2.376-2.592v-9.12h4.56v9.384c0 4.272-3 6.456-6.936 6.456zm9.998-.288V21.448h4.56V37h-4.56zm.096-16.32 2.52-4.296h4.2l-3.48 4.296h-3.24z" fill="#0B2E54"/></svg>