<svg width="215" height="52" viewBox="0 0 215 52" fill="none" xmlns="http://www.w3.org/2000/svg"><path d="M2.102 19.26c-.78 0-1.352-.624-1.352-1.378 0-.754.598-1.378 1.352-1.378.754 0 1.378.624 1.378 1.378 0 .754-.624 1.378-1.378 1.378zm5.28 0c-.78 0-1.351-.624-1.351-1.378 0-.754.598-1.378 1.352-1.378.754 0 1.378.624 1.378 1.378 0 .754-.624 1.378-1.378 1.378zm5.282 0c-.78 0-1.352-.624-1.352-1.378 0-.754.598-1.378 1.352-1.378.754 0 1.378.624 1.378 1.378 0 .754-.624 1.378-1.378 1.378zm4.32 3.406V6.338h1.897v2.184c.936-1.638 2.782-2.444 4.836-2.444 3.51 0 5.98 2.886 5.98 6.578s-2.47 6.604-5.98 6.604c-2.002 0-3.822-.832-4.758-2.47v5.876h-1.976zm6.291-5.33c2.522 0 4.394-1.976 4.394-4.68 0-2.678-1.872-4.654-4.394-4.654-2.418 0-4.316 2.002-4.316 4.654s1.898 4.68 4.316 4.68zm15.358 1.924c-3.718 0-6.656-2.912-6.656-6.578 0-3.692 2.938-6.604 6.656-6.604 3.718 0 6.656 2.912 6.656 6.604 0 3.666-2.938 6.578-6.656 6.578zm0-1.924c2.626 0 4.628-2.002 4.628-4.654 0-2.678-2.002-4.68-4.628-4.68-2.626 0-4.628 2.002-4.628 4.68 0 2.652 2.002 4.654 4.628 4.654zM48.087 19V6.338h1.976v2.678c.728-1.664 2.366-2.938 4.888-2.938v2.158c-2.964 0-4.888 1.664-4.888 4.758V19h-1.976zm19.04.26c-2.235 0-3.561-1.092-3.561-4.056V7.976h-1.898V6.338h1.898v-2.73l1.976-.364v3.094h4.316v1.638h-4.316v7.28c0 1.742.754 2.236 1.768 2.236 1.17 0 2.08-.702 2.08-.702l.65 1.534c-.494.338-1.534.936-2.912.936zm9.653 0c-3.12 0-4.602-1.638-4.602-5.018V6.338h1.976v7.644c0 2.366 1.144 3.354 3.198 3.354 2.288 0 3.614-1.872 3.614-3.822V6.338h1.976V19h-1.898v-2.236c-.78 1.638-2.6 2.496-4.264 2.496zM91.936 19V6.338h1.976v2.158c.884-1.534 2.522-2.418 4.394-2.418 3.172 0 4.576 1.924 4.576 5.252V19h-1.976v-7.41c0-2.34-.858-3.588-3.146-3.588-2.261 0-3.848 1.768-3.848 3.874V19h-1.976zm17.759-14.69 2.106-3.458h2.158l-2.444 3.458h-1.82zm.702 14.95c-3.12 0-4.602-1.638-4.602-5.018V6.338h1.976v7.644c0 2.366 1.144 3.354 3.198 3.354 2.288 0 3.614-1.872 3.614-3.822V6.338h1.976V19h-1.898v-2.236c-.78 1.638-2.6 2.496-4.264 2.496zm9.495-.26V6.338h1.976v2.184c.702-1.378 2.288-2.444 4.056-2.444 2.028 0 3.458.884 4.056 2.678.91-1.846 2.886-2.678 4.368-2.678 3.042 0 4.654 1.768 4.654 5.252V19H137v-7.41c0-2.158-.754-3.588-3.068-3.588-2.132 0-3.484 1.716-3.484 3.614V19h-2.002v-7.41c0-2.158-.754-3.588-3.042-3.588-2.21 0-3.536 1.872-3.536 3.718V19h-1.976zm28.301.26c-3.588 0-6.63-2.574-6.63-6.578 0-3.666 2.756-6.604 6.37-6.604 3.38 0 6.058 2.912 6.058 6.526 0 .364-.052.754-.052.78h-10.322c.312 2.522 2.262 4.108 4.602 4.108 1.43 0 2.86-.494 3.9-1.352l.858 1.456a7.748 7.748 0 0 1-4.784 1.664zm-4.576-7.384h8.424c-.208-2.34-2.002-4.03-4.212-4.03-2.158 0-3.926 1.664-4.212 4.03zM156.81 19V6.338h1.976v2.678c.728-1.664 2.366-2.938 4.888-2.938v2.158c-2.964 0-4.888 1.664-4.888 4.758V19h-1.976zm15.022.26c-3.718 0-6.656-2.912-6.656-6.578 0-3.692 2.938-6.604 6.656-6.604 3.718 0 6.656 2.912 6.656 6.604 0 3.666-2.938 6.578-6.656 6.578zm0-1.924c2.626 0 4.628-2.002 4.628-4.654 0-2.678-2.002-4.68-4.628-4.68-2.626 0-4.628 2.002-4.628 4.68 0 2.652 2.002 4.654 4.628 4.654zm20.576 1.924c-3.51 0-5.98-2.912-5.98-6.578 0-3.718 2.47-6.604 5.98-6.604 2.028 0 3.822.832 4.758 2.47V1.892h1.976V19h-1.898v-2.21c-.936 1.664-2.782 2.47-4.836 2.47zm.442-1.924c2.418 0 4.316-2.002 4.316-4.654s-1.898-4.68-4.316-4.68c-2.522 0-4.394 1.976-4.394 4.68 0 2.678 1.872 4.654 4.394 4.654zm15.722 1.924c-3.588 0-6.63-2.574-6.63-6.578 0-3.666 2.756-6.604 6.37-6.604 3.38 0 6.058 2.912 6.058 6.526 0 .364-.052.754-.052.78h-10.322c.312 2.522 2.262 4.108 4.602 4.108 1.43 0 2.86-.494 3.9-1.352l.858 1.456a7.748 7.748 0 0 1-4.784 1.664zm-4.576-7.384h8.424c-.208-2.34-2.002-4.03-4.212-4.03-2.158 0-3.926 1.664-4.212 4.03z" fill="#000"/><path d="M50.214 48V31.152h4.212l3.302 4.732c.546.806 1.43 2.184 1.43 2.184s.884-1.378 1.43-2.184l3.302-4.732h4.212V48h-4.94v-8.528s-.858 1.378-1.326 2.028l-2.678 3.744-2.704-3.744c-.468-.65-1.3-1.976-1.3-1.976V48h-4.94zm27.556.26c-4.03 0-7.462-2.522-7.462-6.89 0-3.848 2.99-6.916 6.916-6.916 3.77 0 6.656 3.068 6.656 6.916 0 .806-.104 1.534-.104 1.534h-8.814c.39 1.248 1.56 1.716 2.834 1.716 1.118 0 2.314-.338 3.146-.806l1.586 3.198c-1.482.91-3.12 1.248-4.758 1.248zm-2.938-8.034h4.732c-.156-1.222-1.118-2.054-2.34-2.054-1.17 0-2.106.832-2.392 2.054zm16.303 8.034c-3.692 0-5.694-3.068-5.694-6.89 0-3.848 2.132-6.916 5.85-6.916 1.066 0 2.392.364 3.198 1.378v-4.94h4.732V48H94.75v-1.482c-.702 1.352-2.548 1.742-3.614 1.742zm1.248-4.16c1.248 0 2.132-1.118 2.132-2.73 0-1.586-.884-2.756-2.132-2.756-1.248 0-2.132 1.17-2.132 2.756 0 1.612.884 2.73 2.132 2.73zm8.908 3.9V34.714h4.732V48h-4.732zm2.34-14.3c-1.456 0-2.678-1.222-2.678-2.678 0-1.482 1.222-2.704 2.678-2.704 1.508 0 2.73 1.222 2.73 2.704 0 1.456-1.222 2.678-2.73 2.678zm11.381 14.56c-4.082 0-7.176-3.068-7.176-6.89 0-3.848 3.094-6.916 7.176-6.916 1.82 0 3.302.546 4.706 1.664l-2.73 3.276c-.494-.468-1.04-.78-1.846-.78-1.534 0-2.522 1.17-2.522 2.756 0 1.612.962 2.73 2.626 2.73.91 0 1.664-.39 2.236-.962l2.366 3.484c-1.274 1.066-2.964 1.638-4.836 1.638zm11.162 0c-3.692 0-5.694-3.068-5.694-6.89 0-3.848 2.002-6.916 5.694-6.916 1.066 0 2.834.364 3.614 1.742v-1.482h4.472V48h-4.472v-1.482c-.728 1.352-2.548 1.742-3.614 1.742zm1.248-4.16c1.248 0 2.132-1.118 2.132-2.73 0-1.586-.884-2.756-2.132-2.756-1.248 0-2.132 1.17-2.132 2.756 0 1.612.884 2.73 2.132 2.73zm8.908 3.9V34.714h4.602v2.366c.078-.572 1.222-2.626 4.342-2.626v5.148c-3.432 0-4.212 1.43-4.212 3.926V48h-4.732zm17.714.26c-4.03 0-7.462-2.522-7.462-6.89 0-3.848 2.99-6.916 6.916-6.916 3.77 0 6.656 3.068 6.656 6.916 0 .806-.104 1.534-.104 1.534h-8.814c.39 1.248 1.56 1.716 2.834 1.716 1.118 0 2.314-.338 3.146-.806l1.586 3.198c-1.482.91-3.12 1.248-4.758 1.248zm-2.938-8.034h4.732c-.156-1.222-1.118-2.054-2.34-2.054-1.17 0-2.106.832-2.392 2.054zm10.765 11.336 1.274-5.954h1.95l-1.82 5.954h-1.404z" fill="#0B2E54"/></svg>