<svg width="445" height="39" viewBox="0 0 445 39" fill="none" xmlns="http://www.w3.org/2000/svg"><path d="M22.394 21.29H5.18c.25 1.537.912 2.761 1.99 3.666 1.08.909 2.458 1.361 4.133 1.361 2.003 0 3.724-.71 5.164-2.125l4.514 2.145c-1.125 1.618-2.473 2.811-4.044 3.587-1.571.777-3.435 1.163-5.592 1.163-3.35 0-6.077-1.069-8.183-3.21C1.055 25.736 0 23.057 0 19.835c0-3.221 1.051-6.04 3.15-8.22 2.1-2.18 4.733-3.269 7.903-3.269 3.362 0 6.096 1.092 8.203 3.268 2.106 2.18 3.161 5.058 3.161 8.639l-.019 1.033-.004.004zm-5.357-4.274c-.354-1.205-1.051-2.188-2.095-2.94-1.043-.757-2.249-1.136-3.627-1.136-1.495 0-2.804.425-3.932 1.272-.709.53-1.364 1.462-1.968 2.804h11.622zM39.101 11.926l-3.316 3.358c-1.348-1.353-2.572-2.028-3.67-2.028-.6 0-1.074.129-1.413.386-.343.257-.509.581-.509.963 0 .293.108.562.324.804.216.245.747.58 1.598 1.002l1.964.994c2.068 1.034 3.49 2.087 4.26 3.16.77 1.072 1.159 2.332 1.159 3.774 0 1.923-.697 3.526-2.091 4.81-1.395 1.286-3.262 1.926-5.604 1.926-3.116 0-5.6-1.233-7.46-3.697l3.297-3.64a7.634 7.634 0 002.207 1.799c.843.456 1.594.686 2.249.686.708 0 1.275-.171 1.706-.515.431-.343.647-.74.647-1.193 0-.835-.778-1.65-2.334-2.445l-1.806-.913c-3.455-1.763-5.18-3.97-5.18-6.618 0-1.708.651-3.17 1.953-4.383 1.301-1.213 2.969-1.818 4.995-1.818 1.386 0 2.692.308 3.916.924 1.225.617 2.26 1.502 3.112 2.652l-.004.012zM44.708 24.866c.852 0 1.58.3 2.18.905.6.604.901 1.334.901 2.195 0 .862-.3 1.6-.9 2.208-.602.608-1.33.912-2.18.912-.852 0-1.576-.304-2.18-.912a3.028 3.028 0 01-.902-2.208c0-.861.3-1.595.902-2.195a2.96 2.96 0 012.18-.905zM56.42 1.294h5.352l6.697 20.397 6.755-20.397h5.353l4.849 29.242h-5.311L77.019 12.07 70.88 30.536h-4.849L59.954 12.07l-3.17 18.466H51.42l5-29.242zM110.403 21.294H93.189c.246 1.54.913 2.762 1.99 3.67 1.08.905 2.458 1.361 4.137 1.361 2.003 0 3.724-.71 5.164-2.129l4.518 2.149c-1.125 1.614-2.473 2.816-4.048 3.592-1.571.776-3.435 1.162-5.596 1.162-3.35 0-6.077-1.069-8.187-3.21-2.106-2.14-3.162-4.82-3.162-8.037 0-3.218 1.048-6.042 3.15-8.218 2.103-2.176 4.737-3.268 7.903-3.268 3.362 0 6.096 1.092 8.203 3.268 2.106 2.184 3.162 5.059 3.162 8.635l-.02 1.033h-.007l.007-.008zm-5.36-4.274c-.355-1.205-1.056-2.188-2.095-2.94-1.044-.757-2.249-1.135-3.628-1.135-1.494 0-2.804.425-3.936 1.271-.709.53-1.367 1.466-1.968 2.804h11.627zM130.025.554h5.36V30.53h-5.36v-2.285c-1.048 1.006-2.095 1.735-3.147 2.176-1.047.44-2.191.667-3.423.667-2.758 0-5.141-1.084-7.156-3.249-2.014-2.164-3.023-4.859-3.023-8.08 0-3.222.971-6.076 2.923-8.213 1.949-2.134 4.31-3.202 7.098-3.202 1.282 0 2.484.245 3.608.733 1.125.487 2.161 1.228 3.116 2.207V.554h.004zm-5.638 12.804c-1.656 0-3.035.589-4.129 1.778-1.093 1.186-1.644 2.707-1.644 4.563 0 1.857.558 3.405 1.671 4.61 1.113 1.205 2.484 1.806 4.117 1.806s3.081-.59 4.186-1.779c1.109-1.185 1.66-2.737 1.66-4.664 0-1.927-.554-3.405-1.66-4.575-1.109-1.162-2.507-1.747-4.205-1.747v.008h.004zM142.964 0c.936 0 1.745.347 2.415 1.033.67.69 1.009 1.525 1.009 2.504 0 .98-.335 1.794-1.001 2.477-.666.678-1.46 1.025-2.384 1.025a3.3 3.3 0 01-2.438-1.045c-.67-.698-1.009-1.54-1.009-2.535 0-.994.331-1.77.994-2.445C141.216.339 142.017 0 142.957 0h.007zm-2.68 8.904h5.361v21.625h-5.361V8.904zM171.259 13.283L166.8 15.77c-.836-.89-1.668-1.502-2.484-1.849-.82-.347-1.779-.518-2.881-.518-2.002 0-3.627.6-4.864 1.813-1.236 1.21-1.856 2.761-1.856 4.653 0 1.891.593 3.338 1.791 4.508 1.19 1.162 2.757 1.747 4.698 1.747 2.396 0 4.263-.83 5.6-2.488l4.221 2.929c-2.292 3.018-5.523 4.528-9.701 4.528-3.759 0-6.697-1.127-8.823-3.382-2.126-2.254-3.193-4.89-3.193-7.912 0-2.095.52-4.021 1.548-5.784 1.036-1.759 2.48-3.147 4.329-4.157 1.848-1.007 3.924-1.51 6.212-1.51 2.122 0 4.024.43 5.711 1.283a10.821 10.821 0 014.14 3.65v.009l.011-.008zM189.883 8.902h5.36v21.625h-5.36v-2.285c-1.048 1.006-2.095 1.735-3.147 2.176-1.047.44-2.191.667-3.423.667-2.758 0-5.142-1.084-7.156-3.249-2.014-2.164-3.023-4.859-3.023-8.08 0-3.222.971-6.076 2.923-8.214 1.949-2.133 4.31-3.201 7.098-3.201 1.282 0 2.484.245 3.608.733 1.125.487 2.161 1.228 3.116 2.207V8.894v.008h.004zm-5.638 4.454c-1.656 0-3.035.589-4.129 1.778-1.093 1.186-1.644 2.707-1.644 4.563 0 1.857.558 3.405 1.671 4.61 1.113 1.205 2.484 1.806 4.117 1.806s3.081-.59 4.186-1.779c1.109-1.185 1.66-2.738 1.66-4.664 0-1.927-.555-3.405-1.66-4.575-1.109-1.162-2.507-1.747-4.205-1.747v.008h.004zM199.791 8.903h4.594v2.726c.493-1.072 1.159-1.891 1.983-2.445a4.757 4.757 0 012.708-.835c.693 0 1.421.184 2.179.554l-1.667 4.668c-.632-.316-1.144-.475-1.548-.475-.824 0-1.521.518-2.091 1.552-.57 1.033-.855 3.061-.855 6.084l.019 1.056v8.748h-5.319V8.903h-.007.004zM234.193 21.294h-17.214c.246 1.54.913 2.762 1.991 3.67 1.078.905 2.457 1.361 4.136 1.361 2.003 0 3.724-.71 5.164-2.129l4.518 2.149c-1.125 1.614-2.473 2.816-4.048 3.592-1.571.776-3.435 1.162-5.596 1.162-3.35 0-6.077-1.069-8.187-3.21-2.107-2.14-3.162-4.82-3.162-8.037 0-3.218 1.048-6.042 3.15-8.218 2.103-2.176 4.737-3.268 7.903-3.268 3.362 0 6.096 1.092 8.203 3.268 2.106 2.184 3.162 5.059 3.162 8.635l-.02 1.033h-.007l.007-.008zm-5.36-4.274c-.355-1.205-1.056-2.188-2.095-2.94-1.04-.753-2.25-1.135-3.628-1.135-1.494 0-2.804.425-3.936 1.271-.709.53-1.367 1.466-1.968 2.804h11.627zM239.716 24.87a2.98 2.98 0 012.179.905c.601.6.902 1.337.902 2.195 0 .858-.301 1.6-.902 2.208-.6.608-1.332.912-2.179.912a2.96 2.96 0 01-2.18-.912 3.021 3.021 0 01-.901-2.208c0-.865.3-1.59.901-2.195a2.983 2.983 0 012.18-.905zM262.45 8.904h5.341V27.43c0 3.654-.724 6.345-2.179 8.069-1.949 2.332-4.888 3.502-8.816 3.502-2.095 0-3.851-.261-5.283-.792-1.425-.53-2.635-1.306-3.609-2.336-.982-1.026-1.706-2.277-2.18-3.744h5.908c.524.609 1.194 1.069 2.022 1.385.824.312 1.802.464 2.927.464 1.436 0 2.595-.226 3.473-.675.878-.452 1.495-1.033 1.857-1.747.358-.718.543-1.95.543-3.697-.944.955-1.934 1.642-2.962 2.059-1.036.417-2.203.628-3.516.628-2.869 0-5.288-1.045-7.263-3.144-1.972-2.094-2.962-4.742-2.962-7.951 0-3.428 1.048-6.19 3.139-8.272 1.895-1.88 4.163-2.82 6.789-2.82 1.233 0 2.392.226 3.486.687 1.093.46 2.191 1.209 3.285 2.254V8.904zm-5.554 4.516c-1.69 0-3.08.573-4.182 1.716-1.101 1.147-1.648 2.59-1.648 4.325 0 1.736.566 3.28 1.691 4.43 1.124 1.151 2.537 1.728 4.24 1.728 1.702 0 3.034-.561 4.109-1.688 1.078-1.128 1.621-2.606 1.621-4.43 0-1.826-.543-3.269-1.633-4.396-1.082-1.127-2.484-1.689-4.198-1.689v.004zM282.907 8.35c2.014 0 3.909.515 5.684 1.533 1.772 1.022 3.158 2.402 4.151 4.157a11.275 11.275 0 011.491 5.667c0 2.028-.501 3.946-1.502 5.725-1.001 1.778-2.369 3.167-4.094 4.161-1.725 1.002-3.635 1.502-5.711 1.502-3.062 0-5.677-1.104-7.845-3.312-2.168-2.207-3.25-4.882-3.25-8.037 0-3.382 1.225-6.197 3.67-8.451 2.145-1.962 4.61-2.941 7.402-2.941l.008-.008-.004.004zm.088 5.113c-1.667 0-3.05.585-4.159 1.759s-1.66 2.671-1.66 4.504c0 1.833.547 3.405 1.645 4.575 1.093 1.17 2.48 1.747 4.159 1.747 1.679 0 3.073-.589 4.186-1.77 1.113-1.182 1.671-2.695 1.671-4.552 0-1.856-.546-3.366-1.644-4.52-1.094-1.158-2.492-1.743-4.198-1.743zM294.771 8.905h5.461l5.395 12.764 5.384-12.764h5.43l-9.089 21.625h-3.473l-9.112-21.625h.008-.004z" fill="#DEEDFC"/><path d="M317.297 35.77L330.333.277h3.855L321.129 35.77h-3.832zM339.78 1.117h15.99v5.46h-10.502v5.339h6.824v5.378h-6.824V30.53h-5.488V1.113v.004zM358.589 8.776h4.621v2.737c.501-1.08 1.167-1.899 1.995-2.46a4.751 4.751 0 012.726-.839c.697 0 1.429.187 2.192.562l-1.679 4.7c-.632-.32-1.152-.48-1.56-.48-.828 0-1.529.518-2.103 1.56-.574 1.04-.859 3.08-.859 6.118l.02 1.061v8.798h-5.35V8.776h-.003zM388.643 8.776h5.391v21.757h-5.391v-2.3c-1.052 1.013-2.107 1.743-3.166 2.187-1.059.449-2.207.671-3.443.671-2.773 0-5.176-1.088-7.198-3.268-2.025-2.18-3.038-4.89-3.038-8.128 0-3.236.978-6.11 2.938-8.26 1.961-2.145 4.341-3.22 7.14-3.22 1.29 0 2.5.245 3.628.74 1.132.495 2.176 1.232 3.135 2.22v-2.4h.004zm-5.665 4.48c-1.668 0-3.05.597-4.152 1.79-1.101 1.194-1.652 2.723-1.652 4.591 0 1.868.562 3.428 1.683 4.64 1.121 1.214 2.503 1.822 4.144 1.822 1.64 0 3.096-.596 4.213-1.79 1.117-1.193 1.671-2.757 1.671-4.688 0-1.93-.558-3.424-1.671-4.598-1.117-1.173-2.526-1.758-4.232-1.758l-.004-.008zM399.464 8.772h5.449v10.48c0 2.039.139 3.455.416 4.25.278.792.724 1.412 1.337 1.849.612.437 1.367.659 2.268.659.901 0 1.66-.219 2.287-.651.628-.433 1.094-1.069 1.395-1.911.223-.628.335-1.966.335-4.021V8.768h5.391v9.22c0 3.798-.296 6.4-.889 7.8-.724 1.708-1.791 3.014-3.201 3.93-1.409.913-3.2 1.37-5.372 1.37-2.357 0-4.263-.535-5.715-1.6-1.456-1.064-2.476-2.554-3.069-4.457-.42-1.318-.632-3.72-.632-7.2V8.773zM439.608.375H445v30.154h-5.392v-2.301c-1.051 1.014-2.106 1.743-3.165 2.188-1.059.448-2.207.67-3.443.67-2.773 0-5.176-1.088-7.198-3.268-2.025-2.18-3.038-4.89-3.038-8.127 0-3.237.978-6.111 2.938-8.26 1.96-2.145 4.34-3.222 7.14-3.222 1.29 0 2.499.246 3.628.741 1.132.496 2.176 1.233 3.135 2.22V.37l.003.005zm-5.665 12.877c-1.667 0-3.05.597-4.151 1.79s-1.652 2.722-1.652 4.59c0 1.868.562 3.428 1.683 4.641 1.12 1.213 2.503 1.822 4.144 1.822 1.64 0 3.096-.597 4.213-1.79 1.116-1.194 1.671-2.758 1.671-4.688 0-1.93-.558-3.424-1.671-4.598-1.117-1.174-2.527-1.76-4.233-1.76l-.004-.007z" fill="#fff"/></svg>