<svg width="755" height="117" viewBox="0 0 755 117" fill="none" xmlns="http://www.w3.org/2000/svg"><path d="M29.326 35.93H11.575L6.955 46H.216L20.732 1.93 40.525 46h-6.848l-4.35-10.07zm-2.551-5.882l-6.15-14.1-6.445 14.1h12.595zm23.848 30.185H44.58v-40.39h6.043v2.846c2.38-2.38 5.084-3.571 8.11-3.571 3.599 0 6.562 1.325 8.89 3.974 2.362 2.632 3.544 5.953 3.544 9.964 0 3.92-1.173 7.188-3.518 9.802-2.328 2.596-5.264 3.894-8.809 3.894-3.061 0-5.8-1.226-8.217-3.68v17.161zm14.367-27.15c0-2.507-.68-4.548-2.04-6.123-1.38-1.594-3.116-2.39-5.21-2.39-2.22 0-4.02.77-5.399 2.309-1.378 1.54-2.068 3.563-2.068 6.07 0 2.452.69 4.475 2.068 6.069 1.361 1.557 3.151 2.336 5.371 2.336 2.095 0 3.823-.788 5.183-2.363 1.397-1.576 2.095-3.545 2.095-5.908zm12.569-13.24H83.6v2.336c1.11-1.163 2.095-1.96 2.954-2.39.877-.448 1.916-.671 3.115-.671 1.594 0 3.259.519 4.995 1.557L91.9 26.207c-1.145-.823-2.264-1.235-3.356-1.235-3.295 0-4.942 2.489-4.942 7.466V46H77.56V19.843zm44.016 14.502H102.83c.161 2.148.859 3.858 2.094 5.13 1.236 1.252 2.82 1.879 4.754 1.879 1.504 0 2.748-.358 3.733-1.074.966-.716 2.068-2.041 3.303-3.975l5.102 2.847c-.787 1.343-1.62 2.497-2.497 3.464a13.814 13.814 0 01-2.82 2.364 11.546 11.546 0 01-3.249 1.342c-1.164.287-2.426.43-3.787.43-3.903 0-7.036-1.253-9.4-3.76-2.363-2.524-3.544-5.872-3.544-10.044 0-4.136 1.145-7.483 3.437-10.044 2.31-2.524 5.371-3.786 9.185-3.786 3.849 0 6.893 1.226 9.13 3.679 2.221 2.435 3.331 5.81 3.331 10.124l-.027 1.424zm-6.204-4.942c-.841-3.222-2.873-4.834-6.096-4.834-.734 0-1.423.117-2.068.35a5.695 5.695 0 00-1.772.966c-.52.412-.967.913-1.343 1.504a7.053 7.053 0 00-.86 2.014h12.139zm12.837-9.56h6.069v2.417c2.113-2.095 4.494-3.142 7.144-3.142 3.044 0 5.416.958 7.117 2.873 1.468 1.63 2.202 4.288 2.202 7.976V46h-6.07V31.39c0-2.578-.358-4.359-1.074-5.344-.698-1.002-1.969-1.503-3.813-1.503-2.005 0-3.429.662-4.27 1.987-.824 1.307-1.236 3.59-1.236 6.848V46h-6.069V19.843zM177.676.64h6.069V46h-6.069v-2.74c-2.381 2.328-5.076 3.492-8.084 3.492-3.58 0-6.552-1.307-8.916-3.92-2.345-2.669-3.518-5.999-3.518-9.991 0-3.903 1.173-7.162 3.518-9.776 2.328-2.631 5.255-3.947 8.782-3.947 3.062 0 5.801 1.253 8.218 3.76V.64zm-14.341 32.2c0 2.506.671 4.547 2.014 6.123 1.379 1.593 3.115 2.39 5.21 2.39 2.238 0 4.046-.77 5.425-2.31 1.378-1.593 2.068-3.616 2.068-6.069s-.69-4.476-2.068-6.07c-1.379-1.557-3.169-2.336-5.371-2.336-2.077 0-3.814.788-5.21 2.364-1.379 1.593-2.068 3.562-2.068 5.908zm51.858 1.504h-18.745c.161 2.148.859 3.858 2.094 5.13 1.236 1.252 2.82 1.879 4.754 1.879 1.504 0 2.748-.358 3.733-1.074.967-.716 2.068-2.041 3.303-3.975l5.103 2.847c-.788 1.343-1.621 2.497-2.498 3.464a13.814 13.814 0 01-2.82 2.364 11.534 11.534 0 01-3.249 1.342c-1.164.287-2.426.43-3.787.43-3.903 0-7.036-1.253-9.399-3.76-2.364-2.524-3.545-5.872-3.545-10.044 0-4.136 1.146-7.483 3.437-10.044 2.31-2.524 5.371-3.786 9.185-3.786 3.849 0 6.893 1.226 9.131 3.679 2.22 2.435 3.33 5.81 3.33 10.124l-.027 1.424zm-6.204-4.942c-.841-3.222-2.873-4.834-6.096-4.834-.734 0-1.423.117-2.068.35a5.707 5.707 0 00-1.772.966 6.037 6.037 0 00-1.343 1.504 7.052 7.052 0 00-.859 2.014h12.138zm50.166-8.432V29c-1.378-1.684-2.614-2.838-3.706-3.465-1.074-.644-2.336-.967-3.786-.967-2.274 0-4.163.797-5.667 2.39-1.504 1.594-2.256 3.59-2.256 5.99 0 2.452.725 4.466 2.176 6.042 1.468 1.575 3.339 2.363 5.612 2.363 1.451 0 2.731-.313 3.841-.94 1.074-.609 2.336-1.79 3.786-3.545v7.976c-2.453 1.271-4.905 1.907-7.358 1.907-4.046 0-7.43-1.307-10.151-3.92-2.722-2.633-4.083-5.9-4.083-9.803 0-3.903 1.379-7.198 4.136-9.883 2.757-2.686 6.141-4.028 10.152-4.028 2.578 0 5.013.617 7.304 1.853zm4.619 11.762c0-3.777 1.352-6.991 4.056-9.64 2.703-2.65 5.997-3.975 9.882-3.975 3.903 0 7.216 1.334 9.937 4.001 2.685 2.668 4.028 5.944 4.028 9.83 0 3.92-1.351 7.206-4.055 9.855-2.721 2.632-6.06 3.948-10.017 3.948-3.921 0-7.206-1.343-9.856-4.028-2.65-2.65-3.975-5.98-3.975-9.99zm6.177.108c0 2.614.698 4.682 2.095 6.203 1.432 1.54 3.321 2.31 5.666 2.31 2.364 0 4.253-.76 5.667-2.283 1.414-1.521 2.121-3.554 2.121-6.096 0-2.542-.707-4.574-2.121-6.096-1.432-1.54-3.321-2.31-5.667-2.31-2.309 0-4.18.77-5.612 2.31-1.433 1.54-2.149 3.527-2.149 5.962zM286.79 6.952l-9.776 8.863-3.303-2.042 7.385-9.775 5.694 2.954zm11.306 12.89h6.042v2.418c1.164-1.218 2.158-2.041 2.981-2.47.877-.448 1.978-.672 3.303-.672 2.954 0 5.291 1.289 7.01 3.867 1.897-2.578 4.467-3.867 7.707-3.867 5.89 0 8.836 3.572 8.836 10.715V46h-6.07V31.471c0-2.506-.304-4.279-.913-5.317-.626-1.056-1.656-1.585-3.088-1.585-1.665 0-2.883.627-3.653 1.88-.751 1.253-1.127 3.268-1.127 6.043V46h-6.07V31.552c0-4.655-1.343-6.983-4.028-6.983-1.701 0-2.945.636-3.733 1.907-.77 1.271-1.155 3.276-1.155 6.016V46h-6.042V19.843zm42.27 12.891c0-3.777 1.352-6.991 4.055-9.64 2.704-2.65 5.998-3.975 9.883-3.975 3.903 0 7.215 1.334 9.937 4.001 2.685 2.668 4.028 5.944 4.028 9.83 0 3.92-1.352 7.206-4.055 9.855-2.721 2.632-6.061 3.948-10.017 3.948-3.921 0-7.206-1.343-9.856-4.028-2.65-2.65-3.975-5.98-3.975-9.99zm6.177.108c0 2.614.698 4.682 2.095 6.203 1.432 1.54 3.321 2.31 5.666 2.31 2.363 0 4.252-.76 5.667-2.283 1.414-1.521 2.121-3.554 2.121-6.096 0-2.542-.707-4.574-2.121-6.096-1.433-1.54-3.321-2.31-5.667-2.31-2.309 0-4.18.77-5.613 2.31-1.432 1.54-2.148 3.527-2.148 5.962zm51.16 27.392h-6.043v-40.39h6.043v2.846c2.381-2.38 5.084-3.571 8.11-3.571 3.599 0 6.562 1.325 8.889 3.974 2.363 2.632 3.545 5.953 3.545 9.964 0 3.92-1.173 7.188-3.518 9.802-2.327 2.596-5.264 3.894-8.809 3.894-3.061 0-5.8-1.226-8.217-3.68v17.161zm14.367-27.15c0-2.507-.68-4.548-2.041-6.123-1.378-1.594-3.115-2.39-5.21-2.39-2.22 0-4.019.77-5.398 2.309-1.378 1.54-2.067 3.563-2.067 6.07 0 2.452.689 4.475 2.067 6.069 1.361 1.557 3.151 2.336 5.371 2.336 2.095 0 3.823-.788 5.184-2.363 1.396-1.576 2.094-3.545 2.094-5.908zm12.569-13.24h6.042v2.336c1.11-1.163 2.095-1.96 2.954-2.39.878-.448 1.916-.671 3.115-.671 1.594 0 3.259.519 4.996 1.557l-2.767 5.532c-1.145-.823-2.264-1.235-3.356-1.235-3.295 0-4.942 2.489-4.942 7.466V46h-6.042V19.843zm18.852 12.89c0-3.777 1.352-6.991 4.055-9.64 2.704-2.65 5.998-3.975 9.883-3.975 3.903 0 7.215 1.334 9.937 4.001 2.685 2.668 4.028 5.944 4.028 9.83 0 3.92-1.352 7.206-4.055 9.855-2.721 2.632-6.061 3.948-10.017 3.948-3.921 0-7.206-1.343-9.856-4.028-2.65-2.65-3.975-5.98-3.975-9.99zm6.177.108c0 2.614.698 4.682 2.095 6.203 1.432 1.54 3.321 2.31 5.666 2.31 2.363 0 4.252-.76 5.667-2.283 1.414-1.521 2.121-3.554 2.121-6.096 0-2.542-.707-4.574-2.121-6.096-1.433-1.54-3.321-2.31-5.667-2.31-2.309 0-4.18.77-5.613 2.31-1.432 1.54-2.148 3.527-2.148 5.962zm34.697-7.359V46h-6.042V25.482h-2.578v-5.64h2.578v-9.587h6.042v9.588h4.7v5.64h-4.7zm33.113 8.863h-18.745c.161 2.148.859 3.858 2.095 5.13 1.235 1.252 2.819 1.879 4.753 1.879 1.504 0 2.748-.358 3.733-1.074.967-.716 2.068-2.041 3.303-3.975l5.103 2.847c-.788 1.343-1.621 2.497-2.498 3.464a13.814 13.814 0 01-2.82 2.364 11.522 11.522 0 01-3.249 1.342c-1.164.287-2.426.43-3.787.43-3.903 0-7.036-1.253-9.399-3.76-2.363-2.524-3.545-5.872-3.545-10.044 0-4.136 1.146-7.483 3.437-10.044 2.31-2.524 5.371-3.786 9.185-3.786 3.849 0 6.893 1.226 9.131 3.679 2.22 2.435 3.33 5.81 3.33 10.124l-.027 1.424zm-6.204-4.942c-.841-3.222-2.873-4.834-6.096-4.834-.734 0-1.423.117-2.068.35a5.707 5.707 0 00-1.772.966 6.037 6.037 0 00-1.343 1.504 7.052 7.052 0 00-.859 2.014h12.138zm38.135 15.98a34.6 34.6 0 01-.134 3.249 21.03 21.03 0 01-.322 2.497c-.43 1.97-1.272 3.662-2.525 5.076-2.363 2.721-5.613 4.082-9.748 4.082-3.492 0-6.365-.94-8.621-2.82-2.327-1.933-3.67-4.61-4.028-8.03h6.069c.233 1.29.618 2.283 1.155 2.982 1.253 1.629 3.079 2.443 5.478 2.443 4.423 0 6.634-2.712 6.634-8.137v-3.652c-2.399 2.453-5.166 3.679-8.299 3.679-3.562 0-6.481-1.29-8.755-3.867-2.291-2.614-3.437-5.882-3.437-9.802 0-3.814 1.065-7.054 3.196-9.722 2.291-2.829 5.317-4.243 9.077-4.243 3.294 0 6.033 1.226 8.218 3.679v-2.954h6.042v25.54zm-5.801-12.408c0-2.542-.68-4.574-2.041-6.096-1.378-1.558-3.142-2.337-5.29-2.337-2.292 0-4.1.85-5.425 2.552-1.199 1.522-1.799 3.491-1.799 5.908 0 2.381.6 4.333 1.799 5.854 1.307 1.666 3.115 2.498 5.425 2.498 2.309 0 4.136-.841 5.478-2.524 1.236-1.522 1.853-3.474 1.853-5.855zm37.249 1.37h-18.745c.161 2.148.859 3.858 2.095 5.13 1.235 1.252 2.819 1.879 4.753 1.879 1.504 0 2.748-.358 3.733-1.074.967-.716 2.068-2.041 3.303-3.975l5.103 2.847c-.788 1.343-1.621 2.497-2.498 3.464a13.814 13.814 0 01-2.82 2.364 11.534 11.534 0 01-3.249 1.342c-1.164.287-2.426.43-3.787.43-3.903 0-7.036-1.253-9.399-3.76-2.364-2.524-3.545-5.872-3.545-10.044 0-4.136 1.146-7.483 3.437-10.044 2.31-2.524 5.371-3.786 9.185-3.786 3.849 0 6.893 1.226 9.131 3.679 2.22 2.435 3.33 5.81 3.33 10.124l-.027 1.424zm-6.204-4.942c-.841-3.222-2.873-4.834-6.096-4.834-.734 0-1.423.117-2.068.35a5.707 5.707 0 00-1.772.966 6.037 6.037 0 00-1.343 1.504 7.052 7.052 0 00-.859 2.014h12.138zm12.837-9.56h6.043v2.336c1.11-1.163 2.094-1.96 2.954-2.39.877-.448 1.916-.671 3.115-.671 1.593 0 3.259.519 4.995 1.557l-2.766 5.532c-1.146-.823-2.265-1.235-3.357-1.235-3.294 0-4.941 2.489-4.941 7.466V46h-6.043V19.843zm28.789 5.64V46h-6.042V25.482h-2.578v-5.64h2.578v-9.587h6.042v9.588h4.7v5.64h-4.7zm33.113 8.862h-18.745c.161 2.148.859 3.858 2.095 5.13 1.235 1.252 2.82 1.879 4.753 1.879 1.504 0 2.748-.358 3.733-1.074.967-.716 2.068-2.041 3.303-3.975l5.103 2.847c-.788 1.343-1.62 2.497-2.498 3.464a13.814 13.814 0 01-2.82 2.364 11.522 11.522 0 01-3.249 1.342c-1.164.287-2.426.43-3.787.43-3.903 0-7.036-1.253-9.399-3.76-2.363-2.524-3.545-5.872-3.545-10.044 0-4.136 1.146-7.483 3.437-10.044 2.31-2.524 5.372-3.786 9.185-3.786 3.849 0 6.893 1.226 9.131 3.679 2.22 2.435 3.33 5.81 3.33 10.124l-.027 1.424zm-6.204-4.942c-.841-3.222-2.873-4.834-6.096-4.834-.734 0-1.423.117-2.068.35a5.707 5.707 0 00-1.772.966 6.037 6.037 0 00-1.343 1.504 7.052 7.052 0 00-.859 2.014h12.138zM24.17 89.971V98c-1.379-1.684-2.614-2.838-3.706-3.465-1.074-.644-2.337-.967-3.787-.967-2.274 0-4.162.797-5.666 2.39-1.504 1.594-2.256 3.59-2.256 5.989 0 2.453.725 4.467 2.175 6.043 1.468 1.575 3.34 2.363 5.613 2.363 1.45 0 2.73-.313 3.84-.94 1.075-.609 2.337-1.79 3.787-3.545v7.976c-2.453 1.271-4.906 1.907-7.359 1.907-4.046 0-7.43-1.307-10.15-3.921-2.722-2.632-4.083-5.899-4.083-9.802 0-3.903 1.379-7.197 4.136-9.883 2.757-2.686 6.14-4.028 10.151-4.028 2.578 0 5.013.617 7.305 1.853zm4.62 11.762c0-3.777 1.35-6.991 4.054-9.64 2.704-2.65 5.998-3.975 9.883-3.975 3.903 0 7.215 1.334 9.937 4.001 2.685 2.668 4.028 5.944 4.028 9.829 0 3.921-1.352 7.206-4.055 9.856-2.722 2.632-6.06 3.948-10.017 3.948-3.921 0-7.207-1.343-9.856-4.028-2.65-2.65-3.975-5.98-3.975-9.991zm6.176.108c0 2.614.698 4.682 2.094 6.203 1.433 1.54 3.322 2.31 5.667 2.31 2.363 0 4.252-.761 5.667-2.283 1.414-1.522 2.121-3.554 2.121-6.096 0-2.542-.707-4.574-2.121-6.096-1.433-1.54-3.322-2.31-5.667-2.31-2.31 0-4.18.77-5.613 2.31-1.432 1.54-2.148 3.527-2.148 5.962zM63.11 88.843h6.07v2.417c2.112-2.095 4.493-3.142 7.143-3.142 3.044 0 5.416.958 7.117 2.873 1.468 1.63 2.202 4.288 2.202 7.976V115h-6.07v-14.609c0-2.579-.357-4.36-1.073-5.345-.699-1.002-1.97-1.504-3.814-1.504-2.005 0-3.428.663-4.27 1.988-.824 1.307-1.235 3.59-1.235 6.848V115h-6.07V88.843zm36.416 5.64V115h-6.042V94.482h-2.578v-5.64h2.578v-9.587h6.042v9.588h4.7v5.64h-4.7zm8.809-5.64h6.042v2.336c1.11-1.163 2.095-1.96 2.955-2.39.877-.448 1.915-.671 3.115-.671 1.593 0 3.258.519 4.995 1.557l-2.766 5.532c-1.146-.823-2.265-1.235-3.357-1.235-3.294 0-4.942 2.489-4.942 7.466V115h-6.042V88.843zm39.477 0h6.07V115h-6.07v-2.739c-2.488 2.327-5.165 3.491-8.029 3.491-3.617 0-6.607-1.307-8.97-3.921-2.345-2.668-3.518-5.998-3.518-9.99 0-3.921 1.173-7.188 3.518-9.802 2.345-2.614 5.282-3.921 8.809-3.921 3.043 0 5.774 1.253 8.19 3.76v-3.035zm-14.34 12.998c0 2.506.671 4.547 2.014 6.123 1.378 1.593 3.115 2.39 5.21 2.39 2.238 0 4.046-.77 5.425-2.31 1.378-1.593 2.067-3.616 2.067-6.069s-.689-4.476-2.067-6.07c-1.379-1.557-3.169-2.336-5.371-2.336-2.077 0-3.814.788-5.21 2.364-1.379 1.593-2.068 3.562-2.068 5.908zm68.83 1.504h-18.745c.161 2.148.86 3.858 2.095 5.129 1.235 1.253 2.82 1.88 4.753 1.88 1.504 0 2.748-.358 3.733-1.074.967-.716 2.068-2.041 3.303-3.975l5.103 2.847c-.788 1.343-1.62 2.497-2.498 3.464a13.812 13.812 0 01-2.819 2.363 11.517 11.517 0 01-3.25 1.343c-1.164.287-2.426.43-3.787.43-3.903 0-7.036-1.253-9.399-3.76-2.363-2.524-3.545-5.872-3.545-10.044 0-4.135 1.146-7.483 3.438-10.044 2.309-2.524 5.371-3.786 9.184-3.786 3.849 0 6.893 1.226 9.131 3.679 2.22 2.435 3.33 5.81 3.33 10.124l-.027 1.424zm-6.203-4.942c-.842-3.222-2.874-4.834-6.097-4.834-.734 0-1.423.117-2.067.35a5.7 5.7 0 00-1.773.966 6.037 6.037 0 00-1.343 1.504 7.052 7.052 0 00-.859 2.014h12.139zm18.879-28.762V115h-6.042V69.641h6.042zm30.884 24.841V115h-6.07V94.482h-2.148v-5.64h2.148V78.746c0-3.294.573-5.622 1.719-6.982 1.576-1.898 3.867-2.847 6.875-2.847 1.074 0 2.426.313 4.055.94v6.177l-.617-.323c-1.307-.662-2.381-.993-3.223-.993-1.074 0-1.799.385-2.175 1.155-.376.752-.564 2.202-.564 4.35v8.62h6.579v5.64h-6.579zm10.071-5.64h6.042v2.337c1.11-1.163 2.095-1.96 2.954-2.39.877-.448 1.916-.671 3.115-.671 1.594 0 3.259.519 4.996 1.557l-2.767 5.532c-1.145-.823-2.264-1.235-3.356-1.235-3.295 0-4.942 2.489-4.942 7.466V115h-6.042V88.843zm39.477 0h6.069V115h-6.069v-2.739c-2.488 2.327-5.165 3.491-8.03 3.491-3.616 0-6.606-1.307-8.969-3.921-2.346-2.668-3.518-5.998-3.518-9.99 0-3.921 1.172-7.188 3.518-9.802 2.345-2.614 5.281-3.921 8.808-3.921 3.044 0 5.774 1.253 8.191 3.76v-3.035zm-14.341 12.999c0 2.506.672 4.547 2.014 6.123 1.379 1.593 3.116 2.39 5.21 2.39 2.238 0 4.047-.77 5.425-2.31 1.379-1.593 2.068-3.616 2.068-6.069s-.689-4.476-2.068-6.07c-1.378-1.557-3.169-2.336-5.371-2.336-2.077 0-3.813.788-5.21 2.364-1.378 1.593-2.068 3.562-2.068 5.908zm34.08-12.998v15.012c0 4.333 1.71 6.499 5.129 6.499 3.42 0 5.13-2.166 5.13-6.499V88.843h6.042v15.146c0 2.095-.259 3.903-.779 5.425-.501 1.361-1.369 2.587-2.605 3.679-2.041 1.773-4.637 2.659-7.788 2.659-3.133 0-5.72-.886-7.761-2.659-1.253-1.092-2.139-2.318-2.659-3.679-.501-1.217-.752-3.026-.752-5.425V88.843h6.043zm43.21-19.202h6.07V115h-6.07v-2.739c-2.381 2.327-5.075 3.491-8.083 3.491-3.581 0-6.553-1.307-8.916-3.921-2.346-2.668-3.518-5.998-3.518-9.99 0-3.903 1.172-7.162 3.518-9.776 2.327-2.631 5.255-3.947 8.782-3.947 3.061 0 5.8 1.253 8.217 3.76V69.64zm-14.34 32.2c0 2.506.671 4.547 2.014 6.123 1.378 1.593 3.115 2.39 5.21 2.39 2.238 0 4.046-.77 5.424-2.31 1.379-1.593 2.068-3.616 2.068-6.069s-.689-4.476-2.068-6.07c-1.378-1.557-3.168-2.336-5.371-2.336-2.076 0-3.813.788-5.21 2.364-1.378 1.593-2.067 3.562-2.067 5.908zm51.857 1.504h-18.745c.161 2.148.86 3.858 2.095 5.129 1.235 1.253 2.82 1.88 4.753 1.88 1.504 0 2.749-.358 3.733-1.074.967-.716 2.068-2.041 3.304-3.975l5.102 2.847c-.788 1.343-1.62 2.497-2.497 3.464a13.843 13.843 0 01-2.82 2.363 11.517 11.517 0 01-3.25 1.343c-1.163.287-2.426.43-3.786.43-3.903 0-7.036-1.253-9.4-3.76-2.363-2.524-3.545-5.872-3.545-10.044 0-4.135 1.146-7.483 3.438-10.044 2.309-2.524 5.371-3.786 9.184-3.786 3.85 0 6.893 1.226 9.131 3.679 2.22 2.435 3.33 5.81 3.33 10.124l-.027 1.424zm-6.203-4.942c-.842-3.222-2.874-4.834-6.096-4.834a6.04 6.04 0 00-2.068.35 5.7 5.7 0 00-1.773.966 6.033 6.033 0 00-1.342 1.504 7.053 7.053 0 00-.86 2.014h12.139zm49.092-9.56h6.069V115h-6.069v-2.739c-2.489 2.327-5.166 3.491-8.03 3.491-3.617 0-6.607-1.307-8.97-3.921-2.345-2.668-3.518-5.998-3.518-9.99 0-3.921 1.173-7.188 3.518-9.802 2.346-2.614 5.282-3.921 8.809-3.921 3.043 0 5.774 1.253 8.191 3.76v-3.035zm-14.341 12.998c0 2.506.671 4.547 2.014 6.123 1.379 1.593 3.115 2.39 5.21 2.39 2.238 0 4.046-.77 5.425-2.31 1.378-1.593 2.068-3.616 2.068-6.069s-.69-4.476-2.068-6.07c-1.379-1.557-3.169-2.336-5.371-2.336-2.077 0-3.814.788-5.21 2.364-1.379 1.593-2.068 3.562-2.068 5.908z" fill="#DEEDFC"/><path d="M468.095 115l7.04-41.47h10.67l8.305 22.11 8.25-22.11h10.67l7.04 41.47h-10.725l-3.575-23.87-9.79 23.87h-4.29l-9.295-23.87L478.82 115h-10.725zm76.99-18.205c-.33-1.393-1.009-2.512-2.035-3.355-1.027-.843-2.274-1.265-3.74-1.265-1.54 0-2.805.403-3.795 1.21-.954.807-1.559 1.943-1.815 3.41h11.385zm-11.66 5.775c0 4.29 2.016 6.435 6.05 6.435 2.163 0 3.795-.88 4.895-2.64h9.625c-1.944 6.453-6.802 9.68-14.575 9.68-2.384 0-4.565-.348-6.545-1.045-1.98-.733-3.685-1.76-5.115-3.08-1.394-1.32-2.475-2.897-3.245-4.73-.77-1.833-1.155-3.887-1.155-6.16 0-2.347.366-4.455 1.1-6.325.733-1.907 1.778-3.52 3.135-4.84 1.356-1.32 2.988-2.328 4.895-3.025 1.943-.733 4.125-1.1 6.545-1.1 2.383 0 4.528.367 6.435 1.1 1.906.697 3.52 1.723 4.84 3.08 1.32 1.357 2.328 3.025 3.025 5.005.696 1.943 1.045 4.143 1.045 6.6v1.045h-20.955zm35.885-1.76c0 .917.165 1.778.495 2.585.33.77.77 1.448 1.32 2.035a6.434 6.434 0 002.035 1.375 6.76 6.76 0 002.585.495c.88 0 1.705-.165 2.475-.495a5.7 5.7 0 002.035-1.375 6.434 6.434 0 001.375-2.035c.367-.77.55-1.595.55-2.475 0-.88-.183-1.705-.55-2.475a6.278 6.278 0 00-1.375-2.09 5.703 5.703 0 00-2.035-1.375 6.216 6.216 0 00-2.475-.495 6.62 6.62 0 00-2.53.495c-.77.33-1.448.788-2.035 1.375a7.954 7.954 0 00-1.375 2.035c-.33.733-.495 1.54-.495 2.42zm12.54-31.46h10.01V115h-10.01v-3.135c-2.127 2.677-5.005 4.015-8.635 4.015-2.053 0-3.942-.385-5.665-1.155a14.009 14.009 0 01-4.51-3.19c-1.283-1.357-2.292-2.952-3.025-4.785-.697-1.833-1.045-3.813-1.045-5.94 0-2.017.33-3.923.99-5.72.697-1.833 1.668-3.428 2.915-4.785a13.411 13.411 0 014.455-3.19c1.76-.807 3.685-1.21 5.775-1.21 3.52 0 6.435 1.228 8.745 3.685V69.35zm26.74 17.435V115h-9.955V86.785h9.955zM597.975 75.95c0-.77.146-1.485.44-2.145a5.606 5.606 0 011.21-1.815 5.797 5.797 0 011.76-1.21 5.61 5.61 0 012.2-.44c.77 0 1.485.147 2.145.44a5.637 5.637 0 011.815 1.21 5.638 5.638 0 011.21 1.815c.293.66.44 1.375.44 2.145s-.147 1.503-.44 2.2a5.818 5.818 0 01-1.21 1.76 5.637 5.637 0 01-1.815 1.21c-.66.293-1.375.44-2.145.44a5.61 5.61 0 01-2.2-.44 5.797 5.797 0 01-1.76-1.21 5.783 5.783 0 01-1.21-1.76 5.6 5.6 0 01-.44-2.2zm38.702 19.965c-1.723-1.173-3.465-1.76-5.225-1.76-.953 0-1.851.165-2.695.495a6.486 6.486 0 00-2.145 1.43 6.428 6.428 0 00-1.485 2.145c-.33.807-.495 1.723-.495 2.75 0 .99.165 1.907.495 2.75a7.845 7.845 0 001.43 2.145 6.778 6.778 0 002.2 1.375c.844.33 1.742.495 2.695.495 1.87 0 3.612-.642 5.225-1.925v8.47c-2.456 1.063-4.785 1.595-6.985 1.595-2.053 0-4.015-.348-5.885-1.045a15.522 15.522 0 01-4.895-2.97 15.376 15.376 0 01-3.355-4.675c-.843-1.833-1.265-3.868-1.265-6.105 0-2.237.404-4.272 1.21-6.105.807-1.87 1.907-3.465 3.3-4.785 1.394-1.357 3.044-2.402 4.95-3.135 1.944-.77 4.015-1.155 6.215-1.155 2.42 0 4.657.513 6.71 1.54v8.47zm14.918 4.895c0 .917.165 1.778.495 2.585.33.77.77 1.448 1.32 2.035a6.434 6.434 0 002.035 1.375c.807.33 1.669.495 2.585.495.88 0 1.705-.165 2.475-.495a5.7 5.7 0 002.035-1.375 6.434 6.434 0 001.375-2.035c.367-.77.55-1.595.55-2.475 0-.88-.183-1.705-.55-2.475a6.278 6.278 0 00-1.375-2.09 5.703 5.703 0 00-2.035-1.375 6.216 6.216 0 00-2.475-.495c-.916 0-1.778.165-2.585.495-.77.33-1.448.788-2.035 1.375a6.95 6.95 0 00-1.32 2.035c-.33.733-.495 1.54-.495 2.42zm12.54-14.025h10.01V115h-10.01v-3.135c-2.126 2.677-5.005 4.015-8.635 4.015-2.053 0-3.941-.367-5.665-1.1a14.02 14.02 0 01-4.51-3.19c-1.283-1.357-2.291-2.952-3.025-4.785-.696-1.833-1.045-3.832-1.045-5.995 0-2.017.349-3.923 1.045-5.72.697-1.833 1.669-3.428 2.915-4.785a13.411 13.411 0 014.455-3.19c1.724-.807 3.63-1.21 5.72-1.21 3.52 0 6.435 1.228 8.745 3.685v-2.805zm16.785 0h9.955v4.62c1.063-1.687 2.365-2.97 3.905-3.85 1.54-.917 3.336-1.375 5.39-1.375h.825c.33 0 .696.037 1.1.11v9.515c-1.32-.66-2.75-.99-4.29-.99-2.31 0-4.052.697-5.225 2.09-1.137 1.357-1.705 3.355-1.705 5.995V115h-9.955V86.785zm46.567 10.01c-.33-1.393-1.008-2.512-2.035-3.355-1.027-.843-2.273-1.265-3.74-1.265-1.54 0-2.805.403-3.795 1.21-.953.807-1.558 1.943-1.815 3.41h11.385zm-11.66 5.775c0 4.29 2.017 6.435 6.05 6.435 2.163 0 3.795-.88 4.895-2.64h9.625c-1.943 6.453-6.802 9.68-14.575 9.68-2.383 0-4.565-.348-6.545-1.045-1.98-.733-3.685-1.76-5.115-3.08-1.393-1.32-2.475-2.897-3.245-4.73-.77-1.833-1.155-3.887-1.155-6.16 0-2.347.367-4.455 1.1-6.325.733-1.907 1.778-3.52 3.135-4.84 1.357-1.32 2.988-2.328 4.895-3.025 1.943-.733 4.125-1.1 6.545-1.1 2.383 0 4.528.367 6.435 1.1 1.907.697 3.52 1.723 4.84 3.08 1.32 1.357 2.328 3.025 3.025 5.005.697 1.943 1.045 4.143 1.045 6.6v1.045h-20.955zm26.151 7.15c0-.88.165-1.705.495-2.475a6.278 6.278 0 011.375-2.09 6.423 6.423 0 012.035-1.375 6.616 6.616 0 012.53-.495c.88 0 1.705.165 2.475.495.806.33 1.503.788 2.09 1.375a6.293 6.293 0 011.375 2.09c.33.77.495 1.595.495 2.475a6.62 6.62 0 01-.495 2.53 6.45 6.45 0 01-1.375 2.035 6.288 6.288 0 01-2.09 1.375c-.77.33-1.595.495-2.475.495-.88 0-1.724-.165-2.53-.495a6.423 6.423 0 01-2.035-1.375 6.434 6.434 0 01-1.375-2.035 6.62 6.62 0 01-.495-2.53z" fill="#fff"/></svg>