<svg width="457" height="140" viewBox="0 0 457 140" fill="none" xmlns="http://www.w3.org/2000/svg"><path d="M2.16 31V.84H10l14.48 18.44V.84h7.8V31h-7.8L10 12.56V31H2.16zm42.918-10.36c0 .693.12 1.333.36 1.92.267.56.6 1.053 1 1.48.426.427.92.76 1.48 1 .587.24 1.2.36 1.84.36.64 0 1.24-.12 1.8-.36a4.15 4.15 0 001.48-1 4.68 4.68 0 001-1.48 4.49 4.49 0 00.4-1.88c0-.64-.134-1.24-.4-1.8a4.57 4.57 0 00-1-1.52 4.15 4.15 0 00-1.48-1 4.52 4.52 0 00-1.8-.36c-.64 0-1.254.12-1.84.36a4.68 4.68 0 00-1.48 1c-.4.427-.733.92-1 1.48a4.52 4.52 0 00-.36 1.8zm-7.64-.08c0-1.52.306-2.933.92-4.24a10.196 10.196 0 012.56-3.44c1.093-.987 2.386-1.76 3.88-2.32 1.52-.56 3.173-.84 4.96-.84 1.76 0 3.386.28 4.88.84 1.52.533 2.827 1.293 3.92 2.28a9.868 9.868 0 012.6 3.48c.613 1.333.92 2.813.92 4.44 0 1.627-.32 3.12-.96 4.48a10.62 10.62 0 01-2.56 3.48c-1.093.96-2.413 1.707-3.96 2.24-1.52.533-3.173.8-4.96.8-1.76 0-3.387-.267-4.88-.8-1.494-.533-2.787-1.293-3.88-2.28a10.77 10.77 0 01-2.52-3.52c-.613-1.387-.92-2.92-.92-4.6zm42.408-4.8c-1.334-.693-2.64-1.04-3.92-1.04-.667 0-1.214.133-1.64.4-.4.267-.6.627-.6 1.08 0 .24.026.44.08.6.08.133.226.267.44.4.24.133.573.253 1 .36.453.107 1.04.24 1.76.4 2 .4 3.493 1.12 4.48 2.16.986 1.013 1.48 2.32 1.48 3.92 0 1.2-.24 2.28-.72 3.24a7.078 7.078 0 01-2 2.44c-.854.64-1.88 1.133-3.08 1.48-1.2.373-2.52.56-3.96.56-2.774 0-5.507-.787-8.2-2.36l2.64-5.12c2.026 1.387 3.946 2.08 5.76 2.08.666 0 1.213-.147 1.64-.44.426-.293.64-.667.64-1.12 0-.267-.04-.48-.12-.64-.054-.187-.187-.347-.4-.48-.214-.16-.534-.293-.96-.4-.4-.133-.934-.267-1.6-.4-2.24-.453-3.814-1.12-4.72-2-.88-.907-1.32-2.147-1.32-3.72 0-1.147.213-2.173.64-3.08a6.377 6.377 0 011.84-2.36c.8-.64 1.76-1.133 2.88-1.48 1.146-.347 2.413-.52 3.8-.52 2.266 0 4.466.44 6.6 1.32l-2.44 4.72zm13.591 4.88c0 .693.12 1.333.36 1.92.267.56.6 1.053 1 1.48.427.427.92.76 1.48 1 .587.24 1.2.36 1.84.36.64 0 1.24-.12 1.8-.36a4.148 4.148 0 001.48-1c.427-.427.76-.92 1-1.48.267-.587.4-1.213.4-1.88 0-.64-.133-1.24-.4-1.8a4.564 4.564 0 00-1-1.52c-.4-.427-.893-.76-1.48-1a4.52 4.52 0 00-1.8-.36c-.64 0-1.253.12-1.84.36a4.68 4.68 0 00-1.48 1c-.4.427-.733.92-1 1.48a4.52 4.52 0 00-.36 1.8zm-7.64-.08c0-1.52.307-2.933.92-4.24a10.196 10.196 0 012.56-3.44c1.094-.987 2.387-1.76 3.88-2.32 1.52-.56 3.174-.84 4.96-.84 1.76 0 3.387.28 4.88.84 1.52.533 2.827 1.293 3.92 2.28a9.864 9.864 0 012.6 3.48c.614 1.333.92 2.813.92 4.44 0 1.627-.32 3.12-.96 4.48a10.605 10.605 0 01-2.56 3.48c-1.093.96-2.413 1.707-3.96 2.24-1.52.533-3.173.8-4.96.8-1.76 0-3.386-.267-4.88-.8-1.493-.533-2.787-1.293-3.88-2.28a10.77 10.77 0 01-2.52-3.52c-.613-1.387-.92-2.92-.92-4.6zm37.005-4.04V31h-7.24V16.52h-2.4v-6.04h2.4V4.32h7.24v6.16h4.12v6.04h-4.12zm6.842-6.04h7.24v3.36c.773-1.227 1.72-2.16 2.84-2.8 1.12-.667 2.427-1 3.92-1h.6c.24 0 .507.027.8.08v6.92c-.96-.48-2-.72-3.12-.72-1.68 0-2.947.507-3.8 1.52-.827.987-1.24 2.44-1.24 4.36V31h-7.24V10.48zm25.587 10.2c0 .667.12 1.293.36 1.88.24.56.56 1.053.96 1.48.427.427.92.76 1.48 1a4.92 4.92 0 001.88.36c.64 0 1.24-.12 1.8-.36a4.147 4.147 0 001.48-1c.427-.427.76-.92 1-1.48.267-.56.4-1.16.4-1.8 0-.64-.133-1.24-.4-1.8a4.564 4.564 0 00-1-1.52c-.4-.427-.893-.76-1.48-1a4.52 4.52 0 00-1.8-.36 4.92 4.92 0 00-1.88.36c-.56.24-1.053.573-1.48 1-.4.427-.72.92-.96 1.48a4.24 4.24 0 00-.36 1.76zm9.12-10.2h7.28V31h-7.28v-2.28c-1.546 1.947-3.64 2.92-6.28 2.92-1.493 0-2.866-.267-4.12-.8a10.202 10.202 0 01-3.28-2.32 10.91 10.91 0 01-2.2-3.48c-.506-1.333-.76-2.787-.76-4.36 0-1.467.254-2.853.76-4.16.507-1.333 1.214-2.493 2.12-3.48a9.755 9.755 0 013.24-2.32c1.254-.587 2.64-.88 4.16-.88 2.56 0 4.68.893 6.36 2.68v-2.04zm25.807 5.28c-1.333-.693-2.64-1.04-3.92-1.04-.667 0-1.213.133-1.64.4-.4.267-.6.627-.6 1.08 0 .24.027.44.08.6.08.133.227.267.44.4.24.133.573.253 1 .36.453.107 1.04.24 1.76.4 2 .4 3.493 1.12 4.48 2.16.987 1.013 1.48 2.32 1.48 3.92 0 1.2-.24 2.28-.72 3.24a7.083 7.083 0 01-2 2.44c-.853.64-1.88 1.133-3.08 1.48-1.2.373-2.52.56-3.96.56-2.773 0-5.507-.787-8.2-2.36l2.64-5.12c2.027 1.387 3.947 2.08 5.76 2.08.667 0 1.213-.147 1.64-.44.427-.293.64-.667.64-1.12 0-.267-.04-.48-.12-.64-.053-.187-.187-.347-.4-.48-.213-.16-.533-.293-.96-.4a13.82 13.82 0 00-1.6-.4c-2.24-.453-3.813-1.12-4.72-2-.88-.907-1.32-2.147-1.32-3.72 0-1.147.213-2.173.64-3.08a6.38 6.38 0 011.84-2.36c.8-.64 1.76-1.133 2.88-1.48 1.147-.347 2.413-.52 3.8-.52 2.267 0 4.467.44 6.6 1.32l-2.44 4.72zm20.345-5.28h7.24v2.6c.987-1.2 1.987-2 3-2.4 1.014-.427 2.2-.64 3.56-.64 1.44 0 2.667.24 3.68.72a7.136 7.136 0 012.64 1.96 5.681 5.681 0 011.2 2.32c.214.853.32 1.827.32 2.92V31h-7.24V20.64c0-1.013-.08-1.827-.24-2.44-.133-.64-.386-1.147-.76-1.52-.32-.32-.68-.547-1.08-.68a4.02 4.02 0 00-1.28-.2c-1.226 0-2.173.373-2.84 1.12-.64.72-.96 1.76-.96 3.12V31h-7.24V10.48zm33.403 10.16c0 .693.12 1.333.36 1.92.267.56.6 1.053 1 1.48.427.427.92.76 1.48 1 .587.24 1.2.36 1.84.36.64 0 1.24-.12 1.8-.36a4.147 4.147 0 001.48-1c.427-.427.76-.92 1-1.48.267-.587.4-1.213.4-1.88 0-.64-.133-1.24-.4-1.8a4.564 4.564 0 00-1-1.52c-.4-.427-.893-.76-1.48-1a4.52 4.52 0 00-1.8-.36c-.64 0-1.253.12-1.84.36-.56.24-1.053.573-1.48 1-.4.427-.733.92-1 1.48a4.52 4.52 0 00-.36 1.8zm-7.64-.08c0-1.52.307-2.933.92-4.24a10.196 10.196 0 012.56-3.44c1.093-.987 2.387-1.76 3.88-2.32 1.52-.56 3.173-.84 4.96-.84 1.76 0 3.387.28 4.88.84 1.52.533 2.827 1.293 3.92 2.28a9.864 9.864 0 012.6 3.48c.613 1.333.92 2.813.92 4.44 0 1.627-.32 3.12-.96 4.48a10.62 10.62 0 01-2.56 3.48c-1.093.96-2.413 1.707-3.96 2.24-1.52.533-3.173.8-4.96.8-1.76 0-3.387-.267-4.88-.8-1.493-.533-2.787-1.293-3.88-2.28a10.762 10.762 0 01-2.52-3.52c-.613-1.387-.92-2.92-.92-4.6zM16.96 71.12c-1.253-.853-2.52-1.28-3.8-1.28a5.33 5.33 0 00-1.96.36 4.707 4.707 0 00-1.56 1.04 4.668 4.668 0 00-1.08 1.56c-.24.587-.36 1.253-.36 2 0 .72.12 1.387.36 2a5.696 5.696 0 001.04 1.56c.453.427.987.76 1.6 1a5.33 5.33 0 001.96.36c1.36 0 2.627-.467 3.8-1.4v6.16c-1.787.773-3.48 1.16-5.08 1.16-1.493 0-2.92-.253-4.28-.76a11.279 11.279 0 01-3.56-2.16 11.173 11.173 0 01-2.44-3.4c-.613-1.333-.92-2.813-.92-4.44 0-1.627.293-3.107.88-4.44.587-1.36 1.387-2.52 2.4-3.48 1.013-.987 2.213-1.747 3.6-2.28 1.413-.56 2.92-.84 4.52-.84 1.76 0 3.387.373 4.88 1.12v6.16zm10.97 3.52c0 .693.12 1.333.36 1.92.266.56.6 1.053 1 1.48.426.427.92.76 1.48 1 .586.24 1.2.36 1.84.36.64 0 1.24-.12 1.8-.36a4.15 4.15 0 001.48-1c.426-.427.76-.92 1-1.48a4.49 4.49 0 00.4-1.88c0-.64-.134-1.24-.4-1.8a4.57 4.57 0 00-1-1.52 4.15 4.15 0 00-1.48-1 4.52 4.52 0 00-1.8-.36c-.64 0-1.254.12-1.84.36a4.68 4.68 0 00-1.48 1c-.4.427-.734.92-1 1.48a4.52 4.52 0 00-.36 1.8zm-7.64-.08c0-1.52.306-2.933.92-4.24a10.194 10.194 0 012.56-3.44c1.093-.987 2.386-1.76 3.88-2.32 1.52-.56 3.173-.84 4.96-.84 1.76 0 3.386.28 4.88.84 1.52.533 2.826 1.293 3.92 2.28a9.87 9.87 0 012.6 3.48c.613 1.333.92 2.813.92 4.44 0 1.627-.32 3.12-.96 4.48a10.62 10.62 0 01-2.56 3.48c-1.094.96-2.414 1.707-3.96 2.24-1.52.533-3.174.8-4.96.8-1.76 0-3.387-.267-4.88-.8-1.494-.533-2.787-1.293-3.88-2.28a10.77 10.77 0 01-2.52-3.52c-.614-1.387-.92-2.92-.92-4.6zm28.807-10.08h7.24V67c1.973-1.893 4.187-2.84 6.64-2.84 3.04 0 5.36 1.28 6.96 3.84 1.627-2.587 3.947-3.88 6.96-3.88.96 0 1.867.147 2.72.44a5.294 5.294 0 012.2 1.32c.614.587 1.094 1.36 1.44 2.32.373.96.56 2.12.56 3.48V85h-7.24V74.88c0-1.04-.08-1.893-.24-2.56-.133-.667-.347-1.187-.64-1.56-.267-.373-.587-.627-.96-.76a3.542 3.542 0 00-1.2-.2c-2.32 0-3.48 1.693-3.48 5.08V85h-7.24V74.88c0-1.04-.066-1.893-.2-2.56-.133-.693-.333-1.24-.6-1.64-.24-.4-.56-.667-.96-.8-.4-.16-.867-.24-1.4-.24-.453 0-.88.067-1.28.2s-.76.4-1.08.8c-.293.373-.533.907-.72 1.6-.16.667-.24 1.547-.24 2.64V85h-7.24V64.48zm56.751 10.32c0-.64-.12-1.24-.36-1.8a4.12 4.12 0 00-.96-1.52 4.58 4.58 0 00-1.52-1 4.226 4.226 0 00-1.84-.4c-.64 0-1.24.12-1.8.36a4.68 4.68 0 00-1.48 1 5.57 5.57 0 00-1 1.52 4.52 4.52 0 00-.36 1.8c0 .64.12 1.24.36 1.8a4.68 4.68 0 001 1.48c.426.4.92.733 1.48 1 .587.24 1.2.36 1.84.36.64 0 1.24-.12 1.8-.36s1.04-.573 1.44-1c.426-.427.76-.92 1-1.48.266-.56.4-1.147.4-1.76zm-9.12 20.44h-7.24V64.48h7.24v2.28c1.547-1.947 3.653-2.92 6.32-2.92 1.466 0 2.826.293 4.08.88 1.28.56 2.386 1.333 3.32 2.32a10.366 10.366 0 012.16 3.48c.533 1.333.8 2.76.8 4.28 0 1.52-.267 2.933-.8 4.24a10.457 10.457 0 01-2.16 3.44 9.755 9.755 0 01-3.24 2.32c-1.254.56-2.614.84-4.08.84-2.56 0-4.694-.88-6.4-2.64v12.24zm27.527-20.56c0 .667.12 1.293.36 1.88.24.56.56 1.053.96 1.48.426.427.92.76 1.48 1 .586.24 1.213.36 1.88.36.64 0 1.24-.12 1.8-.36a4.156 4.156 0 001.48-1c.426-.427.76-.92 1-1.48.266-.56.4-1.16.4-1.8 0-.64-.134-1.24-.4-1.8a4.58 4.58 0 00-1-1.52c-.4-.427-.894-.76-1.48-1a4.52 4.52 0 00-1.8-.36c-.667 0-1.294.12-1.88.36-.56.24-1.054.573-1.48 1-.4.427-.72.92-.96 1.48a4.24 4.24 0 00-.36 1.76zm9.12-10.2h7.28V85h-7.28v-2.28c-1.547 1.947-3.64 2.92-6.28 2.92-1.494 0-2.867-.267-4.12-.8a10.18 10.18 0 01-3.28-2.32 10.876 10.876 0 01-2.2-3.48c-.507-1.333-.76-2.787-.76-4.36 0-1.467.253-2.853.76-4.16.506-1.333 1.213-2.493 2.12-3.48a9.735 9.735 0 013.24-2.32c1.253-.587 2.64-.88 4.16-.88 2.56 0 4.68.893 6.36 2.68v-2.04zm12.207 0h7.24v3.36c.773-1.227 1.72-2.16 2.84-2.8 1.12-.667 2.426-1 3.92-1h.6c.24 0 .506.027.8.08v6.92c-.96-.48-2-.72-3.12-.72-1.68 0-2.947.507-3.8 1.52-.827.987-1.24 2.44-1.24 4.36V85h-7.24V64.48zm27.455 6.04V85h-7.24V70.52h-2.4v-6.04h2.4v-6.16h7.24v6.16h4.12v6.04h-4.12zm14.628-6.04V85h-7.24V64.48h7.24zm-7.72-7.88c0-.56.107-1.08.32-1.56.214-.507.507-.947.88-1.32.374-.373.8-.667 1.28-.88a4.083 4.083 0 011.6-.32c.56 0 1.08.107 1.56.32.507.213.947.507 1.32.88.374.373.667.813.88 1.32.214.48.32 1 .32 1.56a4.07 4.07 0 01-.32 1.6 4.2 4.2 0 01-.88 1.28 4.082 4.082 0 01-1.32.88c-.48.213-1 .32-1.56.32s-1.093-.107-1.6-.32a4.227 4.227 0 01-1.28-.88 4.236 4.236 0 01-.88-1.28 4.088 4.088 0 01-.32-1.6zm12.668 7.88h7.24V67c1.973-1.893 4.186-2.84 6.64-2.84 3.04 0 5.36 1.28 6.96 3.84 1.626-2.587 3.946-3.88 6.96-3.88.96 0 1.866.147 2.72.44a5.3 5.3 0 012.2 1.32c.613.587 1.093 1.36 1.44 2.32.373.96.56 2.12.56 3.48V85h-7.24V74.88c0-1.04-.08-1.893-.24-2.56-.134-.667-.347-1.187-.64-1.56-.267-.373-.587-.627-.96-.76a3.548 3.548 0 00-1.2-.2c-2.32 0-3.48 1.693-3.48 5.08V85h-7.24V74.88c0-1.04-.067-1.893-.2-2.56-.134-.693-.334-1.24-.6-1.64-.24-.4-.56-.667-.96-.8-.4-.16-.867-.24-1.4-.24-.454 0-.88.067-1.28.2s-.76.4-1.08.8c-.294.373-.534.907-.72 1.6-.16.667-.24 1.547-.24 2.64V85h-7.24V64.48zm46.527 10.16c0 .693.12 1.333.36 1.92.267.56.6 1.053 1 1.48.427.427.92.76 1.48 1 .587.24 1.2.36 1.84.36.64 0 1.24-.12 1.8-.36a4.147 4.147 0 001.48-1c.427-.427.76-.92 1-1.48.267-.587.4-1.213.4-1.88 0-.64-.133-1.24-.4-1.8a4.564 4.564 0 00-1-1.52c-.4-.427-.893-.76-1.48-1a4.52 4.52 0 00-1.8-.36c-.64 0-1.253.12-1.84.36-.56.24-1.053.573-1.48 1-.4.427-.733.92-1 1.48a4.52 4.52 0 00-.36 1.8zm-7.64-.08c0-1.52.307-2.933.92-4.24a10.209 10.209 0 012.56-3.44c1.094-.987 2.387-1.76 3.88-2.32 1.52-.56 3.174-.84 4.96-.84 1.76 0 3.387.28 4.88.84 1.52.533 2.827 1.293 3.92 2.28a9.864 9.864 0 012.6 3.48c.614 1.333.92 2.813.92 4.44 0 1.627-.32 3.12-.96 4.48a10.605 10.605 0 01-2.56 3.48c-1.093.96-2.413 1.707-3.96 2.24-1.52.533-3.173.8-4.96.8-1.76 0-3.386-.267-4.88-.8-1.493-.533-2.786-1.293-3.88-2.28a10.79 10.79 0 01-2.52-3.52c-.613-1.387-.92-2.92-.92-4.6zm42.408-4.8c-1.333-.693-2.64-1.04-3.92-1.04-.667 0-1.213.133-1.64.4-.4.267-.6.627-.6 1.08 0 .24.027.44.08.6.08.133.227.267.44.4.24.133.573.253 1 .36.453.107 1.04.24 1.76.4 2 .4 3.493 1.12 4.48 2.16.987 1.013 1.48 2.32 1.48 3.92 0 1.2-.24 2.28-.72 3.24a7.083 7.083 0 01-2 2.44c-.853.64-1.88 1.133-3.08 1.48-1.2.373-2.52.56-3.96.56-2.773 0-5.507-.787-8.2-2.36l2.64-5.12c2.027 1.387 3.947 2.08 5.76 2.08.667 0 1.213-.147 1.64-.44.427-.293.64-.667.64-1.12 0-.267-.04-.48-.12-.64-.053-.187-.187-.347-.4-.48-.213-.16-.533-.293-.96-.4a13.82 13.82 0 00-1.6-.4c-2.24-.453-3.813-1.12-4.72-2-.88-.907-1.32-2.147-1.32-3.72 0-1.147.213-2.173.64-3.08a6.38 6.38 0 011.84-2.36c.8-.64 1.76-1.133 2.88-1.48 1.147-.347 2.413-.52 3.8-.52 2.267 0 4.467.44 6.6 1.32l-2.44 4.72zm20.345-5.28h7.24v2.6c.987-1.2 1.987-2 3-2.4 1.014-.427 2.2-.64 3.56-.64 1.44 0 2.667.24 3.68.72a7.136 7.136 0 012.64 1.96 5.681 5.681 0 011.2 2.32c.214.853.32 1.827.32 2.92V85h-7.24V74.64c0-1.013-.08-1.827-.24-2.44-.133-.64-.386-1.147-.76-1.52-.32-.32-.68-.547-1.08-.68a4.02 4.02 0 00-1.28-.2c-1.226 0-2.173.373-2.84 1.12-.64.72-.96 1.76-.96 3.12V85h-7.24V64.48zm33.803 0v11.56c0 2.533 1.227 3.8 3.68 3.8 2.453 0 3.68-1.267 3.68-3.8V64.48h7.24v12.96c0 2.773-.92 4.853-2.76 6.24-1.813 1.387-4.533 2.08-8.16 2.08s-6.36-.693-8.2-2.08c-1.813-1.387-2.72-3.467-2.72-6.24V64.48h7.24zm34.518 7.28c-.24-1.013-.734-1.827-1.48-2.44-.747-.613-1.654-.92-2.72-.92-1.12 0-2.04.293-2.76.88-.694.587-1.134 1.413-1.32 2.48h8.28zm-8.48 4.2c0 3.12 1.466 4.68 4.4 4.68 1.573 0 2.76-.64 3.56-1.92h7c-1.414 4.693-4.947 7.04-10.6 7.04-1.734 0-3.32-.253-4.76-.76-1.44-.533-2.68-1.28-3.72-2.24a10.016 10.016 0 01-2.36-3.44c-.56-1.333-.84-2.827-.84-4.48 0-1.707.266-3.24.8-4.6.533-1.387 1.293-2.56 2.28-3.52.986-.96 2.173-1.693 3.56-2.2 1.413-.533 3-.8 4.76-.8 1.733 0 3.293.267 4.68.8 1.386.507 2.56 1.253 3.52 2.24.96.987 1.693 2.2 2.2 3.64.506 1.413.76 3.013.76 4.8v.76h-15.24zm32.978-6.2c-1.333-.693-2.64-1.04-3.92-1.04-.666 0-1.213.133-1.64.4-.4.267-.6.627-.6 1.08 0 .24.027.44.08.6.08.133.227.267.44.4.24.133.574.253 1 .36.454.107 1.04.24 1.76.4 2 .4 3.494 1.12 4.48 2.16.987 1.013 1.48 2.32 1.48 3.92 0 1.2-.24 2.28-.72 3.24a7.071 7.071 0 01-2 2.44c-.853.64-1.88 1.133-3.08 1.48-1.2.373-2.52.56-3.96.56-2.773 0-5.506-.787-8.2-2.36l2.64-5.12c2.027 1.387 3.947 2.08 5.76 2.08.667 0 1.214-.147 1.64-.44.427-.293.64-.667.64-1.12 0-.267-.04-.48-.12-.64-.053-.187-.186-.347-.4-.48-.213-.16-.533-.293-.96-.4a13.82 13.82 0 00-1.6-.4c-2.24-.453-3.813-1.12-4.72-2-.88-.907-1.32-2.147-1.32-3.72 0-1.147.214-2.173.64-3.08a6.38 6.38 0 011.84-2.36c.8-.64 1.76-1.133 2.88-1.48 1.147-.347 2.414-.52 3.8-.52 2.267 0 4.467.44 6.6 1.32l-2.44 4.72zm15.379.76V85h-7.24V70.52h-2.4v-6.04h2.4v-6.16h7.24v6.16h4.12v6.04h-4.12zm6.842-6.04h7.24v3.36c.773-1.227 1.72-2.16 2.84-2.8 1.12-.667 2.426-1 3.92-1h.6c.24 0 .506.027.8.08v6.92c-.96-.48-2-.72-3.12-.72-1.68 0-2.947.507-3.8 1.52-.827.987-1.24 2.44-1.24 4.36V85h-7.24V64.48zm25.629 10.16c0 .693.12 1.333.36 1.92.266.56.6 1.053 1 1.48.426.427.92.76 1.48 1 .586.24 1.2.36 1.84.36.64 0 1.24-.12 1.8-.36a4.156 4.156 0 001.48-1c.426-.427.76-.92 1-1.48a4.5 4.5 0 00.4-1.88c0-.64-.134-1.24-.4-1.8a4.58 4.58 0 00-1-1.52c-.4-.427-.894-.76-1.48-1a4.52 4.52 0 00-1.8-.36c-.64 0-1.254.12-1.84.36-.56.24-1.054.573-1.48 1-.4.427-.734.92-1 1.48a4.52 4.52 0 00-.36 1.8zm-7.64-.08c0-1.52.306-2.933.92-4.24a10.183 10.183 0 012.56-3.44c1.093-.987 2.386-1.76 3.88-2.32 1.52-.56 3.173-.84 4.96-.84 1.76 0 3.386.28 4.88.84 1.52.533 2.826 1.293 3.92 2.28a9.876 9.876 0 012.6 3.48c.613 1.333.92 2.813.92 4.44 0 1.627-.32 3.12-.96 4.48a10.634 10.634 0 01-2.56 3.48c-1.094.96-2.414 1.707-3.96 2.24-1.52.533-3.174.8-4.96.8-1.76 0-3.387-.267-4.88-.8-1.494-.533-2.787-1.293-3.88-2.28a10.762 10.762 0 01-2.52-3.52c-.614-1.387-.92-2.92-.92-4.6zM1.48 118.48h7.24v2.6c.987-1.2 1.987-2 3-2.4 1.013-.427 2.2-.64 3.56-.64 1.44 0 2.667.24 3.68.72a7.136 7.136 0 012.64 1.96 5.688 5.688 0 011.2 2.32c.213.853.32 1.827.32 2.92V139h-7.24v-10.36c0-1.013-.08-1.827-.24-2.44-.133-.64-.387-1.147-.76-1.52a2.74 2.74 0 00-1.08-.68c-.4-.133-.827-.2-1.28-.2-1.227 0-2.173.373-2.84 1.12-.64.72-.96 1.76-.96 3.12V139H1.48v-20.52zm33.803 0v11.56c0 2.533 1.226 3.8 3.68 3.8 2.453 0 3.68-1.267 3.68-3.8v-11.56h7.24v12.96c0 2.773-.92 4.853-2.76 6.24-1.814 1.387-4.534 2.08-8.16 2.08-3.627 0-6.36-.693-8.2-2.08-1.814-1.387-2.72-3.467-2.72-6.24v-12.96h7.24zm10.64-9.16l-6.96 6.16-3.36-2.48 5.72-7 4.6 3.32zm8.877 9.16h7.24V121c1.974-1.893 4.187-2.84 6.64-2.84 3.04 0 5.36 1.28 6.96 3.84 1.627-2.587 3.947-3.88 6.96-3.88.96 0 1.867.147 2.72.44a5.3 5.3 0 012.2 1.32c.614.587 1.094 1.36 1.44 2.32.374.96.56 2.12.56 3.48V139h-7.24v-10.12c0-1.04-.08-1.893-.24-2.56-.133-.667-.346-1.187-.64-1.56-.266-.373-.586-.627-.96-.76a3.55 3.55 0 00-1.2-.2c-2.32 0-3.48 1.693-3.48 5.08V139h-7.24v-10.12c0-1.04-.066-1.893-.2-2.56-.133-.693-.333-1.24-.6-1.64-.24-.4-.56-.667-.96-.8-.4-.16-.866-.24-1.4-.24-.453 0-.88.067-1.28.2s-.76.4-1.08.8c-.293.373-.533.907-.72 1.6-.16.667-.24 1.547-.24 2.64V139H54.8v-20.52zm54.688 7.28c-.24-1.013-.734-1.827-1.48-2.44-.747-.613-1.654-.92-2.72-.92-1.12 0-2.04.293-2.76.88-.694.587-1.134 1.413-1.32 2.48h8.28zm-8.48 4.2c0 3.12 1.466 4.68 4.4 4.68 1.573 0 2.76-.64 3.56-1.92h7c-1.414 4.693-4.947 7.04-10.6 7.04-1.734 0-3.32-.253-4.76-.76-1.44-.533-2.68-1.28-3.72-2.24a10.029 10.029 0 01-2.36-3.44c-.56-1.333-.84-2.827-.84-4.48 0-1.707.266-3.24.8-4.6.533-1.387 1.293-2.56 2.28-3.52.986-.96 2.173-1.693 3.56-2.2 1.413-.533 3-.8 4.76-.8 1.733 0 3.293.267 4.68.8 1.386.507 2.56 1.253 3.52 2.24.96.987 1.693 2.2 2.2 3.64.506 1.413.76 3.013.76 4.8v.76h-15.24zm19.378-11.48h7.24v3.36c.774-1.227 1.72-2.16 2.84-2.8 1.12-.667 2.427-1 3.92-1h.6c.24 0 .507.027.8.08v6.92c-.96-.48-2-.72-3.12-.72-1.68 0-2.946.507-3.8 1.52-.826.987-1.24 2.44-1.24 4.36v8.8h-7.24v-20.52zm25.629 10.16c0 .693.12 1.333.36 1.92.267.56.6 1.053 1 1.48.427.427.92.76 1.48 1 .587.24 1.2.36 1.84.36.64 0 1.24-.12 1.8-.36a4.143 4.143 0 001.48-1c.427-.427.76-.92 1-1.48.267-.587.4-1.213.4-1.88 0-.64-.133-1.24-.4-1.8a4.564 4.564 0 00-1-1.52c-.4-.427-.893-.76-1.48-1a4.52 4.52 0 00-1.8-.36c-.64 0-1.253.12-1.84.36-.56.24-1.053.573-1.48 1-.4.427-.733.92-1 1.48a4.52 4.52 0 00-.36 1.8zm-7.64-.08c0-1.52.307-2.933.92-4.24a10.212 10.212 0 012.56-3.44c1.094-.987 2.387-1.76 3.88-2.32 1.52-.56 3.174-.84 4.96-.84 1.76 0 3.387.28 4.88.84 1.52.533 2.827 1.293 3.92 2.28a9.864 9.864 0 012.6 3.48c.614 1.333.92 2.813.92 4.44 0 1.627-.32 3.12-.96 4.48a10.612 10.612 0 01-2.56 3.48c-1.093.96-2.413 1.707-3.96 2.24-1.52.533-3.173.8-4.96.8-1.76 0-3.386-.267-4.88-.8-1.493-.533-2.786-1.293-3.88-2.28a10.794 10.794 0 01-2.52-3.52c-.613-1.387-.92-2.92-.92-4.6zm49.122.12c0 .667.12 1.293.36 1.88.24.56.56 1.053.96 1.48.427.427.92.76 1.48 1 .587.24 1.213.36 1.88.36.64 0 1.24-.12 1.8-.36a4.143 4.143 0 001.48-1c.427-.427.76-.92 1-1.48.267-.56.4-1.16.4-1.8 0-.64-.133-1.24-.4-1.8a4.564 4.564 0 00-1-1.52c-.4-.427-.893-.76-1.48-1a4.52 4.52 0 00-1.8-.36c-.64 0-1.253.12-1.84.36-.56.24-1.053.573-1.48 1-.4.427-.733.92-1 1.48-.24.533-.36 1.12-.36 1.76zm9.12-22.88h7.28V139h-7.28v-2.28c-1.547 1.947-3.64 2.92-6.28 2.92-1.493 0-2.867-.28-4.12-.84a10.187 10.187 0 01-3.28-2.32 10.9 10.9 0 01-2.2-3.48c-.507-1.333-.76-2.773-.76-4.32 0-1.467.24-2.853.72-4.16.507-1.333 1.213-2.493 2.12-3.48a9.751 9.751 0 013.24-2.32c1.28-.587 2.68-.88 4.2-.88 2.56 0 4.68.893 6.36 2.68V105.8zm27.207 19.96c-.24-1.013-.734-1.827-1.48-2.44-.747-.613-1.654-.92-2.72-.92-1.12 0-2.04.293-2.76.88-.694.587-1.134 1.413-1.32 2.48h8.28zm-8.48 4.2c0 3.12 1.466 4.68 4.4 4.68 1.573 0 2.76-.64 3.56-1.92h7c-1.414 4.693-4.947 7.04-10.6 7.04-1.734 0-3.32-.253-4.76-.76-1.44-.533-2.68-1.28-3.72-2.24a10.019 10.019 0 01-2.36-3.44c-.56-1.333-.84-2.827-.84-4.48 0-1.707.266-3.24.8-4.6.533-1.387 1.293-2.56 2.28-3.52.986-.96 2.173-1.693 3.56-2.2 1.413-.533 3-.8 4.76-.8 1.733 0 3.293.267 4.68.8 1.386.507 2.56 1.253 3.52 2.24.96.987 1.693 2.2 2.2 3.64.506 1.413.76 3.013.76 4.8v.76h-15.24zm32.292 9.04l5.12-30.16h7.76l6.04 16.08 6-16.08h7.76l5.12 30.16h-7.8l-2.6-17.36-7.12 17.36h-3.12l-6.76-17.36-2.6 17.36h-7.8zm55.992-13.24c-.24-1.013-.733-1.827-1.48-2.44-.746-.613-1.653-.92-2.72-.92-1.12 0-2.04.293-2.76.88-.693.587-1.133 1.413-1.32 2.48h8.28zm-8.48 4.2c0 3.12 1.467 4.68 4.4 4.68 1.574 0 2.76-.64 3.56-1.92h7c-1.413 4.693-4.946 7.04-10.6 7.04-1.733 0-3.32-.253-4.76-.76-1.44-.533-2.68-1.28-3.72-2.24a10.033 10.033 0 01-2.36-3.44c-.56-1.333-.84-2.827-.84-4.48 0-1.707.267-3.24.8-4.6.534-1.387 1.294-2.56 2.28-3.52.987-.96 2.174-1.693 3.56-2.2 1.414-.533 3-.8 4.76-.8 1.734 0 3.294.267 4.68.8 1.387.507 2.56 1.253 3.52 2.24.96.987 1.694 2.2 2.2 3.64.507 1.413.76 3.013.76 4.8v.76h-15.24zm26.099-1.28c0 .667.12 1.293.36 1.88.24.56.56 1.053.96 1.48.427.427.92.76 1.48 1 .587.24 1.213.36 1.88.36.64 0 1.24-.12 1.8-.36a4.143 4.143 0 001.48-1c.427-.427.76-.92 1-1.48.267-.56.4-1.16.4-1.8 0-.64-.133-1.24-.4-1.8a4.564 4.564 0 00-1-1.52c-.4-.427-.893-.76-1.48-1a4.52 4.52 0 00-1.8-.36c-.64 0-1.253.12-1.84.36-.56.24-1.053.573-1.48 1-.4.427-.733.92-1 1.48-.24.533-.36 1.12-.36 1.76zm9.12-22.88h7.28V139h-7.28v-2.28c-1.547 1.947-3.64 2.92-6.28 2.92-1.493 0-2.867-.28-4.12-.84a10.187 10.187 0 01-3.28-2.32 10.9 10.9 0 01-2.2-3.48c-.507-1.333-.76-2.773-.76-4.32 0-1.467.24-2.853.72-4.16.507-1.333 1.213-2.493 2.12-3.48a9.751 9.751 0 013.24-2.32c1.28-.587 2.68-.88 4.2-.88 2.56 0 4.68.893 6.36 2.68V105.8zm19.447 12.68V139h-7.24v-20.52h7.24zm-7.72-7.88c0-.56.106-1.08.32-1.56.213-.507.506-.947.88-1.32.373-.373.8-.667 1.28-.88a4.085 4.085 0 011.6-.32c.56 0 1.08.107 1.56.32.506.213.946.507 1.32.88.373.373.666.813.88 1.32.213.48.32 1 .32 1.56s-.107 1.093-.32 1.6c-.214.48-.507.907-.88 1.28a4.104 4.104 0 01-1.32.88c-.48.213-1 .32-1.56.32s-1.094-.107-1.6-.32a4.215 4.215 0 01-1.28-.88 4.197 4.197 0 01-.88-1.28 4.07 4.07 0 01-.32-1.6zm28.147 14.52c-1.253-.853-2.52-1.28-3.8-1.28-.693 0-1.346.12-1.96.36a4.725 4.725 0 00-1.56 1.04 4.684 4.684 0 00-1.08 1.56c-.24.587-.36 1.253-.36 2 0 .72.12 1.387.36 2a5.71 5.71 0 001.04 1.56c.454.427.987.76 1.6 1 .614.24 1.267.36 1.96.36 1.36 0 2.627-.467 3.8-1.4v6.16c-1.786.773-3.48 1.16-5.08 1.16-1.493 0-2.92-.253-4.28-.76a11.293 11.293 0 01-3.56-2.16 11.186 11.186 0 01-2.44-3.4c-.613-1.333-.92-2.813-.92-4.44 0-1.627.294-3.107.88-4.44.587-1.36 1.387-2.52 2.4-3.48a10.497 10.497 0 013.6-2.28c1.414-.56 2.92-.84 4.52-.84 1.76 0 3.387.373 4.88 1.12v6.16zm10.85 3.56c0 .667.12 1.293.36 1.88.24.56.56 1.053.96 1.48.426.427.92.76 1.48 1 .586.24 1.213.36 1.88.36.64 0 1.24-.12 1.8-.36a4.152 4.152 0 001.48-1c.426-.427.76-.92 1-1.48.266-.56.4-1.16.4-1.8 0-.64-.134-1.24-.4-1.8a4.58 4.58 0 00-1-1.52c-.4-.427-.894-.76-1.48-1a4.52 4.52 0 00-1.8-.36c-.667 0-1.294.12-1.88.36-.56.24-1.054.573-1.48 1-.4.427-.72.92-.96 1.48-.24.533-.36 1.12-.36 1.76zm9.12-10.2h7.28V139h-7.28v-2.28c-1.547 1.947-3.64 2.92-6.28 2.92-1.494 0-2.867-.267-4.12-.8a10.176 10.176 0 01-3.28-2.32 10.882 10.882 0 01-2.2-3.48c-.507-1.333-.76-2.787-.76-4.36 0-1.467.253-2.853.76-4.16.506-1.333 1.213-2.493 2.12-3.48a9.73 9.73 0 013.24-2.32c1.253-.587 2.64-.88 4.16-.88 2.56 0 4.68.893 6.36 2.68v-2.04zm12.207 0h7.24v3.36c.773-1.227 1.72-2.16 2.84-2.8 1.12-.667 2.426-1 3.92-1h.6c.24 0 .506.027.8.08v6.92c-.96-.48-2-.72-3.12-.72-1.68 0-2.947.507-3.8 1.52-.827.987-1.24 2.44-1.24 4.36v8.8h-7.24v-20.52zm33.867 7.28c-.24-1.013-.734-1.827-1.48-2.44-.747-.613-1.654-.92-2.72-.92-1.12 0-2.04.293-2.76.88-.694.587-1.134 1.413-1.32 2.48h8.28zm-8.48 4.2c0 3.12 1.466 4.68 4.4 4.68 1.573 0 2.76-.64 3.56-1.92h7c-1.414 4.693-4.947 7.04-10.6 7.04-1.734 0-3.32-.253-4.76-.76-1.44-.533-2.68-1.28-3.72-2.24a10.019 10.019 0 01-2.36-3.44c-.56-1.333-.84-2.827-.84-4.48 0-1.707.266-3.24.8-4.6.533-1.387 1.293-2.56 2.28-3.52.986-.96 2.173-1.693 3.56-2.2 1.413-.533 3-.8 4.76-.8 1.733 0 3.293.267 4.68.8 1.386.507 2.56 1.253 3.52 2.24.96.987 1.693 2.2 2.2 3.64.506 1.413.76 3.013.76 4.8v.76h-15.24zm19.018 5.2c0-.64.12-1.24.36-1.8a4.564 4.564 0 011-1.52c.427-.427.92-.76 1.48-1 .587-.24 1.2-.36 1.84-.36.64 0 1.24.12 1.8.36.587.24 1.093.573 1.52 1 .427.427.76.933 1 1.52.24.56.36 1.16.36 1.8 0 .64-.12 1.253-.36 1.84a4.679 4.679 0 01-1 1.48c-.427.427-.933.76-1.52 1-.56.24-1.16.36-1.8.36-.64 0-1.253-.12-1.84-.36a4.679 4.679 0 01-1.48-1 4.679 4.679 0 01-1-1.48c-.24-.587-.36-1.2-.36-1.84z" fill="#fff"/></svg>