<svg width="235" height="200" viewBox="0 0 235 200" fill="none" xmlns="http://www.w3.org/2000/svg"><path d="M37.41 22.266c0-.912.333-1.701 1-2.368.668-.668 1.465-1.002 2.393-1.002.928 0 1.725.334 2.392 1.002.668.667 1.001 1.464 1.001 2.392 0 .944-.333 1.75-1 2.417-.652.651-1.45.977-2.393.977-.96 0-1.766-.326-2.417-.977-.651-.651-.977-1.465-.977-2.441zm15.429 0c0-.912.334-1.701 1-2.368.668-.668 1.466-1.002 2.393-1.002.928 0 1.726.334 2.393 1.002.667.667 1.001 1.464 1.001 2.392 0 .944-.334 1.75-1.001 2.417-.651.651-1.449.977-2.393.977-.96 0-1.765-.326-2.417-.977-.65-.651-.976-1.465-.976-2.441zm15.43 0c0-.912.333-1.701 1-2.368.668-.668 1.465-1.002 2.393-1.002.928 0 1.725.334 2.393 1.002.667.667 1 1.464 1 2.392 0 .944-.333 1.75-1 2.417-.651.651-1.449.977-2.393.977-.96 0-1.766-.326-2.417-.977-.65-.651-.976-1.465-.976-2.441zm33.081-20.02v7.3c-1.254-1.53-2.377-2.58-3.37-3.15-.976-.585-2.124-.878-3.442-.878-2.067 0-3.784.724-5.151 2.172-1.368 1.449-2.051 3.264-2.051 5.445 0 2.23.66 4.06 1.978 5.493 1.334 1.432 3.035 2.148 5.102 2.148 1.318 0 2.482-.285 3.491-.854.977-.553 2.124-1.628 3.443-3.223v7.251c-2.23 1.156-4.46 1.734-6.69 1.734-3.678 0-6.754-1.189-9.228-3.565-2.474-2.392-3.711-5.363-3.711-8.911 0-3.548 1.253-6.543 3.76-8.984C87.987 1.782 91.063.562 94.709.562c2.344 0 4.557.561 6.641 1.684zm4.199 10.694c0-3.435 1.229-6.356 3.686-8.765 2.458-2.409 5.453-3.613 8.985-3.613 3.548 0 6.559 1.212 9.033 3.637 2.441 2.425 3.662 5.404 3.662 8.936 0 3.564-1.229 6.55-3.686 8.96-2.474 2.392-5.51 3.589-9.107 3.589-3.564 0-6.551-1.221-8.96-3.663-2.409-2.408-3.613-5.436-3.613-9.082zm5.615.097c0 2.376.635 4.256 1.904 5.64 1.302 1.4 3.02 2.1 5.152 2.1 2.148 0 3.865-.692 5.151-2.076 1.286-1.383 1.929-3.23 1.929-5.542 0-2.311-.643-4.158-1.929-5.542-1.302-1.4-3.019-2.1-5.151-2.1-2.1 0-3.801.7-5.103 2.1-1.302 1.4-1.953 3.207-1.953 5.42zM136.75 1.221h5.493v2.197c1.058-1.107 1.961-1.856 2.71-2.246.798-.407 1.799-.61 3.003-.61 2.686 0 4.81 1.171 6.372 3.515 1.725-2.344 4.061-3.515 7.007-3.515 5.355 0 8.032 3.247 8.032 9.74V25h-5.517V11.792c0-2.279-.277-3.89-.83-4.834-.57-.96-1.506-1.44-2.808-1.44-1.514 0-2.621.57-3.32 1.709-.684 1.139-1.026 2.97-1.026 5.493V25h-5.517V11.865c0-4.232-1.221-6.347-3.662-6.347-1.547 0-2.678.577-3.394 1.733-.7 1.156-1.05 2.978-1.05 5.469V25h-5.493V1.22zm38.428 11.719c0-3.435 1.229-6.356 3.686-8.765 2.458-2.409 5.453-3.613 8.985-3.613 3.548 0 6.559 1.212 9.033 3.637 2.441 2.425 3.662 5.404 3.662 8.936 0 3.564-1.229 6.55-3.687 8.96-2.474 2.392-5.509 3.589-9.106 3.589-3.564 0-6.551-1.221-8.96-3.663-2.409-2.408-3.613-5.436-3.613-9.082zm5.615.097c0 2.376.635 4.256 1.904 5.64 1.302 1.4 3.019 2.1 5.152 2.1 2.148 0 3.865-.692 5.151-2.076 1.286-1.383 1.929-3.23 1.929-5.542 0-2.311-.643-4.158-1.929-5.542-1.302-1.4-3.019-2.1-5.151-2.1-2.1 0-3.801.7-5.103 2.1-1.302 1.4-1.953 3.207-1.953 5.42zM39.899 57.247v7.299c-1.253-1.53-2.376-2.58-3.369-3.15-.976-.586-2.124-.878-3.442-.878-2.067 0-3.784.724-5.152 2.172-1.367 1.449-2.05 3.264-2.05 5.445 0 2.23.659 4.06 1.977 5.493 1.335 1.432 3.036 2.148 5.103 2.148 1.318 0 2.482-.284 3.491-.854.977-.553 2.124-1.628 3.442-3.223v7.251c-2.23 1.156-4.46 1.734-6.689 1.734-3.678 0-6.755-1.189-9.229-3.565-2.474-2.392-3.71-5.363-3.71-8.911 0-3.548 1.253-6.543 3.76-8.984 2.506-2.442 5.582-3.662 9.228-3.662 2.343 0 4.557.561 6.64 1.684zm10.816-1.026v13.647c0 3.939 1.554 5.908 4.663 5.908s4.663-1.969 4.663-5.908V56.221h5.493v13.77c0 1.903-.236 3.547-.708 4.93-.456 1.238-1.245 2.353-2.368 3.346-1.855 1.61-4.215 2.417-7.08 2.417-2.848 0-5.2-.806-7.056-2.417-1.14-.993-1.945-2.108-2.417-3.345-.456-1.107-.683-2.75-.683-4.932V56.22h5.493zm27.246 0V80h-5.493V56.22h5.493zm-6.323-9.888c0-.96.35-1.79 1.05-2.49.7-.7 1.538-1.05 2.514-1.05.993 0 1.84.35 2.54 1.05.7.683 1.049 1.522 1.049 2.514 0 .993-.35 1.84-1.05 2.54-.683.7-1.522 1.05-2.514 1.05-.993 0-1.84-.35-2.54-1.05-.7-.7-1.05-1.555-1.05-2.564zm30.81-7.568h5.518V80h-5.518v-2.49c-2.164 2.116-4.614 3.174-7.348 3.174-3.256 0-5.957-1.189-8.106-3.565-2.132-2.425-3.198-5.452-3.198-9.082 0-3.548 1.066-6.51 3.198-8.887 2.116-2.392 4.777-3.588 7.984-3.588 2.783 0 5.273 1.139 7.47 3.418V38.764zM89.411 68.037c0 2.279.61 4.134 1.831 5.566 1.253 1.45 2.832 2.173 4.736 2.173 2.035 0 3.679-.7 4.932-2.1 1.253-1.448 1.88-3.287 1.88-5.517 0-2.23-.627-4.069-1.88-5.517-1.253-1.416-2.88-2.124-4.883-2.124-1.888 0-3.466.716-4.736 2.148-1.253 1.449-1.88 3.239-1.88 5.371zm43.018-11.816h5.517V80h-5.517v-2.49c-2.263 2.116-4.696 3.174-7.3 3.174-3.288 0-6.006-1.189-8.154-3.565-2.133-2.425-3.199-5.452-3.199-9.082 0-3.564 1.066-6.535 3.199-8.911 2.132-2.376 4.801-3.564 8.007-3.564 2.767 0 5.249 1.139 7.447 3.418v-2.76zm-13.037 11.816c0 2.279.61 4.134 1.831 5.566 1.253 1.45 2.832 2.173 4.736 2.173 2.034 0 3.678-.7 4.932-2.1 1.253-1.448 1.88-3.287 1.88-5.517 0-2.23-.627-4.069-1.88-5.517-1.254-1.416-2.881-2.124-4.883-2.124-1.888 0-3.467.716-4.737 2.148-1.253 1.449-1.879 3.239-1.879 5.371zm39.306-7.764l-4.541 2.417c-.716-1.464-1.603-2.197-2.661-2.197-.504 0-.936.171-1.294.513-.358.325-.537.749-.537 1.27 0 .91 1.058 1.814 3.174 2.71 2.913 1.253 4.875 2.408 5.884 3.466 1.009 1.058 1.513 2.482 1.513 4.273 0 2.294-.846 4.215-2.539 5.761-1.644 1.465-3.629 2.198-5.957 2.198-3.987 0-6.811-1.945-8.471-5.835l4.687-2.173c.651 1.14 1.148 1.863 1.489 2.173.668.618 1.465.927 2.393.927 1.855 0 2.783-.846 2.783-2.539 0-.976-.716-1.888-2.148-2.734a77.458 77.458 0 00-1.661-.806c-.553-.26-1.114-.529-1.684-.805-1.595-.782-2.718-1.563-3.369-2.344-.83-.993-1.245-2.27-1.245-3.833 0-2.067.708-3.776 2.124-5.127 1.448-1.351 3.206-2.026 5.273-2.026 3.044 0 5.306 1.57 6.787 4.711zm27.588 1.075V80h-5.493V61.348h-2.344V56.22h2.344v-8.716h5.493v8.716h4.273v5.127h-4.273zm13.501-5.127v13.647c0 3.939 1.554 5.908 4.663 5.908s4.663-1.969 4.663-5.908V56.221h5.493v13.77c0 1.903-.236 3.547-.708 4.93-.455 1.238-1.245 2.353-2.368 3.346-1.855 1.61-4.215 2.417-7.08 2.417-2.848 0-5.2-.806-7.055-2.417-1.14-.993-1.945-2.108-2.417-3.345-.456-1.107-.684-2.75-.684-4.932V56.22h5.493zM11.052 122.71V139H2.907v-16.29h-2.7v-6.795h2.7v-6.93h8.145v6.93h4.635v6.795h-4.635zm15.696 4.68c0 .75.135 1.455.405 2.115.27.63.63 1.185 1.08 1.665.48.48 1.035.855 1.665 1.125.66.27 1.365.405 2.115.405.72 0 1.395-.135 2.025-.405a4.669 4.669 0 001.665-1.125c.48-.48.855-1.035 1.125-1.665.3-.63.45-1.305.45-2.025s-.15-1.395-.45-2.025a5.14 5.14 0 00-1.125-1.71 4.669 4.669 0 00-1.665-1.125 5.086 5.086 0 00-2.025-.405c-.75 0-1.455.135-2.115.405-.63.27-1.185.645-1.665 1.125-.45.48-.81 1.035-1.08 1.665a4.77 4.77 0 00-.405 1.98zm10.26-11.475h8.19V139h-8.19v-2.565c-1.74 2.19-4.095 3.285-7.065 3.285-1.68 0-3.225-.3-4.635-.9-1.41-.63-2.64-1.5-3.69-2.61-1.05-1.11-1.875-2.415-2.475-3.915-.57-1.5-.855-3.135-.855-4.905 0-1.65.285-3.21.855-4.68.57-1.5 1.365-2.805 2.385-3.915a10.968 10.968 0 013.645-2.61c1.41-.66 2.97-.99 4.68-.99 2.88 0 5.265 1.005 7.155 3.015v-2.295zm13.733 0h8.145v3.78c.87-1.38 1.935-2.43 3.195-3.15 1.26-.75 2.73-1.125 4.41-1.125h.675c.27 0 .57.03.9.09v7.785a7.739 7.739 0 00-3.51-.81c-1.89 0-3.315.57-4.275 1.71-.93 1.11-1.395 2.745-1.395 4.905v9.9h-8.145v-23.085zm29.107 0v34.605h-8.145v-34.605h8.145zm-8.685-8.865c0-.63.12-1.215.36-1.755a4.6 4.6 0 01.99-1.485c.42-.42.9-.75 1.44-.99.57-.24 1.17-.36 1.8-.36.63 0 1.215.12 1.755.36a4.6 4.6 0 011.485.99c.42.42.75.915.99 1.485.24.54.36 1.125.36 1.755 0 .63-.12 1.23-.36 1.8-.24.54-.57 1.02-.99 1.44a4.6 4.6 0 01-1.485.99c-.54.24-1.125.36-1.755.36-.63 0-1.23-.12-1.8-.36-.54-.24-1.02-.57-1.44-.99-.42-.42-.75-.9-.99-1.44-.24-.57-.36-1.17-.36-1.8zm31.126 17.055c-.27-1.14-.825-2.055-1.665-2.745-.84-.69-1.86-1.035-3.06-1.035-1.26 0-2.295.33-3.105.99-.78.66-1.275 1.59-1.485 2.79h9.315zm-9.54 4.725c0 3.51 1.65 5.265 4.95 5.265 1.77 0 3.105-.72 4.005-2.16h7.875c-1.59 5.28-5.565 7.92-11.925 7.92-1.95 0-3.735-.285-5.355-.855-1.62-.6-3.015-1.44-4.185-2.52a11.278 11.278 0 01-2.655-3.87c-.63-1.5-.945-3.18-.945-5.04 0-1.92.3-3.645.9-5.175.6-1.56 1.455-2.88 2.565-3.96 1.11-1.08 2.445-1.905 4.005-2.475 1.59-.6 3.375-.9 5.355-.9 1.95 0 3.705.3 5.265.9 1.56.57 2.88 1.41 3.96 2.52s1.905 2.475 2.475 4.095c.57 1.59.855 3.39.855 5.4v.855H92.749zm31.198-6.12V139h-8.145v-16.29h-2.7v-6.795h2.7v-6.93h8.145v6.93h4.635v6.795h-4.635zm15.697 4.68c0 .75.135 1.455.405 2.115.27.63.63 1.185 1.08 1.665.48.48 1.035.855 1.665 1.125.66.27 1.365.405 2.115.405.72 0 1.395-.135 2.025-.405a4.669 4.669 0 001.665-1.125c.48-.48.855-1.035 1.125-1.665.3-.63.45-1.305.45-2.025s-.15-1.395-.45-2.025a5.14 5.14 0 00-1.125-1.71 4.669 4.669 0 00-1.665-1.125 5.086 5.086 0 00-2.025-.405c-.75 0-1.455.135-2.115.405-.63.27-1.185.645-1.665 1.125-.45.48-.81 1.035-1.08 1.665a4.77 4.77 0 00-.405 1.98zm10.26-11.475h8.19V139h-8.19v-2.565c-1.74 2.19-4.095 3.285-7.065 3.285-1.68 0-3.225-.3-4.635-.9-1.41-.63-2.64-1.5-3.69-2.61-1.05-1.11-1.875-2.415-2.475-3.915-.57-1.5-.855-3.135-.855-4.905 0-1.65.285-3.21.855-4.68.57-1.5 1.365-2.805 2.385-3.915a10.968 10.968 0 013.645-2.61c1.41-.66 2.97-.99 4.68-.99 2.88 0 5.265 1.005 7.155 3.015v-2.295zm36.586 11.475c0 .75.135 1.455.405 2.115.27.63.63 1.185 1.08 1.665.48.48 1.035.855 1.665 1.125.66.27 1.365.405 2.115.405.72 0 1.395-.135 2.025-.405a4.669 4.669 0 001.665-1.125c.48-.48.855-1.035 1.125-1.665.3-.63.45-1.305.45-2.025s-.15-1.395-.45-2.025a5.14 5.14 0 00-1.125-1.71 4.669 4.669 0 00-1.665-1.125 5.086 5.086 0 00-2.025-.405c-.72 0-1.41.135-2.07.405-.63.27-1.185.645-1.665 1.125a6.5 6.5 0 00-1.125 1.665 4.77 4.77 0 00-.405 1.98zm10.26-25.74h8.19V139h-8.19v-2.565c-1.74 2.19-4.095 3.285-7.065 3.285-1.68 0-3.225-.315-4.635-.945-1.41-.63-2.64-1.5-3.69-2.61-1.05-1.11-1.875-2.415-2.475-3.915-.57-1.5-.855-3.12-.855-4.86 0-1.65.27-3.21.81-4.68.57-1.5 1.365-2.805 2.385-3.915a10.968 10.968 0 013.645-2.61c1.44-.66 3.015-.99 4.725-.99 2.88 0 5.265 1.005 7.155 3.015v-16.56zm30.607 22.455c-.27-1.14-.825-2.055-1.665-2.745-.84-.69-1.86-1.035-3.06-1.035-1.26 0-2.295.33-3.105.99-.78.66-1.275 1.59-1.485 2.79h9.315zm-9.54 4.725c0 3.51 1.65 5.265 4.95 5.265 1.77 0 3.105-.72 4.005-2.16h7.875c-1.59 5.28-5.565 7.92-11.925 7.92-1.95 0-3.735-.285-5.355-.855-1.62-.6-3.015-1.44-4.185-2.52a11.278 11.278 0 01-2.655-3.87c-.63-1.5-.945-3.18-.945-5.04 0-1.92.3-3.645.9-5.175.6-1.56 1.455-2.88 2.565-3.96 1.11-1.08 2.445-1.905 4.005-2.475 1.59-.6 3.375-.9 5.355-.9 1.95 0 3.705.3 5.265.9 1.56.57 2.88 1.41 3.96 2.52s1.905 2.475 2.475 4.095c.57 1.59.855 3.39.855 5.4v.855h-17.145zM41.092 180.997c-1.535-1.045-3.087-1.568-4.655-1.568-.85 0-1.65.147-2.401.441a5.772 5.772 0 00-1.911 1.274 5.725 5.725 0 00-1.323 1.911c-.294.719-.441 1.535-.441 2.45 0 .882.147 1.699.44 2.45a6.97 6.97 0 001.275 1.911 6.03 6.03 0 001.96 1.225 6.53 6.53 0 002.4.441c1.667 0 3.218-.572 4.656-1.715v7.546c-2.189.947-4.263 1.421-6.223 1.421-1.83 0-3.577-.31-5.243-.931a13.827 13.827 0 01-4.361-2.646 13.685 13.685 0 01-2.99-4.165c-.75-1.633-1.126-3.446-1.126-5.439 0-1.993.36-3.806 1.078-5.439.718-1.666 1.698-3.087 2.94-4.263 1.241-1.209 2.711-2.14 4.41-2.793 1.731-.686 3.577-1.029 5.537-1.029 2.156 0 4.149.457 5.978 1.372v7.546zm5.058-8.134h8.87v4.116c.947-1.503 2.106-2.646 3.478-3.43 1.372-.817 2.973-1.225 4.802-1.225h.735c.294 0 .621.033.98.098v8.477c-1.176-.588-2.45-.882-3.822-.882-2.058 0-3.61.621-4.655 1.862-1.012 1.209-1.519 2.989-1.519 5.341V198H46.15v-25.137zm41.488 8.918c-.294-1.241-.899-2.238-1.813-2.989-.915-.751-2.026-1.127-3.332-1.127-1.372 0-2.5.359-3.381 1.078-.85.719-1.389 1.731-1.617 3.038h10.143zm-10.388 5.145c0 3.822 1.796 5.733 5.39 5.733 1.927 0 3.38-.784 4.36-2.352h8.576c-1.732 5.749-6.06 8.624-12.985 8.624-2.124 0-4.067-.31-5.831-.931-1.764-.653-3.283-1.568-4.557-2.744a12.284 12.284 0 01-2.891-4.214c-.686-1.633-1.03-3.463-1.03-5.488 0-2.091.327-3.969.98-5.635.654-1.699 1.585-3.136 2.794-4.312 1.208-1.176 2.662-2.074 4.36-2.695 1.732-.653 3.676-.98 5.832-.98 2.123 0 4.034.327 5.733.98 1.698.621 3.136 1.535 4.312 2.744 1.176 1.209 2.074 2.695 2.695 4.459.62 1.731.93 3.691.93 5.88v.931H77.25zm13.377-25.284l-8.526 7.546-4.116-3.038 7.007-8.575 5.635 4.067zm18.593 23.716c0 .817.147 1.584.441 2.303.294.686.686 1.29 1.176 1.813a5.732 5.732 0 001.813 1.225 6.027 6.027 0 002.303.441c.784 0 1.519-.147 2.205-.441a5.077 5.077 0 001.813-1.225 5.732 5.732 0 001.225-1.813c.327-.686.49-1.421.49-2.205s-.163-1.519-.49-2.205a5.593 5.593 0 00-1.225-1.862 5.077 5.077 0 00-1.813-1.225 5.538 5.538 0 00-2.205-.441c-.784 0-1.535.147-2.254.441a5.732 5.732 0 00-1.813 1.225 7.092 7.092 0 00-1.225 1.813 5.192 5.192 0 00-.441 2.156zm11.172-28.028h8.918V198h-8.918v-2.793c-1.894 2.385-4.459 3.577-7.693 3.577-1.829 0-3.511-.343-5.047-1.029a12.49 12.49 0 01-4.018-2.842c-1.143-1.209-2.041-2.63-2.695-4.263-.62-1.633-.931-3.397-.931-5.292 0-1.797.294-3.495.882-5.096.621-1.633 1.487-3.054 2.597-4.263a11.945 11.945 0 013.969-2.842c1.568-.719 3.283-1.078 5.145-1.078 3.136 0 5.733 1.094 7.791 3.283V157.33zm23.823 15.533V198h-8.869v-25.137h8.869zm-9.457-9.653c0-.686.13-1.323.392-1.911.261-.621.62-1.16 1.078-1.617.457-.457.98-.817 1.568-1.078a5.003 5.003 0 011.96-.392c.686 0 1.323.131 1.911.392.62.261 1.159.621 1.617 1.078.457.457.816.996 1.078 1.617.261.588.392 1.225.392 1.911 0 .686-.131 1.339-.392 1.96a5.182 5.182 0 01-1.078 1.568 5.024 5.024 0 01-1.617 1.078 4.657 4.657 0 01-1.911.392c-.686 0-1.34-.131-1.96-.392a5.164 5.164 0 01-1.568-1.078 5.146 5.146 0 01-1.078-1.568 4.99 4.99 0 01-.392-1.96zm25.415 17.052V198h-8.869v-17.738h-2.94v-7.399h2.94v-7.546h8.869v7.546h5.047v7.399h-5.047zm17.191 5.047c0 .849.147 1.633.441 2.352.327.686.735 1.29 1.225 1.813a5.732 5.732 0 001.813 1.225c.719.294 1.47.441 2.254.441s1.519-.147 2.205-.441a5.077 5.077 0 001.813-1.225 5.732 5.732 0 001.225-1.813c.327-.719.49-1.486.49-2.303 0-.784-.163-1.519-.49-2.205a5.593 5.593 0 00-1.225-1.862 5.077 5.077 0 00-1.813-1.225 5.538 5.538 0 00-2.205-.441c-.784 0-1.535.147-2.254.441a5.732 5.732 0 00-1.813 1.225 7.092 7.092 0 00-1.225 1.813 5.538 5.538 0 00-.441 2.205zm-9.359-.098c0-1.862.376-3.593 1.127-5.194a12.506 12.506 0 013.136-4.214c1.34-1.209 2.924-2.156 4.753-2.842 1.862-.686 3.888-1.029 6.076-1.029 2.156 0 4.149.343 5.978 1.029 1.862.653 3.463 1.584 4.802 2.793a12.085 12.085 0 013.185 4.263c.752 1.633 1.127 3.446 1.127 5.439 0 1.993-.392 3.822-1.176 5.488a13 13 0 01-3.136 4.263c-1.339 1.176-2.956 2.091-4.851 2.744-1.862.653-3.887.98-6.076.98-2.156 0-4.148-.327-5.978-.98-1.829-.653-3.413-1.584-4.753-2.793a13.217 13.217 0 01-3.087-4.312c-.751-1.699-1.127-3.577-1.127-5.635zm34.849 8.085c0-.784.147-1.519.441-2.205a5.593 5.593 0 011.225-1.862 5.732 5.732 0 011.813-1.225 5.898 5.898 0 012.254-.441c.784 0 1.519.147 2.205.441a5.593 5.593 0 011.862 1.225 5.593 5.593 0 011.225 1.862c.294.686.441 1.421.441 2.205s-.147 1.535-.441 2.254a5.732 5.732 0 01-1.225 1.813 5.593 5.593 0 01-1.862 1.225 5.538 5.538 0 01-2.205.441 5.898 5.898 0 01-2.254-.441 5.732 5.732 0 01-1.813-1.225 5.732 5.732 0 01-1.225-1.813 5.898 5.898 0 01-.441-2.254z" fill="#66124B"/></svg>