<svg width="970" height="23" viewBox="0 0 970 23" fill="none" xmlns="http://www.w3.org/2000/svg"><path fill="#F3C501" d="M0 0h970v24H0z"/><path d="M58.788 16.168c-2.296 0-4.046-1.274-4.046-3.766V6.928h2.66v5.32c0 1.092.63 1.512 1.386 1.512.756 0 1.386-.42 1.386-1.512v-5.32h2.66v5.474c0 2.492-1.75 3.766-4.046 3.766zM68.82 16V6.928h2.31l2.884 4.018c.21.28.406.686.406.686V6.928h2.66V16h-2.31l-2.884-3.948a4.971 4.971 0 01-.406-.686V16h-2.66zm21.867 0V6.928h2.268l1.778 2.548a73.8 73.8 0 01.77 1.176s.476-.742.77-1.176l1.778-2.548h2.268V16h-2.66v-4.592s-.462.742-.714 1.092l-1.442 2.016-1.456-2.016c-.252-.35-.7-1.064-.7-1.064V16h-2.66zm15.649 0V6.928h7.21v2.254h-4.55v1.106h4.368v2.226h-4.368v1.232h4.718V16h-7.378zm12.916 0V6.928h2.31l2.884 4.018c.21.28.406.686.406.686V6.928h2.66V16h-2.31l-2.884-3.948a4.971 4.971 0 01-.406-.686V16h-2.66zm17.769.168c-2.548 0-3.542-.98-3.822-1.092l.868-2.072c.7.392 1.498.826 2.954.826.28 0 1.092-.084 1.092-.56 0-.434-.574-.504-1.092-.63-1.75-.392-3.584-1.064-3.584-3.108 0-1.89 1.722-2.744 3.584-2.744 1.498 0 2.59.378 3.514.924l-.896 2.058c-.532-.364-1.736-.658-2.618-.658-.224 0-.812.056-.812.42 0 .322.336.462.812.574 1.358.294 3.864.84 3.864 3.164 0 2.072-1.988 2.898-3.864 2.898zm9.004-.168l3.668-9.072h2.744L156.105 16h-2.716l-.42-1.176h-3.808l-.42 1.176h-2.716zm3.85-3.22h2.38l-1.078-3.066c-.084-.224-.098-.308-.112-.364 0 0-.028.126-.112.364l-1.078 3.066zm14.69 3.388c-1.386 0-2.814-.532-3.556-2.058l1.764-1.47c.434.896 1.008 1.12 1.806 1.12.938 0 1.456-.56 1.456-1.554V6.928h2.66v5.194c0 2.618-1.47 4.046-4.13 4.046zM174.688 16V6.928h7.21v2.254h-4.55v1.106h4.368v2.226h-4.368v1.232h4.718V16h-7.378zm25.077.168c-2.912 0-4.858-2.086-4.858-4.704 0-2.59 1.946-4.676 4.858-4.676s4.872 2.086 4.872 4.676c0 2.618-1.96 4.704-4.872 4.704zm0-2.408c1.232 0 2.1-.952 2.1-2.296 0-1.316-.868-2.268-2.1-2.268-1.148 0-2.086.952-2.086 2.268 0 1.344.868 2.296 2.086 2.296zM210.372 16V6.928h7v2.254h-4.34v1.106h3.794v2.226h-3.794V16h-2.66zm12.314 0V6.928h2.66V16h-2.66zm13.199.168c-2.884 0-4.802-2.086-4.802-4.704 0-2.59 1.918-4.676 4.802-4.676 1.386 0 2.632.49 3.458 1.316l-1.75 1.806c-.644-.658-1.162-.714-1.596-.714-1.176 0-2.142.952-2.142 2.268 0 1.344.896 2.296 2.142 2.296.742 0 1.428-.336 1.932-1.008l1.694 1.862c-.91 1.008-2.184 1.554-3.738 1.554zm9.173-.168V6.928h2.66V16h-2.66zm8.019 0l3.668-9.072h2.744L263.157 16h-2.716l-.42-1.176h-3.808l-.42 1.176h-2.716zm3.85-3.22h2.38l-1.078-3.066c-.084-.224-.098-.308-.112-.364 0 0-.028.126-.112.364l-1.078 3.066zM268.524 16V6.928h2.66v6.818h4.83V16h-7.49zm20.677 0V6.928h3.78c3.038 0 4.942 2.058 4.942 4.536 0 2.478-1.904 4.536-4.942 4.536h-3.78zm2.66-2.254h1.022c1.358 0 2.226-.966 2.226-2.282 0-1.302-.868-2.282-2.226-2.282h-1.022v4.564zm11.8 2.254V6.928h7.21v2.254h-4.55v1.106h4.368v2.226h-4.368v1.232h4.718V16h-7.378zm20.499 0V6.928h2.268l1.778 2.548a73.8 73.8 0 01.77 1.176s.476-.742.77-1.176l1.778-2.548h2.268V16h-2.66v-4.592s-.462.742-.714 1.092l-1.442 2.016-1.456-2.016c-.252-.35-.7-1.064-.7-1.064V16h-2.66zm15.65 0V6.928h7.21v2.254h-4.55v1.106h4.368v2.226h-4.368v1.232h4.718V16h-7.378zm12.916 0V6.928h3.78c3.038 0 4.942 2.058 4.942 4.536 0 2.478-1.904 4.536-4.942 4.536h-3.78zm2.66-2.254h1.022c1.358 0 2.226-.966 2.226-2.282 0-1.302-.868-2.282-2.226-2.282h-1.022v4.564zm11.8 2.254V6.928h2.66V16h-2.66zm13.199.168c-2.884 0-4.802-2.086-4.802-4.704 0-2.59 1.918-4.676 4.802-4.676 1.386 0 2.632.49 3.458 1.316l-1.75 1.806c-.644-.658-1.162-.714-1.596-.714-1.176 0-2.142.952-2.142 2.268 0 1.344.896 2.296 2.142 2.296.742 0 1.428-.336 1.932-1.008l1.694 1.862c-.91 1.008-2.184 1.554-3.738 1.554zm8.652-.168l3.668-9.072h2.744L399.117 16h-2.716l-.42-1.176h-3.808l-.42 1.176h-2.716zm3.85-3.22h2.38l-1.078-3.066c-.084-.224-.098-.308-.112-.364 0 0-.028.126-.112.364l-1.078 3.066zM404.483 16V6.928h4.004c2.786 0 4.214 1.61 4.214 3.584 0 1.05-.476 2.128-1.428 2.786L412.967 16h-3.038l-1.036-1.946c-.28.028-.434.042-.658.042h-1.092V16h-2.66zm2.66-4.158h1.372c.826 0 1.372-.602 1.372-1.33 0-.742-.56-1.33-1.358-1.33h-1.386v2.66zM418.438 16V6.928h7.21v2.254h-4.55v1.106h4.368v2.226h-4.368v1.232h4.718V16h-7.378z" fill="#2B3D51"/></svg>