<svg width="330" height="44" viewBox="0 0 330 44" fill="none" xmlns="http://www.w3.org/2000/svg"><path d="M7.724 31.096c0 2.244-1.232 3.432-3.74 3.432C1.432 34.528.2 33.384.2 31.096c0-2.244 1.232-3.432 3.784-3.432 2.464 0 3.74 1.188 3.74 3.432zm12.385 0c0 2.244-1.232 3.432-3.74 3.432-2.552 0-3.784-1.144-3.784-3.432 0-2.244 1.232-3.432 3.784-3.432 2.464 0 3.74 1.188 3.74 3.432zm12.386 0c0 2.244-1.232 3.432-3.74 3.432-2.552 0-3.784-1.144-3.784-3.432 0-2.244 1.232-3.432 3.784-3.432 2.464 0 3.74 1.188 3.74 3.432zm20.04-11.308c0-2.112-.131-3.872-2.331-3.872-1.628 0-3.652.924-4.576 1.628v11.792c0 .704.044.792.704.88l2.112.308V34H36.3v-3.52l1.98-.264c.616-.088.704-.22.704-.88V16.4c0-.484-.132-.792-.572-.924l-2.376-.836.528-3.564h7.7l.352 2.288.176.088c2.2-1.628 4.752-2.816 7.744-2.816 4.796 0 6.644 2.64 6.644 7.48v11.22c0 .704.044.792.704.88l2.2.308V34h-9.548V19.788zm23.014 14.74c-8.052 0-11.308-4.928-11.308-11.836 0-7.304 3.828-12.056 11.88-12.056 8.14 0 11.308 4.84 11.308 11.572 0 7.48-3.784 12.32-11.88 12.32zm.308-4.62c2.86 0 4.62-1.98 4.62-7.48 0-5.192-1.584-7.04-4.444-7.04-2.904 0-4.84 1.804-4.84 7.084 0 5.324 1.716 7.436 4.664 7.436zm23.68.528l1.981-.264c.616-.088.704-.22.704-.88V16.4c0-.484-.132-.792-.572-.924l-2.376-.836.484-3.564h7.744l.528 3.52h.264c1.452-2.244 3.388-3.96 6.204-3.96 1.012 0 3.036.176 3.828.396v8.008l-5.28-.176-.44-2.332c-.088-.396-.22-.484-.572-.484-1.144 0-2.508.968-3.168 1.54v11.66c0 .704.044.836.704.88l4.356.352V34H99.538v-3.564zm41.483 1.848c-2.728 1.32-5.72 2.244-9.02 2.244-8.492 0-11.396-5.28-11.396-12.144 0-7.964 4.884-11.748 10.912-11.748 5.808 0 9.68 3.036 9.68 10.648 0 .528-.044 2.068-.088 2.948h-13.464c.22 3.124 1.584 5.192 5.192 5.192 1.716 0 3.564-.396 6.556-1.496l1.628 4.356zm-6.336-12.232c-.044-3.696-1.496-4.664-3.3-4.664-1.892 0-3.432 1.056-3.696 4.664h6.996zm22.463-4.356c-.088-.396-.132-.528-.44-.616-.572-.176-1.628-.352-2.816-.352-2.2 0-3.432.836-3.432 2.244 0 1.804 2.42 2.2 5.104 2.816 3.476.792 7.392 2.024 7.392 7.172 0 5.368-4.356 7.568-9.944 7.568-4.004 0-7.92-1.056-8.712-1.584v-6.38l4.708.352.44 2.508c.088.396.132.528.528.66.528.176 1.716.44 3.388.44 2.332 0 3.652-.66 3.652-2.288 0-1.76-1.76-2.288-4.004-2.684-3.696-.66-8.536-1.452-8.536-7.216 0-5.456 4.664-7.7 9.724-7.7 3.476 0 6.864.792 8.096 1.276v6.38l-4.708-.308-.44-2.288zm8.55 24.112l1.76-.264c.616-.088.792-.264.792-.924V16.4c0-.484-.088-.748-.572-.924l-2.332-.836.484-3.564h7.744l.396 2.244.22.088c2.112-1.716 4.972-2.772 7.48-2.772 4.928 0 8.448 3.08 8.448 11.264 0 5.28-1.804 12.628-9.064 12.628-2.288 0-4.356-.748-6.204-2.2v6.248c0 .704.044.836.704.88l4.488.396v3.476h-14.344v-3.52zm9.152-12.1c.968.836 2.508 1.672 4.136 1.672 2.948 0 4.18-2.816 4.18-7.128 0-4.532-1.54-6.38-3.74-6.38-1.848 0-3.608.924-4.576 1.584v10.252zm29.539 6.82c-8.052 0-11.308-4.928-11.308-11.836 0-7.304 3.828-12.056 11.88-12.056 8.14 0 11.308 4.84 11.308 11.572 0 7.48-3.784 12.32-11.88 12.32zm.308-4.62c2.86 0 4.62-1.98 4.62-7.48 0-5.192-1.584-7.04-4.444-7.04-2.904 0-4.84 1.804-4.84 7.084 0 5.324 1.716 7.436 4.664 7.436zm30.454-10.12c0-2.112-.132-3.872-2.332-3.872-1.628 0-3.652.924-4.576 1.628v11.792c0 .704.044.792.704.88l2.112.308V34h-12.144v-3.52l1.98-.264c.616-.088.704-.22.704-.88V16.4c0-.484-.132-.792-.572-.924l-2.376-.836.528-3.564h7.7l.352 2.288.176.088c2.2-1.628 4.752-2.816 7.744-2.816 4.796 0 6.644 2.64 6.644 7.48v11.22c0 .704.044.792.704.88l2.2.308V34h-9.548V19.788zm28.117 11.748l-.308-.044c-1.848 1.804-4.004 3.036-7.216 3.036-5.192 0-8.536-3.3-8.536-11.704 0-8.844 4.444-12.188 9.328-12.188 2.552 0 4.532.88 6.204 2.112V6.06c0-.44-.176-.748-.572-.88l-2.42-.836.484-3.564h8.844v28.6c0 .66.044.748.704.836l2.112.308V34h-8.184l-.44-2.464zm-.792-14.476c-1.1-.748-2.508-1.32-3.784-1.32-3.256 0-4.532 3.036-4.532 6.952 0 4.268 1.232 6.644 4.004 6.644 1.496 0 3.124-.88 4.312-1.892V17.06zm26.018 14.564l-.22-.044c-1.672 1.628-3.872 2.948-7.392 2.948-5.544 0-6.424-3.784-6.424-6.512 0-4.4 2.684-6.38 8.228-6.776l5.06-.352v-2.42c0-2.068-.22-3.476-2.948-3.476-2.112 0-3.212.308-3.212 2.948l-6.204-.528c0-5.94 5.412-6.776 9.46-6.776 6.688 0 9.372 1.804 9.372 7.964v10.692c0 .704.044.792.704.88l2.112.352V34h-8.096l-.44-2.376zm-3.74-6.864c-2.596.176-3.52.836-3.52 2.596 0 1.76 1.056 2.42 2.508 2.42 1.496 0 2.992-.836 4.004-1.584V24.54l-2.992.22zm27.359-9.064c-.088-.396-.132-.528-.44-.616-.572-.176-1.628-.352-2.816-.352-2.2 0-3.432.836-3.432 2.244 0 1.804 2.42 2.2 5.104 2.816 3.476.792 7.392 2.024 7.392 7.172 0 5.368-4.356 7.568-9.944 7.568-4.004 0-7.92-1.056-8.712-1.584v-6.38l4.708.352.44 2.508c.088.396.132.528.528.66.528.176 1.716.44 3.388.44 2.332 0 3.652-.66 3.652-2.288 0-1.76-1.76-2.288-4.004-2.684-3.696-.66-8.536-1.452-8.536-7.216 0-5.456 4.664-7.7 9.724-7.7 3.476 0 6.864.792 8.096 1.276v6.38l-4.708-.308-.44-2.288zm17.173 15.4c0 2.244-1.232 3.432-3.74 3.432-2.552 0-3.784-1.144-3.784-3.432 0-2.244 1.232-3.432 3.784-3.432 2.464 0 3.74 1.188 3.74 3.432z" fill="#fff"/></svg>