<svg width="306" height="61" viewBox="0 0 306 61" fill="none" xmlns="http://www.w3.org/2000/svg"><rect width="306" height="61" rx="3" fill="#F3C501"/><path d="M25.163 39.095v-16.33h7.498a5.06 5.06 0 012.208.483 5.462 5.462 0 011.748 1.31c.49.537.866 1.143 1.127 1.818.276.674.414 1.357.414 2.047 0 .628-.092 1.234-.276 1.817a5.661 5.661 0 01-.805 1.61 5.72 5.72 0 01-1.265 1.242l3.45 6.003H34.34l-2.875-5.014h-1.817v5.014h-4.485zm4.485-8.924h2.829c.184 0 .36-.07.529-.207.168-.138.306-.338.414-.598.122-.26.184-.575.184-.943 0-.384-.07-.698-.207-.943a1.464 1.464 0 00-.483-.598.918.918 0 00-.552-.207h-2.714v3.496zm24.513 5.014v3.91H42.523v-16.33h11.431v3.91h-6.946v2.3h5.934v3.634h-5.934v2.576h7.153zm3.926 3.91v-16.33h7.038a5.06 5.06 0 012.208.483 5.46 5.46 0 011.748 1.31c.49.537.866 1.143 1.127 1.818.276.674.414 1.357.414 2.047 0 .966-.23 1.878-.69 2.737a5.683 5.683 0 01-1.886 2.116c-.797.536-1.733.805-2.806.805h-2.668v5.014h-4.485zm4.485-8.924h2.369a.97.97 0 00.529-.161c.169-.108.307-.292.414-.552.123-.26.184-.606.184-1.035 0-.46-.07-.813-.207-1.058-.123-.26-.284-.437-.483-.53a1.088 1.088 0 00-.552-.16h-2.254v3.496zm19.045 9.062c-1.242 0-2.369-.23-3.381-.69a8.554 8.554 0 01-2.622-1.886 9.008 9.008 0 01-1.679-2.668 8.516 8.516 0 01-.575-3.082c0-1.089.207-2.124.621-3.105a8.558 8.558 0 011.725-2.622 8.207 8.207 0 012.645-1.84c1.027-.445 2.147-.667 3.358-.667 1.242 0 2.369.237 3.381.713a7.823 7.823 0 012.599 1.886 8.568 8.568 0 011.656 2.69 7.995 7.995 0 01-.023 6.119 8.297 8.297 0 01-1.725 2.645 8.426 8.426 0 01-2.622 1.84c-1.012.444-2.131.667-3.358.667zm-3.703-8.28c0 .552.077 1.088.23 1.61.153.506.383.966.69 1.38.307.398.69.72 1.15.966.475.23 1.035.345 1.679.345.644 0 1.204-.123 1.679-.368a3.14 3.14 0 001.15-.99c.307-.429.529-.896.667-1.402a5.598 5.598 0 000-3.174 4.201 4.201 0 00-.69-1.357 3.135 3.135 0 00-1.173-.966c-.475-.23-1.027-.345-1.656-.345-.644 0-1.204.122-1.679.368a3.41 3.41 0 00-1.15.989 4.166 4.166 0 00-.69 1.38 5.918 5.918 0 00-.207 1.564zm15.77 8.142v-16.33h7.498c.797 0 1.533.16 2.208.483a5.46 5.46 0 011.748 1.31 5.733 5.733 0 011.127 1.818c.276.674.414 1.357.414 2.047 0 .628-.092 1.234-.276 1.817a5.651 5.651 0 01-.805 1.61c-.353.475-.774.89-1.265 1.242l3.45 6.003h-4.922l-2.875-5.014h-1.817v5.014h-4.485zm4.485-8.924h2.829c.184 0 .36-.07.529-.207.169-.138.307-.338.414-.598.123-.26.184-.575.184-.943 0-.384-.069-.698-.207-.943a1.47 1.47 0 00-.483-.598.918.918 0 00-.552-.207h-2.714v3.496zm25.37-3.496h-4.692v12.42h-4.485v-12.42h-4.715v-3.91h13.892v3.91zm5.74-3.91h5.014l5.198 16.33h-4.554l-.989-3.197h-4.347l-.966 3.197h-4.577l5.221-16.33zm3.956 10.143l-1.449-5.75-1.518 5.75h2.967zm27.401 2.277v3.91h-11.638v-16.33h11.431v3.91h-6.946v2.3h5.934v3.634h-5.934v2.576h7.153zm3.926 3.91v-16.33h4.485v12.42h7.406v3.91h-11.891zm21.626 0v-16.33h11.201v3.91h-6.716v2.714h5.474v3.634h-5.474v6.072h-4.485zm14.8 0v-16.33h7.498c.797 0 1.533.16 2.208.483a5.46 5.46 0 011.748 1.31 5.733 5.733 0 011.127 1.818c.276.674.414 1.357.414 2.047 0 .628-.092 1.234-.276 1.817a5.651 5.651 0 01-.805 1.61c-.353.475-.774.89-1.265 1.242l3.45 6.003h-4.922l-2.875-5.014h-1.817v5.014h-4.485zm4.485-8.924h2.829c.184 0 .36-.07.529-.207.169-.138.307-.338.414-.598.123-.26.184-.575.184-.943 0-.384-.069-.698-.207-.943a1.47 1.47 0 00-.483-.598.918.918 0 00-.552-.207h-2.714v3.496zm16.647-7.406h5.014l5.198 16.33h-4.554l-.989-3.197h-4.347l-.966 3.197h-4.577l5.221-16.33zm3.956 10.143l-1.449-5.75-1.518 5.75h2.967zm15.954 6.325c-1.303 0-2.422-.215-3.358-.644-.935-.43-1.702-1.02-2.3-1.771a7.546 7.546 0 01-1.288-2.576 11.33 11.33 0 01-.414-3.082v-8.395h4.485v8.395c0 .536.054 1.05.161 1.54.108.491.276.928.506 1.312.23.383.522.69.874.92.368.214.813.322 1.334.322.537 0 .989-.108 1.357-.322.368-.23.66-.537.874-.92a4.62 4.62 0 00.506-1.334 7.04 7.04 0 00.161-1.518v-8.395h4.485v8.395c0 1.134-.153 2.192-.46 3.174a7.347 7.347 0 01-1.334 2.576c-.598.736-1.364 1.31-2.3 1.725-.92.398-2.016.598-3.289.598zm11.803-.138v-16.33h6.279c1.809 0 3.32.368 4.531 1.104 1.227.72 2.147 1.702 2.76 2.944.629 1.226.943 2.591.943 4.094 0 1.656-.345 3.097-1.035 4.324a7.057 7.057 0 01-2.875 2.852c-1.227.674-2.668 1.012-4.324 1.012h-6.279zm9.959-8.188c0-.844-.146-1.58-.437-2.208-.291-.644-.713-1.143-1.265-1.495-.552-.353-1.211-.53-1.978-.53h-1.794v8.51h1.794c.782 0 1.441-.183 1.978-.551a3.52 3.52 0 001.265-1.518c.291-.66.437-1.396.437-2.208zm19.983 4.278v3.91h-11.638v-16.33h11.431v3.91h-6.946v2.3h5.934v3.634h-5.934v2.576h7.153z" fill="#2B3D51"/></svg>