<svg width="229" height="45" viewBox="0 0 229 45" fill="none" xmlns="http://www.w3.org/2000/svg"><rect width="229" height="45" rx="2" fill="#F3C501"/><path d="M19.476 27.996v-12.07h5.542c.59 0 1.134.119 1.632.357.499.238.93.561 1.292.969.363.397.64.844.833 1.343.204.499.306 1.003.306 1.513 0 .465-.068.912-.204 1.343-.136.43-.334.827-.595 1.19-.26.351-.572.657-.935.918l2.55 4.437H26.26l-2.125-3.706h-1.343v3.706h-3.315zm3.315-6.596h2.091a.61.61 0 00.391-.153c.125-.102.227-.25.306-.442.09-.193.136-.425.136-.697 0-.283-.05-.516-.153-.697a1.08 1.08 0 00-.357-.442.678.678 0 00-.408-.153h-2.006V21.4zm18.119 3.706v2.89h-8.602v-12.07h8.449v2.89h-5.134v1.7h4.386v2.686h-4.386v1.904h5.287zm2.902 2.89v-12.07h5.202c.589 0 1.133.119 1.631.357.5.238.93.561 1.292.969.363.397.64.844.834 1.343.203.499.306 1.003.306 1.513 0 .714-.17 1.388-.51 2.023a4.202 4.202 0 01-1.395 1.564c-.589.397-1.28.595-2.073.595h-1.972v3.706H43.81zm3.315-6.596h1.75c.136 0 .267-.04.392-.119.124-.08.226-.215.306-.408.09-.193.136-.448.136-.765 0-.34-.051-.6-.154-.782-.09-.193-.21-.323-.357-.391a.803.803 0 00-.408-.119h-1.666V21.4zm14.076 6.698c-.918 0-1.75-.17-2.499-.51a6.324 6.324 0 01-1.938-1.394 6.658 6.658 0 01-1.24-1.972 6.293 6.293 0 01-.426-2.278c0-.805.153-1.57.46-2.295a6.323 6.323 0 011.274-1.938 6.065 6.065 0 011.955-1.36 6.18 6.18 0 012.482-.493c.918 0 1.751.176 2.5.527a5.78 5.78 0 011.92 1.394c.533.59.94 1.252 1.224 1.989a5.91 5.91 0 01-.017 4.522 6.134 6.134 0 01-1.275 1.955 6.23 6.23 0 01-1.938 1.36c-.748.329-1.575.493-2.482.493zm-2.737-6.12c0 .408.057.805.17 1.19.114.374.284.714.51 1.02.227.295.51.533.85.714.352.17.765.255 1.241.255.476 0 .89-.09 1.241-.272.352-.181.635-.425.85-.731.227-.317.391-.663.493-1.037a4.139 4.139 0 000-2.346 3.108 3.108 0 00-.51-1.003 2.317 2.317 0 00-.867-.714c-.351-.17-.76-.255-1.224-.255-.476 0-.89.09-1.24.272-.34.181-.624.425-.85.731a3.077 3.077 0 00-.51 1.02c-.103.374-.154.76-.154 1.156zm11.656 6.018v-12.07h5.542c.59 0 1.134.119 1.632.357.499.238.93.561 1.292.969.363.397.64.844.833 1.343.204.499.306 1.003.306 1.513 0 .465-.068.912-.204 1.343-.136.43-.334.827-.595 1.19-.26.351-.572.657-.935.918l2.55 4.437h-3.638L74.78 24.29h-1.343v3.706h-3.315zm3.315-6.596h2.091a.61.61 0 00.391-.153c.125-.102.227-.25.306-.442.09-.193.136-.425.136-.697 0-.283-.05-.516-.153-.697-.09-.193-.21-.34-.357-.442a.678.678 0 00-.408-.153h-2.006V21.4zm18.752-2.584H88.72v9.18h-3.315v-9.18H81.92v-2.89h10.268v2.89zm4.243-2.89h3.706l3.842 12.07h-3.366l-.731-2.363H96.67l-.714 2.363h-3.383l3.859-12.07zm2.924 7.497l-1.071-4.25-1.122 4.25h2.193zm20.253 1.683v2.89h-8.602v-12.07h8.449v2.89h-5.134v1.7h4.386v2.686h-4.386v1.904h5.287zm2.901 2.89v-12.07h3.315v9.18h5.474v2.89h-8.789zm15.985 0v-12.07h8.279v2.89h-4.964v2.006h4.046v2.686h-4.046v4.488h-3.315zm10.939 0v-12.07h5.542c.589 0 1.133.119 1.632.357.499.238.929.561 1.292.969.363.397.64.844.833 1.343.204.499.306 1.003.306 1.513 0 .465-.068.912-.204 1.343-.136.43-.334.827-.595 1.19a4.23 4.23 0 01-.935.918l2.55 4.437h-3.638l-2.125-3.706h-1.343v3.706h-3.315zm3.315-6.596h2.091a.61.61 0 00.391-.153 1.09 1.09 0 00.306-.442c.091-.193.136-.425.136-.697 0-.283-.051-.516-.153-.697a1.087 1.087 0 00-.357-.442.678.678 0 00-.408-.153h-2.006V21.4zm12.305-5.474h3.706l3.842 12.07h-3.366l-.731-2.363h-3.213l-.714 2.363h-3.383l3.859-12.07zm2.924 7.497l-1.071-4.25-1.122 4.25h2.193zm11.792 4.675c-.964 0-1.791-.159-2.482-.476a4.562 4.562 0 01-1.7-1.309 5.564 5.564 0 01-.952-1.904 8.375 8.375 0 01-.306-2.278v-6.205h3.315v6.205c0 .397.039.776.119 1.139.079.363.204.686.374.969.17.283.385.51.646.68.272.159.6.238.986.238.396 0 .731-.08 1.003-.238.272-.17.487-.397.646-.68.17-.295.294-.623.374-.986.079-.363.119-.737.119-1.122v-6.205h3.315v6.205c0 .839-.114 1.62-.34 2.346a5.446 5.446 0 01-.986 1.904 4.492 4.492 0 01-1.7 1.275c-.68.295-1.491.442-2.431.442zm8.723-.102v-12.07h4.641c1.338 0 2.454.272 3.349.816a5.097 5.097 0 012.04 2.176c.465.907.697 1.915.697 3.026 0 1.224-.255 2.29-.765 3.196a5.211 5.211 0 01-2.125 2.108c-.906.499-1.972.748-3.196.748h-4.641zm7.361-6.052c0-.623-.107-1.167-.323-1.632a2.49 2.49 0 00-.935-1.105c-.408-.26-.895-.391-1.462-.391h-1.326v6.29h1.326c.578 0 1.066-.136 1.462-.408.408-.272.72-.646.935-1.122a3.985 3.985 0 00.323-1.632zm14.77 3.162v2.89h-8.602v-12.07h8.449v2.89h-5.134v1.7h4.386v2.686h-4.386v1.904h5.287z" fill="#2B3D51"/></svg>