<svg width="127" height="27" viewBox="0 0 127 27" fill="none" xmlns="http://www.w3.org/2000/svg"><rect x=".5" y=".5" width="126" height="26" rx="2.5" fill="#EFD63A" stroke="#EFE28E"/><path d="M18.561 14.92l-.968-2.761-.968 2.761h1.936zm.572 1.639h-3.08L15.558 18H13.26l3.157-8.294h2.354L21.927 18h-2.299l-.495-1.441zm6.113-3.047h.715c.792 0 1.188-.345 1.188-1.034 0-.69-.396-1.034-1.188-1.034h-.715v2.068zm0 4.488H23.09V9.706h3.432c.932 0 1.643.242 2.134.726.5.484.748 1.166.748 2.046 0 .88-.249 1.562-.748 2.046-.49.484-1.202.726-2.134.726h-1.276V18zm7.676-4.587h.407c.425 0 .751-.088.978-.264.228-.176.341-.429.341-.759s-.113-.583-.34-.759c-.228-.176-.554-.264-.98-.264h-.407v2.046zM37.662 18h-2.684l-2.056-3.19V18h-2.156V9.706h3.355c.462 0 .865.07 1.21.209.344.132.627.315.846.55.228.235.397.506.507.814.117.308.175.638.175.99 0 .63-.154 1.144-.462 1.54-.3.389-.747.653-1.341.792L37.663 18zm5.841-6.468H40.94v1.386h2.42v1.826h-2.42v1.43h2.563V18h-4.719V9.706h4.72v1.826zM45.278 18V9.706h2.156l3.982 5.071V9.706h2.145V18h-2.145l-3.982-5.071V18h-2.156zm12.398-1.826h.495c.374 0 .708-.059 1.001-.176a2.08 2.08 0 001.2-1.21c.11-.286.164-.598.164-.935 0-.33-.055-.638-.165-.924a2.086 2.086 0 00-.473-.737 2.08 2.08 0 00-.737-.484 2.646 2.646 0 00-.99-.176h-.495v4.642zM55.52 9.706h3.19c.565 0 1.093.114 1.584.341.499.227.932.532 1.298.913.374.374.668.814.88 1.32a4.02 4.02 0 010 3.146 4.09 4.09 0 01-.869 1.32c-.366.381-.8.686-1.298.913A3.752 3.752 0 0158.71 18h-3.19V9.706zm13.587 1.826h-2.563v1.386h2.42v1.826h-2.42v1.43h2.563V18h-4.72V9.706h4.72v1.826zm11.705.946c-.498-.609-1.114-.913-1.848-.913-.322 0-.623.059-.902.176a2.155 2.155 0 00-.704.484 2.21 2.21 0 00-.473.715c-.11.279-.165.58-.165.902 0 .33.055.634.165.913.118.279.275.52.473.726.206.205.444.367.715.484.272.117.565.176.88.176.69 0 1.31-.293 1.86-.88v2.552l-.22.077c-.33.117-.639.202-.925.253a4.204 4.204 0 01-.847.088 4.375 4.375 0 01-1.65-.319 4.507 4.507 0 01-1.386-.913 4.683 4.683 0 01-.957-1.397 4.299 4.299 0 01-.363-1.771c0-.638.118-1.221.352-1.749.242-.535.561-.994.957-1.375.404-.389.87-.69 1.397-.902a4.276 4.276 0 011.661-.33c.33 0 .653.037.968.11.323.066.66.172 1.012.319v2.574zm3.584 1.375c0 .33.062.634.186.913.125.279.294.52.507.726.212.205.458.367.737.484.286.11.586.165.902.165.315 0 .612-.055.89-.165.287-.117.536-.279.749-.484a2.211 2.211 0 00.704-1.639 2.211 2.211 0 00-.704-1.639 2.203 2.203 0 00-.749-.473 2.273 2.273 0 00-.89-.176c-.316 0-.616.059-.902.176-.28.11-.525.268-.737.473a2.306 2.306 0 00-.507.726 2.21 2.21 0 00-.186.913zm-2.255 0c0-.616.113-1.188.34-1.716a4.28 4.28 0 01.947-1.397 4.265 4.265 0 011.44-.924 4.933 4.933 0 011.86-.341c.667 0 1.283.114 1.848.341.564.22 1.048.528 1.452.924a4.293 4.293 0 011.298 3.113c0 .616-.114 1.192-.341 1.727-.228.528-.547.99-.957 1.386a4.38 4.38 0 01-1.453.935c-.564.22-1.18.33-1.847.33-.675 0-1.295-.11-1.86-.33a4.31 4.31 0 01-2.387-2.321 4.37 4.37 0 01-.34-1.727zm6.566-6.259l-2.111 1.452-.837-.781 1.793-1.716 1.155 1.045zM92.533 18l1.408-8.294h2.134l1.661 4.422 1.65-4.422h2.134L102.928 18h-2.145l-.715-4.774L98.11 18h-.858l-1.859-4.774L94.678 18h-2.145zm13.862-4.147c0 .33.062.634.187.913s.293.52.506.726c.213.205.458.367.737.484.286.11.587.165.902.165.315 0 .612-.055.891-.165.286-.117.535-.279.748-.484a2.205 2.205 0 00.704-1.639 2.205 2.205 0 00-.704-1.639 2.206 2.206 0 00-.748-.473 2.275 2.275 0 00-.891-.176c-.315 0-.616.059-.902.176-.279.11-.524.268-.737.473a2.308 2.308 0 00-.506.726 2.205 2.205 0 00-.187.913zm-2.255 0c0-.616.114-1.188.341-1.716a4.28 4.28 0 01.946-1.397 4.266 4.266 0 011.441-.924 4.933 4.933 0 011.859-.341c.667 0 1.283.114 1.848.341.565.22 1.049.528 1.452.924a4.298 4.298 0 011.298 3.113c0 .616-.114 1.192-.341 1.727-.227.528-.546.99-.957 1.386a4.373 4.373 0 01-1.452.935 5.05 5.05 0 01-1.848.33c-.675 0-1.294-.11-1.859-.33a4.406 4.406 0 01-1.441-.935 4.312 4.312 0 01-.946-1.386 4.378 4.378 0 01-.341-1.727z" fill="#66124B"/></svg>