<svg width="124" height="25" viewBox="0 0 124 25" fill="none" xmlns="http://www.w3.org/2000/svg"><path d="M4.803 10.024h1.43c1.584 0 2.376-.69 2.376-2.068 0-1.379-.792-2.068-2.376-2.068h-1.43v4.136zm0 8.976H.491V2.412h6.864c1.863 0 3.285.484 4.268 1.452.998.968 1.496 2.332 1.496 4.092 0 1.76-.498 3.124-1.496 4.092-.982.968-2.405 1.452-4.268 1.452H4.803V19zM15.247 7.714h3.982v1.848c.426-.675.946-1.188 1.562-1.54.616-.367 1.335-.55 2.156-.55h.33c.132 0 .279.015.44.044v3.806a3.783 3.783 0 00-1.716-.396c-.924 0-1.62.279-2.09.836-.454.543-.682 1.342-.682 2.398V19h-3.982V7.714zm14.316 5.588c0 .381.066.733.198 1.056.147.308.33.58.55.814.235.235.506.418.814.55.323.132.66.198 1.012.198s.682-.066.99-.198c.323-.132.594-.315.814-.55.235-.235.418-.506.55-.814.147-.323.22-.667.22-1.034 0-.352-.073-.682-.22-.99a2.513 2.513 0 00-.55-.836 2.282 2.282 0 00-.814-.55 2.486 2.486 0 00-.99-.198c-.352 0-.689.066-1.012.198-.308.132-.579.315-.814.55a3.18 3.18 0 00-.55.814 2.486 2.486 0 00-.198.99zm-4.202-.044c0-.836.169-1.613.506-2.332a5.608 5.608 0 011.408-1.892 6.612 6.612 0 012.134-1.276c.836-.308 1.746-.462 2.728-.462.968 0 1.863.154 2.684.462a6.276 6.276 0 012.156 1.254 5.427 5.427 0 011.43 1.914c.338.733.506 1.547.506 2.442 0 .895-.176 1.716-.528 2.464a5.841 5.841 0 01-1.408 1.914c-.601.528-1.327.939-2.178 1.232a8.187 8.187 0 01-2.728.44c-.968 0-1.862-.147-2.684-.44a6.314 6.314 0 01-2.134-1.254 5.923 5.923 0 01-1.386-1.936c-.337-.763-.506-1.606-.506-2.53zm20.573-2.222V19h-3.982v-7.964h-1.32V7.714h1.32V4.326h3.982v3.388H48.2v3.322h-2.266zm12.448.682c-.132-.557-.403-1.005-.814-1.342-.41-.337-.91-.506-1.496-.506-.616 0-1.122.161-1.518.484-.381.323-.623.777-.726 1.364h4.554zm-4.664 2.31c0 1.716.807 2.574 2.42 2.574.865 0 1.518-.352 1.958-1.056h3.85c-.777 2.581-2.72 3.872-5.83 3.872-.953 0-1.826-.14-2.618-.418a6.1 6.1 0 01-2.046-1.232 5.514 5.514 0 01-1.298-1.892c-.308-.733-.462-1.555-.462-2.464 0-.939.147-1.782.44-2.53a5.328 5.328 0 011.254-1.936 5.449 5.449 0 011.958-1.21c.777-.293 1.65-.44 2.618-.44.953 0 1.811.147 2.574.44.763.279 1.408.69 1.936 1.232.528.543.931 1.21 1.21 2.002.279.777.418 1.657.418 2.64v.418h-8.382zm6.006-11.352l-3.828 3.388L54.048 4.7 57.194.85l2.53 1.826zm8.568 10.626c0 .367.066.711.198 1.034.132.308.308.58.528.814.235.235.506.418.814.55.323.132.667.198 1.034.198.352 0 .682-.066.99-.198.323-.132.594-.315.814-.55.235-.235.418-.506.55-.814.147-.323.22-.66.22-1.012 0-.367-.073-.704-.22-1.012a2.514 2.514 0 00-1.386-1.364 2.432 2.432 0 00-.968-.198c-.352 0-.682.073-.99.22-.308.132-.58.315-.814.55a2.61 2.61 0 00-.572.792 2.486 2.486 0 00-.198.99zm8.932-5.588V18.23c0 .63-.037 1.195-.11 1.694a7.306 7.306 0 01-.308 1.32 3.95 3.95 0 01-.836 1.342 5.235 5.235 0 01-1.342 1.1 7.14 7.14 0 01-1.804.726 8.35 8.35 0 01-2.156.264c-.88 0-1.687-.11-2.42-.33a6.575 6.575 0 01-1.936-.924 5.155 5.155 0 01-1.342-1.364 4.427 4.427 0 01-.704-1.694h4.488c.279.748.91 1.122 1.892 1.122.836 0 1.474-.235 1.914-.704.455-.47.682-1.122.682-1.958v-1.078c-.293.279-.58.513-.858.704a4.882 4.882 0 01-.814.44 3.554 3.554 0 01-.88.242 5.416 5.416 0 01-1.012.088c-.807 0-1.547-.14-2.222-.418a5.346 5.346 0 01-1.76-1.166 5.47 5.47 0 01-1.144-1.782c-.264-.704-.396-1.481-.396-2.332 0-.865.147-1.665.44-2.398a6.139 6.139 0 011.188-1.936 5.451 5.451 0 011.804-1.298 5.425 5.425 0 012.288-.484c1.335 0 2.457.499 3.366 1.496V7.714h3.982zm11.44 4.004c-.132-.557-.404-1.005-.814-1.342-.411-.337-.91-.506-1.496-.506-.616 0-1.122.161-1.518.484-.382.323-.624.777-.726 1.364h4.554zM84 14.028c0 1.716.806 2.574 2.42 2.574.865 0 1.518-.352 1.958-1.056h3.85c-.778 2.581-2.721 3.872-5.83 3.872-.954 0-1.826-.14-2.618-.418a6.1 6.1 0 01-2.046-1.232 5.514 5.514 0 01-1.298-1.892c-.308-.733-.462-1.555-.462-2.464 0-.939.146-1.782.44-2.53a5.325 5.325 0 011.254-1.936 5.448 5.448 0 011.958-1.21c.777-.293 1.65-.44 2.618-.44.953 0 1.811.147 2.574.44.762.279 1.408.69 1.936 1.232.528.543.931 1.21 1.21 2.002.278.777.418 1.657.418 2.64v.418H84zm15.472-2.992V19H95.49v-7.964h-1.32V7.714h1.32V4.326h3.982v3.388h2.266v3.322h-2.266zm12.448.682c-.132-.557-.403-1.005-.814-1.342-.411-.337-.909-.506-1.496-.506-.616 0-1.122.161-1.518.484-.381.323-.623.777-.726 1.364h4.554zm-4.664 2.31c0 1.716.807 2.574 2.42 2.574.865 0 1.518-.352 1.958-1.056h3.85c-.777 2.581-2.721 3.872-5.83 3.872-.953 0-1.826-.14-2.618-.418a6.1 6.1 0 01-2.046-1.232 5.519 5.519 0 01-1.298-1.892c-.308-.733-.462-1.555-.462-2.464 0-.939.147-1.782.44-2.53a5.317 5.317 0 011.254-1.936 5.448 5.448 0 011.958-1.21c.777-.293 1.65-.44 2.618-.44.953 0 1.811.147 2.574.44.763.279 1.408.69 1.936 1.232.528.543.931 1.21 1.21 2.002.279.777.418 1.657.418 2.64v.418h-8.382zm10.68 2.86c0-.352.066-.682.198-.99a2.524 2.524 0 012.376-1.584c.352 0 .682.066.99.198.323.132.602.315.836.55.235.235.418.513.55.836.132.308.198.638.198.99s-.066.69-.198 1.012a2.57 2.57 0 01-.55.814 2.503 2.503 0 01-.836.55 2.486 2.486 0 01-.99.198c-.352 0-.689-.066-1.012-.198a2.577 2.577 0 01-1.364-1.364 2.648 2.648 0 01-.198-1.012z" fill="#fff"/></svg>