<svg width="206" height="98" viewBox="0 0 206 98" fill="none" xmlns="http://www.w3.org/2000/svg"><path d="M9.682 32.032h2.16c1.632 0 3.088-.256 4.368-.768 1.28-.512 2.352-1.216 3.216-2.112a8.652 8.652 0 002.016-3.168c.48-1.248.72-2.608.72-4.08 0-1.44-.24-2.784-.72-4.032-.48-1.248-1.168-2.32-2.064-3.216-.864-.896-1.936-1.6-3.216-2.112-1.28-.512-2.72-.768-4.32-.768h-2.16v20.256zM.274 3.808h13.92c2.464 0 4.768.496 6.912 1.488 2.176.992 4.064 2.32 5.664 3.984 1.632 1.632 2.912 3.552 3.84 5.76a17.318 17.318 0 011.392 6.864c0 2.368-.464 4.656-1.392 6.864a17.855 17.855 0 01-3.792 5.76c-1.6 1.664-3.488 2.992-5.664 3.984C19.01 39.504 16.69 40 14.194 40H.274V3.808zm54.918 20.304c-.288-1.216-.88-2.192-1.776-2.928-.896-.736-1.984-1.104-3.264-1.104-1.344 0-2.448.352-3.312 1.056-.832.704-1.36 1.696-1.584 2.976h9.936zm-10.176 5.04c0 3.744 1.76 5.616 5.28 5.616 1.888 0 3.312-.768 4.272-2.304h8.4c-1.696 5.632-5.936 8.448-12.72 8.448-2.08 0-3.984-.304-5.712-.912-1.728-.64-3.216-1.536-4.464-2.688a12.03 12.03 0 01-2.832-4.128c-.672-1.6-1.008-3.392-1.008-5.376 0-2.048.32-3.888.96-5.52.64-1.664 1.552-3.072 2.736-4.224 1.184-1.152 2.608-2.032 4.272-2.64 1.696-.64 3.6-.96 5.712-.96 2.08 0 3.952.32 5.616.96 1.664.608 3.072 1.504 4.224 2.688 1.152 1.184 2.032 2.64 2.64 4.368.608 1.696.912 3.616.912 5.76v.912H45.016zm33.279-6.528V40h-8.688V22.624h-2.88v-7.248h2.88V7.984h8.688v7.392h4.944v7.248h-4.944zm26.679 1.488c-.288-1.216-.88-2.192-1.776-2.928-.896-.736-1.984-1.104-3.264-1.104-1.344 0-2.448.352-3.312 1.056-.832.704-1.36 1.696-1.584 2.976h9.936zm-10.176 5.04c0 3.744 1.76 5.616 5.28 5.616 1.888 0 3.312-.768 4.272-2.304h8.4c-1.696 5.632-5.936 8.448-12.72 8.448-2.08 0-3.984-.304-5.712-.912-1.728-.64-3.216-1.536-4.464-2.688a12.03 12.03 0 01-2.832-4.128c-.672-1.6-1.008-3.392-1.008-5.376 0-2.048.32-3.888.96-5.52.64-1.664 1.552-3.072 2.736-4.224 1.184-1.152 2.608-2.032 4.272-2.64 1.696-.64 3.6-.96 5.712-.96 2.08 0 3.952.32 5.616.96 1.664.608 3.072 1.504 4.224 2.688 1.152 1.184 2.032 2.64 2.64 4.368.608 1.696.912 3.616.912 5.76v.912H94.798zm13.104-24.768l-8.352 7.392L95.518 8.8l6.864-8.4 5.52 3.984zm10.15 10.992h8.688v3.12c1.184-1.44 2.384-2.4 3.6-2.88 1.216-.512 2.64-.768 4.272-.768 1.728 0 3.2.288 4.416.864a8.563 8.563 0 013.168 2.352 6.827 6.827 0 011.44 2.784c.256 1.024.384 2.192.384 3.504V40h-8.688V27.568c0-1.216-.096-2.192-.288-2.928-.16-.768-.464-1.376-.912-1.824a3.292 3.292 0 00-1.296-.816c-.48-.16-.992-.24-1.536-.24-1.472 0-2.608.448-3.408 1.344-.768.864-1.152 2.112-1.152 3.744V40h-8.688V15.376zm66.187 8.736c-.288-1.216-.88-2.192-1.776-2.928-.896-.736-1.984-1.104-3.264-1.104-1.344 0-2.448.352-3.312 1.056-.832.704-1.36 1.696-1.584 2.976h9.936zm-10.176 5.04c0 3.744 1.76 5.616 5.28 5.616 1.888 0 3.312-.768 4.272-2.304h8.4c-1.696 5.632-5.936 8.448-12.72 8.448-2.08 0-3.984-.304-5.712-.912-1.728-.64-3.216-1.536-4.464-2.688a12.03 12.03 0 01-2.832-4.128c-.672-1.6-1.008-3.392-1.008-5.376 0-2.048.32-3.888.96-5.52.64-1.664 1.552-3.072 2.736-4.224 1.184-1.152 2.608-2.032 4.272-2.64 1.696-.64 3.6-.96 5.712-.96 2.08 0 3.952.32 5.616.96 1.664.608 3.072 1.504 4.224 2.688 1.152 1.184 2.032 2.64 2.64 4.368.608 1.696.912 3.616.912 5.76v.912h-18.288zM206.005.16V40h-8.688V.16h8.688zM21.856 79.624V97h-8.688V79.624h-3.12v-7.248h3.12V68.68c0-2.048.192-3.68.576-4.896a8.437 8.437 0 011.536-2.832 11.145 11.145 0 012.448-2.304c.96-.64 1.984-1.136 3.072-1.488a10.407 10.407 0 013.216-.528c.736 0 1.408.08 2.016.24.64.16 1.28.384 1.92.672v7.584a8.042 8.042 0 00-1.632-.624c-.48-.16-.992-.24-1.536-.24-.352 0-.72.064-1.104.192-.352.096-.688.32-1.008.672-.32.352-.544.864-.672 1.536-.096.64-.144 1.52-.144 2.64v3.072h6.096v7.248h-6.096zm9.342-7.248h8.688v4.032c.928-1.472 2.064-2.592 3.408-3.36 1.344-.8 2.912-1.2 4.704-1.2h.72c.288 0 .608.032.96.096v8.304a8.255 8.255 0 00-3.744-.864c-2.016 0-3.536.608-4.56 1.824-.992 1.184-1.488 2.928-1.488 5.232V97h-8.688V72.376zm30.705 12.24c0 .8.144 1.552.432 2.256a6.065 6.065 0 001.152 1.776 5.617 5.617 0 001.776 1.2 5.9 5.9 0 002.256.432c.768 0 1.488-.144 2.16-.432a4.98 4.98 0 001.776-1.2 5.617 5.617 0 001.2-1.776 4.96 4.96 0 00.48-2.16 4.96 4.96 0 00-.48-2.16 5.483 5.483 0 00-1.2-1.824 4.98 4.98 0 00-1.776-1.2 5.425 5.425 0 00-2.16-.432 5.9 5.9 0 00-2.256.432 5.617 5.617 0 00-1.776 1.2 6.065 6.065 0 00-1.152 1.776 5.088 5.088 0 00-.432 2.112zm10.944-12.24h8.736V97h-8.736v-2.736c-1.856 2.336-4.368 3.504-7.536 3.504-1.792 0-3.44-.32-4.944-.96a12.23 12.23 0 01-3.936-2.784c-1.12-1.184-2-2.576-2.64-4.176-.608-1.6-.912-3.344-.912-5.232 0-1.76.304-3.424.912-4.992.608-1.6 1.456-2.992 2.544-4.176a11.699 11.699 0 013.888-2.784c1.504-.704 3.168-1.056 4.992-1.056 3.072 0 5.616 1.072 7.632 3.216v-2.448zm23.336 0v13.872c0 3.04 1.472 4.56 4.416 4.56 2.944 0 4.416-1.52 4.416-4.56V72.376h8.688v15.552c0 3.328-1.104 5.824-3.312 7.488-2.176 1.664-5.44 2.496-9.792 2.496-4.352 0-7.632-.832-9.84-2.496-2.176-1.664-3.264-4.16-3.264-7.488V72.376h8.688zm31.485 12.24c0 .8.144 1.552.432 2.256a6.065 6.065 0 001.152 1.776 5.617 5.617 0 001.776 1.2 5.9 5.9 0 002.256.432c.768 0 1.488-.144 2.16-.432a4.98 4.98 0 001.776-1.2 5.617 5.617 0 001.2-1.776 4.96 4.96 0 00.48-2.16 4.96 4.96 0 00-.48-2.16 5.483 5.483 0 00-1.2-1.824 4.98 4.98 0 00-1.776-1.2 5.425 5.425 0 00-2.16-.432c-.768 0-1.504.144-2.208.432a5.617 5.617 0 00-1.776 1.2 6.934 6.934 0 00-1.2 1.776 5.088 5.088 0 00-.432 2.112zm10.944-27.456h8.736V97h-8.736v-2.736c-1.856 2.336-4.368 3.504-7.536 3.504-1.792 0-3.44-.336-4.944-1.008a12.23 12.23 0 01-3.936-2.784c-1.12-1.184-2-2.576-2.64-4.176-.608-1.6-.912-3.328-.912-5.184 0-1.76.288-3.424.864-4.992.608-1.6 1.456-2.992 2.544-4.176a11.699 11.699 0 013.888-2.784c1.536-.704 3.216-1.056 5.04-1.056 3.072 0 5.616 1.072 7.632 3.216V57.16zm32.649 23.952c-.288-1.216-.88-2.192-1.776-2.928-.896-.736-1.984-1.104-3.264-1.104-1.344 0-2.448.352-3.312 1.056-.832.704-1.36 1.696-1.584 2.976h9.936zm-10.176 5.04c0 3.744 1.76 5.616 5.28 5.616 1.888 0 3.312-.768 4.272-2.304h8.4c-1.696 5.632-5.936 8.448-12.72 8.448-2.08 0-3.984-.304-5.712-.912-1.728-.64-3.216-1.536-4.464-2.688a12.03 12.03 0 01-2.832-4.128c-.672-1.6-1.008-3.392-1.008-5.376 0-2.048.32-3.888.96-5.52.64-1.664 1.552-3.072 2.736-4.224 1.184-1.152 2.608-2.032 4.272-2.64 1.696-.64 3.6-.96 5.712-.96 2.08 0 3.952.32 5.616.96 1.664.608 3.072 1.504 4.224 2.688 1.152 1.184 2.032 2.64 2.64 4.368.608 1.696.912 3.616.912 5.76v.912h-18.288zm22.557 6.72c0-.688.129-1.333.387-1.935a4.907 4.907 0 011.075-1.634 5.024 5.024 0 011.591-1.075 5.172 5.172 0 011.978-.387 4.86 4.86 0 011.935.387c.63.258 1.175.616 1.634 1.075a4.923 4.923 0 011.075 1.634 4.86 4.86 0 01.387 1.935c0 .688-.129 1.347-.387 1.978a5.043 5.043 0 01-1.075 1.591 4.922 4.922 0 01-1.634 1.075 4.86 4.86 0 01-1.935.387 5.172 5.172 0 01-1.978-.387 5.024 5.024 0 01-1.591-1.075 5.026 5.026 0 01-1.075-1.591 5.175 5.175 0 01-.387-1.978z" fill="#fff"/></svg>