<svg width="260" height="23" viewBox="0 0 260 23" fill="none" xmlns="http://www.w3.org/2000/svg"><path d="M13.084 12.556H3.026c.147.906.534 1.628 1.164 2.162.63.536 1.435.803 2.414.803 1.17 0 2.176-.419 3.017-1.254l2.637 1.265c-.657.955-1.444 1.659-2.362 2.116-.918.458-2.007.686-3.267.686-1.958 0-3.55-.63-4.782-1.893C.617 15.178 0 13.598 0 11.698c0-1.9.614-3.563 1.84-4.848 1.227-1.286 2.766-1.928 4.618-1.928 1.964 0 3.562.644 4.792 1.928 1.231 1.285 1.848 2.983 1.848 5.094l-.012.61-.002.002zm-3.13-2.52A3.2 3.2 0 008.73 8.3c-.61-.446-1.314-.67-2.12-.67-.872 0-1.637.251-2.297.75-.414.313-.796.863-1.15 1.654h6.791zM22.846 7.034l-1.938 1.98c-.787-.798-1.503-1.196-2.144-1.196-.351 0-.628.076-.826.228a.687.687 0 00-.108 1.042c.126.145.437.342.934.59l1.147.587c1.209.61 2.039 1.23 2.489 1.863.45.633.677 1.376.677 2.227 0 1.133-.407 2.079-1.222 2.835-.814.76-1.905 1.137-3.273 1.137-1.82 0-3.272-.727-4.359-2.18L16.15 14a4.47 4.47 0 001.29 1.06c.492.27.931.405 1.314.405.414 0 .744-.1.996-.303.252-.203.378-.437.378-.704 0-.492-.454-.973-1.363-1.442l-1.055-.538c-2.019-1.04-3.027-2.342-3.027-3.903 0-1.008.38-1.87 1.141-2.585.76-.716 1.735-1.072 2.918-1.072.81 0 1.573.181 2.289.545a5.1 5.1 0 011.818 1.564l-.002.007z" fill="#fff" fill-opacity=".75"/><path d="M26.122 14.665c.497 0 .922.177 1.273.533.351.357.527.787.527 1.295 0 .509-.176.943-.527 1.302a1.717 1.717 0 01-1.273.538c-.497 0-.92-.18-1.274-.538a1.795 1.795 0 01-.526-1.302c0-.508.175-.94.526-1.295a1.722 1.722 0 011.274-.533z" fill="#fff" fill-opacity=".75"/><path d="M32.964.763h3.128l3.913 12.03L43.95.762h3.128l2.833 17.246h-3.103l-1.81-10.89-3.586 10.89H38.58l-3.55-10.89-1.852 10.89h-3.135L32.964.763zM64.505 12.559H54.448c.144.908.533 1.628 1.163 2.164.63.534 1.435.803 2.416.803 1.17 0 2.176-.419 3.018-1.256l2.64 1.267c-.658.952-1.446 1.66-2.366 2.118-.918.458-2.007.686-3.27.686-1.957 0-3.55-.63-4.783-1.893-1.23-1.263-1.847-2.843-1.847-4.74 0-1.898.612-3.563 1.84-4.847 1.229-1.283 2.768-1.927 4.618-1.927 1.964 0 3.561.644 4.792 1.927 1.231 1.288 1.848 2.984 1.848 5.093l-.012.61h-.004l.004-.005zm-3.132-2.521a3.212 3.212 0 00-1.224-1.734c-.61-.447-1.314-.67-2.12-.67-.872 0-1.637.251-2.299.75-.414.313-.799.865-1.15 1.654h6.793zM75.97.327h3.132v17.678H75.97v-1.348c-.612.594-1.224 1.024-1.839 1.284-.612.26-1.28.393-2 .393-1.611 0-3.004-.64-4.18-1.916-1.177-1.276-1.767-2.866-1.767-4.765 0-1.9.567-3.584 1.708-4.844C69.03 5.55 70.41 4.92 72.039 4.92a5.2 5.2 0 012.108.433c.657.287 1.262.724 1.82 1.302V.327h.003zm-3.295 7.551c-.967 0-1.773.348-2.412 1.05-.639.698-.96 1.595-.96 2.69s.326 2.008.976 2.719c.65.71 1.451 1.065 2.406 1.065.953 0 1.8-.348 2.445-1.05.648-.698.97-1.614.97-2.75s-.324-2.008-.97-2.698c-.648-.685-1.465-1.03-2.457-1.03v.004h.002zM83.53 0c.547 0 1.02.205 1.41.61.392.407.59.899.59 1.476s-.196 1.058-.585 1.46c-.39.4-.853.605-1.393.605a1.92 1.92 0 01-1.424-.616 2.09 2.09 0 01-.59-1.495c0-.586.194-1.044.581-1.442C82.509.2 82.976 0 83.525 0h.005zm-1.566 5.25h3.132v12.754h-3.132V5.251zM100.062 7.834L97.456 9.3c-.488-.524-.974-.886-1.451-1.09-.48-.205-1.04-.306-1.683-.306-1.17 0-2.12.354-2.842 1.07-.722.712-1.085 1.628-1.085 2.743 0 1.116.347 1.97 1.047 2.66.695.684 1.61 1.03 2.745 1.03 1.4 0 2.49-.49 3.271-1.468l2.466 1.727c-1.338 1.78-3.226 2.67-5.668 2.67-2.196 0-3.912-.664-5.154-1.993-1.243-1.33-1.866-2.885-1.866-4.667 0-1.235.304-2.371.905-3.411a6.508 6.508 0 012.529-2.452c1.08-.593 2.293-.89 3.63-.89 1.24 0 2.35.253 3.336.757a6.342 6.342 0 012.419 2.153v.004l.007-.004zM110.943 5.25h3.132v12.754h-3.132v-1.348c-.612.594-1.224 1.024-1.839 1.284a5.07 5.07 0 01-2 .393c-1.611 0-3.004-.64-4.181-1.916-1.176-1.277-1.766-2.866-1.766-4.766s.567-3.583 1.708-4.844c1.138-1.258 2.518-1.888 4.147-1.888.749 0 1.451.145 2.108.433.657.287 1.262.724 1.82 1.301V5.246v.004h.003zm-3.294 2.627c-.968 0-1.773.347-2.412 1.049-.64.699-.961 1.596-.961 2.69 0 1.096.326 2.009.976 2.72.651.71 1.452 1.064 2.406 1.064.954 0 1.8-.347 2.445-1.049.648-.699.97-1.614.97-2.75 0-1.137-.324-2.008-.97-2.698-.648-.686-1.464-1.03-2.457-1.03v.004h.003zM116.732 5.25h2.684v1.608c.288-.632.677-1.115 1.159-1.442a2.759 2.759 0 011.582-.492c.405 0 .83.108 1.273.327l-.974 2.753c-.369-.187-.668-.28-.905-.28-.481 0-.888.305-1.221.915-.333.61-.5 1.805-.5 3.588l.011.623v5.159h-3.107V5.25h-.005.003zM136.832 12.559h-10.058c.144.908.533 1.628 1.163 2.164.63.534 1.436.803 2.417.803 1.17 0 2.176-.419 3.017-1.256l2.64 1.267c-.657.952-1.445 1.66-2.365 2.118-.918.458-2.007.686-3.27.686-1.957 0-3.55-.63-4.783-1.893-1.231-1.263-1.848-2.843-1.848-4.74 0-1.898.613-3.563 1.841-4.847 1.229-1.283 2.768-1.927 4.617-1.927 1.965 0 3.562.644 4.793 1.927 1.231 1.288 1.847 2.984 1.847 5.093l-.011.61h-.005l.005-.005zm-3.132-2.521a3.215 3.215 0 00-1.224-1.734c-.608-.444-1.314-.67-2.12-.67-.873 0-1.638.251-2.299.75-.414.313-.799.865-1.15 1.654h6.793zM140.059 14.667c.495 0 .922.18 1.273.534.351.354.527.788.527 1.294s-.176.944-.527 1.302a1.72 1.72 0 01-1.273.538c-.495 0-.923-.179-1.274-.538a1.79 1.79 0 01-.526-1.302c0-.51.175-.938.526-1.294a1.735 1.735 0 011.274-.534zM153.341 5.251h3.121v10.925c0 2.155-.423 3.742-1.273 4.759C154.05 22.31 152.333 23 150.038 23c-1.224 0-2.25-.154-3.087-.467-.832-.313-1.539-.77-2.108-1.378-.574-.605-.997-1.343-1.274-2.208h3.452c.306.36.697.63 1.181.817.482.184 1.053.274 1.71.274.839 0 1.517-.134 2.03-.398.513-.267.873-.61 1.084-1.03.21-.424.318-1.15.318-2.181-.552.563-1.13.968-1.731 1.214-.605.246-1.287.37-2.054.37-1.676 0-3.089-.616-4.244-1.853-1.152-1.235-1.73-2.797-1.73-4.69 0-2.022.612-3.65 1.834-4.878 1.107-1.109 2.432-1.663 3.967-1.663.72 0 1.397.133 2.036.405.639.271 1.28.713 1.919 1.33V5.25zm-3.244 2.663c-.988 0-1.8.338-2.444 1.012-.643.677-.963 1.527-.963 2.551 0 1.024.331 1.934.988 2.613.657.678 1.483 1.019 2.477 1.019.995 0 1.773-.332 2.401-.996.63-.665.947-1.537.947-2.613s-.317-1.927-.954-2.592c-.632-.665-1.451-.996-2.452-.996v.002zM165.294 4.925c1.177 0 2.284.303 3.321.904a6.444 6.444 0 012.426 2.451c.58 1.03.87 2.146.87 3.342a6.837 6.837 0 01-.877 3.377 6.375 6.375 0 01-2.392 2.454c-1.008.59-2.124.885-3.337.885-1.789 0-3.317-.65-4.583-1.953-1.267-1.301-1.899-2.879-1.899-4.74 0-1.994.715-3.654 2.144-4.984 1.253-1.157 2.693-1.734 4.325-1.734l.004-.005-.002.003zm.052 3.015c-.975 0-1.783.345-2.431 1.037-.648.693-.969 1.576-.969 2.657 0 1.08.319 2.008.96 2.698.639.69 1.449 1.03 2.431 1.03.981 0 1.795-.347 2.445-1.044.651-.697.977-1.59.977-2.684 0-1.095-.32-1.985-.961-2.666-.639-.683-1.456-1.028-2.452-1.028zM172.226 5.251h3.19l3.153 7.528 3.145-7.528h3.173l-5.31 12.754h-2.03L172.223 5.25h.005-.002z" fill="#fff" fill-opacity=".75"/><path d="M185.387 21.095L193.004.163h2.252l-7.63 20.932h-2.239zM198.523.659h9.343v3.22h-6.136v3.148h3.987V10.2h-3.987v7.806h-3.207V.656.66zM209.512 5.176h2.701V6.79c.292-.637.681-1.12 1.165-1.451a2.759 2.759 0 011.593-.495c.407 0 .835.11 1.28.332l-.981 2.771c-.369-.188-.672-.283-.911-.283-.484 0-.893.306-1.228.92-.336.614-.502 1.817-.502 3.609l.011.626v5.188h-3.125V5.176h-.003zM227.072 5.176h3.15v12.831h-3.15V16.65c-.614.598-1.231 1.028-1.849 1.29a5.067 5.067 0 01-2.012.396c-1.62 0-3.024-.641-4.205-1.927-1.184-1.286-1.776-2.884-1.776-4.793 0-1.91.572-3.604 1.717-4.872 1.145-1.265 2.536-1.9 4.172-1.9.753 0 1.46.145 2.119.437a5.776 5.776 0 011.832 1.31V5.175h.002zm-3.31 2.642c-.974 0-1.782.352-2.425 1.056-.644.704-.966 1.605-.966 2.707 0 1.102.329 2.022.984 2.737.654.716 1.462 1.074 2.421 1.074.958 0 1.809-.352 2.461-1.055.653-.704.977-1.627.977-2.765 0-1.138-.326-2.02-.977-2.712-.652-.692-1.476-1.037-2.473-1.037l-.002-.005zM233.395 5.174h3.184v6.18c0 1.203.081 2.038.243 2.507.162.467.423.833.78 1.09.358.258.799.389 1.326.389.526 0 .97-.129 1.336-.384.367-.255.639-.63.815-1.127.13-.37.196-1.16.196-2.372V5.172h3.15v5.437c0 2.24-.174 3.774-.52 4.6-.423 1.007-1.046 1.778-1.87 2.318-.823.538-1.87.807-3.139.807-1.377 0-2.491-.315-3.339-.942-.85-.628-1.447-1.507-1.793-2.63-.245-.777-.369-2.194-.369-4.245V5.174zM256.85.22H260v17.784h-3.15v-1.357c-.614.598-1.231 1.029-1.85 1.29a5.059 5.059 0 01-2.011.396c-1.62 0-3.024-.641-4.206-1.927-1.183-1.286-1.775-2.884-1.775-4.793 0-1.91.572-3.604 1.717-4.872 1.145-1.265 2.536-1.9 4.172-1.9.753 0 1.46.145 2.119.437.662.293 1.271.727 1.832 1.31V.217l.002.003zm-3.31 7.595c-.974 0-1.782.352-2.426 1.056-.643.704-.965 1.605-.965 2.707 0 1.102.329 2.022.983 2.737.655.716 1.463 1.074 2.422 1.074.958 0 1.809-.352 2.461-1.055.653-.704.977-1.627.977-2.765 0-1.139-.327-2.02-.977-2.712-.652-.692-1.476-1.037-2.473-1.037l-.002-.005z" fill="#fff"/></svg>