<svg width="240" height="139" viewBox="0 0 240 139" fill="none" xmlns="http://www.w3.org/2000/svg"><path d="M.543 29.922c0-.693.253-1.293.76-1.8a2.481 2.481 0 011.819-.76c.705 0 1.311.253 1.818.76.508.507.761 1.113.761 1.818 0 .718-.253 1.33-.76 1.837-.495.495-1.102.742-1.819.742-.73 0-1.342-.247-1.837-.742-.495-.494-.742-1.113-.742-1.855zm8.686 0c0-.693.254-1.293.761-1.8a2.481 2.481 0 011.819-.76c.705 0 1.31.253 1.818.76.507.507.76 1.113.76 1.818 0 .718-.253 1.33-.76 1.837-.495.495-1.101.742-1.818.742-.73 0-1.343-.247-1.837-.742-.495-.494-.743-1.113-.743-1.855zm8.687 0c0-.693.254-1.293.76-1.8a2.481 2.481 0 011.82-.76c.704 0 1.31.253 1.818.76.507.507.76 1.113.76 1.818 0 .718-.253 1.33-.76 1.837-.495.495-1.101.742-1.819.742-.73 0-1.342-.247-1.837-.742-.495-.494-.742-1.113-.742-1.855zm21.36 11.912V29.977c-1.658 1.695-3.55 2.543-5.678 2.543-2.437 0-4.46-.897-6.068-2.69-1.62-1.807-2.43-4.064-2.43-6.773 0-2.746.81-5.041 2.43-6.884 1.633-1.83 3.68-2.746 6.142-2.746 2.09 0 3.958.822 5.603 2.468v-1.967h4.194v27.906h-4.194zm-9.909-18.963c0 1.744.47 3.16 1.41 4.25.94 1.112 2.134 1.669 3.581 1.669 1.534 0 2.778-.532 3.73-1.596.965-1.076 1.447-2.474 1.447-4.193 0-1.695-.476-3.093-1.428-4.193-.953-1.077-2.19-1.615-3.711-1.615-1.435 0-2.635.545-3.6 1.633-.953 1.101-1.429 2.45-1.429 4.045zm23.991-8.943V24.3c0 2.993 1.182 4.49 3.544 4.49 2.363 0 3.544-1.497 3.544-4.49V13.928h4.175v10.465c0 1.447-.18 2.696-.538 3.748-.346.94-.946 1.787-1.8 2.542-1.41 1.224-3.203 1.837-5.38 1.837-2.165 0-3.953-.613-5.363-1.837-.866-.755-1.478-1.602-1.837-2.542-.346-.841-.52-2.09-.52-3.748V13.928h4.175zm32.99 10.02h-12.95c.11 1.484.593 2.665 1.447 3.543.853.866 1.948 1.299 3.284 1.299 1.039 0 1.899-.247 2.58-.742.667-.495 1.428-1.41 2.281-2.746l3.526 1.967c-.545.927-1.12 1.725-1.726 2.393a9.555 9.555 0 01-1.948 1.633c-.693.42-1.441.73-2.245.928a10.93 10.93 0 01-2.616.297c-2.697 0-4.862-.866-6.495-2.598-1.632-1.744-2.449-4.057-2.449-6.94 0-2.857.792-5.17 2.375-6.939 1.596-1.744 3.711-2.616 6.346-2.616 2.66 0 4.762.847 6.309 2.542 1.533 1.682 2.3 4.014 2.3 6.995l-.018.983zm-4.285-3.415c-.582-2.226-1.986-3.34-4.212-3.34-.507 0-.984.08-1.43.242a3.943 3.943 0 00-1.224.668 4.17 4.17 0 00-.927 1.039c-.26.408-.458.872-.594 1.391h8.387zm24.9-2.709V32h-4.175V17.824h-1.781v-3.896h1.781V7.304h4.175v6.624h3.247v3.896h-3.247zm22.878 6.123H116.89c.111 1.485.593 2.666 1.447 3.544.853.866 1.948 1.299 3.284 1.299 1.039 0 1.899-.247 2.579-.742.668-.495 1.429-1.41 2.282-2.746l3.526 1.967c-.544.927-1.12 1.725-1.726 2.393a9.543 9.543 0 01-1.948 1.633c-.693.42-1.441.73-2.245.928-.804.198-1.676.297-2.616.297-2.697 0-4.862-.866-6.494-2.598-1.633-1.744-2.45-4.057-2.45-6.94 0-2.857.792-5.17 2.375-6.939 1.596-1.744 3.711-2.616 6.346-2.616 2.66 0 4.762.847 6.309 2.542 1.534 1.682 2.3 4.014 2.3 6.995l-.018.983zm-4.286-3.414c-.582-2.226-1.986-3.34-4.212-3.34-.507 0-.984.08-1.429.242a3.942 3.942 0 00-1.224.668 4.17 4.17 0 00-.928 1.039c-.26.408-.458.872-.594 1.391h8.387zm24.77 21.301h-4.175V13.928h4.175v1.966c1.645-1.645 3.513-2.467 5.604-2.467 2.486 0 4.533.915 6.141 2.746 1.633 1.818 2.45 4.113 2.45 6.884 0 2.709-.811 4.966-2.431 6.772-1.608 1.794-3.637 2.69-6.086 2.69-2.115 0-4.008-.847-5.678-2.541v11.856zm9.927-18.759c0-1.732-.47-3.142-1.41-4.23-.953-1.101-2.152-1.652-3.6-1.652-1.534 0-2.777.532-3.729 1.596-.953 1.064-1.429 2.462-1.429 4.193 0 1.695.476 3.093 1.429 4.194.94 1.076 2.177 1.614 3.711 1.614 1.447 0 2.641-.544 3.581-1.633.965-1.088 1.447-2.449 1.447-4.082zm12.858-9.147V32h-4.174V13.928h4.174zm-4.805-7.515c0-.73.266-1.36.798-1.892a2.607 2.607 0 011.911-.798c.754 0 1.398.266 1.929.798.532.519.798 1.156.798 1.91 0 .755-.266 1.398-.798 1.93a2.566 2.566 0 01-1.911.798 2.628 2.628 0 01-1.929-.798c-.532-.532-.798-1.181-.798-1.948zM191.721.661h4.193V32h-4.193v-1.893c-1.645 1.608-3.507 2.413-5.585 2.413-2.474 0-4.528-.904-6.16-2.71-1.621-1.843-2.431-4.143-2.431-6.902 0-2.696.81-4.948 2.431-6.754 1.608-1.818 3.63-2.727 6.067-2.727 2.115 0 4.008.866 5.678 2.597V.661zm-9.908 22.247c0 1.732.463 3.142 1.391 4.23.953 1.102 2.153 1.652 3.6 1.652 1.546 0 2.795-.532 3.748-1.596.952-1.1 1.429-2.498 1.429-4.193 0-1.695-.477-3.093-1.429-4.193-.953-1.077-2.19-1.615-3.711-1.615-1.435 0-2.635.545-3.6 1.633-.952 1.101-1.428 2.462-1.428 4.082zm32.693-8.98h4.193V32h-4.193v-1.893c-1.719 1.608-3.569 2.413-5.548 2.413-2.499 0-4.564-.904-6.197-2.71-1.621-1.843-2.431-4.143-2.431-6.902 0-2.709.81-4.966 2.431-6.772 1.62-1.806 3.649-2.71 6.086-2.71 2.103 0 3.989.867 5.659 2.598v-2.096zm-9.908 8.98c0 1.732.464 3.142 1.391 4.23.953 1.102 2.153 1.652 3.6 1.652 1.546 0 2.796-.532 3.748-1.596.952-1.1 1.429-2.498 1.429-4.193 0-1.695-.477-3.093-1.429-4.193-.952-1.077-2.189-1.615-3.711-1.615-1.435 0-2.635.545-3.6 1.633-.952 1.101-1.428 2.462-1.428 4.082zm19.371-8.98h4.193v1.67c1.46-1.448 3.105-2.171 4.936-2.171 2.103 0 3.742.662 4.917 1.985 1.014 1.126 1.521 2.963 1.521 5.51V32h-4.193V21.906c0-1.781-.248-3.012-.742-3.692-.483-.693-1.361-1.04-2.635-1.04-1.386 0-2.369.459-2.95 1.374-.569.903-.854 2.48-.854 4.731V32h-4.193V13.928zM12.775 65.824V80H8.6V65.824H6.82v-3.896H8.6v-6.624h4.175v6.624h3.247v3.896h-3.247zm10.26-3.896V72.3c0 2.993 1.182 4.49 3.545 4.49 2.362 0 3.544-1.497 3.544-4.49V61.928h4.174v10.465c0 1.447-.179 2.696-.538 3.748-.346.94-.946 1.787-1.8 2.542-1.41 1.224-3.203 1.836-5.38 1.836-2.165 0-3.953-.612-5.363-1.836-.866-.755-1.478-1.602-1.837-2.542-.346-.842-.52-2.09-.52-3.748V61.928h4.176zm28.26 0h4.193v1.67c1.46-1.448 3.105-2.171 4.935-2.171 2.103 0 3.742.662 4.917 1.985 1.015 1.126 1.522 2.963 1.522 5.51V80h-4.193V69.906c0-1.781-.248-3.012-.743-3.692-.482-.693-1.36-1.04-2.635-1.04-1.385 0-2.368.458-2.95 1.374-.569.903-.853 2.48-.853 4.731V80h-4.194V61.928zm25.03 0V72.3c0 2.993 1.181 4.49 3.544 4.49 2.362 0 3.544-1.497 3.544-4.49V61.928h4.174v10.465c0 1.447-.179 2.696-.538 3.748-.346.94-.946 1.787-1.8 2.542-1.41 1.224-3.203 1.836-5.38 1.836-2.165 0-3.953-.612-5.363-1.836-.865-.755-1.478-1.602-1.837-2.542-.346-.842-.52-2.09-.52-3.748V61.928h4.176zm10.093-8.906l-6.753 6.123-2.283-1.41 5.103-6.755 3.933 2.042zm6.439 8.906h4.175v1.67c.804-.841 1.49-1.41 2.06-1.707.605-.31 1.366-.464 2.282-.464 2.041 0 3.655.89 4.842 2.672 1.312-1.782 3.087-2.672 5.326-2.672 4.069 0 6.104 2.468 6.104 7.403V80h-4.193V69.962c0-1.732-.211-2.957-.631-3.674-.433-.73-1.144-1.095-2.134-1.095-1.15 0-1.992.433-2.523 1.3-.52.865-.78 2.257-.78 4.174V80h-4.193v-9.982c0-3.217-.928-4.825-2.783-4.825-1.175 0-2.035.44-2.58 1.318-.531.878-.797 2.263-.797 4.156V80h-4.175V61.928zm46.517 10.02h-12.952c.112 1.484.594 2.665 1.448 3.543.853.866 1.948 1.299 3.284 1.299 1.039 0 1.899-.247 2.579-.742.668-.495 1.429-1.41 2.282-2.746l3.526 1.967c-.545.927-1.12 1.725-1.726 2.393a9.57 9.57 0 01-1.948 1.633c-.693.42-1.441.73-2.245.928-.804.198-1.677.296-2.617.296-2.696 0-4.861-.865-6.494-2.597-1.633-1.744-2.449-4.057-2.449-6.94 0-2.857.792-5.17 2.375-6.939 1.596-1.744 3.711-2.616 6.346-2.616 2.659 0 4.762.847 6.308 2.542 1.534 1.682 2.301 4.014 2.301 6.995l-.018.983zm-4.287-3.415c-.581-2.226-1.985-3.34-4.212-3.34-.507 0-.983.08-1.428.242a3.936 3.936 0 00-1.225.668 4.17 4.17 0 00-.928 1.039 4.89 4.89 0 00-.593 1.391h8.386zm8.87-6.605h4.174v1.614c.767-.804 1.448-1.355 2.041-1.651.606-.31 1.324-.464 2.153-.464 1.101 0 2.251.358 3.451 1.076l-1.911 3.822c-.792-.569-1.565-.853-2.32-.853-2.276 0-3.414 1.72-3.414 5.158V80h-4.174V61.928zm13.025 8.906c0-2.61.934-4.83 2.802-6.661 1.868-1.83 4.144-2.746 6.828-2.746 2.696 0 4.985.921 6.865 2.764 1.856 1.843 2.783 4.107 2.783 6.791 0 2.71-.934 4.98-2.802 6.81-1.88 1.818-4.187 2.727-6.92 2.727-2.709 0-4.979-.927-6.81-2.783-1.831-1.83-2.746-4.131-2.746-6.902zm4.268.074c0 1.806.482 3.235 1.447 4.286.989 1.064 2.294 1.596 3.915 1.596 1.633 0 2.938-.526 3.915-1.577.977-1.051 1.466-2.456 1.466-4.212 0-1.757-.489-3.16-1.466-4.212-.99-1.064-2.295-1.596-3.915-1.596-1.596 0-2.889.532-3.878 1.596-.99 1.064-1.484 2.437-1.484 4.12zm44.494-22.247h4.193V80h-4.193v-1.893c-1.646 1.609-3.507 2.412-5.585 2.412-2.474 0-4.528-.903-6.16-2.709-1.621-1.843-2.431-4.143-2.431-6.902 0-2.696.81-4.948 2.431-6.754 1.608-1.818 3.63-2.727 6.067-2.727 2.115 0 4.008.866 5.678 2.597V48.661zm-9.909 22.247c0 1.732.464 3.142 1.392 4.23.953 1.102 2.152 1.652 3.6 1.652 1.546 0 2.795-.532 3.748-1.596.952-1.1 1.428-2.498 1.428-4.193 0-1.695-.476-3.093-1.428-4.193-.953-1.077-2.19-1.615-3.711-1.615-1.435 0-2.635.545-3.6 1.633-.952 1.101-1.429 2.462-1.429 4.082zm35.83 1.04h-12.952c.112 1.484.594 2.665 1.448 3.543.853.866 1.948 1.299 3.284 1.299 1.039 0 1.899-.247 2.579-.742.668-.495 1.429-1.41 2.282-2.746l3.526 1.967c-.545.927-1.12 1.725-1.726 2.393a9.57 9.57 0 01-1.948 1.633c-.693.42-1.441.73-2.245.928-.804.198-1.677.296-2.617.296-2.696 0-4.861-.865-6.494-2.597-1.633-1.744-2.449-4.057-2.449-6.94 0-2.857.792-5.17 2.375-6.939 1.596-1.744 3.711-2.616 6.346-2.616 2.659 0 4.762.847 6.308 2.542 1.534 1.682 2.301 4.014 2.301 6.995l-.018.983zm-4.287-3.415c-.581-2.226-1.985-3.34-4.211-3.34-.508 0-.984.08-1.429.242a3.936 3.936 0 00-1.225.668 4.17 4.17 0 00-.928 1.039 4.89 4.89 0 00-.593 1.391h8.386z" fill="#fff" fill-opacity=".75"/><path d="M1.096 138l6.016-35.438h9.118l7.097 18.894 7.05-18.894h9.118L45.511 138h-9.165l-3.055-20.398L24.925 138H21.26l-7.943-20.398L10.261 138H1.096zm65.792-15.557c-.282-1.191-.862-2.146-1.74-2.867-.877-.721-1.942-1.081-3.195-1.081-1.316 0-2.397.345-3.243 1.034-.815.689-1.332 1.661-1.551 2.914h9.729zm-9.964 4.935c0 3.666 1.723 5.499 5.17 5.499 1.848 0 3.243-.752 4.183-2.256h8.225c-1.661 5.515-5.813 8.272-12.455 8.272-2.037 0-3.901-.298-5.593-.893-1.692-.627-3.15-1.504-4.371-2.632a11.777 11.777 0 01-2.773-4.042c-.658-1.567-.987-3.321-.987-5.264 0-2.005.313-3.807.94-5.405.626-1.629 1.52-3.008 2.679-4.136 1.159-1.128 2.553-1.99 4.183-2.585 1.66-.627 3.525-.94 5.593-.94 2.036 0 3.87.313 5.499.94 1.629.595 3.008 1.473 4.136 2.632 1.128 1.159 1.99 2.585 2.585 4.277.595 1.661.893 3.541.893 5.64v.893H56.924zm30.665-1.504c0 .783.141 1.52.423 2.209a5.935 5.935 0 001.128 1.739 5.505 5.505 0 001.74 1.175c.689.282 1.425.423 2.208.423.752 0 1.457-.141 2.115-.423a4.88 4.88 0 001.74-1.175 5.496 5.496 0 001.174-1.739c.314-.658.47-1.363.47-2.115 0-.752-.156-1.457-.47-2.115a5.37 5.37 0 00-1.175-1.786 4.88 4.88 0 00-1.739-1.175 5.312 5.312 0 00-2.115-.423c-.752 0-1.472.141-2.162.423a5.505 5.505 0 00-1.739 1.175 6.783 6.783 0 00-1.175 1.739 4.983 4.983 0 00-.423 2.068zM98.305 98.99h8.554V138h-8.554v-2.679c-1.817 2.287-4.277 3.431-7.379 3.431-1.754 0-3.368-.329-4.84-.987a11.98 11.98 0 01-3.855-2.726c-1.096-1.159-1.958-2.522-2.585-4.089-.595-1.567-.893-3.259-.893-5.076 0-1.723.282-3.353.846-4.888.596-1.567 1.426-2.93 2.491-4.089a11.46 11.46 0 013.807-2.726c1.504-.689 3.15-1.034 4.935-1.034 3.008 0 5.5 1.05 7.473 3.149V98.99zm22.85 14.899V138h-8.507v-24.111h8.507zm-9.071-9.259c0-.658.126-1.269.376-1.833a4.829 4.829 0 011.034-1.551c.439-.439.94-.783 1.504-1.034a4.798 4.798 0 011.88-.376c.658 0 1.269.125 1.833.376a4.79 4.79 0 011.551 1.034c.439.439.784.956 1.034 1.551.251.564.376 1.175.376 1.833 0 .658-.125 1.285-.376 1.88a4.944 4.944 0 01-1.034 1.504 4.79 4.79 0 01-1.551 1.034 4.456 4.456 0 01-1.833.376 4.792 4.792 0 01-1.88-.376 4.961 4.961 0 01-1.504-1.034 4.98 4.98 0 01-1.034-1.504 4.806 4.806 0 01-.376-1.88zm33.074 17.061c-1.473-1.003-2.961-1.504-4.465-1.504a6.26 6.26 0 00-2.303.423 5.512 5.512 0 00-1.833 1.222 5.468 5.468 0 00-1.269 1.833c-.282.689-.423 1.473-.423 2.35 0 .846.141 1.629.423 2.35.313.689.72 1.3 1.222 1.833a5.783 5.783 0 001.88 1.175 6.26 6.26 0 002.303.423c1.598 0 3.086-.548 4.465-1.645v7.238c-2.1.909-4.089 1.363-5.969 1.363-1.755 0-3.431-.298-5.029-.893a13.235 13.235 0 01-4.183-2.538 13.116 13.116 0 01-2.867-3.995c-.721-1.567-1.081-3.306-1.081-5.217 0-1.911.344-3.65 1.034-5.217.689-1.598 1.629-2.961 2.82-4.089 1.19-1.159 2.6-2.052 4.23-2.679 1.66-.658 3.431-.987 5.311-.987 2.068 0 3.979.439 5.734 1.316v7.238zm12.748 4.183c0 .783.141 1.52.423 2.209a5.935 5.935 0 001.128 1.739 5.501 5.501 0 001.739 1.175 5.773 5.773 0 002.209.423c.752 0 1.457-.141 2.115-.423a4.884 4.884 0 001.739-1.175 5.501 5.501 0 001.175-1.739c.313-.658.47-1.363.47-2.115 0-.752-.157-1.457-.47-2.115a5.374 5.374 0 00-1.175-1.786 4.884 4.884 0 00-1.739-1.175 5.312 5.312 0 00-2.115-.423c-.784 0-1.52.141-2.209.423a5.501 5.501 0 00-1.739 1.175 5.935 5.935 0 00-1.128 1.739 4.983 4.983 0 00-.423 2.068zm10.716-11.985h8.554V138h-8.554v-2.679c-1.818 2.287-4.277 3.431-7.379 3.431-1.755 0-3.369-.313-4.841-.94a11.97 11.97 0 01-3.854-2.726c-1.097-1.159-1.959-2.522-2.585-4.089-.596-1.567-.893-3.274-.893-5.123 0-1.723.297-3.353.893-4.888.595-1.567 1.425-2.93 2.491-4.089a11.453 11.453 0 013.807-2.726c1.472-.689 3.102-1.034 4.888-1.034 3.008 0 5.499 1.05 7.473 3.149v-2.397zm14.343 0h8.507v3.948c.908-1.441 2.021-2.538 3.337-3.29 1.316-.783 2.851-1.175 4.606-1.175h.705c.282 0 .595.031.94.094v8.131a8.083 8.083 0 00-3.666-.846c-1.974 0-3.463.595-4.465 1.786-.972 1.159-1.457 2.867-1.457 5.123V138h-8.507v-24.111zm39.794 8.554c-.282-1.191-.862-2.146-1.739-2.867-.878-.721-1.943-1.081-3.196-1.081-1.316 0-2.397.345-3.243 1.034-.815.689-1.332 1.661-1.551 2.914h9.729zm-9.964 4.935c0 3.666 1.723 5.499 5.17 5.499 1.848 0 3.243-.752 4.183-2.256h8.225c-1.661 5.515-5.813 8.272-12.455 8.272-2.037 0-3.901-.298-5.593-.893-1.692-.627-3.149-1.504-4.371-2.632a11.771 11.771 0 01-2.773-4.042c-.658-1.567-.987-3.321-.987-5.264 0-2.005.313-3.807.94-5.405.626-1.629 1.519-3.008 2.679-4.136 1.159-1.128 2.553-1.99 4.183-2.585 1.66-.627 3.525-.94 5.593-.94 2.036 0 3.869.313 5.499.94 1.629.595 3.008 1.473 4.136 2.632 1.128 1.159 1.989 2.585 2.585 4.277.595 1.661.893 3.541.893 5.64v.893h-17.907zm21.074 8.414a2.6 2.6 0 01.207-1.035 2.633 2.633 0 011.426-1.449 2.77 2.77 0 011.058-.207 2.6 2.6 0 011.035.207c.338.138.629.33.874.575.246.245.437.537.575.874a2.6 2.6 0 01.207 1.035c0 .368-.069.721-.207 1.058a2.677 2.677 0 01-.575.851 2.622 2.622 0 01-.874.575 2.6 2.6 0 01-1.035.207 2.77 2.77 0 01-1.058-.207 2.704 2.704 0 01-1.426-1.426 2.767 2.767 0 01-.207-1.058z" fill="#fff"/></svg>