<svg width="260" height="24" viewBox="0 0 260 24" fill="none" xmlns="http://www.w3.org/2000/svg"><path d="M13.084 12.744H3.026c.147.906.534 1.628 1.164 2.162.63.535 1.435.802 2.414.802 1.17 0 2.176-.418 3.017-1.253l2.637 1.265c-.657.954-1.444 1.658-2.362 2.116-.918.458-2.007.685-3.267.685-1.958 0-3.55-.63-4.782-1.893C.617 15.366 0 13.786 0 11.886s.614-3.563 1.84-4.849C3.068 5.752 4.607 5.11 6.459 5.11c1.964 0 3.562.644 4.792 1.927 1.231 1.286 1.848 2.983 1.848 5.095l-.012.61-.002.002zm-3.13-2.521A3.2 3.2 0 008.73 8.489c-.61-.447-1.314-.67-2.12-.67-.872 0-1.637.251-2.297.75-.414.313-.796.863-1.15 1.654h6.791zM22.846 7.221l-1.938 1.98c-.787-.798-1.503-1.196-2.144-1.196-.351 0-.628.076-.826.228a.687.687 0 00-.108 1.042c.126.145.437.343.934.591l1.147.587c1.209.61 2.039 1.23 2.489 1.863.45.632.677 1.375.677 2.226 0 1.134-.407 2.08-1.222 2.836-.814.759-1.905 1.136-3.273 1.136-1.82 0-3.272-.727-4.359-2.18l1.926-2.146a4.47 4.47 0 001.29 1.06c.492.27.931.405 1.314.405.414 0 .744-.101.996-.304.252-.202.378-.437.378-.704 0-.492-.454-.972-1.363-1.442l-1.055-.538c-2.019-1.04-3.027-2.341-3.027-3.903 0-1.007.38-1.87 1.141-2.585.76-.715 1.735-1.072 2.918-1.072.81 0 1.573.182 2.289.545a5.1 5.1 0 011.818 1.564l-.002.007zM26.122 14.852c.497 0 .922.177 1.273.534.351.356.527.786.527 1.294 0 .509-.176.944-.527 1.302a1.717 1.717 0 01-1.273.538c-.497 0-.92-.179-1.274-.538a1.795 1.795 0 01-.526-1.302c0-.508.175-.94.526-1.294a1.721 1.721 0 011.274-.534zM32.964.95h3.128l3.913 12.03L43.95.95h3.128l2.833 17.246h-3.103l-1.81-10.89-3.586 10.89H38.58l-3.55-10.89-1.852 10.89h-3.135L32.964.951zM64.505 12.746H54.448c.144.908.533 1.628 1.163 2.164.63.534 1.435.803 2.416.803 1.17 0 2.176-.419 3.018-1.256l2.64 1.267c-.658.953-1.445 1.661-2.366 2.119-.918.457-2.007.685-3.27.685-1.957 0-3.55-.63-4.783-1.893-1.23-1.263-1.847-2.843-1.847-4.74 0-1.898.612-3.563 1.84-4.846 1.229-1.284 2.768-1.928 4.618-1.928 1.964 0 3.561.644 4.792 1.928 1.231 1.288 1.848 2.983 1.848 5.092l-.012.61h-.004l.004-.005zm-3.132-2.52A3.212 3.212 0 0060.15 8.49c-.61-.446-1.314-.67-2.12-.67-.872 0-1.637.251-2.299.75-.414.313-.799.865-1.15 1.654h6.793zM75.97.515h3.132v17.677H75.97v-1.347c-.612.593-1.224 1.023-1.839 1.283-.612.26-1.28.393-2 .393-1.611 0-3.004-.639-4.18-1.916-1.177-1.276-1.767-2.865-1.767-4.765 0-1.9.567-3.583 1.708-4.844 1.138-1.258 2.518-1.888 4.147-1.888a5.2 5.2 0 012.108.432c.657.288 1.262.725 1.82 1.302V.515h.003zm-3.294 7.55c-.968 0-1.774.348-2.413 1.05-.639.699-.96 1.596-.96 2.69 0 1.095.326 2.008.976 2.719.65.71 1.451 1.065 2.406 1.065.953 0 1.8-.347 2.445-1.049.648-.7.97-1.614.97-2.75 0-1.137-.324-2.009-.97-2.699-.648-.685-1.465-1.03-2.457-1.03v.005h.002zM83.53.187c.547 0 1.02.205 1.41.61.392.407.59.9.59 1.477 0 .577-.196 1.058-.585 1.46-.39.4-.853.605-1.393.605a1.92 1.92 0 01-1.424-.616 2.09 2.09 0 01-.59-1.495c0-.587.194-1.045.581-1.443.39-.397.857-.598 1.406-.598h.005zm-1.566 5.251h3.132v12.754h-3.132V5.438zM100.062 8.021l-2.606 1.467c-.488-.524-.974-.885-1.451-1.09-.48-.204-1.04-.306-1.683-.306-1.17 0-2.12.355-2.842 1.07-.722.713-1.085 1.628-1.085 2.744 0 1.115.347 1.968 1.047 2.659.695.685 1.61 1.03 2.745 1.03 1.4 0 2.49-.49 3.271-1.468l2.466 1.728c-1.338 1.78-3.226 2.67-5.668 2.67-2.196 0-3.912-.665-5.154-1.994-1.243-1.33-1.866-2.884-1.866-4.667 0-1.235.304-2.371.905-3.41a6.507 6.507 0 012.529-2.452c1.08-.594 2.293-.89 3.63-.89 1.24 0 2.35.253 3.336.756a6.342 6.342 0 012.419 2.153v.005l.007-.005zM110.943 5.438h3.132V18.19h-3.132v-1.348c-.612.594-1.224 1.024-1.839 1.284a5.07 5.07 0 01-2 .393c-1.611 0-3.004-.64-4.181-1.916-1.176-1.276-1.766-2.866-1.766-4.765 0-1.9.567-3.584 1.708-4.844 1.138-1.258 2.518-1.889 4.147-1.889.749 0 1.451.145 2.108.433.657.287 1.262.724 1.821 1.302V5.433v.005h.002zm-3.294 2.626c-.968 0-1.773.348-2.412 1.05-.639.698-.961 1.595-.961 2.69s.326 2.008.976 2.719c.651.71 1.452 1.065 2.406 1.065.954 0 1.8-.348 2.445-1.05.649-.698.97-1.614.97-2.75s-.324-2.008-.97-2.698c-.648-.685-1.464-1.03-2.457-1.03v.004h.003zM116.732 5.438h2.684v1.608c.288-.633.677-1.116 1.159-1.442a2.759 2.759 0 011.582-.492c.405 0 .83.108 1.273.326l-.974 2.753c-.369-.186-.668-.28-.905-.28-.481 0-.888.306-1.221.915-.333.61-.5 1.806-.5 3.588l.011.623v5.16h-3.107V5.437h-.005.003zM136.832 12.746h-10.058c.144.908.533 1.628 1.163 2.164.63.534 1.436.803 2.417.803 1.17 0 2.176-.419 3.017-1.256l2.64 1.267c-.657.953-1.445 1.661-2.365 2.119-.918.457-2.007.685-3.269.685-1.958 0-3.551-.63-4.784-1.893-1.231-1.263-1.847-2.843-1.847-4.74 0-1.898.612-3.563 1.84-4.846 1.229-1.284 2.768-1.928 4.617-1.928 1.965 0 3.562.644 4.793 1.928 1.231 1.288 1.847 2.983 1.847 5.092l-.011.61h-.004l.004-.005zm-3.132-2.52a3.215 3.215 0 00-1.224-1.735c-.608-.444-1.314-.67-2.12-.67-.873 0-1.638.251-2.299.75-.414.313-.799.865-1.15 1.654h6.793zM140.059 14.854c.495 0 .922.18 1.273.534.351.354.527.789.527 1.295 0 .506-.176.943-.527 1.302a1.72 1.72 0 01-1.273.538c-.495 0-.923-.18-1.274-.538a1.79 1.79 0 01-.526-1.302c0-.51.175-.938.526-1.295a1.735 1.735 0 011.274-.534zM153.341 5.438h3.121v10.925c0 2.155-.423 3.742-1.273 4.76-1.139 1.374-2.856 2.064-5.151 2.064-1.224 0-2.25-.154-3.087-.466-.832-.313-1.539-.77-2.108-1.378-.574-.605-.997-1.343-1.274-2.208h3.452c.306.359.697.63 1.181.816.482.184 1.053.274 1.71.274.84 0 1.517-.133 2.03-.398.513-.267.873-.61 1.084-1.03.21-.423.318-1.15.318-2.18-.552.563-1.13.968-1.731 1.214-.605.246-1.287.37-2.054.37-1.676 0-3.089-.616-4.244-1.854-1.152-1.235-1.73-2.797-1.73-4.69 0-2.021.612-3.65 1.834-4.878 1.107-1.108 2.432-1.663 3.967-1.663.72 0 1.397.134 2.036.405.639.272 1.28.713 1.919 1.33V5.438zm-3.244 2.664c-.988 0-1.8.338-2.444 1.012-.643.676-.963 1.527-.963 2.55 0 1.024.331 1.935.988 2.613.657.679 1.483 1.02 2.477 1.02.995 0 1.773-.332 2.401-.997.63-.664.947-1.536.947-2.613 0-1.076-.317-1.927-.954-2.592-.632-.664-1.451-.996-2.452-.996v.003zM165.294 5.112c1.177 0 2.284.304 3.321.904a6.444 6.444 0 012.426 2.452c.58 1.03.87 2.146.87 3.342a6.838 6.838 0 01-.877 3.376 6.375 6.375 0 01-2.392 2.454c-1.008.591-2.124.886-3.337.886-1.789 0-3.316-.651-4.583-1.953-1.267-1.302-1.899-2.88-1.899-4.74 0-1.994.715-3.655 2.144-4.984 1.253-1.157 2.693-1.734 4.325-1.734l.004-.005-.002.002zm.052 3.016c-.975 0-1.782.345-2.43 1.037-.648.692-.97 1.575-.97 2.656 0 1.081.319 2.008.961 2.698.639.69 1.449 1.03 2.43 1.03.981 0 1.795-.347 2.445-1.044.651-.697.977-1.589.977-2.684 0-1.095-.319-1.985-.961-2.665-.639-.683-1.456-1.028-2.452-1.028zM172.226 5.439h3.19l3.153 7.528 3.145-7.528h3.173l-5.31 12.753h-2.03L172.223 5.44h.005-.002z" fill="#FAF2DE"/><path d="M185.387 21.283L193.004.35h2.252l-7.63 20.932h-2.239zM198.523.846h9.343v3.22h-6.136v3.149h3.987v3.171h-3.987v7.807h-3.207V.843v.003zM209.512 5.363h2.701v1.614c.292-.637.681-1.12 1.165-1.45a2.759 2.759 0 011.593-.495c.407 0 .835.11 1.28.33l-.981 2.772c-.369-.188-.672-.283-.911-.283-.484 0-.893.306-1.228.92-.336.615-.502 1.817-.502 3.61l.011.625v5.189h-3.125V5.363h-.003zM227.072 5.363h3.15v12.832h-3.15v-1.357c-.614.598-1.231 1.028-1.85 1.29a5.059 5.059 0 01-2.011.395c-1.62 0-3.024-.641-4.206-1.927-1.183-1.286-1.775-2.884-1.775-4.793 0-1.91.572-3.604 1.717-4.871 1.145-1.265 2.536-1.9 4.172-1.9.753 0 1.46.145 2.119.437a5.776 5.776 0 011.832 1.308V5.363h.002zm-3.31 2.643c-.974 0-1.782.351-2.425 1.055-.644.704-.966 1.606-.966 2.707 0 1.102.329 2.022.984 2.737.654.716 1.462 1.074 2.421 1.074.958 0 1.809-.351 2.461-1.055.653-.704.977-1.626.977-2.765 0-1.138-.326-2.02-.977-2.712-.652-.692-1.476-1.037-2.473-1.037l-.002-.004zM233.395 5.361h3.184v6.18c0 1.203.081 2.038.243 2.508.162.466.423.832.78 1.09.358.257.799.388 1.326.388.526 0 .969-.128 1.336-.384.367-.255.639-.63.815-1.127.13-.37.196-1.159.196-2.371V5.359h3.15v5.437c0 2.24-.174 3.775-.52 4.6-.423 1.008-1.046 1.778-1.87 2.319-.823.538-1.87.807-3.139.807-1.377 0-2.491-.315-3.339-.943-.85-.628-1.447-1.506-1.793-2.629-.246-.777-.369-2.194-.369-4.246V5.361zM256.85.408H260v17.784h-3.15v-1.357c-.614.598-1.231 1.028-1.85 1.29a5.059 5.059 0 01-2.011.396c-1.62 0-3.024-.642-4.206-1.928-1.183-1.286-1.775-2.884-1.775-4.793 0-1.909.572-3.604 1.717-4.871 1.145-1.265 2.536-1.9 4.171-1.9.754 0 1.461.145 2.12.437.662.292 1.271.727 1.832 1.309V.405l.002.003zm-3.31 7.595c-.974 0-1.782.352-2.426 1.055-.643.704-.965 1.606-.965 2.707 0 1.102.329 2.022.983 2.737.655.716 1.463 1.075 2.421 1.075.959 0 1.81-.352 2.462-1.056.653-.704.977-1.626.977-2.765 0-1.138-.327-2.02-.977-2.711-.652-.693-1.476-1.038-2.473-1.038l-.002-.004z" fill="#fff"/></svg>