<svg width="156" height="119" viewBox="0 0 156 119" fill="none" xmlns="http://www.w3.org/2000/svg"><path d="M4.83 19.718c-2.75 0-4.598-2.002-4.598-4.51 0-2.244 1.606-4.026 3.806-4.356l.176-1.87h1.43l.198 2.97c-2.42.022-3.894 1.43-3.894 3.278 0 1.562 1.298 2.86 2.948 2.86 1.32 0 2.354-.682 2.882-1.892l1.386.66c-.682 1.782-2.244 2.86-4.334 2.86zm.088-12.364a1.174 1.174 0 01-1.166-1.166c0-.66.528-1.166 1.166-1.166.66 0 1.166.506 1.166 1.166 0 .638-.528 1.166-1.166 1.166zM11.092 16V1.744h10.78v1.54h-9.02v4.334H21.3v1.518h-8.448v5.324h9.35V16h-11.11zm21.896 3.102V14.13c-.792 1.386-2.31 2.09-4.026 2.09-2.97 0-5.06-2.464-5.06-5.588s2.09-5.566 5.06-5.566c1.738 0 3.3.682 4.092 2.068V5.286h1.606v13.816h-1.672zm-3.652-4.51c2.046 0 3.652-1.716 3.652-3.96 0-2.244-1.606-3.938-3.652-3.938-2.134 0-3.718 1.672-3.718 3.938 0 2.288 1.584 3.96 3.718 3.96zm11.85 1.628c-2.64 0-3.894-1.386-3.894-4.246V5.286h1.672v6.468c0 2.002.968 2.838 2.706 2.838 1.936 0 3.058-1.584 3.058-3.234V5.286H46.4V16h-1.605v-1.892c-.66 1.386-2.2 2.112-3.608 2.112zm8.035-.22V5.286h1.672V16H49.22zm.836-12.628a1.09 1.09 0 01-1.1-1.1c0-.616.483-1.122 1.1-1.122.615 0 1.121.506 1.121 1.122 0 .616-.505 1.1-1.121 1.1zm3.654 15.73V5.286h1.606v1.848c.792-1.386 2.354-2.068 4.092-2.068 2.97 0 5.06 2.442 5.06 5.566 0 3.124-2.09 5.588-5.06 5.588-1.694 0-3.234-.704-4.026-2.09v4.972H53.71zm5.324-4.51c2.134 0 3.718-1.672 3.718-3.96 0-2.266-1.584-3.938-3.718-3.938-2.046 0-3.652 1.694-3.652 3.938s1.606 3.96 3.652 3.96zM72.03 16.22c-3.146 0-5.632-2.464-5.632-5.566 0-3.124 2.486-5.588 5.632-5.588 3.146 0 5.632 2.464 5.632 5.588 0 3.102-2.486 5.566-5.632 5.566zm0-1.628c2.222 0 3.916-1.694 3.916-3.938 0-2.266-1.694-3.96-3.916-3.96s-3.916 1.694-3.916 3.96c0 2.244 1.694 3.938 3.916 3.938zM84.82 16V5.286h1.672v1.848c.594-1.166 1.936-2.068 3.432-2.068 1.716 0 2.926.748 3.432 2.266.77-1.562 2.442-2.266 3.696-2.266 2.574 0 3.938 1.496 3.938 4.444V16h-1.694V9.73c0-1.826-.638-3.036-2.596-3.036-1.804 0-2.948 1.452-2.948 3.058V16h-1.694V9.73c0-1.826-.638-3.036-2.574-3.036-1.87 0-2.992 1.584-2.992 3.146V16H84.82zm22.583-12.43l1.782-2.926h1.826l-2.068 2.926h-1.54zm1.364 12.65c-3.036 0-5.61-2.178-5.61-5.566 0-3.102 2.332-5.588 5.39-5.588 2.86 0 5.126 2.464 5.126 5.522 0 .308-.044.638-.044.66h-8.734c.264 2.134 1.914 3.476 3.894 3.476 1.21 0 2.42-.418 3.3-1.144l.726 1.232a6.556 6.556 0 01-4.048 1.408zm-3.872-6.248h7.128c-.176-1.98-1.694-3.41-3.564-3.41-1.826 0-3.322 1.408-3.564 3.41zm15.783 6.248c-2.97 0-5.06-2.464-5.06-5.566 0-3.146 2.09-5.588 5.06-5.588 1.716 0 3.234.704 4.026 2.09V1.524h1.672V16h-1.606v-1.87c-.792 1.408-2.354 2.09-4.092 2.09zm.374-1.628c2.046 0 3.652-1.694 3.652-3.938s-1.606-3.96-3.652-3.96c-2.134 0-3.718 1.672-3.718 3.96 0 2.266 1.584 3.938 3.718 3.938zM129.185 16V5.286h1.672V16h-1.672zm.836-12.628a1.09 1.09 0 01-1.1-1.1c0-.616.484-1.122 1.1-1.122.616 0 1.122.506 1.122 1.122 0 .616-.506 1.1-1.122 1.1zm8.847 12.848c-3.146 0-5.632-2.442-5.632-5.566 0-3.124 2.486-5.588 5.632-5.588 1.474 0 2.816.528 3.828 1.43l-1.056 1.188c-.66-.616-1.628-.99-2.75-.99-2.244 0-3.938 1.672-3.938 3.96 0 2.222 1.628 3.938 3.982 3.938 1.21 0 2.31-.462 3.058-1.21l.968 1.254c-1.034.99-2.486 1.584-4.092 1.584zm11.043 0c-3.146 0-5.632-2.464-5.632-5.566 0-3.124 2.486-5.588 5.632-5.588 3.146 0 5.632 2.464 5.632 5.588 0 3.102-2.486 5.566-5.632 5.566zm0-1.628c2.222 0 3.916-1.694 3.916-3.938 0-2.266-1.694-3.96-3.916-3.96s-3.916 1.694-3.916 3.96c0 2.244 1.694 3.938 3.916 3.938zM7.164 37.186v-8.034H10.7v8.034H7.164zm-5.928 0v-8.034h3.536v8.034H1.236zm18.56 12.636c-2.6 0-4.628-.598-5.824-1.404l1.69-2.964c1.04.676 2.548.858 3.614.858 1.716 0 2.6-.78 2.912-1.638.104-.26.156-.52.156-.78-.728.962-2.158 1.326-3.224 1.326-3.692 0-5.824-2.86-5.824-6.37 0-3.536 2.132-6.396 5.824-6.396 1.066 0 2.756.39 3.484 1.742v-1.482h4.472v9.672c0 3.796-1.69 7.436-7.28 7.436zm.442-8.684c1.248 0 2.132-.936 2.132-2.288 0-1.352-.884-2.314-2.132-2.314-1.248 0-2.132.962-2.132 2.314s.884 2.288 2.132 2.288zM29.018 46V32.714h4.603v2.366c.078-.572 1.222-2.626 4.342-2.626v5.148c-3.432 0-4.212 1.43-4.212 3.926V46h-4.732zm15.947.26c-3.693 0-5.695-3.068-5.695-6.89 0-3.848 2.002-6.916 5.694-6.916 1.067 0 2.834.364 3.614 1.742v-1.482h4.472V46H48.58v-1.482c-.729 1.352-2.548 1.742-3.614 1.742zm1.247-4.16c1.248 0 2.132-1.118 2.132-2.73 0-1.586-.883-2.756-2.132-2.756-1.248 0-2.132 1.17-2.132 2.756 0 1.612.885 2.73 2.133 2.73zm14.212 4.16c-2.548 0-4.212-1.638-4.212-4.55v-5.252h-1.95v-3.744h1.95v-2.392l4.732-1.17v3.562h2.938v3.744h-2.938v4.888c0 .624.312.832.728.832.39 0 .858-.182 1.196-.416l1.274 3.458c-1.144.806-2.548 1.04-3.718 1.04zm4.954-.26V32.714h4.732V46h-4.732zm2.34-14.3c-1.456 0-2.678-1.222-2.678-2.678 0-1.482 1.222-2.704 2.678-2.704 1.508 0 2.73 1.222 2.73 2.704 0 1.456-1.222 2.678-2.73 2.678zm9.353 14.56c-3.042 0-4.732-.91-5.512-1.586l1.508-3.328c1.04.702 2.002 1.118 4.03 1.118.052 0 1.3-.078 1.3-.598 0-.416-.78-.494-1.56-.676-2.886-.702-5.018-1.872-5.018-4.316 0-2.912 2.652-4.42 5.46-4.42 2.574 0 4.108.572 5.382 1.248l-1.404 3.172c-1.534-.598-2.938-.78-3.822-.78-.468 0-.832.156-.832.416 0 .494 1.118.676 2.444 1.04 1.872.546 4.134 1.456 4.134 4.134 0 3.562-3.614 4.576-6.11 4.576zm14.779-9.074v-8.034h3.536v8.034H91.85zm-5.928 0v-8.034h3.536v8.034h-3.536zM9.99 73.102V59.286h1.606v1.848c.792-1.386 2.354-2.068 4.092-2.068 2.97 0 5.06 2.442 5.06 5.566 0 3.124-2.09 5.588-5.06 5.588-1.694 0-3.234-.704-4.026-2.09v4.972H9.99zm5.324-4.51c2.134 0 3.718-1.672 3.718-3.96 0-2.266-1.584-3.938-3.718-3.938-2.046 0-3.652 1.694-3.652 3.938s1.606 3.96 3.652 3.96zm12.995 1.628c-3.146 0-5.632-2.464-5.632-5.566 0-3.124 2.486-5.588 5.632-5.588 3.146 0 5.632 2.464 5.632 5.588 0 3.102-2.486 5.566-5.632 5.566zm0-1.628c2.222 0 3.916-1.694 3.916-3.938 0-2.266-1.694-3.96-3.916-3.96s-3.916 1.694-3.916 3.96c0 2.244 1.694 3.938 3.916 3.938zm8 1.408V59.286h1.671v2.266c.616-1.408 2.002-2.486 4.136-2.486v1.826c-2.508 0-4.136 1.408-4.136 4.026V70h-1.672zm16.11.22c-1.891 0-3.013-.924-3.013-3.432v-6.116H47.8v-1.386h1.606v-2.31l1.672-.308v2.618h3.652v1.386h-3.652v6.16c0 1.474.638 1.892 1.496 1.892.99 0 1.76-.594 1.76-.594l.55 1.298c-.418.286-1.298.792-2.464.792zm8.168 0c-2.64 0-3.894-1.386-3.894-4.246v-6.688h1.672v6.468c0 2.002.968 2.838 2.706 2.838 1.936 0 3.058-1.584 3.058-3.234v-6.072H65.8V70h-1.606v-1.892c-.66 1.386-2.2 2.112-3.608 2.112zM9.99 94V83.286h1.672v1.826c.748-1.298 2.134-2.046 3.718-2.046 2.684 0 3.872 1.628 3.872 4.444V94H17.58v-6.27c0-1.98-.726-3.036-2.662-3.036-1.914 0-3.256 1.496-3.256 3.278V94H9.99zm15.026-12.43l1.782-2.926h1.826l-2.068 2.926h-1.54zm.594 12.65c-2.64 0-3.894-1.386-3.894-4.246v-6.688h1.672v6.468c0 2.002.968 2.838 2.706 2.838 1.936 0 3.058-1.584 3.058-3.234v-6.072h1.672V94h-1.606v-1.892c-.66 1.386-2.2 2.112-3.608 2.112zm8.034-.22V83.286h1.672v1.848c.594-1.166 1.936-2.068 3.432-2.068 1.716 0 2.926.748 3.432 2.266.77-1.562 2.442-2.266 3.696-2.266 2.574 0 3.938 1.496 3.938 4.444V94H48.12v-6.27c0-1.826-.638-3.036-2.596-3.036-1.804 0-2.948 1.452-2.948 3.058V94h-1.694v-6.27c0-1.826-.638-3.036-2.574-3.036-1.87 0-2.992 1.584-2.992 3.146V94h-1.672zm23.948.22c-3.036 0-5.61-2.178-5.61-5.566 0-3.102 2.332-5.588 5.39-5.588 2.86 0 5.126 2.464 5.126 5.522 0 .308-.044.638-.044.66H53.72c.264 2.134 1.914 3.476 3.894 3.476 1.21 0 2.42-.418 3.3-1.144l.726 1.232a6.556 6.556 0 01-4.048 1.408zm-3.872-6.248h7.128c-.176-1.98-1.694-3.41-3.564-3.41-1.826 0-3.322 1.408-3.564 3.41zM64.883 94V83.286h1.672v2.266c.616-1.408 2.002-2.486 4.136-2.486v1.826c-2.508 0-4.136 1.408-4.136 4.026V94h-1.672zm12.711.22c-3.146 0-5.632-2.464-5.632-5.566 0-3.124 2.486-5.588 5.632-5.588 3.146 0 5.632 2.464 5.632 5.588 0 3.102-2.486 5.566-5.632 5.566zm0-1.628c2.222 0 3.916-1.694 3.916-3.938 0-2.266-1.694-3.96-3.916-3.96s-3.916 1.694-3.916 3.96c0 2.244 1.694 3.938 3.916 3.938zm17.41 1.628c-2.97 0-5.06-2.464-5.06-5.566 0-3.146 2.09-5.588 5.06-5.588 1.717 0 3.235.704 4.027 2.09v-5.632h1.672V94h-1.606v-1.87c-.792 1.408-2.354 2.09-4.092 2.09zm.375-1.628c2.046 0 3.652-1.694 3.652-3.938s-1.606-3.96-3.652-3.96c-2.134 0-3.718 1.672-3.718 3.96 0 2.266 1.584 3.938 3.718 3.938zm13.303 1.628c-3.036 0-5.61-2.178-5.61-5.566 0-3.102 2.332-5.588 5.39-5.588 2.86 0 5.126 2.464 5.126 5.522 0 .308-.044.638-.044.66h-8.734c.264 2.134 1.914 3.476 3.894 3.476 1.21 0 2.42-.418 3.3-1.144l.726 1.232a6.556 6.556 0 01-4.048 1.408zm-3.872-6.248h7.128c-.176-1.98-1.694-3.41-3.564-3.41-1.826 0-3.322 1.408-3.564 3.41zM9.216 118v-17.496h4.374l3.429 4.914c.567.837 1.485 2.268 1.485 2.268s.918-1.431 1.485-2.268l3.429-4.914h4.374V118h-5.13v-8.856s-.891 1.431-1.377 2.106l-2.781 3.888-2.808-3.888c-.486-.675-1.35-2.052-1.35-2.052V118h-5.13zm29.156.27c-4.185 0-7.75-2.619-7.75-7.155 0-3.996 3.106-7.182 7.183-7.182 3.915 0 6.912 3.186 6.912 7.182 0 .837-.108 1.593-.108 1.593h-9.153c.405 1.296 1.62 1.782 2.943 1.782 1.16 0 2.403-.351 3.267-.837l1.647 3.321c-1.54.945-3.24 1.296-4.941 1.296zm-3.051-8.343h4.914c-.162-1.269-1.161-2.133-2.43-2.133-1.215 0-2.187.864-2.484 2.133zm17.47 8.343c-3.834 0-5.913-3.186-5.913-7.155 0-3.996 2.214-7.182 6.075-7.182 1.106 0 2.483.378 3.32 1.431v-5.13h4.914V118h-4.643v-1.539c-.73 1.404-2.646 1.809-3.753 1.809zm1.296-4.32c1.295 0 2.213-1.161 2.213-2.835 0-1.647-.917-2.862-2.213-2.862-1.297 0-2.215 1.215-2.215 2.862 0 1.674.919 2.835 2.215 2.835zm9.79 4.05v-13.797h4.914V118h-4.914zm2.43-14.85c-1.512 0-2.781-1.269-2.781-2.781 0-1.539 1.269-2.808 2.781-2.808 1.566 0 2.835 1.269 2.835 2.808 0 1.512-1.269 2.781-2.835 2.781zm12.358 15.12c-4.239 0-7.452-3.186-7.452-7.155 0-3.996 3.213-7.182 7.452-7.182 1.89 0 3.43.567 4.887 1.728l-2.835 3.402c-.513-.486-1.08-.81-1.917-.81-1.593 0-2.619 1.215-2.619 2.862 0 1.674 1 2.835 2.727 2.835.945 0 1.728-.405 2.322-.999l2.457 3.618c-1.323 1.107-3.078 1.701-5.022 1.701zm12.132 0c-3.834 0-5.913-3.186-5.913-7.155 0-3.996 2.08-7.182 5.913-7.182 1.107 0 2.943.378 3.753 1.809v-1.539h4.644V118H94.55v-1.539c-.756 1.404-2.646 1.809-3.753 1.809zm1.296-4.32c1.296 0 2.214-1.161 2.214-2.835 0-1.647-.918-2.862-2.214-2.862-1.296 0-2.214 1.215-2.214 2.862 0 1.674.918 2.835 2.214 2.835zm9.791 4.05v-13.797h4.779v2.457c.081-.594 1.269-2.727 4.509-2.727v5.346c-3.564 0-4.374 1.485-4.374 4.077V118h-4.914zm18.935.27c-4.185 0-7.749-2.619-7.749-7.155 0-3.996 3.105-7.182 7.182-7.182 3.915 0 6.912 3.186 6.912 7.182 0 .837-.108 1.593-.108 1.593h-9.153c.405 1.296 1.62 1.782 2.943 1.782 1.161 0 2.403-.351 3.267-.837l1.647 3.321c-1.539.945-3.24 1.296-4.941 1.296zm-3.051-8.343h4.914c-.162-1.269-1.161-2.133-2.43-2.133-1.215 0-2.187.864-2.484 2.133zm15.565-6.403c2.75 0 4.598 2.002 4.598 4.51 0 2.244-1.606 4.026-3.806 4.356l-.176 1.87h-1.43l-.198-2.97c2.42-.022 3.894-1.43 3.894-3.278 0-1.562-1.298-2.86-2.948-2.86-1.32 0-2.354.682-2.882 1.892l-1.386-.66c.682-1.782 2.244-2.86 4.334-2.86zm-.088 12.364c.638 0 1.166.528 1.166 1.166a1.16 1.16 0 01-1.166 1.166c-.66 0-1.166-.506-1.166-1.166 0-.638.528-1.166 1.166-1.166z" fill="#42443C"/></svg>