<svg width="272" height="95" viewBox="0 0 272 95" fill="none" xmlns="http://www.w3.org/2000/svg"><path d="M16.048 11.128V37H7.424V11.128H.34V3.824h22.792v7.304h-7.084zm17.105 3.3v12.716c0 2.787 1.35 4.18 4.048 4.18 2.699 0 4.048-1.393 4.048-4.18V14.428h7.964v14.256c0 3.05-1.012 5.339-3.036 6.864-1.995 1.525-4.987 2.288-8.976 2.288-3.99 0-6.996-.763-9.02-2.288-1.995-1.525-2.992-3.813-2.992-6.864V14.428h7.964zM44.857 4.352L37.2 11.128 33.505 8.4 39.797.7l5.06 3.652zm33.607 16.72V37H70.5V21.072h-2.64v-6.644h2.64V7.652h7.964v6.776h4.532v6.644h-4.532zm15.347 4.576c0 .733.132 1.423.396 2.068a5.56 5.56 0 001.056 1.628c.47.47 1.012.836 1.628 1.1a5.408 5.408 0 002.068.396 4.97 4.97 0 001.98-.396 4.56 4.56 0 001.628-1.1c.47-.47.836-1.012 1.1-1.628.294-.616.44-1.276.44-1.98s-.146-1.364-.44-1.98a5.016 5.016 0 00-1.1-1.672 4.56 4.56 0 00-1.628-1.1 4.97 4.97 0 00-1.98-.396c-.733 0-1.422.132-2.068.396a5.149 5.149 0 00-1.628 1.1 5.56 5.56 0 00-1.056 1.628 4.664 4.664 0 00-.396 1.936zm10.032-11.22h8.008V37h-8.008v-2.508c-1.701 2.141-4.004 3.212-6.908 3.212-1.642 0-3.153-.293-4.532-.88a11.211 11.211 0 01-3.608-2.552c-1.026-1.085-1.833-2.361-2.42-3.828-.557-1.467-.836-3.065-.836-4.796 0-1.613.28-3.139.836-4.576.558-1.467 1.335-2.743 2.332-3.828a10.724 10.724 0 013.564-2.552c1.38-.645 2.904-.968 4.576-.968 2.816 0 5.148.983 6.996 2.948v-2.244zm13.428 0h7.964V17.2c2.171-2.083 4.605-3.124 7.304-3.124 3.344 0 5.896 1.408 7.656 4.224 1.789-2.845 4.341-4.268 7.656-4.268a9.14 9.14 0 012.992.484 5.822 5.822 0 012.42 1.452c.675.645 1.203 1.496 1.584 2.552.411 1.056.616 2.332.616 3.828V37h-7.964V25.868c0-1.144-.088-2.083-.264-2.816-.147-.733-.381-1.305-.704-1.716-.293-.41-.645-.69-1.056-.836a3.898 3.898 0 00-1.32-.22c-2.552 0-3.828 1.863-3.828 5.588V37h-7.964V25.868c0-1.144-.073-2.083-.22-2.816-.147-.763-.367-1.364-.66-1.804-.264-.44-.616-.733-1.056-.88-.44-.176-.953-.264-1.54-.264-.499 0-.968.073-1.408.22-.44.147-.836.44-1.188.88-.323.41-.587.997-.792 1.76-.176.733-.264 1.701-.264 2.904V37h-7.964V14.428zm62.426 11.352c0-.704-.132-1.364-.396-1.98a4.521 4.521 0 00-1.056-1.672 5.037 5.037 0 00-1.672-1.1 4.648 4.648 0 00-2.024-.44c-.704 0-1.364.132-1.98.396a5.145 5.145 0 00-1.628 1.1 6.12 6.12 0 00-1.1 1.672 4.973 4.973 0 00-.396 1.98c0 .704.132 1.364.396 1.98.264.616.63 1.159 1.1 1.628a6.35 6.35 0 001.628 1.1c.645.264 1.32.396 2.024.396s1.364-.132 1.98-.396a4.658 4.658 0 001.584-1.1 5.154 5.154 0 001.1-1.628c.293-.616.44-1.261.44-1.936zm-10.032 22.484h-7.964V14.428h7.964v2.508c1.701-2.141 4.018-3.212 6.952-3.212 1.613 0 3.109.323 4.488.968a11.087 11.087 0 013.652 2.552c1.026 1.085 1.818 2.361 2.376 3.828.586 1.467.88 3.036.88 4.708 0 1.672-.294 3.227-.88 4.664a11.513 11.513 0 01-2.376 3.784 10.738 10.738 0 01-3.564 2.552c-1.379.616-2.875.924-4.488.924-2.816 0-5.163-.968-7.04-2.904v13.464zm30.411-22.66c0 .763.132 1.467.396 2.112.294.616.66 1.159 1.1 1.628.47.47 1.012.836 1.628 1.1.646.264 1.32.396 2.024.396s1.364-.132 1.98-.396a4.56 4.56 0 001.628-1.1c.47-.47.836-1.012 1.1-1.628.294-.645.44-1.335.44-2.068 0-.704-.146-1.364-.44-1.98a5.016 5.016 0 00-1.1-1.672 4.56 4.56 0 00-1.628-1.1 4.973 4.973 0 00-1.98-.396c-.704 0-1.378.132-2.024.396a5.157 5.157 0 00-1.628 1.1 6.372 6.372 0 00-1.1 1.628 4.973 4.973 0 00-.396 1.98zm-8.404-.088c0-1.672.338-3.227 1.012-4.664a11.228 11.228 0 012.816-3.784c1.203-1.085 2.626-1.936 4.268-2.552 1.672-.616 3.491-.924 5.456-.924 1.936 0 3.726.308 5.368.924 1.672.587 3.11 1.423 4.312 2.508a10.847 10.847 0 012.86 3.828c.675 1.467 1.012 3.095 1.012 4.884 0 1.79-.352 3.432-1.056 4.928a11.666 11.666 0 01-2.816 3.828c-1.202 1.056-2.654 1.877-4.356 2.464-1.672.587-3.49.88-5.456.88-1.936 0-3.725-.293-5.368-.88-1.642-.587-3.065-1.423-4.268-2.508a11.857 11.857 0 01-2.772-3.872c-.674-1.525-1.012-3.212-1.012-5.06zm48.717-3.784c-1.379-.939-2.772-1.408-4.18-1.408a5.86 5.86 0 00-2.156.396 5.163 5.163 0 00-1.716 1.144 5.124 5.124 0 00-1.188 1.716c-.264.645-.396 1.379-.396 2.2 0 .792.132 1.525.396 2.2a6.245 6.245 0 001.144 1.716c.498.47 1.085.836 1.76 1.1a5.86 5.86 0 002.156.396c1.496 0 2.889-.513 4.18-1.54v6.776c-1.966.85-3.828 1.276-5.588 1.276-1.643 0-3.212-.279-4.708-.836a12.4 12.4 0 01-3.916-2.376 12.274 12.274 0 01-2.684-3.74c-.675-1.467-1.012-3.095-1.012-4.884 0-1.79.322-3.417.968-4.884.645-1.496 1.525-2.772 2.64-3.828 1.114-1.085 2.434-1.921 3.96-2.508 1.554-.616 3.212-.924 4.972-.924 1.936 0 3.725.41 5.368 1.232v6.776zm12.066 3.872c0 .763.132 1.467.396 2.112.293.616.66 1.159 1.1 1.628.469.47 1.012.836 1.628 1.1.645.264 1.32.396 2.024.396s1.364-.132 1.98-.396a4.568 4.568 0 001.628-1.1 5.154 5.154 0 001.1-1.628c.293-.645.44-1.335.44-2.068 0-.704-.147-1.364-.44-1.98a5.032 5.032 0 00-1.1-1.672 4.568 4.568 0 00-1.628-1.1 4.973 4.973 0 00-1.98-.396c-.704 0-1.379.132-2.024.396a5.145 5.145 0 00-1.628 1.1 6.347 6.347 0 00-1.1 1.628 4.973 4.973 0 00-.396 1.98zm-8.404-.088c0-1.672.337-3.227 1.012-4.664a11.215 11.215 0 012.816-3.784c1.203-1.085 2.625-1.936 4.268-2.552 1.672-.616 3.491-.924 5.456-.924 1.936 0 3.725.308 5.368.924 1.672.587 3.109 1.423 4.312 2.508a10.86 10.86 0 012.86 3.828c.675 1.467 1.012 3.095 1.012 4.884 0 1.79-.352 3.432-1.056 4.928a11.68 11.68 0 01-2.816 3.828c-1.203 1.056-2.655 1.877-4.356 2.464-1.672.587-3.491.88-5.456.88-1.936 0-3.725-.293-5.368-.88-1.643-.587-3.065-1.423-4.268-2.508a11.857 11.857 0 01-2.772-3.872c-.675-1.525-1.012-3.212-1.012-5.06zM36.255 82.648c0 .733.132 1.423.396 2.068a5.56 5.56 0 001.056 1.628c.47.47 1.012.836 1.628 1.1a5.408 5.408 0 002.068.396c.704 0 1.364-.132 1.98-.396a4.566 4.566 0 001.628-1.1c.47-.47.836-1.012 1.1-1.628.293-.616.44-1.276.44-1.98s-.147-1.364-.44-1.98a5.027 5.027 0 00-1.1-1.672 4.566 4.566 0 00-1.628-1.1 4.973 4.973 0 00-1.98-.396c-.704 0-1.379.132-2.024.396a5.149 5.149 0 00-1.628 1.1 6.354 6.354 0 00-1.1 1.628 4.664 4.664 0 00-.396 1.936zM46.287 57.48h8.008V94h-8.008v-2.508c-1.702 2.141-4.004 3.212-6.908 3.212-1.643 0-3.154-.308-4.532-.924a11.21 11.21 0 01-3.608-2.552c-1.027-1.085-1.834-2.361-2.42-3.828-.558-1.467-.836-3.05-.836-4.752 0-1.613.264-3.139.792-4.576.557-1.467 1.334-2.743 2.332-3.828a10.724 10.724 0 013.564-2.552c1.408-.645 2.948-.968 4.62-.968 2.816 0 5.148.983 6.996 2.948V57.48zm29.927 21.956c-.264-1.115-.806-2.01-1.628-2.684-.821-.675-1.818-1.012-2.992-1.012-1.232 0-2.244.323-3.036.968-.762.645-1.246 1.555-1.452 2.728h9.108zm-9.328 4.62c0 3.432 1.614 5.148 4.84 5.148 1.731 0 3.036-.704 3.916-2.112h7.7c-1.554 5.163-5.441 7.744-11.66 7.744-1.906 0-3.652-.279-5.236-.836-1.584-.587-2.948-1.408-4.092-2.464a11.028 11.028 0 01-2.596-3.784c-.616-1.467-.924-3.11-.924-4.928 0-1.877.294-3.564.88-5.06.587-1.525 1.423-2.816 2.508-3.872 1.086-1.056 2.391-1.863 3.916-2.42 1.555-.587 3.3-.88 5.236-.88 1.907 0 3.623.293 5.148.88 1.526.557 2.816 1.379 3.872 2.464s1.863 2.42 2.42 4.004c.558 1.555.836 3.315.836 5.28v.836H66.886zM106.2 82.78c0-.704-.132-1.364-.396-1.98a5.032 5.032 0 00-1.1-1.672 5.157 5.157 0 00-1.628-1.1 4.648 4.648 0 00-2.024-.44c-.704 0-1.364.132-1.98.396a5.149 5.149 0 00-1.628 1.1 6.126 6.126 0 00-1.1 1.672 4.973 4.973 0 00-.396 1.98c0 .704.132 1.364.396 1.98.264.616.63 1.159 1.1 1.628.469.44 1.012.807 1.628 1.1.645.264 1.32.396 2.024.396s1.364-.132 1.98-.396a4.658 4.658 0 001.584-1.1 5.154 5.154 0 001.1-1.628c.293-.616.44-1.261.44-1.936zm-10.032-25.3v16.192c1.877-1.965 4.224-2.948 7.04-2.948 1.672 0 3.197.323 4.576.968 1.408.616 2.596 1.467 3.564 2.552.997 1.056 1.774 2.317 2.332 3.784.557 1.437.836 2.977.836 4.62 0 1.672-.294 3.241-.88 4.708-.558 1.467-1.35 2.743-2.376 3.828a11.658 11.658 0 01-3.652 2.596c-1.379.616-2.875.924-4.488.924-2.934 0-5.251-1.07-6.952-3.212V94h-7.964V57.48h7.964zm39.387 21.956c-.264-1.115-.806-2.01-1.628-2.684-.821-.675-1.818-1.012-2.992-1.012-1.232 0-2.244.323-3.036.968-.762.645-1.246 1.555-1.452 2.728h9.108zm-9.328 4.62c0 3.432 1.614 5.148 4.84 5.148 1.731 0 3.036-.704 3.916-2.112h7.7c-1.554 5.163-5.441 7.744-11.66 7.744-1.906 0-3.652-.279-5.236-.836-1.584-.587-2.948-1.408-4.092-2.464a11.036 11.036 0 01-2.596-3.784c-.616-1.467-.924-3.11-.924-4.928 0-1.877.294-3.564.88-5.06.587-1.525 1.423-2.816 2.508-3.872 1.086-1.056 2.391-1.863 3.916-2.42 1.555-.587 3.3-.88 5.236-.88 1.907 0 3.623.293 5.148.88 1.526.557 2.816 1.379 3.872 2.464s1.863 2.42 2.42 4.004c.558 1.555.836 3.315.836 5.28v.836h-16.764zm21.316-12.628h7.964v3.696c.851-1.35 1.892-2.376 3.124-3.08 1.232-.733 2.67-1.1 4.312-1.1h.66c.264 0 .558.03.88.088v7.612a7.567 7.567 0 00-3.432-.792c-1.848 0-3.241.557-4.18 1.672-.909 1.085-1.364 2.684-1.364 4.796V94h-7.964V71.428zm28.418 0V94h-7.964V71.428h7.964zm3.696-10.076L172 68.128l-3.696-2.728 6.292-7.7 5.06 3.652zm9.138 21.296c0 .733.132 1.423.396 2.068a5.56 5.56 0 001.056 1.628c.469.47 1.012.836 1.628 1.1a5.405 5.405 0 002.068.396c.704 0 1.364-.132 1.98-.396a4.568 4.568 0 001.628-1.1 5.154 5.154 0 001.1-1.628c.293-.616.44-1.276.44-1.98s-.147-1.364-.44-1.98a5.032 5.032 0 00-1.1-1.672 4.568 4.568 0 00-1.628-1.1 4.973 4.973 0 00-1.98-.396c-.734 0-1.423.132-2.068.396a5.145 5.145 0 00-1.628 1.1 5.56 5.56 0 00-1.056 1.628 4.664 4.664 0 00-.396 1.936zm10.032-11.22h8.008V94h-8.008v-2.508c-1.702 2.141-4.004 3.212-6.908 3.212-1.643 0-3.154-.293-4.532-.88a11.2 11.2 0 01-3.608-2.552c-1.027-1.085-1.834-2.361-2.42-3.828-.558-1.467-.836-3.065-.836-4.796 0-1.613.278-3.139.836-4.576.557-1.467 1.334-2.743 2.332-3.828a10.718 10.718 0 013.564-2.552c1.378-.645 2.904-.968 4.576-.968 2.816 0 5.148.983 6.996 2.948v-2.244zm28.387 5.808c-1.466-.763-2.904-1.144-4.312-1.144-.733 0-1.334.147-1.804.44-.44.293-.66.69-.66 1.188 0 .264.03.484.088.66.088.147.25.293.484.44.264.147.631.279 1.1.396.499.117 1.144.264 1.936.44 2.2.44 3.843 1.232 4.928 2.376 1.086 1.115 1.628 2.552 1.628 4.312 0 1.32-.264 2.508-.792 3.564a7.782 7.782 0 01-2.2 2.684c-.938.704-2.068 1.247-3.388 1.628-1.32.41-2.772.616-4.356.616-3.05 0-6.057-.865-9.02-2.596l2.904-5.632c2.23 1.525 4.342 2.288 6.336 2.288.734 0 1.335-.161 1.804-.484.47-.323.704-.733.704-1.232 0-.293-.044-.528-.132-.704-.058-.205-.205-.381-.44-.528-.234-.176-.586-.323-1.056-.44a15.185 15.185 0 00-1.76-.44c-2.464-.499-4.194-1.232-5.192-2.2-.968-.997-1.452-2.361-1.452-4.092 0-1.261.235-2.39.704-3.388a7.02 7.02 0 012.024-2.596c.88-.704 1.936-1.247 3.168-1.628 1.262-.381 2.655-.572 4.18-.572 2.494 0 4.914.484 7.26 1.452l-2.684 5.192zm7.031 12.54c0-.704.132-1.364.396-1.98a5.032 5.032 0 011.1-1.672 5.145 5.145 0 011.628-1.1 5.294 5.294 0 012.024-.396c.704 0 1.364.132 1.98.396.645.264 1.203.63 1.672 1.1.469.47.836 1.027 1.1 1.672.264.616.396 1.276.396 1.98s-.132 1.379-.396 2.024a5.154 5.154 0 01-1.1 1.628 5.027 5.027 0 01-1.672 1.1 4.973 4.973 0 01-1.98.396 5.294 5.294 0 01-2.024-.396 5.154 5.154 0 01-2.728-2.728 5.295 5.295 0 01-.396-2.024z" fill="#fff"/></svg>