<svg width="269" height="111" viewBox="0 0 269 111" fill="none" xmlns="http://www.w3.org/2000/svg"><path d="M28.532 23.348l2.788-.306-1.224-3.536h-8.432l-1.19 3.536 2.686.306V26h-9.486v-2.652l1.496-.374c.408-.102.714-.238.85-.646l7.446-20.944h6.018l7.412 21.012c.136.408.408.476.816.578l1.564.374V26H28.532v-2.652zM25.846 6.586l-3.128 9.248h6.358L26.05 6.586h-.204zm14.715 23.902l1.36-.204c.476-.068.612-.204.612-.714V12.4c0-.374-.068-.578-.442-.714l-1.802-.646.374-2.754h5.984l.306 1.734.17.068c1.632-1.326 3.842-2.142 5.78-2.142 3.808 0 6.528 2.38 6.528 8.704 0 4.08-1.394 9.758-7.004 9.758-1.768 0-3.366-.578-4.794-1.7v4.828c0 .544.034.646.544.68l3.468.306v2.686H40.561v-2.72zm7.072-9.35c.748.646 1.938 1.292 3.196 1.292 2.278 0 3.23-2.176 3.23-5.508 0-3.502-1.19-4.93-2.89-4.93-1.428 0-2.788.714-3.536 1.224v7.922zm14.22 2.108l1.53-.204c.476-.068.544-.17.544-.68V12.4c0-.374-.102-.612-.442-.714l-1.836-.646.374-2.754h5.984l.408 2.72h.204c1.122-1.734 2.618-3.06 4.794-3.06.782 0 2.346.136 2.958.306v6.188l-4.08-.136-.34-1.802c-.068-.306-.17-.374-.442-.374-.884 0-1.938.748-2.448 1.19v9.01c0 .544.034.646.544.68l3.366.272V26H61.853v-2.754zm32.054 1.428c-2.108 1.02-4.42 1.734-6.97 1.734-6.562 0-8.806-4.08-8.806-9.384 0-6.154 3.774-9.078 8.432-9.078 4.488 0 7.48 2.346 7.48 8.228 0 .408-.034 1.598-.068 2.278H83.571c.17 2.414 1.224 4.012 4.012 4.012 1.326 0 2.754-.306 5.066-1.156l1.258 3.366zm-4.896-9.452c-.034-2.856-1.156-3.604-2.55-3.604-1.462 0-2.652.816-2.856 3.604h5.406zm19.836-.204c0-1.632-.102-2.992-1.802-2.992-1.258 0-2.822.714-3.536 1.258v9.112c0 .544.034.612.544.68l1.632.238V26h-9.384v-2.72l1.53-.204c.476-.068.544-.17.544-.68V12.4c0-.374-.102-.612-.442-.714l-1.836-.646.408-2.754h5.95l.272 1.768.136.068c1.7-1.258 3.672-2.176 5.984-2.176 3.706 0 5.134 2.04 5.134 5.78v8.67c0 .544.034.612.544.68l1.7.238V26h-7.378V15.018zm21.726 9.078l-.238-.034c-1.428 1.394-3.094 2.346-5.576 2.346-4.012 0-6.596-2.55-6.596-9.044 0-6.834 3.434-9.418 7.208-9.418 1.972 0 3.502.68 4.794 1.632V4.41c0-.34-.136-.578-.442-.68l-1.87-.646.374-2.754h6.834v22.1c0 .51.034.578.544.646l1.632.238V26h-6.324l-.34-1.904zm-.612-11.186c-.85-.578-1.938-1.02-2.924-1.02-2.516 0-3.502 2.346-3.502 5.372 0 3.298.952 5.134 3.094 5.134 1.156 0 2.414-.68 3.332-1.462V12.91zm24.566 11.764c-2.108 1.02-4.42 1.734-6.97 1.734-6.562 0-8.806-4.08-8.806-9.384 0-6.154 3.774-9.078 8.432-9.078 4.488 0 7.48 2.346 7.48 8.228 0 .408-.034 1.598-.068 2.278h-10.404c.17 2.414 1.224 4.012 4.012 4.012 1.326 0 2.754-.306 5.066-1.156l1.258 3.366zm-4.896-9.452c-.034-2.856-1.156-3.604-2.55-3.604-1.462 0-2.652.816-2.856 3.604h5.406zm24.77-3.366c-.068-.306-.102-.408-.34-.476-.442-.136-1.258-.272-2.176-.272-1.7 0-2.652.646-2.652 1.734 0 1.394 1.87 1.7 3.944 2.176 2.686.612 5.712 1.564 5.712 5.542 0 4.148-3.366 5.848-7.684 5.848-3.094 0-6.12-.816-6.732-1.224v-4.93l3.638.272.34 1.938c.068.306.102.408.408.51.408.136 1.326.34 2.618.34 1.802 0 2.822-.51 2.822-1.768 0-1.36-1.36-1.768-3.094-2.074-2.856-.51-6.596-1.122-6.596-5.576 0-4.216 3.604-5.95 7.514-5.95 2.686 0 5.304.612 6.256.986v4.93l-3.638-.238-.34-1.768zm15.413 14.552c-6.222 0-8.738-3.808-8.738-9.146 0-5.644 2.958-9.316 9.18-9.316 6.29 0 8.738 3.74 8.738 8.942 0 5.78-2.924 9.52-9.18 9.52zm.238-3.57c2.21 0 3.57-1.53 3.57-5.78 0-4.012-1.224-5.44-3.434-5.44-2.244 0-3.74 1.394-3.74 5.474 0 4.114 1.326 5.746 3.604 5.746zM202.029 26c.238-1.53.51-3.298.51-4.964V4.444c0-.374-.102-.612-.442-.714l-1.87-.646.374-2.754h7.004v9.418l.136.034c1.462-1.19 3.06-1.836 5.134-1.836 3.672 0 6.562 2.38 6.562 8.704 0 7.004-2.958 9.758-7.14 9.758-2.244 0-3.944-.952-4.998-2.142l-.17.034-.238 1.7h-4.862zm5.61-4.896c.782.714 1.938 1.326 3.128 1.326 2.244 0 3.298-2.108 3.298-5.508 0-2.652-.85-4.964-3.128-4.964-1.224 0-2.482.646-3.298 1.19v7.956zm14.225 2.142l1.53-.204c.476-.068.544-.17.544-.68V12.4c0-.374-.102-.612-.442-.714l-1.836-.646.374-2.754h5.984l.408 2.72h.204c1.122-1.734 2.618-3.06 4.794-3.06.782 0 2.346.136 2.958.306v6.188l-4.08-.136-.34-1.802c-.068-.306-.17-.374-.442-.374-.884 0-1.938.748-2.448 1.19v9.01c0 .544.034.646.544.68l3.366.272V26h-11.118v-2.754zm32.054 1.428c-2.108 1.02-4.42 1.734-6.97 1.734-6.562 0-8.806-4.08-8.806-9.384 0-6.154 3.774-9.078 8.432-9.078 4.488 0 7.48 2.346 7.48 8.228 0 .408-.034 1.598-.068 2.278h-10.404c.17 2.414 1.224 4.012 4.012 4.012 1.326 0 2.754-.306 5.066-1.156l1.258 3.366zm-4.896-9.452c-.034-2.856-1.156-3.604-2.55-3.604-1.462 0-2.652.816-2.856 3.604h5.406zM48.593 65.314l1.7-.238c.476-.068.544-.17.544-.68V46.444c0-.374-.102-.612-.442-.714l-1.87-.646.374-2.754h7.072v22.066c0 .544.034.612.544.68l1.666.238V68h-9.588v-2.686zm22.352.85l-.17-.034c-1.292 1.258-2.992 2.278-5.712 2.278-4.284 0-4.964-2.924-4.964-5.032 0-3.4 2.074-4.93 6.358-5.236l3.91-.272v-1.87c0-1.598-.17-2.686-2.278-2.686-1.632 0-2.482.238-2.482 2.278l-4.794-.408c0-4.59 4.182-5.236 7.31-5.236 5.168 0 7.242 1.394 7.242 6.154v8.262c0 .544.034.612.544.68l1.632.272V68h-6.256l-.34-1.836zm-2.89-5.304c-2.006.136-2.72.646-2.72 2.006 0 1.36.816 1.87 1.938 1.87 1.156 0 2.312-.646 3.094-1.224V60.69l-2.312.17zm21.14-7.004c-.068-.306-.102-.408-.34-.476-.442-.136-1.258-.272-2.176-.272-1.7 0-2.652.646-2.652 1.734 0 1.394 1.87 1.7 3.944 2.176 2.686.612 5.712 1.564 5.712 5.542 0 4.148-3.366 5.848-7.684 5.848-3.094 0-6.12-.816-6.732-1.224v-4.93l3.638.272.34 1.938c.068.306.102.408.408.51.408.136 1.326.34 2.618.34 1.802 0 2.822-.51 2.822-1.768 0-1.36-1.36-1.768-3.094-2.074-2.856-.51-6.596-1.122-6.596-5.576 0-4.216 3.604-5.95 7.514-5.95 2.686 0 5.304.612 6.256.986v4.93l-3.638-.238-.34-1.768zm29.664 12.818c-2.108 1.02-4.42 1.734-6.97 1.734-6.562 0-8.806-4.08-8.806-9.384 0-6.154 3.774-9.078 8.432-9.078 4.488 0 7.48 2.346 7.48 8.228 0 .408-.034 1.598-.068 2.278h-10.404c.17 2.414 1.224 4.012 4.012 4.012 1.326 0 2.754-.306 5.066-1.156l1.258 3.366zm-4.896-9.452c-.034-2.856-1.156-3.604-2.55-3.604-1.462 0-2.652.816-2.856 3.604h5.406zm17.358-3.366c-.068-.306-.102-.408-.34-.476-.442-.136-1.258-.272-2.176-.272-1.7 0-2.652.646-2.652 1.734 0 1.394 1.87 1.7 3.944 2.176 2.686.612 5.712 1.564 5.712 5.542 0 4.148-3.366 5.848-7.684 5.848-3.094 0-6.12-.816-6.732-1.224v-4.93l3.638.272.34 1.938c.068.306.102.408.408.51.408.136 1.326.34 2.618.34 1.802 0 2.822-.51 2.822-1.768 0-1.36-1.36-1.768-3.094-2.074-2.856-.51-6.596-1.122-6.596-5.576 0-4.216 3.604-5.95 7.514-5.95 2.686 0 5.304.612 6.256.986v4.93l-3.638-.238-.34-1.768zm19.798 13.192c-1.462.714-3.604 1.36-5.542 1.36-4.046 0-5.576-1.632-5.576-5.474v-8.908c0-.204 0-.34-.272-.34h-2.38V50.66c2.992-.34 4.182-1.836 4.556-5.542h3.23v4.828c0 .238 0 .34.272.34h4.794v3.4h-5.066v8.126c0 2.006.476 2.788 2.312 2.788.952 0 1.938-.238 2.754-.544l.918 2.992zm12.577-.884l-.17-.034c-1.292 1.258-2.992 2.278-5.712 2.278-4.284 0-4.964-2.924-4.964-5.032 0-3.4 2.074-4.93 6.358-5.236l3.91-.272v-1.87c0-1.598-.17-2.686-2.278-2.686-1.632 0-2.482.238-2.482 2.278l-4.794-.408c0-4.59 4.182-5.236 7.31-5.236 5.168 0 7.242 1.394 7.242 6.154v8.262c0 .544.034.612.544.68l1.632.272V68h-6.256l-.34-1.836zm-2.89-5.304c-2.006.136-2.72.646-2.72 2.006 0 1.36.816 1.87 1.938 1.87 1.156 0 2.312-.646 3.094-1.224V60.69l-2.312.17zm11.106 4.42l1.904-.204c.476-.068.544-.204.544-.714V54.026c0-.204 0-.34-.272-.34h-2.278v-3.4h2.55v-1.87c0-4.59 2.584-6.494 7.276-6.494 3.162 0 6.086.782 6.086 4.896l-4.76.578c.034-1.734-.442-2.142-1.564-2.142-1.7 0-1.904.918-1.904 2.55v2.142c0 .238 0 .34.272.34h5.372v3.4h-5.644V64.26c0 .544.102.646.612.68l4.148.374V68h-12.342v-2.72zm25.202.884l-.17-.034c-1.292 1.258-2.992 2.278-5.712 2.278-4.284 0-4.964-2.924-4.964-5.032 0-3.4 2.074-4.93 6.358-5.236l3.91-.272v-1.87c0-1.598-.17-2.686-2.278-2.686-1.632 0-2.482.238-2.482 2.278l-4.794-.408c0-4.59 4.182-5.236 7.31-5.236 5.168 0 7.242 1.394 7.242 6.154v8.262c0 .544.034.612.544.68l1.632.272V68h-6.256l-.34-1.836zm-2.89-5.304c-2.006.136-2.72.646-2.72 2.006 0 1.36.816 1.87 1.938 1.87 1.156 0 2.312-.646 3.094-1.224V60.69l-2.312.17zm21.141-7.004c-.068-.306-.102-.408-.34-.476-.442-.136-1.258-.272-2.176-.272-1.7 0-2.652.646-2.652 1.734 0 1.394 1.87 1.7 3.944 2.176 2.686.612 5.712 1.564 5.712 5.542 0 4.148-3.366 5.848-7.684 5.848-3.094 0-6.12-.816-6.732-1.224v-4.93l3.638.272.34 1.938c.068.306.102.408.408.51.408.136 1.326.34 2.618.34 1.802 0 2.822-.51 2.822-1.768 0-1.36-1.36-1.768-3.094-2.074-2.856-.51-6.596-1.122-6.596-5.576 0-4.216 3.604-5.95 7.514-5.95 2.686 0 5.304.612 6.256.986v4.93l-3.638-.238-.34-1.768zm-200.37 54.923c-1.519.924-3.862 1.617-6.27 1.617-5.974 0-8.647-3.729-8.647-8.745 0-6.171 3.762-9.174 9.042-9.174 2.574 0 4.851.726 5.874 1.386v5.181l-3.53-.165-.397-2.178c-.033-.231-.099-.429-.396-.528-.396-.132-1.023-.231-1.683-.231-1.98 0-3.663 1.353-3.663 5.214 0 4.29 1.914 5.511 4.257 5.511 1.65 0 3.135-.528 4.125-.957l1.287 3.069zm10.297 1.617c-6.039 0-8.48-3.696-8.48-8.877 0-5.478 2.87-9.042 8.91-9.042 6.104 0 8.48 3.63 8.48 8.679 0 5.61-2.838 9.24-8.91 9.24zm.231-3.465c2.145 0 3.465-1.485 3.465-5.61 0-3.894-1.188-5.28-3.333-5.28-2.178 0-3.63 1.353-3.63 5.313 0 3.993 1.287 5.577 3.498 5.577zm22.84-7.59c0-1.584-.099-2.904-1.748-2.904-1.221 0-2.74.693-3.433 1.221v8.844c0 .528.033.594.529.66l1.584.231V110h-9.108v-2.64l1.485-.198c.462-.066.528-.165.528-.66V96.8c0-.363-.1-.594-.43-.693l-1.782-.627.397-2.673h5.775l.264 1.716.132.066c1.65-1.221 3.564-2.112 5.808-2.112 3.597 0 4.983 1.98 4.983 5.61v8.415c0 .528.033.594.527.66l1.65.231V110h-7.16V99.341zm21.356 9.735c-1.419.693-3.498 1.32-5.379 1.32-3.927 0-5.412-1.584-5.412-5.313v-8.646c0-.198 0-.33-.264-.33h-2.31V93.17c2.904-.33 4.06-1.782 4.422-5.379h3.135v4.686c0 .231 0 .33.264.33h4.653v3.3h-4.917v7.887c0 1.947.462 2.706 2.244 2.706.924 0 1.881-.231 2.673-.528l.891 2.904zm1.932-1.749l1.485-.198c.462-.066.528-.165.528-.66V96.8c0-.363-.099-.594-.429-.693l-1.782-.627.363-2.673h5.808l.396 2.64h.198c1.09-1.683 2.541-2.97 4.653-2.97.76 0 2.277.132 2.871.297v6.006l-3.96-.132-.33-1.749c-.066-.297-.165-.363-.429-.363-.858 0-1.88.726-2.376 1.155v8.745c0 .528.033.627.528.66l3.267.264V110h-10.79v-2.673zm25.848.891l-.165-.033c-1.254 1.221-2.904 2.211-5.544 2.211-4.158 0-4.818-2.838-4.818-4.884 0-3.3 2.013-4.785 6.171-5.082l3.795-.264v-1.815c0-1.551-.165-2.607-2.211-2.607-1.584 0-2.409.231-2.409 2.211l-4.653-.396c0-4.455 4.059-5.082 7.095-5.082 5.016 0 7.029 1.353 7.029 5.973v8.019c0 .528.033.594.528.66l1.584.264V110h-6.072l-.33-1.782zm-2.805-5.148c-1.947.132-2.64.627-2.64 1.947s.792 1.815 1.881 1.815c1.122 0 2.244-.627 3.003-1.188v-2.739l-2.244.165zm36.623 4.356l2.706-.231c.495-.033.528-.198.528-.66v-12.54h-.132l-4.719 11.253h-5.379l-4.653-11.286h-.165v12.54c0 .528.066.627.528.66l2.838.264V110h-10.032v-2.574l2.079-.231c.462-.066.528-.165.528-.66V89.606c0-.495-.066-.594-.528-.66l-2.079-.231v-2.607h8.844l5.742 14.949h.132l6.039-14.949h8.58v2.574l-2.211.264c-.495.066-.528.132-.528.627v16.962c0 .429.099.561.528.627l2.211.264V110h-10.857v-2.574zm28.22 1.287c-2.046.99-4.29 1.683-6.765 1.683-6.369 0-8.547-3.96-8.547-9.108 0-5.973 3.663-8.811 8.184-8.811 4.356 0 7.26 2.277 7.26 7.986 0 .396-.033 1.551-.066 2.211h-10.098c.165 2.343 1.188 3.894 3.894 3.894 1.287 0 2.673-.297 4.917-1.122l1.221 3.267zm-4.752-9.174c-.033-2.772-1.122-3.498-2.475-3.498-1.419 0-2.574.792-2.772 3.498h5.247zm19.32 8.613l-.231-.033c-1.386 1.353-3.003 2.277-5.412 2.277-3.894 0-6.402-2.475-6.402-8.778 0-6.633 3.333-9.141 6.996-9.141 1.914 0 3.399.66 4.653 1.584v-5.016c0-.33-.132-.561-.429-.66l-1.815-.627.363-2.673h6.633v21.45c0 .495.033.561.528.627l1.584.231V110h-6.138l-.33-1.848zm-.594-10.857c-.825-.561-1.881-.99-2.838-.99-2.442 0-3.399 2.277-3.399 5.214 0 3.201.924 4.983 3.003 4.983 1.122 0 2.343-.66 3.234-1.419v-7.788zm15.818-10.098c0 1.881-1.089 2.97-3.003 2.97-1.881 0-2.97-1.089-2.97-2.97 0-1.881 1.089-2.904 2.97-2.904 1.914 0 3.003 1.023 3.003 2.904zm-7.26 20.196l1.683-.231c.462-.066.528-.165.528-.66V96.8c0-.363-.099-.594-.429-.693l-1.782-.627.363-2.673h6.831v13.695c0 .528.033.594.528.66l1.683.231V110h-9.405v-2.607zm25.918 1.386c-1.518.924-3.861 1.617-6.27 1.617-5.973 0-8.646-3.729-8.646-8.745 0-6.171 3.762-9.174 9.042-9.174 2.574 0 4.851.726 5.874 1.386v5.181l-3.531-.165-.396-2.178c-.033-.231-.099-.429-.396-.528-.396-.132-1.023-.231-1.683-.231-1.98 0-3.663 1.353-3.663 5.214 0 4.29 1.914 5.511 4.257 5.511 1.65 0 3.135-.528 4.125-.957l1.287 3.069zm12.51-.561l-.165-.033c-1.254 1.221-2.904 2.211-5.544 2.211-4.158 0-4.818-2.838-4.818-4.884 0-3.3 2.013-4.785 6.171-5.082l3.795-.264v-1.815c0-1.551-.165-2.607-2.211-2.607-1.584 0-2.409.231-2.409 2.211l-4.653-.396c0-4.455 4.059-5.082 7.095-5.082 5.016 0 7.029 1.353 7.029 5.973v8.019c0 .528.033.594.528.66l1.584.264V110h-6.072l-.33-1.782zm-2.805-5.148c-1.947.132-2.64.627-2.64 1.947s.792 1.815 1.881 1.815c1.122 0 2.244-.627 3.003-1.188v-2.739l-2.244.165zm10.747 4.257l1.485-.198c.462-.066.528-.165.528-.66V96.8c0-.363-.099-.594-.429-.693l-1.782-.627.363-2.673h5.808l.396 2.64h.198c1.089-1.683 2.541-2.97 4.653-2.97.759 0 2.277.132 2.871.297v6.006l-3.96-.132-.33-1.749c-.066-.297-.165-.363-.429-.363-.858 0-1.881.726-2.376 1.155v8.745c0 .528.033.627.528.66l3.267.264V110h-10.791v-2.673zm31.111 1.386c-2.046.99-4.29 1.683-6.765 1.683-6.369 0-8.547-3.96-8.547-9.108 0-5.973 3.663-8.811 8.184-8.811 4.356 0 7.26 2.277 7.26 7.986 0 .396-.033 1.551-.066 2.211h-10.098c.165 2.343 1.188 3.894 3.894 3.894 1.287 0 2.673-.297 4.917-1.122l1.221 3.267zm-4.752-9.174c-.033-2.772-1.122-3.498-2.475-3.498-1.419 0-2.574.792-2.772 3.498h5.247zm13.349 8.283c0 1.683-.924 2.574-2.805 2.574-1.914 0-2.838-.858-2.838-2.574 0-1.683.924-2.574 2.838-2.574 1.848 0 2.805.891 2.805 2.574z" fill="#fff"/></svg>