<svg width="320" height="20" viewBox="0 0 320 20" fill="none" xmlns="http://www.w3.org/2000/svg"><path fill="#8F3FB0" d="M0 0h320v20H0z"/><path d="M18.051 14.144c-1.968 0-3.468-1.092-3.468-3.228V6.224h2.28v4.56c0 .936.54 1.296 1.188 1.296.648 0 1.188-.36 1.188-1.296v-4.56h2.28v4.692c0 2.136-1.5 3.228-3.468 3.228zm7.64-.144V6.224h1.98l2.471 3.444c.18.24.348.588.348.588V6.224h2.28V14h-1.98l-2.472-3.384c-.18-.24-.348-.588-.348-.588V14h-2.28zm16.822 0V6.224h1.944l1.524 2.184c.252.372.66 1.008.66 1.008s.408-.636.66-1.008l1.524-2.184h1.944V14h-2.28v-3.936s-.396.636-.612.936l-1.236 1.728L45.393 11c-.216-.3-.6-.912-.6-.912V14h-2.28zm12.454 0V6.224h6.18v1.932h-3.9v.948h3.744v1.908h-3.744v1.056h4.044V14h-6.324zm10.11 0V6.224h1.98l2.472 3.444c.18.24.348.588.348.588V6.224h2.28V14h-1.98l-2.472-3.384c-.18-.24-.348-.588-.348-.588V14h-2.28zm14.27.144c-2.183 0-3.035-.84-3.275-.936l.744-1.776c.6.336 1.284.708 2.532.708.24 0 .936-.072.936-.48 0-.372-.492-.432-.936-.54-1.5-.336-3.072-.912-3.072-2.664 0-1.62 1.476-2.352 3.072-2.352 1.284 0 2.22.324 3.012.792l-.768 1.764c-.456-.312-1.488-.564-2.244-.564-.192 0-.696.048-.696.36 0 .276.288.396.696.492 1.164.252 3.312.72 3.312 2.712 0 1.776-1.704 2.484-3.312 2.484zM86.106 14l3.144-7.776h2.352L94.745 14h-2.328l-.36-1.008h-3.264L88.433 14h-2.328zm3.3-2.76h2.04l-.924-2.628c-.072-.192-.084-.264-.096-.312 0 0-.024.108-.096.312l-.924 2.628zm11.632 2.904c-1.188 0-2.412-.456-3.048-1.764l1.512-1.26c.372.768.864.96 1.548.96.804 0 1.248-.48 1.248-1.332V6.224h2.28v4.452c0 2.244-1.26 3.468-3.54 3.468zm7.717-.144V6.224h6.18v1.932h-3.9v.948h3.744v1.908h-3.744v1.056h4.044V14h-6.324zm19.574.144c-2.496 0-4.164-1.788-4.164-4.032 0-2.22 1.668-4.008 4.164-4.008 2.496 0 4.176 1.788 4.176 4.008 0 2.244-1.68 4.032-4.176 4.032zm0-2.064c1.056 0 1.8-.816 1.8-1.968 0-1.128-.744-1.944-1.8-1.944-.984 0-1.788.816-1.788 1.944 0 1.152.744 1.968 1.788 1.968zM136.46 14V6.224h6v1.932h-3.72v.948h3.252v1.908h-3.252V14h-2.28zm9.595 0V6.224h2.28V14h-2.28zm10.354.144c-2.472 0-4.116-1.788-4.116-4.032 0-2.22 1.644-4.008 4.116-4.008 1.188 0 2.256.42 2.964 1.128l-1.5 1.548c-.552-.564-.996-.612-1.368-.612-1.008 0-1.836.816-1.836 1.944 0 1.152.768 1.968 1.836 1.968.636 0 1.224-.288 1.656-.864l1.452 1.596c-.78.864-1.872 1.332-3.204 1.332zm6.902-.144V6.224h2.28V14h-2.28zm5.914 0l3.144-7.776h2.352L177.865 14h-2.328l-.36-1.008h-3.264l-.36 1.008h-2.328zm3.3-2.76h2.04l-.924-2.628c-.072-.192-.084-.264-.096-.312 0 0-.024.108-.096.312l-.924 2.628zm8.98 2.76V6.224h2.28v5.844h4.14V14h-6.42zm15.803 0V6.224h3.24c2.604 0 4.236 1.764 4.236 3.888 0 2.124-1.632 3.888-4.236 3.888h-3.24zm2.28-1.932h.876c1.164 0 1.908-.828 1.908-1.956 0-1.116-.744-1.956-1.908-1.956h-.876v3.912zM208.742 14V6.224h6.18v1.932h-3.9v.948h3.744v1.908h-3.744v1.056h4.044V14h-6.324zm15.651 0V6.224h1.944l1.524 2.184c.252.372.66 1.008.66 1.008s.408-.636.66-1.008l1.524-2.184h1.944V14h-2.28v-3.936s-.396.636-.612.936l-1.236 1.728L227.273 11c-.216-.3-.6-.912-.6-.912V14h-2.28zm12.454 0V6.224h6.18v1.932h-3.9v.948h3.744v1.908h-3.744v1.056h4.044V14h-6.324zm10.111 0V6.224h3.24c2.604 0 4.236 1.764 4.236 3.888 0 2.124-1.632 3.888-4.236 3.888h-3.24zm2.28-1.932h.876c1.164 0 1.908-.828 1.908-1.956 0-1.116-.744-1.956-1.908-1.956h-.876v3.912zM258.392 14V6.224h2.28V14h-2.28zm10.354.144c-2.472 0-4.116-1.788-4.116-4.032 0-2.22 1.644-4.008 4.116-4.008 1.188 0 2.256.42 2.964 1.128l-1.5 1.548c-.552-.564-.996-.612-1.368-.612-1.008 0-1.836.816-1.836 1.944 0 1.152.768 1.968 1.836 1.968.636 0 1.224-.288 1.656-.864l1.452 1.596c-.78.864-1.872 1.332-3.204 1.332zm6.455-.144l3.144-7.776h2.352L283.841 14h-2.328l-.36-1.008h-3.264l-.36 1.008h-2.328zm3.3-2.76h2.04l-.924-2.628c-.072-.192-.084-.264-.096-.312 0 0-.024.108-.096.312l-.924 2.628zm8.98 2.76V6.224h3.432c2.388 0 3.612 1.38 3.612 3.072 0 .9-.408 1.824-1.224 2.388L294.753 14h-2.604l-.888-1.668c-.24.024-.372.036-.564.036h-.936V14h-2.28zm2.28-3.564h1.176c.708 0 1.176-.516 1.176-1.14 0-.636-.48-1.14-1.164-1.14h-1.188v2.28zM298.483 14V6.224h6.18v1.932h-3.9v.948h3.744v1.908h-3.744v1.056h4.044V14h-6.324z" fill="#fff"/></svg>