<svg width="251" height="118" viewBox="0 0 251 118" fill="none" xmlns="http://www.w3.org/2000/svg"><path d="M14.652 7.652c-.072-.432-.18-.576-.432-.684a8.567 8.567 0 00-2.628-.396c-2.7 0-4.032 1.224-4.032 3.06 0 2.376 2.448 3.024 5.184 3.852 3.42 1.044 7.236 2.34 7.236 7.74 0 5.904-4.608 8.208-10.116 8.208-3.24 0-6.876-.828-8.244-1.476v-7.02h4.032l.72 3.42c.108.468.144.54.612.648.432.108 1.656.396 3.024.396 2.916 0 4.536-1.152 4.536-3.348 0-2.304-2.052-3.024-4.464-3.708-3.564-1.008-7.956-1.98-7.956-7.776 0-5.544 4.176-8.1 9.648-8.1 3.096 0 5.76.756 7.38 1.44v7.02l-4.068-.36-.432-2.916zM30.34 4.124c0 2.052-1.188 3.24-3.276 3.24-2.052 0-3.24-1.188-3.24-3.24 0-2.052 1.188-3.168 3.24-3.168 2.088 0 3.276 1.116 3.276 3.168zm-7.92 22.032l1.836-.252c.504-.072.576-.18.576-.72V14.6c0-.396-.108-.648-.468-.756l-1.944-.684.396-2.916h7.452v14.94c0 .576.036.648.576.72l1.836.252V29H22.42v-2.844zm33.536 1.836c-1.548.756-3.816 1.44-5.868 1.44-4.284 0-5.904-1.728-5.904-5.796v-9.432c0-.216 0-.36-.288-.36h-2.52V10.64c3.168-.36 4.428-1.944 4.824-5.868h3.42v5.112c0 .252 0 .36.288.36h5.076v3.6H49.62v8.604c0 2.124.504 2.952 2.448 2.952 1.008 0 2.052-.252 2.916-.576l.972 3.168zm17.687-.396c-2.232 1.08-4.68 1.836-7.38 1.836-6.948 0-9.324-4.32-9.324-9.936 0-6.516 3.996-9.612 8.928-9.612 4.752 0 7.92 2.484 7.92 8.712 0 .432-.036 1.692-.072 2.412H62.7c.18 2.556 1.296 4.248 4.248 4.248 1.404 0 2.916-.324 5.364-1.224l1.332 3.564zM68.46 17.588c-.036-3.024-1.224-3.816-2.7-3.816-1.548 0-2.808.864-3.024 3.816h5.724zm24.644 11.844c-6.588 0-9.252-4.032-9.252-9.684 0-5.976 3.132-9.864 9.72-9.864 6.66 0 9.252 3.96 9.252 9.468 0 6.12-3.096 10.08-9.72 10.08zm.252-3.78c2.34 0 3.78-1.62 3.78-6.12 0-4.248-1.296-5.76-3.636-5.76-2.376 0-3.96 1.476-3.96 5.796 0 4.356 1.404 6.084 3.816 6.084zm11.774.468l2.016-.216c.504-.072.576-.216.576-.756V14.204c0-.216 0-.36-.288-.36h-2.412v-3.6h2.7v-1.98c0-4.86 2.736-6.876 7.704-6.876 3.348 0 6.444.828 6.444 5.184l-5.04.612c.036-1.836-.468-2.268-1.656-2.268-1.8 0-2.016.972-2.016 2.7v2.268c0 .252 0 .36.288.36h5.688v3.6h-5.976V25.04c0 .576.108.684.648.72l4.392.396V29h-13.068v-2.88zm16.039-.036l1.62-.216c.504-.072.576-.18.576-.72V14.6c0-.396-.108-.648-.468-.756l-1.944-.684.396-2.916h6.336l.432 2.88h.216c1.188-1.836 2.772-3.24 5.076-3.24.828 0 2.484.144 3.132.324v6.552l-4.32-.144-.36-1.908c-.072-.324-.18-.396-.468-.396-.936 0-2.052.792-2.592 1.26v9.54c0 .576.036.684.576.72l3.564.288V29h-11.772v-2.916zm33.939 1.512c-2.232 1.08-4.68 1.836-7.38 1.836-6.948 0-9.324-4.32-9.324-9.936 0-6.516 3.996-9.612 8.928-9.612 4.752 0 7.92 2.484 7.92 8.712 0 .432-.036 1.692-.072 2.412h-11.016c.18 2.556 1.296 4.248 4.248 4.248 1.404 0 2.916-.324 5.364-1.224l1.332 3.564zm-5.184-10.008c-.036-3.024-1.224-3.816-2.7-3.816-1.548 0-2.808.864-3.024 3.816h5.724zm23.921 10.08c-1.656 1.008-4.212 1.764-6.84 1.764-6.516 0-9.432-4.068-9.432-9.54 0-6.732 4.104-10.008 9.864-10.008 2.808 0 5.292.792 6.408 1.512v5.652l-3.852-.18-.432-2.376c-.036-.252-.108-.468-.432-.576-.432-.144-1.116-.252-1.836-.252-2.16 0-3.996 1.476-3.996 5.688 0 4.68 2.088 6.012 4.644 6.012 1.8 0 3.42-.576 4.5-1.044l1.404 3.348zm18.687-.072c-2.232 1.08-4.68 1.836-7.38 1.836-6.948 0-9.324-4.32-9.324-9.936 0-6.516 3.996-9.612 8.928-9.612 4.752 0 7.92 2.484 7.92 8.712 0 .432-.036 1.692-.072 2.412h-11.016c.18 2.556 1.296 4.248 4.248 4.248 1.404 0 2.916-.324 5.364-1.224l1.332 3.564zm-5.184-10.008c-.036-3.024-1.224-3.816-2.7-3.816-1.548 0-2.808.864-3.024 3.816h5.724zm21.002-.216c0-1.728-.108-3.168-1.908-3.168-1.332 0-2.988.756-3.744 1.332v9.648c0 .576.036.648.576.72l1.728.252V29h-9.936v-2.88l1.62-.216c.504-.072.576-.18.576-.72V14.6c0-.396-.108-.648-.468-.756l-1.944-.684.432-2.916h6.3l.288 1.872.144.072c1.8-1.332 3.888-2.304 6.336-2.304 3.924 0 5.436 2.16 5.436 6.12v9.18c0 .576.036.648.576.72l1.8.252V29h-7.812V17.372zM17.676 67.596c-2.232 1.08-4.68 1.836-7.38 1.836-6.948 0-9.324-4.32-9.324-9.936 0-6.516 3.996-9.612 8.928-9.612 4.752 0 7.92 2.484 7.92 8.712 0 .432-.036 1.692-.072 2.412H6.732c.18 2.556 1.296 4.248 4.248 4.248 1.404 0 2.916-.324 5.364-1.224l1.332 3.564zm-5.184-10.008c-.036-3.024-1.224-3.816-2.7-3.816-1.548 0-2.808.864-3.024 3.816h5.724zm16.685 16.164l3.096-.252c.576-.036.72-.18.72-.648v-5.256l-.18-.072c-1.26 1.08-2.988 1.908-5.22 1.908-4.248 0-7.164-2.7-7.164-9.432 0-7.38 3.78-10.116 7.704-10.116 2.16 0 3.852.864 5.22 2.052l.54-1.692h4.716a54.947 54.947 0 00-.288 5.832v16.776c0 .54.036.612.576.684l1.692.252v2.844H29.177v-2.88zm3.708-18.54c-.9-.612-2.052-1.152-3.168-1.152-2.592 0-3.636 2.484-3.636 5.688 0 3.492.972 5.436 3.384 5.436 1.224 0 2.448-.648 3.42-1.476v-8.496zm22.92 11.844l-.18-.036c-1.475 1.116-3.347 2.412-6.407 2.412-3.78 0-5.22-2.16-5.22-6.336v-8.784c0-.576-.036-.648-.576-.756l-1.728-.36.36-2.952h7.38V62.16c0 2.196.36 3.024 1.908 3.024 1.584 0 2.88-.9 3.708-1.656v-9.252c0-.576-.036-.612-.576-.72l-1.548-.36.396-2.952h7.164v14.94c0 .468.072.612.504.684l1.8.252V69h-6.696l-.288-1.944zm16.599-22.932c0 2.052-1.188 3.24-3.276 3.24-2.052 0-3.24-1.188-3.24-3.24 0-2.052 1.188-3.168 3.24-3.168 2.088 0 3.276 1.116 3.276 3.168zm-7.92 22.032l1.836-.252c.504-.072.576-.18.576-.72V54.6c0-.396-.108-.648-.468-.756l-1.944-.684.396-2.916h7.452v14.94c0 .576.036.648.576.72l1.836.252V69h-10.26v-2.844zm11.93 7.596l1.44-.216c.504-.072.648-.216.648-.756V54.6c0-.396-.072-.612-.468-.756l-1.908-.684.396-2.916h6.336l.324 1.836.18.072c1.728-1.404 4.068-2.268 6.12-2.268 4.032 0 6.912 2.52 6.912 9.216 0 4.32-1.476 10.332-7.416 10.332-1.872 0-3.564-.612-5.076-1.8v5.112c0 .576.036.684.576.72l3.672.324v2.844H76.414v-2.88zm7.488-9.9c.792.684 2.052 1.368 3.384 1.368 2.412 0 3.42-2.304 3.42-5.832 0-3.708-1.26-5.22-3.06-5.22-1.512 0-2.952.756-3.744 1.296v8.388zm24.169 5.58c-6.588 0-9.252-4.032-9.252-9.684 0-5.976 3.132-9.864 9.72-9.864 6.66 0 9.252 3.96 9.252 9.468 0 6.12-3.096 10.08-9.72 10.08zm.252-3.78c2.34 0 3.78-1.62 3.78-6.12 0-4.248-1.296-5.76-3.636-5.76-2.376 0-3.96 1.476-3.96 5.796 0 4.356 1.404 6.084 3.816 6.084zm42.163-8.28c0-1.404-.144-3.096-2.016-3.096-1.008 0-1.98.36-2.916.972.072.576.108 1.152.108 1.764v8.172c0 .612.036.684.576.756l1.44.216V69h-7.452V57.192c0-1.332-.108-2.916-1.908-2.916-1.08 0-2.268.54-2.988 1.152v9.756c0 .576.036.648.576.72l1.764.252V69h-9.972v-2.844l1.62-.252c.504-.072.576-.18.576-.72V54.6c0-.396-.108-.648-.468-.756l-1.944-.684.396-2.916h6.336l.288 1.872.18.036c1.62-1.332 3.456-2.268 5.76-2.268 1.764 0 3.384.468 4.392 2.16 1.188-.936 3.276-2.16 5.796-2.16 3.852 0 5.292 1.908 5.292 6.084v9.216c0 .576.036.684.576.756l1.8.216V69h-7.812V57.372zm26.304 10.224c-2.232 1.08-4.68 1.836-7.38 1.836-6.948 0-9.324-4.32-9.324-9.936 0-6.516 3.996-9.612 8.928-9.612 4.752 0 7.92 2.484 7.92 8.712 0 .432-.036 1.692-.072 2.412h-11.016c.18 2.556 1.296 4.248 4.248 4.248 1.404 0 2.916-.324 5.364-1.224l1.332 3.564zm-5.184-10.008c-.036-3.024-1.224-3.816-2.7-3.816-1.548 0-2.808.864-3.024 3.816h5.724zm-6.768-10.584l5.508-6.264 2.952 2.808-6.444 5.256-2.016-1.8zm27.845 19.98l-.252-.036c-1.512 1.476-3.276 2.484-5.904 2.484-4.248 0-6.984-2.7-6.984-9.576 0-7.236 3.636-9.972 7.632-9.972 2.088 0 3.708.72 5.076 1.728V46.14c0-.36-.144-.612-.468-.72l-1.98-.684.396-2.916h7.236v23.4c0 .54.036.612.576.684l1.728.252V69h-6.696l-.36-2.016zm-.648-11.844c-.9-.612-2.052-1.08-3.096-1.08-2.664 0-3.708 2.484-3.708 5.688 0 3.492 1.008 5.436 3.276 5.436 1.224 0 2.556-.72 3.528-1.548V55.14zm17.256-11.016c0 2.052-1.188 3.24-3.276 3.24-2.052 0-3.24-1.188-3.24-3.24 0-2.052 1.188-3.168 3.24-3.168 2.088 0 3.276 1.116 3.276 3.168zm-7.92 22.032l1.836-.252c.504-.072.576-.18.576-.72V54.6c0-.396-.108-.648-.468-.756l-1.944-.684.396-2.916h7.452v14.94c0 .576.036.648.576.72l1.836.252V69h-10.26v-2.844zm28.274 1.512c-1.656 1.008-4.212 1.764-6.84 1.764-6.516 0-9.432-4.068-9.432-9.54 0-6.732 4.104-10.008 9.864-10.008 2.808 0 5.292.792 6.408 1.512v5.652l-3.852-.18-.432-2.376c-.036-.252-.108-.468-.432-.576-.432-.144-1.116-.252-1.836-.252-2.16 0-3.996 1.476-3.996 5.688 0 4.68 2.088 6.012 4.644 6.012 1.8 0 3.42-.576 4.5-1.044l1.404 3.348zm11.235 1.764c-6.588 0-9.252-4.032-9.252-9.684 0-5.976 3.132-9.864 9.72-9.864 6.66 0 9.252 3.96 9.252 9.468 0 6.12-3.096 10.08-9.72 10.08zm.252-3.78c2.34 0 3.78-1.62 3.78-6.12 0-4.248-1.296-5.76-3.636-5.76-2.376 0-3.96 1.476-3.96 5.796 0 4.356 1.404 6.084 3.816 6.084zM6.12 89.668c-2.556-.036-4.68-.324-4.68-2.628 0-.72.288-1.512.684-2.304L3.852 81.1l2.268.684-.828 3.564c-.072.252-.036.324.18.396l1.368.468-.72 3.456zm6.48 0c-2.556-.036-4.68-.324-4.68-2.628 0-.72.288-1.512.684-2.304l1.728-3.636 2.268.684-.828 3.564c-.072.252-.036.324.18.396l1.368.468-.72 3.456zm16.698 3.888c.648.828 1.332 1.98 1.332 3.636 0 3.996-3.132 6.336-7.668 6.336-1.152 0-2.196-.144-2.844-.324l-1.188 1.908 3.528.216c6.264.396 9.9.576 9.9 5.364 0 4.14-3.636 6.48-9.9 6.48-6.516 0-9-1.656-9-4.5 0-1.62.72-2.484 1.98-3.672-1.188-.504-1.584-1.404-1.584-2.376 0-.792.396-1.512 1.044-2.196.648-.684 1.368-1.368 2.232-2.16-1.764-.864-3.096-2.736-3.096-5.4 0-4.14 2.736-6.984 8.244-6.984 1.548 0 2.484.144 3.312.36h7.02v3.06l-3.312.252zm-3.42 3.132c0-2.124-1.224-3.24-3.276-3.24-1.98 0-3.456.972-3.456 3.312 0 1.764.972 2.988 3.348 2.988 2.016 0 3.384-1.188 3.384-3.06zm-7.236 13.284c-.468.576-.936 1.188-.936 1.908 0 1.44 1.836 1.872 4.356 1.872 2.088 0 4.932-.144 4.932-2.088 0-1.152-1.368-1.224-3.096-1.332l-5.256-.36zm15.744-3.888l1.62-.216c.505-.072.577-.18.577-.72V94.6c0-.396-.108-.648-.468-.756l-1.945-.684.396-2.916h6.337l.431 2.88h.216c1.189-1.836 2.773-3.24 5.077-3.24.828 0 2.483.144 3.131.324v6.552l-4.32-.144-.36-1.908c-.072-.324-.18-.396-.468-.396-.935 0-2.051.792-2.591 1.26v9.54c0 .576.035.684.575.72l3.564.288V109H34.386v-2.916zm28.198.972l-.18-.036c-1.368 1.332-3.168 2.412-6.048 2.412-4.536 0-5.256-3.096-5.256-5.328 0-3.6 2.196-5.22 6.732-5.544l4.14-.288v-1.98c0-1.692-.18-2.844-2.412-2.844-1.728 0-2.628.252-2.628 2.412l-5.076-.432c0-4.86 4.428-5.544 7.74-5.544 5.472 0 7.668 1.476 7.668 6.516v8.748c0 .576.036.648.576.72l1.728.288V109h-6.624l-.36-1.944zm-3.06-5.616c-2.124.144-2.88.684-2.88 2.124s.864 1.98 2.052 1.98c1.224 0 2.448-.684 3.276-1.296v-2.988l-2.448.18zm25.303 6.552c-1.547.756-3.816 1.44-5.867 1.44-4.284 0-5.904-1.728-5.904-5.796v-9.432c0-.216 0-.36-.288-.36h-2.52V90.64c3.167-.36 4.427-1.944 4.823-5.868h3.42v5.112c0 .252 0 .36.288.36h5.077v3.6h-5.364v8.604c0 2.124.504 2.952 2.447 2.952 1.009 0 2.053-.252 2.917-.576l.972 3.168zm9.812-23.868c0 2.052-1.188 3.24-3.276 3.24-2.052 0-3.24-1.188-3.24-3.24 0-2.052 1.188-3.168 3.24-3.168 2.088 0 3.276 1.116 3.276 3.168zm-7.92 22.032l1.836-.252c.504-.072.576-.18.576-.72V94.6c0-.396-.108-.648-.468-.756l-1.944-.684.396-2.916h7.452v14.94c0 .576.036.648.576.72l1.836.252V109H86.72v-2.844zm22.839-12.132c-.072-.324-.108-.432-.36-.504-.468-.144-1.332-.288-2.304-.288-1.8 0-2.808.684-2.808 1.836 0 1.476 1.98 1.8 4.176 2.304 2.844.648 6.048 1.656 6.048 5.868 0 4.392-3.564 6.192-8.136 6.192-3.276 0-6.48-.864-7.128-1.296v-5.22l3.852.288.36 2.052c.072.324.108.432.432.54.432.144 1.404.36 2.772.36 1.908 0 2.988-.54 2.988-1.872 0-1.44-1.44-1.872-3.276-2.196-3.024-.54-6.984-1.188-6.984-5.904 0-4.464 3.816-6.3 7.956-6.3 2.844 0 5.616.648 6.624 1.044v5.22l-3.852-.252-.36-1.872zm8.2-8.568c.072-.324.036-.396-.18-.468l-1.368-.432.72-3.456c2.556.036 4.68.288 4.68 2.628 0 .72-.252 1.512-.648 2.304l-1.728 3.636-2.304-.684.828-3.528zm6.48 0c.072-.324.036-.396-.18-.468l-1.368-.432.72-3.456c2.556.036 4.68.288 4.68 2.628 0 .72-.252 1.512-.648 2.304l-1.728 3.636-2.304-.684.828-3.528zm13.618 21.168c0 1.836-1.008 2.808-3.06 2.808-2.088 0-3.096-.936-3.096-2.808 0-1.836 1.008-2.808 3.096-2.808 2.016 0 3.06.972 3.06 2.808zm10.133 0c0 1.836-1.008 2.808-3.06 2.808-2.088 0-3.096-.936-3.096-2.808 0-1.836 1.008-2.808 3.096-2.808 2.016 0 3.06.972 3.06 2.808zm10.133 0c0 1.836-1.008 2.808-3.06 2.808-2.088 0-3.096-.936-3.096-2.808 0-1.836 1.008-2.808 3.096-2.808 2.016 0 3.06.972 3.06 2.808z" fill="#2B3D51"/></svg>