<svg width="228" height="110" viewBox="0 0 228 110" fill="none" xmlns="http://www.w3.org/2000/svg"><path d="M6.956 26.624c0 1.836-1.008 2.808-3.06 2.808-2.088 0-3.096-.936-3.096-2.808 0-1.836 1.008-2.808 3.096-2.808 2.016 0 3.06.972 3.06 2.808zm10.133 0c0 1.836-1.008 2.808-3.06 2.808-2.088 0-3.096-.936-3.096-2.808 0-1.836 1.008-2.808 3.096-2.808 2.016 0 3.06.972 3.06 2.808zm10.134 0c0 1.836-1.008 2.808-3.06 2.808-2.088 0-3.096-.936-3.096-2.808 0-1.836 1.008-2.808 3.096-2.808 2.016 0 3.06.972 3.06 2.808zm22.487.432l-.18-.036c-1.368 1.332-3.168 2.412-6.048 2.412-4.536 0-5.256-3.096-5.256-5.328 0-3.6 2.196-5.22 6.732-5.544l4.14-.288v-1.98c0-1.692-.18-2.844-2.412-2.844-1.728 0-2.628.252-2.628 2.412l-5.076-.432c0-4.86 4.428-5.544 7.74-5.544 5.472 0 7.668 1.476 7.668 6.516v8.748c0 .576.036.648.576.72l1.728.288V29H50.07l-.36-1.944zm-3.06-5.616c-2.124.144-2.88.684-2.88 2.124s.864 1.98 2.052 1.98c1.224 0 2.448-.684 3.276-1.296V21.26l-2.448.18zm35.668 6.228c-1.656 1.008-4.212 1.764-6.84 1.764-6.516 0-9.432-4.068-9.432-9.54 0-6.732 4.104-10.008 9.864-10.008 2.808 0 5.292.792 6.408 1.512v5.652l-3.852-.18-.432-2.376c-.036-.252-.108-.468-.432-.576-.432-.144-1.116-.252-1.836-.252-2.16 0-3.996 1.476-3.996 5.688 0 4.68 2.088 6.012 4.644 6.012 1.8 0 3.42-.576 4.5-1.044l1.404 3.348zm13.647-.612l-.18-.036c-1.368 1.332-3.168 2.412-6.048 2.412-4.536 0-5.256-3.096-5.256-5.328 0-3.6 2.196-5.22 6.732-5.544l4.14-.288v-1.98c0-1.692-.18-2.844-2.412-2.844-1.728 0-2.628.252-2.628 2.412l-5.076-.432c0-4.86 4.428-5.544 7.74-5.544 5.472 0 7.668 1.476 7.668 6.516v8.748c0 .576.036.648.576.72l1.728.288V29h-6.624l-.36-1.944zm-3.06-5.616c-2.124.144-2.88.684-2.88 2.124s.864 1.98 2.052 1.98c1.224 0 2.448-.684 3.276-1.296V21.26l-2.448.18zm34.511-4.068c0-1.404-.144-3.096-2.016-3.096-1.008 0-1.98.36-2.916.972.072.576.108 1.152.108 1.764v8.172c0 .612.036.684.576.756l1.44.216V29h-7.452V17.192c0-1.332-.108-2.916-1.908-2.916-1.08 0-2.268.54-2.988 1.152v9.756c0 .576.036.648.576.72l1.764.252V29h-9.972v-2.844l1.62-.252c.504-.072.576-.18.576-.72V14.6c0-.396-.108-.648-.468-.756l-1.944-.684.396-2.916h6.336l.288 1.872.18.036c1.62-1.332 3.456-2.268 5.76-2.268 1.764 0 3.384.468 4.392 2.16 1.188-.936 3.276-2.16 5.796-2.16 3.852 0 5.292 1.908 5.292 6.084v9.216c0 .576.036.684.576.756l1.8.216V29h-7.812V17.372zM138.277 29c.252-1.62.54-3.492.54-5.256V6.176c0-.396-.108-.648-.468-.756l-1.98-.684.396-2.916h7.416v9.972l.144.036c1.548-1.26 3.24-1.944 5.436-1.944 3.888 0 6.948 2.52 6.948 9.216 0 7.416-3.132 10.332-7.56 10.332-2.376 0-4.176-1.008-5.292-2.268l-.18.036-.252 1.8h-5.148zm5.94-5.184c.828.756 2.052 1.404 3.312 1.404 2.376 0 3.492-2.232 3.492-5.832 0-2.808-.9-5.256-3.312-5.256-1.296 0-2.628.684-3.492 1.26v8.424zm22.589-19.692c0 2.052-1.188 3.24-3.276 3.24-2.052 0-3.24-1.188-3.24-3.24 0-2.052 1.188-3.168 3.24-3.168 2.088 0 3.276 1.116 3.276 3.168zm-7.92 22.032l1.836-.252c.504-.072.576-.18.576-.72V14.6c0-.396-.108-.648-.468-.756l-1.944-.684.396-2.916h7.452v14.94c0 .576.036.648.576.72l1.836.252V29h-10.26v-2.844zm21.255 3.276c-6.588 0-9.252-4.032-9.252-9.684 0-5.976 3.132-9.864 9.72-9.864 6.66 0 9.252 3.96 9.252 9.468 0 6.12-3.096 10.08-9.72 10.08zm.252-3.78c2.34 0 3.78-1.62 3.78-6.12 0-4.248-1.296-5.76-3.636-5.76-2.376 0-3.96 1.476-3.96 5.796 0 4.356 1.404 6.084 3.816 6.084zM13.4 66.984l-.252-.036c-1.512 1.476-3.276 2.484-5.904 2.484-4.248 0-6.984-2.7-6.984-9.576 0-7.236 3.636-9.972 7.632-9.972 2.088 0 3.708.72 5.076 1.728V46.14c0-.36-.144-.612-.468-.72l-1.98-.684.396-2.916h7.236v23.4c0 .54.036.612.576.684l1.728.252V69H13.76l-.36-2.016zm-.648-11.844c-.9-.612-2.052-1.08-3.096-1.08-2.664 0-3.708 2.484-3.708 5.688 0 3.492 1.008 5.436 3.276 5.436 1.224 0 2.556-.72 3.528-1.548V55.14zm26.01 12.456c-2.231 1.08-4.68 1.836-7.38 1.836-6.947 0-9.323-4.32-9.323-9.936 0-6.516 3.996-9.612 8.928-9.612 4.752 0 7.92 2.484 7.92 8.712 0 .432-.036 1.692-.072 2.412H27.819c.18 2.556 1.296 4.248 4.248 4.248 1.404 0 2.916-.324 5.364-1.224l1.332 3.564zM33.58 57.588c-.036-3.024-1.224-3.816-2.7-3.816-1.548 0-2.808.864-3.024 3.816h5.724zm29.287 10.404c-1.548.756-3.816 1.44-5.868 1.44-4.284 0-5.904-1.728-5.904-5.796v-9.432c0-.216 0-.36-.288-.36h-2.52V50.64c3.168-.36 4.428-1.944 4.824-5.868h3.42v5.112c0 .252 0 .36.288.36h5.076v3.6H56.53v8.604c0 2.124.504 2.952 2.448 2.952 1.008 0 2.052-.252 2.916-.576l.972 3.168zm15.16-.936l-.18-.036c-1.476 1.116-3.348 2.412-6.408 2.412-3.78 0-5.22-2.16-5.22-6.336v-8.784c0-.576-.036-.648-.576-.756l-1.728-.36.36-2.952h7.38V62.16c0 2.196.36 3.024 1.908 3.024 1.584 0 2.88-.9 3.708-1.656v-9.252c0-.576-.036-.612-.576-.72l-1.548-.36.396-2.952h7.164v14.94c0 .468.072.612.504.684l1.8.252V69h-6.696l-.288-1.944zm29.815-9.684c0-1.728-.108-3.168-1.908-3.168-1.332 0-2.988.756-3.744 1.332v9.648c0 .576.036.648.576.72l1.728.252V69h-9.936v-2.88l1.62-.216c.504-.072.576-.18.576-.72V54.6c0-.396-.108-.648-.468-.756l-1.944-.684.432-2.916h6.3l.288 1.872.144.072c1.8-1.332 3.888-2.304 6.336-2.304 3.924 0 5.436 2.16 5.436 6.12v9.18c0 .576.036.648.576.72l1.8.252V69h-7.812V57.372zm23.085 9.684l-.18-.036c-1.476 1.116-3.348 2.412-6.408 2.412-3.78 0-5.22-2.16-5.22-6.336v-8.784c0-.576-.036-.648-.576-.756l-1.728-.36.36-2.952h7.38V62.16c0 2.196.36 3.024 1.908 3.024 1.584 0 2.88-.9 3.708-1.656v-9.252c0-.576-.036-.612-.576-.72l-1.548-.36.396-2.952h7.164v14.94c0 .468.072.612.504.684l1.8.252V69h-6.696l-.288-1.944zm-7.488-20.052l5.508-6.264 2.952 2.808-6.444 5.256-2.016-1.8zm39.17 10.368c0-1.404-.144-3.096-2.016-3.096-1.008 0-1.98.36-2.916.972.072.576.108 1.152.108 1.764v8.172c0 .612.036.684.576.756l1.44.216V69h-7.452V57.192c0-1.332-.108-2.916-1.908-2.916-1.08 0-2.268.54-2.988 1.152v9.756c0 .576.036.648.576.72l1.764.252V69h-9.972v-2.844l1.62-.252c.504-.072.576-.18.576-.72V54.6c0-.396-.108-.648-.468-.756l-1.944-.684.396-2.916h6.336l.288 1.872.18.036c1.62-1.332 3.456-2.268 5.76-2.268 1.764 0 3.384.468 4.392 2.16 1.188-.936 3.276-2.16 5.796-2.16 3.852 0 5.292 1.908 5.292 6.084v9.216c0 .576.036.684.576.756l1.8.216V69h-7.812V57.372zm26.304 10.224c-2.232 1.08-4.68 1.836-7.38 1.836-6.948 0-9.324-4.32-9.324-9.936 0-6.516 3.996-9.612 8.928-9.612 4.752 0 7.92 2.484 7.92 8.712 0 .432-.036 1.692-.072 2.412h-11.016c.18 2.556 1.296 4.248 4.248 4.248 1.404 0 2.916-.324 5.364-1.224l1.332 3.564zm-5.184-10.008c-.036-3.024-1.224-3.816-2.7-3.816-1.548 0-2.808.864-3.024 3.816h5.724zm7.718 8.496l1.62-.216c.504-.072.576-.18.576-.72V54.6c0-.396-.108-.648-.468-.756l-1.944-.684.396-2.916h6.336l.432 2.88h.216c1.188-1.836 2.772-3.24 5.076-3.24.828 0 2.484.144 3.132.324v6.552l-4.32-.144-.36-1.908c-.072-.324-.18-.396-.468-.396-.936 0-2.052.792-2.592 1.26v9.54c0 .576.036.684.576.72l3.564.288V69h-11.772v-2.916zm26.488 3.348c-6.588 0-9.252-4.032-9.252-9.684 0-5.976 3.132-9.864 9.72-9.864 6.66 0 9.252 3.96 9.252 9.468 0 6.12-3.096 10.08-9.72 10.08zm.252-3.78c2.34 0 3.78-1.62 3.78-6.12 0-4.248-1.296-5.76-3.636-5.76-2.376 0-3.96 1.476-3.96 5.796 0 4.356 1.404 6.084 3.816 6.084zM13.4 106.984l-.252-.036c-1.512 1.476-3.276 2.484-5.904 2.484-4.248 0-6.984-2.7-6.984-9.576 0-7.236 3.636-9.972 7.632-9.972 2.088 0 3.708.72 5.076 1.728V86.14c0-.36-.144-.612-.468-.72l-1.98-.684.396-2.916h7.236v23.4c0 .54.036.612.576.684l1.728.252V109H13.76l-.36-2.016zm-.648-11.844c-.9-.612-2.052-1.08-3.096-1.08-2.664 0-3.708 2.484-3.708 5.688 0 3.492 1.008 5.436 3.276 5.436 1.224 0 2.556-.72 3.528-1.548V95.14zm26.01 12.456c-2.231 1.08-4.68 1.836-7.38 1.836-6.947 0-9.323-4.32-9.323-9.936 0-6.516 3.996-9.612 8.928-9.612 4.752 0 7.92 2.484 7.92 8.712 0 .432-.036 1.692-.072 2.412H27.819c.18 2.556 1.296 4.248 4.248 4.248 1.404 0 2.916-.324 5.364-1.224l1.332 3.564zM33.58 97.588c-.036-3.024-1.224-3.816-2.7-3.816-1.548 0-2.808.864-3.024 3.816h5.724zm35.947 8.604l2.952-.252c.54-.036.576-.216.576-.72V91.54h-.144l-5.148 12.276h-5.868l-5.076-12.312h-.18v13.68c0 .576.072.684.576.72l3.096.288V109H49.366v-2.808l2.268-.252c.504-.072.576-.18.576-.72V86.752c0-.54-.072-.648-.576-.72l-2.268-.252v-2.844h9.648l6.264 16.308h.144l6.588-16.308h9.36v2.808l-2.412.288c-.54.072-.576.144-.576.684v18.504c0 .468.108.612.576.684l2.412.288V109H69.526v-2.808zm30.785 1.404c-2.232 1.08-4.68 1.836-7.38 1.836-6.948 0-9.324-4.32-9.324-9.936 0-6.516 3.996-9.612 8.928-9.612 4.752 0 7.92 2.484 7.92 8.712 0 .432-.036 1.692-.072 2.412H89.367c.18 2.556 1.296 4.248 4.248 4.248 1.404 0 2.916-.324 5.364-1.224l1.332 3.564zm-5.184-10.008c-.036-3.024-1.224-3.816-2.7-3.816-1.548 0-2.808.864-3.024 3.816h5.724zm21.077 9.396l-.252-.036c-1.512 1.476-3.276 2.484-5.904 2.484-4.248 0-6.984-2.7-6.984-9.576 0-7.236 3.636-9.972 7.632-9.972 2.088 0 3.708.72 5.076 1.728V86.14c0-.36-.144-.612-.468-.72l-1.98-.684.396-2.916h7.236v23.4c0 .54.036.612.576.684l1.728.252V109h-6.696l-.36-2.016zm-.648-11.844c-.9-.612-2.052-1.08-3.096-1.08-2.664 0-3.708 2.484-3.708 5.688 0 3.492 1.008 5.436 3.276 5.436 1.224 0 2.556-.72 3.528-1.548V95.14zm17.256-11.016c0 2.052-1.188 3.24-3.276 3.24-2.052 0-3.24-1.188-3.24-3.24 0-2.052 1.188-3.168 3.24-3.168 2.088 0 3.276 1.116 3.276 3.168zm-7.92 22.032l1.836-.252c.504-.072.576-.18.576-.72V94.6c0-.396-.108-.648-.468-.756l-1.944-.684.396-2.916h7.452v14.94c0 .576.036.648.576.72l1.836.252V109h-10.26v-2.844zm28.274 1.512c-1.656 1.008-4.212 1.764-6.84 1.764-6.516 0-9.432-4.068-9.432-9.54 0-6.732 4.104-10.008 9.864-10.008 2.808 0 5.292.792 6.408 1.512v5.652l-3.852-.18-.432-2.376c-.036-.252-.108-.468-.432-.576-.432-.144-1.116-.252-1.836-.252-2.16 0-3.996 1.476-3.996 5.688 0 4.68 2.088 6.012 4.644 6.012 1.8 0 3.42-.576 4.5-1.044l1.404 3.348zm13.648-.612l-.18-.036c-1.368 1.332-3.168 2.412-6.048 2.412-4.536 0-5.256-3.096-5.256-5.328 0-3.6 2.196-5.22 6.732-5.544l4.14-.288v-1.98c0-1.692-.18-2.844-2.412-2.844-1.728 0-2.628.252-2.628 2.412l-5.076-.432c0-4.86 4.428-5.544 7.74-5.544 5.472 0 7.668 1.476 7.668 6.516v8.748c0 .576.036.648.576.72l1.728.288V109h-6.624l-.36-1.944zm-3.06-5.616c-2.124.144-2.88.684-2.88 2.124s.864 1.98 2.052 1.98c1.224 0 2.448-.684 3.276-1.296v-2.988l-2.448.18zm11.723 4.644l1.62-.216c.504-.072.576-.18.576-.72V94.6c0-.396-.108-.648-.468-.756l-1.944-.684.396-2.916h6.336l.432 2.88h.216c1.188-1.836 2.772-3.24 5.076-3.24.828 0 2.484.144 3.132.324v6.552l-4.32-.144-.36-1.908c-.072-.324-.18-.396-.468-.396-.936 0-2.052.792-2.592 1.26v9.54c0 .576.036.684.576.72l3.564.288V109h-11.772v-2.916zm33.94 1.512c-2.232 1.08-4.68 1.836-7.38 1.836-6.948 0-9.324-4.32-9.324-9.936 0-6.516 3.996-9.612 8.928-9.612 4.752 0 7.92 2.484 7.92 8.712 0 .432-.036 1.692-.072 2.412h-11.016c.18 2.556 1.296 4.248 4.248 4.248 1.404 0 2.916-.324 5.364-1.224l1.332 3.564zm-5.184-10.008c-.036-3.024-1.224-3.816-2.7-3.816-1.548 0-2.808.864-3.024 3.816h5.724zm14.562 9.036c0 1.836-1.008 2.808-3.06 2.808-2.088 0-3.096-.936-3.096-2.808 0-1.836 1.008-2.808 3.096-2.808 2.016 0 3.06.972 3.06 2.808z" fill="#2B3D51"/></svg>