<svg width="601" height="50" viewBox="0 0 601 50" fill="none" xmlns="http://www.w3.org/2000/svg"><path d="M.065 38V1.767l24.741 25.884V4.074h5.12v35.991L5.185 14.248V38H.065zM36.43 27.145c0-3.09 1.106-5.72 3.318-7.888 2.212-2.168 4.907-3.252 8.086-3.252 3.193 0 5.903 1.092 8.13 3.274 2.197 2.183 3.295 4.864 3.295 8.042 0 3.208-1.106 5.896-3.318 8.064-2.226 2.154-4.958 3.23-8.195 3.23-3.208 0-5.896-1.098-8.064-3.296-2.168-2.168-3.252-4.892-3.252-8.174zm5.053.088c0 2.14.572 3.831 1.714 5.076 1.172 1.26 2.718 1.89 4.636 1.89 1.934 0 3.48-.623 4.637-1.868 1.157-1.245 1.736-2.908 1.736-4.988 0-2.08-.579-3.742-1.736-4.988-1.172-1.26-2.718-1.89-4.636-1.89-1.89 0-3.42.63-4.593 1.89-1.172 1.26-1.758 2.886-1.758 4.878zM78.397 16.6h4.944v1.911c.909-.952 1.714-1.604 2.417-1.955.718-.366 1.568-.55 2.55-.55 1.303 0 2.665.425 4.086 1.275l-2.263 4.526c-.938-.674-1.853-1.01-2.747-1.01-2.695 0-4.043 2.035-4.043 6.108V38h-4.944V16.599zm36.014 11.865H99.074c.132 1.758.703 3.157 1.714 4.197 1.01 1.025 2.307 1.538 3.889 1.538 1.23 0 2.248-.293 3.054-.88.791-.585 1.692-1.67 2.703-3.251l4.174 2.329c-.644 1.099-1.325 2.043-2.043 2.834a11.33 11.33 0 01-2.307 1.934 9.436 9.436 0 01-2.659 1.099c-.952.234-1.985.351-3.098.351-3.193 0-5.757-1.025-7.69-3.076-1.934-2.065-2.9-4.805-2.9-8.218 0-3.384.937-6.123 2.812-8.218 1.89-2.065 4.394-3.098 7.514-3.098 3.15 0 5.64 1.004 7.471 3.01 1.816 1.993 2.725 4.754 2.725 8.284l-.022 1.165zm-5.076-4.043c-.689-2.637-2.351-3.955-4.988-3.955-.6 0-1.164.095-1.692.285-.527.176-1.01.44-1.45.791a4.943 4.943 0 00-1.099 1.23 5.783 5.783 0 00-.703 1.649h9.932zm22.939-4.175l-4.086 2.175c-.645-1.318-1.443-1.977-2.396-1.977-.454 0-.842.154-1.164.461-.322.293-.483.674-.483 1.143 0 .82.952 1.633 2.856 2.439 2.622 1.128 4.387 2.168 5.295 3.12.909.952 1.363 2.234 1.363 3.845 0 2.066-.762 3.794-2.285 5.186-1.48 1.318-3.267 1.977-5.362 1.977-3.589 0-6.13-1.75-7.624-5.251l4.218-1.956c.586 1.026 1.033 1.677 1.341 1.956.6.556 1.318.835 2.153.835 1.67 0 2.505-.762 2.505-2.285 0-.88-.645-1.7-1.934-2.461a69.99 69.99 0 00-1.494-.726 136.83 136.83 0 01-1.516-.725c-1.435-.703-2.446-1.406-3.032-2.109-.747-.893-1.121-2.043-1.121-3.45 0-1.86.638-3.398 1.912-4.614 1.304-1.216 2.886-1.824 4.746-1.824 2.739 0 4.775 1.414 6.108 4.241zm10.789 29.4h-4.944V16.599h4.944v2.329c1.948-1.948 4.16-2.923 6.636-2.923 2.944 0 5.368 1.084 7.273 3.252 1.933 2.154 2.9 4.87 2.9 8.152 0 3.208-.959 5.882-2.878 8.02-1.905 2.124-4.307 3.186-7.207 3.186-2.505 0-4.746-1.003-6.724-3.01v14.04zm11.755-22.215c0-2.05-.556-3.72-1.67-5.01-1.127-1.303-2.548-1.955-4.262-1.955-1.817 0-3.289.63-4.417 1.89-1.128 1.26-1.692 2.914-1.692 4.965 0 2.007.564 3.662 1.692 4.966 1.114 1.275 2.578 1.912 4.395 1.912 1.714 0 3.127-.645 4.24-1.934 1.143-1.289 1.714-2.9 1.714-4.834zm9.273-.286c0-3.09 1.106-5.72 3.318-7.888 2.212-2.168 4.907-3.252 8.086-3.252 3.193 0 5.903 1.092 8.13 3.274 2.197 2.183 3.295 4.864 3.295 8.042 0 3.208-1.106 5.896-3.317 8.064-2.227 2.154-4.959 3.23-8.196 3.23-3.208 0-5.896-1.098-8.064-3.296-2.168-2.168-3.252-4.892-3.252-8.174zm5.054.088c0 2.14.571 3.831 1.713 5.076 1.172 1.26 2.718 1.89 4.637 1.89 1.933 0 3.479-.623 4.636-1.868s1.736-2.908 1.736-4.988c0-2.08-.579-3.742-1.736-4.988-1.172-1.26-2.717-1.89-4.636-1.89-1.89 0-3.421.63-4.593 1.89-1.172 1.26-1.757 2.886-1.757 4.878zM192.172 16.6h4.966v1.977c1.728-1.714 3.676-2.57 5.844-2.57 2.491 0 4.432.783 5.823 2.35 1.201 1.333 1.802 3.509 1.802 6.526V38h-4.966V26.047c0-2.11-.293-3.567-.879-4.373-.571-.82-1.611-1.23-3.12-1.23-1.641 0-2.805.542-3.494 1.626-.673 1.07-1.01 2.937-1.01 5.603V38h-4.966V16.599zM232.646.889h4.965V38h-4.965v-2.241c-1.949 1.904-4.153 2.856-6.614 2.856-2.93 0-5.362-1.07-7.295-3.208-1.919-2.182-2.879-4.907-2.879-8.174 0-3.193.96-5.859 2.879-7.998 1.904-2.153 4.299-3.23 7.185-3.23 2.505 0 4.746 1.026 6.724 3.076V.888zm-11.734 26.344c0 2.051.549 3.721 1.648 5.01 1.128 1.304 2.549 1.956 4.263 1.956 1.831 0 3.31-.63 4.438-1.89 1.128-1.304 1.692-2.959 1.692-4.966s-.564-3.662-1.692-4.966c-1.128-1.274-2.593-1.911-4.394-1.911-1.7 0-3.12.644-4.263 1.933-1.128 1.304-1.692 2.915-1.692 4.834zM259.628 16.6h4.966V38h-4.966v-2.241c-2.036 1.904-4.226 2.856-6.57 2.856-2.959 0-5.405-1.07-7.339-3.208-1.919-2.182-2.878-4.907-2.878-8.174 0-3.208.959-5.88 2.878-8.02 1.919-2.138 4.322-3.208 7.207-3.208 2.491 0 4.724 1.026 6.702 3.076V16.6zm-11.733 10.634c0 2.051.549 3.721 1.647 5.01 1.128 1.304 2.549 1.956 4.263 1.956 1.831 0 3.311-.63 4.439-1.89 1.128-1.304 1.692-2.959 1.692-4.966s-.564-3.662-1.692-4.966c-1.128-1.274-2.593-1.911-4.395-1.911-1.699 0-3.12.644-4.263 1.933-1.128 1.304-1.691 2.915-1.691 4.834zm35.376-6.987l-4.087 2.175c-.645-1.318-1.443-1.977-2.395-1.977-.455 0-.843.154-1.165.461-.322.293-.483.674-.483 1.143 0 .82.952 1.633 2.856 2.439 2.622 1.128 4.387 2.168 5.295 3.12.909.952 1.363 2.234 1.363 3.845 0 2.066-.762 3.794-2.285 5.186-1.48 1.318-3.267 1.977-5.362 1.977-3.589 0-6.13-1.75-7.624-5.251l4.219-1.956c.585 1.026 1.032 1.677 1.34 1.956.6.556 1.318.835 2.153.835 1.67 0 2.505-.762 2.505-2.285 0-.88-.644-1.7-1.934-2.461a69.99 69.99 0 00-1.494-.726 136.83 136.83 0 01-1.516-.725c-1.435-.703-2.446-1.406-3.032-2.109-.747-.893-1.121-2.043-1.121-3.45 0-1.86.638-3.398 1.912-4.614 1.304-1.216 2.886-1.824 4.746-1.824 2.739 0 4.776 1.414 6.109 4.241zm35.507-3.647h4.966V38h-4.966v-2.241c-2.036 1.904-4.226 2.856-6.57 2.856-2.958 0-5.405-1.07-7.338-3.208-1.919-2.182-2.879-4.907-2.879-8.174 0-3.208.96-5.88 2.879-8.02 1.919-2.138 4.321-3.208 7.207-3.208 2.49 0 4.724 1.026 6.701 3.076V16.6zm-11.733 10.634c0 2.051.549 3.721 1.648 5.01 1.128 1.304 2.549 1.956 4.263 1.956 1.831 0 3.31-.63 4.438-1.89 1.128-1.304 1.692-2.959 1.692-4.966s-.564-3.662-1.692-4.966c-1.128-1.274-2.593-1.911-4.394-1.911-1.7 0-3.121.644-4.263 1.933-1.128 1.304-1.692 2.915-1.692 4.834z" fill="#fff" fill-opacity=".75"/><path d="M352.586.65V38h-8.145V.65h8.145zm14.611 0V38h-8.145V.65h8.145zm14.026 25.74c0 .75.135 1.455.405 2.115.27.63.63 1.185 1.08 1.665.48.48 1.035.855 1.665 1.125.66.27 1.365.405 2.115.405.72 0 1.395-.135 2.025-.405a4.669 4.669 0 001.665-1.125c.48-.48.855-1.035 1.125-1.665.3-.63.45-1.305.45-2.025s-.15-1.395-.45-2.025a5.14 5.14 0 00-1.125-1.71 4.669 4.669 0 00-1.665-1.125 5.086 5.086 0 00-2.025-.405c-.75 0-1.455.135-2.115.405-.63.27-1.185.645-1.665 1.125-.45.48-.81 1.035-1.08 1.665a4.77 4.77 0 00-.405 1.98zm10.26-11.475h8.19V38h-8.19v-2.565c-1.74 2.19-4.095 3.285-7.065 3.285-1.68 0-3.225-.3-4.635-.9-1.41-.63-2.64-1.5-3.69-2.61-1.05-1.11-1.875-2.415-2.475-3.915-.57-1.5-.855-3.135-.855-4.905 0-1.65.285-3.21.855-4.68.57-1.5 1.365-2.805 2.385-3.915a10.968 10.968 0 013.645-2.61c1.41-.66 2.97-.99 4.68-.99 2.88 0 5.265 1.005 7.155 3.015v-2.295zm14.633 0h8.145v2.835c2.22-2.13 4.71-3.195 7.47-3.195 3.42 0 6.03 1.44 7.83 4.32 1.83-2.91 4.44-4.365 7.83-4.365 1.08 0 2.1.165 3.06.495.96.3 1.785.795 2.475 1.485.69.66 1.23 1.53 1.62 2.61.42 1.08.63 2.385.63 3.915V38h-8.145V26.615c0-1.17-.09-2.13-.27-2.88-.15-.75-.39-1.335-.72-1.755-.3-.42-.66-.705-1.08-.855-.42-.15-.87-.225-1.35-.225-2.61 0-3.915 1.905-3.915 5.715V38h-8.145V26.615c0-1.17-.075-2.13-.225-2.88-.15-.78-.375-1.395-.675-1.845-.27-.45-.63-.75-1.08-.9-.45-.18-.975-.27-1.575-.27-.51 0-.99.075-1.44.225-.45.15-.855.45-1.215.9-.33.42-.6 1.02-.81 1.8-.18.75-.27 1.74-.27 2.97V38h-8.145V14.915zm53.108 11.475c0 .75.135 1.455.405 2.115.27.63.63 1.185 1.08 1.665.48.48 1.035.855 1.665 1.125.66.27 1.365.405 2.115.405.72 0 1.395-.135 2.025-.405a4.669 4.669 0 001.665-1.125c.48-.48.855-1.035 1.125-1.665.3-.63.45-1.305.45-2.025s-.15-1.395-.45-2.025a5.14 5.14 0 00-1.125-1.71 4.669 4.669 0 00-1.665-1.125 5.086 5.086 0 00-2.025-.405c-.75 0-1.455.135-2.115.405-.63.27-1.185.645-1.665 1.125-.45.48-.81 1.035-1.08 1.665a4.77 4.77 0 00-.405 1.98zm10.26-11.475h8.19V38h-8.19v-2.565c-1.74 2.19-4.095 3.285-7.065 3.285-1.68 0-3.225-.3-4.635-.9-1.41-.63-2.64-1.5-3.69-2.61-1.05-1.11-1.875-2.415-2.475-3.915-.57-1.5-.855-3.135-.855-4.905 0-1.65.285-3.21.855-4.68.57-1.5 1.365-2.805 2.385-3.915a10.968 10.968 0 013.645-2.61c1.41-.66 2.97-.99 4.68-.99 2.88 0 5.265 1.005 7.155 3.015v-2.295zm22.193 11.475c0 .75.135 1.455.405 2.115.27.63.63 1.185 1.08 1.665.48.48 1.035.855 1.665 1.125.66.27 1.365.405 2.115.405.72 0 1.395-.135 2.025-.405a4.669 4.669 0 001.665-1.125c.48-.48.855-1.035 1.125-1.665.3-.63.45-1.305.45-2.025s-.15-1.395-.45-2.025a5.14 5.14 0 00-1.125-1.71 4.669 4.669 0 00-1.665-1.125 5.086 5.086 0 00-2.025-.405c-.72 0-1.41.135-2.07.405-.63.27-1.185.645-1.665 1.125a6.5 6.5 0 00-1.125 1.665 4.77 4.77 0 00-.405 1.98zM501.937.65h8.19V38h-8.19v-2.565c-1.74 2.19-4.095 3.285-7.065 3.285-1.68 0-3.225-.315-4.635-.945-1.41-.63-2.64-1.5-3.69-2.61-1.05-1.11-1.875-2.415-2.475-3.915-.57-1.5-.855-3.12-.855-4.86 0-1.65.27-3.21.81-4.68.57-1.5 1.365-2.805 2.385-3.915a10.968 10.968 0 013.645-2.61c1.44-.66 3.015-.99 4.725-.99 2.88 0 5.265 1.005 7.155 3.015V.65zm22.192 25.74c0 .75.135 1.455.405 2.115.27.63.63 1.185 1.08 1.665.48.48 1.035.855 1.665 1.125.66.27 1.365.405 2.115.405.72 0 1.395-.135 2.025-.405a4.669 4.669 0 001.665-1.125c.48-.48.855-1.035 1.125-1.665.3-.63.45-1.305.45-2.025s-.15-1.395-.45-2.025a5.14 5.14 0 00-1.125-1.71 4.669 4.669 0 00-1.665-1.125 5.086 5.086 0 00-2.025-.405c-.75 0-1.455.135-2.115.405-.63.27-1.185.645-1.665 1.125-.45.48-.81 1.035-1.08 1.665a4.77 4.77 0 00-.405 1.98zm10.26-11.475h8.19V38h-8.19v-2.565c-1.74 2.19-4.095 3.285-7.065 3.285-1.68 0-3.225-.3-4.635-.9-1.41-.63-2.64-1.5-3.69-2.61-1.05-1.11-1.875-2.415-2.475-3.915-.57-1.5-.855-3.135-.855-4.905 0-1.65.285-3.21.855-4.68.57-1.5 1.365-2.805 2.385-3.915a10.968 10.968 0 013.645-2.61c1.41-.66 2.97-.99 4.68-.99 2.88 0 5.265 1.005 7.155 3.015v-2.295zm29.933 5.94c-1.5-.78-2.97-1.17-4.41-1.17-.75 0-1.365.15-1.845.45-.45.3-.675.705-.675 1.215 0 .27.03.495.09.675.09.15.255.3.495.45.27.15.645.285 1.125.405.51.12 1.17.27 1.98.45 2.25.45 3.93 1.26 5.04 2.43 1.11 1.14 1.665 2.61 1.665 4.41 0 1.35-.27 2.565-.81 3.645a7.963 7.963 0 01-2.25 2.745c-.96.72-2.115 1.275-3.465 1.665-1.35.42-2.835.63-4.455.63-3.12 0-6.195-.885-9.225-2.655l2.97-5.76c2.28 1.56 4.44 2.34 6.48 2.34.75 0 1.365-.165 1.845-.495.48-.33.72-.75.72-1.26 0-.3-.045-.54-.135-.72-.06-.21-.21-.39-.45-.54-.24-.18-.6-.33-1.08-.45-.45-.15-1.05-.3-1.8-.45-2.52-.51-4.29-1.26-5.31-2.25-.99-1.02-1.485-2.415-1.485-4.185 0-1.29.24-2.445.72-3.465a7.173 7.173 0 012.07-2.655c.9-.72 1.98-1.275 3.24-1.665 1.29-.39 2.715-.585 4.275-.585 2.55 0 5.025.495 7.425 1.485l-2.745 5.31zm9.595 14.684c0-.82.3-1.53.901-2.131.6-.6 1.318-.901 2.153-.901s1.553.3 2.153.9c.601.601.901 1.32.901 2.154 0 .85-.3 1.575-.901 2.175-.586.586-1.303.88-2.153.88-.864 0-1.589-.294-2.175-.88-.586-.586-.879-1.318-.879-2.197zm10.287 0c0-.82.3-1.53.9-2.131.601-.6 1.319-.901 2.154-.901s1.553.3 2.153.9c.601.601.901 1.32.901 2.154 0 .85-.3 1.575-.901 2.175-.586.586-1.304.88-2.153.88-.864 0-1.59-.294-2.175-.88-.586-.586-.879-1.318-.879-2.197zm10.286 0c0-.82.301-1.53.901-2.131.601-.6 1.319-.901 2.154-.901s1.552.3 2.153.9c.6.601.901 1.32.901 2.154 0 .85-.301 1.575-.901 2.175-.586.586-1.304.88-2.153.88-.865 0-1.59-.294-2.176-.88-.586-.586-.879-1.318-.879-2.197z" fill="#fff"/></svg>