<svg width="565" height="58" viewBox="0 0 565 58" fill="none" xmlns="http://www.w3.org/2000/svg"><path d="M12.963 45.044h2.97c2.244 0 4.245-.352 6.006-1.056 1.76-.704 3.233-1.672 4.421-2.904a11.897 11.897 0 002.773-4.356c.66-1.716.99-3.586.99-5.61 0-1.98-.33-3.828-.99-5.544-.66-1.716-1.607-3.19-2.838-4.422-1.189-1.232-2.663-2.2-4.423-2.904-1.76-.704-3.74-1.056-5.94-1.056h-2.97v27.852zM.027 6.236h19.14c3.387 0 6.555.682 9.503 2.046 2.992 1.364 5.588 3.19 7.788 5.478 2.245 2.244 4.005 4.884 5.28 7.92a23.812 23.812 0 011.915 9.438c0 3.256-.639 6.402-1.914 9.438a24.55 24.55 0 01-5.214 7.92c-2.2 2.288-4.796 4.114-7.788 5.478C25.788 55.318 22.599 56 19.166 56H.026V6.236zm75.512 27.918c-.396-1.672-1.21-3.014-2.442-4.026-1.232-1.012-2.728-1.518-4.488-1.518-1.848 0-3.366.484-4.554 1.452-1.144.968-1.87 2.332-2.178 4.092H75.54zm-13.992 6.93c0 5.148 2.42 7.722 7.26 7.722 2.596 0 4.554-1.056 5.874-3.168h11.55c-2.332 7.744-8.162 11.616-17.49 11.616-2.86 0-5.478-.418-7.854-1.254-2.376-.88-4.422-2.112-6.138-3.696-1.672-1.584-2.97-3.476-3.894-5.676-.924-2.2-1.386-4.664-1.386-7.392 0-2.816.44-5.346 1.32-7.59.88-2.288 2.134-4.224 3.762-5.808 1.628-1.584 3.586-2.794 5.874-3.63 2.332-.88 4.95-1.32 7.854-1.32 2.86 0 5.434.44 7.722 1.32 2.288.836 4.224 2.068 5.808 3.696 1.584 1.628 2.794 3.63 3.63 6.006.836 2.332 1.254 4.972 1.254 7.92v1.254H61.547zm45.758-8.976V56H95.359V32.108h-3.96v-9.966h3.96V11.978h11.946v10.164h6.798v9.966h-6.798zm36.683 2.046c-.396-1.672-1.21-3.014-2.442-4.026-1.232-1.012-2.728-1.518-4.488-1.518-1.848 0-3.366.484-4.554 1.452-1.144.968-1.87 2.332-2.178 4.092h13.662zm-13.992 6.93c0 5.148 2.42 7.722 7.26 7.722 2.596 0 4.554-1.056 5.874-3.168h11.55c-2.332 7.744-8.162 11.616-17.49 11.616-2.86 0-5.478-.418-7.854-1.254-2.376-.88-4.422-2.112-6.138-3.696-1.672-1.584-2.97-3.476-3.894-5.676-.924-2.2-1.386-4.664-1.386-7.392 0-2.816.44-5.346 1.32-7.59.88-2.288 2.134-4.224 3.762-5.808 1.628-1.584 3.586-2.794 5.874-3.63 2.332-.88 4.95-1.32 7.854-1.32 2.86 0 5.434.44 7.722 1.32 2.288.836 4.224 2.068 5.808 3.696 1.584 1.628 2.794 3.63 3.63 6.006.836 2.332 1.254 4.972 1.254 7.92v1.254h-25.146zm18.018-34.056L136.53 17.192l-5.544-4.092 9.438-11.55 7.59 5.478zm13.957 15.114h11.946v4.29c1.628-1.98 3.278-3.3 4.95-3.96 1.672-.704 3.63-1.056 5.874-1.056 2.376 0 4.4.396 6.072 1.188a11.774 11.774 0 014.356 3.234 9.387 9.387 0 011.98 3.828c.352 1.408.528 3.014.528 4.818V56h-11.946V38.906c0-1.672-.132-3.014-.396-4.026-.22-1.056-.638-1.892-1.254-2.508a4.527 4.527 0 00-1.782-1.122 6.636 6.636 0 00-2.112-.33c-2.024 0-3.586.616-4.686 1.848-1.056 1.188-1.584 2.904-1.584 5.148V56h-11.946V22.142zm91.008 12.012c-.396-1.672-1.21-3.014-2.442-4.026-1.232-1.012-2.728-1.518-4.488-1.518-1.848 0-3.366.484-4.554 1.452-1.144.968-1.87 2.332-2.178 4.092h13.662zm-13.992 6.93c0 5.148 2.42 7.722 7.26 7.722 2.596 0 4.554-1.056 5.874-3.168h11.55c-2.332 7.744-8.162 11.616-17.49 11.616-2.86 0-5.478-.418-7.854-1.254-2.376-.88-4.422-2.112-6.138-3.696-1.672-1.584-2.97-3.476-3.894-5.676-.924-2.2-1.386-4.664-1.386-7.392 0-2.816.44-5.346 1.32-7.59.88-2.288 2.134-4.224 3.762-5.808 1.628-1.584 3.586-2.794 5.874-3.63 2.332-.88 4.95-1.32 7.854-1.32 2.86 0 5.434.44 7.722 1.32 2.288.836 4.224 2.068 5.808 3.696 1.584 1.628 2.794 3.63 3.63 6.006.836 2.332 1.254 4.972 1.254 7.92v1.254h-25.146zm43.92-39.864V56h-11.946V1.22h11.946zm43.529 30.888V56H314.49V32.108h-4.29v-9.966h4.29V17.06c0-2.816.264-5.06.792-6.732a11.601 11.601 0 012.112-3.894 15.325 15.325 0 013.366-3.168 17.034 17.034 0 014.224-2.046c1.496-.484 2.97-.726 4.422-.726 1.012 0 1.936.11 2.772.33.88.22 1.76.528 2.64.924v10.428c-.792-.396-1.54-.682-2.244-.858a6.636 6.636 0 00-2.112-.33c-.484 0-.99.088-1.518.264-.484.132-.946.44-1.386.924-.44.484-.748 1.188-.924 2.112-.132.88-.198 2.09-.198 3.63v4.224h8.382v9.966h-8.382zm12.845-9.966h11.946v5.544c1.276-2.024 2.838-3.564 4.686-4.62 1.848-1.1 4.004-1.65 6.468-1.65h.99c.396 0 .836.044 1.32.132v11.418c-1.584-.792-3.3-1.188-5.148-1.188-2.772 0-4.862.836-6.27 2.508-1.364 1.628-2.046 4.026-2.046 7.194V56h-11.946V22.142zm42.219 16.83c0 1.1.198 2.134.594 3.102a8.34 8.34 0 001.584 2.442 7.723 7.723 0 002.442 1.65 8.112 8.112 0 003.102.594 7.46 7.46 0 002.97-.594c.968-.396 1.782-.946 2.442-1.65a7.723 7.723 0 001.65-2.442 6.82 6.82 0 00.66-2.97 6.82 6.82 0 00-.66-2.97 7.54 7.54 0 00-1.65-2.508c-.66-.704-1.474-1.254-2.442-1.65a7.46 7.46 0 00-2.97-.594c-1.1 0-2.134.198-3.102.594a7.723 7.723 0 00-2.442 1.65 8.34 8.34 0 00-1.584 2.442c-.396.88-.594 1.848-.594 2.904zm15.048-16.83h12.012V56h-12.012v-3.762c-2.552 3.212-6.006 4.818-10.362 4.818-2.464 0-4.73-.44-6.798-1.32a16.816 16.816 0 01-5.412-3.828c-1.54-1.628-2.75-3.542-3.63-5.742-.836-2.2-1.254-4.598-1.254-7.194 0-2.42.418-4.708 1.254-6.864.836-2.2 2.002-4.114 3.498-5.742a16.086 16.086 0 015.346-3.828c2.068-.968 4.356-1.452 6.864-1.452 4.224 0 7.722 1.474 10.494 4.422v-3.366zm32.088 0v19.074c0 4.18 2.024 6.27 6.072 6.27s6.072-2.09 6.072-6.27V22.142h11.946v21.384c0 4.576-1.518 8.008-4.554 10.296-2.992 2.288-7.48 3.432-13.464 3.432s-10.494-1.144-13.53-3.432c-2.992-2.288-4.488-5.72-4.488-10.296V22.142h11.946zm43.292 16.83c0 1.1.198 2.134.594 3.102a8.34 8.34 0 001.584 2.442 7.723 7.723 0 002.442 1.65 8.112 8.112 0 003.102.594 7.46 7.46 0 002.97-.594c.968-.396 1.782-.946 2.442-1.65a7.723 7.723 0 001.65-2.442 6.82 6.82 0 00.66-2.97 6.82 6.82 0 00-.66-2.97 7.54 7.54 0 00-1.65-2.508c-.66-.704-1.474-1.254-2.442-1.65a7.46 7.46 0 00-2.97-.594 7.942 7.942 0 00-3.036.594 7.723 7.723 0 00-2.442 1.65 9.534 9.534 0 00-1.65 2.442c-.396.88-.594 1.848-.594 2.904zM486.976 1.22h12.012V56h-12.012v-3.762c-2.552 3.212-6.006 4.818-10.362 4.818-2.464 0-4.73-.462-6.798-1.386a16.816 16.816 0 01-5.412-3.828c-1.54-1.628-2.75-3.542-3.63-5.742-.836-2.2-1.254-4.576-1.254-7.128 0-2.42.396-4.708 1.188-6.864.836-2.2 2.002-4.114 3.498-5.742a16.086 16.086 0 015.346-3.828c2.112-.968 4.422-1.452 6.93-1.452 4.224 0 7.722 1.474 10.494 4.422V1.22zm44.891 32.934c-.396-1.672-1.21-3.014-2.442-4.026-1.232-1.012-2.728-1.518-4.488-1.518-1.848 0-3.366.484-4.554 1.452-1.144.968-1.87 2.332-2.178 4.092h13.662zm-13.992 6.93c0 5.148 2.42 7.722 7.26 7.722 2.596 0 4.554-1.056 5.874-3.168h11.55c-2.332 7.744-8.162 11.616-17.49 11.616-2.86 0-5.478-.418-7.854-1.254-2.376-.88-4.422-2.112-6.138-3.696-1.672-1.584-2.97-3.476-3.894-5.676-.924-2.2-1.386-4.664-1.386-7.392 0-2.816.44-5.346 1.32-7.59.88-2.288 2.134-4.224 3.762-5.808 1.628-1.584 3.586-2.794 5.874-3.63 2.332-.88 4.95-1.32 7.854-1.32 2.86 0 5.434.44 7.722 1.32 2.288.836 4.224 2.068 5.808 3.696 1.584 1.628 2.794 3.63 3.63 6.006.836 2.332 1.254 4.972 1.254 7.92v1.254h-25.146zm31.381 8.58a7.46 7.46 0 01.594-2.97 7.54 7.54 0 011.65-2.508 7.723 7.723 0 012.442-1.65 7.942 7.942 0 013.036-.594 7.46 7.46 0 012.97.594 7.54 7.54 0 012.508 1.65 7.54 7.54 0 011.65 2.508 7.46 7.46 0 01.594 2.97 7.942 7.942 0 01-.594 3.036 7.723 7.723 0 01-1.65 2.442 7.54 7.54 0 01-2.508 1.65 7.46 7.46 0 01-2.97.594 7.942 7.942 0 01-3.036-.594 7.723 7.723 0 01-2.442-1.65 7.723 7.723 0 01-1.65-2.442 7.942 7.942 0 01-.594-3.036z" fill="#fff"/></svg>