<svg width="565" height="59" viewBox="0 0 565 59" fill="none" xmlns="http://www.w3.org/2000/svg"><path d="M.667 42.047c0-.984.36-1.837 1.081-2.558.72-.72 1.582-1.08 2.584-1.08s1.863.36 2.584 1.08c.72.721 1.081 1.582 1.081 2.584 0 1.02-.36 1.89-1.081 2.61-.703.704-1.564 1.055-2.584 1.055-1.037 0-1.907-.351-2.61-1.054-.703-.703-1.055-1.582-1.055-2.637zm12.884 0c0-.984.36-1.837 1.081-2.558.72-.72 1.582-1.08 2.584-1.08s1.863.36 2.584 1.08c.72.721 1.081 1.582 1.081 2.584 0 1.02-.36 1.89-1.08 2.61-.704.704-1.565 1.055-2.585 1.055-1.037 0-1.907-.351-2.61-1.054-.703-.703-1.055-1.582-1.055-2.637zm12.884 0c0-.984.36-1.837 1.081-2.558.72-.72 1.582-1.08 2.584-1.08s1.863.36 2.584 1.08c.72.721 1.081 1.582 1.081 2.584 0 1.02-.36 1.89-1.08 2.61-.704.704-1.565 1.055-2.585 1.055-1.037 0-1.907-.351-2.61-1.054-.703-.703-1.055-1.582-1.055-2.637zM38 17.298h9.774V20.7c2.664-2.556 5.652-3.834 8.964-3.834 4.104 0 7.236 1.728 9.396 5.184 2.196-3.492 5.328-5.238 9.396-5.238 1.296 0 2.52.198 3.672.594a7.146 7.146 0 012.97 1.782c.828.792 1.476 1.836 1.944 3.132.504 1.296.756 2.862.756 4.698V45h-9.774V31.338c0-1.404-.108-2.556-.324-3.456-.18-.9-.468-1.602-.864-2.106-.36-.504-.792-.846-1.296-1.026a4.781 4.781 0 00-1.62-.27c-3.132 0-4.698 2.286-4.698 6.858V45h-9.774V31.338c0-1.404-.09-2.556-.27-3.456-.18-.936-.45-1.674-.81-2.214-.324-.54-.756-.9-1.296-1.08-.54-.216-1.17-.324-1.89-.324a5.43 5.43 0 00-1.728.27c-.54.18-1.026.54-1.458 1.08-.396.504-.72 1.224-.972 2.16-.216.9-.324 2.088-.324 3.564V45H38V17.298zm73.828 9.828c-.324-1.368-.99-2.466-1.998-3.294-1.008-.828-2.232-1.242-3.672-1.242-1.512 0-2.754.396-3.726 1.188-.936.792-1.53 1.908-1.782 3.348h11.178zm-11.448 5.67c0 4.212 1.98 6.318 5.94 6.318 2.124 0 3.726-.864 4.806-2.592h9.45c-1.908 6.336-6.678 9.504-14.31 9.504-2.34 0-4.482-.342-6.426-1.026-1.944-.72-3.618-1.728-5.022-3.024-1.368-1.296-2.43-2.844-3.186-4.644-.756-1.8-1.134-3.816-1.134-6.048 0-2.304.36-4.374 1.08-6.21.72-1.872 1.746-3.456 3.078-4.752 1.332-1.296 2.934-2.286 4.806-2.97 1.908-.72 4.05-1.08 6.426-1.08 2.34 0 4.446.36 6.318 1.08 1.872.684 3.456 1.692 4.752 3.024 1.296 1.332 2.286 2.97 2.97 4.914.684 1.908 1.026 4.068 1.026 6.48v1.026H100.38zm26.161-15.498h9.774v3.51c1.332-1.62 2.682-2.7 4.05-3.24 1.368-.576 2.97-.864 4.806-.864 1.944 0 3.6.324 4.968.972a9.633 9.633 0 013.564 2.646 7.68 7.68 0 011.62 3.132c.288 1.152.432 2.466.432 3.942V45h-9.774V31.014c0-1.368-.108-2.466-.324-3.294-.18-.864-.522-1.548-1.026-2.052a3.704 3.704 0 00-1.458-.918 5.43 5.43 0 00-1.728-.27c-1.656 0-2.934.504-3.834 1.512-.864.972-1.296 2.376-1.296 4.212V45h-9.774V17.298zm54.22 7.128c-1.8-.936-3.564-1.404-5.292-1.404-.9 0-1.638.18-2.214.54-.54.36-.81.846-.81 1.458 0 .324.036.594.108.81.108.18.306.36.594.54.324.18.774.342 1.35.486.612.144 1.404.324 2.376.54 2.7.54 4.716 1.512 6.048 2.916 1.332 1.368 1.998 3.132 1.998 5.292 0 1.62-.324 3.078-.972 4.374a9.556 9.556 0 01-2.7 3.294c-1.152.864-2.538 1.53-4.158 1.998-1.62.504-3.402.756-5.346.756-3.744 0-7.434-1.062-11.07-3.186l3.564-6.912c2.736 1.872 5.328 2.808 7.776 2.808.9 0 1.638-.198 2.214-.594.576-.396.864-.9.864-1.512 0-.36-.054-.648-.162-.864-.072-.252-.252-.468-.54-.648-.288-.216-.72-.396-1.296-.54-.54-.18-1.26-.36-2.16-.54-3.024-.612-5.148-1.512-6.372-2.7-1.188-1.224-1.782-2.898-1.782-5.022 0-1.548.288-2.934.864-4.158a8.608 8.608 0 012.484-3.186c1.08-.864 2.376-1.53 3.888-1.998 1.548-.468 3.258-.702 5.13-.702 3.06 0 6.03.594 8.91 1.782l-3.294 6.372zm18.186 6.642c0 .9.162 1.746.486 2.538a6.824 6.824 0 001.296 1.998 6.319 6.319 0 001.998 1.35 6.637 6.637 0 002.538.486c.864 0 1.674-.162 2.43-.486a5.603 5.603 0 001.998-1.35 6.319 6.319 0 001.35-1.998 5.58 5.58 0 00.54-2.43 5.58 5.58 0 00-.54-2.43 6.169 6.169 0 00-1.35-2.052 5.603 5.603 0 00-1.998-1.35 6.103 6.103 0 00-2.43-.486c-.9 0-1.746.162-2.538.486a6.319 6.319 0 00-1.998 1.35 6.824 6.824 0 00-1.296 1.998c-.324.72-.486 1.512-.486 2.376zm12.312-13.77h9.828V45h-9.828v-3.078c-2.088 2.628-4.914 3.942-8.478 3.942-2.016 0-3.87-.36-5.562-1.08a13.759 13.759 0 01-4.428-3.132c-1.26-1.332-2.25-2.898-2.97-4.698-.684-1.8-1.026-3.762-1.026-5.886 0-1.98.342-3.852 1.026-5.616.684-1.8 1.638-3.366 2.862-4.698a13.161 13.161 0 014.374-3.132c1.692-.792 3.564-1.188 5.616-1.188 3.456 0 6.318 1.206 8.586 3.618v-2.754zm27.255 0v41.526h-9.774V17.298h9.774zM228.092 6.66c0-.756.144-1.458.432-2.106a5.52 5.52 0 011.188-1.782c.504-.504 1.08-.9 1.728-1.188a5.51 5.51 0 012.16-.432c.756 0 1.458.144 2.106.432a5.52 5.52 0 011.782 1.188 5.52 5.52 0 011.188 1.782c.288.648.432 1.35.432 2.106a5.51 5.51 0 01-.432 2.16 5.696 5.696 0 01-1.188 1.728 5.52 5.52 0 01-1.782 1.188 5.126 5.126 0 01-2.106.432 5.51 5.51 0 01-2.16-.432 5.696 5.696 0 01-1.728-1.188 5.696 5.696 0 01-1.188-1.728 5.51 5.51 0 01-.432-2.16zm37.352 20.466c-.324-1.368-.99-2.466-1.998-3.294-1.008-.828-2.232-1.242-3.672-1.242-1.512 0-2.754.396-3.726 1.188-.936.792-1.53 1.908-1.782 3.348h11.178zm-11.448 5.67c0 4.212 1.98 6.318 5.94 6.318 2.124 0 3.726-.864 4.806-2.592h9.45c-1.908 6.336-6.678 9.504-14.31 9.504-2.34 0-4.482-.342-6.426-1.026-1.944-.72-3.618-1.728-5.022-3.024-1.368-1.296-2.43-2.844-3.186-4.644-.756-1.8-1.134-3.816-1.134-6.048 0-2.304.36-4.374 1.08-6.21.72-1.872 1.746-3.456 3.078-4.752 1.332-1.296 2.934-2.286 4.806-2.97 1.908-.72 4.05-1.08 6.426-1.08 2.34 0 4.446.36 6.318 1.08 1.872.684 3.456 1.692 4.752 3.024 1.296 1.332 2.286 2.97 2.97 4.914.684 1.908 1.026 4.068 1.026 6.48v1.026h-20.574zm44.52-8.37c-1.8-.936-3.564-1.404-5.292-1.404-.9 0-1.638.18-2.214.54-.54.36-.81.846-.81 1.458 0 .324.036.594.108.81.108.18.306.36.594.54.324.18.774.342 1.35.486.612.144 1.404.324 2.376.54 2.7.54 4.716 1.512 6.048 2.916 1.332 1.368 1.998 3.132 1.998 5.292 0 1.62-.324 3.078-.972 4.374a9.556 9.556 0 01-2.7 3.294c-1.152.864-2.538 1.53-4.158 1.998-1.62.504-3.402.756-5.346.756-3.744 0-7.434-1.062-11.07-3.186l3.564-6.912c2.736 1.872 5.328 2.808 7.776 2.808.9 0 1.638-.198 2.214-.594.576-.396.864-.9.864-1.512 0-.36-.054-.648-.162-.864-.072-.252-.252-.468-.54-.648-.288-.216-.72-.396-1.296-.54-.54-.18-1.26-.36-2.16-.54-3.024-.612-5.148-1.512-6.372-2.7-1.188-1.224-1.782-2.898-1.782-5.022 0-1.548.288-2.934.864-4.158a8.608 8.608 0 012.484-3.186c1.08-.864 2.376-1.53 3.888-1.998 1.548-.468 3.258-.702 5.13-.702 3.06 0 6.03.594 8.91 1.782l-3.294 6.372zm36.539 6.642c0 .9.162 1.746.486 2.538a6.824 6.824 0 001.296 1.998 6.319 6.319 0 001.998 1.35 6.637 6.637 0 002.538.486c.864 0 1.674-.162 2.43-.486a5.603 5.603 0 001.998-1.35 6.319 6.319 0 001.35-1.998 5.58 5.58 0 00.54-2.43 5.58 5.58 0 00-.54-2.43 6.169 6.169 0 00-1.35-2.052 5.603 5.603 0 00-1.998-1.35 6.103 6.103 0 00-2.43-.486c-.864 0-1.692.162-2.484.486a6.319 6.319 0 00-1.998 1.35 7.8 7.8 0 00-1.35 1.998c-.324.72-.486 1.512-.486 2.376zM347.367.18h9.828V45h-9.828v-3.078c-2.088 2.628-4.914 3.942-8.478 3.942-2.016 0-3.87-.378-5.562-1.134a13.759 13.759 0 01-4.428-3.132c-1.26-1.332-2.25-2.898-2.97-4.698-.684-1.8-1.026-3.744-1.026-5.832 0-1.98.324-3.852.972-5.616.684-1.8 1.638-3.366 2.862-4.698a13.161 13.161 0 014.374-3.132c1.728-.792 3.618-1.188 5.67-1.188 3.456 0 6.318 1.206 8.586 3.618V.18zm36.729 26.946c-.324-1.368-.99-2.466-1.998-3.294-1.008-.828-2.232-1.242-3.672-1.242-1.512 0-2.754.396-3.726 1.188-.936.792-1.53 1.908-1.782 3.348h11.178zm-11.448 5.67c0 4.212 1.98 6.318 5.94 6.318 2.124 0 3.726-.864 4.806-2.592h9.45c-1.908 6.336-6.678 9.504-14.31 9.504-2.34 0-4.482-.342-6.426-1.026-1.944-.72-3.618-1.728-5.022-3.024-1.368-1.296-2.43-2.844-3.186-4.644-.756-1.8-1.134-3.816-1.134-6.048 0-2.304.36-4.374 1.08-6.21.72-1.872 1.746-3.456 3.078-4.752 1.332-1.296 2.934-2.286 4.806-2.97 1.908-.72 4.05-1.08 6.426-1.08 2.34 0 4.446.36 6.318 1.08 1.872.684 3.456 1.692 4.752 3.024 1.296 1.332 2.286 2.97 2.97 4.914.684 1.908 1.026 4.068 1.026 6.48v1.026h-20.574zm55.42-7.344V45h-9.774V25.452h-3.24v-8.154h3.24V8.982h9.774v8.316h5.562v8.154h-5.562zm30.014 1.674c-.324-1.368-.99-2.466-1.998-3.294-1.008-.828-2.232-1.242-3.672-1.242-1.512 0-2.754.396-3.726 1.188-.936.792-1.53 1.908-1.782 3.348h11.178zm-11.448 5.67c0 4.212 1.98 6.318 5.94 6.318 2.124 0 3.726-.864 4.806-2.592h9.45c-1.908 6.336-6.678 9.504-14.31 9.504-2.34 0-4.482-.342-6.426-1.026-1.944-.72-3.618-1.728-5.022-3.024-1.368-1.296-2.43-2.844-3.186-4.644-.756-1.8-1.134-3.816-1.134-6.048 0-2.304.36-4.374 1.08-6.21.72-1.872 1.746-3.456 3.078-4.752 1.332-1.296 2.934-2.286 4.806-2.97 1.908-.72 4.05-1.08 6.426-1.08 2.34 0 4.446.36 6.318 1.08 1.872.684 3.456 1.692 4.752 3.024 1.296 1.332 2.286 2.97 2.97 4.914.684 1.908 1.026 4.068 1.026 6.48v1.026h-20.574zm35.161-2.808l-11.232-12.69h12.744l4.752 5.724 4.86-5.724h12.744l-11.502 12.69L508.039 45h-12.96l-7.074-8.208L480.877 45h-12.906l13.824-15.012zm40.51-4.536V45h-9.774V25.452h-3.24v-8.154h3.24V8.982h9.774v8.316h5.562v8.154h-5.562zm18.945 5.562c0 .936.162 1.8.486 2.592a7.8 7.8 0 001.35 1.998 6.319 6.319 0 001.998 1.35c.792.324 1.62.486 2.484.486.864 0 1.674-.162 2.43-.486a5.603 5.603 0 001.998-1.35 6.319 6.319 0 001.35-1.998c.36-.792.54-1.638.54-2.538a5.58 5.58 0 00-.54-2.43 6.169 6.169 0 00-1.35-2.052 5.603 5.603 0 00-1.998-1.35 6.103 6.103 0 00-2.43-.486c-.864 0-1.692.162-2.484.486a6.319 6.319 0 00-1.998 1.35 7.8 7.8 0 00-1.35 1.998 6.103 6.103 0 00-.486 2.43zm-10.314-.108c0-2.052.414-3.96 1.242-5.724.828-1.8 1.98-3.348 3.456-4.644 1.476-1.332 3.222-2.376 5.238-3.132 2.052-.756 4.284-1.134 6.696-1.134 2.376 0 4.572.378 6.588 1.134 2.052.72 3.816 1.746 5.292 3.078a13.322 13.322 0 013.51 4.698c.828 1.8 1.242 3.798 1.242 5.994 0 2.196-.432 4.212-1.296 6.048a14.335 14.335 0 01-3.456 4.698c-1.476 1.296-3.258 2.304-5.346 3.024-2.052.72-4.284 1.08-6.696 1.08-2.376 0-4.572-.36-6.588-1.08-2.016-.72-3.762-1.746-5.238-3.078a14.54 14.54 0 01-3.402-4.752c-.828-1.872-1.242-3.942-1.242-6.21z" fill="#fff"/></svg>