<svg width="239" height="95" viewBox="0 0 239 95" fill="none" xmlns="http://www.w3.org/2000/svg"><path d="M46.289 40V5.656h14.31c11.5 0 18.709 7.791 18.709 17.172S72.1 40 60.598 40h-14.31zm10.07-8.533h3.869c5.14 0 8.427-3.657 8.427-8.639 0-4.929-3.286-8.639-8.427-8.639h-3.87v17.278zm42.129 9.063c-8.215 0-15.211-5.141-15.211-14.045 0-7.844 6.095-14.098 14.098-14.098 7.685 0 13.568 6.254 13.568 14.098 0 1.643-.212 3.127-.212 3.127H92.764c.795 2.544 3.18 3.498 5.777 3.498 2.279 0 4.717-.689 6.413-1.643l3.233 6.519c-3.021 1.855-6.36 2.544-9.7 2.544zm-5.99-16.377h9.647c-.318-2.491-2.28-4.187-4.77-4.187-2.385 0-4.293 1.696-4.876 4.187zm33.498 16.377c-5.194 0-8.586-3.339-8.586-9.275V20.549h-3.975v-7.632h3.975V8.041l9.646-2.385v7.261h5.989v7.632h-5.989v9.964c0 1.272.636 1.696 1.484 1.696.795 0 1.749-.371 2.438-.848l2.597 7.049c-2.332 1.643-5.194 2.12-7.579 2.12zm20.063-30.74l5.565-9.487h9.275l-7.685 9.487h-7.155zm5.247 30.74c-8.215 0-15.211-5.141-15.211-14.045 0-7.844 6.095-14.098 14.098-14.098 7.685 0 13.568 6.254 13.568 14.098 0 1.643-.212 3.127-.212 3.127h-17.967c.795 2.544 3.18 3.498 5.777 3.498 2.279 0 4.717-.689 6.413-1.643l3.233 6.519c-3.021 1.855-6.36 2.544-9.699 2.544zm-5.989-16.377h9.646c-.318-2.491-2.279-4.187-4.77-4.187-2.385 0-4.293 1.696-4.876 4.187zM168.002 40V12.917h9.116v3.127c2.491-2.915 5.459-3.657 8.162-3.657 6.837 0 9.487 4.028 9.487 11.978V40h-9.646V25.584c0-3.074-1.166-4.187-3.021-4.187-2.968 0-4.452 2.491-4.452 5.83V40h-9.646zM15.684 94.53C7.469 94.53.473 89.389.473 80.485c0-7.844 6.095-14.098 14.098-14.098 7.685 0 13.568 6.254 13.568 14.098 0 1.643-.212 3.127-.212 3.127H9.96c.795 2.544 3.18 3.498 5.777 3.498 2.279 0 4.717-.689 6.413-1.643l3.233 6.519c-3.021 1.855-6.36 2.544-9.7 2.544zm-5.99-16.377h9.647c-.318-2.491-2.28-4.187-4.77-4.187-2.385 0-4.293 1.696-4.876 4.187zM32.38 94V59.126h9.646V94H32.38zm28.27 0V74.761h-4.08v-7.632h4.08v-1.696c0-5.936 3.392-9.275 8.586-9.275 2.385 0 5.247.371 7.58 1.537l-2.598 7.049c-.689-.265-1.43-.424-2.12-.424-1.007 0-1.802.53-1.802 2.226v.583h5.3v7.632h-5.3V94H60.65zm17.677 0V66.917h9.38v4.823c.16-1.166 2.492-5.353 8.852-5.353v10.494c-6.996 0-8.586 2.915-8.586 8.003V94h-9.646zm33.034.53c-7.526 0-11.607-6.254-11.607-14.045 0-7.844 4.081-14.098 11.607-14.098 2.173 0 5.777.742 7.367 3.551v-3.021h9.116V94h-9.116v-3.021c-1.484 2.756-5.194 3.551-7.367 3.551zm2.544-8.48c2.544 0 4.346-2.279 4.346-5.565 0-3.233-1.802-5.618-4.346-5.618s-4.346 2.385-4.346 5.618c0 3.286 1.802 5.565 4.346 5.565zm28.282 8.48c-8.162 0-9.858-5.088-9.858-11.978V66.917h9.646v14.416c0 2.862.954 4.187 3.498 4.187 2.915 0 3.975-2.491 3.975-5.83V66.917h9.646V94h-9.116v-2.968c-1.484 1.908-4.982 3.498-7.791 3.498zm32.758 0c-7.526 0-11.607-6.254-11.607-14.045 0-7.844 4.346-14.098 11.925-14.098 2.173 0 4.876.742 6.519 2.809v-10.07h9.646V94h-9.116v-3.021c-1.431 2.756-5.194 3.551-7.367 3.551zm2.544-8.48c2.544 0 4.346-2.279 4.346-5.565 0-3.233-1.802-5.618-4.346-5.618s-4.346 2.385-4.346 5.618c0 3.286 1.802 5.565 4.346 5.565zm33.369 8.48c-8.215 0-15.211-5.141-15.211-14.045 0-7.844 6.095-14.098 14.098-14.098 7.685 0 13.568 6.254 13.568 14.098 0 1.643-.212 3.127-.212 3.127h-17.967c.795 2.544 3.18 3.498 5.777 3.498 2.279 0 4.717-.689 6.413-1.643l3.233 6.519c-3.021 1.855-6.36 2.544-9.699 2.544zm-5.989-16.377h9.646c-.318-2.491-2.279-4.187-4.77-4.187-2.385 0-4.293 1.696-4.876 4.187zm28.357 16.377c-3.021 0-5.247-2.279-5.247-5.194s2.226-5.194 5.247-5.194c3.074 0 5.353 2.279 5.353 5.194s-2.279 5.194-5.353 5.194z" fill="#fff"/></svg>