<svg width="211" height="98" viewBox="0 0 211 98" fill="none" xmlns="http://www.w3.org/2000/svg"><path d="M.048 41V13.917h9.116v2.968c2.014-2.279 5.14-3.498 8.162-3.498 4.346 0 6.678 1.749 7.95 4.187 2.332-3.392 5.936-4.187 8.639-4.187 8.745 0 9.487 7.049 9.487 12.508V41h-9.646V27.008c0-3.233-.901-4.717-3.021-4.717-2.862 0-4.187 2.597-4.187 5.936V41h-9.646V27.008c0-3.233-.901-4.717-3.021-4.717-2.862 0-4.187 2.597-4.187 5.936V41H.048zm62.517.53c-8.215 0-15.21-5.141-15.21-14.045 0-7.844 6.094-14.098 14.097-14.098 7.685 0 13.568 6.254 13.568 14.098 0 1.643-.212 3.127-.212 3.127H56.841c.795 2.544 3.18 3.498 5.777 3.498 2.28 0 4.717-.689 6.413-1.643l3.233 6.519c-3.02 1.855-6.36 2.544-9.699 2.544zm-5.989-16.377h9.646c-.318-2.491-2.279-4.187-4.77-4.187-2.385 0-4.293 1.696-4.876 4.187zM79.262 41V13.917h9.116v3.127c2.49-2.915 5.459-3.657 8.162-3.657 6.837 0 9.487 4.028 9.487 11.978V41h-9.646V26.584c0-3.074-1.166-4.187-3.021-4.187-2.968 0-4.452 2.491-4.452 5.83V41h-9.646zm41.238.53c-6.201 0-9.646-1.855-11.236-3.233l3.074-6.784c2.12 1.431 4.081 2.279 8.215 2.279.106 0 2.65-.159 2.65-1.219 0-.848-1.59-1.007-3.18-1.378-5.883-1.431-10.229-3.816-10.229-8.798 0-5.936 5.406-9.01 11.13-9.01 5.247 0 8.374 1.166 10.971 2.544l-2.862 6.466c-3.127-1.219-5.989-1.59-7.791-1.59-.954 0-1.696.318-1.696.848 0 1.007 2.279 1.378 4.982 2.12 3.816 1.113 8.427 2.968 8.427 8.427 0 7.261-7.367 9.328-12.455 9.328zm27.211 0c-7.526 0-11.607-6.254-11.607-14.045 0-7.844 4.081-14.098 11.607-14.098 2.173 0 5.777.742 7.367 3.551v-3.021h9.116V41h-9.116v-3.021c-1.484 2.756-5.194 3.551-7.367 3.551zm2.544-8.48c2.544 0 4.346-2.279 4.346-5.565 0-3.233-1.802-5.618-4.346-5.618s-4.346 2.385-4.346 5.618c0 3.286 1.802 5.565 4.346 5.565zm17.682 18.232l-3.498-6.519c3.392-1.696 4.505-4.717 4.505-7.897V13.917h9.646v21.412c0 8.427-3.71 12.879-10.653 15.953zm5.777-39.432c-2.968 0-5.459-2.491-5.459-5.459 0-3.021 2.491-5.512 5.459-5.512 3.074 0 5.565 2.491 5.565 5.512 0 2.968-2.491 5.459-5.565 5.459zm24.312 29.68c-8.215 0-15.211-5.141-15.211-14.045 0-7.844 6.095-14.098 14.098-14.098 7.685 0 13.568 6.254 13.568 14.098 0 1.643-.212 3.127-.212 3.127h-17.967c.795 2.544 3.18 3.498 5.777 3.498 2.279 0 4.717-.689 6.413-1.643l3.233 6.519c-3.021 1.855-6.36 2.544-9.699 2.544zm-5.989-16.377h9.646c-.318-2.491-2.279-4.187-4.77-4.187-2.385 0-4.293 1.696-4.876 4.187zM12.8 97.53c-7.526 0-11.607-6.254-11.607-14.045 0-7.844 4.346-14.098 11.925-14.098 2.173 0 4.876.742 6.52 2.809v-10.07h9.645V97h-9.116v-3.021c-1.43 2.756-5.194 3.551-7.367 3.551zm2.544-8.48c2.545 0 4.347-2.279 4.347-5.565 0-3.233-1.802-5.618-4.346-5.618-2.545 0-4.347 2.385-4.347 5.618 0 3.286 1.803 5.565 4.347 5.565zm33.37 8.48c-8.215 0-15.211-5.141-15.211-14.045 0-7.844 6.095-14.098 14.098-14.098 7.685 0 13.568 6.254 13.568 14.098 0 1.643-.212 3.127-.212 3.127H42.99c.795 2.544 3.18 3.498 5.777 3.498 2.279 0 4.717-.689 6.413-1.643l3.233 6.519c-3.021 1.855-6.36 2.544-9.7 2.544zm-5.99-16.377h9.647c-.318-2.491-2.28-4.187-4.77-4.187-2.385 0-4.293 1.696-4.876 4.187zM88.502 97.53c-5.194 0-8.586-3.339-8.586-9.275V77.549H75.94v-7.632h3.975v-4.876l9.646-2.385v7.261h5.99v7.632h-5.99v9.964c0 1.272.636 1.696 1.484 1.696.796 0 1.75-.371 2.439-.848l2.597 7.049c-2.332 1.643-5.195 2.12-7.58 2.12zm25.31 0c-8.215 0-15.211-5.141-15.211-14.045 0-7.844 6.095-14.098 14.098-14.098 7.685 0 13.568 6.254 13.568 14.098 0 1.643-.212 3.127-.212 3.127h-17.967c.795 2.544 3.18 3.498 5.777 3.498 2.279 0 4.717-.689 6.413-1.643l3.233 6.519c-3.021 1.855-6.36 2.544-9.699 2.544zm-5.989-16.377h9.646c-.318-2.491-2.279-4.187-4.77-4.187-2.385 0-4.293 1.696-4.876 4.187zM127.16 97l8.003-13.886-8.003-13.197h10.388l1.113 2.332c1.06 2.226 2.597 5.883 2.597 5.883s1.537-3.657 2.597-5.883l1.113-2.332h10.388l-8.003 13.197L155.356 97h-10.494l-1.325-2.968c-.954-2.173-2.279-5.777-2.279-5.777s-1.378 3.551-2.332 5.777L137.654 97H127.16zm42.276.53c-5.194 0-8.586-3.339-8.586-9.275V77.549h-3.975v-7.632h3.975v-4.876l9.646-2.385v7.261h5.989v7.632h-5.989v9.964c0 1.272.636 1.696 1.484 1.696.795 0 1.749-.371 2.438-.848l2.597 7.049c-2.332 1.643-5.194 2.12-7.579 2.12zm24.726 0c-8.321 0-14.628-6.254-14.628-14.045 0-7.844 6.307-14.098 14.628-14.098s14.628 6.254 14.628 14.098c0 7.791-6.307 14.045-14.628 14.045zm0-8.48c2.862 0 4.876-2.279 4.876-5.565 0-3.233-2.014-5.618-4.876-5.618-2.862 0-4.876 2.385-4.876 5.618 0 3.286 2.014 5.565 4.876 5.565z" fill="#fff"/></svg>