<svg width="271" height="260" viewBox="0 0 271 260" fill="none" xmlns="http://www.w3.org/2000/svg"><path fill-rule="evenodd" clip-rule="evenodd" d="M123.664 246.129c24.459 0 48.368-7.218 68.704-20.74 20.337-13.523 36.187-32.743 45.547-55.23a122.505 122.505 0 007.037-71.103 122.875 122.875 0 00-33.844-63.011c-17.295-17.211-39.33-28.932-63.318-33.68a124.224 124.224 0 00-71.45 7.003c-22.597 9.314-41.91 25.088-55.499 45.326a122.64 122.64 0 00-20.84 68.37c-.001 32.639 13.028 63.941 36.22 87.02 23.191 23.079 54.645 36.045 87.443 36.045z" fill="#495E89" opacity=".54"/><path fill-rule="evenodd" clip-rule="evenodd" d="M16.221 243.85a10.54 10.54 0 005.837-1.762 10.463 10.463 0 003.868-4.693 10.404 10.404 0 00.597-6.04 10.439 10.439 0 00-2.877-5.352 10.513 10.513 0 00-5.38-2.859 10.558 10.558 0 00-6.07.598 10.49 10.49 0 00-4.712 3.853 10.418 10.418 0 001.313 13.196 10.528 10.528 0 007.424 3.059z" fill="#7588AF"/><path fill-rule="evenodd" clip-rule="evenodd" d="M207.038 260a91.002 91.002 0 0050.382-15.205 90.332 90.332 0 0033.401-40.498 89.832 89.832 0 005.162-52.14 90.104 90.104 0 00-24.817-46.206 90.82 90.82 0 00-46.431-24.697 91.09 91.09 0 00-52.394 5.137 90.59 90.59 0 00-40.696 33.24 89.936 89.936 0 00-15.279 50.137c0 23.931 9.553 46.882 26.558 63.804C159.928 250.493 182.991 260 207.038 260z" fill="#1A2B4F" opacity=".51"/></svg>