<svg width="221" height="47" viewBox="0 0 221 47" fill="none" xmlns="http://www.w3.org/2000/svg"><path d="M17.027 46.09C7.764 46.09.743 39.128.743 30.455c0-8.732 7.02-15.694 16.284-15.694 9.263 0 16.284 6.962 16.284 15.694 0 8.673-7.021 15.635-16.284 15.635zm0-9.44c3.186 0 5.428-2.537 5.428-6.195 0-3.599-2.242-6.254-5.428-6.254s-5.428 2.655-5.428 6.254c0 3.658 2.242 6.195 5.428 6.195zm51.034 9.44c-9.145 0-16.933-5.723-16.933-15.635 0-8.732 6.785-15.694 15.694-15.694 8.555 0 15.104 6.962 15.104 15.694 0 1.829-.236 3.481-.236 3.481H61.689c.885 2.832 3.54 3.894 6.43 3.894 2.538 0 5.252-.767 7.14-1.829l3.599 7.257c-3.363 2.065-7.08 2.832-10.797 2.832zm-6.667-18.231h10.738c-.354-2.773-2.537-4.661-5.31-4.661-2.655 0-4.78 1.888-5.428 4.661zM86.647 45.5V15.351h10.148v3.304c2.242-2.537 5.724-3.894 9.087-3.894 4.838 0 7.434 1.947 8.85 4.661 2.596-3.776 6.608-4.661 9.617-4.661 9.735 0 10.561 7.847 10.561 13.924V45.5h-10.738V29.924c0-3.599-1.003-5.251-3.363-5.251-3.186 0-4.661 2.891-4.661 6.608V45.5H105.41V29.924c0-3.599-1.003-5.251-3.363-5.251-3.186 0-4.662 2.891-4.662 6.608V45.5H86.647zm65.584.59c-8.378 0-12.921-6.962-12.921-15.635 0-8.732 4.543-15.694 12.921-15.694 2.419 0 6.431.826 8.201 3.953v-3.363h10.148V45.5h-10.148v-3.363c-1.652 3.068-5.782 3.953-8.201 3.953zm2.832-9.44c2.832 0 4.838-2.537 4.838-6.195 0-3.599-2.006-6.254-4.838-6.254-2.832 0-4.838 2.655-4.838 6.254 0 3.658 2.006 6.195 4.838 6.195zm20.804 8.85V15.351h10.738V45.5h-10.738zm5.31-32.45c-3.304 0-6.077-2.773-6.077-6.077 0-3.363 2.773-6.136 6.077-6.136 3.422 0 6.195 2.773 6.195 6.136 0 3.304-2.773 6.077-6.195 6.077zm10.721 32.45V6.678h10.738V45.5h-10.738zm22.344.59c-3.363 0-5.841-2.537-5.841-5.782s2.478-5.782 5.841-5.782c3.422 0 5.959 2.537 5.959 5.782s-2.537 5.782-5.959 5.782z" fill="#fff"/></svg>