<svg width="215" height="154" viewBox="0 0 215 154" fill="none" xmlns="http://www.w3.org/2000/svg"><path d="M36.23 27V1.728h19.11v2.73H39.35v7.683h14.977v2.691H39.35v9.438h16.575V27H36.23zm23.489 0V1.338h2.964V27h-2.964zM76.6 27V10.464H73.52V8.007h3.08V6.564c0-4.719 2.497-6.006 5.11-6.006 1.872 0 3.627.702 4.563 1.287l-.975 2.262c-.39-.234-1.521-.936-2.964-.936-1.482 0-2.77.741-2.77 3.705v1.131h6.046v2.457h-6.045V27H76.6zm11.835 0V8.007h2.963v4.017c1.093-2.496 3.55-4.407 7.332-4.407v3.237c-4.445 0-7.331 2.496-7.331 7.137V27h-2.965zm21.52.39c-5.265 0-8.97-4.368-8.97-9.867 0-5.577 3.705-9.906 8.97-9.906 3.042 0 5.733 1.248 7.137 3.705V8.007h2.964V27h-2.964v-3.315c-1.404 2.496-4.095 3.705-7.137 3.705zm.663-2.886c3.627 0 6.474-3.003 6.474-6.981 0-3.978-2.847-7.02-6.474-7.02-3.783 0-6.591 2.964-6.591 7.02 0 4.017 2.808 6.981 6.591 6.981zm21.008 2.886c-4.68 0-6.903-2.457-6.903-7.527V8.007h2.964v11.466c0 3.549 1.716 5.031 4.797 5.031 3.432 0 5.421-2.808 5.421-5.733V8.007h2.964V27h-2.847v-3.354c-1.17 2.457-3.9 3.744-6.396 3.744zm22.432 0c-5.265 0-8.97-4.368-8.97-9.867 0-5.577 3.705-9.906 8.97-9.906 3.042 0 5.733 1.248 7.137 3.705V1.338h2.964V27h-2.847v-3.315c-1.404 2.496-4.173 3.705-7.254 3.705zm.663-2.886c3.627 0 6.474-3.003 6.474-6.981 0-3.978-2.847-7.02-6.474-7.02-3.783 0-6.591 2.964-6.591 7.02 0 4.017 2.808 6.981 6.591 6.981zm23.583 2.886c-5.382 0-9.945-3.861-9.945-9.867 0-5.499 4.134-9.906 9.555-9.906 5.07 0 9.087 4.368 9.087 9.789 0 .546-.078 1.131-.078 1.17h-15.483c.468 3.783 3.393 6.162 6.903 6.162 2.145 0 4.29-.741 5.85-2.028l1.287 2.184a11.622 11.622 0 01-7.176 2.496zm-6.864-11.076h12.636c-.312-3.51-3.003-6.045-6.318-6.045-3.237 0-5.889 2.496-6.318 6.045zM.152 74.499V50.007H3v3.276c1.404-2.457 4.173-3.666 7.254-3.666 5.265 0 8.97 4.329 8.97 9.867 0 5.538-3.705 9.906-8.97 9.906-3.003 0-5.733-1.248-7.137-3.705v8.814H.152zm9.438-7.995c3.783 0 6.591-2.964 6.591-7.02 0-4.017-2.808-6.981-6.59-6.981-3.628 0-6.475 3.003-6.475 6.981 0 3.978 2.847 7.02 6.474 7.02zm20.424 2.886c-4.68 0-6.903-2.457-6.903-7.527V50.007h2.964v11.466c0 3.549 1.716 5.031 4.797 5.031 3.432 0 5.42-2.808 5.42-5.733V50.007h2.965V69H36.41v-3.354c-1.17 2.457-3.9 3.744-6.396 3.744zm23.407 0c-5.382 0-9.945-3.861-9.945-9.867 0-5.499 4.134-9.906 9.555-9.906 5.07 0 9.087 4.368 9.087 9.789 0 .546-.078 1.131-.078 1.17H46.557c.468 3.783 3.393 6.162 6.903 6.162 2.145 0 4.29-.741 5.85-2.028l1.287 2.184a11.622 11.622 0 01-7.176 2.496zm-6.864-11.076h12.636c-.312-3.51-3.003-6.045-6.318-6.045-3.237 0-5.89 2.496-6.318 6.045zM74.536 69.39c-5.265 0-8.97-4.368-8.97-9.867 0-5.577 3.705-9.906 8.97-9.906 3.042 0 5.733 1.248 7.137 3.705v-9.984h2.964V69H81.79v-3.315c-1.404 2.496-4.173 3.705-7.254 3.705zm.663-2.886c3.627 0 6.474-3.003 6.474-6.981 0-3.978-2.847-7.02-6.474-7.02-3.783 0-6.591 2.964-6.591 7.02 0 4.017 2.808 6.981 6.59 6.981zM98.78 69.39c-5.382 0-9.945-3.861-9.945-9.867 0-5.499 4.134-9.906 9.555-9.906 5.07 0 9.087 4.368 9.087 9.789 0 .546-.078 1.131-.078 1.17H91.917c.468 3.783 3.393 6.162 6.903 6.162 2.145 0 4.29-.741 5.85-2.028l1.287 2.184a11.621 11.621 0 01-7.176 2.496zm-6.864-11.076h12.636c-.312-3.51-3.003-6.045-6.318-6.045-3.237 0-5.889 2.496-6.318 6.045zM120.2 69V43.338h2.964V69h-2.964zm7.96 0V43.338h2.964V69h-2.964zm17.125.39c-5.382 0-9.945-3.861-9.945-9.867 0-5.499 4.134-9.906 9.555-9.906 5.07 0 9.087 4.368 9.087 9.789 0 .546-.078 1.131-.078 1.17H138.42c.468 3.783 3.393 6.162 6.903 6.162 2.145 0 4.29-.741 5.85-2.028l1.287 2.184a11.622 11.622 0 01-7.176 2.496zm-6.864-11.076h12.636c-.312-3.51-3.003-6.045-6.318-6.045-3.237 0-5.889 2.496-6.318 6.045zm28.33 16.419c-3.042 0-5.655-1.014-7.449-2.808l1.248-1.911c1.521 1.521 3.744 2.379 5.967 2.379 3.237 0 6.903-1.989 6.903-7.605v-.624c-.819 2.145-3.432 3.9-7.098 3.9-5.226 0-8.892-4.056-8.892-9.204 0-5.148 3.666-9.243 8.892-9.243 3.276 0 6.24 1.482 7.215 3.861v-3.471h2.847V64.71c0 7.644-5.46 10.023-9.633 10.023zm.156-9.321c3.705 0 6.513-2.808 6.513-6.786 0-3.588-2.925-6.357-6.513-6.357-3.627 0-6.435 2.847-6.435 6.591s2.808 6.552 6.435 6.552zm22.649 3.978c-5.265 0-8.97-4.368-8.97-9.867 0-5.577 3.705-9.906 8.97-9.906 3.042 0 5.733 1.248 7.137 3.705v-3.315h2.964V69h-2.964v-3.315c-1.404 2.496-4.095 3.705-7.137 3.705zm.663-2.886c3.627 0 6.474-3.003 6.474-6.981 0-3.978-2.847-7.02-6.474-7.02-3.783 0-6.591 2.964-6.591 7.02 0 4.017 2.808 6.981 6.591 6.981zM204.636 69V50.007h2.964v4.017c1.092-2.496 3.549-4.407 7.332-4.407v3.237c-4.446 0-7.332 2.496-7.332 7.137V69h-2.964zM46.105 111.39c-5.265 0-8.97-4.368-8.97-9.867 0-5.577 3.705-9.906 8.97-9.906 3.042 0 5.733 1.248 7.137 3.705v-3.315h2.964V111H53.24v-3.315c-1.404 2.496-4.094 3.705-7.136 3.705zm.663-2.886c3.627 0 6.474-3.003 6.474-6.981 0-3.978-2.847-7.02-6.474-7.02-3.784 0-6.592 2.964-6.592 7.02 0 4.017 2.808 6.981 6.591 6.981zm29.267 2.886c-3.354 0-5.343-1.638-5.343-6.084V94.464h-2.847v-2.457h2.847v-4.095l2.964-.546v4.641h6.474v2.457h-6.474v10.92c0 2.613 1.131 3.354 2.652 3.354 1.755 0 3.12-1.053 3.12-1.053l.975 2.301c-.74.507-2.3 1.404-4.368 1.404zm7.887-.39V92.007h2.964v4.017c1.092-2.496 3.55-4.407 7.332-4.407v3.237c-4.446 0-7.332 2.496-7.332 7.137V111h-2.964zm21.52.39c-5.265 0-8.97-4.368-8.97-9.867 0-5.577 3.705-9.906 8.97-9.906 3.042 0 5.733 1.248 7.137 3.705v-3.315h2.964V111h-2.964v-3.315c-1.404 2.496-4.095 3.705-7.137 3.705zm.663-2.886c3.627 0 6.474-3.003 6.474-6.981 0-3.978-2.847-7.02-6.474-7.02-3.783 0-6.59 2.964-6.59 7.02 0 4.017 2.807 6.981 6.59 6.981zm20.658 2.613l-8.385-19.11h3.003l5.382 12.129c.78 1.755 1.365 3.783 1.365 3.783s.585-2.028 1.365-3.783l5.343-12.129h3.003l-8.346 19.11h-2.73zm20.197-22.152l3.159-5.187h3.237l-3.666 5.187h-2.73zm2.418 22.425c-5.382 0-9.945-3.861-9.945-9.867 0-5.499 4.134-9.906 9.555-9.906 5.07 0 9.087 4.368 9.087 9.789 0 .546-.078 1.131-.078 1.17h-15.483c.468 3.783 3.393 6.162 6.903 6.162 2.145 0 4.29-.741 5.85-2.028l1.287 2.184a11.622 11.622 0 01-7.176 2.496zm-6.864-11.076h12.636c-.312-3.51-3.003-6.045-6.318-6.045-3.237 0-5.889 2.496-6.318 6.045zm26.185 11.076c-3.861 0-6.318-1.755-7.41-2.886l1.209-2.418c1.404 1.365 3.432 2.496 6.201 2.496 2.613 0 4.758-1.209 4.758-2.925 0-1.989-2.301-2.535-4.602-3.12-3.51-.897-6.708-1.872-6.708-5.499 0-3.432 3.588-5.421 6.786-5.421 2.613 0 4.524.702 6.474 2.028l-1.17 2.418c-1.599-1.092-3.276-1.638-5.265-1.638-1.95 0-3.783 1.092-3.783 2.574 0 1.872 2.106 2.301 4.329 2.769 3.432.78 6.981 2.067 6.981 5.811 0 4.017-4.095 5.811-7.8 5.811zm-81.576 42c-5.265 0-8.97-4.368-8.97-9.867 0-5.577 3.705-9.906 8.97-9.906 3.042 0 5.733 1.248 7.137 3.705v-9.984h2.964V153h-2.847v-3.315c-1.404 2.496-4.173 3.705-7.254 3.705zm.663-2.886c3.627 0 6.474-3.003 6.474-6.981 0-3.978-2.847-7.02-6.474-7.02-3.783 0-6.591 2.964-6.591 7.02 0 4.017 2.808 6.981 6.591 6.981zm23.583 2.886c-5.382 0-9.945-3.861-9.945-9.867 0-5.499 4.134-9.906 9.555-9.906 5.07 0 9.087 4.368 9.087 9.789 0 .546-.078 1.131-.078 1.17h-15.483c.468 3.783 3.393 6.162 6.903 6.162 2.145 0 4.29-.741 5.85-2.028l1.287 2.184a11.622 11.622 0 01-7.176 2.496zm-6.864-11.076h12.636c-.312-3.51-3.003-6.045-6.318-6.045-3.237 0-5.889 2.496-6.318 6.045zm21.231 11.076c-1.17 0-2.028-.936-2.028-2.067 0-1.131.897-2.067 2.028-2.067a2.08 2.08 0 012.067 2.067 2.08 2.08 0 01-2.067 2.067zm7.922 0c-1.17 0-2.028-.936-2.028-2.067 0-1.131.897-2.067 2.028-2.067a2.08 2.08 0 012.067 2.067 2.08 2.08 0 01-2.067 2.067zm7.922 0c-1.17 0-2.028-.936-2.028-2.067 0-1.131.897-2.067 2.028-2.067a2.08 2.08 0 012.067 2.067 2.08 2.08 0 01-2.067 2.067z" fill="#fff" fill-opacity=".75"/></svg>