<svg width="143" height="25" viewBox="0 0 143 25" fill="none" xmlns="http://www.w3.org/2000/svg"><path d="M5.28 9.064l.984-.108-.432-1.248H2.856l-.42 1.248.948.108V10H.036v-.936l.528-.132c.144-.036.252-.084.3-.228l2.628-7.392h2.124l2.616 7.416c.048.144.144.168.288.204l.552.132V10H5.28v-.936zm-.948-5.916L3.228 6.412h2.244L4.404 3.148h-.072zm5.193 8.436l.48-.072c.168-.024.216-.072.216-.252V5.2c0-.132-.024-.204-.155-.252l-.637-.228.132-.972h2.113l.107.612.06.024c.577-.468 1.357-.756 2.04-.756 1.345 0 2.305.84 2.305 3.072 0 1.44-.492 3.444-2.473 3.444a2.676 2.676 0 01-1.691-.6v1.704c0 .192.011.228.191.24l1.225.108v.948H9.524v-.96zm2.496-3.3c.264.228.684.456 1.128.456.805 0 1.14-.768 1.14-1.944 0-1.236-.42-1.74-1.02-1.74-.504 0-.983.252-1.248.432v2.796zm5.02.744l.54-.072c.167-.024.191-.06.191-.24V5.2c0-.132-.036-.216-.156-.252l-.648-.228.132-.972h2.112l.144.96h.072c.396-.612.924-1.08 1.692-1.08.276 0 .828.048 1.044.108V5.92l-1.44-.048-.12-.636c-.024-.108-.06-.132-.156-.132-.312 0-.684.264-.864.42v3.18c0 .192.012.228.192.24l1.188.096V10H17.04v-.972zm11.313.504c-.744.36-1.56.612-2.46.612-2.316 0-3.108-1.44-3.108-3.312 0-2.172 1.332-3.204 2.976-3.204 1.584 0 2.64.828 2.64 2.904 0 .144-.012.564-.024.804h-3.672c.06.852.432 1.416 1.416 1.416.468 0 .972-.108 1.788-.408l.444 1.188zm-1.728-3.336c-.012-1.008-.408-1.272-.9-1.272-.516 0-.936.288-1.008 1.272h1.908zm7-.072c0-.576-.036-1.056-.636-1.056-.444 0-.996.252-1.248.444v3.216c0 .192.012.216.192.24l.576.084V10h-3.312v-.96l.54-.072c.168-.024.192-.06.192-.24V5.2c0-.132-.036-.216-.156-.252l-.648-.228.144-.972h2.1l.096.624.048.024c.6-.444 1.296-.768 2.112-.768 1.308 0 1.812.72 1.812 2.04v3.06c0 .192.012.216.192.24l.6.084V10h-2.604V6.124zm7.669 3.204l-.084-.012c-.505.492-1.093.828-1.968.828-1.416 0-2.329-.9-2.329-3.192 0-2.412 1.212-3.324 2.544-3.324.697 0 1.236.24 1.693.576V2.38c0-.12-.049-.204-.157-.24l-.66-.228.133-.972h2.412v7.8c0 .18.012.204.192.228l.576.084V10h-2.233l-.12-.672zm-.217-3.948c-.3-.204-.684-.36-1.032-.36-.888 0-1.236.828-1.236 1.896 0 1.164.337 1.812 1.093 1.812.407 0 .852-.24 1.175-.516V5.38zm8.67 4.152c-.743.36-1.56.612-2.46.612-2.315 0-3.107-1.44-3.107-3.312 0-2.172 1.332-3.204 2.976-3.204 1.584 0 2.64.828 2.64 2.904 0 .144-.012.564-.024.804H46.1c.06.852.432 1.416 1.416 1.416.468 0 .972-.108 1.788-.408l.444 1.188zm-1.727-3.336c-.012-1.008-.408-1.272-.9-1.272-.516 0-.936.288-1.008 1.272h1.908zm8.742-1.188c-.024-.108-.036-.144-.12-.168a2.86 2.86 0 00-.768-.096c-.6 0-.936.228-.936.612 0 .492.66.6 1.392.768.948.216 2.016.552 2.016 1.956 0 1.464-1.188 2.064-2.712 2.064-1.092 0-2.16-.288-2.376-.432v-1.74l1.284.096.12.684c.024.108.036.144.144.18.144.048.468.12.924.12.636 0 .996-.18.996-.624 0-.48-.48-.624-1.092-.732-1.008-.18-2.328-.396-2.328-1.968 0-1.488 1.272-2.1 2.652-2.1.948 0 1.872.216 2.208.348v1.74l-1.284-.084-.12-.624zm5.44 5.136c-2.196 0-3.084-1.344-3.084-3.228 0-1.992 1.044-3.288 3.24-3.288 2.22 0 3.084 1.32 3.084 3.156 0 2.04-1.032 3.36-3.24 3.36zm.084-1.26c.78 0 1.26-.54 1.26-2.04 0-1.416-.432-1.92-1.212-1.92-.792 0-1.32.492-1.32 1.932 0 1.452.468 2.028 1.272 2.028zM66.514 10c.084-.54.18-1.164.18-1.752V2.392c0-.132-.036-.216-.156-.252l-.66-.228.132-.972h2.472v3.324l.048.012a2.723 2.723 0 011.812-.648c1.296 0 2.316.84 2.316 3.072 0 2.472-1.044 3.444-2.52 3.444-.792 0-1.392-.336-1.764-.756l-.06.012-.084.6h-1.716zm1.98-1.728c.276.252.684.468 1.104.468.792 0 1.164-.744 1.164-1.944 0-.936-.3-1.752-1.104-1.752-.432 0-.876.228-1.164.42v2.808zm5.02.756l.54-.072c.169-.024.193-.06.193-.24V5.2c0-.132-.036-.216-.156-.252l-.648-.228.132-.972h2.112l.144.96h.072c.396-.612.924-1.08 1.692-1.08.276 0 .828.048 1.044.108V5.92l-1.44-.048-.12-.636c-.024-.108-.06-.132-.156-.132-.312 0-.684.264-.864.42v3.18c0 .192.012.228.192.24l1.188.096V10h-3.924v-.972zm11.314.504c-.744.36-1.56.612-2.46.612-2.316 0-3.108-1.44-3.108-3.312 0-2.172 1.332-3.204 2.976-3.204 1.584 0 2.64.828 2.64 2.904 0 .144-.012.564-.024.804H81.18c.06.852.432 1.416 1.416 1.416.468 0 .972-.108 1.788-.408l.444 1.188zM83.1 6.196c-.012-1.008-.408-1.272-.9-1.272-.516 0-.936.288-1.008 1.272H83.1zm5.059 2.856l.6-.084c.168-.024.192-.06.192-.24V2.392c0-.132-.036-.216-.156-.252l-.66-.228.132-.972h2.496v7.788c0 .192.012.216.192.24l.588.084V10h-3.384v-.948zm7.888.3l-.06-.012c-.456.444-1.056.804-2.016.804-1.512 0-1.752-1.032-1.752-1.776 0-1.2.732-1.74 2.244-1.848l1.38-.096v-.66c0-.564-.06-.948-.804-.948-.576 0-.876.084-.876.804l-1.692-.144c0-1.62 1.476-1.848 2.58-1.848 1.824 0 2.556.492 2.556 2.172v2.916c0 .192.012.216.192.24l.576.096V10h-2.208l-.12-.648zm-1.02-1.872c-.708.048-.96.228-.96.708s.288.66.684.66c.408 0 .816-.228 1.092-.432V7.42l-.816.06zm7.462-2.472c-.024-.108-.036-.144-.12-.168a2.86 2.86 0 00-.768-.096c-.6 0-.936.228-.936.612 0 .492.66.6 1.392.768.948.216 2.016.552 2.016 1.956 0 1.464-1.188 2.064-2.712 2.064-1.092 0-2.16-.288-2.376-.432v-1.74l1.284.096.12.684c.024.108.036.144.144.18.144.048.468.12.924.12.636 0 .996-.18.996-.624 0-.48-.48-.624-1.092-.732-1.008-.18-2.328-.396-2.328-1.968 0-1.488 1.272-2.1 2.652-2.1.948 0 1.872.216 2.208.348v1.74l-1.284-.084-.12-.624z" fill="#2B3D51"/><path d="M5.892 23.532c-.744.36-1.56.612-2.46.612-2.316 0-3.108-1.44-3.108-3.312 0-2.172 1.332-3.204 2.976-3.204 1.584 0 2.64.828 2.64 2.904 0 .144-.012.564-.024.804H2.244c.06.852.432 1.416 1.416 1.416.468 0 .972-.108 1.788-.408l.444 1.188zm-1.728-3.336c-.012-1.008-.408-1.272-.9-1.272-.516 0-.936.288-1.008 1.272h1.908zm6.126-1.188c-.024-.108-.036-.144-.12-.168a2.86 2.86 0 00-.768-.096c-.6 0-.936.228-.936.612 0 .492.66.6 1.392.768.948.216 2.016.552 2.016 1.956 0 1.464-1.188 2.064-2.712 2.064-1.092 0-2.16-.288-2.376-.432v-1.74l1.284.096.12.684c.024.108.036.144.144.18.144.048.468.12.924.12.636 0 .996-.18.996-.624 0-.48-.48-.624-1.092-.732-1.008-.18-2.328-.396-2.328-1.968 0-1.488 1.272-2.1 2.652-2.1.948 0 1.872.216 2.208.348v1.74l-1.284-.084-.12-.624zm6.988 4.656c-.516.252-1.272.48-1.956.48-1.428 0-1.968-.576-1.968-1.932v-3.144c0-.072 0-.12-.096-.12h-.84V17.88c1.056-.12 1.476-.648 1.608-1.956h1.14v1.704c0 .084 0 .12.096.12h1.692v1.2h-1.788v2.868c0 .708.168.984.816.984.336 0 .684-.084.972-.192l.324 1.056zm4.439-.312l-.06-.012c-.456.444-1.056.804-2.016.804-1.512 0-1.752-1.032-1.752-1.776 0-1.2.732-1.74 2.244-1.848l1.38-.096v-.66c0-.564-.06-.948-.804-.948-.576 0-.876.084-.876.804l-1.692-.144c0-1.62 1.476-1.848 2.58-1.848 1.824 0 2.556.492 2.556 2.172v2.916c0 .192.012.216.192.24l.576.096V24h-2.208l-.12-.648zm-1.02-1.872c-.708.048-.96.228-.96.708s.288.66.684.66c.408 0 .816-.228 1.092-.432v-.996l-.816.06zm3.92 1.56l.671-.072c.168-.024.192-.072.192-.252v-3.648c0-.072 0-.12-.096-.12h-.803v-1.2h.9v-.66c0-1.62.911-2.292 2.567-2.292 1.117 0 2.149.276 2.149 1.728l-1.68.204c.012-.612-.157-.756-.552-.756-.6 0-.672.324-.672.9v.756c0 .084 0 .12.096.12h1.896v1.2h-1.992v3.732c0 .192.035.228.216.24l1.463.132V24h-4.356v-.96zm8.894.312l-.06-.012c-.456.444-1.056.804-2.015.804-1.512 0-1.753-1.032-1.753-1.776 0-1.2.733-1.74 2.244-1.848l1.38-.096v-.66c0-.564-.06-.948-.803-.948-.576 0-.876.084-.876.804l-1.692-.144c0-1.62 1.476-1.848 2.58-1.848 1.824 0 2.556.492 2.556 2.172v2.916c0 .192.011.216.191.24l.577.096V24H33.63l-.12-.648zm-1.02-1.872c-.707.048-.96.228-.96.708s.289.66.684.66c.408 0 .816-.228 1.092-.432v-.996l-.816.06zm7.462-2.472c-.024-.108-.036-.144-.12-.168a2.86 2.86 0 00-.768-.096c-.6 0-.936.228-.936.612 0 .492.66.6 1.392.768.948.216 2.016.552 2.016 1.956 0 1.464-1.188 2.064-2.712 2.064-1.092 0-2.16-.288-2.376-.432v-1.74l1.284.096.12.684c.024.108.036.144.144.18.144.048.468.12.924.12.636 0 .996-.18.996-.624 0-.48-.48-.624-1.092-.732-1.008-.18-2.328-.396-2.328-1.968 0-1.488 1.272-2.1 2.652-2.1.948 0 1.872.216 2.208.348v1.74l-1.284-.084-.12-.624zm10.325 4.548c-.552.336-1.404.588-2.28.588-2.172 0-3.144-1.356-3.144-3.18 0-2.244 1.368-3.336 3.288-3.336.936 0 1.764.264 2.136.504v1.884l-1.284-.06-.144-.792c-.012-.084-.036-.156-.144-.192a2.086 2.086 0 00-.612-.084c-.72 0-1.332.492-1.332 1.896 0 1.56.696 2.004 1.548 2.004.6 0 1.14-.192 1.5-.348l.468 1.116zm3.745.588c-2.196 0-3.084-1.344-3.084-3.228 0-1.992 1.044-3.288 3.24-3.288 2.22 0 3.084 1.32 3.084 3.156 0 2.04-1.032 3.36-3.24 3.36zm.084-1.26c.78 0 1.26-.54 1.26-2.04 0-1.416-.432-1.92-1.212-1.92-.792 0-1.32.492-1.32 1.932 0 1.452.468 2.028 1.272 2.028zm8.306-2.76c0-.576-.036-1.056-.636-1.056-.444 0-.996.252-1.248.444v3.216c0 .192.012.216.192.24l.576.084V24h-3.312v-.96l.54-.072c.168-.024.192-.06.192-.24V19.2c0-.132-.036-.216-.156-.252l-.648-.228.144-.972h2.1l.096.624.048.024c.6-.444 1.296-.768 2.112-.768 1.308 0 1.812.72 1.812 2.04v3.06c0 .192.012.216.192.24l.6.084V24h-2.604v-3.876zm7.765 3.54c-.516.252-1.272.48-1.956.48-1.428 0-1.968-.576-1.968-1.932v-3.144c0-.072 0-.12-.096-.12h-.84V17.88c1.056-.12 1.476-.648 1.608-1.956h1.14v1.704c0 .084 0 .12.096.12h1.692v1.2h-1.788v2.868c0 .708.168.984.816.984.336 0 .684-.084.972-.192l.324 1.056zm.703-.636l.54-.072c.168-.024.192-.06.192-.24V19.2c0-.132-.036-.216-.156-.252l-.648-.228.132-.972h2.112l.144.96h.072c.396-.612.924-1.08 1.692-1.08.276 0 .828.048 1.044.108v2.184l-1.44-.048-.12-.636c-.024-.108-.06-.132-.156-.132-.312 0-.684.264-.864.42v3.18c0 .192.012.228.192.24l1.188.096V24H70.88v-.972zm9.4.324l-.06-.012c-.457.444-1.057.804-2.017.804-1.512 0-1.752-1.032-1.752-1.776 0-1.2.732-1.74 2.244-1.848l1.38-.096v-.66c0-.564-.06-.948-.804-.948-.576 0-.876.084-.876.804l-1.692-.144c0-1.62 1.476-1.848 2.58-1.848 1.824 0 2.556.492 2.556 2.172v2.916c0 .192.012.216.192.24l.576.096V24H80.4l-.12-.648zm-1.02-1.872c-.709.048-.96.228-.96.708s.287.66.683.66c.408 0 .816-.228 1.092-.432v-.996l-.816.06zm13.317 1.584l.984-.084c.18-.012.192-.072.192-.24v-4.56h-.048l-1.716 4.092h-1.956l-1.692-4.104h-.06v4.56c0 .192.024.228.192.24l1.032.096V24h-3.648v-.936l.756-.084c.168-.024.192-.06.192-.24v-6.156c0-.18-.024-.216-.192-.24l-.756-.084v-.948h3.216l2.088 5.436h.048l2.196-5.436h3.12v.936l-.804.096c-.18.024-.192.048-.192.228v6.168c0 .156.036.204.192.228l.804.096V24h-3.948v-.936zm10.261.468c-.744.36-1.56.612-2.46.612-2.316 0-3.108-1.44-3.108-3.312 0-2.172 1.332-3.204 2.976-3.204 1.584 0 2.64.828 2.64 2.904 0 .144-.012.564-.024.804h-3.672c.06.852.432 1.416 1.416 1.416.468 0 .972-.108 1.788-.408l.444 1.188zm-1.728-3.336c-.012-1.008-.408-1.272-.9-1.272-.516 0-.936.288-1.008 1.272h1.908zm7.026 3.132l-.084-.012c-.504.492-1.092.828-1.968.828-1.416 0-2.328-.9-2.328-3.192 0-2.412 1.212-3.324 2.544-3.324.696 0 1.236.24 1.692.576V16.38c0-.12-.048-.204-.156-.24l-.66-.228.132-.972h2.412v7.8c0 .18.012.204.192.228l.576.084V24h-2.232l-.12-.672zm-.216-3.948c-.3-.204-.684-.36-1.032-.36-.888 0-1.236.828-1.236 1.896 0 1.164.336 1.812 1.092 1.812.408 0 .852-.24 1.176-.516V19.38zm5.752-3.672c0 .684-.396 1.08-1.092 1.08-.684 0-1.08-.396-1.08-1.08s.396-1.056 1.08-1.056c.696 0 1.092.372 1.092 1.056zm-2.64 7.344l.612-.084c.168-.024.192-.06.192-.24V19.2c0-.132-.036-.216-.156-.252l-.648-.228.132-.972h2.484v4.98c0 .192.012.216.192.24l.612.084V24h-3.42v-.948zm9.425.504c-.552.336-1.404.588-2.28.588-2.172 0-3.144-1.356-3.144-3.18 0-2.244 1.368-3.336 3.288-3.336.936 0 1.764.264 2.136.504v1.884l-1.284-.06-.144-.792c-.012-.084-.036-.156-.144-.192a2.086 2.086 0 00-.612-.084c-.72 0-1.332.492-1.332 1.896 0 1.56.696 2.004 1.548 2.004.6 0 1.14-.192 1.5-.348l.468 1.116zm4.549-.204l-.06-.012c-.456.444-1.056.804-2.016.804-1.512 0-1.752-1.032-1.752-1.776 0-1.2.732-1.74 2.244-1.848l1.38-.096v-.66c0-.564-.06-.948-.804-.948-.576 0-.876.084-.876.804l-1.692-.144c0-1.62 1.476-1.848 2.58-1.848 1.824 0 2.556.492 2.556 2.172v2.916c0 .192.012.216.192.24l.576.096V24h-2.208l-.12-.648zm-1.02-1.872c-.708.048-.96.228-.96.708s.288.66.684.66c.408 0 .816-.228 1.092-.432v-.996l-.816.06zm3.907 1.548l.54-.072c.168-.024.192-.06.192-.24V19.2c0-.132-.036-.216-.156-.252l-.648-.228.132-.972h2.112l.144.96h.072c.396-.612.924-1.08 1.692-1.08.276 0 .828.048 1.044.108v2.184l-1.44-.048-.12-.636c-.024-.108-.06-.132-.156-.132-.312 0-.684.264-.864.42v3.18c0 .192.012.228.192.24l1.188.096V24h-3.924v-.972zm11.314.504c-.744.36-1.56.612-2.46.612-2.316 0-3.108-1.44-3.108-3.312 0-2.172 1.332-3.204 2.976-3.204 1.584 0 2.64.828 2.64 2.904 0 .144-.012.564-.024.804h-3.672c.06.852.432 1.416 1.416 1.416.468 0 .972-.108 1.788-.408l.444 1.188zm-1.728-3.336c-.012-1.008-.408-1.272-.9-1.272-.516 0-.936.288-1.008 1.272h1.908zm4.854 3.012c0 .612-.336.936-1.02.936-.696 0-1.032-.312-1.032-.936 0-.612.336-.936 1.032-.936.672 0 1.02.324 1.02.936z" fill="#8F3FB0"/></svg>