<svg width="259" height="15" viewBox="0 0 259 15" fill="none" xmlns="http://www.w3.org/2000/svg"><path d="M6.878 7.36L5.734 4.097 4.59 7.36h2.288zm.676 1.937h-3.64L3.329 11H.612l3.73-9.802h2.783L10.855 11H8.14l-.585-1.703zm9.652-1.612a1.47 1.47 0 00-.117-.585 1.332 1.332 0 00-.312-.494 1.485 1.485 0 00-.494-.325 1.373 1.373 0 00-.598-.13 1.47 1.47 0 00-.585.117 1.521 1.521 0 00-.481.325c-.13.139-.238.303-.325.494a1.47 1.47 0 00-.117.585c0 .208.039.403.117.585.078.182.186.342.325.481.139.13.299.238.481.325a1.565 1.565 0 001.183 0c.182-.078.338-.186.468-.325a1.52 1.52 0 00.325-.481c.087-.182.13-.373.13-.572zm-2.964 6.643h-2.353V4.331h2.353v.741c.503-.633 1.187-.949 2.054-.949.477 0 .919.095 1.326.286a3.274 3.274 0 011.781 1.885c.173.433.26.897.26 1.391s-.087.953-.26 1.378a3.396 3.396 0 01-.702 1.118c-.295.32-.646.572-1.053.754-.407.182-.85.273-1.326.273-.832 0-1.525-.286-2.08-.858v3.978zm6.762-9.997h2.353v1.092c.252-.399.56-.702.923-.91.364-.217.789-.325 1.274-.325h.195c.078 0 .165.009.26.026v2.249a2.236 2.236 0 00-1.014-.234c-.546 0-.957.165-1.235.494-.268.32-.403.793-.403 1.417V11h-2.353V4.331zm11.007 2.366a1.416 1.416 0 00-.48-.793 1.348 1.348 0 00-.885-.299c-.364 0-.663.095-.897.286-.225.19-.368.46-.429.806h2.691zm-2.756 1.365c0 1.014.477 1.521 1.43 1.521.511 0 .897-.208 1.157-.624h2.275c-.46 1.525-1.608 2.288-3.445 2.288A4.633 4.633 0 0129.125 11a3.605 3.605 0 01-1.209-.728 3.257 3.257 0 01-.767-1.118 3.726 3.726 0 01-.273-1.456c0-.555.087-1.053.26-1.495.173-.45.42-.832.741-1.144.32-.312.706-.55 1.157-.715.46-.173.975-.26 1.547-.26.563 0 1.07.087 1.521.26.45.165.832.407 1.144.728.312.32.55.715.715 1.183.165.46.247.98.247 1.56v.247h-4.953zm6.298-3.731h2.353v.845c.32-.39.646-.65.975-.78.33-.139.715-.208 1.157-.208.468 0 .867.078 1.196.234.338.147.624.36.858.637.19.225.32.477.39.754s.104.594.104.949V11h-2.353V7.633c0-.33-.026-.594-.078-.793a.955.955 0 00-.247-.494.892.892 0 00-.35-.221 1.307 1.307 0 00-.417-.065c-.399 0-.706.121-.923.364-.208.234-.312.572-.312 1.014V11h-2.353V4.331zM46.37 7.646c0 .217.039.42.117.611.078.182.182.342.312.481.139.139.299.247.48.325a1.598 1.598 0 001.197 0 1.35 1.35 0 00.48-.325c.14-.139.248-.299.326-.481.087-.182.13-.377.13-.585 0-.208-.044-.403-.13-.585a1.486 1.486 0 00-.325-.494 1.35 1.35 0 00-.481-.325 1.564 1.564 0 00-1.183 0 1.52 1.52 0 00-.481.325c-.13.139-.238.299-.325.481a1.378 1.378 0 00-.117.572zM49.334.21H51.7V11h-2.366v-.741c-.503.633-1.183.949-2.041.949a3.245 3.245 0 01-2.405-1.027 3.538 3.538 0 01-.715-1.131 3.92 3.92 0 01-.247-1.404c0-.477.078-.927.234-1.352.165-.433.394-.81.689-1.131.295-.32.646-.572 1.053-.754.416-.19.87-.286 1.365-.286.832 0 1.52.29 2.067.871V.21zm8.842 6.487a1.415 1.415 0 00-.48-.793 1.347 1.347 0 00-.885-.299c-.364 0-.663.095-.897.286-.225.19-.368.46-.429.806h2.691zM55.42 8.062c0 1.014.477 1.521 1.43 1.521.511 0 .897-.208 1.157-.624h2.275c-.46 1.525-1.607 2.288-3.445 2.288A4.633 4.633 0 0155.29 11a3.605 3.605 0 01-1.209-.728 3.259 3.259 0 01-.767-1.118 3.726 3.726 0 01-.273-1.456c0-.555.087-1.053.26-1.495.173-.45.42-.832.741-1.144a3.22 3.22 0 011.157-.715c.46-.173.975-.26 1.547-.26.563 0 1.07.087 1.521.26.45.165.832.407 1.144.728.312.32.55.715.715 1.183.165.46.247.98.247 1.56v.247H55.42zm15.136-2.015c-.433-.225-.858-.338-1.274-.338a.99.99 0 00-.533.13.402.402 0 00-.195.351c0 .078.009.143.026.195a.425.425 0 00.143.13c.078.043.186.082.325.117.147.035.338.078.572.13.65.13 1.135.364 1.456.702.32.33.481.754.481 1.274 0 .39-.078.741-.234 1.053a2.301 2.301 0 01-.65.793 3.073 3.073 0 01-1 .481c-.39.121-.82.182-1.288.182-.901 0-1.79-.256-2.665-.767l.858-1.664c.659.45 1.283.676 1.872.676a.921.921 0 00.533-.143c.139-.095.208-.217.208-.364a.468.468 0 00-.039-.208.278.278 0 00-.13-.156.888.888 0 00-.312-.13 4.5 4.5 0 00-.52-.13c-.728-.147-1.24-.364-1.534-.65-.286-.295-.429-.698-.429-1.209 0-.373.07-.706.208-1.001.139-.303.338-.559.598-.767.26-.208.572-.368.936-.481a4.255 4.255 0 011.235-.169c.737 0 1.452.143 2.145.429l-.793 1.534zm4.417 1.586c0 .225.04.433.117.624.087.182.195.342.325.481.139.139.3.247.481.325a1.565 1.565 0 001.183 0c.191-.078.351-.186.481-.325a1.52 1.52 0 00.325-.481c.087-.19.13-.394.13-.611 0-.208-.043-.403-.13-.585a1.485 1.485 0 00-.325-.494 1.348 1.348 0 00-.48-.325 1.565 1.565 0 00-1.183 0 1.521 1.521 0 00-.482.325c-.13.139-.238.299-.325.481a1.47 1.47 0 00-.117.585zm-2.483-.026c0-.494.1-.953.3-1.378.199-.433.476-.806.831-1.118.356-.32.776-.572 1.261-.754a4.629 4.629 0 011.612-.273c.572 0 1.101.091 1.586.273.494.173.919.42 1.274.741.364.312.646.689.845 1.131.2.433.3.914.3 1.443s-.105 1.014-.313 1.456c-.199.433-.476.81-.832 1.131a3.803 3.803 0 01-1.287.728 4.838 4.838 0 01-1.612.26c-.572 0-1.1-.087-1.586-.26a3.732 3.732 0 01-1.26-.741 3.503 3.503 0 01-.82-1.144c-.199-.45-.299-.949-.299-1.495zm14.68.078a1.47 1.47 0 00-.117-.585 1.486 1.486 0 00-.806-.819 1.373 1.373 0 00-.598-.13 1.47 1.47 0 00-.585.117 1.52 1.52 0 00-.481.325c-.13.139-.239.303-.325.494a1.47 1.47 0 00-.117.585c0 .208.039.403.117.585.078.182.186.342.325.481.139.13.299.238.48.325a1.564 1.564 0 001.184 0c.182-.078.338-.186.468-.325.138-.139.247-.299.325-.481.086-.182.13-.373.13-.572zM84.206.21v4.784c.554-.58 1.248-.871 2.08-.871.494 0 .945.095 1.352.286.416.182.767.433 1.053.754.294.312.524.685.689 1.118.165.425.247.88.247 1.365 0 .494-.087.958-.26 1.391a3.366 3.366 0 01-1.781 1.898c-.407.182-.85.273-1.326.273-.867 0-1.552-.316-2.054-.949V11h-2.353V.21h2.353zm6.762 4.121h2.353v1.092c.251-.399.56-.702.923-.91.364-.217.789-.325 1.274-.325h.195c.078 0 .165.009.26.026v2.249a2.236 2.236 0 00-1.014-.234c-.546 0-.958.165-1.235.494-.269.32-.403.793-.403 1.417V11h-2.353V4.331zm11.007 2.366a1.414 1.414 0 00-.481-.793 1.347 1.347 0 00-.884-.299c-.364 0-.663.095-.897.286-.225.19-.368.46-.43.806h2.692zm-2.756 1.365c0 1.014.477 1.521 1.43 1.521.511 0 .897-.208 1.157-.624h2.275c-.459 1.525-1.608 2.288-3.445 2.288-.563 0-1.08-.082-1.547-.247a3.605 3.605 0 01-1.21-.728 3.259 3.259 0 01-.766-1.118 3.726 3.726 0 01-.273-1.456c0-.555.087-1.053.26-1.495.173-.45.42-.832.74-1.144a3.22 3.22 0 011.158-.715c.46-.173.975-.26 1.547-.26.563 0 1.07.087 1.521.26a3.01 3.01 0 011.144.728c.312.32.55.715.715 1.183.165.46.247.98.247 1.56v.247h-4.953zm15.591-1.365a1.414 1.414 0 00-.481-.793 1.347 1.347 0 00-.884-.299c-.364 0-.663.095-.897.286-.225.19-.368.46-.429.806h2.691zm-2.756 1.365c0 1.014.477 1.521 1.43 1.521.511 0 .897-.208 1.157-.624h2.275c-.459 1.525-1.608 2.288-3.445 2.288a4.634 4.634 0 01-1.547-.247 3.605 3.605 0 01-1.209-.728 3.263 3.263 0 01-.767-1.118 3.726 3.726 0 01-.273-1.456c0-.555.087-1.053.26-1.495.173-.45.42-.832.741-1.144a3.22 3.22 0 011.157-.715c.459-.173.975-.26 1.547-.26.563 0 1.07.087 1.521.26a3.01 3.01 0 011.144.728c.312.32.55.715.715 1.183.165.46.247.98.247 1.56v.247h-4.953zM120.705.21V11h-2.353V.21h2.353zm8.574 6.084V11h-2.353V6.294h-.845V4.331h.845V3.33c0-.555.052-.997.156-1.326.086-.277.225-.533.416-.767.19-.243.411-.45.663-.624a3.35 3.35 0 01.832-.403c.294-.095.585-.143.871-.143.199 0 .381.022.546.065.173.043.346.104.52.182v2.054a2.193 2.193 0 00-.442-.169 1.309 1.309 0 00-.416-.065.941.941 0 00-.299.052.577.577 0 00-.273.182.833.833 0 00-.182.416 5.086 5.086 0 00-.039.715v.832h1.651v1.963h-1.651zm2.53-1.963h2.353v1.092c.251-.399.559-.702.923-.91.364-.217.789-.325 1.274-.325h.195c.078 0 .165.009.26.026v2.249a2.236 2.236 0 00-1.014-.234c-.546 0-.958.165-1.235.494-.269.32-.403.793-.403 1.417V11h-2.353V4.331zm8.316 3.315c0 .217.039.42.117.611.078.182.182.342.312.481.138.139.299.247.481.325a1.594 1.594 0 001.196 0c.19-.078.351-.186.481-.325.138-.139.247-.299.325-.481.086-.182.13-.377.13-.585 0-.208-.044-.403-.13-.585a1.495 1.495 0 00-.325-.494 1.355 1.355 0 00-.481-.325 1.594 1.594 0 00-1.196 0 1.514 1.514 0 00-.481.325c-.13.139-.234.299-.312.481a1.378 1.378 0 00-.117.572zm2.964-3.315h2.366V11h-2.366v-.741c-.503.633-1.183.949-2.041.949-.486 0-.932-.087-1.339-.26a3.301 3.301 0 01-1.066-.754 3.523 3.523 0 01-.715-1.131 3.95 3.95 0 01-.247-1.417 3.7 3.7 0 01.247-1.352 3.46 3.46 0 01.689-1.131c.294-.32.645-.572 1.053-.754.407-.19.858-.286 1.352-.286.832 0 1.521.29 2.067.871v-.663zm6.32 0v3.757c0 .823.399 1.235 1.196 1.235.797 0 1.196-.412 1.196-1.235V4.331h2.353v4.212c0 .901-.299 1.577-.897 2.028-.589.45-1.473.676-2.652.676s-2.067-.225-2.665-.676c-.589-.45-.884-1.127-.884-2.028V4.331h2.353zm8.527 3.315c0 .217.039.42.117.611.078.182.182.342.312.481.139.139.299.247.481.325a1.602 1.602 0 001.196 0c.191-.078.351-.186.481-.325.139-.139.247-.299.325-.481.087-.182.13-.377.13-.585 0-.208-.043-.403-.13-.585a1.48 1.48 0 00-.325-.494 1.346 1.346 0 00-.481-.325 1.566 1.566 0 00-1.183 0 1.525 1.525 0 00-.481.325c-.13.139-.238.299-.325.481a1.378 1.378 0 00-.117.572zM160.9.21h2.366V11H160.9v-.741c-.502.633-1.183.949-2.041.949a3.248 3.248 0 01-2.405-1.027 3.557 3.557 0 01-.715-1.131 3.934 3.934 0 01-.247-1.404c0-.477.078-.927.234-1.352.165-.433.395-.81.689-1.131.295-.32.646-.572 1.053-.754.416-.19.871-.286 1.365-.286.832 0 1.521.29 2.067.871V.21zm8.843 6.487a1.42 1.42 0 00-.481-.793 1.35 1.35 0 00-.884-.299c-.364 0-.663.095-.897.286-.226.19-.369.46-.429.806h2.691zm-2.756 1.365c0 1.014.476 1.521 1.43 1.521.511 0 .897-.208 1.157-.624h2.275c-.46 1.525-1.608 2.288-3.445 2.288a4.63 4.63 0 01-1.547-.247 3.605 3.605 0 01-1.209-.728 3.249 3.249 0 01-.767-1.118 3.726 3.726 0 01-.273-1.456c0-.555.086-1.053.26-1.495.173-.45.42-.832.741-1.144a3.21 3.21 0 011.157-.715c.459-.173.975-.26 1.547-.26.563 0 1.07.087 1.521.26.45.165.832.407 1.144.728.312.32.55.715.715 1.183.164.46.247.98.247 1.56v.247h-4.953zm12.899-.416c0 .217.039.42.117.611.078.182.182.342.312.481.139.139.299.247.481.325a1.602 1.602 0 001.196 0c.191-.078.351-.186.481-.325.139-.139.247-.299.325-.481.087-.182.13-.377.13-.585 0-.208-.043-.403-.13-.585a1.48 1.48 0 00-.325-.494 1.346 1.346 0 00-.481-.325 1.602 1.602 0 00-1.196 0 1.525 1.525 0 00-.481.325c-.13.139-.234.299-.312.481a1.378 1.378 0 00-.117.572zm2.964-3.315h2.366V11h-2.366v-.741c-.502.633-1.183.949-2.041.949-.485 0-.931-.087-1.339-.26a3.323 3.323 0 01-1.066-.754 3.557 3.557 0 01-.715-1.131 3.972 3.972 0 01-.247-1.417c0-.477.083-.927.247-1.352.165-.433.395-.81.689-1.131.295-.32.646-.572 1.053-.754.408-.19.858-.286 1.352-.286.832 0 1.521.29 2.067.871v-.663zM191.015 11l1.664-9.802h2.522l1.963 5.226 1.95-5.226h2.522L203.3 11h-2.535l-.845-5.642L197.606 11h-1.014l-2.197-5.642L193.55 11h-2.535zm18.197-4.303a1.414 1.414 0 00-.481-.793 1.346 1.346 0 00-.884-.299c-.364 0-.663.095-.897.286-.225.19-.368.46-.429.806h2.691zm-2.756 1.365c0 1.014.477 1.521 1.43 1.521.512 0 .897-.208 1.157-.624h2.275c-.459 1.525-1.607 2.288-3.445 2.288a4.634 4.634 0 01-1.547-.247 3.605 3.605 0 01-1.209-.728 3.263 3.263 0 01-.767-1.118 3.726 3.726 0 01-.273-1.456c0-.555.087-1.053.26-1.495.174-.45.421-.832.741-1.144.321-.312.707-.55 1.157-.715.46-.173.975-.26 1.547-.26.564 0 1.071.087 1.521.26a3.01 3.01 0 011.144.728c.312.32.551.715.715 1.183.165.46.247.98.247 1.56v.247h-4.953zm8.482-.416c0 .217.039.42.117.611.078.182.182.342.312.481.139.139.299.247.481.325a1.602 1.602 0 001.196 0c.191-.078.351-.186.481-.325.139-.139.247-.299.325-.481.087-.182.13-.377.13-.585 0-.208-.043-.403-.13-.585a1.48 1.48 0 00-.325-.494 1.346 1.346 0 00-.481-.325 1.566 1.566 0 00-1.183 0 1.525 1.525 0 00-.481.325c-.13.139-.238.299-.325.481a1.378 1.378 0 00-.117.572zM217.902.21h2.366V11h-2.366v-.741c-.502.633-1.183.949-2.041.949a3.248 3.248 0 01-2.405-1.027 3.557 3.557 0 01-.715-1.131 3.934 3.934 0 01-.247-1.404c0-.477.078-.927.234-1.352.165-.433.395-.81.689-1.131.295-.32.646-.572 1.053-.754.416-.19.871-.286 1.365-.286.832 0 1.521.29 2.067.871V.21zm6.32 4.121V11h-2.353V4.331h2.353zm-2.509-2.561a1.345 1.345 0 01.806-1.222 1.328 1.328 0 011.742.715 1.315 1.315 0 010 1.027 1.354 1.354 0 01-1.222.806c-.182 0-.355-.035-.52-.104a1.38 1.38 0 01-.702-.702 1.332 1.332 0 01-.104-.52zm9.148 4.719c-.407-.277-.819-.416-1.235-.416-.225 0-.437.039-.637.117-.19.078-.359.19-.507.338a1.527 1.527 0 00-.351.507c-.078.19-.117.407-.117.65 0 .234.039.45.117.65.087.19.2.36.338.507.148.139.321.247.52.325.2.078.412.117.637.117.442 0 .854-.152 1.235-.455v2.002c-.58.251-1.131.377-1.651.377-.485 0-.949-.082-1.391-.247a3.67 3.67 0 01-1.157-.702 3.648 3.648 0 01-.793-1.105 3.417 3.417 0 01-.299-1.443c0-.529.096-1.01.286-1.443.191-.442.451-.819.78-1.131.33-.32.72-.568 1.17-.741.46-.182.949-.273 1.469-.273.572 0 1.101.121 1.586.364v2.002zm3.526 1.157c0 .217.039.42.117.611.078.182.182.342.312.481.139.139.299.247.481.325a1.602 1.602 0 001.196 0c.191-.078.351-.186.481-.325.139-.139.247-.299.325-.481.087-.182.13-.377.13-.585 0-.208-.043-.403-.13-.585a1.48 1.48 0 00-.325-.494 1.346 1.346 0 00-.481-.325 1.602 1.602 0 00-1.196 0 1.525 1.525 0 00-.481.325c-.13.139-.234.299-.312.481a1.378 1.378 0 00-.117.572zm2.964-3.315h2.366V11h-2.366v-.741c-.502.633-1.183.949-2.041.949-.485 0-.931-.087-1.339-.26a3.323 3.323 0 01-1.066-.754 3.557 3.557 0 01-.715-1.131 3.972 3.972 0 01-.247-1.417c0-.477.083-.927.247-1.352.165-.433.395-.81.689-1.131.295-.32.646-.572 1.053-.754.408-.19.858-.286 1.352-.286.832 0 1.521.29 2.067.871v-.663zm3.968 0h2.353v1.092c.251-.399.559-.702.923-.91.364-.217.788-.325 1.274-.325h.195c.078 0 .164.009.26.026v2.249a2.236 2.236 0 00-1.014-.234c-.546 0-.958.165-1.235.494-.269.32-.403.793-.403 1.417V11h-2.353V4.331zm11.007 2.366a1.42 1.42 0 00-.481-.793 1.35 1.35 0 00-.884-.299c-.364 0-.663.095-.897.286-.226.19-.369.46-.429.806h2.691zm-2.756 1.365c0 1.014.476 1.521 1.43 1.521.511 0 .897-.208 1.157-.624h2.275c-.46 1.525-1.608 2.288-3.445 2.288A4.63 4.63 0 01249.44 11a3.605 3.605 0 01-1.209-.728 3.249 3.249 0 01-.767-1.118 3.726 3.726 0 01-.273-1.456c0-.555.086-1.053.26-1.495.173-.45.42-.832.741-1.144a3.21 3.21 0 011.157-.715c.459-.173.975-.26 1.547-.26.563 0 1.07.087 1.521.26.45.165.832.407 1.144.728.312.32.55.715.715 1.183.164.46.247.98.247 1.56v.247h-4.953zm6.181 1.69c0-.208.039-.403.117-.585a1.48 1.48 0 01.806-.819 1.562 1.562 0 011.183 0c.19.078.355.186.494.325.138.139.247.303.325.494a1.565 1.565 0 010 1.183 1.495 1.495 0 01-.819.806 1.562 1.562 0 01-1.183 0 1.513 1.513 0 01-.923-1.404z" fill="#fff"/></svg>