<svg width="194" height="105" viewBox="0 0 194 105" fill="none" xmlns="http://www.w3.org/2000/svg"><path d="M5.77 22.414c0-.529.194-.986.58-1.373.388-.387.85-.581 1.388-.581.538 0 1.001.194 1.388.58.387.388.58.85.58 1.388a1.91 1.91 0 01-.58 1.402c-.378.378-.84.567-1.388.567-.557 0-1.024-.19-1.402-.567-.377-.377-.566-.85-.566-1.416zm6.63 0c0-.529.193-.986.58-1.373.387-.387.85-.581 1.387-.581.539 0 1.001.194 1.388.58.387.388.58.85.58 1.388a1.91 1.91 0 01-.58 1.402c-.377.378-.84.567-1.388.567-.556 0-1.024-.19-1.401-.567-.378-.377-.567-.85-.567-1.416zm6.629 0c0-.529.193-.986.58-1.373.387-.387.85-.581 1.388-.581.538 0 1 .194 1.387.58.387.388.581.85.581 1.388a1.91 1.91 0 01-.58 1.402c-.378.378-.84.567-1.388.567-.557 0-1.024-.19-1.402-.567-.378-.377-.566-.85-.566-1.416zm16.3 9.09v-9.048c-1.265 1.294-2.71 1.94-4.333 1.94-1.86 0-3.403-.684-4.63-2.053-1.237-1.378-1.855-3.1-1.855-5.168 0-2.096.618-3.847 1.855-5.254 1.246-1.397 2.808-2.095 4.687-2.095 1.595 0 3.02.627 4.276 1.883v-1.501h3.2v21.297h-3.2zm-7.561-14.47c0 1.33.358 2.411 1.076 3.242.717.85 1.628 1.274 2.733 1.274 1.17 0 2.119-.406 2.846-1.218.736-.82 1.104-1.887 1.104-3.2 0-1.293-.363-2.36-1.09-3.2-.727-.821-1.67-1.232-2.832-1.232-1.095 0-2.01.416-2.747 1.246-.727.84-1.09 1.87-1.09 3.087zm18.309-6.826v7.915c0 2.285.901 3.427 2.704 3.427 1.803 0 2.705-1.142 2.705-3.427v-7.915h3.186v7.986c0 1.105-.137 2.058-.41 2.86-.265.718-.723 1.365-1.374 1.94-1.076.935-2.445 1.402-4.107 1.402-1.652 0-3.016-.467-4.092-1.401-.66-.576-1.128-1.223-1.402-1.94-.264-.642-.396-1.596-.396-2.86v-7.987h3.186zm25.176 7.647H61.37c.085 1.132.453 2.034 1.104 2.704.652.66 1.487.991 2.507.991.792 0 1.449-.189 1.968-.566.51-.378 1.09-1.076 1.741-2.096l2.69 1.501a10.96 10.96 0 01-1.316 1.827 7.29 7.29 0 01-1.487 1.246c-.528.32-1.1.557-1.713.708a8.339 8.339 0 01-1.997.226c-2.058 0-3.71-.66-4.956-1.982-1.246-1.331-1.869-3.096-1.869-5.296 0-2.18.604-3.946 1.813-5.296 1.217-1.33 2.832-1.996 4.842-1.996 2.03 0 3.635.646 4.815 1.94 1.17 1.284 1.756 3.063 1.756 5.338l-.015.75zm-3.27-2.606c-.444-1.7-1.516-2.549-3.215-2.549-.387 0-.75.062-1.09.184-.34.114-.652.284-.935.51-.274.217-.51.482-.708.793a3.72 3.72 0 00-.453 1.062h6.4zm19.002-2.067V24H83.8V13.182h-1.36v-2.974h1.36V5.153h3.186v5.055h2.478v2.974h-2.478zm17.46 4.673h-9.884c.085 1.132.453 2.034 1.104 2.704.652.66 1.487.991 2.507.991.793 0 1.449-.189 1.968-.566.51-.378 1.09-1.076 1.742-2.096l2.69 1.501a10.92 10.92 0 01-1.317 1.827c-.462.5-.958.915-1.486 1.246-.529.32-1.1.557-1.714.708a8.335 8.335 0 01-1.996.226c-2.058 0-3.71-.66-4.956-1.982-1.247-1.331-1.87-3.096-1.87-5.296 0-2.18.605-3.946 1.813-5.296 1.218-1.33 2.832-1.996 4.843-1.996 2.03 0 3.634.646 4.814 1.94 1.171 1.284 1.756 3.063 1.756 5.338l-.014.75zm-3.271-2.606c-.444-1.7-1.515-2.549-3.215-2.549-.387 0-.75.062-1.09.184a3.01 3.01 0 00-.934.51c-.274.217-.51.482-.709.793a3.72 3.72 0 00-.453 1.062h6.401zm18.904 16.256h-3.186V10.208h3.186v1.501c1.255-1.255 2.681-1.883 4.276-1.883 1.897 0 3.46.698 4.687 2.095 1.246 1.388 1.869 3.14 1.869 5.254 0 2.067-.618 3.79-1.855 5.168-1.227 1.37-2.775 2.053-4.644 2.053-1.615 0-3.059-.646-4.333-1.94v9.049zm7.575-14.316c0-1.322-.358-2.398-1.076-3.229-.727-.84-1.642-1.26-2.747-1.26-1.171 0-2.119.406-2.846 1.218-.727.812-1.09 1.879-1.09 3.2 0 1.294.363 2.36 1.09 3.2.717.822 1.661 1.232 2.832 1.232 1.104 0 2.015-.415 2.733-1.246.736-.83 1.104-1.869 1.104-3.115zm9.813-6.981V24h-3.186V10.208h3.186zm-3.667-5.735c0-.557.203-1.038.609-1.444a1.99 1.99 0 011.458-.61c.576 0 1.067.204 1.473.61.406.396.609.882.609 1.458s-.203 1.067-.609 1.473a1.961 1.961 0 01-1.459.609 2.005 2.005 0 01-1.472-.609 2.023 2.023 0 01-.609-1.487zm17.87-4.39h3.2V24h-3.2v-1.444c-1.256 1.227-2.676 1.84-4.262 1.84-1.888 0-3.455-.689-4.701-2.067-1.237-1.407-1.855-3.162-1.855-5.268 0-2.057.618-3.775 1.855-5.154 1.227-1.387 2.77-2.081 4.63-2.081 1.614 0 3.059.66 4.333 1.982V.083zm-7.562 16.978c0 1.322.354 2.398 1.062 3.229.727.84 1.643 1.26 2.747 1.26 1.18 0 2.134-.406 2.861-1.218.727-.84 1.09-1.906 1.09-3.2 0-1.293-.363-2.36-1.09-3.2-.727-.821-1.671-1.232-2.832-1.232-1.095 0-2.011.416-2.747 1.246-.727.84-1.091 1.879-1.091 3.115zm24.951-6.853h3.2V24h-3.2v-1.444c-1.313 1.227-2.724 1.84-4.234 1.84-1.907 0-3.484-.689-4.73-2.067-1.236-1.407-1.855-3.162-1.855-5.268 0-2.067.619-3.79 1.855-5.168 1.237-1.378 2.785-2.067 4.645-2.067 1.605 0 3.044.66 4.319 1.982v-1.6zm-7.562 6.853c0 1.322.354 2.398 1.062 3.229.727.84 1.643 1.26 2.747 1.26 1.18 0 2.134-.406 2.86-1.218.727-.84 1.091-1.906 1.091-3.2 0-1.293-.364-2.36-1.091-3.2-.726-.821-1.67-1.232-2.832-1.232-1.095 0-2.01.416-2.747 1.246-.726.84-1.09 1.879-1.09 3.115zm14.783-6.853h3.2v1.274c1.114-1.104 2.37-1.656 3.767-1.656 1.605 0 2.856.505 3.753 1.515.774.859 1.161 2.26 1.161 4.205V24h-3.201v-7.703c0-1.36-.188-2.299-.566-2.818-.368-.529-1.038-.793-2.011-.793-1.057 0-1.807.35-2.251 1.048-.434.689-.652 1.893-.652 3.61V24h-3.2V10.208zM15.105 45.182V56h-3.186V45.182h-1.36v-2.974h1.36v-5.055h3.186v5.055h2.478v2.974h-2.478zm7.83-2.974v7.916c0 2.284.902 3.426 2.705 3.426s2.705-1.142 2.705-3.426v-7.916h3.186v7.986c0 1.105-.137 2.058-.41 2.86-.265.718-.723 1.365-1.374 1.94-1.077.935-2.445 1.403-4.107 1.403-1.652 0-3.016-.468-4.092-1.402-.661-.576-1.128-1.223-1.402-1.94-.264-.642-.396-1.596-.396-2.86v-7.987h3.186zm21.567 0h3.2v1.274c1.114-1.104 2.37-1.656 3.766-1.656 1.605 0 2.856.505 3.753 1.515.774.859 1.16 2.26 1.16 4.205V56h-3.2v-7.703c0-1.36-.188-2.299-.566-2.818-.368-.529-1.038-.793-2.01-.793-1.058 0-1.808.35-2.252 1.048-.434.689-.651 1.893-.651 3.61V56h-3.2V42.208zm19.101 0v7.916c0 2.284.902 3.426 2.705 3.426s2.705-1.142 2.705-3.426v-7.916h3.186v7.986c0 1.105-.137 2.058-.41 2.86-.265.718-.723 1.365-1.374 1.94-1.077.935-2.445 1.403-4.107 1.403-1.652 0-3.016-.468-4.092-1.402-.661-.576-1.128-1.223-1.402-1.94-.264-.642-.397-1.596-.397-2.86v-7.987h3.186zm7.704-6.797l-5.155 4.673-1.741-1.076 3.894-5.155 3.002 1.558zm4.913 6.797h3.186v1.274c.614-.642 1.138-1.076 1.572-1.302.463-.236 1.043-.354 1.742-.354 1.557 0 2.79.68 3.695 2.039 1.001-1.36 2.356-2.04 4.064-2.04 3.106 0 4.66 1.884 4.66 5.65V56h-3.201v-7.66c0-1.322-.16-2.257-.481-2.804-.33-.557-.874-.836-1.629-.836-.878 0-1.52.33-1.926.991-.396.661-.594 1.723-.594 3.186V56h-3.2v-7.618c0-2.455-.709-3.682-2.125-3.682-.896 0-1.553.335-1.968 1.006-.406.67-.609 1.727-.609 3.171V56H76.22V42.208zm35.5 7.647h-9.884c.085 1.132.453 2.034 1.104 2.704.652.66 1.487.991 2.507.991.793 0 1.449-.188 1.968-.566.51-.378 1.09-1.076 1.742-2.096l2.69 1.501a10.92 10.92 0 01-1.317 1.827 7.27 7.27 0 01-1.487 1.246 6.064 6.064 0 01-1.713.708 8.34 8.34 0 01-1.997.227c-2.057 0-3.709-.661-4.956-1.983-1.246-1.331-1.869-3.096-1.869-5.296 0-2.18.605-3.946 1.813-5.296 1.218-1.33 2.832-1.996 4.843-1.996 2.029 0 3.634.646 4.814 1.94 1.171 1.284 1.756 3.063 1.756 5.338l-.014.75zm-3.271-2.606c-.444-1.7-1.515-2.549-3.215-2.549-.387 0-.75.062-1.09.184-.34.114-.651.283-.935.51a3.214 3.214 0 00-.708.793 3.729 3.729 0 00-.453 1.062h6.401zm6.768-5.041h3.186v1.232c.586-.614 1.105-1.034 1.558-1.26.463-.236 1.01-.354 1.643-.354.84 0 1.718.273 2.633.821l-1.458 2.917c-.604-.434-1.194-.651-1.77-.651-1.737 0-2.606 1.312-2.606 3.936V56h-3.186V42.208zm9.941 6.797c0-1.992.712-3.687 2.138-5.084 1.425-1.397 3.162-2.095 5.211-2.095 2.058 0 3.804.703 5.239 2.11 1.416 1.406 2.124 3.134 2.124 5.182 0 2.067-.713 3.8-2.138 5.197-1.435 1.388-3.196 2.082-5.282 2.082-2.067 0-3.799-.709-5.197-2.124-1.397-1.398-2.095-3.154-2.095-5.268zm3.257.056c0 1.379.368 2.47 1.104 3.272.755.811 1.751 1.217 2.988 1.217 1.246 0 2.242-.4 2.988-1.203.745-.803 1.118-1.874 1.118-3.215 0-1.34-.373-2.412-1.118-3.214-.756-.812-1.752-1.218-2.988-1.218-1.218 0-2.204.406-2.96 1.218-.755.812-1.132 1.86-1.132 3.144zm33.956-16.977h3.2V56h-3.2v-1.444c-1.256 1.227-2.677 1.84-4.263 1.84-1.888 0-3.455-.689-4.701-2.067-1.236-1.407-1.855-3.162-1.855-5.267 0-2.058.619-3.776 1.855-5.155 1.227-1.387 2.771-2.081 4.631-2.081 1.614 0 3.058.66 4.333 1.982V32.084zm-7.562 16.977c0 1.322.354 2.398 1.062 3.229.727.84 1.643 1.26 2.747 1.26 1.18 0 2.134-.406 2.861-1.217.726-.84 1.09-1.907 1.09-3.2 0-1.294-.364-2.36-1.09-3.2-.727-.822-1.671-1.233-2.833-1.233-1.095 0-2.01.416-2.747 1.246-.726.84-1.09 1.879-1.09 3.116zm27.343.794h-9.883c.085 1.132.453 2.034 1.104 2.704.651.66 1.487.991 2.506.991.793 0 1.449-.188 1.969-.566.509-.378 1.09-1.076 1.741-2.096l2.691 1.501a11.034 11.034 0 01-1.317 1.827c-.463.5-.958.916-1.487 1.246-.529.32-1.1.557-1.713.708a8.34 8.34 0 01-1.997.227c-2.058 0-3.71-.661-4.956-1.983-1.246-1.331-1.869-3.096-1.869-5.296 0-2.18.604-3.946 1.812-5.296 1.218-1.33 2.832-1.996 4.843-1.996 2.03 0 3.635.646 4.815 1.94 1.17 1.284 1.756 3.063 1.756 5.338l-.015.75zm-3.271-2.606c-.443-1.7-1.515-2.549-3.214-2.549-.387 0-.75.062-1.09.184-.34.114-.652.283-.935.51-.274.217-.51.482-.708.793a3.729 3.729 0 00-.453 1.062h6.4z" fill="#fff" fill-opacity=".75"/><path d="M.064 104l4.864-28.652H12.3l5.738 15.276 5.7-15.276h7.372L35.974 104h-7.41l-2.47-16.492L19.33 104h-2.964L9.944 87.508 7.474 104H.064zm53.193-12.578c-.228-.963-.697-1.735-1.406-2.318-.71-.583-1.57-.874-2.584-.874-1.064 0-1.938.279-2.622.836-.659.557-1.077 1.343-1.254 2.356h7.866zm-8.056 3.99c0 2.964 1.393 4.446 4.18 4.446 1.495 0 2.622-.608 3.382-1.824h6.65c-1.343 4.459-4.7 6.688-10.07 6.688-1.647 0-3.154-.241-4.522-.722-1.368-.507-2.546-1.216-3.534-2.128a9.523 9.523 0 01-2.242-3.268c-.532-1.267-.798-2.685-.798-4.256 0-1.621.253-3.078.76-4.37.507-1.317 1.229-2.432 2.166-3.344.937-.912 2.064-1.609 3.382-2.09 1.343-.507 2.85-.76 4.522-.76 1.647 0 3.129.253 4.446.76 1.317.481 2.432 1.19 3.344 2.128.912.937 1.608 2.09 2.09 3.458.481 1.343.722 2.863.722 4.56v.722H45.2zm24.793-1.216c0 .633.114 1.229.342 1.786.228.532.532 1 .912 1.406.406.405.874.722 1.406.95a4.67 4.67 0 001.786.342c.608 0 1.178-.114 1.71-.342a3.943 3.943 0 001.406-.95c.406-.405.722-.874.95-1.406.254-.532.38-1.102.38-1.71 0-.608-.126-1.178-.38-1.71a4.342 4.342 0 00-.95-1.444 3.943 3.943 0 00-1.406-.95 4.295 4.295 0 00-1.71-.342c-.608 0-1.19.114-1.748.342-.532.228-1 .545-1.406.95-.38.405-.696.874-.95 1.406a4.028 4.028 0 00-.342 1.672zm8.664-21.736h6.916V104h-6.916v-2.166c-1.469 1.849-3.458 2.774-5.966 2.774-1.418 0-2.723-.266-3.914-.798a9.687 9.687 0 01-3.116-2.204 10.343 10.343 0 01-2.09-3.306c-.48-1.267-.722-2.635-.722-4.104 0-1.393.228-2.71.684-3.952.482-1.267 1.153-2.369 2.014-3.306a9.261 9.261 0 013.078-2.204c1.216-.557 2.546-.836 3.99-.836 2.432 0 4.446.849 6.042 2.546V72.46zm18.475 12.046V104h-6.878V84.506h6.878zm-7.334-7.486c0-.532.101-1.026.304-1.482.203-.481.481-.9.836-1.254.355-.355.76-.633 1.216-.836a3.877 3.877 0 011.52-.304c.532 0 1.026.101 1.482.304.481.203.9.481 1.254.836.355.355.633.773.836 1.254.203.456.304.95.304 1.482s-.101 1.039-.304 1.52a4.007 4.007 0 01-.836 1.216 3.884 3.884 0 01-1.254.836c-.456.203-.95.304-1.482.304a3.877 3.877 0 01-1.52-.304 4.008 4.008 0 01-1.216-.836 4.01 4.01 0 01-.836-1.216 3.878 3.878 0 01-.304-1.52zm26.74 13.794c-1.191-.81-2.394-1.216-3.61-1.216-.659 0-1.279.114-1.862.342a4.478 4.478 0 00-1.482.988c-.431.405-.773.9-1.026 1.482-.228.557-.342 1.19-.342 1.9 0 .684.114 1.317.342 1.9.253.557.583 1.051.988 1.482a4.68 4.68 0 001.52.95 5.064 5.064 0 001.862.342c1.292 0 2.495-.443 3.61-1.33v5.852c-1.697.735-3.306 1.102-4.826 1.102-1.419 0-2.774-.241-4.066-.722a10.698 10.698 0 01-3.382-2.052 10.615 10.615 0 01-2.318-3.23c-.583-1.267-.874-2.673-.874-4.218s.279-2.951.836-4.218c.557-1.292 1.317-2.394 2.28-3.306a9.977 9.977 0 013.42-2.166 11.55 11.55 0 014.294-.798c1.672 0 3.217.355 4.636 1.064v5.852zm10.307 3.382c0 .633.114 1.229.342 1.786.228.532.532 1 .912 1.406.405.405.874.722 1.406.95a4.67 4.67 0 001.786.342c.608 0 1.178-.114 1.71-.342a3.946 3.946 0 001.406-.95c.405-.405.722-.874.95-1.406.253-.532.38-1.102.38-1.71 0-.608-.127-1.178-.38-1.71a4.346 4.346 0 00-.95-1.444 3.946 3.946 0 00-1.406-.95 4.295 4.295 0 00-1.71-.342 4.67 4.67 0 00-1.786.342 4.443 4.443 0 00-1.406.95c-.38.405-.684.874-.912 1.406a4.028 4.028 0 00-.342 1.672zm8.664-9.69h6.916V104h-6.916v-2.166c-1.469 1.849-3.458 2.774-5.966 2.774-1.419 0-2.723-.253-3.914-.76a9.687 9.687 0 01-3.116-2.204 10.343 10.343 0 01-2.09-3.306c-.481-1.267-.722-2.647-.722-4.142 0-1.393.241-2.71.722-3.952a10.164 10.164 0 012.014-3.306 9.255 9.255 0 013.078-2.204c1.191-.557 2.508-.836 3.952-.836 2.432 0 4.446.849 6.042 2.546v-1.938zm11.596 0h6.878v3.192c.735-1.165 1.634-2.052 2.698-2.66 1.064-.633 2.306-.95 3.724-.95h.57c.228 0 .482.025.76.076v6.574a6.535 6.535 0 00-2.964-.684c-1.596 0-2.799.481-3.61 1.444-.785.937-1.178 2.318-1.178 4.142V104h-6.878V84.506zm32.174 6.916c-.228-.963-.696-1.735-1.406-2.318-.709-.583-1.57-.874-2.584-.874-1.064 0-1.938.279-2.622.836-.658.557-1.076 1.343-1.254 2.356h7.866zm-8.056 3.99c0 2.964 1.394 4.446 4.18 4.446 1.495 0 2.622-.608 3.382-1.824h6.65c-1.342 4.459-4.699 6.688-10.07 6.688-1.646 0-3.154-.241-4.522-.722-1.368-.507-2.546-1.216-3.534-2.128a9.533 9.533 0 01-2.242-3.268c-.532-1.267-.798-2.685-.798-4.256 0-1.621.254-3.078.76-4.37.507-1.317 1.229-2.432 2.166-3.344.938-.912 2.065-1.609 3.382-2.09 1.343-.507 2.85-.76 4.522-.76 1.647 0 3.129.253 4.446.76 1.318.481 2.432 1.19 3.344 2.128.912.937 1.609 2.09 2.09 3.458.482 1.343.722 2.863.722 4.56v.722h-14.478zm17.273 6.38a2.6 2.6 0 01.207-1.035c.138-.337.329-.629.575-.874.245-.245.529-.437.851-.575.337-.138.69-.207 1.058-.207a2.6 2.6 0 011.035.207c.337.138.628.33.874.575.245.245.437.537.575.874a2.6 2.6 0 01.207 1.035c0 .368-.069.721-.207 1.058a2.643 2.643 0 01-1.449 1.426 2.6 2.6 0 01-1.035.207c-.368 0-.721-.069-1.058-.207a2.693 2.693 0 01-1.426-1.426 2.767 2.767 0 01-.207-1.058z" fill="#fff"/></svg>