<svg width="225" height="15" viewBox="0 0 225 15" fill="none" xmlns="http://www.w3.org/2000/svg"><path d="M.124 10.29c0-.238.086-.443.26-.617a.849.849 0 01.622-.26c.241 0 .448.087.622.26.173.174.26.381.26.622a.856.856 0 01-.26.629.846.846 0 01-.622.254.853.853 0 01-.629-.254.861.861 0 01-.253-.635zm2.711 0c0-.238.087-.443.26-.617a.849.849 0 01.623-.26c.24 0 .448.087.622.26.173.174.26.381.26.622a.856.856 0 01-.26.629.846.846 0 01-.622.254.853.853 0 01-.629-.254.861.861 0 01-.254-.635zm2.712 0c0-.238.087-.443.26-.617a.849.849 0 01.622-.26c.242 0 .449.087.622.26.174.174.26.381.26.622a.856.856 0 01-.26.629.846.846 0 01-.622.254.853.853 0 01-.628-.254.861.861 0 01-.254-.635zm7.301-5.206v1.898c-.326-.398-.618-.67-.876-.819a1.706 1.706 0 00-.895-.228c-.537 0-.984.188-1.34.565-.355.376-.533.848-.533 1.415 0 .58.172 1.056.515 1.428.347.373.789.559 1.326.559.343 0 .646-.074.908-.222.254-.144.552-.423.895-.838v1.885c-.58.3-1.16.45-1.74.45-.956 0-1.755-.308-2.399-.926-.643-.622-.964-1.394-.964-2.317 0-.922.325-1.701.977-2.336.652-.635 1.452-.952 2.4-.952.609 0 1.184.146 1.726.438zm1.092 2.78c0-.893.32-1.652.958-2.279.64-.626 1.418-.939 2.336-.939.923 0 1.706.315 2.349.946.635.63.952 1.405.952 2.323 0 .927-.32 1.703-.958 2.33-.644.622-1.433.933-2.368.933-.927 0-1.703-.318-2.33-.952-.626-.627-.94-1.414-.94-2.362zm1.46.026c0 .617.165 1.106.495 1.466.338.364.785.546 1.34.546.558 0 1.004-.18 1.339-.54.334-.36.501-.84.501-1.44 0-.602-.167-1.082-.501-1.442-.339-.363-.785-.545-1.34-.545-.546 0-.988.182-1.326.545-.339.364-.508.834-.508 1.41zm6.652-3.073h1.428v.572c.275-.288.51-.483.705-.584.207-.106.468-.159.78-.159.699 0 1.251.305 1.657.914.449-.61 1.056-.914 1.822-.914 1.393 0 2.089.844 2.089 2.533V11h-1.435V7.566c0-.593-.072-1.011-.216-1.257-.148-.25-.391-.374-.73-.374-.393 0-.681.148-.863.444-.178.296-.267.772-.267 1.428V11h-1.434V7.585c0-1.1-.318-1.65-.952-1.65-.402 0-.697.15-.883.45-.182.3-.273.775-.273 1.422V11h-1.428V4.817zm9.991 3.047c0-.893.32-1.652.959-2.279.639-.626 1.417-.939 2.336-.939.922 0 1.705.315 2.348.946.635.63.953 1.405.953 2.323 0 .927-.32 1.703-.959 2.33-.643.622-1.432.933-2.368.933-.926 0-1.703-.318-2.33-.952-.626-.627-.939-1.414-.939-2.362zm1.46.026c0 .617.165 1.106.495 1.466.339.364.785.546 1.34.546.558 0 1.005-.18 1.34-.54.334-.36.5-.84.5-1.44 0-.602-.166-1.082-.5-1.442-.34-.363-.786-.545-1.34-.545-.546 0-.988.182-1.327.545-.338.364-.508.834-.508 1.41zM48.98 5.084v1.898c-.326-.398-.618-.67-.876-.819a1.706 1.706 0 00-.895-.228c-.538 0-.984.188-1.34.565-.355.376-.533.848-.533 1.415 0 .58.172 1.056.514 1.428.348.373.79.559 1.327.559.343 0 .645-.074.908-.222.254-.144.552-.423.895-.838v1.885c-.58.3-1.16.45-1.74.45-.956 0-1.755-.308-2.399-.926-.643-.622-.965-1.394-.965-2.317 0-.922.326-1.701.978-2.336.652-.635 1.451-.952 2.4-.952.609 0 1.184.146 1.726.438zm2.812-.267v3.549c0 1.024.404 1.536 1.212 1.536.809 0 1.213-.512 1.213-1.536V4.817h1.428v3.58c0 .496-.061.923-.184 1.283a2.154 2.154 0 01-.616.87c-.482.418-1.096.628-1.84.628-.741 0-1.353-.21-1.835-.629a2.189 2.189 0 01-.629-.87c-.118-.287-.177-.714-.177-1.282v-3.58h1.428zm7.084 0V11h-1.428V4.817h1.428zm-1.644-2.57c0-.25.09-.466.273-.648a.892.892 0 01.654-.273.9.9 0 01.66.273.879.879 0 01.273.654.9.9 0 01-.273.66.879.879 0 01-.654.273.9.9 0 01-.66-.273.907.907 0 01-.273-.666zM65.24.279h1.435V11h-1.434v-.648c-.563.55-1.2.826-1.911.826-.846 0-1.549-.31-2.108-.927-.554-.63-.831-1.418-.831-2.361 0-.923.277-1.693.831-2.31.55-.623 1.243-.934 2.076-.934.724 0 1.371.296 1.943.889V.279zm-3.389 7.61c0 .593.159 1.076.476 1.448a1.56 1.56 0 001.231.565c.53 0 .957-.182 1.283-.546.326-.377.489-.855.489-1.435 0-.58-.163-1.058-.49-1.434-.325-.368-.748-.552-1.269-.552-.49 0-.901.186-1.231.558-.326.377-.489.842-.489 1.397zm11.185-3.072h1.434V11h-1.434v-.648c-.589.55-1.221.826-1.898.826-.855 0-1.562-.31-2.12-.927-.555-.63-.832-1.418-.832-2.361 0-.927.277-1.7.832-2.317.554-.618 1.248-.927 2.081-.927.72 0 1.365.296 1.937.889v-.718zm-3.39 3.073c0 .592.159 1.075.476 1.447a1.56 1.56 0 001.231.565c.53 0 .957-.182 1.283-.546.326-.377.488-.855.488-1.435 0-.58-.162-1.058-.488-1.434-.326-.368-.75-.552-1.27-.552-.49 0-.901.186-1.231.558-.326.377-.49.842-.49 1.397zm10.22-2.019l-1.181.629c-.186-.381-.417-.572-.692-.572a.47.47 0 00-.336.134.425.425 0 00-.14.33c0 .237.275.471.825.704.758.326 1.268.626 1.53.902.262.275.393.645.393 1.11 0 .597-.22 1.096-.66 1.498-.427.381-.943.572-1.548.572-1.037 0-1.772-.506-2.203-1.517l1.219-.565c.169.296.298.484.387.565.173.16.38.24.622.24.482 0 .724-.22.724-.66 0-.253-.187-.49-.56-.71a19.932 19.932 0 00-.43-.21c-.145-.067-.29-.137-.439-.21-.414-.202-.706-.405-.876-.609-.215-.258-.323-.59-.323-.996 0-.538.184-.982.552-1.333a1.937 1.937 0 011.371-.527c.791 0 1.38.408 1.765 1.225zm7.172.28V11h-1.428V6.15h-.61V4.817h.61V2.551h1.428v2.266h1.111V6.15h-1.11zm3.51-1.334v3.549c0 1.024.405 1.536 1.213 1.536s1.213-.512 1.213-1.536V4.817h1.428v3.58c0 .496-.062.923-.184 1.283a2.154 2.154 0 01-.616.87c-.482.418-1.096.628-1.84.628-.742 0-1.353-.21-1.835-.629a2.189 2.189 0 01-.629-.87c-.118-.287-.178-.714-.178-1.282v-3.58h1.429zm12.199 1.477V11h-2.353V6.294h-.78V4.331h.78V2.329h2.353v2.002h1.339v1.963h-1.339zm4.534 1.352c0 .217.039.42.117.611.078.182.182.342.312.481.139.139.299.247.481.325a1.602 1.602 0 001.196 0c.191-.078.351-.186.481-.325.139-.139.247-.299.325-.481.087-.182.13-.377.13-.585 0-.208-.043-.403-.13-.585a1.48 1.48 0 00-.325-.494 1.346 1.346 0 00-.481-.325 1.602 1.602 0 00-1.196 0 1.525 1.525 0 00-.481.325c-.13.139-.234.299-.312.481a1.378 1.378 0 00-.117.572zm2.964-3.315h2.366V11h-2.366v-.741c-.502.633-1.183.949-2.041.949-.485 0-.931-.087-1.339-.26a3.323 3.323 0 01-1.066-.754 3.557 3.557 0 01-.715-1.131 3.972 3.972 0 01-.247-1.417c0-.477.083-.927.247-1.352.165-.433.395-.81.689-1.131.295-.32.646-.572 1.053-.754.408-.19.858-.286 1.352-.286.832 0 1.521.29 2.067.871v-.663zm3.968 0h2.353v1.092c.251-.399.559-.702.923-.91.364-.217.788-.325 1.274-.325h.195c.078 0 .164.009.26.026v2.249a2.236 2.236 0 00-1.014-.234c-.546 0-.958.165-1.235.494-.269.32-.403.793-.403 1.417V11h-2.353V4.331zm8.408 0v9.997h-2.353V4.331h2.353zm-2.509-2.561a1.345 1.345 0 01.806-1.222 1.328 1.328 0 011.742.715 1.315 1.315 0 010 1.027 1.354 1.354 0 01-1.222.806c-.182 0-.355-.035-.52-.104a1.38 1.38 0 01-.702-.702 1.332 1.332 0 01-.104-.52zm8.992 4.927a1.414 1.414 0 00-.481-.793 1.346 1.346 0 00-.884-.299c-.364 0-.663.095-.897.286-.225.19-.368.46-.429.806h2.691zm-2.756 1.365c0 1.014.477 1.521 1.43 1.521.512 0 .897-.208 1.157-.624h2.275c-.459 1.525-1.607 2.288-3.445 2.288a4.634 4.634 0 01-1.547-.247 3.605 3.605 0 01-1.209-.728 3.263 3.263 0 01-.767-1.118 3.726 3.726 0 01-.273-1.456c0-.555.087-1.053.26-1.495.174-.45.421-.832.741-1.144.321-.312.707-.55 1.157-.715.46-.173.975-.26 1.547-.26.564 0 1.071.087 1.521.26a3.01 3.01 0 011.144.728c.312.32.551.715.715 1.183.165.46.247.98.247 1.56v.247h-4.953zm9.013-1.768V11h-2.353V6.294h-.78V4.331h.78V2.329h2.353v2.002h1.339v1.963h-1.339zm4.535 1.352c0 .217.039.42.117.611.078.182.182.342.312.481.138.139.299.247.481.325a1.594 1.594 0 001.196 0c.19-.078.351-.186.481-.325.138-.139.247-.299.325-.481.086-.182.13-.377.13-.585 0-.208-.044-.403-.13-.585a1.495 1.495 0 00-.325-.494 1.355 1.355 0 00-.481-.325 1.594 1.594 0 00-1.196 0 1.514 1.514 0 00-.481.325c-.13.139-.234.299-.312.481a1.378 1.378 0 00-.117.572zm2.964-3.315h2.366V11h-2.366v-.741c-.503.633-1.183.949-2.041.949-.486 0-.932-.087-1.339-.26a3.301 3.301 0 01-1.066-.754 3.523 3.523 0 01-.715-1.131 3.95 3.95 0 01-.247-1.417 3.7 3.7 0 01.247-1.352 3.46 3.46 0 01.689-1.131c.294-.32.645-.572 1.053-.754.407-.19.858-.286 1.352-.286.832 0 1.521.29 2.067.871v-.663zm10.569 3.315c0 .217.039.42.117.611.078.182.182.342.312.481.139.139.299.247.481.325a1.598 1.598 0 001.196 0c.191-.078.351-.186.481-.325.139-.139.247-.299.325-.481.087-.182.13-.377.13-.585 0-.208-.043-.403-.13-.585a1.48 1.48 0 00-.325-.494 1.346 1.346 0 00-.481-.325 1.566 1.566 0 00-1.183 0 1.525 1.525 0 00-.481.325c-.13.139-.238.299-.325.481a1.378 1.378 0 00-.117.572zM156.394.21h2.366V11h-2.366v-.741c-.503.633-1.183.949-2.041.949a3.245 3.245 0 01-2.405-1.027 3.54 3.54 0 01-.715-1.131 3.913 3.913 0 01-.247-1.404c0-.477.078-.927.234-1.352.165-.433.394-.81.689-1.131.295-.32.646-.572 1.053-.754.416-.19.871-.286 1.365-.286.832 0 1.521.29 2.067.871V.21zm8.842 6.487a1.414 1.414 0 00-.481-.793 1.347 1.347 0 00-.884-.299c-.364 0-.663.095-.897.286-.225.19-.368.46-.429.806h2.691zm-2.756 1.365c0 1.014.477 1.521 1.43 1.521.511 0 .897-.208 1.157-.624h2.275c-.459 1.525-1.608 2.288-3.445 2.288A4.634 4.634 0 01162.35 11a3.605 3.605 0 01-1.209-.728 3.263 3.263 0 01-.767-1.118 3.726 3.726 0 01-.273-1.456c0-.555.087-1.053.26-1.495.173-.45.42-.832.741-1.144a3.22 3.22 0 011.157-.715c.459-.173.975-.26 1.547-.26.563 0 1.07.087 1.521.26a3.01 3.01 0 011.144.728c.312.32.55.715.715 1.183.165.46.247.98.247 1.56v.247h-4.953zm15.747-1.573c-.407-.277-.819-.416-1.235-.416-.225 0-.438.039-.637.117-.191.078-.36.19-.507.338a1.527 1.527 0 00-.351.507c-.078.19-.117.407-.117.65 0 .234.039.45.117.65.087.19.199.36.338.507a1.6 1.6 0 00.52.325c.199.078.412.117.637.117.442 0 .854-.152 1.235-.455v2.002c-.581.251-1.131.377-1.651.377-.485 0-.949-.082-1.391-.247a3.67 3.67 0 01-1.157-.702 3.631 3.631 0 01-.793-1.105 3.417 3.417 0 01-.299-1.443c0-.529.095-1.01.286-1.443.191-.442.451-.819.78-1.131.329-.32.719-.568 1.17-.741a3.95 3.95 0 011.469-.273c.572 0 1.101.121 1.586.364v2.002zm1.342-2.158h2.353v1.092c.251-.399.559-.702.923-.91.364-.217.789-.325 1.274-.325h.195c.078 0 .165.009.26.026v2.249a2.236 2.236 0 00-1.014-.234c-.546 0-.958.165-1.235.494-.269.32-.403.793-.403 1.417V11h-2.353V4.331zm11.007 2.366a1.414 1.414 0 00-.481-.793 1.347 1.347 0 00-.884-.299c-.364 0-.663.095-.897.286-.225.19-.368.46-.429.806h2.691zm-2.756 1.365c0 1.014.477 1.521 1.43 1.521.511 0 .897-.208 1.157-.624h2.275c-.459 1.525-1.608 2.288-3.445 2.288A4.634 4.634 0 01187.69 11a3.605 3.605 0 01-1.209-.728 3.263 3.263 0 01-.767-1.118 3.726 3.726 0 01-.273-1.456c0-.555.087-1.053.26-1.495.173-.45.42-.832.741-1.144a3.22 3.22 0 011.157-.715c.459-.173.975-.26 1.547-.26.563 0 1.07.087 1.521.26a3.01 3.01 0 011.144.728c.312.32.55.715.715 1.183.165.46.247.98.247 1.56v.247h-4.953zm3.549-6.708l-2.262 2.002-1.092-.806 1.859-2.275 1.495 1.079zm4.933 6.292c0 .217.039.42.117.611.078.182.182.342.312.481.139.139.299.247.481.325a1.598 1.598 0 001.196 0c.191-.078.351-.186.481-.325.139-.139.247-.299.325-.481.087-.182.13-.377.13-.585 0-.208-.043-.403-.13-.585a1.48 1.48 0 00-.325-.494 1.346 1.346 0 00-.481-.325 1.566 1.566 0 00-1.183 0 1.525 1.525 0 00-.481.325c-.13.139-.238.299-.325.481a1.378 1.378 0 00-.117.572zM199.266.21h2.366V11h-2.366v-.741c-.503.633-1.183.949-2.041.949a3.245 3.245 0 01-2.405-1.027 3.54 3.54 0 01-.715-1.131 3.913 3.913 0 01-.247-1.404c0-.477.078-.927.234-1.352.165-.433.394-.81.689-1.131.295-.32.646-.572 1.053-.754.416-.19.871-.286 1.365-.286.832 0 1.521.29 2.067.871V.21zm6.32 4.121V11h-2.353V4.331h2.353zm-2.509-2.561c0-.182.035-.351.104-.507a1.33 1.33 0 01.286-.429c.121-.121.26-.217.416-.286a1.328 1.328 0 011.742.715 1.332 1.332 0 010 1.027 1.371 1.371 0 01-.286.416 1.322 1.322 0 01-.429.286 1.328 1.328 0 01-1.027 0 1.371 1.371 0 01-.702-.702 1.332 1.332 0 01-.104-.52zm6.743 4.524V11h-2.353V6.294h-.78V4.331h.78V2.329h2.353v2.002h1.339v1.963h-1.339zm4.561 1.339c0 .225.039.433.117.624.087.182.195.342.325.481.139.139.299.247.481.325a1.566 1.566 0 001.183 0c.191-.078.351-.186.481-.325.139-.139.247-.299.325-.481a1.454 1.454 0 000-1.196 1.48 1.48 0 00-.325-.494 1.346 1.346 0 00-.481-.325 1.566 1.566 0 00-1.183 0 1.525 1.525 0 00-.481.325c-.13.139-.238.299-.325.481a1.47 1.47 0 00-.117.585zm-2.483-.026c0-.494.1-.953.299-1.378.199-.433.477-.806.832-1.118.355-.32.776-.572 1.261-.754a4.627 4.627 0 011.612-.273 4.48 4.48 0 011.586.273c.494.173.919.42 1.274.741.364.312.646.689.845 1.131.199.433.299.914.299 1.443s-.104 1.014-.312 1.456c-.199.433-.477.81-.832 1.131a3.797 3.797 0 01-1.287.728 4.837 4.837 0 01-1.612.26 4.683 4.683 0 01-1.586-.26 3.73 3.73 0 01-1.261-.741 3.49 3.49 0 01-.819-1.144 3.661 3.661 0 01-.299-1.495zm9.245 2.145c0-.208.039-.403.117-.585a1.495 1.495 0 011.404-.936c.208 0 .403.039.585.117a1.475 1.475 0 01.819.819 1.565 1.565 0 010 1.183 1.516 1.516 0 01-.325.481 1.475 1.475 0 01-.494.325 1.566 1.566 0 01-1.183 0 1.524 1.524 0 01-.806-.806 1.565 1.565 0 01-.117-.598z" fill="#66124B"/></svg>