<svg width="111" height="23" viewBox="0 0 111 23" fill="none" xmlns="http://www.w3.org/2000/svg"><path d="M4.857 8.84h1.3c1.44 0 2.16-.627 2.16-1.88s-.72-1.88-2.16-1.88h-1.3v3.76zm0 8.16H.937V1.92h6.24c1.694 0 2.987.44 3.88 1.32.907.88 1.36 2.12 1.36 3.72s-.453 2.84-1.36 3.72c-.893.88-2.186 1.32-3.88 1.32h-2.32v5zm9.295-10.26h3.62v1.68c.387-.613.86-1.08 1.42-1.4.56-.333 1.213-.5 1.96-.5h.3c.12 0 .253.013.4.04v3.46c-.48-.24-1-.36-1.56-.36-.84 0-1.473.253-1.9.76-.413.493-.62 1.22-.62 2.18V17h-3.62V6.74zm12.815 5.08c0 .347.06.667.18.96.133.28.3.527.5.74.213.213.46.38.74.5.293.12.6.18.92.18.32 0 .62-.06.9-.18.293-.12.54-.287.74-.5.213-.213.38-.46.5-.74.133-.293.2-.607.2-.94 0-.32-.067-.62-.2-.9a2.284 2.284 0 00-.5-.76c-.2-.213-.447-.38-.74-.5a2.26 2.26 0 00-.9-.18c-.32 0-.627.06-.92.18-.28.12-.527.287-.74.5-.2.213-.367.46-.5.74-.12.28-.18.58-.18.9zm-3.82-.04c0-.76.153-1.467.46-2.12a5.099 5.099 0 011.28-1.72 6.012 6.012 0 011.94-1.16 7.12 7.12 0 012.48-.42c.88 0 1.693.14 2.44.42.76.267 1.413.647 1.96 1.14.56.48.993 1.06 1.3 1.74.306.667.46 1.407.46 2.22 0 .813-.16 1.56-.48 2.24a5.307 5.307 0 01-1.28 1.74c-.547.48-1.207.853-1.98 1.12a7.44 7.44 0 01-2.48.4c-.88 0-1.694-.133-2.44-.4a5.743 5.743 0 01-1.94-1.14 5.386 5.386 0 01-1.26-1.76c-.307-.693-.46-1.46-.46-2.3zm18.502-2.02V17h-3.62V9.76h-1.2V6.74h1.2V3.66h3.62v3.08h2.06v3.02h-2.06zm11.116.62a2.178 2.178 0 00-.74-1.22c-.373-.307-.826-.46-1.36-.46-.56 0-1.02.147-1.38.44-.346.293-.566.707-.66 1.24h4.14zm-4.24 2.1c0 1.56.734 2.34 2.2 2.34.787 0 1.38-.32 1.78-.96h3.5c-.706 2.347-2.473 3.52-5.3 3.52-.866 0-1.66-.127-2.38-.38a5.547 5.547 0 01-1.86-1.12 5.012 5.012 0 01-1.18-1.72c-.28-.667-.42-1.413-.42-2.24 0-.853.134-1.62.4-2.3a4.843 4.843 0 011.14-1.76 4.952 4.952 0 011.78-1.1c.707-.267 1.5-.4 2.38-.4.867 0 1.647.133 2.34.4.694.253 1.28.627 1.76 1.12.48.493.847 1.1 1.1 1.82.254.707.38 1.507.38 2.4v.38h-7.62zm5.46-10.32l-3.48 3.08L48.825 4l2.86-3.5 2.3 1.66zm7.59 9.66c0 .333.06.647.18.94.12.28.28.527.48.74.213.213.46.38.74.5.293.12.606.18.94.18.32 0 .62-.06.9-.18.293-.12.54-.287.74-.5.213-.213.38-.46.5-.74.133-.293.2-.6.2-.92 0-.333-.067-.64-.2-.92a2.285 2.285 0 00-1.26-1.24c-.28-.12-.574-.18-.88-.18-.32 0-.62.067-.9.2a2.34 2.34 0 00-.74.5c-.214.2-.387.44-.52.72-.12.28-.18.58-.18.9zm8.12-5.08v9.56c0 .573-.034 1.087-.1 1.54-.067.453-.16.853-.28 1.2a3.59 3.59 0 01-.76 1.22c-.334.387-.74.72-1.22 1s-1.027.5-1.64.66c-.6.16-1.254.24-1.96.24-.8 0-1.534-.1-2.2-.3a5.978 5.978 0 01-1.76-.84c-.494-.347-.9-.76-1.22-1.24a4.026 4.026 0 01-.64-1.54h4.08c.253.68.826 1.02 1.72 1.02.76 0 1.34-.213 1.74-.64.413-.427.62-1.02.62-1.78v-.98a6.358 6.358 0 01-.78.64c-.24.16-.487.293-.74.4-.254.107-.52.18-.8.22-.28.053-.587.08-.92.08a5.242 5.242 0 01-2.02-.38 4.86 4.86 0 01-1.6-1.06 4.971 4.971 0 01-1.04-1.62 5.995 5.995 0 01-.36-2.12c0-.787.133-1.513.4-2.18a5.583 5.583 0 011.08-1.76 4.956 4.956 0 011.64-1.18 4.932 4.932 0 012.08-.44c1.213 0 2.233.453 3.06 1.36V6.74h3.62zm10.2 3.64a2.178 2.178 0 00-.74-1.22c-.374-.307-.827-.46-1.36-.46-.56 0-1.02.147-1.38.44-.347.293-.567.707-.66 1.24h4.14zm-4.24 2.1c0 1.56.733 2.34 2.2 2.34.786 0 1.38-.32 1.78-.96h3.5c-.707 2.347-2.474 3.52-5.3 3.52-.867 0-1.66-.127-2.38-.38a5.547 5.547 0 01-1.86-1.12 5.012 5.012 0 01-1.18-1.72c-.28-.667-.42-1.413-.42-2.24 0-.853.133-1.62.4-2.3a4.843 4.843 0 011.14-1.76 4.952 4.952 0 011.78-1.1c.706-.267 1.5-.4 2.38-.4.866 0 1.646.133 2.34.4.693.253 1.28.627 1.76 1.12.48.493.846 1.1 1.1 1.82.253.707.38 1.507.38 2.4v.38h-7.62zM89.52 9.76V17H85.9V9.76h-1.2V6.74h1.2V3.66h3.62v3.08h2.06v3.02h-2.06zm11.116.62c-.12-.507-.366-.913-.74-1.22-.373-.307-.826-.46-1.36-.46-.56 0-1.02.147-1.38.44-.346.293-.566.707-.66 1.24h4.14zm-4.24 2.1c0 1.56.734 2.34 2.2 2.34.787 0 1.38-.32 1.78-.96h3.5c-.706 2.347-2.473 3.52-5.3 3.52-.866 0-1.66-.127-2.38-.38a5.547 5.547 0 01-1.86-1.12 5.012 5.012 0 01-1.18-1.72c-.28-.667-.42-1.413-.42-2.24 0-.853.134-1.62.4-2.3a4.843 4.843 0 011.14-1.76 4.952 4.952 0 011.78-1.1c.707-.267 1.5-.4 2.38-.4.867 0 1.647.133 2.34.4.694.253 1.28.627 1.76 1.12.48.493.847 1.1 1.1 1.82.254.707.38 1.507.38 2.4v.38h-7.62zm9.51 2.6c0-.32.06-.62.18-.9.12-.293.286-.547.5-.76.213-.213.46-.38.74-.5a2.406 2.406 0 011.82 0c.293.12.546.287.76.5.213.213.38.467.5.76a2.407 2.407 0 010 1.82 2.295 2.295 0 01-1.26 1.24 2.406 2.406 0 01-1.82 0 2.337 2.337 0 01-1.24-1.24c-.12-.293-.18-.6-.18-.92z" fill="#fff"/></svg>