<svg width="213" height="15" viewBox="0 0 213 15" fill="none" xmlns="http://www.w3.org/2000/svg"><path d="M2.575 5.696h.845c.936 0 1.404-.407 1.404-1.222S4.356 3.252 3.42 3.252h-.845v2.444zm0 5.304H.027V1.198h4.056c1.1 0 1.941.286 2.522.858.59.572.884 1.378.884 2.418 0 1.04-.295 1.846-.884 2.418-.58.572-1.421.858-2.522.858H2.575V11zm6.042-6.669h2.352v1.092c.252-.399.56-.702.924-.91.364-.217.788-.325 1.273-.325h.195c.079 0 .165.009.26.026v2.249a2.236 2.236 0 00-1.014-.234c-.545 0-.957.165-1.234.494-.27.32-.403.793-.403 1.417V11H8.617V4.331zm8.329 3.302c0 .225.039.433.117.624.087.182.195.342.325.481.139.139.299.247.481.325a1.565 1.565 0 001.183 0c.19-.078.351-.186.481-.325a1.52 1.52 0 00.325-.481c.087-.19.13-.394.13-.611 0-.208-.043-.403-.13-.585a1.485 1.485 0 00-.325-.494 1.348 1.348 0 00-.481-.325 1.565 1.565 0 00-1.183 0 1.521 1.521 0 00-.481.325c-.13.139-.238.299-.325.481a1.47 1.47 0 00-.117.585zm-2.483-.026c0-.494.1-.953.299-1.378.2-.433.477-.806.832-1.118.355-.32.776-.572 1.261-.754a4.628 4.628 0 011.612-.273c.572 0 1.1.091 1.586.273.494.173.919.42 1.274.741.364.312.646.689.845 1.131.2.433.299.914.299 1.443s-.104 1.014-.312 1.456c-.2.433-.477.81-.832 1.131a3.803 3.803 0 01-1.287.728 4.838 4.838 0 01-1.612.26c-.572 0-1.1-.087-1.586-.26a3.73 3.73 0 01-1.261-.741 3.5 3.5 0 01-.819-1.144c-.2-.45-.299-.949-.299-1.495zM26.49 6.294V11h-2.353V6.294h-.78V4.331h.78V2.329h2.353v2.002h1.339v1.963h-1.34zm7.225.403a1.416 1.416 0 00-.48-.793 1.348 1.348 0 00-.885-.299c-.364 0-.663.095-.897.286-.225.19-.368.46-.429.806h2.691zM30.96 8.062c0 1.014.477 1.521 1.43 1.521.511 0 .897-.208 1.157-.624h2.275c-.46 1.525-1.607 2.288-3.445 2.288A4.633 4.633 0 0130.83 11a3.605 3.605 0 01-1.209-.728 3.257 3.257 0 01-.767-1.118 3.726 3.726 0 01-.273-1.456c0-.555.087-1.053.26-1.495.174-.45.42-.832.741-1.144.32-.312.707-.55 1.157-.715.46-.173.975-.26 1.547-.26.564 0 1.07.087 1.521.26.45.165.832.407 1.144.728.312.32.55.715.715 1.183.165.46.247.98.247 1.56v.247H30.96zm8.482-.429c0 .217.04.42.117.611.078.182.182.342.312.481.139.139.3.247.481.325a1.598 1.598 0 001.196 0 1.35 1.35 0 00.481-.325c.139-.139.247-.299.325-.481.087-.19.13-.39.13-.598 0-.217-.043-.416-.13-.598a1.486 1.486 0 00-.819-.806 1.437 1.437 0 00-.572-.117c-.208 0-.403.043-.585.13a1.52 1.52 0 00-.48.325c-.14.13-.252.286-.339.468a1.47 1.47 0 00-.117.585zm5.278-3.302v6.214c0 .373-.022.706-.065 1.001a4.319 4.319 0 01-.182.78c-.104.286-.269.55-.494.793a3.094 3.094 0 01-.793.65 4.22 4.22 0 01-1.066.429c-.39.104-.815.156-1.274.156-.52 0-.996-.065-1.43-.195a3.885 3.885 0 01-1.144-.546 3.045 3.045 0 01-.793-.806 2.616 2.616 0 01-.416-1.001h2.652c.165.442.538.663 1.118.663.494 0 .871-.139 1.131-.416.269-.277.403-.663.403-1.157v-.637a4.14 4.14 0 01-.507.416c-.156.104-.316.19-.48.26a2.1 2.1 0 01-.52.143 3.2 3.2 0 01-.599.052c-.477 0-.914-.082-1.313-.247a3.158 3.158 0 01-1.04-.689 3.231 3.231 0 01-.676-1.053 3.897 3.897 0 01-.234-1.378c0-.511.087-.984.26-1.417.174-.442.407-.823.702-1.144a3.22 3.22 0 011.066-.767c.416-.19.867-.286 1.352-.286.789 0 1.452.295 1.99.884v-.702h2.352zm6.63 2.366a1.416 1.416 0 00-.481-.793 1.348 1.348 0 00-.884-.299c-.364 0-.663.095-.897.286-.225.19-.368.46-.429.806h2.691zm-2.756 1.365c0 1.014.477 1.521 1.43 1.521.511 0 .897-.208 1.157-.624h2.275c-.46 1.525-1.608 2.288-3.445 2.288A4.633 4.633 0 0148.463 11a3.605 3.605 0 01-1.209-.728 3.257 3.257 0 01-.767-1.118 3.726 3.726 0 01-.273-1.456c0-.555.087-1.053.26-1.495.173-.45.42-.832.741-1.144.32-.312.706-.55 1.157-.715.46-.173.975-.26 1.547-.26.563 0 1.07.087 1.521.26.45.165.832.407 1.144.728.312.32.55.715.715 1.183.165.46.247.98.247 1.56v.247h-4.953zM60.877 6.15V11h-1.428V6.15h-.61V4.817h.61V2.551h1.428v2.266h1.11V6.15h-1.11zm3.51-1.333v3.549c0 1.024.404 1.536 1.213 1.536.808 0 1.212-.512 1.212-1.536V4.817h1.428v3.58c0 .496-.061.923-.184 1.283a2.154 2.154 0 01-.616.87c-.482.418-1.096.628-1.84.628-.741 0-1.352-.21-1.835-.629a2.189 2.189 0 01-.628-.87c-.119-.287-.178-.714-.178-1.282v-3.58h1.428zm9.668 0h1.434v.572c.5-.495 1.062-.743 1.689-.743.72 0 1.28.226 1.682.68.347.384.52 1.013.52 1.884V11h-1.434V7.547c0-.61-.085-1.03-.254-1.263-.165-.237-.466-.356-.901-.356-.474 0-.81.157-1.01.47-.194.309-.292.848-.292 1.619V11h-1.434V4.817zm8.563 0v3.549c0 1.024.404 1.536 1.212 1.536.808 0 1.213-.512 1.213-1.536V4.817h1.428v3.58c0 .496-.062.923-.184 1.283a2.154 2.154 0 01-.616.87c-.483.418-1.096.628-1.84.628-.742 0-1.353-.21-1.835-.629a2.189 2.189 0 01-.629-.87c-.118-.287-.178-.714-.178-1.282v-3.58h1.429zm3.453-3.046l-2.31 2.094-.781-.482 1.745-2.31 1.346.698zm2.202 3.046h1.429v.572c.275-.288.51-.483.704-.584.208-.106.468-.159.781-.159.698 0 1.25.305 1.657.914.448-.61 1.056-.914 1.822-.914 1.392 0 2.088.844 2.088 2.533V11h-1.435V7.566c0-.593-.072-1.011-.216-1.257-.148-.25-.39-.374-.73-.374-.393 0-.68.148-.863.444-.178.296-.266.772-.266 1.428V11h-1.435V7.585c0-1.1-.317-1.65-.952-1.65-.402 0-.696.15-.882.45-.182.3-.273.775-.273 1.422V11h-1.429V4.817zm15.914 3.428h-4.43c.037.508.203.912.494 1.213.292.296.667.444 1.124.444.355 0 .65-.085.882-.254.229-.17.489-.482.781-.94l1.206.673c-.186.318-.383.59-.59.82-.208.223-.43.41-.667.558-.237.144-.493.25-.768.317a3.737 3.737 0 01-.895.102c-.922 0-1.663-.296-2.221-.889-.56-.597-.838-1.388-.838-2.374 0-.978.27-1.769.812-2.374.546-.597 1.27-.895 2.171-.895.91 0 1.629.29 2.158.87.525.575.787 1.373.787 2.393l-.006.336zm-1.466-1.168c-.199-.762-.679-1.142-1.441-1.142-.174 0-.337.027-.489.082-.152.05-.292.127-.419.229a1.422 1.422 0 00-.317.355c-.09.14-.157.298-.203.476h2.869zm3.034-2.26h1.428v.553c.262-.275.495-.464.698-.565.208-.106.453-.159.737-.159.376 0 .77.123 1.18.368l-.653 1.308c-.271-.195-.536-.292-.794-.292-.779 0-1.168.588-1.168 1.764V11h-1.428V4.817zm4.456 3.047c0-.893.319-1.652.958-2.279.639-.626 1.418-.939 2.336-.939.923 0 1.706.315 2.349.946.635.63.952 1.405.952 2.323 0 .927-.319 1.703-.958 2.33-.644.622-1.433.933-2.368.933-.927 0-1.703-.318-2.33-.952-.626-.627-.939-1.414-.939-2.362zm1.46.026c0 .617.165 1.106.495 1.466.339.364.785.546 1.339.546.559 0 1.005-.18 1.34-.54.334-.36.501-.84.501-1.44 0-.602-.167-1.082-.501-1.442-.339-.363-.785-.545-1.34-.545-.546 0-.988.182-1.326.545-.339.364-.508.834-.508 1.41zM126.893.279h1.434V11h-1.434v-.648c-.563.55-1.2.826-1.911.826-.846 0-1.549-.31-2.107-.927-.555-.63-.832-1.418-.832-2.361 0-.923.277-1.693.832-2.31.55-.623 1.242-.934 2.075-.934.724 0 1.371.296 1.943.889V.279zm-3.39 7.61c0 .593.159 1.076.476 1.448.326.377.736.565 1.231.565.529 0 .957-.182 1.283-.546.326-.377.488-.855.488-1.435 0-.58-.162-1.058-.488-1.434-.326-.368-.749-.552-1.27-.552-.491 0-.901.186-1.231.558-.326.377-.489.842-.489 1.397zm12.257.356h-4.43c.038.508.203.912.495 1.213.292.296.666.444 1.123.444.356 0 .65-.085.883-.254.228-.17.488-.482.78-.94l1.206.673c-.186.318-.383.59-.59.82-.207.223-.429.41-.666.558a2.72 2.72 0 01-.769.317 3.737 3.737 0 01-.895.102c-.922 0-1.663-.296-2.221-.889-.559-.597-.838-1.388-.838-2.374 0-.978.271-1.769.812-2.374.546-.597 1.27-.895 2.171-.895.91 0 1.63.29 2.158.87.525.575.788 1.373.788 2.393l-.007.336zm-1.466-1.168c-.199-.762-.679-1.142-1.441-1.142-.173 0-.336.027-.489.082-.152.05-.292.127-.419.229a1.442 1.442 0 00-.317.355c-.089.14-.157.298-.203.476h2.869zM141.023 11l1.664-9.802h2.522l1.963 5.226 1.95-5.226h2.522L153.308 11h-2.535l-.845-5.642L147.614 11H146.6l-2.197-5.642-.845 5.642h-2.535zm18.198-4.303a1.414 1.414 0 00-.481-.793 1.347 1.347 0 00-.884-.299c-.364 0-.663.095-.897.286-.225.19-.368.46-.429.806h2.691zm-2.756 1.365c0 1.014.477 1.521 1.43 1.521.511 0 .897-.208 1.157-.624h2.275c-.459 1.525-1.608 2.288-3.445 2.288a4.634 4.634 0 01-1.547-.247 3.605 3.605 0 01-1.209-.728 3.263 3.263 0 01-.767-1.118 3.726 3.726 0 01-.273-1.456c0-.555.087-1.053.26-1.495.173-.45.42-.832.741-1.144a3.22 3.22 0 011.157-.715c.459-.173.975-.26 1.547-.26.563 0 1.07.087 1.521.26a3.01 3.01 0 011.144.728c.312.32.55.715.715 1.183.165.46.247.98.247 1.56v.247h-4.953zm8.482-.416c0 .217.039.42.117.611.078.182.182.342.312.481.139.139.299.247.481.325a1.598 1.598 0 001.196 0c.191-.078.351-.186.481-.325.139-.139.247-.299.325-.481.087-.182.13-.377.13-.585 0-.208-.043-.403-.13-.585a1.48 1.48 0 00-.325-.494 1.346 1.346 0 00-.481-.325 1.566 1.566 0 00-1.183 0 1.525 1.525 0 00-.481.325c-.13.139-.238.299-.325.481a1.378 1.378 0 00-.117.572zM167.911.21h2.366V11h-2.366v-.741c-.503.633-1.183.949-2.041.949a3.245 3.245 0 01-2.405-1.027 3.54 3.54 0 01-.715-1.131 3.913 3.913 0 01-.247-1.404c0-.477.078-.927.234-1.352.165-.433.394-.81.689-1.131.295-.32.646-.572 1.053-.754.416-.19.871-.286 1.365-.286.832 0 1.521.29 2.067.871V.21zm6.32 4.121V11h-2.353V4.331h2.353zm-2.509-2.561a1.345 1.345 0 01.806-1.222 1.328 1.328 0 011.742.715 1.315 1.315 0 010 1.027 1.354 1.354 0 01-1.222.806c-.182 0-.355-.035-.52-.104a1.38 1.38 0 01-.702-.702 1.332 1.332 0 01-.104-.52zm9.148 4.719c-.407-.277-.819-.416-1.235-.416-.225 0-.437.039-.637.117-.19.078-.359.19-.507.338a1.527 1.527 0 00-.351.507c-.078.19-.117.407-.117.65 0 .234.039.45.117.65.087.19.2.36.338.507.148.139.321.247.52.325.2.078.412.117.637.117.442 0 .854-.152 1.235-.455v2.002c-.58.251-1.131.377-1.651.377-.485 0-.949-.082-1.391-.247a3.67 3.67 0 01-1.157-.702 3.648 3.648 0 01-.793-1.105 3.417 3.417 0 01-.299-1.443c0-.529.096-1.01.286-1.443.191-.442.451-.819.78-1.131.33-.32.72-.568 1.17-.741.46-.182.949-.273 1.469-.273.572 0 1.101.121 1.586.364v2.002zm3.526 1.157c0 .217.039.42.117.611.078.182.182.342.312.481.139.139.299.247.481.325a1.602 1.602 0 001.196 0c.191-.078.351-.186.481-.325.139-.139.247-.299.325-.481.087-.182.13-.377.13-.585 0-.208-.043-.403-.13-.585a1.48 1.48 0 00-.325-.494 1.346 1.346 0 00-.481-.325 1.602 1.602 0 00-1.196 0 1.525 1.525 0 00-.481.325c-.13.139-.234.299-.312.481a1.378 1.378 0 00-.117.572zm2.964-3.315h2.366V11h-2.366v-.741c-.502.633-1.183.949-2.041.949-.485 0-.931-.087-1.339-.26a3.323 3.323 0 01-1.066-.754 3.557 3.557 0 01-.715-1.131 3.972 3.972 0 01-.247-1.417c0-.477.083-.927.247-1.352.165-.433.395-.81.689-1.131.295-.32.646-.572 1.053-.754.408-.19.858-.286 1.352-.286.832 0 1.521.29 2.067.871v-.663zm3.967 0h2.353v1.092a2.65 2.65 0 01.923-.91c.364-.217.789-.325 1.274-.325h.195c.078 0 .165.009.26.026v2.249a2.236 2.236 0 00-1.014-.234c-.546 0-.957.165-1.235.494-.268.32-.403.793-.403 1.417V11h-2.353V4.331zm11.007 2.366a1.414 1.414 0 00-.481-.793 1.346 1.346 0 00-.884-.299c-.364 0-.663.095-.897.286-.225.19-.368.46-.429.806h2.691zm-2.756 1.365c0 1.014.477 1.521 1.43 1.521.512 0 .897-.208 1.157-.624h2.275c-.459 1.525-1.607 2.288-3.445 2.288a4.634 4.634 0 01-1.547-.247 3.605 3.605 0 01-1.209-.728 3.263 3.263 0 01-.767-1.118 3.726 3.726 0 01-.273-1.456c0-.555.087-1.053.26-1.495.174-.45.421-.832.741-1.144.321-.312.707-.55 1.157-.715.46-.173.975-.26 1.547-.26.564 0 1.071.087 1.521.26a3.01 3.01 0 011.144.728c.312.32.551.715.715 1.183.165.46.247.98.247 1.56v.247h-4.953zm5.916 2.17c0-.128.024-.248.072-.36a.919.919 0 01.864-.576c.128 0 .248.024.36.072a.904.904 0 01.504.504.963.963 0 010 .728.925.925 0 01-.504.496.965.965 0 01-.728 0 .944.944 0 01-.496-.496.963.963 0 01-.072-.368zm2.719 0c0-.128.024-.248.072-.36a.919.919 0 01.864-.576c.128 0 .248.024.36.072a.914.914 0 01.576.864c0 .128-.024.25-.072.368a.914.914 0 01-.504.496.961.961 0 01-.728 0 .933.933 0 01-.568-.864zm2.719 0c0-.128.024-.248.072-.36a.904.904 0 01.496-.504.961.961 0 011.032.2.919.919 0 01.2.304.963.963 0 010 .728.925.925 0 01-.504.496.961.961 0 01-.728 0 .933.933 0 01-.568-.864z" fill="#66124B"/></svg>