<svg width="362" height="33" viewBox="0 0 362 33" fill="none" xmlns="http://www.w3.org/2000/svg"><path d="M18.217 17.824H4.214c.203 1.261.742 2.266 1.62 3.008.876.746 1.998 1.117 3.36 1.117 1.63 0 3.03-.582 4.202-1.744l3.671 1.76c-.914 1.328-2.01 2.307-3.289 2.944-1.278.637-2.794.954-4.549.954-2.725 0-4.943-.877-6.657-2.634C.858 21.472 0 19.274 0 16.631s.855-4.957 2.563-6.746C4.27 8.096 6.413 7.204 8.99 7.204c2.735 0 4.96.896 6.673 2.681 1.714 1.789 2.572 4.15 2.572 7.088l-.016.848-.003.003zm-4.357-3.507a4.454 4.454 0 00-1.705-2.413c-.849-.62-1.83-.93-2.95-.93-1.216 0-2.281.348-3.2 1.042-.576.436-1.108 1.2-1.6 2.301h9.455zM31.808 10.14l-2.697 2.756c-1.097-1.11-2.093-1.664-2.986-1.664-.489 0-.874.105-1.15.317-.279.21-.413.476-.413.79 0 .24.087.46.263.66.175.2.608.476 1.3.821l1.598.816c1.682.849 2.838 1.713 3.465 2.593.626.88.943 1.913.943 3.097 0 1.578-.567 2.893-1.701 3.946-1.135 1.056-2.654 1.58-4.559 1.58-2.534 0-4.555-1.01-6.068-3.033l2.682-2.986a6.22 6.22 0 001.795 1.476c.686.374 1.297.563 1.83.563.576 0 1.036-.141 1.387-.423.351-.281.526-.608.526-.979 0-.685-.632-1.354-1.898-2.006l-1.47-.75c-2.81-1.445-4.213-3.257-4.213-5.43 0-1.401.53-2.601 1.588-3.596 1.06-.995 2.416-1.491 4.064-1.491 1.127 0 2.19.252 3.186.758s1.839 1.232 2.531 2.176l-.003.01zM36.37 20.758c.692 0 1.284.246 1.773.742.489.496.733 1.094.733 1.802 0 .707-.244 1.312-.733 1.81-.489.5-1.081.75-1.773.75-.693 0-1.282-.25-1.774-.75a2.496 2.496 0 01-.733-1.81c0-.708.245-1.31.733-1.802a2.398 2.398 0 011.774-.742zM45.896 1.417h4.355l5.448 16.736 5.495-16.736h4.354l3.944 23.994h-4.32l-2.519-15.152L57.66 25.41h-3.944l-4.944-15.152-2.578 15.152H41.83l4.066-23.994zM89.811 17.828H75.808c.2 1.264.742 2.265 1.62 3.01.876.743 1.998 1.117 3.364 1.117 1.629 0 3.03-.582 4.201-1.747l3.675 1.764c-.915 1.324-2.012 2.31-3.293 2.947-1.278.636-2.794.953-4.552.953-2.725 0-4.943-.877-6.66-2.633-1.714-1.757-2.572-3.956-2.572-6.596s.852-4.956 2.563-6.742c1.71-1.786 3.853-2.682 6.428-2.682 2.735 0 4.96.896 6.673 2.682 1.714 1.792 2.572 4.15 2.572 7.085l-.016.848h-.006l.006-.006zm-4.36-3.508a4.469 4.469 0 00-1.705-2.412c-.849-.621-1.83-.932-2.951-.932-1.216 0-2.28.35-3.202 1.043-.576.436-1.112 1.204-1.6 2.301h9.457zM105.773.81h4.361v24.595h-4.361V23.53c-.852.825-1.704 1.424-2.559 1.785a7.07 7.07 0 01-2.785.547c-2.244 0-4.183-.89-5.821-2.665-1.639-1.776-2.46-3.987-2.46-6.63 0-2.644.79-4.986 2.378-6.74C96.112 8.077 98.032 7.2 100.3 7.2c1.043 0 2.021.202 2.936.602.914.4 1.757 1.008 2.534 1.81V.81h.003zm-4.586 10.505c-1.347 0-2.469.483-3.359 1.46-.89.972-1.337 2.22-1.337 3.743 0 1.524.454 2.794 1.36 3.783.905.989 2.02 1.481 3.348 1.481 1.328 0 2.506-.483 3.406-1.459.902-.973 1.35-2.246 1.35-3.827 0-1.58-.451-2.794-1.35-3.754-.903-.953-2.04-1.433-3.421-1.433v.006h.003zM116.299.355c.762 0 1.419.285 1.965.848.545.566.82 1.25.82 2.054 0 .803-.272 1.472-.814 2.032-.542.557-1.188.842-1.939.842a2.677 2.677 0 01-1.984-.858c-.545-.573-.82-1.264-.82-2.08 0-.816.269-1.453.808-2.006.542-.554 1.194-.832 1.958-.832h.006zm-2.18 7.305h4.361v17.744h-4.361V7.66zM139.317 11.254l-3.628 2.042c-.68-.73-1.357-1.232-2.021-1.517-.667-.285-1.447-.426-2.343-.426-1.629 0-2.951.493-3.957 1.488-1.006.992-1.51 2.266-1.51 3.818s.483 2.74 1.457 3.7c.968.953 2.243 1.433 3.822 1.433 1.948 0 3.468-.682 4.555-2.042l3.434 2.403c-1.864 2.477-4.493 3.716-7.892 3.716-3.058 0-5.448-.925-7.177-2.775-1.73-1.85-2.597-4.013-2.597-6.493 0-1.718.423-3.299 1.259-4.745.843-1.444 2.018-2.583 3.521-3.412 1.504-.825 3.193-1.238 5.054-1.238 1.726 0 3.273.352 4.645 1.053 1.376.7 2.497 1.699 3.368 2.995v.007l.01-.007zM154.466 7.66h4.361v17.744h-4.361v-1.876c-.852.826-1.704 1.424-2.559 1.786a7.067 7.067 0 01-2.785.547c-2.243 0-4.182-.89-5.821-2.666-1.638-1.776-2.459-3.987-2.459-6.63s.789-4.986 2.378-6.74c1.585-1.75 3.505-2.626 5.773-2.626 1.044 0 2.021.201 2.936.601.915.4 1.757 1.008 2.534 1.812V7.653v.007h.003zm-4.586 3.654c-1.347 0-2.469.483-3.358 1.46-.89.972-1.338 2.22-1.338 3.743 0 1.523.454 2.794 1.36 3.782.905.99 2.02 1.482 3.348 1.482 1.329 0 2.507-.483 3.406-1.46.902-.972 1.35-2.245 1.35-3.826s-.451-2.794-1.35-3.754c-.902-.954-2.04-1.434-3.421-1.434v.007h.003zM162.526 7.66h3.738v2.237c.401-.88.943-1.552 1.613-2.006a3.848 3.848 0 012.203-.685c.564 0 1.156.15 1.773.454l-1.357 3.83c-.514-.258-.93-.39-1.259-.39-.671 0-1.238.426-1.701 1.274-.464.848-.696 2.512-.696 4.992l.016.867v7.178h-4.326V7.66h-.007.003zM190.512 17.828h-14.003c.2 1.264.742 2.265 1.619 3.01.877.743 1.999 1.117 3.365 1.117 1.629 0 3.029-.582 4.201-1.747l3.675 1.764c-.915 1.324-2.011 2.31-3.293 2.947-1.278.636-2.794.953-4.552.953-2.725 0-4.943-.877-6.66-2.633-1.714-1.757-2.572-3.956-2.572-6.596s.852-4.956 2.563-6.742c1.71-1.786 3.853-2.682 6.428-2.682 2.735 0 4.959.896 6.673 2.682 1.714 1.792 2.572 4.15 2.572 7.085l-.016.848h-.006l.006-.006zm-4.361-3.508a4.467 4.467 0 00-1.704-2.412c-.846-.618-1.829-.932-2.951-.932-1.215 0-2.281.35-3.202 1.043-.576.436-1.112 1.204-1.601 2.301h9.458zM195.005 20.761c.689 0 1.284.25 1.773.742.489.493.733 1.098.733 1.802a2.5 2.5 0 01-.733 1.811c-.489.5-1.084.749-1.773.749-.689 0-1.285-.25-1.773-.749a2.49 2.49 0 01-.733-1.811c0-.71.244-1.306.733-1.802a2.414 2.414 0 011.773-.742zM213.498 7.66h4.345v15.2c0 2.999-.588 5.207-1.773 6.621-1.585 1.914-3.975 2.874-7.171 2.874-1.704 0-3.133-.215-4.298-.65-1.159-.435-2.143-1.072-2.935-1.917-.799-.841-1.388-1.868-1.774-3.072h4.806c.426.5.971.877 1.645 1.136.67.256 1.466.381 2.381.381 1.168 0 2.111-.185 2.826-.553.714-.372 1.215-.848 1.51-1.434.291-.589.441-1.6.441-3.034-.767.784-1.572 1.348-2.409 1.69-.842.342-1.792.515-2.86.515-2.334 0-4.301-.857-5.908-2.579-1.604-1.718-2.41-3.891-2.41-6.525 0-2.813.853-5.078 2.554-6.787 1.541-1.542 3.386-2.314 5.523-2.314 1.002 0 1.945.186 2.835.564.89.377 1.783.992 2.672 1.85V7.66zm-4.517 3.706c-1.376 0-2.506.47-3.402 1.408-.896.94-1.341 2.125-1.341 3.549s.46 2.691 1.375 3.635 2.065 1.418 3.449 1.418c1.385 0 2.469-.461 3.343-1.386.877-.925 1.319-2.138 1.319-3.635 0-1.498-.442-2.682-1.328-3.607-.881-.924-2.021-1.385-3.415-1.385v.003zM230.14 7.207c1.638 0 3.18.422 4.624 1.257a8.96 8.96 0 013.377 3.412 9.32 9.32 0 011.212 4.65 9.513 9.513 0 01-1.221 4.697c-.815 1.459-1.927 2.598-3.331 3.414-1.403.823-2.957 1.232-4.646 1.232-2.49 0-4.617-.905-6.381-2.717-1.764-1.81-2.644-4.006-2.644-6.595 0-2.774.996-5.085 2.985-6.934 1.745-1.61 3.75-2.413 6.022-2.413l.006-.006-.003.003zm.072 4.195c-1.357 0-2.481.48-3.384 1.443-.902.963-1.35 2.192-1.35 3.696s.445 2.794 1.338 3.754c.89.96 2.017 1.433 3.383 1.433s2.5-.483 3.406-1.452c.905-.97 1.359-2.212 1.359-3.735 0-1.523-.445-2.761-1.337-3.709-.89-.95-2.027-1.43-3.415-1.43zM239.791 7.66h4.442l4.389 10.474 4.38-10.473h4.417l-7.393 17.744H247.2L239.788 7.66h.006-.003zM258.116 29.705L268.72.582h3.136l-10.623 29.123h-3.117zM276.405 1.271h13.008v4.48h-8.543v4.38h5.551v4.414h-5.551v10.86h-4.465V1.268v.003zM291.706 7.556h3.759v2.246c.408-.886.95-1.558 1.623-2.02a3.843 3.843 0 012.218-.687c.567 0 1.162.153 1.783.46l-1.366 3.857c-.514-.263-.937-.394-1.269-.394-.674 0-1.244.425-1.711 1.28-.466.854-.698 2.528-.698 5.02l.016.871v7.22h-4.352V7.555h-.003zM316.154 7.556h4.386v17.852h-4.386V23.52c-.855.832-1.714 1.43-2.575 1.796a7.056 7.056 0 01-2.801.55c-2.255 0-4.21-.893-5.855-2.682-1.648-1.789-2.472-4.012-2.472-6.669 0-2.655.796-5.014 2.391-6.777 1.594-1.76 3.53-2.643 5.808-2.643 1.049 0 2.033.201 2.951.608.921.406 1.77 1.01 2.55 1.82V7.557h.003zm-4.608 3.676c-1.357 0-2.481.49-3.377 1.47-.896.978-1.344 2.233-1.344 3.766 0 1.532.457 2.812 1.369 3.808.911.995 2.036 1.494 3.371 1.494 1.334 0 2.518-.49 3.427-1.469.908-.98 1.359-2.262 1.359-3.846s-.454-2.81-1.359-3.773c-.909-.963-2.055-1.443-3.443-1.443l-.003-.007zM324.957 7.553h4.433v8.599c0 1.674.113 2.835.339 3.488.225.65.589 1.158 1.087 1.517.498.358 1.112.54 1.845.54.733 0 1.35-.179 1.861-.534.511-.355.89-.877 1.134-1.568.182-.515.273-1.613.273-3.3V7.55h4.385v7.565c0 3.117-.241 5.251-.723 6.4-.589 1.402-1.457 2.474-2.604 3.226-1.146.748-2.603 1.123-4.37 1.123-1.917 0-3.468-.439-4.649-1.312-1.184-.874-2.014-2.096-2.497-3.658-.341-1.081-.514-3.052-.514-5.907V7.553zM357.614.661H362v24.743h-4.386v-1.888c-.855.832-1.714 1.43-2.575 1.795a7.056 7.056 0 01-2.801.55c-2.255 0-4.21-.892-5.855-2.681-1.648-1.789-2.472-4.013-2.472-6.669 0-2.656.796-5.014 2.39-6.778 1.595-1.76 3.531-2.643 5.809-2.643 1.049 0 2.033.202 2.951.608.921.407 1.77 1.011 2.55 1.821V.659l.003.002zm-4.608 10.567c-1.357 0-2.481.49-3.377 1.469-.896.979-1.344 2.233-1.344 3.766s.457 2.813 1.369 3.808c.911.995 2.036 1.494 3.37 1.494 1.335 0 2.519-.49 3.428-1.468.908-.98 1.359-2.263 1.359-3.847s-.454-2.81-1.359-3.773c-.909-.963-2.055-1.443-3.443-1.443l-.003-.006z" fill="#fff"/></svg>