<svg width="135" height="124" viewBox="0 0 135 124" fill="none" xmlns="http://www.w3.org/2000/svg"><path d="M18.46 17.414c0-.529.193-.986.58-1.373.387-.388.85-.581 1.388-.581.538 0 1 .193 1.388.58.387.388.58.85.58 1.388a1.91 1.91 0 01-.58 1.402c-.378.378-.84.567-1.388.567-.557 0-1.024-.19-1.402-.567-.378-.377-.566-.85-.566-1.416zm6.629 0c0-.529.194-.986.58-1.373.388-.388.85-.581 1.388-.581.538 0 1 .193 1.388.58.387.388.58.85.58 1.388a1.91 1.91 0 01-.58 1.402c-.378.378-.84.567-1.388.567-.557 0-1.024-.19-1.402-.567-.377-.377-.566-.85-.566-1.416zm6.63 0c0-.529.193-.986.58-1.373.387-.388.85-.581 1.387-.581.538 0 1.001.193 1.388.58.387.388.58.85.58 1.388a1.91 1.91 0 01-.58 1.402c-.377.378-.84.567-1.388.567-.556 0-1.024-.19-1.401-.567-.378-.377-.567-.85-.567-1.416zm16.3 9.09v-9.048c-1.265 1.294-2.71 1.94-4.333 1.94-1.86 0-3.403-.684-4.63-2.053-1.237-1.378-1.856-3.1-1.856-5.168 0-2.096.619-3.847 1.855-5.254 1.246-1.397 2.809-2.095 4.687-2.095 1.596 0 3.021.627 4.277 1.883V5.208h3.2v21.297h-3.2zm-7.562-14.47c0 1.33.359 2.411 1.076 3.242.718.85 1.629 1.274 2.733 1.274 1.17 0 2.12-.406 2.846-1.218.737-.82 1.105-1.888 1.105-3.2 0-1.293-.363-2.36-1.09-3.2C46.4 8.111 45.456 7.7 44.295 7.7c-1.095 0-2.011.416-2.747 1.246-.727.84-1.09 1.87-1.09 3.087zm18.31-6.826v7.915c0 2.285.9 3.427 2.704 3.427 1.803 0 2.705-1.142 2.705-3.427V5.208h3.186v7.986c0 1.105-.137 2.058-.411 2.86-.264.718-.722 1.365-1.374 1.94-1.076.935-2.445 1.402-4.106 1.402-1.652 0-3.016-.467-4.092-1.401-.661-.576-1.128-1.223-1.402-1.94-.264-.642-.397-1.596-.397-2.86V5.207h3.186zm25.176 7.646H74.06c.085 1.133.453 2.035 1.105 2.705.651.66 1.487.991 2.506.991.793 0 1.45-.189 1.968-.566.51-.378 1.09-1.076 1.742-2.096l2.69 1.501a10.96 10.96 0 01-1.316 1.827 7.29 7.29 0 01-1.487 1.246c-.529.32-1.1.557-1.713.708a8.339 8.339 0 01-1.997.226c-2.058 0-3.71-.66-4.956-1.982-1.246-1.331-1.87-3.096-1.87-5.296 0-2.18.605-3.946 1.813-5.296 1.218-1.33 2.832-1.996 4.843-1.996 2.03 0 3.634.646 4.814 1.94 1.171 1.283 1.756 3.063 1.756 5.338l-.014.75zm-3.27-2.605c-.445-1.7-1.516-2.549-3.215-2.549-.387 0-.75.062-1.09.184-.34.114-.652.283-.935.51-.274.217-.51.481-.708.793-.198.312-.35.666-.453 1.062h6.4zm19.002-2.067V19h-3.186V8.182h-1.36V5.208h1.36V.153h3.186v5.055h2.478v2.974h-2.478zm17.46 4.672h-9.884c.085 1.133.453 2.035 1.104 2.705.652.66 1.487.991 2.507.991.793 0 1.449-.189 1.968-.566.51-.378 1.09-1.076 1.742-2.096l2.69 1.501a10.92 10.92 0 01-1.317 1.827c-.463.5-.958.915-1.487 1.246-.528.32-1.1.557-1.713.708a8.34 8.34 0 01-1.997.226c-2.058 0-3.71-.66-4.956-1.982-1.246-1.331-1.869-3.096-1.869-5.296 0-2.18.604-3.946 1.813-5.296 1.217-1.33 2.832-1.996 4.842-1.996 2.03 0 3.635.646 4.815 1.94 1.17 1.283 1.756 3.063 1.756 5.338l-.014.75zm-3.271-2.605c-.444-1.7-1.516-2.549-3.215-2.549-.387 0-.75.062-1.09.184-.34.114-.652.283-.935.51-.274.217-.51.481-.708.793a3.73 3.73 0 00-.453 1.062h6.401zM18.491 61.505h-3.186V40.208h3.186v1.501c1.256-1.256 2.681-1.883 4.277-1.883 1.897 0 3.46.698 4.687 2.095 1.246 1.388 1.869 3.14 1.869 5.254 0 2.067-.618 3.79-1.855 5.168-1.227 1.37-2.775 2.053-4.645 2.053-1.614 0-3.058-.646-4.333-1.94v9.049zm7.576-14.316c0-1.322-.359-2.398-1.076-3.229-.727-.84-1.643-1.26-2.747-1.26-1.17 0-2.12.406-2.846 1.218-.727.812-1.09 1.879-1.09 3.2 0 1.293.363 2.36 1.09 3.2.717.822 1.661 1.232 2.832 1.232 1.104 0 2.015-.415 2.733-1.246.736-.83 1.104-1.869 1.104-3.115zm9.813-6.981V54h-3.186V40.208h3.186zm-3.667-5.735c0-.557.203-1.038.608-1.444a1.99 1.99 0 011.459-.61c.576 0 1.067.204 1.473.61.406.396.609.882.609 1.458s-.203 1.067-.61 1.473a1.96 1.96 0 01-1.458.609 2.006 2.006 0 01-1.472-.609 2.023 2.023 0 01-.61-1.487zm17.87-4.39h3.2V54h-3.2v-1.444c-1.256 1.227-2.676 1.84-4.262 1.84-1.889 0-3.456-.689-4.702-2.067-1.236-1.407-1.855-3.162-1.855-5.267 0-2.058.619-3.776 1.855-5.155 1.228-1.387 2.771-2.081 4.63-2.081 1.615 0 3.06.66 4.334 1.982V30.084zM42.52 47.063c0 1.321.354 2.397 1.062 3.228.727.84 1.643 1.26 2.747 1.26 1.18 0 2.134-.406 2.86-1.217.728-.84 1.091-1.907 1.091-3.2 0-1.294-.363-2.36-1.09-3.2-.727-.822-1.671-1.233-2.832-1.233-1.095 0-2.011.416-2.747 1.246-.727.84-1.09 1.879-1.09 3.116zm24.95-6.854h3.2V54h-3.2v-1.444c-1.312 1.227-2.723 1.84-4.234 1.84-1.906 0-3.483-.689-4.729-2.067-1.237-1.407-1.855-3.162-1.855-5.267 0-2.068.618-3.79 1.855-5.169 1.237-1.378 2.785-2.067 4.645-2.067 1.604 0 3.044.66 4.318 1.982v-1.6zm-7.561 6.854c0 1.321.354 2.397 1.062 3.228.727.84 1.642 1.26 2.747 1.26 1.18 0 2.134-.406 2.86-1.217.727-.84 1.09-1.907 1.09-3.2 0-1.294-.363-2.36-1.09-3.2-.726-.822-1.67-1.233-2.832-1.233-1.095 0-2.01.416-2.747 1.246-.727.84-1.09 1.879-1.09 3.116zm14.783-6.854h3.2v1.274c1.114-1.104 2.37-1.656 3.767-1.656 1.605 0 2.856.505 3.752 1.515.774.859 1.161 2.26 1.161 4.205V54h-3.2v-7.703c0-1.36-.189-2.299-.566-2.818-.368-.529-1.038-.793-2.01-.793-1.058 0-1.809.35-2.252 1.048-.435.689-.652 1.893-.652 3.61V54h-3.2V40.208zm28.151 2.974V54h-3.186V43.182h-1.36v-2.974h1.36v-5.055h3.186v5.055h2.478v2.974h-2.478zm7.83-2.974v7.916c0 2.284.902 3.426 2.705 3.426s2.704-1.142 2.704-3.426v-7.916h3.186v7.986c0 1.105-.137 2.058-.41 2.86-.265.718-.723 1.365-1.374 1.94-1.076.935-2.445 1.403-4.106 1.403-1.652 0-3.016-.468-4.093-1.402-.66-.576-1.128-1.223-1.401-1.94-.265-.642-.397-1.596-.397-2.86v-7.987h3.186zM1.088 75.684h3.09v1.23c1.075-1.066 2.288-1.6 3.637-1.6 1.55 0 2.757.488 3.623 1.463.747.83 1.12 2.183 1.12 4.06V89H9.47v-7.438c0-1.312-.182-2.219-.547-2.72-.355-.51-1.002-.766-1.941-.766-1.021 0-1.746.337-2.174 1.012-.42.665-.629 1.827-.629 3.486V89h-3.09V75.684zm18.444 0v7.642c0 2.206.87 3.309 2.61 3.309 1.742 0 2.612-1.103 2.612-3.309v-7.642h3.076v7.71c0 1.067-.132 1.987-.396 2.762-.255.693-.697 1.317-1.326 1.873-1.04.903-2.361 1.354-3.965 1.354-1.595 0-2.912-.451-3.951-1.354-.638-.556-1.09-1.18-1.354-1.873-.255-.62-.383-1.54-.383-2.762v-7.71h3.077zm7.437-6.563l-4.977 4.512-1.681-1.04 3.76-4.976 2.898 1.504zm4.744 6.563h3.076v1.23c.593-.62 1.099-1.039 1.518-1.258.447-.228 1.007-.342 1.681-.342 1.504 0 2.694.657 3.569 1.97.966-1.313 2.274-1.97 3.924-1.97 2.998 0 4.498 1.819 4.498 5.456V89h-3.09v-7.397c0-1.275-.155-2.178-.465-2.706-.319-.538-.843-.807-1.572-.807-.848 0-1.468.319-1.86.957-.382.638-.574 1.663-.574 3.076V89h-3.09v-7.356c0-2.37-.683-3.554-2.05-3.554-.866 0-1.5.323-1.9.97-.393.648-.589 1.668-.589 3.063V89h-3.076V75.684zm34.276 7.382h-9.543c.082 1.094.437 1.965 1.066 2.612.629.638 1.435.957 2.42.957.765 0 1.399-.183 1.9-.547.492-.365 1.053-1.04 1.682-2.023l2.598 1.449a10.59 10.59 0 01-1.272 1.763 7.039 7.039 0 01-1.436 1.204c-.51.31-1.061.537-1.654.683a8.054 8.054 0 01-1.928.219c-1.986 0-3.582-.638-4.785-1.914-1.203-1.285-1.804-2.99-1.804-5.113 0-2.106.583-3.81 1.75-5.114 1.175-1.285 2.734-1.928 4.675-1.928 1.96 0 3.51.625 4.649 1.874 1.13 1.24 1.695 2.957 1.695 5.154l-.013.724zm-3.159-2.515c-.428-1.64-1.463-2.461-3.103-2.461-.374 0-.725.06-1.053.178-.328.109-.629.273-.902.492-.265.21-.492.465-.684.765-.191.301-.337.643-.437 1.026h6.18zm6.535-4.867h3.077v1.189c.565-.592 1.066-.998 1.504-1.217.446-.228.975-.342 1.585-.342.812 0 1.66.265 2.543.793l-1.408 2.817c-.583-.42-1.153-.63-1.709-.63-1.677 0-2.515 1.268-2.515 3.802V89h-3.076V75.684zm9.598 6.562c0-1.923.688-3.56 2.065-4.908 1.376-1.35 3.053-2.023 5.03-2.023 1.988 0 3.674.678 5.06 2.037 1.367 1.358 2.05 3.026 2.05 5.004 0 1.996-.688 3.668-2.064 5.017-1.386 1.34-3.085 2.01-5.1 2.01-1.996 0-3.669-.684-5.017-2.051-1.35-1.349-2.024-3.044-2.024-5.086zm3.145.055c0 1.33.355 2.383 1.066 3.158.73.784 1.69 1.176 2.885 1.176 1.203 0 2.165-.388 2.885-1.162.72-.775 1.08-1.81 1.08-3.104s-.36-2.329-1.08-3.103c-.73-.784-1.691-1.176-2.885-1.176-1.176 0-2.128.392-2.858 1.176-.729.783-1.093 1.795-1.093 3.035zm32.785-16.393h3.09V89h-3.09v-1.394c-1.212 1.184-2.584 1.777-4.115 1.777-1.823 0-3.336-.666-4.539-1.996-1.194-1.358-1.791-3.054-1.791-5.086 0-1.987.597-3.646 1.791-4.977 1.184-1.34 2.675-2.01 4.47-2.01 1.559 0 2.953.639 4.184 1.915v-11.32zm-7.301 16.393c0 1.276.342 2.315 1.025 3.117.702.811 1.586 1.217 2.653 1.217 1.139 0 2.06-.392 2.761-1.176.702-.811 1.053-1.841 1.053-3.09 0-1.249-.351-2.278-1.053-3.09-.701-.793-1.613-1.19-2.734-1.19-1.057 0-1.941.402-2.652 1.204-.702.811-1.053 1.814-1.053 3.008zm26.4.765h-9.543c.082 1.094.438 1.965 1.067 2.612.629.638 1.435.957 2.42.957.765 0 1.399-.183 1.9-.547.492-.365 1.053-1.04 1.682-2.023l2.597 1.449a10.56 10.56 0 01-1.271 1.763 7.038 7.038 0 01-1.436 1.204 5.86 5.86 0 01-1.654.683 8.053 8.053 0 01-1.928.219c-1.987 0-3.582-.638-4.785-1.914-1.203-1.285-1.804-2.99-1.804-5.113 0-2.106.583-3.81 1.75-5.114 1.175-1.285 2.734-1.928 4.675-1.928 1.96 0 3.509.625 4.649 1.874 1.13 1.24 1.695 2.957 1.695 5.154l-.014.724zm-3.158-2.515c-.428-1.64-1.463-2.461-3.103-2.461-.374 0-.725.06-1.053.178-.328.109-.629.273-.902.492-.265.21-.493.465-.684.765-.191.301-.337.643-.437 1.026h6.179z" fill="#fff" fill-opacity=".75"/><path d="M.937 123l3.328-19.604h5.044l3.926 10.452 3.9-10.452h5.044L25.507 123h-5.07l-1.69-11.284L14.119 123H12.09l-4.394-11.284L6.007 123H.937zm36.395-8.606c-.156-.659-.477-1.187-.962-1.586s-1.075-.598-1.768-.598c-.728 0-1.326.191-1.794.572-.45.381-.737.919-.858 1.612h5.382zm-5.512 2.73c0 2.028.953 3.042 2.86 3.042 1.023 0 1.794-.416 2.314-1.248h4.55c-.919 3.051-3.215 4.576-6.89 4.576-1.127 0-2.158-.165-3.094-.494-.936-.347-1.742-.832-2.418-1.456a6.513 6.513 0 01-1.534-2.236c-.364-.867-.546-1.837-.546-2.912 0-1.109.173-2.106.52-2.99.347-.901.84-1.664 1.482-2.288a6.433 6.433 0 012.314-1.43c.919-.347 1.95-.52 3.094-.52 1.127 0 2.14.173 3.042.52a6.024 6.024 0 012.288 1.456c.624.641 1.1 1.43 1.43 2.366.33.919.494 1.959.494 3.12v.494H31.82zm16.964-.832c0 .433.078.841.234 1.222.156.364.364.685.624.962.277.277.598.494.962.65.381.156.789.234 1.222.234.416 0 .806-.078 1.17-.234.381-.156.702-.373.962-.65a3.04 3.04 0 00.65-.962c.173-.364.26-.754.26-1.17 0-.416-.087-.806-.26-1.17a2.97 2.97 0 00-.65-.988 2.702 2.702 0 00-.962-.65 2.938 2.938 0 00-1.17-.234c-.416 0-.815.078-1.196.234a3.047 3.047 0 00-.962.65 3.75 3.75 0 00-.65.962 2.757 2.757 0 00-.234 1.144zm5.928-14.872h4.732V123h-4.732v-1.482c-1.005 1.265-2.366 1.898-4.082 1.898-.97 0-1.863-.182-2.678-.546a6.629 6.629 0 01-2.132-1.508 7.07 7.07 0 01-1.43-2.262 7.841 7.841 0 01-.494-2.808c0-.953.156-1.855.468-2.704a6.946 6.946 0 011.378-2.262 6.34 6.34 0 012.106-1.508c.832-.381 1.742-.572 2.73-.572 1.664 0 3.042.581 4.134 1.742v-9.568zm12.64 8.242V123h-4.706v-13.338h4.706zm-5.018-5.122c0-.364.07-.702.208-1.014.14-.329.33-.615.572-.858.243-.243.52-.433.832-.572.33-.139.676-.208 1.04-.208s.702.069 1.014.208c.33.139.616.329.858.572.243.243.434.529.572.858.14.312.208.65.208 1.014s-.069.711-.208 1.04c-.138.312-.329.589-.572.832a2.657 2.657 0 01-.858.572c-.312.139-.65.208-1.014.208s-.71-.069-1.04-.208a2.743 2.743 0 01-.832-.572 2.748 2.748 0 01-.572-.832 2.653 2.653 0 01-.208-1.04zm18.296 9.438c-.814-.555-1.638-.832-2.47-.832-.45 0-.875.078-1.274.234-.381.156-.719.381-1.014.676a3.026 3.026 0 00-.702 1.014 3.408 3.408 0 00-.234 1.3c0 .468.078.901.234 1.3.174.381.399.719.676 1.014.295.277.642.494 1.04.65.399.156.824.234 1.274.234.884 0 1.708-.303 2.47-.91v4.004c-1.161.503-2.262.754-3.302.754-.97 0-1.898-.165-2.782-.494a7.318 7.318 0 01-2.314-1.404 7.267 7.267 0 01-1.586-2.21c-.398-.867-.598-1.829-.598-2.886 0-1.057.191-2.019.572-2.886a6.763 6.763 0 011.56-2.262 6.832 6.832 0 012.34-1.482 7.902 7.902 0 012.938-.546c1.144 0 2.202.243 3.172.728v4.004zm7.052 2.314c0 .433.078.841.234 1.222.156.364.364.685.624.962.278.277.598.494.962.65.382.156.79.234 1.222.234.416 0 .806-.078 1.17-.234.382-.156.702-.373.962-.65a3.04 3.04 0 00.65-.962c.174-.364.26-.754.26-1.17 0-.416-.086-.806-.26-1.17a2.97 2.97 0 00-.65-.988 2.702 2.702 0 00-.962-.65 2.938 2.938 0 00-1.17-.234c-.433 0-.84.078-1.222.234a3.047 3.047 0 00-.962.65c-.26.277-.468.598-.624.962a2.757 2.757 0 00-.234 1.144zm5.928-6.63h4.732V123H93.61v-1.482c-1.005 1.265-2.366 1.898-4.082 1.898-.97 0-1.863-.173-2.678-.52a6.63 6.63 0 01-2.132-1.508 7.073 7.073 0 01-1.43-2.262c-.329-.867-.494-1.811-.494-2.834 0-.953.165-1.855.494-2.704a6.948 6.948 0 011.378-2.262 6.34 6.34 0 012.106-1.508c.815-.381 1.716-.572 2.704-.572 1.664 0 3.042.581 4.134 1.742v-1.326zm7.935 0h4.706v2.184c.503-.797 1.118-1.404 1.846-1.82.728-.433 1.577-.65 2.548-.65h.39c.156 0 .329.017.52.052v4.498a4.471 4.471 0 00-2.028-.468c-1.092 0-1.915.329-2.47.988-.537.641-.806 1.586-.806 2.834V123h-4.706v-13.338zm22.014 4.732c-.156-.659-.477-1.187-.962-1.586-.486-.399-1.075-.598-1.768-.598-.728 0-1.326.191-1.794.572-.451.381-.737.919-.858 1.612h5.382zm-5.512 2.73c0 2.028.953 3.042 2.86 3.042 1.022 0 1.794-.416 2.314-1.248h4.55c-.919 3.051-3.216 4.576-6.89 4.576-1.127 0-2.158-.165-3.094-.494-.936-.347-1.742-.832-2.418-1.456a6.508 6.508 0 01-1.534-2.236c-.364-.867-.546-1.837-.546-2.912 0-1.109.173-2.106.52-2.99.346-.901.84-1.664 1.482-2.288a6.425 6.425 0 012.314-1.43c.918-.347 1.95-.52 3.094-.52 1.126 0 2.14.173 3.042.52a6.027 6.027 0 012.288 1.456c.624.641 1.1 1.43 1.43 2.366.329.919.494 1.959.494 3.12v.494h-9.906zm11.885 4.244c0-.272.051-.527.153-.765.102-.249.243-.465.425-.646.181-.181.391-.323.629-.425a2.045 2.045 0 011.547 0c.249.102.464.244.646.425.181.181.323.397.425.646a2.045 2.045 0 010 1.547 1.957 1.957 0 01-1.071 1.054 2.045 2.045 0 01-1.547 0 1.991 1.991 0 01-1.054-1.054 2.045 2.045 0 01-.153-.782z" fill="#fff"/></svg>