<svg width="135" height="55" viewBox="0 0 135 55" fill="none" xmlns="http://www.w3.org/2000/svg"><path d="M.91 18.688c0-.438.16-.817.48-1.137.32-.32.703-.48 1.149-.48.445 0 .828.16 1.148.48.32.32.48.703.48 1.148 0 .453-.16.84-.48 1.16a1.562 1.562 0 01-1.148.47c-.461 0-.848-.157-1.16-.47-.313-.312-.47-.703-.47-1.172zm5.486 0c0-.438.16-.817.48-1.137.32-.32.704-.48 1.149-.48.445 0 .828.16 1.148.48.32.32.48.703.48 1.148 0 .453-.16.84-.48 1.16a1.562 1.562 0 01-1.148.47c-.461 0-.848-.157-1.16-.47-.313-.312-.47-.703-.47-1.172zm5.486 0c0-.438.16-.817.48-1.137.32-.32.704-.48 1.15-.48.444 0 .827.16 1.147.48.32.32.481.703.481 1.148 0 .453-.16.84-.48 1.16a1.562 1.562 0 01-1.149.47c-.46 0-.848-.157-1.16-.47-.313-.312-.469-.703-.469-1.172zm4.9-11h4.344V9.2c1.184-1.136 2.512-1.704 3.984-1.704 1.824 0 3.216.768 4.176 2.304.976-1.552 2.368-2.328 4.176-2.328.576 0 1.12.088 1.632.264.512.16.952.424 1.32.792.368.352.656.816.864 1.392.224.576.336 1.272.336 2.088V20H33.27v-6.072c0-.624-.048-1.136-.144-1.536-.08-.4-.208-.712-.384-.936a1.206 1.206 0 00-.576-.456 2.125 2.125 0 00-.72-.12c-1.392 0-2.088 1.016-2.088 3.048V20h-4.344v-6.072c0-.624-.04-1.136-.12-1.536-.08-.416-.2-.744-.36-.984a1.05 1.05 0 00-.576-.48 2.253 2.253 0 00-.84-.144c-.272 0-.528.04-.768.12-.24.08-.456.24-.648.48-.176.224-.32.544-.432.96-.096.4-.144.928-.144 1.584V20h-4.344V7.688zm32.813 4.368c-.144-.608-.44-1.096-.888-1.464-.448-.368-.992-.552-1.632-.552-.672 0-1.224.176-1.656.528-.416.352-.68.848-.792 1.488h4.968zm-5.088 2.52c0 1.872.88 2.808 2.64 2.808.944 0 1.656-.384 2.136-1.152h4.2c-.848 2.816-2.968 4.224-6.36 4.224-1.04 0-1.992-.152-2.856-.456a6.656 6.656 0 01-2.232-1.344 6.015 6.015 0 01-1.416-2.064c-.336-.8-.504-1.696-.504-2.688 0-1.024.16-1.944.48-2.76a5.81 5.81 0 011.368-2.112 5.943 5.943 0 012.136-1.32c.848-.32 1.8-.48 2.856-.48 1.04 0 1.976.16 2.808.48a5.56 5.56 0 012.112 1.344c.576.592 1.016 1.32 1.32 2.184.304.848.456 1.808.456 2.88v.456h-9.144zm11.627-6.888h4.344v1.56c.592-.72 1.192-1.2 1.8-1.44.608-.256 1.32-.384 2.136-.384.864 0 1.6.144 2.208.432a4.281 4.281 0 011.584 1.176c.352.416.592.88.72 1.392a7.25 7.25 0 01.192 1.752V20h-4.344v-6.216c0-.608-.048-1.096-.144-1.464-.08-.384-.232-.688-.456-.912a1.646 1.646 0 00-.648-.408c-.24-.08-.496-.12-.768-.12-.736 0-1.304.224-1.704.672-.384.432-.576 1.056-.576 1.872V20h-4.344V7.688zm24.097 3.168c-.8-.416-1.584-.624-2.352-.624-.4 0-.728.08-.984.24-.24.16-.36.376-.36.648 0 .144.016.264.048.36.048.08.136.16.264.24.144.08.344.152.6.216.272.064.624.144 1.056.24 1.2.24 2.096.672 2.688 1.296.592.608.888 1.392.888 2.352 0 .72-.144 1.368-.432 1.944a4.247 4.247 0 01-1.2 1.464c-.512.384-1.128.68-1.848.888a7.969 7.969 0 01-2.376.336c-1.664 0-3.304-.472-4.92-1.416l1.584-3.072c1.216.832 2.368 1.248 3.456 1.248.4 0 .728-.088.984-.264.256-.176.384-.4.384-.672a.865.865 0 00-.072-.384.512.512 0 00-.24-.288c-.128-.096-.32-.176-.576-.24-.24-.08-.56-.16-.96-.24-1.344-.272-2.288-.672-2.832-1.2-.528-.544-.792-1.288-.792-2.232 0-.688.128-1.304.384-1.848a3.826 3.826 0 011.104-1.416c.48-.384 1.056-.68 1.728-.888a7.856 7.856 0 012.28-.312c1.36 0 2.68.264 3.96.792l-1.464 2.832zm8.083 2.952c0 .4.072.776.216 1.128.144.336.336.632.576.888.256.256.552.456.888.6a2.95 2.95 0 001.128.216c.384 0 .744-.072 1.08-.216a2.49 2.49 0 00.888-.6c.256-.256.456-.552.6-.888.16-.336.24-.696.24-1.08 0-.384-.08-.744-.24-1.08a2.742 2.742 0 00-.6-.912 2.49 2.49 0 00-.888-.6 2.712 2.712 0 00-1.08-.216c-.4 0-.776.072-1.128.216a2.808 2.808 0 00-.888.6c-.24.256-.432.552-.576.888-.144.32-.216.672-.216 1.056zm5.472-6.12h4.368V20h-4.368v-1.368c-.928 1.168-2.184 1.752-3.768 1.752-.896 0-1.72-.16-2.472-.48a6.115 6.115 0 01-1.968-1.392c-.56-.592-1-1.288-1.32-2.088a7.306 7.306 0 01-.456-2.616c0-.88.152-1.712.456-2.496a6.42 6.42 0 011.272-2.088 5.85 5.85 0 011.944-1.392c.752-.352 1.584-.528 2.496-.528 1.536 0 2.808.536 3.816 1.608V7.688zm12.114 0v18.456h-4.344V7.688h4.344zm-4.632-4.728c0-.336.064-.648.192-.936.128-.304.304-.568.528-.792.224-.224.48-.4.768-.528.304-.128.624-.192.96-.192.336 0 .648.064.936.192.304.128.568.304.792.528.224.224.4.488.528.792.128.288.192.6.192.936 0 .336-.064.656-.192.96a2.531 2.531 0 01-.528.768c-.224.224-.488.4-.792.528-.288.128-.6.192-.936.192-.336 0-.656-.064-.96-.192a2.531 2.531 0 01-.768-.528c-.224-.224-.4-.48-.528-.768a2.449 2.449 0 01-.192-.96zm16.6 9.096c-.144-.608-.44-1.096-.888-1.464-.448-.368-.992-.552-1.632-.552-.672 0-1.224.176-1.656.528-.416.352-.68.848-.792 1.488h4.968zm-5.088 2.52c0 1.872.88 2.808 2.64 2.808.944 0 1.656-.384 2.136-1.152h4.2c-.848 2.816-2.968 4.224-6.36 4.224-1.04 0-1.992-.152-2.856-.456a6.656 6.656 0 01-2.232-1.344 6.015 6.015 0 01-1.416-2.064c-.336-.8-.504-1.696-.504-2.688 0-1.024.16-1.944.48-2.76a5.81 5.81 0 011.368-2.112 5.943 5.943 0 012.136-1.32c.848-.32 1.8-.48 2.856-.48 1.04 0 1.976.16 2.808.48a5.56 5.56 0 012.112 1.344c.576.592 1.016 1.32 1.32 2.184.304.848.456 1.808.456 2.88v.456h-9.144zm19.787-3.72c-.8-.416-1.584-.624-2.352-.624-.4 0-.728.08-.984.24-.24.16-.36.376-.36.648 0 .144.016.264.048.36.048.08.136.16.264.24.144.08.344.152.6.216.272.064.624.144 1.056.24 1.2.24 2.096.672 2.688 1.296.592.608.888 1.392.888 2.352 0 .72-.144 1.368-.432 1.944a4.247 4.247 0 01-1.2 1.464c-.512.384-1.128.68-1.848.888a7.969 7.969 0 01-2.376.336c-1.664 0-3.304-.472-4.92-1.416l1.584-3.072c1.216.832 2.368 1.248 3.456 1.248.4 0 .728-.088.984-.264.256-.176.384-.4.384-.672a.865.865 0 00-.072-.384.512.512 0 00-.24-.288c-.128-.096-.32-.176-.576-.24-.24-.08-.56-.16-.96-.24-1.344-.272-2.288-.672-2.832-1.2-.528-.544-.792-1.288-.792-2.232 0-.688.128-1.304.384-1.848a3.826 3.826 0 011.104-1.416c.48-.384 1.056-.68 1.728-.888a7.856 7.856 0 012.28-.312c1.36 0 2.68.264 3.96.792l-1.464 2.832zM8.177 46.518c0 .483.086.938.26 1.363.174.406.406.764.696 1.073.31.31.667.551 1.073.725.426.174.88.261 1.363.261.464 0 .9-.087 1.305-.261a3.009 3.009 0 001.073-.725c.31-.31.551-.667.725-1.073.194-.406.29-.841.29-1.305 0-.464-.096-.899-.29-1.305a3.312 3.312 0 00-.725-1.102 3.009 3.009 0 00-1.073-.725 3.278 3.278 0 00-1.305-.261 3.49 3.49 0 00-1.334.261 3.394 3.394 0 00-1.073.725c-.29.31-.531.667-.725 1.073a3.074 3.074 0 00-.26 1.276zm6.611-16.588h5.278V54h-5.278v-1.653c-1.121 1.411-2.639 2.117-4.553 2.117-1.082 0-2.078-.203-2.987-.609a7.39 7.39 0 01-2.378-1.682 7.896 7.896 0 01-1.595-2.523c-.367-.967-.55-2.01-.55-3.132 0-1.063.173-2.069.521-3.016a7.756 7.756 0 011.537-2.523 7.068 7.068 0 012.35-1.682c.927-.425 1.942-.638 3.044-.638 1.856 0 3.393.648 4.611 1.943V29.93zm19.725 14.471c-.174-.735-.532-1.324-1.073-1.769-.541-.445-1.198-.667-1.972-.667-.812 0-1.479.213-2 .638-.503.425-.823 1.025-.958 1.798h6.003zm-6.148 3.045c0 2.262 1.064 3.393 3.19 3.393 1.14 0 2.001-.464 2.581-1.392h5.075c-1.024 3.403-3.586 5.104-7.685 5.104-1.256 0-2.407-.184-3.45-.551-1.045-.387-1.944-.928-2.698-1.624a7.267 7.267 0 01-1.71-2.494c-.407-.967-.61-2.05-.61-3.248 0-1.237.194-2.349.58-3.335.387-1.005.938-1.856 1.653-2.552.715-.696 1.576-1.228 2.581-1.595 1.025-.387 2.175-.58 3.451-.58 1.257 0 2.388.193 3.393.58 1.005.367 1.856.909 2.552 1.624.696.715 1.228 1.595 1.595 2.639.367 1.025.551 2.185.551 3.48v.551H28.365zm29.763-3.944V54h-5.249V43.502h-1.74v-4.379h1.74v-4.466h5.249v4.466h2.987v4.379h-2.987zm16.119.899c-.174-.735-.532-1.324-1.073-1.769-.542-.445-1.2-.667-1.972-.667-.812 0-1.48.213-2.001.638-.503.425-.822 1.025-.957 1.798h6.003zm-6.148 3.045c0 2.262 1.063 3.393 3.19 3.393 1.14 0 2-.464 2.58-1.392h5.076c-1.025 3.403-3.587 5.104-7.685 5.104-1.257 0-2.407-.184-3.451-.551-1.044-.387-1.943-.928-2.697-1.624a7.267 7.267 0 01-1.711-2.494c-.406-.967-.61-2.05-.61-3.248 0-1.237.194-2.349.58-3.335.387-1.005.938-1.856 1.654-2.552.715-.696 1.575-1.228 2.58-1.595 1.025-.387 2.176-.58 3.452-.58 1.256 0 2.387.193 3.393.58 1.005.367 1.856.909 2.552 1.624.696.715 1.227 1.595 1.595 2.639.367 1.025.55 2.185.55 3.48v.551H68.1zm18.882-1.508l-6.032-6.815h6.844l2.552 3.074 2.61-3.074h6.844l-6.177 6.815L101.075 54h-6.96l-3.799-4.408L86.488 54h-6.931l7.424-8.062zm21.755-2.436V54h-5.249V43.502h-1.74v-4.379h1.74v-4.466h5.249v4.466h2.987v4.379h-2.987zm10.175 2.987c0 .503.087.967.261 1.392.193.406.435.764.725 1.073.309.31.667.551 1.073.725.425.174.87.261 1.334.261.464 0 .899-.087 1.305-.261a3.012 3.012 0 001.073-.725c.309-.31.551-.667.725-1.073.193-.425.29-.88.29-1.363 0-.464-.097-.899-.29-1.305a3.318 3.318 0 00-.725-1.102 3.012 3.012 0 00-1.073-.725 3.278 3.278 0 00-1.305-.261c-.464 0-.909.087-1.334.261a3.39 3.39 0 00-1.073.725 4.18 4.18 0 00-.725 1.073 3.278 3.278 0 00-.261 1.305zm-5.539-.058c0-1.102.222-2.127.667-3.074a7.378 7.378 0 011.856-2.494c.792-.715 1.73-1.276 2.813-1.682 1.102-.406 2.3-.609 3.596-.609 1.276 0 2.455.203 3.538.609 1.102.387 2.049.938 2.842 1.653a7.159 7.159 0 011.885 2.523c.444.967.667 2.04.667 3.219 0 1.18-.232 2.262-.696 3.248a7.712 7.712 0 01-1.856 2.523c-.793.696-1.75 1.237-2.871 1.624-1.102.387-2.301.58-3.596.58-1.276 0-2.456-.193-3.538-.58-1.083-.387-2.021-.938-2.813-1.653a7.79 7.79 0 01-1.827-2.552c-.445-1.005-.667-2.117-.667-3.335z" fill="#fff"/></svg>