<svg width="129" height="64" viewBox="0 0 129 64" fill="none" xmlns="http://www.w3.org/2000/svg"><path d="M6.136 20.02h1.35c1.02 0 1.93-.16 2.73-.48.8-.32 1.47-.76 2.01-1.32.56-.56.98-1.22 1.26-1.98.3-.78.45-1.63.45-2.55 0-.9-.15-1.74-.45-2.52-.3-.78-.73-1.45-1.29-2.01-.54-.56-1.21-1-2.01-1.32-.8-.32-1.7-.48-2.7-.48h-1.35v12.66zM.256 2.38h8.7c1.54 0 2.98.31 4.32.93 1.36.62 2.54 1.45 3.54 2.49 1.02 1.02 1.82 2.22 2.4 3.6.58 1.36.87 2.79.87 4.29 0 1.48-.29 2.91-.87 4.29a11.16 11.16 0 01-2.37 3.6c-1 1.04-2.18 1.87-3.54 2.49-1.34.62-2.79.93-4.35.93h-8.7V2.38zM34.58 15.07c-.18-.76-.55-1.37-1.11-1.83-.56-.46-1.24-.69-2.04-.69-.84 0-1.53.22-2.07.66-.52.44-.85 1.06-.99 1.86h6.21zm-6.36 3.15c0 2.34 1.1 3.51 3.3 3.51 1.18 0 2.07-.48 2.67-1.44h5.25c-1.06 3.52-3.71 5.28-7.95 5.28-1.3 0-2.49-.19-3.57-.57-1.08-.4-2.01-.96-2.79-1.68a7.519 7.519 0 01-1.77-2.58c-.42-1-.63-2.12-.63-3.36 0-1.28.2-2.43.6-3.45.4-1.04.97-1.92 1.71-2.64.74-.72 1.63-1.27 2.67-1.65 1.06-.4 2.25-.6 3.57-.6 1.3 0 2.47.2 3.51.6 1.04.38 1.92.94 2.64 1.68.72.74 1.27 1.65 1.65 2.73.38 1.06.57 2.26.57 3.6v.57H28.22zm20.799-4.08V25h-5.43V14.14h-1.8V9.61h1.8V4.99h5.43v4.62h3.09v4.53h-3.09zm16.674.93c-.18-.76-.55-1.37-1.11-1.83-.56-.46-1.24-.69-2.04-.69-.84 0-1.53.22-2.07.66-.52.44-.85 1.06-.99 1.86h6.21zm-6.36 3.15c0 2.34 1.1 3.51 3.3 3.51 1.18 0 2.07-.48 2.67-1.44h5.25c-1.06 3.52-3.71 5.28-7.95 5.28-1.3 0-2.49-.19-3.57-.57-1.08-.4-2.01-.96-2.79-1.68a7.519 7.519 0 01-1.77-2.58c-.42-1-.63-2.12-.63-3.36 0-1.28.2-2.43.6-3.45.4-1.04.97-1.92 1.71-2.64.74-.72 1.63-1.27 2.67-1.65 1.06-.4 2.25-.6 3.57-.6 1.3 0 2.47.2 3.51.6 1.04.38 1.92.94 2.64 1.68.72.74 1.27 1.65 1.65 2.73.38 1.06.57 2.26.57 3.6v.57h-11.43zm8.19-15.48l-5.22 4.62-2.52-1.86 4.29-5.25 3.45 2.49zm6.344 6.87h5.43v1.95c.74-.9 1.49-1.5 2.25-1.8.76-.32 1.65-.48 2.67-.48 1.08 0 2 .18 2.76.54.78.34 1.44.83 1.98 1.47.44.52.74 1.1.9 1.74.16.64.24 1.37.24 2.19V25h-5.43v-7.77c0-.76-.06-1.37-.18-1.83-.1-.48-.29-.86-.57-1.14-.24-.24-.51-.41-.81-.51-.3-.1-.62-.15-.96-.15-.92 0-1.63.28-2.13.84-.48.54-.72 1.32-.72 2.34V25h-5.43V9.61zm41.367 5.46c-.18-.76-.55-1.37-1.11-1.83-.56-.46-1.24-.69-2.04-.69-.84 0-1.53.22-2.07.66-.52.44-.85 1.06-.99 1.86h6.21zm-6.36 3.15c0 2.34 1.1 3.51 3.3 3.51 1.18 0 2.07-.48 2.67-1.44h5.25c-1.06 3.52-3.71 5.28-7.95 5.28-1.3 0-2.49-.19-3.57-.57-1.08-.4-2.01-.96-2.79-1.68a7.519 7.519 0 01-1.77-2.58c-.42-1-.63-2.12-.63-3.36 0-1.28.2-2.43.6-3.45.4-1.04.97-1.92 1.71-2.64.74-.72 1.63-1.27 2.67-1.65 1.06-.4 2.25-.6 3.57-.6 1.3 0 2.47.2 3.51.6 1.04.38 1.92.94 2.64 1.68.72.74 1.27 1.65 1.65 2.73.38 1.06.57 2.26.57 3.6v.57h-11.43zM128.838.1V25h-5.43V.1h5.43zM13.214 52.14V63h-5.43V52.14h-1.95v-4.53h1.95V45.3c0-1.28.12-2.3.36-3.06.2-.64.52-1.23.96-1.77.44-.56.95-1.04 1.53-1.44.6-.4 1.24-.71 1.92-.93.68-.22 1.35-.33 2.01-.33.46 0 .88.05 1.26.15.4.1.8.24 1.2.42v4.74c-.36-.18-.7-.31-1.02-.39-.3-.1-.62-.15-.96-.15-.22 0-.45.04-.69.12-.22.06-.43.2-.63.42-.2.22-.34.54-.42.96-.06.4-.09.95-.09 1.65v1.92h3.81v4.53h-3.81zm5.839-4.53h5.43v2.52c.58-.92 1.29-1.62 2.13-2.1.84-.5 1.82-.75 2.94-.75h.45c.18 0 .38.02.6.06v5.19a5.16 5.16 0 00-2.34-.54c-1.26 0-2.21.38-2.85 1.14-.62.74-.93 1.83-.93 3.27V63h-5.43V47.61zm19.19 7.65c0 .5.09.97.27 1.41.18.42.42.79.72 1.11.32.32.69.57 1.11.75.44.18.91.27 1.41.27.48 0 .93-.09 1.35-.27.44-.18.81-.43 1.11-.75.32-.32.57-.69.75-1.11.2-.42.3-.87.3-1.35 0-.48-.1-.93-.3-1.35-.18-.44-.43-.82-.75-1.14-.3-.32-.67-.57-1.11-.75a3.39 3.39 0 00-1.35-.27c-.5 0-.97.09-1.41.27-.42.18-.79.43-1.11.75-.3.32-.54.69-.72 1.11-.18.4-.27.84-.27 1.32zm6.84-7.65h5.46V63h-5.46v-1.71c-1.16 1.46-2.73 2.19-4.71 2.19-1.12 0-2.15-.2-3.09-.6-.94-.42-1.76-1-2.46-1.74s-1.25-1.61-1.65-2.61c-.38-1-.57-2.09-.57-3.27 0-1.1.19-2.14.57-3.12.38-1 .91-1.87 1.59-2.61.68-.74 1.49-1.32 2.43-1.74.94-.44 1.98-.66 3.12-.66 1.92 0 3.51.67 4.77 2.01v-1.53zm14.585 0v8.67c0 1.9.92 2.85 2.76 2.85 1.84 0 2.76-.95 2.76-2.85v-8.67h5.43v9.72c0 2.08-.69 3.64-2.07 4.68-1.36 1.04-3.4 1.56-6.12 1.56s-4.77-.52-6.15-1.56c-1.36-1.04-2.04-2.6-2.04-4.68v-9.72h5.43zm19.679 7.65c0 .5.09.97.27 1.41.18.42.42.79.72 1.11.32.32.69.57 1.11.75.44.18.91.27 1.41.27.48 0 .93-.09 1.35-.27.44-.18.81-.43 1.11-.75.32-.32.57-.69.75-1.11.2-.42.3-.87.3-1.35 0-.48-.1-.93-.3-1.35-.18-.44-.43-.82-.75-1.14-.3-.32-.67-.57-1.11-.75a3.39 3.39 0 00-1.35-.27c-.48 0-.94.09-1.38.27-.42.18-.79.43-1.11.75-.3.32-.55.69-.75 1.11-.18.4-.27.84-.27 1.32zm6.84-17.16h5.46V63h-5.46v-1.71c-1.16 1.46-2.73 2.19-4.71 2.19-1.12 0-2.15-.21-3.09-.63-.94-.42-1.76-1-2.46-1.74s-1.25-1.61-1.65-2.61c-.38-1-.57-2.08-.57-3.24 0-1.1.18-2.14.54-3.12.38-1 .91-1.87 1.59-2.61.68-.74 1.49-1.32 2.43-1.74.96-.44 2.01-.66 3.15-.66 1.92 0 3.51.67 4.77 2.01V38.1zm20.405 14.97c-.18-.76-.55-1.37-1.11-1.83-.56-.46-1.24-.69-2.04-.69-.84 0-1.53.22-2.07.66-.52.44-.85 1.06-.99 1.86h6.21zm-6.36 3.15c0 2.34 1.1 3.51 3.3 3.51 1.18 0 2.07-.48 2.67-1.44h5.25c-1.06 3.52-3.71 5.28-7.95 5.28-1.3 0-2.49-.19-3.57-.57-1.08-.4-2.01-.96-2.79-1.68a7.519 7.519 0 01-1.77-2.58c-.42-1-.63-2.12-.63-3.36 0-1.28.2-2.43.6-3.45.4-1.04.97-1.92 1.71-2.64.74-.72 1.63-1.27 2.67-1.65 1.06-.4 2.25-.6 3.57-.6 1.3 0 2.47.2 3.51.6 1.04.38 1.92.94 2.64 1.68.72.74 1.27 1.65 1.65 2.73.38 1.06.57 2.26.57 3.6v.57h-11.43zm14.264 3.9c0-.48.09-.93.27-1.35.18-.44.43-.82.75-1.14.32-.32.69-.57 1.11-.75.44-.18.9-.27 1.38-.27.48 0 .93.09 1.35.27.44.18.82.43 1.14.75.32.32.57.7.75 1.14.18.42.27.87.27 1.35 0 .48-.09.94-.27 1.38-.18.42-.43.79-.75 1.11-.32.32-.7.57-1.14.75-.42.18-.87.27-1.35.27-.48 0-.94-.09-1.38-.27a3.51 3.51 0 01-1.86-1.86c-.18-.44-.27-.9-.27-1.38z" fill="#fff"/></svg>