<svg width="195" height="146" viewBox="0 0 195 146" fill="none" xmlns="http://www.w3.org/2000/svg"><path d="M30.033 22.426l2.706-.297-1.188-3.432h-8.184l-1.155 3.432 2.607.297V25h-9.207v-2.574l1.452-.363c.396-.099.693-.231.825-.627l7.227-20.328h5.841l7.194 20.394c.132.396.396.462.792.561l1.518.363V25H30.033v-2.574zM27.426 6.157l-3.036 8.976h6.171l-2.937-8.976h-.198zm14.282 23.199l1.32-.198c.462-.066.594-.198.594-.693V11.8c0-.363-.066-.561-.429-.693l-1.749-.627.363-2.673h5.808l.297 1.683.165.066c1.584-1.287 3.73-2.079 5.61-2.079 3.696 0 6.336 2.31 6.336 8.448 0 3.96-1.353 9.471-6.798 9.471-1.716 0-3.267-.561-4.653-1.65v4.686c0 .528.033.627.528.66l3.366.297v2.607H41.708v-2.64zm6.864-9.075c.726.627 1.881 1.254 3.102 1.254 2.211 0 3.135-2.112 3.135-5.346 0-3.399-1.155-4.785-2.805-4.785-1.386 0-2.706.693-3.432 1.188v7.689zm13.802 2.046l1.485-.198c.462-.066.528-.165.528-.66V11.8c0-.363-.1-.594-.43-.693l-1.781-.627.363-2.673h5.808l.396 2.64h.198c1.089-1.683 2.54-2.97 4.653-2.97.759 0 2.277.132 2.87.297v6.006l-3.96-.132-.33-1.749c-.065-.297-.164-.363-.428-.363-.858 0-1.881.726-2.376 1.155v8.745c0 .528.033.627.528.66l3.267.264V25H62.374v-2.673zm31.111 1.386c-2.046.99-4.29 1.683-6.765 1.683-6.369 0-8.547-3.96-8.547-9.108 0-5.973 3.663-8.811 8.184-8.811 4.356 0 7.26 2.277 7.26 7.986 0 .396-.033 1.551-.066 2.211H83.453c.165 2.343 1.188 3.894 3.894 3.894 1.287 0 2.673-.297 4.917-1.122l1.221 3.267zm-4.752-9.174c-.033-2.772-1.122-3.498-2.475-3.498-1.419 0-2.574.792-2.772 3.498h5.247zm19.252-.198c0-1.584-.099-2.904-1.749-2.904-1.221 0-2.739.693-3.432 1.221v8.844c0 .528.033.594.528.66l1.584.231V25h-9.108v-2.64l1.485-.198c.462-.066.528-.165.528-.66V11.8c0-.363-.099-.594-.429-.693l-1.782-.627.396-2.673h5.775l.264 1.716.132.066c1.65-1.221 3.564-2.112 5.808-2.112 3.597 0 4.983 1.98 4.983 5.61v8.415c0 .528.033.594.528.66l1.65.231V25h-7.161V14.341zm21.088 8.811l-.231-.033c-1.386 1.353-3.003 2.277-5.412 2.277-3.894 0-6.402-2.475-6.402-8.778 0-6.633 3.333-9.141 6.996-9.141 1.914 0 3.399.66 4.653 1.584V4.045c0-.33-.132-.561-.429-.66l-1.815-.627.363-2.673h6.633v21.45c0 .495.033.561.528.627l1.584.231V25h-6.138l-.33-1.848zm-.594-10.857c-.825-.561-1.881-.99-2.838-.99-2.442 0-3.399 2.277-3.399 5.214 0 3.201.924 4.983 3.003 4.983 1.122 0 2.343-.66 3.234-1.419v-7.788zm23.843 11.418c-2.046.99-4.29 1.683-6.765 1.683-6.369 0-8.547-3.96-8.547-9.108 0-5.973 3.663-8.811 8.184-8.811 4.356 0 7.26 2.277 7.26 7.986 0 .396-.033 1.551-.066 2.211H142.29c.165 2.343 1.188 3.894 3.894 3.894 1.287 0 2.673-.297 4.917-1.122l1.221 3.267zm-4.752-9.174c-.033-2.772-1.122-3.498-2.475-3.498-1.419 0-2.574.792-2.772 3.498h5.247zm24.834 8.679l-.165-.033c-1.254 1.221-2.904 2.211-5.544 2.211-4.158 0-4.818-2.838-4.818-4.884 0-3.3 2.013-4.785 6.171-5.082l3.795-.264v-1.815c0-1.551-.165-2.607-2.211-2.607-1.584 0-2.409.231-2.409 2.211l-4.653-.396c0-4.455 4.059-5.082 7.095-5.082 5.016 0 7.029 1.353 7.029 5.973v8.019c0 .528.033.594.528.66l1.584.264V25h-6.072l-.33-1.782zm-2.805-5.148c-1.947.132-2.64.627-2.64 1.947s.792 1.815 1.881 1.815c1.122 0 2.244-.627 3.003-1.188v-2.739l-2.244.165zm-162 24.127c0 1.881-1.09 2.97-3.004 2.97-1.88 0-2.97-1.089-2.97-2.97 0-1.881 1.09-2.904 2.97-2.904 1.914 0 3.003 1.023 3.003 2.904zM.338 62.393l1.682-.231c.462-.066.528-.165.528-.66V51.8c0-.363-.099-.594-.429-.693L.338 50.48l.363-2.673h6.831v13.695c0 .528.033.594.528.66l1.683.231V65H.338v-2.607zm23.214.759l-.231-.033c-1.386 1.353-3.003 2.277-5.412 2.277-3.894 0-6.402-2.475-6.402-8.778 0-6.633 3.333-9.141 6.996-9.141 1.914 0 3.399.66 4.653 1.584v-5.016c0-.33-.132-.561-.43-.66l-1.814-.627.363-2.673h6.633v21.45c0 .495.033.561.528.627l1.584.231V65h-6.138l-.33-1.848zm-.594-10.857c-.825-.561-1.881-.99-2.838-.99-2.442 0-3.4 2.277-3.4 5.214 0 3.201.925 4.983 3.004 4.983 1.122 0 2.343-.66 3.234-1.419v-7.788zm23.843 11.418c-2.046.99-4.29 1.683-6.765 1.683-6.37 0-8.547-3.96-8.547-9.108 0-5.973 3.663-8.811 8.184-8.811 4.356 0 7.26 2.277 7.26 7.986 0 .396-.033 1.551-.066 2.211H36.77c.165 2.343 1.188 3.894 3.894 3.894 1.287 0 2.673-.297 4.917-1.122l1.22 3.267zm-4.752-9.174c-.033-2.772-1.122-3.498-2.475-3.498-1.42 0-2.574.792-2.772 3.498h5.247zm19.252-.198c0-1.584-.1-2.904-1.75-2.904-1.22 0-2.738.693-3.431 1.221v8.844c0 .528.033.594.528.66l1.584.231V65h-9.108v-2.64l1.485-.198c.462-.066.528-.165.528-.66V51.8c0-.363-.1-.594-.43-.693l-1.781-.627.396-2.673h5.775l.264 1.716.132.066c1.65-1.221 3.564-2.112 5.808-2.112 3.597 0 4.983 1.98 4.983 5.61v8.415c0 .528.033.594.528.66l1.65.231V65h-7.161V54.341zm21.355 9.735c-1.418.693-3.498 1.32-5.379 1.32-3.927 0-5.412-1.584-5.412-5.313v-8.646c0-.198 0-.33-.263-.33h-2.31V48.17c2.903-.33 4.058-1.782 4.421-5.379h3.136v4.686c0 .231 0 .33.264.33h4.652v3.3H76.85v7.887c0 1.947.462 2.706 2.244 2.706.924 0 1.88-.231 2.672-.528l.891 2.904zm8.995-21.879c0 1.881-1.09 2.97-3.004 2.97-1.88 0-2.97-1.089-2.97-2.97 0-1.881 1.09-2.904 2.97-2.904 1.915 0 3.004 1.023 3.004 2.904zm-7.26 20.196l1.683-.231c.462-.066.528-.165.528-.66V51.8c0-.363-.1-.594-.43-.693l-1.782-.627.363-2.673h6.831v13.695c0 .528.034.594.529.66l1.682.231V65h-9.405v-2.607zm23.938-10.89c0-.264-.066-.396-.33-.396h-5.247V61.37c0 .594.099.627.594.693l2.31.33V65H95.394v-2.607l1.782-.231c.56-.066.594-.165.594-.792v-9.933c0-.198 0-.33-.264-.33h-2.211v-3.3h2.475v-1.65c0-4.884 2.838-6.468 8.217-6.468 4.092 0 6.93.693 6.996 5.214l-4.686.561c0-2.046-.462-2.541-2.574-2.541-2.211 0-2.97.66-2.97 2.541v2.013c0 .264.033.33.363.33h10.197v13.695c0 .528.033.594.528.66l1.683.231V65h-7.194V51.503zm23.708 12.276c-1.518.924-3.861 1.617-6.27 1.617-5.973 0-8.646-3.729-8.646-8.745 0-6.171 3.762-9.174 9.042-9.174 2.574 0 4.851.726 5.874 1.386v5.181l-3.531-.165-.396-2.178c-.033-.231-.099-.429-.396-.528-.396-.132-1.023-.231-1.683-.231-1.98 0-3.663 1.353-3.663 5.214 0 4.29 1.914 5.511 4.257 5.511 1.65 0 3.135-.528 4.125-.957l1.287 3.069zm12.51-.561l-.165-.033c-1.254 1.221-2.904 2.211-5.544 2.211-4.158 0-4.818-2.838-4.818-4.884 0-3.3 2.013-4.785 6.171-5.082l3.795-.264v-1.815c0-1.551-.165-2.607-2.211-2.607-1.584 0-2.409.231-2.409 2.211l-4.653-.396c0-4.455 4.059-5.082 7.095-5.082 5.016 0 7.029 1.353 7.029 5.973v8.019c0 .528.033.594.528.66l1.584.264V65h-6.072l-.33-1.782zm-2.805-5.148c-1.947.132-2.64.627-2.64 1.947s.792 1.815 1.881 1.815c1.122 0 2.244-.627 3.003-1.188v-2.739l-2.244.165zm10.747 4.257l1.485-.198c.462-.066.528-.165.528-.66V51.8c0-.363-.099-.594-.429-.693l-1.782-.627.363-2.673h5.808l.396 2.64h.198c1.089-1.683 2.541-2.97 4.653-2.97.759 0 2.277.132 2.871.297v6.006l-3.96-.132-.33-1.749c-.066-.297-.165-.363-.429-.363-.858 0-1.881.726-2.376 1.155v8.745c0 .528.033.627.528.66l3.267.264V65H152.49v-2.673zm25.7 6.996l2.574-.297c.429-.033.627-.264.825-.726l1.419-3.135-6.303-13.794c-.198-.396-.297-.462-.693-.561l-1.353-.33.528-2.673h8.745v2.673l-2.079.264 3.663 8.712h.231l3.498-8.712-2.145-.264.429-2.673h7.359v2.673l-1.056.198c-.396.066-.66.165-.825.561l-7.26 17.754 3.432.363v2.64H178.19v-2.673zM8.178 102.327l1.485-.198c.462-.066.528-.165.528-.66V91.8c0-.363-.1-.594-.43-.693L7.98 90.48l.363-2.673h5.808l.396 2.64h.198c1.089-1.683 2.54-2.97 4.653-2.97.759 0 2.277.132 2.87.297v6.006l-3.96-.132-.33-1.749c-.065-.297-.164-.363-.428-.363-.858 0-1.881.726-2.376 1.155v8.745c0 .528.033.627.528.66l3.267.264V105H8.178v-2.673zm31.111 1.386c-2.046.99-4.29 1.683-6.765 1.683-6.369 0-8.547-3.96-8.547-9.108 0-5.973 3.663-8.811 8.184-8.811 4.356 0 7.26 2.277 7.26 7.986 0 .396-.033 1.551-.066 2.211H29.257c.165 2.343 1.188 3.894 3.894 3.894 1.287 0 2.673-.297 4.917-1.122l1.221 3.267zm-4.752-9.174c-.033-2.772-1.122-3.498-2.475-3.498-1.419 0-2.574.792-2.772 3.498h5.247zm6.946 14.817l1.32-.198c.462-.066.594-.198.594-.693V91.8c0-.363-.066-.561-.43-.693l-1.748-.627.362-2.673h5.808l.297 1.683.166.066c1.584-1.287 3.729-2.079 5.61-2.079 3.695 0 6.335 2.31 6.335 8.448 0 3.96-1.352 9.471-6.797 9.471-1.717 0-3.267-.561-4.654-1.65v4.686c0 .528.034.627.529.66l3.365.297v2.607H41.483v-2.64zm6.864-9.075c.725.627 1.88 1.254 3.102 1.254 2.21 0 3.135-2.112 3.135-5.346 0-3.399-1.156-4.785-2.806-4.785-1.386 0-2.706.693-3.431 1.188v7.689zm22.154 5.115c-6.039 0-8.48-3.696-8.48-8.877 0-5.478 2.87-9.042 8.91-9.042 6.104 0 8.48 3.63 8.48 8.679 0 5.61-2.838 9.24-8.91 9.24zm.231-3.465c2.145 0 3.465-1.485 3.465-5.61 0-3.894-1.188-5.28-3.333-5.28-2.178 0-3.63 1.353-3.63 5.313 0 3.993 1.287 5.577 3.498 5.577zm10.663.396l1.485-.198c.462-.066.528-.165.528-.66V91.8c0-.363-.099-.594-.429-.693l-1.782-.627.363-2.673h5.808l.396 2.64h.198c1.09-1.683 2.541-2.97 4.653-2.97.76 0 2.277.132 2.871.297v6.006l-3.96-.132-.33-1.749c-.066-.297-.165-.363-.429-.363-.858 0-1.88.726-2.376 1.155v8.745c0 .528.033.627.528.66l3.267.264V105h-10.79v-2.673zm28.957 1.749c-1.419.693-3.498 1.32-5.379 1.32-3.927 0-5.412-1.584-5.412-5.313v-8.646c0-.198 0-.33-.264-.33h-2.31V88.17c2.904-.33 4.059-1.782 4.422-5.379h3.135v4.686c0 .231 0 .33.264.33h4.653v3.3h-4.917v7.887c0 1.947.462 2.706 2.244 2.706.924 0 1.881-.231 2.673-.528l.891 2.904zm12.206-.858l-.165-.033c-1.254 1.221-2.904 2.211-5.544 2.211-4.158 0-4.818-2.838-4.818-4.884 0-3.3 2.013-4.785 6.171-5.082l3.795-.264v-1.815c0-1.551-.165-2.607-2.211-2.607-1.584 0-2.409.231-2.409 2.211l-4.653-.396c0-4.455 4.059-5.082 7.095-5.082 5.016 0 7.029 1.353 7.029 5.973v8.019c0 .528.033.594.528.66l1.584.264V105h-6.072l-.33-1.782zm-2.805-5.148c-1.947.132-2.64.627-2.64 1.947s.792 1.815 1.881 1.815c1.122 0 2.244-.627 3.003-1.188v-2.739l-2.244.165zm10.746 4.257l1.485-.198c.462-.066.528-.165.528-.66V91.8c0-.363-.099-.594-.429-.693l-1.782-.627.363-2.673h5.808l.396 2.64h.198c1.089-1.683 2.541-2.97 4.653-2.97.759 0 2.277.132 2.871.297v6.006l-3.96-.132-.33-1.749c-.066-.297-.165-.363-.429-.363-.858 0-1.881.726-2.376 1.155v8.745c0 .528.033.627.528.66l3.267.264V105h-10.791v-2.673zm38.274 1.386c-2.046.99-4.29 1.683-6.765 1.683-6.369 0-8.547-3.96-8.547-9.108 0-5.973 3.663-8.811 8.184-8.811 4.356 0 7.26 2.277 7.26 7.986 0 .396-.033 1.551-.066 2.211h-10.098c.165 2.343 1.188 3.894 3.894 3.894 1.287 0 2.673-.297 4.917-1.122l1.221 3.267zm-4.752-9.174c-.033-2.772-1.122-3.498-2.475-3.498-1.419 0-2.574.792-2.772 3.498h5.247zm6.91 7.854l1.65-.231c.462-.066.528-.165.528-.66V84.078c0-.363-.099-.594-.429-.693l-1.815-.627.363-2.673h6.864v21.417c0 .528.033.594.528.66l1.617.231V105h-9.306v-2.607zM40.715 142.36l1.847-.198c.463-.066.529-.198.529-.693v-10.032c0-.198 0-.33-.264-.33h-2.212v-3.3h2.475v-1.815c0-4.455 2.508-6.303 7.063-6.303 3.069 0 5.907.759 5.907 4.752l-4.62.561c.032-1.683-.43-2.079-1.518-2.079-1.65 0-1.848.891-1.848 2.475v2.079c0 .231 0 .33.264.33h5.213v3.3h-5.477v10.263c0 .528.099.627.593.66l4.026.363V145H40.715v-2.64zm14.702-.033l1.485-.198c.462-.066.528-.165.528-.66V131.8c0-.363-.1-.594-.43-.693l-1.781-.627.363-2.673h5.808l.396 2.64h.198c1.089-1.683 2.54-2.97 4.653-2.97.759 0 2.277.132 2.87.297v6.006l-3.96-.132-.33-1.749c-.065-.297-.164-.363-.428-.363-.858 0-1.881.726-2.376 1.155v8.745c0 .528.033.627.528.66l3.267.264V145H55.417v-2.673zm25.847.891l-.164-.033c-1.254 1.221-2.904 2.211-5.544 2.211-4.159 0-4.819-2.838-4.819-4.884 0-3.3 2.014-4.785 6.172-5.082l3.794-.264v-1.815c0-1.551-.165-2.607-2.21-2.607-1.584 0-2.41.231-2.41 2.211l-4.653-.396c0-4.455 4.06-5.082 7.095-5.082 5.016 0 7.03 1.353 7.03 5.973v8.019c0 .528.032.594.527.66l1.585.264V145h-6.073l-.33-1.782zm-2.804-5.148c-1.947.132-2.64.627-2.64 1.947s.792 1.815 1.88 1.815c1.123 0 2.245-.627 3.004-1.188v-2.739l-2.244.165zm22.904 5.148l-.165-.033c-1.353 1.023-3.07 2.211-5.874 2.211-3.465 0-4.785-1.98-4.785-5.808v-8.052c0-.528-.033-.594-.528-.693l-1.584-.33.33-2.706h6.765v10.923c0 2.013.33 2.772 1.749 2.772 1.452 0 2.64-.825 3.399-1.518v-8.481c0-.528-.033-.561-.528-.66l-1.42-.33.364-2.706h6.567v13.695c0 .429.066.561.462.627l1.65.231V145h-6.138l-.264-1.782zm20.301-.066l-.231-.033c-1.386 1.353-3.003 2.277-5.412 2.277-3.894 0-6.402-2.475-6.402-8.778 0-6.633 3.333-9.141 6.996-9.141 1.914 0 3.399.66 4.653 1.584v-5.016c0-.33-.132-.561-.429-.66l-1.815-.627.363-2.673h6.633v21.45c0 .495.033.561.528.627l1.584.231V145h-6.138l-.33-1.848zm-.594-10.857c-.825-.561-1.881-.99-2.838-.99-2.442 0-3.399 2.277-3.399 5.214 0 3.201.924 4.983 3.003 4.983 1.122 0 2.343-.66 3.234-1.419v-7.788zm23.843 11.418c-2.046.99-4.29 1.683-6.765 1.683-6.369 0-8.547-3.96-8.547-9.108 0-5.973 3.663-8.811 8.184-8.811 4.356 0 7.26 2.277 7.26 7.986 0 .396-.033 1.551-.066 2.211h-10.098c.165 2.343 1.188 3.894 3.894 3.894 1.287 0 2.673-.297 4.917-1.122l1.221 3.267zm-4.752-9.174c-.033-2.772-1.122-3.498-2.475-3.498-1.419 0-2.574.792-2.772 3.498h5.247zm13.349 8.283c0 1.683-.924 2.574-2.805 2.574-1.914 0-2.838-.858-2.838-2.574 0-1.683.924-2.574 2.838-2.574 1.848 0 2.805.891 2.805 2.574z" fill="#fff"/></svg>