<svg width="262" height="67" viewBox="0 0 262 67" fill="none" xmlns="http://www.w3.org/2000/svg"><path d="M15.411 23.426l2.079-.231c.462-.066.528-.165.528-.66v-6.963H8.976v6.93c0 .528.033.594.528.66l2.211.264V26H1.254v-2.574l2.079-.231c.462-.066.528-.165.528-.66V5.639c0-.495-.033-.594-.528-.66l-2.079-.231v-2.64h10.461v2.64l-2.211.264c-.495.066-.528.132-.528.627v6.237h9.042V5.639c0-.495-.033-.594-.528-.66l-2.079-.231v-2.64h10.428v2.64l-2.211.264c-.495.066-.528.132-.528.627v16.863c0 .528.033.594.528.66l2.211.264V26H15.411v-2.574zm23.54.792l-.164-.033c-1.254 1.221-2.904 2.211-5.544 2.211-4.158 0-4.818-2.838-4.818-4.884 0-3.3 2.013-4.785 6.17-5.082l3.796-.264v-1.815c0-1.551-.165-2.607-2.211-2.607-1.584 0-2.41.231-2.41 2.211l-4.652-.396c0-4.455 4.059-5.082 7.095-5.082 5.016 0 7.029 1.353 7.029 5.973v8.019c0 .528.033.594.528.66l1.584.264V26h-6.072l-.33-1.782zm-2.804-5.148c-1.947.132-2.64.627-2.64 1.947s.792 1.815 1.88 1.815c1.123 0 2.245-.627 3.004-1.188v-2.739l-2.244.165zm11.043 4.158l8.844-11.319h-4.62c-.297 0-.33.198-.363.429l-.396 1.848-3.498.198V8.807h14.487v2.838l-8.679 11.286h4.851c.297 0 .33-.198.363-.429l.396-2.277 3.597-.165V26H47.19v-2.772zm39.427 1.485c-2.046.99-4.29 1.683-6.765 1.683-6.37 0-8.547-3.96-8.547-9.108 0-5.973 3.663-8.811 8.184-8.811 4.356 0 7.26 2.277 7.26 7.986 0 .396-.033 1.551-.066 2.211H76.585c.165 2.343 1.188 3.894 3.894 3.894 1.287 0 2.673-.297 4.917-1.122l1.22 3.267zm-4.752-9.174c-.033-2.772-1.122-3.498-2.475-3.498-1.42 0-2.574.792-2.772 3.498h5.247zm15.294 14.817l2.838-.231c.528-.033.66-.165.66-.594v-4.818l-.165-.066c-1.155.99-2.739 1.749-4.785 1.749-3.894 0-6.567-2.475-6.567-8.646 0-6.765 3.465-9.273 7.062-9.273 1.98 0 3.531.792 4.785 1.881l.495-1.551h4.323a50.368 50.368 0 00-.264 5.346v15.378c0 .495.033.561.528.627l1.551.231v2.607H97.159v-2.64zm3.399-16.995c-.825-.561-1.881-1.056-2.904-1.056-2.376 0-3.333 2.277-3.333 5.214 0 3.201.891 4.983 3.102 4.983 1.122 0 2.244-.594 3.135-1.353v-7.788zm21.011 10.857l-.165-.033c-1.353 1.023-3.069 2.211-5.874 2.211-3.465 0-4.785-1.98-4.785-5.808v-8.052c0-.528-.033-.594-.528-.693l-1.584-.33.33-2.706h6.765V19.73c0 2.013.33 2.772 1.749 2.772 1.452 0 2.64-.825 3.399-1.518v-8.481c0-.528-.033-.561-.528-.66l-1.419-.33.363-2.706h6.567v13.695c0 .429.066.561.462.627l1.65.231V26h-6.138l-.264-1.782zm15.215-21.021c0 1.881-1.089 2.97-3.003 2.97-1.881 0-2.97-1.089-2.97-2.97 0-1.881 1.089-2.904 2.97-2.904 1.914 0 3.003 1.023 3.003 2.904zm-7.26 20.196l1.683-.231c.462-.066.528-.165.528-.66V12.8c0-.363-.099-.594-.429-.693l-1.782-.627.363-2.673h6.831v13.695c0 .528.033.594.528.66l1.683.231V26h-9.405v-2.607zm10.936 6.963l1.32-.198c.462-.066.594-.198.594-.693V12.8c0-.363-.066-.561-.429-.693l-1.749-.627.363-2.673h5.808l.297 1.683.165.066c1.584-1.287 3.729-2.079 5.61-2.079 3.696 0 6.336 2.31 6.336 8.448 0 3.96-1.353 9.471-6.798 9.471-1.716 0-3.267-.561-4.653-1.65v4.686c0 .528.033.627.528.66l3.366.297v2.607H140.46v-2.64zm6.864-9.075c.726.627 1.881 1.254 3.102 1.254 2.211 0 3.135-2.112 3.135-5.346 0-3.399-1.155-4.785-2.805-4.785-1.386 0-2.706.693-3.432 1.188v7.689zm22.155 5.115c-6.039 0-8.481-3.696-8.481-8.877 0-5.478 2.871-9.042 8.91-9.042 6.105 0 8.481 3.63 8.481 8.679 0 5.61-2.838 9.24-8.91 9.24zm.231-3.465c2.145 0 3.465-1.485 3.465-5.61 0-3.894-1.188-5.28-3.333-5.28-2.178 0-3.63 1.353-3.63 5.313 0 3.993 1.287 5.577 3.498 5.577zM15.807 64.779c-1.518.924-3.861 1.617-6.27 1.617-5.973 0-8.646-3.729-8.646-8.745 0-6.171 3.762-9.174 9.042-9.174 2.574 0 4.851.726 5.874 1.386v5.181l-3.531-.165-.396-2.178c-.033-.231-.099-.429-.396-.528-.396-.132-1.023-.231-1.683-.231-1.98 0-3.663 1.353-3.663 5.214 0 4.29 1.914 5.511 4.257 5.511 1.65 0 3.135-.528 4.125-.957l1.287 3.069zm10.298 1.617c-6.039 0-8.48-3.696-8.48-8.877 0-5.478 2.87-9.042 8.91-9.042 6.104 0 8.48 3.63 8.48 8.679 0 5.61-2.838 9.24-8.91 9.24zm.231-3.465c2.145 0 3.465-1.485 3.465-5.61 0-3.894-1.188-5.28-3.333-5.28-2.178 0-3.63 1.353-3.63 5.313 0 3.993 1.287 5.577 3.498 5.577zm22.84-7.59c0-1.584-.099-2.904-1.749-2.904-1.22 0-2.739.693-3.432 1.221v8.844c0 .528.033.594.528.66l1.584.231V66H37v-2.64l1.485-.198c.462-.066.528-.165.528-.66V52.8c0-.363-.099-.594-.429-.693l-1.782-.627.396-2.673h5.775l.264 1.716.132.066c1.65-1.221 3.564-2.112 5.808-2.112 3.597 0 4.983 1.98 4.983 5.61v8.415c0 .528.033.594.528.66l1.65.231V66h-7.16V55.341zm21.356 9.735c-1.419.693-3.498 1.32-5.379 1.32-3.927 0-5.412-1.584-5.412-5.313v-8.646c0-.198 0-.33-.264-.33h-2.31V49.17c2.904-.33 4.06-1.782 4.422-5.379h3.135v4.686c0 .231 0 .33.264.33h4.653v3.3h-4.917v7.887c0 1.947.462 2.706 2.244 2.706.924 0 1.881-.231 2.673-.528l.891 2.904zm1.932-1.749l1.485-.198c.462-.066.528-.165.528-.66V52.8c0-.363-.099-.594-.429-.693l-1.782-.627.363-2.673h5.808l.396 2.64h.198c1.09-1.683 2.541-2.97 4.653-2.97.76 0 2.277.132 2.871.297v6.006l-3.96-.132-.33-1.749c-.066-.297-.165-.363-.429-.363-.858 0-1.88.726-2.376 1.155v8.745c0 .528.033.627.528.66l3.267.264V66h-10.79v-2.673zm25.848.891l-.165-.033c-1.254 1.221-2.904 2.211-5.544 2.211-4.158 0-4.818-2.838-4.818-4.884 0-3.3 2.013-4.785 6.17-5.082l3.796-.264v-1.815c0-1.551-.165-2.607-2.211-2.607-1.584 0-2.41.231-2.41 2.211l-4.652-.396c0-4.455 4.059-5.082 7.095-5.082 5.016 0 7.029 1.353 7.029 5.973v8.019c0 .528.033.594.528.66l1.584.264V66h-6.072l-.33-1.782zm-2.805-5.148c-1.947.132-2.64.627-2.64 1.947s.792 1.815 1.88 1.815c1.123 0 2.245-.627 3.004-1.188v-2.739l-2.244.165zm33.092 5.643c-2.046.99-4.29 1.683-6.765 1.683-6.369 0-8.547-3.96-8.547-9.108 0-5.973 3.663-8.811 8.184-8.811 4.356 0 7.26 2.277 7.26 7.986 0 .396-.033 1.551-.066 2.211h-10.098c.165 2.343 1.188 3.894 3.894 3.894 1.287 0 2.673-.297 4.917-1.122l1.221 3.267zm-4.752-9.174c-.033-2.772-1.122-3.498-2.475-3.498-1.419 0-2.574.792-2.772 3.498h5.247zm6.91 7.854l1.65-.231c.462-.066.528-.165.528-.66V45.078c0-.363-.099-.594-.429-.693l-1.815-.627.363-2.673h6.864v21.417c0 .528.033.594.528.66l1.617.231V66h-9.306v-2.607zm17.97-.033l1.848-.198c.462-.066.528-.198.528-.693V52.437c0-.198 0-.33-.264-.33h-2.211v-3.3h2.475v-1.815c0-4.455 2.508-6.303 7.062-6.303 3.069 0 5.907.759 5.907 4.752l-4.62.561c.033-1.683-.429-2.079-1.518-2.079-1.65 0-1.848.891-1.848 2.475v2.079c0 .231 0 .33.264.33h5.214v3.3h-5.478V62.37c0 .528.099.627.594.66l4.026.363V66h-11.979v-2.64zm14.702-.033l1.485-.198c.462-.066.528-.165.528-.66V52.8c0-.363-.099-.594-.429-.693l-1.782-.627.363-2.673h5.808l.396 2.64h.198c1.089-1.683 2.541-2.97 4.653-2.97.759 0 2.277.132 2.871.297v6.006l-3.96-.132-.33-1.749c-.066-.297-.165-.363-.429-.363-.858 0-1.881.726-2.376 1.155v8.745c0 .528.033.627.528.66l3.267.264V66h-10.791v-2.673zm25.848.891l-.165-.033c-1.254 1.221-2.904 2.211-5.544 2.211-4.158 0-4.818-2.838-4.818-4.884 0-3.3 2.013-4.785 6.171-5.082l3.795-.264v-1.815c0-1.551-.165-2.607-2.211-2.607-1.584 0-2.409.231-2.409 2.211l-4.653-.396c0-4.455 4.059-5.082 7.095-5.082 5.016 0 7.029 1.353 7.029 5.973v8.019c0 .528.033.594.528.66l1.584.264V66h-6.072l-.33-1.782zm-2.805-5.148c-1.947.132-2.64.627-2.64 1.947s.792 1.815 1.881 1.815c1.122 0 2.244-.627 3.003-1.188v-2.739l-2.244.165zm22.904 5.148l-.165-.033c-1.353 1.023-3.069 2.211-5.874 2.211-3.465 0-4.785-1.98-4.785-5.808v-8.052c0-.528-.033-.594-.528-.693l-1.584-.33.33-2.706h6.765V59.73c0 2.013.33 2.772 1.749 2.772 1.452 0 2.64-.825 3.399-1.518v-8.481c0-.528-.033-.561-.528-.66l-1.419-.33.363-2.706h6.567v13.695c0 .429.066.561.462.627l1.65.231V66h-6.138l-.264-1.782zm20.301-.066l-.231-.033c-1.386 1.353-3.003 2.277-5.412 2.277-3.894 0-6.402-2.475-6.402-8.778 0-6.633 3.333-9.141 6.996-9.141 1.914 0 3.399.66 4.653 1.584v-5.016c0-.33-.132-.561-.429-.66l-1.815-.627.363-2.673h6.633v21.45c0 .495.033.561.528.627l1.584.231V66h-6.138l-.33-1.848zm-.594-10.857c-.825-.561-1.881-.99-2.838-.99-2.442 0-3.399 2.277-3.399 5.214 0 3.201.924 4.983 3.003 4.983 1.122 0 2.343-.66 3.234-1.419v-7.788zm23.843 11.418c-2.046.99-4.29 1.683-6.765 1.683-6.369 0-8.547-3.96-8.547-9.108 0-5.973 3.663-8.811 8.184-8.811 4.356 0 7.26 2.277 7.26 7.986 0 .396-.033 1.551-.066 2.211h-10.098c.165 2.343 1.188 3.894 3.894 3.894 1.287 0 2.673-.297 4.917-1.122l1.221 3.267zm-4.752-9.174c-.033-2.772-1.122-3.498-2.475-3.498-1.419 0-2.574.792-2.772 3.498h5.247zm13.349 8.283c0 1.683-.924 2.574-2.805 2.574-1.914 0-2.838-.858-2.838-2.574 0-1.683.924-2.574 2.838-2.574 1.848 0 2.805.891 2.805 2.574z" fill="#fff"/></svg>