<svg width="189" height="68" viewBox="0 0 189 68" fill="none" xmlns="http://www.w3.org/2000/svg"><path d="M7.956 17.624c0 1.836-1.008 2.808-3.06 2.808-2.088 0-3.096-.936-3.096-2.808 0-1.836 1.008-2.808 3.096-2.808 2.016 0 3.06.972 3.06 2.808zm10.133 0c0 1.836-1.008 2.808-3.06 2.808-2.088 0-3.096-.936-3.096-2.808 0-1.836 1.008-2.808 3.096-2.808 2.016 0 3.06.972 3.06 2.808zm10.134 0c0 1.836-1.008 2.808-3.06 2.808-2.088 0-3.096-.936-3.096-2.808 0-1.836 1.008-2.808 3.096-2.808 2.016 0 3.06.972 3.06 2.808zM44.62 8.372c0-1.728-.108-3.168-1.908-3.168-1.332 0-2.988.756-3.744 1.332v9.648c0 .576.036.648.576.72l1.728.252V20h-9.936v-2.88l1.62-.216c.504-.072.576-.18.576-.72V5.6c0-.396-.108-.648-.468-.756L31.12 4.16l.432-2.916h6.3l.288 1.872.144.072c1.8-1.332 3.888-2.304 6.336-2.304 3.924 0 5.436 2.16 5.436 6.12v9.18c0 .576.036.648.576.72l1.8.252V20H44.62V8.372zm18.83 12.06c-6.589 0-9.253-4.032-9.253-9.684 0-5.976 3.132-9.864 9.72-9.864 6.66 0 9.252 3.96 9.252 9.468 0 6.12-3.096 10.08-9.72 10.08zm.251-3.78c2.34 0 3.78-1.62 3.78-6.12 0-4.248-1.296-5.76-3.636-5.76-2.376 0-3.96 1.476-3.96 5.796 0 4.356 1.404 6.084 3.816 6.084zM.936 57.084l1.62-.216c.504-.072.576-.18.576-.72V45.6c0-.396-.108-.648-.468-.756L.72 44.16l.396-2.916h6.336l.432 2.88H8.1c1.188-1.836 2.772-3.24 5.076-3.24.828 0 2.484.144 3.132.324v6.552l-4.32-.144-.36-1.908c-.072-.324-.18-.396-.468-.396-.936 0-2.052.792-2.592 1.26v9.54c0 .576.036.684.576.72l3.564.288V60H.936v-2.916zm33.94 1.512c-2.232 1.08-4.68 1.836-7.38 1.836-6.948 0-9.324-4.32-9.324-9.936 0-6.516 3.996-9.612 8.928-9.612 4.752 0 7.92 2.484 7.92 8.712 0 .432-.036 1.692-.072 2.412H23.932c.18 2.556 1.296 4.248 4.248 4.248 1.404 0 2.916-.324 5.364-1.224l1.332 3.564zm-5.184-10.008c-.036-3.024-1.224-3.816-2.7-3.816-1.548 0-2.808.864-3.024 3.816h5.724zm18.379-3.564c-.072-.324-.108-.432-.36-.504-.468-.144-1.332-.288-2.304-.288-1.8 0-2.808.684-2.808 1.836 0 1.476 1.98 1.8 4.176 2.304 2.844.648 6.048 1.656 6.048 5.868 0 4.392-3.564 6.192-8.136 6.192-3.276 0-6.48-.864-7.128-1.296v-5.22l3.852.288.36 2.052c.072.324.108.432.432.54.432.144 1.404.36 2.772.36 1.908 0 2.988-.54 2.988-1.872 0-1.44-1.44-1.872-3.276-2.196-3.024-.54-6.984-1.188-6.984-5.904 0-4.464 3.816-6.3 7.956-6.3 2.844 0 5.616.648 6.624 1.044v5.22l-3.852-.252-.36-1.872zm6.995 19.728l1.44-.216c.504-.072.648-.216.648-.756V45.6c0-.396-.072-.612-.468-.756l-1.908-.684.396-2.916h6.336l.324 1.836.18.072c1.728-1.404 4.068-2.268 6.12-2.268 4.032 0 6.912 2.52 6.912 9.216 0 4.32-1.476 10.332-7.416 10.332-1.872 0-3.564-.612-5.076-1.8v5.112c0 .576.036.684.576.72l3.672.324v2.844H55.066v-2.88zm7.488-9.9c.792.684 2.052 1.368 3.384 1.368 2.412 0 3.42-2.304 3.42-5.832 0-3.708-1.26-5.22-3.06-5.22-1.512 0-2.952.756-3.744 1.296v8.388zm24.169 5.58c-6.588 0-9.252-4.032-9.252-9.684 0-5.976 3.132-9.864 9.72-9.864 6.66 0 9.252 3.96 9.252 9.468 0 6.12-3.096 10.08-9.72 10.08zm.252-3.78c2.34 0 3.78-1.62 3.78-6.12 0-4.248-1.296-5.76-3.636-5.76-2.376 0-3.96 1.476-3.96 5.796 0 4.356 1.404 6.084 3.816 6.084zm24.916-8.28c0-1.728-.108-3.168-1.908-3.168-1.332 0-2.988.756-3.744 1.332v9.648c0 .576.036.648.576.72l1.728.252V60h-9.936v-2.88l1.62-.216c.504-.072.576-.18.576-.72V45.6c0-.396-.108-.648-.468-.756l-1.944-.684.432-2.916h6.3l.288 1.872.144.072c1.8-1.332 3.888-2.304 6.336-2.304 3.924 0 5.436 2.16 5.436 6.12v9.18c0 .576.036.648.576.72l1.8.252V60h-7.812V48.372zm23.005 9.612l-.252-.036c-1.512 1.476-3.276 2.484-5.904 2.484-4.248 0-6.984-2.7-6.984-9.576 0-7.236 3.636-9.972 7.632-9.972 2.088 0 3.708.72 5.076 1.728V37.14c0-.36-.144-.612-.468-.72l-1.98-.684.396-2.916h7.236v23.4c0 .54.036.612.576.684l1.728.252V60h-6.696l-.36-2.016zm-.648-11.844c-.9-.612-2.052-1.08-3.096-1.08-2.664 0-3.708 2.484-3.708 5.688 0 3.492 1.008 5.436 3.276 5.436 1.224 0 2.556-.72 3.528-1.548V46.14zm21.288 11.916l-.18-.036c-1.368 1.332-3.168 2.412-6.048 2.412-4.536 0-5.256-3.096-5.256-5.328 0-3.6 2.196-5.22 6.732-5.544l4.14-.288v-1.98c0-1.692-.18-2.844-2.412-2.844-1.728 0-2.628.252-2.628 2.412l-5.076-.432c0-4.86 4.428-5.544 7.74-5.544 5.472 0 7.668 1.476 7.668 6.516v8.748c0 .576.036.648.576.72l1.728.288V60h-6.624l-.36-1.944zm-3.06-5.616c-2.124.144-2.88.684-2.88 2.124s.864 1.98 2.052 1.98c1.224 0 2.448-.684 3.276-1.296V52.26l-2.448.18zm22.384-7.416c-.072-.324-.108-.432-.36-.504-.468-.144-1.332-.288-2.304-.288-1.8 0-2.808.684-2.808 1.836 0 1.476 1.98 1.8 4.176 2.304 2.844.648 6.048 1.656 6.048 5.868 0 4.392-3.564 6.192-8.136 6.192-3.276 0-6.48-.864-7.128-1.296v-5.22l3.852.288.36 2.052c.072.324.108.432.432.54.432.144 1.404.36 2.772.36 1.908 0 2.988-.54 2.988-1.872 0-1.44-1.44-1.872-3.276-2.196-3.024-.54-6.984-1.188-6.984-5.904 0-4.464 3.816-6.3 7.956-6.3 2.844 0 5.616.648 6.624 1.044v5.22l-3.852-.252-.36-1.872zm14.051 12.6c0 1.836-1.008 2.808-3.06 2.808-2.088 0-3.096-.936-3.096-2.808 0-1.836 1.008-2.808 3.096-2.808 2.016 0 3.06.972 3.06 2.808z" fill="#fff"/></svg>