<svg width="258" height="23" viewBox="0 0 258 23" fill="none" xmlns="http://www.w3.org/2000/svg"><path d="M12.984 12.75h-9.98c.144.867.528 1.558 1.153 2.068.626.513 1.425.768 2.396.768 1.161 0 2.16-.4 2.994-1.199l2.617 1.21c-.652.913-1.433 1.586-2.344 2.024-.911.438-1.992.656-3.242.656-1.943 0-3.524-.603-4.745-1.811S0 13.746 0 11.93c0-1.818.61-3.408 1.826-4.638 1.217-1.23 2.744-1.844 4.582-1.844 1.95 0 3.535.616 4.756 1.844 1.221 1.23 1.833 2.853 1.833 4.873l-.011.583-.002.002zM9.878 10.34A3.066 3.066 0 008.663 8.68c-.605-.427-1.304-.64-2.103-.64-.866 0-1.626.24-2.28.717-.41.3-.79.825-1.14 1.582H9.877zM22.67 7.468l-1.923 1.894c-.781-.763-1.491-1.144-2.128-1.144-.348 0-.623.073-.82.218-.198.145-.294.328-.294.543 0 .165.063.317.188.453.125.139.433.328.926.566l1.139.56c1.199.584 2.023 1.178 2.47 1.783.446.605.671 1.315.671 2.13 0 1.084-.404 1.988-1.212 2.712-.808.726-1.891 1.087-3.249 1.087-1.806 0-3.246-.695-4.324-2.086l1.91-2.052c.365.418.791.756 1.28 1.014.49.257.925.387 1.304.387.41 0 .74-.097.99-.29.25-.194.374-.418.374-.674 0-.47-.45-.93-1.353-1.379l-1.047-.515c-2.003-.994-3.003-2.24-3.003-3.733 0-.964.377-1.789 1.132-2.473.755-.684 1.721-1.025 2.896-1.025.804 0 1.56.174 2.27.521.71.348 1.311.847 1.805 1.496l-.003.007zM25.921 14.768c.493 0 .915.169 1.264.51.348.34.522.752.522 1.239 0 .486-.174.902-.522 1.245-.349.343-.77.514-1.264.514a1.74 1.74 0 01-1.264-.514 1.685 1.685 0 01-.522-1.245c0-.487.174-.9.522-1.24a1.74 1.74 0 011.264-.51zM32.71 1.47h3.104l3.883 11.506L43.613 1.47h3.104l2.81 16.496H46.45L44.654 7.549l-3.56 10.417h-2.81L34.76 7.549l-1.837 10.417h-3.11L32.71 1.47zM64.01 12.753h-9.981c.143.869.529 1.557 1.154 2.07.625.51 1.425.768 2.398.768 1.161 0 2.16-.4 2.994-1.201l2.62 1.212c-.653.91-1.434 1.588-2.347 2.026-.911.438-1.992.656-3.245.656-1.942 0-3.523-.603-4.746-1.81-1.222-1.209-1.834-2.72-1.834-4.535s.608-3.408 1.827-4.636c1.219-1.227 2.746-1.843 4.581-1.843 1.95 0 3.535.616 4.756 1.843 1.222 1.232 1.833 2.854 1.833 4.871l-.01.583h-.005l.004-.004zM60.9 10.342a3.076 3.076 0 00-1.214-1.66c-.605-.426-1.304-.64-2.104-.64-.866 0-1.625.24-2.282.718-.41.3-.792.827-1.14 1.582h6.74zM75.385 1.053h3.108v16.91h-3.108v-1.29c-.607.568-1.214.98-1.824 1.228a5.196 5.196 0 01-1.985.376c-1.598 0-2.98-.611-4.148-1.832-1.168-1.221-1.753-2.741-1.753-4.559 0-1.817.563-3.427 1.695-4.633 1.13-1.203 2.498-1.806 4.115-1.806.743 0 1.44.138 2.092.413.652.276 1.252.693 1.806 1.246V1.053h.002zm-3.268 7.223c-.96 0-1.76.332-2.394 1.003-.634.67-.953 1.527-.953 2.574s.323 1.921.969 2.6c.645.68 1.44 1.02 2.386 1.02.947 0 1.787-.333 2.428-1.004.643-.669.962-1.544.962-2.631 0-1.087-.322-1.92-.962-2.58-.644-.656-1.454-.986-2.439-.986v.004h.003zM82.887.74c.543 0 1.012.196 1.4.583.389.39.585.86.585 1.413 0 .552-.194 1.012-.58 1.397a1.898 1.898 0 01-1.382.579 1.939 1.939 0 01-1.414-.59 1.96 1.96 0 01-.585-1.43c0-.561.192-.999.576-1.38.387-.38.851-.572 1.396-.572h.004zm-1.554 5.023h3.108v12.2h-3.108v-12.2zM99.292 8.233l-2.586 1.404c-.484-.502-.966-.847-1.44-1.043-.475-.196-1.031-.293-1.67-.293-1.16 0-2.103.34-2.82 1.023-.716.682-1.076 1.558-1.076 2.625s.344 1.883 1.038 2.543c.69.656 1.599.986 2.724.986 1.389 0 2.472-.469 3.247-1.404l2.447 1.652c-1.329 1.703-3.202 2.555-5.625 2.555-2.179 0-3.882-.636-5.115-1.908-1.232-1.271-1.85-2.759-1.85-4.464a6.23 6.23 0 01.897-3.262c.6-.992 1.438-1.776 2.51-2.345 1.071-.568 2.275-.852 3.6-.852 1.231 0 2.334.242 3.312.724a6.223 6.223 0 012.4 2.06v.004l.007-.005zM110.089 5.762h3.108v12.2h-3.108v-1.29c-.607.568-1.214.98-1.824 1.228a5.194 5.194 0 01-1.985.376c-1.599 0-2.981-.612-4.148-1.833-1.168-1.22-1.753-2.74-1.753-4.558 0-1.817.563-3.428 1.695-4.633 1.129-1.204 2.498-1.807 4.115-1.807.743 0 1.44.139 2.092.414.652.275 1.252.693 1.806 1.245V5.758v.004h.002zm-3.269 2.513c-.96 0-1.759.332-2.393 1.003-.634.669-.953 1.527-.953 2.574s.323 1.92.969 2.6c.645.68 1.44 1.019 2.386 1.019.947 0 1.787-.332 2.427-1.003.643-.67.963-1.545.963-2.632 0-1.086-.322-1.92-.963-2.58-.643-.656-1.453-.986-2.438-.986v.005h.002zM115.834 5.763h2.663V7.3c.286-.605.672-1.067 1.15-1.379.478-.312 1-.47 1.57-.47.402 0 .824.103 1.264.312l-.967 2.633c-.366-.178-.663-.268-.898-.268-.478 0-.882.292-1.212.875-.331.583-.496 1.727-.496 3.432l.011.596v4.935h-3.083V5.763h-.005.003zM135.779 12.753h-9.98c.143.869.529 1.557 1.154 2.07.625.51 1.425.768 2.398.768 1.161 0 2.159-.4 2.994-1.201l2.619 1.212c-.652.91-1.433 1.588-2.346 2.026-.911.438-1.992.656-3.245.656-1.942 0-3.523-.603-4.746-1.81-1.222-1.209-1.834-2.72-1.834-4.535s.608-3.408 1.827-4.636c1.219-1.227 2.746-1.843 4.582-1.843 1.949 0 3.534.616 4.755 1.843 1.222 1.232 1.833 2.854 1.833 4.871l-.011.583h-.004l.004-.004zm-3.108-2.411a3.078 3.078 0 00-1.214-1.66c-.603-.424-1.304-.64-2.104-.64-.866 0-1.625.24-2.282.718-.41.3-.792.827-1.14 1.582h6.74zM138.981 14.77c.492 0 .916.171 1.264.51.348.339.523.755.523 1.239 0 .484-.175.902-.523 1.245a1.738 1.738 0 01-1.264.515c-.491 0-.915-.172-1.263-.515a1.68 1.68 0 01-.523-1.245c0-.489.174-.898.523-1.239.348-.339.772-.51 1.263-.51zM152.162 5.763h3.097v10.45c0 2.061-.42 3.58-1.264 4.552-1.13 1.315-2.833 1.975-5.111 1.975-1.215 0-2.233-.147-3.063-.446-.826-.3-1.528-.737-2.092-1.318-.57-.579-.99-1.285-1.264-2.112h3.425c.304.343.692.603 1.172.78.478.177 1.045.263 1.697.263.833 0 1.505-.128 2.014-.38.509-.256.866-.584 1.076-.986.208-.405.315-1.1.315-2.086-.547.539-1.121.926-1.717 1.162-.601.235-1.277.354-2.038.354-1.664 0-3.066-.59-4.212-1.773-1.143-1.182-1.717-2.676-1.717-4.486 0-1.934.608-3.492 1.82-4.667 1.099-1.06 2.414-1.59 3.937-1.59.714 0 1.386.127 2.02.387.634.26 1.271.682 1.905 1.272V5.763zm-3.22 2.547c-.98 0-1.786.324-2.425.968-.638.647-.955 1.461-.955 2.44 0 .98.328 1.85.98 2.5.652.649 1.471.974 2.458.974.987 0 1.76-.317 2.383-.953.625-.635.94-1.47.94-2.499 0-1.03-.315-1.843-.947-2.48-.628-.635-1.44-.952-2.434-.952v.002zM164.023 5.45c1.167 0 2.266.291 3.295.865 1.027.577 1.831 1.355 2.407 2.345a6.23 6.23 0 01.864 3.197c0 1.144-.29 2.226-.871 3.23a6.205 6.205 0 01-2.373 2.347c-1 .565-2.108.847-3.311.847-1.775 0-3.291-.623-4.548-1.868-1.258-1.245-1.885-2.754-1.885-4.534 0-1.907.71-3.496 2.128-4.767 1.244-1.107 2.673-1.66 4.291-1.66l.005-.004-.002.003zm.051 2.885c-.967 0-1.768.33-2.411.992-.644.662-.963 1.507-.963 2.541s.317 1.92.954 2.58c.634.66 1.437.986 2.411.986.973 0 1.782-.332 2.427-.999.645-.666.969-1.52.969-2.567 0-1.047-.317-1.899-.953-2.55-.634-.653-1.445-.983-2.434-.983zM170.901 5.763h3.166l3.128 7.201 3.121-7.2h3.149l-5.27 12.198h-2.014l-5.283-12.199h.005-.002zM183.961 20.918L191.519.896h2.235l-7.571 20.022h-2.222zM196.996 1.37h9.271v3.08h-6.089v3.012h3.956v3.034h-3.956v7.467h-3.182V1.368v.003zM207.901 5.69h2.679v1.544c.29-.609.677-1.071 1.157-1.388a2.809 2.809 0 011.581-.473c.404 0 .828.106 1.27.317l-.973 2.651c-.367-.18-.668-.27-.905-.27-.48 0-.886.292-1.219.88-.333.587-.498 1.737-.498 3.451l.011.599v4.963h-3.101V5.69h-.002zM225.325 5.69h3.126v12.274h-3.126v-1.298c-.609.572-1.221.983-1.835 1.234a5.186 5.186 0 01-1.996.378c-1.608 0-3.001-.613-4.173-1.843-1.175-1.23-1.762-2.759-1.762-4.585s.567-3.447 1.704-4.66c1.136-1.21 2.516-1.817 4.139-1.817.748 0 1.449.139 2.104.418.656.28 1.261.695 1.817 1.252V5.69h.002zm-3.284 2.528c-.967 0-1.769.336-2.407 1.01-.639.673-.958 1.535-.958 2.589s.326 1.934.976 2.618c.649.684 1.451 1.027 2.402 1.027.951 0 1.795-.336 2.443-1.01.647-.673.969-1.555.969-2.644 0-1.089-.324-1.931-.969-2.594-.648-.662-1.465-.992-2.454-.992l-.002-.004zM231.599 5.689h3.16V11.6c0 1.15.08 1.95.241 2.398.16.447.419.797.774 1.043.355.246.793.372 1.316.372.522 0 .962-.123 1.326-.367.364-.245.634-.603.808-1.079.13-.354.194-1.108.194-2.268V5.687h3.126v5.2c0 2.143-.172 3.61-.516 4.4-.419.964-1.038 1.701-1.855 2.218-.817.515-1.855.772-3.115.772-1.366 0-2.471-.301-3.313-.902-.844-.6-1.436-1.44-1.78-2.514-.243-.744-.366-2.1-.366-4.062V5.69zM254.874.952H258v17.01h-3.126v-1.297c-.609.572-1.221.983-1.835 1.234a5.186 5.186 0 01-1.996.378c-1.608 0-3.001-.613-4.173-1.843-1.175-1.23-1.762-2.759-1.762-4.585s.567-3.447 1.704-4.66c1.136-1.21 2.516-1.817 4.139-1.817.748 0 1.449.139 2.104.418.656.28 1.261.695 1.817 1.252V.95l.002.002zm-3.284 7.265c-.967 0-1.768.336-2.407 1.01-.639.673-.958 1.535-.958 2.59 0 1.053.326 1.933.976 2.617.65.684 1.451 1.027 2.402 1.027.951 0 1.795-.336 2.443-1.01.647-.673.969-1.555.969-2.644 0-1.089-.324-1.931-.969-2.594-.648-.662-1.465-.992-2.454-.992l-.002-.004z" fill="#fff"/></svg>