<svg width="377" height="33" viewBox="0 0 377 33" fill="none" xmlns="http://www.w3.org/2000/svg"><path d="M18.972 18.016H4.388c.212 1.3.773 2.336 1.687 3.102.914.769 2.082 1.151 3.5 1.151 1.697 0 3.156-.6 4.376-1.798l3.824 1.815c-.953 1.37-2.095 2.38-3.426 3.036-1.331.657-2.91.983-4.737.983-2.839 0-5.149-.904-6.933-2.716C.894 21.778 0 19.511 0 16.785s.89-5.112 2.669-6.957c1.778-1.844 4.01-2.765 6.695-2.765 2.848 0 5.164.924 6.95 2.765 1.784 1.845 2.678 4.28 2.678 7.31l-.017.874-.003.004zm-4.538-3.617a4.593 4.593 0 00-1.775-2.488c-.884-.64-1.905-.96-3.073-.96-1.266 0-2.376.36-3.332 1.075-.6.449-1.155 1.238-1.667 2.373h9.847zM33.126 10.091l-2.81 2.842c-1.141-1.145-2.179-1.716-3.108-1.716-.51 0-.91.109-1.198.326-.29.218-.43.492-.43.816a1 1 0 00.274.68c.182.207.633.491 1.354.847l1.664.842c1.752.874 2.955 1.765 3.608 2.673.653.907.982 1.973.982 3.194 0 1.627-.59 2.983-1.772 4.07-1.18 1.088-2.763 1.63-4.747 1.63-2.64 0-4.744-1.043-6.32-3.129l2.793-3.079a6.466 6.466 0 001.87 1.521c.714.386 1.35.581 1.905.581.6 0 1.08-.145 1.446-.435.365-.29.548-.627.548-1.01 0-.706-.66-1.396-1.977-2.07l-1.53-.771c-2.927-1.492-4.389-3.36-4.389-5.6 0-1.446.551-2.683 1.654-3.71 1.103-1.026 2.516-1.538 4.232-1.538 1.174 0 2.28.261 3.318.783a7.374 7.374 0 012.636 2.244l-.003.01zM37.877 21.04a2.51 2.51 0 011.846.766c.51.511.764 1.128.764 1.858 0 .73-.255 1.353-.764 1.868a2.503 2.503 0 01-1.846.772 2.508 2.508 0 01-1.847-.772 2.56 2.56 0 01-.763-1.868c0-.73.254-1.35.763-1.858a2.51 2.51 0 011.847-.766zM47.798 1.095h4.535l5.673 17.26 5.723-17.26h4.535l4.108 24.744h-4.5L65.25 10.213l-5.2 15.626H55.94l-5.148-15.626-2.685 15.626h-4.545l4.235-24.744zM93.533 18.019H78.949c.209 1.303.773 2.336 1.687 3.105.913.766 2.081 1.152 3.504 1.152 1.696 0 3.155-.601 4.375-1.802l3.827 1.818c-.953 1.366-2.095 2.383-3.43 3.04-1.33.656-2.91.983-4.74.983-2.838 0-5.148-.904-6.936-2.716-1.785-1.812-2.679-4.079-2.679-6.801 0-2.723.888-5.112 2.67-6.953 1.78-1.842 4.012-2.766 6.694-2.766 2.848 0 5.165.924 6.95 2.766 1.784 1.848 2.678 4.28 2.678 7.306l-.016.874h-.007l.007-.006zm-4.542-3.617c-.3-1.02-.894-1.851-1.775-2.488-.884-.64-1.905-.96-3.073-.96-1.266 0-2.375.359-3.334 1.075-.6.449-1.159 1.24-1.668 2.373h9.85zM110.156.47h4.542v25.363h-4.542V23.9c-.887.852-1.775 1.469-2.666 1.842a7.418 7.418 0 01-2.9.564c-2.336 0-4.356-.917-6.062-2.749-1.706-1.831-2.561-4.112-2.561-6.838 0-2.725.822-5.141 2.476-6.95 1.651-1.804 3.651-2.709 6.013-2.709 1.087 0 2.105.208 3.057.62.953.413 1.831 1.04 2.64 1.869V.469h.003zm-4.777 10.833c-1.402 0-2.57.498-3.497 1.505-.927 1.003-1.393 2.29-1.393 3.86 0 1.572.473 2.882 1.416 3.902s2.104 1.527 3.488 1.527c1.383 0 2.61-.498 3.546-1.504.94-1.004 1.406-2.317 1.406-3.947s-.47-2.881-1.406-3.871c-.94-.984-2.124-1.479-3.563-1.479v.007h.003zM121.118 0c.793 0 1.478.294 2.046.874a2.93 2.93 0 01.855 2.12c0 .827-.284 1.517-.848 2.095-.565.574-1.237.867-2.02.867a2.796 2.796 0 01-2.065-.884c-.568-.59-.855-1.303-.855-2.145 0-.841.281-1.498.842-2.069A2.763 2.763 0 01121.112 0h.006zm-2.27 7.534h4.541v18.298h-4.541V7.534zM145.09 11.24l-3.779 2.105c-.707-.752-1.412-1.27-2.104-1.564-.695-.294-1.507-.439-2.44-.439-1.697 0-3.074.508-4.121 1.535-1.047 1.023-1.573 2.336-1.573 3.937 0 1.6.503 2.824 1.518 3.814 1.008.984 2.336 1.479 3.98 1.479 2.029 0 3.612-.703 4.744-2.106l3.576 2.479c-1.942 2.554-4.679 3.831-8.219 3.831-3.184 0-5.674-.954-7.475-2.861-1.801-1.907-2.704-4.138-2.704-6.696 0-1.772.44-3.402 1.311-4.894.878-1.488 2.101-2.663 3.667-3.517 1.566-.852 3.325-1.278 5.263-1.278 1.798 0 3.409.363 4.839 1.086a9.166 9.166 0 013.507 3.089v.006l.01-.006zM160.867 7.533h4.541v18.299h-4.541v-1.934c-.888.851-1.775 1.468-2.666 1.841a7.418 7.418 0 01-2.9.564c-2.336 0-4.356-.917-6.062-2.748-1.706-1.832-2.561-4.112-2.561-6.838s.822-5.141 2.476-6.95c1.651-1.805 3.651-2.71 6.013-2.71 1.087 0 2.104.209 3.057.621.953.413 1.83 1.04 2.64 1.868v-2.02.007h.003zm-4.777 3.769c-1.403 0-2.571.498-3.497 1.505-.927 1.003-1.393 2.29-1.393 3.86 0 1.571.473 2.881 1.416 3.901s2.104 1.528 3.487 1.528c1.384 0 2.611-.498 3.547-1.505.94-1.003 1.406-2.316 1.406-3.947 0-1.63-.47-2.88-1.406-3.87-.94-.984-2.124-1.479-3.563-1.479v.007h.003zM169.261 7.534h3.892v2.307c.418-.908.982-1.6 1.68-2.07a4.035 4.035 0 012.294-.706c.587 0 1.204.156 1.847.469l-1.413 3.95c-.535-.267-.969-.402-1.312-.402-.698 0-1.288.438-1.771 1.313-.483.874-.725 2.59-.725 5.148l.017.894v7.402h-4.506V7.534h-.006.003zM198.406 18.019h-14.584c.209 1.303.774 2.336 1.687 3.105.914.766 2.082 1.152 3.504 1.152 1.697 0 3.155-.601 4.375-1.802l3.827 1.818c-.952 1.366-2.094 2.383-3.429 3.04-1.331.656-2.91.983-4.74.983-2.839 0-5.149-.904-6.936-2.716-1.785-1.812-2.679-4.079-2.679-6.801 0-2.723.887-5.112 2.669-6.953 1.781-1.842 4.013-2.766 6.695-2.766 2.848 0 5.164.924 6.949 2.766 1.785 1.848 2.679 4.28 2.679 7.306l-.017.874h-.006l.006-.006zm-4.541-3.617c-.3-1.02-.894-1.851-1.775-2.488-.881-.637-1.905-.96-3.074-.96-1.265 0-2.375.359-3.334 1.075-.6.449-1.158 1.24-1.667 2.373h9.85zM203.085 21.044c.718 0 1.338.257 1.847.765.509.509.763 1.132.763 1.858 0 .726-.254 1.353-.763 1.868a2.509 2.509 0 01-1.847.772 2.506 2.506 0 01-1.846-.772 2.556 2.556 0 01-.764-1.868c0-.732.255-1.346.764-1.858a2.526 2.526 0 011.846-.765zM222.345 7.534h4.525v15.675c0 3.092-.613 5.369-1.846 6.828-1.651 1.973-4.141 2.963-7.469 2.963-1.775 0-3.262-.221-4.476-.67-1.207-.449-2.232-1.105-3.057-1.977-.832-.868-1.445-1.927-1.847-3.168h5.005c.444.515 1.012.905 1.713 1.172.698.264 1.527.393 2.48.393 1.217 0 2.199-.192 2.943-.571.743-.383 1.265-.875 1.572-1.479.304-.607.46-1.65.46-3.128-.799.808-1.638 1.39-2.509 1.742-.877.353-1.866.532-2.979.532-2.43 0-4.479-.885-6.153-2.66-1.67-1.772-2.509-4.013-2.509-6.729 0-2.9.888-5.237 2.659-7 1.605-1.59 3.527-2.385 5.752-2.385 1.044 0 2.026.191 2.953.58.926.39 1.856 1.024 2.783 1.908V7.534zm-4.705 3.821c-1.432 0-2.61.485-3.543 1.452-.933.97-1.396 2.191-1.396 3.66 0 1.468.479 2.775 1.432 3.749.953.973 2.15 1.462 3.592 1.462 1.442 0 2.571-.476 3.481-1.43.914-.953 1.374-2.204 1.374-3.748s-.46-2.765-1.384-3.72c-.916-.953-2.104-1.428-3.556-1.428v.003zM239.676 7.066c1.706 0 3.312.436 4.816 1.297 1.5.865 2.675 2.033 3.517 3.518a9.532 9.532 0 011.262 4.795c0 1.716-.424 3.34-1.272 4.844-.848 1.505-2.007 2.68-3.468 3.521-1.462.849-3.08 1.27-4.839 1.27-2.593 0-4.809-.933-6.646-2.8-1.836-1.869-2.753-4.132-2.753-6.802 0-2.861 1.037-5.244 3.109-7.151 1.817-1.66 3.905-2.488 6.271-2.488l.006-.007-.003.003zm.075 4.327c-1.413 0-2.584.495-3.524 1.488-.939.993-1.406 2.26-1.406 3.811 0 1.551.464 2.881 1.393 3.871.927.99 2.102 1.479 3.524 1.479 1.423 0 2.604-.499 3.547-1.498.942-1 1.416-2.28 1.416-3.852 0-1.57-.464-2.848-1.394-3.824-.926-.98-2.111-1.475-3.556-1.475zM249.727 7.534h4.627l4.57 10.801 4.562-10.8h4.6l-7.7 18.298h-2.943l-7.719-18.299h.006-.003zM268.811 30.267L279.855.234h3.266l-11.064 30.033h-3.246zM287.858.945h13.547v4.62h-8.897v4.517h5.781v4.551h-5.781v11.2h-4.65V.941v.004zM303.793 7.426h3.915v2.316c.424-.914.989-1.607 1.69-2.082a4.031 4.031 0 012.31-.71c.591 0 1.211.16 1.857.476l-1.423 3.976c-.535-.27-.975-.405-1.321-.405-.702 0-1.296.438-1.782 1.32-.486.88-.727 2.607-.727 5.177l.016.898v7.445h-4.532V7.425h-.003zM329.254 7.426h4.568v18.41h-4.568V23.89c-.89.858-1.784 1.475-2.682 1.85-.897.38-1.869.569-2.916.569-2.349 0-4.385-.921-6.098-2.766-1.716-1.845-2.574-4.138-2.574-6.877 0-2.74.828-5.171 2.489-6.99 1.661-1.815 3.677-2.725 6.049-2.725 1.093 0 2.117.208 3.073.627.96.419 1.844 1.042 2.656 1.877v-2.03h.003zm-4.799 3.792c-1.413 0-2.584.505-3.517 1.514-.933 1.01-1.4 2.304-1.4 3.884 0 1.581.477 2.901 1.426 3.927.949 1.027 2.121 1.541 3.511 1.541 1.389 0 2.623-.504 3.569-1.514.946-1.01 1.416-2.333 1.416-3.967 0-1.633-.473-2.897-1.416-3.89-.946-.994-2.14-1.489-3.586-1.489l-.003-.006zM338.422 7.424h4.617v8.867c0 1.726.117 2.924.352 3.597.235.67.614 1.194 1.132 1.564.519.37 1.159.558 1.922.558.764 0 1.406-.185 1.938-.551.532-.367.927-.905 1.181-1.617.189-.532.284-1.664.284-3.403V7.42h4.568v7.802c0 3.214-.251 5.415-.754 6.6-.613 1.445-1.517 2.55-2.711 3.326-1.194.772-2.711 1.158-4.552 1.158-1.996 0-3.611-.452-4.841-1.353-1.234-.9-2.098-2.161-2.601-3.772-.355-1.115-.535-3.148-.535-6.091V7.424zM372.432.316H377v25.516h-4.568v-1.947c-.89.858-1.784 1.475-2.682 1.851-.897.38-1.869.568-2.916.568-2.349 0-4.385-.92-6.098-2.766-1.716-1.844-2.574-4.138-2.574-6.877s.828-5.17 2.489-6.99c1.661-1.814 3.677-2.725 6.049-2.725 1.093 0 2.117.208 3.073.627.96.42 1.844 1.043 2.656 1.878V.313l.003.003zm-4.799 10.897c-1.413 0-2.584.505-3.517 1.515-.933 1.01-1.4 2.303-1.4 3.884 0 1.58.477 2.9 1.426 3.927.949 1.026 2.121 1.54 3.511 1.54 1.389 0 2.623-.504 3.569-1.514.946-1.01 1.416-2.333 1.416-3.966 0-1.634-.473-2.898-1.416-3.891-.946-.994-2.14-1.489-3.586-1.489l-.003-.006z" fill="#fff"/></svg>