<svg width="74" height="17" viewBox="0 0 74 17" fill="none" xmlns="http://www.w3.org/2000/svg"><path d="M6.345 16.2c-3.14 0-5.52-2.36-5.52-5.3 0-2.96 2.38-5.32 5.52-5.32 3.14 0 5.52 2.36 5.52 5.32 0 2.94-2.38 5.3-5.52 5.3zm0-3.2c1.08 0 1.84-.86 1.84-2.1 0-1.22-.76-2.12-1.84-2.12s-1.84.9-1.84 2.12c0 1.24.76 2.1 1.84 2.1zm16.9 3.2c-3.1 0-5.74-1.94-5.74-5.3 0-2.96 2.3-5.32 5.32-5.32 2.9 0 5.12 2.36 5.12 5.32 0 .62-.08 1.18-.08 1.18h-6.78c.3.96 1.2 1.32 2.18 1.32.86 0 1.78-.26 2.42-.62l1.22 2.46c-1.14.7-2.4.96-3.66.96zm-2.26-6.18h3.64c-.12-.94-.86-1.58-1.8-1.58-.9 0-1.62.64-1.84 1.58zm8.36 5.98V5.78h3.44V6.9c.76-.86 1.94-1.32 3.08-1.32 1.64 0 2.52.66 3 1.58.88-1.28 2.24-1.58 3.26-1.58 3.3 0 3.58 2.66 3.58 4.72V16h-3.64v-5.28c0-1.22-.34-1.78-1.14-1.78-1.08 0-1.58.98-1.58 2.24V16h-3.64v-5.28c0-1.22-.34-1.78-1.14-1.78-1.08 0-1.58.98-1.58 2.24V16h-3.64zm22.032.2c-2.84 0-4.38-2.36-4.38-5.3 0-2.96 1.54-5.32 4.38-5.32.82 0 2.18.28 2.78 1.34V5.78h3.44V16h-3.44v-1.14c-.56 1.04-1.96 1.34-2.78 1.34zm.96-3.2c.96 0 1.64-.86 1.64-2.1 0-1.22-.68-2.12-1.64-2.12-.96 0-1.64.9-1.64 2.12 0 1.24.68 2.1 1.64 2.1zm6.852 3V5.78h3.64V16h-3.64zm1.8-11c-1.12 0-2.06-.94-2.06-2.06 0-1.14.94-2.08 2.06-2.08 1.16 0 2.1.94 2.1 2.08 0 1.12-.94 2.06-2.1 2.06zm3.434 11V2.84h3.64V16h-3.64zm7.374.2c-1.14 0-1.98-.86-1.98-1.96s.84-1.96 1.98-1.96c1.16 0 2.02.86 2.02 1.96s-.86 1.96-2.02 1.96z" fill="#fff"/></svg>