<svg width="43" height="42" viewBox="0 0 43 42" fill="none" xmlns="http://www.w3.org/2000/svg"><path d="M29.9 2.2H7.285c-2.676 0-4.846 2.086-4.846 4.66v37.276c0 2.573 2.17 4.66 4.846 4.66H29.9c2.677 0 4.846-2.087 4.846-4.66V6.86c0-2.574-2.17-4.66-4.846-4.66z" fill="#F2F2F2"/><path d="M34.746 6.86a4.57 4.57 0 00-1.419-3.295A4.946 4.946 0 0029.9 2.2H7.285C6 2.2 4.767 2.691 3.858 3.565a4.57 4.57 0 00-1.42 3.295v6.212h32.308V6.86zM2.451 44.665c0 1.095.509 2.146 1.413 2.92.905.775 2.131 1.21 3.41 1.21h22.51c1.278 0 2.505-.435 3.41-1.21.904-.774 1.412-1.825 1.412-2.92v-5.508H2.451v5.508zM40.659 16.942l-12.374 9.164-12.374-9.164a1.628 1.628 0 011.066-.398h22.616c.392 0 .771.142 1.066.398z" fill="#C1C5C8"/><path d="M41.208 18.138v15.937c0 .423-.17.828-.473 1.127a1.627 1.627 0 01-1.142.467H16.977c-.428 0-.839-.168-1.142-.467a1.583 1.583 0 01-.473-1.127V18.138a1.576 1.576 0 01.55-1.196l12.373 9.164 12.374-9.164a1.595 1.595 0 01.55 1.196z" fill="#F2F2F2"/><path d="M20.208 8.575c0-.423-.17-.828-.473-1.127a1.626 1.626 0 00-1.142-.467H12.13c-.428 0-.84.168-1.142.467a1.583 1.583 0 00-.473 1.127c0 .423.17.828.473 1.127.303.299.714.467 1.142.467h6.462c.428 0 .84-.168 1.142-.467.303-.299.473-.704.473-1.127z" fill="#101B31"/><path d="M41.725 15.747a3.256 3.256 0 00-2.132-.797h-3.231V6.981c0-1.69-.68-3.312-1.893-4.507A6.506 6.506 0 0029.9.606H7.285a6.506 6.506 0 00-4.569 1.868A6.332 6.332 0 00.823 6.98v38.25c0 1.691.681 3.313 1.893 4.508a6.506 6.506 0 004.569 1.867H29.9a6.506 6.506 0 004.57-1.867 6.332 6.332 0 001.892-4.508v-7.968h3.23c.858 0 1.68-.336 2.285-.934a3.166 3.166 0 00.947-2.254V18.138c-.001-.453-.1-.9-.289-1.313a3.191 3.191 0 00-.81-1.078zm-5.363 2.39l-8.077 5.977-8.077-5.976h16.154zm-3.23 27.094c0 .846-.341 1.657-.947 2.254a3.253 3.253 0 01-2.285.934H7.285a3.253 3.253 0 01-2.284-.934 3.166 3.166 0 01-.947-2.254V6.981c0-.845.34-1.656.947-2.254a3.253 3.253 0 012.284-.933H29.9c.857 0 1.679.336 2.285.933.606.598.946 1.409.946 2.254v7.97H16.977a3.256 3.256 0 00-2.132.796c-.345.299-.62.666-.81 1.079a3.15 3.15 0 00-.288 1.312v15.937c0 .845.34 1.656.946 2.254a3.254 3.254 0 002.284.934h16.154v7.968zM16.976 34.075V19.731l10.339 7.65a1.63 1.63 0 001.938 0l10.339-7.65v14.344H16.977z" fill="#101B31"/><path d="M25.054 10.169c.892 0 1.616-.714 1.616-1.594 0-.88-.724-1.594-1.616-1.594-.892 0-1.615.714-1.615 1.594 0 .88.723 1.594 1.615 1.594zM18.593 44.428c.892 0 1.615-.713 1.615-1.593s-.723-1.594-1.615-1.594-1.616.713-1.616 1.593.724 1.594 1.616 1.594z" fill="#101B31"/><path d="M41.725 15.747a3.256 3.256 0 00-2.132-.797H16.977a3.256 3.256 0 00-2.132.797c-.345.299-.62.666-.81 1.079-.19.412-.288.859-.288 1.312v15.937c0 .845.34 1.656.946 2.254a3.253 3.253 0 002.284.934h22.616c.857 0 1.678-.336 2.284-.934a3.166 3.166 0 00.947-2.254V18.138c-.001-.453-.1-.9-.289-1.313a3.19 3.19 0 00-.81-1.078zm-5.363 2.39l-8.077 5.977-8.077-5.976h16.154zm3.23 15.938H16.978V19.731l10.339 7.65a1.63 1.63 0 001.938 0l10.339-7.65v14.344z" fill="#C80000"/></svg>