<svg width="92" height="50" viewBox="0 0 92 50" fill="none" xmlns="http://www.w3.org/2000/svg"><path fill-rule="evenodd" clip-rule="evenodd" d="M39.985 74.572a40.493 40.493 0 0022.214-6.621c6.576-4.317 11.7-10.452 14.727-17.631A38.648 38.648 0 0079.2 27.622C77.658 20 73.851 13 68.258 7.507 62.666 2.012 55.542-1.73 47.785-3.245A40.646 40.646 0 0024.683-1.01C17.377 1.964 11.133 7 6.74 13.46A38.8 38.8 0 000 35.286c0 10.42 4.213 20.412 11.711 27.78 7.499 7.367 17.67 11.506 28.274 11.506z" fill="#495E89" opacity=".54"/><path fill-rule="evenodd" clip-rule="evenodd" d="M92.434 24.858c.903 0 1.786-.263 2.537-.756a4.505 4.505 0 001.681-2.013c.346-.82.436-1.722.26-2.592a4.463 4.463 0 00-1.25-2.297 4.591 4.591 0 00-2.337-1.228 4.643 4.643 0 00-2.639.255 4.55 4.55 0 00-2.049 1.652 4.431 4.431 0 00-.77 2.493c0 1.19.482 2.33 1.338 3.172a4.607 4.607 0 003.229 1.314z" fill="#7588AF"/><path fill-rule="evenodd" clip-rule="evenodd" d="M66.942 79c5.8 0 11.469-1.689 16.29-4.854a28.923 28.923 0 0010.8-12.928 28.34 28.34 0 001.67-16.645 28.655 28.655 0 00-8.025-14.75 29.484 29.484 0 00-15.013-7.884 29.803 29.803 0 00-16.94 1.64 29.214 29.214 0 00-13.159 10.61 28.45 28.45 0 00-4.94 16.006c0 7.64 3.089 14.966 8.587 20.368C51.71 75.965 59.167 79 66.942 79z" fill="#1A2B4F" opacity=".51"/></svg>