<svg width="43" height="42" viewBox="0 0 43 42" fill="none" xmlns="http://www.w3.org/2000/svg"><path d="M29.69 2.138H7.075c-2.677 0-4.846 2.056-4.846 4.593v36.75c0 2.537 2.17 4.594 4.846 4.594H29.69c2.677 0 4.846-2.057 4.846-4.594V6.731c0-2.537-2.17-4.593-4.846-4.593z" fill="#F2F2F2"/><path d="M34.536 6.731c0-1.218-.51-2.386-1.419-3.248a4.984 4.984 0 00-3.427-1.345H7.075a4.985 4.985 0 00-3.427 1.345 4.476 4.476 0 00-1.42 3.248v6.125h32.308V6.731zM2.229 43.481c0 1.219.51 2.387 1.42 3.249a4.985 4.985 0 003.426 1.345H29.69a4.984 4.984 0 003.427-1.345 4.475 4.475 0 001.42-3.249v-6.125H2.228v6.125z" fill="#C1C5C8"/><path d="M40.998 12.856V28.17c0 .406-.17.795-.473 1.083a1.662 1.662 0 01-1.142.448h-8.077l-4.847 4.594-4.846-4.594h-4.846c-.428 0-.84-.161-1.142-.448a1.492 1.492 0 01-.473-1.083V12.856c0-.406.17-.795.473-1.082a1.661 1.661 0 011.142-.449h22.616c.428 0 .839.161 1.142.449.303.287.473.676.473 1.082z" fill="#F2F2F2"/><path d="M39.383 9.794h-3.231V6.73c0-1.624-.68-3.182-1.893-4.33C33.047 1.25 31.404.605 29.69.605H7.075c-1.714 0-3.357.646-4.57 1.794C1.296 3.55.614 5.107.614 6.731v36.75c0 1.625.681 3.183 1.893 4.331 1.212 1.149 2.855 1.794 4.569 1.794H29.69c1.714 0 3.357-.645 4.57-1.794 1.211-1.148 1.892-2.706 1.892-4.33v-7.657c0-.406-.17-.796-.473-1.083a1.661 1.661 0 00-1.143-.448c-.428 0-.839.161-1.142.448a1.492 1.492 0 00-.473 1.083v7.656c0 .813-.34 1.591-.946 2.166a3.323 3.323 0 01-2.285.897H7.075a3.323 3.323 0 01-2.285-.897 2.984 2.984 0 01-.946-2.166V6.731c0-.812.34-1.59.946-2.165a3.323 3.323 0 012.285-.897H29.69c.857 0 1.679.322 2.285.897.606.574.946 1.353.946 2.165v3.063H16.767c-.857 0-1.678.322-2.284.897a2.984 2.984 0 00-.947 2.165V28.17c0 .812.34 1.591.947 2.165a3.322 3.322 0 002.284.897h4.184l4.362 4.15c.15.144.329.257.525.335a1.694 1.694 0 001.243 0c.197-.078.375-.191.526-.335l4.361-4.15h7.415c.856 0 1.678-.322 2.284-.897a2.984 2.984 0 00.946-2.165V12.856c0-.812-.34-1.59-.946-2.165a3.323 3.323 0 00-2.284-.897zm0 18.375h-8.077a1.694 1.694 0 00-.62.113 1.624 1.624 0 00-.527.33l-3.7 3.523-3.699-3.522a1.625 1.625 0 00-.526-.33 1.695 1.695 0 00-.62-.114h-4.847V12.856h22.616V28.17z" fill="#101B31"/><path d="M39.383 9.794H16.767c-.857 0-1.678.322-2.284.897a2.984 2.984 0 00-.947 2.165V28.17c0 .812.34 1.591.947 2.165a3.323 3.323 0 002.284.897h4.184l4.362 4.15c.15.144.329.257.525.335a1.694 1.694 0 001.243 0c.197-.078.375-.191.526-.335l4.361-4.15h7.415c.856 0 1.678-.322 2.284-.897a2.984 2.984 0 00.946-2.165V12.856c0-.812-.34-1.59-.946-2.165a3.323 3.323 0 00-2.284-.897zm0 18.375h-8.077a1.694 1.694 0 00-.62.113 1.625 1.625 0 00-.527.33l-3.7 3.523-3.699-3.522a1.625 1.625 0 00-.526-.33 1.695 1.695 0 00-.62-.114h-4.847V12.856h22.616V28.17z" fill="#C80000"/><path d="M23.229 18.981h9.692c.428 0 .84-.161 1.142-.448.303-.287.473-.677.473-1.083 0-.406-.17-.796-.473-1.083a1.662 1.662 0 00-1.142-.448H23.23c-.429 0-.84.161-1.142.448a1.492 1.492 0 00-.474 1.083c0 .406.17.796.474 1.083.303.287.713.448 1.142.448zM23.229 25.106h9.692c.428 0 .84-.161 1.142-.448.303-.287.473-.677.473-1.083 0-.406-.17-.796-.473-1.083a1.662 1.662 0 00-1.142-.448H23.23c-.429 0-.84.161-1.142.448a1.492 1.492 0 00-.474 1.083c0 .406.17.796.474 1.083.303.287.713.448 1.142.448z" fill="#C80000"/><path d="M18.383 43.68c.892 0 1.615-.707 1.615-1.58 0-.874-.723-1.582-1.615-1.582-.893 0-1.616.708-1.616 1.581 0 .874.723 1.582 1.616 1.582z" fill="#101B31"/></svg>