<svg width="359" height="30" viewBox="0 0 359 30" fill="none" xmlns="http://www.w3.org/2000/svg"><path d="M.439 23V1.26l14.845 15.53V2.646h3.071v21.594L3.511 8.75V23H.439zm21.819-6.513c0-1.854.663-3.432 1.99-4.733 1.328-1.3 2.945-1.95 4.852-1.95 1.916 0 3.542.654 4.878 1.964 1.318 1.31 1.978 2.917 1.978 4.825 0 1.925-.664 3.537-1.991 4.838-1.336 1.292-2.975 1.938-4.918 1.938-1.924 0-3.537-.659-4.838-1.977-1.3-1.301-1.951-2.936-1.951-4.905zm3.032.053c0 1.283.343 2.298 1.028 3.045.703.756 1.63 1.134 2.782 1.134 1.16 0 2.087-.373 2.782-1.12.694-.747 1.041-1.745 1.041-2.993 0-1.248-.347-2.246-1.041-2.993-.703-.756-1.63-1.133-2.782-1.133-1.134 0-2.052.377-2.755 1.133-.703.756-1.055 1.732-1.055 2.927zm22.148-6.38h2.967v1.146c.545-.571 1.028-.962 1.45-1.173.43-.22.94-.33 1.53-.33.782 0 1.599.255 2.451.765l-1.358 2.716c-.562-.405-1.111-.607-1.647-.607-1.618 0-2.426 1.222-2.426 3.665V23h-2.967V10.16zm21.608 7.118h-9.202c.08 1.055.422 1.894 1.029 2.518.606.616 1.384.923 2.333.923.738 0 1.35-.175 1.833-.527.474-.352 1.015-1.002 1.621-1.951l2.505 1.397c-.387.66-.795 1.226-1.226 1.7a6.79 6.79 0 01-1.384 1.161 5.66 5.66 0 01-1.596.66c-.57.14-1.19.21-1.858.21-1.916 0-3.454-.615-4.615-1.846-1.16-1.239-1.74-2.882-1.74-4.93 0-2.03.563-3.674 1.688-4.93 1.133-1.24 2.636-1.86 4.508-1.86 1.89 0 3.384.602 4.483 1.806 1.09 1.196 1.635 2.852 1.635 4.97l-.014.7zm-3.045-2.425c-.413-1.582-1.41-2.373-2.993-2.373-.36 0-.698.057-1.015.17a2.8 2.8 0 00-.87.476 2.96 2.96 0 00-.66.738 3.46 3.46 0 00-.421.988h5.959zm13.764-2.505l-2.453 1.305c-.386-.791-.865-1.187-1.436-1.187a.975.975 0 00-.7.277.883.883 0 00-.29.686c0 .492.572.98 1.715 1.463 1.573.677 2.632 1.3 3.177 1.872.545.571.817 1.34.817 2.307 0 1.24-.457 2.277-1.37 3.112-.889.79-1.96 1.186-3.218 1.186-2.153 0-3.678-1.05-4.574-3.15l2.53-1.174c.352.615.62 1.006.805 1.173.36.334.791.501 1.292.501 1.002 0 1.503-.457 1.503-1.37 0-.528-.387-1.02-1.16-1.477-.299-.15-.598-.295-.897-.436-.299-.14-.602-.285-.91-.434-.86-.422-1.467-.844-1.819-1.266-.448-.536-.672-1.226-.672-2.07 0-1.116.382-2.039 1.147-2.768.782-.73 1.731-1.095 2.848-1.095 1.643 0 2.865.848 3.665 2.545zm6.473 17.64h-2.966V10.158h2.966v1.398c1.169-1.17 2.496-1.754 3.981-1.754 1.767 0 3.221.65 4.364 1.951 1.16 1.292 1.74 2.923 1.74 4.891 0 1.925-.575 3.53-1.727 4.813-1.142 1.274-2.584 1.911-4.324 1.911-1.503 0-2.848-.602-4.034-1.806v8.424zm7.053-13.33c0-1.23-.334-2.232-1.002-3.005-.677-.782-1.53-1.174-2.558-1.174-1.09 0-1.973.378-2.65 1.134-.676.756-1.015 1.75-1.015 2.98 0 1.204.339 2.197 1.016 2.98.668.764 1.546 1.146 2.636 1.146 1.029 0 1.877-.387 2.545-1.16.685-.773 1.028-1.74 1.028-2.9zm5.564-.17c0-1.855.663-3.433 1.99-4.734 1.327-1.3 2.945-1.95 4.852-1.95 1.916 0 3.542.654 4.878 1.964 1.318 1.31 1.977 2.917 1.977 4.825 0 1.925-.663 3.537-1.99 4.838-1.336 1.292-2.976 1.938-4.918 1.938-1.925 0-3.538-.659-4.838-1.977-1.301-1.301-1.951-2.936-1.951-4.905zm3.032.052c0 1.283.342 2.298 1.028 3.045.703.756 1.63 1.134 2.782 1.134 1.16 0 2.087-.373 2.782-1.12.694-.747 1.041-1.745 1.041-2.993 0-1.248-.347-2.246-1.041-2.993-.704-.756-1.631-1.133-2.782-1.133-1.134 0-2.052.377-2.756 1.133-.703.756-1.054 1.732-1.054 2.927zm13.816-6.38h2.98v1.186c1.037-1.029 2.206-1.543 3.506-1.543 1.495 0 2.659.47 3.494 1.41.721.8 1.081 2.106 1.081 3.916V23h-2.979v-7.172c0-1.265-.176-2.14-.528-2.623-.342-.493-.966-.739-1.872-.739-.984 0-1.683.325-2.096.976-.404.642-.606 1.762-.606 3.362V23h-2.98V10.16zM139.987.732h2.98V23h-2.98v-1.345c-1.169 1.143-2.491 1.714-3.968 1.714-1.758 0-3.217-.642-4.377-1.925-1.151-1.31-1.727-2.944-1.727-4.904 0-1.916.576-3.516 1.727-4.799 1.143-1.292 2.58-1.938 4.311-1.938 1.503 0 2.848.615 4.034 1.846V.733zm-7.04 15.807c0 1.23.33 2.233.989 3.006.677.782 1.529 1.173 2.558 1.173 1.098 0 1.986-.378 2.663-1.134.676-.782 1.015-1.775 1.015-2.979 0-1.204-.339-2.197-1.015-2.98-.677-.764-1.556-1.146-2.637-1.146-1.02 0-1.872.386-2.558 1.16-.676.782-1.015 1.749-1.015 2.9zm23.23-6.38h2.979V23h-2.979v-1.345c-1.222 1.143-2.536 1.714-3.942 1.714-1.776 0-3.243-.642-4.403-1.925-1.152-1.31-1.728-2.944-1.728-4.904 0-1.925.576-3.529 1.728-4.812 1.151-1.283 2.592-1.925 4.324-1.925 1.494 0 2.834.615 4.021 1.846v-1.49zm-7.04 6.38c0 1.23.329 2.233.988 3.006.677.782 1.53 1.173 2.558 1.173 1.099 0 1.986-.378 2.663-1.134.677-.782 1.015-1.775 1.015-2.979 0-1.204-.338-2.197-1.015-2.98-.677-.764-1.555-1.146-2.637-1.146-1.019 0-1.872.386-2.557 1.16-.677.782-1.015 1.749-1.015 2.9zm21.225-4.192l-2.452 1.305c-.387-.791-.866-1.187-1.437-1.187a.978.978 0 00-.699.277.884.884 0 00-.29.686c0 .492.572.98 1.714 1.463 1.573.677 2.633 1.3 3.177 1.872.545.571.818 1.34.818 2.307 0 1.24-.457 2.277-1.371 3.112-.888.79-1.96 1.186-3.217 1.186-2.153 0-3.678-1.05-4.575-3.15l2.532-1.174c.351.615.619 1.006.804 1.173.36.334.791.501 1.292.501 1.002 0 1.503-.457 1.503-1.37 0-.528-.387-1.02-1.161-1.477-.298-.15-.597-.295-.896-.436a83.56 83.56 0 01-.91-.434c-.861-.422-1.467-.844-1.819-1.266-.448-.536-.672-1.226-.672-2.07 0-1.116.382-2.039 1.147-2.768.782-.73 1.731-1.095 2.847-1.095 1.644 0 2.865.848 3.665 2.545zm21.305-2.189h2.979V23h-2.979v-1.345c-1.222 1.143-2.536 1.714-3.942 1.714-1.775 0-3.243-.642-4.403-1.925-1.152-1.31-1.727-2.944-1.727-4.904 0-1.925.575-3.529 1.727-4.812 1.151-1.283 2.593-1.925 4.324-1.925 1.494 0 2.834.615 4.021 1.846v-1.49zm-7.04 6.381c0 1.23.33 2.233.989 3.006.676.782 1.529 1.173 2.557 1.173 1.099 0 1.987-.378 2.663-1.134.677-.782 1.016-1.775 1.016-2.979 0-1.204-.339-2.197-1.016-2.98-.676-.764-1.555-1.146-2.636-1.146-1.02 0-1.872.386-2.558 1.16-.677.782-1.015 1.749-1.015 2.9z" fill="#fff" fill-opacity=".75"/><path d="M211.952.59V23h-4.887V.59h4.887zm8.766 0V23h-4.887V.59h4.887zm8.416 15.444c0 .45.081.873.243 1.269.162.378.378.711.648.999.288.288.621.513.999.675.396.162.819.243 1.269.243.432 0 .837-.081 1.215-.243.396-.162.729-.387.999-.675a3.16 3.16 0 00.675-.999c.18-.378.27-.783.27-1.215 0-.432-.09-.837-.27-1.215a3.084 3.084 0 00-.675-1.026 2.801 2.801 0 00-.999-.675 3.051 3.051 0 00-1.215-.243c-.45 0-.873.081-1.269.243a3.16 3.16 0 00-.999.675c-.27.288-.486.621-.648.999-.162.36-.243.756-.243 1.188zm6.156-6.885h4.914V23h-4.914v-1.539c-1.044 1.314-2.457 1.971-4.239 1.971-1.008 0-1.935-.18-2.781-.54a6.88 6.88 0 01-2.214-1.566 7.352 7.352 0 01-1.485-2.349c-.342-.9-.513-1.881-.513-2.943 0-.99.171-1.926.513-2.808.342-.9.819-1.683 1.431-2.349a6.58 6.58 0 012.187-1.566c.846-.396 1.782-.594 2.808-.594 1.728 0 3.159.603 4.293 1.809V9.149zm8.779 0h4.887v1.701c1.332-1.278 2.826-1.917 4.482-1.917 2.052 0 3.618.864 4.698 2.592 1.098-1.746 2.664-2.619 4.698-2.619.648 0 1.26.099 1.836.297.576.18 1.071.477 1.485.891.414.396.738.918.972 1.566.252.648.378 1.431.378 2.349V23h-4.887v-6.831c0-.702-.054-1.278-.162-1.728-.09-.45-.234-.801-.432-1.053a1.356 1.356 0 00-.648-.513 2.39 2.39 0 00-.81-.135c-1.566 0-2.349 1.143-2.349 3.429V23h-4.887v-6.831c0-.702-.045-1.278-.135-1.728-.09-.468-.225-.837-.405-1.107a1.181 1.181 0 00-.648-.54 2.534 2.534 0 00-.945-.162c-.306 0-.594.045-.864.135-.27.09-.513.27-.729.54-.198.252-.36.612-.486 1.08-.108.45-.162 1.044-.162 1.782V23h-4.887V9.149zm31.865 6.885c0 .45.081.873.243 1.269.162.378.378.711.648.999.288.288.621.513.999.675.396.162.819.243 1.269.243.432 0 .837-.081 1.215-.243.396-.162.729-.387.999-.675a3.16 3.16 0 00.675-.999c.18-.378.27-.783.27-1.215 0-.432-.09-.837-.27-1.215a3.084 3.084 0 00-.675-1.026 2.801 2.801 0 00-.999-.675 3.051 3.051 0 00-1.215-.243c-.45 0-.873.081-1.269.243a3.16 3.16 0 00-.999.675c-.27.288-.486.621-.648.999-.162.36-.243.756-.243 1.188zm6.156-6.885h4.914V23h-4.914v-1.539c-1.044 1.314-2.457 1.971-4.239 1.971-1.008 0-1.935-.18-2.781-.54a6.88 6.88 0 01-2.214-1.566 7.352 7.352 0 01-1.485-2.349c-.342-.9-.513-1.881-.513-2.943 0-.99.171-1.926.513-2.808.342-.9.819-1.683 1.431-2.349a6.58 6.58 0 012.187-1.566c.846-.396 1.782-.594 2.808-.594 1.728 0 3.159.603 4.293 1.809V9.149zm13.316 6.885c0 .45.081.873.243 1.269.162.378.378.711.648.999.288.288.621.513.999.675.396.162.819.243 1.269.243.432 0 .837-.081 1.215-.243.396-.162.729-.387.999-.675a3.16 3.16 0 00.675-.999c.18-.378.27-.783.27-1.215 0-.432-.09-.837-.27-1.215a3.084 3.084 0 00-.675-1.026 2.801 2.801 0 00-.999-.675 3.051 3.051 0 00-1.215-.243 3.25 3.25 0 00-1.242.243 3.16 3.16 0 00-.999.675 3.9 3.9 0 00-.675.999c-.162.36-.243.756-.243 1.188zM301.562.59h4.914V23h-4.914v-1.539c-1.044 1.314-2.457 1.971-4.239 1.971-1.008 0-1.935-.189-2.781-.567a6.88 6.88 0 01-2.214-1.566 7.352 7.352 0 01-1.485-2.349 8.141 8.141 0 01-.513-2.916c0-.99.162-1.926.486-2.808.342-.9.819-1.683 1.431-2.349a6.58 6.58 0 012.187-1.566c.864-.396 1.809-.594 2.835-.594 1.728 0 3.159.603 4.293 1.809V.59zm13.316 15.444c0 .45.081.873.243 1.269.162.378.378.711.648.999.288.288.621.513.999.675.396.162.819.243 1.269.243.432 0 .837-.081 1.215-.243.396-.162.729-.387.999-.675a3.16 3.16 0 00.675-.999c.18-.378.27-.783.27-1.215 0-.432-.09-.837-.27-1.215a3.084 3.084 0 00-.675-1.026 2.801 2.801 0 00-.999-.675 3.051 3.051 0 00-1.215-.243c-.45 0-.873.081-1.269.243a3.16 3.16 0 00-.999.675c-.27.288-.486.621-.648.999-.162.36-.243.756-.243 1.188zm6.156-6.885h4.914V23h-4.914v-1.539c-1.044 1.314-2.457 1.971-4.239 1.971-1.008 0-1.935-.18-2.781-.54a6.88 6.88 0 01-2.214-1.566 7.352 7.352 0 01-1.485-2.349c-.342-.9-.513-1.881-.513-2.943 0-.99.171-1.926.513-2.808.342-.9.819-1.683 1.431-2.349a6.58 6.58 0 012.187-1.566c.846-.396 1.782-.594 2.808-.594 1.728 0 3.159.603 4.293 1.809V9.149zm17.959 3.564c-.9-.468-1.782-.702-2.646-.702-.45 0-.819.09-1.107.27-.27.18-.405.423-.405.729 0 .162.018.297.054.405.054.09.153.18.297.27.162.09.387.171.675.243.306.072.702.162 1.188.27 1.35.27 2.358.756 3.024 1.458.666.684.999 1.566.999 2.646 0 .81-.162 1.539-.486 2.187a4.778 4.778 0 01-1.35 1.647c-.576.432-1.269.765-2.079.999-.81.252-1.701.378-2.673.378-1.872 0-3.717-.531-5.535-1.593l1.782-3.456c1.368.936 2.664 1.404 3.888 1.404.45 0 .819-.099 1.107-.297.288-.198.432-.45.432-.756a.973.973 0 00-.081-.432.576.576 0 00-.27-.324c-.144-.108-.36-.198-.648-.27a9.34 9.34 0 00-1.08-.27c-1.512-.306-2.574-.756-3.186-1.35-.594-.612-.891-1.449-.891-2.511 0-.774.144-1.467.432-2.079a4.304 4.304 0 011.242-1.593c.54-.432 1.188-.765 1.944-.999.774-.234 1.629-.351 2.565-.351 1.53 0 3.015.297 4.455.891l-1.647 3.186zm5.498 8.975c0-.438.16-.817.48-1.137.321-.32.703-.48 1.149-.48.445 0 .828.16 1.148.48.321.32.481.703.481 1.148 0 .453-.16.84-.481 1.16a1.56 1.56 0 01-1.148.47c-.461 0-.848-.157-1.16-.47-.313-.312-.469-.703-.469-1.172zm5.486 0c0-.438.16-.817.481-1.137.32-.32.703-.48 1.148-.48.445 0 .828.16 1.148.48.321.32.481.703.481 1.148 0 .453-.16.84-.481 1.16a1.56 1.56 0 01-1.148.47c-.461 0-.848-.157-1.16-.47-.313-.312-.469-.703-.469-1.172zm5.486 0c0-.438.161-.817.481-1.137.32-.32.703-.48 1.148-.48.446 0 .828.16 1.149.48.32.32.48.703.48 1.148 0 .453-.16.84-.48 1.16a1.564 1.564 0 01-1.149.47c-.461 0-.847-.157-1.16-.47-.312-.312-.469-.703-.469-1.172z" fill="#fff"/></svg>