<svg width="331" height="29" viewBox="0 0 331 29" fill="none" xmlns="http://www.w3.org/2000/svg"><path d="M16.657 15.832H3.853c.186 1.142.679 2.053 1.48 2.726.803.676 1.828 1.012 3.074 1.012 1.49 0 2.77-.528 3.842-1.58l3.357 1.595c-.836 1.203-1.84 2.09-3.008 2.668-1.168.577-2.555.864-4.16.864-2.491 0-4.52-.795-6.086-2.387C.785 19.138 0 17.146 0 14.75c0-2.395.782-4.492 2.343-6.113 1.561-1.621 3.52-2.43 5.878-2.43 2.5 0 4.535.812 6.102 2.43 1.567 1.621 2.351 3.761 2.351 6.423l-.014.769-.003.003zm-3.984-3.179a4.037 4.037 0 00-1.559-2.186c-.776-.563-1.673-.844-2.698-.844-1.111 0-2.085.316-2.925.945-.527.395-1.014 1.088-1.463 2.085h8.645zM29.084 8.869l-2.466 2.497c-1.003-1.006-1.914-1.508-2.73-1.508-.447 0-.8.096-1.052.287-.254.191-.378.432-.378.716 0 .218.08.418.241.598.16.182.556.432 1.189.745l1.46.74c1.539.768 2.596 1.55 3.169 2.348.573.798.862 1.735.862 2.808 0 1.43-.518 2.621-1.555 3.575-1.037.957-2.427 1.433-4.168 1.433-2.318 0-4.165-.916-5.549-2.75l2.452-2.705a5.677 5.677 0 001.642 1.337c.627.34 1.186.51 1.672.51.528 0 .949-.127 1.27-.383.32-.255.48-.55.48-.887 0-.62-.578-1.227-1.735-1.818l-1.344-.679c-2.57-1.31-3.852-2.952-3.852-4.921 0-1.27.484-2.358 1.452-3.26.968-.902 2.208-1.351 3.715-1.351 1.031 0 2.002.229 2.913.687a6.476 6.476 0 012.315 1.972l-.003.009z" fill="#fff" fill-opacity=".75"/><path d="M33.255 18.49c.633 0 1.175.223 1.621.673.447.45.67.992.67 1.633 0 .64-.223 1.189-.67 1.64a2.196 2.196 0 01-1.62.68 2.201 2.201 0 01-1.622-.68c-.447-.451-.67-1-.67-1.64 0-.641.223-1.187.67-1.633.447-.45.988-.673 1.621-.673z" fill="#fff" fill-opacity=".75"/><path d="M41.966.963h3.981L50.93 16.13 55.953.963h3.982l3.606 21.744h-3.95L57.288 8.976l-4.566 13.731h-3.606l-4.52-13.731-2.358 13.731h-3.99L41.966.963zM82.12 15.835H69.316c.183 1.145.679 2.053 1.48 2.729.803.673 1.828 1.012 3.077 1.012 1.49 0 2.77-.528 3.842-1.584l3.36 1.598c-.837 1.201-1.84 2.094-3.011 2.671-1.169.577-2.555.864-4.162.864-2.492 0-4.52-.794-6.09-2.386-1.567-1.592-2.352-3.585-2.352-5.977 0-2.393.78-4.492 2.343-6.11 1.564-1.619 3.524-2.43 5.878-2.43 2.501 0 4.535.811 6.102 2.43 1.567 1.624 2.352 3.76 2.352 6.42l-.015.769h-.005l.005-.006zm-3.987-3.179a4.051 4.051 0 00-1.558-2.186c-.777-.563-1.673-.844-2.699-.844-1.111 0-2.085.316-2.928.945-.526.395-1.016 1.09-1.463 2.085h8.648zM96.715.413h3.988v22.29h-3.988v-1.7c-.779.748-1.558 1.29-2.34 1.618-.78.328-1.63.496-2.547.496-2.05 0-3.824-.806-5.322-2.416-1.498-1.61-2.249-3.613-2.249-6.009 0-2.395.722-4.518 2.174-6.107 1.45-1.586 3.206-2.38 5.28-2.38.954 0 1.847.182 2.684.544.836.363 1.607.914 2.317 1.642V.413h.003zm-4.194 9.52c-1.231 0-2.257.438-3.07 1.323-.814.881-1.223 2.012-1.223 3.393 0 1.38.415 2.532 1.243 3.428.828.896 1.847 1.342 3.062 1.342 1.215 0 2.291-.438 3.114-1.322.825-.882 1.234-2.036 1.234-3.468 0-1.433-.412-2.532-1.234-3.402-.825-.864-1.865-1.3-3.128-1.3v.007h.002zM106.34 0c.696 0 1.297.258 1.796.768.498.514.75 1.134.75 1.862a2.53 2.53 0 01-.744 1.842c-.496.504-1.086.762-1.773.762a2.457 2.457 0 01-1.814-.777 2.623 2.623 0 01-.75-1.885c0-.74.246-1.316.739-1.818a2.424 2.424 0 011.79-.754h.006zm-1.994 6.62h3.988v16.081h-3.988V6.621zM127.386 9.877l-3.317 1.85c-.622-.66-1.24-1.116-1.848-1.374-.61-.258-1.323-.386-2.142-.386-1.49 0-2.699.447-3.618 1.349-.92.899-1.381 2.053-1.381 3.46 0 1.406.441 2.482 1.332 3.352.885.864 2.051 1.299 3.495 1.299 1.782 0 3.171-.618 4.165-1.85l3.139 2.178c-1.704 2.244-4.107 3.367-7.215 3.367-2.796 0-4.982-.839-6.563-2.515-1.581-1.676-2.375-3.636-2.375-5.884 0-1.557.387-2.99 1.152-4.3.771-1.308 1.845-2.34 3.22-3.092 1.375-.748 2.919-1.122 4.62-1.122 1.579 0 2.994.319 4.248.954a8.052 8.052 0 013.08 2.714v.006l.008-.006zM141.239 6.62h3.987V22.7h-3.987v-1.699c-.78.748-1.559 1.29-2.341 1.618a6.51 6.51 0 01-2.546.496c-2.051 0-3.824-.806-5.323-2.415-1.498-1.61-2.248-3.614-2.248-6.01 0-2.394.722-4.517 2.174-6.106 1.449-1.587 3.205-2.381 5.279-2.381.954 0 1.848.182 2.684.545.837.362 1.607.913 2.318 1.641V6.614v.006h.003zm-4.194 3.312c-1.232 0-2.257.438-3.071 1.322-.813.882-1.223 2.013-1.223 3.393s.415 2.532 1.243 3.428c.828.896 1.848 1.343 3.062 1.343 1.215 0 2.292-.438 3.114-1.322.825-.882 1.235-2.036 1.235-3.469 0-1.433-.413-2.532-1.235-3.402-.825-.864-1.865-1.299-3.128-1.299v.006h.003zM148.608 6.62h3.418v2.028c.366-.798.862-1.407 1.475-1.819a3.537 3.537 0 012.014-.62c.515 0 1.057.136 1.621.412l-1.24 3.47c-.47-.234-.851-.353-1.152-.353-.613 0-1.131.386-1.555 1.154-.424.769-.636 2.277-.636 4.524l.014.786v6.505h-3.956V6.62h-.006.003zM174.198 15.835h-12.805c.184 1.145.679 2.053 1.481 2.729.802.673 1.828 1.012 3.077 1.012 1.489 0 2.77-.528 3.841-1.584l3.36 1.598c-.836 1.201-1.839 2.094-3.01 2.671-1.169.577-2.556.864-4.163.864-2.492 0-4.52-.794-6.09-2.386-1.567-1.592-2.351-3.585-2.351-5.977 0-2.393.779-4.492 2.343-6.11 1.564-1.619 3.523-2.43 5.878-2.43 2.501 0 4.534.811 6.101 2.43 1.567 1.624 2.352 3.76 2.352 6.42l-.014.769h-.006l.006-.006zm-3.988-3.179a4.05 4.05 0 00-1.558-2.186c-.773-.56-1.673-.844-2.698-.844-1.112 0-2.086.316-2.928.945-.527.395-1.017 1.09-1.464 2.085h8.648zM178.305 18.493c.631 0 1.175.226 1.622.673.447.446.67.994.67 1.632 0 .638-.223 1.19-.67 1.642a2.202 2.202 0 01-1.622.678c-.63 0-1.174-.226-1.621-.678a2.246 2.246 0 01-.67-1.642c0-.643.223-1.183.67-1.632a2.218 2.218 0 011.621-.673zM195.215 6.62h3.974v13.776c0 2.717-.539 4.718-1.622 6C196.118 28.13 193.932 29 191.01 29c-1.558 0-2.864-.194-3.93-.589-1.06-.394-1.959-.971-2.684-1.737-.73-.762-1.269-1.693-1.621-2.784h4.394c.39.453.888.795 1.504 1.03.613.232 1.34.345 2.177.345 1.068 0 1.931-.168 2.584-.502.653-.336 1.111-.768 1.38-1.299.267-.534.404-1.45.404-2.75-.701.711-1.438 1.222-2.203 1.532-.77.31-1.638.467-2.615.467-2.134 0-3.933-.777-5.402-2.338-1.467-1.557-2.203-3.526-2.203-5.913 0-2.549.779-4.602 2.334-6.15 1.41-1.398 3.097-2.097 5.051-2.097a6.61 6.61 0 012.592.51c.814.342 1.63.9 2.443 1.676v-1.78zm-4.13 3.359c-1.258 0-2.292.426-3.111 1.276-.819.853-1.226 1.926-1.226 3.216 0 1.29.421 2.439 1.257 3.294.837.856 1.888 1.285 3.154 1.285s2.258-.417 3.057-1.256c.802-.838 1.206-1.937 1.206-3.294s-.404-2.43-1.215-3.268c-.805-.838-1.847-1.256-3.122-1.256v.003zM210.432 6.21c1.498 0 2.907.382 4.228 1.14a8.155 8.155 0 013.088 3.09 8.385 8.385 0 011.108 4.215 8.555 8.555 0 01-1.117 4.257 8.07 8.07 0 01-3.045 3.094c-1.283.745-2.704 1.116-4.248 1.116-2.277 0-4.222-.82-5.835-2.462-1.613-1.641-2.418-3.63-2.418-5.976 0-2.515.911-4.609 2.73-6.285 1.596-1.459 3.429-2.186 5.506-2.186l.006-.006-.003.003zm.066 3.802c-1.241 0-2.269.435-3.094 1.307-.825.873-1.235 1.987-1.235 3.35s.407 2.532 1.223 3.402c.814.87 1.845 1.299 3.094 1.299 1.249 0 2.286-.438 3.114-1.317.828-.878 1.243-2.004 1.243-3.384s-.407-2.503-1.223-3.361c-.814-.861-1.853-1.296-3.122-1.296zM219.257 6.621h4.061l4.014 9.492 4.004-9.492h4.039l-6.76 16.08h-2.584l-6.777-16.08h.005-.002z" fill="#fff" fill-opacity=".75"/><path d="M236.012 26.598L245.708.206h2.868l-9.714 26.392h-2.85zM252.735.83h11.894v4.06h-7.812v3.97h5.076v4h-5.076v9.842h-4.082V.827.83zM266.725 6.526h3.438v2.036c.372-.804.868-1.413 1.484-1.83a3.533 3.533 0 012.028-.624c.518 0 1.062.14 1.63.418l-1.249 3.494c-.47-.238-.857-.356-1.16-.356-.616 0-1.138.385-1.565 1.16-.426.774-.638 2.29-.638 4.55l.014.788v6.543h-3.979V6.525h-.003zM289.08 6.526h4.011v16.179h-4.011v-1.711c-.782.754-1.567 1.296-2.354 1.627a6.503 6.503 0 01-2.561.498c-2.063 0-3.85-.809-5.354-2.43-1.507-1.62-2.26-3.636-2.26-6.043s.727-4.545 2.186-6.142c1.458-1.595 3.228-2.396 5.31-2.396.96 0 1.859.183 2.699.551.842.368 1.618.917 2.332 1.65V6.526h.002zm-4.213 3.332c-1.241 0-2.269.444-3.088 1.33-.82.888-1.229 2.025-1.229 3.414 0 1.39.418 2.55 1.252 3.451.833.902 1.862 1.354 3.082 1.354 1.22 0 2.303-.443 3.134-1.33.83-.888 1.243-2.05 1.243-3.486 0-1.436-.416-2.547-1.243-3.42-.831-.872-1.88-1.307-3.149-1.307l-.002-.006zM297.129 6.524h4.054v7.792c0 1.517.103 2.57.309 3.16.206.59.539 1.05.994 1.376.456.324 1.017.49 1.687.49.671 0 1.235-.163 1.702-.485.467-.322.813-.794 1.037-1.42.166-.468.249-1.462.249-2.99V6.52h4.01v6.855c0 2.825-.22 4.76-.661 5.8-.539 1.27-1.332 2.242-2.381 2.924-1.048.678-2.38 1.017-3.996 1.017-1.753 0-3.171-.397-4.251-1.189-1.083-.791-1.842-1.9-2.283-3.314-.312-.98-.47-2.767-.47-5.354V6.524zM326.99.278H331v22.423h-4.01v-1.71c-.782.753-1.567 1.295-2.355 1.626a6.5 6.5 0 01-2.561.499c-2.062 0-3.85-.81-5.354-2.43-1.506-1.622-2.26-3.637-2.26-6.044 0-2.407.728-4.544 2.186-6.142 1.458-1.595 3.228-2.396 5.311-2.396.959 0 1.859.183 2.698.551.842.369 1.618.917 2.332 1.65V.275l.003.003zm-4.214 9.576c-1.24 0-2.269.444-3.088 1.331-.819.888-1.229 2.024-1.229 3.413 0 1.39.418 2.55 1.252 3.451.833.902 1.862 1.355 3.082 1.355 1.22 0 2.303-.444 3.134-1.331.831-.888 1.243-2.05 1.243-3.486 0-1.436-.415-2.546-1.243-3.42-.831-.872-1.879-1.307-3.148-1.307l-.003-.006z" fill="#fff"/></svg>