<svg width="231" height="52" viewBox="0 0 231 52" fill="none" xmlns="http://www.w3.org/2000/svg"><rect x="1" y="1" width="229" height="50" rx="7" fill="#55F272" stroke="#BBF2C5" stroke-width="2"/><path d="M33.68 29.055l-1.76-5.02-1.76 5.02h3.52zm1.04 2.98h-5.6l-.9 2.62h-4.18l5.74-15.08h4.28l5.74 15.08h-4.18l-.9-2.62zm11.116-5.54h1.3c1.44 0 2.16-.627 2.16-1.88s-.72-1.88-2.16-1.88h-1.3v3.76zm0 8.16h-3.92v-15.08h6.24c1.693 0 2.987.44 3.88 1.32.907.88 1.36 2.12 1.36 3.72s-.453 2.84-1.36 3.72c-.893.88-2.187 1.32-3.88 1.32h-2.32v5zm13.955-8.34h.74c.773 0 1.366-.16 1.78-.48.413-.32.62-.78.62-1.38 0-.6-.207-1.06-.62-1.38-.414-.32-1.007-.48-1.78-.48h-.74v3.72zm8.62 8.34h-4.88l-3.74-5.8v5.8h-3.92v-15.08h6.1c.84 0 1.573.127 2.2.38.626.24 1.14.573 1.54 1 .413.427.72.92.92 1.48.213.56.32 1.16.32 1.8 0 1.147-.28 2.08-.84 2.8-.547.707-1.36 1.187-2.44 1.44l4.74 6.18zm10.62-11.76h-4.66v2.52h4.4v3.32h-4.4v2.6h4.66v3.32h-8.58v-15.08h8.58v3.32zm3.225 11.76v-15.08h3.92l7.24 9.22v-9.22h3.9v15.08h-3.9l-7.24-9.22v9.22h-3.92zm22.543-3.32h.9c.68 0 1.287-.107 1.82-.32.534-.213.98-.507 1.34-.88.374-.373.654-.813.84-1.32.2-.52.3-1.087.3-1.7 0-.6-.1-1.16-.3-1.68-.2-.52-.486-.967-.86-1.34a3.778 3.778 0 00-1.34-.88c-.533-.213-1.133-.32-1.8-.32h-.9v8.44zm-3.92-11.76h5.8c1.027 0 1.987.207 2.88.62a7.618 7.618 0 012.36 1.66c.68.68 1.214 1.48 1.6 2.4.387.907.58 1.86.58 2.86 0 .987-.193 1.94-.58 2.86a7.433 7.433 0 01-1.58 2.4 7.614 7.614 0 01-2.36 1.66 6.82 6.82 0 01-2.9.62h-5.8v-15.08zm24.703 3.32h-4.66v2.52h4.4v3.32h-4.4v2.6h4.66v3.32h-8.58v-15.08h8.58v3.32zm21.283 1.72c-.907-1.107-2.027-1.66-3.36-1.66-.587 0-1.133.107-1.64.32-.493.213-.92.507-1.28.88-.36.36-.647.793-.86 1.3-.2.507-.3 1.053-.3 1.64 0 .6.1 1.153.3 1.66.213.507.5.947.86 1.32.373.373.807.667 1.3.88.493.213 1.027.32 1.6.32 1.253 0 2.38-.533 3.38-1.6v4.64l-.4.14c-.6.213-1.16.367-1.68.46-.52.107-1.033.16-1.54.16-1.04 0-2.04-.193-3-.58a8.19 8.19 0 01-2.52-1.66 8.513 8.513 0 01-1.74-2.54c-.44-.987-.66-2.06-.66-3.22 0-1.16.213-2.22.64-3.18a8.006 8.006 0 011.74-2.5 7.849 7.849 0 012.54-1.64c.96-.4 1.967-.6 3.02-.6.6 0 1.187.067 1.76.2.587.12 1.2.313 1.84.58v4.68zm6.515 2.5c0 .6.113 1.153.34 1.66.226.507.533.947.92 1.32.386.373.833.667 1.34.88.52.2 1.066.3 1.64.3.573 0 1.113-.1 1.62-.3a4.27 4.27 0 001.36-.88c.4-.373.713-.813.94-1.32.226-.507.34-1.06.34-1.66 0-.6-.114-1.153-.34-1.66a4.053 4.053 0 00-.94-1.32 4.008 4.008 0 00-1.36-.86 4.135 4.135 0 00-1.62-.32c-.574 0-1.12.107-1.64.32a4.04 4.04 0 00-1.34.86 4.183 4.183 0 00-.92 1.32 4.013 4.013 0 00-.34 1.66zm-4.1 0c0-1.12.206-2.16.62-3.12a7.767 7.767 0 011.72-2.54 7.746 7.746 0 012.62-1.68c1.026-.413 2.153-.62 3.38-.62 1.213 0 2.333.207 3.36.62 1.026.4 1.906.96 2.64 1.68a7.654 7.654 0 011.74 2.54c.413.96.62 2 .62 3.12s-.207 2.167-.62 3.14a7.71 7.71 0 01-1.74 2.52 7.976 7.976 0 01-2.64 1.7c-1.027.4-2.147.6-3.36.6-1.227 0-2.354-.2-3.38-.6a8 8 0 01-2.62-1.7 7.824 7.824 0 01-1.72-2.52 7.937 7.937 0 01-.62-3.14zm11.94-11.38l-3.84 2.64-1.52-1.42 3.26-3.12 2.1 1.9zm6.956 18.92l2.56-15.08h3.88l3.02 8.04 3-8.04h3.88l2.56 15.08h-3.9l-1.3-8.68-3.56 8.68h-1.56l-3.38-8.68-1.3 8.68h-3.9zm25.203-7.54c0 .6.113 1.153.34 1.66.227.507.533.947.92 1.32.387.373.833.667 1.34.88.52.2 1.067.3 1.64.3s1.113-.1 1.62-.3a4.27 4.27 0 001.36-.88 4.013 4.013 0 001.28-2.98 4.013 4.013 0 00-1.28-2.98 4.008 4.008 0 00-1.36-.86 4.135 4.135 0 00-1.62-.32c-.573 0-1.12.107-1.64.32a4.05 4.05 0 00-1.34.86 4.199 4.199 0 00-.92 1.32 4.013 4.013 0 00-.34 1.66zm-4.1 0c0-1.12.207-2.16.62-3.12a7.783 7.783 0 011.72-2.54 7.756 7.756 0 012.62-1.68c1.027-.413 2.153-.62 3.38-.62 1.213 0 2.333.207 3.36.62 1.027.4 1.907.96 2.64 1.68a7.625 7.625 0 011.74 2.54c.413.96.62 2 .62 3.12s-.207 2.167-.62 3.14c-.413.96-.993 1.8-1.74 2.52-.733.72-1.613 1.287-2.64 1.7-1.027.4-2.147.6-3.36.6-1.227 0-2.353-.2-3.38-.6a8.011 8.011 0 01-2.62-1.7 7.84 7.84 0 01-1.72-2.52 7.955 7.955 0 01-.62-3.14z" fill="#68222F"/></svg>