<svg width="334" height="34" viewBox="0 0 334 34" fill="none" xmlns="http://www.w3.org/2000/svg"><path d="M7.819 26.526h1.755c1.326 0 2.509-.208 3.549-.624 1.04-.416 1.91-.988 2.613-1.716a7.03 7.03 0 001.638-2.574c.39-1.014.585-2.119.585-3.315 0-1.17-.195-2.262-.585-3.276a7.402 7.402 0 00-1.677-2.613c-.702-.728-1.573-1.3-2.613-1.716-1.04-.416-2.21-.624-3.51-.624H7.819v16.458zM.175 3.594h11.31c2.002 0 3.874.403 5.616 1.209a14.874 14.874 0 014.602 3.237 14.474 14.474 0 013.12 4.68 14.07 14.07 0 011.13 5.577c0 1.924-.376 3.783-1.13 5.577a14.507 14.507 0 01-3.081 4.68 14.873 14.873 0 01-4.602 3.237C15.398 32.597 13.513 33 11.485 33H.175V3.594zm44.62 16.497c-.233-.988-.714-1.781-1.442-2.379-.728-.598-1.612-.897-2.652-.897-1.092 0-1.99.286-2.691.858-.676.572-1.105 1.378-1.287 2.418h8.073zm-8.267 4.095c0 3.042 1.43 4.563 4.29 4.563 1.534 0 2.69-.624 3.47-1.872h6.826c-1.378 4.576-4.823 6.864-10.335 6.864-1.69 0-3.237-.247-4.641-.741-1.404-.52-2.613-1.248-3.627-2.184a9.774 9.774 0 01-2.301-3.354c-.546-1.3-.82-2.756-.82-4.368 0-1.664.26-3.159.78-4.485.52-1.352 1.262-2.496 2.224-3.432.962-.936 2.119-1.651 3.47-2.145 1.379-.52 2.926-.78 4.642-.78 1.69 0 3.21.26 4.563.78 1.352.494 2.496 1.222 3.432 2.184.936.962 1.65 2.145 2.145 3.549.494 1.378.74 2.938.74 4.68v.741H36.529zm27.038-5.304V33h-7.059V18.882h-2.34v-5.889h2.34V6.987h7.06v6.006h4.017v5.889h-4.018zm21.677 1.209c-.234-.988-.715-1.781-1.443-2.379-.728-.598-1.612-.897-2.652-.897-1.092 0-1.989.286-2.69.858-.677.572-1.106 1.378-1.288 2.418h8.073zm-8.268 4.095c0 3.042 1.43 4.563 4.29 4.563 1.534 0 2.691-.624 3.471-1.872h6.825c-1.378 4.576-4.823 6.864-10.335 6.864-1.69 0-3.237-.247-4.64-.741-1.405-.52-2.614-1.248-3.628-2.184a9.774 9.774 0 01-2.3-3.354c-.547-1.3-.82-2.756-.82-4.368 0-1.664.26-3.159.78-4.485.52-1.352 1.261-2.496 2.223-3.432.962-.936 2.12-1.651 3.471-2.145 1.378-.52 2.925-.78 4.641-.78 1.69 0 3.211.26 4.563.78 1.352.494 2.496 1.222 3.432 2.184.936.962 1.651 2.145 2.145 3.549.494 1.378.741 2.938.741 4.68v.741H76.975zM87.622 4.062l-6.786 6.006L77.56 7.65 83.137.825l4.485 3.237zm8.247 8.931h7.059v2.535c.962-1.17 1.937-1.95 2.925-2.34.988-.416 2.145-.624 3.471-.624 1.404 0 2.6.234 3.588.702a6.957 6.957 0 012.574 1.911c.572.676.962 1.43 1.17 2.262.208.832.312 1.781.312 2.847V33h-7.059V22.899c0-.988-.078-1.781-.234-2.379-.13-.624-.377-1.118-.741-1.482a2.675 2.675 0 00-1.053-.663 3.921 3.921 0 00-1.248-.195c-1.196 0-2.119.364-2.769 1.092-.624.702-.936 1.716-.936 3.042V33h-7.059V12.993zm53.778 7.098c-.234-.988-.715-1.781-1.443-2.379-.728-.598-1.612-.897-2.652-.897-1.092 0-1.989.286-2.691.858-.676.572-1.105 1.378-1.287 2.418h8.073zm-8.268 4.095c0 3.042 1.43 4.563 4.29 4.563 1.534 0 2.691-.624 3.471-1.872h6.825c-1.378 4.576-4.823 6.864-10.335 6.864-1.69 0-3.237-.247-4.641-.741-1.404-.52-2.613-1.248-3.627-2.184a9.774 9.774 0 01-2.301-3.354c-.546-1.3-.819-2.756-.819-4.368 0-1.664.26-3.159.78-4.485.52-1.352 1.261-2.496 2.223-3.432.962-.936 2.119-1.651 3.471-2.145 1.378-.52 2.925-.78 4.641-.78 1.69 0 3.211.26 4.563.78 1.352.494 2.496 1.222 3.432 2.184.936.962 1.651 2.145 2.145 3.549.494 1.378.741 2.938.741 4.68v.741h-14.859zM167.331.63V33h-7.059V.63h7.059zm25.722 18.252V33h-7.059V18.882h-2.535v-5.889h2.535V9.99c0-1.664.156-2.99.468-3.978a6.855 6.855 0 011.248-2.301 9.055 9.055 0 011.989-1.872c.78-.52 1.612-.923 2.496-1.209a8.456 8.456 0 012.613-.429c.598 0 1.144.065 1.638.195.52.13 1.04.312 1.56.546v6.162a6.534 6.534 0 00-1.326-.507 3.921 3.921 0 00-1.248-.195c-.286 0-.585.052-.897.156-.286.078-.559.26-.819.546-.26.286-.442.702-.546 1.248-.078.52-.117 1.235-.117 2.145v2.496h4.953v5.889h-4.953zm7.591-5.889h7.059v3.276c.754-1.196 1.677-2.106 2.769-2.73 1.092-.65 2.366-.975 3.822-.975h.585c.234 0 .494.026.78.078v6.747a6.707 6.707 0 00-3.042-.702c-1.638 0-2.873.494-3.705 1.482-.806.962-1.209 2.379-1.209 4.251V33h-7.059V12.993zm24.947 9.945c0 .65.117 1.261.351 1.833.234.546.546 1.027.936 1.443.416.416.897.741 1.443.975a4.794 4.794 0 001.833.351c.624 0 1.209-.117 1.755-.351a4.046 4.046 0 001.443-.975c.416-.416.741-.897.975-1.443a4.03 4.03 0 00.39-1.755 4.03 4.03 0 00-.39-1.755 4.455 4.455 0 00-.975-1.482 4.046 4.046 0 00-1.443-.975 4.408 4.408 0 00-1.755-.351c-.65 0-1.261.117-1.833.351a4.563 4.563 0 00-1.443.975c-.39.416-.702.897-.936 1.443a4.134 4.134 0 00-.351 1.716zm8.892-9.945h7.098V33h-7.098v-2.223c-1.508 1.898-3.549 2.847-6.123 2.847-1.456 0-2.795-.26-4.017-.78a9.937 9.937 0 01-3.198-2.262A10.62 10.62 0 01219 27.189c-.494-1.3-.741-2.717-.741-4.251 0-1.43.247-2.782.741-4.056.494-1.3 1.183-2.431 2.067-3.393a9.505 9.505 0 013.159-2.262c1.222-.572 2.574-.858 4.056-.858 2.496 0 4.563.871 6.201 2.613v-1.989zm18.961 0v11.271c0 2.47 1.196 3.705 3.588 3.705 2.392 0 3.588-1.235 3.588-3.705V12.993h7.059v12.636c0 2.704-.897 4.732-2.691 6.084-1.768 1.352-4.42 2.028-7.956 2.028-3.536 0-6.201-.676-7.995-2.028-1.768-1.352-2.652-3.38-2.652-6.084V12.993h7.059zm25.582 9.945c0 .65.117 1.261.351 1.833.234.546.546 1.027.936 1.443.416.416.897.741 1.443.975a4.794 4.794 0 001.833.351c.624 0 1.209-.117 1.755-.351a4.046 4.046 0 001.443-.975c.416-.416.741-.897.975-1.443a4.03 4.03 0 00.39-1.755 4.03 4.03 0 00-.39-1.755 4.455 4.455 0 00-.975-1.482 4.046 4.046 0 00-1.443-.975 4.408 4.408 0 00-1.755-.351c-.624 0-1.222.117-1.794.351a4.563 4.563 0 00-1.443.975c-.39.416-.715.897-.975 1.443a4.134 4.134 0 00-.351 1.716zM287.918.63h7.098V33h-7.098v-2.223c-1.508 1.898-3.549 2.847-6.123 2.847-1.456 0-2.795-.273-4.017-.819a9.937 9.937 0 01-3.198-2.262 10.62 10.62 0 01-2.145-3.393c-.494-1.3-.741-2.704-.741-4.212 0-1.43.234-2.782.702-4.056.494-1.3 1.183-2.431 2.067-3.393a9.505 9.505 0 013.159-2.262c1.248-.572 2.613-.858 4.095-.858 2.496 0 4.563.871 6.201 2.613V.63zm26.526 19.461c-.234-.988-.715-1.781-1.443-2.379-.728-.598-1.612-.897-2.652-.897-1.092 0-1.989.286-2.691.858-.676.572-1.105 1.378-1.287 2.418h8.073zm-8.268 4.095c0 3.042 1.43 4.563 4.29 4.563 1.534 0 2.691-.624 3.471-1.872h6.825c-1.378 4.576-4.823 6.864-10.335 6.864-1.69 0-3.237-.247-4.641-.741-1.404-.52-2.613-1.248-3.627-2.184a9.774 9.774 0 01-2.301-3.354c-.546-1.3-.819-2.756-.819-4.368 0-1.664.26-3.159.78-4.485.52-1.352 1.261-2.496 2.223-3.432.962-.936 2.119-1.651 3.471-2.145 1.378-.52 2.925-.78 4.641-.78 1.69 0 3.211.26 4.563.78 1.352.494 2.496 1.222 3.432 2.184.936.962 1.651 2.145 2.145 3.549.494 1.378.741 2.938.741 4.68v.741h-14.859zm18.543 5.07c0-.624.117-1.209.351-1.755a4.455 4.455 0 01.975-1.482 4.563 4.563 0 011.443-.975 4.693 4.693 0 011.794-.351c.624 0 1.209.117 1.755.351a4.455 4.455 0 011.482.975c.416.416.741.91.975 1.482.234.546.351 1.131.351 1.755 0 .624-.117 1.222-.351 1.794a4.563 4.563 0 01-.975 1.443c-.416.416-.91.741-1.482.975a4.408 4.408 0 01-1.755.351 4.693 4.693 0 01-1.794-.351 4.563 4.563 0 01-1.443-.975 4.563 4.563 0 01-.975-1.443 4.693 4.693 0 01-.351-1.794z" fill="#fff"/></svg>