<svg width="182" height="31" viewBox="0 0 182 31" fill="none" xmlns="http://www.w3.org/2000/svg"><path d="M7.388 20.676c0 .624.108 1.2.324 1.728.24.504.54.948.9 1.332.384.384.828.684 1.332.9.528.216 1.08.324 1.656.324.576 0 1.116-.108 1.62-.324a3.735 3.735 0 001.332-.9c.384-.384.684-.828.9-1.332a4.04 4.04 0 00.36-1.692 3.72 3.72 0 00-.36-1.62 4.113 4.113 0 00-.9-1.368 3.735 3.735 0 00-1.332-.9 4.069 4.069 0 00-1.62-.324c-.576 0-1.128.108-1.656.324a4.212 4.212 0 00-1.332.9 5.2 5.2 0 00-.9 1.332 4.069 4.069 0 00-.324 1.62zm-6.876-.072c0-1.368.276-2.64.828-3.816a9.176 9.176 0 012.304-3.096c.984-.888 2.148-1.584 3.492-2.088 1.368-.504 2.856-.756 4.464-.756 1.584 0 3.048.252 4.392.756 1.368.48 2.544 1.164 3.528 2.052a8.882 8.882 0 012.34 3.132c.552 1.2.828 2.532.828 3.996s-.288 2.808-.864 4.032a9.557 9.557 0 01-2.304 3.132c-.984.864-2.172 1.536-3.564 2.016-1.368.48-2.856.72-4.464.72-1.584 0-3.048-.24-4.392-.72-1.344-.48-2.508-1.164-3.492-2.052a9.694 9.694 0 01-2.268-3.168c-.552-1.248-.828-2.628-.828-4.14zm51.661-2.52c-.216-.912-.66-1.644-1.332-2.196-.672-.552-1.488-.828-2.448-.828-1.008 0-1.836.264-2.484.792-.624.528-1.02 1.272-1.188 2.232h7.452zm-7.632 3.78c0 2.808 1.32 4.212 3.96 4.212 1.416 0 2.484-.576 3.204-1.728h6.3c-1.272 4.224-4.452 6.336-9.54 6.336-1.56 0-2.988-.228-4.284-.684-1.296-.48-2.412-1.152-3.348-2.016a9.022 9.022 0 01-2.124-3.096c-.504-1.2-.756-2.544-.756-4.032 0-1.536.24-2.916.72-4.14.48-1.248 1.164-2.304 2.052-3.168.888-.864 1.956-1.524 3.204-1.98 1.272-.48 2.7-.72 4.284-.72 1.56 0 2.964.24 4.212.72 1.248.456 2.304 1.128 3.168 2.016.864.888 1.524 1.98 1.98 3.276.456 1.272.684 2.712.684 4.32v.684H44.541zm17.441-10.332h6.516V13.8c1.776-1.704 3.768-2.556 5.976-2.556 2.736 0 4.824 1.152 6.264 3.456 1.464-2.328 3.552-3.492 6.264-3.492.864 0 1.68.132 2.448.396.768.24 1.428.636 1.98 1.188.552.528.984 1.224 1.296 2.088.336.864.504 1.908.504 3.132V30h-6.516v-9.108c0-.936-.072-1.704-.216-2.304-.12-.6-.312-1.068-.576-1.404-.24-.336-.528-.564-.864-.684a3.187 3.187 0 00-1.08-.18c-2.088 0-3.132 1.524-3.132 4.572V30H74.33v-9.108c0-.936-.06-1.704-.18-2.304-.12-.624-.3-1.116-.54-1.476-.216-.36-.504-.6-.864-.72-.36-.144-.78-.216-1.26-.216-.408 0-.792.06-1.152.18-.36.12-.684.36-.972.72-.264.336-.48.816-.648 1.44-.144.6-.216 1.392-.216 2.376V30h-6.516V11.532zm41.767 9.18c0 .6.108 1.164.324 1.692.216.504.504.948.864 1.332.384.384.828.684 1.332.9a4.425 4.425 0 001.692.324c.576 0 1.116-.108 1.62-.324a3.735 3.735 0 001.332-.9c.384-.384.684-.828.9-1.332a3.72 3.72 0 00.36-1.62 3.72 3.72 0 00-.36-1.62 4.113 4.113 0 00-.9-1.368 3.735 3.735 0 00-1.332-.9 4.069 4.069 0 00-1.62-.324c-.6 0-1.164.108-1.692.324a4.212 4.212 0 00-1.332.9 4.55 4.55 0 00-.864 1.332 3.816 3.816 0 00-.324 1.584zm8.208-9.18h6.552V30h-6.552v-2.052c-1.392 1.752-3.276 2.628-5.652 2.628-1.344 0-2.58-.24-3.708-.72a9.176 9.176 0 01-2.952-2.088 9.803 9.803 0 01-1.98-3.132c-.456-1.2-.684-2.508-.684-3.924 0-1.32.228-2.568.684-3.744a9.63 9.63 0 011.908-3.132 8.777 8.777 0 012.916-2.088c1.128-.528 2.376-.792 3.744-.792 2.304 0 4.212.804 5.724 2.412v-1.836zm17.502 0V30h-6.516V11.532h6.516zm-6.948-7.092c0-.504.096-.972.288-1.404a3.68 3.68 0 01.792-1.188c.336-.336.72-.6 1.152-.792a3.673 3.673 0 011.44-.288c.504 0 .972.096 1.404.288a3.68 3.68 0 011.188.792c.336.336.6.732.792 1.188.192.432.288.9.288 1.404 0 .504-.096.984-.288 1.44a3.797 3.797 0 01-.792 1.152 3.68 3.68 0 01-1.188.792c-.432.192-.9.288-1.404.288-.504 0-.984-.096-1.44-.288a3.797 3.797 0 01-1.152-.792c-.336-.336-.6-.72-.792-1.152a3.673 3.673 0 01-.288-1.44zM140.428.12V30h-6.516V.12h6.516zm16.692 16.164c-1.2-.624-2.376-.936-3.528-.936-.6 0-1.092.12-1.476.36-.36.24-.54.564-.54.972 0 .216.024.396.072.54.072.12.204.24.396.36.216.12.516.228.9.324.408.096.936.216 1.584.36 1.8.36 3.144 1.008 4.032 1.944.888.912 1.332 2.088 1.332 3.528 0 1.08-.216 2.052-.648 2.916a6.37 6.37 0 01-1.8 2.196c-.768.576-1.692 1.02-2.772 1.332-1.08.336-2.268.504-3.564.504-2.496 0-4.956-.708-7.38-2.124l2.376-4.608c1.824 1.248 3.552 1.872 5.184 1.872.6 0 1.092-.132 1.476-.396.384-.264.576-.6.576-1.008 0-.24-.036-.432-.108-.576-.048-.168-.168-.312-.36-.432-.192-.144-.48-.264-.864-.36-.36-.12-.84-.24-1.44-.36-2.016-.408-3.432-1.008-4.248-1.8-.792-.816-1.188-1.932-1.188-3.348 0-1.032.192-1.956.576-2.772a5.739 5.739 0 011.656-2.124c.72-.576 1.584-1.02 2.592-1.332 1.032-.312 2.172-.468 3.42-.468 2.04 0 4.02.396 5.94 1.188l-2.196 4.248zm6.438 12.075c0-.547.2-1.02.6-1.42.401-.4.879-.601 1.436-.601.556 0 1.035.2 1.435.6.401.4.601.88.601 1.436 0 .566-.2 1.05-.601 1.45a1.95 1.95 0 01-1.435.586c-.576 0-1.06-.195-1.45-.586-.391-.39-.586-.879-.586-1.465zm7.157 0c0-.547.201-1.02.601-1.42.4-.4.879-.601 1.436-.601.556 0 1.035.2 1.435.6.4.4.601.88.601 1.436 0 .566-.201 1.05-.601 1.45-.391.39-.869.586-1.435.586-.577 0-1.06-.195-1.451-.586-.39-.39-.586-.879-.586-1.465zm7.158 0c0-.547.2-1.02.601-1.42.4-.4.879-.601 1.435-.601.557 0 1.036.2 1.436.6.4.4.601.88.601 1.436 0 .566-.201 1.05-.601 1.45-.391.39-.869.586-1.436.586-.576 0-1.059-.195-1.45-.586-.39-.39-.586-.879-.586-1.465z" fill="#fff"/></svg>