<svg width="392" height="39" viewBox="0 0 392 39" fill="none" xmlns="http://www.w3.org/2000/svg"><path d="M9.031 30.53h2.025c1.53 0 2.895-.24 4.095-.72 1.2-.48 2.205-1.14 3.015-1.98.84-.84 1.47-1.83 1.89-2.97.45-1.17.675-2.445.675-3.825 0-1.35-.225-2.61-.675-3.78a8.54 8.54 0 00-1.935-3.015c-.81-.84-1.815-1.5-3.015-1.98-1.2-.48-2.55-.72-4.05-.72H9.031v18.99zM.211 4.07h13.05c2.31 0 4.47.465 6.48 1.395 2.04.93 3.81 2.175 5.31 3.735 1.53 1.53 2.73 3.33 3.6 5.4a16.235 16.235 0 011.305 6.435c0 2.22-.435 4.365-1.305 6.435a16.739 16.739 0 01-3.555 5.4c-1.5 1.56-3.27 2.805-5.31 3.735-2.01.93-4.185 1.395-6.525 1.395H.211V4.07zm51.936 19.035c-.27-1.14-.825-2.055-1.665-2.745-.84-.69-1.86-1.035-3.06-1.035-1.26 0-2.295.33-3.105.99-.78.66-1.275 1.59-1.485 2.79h9.315zm-9.54 4.725c0 3.51 1.65 5.265 4.95 5.265 1.77 0 3.105-.72 4.005-2.16h7.875c-1.59 5.28-5.565 7.92-11.925 7.92-1.95 0-3.735-.285-5.355-.855-1.62-.6-3.015-1.44-4.185-2.52a11.278 11.278 0 01-2.655-3.87c-.63-1.5-.945-3.18-.945-5.04 0-1.92.3-3.645.9-5.175.6-1.56 1.455-2.88 2.565-3.96 1.11-1.08 2.445-1.905 4.005-2.475 1.59-.6 3.375-.9 5.355-.9 1.95 0 3.705.3 5.265.9 1.56.57 2.88 1.41 3.96 2.52s1.905 2.475 2.475 4.095c.57 1.59.855 3.39.855 5.4v.855H42.607zm31.649-6.12V38H66.11V21.71h-2.7v-6.795h2.7v-6.93h8.145v6.93h4.635v6.795h-4.635zm25.461 1.395c-.27-1.14-.825-2.055-1.665-2.745-.84-.69-1.86-1.035-3.06-1.035-1.26 0-2.295.33-3.105.99-.78.66-1.275 1.59-1.485 2.79h9.315zm-9.54 4.725c0 3.51 1.65 5.265 4.95 5.265 1.77 0 3.105-.72 4.005-2.16h7.875c-1.59 5.28-5.565 7.92-11.925 7.92-1.95 0-3.735-.285-5.355-.855-1.62-.6-3.015-1.44-4.185-2.52a11.278 11.278 0 01-2.655-3.87c-.63-1.5-.945-3.18-.945-5.04 0-1.92.3-3.645.9-5.175.6-1.56 1.455-2.88 2.565-3.96 1.11-1.08 2.445-1.905 4.005-2.475 1.59-.6 3.375-.9 5.355-.9 1.95 0 3.705.3 5.265.9 1.56.57 2.88 1.41 3.96 2.52s1.905 2.475 2.475 4.095c.57 1.59.855 3.39.855 5.4v.855H90.177zm12.285-23.22l-7.83 6.93-3.78-2.79L97.287.875l5.175 3.735zm9.966 10.305h8.145v2.925c1.11-1.35 2.235-2.25 3.375-2.7 1.14-.48 2.475-.72 4.005-.72 1.62 0 3 .27 4.14.81a8.028 8.028 0 012.97 2.205 6.4 6.4 0 011.35 2.61c.24.96.36 2.055.36 3.285V38h-8.145V26.345c0-1.14-.09-2.055-.27-2.745-.15-.72-.435-1.29-.855-1.71a3.086 3.086 0 00-1.215-.765c-.45-.15-.93-.225-1.44-.225-1.38 0-2.445.42-3.195 1.26-.72.81-1.08 1.98-1.08 3.51V38h-8.145V14.915zm62.951 8.19c-.27-1.14-.825-2.055-1.665-2.745-.84-.69-1.86-1.035-3.06-1.035-1.26 0-2.295.33-3.105.99-.78.66-1.275 1.59-1.485 2.79h9.315zm-9.54 4.725c0 3.51 1.65 5.265 4.95 5.265 1.77 0 3.105-.72 4.005-2.16h7.875c-1.59 5.28-5.565 7.92-11.925 7.92-1.95 0-3.735-.285-5.355-.855-1.62-.6-3.015-1.44-4.185-2.52a11.278 11.278 0 01-2.655-3.87c-.63-1.5-.945-3.18-.945-5.04 0-1.92.3-3.645.9-5.175.6-1.56 1.455-2.88 2.565-3.96 1.11-1.08 2.445-1.905 4.005-2.475 1.59-.6 3.375-.9 5.355-.9 1.95 0 3.705.3 5.265.9 1.56.57 2.88 1.41 3.96 2.52s1.905 2.475 2.475 4.095c.57 1.59.855 3.39.855 5.4v.855h-17.145zM196.234.65V38h-8.145V.65h8.145zm30.579 21.06V38h-8.145V21.71h-2.925v-6.795h2.925V11.45c0-1.92.18-3.45.54-4.59.3-.96.78-1.845 1.44-2.655.66-.84 1.425-1.56 2.295-2.16.9-.6 1.86-1.065 2.88-1.395a9.757 9.757 0 013.015-.495c.69 0 1.32.075 1.89.225.6.15 1.2.36 1.8.63v7.11a7.54 7.54 0 00-1.53-.585c-.45-.15-.93-.225-1.44-.225-.33 0-.675.06-1.035.18-.33.09-.645.3-.945.63-.3.33-.51.81-.63 1.44-.09.6-.135 1.425-.135 2.475v2.88h5.715v6.795h-5.715zm9.208-6.795h8.145v3.78c.87-1.38 1.935-2.43 3.195-3.15 1.26-.75 2.73-1.125 4.41-1.125h.675c.27 0 .57.03.9.09v7.785a7.739 7.739 0 00-3.51-.81c-1.89 0-3.315.57-4.275 1.71-.93 1.11-1.395 2.745-1.395 4.905V38h-8.145V14.915zm29.236 11.475c0 .75.135 1.455.405 2.115.27.63.63 1.185 1.08 1.665.48.48 1.035.855 1.665 1.125.66.27 1.365.405 2.115.405.72 0 1.395-.135 2.025-.405a4.669 4.669 0 001.665-1.125c.48-.48.855-1.035 1.125-1.665.3-.63.45-1.305.45-2.025s-.15-1.395-.45-2.025a5.14 5.14 0 00-1.125-1.71 4.669 4.669 0 00-1.665-1.125 5.086 5.086 0 00-2.025-.405c-.75 0-1.455.135-2.115.405-.63.27-1.185.645-1.665 1.125-.45.48-.81 1.035-1.08 1.665a4.77 4.77 0 00-.405 1.98zm10.26-11.475h8.19V38h-8.19v-2.565c-1.74 2.19-4.095 3.285-7.065 3.285-1.68 0-3.225-.3-4.635-.9-1.41-.63-2.64-1.5-3.69-2.61-1.05-1.11-1.875-2.415-2.475-3.915-.57-1.5-.855-3.135-.855-4.905 0-1.65.285-3.21.855-4.68.57-1.5 1.365-2.805 2.385-3.915a10.968 10.968 0 013.645-2.61c1.41-.66 2.97-.99 4.68-.99 2.88 0 5.265 1.005 7.155 3.015v-2.295zm22.328 0V27.92c0 2.85 1.38 4.275 4.14 4.275s4.14-1.425 4.14-4.275V14.915h8.145v14.58c0 3.12-1.035 5.46-3.105 7.02-2.04 1.56-5.1 2.34-9.18 2.34s-7.155-.78-9.225-2.34c-2.04-1.56-3.06-3.9-3.06-7.02v-14.58h8.145zm29.967 11.475c0 .75.135 1.455.405 2.115.27.63.63 1.185 1.08 1.665.48.48 1.035.855 1.665 1.125.66.27 1.365.405 2.115.405.72 0 1.395-.135 2.025-.405a4.669 4.669 0 001.665-1.125c.48-.48.855-1.035 1.125-1.665.3-.63.45-1.305.45-2.025s-.15-1.395-.45-2.025a5.14 5.14 0 00-1.125-1.71 4.669 4.669 0 00-1.665-1.125 5.086 5.086 0 00-2.025-.405c-.72 0-1.41.135-2.07.405-.63.27-1.185.645-1.665 1.125a6.5 6.5 0 00-1.125 1.665 4.77 4.77 0 00-.405 1.98zM338.072.65h8.19V38h-8.19v-2.565c-1.74 2.19-4.095 3.285-7.065 3.285-1.68 0-3.225-.315-4.635-.945-1.41-.63-2.64-1.5-3.69-2.61-1.05-1.11-1.875-2.415-2.475-3.915-.57-1.5-.855-3.12-.855-4.86 0-1.65.27-3.21.81-4.68.57-1.5 1.365-2.805 2.385-3.915a10.968 10.968 0 013.645-2.61c1.44-.66 3.015-.99 4.725-.99 2.88 0 5.265 1.005 7.155 3.015V.65zm31.058 22.455c-.27-1.14-.825-2.055-1.665-2.745-.84-.69-1.86-1.035-3.06-1.035-1.26 0-2.295.33-3.105.99-.78.66-1.275 1.59-1.485 2.79h9.315zm-9.54 4.725c0 3.51 1.65 5.265 4.95 5.265 1.77 0 3.105-.72 4.005-2.16h7.875c-1.59 5.28-5.565 7.92-11.925 7.92-1.95 0-3.735-.285-5.355-.855-1.62-.6-3.015-1.44-4.185-2.52a11.278 11.278 0 01-2.655-3.87c-.63-1.5-.945-3.18-.945-5.04 0-1.92.3-3.645.9-5.175.6-1.56 1.455-2.88 2.565-3.96 1.11-1.08 2.445-1.905 4.005-2.475 1.59-.6 3.375-.9 5.355-.9 1.95 0 3.705.3 5.265.9 1.56.57 2.88 1.41 3.96 2.52s1.905 2.475 2.475 4.095c.57 1.59.855 3.39.855 5.4v.855H359.59zm21.846 5.85c0-.72.135-1.395.405-2.025a5.14 5.14 0 011.125-1.71 5.266 5.266 0 011.665-1.125c.66-.27 1.35-.405 2.07-.405.72 0 1.395.135 2.025.405.66.27 1.23.645 1.71 1.125s.855 1.05 1.125 1.71c.27.63.405 1.305.405 2.025s-.135 1.41-.405 2.07a5.266 5.266 0 01-1.125 1.665 5.14 5.14 0 01-1.71 1.125c-.63.27-1.305.405-2.025.405s-1.41-.135-2.07-.405a5.266 5.266 0 01-1.665-1.125 5.266 5.266 0 01-1.125-1.665 5.415 5.415 0 01-.405-2.07z" fill="#fff"/></svg>