<svg width="468" height="40" viewBox="0 0 468 40" fill="none" xmlns="http://www.w3.org/2000/svg"><path d="M.162 30V1.819L19.405 21.95V3.613h3.982v27.993L4.144 11.526V30H.162zm28.283-8.442c0-2.404.86-4.45 2.58-6.136 1.721-1.686 3.818-2.529 6.29-2.529 2.484 0 4.591.849 6.323 2.546 1.71 1.698 2.564 3.783 2.564 6.255 0 2.495-.86 4.586-2.58 6.272-1.733 1.675-3.858 2.512-6.375 2.512-2.495 0-4.586-.854-6.272-2.563-1.687-1.686-2.53-3.805-2.53-6.357zm3.931.068c0 1.663.444 2.98 1.333 3.948.911.98 2.113 1.47 3.606 1.47 1.504 0 2.706-.485 3.606-1.453.9-.969 1.35-2.262 1.35-3.88 0-1.617-.45-2.91-1.35-3.879-.912-.98-2.114-1.47-3.606-1.47-1.47 0-2.66.49-3.572 1.47-.911.98-1.367 2.244-1.367 3.794zm28.71-8.272h3.846v1.487c.706-.74 1.333-1.247 1.88-1.52.558-.285 1.22-.428 1.982-.428 1.014 0 2.074.33 3.18.991l-1.761 3.52c-.73-.523-1.441-.785-2.136-.785-2.097 0-3.145 1.583-3.145 4.75V30h-3.845V13.355zm28.011 9.229H77.17c.102 1.367.546 2.455 1.332 3.264.787.798 1.795 1.197 3.025 1.197.957 0 1.75-.228 2.376-.684.615-.456 1.316-1.299 2.102-2.53l3.247 1.812a13.238 13.238 0 01-1.59 2.205 8.803 8.803 0 01-1.794 1.504 7.338 7.338 0 01-2.068.854c-.74.182-1.544.274-2.41.274-2.483 0-4.477-.798-5.98-2.393-1.505-1.606-2.257-3.737-2.257-6.392 0-2.631.73-4.762 2.188-6.391 1.47-1.607 3.418-2.41 5.845-2.41 2.45 0 4.386.78 5.81 2.341 1.413 1.55 2.12 3.697 2.12 6.443l-.018.906zm-3.948-3.144c-.535-2.051-1.828-3.077-3.879-3.077-.467 0-.906.074-1.316.223a3.63 3.63 0 00-1.128.615c-.33.262-.615.58-.854.957-.24.376-.422.803-.547 1.282h7.724zm17.842-3.248l-3.178 1.692c-.502-1.025-1.123-1.538-1.863-1.538-.353 0-.655.12-.906.36-.25.227-.376.523-.376.888 0 .638.74 1.27 2.222 1.897 2.039.877 3.412 1.686 4.118 2.427.707.74 1.06 1.737 1.06 2.99 0 1.607-.593 2.951-1.777 4.033-1.151 1.026-2.541 1.538-4.17 1.538-2.792 0-4.768-1.361-5.93-4.084l3.28-1.521c.456.798.804 1.305 1.043 1.521.467.433 1.026.65 1.675.65 1.299 0 1.948-.593 1.948-1.778 0-.683-.501-1.321-1.504-1.914a54.233 54.233 0 00-1.162-.564c-.387-.182-.78-.37-1.179-.564-1.117-.547-1.903-1.094-2.358-1.64-.581-.695-.872-1.59-.872-2.684 0-1.447.496-2.643 1.487-3.588 1.014-.946 2.244-1.419 3.691-1.419 2.131 0 3.714 1.1 4.751 3.298zm8.391 22.867h-3.845V13.355h3.845v1.811c1.516-1.515 3.236-2.273 5.161-2.273 2.29 0 4.176.843 5.657 2.53 1.504 1.674 2.256 3.788 2.256 6.34 0 2.495-.746 4.574-2.239 6.237-1.481 1.652-3.349 2.479-5.605 2.479-1.948 0-3.692-.78-5.23-2.342v10.92zm9.143-17.278c0-1.595-.433-2.894-1.298-3.897-.878-1.014-1.983-1.52-3.316-1.52-1.413 0-2.558.49-3.435 1.469-.877.98-1.316 2.267-1.316 3.862 0 1.561.439 2.849 1.316 3.863.866.99 2.005 1.487 3.418 1.487 1.333 0 2.432-.502 3.298-1.504.889-1.003 1.333-2.256 1.333-3.76zm7.212-.222c0-2.404.86-4.45 2.581-6.136 1.72-1.686 3.817-2.529 6.289-2.529 2.484 0 4.591.849 6.323 2.546 1.709 1.698 2.564 3.783 2.564 6.255 0 2.495-.861 4.586-2.581 6.272-1.732 1.675-3.857 2.512-6.374 2.512-2.496 0-4.586-.854-6.272-2.563-1.687-1.686-2.53-3.805-2.53-6.357zm3.931.068c0 1.663.444 2.98 1.333 3.948.911.98 2.113 1.47 3.606 1.47 1.504 0 2.706-.485 3.606-1.453.9-.969 1.35-2.262 1.35-3.88 0-1.617-.45-2.91-1.35-3.879-.912-.98-2.114-1.47-3.606-1.47-1.47 0-2.66.49-3.572 1.47-.911.98-1.367 2.244-1.367 3.794zm17.91-8.272h3.862v1.539c1.345-1.333 2.86-2 4.546-2 1.937 0 3.447.61 4.529 1.829.934 1.037 1.402 2.728 1.402 5.075V30h-3.863v-9.297c0-1.64-.228-2.774-.683-3.4-.445-.639-1.254-.958-2.427-.958-1.276 0-2.182.422-2.717 1.265-.525.832-.787 2.284-.787 4.358V30h-3.862V13.355zm31.48-12.219h3.862V30h-3.862v-1.743c-1.516 1.481-3.23 2.221-5.144 2.221-2.279 0-4.17-.831-5.674-2.495-1.493-1.697-2.239-3.816-2.239-6.357 0-2.484.746-4.557 2.239-6.22 1.481-1.676 3.344-2.513 5.588-2.513 1.948 0 3.692.798 5.23 2.393V1.136zm-9.126 20.491c0 1.595.427 2.894 1.281 3.896.878 1.015 1.983 1.522 3.316 1.522 1.424 0 2.575-.49 3.452-1.47.877-1.014 1.316-2.302 1.316-3.863 0-1.56-.439-2.848-1.316-3.862-.877-.991-2.017-1.487-3.418-1.487-1.322 0-2.427.502-3.315 1.504-.878 1.014-1.316 2.268-1.316 3.76zm30.112-8.272h3.862V30h-3.862v-1.743c-1.584 1.481-3.287 2.221-5.11 2.221-2.301 0-4.204-.831-5.708-2.495-1.492-1.697-2.239-3.816-2.239-6.357 0-2.495.747-4.574 2.239-6.238 1.493-1.663 3.361-2.495 5.606-2.495 1.936 0 3.674.798 5.212 2.393v-1.931zm-9.126 8.272c0 1.595.427 2.894 1.282 3.896.877 1.015 1.982 1.522 3.315 1.522 1.424 0 2.575-.49 3.452-1.47.878-1.014 1.316-2.302 1.316-3.863 0-1.56-.438-2.848-1.316-3.862-.877-.991-2.016-1.487-3.418-1.487-1.321 0-2.426.502-3.315 1.504-.877 1.014-1.316 2.268-1.316 3.76zm27.515-5.435l-3.179 1.692c-.501-1.025-1.122-1.538-1.863-1.538-.353 0-.655.12-.906.36-.25.227-.376.523-.376.888 0 .638.741 1.27 2.222 1.897 2.039.877 3.412 1.686 4.119 2.427.706.74 1.059 1.737 1.059 2.99 0 1.607-.592 2.951-1.777 4.033-1.151 1.026-2.541 1.538-4.17 1.538-2.791 0-4.768-1.361-5.93-4.084l3.281-1.521c.456.798.803 1.305 1.043 1.521.467.433 1.025.65 1.674.65 1.299 0 1.949-.593 1.949-1.778 0-.683-.502-1.321-1.504-1.914a56.637 56.637 0 00-1.162-.564c-.388-.182-.781-.37-1.18-.564-1.116-.547-1.902-1.094-2.358-1.64-.581-.695-.872-1.59-.872-2.684 0-1.447.496-2.643 1.487-3.588 1.014-.946 2.245-1.419 3.692-1.419 2.13 0 3.714 1.1 4.751 3.298zm27.617-2.836h3.862V30h-3.862v-1.743c-1.584 1.481-3.287 2.221-5.11 2.221-2.301 0-4.204-.831-5.708-2.495-1.493-1.697-2.239-3.816-2.239-6.357 0-2.495.746-4.574 2.239-6.238 1.492-1.663 3.361-2.495 5.605-2.495 1.937 0 3.675.798 5.213 2.393v-1.931zm-9.126 8.271c0 1.595.427 2.894 1.282 3.896.877 1.015 1.982 1.522 3.315 1.522 1.424 0 2.575-.49 3.452-1.47.877-1.014 1.316-2.302 1.316-3.863 0-1.56-.439-2.848-1.316-3.862-.877-.991-2.016-1.487-3.418-1.487-1.321 0-2.427.502-3.315 1.504-.878 1.014-1.316 2.268-1.316 3.76z" fill="#fff" fill-opacity=".75"/><path d="M274.345.95V30h-6.335V.95h6.335zm11.364 0V30h-6.335V.95h6.335zm10.909 20.02c0 .583.105 1.132.315 1.645.21.49.49.922.84 1.295.373.373.805.665 1.295.875.513.21 1.061.315 1.645.315.56 0 1.085-.105 1.575-.315.513-.21.945-.502 1.295-.875a4.1 4.1 0 00.875-1.295c.233-.49.35-1.015.35-1.575s-.117-1.085-.35-1.575a4.003 4.003 0 00-.875-1.33 3.635 3.635 0 00-1.295-.875 3.956 3.956 0 00-1.575-.315c-.584 0-1.132.105-1.645.315-.49.21-.922.502-1.295.875-.35.373-.63.805-.84 1.295a3.71 3.71 0 00-.315 1.54zm7.98-8.925h6.37V30h-6.37v-1.995c-1.354 1.703-3.185 2.555-5.495 2.555-1.307 0-2.509-.233-3.605-.7a8.908 8.908 0 01-2.87-2.03 9.513 9.513 0 01-1.925-3.045c-.444-1.167-.665-2.438-.665-3.815 0-1.283.221-2.497.665-3.64a9.344 9.344 0 011.855-3.045 8.524 8.524 0 012.835-2.03c1.096-.513 2.31-.77 3.64-.77 2.24 0 4.095.782 5.565 2.345v-1.785zm11.381 0h6.335v2.205c1.726-1.657 3.663-2.485 5.81-2.485 2.66 0 4.69 1.12 6.09 3.36 1.423-2.263 3.453-3.395 6.09-3.395.84 0 1.633.128 2.38.385a4.637 4.637 0 011.925 1.155c.536.513.956 1.19 1.26 2.03.326.84.49 1.855.49 3.045V30h-6.335v-8.855c0-.91-.07-1.657-.21-2.24-.117-.583-.304-1.038-.56-1.365-.234-.327-.514-.548-.84-.665a3.1 3.1 0 00-1.05-.175c-2.03 0-3.045 1.482-3.045 4.445V30h-6.335v-8.855c0-.91-.059-1.657-.175-2.24-.117-.607-.292-1.085-.525-1.435-.21-.35-.49-.583-.84-.7-.35-.14-.759-.21-1.225-.21-.397 0-.77.058-1.12.175-.35.117-.665.35-.945.7-.257.327-.467.793-.63 1.4-.14.583-.21 1.353-.21 2.31V30h-6.335V12.045zm41.306 8.925c0 .583.105 1.132.315 1.645.21.49.49.922.84 1.295.374.373.805.665 1.295.875.514.21 1.062.315 1.645.315.56 0 1.085-.105 1.575-.315.514-.21.945-.502 1.295-.875.374-.373.665-.805.875-1.295.234-.49.35-1.015.35-1.575s-.116-1.085-.35-1.575a3.988 3.988 0 00-.875-1.33 3.626 3.626 0 00-1.295-.875 3.956 3.956 0 00-1.575-.315c-.583 0-1.131.105-1.645.315-.49.21-.921.502-1.295.875-.35.373-.63.805-.84 1.295a3.71 3.71 0 00-.315 1.54zm7.98-8.925h6.37V30h-6.37v-1.995c-1.353 1.703-3.185 2.555-5.495 2.555-1.306 0-2.508-.233-3.605-.7a8.93 8.93 0 01-2.87-2.03 9.547 9.547 0 01-1.925-3.045c-.443-1.167-.665-2.438-.665-3.815 0-1.283.222-2.497.665-3.64a9.378 9.378 0 011.855-3.045 8.544 8.544 0 012.835-2.03c1.097-.513 2.31-.77 3.64-.77 2.24 0 4.095.782 5.565 2.345v-1.785zm17.261 8.925c0 .583.105 1.132.315 1.645.21.49.49.922.84 1.295.374.373.805.665 1.295.875.514.21 1.062.315 1.645.315.56 0 1.085-.105 1.575-.315.514-.21.945-.502 1.295-.875.374-.373.665-.805.875-1.295.234-.49.35-1.015.35-1.575s-.116-1.085-.35-1.575a3.988 3.988 0 00-.875-1.33 3.626 3.626 0 00-1.295-.875 3.956 3.956 0 00-1.575-.315c-.56 0-1.096.105-1.61.315-.49.21-.921.502-1.295.875-.35.373-.641.805-.875 1.295a3.71 3.71 0 00-.315 1.54zm7.98-20.02h6.37V30h-6.37v-1.995c-1.353 1.703-3.185 2.555-5.495 2.555-1.306 0-2.508-.245-3.605-.735a8.93 8.93 0 01-2.87-2.03 9.547 9.547 0 01-1.925-3.045c-.443-1.167-.665-2.427-.665-3.78 0-1.283.21-2.497.63-3.64a9.378 9.378 0 011.855-3.045 8.544 8.544 0 012.835-2.03c1.12-.513 2.345-.77 3.675-.77 2.24 0 4.095.782 5.565 2.345V.95zm17.261 20.02c0 .583.105 1.132.315 1.645.21.49.49.922.84 1.295.374.373.805.665 1.295.875.514.21 1.062.315 1.645.315.56 0 1.085-.105 1.575-.315.514-.21.945-.502 1.295-.875.374-.373.665-.805.875-1.295.234-.49.35-1.015.35-1.575s-.116-1.085-.35-1.575a3.988 3.988 0 00-.875-1.33 3.626 3.626 0 00-1.295-.875 3.956 3.956 0 00-1.575-.315c-.583 0-1.131.105-1.645.315-.49.21-.921.502-1.295.875-.35.373-.63.805-.84 1.295a3.71 3.71 0 00-.315 1.54zm7.98-8.925h6.37V30h-6.37v-1.995c-1.353 1.703-3.185 2.555-5.495 2.555-1.306 0-2.508-.233-3.605-.7a8.93 8.93 0 01-2.87-2.03 9.547 9.547 0 01-1.925-3.045c-.443-1.167-.665-2.438-.665-3.815 0-1.283.222-2.497.665-3.64a9.378 9.378 0 011.855-3.045 8.544 8.544 0 012.835-2.03c1.097-.513 2.31-.77 3.64-.77 2.24 0 4.095.782 5.565 2.345v-1.785zm23.281 4.62c-1.166-.607-2.31-.91-3.43-.91-.583 0-1.061.117-1.435.35-.35.233-.525.548-.525.945 0 .21.024.385.07.525.07.117.199.233.385.35.21.117.502.222.875.315.397.093.91.21 1.54.35 1.75.35 3.057.98 3.92 1.89.864.887 1.295 2.03 1.295 3.43 0 1.05-.21 1.995-.63 2.835a6.19 6.19 0 01-1.75 2.135c-.746.56-1.645.992-2.695 1.295-1.05.327-2.205.49-3.465.49-2.426 0-4.818-.688-7.175-2.065l2.31-4.48c1.774 1.213 3.454 1.82 5.04 1.82.584 0 1.062-.128 1.435-.385.374-.257.56-.583.56-.98 0-.233-.035-.42-.105-.56-.046-.163-.163-.303-.35-.42-.186-.14-.466-.257-.84-.35-.35-.117-.816-.233-1.4-.35-1.96-.397-3.336-.98-4.13-1.75-.77-.793-1.155-1.878-1.155-3.255 0-1.003.187-1.902.56-2.695a5.586 5.586 0 011.61-2.065c.7-.56 1.54-.992 2.52-1.295 1.004-.303 2.112-.455 3.325-.455 1.984 0 3.909.385 5.775 1.155l-2.135 4.13zm7.463 11.42c0-.637.233-1.19.701-1.657a2.284 2.284 0 011.674-.7c.65 0 1.208.233 1.675.7.467.467.701 1.026.701 1.675 0 .66-.234 1.225-.701 1.692a2.278 2.278 0 01-1.675.683c-.672 0-1.236-.227-1.692-.683-.455-.456-.683-1.026-.683-1.71zm8.001 0c0-.637.233-1.19.7-1.657a2.288 2.288 0 011.675-.7c.65 0 1.208.233 1.675.7.467.467.701 1.026.701 1.675 0 .66-.234 1.225-.701 1.692a2.278 2.278 0 01-1.675.683c-.672 0-1.236-.227-1.692-.683-.455-.456-.683-1.026-.683-1.71zm8 0c0-.637.234-1.19.701-1.657a2.287 2.287 0 011.675-.7c.649 0 1.208.233 1.675.7.467.467.7 1.026.7 1.675 0 .66-.233 1.225-.7 1.692a2.278 2.278 0 01-1.675.683c-.672 0-1.236-.227-1.692-.683-.456-.456-.684-1.026-.684-1.71z" fill="#fff"/></svg>