<svg width="220" height="296" viewBox="0 0 220 296" fill="none" xmlns="http://www.w3.org/2000/svg"><path d="M49.653 27.31H36.098L32.57 35h-5.147L43.09 1.347 58.205 35h-5.23l-3.322-7.69zm-1.948-4.492L43.01 12.052l-4.922 10.766h9.618zM65.916 45.87h-4.614V15.025h4.614V17.2c1.818-1.818 3.883-2.727 6.193-2.727 2.748 0 5.011 1.011 6.788 3.035 1.805 2.01 2.707 4.546 2.707 7.608 0 2.994-.895 5.49-2.686 7.486-1.777 1.982-4.02 2.973-6.727 2.973-2.338 0-4.43-.936-6.275-2.81V45.87zm10.972-20.733c0-1.914-.52-3.473-1.559-4.676-1.053-1.217-2.379-1.825-3.978-1.825-1.696 0-3.07.588-4.123 1.763-1.052 1.176-1.579 2.721-1.579 4.635 0 1.873.527 3.418 1.58 4.635 1.039 1.19 2.406 1.784 4.101 1.784 1.6 0 2.919-.601 3.958-1.805 1.067-1.203 1.6-2.707 1.6-4.511zm9.597-10.11H91.1v1.784c.847-.89 1.6-1.497 2.256-1.826.67-.341 1.462-.512 2.378-.512 1.217 0 2.489.396 3.815 1.19l-2.113 4.224c-.875-.63-1.729-.944-2.563-.944-2.516 0-3.773 1.9-3.773 5.702V35h-4.615V15.025zM120.098 26.1h-14.315c.123 1.64.656 2.946 1.6 3.917.943.957 2.153 1.435 3.63 1.435 1.148 0 2.098-.273 2.85-.82.739-.547 1.579-1.559 2.523-3.035l3.896 2.173c-.601 1.026-1.237 1.908-1.907 2.646a10.58 10.58 0 01-2.153 1.805 8.814 8.814 0 01-2.482 1.025c-.888.219-1.852.328-2.891.328-2.981 0-5.373-.957-7.178-2.87-1.805-1.929-2.707-4.485-2.707-7.67 0-3.159.875-5.716 2.625-7.67 1.764-1.929 4.101-2.892 7.014-2.892 2.939 0 5.263.936 6.972 2.81 1.696 1.859 2.543 4.436 2.543 7.73l-.02 1.088zm-4.738-3.774c-.642-2.46-2.194-3.691-4.655-3.691-.56 0-1.087.089-1.579.266a4.37 4.37 0 00-1.354.739 4.615 4.615 0 00-1.025 1.148 5.377 5.377 0 00-.656 1.538h9.269zm9.803-7.3h4.635v1.845c1.613-1.6 3.431-2.4 5.455-2.4 2.324 0 4.136.732 5.435 2.195 1.121 1.244 1.681 3.274 1.681 6.09V35h-4.635V23.844c0-1.969-.273-3.33-.82-4.081-.533-.766-1.504-1.149-2.912-1.149-1.531 0-2.618.506-3.261 1.518-.629.998-.943 2.741-.943 5.23V35h-4.635V15.025zM162.938.361h4.635V35h-4.635v-2.092c-1.818 1.777-3.876 2.666-6.172 2.666-2.735 0-5.004-.998-6.809-2.994-1.791-2.037-2.686-4.58-2.686-7.629 0-2.98.895-5.469 2.686-7.465 1.777-2.01 4.013-3.014 6.706-3.014 2.338 0 4.43.957 6.275 2.87V.363zm-10.951 24.59c0 1.913.513 3.472 1.538 4.675 1.053 1.217 2.379 1.825 3.979 1.825 1.709 0 3.09-.588 4.142-1.764 1.053-1.216 1.58-2.761 1.58-4.634 0-1.873-.527-3.418-1.58-4.635-1.052-1.19-2.419-1.784-4.101-1.784-1.586 0-2.912.601-3.979 1.804-1.052 1.217-1.579 2.721-1.579 4.512zm39.601 1.148h-14.315c.123 1.64.657 2.946 1.6 3.917.943.957 2.153 1.435 3.63 1.435 1.148 0 2.099-.273 2.851-.82.738-.547 1.579-1.559 2.522-3.035l3.896 2.173c-.601 1.026-1.237 1.908-1.907 2.646a10.553 10.553 0 01-2.153 1.805 8.814 8.814 0 01-2.482 1.025c-.888.219-1.852.328-2.891.328-2.981 0-5.373-.957-7.178-2.87-1.805-1.929-2.707-4.485-2.707-7.67 0-3.159.875-5.716 2.625-7.67 1.764-1.929 4.102-2.892 7.014-2.892 2.939 0 5.263.936 6.972 2.81 1.696 1.859 2.543 4.436 2.543 7.73l-.02 1.088zm-4.737-3.774c-.643-2.46-2.195-3.691-4.656-3.691-.56 0-1.087.089-1.579.266-.492.164-.943.41-1.353.739a4.599 4.599 0 00-1.026 1.148 5.377 5.377 0 00-.656 1.538h9.27zM77.072 67.886v6.133c-1.053-1.286-1.996-2.167-2.83-2.646-.82-.492-1.784-.738-2.891-.738-1.737 0-3.18.608-4.328 1.825-1.148 1.217-1.722 2.741-1.722 4.573 0 1.873.553 3.411 1.66 4.614 1.122 1.204 2.55 1.805 4.287 1.805 1.108 0 2.085-.24 2.933-.718.82-.465 1.784-1.367 2.891-2.707v6.091c-1.873.97-3.746 1.456-5.619 1.456-3.09 0-5.674-.998-7.752-2.994-2.078-2.01-3.117-4.505-3.117-7.485 0-2.98 1.053-5.496 3.158-7.547 2.106-2.05 4.69-3.076 7.752-3.076 1.969 0 3.828.471 5.578 1.415zM80.6 76.87c0-2.885 1.032-5.339 3.096-7.362 2.065-2.024 4.58-3.035 7.547-3.035 2.98 0 5.51 1.018 7.588 3.055 2.051 2.037 3.076 4.54 3.076 7.506 0 2.994-1.032 5.503-3.096 7.527-2.079 2.01-4.628 3.014-7.65 3.014-2.994 0-5.503-1.025-7.526-3.076-2.024-2.023-3.035-4.566-3.035-7.629zm4.716.082c0 1.996.534 3.575 1.6 4.738 1.094 1.175 2.536 1.763 4.327 1.763 1.805 0 3.247-.58 4.327-1.743 1.08-1.162 1.62-2.714 1.62-4.655 0-1.942-.54-3.493-1.62-4.656-1.093-1.175-2.536-1.763-4.327-1.763-1.763 0-3.192.588-4.286 1.763-1.094 1.176-1.64 2.694-1.64 4.553zm12.859-19.77L90.71 63.95l-2.522-1.558 5.64-7.465 4.347 2.256zm8.634 9.844h4.614v1.846c.889-.93 1.647-1.558 2.276-1.887.67-.341 1.511-.512 2.523-.512 2.256 0 4.04.984 5.352 2.953 1.449-1.969 3.411-2.953 5.886-2.953 4.498 0 6.747 2.727 6.747 8.182V87h-4.635V75.905c0-1.914-.232-3.267-.697-4.06-.479-.807-1.265-1.21-2.358-1.21-1.272 0-2.202.478-2.789 1.435-.575.957-.862 2.495-.862 4.615V87h-4.635V75.967c0-3.555-1.025-5.332-3.076-5.332-1.299 0-2.249.485-2.85 1.456-.588.97-.882 2.502-.882 4.594V87h-4.614V67.025zm32.279 9.844c0-2.885 1.032-5.339 3.097-7.362 2.064-2.024 4.58-3.035 7.546-3.035 2.981 0 5.51 1.018 7.588 3.055 2.051 2.037 3.077 4.54 3.077 7.506 0 2.994-1.033 5.503-3.097 7.527-2.078 2.01-4.628 3.014-7.65 3.014-2.994 0-5.503-1.025-7.526-3.076-2.023-2.023-3.035-4.566-3.035-7.629zm4.717.082c0 1.996.533 3.575 1.599 4.738 1.094 1.175 2.536 1.763 4.327 1.763 1.805 0 3.248-.58 4.328-1.743 1.08-1.162 1.62-2.714 1.62-4.655 0-1.942-.54-3.493-1.62-4.656-1.094-1.175-2.537-1.763-4.328-1.763-1.763 0-3.192.588-4.286 1.763-1.093 1.176-1.64 2.694-1.64 4.553zM17.087 149.87h-4.614v-30.844h4.614v2.174c1.818-1.818 3.883-2.727 6.193-2.727 2.748 0 5.011 1.011 6.788 3.035 1.805 2.01 2.707 4.546 2.707 7.608 0 2.994-.895 5.489-2.686 7.486-1.777 1.982-4.02 2.973-6.727 2.973-2.338 0-4.43-.936-6.275-2.809v13.104zm10.972-20.733c0-1.914-.52-3.473-1.559-4.676-1.053-1.217-2.379-1.825-3.979-1.825-1.695 0-3.069.588-4.122 1.763-1.052 1.176-1.579 2.721-1.579 4.635 0 1.873.527 3.418 1.58 4.635 1.039 1.189 2.406 1.784 4.101 1.784 1.6 0 2.919-.601 3.958-1.805 1.066-1.203 1.6-2.707 1.6-4.511zm9.597-10.111h4.614v1.785c.848-.889 1.6-1.498 2.256-1.826.67-.341 1.463-.512 2.38-.512 1.216 0 2.488.396 3.814 1.189l-2.113 4.225c-.875-.629-1.73-.944-2.563-.944-2.516 0-3.773 1.901-3.773 5.702V139h-4.615v-19.975zm14.397 9.844c0-2.885 1.032-5.339 3.096-7.362 2.065-2.024 4.58-3.035 7.547-3.035 2.98 0 5.51 1.018 7.588 3.055 2.051 2.037 3.076 4.539 3.076 7.506 0 2.994-1.032 5.503-3.096 7.527-2.078 2.009-4.628 3.014-7.65 3.014-2.994 0-5.503-1.025-7.526-3.076-2.023-2.023-3.035-4.566-3.035-7.629zm4.717.082c0 1.996.533 3.575 1.6 4.737 1.093 1.176 2.535 1.764 4.326 1.764 1.805 0 3.247-.581 4.327-1.743 1.08-1.162 1.62-2.714 1.62-4.655 0-1.942-.54-3.493-1.62-4.656-1.093-1.175-2.536-1.763-4.327-1.763-1.763 0-3.192.588-4.286 1.763-1.094 1.176-1.64 2.694-1.64 4.553zm26.496-5.619V139H78.65v-15.668h-1.968v-4.307h1.968v-7.321h4.615v7.321h3.588v4.307h-3.588zm25.286 6.768H94.237c.123 1.64.657 2.946 1.6 3.917.943.957 2.153 1.435 3.63 1.435 1.148 0 2.098-.273 2.85-.82.739-.547 1.579-1.559 2.523-3.035l3.896 2.174c-.601 1.025-1.237 1.907-1.907 2.645a10.585 10.585 0 01-2.153 1.805 8.813 8.813 0 01-2.482 1.025 12.06 12.06 0 01-2.891.328c-2.98 0-5.373-.957-7.178-2.871-1.805-1.928-2.707-4.484-2.707-7.67 0-3.158.875-5.715 2.625-7.67 1.764-1.927 4.101-2.891 7.014-2.891 2.939 0 5.263.936 6.972 2.809 1.696 1.86 2.543 4.437 2.543 7.732l-.02 1.087zm-4.738-3.774c-.642-2.461-2.194-3.691-4.655-3.691-.56 0-1.087.089-1.579.266a4.36 4.36 0 00-1.353.739 4.6 4.6 0 00-1.026 1.148 5.385 5.385 0 00-.656 1.538h9.269zm29.122 12.202c0 .944-.035 1.771-.103 2.482-.055.724-.137 1.36-.246 1.907-.328 1.504-.971 2.796-1.928 3.876-1.805 2.078-4.286 3.117-7.444 3.117-2.666 0-4.861-.718-6.583-2.153-1.778-1.477-2.803-3.521-3.076-6.132h4.634c.178.984.472 1.743.882 2.276.957 1.245 2.352 1.867 4.184 1.867 3.377 0 5.065-2.072 5.065-6.214v-2.789c-1.832 1.873-3.944 2.809-6.337 2.809-2.72 0-4.949-.984-6.685-2.953-1.75-1.996-2.625-4.491-2.625-7.485 0-2.912.813-5.387 2.44-7.424 1.75-2.16 4.061-3.24 6.932-3.24 2.516 0 4.607.936 6.275 2.809v-2.256h4.615v19.503zm-4.43-9.474c0-1.942-.52-3.493-1.559-4.656-1.052-1.189-2.399-1.784-4.04-1.784-1.75 0-3.131.65-4.142 1.948-.916 1.163-1.374 2.667-1.374 4.512 0 1.819.458 3.309 1.374 4.471.998 1.271 2.379 1.907 4.142 1.907 1.764 0 3.158-.642 4.184-1.928.943-1.162 1.415-2.652 1.415-4.47zm28.444 1.046h-14.314c.123 1.64.656 2.946 1.599 3.917.944.957 2.154 1.435 3.63 1.435 1.149 0 2.099-.273 2.851-.82.738-.547 1.579-1.559 2.522-3.035l3.897 2.174c-.602 1.025-1.238 1.907-1.907 2.645a10.563 10.563 0 01-2.154 1.805 8.807 8.807 0 01-2.481 1.025c-.889.219-1.853.328-2.892.328-2.98 0-5.373-.957-7.178-2.871-1.804-1.928-2.707-4.484-2.707-7.67 0-3.158.875-5.715 2.625-7.67 1.764-1.927 4.102-2.891 7.014-2.891 2.94 0 5.264.936 6.973 2.809 1.695 1.86 2.543 4.437 2.543 7.732l-.021 1.087zm-4.737-3.774c-.643-2.461-2.194-3.691-4.655-3.691-.561 0-1.087.089-1.579.266a4.352 4.352 0 00-1.354.739 4.607 4.607 0 00-1.025 1.148 5.378 5.378 0 00-.657 1.538h9.27zm9.803-7.301h4.614v1.785c.848-.889 1.599-1.498 2.256-1.826.67-.341 1.463-.512 2.379-.512 1.216 0 2.488.396 3.814 1.189l-2.112 4.225c-.875-.629-1.73-.944-2.564-.944-2.515 0-3.773 1.901-3.773 5.702V139h-4.614v-19.975zM184 123.332V139h-4.614v-15.668h-1.969v-4.307h1.969v-7.321H184v7.321h3.589v4.307H184zm25.286 6.768h-14.314c.123 1.64.656 2.946 1.599 3.917.944.957 2.154 1.435 3.63 1.435 1.149 0 2.099-.273 2.851-.82.738-.547 1.579-1.559 2.522-3.035l3.897 2.174c-.602 1.025-1.238 1.907-1.908 2.645a10.531 10.531 0 01-2.153 1.805 8.807 8.807 0 01-2.481 1.025c-.889.219-1.853.328-2.892.328-2.98 0-5.373-.957-7.178-2.871-1.804-1.928-2.707-4.484-2.707-7.67 0-3.158.875-5.715 2.625-7.67 1.764-1.927 4.102-2.891 7.014-2.891 2.939 0 5.264.936 6.973 2.809 1.695 1.86 2.543 4.437 2.543 7.732l-.021 1.087zm-4.737-3.774c-.643-2.461-2.195-3.691-4.655-3.691-.561 0-1.087.089-1.58.266a4.358 4.358 0 00-1.353.739 4.587 4.587 0 00-1.025 1.148 5.378 5.378 0 00-.657 1.538h9.27zm-159.14 45.561v6.132c-1.053-1.286-1.997-2.167-2.83-2.646-.821-.492-1.785-.738-2.892-.738-1.737 0-3.18.608-4.328 1.825-1.148 1.217-1.722 2.741-1.722 4.573 0 1.873.553 3.411 1.66 4.614 1.122 1.204 2.55 1.805 4.287 1.805 1.107 0 2.085-.239 2.933-.718.82-.464 1.784-1.367 2.891-2.707v6.091c-1.873.971-3.746 1.456-5.619 1.456-3.09 0-5.674-.998-7.752-2.994-2.078-2.01-3.117-4.505-3.117-7.485 0-2.981 1.053-5.496 3.158-7.547 2.106-2.051 4.69-3.076 7.752-3.076 1.969 0 3.828.471 5.578 1.415zm3.526 8.982c0-2.885 1.033-5.339 3.097-7.362 2.065-2.024 4.58-3.035 7.547-3.035 2.98 0 5.51 1.018 7.588 3.055 2.05 2.037 3.076 4.539 3.076 7.506 0 2.994-1.032 5.503-3.096 7.527-2.079 2.009-4.628 3.014-7.65 3.014-2.994 0-5.503-1.025-7.526-3.076-2.024-2.023-3.035-4.566-3.035-7.629zm4.717.082c0 1.996.533 3.575 1.6 4.737 1.094 1.176 2.536 1.764 4.327 1.764 1.805 0 3.247-.581 4.327-1.743 1.08-1.162 1.62-2.714 1.62-4.655 0-1.942-.54-3.493-1.62-4.656-1.093-1.175-2.536-1.763-4.327-1.763-1.764 0-3.192.588-4.286 1.763-1.094 1.176-1.64 2.694-1.64 4.553zm21.492-9.926h4.635v1.846c1.614-1.6 3.432-2.399 5.455-2.399 2.325 0 4.136.731 5.435 2.194 1.121 1.244 1.682 3.274 1.682 6.091V191h-4.635v-11.156c0-1.969-.274-3.329-.82-4.081-.534-.766-1.504-1.149-2.913-1.149-1.53 0-2.618.506-3.26 1.518-.63.998-.944 2.741-.944 5.229V191h-4.635v-19.975zm27.809 4.307V191h-4.614v-15.668H96.37v-4.307h1.969v-7.321h4.614v7.321h3.589v4.307h-3.589zm6.727-4.307h4.614v1.785c.848-.889 1.6-1.498 2.256-1.826.67-.341 1.463-.512 2.379-.512 1.217 0 2.488.396 3.814 1.189l-2.112 4.225c-.875-.629-1.73-.944-2.564-.944-2.515 0-3.773 1.901-3.773 5.702V191h-4.614v-19.975zm30.146 0h4.635V191h-4.635v-2.092c-1.9 1.778-3.944 2.666-6.132 2.666-2.761 0-5.045-.998-6.849-2.994-1.791-2.037-2.687-4.58-2.687-7.629 0-2.994.896-5.489 2.687-7.485 1.791-1.996 4.033-2.994 6.726-2.994 2.325 0 4.409.957 6.255 2.871v-2.318zm-10.951 9.926c0 1.914.513 3.473 1.538 4.676 1.053 1.217 2.379 1.825 3.979 1.825 1.709 0 3.089-.588 4.142-1.764 1.053-1.216 1.579-2.761 1.579-4.634 0-1.873-.526-3.418-1.579-4.635-1.053-1.19-2.42-1.784-4.101-1.784-1.586 0-2.912.601-3.979 1.804-1.053 1.217-1.579 2.721-1.579 4.512zm52.562 1.149h-14.315c.123 1.64.656 2.946 1.6 3.917.943.957 2.153 1.435 3.63 1.435 1.148 0 2.098-.273 2.85-.82.738-.547 1.579-1.559 2.523-3.035l3.896 2.174c-.601 1.025-1.237 1.907-1.907 2.645a10.585 10.585 0 01-2.153 1.805 8.813 8.813 0 01-2.482 1.025c-.889.219-1.852.328-2.891.328-2.981 0-5.374-.957-7.178-2.871-1.805-1.928-2.707-4.484-2.707-7.67 0-3.158.875-5.715 2.625-7.67 1.763-1.927 4.101-2.891 7.013-2.891 2.94 0 5.264.936 6.973 2.809 1.695 1.86 2.543 4.437 2.543 7.732l-.02 1.087zm-4.738-3.774c-.642-2.461-2.194-3.691-4.655-3.691-.561 0-1.087.089-1.579.266a4.363 4.363 0 00-1.354.739 4.607 4.607 0 00-1.025 1.148 5.376 5.376 0 00-.656 1.538h9.269zm14.417-21.964V191h-4.614v-34.638h4.614zm-154.198 70.97V243h-4.635v-15.668h-1.64v-4.307h1.64v-7.711c0-2.515.438-4.293 1.313-5.332 1.203-1.449 2.953-2.173 5.25-2.173.82 0 1.852.239 3.096.717v4.717l-.471-.246c-.998-.506-1.819-.759-2.461-.759-.82 0-1.374.294-1.661.882-.287.574-.431 1.682-.431 3.322v6.583h5.024v4.307h-5.024zm7.69-4.307h4.615v1.785c.847-.889 1.6-1.498 2.255-1.826.67-.341 1.463-.512 2.38-.512 1.216 0 2.488.396 3.814 1.189l-2.112 4.225c-.875-.629-1.73-.944-2.564-.944-2.516 0-3.773 1.901-3.773 5.702V243h-4.615v-19.975zm30.147 0h4.635V243h-4.635v-2.092c-1.9 1.778-3.944 2.666-6.132 2.666-2.762 0-5.045-.998-6.85-2.994-1.79-2.037-2.686-4.58-2.686-7.629 0-2.994.895-5.489 2.686-7.485 1.791-1.996 4.034-2.994 6.727-2.994 2.324 0 4.41.957 6.255 2.871v-2.318zm-10.951 9.926c0 1.914.512 3.473 1.538 4.676 1.052 1.217 2.379 1.825 3.978 1.825 1.71 0 3.09-.588 4.143-1.764 1.053-1.216 1.579-2.761 1.579-4.634 0-1.873-.526-3.418-1.58-4.635-1.052-1.19-2.419-1.784-4.1-1.784-1.587 0-2.913.601-3.98 1.804-1.052 1.217-1.578 2.721-1.578 4.512zm26.024-9.926v11.464c0 3.309 1.306 4.963 3.917 4.963 2.611 0 3.917-1.654 3.917-4.963v-11.464h4.614v11.567c0 1.599-.198 2.98-.594 4.142-.383 1.039-1.046 1.976-1.99 2.81-1.558 1.353-3.54 2.03-5.947 2.03-2.392 0-4.368-.677-5.927-2.03-.957-.834-1.633-1.771-2.03-2.81-.383-.929-.574-2.31-.574-4.142v-11.567h4.614zm32.997-14.663h4.635V243h-4.635v-2.092c-1.818 1.778-3.876 2.666-6.173 2.666-2.734 0-5.004-.998-6.808-2.994-1.791-2.037-2.687-4.58-2.687-7.629 0-2.98.896-5.469 2.687-7.465 1.777-2.009 4.012-3.014 6.706-3.014 2.338 0 4.429.957 6.275 2.871v-16.981zm-10.951 24.589c0 1.914.513 3.473 1.538 4.676 1.053 1.217 2.379 1.825 3.979 1.825 1.709 0 3.089-.588 4.142-1.764 1.053-1.216 1.579-2.761 1.579-4.634 0-1.873-.526-3.418-1.579-4.635-1.053-1.19-2.42-1.784-4.101-1.784-1.586 0-2.912.601-3.979 1.804-1.053 1.217-1.579 2.721-1.579 4.512zm39.601 1.149H137.16c.123 1.64.656 2.946 1.6 3.917.943.957 2.153 1.435 3.63 1.435 1.148 0 2.098-.273 2.85-.82.739-.547 1.579-1.559 2.523-3.035l3.896 2.174c-.601 1.025-1.237 1.907-1.907 2.645a10.585 10.585 0 01-2.153 1.805 8.813 8.813 0 01-2.482 1.025c-.888.219-1.852.328-2.891.328-2.981 0-5.373-.957-7.178-2.871-1.805-1.928-2.707-4.484-2.707-7.67 0-3.158.875-5.715 2.625-7.67 1.763-1.927 4.101-2.891 7.013-2.891 2.94 0 5.264.936 6.973 2.809 1.695 1.86 2.543 4.437 2.543 7.732l-.02 1.087zm-4.738-3.774c-.642-2.461-2.194-3.691-4.655-3.691-.561 0-1.087.089-1.579.266a4.374 4.374 0 00-1.354.739 4.607 4.607 0 00-1.025 1.148 5.376 5.376 0 00-.656 1.538h9.269zm37.489-7.301h4.634V243h-4.634v-2.092c-1.901 1.778-3.945 2.666-6.132 2.666-2.762 0-5.045-.998-6.85-2.994-1.791-2.037-2.686-4.58-2.686-7.629 0-2.994.895-5.489 2.686-7.485 1.791-1.996 4.033-2.994 6.727-2.994 2.324 0 4.409.957 6.255 2.871v-2.318zm-10.952 9.926c0 1.914.513 3.473 1.538 4.676 1.053 1.217 2.379 1.825 3.979 1.825 1.709 0 3.09-.588 4.143-1.764 1.052-1.216 1.579-2.761 1.579-4.634 0-1.873-.527-3.418-1.579-4.635-1.053-1.19-2.42-1.784-4.102-1.784-1.586 0-2.912.601-3.978 1.804-1.053 1.217-1.58 2.721-1.58 4.512z" fill="#DEEDFC"/><path d="M.848 295l5.376-31.668h8.148l6.342 16.884 6.3-16.884h8.148L40.538 295h-8.19l-2.73-18.228L22.142 295h-3.276l-7.098-18.228L9.038 295H.848zm58.792-13.902c-.252-1.064-.77-1.918-1.554-2.562-.784-.644-1.736-.966-2.856-.966-1.176 0-2.142.308-2.898.924-.728.616-1.19 1.484-1.386 2.604h8.694zm-8.904 4.41c0 3.276 1.54 4.914 4.62 4.914 1.652 0 2.898-.672 3.738-2.016h7.35c-1.484 4.928-5.194 7.392-11.13 7.392-1.82 0-3.486-.266-4.998-.798-1.512-.56-2.814-1.344-3.906-2.352a10.526 10.526 0 01-2.478-3.612c-.588-1.4-.882-2.968-.882-4.704 0-1.792.28-3.402.84-4.83.56-1.456 1.358-2.688 2.394-3.696s2.282-1.778 3.738-2.31c1.484-.56 3.15-.84 4.998-.84 1.82 0 3.458.28 4.914.84 1.456.532 2.688 1.316 3.696 2.352 1.008 1.036 1.778 2.31 2.31 3.822.532 1.484.798 3.164.798 5.04v.798H50.736zm27.404-1.344c0 .7.126 1.358.377 1.974a5.307 5.307 0 001.008 1.554c.448.448.966.798 1.554 1.05a5.162 5.162 0 001.975.378c.671 0 1.302-.126 1.89-.378a4.358 4.358 0 001.553-1.05 4.915 4.915 0 001.05-1.554 4.34 4.34 0 00.42-1.89 4.34 4.34 0 00-.42-1.89 4.798 4.798 0 00-1.05-1.596 4.358 4.358 0 00-1.553-1.05 4.747 4.747 0 00-1.89-.378c-.672 0-1.317.126-1.933.378a4.915 4.915 0 00-1.553 1.05c-.42.448-.77.966-1.05 1.554a4.452 4.452 0 00-.379 1.848zm9.576-24.024h7.644V295h-7.644v-2.394c-1.624 2.044-3.822 3.066-6.594 3.066-1.569 0-3.01-.294-4.326-.882a10.701 10.701 0 01-3.445-2.436c-.98-1.036-1.75-2.254-2.31-3.654-.531-1.4-.797-2.912-.797-4.536 0-1.54.252-2.996.755-4.368.532-1.4 1.275-2.618 2.227-3.654a10.237 10.237 0 013.401-2.436c1.345-.616 2.815-.924 4.41-.924 2.688 0 4.914.938 6.678 2.814V260.14zm20.419 13.314V295h-7.602v-21.546h7.602zm-8.106-8.274c0-.588.112-1.134.336-1.638.224-.532.532-.994.924-1.386.392-.392.84-.7 1.344-.924a4.286 4.286 0 011.68-.336c.588 0 1.134.112 1.638.336.532.224.994.532 1.386.924.392.392.7.854.924 1.386.224.504.336 1.05.336 1.638 0 .588-.112 1.148-.336 1.68a4.43 4.43 0 01-.924 1.344c-.392.392-.854.7-1.386.924a3.987 3.987 0 01-1.638.336 4.286 4.286 0 01-1.68-.336 4.43 4.43 0 01-1.344-.924 4.43 4.43 0 01-.924-1.344 4.286 4.286 0 01-.336-1.68zm29.555 15.246c-1.316-.896-2.646-1.344-3.99-1.344-.728 0-1.414.126-2.058.378a4.942 4.942 0 00-1.638 1.092 4.9 4.9 0 00-1.134 1.638c-.252.616-.378 1.316-.378 2.1 0 .756.126 1.456.378 2.1.28.616.644 1.162 1.092 1.638a5.172 5.172 0 001.68 1.05c.644.252 1.33.378 2.058.378 1.428 0 2.758-.49 3.99-1.47v6.468c-1.876.812-3.654 1.218-5.334 1.218-1.568 0-3.066-.266-4.494-.798a11.841 11.841 0 01-3.738-2.268 11.732 11.732 0 01-2.562-3.57c-.644-1.4-.966-2.954-.966-4.662 0-1.708.308-3.262.924-4.662.616-1.428 1.456-2.646 2.52-3.654 1.064-1.036 2.324-1.834 3.78-2.394 1.484-.588 3.066-.882 4.746-.882 1.848 0 3.556.392 5.124 1.176v6.468zm11.391 3.738c0 .7.126 1.358.378 1.974a5.307 5.307 0 001.008 1.554c.448.448.966.798 1.554 1.05a5.162 5.162 0 001.974.378c.672 0 1.302-.126 1.89-.378a4.358 4.358 0 001.554-1.05 4.915 4.915 0 001.05-1.554 4.34 4.34 0 00.42-1.89 4.34 4.34 0 00-.42-1.89 4.798 4.798 0 00-1.05-1.596 4.358 4.358 0 00-1.554-1.05 4.747 4.747 0 00-1.89-.378c-.7 0-1.358.126-1.974.378a4.915 4.915 0 00-1.554 1.05c-.42.448-.756.966-1.008 1.554a4.452 4.452 0 00-.378 1.848zm9.576-10.71h7.644V295h-7.644v-2.394c-1.624 2.044-3.822 3.066-6.594 3.066-1.568 0-3.01-.28-4.326-.84a10.701 10.701 0 01-3.444-2.436c-.98-1.036-1.75-2.254-2.31-3.654-.532-1.4-.798-2.926-.798-4.578 0-1.54.266-2.996.798-4.368.532-1.4 1.274-2.618 2.226-3.654a10.237 10.237 0 013.402-2.436c1.316-.616 2.772-.924 4.368-.924 2.688 0 4.914.938 6.678 2.814v-2.142zm12.818 0h7.602v3.528c.812-1.288 1.806-2.268 2.982-2.94 1.176-.7 2.548-1.05 4.116-1.05h.63c.252 0 .532.028.84.084v7.266a7.223 7.223 0 00-3.276-.756c-1.764 0-3.094.532-3.99 1.596-.868 1.036-1.302 2.562-1.302 4.578V295h-7.602v-21.546zm35.56 7.644c-.252-1.064-.77-1.918-1.554-2.562-.784-.644-1.736-.966-2.856-.966-1.176 0-2.142.308-2.898.924-.728.616-1.19 1.484-1.386 2.604h8.694zm-8.904 4.41c0 3.276 1.54 4.914 4.62 4.914 1.652 0 2.898-.672 3.738-2.016h7.35c-1.484 4.928-5.194 7.392-11.13 7.392-1.82 0-3.486-.266-4.998-.798-1.512-.56-2.814-1.344-3.906-2.352a10.526 10.526 0 01-2.478-3.612c-.588-1.4-.882-2.968-.882-4.704 0-1.792.28-3.402.84-4.83.56-1.456 1.358-2.688 2.394-3.696s2.282-1.778 3.738-2.31c1.484-.56 3.15-.84 4.998-.84 1.82 0 3.458.28 4.914.84 1.456.532 2.688 1.316 3.696 2.352 1.008 1.036 1.778 2.31 2.31 3.822.532 1.484.798 3.164.798 5.04v.798h-16.002zm19.97 5.46c0-.672.126-1.302.378-1.89a4.798 4.798 0 011.05-1.596 4.915 4.915 0 011.554-1.05 5.054 5.054 0 011.932-.378c.672 0 1.302.126 1.89.378a4.798 4.798 0 011.596 1.05c.448.448.798.98 1.05 1.596.252.588.378 1.218.378 1.89 0 .672-.126 1.316-.378 1.932a4.915 4.915 0 01-1.05 1.554c-.448.448-.98.798-1.596 1.05a4.747 4.747 0 01-1.89.378 5.054 5.054 0 01-1.932-.378 4.915 4.915 0 01-1.554-1.05 4.915 4.915 0 01-1.05-1.554 5.054 5.054 0 01-.378-1.932z" fill="#fff"/></svg>