<svg width="247" height="168" viewBox="0 0 247 168" fill="none" xmlns="http://www.w3.org/2000/svg"><path d="M103.762 12.6V42h-9.8V12.6h-8.05V4.3h25.9v8.3h-8.05zm19.437 3.75V30.8c0 3.167 1.533 4.75 4.6 4.75 3.066 0 4.6-1.583 4.6-4.75V16.35h9.05v16.2c0 3.467-1.15 6.067-3.45 7.8-2.267 1.733-5.667 2.6-10.2 2.6-4.534 0-7.95-.867-10.25-2.6-2.267-1.733-3.4-4.333-3.4-7.8v-16.2h9.05zm13.3-11.45l-8.7 7.7-4.2-3.1 7.15-8.75 5.75 4.15zm-116.938 81V104h-9.05V85.9h-3v-7.55h3v-7.7h9.05v7.7h5.15v7.55h-5.15zm17.441 5.2c0 .833.15 1.617.45 2.35.3.7.7 1.317 1.2 1.85a5.85 5.85 0 001.85 1.25c.733.3 1.517.45 2.35.45.8 0 1.55-.15 2.25-.45.733-.3 1.35-.717 1.85-1.25a5.85 5.85 0 001.25-1.85c.333-.7.5-1.45.5-2.25s-.167-1.55-.5-2.25a5.712 5.712 0 00-1.25-1.9 5.188 5.188 0 00-1.85-1.25c-.7-.3-1.45-.45-2.25-.45-.833 0-1.617.15-2.35.45-.7.3-1.317.717-1.85 1.25-.5.533-.9 1.15-1.2 1.85a5.3 5.3 0 00-.45 2.2zm11.4-12.75h9.1V104h-9.1v-2.85c-1.933 2.433-4.55 3.65-7.85 3.65-1.867 0-3.583-.333-5.15-1a12.744 12.744 0 01-4.1-2.9c-1.167-1.233-2.083-2.683-2.75-4.35-.633-1.667-.95-3.483-.95-5.45 0-1.833.317-3.567.95-5.2.633-1.667 1.517-3.117 2.65-4.35a12.186 12.186 0 014.05-2.9c1.567-.733 3.3-1.1 5.2-1.1 3.2 0 5.85 1.117 7.95 3.35v-2.55zm15.258 0h9.05v3.15c2.467-2.367 5.234-3.55 8.3-3.55 3.8 0 6.7 1.6 8.7 4.8 2.034-3.233 4.934-4.85 8.7-4.85 1.2 0 2.334.183 3.401.55a6.622 6.622 0 012.75 1.65c.766.733 1.366 1.7 1.8 2.9.466 1.2.7 2.65.7 4.35V104h-9.05V91.35c0-1.3-.1-2.367-.3-3.2-.167-.833-.434-1.483-.8-1.95-.334-.467-.734-.783-1.2-.95a4.426 4.426 0 00-1.5-.25c-2.9 0-4.35 2.117-4.35 6.35V104h-9.05V91.35c0-1.3-.084-2.367-.25-3.2-.167-.867-.417-1.55-.75-2.05-.3-.5-.7-.833-1.2-1-.5-.2-1.084-.3-1.75-.3-.567 0-1.1.083-1.6.25-.5.167-.95.5-1.35 1-.367.467-.667 1.133-.9 2-.2.833-.3 1.933-.3 3.3V104h-9.05V78.35zm70.939 12.9c0-.8-.15-1.55-.45-2.25a5.137 5.137 0 00-1.2-1.9 5.723 5.723 0 00-1.9-1.25c-.7-.333-1.467-.5-2.3-.5-.8 0-1.55.15-2.25.45-.7.3-1.317.717-1.85 1.25a6.955 6.955 0 00-1.25 1.9c-.3.7-.45 1.45-.45 2.25s.15 1.55.45 2.25c.3.7.716 1.317 1.25 1.85.533.5 1.15.917 1.85 1.25.733.3 1.5.45 2.3.45.8 0 1.55-.15 2.25-.45.7-.3 1.3-.717 1.8-1.25.533-.533.95-1.15 1.25-1.85.333-.7.5-1.433.5-2.2zm-11.4 25.55h-9.05V78.35h9.05v2.85c1.933-2.433 4.566-3.65 7.9-3.65 1.833 0 3.533.367 5.1 1.1 1.6.7 2.983 1.667 4.15 2.9 1.166 1.233 2.066 2.683 2.7 4.35.666 1.667 1 3.45 1 5.35 0 1.9-.334 3.667-1 5.3a13.08 13.08 0 01-2.7 4.3 12.205 12.205 0 01-4.05 2.9c-1.567.7-3.267 1.05-5.1 1.05-3.2 0-5.867-1.1-8-3.3v15.3zm34.558-25.75c0 .867.15 1.667.45 2.4.334.7.75 1.317 1.25 1.85.534.533 1.15.95 1.85 1.25.734.3 1.5.45 2.3.45.8 0 1.55-.15 2.25-.45.734-.3 1.35-.717 1.85-1.25a5.84 5.84 0 001.25-1.85c.334-.733.5-1.517.5-2.35 0-.8-.166-1.55-.5-2.25a5.702 5.702 0 00-1.25-1.9 5.182 5.182 0 00-1.85-1.25c-.7-.3-1.45-.45-2.25-.45s-1.566.15-2.3.45c-.7.3-1.316.717-1.85 1.25-.5.533-.916 1.15-1.25 1.85-.3.7-.45 1.45-.45 2.25zm-9.55-.1c0-1.9.384-3.667 1.15-5.3a12.757 12.757 0 013.2-4.3c1.367-1.233 2.984-2.2 4.85-2.9 1.9-.7 3.967-1.05 6.2-1.05 2.2 0 4.234.35 6.1 1.05 1.9.667 3.534 1.617 4.9 2.85 1.4 1.2 2.484 2.65 3.25 4.35.767 1.667 1.15 3.517 1.15 5.55s-.4 3.9-1.2 5.6a13.259 13.259 0 01-3.2 4.35c-1.366 1.2-3.016 2.133-4.95 2.8-1.9.667-3.966 1-6.2 1-2.2 0-4.233-.333-6.1-1-1.866-.667-3.483-1.617-4.85-2.85a13.473 13.473 0 01-3.15-4.4c-.766-1.733-1.15-3.65-1.15-5.75zm55.36-4.3c-1.566-1.067-3.15-1.6-4.75-1.6-.866 0-1.683.15-2.45.45a5.89 5.89 0 00-1.95 1.3 5.853 5.853 0 00-1.35 1.95c-.3.733-.45 1.567-.45 2.5 0 .9.15 1.733.45 2.5a7.144 7.144 0 001.3 1.95c.567.533 1.234.95 2 1.25.767.3 1.584.45 2.45.45 1.7 0 3.284-.583 4.75-1.75v7.7c-2.233.967-4.35 1.45-6.35 1.45a15.21 15.21 0 01-5.35-.95 14.092 14.092 0 01-4.45-2.7 13.984 13.984 0 01-3.05-4.25c-.766-1.667-1.15-3.517-1.15-5.55s.367-3.883 1.1-5.55c.734-1.7 1.734-3.15 3-4.35 1.267-1.233 2.767-2.183 4.5-2.85 1.767-.7 3.65-1.05 5.65-1.05 2.2 0 4.234.467 6.1 1.4v7.7zm13.712 4.4c0 .867.15 1.667.45 2.4.333.7.75 1.317 1.25 1.85.533.533 1.15.95 1.85 1.25.733.3 1.5.45 2.3.45.8 0 1.55-.15 2.25-.45.733-.3 1.35-.717 1.85-1.25.533-.533.95-1.15 1.25-1.85.333-.733.5-1.517.5-2.35 0-.8-.167-1.55-.5-2.25a5.717 5.717 0 00-1.25-1.9 5.191 5.191 0 00-1.85-1.25c-.7-.3-1.45-.45-2.25-.45s-1.567.15-2.3.45c-.7.3-1.317.717-1.85 1.25-.5.533-.917 1.15-1.25 1.85-.3.7-.45 1.45-.45 2.25zm-9.55-.1c0-1.9.383-3.667 1.15-5.3a12.744 12.744 0 013.2-4.3c1.367-1.233 2.983-2.2 4.85-2.9 1.9-.7 3.967-1.05 6.2-1.05 2.2 0 4.233.35 6.1 1.05 1.9.667 3.533 1.617 4.9 2.85a12.34 12.34 0 013.25 4.35c.767 1.667 1.15 3.517 1.15 5.55s-.4 3.9-1.2 5.6a13.273 13.273 0 01-3.2 4.35c-1.367 1.2-3.017 2.133-4.95 2.8-1.9.667-3.967 1-6.2 1-2.2 0-4.233-.333-6.1-1s-3.483-1.617-4.85-2.85a13.473 13.473 0 01-3.15-4.4c-.767-1.733-1.15-3.65-1.15-5.75zM9.585 153.1c0 .833.15 1.617.45 2.35.3.7.7 1.317 1.2 1.85.533.533 1.15.95 1.85 1.25.733.3 1.517.45 2.35.45.8 0 1.55-.15 2.25-.45.733-.3 1.35-.717 1.85-1.25.533-.533.95-1.15 1.25-1.85.333-.7.5-1.45.5-2.25s-.167-1.55-.5-2.25a5.712 5.712 0 00-1.25-1.9 5.192 5.192 0 00-1.85-1.25c-.7-.3-1.45-.45-2.25-.45s-1.567.15-2.3.45c-.7.3-1.317.717-1.85 1.25-.5.533-.917 1.15-1.25 1.85a5.3 5.3 0 00-.45 2.2zm11.4-28.6h9.1V166h-9.1v-2.85c-1.933 2.433-4.55 3.65-7.85 3.65-1.867 0-3.583-.35-5.15-1.05a12.745 12.745 0 01-4.1-2.9c-1.167-1.233-2.083-2.683-2.75-4.35-.633-1.667-.95-3.467-.95-5.4 0-1.833.3-3.567.9-5.2.633-1.667 1.517-3.117 2.65-4.35a12.191 12.191 0 014.05-2.9c1.6-.733 3.35-1.1 5.25-1.1 3.2 0 5.85 1.117 7.95 3.35v-18.4zm34.009 24.95c-.3-1.267-.917-2.283-1.85-3.05-.934-.767-2.067-1.15-3.4-1.15-1.4 0-2.55.367-3.45 1.1-.867.733-1.417 1.767-1.65 3.1h10.35zm-10.6 5.25c0 3.9 1.833 5.85 5.5 5.85 1.966 0 3.45-.8 4.45-2.4h8.75c-1.767 5.867-6.184 8.8-13.25 8.8-2.167 0-4.15-.317-5.95-.95-1.8-.667-3.35-1.6-4.65-2.8a12.527 12.527 0 01-2.95-4.3c-.7-1.667-1.05-3.533-1.05-5.6 0-2.133.333-4.05 1-5.75.666-1.733 1.616-3.2 2.85-4.4 1.233-1.2 2.716-2.117 4.45-2.75 1.766-.667 3.75-1 5.95-1 2.166 0 4.116.333 5.85 1 1.733.633 3.2 1.567 4.4 2.8 1.2 1.233 2.116 2.75 2.75 4.55.633 1.767.95 3.767.95 6v.95h-19.05zm44.673-1.45c0-.8-.15-1.55-.45-2.25a5.712 5.712 0 00-1.25-1.9 5.856 5.856 0 00-1.85-1.25c-.7-.333-1.467-.5-2.3-.5-.8 0-1.55.15-2.25.45-.7.3-1.317.717-1.85 1.25a6.962 6.962 0 00-1.25 1.9c-.3.7-.45 1.45-.45 2.25s.15 1.55.45 2.25c.3.7.716 1.317 1.25 1.85.533.5 1.15.917 1.85 1.25.733.3 1.5.45 2.3.45.8 0 1.55-.15 2.25-.45.7-.3 1.3-.717 1.8-1.25.533-.533.95-1.15 1.25-1.85.333-.7.5-1.433.5-2.2zm-11.4-28.75v18.4c2.133-2.233 4.8-3.35 8-3.35 1.9 0 3.633.367 5.2 1.1 1.6.7 2.95 1.667 4.05 2.9 1.133 1.2 2.016 2.633 2.65 4.3.633 1.633.95 3.383.95 5.25 0 1.9-.334 3.683-1 5.35-.634 1.667-1.534 3.117-2.7 4.35a13.244 13.244 0 01-4.15 2.95c-1.567.7-3.267 1.05-5.1 1.05-3.334 0-5.967-1.217-7.9-3.65V166h-9.05v-41.5h9.05zm44.758 24.95c-.3-1.267-.916-2.283-1.85-3.05-.933-.767-2.066-1.15-3.4-1.15-1.4 0-2.55.367-3.45 1.1-.866.733-1.416 1.767-1.65 3.1h10.35zm-10.6 5.25c0 3.9 1.834 5.85 5.5 5.85 1.967 0 3.45-.8 4.45-2.4h8.75c-1.766 5.867-6.183 8.8-13.25 8.8-2.166 0-4.15-.317-5.95-.95-1.8-.667-3.35-1.6-4.65-2.8a12.537 12.537 0 01-2.95-4.3c-.7-1.667-1.05-3.533-1.05-5.6 0-2.133.334-4.05 1-5.75.667-1.733 1.617-3.2 2.85-4.4 1.234-1.2 2.717-2.117 4.45-2.75 1.767-.667 3.75-1 5.95-1 2.167 0 4.117.333 5.85 1 1.734.633 3.2 1.567 4.4 2.8 1.2 1.233 2.117 2.75 2.75 4.55.634 1.767.95 3.767.95 6v.95h-19.05zm24.223-14.35h9.05v4.2c.967-1.533 2.15-2.7 3.55-3.5 1.4-.833 3.034-1.25 4.9-1.25h.75c.3 0 .634.033 1 .1v8.65c-1.2-.6-2.5-.9-3.9-.9-2.1 0-3.683.633-4.75 1.9-1.033 1.233-1.55 3.05-1.55 5.45v11h-9.05v-25.65zm32.292 0V166h-9.05v-25.65h9.05zm4.2-11.45l-8.7 7.7-4.2-3.1 7.15-8.75 5.75 4.15zm10.385 24.2c0 .833.15 1.617.45 2.35.3.7.7 1.317 1.2 1.85.533.533 1.15.95 1.85 1.25.733.3 1.516.45 2.35.45.8 0 1.55-.15 2.25-.45.733-.3 1.35-.717 1.85-1.25.533-.533.95-1.15 1.25-1.85.333-.7.5-1.45.5-2.25s-.167-1.55-.5-2.25a5.717 5.717 0 00-1.25-1.9 5.195 5.195 0 00-1.85-1.25c-.7-.3-1.45-.45-2.25-.45-.834 0-1.617.15-2.35.45-.7.3-1.317.717-1.85 1.25-.5.533-.9 1.15-1.2 1.85a5.3 5.3 0 00-.45 2.2zm11.4-12.75h9.1V166h-9.1v-2.85c-1.934 2.433-4.55 3.65-7.85 3.65-1.867 0-3.584-.333-5.15-1a12.734 12.734 0 01-4.1-2.9c-1.167-1.233-2.084-2.683-2.75-4.35-.634-1.667-.95-3.483-.95-5.45 0-1.833.316-3.567.95-5.2.633-1.667 1.516-3.117 2.65-4.35a12.184 12.184 0 014.05-2.9c1.566-.733 3.3-1.1 5.2-1.1 3.2 0 5.85 1.117 7.95 3.35v-2.55zm32.258 6.6c-1.666-.867-3.3-1.3-4.9-1.3-.833 0-1.516.167-2.05.5-.5.333-.75.783-.75 1.35 0 .3.034.55.1.75.1.167.284.333.55.5.3.167.717.317 1.25.45.567.133 1.3.3 2.2.5 2.5.5 4.367 1.4 5.6 2.7 1.234 1.267 1.85 2.9 1.85 4.9 0 1.5-.3 2.85-.9 4.05a8.841 8.841 0 01-2.5 3.05c-1.066.8-2.35 1.417-3.85 1.85-1.5.467-3.15.7-4.95.7-3.466 0-6.883-.983-10.25-2.95l3.3-6.4c2.534 1.733 4.934 2.6 7.2 2.6.834 0 1.517-.183 2.05-.55.534-.367.8-.833.8-1.4 0-.333-.05-.6-.15-.8-.066-.233-.233-.433-.5-.6-.266-.2-.666-.367-1.2-.5-.5-.167-1.166-.333-2-.5-2.8-.567-4.766-1.4-5.9-2.5-1.1-1.133-1.65-2.683-1.65-4.65 0-1.433.267-2.717.8-3.85a7.974 7.974 0 012.3-2.95c1-.8 2.2-1.417 3.6-1.85 1.434-.433 3.017-.65 4.75-.65 2.834 0 5.584.55 8.25 1.65l-3.05 5.9zm7.99 14.25c0-.8.15-1.55.45-2.25.3-.733.717-1.367 1.25-1.9a5.852 5.852 0 011.85-1.25c.733-.3 1.5-.45 2.3-.45.8 0 1.55.15 2.25.45.733.3 1.367.717 1.9 1.25.533.533.95 1.167 1.25 1.9.3.7.45 1.45.45 2.25s-.15 1.567-.45 2.3c-.3.7-.717 1.317-1.25 1.85a5.717 5.717 0 01-1.9 1.25c-.7.3-1.45.45-2.25.45s-1.567-.15-2.3-.45c-.7-.3-1.317-.717-1.85-1.25a5.852 5.852 0 01-1.25-1.85c-.3-.733-.45-1.5-.45-2.3z" fill="#fff"/></svg>