<svg width="236" height="215" viewBox="0 0 236 215" fill="none" xmlns="http://www.w3.org/2000/svg"><path d="M8.159 26V.364h6.664L27.13 16.038V.364h6.63V26h-6.63L14.823 10.326V26H8.159zm36.48-8.806c0 .59.102 1.133.306 1.632.227.476.51.895.85 1.258.362.363.782.646 1.258.85.498.204 1.02.306 1.564.306s1.054-.102 1.53-.306a3.527 3.527 0 001.258-.85c.362-.363.646-.782.85-1.258.226-.499.34-1.031.34-1.598 0-.544-.114-1.054-.34-1.53a3.884 3.884 0 00-.85-1.292 3.527 3.527 0 00-1.258-.85 3.843 3.843 0 00-1.53-.306c-.544 0-1.066.102-1.564.306a3.978 3.978 0 00-1.258.85c-.34.363-.623.782-.85 1.258a3.843 3.843 0 00-.306 1.53zm-6.494-.068c0-1.292.26-2.493.782-3.604a8.666 8.666 0 012.176-2.924c.93-.839 2.029-1.496 3.298-1.972 1.292-.476 2.697-.714 4.216-.714 1.496 0 2.879.238 4.148.714 1.292.453 2.402 1.1 3.332 1.938a8.388 8.388 0 012.21 2.958c.521 1.133.782 2.391.782 3.774s-.272 2.652-.816 3.808a9.027 9.027 0 01-2.176 2.958c-.93.816-2.052 1.45-3.366 1.904-1.292.453-2.698.68-4.216.68-1.496 0-2.879-.227-4.148-.68-1.27-.453-2.369-1.1-3.298-1.938a9.155 9.155 0 01-2.142-2.992c-.521-1.179-.782-2.482-.782-3.91zm36.046-4.08c-1.133-.59-2.244-.884-3.332-.884-.566 0-1.03.113-1.394.34-.34.227-.51.533-.51.918 0 .204.023.374.068.51.068.113.193.227.374.34.204.113.488.215.85.306.386.09.884.204 1.496.34 1.7.34 2.97.952 3.808 1.836.84.861 1.258 1.972 1.258 3.332 0 1.02-.204 1.938-.612 2.754a6.016 6.016 0 01-1.7 2.074c-.725.544-1.598.963-2.618 1.258-1.02.317-2.142.476-3.366.476-2.357 0-4.68-.669-6.97-2.006l2.244-4.352c1.723 1.179 3.355 1.768 4.896 1.768.567 0 1.032-.125 1.394-.374.363-.25.544-.567.544-.952 0-.227-.034-.408-.102-.544-.045-.159-.158-.295-.34-.408-.18-.136-.453-.25-.816-.34a11.76 11.76 0 00-1.36-.34c-1.904-.385-3.24-.952-4.012-1.7-.748-.77-1.122-1.825-1.122-3.162 0-.975.182-1.847.544-2.618a5.42 5.42 0 011.564-2.006c.68-.544 1.496-.963 2.448-1.258.975-.295 2.052-.442 3.23-.442 1.927 0 3.797.374 5.61 1.122l-2.074 4.012zm11.553 4.148c0 .59.102 1.133.306 1.632.227.476.51.895.85 1.258.363.363.782.646 1.258.85.499.204 1.02.306 1.564.306s1.054-.102 1.53-.306a3.528 3.528 0 001.258-.85 3.98 3.98 0 00.85-1.258c.227-.499.34-1.031.34-1.598 0-.544-.113-1.054-.34-1.53a3.885 3.885 0 00-.85-1.292 3.528 3.528 0 00-1.258-.85 3.843 3.843 0 00-1.53-.306c-.544 0-1.065.102-1.564.306a3.977 3.977 0 00-1.258.85 4.91 4.91 0 00-.85 1.258 3.843 3.843 0 00-.306 1.53zm-6.494-.068c0-1.292.26-2.493.782-3.604a8.665 8.665 0 012.176-2.924c.93-.839 2.029-1.496 3.298-1.972 1.292-.476 2.698-.714 4.216-.714 1.496 0 2.879.238 4.148.714 1.292.453 2.403 1.1 3.332 1.938a8.389 8.389 0 012.21 2.958c.522 1.133.782 2.391.782 3.774s-.272 2.652-.816 3.808a9.028 9.028 0 01-2.176 2.958c-.93.816-2.051 1.45-3.366 1.904-1.292.453-2.697.68-4.216.68-1.496 0-2.878-.227-4.148-.68-1.27-.453-2.368-1.1-3.298-1.938a9.155 9.155 0 01-2.142-2.992c-.521-1.179-.782-2.482-.782-3.91zm31.455-3.434V26h-6.154V13.692h-2.04V8.558h2.04V3.322h6.154v5.236h3.502v5.134h-3.502zm5.815-5.134h6.154v2.856c.657-1.043 1.462-1.836 2.414-2.38.952-.567 2.063-.85 3.332-.85h.51c.204 0 .431.023.68.068v5.882a5.847 5.847 0 00-2.652-.612c-1.428 0-2.505.43-3.23 1.292-.703.839-1.054 2.074-1.054 3.706V26h-6.154V8.558zm21.749 8.67c0 .567.102 1.1.306 1.598.204.476.476.895.816 1.258.363.363.782.646 1.258.85a4.183 4.183 0 001.598.306c.544 0 1.054-.102 1.53-.306a3.524 3.524 0 001.258-.85c.363-.363.646-.782.85-1.258.227-.476.34-.986.34-1.53s-.113-1.054-.34-1.53a3.879 3.879 0 00-.85-1.292 3.524 3.524 0 00-1.258-.85 3.843 3.843 0 00-1.53-.306c-.566 0-1.099.102-1.598.306a3.982 3.982 0 00-1.258.85c-.34.363-.612.782-.816 1.258a3.604 3.604 0 00-.306 1.496zm7.752-8.67h6.188V26h-6.188v-1.938c-1.314 1.655-3.094 2.482-5.338 2.482-1.269 0-2.436-.227-3.502-.68a8.673 8.673 0 01-2.788-1.972 9.276 9.276 0 01-1.87-2.958c-.43-1.133-.646-2.369-.646-3.706 0-1.247.216-2.425.646-3.536a9.112 9.112 0 011.802-2.958 8.293 8.293 0 012.754-1.972c1.066-.499 2.244-.748 3.536-.748 2.176 0 3.978.76 5.406 2.278V8.558zm21.936 4.488c-1.133-.59-2.244-.884-3.332-.884-.567 0-1.031.113-1.394.34-.34.227-.51.533-.51.918 0 .204.023.374.068.51.068.113.193.227.374.34.204.113.487.215.85.306.385.09.884.204 1.496.34 1.7.34 2.969.952 3.808 1.836.839.861 1.258 1.972 1.258 3.332 0 1.02-.204 1.938-.612 2.754a6.02 6.02 0 01-1.7 2.074c-.725.544-1.598.963-2.618 1.258-1.02.317-2.142.476-3.366.476-2.357 0-4.681-.669-6.97-2.006l2.244-4.352c1.723 1.179 3.355 1.768 4.896 1.768.567 0 1.031-.125 1.394-.374.363-.25.544-.567.544-.952 0-.227-.034-.408-.102-.544-.045-.159-.159-.295-.34-.408-.181-.136-.453-.25-.816-.34-.34-.113-.793-.227-1.36-.34-1.904-.385-3.241-.952-4.012-1.7-.748-.77-1.122-1.825-1.122-3.162 0-.975.181-1.847.544-2.618a5.424 5.424 0 011.564-2.006c.68-.544 1.496-.963 2.448-1.258.975-.295 2.051-.442 3.23-.442 1.927 0 3.797.374 5.61 1.122l-2.074 4.012zm17.294-4.488h6.154v2.21c.838-1.02 1.688-1.7 2.55-2.04.861-.363 1.87-.544 3.026-.544 1.224 0 2.266.204 3.128.612.884.385 1.632.94 2.244 1.666.498.59.838 1.247 1.02 1.972.181.725.272 1.553.272 2.482V26h-6.154v-8.806c0-.861-.068-1.553-.204-2.074-.114-.544-.329-.975-.646-1.292a2.332 2.332 0 00-.918-.578 3.421 3.421 0 00-1.088-.17c-1.043 0-1.848.317-2.414.952-.544.612-.816 1.496-.816 2.652V26h-6.154V8.558zm28.392 8.636c0 .59.102 1.133.306 1.632.226.476.51.895.85 1.258a3.97 3.97 0 001.258.85 4.09 4.09 0 001.564.306c.544 0 1.054-.102 1.53-.306a3.533 3.533 0 001.258-.85 3.99 3.99 0 00.85-1.258c.226-.499.34-1.031.34-1.598 0-.544-.114-1.054-.34-1.53a3.894 3.894 0 00-.85-1.292 3.533 3.533 0 00-1.258-.85 3.843 3.843 0 00-1.53-.306 4.09 4.09 0 00-1.564.306 3.97 3.97 0 00-1.258.85c-.34.363-.624.782-.85 1.258a3.843 3.843 0 00-.306 1.53zm-6.494-.068c0-1.292.26-2.493.782-3.604a8.653 8.653 0 012.176-2.924c.929-.839 2.028-1.496 3.298-1.972 1.292-.476 2.697-.714 4.216-.714 1.496 0 2.878.238 4.148.714 1.292.453 2.402 1.1 3.332 1.938a8.396 8.396 0 012.21 2.958c.521 1.133.782 2.391.782 3.774s-.272 2.652-.816 3.808a9.04 9.04 0 01-2.176 2.958c-.93.816-2.052 1.45-3.366 1.904-1.292.453-2.698.68-4.216.68-1.496 0-2.879-.227-4.148-.68-1.27-.453-2.369-1.1-3.298-1.938a9.146 9.146 0 01-2.142-2.992c-.522-1.179-.782-2.482-.782-3.91zM14.115 61.202c-1.066-.725-2.142-1.088-3.23-1.088a4.53 4.53 0 00-1.666.306c-.499.204-.941.499-1.326.884a3.968 3.968 0 00-.918 1.326c-.204.499-.306 1.065-.306 1.7 0 .612.102 1.179.306 1.7.226.499.521.94.884 1.326.385.363.838.646 1.36.85a4.53 4.53 0 001.666.306c1.156 0 2.232-.397 3.23-1.19v5.236c-1.519.657-2.958.986-4.318.986-1.27 0-2.482-.215-3.638-.646a9.587 9.587 0 01-3.026-1.836 9.497 9.497 0 01-2.074-2.89c-.522-1.133-.782-2.391-.782-3.774s.249-2.64.748-3.774a8.845 8.845 0 012.04-2.958 8.92 8.92 0 013.06-1.938 10.334 10.334 0 013.842-.714c1.496 0 2.878.317 4.148.952v5.236zm9.324 2.992c0 .59.102 1.133.306 1.632.226.476.51.895.85 1.258.362.363.782.646 1.258.85.498.204 1.02.306 1.564.306s1.054-.102 1.53-.306a3.527 3.527 0 001.258-.85c.362-.363.646-.782.85-1.258.226-.499.34-1.031.34-1.598 0-.544-.114-1.054-.34-1.53a3.884 3.884 0 00-.85-1.292 3.527 3.527 0 00-1.258-.85 3.843 3.843 0 00-1.53-.306c-.544 0-1.066.102-1.564.306a3.978 3.978 0 00-1.258.85c-.34.363-.624.782-.85 1.258a3.843 3.843 0 00-.306 1.53zm-6.494-.068c0-1.292.26-2.493.782-3.604a8.666 8.666 0 012.176-2.924c.929-.839 2.028-1.496 3.298-1.972 1.292-.476 2.697-.714 4.216-.714 1.496 0 2.878.238 4.148.714 1.292.453 2.402 1.1 3.332 1.938a8.388 8.388 0 012.21 2.958c.52 1.133.782 2.391.782 3.774s-.272 2.652-.816 3.808a9.027 9.027 0 01-2.176 2.958c-.93.816-2.052 1.45-3.366 1.904-1.292.453-2.698.68-4.216.68-1.496 0-2.88-.227-4.148-.68-1.27-.453-2.37-1.1-3.298-1.938a9.155 9.155 0 01-2.142-2.992c-.522-1.179-.782-2.482-.782-3.91zm24.486-8.568h6.154V57.7c1.678-1.61 3.559-2.414 5.644-2.414 2.584 0 4.556 1.088 5.916 3.264 1.383-2.199 3.355-3.298 5.916-3.298.816 0 1.587.125 2.312.374a4.5 4.5 0 011.87 1.122c.522.499.93 1.156 1.224 1.972.318.816.476 1.802.476 2.958V73H64.79v-8.602c0-.884-.068-1.61-.204-2.176-.113-.567-.294-1.009-.544-1.326-.226-.317-.498-.533-.816-.646a3.011 3.011 0 00-1.02-.17c-1.972 0-2.958 1.44-2.958 4.318V73h-6.154v-8.602c0-.884-.056-1.61-.17-2.176-.113-.59-.283-1.054-.51-1.394-.204-.34-.476-.567-.816-.68a3.19 3.19 0 00-1.19-.204 3.42 3.42 0 00-1.088.17c-.34.113-.646.34-.918.68-.25.317-.453.77-.612 1.36-.136.567-.204 1.315-.204 2.244V73h-6.154V55.558zM89.67 64.33c0-.544-.102-1.054-.306-1.53a3.489 3.489 0 00-.816-1.292 3.885 3.885 0 00-1.292-.85 3.59 3.59 0 00-1.564-.34c-.544 0-1.054.102-1.53.306a3.977 3.977 0 00-1.258.85c-.34.363-.623.793-.85 1.292a3.843 3.843 0 00-.306 1.53c0 .544.102 1.054.306 1.53.204.476.488.895.85 1.258.363.34.782.623 1.258.85.499.204 1.02.306 1.564.306s1.054-.102 1.53-.306a3.599 3.599 0 001.224-.85 3.98 3.98 0 00.85-1.258 3.44 3.44 0 00.34-1.496zm-7.752 17.374h-6.154V55.558h6.154v1.938c1.315-1.655 3.106-2.482 5.372-2.482 1.247 0 2.403.25 3.468.748a8.564 8.564 0 012.822 1.972 8.803 8.803 0 011.836 2.958 9.704 9.704 0 01.68 3.638c0 1.292-.226 2.493-.68 3.604a8.88 8.88 0 01-1.836 2.924 8.287 8.287 0 01-2.754 1.972c-1.065.476-2.221.714-3.468.714-2.176 0-3.99-.748-5.44-2.244v10.404zm23.398-17.476c0 .567.102 1.1.306 1.598.204.476.476.895.816 1.258.363.363.782.646 1.258.85a4.18 4.18 0 001.598.306c.544 0 1.054-.102 1.53-.306a3.524 3.524 0 001.258-.85c.363-.363.646-.782.85-1.258.227-.476.34-.986.34-1.53s-.113-1.054-.34-1.53a3.879 3.879 0 00-.85-1.292 3.524 3.524 0 00-1.258-.85 3.843 3.843 0 00-1.53-.306 4.18 4.18 0 00-1.598.306 3.982 3.982 0 00-1.258.85c-.34.363-.612.782-.816 1.258a3.604 3.604 0 00-.306 1.496zm7.752-8.67h6.188V73h-6.188v-1.938c-1.315 1.655-3.094 2.482-5.338 2.482-1.269 0-2.437-.227-3.502-.68a8.663 8.663 0 01-2.788-1.972 9.257 9.257 0 01-1.87-2.958c-.43-1.133-.646-2.369-.646-3.706 0-1.247.215-2.425.646-3.536a9.09 9.09 0 011.802-2.958 8.293 8.293 0 012.754-1.972c1.065-.499 2.244-.748 3.536-.748 2.176 0 3.978.76 5.406 2.278v-1.734zm10.376 0h6.154v2.856c.657-1.043 1.462-1.836 2.414-2.38.952-.567 2.063-.85 3.332-.85h.51c.204 0 .431.023.68.068v5.882a5.847 5.847 0 00-2.652-.612c-1.428 0-2.505.43-3.23 1.292-.703.839-1.054 2.074-1.054 3.706V73h-6.154V55.558zm23.337 5.134V73h-6.154V60.692h-2.04v-5.134h2.04v-5.236h6.154v5.236h3.502v5.134h-3.502zm12.434-5.134V73h-6.154V55.558h6.154zm-6.562-6.698c0-.476.091-.918.272-1.326.181-.43.431-.805.748-1.122.317-.317.68-.567 1.088-.748a3.471 3.471 0 011.36-.272c.476 0 .918.09 1.326.272.431.181.805.43 1.122.748.317.317.567.691.748 1.122.181.408.272.85.272 1.326 0 .476-.091.93-.272 1.36-.181.408-.431.77-.748 1.088a3.469 3.469 0 01-1.122.748c-.408.181-.85.272-1.326.272-.476 0-.929-.09-1.36-.272a3.582 3.582 0 01-1.088-.748 3.586 3.586 0 01-.748-1.088 3.475 3.475 0 01-.272-1.36zm10.768 6.698h6.154V57.7c1.677-1.61 3.558-2.414 5.644-2.414 2.584 0 4.556 1.088 5.916 3.264 1.382-2.199 3.354-3.298 5.916-3.298.816 0 1.586.125 2.312.374.725.227 1.348.6 1.87 1.122.521.499.929 1.156 1.224 1.972.317.816.476 1.802.476 2.958V73h-6.154v-8.602c0-.884-.068-1.61-.204-2.176-.114-.567-.295-1.009-.544-1.326-.227-.317-.499-.533-.816-.646a3.017 3.017 0 00-1.02-.17c-1.972 0-2.958 1.44-2.958 4.318V73h-6.154v-8.602c0-.884-.057-1.61-.17-2.176-.114-.59-.284-1.054-.51-1.394-.204-.34-.476-.567-.816-.68a3.192 3.192 0 00-1.19-.204c-.386 0-.748.057-1.088.17-.34.113-.646.34-.918.68-.25.317-.454.77-.612 1.36-.136.567-.204 1.315-.204 2.244V73h-6.154V55.558zm39.548 8.636c0 .59.102 1.133.306 1.632.227.476.51.895.85 1.258.363.363.782.646 1.258.85.499.204 1.02.306 1.564.306s1.054-.102 1.53-.306a3.524 3.524 0 001.258-.85c.363-.363.646-.782.85-1.258.227-.499.34-1.031.34-1.598 0-.544-.113-1.054-.34-1.53a3.879 3.879 0 00-.85-1.292 3.524 3.524 0 00-1.258-.85 3.843 3.843 0 00-1.53-.306c-.544 0-1.065.102-1.564.306a3.982 3.982 0 00-1.258.85 4.92 4.92 0 00-.85 1.258 3.843 3.843 0 00-.306 1.53zm-6.494-.068a8.38 8.38 0 01.782-3.604 8.666 8.666 0 012.176-2.924c.929-.839 2.029-1.496 3.298-1.972 1.292-.476 2.697-.714 4.216-.714 1.496 0 2.879.238 4.148.714 1.292.453 2.403 1.1 3.332 1.938a8.384 8.384 0 012.21 2.958c.521 1.133.782 2.391.782 3.774s-.272 2.652-.816 3.808a9.027 9.027 0 01-2.176 2.958c-.929.816-2.051 1.45-3.366 1.904-1.292.453-2.697.68-4.216.68-1.496 0-2.879-.227-4.148-.68-1.269-.453-2.369-1.1-3.298-1.938a9.146 9.146 0 01-2.142-2.992c-.521-1.179-.782-2.482-.782-3.91zm36.047-4.08c-1.134-.59-2.244-.884-3.332-.884-.567 0-1.032.113-1.394.34-.34.227-.51.533-.51.918 0 .204.022.374.068.51.068.113.192.227.374.34.204.113.487.215.85.306.385.09.884.204 1.496.34 1.7.34 2.969.952 3.808 1.836.838.861 1.258 1.972 1.258 3.332 0 1.02-.204 1.938-.612 2.754a6.02 6.02 0 01-1.7 2.074c-.726.544-1.598.963-2.618 1.258-1.02.317-2.142.476-3.366.476-2.358 0-4.681-.669-6.97-2.006l2.244-4.352c1.722 1.179 3.354 1.768 4.896 1.768.566 0 1.031-.125 1.394-.374.362-.25.544-.567.544-.952 0-.227-.034-.408-.102-.544-.046-.159-.159-.295-.34-.408-.182-.136-.454-.25-.816-.34-.34-.113-.794-.227-1.36-.34-1.904-.385-3.242-.952-4.012-1.7-.748-.77-1.122-1.825-1.122-3.162 0-.975.181-1.847.544-2.618a5.413 5.413 0 011.564-2.006c.68-.544 1.496-.963 2.448-1.258.974-.295 2.051-.442 3.23-.442 1.926 0 3.796.374 5.61 1.122l-2.074 4.012zM50.828 102.558h6.154v2.21c.838-1.02 1.688-1.7 2.55-2.04.861-.363 1.87-.544 3.026-.544 1.224 0 2.266.204 3.128.612a6.065 6.065 0 012.244 1.666 4.835 4.835 0 011.02 1.972c.181.725.272 1.553.272 2.482V120h-6.154v-8.806c0-.861-.068-1.553-.204-2.074-.114-.544-.329-.975-.646-1.292a2.328 2.328 0 00-.918-.578 3.428 3.428 0 00-1.088-.17c-1.043 0-1.848.317-2.414.952-.544.612-.816 1.496-.816 2.652V120h-6.154v-17.442zm28.732 0v9.826c0 2.153 1.043 3.23 3.128 3.23s3.128-1.077 3.128-3.23v-9.826h6.154v11.016c0 2.357-.782 4.125-2.346 5.304-1.541 1.179-3.853 1.768-6.936 1.768-3.083 0-5.406-.589-6.97-1.768-1.541-1.179-2.312-2.947-2.312-5.304v-11.016h6.154zm29.34 6.188c-.204-.861-.623-1.553-1.258-2.074-.635-.521-1.405-.782-2.312-.782-.952 0-1.734.249-2.346.748-.589.499-.963 1.201-1.122 2.108h7.038zm-7.208 3.57c0 2.652 1.247 3.978 3.74 3.978 1.337 0 2.346-.544 3.026-1.632h5.95c-1.201 3.989-4.205 5.984-9.01 5.984-1.473 0-2.822-.215-4.046-.646-1.224-.453-2.278-1.088-3.162-1.904a8.525 8.525 0 01-2.006-2.924c-.476-1.133-.714-2.403-.714-3.808 0-1.451.227-2.754.68-3.91.453-1.179 1.1-2.176 1.938-2.992.839-.816 1.847-1.439 3.026-1.87 1.201-.453 2.55-.68 4.046-.68 1.473 0 2.799.227 3.978.68 1.179.431 2.176 1.065 2.992 1.904.816.839 1.439 1.87 1.87 3.094.431 1.201.646 2.561.646 4.08v.646h-12.954zm28.032-5.27c-1.134-.589-2.244-.884-3.332-.884-.567 0-1.032.113-1.394.34-.34.227-.51.533-.51.918 0 .204.022.374.068.51.068.113.192.227.374.34.204.113.487.215.85.306.385.091.884.204 1.496.34 1.7.34 2.969.952 3.808 1.836.838.861 1.258 1.972 1.258 3.332 0 1.02-.204 1.938-.612 2.754a6.024 6.024 0 01-1.7 2.074c-.726.544-1.598.963-2.618 1.258-1.02.317-2.142.476-3.366.476-2.358 0-4.681-.669-6.97-2.006l2.244-4.352c1.722 1.179 3.354 1.768 4.896 1.768.566 0 1.031-.125 1.394-.374.362-.249.544-.567.544-.952 0-.227-.034-.408-.102-.544-.046-.159-.159-.295-.34-.408-.182-.136-.454-.249-.816-.34-.34-.113-.794-.227-1.36-.34-1.904-.385-3.242-.952-4.012-1.7-.748-.771-1.122-1.825-1.122-3.162 0-.975.181-1.847.544-2.618a5.416 5.416 0 011.564-2.006c.68-.544 1.496-.963 2.448-1.258.974-.295 2.051-.442 3.23-.442 1.926 0 3.796.374 5.61 1.122l-2.074 4.012zm13.071.646V120h-6.154v-12.308h-2.04v-5.134h2.04v-5.236h6.154v5.236h3.502v5.134h-3.502zm5.816-5.134h6.154v2.856c.657-1.043 1.462-1.836 2.414-2.38.952-.567 2.063-.85 3.332-.85h.51c.204 0 .431.023.68.068v5.882a5.847 5.847 0 00-2.652-.612c-1.428 0-2.505.431-3.23 1.292-.703.839-1.054 2.074-1.054 3.706V120h-6.154v-17.442zm21.785 8.636c0 .589.102 1.133.306 1.632a4.9 4.9 0 00.85 1.258c.362.363.782.646 1.258.85a4.09 4.09 0 001.564.306c.544 0 1.054-.102 1.53-.306a3.53 3.53 0 001.258-.85c.362-.363.646-.782.85-1.258.226-.499.34-1.031.34-1.598 0-.544-.114-1.054-.34-1.53a3.894 3.894 0 00-.85-1.292 3.53 3.53 0 00-1.258-.85 3.843 3.843 0 00-1.53-.306 4.09 4.09 0 00-1.564.306 3.965 3.965 0 00-1.258.85 4.9 4.9 0 00-.85 1.258 3.843 3.843 0 00-.306 1.53zm-6.494-.068c0-1.292.26-2.493.782-3.604a8.656 8.656 0 012.176-2.924c.929-.839 2.028-1.496 3.298-1.972 1.292-.476 2.697-.714 4.216-.714 1.496 0 2.878.238 4.148.714 1.292.453 2.402 1.099 3.332 1.938a8.396 8.396 0 012.21 2.958c.521 1.133.782 2.391.782 3.774s-.272 2.652-.816 3.808a9.047 9.047 0 01-2.176 2.958c-.93.816-2.052 1.451-3.366 1.904-1.292.453-2.698.68-4.216.68-1.496 0-2.879-.227-4.148-.68-1.27-.453-2.369-1.099-3.298-1.938a9.149 9.149 0 01-2.142-2.992c-.522-1.179-.782-2.482-.782-3.91zM20.48 149.558h6.154v2.21c.839-1.02 1.689-1.7 2.55-2.04.861-.363 1.87-.544 3.026-.544 1.224 0 2.267.204 3.128.612a6.065 6.065 0 012.244 1.666 4.837 4.837 0 011.02 1.972c.181.725.272 1.553.272 2.482V167H32.72v-8.806c0-.861-.068-1.553-.204-2.074-.113-.544-.329-.975-.646-1.292a2.328 2.328 0 00-.918-.578 3.428 3.428 0 00-1.088-.17c-1.043 0-1.847.317-2.414.952-.544.612-.816 1.496-.816 2.652V167H20.48v-17.442zm28.732 0v9.826c0 2.153 1.043 3.23 3.128 3.23s3.128-1.077 3.128-3.23v-9.826h6.154v11.016c0 2.357-.782 4.125-2.346 5.304-1.541 1.179-3.853 1.768-6.936 1.768-3.083 0-5.406-.589-6.97-1.768-1.541-1.179-2.312-2.947-2.312-5.304v-11.016h6.154zm9.044-7.786l-5.916 5.236-2.856-2.108 4.862-5.95 3.91 2.822zm7.546 7.786h6.154v2.142c1.678-1.609 3.559-2.414 5.644-2.414 2.584 0 4.556 1.088 5.916 3.264 1.383-2.199 3.355-3.298 5.916-3.298.816 0 1.587.125 2.312.374a4.506 4.506 0 011.87 1.122c.522.499.93 1.156 1.224 1.972.318.816.476 1.802.476 2.958V167H89.16v-8.602c0-.884-.068-1.609-.204-2.176-.113-.567-.294-1.009-.544-1.326-.226-.317-.498-.533-.816-.646a3.018 3.018 0 00-1.02-.17c-1.972 0-2.958 1.439-2.958 4.318V167h-6.154v-8.602c0-.884-.056-1.609-.17-2.176-.113-.589-.283-1.054-.51-1.394-.204-.34-.476-.567-.816-.68a3.19 3.19 0 00-1.19-.204c-.385 0-.748.057-1.088.17-.34.113-.646.34-.918.68-.249.317-.453.771-.612 1.36-.136.567-.204 1.315-.204 2.244V167h-6.154v-17.442zm46.485 6.188c-.204-.861-.624-1.553-1.258-2.074-.635-.521-1.406-.782-2.312-.782-.952 0-1.734.249-2.346.748-.59.499-.964 1.201-1.122 2.108h7.038zm-7.208 3.57c0 2.652 1.246 3.978 3.74 3.978 1.337 0 2.346-.544 3.026-1.632h5.95c-1.202 3.989-4.205 5.984-9.01 5.984-1.474 0-2.822-.215-4.046-.646-1.224-.453-2.278-1.088-3.162-1.904a8.52 8.52 0 01-2.006-2.924c-.476-1.133-.714-2.403-.714-3.808 0-1.451.226-2.754.68-3.91.453-1.179 1.099-2.176 1.938-2.992.838-.816 1.847-1.439 3.026-1.87 1.201-.453 2.55-.68 4.046-.68 1.473 0 2.799.227 3.978.68 1.178.431 2.176 1.065 2.992 1.904.816.839 1.439 1.87 1.87 3.094.43 1.201.646 2.561.646 4.08v.646h-12.954zm16.471-9.758h6.154v2.856c.658-1.043 1.462-1.836 2.414-2.38.952-.567 2.063-.85 3.332-.85h.51c.204 0 .431.023.68.068v5.882a5.847 5.847 0 00-2.652-.612c-1.428 0-2.504.431-3.23 1.292-.702.839-1.054 2.074-1.054 3.706V167h-6.154v-17.442zm21.785 8.636c0 .589.102 1.133.306 1.632.227.476.51.895.85 1.258.363.363.782.646 1.258.85.499.204 1.02.306 1.564.306s1.054-.102 1.53-.306a3.52 3.52 0 001.258-.85c.363-.363.646-.782.85-1.258.227-.499.34-1.031.34-1.598 0-.544-.113-1.054-.34-1.53a3.879 3.879 0 00-.85-1.292 3.52 3.52 0 00-1.258-.85 3.843 3.843 0 00-1.53-.306c-.544 0-1.065.102-1.564.306a3.977 3.977 0 00-1.258.85c-.34.363-.623.782-.85 1.258a3.843 3.843 0 00-.306 1.53zm-6.494-.068c0-1.292.261-2.493.782-3.604a8.67 8.67 0 012.176-2.924c.929-.839 2.029-1.496 3.298-1.972 1.292-.476 2.697-.714 4.216-.714 1.496 0 2.879.238 4.148.714 1.292.453 2.403 1.099 3.332 1.938a8.384 8.384 0 012.21 2.958c.521 1.133.782 2.391.782 3.774s-.272 2.652-.816 3.808a9.033 9.033 0 01-2.176 2.958c-.929.816-2.051 1.451-3.366 1.904-1.292.453-2.697.68-4.216.68-1.496 0-2.879-.227-4.148-.68-1.269-.453-2.369-1.099-3.298-1.938a9.149 9.149 0 01-2.142-2.992c-.521-1.179-.782-2.482-.782-3.91zm41.753.102c0 .567.102 1.099.306 1.598a4.3 4.3 0 00.816 1.258c.363.363.782.646 1.258.85a4.183 4.183 0 001.598.306c.544 0 1.054-.102 1.53-.306a3.52 3.52 0 001.258-.85c.363-.363.646-.782.85-1.258.227-.476.34-.986.34-1.53s-.113-1.054-.34-1.53a3.879 3.879 0 00-.85-1.292 3.52 3.52 0 00-1.258-.85 3.843 3.843 0 00-1.53-.306c-.544 0-1.065.102-1.564.306a3.977 3.977 0 00-1.258.85c-.34.363-.623.782-.85 1.258a3.603 3.603 0 00-.306 1.496zm7.752-19.448h6.188V167h-6.188v-1.938c-1.314 1.655-3.094 2.482-5.338 2.482-1.269 0-2.436-.238-3.502-.714a8.669 8.669 0 01-2.788-1.972 9.283 9.283 0 01-1.87-2.958c-.43-1.133-.646-2.357-.646-3.672 0-1.247.204-2.425.612-3.536a9.119 9.119 0 011.802-2.958 8.289 8.289 0 012.754-1.972c1.088-.499 2.278-.748 3.57-.748 2.176 0 3.978.759 5.406 2.278V138.78zm23.126 16.966c-.204-.861-.623-1.553-1.258-2.074-.634-.521-1.405-.782-2.312-.782-.952 0-1.734.249-2.346.748-.589.499-.963 1.201-1.122 2.108h7.038zm-7.208 3.57c0 2.652 1.247 3.978 3.74 3.978 1.338 0 2.346-.544 3.026-1.632h5.95c-1.201 3.989-4.204 5.984-9.01 5.984-1.473 0-2.822-.215-4.046-.646-1.224-.453-2.278-1.088-3.162-1.904a8.529 8.529 0 01-2.006-2.924c-.476-1.133-.714-2.403-.714-3.808 0-1.451.227-2.754.68-3.91.454-1.179 1.1-2.176 1.938-2.992.839-.816 1.848-1.439 3.026-1.87 1.202-.453 2.55-.68 4.046-.68 1.474 0 2.8.227 3.978.68 1.179.431 2.176 1.065 2.992 1.904.816.839 1.44 1.87 1.87 3.094.431 1.201.646 2.561.646 4.08v.646h-12.954zM28.734 214l4.352-25.636h6.596l5.134 13.668 5.1-13.668h6.596L60.864 214h-6.63l-2.21-14.756L45.972 214H43.32l-5.746-14.756L35.364 214h-6.63zm47.594-11.254c-.204-.861-.624-1.553-1.258-2.074-.635-.521-1.406-.782-2.312-.782-.952 0-1.734.249-2.346.748-.59.499-.964 1.201-1.122 2.108h7.038zm-7.208 3.57c0 2.652 1.246 3.978 3.74 3.978 1.337 0 2.346-.544 3.026-1.632h5.95c-1.202 3.989-4.205 5.984-9.01 5.984-1.474 0-2.822-.215-4.046-.646-1.224-.453-2.278-1.088-3.162-1.904a8.525 8.525 0 01-2.006-2.924c-.476-1.133-.714-2.403-.714-3.808 0-1.451.226-2.754.68-3.91.453-1.179 1.1-2.176 1.938-2.992.838-.816 1.847-1.439 3.026-1.87 1.201-.453 2.55-.68 4.046-.68 1.473 0 2.8.227 3.978.68 1.178.431 2.176 1.065 2.992 1.904.816.839 1.44 1.87 1.87 3.094.43 1.201.646 2.561.646 4.08v.646H69.12zm22.183-1.088c0 .567.102 1.099.306 1.598a4.3 4.3 0 00.816 1.258c.363.363.782.646 1.258.85a4.18 4.18 0 001.598.306c.544 0 1.054-.102 1.53-.306a3.523 3.523 0 001.258-.85c.363-.363.646-.782.85-1.258.227-.476.34-.986.34-1.53s-.113-1.054-.34-1.53a3.884 3.884 0 00-.85-1.292 3.523 3.523 0 00-1.258-.85 3.843 3.843 0 00-1.53-.306c-.544 0-1.065.102-1.564.306a3.973 3.973 0 00-1.258.85c-.34.363-.623.782-.85 1.258a3.603 3.603 0 00-.306 1.496zm7.752-19.448h6.188V214h-6.188v-1.938c-1.314 1.655-3.094 2.482-5.338 2.482-1.269 0-2.436-.238-3.502-.714a8.658 8.658 0 01-2.788-1.972 9.266 9.266 0 01-1.87-2.958c-.43-1.133-.646-2.357-.646-3.672 0-1.247.204-2.425.612-3.536a9.101 9.101 0 011.802-2.958 8.283 8.283 0 012.754-1.972c1.088-.499 2.278-.748 3.57-.748 2.176 0 3.978.759 5.406 2.278V185.78zm16.53 10.778V214h-6.154v-17.442h6.154zm-6.562-6.698c0-.476.091-.918.272-1.326.182-.431.431-.805.748-1.122.318-.317.68-.567 1.088-.748a3.476 3.476 0 011.36-.272c.476 0 .918.091 1.326.272.431.181.805.431 1.122.748.318.317.567.691.748 1.122.182.408.272.85.272 1.326 0 .476-.09.929-.272 1.36-.181.408-.43.771-.748 1.088a3.469 3.469 0 01-1.122.748c-.408.181-.85.272-1.326.272-.476 0-.929-.091-1.36-.272a3.594 3.594 0 01-1.088-.748 3.6 3.6 0 01-.748-1.088 3.476 3.476 0 01-.272-1.36zm23.926 12.342c-1.066-.725-2.142-1.088-3.23-1.088-.59 0-1.145.102-1.666.306a4 4 0 00-1.326.884 3.955 3.955 0 00-.918 1.326c-.204.499-.306 1.065-.306 1.7 0 .612.102 1.179.306 1.7.226.499.521.941.884 1.326.385.363.838.646 1.36.85a4.527 4.527 0 001.666.306c1.156 0 2.232-.397 3.23-1.19v5.236c-1.519.657-2.958.986-4.318.986-1.27 0-2.482-.215-3.638-.646a9.59 9.59 0 01-3.026-1.836 9.477 9.477 0 01-2.074-2.89c-.522-1.133-.782-2.391-.782-3.774s.249-2.641.748-3.774a8.826 8.826 0 012.04-2.958 8.904 8.904 0 013.06-1.938 10.333 10.333 0 013.842-.714c1.496 0 2.878.317 4.148.952v5.236zm9.222 3.026c0 .567.102 1.099.306 1.598a4.3 4.3 0 00.816 1.258c.362.363.782.646 1.258.85a4.176 4.176 0 001.598.306c.544 0 1.054-.102 1.53-.306a3.53 3.53 0 001.258-.85c.362-.363.646-.782.85-1.258.226-.476.34-.986.34-1.53s-.114-1.054-.34-1.53a3.894 3.894 0 00-.85-1.292 3.53 3.53 0 00-1.258-.85 3.843 3.843 0 00-1.53-.306c-.567 0-1.1.102-1.598.306a3.965 3.965 0 00-1.258.85 4.3 4.3 0 00-.816 1.258 3.603 3.603 0 00-.306 1.496zm7.752-8.67h6.188V214h-6.188v-1.938c-1.315 1.655-3.094 2.482-5.338 2.482-1.27 0-2.437-.227-3.502-.68a8.647 8.647 0 01-2.788-1.972 9.248 9.248 0 01-1.87-2.958c-.431-1.133-.646-2.369-.646-3.706 0-1.247.215-2.425.646-3.536a9.084 9.084 0 011.802-2.958 8.269 8.269 0 012.754-1.972c1.065-.499 2.244-.748 3.536-.748 2.176 0 3.978.759 5.406 2.278v-1.734zm10.375 0h6.154v2.856c.658-1.043 1.462-1.836 2.414-2.38.952-.567 2.063-.85 3.332-.85h.51c.204 0 .431.023.68.068v5.882a5.847 5.847 0 00-2.652-.612c-1.428 0-2.504.431-3.23 1.292-.702.839-1.054 2.074-1.054 3.706V214h-6.154v-17.442zm28.788 6.188c-.204-.861-.624-1.553-1.258-2.074-.635-.521-1.406-.782-2.312-.782-.952 0-1.734.249-2.346.748-.59.499-.964 1.201-1.122 2.108h7.038zm-7.208 3.57c0 2.652 1.246 3.978 3.74 3.978 1.337 0 2.346-.544 3.026-1.632h5.95c-1.202 3.989-4.205 5.984-9.01 5.984-1.474 0-2.822-.215-4.046-.646-1.224-.453-2.278-1.088-3.162-1.904a8.515 8.515 0 01-2.006-2.924c-.476-1.133-.714-2.403-.714-3.808 0-1.451.226-2.754.68-3.91.453-1.179 1.099-2.176 1.938-2.992.838-.816 1.847-1.439 3.026-1.87 1.201-.453 2.55-.68 4.046-.68 1.473 0 2.799.227 3.978.68 1.178.431 2.176 1.065 2.992 1.904.816.839 1.439 1.87 1.87 3.094.43 1.201.646 2.561.646 4.08v.646h-12.954zm16.165 4.42c0-.544.102-1.054.306-1.53a3.894 3.894 0 012.108-2.142 4.093 4.093 0 011.564-.306c.544 0 1.054.102 1.53.306.499.204.93.487 1.292.85.363.363.646.793.85 1.292.204.476.306.986.306 1.53s-.102 1.065-.306 1.564a3.977 3.977 0 01-.85 1.258 3.869 3.869 0 01-1.292.85 3.843 3.843 0 01-1.53.306 4.093 4.093 0 01-1.564-.306 3.993 3.993 0 01-2.108-2.108 4.093 4.093 0 01-.306-1.564z" fill="#fff"/></svg>