<svg width="132" height="52" viewBox="0 0 132 52" fill="none" xmlns="http://www.w3.org/2000/svg"><path d="M5.525 12.35c0 1.275-.7 1.95-2.125 1.95-1.45 0-2.15-.65-2.15-1.95 0-1.275.7-1.95 2.15-1.95 1.4 0 2.125.675 2.125 1.95zm7.037 0c0 1.275-.7 1.95-2.125 1.95-1.45 0-2.15-.65-2.15-1.95 0-1.275.7-1.95 2.15-1.95 1.4 0 2.125.675 2.125 1.95zm7.037 0c0 1.275-.7 1.95-2.125 1.95-1.45 0-2.15-.65-2.15-1.95 0-1.275.7-1.95 2.15-1.95 1.4 0 2.125.675 2.125 1.95zM36.29 5.925c0-1.2-.075-2.2-1.325-2.2-.925 0-2.075.525-2.6.925v6.7c0 .4.025.45.4.5l1.2.175V14h-6.9v-2l1.125-.15c.35-.05.4-.125.4-.5V4c0-.275-.075-.45-.325-.525L26.915 3l.3-2.025h4.375l.2 1.3.1.05c1.25-.925 2.7-1.6 4.4-1.6 2.725 0 3.775 1.5 3.775 4.25v6.375c0 .4.025.45.4.5l1.25.175V14H36.29V5.925zM49.366 14.3c-4.575 0-6.425-2.8-6.425-6.725 0-4.15 2.175-6.85 6.75-6.85 4.625 0 6.425 2.75 6.425 6.575 0 4.25-2.15 7-6.75 7zm.175-2.625c1.625 0 2.625-1.125 2.625-4.25 0-2.95-.9-4-2.525-4-1.65 0-2.75 1.025-2.75 4.025 0 3.025.975 4.225 2.65 4.225zM.65 43.975l1.125-.15c.35-.05.4-.125.4-.5V36c0-.275-.075-.45-.325-.525L.5 35l.275-2.025h4.4l.3 2h.15c.825-1.275 1.925-2.25 3.525-2.25.575 0 1.725.1 2.175.225v4.55l-3-.1-.25-1.325c-.05-.225-.125-.275-.325-.275-.65 0-1.425.55-1.8.875V43.3c0 .4.025.475.4.5l2.475.2v2H.65v-2.025zm23.57 1.05c-1.55.75-3.25 1.275-5.126 1.275-4.825 0-6.475-3-6.475-6.9 0-4.525 2.775-6.675 6.2-6.675 3.3 0 5.5 1.725 5.5 6.05 0 .3-.025 1.175-.05 1.675h-7.65c.125 1.775.9 2.95 2.95 2.95.975 0 2.025-.225 3.725-.85l.925 2.475zm-3.6-6.95c-.026-2.1-.85-2.65-1.876-2.65-1.075 0-1.95.6-2.1 2.65h3.975zM33.382 35.6c-.05-.225-.075-.3-.25-.35-.325-.1-.925-.2-1.6-.2-1.25 0-1.95.475-1.95 1.275 0 1.025 1.375 1.25 2.9 1.6 1.975.45 4.2 1.15 4.2 4.075 0 3.05-2.475 4.3-5.65 4.3-2.275 0-4.5-.6-4.95-.9v-3.625l2.675.2.25 1.425c.05.225.075.3.3.375.3.1.975.25 1.925.25 1.325 0 2.075-.375 2.075-1.3 0-1-1-1.3-2.275-1.525-2.1-.375-4.85-.825-4.85-4.1 0-3.1 2.65-4.375 5.525-4.375 1.975 0 3.9.45 4.6.725v3.625l-2.675-.175-.25-1.3zm4.857 13.7l1-.15c.35-.05.45-.15.45-.525V36c0-.275-.05-.425-.325-.525L38.04 35l.275-2.025h4.4l.225 1.275.125.05c1.2-.975 2.825-1.575 4.25-1.575 2.8 0 4.8 1.75 4.8 6.4 0 3-1.025 7.175-5.15 7.175-1.3 0-2.475-.425-3.525-1.25v3.55c0 .4.025.475.4.5l2.55.225V51.3h-8.15v-2zm5.2-6.875c.55.475 1.425.95 2.35.95 1.675 0 2.375-1.6 2.375-4.05 0-2.575-.875-3.625-2.125-3.625-1.05 0-2.05.525-2.6.9v5.825zM60.224 46.3c-4.575 0-6.425-2.8-6.425-6.725 0-4.15 2.175-6.85 6.75-6.85 4.625 0 6.425 2.75 6.425 6.575 0 4.25-2.15 7-6.75 7zm.175-2.625c1.625 0 2.625-1.125 2.625-4.25 0-2.95-.9-4-2.525-4-1.65 0-2.75 1.025-2.75 4.025 0 3.025.975 4.225 2.65 4.225zm17.303-5.75c0-1.2-.075-2.2-1.325-2.2-.925 0-2.075.525-2.6.925v6.7c0 .4.025.45.4.5l1.2.175V46h-6.9v-2l1.125-.15c.35-.05.4-.125.4-.5V36c0-.275-.075-.45-.325-.525L68.327 35l.3-2.025h4.375l.2 1.3.1.05c1.25-.925 2.7-1.6 4.4-1.6 2.725 0 3.775 1.5 3.775 4.25v6.375c0 .4.025.45.4.5l1.25.175V46h-5.425v-8.075zM93.678 44.6l-.175-.025c-1.05 1.025-2.275 1.725-4.1 1.725-2.95 0-4.85-1.875-4.85-6.65 0-5.025 2.525-6.925 5.3-6.925 1.45 0 2.575.5 3.525 1.2v-3.8c0-.25-.1-.425-.325-.5l-1.375-.475.275-2.025h5.025v16.25c0 .375.025.425.4.475l1.2.175V46h-4.65l-.25-1.4zm-.45-8.225c-.625-.425-1.425-.75-2.15-.75-1.85 0-2.575 1.725-2.575 3.95 0 2.425.7 3.775 2.275 3.775.85 0 1.775-.5 2.45-1.075v-5.9zm14.783 8.275l-.125-.025c-.95.925-2.2 1.675-4.2 1.675-3.15 0-3.65-2.15-3.65-3.7 0-2.5 1.525-3.625 4.675-3.85l2.875-.2v-1.375c0-1.175-.125-1.975-1.675-1.975-1.2 0-1.825.175-1.825 1.675l-3.525-.3c0-3.375 3.075-3.85 5.375-3.85 3.8 0 5.325 1.025 5.325 4.525v6.075c0 .4.025.45.4.5l1.2.2V46h-4.6l-.25-1.35zm-2.125-3.9c-1.475.1-2 .475-2 1.475s.6 1.375 1.425 1.375c.85 0 1.7-.475 2.275-.9v-2.075l-1.7.125zm15.544-5.15c-.05-.225-.075-.3-.25-.35-.325-.1-.925-.2-1.6-.2-1.25 0-1.95.475-1.95 1.275 0 1.025 1.375 1.25 2.9 1.6 1.975.45 4.2 1.15 4.2 4.075 0 3.05-2.475 4.3-5.65 4.3-2.275 0-4.5-.6-4.95-.9v-3.625l2.675.2.25 1.425c.05.225.075.3.3.375.3.1.975.25 1.925.25 1.325 0 2.075-.375 2.075-1.3 0-1-1-1.3-2.275-1.525-2.1-.375-4.85-.825-4.85-4.1 0-3.1 2.65-4.375 5.525-4.375 1.975 0 3.9.45 4.6.725v3.625l-2.675-.175-.25-1.3zm9.758 8.75c0 1.275-.7 1.95-2.125 1.95-1.45 0-2.15-.65-2.15-1.95 0-1.275.7-1.95 2.15-1.95 1.4 0 2.125.675 2.125 1.95z" fill="#fff"/></svg>