<svg width="160" height="41" viewBox="0 0 160 41" fill="none" xmlns="http://www.w3.org/2000/svg"><path fill="#F3C501" d="M0 0h161v41H0z"/><path d="M38.292 12.29c-1.803 0-3.178-1.001-3.178-2.959V5.03h2.09v4.18c0 .858.495 1.188 1.088 1.188.594 0 1.09-.33 1.09-1.188V5.03h2.09v4.301c0 1.958-1.376 2.959-3.18 2.959zm6.893-.132V5.03H47l2.266 3.157c.165.22.32.539.32.539V5.03h2.09v7.128H49.86l-2.266-3.102a3.906 3.906 0 01-.319-.539v3.641h-2.09zm15.2 0V5.03h1.783l1.397 2.002c.23.341.605.924.605.924s.374-.583.605-.924l1.397-2.002h1.782v7.128h-2.09V8.55s-.363.583-.561.858l-1.133 1.584-1.144-1.584c-.198-.275-.55-.836-.55-.836v3.586h-2.09zm11.307 0V5.03h5.665v1.771h-3.575v.869h3.432v1.749h-3.432v.968h3.707v1.771h-5.797zm9.158 0V5.03h1.815l2.266 3.157c.165.22.319.539.319.539V5.03h2.09v7.128h-1.815l-2.266-3.102a3.906 3.906 0 01-.319-.539v3.641h-2.09zm12.971.132c-2.002 0-2.783-.77-3.003-.858l.682-1.628c.55.308 1.177.649 2.321.649.22 0 .858-.066.858-.44 0-.341-.45-.396-.858-.495-1.375-.308-2.816-.836-2.816-2.442 0-1.485 1.353-2.156 2.816-2.156 1.177 0 2.035.297 2.761.726l-.704 1.617c-.418-.286-1.364-.517-2.057-.517-.176 0-.638.044-.638.33 0 .253.264.363.638.451 1.067.231 3.036.66 3.036 2.486 0 1.628-1.562 2.277-3.036 2.277zm6.085-.132l2.882-7.128h2.156l2.882 7.128h-2.134l-.33-.924h-2.992l-.33.924h-2.134zm3.025-2.53h1.87l-.847-2.409c-.066-.176-.077-.242-.088-.286 0 0-.022.099-.088.286l-.847 2.409zm10.552 2.662c-1.089 0-2.211-.418-2.794-1.617l1.386-1.155c.341.704.792.88 1.419.88.737 0 1.144-.44 1.144-1.221V5.03h2.09v4.081c0 2.057-1.155 3.179-3.245 3.179zm6.964-.132V5.03h5.665v1.771h-3.575v.869h3.432v1.749h-3.432v.968h3.707v1.771h-5.797zM52.993 24.29c-2.288 0-3.817-1.639-3.817-3.696 0-2.035 1.529-3.674 3.817-3.674 2.288 0 3.828 1.639 3.828 3.674 0 2.057-1.54 3.696-3.828 3.696zm0-1.892c.968 0 1.65-.748 1.65-1.804 0-1.034-.682-1.782-1.65-1.782-.902 0-1.639.748-1.639 1.782 0 1.056.682 1.804 1.639 1.804zm7.344 1.76V17.03h5.5v1.771h-3.41v.869h2.981v1.749h-2.98v2.739h-2.09zm8.685 0V17.03h2.09v7.128h-2.09zm9.381.132c-2.266 0-3.773-1.639-3.773-3.696 0-2.035 1.507-3.674 3.773-3.674 1.09 0 2.068.385 2.717 1.034l-1.375 1.419c-.506-.517-.913-.561-1.254-.561-.924 0-1.683.748-1.683 1.782 0 1.056.704 1.804 1.683 1.804.583 0 1.122-.264 1.518-.792l1.331 1.463c-.715.792-1.716 1.221-2.937 1.221zm6.218-.132V17.03h2.09v7.128h-2.09zm5.31 0l2.882-7.128h2.156l2.882 7.128h-2.134l-.33-.924h-2.992l-.33.924h-2.134zm3.025-2.53h1.87l-.847-2.409c-.066-.176-.077-.242-.088-.286 0 0-.022.099-.088.286l-.847 2.409zm8.122 2.53V17.03h2.09v5.357h3.795v1.771h-5.885zm-69.109 12V29.03h2.97c2.387 0 3.883 1.617 3.883 3.564s-1.496 3.564-3.883 3.564h-2.97zm2.09-1.771h.803c1.067 0 1.75-.759 1.75-1.793 0-1.023-.683-1.793-1.75-1.793h-.803v3.586zm8.282 1.771V29.03h5.665v1.771h-3.575v.869h3.432v1.749h-3.432v.968h3.707v1.771h-5.797zm14.126 0V29.03h1.782l1.397 2.002c.231.341.605.924.605.924s.374-.583.605-.924l1.397-2.002h1.782v7.128h-2.09V32.55s-.363.583-.56.858l-1.134 1.584-1.144-1.584c-.198-.275-.55-.836-.55-.836v3.586h-2.09zm11.307 0V29.03h5.665v1.771h-3.575v.869h3.432v1.749h-3.432v.968h3.707v1.771h-5.797zm9.158 0V29.03h2.97c2.387 0 3.883 1.617 3.883 3.564s-1.496 3.564-3.883 3.564h-2.97zm2.09-1.771h.803c1.067 0 1.749-.759 1.749-1.793 0-1.023-.682-1.793-1.75-1.793h-.802v3.586zm8.281 1.771V29.03h2.09v7.128h-2.09zm9.381.132c-2.266 0-3.773-1.639-3.773-3.696 0-2.035 1.507-3.674 3.773-3.674 1.09 0 2.068.385 2.717 1.034l-1.375 1.419c-.506-.517-.913-.561-1.254-.561-.924 0-1.683.748-1.683 1.782 0 1.056.704 1.804 1.683 1.804.583 0 1.122-.264 1.518-.792l1.331 1.463c-.715.792-1.716 1.221-2.937 1.221zm5.808-.132l2.882-7.128h2.156l2.882 7.128h-2.134l-.33-.924h-2.992l-.33.924h-2.134zm3.025-2.53h1.87l-.847-2.409c-.066-.176-.077-.242-.088-.286 0 0-.022.099-.088.286l-.847 2.409zm8.122 2.53V29.03h3.146c2.189 0 3.311 1.265 3.311 2.816 0 .825-.374 1.672-1.122 2.189l1.331 2.123h-2.387l-.814-1.529c-.22.022-.341.033-.517.033h-.858v1.496h-2.09zm2.09-3.267h1.078c.649 0 1.078-.473 1.078-1.045 0-.583-.44-1.045-1.067-1.045h-1.089v2.09zm7.884 3.267V29.03h5.665v1.771h-3.575v.869h3.432v1.749h-3.432v.968h3.707v1.771h-5.797z" fill="#2B3D51"/></svg>