<svg width="268" height="58" viewBox="0 0 268 58" fill="none" xmlns="http://www.w3.org/2000/svg"><rect x="1" y="1" width="266" height="56" rx="7" fill="#FFC332" stroke="#FFE094" stroke-width="2"/><path d="M34.71 37V22.744h5.94c4.773 0 7.765 3.234 7.765 7.128S45.423 37 40.65 37h-5.94zm4.18-3.542h1.605c2.134 0 3.498-1.518 3.498-3.586 0-2.046-1.364-3.586-3.498-3.586H38.89v7.172zM50.832 37V22.744h11.33v3.542h-7.15v1.738h6.864v3.498h-6.864v1.936h7.414V37H50.833zm17.392 0V26.286h-4.466v-3.542H76.87v3.542h-4.466V37h-4.18zm10.73 0V22.744h11.33v3.542h-7.15v1.738h6.864v3.498h-6.864v1.936h7.414V37H78.955zm3.652-14.96l2.31-3.938h3.85l-3.19 3.938h-2.97zM92.65 37V22.744h3.63l4.532 6.314c.33.44.638 1.078.638 1.078v-7.392h4.18V37h-3.63l-4.532-6.204c-.33-.44-.638-1.078-.638-1.078V37h-4.18zm21.161 0V22.744h11.33v3.542h-7.15v1.738h6.864v3.498h-6.864v1.936h7.414V37h-11.594zm13.696 0V22.744h4.18v10.714h7.59V37h-11.77zm19.292 0V22.744h11v3.542h-6.82v1.738h5.962v3.498h-5.962V37h-4.18zm12.751 0V22.744h6.292c4.378 0 6.622 2.53 6.622 5.632 0 1.65-.748 3.344-2.244 4.378L172.883 37h-4.774l-1.628-3.058c-.44.044-.682.066-1.034.066h-1.716V37h-4.18zm4.18-6.534h2.156c1.298 0 2.156-.946 2.156-2.09 0-1.166-.88-2.09-2.134-2.09h-2.178v4.18zM173.845 37l5.764-14.256h4.312L189.685 37h-4.268l-.66-1.848h-5.984l-.66 1.848h-4.268zm6.05-5.06h3.74l-1.694-4.818c-.132-.352-.154-.484-.176-.572 0 0-.044.198-.176.572l-1.694 4.818zm17.271 5.324c-3.608 0-6.358-2.002-6.358-5.918v-8.602h4.18v8.36c0 1.716.99 2.376 2.178 2.376s2.178-.66 2.178-2.376v-8.36h4.18v8.602c0 3.916-2.75 5.918-6.358 5.918zm9.165-.264V22.744h5.94c4.774 0 7.766 3.234 7.766 7.128S217.045 37 212.271 37h-5.94zm4.18-3.542h1.606c2.134 0 3.498-1.518 3.498-3.586 0-2.046-1.364-3.586-3.498-3.586h-1.606v7.172zM222.455 37V22.744h11.33v3.542h-7.15v1.738h6.864v3.498h-6.864v1.936h7.414V37h-11.594z" fill="#1F211C"/></svg>