<svg width="138" height="15" viewBox="0 0 138 15" fill="none" xmlns="http://www.w3.org/2000/svg"><path d="M3.4 11.344h.72c.544 0 1.03-.085 1.456-.256.427-.17.784-.405 1.072-.704.299-.299.523-.65.672-1.056.16-.416.24-.87.24-1.36 0-.48-.08-.928-.24-1.344a3.037 3.037 0 00-.688-1.072 3.026 3.026 0 00-1.072-.704 3.849 3.849 0 00-1.44-.256H3.4v6.752zM.264 1.936h4.64c.821 0 1.59.165 2.304.496.725.33 1.355.773 1.888 1.328.544.544.97 1.184 1.28 1.92.31.725.464 1.488.464 2.288a5.85 5.85 0 01-.464 2.288 5.953 5.953 0 01-1.264 1.92 6.102 6.102 0 01-1.888 1.328 5.457 5.457 0 01-2.32.496H.264V1.936zM18.57 8.704a1.742 1.742 0 00-.592-.976c-.299-.245-.661-.368-1.088-.368-.448 0-.816.117-1.104.352-.277.235-.453.565-.528.992h3.312zm-3.392 1.68c0 1.248.587 1.872 1.76 1.872.63 0 1.104-.256 1.424-.768h2.8c-.565 1.877-1.979 2.816-4.24 2.816A5.702 5.702 0 0115.018 14a4.437 4.437 0 01-1.488-.896 4.01 4.01 0 01-.944-1.376c-.224-.533-.336-1.13-.336-1.792 0-.683.107-1.296.32-1.84a3.875 3.875 0 01.912-1.408c.395-.384.87-.677 1.424-.88.566-.213 1.2-.32 1.904-.32.694 0 1.318.107 1.872.32a3.707 3.707 0 011.408.896c.384.395.677.88.88 1.456.203.565.304 1.205.304 1.92v.304h-6.096zm11.093-2.176V14h-2.896V8.208h-.96V5.792h.96V3.328h2.896v2.464h1.648v2.416H26.27zm8.893.496a1.743 1.743 0 00-.592-.976c-.299-.245-.662-.368-1.088-.368-.448 0-.816.117-1.104.352-.278.235-.454.565-.528.992h3.312zm-3.392 1.68c0 1.248.587 1.872 1.76 1.872.63 0 1.104-.256 1.424-.768h2.8c-.566 1.877-1.979 2.816-4.24 2.816A5.702 5.702 0 0131.612 14a4.437 4.437 0 01-1.488-.896 4.01 4.01 0 01-.944-1.376c-.224-.533-.336-1.13-.336-1.792 0-.683.107-1.296.32-1.84a3.873 3.873 0 01.912-1.408c.395-.384.87-.677 1.424-.88.565-.213 1.2-.32 1.904-.32.693 0 1.317.107 1.872.32a3.708 3.708 0 011.408.896c.384.395.677.88.88 1.456.203.565.304 1.205.304 1.92v.304h-6.096zm4.368-8.256l-2.784 2.464-1.344-.992L34.3.8l1.84 1.328zm3.383 3.664h2.896v1.04c.395-.48.795-.8 1.2-.96.406-.17.88-.256 1.424-.256.576 0 1.067.096 1.472.288.416.181.768.443 1.056.784.235.277.395.587.48.928.086.341.128.73.128 1.168V14h-2.896V9.856c0-.405-.032-.73-.096-.976a1.175 1.175 0 00-.304-.608A1.097 1.097 0 0044.451 8c-.16-.053-.33-.08-.512-.08-.49 0-.87.15-1.136.448-.256.288-.384.704-.384 1.248V14h-2.896V5.792zm22.063 2.912a1.743 1.743 0 00-.592-.976c-.299-.245-.662-.368-1.088-.368-.448 0-.816.117-1.104.352-.278.235-.454.565-.528.992h3.312zm-3.392 1.68c0 1.248.586 1.872 1.76 1.872.63 0 1.104-.256 1.424-.768h2.8c-.566 1.877-1.979 2.816-4.24 2.816A5.702 5.702 0 0158.034 14a4.437 4.437 0 01-1.488-.896 4.01 4.01 0 01-.944-1.376c-.224-.533-.336-1.13-.336-1.792 0-.683.106-1.296.32-1.84a3.873 3.873 0 01.912-1.408c.394-.384.87-.677 1.424-.88.565-.213 1.2-.32 1.904-.32.693 0 1.317.107 1.872.32a3.708 3.708 0 011.408.896c.384.395.677.88.88 1.456.202.565.304 1.205.304 1.92v.304h-6.096zM68.84.72V14h-2.896V.72h2.896zm10.553 7.488V14h-2.896V8.208h-1.04V5.792h1.04V4.56c0-.683.064-1.227.192-1.632.106-.341.277-.656.512-.944.234-.299.506-.555.816-.768A4.13 4.13 0 0179.042.72a3.47 3.47 0 011.072-.176c.245 0 .469.027.672.08.213.053.426.128.64.224v2.528a2.68 2.68 0 00-.544-.208c-.16-.053-.331-.08-.512-.08-.118 0-.24.021-.368.064a.718.718 0 00-.336.224c-.107.117-.182.288-.224.512a6.26 6.26 0 00-.048.88v1.024h2.032v2.416h-2.032zm3.114-2.416h2.896v1.344c.309-.49.688-.864 1.136-1.12.448-.267.97-.4 1.568-.4h.24c.096 0 .202.01.32.032v2.768a2.752 2.752 0 00-1.248-.288c-.672 0-1.179.203-1.52.608-.331.395-.496.976-.496 1.744V14h-2.896V5.792zm10.235 4.08c0 .267.047.517.144.752.096.224.224.421.383.592.171.17.368.304.593.4a1.967 1.967 0 001.472 0 1.66 1.66 0 00.592-.4c.17-.17.303-.368.4-.592.106-.224.16-.464.16-.72 0-.256-.054-.496-.16-.72a1.827 1.827 0 00-.4-.608 1.66 1.66 0 00-.593-.4 1.967 1.967 0 00-1.472 0c-.224.096-.42.23-.592.4-.16.17-.287.368-.383.592a1.696 1.696 0 00-.144.704zm3.648-4.08h2.911V14H96.39v-.912c-.618.779-1.456 1.168-2.511 1.168a4.166 4.166 0 01-1.648-.32 4.076 4.076 0 01-1.313-.928 4.358 4.358 0 01-.88-1.392 4.87 4.87 0 01-.303-1.744c0-.587.1-1.141.303-1.664a4.28 4.28 0 01.849-1.392 3.9 3.9 0 011.296-.928 3.876 3.876 0 011.663-.352c1.025 0 1.873.357 2.544 1.072v-.816zm7.778 0v4.624c0 1.013.491 1.52 1.472 1.52.982 0 1.472-.507 1.472-1.52V5.792h2.896v5.184c0 1.11-.368 1.941-1.104 2.496-.725.555-1.813.832-3.264.832-1.45 0-2.544-.277-3.28-.832-.725-.555-1.088-1.387-1.088-2.496V5.792h2.896zm10.495 4.08c0 .267.048.517.144.752.096.224.224.421.384.592.171.17.368.304.592.4.235.096.486.144.752.144.256 0 .496-.048.72-.144.235-.096.432-.23.592-.4.171-.17.304-.368.4-.592.107-.224.16-.464.16-.72 0-.256-.053-.496-.16-.72a1.823 1.823 0 00-.4-.608 1.657 1.657 0 00-.592-.4 1.927 1.927 0 00-1.456 0c-.224.096-.421.23-.592.4a2.32 2.32 0 00-.4.592 1.696 1.696 0 00-.144.704zM118.312.72h2.912V14h-2.912v-.912c-.618.779-1.456 1.168-2.512 1.168a3.997 3.997 0 01-2.96-1.264 4.375 4.375 0 01-.88-1.392 4.839 4.839 0 01-.304-1.728c0-.587.096-1.141.288-1.664.203-.533.486-.997.848-1.392a3.906 3.906 0 011.296-.928 3.984 3.984 0 011.68-.352c1.024 0 1.872.357 2.544 1.072V.72zm10.883 7.984a1.74 1.74 0 00-.592-.976c-.299-.245-.661-.368-1.088-.368-.448 0-.816.117-1.104.352-.277.235-.453.565-.528.992h3.312zm-3.392 1.68c0 1.248.587 1.872 1.76 1.872.629 0 1.104-.256 1.424-.768h2.8c-.565 1.877-1.979 2.816-4.24 2.816a5.704 5.704 0 01-1.904-.304 4.437 4.437 0 01-1.488-.896 4.015 4.015 0 01-.944-1.376c-.224-.533-.336-1.13-.336-1.792 0-.683.107-1.296.32-1.84a3.865 3.865 0 01.912-1.408 3.962 3.962 0 011.424-.88c.565-.213 1.2-.32 1.904-.32.693 0 1.317.107 1.872.32a3.705 3.705 0 011.408.896c.384.395.677.88.88 1.456.203.565.304 1.205.304 1.92v.304h-6.096zm7.608 2.08c0-.256.048-.496.144-.72.096-.235.229-.437.4-.608.17-.17.368-.304.592-.4a1.923 1.923 0 011.456 0c.234.096.437.23.608.4.17.17.304.373.4.608a1.926 1.926 0 010 1.456 1.838 1.838 0 01-1.008.992 1.923 1.923 0 01-1.456 0 1.864 1.864 0 01-1.136-1.728z" fill="#fff"/></svg>