<svg width="258" height="16" viewBox="0 0 258 16" fill="none" xmlns="http://www.w3.org/2000/svg"><path d="M.556 11.016c0-.329.12-.613.36-.853s.527-.36.861-.36c.334 0 .621.12.862.36.24.24.36.527.36.861 0 .34-.12.63-.36.87a1.171 1.171 0 01-.862.352c-.345 0-.635-.117-.87-.351a1.192 1.192 0 01-.351-.88zm4.114 0c0-.329.12-.613.36-.853s.528-.36.862-.36c.334 0 .621.12.861.36s.36.527.36.861c0 .34-.12.63-.36.87a1.171 1.171 0 01-.861.352c-.346 0-.636-.117-.87-.351a1.192 1.192 0 01-.352-.88zm4.115 0c0-.329.12-.613.36-.853s.528-.36.862-.36c.334 0 .62.12.861.36.24.24.36.527.36.861 0 .34-.12.63-.36.87a1.171 1.171 0 01-.861.352c-.346 0-.636-.117-.87-.351a1.192 1.192 0 01-.352-.88zm8.438 4.607v-4.368c-.61.624-1.308.936-2.092.936-.898 0-1.643-.33-2.235-.99-.597-.666-.896-1.498-.896-2.496 0-1.012.299-1.857.896-2.536.601-.675 1.356-1.012 2.262-1.012.77 0 1.459.303 2.065.91v-.725h1.545v10.281h-1.545zm-3.65-6.986c0 .642.173 1.164.52 1.565.345.41.785.615 1.318.615.566 0 1.024-.196 1.374-.588.356-.396.534-.911.534-1.544 0-.625-.176-1.14-.527-1.545-.35-.397-.806-.595-1.367-.595-.529 0-.97.2-1.326.601-.351.406-.526.903-.526 1.49zm8.838-3.295v3.821c0 1.103.436 1.654 1.306 1.654.87 0 1.306-.551 1.306-1.654V5.342h1.538v3.855c0 .533-.066.994-.198 1.381a2.318 2.318 0 01-.663.937c-.52.45-1.18.676-1.983.676-.797 0-1.456-.225-1.976-.676a2.356 2.356 0 01-.676-.937c-.128-.31-.192-.77-.192-1.38V5.341h1.538zm12.155 3.691h-4.772c.041.547.219.982.534 1.306.314.319.717.478 1.21.478.382 0 .699-.09.95-.273.246-.182.526-.52.84-1.012l1.3.725a5.3 5.3 0 01-.636.882 3.521 3.521 0 01-.718.601 2.936 2.936 0 01-.827.342c-.297.073-.618.11-.964.11-.994 0-1.791-.32-2.393-.958-.601-.642-.902-1.494-.902-2.556 0-1.053.292-1.905.875-2.557.588-.642 1.367-.964 2.338-.964.98 0 1.754.312 2.324.937.565.62.848 1.479.848 2.577l-.007.362zm-1.58-1.258c-.214-.82-.73-1.23-1.551-1.23-.187 0-.362.03-.526.089a1.454 1.454 0 00-.452.246 1.539 1.539 0 00-.341.383c-.096.15-.17.321-.22.512h3.09zm9.175-.998V12h-1.539V6.777h-.656V5.342h.656v-2.44h1.538v2.44h1.197v1.435H42.16zm8.428 2.256h-4.771c.04.547.218.982.533 1.306.314.319.718.478 1.21.478.383 0 .7-.09.95-.273.246-.182.526-.52.84-1.012l1.3.725c-.2.342-.413.636-.636.882a3.522 3.522 0 01-.718.601c-.255.155-.53.27-.827.342-.296.073-.617.11-.964.11-.993 0-1.79-.32-2.392-.958-.602-.642-.903-1.494-.903-2.556 0-1.053.292-1.905.875-2.557.588-.642 1.367-.964 2.338-.964.98 0 1.755.312 2.324.937.566.62.848 1.479.848 2.577l-.007.362zM49.01 7.775c-.214-.82-.731-1.23-1.552-1.23-.186 0-.362.03-.526.089a1.452 1.452 0 00-.451.246 1.535 1.535 0 00-.342.383c-.096.15-.169.321-.219.512h3.09zm9.126 7.848h-1.538V5.342h1.538v.724c.606-.606 1.294-.909 2.064-.909.916 0 1.67.337 2.263 1.012.602.67.902 1.515.902 2.536 0 .998-.298 1.83-.895 2.495-.592.661-1.34.991-2.242.991-.78 0-1.477-.312-2.092-.936v4.368zm3.657-6.911c0-.638-.173-1.158-.52-1.559a1.68 1.68 0 00-1.325-.608c-.566 0-1.023.196-1.374.588-.351.392-.527.907-.527 1.545 0 .624.176 1.14.527 1.545.346.396.802.594 1.367.594.533 0 .973-.2 1.32-.601.354-.401.532-.903.532-1.504zm4.738-3.37V12h-1.538V5.342h1.538zm-1.77-2.769c0-.269.097-.501.293-.697a.96.96 0 01.704-.294c.278 0 .515.098.711.294a.946.946 0 01.294.704.969.969 0 01-.294.711.946.946 0 01-.704.294.969.969 0 01-.711-.294.977.977 0 01-.294-.718zM73.386.454h1.545V12h-1.545v-.697c-.606.592-1.292.888-2.058.888-.911 0-1.668-.332-2.27-.998-.596-.679-.895-1.526-.895-2.543 0-.993.299-1.823.896-2.488.592-.67 1.337-1.005 2.235-1.005.78 0 1.477.32 2.092.957V.454zm-3.65 8.196c0 .638.17 1.158.512 1.559.351.406.793.608 1.327.608.57 0 1.03-.196 1.38-.588.351-.405.527-.92.527-1.544 0-.625-.176-1.14-.527-1.545-.35-.397-.806-.595-1.367-.595-.528 0-.97.2-1.326.601-.35.406-.526.907-.526 1.504zm12.045-3.308h1.544V12h-1.544v-.697c-.634.592-1.315.888-2.044.888-.921 0-1.682-.332-2.284-.998-.597-.679-.895-1.526-.895-2.543 0-.998.298-1.83.895-2.495s1.345-.998 2.243-.998c.774 0 1.47.32 2.085.957v-.772zm-3.65 3.308c0 .638.17 1.158.512 1.559.35.406.793.608 1.326.608.57 0 1.03-.196 1.38-.588.352-.405.527-.92.527-1.544 0-.625-.175-1.14-.526-1.545-.351-.397-.807-.595-1.367-.595-.529 0-.971.2-1.326.601-.351.406-.527.907-.527 1.504zm7.136-3.308h1.545v.615c.538-.533 1.144-.8 1.818-.8.775 0 1.379.244 1.812.732.373.414.56 1.091.56 2.03V12h-1.545V8.281c0-.656-.09-1.11-.273-1.36-.178-.255-.501-.383-.97-.383-.511 0-.874.169-1.088.506-.21.333-.314.914-.314 1.743V12h-1.545V5.342zm13.59 1.435V12H97.32V6.777h-.657V5.342h.657v-2.44h1.538v2.44h1.196v1.435h-1.196zm3.78-1.435v3.821c0 1.103.435 1.654 1.306 1.654.87 0 1.305-.551 1.305-1.654V5.342h1.538v3.855c0 .533-.066.994-.198 1.381a2.307 2.307 0 01-.663.937c-.519.45-1.18.676-1.982.676-.798 0-1.456-.225-1.976-.676a2.355 2.355 0 01-.677-.937c-.127-.31-.191-.77-.191-1.38V5.341h1.538zm10.411 0h1.545v.615c.538-.533 1.144-.8 1.818-.8.775 0 1.379.244 1.812.732.374.414.56 1.091.56 2.03V12h-1.544V8.281c0-.656-.092-1.11-.274-1.36-.178-.255-.501-.383-.971-.383-.51 0-.872.169-1.086.506-.21.333-.315.914-.315 1.743V12h-1.545V5.342zm9.222 0v3.821c0 1.103.435 1.654 1.305 1.654.871 0 1.306-.551 1.306-1.654V5.342h1.538v3.855c0 .533-.066.994-.198 1.381a2.326 2.326 0 01-.663.937c-.52.45-1.18.676-1.983.676-.797 0-1.456-.225-1.975-.676a2.355 2.355 0 01-.677-.937c-.127-.31-.191-.77-.191-1.38V5.341h1.538zm3.719-3.281l-2.489 2.255-.841-.52 1.88-2.487 1.45.752zm2.372 3.28h1.538v.616c.296-.31.549-.52.759-.629.223-.114.503-.17.84-.17.752 0 1.347.327 1.785.984.483-.657 1.137-.985 1.961-.985 1.5 0 2.249.91 2.249 2.728V12h-1.544V8.302c0-.638-.078-1.09-.233-1.354-.159-.269-.421-.403-.786-.403-.424 0-.734.16-.93.478-.191.32-.287.832-.287 1.539V12h-1.545V8.322c0-1.185-.342-1.777-1.025-1.777-.433 0-.75.162-.95.485-.196.324-.294.834-.294 1.532V12h-1.538V5.342zm17.137 3.692h-4.771c.041.547.219.982.533 1.306.315.319.718.478 1.21.478.383 0 .7-.09.95-.273.246-.182.527-.52.841-1.012l1.299.725a5.342 5.342 0 01-.636.882 3.494 3.494 0 01-.718.601 2.933 2.933 0 01-.827.342c-.296.073-.617.11-.964.11-.993 0-1.791-.32-2.392-.958-.602-.642-.903-1.494-.903-2.556 0-1.053.292-1.905.875-2.557.588-.642 1.368-.964 2.338-.964.98 0 1.755.312 2.325.937.565.62.847 1.479.847 2.577l-.007.362zm-1.579-1.258c-.214-.82-.731-1.23-1.552-1.23-.186 0-.362.03-.526.089a1.455 1.455 0 00-.451.246 1.546 1.546 0 00-.342.383c-.096.15-.168.321-.219.512h3.09zm3.268-2.433h1.538v.595c.282-.297.533-.5.752-.609.223-.114.487-.17.793-.17.405 0 .829.131 1.271.396l-.704 1.408c-.291-.21-.576-.315-.854-.315-.839 0-1.258.634-1.258 1.9V12h-1.538V5.342zm4.799 3.281c0-.962.344-1.78 1.032-2.454.688-.675 1.527-1.012 2.515-1.012.994 0 1.837.34 2.53 1.019.683.679 1.025 1.513 1.025 2.502 0 .998-.344 1.834-1.032 2.508-.693.67-1.543 1.005-2.55 1.005-.998 0-1.834-.341-2.509-1.025-.674-.675-1.011-1.522-1.011-2.543zm1.572.027c0 .666.178 1.192.533 1.58.365.391.845.587 1.442.587.602 0 1.083-.193 1.443-.58.36-.388.54-.905.54-1.552 0-.648-.18-1.165-.54-1.552-.365-.392-.846-.588-1.443-.588-.587 0-1.064.196-1.428.588-.365.392-.547.898-.547 1.517zM169.951.454h1.545V12h-1.545v-.697c-.606.592-1.292.888-2.057.888-.912 0-1.668-.332-2.27-.998-.597-.679-.895-1.526-.895-2.543 0-.993.298-1.823.895-2.488.593-.67 1.338-1.005 2.236-1.005.779 0 1.476.32 2.091.957V.454zm-3.65 8.196c0 .638.171 1.158.513 1.559a1.68 1.68 0 001.326.608c.57 0 1.03-.196 1.381-.588.351-.405.526-.92.526-1.544 0-.625-.175-1.14-.526-1.545-.351-.397-.807-.595-1.367-.595-.529 0-.971.2-1.327.601-.35.406-.526.907-.526 1.504zm13.2.383h-4.771c.041.547.219.982.533 1.306.314.319.718.478 1.21.478.383 0 .7-.09.95-.273.246-.182.527-.52.841-1.012l1.299.725a5.342 5.342 0 01-.636.882 3.52 3.52 0 01-.718.601 2.933 2.933 0 01-.827.342c-.296.073-.617.11-.964.11-.993 0-1.791-.32-2.392-.958-.602-.642-.903-1.494-.903-2.556 0-1.053.292-1.905.875-2.557.588-.642 1.368-.964 2.338-.964.98 0 1.755.312 2.324.937.566.62.848 1.479.848 2.577l-.007.362zm-1.579-1.258c-.214-.82-.731-1.23-1.552-1.23-.186 0-.362.03-.526.089a1.455 1.455 0 00-.451.246 1.546 1.546 0 00-.342.383c-.096.15-.169.321-.219.512h3.09z" fill="#fff" fill-opacity=".75"/><path d="M185.169 12l1.792-10.556h2.716l2.114 5.628 2.1-5.628h2.716L198.399 12h-2.73l-.91-6.076L192.267 12h-1.092l-2.366-6.076-.91 6.076h-2.73zm19.598-4.634a1.526 1.526 0 00-.518-.854 1.453 1.453 0 00-.952-.322c-.392 0-.714.103-.966.308-.243.205-.397.495-.462.868h2.898zm-2.968 1.47c0 1.092.513 1.638 1.54 1.638.55 0 .966-.224 1.246-.672h2.45c-.495 1.643-1.732 2.464-3.71 2.464a4.99 4.99 0 01-1.666-.266 3.883 3.883 0 01-1.302-.784 3.504 3.504 0 01-.826-1.204 4.013 4.013 0 01-.294-1.568c0-.597.093-1.134.28-1.61.186-.485.452-.896.798-1.232.345-.336.76-.593 1.246-.77a4.687 4.687 0 011.666-.28c.606 0 1.152.093 1.638.28.485.177.896.439 1.232.784.336.345.592.77.77 1.274.177.495.266 1.055.266 1.68v.266h-5.334zm9.134-.448c0 .233.042.453.126.658.084.196.196.369.336.518.15.15.322.266.518.35a1.725 1.725 0 001.288 0c.206-.084.378-.2.518-.35.15-.15.266-.322.35-.518.094-.196.14-.406.14-.63 0-.224-.046-.434-.14-.63a1.59 1.59 0 00-.35-.532 1.447 1.447 0 00-.518-.35 1.687 1.687 0 00-1.274 0c-.196.084-.368.2-.518.35a2.04 2.04 0 00-.35.518 1.484 1.484 0 00-.126.616zM214.125.38h2.548V12h-2.548v-.798c-.541.681-1.274 1.022-2.198 1.022a3.498 3.498 0 01-2.59-1.106 3.829 3.829 0 01-.77-1.218 4.229 4.229 0 01-.266-1.512c0-.513.084-.999.252-1.456.178-.467.425-.873.742-1.218a3.426 3.426 0 011.134-.812 3.486 3.486 0 011.47-.308c.896 0 1.638.313 2.226.938V.38zm6.807 4.438V12h-2.534V4.818h2.534zM218.23 2.06c0-.196.037-.378.112-.546a1.468 1.468 0 01.756-.77 1.427 1.427 0 011.876.77c.074.168.112.35.112.546 0 .196-.038.383-.112.56a1.439 1.439 0 01-.77.756 1.427 1.427 0 01-1.106 0 1.469 1.469 0 01-.448-.308 1.46 1.46 0 01-.308-.448 1.423 1.423 0 01-.112-.56zm9.851 5.082c-.438-.299-.882-.448-1.33-.448a1.87 1.87 0 00-.686.126 1.654 1.654 0 00-.546.364c-.158.15-.284.331-.378.546a1.835 1.835 0 00-.126.7c0 .252.042.485.126.7.094.205.215.387.364.546.159.15.346.266.56.35.215.084.444.126.686.126.476 0 .92-.163 1.33-.49v2.156c-.625.27-1.218.406-1.778.406a4.26 4.26 0 01-1.498-.266 3.953 3.953 0 01-1.246-.756 3.928 3.928 0 01-.854-1.19 3.685 3.685 0 01-.322-1.554c0-.57.103-1.087.308-1.554.206-.476.486-.882.84-1.218a3.68 3.68 0 011.26-.798 4.256 4.256 0 011.582-.294c.616 0 1.186.13 1.708.392v2.156zm3.798 1.246c0 .233.042.453.126.658.084.196.196.369.336.518.149.15.322.266.518.35a1.717 1.717 0 001.288 0c.205-.084.378-.2.518-.35.149-.15.266-.322.35-.518.093-.196.14-.406.14-.63 0-.224-.047-.434-.14-.63a1.604 1.604 0 00-.35-.532 1.456 1.456 0 00-.518-.35 1.717 1.717 0 00-1.288 0c-.196.084-.369.2-.518.35-.14.15-.252.322-.336.518a1.484 1.484 0 00-.126.616zm3.192-3.57h2.548V12h-2.548v-.798c-.542.681-1.274 1.022-2.198 1.022a3.641 3.641 0 01-1.442-.28 3.557 3.557 0 01-1.148-.812 3.794 3.794 0 01-.77-1.218 4.247 4.247 0 01-.266-1.526c0-.513.088-.999.266-1.456.177-.467.424-.873.742-1.218a3.405 3.405 0 011.134-.812 3.39 3.39 0 011.456-.308c.896 0 1.638.313 2.226.938v-.714zm4.272 0h2.534v1.176a2.85 2.85 0 01.994-.98c.392-.233.849-.35 1.372-.35h.21c.084 0 .177.01.28.028v2.422a2.408 2.408 0 00-1.092-.252c-.588 0-1.031.177-1.33.532-.289.345-.434.854-.434 1.526V12h-2.534V4.818zm11.853 2.548a1.52 1.52 0 00-.518-.854 1.45 1.45 0 00-.952-.322c-.392 0-.714.103-.966.308-.242.205-.396.495-.462.868h2.898zm-2.968 1.47c0 1.092.514 1.638 1.54 1.638.551 0 .966-.224 1.246-.672h2.45c-.494 1.643-1.731 2.464-3.71 2.464a4.994 4.994 0 01-1.666-.266 3.883 3.883 0 01-1.302-.784 3.518 3.518 0 01-.826-1.204 4.013 4.013 0 01-.294-1.568c0-.597.094-1.134.28-1.61.187-.485.453-.896.798-1.232a3.475 3.475 0 011.246-.77 4.691 4.691 0 011.666-.28c.607 0 1.153.093 1.638.28.486.177.896.439 1.232.784.336.345.593.77.77 1.274.178.495.266 1.055.266 1.68v.266h-5.334zm6.551 2.012c0-.192.036-.372.108-.54a1.37 1.37 0 01.744-.756 1.444 1.444 0 011.092 0c.176.072.328.172.456.3s.228.28.3.456a1.444 1.444 0 010 1.092 1.37 1.37 0 01-.756.744 1.444 1.444 0 01-1.092 0 1.404 1.404 0 01-.852-1.296z" fill="#fff"/></svg>