<svg width="134" height="12" viewBox="0 0 134 12" fill="none" xmlns="http://www.w3.org/2000/svg"><path d="M6.743 6.551H1.56c.075.473.275.85.6 1.128.324.28.74.419 1.244.419.603 0 1.121-.219 1.555-.654l1.359.66c-.339.498-.745.865-1.218 1.104-.473.239-1.034.357-1.684.357-1.009 0-1.83-.328-2.464-.987C.318 7.919 0 7.095 0 6.103c0-.99.317-1.858.949-2.53.632-.67 1.425-1.005 2.38-1.005 1.012 0 1.835.336 2.47 1.006.634.67.951 1.556.951 2.658l-.005.318-.002.001zM5.13 5.236a1.67 1.67 0 00-.63-.905 1.783 1.783 0 00-1.093-.35c-.45 0-.844.132-1.184.392-.213.163-.41.45-.593.863h3.5zM11.774 3.67l-.998 1.033c-.406-.416-.775-.624-1.105-.624-.181 0-.324.04-.426.119a.36.36 0 00-.153.296c0 .09.032.173.097.247.065.076.225.18.482.309l.591.306c.623.318 1.05.642 1.283.972.232.33.349.717.349 1.161 0 .592-.21 1.085-.63 1.48-.42.396-.982.593-1.687.593-.939 0-1.686-.38-2.247-1.138l.993-1.12c.19.229.41.413.665.554.254.14.48.21.677.21.213 0 .384-.052.514-.157.13-.106.194-.228.194-.368 0-.256-.234-.507-.702-.752l-.544-.28c-1.04-.543-1.56-1.222-1.56-2.037 0-.526.196-.976.588-1.349.392-.373.894-.56 1.504-.56.417 0 .81.096 1.18.285.368.19.68.462.936.816v.004z" fill="#fff" fill-opacity=".75"/><path d="M13.463 7.651c.256 0 .475.092.656.278.181.186.271.41.271.676 0 .265-.09.492-.27.68a.88.88 0 01-.657.28.882.882 0 01-.657-.28.942.942 0 01-.271-.68c0-.265.09-.49.271-.676.181-.186.4-.278.657-.278z" fill="#fff" fill-opacity=".75"/><path d="M16.99.398H18.6l2.017 6.276L22.652.398h1.612l1.46 8.998h-1.6l-.932-5.682-1.848 5.682h-1.46l-1.83-5.682-.955 5.682h-1.615L16.989.398zM33.245 6.552h-5.184c.075.474.275.85.6 1.13.325.278.74.418 1.245.418.603 0 1.122-.218 1.556-.655l1.36.661c-.339.497-.745.867-1.219 1.105-.473.24-1.034.358-1.685.358-1.009 0-1.83-.329-2.465-.988-.635-.658-.953-1.483-.953-2.473 0-.99.316-1.859.95-2.528.632-.67 1.425-1.006 2.379-1.006 1.012 0 1.835.336 2.47 1.006.634.672.952 1.556.952 2.657l-.006.318h-.002l.002-.003zm-1.614-1.315A1.676 1.676 0 0031 4.332a1.784 1.784 0 00-1.092-.349c-.45 0-.845.13-1.186.391-.213.163-.411.451-.592.863h3.5zM39.154.17h1.614v9.224h-1.614V8.69c-.316.31-.631.534-.948.67-.315.135-.66.205-1.03.205-.831 0-1.549-.334-2.156-1-.606-.666-.91-1.495-.91-2.486 0-.992.292-1.87.88-2.528.587-.656 1.298-.985 2.138-.985.386 0 .748.076 1.086.226.339.15.65.378.938.679V.17h.002zm-1.698 3.94a1.6 1.6 0 00-1.243.548c-.33.364-.495.832-.495 1.404 0 .57.168 1.047.503 1.418.335.37.748.556 1.24.556.491 0 .927-.182 1.26-.548.334-.364.5-.842.5-1.435 0-.593-.167-1.047-.5-1.407-.334-.358-.755-.538-1.266-.538v.002zM43.05 0c.282 0 .525.107.727.318.202.212.304.47.304.77 0 .302-.101.552-.302.762a.963.963 0 01-.717.316.984.984 0 01-.734-.322 1.098 1.098 0 01-.304-.78c0-.306.1-.544.299-.752A.971.971 0 0143.048 0h.002zm-.807 2.74h1.614v6.654h-1.614V2.74zM51.57 4.087l-1.343.766c-.251-.274-.502-.462-.748-.57a2.17 2.17 0 00-.867-.159c-.603 0-1.092.185-1.465.558-.372.372-.559.85-.559 1.432s.179 1.027.54 1.387c.358.358.83.538 1.414.538.722 0 1.284-.256 1.686-.766l1.271.901c-.69.93-1.662 1.394-2.92 1.394-1.133 0-2.017-.347-2.657-1.04-.64-.694-.962-1.506-.962-2.436 0-.644.157-1.237.466-1.78a3.373 3.373 0 011.304-1.278 3.787 3.787 0 011.87-.465c.64 0 1.212.132 1.72.395.51.263.924.637 1.247 1.123v.003l.003-.003zM57.178 2.74h1.614v6.653h-1.614V8.69c-.315.31-.63.534-.947.67-.316.135-.66.205-1.031.205-.83 0-1.548-.334-2.155-1-.606-.666-.91-1.495-.91-2.486 0-.991.292-1.87.88-2.527.587-.657 1.298-.986 2.137-.986.386 0 .748.076 1.087.226.339.15.65.378.938.68v-.735.002h.001zM55.48 4.11a1.6 1.6 0 00-1.243.547c-.33.365-.495.833-.495 1.404s.168 1.047.503 1.418c.336.371.748.556 1.24.556s.928-.181 1.26-.547c.335-.365.5-.843.5-1.436 0-.592-.166-1.047-.5-1.407-.333-.358-.754-.538-1.266-.538v.003h.001zM60.162 2.74h1.383v.838c.149-.33.35-.582.597-.752.248-.17.52-.257.816-.257.208 0 .428.057.656.17l-.502 1.437c-.19-.097-.345-.146-.466-.146-.248 0-.458.16-.63.477-.172.318-.258.942-.258 1.872l.006.325v2.692h-1.601V2.74h-.002zM70.521 6.552h-5.184c.075.474.275.85.6 1.13.325.278.74.418 1.246.418.602 0 1.12-.218 1.555-.655l1.36.661c-.339.497-.745.867-1.219 1.105-.473.24-1.034.358-1.685.358-1.009 0-1.83-.329-2.465-.988-.635-.658-.952-1.483-.952-2.473 0-.99.315-1.859.948-2.528.633-.67 1.427-1.006 2.38-1.006 1.012 0 1.835.336 2.47 1.006.634.672.952 1.556.952 2.657l-.006.318h-.002l.002-.003zm-1.614-1.315a1.676 1.676 0 00-.631-.905 1.789 1.789 0 00-1.092-.349c-.45 0-.845.13-1.185.391-.214.163-.412.451-.593.863h3.5zM72.184 7.652c.255 0 .475.094.656.279.181.185.272.411.272.675 0 .264-.09.492-.272.68a.882.882 0 01-.656.28.882.882 0 01-.656-.28.94.94 0 01-.272-.68c0-.266.09-.49.272-.675a.888.888 0 01.656-.279zM79.03 2.74h1.608v5.7c0 1.124-.218 1.952-.656 2.482C79.395 11.64 78.51 12 77.327 12c-.63 0-1.16-.08-1.59-.244a2.825 2.825 0 01-1.087-.718 2.964 2.964 0 01-.657-1.152h1.78c.157.187.359.328.608.426.248.096.543.142.882.142.432 0 .781-.07 1.045-.207.265-.14.45-.318.56-.538.107-.22.163-.6.163-1.137a2.685 2.685 0 01-.892.633 2.755 2.755 0 01-1.059.193c-.864 0-1.592-.321-2.187-.967-.593-.644-.892-1.459-.892-2.447 0-1.054.316-1.904.946-2.545.57-.578 1.253-.867 2.044-.867.371 0 .72.07 1.05.21.329.142.66.373.989.694V2.74zm-1.672 1.39c-.51 0-.928.176-1.26.527-.332.353-.496.797-.496 1.331 0 .534.17 1.01.509 1.363.339.354.764.532 1.277.532.512 0 .913-.173 1.237-.52.325-.347.488-.801.488-1.363 0-.562-.163-1.006-.491-1.352-.326-.347-.748-.52-1.264-.52v.001zM85.19 2.57c.606 0 1.177.158 1.712.471.533.314.95.74 1.25 1.28.299.537.448 1.119.448 1.743 0 .624-.15 1.214-.452 1.761a3.307 3.307 0 01-1.233 1.28 3.31 3.31 0 01-1.72.463c-.921 0-1.709-.34-2.361-1.019-.653-.68-.98-1.502-.98-2.473 0-1.04.37-1.907 1.106-2.6.646-.604 1.388-.905 2.229-.905l.002-.003-.001.001zm.027 1.573c-.502 0-.919.18-1.253.54-.334.362-.5.823-.5 1.387 0 .564.165 1.047.496 1.407.329.36.746.538 1.252.538s.925-.181 1.26-.545c.336-.363.504-.829.504-1.4s-.165-1.036-.495-1.391c-.33-.356-.75-.536-1.264-.536zM88.762 2.74h1.645l1.624 3.927 1.622-3.927h1.635L92.55 9.394h-1.046L88.761 2.74h.003-.002z" fill="#fff" fill-opacity=".75"/><path d="M95.546 11.006L99.47.086h1.161l-3.933 10.92h-1.153zM102.316.344h4.815v1.68h-3.163v1.642h2.055v1.655h-2.055v4.073h-1.652V.342v.002zM107.979 2.7h1.392v.843c.151-.333.351-.585.601-.758.249-.172.523-.258.821-.258.21 0 .43.058.66.173l-.506 1.446c-.19-.098-.347-.147-.47-.147-.249 0-.46.16-.633.48-.173.32-.258.948-.258 1.882l.005.327v2.707h-1.61V2.7h-.002zM117.03 2.7h1.623v6.695h-1.623v-.708c-.317.312-.635.536-.954.673a2.58 2.58 0 01-1.036.207c-.835 0-1.559-.335-2.168-1.006-.61-.67-.915-1.505-.915-2.5 0-.997.295-1.881.885-2.542.59-.66 1.307-.992 2.15-.992.388 0 .753.076 1.092.228.341.153.656.38.944.683V2.7h.002zm-1.706 1.379c-.502 0-.919.184-1.25.55-.332.368-.498.838-.498 1.413 0 .575.169 1.055.507 1.428.337.373.754.56 1.248.56s.932-.183 1.268-.55c.337-.367.504-.849.504-1.443 0-.594-.169-1.053-.504-1.414-.336-.362-.76-.542-1.274-.542l-.001-.002zM120.288 2.7h1.641v3.224c0 .627.042 1.063.125 1.308.084.243.218.434.403.569.184.134.411.202.683.202.271 0 .499-.067.688-.2.189-.133.33-.329.42-.588.068-.193.101-.605.101-1.237v-3.28h1.624v2.837c0 1.169-.09 1.97-.268 2.4-.218.526-.539.928-.964 1.21-.424.28-.964.42-1.618.42-.709 0-1.283-.164-1.721-.491-.438-.328-.745-.786-.924-1.372-.126-.405-.19-1.145-.19-2.215V2.7zM132.376.115H134v9.279h-1.624v-.708c-.316.312-.634.536-.953.673a2.58 2.58 0 01-1.037.206c-.835 0-1.558-.335-2.167-1.005-.61-.671-.915-1.505-.915-2.501s.295-1.88.885-2.542c.59-.66 1.307-.991 2.15-.991.388 0 .753.076 1.092.228.341.152.656.38.944.683V.114l.001.001zm-1.705 3.963c-.503 0-.919.183-1.251.55-.331.368-.497.838-.497 1.413 0 .575.169 1.055.507 1.428.337.373.754.56 1.248.56s.932-.183 1.268-.55c.337-.368.503-.85.503-1.443 0-.594-.168-1.054-.503-1.415-.336-.361-.761-.541-1.274-.541l-.001-.002z" fill="#fff"/></svg>