<svg width="423" height="37" viewBox="0 0 423 37" fill="none" xmlns="http://www.w3.org/2000/svg"><path d="M21.287 20.2H4.924c.238 1.457.867 2.619 1.892 3.477 1.025.862 2.336 1.291 3.928 1.291 1.904 0 3.54-.673 4.91-2.016l4.29 2.035c-1.07 1.536-2.35 2.668-3.844 3.404-1.494.736-3.266 1.103-5.316 1.103-3.184 0-5.776-1.014-7.779-3.046C1.003 24.418 0 21.875 0 18.82c0-3.056 1-5.731 2.994-7.8 1.996-2.068 4.5-3.1 7.512-3.1 3.196 0 5.795 1.036 7.798 3.1 2.002 2.069 3.005 4.8 3.005 8.196l-.018.98-.004.004zm-5.092-4.056c-.337-1.143-1-2.076-1.991-2.79-.993-.718-2.138-1.076-3.449-1.076-1.42 0-2.665.403-3.737 1.206-.674.503-1.296 1.387-1.871 2.66h11.048zM37.168 11.315L34.016 14.5c-1.281-1.284-2.445-1.924-3.489-1.924-.57 0-1.021.122-1.343.367-.326.244-.483.55-.483.914 0 .277.102.532.307.762.205.233.71.551 1.52.95l1.866.944c1.966.98 3.317 1.98 4.049 2.997.732 1.018 1.102 2.213 1.102 3.582 0 1.824-.663 3.345-1.988 4.562-1.325 1.22-3.1 1.828-5.326 1.828-2.962 0-5.323-1.17-7.091-3.508l3.133-3.452a7.253 7.253 0 002.098 1.706c.802.432 1.516.65 2.138.65.674 0 1.212-.162 1.622-.488.41-.325.615-.703.615-1.132 0-.792-.74-1.565-2.219-2.32l-1.717-.865c-3.283-1.673-4.923-3.767-4.923-6.28 0-1.62.618-3.007 1.856-4.158 1.237-1.15 2.822-1.724 4.748-1.724 1.317 0 2.559.292 3.723.877 1.164.584 2.148 1.424 2.958 2.515l-.004.012zM42.498 23.59c.81 0 1.501.285 2.072.859a2.84 2.84 0 01.857 2.083 2.87 2.87 0 01-.857 2.094 2.81 2.81 0 01-2.072.866 2.815 2.815 0 01-2.072-.866 2.87 2.87 0 01-.856-2.094c0-.818.285-1.513.856-2.083a2.817 2.817 0 012.072-.858zM53.63 1.228h5.088l6.366 19.351 6.421-19.35h5.089l4.608 27.742h-5.048l-2.943-17.52-5.835 17.52h-4.609L56.99 11.45l-3.012 17.52h-5.1L53.63 1.228zM104.945 20.203H88.582c.234 1.461.867 2.62 1.892 3.481 1.025.859 2.336 1.292 3.932 1.292 1.904 0 3.54-.674 4.909-2.02l4.294 2.038c-1.069 1.532-2.35 2.672-3.847 3.408-1.494.736-3.266 1.102-5.32 1.102-3.184 0-5.776-1.013-7.782-3.045-2.002-2.03-3.005-4.573-3.005-7.625 0-3.053.995-5.732 2.994-7.796 1.999-2.065 4.503-3.1 7.512-3.1 3.195 0 5.795 1.035 7.797 3.1 2.002 2.072 3.006 4.799 3.006 8.192l-.019.98h-.007l.007-.007zm-5.095-4.055c-.337-1.144-1.003-2.076-1.992-2.79-.992-.718-2.138-1.077-3.448-1.077-1.42 0-2.665.403-3.742 1.206-.673.503-1.3 1.391-1.87 2.66H99.85zM123.597.526h5.095v28.438h-5.095v-2.168c-.996.954-1.992 1.646-2.991 2.064a8.333 8.333 0 01-3.254.633c-2.621 0-4.887-1.028-6.802-3.082-1.915-2.053-2.874-4.61-2.874-7.666 0-3.057.923-5.765 2.779-7.793 1.852-2.023 4.096-3.037 6.747-3.037 1.219 0 2.361.233 3.43.695 1.069.463 2.053 1.166 2.961 2.095V.525h.004zm-5.36 12.147c-1.574 0-2.884.559-3.924 1.687-1.039 1.125-1.563 2.568-1.563 4.33 0 1.76.531 3.23 1.589 4.373 1.058 1.143 2.361 1.713 3.913 1.713 1.552 0 2.929-.559 3.979-1.688 1.055-1.124 1.578-2.597 1.578-4.425 0-1.828-.527-3.23-1.578-4.34-1.054-1.102-2.383-1.657-3.997-1.657v.007h.003zM135.897 0c.889 0 1.658.33 2.295.98.637.655.959 1.447.959 2.376 0 .929-.318 1.702-.952 2.35-.633.643-1.387.972-2.266.972a3.14 3.14 0 01-2.317-.991c-.637-.662-.959-1.462-.959-2.405 0-.944.315-1.68.944-2.32.634-.64 1.395-.962 2.288-.962h.008zm-2.548 8.447h5.096v20.517h-5.096V8.447zM162.793 12.602l-4.239 2.361c-.795-.844-1.586-1.424-2.362-1.754-.779-.33-1.691-.492-2.738-.492-1.903 0-3.448.57-4.623 1.72-1.175 1.148-1.765 2.62-1.765 4.415 0 1.794.564 3.167 1.703 4.277 1.131 1.102 2.621 1.657 4.466 1.657 2.277 0 4.052-.788 5.322-2.36l4.012 2.779c-2.178 2.863-5.249 4.295-9.221 4.295-3.573 0-6.366-1.07-8.387-3.208-2.02-2.138-3.034-4.64-3.034-7.507 0-1.987.494-3.815 1.471-5.487.985-1.669 2.358-2.986 4.115-3.944 1.757-.955 3.73-1.432 5.905-1.432 2.017 0 3.825.407 5.428 1.217a10.285 10.285 0 013.936 3.463v.008l.011-.008zM180.495 8.446h5.096v20.517h-5.096v-2.169c-.995.955-1.991 1.647-2.991 2.065a8.326 8.326 0 01-3.254.633c-2.621 0-4.887-1.029-6.802-3.082-1.914-2.054-2.873-4.61-2.873-7.667 0-3.056.922-5.764 2.778-7.792 1.853-2.024 4.097-3.038 6.747-3.038 1.219 0 2.361.233 3.43.696 1.069.462 2.054 1.165 2.962 2.094V8.44v.007h.003zm-5.359 4.226c-1.574 0-2.885.558-3.924 1.687-1.04 1.124-1.563 2.568-1.563 4.329 0 1.76.53 3.23 1.588 4.373 1.058 1.143 2.361 1.713 3.914 1.713 1.552 0 2.928-.559 3.979-1.687 1.054-1.125 1.578-2.597 1.578-4.425 0-1.828-.528-3.23-1.578-4.34-1.054-1.103-2.383-1.658-3.998-1.658v.008h.004zM189.913 8.447h4.368v2.587c.468-1.018 1.102-1.795 1.885-2.32a4.525 4.525 0 012.573-.792c.659 0 1.351.174 2.072.525l-1.585 4.43c-.6-.3-1.087-.452-1.471-.452-.784 0-1.446.492-1.988 1.472s-.813 2.905-.813 5.772l.019 1.003v8.3h-5.056V8.446h-.007.003zM222.615 20.203h-16.363c.234 1.461.867 2.62 1.892 3.481 1.025.859 2.336 1.292 3.932 1.292 1.904 0 3.54-.674 4.909-2.02l4.294 2.038c-1.069 1.532-2.35 2.672-3.847 3.408-1.494.736-3.266 1.102-5.319 1.102-3.185 0-5.777-1.013-7.783-3.045-2.002-2.03-3.005-4.573-3.005-7.625 0-3.053.995-5.732 2.994-7.796 1.999-2.065 4.503-3.1 7.512-3.1 3.196 0 5.795 1.035 7.797 3.1 2.002 2.072 3.006 4.799 3.006 8.192l-.019.98h-.007l.007-.007zm-5.095-4.055c-.337-1.144-1.004-2.076-1.992-2.79s-2.138-1.077-3.448-1.077c-1.421 0-2.665.403-3.742 1.206-.673.503-1.299 1.391-1.87 2.66h11.052zM227.865 23.595c.805 0 1.501.288 2.072.858.571.57.856 1.27.856 2.083 0 .814-.285 1.517-.856 2.094a2.816 2.816 0 01-2.072.866 2.814 2.814 0 01-2.072-.866 2.865 2.865 0 01-.857-2.094c0-.821.286-1.51.857-2.083a2.836 2.836 0 012.072-.858zM249.474 8.447h5.078v17.575c0 3.467-.688 6.02-2.072 7.655-1.852 2.213-4.646 3.323-8.379 3.323-1.992 0-3.661-.248-5.023-.751-1.354-.503-2.504-1.24-3.43-2.216-.934-.974-1.622-2.161-2.072-3.552h5.616c.497.577 1.134 1.013 1.921 1.313.784.296 1.714.44 2.783.44 1.365 0 2.467-.214 3.302-.64.834-.429 1.42-.98 1.764-1.657.34-.681.516-1.85.516-3.508-.897.907-1.838 1.558-2.815 1.954-.985.396-2.094.596-3.342.596-2.727 0-5.026-.992-6.904-2.983-1.875-1.987-2.815-4.499-2.815-7.544 0-3.252.995-5.872 2.983-7.848 1.801-1.783 3.957-2.675 6.454-2.675a8.46 8.46 0 013.313.651c1.04.437 2.083 1.147 3.122 2.139V8.447zm-5.278 4.285c-1.607 0-2.929.544-3.976 1.628-1.047 1.088-1.567 2.457-1.567 4.103 0 1.647.539 3.112 1.607 4.203 1.069 1.092 2.413 1.64 4.031 1.64 1.618 0 2.885-.533 3.906-1.603 1.025-1.069 1.541-2.471 1.541-4.203 0-1.732-.516-3.1-1.552-4.17-1.029-1.07-2.361-1.602-3.99-1.602v.004zM268.92 7.923c1.915 0 3.716.488 5.403 1.454 1.684.97 3.002 2.279 3.947 3.944a10.689 10.689 0 011.416 5.376c0 1.924-.475 3.744-1.427 5.432-.952 1.687-2.252 3.004-3.892 3.947-1.64.951-3.455 1.425-5.428 1.425-2.911 0-5.396-1.047-7.457-3.141-2.061-2.095-3.09-4.633-3.09-7.626 0-3.208 1.164-5.88 3.489-8.018 2.039-1.86 4.382-2.79 7.036-2.79l.007-.007-.004.004zm.084 4.85c-1.585 0-2.899.555-3.953 1.669-1.054 1.114-1.578 2.535-1.578 4.273 0 1.74.52 3.23 1.563 4.34 1.04 1.11 2.358 1.658 3.954 1.658s2.921-.559 3.979-1.68c1.058-1.12 1.589-2.556 1.589-4.318 0-1.76-.52-3.193-1.563-4.288-1.04-1.099-2.369-1.654-3.991-1.654zM280.198 8.448h5.191l5.128 12.11 5.118-12.11h5.162l-8.64 20.516h-3.302l-8.661-20.516h.008-.004zM301.611 33.936L314.002.262h3.664l-12.413 33.674h-3.642zM322.982 1.06h15.199v5.18h-9.983v5.065h6.487v5.102h-6.487v12.558h-5.216V1.055v.005zM340.861 8.326h4.393v2.597c.476-1.024 1.109-1.801 1.896-2.334a4.523 4.523 0 012.592-.796c.662 0 1.358.178 2.083.533l-1.596 4.458c-.601-.303-1.095-.455-1.483-.455-.787 0-1.453.492-1.999 1.48-.545.988-.816 2.923-.816 5.806l.018 1.006v8.347h-5.084V8.326h-.004zM369.429 8.326h5.125v20.642h-5.125v-2.183c-1 .962-2.003 1.654-3.009 2.076-1.007.425-2.098.636-3.273.636-2.636 0-4.92-1.032-6.842-3.1-1.926-2.069-2.888-4.64-2.888-7.711 0-3.071.93-5.798 2.793-7.837 1.863-2.035 4.125-3.056 6.787-3.056 1.226 0 2.376.233 3.448.703 1.076.47 2.069 1.17 2.98 2.105V8.326h.004zm-5.385 4.251c-1.585 0-2.899.566-3.946 1.699-1.047 1.132-1.571 2.582-1.571 4.355 0 1.772.535 3.252 1.6 4.402 1.065 1.151 2.379 1.728 3.939 1.728 1.559 0 2.943-.566 4.005-1.698 1.061-1.132 1.588-2.616 1.588-4.447 0-1.832-.53-3.249-1.588-4.363-1.062-1.113-2.402-1.668-4.024-1.668l-.003-.008zM379.715 8.324h5.18v9.941c0 1.936.132 3.279.396 4.033.263.752.688 1.34 1.27 1.754.582.415 1.3.625 2.156.625.857 0 1.578-.207 2.175-.617.596-.411 1.039-1.014 1.325-1.813.212-.596.318-1.865.318-3.815V8.32h5.125v8.747c0 3.603-.282 6.071-.845 7.4-.689 1.62-1.703 2.86-3.042 3.73-1.34.865-3.042 1.298-5.107 1.298-2.24 0-4.053-.507-5.433-1.517-1.383-1.01-2.353-2.424-2.917-4.23-.399-1.25-.601-3.529-.601-6.83V8.325zM417.875.355H423v28.608h-5.125V26.78c-.999.962-2.002 1.654-3.009 2.076-1.007.425-2.098.636-3.273.636-2.636 0-4.92-1.032-6.842-3.1-1.925-2.069-2.888-4.64-2.888-7.711 0-3.071.93-5.798 2.793-7.837 1.863-2.035 4.126-3.056 6.787-3.056 1.226 0 2.376.233 3.449.703 1.076.47 2.068 1.169 2.979 2.105V.351l.004.004zm-5.385 12.217c-1.585 0-2.899.566-3.946 1.698-1.047 1.132-1.571 2.583-1.571 4.355 0 1.772.535 3.252 1.6 4.403 1.065 1.15 2.38 1.728 3.939 1.728 1.56 0 2.943-.566 4.005-1.698 1.062-1.133 1.589-2.616 1.589-4.448 0-1.831-.531-3.248-1.589-4.362-1.062-1.114-2.402-1.669-4.023-1.669l-.004-.007z" fill="#fff"/></svg>