<svg width="465" height="91" viewBox="0 0 465 91" fill="none" xmlns="http://www.w3.org/2000/svg"><path d="M.12 30l13.2-28.2h6L32.6 30h-7.4l-3.4-7.76 2.84 2.04H8.08l2.8-2.04L7.52 30H.12zM16.28 9.4L11.6 20.56l-1.12-1.88H22.2l-1 1.88L16.48 9.4h-.2zm18.062 29.24V15.2a48.407 48.407 0 00-.32-5.52h6.88l.44 3.6h-.4c.373-1.2 1.2-2.173 2.48-2.92 1.28-.747 2.707-1.12 4.28-1.12 1.76 0 3.307.427 4.64 1.28 1.334.827 2.373 2.04 3.12 3.64.773 1.573 1.16 3.467 1.16 5.68 0 2.187-.386 4.08-1.16 5.68-.747 1.6-1.787 2.827-3.12 3.68-1.333.827-2.88 1.24-4.64 1.24-1.546 0-2.947-.347-4.2-1.04-1.253-.72-2.08-1.667-2.48-2.84h.44v12.08h-7.12zm11.08-13.48c1.227 0 2.2-.413 2.92-1.24.747-.853 1.12-2.213 1.12-4.08s-.373-3.213-1.12-4.04c-.72-.853-1.693-1.28-2.92-1.28-1.2 0-2.173.427-2.92 1.28-.747.827-1.12 2.173-1.12 4.04s.373 3.227 1.12 4.08c.747.827 1.72 1.24 2.92 1.24zM60.484 30V15.24a49.1 49.1 0 00-.08-2.8 46.27 46.27 0 00-.24-2.76h6.88l.76 6.24h-1.08c.267-1.52.694-2.773 1.28-3.76.587-.987 1.32-1.72 2.2-2.2.88-.48 1.92-.72 3.12-.72.56 0 .974.027 1.24.08.294.027.6.107.92.24v6.24c-.666-.293-1.2-.48-1.6-.56-.4-.08-.92-.12-1.56-.12-1.093 0-1.986.2-2.68.6-.693.373-1.2.96-1.52 1.76-.293.8-.44 1.827-.44 3.08V30h-7.2zm27.917.44c-3.68 0-6.546-.947-8.6-2.84-2.026-1.893-3.04-4.493-3.04-7.8 0-2.053.427-3.88 1.28-5.48.854-1.6 2.054-2.84 3.6-3.72 1.547-.907 3.36-1.36 5.44-1.36 2.054 0 3.76.453 5.12 1.36 1.387.88 2.427 2.107 3.12 3.68.694 1.547 1.04 3.347 1.04 5.4v1.52h-13.64v-3.36h8.4l-.68.56c0-1.52-.293-2.64-.88-3.36-.56-.747-1.36-1.12-2.4-1.12-1.2 0-2.12.453-2.76 1.36-.613.88-.92 2.213-.92 4V20c0 1.787.44 3.093 1.32 3.92.88.827 2.147 1.24 3.8 1.24 1.067 0 2.067-.12 3-.36a9.41 9.41 0 002.72-1.16l1.84 4.64c-1.013.693-2.186 1.227-3.52 1.6a15.66 15.66 0 01-4.24.56zm11.751-.44V15.2c0-.907-.027-1.827-.08-2.76a46.773 46.773 0 00-.24-2.76h6.88l.4 3.52h-.44c.666-1.28 1.613-2.253 2.84-2.92 1.226-.693 2.613-1.04 4.16-1.04 2.373 0 4.146.707 5.32 2.12 1.2 1.387 1.8 3.56 1.8 6.52V30h-7.12V18.2c0-1.307-.227-2.213-.68-2.72-.454-.533-1.107-.8-1.96-.8-1.12 0-2.027.373-2.72 1.12-.694.72-1.04 1.68-1.04 2.88V30h-7.12zm33.401.44c-1.733 0-3.28-.413-4.64-1.24-1.36-.853-2.426-2.08-3.2-3.68-.773-1.6-1.16-3.493-1.16-5.68 0-2.213.374-4.107 1.12-5.68.774-1.6 1.84-2.813 3.2-3.64 1.387-.853 2.947-1.28 4.68-1.28 1.547 0 2.947.36 4.2 1.08 1.254.693 2.094 1.627 2.52 2.8h-.6V.56h7.12V30h-7v-3.64h.52c-.373 1.227-1.2 2.213-2.48 2.96-1.253.747-2.68 1.12-4.28 1.12zm2.28-5.28c1.174 0 2.134-.413 2.88-1.24.774-.853 1.16-2.213 1.16-4.08s-.386-3.213-1.16-4.04c-.746-.853-1.706-1.28-2.88-1.28-1.2 0-2.186.427-2.96 1.28-.746.827-1.12 2.173-1.12 4.04s.374 3.227 1.12 4.08c.774.827 1.76 1.24 2.96 1.24zm26.503 5.28c-3.68 0-6.547-.947-8.6-2.84-2.027-1.893-3.04-4.493-3.04-7.8 0-2.053.426-3.88 1.28-5.48.853-1.6 2.053-2.84 3.6-3.72 1.546-.907 3.36-1.36 5.44-1.36 2.053 0 3.76.453 5.12 1.36 1.386.88 2.426 2.107 3.12 3.68.693 1.547 1.04 3.347 1.04 5.4v1.52h-13.64v-3.36h8.4l-.68.56c0-1.52-.294-2.64-.88-3.36-.56-.747-1.36-1.12-2.4-1.12-1.2 0-2.12.453-2.76 1.36-.614.88-.92 2.213-.92 4V20c0 1.787.44 3.093 1.32 3.92.88.827 2.146 1.24 3.8 1.24 1.066 0 2.066-.12 3-.36a9.419 9.419 0 002.72-1.16l1.84 4.64c-1.014.693-2.187 1.227-3.52 1.6-1.334.373-2.747.56-4.24.56zm31.712 0c-1.76 0-3.306-.413-4.64-1.24-1.333-.853-2.386-2.08-3.16-3.68-.746-1.6-1.12-3.493-1.12-5.68 0-2.213.374-4.107 1.12-5.68.774-1.6 1.827-2.813 3.16-3.64 1.334-.853 2.88-1.28 4.64-1.28 1.574 0 2.987.373 4.24 1.12 1.28.747 2.12 1.72 2.52 2.92h-.4l.44-3.6h6.84c-.08.907-.16 1.827-.24 2.76-.053.933-.08 1.853-.08 2.76V30h-7.04l-.08-3.44h.48c-.4 1.173-1.24 2.12-2.52 2.84-1.253.693-2.64 1.04-4.16 1.04zm2.28-5.28c1.2 0 2.174-.413 2.92-1.24.747-.853 1.12-2.213 1.12-4.08s-.373-3.213-1.12-4.04c-.746-.853-1.72-1.28-2.92-1.28s-2.173.427-2.92 1.28c-.746.827-1.12 2.173-1.12 4.04s.36 3.227 1.08 4.08c.747.827 1.734 1.24 2.96 1.24zM224.153 30V9.68h7.12V30h-7.12zm-.16-23.2V.4h7.48v6.4h-7.48zm20.164 23.64c-1.734 0-3.28-.413-4.64-1.24-1.36-.853-2.427-2.08-3.2-3.68-.774-1.6-1.16-3.493-1.16-5.68 0-2.213.373-4.107 1.12-5.68.773-1.6 1.84-2.813 3.2-3.64 1.386-.853 2.946-1.28 4.68-1.28 1.546 0 2.946.36 4.2 1.08 1.253.693 2.093 1.627 2.52 2.8h-.6V.56h7.12V30h-7v-3.64h.52c-.374 1.227-1.2 2.213-2.48 2.96-1.254.747-2.68 1.12-4.28 1.12zm2.28-5.28c1.173 0 2.133-.413 2.88-1.24.773-.853 1.16-2.213 1.16-4.08s-.387-3.213-1.16-4.04c-.747-.853-1.707-1.28-2.88-1.28-1.2 0-2.187.427-2.96 1.28-.747.827-1.12 2.173-1.12 4.04s.373 3.227 1.12 4.08c.773.827 1.76 1.24 2.96 1.24zm26.502 5.28c-3.68 0-6.547-.947-8.6-2.84-2.027-1.893-3.04-4.493-3.04-7.8 0-2.053.426-3.88 1.28-5.48.853-1.6 2.053-2.84 3.6-3.72 1.546-.907 3.36-1.36 5.44-1.36 2.053 0 3.76.453 5.12 1.36 1.386.88 2.426 2.107 3.12 3.68.693 1.547 1.04 3.347 1.04 5.4v1.52h-13.64v-3.36h8.4l-.68.56c0-1.52-.294-2.64-.88-3.36-.56-.747-1.36-1.12-2.4-1.12-1.2 0-2.12.453-2.76 1.36-.614.88-.92 2.213-.92 4V20c0 1.787.44 3.093 1.32 3.92.88.827 2.146 1.24 3.8 1.24 1.066 0 2.066-.12 3-.36a9.419 9.419 0 002.72-1.16l1.84 4.64c-1.014.693-2.187 1.227-3.52 1.6-1.334.373-2.747.56-4.24.56zm11.75-.44V15.2c0-.907-.027-1.827-.08-2.76a45.612 45.612 0 00-.24-2.76h6.88l.4 3.52h-.44c.667-1.28 1.613-2.253 2.84-2.92 1.227-.693 2.613-1.04 4.16-1.04 2.373 0 4.147.707 5.32 2.12 1.2 1.387 1.8 3.56 1.8 6.52V30h-7.12V18.2c0-1.307-.227-2.213-.68-2.72-.453-.533-1.107-.8-1.96-.8-1.12 0-2.027.373-2.72 1.12-.693.72-1.04 1.68-1.04 2.88V30h-7.12zm35.722.44c-2.88 0-5.053-.68-6.52-2.04-1.44-1.387-2.16-3.48-2.16-6.28v-7.2h-3.8V9.68h3.8v-4.8l7.12-1.68v6.48h4.96v5.24h-4.96v6.92c0 1.173.267 1.96.8 2.36.533.373 1.173.56 1.92.56.453 0 .84-.027 1.16-.08.347-.08.707-.187 1.08-.32v5.48c-.587.24-1.173.4-1.76.48-.56.08-1.107.12-1.64.12zm6.562-.44V9.68h7.12V30h-7.12zm-.16-23.2V.4h7.48v6.4h-7.48zM340.617 30V14.92h-3.8V9.68h5.8l-2 1.84V8.76c0-2.8.72-4.893 2.16-6.28 1.44-1.387 3.547-2.08 6.32-2.08.693 0 1.413.04 2.16.12.747.08 1.413.24 2 .48v5.44a5.67 5.67 0 00-1.28-.28c-.48-.08-.947-.12-1.4-.12-.8 0-1.48.213-2.04.64-.56.4-.84 1.16-.84 2.28v1.8l-1-1.08h15.44V30h-7.12V14.92h-7.28V30h-7.12zm14.2-23.2V.4h7.48v6.4h-7.48zm22.416 23.64c-2.24 0-4.2-.427-5.88-1.28-1.68-.853-2.987-2.067-3.92-3.64-.933-1.6-1.4-3.507-1.4-5.72 0-2.213.467-4.107 1.4-5.68.933-1.573 2.24-2.773 3.92-3.6 1.68-.853 3.64-1.28 5.88-1.28 1.387 0 2.747.187 4.08.56 1.333.373 2.413.907 3.24 1.6l-2 4.84a6.529 6.529 0 00-2.2-1.2 6.828 6.828 0 00-2.36-.44c-1.467 0-2.613.44-3.44 1.32-.8.88-1.2 2.173-1.2 3.88 0 1.707.4 3.013 1.2 3.92.827.88 1.973 1.32 3.44 1.32.747 0 1.533-.133 2.36-.4a7.61 7.61 0 002.2-1.2l2 4.84c-.853.667-1.947 1.2-3.28 1.6-1.307.373-2.653.56-4.04.56zm18.628 0c-1.76 0-3.307-.413-4.64-1.24-1.333-.853-2.387-2.08-3.16-3.68-.747-1.6-1.12-3.493-1.12-5.68 0-2.213.373-4.107 1.12-5.68.773-1.6 1.827-2.813 3.16-3.64 1.333-.853 2.88-1.28 4.64-1.28 1.573 0 2.987.373 4.24 1.12 1.28.747 2.12 1.72 2.52 2.92h-.4l.44-3.6h6.84c-.08.907-.16 1.827-.24 2.76-.053.933-.08 1.853-.08 2.76V30h-7.04l-.08-3.44h.48c-.4 1.173-1.24 2.12-2.52 2.84-1.253.693-2.64 1.04-4.16 1.04zm2.28-5.28c1.2 0 2.173-.413 2.92-1.24.747-.853 1.12-2.213 1.12-4.08s-.373-3.213-1.12-4.04c-.747-.853-1.72-1.28-2.92-1.28s-2.173.427-2.92 1.28c-.747.827-1.12 2.173-1.12 4.04s.36 3.227 1.08 4.08c.747.827 1.733 1.24 2.96 1.24zM414.003 30V15.24c0-.933-.027-1.867-.08-2.8a45.612 45.612 0 00-.24-2.76h6.88l.76 6.24h-1.08c.267-1.52.693-2.773 1.28-3.76.587-.987 1.32-1.72 2.2-2.2.88-.48 1.92-.72 3.12-.72.56 0 .973.027 1.24.08.293.027.6.107.92.24v6.24c-.667-.293-1.2-.48-1.6-.56-.4-.08-.92-.12-1.56-.12-1.093 0-1.987.2-2.68.6-.693.373-1.2.96-1.52 1.76-.293.8-.44 1.827-.44 3.08V30h-7.2zm29.591 9.08l-1.68-5.52c1.28-.24 2.347-.507 3.2-.8.88-.267 1.6-.64 2.16-1.12.56-.48 1-1.107 1.32-1.88l1-2.32-.16 2.68-8.88-20.44h7.52l5.2 13.48h-1.32l5.36-13.48h7.04l-9.12 20.76c-.72 1.627-1.493 2.96-2.32 4-.8 1.04-1.68 1.867-2.64 2.48a10.329 10.329 0 01-3.08 1.36 30.09 30.09 0 01-3.6.8zM3.2 82V67.24c0-.933-.027-1.867-.08-2.8a46.153 46.153 0 00-.24-2.76h6.88l.76 6.24H9.44c.267-1.52.693-2.773 1.28-3.76.587-.987 1.32-1.72 2.2-2.2.88-.48 1.92-.72 3.12-.72.56 0 .973.027 1.24.08.293.027.6.107.92.24v6.24c-.667-.293-1.2-.48-1.6-.56-.4-.08-.92-.12-1.56-.12-1.093 0-1.987.2-2.68.6-.693.373-1.2.96-1.52 1.76-.293.8-.44 1.827-.44 3.08V82H3.2zm27.917.44c-3.68 0-6.547-.947-8.6-2.84-2.027-1.893-3.04-4.493-3.04-7.8 0-2.053.427-3.88 1.28-5.48.853-1.6 2.053-2.84 3.6-3.72 1.547-.907 3.36-1.36 5.44-1.36 2.053 0 3.76.453 5.12 1.36 1.386.88 2.426 2.107 3.12 3.68.693 1.547 1.04 3.347 1.04 5.4v1.52h-13.64v-3.36h8.4l-.68.56c0-1.52-.293-2.64-.88-3.36-.56-.747-1.36-1.12-2.4-1.12-1.2 0-2.12.453-2.76 1.36-.614.88-.92 2.213-.92 4V72c0 1.787.44 3.093 1.32 3.92.88.827 2.146 1.24 3.8 1.24 1.066 0 2.066-.12 3-.36a9.412 9.412 0 002.72-1.16l1.84 4.64c-1.014.693-2.187 1.227-3.52 1.6a15.66 15.66 0 01-4.24.56zm11.75 8.2V67.2a48.407 48.407 0 00-.32-5.52h6.88l.44 3.6h-.4c.373-1.2 1.2-2.173 2.48-2.92 1.28-.747 2.707-1.12 4.28-1.12 1.76 0 3.307.427 4.64 1.28 1.334.827 2.373 2.04 3.12 3.64.773 1.573 1.16 3.467 1.16 5.68 0 2.187-.387 4.08-1.16 5.68-.747 1.6-1.787 2.827-3.12 3.68-1.333.827-2.88 1.24-4.64 1.24-1.546 0-2.946-.347-4.2-1.04-1.253-.72-2.08-1.667-2.48-2.84h.44v12.08h-7.12zm11.08-13.48c1.227 0 2.2-.413 2.92-1.24.747-.853 1.12-2.213 1.12-4.08s-.373-3.213-1.12-4.04c-.72-.853-1.693-1.28-2.92-1.28-1.2 0-2.173.427-2.92 1.28-.746.827-1.12 2.173-1.12 4.04s.374 3.227 1.12 4.08c.747.827 1.72 1.24 2.92 1.24zm25.222 5.28c-2.266 0-4.226-.427-5.88-1.28-1.653-.853-2.933-2.067-3.84-3.64-.906-1.6-1.36-3.493-1.36-5.68 0-2.213.454-4.107 1.36-5.68.907-1.573 2.187-2.787 3.84-3.64 1.654-.853 3.614-1.28 5.88-1.28 2.24 0 4.187.427 5.84 1.28 1.654.853 2.934 2.08 3.84 3.68.907 1.573 1.36 3.453 1.36 5.64 0 2.16-.453 4.04-1.36 5.64-.906 1.6-2.186 2.827-3.84 3.68-1.653.853-3.6 1.28-5.84 1.28zm0-5.28c1.174 0 2.107-.413 2.8-1.24.694-.853 1.04-2.213 1.04-4.08s-.346-3.213-1.04-4.04c-.693-.853-1.626-1.28-2.8-1.28-1.2 0-2.146.427-2.84 1.28-.693.827-1.04 2.173-1.04 4.04s.347 3.227 1.04 4.08c.694.827 1.64 1.24 2.84 1.24zM94.097 82V67.24a49.1 49.1 0 00-.08-2.8 46.27 46.27 0 00-.24-2.76h6.88l.76 6.24h-1.08c.267-1.52.693-2.773 1.28-3.76.587-.987 1.32-1.72 2.2-2.2.88-.48 1.92-.72 3.12-.72.56 0 .973.027 1.24.08.293.027.6.107.92.24v6.24c-.667-.293-1.2-.48-1.6-.56-.4-.08-.92-.12-1.56-.12-1.093 0-1.987.2-2.68.6-.693.373-1.2.96-1.52 1.76-.293.8-.44 1.827-.44 3.08V82h-7.2zm29.12.44c-2.88 0-5.053-.68-6.52-2.04-1.44-1.387-2.16-3.48-2.16-6.28v-7.2h-3.8v-5.24h3.8v-4.8l7.12-1.68v6.48h4.96v5.24h-4.96v6.92c0 1.173.267 1.96.8 2.36.534.373 1.174.56 1.92.56.454 0 .84-.027 1.16-.08.347-.08.707-.187 1.08-.32v5.48c-.586.24-1.173.4-1.76.48-.56.08-1.106.12-1.64.12zm14.563 0c-1.76 0-3.307-.413-4.64-1.24-1.334-.853-2.387-2.08-3.16-3.68-.747-1.6-1.12-3.493-1.12-5.68 0-2.213.373-4.107 1.12-5.68.773-1.6 1.826-2.813 3.16-3.64 1.333-.853 2.88-1.28 4.64-1.28 1.573 0 2.986.373 4.24 1.12 1.28.747 2.12 1.72 2.52 2.92h-.4l.44-3.6h6.84c-.08.907-.16 1.827-.24 2.76a47.77 47.77 0 00-.08 2.76V82h-7.04l-.08-3.44h.48c-.4 1.173-1.24 2.12-2.52 2.84-1.254.693-2.64 1.04-4.16 1.04zm2.28-5.28c1.2 0 2.173-.413 2.92-1.24.746-.853 1.12-2.213 1.12-4.08s-.374-3.213-1.12-4.04c-.747-.853-1.72-1.28-2.92-1.28s-2.174.427-2.92 1.28c-.747.827-1.12 2.173-1.12 4.04s.36 3.227 1.08 4.08c.746.827 1.733 1.24 2.96 1.24zM155.922 82V67.24c0-.933-.027-1.867-.08-2.8a45.612 45.612 0 00-.24-2.76h6.88l.76 6.24h-1.08c.267-1.52.693-2.773 1.28-3.76.587-.987 1.32-1.72 2.2-2.2.88-.48 1.92-.72 3.12-.72.56 0 .973.027 1.24.08.293.027.6.107.92.24v6.24c-.667-.293-1.2-.48-1.6-.56-.4-.08-.92-.12-1.56-.12-1.093 0-1.987.2-2.68.6-.693.373-1.2.96-1.52 1.76-.293.8-.44 1.827-.44 3.08V82h-7.2zm40.231.44c-3.68 0-6.547-.947-8.6-2.84-2.027-1.893-3.04-4.493-3.04-7.8 0-2.053.426-3.88 1.28-5.48.853-1.6 2.053-2.84 3.6-3.72 1.546-.907 3.36-1.36 5.44-1.36 2.053 0 3.76.453 5.12 1.36 1.386.88 2.426 2.107 3.12 3.68.693 1.547 1.04 3.347 1.04 5.4v1.52h-13.64v-3.36h8.4l-.68.56c0-1.52-.294-2.64-.88-3.36-.56-.747-1.36-1.12-2.4-1.12-1.2 0-2.12.453-2.76 1.36-.614.88-.92 2.213-.92 4V72c0 1.787.44 3.093 1.32 3.92.88.827 2.146 1.24 3.8 1.24 1.066 0 2.066-.12 3-.36a9.419 9.419 0 002.72-1.16l1.84 4.64c-1.014.693-2.187 1.227-3.52 1.6-1.334.373-2.747.56-4.24.56zm11.75-.44V52.56h7.12V82h-7.12zm25.606 0V66.92h-3.8v-5.24h5.8l-2 1.84v-2.76c0-2.8.733-4.893 2.2-6.28 1.467-1.387 3.68-2.08 6.64-2.08.667 0 1.373.04 2.12.12.747.08 1.413.24 2 .48v5.44a5.67 5.67 0 00-1.28-.28c-.48-.08-.947-.12-1.4-.12a4.48 4.48 0 00-1.56.28c-.48.16-.88.453-1.2.88-.293.427-.44 1.013-.44 1.76v1.8l-1-1.08h5.92v5.24h-4.88V82h-7.12zm14.852 0V67.24c0-.933-.027-1.867-.08-2.8a45.612 45.612 0 00-.24-2.76h6.88l.76 6.24h-1.08c.267-1.52.693-2.773 1.28-3.76.587-.987 1.32-1.72 2.2-2.2.88-.48 1.92-.72 3.12-.72.56 0 .973.027 1.24.08.293.027.6.107.92.24v6.24c-.667-.293-1.2-.48-1.6-.56-.4-.08-.92-.12-1.56-.12-1.093 0-1.987.2-2.68.6-.693.373-1.2.96-1.52 1.76-.293.8-.44 1.827-.44 3.08V82h-7.2zm25.353.44c-1.76 0-3.307-.413-4.64-1.24-1.333-.853-2.387-2.08-3.16-3.68-.747-1.6-1.12-3.493-1.12-5.68 0-2.213.373-4.107 1.12-5.68.773-1.6 1.827-2.813 3.16-3.64 1.333-.853 2.88-1.28 4.64-1.28 1.573 0 2.987.373 4.24 1.12 1.28.747 2.12 1.72 2.52 2.92h-.4l.44-3.6h6.84c-.08.907-.16 1.827-.24 2.76-.053.933-.08 1.853-.08 2.76V82h-7.04l-.08-3.44h.48c-.4 1.173-1.24 2.12-2.52 2.84-1.253.693-2.64 1.04-4.16 1.04zm2.28-5.28c1.2 0 2.173-.413 2.92-1.24.747-.853 1.12-2.213 1.12-4.08s-.373-3.213-1.12-4.04c-.747-.853-1.72-1.28-2.92-1.28s-2.173.427-2.92 1.28c-.747.827-1.12 2.173-1.12 4.04s.36 3.227 1.08 4.08c.747.827 1.733 1.24 2.96 1.24zm23.342 5.28c-2.586 0-4.506-.707-5.76-2.12-1.226-1.44-1.84-3.613-1.84-6.52V61.68h7.12v12.16c0 1.067.214 1.867.64 2.4.454.507 1.134.76 2.04.76 1.014 0 1.84-.36 2.48-1.08.667-.747 1-1.72 1-2.92V61.68h7.12V82h-6.92v-3.64h.6c-.64 1.307-1.506 2.32-2.6 3.04-1.093.693-2.386 1.04-3.88 1.04zm25.727 0c-1.734 0-3.28-.413-4.64-1.24-1.36-.853-2.427-2.08-3.2-3.68-.774-1.6-1.16-3.493-1.16-5.68 0-2.213.373-4.107 1.12-5.68.773-1.6 1.84-2.813 3.2-3.64 1.386-.853 2.946-1.28 4.68-1.28 1.546 0 2.946.36 4.2 1.08 1.253.693 2.093 1.627 2.52 2.8h-.6V52.56h7.12V82h-7v-3.64h.52c-.374 1.227-1.2 2.213-2.48 2.96-1.254.747-2.68 1.12-4.28 1.12zm2.28-5.28c1.173 0 2.133-.413 2.88-1.24.773-.853 1.16-2.213 1.16-4.08s-.387-3.213-1.16-4.04c-.747-.853-1.707-1.28-2.88-1.28-1.2 0-2.187.427-2.96 1.28-.747.827-1.12 2.173-1.12 4.04s.373 3.227 1.12 4.08c.773.827 1.76 1.24 2.96 1.24zm26.502 5.28c-3.68 0-6.547-.947-8.6-2.84-2.027-1.893-3.04-4.493-3.04-7.8 0-2.053.427-3.88 1.28-5.48.853-1.6 2.053-2.84 3.6-3.72 1.547-.907 3.36-1.36 5.44-1.36 2.053 0 3.76.453 5.12 1.36 1.387.88 2.427 2.107 3.12 3.68.693 1.547 1.04 3.347 1.04 5.4v1.52h-13.64v-3.36h8.4l-.68.56c0-1.52-.293-2.64-.88-3.36-.56-.747-1.36-1.12-2.4-1.12-1.2 0-2.12.453-2.76 1.36-.613.88-.92 2.213-.92 4V72c0 1.787.44 3.093 1.32 3.92.88.827 2.147 1.24 3.8 1.24 1.067 0 2.067-.12 3-.36a9.407 9.407 0 002.72-1.16l1.84 4.64c-1.013.693-2.187 1.227-3.52 1.6a15.66 15.66 0 01-4.24.56zm11.27-.44v-7.28h7.4V82h-7.4z" fill="#fff"/></svg>