<svg width="393" height="44" viewBox="0 0 393 44" fill="none" xmlns="http://www.w3.org/2000/svg"><path d="M-.01 34V1.57h6.256l16.422 20.378h-1.334V1.57H29.2V34h-6.256L6.614 13.622h1.334V34H-.01zm46.858.506c-2.607 0-4.86-.49-6.762-1.472-1.901-.981-3.373-2.377-4.416-4.186-1.043-1.84-1.564-4.017-1.564-6.532 0-2.545.521-4.723 1.564-6.532 1.042-1.81 2.514-3.205 4.416-4.186 1.901-.981 4.155-1.472 6.762-1.472 2.576 0 4.815.49 6.716 1.472 1.901.981 3.373 2.392 4.416 4.232 1.043 1.81 1.564 3.971 1.564 6.486 0 2.484-.521 4.646-1.564 6.486-1.043 1.84-2.515 3.25-4.416 4.232-1.901.981-4.14 1.472-6.716 1.472zm0-6.072c1.35 0 2.422-.475 3.22-1.426.797-.981 1.196-2.545 1.196-4.692 0-2.147-.399-3.695-1.196-4.646-.797-.981-1.87-1.472-3.22-1.472-1.38 0-2.469.49-3.266 1.472-.797.95-1.196 2.5-1.196 4.646 0 2.147.398 3.71 1.196 4.692.797.95 1.886 1.426 3.266 1.426zM77.77 34V.144h8.188V34h-8.188zm25.396.506c-2.606 0-4.86-.49-6.762-1.472-1.901-.981-3.373-2.377-4.416-4.186-1.042-1.84-1.564-4.017-1.564-6.532 0-2.545.522-4.723 1.564-6.532 1.043-1.81 2.515-3.205 4.416-4.186 1.902-.981 4.156-1.472 6.762-1.472 2.576 0 4.815.49 6.716 1.472 1.902.981 3.374 2.392 4.416 4.232 1.043 1.81 1.564 3.971 1.564 6.486 0 2.484-.521 4.646-1.564 6.486-1.042 1.84-2.514 3.25-4.416 4.232-1.901.981-4.14 1.472-6.716 1.472zm0-6.072c1.35 0 2.423-.475 3.22-1.426.798-.981 1.196-2.545 1.196-4.692 0-2.147-.398-3.695-1.196-4.646-.797-.981-1.87-1.472-3.22-1.472-1.38 0-2.468.49-3.266 1.472-.797.95-1.196 2.5-1.196 4.646 0 2.147.399 3.71 1.196 4.692.798.95 1.886 1.426 3.266 1.426zm42.746 6.072c-2.576 0-4.83-.49-6.762-1.472-1.932-.981-3.435-2.377-4.508-4.186-1.074-1.84-1.61-4.033-1.61-6.578s.536-4.723 1.61-6.532c1.073-1.81 2.576-3.19 4.508-4.14 1.932-.981 4.186-1.472 6.762-1.472 1.594 0 3.158.215 4.692.644 1.533.43 2.775 1.043 3.726 1.84l-2.3 5.566a7.518 7.518 0 00-2.53-1.38 7.852 7.852 0 00-2.714-.506c-1.687 0-3.006.506-3.956 1.518-.92 1.012-1.38 2.5-1.38 4.462 0 1.963.46 3.465 1.38 4.508.95 1.012 2.269 1.518 3.956 1.518.858 0 1.763-.153 2.714-.46a8.765 8.765 0 002.53-1.38l2.3 5.566c-.982.767-2.239 1.38-3.772 1.84-1.503.43-3.052.644-4.646.644zm23.501 0c-2.606 0-4.86-.49-6.762-1.472-1.901-.981-3.373-2.377-4.416-4.186-1.042-1.84-1.564-4.017-1.564-6.532 0-2.545.522-4.723 1.564-6.532 1.043-1.81 2.515-3.205 4.416-4.186 1.902-.981 4.156-1.472 6.762-1.472 2.576 0 4.815.49 6.716 1.472 1.902.981 3.374 2.392 4.416 4.232 1.043 1.81 1.564 3.971 1.564 6.486 0 2.484-.521 4.646-1.564 6.486-1.042 1.84-2.514 3.25-4.416 4.232-1.901.981-4.14 1.472-6.716 1.472zm0-6.072c1.35 0 2.423-.475 3.22-1.426.798-.981 1.196-2.545 1.196-4.692 0-2.147-.398-3.695-1.196-4.646-.797-.981-1.87-1.472-3.22-1.472-1.38 0-2.468.49-3.266 1.472-.797.95-1.196 2.5-1.196 4.646 0 2.147.399 3.71 1.196 4.692.798.95 1.886 1.426 3.266 1.426zM186.581 34V16.98c0-1.043-.031-2.1-.092-3.174a52.534 52.534 0 00-.276-3.174h7.912l.46 4.048h-.506a7.631 7.631 0 012.99-3.312c1.319-.828 2.867-1.242 4.646-1.242 1.717 0 3.174.414 4.37 1.242 1.227.797 2.116 2.07 2.668 3.818h-.782c.767-1.595 1.871-2.837 3.312-3.726 1.472-.89 3.113-1.334 4.922-1.334 2.668 0 4.661.813 5.98 2.438 1.319 1.595 1.978 4.094 1.978 7.498V34h-8.234V20.338c0-1.441-.215-2.453-.644-3.036-.429-.613-1.119-.92-2.07-.92-1.196 0-2.131.43-2.806 1.288-.644.859-.966 2.04-.966 3.542V34h-8.188V20.338c0-1.441-.23-2.453-.69-3.036-.429-.613-1.104-.92-2.024-.92-1.196 0-2.131.43-2.806 1.288-.644.859-.966 2.04-.966 3.542V34h-8.188zm42.956 9.936V16.98a55.026 55.026 0 00-.368-6.348h7.912l.506 4.14h-.46c.43-1.38 1.38-2.5 2.852-3.358 1.472-.859 3.113-1.288 4.922-1.288 2.024 0 3.803.49 5.336 1.472 1.534.95 2.73 2.346 3.588 4.186.89 1.81 1.334 3.987 1.334 6.532 0 2.515-.444 4.692-1.334 6.532-.858 1.84-2.054 3.25-3.588 4.232-1.533.95-3.312 1.426-5.336 1.426-1.778 0-3.388-.399-4.83-1.196-1.441-.828-2.392-1.917-2.852-3.266h.506v13.892h-8.188zm12.742-15.502c1.411 0 2.53-.475 3.358-1.426.859-.981 1.288-2.545 1.288-4.692 0-2.147-.429-3.695-1.288-4.646-.828-.981-1.947-1.472-3.358-1.472-1.38 0-2.499.49-3.358 1.472-.858.95-1.288 2.5-1.288 4.646 0 2.147.43 3.71 1.288 4.692.859.95 1.978 1.426 3.358 1.426zm26.522 6.072c-2.024 0-3.803-.475-5.336-1.426-1.534-.981-2.745-2.392-3.634-4.232-.859-1.84-1.288-4.017-1.288-6.532 0-2.545.429-4.723 1.288-6.532.889-1.84 2.1-3.235 3.634-4.186 1.533-.981 3.312-1.472 5.336-1.472 1.809 0 3.434.43 4.876 1.288 1.472.859 2.438 1.978 2.898 3.358h-.46l.506-4.14h7.866c-.092 1.043-.184 2.1-.276 3.174a55.026 55.026 0 00-.092 3.174V34h-8.096l-.092-3.956h.552c-.46 1.35-1.426 2.438-2.898 3.266-1.442.797-3.036 1.196-4.784 1.196zm2.622-6.072c1.38 0 2.499-.475 3.358-1.426.858-.981 1.288-2.545 1.288-4.692 0-2.147-.43-3.695-1.288-4.646-.859-.981-1.978-1.472-3.358-1.472-1.38 0-2.5.49-3.358 1.472-.859.95-1.288 2.5-1.288 4.646 0 2.147.414 3.71 1.242 4.692.858.95 1.993 1.426 3.404 1.426zM289.664 34V17.026a55.824 55.824 0 00-.368-6.394h7.912l.874 7.176h-1.242c.307-1.748.798-3.19 1.472-4.324.675-1.135 1.518-1.978 2.53-2.53 1.012-.552 2.208-.828 3.588-.828.644 0 1.12.03 1.426.092.338.03.69.123 1.058.276v7.176c-.766-.337-1.38-.552-1.84-.644-.46-.092-1.058-.138-1.794-.138-1.257 0-2.284.23-3.082.69-.797.43-1.38 1.104-1.748 2.024-.337.92-.506 2.1-.506 3.542V34h-8.28zm33.489.506c-3.312 0-5.812-.782-7.498-2.346-1.656-1.595-2.484-4.002-2.484-7.222v-8.28h-4.37v-6.026h4.37v-5.52l8.188-1.932v7.452h5.704v6.026h-5.704v7.958c0 1.35.306 2.254.92 2.714.613.43 1.349.644 2.208.644.521 0 .966-.03 1.334-.092.398-.092.812-.215 1.242-.368v6.302c-.675.276-1.35.46-2.024.552-.644.092-1.273.138-1.886.138zm16.746 0c-2.024 0-3.802-.475-5.336-1.426-1.533-.981-2.744-2.392-3.634-4.232-.858-1.84-1.288-4.017-1.288-6.532 0-2.545.43-4.723 1.288-6.532.89-1.84 2.101-3.235 3.634-4.186 1.534-.981 3.312-1.472 5.336-1.472 1.81 0 3.435.43 4.876 1.288 1.472.859 2.438 1.978 2.898 3.358h-.46l.506-4.14h7.866c-.092 1.043-.184 2.1-.276 3.174a55.941 55.941 0 00-.092 3.174V34h-8.096l-.092-3.956h.552c-.46 1.35-1.426 2.438-2.898 3.266-1.441.797-3.036 1.196-4.784 1.196zm2.622-6.072c1.38 0 2.5-.475 3.358-1.426.859-.981 1.288-2.545 1.288-4.692 0-2.147-.429-3.695-1.288-4.646-.858-.981-1.978-1.472-3.358-1.472-1.38 0-2.499.49-3.358 1.472-.858.95-1.288 2.5-1.288 4.646 0 2.147.414 3.71 1.242 4.692.859.95 1.994 1.426 3.404 1.426zm27.212 6.072c-2.177 0-4.155-.215-5.934-.644-1.748-.46-3.235-1.073-4.462-1.84l1.978-5.336c1.196.675 2.53 1.227 4.002 1.656 1.503.43 2.99.644 4.462.644 1.165 0 2.009-.169 2.53-.506.552-.368.828-.843.828-1.426 0-.46-.169-.828-.506-1.104-.337-.276-.843-.475-1.518-.598l-4.968-.874c-1.963-.368-3.496-1.089-4.6-2.162-1.073-1.104-1.61-2.53-1.61-4.278 0-1.595.429-2.975 1.288-4.14.859-1.196 2.085-2.116 3.68-2.76 1.595-.675 3.481-1.012 5.658-1.012 1.779 0 3.465.2 5.06.598 1.625.399 3.036 1.027 4.232 1.886l-2.116 5.198c-.951-.644-2.07-1.165-3.358-1.564-1.257-.43-2.438-.644-3.542-.644-1.319 0-2.254.2-2.806.598-.552.368-.828.828-.828 1.38 0 .43.153.797.46 1.104.307.276.797.475 1.472.598l4.968.874c2.024.337 3.573 1.043 4.646 2.116 1.104 1.043 1.656 2.469 1.656 4.278 0 1.687-.46 3.128-1.38 4.324-.889 1.165-2.131 2.07-3.726 2.714-1.595.613-3.45.92-5.566.92zM383.716 34v-8.372h8.51V34h-8.51z" fill="#fff"/></svg>