<svg width="970" height="24" viewBox="0 0 970 24" fill="none" xmlns="http://www.w3.org/2000/svg"><path fill="#EF6129" d="M0 0h970v24H0z"/><path d="M58.292 17.154c-1.475 0-2.58-.364-3.318-1.092-.737-.728-1.106-1.815-1.106-3.262V7.13h2.576v5.684c0 .719.15 1.265.448 1.638.299.364.765.546 1.4.546.635 0 1.101-.182 1.4-.546.299-.373.448-.92.448-1.638V7.13h2.548v5.67c0 1.447-.364 2.534-1.092 3.262-.728.728-1.83 1.092-3.304 1.092zM68.764 17V7.13h1.904l4.998 6.202h-.406V7.13h2.394V17H75.75l-4.97-6.202h.406V17h-2.422zm23.474 0V7.13h2.24l3.234 7.238h-.462l3.22-7.238h2.254V17h-2.338v-6.048h.602L98.188 17h-1.456l-2.814-6.048h.644V17h-2.324zm16.671 0V7.13h7.084v1.974h-4.606v1.89h4.27v1.988h-4.27v2.03h4.606V17h-7.084zm12.775 0V7.13h1.904l4.998 6.202h-.406V7.13h2.394V17h-1.904l-4.97-6.202h.406V17h-2.422zm18.755.154a8.99 8.99 0 01-2.268-.28c-.709-.196-1.306-.457-1.792-.784l.728-2.002c.308.196.644.364 1.008.504s.742.252 1.134.336c.402.075.808.112 1.218.112.616 0 1.041-.08 1.274-.238.243-.159.364-.364.364-.616 0-.224-.079-.397-.238-.518-.158-.13-.457-.243-.896-.336l-1.708-.35c-.905-.187-1.582-.509-2.03-.966-.448-.467-.672-1.073-.672-1.82 0-.653.173-1.218.518-1.694.355-.485.85-.859 1.484-1.12.635-.27 1.377-.406 2.226-.406.7 0 1.358.098 1.974.294.616.187 1.12.448 1.512.784l-.728 1.876a4.161 4.161 0 00-1.26-.616 5.075 5.075 0 00-1.554-.224c-.541 0-.952.084-1.232.252-.27.159-.406.387-.406.686 0 .205.08.383.238.532.168.14.472.257.91.35l1.68.336c.906.177 1.582.495 2.03.952.458.457.686 1.055.686 1.792 0 .635-.177 1.19-.532 1.666-.345.476-.83.845-1.456 1.106-.625.261-1.362.392-2.212.392zm8.696-.154l4.62-9.87h2.1l4.648 9.87h-2.59l-1.19-2.716.994.714h-5.796l.98-.714L151.725 17h-2.59zm5.656-7.21l-1.638 3.906-.392-.658h4.102l-.35.658-1.652-3.906h-.07zm11.453 9.828c-.168 0-.378-.01-.63-.028a5.283 5.283 0 01-.756-.112v-1.974c.177.037.354.06.532.07.177.019.317.028.42.028.42 0 .709-.117.868-.35.168-.233.252-.611.252-1.134V7.13h2.59v8.988c0 .784-.112 1.437-.336 1.96-.215.523-.56.91-1.036 1.162-.476.252-1.111.378-1.904.378zM175.685 17V7.13h7.084v1.974h-4.606v1.89h4.27v1.988h-4.27v2.03h4.606V17h-7.084zm20.896-4.942c0-1.027.201-1.918.602-2.674a4.282 4.282 0 011.722-1.778c.747-.42 1.629-.63 2.646-.63 1.027 0 1.914.21 2.66.63a4.27 4.27 0 011.722 1.778c.411.756.616 1.647.616 2.674 0 1.017-.205 1.909-.616 2.674a4.36 4.36 0 01-1.722 1.792c-.746.42-1.633.63-2.66.63-1.017 0-1.899-.21-2.646-.63a4.488 4.488 0 01-1.722-1.792c-.401-.765-.602-1.657-.602-2.674zm2.702 0c0 .924.187 1.647.56 2.17.374.513.943.77 1.708.77.766 0 1.34-.257 1.722-.77.383-.523.574-1.246.574-2.17 0-.924-.191-1.643-.574-2.156-.382-.513-.956-.77-1.722-.77-.765 0-1.334.257-1.708.77-.373.504-.56 1.223-.56 2.156zM212.439 17V7.13h6.93v1.974h-4.34v2.002h4.018v1.974h-4.018V17h-2.59zm12.502 0V7.13h2.59V17h-2.59zm13.712.154c-1.073 0-2.002-.21-2.786-.63a4.484 4.484 0 01-1.806-1.778c-.42-.765-.63-1.661-.63-2.688 0-1.027.21-1.918.63-2.674a4.484 4.484 0 011.806-1.778c.784-.42 1.713-.63 2.786-.63a5.86 5.86 0 011.862.28c.56.177 1.032.434 1.414.77l-.77 2.03c-.429-.308-.826-.523-1.19-.644a3.505 3.505 0 00-1.218-.196c-.84 0-1.488.247-1.946.742-.448.485-.672 1.185-.672 2.1 0 .924.224 1.633.672 2.128.458.485 1.106.728 1.946.728.458 0 .864-.06 1.218-.182.364-.13.761-.35 1.19-.658l.77 2.03c-.382.336-.854.597-1.414.784-.56.177-1.18.266-1.862.266zm8.968-.154V7.13h2.59V17h-2.59zm7.538 0l4.62-9.87h2.1l4.648 9.87h-2.59l-1.19-2.716.994.714h-5.796l.98-.714L257.749 17h-2.59zm5.656-7.21l-1.638 3.906-.392-.658h4.102l-.35.658-1.652-3.906h-.07zM271.477 17V7.13h2.59v7.728h4.228V17h-6.818zm20.821 0V7.13h3.976c1.166 0 2.151.2 2.954.602.802.392 1.409.957 1.82 1.694.42.728.63 1.605.63 2.632 0 1.017-.21 1.895-.63 2.632-.411.737-1.018 1.307-1.82 1.708-.803.401-1.788.602-2.954.602h-3.976zm2.59-2.1h1.218c1.017 0 1.768-.233 2.254-.7.494-.467.742-1.18.742-2.142 0-.97-.248-1.685-.742-2.142-.486-.467-1.237-.7-2.254-.7h-1.218V14.9zm12.687 2.1V7.13h7.084v1.974h-4.606v1.89h4.27v1.988h-4.27v2.03h4.606V17h-7.084zm21.205 0V7.13h2.24l3.234 7.238h-.462l3.22-7.238h2.254V17h-2.338v-6.048h.602L334.73 17h-1.456l-2.814-6.048h.644V17h-2.324zm16.671 0V7.13h7.084v1.974h-4.606v1.89h4.27v1.988h-4.27v2.03h4.606V17h-7.084zm12.775 0V7.13h3.976c1.167 0 2.152.2 2.954.602.803.392 1.41.957 1.82 1.694.42.728.63 1.605.63 2.632 0 1.017-.21 1.895-.63 2.632-.41.737-1.017 1.307-1.82 1.708-.802.401-1.787.602-2.954.602h-3.976zm2.59-2.1h1.218c1.018 0 1.769-.233 2.254-.7.495-.467.742-1.18.742-2.142 0-.97-.247-1.685-.742-2.142-.485-.467-1.236-.7-2.254-.7h-1.218V14.9zm12.688 2.1V7.13h2.59V17h-2.59zm13.712.154c-1.074 0-2.002-.21-2.786-.63a4.472 4.472 0 01-1.806-1.778c-.42-.765-.63-1.661-.63-2.688 0-1.027.21-1.918.63-2.674a4.471 4.471 0 011.806-1.778c.784-.42 1.712-.63 2.786-.63.681 0 1.302.093 1.862.28.56.177 1.031.434 1.414.77l-.77 2.03c-.43-.308-.826-.523-1.19-.644a3.513 3.513 0 00-1.218-.196c-.84 0-1.489.247-1.946.742-.448.485-.672 1.185-.672 2.1 0 .924.224 1.633.672 2.128.457.485 1.106.728 1.946.728.457 0 .863-.06 1.218-.182.364-.13.76-.35 1.19-.658l.77 2.03a4.061 4.061 0 01-1.414.784 6.15 6.15 0 01-1.862.266zm7.586-.154l4.62-9.87h2.1L406.17 17h-2.59l-1.19-2.716.994.714h-5.796l.98-.714L397.392 17h-2.59zm5.656-7.21l-1.638 3.906-.392-.658h4.102l-.35.658-1.652-3.906h-.07zM411.119 17V7.13h4.662c1.139 0 2.016.27 2.632.812.626.541.938 1.293.938 2.254 0 .644-.14 1.195-.42 1.652-.28.448-.686.798-1.218 1.05-.532.243-1.166.364-1.904.364l.126-.35h.7c.411 0 .775.112 1.092.336.318.224.579.537.784.938L420.009 17h-2.828l-1.61-3.15a.811.811 0 00-.462-.42 1.878 1.878 0 00-.672-.112h-.728V17h-2.59zm2.59-5.516h1.624c.504 0 .887-.098 1.148-.294.262-.205.392-.509.392-.91 0-.392-.13-.686-.392-.882-.261-.196-.644-.294-1.148-.294h-1.624v2.38zM425.44 17V7.13h7.084v1.974h-4.606v1.89h4.27v1.988h-4.27v2.03h4.606V17h-7.084z" fill="#fff"/></svg>