<svg width="143" height="13" viewBox="0 0 143 13" fill="none" xmlns="http://www.w3.org/2000/svg"><path d="M7.196 7.075H1.665c.08.472.293.85.64 1.128.346.28.789.418 1.327.418.644 0 1.197-.218 1.66-.654l1.45.66a3.388 3.388 0 01-1.3 1.104c-.504.24-1.103.358-1.796.358-1.077 0-1.953-.329-2.63-.988C.339 8.443 0 7.618 0 6.627c0-.991.338-1.859 1.012-2.53.675-.67 1.521-1.005 2.54-1.005 1.08 0 1.959.336 2.636 1.005.677.671 1.016 1.557 1.016 2.658l-.006.318-.002.002zM5.475 5.759a1.674 1.674 0 00-.673-.904 1.99 1.99 0 00-1.166-.35c-.48 0-.901.131-1.264.392-.227.163-.438.45-.632.862h3.734zM12.565 4.193l-1.066 1.034c-.433-.417-.826-.624-1.179-.624-.193 0-.345.04-.454.118a.353.353 0 00-.163.297c0 .09.034.173.104.247.069.076.24.179.513.308l.631.306c.665.318 1.121.642 1.369.972.248.33.373.718.373 1.162a1.89 1.89 0 01-.672 1.48c-.449.396-1.049.592-1.801.592-1.001 0-1.8-.379-2.397-1.137l1.06-1.12c.2.228.437.413.708.553.271.14.513.212.723.212.228 0 .41-.053.548-.159.139-.105.208-.228.208-.367 0-.257-.25-.508-.75-.752l-.58-.281C8.63 6.49 8.075 5.812 8.075 4.997c0-.525.21-.975.628-1.348.418-.374.954-.56 1.605-.56.445 0 .865.095 1.258.285.394.19.727.462 1 .816l-.001.003zM14.367 8.175c.273 0 .507.092.7.278.194.186.29.41.29.676a.912.912 0 01-.29.679.97.97 0 01-.7.28.972.972 0 01-.7-.28.912.912 0 01-.29-.68.9.9 0 01.29-.675.973.973 0 01.7-.278zM18.13.922h1.72l2.152 6.276L24.174.922h1.72l1.558 8.998h-1.706l-.995-5.682-1.973 5.682H21.22l-1.953-5.682-1.018 5.682h-1.724L18.13.922zM35.478 7.076h-5.532c.08.474.293.85.64 1.129.346.278.79.419 1.33.419.643 0 1.196-.219 1.659-.655l1.451.66a3.397 3.397 0 01-1.3 1.106c-.505.239-1.104.358-1.799.358-1.076 0-1.952-.33-2.63-.988-.678-.659-1.017-1.483-1.017-2.473 0-.99.337-1.859 1.013-2.529.675-.67 1.522-1.005 2.54-1.005 1.08 0 1.958.336 2.635 1.005.677.672 1.016 1.557 1.016 2.657l-.006.318h-.003l.003-.002zM33.755 5.76a1.68 1.68 0 00-.673-.905 1.991 1.991 0 00-1.166-.35c-.48 0-.9.131-1.265.392-.227.163-.439.451-.632.863h3.736zM41.783.694h1.723v9.224h-1.723v-.704c-.336.31-.673.534-1.01.67a2.922 2.922 0 01-1.101.205c-.886 0-1.652-.333-2.3-1-.647-.665-.97-1.495-.97-2.486 0-.991.311-1.87.938-2.527.627-.656 1.385-.985 2.281-.985.412 0 .798.075 1.16.225.361.15.694.378 1.001.68V.694h.001zm-1.812 3.94c-.532 0-.975.181-1.326.547-.352.365-.529.833-.529 1.404s.18 1.048.538 1.419c.357.37.798.555 1.322.555.525 0 .99-.181 1.346-.547.356-.365.533-.842.533-1.435 0-.593-.178-1.048-.533-1.408-.357-.357-.806-.537-1.352-.537v.002h.002zM45.941.524c.301 0 .561.106.776.318.216.212.325.469.325.77 0 .301-.108.552-.322.762a1.06 1.06 0 01-.766.316c-.297 0-.568-.107-.784-.322a1.061 1.061 0 01-.324-.78c0-.306.107-.545.32-.752.214-.208.471-.312.773-.312h.002zm-.86 2.74h1.722v6.653H45.08V3.263zM55.034 4.61l-1.433.766c-.269-.273-.536-.462-.798-.569a2.454 2.454 0 00-.926-.16c-.644 0-1.166.186-1.563.559-.397.372-.597.85-.597 1.431 0 .582.191 1.028.576 1.388.382.357.886.537 1.51.537.77 0 1.37-.255 1.8-.765l1.355.9c-.736.93-1.774 1.394-3.117 1.394-1.208 0-2.152-.347-2.835-1.04-.683-.694-1.026-1.505-1.026-2.435 0-.645.167-1.237.497-1.78a3.501 3.501 0 011.391-1.279c.594-.31 1.261-.464 1.997-.464.681 0 1.293.132 1.835.394.543.263.986.638 1.33 1.124v.002l.004-.002zM61.019 3.263h1.722v6.654H61.02v-.703c-.337.31-.674.534-1.012.67a2.922 2.922 0 01-1.1.204c-.886 0-1.652-.333-2.3-1-.646-.665-.97-1.494-.97-2.486 0-.99.311-1.87.939-2.527.626-.656 1.385-.985 2.28-.985.413 0 .799.076 1.16.226.361.15.694.378 1.001.679V3.26v.003h.002zm-1.812 1.37c-.532 0-.976.181-1.327.547-.351.365-.528.833-.528 1.404 0 .572.18 1.048.537 1.419.357.37.798.555 1.323.555.524 0 .99-.18 1.345-.547.356-.365.533-.842.533-1.435 0-.593-.178-1.048-.533-1.408-.357-.357-.806-.537-1.352-.537v.002h.002zM64.202 3.263h1.477v.839a1.79 1.79 0 01.637-.753c.265-.17.555-.256.87-.256.223 0 .457.056.7.17l-.535 1.436c-.203-.097-.368-.146-.498-.146-.265 0-.489.16-.672.478-.183.318-.275.942-.275 1.872l.007.325v2.691h-1.71V3.263h-.002.001zM75.258 7.076h-5.532c.079.474.293.85.64 1.129.346.278.79.419 1.329.419.643 0 1.196-.219 1.66-.655l1.45.66c-.36.498-.794.867-1.3 1.106-.505.239-1.104.358-1.798.358-1.077 0-1.953-.33-2.631-.988-.677-.659-1.016-1.483-1.016-2.473 0-.99.337-1.859 1.012-2.529.676-.67 1.522-1.005 2.54-1.005 1.08 0 1.959.336 2.636 1.005.677.672 1.016 1.557 1.016 2.657l-.006.318h-.003l.003-.002zM73.535 5.76a1.68 1.68 0 00-.673-.905 1.997 1.997 0 00-1.166-.35c-.48 0-.901.131-1.265.392-.227.163-.44.451-.632.863h3.736zM77.032 8.176a.98.98 0 01.7.278c.194.185.29.412.29.676a.914.914 0 01-.29.68.972.972 0 01-.7.28.972.972 0 01-.7-.28.91.91 0 01-.29-.68.9.9 0 01.29-.676.98.98 0 01.7-.278zM84.338 3.263h1.716v5.7c0 1.125-.233 1.953-.7 2.483-.626.718-1.57 1.078-2.833 1.078-.673 0-1.237-.08-1.698-.244a3.037 3.037 0 01-1.16-.719 2.924 2.924 0 01-.7-1.152h1.898c.169.187.384.329.65.426.265.096.58.143.94.143.462 0 .835-.07 1.117-.208.282-.139.48-.318.597-.537.115-.221.174-.6.174-1.138a2.872 2.872 0 01-.952.634 3.114 3.114 0 01-1.13.193c-.922 0-1.699-.322-2.334-.967-.633-.645-.951-1.46-.951-2.447 0-1.055.336-1.904 1.008-2.545a3.06 3.06 0 012.182-.868c.396 0 .769.07 1.12.211A3.55 3.55 0 0184.338 4v-.737zm-1.785 1.39c-.543 0-.99.176-1.344.528-.354.353-.53.797-.53 1.33 0 .535.182 1.01.544 1.364.361.354.815.531 1.362.531.547 0 .976-.172 1.32-.52.347-.346.522-.8.522-1.362s-.175-1.006-.525-1.353c-.348-.347-.798-.52-1.349-.52v.002zM90.912 3.093a3.74 3.74 0 011.826.472c.57.314 1.015.739 1.334 1.279.32.537.48 1.12.48 1.743 0 .624-.162 1.215-.483 1.762a3.415 3.415 0 01-1.316 1.28 3.717 3.717 0 01-1.835.462c-.984 0-1.824-.34-2.521-1.018a3.323 3.323 0 01-1.045-2.474c0-1.04.394-1.906 1.18-2.6.69-.604 1.481-.905 2.378-.905l.003-.002-.001.001zm.028 1.573c-.536 0-.98.18-1.337.541-.356.362-.533.822-.533 1.386s.176 1.048.529 1.408c.351.36.797.538 1.336.538.54 0 .988-.182 1.345-.545.358-.364.537-.83.537-1.4 0-.572-.175-1.036-.528-1.391-.352-.357-.8-.537-1.349-.537zM94.724 3.263h1.755l1.734 3.928 1.73-3.928h1.745l-2.92 6.654H97.65l-2.928-6.654h.002z" fill="#F3F0DA"/><path d="M101.963 11.53L106.152.609h1.239l-4.197 10.92h-1.231zM109.188.867h5.138v1.68h-3.375V4.19h2.193v1.655h-2.193v4.073h-1.763V.866v.001zM115.232 3.224h1.485v.842c.161-.332.375-.584.641-.757.266-.173.558-.258.876-.258.224 0 .459.058.704.173l-.539 1.446c-.203-.099-.37-.148-.501-.148-.267 0-.492.16-.676.48-.185.32-.276.948-.276 1.883l.006.326V9.92h-1.719V3.224h-.001zM124.89 3.224h1.732v6.695h-1.732V9.21c-.338.312-.677.536-1.018.673-.34.138-.709.206-1.106.206-.891 0-1.663-.335-2.313-1.005-.651-.671-.976-1.505-.976-2.501s.314-1.88.944-2.542c.63-.66 1.395-.991 2.294-.991.415 0 .803.076 1.166.228.364.152.699.38 1.007.683v-.738h.002zm-1.821 1.379c-.536 0-.98.183-1.334.55-.354.368-.531.838-.531 1.413 0 .575.181 1.055.541 1.428.36.373.804.56 1.332.56.527 0 .995-.183 1.354-.55.358-.368.537-.849.537-1.443 0-.594-.18-1.054-.537-1.415-.359-.361-.812-.541-1.361-.541l-.001-.002zM128.367 3.223h1.751v3.224c0 .628.045 1.064.134 1.308.089.244.233.435.429.57.197.134.44.202.729.202.29 0 .534-.067.735-.2.202-.134.352-.33.448-.588.072-.194.108-.605.108-1.238v-3.28h1.733V6.06c0 1.168-.096 1.969-.286 2.4a2.643 2.643 0 01-1.029 1.21c-.453.28-1.028.42-1.726.42-.758 0-1.37-.164-1.837-.492-.467-.327-.795-.786-.986-1.371-.135-.406-.203-1.145-.203-2.215V3.223zM141.267.639H143v9.278h-1.733V9.21a3.373 3.373 0 01-1.017.673c-.34.138-.709.207-1.106.207-.891 0-1.663-.335-2.313-1.006-.651-.67-.977-1.505-.977-2.5 0-.997.315-1.881.945-2.542.63-.66 1.394-.991 2.294-.991.415 0 .803.075 1.166.228.364.152.699.379 1.007.682V.638h.001zm-1.82 3.962c-.536 0-.98.184-1.334.55-.354.368-.531.838-.531 1.413 0 .575.181 1.055.541 1.428.36.374.804.56 1.331.56.528 0 .995-.183 1.354-.55.359-.367.537-.849.537-1.443 0-.594-.179-1.053-.537-1.414-.359-.361-.812-.541-1.36-.541l-.001-.003z" fill="#fff"/></svg>