<svg width="109" height="14" viewBox="0 0 109 14" fill="none" xmlns="http://www.w3.org/2000/svg"><path d="M3.094 10.076c0 .714-.392 1.092-1.19 1.092-.812 0-1.204-.364-1.204-1.092 0-.714.392-1.092 1.204-1.092.784 0 1.19.378 1.19 1.092zm3.94 0c0 .714-.391 1.092-1.19 1.092-.811 0-1.203-.364-1.203-1.092 0-.714.392-1.092 1.204-1.092.784 0 1.19.378 1.19 1.092zm3.942 0c0 .714-.392 1.092-1.19 1.092-.812 0-1.204-.364-1.204-1.092 0-.714.392-1.092 1.204-1.092.784 0 1.19.378 1.19 1.092zm9.346-3.598c0-.672-.042-1.232-.742-1.232-.518 0-1.162.294-1.456.518v3.752c0 .224.014.252.224.28l.672.098V11h-3.864V9.88l.63-.084c.196-.028.224-.07.224-.28V5.4c0-.154-.042-.252-.182-.294l-.756-.266.168-1.134h2.45l.112.728.056.028c.7-.518 1.512-.896 2.464-.896 1.526 0 2.114.84 2.114 2.38v3.57c0 .224.014.252.224.28l.7.098V11h-3.038V6.478zm7.323 4.69c-2.562 0-3.598-1.568-3.598-3.766 0-2.324 1.218-3.836 3.78-3.836 2.59 0 3.598 1.54 3.598 3.682 0 2.38-1.204 3.92-3.78 3.92zm.098-1.47c.91 0 1.47-.63 1.47-2.38 0-1.652-.504-2.24-1.414-2.24-.924 0-1.54.574-1.54 2.254 0 1.694.546 2.366 1.484 2.366zm7.535.168l.63-.084c.196-.028.224-.07.224-.28V5.4c0-.154-.042-.252-.182-.294l-.756-.266.154-1.134h2.464l.168 1.12h.084c.462-.714 1.078-1.26 1.974-1.26.322 0 .966.056 1.218.126V6.24l-1.68-.056-.14-.742c-.028-.126-.07-.154-.182-.154-.364 0-.798.308-1.008.49v3.71c0 .224.014.266.224.28l1.386.112V11h-4.578V9.866zm13.198.588c-.868.42-1.82.714-2.87.714-2.702 0-3.626-1.68-3.626-3.864 0-2.534 1.554-3.738 3.472-3.738 1.848 0 3.08.966 3.08 3.388 0 .168-.014.658-.028.938H44.22c.07.994.504 1.652 1.652 1.652.546 0 1.134-.126 2.086-.476l.518 1.386zM46.46 6.562c-.014-1.176-.476-1.484-1.05-1.484-.602 0-1.092.336-1.176 1.484h2.226zm7.148-1.386c-.028-.126-.042-.168-.14-.196a3.336 3.336 0 00-.896-.112c-.7 0-1.092.266-1.092.714 0 .574.77.7 1.624.896 1.106.252 2.352.644 2.352 2.282 0 1.708-1.386 2.408-3.164 2.408-1.274 0-2.52-.336-2.772-.504v-2.03l1.498.112.14.798c.028.126.042.168.168.21.168.056.546.14 1.078.14.742 0 1.162-.21 1.162-.728 0-.56-.56-.728-1.274-.854-1.176-.21-2.716-.462-2.716-2.296 0-1.736 1.484-2.45 3.094-2.45 1.106 0 2.184.252 2.576.406v2.03l-1.498-.098-.14-.728zm2.72 7.672l.56-.084c.196-.028.252-.084.252-.294V5.4c0-.154-.028-.238-.182-.294l-.742-.266.154-1.134h2.464l.126.714.07.028c.672-.546 1.582-.882 2.38-.882 1.568 0 2.688.98 2.688 3.584 0 1.68-.574 4.018-2.884 4.018-.728 0-1.386-.238-1.974-.7v1.988c0 .224.014.266.224.28l1.428.126v1.106h-4.564v-1.12zm2.912-3.85c.308.266.798.532 1.316.532.938 0 1.33-.896 1.33-2.268 0-1.442-.49-2.03-1.19-2.03-.588 0-1.148.294-1.456.504v3.262zm9.399 2.17c-2.562 0-3.598-1.568-3.598-3.766 0-2.324 1.218-3.836 3.78-3.836 2.59 0 3.598 1.54 3.598 3.682 0 2.38-1.204 3.92-3.78 3.92zm.098-1.47c.91 0 1.47-.63 1.47-2.38 0-1.652-.504-2.24-1.414-2.24-.924 0-1.54.574-1.54 2.254 0 1.694.546 2.366 1.484 2.366zm9.69-3.22c0-.672-.042-1.232-.742-1.232-.518 0-1.162.294-1.456.518v3.752c0 .224.014.252.224.28l.672.098V11H73.26V9.88l.63-.084c.196-.028.224-.07.224-.28V5.4c0-.154-.042-.252-.182-.294l-.756-.266.168-1.134h2.45l.112.728.056.028c.7-.518 1.512-.896 2.464-.896 1.526 0 2.114.84 2.114 2.38v3.57c0 .224.014.252.224.28l.7.098V11h-3.038V6.478zm8.946 3.738l-.098-.014c-.588.574-1.274.966-2.296.966-1.652 0-2.716-1.05-2.716-3.724 0-2.814 1.414-3.878 2.968-3.878.812 0 1.442.28 1.974.672V2.11c0-.14-.056-.238-.182-.28l-.77-.266.154-1.134h2.814v9.1c0 .21.014.238.224.266l.672.098V11h-2.604l-.14-.784zm-.252-4.606c-.35-.238-.798-.42-1.204-.42-1.036 0-1.442.966-1.442 2.212 0 1.358.392 2.114 1.274 2.114.476 0 .994-.28 1.372-.602V5.61zm8.279 4.634l-.07-.014c-.532.518-1.232.938-2.352.938-1.764 0-2.044-1.204-2.044-2.072 0-1.4.854-2.03 2.618-2.156l1.61-.112v-.77c0-.658-.07-1.106-.938-1.106-.672 0-1.022.098-1.022.938l-1.974-.168c0-1.89 1.722-2.156 3.01-2.156 2.128 0 2.982.574 2.982 2.534v3.402c0 .224.014.252.224.28l.672.112V11H95.54l-.14-.756zM94.21 8.06c-.826.056-1.12.266-1.12.826 0 .56.336.77.798.77.476 0 .952-.266 1.274-.504V7.99l-.952.07zm8.705-2.884c-.028-.126-.042-.168-.14-.196a3.336 3.336 0 00-.896-.112c-.7 0-1.092.266-1.092.714 0 .574.77.7 1.624.896 1.106.252 2.352.644 2.352 2.282 0 1.708-1.386 2.408-3.164 2.408-1.274 0-2.52-.336-2.772-.504v-2.03l1.498.112.14.798c.028.126.042.168.168.21.168.056.546.14 1.078.14.742 0 1.162-.21 1.162-.728 0-.56-.56-.728-1.274-.854-1.176-.21-2.716-.462-2.716-2.296 0-1.736 1.484-2.45 3.094-2.45 1.106 0 2.184.252 2.576.406v2.03l-1.498-.098-.14-.728zm5.464 4.9c0 .714-.392 1.092-1.19 1.092-.812 0-1.204-.364-1.204-1.092 0-.714.392-1.092 1.204-1.092.784 0 1.19.378 1.19 1.092z" fill="#fff"/></svg>