<svg width="284" height="14" viewBox="0 0 284 14" fill="none" xmlns="http://www.w3.org/2000/svg"><path d="M6.16 9.908l1.148-.126-.504-1.456H3.332l-.49 1.456 1.106.126V11H.042V9.908l.616-.154c.168-.042.294-.098.35-.266L4.074.864h2.478l3.052 8.652c.056.168.168.196.336.238l.644.154V11H6.16V9.908zM5.054 3.006L3.766 6.814h2.618L5.138 3.006h-.084zm6.059 9.842l.56-.084c.196-.028.252-.084.252-.294V5.4c0-.154-.028-.238-.182-.294l-.742-.266.154-1.134h2.464l.126.714.07.028c.672-.546 1.582-.882 2.38-.882 1.568 0 2.688.98 2.688 3.584 0 1.68-.574 4.018-2.884 4.018-.728 0-1.386-.238-1.974-.7v1.988c0 .224.014.266.224.28l1.428.126v1.106h-4.564v-1.12zm2.912-3.85c.308.266.798.532 1.316.532.938 0 1.33-.896 1.33-2.268 0-1.442-.49-2.03-1.19-2.03-.588 0-1.148.294-1.456.504v3.262zm5.855.868l.63-.084c.196-.028.224-.07.224-.28V5.4c0-.154-.042-.252-.182-.294l-.756-.266.154-1.134h2.464l.168 1.12h.084c.462-.714 1.078-1.26 1.974-1.26.322 0 .966.056 1.218.126V6.24l-1.68-.056-.14-.742c-.028-.126-.07-.154-.182-.154-.364 0-.798.308-1.008.49v3.71c0 .224.014.266.224.28l1.386.112V11H19.88V9.866zm13.2.588c-.869.42-1.82.714-2.87.714-2.703 0-3.627-1.68-3.627-3.864 0-2.534 1.554-3.738 3.472-3.738 1.848 0 3.08.966 3.08 3.388 0 .168-.014.658-.028.938h-4.284c.07.994.504 1.652 1.652 1.652.546 0 1.134-.126 2.086-.476l.518 1.386zm-2.017-3.892c-.014-1.176-.476-1.484-1.05-1.484-.602 0-1.092.336-1.176 1.484h2.226zm8.168-.084c0-.672-.042-1.232-.742-1.232-.518 0-1.162.294-1.456.518v3.752c0 .224.014.252.224.28l.672.098V11h-3.864V9.88l.63-.084c.196-.028.224-.07.224-.28V5.4c0-.154-.042-.252-.182-.294l-.756-.266.168-1.134h2.45l.112.728.056.028c.7-.518 1.512-.896 2.464-.896 1.526 0 2.114.84 2.114 2.38v3.57c0 .224.014.252.224.28l.7.098V11H39.23V6.478zm8.946 3.738l-.098-.014c-.588.574-1.274.966-2.296.966-1.652 0-2.716-1.05-2.716-3.724 0-2.814 1.414-3.878 2.968-3.878.812 0 1.442.28 1.974.672V2.11c0-.14-.056-.238-.182-.28l-.77-.266.154-1.134h2.814v9.1c0 .21.014.238.224.266l.672.098V11h-2.604l-.14-.784zm-.252-4.606c-.35-.238-.798-.42-1.204-.42-1.036 0-1.442.966-1.442 2.212 0 1.358.392 2.114 1.274 2.114.476 0 .994-.28 1.372-.602V5.61zm10.115 4.844c-.868.42-1.82.714-2.87.714-2.702 0-3.626-1.68-3.626-3.864 0-2.534 1.554-3.738 3.472-3.738 1.848 0 3.08.966 3.08 3.388 0 .168-.014.658-.028.938h-4.284c.07.994.504 1.652 1.652 1.652.546 0 1.134-.126 2.086-.476l.518 1.386zm-2.016-3.892c-.014-1.176-.476-1.484-1.05-1.484-.602 0-1.092.336-1.176 1.484h2.226zm10.536 3.682l-.07-.014c-.532.518-1.232.938-2.352.938-1.764 0-2.044-1.204-2.044-2.072 0-1.4.854-2.03 2.618-2.156l1.61-.112v-.77c0-.658-.07-1.106-.938-1.106-.672 0-1.022.098-1.022.938l-1.974-.168c0-1.89 1.722-2.156 3.01-2.156 2.128 0 2.982.574 2.982 2.534v3.402c0 .224.014.252.224.28l.672.112V11H66.7l-.14-.756zM65.37 8.06c-.826.056-1.12.266-1.12.826 0 .56.336.77.798.77.476 0 .952-.266 1.274-.504V7.99l-.952.07zm10.525-6.734c0 .798-.462 1.26-1.274 1.26-.798 0-1.26-.462-1.26-1.26S73.823.094 74.62.094c.812 0 1.274.434 1.274 1.232zm-3.08 8.568l.714-.098c.196-.028.224-.07.224-.28V5.4c0-.154-.042-.252-.182-.294l-.756-.266.154-1.134h2.898v5.81c0 .224.014.252.224.28l.714.098V11h-3.99V9.894zm9.848.322l-.098-.014c-.588.574-1.274.966-2.296.966-1.652 0-2.716-1.05-2.716-3.724 0-2.814 1.414-3.878 2.968-3.878.812 0 1.442.28 1.974.672V2.11c0-.14-.056-.238-.182-.28l-.77-.266.154-1.134h2.814v9.1c0 .21.014.238.224.266l.672.098V11h-2.604l-.14-.784zm-.252-4.606c-.35-.238-.798-.42-1.204-.42-1.036 0-1.442.966-1.442 2.212 0 1.358.392 2.114 1.274 2.114.476 0 .994-.28 1.372-.602V5.61zm10.116 4.844c-.868.42-1.82.714-2.87.714-2.702 0-3.626-1.68-3.626-3.864 0-2.534 1.554-3.738 3.472-3.738 1.848 0 3.08.966 3.08 3.388 0 .168-.014.658-.028.938H88.27c.07.994.504 1.652 1.652 1.652.546 0 1.134-.126 2.086-.476l.518 1.386zM90.51 6.562c-.014-1.176-.476-1.484-1.05-1.484-.602 0-1.092.336-1.176 1.484h2.226zm8.167-.084c0-.672-.042-1.232-.742-1.232-.518 0-1.162.294-1.456.518v3.752c0 .224.014.252.224.28l.672.098V11h-3.864V9.88l.63-.084c.196-.028.224-.07.224-.28V5.4c0-.154-.042-.252-.182-.294l-.756-.266.168-1.134h2.45l.112.728.056.028c.7-.518 1.512-.896 2.464-.896 1.526 0 2.114.84 2.114 2.38v3.57c0 .224.014.252.224.28l.7.098V11h-3.038V6.478zm9.06 4.13c-.602.294-1.484.56-2.282.56-1.666 0-2.296-.672-2.296-2.254V5.246c0-.084 0-.14-.112-.14h-.98V3.86c1.232-.14 1.722-.756 1.876-2.282h1.33v1.988c0 .098 0 .14.112.14h1.974v1.4h-2.086v3.346c0 .826.196 1.148.952 1.148.392 0 .798-.098 1.134-.224l.378 1.232zm3.816-9.282c0 .798-.462 1.26-1.274 1.26-.798 0-1.26-.462-1.26-1.26s.462-1.232 1.26-1.232c.812 0 1.274.434 1.274 1.232zm-3.08 8.568l.714-.098c.196-.028.224-.07.224-.28V5.4c0-.154-.042-.252-.182-.294l-.756-.266.154-1.134h2.898v5.81c0 .224.014.252.224.28l.714.098V11h-3.99V9.894zm10.155-4.62c0-.112-.028-.168-.14-.168h-2.226V9.46c0 .252.042.266.252.294l.98.14V11h-4.354V9.894l.756-.098c.238-.028.252-.07.252-.336V5.246c0-.084 0-.14-.112-.14h-.938v-1.4h1.05v-.7c0-2.072 1.204-2.744 3.486-2.744 1.736 0 2.94.294 2.968 2.212l-1.988.238c0-.868-.196-1.078-1.092-1.078-.938 0-1.26.28-1.26 1.078v.854c0 .112.014.14.154.14h4.326v5.81c0 .224.014.252.224.28l.714.098V11h-3.052V5.274zm10.059 5.208c-.644.392-1.638.686-2.66.686-2.534 0-3.668-1.582-3.668-3.71 0-2.618 1.596-3.892 3.836-3.892 1.092 0 2.058.308 2.492.588v2.198l-1.498-.07-.168-.924c-.014-.098-.042-.182-.168-.224a2.434 2.434 0 00-.714-.098c-.84 0-1.554.574-1.554 2.212 0 1.82.812 2.338 1.806 2.338.7 0 1.33-.224 1.75-.406l.546 1.302zm5.307-.238l-.07-.014c-.532.518-1.232.938-2.352.938-1.764 0-2.044-1.204-2.044-2.072 0-1.4.854-2.03 2.618-2.156l1.61-.112v-.77c0-.658-.07-1.106-.938-1.106-.672 0-1.022.098-1.022.938l-1.974-.168c0-1.89 1.722-2.156 3.01-2.156 2.128 0 2.982.574 2.982 2.534v3.402c0 .224.014.252.224.28l.672.112V11h-2.576l-.14-.756zm-1.19-2.184c-.826.056-1.12.266-1.12.826 0 .56.336.77.798.77.476 0 .952-.266 1.274-.504V7.99l-.952.07zm4.559 1.806l.63-.084c.196-.028.224-.07.224-.28V5.4c0-.154-.042-.252-.182-.294l-.756-.266.154-1.134h2.464l.168 1.12h.084c.462-.714 1.078-1.26 1.974-1.26.322 0 .966.056 1.218.126V6.24l-1.68-.056-.14-.742c-.028-.126-.07-.154-.182-.154-.364 0-.798.308-1.008.49v3.71c0 .224.014.266.224.28l1.386.112V11h-4.578V9.866zm10.903 2.968l1.092-.126c.182-.014.266-.112.35-.308l.602-1.33-2.674-5.852c-.084-.168-.126-.196-.294-.238l-.574-.14.224-1.134h3.71V4.84l-.882.112 1.554 3.696h.098l1.484-3.696-.91-.112.182-1.134h3.122V4.84l-.448.084c-.168.028-.28.07-.35.238l-3.08 7.532 1.456.154v1.12h-4.662v-1.134zm10.602-2.968l.63-.084c.196-.028.224-.07.224-.28V5.4c0-.154-.042-.252-.182-.294l-.756-.266.154-1.134h2.464l.168 1.12h.084c.462-.714 1.078-1.26 1.974-1.26.322 0 .966.056 1.218.126V6.24l-1.68-.056-.14-.742c-.028-.126-.07-.154-.182-.154-.364 0-.798.308-1.008.49v3.71c0 .224.014.266.224.28l1.386.112V11h-4.578V9.866zm13.199.588c-.868.42-1.82.714-2.87.714-2.702 0-3.626-1.68-3.626-3.864 0-2.534 1.554-3.738 3.472-3.738 1.848 0 3.08.966 3.08 3.388 0 .168-.014.658-.028.938h-4.284c.07.994.504 1.652 1.652 1.652.546 0 1.134-.126 2.086-.476l.518 1.386zm-2.016-3.892c-.014-1.176-.476-1.484-1.05-1.484-.602 0-1.092.336-1.176 1.484h2.226zm2.946 6.286l.56-.084c.196-.028.252-.084.252-.294V5.4c0-.154-.028-.238-.182-.294l-.742-.266.154-1.134h2.464l.126.714.07.028c.672-.546 1.582-.882 2.38-.882 1.568 0 2.688.98 2.688 3.584 0 1.68-.574 4.018-2.884 4.018-.728 0-1.386-.238-1.974-.7v1.988c0 .224.014.266.224.28l1.428.126v1.106h-4.564v-1.12zm2.912-3.85c.308.266.798.532 1.316.532.938 0 1.33-.896 1.33-2.268 0-1.442-.49-2.03-1.19-2.03-.588 0-1.148.294-1.456.504v3.262zm9.399 2.17c-2.562 0-3.598-1.568-3.598-3.766 0-2.324 1.218-3.836 3.78-3.836 2.59 0 3.598 1.54 3.598 3.682 0 2.38-1.204 3.92-3.78 3.92zm.098-1.47c.91 0 1.47-.63 1.47-2.38 0-1.652-.504-2.24-1.414-2.24-.924 0-1.54.574-1.54 2.254 0 1.694.546 2.366 1.484 2.366zm4.524.168l.63-.084c.196-.028.224-.07.224-.28V5.4c0-.154-.042-.252-.182-.294l-.756-.266.154-1.134h2.464l.168 1.12h.084c.462-.714 1.078-1.26 1.974-1.26.322 0 .966.056 1.218.126V6.24l-1.68-.056-.14-.742c-.028-.126-.07-.154-.182-.154-.364 0-.798.308-1.008.49v3.71c0 .224.014.266.224.28l1.386.112V11h-4.578V9.866zm12.285.742c-.602.294-1.484.56-2.282.56-1.666 0-2.296-.672-2.296-2.254V5.246c0-.084 0-.14-.112-.14h-.98V3.86c1.232-.14 1.722-.756 1.876-2.282h1.33v1.988c0 .098 0 .14.112.14h1.974v1.4h-2.086v3.346c0 .826.196 1.148.952 1.148.392 0 .798-.098 1.134-.224l.378 1.232zm5.178-.364l-.07-.014c-.532.518-1.232.938-2.352.938-1.764 0-2.044-1.204-2.044-2.072 0-1.4.854-2.03 2.618-2.156l1.61-.112v-.77c0-.658-.07-1.106-.938-1.106-.672 0-1.022.098-1.022.938l-1.974-.168c0-1.89 1.722-2.156 3.01-2.156 2.128 0 2.982.574 2.982 2.534v3.402c0 .224.014.252.224.28l.672.112V11h-2.576l-.14-.756zm-1.19-2.184c-.826.056-1.12.266-1.12.826 0 .56.336.77.798.77.476 0 .952-.266 1.274-.504V7.99l-.952.07zm4.559 1.806l.63-.084c.196-.028.224-.07.224-.28V5.4c0-.154-.042-.252-.182-.294l-.756-.266.154-1.134h2.464l.168 1.12h.084c.462-.714 1.078-1.26 1.974-1.26.322 0 .966.056 1.218.126V6.24l-1.68-.056-.14-.742c-.028-.126-.07-.154-.182-.154-.364 0-.798.308-1.008.49v3.71c0 .224.014.266.224.28l1.386.112V11h-4.578V9.866zm16.237.588c-.868.42-1.82.714-2.87.714-2.702 0-3.626-1.68-3.626-3.864 0-2.534 1.554-3.738 3.472-3.738 1.848 0 3.08.966 3.08 3.388 0 .168-.014.658-.028.938h-4.284c.07.994.504 1.652 1.652 1.652.546 0 1.134-.126 2.086-.476l.518 1.386zm-2.016-3.892c-.014-1.176-.476-1.484-1.05-1.484-.602 0-1.092.336-1.176 1.484h2.226zm2.932 3.332l.7-.098c.196-.028.224-.07.224-.28V2.124c0-.154-.042-.252-.182-.294l-.77-.266.154-1.134h2.912v9.086c0 .224.014.252.224.28l.686.098V11h-3.948V9.894zm7.624-.014l.784-.084c.196-.028.224-.084.224-.294V5.246c0-.084 0-.14-.112-.14h-.938v-1.4h1.05v-.77c0-1.89 1.064-2.674 2.996-2.674 1.302 0 2.506.322 2.506 2.016l-1.96.238c.014-.714-.182-.882-.644-.882-.7 0-.784.378-.784 1.05v.882c0 .098 0 .14.112.14h2.212v1.4h-2.324V9.46c0 .224.042.266.252.28l1.708.154V11h-5.082V9.88zm6.237-.014l.63-.084c.196-.028.224-.07.224-.28V5.4c0-.154-.042-.252-.182-.294l-.756-.266.154-1.134h2.464l.168 1.12h.084c.462-.714 1.078-1.26 1.974-1.26.322 0 .966.056 1.218.126V6.24l-1.68-.056-.14-.742c-.028-.126-.07-.154-.182-.154-.364 0-.798.308-1.008.49v3.71c0 .224.014.266.224.28l1.386.112V11h-4.578V9.866zm10.966.378l-.07-.014c-.532.518-1.232.938-2.352.938-1.764 0-2.044-1.204-2.044-2.072 0-1.4.854-2.03 2.618-2.156l1.61-.112v-.77c0-.658-.07-1.106-.938-1.106-.672 0-1.022.098-1.022.938l-1.974-.168c0-1.89 1.722-2.156 3.01-2.156 2.128 0 2.982.574 2.982 2.534v3.402c0 .224.014.252.224.28l.672.112V11h-2.576l-.14-.756zm-1.19-2.184c-.826.056-1.12.266-1.12.826 0 .56.336.77.798.77.476 0 .952-.266 1.274-.504V7.99l-.952.07zm9.717 2.184l-.07-.014c-.574.434-1.302.938-2.492.938-1.47 0-2.03-.84-2.03-2.464V5.288c0-.224-.014-.252-.224-.294l-.672-.14.14-1.148h2.87V8.34c0 .854.14 1.176.742 1.176.616 0 1.12-.35 1.442-.644V5.274c0-.224-.014-.238-.224-.28l-.602-.14.154-1.148h2.786v5.81c0 .182.028.238.196.266l.7.098V11h-2.604l-.112-.756zm8.612-.028l-.098-.014c-.588.574-1.274.966-2.296.966-1.652 0-2.716-1.05-2.716-3.724 0-2.814 1.414-3.878 2.968-3.878.812 0 1.442.28 1.974.672V2.11c0-.14-.056-.238-.182-.28l-.77-.266.154-1.134h2.814v9.1c0 .21.014.238.224.266l.672.098V11h-2.604l-.14-.784zm-.252-4.606c-.35-.238-.798-.42-1.204-.42-1.036 0-1.442.966-1.442 2.212 0 1.358.392 2.114 1.274 2.114.476 0 .994-.28 1.372-.602V5.61zm10.115 4.844c-.868.42-1.82.714-2.87.714-2.702 0-3.626-1.68-3.626-3.864 0-2.534 1.554-3.738 3.472-3.738 1.848 0 3.08.966 3.08 3.388 0 .168-.014.658-.028.938h-4.284c.07.994.504 1.652 1.652 1.652.546 0 1.134-.126 2.086-.476l.518 1.386zm-2.016-3.892c-.014-1.176-.476-1.484-1.05-1.484-.602 0-1.092.336-1.176 1.484h2.226zm5.664 3.514c0 .714-.392 1.092-1.19 1.092-.812 0-1.204-.364-1.204-1.092 0-.714.392-1.092 1.204-1.092.784 0 1.19.378 1.19 1.092z" fill="#fff"/></svg>