<svg width="132" height="26" viewBox="0 0 132 26" fill="none" xmlns="http://www.w3.org/2000/svg"><rect width="132" height="26" rx="2" fill="#F3C501"/><path d="M9.437 16.5V9.4h3.26c.346 0 .666.07.96.21.293.14.546.33.76.57.213.233.376.497.49.79.12.293.18.59.18.89 0 .273-.04.537-.12.79-.08.253-.197.487-.35.7a2.488 2.488 0 01-.55.54l1.5 2.61h-2.14l-1.25-2.18h-.79v2.18h-1.95zm1.95-3.88h1.23a.36.36 0 00.23-.09.645.645 0 00.18-.26.957.957 0 00.08-.41.83.83 0 00-.09-.41.638.638 0 00-.21-.26.399.399 0 00-.24-.09h-1.18v1.52zm10.658 2.18v1.7h-5.06V9.4h4.97v1.7h-3.02v1h2.58v1.58h-2.58v1.12h3.11zm1.706 1.7V9.4h3.06c.347 0 .667.07.96.21.294.14.547.33.76.57.214.233.377.497.49.79.12.293.18.59.18.89 0 .42-.1.817-.3 1.19-.193.373-.466.68-.82.92-.346.233-.753.35-1.22.35h-1.16v2.18h-1.95zm1.95-3.88h1.03c.08 0 .157-.023.23-.07a.497.497 0 00.18-.24c.054-.113.08-.263.08-.45 0-.2-.03-.353-.09-.46a.448.448 0 00-.21-.23.472.472 0 00-.24-.07h-.98v1.52zm8.28 3.94c-.54 0-1.03-.1-1.47-.3a3.72 3.72 0 01-1.14-.82 3.915 3.915 0 01-.73-1.16 3.702 3.702 0 01-.25-1.34c0-.473.09-.923.27-1.35.18-.427.43-.807.75-1.14.327-.34.71-.607 1.15-.8.447-.193.934-.29 1.46-.29.54 0 1.03.103 1.47.31.44.2.818.473 1.13.82.314.347.554.737.72 1.17a3.477 3.477 0 01-.01 2.66 3.664 3.664 0 01-1.89 1.95c-.44.193-.926.29-1.46.29zm-1.61-3.6c0 .24.034.473.1.7.068.22.168.42.3.6.134.173.3.313.5.42.207.1.45.15.73.15.28 0 .524-.053.73-.16.207-.107.374-.25.5-.43.134-.187.23-.39.29-.61a2.436 2.436 0 000-1.38 1.828 1.828 0 00-.3-.59 1.364 1.364 0 00-.51-.42c-.206-.1-.446-.15-.72-.15-.28 0-.523.053-.73.16-.2.107-.366.25-.5.43a1.809 1.809 0 00-.3.6c-.06.22-.09.447-.09.68zm6.857 3.54V9.4h3.26c.347 0 .667.07.96.21.294.14.547.33.76.57.214.233.377.497.49.79.12.293.18.59.18.89 0 .273-.04.537-.12.79-.08.253-.196.487-.35.7a2.488 2.488 0 01-.55.54l1.5 2.61h-2.14l-1.25-2.18h-.79v2.18h-1.95zm1.95-3.88h1.23a.36.36 0 00.23-.09.645.645 0 00.18-.26.957.957 0 00.08-.41.83.83 0 00-.09-.41.638.638 0 00-.21-.26.399.399 0 00-.24-.09h-1.18v1.52zm11.03-1.52h-2.04v5.4h-1.95v-5.4h-2.05V9.4h6.04v1.7zm2.497-1.7h2.18l2.26 7.1h-1.98l-.43-1.39h-1.89l-.42 1.39h-1.99l2.27-7.1zm1.72 4.41l-.63-2.5-.66 2.5h1.29zm11.913.99v1.7h-5.06V9.4h4.97v1.7h-3.02v1h2.58v1.58h-2.58v1.12h3.11zm1.707 1.7V9.4h1.95v5.4h3.22v1.7h-5.17zm9.403 0V9.4h4.87v1.7h-2.92v1.18h2.38v1.58h-2.38v2.64h-1.95zm6.434 0V9.4h3.26c.347 0 .667.07.96.21.294.14.547.33.76.57.214.233.377.497.49.79.12.293.18.59.18.89 0 .273-.04.537-.12.79-.08.253-.196.487-.35.7a2.488 2.488 0 01-.55.54l1.5 2.61h-2.14l-1.25-2.18h-.79v2.18h-1.95zm1.95-3.88h1.23a.36.36 0 00.23-.09.645.645 0 00.18-.26.957.957 0 00.08-.41.83.83 0 00-.09-.41.638.638 0 00-.21-.26.399.399 0 00-.24-.09h-1.18v1.52zM95.07 9.4h2.18l2.26 7.1h-1.98l-.43-1.39h-1.89l-.42 1.39H92.8l2.27-7.1zm1.72 4.41l-.63-2.5-.66 2.5h1.29zm6.937 2.75c-.567 0-1.054-.093-1.46-.28a2.684 2.684 0 01-1-.77c-.254-.327-.44-.7-.56-1.12a4.926 4.926 0 01-.18-1.34V9.4h1.95v3.65c0 .233.023.457.07.67.046.213.12.403.22.57.1.167.226.3.38.4.16.093.353.14.58.14.233 0 .43-.047.59-.14a1.1 1.1 0 00.38-.4c.1-.173.173-.367.22-.58.046-.213.07-.433.07-.66V9.4h1.95v3.65c0 .493-.067.953-.2 1.38-.127.427-.32.8-.58 1.12-.26.32-.594.57-1 .75-.4.173-.877.26-1.43.26zm5.131-.06V9.4h2.73c.787 0 1.444.16 1.97.48.534.313.934.74 1.2 1.28.274.533.41 1.127.41 1.78 0 .72-.15 1.347-.45 1.88-.293.533-.71.947-1.25 1.24-.533.293-1.16.44-1.88.44h-2.73zm4.33-3.56c0-.367-.063-.687-.19-.96a1.462 1.462 0 00-.55-.65 1.562 1.562 0 00-.86-.23h-.78v3.7h.78c.34 0 .627-.08.86-.24.24-.16.424-.38.55-.66.127-.287.19-.607.19-.96zm8.689 1.86v1.7h-5.06V9.4h4.97v1.7h-3.02v1h2.58v1.58h-2.58v1.12h3.11z" fill="#2B3D51"/></svg>