<svg width="254" height="193" viewBox="0 0 254 193" fill="none" xmlns="http://www.w3.org/2000/svg"><path d="M56.593 33V.6h8.25l10.3 14.35c.75 1 1.45 2.45 1.45 2.45V.6h9.5V33h-8.25l-10.3-14.1c-.75-1-1.45-2.45-1.45-2.45V33h-9.5zm43.31.5c-7.7 0-9.3-4.8-9.3-11.3V7.45h9.1v13.6c0 2.7.9 3.95 3.3 3.95 2.75 0 3.75-2.35 3.75-5.5V7.45h9.1V33h-8.6v-2.8c-1.4 1.8-4.7 3.3-7.35 3.3zm19.953-.5V7.45h8.6v2.95c2.35-2.75 5.15-3.45 7.7-3.45 6.45 0 8.95 3.8 8.95 11.3V33h-9.1V19.4c0-2.9-1.1-3.95-2.85-3.95-2.8 0-4.2 2.35-4.2 5.5V33h-9.1zm42.304.5c-7.85 0-13.8-5.9-13.8-13.25 0-7.4 5.95-13.3 13.8-13.3 3.5 0 6.35 1.05 9.05 3.2l-5.25 6.3c-.95-.9-2-1.5-3.55-1.5-2.95 0-4.85 2.25-4.85 5.3 0 3.1 1.85 5.25 5.05 5.25 1.75 0 3.2-.75 4.3-1.85l4.55 6.7c-2.45 2.05-5.7 3.15-9.3 3.15zm21.467 0c-7.1 0-10.95-5.9-10.95-13.25 0-7.4 3.85-13.3 10.95-13.3 2.05 0 5.45.7 6.95 3.35V7.45h8.6V33h-8.6v-2.85c-1.4 2.6-4.9 3.35-6.95 3.35zm2.4-8c2.4 0 4.1-2.15 4.1-5.25 0-3.05-1.7-5.3-4.1-5.3-2.4 0-4.1 2.25-4.1 5.3 0 3.1 1.7 5.25 4.1 5.25zM15.53 86.5c-7.85 0-13.8-5.9-13.8-13.25 0-7.4 5.95-13.3 13.8-13.3 3.5 0 6.35 1.05 9.05 3.2l-5.25 6.3c-.95-.9-2-1.5-3.55-1.5-2.95 0-4.85 2.25-4.85 5.3 0 3.1 1.85 5.25 5.05 5.25 1.75 0 3.2-.75 4.3-1.85l4.55 6.7c-2.45 2.05-5.7 3.15-9.3 3.15zm24.316 0c-7.85 0-13.8-5.9-13.8-13.25 0-7.4 5.95-13.3 13.8-13.3 7.85 0 13.8 5.9 13.8 13.3 0 7.35-5.95 13.25-13.8 13.25zm0-8c2.7 0 4.6-2.15 4.6-5.25 0-3.05-1.9-5.3-4.6-5.3-2.7 0-4.6 2.25-4.6 5.3 0 3.1 1.9 5.25 4.6 5.25zM57.16 86V60.45h8.6v2.8c1.9-2.15 4.85-3.3 7.7-3.3 4.1 0 6.3 1.65 7.5 3.95 2.2-3.2 5.6-3.95 8.15-3.95 8.25 0 8.95 6.65 8.95 11.8V86h-9.1V72.8c0-3.05-.85-4.45-2.85-4.45-2.7 0-3.95 2.45-3.95 5.6V86h-9.1V72.8c0-3.05-.85-4.45-2.85-4.45-2.7 0-3.95 2.45-3.95 5.6V86h-9.1zm44.629 7.35v-32.9h8.6v2.85c2.05-2.75 4.9-3.35 6.95-3.35 7.1 0 10.95 5.9 10.95 13.25 0 7.4-4.1 13.3-11.25 13.3-2.05 0-4.6-.7-6.15-2.65v9.5h-9.1zm13.1-14.85c2.4 0 4.1-2.15 4.1-5.25 0-3.05-1.7-5.3-4.1-5.3-2.4 0-4.1 2.25-4.1 5.3 0 3.1 1.7 5.25 4.1 5.25zm27.331 8c-7.1 0-10.95-5.9-10.95-13.25 0-7.4 3.85-13.3 10.95-13.3 2.05 0 5.45.7 6.95 3.35v-2.85h8.6V86h-8.6v-2.85c-1.4 2.6-4.9 3.35-6.95 3.35zm2.4-8c2.4 0 4.1-2.15 4.1-5.25 0-3.05-1.7-5.3-4.1-5.3-2.4 0-4.1 2.25-4.1 5.3 0 3.1 1.7 5.25 4.1 5.25zm17.13 7.5V60.45h8.85V65c.15-1.1 2.35-5.05 8.35-5.05v9.9c-6.6 0-8.1 2.75-8.1 7.55V86h-9.1zm31.391.5c-4.9 0-8.1-3.15-8.1-8.75v-10.1h-3.75v-7.2h3.75v-4.6l9.1-2.25v6.85h5.65v7.2h-5.65v9.4c0 1.2.6 1.6 1.4 1.6.75 0 1.65-.35 2.3-.8l2.45 6.65c-2.2 1.55-4.9 2-7.15 2zm19.977 0c-7.1 0-10.95-5.9-10.95-13.25 0-7.4 3.85-13.3 10.95-13.3 2.05 0 5.45.7 6.95 3.35v-2.85h8.6V86h-8.6v-2.85c-1.4 2.6-4.9 3.35-6.95 3.35zm2.4-8c2.4 0 4.1-2.15 4.1-5.25 0-3.05-1.7-5.3-4.1-5.3-2.4 0-4.1 2.25-4.1 5.3 0 3.1 1.7 5.25 4.1 5.25zm26.53 8c-5.85 0-9.1-1.75-10.6-3.05l2.9-6.4c2 1.35 3.85 2.15 7.75 2.15.1 0 2.5-.15 2.5-1.15 0-.8-1.5-.95-3-1.3-5.55-1.35-9.65-3.6-9.65-8.3 0-5.6 5.1-8.5 10.5-8.5 4.95 0 7.9 1.1 10.35 2.4l-2.7 6.1c-2.95-1.15-5.65-1.5-7.35-1.5-.9 0-1.6.3-1.6.8 0 .95 2.15 1.3 4.7 2 3.6 1.05 7.95 2.8 7.95 7.95 0 6.85-6.95 8.8-11.75 8.8zM9.668 139.43c-3.698 0-5.891-1.806-5.891-6.708v-11.954H.637v-2.709h3.14v-4.515l3.268-.602v5.117h7.138v2.709H7.045v12.04c0 2.881 1.247 3.698 2.924 3.698 1.935 0 3.44-1.161 3.44-1.161l1.075 2.537c-.817.559-2.537 1.548-4.816 1.548zm15.963 0c-5.16 0-7.611-2.709-7.611-8.299v-13.072h3.268v12.642c0 3.913 1.892 5.547 5.289 5.547 3.784 0 5.977-3.096 5.977-6.321v-11.868h3.268V139h-3.14v-3.698c-1.29 2.709-4.3 4.128-7.051 4.128zm25.067-.43v-20.941h3.268v3.569c1.462-2.537 4.17-3.999 7.267-3.999 5.246 0 7.568 3.182 7.568 8.686V139h-3.268v-12.255c0-3.87-1.42-5.934-5.203-5.934-3.741 0-6.364 2.924-6.364 6.407V139h-3.268zm29.37-24.295l3.483-5.719h3.569l-4.043 5.719h-3.01zm1.16 24.725c-5.16 0-7.61-2.709-7.61-8.299v-13.072h3.267v12.642c0 3.913 1.892 5.547 5.29 5.547 3.784 0 5.977-3.096 5.977-6.321v-11.868h3.267V139h-3.138v-3.698c-1.29 2.709-4.3 4.128-7.053 4.128zm15.703-.43v-20.941h3.268v3.612c1.161-2.279 3.784-4.042 6.708-4.042 3.354 0 5.719 1.462 6.708 4.429 1.505-3.053 4.773-4.429 7.224-4.429 5.031 0 7.697 2.924 7.697 8.686V139h-3.311v-12.255c0-3.569-1.247-5.934-5.074-5.934-3.526 0-5.762 2.838-5.762 5.977V139h-3.311v-12.255c0-3.569-1.247-5.934-5.031-5.934-3.655 0-5.848 3.096-5.848 6.149V139h-3.268zm46.806.43c-5.934 0-10.965-4.257-10.965-10.879 0-6.063 4.558-10.922 10.535-10.922 5.59 0 10.019 4.816 10.019 10.793 0 .602-.086 1.247-.086 1.29h-17.071c.516 4.171 3.741 6.794 7.611 6.794 2.365 0 4.73-.817 6.45-2.236l1.419 2.408a12.814 12.814 0 01-7.912 2.752zm-7.568-12.212h13.932c-.344-3.87-3.311-6.665-6.966-6.665-3.569 0-6.493 2.752-6.966 6.665zM157.988 139v-20.941h3.268v4.429c1.204-2.752 3.913-4.859 8.084-4.859v3.569c-4.902 0-8.084 2.752-8.084 7.869V139h-3.268zm24.845.43c-6.149 0-11.008-4.816-11.008-10.879 0-6.106 4.859-10.922 11.008-10.922 6.149 0 11.008 4.816 11.008 10.922 0 6.063-4.859 10.879-11.008 10.879zm0-3.182c4.343 0 7.654-3.311 7.654-7.697 0-4.429-3.311-7.74-7.654-7.74s-7.654 3.311-7.654 7.74c0 4.386 3.311 7.697 7.654 7.697zm34.03 3.182c-5.805 0-9.89-4.816-9.89-10.879 0-6.149 4.085-10.922 9.89-10.922 3.354 0 6.321 1.376 7.869 4.085v-11.008H228V139h-3.139v-3.655c-1.548 2.752-4.601 4.085-7.998 4.085zm.731-3.182c3.999 0 7.138-3.311 7.138-7.697s-3.139-7.74-7.138-7.74c-4.171 0-7.267 3.268-7.267 7.74 0 4.429 3.096 7.697 7.267 7.697zm26.001 3.182c-5.934 0-10.965-4.257-10.965-10.879 0-6.063 4.558-10.922 10.535-10.922 5.59 0 10.019 4.816 10.019 10.793 0 .602-.086 1.247-.086 1.29h-17.071c.516 4.171 3.741 6.794 7.611 6.794 2.365 0 4.73-.817 6.45-2.236l1.419 2.408a12.814 12.814 0 01-7.912 2.752zm-7.568-12.212h13.932c-.344-3.87-3.311-6.665-6.966-6.665-3.569 0-6.493 2.752-6.966 6.665zM36.244 192v-27.864h3.053l6.794 9.46c1.462 2.064 4.515 6.45 4.515 6.45s3.053-4.343 4.515-6.407l6.794-9.503h3.053V192h-3.44v-22.059s-.731 1.333-2.064 3.182l-8.858 12.47-8.901-12.556c-1.247-1.763-2.021-3.096-2.021-3.096V192h-3.44zm44.82.43c-5.934 0-10.965-4.257-10.965-10.879 0-6.063 4.558-10.922 10.535-10.922 5.59 0 10.019 4.816 10.019 10.793 0 .602-.086 1.247-.086 1.29H73.496c.516 4.171 3.741 6.794 7.611 6.794 2.365 0 4.73-.817 6.45-2.236l1.419 2.408a12.814 12.814 0 01-7.912 2.752zm-7.568-12.212h13.932c-.344-3.87-3.311-6.665-6.966-6.665-3.569 0-6.493 2.752-6.966 6.665zm30.849 12.212c-5.805 0-9.89-4.816-9.89-10.879 0-6.149 4.085-10.922 9.89-10.922 3.354 0 6.321 1.376 7.869 4.085v-11.008h3.268V192h-3.139v-3.655c-1.548 2.752-4.601 4.085-7.998 4.085zm.731-3.182c3.999 0 7.138-3.311 7.138-7.697s-3.139-7.74-7.138-7.74c-4.171 0-7.267 3.268-7.267 7.74 0 4.429 3.096 7.697 7.267 7.697zM120.972 192v-20.941h3.268V192h-3.268zm1.634-24.682a2.13 2.13 0 01-2.15-2.15c0-1.204.946-2.193 2.15-2.193s2.193.989 2.193 2.193c0 1.204-.989 2.15-2.193 2.15zm17.29 25.112c-6.149 0-11.008-4.773-11.008-10.879s4.859-10.922 11.008-10.922c2.881 0 5.504 1.032 7.482 2.795l-2.064 2.322c-1.29-1.204-3.182-1.935-5.375-1.935-4.386 0-7.697 3.268-7.697 7.74 0 4.343 3.182 7.697 7.783 7.697 2.365 0 4.515-.903 5.977-2.365l1.892 2.451c-2.021 1.935-4.859 3.096-7.998 3.096zm20.466 0c-5.805 0-9.89-4.816-9.89-10.879 0-6.149 4.085-10.922 9.89-10.922 3.354 0 6.321 1.376 7.869 4.085v-3.655h3.268V192h-3.268v-3.655c-1.548 2.752-4.515 4.085-7.869 4.085zm.731-3.182c3.999 0 7.138-3.311 7.138-7.697s-3.139-7.74-7.138-7.74c-4.171 0-7.267 3.268-7.267 7.74 0 4.429 3.096 7.697 7.267 7.697zM176.989 192v-20.941h3.268v4.429c1.204-2.752 3.913-4.859 8.084-4.859v3.569c-4.902 0-8.084 2.752-8.084 7.869V192h-3.268zm24.803.43c-5.934 0-10.965-4.257-10.965-10.879 0-6.063 4.558-10.922 10.535-10.922 5.59 0 10.019 4.816 10.019 10.793 0 .602-.086 1.247-.086 1.29h-17.071c.516 4.171 3.741 6.794 7.611 6.794 2.365 0 4.73-.817 6.45-2.236l1.419 2.408a12.814 12.814 0 01-7.912 2.752zm-7.568-12.212h13.932c-.344-3.87-3.311-6.665-6.966-6.665-3.569 0-6.493 2.752-6.966 6.665zm23.409 12.212c-1.29 0-2.236-1.032-2.236-2.279 0-1.247.989-2.279 2.236-2.279a2.294 2.294 0 012.279 2.279 2.294 2.294 0 01-2.279 2.279z" fill="#42443C"/></svg>