<svg width="300" height="22" viewBox="0 0 300 22" fill="none" xmlns="http://www.w3.org/2000/svg"><path fill="#FFC332" d="M0 0h300v22H0z"/><path d="M18.79 6.706v4.51c0 .242.006.491.021.748.022.25.077.477.165.682.095.205.242.374.44.506.198.125.477.187.836.187.36 0 .634-.062.825-.187.198-.132.345-.3.44-.506.095-.205.15-.433.165-.682.022-.257.033-.506.033-.748v-4.51h2.145v4.807c0 1.29-.297 2.233-.89 2.827-.588.594-1.493.891-2.718.891-1.225 0-2.134-.297-2.728-.891-.594-.594-.89-1.536-.89-2.827V6.706h2.155zM27.582 15V6.706h2.156l3.982 5.071V6.706h2.145V15H33.72l-3.982-5.071V15h-2.156zm17.347 0l1.408-8.294h2.134l1.66 4.422 1.65-4.422h2.135L55.325 15H53.18l-.715-4.774L50.507 15h-.858l-1.86-4.774L47.076 15H44.93zm18.46-6.468h-2.564v1.386h2.42v1.826h-2.42v1.43h2.563V15H58.67V6.706h4.72v1.826zM66.923 15V6.706h2.156l3.982 5.071V6.706h2.145V15h-2.145L69.08 9.929V15h-2.156zM83.48 8.829c-.234-.19-.47-.33-.704-.418a1.807 1.807 0 00-.682-.143c-.278 0-.506.066-.682.198a.617.617 0 00-.264.517c0 .147.044.268.132.363.088.095.202.18.341.253.147.066.308.125.484.176.183.051.363.106.54.165.703.235 1.217.55 1.54.946.33.389.494.898.494 1.529 0 .425-.073.81-.22 1.155-.14.345-.348.642-.627.891a2.811 2.811 0 01-1.012.561c-.396.14-.847.209-1.353.209-1.049 0-2.02-.312-2.915-.935l.924-1.738c.323.286.642.499.957.638a2.3 2.3 0 00.935.209c.352 0 .613-.08.781-.242.176-.161.264-.345.264-.55a.648.648 0 00-.286-.572 1.607 1.607 0 00-.407-.22c-.161-.066-.36-.14-.594-.22a15.582 15.582 0 01-.825-.286 2.808 2.808 0 01-.715-.429 2.084 2.084 0 01-.506-.66c-.124-.271-.187-.612-.187-1.023 0-.41.066-.781.198-1.111.14-.337.33-.623.572-.858.25-.242.55-.429.902-.561.36-.132.76-.198 1.2-.198.41 0 .839.059 1.286.176.448.11.876.275 1.287.495l-.858 1.683zm8.897 3.091l-.968-2.761-.968 2.761h1.936zm.572 1.639h-3.08L89.374 15h-2.299l3.157-8.294h2.354L95.743 15h-2.299l-.495-1.441zm9.798-6.853v5.753c0 .242-.014.466-.044.671a1.99 1.99 0 01-.121.528 2.476 2.476 0 01-.968 1.144c-.22.132-.465.235-.737.308-.264.08-.542.121-.836.121-.887 0-1.61-.407-2.166-1.221l1.407-1.441c.037.25.118.447.243.594.124.147.278.22.462.22.403 0 .604-.319.604-.957v-5.72h2.156zm8.451 1.826h-2.563v1.386h2.42v1.826h-2.42v1.43h2.563V15h-4.719V6.706h4.719v1.826zm11.134 2.321c0 .33.063.634.187.913a2.324 2.324 0 001.243 1.21c.286.11.587.165.902.165a2.4 2.4 0 00.891-.165 2.34 2.34 0 00.748-.484 2.215 2.215 0 00.704-1.639 2.205 2.205 0 00-.704-1.639 2.196 2.196 0 00-.748-.473 2.268 2.268 0 00-.891-.176c-.315 0-.616.059-.902.176-.278.11-.524.268-.737.473a2.325 2.325 0 00-.506.726 2.22 2.22 0 00-.187.913zm-2.255 0c0-.616.114-1.188.341-1.716a4.296 4.296 0 01.946-1.397 4.275 4.275 0 011.441-.924 4.937 4.937 0 011.859-.341c.668 0 1.284.114 1.848.341.565.22 1.049.528 1.452.924a4.281 4.281 0 011.298 3.113 4.36 4.36 0 01-.341 1.727c-.227.528-.546.99-.957 1.386a4.373 4.373 0 01-1.452.935c-.564.22-1.18.33-1.848.33-.674 0-1.294-.11-1.859-.33a4.416 4.416 0 01-1.441-.935 4.328 4.328 0 01-.946-1.386 4.378 4.378 0 01-.341-1.727zm17.279-2.321h-2.596v1.386h2.365v1.826h-2.365V15h-2.156V6.706h4.752v1.826zm5.421-1.826V15h-2.156V6.706h2.156zm9.686 2.772c-.499-.609-1.115-.913-1.848-.913a2.3 2.3 0 00-.902.176 2.158 2.158 0 00-.704.484 2.206 2.206 0 00-.473.715c-.11.279-.165.58-.165.902 0 .33.055.634.165.913.117.279.275.52.473.726.205.205.444.367.715.484.271.117.565.176.88.176.689 0 1.309-.293 1.859-.88v2.552l-.22.077c-.33.117-.638.202-.924.253a4.202 4.202 0 01-.847.088 4.375 4.375 0 01-1.65-.319 4.5 4.5 0 01-1.386-.913 4.683 4.683 0 01-.957-1.397 4.299 4.299 0 01-.363-1.771c0-.638.117-1.221.352-1.749.242-.535.561-.994.957-1.375.403-.389.869-.69 1.397-.902a4.277 4.277 0 011.661-.33c.33 0 .653.037.968.11.323.066.66.172 1.012.319v2.574zm5.5-2.772V15h-2.156V6.706h2.156zm8.222 5.214l-.968-2.761-.968 2.761h1.936zm.572 1.639h-3.08L163.182 15h-2.299l3.157-8.294h2.354L169.551 15h-2.299l-.495-1.441zm7.874-6.853v6.468h2.585V15h-4.741V6.706h2.156zm13.553 6.468h.495a2.68 2.68 0 001.001-.176 2.084 2.084 0 001.199-1.21c.11-.286.165-.598.165-.935 0-.33-.055-.638-.165-.924a2.092 2.092 0 00-.473-.737 2.084 2.084 0 00-.737-.484 2.65 2.65 0 00-.99-.176h-.495v4.642zm-2.156-6.468h3.19a3.73 3.73 0 011.584.341c.498.227.931.532 1.298.913.374.374.667.814.88 1.32a4.033 4.033 0 010 3.146 4.102 4.102 0 01-.869 1.32c-.367.381-.8.686-1.298.913a3.754 3.754 0 01-1.595.341h-3.19V6.706zm15.346 1.826h-2.563v1.386h2.42v1.826h-2.42v1.43h2.563V15h-4.719V6.706h4.719v1.826zM210.253 15l1.408-8.294h2.134l1.661 4.422 1.65-4.422h2.134L220.648 15h-2.145l-.715-4.774L215.83 15h-.858l-1.859-4.774-.715 4.774h-2.145zm18.459-6.468h-2.563v1.386h2.42v1.826h-2.42v1.43h2.563V15h-4.719V6.706h4.719v1.826zm5.691 4.642h.495c.374 0 .708-.059 1.001-.176a2.084 2.084 0 001.199-1.21c.11-.286.165-.598.165-.935 0-.33-.055-.638-.165-.924a2.092 2.092 0 00-.473-.737 2.084 2.084 0 00-.737-.484 2.644 2.644 0 00-.99-.176h-.495v4.642zm-2.156-6.468h3.19c.565 0 1.093.114 1.584.341.499.227.931.532 1.298.913.374.374.667.814.88 1.32.213.499.319 1.023.319 1.573 0 .543-.106 1.067-.319 1.573a4.086 4.086 0 01-.869 1.32 4.195 4.195 0 01-1.298.913 3.751 3.751 0 01-1.595.341h-3.19V6.706zm12.783 0V15h-2.156V6.706h2.156zm9.686 2.772c-.499-.609-1.115-.913-1.848-.913a2.3 2.3 0 00-.902.176 2.158 2.158 0 00-.704.484 2.206 2.206 0 00-.473.715c-.11.279-.165.58-.165.902 0 .33.055.634.165.913.117.279.275.52.473.726.205.205.444.367.715.484.271.117.565.176.88.176.689 0 1.309-.293 1.859-.88v2.552l-.22.077c-.33.117-.638.202-.924.253a4.202 4.202 0 01-.847.088 4.375 4.375 0 01-1.65-.319 4.5 4.5 0 01-1.386-.913 4.683 4.683 0 01-.957-1.397 4.299 4.299 0 01-.363-1.771c0-.638.117-1.221.352-1.749.242-.535.561-.994.957-1.375.403-.389.869-.69 1.397-.902a4.277 4.277 0 011.661-.33c.33 0 .653.037.968.11.323.066.66.172 1.012.319v2.574zm8.047 2.442l-.968-2.761-.968 2.761h1.936zm.572 1.639h-3.08L259.76 15h-2.299l3.157-8.294h2.354L266.129 15h-2.299l-.495-1.441zm7.874-3.146h.407c.425 0 .751-.088.979-.264.227-.176.341-.429.341-.759s-.114-.583-.341-.759c-.228-.176-.554-.264-.979-.264h-.407v2.046zM275.95 15h-2.684l-2.057-3.19V15h-2.156V6.706h3.355c.462 0 .865.07 1.21.209.344.132.627.315.847.55.227.235.396.506.506.814.117.308.176.638.176.99 0 .63-.154 1.144-.462 1.54-.301.389-.748.653-1.342.792L275.95 15zm7.6-6.468h-2.563v1.386h2.42v1.826h-2.42v1.43h2.563V15h-4.719V6.706h4.719v1.826z" fill="#1F211C"/></svg>