<svg width="223" height="13" viewBox="0 0 223 13" fill="none" xmlns="http://www.w3.org/2000/svg"><path d="M.516 10V7.816h2.22V10H.516zm3.39 0V7.816h2.22V10h-2.22zm3.39 0V7.816h2.22V10h-2.22zm7.121 2.592V5.56a14.513 14.513 0 00-.096-1.656h2.064l.132 1.08h-.12c.112-.36.36-.652.744-.876a2.501 2.501 0 011.284-.336c.528 0 .992.128 1.392.384.4.248.712.612.936 1.092.232.472.348 1.04.348 1.704 0 .656-.116 1.224-.348 1.704-.224.48-.536.848-.936 1.104-.4.248-.864.372-1.392.372-.464 0-.884-.104-1.26-.312-.376-.216-.624-.5-.744-.852h.132v3.624h-2.136zm3.324-4.044c.368 0 .66-.124.876-.372.224-.256.336-.664.336-1.224 0-.56-.112-.964-.336-1.212-.216-.256-.508-.384-.876-.384-.36 0-.652.128-.876.384-.224.248-.336.652-.336 1.212 0 .56.112.968.336 1.224.224.248.516.372.876.372zM22.26 10V3.904h2.136V10H22.26zm-.048-6.96V1.12h2.244v1.92h-2.244zm6.049 7.092c-.52 0-.984-.124-1.392-.372-.408-.256-.728-.624-.96-1.104-.232-.48-.348-1.048-.348-1.704 0-.664.112-1.232.336-1.704.232-.48.552-.844.96-1.092a2.625 2.625 0 011.404-.384c.464 0 .884.108 1.26.324.376.208.628.488.756.84h-.18V1.168h2.136V10h-2.1V8.908h.156c-.112.368-.36.664-.744.888a2.46 2.46 0 01-1.284.336zm.684-1.584c.352 0 .64-.124.864-.372.232-.256.348-.664.348-1.224 0-.56-.116-.964-.348-1.212a1.096 1.096 0 00-.864-.384c-.36 0-.656.128-.888.384-.224.248-.336.652-.336 1.212 0 .56.112.968.336 1.224.232.248.528.372.888.372zM33.68 10V3.904h2.136V10H33.68zm-.048-6.96V1.12h2.244v1.92h-2.244zm6.84 7.092c-1.103 0-1.963-.284-2.58-.852-.607-.568-.911-1.348-.911-2.34 0-.616.128-1.164.384-1.644s.616-.852 1.08-1.116c.464-.272 1.008-.408 1.632-.408.616 0 1.128.136 1.536.408.416.264.728.632.936 1.104.208.464.312 1.004.312 1.62v.456h-4.092V6.352h2.52l-.204.168c0-.456-.088-.792-.264-1.008-.168-.224-.408-.336-.72-.336-.36 0-.636.136-.828.408-.184.264-.276.664-.276 1.2V7c0 .536.132.928.396 1.176.264.248.644.372 1.14.372.32 0 .62-.036.9-.108.288-.072.56-.188.816-.348l.552 1.392a3.549 3.549 0 01-1.056.48c-.4.112-.824.168-1.272.168zm-1.08-6.816l1.213-2.46h2.004l-1.848 2.46h-1.368zM43.999 10V5.56a14.513 14.513 0 00-.096-1.656h2.064l.12 1.056h-.132c.2-.384.484-.676.852-.876a2.492 2.492 0 011.248-.312c.712 0 1.244.212 1.596.636.36.416.54 1.068.54 1.956V10h-2.136V6.46c0-.392-.068-.664-.204-.816-.136-.16-.332-.24-.588-.24-.336 0-.608.112-.816.336-.208.216-.312.504-.312.864V10h-2.136zm10.02.132c-.52 0-.984-.124-1.392-.372-.408-.256-.728-.624-.96-1.104-.232-.48-.348-1.048-.348-1.704 0-.664.112-1.232.336-1.704.232-.48.552-.844.96-1.092a2.625 2.625 0 011.404-.384c.464 0 .884.108 1.26.324.376.208.628.488.756.84h-.18V1.168h2.136V10h-2.1V8.908h.156c-.112.368-.36.664-.744.888a2.46 2.46 0 01-1.284.336zm.684-1.584c.352 0 .64-.124.864-.372.232-.256.348-.664.348-1.224 0-.56-.116-.964-.348-1.212a1.096 1.096 0 00-.864-.384c-.36 0-.656.128-.888.384-.224.248-.336.652-.336 1.212 0 .56.112.968.336 1.224.232.248.528.372.888.372zm7.783 1.584c-.68 0-1.268-.128-1.764-.384a2.76 2.76 0 01-1.152-1.092c-.272-.48-.408-1.048-.408-1.704 0-.664.136-1.232.408-1.704a2.76 2.76 0 011.152-1.092c.496-.256 1.084-.384 1.764-.384.672 0 1.256.128 1.752.384s.88.624 1.152 1.104c.272.472.408 1.036.408 1.692 0 .648-.136 1.212-.408 1.692-.272.48-.656.848-1.152 1.104-.496.256-1.08.384-1.752.384zm0-1.584c.352 0 .632-.124.84-.372.208-.256.312-.664.312-1.224 0-.56-.104-.964-.312-1.212-.208-.256-.488-.384-.84-.384-.36 0-.644.128-.852.384-.208.248-.312.652-.312 1.212 0 .56.104.968.312 1.224.208.248.492.372.852.372zm7.54 1.584c-.864 0-1.516-.204-1.956-.612-.432-.416-.648-1.044-.648-1.884v-2.16h-1.14V3.904h1.14v-1.44l2.136-.504v1.944h1.488v1.572h-1.488v2.076c0 .352.08.588.24.708.16.112.352.168.576.168.136 0 .252-.008.348-.024.104-.024.212-.056.324-.096v1.644c-.176.072-.352.12-.528.144a3.477 3.477 0 01-.492.036zm5.126 0c-1.104 0-1.964-.284-2.58-.852-.608-.568-.912-1.348-.912-2.34 0-.616.128-1.164.384-1.644s.616-.852 1.08-1.116c.464-.272 1.008-.408 1.632-.408.616 0 1.128.136 1.536.408.416.264.728.632.936 1.104.208.464.312 1.004.312 1.62v.456h-4.092V6.352h2.52l-.204.168c0-.456-.088-.792-.264-1.008-.168-.224-.408-.336-.72-.336-.36 0-.636.136-.828.408-.184.264-.276.664-.276 1.2V7c0 .536.132.928.396 1.176.264.248.644.372 1.14.372.32 0 .62-.036.9-.108.288-.072.56-.188.816-.348l.552 1.392a3.549 3.549 0 01-1.056.48c-.4.112-.824.168-1.272.168zm10.234 0c-.864 0-1.516-.204-1.956-.612-.432-.416-.648-1.044-.648-1.884v-2.16h-1.14V3.904h1.14v-1.44l2.136-.504v1.944h1.488v1.572h-1.488v2.076c0 .352.08.588.24.708.16.112.352.168.576.168.136 0 .252-.008.348-.024.104-.024.212-.056.324-.096v1.644c-.176.072-.352.12-.528.144a3.477 3.477 0 01-.492.036zm4.212 0c-.776 0-1.352-.212-1.728-.636-.368-.432-.552-1.084-.552-1.956V3.904h2.136v3.648c0 .32.064.56.192.72.136.152.34.228.612.228a.95.95 0 00.744-.324c.2-.224.3-.516.3-.876V3.904h2.136V10h-2.076V8.908h.18a2.244 2.244 0 01-.78.912c-.328.208-.716.312-1.164.312zM98.48 10V5.56a14.513 14.513 0 00-.096-1.656h2.064l.12 1.056h-.132c.2-.384.484-.676.852-.876a2.492 2.492 0 011.248-.312c.712 0 1.244.212 1.596.636.36.416.54 1.068.54 1.956V10h-2.136V6.46c0-.392-.068-.664-.204-.816-.136-.16-.332-.24-.588-.24-.336 0-.608.112-.816.336-.208.216-.312.504-.312.864V10H98.48zm9.841.132c-.776 0-1.352-.212-1.728-.636-.368-.432-.552-1.084-.552-1.956V3.904h2.136v3.648c0 .32.064.56.192.72.136.152.34.228.612.228a.95.95 0 00.744-.324c.2-.224.3-.516.3-.876V3.904h2.136V10h-2.076V8.908h.18a2.244 2.244 0 01-.78.912c-.328.208-.716.312-1.164.312zm.108-6.816l1.212-2.46h2.004l-1.848 2.46h-1.368zM113.615 10V5.56a14.513 14.513 0 00-.096-1.656h2.064l.12 1.056h-.132a1.99 1.99 0 01.78-.864c.344-.216.748-.324 1.212-.324.448 0 .828.108 1.14.324.32.208.552.54.696.996h-.204c.2-.416.488-.74.864-.972a2.435 2.435 0 011.284-.348c.696 0 1.216.212 1.56.636.344.416.516 1.068.516 1.956V10h-2.148V6.436c0-.376-.056-.64-.168-.792-.112-.16-.292-.24-.54-.24-.312 0-.556.112-.732.336-.168.224-.252.532-.252.924V10h-2.136V6.436c0-.376-.06-.64-.18-.792-.112-.16-.288-.24-.528-.24-.312 0-.556.112-.732.336-.168.224-.252.532-.252.924V10h-2.136zm14.422.132c-1.104 0-1.964-.284-2.58-.852-.608-.568-.912-1.348-.912-2.34 0-.616.128-1.164.384-1.644s.616-.852 1.08-1.116c.464-.272 1.008-.408 1.632-.408.616 0 1.128.136 1.536.408.416.264.728.632.936 1.104.208.464.312 1.004.312 1.62v.456h-4.092V6.352h2.52l-.204.168c0-.456-.088-.792-.264-1.008-.168-.224-.408-.336-.72-.336-.36 0-.636.136-.828.408-.184.264-.276.664-.276 1.2V7c0 .536.132.928.396 1.176.264.248.644.372 1.14.372.32 0 .62-.036.9-.108.288-.072.56-.188.816-.348l.552 1.392a3.549 3.549 0 01-1.056.48c-.4.112-.824.168-1.272.168zm3.525-.132V5.572a14.721 14.721 0 00-.096-1.668h2.064l.228 1.872h-.324c.08-.456.208-.832.384-1.128a1.74 1.74 0 01.66-.66c.264-.144.576-.216.936-.216.168 0 .292.008.372.024a.94.94 0 01.276.072V5.74c-.2-.088-.36-.144-.48-.168a2.468 2.468 0 00-.468-.036c-.328 0-.596.06-.804.18a.994.994 0 00-.456.528c-.088.24-.132.548-.132.924V10h-2.16zm8.207.132c-.68 0-1.268-.128-1.764-.384a2.76 2.76 0 01-1.152-1.092c-.272-.48-.408-1.048-.408-1.704 0-.664.136-1.232.408-1.704a2.76 2.76 0 011.152-1.092c.496-.256 1.084-.384 1.764-.384.672 0 1.256.128 1.752.384s.88.624 1.152 1.104c.272.472.408 1.036.408 1.692 0 .648-.136 1.212-.408 1.692-.272.48-.656.848-1.152 1.104-.496.256-1.08.384-1.752.384zm0-1.584c.352 0 .632-.124.84-.372.208-.256.312-.664.312-1.224 0-.56-.104-.964-.312-1.212-.208-.256-.488-.384-.84-.384-.36 0-.644.128-.852.384-.208.248-.312.652-.312 1.212 0 .56.104.968.312 1.224.208.248.492.372.852.372zm10.491 1.584c-.52 0-.984-.124-1.392-.372-.408-.256-.728-.624-.96-1.104-.232-.48-.348-1.048-.348-1.704 0-.664.112-1.232.336-1.704.232-.48.552-.844.96-1.092a2.625 2.625 0 011.404-.384c.464 0 .884.108 1.26.324.376.208.628.488.756.84h-.18V1.168h2.136V10h-2.1V8.908h.156c-.112.368-.36.664-.744.888a2.46 2.46 0 01-1.284.336zm.684-1.584c.352 0 .64-.124.864-.372.232-.256.348-.664.348-1.224 0-.56-.116-.964-.348-1.212a1.096 1.096 0 00-.864-.384c-.36 0-.656.128-.888.384-.224.248-.336.652-.336 1.212 0 .56.112.968.336 1.224.232.248.528.372.888.372zm7.95 1.584c-1.104 0-1.964-.284-2.58-.852-.608-.568-.912-1.348-.912-2.34 0-.616.128-1.164.384-1.644s.616-.852 1.08-1.116c.464-.272 1.008-.408 1.632-.408.616 0 1.128.136 1.536.408.416.264.728.632.936 1.104.208.464.312 1.004.312 1.62v.456h-4.092V6.352h2.52l-.204.168c0-.456-.088-.792-.264-1.008-.168-.224-.408-.336-.72-.336-.36 0-.636.136-.828.408-.184.264-.276.664-.276 1.2V7c0 .536.132.928.396 1.176.264.248.644.372 1.14.372.32 0 .62-.036.9-.108.288-.072.56-.188.816-.348l.552 1.392a3.549 3.549 0 01-1.056.48c-.4.112-.824.168-1.272.168zm7.27-.132V1.54h1.92l2.772 6.204h-.396l2.76-6.204h1.932V10h-2.004V4.816h.516l-2.4 5.184h-1.248l-2.412-5.184h.552V10h-1.992zm13.786.132c-1.104 0-1.964-.284-2.58-.852-.608-.568-.912-1.348-.912-2.34 0-.616.128-1.164.384-1.644s.616-.852 1.08-1.116c.464-.272 1.008-.408 1.632-.408.616 0 1.128.136 1.536.408.416.264.728.632.936 1.104.208.464.312 1.004.312 1.62v.456h-4.092V6.352h2.52l-.204.168c0-.456-.088-.792-.264-1.008-.168-.224-.408-.336-.72-.336-.36 0-.636.136-.828.408-.184.264-.276.664-.276 1.2V7c0 .536.132.928.396 1.176.264.248.644.372 1.14.372.32 0 .62-.036.9-.108.288-.072.56-.188.816-.348l.552 1.392a3.549 3.549 0 01-1.056.48c-.4.112-.824.168-1.272.168zm5.949 0c-.52 0-.984-.124-1.392-.372-.408-.256-.728-.624-.96-1.104-.232-.48-.348-1.048-.348-1.704 0-.664.112-1.232.336-1.704.232-.48.552-.844.96-1.092a2.625 2.625 0 011.404-.384c.464 0 .884.108 1.26.324.376.208.628.488.756.84h-.18V1.168h2.136V10h-2.1V8.908h.156c-.112.368-.36.664-.744.888a2.46 2.46 0 01-1.284.336zm.684-1.584c.352 0 .64-.124.864-.372.232-.256.348-.664.348-1.224 0-.56-.116-.964-.348-1.212a1.096 1.096 0 00-.864-.384c-.36 0-.656.128-.888.384-.224.248-.336.652-.336 1.212 0 .56.112.968.336 1.224.232.248.528.372.888.372zM191.318 10V3.904h2.136V10h-2.136zm-.048-6.96V1.12h2.244v1.92h-2.244zm6.709 7.092c-.672 0-1.26-.128-1.764-.384a2.821 2.821 0 01-1.176-1.092c-.28-.48-.42-1.052-.42-1.716 0-.664.14-1.232.42-1.704.28-.472.672-.832 1.176-1.08.504-.256 1.092-.384 1.764-.384.416 0 .824.056 1.224.168.4.112.724.272.972.48l-.6 1.452a1.96 1.96 0 00-.66-.36 2.048 2.048 0 00-.708-.132c-.44 0-.784.132-1.032.396-.24.264-.36.652-.36 1.164 0 .512.12.904.36 1.176.248.264.592.396 1.032.396.224 0 .46-.04.708-.12.248-.088.468-.208.66-.36l.6 1.452c-.256.2-.584.36-.984.48a4.39 4.39 0 01-1.212.168zm5.588 0c-.528 0-.992-.124-1.392-.372-.4-.256-.716-.624-.948-1.104-.224-.48-.336-1.048-.336-1.704 0-.664.112-1.232.336-1.704.232-.48.548-.844.948-1.092.4-.256.864-.384 1.392-.384.472 0 .896.112 1.272.336.384.224.636.516.756.876h-.12l.132-1.08h2.052l-.072.828c-.016.28-.024.556-.024.828V10h-2.112l-.024-1.032h.144c-.12.352-.372.636-.756.852a2.535 2.535 0 01-1.248.312zm.684-1.584c.36 0 .652-.124.876-.372.224-.256.336-.664.336-1.224 0-.56-.112-.964-.336-1.212a1.109 1.109 0 00-.876-.384c-.36 0-.652.128-.876.384-.224.248-.336.652-.336 1.212 0 .56.108.968.324 1.224.224.248.52.372.888.372zM209.01 10V5.572a14.721 14.721 0 00-.096-1.668h2.064l.228 1.872h-.324c.08-.456.208-.832.384-1.128a1.74 1.74 0 01.66-.66c.264-.144.576-.216.936-.216.168 0 .292.008.372.024a.94.94 0 01.276.072V5.74c-.2-.088-.36-.144-.48-.168a2.468 2.468 0 00-.468-.036c-.328 0-.596.06-.804.18a.994.994 0 00-.456.528c-.088.24-.132.548-.132.924V10h-2.16zm8.375.132c-1.104 0-1.964-.284-2.58-.852-.608-.568-.912-1.348-.912-2.34 0-.616.128-1.164.384-1.644s.616-.852 1.08-1.116c.464-.272 1.008-.408 1.632-.408.616 0 1.128.136 1.536.408.416.264.728.632.936 1.104.208.464.312 1.004.312 1.62v.456h-4.092V6.352h2.52l-.204.168c0-.456-.088-.792-.264-1.008-.168-.224-.408-.336-.72-.336-.36 0-.636.136-.828.408-.184.264-.276.664-.276 1.2V7c0 .536.132.928.396 1.176.264.248.644.372 1.14.372.32 0 .62-.036.9-.108.288-.072.56-.188.816-.348l.552 1.392a3.549 3.549 0 01-1.056.48c-.4.112-.824.168-1.272.168zm3.381-.132V7.816h2.22V10h-2.22z" fill="#fff"/></svg>