<svg width="300" height="13" viewBox="0 0 300 13" fill="none" xmlns="http://www.w3.org/2000/svg"><path fill="#EF6129" d="M0 0h300v13H0z"/><path d="M22.34 9.599c-.948 0-1.66-.234-2.134-.702-.473-.468-.71-1.167-.71-2.097V3.155h1.655v3.654c0 .462.096.813.288 1.053.192.234.492.351.9.351.409 0 .709-.117.9-.351.192-.24.288-.591.288-1.053V3.155h1.639V6.8c0 .93-.235 1.629-.703 2.097-.468.468-1.175.702-2.123.702zM28.98 9.5V3.155h1.224l3.213 3.987h-.26V3.155h1.538V9.5h-1.224l-3.195-3.987h.261V9.5h-1.557zm14.91 0V3.155h1.44l2.08 4.653h-.297l2.07-4.653h1.449V9.5H49.13V5.612h.387l-1.8 3.888h-.936l-1.81-3.888h.415V9.5h-1.494zm10.628 0V3.155h4.554v1.269h-2.961v1.215h2.745v1.278h-2.745v1.305h2.96V9.5H54.52zm8.123 0V3.155h1.224l3.213 3.987h-.261V3.155h1.539V9.5h-1.224l-3.195-3.987h.26V9.5h-1.556zm11.967.099c-.51 0-.996-.06-1.459-.18A3.925 3.925 0 0172 8.915l.468-1.287c.198.126.413.234.648.324.234.09.477.162.729.216.258.048.519.072.782.072.396 0 .67-.051.82-.153.156-.102.234-.234.234-.396a.394.394 0 00-.154-.333c-.102-.084-.293-.156-.575-.216l-1.098-.225c-.582-.12-1.017-.327-1.305-.621-.288-.3-.433-.69-.433-1.17 0-.42.112-.783.334-1.089.228-.312.546-.552.954-.72.407-.174.884-.261 1.43-.261.45 0 .874.063 1.27.189.396.12.72.288.972.504l-.469 1.206a2.68 2.68 0 00-.81-.396 3.266 3.266 0 00-.999-.144c-.347 0-.611.054-.791.162a.484.484 0 00-.261.441c0 .132.05.246.152.342.108.09.303.165.585.225l1.08.216c.582.114 1.017.318 1.306.612.294.294.44.678.44 1.152 0 .408-.114.765-.342 1.071-.221.306-.533.543-.935.711-.403.168-.877.252-1.422.252zm5.5-.099l2.97-6.345h1.35L87.415 9.5h-1.665l-.765-1.746.64.459h-3.727l.63-.459-.756 1.746h-1.665zm3.635-4.635l-1.053 2.511-.252-.423h2.637l-.225.423-1.062-2.511h-.045zm7.273 6.318c-.108 0-.243-.006-.405-.018a3.393 3.393 0 01-.486-.072V9.824c.114.024.228.039.342.045.114.012.204.018.27.018.27 0 .456-.075.558-.225.108-.15.162-.393.162-.729V3.155h1.665v5.778c0 .504-.072.924-.216 1.26a1.43 1.43 0 01-.666.747c-.306.162-.714.243-1.224.243zm5.98-1.683V3.155h4.553v1.269h-2.96v1.215h2.744v1.278h-2.745v1.305h2.961V9.5h-4.554zm13.253-3.177c0-.66.129-1.233.387-1.719a2.747 2.747 0 011.107-1.143c.48-.27 1.047-.405 1.701-.405.66 0 1.23.135 1.71.405s.849.651 1.107 1.143c.264.486.396 1.059.396 1.719 0 .654-.132 1.227-.396 1.719a2.805 2.805 0 01-1.107 1.152c-.48.27-1.05.405-1.71.405-.654 0-1.221-.135-1.701-.405a2.882 2.882 0 01-1.107-1.152c-.258-.492-.387-1.065-.387-1.719zm1.737 0c0 .594.12 1.059.36 1.395.24.33.606.495 1.098.495.492 0 .861-.165 1.107-.495.246-.336.369-.801.369-1.395s-.123-1.056-.369-1.386c-.246-.33-.615-.495-1.107-.495s-.858.165-1.098.495c-.24.324-.36.786-.36 1.386zm8.367 3.177V3.155h4.455v1.269h-2.79v1.287h2.583V6.98h-2.583V9.5h-1.665zm7.947 0V3.155h1.665V9.5h-1.665zm8.725.099c-.69 0-1.287-.135-1.791-.405a2.877 2.877 0 01-1.161-1.143c-.27-.492-.405-1.068-.405-1.728 0-.66.135-1.233.405-1.719a2.877 2.877 0 011.161-1.143c.504-.27 1.101-.405 1.791-.405.438 0 .837.06 1.197.18.36.114.663.279.909.495l-.495 1.305a2.945 2.945 0 00-.765-.414 2.256 2.256 0 00-.783-.126c-.54 0-.957.159-1.251.477-.288.312-.432.762-.432 1.35 0 .594.144 1.05.432 1.368.294.312.711.468 1.251.468.294 0 .555-.039.783-.117.234-.084.489-.225.765-.423l.495 1.305a2.609 2.609 0 01-.909.504c-.36.114-.759.171-1.197.171zm5.675-.099V3.155h1.665V9.5h-1.665zm4.756 0l2.97-6.345h1.35l2.988 6.345H153.1l-.765-1.746.639.459h-3.726l.63-.459-.756 1.746h-1.665zm3.636-4.635l-1.053 2.511-.252-.423h2.637l-.225.423-1.062-2.511h-.045zm6.764 4.635V3.155h1.665v4.968h2.718V9.5h-4.383zm13.205 0V3.155h2.556c.75 0 1.383.129 1.899.387a2.61 2.61 0 011.17 1.089c.27.468.405 1.032.405 1.692 0 .654-.135 1.218-.405 1.692-.264.474-.654.84-1.17 1.098-.516.258-1.149.387-1.899.387h-2.556zm1.665-1.35h.783c.654 0 1.137-.15 1.449-.45.318-.3.477-.759.477-1.377 0-.624-.159-1.083-.477-1.377-.312-.3-.795-.45-1.449-.45h-.783V8.15zm8.066 1.35V3.155h4.554v1.269h-2.961v1.215h2.745v1.278h-2.745v1.305h2.961V9.5h-4.554zm13.451 0V3.155h1.44l2.079 4.653h-.297l2.07-4.653h1.449V9.5h-1.503V5.612h.387l-1.8 3.888h-.936l-1.809-3.888h.414V9.5h-1.494zm10.628 0V3.155h4.554v1.269h-2.961v1.215h2.745v1.278h-2.745v1.305h2.961V9.5h-4.554zm8.122 0V3.155h2.556c.75 0 1.383.129 1.899.387a2.61 2.61 0 011.17 1.089c.27.468.405 1.032.405 1.692 0 .654-.135 1.218-.405 1.692-.264.474-.654.84-1.17 1.098-.516.258-1.149.387-1.899.387h-2.556zm1.665-1.35h.783c.654 0 1.137-.15 1.449-.45.318-.3.477-.759.477-1.377 0-.624-.159-1.083-.477-1.377-.312-.3-.795-.45-1.449-.45h-.783V8.15zm8.067 1.35V3.155h1.665V9.5h-1.665zm8.724.099c-.69 0-1.287-.135-1.791-.405a2.877 2.877 0 01-1.161-1.143c-.27-.492-.405-1.068-.405-1.728 0-.66.135-1.233.405-1.719a2.877 2.877 0 011.161-1.143c.504-.27 1.101-.405 1.791-.405.438 0 .837.06 1.197.18.36.114.663.279.909.495l-.495 1.305a2.945 2.945 0 00-.765-.414 2.256 2.256 0 00-.783-.126c-.54 0-.957.159-1.251.477-.288.312-.432.762-.432 1.35 0 .594.144 1.05.432 1.368.294.312.711.468 1.251.468.294 0 .555-.039.783-.117.234-.084.489-.225.765-.423l.495 1.305a2.609 2.609 0 01-.909.504c-.36.114-.759.171-1.197.171zm4.787-.099l2.97-6.345h1.35l2.988 6.345h-1.665l-.765-1.746.639.459h-3.726l.63-.459-.756 1.746h-1.665zm3.636-4.635l-1.053 2.511-.252-.423h2.637l-.225.423-1.062-2.511h-.045zm6.764 4.635V3.155h2.997c.732 0 1.296.174 1.692.522.402.348.603.831.603 1.449 0 .414-.09.768-.27 1.062-.18.288-.441.513-.783.675-.342.156-.75.234-1.224.234l.081-.225h.45c.264 0 .498.072.702.216.204.144.372.345.504.603l.963 1.809h-1.818l-1.035-2.025a.524.524 0 00-.297-.27 1.208 1.208 0 00-.432-.072h-.468V9.5h-1.665zm1.665-3.546h1.044c.324 0 .57-.063.738-.189.168-.132.252-.327.252-.585 0-.252-.084-.441-.252-.567-.168-.126-.414-.189-.738-.189h-1.044v1.53zm7.451 3.546V3.155h4.554v1.269h-2.961v1.215h2.745v1.278h-2.745v1.305h2.961V9.5h-4.554z" fill="#fff"/></svg>