<svg width="248" height="22" viewBox="0 0 248 22" fill="none" xmlns="http://www.w3.org/2000/svg"><path d="M12.48 12.214H2.887c.14.828.508 1.487 1.11 1.974.6.49 1.369.733 2.302.733 1.116 0 2.076-.382 2.878-1.144l2.516 1.155c-.627.871-1.378 1.514-2.254 1.932-.876.418-1.914.626-3.116.626-1.867 0-3.387-.576-4.56-1.729C.587 14.608 0 13.166 0 11.431c0-1.734.586-3.253 1.756-4.427 1.17-1.174 2.637-1.76 4.404-1.76 1.873 0 3.397.589 4.571 1.76 1.174 1.174 1.762 2.724 1.762 4.652l-.01.556-.003.002zM9.495 9.913a2.928 2.928 0 00-1.168-1.584c-.581-.407-1.253-.61-2.021-.61-.833 0-1.563.228-2.192.684-.395.286-.76.787-1.096 1.51H9.495zM21.791 7.172L19.943 8.98c-.75-.729-1.433-1.092-2.045-1.092-.335 0-.599.07-.788.208-.19.139-.283.313-.283.519 0 .157.06.302.18.432.12.133.417.313.891.54l1.095.536c1.152.556 1.944 1.123 2.373 1.7.43.578.646 1.256.646 2.033 0 1.036-.388 1.899-1.165 2.59-.777.693-1.818 1.037-3.123 1.037-1.736 0-3.12-.664-4.157-1.99l1.837-1.96c.35.399.76.722 1.23.968s.888.37 1.253.37c.395 0 .71-.093.951-.278.24-.184.36-.399.36-.642 0-.45-.433-.889-1.3-1.317l-1.007-.491c-1.925-.95-2.886-2.138-2.886-3.564 0-.92.362-1.707 1.088-2.36.725-.654 1.655-.979 2.784-.979.772 0 1.5.166 2.182.498.683.331 1.26.808 1.734 1.428l-.002.006zM24.916 14.14c.474 0 .88.161 1.215.487.335.325.502.718.502 1.182 0 .464-.167.86-.502 1.188-.335.328-.74.492-1.215.492-.474 0-.878-.164-1.215-.492a1.603 1.603 0 01-.502-1.188c0-.464.168-.859.502-1.182a1.68 1.68 0 011.215-.488zM31.443 1.447h2.983l3.732 10.983 3.765-10.983h2.983l2.702 15.746h-2.96l-1.725-9.944-3.421 9.944H36.8l-3.387-9.944-1.767 9.944h-2.99l2.787-15.746zM61.528 12.216h-9.593c.137.83.508 1.487 1.11 1.977.6.487 1.368.732 2.304.732 1.116 0 2.076-.382 2.878-1.146l2.518 1.157c-.627.87-1.378 1.516-2.256 1.934-.876.418-1.914.626-3.118.626-1.868 0-3.387-.575-4.563-1.728-1.174-1.153-1.762-2.596-1.762-4.329 0-1.732.583-3.252 1.755-4.424 1.172-1.172 2.64-1.76 4.404-1.76 1.874 0 3.398.588 4.572 1.76 1.174 1.176 1.762 2.724 1.762 4.65l-.01.556h-.005l.004-.005zm-2.987-2.301a2.938 2.938 0 00-1.168-1.583c-.582-.408-1.253-.612-2.022-.612-.832 0-1.562.23-2.193.685-.395.286-.762.79-1.097 1.51h6.48zM72.463 1.049h2.988v16.14h-2.988v-1.23c-.583.542-1.167.934-1.753 1.172a5.026 5.026 0 01-1.908.359c-1.537 0-2.865-.584-3.988-1.75-1.122-1.165-1.685-2.616-1.685-4.35 0-1.735.541-3.273 1.63-4.423 1.085-1.15 2.401-1.725 3.955-1.725a5.15 5.15 0 012.01.395c.628.263 1.205.662 1.737 1.189V1.049h.002zm-3.142 6.894c-.923 0-1.691.317-2.3.958-.61.638-.917 1.457-.917 2.457 0 1 .311 1.833.931 2.482.62.649 1.385.972 2.295.972.91 0 1.717-.317 2.333-.957.618-.639.925-1.475.925-2.512s-.31-1.833-.925-2.463c-.618-.626-1.397-.941-2.344-.941v.004h.002zM79.675.75c.521 0 .972.187 1.346.556.373.372.562.822.562 1.349a1.8 1.8 0 01-.558 1.333 1.831 1.831 0 01-1.329.553 1.87 1.87 0 01-1.358-.563 1.865 1.865 0 01-.563-1.365c0-.536.185-.954.554-1.317A1.849 1.849 0 0179.671.75h.004zM78.18 5.544h2.988V17.19H78.18V5.544zM95.444 7.902l-2.486 1.34c-.466-.479-.93-.808-1.384-.995-.457-.187-.992-.28-1.605-.28-1.117 0-2.022.324-2.711.977-.69.651-1.035 1.487-1.035 2.505 0 1.019.33 1.798.998 2.428.663.626 1.537.94 2.619.94 1.335 0 2.376-.447 3.12-1.339l2.353 1.577c-1.277 1.625-3.078 2.438-5.407 2.438-2.095 0-3.732-.607-4.917-1.82-1.184-1.214-1.779-2.634-1.779-4.261 0-1.128.29-2.166.863-3.115.577-.947 1.382-1.694 2.412-2.238 1.03-.542 2.187-.813 3.462-.813 1.183 0 2.243.231 3.183.69a5.971 5.971 0 012.307 1.966v.005l.007-.005zM105.822 5.544h2.988v11.644h-2.988v-1.23c-.584.542-1.167.934-1.753 1.172a5.026 5.026 0 01-1.908.359c-1.537 0-2.865-.584-3.988-1.75-1.122-1.165-1.685-2.616-1.685-4.35 0-1.735.541-3.273 1.63-4.423 1.085-1.15 2.401-1.725 3.955-1.725.714 0 1.384.133 2.011.395.627.263 1.204.662 1.736 1.189V5.54v.004h.002zm-3.142 2.398c-.923 0-1.691.317-2.301.958-.61.638-.916 1.457-.916 2.457 0 1 .311 1.833.931 2.482.621.649 1.385.972 2.295.972.91 0 1.717-.317 2.333-.957.618-.639.925-1.475.925-2.512s-.309-1.833-.925-2.463c-.618-.626-1.397-.941-2.344-.941v.004h.002zM111.344 5.544h2.56v1.468c.275-.577.646-1.018 1.106-1.317.459-.298.961-.449 1.509-.449.386 0 .791.099 1.214.298l-.929 2.514c-.352-.17-.637-.256-.863-.256-.459 0-.848.279-1.165.835-.318.557-.477 1.649-.477 3.277l.011.569v4.71h-2.964V5.544h-.004.002zM130.517 12.216h-9.594c.137.83.509 1.487 1.11 1.977.601.487 1.369.732 2.305.732 1.116 0 2.075-.382 2.878-1.146l2.517 1.157c-.626.87-1.378 1.516-2.255 1.934-.876.418-1.915.626-3.119.626-1.867 0-3.387-.575-4.563-1.728-1.174-1.153-1.762-2.596-1.762-4.329 0-1.732.584-3.252 1.756-4.424 1.172-1.172 2.64-1.76 4.404-1.76 1.874 0 3.397.588 4.571 1.76 1.174 1.176 1.762 2.724 1.762 4.65l-.01.556h-.005l.005-.005zm-2.988-2.301a2.937 2.937 0 00-1.167-1.583c-.58-.406-1.254-.612-2.022-.612-.833 0-1.563.23-2.194.685-.395.286-.762.79-1.096 1.51h6.479zM133.595 14.142c.472 0 .88.163 1.214.487.335.323.503.72.503 1.182 0 .462-.168.861-.503 1.189a1.675 1.675 0 01-1.214.491A1.68 1.68 0 01132.38 17a1.599 1.599 0 01-.502-1.189c0-.466.167-.857.502-1.182a1.692 1.692 0 011.215-.487zM146.264 5.544h2.977v9.975c0 1.968-.403 3.417-1.215 4.345-1.086 1.256-2.723 1.886-4.912 1.886-1.168 0-2.147-.14-2.945-.426-.794-.286-1.468-.704-2.011-1.258a5.128 5.128 0 01-1.215-2.016h3.292a2.75 2.75 0 001.127.745c.46.168 1.005.25 1.631.25.801 0 1.447-.122 1.936-.363.49-.244.833-.557 1.035-.94.199-.387.302-1.05.302-1.992-.525.515-1.077.884-1.65 1.11-.577.224-1.228.337-1.96.337-1.599 0-2.946-.563-4.047-1.692-1.099-1.128-1.651-2.554-1.651-4.282 0-1.846.584-3.333 1.749-4.454 1.056-1.013 2.32-1.519 3.784-1.519.687 0 1.333.122 1.942.37.61.248 1.222.65 1.831 1.214v-1.29zm-3.095 2.432c-.942 0-1.717.309-2.33.924-.614.617-.919 1.394-.919 2.329 0 .935.315 1.766.942 2.386.627.62 1.415.93 2.363.93.949 0 1.691-.303 2.29-.91.601-.606.904-1.402.904-2.385 0-.983-.303-1.76-.91-2.367-.603-.607-1.385-.909-2.34-.909v.002zM157.665 5.247a6.44 6.44 0 013.168.825c.987.55 1.76 1.294 2.314 2.239.553.94.83 1.959.83 3.05a6.036 6.036 0 01-.837 3.084 5.95 5.95 0 01-2.281 2.24c-.962.54-2.026.809-3.183.809-1.707 0-3.164-.595-4.372-1.783-1.208-1.189-1.812-2.63-1.812-4.328 0-1.82.683-3.337 2.046-4.55 1.195-1.057 2.569-1.584 4.125-1.584l.004-.004-.002.002zM157.714 8c-.929 0-1.699.315-2.318.947-.618.632-.925 1.438-.925 2.425 0 .987.305 1.834.917 2.464.609.63 1.382.94 2.318.94.936 0 1.712-.317 2.333-.953.62-.636.931-1.451.931-2.45 0-1-.305-1.813-.916-2.435-.61-.623-1.389-.938-2.34-.938zM164.277 5.545h3.043l3.007 6.873 3.001-6.873h3.026l-5.065 11.644h-1.936l-5.078-11.644h.004-.002zM176.831 20.011L184.096.899h2.148l-7.278 19.112h-2.135zM189.361 1.351h8.911v2.94h-5.853v2.875h3.803v2.896h-3.803v7.128h-3.058V1.35v.001zM199.843 5.476h2.575V6.95c.279-.582.651-1.023 1.112-1.325a2.713 2.713 0 011.52-.452c.388 0 .796.1 1.221.303l-.936 2.53c-.352-.172-.642-.258-.869-.258-.462 0-.852.279-1.172.84-.32.56-.479 1.659-.479 3.295l.011.57v4.738h-2.981V5.476h-.002zM216.592 5.476h3.005V17.19h-3.005v-1.239c-.586.546-1.174.94-1.764 1.179-.59.241-1.23.36-1.919.36-1.545 0-2.885-.585-4.011-1.76-1.129-1.173-1.694-2.633-1.694-4.376 0-1.742.545-3.29 1.638-4.447 1.092-1.155 2.419-1.735 3.979-1.735.719 0 1.393.132 2.022.4a5.526 5.526 0 011.747 1.194V5.475h.002zm-3.157 2.412c-.929 0-1.7.322-2.314.964-.614.643-.921 1.466-.921 2.472s.314 1.846.938 2.499c.625.653 1.395.98 2.31.98.914 0 1.725-.32 2.348-.963.622-.643.931-1.485.931-2.524 0-1.04-.311-1.844-.931-2.476-.623-.632-1.408-.947-2.359-.947l-.002-.005zM222.623 5.474h3.037v5.643c0 1.098.077 1.86.232 2.289.154.426.403.76.744.995.342.236.762.355 1.264.355.503 0 .925-.117 1.275-.35.35-.234.61-.576.777-1.03.125-.338.187-1.058.187-2.165V5.472h3.005v4.965c0 2.045-.166 3.446-.496 4.2-.404.92-.998 1.623-1.784 2.116-.785.492-1.783.737-2.994.737-1.313 0-2.376-.287-3.185-.86-.811-.574-1.38-1.376-1.71-2.4-.234-.71-.352-2.004-.352-3.878V5.474zM244.995.952H248v16.237h-3.005v-1.24c-.586.547-1.174.94-1.764 1.179-.59.241-1.23.361-1.919.361-1.545 0-2.884-.586-4.011-1.76-1.129-1.174-1.694-2.633-1.694-4.376 0-1.743.546-3.29 1.638-4.448 1.092-1.155 2.419-1.735 3.979-1.735.719 0 1.393.133 2.022.4a5.526 5.526 0 011.747 1.194V.95l.002.003zm-3.157 6.934c-.929 0-1.7.321-2.314.964-.614.642-.92 1.466-.92 2.471 0 1.006.313 1.846.937 2.5.625.652 1.396.98 2.31.98.914 0 1.725-.321 2.348-.964.622-.642.931-1.485.931-2.524 0-1.04-.311-1.844-.931-2.476-.623-.632-1.408-.947-2.359-.947l-.002-.004z" fill="#fff"/></svg>