<svg width="183" height="44" viewBox="0 0 183 44" fill="none" xmlns="http://www.w3.org/2000/svg"><path d="M68.787 16.206l1.45-.161c.321-.046.367-.115.367-.46v-4.853h-6.302v4.83c0 .368.023.414.368.46l1.541.184V18h-7.29v-1.794l1.448-.161c.322-.046.368-.115.368-.46V3.809c0-.345-.023-.414-.368-.46l-1.449-.161v-1.84h7.291v1.84l-1.54.184c-.346.046-.369.092-.369.437v4.347h6.302V3.809c0-.345-.023-.414-.368-.46l-1.449-.161v-1.84h7.268v1.84l-1.54.184c-.346.046-.369.092-.369.437v11.753c0 .368.023.414.368.46l1.541.184V18h-7.268v-1.794zm16.407.552l-.115-.023c-.873.851-2.023 1.541-3.863 1.541-2.898 0-3.358-1.978-3.358-3.404 0-2.3 1.402-3.335 4.3-3.542l2.645-.184V9.881c0-1.081-.114-1.817-1.54-1.817-1.105 0-1.68.161-1.68 1.541l-3.242-.276c0-3.105 2.829-3.542 4.945-3.542 3.495 0 4.898.943 4.898 4.163v5.589c0 .368.023.414.368.46l1.104.184V18h-4.232l-.23-1.242zM83.24 13.17c-1.358.092-1.84.437-1.84 1.357 0 .92.551 1.265 1.31 1.265.783 0 1.565-.437 2.094-.828v-1.909l-1.564.115zm7.696 2.898L97.1 8.179h-3.22c-.207 0-.23.138-.253.299l-.276 1.288-2.438.138V6.017h10.097v1.978l-6.049 7.866h3.381c.207 0 .23-.138.253-.299l.276-1.587 2.507-.115V18H90.936v-1.932zm27.479 1.035c-1.426.69-2.99 1.173-4.715 1.173-4.439 0-5.957-2.76-5.957-6.348 0-4.163 2.553-6.141 5.704-6.141 3.036 0 5.06 1.587 5.06 5.566 0 .276-.023 1.081-.046 1.541h-7.038c.115 1.633.828 2.714 2.714 2.714.897 0 1.863-.207 3.427-.782l.851 2.277zm-3.312-6.394c-.023-1.932-.782-2.438-1.725-2.438-.989 0-1.794.552-1.932 2.438h3.657zm10.66 10.327l1.978-.161c.368-.023.46-.115.46-.414v-3.358l-.115-.046a5.017 5.017 0 01-3.335 1.219c-2.714 0-4.577-1.725-4.577-6.026 0-4.715 2.415-6.463 4.922-6.463 1.38 0 2.461.552 3.335 1.311l.345-1.081h3.013a35.105 35.105 0 00-.184 3.726v10.718c0 .345.023.391.368.437l1.081.161v1.817h-7.291v-1.84zm2.369-11.845c-.575-.391-1.311-.736-2.024-.736-1.656 0-2.323 1.587-2.323 3.634 0 2.231.621 3.473 2.162 3.473.782 0 1.564-.414 2.185-.943V9.191zm14.644 7.567l-.115-.023c-.943.713-2.139 1.541-4.094 1.541-2.415 0-3.335-1.38-3.335-4.048V8.616c0-.368-.023-.414-.368-.483l-1.104-.23.23-1.886h4.715v7.613c0 1.403.23 1.932 1.219 1.932 1.012 0 1.84-.575 2.369-1.058V8.593c0-.368-.023-.391-.368-.46l-.989-.23.253-1.886h4.577v9.545c0 .299.046.391.322.437l1.15.161V18h-4.278l-.184-1.242zM153.38 2.107c0 1.311-.759 2.07-2.093 2.07-1.311 0-2.07-.759-2.07-2.07s.759-2.024 2.07-2.024c1.334 0 2.093.713 2.093 2.024zm-5.06 14.076l1.173-.161c.322-.046.368-.115.368-.46V8.8c0-.253-.069-.414-.299-.483l-1.242-.437.253-1.863h4.761v9.545c0 .368.023.414.368.46l1.173.161V18h-6.555v-1.817zm7.623 4.853l.92-.138c.322-.046.414-.138.414-.483V8.8c0-.253-.046-.391-.299-.483l-1.219-.437.253-1.863h4.048l.207 1.173.115.046c1.104-.897 2.599-1.449 3.91-1.449 2.576 0 4.416 1.61 4.416 5.888 0 2.76-.943 6.601-4.738 6.601-1.196 0-2.277-.391-3.243-1.15v3.266c0 .368.023.437.368.46l2.346.207v1.817h-7.498v-1.84zm4.784-6.325c.506.437 1.311.874 2.162.874 1.541 0 2.185-1.472 2.185-3.726 0-2.369-.805-3.335-1.955-3.335-.966 0-1.886.483-2.392.828v5.359zm15.441 3.565c-4.209 0-5.911-2.576-5.911-6.187 0-3.818 2.001-6.302 6.21-6.302 4.255 0 5.911 2.53 5.911 6.049 0 3.91-1.978 6.44-6.21 6.44zm.161-2.415c1.495 0 2.415-1.035 2.415-3.91 0-2.714-.828-3.68-2.323-3.68-1.518 0-2.53.943-2.53 3.703 0 2.783.897 3.887 2.438 3.887zM10.582 42.149c-1.058.644-2.69 1.127-4.37 1.127-4.163 0-6.026-2.599-6.026-6.095 0-4.301 2.622-6.394 6.302-6.394 1.794 0 3.381.506 4.094.966v3.611l-2.46-.115-.277-1.518c-.023-.161-.069-.299-.276-.368-.276-.092-.713-.161-1.173-.161-1.38 0-2.553.943-2.553 3.634 0 2.99 1.334 3.841 2.967 3.841 1.15 0 2.185-.368 2.875-.667l.897 2.139zm7.178 1.127c-4.21 0-5.911-2.576-5.911-6.187 0-3.818 2-6.302 6.21-6.302 4.255 0 5.91 2.53 5.91 6.049 0 3.91-1.977 6.44-6.21 6.44zm.16-2.415c1.496 0 2.416-1.035 2.416-3.91 0-2.714-.828-3.68-2.323-3.68-1.518 0-2.53.943-2.53 3.703 0 2.783.897 3.887 2.438 3.887zm15.92-5.29c0-1.104-.07-2.024-1.22-2.024-.85 0-1.908.483-2.391.851v6.164c0 .368.023.414.368.46l1.104.161V43h-6.348v-1.84l1.035-.138c.322-.046.368-.115.368-.46V33.8c0-.253-.07-.414-.3-.483l-1.241-.437.276-1.863h4.025l.184 1.196.092.046c1.15-.851 2.484-1.472 4.048-1.472 2.507 0 3.473 1.38 3.473 3.91v5.865c0 .368.023.414.368.46l1.15.161V43H33.84v-7.429zm14.884 6.785c-.99.483-2.438.92-3.75.92-2.736 0-3.771-1.104-3.771-3.703v-6.026c0-.138 0-.23-.184-.23h-1.61V31.27c2.024-.23 2.829-1.242 3.082-3.749h2.185v3.266c0 .161 0 .23.184.23h3.243v2.3h-3.427v5.497c0 1.357.322 1.886 1.564 1.886.644 0 1.31-.161 1.863-.368l.62 2.024zm1.346-1.219l1.035-.138c.322-.046.368-.115.368-.46V33.8c0-.253-.069-.414-.299-.483l-1.242-.437.253-1.863h4.048l.276 1.84h.138c.76-1.173 1.771-2.07 3.243-2.07.53 0 1.587.092 2.001.207v4.186l-2.76-.092-.23-1.219c-.046-.207-.115-.253-.299-.253-.598 0-1.31.506-1.656.805v6.095c0 .368.023.437.368.46l2.277.184V43h-7.52v-1.863zm18.015.621l-.114-.023c-.874.851-2.025 1.541-3.865 1.541-2.897 0-3.357-1.978-3.357-3.404 0-2.3 1.402-3.335 4.3-3.542l2.645-.184v-1.265c0-1.081-.115-1.817-1.54-1.817-1.105 0-1.68.161-1.68 1.541l-3.243-.276c0-3.105 2.83-3.542 4.946-3.542 3.495 0 4.898.943 4.898 4.163v5.589c0 .368.023.414.368.46l1.105.184V43h-4.233l-.23-1.242zm-1.954-3.588c-1.358.092-1.84.437-1.84 1.357 0 .92.552 1.265 1.31 1.265.782 0 1.564-.437 2.094-.828v-1.909l-1.564.115zm23.064 3.933c-1.426.69-2.99 1.173-4.715 1.173-4.44 0-5.957-2.76-5.957-6.348 0-4.163 2.553-6.141 5.704-6.141 3.036 0 5.06 1.587 5.06 5.566 0 .276-.023 1.081-.046 1.541h-7.038c.115 1.633.828 2.714 2.714 2.714.897 0 1.863-.207 3.427-.782l.85 2.277zm-3.312-6.394c-.023-1.932-.782-2.438-1.725-2.438-.99 0-1.794.552-1.932 2.438h3.657zm4.816 5.474l1.15-.161c.322-.046.368-.115.368-.46V28.418c0-.253-.07-.414-.3-.483l-1.264-.437.253-1.863h4.784v14.927c0 .368.023.414.368.46l1.127.161V43h-6.486v-1.817zm12.524-.023l1.288-.138c.322-.046.368-.138.368-.483v-6.992c0-.138 0-.23-.184-.23h-1.541v-2.3h1.725v-1.265c0-3.105 1.748-4.393 4.922-4.393 2.139 0 4.117.529 4.117 3.312l-3.22.391c.023-1.173-.299-1.449-1.058-1.449-1.15 0-1.288.621-1.288 1.725v1.449c0 .161 0 .23.184.23h3.634v2.3h-3.818v7.153c0 .368.069.437.414.46l2.806.253V43h-8.349v-1.84zm10.247-.023l1.035-.138c.322-.046.368-.115.368-.46V33.8c0-.253-.069-.414-.299-.483l-1.242-.437.253-1.863h4.048l.276 1.84h.138c.759-1.173 1.771-2.07 3.243-2.07.529 0 1.587.092 2.001.207v4.186l-2.76-.092-.23-1.219c-.046-.207-.115-.253-.299-.253-.598 0-1.311.506-1.656.805v6.095c0 .368.023.437.368.46l2.277.184V43h-7.521v-1.863zm18.016.621l-.115-.023c-.874.851-2.024 1.541-3.864 1.541-2.898 0-3.358-1.978-3.358-3.404 0-2.3 1.403-3.335 4.301-3.542l2.645-.184v-1.265c0-1.081-.115-1.817-1.541-1.817-1.104 0-1.679.161-1.679 1.541l-3.243-.276c0-3.105 2.829-3.542 4.945-3.542 3.496 0 4.899.943 4.899 4.163v5.589c0 .368.023.414.368.46l1.104.184V43h-4.232l-.23-1.242zm-1.955-3.588c-1.357.092-1.84.437-1.84 1.357 0 .92.552 1.265 1.311 1.265.782 0 1.564-.437 2.093-.828v-1.909l-1.564.115zm15.963 3.588l-.115-.023c-.943.713-2.139 1.541-4.094 1.541-2.415 0-3.335-1.38-3.335-4.048v-5.612c0-.368-.023-.414-.368-.483l-1.104-.23.23-1.886h4.715v7.613c0 1.403.23 1.932 1.219 1.932 1.012 0 1.84-.575 2.369-1.058v-5.911c0-.368-.023-.391-.368-.46l-.989-.23.253-1.886h4.577v9.545c0 .299.046.391.322.437l1.15.161V43h-4.278l-.184-1.242zm14.149-.046l-.161-.023c-.966.943-2.093 1.587-3.772 1.587-2.714 0-4.462-1.725-4.462-6.118 0-4.623 2.323-6.371 4.876-6.371 1.334 0 2.369.46 3.243 1.104v-3.496c0-.23-.092-.391-.299-.46l-1.265-.437.253-1.863h4.623v14.95c0 .345.023.391.368.437l1.104.161V43h-4.278l-.23-1.288zm-.414-7.567c-.575-.391-1.311-.69-1.978-.69-1.702 0-2.369 1.587-2.369 3.634 0 2.231.644 3.473 2.093 3.473.782 0 1.633-.46 2.254-.989v-5.428zm16.618 7.958c-1.426.69-2.99 1.173-4.715 1.173-4.439 0-5.957-2.76-5.957-6.348 0-4.163 2.553-6.141 5.704-6.141 3.036 0 5.06 1.587 5.06 5.566 0 .276-.023 1.081-.046 1.541h-7.038c.115 1.633.828 2.714 2.714 2.714.897 0 1.863-.207 3.427-.782l.851 2.277zm-3.312-6.394c-.023-1.932-.782-2.438-1.725-2.438-.989 0-1.794.552-1.932 2.438h3.657zm9.304 5.773c0 1.173-.644 1.794-1.955 1.794-1.334 0-1.978-.598-1.978-1.794 0-1.173.644-1.794 1.978-1.794 1.288 0 1.955.621 1.955 1.794z" fill="#fff"/></svg>