<svg width="235" height="44" viewBox="0 0 235 44" fill="none" xmlns="http://www.w3.org/2000/svg"><path d="M8.954 4.954c-.044-.264-.11-.352-.264-.418a5.235 5.235 0 00-1.606-.242c-1.65 0-2.464.748-2.464 1.87 0 1.452 1.496 1.848 3.168 2.354 2.09.638 4.422 1.43 4.422 4.73 0 3.608-2.816 5.016-6.182 5.016-1.98 0-4.202-.506-5.038-.902v-4.29h2.464l.44 2.09c.066.286.088.33.374.396a7.898 7.898 0 001.848.242c1.782 0 2.772-.704 2.772-2.046 0-1.408-1.254-1.848-2.728-2.266-2.178-.616-4.862-1.21-4.862-4.752 0-3.388 2.552-4.95 5.896-4.95 1.892 0 3.52.462 4.51.88v4.29l-2.486-.22-.264-1.782zm9.587-2.156c0 1.254-.726 1.98-2.002 1.98-1.254 0-1.98-.726-1.98-1.98s.726-1.936 1.98-1.936c1.276 0 2.002.682 2.002 1.936zm-4.84 13.464l1.122-.154c.308-.044.352-.11.352-.44V9.2c0-.242-.066-.396-.286-.462l-1.188-.418.242-1.782h4.554v9.13c0 .352.022.396.352.44l1.122.154V18h-6.27v-1.738zm19.152.55l-.11-.022c-.836.814-1.936 1.474-3.696 1.474-2.772 0-3.212-1.892-3.212-3.256 0-2.2 1.342-3.19 4.114-3.388l2.53-.176v-1.21c0-1.034-.11-1.738-1.474-1.738-1.056 0-1.606.154-1.606 1.474l-3.102-.264c0-2.97 2.706-3.388 4.73-3.388 3.344 0 4.686.902 4.686 3.982v5.346c0 .352.022.396.352.44l1.056.176V18h-4.048l-.22-1.188zm-1.87-3.432c-1.298.088-1.76.418-1.76 1.298 0 .88.528 1.21 1.254 1.21.748 0 1.496-.418 2.002-.792V13.27l-1.496.11zm7.054 2.882l1.1-.154c.308-.044.352-.11.352-.44V4.052c0-.242-.066-.396-.286-.462l-1.21-.418.242-1.782h4.576v14.278c0 .352.022.396.352.44l1.078.154V18h-6.204v-1.738zm16.927-7.7c.396.506.814 1.21.814 2.222 0 2.442-1.914 3.872-4.686 3.872-.704 0-1.342-.088-1.738-.198l-.726 1.166 2.156.132c3.828.242 6.05.352 6.05 3.278 0 2.53-2.222 3.96-6.05 3.96-3.982 0-5.5-1.012-5.5-2.75 0-.99.44-1.518 1.21-2.244-.726-.308-.968-.858-.968-1.452 0-.484.242-.924.638-1.342.396-.418.836-.836 1.364-1.32-1.078-.528-1.892-1.672-1.892-3.3 0-2.53 1.672-4.268 5.038-4.268.946 0 1.518.088 2.024.22h4.29v1.87l-2.024.154zm-2.09 1.914c0-1.298-.748-1.98-2.002-1.98-1.21 0-2.112.594-2.112 2.024 0 1.078.594 1.826 2.046 1.826 1.232 0 2.068-.726 2.068-1.87zm-4.422 8.118c-.286.352-.572.726-.572 1.166 0 .88 1.122 1.144 2.662 1.144 1.276 0 3.014-.088 3.014-1.276 0-.704-.836-.748-1.892-.814l-3.212-.22zm18.114-1.782l-.11-.022c-.902.682-2.046 1.474-3.916 1.474-2.31 0-3.19-1.32-3.19-3.872V9.024c0-.352-.022-.396-.352-.462l-1.056-.22.22-1.804h4.51v7.282c0 1.342.22 1.848 1.166 1.848.968 0 1.76-.55 2.266-1.012V9.002c0-.352-.022-.374-.352-.44l-.946-.22.242-1.804h4.378v9.13c0 .286.044.374.308.418l1.1.154V18h-4.092l-.176-1.188zM76.709 2.798c0 1.254-.726 1.98-2.002 1.98-1.254 0-1.98-.726-1.98-1.98s.726-1.936 1.98-1.936c1.276 0 2.002.682 2.002 1.936zm-4.84 13.464l1.122-.154c.308-.044.352-.11.352-.44V9.2c0-.242-.066-.396-.286-.462l-1.188-.418.242-1.782h4.554v9.13c0 .352.022.396.352.44l1.122.154V18h-6.27v-1.738zm17.543.88c-1.364.66-2.86 1.122-4.51 1.122-4.246 0-5.698-2.64-5.698-6.072 0-3.982 2.442-5.874 5.456-5.874 2.904 0 4.84 1.518 4.84 5.324 0 .264-.022 1.034-.044 1.474h-6.732c.11 1.562.792 2.596 2.596 2.596.858 0 1.782-.198 3.278-.748l.814 2.178zm-3.168-6.116c-.022-1.848-.748-2.332-1.65-2.332-.946 0-1.716.528-1.848 2.332h3.498zm12.834-.132c0-1.056-.066-1.936-1.166-1.936-.814 0-1.826.462-2.288.814v5.896c0 .352.022.396.352.44l1.056.154V18H90.96v-1.76l.99-.132c.308-.044.352-.11.352-.44V9.2c0-.242-.066-.396-.286-.462l-1.188-.418.264-1.782h3.85l.176 1.144.088.044c1.1-.814 2.376-1.408 3.872-1.408 2.398 0 3.322 1.32 3.322 3.74v5.61c0 .352.022.396.352.44l1.1.154V18h-4.774v-7.106zm19.012 6.49c-.946.462-2.332.88-3.586.88-2.618 0-3.608-1.056-3.608-3.542V8.958c0-.132 0-.22-.176-.22h-1.54V6.78c1.936-.22 2.706-1.188 2.948-3.586h2.09v3.124c0 .154 0 .22.176.22h3.102v2.2h-3.278v5.258c0 1.298.308 1.804 1.496 1.804.616 0 1.254-.154 1.782-.352l.594 1.936zm10.809-.242c-1.364.66-2.86 1.122-4.51 1.122-4.246 0-5.698-2.64-5.698-6.072 0-3.982 2.442-5.874 5.456-5.874 2.904 0 4.84 1.518 4.84 5.324 0 .264-.022 1.034-.044 1.474h-6.732c.11 1.562.792 2.596 2.596 2.596.858 0 1.782-.198 3.278-.748l.814 2.178zm-3.168-6.116c-.022-1.848-.748-2.332-1.65-2.332-.946 0-1.716.528-1.848 2.332h3.498zm9.362 9.878l.88-.132c.308-.044.396-.132.396-.462V9.2c0-.242-.044-.374-.286-.462l-1.166-.418.242-1.782h3.872l.198 1.122.11.044c1.056-.858 2.486-1.386 3.74-1.386 2.464 0 4.224 1.54 4.224 5.632 0 2.64-.902 6.314-4.532 6.314-1.144 0-2.178-.374-3.102-1.1v3.124c0 .352.022.418.352.44l2.244.198v1.738h-7.172v-1.76zm4.576-6.05c.484.418 1.254.836 2.068.836 1.474 0 2.09-1.408 2.09-3.564 0-2.266-.77-3.19-1.87-3.19-.924 0-1.804.462-2.288.792v5.126zm13.802-12.056c0 1.254-.726 1.98-2.002 1.98-1.254 0-1.98-.726-1.98-1.98s.726-1.936 1.98-1.936c1.276 0 2.002.682 2.002 1.936zm-4.84 13.464l1.122-.154c.308-.044.352-.11.352-.44V9.2c0-.242-.066-.396-.286-.462l-1.188-.418.242-1.782h4.554v9.13c0 .352.022.396.352.44l1.122.154V18h-6.27v-1.738zm15.476.506l-.154-.022c-.924.902-2.002 1.518-3.608 1.518-2.596 0-4.268-1.65-4.268-5.852 0-4.422 2.222-6.094 4.664-6.094 1.276 0 2.266.44 3.102 1.056V4.03c0-.22-.088-.374-.286-.44l-1.21-.418.242-1.782h4.422v14.3c0 .33.022.374.352.418l1.056.154V18h-4.092l-.22-1.232zm-.396-7.238c-.55-.374-1.254-.66-1.892-.66-1.628 0-2.266 1.518-2.266 3.476 0 2.134.616 3.322 2.002 3.322.748 0 1.562-.44 2.156-.946V9.53zm15.895 7.612c-1.364.66-2.86 1.122-4.51 1.122-4.246 0-5.698-2.64-5.698-6.072 0-3.982 2.442-5.874 5.456-5.874 2.904 0 4.84 1.518 4.84 5.324 0 .264-.022 1.034-.044 1.474h-6.732c.11 1.562.792 2.596 2.596 2.596.858 0 1.782-.198 3.278-.748l.814 2.178zm-3.168-6.116c-.022-1.848-.748-2.332-1.65-2.332-.946 0-1.716.528-1.848 2.332h3.498zm17.898 6.358c-.946.462-2.332.88-3.586.88-2.618 0-3.608-1.056-3.608-3.542V8.958c0-.132 0-.22-.176-.22h-1.54V6.78c1.936-.22 2.706-1.188 2.948-3.586h2.09v3.124c0 .154 0 .22.176.22h3.102v2.2h-3.278v5.258c0 1.298.308 1.804 1.496 1.804.616 0 1.254-.154 1.782-.352l.594 1.936zm9.265-.572l-.11-.022c-.902.682-2.046 1.474-3.916 1.474-2.31 0-3.19-1.32-3.19-3.872V9.024c0-.352-.022-.396-.352-.462l-1.056-.22.22-1.804h4.51v7.282c0 1.342.22 1.848 1.166 1.848.968 0 1.76-.55 2.266-1.012V9.002c0-.352-.022-.374-.352-.44l-.946-.22.242-1.804h4.378v9.13c0 .286.044.374.308.418l1.1.154V18h-4.092l-.176-1.188zM8.69 35.894c0-1.056-.066-1.936-1.166-1.936-.814 0-1.826.462-2.288.814v5.896c0 .352.022.396.352.44l1.056.154V43H.572v-1.76l.99-.132c.308-.044.352-.11.352-.44V34.2c0-.242-.066-.396-.286-.462L.44 33.32l.264-1.782h3.85l.176 1.144.088.044c1.1-.814 2.376-1.408 3.872-1.408 2.398 0 3.322 1.32 3.322 3.74v5.61c0 .352.022.396.352.44l1.1.154V43H8.69v-7.106zm14.108 5.918l-.11-.022c-.902.682-2.046 1.474-3.916 1.474-2.31 0-3.19-1.32-3.19-3.872v-5.368c0-.352-.022-.396-.352-.462l-1.056-.22.22-1.804h4.51v7.282c0 1.342.22 1.848 1.166 1.848.968 0 1.76-.55 2.266-1.012v-5.654c0-.352-.022-.374-.352-.44l-.946-.22.242-1.804h4.378v9.13c0 .286.044.374.308.418l1.1.154V43h-4.092l-.176-1.188zm-4.576-12.254l3.366-3.828 1.804 1.716-3.938 3.212-1.232-1.1zm23.937 6.336c0-.858-.088-1.892-1.232-1.892-.616 0-1.21.22-1.782.594.044.352.066.704.066 1.078v4.994c0 .374.022.418.352.462l.88.132V43h-4.554v-7.216c0-.814-.066-1.782-1.166-1.782-.66 0-1.386.33-1.826.704v5.962c0 .352.022.396.352.44l1.078.154V43h-6.094v-1.738l.99-.154c.308-.044.352-.11.352-.44V34.2c0-.242-.066-.396-.286-.462L28.1 33.32l.242-1.782h3.872l.176 1.144.11.022c.99-.814 2.112-1.386 3.52-1.386 1.078 0 2.068.286 2.684 1.32.726-.572 2.002-1.32 3.542-1.32 2.354 0 3.234 1.166 3.234 3.718v5.632c0 .352.022.418.352.462l1.1.132V43h-4.774v-7.106zm16.075 6.248c-1.364.66-2.86 1.122-4.51 1.122-4.246 0-5.698-2.64-5.698-6.072 0-3.982 2.441-5.874 5.455-5.874 2.904 0 4.84 1.518 4.84 5.324 0 .264-.021 1.034-.043 1.474h-6.733c.11 1.562.792 2.596 2.596 2.596.858 0 1.782-.198 3.279-.748l.813 2.178zm-3.169-6.116c-.021-1.848-.747-2.332-1.65-2.332-.946 0-1.715.528-1.847 2.332h3.498zm4.717 5.192l.99-.132c.308-.044.352-.11.352-.44V34.2c0-.242-.066-.396-.286-.462l-1.188-.418.242-1.782h3.872l.264 1.76h.132c.726-1.122 1.694-1.98 3.102-1.98.506 0 1.518.088 1.914.198v4.004l-2.64-.088-.22-1.166c-.044-.198-.11-.242-.286-.242-.572 0-1.254.484-1.584.77v5.83c0 .352.022.418.352.44l2.178.176V43h-7.194v-1.782zm16.187 2.046c-4.026 0-5.654-2.464-5.654-5.918 0-3.652 1.914-6.028 5.94-6.028 4.07 0 5.654 2.42 5.654 5.786 0 3.74-1.892 6.16-5.94 6.16zm.154-2.31c1.43 0 2.31-.99 2.31-3.74 0-2.596-.792-3.52-2.222-3.52-1.452 0-2.42.902-2.42 3.542 0 2.662.858 3.718 2.332 3.718zm20.069.814l-.154-.022c-.924.902-2.002 1.518-3.608 1.518-2.596 0-4.268-1.65-4.268-5.852 0-4.422 2.222-6.094 4.664-6.094 1.276 0 2.266.44 3.102 1.056V29.03c0-.22-.088-.374-.286-.44l-1.21-.418.242-1.782h4.422v14.3c0 .33.022.374.352.418l1.056.154V43h-4.092l-.22-1.232zm-.396-7.238c-.55-.374-1.254-.66-1.892-.66-1.628 0-2.266 1.518-2.266 3.476 0 2.134.616 3.322 2.002 3.322.748 0 1.562-.44 2.156-.946V34.53zm15.895 7.612c-1.364.66-2.86 1.122-4.51 1.122-4.246 0-5.698-2.64-5.698-6.072 0-3.982 2.442-5.874 5.456-5.874 2.904 0 4.84 1.518 4.84 5.324 0 .264-.022 1.034-.044 1.474h-6.732c.11 1.562.792 2.596 2.596 2.596.858 0 1.782-.198 3.278-.748l.814 2.178zm-3.168-6.116c-.022-1.848-.748-2.332-1.65-2.332-.946 0-1.716.528-1.848 2.332h3.498zm21.968 5.258l1.804-.154c.33-.022.352-.132.352-.44v-8.36h-.088l-3.146 7.502h-3.586l-3.102-7.524h-.11v8.36c0 .352.044.418.352.44l1.892.176V43h-6.688v-1.716l1.386-.154c.308-.044.352-.11.352-.44V29.404c0-.33-.044-.396-.352-.44l-1.386-.154v-1.738h5.896l3.828 9.966h.088l4.026-9.966h5.72v1.716l-1.474.176c-.33.044-.352.088-.352.418V40.69c0 .286.066.374.352.418l1.474.176V43h-7.238v-1.716zm18.813.858c-1.364.66-2.86 1.122-4.51 1.122-4.246 0-5.698-2.64-5.698-6.072 0-3.982 2.442-5.874 5.456-5.874 2.904 0 4.84 1.518 4.84 5.324 0 .264-.022 1.034-.044 1.474h-6.732c.11 1.562.792 2.596 2.596 2.596.858 0 1.782-.198 3.278-.748l.814 2.178zm-3.168-6.116c-.022-1.848-.748-2.332-1.65-2.332-.946 0-1.716.528-1.848 2.332h3.498zm12.88 5.742l-.154-.022c-.924.902-2.002 1.518-3.608 1.518-2.596 0-4.268-1.65-4.268-5.852 0-4.422 2.222-6.094 4.664-6.094 1.276 0 2.266.44 3.102 1.056V29.03c0-.22-.088-.374-.286-.44l-1.21-.418.242-1.782h4.422v14.3c0 .33.022.374.352.418l1.056.154V43h-4.092l-.22-1.232zm-.396-7.238c-.55-.374-1.254-.66-1.892-.66-1.628 0-2.266 1.518-2.266 3.476 0 2.134.616 3.322 2.002 3.322.748 0 1.562-.44 2.156-.946V34.53zm10.545-6.732c0 1.254-.726 1.98-2.002 1.98-1.254 0-1.98-.726-1.98-1.98s.726-1.936 1.98-1.936c1.276 0 2.002.682 2.002 1.936zm-4.84 13.464l1.122-.154c.308-.044.352-.11.352-.44V34.2c0-.242-.066-.396-.286-.462l-1.188-.418.242-1.782h4.554v9.13c0 .352.022.396.352.44l1.122.154V43h-6.27v-1.738zm17.279.924c-1.012.616-2.574 1.078-4.18 1.078-3.982 0-5.764-2.486-5.764-5.83 0-4.114 2.508-6.116 6.028-6.116 1.716 0 3.234.484 3.916.924v3.454l-2.354-.11-.264-1.452c-.022-.154-.066-.286-.264-.352-.264-.088-.682-.154-1.122-.154-1.32 0-2.442.902-2.442 3.476 0 2.86 1.276 3.674 2.838 3.674 1.1 0 2.09-.352 2.75-.638l.858 2.046zm8.34-.374l-.11-.022c-.836.814-1.936 1.474-3.696 1.474-2.772 0-3.212-1.892-3.212-3.256 0-2.2 1.342-3.19 4.114-3.388l2.53-.176v-1.21c0-1.034-.11-1.738-1.474-1.738-1.056 0-1.606.154-1.606 1.474l-3.102-.264c0-2.97 2.706-3.388 4.73-3.388 3.344 0 4.686.902 4.686 3.982v5.346c0 .352.022.396.352.44l1.056.176V43h-4.048l-.22-1.188zm-1.87-3.432c-1.298.088-1.76.418-1.76 1.298 0 .88.528 1.21 1.254 1.21.748 0 1.496-.418 2.002-.792V38.27l-1.496.11zm7.164 2.838l.99-.132c.308-.044.352-.11.352-.44V34.2c0-.242-.066-.396-.286-.462l-1.188-.418.242-1.782h3.872l.264 1.76h.132c.726-1.122 1.694-1.98 3.102-1.98.506 0 1.518.088 1.914.198v4.004l-2.64-.088-.22-1.166c-.044-.198-.11-.242-.286-.242-.572 0-1.254.484-1.584.77v5.83c0 .352.022.418.352.44l2.178.176V43h-7.194v-1.782zm20.742.924c-1.364.66-2.86 1.122-4.51 1.122-4.246 0-5.698-2.64-5.698-6.072 0-3.982 2.442-5.874 5.456-5.874 2.904 0 4.84 1.518 4.84 5.324 0 .264-.022 1.034-.044 1.474h-6.732c.11 1.562.792 2.596 2.596 2.596.858 0 1.782-.198 3.278-.748l.814 2.178zm-3.168-6.116c-.022-1.848-.748-2.332-1.65-2.332-.946 0-1.716.528-1.848 2.332h3.498zm8.899 5.522c0 1.122-.616 1.716-1.87 1.716-1.276 0-1.892-.572-1.892-1.716 0-1.122.616-1.716 1.892-1.716 1.232 0 1.87.594 1.87 1.716zm6.192 0c0 1.122-.616 1.716-1.87 1.716-1.276 0-1.892-.572-1.892-1.716 0-1.122.616-1.716 1.892-1.716 1.232 0 1.87.594 1.87 1.716zm6.193 0c0 1.122-.616 1.716-1.87 1.716-1.276 0-1.892-.572-1.892-1.716 0-1.122.616-1.716 1.892-1.716 1.232 0 1.87.594 1.87 1.716z" fill="#fff"/></svg>