<svg width="263" height="64" viewBox="0 0 263 64" fill="none" xmlns="http://www.w3.org/2000/svg"><rect x="1" y="1" width="261" height="62" rx="7" fill="#FFBA1A" stroke="#FFCF61" stroke-width="2"/><path d="M31.933 41V22.856h14.42v4.508h-9.1v2.212h8.736v4.452h-8.736v2.464h9.436V41H31.933zm17.43 0V22.856H53.9l3.556 5.096c.588.868 1.54 2.352 1.54 2.352s.952-1.484 1.54-2.352l3.556-5.096h4.536V41h-5.32v-9.184S62.384 33.3 61.88 34l-2.884 4.032L56.084 34c-.504-.7-1.4-2.128-1.4-2.128V41h-5.32zm22.9 0V22.856h8.009c5.572 0 8.428 3.22 8.428 7.168s-2.856 7.168-8.456 7.168h-2.66V41h-5.32zm5.32-8.316h2.8c1.569 0 2.689-1.176 2.689-2.66 0-1.484-1.12-2.66-2.66-2.66h-2.828v5.32zM91.747 41V22.856h5.32V41h-5.32zm8.954 0V22.856h14.42v4.508h-9.1v2.212h8.736v4.452h-8.736v2.464h9.436V41H100.7zm16.591 0v-3.808l6.636-8.12c.756-.924 1.568-1.708 1.568-1.708h-7.812v-4.508h14.812v3.864l-6.244 7.7c-.7.868-1.848 2.072-1.848 2.072h8.344V41h-15.456zm17.475 0 7.336-18.144h5.488L154.926 41h-5.432l-.84-2.352h-7.616l-.84 2.352h-5.432zm7.7-6.44h4.76l-2.156-6.132c-.168-.448-.196-.616-.224-.728 0 0-.056.252-.224.728l-2.156 6.132zM162.71 41l7.336-18.144h5.488L182.87 41h-5.432l-.84-2.352h-7.616l-.84 2.352h-5.432zm7.7-6.44h4.76l-2.156-6.132c-.168-.448-.196-.616-.224-.728 0 0-.056.252-.224.728l-2.156 6.132zm22.828 6.776c-5.824 0-9.716-4.172-9.716-9.408 0-5.18 3.892-9.352 9.716-9.352s9.744 4.172 9.744 9.352c0 2.212-.7 4.228-1.96 5.824l1.176 1.176-2.408 2.436-1.344-1.344c-1.456.84-3.22 1.316-5.208 1.316zm0-4.816c.532 0 1.008-.084 1.456-.252l-1.344-1.372 2.436-2.408 1.316 1.344c.224-.56.336-1.204.336-1.904 0-2.632-1.736-4.536-4.2-4.536-2.296 0-4.172 1.904-4.172 4.536 0 2.688 1.736 4.592 4.172 4.592zm20.85 4.816c-4.592 0-8.092-2.548-8.092-7.532V22.856h5.32v10.64c0 2.184 1.26 3.024 2.772 3.024 1.512 0 2.772-.84 2.772-3.024v-10.64h5.32v10.948c0 4.984-3.5 7.532-8.092 7.532zM225.753 41V22.856h5.32V41h-5.32zm.112-19.04 2.94-5.012h4.9l-4.06 5.012h-3.78z" fill="#0B2E54"/></svg>