<svg width="251" height="70" viewBox="0 0 251 70" fill="none" xmlns="http://www.w3.org/2000/svg"><path d="M2.183 25.35c-1.05 0-1.82-.84-1.82-1.855 0-1.015.805-1.855 1.82-1.855 1.015 0 1.855.84 1.855 1.855 0 1.015-.84 1.855-1.855 1.855zm7.809 0c-1.05 0-1.82-.84-1.82-1.855 0-1.015.805-1.855 1.82-1.855 1.015 0 1.855.84 1.855 1.855 0 1.015-.84 1.855-1.855 1.855zm7.81 0c-1.05 0-1.82-.84-1.82-1.855 0-1.015.804-1.855 1.82-1.855 1.014 0 1.854.84 1.854 1.855 0 1.015-.84 1.855-1.855 1.855zm6.514 4.585V7.955h2.555v2.94c1.26-2.205 3.745-3.29 6.51-3.29 4.725 0 8.05 3.885 8.05 8.855 0 4.97-3.325 8.89-8.05 8.89-2.695 0-5.145-1.12-6.405-3.325v7.91h-2.66zm8.47-7.175c3.395 0 5.915-2.66 5.915-6.3 0-3.605-2.52-6.265-5.915-6.265-3.255 0-5.81 2.695-5.81 6.265s2.555 6.3 5.81 6.3zm21.373 2.59c-5.005 0-8.96-3.92-8.96-8.855 0-4.97 3.956-8.89 8.96-8.89 5.005 0 8.96 3.92 8.96 8.89 0 4.935-3.955 8.855-8.96 8.855zm0-2.59c3.535 0 6.23-2.695 6.23-6.265 0-3.605-2.695-6.3-6.23-6.3-3.535 0-6.23 2.695-6.23 6.3 0 3.57 2.695 6.265 6.23 6.265zM67.587 25V7.955h2.66v3.605c.98-2.24 3.185-3.955 6.58-3.955v2.905c-3.99 0-6.58 2.24-6.58 6.405V25h-2.66zm27.032.35c-3.01 0-4.795-1.47-4.795-5.46v-9.73h-2.555V7.955h2.555V4.28l2.66-.49v4.165h5.81v2.205h-5.81v9.8c0 2.345 1.015 3.01 2.38 3.01 1.575 0 2.8-.945 2.8-.945l.875 2.065c-.665.455-2.065 1.26-3.92 1.26zm13.693 0c-4.2 0-6.195-2.205-6.195-6.755V7.955h2.66v10.29c0 3.185 1.54 4.515 4.305 4.515 3.08 0 4.865-2.52 4.865-5.145v-9.66h2.66V25h-2.555v-3.01c-1.05 2.205-3.5 3.36-5.74 3.36zm21.803-.35V7.955h2.66v2.905c1.19-2.065 3.395-3.255 5.915-3.255 4.27 0 6.16 2.59 6.16 7.07V25h-2.66v-9.975c0-3.15-1.155-4.83-4.235-4.83-3.045 0-5.18 2.38-5.18 5.215V25h-2.66zM154.72 5.225 157.555.57h2.905l-3.29 4.655h-2.45zm.945 20.125c-4.2 0-6.195-2.205-6.195-6.755V7.955h2.66v10.29c0 3.185 1.54 4.515 4.305 4.515 3.08 0 4.865-2.52 4.865-5.145v-9.66h2.66V25h-2.555v-3.01c-1.05 2.205-3.5 3.36-5.74 3.36zm13.481-.35V7.955h2.66v2.94c.945-1.855 3.08-3.29 5.46-3.29 2.73 0 4.655 1.19 5.46 3.605 1.225-2.485 3.885-3.605 5.88-3.605 4.095 0 6.265 2.38 6.265 7.07V25h-2.695v-9.975c0-2.905-1.015-4.83-4.13-4.83-2.87 0-4.69 2.31-4.69 4.865V25h-2.695v-9.975c0-2.905-1.015-4.83-4.095-4.83-2.975 0-4.76 2.52-4.76 5.005V25h-2.66zm38.798.35c-4.83 0-8.925-3.465-8.925-8.855 0-4.935 3.71-8.89 8.575-8.89 4.55 0 8.155 3.92 8.155 8.785 0 .49-.07 1.015-.07 1.05h-13.895c.42 3.395 3.045 5.53 6.195 5.53 1.925 0 3.85-.665 5.25-1.82l1.155 1.96a10.43 10.43 0 0 1-6.44 2.24zm-6.16-9.94h11.34c-.28-3.15-2.695-5.425-5.67-5.425-2.905 0-5.285 2.24-5.67 5.425zM220.243 25V7.955h2.66v3.605c.98-2.24 3.185-3.955 6.58-3.955v2.905c-3.99 0-6.58 2.24-6.58 6.405V25h-2.66zm20.923.35c-5.005 0-8.96-3.92-8.96-8.855 0-4.97 3.955-8.89 8.96-8.89 5.005 0 8.96 3.92 8.96 8.89 0 4.935-3.955 8.855-8.96 8.855zm0-2.59c3.535 0 6.23-2.695 6.23-6.265 0-3.605-2.695-6.3-6.23-6.3-3.535 0-6.23 2.695-6.23 6.3 0 3.57 2.695 6.265 6.23 6.265zM12.377 65.35c-4.725 0-8.05-3.92-8.05-8.855 0-5.005 3.325-8.89 8.05-8.89 2.73 0 5.145 1.12 6.405 3.325v-8.96h2.66V65h-2.555v-2.975c-1.26 2.24-3.745 3.325-6.51 3.325zm.595-2.59c3.255 0 5.81-2.695 5.81-6.265s-2.555-6.3-5.81-6.3c-3.395 0-5.915 2.66-5.915 6.3 0 3.605 2.52 6.265 5.915 6.265zm21.864 2.59c-4.83 0-8.925-3.465-8.925-8.855 0-4.935 3.71-8.89 8.575-8.89 4.55 0 8.155 3.92 8.155 8.785 0 .49-.07 1.015-.07 1.05H28.676c.42 3.395 3.045 5.53 6.195 5.53 1.925 0 3.85-.665 5.25-1.82l1.155 1.96a10.43 10.43 0 0 1-6.44 2.24zm-6.16-9.94h11.34c-.28-3.15-2.695-5.425-5.67-5.425-2.905 0-5.285 2.24-5.67 5.425z" fill="#000"/><path d="M55.527 65V37.784h6.804l5.334 7.644c.882 1.302 2.31 3.528 2.31 3.528s1.428-2.226 2.31-3.528l5.334-7.644h6.804V65h-7.98V51.224s-1.386 2.226-2.142 3.276l-4.326 6.048-4.368-6.048c-.756-1.05-2.1-3.192-2.1-3.192V65h-7.98zm45.354.42c-6.51 0-12.054-4.074-12.054-11.13 0-6.216 4.83-11.172 11.172-11.172 6.09 0 10.752 4.956 10.752 11.172 0 1.302-.168 2.478-.168 2.478H96.345c.63 2.016 2.52 2.772 4.578 2.772 1.806 0 3.738-.546 5.082-1.302l2.562 5.166c-2.394 1.47-5.04 2.016-7.686 2.016zm-4.746-12.978h7.644c-.252-1.974-1.806-3.318-3.78-3.318-1.89 0-3.402 1.344-3.864 3.318zM123.31 65.42c-5.964 0-9.198-4.956-9.198-11.13 0-6.216 3.444-11.172 9.45-11.172 1.722 0 3.864.588 5.166 2.226v-7.98h7.644V65h-7.224v-2.394c-1.134 2.184-4.116 2.814-5.838 2.814zm2.016-6.72c2.016 0 3.444-1.806 3.444-4.41 0-2.562-1.428-4.452-3.444-4.452s-3.444 1.89-3.444 4.452c0 2.604 1.428 4.41 3.444 4.41zm15.23 6.3V43.538h7.644V65h-7.644zm3.78-23.1c-2.352 0-4.326-1.974-4.326-4.326 0-2.394 1.974-4.368 4.326-4.368 2.436 0 4.41 1.974 4.41 4.368 0 2.352-1.974 4.326-4.41 4.326zm19.224 23.52c-6.594 0-11.592-4.956-11.592-11.13 0-6.216 4.998-11.172 11.592-11.172 2.94 0 5.334.882 7.602 2.688l-4.41 5.292c-.798-.756-1.68-1.26-2.982-1.26-2.478 0-4.074 1.89-4.074 4.452 0 2.604 1.554 4.41 4.242 4.41 1.47 0 2.688-.63 3.612-1.554l3.822 5.628c-2.058 1.722-4.788 2.646-7.812 2.646zm18.872 0c-5.964 0-9.198-4.956-9.198-11.13 0-6.216 3.234-11.172 9.198-11.172 1.722 0 4.578.588 5.838 2.814v-2.394h7.224V65h-7.224v-2.394c-1.176 2.184-4.116 2.814-5.838 2.814zm2.016-6.72c2.016 0 3.444-1.806 3.444-4.41 0-2.562-1.428-4.452-3.444-4.452s-3.444 1.89-3.444 4.452c0 2.604 1.428 4.41 3.444 4.41zm15.23 6.3V43.538h7.434v3.822c.126-.924 1.974-4.242 7.014-4.242v8.316c-5.544 0-6.804 2.31-6.804 6.342V65h-7.644zm29.454.42c-6.51 0-12.054-4.074-12.054-11.13 0-6.216 4.83-11.172 11.172-11.172 6.09 0 10.752 4.956 10.752 11.172 0 1.302-.168 2.478-.168 2.478h-14.238c.63 2.016 2.52 2.772 4.578 2.772 1.806 0 3.738-.546 5.082-1.302l2.562 5.166c-2.394 1.47-5.04 2.016-7.686 2.016zm-4.746-12.978h7.644c-.252-1.974-1.806-3.318-3.78-3.318-1.89 0-3.402 1.344-3.864 3.318zm17.977 17.353 1.715-8.015h2.625l-2.45 8.015h-1.89z" fill="#0B2E54"/></svg>