<svg width="238" height="103" viewBox="0 0 238 103" fill="none" xmlns="http://www.w3.org/2000/svg"><path d="M27.424 24.35c-4.48 0-7.21-1.785-8.855-3.535l1.19-2.1c1.82 1.785 4.27 3.08 7.7 3.08 2.94 0 6.02-1.295 6.02-4.095 0-2.59-2.94-3.36-5.845-4.095-4.06-1.015-8.12-2.31-8.12-6.51 0-4.06 3.884-6.125 7.945-6.125 2.8 0 5.354.7 7.63 2.52l-1.155 2.135c-2.03-1.575-4.305-2.1-6.475-2.1-2.24 0-5.11 1.05-5.11 3.57 0 2.345 2.59 3.115 5.634 3.885 4.2 1.05 8.436 2.485 8.436 6.72 0 4.655-4.655 6.65-8.995 6.65zm13.63-.35V6.955h2.66V24h-2.66zm1.33-20.09c-.98 0-1.75-.77-1.75-1.75s.77-1.785 1.75-1.785 1.785.805 1.785 1.785c0 .98-.805 1.75-1.785 1.75zm20.54 20.44c-3.01 0-4.794-1.47-4.794-5.46V9.16h-2.555V6.955h2.555V3.28l2.66-.49v4.165h5.81V9.16h-5.81v9.8c0 2.345 1.015 3.01 2.38 3.01 1.575 0 2.8-.945 2.8-.945l.875 2.065c-.665.455-2.065 1.26-3.92 1.26zm15.799 0c-4.83 0-8.925-3.465-8.925-8.855 0-4.935 3.71-8.89 8.575-8.89 4.55 0 8.155 3.92 8.155 8.785 0 .49-.07 1.015-.07 1.05H72.563c.42 3.395 3.045 5.53 6.195 5.53 1.925 0 3.85-.665 5.25-1.82l1.155 1.96a10.43 10.43 0 0 1-6.44 2.24zm-6.16-9.94h11.34c-.28-3.15-2.695-5.425-5.67-5.425-2.905 0-5.285 2.24-5.67 5.425zm35.041 9.94c-5.005 0-8.96-3.92-8.96-8.855 0-4.97 3.955-8.89 8.96-8.89 5.005 0 8.96 3.92 8.96 8.89 0 4.935-3.955 8.855-8.96 8.855zm0-2.59c3.535 0 6.23-2.695 6.23-6.265 0-3.605-2.695-6.3-6.23-6.3-3.535 0-6.23 2.695-6.23 6.3 0 3.57 2.695 6.265 6.23 6.265zM121.415 24V9.16h-2.765V6.955h2.765V5.66c0-4.235 2.24-5.39 4.585-5.39 1.68 0 3.255.63 4.095 1.155l-.875 2.03c-.35-.21-1.365-.84-2.66-.84-1.33 0-2.485.665-2.485 3.325v1.015h5.425V9.16h-5.425V24h-2.66zm11.321 0V6.955h2.66v3.605c.98-2.24 3.185-3.955 6.58-3.955V9.51c-3.99 0-6.58 2.24-6.58 6.405V24h-2.66zm20.888.35c-4.83 0-8.925-3.465-8.925-8.855 0-4.935 3.71-8.89 8.575-8.89 4.55 0 8.155 3.92 8.155 8.785 0 .49-.07 1.015-.07 1.05h-13.895c.42 3.395 3.045 5.53 6.195 5.53 1.925 0 3.85-.665 5.25-1.82l1.155 1.96a10.43 10.43 0 0 1-6.44 2.24zm-6.16-9.94h11.34c-.28-3.15-2.695-5.425-5.67-5.425-2.905 0-5.285 2.24-5.67 5.425zm26.719 9.94c-5.005 0-8.96-3.885-8.96-8.855 0-4.97 3.955-8.89 8.96-8.89 2.345 0 4.48.84 6.09 2.275l-1.68 1.89c-1.05-.98-2.59-1.575-4.375-1.575-3.57 0-6.265 2.66-6.265 6.3 0 3.535 2.59 6.265 6.335 6.265 1.925 0 3.675-.735 4.865-1.925l1.54 1.995c-1.645 1.575-3.955 2.52-6.51 2.52zm18.234 0c-4.83 0-8.925-3.465-8.925-8.855 0-4.935 3.71-8.89 8.575-8.89 4.55 0 8.155 3.92 8.155 8.785 0 .49-.07 1.015-.07 1.05h-13.895c.42 3.395 3.045 5.53 6.195 5.53 1.925 0 3.85-.665 5.25-1.82l1.155 1.96a10.43 10.43 0 0 1-6.44 2.24zm-6.16-9.94h11.34c-.28-3.15-2.695-5.425-5.67-5.425-2.905 0-5.285 2.24-5.67 5.425zM204.716 24V6.955h2.66V9.86c1.19-2.065 3.395-3.255 5.915-3.255 4.27 0 6.16 2.59 6.16 7.07V24h-2.66v-9.975c0-3.15-1.155-4.83-4.235-4.83-3.045 0-5.18 2.38-5.18 5.215V24h-2.66zM9.256 56.35c-4.83 0-8.926-3.465-8.926-8.855 0-4.935 3.71-8.89 8.575-8.89 4.55 0 8.155 3.92 8.155 8.785 0 .49-.07 1.015-.07 1.05H3.095c.42 3.395 3.045 5.53 6.195 5.53 1.925 0 3.85-.665 5.25-1.82l1.155 1.96a10.43 10.43 0 0 1-6.44 2.24zm-6.16-9.94h11.34c-.28-3.15-2.696-5.425-5.67-5.425-2.906 0-5.286 2.24-5.67 5.425zm32.213 14.525v-7.91c-1.26 2.205-3.674 3.325-6.404 3.325-4.726 0-8.05-3.92-8.05-8.89 0-4.97 3.325-8.855 8.05-8.855 2.764 0 5.25 1.085 6.51 3.29v-2.94h2.555v21.98h-2.66zM29.5 53.76c3.256 0 5.81-2.73 5.81-6.3s-2.554-6.265-5.81-6.265c-3.394 0-5.915 2.66-5.915 6.265 0 3.64 2.52 6.3 5.916 6.3zm19.554 2.59c-4.2 0-6.195-2.205-6.195-6.755v-10.64h2.66v10.29c0 3.185 1.54 4.515 4.305 4.515 3.08 0 4.865-2.52 4.865-5.145v-9.66h2.66V56h-2.555v-3.01c-1.05 2.205-3.5 3.36-5.74 3.36zM62.535 56V38.955h2.66V56h-2.66zm1.33-20.09c-.98 0-1.75-.77-1.75-1.75s.77-1.785 1.75-1.785 1.785.805 1.785 1.785c0 .98-.805 1.75-1.785 1.75zm6.513 25.025v-21.98h2.555v2.94c1.26-2.205 3.745-3.29 6.51-3.29 4.725 0 8.05 3.885 8.05 8.855 0 4.97-3.325 8.89-8.05 8.89-2.695 0-5.145-1.12-6.405-3.325v7.91h-2.66zm8.47-7.175c3.395 0 5.915-2.66 5.915-6.3 0-3.605-2.52-6.265-5.915-6.265-3.255 0-5.81 2.695-5.81 6.265s2.555 6.3 5.81 6.3zm21.374 2.59c-5.005 0-8.96-3.92-8.96-8.855 0-4.97 3.955-8.89 8.96-8.89 5.005 0 8.96 3.92 8.96 8.89 0 4.935-3.955 8.855-8.96 8.855zm0-2.59c3.535 0 6.23-2.695 6.23-6.265 0-3.605-2.695-6.3-6.23-6.3-3.535 0-6.23 2.695-6.23 6.3 0 3.57 2.695 6.265 6.23 6.265zM121.97 56V38.955h2.66v2.94c.945-1.855 3.08-3.29 5.46-3.29 2.73 0 4.655 1.19 5.46 3.605 1.225-2.485 3.885-3.605 5.88-3.605 4.095 0 6.265 2.38 6.265 7.07V56H145v-9.975c0-2.905-1.015-4.83-4.13-4.83-2.87 0-4.69 2.31-4.69 4.865V56h-2.695v-9.975c0-2.905-1.015-4.83-4.095-4.83-2.975 0-4.76 2.52-4.76 5.005V56h-2.66zm36.628-19.775 2.835-4.655h2.905l-3.29 4.655h-2.45zm2.17 20.125c-4.83 0-8.925-3.465-8.925-8.855 0-4.935 3.71-8.89 8.575-8.89 4.55 0 8.155 3.92 8.155 8.785 0 .49-.07 1.015-.07 1.05h-13.895c.42 3.395 3.045 5.53 6.195 5.53 1.925 0 3.85-.665 5.25-1.82l1.155 1.96a10.43 10.43 0 0 1-6.44 2.24zm-6.16-9.94h11.34c-.28-3.15-2.695-5.425-5.67-5.425-2.905 0-5.285 2.24-5.67 5.425zm25.81 9.94c-4.725 0-8.05-3.92-8.05-8.855 0-5.005 3.325-8.89 8.05-8.89 2.73 0 5.145 1.12 6.405 3.325v-8.96h2.66V56h-2.555v-2.975c-1.26 2.24-3.745 3.325-6.51 3.325zm.595-2.59c3.255 0 5.81-2.695 5.81-6.265s-2.555-6.3-5.81-6.3c-3.395 0-5.915 2.66-5.915 6.3 0 3.605 2.52 6.265 5.915 6.265zM194.651 56V38.955h2.66V56h-2.66zm1.33-20.09c-.98 0-1.75-.77-1.75-1.75s.77-1.785 1.75-1.785 1.785.805 1.785 1.785c0 .98-.805 1.75-1.785 1.75zm14.774 20.44c-5.005 0-8.96-3.885-8.96-8.855 0-4.97 3.955-8.89 8.96-8.89 2.345 0 4.48.84 6.09 2.275l-1.68 1.89c-1.05-.98-2.59-1.575-4.375-1.575-3.57 0-6.265 2.66-6.265 6.3 0 3.535 2.59 6.265 6.335 6.265 1.925 0 3.675-.735 4.865-1.925l1.54 1.995c-1.645 1.575-3.955 2.52-6.51 2.52zm18.268 0c-5.005 0-8.96-3.92-8.96-8.855 0-4.97 3.955-8.89 8.96-8.89 5.005 0 8.96 3.92 8.96 8.89 0 4.935-3.955 8.855-8.96 8.855zm0-2.59c3.535 0 6.23-2.695 6.23-6.265 0-3.605-2.695-6.3-6.23-6.3-3.535 0-6.23 2.695-6.23 6.3 0 3.57 2.695 6.265 6.23 6.265z" fill="#000"/><path d="M35.707 81.762V68.784h5.712v12.978h-5.712zm-9.576 0V68.784h5.712v12.978h-5.712zm33.761 20.412c-4.2 0-7.476-.966-9.408-2.268l2.73-4.788c1.68 1.092 4.117 1.386 5.839 1.386 2.772 0 4.2-1.26 4.704-2.646.168-.42.252-.84.252-1.26-1.176 1.554-3.486 2.142-5.209 2.142-5.963 0-9.407-4.62-9.407-10.29 0-5.712 3.444-10.332 9.407-10.332 1.723 0 4.453.63 5.629 2.814v-2.394h7.224v15.624c0 6.132-2.73 12.012-11.76 12.012zm.714-14.028c2.017 0 3.444-1.512 3.444-3.696s-1.427-3.738-3.444-3.738c-2.016 0-3.444 1.554-3.444 3.738s1.428 3.696 3.444 3.696zM75.632 96V74.538h7.434v3.822c.126-.924 1.974-4.242 7.014-4.242v8.316c-5.544 0-6.804 2.31-6.804 6.342V96h-7.644zm26.599.42c-5.965 0-9.199-4.956-9.199-11.13 0-6.216 3.234-11.172 9.199-11.172 1.722 0 4.578.588 5.838 2.814v-2.394h7.224V96h-7.224v-2.394c-1.176 2.184-4.116 2.814-5.838 2.814zm2.016-6.72c2.016 0 3.444-1.806 3.444-4.41 0-2.562-1.428-4.452-3.444-4.452s-3.444 1.89-3.444 4.452c0 2.604 1.428 4.41 3.444 4.41zm23.797 6.72c-4.116 0-6.804-2.646-6.804-7.35v-8.484h-3.15v-6.048h3.15v-3.864l7.644-1.89v5.754h4.746v6.048h-4.746v7.896c0 1.008.504 1.344 1.176 1.344.63 0 1.386-.294 1.932-.672l2.058 5.586c-1.848 1.302-4.116 1.68-6.006 1.68zm8.842-.42V74.538h7.644V96h-7.644zm3.78-23.1c-2.352 0-4.326-1.974-4.326-4.326 0-2.394 1.974-4.368 4.326-4.368 2.436 0 4.41 1.974 4.41 4.368 0 2.352-1.974 4.326-4.41 4.326zm15.949 23.52c-4.914 0-7.644-1.47-8.904-2.562l2.436-5.376c1.68 1.134 3.234 1.806 6.51 1.806.084 0 2.1-.126 2.1-.966 0-.672-1.26-.798-2.52-1.092-4.662-1.134-8.106-3.024-8.106-6.972 0-4.704 4.284-7.14 8.82-7.14 4.158 0 6.636.924 8.694 2.016l-2.268 5.124c-2.478-.966-4.746-1.26-6.174-1.26-.756 0-1.344.252-1.344.672 0 .798 1.806 1.092 3.948 1.68 3.024.882 6.678 2.352 6.678 6.678 0 5.754-5.838 7.392-9.87 7.392zm24.713-14.658V68.784h5.712v12.978h-5.712zm-9.576 0V68.784h5.712v12.978h-5.712zm25.537 14.588c-1.05 0-1.82-.84-1.82-1.855 0-1.015.805-1.855 1.82-1.855 1.015 0 1.855.84 1.855 1.855 0 1.015-.84 1.855-1.855 1.855zm7.809 0c-1.05 0-1.82-.84-1.82-1.855 0-1.015.805-1.855 1.82-1.855 1.015 0 1.855.84 1.855 1.855 0 1.015-.84 1.855-1.855 1.855zm7.81 0c-1.05 0-1.82-.84-1.82-1.855 0-1.015.805-1.855 1.82-1.855 1.015 0 1.855.84 1.855 1.855 0 1.015-.84 1.855-1.855 1.855z" fill="#0B2E54"/></svg>