<svg width="597" height="34" viewBox="0 0 597 34" fill="none" xmlns="http://www.w3.org/2000/svg"><path d="M14.871 17.6l-2.64-7.53-2.64 7.53h5.28zm1.56 4.47h-8.4L6.681 26H.411l8.61-22.62h6.42L24.051 26h-6.27l-1.35-3.93zm22.275-3.72c0-.48-.09-.93-.27-1.35-.16-.44-.4-.82-.72-1.14-.32-.32-.7-.57-1.14-.75-.42-.2-.88-.3-1.38-.3-.48 0-.93.09-1.35.27-.42.18-.79.43-1.11.75-.3.32-.55.7-.75 1.14-.18.42-.27.87-.27 1.35 0 .48.09.93.27 1.35.18.42.43.79.75 1.11.32.3.69.55 1.11.75.44.18.9.27 1.38.27.48 0 .93-.09 1.35-.27.42-.18.78-.43 1.08-.75.32-.32.57-.69.75-1.11.2-.42.3-.86.3-1.32zm-6.84 15.33h-5.43V10.61h5.43v1.71c1.16-1.46 2.74-2.19 4.74-2.19 1.1 0 2.12.22 3.06.66.96.42 1.79 1 2.49 1.74.7.74 1.24 1.61 1.62 2.61.4 1 .6 2.07.6 3.21 0 1.14-.2 2.2-.6 3.18-.38.98-.92 1.84-1.62 2.58-.68.74-1.49 1.32-2.43 1.74-.94.42-1.96.63-3.06.63-1.92 0-3.52-.66-4.8-1.98v9.18zm15.605-23.07h5.43v2.52c.58-.92 1.29-1.62 2.13-2.1.84-.5 1.82-.75 2.94-.75h.45c.18 0 .38.02.6.06v5.19a5.16 5.16 0 00-2.34-.54c-1.26 0-2.21.38-2.85 1.14-.62.74-.93 1.83-.93 3.27V26h-5.43V10.61zm25.4 5.46c-.18-.76-.55-1.37-1.11-1.83-.56-.46-1.24-.69-2.04-.69-.84 0-1.53.22-2.07.66-.52.44-.85 1.06-.99 1.86h6.21zm-6.36 3.15c0 2.34 1.1 3.51 3.3 3.51 1.18 0 2.07-.48 2.67-1.44h5.25c-1.06 3.52-3.71 5.28-7.95 5.28-1.3 0-2.49-.19-3.57-.57-1.08-.4-2.01-.96-2.79-1.68a7.519 7.519 0 01-1.77-2.58c-.42-1-.63-2.12-.63-3.36 0-1.28.2-2.43.6-3.45.4-1.04.97-1.92 1.71-2.64.74-.72 1.63-1.27 2.67-1.65 1.06-.4 2.25-.6 3.57-.6 1.3 0 2.47.2 3.51.6 1.04.38 1.92.94 2.64 1.68.72.74 1.27 1.65 1.65 2.73.38 1.06.57 2.26.57 3.6v.57h-11.43zm14.535-8.61h5.43v1.95c.74-.9 1.49-1.5 2.25-1.8.76-.32 1.65-.48 2.67-.48 1.08 0 2 .18 2.76.54.78.34 1.44.83 1.98 1.47.44.52.74 1.1.9 1.74.16.64.24 1.37.24 2.19V26h-5.43v-7.77c0-.76-.06-1.37-.18-1.83-.1-.48-.29-.86-.57-1.14-.24-.24-.51-.41-.81-.51-.3-.1-.62-.15-.96-.15-.92 0-1.63.28-2.13.84-.48.54-.72 1.32-.72 2.34V26h-5.43V10.61zm24.961 7.65c0 .5.09.97.27 1.41.18.42.42.79.72 1.11.32.32.69.57 1.11.75.44.18.91.27 1.41.27.48 0 .93-.09 1.35-.27.44-.18.81-.43 1.11-.75.32-.32.57-.69.75-1.11.2-.42.3-.87.3-1.35 0-.48-.1-.93-.3-1.35-.18-.44-.43-.82-.75-1.14-.3-.32-.67-.57-1.11-.75a3.39 3.39 0 00-1.35-.27c-.48 0-.94.09-1.38.27-.42.18-.79.43-1.11.75-.3.32-.55.69-.75 1.11-.18.4-.27.84-.27 1.32zm6.84-17.16h5.46V26h-5.46v-1.71c-1.16 1.46-2.73 2.19-4.71 2.19-1.12 0-2.15-.21-3.09-.63-.94-.42-1.76-1-2.46-1.74s-1.25-1.61-1.65-2.61c-.38-1-.57-2.08-.57-3.24 0-1.1.18-2.14.54-3.12.38-1 .91-1.87 1.59-2.61.68-.74 1.49-1.32 2.43-1.74.96-.44 2.01-.66 3.15-.66 1.92 0 3.51.67 4.77 2.01V1.1zm20.406 14.97c-.18-.76-.55-1.37-1.11-1.83-.56-.46-1.24-.69-2.04-.69-.84 0-1.53.22-2.07.66-.52.44-.85 1.06-.99 1.86h6.21zm-6.36 3.15c0 2.34 1.1 3.51 3.3 3.51 1.18 0 2.07-.48 2.67-1.44h5.25c-1.06 3.52-3.71 5.28-7.95 5.28-1.3 0-2.49-.19-3.57-.57-1.08-.4-2.01-.96-2.79-1.68a7.519 7.519 0 01-1.77-2.58c-.42-1-.63-2.12-.63-3.36 0-1.28.2-2.43.6-3.45.4-1.04.97-1.92 1.71-2.64.74-.72 1.63-1.27 2.67-1.65 1.06-.4 2.25-.6 3.57-.6 1.3 0 2.47.2 3.51.6 1.04.38 1.92.94 2.64 1.68.72.74 1.27 1.65 1.65 2.73.38 1.06.57 2.26.57 3.6v.57h-11.43zm34.929-4.65c-1-.52-1.98-.78-2.94-.78-.5 0-.91.1-1.23.3-.3.2-.45.47-.45.81 0 .18.02.33.06.45.06.1.17.2.33.3.18.1.43.19.75.27.34.08.78.18 1.32.3 1.5.3 2.62.84 3.36 1.62.74.76 1.11 1.74 1.11 2.94 0 .9-.18 1.71-.54 2.43-.36.72-.86 1.33-1.5 1.83-.64.48-1.41.85-2.31 1.11-.9.28-1.89.42-2.97.42-2.08 0-4.13-.59-6.15-1.77l1.98-3.84c1.52 1.04 2.96 1.56 4.32 1.56.5 0 .91-.11 1.23-.33.32-.22.48-.5.48-.84 0-.2-.03-.36-.09-.48-.04-.14-.14-.26-.3-.36-.16-.12-.4-.22-.72-.3-.3-.1-.7-.2-1.2-.3-1.68-.34-2.86-.84-3.54-1.5-.66-.68-.99-1.61-.99-2.79 0-.86.16-1.63.48-2.31.32-.7.78-1.29 1.38-1.77.6-.48 1.32-.85 2.16-1.11.86-.26 1.81-.39 2.85-.39 1.7 0 3.35.33 4.95.99l-1.83 3.54zm10.193 3.66c0 .52.09 1 .27 1.44.2.42.45.79.75 1.11.32.32.69.57 1.11.75.44.18.9.27 1.38.27.48 0 .93-.09 1.35-.27.44-.18.81-.43 1.11-.75.32-.32.57-.69.75-1.11.2-.44.3-.91.3-1.41 0-.48-.1-.93-.3-1.35-.18-.44-.43-.82-.75-1.14-.3-.32-.67-.57-1.11-.75a3.39 3.39 0 00-1.35-.27c-.48 0-.94.09-1.38.27-.42.18-.79.43-1.11.75-.3.32-.55.69-.75 1.11-.18.42-.27.87-.27 1.35zm-5.73-.06c0-1.14.23-2.2.69-3.18.46-1 1.1-1.86 1.92-2.58.82-.74 1.79-1.32 2.91-1.74 1.14-.42 2.38-.63 3.72-.63 1.32 0 2.54.21 3.66.63 1.14.4 2.12.97 2.94 1.71.84.72 1.49 1.59 1.95 2.61.46 1 .69 2.11.69 3.33 0 1.22-.24 2.34-.72 3.36-.46 1-1.1 1.87-1.92 2.61-.82.72-1.81 1.28-2.97 1.68-1.14.4-2.38.6-3.72.6-1.32 0-2.54-.2-3.66-.6-1.12-.4-2.09-.97-2.91-1.71-.8-.74-1.43-1.62-1.89-2.64-.46-1.04-.69-2.19-.69-3.45zm33.876.18c0-.48-.09-.93-.27-1.35-.18-.44-.43-.82-.75-1.14a3.51 3.51 0 00-1.11-.75c-.42-.2-.88-.3-1.38-.3-.48 0-.93.09-1.35.27-.42.18-.79.43-1.11.75-.3.32-.55.7-.75 1.14-.18.42-.27.87-.27 1.35 0 .48.09.93.27 1.35.18.42.43.79.75 1.11.32.3.69.55 1.11.75.44.18.9.27 1.38.27.48 0 .93-.09 1.35-.27.42-.18.78-.43 1.08-.75.32-.32.57-.69.75-1.11.2-.42.3-.86.3-1.32zm-6.84-17.25v11.04c1.28-1.34 2.88-2.01 4.8-2.01 1.14 0 2.18.22 3.12.66.96.42 1.77 1 2.43 1.74.68.72 1.21 1.58 1.59 2.58.38.98.57 2.03.57 3.15 0 1.14-.2 2.21-.6 3.21-.38 1-.92 1.87-1.62 2.61-.7.74-1.53 1.33-2.49 1.77-.94.42-1.96.63-3.06.63-2 0-3.58-.73-4.74-2.19V26h-5.43V1.1h5.43zm15.605 9.51h5.43v2.52c.58-.92 1.29-1.62 2.13-2.1.84-.5 1.82-.75 2.94-.75h.45c.18 0 .38.02.6.06v5.19a5.16 5.16 0 00-2.34-.54c-1.26 0-2.21.38-2.85 1.14-.62.74-.93 1.83-.93 3.27V26h-5.43V10.61zm25.401 5.46c-.18-.76-.55-1.37-1.11-1.83-.56-.46-1.24-.69-2.04-.69-.84 0-1.53.22-2.07.66-.52.44-.85 1.06-.99 1.86h6.21zm-6.36 3.15c0 2.34 1.1 3.51 3.3 3.51 1.18 0 2.07-.48 2.67-1.44h5.25c-1.06 3.52-3.71 5.28-7.95 5.28-1.3 0-2.49-.19-3.57-.57-1.08-.4-2.01-.96-2.79-1.68a7.519 7.519 0 01-1.77-2.58c-.42-1-.63-2.12-.63-3.36 0-1.28.2-2.43.6-3.45.4-1.04.97-1.92 1.71-2.64.74-.72 1.63-1.27 2.67-1.65 1.06-.4 2.25-.6 3.57-.6 1.3 0 2.47.2 3.51.6 1.04.38 1.92.94 2.64 1.68.72.74 1.27 1.65 1.65 2.73.38 1.06.57 2.26.57 3.6v.57h-11.43zm35.979-3.15c-.18-.76-.55-1.37-1.11-1.83-.56-.46-1.24-.69-2.04-.69-.84 0-1.53.22-2.07.66-.52.44-.85 1.06-.99 1.86h6.21zm-6.36 3.15c0 2.34 1.1 3.51 3.3 3.51 1.18 0 2.07-.48 2.67-1.44h5.25c-1.06 3.52-3.71 5.28-7.95 5.28-1.3 0-2.49-.19-3.57-.57-1.08-.4-2.01-.96-2.79-1.68a7.519 7.519 0 01-1.77-2.58c-.42-1-.63-2.12-.63-3.36 0-1.28.2-2.43.6-3.45.4-1.04.97-1.92 1.71-2.64.74-.72 1.63-1.27 2.67-1.65 1.06-.4 2.25-.6 3.57-.6 1.3 0 2.47.2 3.51.6 1.04.38 1.92.94 2.64 1.68.72.74 1.27 1.65 1.65 2.73.38 1.06.57 2.26.57 3.6v.57h-11.43zM277.55 1.1V26h-5.43V1.1h5.43zm19.786 14.04V26h-5.43V15.14h-1.95v-4.53h1.95V8.3c0-1.28.12-2.3.36-3.06.2-.64.52-1.23.96-1.77.44-.56.95-1.04 1.53-1.44.6-.4 1.24-.71 1.92-.93.68-.22 1.35-.33 2.01-.33.46 0 .88.05 1.26.15.4.1.8.24 1.2.42v4.74c-.36-.18-.7-.31-1.02-.39-.3-.1-.62-.15-.96-.15-.22 0-.45.04-.69.12-.22.06-.43.2-.63.42-.2.22-.34.54-.42.96-.06.4-.09.95-.09 1.65v1.92h3.81v4.53h-3.81zm5.838-4.53h5.43v2.52c.58-.92 1.29-1.62 2.13-2.1.84-.5 1.82-.75 2.94-.75h.45c.18 0 .38.02.6.06v5.19a5.16 5.16 0 00-2.34-.54c-1.26 0-2.21.38-2.85 1.14-.62.74-.93 1.83-.93 3.27V26h-5.43V10.61zm19.191 7.65c0 .5.09.97.27 1.41.18.42.42.79.72 1.11.32.32.69.57 1.11.75.44.18.91.27 1.41.27.48 0 .93-.09 1.35-.27.44-.18.81-.43 1.11-.75.32-.32.57-.69.75-1.11.2-.42.3-.87.3-1.35 0-.48-.1-.93-.3-1.35-.18-.44-.43-.82-.75-1.14-.3-.32-.67-.57-1.11-.75a3.39 3.39 0 00-1.35-.27c-.5 0-.97.09-1.41.27-.42.18-.79.43-1.11.75-.3.32-.54.69-.72 1.11-.18.4-.27.84-.27 1.32zm6.84-7.65h5.46V26h-5.46v-1.71c-1.16 1.46-2.73 2.19-4.71 2.19-1.12 0-2.15-.2-3.09-.6-.94-.42-1.76-1-2.46-1.74s-1.25-1.61-1.65-2.61c-.38-1-.57-2.09-.57-3.27 0-1.1.19-2.14.57-3.12.38-1 .91-1.87 1.59-2.61.68-.74 1.49-1.32 2.43-1.74.94-.44 1.98-.66 3.12-.66 1.92 0 3.51.67 4.77 2.01v-1.53zm14.585 0v8.67c0 1.9.92 2.85 2.76 2.85 1.84 0 2.76-.95 2.76-2.85v-8.67h5.43v9.72c0 2.08-.69 3.64-2.07 4.68-1.36 1.04-3.4 1.56-6.12 1.56s-4.77-.52-6.15-1.56c-1.36-1.04-2.04-2.6-2.04-4.68v-9.72h5.43zm19.678 7.65c0 .5.09.97.27 1.41.18.42.42.79.72 1.11.32.32.69.57 1.11.75.44.18.91.27 1.41.27.48 0 .93-.09 1.35-.27.44-.18.81-.43 1.11-.75.32-.32.57-.69.75-1.11.2-.42.3-.87.3-1.35 0-.48-.1-.93-.3-1.35-.18-.44-.43-.82-.75-1.14-.3-.32-.67-.57-1.11-.75a3.39 3.39 0 00-1.35-.27c-.48 0-.94.09-1.38.27-.42.18-.79.43-1.11.75-.3.32-.55.69-.75 1.11-.18.4-.27.84-.27 1.32zm6.84-17.16h5.46V26h-5.46v-1.71c-1.16 1.46-2.73 2.19-4.71 2.19-1.12 0-2.15-.21-3.09-.63-.94-.42-1.76-1-2.46-1.74s-1.25-1.61-1.65-2.61c-.38-1-.57-2.08-.57-3.24 0-1.1.18-2.14.54-3.12.38-1 .91-1.87 1.59-2.61.68-.74 1.49-1.32 2.43-1.74.96-.44 2.01-.66 3.15-.66 1.92 0 3.51.67 4.77 2.01V1.1zm20.406 14.97c-.18-.76-.55-1.37-1.11-1.83-.56-.46-1.24-.69-2.04-.69-.84 0-1.53.22-2.07.66-.52.44-.85 1.06-.99 1.86h6.21zm-6.36 3.15c0 2.34 1.1 3.51 3.3 3.51 1.18 0 2.07-.48 2.67-1.44h5.25c-1.06 3.52-3.71 5.28-7.95 5.28-1.3 0-2.49-.19-3.57-.57-1.08-.4-2.01-.96-2.79-1.68a7.519 7.519 0 01-1.77-2.58c-.42-1-.63-2.12-.63-3.36 0-1.28.2-2.43.6-3.45.4-1.04.97-1.92 1.71-2.64.74-.72 1.63-1.27 2.67-1.65 1.06-.4 2.25-.6 3.57-.6 1.3 0 2.47.2 3.51.6 1.04.38 1.92.94 2.64 1.68.72.74 1.27 1.65 1.65 2.73.38 1.06.57 2.26.57 3.6v.57h-11.43zm29.769-.96c0 .5.09.97.27 1.41.18.42.42.79.72 1.11.32.32.69.57 1.11.75.44.18.91.27 1.41.27.48 0 .93-.09 1.35-.27.44-.18.81-.43 1.11-.75.32-.32.57-.69.75-1.11.2-.42.3-.87.3-1.35 0-.48-.1-.93-.3-1.35-.18-.44-.43-.82-.75-1.14-.3-.32-.67-.57-1.11-.75a3.39 3.39 0 00-1.35-.27c-.5 0-.97.09-1.41.27-.42.18-.79.43-1.11.75-.3.32-.54.69-.72 1.11-.18.4-.27.84-.27 1.32zm6.84-7.65h5.46V26h-5.46v-1.71c-1.16 1.46-2.73 2.19-4.71 2.19-1.12 0-2.15-.2-3.09-.6-.94-.42-1.76-1-2.46-1.74s-1.25-1.61-1.65-2.61c-.38-1-.57-2.09-.57-3.27 0-1.1.19-2.14.57-3.12.38-1 .91-1.87 1.59-2.61.68-.74 1.49-1.32 2.43-1.74.94-.44 1.98-.66 3.12-.66 1.92 0 3.51.67 4.77 2.01v-1.53zM439.803 26l3.84-22.62h5.82l4.53 12.06 4.5-12.06h5.82l3.84 22.62h-5.85l-1.95-13.02-5.34 13.02h-2.34l-5.07-13.02-1.95 13.02h-5.85zm41.995-9.93c-.18-.76-.55-1.37-1.11-1.83-.56-.46-1.24-.69-2.04-.69-.84 0-1.53.22-2.07.66-.52.44-.85 1.06-.99 1.86h6.21zm-6.36 3.15c0 2.34 1.1 3.51 3.3 3.51 1.18 0 2.07-.48 2.67-1.44h5.25c-1.06 3.52-3.71 5.28-7.95 5.28-1.3 0-2.49-.19-3.57-.57-1.08-.4-2.01-.96-2.79-1.68a7.519 7.519 0 01-1.77-2.58c-.42-1-.63-2.12-.63-3.36 0-1.28.2-2.43.6-3.45.4-1.04.97-1.92 1.71-2.64.74-.72 1.63-1.27 2.67-1.65 1.06-.4 2.25-.6 3.57-.6 1.3 0 2.47.2 3.51.6 1.04.38 1.92.94 2.64 1.68.72.74 1.27 1.65 1.65 2.73.38 1.06.57 2.26.57 3.6v.57h-11.43zm19.573-.96c0 .5.09.97.27 1.41.18.42.42.79.72 1.11.32.32.69.57 1.11.75.44.18.91.27 1.41.27.48 0 .93-.09 1.35-.27.44-.18.81-.43 1.11-.75.32-.32.57-.69.75-1.11.2-.42.3-.87.3-1.35 0-.48-.1-.93-.3-1.35-.18-.44-.43-.82-.75-1.14-.3-.32-.67-.57-1.11-.75a3.39 3.39 0 00-1.35-.27c-.48 0-.94.09-1.38.27-.42.18-.79.43-1.11.75-.3.32-.55.69-.75 1.11-.18.4-.27.84-.27 1.32zm6.84-17.16h5.46V26h-5.46v-1.71c-1.16 1.46-2.73 2.19-4.71 2.19-1.12 0-2.15-.21-3.09-.63-.94-.42-1.76-1-2.46-1.74s-1.25-1.61-1.65-2.61c-.38-1-.57-2.08-.57-3.24 0-1.1.18-2.14.54-3.12.38-1 .91-1.87 1.59-2.61.68-.74 1.49-1.32 2.43-1.74.96-.44 2.01-.66 3.15-.66 1.92 0 3.51.67 4.77 2.01V1.1zm14.585 9.51V26h-5.43V10.61h5.43zm-5.79-5.91c0-.42.08-.81.24-1.17.16-.38.38-.71.66-.99s.6-.5.96-.66c.38-.16.78-.24 1.2-.24.42 0 .81.08 1.17.24.38.16.71.38.99.66s.5.61.66.99c.16.36.24.75.24 1.17 0 .42-.08.82-.24 1.2-.16.36-.38.68-.66.96-.28.28-.61.5-.99.66-.36.16-.75.24-1.17.24-.42 0-.82-.08-1.2-.24-.36-.16-.68-.38-.96-.66-.28-.28-.5-.6-.66-.96-.16-.38-.24-.78-.24-1.2zm21.111 10.89c-.94-.64-1.89-.96-2.85-.96-.52 0-1.01.09-1.47.27-.44.18-.83.44-1.17.78a3.5 3.5 0 00-.81 1.17c-.18.44-.27.94-.27 1.5 0 .54.09 1.04.27 1.5.2.44.46.83.78 1.17.34.32.74.57 1.2.75.46.18.95.27 1.47.27 1.02 0 1.97-.35 2.85-1.05v4.62c-1.34.58-2.61.87-3.81.87a9.12 9.12 0 01-3.21-.57c-1-.38-1.89-.92-2.67-1.62a8.38 8.38 0 01-1.83-2.55c-.46-1-.69-2.11-.69-3.33 0-1.22.22-2.33.66-3.33a7.805 7.805 0 011.8-2.61 7.87 7.87 0 012.7-1.71c1.06-.42 2.19-.63 3.39-.63 1.32 0 2.54.28 3.66.84v4.62zm8.137 2.67c0 .5.09.97.27 1.41.18.42.42.79.72 1.11.32.32.69.57 1.11.75.44.18.91.27 1.41.27.48 0 .93-.09 1.35-.27.44-.18.81-.43 1.11-.75.32-.32.57-.69.75-1.11.2-.42.3-.87.3-1.35 0-.48-.1-.93-.3-1.35-.18-.44-.43-.82-.75-1.14-.3-.32-.67-.57-1.11-.75a3.39 3.39 0 00-1.35-.27c-.5 0-.97.09-1.41.27-.42.18-.79.43-1.11.75-.3.32-.54.69-.72 1.11-.18.4-.27.84-.27 1.32zm6.84-7.65h5.46V26h-5.46v-1.71c-1.16 1.46-2.73 2.19-4.71 2.19-1.12 0-2.15-.2-3.09-.6-.94-.42-1.76-1-2.46-1.74s-1.25-1.61-1.65-2.61c-.38-1-.57-2.09-.57-3.27 0-1.1.19-2.14.57-3.12.38-1 .91-1.87 1.59-2.61.68-.74 1.49-1.32 2.43-1.74.94-.44 1.98-.66 3.12-.66 1.92 0 3.51.67 4.77 2.01v-1.53zm9.155 0h5.43v2.52c.58-.92 1.29-1.62 2.13-2.1.84-.5 1.82-.75 2.94-.75h.45c.18 0 .38.02.6.06v5.19a5.16 5.16 0 00-2.34-.54c-1.26 0-2.21.38-2.85 1.14-.62.74-.93 1.83-.93 3.27V26h-5.43V10.61zm25.401 5.46c-.18-.76-.55-1.37-1.11-1.83-.56-.46-1.24-.69-2.04-.69-.84 0-1.53.22-2.07.66-.52.44-.85 1.06-.99 1.86h6.21zm-6.36 3.15c0 2.34 1.1 3.51 3.3 3.51 1.18 0 2.07-.48 2.67-1.44h5.25c-1.06 3.52-3.71 5.28-7.95 5.28-1.3 0-2.49-.19-3.57-.57-1.08-.4-2.01-.96-2.79-1.68a7.519 7.519 0 01-1.77-2.58c-.42-1-.63-2.12-.63-3.36 0-1.28.2-2.43.6-3.45.4-1.04.97-1.92 1.71-2.64.74-.72 1.63-1.27 2.67-1.65 1.06-.4 2.25-.6 3.57-.6 1.3 0 2.47.2 3.51.6 1.04.38 1.92.94 2.64 1.68.72.74 1.27 1.65 1.65 2.73.38 1.06.57 2.26.57 3.6v.57h-11.43zm14.264 3.9c0-.48.09-.93.27-1.35.18-.44.43-.82.75-1.14.32-.32.69-.57 1.11-.75.44-.18.9-.27 1.38-.27.48 0 .93.09 1.35.27.44.18.82.43 1.14.75.32.32.57.7.75 1.14.18.42.27.87.27 1.35 0 .48-.09.94-.27 1.38-.18.42-.43.79-.75 1.11-.32.32-.7.57-1.14.75-.42.18-.87.27-1.35.27-.48 0-.94-.09-1.38-.27a3.51 3.51 0 01-1.86-1.86c-.18-.44-.27-.9-.27-1.38z" fill="#fff"/></svg>