<svg width="348" height="54" viewBox="0 0 348 54" fill="none" xmlns="http://www.w3.org/2000/svg"><path d="M12.948 4.677l-2.492 1.476c-.465-.808-.91-1.336-1.331-1.582-.44-.281-1.006-.422-1.7-.422-.853 0-1.56.242-2.123.726-.563.474-.844 1.072-.844 1.792 0 .994.738 1.793 2.215 2.4l2.03.83c1.652.668 2.861 1.486 3.626 2.453.764.958 1.147 2.135 1.147 3.533 0 1.872-.624 3.419-1.873 4.64-1.256 1.23-2.816 1.846-4.68 1.846-1.766 0-3.225-.523-4.377-1.569-1.133-1.046-1.84-2.518-2.122-4.416l3.111-.686c.14 1.196.387 2.022.738 2.479.633.879 1.556 1.318 2.769 1.318.958 0 1.753-.32 2.386-.962.633-.642.95-1.455.95-2.44 0-.395-.058-.755-.172-1.08a2.537 2.537 0 00-.514-.91 3.761 3.761 0 00-.897-.778 8.312 8.312 0 00-1.318-.698l-1.964-.818c-2.786-1.178-4.18-2.9-4.18-5.168 0-1.53.585-2.808 1.754-3.836C4.256 1.768 5.71 1.249 7.45 1.249c2.346 0 4.179 1.143 5.497 3.428zm6.632 4.482V22h-2.967V9.16h2.967zm-3.415-5.34c0-.518.189-.966.567-1.344.378-.378.83-.567 1.358-.567.536 0 .993.19 1.37.567.379.37.568.822.568 1.358 0 .536-.19.993-.567 1.371-.37.378-.822.567-1.358.567-.536 0-.993-.189-1.371-.567a1.883 1.883 0 01-.567-1.384zm18.866 12.46h-9.202c.079 1.054.421 1.893 1.028 2.517.606.616 1.384.923 2.333.923.739 0 1.35-.175 1.833-.527.475-.352 1.015-1.002 1.622-1.951l2.504 1.397c-.386.66-.795 1.226-1.226 1.7A6.79 6.79 0 0132.54 21.5a5.66 5.66 0 01-1.595.66c-.571.14-1.191.21-1.859.21-1.916 0-3.454-.615-4.614-1.846-1.16-1.239-1.74-2.882-1.74-4.93 0-2.03.562-3.674 1.687-4.93 1.134-1.24 2.637-1.86 4.509-1.86 1.89 0 3.383.602 4.482 1.806 1.09 1.196 1.635 2.852 1.635 4.97l-.013.7zm-3.046-2.427c-.413-1.582-1.41-2.373-2.992-2.373-.36 0-.7.058-1.015.172a2.8 2.8 0 00-.87.475 2.96 2.96 0 00-.66.738 3.46 3.46 0 00-.422.988h5.96zm6.302-4.693h2.966v1.187c.572-.598 1.06-1.002 1.464-1.213.43-.22.971-.33 1.621-.33 1.45 0 2.597.633 3.441 1.899.932-1.266 2.193-1.899 3.784-1.899 2.892 0 4.337 1.754 4.337 5.26V22h-2.98v-7.132c0-1.23-.148-2.1-.447-2.61-.308-.52-.813-.778-1.517-.778-.817 0-1.415.307-1.792.922-.37.616-.554 1.604-.554 2.967V22h-2.98v-7.093c0-2.285-.659-3.428-1.977-3.428-.835 0-1.446.313-1.833.937-.378.624-.567 1.608-.567 2.953V22h-2.966V9.16zm24.667 19.828h-2.967V9.16h2.967v1.398c1.169-1.17 2.496-1.754 3.981-1.754 1.767 0 3.221.65 4.364 1.951 1.16 1.292 1.74 2.923 1.74 4.892 0 1.924-.576 3.528-1.727 4.811-1.143 1.275-2.584 1.912-4.324 1.912-1.503 0-2.848-.602-4.034-1.806v8.424zm7.053-13.328c0-1.23-.334-2.233-1.002-3.006-.677-.782-1.53-1.174-2.558-1.174-1.09 0-1.973.378-2.65 1.134-.676.756-1.015 1.75-1.015 2.98 0 1.204.339 2.197 1.015 2.98.668.764 1.547 1.146 2.637 1.146 1.028 0 1.877-.387 2.544-1.16.686-.773 1.029-1.74 1.029-2.9zm6.17-6.5h2.966v1.147c.545-.571 1.028-.962 1.45-1.173.43-.22.94-.33 1.53-.33.782 0 1.6.255 2.452.765l-1.358 2.716c-.563-.405-1.112-.607-1.648-.607-1.617 0-2.426 1.222-2.426 3.665V22h-2.966V9.16zm21.608 7.12h-9.203c.08 1.054.422 1.893 1.029 2.517.606.616 1.384.923 2.333.923.739 0 1.35-.175 1.833-.527.474-.352 1.015-1.002 1.621-1.951l2.505 1.397c-.386.66-.795 1.226-1.226 1.7-.43.467-.892.853-1.384 1.161a5.66 5.66 0 01-1.595.66c-.572.14-1.191.21-1.86.21-1.915 0-3.453-.615-4.613-1.846-1.16-1.239-1.74-2.882-1.74-4.93 0-2.03.562-3.674 1.687-4.93 1.134-1.24 2.637-1.86 4.509-1.86 1.89 0 3.383.602 4.482 1.806 1.09 1.196 1.635 2.852 1.635 4.97l-.013.7zm-3.046-2.427c-.413-1.582-1.41-2.373-2.992-2.373-.36 0-.7.058-1.016.172a2.8 2.8 0 00-.87.475 2.96 2.96 0 00-.659.738c-.184.29-.325.62-.422.988h5.96zm14.634-4.693h2.966v1.147c.545-.571 1.029-.962 1.451-1.173.43-.22.94-.33 1.529-.33.782 0 1.599.255 2.452.765l-1.358 2.716c-.562-.405-1.112-.607-1.648-.607-1.617 0-2.426 1.222-2.426 3.665V22h-2.966V9.16zm21.608 7.12h-9.202c.079 1.054.422 1.893 1.028 2.517.607.616 1.384.923 2.334.923.738 0 1.349-.175 1.832-.527.475-.352 1.015-1.002 1.622-1.951l2.505 1.397c-.387.66-.796 1.226-1.226 1.7a6.808 6.808 0 01-1.385 1.161 5.66 5.66 0 01-1.595.66c-.571.14-1.191.21-1.859.21-1.916 0-3.454-.615-4.614-1.846-1.16-1.239-1.74-2.882-1.74-4.93 0-2.03.562-3.674 1.687-4.93 1.134-1.24 2.637-1.86 4.509-1.86 1.89 0 3.384.602 4.482 1.806 1.09 1.196 1.635 2.852 1.635 4.97l-.013.7zm-3.045-2.427c-.414-1.582-1.411-2.373-2.993-2.373-.36 0-.699.058-1.015.172a2.785 2.785 0 00-.87.475 2.97 2.97 0 00-.66.738c-.184.29-.325.62-.421.988h5.959zm7.422-4.693l3.322 7.212 3.309-7.212h3.336l-6.671 13.724-6.618-13.724h3.322zm14.95 0V22h-2.966V9.16h2.966zm-3.414-5.34c0-.518.189-.966.566-1.344a1.853 1.853 0 011.358-.567c.536 0 .994.19 1.371.567.378.37.567.822.567 1.358 0 .536-.189.993-.567 1.371a1.823 1.823 0 01-1.357.567c-.537 0-.994-.189-1.372-.567a1.886 1.886 0 01-.566-1.384zm14.633 7.529l-2.452 1.305c-.387-.791-.866-1.187-1.437-1.187a.978.978 0 00-.699.277.884.884 0 00-.29.686c0 .492.572.98 1.714 1.463 1.574.677 2.633 1.3 3.178 1.872.544.571.817 1.34.817 2.307 0 1.24-.457 2.277-1.371 3.112-.888.79-1.96 1.186-3.217 1.186-2.153 0-3.678-1.05-4.575-3.15l2.532-1.174c.351.615.619 1.006.804 1.173.36.334.791.501 1.292.501 1.002 0 1.503-.457 1.503-1.37 0-.528-.387-1.02-1.16-1.477-.299-.15-.598-.295-.897-.436a83.56 83.56 0 01-.91-.434c-.861-.422-1.467-.844-1.819-1.266-.448-.536-.672-1.226-.672-2.07 0-1.116.382-2.039 1.147-2.769.782-.729 1.731-1.094 2.847-1.094 1.644 0 2.866.848 3.665 2.545zM174.5 9.159h2.979V22H174.5v-1.345c-1.222 1.143-2.536 1.714-3.942 1.714-1.775 0-3.243-.642-4.403-1.925-1.152-1.31-1.727-2.944-1.727-4.904 0-1.925.575-3.529 1.727-4.812 1.151-1.283 2.593-1.925 4.324-1.925 1.494 0 2.834.615 4.021 1.846v-1.49zm-7.04 6.381c0 1.23.33 2.233.989 3.006.676.782 1.529 1.173 2.557 1.173 1.099 0 1.987-.378 2.663-1.134.677-.782 1.016-1.775 1.016-2.979 0-1.204-.339-2.197-1.016-2.98-.676-.764-1.555-1.146-2.636-1.146-1.02 0-1.872.386-2.558 1.16-.677.782-1.015 1.749-1.015 2.9zm26.779-2.952V22h-4.706v-9.412h-1.56V8.662h1.56V4.658h4.706v4.004h2.678v3.926h-2.678zm9.153-3.926v7.514c0 1.647.798 2.47 2.392 2.47 1.595 0 2.392-.823 2.392-2.47V8.662h4.706v8.424c0 1.803-.598 3.155-1.794 4.056-1.178.901-2.946 1.352-5.304 1.352-2.357 0-4.134-.45-5.33-1.352-1.178-.901-1.768-2.253-1.768-4.056V8.662h4.706zm21.527 3.432c-.867-.45-1.716-.676-2.548-.676-.434 0-.789.087-1.066.26-.26.173-.39.407-.39.702 0 .156.017.286.052.39a.849.849 0 00.286.26c.156.087.372.165.65.234.294.07.676.156 1.144.26 1.3.26 2.27.728 2.912 1.404.641.659.962 1.508.962 2.548 0 .78-.156 1.482-.468 2.106a4.608 4.608 0 01-1.3 1.586c-.555.416-1.222.737-2.002.962-.78.243-1.638.364-2.574.364-1.803 0-3.58-.511-5.33-1.534l1.716-3.328c1.317.901 2.565 1.352 3.744 1.352.433 0 .788-.095 1.066-.286.277-.19.416-.433.416-.728a.937.937 0 00-.078-.416.56.56 0 00-.26-.312c-.139-.104-.347-.19-.624-.26a9.012 9.012 0 00-1.04-.26c-1.456-.295-2.479-.728-3.068-1.3-.572-.59-.858-1.395-.858-2.418 0-.745.138-1.413.416-2.002a4.14 4.14 0 011.196-1.534c.52-.416 1.144-.737 1.872-.962.745-.225 1.568-.338 2.47-.338 1.473 0 2.903.286 4.29.858l-1.586 3.068zm18.32.494V22h-4.706v-9.412h-1.69V8.662h1.69V6.66c0-1.11.104-1.993.312-2.652a4.588 4.588 0 01.832-1.534 6.067 6.067 0 011.326-1.248 6.716 6.716 0 011.664-.806 5.64 5.64 0 011.742-.286c.399 0 .763.043 1.092.13.347.087.694.208 1.04.364v4.108a4.341 4.341 0 00-.884-.338 2.613 2.613 0 00-.832-.13c-.19 0-.39.035-.598.104-.19.052-.372.173-.546.364-.173.19-.294.468-.364.832-.052.347-.078.823-.078 1.43v1.664h3.302v3.926h-3.302zm9.708 2.704c0 .433.078.84.234 1.222.156.364.364.685.624.962.277.277.598.494.962.65.381.156.788.234 1.222.234.416 0 .806-.078 1.17-.234a2.7 2.7 0 00.962-.65c.277-.277.494-.598.65-.962.173-.364.26-.754.26-1.17 0-.416-.087-.806-.26-1.17a2.975 2.975 0 00-.65-.988 2.7 2.7 0 00-.962-.65 2.938 2.938 0 00-1.17-.234c-.434 0-.841.078-1.222.234a3.04 3.04 0 00-.962.65c-.26.277-.468.598-.624.962a2.756 2.756 0 00-.234 1.144zm5.928-6.63h4.732V22h-4.732v-1.482c-1.006 1.265-2.366 1.898-4.082 1.898-.971 0-1.864-.173-2.678-.52a6.614 6.614 0 01-2.132-1.508 7.062 7.062 0 01-1.43-2.262c-.33-.867-.494-1.811-.494-2.834a7.4 7.4 0 01.494-2.704 6.937 6.937 0 011.378-2.262 6.33 6.33 0 012.106-1.508c.814-.381 1.716-.572 2.704-.572 1.664 0 3.042.58 4.134 1.742V8.662zm17.996 4.316c-.814-.555-1.638-.832-2.47-.832-.45 0-.875.078-1.274.234a3.066 3.066 0 00-1.014.676 3.052 3.052 0 00-.702 1.014 3.408 3.408 0 00-.234 1.3c0 .468.078.901.234 1.3.174.381.399.72.676 1.014.295.277.642.494 1.04.65.399.156.824.234 1.274.234.884 0 1.708-.303 2.47-.91v4.004c-1.161.503-2.262.754-3.302.754-.97 0-1.898-.165-2.782-.494a7.337 7.337 0 01-2.314-1.404 7.28 7.28 0 01-1.586-2.21c-.398-.867-.598-1.829-.598-2.886 0-1.057.191-2.02.572-2.886a6.783 6.783 0 011.56-2.262 6.828 6.828 0 012.34-1.482 7.904 7.904 0 012.938-.546c1.144 0 2.202.243 3.172.728v4.004zm7.936-.39V22h-4.706v-9.412h-1.56V8.662h1.56V4.658h4.706v4.004h2.678v3.926h-2.678zm9.154-3.926v7.514c0 1.647.797 2.47 2.392 2.47 1.594 0 2.392-.823 2.392-2.47V8.662h4.706v8.424c0 1.803-.598 3.155-1.794 4.056-1.179.901-2.947 1.352-5.304 1.352-2.358 0-4.134-.45-5.33-1.352-1.179-.901-1.768-2.253-1.768-4.056V8.662h4.706zm12.686 0h4.706v2.184c.503-.797 1.118-1.404 1.846-1.82.728-.433 1.577-.65 2.548-.65h.39c.156 0 .329.017.52.052v4.498a4.471 4.471 0 00-2.028-.468c-1.092 0-1.915.33-2.47.988-.537.641-.806 1.586-.806 2.834V22h-4.706V8.662zm16.632 6.63c0 .433.078.84.234 1.222.156.364.364.685.624.962.277.277.598.494.962.65.381.156.788.234 1.222.234.416 0 .806-.078 1.17-.234a2.7 2.7 0 00.962-.65c.277-.277.494-.598.65-.962.173-.364.26-.754.26-1.17 0-.416-.087-.806-.26-1.17a2.975 2.975 0 00-.65-.988 2.7 2.7 0 00-.962-.65 2.938 2.938 0 00-1.17-.234c-.434 0-.841.078-1.222.234a3.04 3.04 0 00-.962.65c-.26.277-.468.598-.624.962a2.756 2.756 0 00-.234 1.144zm5.928-6.63h4.732V22h-4.732v-1.482c-1.006 1.265-2.366 1.898-4.082 1.898-.971 0-1.864-.173-2.678-.52a6.614 6.614 0 01-2.132-1.508 7.062 7.062 0 01-1.43-2.262c-.33-.867-.494-1.811-.494-2.834a7.4 7.4 0 01.494-2.704 6.937 6.937 0 011.378-2.262 6.33 6.33 0 012.106-1.508c.814-.381 1.716-.572 2.704-.572 1.664 0 3.042.58 4.134 1.742V8.662zm16.774 3.432c-.866-.45-1.716-.676-2.548-.676-.433 0-.788.087-1.066.26-.26.173-.39.407-.39.702 0 .156.018.286.052.39a.859.859 0 00.286.26c.156.087.373.165.65.234.295.07.676.156 1.144.26 1.3.26 2.271.728 2.912 1.404.642.659.962 1.508.962 2.548 0 .78-.156 1.482-.468 2.106a4.597 4.597 0 01-1.3 1.586c-.554.416-1.222.737-2.002.962-.78.243-1.638.364-2.574.364-1.802 0-3.579-.511-5.33-1.534l1.716-3.328c1.318.901 2.566 1.352 3.744 1.352.434 0 .789-.095 1.066-.286.278-.19.416-.433.416-.728a.937.937 0 00-.078-.416.551.551 0 00-.26-.312c-.138-.104-.346-.19-.624-.26a8.959 8.959 0 00-1.04-.26c-1.456-.295-2.478-.728-3.068-1.3-.572-.59-.858-1.395-.858-2.418 0-.745.139-1.413.416-2.002a4.151 4.151 0 011.196-1.534c.52-.416 1.144-.737 1.872-.962.746-.225 1.569-.338 2.47-.338 1.474 0 2.904.286 4.29.858l-1.586 3.068zM4.98 46.292c0 .433.078.84.234 1.222.156.364.364.685.624.962.277.277.598.494.962.65.381.156.789.234 1.222.234.416 0 .806-.078 1.17-.234.381-.156.702-.373.962-.65.277-.277.494-.598.65-.962.173-.364.26-.754.26-1.17 0-.416-.087-.806-.26-1.17a2.97 2.97 0 00-.65-.988 2.698 2.698 0 00-.962-.65 2.938 2.938 0 00-1.17-.234c-.416 0-.815.078-1.196.234a3.043 3.043 0 00-.962.65c-.26.277-.477.598-.65.962a2.756 2.756 0 00-.234 1.144zm5.928-14.872h4.732V53h-4.732v-1.482c-1.005 1.265-2.366 1.898-4.082 1.898-.97 0-1.863-.182-2.678-.546a6.625 6.625 0 01-2.132-1.508A7.08 7.08 0 01.586 49.1a7.84 7.84 0 01-.494-2.808c0-.953.156-1.855.468-2.704.33-.867.789-1.62 1.378-2.262a6.337 6.337 0 012.106-1.508c.832-.381 1.742-.572 2.73-.572 1.664 0 3.042.58 4.134 1.742V31.42zm17.684 12.974c-.155-.659-.476-1.187-.961-1.586-.486-.399-1.075-.598-1.768-.598-.729 0-1.326.19-1.794.572-.451.381-.737.919-.858 1.612h5.382zm-5.511 2.73c0 2.028.953 3.042 2.86 3.042 1.022 0 1.794-.416 2.314-1.248h4.55c-.92 3.05-3.216 4.576-6.89 4.576-1.127 0-2.159-.165-3.095-.494a7.211 7.211 0 01-2.418-1.456 6.515 6.515 0 01-1.534-2.236c-.363-.867-.545-1.837-.545-2.912 0-1.11.173-2.106.52-2.99.346-.901.84-1.664 1.482-2.288a6.437 6.437 0 012.314-1.43c.918-.347 1.95-.52 3.094-.52 1.126 0 2.14.173 3.041.52.902.33 1.665.815 2.288 1.456.624.641 1.101 1.43 1.43 2.366.33.919.495 1.959.495 3.12v.494H23.08zM44.07 53l3.327-19.604h5.044l3.926 10.452 3.9-10.452h5.044L68.64 53h-5.07l-1.69-11.284L57.252 53h-2.028L50.83 41.716 49.14 53h-5.07zm36.395-8.606c-.156-.659-.477-1.187-.962-1.586-.486-.399-1.075-.598-1.769-.598-.728 0-1.326.19-1.793.572-.451.381-.737.919-.858 1.612h5.382zm-5.512 2.73c0 2.028.953 3.042 2.86 3.042 1.022 0 1.794-.416 2.314-1.248h4.55c-.92 3.05-3.216 4.576-6.89 4.576-1.127 0-2.159-.165-3.094-.494a7.211 7.211 0 01-2.419-1.456 6.515 6.515 0 01-1.534-2.236c-.364-.867-.546-1.837-.546-2.912 0-1.11.174-2.106.52-2.99.347-.901.841-1.664 1.483-2.288a6.438 6.438 0 012.314-1.43c.918-.347 1.95-.52 3.094-.52 1.126 0 2.14.173 3.041.52.902.33 1.664.815 2.288 1.456.624.641 1.101 1.43 1.43 2.366.33.919.495 1.959.495 3.12v.494h-9.906zm16.964-.832c0 .433.078.84.233 1.222.157.364.365.685.624.962.278.277.599.494.962.65.382.156.79.234 1.223.234.416 0 .806-.078 1.17-.234.38-.156.702-.373.962-.65.277-.277.493-.598.65-.962.173-.364.26-.754.26-1.17 0-.416-.087-.806-.26-1.17a2.97 2.97 0 00-.65-.988 2.698 2.698 0 00-.963-.65 2.938 2.938 0 00-1.17-.234c-.416 0-.814.078-1.196.234a3.043 3.043 0 00-.962.65c-.26.277-.476.598-.65.962a2.756 2.756 0 00-.233 1.144zm5.927-14.872h4.733V53h-4.733v-1.482c-1.005 1.265-2.365 1.898-4.082 1.898-.97 0-1.863-.182-2.678-.546a6.625 6.625 0 01-2.131-1.508 7.08 7.08 0 01-1.43-2.262 7.84 7.84 0 01-.495-2.808c0-.953.157-1.855.469-2.704.329-.867.788-1.62 1.377-2.262a6.337 6.337 0 012.106-1.508c.833-.381 1.743-.572 2.73-.572 1.665 0 3.043.58 4.135 1.742V31.42zm12.641 8.242V53h-4.706V39.662h4.706zm-5.018-5.122c0-.364.069-.702.208-1.014.139-.33.329-.615.572-.858.243-.243.52-.433.832-.572a2.651 2.651 0 011.04-.208c.364 0 .702.07 1.014.208.329.139.615.33.858.572.243.243.433.529.572.858.139.312.208.65.208 1.014s-.069.71-.208 1.04c-.139.312-.329.59-.572.832a2.665 2.665 0 01-.858.572c-.312.139-.65.208-1.014.208s-.711-.07-1.04-.208a2.746 2.746 0 01-.832-.572 2.743 2.743 0 01-.572-.832 2.647 2.647 0 01-.208-1.04zm18.296 9.438c-.815-.555-1.638-.832-2.47-.832-.451 0-.875.078-1.274.234a3.066 3.066 0 00-1.014.676 3.024 3.024 0 00-.702 1.014 3.408 3.408 0 00-.234 1.3c0 .468.078.901.234 1.3.173.381.399.72.676 1.014.295.277.641.494 1.04.65.399.156.823.234 1.274.234.884 0 1.707-.303 2.47-.91v4.004c-1.161.503-2.262.754-3.302.754a7.903 7.903 0 01-2.782-.494 7.325 7.325 0 01-2.314-1.404 7.263 7.263 0 01-1.586-2.21c-.399-.867-.598-1.829-.598-2.886 0-1.057.191-2.02.572-2.886a6.754 6.754 0 011.56-2.262 6.829 6.829 0 012.34-1.482 7.904 7.904 0 012.938-.546c1.144 0 2.201.243 3.172.728v4.004zm7.052 2.314c0 .433.078.84.234 1.222.156.364.364.685.624.962.277.277.598.494.962.65.381.156.789.234 1.222.234.416 0 .806-.078 1.17-.234a2.7 2.7 0 00.962-.65c.277-.277.494-.598.65-.962.173-.364.26-.754.26-1.17 0-.416-.087-.806-.26-1.17a2.975 2.975 0 00-.65-.988 2.7 2.7 0 00-.962-.65 2.938 2.938 0 00-1.17-.234c-.433 0-.841.078-1.222.234a3.04 3.04 0 00-.962.65c-.26.277-.468.598-.624.962a2.756 2.756 0 00-.234 1.144zm5.928-6.63h4.732V53h-4.732v-1.482c-1.005 1.265-2.366 1.898-4.082 1.898-.971 0-1.863-.173-2.678-.52a6.625 6.625 0 01-2.132-1.508 7.08 7.08 0 01-1.43-2.262c-.329-.867-.494-1.811-.494-2.834 0-.953.165-1.855.494-2.704a6.954 6.954 0 011.378-2.262 6.33 6.33 0 012.106-1.508c.815-.381 1.716-.572 2.704-.572 1.664 0 3.042.58 4.134 1.742v-1.326zm7.934 0h4.706v2.184c.503-.797 1.118-1.404 1.846-1.82.728-.433 1.578-.65 2.548-.65h.39c.156 0 .33.017.52.052v4.498a4.471 4.471 0 00-2.028-.468c-1.092 0-1.915.33-2.47.988-.537.641-.806 1.586-.806 2.834V53h-4.706V39.662zm22.014 4.732c-.156-.659-.477-1.187-.962-1.586s-1.075-.598-1.768-.598c-.728 0-1.326.19-1.794.572-.451.381-.737.919-.858 1.612h5.382zm-5.512 2.73c0 2.028.953 3.042 2.86 3.042 1.023 0 1.794-.416 2.314-1.248h4.55c-.919 3.05-3.215 4.576-6.89 4.576-1.127 0-2.158-.165-3.094-.494a7.211 7.211 0 01-2.418-1.456 6.511 6.511 0 01-1.534-2.236c-.364-.867-.546-1.837-.546-2.912 0-1.11.173-2.106.52-2.99.347-.901.841-1.664 1.482-2.288a6.438 6.438 0 012.314-1.43c.919-.347 1.95-.52 3.094-.52 1.127 0 2.141.173 3.042.52.901.33 1.664.815 2.288 1.456.624.641 1.101 1.43 1.43 2.366.329.919.494 1.959.494 3.12v.494h-9.906zm11.832 4.34c0-.256.048-.496.144-.72.096-.235.229-.437.4-.608.171-.17.368-.304.592-.4a1.927 1.927 0 011.456 0c.235.096.437.23.608.4.171.17.304.373.4.608a1.926 1.926 0 010 1.456 1.827 1.827 0 01-1.008.992 1.927 1.927 0 01-1.456 0 1.875 1.875 0 01-.992-.992 1.926 1.926 0 01-.144-.736zm5.438 0c0-.256.048-.496.144-.72.096-.235.229-.437.4-.608.17-.17.368-.304.592-.4a1.923 1.923 0 011.456 0c.234.096.437.23.608.4.17.17.304.373.4.608a1.926 1.926 0 010 1.456 1.838 1.838 0 01-1.008.992 1.923 1.923 0 01-1.456 0 1.864 1.864 0 01-1.136-1.728zm5.437 0c0-.256.048-.496.144-.72.096-.235.229-.437.4-.608.171-.17.368-.304.592-.4a1.927 1.927 0 011.456 0c.235.096.437.23.608.4.171.17.304.373.4.608a1.926 1.926 0 010 1.456 1.827 1.827 0 01-1.008.992 1.927 1.927 0 01-1.456 0 1.875 1.875 0 01-.992-.992 1.926 1.926 0 01-.144-.736z" fill="#fff"/></svg>