<svg width="504" height="30" viewBox="0 0 504 30" fill="none" xmlns="http://www.w3.org/2000/svg"><path d="M.333 20.523c0-.492.18-.918.541-1.278.36-.36.791-.54 1.292-.54s.932.18 1.292.54c.36.36.54.79.54 1.292 0 .51-.18.944-.54 1.305a1.757 1.757 0 01-1.292.527c-.519 0-.954-.176-1.305-.527-.352-.352-.528-.791-.528-1.319zm5.903 0c0-.492.18-.918.54-1.278.36-.36.791-.54 1.292-.54s.932.18 1.292.54c.36.36.54.79.54 1.292 0 .51-.18.944-.54 1.305a1.757 1.757 0 01-1.292.527c-.519 0-.954-.176-1.305-.527-.352-.352-.527-.791-.527-1.319zm5.902 0c0-.492.18-.918.54-1.278.36-.36.791-.54 1.292-.54s.932.18 1.292.54c.36.36.54.79.54 1.292 0 .51-.18.944-.54 1.305a1.757 1.757 0 01-1.292.527c-.519 0-.954-.176-1.305-.527-.352-.352-.527-.791-.527-1.319zm8.586 8.723h-3.076V8.684h3.076v1.449c1.212-1.212 2.588-1.819 4.129-1.819 1.832 0 3.34.675 4.525 2.024 1.203 1.34 1.805 3.03 1.805 5.072 0 1.996-.597 3.66-1.791 4.99-1.185 1.322-2.68 1.983-4.485 1.983-1.558 0-2.953-.624-4.183-1.873v8.736zm7.314-13.822c0-1.276-.346-2.315-1.039-3.117-.702-.812-1.586-1.217-2.652-1.217-1.13 0-2.047.392-2.748 1.176-.702.784-1.053 1.813-1.053 3.09 0 1.248.35 2.278 1.053 3.09.692.792 1.604 1.189 2.734 1.189 1.067 0 1.946-.401 2.639-1.203.71-.802 1.066-1.805 1.066-3.008zm16.215-6.74h3.09V22h-3.09v-1.395c-1.267 1.185-2.63 1.778-4.088 1.778-1.841 0-3.363-.666-4.566-1.996-1.194-1.358-1.791-3.054-1.791-5.086 0-1.996.597-3.66 1.79-4.99 1.195-1.331 2.69-1.997 4.485-1.997 1.55 0 2.94.638 4.17 1.915V8.684zm-7.3 6.617c0 1.276.341 2.315 1.025 3.117.701.811 1.585 1.217 2.652 1.217 1.14 0 2.06-.392 2.762-1.176.701-.811 1.052-1.841 1.052-3.09 0-1.249-.35-2.278-1.052-3.09-.702-.793-1.614-1.19-2.735-1.19-1.057 0-1.941.402-2.652 1.204-.702.811-1.053 1.814-1.053 3.008zm14.273-6.617h3.076v1.189c.565-.592 1.066-.998 1.504-1.217.446-.228.975-.342 1.586-.342.81 0 1.658.265 2.543.793l-1.409 2.817c-.583-.42-1.153-.63-1.709-.63-1.677 0-2.515 1.268-2.515 3.802V22h-3.076V8.684zm20.097 0h3.09V22h-3.09v-1.395c-1.267 1.185-2.63 1.778-4.088 1.778-1.84 0-3.363-.666-4.566-1.996-1.194-1.358-1.791-3.054-1.791-5.086 0-1.996.597-3.66 1.791-4.99 1.194-1.331 2.689-1.997 4.484-1.997 1.55 0 2.94.638 4.17 1.915V8.684zm-7.3 6.617c0 1.276.341 2.315 1.025 3.117.702.811 1.586 1.217 2.652 1.217 1.14 0 2.06-.392 2.762-1.176.702-.811 1.053-1.841 1.053-3.09 0-1.249-.351-2.278-1.053-3.09-.702-.793-1.613-1.19-2.734-1.19-1.058 0-1.942.402-2.653 1.204-.702.811-1.053 1.814-1.053 3.008zm32.73-6.617h3.09V22h-3.09v-1.395c-1.267 1.185-2.63 1.778-4.088 1.778-1.841 0-3.363-.666-4.566-1.996-1.194-1.358-1.791-3.054-1.791-5.086 0-1.996.597-3.66 1.79-4.99 1.195-1.331 2.69-1.997 4.485-1.997 1.55 0 2.94.638 4.17 1.915V8.684zm-7.3 6.617c0 1.276.341 2.315 1.025 3.117.701.811 1.586 1.217 2.652 1.217 1.14 0 2.06-.392 2.762-1.176.702-.811 1.052-1.841 1.052-3.09 0-1.249-.35-2.278-1.052-3.09-.702-.793-1.614-1.19-2.735-1.19-1.057 0-1.941.402-2.652 1.204-.702.811-1.053 1.814-1.053 3.008zm22.011-4.348l-2.543 1.354c-.401-.82-.898-1.23-1.49-1.23-.283 0-.524.095-.725.286a.918.918 0 00-.301.711c0 .51.593 1.017 1.778 1.518 1.631.702 2.729 1.349 3.295 1.941.565.593.847 1.39.847 2.393 0 1.285-.474 2.36-1.422 3.226-.92.82-2.032 1.23-3.336 1.23-2.233 0-3.814-1.088-4.744-3.267l2.625-1.217c.365.639.643 1.044.834 1.217.374.347.821.52 1.34.52 1.039 0 1.559-.474 1.559-1.422 0-.547-.401-1.057-1.203-1.531-.31-.155-.62-.306-.93-.451a86.03 86.03 0 01-.943-.452c-.894-.437-1.523-.875-1.887-1.312-.465-.556-.697-1.272-.697-2.147 0-1.157.396-2.114 1.189-2.87.811-.757 1.796-1.136 2.953-1.136 1.705 0 2.971.88 3.801 2.64zm15.764 5.113h-9.543c.082 1.094.437 1.965 1.066 2.612.629.638 1.436.957 2.42.957.766 0 1.399-.183 1.9-.547.493-.365 1.053-1.04 1.682-2.024l2.598 1.45a10.562 10.562 0 01-1.272 1.763 7.033 7.033 0 01-1.435 1.203 5.878 5.878 0 01-1.655.684 8.05 8.05 0 01-1.927.219c-1.987 0-3.582-.638-4.786-1.914-1.203-1.285-1.804-2.99-1.804-5.114 0-2.105.583-3.81 1.75-5.113 1.175-1.285 2.734-1.928 4.675-1.928 1.96 0 3.51.625 4.649 1.873 1.13 1.24 1.695 2.958 1.695 5.155l-.013.724zm-3.159-2.515c-.428-1.64-1.463-2.461-3.103-2.461-.374 0-.725.06-1.053.178-.328.109-.629.273-.902.492a3.07 3.07 0 00-.684.765c-.191.301-.337.643-.437 1.026h6.179zm19.414 8.135c0 .628-.022 1.18-.068 1.654a10.53 10.53 0 01-.164 1.271c-.219 1.003-.647 1.864-1.285 2.584-1.203 1.386-2.858 2.078-4.963 2.078-1.777 0-3.24-.478-4.389-1.435-1.185-.985-1.868-2.347-2.05-4.088h3.089c.119.656.315 1.162.588 1.518.638.829 1.568 1.244 2.789 1.244 2.252 0 3.377-1.381 3.377-4.143v-1.86c-1.221 1.25-2.629 1.874-4.224 1.874-1.814 0-3.3-.656-4.457-1.969-1.167-1.33-1.75-2.994-1.75-4.99 0-1.942.542-3.591 1.627-4.95 1.166-1.44 2.707-2.16 4.621-2.16 1.677 0 3.071.625 4.183 1.873V8.684h3.076v13.002zm-2.953-6.317c0-1.294-.346-2.329-1.039-3.103-.702-.793-1.599-1.19-2.693-1.19-1.167 0-2.087.433-2.762 1.299-.61.775-.916 1.777-.916 3.008 0 1.212.306 2.206.916 2.98.666.848 1.586 1.272 2.762 1.272s2.105-.429 2.789-1.285c.629-.775.943-1.769.943-2.98zm9.912-6.685v7.642c0 2.206.871 3.309 2.612 3.309s2.611-1.103 2.611-3.309V8.684h3.076v7.71c0 1.067-.132 1.988-.396 2.762-.255.693-.697 1.317-1.326 1.873-1.039.903-2.361 1.354-3.965 1.354-1.595 0-2.912-.451-3.951-1.354-.638-.556-1.09-1.18-1.354-1.873-.255-.62-.383-1.54-.383-2.761V8.684h3.076zm12.182 0h3.076v1.189c.565-.592 1.067-.998 1.504-1.217.447-.228.975-.342 1.586-.342.811 0 1.659.265 2.543.793l-1.408 2.817c-.583-.42-1.153-.63-1.709-.63-1.677 0-2.516 1.268-2.516 3.802V22h-3.076V8.684zm20.098 0h3.09V22h-3.09v-1.395c-1.267 1.185-2.63 1.778-4.088 1.778-1.841 0-3.363-.666-4.567-1.996-1.194-1.358-1.791-3.054-1.791-5.086 0-1.996.597-3.66 1.791-4.99 1.194-1.331 2.689-1.997 4.485-1.997 1.549 0 2.939.638 4.17 1.915V8.684zm-7.301 6.617c0 1.276.342 2.315 1.025 3.117.702.811 1.586 1.217 2.653 1.217 1.139 0 2.06-.392 2.761-1.176.702-.811 1.053-1.841 1.053-3.09 0-1.249-.351-2.278-1.053-3.09-.701-.793-1.613-1.19-2.734-1.19-1.057 0-1.941.402-2.652 1.204-.702.811-1.053 1.814-1.053 3.008zm14.273-6.617h3.077v1.189c.565-.592 1.066-.998 1.503-1.217.447-.228.976-.342 1.586-.342.812 0 1.659.265 2.543.793l-1.408 2.817c-.583-.42-1.153-.63-1.709-.63-1.677 0-2.515 1.268-2.515 3.802V22h-3.077V8.684zm14.657 2.87V22h-3.077V11.555h-1.312V8.684h1.312V3.803h3.077v4.88h2.392v2.872h-2.392zm16.857 4.512h-9.543c.082 1.094.438 1.965 1.066 2.612.629.638 1.436.957 2.42.957.766 0 1.4-.183 1.901-.547.492-.365 1.053-1.04 1.681-2.024l2.598 1.45a10.617 10.617 0 01-1.271 1.763 7.065 7.065 0 01-1.436 1.203c-.51.31-1.062.538-1.654.684a8.059 8.059 0 01-1.928.219c-1.987 0-3.582-.638-4.785-1.914-1.203-1.285-1.805-2.99-1.805-5.114 0-2.105.584-3.81 1.75-5.113 1.176-1.285 2.735-1.928 4.676-1.928 1.96 0 3.509.625 4.648 1.873 1.131 1.24 1.696 2.958 1.696 5.155l-.014.724zm-3.158-2.515c-.429-1.64-1.463-2.461-3.104-2.461-.373 0-.724.06-1.052.178-.329.109-.629.273-.903.492-.264.21-.492.465-.683.765-.192.301-.338.643-.438 1.026h6.18zm24.992 15.695V20.51c-1.221 1.248-2.616 1.873-4.184 1.873-1.795 0-3.285-.661-4.47-1.983-1.194-1.33-1.791-2.994-1.791-4.99 0-2.023.597-3.714 1.791-5.072 1.203-1.35 2.711-2.024 4.525-2.024 1.54 0 2.917.607 4.129 1.819v-1.45h3.09v20.563h-3.09zm-7.301-13.973c0 1.286.347 2.33 1.039 3.131.693.82 1.573 1.23 2.639 1.23 1.13 0 2.046-.391 2.748-1.175.711-.793 1.066-1.823 1.066-3.09 0-1.249-.35-2.278-1.052-3.09-.702-.793-1.614-1.19-2.735-1.19-1.057 0-1.941.402-2.652 1.204-.702.811-1.053 1.805-1.053 2.98zm17.678-6.59v7.643c0 2.206.87 3.309 2.611 3.309s2.612-1.103 2.612-3.309V8.684h3.076v7.71c0 1.067-.132 1.988-.397 2.762-.255.693-.697 1.317-1.326 1.873-1.039.903-2.361 1.354-3.965 1.354-1.595 0-2.912-.451-3.951-1.354-.638-.556-1.089-1.18-1.353-1.873-.256-.62-.383-1.54-.383-2.761V8.684h3.076zm24.309 7.383h-9.543c.082 1.094.437 1.965 1.066 2.612.629.638 1.436.957 2.42.957.766 0 1.399-.183 1.9-.547.493-.365 1.053-1.04 1.682-2.024l2.598 1.45a10.562 10.562 0 01-1.272 1.763 7.033 7.033 0 01-1.435 1.203 5.878 5.878 0 01-1.655.684 8.05 8.05 0 01-1.927.219c-1.987 0-3.582-.638-4.786-1.914-1.203-1.285-1.804-2.99-1.804-5.114 0-2.105.583-3.81 1.75-5.113 1.175-1.285 2.734-1.928 4.675-1.928 1.96 0 3.51.625 4.649 1.873 1.13 1.24 1.695 2.958 1.695 5.155l-.013.724zm-3.159-2.515c-.428-1.64-1.463-2.461-3.103-2.461-.374 0-.725.06-1.053.178-.328.109-.629.273-.902.492a3.07 3.07 0 00-.684.765c-.191.301-.337.643-.437 1.026h6.179zm24.288-.157c-.156-.659-.477-1.187-.962-1.586s-1.075-.598-1.768-.598c-.728 0-1.326.19-1.794.572-.451.381-.737.919-.858 1.612h5.382zm-5.512 2.73c0 2.028.953 3.042 2.86 3.042 1.023 0 1.794-.416 2.314-1.248h4.55c-.919 3.05-3.215 4.576-6.89 4.576-1.127 0-2.158-.165-3.094-.494a7.211 7.211 0 01-2.418-1.456 6.511 6.511 0 01-1.534-2.236c-.364-.867-.546-1.837-.546-2.912 0-1.11.173-2.106.52-2.99.347-.901.841-1.664 1.482-2.288a6.438 6.438 0 012.314-1.43c.919-.347 1.95-.52 3.094-.52 1.127 0 2.141.173 3.042.52.901.33 1.664.815 2.288 1.456.624.641 1.101 1.43 1.43 2.366.329.919.494 1.959.494 3.12v.494h-9.906zm21.436-4.03c-.867-.45-1.716-.676-2.548-.676-.433 0-.789.087-1.066.26-.26.173-.39.407-.39.702 0 .156.017.286.052.39a.849.849 0 00.286.26c.156.087.373.165.65.234.295.07.676.156 1.144.26 1.3.26 2.271.728 2.912 1.404.641.659.962 1.508.962 2.548 0 .78-.156 1.482-.468 2.106a4.597 4.597 0 01-1.3 1.586c-.555.416-1.222.737-2.002.962-.78.243-1.638.364-2.574.364-1.803 0-3.579-.511-5.33-1.534l1.716-3.328c1.317.901 2.565 1.352 3.744 1.352.433 0 .789-.095 1.066-.286.277-.19.416-.433.416-.728a.937.937 0 00-.078-.416.555.555 0 00-.26-.312c-.139-.104-.347-.19-.624-.26a9.012 9.012 0 00-1.04-.26c-1.456-.295-2.479-.728-3.068-1.3-.572-.59-.858-1.395-.858-2.418 0-.745.139-1.413.416-2.002a4.14 4.14 0 011.196-1.534c.52-.416 1.144-.737 1.872-.962.745-.225 1.569-.338 2.47-.338 1.473 0 2.903.286 4.29.858l-1.586 3.068zm9.996.494V22h-4.706v-9.412h-1.56V8.662h1.56V4.658h4.706v4.004h2.678v3.926h-2.678zm9.069 2.704c0 .433.078.84.234 1.222.156.364.364.685.624.962.278.277.598.494.962.65a3.2 3.2 0 001.222.234c.416 0 .806-.078 1.17-.234.382-.156.702-.373.962-.65a3.03 3.03 0 00.65-.962c.174-.364.26-.754.26-1.17 0-.416-.086-.806-.26-1.17a2.96 2.96 0 00-.65-.988 2.692 2.692 0 00-.962-.65 2.938 2.938 0 00-1.17-.234 3.2 3.2 0 00-1.222.234 3.05 3.05 0 00-.962.65c-.26.277-.468.598-.624.962a2.756 2.756 0 00-.234 1.144zm5.928-6.63h4.732V22h-4.732v-1.482c-1.005 1.265-2.366 1.898-4.082 1.898-.97 0-1.863-.173-2.678-.52a6.636 6.636 0 01-2.132-1.508 7.096 7.096 0 01-1.43-2.262c-.329-.867-.494-1.811-.494-2.834 0-.953.165-1.855.494-2.704.33-.867.789-1.62 1.378-2.262a6.35 6.35 0 012.106-1.508c.815-.381 1.716-.572 2.704-.572 1.664 0 3.042.58 4.134 1.742V8.662zm1.742-5.954l-4.524 4.004-2.184-1.612 3.718-4.55 2.99 2.158zm6.193 5.954h4.706v1.69c.641-.78 1.291-1.3 1.95-1.56.658-.277 1.43-.416 2.314-.416.936 0 1.733.156 2.392.468.676.295 1.248.72 1.716 1.274.381.45.641.953.78 1.508.138.555.208 1.187.208 1.898V22h-4.706v-6.734c0-.659-.052-1.187-.156-1.586-.087-.416-.252-.745-.494-.988a1.784 1.784 0 00-.702-.442 2.616 2.616 0 00-.832-.13c-.798 0-1.413.243-1.846.728-.416.468-.624 1.144-.624 2.028V22h-4.706V8.662zm36.163 4.316c-.814-.555-1.638-.832-2.47-.832-.45 0-.875.078-1.274.234a3.066 3.066 0 00-1.014.676 3.052 3.052 0 00-.702 1.014 3.408 3.408 0 00-.234 1.3c0 .468.078.901.234 1.3.174.381.399.72.676 1.014.295.277.642.494 1.04.65.399.156.824.234 1.274.234.884 0 1.708-.303 2.47-.91v4.004c-1.161.503-2.262.754-3.302.754-.97 0-1.898-.165-2.782-.494a7.337 7.337 0 01-2.314-1.404 7.28 7.28 0 01-1.586-2.21c-.398-.867-.598-1.829-.598-2.886 0-1.057.191-2.02.572-2.886a6.783 6.783 0 011.56-2.262 6.828 6.828 0 012.34-1.482 7.904 7.904 0 012.938-.546c1.144 0 2.202.243 3.172.728v4.004zm7.13 2.288c0 .45.078.867.234 1.248.174.364.39.685.65.962.278.277.598.494.962.65.382.156.78.234 1.196.234.416 0 .806-.078 1.17-.234.382-.156.702-.373.962-.65a3.03 3.03 0 00.65-.962c.174-.381.26-.789.26-1.222 0-.416-.086-.806-.26-1.17a2.96 2.96 0 00-.65-.988 2.692 2.692 0 00-.962-.65 2.938 2.938 0 00-1.17-.234c-.416 0-.814.078-1.196.234a3.05 3.05 0 00-.962.65c-.26.277-.476.598-.65.962a2.938 2.938 0 00-.234 1.17zm-4.966-.052c0-.988.2-1.907.598-2.756a6.64 6.64 0 011.664-2.236 7.825 7.825 0 012.522-1.508c.988-.364 2.063-.546 3.224-.546 1.144 0 2.202.182 3.172.546.988.347 1.838.84 2.548 1.482a6.407 6.407 0 011.69 2.262c.399.867.598 1.829.598 2.886 0 1.057-.208 2.028-.624 2.912a6.887 6.887 0 01-1.664 2.262c-.71.624-1.568 1.11-2.574 1.456-.988.347-2.062.52-3.224.52-1.144 0-2.201-.173-3.172-.52a7.474 7.474 0 01-2.522-1.482 7.01 7.01 0 01-1.638-2.288c-.398-.901-.598-1.898-.598-2.99zm18.725-6.552h4.706v2.184c.503-.797 1.118-1.404 1.846-1.82.728-.433 1.578-.65 2.548-.65h.39c.156 0 .33.017.52.052v4.498a4.471 4.471 0 00-2.028-.468c-1.092 0-1.915.33-2.47.988-.537.641-.806 1.586-.806 2.834V22h-4.706V8.662zm12.112 0h4.706v2.184c.502-.797 1.118-1.404 1.846-1.82.728-.433 1.577-.65 2.548-.65h.39c.156 0 .329.017.52.052v4.498a4.471 4.471 0 00-2.028-.468c-1.092 0-1.916.33-2.47.988-.538.641-.806 1.586-.806 2.834V22h-4.706V8.662zm22.013 4.732c-.156-.659-.476-1.187-.962-1.586-.485-.399-1.074-.598-1.768-.598-.728 0-1.326.19-1.794.572-.45.381-.736.919-.858 1.612h5.382zm-5.512 2.73c0 2.028.954 3.042 2.86 3.042 1.023 0 1.794-.416 2.314-1.248h4.55c-.918 3.05-3.215 4.576-6.89 4.576-1.126 0-2.158-.165-3.094-.494a7.211 7.211 0 01-2.418-1.456 6.525 6.525 0 01-1.534-2.236c-.364-.867-.546-1.837-.546-2.912 0-1.11.174-2.106.52-2.99.347-.901.841-1.664 1.482-2.288a6.447 6.447 0 012.314-1.43c.919-.347 1.95-.52 3.094-.52 1.127 0 2.141.173 3.042.52a6.02 6.02 0 012.288 1.456c.624.641 1.101 1.43 1.43 2.366.33.919.494 1.959.494 3.12v.494h-9.906zm22.658-3.146c-.814-.555-1.638-.832-2.47-.832-.45 0-.875.078-1.274.234a3.066 3.066 0 00-1.014.676 3.052 3.052 0 00-.702 1.014 3.408 3.408 0 00-.234 1.3c0 .468.078.901.234 1.3.174.381.399.72.676 1.014.295.277.642.494 1.04.65.399.156.824.234 1.274.234.884 0 1.708-.303 2.47-.91v4.004c-1.161.503-2.262.754-3.302.754-.97 0-1.898-.165-2.782-.494a7.337 7.337 0 01-2.314-1.404 7.28 7.28 0 01-1.586-2.21c-.398-.867-.598-1.829-.598-2.886 0-1.057.191-2.02.572-2.886a6.783 6.783 0 011.56-2.262 6.828 6.828 0 012.34-1.482 7.904 7.904 0 012.938-.546c1.144 0 2.202.243 3.172.728v4.004zm7.937-.39V22h-4.706v-9.412h-1.56V8.662h1.56V4.658h4.706v4.004h2.678v3.926h-2.678zm9.069 2.704c0 .433.078.84.234 1.222.156.364.364.685.624.962.277.277.598.494.962.65.381.156.788.234 1.222.234.416 0 .806-.078 1.17-.234a2.7 2.7 0 00.962-.65c.277-.277.494-.598.65-.962.173-.364.26-.754.26-1.17 0-.416-.087-.806-.26-1.17a2.975 2.975 0 00-.65-.988 2.7 2.7 0 00-.962-.65 2.938 2.938 0 00-1.17-.234c-.434 0-.841.078-1.222.234a3.04 3.04 0 00-.962.65c-.26.277-.468.598-.624.962a2.756 2.756 0 00-.234 1.144zm5.928-6.63h4.732V22h-4.732v-1.482c-1.006 1.265-2.366 1.898-4.082 1.898-.971 0-1.864-.173-2.678-.52a6.614 6.614 0 01-2.132-1.508 7.062 7.062 0 01-1.43-2.262c-.33-.867-.494-1.811-.494-2.834a7.4 7.4 0 01.494-2.704 6.937 6.937 0 011.378-2.262 6.33 6.33 0 012.106-1.508c.814-.381 1.716-.572 2.704-.572 1.664 0 3.042.58 4.134 1.742V8.662zm16.774 3.432c-.867-.45-1.716-.676-2.548-.676-.433 0-.789.087-1.066.26-.26.173-.39.407-.39.702 0 .156.017.286.052.39a.849.849 0 00.286.26c.156.087.373.165.65.234.295.07.676.156 1.144.26 1.3.26 2.271.728 2.912 1.404.641.659.962 1.508.962 2.548 0 .78-.156 1.482-.468 2.106a4.597 4.597 0 01-1.3 1.586c-.555.416-1.222.737-2.002.962-.78.243-1.638.364-2.574.364-1.803 0-3.579-.511-5.33-1.534l1.716-3.328c1.317.901 2.565 1.352 3.744 1.352.433 0 .789-.095 1.066-.286.277-.19.416-.433.416-.728a.937.937 0 00-.078-.416.555.555 0 00-.26-.312c-.139-.104-.347-.19-.624-.26a9.012 9.012 0 00-1.04-.26c-1.456-.295-2.479-.728-3.068-1.3-.572-.59-.858-1.395-.858-2.418 0-.745.139-1.413.416-2.002a4.14 4.14 0 011.196-1.534c.52-.416 1.144-.737 1.872-.962.745-.225 1.569-.338 2.47-.338 1.473 0 2.903.286 4.29.858l-1.586 3.068zm3.678 8.274c0-.272.051-.527.153-.765.102-.25.243-.465.425-.646.181-.181.391-.323.629-.425a2.045 2.045 0 011.547 0c.249.102.464.244.646.425.181.181.323.397.425.646a2.046 2.046 0 010 1.547 1.953 1.953 0 01-1.071 1.054 2.045 2.045 0 01-1.547 0 1.986 1.986 0 01-1.207-1.836z" fill="#fff"/></svg>