<svg width="427" height="22" viewBox="0 0 427 22" fill="none" xmlns="http://www.w3.org/2000/svg"><path d="M8.547 4.547c-.042-.252-.105-.336-.252-.399a4.997 4.997 0 00-1.533-.231c-1.575 0-2.352.714-2.352 1.785 0 1.386 1.428 1.764 3.024 2.247 1.995.609 4.221 1.365 4.221 4.515 0 3.444-2.688 4.788-5.901 4.788-1.89 0-4.011-.483-4.809-.861v-4.095h2.352l.42 1.995c.063.273.084.315.357.378.252.063.966.231 1.764.231 1.701 0 2.646-.672 2.646-1.953 0-1.344-1.197-1.764-2.604-2.163-2.079-.588-4.641-1.155-4.641-4.536 0-3.234 2.436-4.725 5.628-4.725 1.806 0 3.36.441 4.305.84v4.095l-2.373-.21-.252-1.701zm9.151-2.058c0 1.197-.693 1.89-1.91 1.89-1.198 0-1.89-.693-1.89-1.89S14.59.641 15.787.641c1.217 0 1.91.651 1.91 1.848zm-4.62 12.852l1.071-.147c.294-.042.336-.105.336-.42V8.6c0-.231-.063-.378-.273-.441l-1.134-.399.231-1.701h4.347v8.715c0 .336.021.378.336.42l1.071.147V17h-5.985v-1.659zm18.282.525l-.105-.021c-.798.777-1.848 1.407-3.528 1.407-2.646 0-3.066-1.806-3.066-3.108 0-2.1 1.28-3.045 3.927-3.234l2.415-.168V9.587c0-.987-.105-1.659-1.407-1.659-1.008 0-1.533.147-1.533 1.407l-2.961-.252c0-2.835 2.583-3.234 4.515-3.234 3.192 0 4.473.861 4.473 3.801v5.103c0 .336.02.378.336.42l1.008.168V17H31.57l-.21-1.134zm-1.785-3.276c-1.24.084-1.68.399-1.68 1.239 0 .84.504 1.155 1.197 1.155.714 0 1.428-.399 1.91-.756v-1.743l-1.427.105zm6.733 2.751l1.05-.147c.294-.042.336-.105.336-.42V3.686c0-.231-.063-.378-.273-.441l-1.155-.399.231-1.701h4.368v13.629c0 .336.021.378.336.42l1.03.147V17h-5.923v-1.659zm16.158-7.35c.378.483.777 1.155.777 2.121 0 2.331-1.827 3.696-4.473 3.696-.672 0-1.281-.084-1.66-.189l-.692 1.113 2.058.126c3.654.231 5.775.336 5.775 3.129 0 2.415-2.121 3.78-5.775 3.78-3.801 0-5.25-.966-5.25-2.625 0-.945.42-1.449 1.155-2.142-.693-.294-.924-.819-.924-1.386 0-.462.23-.882.609-1.281.378-.399.798-.798 1.302-1.26-1.03-.504-1.806-1.596-1.806-3.15 0-2.415 1.596-4.074 4.809-4.074.903 0 1.449.084 1.932.21h4.095v1.785l-1.932.147zM50.47 9.818c0-1.239-.714-1.89-1.911-1.89-1.155 0-2.016.567-2.016 1.932 0 1.029.567 1.743 1.953 1.743 1.176 0 1.974-.693 1.974-1.785zm-4.221 7.749c-.273.336-.546.693-.546 1.113 0 .84 1.07 1.092 2.54 1.092 1.219 0 2.878-.084 2.878-1.218 0-.672-.798-.714-1.806-.777l-3.066-.21zm17.29-1.701l-.105-.021c-.861.651-1.953 1.407-3.738 1.407-2.205 0-3.045-1.26-3.045-3.696V8.432c0-.336-.021-.378-.336-.441l-1.008-.21.21-1.722h4.305v6.951c0 1.281.21 1.764 1.113 1.764.924 0 1.68-.525 2.163-.966V8.411c0-.336-.021-.357-.336-.42l-.903-.21.23-1.722h4.18v8.715c0 .273.042.357.294.399l1.05.147V17h-3.906l-.168-1.134zm9.682-13.377c0 1.197-.693 1.89-1.911 1.89-1.197 0-1.89-.693-1.89-1.89S70.114.641 71.31.641c1.218 0 1.91.651 1.91 1.848zm-4.62 12.852l1.07-.147c.295-.042.337-.105.337-.42V8.6c0-.231-.063-.378-.273-.441l-1.134-.399.23-1.701h4.348v8.715c0 .336.02.378.336.42l1.07.147V17h-5.984v-1.659zm16.745.84c-1.302.63-2.73 1.071-4.305 1.071-4.053 0-5.439-2.52-5.439-5.796 0-3.801 2.331-5.607 5.208-5.607 2.772 0 4.62 1.449 4.62 5.082 0 .252-.02.987-.042 1.407h-6.426c.105 1.491.756 2.478 2.478 2.478.82 0 1.701-.189 3.13-.714l.776 2.079zm-3.024-5.838c-.02-1.764-.714-2.226-1.575-2.226-.903 0-1.638.504-1.764 2.226h3.34zm12.252-.126c0-1.008-.063-1.848-1.113-1.848-.777 0-1.743.441-2.184.777v5.628c0 .336.02.378.336.42l1.008.147V17h-5.796v-1.68l.945-.126c.294-.042.336-.105.336-.42V8.6c0-.231-.063-.378-.273-.441L86.7 7.76l.252-1.701h3.675l.168 1.092.084.042c1.05-.777 2.268-1.344 3.696-1.344 2.289 0 3.17 1.26 3.17 3.57v5.355c0 .336.022.378.337.42l1.05.147V17h-4.557v-6.783zm18.147 6.195c-.903.441-2.226.84-3.423.84-2.499 0-3.444-1.008-3.444-3.381V8.369c0-.126 0-.21-.168-.21h-1.47V6.29c1.848-.21 2.583-1.134 2.814-3.423h1.995v2.982c0 .147 0 .21.168.21h2.961v2.1h-3.129v5.019c0 1.239.294 1.722 1.428 1.722.588 0 1.197-.147 1.701-.336l.567 1.848zm10.318-.231c-1.302.63-2.73 1.071-4.305 1.071-4.053 0-5.439-2.52-5.439-5.796 0-3.801 2.331-5.607 5.208-5.607 2.772 0 4.62 1.449 4.62 5.082 0 .252-.021.987-.042 1.407h-6.426c.105 1.491.756 2.478 2.478 2.478.819 0 1.701-.189 3.129-.714l.777 2.079zm-3.024-5.838c-.021-1.764-.714-2.226-1.575-2.226-.903 0-1.638.504-1.764 2.226h3.339zm8.936 9.429l.84-.126c.294-.042.378-.126.378-.441V8.6c0-.231-.042-.357-.273-.441l-1.113-.399.231-1.701h3.696l.189 1.071.105.042c1.008-.819 2.373-1.323 3.57-1.323 2.352 0 4.032 1.47 4.032 5.376 0 2.52-.861 6.027-4.326 6.027-1.092 0-2.079-.357-2.961-1.05v2.982c0 .336.021.399.336.42l2.142.189v1.659h-6.846v-1.68zm4.368-5.775c.462.399 1.197.798 1.974.798 1.407 0 1.995-1.344 1.995-3.402 0-2.163-.735-3.045-1.785-3.045-.882 0-1.722.441-2.184.756v4.893zm13.175-11.508c0 1.197-.693 1.89-1.911 1.89-1.197 0-1.89-.693-1.89-1.89s.693-1.848 1.89-1.848c1.218 0 1.911.651 1.911 1.848zm-4.62 12.852l1.071-.147c.294-.042.336-.105.336-.42V8.6c0-.231-.063-.378-.273-.441l-1.134-.399.231-1.701h4.347v8.715c0 .336.021.378.336.42l1.071.147V17h-5.985v-1.659zm14.773.483l-.147-.021c-.882.861-1.911 1.449-3.444 1.449-2.478 0-4.074-1.575-4.074-5.586 0-4.221 2.121-5.817 4.452-5.817 1.218 0 2.163.42 2.961 1.008V3.665c0-.21-.084-.357-.273-.42l-1.155-.399.231-1.701h4.221v13.65c0 .315.021.357.336.399l1.008.147V17h-3.906l-.21-1.176zm-.378-6.909c-.525-.357-1.197-.63-1.806-.63-1.554 0-2.163 1.449-2.163 3.318 0 2.037.588 3.171 1.911 3.171.714 0 1.491-.42 2.058-.903V8.915zm15.173 7.266c-1.302.63-2.73 1.071-4.305 1.071-4.053 0-5.439-2.52-5.439-5.796 0-3.801 2.331-5.607 5.208-5.607 2.772 0 4.62 1.449 4.62 5.082 0 .252-.021.987-.042 1.407h-6.426c.105 1.491.756 2.478 2.478 2.478.819 0 1.701-.189 3.129-.714l.777 2.079zm-3.024-5.838c-.021-1.764-.714-2.226-1.575-2.226-.903 0-1.638.504-1.764 2.226h3.339zm17.084 6.069c-.903.441-2.226.84-3.423.84-2.499 0-3.444-1.008-3.444-3.381V8.369c0-.126 0-.21-.168-.21h-1.47V6.29c1.848-.21 2.583-1.134 2.814-3.423h1.995v2.982c0 .147 0 .21.168.21h2.961v2.1h-3.129v5.019c0 1.239.294 1.722 1.428 1.722.588 0 1.197-.147 1.701-.336l.567 1.848zm8.843-.546l-.105-.021c-.861.651-1.953 1.407-3.738 1.407-2.205 0-3.045-1.26-3.045-3.696V8.432c0-.336-.021-.378-.336-.441l-1.008-.21.21-1.722h4.305v6.951c0 1.281.21 1.764 1.113 1.764.924 0 1.68-.525 2.163-.966V8.411c0-.336-.021-.357-.336-.42l-.903-.21.231-1.722h4.179v8.715c0 .273.042.357.294.399l1.05.147V17h-3.906l-.168-1.134zm17.392-5.649c0-1.008-.063-1.848-1.113-1.848-.777 0-1.743.441-2.184.777v5.628c0 .336.021.378.336.42l1.008.147V17h-5.796v-1.68l.945-.126c.294-.042.336-.105.336-.42V8.6c0-.231-.063-.378-.273-.441l-1.134-.399.252-1.701h3.675l.168 1.092.084.042c1.05-.777 2.268-1.344 3.696-1.344 2.289 0 3.171 1.26 3.171 3.57v5.355c0 .336.021.378.336.42l1.05.147V17h-4.557v-6.783zm13.467 5.649l-.105-.021c-.861.651-1.953 1.407-3.738 1.407-2.205 0-3.045-1.26-3.045-3.696V8.432c0-.336-.021-.378-.336-.441l-1.008-.21.21-1.722h4.305v6.951c0 1.281.21 1.764 1.113 1.764.924 0 1.68-.525 2.163-.966V8.411c0-.336-.021-.357-.336-.42l-.903-.21.231-1.722h4.179v8.715c0 .273.042.357.294.399l1.05.147V17h-3.906l-.168-1.134zm-4.368-11.697L224.05.515l1.722 1.638-3.759 3.066-1.176-1.05zm22.849 6.048c0-.819-.084-1.806-1.176-1.806-.588 0-1.155.21-1.701.567.042.336.063.672.063 1.029v4.767c0 .357.021.399.336.441l.84.126V17h-4.347v-6.888c0-.777-.063-1.701-1.113-1.701-.63 0-1.323.315-1.743.672v5.691c0 .336.021.378.336.42l1.029.147V17h-5.817v-1.659l.945-.147c.294-.042.336-.105.336-.42V8.6c0-.231-.063-.378-.273-.441l-1.134-.399.231-1.701h3.696l.168 1.092.105.021c.945-.777 2.016-1.323 3.36-1.323 1.029 0 1.974.273 2.562 1.26.693-.546 1.911-1.26 3.381-1.26 2.247 0 3.087 1.113 3.087 3.549v5.376c0 .336.021.399.336.441l1.05.126V17h-4.557v-6.783zm15.344 5.964c-1.302.63-2.73 1.071-4.305 1.071-4.053 0-5.439-2.52-5.439-5.796 0-3.801 2.331-5.607 5.208-5.607 2.772 0 4.62 1.449 4.62 5.082 0 .252-.021.987-.042 1.407h-6.426c.105 1.491.756 2.478 2.478 2.478.819 0 1.701-.189 3.129-.714l.777 2.079zm-3.024-5.838c-.021-1.764-.714-2.226-1.575-2.226-.903 0-1.638.504-1.764 2.226h3.339zm4.502 4.956l.945-.126c.294-.042.336-.105.336-.42V8.6c0-.231-.063-.378-.273-.441l-1.134-.399.231-1.701h3.696l.252 1.68h.126c.693-1.071 1.617-1.89 2.961-1.89.483 0 1.449.084 1.827.189V9.86l-2.52-.084-.21-1.113c-.042-.189-.105-.231-.273-.231-.546 0-1.197.462-1.512.735v5.565c0 .336.021.399.336.42l2.079.168V17h-6.867v-1.701zm15.451 1.953c-3.843 0-5.397-2.352-5.397-5.649 0-3.486 1.827-5.754 5.67-5.754 3.885 0 5.397 2.31 5.397 5.523 0 3.57-1.806 5.88-5.67 5.88zm.147-2.205c1.365 0 2.205-.945 2.205-3.57 0-2.478-.756-3.36-2.121-3.36-1.386 0-2.31.861-2.31 3.381 0 2.541.819 3.549 2.226 3.549zm19.156.777l-.147-.021c-.882.861-1.911 1.449-3.444 1.449-2.478 0-4.074-1.575-4.074-5.586 0-4.221 2.121-5.817 4.452-5.817 1.218 0 2.163.42 2.961 1.008V3.665c0-.21-.084-.357-.273-.42l-1.155-.399.231-1.701h4.221v13.65c0 .315.021.357.336.399l1.008.147V17h-3.906l-.21-1.176zm-.378-6.909c-.525-.357-1.197-.63-1.806-.63-1.554 0-2.163 1.449-2.163 3.318 0 2.037.588 3.171 1.911 3.171.714 0 1.491-.42 2.058-.903V8.915zm15.173 7.266c-1.302.63-2.73 1.071-4.305 1.071-4.053 0-5.439-2.52-5.439-5.796 0-3.801 2.331-5.607 5.208-5.607 2.772 0 4.62 1.449 4.62 5.082 0 .252-.021.987-.042 1.407h-6.426c.105 1.491.756 2.478 2.478 2.478.819 0 1.701-.189 3.129-.714l.777 2.079zm-3.024-5.838c-.021-1.764-.714-2.226-1.575-2.226-.903 0-1.638.504-1.764 2.226h3.339zm20.97 5.019l1.722-.147c.315-.021.336-.126.336-.42v-7.98h-.084l-3.003 7.161h-3.423l-2.961-7.182h-.105v7.98c0 .336.042.399.336.42l1.806.168V17h-6.384v-1.638l1.323-.147c.294-.042.336-.105.336-.42V4.022c0-.315-.042-.378-.336-.42l-1.323-.147V1.796h5.628l3.654 9.513h.084l3.843-9.513h5.46v1.638l-1.407.168c-.315.042-.336.084-.336.399v10.794c0 .273.063.357.336.399l1.407.168V17h-6.909v-1.638zm17.958.819c-1.302.63-2.73 1.071-4.305 1.071-4.053 0-5.439-2.52-5.439-5.796 0-3.801 2.331-5.607 5.208-5.607 2.772 0 4.62 1.449 4.62 5.082 0 .252-.021.987-.042 1.407h-6.426c.105 1.491.756 2.478 2.478 2.478.819 0 1.701-.189 3.129-.714l.777 2.079zm-3.024-5.838c-.021-1.764-.714-2.226-1.575-2.226-.903 0-1.638.504-1.764 2.226h3.339zm12.294 5.481l-.147-.021c-.882.861-1.911 1.449-3.444 1.449-2.478 0-4.074-1.575-4.074-5.586 0-4.221 2.121-5.817 4.452-5.817 1.218 0 2.163.42 2.961 1.008V3.665c0-.21-.084-.357-.273-.42l-1.155-.399.231-1.701h4.221v13.65c0 .315.021.357.336.399l1.008.147V17h-3.906l-.21-1.176zm-.378-6.909c-.525-.357-1.197-.63-1.806-.63-1.554 0-2.163 1.449-2.163 3.318 0 2.037.588 3.171 1.911 3.171.714 0 1.491-.42 2.058-.903V8.915zm10.066-6.426c0 1.197-.693 1.89-1.911 1.89-1.197 0-1.89-.693-1.89-1.89s.693-1.848 1.89-1.848c1.218 0 1.911.651 1.911 1.848zm-4.62 12.852l1.071-.147c.294-.042.336-.105.336-.42V8.6c0-.231-.063-.378-.273-.441l-1.134-.399.231-1.701h4.347v8.715c0 .336.021.378.336.42l1.071.147V17h-5.985v-1.659zm16.494.882c-.966.588-2.457 1.029-3.99 1.029-3.801 0-5.502-2.373-5.502-5.565 0-3.927 2.394-5.838 5.754-5.838 1.638 0 3.087.462 3.738.882v3.297l-2.247-.105-.252-1.386c-.021-.147-.063-.273-.252-.336a3.65 3.65 0 00-1.071-.147c-1.26 0-2.331.861-2.331 3.318 0 2.73 1.218 3.507 2.709 3.507 1.05 0 1.995-.336 2.625-.609l.819 1.953zm7.961-.357l-.105-.021c-.798.777-1.848 1.407-3.528 1.407-2.646 0-3.066-1.806-3.066-3.108 0-2.1 1.281-3.045 3.927-3.234l2.415-.168V9.587c0-.987-.105-1.659-1.407-1.659-1.008 0-1.533.147-1.533 1.407l-2.961-.252c0-2.835 2.583-3.234 4.515-3.234 3.192 0 4.473.861 4.473 3.801v5.103c0 .336.021.378.336.42l1.008.168V17h-3.864l-.21-1.134zm-1.785-3.276c-1.239.084-1.68.399-1.68 1.239 0 .84.504 1.155 1.197 1.155.714 0 1.428-.399 1.911-.756v-1.743l-1.428.105zm6.838 2.709l.945-.126c.294-.042.336-.105.336-.42V8.6c0-.231-.063-.378-.273-.441l-1.134-.399.231-1.701h3.696l.252 1.68h.126c.693-1.071 1.617-1.89 2.961-1.89.483 0 1.449.084 1.827.189V9.86l-2.52-.084-.21-1.113c-.042-.189-.105-.231-.273-.231-.546 0-1.197.462-1.512.735v5.565c0 .336.021.399.336.42l2.079.168V17h-6.867v-1.701zm19.798.882c-1.302.63-2.73 1.071-4.305 1.071-4.053 0-5.439-2.52-5.439-5.796 0-3.801 2.331-5.607 5.208-5.607 2.772 0 4.62 1.449 4.62 5.082 0 .252-.021.987-.042 1.407h-6.426c.105 1.491.756 2.478 2.478 2.478.819 0 1.701-.189 3.129-.714l.777 2.079zm-3.024-5.838c-.021-1.764-.714-2.226-1.575-2.226-.903 0-1.638.504-1.764 2.226h3.339zm8.495 5.271c0 1.071-.588 1.638-1.785 1.638-1.218 0-1.806-.546-1.806-1.638 0-1.071.588-1.638 1.806-1.638 1.176 0 1.785.567 1.785 1.638zm5.911 0c0 1.071-.588 1.638-1.785 1.638-1.218 0-1.806-.546-1.806-1.638 0-1.071.588-1.638 1.806-1.638 1.176 0 1.785.567 1.785 1.638zm5.912 0c0 1.071-.588 1.638-1.785 1.638-1.218 0-1.806-.546-1.806-1.638 0-1.071.588-1.638 1.806-1.638 1.176 0 1.785.567 1.785 1.638z" fill="#fff"/></svg>