<svg width="180" height="25" viewBox="0 0 180 25" fill="none" xmlns="http://www.w3.org/2000/svg"><path d="M4.304 17.416c0 1.224-.672 1.872-2.04 1.872C.872 19.288.2 18.664.2 17.416c0-1.224.672-1.872 2.064-1.872 1.344 0 2.04.648 2.04 1.872zm6.756 0c0 1.224-.672 1.872-2.04 1.872-1.392 0-2.064-.624-2.064-1.872 0-1.224.672-1.872 2.064-1.872 1.344 0 2.04.648 2.04 1.872zm6.755 0c0 1.224-.672 1.872-2.04 1.872-1.392 0-2.064-.624-2.064-1.872 0-1.224.672-1.872 2.064-1.872 1.344 0 2.04.648 2.04 1.872zm10.932-6.168c0-1.152-.072-2.112-1.272-2.112-.888 0-1.992.504-2.496.888v6.432c0 .384.024.432.384.48l1.152.168V19H19.89v-1.92l1.08-.144c.336-.048.384-.12.384-.48V9.4c0-.264-.072-.432-.312-.504l-1.296-.456.288-1.944h4.2l.192 1.248.096.048c1.2-.888 2.592-1.536 4.224-1.536 2.616 0 3.624 1.44 3.624 4.08v6.12c0 .384.024.432.384.48l1.2.168V19h-5.208v-7.752zm12.552 8.04c-4.392 0-6.168-2.688-6.168-6.456 0-3.984 2.088-6.576 6.48-6.576 4.44 0 6.168 2.64 6.168 6.312 0 4.08-2.064 6.72-6.48 6.72zm.168-2.52c1.56 0 2.52-1.08 2.52-4.08 0-2.832-.864-3.84-2.424-3.84-1.584 0-2.64.984-2.64 3.864 0 2.904.936 4.056 2.544 4.056zm12.917.288l1.08-.144c.336-.048.384-.12.384-.48V9.4c0-.264-.072-.432-.312-.504L54.24 8.44l.264-1.944h4.224l.288 1.92h.144c.792-1.224 1.848-2.16 3.384-2.16.552 0 1.656.096 2.088.216v4.368l-2.88-.096-.24-1.272c-.048-.216-.12-.264-.312-.264-.624 0-1.368.528-1.728.84v6.36c0 .384.024.456.384.48l2.376.192V19h-7.848v-1.944zm22.627 1.008c-1.488.72-3.12 1.224-4.92 1.224-4.632 0-6.216-2.88-6.216-6.624 0-4.344 2.664-6.408 5.952-6.408 3.168 0 5.28 1.656 5.28 5.808 0 .288-.024 1.128-.048 1.608h-7.344c.12 1.704.864 2.832 2.832 2.832.936 0 1.944-.216 3.576-.816l.888 2.376zm-3.456-6.672c-.024-2.016-.816-2.544-1.8-2.544-1.032 0-1.872.576-2.016 2.544h3.816zm12.253-2.376c-.048-.216-.072-.288-.24-.336-.312-.096-.888-.192-1.536-.192-1.2 0-1.872.456-1.872 1.224 0 .984 1.32 1.2 2.784 1.536 1.896.432 4.032 1.104 4.032 3.912 0 2.928-2.376 4.128-5.424 4.128-2.184 0-4.32-.576-4.752-.864v-3.48l2.568.192.24 1.368c.048.216.072.288.288.36.288.096.936.24 1.848.24 1.272 0 1.992-.36 1.992-1.248 0-.96-.96-1.248-2.184-1.464-2.016-.36-4.656-.792-4.656-3.936 0-2.976 2.544-4.2 5.304-4.2 1.896 0 3.744.432 4.416.696v3.48l-2.568-.168-.24-1.248zm4.663 13.152l.96-.144c.336-.048.432-.144.432-.504V9.4c0-.264-.048-.408-.312-.504l-1.272-.456.264-1.944h4.224l.216 1.224.12.048c1.152-.936 2.712-1.512 4.08-1.512 2.688 0 4.608 1.68 4.608 6.144 0 2.88-.984 6.888-4.944 6.888-1.248 0-2.376-.408-3.384-1.2v3.408c0 .384.024.456.384.48l2.448.216v1.896H90.47v-1.92zm4.992-6.6c.528.456 1.368.912 2.256.912 1.608 0 2.28-1.536 2.28-3.888 0-2.472-.84-3.48-2.04-3.48-1.008 0-1.968.504-2.496.864v5.592zm16.112 3.72c-4.392 0-6.168-2.688-6.168-6.456 0-3.984 2.088-6.576 6.48-6.576 4.44 0 6.168 2.64 6.168 6.312 0 4.08-2.064 6.72-6.48 6.72zm.168-2.52c1.56 0 2.52-1.08 2.52-4.08 0-2.832-.864-3.84-2.424-3.84-1.584 0-2.64.984-2.64 3.864 0 2.904.936 4.056 2.544 4.056zm16.611-5.52c0-1.152-.072-2.112-1.272-2.112-.888 0-1.992.504-2.496.888v6.432c0 .384.024.432.384.48l1.152.168V19h-6.624v-1.92l1.08-.144c.336-.048.384-.12.384-.48V9.4c0-.264-.072-.432-.312-.504l-1.296-.456.288-1.944h4.2l.192 1.248.096.048c1.2-.888 2.592-1.536 4.224-1.536 2.616 0 3.624 1.44 3.624 4.08v6.12c0 .384.024.432.384.48l1.2.168V19h-5.208v-7.752zm15.337 6.408l-.168-.024c-1.008.984-2.184 1.656-3.936 1.656-2.832 0-4.656-1.8-4.656-6.384 0-4.824 2.424-6.648 5.088-6.648 1.392 0 2.472.48 3.384 1.152V3.76c0-.24-.096-.408-.312-.48l-1.32-.456.264-1.944h4.824v15.6c0 .36.024.408.384.456l1.152.168V19h-4.464l-.24-1.344zm-.432-7.896c-.6-.408-1.368-.72-2.064-.72-1.776 0-2.472 1.656-2.472 3.792 0 2.328.672 3.624 2.184 3.624.816 0 1.704-.48 2.352-1.032V9.76zm14.192 7.944l-.12-.024c-.912.888-2.112 1.608-4.032 1.608-3.024 0-3.504-2.064-3.504-3.552 0-2.4 1.464-3.48 4.488-3.696l2.76-.192v-1.32c0-1.128-.12-1.896-1.608-1.896-1.152 0-1.752.168-1.752 1.608l-3.384-.288c0-3.24 2.952-3.696 5.16-3.696 3.648 0 5.112.984 5.112 4.344v5.832c0 .384.024.432.384.48l1.152.192V19h-4.416l-.24-1.296zm-2.04-3.744c-1.416.096-1.92.456-1.92 1.416s.576 1.32 1.368 1.32c.816 0 1.632-.456 2.184-.864V13.84l-1.632.12zm14.923-4.944c-.048-.216-.072-.288-.24-.336-.312-.096-.888-.192-1.536-.192-1.2 0-1.872.456-1.872 1.224 0 .984 1.32 1.2 2.784 1.536 1.896.432 4.032 1.104 4.032 3.912 0 2.928-2.376 4.128-5.424 4.128-2.184 0-4.32-.576-4.752-.864v-3.48l2.568.192.24 1.368c.048.216.072.288.288.36.288.096.936.24 1.848.24 1.272 0 1.992-.36 1.992-1.248 0-.96-.96-1.248-2.184-1.464-2.016-.36-4.656-.792-4.656-3.936 0-2.976 2.544-4.2 5.304-4.2 1.896 0 3.744.432 4.416.696v3.48l-2.568-.168-.24-1.248zm9.367 8.4c0 1.224-.672 1.872-2.04 1.872-1.392 0-2.064-.624-2.064-1.872 0-1.224.672-1.872 2.064-1.872 1.344 0 2.04.648 2.04 1.872z" fill="#fff"/></svg>