<svg width="153" height="59" viewBox="0 0 153 59" fill="none" xmlns="http://www.w3.org/2000/svg"><path d="M2.145 25V1.735h4.488l11.781 14.619h-.957V1.735H23.1V25h-4.488L6.897 10.381h.957V25H2.145zm33.615.363c-1.87 0-3.487-.352-4.85-1.056-1.365-.704-2.42-1.705-3.169-3.003-.748-1.32-1.122-2.882-1.122-4.686 0-1.826.374-3.388 1.122-4.686.748-1.298 1.804-2.299 3.168-3.003 1.364-.704 2.981-1.056 4.851-1.056 1.848 0 3.454.352 4.818 1.056a7.532 7.532 0 013.168 3.036c.748 1.298 1.122 2.849 1.122 4.653 0 1.782-.374 3.333-1.122 4.653a7.532 7.532 0 01-3.168 3.036c-1.364.704-2.97 1.056-4.818 1.056zm0-4.356c.968 0 1.738-.341 2.31-1.023.572-.704.858-1.826.858-3.366s-.286-2.651-.858-3.333c-.572-.704-1.342-1.056-2.31-1.056-.99 0-1.77.352-2.343 1.056-.572.682-.858 1.793-.858 3.333 0 1.54.286 2.662.858 3.366.572.682 1.353 1.023 2.343 1.023zM57.945 25V.712h5.874V25h-5.874zm18.218.363c-1.87 0-3.486-.352-4.85-1.056-1.365-.704-2.42-1.705-3.169-3.003-.748-1.32-1.122-2.882-1.122-4.686 0-1.826.374-3.388 1.122-4.686.748-1.298 1.804-2.299 3.168-3.003 1.365-.704 2.981-1.056 4.852-1.056 1.847 0 3.454.352 4.817 1.056a7.532 7.532 0 013.169 3.036c.747 1.298 1.121 2.849 1.121 4.653 0 1.782-.374 3.333-1.121 4.653a7.532 7.532 0 01-3.169 3.036c-1.363.704-2.97 1.056-4.817 1.056zm0-4.356c.969 0 1.739-.341 2.31-1.023.573-.704.859-1.826.859-3.366s-.286-2.651-.858-3.333c-.573-.704-1.343-1.056-2.31-1.056-.99 0-1.772.352-2.344 1.056-.571.682-.857 1.793-.857 3.333 0 1.54.286 2.662.858 3.366.572.682 1.353 1.023 2.343 1.023zM8.424 53.297c-1.512 0-2.835-.288-3.969-.864-1.134-.576-2.016-1.395-2.646-2.457-.63-1.08-.945-2.367-.945-3.861 0-1.494.315-2.772.945-3.834a6.175 6.175 0 012.646-2.43c1.134-.576 2.457-.864 3.969-.864.936 0 1.854.126 2.754.378.9.252 1.629.612 2.187 1.08l-1.35 3.267a4.408 4.408 0 00-1.485-.81 4.607 4.607 0 00-1.593-.297c-.99 0-1.764.297-2.322.891-.54.594-.81 1.467-.81 2.619 0 1.152.27 2.034.81 2.646.558.594 1.332.891 2.322.891a5.19 5.19 0 001.593-.27 5.14 5.14 0 001.485-.81l1.35 3.267c-.576.45-1.314.81-2.214 1.08a9.878 9.878 0 01-2.727.378zm13.794 0c-1.53 0-2.852-.288-3.968-.864a6.21 6.21 0 01-2.592-2.457c-.612-1.08-.918-2.358-.918-3.834 0-1.494.306-2.772.918-3.834a6.21 6.21 0 012.592-2.457c1.116-.576 2.439-.864 3.968-.864 1.512 0 2.826.288 3.942.864a6.162 6.162 0 012.593 2.484c.611 1.062.918 2.331.918 3.807 0 1.458-.306 2.727-.918 3.807a6.162 6.162 0 01-2.593 2.484c-1.116.576-2.43.864-3.942.864zm0-3.564c.793 0 1.422-.279 1.89-.837.468-.576.703-1.494.703-2.754s-.235-2.169-.703-2.727c-.468-.576-1.098-.864-1.89-.864-.81 0-1.448.288-1.916.864-.468.558-.703 1.467-.703 2.727 0 1.26.235 2.178.703 2.754.468.558 1.107.837 1.916.837zM32.294 53v-9.99a32.655 32.655 0 00-.215-3.726h4.643l.27 2.376h-.296a4.48 4.48 0 011.755-1.944c.773-.486 1.682-.729 2.727-.729 1.008 0 1.863.243 2.565.729.72.468 1.241 1.215 1.566 2.241h-.46c.45-.936 1.099-1.665 1.945-2.187.864-.522 1.827-.783 2.889-.783 1.566 0 2.736.477 3.51 1.431.774.936 1.16 2.403 1.16 4.401V53H49.52v-8.019c0-.846-.126-1.44-.378-1.782-.252-.36-.657-.54-1.215-.54-.702 0-1.25.252-1.646.756-.378.504-.567 1.197-.567 2.079V53h-4.806v-8.019c0-.846-.136-1.44-.406-1.782-.252-.36-.648-.54-1.188-.54-.702 0-1.25.252-1.647.756-.378.504-.567 1.197-.567 2.079V53h-4.806zm25.214 5.832V43.01a32.655 32.655 0 00-.216-3.726h4.644l.297 2.43h-.27c.252-.81.81-1.467 1.674-1.971.864-.504 1.827-.756 2.889-.756 1.188 0 2.232.288 3.132.864.9.558 1.602 1.377 2.106 2.457.522 1.062.783 2.34.783 3.834 0 1.476-.261 2.754-.783 3.834-.504 1.08-1.206 1.908-2.106 2.484-.9.558-1.944.837-3.132.837-1.044 0-1.99-.234-2.835-.702-.846-.486-1.404-1.125-1.674-1.917h.297v8.154h-4.806zm7.479-9.099c.828 0 1.485-.279 1.97-.837.505-.576.757-1.494.757-2.754s-.252-2.169-.756-2.727c-.486-.576-1.143-.864-1.971-.864-.81 0-1.467.288-1.971.864-.504.558-.756 1.467-.756 2.727 0 1.26.252 2.178.756 2.754.504.558 1.16.837 1.97.837zm15.567 3.564c-1.188 0-2.232-.279-3.132-.837-.9-.576-1.611-1.404-2.133-2.484-.504-1.08-.756-2.358-.756-3.834 0-1.494.252-2.772.756-3.834.522-1.08 1.233-1.899 2.133-2.457.9-.576 1.944-.864 3.132-.864 1.062 0 2.016.252 2.862.756.864.504 1.43 1.161 1.7 1.971h-.27l.298-2.43h4.617l-.162 1.863c-.036.63-.054 1.251-.054 1.863V53h-4.752l-.054-2.322h.324c-.27.792-.837 1.431-1.701 1.917-.846.468-1.782.702-2.808.702zm1.539-3.564c.81 0 1.467-.279 1.97-.837.505-.576.757-1.494.757-2.754s-.252-2.169-.756-2.727c-.504-.576-1.161-.864-1.971-.864s-1.467.288-1.971.864c-.504.558-.756 1.467-.756 2.727 0 1.26.243 2.178.729 2.754.504.558 1.17.837 1.998.837zM92.8 53v-9.963c0-.63-.018-1.26-.054-1.89-.036-.63-.09-1.251-.162-1.863h4.644l.513 4.212h-.73c.18-1.026.469-1.872.865-2.538.396-.666.89-1.161 1.485-1.485.594-.324 1.296-.486 2.106-.486.378 0 .657.018.837.054.198.018.405.072.621.162v4.212c-.45-.198-.81-.324-1.08-.378a5.553 5.553 0 00-1.053-.081c-.738 0-1.341.135-1.81.405-.467.252-.81.648-1.025 1.188-.198.54-.297 1.233-.297 2.079V53H92.8zm19.656.297c-1.944 0-3.411-.459-4.401-1.377-.972-.936-1.458-2.349-1.458-4.239v-4.86h-2.565v-3.537h2.565v-3.24l4.806-1.134v4.374h3.348v3.537h-3.348v4.671c0 .792.18 1.323.54 1.593.36.252.792.378 1.296.378.306 0 .567-.018.783-.054.234-.054.477-.126.729-.216v3.699c-.396.162-.792.27-1.188.324a7.824 7.824 0 01-1.107.081zm9.83 0c-1.188 0-2.232-.279-3.132-.837-.9-.576-1.611-1.404-2.133-2.484-.504-1.08-.756-2.358-.756-3.834 0-1.494.252-2.772.756-3.834.522-1.08 1.233-1.899 2.133-2.457.9-.576 1.944-.864 3.132-.864 1.062 0 2.016.252 2.862.756.864.504 1.431 1.161 1.701 1.971h-.27l.297-2.43h4.617l-.162 1.863c-.036.63-.054 1.251-.054 1.863V53h-4.752l-.054-2.322h.324c-.27.792-.837 1.431-1.701 1.917-.846.468-1.782.702-2.808.702zm1.539-3.564c.81 0 1.467-.279 1.971-.837.504-.576.756-1.494.756-2.754s-.252-2.169-.756-2.727c-.504-.576-1.161-.864-1.971-.864s-1.467.288-1.971.864c-.504.558-.756 1.467-.756 2.727 0 1.26.243 2.178.729 2.754.504.558 1.17.837 1.998.837zm15.972 3.564c-1.278 0-2.439-.126-3.483-.378-1.026-.27-1.899-.63-2.619-1.08l1.161-3.132c.702.396 1.485.72 2.349.972a9.5 9.5 0 002.619.378c.684 0 1.179-.099 1.485-.297.324-.216.486-.495.486-.837a.795.795 0 00-.297-.648c-.198-.162-.495-.279-.891-.351l-2.916-.513c-1.152-.216-2.052-.639-2.7-1.269-.63-.648-.945-1.485-.945-2.511 0-.936.252-1.746.756-2.43.504-.702 1.224-1.242 2.16-1.62.936-.396 2.043-.594 3.321-.594 1.044 0 2.034.117 2.97.351.954.234 1.782.603 2.484 1.107l-1.242 3.051c-.558-.378-1.215-.684-1.971-.918-.738-.252-1.431-.378-2.079-.378-.774 0-1.323.117-1.647.351-.324.216-.486.486-.486.81 0 .252.09.468.27.648.18.162.468.279.864.351l2.916.513c1.188.198 2.097.612 2.727 1.242.648.612.972 1.449.972 2.511 0 .99-.27 1.836-.81 2.538-.522.684-1.251 1.215-2.187 1.593-.936.36-2.025.54-3.267.54zm8.207-.297v-4.914h4.995V53h-4.995z" fill="#fff"/></svg>