<svg width="153" height="79" viewBox="0 0 153 79" fill="none" xmlns="http://www.w3.org/2000/svg"><path d="M.989 18v-4.186h4.255V18H.989zm6.497 0v-4.186h4.255V18H7.486zm6.496 0v-4.186h4.255V18h-4.255zm13.651 4.968V9.49a27.787 27.787 0 00-.184-3.174h3.956l.253 2.07h-.23c.215-.69.69-1.25 1.426-1.679.736-.43 1.557-.644 2.461-.644 1.012 0 1.902.245 2.668.736.767.475 1.365 1.173 1.794 2.093.445.905.667 1.993.667 3.266 0 1.257-.222 2.346-.667 3.266-.43.92-1.027 1.625-1.794 2.116-.766.475-1.656.713-2.668.713-.89 0-1.694-.2-2.415-.598-.72-.414-1.196-.958-1.426-1.633h.253v6.946h-4.094zm6.371-7.751c.706 0 1.265-.238 1.68-.713.429-.49.643-1.273.643-2.346 0-1.073-.214-1.848-.644-2.323-.414-.49-.973-.736-1.679-.736-.69 0-1.25.245-1.679.736-.43.475-.644 1.25-.644 2.323s.215 1.855.644 2.346c.43.475.99.713 1.68.713zM42.665 18V6.316h4.094V18h-4.094zm-.092-13.34V.98h4.301v3.68h-4.301zm11.594 13.593c-.997 0-1.886-.238-2.668-.713-.782-.49-1.395-1.196-1.84-2.116-.445-.92-.667-2.009-.667-3.266 0-1.273.215-2.361.644-3.266.445-.92 1.058-1.618 1.84-2.093.797-.49 1.694-.736 2.691-.736.89 0 1.694.207 2.415.621.72.399 1.204.935 1.449 1.61h-.345V1.072h4.094V18h-4.025v-2.093h.299c-.215.705-.69 1.273-1.426 1.702-.72.43-1.541.644-2.461.644zm1.311-3.036c.675 0 1.227-.238 1.656-.713.445-.49.667-1.273.667-2.346 0-1.073-.222-1.848-.667-2.323-.43-.49-.981-.736-1.656-.736-.69 0-1.257.245-1.702.736-.43.475-.644 1.25-.644 2.323s.215 1.855.644 2.346c.445.475 1.012.713 1.702.713zM64.553 18V6.316h4.094V18h-4.094zM64.46 4.66V.98h4.3v3.68h-4.3zm13.112 13.593c-2.116 0-3.765-.544-4.945-1.633-1.166-1.089-1.748-2.584-1.748-4.485 0-1.18.245-2.231.736-3.151a5.25 5.25 0 012.07-2.139c.889-.521 1.932-.782 3.128-.782 1.18 0 2.162.26 2.944.782.797.506 1.395 1.211 1.794 2.116.398.89.598 1.924.598 3.105v.874h-7.843v-1.932h4.83l-.391.322c0-.874-.169-1.518-.506-1.932-.322-.43-.782-.644-1.38-.644-.69 0-1.22.26-1.587.782-.353.506-.53 1.273-.53 2.3v.414c0 1.027.254 1.779.76 2.254.506.475 1.234.713 2.185.713.613 0 1.188-.069 1.725-.207a5.41 5.41 0 001.564-.667l1.058 2.668a6.802 6.802 0 01-2.024.92 9.002 9.002 0 01-2.438.322zm-2.07-13.064L77.826.474h3.84l-3.541 4.715h-2.622zM84.329 18V9.49a27.787 27.787 0 00-.184-3.174h3.956l.23 2.024h-.253a3.925 3.925 0 011.633-1.679c.706-.399 1.503-.598 2.392-.598 1.365 0 2.385.406 3.06 1.219.69.797 1.034 2.047 1.034 3.749V18h-4.094v-6.785c0-.751-.13-1.273-.39-1.564-.261-.307-.637-.46-1.128-.46-.644 0-1.165.215-1.564.644-.398.414-.598.966-.598 1.656V18H84.33zm19.206.253c-.996 0-1.886-.238-2.668-.713-.782-.49-1.395-1.196-1.84-2.116-.444-.92-.667-2.009-.667-3.266 0-1.273.215-2.361.644-3.266.445-.92 1.058-1.618 1.84-2.093.798-.49 1.695-.736 2.691-.736.89 0 1.695.207 2.415.621.721.399 1.204.935 1.449 1.61h-.345V1.072h4.094V18h-4.025v-2.093h.299c-.214.705-.69 1.273-1.426 1.702-.72.43-1.541.644-2.461.644zm1.311-3.036c.675 0 1.227-.238 1.656-.713.445-.49.667-1.273.667-2.346 0-1.073-.222-1.848-.667-2.323-.429-.49-.981-.736-1.656-.736-.69 0-1.257.245-1.702.736-.429.475-.644 1.25-.644 2.323s.215 1.855.644 2.346c.445.475 1.012.713 1.702.713zm14.917 3.036c-1.303 0-2.43-.245-3.381-.736a5.286 5.286 0 01-2.208-2.093c-.521-.92-.782-2.009-.782-3.266 0-1.273.261-2.361.782-3.266a5.286 5.286 0 012.208-2.093c.951-.49 2.078-.736 3.381-.736 1.288 0 2.407.245 3.358.736a5.246 5.246 0 012.208 2.116c.521.905.782 1.986.782 3.243 0 1.242-.261 2.323-.782 3.243a5.246 5.246 0 01-2.208 2.116c-.951.49-2.07.736-3.358.736zm0-3.036c.675 0 1.211-.238 1.61-.713.399-.49.598-1.273.598-2.346 0-1.073-.199-1.848-.598-2.323-.399-.49-.935-.736-1.61-.736-.69 0-1.234.245-1.633.736-.399.475-.598 1.25-.598 2.323s.199 1.855.598 2.346c.399.475.943.713 1.633.713zm14.451 3.036c-1.656 0-2.906-.391-3.749-1.173-.828-.797-1.242-2.001-1.242-3.611v-4.14h-2.185V6.316h2.185v-2.76l4.094-.966v3.726h2.852v3.013h-2.852v3.979c0 .675.153 1.127.46 1.357.307.215.675.322 1.104.322.261 0 .483-.015.667-.046.199-.046.406-.107.621-.184v3.151c-.337.138-.675.23-1.012.276a6.661 6.661 0 01-.943.069zm9.825 0c-2.116 0-3.764-.544-4.945-1.633-1.165-1.089-1.748-2.584-1.748-4.485 0-1.18.245-2.231.736-3.151a5.254 5.254 0 012.07-2.139c.889-.521 1.932-.782 3.128-.782 1.181 0 2.162.26 2.944.782.797.506 1.395 1.211 1.794 2.116.399.89.598 1.924.598 3.105v.874h-7.843v-1.932h4.83l-.391.322c0-.874-.169-1.518-.506-1.932-.322-.43-.782-.644-1.38-.644-.69 0-1.219.26-1.587.782-.353.506-.529 1.273-.529 2.3v.414c0 1.027.253 1.779.759 2.254.506.475 1.234.713 2.185.713.613 0 1.188-.069 1.725-.207a5.414 5.414 0 001.564-.667l1.058 2.668a6.802 6.802 0 01-2.024.92 9.002 9.002 0 01-2.438.322zm-136.794 30c-1.656 0-2.906-.391-3.749-1.173-.828-.797-1.242-2.001-1.242-3.611v-4.14H.069v-3.013h2.185v-2.76l4.094-.966v3.726H9.2v3.013H6.348v3.979c0 .675.153 1.127.46 1.357.307.215.675.322 1.104.322.26 0 .483-.015.667-.046.2-.046.406-.107.621-.184v3.151c-.337.138-.675.23-1.012.276a6.665 6.665 0 01-.943.069zm8.074 0c-1.487 0-2.59-.406-3.312-1.219-.705-.828-1.058-2.078-1.058-3.749v-6.969h4.094v6.992c0 .613.123 1.073.368 1.38.261.291.652.437 1.173.437.583 0 1.058-.207 1.426-.621.384-.43.575-.989.575-1.679v-6.509h4.094V48H18.7v-2.093h.345c-.368.751-.866 1.334-1.495 1.748-.628.399-1.372.598-2.23.598zM32.345 48v-8.51a27.789 27.789 0 00-.184-3.174h3.956l.23 2.024h-.253a3.925 3.925 0 011.633-1.679c.705-.399 1.502-.598 2.392-.598 1.364 0 2.384.406 3.059 1.219.69.797 1.035 2.047 1.035 3.749V48h-4.094v-6.785c0-.751-.13-1.273-.391-1.564-.261-.307-.637-.46-1.127-.46-.644 0-1.166.215-1.564.644-.399.414-.598.966-.598 1.656V48h-4.094zm18.86.253c-1.487 0-2.59-.406-3.311-1.219-.706-.828-1.058-2.078-1.058-3.749v-6.969h4.094v6.992c0 .613.122 1.073.368 1.38.26.291.651.437 1.173.437.582 0 1.058-.207 1.426-.621.383-.43.575-.989.575-1.679v-6.509h4.094V48h-3.98v-2.093h.346c-.368.751-.867 1.334-1.495 1.748-.629.399-1.373.598-2.231.598zm.208-13.064l2.323-4.715h3.84l-3.541 4.715h-2.622zM61.353 48v-8.51a27.789 27.789 0 00-.184-3.174h3.956l.23 2.024H65.1a3.816 3.816 0 011.496-1.656c.659-.414 1.433-.621 2.323-.621.858 0 1.587.207 2.184.621.614.399 1.058 1.035 1.335 1.909h-.391a4.348 4.348 0 011.656-1.863 4.666 4.666 0 012.46-.667c1.335 0 2.331.406 2.99 1.219.66.797.99 2.047.99 3.749V48h-4.118v-6.831c0-.72-.107-1.227-.322-1.518-.214-.307-.56-.46-1.034-.46-.599 0-1.066.215-1.404.644-.322.43-.483 1.02-.483 1.771V48H68.69v-6.831c0-.72-.114-1.227-.344-1.518-.215-.307-.552-.46-1.013-.46-.597 0-1.065.215-1.402.644-.323.43-.484 1.02-.484 1.771V48h-4.093zm27.642.253c-2.117 0-3.765-.544-4.946-1.633-1.165-1.089-1.748-2.584-1.748-4.485 0-1.18.246-2.231.736-3.151a5.25 5.25 0 012.07-2.139c.89-.521 1.933-.782 3.129-.782 1.18 0 2.161.26 2.944.782.797.506 1.395 1.211 1.793 2.116.4.89.599 1.924.599 3.105v.874h-7.844v-1.932h4.83l-.39.322c0-.874-.17-1.518-.507-1.932-.322-.43-.782-.644-1.38-.644-.69 0-1.219.26-1.587.782-.352.506-.529 1.273-.529 2.3v.414c0 1.027.253 1.779.76 2.254.505.475 1.234.713 2.184.713.614 0 1.189-.069 1.726-.207a5.41 5.41 0 001.564-.667l1.058 2.668a6.8 6.8 0 01-2.024.92 9.002 9.002 0 01-2.439.322zM95.75 48v-8.487a28.277 28.277 0 00-.184-3.197h3.956l.437 3.588h-.621c.153-.874.399-1.595.736-2.162.337-.567.759-.989 1.265-1.265.506-.276 1.104-.414 1.794-.414.322 0 .56.015.713.046.169.015.345.061.529.138v3.588c-.383-.169-.69-.276-.92-.322a4.73 4.73 0 00-.897-.069c-.629 0-1.142.115-1.541.345-.399.215-.69.552-.874 1.012-.169.46-.253 1.05-.253 1.771V48h-4.14zm15.73.253c-1.303 0-2.43-.245-3.381-.736a5.298 5.298 0 01-2.208-2.093c-.521-.92-.782-2.009-.782-3.266 0-1.273.261-2.361.782-3.266a5.298 5.298 0 012.208-2.093c.951-.49 2.078-.736 3.381-.736 1.288 0 2.408.245 3.358.736a5.246 5.246 0 012.208 2.116c.522.905.782 1.986.782 3.243 0 1.242-.26 2.323-.782 3.243a5.246 5.246 0 01-2.208 2.116c-.95.49-2.07.736-3.358.736zm0-3.036c.675 0 1.212-.238 1.61-.713.399-.49.598-1.273.598-2.346 0-1.073-.199-1.848-.598-2.323-.398-.49-.935-.736-1.61-.736-.69 0-1.234.245-1.633.736-.398.475-.598 1.25-.598 2.323s.2 1.855.598 2.346c.399.475.943.713 1.633.713zm20.108 3.036c-.997 0-1.886-.238-2.668-.713-.782-.49-1.395-1.196-1.84-2.116-.445-.92-.667-2.009-.667-3.266 0-1.273.215-2.361.644-3.266.445-.92 1.058-1.618 1.84-2.093.797-.49 1.694-.736 2.691-.736.889 0 1.694.207 2.415.621.721.399 1.204.935 1.449 1.61h-.345v-7.222h4.094V48h-4.025v-2.093h.299c-.215.705-.69 1.273-1.426 1.702-.721.43-1.541.644-2.461.644zm1.311-3.036c.675 0 1.227-.238 1.656-.713.445-.49.667-1.273.667-2.346 0-1.073-.222-1.848-.667-2.323-.429-.49-.981-.736-1.656-.736-.69 0-1.257.245-1.702.736-.429.475-.644 1.25-.644 2.323s.215 1.855.644 2.346c.445.475 1.012.713 1.702.713zm15.239 3.036c-2.116 0-3.765-.544-4.945-1.633-1.166-1.089-1.748-2.584-1.748-4.485 0-1.18.245-2.231.736-3.151a5.241 5.241 0 012.07-2.139c.889-.521 1.932-.782 3.128-.782 1.18 0 2.162.26 2.944.782.797.506 1.395 1.211 1.794 2.116.398.89.598 1.924.598 3.105v.874h-7.843v-1.932h4.83l-.391.322c0-.874-.169-1.518-.506-1.932-.322-.43-.782-.644-1.38-.644-.69 0-1.219.26-1.587.782-.353.506-.529 1.273-.529 2.3v.414c0 1.027.253 1.779.759 2.254.506.475 1.234.713 2.185.713.613 0 1.188-.069 1.725-.207a5.414 5.414 0 001.564-.667l1.058 2.668a6.813 6.813 0 01-2.024.92 9.008 9.008 0 01-2.438.322zM1.564 78V61.785h3.68l5.313 11.891h-.759l5.29-11.891h3.703V78H14.95v-9.936h.989L11.339 78H8.947l-4.623-9.936h1.058V78H1.564zm26.422.253c-2.116 0-3.764-.544-4.945-1.633-1.165-1.089-1.748-2.584-1.748-4.485 0-1.18.245-2.231.736-3.151a5.25 5.25 0 012.07-2.139c.89-.521 1.932-.782 3.128-.782 1.18 0 2.162.26 2.944.782.797.506 1.396 1.211 1.794 2.116.399.89.598 1.924.598 3.105v.874H24.72v-1.932h4.83l-.39.322c0-.874-.17-1.518-.507-1.932-.322-.43-.782-.644-1.38-.644-.69 0-1.219.26-1.587.782-.352.506-.529 1.273-.529 2.3v.414c0 1.027.253 1.779.76 2.254.505.475 1.233.713 2.184.713.614 0 1.189-.069 1.725-.207a5.41 5.41 0 001.564-.667l1.058 2.668a6.8 6.8 0 01-2.024.92 9.002 9.002 0 01-2.438.322zm11.403 0c-.997 0-1.886-.238-2.668-.713-.782-.49-1.396-1.196-1.84-2.116-.445-.92-.667-2.009-.667-3.266 0-1.273.214-2.361.644-3.266.444-.92 1.058-1.618 1.84-2.093.797-.49 1.694-.736 2.69-.736.89 0 1.695.207 2.416.621.72.399 1.203.935 1.449 1.61h-.345v-7.222h4.094V78h-4.025v-2.093h.299c-.215.705-.69 1.273-1.426 1.702-.721.43-1.541.644-2.461.644zm1.31-3.036c.675 0 1.227-.238 1.657-.713.444-.49.667-1.273.667-2.346 0-1.073-.223-1.848-.667-2.323-.43-.49-.982-.736-1.656-.736-.69 0-1.258.245-1.702.736-.43.475-.644 1.25-.644 2.323s.214 1.855.644 2.346c.444.475 1.012.713 1.702.713zM49.775 78V66.316h4.094V78h-4.094zm-.092-13.34v-3.68h4.301v3.68h-4.3zm12.86 13.593c-1.289 0-2.416-.245-3.382-.736a5.407 5.407 0 01-2.254-2.093c-.536-.92-.805-2.016-.805-3.289 0-1.273.269-2.361.805-3.266a5.26 5.26 0 012.254-2.07c.966-.49 2.093-.736 3.381-.736.798 0 1.58.107 2.346.322.767.215 1.388.521 1.863.92l-1.15 2.783a3.754 3.754 0 00-1.265-.69 3.924 3.924 0 00-1.357-.253c-.843 0-1.502.253-1.978.759-.46.506-.69 1.25-.69 2.231 0 .981.23 1.733.69 2.254.476.506 1.135.759 1.978.759.43 0 .882-.077 1.357-.23a4.38 4.38 0 001.265-.69l1.15 2.783c-.49.383-1.119.69-1.886.92a8.413 8.413 0 01-2.323.322zm10.71 0c-1.012 0-1.901-.238-2.668-.713-.766-.49-1.372-1.196-1.817-2.116-.429-.92-.644-2.009-.644-3.266 0-1.273.215-2.361.644-3.266.445-.92 1.05-1.618 1.817-2.093.767-.49 1.656-.736 2.668-.736.905 0 1.718.215 2.438.644.736.43 1.22.989 1.45 1.679h-.23l.252-2.07h3.933l-.138 1.587c-.03.537-.046 1.066-.046 1.587V78h-4.048l-.046-1.978h.276c-.23.675-.713 1.219-1.449 1.633a4.858 4.858 0 01-2.392.598zm1.311-3.036c.69 0 1.25-.238 1.68-.713.429-.49.643-1.273.643-2.346 0-1.073-.214-1.848-.644-2.323-.429-.49-.989-.736-1.679-.736-.69 0-1.25.245-1.679.736-.429.475-.644 1.25-.644 2.323s.207 1.855.621 2.346c.43.475.997.713 1.702.713zM83.684 78v-8.487a28.277 28.277 0 00-.184-3.197h3.956l.437 3.588h-.62c.152-.874.398-1.595.735-2.162.337-.567.76-.989 1.265-1.265.506-.276 1.104-.414 1.794-.414.322 0 .56.015.713.046.169.015.345.061.53.138v3.588c-.384-.169-.69-.276-.92-.322a4.73 4.73 0 00-.898-.069c-.629 0-1.142.115-1.54.345-.4.215-.69.552-.875 1.012-.169.46-.253 1.05-.253 1.771V78h-4.14zm16.052.253c-2.116 0-3.764-.544-4.945-1.633-1.165-1.089-1.748-2.584-1.748-4.485 0-1.18.246-2.231.736-3.151a5.249 5.249 0 012.07-2.139c.89-.521 1.932-.782 3.128-.782 1.181 0 2.162.26 2.944.782.798.506 1.396 1.211 1.794 2.116.399.89.598 1.924.598 3.105v.874H96.47v-1.932h4.83l-.391.322c0-.874-.168-1.518-.506-1.932-.322-.43-.782-.644-1.38-.644-.69 0-1.219.26-1.587.782-.352.506-.529 1.273-.529 2.3v.414c0 1.027.253 1.779.76 2.254.505.475 1.234.713 2.184.713.614 0 1.189-.069 1.725-.207a5.402 5.402 0 001.564-.667l1.058 2.668a6.79 6.79 0 01-2.024.92 8.996 8.996 0 01-2.438.322zm6.481-.253v-4.186h4.255V78h-4.255z" fill="#fff"/></svg>