<svg width="253" height="50" viewBox="0 0 253 50" fill="none" xmlns="http://www.w3.org/2000/svg"><path d="M9.522 19.232h2.99c3.312 0 4.968-1.441 4.968-4.324s-1.656-4.324-4.968-4.324h-2.99v8.648zm0 18.768H.506V3.316h14.352c3.895 0 6.87 1.012 8.924 3.036 2.085 2.024 3.128 4.876 3.128 8.556 0 3.68-1.043 6.532-3.128 8.556-2.055 2.024-5.03 3.036-8.924 3.036H9.522V38zM30.9 14.402h8.326v3.864c.89-1.41 1.978-2.484 3.266-3.22 1.288-.767 2.79-1.15 4.508-1.15h.69c.276 0 .583.03.92.092v7.958a7.91 7.91 0 00-3.588-.828c-1.932 0-3.389.583-4.37 1.748-.95 1.135-1.426 2.806-1.426 5.014V38H30.9V14.402zm29.473 11.684c0 .797.138 1.533.414 2.208.307.644.69 1.211 1.15 1.702.49.49 1.058.874 1.702 1.15.675.276 1.38.414 2.116.414.736 0 1.426-.138 2.07-.414a4.773 4.773 0 001.702-1.15c.49-.49.874-1.058 1.15-1.702.307-.675.46-1.395.46-2.162 0-.736-.153-1.426-.46-2.07a5.256 5.256 0 00-1.15-1.748 4.773 4.773 0 00-1.702-1.15 5.199 5.199 0 00-2.07-.414c-.736 0-1.441.138-2.116.414a5.381 5.381 0 00-1.702 1.15 6.644 6.644 0 00-1.15 1.702 5.199 5.199 0 00-.414 2.07zm-8.786-.092c0-1.748.353-3.373 1.058-4.876a11.724 11.724 0 012.944-3.956c1.258-1.135 2.745-2.024 4.462-2.668 1.748-.644 3.65-.966 5.704-.966 2.024 0 3.895.322 5.612.966 1.748.613 3.25 1.487 4.508 2.622a11.35 11.35 0 012.99 4.002c.706 1.533 1.058 3.235 1.058 5.106 0 1.87-.368 3.588-1.104 5.152a12.214 12.214 0 01-2.944 4.002c-1.257 1.104-2.775 1.963-4.554 2.576-1.748.613-3.65.92-5.704.92-2.024 0-3.894-.307-5.612-.92-1.717-.613-3.204-1.487-4.462-2.622a12.386 12.386 0 01-2.898-4.048c-.705-1.595-1.058-3.358-1.058-5.29zm42.556-4.646V38h-8.326V21.348h-2.76v-6.946h2.76V7.318h8.326v7.084h4.738v6.946h-4.738zm25.567 1.426c-.276-1.165-.843-2.1-1.702-2.806-.858-.705-1.901-1.058-3.128-1.058-1.288 0-2.346.337-3.174 1.012-.797.675-1.303 1.625-1.518 2.852h9.522zm-9.752 4.83c0 3.588 1.687 5.382 5.06 5.382 1.81 0 3.174-.736 4.094-2.208h8.05c-1.625 5.397-5.688 8.096-12.19 8.096-1.993 0-3.818-.291-5.474-.874-1.656-.613-3.082-1.472-4.278-2.576a11.534 11.534 0 01-2.714-3.956c-.644-1.533-.966-3.25-.966-5.152 0-1.963.307-3.726.92-5.29.614-1.595 1.488-2.944 2.622-4.048 1.135-1.104 2.5-1.947 4.094-2.53 1.626-.613 3.45-.92 5.474-.92 1.994 0 3.788.307 5.382.92 1.595.583 2.944 1.441 4.048 2.576s1.948 2.53 2.53 4.186c.583 1.625.874 3.465.874 5.52v.874h-17.526zm12.558-23.736l-8.004 7.084-3.864-2.852 6.578-8.05 5.29 3.818zm17.456 22.218c0 .767.138 1.487.414 2.162a5.813 5.813 0 001.104 1.702c.49.49 1.058.874 1.702 1.15a5.65 5.65 0 002.162.414c.736 0 1.426-.138 2.07-.414a4.778 4.778 0 001.702-1.15c.49-.49.874-1.058 1.15-1.702.306-.675.46-1.38.46-2.116 0-.767-.154-1.472-.46-2.116a5.394 5.394 0 00-1.15-1.702 5.265 5.265 0 00-1.748-1.15 5.087 5.087 0 00-2.024-.414c-.736 0-1.426.153-2.07.46a5.375 5.375 0 00-1.702 1.15 5.444 5.444 0 00-1.196 1.656 5.199 5.199 0 00-.414 2.07zm18.676-11.684V36.39c0 1.319-.077 2.5-.23 3.542-.154 1.043-.368 1.963-.644 2.76-.368 1.012-.951 1.947-1.748 2.806-.767.89-1.702 1.656-2.806 2.3-1.104.644-2.362 1.15-3.772 1.518-1.38.368-2.883.552-4.508.552-1.84 0-3.527-.23-5.06-.69-1.534-.46-2.883-1.104-4.048-1.932a10.774 10.774 0 01-2.806-2.852 9.253 9.253 0 01-1.472-3.542h9.384c.582 1.564 1.901 2.346 3.956 2.346 1.748 0 3.082-.49 4.002-1.472.95-.981 1.426-2.346 1.426-4.094v-2.254a14.712 14.712 0 01-1.794 1.472c-.552.368-1.12.675-1.702.92a7.433 7.433 0 01-1.84.506 11.33 11.33 0 01-2.116.184c-1.687 0-3.236-.291-4.646-.874a11.17 11.17 0 01-3.68-2.438c-1.012-1.043-1.81-2.285-2.392-3.726-.552-1.472-.828-3.097-.828-4.876 0-1.81.306-3.48.92-5.014.613-1.564 1.441-2.913 2.484-4.048a11.39 11.39 0 013.772-2.714c1.472-.675 3.066-1.012 4.784-1.012 2.79 0 5.136 1.043 7.038 3.128v-2.484h8.326zm23.459 8.372c-.276-1.165-.843-2.1-1.702-2.806-.859-.705-1.901-1.058-3.128-1.058-1.288 0-2.346.337-3.174 1.012-.797.675-1.303 1.625-1.518 2.852h9.522zm-9.752 4.83c0 3.588 1.687 5.382 5.06 5.382 1.809 0 3.174-.736 4.094-2.208h8.05c-1.625 5.397-5.689 8.096-12.19 8.096-1.993 0-3.818-.291-5.474-.874-1.656-.613-3.082-1.472-4.278-2.576a11.534 11.534 0 01-2.714-3.956c-.644-1.533-.966-3.25-.966-5.152 0-1.963.307-3.726.92-5.29.613-1.595 1.487-2.944 2.622-4.048 1.135-1.104 2.499-1.947 4.094-2.53 1.625-.613 3.45-.92 5.474-.92 1.993 0 3.787.307 5.382.92 1.595.583 2.944 1.441 4.048 2.576s1.947 2.53 2.53 4.186c.583 1.625.874 3.465.874 5.52v.874h-17.526zm31.892-6.256V38h-8.326V21.348h-2.76v-6.946h2.76V7.318h8.326v7.084h4.738v6.946h-4.738zm25.567 1.426c-.276-1.165-.843-2.1-1.702-2.806-.859-.705-1.901-1.058-3.128-1.058-1.288 0-2.346.337-3.174 1.012-.797.675-1.303 1.625-1.518 2.852h9.522zm-9.752 4.83c0 3.588 1.687 5.382 5.06 5.382 1.809 0 3.174-.736 4.094-2.208h8.05c-1.625 5.397-5.689 8.096-12.19 8.096-1.993 0-3.818-.291-5.474-.874-1.656-.613-3.082-1.472-4.278-2.576a11.534 11.534 0 01-2.714-3.956c-.644-1.533-.966-3.25-.966-5.152 0-1.963.307-3.726.92-5.29.613-1.595 1.487-2.944 2.622-4.048 1.135-1.104 2.499-1.947 4.094-2.53 1.625-.613 3.45-.92 5.474-.92 1.993 0 3.787.307 5.382.92 1.595.583 2.944 1.441 4.048 2.576s1.947 2.53 2.53 4.186c.583 1.625.874 3.465.874 5.52v.874h-17.526zm21.871 5.98c0-.736.138-1.426.414-2.07a5.25 5.25 0 011.15-1.748 5.386 5.386 0 011.702-1.15 5.537 5.537 0 012.116-.414c.736 0 1.426.138 2.07.414.675.276 1.257.66 1.748 1.15a5.25 5.25 0 011.15 1.748c.276.644.414 1.334.414 2.07 0 .736-.138 1.441-.414 2.116a5.377 5.377 0 01-1.15 1.702 5.254 5.254 0 01-1.748 1.15 5.199 5.199 0 01-2.07.414 5.537 5.537 0 01-2.116-.414 5.386 5.386 0 01-1.702-1.15 5.377 5.377 0 01-1.15-1.702 5.536 5.536 0 01-.414-2.116z" fill="#fff"/></svg>