<svg width="256" height="142" viewBox="0 0 256 142" fill="none" xmlns="http://www.w3.org/2000/svg"><path d="M40.005 17.371h3.12c3.456 0 5.184-1.504 5.184-4.512 0-3.008-1.728-4.512-5.184-4.512h-3.12v9.024zm0 19.584h-9.408V.763h14.976c4.064 0 7.168 1.056 9.312 3.168 2.176 2.112 3.264 5.088 3.264 8.928 0 3.84-1.088 6.816-3.264 8.928-2.144 2.112-5.248 3.168-9.312 3.168h-5.568v12zm22.307-24.624H71v4.032c.928-1.472 2.064-2.592 3.408-3.36 1.344-.8 2.912-1.2 4.704-1.2h.72c.288 0 .608.032.96.096v8.304a8.255 8.255 0 00-3.744-.864c-2.016 0-3.536.608-4.56 1.824C71.496 22.347 71 24.091 71 26.395v10.56h-8.688V12.331zm30.755 12.192c0 .832.144 1.6.432 2.304.32.672.72 1.264 1.2 1.776a5.617 5.617 0 001.776 1.2c.704.288 1.44.432 2.208.432.768 0 1.488-.144 2.16-.432a4.98 4.98 0 001.776-1.2 5.617 5.617 0 001.2-1.776c.32-.704.48-1.456.48-2.256a4.96 4.96 0 00-.48-2.16 5.483 5.483 0 00-1.2-1.824 4.98 4.98 0 00-1.776-1.2 5.426 5.426 0 00-2.16-.432c-.768 0-1.504.144-2.208.432a5.617 5.617 0 00-1.776 1.2 6.934 6.934 0 00-1.2 1.776 5.425 5.425 0 00-.432 2.16zm-9.168-.096c0-1.824.368-3.52 1.104-5.088.736-1.6 1.76-2.976 3.072-4.128 1.312-1.184 2.864-2.112 4.656-2.784 1.824-.672 3.808-1.008 5.952-1.008 2.112 0 4.064.336 5.856 1.008 1.824.64 3.392 1.552 4.704 2.736a11.842 11.842 0 013.12 4.176c.736 1.6 1.104 3.376 1.104 5.328 0 1.952-.384 3.744-1.152 5.376a12.742 12.742 0 01-3.072 4.176c-1.312 1.152-2.896 2.048-4.752 2.688-1.824.64-3.808.96-5.952.96-2.112 0-4.064-.32-5.856-.96-1.792-.64-3.344-1.552-4.656-2.736a12.925 12.925 0 01-3.024-4.224c-.736-1.664-1.104-3.504-1.104-5.52zm44.406-4.848v17.376h-8.688V19.58h-2.88v-7.248h2.88V4.94h8.688v7.392h4.944v7.248h-4.944zm26.679 1.488c-.288-1.216-.88-2.192-1.776-2.928-.896-.736-1.984-1.104-3.264-1.104-1.344 0-2.448.352-3.312 1.056-.832.704-1.36 1.696-1.584 2.976h9.936zm-10.176 5.04c0 3.744 1.76 5.616 5.28 5.616 1.888 0 3.312-.768 4.272-2.304h8.4c-1.696 5.632-5.936 8.448-12.72 8.448-2.08 0-3.984-.304-5.712-.912-1.728-.64-3.216-1.536-4.464-2.688a12.03 12.03 0 01-2.832-4.128c-.672-1.6-1.008-3.392-1.008-5.376 0-2.048.32-3.888.96-5.52.64-1.664 1.552-3.072 2.736-4.224 1.184-1.152 2.608-2.032 4.272-2.64 1.696-.64 3.6-.96 5.712-.96 2.08 0 3.952.32 5.616.96 1.664.608 3.072 1.504 4.224 2.688 1.152 1.184 2.032 2.64 2.64 4.368.608 1.696.912 3.616.912 5.76v.912h-18.288zm31.318-1.584c0 .8.144 1.552.432 2.256a6.065 6.065 0 001.152 1.776 5.617 5.617 0 001.776 1.2 5.9 5.9 0 002.256.432c.768 0 1.488-.144 2.16-.432a4.98 4.98 0 001.776-1.2 5.617 5.617 0 001.2-1.776c.32-.704.48-1.44.48-2.208 0-.8-.16-1.536-.48-2.208a5.617 5.617 0 00-1.2-1.776 5.483 5.483 0 00-1.824-1.2 5.307 5.307 0 00-2.112-.432 4.96 4.96 0 00-2.16.48 5.617 5.617 0 00-1.776 1.2 5.699 5.699 0 00-1.248 1.728 5.425 5.425 0 00-.432 2.16zm19.488-12.192v22.944c0 1.376-.08 2.608-.24 3.696-.16 1.088-.384 2.048-.672 2.88-.384 1.056-.992 2.032-1.824 2.928-.8.928-1.776 1.728-2.928 2.4-1.152.672-2.464 1.2-3.936 1.584-1.44.384-3.008.576-4.704.576-1.92 0-3.68-.24-5.28-.72s-3.008-1.152-4.224-2.016a11.248 11.248 0 01-2.928-2.976 9.661 9.661 0 01-1.536-3.696h9.792c.608 1.632 1.984 2.448 4.128 2.448 1.824 0 3.216-.512 4.176-1.536.992-1.024 1.488-2.448 1.488-4.272V34.22c-.64.608-1.264 1.12-1.872 1.536-.576.384-1.168.704-1.776.96a7.75 7.75 0 01-1.92.528 11.82 11.82 0 01-2.208.192c-1.76 0-3.376-.304-4.848-.912a11.666 11.666 0 01-3.84-2.544c-1.056-1.088-1.888-2.384-2.496-3.888-.576-1.536-.864-3.232-.864-5.088 0-1.888.32-3.632.96-5.232.64-1.632 1.504-3.04 2.592-4.224a11.895 11.895 0 013.936-2.832c1.536-.704 3.2-1.056 4.992-1.056 2.912 0 5.36 1.088 7.344 3.264v-2.592h8.688zm24.479 8.736c-.288-1.216-.88-2.192-1.776-2.928-.896-.736-1.984-1.104-3.264-1.104-1.344 0-2.448.352-3.312 1.056-.832.704-1.36 1.696-1.584 2.976h9.936zm-10.176 5.04c0 3.744 1.76 5.616 5.28 5.616 1.888 0 3.312-.768 4.272-2.304h8.4c-1.696 5.632-5.936 8.448-12.72 8.448-2.08 0-3.984-.304-5.712-.912-1.728-.64-3.216-1.536-4.464-2.688a12.03 12.03 0 01-2.832-4.128c-.672-1.6-1.008-3.392-1.008-5.376 0-2.048.32-3.888.96-5.52.64-1.664 1.552-3.072 2.736-4.224 1.184-1.152 2.608-2.032 4.272-2.64 1.696-.64 3.6-.96 5.712-.96 2.08 0 3.952.32 5.616.96 1.664.608 3.072 1.504 4.224 2.688 1.152 1.184 2.032 2.64 2.64 4.368.608 1.696.912 3.616.912 5.76v.912h-18.288zM7.479 72.914v16.041H2.754v-16.04H.74v-4.41h2.015V61.01H7.48v7.495h3.674v4.41H7.479zm11.61-4.409v11.737c0 3.387 1.337 5.081 4.01 5.081 2.674 0 4.01-1.694 4.01-5.081V68.505h4.725v11.842c0 1.638-.203 3.051-.609 4.241-.392 1.064-1.07 2.023-2.037 2.877-1.595 1.385-3.625 2.078-6.088 2.078-2.45 0-4.473-.693-6.068-2.078-.98-.854-1.673-1.813-2.079-2.877-.392-.952-.588-2.365-.588-4.241V68.505h4.724zm31.977 0h4.745v1.89c1.652-1.638 3.514-2.457 5.586-2.457 2.379 0 4.234.75 5.563 2.247 1.148 1.274 1.722 3.352 1.722 6.236v12.534h-4.745V77.533c0-2.015-.28-3.408-.84-4.178-.546-.784-1.54-1.176-2.981-1.176-1.568 0-2.68.518-3.339 1.554-.644 1.022-.965 2.807-.965 5.354v9.868h-4.746v-20.45zm28.324 0v11.737c0 3.387 1.337 5.081 4.01 5.081 2.674 0 4.01-1.694 4.01-5.081V68.505h4.725v11.842c0 1.638-.203 3.051-.61 4.241-.391 1.064-1.07 2.023-2.036 2.877-1.595 1.385-3.625 2.078-6.089 2.078-2.45 0-4.472-.693-6.068-2.078-.98-.854-1.672-1.813-2.078-2.877-.392-.952-.588-2.365-.588-4.241V68.505h4.724zm11.422-10.078l-7.643 6.929-2.582-1.596 5.774-7.643 4.451 2.31zm7.286 10.078h4.724v1.89c.91-.952 1.686-1.596 2.33-1.932.686-.35 1.547-.525 2.583-.525 2.309 0 4.136 1.008 5.48 3.024 1.484-2.016 3.492-3.024 6.026-3.024 4.605 0 6.907 2.793 6.907 8.378v12.64h-4.745v-11.36c0-1.96-.238-3.345-.714-4.157-.489-.826-1.294-1.239-2.414-1.239-1.302 0-2.254.49-2.856 1.47-.587.98-.881 2.555-.881 4.724v10.561h-4.746V77.66c0-3.639-1.049-5.459-3.149-5.459-1.33 0-2.303.497-2.918 1.491-.602.994-.903 2.562-.903 4.703v10.561h-4.724v-20.45zm52.637 11.338H136.08c.126 1.68.671 3.016 1.637 4.01.966.98 2.205 1.47 3.717 1.47 1.175 0 2.148-.28 2.918-.84.756-.56 1.617-1.596 2.583-3.107l3.989 2.225c-.616 1.05-1.267 1.953-1.953 2.709a10.837 10.837 0 01-2.204 1.847 9.021 9.021 0 01-2.541 1.05c-.91.224-1.897.336-2.96.336-3.052 0-5.501-.98-7.349-2.94-1.848-1.973-2.771-4.59-2.771-7.852 0-3.233.895-5.85 2.687-7.852 1.806-1.974 4.199-2.96 7.181-2.96 3.009 0 5.389.958 7.138 2.876 1.736 1.903 2.604 4.542 2.604 7.915l-.021 1.113zm-4.85-3.863c-.658-2.52-2.247-3.78-4.766-3.78-.574 0-1.113.091-1.617.273-.504.168-.966.42-1.386.756a4.72 4.72 0 00-1.05 1.176 5.51 5.51 0 00-.671 1.575h9.49zm10.036-7.475h4.724v1.827c.868-.91 1.638-1.533 2.31-1.869.685-.35 1.497-.525 2.435-.525 1.246 0 2.548.406 3.905 1.218l-2.162 4.325c-.896-.644-1.771-.966-2.625-.966-2.575 0-3.863 1.946-3.863 5.837v10.603h-4.724v-20.45zm14.739 10.078c0-2.953 1.057-5.466 3.171-7.537 2.113-2.072 4.689-3.108 7.726-3.108 3.052 0 5.641 1.043 7.769 3.129 2.099 2.085 3.149 4.647 3.149 7.684 0 3.066-1.057 5.634-3.17 7.706-2.128 2.057-4.738 3.086-7.832 3.086-3.065 0-5.634-1.05-7.705-3.15-2.072-2.07-3.108-4.674-3.108-7.81zm4.829.084c0 2.044.546 3.66 1.638 4.85 1.12 1.204 2.596 1.806 4.43 1.806 1.848 0 3.325-.595 4.43-1.785 1.106-1.19 1.659-2.778 1.659-4.766 0-1.987-.553-3.576-1.659-4.766-1.119-1.204-2.596-1.806-4.43-1.806-1.806 0-3.268.602-4.388 1.806-1.12 1.204-1.68 2.758-1.68 4.661zm50.349-25.174h4.745v35.462h-4.745v-2.141c-1.862 1.82-3.968 2.73-6.32 2.73-2.799 0-5.123-1.023-6.971-3.066-1.833-2.086-2.75-4.69-2.75-7.81 0-3.052.917-5.6 2.75-7.643 1.82-2.058 4.109-3.087 6.866-3.087 2.394 0 4.535.98 6.425 2.94V53.493zm-11.212 25.174c0 1.96.525 3.556 1.575 4.787 1.077 1.246 2.435 1.869 4.073 1.869 1.75 0 3.163-.602 4.241-1.806 1.078-1.245 1.617-2.827 1.617-4.745 0-1.917-.539-3.5-1.617-4.745-1.078-1.218-2.477-1.827-4.199-1.827-1.624 0-2.982.616-4.073 1.848-1.078 1.246-1.617 2.786-1.617 4.62zm40.543 1.176h-14.655c.126 1.68.672 3.016 1.638 4.01.966.98 2.204 1.47 3.716 1.47 1.176 0 2.149-.28 2.919-.84.755-.56 1.616-1.596 2.582-3.107l3.989 2.225c-.615 1.05-1.266 1.953-1.952 2.709a10.815 10.815 0 01-2.205 1.847 9.027 9.027 0 01-2.54 1.05c-.91.224-1.897.336-2.961.336-3.051 0-5.501-.98-7.348-2.94-1.848-1.973-2.772-4.59-2.772-7.852 0-3.233.896-5.85 2.688-7.852 1.805-1.974 4.199-2.96 7.18-2.96 3.01 0 5.389.958 7.139 2.876 1.736 1.903 2.603 4.542 2.603 7.915l-.021 1.113zm-4.85-3.863c-.658-2.52-2.246-3.78-4.766-3.78-.574 0-1.113.091-1.616.273-.504.168-.966.42-1.386.756a4.72 4.72 0 00-1.05 1.176 5.512 5.512 0 00-.672 1.575h9.49zM2.349 140.955l5.76-33.93h8.73l6.796 18.09 6.75-18.09h8.73l5.76 33.93H36.1l-2.925-19.53-8.01 19.53h-3.51l-7.605-19.53-2.925 19.53H2.35zm62.992-14.895c-.27-1.14-.825-2.055-1.665-2.745-.84-.69-1.86-1.035-3.06-1.035-1.26 0-2.295.33-3.105.99-.78.66-1.275 1.59-1.485 2.79h9.315zm-9.54 4.725c0 3.51 1.65 5.265 4.95 5.265 1.77 0 3.105-.72 4.005-2.16h7.875c-1.59 5.28-5.565 7.92-11.925 7.92-1.95 0-3.735-.285-5.355-.855-1.62-.6-3.015-1.44-4.185-2.52a11.278 11.278 0 01-2.655-3.87c-.63-1.5-.945-3.18-.945-5.04 0-1.92.3-3.645.9-5.175.6-1.56 1.455-2.88 2.565-3.96 1.11-1.08 2.445-1.905 4.005-2.475 1.59-.6 3.375-.9 5.355-.9 1.95 0 3.705.3 5.265.9 1.56.57 2.88 1.41 3.96 2.52s1.905 2.475 2.475 4.095c.57 1.59.855 3.39.855 5.4v.855H55.801zm29.361-1.44c0 .75.135 1.455.405 2.115.27.63.63 1.185 1.08 1.665.48.48 1.035.855 1.665 1.125.66.27 1.365.405 2.115.405.72 0 1.395-.135 2.025-.405a4.669 4.669 0 001.665-1.125c.48-.48.855-1.035 1.125-1.665.3-.63.45-1.305.45-2.025s-.15-1.395-.45-2.025a5.14 5.14 0 00-1.125-1.71 4.669 4.669 0 00-1.665-1.125 5.086 5.086 0 00-2.025-.405c-.72 0-1.41.135-2.07.405-.63.27-1.185.645-1.665 1.125a6.5 6.5 0 00-1.125 1.665 4.77 4.77 0 00-.405 1.98zm10.26-25.74h8.19v37.35h-8.19v-2.565c-1.74 2.19-4.095 3.285-7.065 3.285-1.68 0-3.225-.315-4.635-.945-1.41-.63-2.64-1.5-3.69-2.61-1.05-1.11-1.875-2.415-2.475-3.915-.57-1.5-.855-3.12-.855-4.86 0-1.65.27-3.21.81-4.68.57-1.5 1.365-2.805 2.385-3.915a10.968 10.968 0 013.645-2.61c1.44-.66 3.015-.99 4.725-.99 2.88 0 5.265 1.005 7.155 3.015v-16.56zM117.3 117.87v23.085h-8.145V117.87h8.145zm-8.685-8.865c0-.63.12-1.215.36-1.755a4.6 4.6 0 01.99-1.485c.42-.42.9-.75 1.44-.99.57-.24 1.17-.36 1.8-.36.63 0 1.215.12 1.755.36a4.6 4.6 0 011.485.99c.42.42.75.915.99 1.485.24.54.36 1.125.36 1.755 0 .63-.12 1.23-.36 1.8-.24.54-.57 1.02-.99 1.44a4.6 4.6 0 01-1.485.99c-.54.24-1.125.36-1.755.36-.63 0-1.23-.12-1.8-.36-.54-.24-1.02-.57-1.44-.99-.42-.42-.75-.9-.99-1.44-.24-.57-.36-1.17-.36-1.8zm31.666 16.335c-1.41-.96-2.835-1.44-4.275-1.44-.78 0-1.515.135-2.205.405-.66.27-1.245.66-1.755 1.17a5.25 5.25 0 00-1.215 1.755c-.27.66-.405 1.41-.405 2.25 0 .81.135 1.56.405 2.25.3.66.69 1.245 1.17 1.755.51.48 1.11.855 1.8 1.125s1.425.405 2.205.405c1.53 0 2.955-.525 4.275-1.575v6.93c-2.01.87-3.915 1.305-5.715 1.305a13.68 13.68 0 01-4.815-.855c-1.5-.57-2.835-1.38-4.005-2.43a12.57 12.57 0 01-2.745-3.825c-.69-1.5-1.035-3.165-1.035-4.995s.33-3.495.99-4.995c.66-1.53 1.56-2.835 2.7-3.915 1.14-1.11 2.49-1.965 4.05-2.565 1.59-.63 3.285-.945 5.085-.945 1.98 0 3.81.42 5.49 1.26v6.93zm12.205 4.005c0 .75.135 1.455.405 2.115.27.63.63 1.185 1.08 1.665.48.48 1.035.855 1.665 1.125.66.27 1.365.405 2.115.405.72 0 1.395-.135 2.025-.405a4.669 4.669 0 001.665-1.125c.48-.48.855-1.035 1.125-1.665.3-.63.45-1.305.45-2.025s-.15-1.395-.45-2.025a5.14 5.14 0 00-1.125-1.71 4.669 4.669 0 00-1.665-1.125 5.086 5.086 0 00-2.025-.405c-.75 0-1.455.135-2.115.405-.63.27-1.185.645-1.665 1.125-.45.48-.81 1.035-1.08 1.665a4.77 4.77 0 00-.405 1.98zm10.26-11.475h8.19v23.085h-8.19v-2.565c-1.74 2.19-4.095 3.285-7.065 3.285-1.68 0-3.225-.3-4.635-.9-1.41-.63-2.64-1.5-3.69-2.61-1.05-1.11-1.875-2.415-2.475-3.915-.57-1.5-.855-3.135-.855-4.905 0-1.65.285-3.21.855-4.68.57-1.5 1.365-2.805 2.385-3.915a10.968 10.968 0 013.645-2.61c1.41-.66 2.97-.99 4.68-.99 2.88 0 5.265 1.005 7.155 3.015v-2.295zm13.733 0h8.145v3.78c.87-1.38 1.935-2.43 3.195-3.15 1.26-.75 2.73-1.125 4.41-1.125h.675c.27 0 .57.03.9.09v7.785a7.739 7.739 0 00-3.51-.81c-1.89 0-3.315.57-4.275 1.71-.93 1.11-1.395 2.745-1.395 4.905v9.9h-8.145V117.87zm38.101 8.19c-.27-1.14-.825-2.055-1.665-2.745-.84-.69-1.86-1.035-3.06-1.035-1.26 0-2.295.33-3.105.99-.78.66-1.275 1.59-1.485 2.79h9.315zm-9.54 4.725c0 3.51 1.65 5.265 4.95 5.265 1.77 0 3.105-.72 4.005-2.16h7.875c-1.59 5.28-5.565 7.92-11.925 7.92-1.95 0-3.735-.285-5.355-.855-1.62-.6-3.015-1.44-4.185-2.52a11.278 11.278 0 01-2.655-3.87c-.63-1.5-.945-3.18-.945-5.04 0-1.92.3-3.645.9-5.175.6-1.56 1.455-2.88 2.565-3.96 1.11-1.08 2.445-1.905 4.005-2.475 1.59-.6 3.375-.9 5.355-.9 1.95 0 3.705.3 5.265.9 1.56.57 2.88 1.41 3.96 2.52s1.905 2.475 2.475 4.095c.57 1.59.855 3.39.855 5.4v.855H205.04zm20.706 7.098c0-.512.096-.992.288-1.44a3.671 3.671 0 011.984-2.016c.47-.192.96-.288 1.472-.288s.992.096 1.44.288c.47.192.875.459 1.216.8.342.342.608.747.8 1.216.192.448.288.928.288 1.44a3.85 3.85 0 01-.288 1.472 3.73 3.73 0 01-.8 1.184 3.635 3.635 0 01-1.216.8 3.617 3.617 0 01-1.44.288 3.853 3.853 0 01-1.472-.288 3.746 3.746 0 01-1.984-1.984 3.85 3.85 0 01-.288-1.472zm10.875 0c0-.512.096-.992.288-1.44a3.671 3.671 0 011.984-2.016c.47-.192.96-.288 1.472-.288s.992.096 1.44.288c.47.192.875.459 1.216.8.342.342.608.747.8 1.216.192.448.288.928.288 1.44a3.85 3.85 0 01-.288 1.472 3.73 3.73 0 01-.8 1.184 3.635 3.635 0 01-1.216.8 3.617 3.617 0 01-1.44.288 3.853 3.853 0 01-1.472-.288 3.746 3.746 0 01-1.984-1.984 3.85 3.85 0 01-.288-1.472zm10.875 0c0-.512.096-.992.288-1.44a3.671 3.671 0 011.984-2.016c.47-.192.96-.288 1.472-.288s.992.096 1.44.288c.47.192.875.459 1.216.8.342.342.608.747.8 1.216.192.448.288.928.288 1.44a3.85 3.85 0 01-.288 1.472 3.73 3.73 0 01-.8 1.184 3.635 3.635 0 01-1.216.8 3.617 3.617 0 01-1.44.288 3.853 3.853 0 01-1.472-.288 3.746 3.746 0 01-1.984-1.984 3.85 3.85 0 01-.288-1.472z" fill="#66124B"/></svg>