<svg width="220" height="109" viewBox="0 0 220 109" fill="none" xmlns="http://www.w3.org/2000/svg"><path d="M1.419 26v-6.006h6.105V26H1.419zm9.321 0v-6.006h6.105V26H10.74zm9.321 0v-6.006h6.105V26h-6.105zm19.587 7.128V13.79a39.912 39.912 0 00-.264-4.554h5.676l.363 2.97h-.33c.308-.99.99-1.793 2.046-2.409 1.056-.616 2.233-.924 3.53-.924 1.453 0 2.729.352 3.829 1.056 1.1.682 1.958 1.683 2.574 3.003.638 1.298.957 2.86.957 4.686 0 1.804-.32 3.366-.957 4.686-.616 1.32-1.474 2.332-2.574 3.036-1.1.682-2.376 1.023-3.828 1.023-1.276 0-2.431-.286-3.465-.858-1.034-.594-1.716-1.375-2.046-2.343h.363v9.966h-5.874zm9.14-11.121c1.013 0 1.816-.341 2.41-1.023.616-.704.924-1.826.924-3.366s-.308-2.651-.924-3.333c-.594-.704-1.397-1.056-2.41-1.056-.99 0-1.792.352-2.408 1.056-.616.682-.924 1.793-.924 3.333 0 1.54.308 2.662.924 3.366.616.682 1.419 1.023 2.409 1.023zM61.216 26V9.236h5.874V26h-5.874zm-.132-19.14V1.58h6.171v5.28h-6.171zm16.635 19.503c-1.43 0-2.706-.341-3.828-1.023-1.122-.704-2.002-1.716-2.64-3.036-.638-1.32-.957-2.882-.957-4.686 0-1.826.308-3.388.924-4.686.638-1.32 1.518-2.321 2.64-3.003 1.144-.704 2.43-1.056 3.86-1.056 1.277 0 2.432.297 3.466.891 1.034.572 1.727 1.342 2.079 2.31h-.495V1.712h5.874V26h-5.775v-3.003h.429c-.308 1.012-.99 1.826-2.046 2.442-1.034.616-2.211.924-3.531.924zm1.88-4.356c.969 0 1.76-.341 2.377-1.023.638-.704.957-1.826.957-3.366s-.32-2.651-.957-3.333c-.616-.704-1.408-1.056-2.376-1.056-.99 0-1.804.352-2.442 1.056-.616.682-.924 1.793-.924 3.333 0 1.54.308 2.662.924 3.366.638.682 1.452 1.023 2.442 1.023zM92.62 26V9.236h5.874V26H92.62zm-.132-19.14V1.58h6.171v5.28h-6.17zM111.3 26.363c-3.036 0-5.401-.781-7.095-2.343-1.672-1.562-2.508-3.707-2.508-6.435 0-1.694.352-3.201 1.056-4.521a7.532 7.532 0 012.97-3.069c1.276-.748 2.772-1.122 4.488-1.122 1.694 0 3.102.374 4.224 1.122 1.144.726 2.002 1.738 2.574 3.036.572 1.276.858 2.761.858 4.455v1.254h-11.253v-2.772h6.93l-.561.462c0-1.254-.242-2.178-.726-2.772-.462-.616-1.122-.924-1.98-.924-.99 0-1.749.374-2.277 1.122-.506.726-.759 1.826-.759 3.3v.594c0 1.474.363 2.552 1.089 3.234.726.682 1.771 1.023 3.135 1.023a9.91 9.91 0 002.475-.297 7.763 7.763 0 002.244-.957l1.518 3.828c-.836.572-1.804 1.012-2.904 1.32-1.1.308-2.266.462-3.498.462zm-2.97-18.744l3.333-6.765h5.511l-5.082 6.765h-3.762zM120.994 26V13.79a39.912 39.912 0 00-.264-4.554h5.676l.33 2.904h-.363c.55-1.056 1.331-1.859 2.343-2.409 1.012-.572 2.156-.858 3.432-.858 1.958 0 3.421.583 4.389 1.749.99 1.144 1.485 2.937 1.485 5.379V26h-5.874v-9.735c0-1.078-.187-1.826-.561-2.244-.374-.44-.913-.66-1.617-.66-.924 0-1.672.308-2.244.924-.572.594-.858 1.386-.858 2.376V26h-5.874zm27.557.363c-1.43 0-2.706-.341-3.828-1.023-1.122-.704-2.002-1.716-2.64-3.036-.638-1.32-.957-2.882-.957-4.686 0-1.826.308-3.388.924-4.686.638-1.32 1.518-2.321 2.64-3.003 1.144-.704 2.431-1.056 3.861-1.056 1.276 0 2.431.297 3.465.891 1.034.572 1.727 1.342 2.079 2.31h-.495V1.712h5.874V26h-5.775v-3.003h.429c-.308 1.012-.99 1.826-2.046 2.442-1.034.616-2.211.924-3.531.924zm1.881-4.356c.968 0 1.76-.341 2.376-1.023.638-.704.957-1.826.957-3.366s-.319-2.651-.957-3.333c-.616-.704-1.408-1.056-2.376-1.056-.99 0-1.804.352-2.442 1.056-.616.682-.924 1.793-.924 3.333 0 1.54.308 2.662.924 3.366.638.682 1.452 1.023 2.442 1.023zm21.402 4.356c-1.87 0-3.487-.352-4.851-1.056-1.364-.704-2.42-1.705-3.168-3.003-.748-1.32-1.122-2.882-1.122-4.686 0-1.826.374-3.388 1.122-4.686.748-1.298 1.804-2.299 3.168-3.003 1.364-.704 2.981-1.056 4.851-1.056 1.848 0 3.454.352 4.818 1.056a7.532 7.532 0 013.168 3.036c.748 1.298 1.122 2.849 1.122 4.653 0 1.782-.374 3.333-1.122 4.653a7.532 7.532 0 01-3.168 3.036c-1.364.704-2.97 1.056-4.818 1.056zm0-4.356c.968 0 1.738-.341 2.31-1.023.572-.704.858-1.826.858-3.366s-.286-2.651-.858-3.333c-.572-.704-1.342-1.056-2.31-1.056-.99 0-1.771.352-2.343 1.056-.572.682-.858 1.793-.858 3.333 0 1.54.286 2.662.858 3.366.572.682 1.353 1.023 2.343 1.023zm20.734 4.356c-2.376 0-4.169-.561-5.379-1.683-1.188-1.144-1.782-2.871-1.782-5.181v-5.94h-3.135V9.236h3.135v-3.96l5.874-1.386v5.346h4.092v4.323h-4.092v5.709c0 .968.22 1.617.66 1.947.44.308.968.462 1.584.462.374 0 .693-.022.957-.066a8.01 8.01 0 00.891-.264v4.521c-.484.198-.968.33-1.452.396a9.563 9.563 0 01-1.353.099zm14.097 0c-3.036 0-5.401-.781-7.095-2.343-1.672-1.562-2.508-3.707-2.508-6.435 0-1.694.352-3.201 1.056-4.521a7.532 7.532 0 012.97-3.069c1.276-.748 2.772-1.122 4.488-1.122 1.694 0 3.102.374 4.224 1.122 1.144.726 2.002 1.738 2.574 3.036.572 1.276.858 2.761.858 4.455v1.254h-11.253v-2.772h6.93l-.561.462c0-1.254-.242-2.178-.726-2.772-.462-.616-1.122-.924-1.98-.924-.99 0-1.749.374-2.277 1.122-.506.726-.759 1.826-.759 3.3v.594c0 1.474.363 2.552 1.089 3.234.726.682 1.771 1.023 3.135 1.023a9.91 9.91 0 002.475-.297 7.763 7.763 0 002.244-.957l1.518 3.828c-.836.572-1.804 1.012-2.904 1.32-1.1.308-2.266.462-3.498.462zm-196.27 41c-2.376 0-4.169-.561-5.379-1.683-1.188-1.144-1.782-2.871-1.782-5.181v-5.94H.099v-4.323h3.135v-3.96l5.874-1.386v5.346H13.2v4.323H9.108v5.709c0 .968.22 1.617.66 1.947.44.308.968.462 1.584.462.374 0 .693-.022.957-.066a8.01 8.01 0 00.891-.264v4.521c-.484.198-.968.33-1.452.396a9.563 9.563 0 01-1.353.099zm11.585 0c-2.134 0-3.718-.583-4.752-1.749-1.012-1.188-1.518-2.981-1.518-5.379v-9.999h5.874v10.032c0 .88.176 1.54.528 1.98.374.418.935.627 1.683.627.836 0 1.518-.297 2.046-.891.55-.616.825-1.419.825-2.409v-9.339h5.874V67h-5.709v-3.003h.495c-.528 1.078-1.243 1.914-2.145 2.508-.902.572-1.969.858-3.2.858zM46.407 67V54.79a39.912 39.912 0 00-.263-4.554h5.675l.33 2.904h-.363c.55-1.056 1.331-1.859 2.343-2.409 1.013-.572 2.157-.858 3.433-.858 1.958 0 3.42.583 4.389 1.749.99 1.144 1.484 2.937 1.484 5.379V67h-5.873v-9.735c0-1.078-.188-1.826-.561-2.244-.374-.44-.913-.66-1.617-.66-.925 0-1.672.308-2.245.924-.572.594-.858 1.386-.858 2.376V67h-5.873zm27.062.363c-2.134 0-3.718-.583-4.752-1.749-1.012-1.188-1.518-2.981-1.518-5.379v-9.999h5.874v10.032c0 .88.176 1.54.528 1.98.374.418.935.627 1.683.627.836 0 1.518-.297 2.046-.891.55-.616.825-1.419.825-2.409v-9.339h5.874V67H78.32v-3.003h.495c-.528 1.078-1.243 1.914-2.145 2.508-.902.572-1.969.858-3.2.858zm.297-18.744l3.333-6.765h5.511l-5.082 6.765h-3.762zM88.027 67V54.79a39.912 39.912 0 00-.264-4.554h5.676l.33 2.904h-.363a5.475 5.475 0 012.145-2.376c.947-.594 2.058-.891 3.334-.891 1.232 0 2.277.297 3.135.891.88.572 1.518 1.485 1.914 2.739h-.561c.55-1.144 1.342-2.035 2.376-2.673 1.056-.638 2.233-.957 3.531-.957 1.914 0 3.344.583 4.29 1.749.946 1.144 1.419 2.937 1.419 5.379V67h-5.907v-9.801c0-1.034-.154-1.76-.462-2.178-.308-.44-.803-.66-1.485-.66-.858 0-1.529.308-2.013.924-.462.616-.693 1.463-.693 2.541V67h-5.874v-9.801c0-1.034-.166-1.76-.496-2.178-.308-.44-.791-.66-1.451-.66-.859 0-1.53.308-2.014.924-.462.616-.692 1.463-.692 2.541V67h-5.874zm39.661.363c-3.036 0-5.401-.781-7.095-2.343-1.672-1.562-2.508-3.707-2.508-6.435 0-1.694.352-3.201 1.056-4.521a7.532 7.532 0 012.97-3.069c1.276-.748 2.772-1.122 4.488-1.122 1.694 0 3.102.374 4.224 1.122 1.144.726 2.002 1.738 2.574 3.036.572 1.276.858 2.761.858 4.455v1.254h-11.253v-2.772h6.93l-.561.462c0-1.254-.242-2.178-.726-2.772-.462-.616-1.122-.924-1.98-.924-.99 0-1.749.374-2.277 1.122-.506.726-.759 1.826-.759 3.3v.594c0 1.474.363 2.552 1.089 3.234.726.682 1.771 1.023 3.135 1.023a9.91 9.91 0 002.475-.297 7.763 7.763 0 002.244-.957l1.518 3.828c-.836.572-1.804 1.012-2.904 1.32-1.1.308-2.266.462-3.498.462zm9.694-.363V54.823c0-.77-.022-1.54-.066-2.31-.044-.77-.11-1.529-.198-2.277h5.676l.627 5.148h-.891c.22-1.254.572-2.288 1.056-3.102.484-.814 1.089-1.419 1.815-1.815.726-.396 1.584-.594 2.574-.594.462 0 .803.022 1.023.066.242.022.495.088.759.198v5.148c-.55-.242-.99-.396-1.32-.462-.33-.066-.759-.099-1.287-.099-.902 0-1.639.165-2.211.495-.572.308-.99.792-1.254 1.452-.242.66-.363 1.507-.363 2.541V67h-5.94zm22.569.363c-1.87 0-3.487-.352-4.851-1.056-1.364-.704-2.42-1.705-3.168-3.003-.748-1.32-1.122-2.882-1.122-4.686 0-1.826.374-3.388 1.122-4.686.748-1.298 1.804-2.299 3.168-3.003 1.364-.704 2.981-1.056 4.851-1.056 1.848 0 3.454.352 4.818 1.056a7.532 7.532 0 013.168 3.036c.748 1.298 1.122 2.849 1.122 4.653 0 1.782-.374 3.333-1.122 4.653a7.532 7.532 0 01-3.168 3.036c-1.364.704-2.97 1.056-4.818 1.056zm0-4.356c.968 0 1.738-.341 2.31-1.023.572-.704.858-1.826.858-3.366s-.286-2.651-.858-3.333c-.572-.704-1.342-1.056-2.31-1.056-.99 0-1.771.352-2.343 1.056-.572.682-.858 1.793-.858 3.333 0 1.54.286 2.662.858 3.366.572.682 1.353 1.023 2.343 1.023zm28.851 4.356c-1.43 0-2.706-.341-3.828-1.023-1.122-.704-2.002-1.716-2.64-3.036-.638-1.32-.957-2.882-.957-4.686 0-1.826.308-3.388.924-4.686.638-1.32 1.518-2.321 2.64-3.003 1.144-.704 2.431-1.056 3.861-1.056 1.276 0 2.431.297 3.465.891 1.034.572 1.727 1.342 2.079 2.31h-.495V42.712h5.874V67h-5.775v-3.003h.429c-.308 1.012-.99 1.826-2.046 2.442-1.034.616-2.211.924-3.531.924zm1.881-4.356c.968 0 1.76-.341 2.376-1.023.638-.704.957-1.826.957-3.366s-.319-2.651-.957-3.333c-.616-.704-1.408-1.056-2.376-1.056-.99 0-1.804.352-2.442 1.056-.616.682-.924 1.793-.924 3.333 0 1.54.308 2.662.924 3.366.638.682 1.452 1.023 2.442 1.023zm21.864 4.356c-3.036 0-5.401-.781-7.095-2.343-1.672-1.562-2.508-3.707-2.508-6.435 0-1.694.352-3.201 1.056-4.521a7.532 7.532 0 012.97-3.069c1.276-.748 2.772-1.122 4.488-1.122 1.694 0 3.102.374 4.224 1.122 1.144.726 2.002 1.738 2.574 3.036.572 1.276.858 2.761.858 4.455v1.254h-11.253v-2.772h6.93l-.561.462c0-1.254-.242-2.178-.726-2.772-.462-.616-1.122-.924-1.98-.924-.99 0-1.749.374-2.277 1.122-.506.726-.759 1.826-.759 3.3v.594c0 1.474.363 2.552 1.089 3.234.726.682 1.771 1.023 3.135 1.023a9.91 9.91 0 002.475-.297 7.763 7.763 0 002.244-.957l1.518 3.828c-.836.572-1.804 1.012-2.904 1.32-1.1.308-2.266.462-3.498.462zM2.244 108V84.735h5.28l7.623 17.061h-1.089l7.59-17.061h5.313V108H21.45V93.744h1.419L16.269 108h-3.432L6.204 93.744h1.518V108H2.244zm37.91.363c-3.036 0-5.401-.781-7.095-2.343-1.672-1.562-2.508-3.707-2.508-6.435 0-1.694.352-3.201 1.056-4.521a7.532 7.532 0 012.97-3.069c1.276-.748 2.772-1.122 4.488-1.122 1.694 0 3.102.374 4.224 1.122 1.144.726 2.002 1.738 2.574 3.036.572 1.276.858 2.761.858 4.455v1.254H35.468v-2.772h6.93l-.561.462c0-1.254-.242-2.178-.726-2.772-.462-.616-1.122-.924-1.98-.924-.99 0-1.749.374-2.277 1.122-.506.726-.759 1.826-.759 3.3v.594c0 1.474.363 2.552 1.089 3.234.726.682 1.771 1.023 3.135 1.023a9.91 9.91 0 002.475-.297 7.763 7.763 0 002.244-.957l1.518 3.828c-.836.572-1.804 1.012-2.904 1.32-1.1.308-2.266.462-3.498.462zm16.36 0c-1.43 0-2.706-.341-3.828-1.023-1.122-.704-2.002-1.716-2.64-3.036-.638-1.32-.957-2.882-.957-4.686 0-1.826.308-3.388.924-4.686.638-1.32 1.518-2.321 2.64-3.003 1.144-.704 2.431-1.056 3.861-1.056 1.276 0 2.431.297 3.465.891 1.034.572 1.727 1.342 2.079 2.31h-.495V83.712h5.874V108h-5.775v-3.003h.429c-.308 1.012-.99 1.826-2.046 2.442-1.034.616-2.211.924-3.531.924zm1.881-4.356c.968 0 1.76-.341 2.376-1.023.638-.704.957-1.826.957-3.366s-.319-2.651-.957-3.333c-.616-.704-1.408-1.056-2.376-1.056-.99 0-1.804.352-2.442 1.056-.616.682-.924 1.793-.924 3.333 0 1.54.308 2.662.924 3.366.638.682 1.452 1.023 2.442 1.023zM71.415 108V91.236h5.874V108h-5.874zm-.132-19.14v-5.28h6.171v5.28h-6.17zm18.45 19.503c-1.848 0-3.465-.352-4.85-1.056-1.387-.704-2.465-1.705-3.235-3.003-.77-1.32-1.155-2.893-1.155-4.719 0-1.826.385-3.388 1.155-4.686s1.848-2.288 3.234-2.97c1.386-.704 3.003-1.056 4.851-1.056 1.144 0 2.266.154 3.366.462 1.1.308 1.991.748 2.673 1.32l-1.65 3.993a5.388 5.388 0 00-1.815-.99 5.631 5.631 0 00-1.947-.363c-1.21 0-2.156.363-2.838 1.089-.66.726-.99 1.793-.99 3.201 0 1.408.33 2.486.99 3.234.682.726 1.628 1.089 2.838 1.089.616 0 1.265-.11 1.947-.33a6.283 6.283 0 001.815-.99l1.65 3.993c-.704.55-1.606.99-2.706 1.32a12.073 12.073 0 01-3.333.462zm15.368 0c-1.452 0-2.728-.341-3.828-1.023-1.1-.704-1.969-1.716-2.607-3.036-.616-1.32-.924-2.882-.924-4.686 0-1.826.308-3.388.924-4.686.638-1.32 1.507-2.321 2.607-3.003 1.1-.704 2.376-1.056 3.828-1.056 1.298 0 2.464.308 3.498.924 1.056.616 1.749 1.419 2.079 2.409h-.33l.363-2.97h5.643l-.198 2.277c-.044.77-.066 1.529-.066 2.277V108h-5.808l-.066-2.838h.396c-.33.968-1.023 1.749-2.079 2.343-1.034.572-2.178.858-3.432.858zm1.881-4.356c.99 0 1.793-.341 2.409-1.023.616-.704.924-1.826.924-3.366s-.308-2.651-.924-3.333c-.616-.704-1.419-1.056-2.409-1.056-.99 0-1.793.352-2.409 1.056-.616.682-.924 1.793-.924 3.333 0 1.54.297 2.662.891 3.366.616.682 1.43 1.023 2.442 1.023zM120.068 108V95.823c0-.77-.022-1.54-.066-2.31-.044-.77-.11-1.529-.198-2.277h5.676l.627 5.148h-.891c.22-1.254.572-2.288 1.056-3.102.484-.814 1.089-1.419 1.815-1.815.726-.396 1.584-.594 2.574-.594.462 0 .803.022 1.023.066.242.022.495.088.759.198v5.148c-.55-.242-.99-.396-1.32-.462-.33-.066-.759-.099-1.287-.099-.902 0-1.639.165-2.211.495-.572.308-.99.792-1.254 1.452-.242.66-.363 1.507-.363 2.541V108h-5.94zm23.032.363c-3.036 0-5.401-.781-7.095-2.343-1.672-1.562-2.508-3.707-2.508-6.435 0-1.694.352-3.201 1.056-4.521a7.532 7.532 0 012.97-3.069c1.276-.748 2.772-1.122 4.488-1.122 1.694 0 3.102.374 4.224 1.122 1.144.726 2.002 1.738 2.574 3.036.572 1.276.858 2.761.858 4.455v1.254h-11.253v-2.772h6.93l-.561.462c0-1.254-.242-2.178-.726-2.772-.462-.616-1.122-.924-1.98-.924-.99 0-1.749.374-2.277 1.122-.506.726-.759 1.826-.759 3.3v.594c0 1.474.363 2.552 1.089 3.234.726.682 1.771 1.023 3.135 1.023a9.91 9.91 0 002.475-.297 7.763 7.763 0 002.244-.957l1.518 3.828c-.836.572-1.804 1.012-2.904 1.32-1.1.308-2.266.462-3.498.462zm9.298-.363v-6.006h6.105V108h-6.105z" fill="#fff"/></svg>