<svg width="126" height="112" viewBox="0 0 126 112" fill="none" xmlns="http://www.w3.org/2000/svg"><path d="M.472 18l7.92-16.92h3.6L19.96 18h-4.44l-2.04-4.656 1.704 1.224H5.248l1.68-1.224L4.912 18H.472zm9.696-12.36L7.36 12.336l-.672-1.128h7.032l-.6 1.128-2.832-6.696h-.12zm10.837 17.544V9.12a29.027 29.027 0 00-.192-3.312h4.128l.264 2.16h-.24c.224-.72.72-1.304 1.488-1.752.768-.448 1.624-.672 2.568-.672 1.056 0 1.984.256 2.784.768.8.496 1.424 1.224 1.872 2.184.464.944.696 2.08.696 3.408 0 1.312-.232 2.448-.696 3.408-.448.96-1.072 1.696-1.872 2.208-.8.496-1.728.744-2.784.744-.928 0-1.768-.208-2.52-.624-.752-.432-1.248-1-1.488-1.704h.264v7.248h-4.272zm6.648-8.088c.736 0 1.32-.248 1.752-.744.448-.512.672-1.328.672-2.448 0-1.12-.224-1.928-.672-2.424-.432-.512-1.016-.768-1.752-.768-.72 0-1.304.256-1.752.768-.448.496-.672 1.304-.672 2.424 0 1.12.224 1.936.672 2.448.448.496 1.032.744 1.752.744zM36.691 18V9.144a29.442 29.442 0 00-.192-3.336h4.128l.456 3.744h-.648c.16-.912.416-1.664.768-2.256.352-.592.792-1.032 1.32-1.32.528-.288 1.152-.432 1.872-.432.336 0 .584.016.744.048.176.016.36.064.552.144V9.48c-.4-.176-.72-.288-.96-.336a4.936 4.936 0 00-.936-.072c-.656 0-1.192.12-1.608.36-.416.224-.72.576-.912 1.056-.176.48-.264 1.096-.264 1.848V18h-4.32zm16.75.264c-2.208 0-3.928-.568-5.16-1.704-1.216-1.136-1.824-2.696-1.824-4.68 0-1.232.256-2.328.768-3.288a5.478 5.478 0 012.16-2.232c.928-.544 2.016-.816 3.264-.816 1.232 0 2.256.272 3.072.816.832.528 1.456 1.264 1.872 2.208.416.928.624 2.008.624 3.24v.912h-8.184v-2.016h5.04l-.408.336c0-.912-.176-1.584-.528-2.016-.336-.448-.816-.672-1.44-.672-.72 0-1.272.272-1.656.816-.368.528-.552 1.328-.552 2.4V12c0 1.072.264 1.856.792 2.352.528.496 1.288.744 2.28.744.64 0 1.24-.072 1.8-.216a5.646 5.646 0 001.632-.696l1.104 2.784a7.098 7.098 0 01-2.112.96c-.8.224-1.648.336-2.544.336zM60.49 18V9.12a29.027 29.027 0 00-.192-3.312h4.128l.24 2.112h-.264c.4-.768.968-1.352 1.704-1.752.736-.416 1.568-.624 2.496-.624 1.424 0 2.488.424 3.192 1.272.72.832 1.08 2.136 1.08 3.912V18h-4.272v-7.08c0-.784-.136-1.328-.408-1.632-.272-.32-.664-.48-1.176-.48-.672 0-1.216.224-1.632.672-.416.432-.624 1.008-.624 1.728V18H60.49zm20.041.264c-1.04 0-1.968-.248-2.784-.744-.816-.512-1.456-1.248-1.92-2.208-.464-.96-.696-2.096-.696-3.408 0-1.328.224-2.464.672-3.408.464-.96 1.104-1.688 1.92-2.184.832-.512 1.768-.768 2.808-.768.928 0 1.768.216 2.52.648.752.416 1.256.976 1.512 1.68h-.36V.336h4.272V18h-4.2v-2.184h.312c-.224.736-.72 1.328-1.488 1.776-.752.448-1.608.672-2.568.672zm1.368-3.168c.704 0 1.28-.248 1.728-.744.464-.512.696-1.328.696-2.448 0-1.12-.232-1.928-.696-2.424-.448-.512-1.024-.768-1.728-.768-.72 0-1.312.256-1.776.768-.448.496-.672 1.304-.672 2.424 0 1.12.224 1.936.672 2.448.464.496 1.056.744 1.776.744zm15.901 3.168c-2.208 0-3.928-.568-5.16-1.704-1.216-1.136-1.824-2.696-1.824-4.68 0-1.232.256-2.328.768-3.288a5.478 5.478 0 012.16-2.232c.928-.544 2.016-.816 3.264-.816 1.232 0 2.256.272 3.072.816.832.528 1.456 1.264 1.872 2.208.416.928.624 2.008.624 3.24v.912h-8.184v-2.016h5.04l-.408.336c0-.912-.176-1.584-.528-2.016-.336-.448-.816-.672-1.44-.672-.72 0-1.272.272-1.656.816-.368.528-.552 1.328-.552 2.4V12c0 1.072.264 1.856.792 2.352.528.496 1.288.744 2.28.744.64 0 1.24-.072 1.8-.216a5.648 5.648 0 001.632-.696l1.104 2.784a7.098 7.098 0 01-2.112.96 9.39 9.39 0 01-2.544.336zm19.028 0c-1.056 0-1.984-.248-2.784-.744-.8-.512-1.432-1.248-1.896-2.208-.448-.96-.672-2.096-.672-3.408 0-1.328.224-2.464.672-3.408.464-.96 1.096-1.688 1.896-2.184.8-.512 1.728-.768 2.784-.768.944 0 1.792.224 2.544.672.768.448 1.272 1.032 1.512 1.752h-.24l.264-2.16h4.104a664.45 664.45 0 00-.144 1.656c-.032.56-.048 1.112-.048 1.656V18h-4.224l-.048-2.064h.288c-.24.704-.744 1.272-1.512 1.704a5.07 5.07 0 01-2.496.624zm1.368-3.168c.72 0 1.304-.248 1.752-.744.448-.512.672-1.328.672-2.448 0-1.12-.224-1.928-.672-2.424-.448-.512-1.032-.768-1.752-.768s-1.304.256-1.752.768c-.448.496-.672 1.304-.672 2.424 0 1.12.216 1.936.648 2.448.448.496 1.04.744 1.776.744zM2.32 49V36.808h4.272V49H2.32zm-.096-13.92v-3.84h4.488v3.84H2.224zm12.098 14.184c-1.04 0-1.968-.248-2.784-.744-.816-.512-1.456-1.248-1.92-2.208-.464-.96-.696-2.096-.696-3.408 0-1.328.224-2.464.672-3.408.464-.96 1.104-1.688 1.92-2.184.832-.512 1.768-.768 2.808-.768.928 0 1.768.216 2.52.648.752.416 1.256.976 1.512 1.68h-.36v-7.536h4.272V49h-4.2v-2.184h.312c-.224.736-.72 1.328-1.488 1.776-.752.448-1.608.672-2.568.672zm1.368-3.168c.704 0 1.28-.248 1.728-.744.464-.512.696-1.328.696-2.448 0-1.12-.232-1.928-.696-2.424-.448-.512-1.024-.768-1.728-.768-.72 0-1.312.256-1.776.768-.448.496-.672 1.304-.672 2.424 0 1.12.224 1.936.672 2.448.464.496 1.056.744 1.776.744zm15.901 3.168c-2.208 0-3.928-.568-5.16-1.704-1.216-1.136-1.824-2.696-1.824-4.68 0-1.232.256-2.328.768-3.288a5.478 5.478 0 012.16-2.232c.928-.544 2.016-.816 3.264-.816 1.232 0 2.256.272 3.072.816.832.528 1.456 1.264 1.872 2.208.416.928.624 2.008.624 3.24v.912h-8.184v-2.016h5.04l-.408.336c0-.912-.176-1.584-.528-2.016-.336-.448-.816-.672-1.44-.672-.72 0-1.272.272-1.656.816-.368.528-.552 1.328-.552 2.4V43c0 1.072.264 1.856.792 2.352.528.496 1.288.744 2.28.744.64 0 1.24-.072 1.8-.216a5.646 5.646 0 001.632-.696l1.104 2.784a7.098 7.098 0 01-2.112.96c-.8.224-1.648.336-2.544.336zm7.05-.264v-8.88a29.027 29.027 0 00-.191-3.312h4.128l.24 2.112h-.264c.4-.768.968-1.352 1.704-1.752.736-.416 1.568-.624 2.496-.624 1.424 0 2.488.424 3.192 1.272.72.832 1.08 2.136 1.08 3.912V49h-4.272v-7.08c0-.784-.136-1.328-.408-1.632-.272-.32-.664-.48-1.176-.48-.672 0-1.216.224-1.632.672-.416.432-.624 1.008-.624 1.728V49h-4.272zm21.434.264c-1.728 0-3.032-.408-3.912-1.224-.864-.832-1.296-2.088-1.296-3.768v-4.32h-2.28v-3.144h2.28v-2.88l4.272-1.008v3.888h2.976v3.144h-2.976v4.152c0 .704.16 1.176.48 1.416.32.224.704.336 1.152.336.272 0 .504-.016.696-.048.208-.048.424-.112.648-.192v3.288c-.352.144-.704.24-1.056.288a6.955 6.955 0 01-.984.072zM64.012 49V36.808h4.272V49h-4.272zm-.096-13.92v-3.84h4.488v3.84h-4.488zM72.198 49v-9.048h-2.28v-3.144h3.48l-1.2 1.104v-1.656c0-1.68.432-2.936 1.296-3.768.864-.832 2.128-1.248 3.792-1.248.416 0 .848.024 1.296.072a4.4 4.4 0 011.2.288v3.264a3.404 3.404 0 00-.768-.168 5.107 5.107 0 00-.84-.072c-.48 0-.888.128-1.224.384-.336.24-.504.696-.504 1.368v1.08l-.6-.648h9.264V49h-4.272v-9.048H76.47V49h-4.272zm8.52-13.92v-3.84h4.488v3.84h-4.488zm13.45 14.184c-1.344 0-2.52-.256-3.528-.768a5.642 5.642 0 01-2.352-2.184c-.56-.96-.84-2.104-.84-3.432 0-1.328.28-2.464.84-3.408a5.488 5.488 0 012.352-2.16c1.008-.512 2.184-.768 3.528-.768.832 0 1.648.112 2.448.336.8.224 1.448.544 1.944.96l-1.2 2.904a3.919 3.919 0 00-1.32-.72 4.095 4.095 0 00-1.416-.264c-.88 0-1.568.264-2.064.792-.48.528-.72 1.304-.72 2.328 0 1.024.24 1.808.72 2.352.496.528 1.184.792 2.064.792.448 0 .92-.08 1.416-.24a4.57 4.57 0 001.32-.72l1.2 2.904c-.512.4-1.168.72-1.968.96a8.78 8.78 0 01-2.424.336zm11.177 0c-1.056 0-1.984-.248-2.784-.744-.8-.512-1.432-1.248-1.896-2.208-.448-.96-.672-2.096-.672-3.408 0-1.328.224-2.464.672-3.408.464-.96 1.096-1.688 1.896-2.184.8-.512 1.728-.768 2.784-.768.944 0 1.792.224 2.544.672.768.448 1.272 1.032 1.512 1.752h-.24l.264-2.16h4.104a664.45 664.45 0 00-.144 1.656c-.032.56-.048 1.112-.048 1.656V49h-4.224l-.048-2.064h.288c-.24.704-.744 1.272-1.512 1.704a5.07 5.07 0 01-2.496.624zm1.368-3.168c.72 0 1.304-.248 1.752-.744.448-.512.672-1.328.672-2.448 0-1.12-.224-1.928-.672-2.424-.448-.512-1.032-.768-1.752-.768s-1.304.256-1.752.768c-.448.496-.672 1.304-.672 2.424 0 1.12.216 1.936.648 2.448.448.496 1.04.744 1.776.744zM116.23 49v-8.856a29.442 29.442 0 00-.192-3.336h4.128l.456 3.744h-.648c.16-.912.416-1.664.768-2.256.352-.592.792-1.032 1.32-1.32.528-.288 1.152-.432 1.872-.432.336 0 .584.016.744.048.176.016.36.064.552.144v3.744c-.4-.176-.72-.288-.96-.336a4.936 4.936 0 00-.936-.072c-.656 0-1.192.12-1.608.36-.416.224-.72.576-.912 1.056-.176.48-.264 1.096-.264 1.848V49h-4.32zM2.368 85.448L1.36 82.136a13.92 13.92 0 001.92-.48c.528-.16.96-.384 1.296-.672.336-.288.6-.664.792-1.128l.6-1.392-.096 1.608L.544 67.808h4.512l3.12 8.088h-.792l3.216-8.088h4.224L9.352 80.264c-.432.976-.896 1.776-1.392 2.4-.48.624-1.008 1.12-1.584 1.488a6.2 6.2 0 01-1.848.816c-.656.192-1.376.352-2.16.48zM23.12 80v-8.856a29.442 29.442 0 00-.192-3.336h4.128l.456 3.744h-.648c.16-.912.416-1.664.768-2.256.352-.592.792-1.032 1.32-1.32.528-.288 1.152-.432 1.872-.432.336 0 .584.016.744.048.176.016.36.064.552.144v3.744c-.4-.176-.72-.288-.96-.336a4.936 4.936 0 00-.936-.072c-.656 0-1.192.12-1.608.36-.416.224-.72.576-.912 1.056-.176.48-.264 1.096-.264 1.848V80h-4.32zm16.75.264c-2.208 0-3.928-.568-5.16-1.704-1.216-1.136-1.824-2.696-1.824-4.68 0-1.232.256-2.328.768-3.288a5.478 5.478 0 012.16-2.232c.928-.544 2.016-.816 3.264-.816 1.232 0 2.256.272 3.072.816.832.528 1.456 1.264 1.872 2.208.416.928.624 2.008.624 3.24v.912h-8.184v-2.016h5.04l-.408.336c0-.912-.176-1.584-.528-2.016-.336-.448-.816-.672-1.44-.672-.72 0-1.272.272-1.656.816-.368.528-.552 1.328-.552 2.4V74c0 1.072.264 1.856.792 2.352.528.496 1.288.744 2.28.744.64 0 1.24-.072 1.8-.216a5.646 5.646 0 001.632-.696l1.104 2.784a7.098 7.098 0 01-2.112.96c-.8.224-1.648.336-2.544.336zm7.05 4.92V71.12a29.027 29.027 0 00-.191-3.312h4.128l.264 2.16h-.24c.224-.72.72-1.304 1.488-1.752.768-.448 1.624-.672 2.568-.672 1.056 0 1.984.256 2.784.768.8.496 1.424 1.224 1.872 2.184.464.944.696 2.08.696 3.408 0 1.312-.232 2.448-.696 3.408-.448.96-1.072 1.696-1.872 2.208-.8.496-1.728.744-2.784.744-.928 0-1.768-.208-2.52-.624-.752-.432-1.248-1-1.488-1.704h.264v7.248H46.92zm6.649-8.088c.736 0 1.32-.248 1.752-.744.448-.512.672-1.328.672-2.448 0-1.12-.224-1.928-.672-2.424-.432-.512-1.016-.768-1.752-.768-.72 0-1.304.256-1.752.768-.448.496-.672 1.304-.672 2.424 0 1.12.224 1.936.672 2.448.448.496 1.032.744 1.752.744zm15.133 3.168c-1.36 0-2.536-.256-3.528-.768a5.52 5.52 0 01-2.304-2.184c-.544-.96-.816-2.096-.816-3.408 0-1.328.272-2.464.816-3.408a5.52 5.52 0 012.304-2.184c.992-.512 2.168-.768 3.528-.768 1.344 0 2.512.256 3.504.768a5.478 5.478 0 012.304 2.208c.544.944.816 2.072.816 3.384 0 1.296-.272 2.424-.816 3.384a5.478 5.478 0 01-2.304 2.208c-.992.512-2.16.768-3.504.768zm0-3.168c.704 0 1.264-.248 1.68-.744.416-.512.624-1.328.624-2.448 0-1.12-.208-1.928-.624-2.424-.416-.512-.976-.768-1.68-.768-.72 0-1.288.256-1.704.768-.416.496-.624 1.304-.624 2.424 0 1.12.208 1.936.624 2.448.416.496.984.744 1.704.744zM77.658 80v-8.856a29.442 29.442 0 00-.192-3.336h4.128l.456 3.744h-.648c.16-.912.416-1.664.768-2.256.352-.592.792-1.032 1.32-1.32.528-.288 1.152-.432 1.872-.432.336 0 .584.016.744.048.176.016.36.064.552.144v3.744c-.4-.176-.72-.288-.96-.336a4.936 4.936 0 00-.936-.072c-.656 0-1.192.12-1.608.36-.416.224-.72.576-.912 1.056-.176.48-.264 1.096-.264 1.848V80h-4.32zm17.473.264c-1.728 0-3.032-.408-3.912-1.224-.864-.832-1.296-2.088-1.296-3.768v-4.32h-2.28v-3.144h2.28v-2.88l4.272-1.008v3.888h2.976v3.144h-2.976v4.152c0 .704.16 1.176.48 1.416.32.224.704.336 1.152.336.272 0 .504-.016.696-.048.208-.048.424-.112.648-.192v3.288c-.352.144-.704.24-1.056.288a6.955 6.955 0 01-.984.072zm8.737 0c-1.056 0-1.984-.248-2.784-.744-.8-.512-1.432-1.248-1.896-2.208-.448-.96-.672-2.096-.672-3.408 0-1.328.224-2.464.672-3.408.464-.96 1.096-1.688 1.896-2.184.8-.512 1.728-.768 2.784-.768.944 0 1.792.224 2.544.672.768.448 1.272 1.032 1.512 1.752h-.24l.264-2.16h4.104a664.45 664.45 0 00-.144 1.656c-.032.56-.048 1.112-.048 1.656V80h-4.224l-.048-2.064h.288c-.24.704-.744 1.272-1.512 1.704a5.07 5.07 0 01-2.496.624zm1.368-3.168c.72 0 1.304-.248 1.752-.744.448-.512.672-1.328.672-2.448 0-1.12-.224-1.928-.672-2.424-.448-.512-1.032-.768-1.752-.768s-1.304.256-1.752.768c-.448.496-.672 1.304-.672 2.424 0 1.12.216 1.936.648 2.448.448.496 1.04.744 1.776.744zM114.753 80v-8.856a29.442 29.442 0 00-.192-3.336h4.128l.456 3.744h-.648c.16-.912.416-1.664.768-2.256.352-.592.792-1.032 1.32-1.32.528-.288 1.152-.432 1.872-.432.336 0 .584.016.744.048.176.016.36.064.552.144v3.744c-.4-.176-.72-.288-.96-.336a4.936 4.936 0 00-.936-.072c-.656 0-1.192.12-1.608.36-.416.224-.72.576-.912 1.056-.176.48-.264 1.096-.264 1.848V80h-4.32zM8.752 111.264c-2.208 0-3.928-.568-5.16-1.704-1.216-1.136-1.824-2.696-1.824-4.68 0-1.232.256-2.328.768-3.288a5.478 5.478 0 012.16-2.232c.928-.544 2.016-.816 3.264-.816 1.232 0 2.256.272 3.072.816.832.528 1.456 1.264 1.872 2.208.416.928.624 2.008.624 3.24v.912H5.344v-2.016h5.04l-.408.336c0-.912-.176-1.584-.528-2.016-.336-.448-.816-.672-1.44-.672-.72 0-1.272.272-1.656.816-.368.528-.552 1.328-.552 2.4V105c0 1.072.264 1.856.792 2.352.528.496 1.288.744 2.28.744.64 0 1.24-.072 1.8-.216a5.646 5.646 0 001.632-.696l1.104 2.784a7.098 7.098 0 01-2.112.96c-.8.224-1.648.336-2.544.336zm7.05-.264V93.336h4.272V111h-4.272zm15.364 0v-9.048h-2.28v-3.144h3.48l-1.2 1.104v-1.656c0-1.68.44-2.936 1.32-3.768.88-.832 2.208-1.248 3.984-1.248.4 0 .824.024 1.272.072a4.4 4.4 0 011.2.288v3.264a3.404 3.404 0 00-.768-.168 5.107 5.107 0 00-.84-.072c-.32 0-.632.056-.936.168a1.465 1.465 0 00-.72.528c-.176.256-.264.608-.264 1.056v1.08l-.6-.648h3.552v3.144h-2.928V111h-4.272zm8.91 0v-8.856a29.442 29.442 0 00-.191-3.336h4.128l.456 3.744h-.648c.16-.912.416-1.664.768-2.256.352-.592.792-1.032 1.32-1.32.528-.288 1.152-.432 1.872-.432.336 0 .584.016.744.048.176.016.36.064.552.144v3.744c-.4-.176-.72-.288-.96-.336a4.936 4.936 0 00-.936-.072c-.656 0-1.192.12-1.608.36-.416.224-.72.576-.912 1.056-.176.48-.264 1.096-.264 1.848V111h-4.32zm15.213.264c-1.056 0-1.984-.248-2.784-.744-.8-.512-1.432-1.248-1.896-2.208-.448-.96-.672-2.096-.672-3.408 0-1.328.224-2.464.672-3.408.464-.96 1.096-1.688 1.896-2.184.8-.512 1.728-.768 2.784-.768.944 0 1.792.224 2.544.672.768.448 1.272 1.032 1.512 1.752h-.24l.264-2.16h4.104a664.45 664.45 0 00-.144 1.656c-.032.56-.048 1.112-.048 1.656V111h-4.224l-.048-2.064h.288c-.24.704-.744 1.272-1.512 1.704a5.07 5.07 0 01-2.496.624zm1.368-3.168c.72 0 1.304-.248 1.752-.744.448-.512.672-1.328.672-2.448 0-1.12-.224-1.928-.672-2.424-.448-.512-1.032-.768-1.752-.768s-1.304.256-1.752.768c-.448.496-.672 1.304-.672 2.424 0 1.12.216 1.936.648 2.448.448.496 1.04.744 1.776.744zm14.005 3.168c-1.552 0-2.704-.424-3.456-1.272-.736-.864-1.104-2.168-1.104-3.912v-7.272h4.272v7.296c0 .64.128 1.12.384 1.44.272.304.68.456 1.224.456.608 0 1.104-.216 1.488-.648.4-.448.6-1.032.6-1.752v-6.792h4.272V111H74.19v-2.184h.36c-.384.784-.904 1.392-1.56 1.824-.656.416-1.432.624-2.328.624zm15.436 0c-1.04 0-1.968-.248-2.784-.744-.816-.512-1.456-1.248-1.92-2.208-.464-.96-.696-2.096-.696-3.408 0-1.328.224-2.464.672-3.408.464-.96 1.104-1.688 1.92-2.184.832-.512 1.768-.768 2.808-.768.928 0 1.768.216 2.52.648.752.416 1.256.976 1.512 1.68h-.36v-7.536h4.272V111h-4.2v-2.184h.312c-.224.736-.72 1.328-1.488 1.776-.752.448-1.608.672-2.568.672zm1.368-3.168c.704 0 1.28-.248 1.728-.744.464-.512.696-1.328.696-2.448 0-1.12-.232-1.928-.696-2.424-.448-.512-1.024-.768-1.728-.768-.72 0-1.312.256-1.776.768-.448.496-.672 1.304-.672 2.424 0 1.12.224 1.936.672 2.448.464.496 1.056.744 1.776.744zm15.901 3.168c-2.208 0-3.928-.568-5.16-1.704-1.216-1.136-1.824-2.696-1.824-4.68 0-1.232.256-2.328.768-3.288a5.478 5.478 0 012.16-2.232c.928-.544 2.016-.816 3.264-.816 1.232 0 2.256.272 3.072.816.832.528 1.456 1.264 1.872 2.208.416.928.624 2.008.624 3.24v.912h-8.184v-2.016H105l-.408.336c0-.912-.176-1.584-.528-2.016-.336-.448-.816-.672-1.44-.672-.72 0-1.272.272-1.656.816-.368.528-.552 1.328-.552 2.4V105c0 1.072.264 1.856.792 2.352.528.496 1.288.744 2.28.744.64 0 1.24-.072 1.8-.216a5.646 5.646 0 001.632-.696l1.104 2.784a7.098 7.098 0 01-2.112.96c-.8.224-1.648.336-2.544.336zm6.763-.264v-4.368h4.44V111h-4.44z" fill="#fff"/></svg>