<svg width="145" height="110" viewBox="0 0 145 110" fill="none" xmlns="http://www.w3.org/2000/svg"><path d="M7.26 17.242c-1.247 0-2.435-.147-3.564-.44-1.115-.308-2.053-.719-2.816-1.232l1.144-3.146a8.875 8.875 0 001.584.792c.572.22 1.166.396 1.782.528.63.117 1.269.176 1.914.176.968 0 1.635-.125 2.002-.374.381-.25.572-.572.572-.968 0-.352-.125-.623-.374-.814-.25-.205-.719-.381-1.408-.528l-2.684-.55c-1.423-.293-2.486-.8-3.19-1.518-.704-.733-1.056-1.687-1.056-2.86 0-1.027.271-1.914.814-2.662.557-.763 1.335-1.35 2.332-1.76.997-.425 2.163-.638 3.498-.638 1.1 0 2.134.154 3.102.462.968.293 1.76.704 2.376 1.232L12.144 5.89a6.552 6.552 0 00-1.98-.968c-.733-.235-1.547-.352-2.442-.352-.85 0-1.496.132-1.936.396-.425.25-.638.609-.638 1.078 0 .323.125.601.374.836.264.22.74.403 1.43.55l2.64.528c1.423.279 2.486.777 3.19 1.496.719.719 1.078 1.657 1.078 2.816 0 .997-.279 1.87-.836 2.618-.543.748-1.305 1.327-2.288 1.738-.983.41-2.141.616-3.476.616zM16.19 17V5.824h3.916V17H16.19zm-.088-12.76V.72h4.114v3.52h-4.114zM29.327 17V8.882a26.927 26.927 0 00-.176-3.058h3.784l.418 3.432h-.594c.147-.836.381-1.525.704-2.068.323-.543.726-.946 1.21-1.21s1.056-.396 1.716-.396c.308 0 .535.015.682.044.161.015.33.059.506.132V9.19c-.367-.161-.66-.264-.88-.308a4.525 4.525 0 00-.858-.066c-.601 0-1.093.11-1.474.33-.381.205-.66.528-.836.968-.161.44-.242 1.005-.242 1.694V17h-3.96zm15.354.242c-2.024 0-3.6-.52-4.73-1.562-1.114-1.041-1.672-2.471-1.672-4.29 0-1.13.235-2.134.704-3.014a5.02 5.02 0 011.98-2.046c.851-.499 1.848-.748 2.992-.748 1.13 0 2.068.25 2.816.748.763.484 1.335 1.159 1.716 2.024.382.85.572 1.84.572 2.97v.836h-7.502v-1.848h4.62l-.374.308c0-.836-.161-1.452-.484-1.848-.308-.41-.748-.616-1.32-.616-.66 0-1.166.25-1.518.748-.337.484-.506 1.217-.506 2.2v.396c0 .983.242 1.701.726 2.156.484.455 1.181.682 2.09.682.587 0 1.137-.066 1.65-.198a5.176 5.176 0 001.496-.638l1.012 2.552a6.506 6.506 0 01-1.936.88 8.613 8.613 0 01-2.332.308zm12.117 0c-1.232 0-2.31-.235-3.234-.704a5.172 5.172 0 01-2.156-2.002c-.513-.88-.77-1.929-.77-3.146 0-1.217.257-2.259.77-3.124a5.03 5.03 0 012.156-1.98c.924-.47 2.002-.704 3.234-.704.763 0 1.51.103 2.244.308.733.205 1.327.499 1.782.88l-1.1 2.662a3.592 3.592 0 00-1.21-.66 3.754 3.754 0 00-1.298-.242c-.807 0-1.437.242-1.892.726-.44.484-.66 1.195-.66 2.134 0 .939.22 1.657.66 2.156.455.484 1.085.726 1.892.726.41 0 .843-.073 1.298-.22a4.187 4.187 0 001.21-.66l1.1 2.662c-.47.367-1.07.66-1.804.88a8.05 8.05 0 01-2.222.308zM62.665 17V5.824h3.916V17h-3.916zm-.088-12.76V.72h4.114v3.52h-4.114zm13.972 13.002c-.851 0-1.628-.205-2.332-.616-.69-.41-1.144-.953-1.364-1.628h.242V17h-3.872V.808h3.916v6.908h-.264c.249-.645.711-1.159 1.386-1.54a4.511 4.511 0 012.288-.594c.968 0 1.818.235 2.552.704.748.47 1.327 1.144 1.738 2.024.425.88.638 1.921.638 3.124 0 1.217-.213 2.259-.638 3.124-.411.865-.99 1.533-1.738 2.002-.734.455-1.584.682-2.552.682zm-1.232-2.904c.645 0 1.173-.227 1.584-.682.425-.455.638-1.195.638-2.222s-.213-1.775-.638-2.244c-.411-.47-.939-.704-1.584-.704-.66 0-1.196.235-1.606.704-.411.455-.616 1.195-.616 2.222s.205 1.775.616 2.244c.41.455.946.682 1.606.682zm14.18 2.904c-2.024 0-3.6-.52-4.73-1.562-1.115-1.041-1.672-2.471-1.672-4.29 0-1.13.234-2.134.704-3.014a5.02 5.02 0 011.98-2.046c.85-.499 1.848-.748 2.992-.748 1.13 0 2.068.25 2.816.748.763.484 1.334 1.159 1.716 2.024.381.85.572 1.84.572 2.97v.836h-7.502v-1.848h4.62l-.374.308c0-.836-.162-1.452-.484-1.848-.308-.41-.748-.616-1.32-.616-.66 0-1.166.25-1.518.748-.337.484-.506 1.217-.506 2.2v.396c0 .983.242 1.701.726 2.156.484.455 1.18.682 2.09.682.587 0 1.136-.066 1.65-.198a5.177 5.177 0 001.496-.638l1.012 2.552a6.507 6.507 0 01-1.936.88 8.614 8.614 0 01-2.332.308zm10.753 0c-1.042 0-1.988-.103-2.838-.308-.837-.22-1.548-.513-2.135-.88l.947-2.552a9.02 9.02 0 001.913.792c.72.205 1.43.308 2.135.308.557 0 .96-.08 1.21-.242.264-.176.396-.403.396-.682a.649.649 0 00-.242-.528c-.162-.132-.404-.227-.726-.286l-2.376-.418c-.94-.176-1.672-.52-2.2-1.034-.514-.528-.77-1.21-.77-2.046 0-.763.205-1.423.616-1.98.41-.572.997-1.012 1.76-1.32.762-.323 1.664-.484 2.706-.484.85 0 1.657.095 2.42.286.777.19 1.452.491 2.024.902l-1.012 2.486a6.024 6.024 0 00-1.606-.748c-.602-.205-1.166-.308-1.694-.308-.631 0-1.079.095-1.343.286-.264.176-.395.396-.395.66a.72.72 0 00.22.528c.146.132.38.227.703.286l2.377.418c.968.161 1.708.499 2.222 1.012.528.499.792 1.18.792 2.046 0 .807-.22 1.496-.66 2.068-.426.557-1.02.99-1.782 1.298-.763.293-1.65.44-2.662.44zm-94.926 23c-1.423 0-2.479-.389-3.168-1.166-.675-.792-1.012-1.987-1.012-3.586v-6.666H5.06v6.688c0 .587.117 1.027.352 1.32.25.279.623.418 1.122.418.557 0 1.012-.198 1.364-.594.367-.41.55-.946.55-1.606v-6.226h3.916V40H8.558v-2.002h.33c-.352.719-.829 1.276-1.43 1.672-.601.381-1.313.572-2.134.572zM15.03 40v-8.14a26.637 26.637 0 00-.176-3.036h3.784l.22 1.936h-.242a3.754 3.754 0 011.562-1.606c.674-.381 1.437-.572 2.288-.572 1.305 0 2.28.389 2.926 1.166.66.763.99 1.958.99 3.586V40h-3.916v-6.49c0-.719-.125-1.217-.374-1.496-.25-.293-.61-.44-1.078-.44-.616 0-1.115.205-1.496.616-.382.396-.572.924-.572 1.584V40H15.03zm18.327.242c-.968 0-1.819-.227-2.552-.682-.734-.47-1.313-1.144-1.738-2.024-.411-.88-.616-1.921-.616-3.124 0-1.217.205-2.259.616-3.124.425-.88 1.004-1.547 1.738-2.002.733-.47 1.584-.704 2.552-.704.865 0 1.642.205 2.332.616.704.41 1.166.946 1.386 1.606h-.22l.242-1.98h3.762a611.86 611.86 0 00-.132 1.518c-.03.513-.044 1.02-.044 1.518V40H36.81l-.044-1.892h.264c-.22.645-.682 1.166-1.386 1.562a4.647 4.647 0 01-2.288.572zm1.254-2.904c.66 0 1.195-.227 1.606-.682.41-.47.616-1.217.616-2.244 0-1.027-.206-1.767-.616-2.222-.411-.47-.946-.704-1.606-.704-.66 0-1.196.235-1.606.704-.411.455-.616 1.195-.616 2.222s.198 1.775.594 2.244c.41.455.953.682 1.628.682zM49.914 40V23.808h3.916V40h-3.916zm6.558 0V23.808h3.916V40h-3.916zm10.958.242c-.968 0-1.819-.227-2.552-.682-.733-.47-1.313-1.144-1.738-2.024-.41-.88-.616-1.921-.616-3.124 0-1.217.205-2.259.616-3.124.425-.88 1.005-1.547 1.738-2.002.733-.47 1.584-.704 2.552-.704.865 0 1.643.205 2.332.616.704.41 1.166.946 1.386 1.606h-.22l.242-1.98h3.762a611.86 611.86 0 00-.132 1.518c-.03.513-.044 1.02-.044 1.518V40h-3.872l-.044-1.892h.264c-.22.645-.682 1.166-1.386 1.562a4.647 4.647 0 01-2.288.572zm1.254-2.904c.66 0 1.195-.227 1.606-.682.41-.47.616-1.217.616-2.244 0-1.027-.205-1.767-.616-2.222-.41-.47-.946-.704-1.606-.704-.66 0-1.195.235-1.606.704-.41.455-.616 1.195-.616 2.222s.198 1.775.594 2.244c.41.455.953.682 1.628.682zM77.408 40v-8.14a26.637 26.637 0 00-.176-3.036h3.784l.22 1.936h-.242a3.65 3.65 0 011.43-1.584c.63-.396 1.371-.594 2.222-.594.822 0 1.518.198 2.09.594.587.381 1.012.99 1.276 1.826h-.374a4.16 4.16 0 011.584-1.782 4.464 4.464 0 012.354-.638c1.276 0 2.23.389 2.86 1.166.63.763.946 1.958.946 3.586V40h-3.938v-6.534c0-.69-.103-1.173-.308-1.452-.205-.293-.535-.44-.99-.44-.572 0-1.02.205-1.342.616-.308.41-.462.975-.462 1.694V40h-3.916v-6.534c0-.69-.11-1.173-.33-1.452-.205-.293-.528-.44-.968-.44-.572 0-1.02.205-1.342.616-.308.41-.462.975-.462 1.694V40h-3.916zm24.944.242c-.968 0-1.818-.227-2.552-.682-.733-.47-1.312-1.144-1.738-2.024-.41-.88-.616-1.921-.616-3.124 0-1.217.206-2.259.616-3.124.426-.88 1.005-1.547 1.738-2.002.734-.47 1.584-.704 2.552-.704.866 0 1.643.205 2.332.616.704.41 1.166.946 1.386 1.606h-.22l.242-1.98h3.762a611.86 611.86 0 00-.132 1.518c-.029.513-.044 1.02-.044 1.518V40h-3.872l-.044-1.892h.264c-.22.645-.682 1.166-1.386 1.562a4.646 4.646 0 01-2.288.572zm1.254-2.904c.66 0 1.196-.227 1.606-.682.411-.47.616-1.217.616-2.244 0-1.027-.205-1.767-.616-2.222-.41-.47-.946-.704-1.606-.704-.66 0-1.195.235-1.606.704-.41.455-.616 1.195-.616 2.222s.198 1.775.594 2.244c.411.455.954.682 1.628.682zm13.169 2.904c-.954 0-1.804-.227-2.552-.682-.748-.47-1.335-1.144-1.76-2.024-.426-.88-.638-1.921-.638-3.124 0-1.217.205-2.259.616-3.124.425-.88 1.012-1.547 1.76-2.002.762-.47 1.62-.704 2.574-.704.85 0 1.62.198 2.31.594.689.381 1.151.895 1.386 1.54h-.33v-6.908h3.916V40h-3.85v-2.002h.286c-.206.675-.66 1.217-1.364 1.628-.69.41-1.474.616-2.354.616zm1.254-2.904c.645 0 1.173-.227 1.584-.682.425-.47.638-1.217.638-2.244 0-1.027-.213-1.767-.638-2.222-.411-.47-.939-.704-1.584-.704-.66 0-1.203.235-1.628.704-.411.455-.616 1.195-.616 2.222s.205 1.775.616 2.244c.425.455.968.682 1.628.682zm13.08 2.904c-.968 0-1.819-.227-2.552-.682-.734-.47-1.313-1.144-1.738-2.024-.411-.88-.616-1.921-.616-3.124 0-1.217.205-2.259.616-3.124.425-.88 1.004-1.547 1.738-2.002.733-.47 1.584-.704 2.552-.704.865 0 1.642.205 2.332.616.704.41 1.166.946 1.386 1.606h-.22l.242-1.98h3.762a611.86 611.86 0 00-.132 1.518c-.03.513-.044 1.02-.044 1.518V40h-3.872l-.044-1.892h.264c-.22.645-.682 1.166-1.386 1.562a4.65 4.65 0 01-2.288.572zm1.254-2.904c.66 0 1.195-.227 1.606-.682.41-.47.616-1.217.616-2.244 0-1.027-.206-1.767-.616-2.222-.411-.47-.946-.704-1.606-.704-.66 0-1.196.235-1.606.704-.411.455-.616 1.195-.616 2.222s.198 1.775.594 2.244c.41.455.953.682 1.628.682zm10.308 6.072l-1.474-1.166c.572-.557.975-1.085 1.21-1.584a3.546 3.546 0 00.374-1.606l.836.946h-2.794v-4.004h4.07v2.53c0 .924-.169 1.76-.506 2.508-.323.763-.895 1.555-1.716 2.376zM5.324 63.242c-1.423 0-2.479-.389-3.168-1.166-.675-.792-1.012-1.987-1.012-3.586v-6.666H5.06v6.688c0 .587.117 1.027.352 1.32.25.279.623.418 1.122.418.557 0 1.012-.198 1.364-.594.367-.41.55-.946.55-1.606v-6.226h3.916V63H8.558v-2.002h.33c-.352.719-.829 1.276-1.43 1.672-.601.381-1.313.572-2.134.572zM15.03 63v-8.14a26.637 26.637 0 00-.176-3.036h3.784l.22 1.936h-.242a3.754 3.754 0 011.562-1.606c.674-.381 1.437-.572 2.288-.572 1.305 0 2.28.389 2.926 1.166.66.763.99 1.958.99 3.586V63h-3.916v-6.49c0-.719-.125-1.217-.374-1.496-.25-.293-.61-.44-1.078-.44-.616 0-1.115.205-1.496.616-.382.396-.572.924-.572 1.584V63H15.03zm20.506 0v-8.14a26.637 26.637 0 00-.176-3.036h3.784l.22 1.936h-.242a3.65 3.65 0 011.43-1.584c.63-.396 1.371-.594 2.222-.594.821 0 1.518.198 2.09.594.587.381 1.012.99 1.276 1.826h-.374a4.16 4.16 0 011.584-1.782 4.464 4.464 0 012.354-.638c1.276 0 2.23.389 2.86 1.166.63.763.946 1.958.946 3.586V63h-3.938v-6.534c0-.69-.103-1.173-.308-1.452-.205-.293-.535-.44-.99-.44-.572 0-1.02.205-1.342.616-.308.41-.462.975-.462 1.694V63h-3.916v-6.534c0-.69-.11-1.173-.33-1.452-.205-.293-.528-.44-.968-.44-.572 0-1.02.205-1.342.616-.308.41-.462.975-.462 1.694V63h-3.916zm26.44.242c-2.024 0-3.6-.52-4.73-1.562-1.114-1.041-1.672-2.471-1.672-4.29 0-1.13.235-2.134.704-3.014a5.022 5.022 0 011.98-2.046c.85-.499 1.848-.748 2.992-.748 1.13 0 2.068.25 2.816.748.763.484 1.335 1.159 1.716 2.024.382.85.572 1.84.572 2.97v.836h-7.502v-1.848h4.62l-.374.308c0-.836-.161-1.452-.484-1.848-.308-.41-.748-.616-1.32-.616-.66 0-1.166.25-1.518.748-.337.484-.506 1.217-.506 2.2v.396c0 .983.242 1.701.726 2.156.484.455 1.18.682 2.09.682.587 0 1.137-.066 1.65-.198a5.176 5.176 0 001.496-.638l1.012 2.552a6.505 6.505 0 01-1.936.88 8.613 8.613 0 01-2.332.308zM68.44 63v-8.14a26.637 26.637 0 00-.176-3.036h3.784l.22 1.936h-.242a3.754 3.754 0 011.562-1.606c.675-.381 1.437-.572 2.288-.572 1.305 0 2.28.389 2.926 1.166.66.763.99 1.958.99 3.586V63h-3.916v-6.49c0-.719-.125-1.217-.374-1.496-.25-.293-.609-.44-1.078-.44-.616 0-1.115.205-1.496.616-.381.396-.572.924-.572 1.584V63h-3.916zm18.217.242c-1.041 0-1.987-.103-2.838-.308-.836-.22-1.547-.513-2.134-.88l.946-2.552a9.02 9.02 0 001.914.792c.719.205 1.43.308 2.134.308.557 0 .96-.08 1.21-.242.264-.176.396-.403.396-.682 0-.22-.08-.396-.242-.528-.161-.132-.403-.227-.726-.286l-2.376-.418c-.939-.176-1.672-.52-2.2-1.034-.513-.528-.77-1.21-.77-2.046 0-.763.205-1.423.616-1.98.41-.572.997-1.012 1.76-1.32.763-.323 1.665-.484 2.706-.484.85 0 1.657.095 2.42.286.777.19 1.452.491 2.024.902l-1.012 2.486a6.02 6.02 0 00-1.606-.748c-.601-.205-1.166-.308-1.694-.308-.63 0-1.078.095-1.342.286-.264.176-.396.396-.396.66a.72.72 0 00.22.528c.147.132.381.227.704.286l2.376.418c.968.161 1.709.499 2.222 1.012.528.499.792 1.18.792 2.046 0 .807-.22 1.496-.66 2.068-.425.557-1.02.99-1.782 1.298-.763.293-1.65.44-2.662.44zm11.459 0c-.968 0-1.819-.227-2.552-.682-.734-.47-1.313-1.144-1.738-2.024-.41-.88-.616-1.921-.616-3.124 0-1.217.205-2.259.616-3.124.425-.88 1.004-1.547 1.738-2.002.733-.47 1.584-.704 2.552-.704.865 0 1.642.205 2.332.616.704.41 1.166.946 1.386 1.606h-.22l.242-1.98h3.762a611.86 611.86 0 00-.132 1.518c-.029.513-.044 1.02-.044 1.518V63h-3.872l-.044-1.892h.264c-.22.645-.682 1.166-1.386 1.562a4.649 4.649 0 01-2.288.572zm1.254-2.904c.66 0 1.195-.227 1.606-.682.411-.47.616-1.217.616-2.244 0-1.027-.205-1.767-.616-2.222-.411-.47-.946-.704-1.606-.704-.66 0-1.195.235-1.606.704-.41.455-.616 1.195-.616 2.222s.198 1.775.594 2.244c.41.455.953.682 1.628.682zm8.02 7.612c-.352 0-.704-.022-1.056-.066a3.96 3.96 0 01-1.012-.264v-3.014c.22.073.433.125.638.154.191.03.396.044.616.044.425 0 .777-.125 1.056-.374.293-.235.44-.667.44-1.298V51.824h3.916v11.44c0 1.54-.367 2.706-1.1 3.498-.719.792-1.885 1.188-3.498 1.188zm.572-17.71v-3.52h4.114v3.52h-4.114zm12.586 13.002c-2.024 0-3.601-.52-4.73-1.562-1.115-1.041-1.672-2.471-1.672-4.29 0-1.13.235-2.134.704-3.014a5.017 5.017 0 011.98-2.046c.851-.499 1.848-.748 2.992-.748 1.129 0 2.068.25 2.816.748.763.484 1.335 1.159 1.716 2.024.381.85.572 1.84.572 2.97v.836h-7.502v-1.848h4.62l-.374.308c0-.836-.161-1.452-.484-1.848-.308-.41-.748-.616-1.32-.616-.66 0-1.166.25-1.518.748-.337.484-.506 1.217-.506 2.2v.396c0 .983.242 1.701.726 2.156.484.455 1.181.682 2.09.682.587 0 1.137-.066 1.65-.198a5.173 5.173 0 001.496-.638l1.012 2.552a6.506 6.506 0 01-1.936.88 8.613 8.613 0 01-2.332.308zm-114.893 23c-.953 0-1.804-.227-2.552-.682-.748-.47-1.335-1.144-1.76-2.024-.425-.88-.638-1.921-.638-3.124 0-1.217.205-2.259.616-3.124.425-.88 1.012-1.547 1.76-2.002.763-.47 1.62-.704 2.574-.704.85 0 1.62.198 2.31.594.69.381 1.151.895 1.386 1.54h-.33v-6.908h3.916V86h-3.85v-2.002h.286c-.205.675-.66 1.217-1.364 1.628-.69.41-1.474.616-2.354.616zm1.254-2.904c.645 0 1.173-.227 1.584-.682.425-.47.638-1.217.638-2.244 0-1.027-.213-1.767-.638-2.222-.41-.47-.939-.704-1.584-.704-.66 0-1.203.235-1.628.704-.41.455-.616 1.195-.616 2.222s.205 1.775.616 2.244c.425.455.968.682 1.628.682zm14.576 2.904c-2.024 0-3.6-.52-4.73-1.562-1.115-1.041-1.672-2.471-1.672-4.29 0-1.13.235-2.134.704-3.014a5.02 5.02 0 011.98-2.046c.85-.499 1.848-.748 2.992-.748 1.13 0 2.068.25 2.816.748.763.484 1.335 1.159 1.716 2.024.382.85.572 1.84.572 2.97v.836H18.36v-1.848h4.62l-.374.308c0-.836-.161-1.452-.484-1.848-.308-.41-.748-.616-1.32-.616-.66 0-1.166.25-1.518.748-.337.484-.506 1.217-.506 2.2v.396c0 .983.242 1.701.726 2.156.484.455 1.18.682 2.09.682.587 0 1.137-.066 1.65-.198a5.176 5.176 0 001.496-.638l1.012 2.552a6.506 6.506 0 01-1.936.88 8.613 8.613 0 01-2.332.308zm18.762 0c-1.584 0-2.78-.374-3.586-1.122-.792-.763-1.188-1.914-1.188-3.454v-3.96h-2.09v-2.882h2.09v-2.64l3.916-.924v3.564h2.728v2.882h-2.728v3.806c0 .645.147 1.078.44 1.298.294.205.646.308 1.056.308.25 0 .462-.015.638-.044.19-.044.389-.103.594-.176v3.014c-.322.132-.645.22-.968.264a6.373 6.373 0 01-.902.066zm9.398 0c-2.024 0-3.6-.52-4.73-1.562-1.114-1.041-1.672-2.471-1.672-4.29 0-1.13.235-2.134.704-3.014a5.02 5.02 0 011.98-2.046c.85-.499 1.848-.748 2.992-.748 1.13 0 2.068.25 2.816.748.763.484 1.335 1.159 1.716 2.024.381.85.572 1.84.572 2.97v.836H46.52v-1.848h4.62l-.374.308c0-.836-.161-1.452-.484-1.848-.308-.41-.748-.616-1.32-.616-.66 0-1.166.25-1.518.748-.337.484-.506 1.217-.506 2.2v.396c0 .983.242 1.701.726 2.156.484.455 1.18.682 2.09.682.587 0 1.137-.066 1.65-.198a5.176 5.176 0 001.496-.638l1.012 2.552a6.506 6.506 0 01-1.936.88 8.613 8.613 0 01-2.332.308zM54.105 86l5.412-6.6v1.694l-5.104-6.27h4.576l2.772 3.63h-1.408l2.794-3.63h4.554l-5.104 6.292v-1.76L68.031 86h-4.62l-3.058-3.938h1.408L58.681 86h-4.576zm20.381.242c-1.584 0-2.779-.374-3.586-1.122-.792-.763-1.188-1.914-1.188-3.454v-3.96h-2.09v-2.882h2.09v-2.64l3.916-.924v3.564h2.728v2.882h-2.728v3.806c0 .645.147 1.078.44 1.298.294.205.646.308 1.056.308.25 0 .462-.015.638-.044.191-.044.389-.103.594-.176v3.014c-.322.132-.645.22-.968.264a6.374 6.374 0 01-.902.066zm9.09 0c-1.246 0-2.324-.235-3.234-.704a5.059 5.059 0 01-2.112-2.002c-.498-.88-.748-1.921-.748-3.124 0-1.217.25-2.259.748-3.124a5.059 5.059 0 012.112-2.002c.91-.47 1.988-.704 3.234-.704 1.232 0 2.303.235 3.212.704A5.021 5.021 0 0188.9 77.31c.499.865.748 1.9.748 3.102 0 1.188-.25 2.222-.748 3.102a5.021 5.021 0 01-2.112 2.024c-.91.47-1.98.704-3.212.704zm0-2.904c.646 0 1.159-.227 1.54-.682.382-.47.572-1.217.572-2.244 0-1.027-.19-1.767-.572-2.222-.381-.47-.894-.704-1.54-.704-.66 0-1.18.235-1.562.704-.381.455-.572 1.195-.572 2.222s.19 1.775.572 2.244c.382.455.902.682 1.562.682zm20.378 2.904c-1.247 0-2.325-.235-3.234-.704a5.06 5.06 0 01-2.112-2.002c-.499-.88-.748-1.921-.748-3.124 0-1.217.25-2.259.748-3.124a5.06 5.06 0 012.112-2.002c.909-.47 1.987-.704 3.234-.704 1.232 0 2.302.235 3.212.704a5.025 5.025 0 012.112 2.024c.498.865.748 1.9.748 3.102 0 1.188-.25 2.222-.748 3.102a5.025 5.025 0 01-2.112 2.024c-.91.47-1.98.704-3.212.704zm0-2.904c.645 0 1.158-.227 1.54-.682.381-.47.572-1.217.572-2.244 0-1.027-.191-1.767-.572-2.222-.382-.47-.895-.704-1.54-.704-.66 0-1.181.235-1.562.704-.382.455-.572 1.195-.572 2.222s.19 1.775.572 2.244c.381.455.902.682 1.562.682zm-98.63 25.904c-1.423 0-2.479-.389-3.168-1.166-.675-.792-1.012-1.987-1.012-3.586v-6.666H5.06v6.688c0 .587.117 1.027.352 1.32.25.279.623.418 1.122.418.557 0 1.012-.198 1.364-.594.367-.411.55-.946.55-1.606v-6.226h3.916V109H8.558v-2.002h.33c-.352.719-.829 1.276-1.43 1.672-.601.381-1.313.572-2.134.572zM15.03 109v-8.14a26.629 26.629 0 00-.176-3.036h3.784l.22 1.936h-.242a3.754 3.754 0 011.562-1.606c.674-.381 1.437-.572 2.288-.572 1.305 0 2.28.389 2.926 1.166.66.763.99 1.958.99 3.586V109h-3.916v-6.49c0-.719-.125-1.217-.374-1.496-.25-.293-.61-.44-1.078-.44-.616 0-1.115.205-1.496.616-.382.396-.572.924-.572 1.584V109H15.03zm26.402.242c-2.024 0-3.6-.521-4.73-1.562-1.115-1.041-1.672-2.471-1.672-4.29 0-1.129.235-2.134.704-3.014a5.02 5.02 0 011.98-2.046c.85-.499 1.848-.748 2.992-.748 1.13 0 2.068.25 2.816.748.763.484 1.335 1.159 1.716 2.024.381.851.572 1.841.572 2.97v.836h-7.502v-1.848h4.62l-.374.308c0-.836-.161-1.452-.484-1.848-.308-.411-.748-.616-1.32-.616-.66 0-1.166.249-1.518.748-.337.484-.506 1.217-.506 2.2v.396c0 .983.242 1.701.726 2.156.484.455 1.18.682 2.09.682.587 0 1.137-.066 1.65-.198a5.184 5.184 0 001.496-.638l1.012 2.552a6.506 6.506 0 01-1.936.88 8.625 8.625 0 01-2.332.308zm6.463-.242v-8.14a26.629 26.629 0 00-.176-3.036h3.784l.22 1.936h-.242a3.65 3.65 0 011.43-1.584c.63-.396 1.371-.594 2.222-.594.821 0 1.518.198 2.09.594.586.381 1.012.99 1.276 1.826h-.374a4.16 4.16 0 011.584-1.782 4.464 4.464 0 012.354-.638c1.276 0 2.229.389 2.86 1.166.63.763.946 1.958.946 3.586V109H61.93v-6.534c0-.689-.103-1.173-.308-1.452-.206-.293-.536-.44-.99-.44-.572 0-1.02.205-1.342.616-.308.411-.462.975-.462 1.694V109h-3.916v-6.534c0-.689-.11-1.173-.33-1.452-.206-.293-.528-.44-.968-.44-.572 0-1.02.205-1.342.616-.308.411-.462.975-.462 1.694V109h-3.916zm24.944.242c-.968 0-1.819-.227-2.552-.682-.733-.469-1.313-1.144-1.738-2.024-.41-.88-.616-1.921-.616-3.124 0-1.217.205-2.259.616-3.124.425-.88 1.005-1.547 1.738-2.002.733-.47 1.584-.704 2.552-.704.865 0 1.643.205 2.332.616.704.41 1.166.946 1.386 1.606h-.22l.242-1.98h3.762a611.86 611.86 0 00-.132 1.518c-.03.513-.044 1.019-.044 1.518V109h-3.872l-.044-1.892h.264c-.22.645-.682 1.166-1.386 1.562a4.65 4.65 0 01-2.288.572zm1.254-2.904c.66 0 1.195-.227 1.606-.682.41-.469.616-1.217.616-2.244 0-1.027-.205-1.767-.616-2.222-.41-.469-.946-.704-1.606-.704-.66 0-1.195.235-1.606.704-.41.455-.616 1.195-.616 2.222s.198 1.775.594 2.244c.41.455.953.682 1.628.682zM82.817 109V97.824h3.916V109h-3.916zm-.088-12.76v-3.52h4.114v3.52H82.73zM89.375 109V92.808h3.916V109h-3.916zm6.294 0v-4.004h4.07V109h-4.07zm6.214 0v-4.004h4.07V109h-4.07zm6.214 0v-4.004h4.07V109h-4.07z" fill="#fff"/></svg>