<svg width="254" height="25" viewBox="0 0 254 25" fill="none" xmlns="http://www.w3.org/2000/svg"><path d="M.76 24V3.264H9.4c6.944 0 11.296 4.704 11.296 10.368C20.696 19.296 16.344 24 9.4 24H.76zm6.08-5.152h2.336c3.104 0 5.088-2.208 5.088-5.216 0-2.976-1.984-5.216-5.088-5.216H6.84v10.432zm26.076 5.472c-4.96 0-9.183-3.104-9.183-8.48 0-4.736 3.68-8.512 8.512-8.512 4.64 0 8.192 3.776 8.192 8.512 0 .992-.128 1.888-.128 1.888H29.46c.48 1.536 1.92 2.112 3.488 2.112 1.376 0 2.848-.416 3.872-.992l1.952 3.936c-1.825 1.12-3.84 1.536-5.857 1.536zm-3.615-9.888h5.823c-.192-1.504-1.376-2.528-2.88-2.528-1.44 0-2.591 1.024-2.944 2.528zm20.865 9.888c-3.136 0-5.184-2.016-5.184-5.6v-6.464h-2.4V7.648h2.4V4.704l5.824-1.44v4.384h3.616v4.608h-3.616v6.016c0 .768.384 1.024.896 1.024.48 0 1.056-.224 1.471-.512l1.569 4.256c-1.408.992-3.136 1.28-4.576 1.28zM62.919 5.76l3.36-5.728h5.6l-4.64 5.728h-4.32zm3.168 18.56c-4.96 0-9.184-3.104-9.184-8.48 0-4.736 3.68-8.512 8.512-8.512 4.64 0 8.191 3.776 8.191 8.512 0 .992-.127 1.888-.127 1.888H62.63c.48 1.536 1.92 2.112 3.488 2.112 1.377 0 2.849-.416 3.873-.992l1.951 3.936c-1.823 1.12-3.84 1.536-5.855 1.536zm-3.617-9.888h5.825c-.192-1.504-1.377-2.528-2.88-2.528-1.44 0-2.593 1.024-2.945 2.528zM76.808 24V7.648h5.503v1.888c1.504-1.76 3.296-2.208 4.928-2.208 4.129 0 5.728 2.432 5.728 7.232V24h-5.823v-8.704c0-1.856-.705-2.528-1.825-2.528-1.791 0-2.688 1.504-2.688 3.52V24h-5.823zm36.44.32c-4.96 0-9.184-3.104-9.184-8.48 0-4.736 3.68-8.512 8.512-8.512 4.64 0 8.192 3.776 8.192 8.512 0 .992-.128 1.888-.128 1.888h-10.848c.48 1.536 1.92 2.112 3.488 2.112 1.376 0 2.848-.416 3.872-.992l1.952 3.936c-1.824 1.12-3.84 1.536-5.856 1.536zm-3.616-9.888h5.824c-.192-1.504-1.376-2.528-2.88-2.528-1.44 0-2.592 1.024-2.944 2.528zM123.969 24V2.944h5.824V24h-5.824zm18.348 0V12.384h-2.464V7.776h2.464V6.752c0-3.584 2.048-5.6 5.184-5.6 1.44 0 3.169.224 4.577.928l-1.569 4.256a3.64 3.64 0 00-1.28-.256c-.607 0-1.088.32-1.088 1.344v.352h3.201v4.608h-3.201V24h-5.824zm11.313 0V7.648h5.664v2.912c.096-.704 1.504-3.232 5.344-3.232v6.336c-4.224 0-5.184 1.76-5.184 4.832V24h-5.824zm20.585.32c-4.544 0-7.008-3.776-7.008-8.48 0-4.736 2.464-8.512 7.008-8.512 1.312 0 3.488.448 4.448 2.144V7.648h5.504V24h-5.504v-1.824c-.896 1.664-3.136 2.144-4.448 2.144zm1.536-5.12c1.536 0 2.624-1.376 2.624-3.36 0-1.952-1.088-3.392-2.624-3.392s-2.624 1.44-2.624 3.392c0 1.984 1.088 3.36 2.624 3.36zm17.716 5.12c-4.928 0-5.952-3.072-5.952-7.232v-9.44h5.824v8.704c0 1.728.576 2.528 2.112 2.528 1.76 0 2.4-1.504 2.4-3.52V7.648h5.824V24h-5.504v-1.792c-.896 1.152-3.008 2.112-4.704 2.112zm20.418 0c-4.544 0-7.008-3.776-7.008-8.48 0-4.736 2.624-8.512 7.2-8.512 1.312 0 2.944.448 3.936 1.696v-6.08h5.824V24h-5.504v-1.824c-.864 1.664-3.136 2.144-4.448 2.144zm1.536-5.12c1.536 0 2.624-1.376 2.624-3.36 0-1.952-1.088-3.392-2.624-3.392s-2.624 1.44-2.624 3.392c0 1.984 1.088 3.36 2.624 3.36zm20.788 5.12c-4.96 0-9.184-3.104-9.184-8.48 0-4.736 3.68-8.512 8.512-8.512 4.64 0 8.192 3.776 8.192 8.512 0 .992-.128 1.888-.128 1.888h-10.848c.48 1.536 1.92 2.112 3.488 2.112 1.376 0 2.848-.416 3.872-.992l1.952 3.936c-1.824 1.12-3.84 1.536-5.856 1.536zm-3.616-9.888h5.824c-.192-1.504-1.376-2.528-2.88-2.528-1.44 0-2.592 1.024-2.944 2.528zm17.761 9.888c-1.824 0-3.168-1.376-3.168-3.136 0-1.76 1.344-3.136 3.168-3.136 1.856 0 3.232 1.376 3.232 3.136 0 1.76-1.376 3.136-3.232 3.136z" fill="#fff"/></svg>