<svg width="140" height="30" viewBox="0 0 140 30" fill="none" xmlns="http://www.w3.org/2000/svg"><path d="M11.305 29.38C5.339 29.38.817 24.896.817 19.31c0-5.624 4.522-10.108 10.488-10.108 5.966 0 10.488 4.484 10.488 10.108 0 5.586-4.522 10.07-10.488 10.07zm0-6.08c2.052 0 3.496-1.634 3.496-3.99 0-2.318-1.444-4.028-3.496-4.028s-3.496 1.71-3.496 4.028c0 2.356 1.444 3.99 3.496 3.99zm32.11 6.08c-5.89 0-10.907-3.686-10.907-10.07 0-5.624 4.37-10.108 10.108-10.108 5.51 0 9.728 4.484 9.728 10.108 0 1.178-.152 2.242-.152 2.242H39.31c.57 1.824 2.28 2.508 4.142 2.508 1.634 0 3.382-.494 4.598-1.178l2.318 4.674c-2.166 1.33-4.56 1.824-6.954 1.824zM39.12 17.638h6.916c-.228-1.786-1.634-3.002-3.42-3.002-1.71 0-3.078 1.216-3.496 3.002zM55.005 29V9.582h6.536v2.128c1.444-1.634 3.686-2.508 5.852-2.508 3.116 0 4.788 1.254 5.7 3.002 1.672-2.432 4.256-3.002 6.194-3.002 6.27 0 6.802 5.054 6.802 8.968V29h-6.916V18.968c0-2.318-.646-3.382-2.166-3.382-2.052 0-3.002 1.862-3.002 4.256V29H67.09V18.968c0-2.318-.646-3.382-2.166-3.382-2.052 0-3.002 1.862-3.002 4.256V29h-6.916zm41.86.38c-5.396 0-8.322-4.484-8.322-10.07 0-5.624 2.926-10.108 8.322-10.108 1.558 0 4.142.532 5.282 2.546V9.582h6.536V29h-6.536v-2.166c-1.064 1.976-3.724 2.546-5.282 2.546zm1.824-6.08c1.824 0 3.116-1.634 3.116-3.99 0-2.318-1.292-4.028-3.116-4.028s-3.116 1.71-3.116 4.028c0 2.356 1.292 3.99 3.116 3.99zm13.019 5.7V9.582h6.916V29h-6.916zm3.42-20.9c-2.128 0-3.914-1.786-3.914-3.914 0-2.166 1.786-3.952 3.914-3.952 2.204 0 3.99 1.786 3.99 3.952 0 2.128-1.786 3.914-3.99 3.914zm6.526 20.9V3.996h6.916V29h-6.916zm14.011.38c-2.166 0-3.762-1.634-3.762-3.724 0-2.09 1.596-3.724 3.762-3.724 2.204 0 3.838 1.634 3.838 3.724 0 2.09-1.634 3.724-3.838 3.724z" fill="#fff"/></svg>