<svg width="238" height="22" viewBox="0 0 238 22" fill="none" xmlns="http://www.w3.org/2000/svg"><path d="M11.977 12.195H2.77c.134.827.488 1.486 1.065 1.974.577.489 1.314.732 2.21.732 1.071 0 1.992-.382 2.762-1.144l2.414 1.155c-.601.871-1.322 1.514-2.162 1.932-.84.418-1.838.626-2.991.626-1.792 0-3.25-.576-4.377-1.728C.564 14.588 0 13.146 0 11.412c0-1.735.562-3.254 1.685-4.428 1.122-1.173 2.531-1.76 4.226-1.76 1.798 0 3.26.589 4.388 1.76 1.126 1.174 1.69 2.724 1.69 4.652l-.01.557-.002.002zM9.112 9.893a2.922 2.922 0 00-1.12-1.583c-.559-.408-1.203-.612-1.94-.612-.8 0-1.5.23-2.104.685-.379.286-.729.788-1.052 1.51h6.216zM20.912 7.152L19.14 8.96c-.72-.728-1.376-1.092-1.963-1.092-.321 0-.574.07-.756.208a.626.626 0 00-.099.951c.116.133.4.313.855.54l1.05.536c1.107.556 1.867 1.123 2.279 1.7.412.578.62 1.256.62 2.033 0 1.036-.373 1.899-1.119 2.59-.745.693-1.744 1.037-2.997 1.037-1.666 0-2.995-.663-3.99-1.99l1.764-1.96c.335.4.729.723 1.18.968.451.246.853.37 1.203.37.379 0 .682-.093.912-.277.231-.185.346-.4.346-.643 0-.45-.416-.888-1.248-1.317l-.966-.491c-1.847-.95-2.77-2.138-2.77-3.564 0-.92.348-1.707 1.044-2.36.696-.653 1.588-.979 2.671-.979.742 0 1.44.166 2.095.498.655.332 1.21.808 1.665 1.428l-.003.006zM23.912 14.12c.455 0 .844.162 1.165.487.322.325.482.718.482 1.182 0 .464-.16.861-.482 1.189-.321.327-.71.491-1.166.491-.455 0-.842-.164-1.165-.491a1.636 1.636 0 01-.482-1.189c0-.464.16-.859.482-1.182.321-.325.71-.487 1.166-.487zM30.175 1.427h2.863L36.62 12.41l3.612-10.983h2.863l2.593 15.746h-2.84L41.192 7.23l-3.283 9.943h-2.593l-3.25-9.943-1.696 9.943h-2.869l2.674-15.746zM59.047 12.197H49.84c.132.83.489 1.487 1.065 1.976.577.487 1.314.733 2.212.733 1.071 0 1.992-.382 2.762-1.147l2.416 1.157c-.601.87-1.322 1.517-2.164 1.934-.84.418-1.837.626-2.993.626-1.792 0-3.25-.575-4.379-1.728-1.127-1.153-1.69-2.596-1.69-4.328 0-1.733.56-3.253 1.684-4.425 1.124-1.172 2.533-1.76 4.226-1.76 1.799 0 3.26.588 4.388 1.76 1.126 1.176 1.69 2.724 1.69 4.65l-.01.556h-.004l.004-.004zM56.18 9.895a2.932 2.932 0 00-1.12-1.583c-.559-.408-1.203-.611-1.94-.611-.8 0-1.5.229-2.106.684-.379.286-.73.79-1.052 1.51h6.218zM69.541 1.029h2.868v16.14H69.54v-1.23c-.56.542-1.12.934-1.682 1.172-.56.237-1.172.359-1.831.359-1.475 0-2.75-.584-3.827-1.75-1.078-1.165-1.617-2.616-1.617-4.35 0-1.735.519-3.273 1.563-4.423 1.042-1.149 2.305-1.724 3.796-1.724a4.77 4.77 0 011.93.394c.602.263 1.155.662 1.666 1.189V1.029h.002zm-3.015 6.894c-.886 0-1.623.317-2.208.958-.585.638-.88 1.457-.88 2.457 0 1 .3 1.833.894 2.482.596.649 1.329.972 2.202.972.874 0 1.648-.317 2.24-.957.592-.639.887-1.475.887-2.512s-.297-1.833-.888-2.463c-.593-.626-1.34-.941-2.249-.941v.004h.002zM76.462.73c.5 0 .933.187 1.291.557.359.371.54.82.54 1.348 0 .527-.18.966-.536 1.333-.356.366-.78.553-1.275.553a1.76 1.76 0 01-1.303-.563 1.906 1.906 0 01-.54-1.365c0-.536.177-.953.532-1.317A1.738 1.738 0 0176.458.73h.004zm-1.434 4.795h2.867v11.644h-2.867V5.525zM91.595 7.883l-2.385 1.34c-.447-.48-.892-.809-1.329-.996-.438-.187-.951-.28-1.54-.28-1.071 0-1.94.324-2.602.977-.66.651-.993 1.487-.993 2.506 0 1.018.318 1.797.958 2.427.637.626 1.475.941 2.513.941 1.281 0 2.28-.447 2.995-1.34l2.257 1.577c-1.225 1.626-2.953 2.439-5.188 2.439-2.01 0-3.582-.607-4.719-1.821-1.137-1.214-1.707-2.634-1.707-4.261 0-1.128.278-2.165.828-3.114a5.95 5.95 0 012.315-2.24c.988-.54 2.099-.812 3.322-.812 1.135 0 2.153.231 3.055.691a5.8 5.8 0 012.214 1.966v.004l.006-.004zM101.555 5.524h2.867V17.17h-2.867v-1.23c-.56.541-1.12.934-1.683 1.171-.56.237-1.171.36-1.83.36-1.475 0-2.75-.585-3.828-1.75-1.077-1.166-1.616-2.617-1.616-4.351 0-1.735.519-3.272 1.563-4.423 1.042-1.149 2.305-1.724 3.796-1.724a4.77 4.77 0 011.93.395c.601.262 1.155.661 1.666 1.188V5.52v.004h.002zM98.54 7.922c-.886 0-1.623.318-2.208.958-.585.638-.88 1.457-.88 2.457 0 1 .299 1.833.894 2.482.596.65 1.329.973 2.202.973s1.648-.317 2.239-.958c.593-.638.888-1.474.888-2.512 0-1.037-.297-1.833-.888-2.463-.593-.626-1.34-.94-2.25-.94v.003h.003zM106.854 5.524h2.458v1.468c.263-.577.62-1.018 1.06-1.316.441-.299.923-.45 1.448-.45.371 0 .76.099 1.166.298l-.892 2.514c-.338-.17-.612-.256-.828-.256-.441 0-.813.28-1.118.836-.305.556-.457 1.648-.457 3.276l.01.569v4.71h-2.845V5.524h-.004.002zM125.254 12.197h-9.207c.132.83.488 1.487 1.065 1.976.577.487 1.314.733 2.212.733 1.071 0 1.992-.382 2.762-1.147l2.416 1.157c-.601.87-1.322 1.517-2.165 1.934-.84.418-1.837.626-2.992.626-1.792 0-3.251-.575-4.379-1.728-1.127-1.153-1.691-2.596-1.691-4.328 0-1.733.56-3.253 1.685-4.425 1.124-1.172 2.533-1.76 4.226-1.76 1.798 0 3.261.588 4.387 1.76 1.127 1.176 1.691 2.724 1.691 4.65l-.01.556h-.004l.004-.004zm-2.867-2.302a2.937 2.937 0 00-1.121-1.583c-.556-.406-1.203-.611-1.94-.611-.799 0-1.499.229-2.105.684-.379.286-.731.79-1.052 1.51h6.218zM128.208 14.122c.453 0 .844.164 1.165.487.322.324.482.72.482 1.182 0 .462-.16.861-.482 1.19a1.575 1.575 0 01-1.165.49c-.454 0-.845-.163-1.166-.49a1.63 1.63 0 01-.482-1.19c0-.466.16-.856.482-1.182a1.588 1.588 0 011.166-.487zM140.366 5.524h2.857V15.5c0 1.967-.387 3.416-1.166 4.345-1.042 1.255-2.613 1.885-4.714 1.885-1.121 0-2.06-.14-2.826-.426-.762-.286-1.409-.703-1.93-1.258-.525-.552-.913-1.226-1.166-2.016h3.16c.28.328.638.575 1.081.746.441.168.964.25 1.565.25.769 0 1.389-.122 1.858-.364.47-.243.799-.556.993-.94.191-.387.29-1.05.29-1.992-.504.515-1.034.885-1.584 1.11-.554.224-1.178.337-1.88.337-1.535 0-2.828-.562-3.885-1.692-1.054-1.128-1.584-2.554-1.584-4.282 0-1.846.561-3.333 1.679-4.454 1.013-1.012 2.227-1.519 3.631-1.519.659 0 1.279.122 1.864.37.585.248 1.172.651 1.757 1.214V5.524zm-2.97 2.432c-.904 0-1.648.309-2.237.924-.589.618-.881 1.395-.881 2.33 0 .934.303 1.765.904 2.385.601.62 1.357.93 2.268.93.91 0 1.623-.302 2.197-.91.577-.606.868-1.402.868-2.385 0-.983-.291-1.76-.874-2.367-.579-.606-1.328-.909-2.245-.909v.002zM151.307 5.227a5.99 5.99 0 013.041.825 5.893 5.893 0 012.22 2.239c.531.94.797 1.959.797 3.051a6.236 6.236 0 01-.803 3.083 5.83 5.83 0 01-2.19 2.24c-.922.54-1.944.809-3.054.809-1.638 0-3.036-.594-4.196-1.783-1.159-1.189-1.738-2.63-1.738-4.328 0-1.82.655-3.337 1.963-4.55 1.147-1.057 2.465-1.584 3.958-1.584l.004-.004-.002.002zm.048 2.753c-.892 0-1.631.315-2.225.947-.593.632-.887 1.439-.887 2.425 0 .987.292 1.834.879 2.464.585.63 1.327.94 2.225.94.898 0 1.643-.316 2.238-.953.596-.636.894-1.45.894-2.45 0-1-.292-1.813-.879-2.434-.585-.624-1.333-.94-2.245-.94zM157.653 5.525h2.92l2.886 6.873 2.88-6.873h2.904l-4.861 11.645h-1.858l-4.873-11.645h.004-.002zM169.7 19.991L176.673.88h2.061l-6.984 19.112h-2.05zM181.725 1.331h8.552v2.94h-5.617v2.875h3.65v2.896h-3.65v7.128h-2.935V1.33v.001zM191.785 5.456h2.471V6.93c.268-.582.624-1.023 1.067-1.325a2.53 2.53 0 011.458-.452c.373 0 .764.101 1.172.303l-.898 2.53c-.338-.172-.616-.258-.834-.258-.443 0-.818.28-1.125.84-.306.56-.459 1.659-.459 3.295l.01.57v4.739h-2.86V5.456h-.002zM207.858 5.456h2.884v11.716h-2.884v-1.24c-.562.547-1.126.94-1.693 1.179a4.642 4.642 0 01-1.841.36c-1.483 0-2.768-.585-3.85-1.759-1.083-1.174-1.625-2.633-1.625-4.376 0-1.743.523-3.291 1.572-4.448 1.048-1.155 2.321-1.735 3.818-1.735.69 0 1.337.133 1.941.4a5.299 5.299 0 011.676 1.194V5.456h.002zm-3.03 2.413c-.891 0-1.631.32-2.22.963-.589.643-.883 1.466-.883 2.472s.3 1.846.9 2.5c.599.652 1.338.98 2.216.98.877 0 1.656-.321 2.253-.964.597-.643.894-1.485.894-2.524 0-1.04-.299-1.844-.894-2.476-.597-.632-1.351-.947-2.263-.947l-.003-.004zM213.646 5.454h2.914v5.643c0 1.098.075 1.86.223 2.29.148.425.387.76.715.995.327.235.731.355 1.213.355.482 0 .887-.118 1.223-.351.336-.233.585-.576.746-1.03.119-.337.179-1.058.179-2.164v-5.74h2.884v4.965c0 2.045-.159 3.446-.476 4.2-.387.92-.958 1.623-1.712 2.117-.754.491-1.711.737-2.873.737-1.261 0-2.28-.288-3.057-.861-.778-.573-1.324-1.376-1.641-2.4-.225-.71-.338-2.004-.338-3.877V5.454zM235.116.932H238v16.237h-2.884v-1.24c-.562.547-1.126.94-1.693 1.179a4.642 4.642 0 01-1.841.361c-1.483 0-2.768-.586-3.85-1.76-1.083-1.174-1.625-2.633-1.625-4.376 0-1.743.523-3.29 1.572-4.448C228.727 5.73 230 5.15 231.498 5.15c.69 0 1.336.133 1.94.4a5.299 5.299 0 011.676 1.194V.93l.002.003zm-3.029 6.934c-.892 0-1.632.321-2.221.964-.589.642-.883 1.466-.883 2.471 0 1.006.3 1.846.9 2.5.599.652 1.339.98 2.216.98.877 0 1.656-.321 2.253-.964.598-.642.894-1.485.894-2.524 0-1.04-.298-1.844-.894-2.476-.597-.632-1.351-.947-2.263-.947l-.002-.004z" fill="#fff"/></svg>