<svg width="233" height="138" viewBox="0 0 233 138" fill="none" xmlns="http://www.w3.org/2000/svg"><path d="M71.468 15.14c0-.62.227-1.156.68-1.61a2.22 2.22 0 011.627-.68c.631 0 1.174.226 1.627.68.454.454.681.996.681 1.627a2.24 2.24 0 01-.68 1.644 2.212 2.212 0 01-1.628.664c-.653 0-1.2-.221-1.643-.664-.443-.443-.664-.996-.664-1.66zm7.432 0c0-.62.227-1.156.68-1.61a2.22 2.22 0 011.628-.68c.63 0 1.173.226 1.627.68.454.454.68.996.68 1.627a2.24 2.24 0 01-.68 1.644 2.212 2.212 0 01-1.627.664c-.653 0-1.201-.221-1.644-.664-.442-.443-.664-.996-.664-1.66zm7.432 0c0-.62.227-1.156.681-1.61a2.22 2.22 0 011.627-.68c.63 0 1.173.226 1.627.68.454.454.68.996.68 1.627a2.24 2.24 0 01-.68 1.644 2.213 2.213 0 01-1.627.664c-.653 0-1.2-.221-1.644-.664-.442-.443-.664-.996-.664-1.66zM96.92 25.8h-3.736V.83h3.736v1.76c1.472-1.472 3.143-2.208 5.013-2.208 2.225 0 4.057.819 5.496 2.457 1.461 1.627 2.191 3.68 2.191 6.159 0 2.424-.725 4.444-2.175 6.06-1.439 1.604-3.254 2.407-5.445 2.407-1.893 0-3.586-.758-5.08-2.275V25.8zM105.8 9.015c0-1.55-.421-2.812-1.262-3.786-.852-.985-1.926-1.477-3.221-1.477-1.372 0-2.484.476-3.337 1.428-.852.952-1.278 2.202-1.278 3.752 0 1.516.426 2.767 1.278 3.752.841.963 1.948 1.444 3.321 1.444 1.295 0 2.363-.487 3.204-1.461.863-.974 1.295-2.191 1.295-3.652zM125.49.83h3.752V17h-3.752v-1.693c-1.538 1.438-3.193 2.158-4.964 2.158-2.235 0-4.084-.808-5.545-2.424-1.45-1.65-2.175-3.708-2.175-6.176 0-2.424.725-4.443 2.175-6.06 1.45-1.615 3.265-2.423 5.446-2.423 1.881 0 3.569.775 5.063 2.324V.83zm-8.865 8.035c0 1.55.415 2.811 1.245 3.785.852.985 1.926 1.478 3.221 1.478 1.383 0 2.501-.476 3.353-1.428.852-.985 1.278-2.236 1.278-3.752 0-1.516-.426-2.767-1.278-3.752-.852-.963-1.959-1.444-3.32-1.444-1.284 0-2.358.487-3.221 1.46-.852.986-1.278 2.203-1.278 3.653zM133.957.83h3.735v1.444c.686-.719 1.295-1.212 1.826-1.477.543-.277 1.185-.415 1.926-.415.985 0 2.015.32 3.088.963l-1.71 3.42c-.708-.51-1.4-.764-2.075-.764-2.037 0-3.055 1.538-3.055 4.615V17h-3.735V.83zm24.404 0h3.752V17h-3.752v-1.693c-1.538 1.438-3.193 2.158-4.964 2.158-2.235 0-4.084-.808-5.545-2.424-1.449-1.65-2.174-3.708-2.174-6.176 0-2.424.725-4.443 2.174-6.06 1.45-1.615 3.265-2.423 5.446-2.423 1.881 0 3.569.775 5.063 2.324V.83zm-8.865 8.035c0 1.55.415 2.811 1.245 3.785.852.985 1.926 1.478 3.221 1.478 1.383 0 2.501-.476 3.353-1.428.852-.985 1.279-2.236 1.279-3.752 0-1.516-.427-2.767-1.279-3.752-.852-.963-1.959-1.444-3.32-1.444-1.284 0-2.357.487-3.221 1.46-.852.986-1.278 2.203-1.278 3.653zM12.89 40.83h3.752V57H12.89v-1.693c-1.539 1.438-3.193 2.158-4.964 2.158-2.236 0-4.084-.808-5.545-2.424C.93 53.391.206 51.333.206 48.865c0-2.424.725-4.444 2.175-6.06 1.45-1.615 3.265-2.423 5.445-2.423 1.882 0 3.57.775 5.064 2.324V40.83zm-8.866 8.035c0 1.55.415 2.811 1.246 3.785.852.985 1.925 1.478 3.22 1.478 1.384 0 2.502-.476 3.354-1.428.852-.985 1.278-2.236 1.278-3.752 0-1.516-.426-2.767-1.278-3.752-.852-.963-1.96-1.444-3.32-1.444-1.284 0-2.358.487-3.221 1.46-.852.986-1.279 2.203-1.279 3.653zm26.729-5.28l-3.088 1.645c-.487-.997-1.09-1.495-1.81-1.495-.343 0-.636.117-.88.349-.243.221-.365.51-.365.863 0 .62.72 1.234 2.159 1.843 1.98.852 3.314 1.638 4 2.358.687.719 1.03 1.687 1.03 2.905 0 1.56-.576 2.866-1.727 3.918-1.118.996-2.468 1.494-4.05 1.494-2.712 0-4.632-1.323-5.761-3.968l3.187-1.477c.443.774.78 1.267 1.013 1.477.454.42.996.63 1.627.63 1.262 0 1.892-.575 1.892-1.726 0-.664-.486-1.284-1.46-1.859-.377-.188-.753-.37-1.13-.548-.376-.177-.758-.36-1.145-.548-1.085-.531-1.848-1.062-2.29-1.593-.565-.676-.848-1.544-.848-2.607 0-1.406.482-2.568 1.445-3.486.985-.919 2.18-1.378 3.586-1.378 2.07 0 3.608 1.068 4.615 3.204zm19.142 6.21H38.306c.1 1.328.53 2.385 1.295 3.17.763.776 1.743 1.163 2.938 1.163.93 0 1.699-.221 2.308-.664.597-.443 1.278-1.262 2.042-2.457l3.154 1.76a12.856 12.856 0 01-1.544 2.141 8.548 8.548 0 01-1.743 1.461 7.13 7.13 0 01-2.009.83c-.72.177-1.5.266-2.34.266-2.413 0-4.35-.775-5.811-2.324-1.461-1.56-2.192-3.63-2.192-6.21 0-2.556.709-4.626 2.125-6.208 1.428-1.56 3.32-2.341 5.678-2.341 2.38 0 4.261.758 5.645 2.274 1.372 1.505 2.058 3.592 2.058 6.259l-.017.88zM46.06 46.74c-.52-1.992-1.777-2.988-3.769-2.988-.454 0-.88.072-1.278.216a3.527 3.527 0 00-1.096.597 3.73 3.73 0 00-.83.93 4.36 4.36 0 00-.531 1.245h7.504zm23.574 9.878c0 .764-.028 1.433-.083 2.009-.044.587-.11 1.101-.2 1.544-.265 1.217-.785 2.263-1.56 3.138-1.46 1.682-3.47 2.523-6.026 2.523-2.159 0-3.935-.581-5.33-1.743-1.438-1.195-2.268-2.85-2.49-4.964h3.752c.144.797.382 1.411.714 1.843.775 1.007 1.904 1.51 3.387 1.51 2.734 0 4.1-1.676 4.1-5.03V55.19c-1.483 1.517-3.193 2.275-5.13 2.275-2.202 0-4.006-.797-5.412-2.39-1.416-1.617-2.125-3.637-2.125-6.06 0-2.358.659-4.361 1.976-6.01 1.417-1.749 3.287-2.623 5.611-2.623 2.037 0 3.73.758 5.08 2.274V40.83h3.736v15.788zm-3.586-7.67c0-1.571-.42-2.828-1.262-3.768-.852-.963-1.942-1.445-3.27-1.445-1.417 0-2.535.526-3.354 1.578-.741.94-1.112 2.158-1.112 3.652 0 1.472.37 2.678 1.112 3.619.808 1.03 1.926 1.544 3.354 1.544 1.427 0 2.556-.52 3.386-1.56.764-.941 1.146-2.148 1.146-3.62zm12.036-8.118v9.28c0 2.679 1.057 4.018 3.17 4.018 2.115 0 3.172-1.34 3.172-4.018v-9.28h3.735v9.363c0 1.295-.16 2.413-.481 3.354-.31.841-.847 1.6-1.61 2.274-1.262 1.096-2.867 1.644-4.815 1.644-1.937 0-3.536-.548-4.798-1.644-.775-.675-1.323-1.433-1.643-2.274-.31-.753-.465-1.87-.465-3.354V40.83h3.735zm14.792 0h3.735v1.444c.686-.719 1.295-1.212 1.826-1.477.543-.277 1.185-.415 1.926-.415.985 0 2.015.32 3.088.963l-1.71 3.42c-.708-.51-1.4-.764-2.075-.764-2.036 0-3.055 1.538-3.055 4.615V57h-3.735V40.83zm24.404 0h3.752V57h-3.752v-1.693c-1.538 1.438-3.193 2.158-4.964 2.158-2.235 0-4.084-.808-5.545-2.424-1.449-1.65-2.174-3.708-2.174-6.176 0-2.424.725-4.444 2.174-6.06 1.45-1.615 3.265-2.423 5.446-2.423 1.881 0 3.569.775 5.063 2.324V40.83zm-8.865 8.035c0 1.55.415 2.811 1.245 3.785.852.985 1.926 1.478 3.221 1.478 1.383 0 2.501-.476 3.353-1.428.853-.985 1.279-2.236 1.279-3.752 0-1.516-.426-2.767-1.279-3.752-.852-.963-1.959-1.444-3.32-1.444-1.284 0-2.357.487-3.221 1.46-.852.986-1.278 2.203-1.278 3.653zm17.332-8.035h3.735v1.444c.687-.719 1.295-1.212 1.827-1.477.542-.277 1.184-.415 1.925-.415.985 0 2.015.32 3.088.963l-1.71 3.42c-.708-.51-1.4-.764-2.075-.764-2.036 0-3.055 1.538-3.055 4.615V57h-3.735V40.83zm17.797 3.486V57h-3.735V44.316h-1.594V40.83h1.594v-5.927h3.735v5.927h2.905v3.486h-2.905zm20.47 5.479h-11.588c.099 1.328.531 2.385 1.295 3.17.763.776 1.743 1.163 2.938 1.163.93 0 1.699-.221 2.308-.664.597-.443 1.278-1.262 2.042-2.457l3.154 1.76a12.88 12.88 0 01-1.544 2.141 8.533 8.533 0 01-1.743 1.461 7.127 7.127 0 01-2.009.83 9.772 9.772 0 01-2.341.266c-2.412 0-4.349-.775-5.81-2.324-1.461-1.56-2.192-3.63-2.192-6.21 0-2.556.709-4.626 2.125-6.208 1.428-1.56 3.321-2.341 5.678-2.341 2.38 0 4.261.758 5.645 2.274 1.372 1.505 2.058 3.592 2.058 6.259l-.016.88zm-3.835-3.055c-.52-1.992-1.777-2.988-3.769-2.988-.454 0-.88.072-1.278.216a3.522 3.522 0 00-1.096.597 3.722 3.722 0 00-.83.93c-.232.365-.409.78-.531 1.245h7.504zM190.526 65.8V55.19c-1.483 1.517-3.176 2.275-5.08 2.275-2.18 0-3.99-.803-5.428-2.407-1.45-1.616-2.175-3.636-2.175-6.06 0-2.457.725-4.51 2.175-6.16 1.461-1.637 3.292-2.456 5.495-2.456 1.87 0 3.541.736 5.013 2.208v-1.76h3.752V65.8h-3.752zm-8.865-16.967c0 1.56.421 2.828 1.262 3.802.841.996 1.909 1.494 3.204 1.494 1.372 0 2.485-.476 3.337-1.428.863-.963 1.295-2.213 1.295-3.752 0-1.516-.426-2.767-1.279-3.752-.852-.963-1.959-1.444-3.32-1.444-1.284 0-2.357.487-3.221 1.46-.852.986-1.278 2.192-1.278 3.62zm21.466-8.002v9.28c0 2.679 1.057 4.018 3.171 4.018s3.171-1.34 3.171-4.018v-9.28h3.735v9.363c0 1.295-.16 2.413-.481 3.354-.31.841-.847 1.6-1.611 2.274-1.261 1.096-2.866 1.644-4.814 1.644-1.937 0-3.536-.548-4.798-1.644-.775-.675-1.323-1.433-1.644-2.274-.309-.753-.464-1.87-.464-3.354V40.83h3.735zm29.518 8.965h-11.588c.099 1.328.531 2.385 1.295 3.17.763.776 1.743 1.163 2.938 1.163.93 0 1.699-.221 2.308-.664.597-.443 1.278-1.262 2.042-2.457l3.154 1.76a12.88 12.88 0 01-1.544 2.141 8.533 8.533 0 01-1.743 1.461 7.14 7.14 0 01-2.009.83c-.719.177-1.5.266-2.341.266-2.413 0-4.349-.775-5.81-2.324-1.461-1.56-2.192-3.63-2.192-6.21 0-2.556.709-4.626 2.125-6.208 1.428-1.56 3.321-2.341 5.678-2.341 2.38 0 4.261.758 5.645 2.274 1.372 1.505 2.058 3.592 2.058 6.259l-.016.88zm-3.835-3.055c-.521-1.992-1.777-2.988-3.769-2.988-.454 0-.88.072-1.278.216a3.522 3.522 0 00-1.096.597 3.722 3.722 0 00-.83.93c-.233.365-.41.78-.531 1.245h7.504zM80.73 85.415c-.21-.887-.641-1.598-1.294-2.135-.654-.537-1.447-.805-2.38-.805-.98 0-1.785.257-2.415.77-.607.513-.992 1.237-1.156 2.17h7.246zm-7.42 3.675c0 2.73 1.284 4.095 3.85 4.095 1.377 0 2.416-.56 3.115-1.68H86.4c-1.236 4.107-4.328 6.16-9.275 6.16-1.516 0-2.904-.222-4.165-.665-1.26-.467-2.344-1.12-3.254-1.96a8.772 8.772 0 01-2.066-3.01c-.49-1.167-.734-2.473-.734-3.92 0-1.493.233-2.835.7-4.025.466-1.213 1.131-2.24 1.995-3.08.863-.84 1.901-1.482 3.115-1.925 1.236-.467 2.625-.7 4.165-.7 1.516 0 2.881.233 4.094.7 1.214.443 2.24 1.097 3.08 1.96.84.863 1.482 1.925 1.925 3.185.444 1.237.665 2.637.665 4.2v.665H73.311zm28.857-5.425c-1.167-.607-2.31-.91-3.43-.91-.584 0-1.062.117-1.435.35-.35.233-.525.548-.525.945 0 .21.023.385.07.525.07.117.198.233.385.35.21.117.501.222.875.315.396.093.91.21 1.54.35 1.75.35 3.056.98 3.92 1.89.863.887 1.295 2.03 1.295 3.43 0 1.05-.21 1.995-.63 2.835a6.201 6.201 0 01-1.75 2.135c-.747.56-1.645.992-2.695 1.295-1.05.327-2.205.49-3.465.49-2.427 0-4.819-.688-7.175-2.065l2.31-4.48c1.773 1.213 3.453 1.82 5.04 1.82.583 0 1.061-.128 1.435-.385.373-.257.56-.583.56-.98 0-.233-.035-.42-.105-.56-.047-.163-.164-.303-.35-.42-.187-.14-.467-.257-.84-.35a12.11 12.11 0 00-1.4-.35c-1.96-.397-3.337-.98-4.13-1.75-.77-.793-1.155-1.878-1.155-3.255 0-1.003.186-1.902.56-2.695a5.579 5.579 0 011.61-2.065c.7-.56 1.54-.992 2.52-1.295 1.003-.303 2.111-.455 3.325-.455 1.983 0 3.908.385 5.775 1.155l-2.135 4.13zm13.456.665V97h-6.335V84.33h-2.1v-5.285h2.1v-5.39h6.335v5.39h3.605v5.285h-3.605zm12.208 3.64c0 .583.105 1.132.315 1.645.21.49.49.922.84 1.295.374.373.805.665 1.295.875.514.21 1.062.315 1.645.315.56 0 1.085-.105 1.575-.315.514-.21.945-.502 1.295-.875.374-.373.665-.805.875-1.295.234-.49.35-1.015.35-1.575s-.116-1.085-.35-1.575a3.988 3.988 0 00-.875-1.33 3.626 3.626 0 00-1.295-.875 3.956 3.956 0 00-1.575-.315c-.583 0-1.131.105-1.645.315-.49.21-.921.502-1.295.875-.35.373-.63.805-.84 1.295a3.71 3.71 0 00-.315 1.54zm7.98-8.925h6.37V97h-6.37v-1.995c-1.353 1.703-3.185 2.555-5.495 2.555-1.306 0-2.508-.233-3.605-.7a8.93 8.93 0 01-2.87-2.03 9.547 9.547 0 01-1.925-3.045c-.443-1.167-.665-2.438-.665-3.815 0-1.283.222-2.497.665-3.64a9.378 9.378 0 011.855-3.045 8.544 8.544 0 012.835-2.03c1.097-.513 2.31-.77 3.64-.77 2.24 0 4.095.782 5.565 2.345v-1.785zm2.345-8.015l-6.09 5.39-2.94-2.17 5.005-6.125 4.025 2.905zm8.336 8.015h6.335v2.275c.864-1.05 1.739-1.75 2.625-2.1.887-.373 1.925-.56 3.115-.56 1.26 0 2.334.21 3.22.63.91.397 1.68.968 2.31 1.715a4.962 4.962 0 011.05 2.03c.187.747.28 1.598.28 2.555V97h-6.335v-9.065c0-.887-.07-1.598-.21-2.135-.116-.56-.338-1.003-.665-1.33a2.4 2.4 0 00-.945-.595 3.517 3.517 0 00-1.12-.175c-1.073 0-1.901.327-2.485.98-.56.63-.84 1.54-.84 2.73V97h-6.335V79.045zm-103.717 45.81c-1.097-.747-2.205-1.12-3.325-1.12-.607 0-1.178.105-1.715.315-.513.21-.968.513-1.365.91a4.076 4.076 0 00-.945 1.365c-.21.513-.315 1.097-.315 1.75 0 .63.105 1.213.315 1.75.233.513.537.968.91 1.365.397.373.863.665 1.4.875.537.21 1.108.315 1.715.315 1.19 0 2.298-.408 3.325-1.225v5.39c-1.563.677-3.045 1.015-4.445 1.015-1.307 0-2.555-.222-3.745-.665a9.855 9.855 0 01-3.115-1.89 9.78 9.78 0 01-2.135-2.975c-.537-1.167-.805-2.462-.805-3.885 0-1.423.257-2.718.77-3.885.513-1.19 1.213-2.205 2.1-3.045a9.191 9.191 0 013.15-1.995 10.638 10.638 0 013.955-.735c1.54 0 2.963.327 4.27.98v5.39zm9.598 3.08c0 .607.105 1.167.315 1.68.234.49.525.922.875 1.295a4.1 4.1 0 001.295.875c.514.21 1.05.315 1.61.315s1.085-.105 1.575-.315c.514-.21.945-.502 1.295-.875.374-.373.665-.805.875-1.295a3.93 3.93 0 00.35-1.645c0-.56-.116-1.085-.35-1.575a3.999 3.999 0 00-.875-1.33 3.636 3.636 0 00-1.295-.875 3.956 3.956 0 00-1.575-.315c-.56 0-1.096.105-1.61.315a4.1 4.1 0 00-1.295.875 5.05 5.05 0 00-.875 1.295 3.956 3.956 0 00-.315 1.575zm-6.685-.07c0-1.33.269-2.567.805-3.71a8.916 8.916 0 012.24-3.01c.957-.863 2.089-1.54 3.395-2.03 1.33-.49 2.777-.735 4.34-.735 1.54 0 2.964.245 4.27.735 1.33.467 2.474 1.132 3.43 1.995a8.635 8.635 0 012.275 3.045c.537 1.167.805 2.462.805 3.885 0 1.423-.28 2.73-.84 3.92a9.286 9.286 0 01-2.24 3.045c-.956.84-2.111 1.493-3.465 1.96-1.33.467-2.776.7-4.34.7-1.54 0-2.963-.233-4.27-.7-1.306-.467-2.438-1.132-3.395-1.995a9.42 9.42 0 01-2.205-3.08c-.536-1.213-.805-2.555-.805-4.025zm25.207-8.82h6.335v2.94c.677-1.073 1.505-1.89 2.485-2.45.98-.583 2.123-.875 3.43-.875h.525c.21 0 .443.023.7.07v6.055c-.84-.42-1.75-.63-2.73-.63-1.47 0-2.578.443-3.325 1.33-.723.863-1.085 2.135-1.085 3.815v7.7h-6.335v-17.955zm16.304 0h6.335v2.94c.676-1.073 1.505-1.89 2.485-2.45.98-.583 2.123-.875 3.43-.875h.525c.21 0 .443.023.7.07v6.055a6.02 6.02 0 00-2.73-.63c-1.47 0-2.579.443-3.325 1.33-.724.863-1.085 2.135-1.085 3.815v7.7h-6.335v-17.955zm29.634 6.37c-.21-.887-.642-1.598-1.295-2.135-.654-.537-1.447-.805-2.38-.805-.98 0-1.785.257-2.415.77-.607.513-.992 1.237-1.155 2.17h7.245zm-7.42 3.675c0 2.73 1.283 4.095 3.85 4.095 1.376 0 2.415-.56 3.115-1.68h6.125c-1.237 4.107-4.329 6.16-9.275 6.16-1.517 0-2.905-.222-4.165-.665-1.26-.467-2.345-1.12-3.255-1.96a8.764 8.764 0 01-2.065-3.01c-.49-1.167-.735-2.473-.735-3.92 0-1.493.233-2.835.7-4.025.466-1.213 1.131-2.24 1.995-3.08.863-.84 1.901-1.482 3.115-1.925 1.236-.467 2.625-.7 4.165-.7 1.516 0 2.881.233 4.095.7 1.213.443 2.24 1.097 3.08 1.96.84.863 1.481 1.925 1.925 3.185.443 1.237.665 2.637.665 4.2v.665h-13.335zm30.501-4.235c-1.097-.747-2.205-1.12-3.325-1.12a4.66 4.66 0 00-1.715.315 4.1 4.1 0 00-1.365.91 4.068 4.068 0 00-.945 1.365c-.21.513-.315 1.097-.315 1.75 0 .63.105 1.213.315 1.75.233.513.536.968.91 1.365.396.373.863.665 1.4.875a4.66 4.66 0 001.715.315c1.19 0 2.298-.408 3.325-1.225v5.39c-1.564.677-3.045 1.015-4.445 1.015-1.307 0-2.555-.222-3.745-.665a9.852 9.852 0 01-3.115-1.89 9.764 9.764 0 01-2.135-2.975c-.537-1.167-.805-2.462-.805-3.885 0-1.423.256-2.718.77-3.885.513-1.19 1.213-2.205 2.1-3.045a9.18 9.18 0 013.15-1.995 10.635 10.635 0 013.955-.735c1.54 0 2.963.327 4.27.98v5.39zm10.683-.525V137h-6.335v-12.67h-2.1v-5.285h2.1v-5.39h6.335v5.39h3.605v5.285h-3.605zm12.208 3.64c0 .583.105 1.132.315 1.645.21.49.49.922.84 1.295.374.373.805.665 1.295.875.514.21 1.062.315 1.645.315.56 0 1.085-.105 1.575-.315a3.63 3.63 0 001.295-.875 4.08 4.08 0 00.875-1.295c.234-.49.35-1.015.35-1.575s-.116-1.085-.35-1.575a3.988 3.988 0 00-.875-1.33 3.63 3.63 0 00-1.295-.875 3.956 3.956 0 00-1.575-.315c-.583 0-1.131.105-1.645.315-.49.21-.921.502-1.295.875-.35.373-.63.805-.84 1.295a3.71 3.71 0 00-.315 1.54zm7.98-8.925h6.37V137h-6.37v-1.995c-1.353 1.703-3.185 2.555-5.495 2.555-1.306 0-2.508-.233-3.605-.7a8.934 8.934 0 01-2.87-2.03 9.54 9.54 0 01-1.925-3.045c-.443-1.167-.665-2.438-.665-3.815 0-1.283.222-2.497.665-3.64a9.372 9.372 0 011.855-3.045 8.549 8.549 0 012.835-2.03c1.097-.513 2.31-.77 3.64-.77 2.24 0 4.095.782 5.565 2.345v-1.785zm22.581 4.62c-1.166-.607-2.31-.91-3.43-.91-.583 0-1.061.117-1.435.35-.35.233-.525.548-.525.945 0 .21.024.385.07.525.07.117.199.233.385.35.21.117.502.222.875.315.397.093.91.21 1.54.35 1.75.35 3.057.98 3.92 1.89.864.887 1.295 2.03 1.295 3.43 0 1.05-.21 1.995-.63 2.835a6.187 6.187 0 01-1.75 2.135c-.746.56-1.645.992-2.695 1.295-1.05.327-2.205.49-3.465.49-2.426 0-4.818-.688-7.175-2.065l2.31-4.48c1.774 1.213 3.454 1.82 5.04 1.82.584 0 1.062-.128 1.435-.385.374-.257.56-.583.56-.98 0-.233-.035-.42-.105-.56-.046-.163-.163-.303-.35-.42-.186-.14-.466-.257-.84-.35-.35-.117-.816-.233-1.4-.35-1.96-.397-3.336-.98-4.13-1.75-.77-.793-1.155-1.878-1.155-3.255 0-1.003.187-1.902.56-2.695a5.583 5.583 0 011.61-2.065c.7-.56 1.54-.992 2.52-1.295 1.004-.303 2.112-.455 3.325-.455 1.984 0 3.909.385 5.775 1.155l-2.135 4.13zm5.116 10.839c0-.416.078-.806.234-1.17a2.975 2.975 0 011.612-1.638c.381-.156.78-.234 1.196-.234.416 0 .806.078 1.17.234.381.156.711.373.988.65s.494.607.65.988c.156.364.234.754.234 1.17 0 .416-.078.815-.234 1.196a2.975 2.975 0 01-1.638 1.612 2.938 2.938 0 01-1.17.234c-.416 0-.815-.078-1.196-.234a3.044 3.044 0 01-1.612-1.612 3.128 3.128 0 01-.234-1.196z" fill="#fff"/></svg>