<svg width="256" height="112" viewBox="0 0 256 112" fill="none" xmlns="http://www.w3.org/2000/svg"><path d="M16.414 18.256l-2.816-8.032-2.816 8.032h5.632zm1.664 4.768h-8.96l-1.44 4.192H.99l9.184-24.128h6.848l9.184 24.128h-6.688l-1.44-4.192zm23.76-3.968c0-.512-.096-.992-.288-1.44a3.28 3.28 0 00-.768-1.216 3.655 3.655 0 00-1.216-.8 3.38 3.38 0 00-1.472-.32c-.512 0-.992.096-1.44.288a3.746 3.746 0 00-1.184.8c-.32.342-.587.747-.8 1.216a3.617 3.617 0 00-.288 1.44c0 .512.096.992.288 1.44.192.448.458.843.8 1.184.341.32.736.587 1.184.8.469.192.96.288 1.472.288s.992-.096 1.44-.288a3.388 3.388 0 001.152-.8c.341-.341.608-.736.8-1.184.213-.448.32-.917.32-1.408zm-7.296 16.352H28.75V10.8h5.792v1.824c1.237-1.557 2.922-2.336 5.056-2.336 1.173 0 2.261.235 3.264.704a8.06 8.06 0 012.656 1.856 8.282 8.282 0 011.728 2.784 9.133 9.133 0 01.64 3.424c0 1.216-.214 2.347-.64 3.392a8.356 8.356 0 01-1.728 2.752 7.799 7.799 0 01-2.592 1.856c-1.003.448-2.091.672-3.264.672-2.048 0-3.755-.704-5.12-2.112v9.792zM51.187 10.8h5.792v2.688c.619-.981 1.376-1.728 2.272-2.24.896-.533 1.942-.8 3.136-.8h.48c.192 0 .406.022.64.064v5.536a5.503 5.503 0 00-2.496-.576c-1.344 0-2.357.406-3.04 1.216-.661.79-.992 1.952-.992 3.488v7.04h-5.792V10.8zm27.094 5.824c-.192-.81-.587-1.461-1.184-1.952-.597-.49-1.323-.736-2.176-.736-.896 0-1.632.235-2.208.704-.555.47-.907 1.131-1.056 1.984h6.624zm-6.784 3.36c0 2.496 1.173 3.744 3.52 3.744 1.258 0 2.208-.512 2.848-1.536h5.6c-1.13 3.755-3.958 5.632-8.48 5.632-1.387 0-2.656-.202-3.808-.608-1.152-.426-2.144-1.024-2.976-1.792a8.02 8.02 0 01-1.888-2.752c-.448-1.066-.672-2.261-.672-3.584 0-1.365.213-2.592.64-3.68.426-1.109 1.034-2.048 1.824-2.816.79-.768 1.739-1.354 2.848-1.76 1.13-.426 2.4-.64 3.808-.64 1.386 0 2.635.214 3.744.64 1.11.406 2.048 1.003 2.816 1.792.768.79 1.355 1.76 1.76 2.912.405 1.131.608 2.411.608 3.84v.608H71.497zM87 10.8h5.792v2.08c.789-.96 1.589-1.6 2.4-1.92.81-.341 1.76-.512 2.848-.512 1.152 0 2.133.192 2.944.576a5.708 5.708 0 012.112 1.568 4.56 4.56 0 01.96 1.856c.17.683.256 1.462.256 2.336v10.432H98.52v-8.288c0-.81-.064-1.461-.192-1.952-.107-.512-.31-.917-.608-1.216a2.195 2.195 0 00-.864-.544 3.216 3.216 0 00-1.024-.16c-.982 0-1.739.299-2.272.896-.512.576-.768 1.408-.768 2.496v8.768H87V10.8zm26.626 8.16c0 .534.096 1.035.288 1.504.192.448.448.843.768 1.184.341.342.736.608 1.184.8.469.192.97.288 1.504.288.512 0 .992-.096 1.44-.288a3.323 3.323 0 001.184-.8 3.75 3.75 0 00.8-1.184c.213-.448.32-.928.32-1.44 0-.512-.107-.992-.32-1.44a3.66 3.66 0 00-.8-1.216 3.323 3.323 0 00-1.184-.8 3.617 3.617 0 00-1.44-.288 3.85 3.85 0 00-1.472.288 3.741 3.741 0 00-1.184.8c-.32.342-.587.736-.8 1.184a3.392 3.392 0 00-.288 1.408zM120.922.656h5.824v26.56h-5.824v-1.824c-1.238 1.558-2.912 2.336-5.024 2.336-1.195 0-2.294-.224-3.296-.672a8.143 8.143 0 01-2.624-1.856 8.696 8.696 0 01-1.76-2.784c-.406-1.066-.608-2.218-.608-3.456 0-1.173.192-2.282.576-3.328a8.542 8.542 0 011.696-2.784 7.793 7.793 0 012.592-1.856c1.024-.469 2.144-.704 3.36-.704 2.048 0 3.744.715 5.088 2.144V.656zm21.765 15.968c-.192-.81-.587-1.461-1.184-1.952-.597-.49-1.323-.736-2.176-.736-.896 0-1.632.235-2.208.704-.555.47-.907 1.131-1.056 1.984h6.624zm-6.784 3.36c0 2.496 1.173 3.744 3.52 3.744 1.259 0 2.208-.512 2.848-1.536h5.6c-1.131 3.755-3.957 5.632-8.48 5.632-1.387 0-2.656-.202-3.808-.608-1.152-.426-2.144-1.024-2.976-1.792a8.015 8.015 0 01-1.888-2.752c-.448-1.066-.672-2.261-.672-3.584 0-1.365.213-2.592.64-3.68.427-1.109 1.035-2.048 1.824-2.816.789-.768 1.739-1.354 2.848-1.76 1.131-.426 2.4-.64 3.808-.64 1.387 0 2.635.214 3.744.64 1.109.406 2.048 1.003 2.816 1.792.768.79 1.355 1.76 1.76 2.912.405 1.131.608 2.411.608 3.84v.608h-12.192zm37.258-4.96c-1.067-.554-2.112-.832-3.136-.832-.533 0-.971.107-1.312.32-.32.214-.48.502-.48.864 0 .192.021.352.064.48.064.107.181.214.352.32.192.107.459.203.8.288.363.086.832.192 1.408.32 1.6.32 2.795.896 3.584 1.728.789.811 1.184 1.856 1.184 3.136 0 .96-.192 1.824-.576 2.592a5.659 5.659 0 01-1.6 1.952c-.683.512-1.504.907-2.464 1.184-.96.299-2.016.448-3.168.448-2.219 0-4.405-.629-6.56-1.888l2.112-4.096c1.621 1.11 3.157 1.664 4.608 1.664.533 0 .971-.117 1.312-.352.341-.234.512-.533.512-.896 0-.213-.032-.384-.096-.512-.043-.149-.149-.277-.32-.384-.171-.128-.427-.234-.768-.32-.32-.106-.747-.213-1.28-.32-1.792-.362-3.051-.896-3.776-1.6-.704-.725-1.056-1.717-1.056-2.976 0-.917.171-1.738.512-2.464a5.097 5.097 0 011.472-1.888c.64-.512 1.408-.906 2.304-1.184.917-.277 1.931-.416 3.04-.416 1.813 0 3.573.352 5.28 1.056l-1.952 3.776zm10.873 3.904c0 .555.096 1.067.288 1.536.213.448.48.843.8 1.184.341.342.736.608 1.184.8.469.192.96.288 1.472.288s.992-.096 1.44-.288a3.323 3.323 0 001.184-.8 3.75 3.75 0 00.8-1.184c.213-.469.32-.97.32-1.504 0-.512-.107-.992-.32-1.44a3.66 3.66 0 00-.8-1.216 3.323 3.323 0 00-1.184-.8 3.617 3.617 0 00-1.44-.288 3.85 3.85 0 00-1.472.288 3.741 3.741 0 00-1.184.8c-.32.342-.587.736-.8 1.184a3.617 3.617 0 00-.288 1.44zm-6.112-.064c0-1.216.245-2.346.736-3.392a8.156 8.156 0 012.048-2.752c.875-.789 1.909-1.408 3.104-1.856 1.216-.448 2.539-.672 3.968-.672 1.408 0 2.709.224 3.904.672 1.216.427 2.261 1.035 3.136 1.824a7.899 7.899 0 012.08 2.784c.491 1.067.736 2.251.736 3.552 0 1.302-.256 2.496-.768 3.584a8.494 8.494 0 01-2.048 2.784c-.875.768-1.931 1.366-3.168 1.792-1.216.427-2.539.64-3.968.64-1.408 0-2.709-.213-3.904-.64-1.195-.426-2.229-1.034-3.104-1.824a8.626 8.626 0 01-2.016-2.816c-.491-1.109-.736-2.336-.736-3.68zm36.134.192c0-.512-.096-.992-.288-1.44a3.645 3.645 0 00-.8-1.216 3.741 3.741 0 00-1.184-.8 3.378 3.378 0 00-1.472-.32c-.512 0-.992.096-1.44.288a3.752 3.752 0 00-1.184.8c-.32.342-.586.747-.8 1.216a3.617 3.617 0 00-.288 1.44c0 .512.096.992.288 1.44.192.448.459.843.8 1.184.342.32.736.587 1.184.8.47.192.96.288 1.472.288s.992-.096 1.44-.288a3.388 3.388 0 001.152-.8c.342-.341.608-.736.8-1.184.214-.448.32-.917.32-1.408zM206.76.656v11.776c1.366-1.429 3.072-2.144 5.12-2.144 1.216 0 2.326.235 3.328.704a7.39 7.39 0 012.592 1.856c.726.768 1.291 1.686 1.696 2.752a9.198 9.198 0 01.608 3.36 9.127 9.127 0 01-.64 3.424 8.273 8.273 0 01-1.728 2.784 8.468 8.468 0 01-2.656 1.888c-1.002.448-2.09.672-3.264.672-2.133 0-3.818-.778-5.056-2.336v1.824h-5.792V.656h5.792zM223.406 10.8h5.792v2.688c.619-.981 1.376-1.728 2.272-2.24.896-.533 1.941-.8 3.136-.8h.48c.192 0 .405.022.64.064v5.536a5.503 5.503 0 00-2.496-.576c-1.344 0-2.357.406-3.04 1.216-.661.79-.992 1.952-.992 3.488v7.04h-5.792V10.8zm27.094 5.824c-.192-.81-.587-1.461-1.184-1.952-.598-.49-1.323-.736-2.176-.736-.896 0-1.632.235-2.208.704-.555.47-.907 1.131-1.056 1.984h6.624zm-6.784 3.36c0 2.496 1.173 3.744 3.52 3.744 1.258 0 2.208-.512 2.848-1.536h5.6c-1.131 3.755-3.958 5.632-8.48 5.632-1.387 0-2.656-.202-3.808-.608-1.152-.426-2.144-1.024-2.976-1.792a8.015 8.015 0 01-1.888-2.752c-.448-1.066-.672-2.261-.672-3.584 0-1.365.213-2.592.64-3.68.426-1.109 1.034-2.048 1.824-2.816.789-.768 1.738-1.354 2.848-1.76 1.13-.426 2.4-.64 3.808-.64 1.386 0 2.634.214 3.744.64 1.109.406 2.048 1.003 2.816 1.792.768.79 1.354 1.76 1.76 2.912.405 1.131.608 2.411.608 3.84v.608h-12.192zm-178.7 38.64c-.193-.81-.587-1.461-1.185-1.952-.597-.49-1.322-.736-2.176-.736-.896 0-1.632.235-2.208.704-.554.47-.906 1.131-1.056 1.984h6.624zm-6.785 3.36c0 2.496 1.174 3.744 3.52 3.744 1.259 0 2.208-.512 2.848-1.536h5.6c-1.13 3.755-3.957 5.632-8.48 5.632-1.386 0-2.656-.202-3.808-.608-1.152-.426-2.144-1.024-2.976-1.792a8.02 8.02 0 01-1.888-2.752c-.448-1.066-.672-2.261-.672-3.584 0-1.365.214-2.592.64-3.68.427-1.109 1.035-2.048 1.824-2.816.79-.768 1.739-1.354 2.848-1.76 1.13-.426 2.4-.64 3.808-.64 1.387 0 2.635.214 3.744.64 1.11.406 2.048 1.003 2.816 1.792.768.79 1.355 1.76 1.76 2.912.406 1.131.608 2.411.608 3.84v.608H58.231zm21.295-19.328v26.56h-5.792v-26.56h5.792zm21.105 14.976v11.584h-5.792V57.632h-2.08V52.8h2.08v-2.464c0-1.365.128-2.453.384-3.264a5.625 5.625 0 011.024-1.888 7.43 7.43 0 011.632-1.536 8.26 8.26 0 012.048-.992 6.936 6.936 0 012.144-.352c.491 0 .939.054 1.344.16.427.107.853.256 1.28.448v5.056a5.367 5.367 0 00-1.088-.416 3.215 3.215 0 00-1.024-.16c-.235 0-.48.043-.736.128-.235.064-.459.214-.672.448-.213.235-.363.576-.448 1.024-.064.427-.096 1.014-.096 1.76V52.8h4.064v4.832h-4.064zm6.228-4.832h5.792v2.688c.619-.981 1.376-1.728 2.272-2.24.896-.533 1.941-.8 3.136-.8h.48c.192 0 .405.022.64.064v5.536a5.503 5.503 0 00-2.496-.576c-1.344 0-2.357.406-3.04 1.216-.661.79-.992 1.952-.992 3.488v7.04h-5.792V52.8zm20.47 8.16c0 .534.096 1.035.288 1.504.192.448.448.843.768 1.184.341.342.736.608 1.184.8.469.192.97.288 1.504.288.512 0 .992-.096 1.44-.288a3.323 3.323 0 001.184-.8 3.75 3.75 0 00.8-1.184c.213-.448.32-.928.32-1.44 0-.512-.107-.992-.32-1.44a3.66 3.66 0 00-.8-1.216 3.323 3.323 0 00-1.184-.8 3.617 3.617 0 00-1.44-.288 3.93 3.93 0 00-1.504.288 3.741 3.741 0 00-1.184.8c-.32.342-.576.736-.768 1.184a3.392 3.392 0 00-.288 1.408zm7.296-8.16h5.824v16.416h-5.824v-1.824c-1.238 1.558-2.912 2.336-5.024 2.336-1.195 0-2.294-.213-3.296-.64a8.143 8.143 0 01-2.624-1.856 8.696 8.696 0 01-1.76-2.784c-.406-1.066-.608-2.229-.608-3.488a9.11 9.11 0 01.608-3.328 8.542 8.542 0 011.696-2.784 7.793 7.793 0 012.592-1.856c1.002-.469 2.112-.704 3.328-.704 2.048 0 3.744.715 5.088 2.144V52.8zm15.557 0v9.248c0 2.027.982 3.04 2.944 3.04 1.963 0 2.944-1.013 2.944-3.04V52.8h5.792v10.368c0 2.219-.736 3.883-2.208 4.992-1.45 1.11-3.626 1.664-6.528 1.664-2.901 0-5.088-.554-6.56-1.664-1.45-1.109-2.176-2.773-2.176-4.992V52.8h5.792zm20.991 8.16c0 .534.096 1.035.288 1.504.192.448.448.843.768 1.184.341.342.736.608 1.184.8.469.192.97.288 1.504.288.512 0 .992-.096 1.44-.288a3.323 3.323 0 001.184-.8 3.75 3.75 0 00.8-1.184c.213-.448.32-.928.32-1.44 0-.512-.107-.992-.32-1.44a3.66 3.66 0 00-.8-1.216 3.323 3.323 0 00-1.184-.8 3.617 3.617 0 00-1.44-.288 3.85 3.85 0 00-1.472.288 3.757 3.757 0 00-1.185.8 4.636 4.636 0 00-.799 1.184 3.392 3.392 0 00-.288 1.408zm7.296-18.304h5.824v26.56h-5.824v-1.824c-1.238 1.558-2.912 2.336-5.024 2.336-1.195 0-2.294-.224-3.296-.672a8.143 8.143 0 01-2.624-1.856 8.696 8.696 0 01-1.76-2.784c-.406-1.066-.608-2.218-.608-3.456 0-1.173.192-2.282.576-3.328a8.542 8.542 0 011.696-2.784 7.793 7.793 0 012.592-1.856c1.024-.469 2.144-.704 3.36-.704 2.048 0 3.744.715 5.088 2.144V42.656zm21.765 15.968c-.192-.81-.587-1.461-1.184-1.952-.597-.49-1.323-.736-2.176-.736-.896 0-1.632.235-2.208.704-.555.47-.907 1.131-1.056 1.984h6.624zm-6.784 3.36c0 2.496 1.173 3.744 3.52 3.744 1.259 0 2.208-.512 2.848-1.536h5.6c-1.131 3.755-3.957 5.632-8.48 5.632-1.387 0-2.656-.202-3.808-.608-1.152-.426-2.144-1.024-2.976-1.792a8.015 8.015 0 01-1.888-2.752c-.448-1.066-.672-2.261-.672-3.584 0-1.365.213-2.592.64-3.68.427-1.109 1.035-2.048 1.824-2.816.789-.768 1.739-1.354 2.848-1.76 1.131-.426 2.4-.64 3.808-.64 1.387 0 2.635.214 3.744.64 1.109.406 2.048 1.003 2.816 1.792.768.79 1.355 1.76 1.76 2.912.405 1.131.608 2.411.608 3.84v.608H193.45zM34.72 102.96c0 .534.095 1.035.287 1.504.192.448.448.843.768 1.184.342.342.736.608 1.184.8.47.192.971.288 1.504.288.512 0 .992-.096 1.44-.288.47-.192.864-.458 1.184-.8.342-.341.608-.736.8-1.184.214-.448.32-.928.32-1.44 0-.512-.106-.992-.32-1.44a3.666 3.666 0 00-.8-1.216 3.324 3.324 0 00-1.184-.8 3.617 3.617 0 00-1.44-.288c-.533 0-1.034.096-1.504.288a3.749 3.749 0 00-1.184.8c-.32.342-.576.736-.768 1.184a3.393 3.393 0 00-.288 1.408zm7.295-8.16h5.824v16.416h-5.824v-1.824c-1.237 1.558-2.912 2.336-5.024 2.336-1.194 0-2.293-.213-3.296-.64a8.142 8.142 0 01-2.624-1.856 8.705 8.705 0 01-1.76-2.784c-.405-1.066-.608-2.229-.608-3.488 0-1.173.203-2.282.608-3.328a8.557 8.557 0 011.696-2.784 7.799 7.799 0 012.592-1.856c1.003-.469 2.112-.704 3.328-.704 2.048 0 3.744.715 5.088 2.144V94.8zm20.097 16.416l4.096-24.128h6.208l4.832 12.864 4.8-12.864h6.208l4.096 24.128h-6.24l-2.08-13.888-5.696 13.888H75.84l-5.408-13.888-2.08 13.888h-6.24zm44.794-10.592c-.192-.81-.587-1.461-1.184-1.952-.597-.49-1.323-.736-2.176-.736-.896 0-1.632.235-2.208.704-.555.47-.907 1.131-1.056 1.984h6.624zm-6.784 3.36c0 2.496 1.173 3.744 3.52 3.744 1.259 0 2.208-.512 2.848-1.536h5.6c-1.131 3.755-3.957 5.632-8.48 5.632-1.387 0-2.656-.202-3.808-.608-1.152-.426-2.144-1.024-2.976-1.792a8.016 8.016 0 01-1.888-2.752c-.448-1.066-.672-2.261-.672-3.584 0-1.365.213-2.592.64-3.68.426-1.109 1.034-2.048 1.824-2.816.79-.768 1.739-1.354 2.848-1.76 1.131-.426 2.4-.64 3.808-.64 1.387 0 2.635.214 3.744.64 1.109.406 2.048 1.003 2.816 1.792.768.79 1.355 1.76 1.76 2.912.405 1.131.608 2.411.608 3.84v.608h-12.192zm20.879-1.024c0 .534.096 1.035.288 1.504.192.448.448.843.768 1.184a3.73 3.73 0 001.184.8c.469.192.97.288 1.504.288.512 0 .992-.096 1.44-.288a3.314 3.314 0 001.184-.8c.341-.341.608-.736.8-1.184.213-.448.32-.928.32-1.44 0-.512-.107-.992-.32-1.44a3.671 3.671 0 00-.8-1.216 3.327 3.327 0 00-1.184-.8 3.617 3.617 0 00-1.44-.288 3.85 3.85 0 00-1.472.288 3.745 3.745 0 00-1.184.8c-.32.342-.587.736-.8 1.184a3.393 3.393 0 00-.288 1.408zm7.296-18.304h5.824v26.56h-5.824v-1.824c-1.238 1.558-2.912 2.336-5.024 2.336-1.195 0-2.294-.224-3.296-.672a8.132 8.132 0 01-2.624-1.856 8.69 8.69 0 01-1.76-2.784c-.406-1.066-.608-2.218-.608-3.456 0-1.173.192-2.282.576-3.328a8.542 8.542 0 011.696-2.784 7.793 7.793 0 012.592-1.856c1.024-.469 2.144-.704 3.36-.704 2.048 0 3.744.715 5.088 2.144V84.656zM143.854 94.8v16.416h-5.792V94.8h5.792zm-6.176-6.304c0-.448.085-.864.256-1.248.171-.405.405-.757.704-1.056a3.38 3.38 0 011.024-.704c.405-.17.832-.256 1.28-.256.448 0 .864.086 1.248.256.405.171.757.406 1.056.704.299.299.533.651.704 1.056.171.384.256.8.256 1.248 0 .448-.085.875-.256 1.28a3.376 3.376 0 01-.704 1.024 3.279 3.279 0 01-1.056.704c-.384.171-.8.256-1.248.256-.448 0-.875-.085-1.28-.256a3.38 3.38 0 01-1.024-.704 3.376 3.376 0 01-.704-1.024 3.26 3.26 0 01-.256-1.28zm22.518 11.616c-1.003-.682-2.016-1.024-3.04-1.024-.555 0-1.077.096-1.568.288-.469.192-.885.47-1.248.832a3.738 3.738 0 00-.864 1.248c-.192.47-.288 1.003-.288 1.6 0 .576.096 1.11.288 1.6.213.47.491.886.832 1.248a3.93 3.93 0 001.28.8 4.264 4.264 0 001.568.288c1.088 0 2.101-.373 3.04-1.12v4.928c-1.429.619-2.784.928-4.064.928a9.711 9.711 0 01-3.424-.608 9.006 9.006 0 01-2.848-1.728 8.93 8.93 0 01-1.952-2.72c-.491-1.066-.736-2.25-.736-3.552 0-1.301.235-2.485.704-3.552a8.315 8.315 0 011.92-2.784 8.403 8.403 0 012.88-1.824 9.727 9.727 0 013.616-.672c1.408 0 2.709.299 3.904.896v4.928zm8.68 2.848c0 .534.096 1.035.288 1.504.192.448.448.843.768 1.184a3.73 3.73 0 001.184.8c.469.192.97.288 1.504.288.512 0 .992-.096 1.44-.288a3.314 3.314 0 001.184-.8c.341-.341.608-.736.8-1.184.213-.448.32-.928.32-1.44 0-.512-.107-.992-.32-1.44a3.671 3.671 0 00-.8-1.216 3.327 3.327 0 00-1.184-.8 3.617 3.617 0 00-1.44-.288 3.93 3.93 0 00-1.504.288 3.745 3.745 0 00-1.184.8c-.32.342-.576.736-.768 1.184a3.393 3.393 0 00-.288 1.408zm7.296-8.16h5.824v16.416h-5.824v-1.824c-1.238 1.558-2.912 2.336-5.024 2.336-1.195 0-2.294-.213-3.296-.64a8.132 8.132 0 01-2.624-1.856 8.69 8.69 0 01-1.76-2.784c-.406-1.066-.608-2.229-.608-3.488 0-1.173.202-2.282.608-3.328a8.542 8.542 0 011.696-2.784 7.793 7.793 0 012.592-1.856c1.002-.469 2.112-.704 3.328-.704 2.048 0 3.744.715 5.088 2.144V94.8zm9.765 0h5.792v2.688c.619-.981 1.376-1.728 2.272-2.24.896-.533 1.941-.8 3.136-.8h.48c.192 0 .405.022.64.064v5.536a5.507 5.507 0 00-2.496-.576c-1.344 0-2.357.406-3.04 1.216-.661.79-.992 1.952-.992 3.488v7.04h-5.792V94.8zm27.094 5.824c-.192-.81-.587-1.461-1.184-1.952-.597-.49-1.323-.736-2.176-.736-.896 0-1.632.235-2.208.704-.555.47-.907 1.131-1.056 1.984h6.624zm-6.784 3.36c0 2.496 1.173 3.744 3.52 3.744 1.259 0 2.208-.512 2.848-1.536h5.6c-1.131 3.755-3.957 5.632-8.48 5.632-1.387 0-2.656-.202-3.808-.608-1.152-.426-2.144-1.024-2.976-1.792a8.012 8.012 0 01-1.888-2.752c-.448-1.066-.672-2.261-.672-3.584 0-1.365.213-2.592.64-3.68.427-1.109 1.035-2.048 1.824-2.816.789-.768 1.739-1.354 2.848-1.76 1.131-.426 2.4-.64 3.808-.64 1.387 0 2.635.214 3.744.64 1.109.406 2.048 1.003 2.816 1.792.768.79 1.355 1.76 1.76 2.912.405 1.131.608 2.411.608 3.84v.608h-12.192zm15.215 4.16c0-.512.096-.992.288-1.44.192-.469.458-.874.8-1.216a3.746 3.746 0 011.184-.8 3.85 3.85 0 011.472-.288c.512 0 .992.096 1.44.288.469.192.874.459 1.216.8.341.342.608.747.8 1.216.192.448.288.928.288 1.44a3.85 3.85 0 01-.288 1.472 3.746 3.746 0 01-.8 1.184 3.656 3.656 0 01-1.216.8 3.617 3.617 0 01-1.44.288 3.85 3.85 0 01-1.472-.288 3.73 3.73 0 01-1.184-.8 3.73 3.73 0 01-.8-1.184 3.85 3.85 0 01-.288-1.472z" fill="#fff"/></svg>