<svg width="225" height="44" viewBox="0 0 225 44" fill="none" xmlns="http://www.w3.org/2000/svg"><path d="M29.714 11.5l-1.76-5.02-1.76 5.02h3.52zm1.04 2.98h-5.6l-.9 2.62h-4.18l5.74-15.08h4.28l5.74 15.08h-4.18l-.9-2.62zM45.604 12c0-.32-.06-.62-.18-.9a2.053 2.053 0 00-.48-.76 2.285 2.285 0 00-.76-.5c-.28-.134-.587-.2-.92-.2-.32 0-.62.06-.9.18a2.34 2.34 0 00-.74.5c-.2.213-.367.466-.5.76-.12.28-.18.58-.18.9 0 .32.06.62.18.9s.286.526.5.74c.213.2.46.366.74.5a2.407 2.407 0 001.82 0c.28-.12.52-.287.72-.5.213-.214.38-.46.5-.74.133-.28.2-.574.2-.88zm-4.56 10.22h-3.62V6.84h3.62v1.14c.773-.974 1.826-1.46 3.16-1.46.733 0 1.413.146 2.04.44.64.28 1.193.666 1.66 1.16a5.176 5.176 0 011.08 1.74c.266.666.4 1.38.4 2.14 0 .76-.134 1.466-.4 2.12a5.221 5.221 0 01-1.08 1.72c-.454.492-.994.88-1.62 1.16-.627.28-1.307.42-2.04.42-1.28 0-2.347-.44-3.2-1.32v6.12zM51.447 6.84h3.62v1.68c.387-.614.86-1.08 1.42-1.4.56-.334 1.213-.5 1.96-.5h.3c.12 0 .253.012.4.04v3.46c-.48-.24-1-.36-1.56-.36-.84 0-1.473.252-1.9.76-.413.492-.62 1.22-.62 2.18v4.4h-3.62V6.84zm16.934 3.64a2.178 2.178 0 00-.74-1.22c-.374-.308-.827-.46-1.36-.46-.56 0-1.02.146-1.38.44-.347.292-.567.706-.66 1.24h4.14zm-4.24 2.1c0 1.56.733 2.34 2.2 2.34.786 0 1.38-.32 1.78-.96h3.5c-.707 2.346-2.474 3.52-5.3 3.52-.867 0-1.66-.128-2.38-.38a5.546 5.546 0 01-1.86-1.12 5.013 5.013 0 01-1.18-1.72c-.28-.668-.42-1.414-.42-2.24 0-.854.133-1.62.4-2.3a4.843 4.843 0 011.14-1.76 4.953 4.953 0 011.78-1.1c.706-.268 1.5-.4 2.38-.4.866 0 1.646.132 2.34.4.693.252 1.28.626 1.76 1.12.48.492.846 1.1 1.1 1.82.253.706.38 1.506.38 2.4v.38h-7.62zm9.689-5.74h3.62v1.3c.493-.6.993-1 1.5-1.2.507-.214 1.1-.32 1.78-.32.72 0 1.333.12 1.84.36.52.226.96.552 1.32.98.293.346.493.732.6 1.16.107.426.16.913.16 1.46v6.52h-3.62v-5.18c0-.508-.04-.914-.12-1.22-.067-.32-.194-.574-.38-.76-.16-.16-.34-.274-.54-.34a2.01 2.01 0 00-.64-.1c-.613 0-1.087.186-1.42.56-.32.36-.48.88-.48 1.56v5.48h-3.62V6.84zm16.641 5.1c0 .333.06.646.18.94.12.28.28.526.48.74.213.213.46.38.74.5.293.12.607.18.94.18.32 0 .62-.06.9-.18.293-.12.54-.287.74-.5.213-.214.38-.46.5-.74.133-.28.2-.58.2-.9 0-.32-.067-.62-.2-.9a2.286 2.286 0 00-.5-.76c-.2-.214-.447-.38-.74-.5a2.407 2.407 0 00-1.82 0 2.34 2.34 0 00-.74.5c-.2.213-.367.46-.5.74-.12.266-.18.56-.18.88zM95.031.5h3.64v16.6h-3.64v-1.14c-.773.973-1.82 1.46-3.14 1.46a4.992 4.992 0 01-3.7-1.58 5.445 5.445 0 01-1.1-1.74 6.03 6.03 0 01-.38-2.16c0-.734.12-1.428.36-2.08a5.35 5.35 0 011.06-1.74c.453-.494.993-.88 1.62-1.16a4.98 4.98 0 012.1-.44c1.28 0 2.34.446 3.18 1.34V.5zm13.604 9.98a2.18 2.18 0 00-.74-1.22c-.374-.308-.827-.46-1.36-.46-.56 0-1.02.146-1.38.44-.347.292-.567.706-.66 1.24h4.14zm-4.24 2.1c0 1.56.733 2.34 2.2 2.34.786 0 1.38-.32 1.78-.96h3.5c-.707 2.346-2.474 3.52-5.3 3.52-.867 0-1.66-.128-2.38-.38a5.546 5.546 0 01-1.86-1.12 5.008 5.008 0 01-1.18-1.72c-.28-.668-.42-1.414-.42-2.24 0-.854.133-1.62.4-2.3a4.825 4.825 0 011.14-1.76 4.944 4.944 0 011.78-1.1c.706-.268 1.5-.4 2.38-.4.866 0 1.646.132 2.34.4.693.252 1.28.626 1.76 1.12.48.492.846 1.1 1.1 1.82.253.706.38 1.506.38 2.4v.38h-7.62zm23.286-3.1c-.667-.348-1.32-.52-1.96-.52-.334 0-.607.066-.82.2-.2.132-.3.312-.3.54 0 .12.013.22.04.3.04.066.113.133.22.2.12.066.286.126.5.18.226.052.52.12.88.2 1 .2 1.746.56 2.24 1.08.493.506.74 1.16.74 1.96 0 .6-.12 1.14-.36 1.62-.24.48-.574.886-1 1.22-.427.32-.94.566-1.54.74-.6.186-1.26.28-1.98.28-1.387 0-2.754-.394-4.1-1.18l1.32-2.56c1.013.692 1.973 1.04 2.88 1.04.333 0 .606-.074.82-.22.213-.148.32-.334.32-.56a.72.72 0 00-.06-.32.431.431 0 00-.2-.24 1.37 1.37 0 00-.48-.2 6.957 6.957 0 00-.8-.2c-1.12-.227-1.907-.56-2.36-1-.44-.454-.66-1.074-.66-1.86 0-.574.106-1.088.32-1.54.213-.468.52-.86.92-1.18.4-.32.88-.568 1.44-.74a6.542 6.542 0 011.9-.26c1.133 0 2.233.22 3.3.66l-1.22 2.36zm6.795 2.44c0 .346.06.666.18.96.134.28.3.526.5.74.214.213.46.38.74.5.294.12.6.18.92.18.32 0 .62-.06.9-.18.294-.12.54-.287.74-.5.214-.214.38-.46.5-.74.134-.294.2-.607.2-.94 0-.32-.066-.62-.2-.9a2.276 2.276 0 00-.5-.76 2.07 2.07 0 00-.74-.5 2.26 2.26 0 00-.9-.18c-.32 0-.626.06-.92.18-.28.12-.526.286-.74.5-.2.213-.366.46-.5.74-.12.28-.18.58-.18.9zm-3.82-.04c0-.76.154-1.468.46-2.12a5.11 5.11 0 011.28-1.72 6.022 6.022 0 011.94-1.16c.76-.28 1.587-.42 2.48-.42.88 0 1.694.14 2.44.42a5.7 5.7 0 011.96 1.14c.56.48.994 1.06 1.3 1.74.307.666.46 1.406.46 2.22 0 .813-.16 1.56-.48 2.24a5.295 5.295 0 01-1.28 1.74c-.546.48-1.206.852-1.98 1.12-.76.266-1.586.4-2.48.4-.88 0-1.693-.134-2.44-.4a5.748 5.748 0 01-1.94-1.14 5.395 5.395 0 01-1.26-1.76c-.306-.694-.46-1.46-.46-2.3zm22.584.12c0-.32-.06-.62-.18-.9a2.276 2.276 0 00-.5-.76 2.337 2.337 0 00-.74-.5 2.11 2.11 0 00-.92-.2c-.32 0-.62.06-.9.18s-.526.286-.74.5c-.2.213-.366.466-.5.76-.12.28-.18.58-.18.9 0 .32.06.62.18.9s.287.526.5.74c.214.2.46.366.74.5.294.12.6.18.92.18.32 0 .62-.06.9-.18s.52-.287.72-.5c.214-.214.38-.46.5-.74.134-.28.2-.574.2-.88zM148.68.5v7.36c.854-.894 1.92-1.34 3.2-1.34.76 0 1.454.146 2.08.44.64.28 1.18.666 1.62 1.16.454.48.807 1.052 1.06 1.72.254.652.38 1.353.38 2.1 0 .76-.133 1.473-.4 2.14a5.166 5.166 0 01-2.74 2.92c-.626.28-1.306.42-2.04.42-1.333 0-2.386-.488-3.16-1.46v1.14h-3.62V.5h3.62zm10.404 6.34h3.62v1.68c.386-.614.86-1.08 1.42-1.4.56-.334 1.213-.5 1.96-.5h.3c.12 0 .253.012.4.04v3.46c-.48-.24-1-.36-1.56-.36-.84 0-1.474.252-1.9.76-.414.492-.62 1.22-.62 2.18v4.4h-3.62V6.84zm16.933 3.64c-.12-.508-.366-.914-.74-1.22-.373-.308-.826-.46-1.36-.46-.56 0-1.02.146-1.38.44-.346.292-.566.706-.66 1.24h4.14zm-4.24 2.1c0 1.56.734 2.34 2.2 2.34.787 0 1.38-.32 1.78-.96h3.5c-.706 2.346-2.473 3.52-5.3 3.52-.866 0-1.66-.128-2.38-.38a5.546 5.546 0 01-1.86-1.12 5.021 5.021 0 01-1.18-1.72c-.28-.668-.42-1.414-.42-2.24 0-.854.134-1.62.4-2.3a4.85 4.85 0 011.14-1.76 4.961 4.961 0 011.78-1.1c.707-.268 1.5-.4 2.38-.4.867 0 1.647.132 2.34.4.694.252 1.28.626 1.76 1.12.48.492.847 1.1 1.1 1.82.254.706.38 1.506.38 2.4v.38h-7.62zm23.986-2.1c-.12-.508-.366-.914-.74-1.22-.373-.308-.826-.46-1.36-.46-.56 0-1.02.146-1.38.44-.346.292-.566.706-.66 1.24h4.14zm-4.24 2.1c0 1.56.734 2.34 2.2 2.34.787 0 1.38-.32 1.78-.96h3.5c-.706 2.346-2.473 3.52-5.3 3.52-.866 0-1.66-.128-2.38-.38a5.546 5.546 0 01-1.86-1.12 5.021 5.021 0 01-1.18-1.72c-.28-.668-.42-1.414-.42-2.24 0-.854.134-1.62.4-2.3a4.85 4.85 0 011.14-1.76 4.961 4.961 0 011.78-1.1c.707-.268 1.5-.4 2.38-.4.867 0 1.647.132 2.34.4.694.252 1.28.626 1.76 1.12.48.492.847 1.1 1.1 1.82.254.706.38 1.506.38 2.4v.38h-7.62zM204.833.5v16.6h-3.62V.5h3.62zM5.838 35.134V43.1H1.856v-7.964H.426v-3.322h1.43V30.12c0-.939.088-1.686.264-2.244.147-.47.381-.902.704-1.298.323-.41.697-.763 1.122-1.056.44-.293.91-.52 1.408-.682.499-.161.99-.242 1.474-.242.337 0 .645.037.924.11.293.073.587.176.88.308v3.476a3.688 3.688 0 00-.748-.286 2.213 2.213 0 00-.704-.11 1.6 1.6 0 00-.506.088.987.987 0 00-.462.308c-.147.162-.25.396-.308.704a8.607 8.607 0 00-.066 1.21v1.408h2.794v3.322H5.838zm4.282-3.322h3.982v1.848c.425-.675.946-1.188 1.562-1.54.616-.367 1.335-.55 2.156-.55h.33c.132 0 .279.015.44.044v3.806a3.783 3.783 0 00-1.716-.396c-.924 0-1.62.279-2.09.836-.455.543-.682 1.342-.682 2.398v4.84H10.12V31.813zm14.073 5.61c0 .367.066.712.198 1.034.132.308.308.58.528.814.235.235.506.418.814.55.322.132.667.198 1.034.198.352 0 .682-.066.99-.198.322-.132.594-.315.814-.55.234-.235.418-.506.55-.814.146-.308.22-.638.22-.99s-.074-.682-.22-.99a2.514 2.514 0 00-.55-.836 2.283 2.283 0 00-.814-.55 2.486 2.486 0 00-.99-.198c-.367 0-.712.066-1.034.198-.308.132-.58.316-.814.55a2.78 2.78 0 00-.528.814 2.332 2.332 0 00-.198.968zm5.016-5.61h4.004V43.1h-4.004v-1.254c-.85 1.07-2.002 1.606-3.454 1.606a5.727 5.727 0 01-2.266-.44 5.605 5.605 0 01-1.804-1.276 5.99 5.99 0 01-1.21-1.914 6.696 6.696 0 01-.418-2.398c0-.806.14-1.57.418-2.288a5.885 5.885 0 011.166-1.914 5.364 5.364 0 011.782-1.276c.69-.323 1.452-.484 2.288-.484 1.408 0 2.574.492 3.498 1.474v-1.122zm10.696 0v6.358c0 1.394.674 2.09 2.024 2.09 1.349 0 2.024-.697 2.024-2.09v-6.358h3.982v7.128c0 1.526-.506 2.67-1.518 3.432-.998.763-2.494 1.144-4.488 1.144-1.995 0-3.498-.381-4.51-1.144-.998-.762-1.496-1.906-1.496-3.432v-7.128h3.982zm14.43 5.61c0 .367.066.712.198 1.034.132.308.308.58.528.814.235.235.506.418.814.55.323.132.668.198 1.034.198.352 0 .682-.066.99-.198.323-.132.594-.315.814-.55.235-.235.418-.506.55-.814.147-.308.22-.638.22-.99s-.073-.682-.22-.99a2.514 2.514 0 00-.55-.836 2.283 2.283 0 00-.814-.55 2.486 2.486 0 00-.99-.198c-.352 0-.689.066-1.012.198-.308.132-.579.316-.814.55a3.18 3.18 0 00-.55.814 2.332 2.332 0 00-.198.968zm5.016-12.584h4.004V43.1h-4.004v-1.254c-.85 1.07-2.002 1.606-3.454 1.606a5.491 5.491 0 01-4.07-1.738 5.99 5.99 0 01-1.21-1.914 6.633 6.633 0 01-.418-2.376c0-.806.132-1.57.396-2.288a5.885 5.885 0 011.166-1.914 5.364 5.364 0 011.782-1.276 5.478 5.478 0 012.31-.484c1.408 0 2.574.492 3.498 1.474V24.84zm14.964 10.978c-.132-.557-.403-1.005-.814-1.342-.41-.337-.91-.506-1.496-.506-.616 0-1.122.161-1.518.484-.381.323-.623.777-.726 1.364h4.554zm-4.664 2.31c0 1.716.807 2.574 2.42 2.574.865 0 1.518-.352 1.958-1.056h3.85c-.777 2.581-2.72 3.872-5.83 3.872-.953 0-1.826-.14-2.618-.418a6.1 6.1 0 01-2.046-1.232 5.512 5.512 0 01-1.298-1.892c-.308-.733-.462-1.555-.462-2.464 0-.939.147-1.782.44-2.53a5.326 5.326 0 011.254-1.936 5.447 5.447 0 011.958-1.21c.778-.293 1.65-.44 2.618-.44.954 0 1.812.147 2.574.44a5.1 5.1 0 011.936 1.232c.528.543.931 1.21 1.21 2.002.279.777.418 1.657.418 2.64v.418h-8.382zm21.83-.704c0 .367.067.712.199 1.034.132.308.308.58.528.814.234.235.506.418.814.55.322.132.667.198 1.034.198.352 0 .682-.066.99-.198.322-.132.594-.315.814-.55.234-.235.418-.506.55-.814.147-.308.22-.638.22-.99s-.073-.682-.22-.99a2.515 2.515 0 00-.55-.836 2.284 2.284 0 00-.814-.55 2.486 2.486 0 00-.99-.198c-.367 0-.712.066-1.034.198-.308.132-.58.316-.814.55a2.78 2.78 0 00-.528.814 2.332 2.332 0 00-.198.968zm5.017-5.61h4.004V43.1h-4.004v-1.254c-.85 1.07-2.002 1.606-3.454 1.606a5.726 5.726 0 01-2.266-.44 5.604 5.604 0 01-1.804-1.276 5.987 5.987 0 01-1.21-1.914 6.696 6.696 0 01-.418-2.398c0-.806.14-1.57.418-2.288a5.884 5.884 0 011.166-1.914 5.362 5.362 0 011.782-1.276c.69-.323 1.452-.484 2.288-.484 1.408 0 2.574.492 3.498 1.474v-1.122zM110.314 43.1l2.816-16.588h4.268l3.322 8.844 3.3-8.844h4.268l2.816 16.588h-4.29l-1.43-9.548-3.916 9.548h-1.716l-3.718-9.548-1.43 9.548h-4.29zm30.796-7.282c-.132-.557-.403-1.005-.814-1.342-.411-.337-.909-.506-1.496-.506-.616 0-1.122.161-1.518.484-.381.323-.623.777-.726 1.364h4.554zm-4.664 2.31c0 1.716.807 2.574 2.42 2.574.865 0 1.518-.352 1.958-1.056h3.85c-.777 2.581-2.721 3.872-5.83 3.872-.953 0-1.826-.14-2.618-.418a6.1 6.1 0 01-2.046-1.232 5.518 5.518 0 01-1.298-1.892c-.308-.733-.462-1.555-.462-2.464 0-.939.147-1.782.44-2.53a5.318 5.318 0 011.254-1.936 5.448 5.448 0 011.958-1.21c.777-.293 1.65-.44 2.618-.44.953 0 1.811.147 2.574.44.763.279 1.408.69 1.936 1.232.528.543.931 1.21 1.21 2.002.279.777.418 1.657.418 2.64v.418h-8.382zm14.354-.704c0 .367.066.712.198 1.034.132.308.308.58.528.814.235.235.506.418.814.55.323.132.668.198 1.034.198.352 0 .682-.066.99-.198a2.28 2.28 0 00.814-.55c.235-.235.418-.506.55-.814.147-.308.22-.638.22-.99s-.073-.682-.22-.99a2.51 2.51 0 00-.55-.836 2.28 2.28 0 00-.814-.55 2.486 2.486 0 00-.99-.198c-.352 0-.689.066-1.012.198a2.58 2.58 0 00-.814.55c-.22.235-.403.506-.55.814a2.332 2.332 0 00-.198.968zm5.016-12.584h4.004V43.1h-4.004v-1.254c-.85 1.07-2.002 1.606-3.454 1.606a5.495 5.495 0 01-4.07-1.738 6.006 6.006 0 01-1.21-1.914 6.648 6.648 0 01-.418-2.376c0-.806.132-1.57.396-2.288a5.903 5.903 0 011.166-1.914 5.37 5.37 0 011.782-1.276 5.478 5.478 0 012.31-.484c1.408 0 2.574.492 3.498 1.474V24.84zm10.696 6.974V43.1h-3.982V31.813h3.982zm-4.246-4.334c0-.308.059-.594.176-.858a2.25 2.25 0 01.484-.726c.205-.205.44-.366.704-.484a2.247 2.247 0 012.948 1.21c.117.264.176.55.176.858 0 .308-.059.602-.176.88a2.32 2.32 0 01-.484.704 2.24 2.24 0 01-.726.484 2.245 2.245 0 01-1.738 0 2.315 2.315 0 01-.704-.484 2.32 2.32 0 01-.484-.704 2.25 2.25 0 01-.176-.88zm15.481 7.986c-.689-.47-1.386-.704-2.09-.704-.381 0-.741.066-1.078.198a2.582 2.582 0 00-.858.572c-.249.235-.447.52-.594.858-.132.323-.198.69-.198 1.1 0 .396.066.763.198 1.1.147.323.337.609.572.858.249.235.543.418.88.55.337.132.697.198 1.078.198.748 0 1.445-.257 2.09-.77v3.388c-.983.425-1.914.638-2.794.638-.821 0-1.606-.14-2.354-.418a6.204 6.204 0 01-1.958-1.188 6.145 6.145 0 01-1.342-1.87c-.337-.733-.506-1.547-.506-2.442 0-.895.161-1.709.484-2.442a5.733 5.733 0 011.32-1.914 5.768 5.768 0 011.98-1.254 6.685 6.685 0 012.486-.462c.968 0 1.863.206 2.684.616v3.388zm5.967 1.958c0 .367.066.712.198 1.034.132.308.308.58.528.814.235.235.506.418.814.55.323.132.668.198 1.034.198.352 0 .682-.066.99-.198a2.28 2.28 0 00.814-.55c.235-.235.418-.506.55-.814.147-.308.22-.638.22-.99s-.073-.682-.22-.99a2.51 2.51 0 00-.55-.836 2.28 2.28 0 00-.814-.55 2.486 2.486 0 00-.99-.198c-.366 0-.711.066-1.034.198a2.58 2.58 0 00-.814.55 2.78 2.78 0 00-.528.814 2.332 2.332 0 00-.198.968zm5.016-5.61h4.004V43.1h-4.004v-1.254c-.85 1.07-2.002 1.606-3.454 1.606a5.73 5.73 0 01-2.266-.44 5.616 5.616 0 01-1.804-1.276 6.006 6.006 0 01-1.21-1.914 6.711 6.711 0 01-.418-2.398c0-.806.14-1.57.418-2.288a5.903 5.903 0 011.166-1.914 5.37 5.37 0 011.782-1.276c.69-.323 1.452-.484 2.288-.484 1.408 0 2.574.492 3.498 1.474v-1.122zm6.714 0h3.982v1.848c.425-.675.946-1.188 1.562-1.54.616-.367 1.335-.55 2.156-.55h.33c.132 0 .279.015.44.044v3.806a3.783 3.783 0 00-1.716-.396c-.924 0-1.621.279-2.09.836-.455.543-.682 1.342-.682 2.398v4.84h-3.982V31.813zm18.627 4.004c-.132-.557-.403-1.005-.814-1.342-.411-.337-.909-.506-1.496-.506-.616 0-1.122.161-1.518.484-.381.323-.623.777-.726 1.364h4.554zm-4.664 2.31c0 1.716.807 2.574 2.42 2.574.865 0 1.518-.352 1.958-1.056h3.85c-.777 2.581-2.721 3.872-5.83 3.872-.953 0-1.826-.14-2.618-.418a6.1 6.1 0 01-2.046-1.232 5.518 5.518 0 01-1.298-1.892c-.308-.733-.462-1.555-.462-2.464 0-.939.147-1.782.44-2.53a5.318 5.318 0 011.254-1.936 5.448 5.448 0 011.958-1.21c.777-.293 1.65-.44 2.618-.44.953 0 1.811.147 2.574.44.763.279 1.408.69 1.936 1.232.528.543.931 1.21 1.21 2.002.279.777.418 1.657.418 2.64v.418h-8.382zm10.407 2.956c0-.336.063-.65.189-.945a2.399 2.399 0 011.302-1.323c.308-.126.63-.189.966-.189.336 0 .651.063.945.19.308.125.574.3.798.524.224.224.399.49.525.798.126.294.189.61.189.945 0 .336-.063.658-.189.966a2.399 2.399 0 01-1.323 1.302 2.373 2.373 0 01-.945.19c-.336 0-.658-.064-.966-.19a2.457 2.457 0 01-1.302-1.302 2.527 2.527 0 01-.189-.966z" fill="#fff"/></svg>