<svg width="460" height="34" viewBox="0 0 460 34" fill="none" xmlns="http://www.w3.org/2000/svg"><path d="M2.232 29.32c-.96 0-1.664-.768-1.664-1.696 0-.928.736-1.696 1.664-1.696.928 0 1.696.768 1.696 1.696 0 .928-.768 1.696-1.696 1.696zm7.14 0c-.96 0-1.664-.768-1.664-1.696 0-.928.736-1.696 1.664-1.696.928 0 1.696.768 1.696 1.696 0 .928-.768 1.696-1.696 1.696zm7.14 0c-.96 0-1.664-.768-1.664-1.696 0-.928.736-1.696 1.664-1.696.928 0 1.696.768 1.696 1.696 0 .928-.768 1.696-1.696 1.696zm5.956 4.192V13.416h2.336v2.688c1.152-2.016 3.424-3.008 5.952-3.008 4.32 0 7.36 3.552 7.36 8.096 0 4.544-3.04 8.128-7.36 8.128-2.464 0-4.704-1.024-5.856-3.04v7.232h-2.432zm7.744-6.56c3.104 0 5.408-2.432 5.408-5.76 0-3.296-2.304-5.728-5.408-5.728-2.976 0-5.312 2.464-5.312 5.728s2.336 5.76 5.312 5.76zm19.542 2.368c-4.576 0-8.192-3.584-8.192-8.096 0-4.544 3.616-8.128 8.192-8.128 4.576 0 8.192 3.584 8.192 8.128 0 4.512-3.616 8.096-8.192 8.096zm0-2.368c3.232 0 5.696-2.464 5.696-5.728 0-3.296-2.464-5.76-5.696-5.76-3.232 0-5.696 2.464-5.696 5.76 0 3.264 2.464 5.728 5.696 5.728zM62.029 29V13.416h2.432v3.296c.896-2.048 2.912-3.616 6.016-3.616v2.656c-3.648 0-6.016 2.048-6.016 5.856V29H62.03zm24.715.32c-2.752 0-4.384-1.344-4.384-4.992v-8.896h-2.336v-2.016h2.336v-3.36l2.432-.448v3.808h5.312v2.016h-5.312v8.96c0 2.144.928 2.752 2.176 2.752 1.44 0 2.56-.864 2.56-.864l.8 1.888c-.608.416-1.888 1.152-3.584 1.152zm12.52 0c-3.84 0-5.664-2.016-5.664-6.176v-9.728h2.431v9.408c0 2.912 1.408 4.128 3.936 4.128 2.817 0 4.449-2.304 4.449-4.704v-8.832h2.432V29h-2.336v-2.752c-.96 2.016-3.2 3.072-5.249 3.072zm19.934-.32V13.416h2.432v2.656c1.088-1.888 3.104-2.976 5.408-2.976 3.904 0 5.632 2.368 5.632 6.464V29h-2.432v-9.12c0-2.88-1.056-4.416-3.872-4.416-2.784 0-4.736 2.176-4.736 4.768V29h-2.432zm22.496-18.08l2.592-4.256h2.656l-3.008 4.256h-2.24zm.864 18.4c-3.84 0-5.664-2.016-5.664-6.176v-9.728h2.432v9.408c0 2.912 1.408 4.128 3.936 4.128 2.816 0 4.448-2.304 4.448-4.704v-8.832h2.432V29h-2.336v-2.752c-.96 2.016-3.2 3.072-5.248 3.072zm12.326-.32V13.416h2.432v2.688c.864-1.696 2.816-3.008 4.992-3.008 2.496 0 4.256 1.088 4.992 3.296 1.12-2.272 3.552-3.296 5.376-3.296 3.744 0 5.728 2.176 5.728 6.464V29h-2.464v-9.12c0-2.656-.928-4.416-3.776-4.416-2.624 0-4.288 2.112-4.288 4.448V29h-2.464v-9.12c0-2.656-.928-4.416-3.744-4.416-2.72 0-4.352 2.304-4.352 4.576V29h-2.432zm35.473.32c-4.416 0-8.16-3.168-8.16-8.096 0-4.512 3.392-8.128 7.84-8.128 4.16 0 7.456 3.584 7.456 8.032 0 .448-.064.928-.064.96h-12.704c.384 3.104 2.784 5.056 5.664 5.056 1.76 0 3.52-.608 4.8-1.664l1.056 1.792a9.536 9.536 0 01-5.888 2.048zm-5.632-9.088h10.368c-.256-2.88-2.464-4.96-5.184-4.96-2.656 0-4.832 2.048-5.184 4.96zM201.602 29V13.416h2.432v3.296c.896-2.048 2.912-3.616 6.016-3.616v2.656c-3.648 0-6.016 2.048-6.016 5.856V29h-2.432zm19.129.32c-4.576 0-8.192-3.584-8.192-8.096 0-4.544 3.616-8.128 8.192-8.128 4.576 0 8.192 3.584 8.192 8.128 0 4.512-3.616 8.096-8.192 8.096zm0-2.368c3.232 0 5.696-2.464 5.696-5.728 0-3.296-2.464-5.76-5.696-5.76-3.232 0-5.696 2.464-5.696 5.76 0 3.264 2.464 5.728 5.696 5.728zm26.605 2.368c-4.32 0-7.36-3.584-7.36-8.096 0-4.576 3.04-8.128 7.36-8.128 2.496 0 4.704 1.024 5.856 3.04V7.944h2.432V29h-2.336v-2.72c-1.152 2.048-3.424 3.04-5.952 3.04zm.544-2.368c2.976 0 5.312-2.464 5.312-5.728s-2.336-5.76-5.312-5.76c-3.104 0-5.408 2.432-5.408 5.76 0 3.296 2.304 5.728 5.408 5.728zm19.989 2.368c-4.416 0-8.16-3.168-8.16-8.096 0-4.512 3.392-8.128 7.84-8.128 4.16 0 7.456 3.584 7.456 8.032 0 .448-.064.928-.064.96h-12.704c.384 3.104 2.784 5.056 5.664 5.056 1.76 0 3.52-.608 4.8-1.664l1.056 1.792a9.536 9.536 0 01-5.888 2.048zm-5.632-9.088h10.368c-.256-2.88-2.464-4.96-5.184-4.96-2.656 0-4.832 2.048-5.184 4.96z" fill="#000"/><path d="M286.765 29V4.376h6.156l4.826 6.916c.798 1.178 2.09 3.192 2.09 3.192s1.292-2.014 2.09-3.192l4.826-6.916h6.156V29h-7.22V16.536s-1.254 2.014-1.938 2.964l-3.914 5.472-3.952-5.472c-.684-.95-1.9-2.888-1.9-2.888V29h-7.22zm41.034.38c-5.89 0-10.906-3.686-10.906-10.07 0-5.624 4.37-10.108 10.108-10.108 5.51 0 9.728 4.484 9.728 10.108 0 1.178-.152 2.242-.152 2.242h-12.882c.57 1.824 2.28 2.508 4.142 2.508 1.634 0 3.382-.494 4.598-1.178l2.318 4.674c-2.166 1.33-4.56 1.824-6.954 1.824zm-4.294-11.742h6.916c-.228-1.786-1.634-3.002-3.42-3.002-1.71 0-3.078 1.216-3.496 3.002zm24.588 11.742c-5.396 0-8.322-4.484-8.322-10.07 0-5.624 3.116-10.108 8.55-10.108 1.558 0 3.496.532 4.674 2.014v-7.22h6.916V29h-6.536v-2.166c-1.026 1.976-3.724 2.546-5.282 2.546zm1.824-6.08c1.824 0 3.116-1.634 3.116-3.99 0-2.318-1.292-4.028-3.116-4.028s-3.116 1.71-3.116 4.028c0 2.356 1.292 3.99 3.116 3.99zm13.779 5.7V9.582h6.916V29h-6.916zm3.42-20.9c-2.128 0-3.914-1.786-3.914-3.914 0-2.166 1.786-3.952 3.914-3.952 2.204 0 3.99 1.786 3.99 3.952 0 2.128-1.786 3.914-3.99 3.914zm17.393 21.28c-5.966 0-10.488-4.484-10.488-10.07 0-5.624 4.522-10.108 10.488-10.108 2.66 0 4.826.798 6.878 2.432l-3.99 4.788c-.722-.684-1.52-1.14-2.698-1.14-2.242 0-3.686 1.71-3.686 4.028 0 2.356 1.406 3.99 3.838 3.99 1.33 0 2.432-.57 3.268-1.406l3.458 5.092c-1.862 1.558-4.332 2.394-7.068 2.394zm17.074 0c-5.396 0-8.322-4.484-8.322-10.07 0-5.624 2.926-10.108 8.322-10.108 1.558 0 4.142.532 5.282 2.546V9.582h6.536V29h-6.536v-2.166c-1.064 1.976-3.724 2.546-5.282 2.546zm1.824-6.08c1.824 0 3.116-1.634 3.116-3.99 0-2.318-1.292-4.028-3.116-4.028s-3.116 1.71-3.116 4.028c0 2.356 1.292 3.99 3.116 3.99zm13.78 5.7V9.582h6.726v3.458c.114-.836 1.786-3.838 6.346-3.838v7.524c-5.016 0-6.156 2.09-6.156 5.738V29h-6.916zm26.649.38c-5.89 0-10.906-3.686-10.906-10.07 0-5.624 4.37-10.108 10.108-10.108 5.51 0 9.728 4.484 9.728 10.108 0 1.178-.152 2.242-.152 2.242h-12.882c.57 1.824 2.28 2.508 4.142 2.508 1.634 0 3.382-.494 4.598-1.178l2.318 4.674c-2.166 1.33-4.56 1.824-6.954 1.824zm-4.294-11.742h6.916c-.228-1.786-1.634-3.002-3.42-3.002-1.71 0-3.078 1.216-3.496 3.002zm16.277 15.746l1.568-7.328h2.4l-2.24 7.328h-1.728z" fill="#0B2E54"/></svg>