<svg width="398" height="35" viewBox="0 0 398 35" fill="none" xmlns="http://www.w3.org/2000/svg"><path d="M.68 28V6.538h7.224v2.478c1.974-2.31 4.326-2.898 6.468-2.898 5.418 0 7.518 3.192 7.518 9.492V28h-7.644V16.576c0-2.436-.924-3.318-2.394-3.318-2.352 0-3.528 1.974-3.528 4.62V28H.68zm31.965.42c-6.468 0-7.812-4.032-7.812-9.492V6.538h7.644v11.424c0 2.268.756 3.318 2.772 3.318 2.31 0 3.15-1.974 3.15-4.62V6.538h7.644V28H38.82v-2.352c-1.176 1.512-3.948 2.772-6.174 2.772zM49.407 28V6.538h7.224v2.478c1.974-2.31 4.326-2.898 6.468-2.898 5.418 0 7.518 3.192 7.518 9.492V28h-7.644V16.576c0-2.436-.924-3.318-2.394-3.318-2.352 0-3.528 1.974-3.528 4.62V28h-7.644zm35.535.42c-6.594 0-11.592-4.956-11.592-11.13 0-6.216 4.998-11.172 11.592-11.172 2.94 0 5.334.882 7.602 2.688l-4.41 5.292c-.798-.756-1.68-1.26-2.982-1.26-2.478 0-4.074 1.89-4.074 4.452 0 2.604 1.554 4.41 4.242 4.41 1.47 0 2.688-.63 3.612-1.554l3.822 5.628c-2.058 1.722-4.788 2.646-7.812 2.646zm18.032 0c-5.964 0-9.198-4.956-9.198-11.13 0-6.216 3.234-11.172 9.198-11.172 1.722 0 4.578.588 5.838 2.814V6.538h7.224V28h-7.224v-2.394c-1.176 2.184-4.116 2.814-5.838 2.814zm2.016-6.72c2.016 0 3.444-1.806 3.444-4.41 0-2.562-1.428-4.452-3.444-4.452s-3.444 1.89-3.444 4.452c0 2.604 1.428 4.41 3.444 4.41zm23.7 6.3V.364h7.644V28h-7.644zm22.164.42c-6.594 0-11.592-4.956-11.592-11.13 0-6.216 4.998-11.172 11.592-11.172s11.592 4.956 11.592 11.172c0 6.174-4.998 11.13-11.592 11.13zm0-6.72c2.268 0 3.864-1.806 3.864-4.41 0-2.562-1.596-4.452-3.864-4.452s-3.864 1.89-3.864 4.452c0 2.604 1.596 4.41 3.864 4.41zm35.027 6.72c-6.594 0-11.592-4.956-11.592-11.13 0-6.216 4.998-11.172 11.592-11.172 2.94 0 5.334.882 7.602 2.688l-4.41 5.292c-.798-.756-1.68-1.26-2.982-1.26-2.478 0-4.074 1.89-4.074 4.452 0 2.604 1.554 4.41 4.242 4.41 1.47 0 2.688-.63 3.612-1.554l3.822 5.628c-2.058 1.722-4.788 2.646-7.812 2.646zm20.426 0c-6.594 0-11.592-4.956-11.592-11.13 0-6.216 4.998-11.172 11.592-11.172s11.592 4.956 11.592 11.172c0 6.174-4.998 11.13-11.592 11.13zm0-6.72c2.268 0 3.864-1.806 3.864-4.41 0-2.562-1.596-4.452-3.864-4.452s-3.864 1.89-3.864 4.452c0 2.604 1.596 4.41 3.864 4.41zm14.545 6.3V6.538h7.224V8.89c1.596-1.806 4.074-2.772 6.468-2.772 3.444 0 5.292 1.386 6.3 3.318 1.848-2.688 4.704-3.318 6.846-3.318 6.93 0 7.518 5.586 7.518 9.912V28h-7.644V16.912c0-2.562-.714-3.738-2.394-3.738-2.268 0-3.318 2.058-3.318 4.704V28h-7.644V16.912c0-2.562-.714-3.738-2.394-3.738-2.268 0-3.318 2.058-3.318 4.704V28h-7.644zm37.488 6.174V6.538h7.224v2.394c1.722-2.31 4.116-2.814 5.838-2.814 5.964 0 9.198 4.956 9.198 11.13 0 6.216-3.444 11.172-9.45 11.172-1.722 0-3.864-.588-5.166-2.226v7.98h-7.644zM269.344 21.7c2.016 0 3.444-1.806 3.444-4.41 0-2.562-1.428-4.452-3.444-4.452s-3.444 1.89-3.444 4.452c0 2.604 1.428 4.41 3.444 4.41zm22.958 6.72c-5.964 0-9.198-4.956-9.198-11.13 0-6.216 3.234-11.172 9.198-11.172 1.722 0 4.578.588 5.838 2.814V6.538h7.224V28h-7.224v-2.394c-1.176 2.184-4.116 2.814-5.838 2.814zm2.016-6.72c2.016 0 3.444-1.806 3.444-4.41 0-2.562-1.428-4.452-3.444-4.452s-3.444 1.89-3.444 4.452c0 2.604 1.428 4.41 3.444 4.41zm14.389 6.3V6.538h7.434v3.822c.126-.924 1.974-4.242 7.014-4.242v8.316c-5.544 0-6.804 2.31-6.804 6.342V28h-7.644zm26.369.42c-4.116 0-6.804-2.646-6.804-7.35v-8.484h-3.15V6.538h3.15V2.674l7.644-1.89v5.754h4.746v6.048h-4.746v7.896c0 1.008.504 1.344 1.176 1.344.63 0 1.386-.294 1.932-.672l2.058 5.586c-1.848 1.302-4.116 1.68-6.006 1.68zm16.78 0c-5.964 0-9.198-4.956-9.198-11.13 0-6.216 3.234-11.172 9.198-11.172 1.722 0 4.578.588 5.838 2.814V6.538h7.224V28h-7.224v-2.394c-1.176 2.184-4.116 2.814-5.838 2.814zm2.016-6.72c2.016 0 3.444-1.806 3.444-4.41 0-2.562-1.428-4.452-3.444-4.452s-3.444 1.89-3.444 4.452c0 2.604 1.428 4.41 3.444 4.41zm22.286 6.72c-4.914 0-7.644-1.47-8.904-2.562l2.436-5.376c1.68 1.134 3.234 1.806 6.51 1.806.084 0 2.1-.126 2.1-.966 0-.672-1.26-.798-2.52-1.092-4.662-1.134-8.106-3.024-8.106-6.972 0-4.704 4.284-7.14 8.82-7.14 4.158 0 6.636.924 8.694 2.016l-2.268 5.124c-2.478-.966-4.746-1.26-6.174-1.26-.756 0-1.344.252-1.344.672 0 .798 1.806 1.092 3.948 1.68 3.024.882 6.678 2.352 6.678 6.678 0 5.754-5.838 7.392-9.87 7.392zm16.86 0c-2.394 0-4.158-1.806-4.158-4.116 0-2.31 1.764-4.116 4.158-4.116 2.436 0 4.242 1.806 4.242 4.116 0 2.31-1.806 4.116-4.242 4.116z" fill="#0B2E54"/></svg>