<svg width="577" height="38" viewBox="0 0 577 38" fill="none" xmlns="http://www.w3.org/2000/svg"><path d="M.492 31L11.758 3.136h8.428L31.452 31H23.11l-1.29-3.612H10.124L8.834 31H.492zm11.825-9.89h7.31l-3.311-9.417c-.258-.688-.301-.946-.344-1.118 0 0-.086.387-.344 1.118l-3.311 9.417zM33.96 37.321V9.027h7.396v2.451c1.763-2.365 4.214-2.881 5.977-2.881 6.106 0 9.417 5.074 9.417 11.395 0 6.364-3.526 11.438-9.675 11.438-1.763 0-3.956-.602-5.29-2.279v8.17H33.96zM45.226 24.55c2.064 0 3.526-1.849 3.526-4.515 0-2.623-1.462-4.558-3.526-4.558S41.7 17.412 41.7 20.035c0 2.666 1.462 4.515 3.526 4.515zM60.173 31V9.027h7.611v3.913c.13-.946 2.021-4.343 7.181-4.343v8.514c-5.676 0-6.966 2.365-6.966 6.493V31h-7.826zm29.726.43c-6.665 0-12.341-4.171-12.341-11.395 0-6.364 4.945-11.438 11.438-11.438 6.235 0 11.008 5.074 11.008 11.438 0 1.333-.172 2.537-.172 2.537H85.255c.645 2.064 2.58 2.838 4.687 2.838 1.849 0 3.827-.559 5.203-1.333l2.623 5.289c-2.451 1.505-5.16 2.064-7.87 2.064zm-4.86-13.287h7.827c-.258-2.021-1.85-3.397-3.87-3.397-1.935 0-3.483 1.376-3.956 3.397zM103.446 31V9.027h7.396v2.537c2.021-2.365 4.429-2.967 6.622-2.967 5.547 0 7.697 3.268 7.697 9.718V31h-7.826V19.304c0-2.494-.946-3.397-2.451-3.397-2.408 0-3.612 2.021-3.612 4.73V31h-7.826zm34.361.43c-6.106 0-9.417-5.074-9.417-11.395 0-6.364 3.526-11.438 9.675-11.438 1.763 0 3.956.602 5.289 2.279v-8.17h7.826V31h-7.396v-2.451c-1.161 2.236-4.214 2.881-5.977 2.881zm2.064-6.88c2.064 0 3.526-1.849 3.526-4.515 0-2.623-1.462-4.558-3.526-4.558s-3.526 1.935-3.526 4.558c0 2.666 1.462 4.515 3.526 4.515zm27.073 6.88c-6.665 0-12.341-4.171-12.341-11.395 0-6.364 4.945-11.438 11.438-11.438 6.235 0 11.008 5.074 11.008 11.438 0 1.333-.172 2.537-.172 2.537h-14.577c.645 2.064 2.58 2.838 4.687 2.838 1.849 0 3.827-.559 5.203-1.333l2.623 5.289c-2.451 1.505-5.16 2.064-7.869 2.064zm-4.859-13.287h7.826c-.258-2.021-1.849-3.397-3.87-3.397-1.935 0-3.483 1.376-3.956 3.397zm37.354 13.287c-6.106 0-9.417-5.074-9.417-11.395 0-6.364 3.311-11.438 9.417-11.438 1.763 0 4.687.602 5.977 2.881V9.027h7.396V31h-7.396v-2.451c-1.204 2.236-4.214 2.881-5.977 2.881zm2.064-6.88c2.064 0 3.526-1.849 3.526-4.515 0-2.623-1.462-4.558-3.526-4.558s-3.526 1.935-3.526 4.558c0 2.666 1.462 4.515 3.526 4.515zm34.112 6.88c-6.106 0-9.417-5.074-9.417-11.395 0-6.364 3.526-11.438 9.675-11.438 1.763 0 3.956.602 5.289 2.279v-8.17h7.826V31h-7.396v-2.451c-1.161 2.236-4.214 2.881-5.977 2.881zm2.064-6.88c2.064 0 3.526-1.849 3.526-4.515 0-2.623-1.462-4.558-3.526-4.558s-3.526 1.935-3.526 4.558c0 2.666 1.462 4.515 3.526 4.515zm27.073 6.88c-6.665 0-12.341-4.171-12.341-11.395 0-6.364 4.945-11.438 11.438-11.438 6.235 0 11.008 5.074 11.008 11.438 0 1.333-.172 2.537-.172 2.537h-14.577c.645 2.064 2.58 2.838 4.687 2.838 1.849 0 3.827-.559 5.203-1.333l2.623 5.289c-2.451 1.505-5.16 2.064-7.869 2.064zm-4.859-13.287h7.826c-.258-2.021-1.849-3.397-3.87-3.397-1.935 0-3.483 1.376-3.956 3.397zm27.177 13.287c-4.214 0-6.966-2.709-6.966-7.525v-8.686h-3.225V9.027h3.225V5.071l7.826-1.935v5.891h4.859v6.192h-4.859v8.084c0 1.032.516 1.376 1.204 1.376.645 0 1.419-.301 1.978-.688l2.107 5.719c-1.892 1.333-4.214 1.72-6.149 1.72zm20.534 0c-6.665 0-12.341-4.171-12.341-11.395 0-6.364 4.945-11.438 11.438-11.438 6.235 0 11.008 5.074 11.008 11.438 0 1.333-.172 2.537-.172 2.537h-14.577c.645 2.064 2.58 2.838 4.687 2.838 1.849 0 3.827-.559 5.203-1.333l2.623 5.289c-2.451 1.505-5.16 2.064-7.869 2.064zm-4.859-13.287h7.826c-.258-2.021-1.849-3.397-3.87-3.397-1.935 0-3.483 1.376-3.956 3.397zm29.844 13.287c-6.751 0-11.868-5.074-11.868-11.395 0-6.364 5.117-11.438 11.868-11.438 3.01 0 5.461.903 7.783 2.752l-4.515 5.418c-.817-.774-1.72-1.29-3.053-1.29-2.537 0-4.171 1.935-4.171 4.558 0 2.666 1.591 4.515 4.343 4.515 1.505 0 2.752-.645 3.698-1.591l3.913 5.762c-2.107 1.763-4.902 2.709-7.998 2.709zm19.39 0c-4.214 0-6.966-2.709-6.966-7.525v-8.686h-3.225V9.027h3.225V5.071l7.826-1.935v5.891h4.859v6.192h-4.859v8.084c0 1.032.516 1.376 1.204 1.376.645 0 1.419-.301 1.978-.688l2.107 5.719c-1.892 1.333-4.214 1.72-6.149 1.72zm17.609 0c-6.106 0-9.417-5.074-9.417-11.395 0-6.364 3.311-11.438 9.417-11.438 1.763 0 4.687.602 5.977 2.881V9.027h7.396V31h-7.396v-2.451c-1.204 2.236-4.214 2.881-5.977 2.881zm2.064-6.88c2.064 0 3.526-1.849 3.526-4.515 0-2.623-1.462-4.558-3.526-4.558s-3.526 1.935-3.526 4.558c0 2.666 1.462 4.515 3.526 4.515zM386.814 31V9.027h7.611v3.913c.129-.946 2.021-4.343 7.181-4.343v8.514c-5.676 0-6.966 2.365-6.966 6.493V31h-7.826zm39.688.43c-6.665 0-12.341-4.171-12.341-11.395 0-6.364 4.945-11.438 11.438-11.438 6.235 0 11.008 5.074 11.008 11.438 0 1.333-.172 2.537-.172 2.537h-14.577c.645 2.064 2.58 2.838 4.687 2.838 1.849 0 3.827-.559 5.203-1.333l2.623 5.289c-2.451 1.505-5.16 2.064-7.869 2.064zm-4.859-13.287h7.826c-.258-2.021-1.849-3.397-3.87-3.397-1.935 0-3.483 1.376-3.956 3.397zm26.489 13.287c-5.031 0-7.826-1.505-9.116-2.623l2.494-5.504c1.72 1.161 3.311 1.849 6.665 1.849.086 0 2.15-.129 2.15-.989 0-.688-1.29-.817-2.58-1.118-4.773-1.161-8.299-3.096-8.299-7.138 0-4.816 4.386-7.31 9.03-7.31 4.257 0 6.794.946 8.901 2.064l-2.322 5.246c-2.537-.989-4.859-1.29-6.321-1.29-.774 0-1.376.258-1.376.688 0 .817 1.849 1.118 4.042 1.72 3.096.903 6.837 2.408 6.837 6.837 0 5.891-5.977 7.568-10.105 7.568zm21.862 0c-4.214 0-6.966-2.709-6.966-7.525v-8.686h-3.225V9.027h3.225V5.071l7.826-1.935v5.891h4.859v6.192h-4.859v8.084c0 1.032.516 1.376 1.204 1.376.645 0 1.419-.301 1.978-.688l2.107 5.719c-1.892 1.333-4.214 1.72-6.149 1.72zm17.61 0c-6.106 0-9.417-5.074-9.417-11.395 0-6.364 3.311-11.438 9.417-11.438 1.763 0 4.687.602 5.977 2.881V9.027h7.396V31h-7.396v-2.451c-1.204 2.236-4.214 2.881-5.977 2.881zm2.064-6.88c2.064 0 3.526-1.849 3.526-4.515 0-2.623-1.462-4.558-3.526-4.558s-3.526 1.935-3.526 4.558c0 2.666 1.462 4.515 3.526 4.515zM506.12 31V15.391h-3.311V9.199h3.311V7.823c0-4.816 2.752-7.525 6.966-7.525 1.935 0 4.257.301 6.149 1.247l-2.107 5.719c-.559-.215-1.161-.344-1.72-.344-.817 0-1.462.43-1.462 1.806v.473h4.3v6.192h-4.3V31h-7.826zm23.328.43c-6.106 0-9.417-5.074-9.417-11.395 0-6.364 3.311-11.438 9.417-11.438 1.763 0 4.687.602 5.977 2.881V9.027h7.396V31h-7.396v-2.451c-1.204 2.236-4.214 2.881-5.977 2.881zm2.064-6.88c2.064 0 3.526-1.849 3.526-4.515 0-2.623-1.462-4.558-3.526-4.558s-3.526 1.935-3.526 4.558c0 2.666 1.462 4.515 3.526 4.515zm23.246 6.88c-5.031 0-7.826-1.505-9.116-2.623l2.494-5.504c1.72 1.161 3.311 1.849 6.665 1.849.086 0 2.15-.129 2.15-.989 0-.688-1.29-.817-2.58-1.118-4.773-1.161-8.299-3.096-8.299-7.138 0-4.816 4.386-7.31 9.03-7.31 4.257 0 6.794.946 8.901 2.064l-2.322 5.246c-2.537-.989-4.859-1.29-6.321-1.29-.774 0-1.376.258-1.376.688 0 .817 1.849 1.118 4.042 1.72 3.096.903 6.837 2.408 6.837 6.837 0 5.891-5.977 7.568-10.105 7.568zm17.692 0c-2.451 0-4.257-1.849-4.257-4.214s1.806-4.214 4.257-4.214c2.494 0 4.343 1.849 4.343 4.214s-1.849 4.214-4.343 4.214z" fill="#0B2E54"/></svg>