<svg width="597" height="35" viewBox="0 0 597 35" fill="none" xmlns="http://www.w3.org/2000/svg"><path d="M8.632 29.32c-4.096 0-6.592-1.632-8.096-3.232l1.088-1.92c1.664 1.632 3.904 2.816 7.04 2.816 2.688 0 5.504-1.184 5.504-3.744 0-2.368-2.688-3.072-5.344-3.744-3.712-.928-7.424-2.112-7.424-5.952 0-3.712 3.552-5.6 7.264-5.6 2.56 0 4.896.64 6.976 2.304L14.584 12.2c-1.856-1.44-3.936-1.92-5.92-1.92-2.048 0-4.672.96-4.672 3.264 0 2.144 2.368 2.848 5.152 3.552 3.84.96 7.712 2.272 7.712 6.144 0 4.256-4.256 6.08-8.224 6.08zM21.094 29V13.416h2.432V29h-2.432zm1.216-18.368c-.896 0-1.6-.704-1.6-1.6 0-.896.704-1.632 1.6-1.632.896 0 1.632.736 1.632 1.632 0 .896-.736 1.6-1.632 1.6zM41.09 29.32c-2.752 0-4.384-1.344-4.384-4.992v-8.896H34.37v-2.016h2.336v-3.36l2.432-.448v3.808h5.312v2.016h-5.312v8.96c0 2.144.928 2.752 2.176 2.752 1.44 0 2.56-.864 2.56-.864l.8 1.888c-.608.416-1.888 1.152-3.584 1.152zm14.444 0c-4.416 0-8.16-3.168-8.16-8.096 0-4.512 3.392-8.128 7.84-8.128 4.16 0 7.456 3.584 7.456 8.032 0 .448-.064.928-.064.96H49.902c.384 3.104 2.784 5.056 5.664 5.056 1.76 0 3.52-.608 4.8-1.664l1.056 1.792a9.536 9.536 0 01-5.888 2.048zm-5.632-9.088H60.27c-.256-2.88-2.464-4.96-5.184-4.96-2.656 0-4.832 2.048-5.184 4.96zM81.94 29.32c-4.576 0-8.192-3.584-8.192-8.096 0-4.544 3.616-8.128 8.192-8.128 4.576 0 8.192 3.584 8.192 8.128 0 4.512-3.616 8.096-8.192 8.096zm0-2.368c3.232 0 5.696-2.464 5.696-5.728 0-3.296-2.464-5.76-5.696-5.76-3.232 0-5.696 2.464-5.696 5.76 0 3.264 2.464 5.728 5.696 5.728zM94.567 29V15.432H92.04v-2.016h2.527v-1.184c0-3.872 2.049-4.928 4.193-4.928 1.536 0 2.976.576 3.744 1.056l-.8 1.856c-.32-.192-1.248-.768-2.432-.768-1.217 0-2.273.608-2.273 3.04v.928h4.961v2.016H97V29h-2.433zm10.351 0V13.416h2.432v3.296c.896-2.048 2.912-3.616 6.016-3.616v2.656c-3.648 0-6.016 2.048-6.016 5.856V29h-2.432zm19.098.32c-4.416 0-8.16-3.168-8.16-8.096 0-4.512 3.392-8.128 7.84-8.128 4.16 0 7.456 3.584 7.456 8.032 0 .448-.064.928-.064.96h-12.704c.384 3.104 2.784 5.056 5.664 5.056 1.76 0 3.52-.608 4.8-1.664l1.056 1.792a9.536 9.536 0 01-5.888 2.048zm-5.632-9.088h10.368c-.256-2.88-2.464-4.96-5.184-4.96-2.656 0-4.832 2.048-5.184 4.96zm24.428 9.088c-4.576 0-8.192-3.552-8.192-8.096 0-4.544 3.616-8.128 8.192-8.128 2.144 0 4.096.768 5.568 2.08l-1.536 1.728c-.96-.896-2.368-1.44-4-1.44-3.264 0-5.728 2.432-5.728 5.76 0 3.232 2.368 5.728 5.792 5.728 1.76 0 3.36-.672 4.448-1.76l1.408 1.824c-1.504 1.44-3.616 2.304-5.952 2.304zm16.671 0c-4.416 0-8.16-3.168-8.16-8.096 0-4.512 3.392-8.128 7.84-8.128 4.16 0 7.456 3.584 7.456 8.032 0 .448-.064.928-.064.96h-12.704c.384 3.104 2.784 5.056 5.664 5.056 1.76 0 3.52-.608 4.8-1.664l1.056 1.792a9.536 9.536 0 01-5.888 2.048zm-5.632-9.088h10.368c-.256-2.88-2.464-4.96-5.184-4.96-2.656 0-4.832 2.048-5.184 4.96zM170.728 29V13.416h2.432v2.656c1.088-1.888 3.104-2.976 5.408-2.976 3.904 0 5.632 2.368 5.632 6.464V29h-2.432v-9.12c0-2.88-1.056-4.416-3.872-4.416-2.784 0-4.736 2.176-4.736 4.768V29h-2.432zm33.081.32c-4.416 0-8.16-3.168-8.16-8.096 0-4.512 3.392-8.128 7.84-8.128 4.16 0 7.456 3.584 7.456 8.032 0 .448-.064.928-.064.96h-12.704c.384 3.104 2.784 5.056 5.664 5.056 1.76 0 3.52-.608 4.8-1.664l1.056 1.792a9.536 9.536 0 01-5.888 2.048zm-5.632-9.088h10.368c-.256-2.88-2.464-4.96-5.184-4.96-2.656 0-4.832 2.048-5.184 4.96zm29.453 13.28V26.28c-1.152 2.016-3.36 3.04-5.856 3.04-4.32 0-7.36-3.584-7.36-8.128 0-4.544 3.04-8.096 7.36-8.096 2.528 0 4.8.992 5.952 3.008v-2.688h2.336v20.096h-2.432zm-5.312-6.56c2.976 0 5.312-2.496 5.312-5.76s-2.336-5.728-5.312-5.728c-3.104 0-5.408 2.432-5.408 5.728 0 3.328 2.304 5.76 5.408 5.76zm17.878 2.368c-3.84 0-5.664-2.016-5.664-6.176v-9.728h2.432v9.408c0 2.912 1.408 4.128 3.936 4.128 2.816 0 4.448-2.304 4.448-4.704v-8.832h2.432V29h-2.336v-2.752c-.96 2.016-3.2 3.072-5.248 3.072zm12.326-.32V13.416h2.432V29h-2.432zm1.216-18.368c-.896 0-1.6-.704-1.6-1.6 0-.896.704-1.632 1.6-1.632.896 0 1.632.736 1.632 1.632 0 .896-.736 1.6-1.632 1.6zm5.955 22.88V13.416h2.336v2.688c1.152-2.016 3.424-3.008 5.952-3.008 4.32 0 7.36 3.552 7.36 8.096 0 4.544-3.04 8.128-7.36 8.128-2.464 0-4.704-1.024-5.856-3.04v7.232h-2.432zm7.744-6.56c3.104 0 5.408-2.432 5.408-5.76 0-3.296-2.304-5.728-5.408-5.728-2.976 0-5.312 2.464-5.312 5.728s2.336 5.76 5.312 5.76zm19.542 2.368c-4.576 0-8.192-3.584-8.192-8.096 0-4.544 3.616-8.128 8.192-8.128 4.576 0 8.192 3.584 8.192 8.128 0 4.512-3.616 8.096-8.192 8.096zm0-2.368c3.232 0 5.696-2.464 5.696-5.728 0-3.296-2.464-5.76-5.696-5.76-3.232 0-5.696 2.464-5.696 5.76 0 3.264 2.464 5.728 5.696 5.728zM306.863 29V13.416h2.432v2.688c.864-1.696 2.816-3.008 4.992-3.008 2.496 0 4.256 1.088 4.992 3.296 1.12-2.272 3.552-3.296 5.376-3.296 3.744 0 5.728 2.176 5.728 6.464V29h-2.464v-9.12c0-2.656-.928-4.416-3.776-4.416-2.624 0-4.288 2.112-4.288 4.448V29h-2.464v-9.12c0-2.656-.928-4.416-3.744-4.416-2.72 0-4.352 2.304-4.352 4.576V29h-2.432zm33.488-18.08l2.592-4.256h2.656l-3.008 4.256h-2.24zm1.984 18.4c-4.416 0-8.16-3.168-8.16-8.096 0-4.512 3.392-8.128 7.84-8.128 4.16 0 7.456 3.584 7.456 8.032 0 .448-.064.928-.064.96h-12.704c.384 3.104 2.784 5.056 5.664 5.056 1.76 0 3.52-.608 4.8-1.664l1.056 1.792a9.536 9.536 0 01-5.888 2.048zm-5.632-9.088h10.368c-.256-2.88-2.464-4.96-5.184-4.96-2.656 0-4.832 2.048-5.184 4.96zm23.598 9.088c-4.32 0-7.36-3.584-7.36-8.096 0-4.576 3.04-8.128 7.36-8.128 2.496 0 4.704 1.024 5.856 3.04V7.944h2.432V29h-2.336v-2.72c-1.152 2.048-3.424 3.04-5.952 3.04zm.544-2.368c2.976 0 5.312-2.464 5.312-5.728s-2.336-5.76-5.312-5.76c-3.104 0-5.408 2.432-5.408 5.76 0 3.296 2.304 5.728 5.408 5.728zM373.314 29V13.416h2.432V29h-2.432zm1.216-18.368c-.896 0-1.6-.704-1.6-1.6 0-.896.704-1.632 1.6-1.632.896 0 1.632.736 1.632 1.632 0 .896-.736 1.6-1.632 1.6zm13.508 18.688c-4.576 0-8.192-3.552-8.192-8.096 0-4.544 3.616-8.128 8.192-8.128 2.144 0 4.096.768 5.568 2.08l-1.536 1.728c-.96-.896-2.368-1.44-4-1.44-3.264 0-5.728 2.432-5.728 5.76 0 3.232 2.368 5.728 5.792 5.728 1.76 0 3.36-.672 4.448-1.76l1.408 1.824c-1.504 1.44-3.616 2.304-5.952 2.304zm16.702 0c-4.576 0-8.192-3.584-8.192-8.096 0-4.544 3.616-8.128 8.192-8.128 4.576 0 8.192 3.584 8.192 8.128 0 4.512-3.616 8.096-8.192 8.096zm0-2.368c3.232 0 5.696-2.464 5.696-5.728 0-3.296-2.464-5.76-5.696-5.76-3.232 0-5.696 2.464-5.696 5.76 0 3.264 2.464 5.728 5.696 5.728z" fill="#000"/><path d="M434.033 16.118V4.376h5.168v11.742h-5.168zm-8.664 0V4.376h5.168v11.742h-5.168zm30.546 18.468c-3.8 0-6.764-.874-8.512-2.052l2.47-4.332c1.52.988 3.724 1.254 5.282 1.254 2.508 0 3.8-1.14 4.256-2.394.152-.38.228-.76.228-1.14-1.064 1.406-3.154 1.938-4.712 1.938-5.396 0-8.512-4.18-8.512-9.31 0-5.168 3.116-9.348 8.512-9.348 1.558 0 4.028.57 5.092 2.546V9.582h6.536v14.136c0 5.548-2.47 10.868-10.64 10.868zm.646-12.692c1.824 0 3.116-1.368 3.116-3.344 0-1.976-1.292-3.382-3.116-3.382s-3.116 1.406-3.116 3.382c0 1.976 1.292 3.344 3.116 3.344zM470.154 29V9.582h6.726v3.458c.114-.836 1.786-3.838 6.346-3.838v7.524c-5.016 0-6.156 2.09-6.156 5.738V29h-6.916zm24.066.38c-5.396 0-8.322-4.484-8.322-10.07 0-5.624 2.926-10.108 8.322-10.108 1.558 0 4.142.532 5.282 2.546V9.582h6.536V29h-6.536v-2.166c-1.064 1.976-3.724 2.546-5.282 2.546zm1.824-6.08c1.824 0 3.116-1.634 3.116-3.99 0-2.318-1.292-4.028-3.116-4.028s-3.116 1.71-3.116 4.028c0 2.356 1.292 3.99 3.116 3.99zm21.531 6.08c-3.724 0-6.156-2.394-6.156-6.65v-7.676h-2.85V9.582h2.85V6.086l6.916-1.71v5.206h4.294v5.472h-4.294v7.144c0 .912.456 1.216 1.064 1.216.57 0 1.254-.266 1.748-.608l1.862 5.054c-1.672 1.178-3.724 1.52-5.434 1.52zm8-.38V9.582h6.916V29h-6.916zm3.42-20.9c-2.128 0-3.914-1.786-3.914-3.914 0-2.166 1.786-3.952 3.914-3.952 2.204 0 3.99 1.786 3.99 3.952 0 2.128-1.786 3.914-3.99 3.914zm14.429 21.28c-4.446 0-6.916-1.33-8.056-2.318l2.204-4.864c1.52 1.026 2.926 1.634 5.89 1.634.076 0 1.9-.114 1.9-.874 0-.608-1.14-.722-2.28-.988-4.218-1.026-7.334-2.736-7.334-6.308 0-4.256 3.876-6.46 7.98-6.46 3.762 0 6.004.836 7.866 1.824l-2.052 4.636c-2.242-.874-4.294-1.14-5.586-1.14-.684 0-1.216.228-1.216.608 0 .722 1.634.988 3.572 1.52 2.736.798 6.042 2.128 6.042 6.042 0 5.206-5.282 6.688-8.93 6.688zm22.36-13.262V4.376h5.168v11.742h-5.168zm-8.664 0V4.376h5.168v11.742h-5.168zm23.138 13.202c-.96 0-1.664-.768-1.664-1.696 0-.928.736-1.696 1.664-1.696.928 0 1.696.768 1.696 1.696 0 .928-.768 1.696-1.696 1.696zm7.14 0c-.96 0-1.664-.768-1.664-1.696 0-.928.736-1.696 1.664-1.696.928 0 1.696.768 1.696 1.696 0 .928-.768 1.696-1.696 1.696zm7.14 0c-.96 0-1.664-.768-1.664-1.696 0-.928.736-1.696 1.664-1.696.928 0 1.696.768 1.696 1.696 0 .928-.768 1.696-1.696 1.696z" fill="#0B2E54"/></svg>