<svg width="257" height="27" viewBox="0 0 257 27" fill="none" xmlns="http://www.w3.org/2000/svg"><path d="M.678 18.688c0-.438.16-.817.48-1.137.32-.32.703-.48 1.149-.48.445 0 .828.16 1.148.48.32.32.48.703.48 1.148 0 .453-.16.84-.48 1.16a1.562 1.562 0 01-1.148.47c-.461 0-.848-.157-1.16-.47-.313-.312-.47-.703-.47-1.172zm7.406 0c0-.438.16-.817.48-1.137.32-.32.704-.48 1.149-.48.445 0 .828.16 1.148.48.32.32.48.703.48 1.148 0 .453-.16.84-.48 1.16a1.562 1.562 0 01-1.148.47c-.461 0-.848-.157-1.16-.47-.313-.312-.469-.703-.469-1.172zm7.406 0c0-.438.16-.817.48-1.137.321-.32.704-.48 1.15-.48.444 0 .827.16 1.148.48.32.32.48.703.48 1.148 0 .453-.16.84-.48 1.16a1.562 1.562 0 01-1.149.47c-.46 0-.848-.157-1.16-.47-.313-.312-.469-.703-.469-1.172zm6.82-11h4.344V9.2c1.184-1.136 2.512-1.704 3.984-1.704 1.824 0 3.216.768 4.176 2.304.976-1.552 2.368-2.328 4.176-2.328.576 0 1.12.088 1.632.264.512.16.952.424 1.32.792.368.352.656.816.864 1.392.224.576.336 1.272.336 2.088V20h-4.344v-6.072c0-.624-.048-1.136-.144-1.536-.08-.4-.208-.712-.384-.936a1.206 1.206 0 00-.576-.456 2.125 2.125 0 00-.72-.12c-1.392 0-2.088 1.016-2.088 3.048V20h-4.344v-6.072c0-.624-.04-1.136-.12-1.536-.08-.416-.2-.744-.36-.984a1.05 1.05 0 00-.576-.48 2.253 2.253 0 00-.84-.144c-.272 0-.528.04-.768.12-.24.08-.456.24-.648.48-.176.224-.32.544-.432.96-.096.4-.144.928-.144 1.584V20H22.31V7.688zm32.813 4.368c-.144-.608-.44-1.096-.888-1.464-.448-.368-.992-.552-1.632-.552-.672 0-1.224.176-1.656.528-.416.352-.68.848-.792 1.488h4.968zm-5.088 2.52c0 1.872.88 2.808 2.64 2.808.944 0 1.656-.384 2.136-1.152h4.2c-.848 2.816-2.968 4.224-6.36 4.224-1.04 0-1.992-.152-2.856-.456a6.656 6.656 0 01-2.232-1.344 6.015 6.015 0 01-1.416-2.064c-.336-.8-.504-1.696-.504-2.688 0-1.024.16-1.944.48-2.76a5.81 5.81 0 011.368-2.112 5.943 5.943 0 012.136-1.32c.848-.32 1.8-.48 2.856-.48 1.04 0 1.976.16 2.808.48a5.56 5.56 0 012.112 1.344c.576.592 1.016 1.32 1.32 2.184.304.848.456 1.808.456 2.88v.456h-9.144zm11.627-6.888h4.344v1.56c.592-.72 1.192-1.2 1.8-1.44.608-.256 1.32-.384 2.136-.384.864 0 1.6.144 2.208.432a4.281 4.281 0 011.584 1.176c.352.416.592.88.72 1.392a7.25 7.25 0 01.192 1.752V20h-4.344v-6.216c0-.608-.048-1.096-.144-1.464-.08-.384-.232-.688-.456-.912a1.646 1.646 0 00-.648-.408c-.24-.08-.496-.12-.768-.12-.736 0-1.304.224-1.704.672-.384.432-.576 1.056-.576 1.872V20h-4.344V7.688zm24.097 3.168c-.8-.416-1.584-.624-2.352-.624-.4 0-.728.08-.984.24-.24.16-.36.376-.36.648 0 .144.016.264.048.36.048.08.136.16.264.24.144.08.344.152.6.216.272.064.624.144 1.056.24 1.2.24 2.096.672 2.688 1.296.592.608.888 1.392.888 2.352 0 .72-.144 1.368-.432 1.944a4.247 4.247 0 01-1.2 1.464c-.512.384-1.128.68-1.848.888a7.969 7.969 0 01-2.376.336c-1.664 0-3.304-.472-4.92-1.416l1.584-3.072c1.216.832 2.368 1.248 3.456 1.248.4 0 .728-.088.984-.264.256-.176.384-.4.384-.672a.865.865 0 00-.072-.384.512.512 0 00-.24-.288c-.128-.096-.32-.176-.576-.24-.24-.08-.56-.16-.96-.24-1.344-.272-2.288-.672-2.832-1.2-.528-.544-.792-1.288-.792-2.232 0-.688.128-1.304.384-1.848a3.826 3.826 0 011.104-1.416c.48-.384 1.056-.68 1.728-.888a7.856 7.856 0 012.28-.312c1.36 0 2.68.264 3.96.792l-1.464 2.832zm8.083 2.952c0 .4.072.776.216 1.128.144.336.336.632.576.888.256.256.552.456.888.6a2.95 2.95 0 001.128.216c.384 0 .744-.072 1.08-.216a2.49 2.49 0 00.888-.6c.256-.256.456-.552.6-.888.16-.336.24-.696.24-1.08 0-.384-.08-.744-.24-1.08a2.742 2.742 0 00-.6-.912 2.49 2.49 0 00-.888-.6 2.712 2.712 0 00-1.08-.216c-.4 0-.776.072-1.128.216a2.808 2.808 0 00-.888.6c-.24.256-.432.552-.576.888-.144.32-.216.672-.216 1.056zm5.472-6.12h4.368V20h-4.368v-1.368c-.928 1.168-2.184 1.752-3.768 1.752-.896 0-1.72-.16-2.472-.48a6.115 6.115 0 01-1.968-1.392c-.56-.592-1-1.288-1.32-2.088a7.306 7.306 0 01-.456-2.616c0-.88.152-1.712.456-2.496a6.42 6.42 0 011.272-2.088 5.85 5.85 0 011.944-1.392c.752-.352 1.584-.528 2.496-.528 1.536 0 2.808.536 3.816 1.608V7.688zm12.114 0v18.456h-4.344V7.688h4.344zm-4.632-4.728c0-.336.064-.648.192-.936.128-.304.304-.568.528-.792.224-.224.48-.4.768-.528.304-.128.624-.192.96-.192.336 0 .648.064.936.192.304.128.568.304.792.528.224.224.4.488.528.792.128.288.192.6.192.936 0 .336-.064.656-.192.96a2.531 2.531 0 01-.528.768c-.224.224-.488.4-.792.528-.288.128-.6.192-.936.192-.336 0-.656-.064-.96-.192a2.531 2.531 0 01-.768-.528c-.224-.224-.4-.48-.528-.768a2.449 2.449 0 01-.192-.96zm16.6 9.096c-.144-.608-.44-1.096-.888-1.464-.448-.368-.992-.552-1.632-.552-.672 0-1.224.176-1.656.528-.416.352-.68.848-.792 1.488h4.968zm-5.088 2.52c0 1.872.88 2.808 2.64 2.808.944 0 1.656-.384 2.136-1.152h4.2c-.848 2.816-2.968 4.224-6.36 4.224-1.04 0-1.992-.152-2.856-.456a6.656 6.656 0 01-2.232-1.344 6.015 6.015 0 01-1.416-2.064c-.336-.8-.504-1.696-.504-2.688 0-1.024.16-1.944.48-2.76a5.81 5.81 0 011.368-2.112 5.943 5.943 0 012.136-1.32c.848-.32 1.8-.48 2.856-.48 1.04 0 1.976.16 2.808.48a5.56 5.56 0 012.112 1.344c.576.592 1.016 1.32 1.32 2.184.304.848.456 1.808.456 2.88v.456h-9.144zm19.787-3.72c-.8-.416-1.584-.624-2.352-.624-.4 0-.728.08-.984.24-.24.16-.36.376-.36.648 0 .144.016.264.048.36.048.08.136.16.264.24.144.08.344.152.6.216.272.064.624.144 1.056.24 1.2.24 2.096.672 2.688 1.296.592.608.888 1.392.888 2.352 0 .72-.144 1.368-.432 1.944a4.247 4.247 0 01-1.2 1.464c-.512.384-1.128.68-1.848.888a7.969 7.969 0 01-2.376.336c-1.664 0-3.304-.472-4.92-1.416l1.584-3.072c1.216.832 2.368 1.248 3.456 1.248.4 0 .728-.088.984-.264.256-.176.384-.4.384-.672a.865.865 0 00-.072-.384.512.512 0 00-.24-.288c-.128-.096-.32-.176-.576-.24-.24-.08-.56-.16-.96-.24-1.344-.272-2.288-.672-2.832-1.2-.528-.544-.792-1.288-.792-2.232 0-.688.128-1.304.384-1.848a3.826 3.826 0 011.104-1.416c.48-.384 1.056-.68 1.728-.888a7.856 7.856 0 012.28-.312c1.36 0 2.68.264 3.96.792l-1.464 2.832zm16.24 2.952c0 .4.072.776.216 1.128.144.336.336.632.576.888.256.256.552.456.888.6a2.95 2.95 0 001.128.216c.384 0 .744-.072 1.08-.216a2.49 2.49 0 00.888-.6c.256-.256.456-.552.6-.888.16-.336.24-.696.24-1.08 0-.384-.08-.744-.24-1.08a2.742 2.742 0 00-.6-.912 2.49 2.49 0 00-.888-.6 2.712 2.712 0 00-1.08-.216c-.384 0-.752.072-1.104.216a2.808 2.808 0 00-.888.6c-.24.256-.44.552-.6.888-.144.32-.216.672-.216 1.056zM159.807.08h4.368V20h-4.368v-1.368c-.928 1.168-2.184 1.752-3.768 1.752a5.99 5.99 0 01-4.44-1.896c-.56-.592-1-1.288-1.32-2.088a7.237 7.237 0 01-.456-2.592c0-.88.144-1.712.432-2.496a6.42 6.42 0 011.272-2.088 5.85 5.85 0 011.944-1.392 5.975 5.975 0 012.52-.528c1.536 0 2.808.536 3.816 1.608V.08zm16.324 11.976c-.144-.608-.44-1.096-.888-1.464-.448-.368-.992-.552-1.632-.552-.672 0-1.224.176-1.656.528-.416.352-.68.848-.792 1.488h4.968zm-5.088 2.52c0 1.872.88 2.808 2.64 2.808.944 0 1.656-.384 2.136-1.152h4.2c-.848 2.816-2.968 4.224-6.36 4.224-1.04 0-1.992-.152-2.856-.456a6.656 6.656 0 01-2.232-1.344 6.015 6.015 0 01-1.416-2.064c-.336-.8-.504-1.696-.504-2.688 0-1.024.16-1.944.48-2.76a5.81 5.81 0 011.368-2.112 5.943 5.943 0 012.136-1.32c.848-.32 1.8-.48 2.856-.48 1.04 0 1.976.16 2.808.48a5.56 5.56 0 012.112 1.344c.576.592 1.016 1.32 1.32 2.184.304.848.456 1.808.456 2.88v.456h-9.144zm24.631-3.264V20h-4.344v-8.688h-1.44V7.688h1.44V3.992h4.344v3.696h2.472v3.624h-2.472zm13.339.744c-.144-.608-.44-1.096-.888-1.464-.448-.368-.992-.552-1.632-.552-.672 0-1.224.176-1.656.528-.416.352-.68.848-.792 1.488h4.968zm-5.088 2.52c0 1.872.88 2.808 2.64 2.808.944 0 1.656-.384 2.136-1.152h4.2c-.848 2.816-2.968 4.224-6.36 4.224-1.04 0-1.992-.152-2.856-.456a6.656 6.656 0 01-2.232-1.344 6.015 6.015 0 01-1.416-2.064c-.336-.8-.504-1.696-.504-2.688 0-1.024.16-1.944.48-2.76a5.81 5.81 0 011.368-2.112 5.943 5.943 0 012.136-1.32c.848-.32 1.8-.48 2.856-.48 1.04 0 1.976.16 2.808.48a5.56 5.56 0 012.112 1.344c.576.592 1.016 1.32 1.32 2.184.304.848.456 1.808.456 2.88v.456h-9.144zm15.627-1.248l-4.992-5.64h5.664l2.112 2.544 2.16-2.544h5.664l-5.112 5.64L231.216 20h-5.76l-3.144-3.648L219.144 20h-5.736l6.144-6.672zm18.005-2.016V20h-4.344v-8.688h-1.44V7.688h1.44V3.992h4.344v3.696h2.472v3.624h-2.472zm8.42 2.472c0 .416.072.8.216 1.152.16.336.36.632.6.888.256.256.552.456.888.6.352.144.72.216 1.104.216.384 0 .744-.072 1.08-.216a2.49 2.49 0 00.888-.6c.256-.256.456-.552.6-.888.16-.352.24-.728.24-1.128 0-.384-.08-.744-.24-1.08a2.742 2.742 0 00-.6-.912 2.49 2.49 0 00-.888-.6 2.712 2.712 0 00-1.08-.216c-.384 0-.752.072-1.104.216a2.808 2.808 0 00-.888.6c-.24.256-.44.552-.6.888a2.712 2.712 0 00-.216 1.08zm-4.584-.048c0-.912.184-1.76.552-2.544.368-.8.88-1.488 1.536-2.064a7.214 7.214 0 012.328-1.392c.912-.336 1.904-.504 2.976-.504 1.056 0 2.032.168 2.928.504.912.32 1.696.776 2.352 1.368a5.921 5.921 0 011.56 2.088c.368.8.552 1.688.552 2.664 0 .976-.192 1.872-.576 2.688-.368.8-.88 1.496-1.536 2.088-.656.576-1.448 1.024-2.376 1.344-.912.32-1.904.48-2.976.48-1.056 0-2.032-.16-2.928-.48a6.89 6.89 0 01-2.328-1.368 6.463 6.463 0 01-1.512-2.112c-.368-.832-.552-1.752-.552-2.76z" fill="#fff"/></svg>