<svg width="670" height="45" viewBox="0 0 670 45" fill="none" xmlns="http://www.w3.org/2000/svg"><path d="M8 17.68h2.6c2.88 0 4.32-1.253 4.32-3.76 0-2.507-1.44-3.76-4.32-3.76H8v7.52zM8 34H.16V3.84h12.48c3.387 0 5.973.88 7.76 2.64 1.813 1.76 2.72 4.24 2.72 7.44s-.907 5.68-2.72 7.44C18.613 23.12 16.027 24 12.64 24H8v10zm18.59-20.52h7.24v3.36c.773-1.227 1.72-2.16 2.84-2.8 1.12-.667 2.426-1 3.92-1h.6c.24 0 .506.027.8.08v6.92c-.96-.48-2-.72-3.12-.72-1.68 0-2.947.507-3.8 1.52-.827.987-1.24 2.44-1.24 4.36V34h-7.24V13.48zm25.628 10.16c0 .693.12 1.333.36 1.92.267.56.6 1.053 1 1.48.427.427.92.76 1.48 1 .587.24 1.2.36 1.84.36.64 0 1.24-.12 1.8-.36a4.15 4.15 0 001.48-1 4.68 4.68 0 001-1.48 4.49 4.49 0 00.4-1.88c0-.64-.133-1.24-.4-1.8a4.57 4.57 0 00-1-1.52 4.15 4.15 0 00-1.48-1 4.52 4.52 0 00-1.8-.36c-.64 0-1.253.12-1.84.36a4.68 4.68 0 00-1.48 1c-.4.427-.733.92-1 1.48a4.52 4.52 0 00-.36 1.8zm-7.64-.08c0-1.52.307-2.933.92-4.24a10.197 10.197 0 012.56-3.44c1.094-.987 2.387-1.76 3.88-2.32 1.52-.56 3.174-.84 4.96-.84 1.76 0 3.387.28 4.88.84 1.52.533 2.827 1.293 3.92 2.28a9.868 9.868 0 012.6 3.48c.614 1.333.92 2.813.92 4.44 0 1.627-.32 3.12-.96 4.48a10.618 10.618 0 01-2.56 3.48c-1.093.96-2.413 1.707-3.96 2.24-1.52.533-3.173.8-4.96.8-1.76 0-3.386-.267-4.88-.8-1.493-.533-2.786-1.293-3.88-2.28a10.773 10.773 0 01-2.52-3.52c-.613-1.387-.92-2.92-.92-4.6zm37.005-4.04V34h-7.24V19.52h-2.4v-6.04h2.4V7.32h7.24v6.16h4.12v6.04h-4.12zm22.233 1.24c-.24-1.013-.733-1.827-1.48-2.44s-1.653-.92-2.72-.92c-1.12 0-2.04.293-2.76.88-.693.587-1.133 1.413-1.32 2.48h8.28zm-8.48 4.2c0 3.12 1.467 4.68 4.4 4.68 1.573 0 2.76-.64 3.56-1.92h7c-1.413 4.693-4.947 7.04-10.6 7.04-1.733 0-3.32-.253-4.76-.76-1.44-.533-2.68-1.28-3.72-2.24a10.026 10.026 0 01-2.36-3.44c-.56-1.333-.84-2.827-.84-4.48 0-1.707.267-3.24.8-4.6.533-1.387 1.293-2.56 2.28-3.52.987-.96 2.173-1.693 3.56-2.2 1.413-.533 3-.8 4.76-.8 1.733 0 3.293.267 4.68.8 1.387.507 2.56 1.253 3.52 2.24.96.987 1.693 2.2 2.2 3.64.507 1.413.76 3.013.76 4.8v.76h-15.24zm26.098-1.32c0 .667.12 1.293.36 1.88.24.56.56 1.053.96 1.48.427.427.92.76 1.48 1a4.92 4.92 0 001.88.36c.64 0 1.24-.12 1.8-.36a4.147 4.147 0 001.48-1c.427-.427.76-.92 1-1.48.267-.587.4-1.2.4-1.84a4.22 4.22 0 00-.4-1.84 4.675 4.675 0 00-1-1.48 4.559 4.559 0 00-1.52-1 4.42 4.42 0 00-1.76-.36c-.64 0-1.24.133-1.8.4-.56.24-1.053.573-1.48 1-.426.4-.773.88-1.04 1.44a4.52 4.52 0 00-.36 1.8zm16.24-10.16V32.6c0 1.147-.066 2.173-.2 3.08-.133.907-.32 1.707-.56 2.4-.32.88-.826 1.693-1.52 2.44a9.505 9.505 0 01-2.44 2c-.96.56-2.053 1-3.28 1.32-1.2.32-2.506.48-3.92.48-1.6 0-3.066-.2-4.4-.6-1.333-.4-2.506-.96-3.52-1.68a9.383 9.383 0 01-2.44-2.48 8.061 8.061 0 01-1.28-3.08h8.16c.507 1.36 1.654 2.04 3.44 2.04 1.52 0 2.68-.427 3.48-1.28.827-.853 1.24-2.04 1.24-3.56v-1.96c-.533.507-1.053.933-1.56 1.28a8.86 8.86 0 01-1.48.8c-.506.213-1.04.36-1.6.44-.56.107-1.173.16-1.84.16-1.466 0-2.813-.253-4.04-.76a9.732 9.732 0 01-3.2-2.12c-.88-.907-1.573-1.987-2.08-3.24-.48-1.28-.72-2.693-.72-4.24 0-1.573.267-3.027.8-4.36.534-1.36 1.254-2.533 2.16-3.52a9.924 9.924 0 013.28-2.36c1.28-.587 2.667-.88 4.16-.88 2.427 0 4.467.907 6.12 2.72v-2.16h7.24zm20.4 7.28c-.24-1.013-.734-1.827-1.48-2.44-.747-.613-1.654-.92-2.72-.92-1.12 0-2.04.293-2.76.88-.694.587-1.134 1.413-1.32 2.48h8.28zm-8.48 4.2c0 3.12 1.466 4.68 4.4 4.68 1.573 0 2.76-.64 3.56-1.92h7c-1.414 4.693-4.947 7.04-10.6 7.04-1.734 0-3.32-.253-4.76-.76-1.44-.533-2.68-1.28-3.72-2.24a10.016 10.016 0 01-2.36-3.44c-.56-1.333-.84-2.827-.84-4.48 0-1.707.266-3.24.8-4.6.533-1.387 1.293-2.56 2.28-3.52.986-.96 2.173-1.693 3.56-2.2 1.413-.533 3-.8 4.76-.8 1.733 0 3.293.267 4.68.8 1.386.507 2.56 1.253 3.52 2.24.96.987 1.693 2.2 2.2 3.64.506 1.413.76 3.013.76 4.8v.76h-15.24zm37.797-5.882V34h-4.395V19.078h-1.875v-4.101h1.875V8.004h4.395v6.973h3.418v4.101h-3.418zm10.8-4.101v10.918c0 3.15 1.244 4.726 3.731 4.726s3.73-1.575 3.73-4.726V14.977h4.395v11.015c0 1.524-.189 2.839-.567 3.945-.364.99-.996 1.882-1.894 2.676-1.484 1.29-3.372 1.934-5.664 1.934-2.279 0-4.16-.645-5.645-1.934-.911-.794-1.556-1.686-1.933-2.675-.365-.886-.547-2.201-.547-3.946V14.977h4.394zm29.747 0h4.414v1.757c1.536-1.523 3.268-2.285 5.195-2.285 2.213 0 3.939.697 5.176 2.09 1.067 1.185 1.601 3.119 1.601 5.8V34h-4.414V23.375c0-1.875-.26-3.17-.781-3.887-.508-.729-1.432-1.093-2.774-1.093-1.458 0-2.493.481-3.105 1.445-.599.95-.898 2.61-.898 4.98V34h-4.414V14.977zm26.347 0v10.918c0 3.15 1.244 4.726 3.731 4.726s3.73-1.575 3.73-4.726V14.977h4.395v11.015c0 1.524-.189 2.839-.567 3.945-.364.99-.996 1.882-1.894 2.676-1.485 1.29-3.373 1.934-5.664 1.934-2.279 0-4.161-.645-5.645-1.934-.911-.794-1.556-1.686-1.933-2.675-.365-.886-.547-2.201-.547-3.946V14.977h4.394zm10.625-9.375l-7.109 6.445-2.403-1.485 5.372-7.109 4.14 2.149zm6.778 9.375h4.394v1.757c.846-.885 1.569-1.484 2.168-1.797.638-.325 1.439-.488 2.402-.488 2.149 0 3.848.938 5.098 2.813 1.38-1.875 3.249-2.813 5.605-2.813 4.284 0 6.426 2.598 6.426 7.793V34h-4.414V23.434c0-1.823-.221-3.112-.664-3.868-.456-.768-1.204-1.152-2.246-1.152-1.211 0-2.096.456-2.656 1.367-.547.912-.821 2.377-.821 4.395V34h-4.414V23.492c0-3.385-.976-5.078-2.929-5.078-1.237 0-2.142.462-2.715 1.387-.56.924-.84 2.383-.84 4.375V34h-4.394V14.977zm48.964 10.546H307.02c.117 1.563.625 2.806 1.523 3.73.898.912 2.051 1.368 3.457 1.368 1.094 0 1.999-.26 2.715-.781.703-.521 1.504-1.485 2.402-2.89l3.711 2.07c-.573.976-1.178 1.816-1.816 2.52a10.064 10.064 0 01-2.051 1.718 8.39 8.39 0 01-2.363.976c-.847.209-1.765.313-2.754.313-2.839 0-5.117-.912-6.836-2.734-1.719-1.836-2.578-4.271-2.578-7.305 0-3.008.833-5.443 2.5-7.305 1.679-1.836 3.906-2.754 6.679-2.754 2.8 0 5.013.892 6.641 2.676 1.615 1.77 2.422 4.225 2.422 7.363l-.02 1.035zm-4.511-3.593c-.612-2.344-2.09-3.516-4.434-3.516-.534 0-1.035.085-1.504.254a4.15 4.15 0 00-1.289.703c-.378.3-.703.664-.976 1.094-.274.43-.482.918-.626 1.465h8.829zm9.336-6.953h4.394v1.699c.807-.847 1.524-1.426 2.149-1.738.638-.326 1.393-.489 2.265-.489 1.159 0 2.37.378 3.633 1.133l-2.012 4.023c-.833-.599-1.647-.898-2.441-.898-2.396 0-3.594 1.81-3.594 5.43V34h-4.394V14.977zm13.711 9.375c0-2.748.983-5.085 2.949-7.012 1.966-1.927 4.362-2.89 7.187-2.89 2.839 0 5.248.97 7.227 2.91 1.953 1.94 2.929 4.322 2.929 7.148 0 2.851-.983 5.24-2.949 7.168-1.979 1.914-4.407 2.87-7.285 2.87-2.851 0-5.241-.976-7.168-2.929-1.927-1.927-2.89-4.349-2.89-7.265zm4.492.078c0 1.9.508 3.405 1.523 4.511 1.042 1.12 2.415 1.68 4.121 1.68 1.719 0 3.093-.553 4.121-1.66 1.029-1.107 1.543-2.585 1.543-4.434 0-1.849-.514-3.326-1.543-4.433-1.041-1.12-2.415-1.68-4.121-1.68-1.679 0-3.04.56-4.082 1.68-1.041 1.12-1.562 2.565-1.562 4.336zm46.836-23.418h4.414V34h-4.414v-1.992c-1.732 1.692-3.692 2.539-5.879 2.539-2.604 0-4.766-.95-6.485-2.852-1.705-1.94-2.558-4.362-2.558-7.265 0-2.839.853-5.209 2.558-7.11 1.693-1.914 3.822-2.87 6.387-2.87 2.227 0 4.219.91 5.977 2.734V1.012zm-10.43 23.418c0 1.823.488 3.307 1.465 4.453 1.002 1.159 2.265 1.738 3.789 1.738 1.627 0 2.943-.56 3.945-1.68 1.003-1.158 1.504-2.63 1.504-4.414 0-1.784-.501-3.255-1.504-4.414-1.002-1.133-2.305-1.699-3.906-1.699-1.511 0-2.774.573-3.789 1.719-1.003 1.159-1.504 2.591-1.504 4.297zm37.715 1.093h-13.633c.117 1.563.625 2.806 1.523 3.73.899.912 2.051 1.368 3.457 1.368 1.094 0 1.999-.26 2.715-.781.703-.521 1.504-1.485 2.403-2.89l3.711 2.07c-.573.976-1.179 1.816-1.817 2.52a10.037 10.037 0 01-2.051 1.718 8.39 8.39 0 01-2.363.976c-.846.209-1.764.313-2.754.313-2.838 0-5.117-.912-6.836-2.734-1.718-1.836-2.578-4.271-2.578-7.305 0-3.008.833-5.443 2.5-7.305 1.68-1.836 3.906-2.754 6.68-2.754 2.799 0 5.013.892 6.64 2.676 1.615 1.77 2.422 4.225 2.422 7.363l-.019 1.035zm-4.512-3.593c-.612-2.344-2.09-3.516-4.434-3.516-.533 0-1.035.085-1.503.254-.469.156-.899.39-1.29.703-.377.3-.703.664-.976 1.094-.274.43-.482.918-.625 1.465h8.828zM433.995 34l5.12-30.16h7.76l6.04 16.08 6-16.08h7.76l5.12 30.16h-7.8l-2.6-17.36-7.12 17.36h-3.12l-6.76-17.36-2.6 17.36h-7.8zm55.993-13.24c-.24-1.013-.734-1.827-1.48-2.44-.747-.613-1.654-.92-2.72-.92-1.12 0-2.04.293-2.76.88-.694.587-1.134 1.413-1.32 2.48h8.28zm-8.48 4.2c0 3.12 1.466 4.68 4.4 4.68 1.573 0 2.76-.64 3.56-1.92h7c-1.414 4.693-4.947 7.04-10.6 7.04-1.734 0-3.32-.253-4.76-.76-1.44-.533-2.68-1.28-3.72-2.24a10.016 10.016 0 01-2.36-3.44c-.56-1.333-.84-2.827-.84-4.48 0-1.707.266-3.24.8-4.6.533-1.387 1.293-2.56 2.28-3.52.986-.96 2.173-1.693 3.56-2.2 1.413-.533 3-.8 4.76-.8 1.733 0 3.293.267 4.68.8 1.386.507 2.56 1.253 3.52 2.24.96.987 1.693 2.2 2.2 3.64.506 1.413.76 3.013.76 4.8v.76h-15.24zm26.098-1.28c0 .667.12 1.293.36 1.88.24.56.56 1.053.96 1.48.427.427.92.76 1.48 1a4.92 4.92 0 001.88.36c.64 0 1.24-.12 1.8-.36a4.147 4.147 0 001.48-1c.427-.427.76-.92 1-1.48.267-.56.4-1.16.4-1.8 0-.64-.133-1.24-.4-1.8a4.564 4.564 0 00-1-1.52c-.4-.427-.893-.76-1.48-1a4.52 4.52 0 00-1.8-.36c-.64 0-1.253.12-1.84.36-.56.24-1.053.573-1.48 1-.4.427-.733.92-1 1.48a4.24 4.24 0 00-.36 1.76zM516.726.8h7.28V34h-7.28v-2.28c-1.546 1.947-3.64 2.92-6.28 2.92-1.493 0-2.866-.28-4.12-.84a10.202 10.202 0 01-3.28-2.32 10.91 10.91 0 01-2.2-3.48c-.506-1.333-.76-2.773-.76-4.32 0-1.467.24-2.853.72-4.16.507-1.333 1.214-2.493 2.12-3.48a9.755 9.755 0 013.24-2.32c1.28-.587 2.68-.88 4.2-.88 2.56 0 4.68.893 6.36 2.68V.8zm19.447 12.68V34h-7.24V13.48h7.24zm-7.72-7.88c0-.56.107-1.08.32-1.56a4.09 4.09 0 01.88-1.32c.373-.373.8-.667 1.28-.88a4.083 4.083 0 011.6-.32c.56 0 1.08.107 1.56.32.507.213.947.507 1.32.88.373.373.667.813.88 1.32.213.48.32 1 .32 1.56s-.107 1.093-.32 1.6c-.213.48-.507.907-.88 1.28a4.082 4.082 0 01-1.32.88c-.48.213-1 .32-1.56.32s-1.093-.107-1.6-.32a4.215 4.215 0 01-1.28-.88 4.219 4.219 0 01-.88-1.28 4.087 4.087 0 01-.32-1.6zm28.148 14.52c-1.254-.853-2.52-1.28-3.8-1.28-.694 0-1.347.12-1.96.36a4.7 4.7 0 00-1.56 1.04 4.649 4.649 0 00-1.08 1.56c-.24.587-.36 1.253-.36 2 0 .72.12 1.387.36 2a5.673 5.673 0 001.04 1.56c.453.427.986.76 1.6 1 .613.24 1.266.36 1.96.36 1.36 0 2.626-.467 3.8-1.4v6.16c-1.787.773-3.48 1.16-5.08 1.16-1.494 0-2.92-.253-4.28-.76a11.271 11.271 0 01-3.56-2.16 11.156 11.156 0 01-2.44-3.4c-.614-1.333-.92-2.813-.92-4.44 0-1.627.293-3.107.88-4.44.586-1.36 1.386-2.52 2.4-3.48 1.013-.987 2.213-1.747 3.6-2.28 1.413-.56 2.92-.84 4.52-.84 1.76 0 3.386.373 4.88 1.12v6.16zm10.849 3.56c0 .667.12 1.293.36 1.88.24.56.56 1.053.96 1.48.427.427.92.76 1.48 1 .587.24 1.213.36 1.88.36.64 0 1.24-.12 1.8-.36a4.147 4.147 0 001.48-1c.427-.427.76-.92 1-1.48.267-.56.4-1.16.4-1.8 0-.64-.133-1.24-.4-1.8a4.564 4.564 0 00-1-1.52c-.4-.427-.893-.76-1.48-1a4.52 4.52 0 00-1.8-.36c-.667 0-1.293.12-1.88.36-.56.24-1.053.573-1.48 1-.4.427-.72.92-.96 1.48a4.24 4.24 0 00-.36 1.76zm9.12-10.2h7.28V34h-7.28v-2.28c-1.547 1.947-3.64 2.92-6.28 2.92-1.493 0-2.867-.267-4.12-.8a10.191 10.191 0 01-3.28-2.32 10.893 10.893 0 01-2.2-3.48c-.507-1.333-.76-2.787-.76-4.36 0-1.467.253-2.853.76-4.16.507-1.333 1.213-2.493 2.12-3.48a9.755 9.755 0 013.24-2.32c1.253-.587 2.64-.88 4.16-.88 2.56 0 4.68.893 6.36 2.68v-2.04zm12.207 0h7.24v3.36c.773-1.227 1.72-2.16 2.84-2.8 1.12-.667 2.427-1 3.92-1h.6c.24 0 .507.027.8.08v6.92c-.96-.48-2-.72-3.12-.72-1.68 0-2.947.507-3.8 1.52-.827.987-1.24 2.44-1.24 4.36V34h-7.24V13.48zm33.867 7.28c-.24-1.013-.733-1.827-1.48-2.44s-1.653-.92-2.72-.92c-1.12 0-2.04.293-2.76.88-.693.587-1.133 1.413-1.32 2.48h8.28zm-8.48 4.2c0 3.12 1.467 4.68 4.4 4.68 1.573 0 2.76-.64 3.56-1.92h7c-1.413 4.693-4.947 7.04-10.6 7.04-1.733 0-3.32-.253-4.76-.76-1.44-.533-2.68-1.28-3.72-2.24a10.03 10.03 0 01-2.36-3.44c-.56-1.333-.84-2.827-.84-4.48 0-1.707.267-3.24.8-4.6.533-1.387 1.293-2.56 2.28-3.52.987-.96 2.173-1.693 3.56-2.2 1.413-.533 3-.8 4.76-.8 1.733 0 3.293.267 4.68.8 1.387.507 2.56 1.253 3.52 2.24.96.987 1.693 2.2 2.2 3.64.507 1.413.76 3.013.76 4.8v.76h-15.24zm19.019 5.2c0-.64.12-1.24.36-1.8a4.564 4.564 0 011-1.52c.426-.427.92-.76 1.48-1 .586-.24 1.2-.36 1.84-.36.64 0 1.24.12 1.8.36a4.58 4.58 0 011.52 1c.426.427.76.933 1 1.52.24.56.36 1.16.36 1.8 0 .64-.12 1.253-.36 1.84a4.692 4.692 0 01-1 1.48 4.58 4.58 0 01-1.52 1c-.56.24-1.16.36-1.8.36-.64 0-1.254-.12-1.84-.36a4.672 4.672 0 01-1.48-1 4.675 4.675 0 01-1-1.48c-.24-.587-.36-1.2-.36-1.84zm13.593 0c0-.64.12-1.24.36-1.8a4.58 4.58 0 011-1.52c.427-.427.92-.76 1.48-1 .587-.24 1.2-.36 1.84-.36.64 0 1.24.12 1.8.36.587.24 1.094.573 1.52 1 .427.427.76.933 1 1.52.24.56.36 1.16.36 1.8 0 .64-.12 1.253-.36 1.84a4.675 4.675 0 01-1 1.48c-.426.427-.933.76-1.52 1-.56.24-1.16.36-1.8.36-.64 0-1.253-.12-1.84-.36a4.684 4.684 0 01-2.48-2.48c-.24-.587-.36-1.2-.36-1.84zm13.594 0c0-.64.12-1.24.36-1.8a4.564 4.564 0 011-1.52c.427-.427.92-.76 1.48-1 .587-.24 1.2-.36 1.84-.36.64 0 1.24.12 1.8.36a4.57 4.57 0 011.52 1c.427.427.76.933 1 1.52.24.56.36 1.16.36 1.8 0 .64-.12 1.253-.36 1.84a4.675 4.675 0 01-1 1.48 4.57 4.57 0 01-1.52 1c-.56.24-1.16.36-1.8.36-.64 0-1.253-.12-1.84-.36a4.684 4.684 0 01-2.48-2.48c-.24-.587-.36-1.2-.36-1.84z" fill="#66124B"/></svg>