<svg width="280" height="42" viewBox="0 0 280 42" fill="none" xmlns="http://www.w3.org/2000/svg"><path fill="#FCD77D" d="M74 21.188h64v7.063H74z"/><path d="M1.21 24V9.744h11.33v3.542H5.39v1.738h6.864v3.498H5.39v1.936h7.414V24H1.21zm17.062.22c-2.574 0-4.004-.77-4.664-1.342l1.276-2.816c.88.594 1.694.946 3.41.946.044 0 1.1-.066 1.1-.506 0-.352-.66-.418-1.32-.572-2.442-.594-4.246-1.584-4.246-3.652 0-2.464 2.244-3.74 4.62-3.74 2.178 0 3.476.484 4.554 1.056l-1.188 2.684c-1.298-.506-2.486-.66-3.234-.66-.396 0-.704.132-.704.352 0 .418.946.572 2.068.88 1.584.462 3.498 1.232 3.498 3.498 0 3.014-3.058 3.872-5.17 3.872zm15.336 0c-3.388 0-4.092-2.112-4.092-4.972v-6.49h4.004v5.984c0 1.188.396 1.738 1.452 1.738 1.21 0 1.65-1.034 1.65-2.42v-5.302h4.004V24h-3.784v-1.232c-.616.792-2.068 1.452-3.234 1.452zm8.78-.22V12.758h3.784v1.298c1.034-1.21 2.266-1.518 3.388-1.518 2.838 0 3.938 1.672 3.938 4.972V24h-4.004v-5.984c0-1.276-.484-1.738-1.254-1.738-1.232 0-1.848 1.034-1.848 2.42V24h-4.004zm17.36.22c-3.124 0-4.819-2.596-4.819-5.83 0-3.256 1.694-5.852 4.819-5.852.902 0 2.398.308 3.058 1.474v-1.254h3.784V24h-3.785v-1.254c-.615 1.144-2.155 1.474-3.057 1.474zm1.056-3.52c1.055 0 1.803-.946 1.803-2.31 0-1.342-.748-2.332-1.803-2.332-1.056 0-1.805.99-1.805 2.332 0 1.364.748 2.31 1.804 2.31zm18.508 3.52c-3.41 0-6.314-2.134-6.314-5.83 0-3.256 2.53-5.852 5.852-5.852 3.19 0 5.632 2.596 5.632 5.852 0 .682-.088 1.298-.088 1.298h-7.458c.33 1.056 1.32 1.452 2.398 1.452.946 0 1.958-.286 2.662-.682l1.342 2.706c-1.254.77-2.64 1.056-4.026 1.056zm-2.486-6.798h4.004c-.132-1.034-.946-1.738-1.98-1.738-.99 0-1.782.704-2.024 1.738zm13.333 6.798c-2.574 0-4.004-.77-4.664-1.342l1.276-2.816c.88.594 1.694.946 3.41.946.044 0 1.1-.066 1.1-.506 0-.352-.66-.418-1.32-.572-2.442-.594-4.246-1.584-4.246-3.652 0-2.464 2.244-3.74 4.62-3.74 2.178 0 3.476.484 4.554 1.056L93.7 16.278c-1.298-.506-2.486-.66-3.234-.66-.396 0-.704.132-.704.352 0 .418.946.572 2.068.88 1.584.462 3.498 1.232 3.498 3.498 0 3.014-3.058 3.872-5.17 3.872zm10.965 0c-2.156 0-3.564-1.386-3.564-3.85v-4.444h-1.65v-3.168h1.65v-2.024l4.004-.99v3.014h2.486v3.168h-2.486v4.136c0 .528.264.704.616.704.33 0 .726-.154 1.012-.352l1.078 2.926c-.968.682-2.156.88-3.146.88zm8.79 0c-3.124 0-4.818-2.596-4.818-5.83 0-3.256 1.694-5.852 4.818-5.852.902 0 2.398.308 3.058 1.474v-1.254h3.784V24h-3.784v-1.254c-.616 1.144-2.156 1.474-3.058 1.474zm1.056-3.52c1.056 0 1.804-.946 1.804-2.31 0-1.342-.748-2.332-1.804-2.332s-1.804.99-1.804 2.332c0 1.364.748 2.31 1.804 2.31zm8.197 3.3v-7.986h-1.694v-3.168h1.694v-.704c0-2.464 1.408-3.85 3.564-3.85.99 0 2.178.154 3.146.638l-1.078 2.926a2.508 2.508 0 00-.88-.176c-.418 0-.748.22-.748.924v.242h2.2v3.168h-2.2V24h-4.004zm11.715.22c-3.124 0-4.818-2.596-4.818-5.83 0-3.256 1.694-5.852 4.818-5.852.902 0 2.398.308 3.058 1.474v-1.254h3.784V24h-3.784v-1.254c-.616 1.144-2.156 1.474-3.058 1.474zm1.056-3.52c1.056 0 1.804-.946 1.804-2.31 0-1.342-.748-2.332-1.804-2.332s-1.804.99-1.804 2.332c0 1.364.748 2.31 1.804 2.31zm9.892 3.52c-1.254 0-2.178-.946-2.178-2.156 0-1.21.924-2.156 2.178-2.156 1.276 0 2.222.946 2.222 2.156 0 1.21-.946 2.156-2.222 2.156z" fill="#42443C"/></svg>