<svg width="198" height="26" viewBox="0 0 198 26" fill="none" xmlns="http://www.w3.org/2000/svg"><path d="M3.612 13.212c-1.89 0-3.024-1.274-3.024-2.842 0-1.302.91-2.366 2.184-2.59l.154-.896h1.526l.21 1.89c-1.428 0-2.212.588-2.212 1.484 0 .644.546 1.176 1.246 1.176.532 0 .994-.28 1.246-.784l1.526.7c-.462 1.176-1.512 1.862-2.856 1.862zm.084-7.154c-.63 0-1.12-.504-1.12-1.106 0-.616.49-1.106 1.12-1.106.63 0 1.092.49 1.092 1.106 0 .602-.476 1.106-1.092 1.106zM7.363 11V1.928h7.098v1.68H9.323v1.848h4.872v1.666H9.323V9.32h5.334V11H7.363zm13.431 2.016v-2.814c-.504.616-1.302.938-2.114.938-1.932 0-3.192-1.624-3.192-3.654 0-2.002 1.232-3.626 3.164-3.626.84 0 1.722.308 2.24.98V4h1.778v9.016h-1.876zm-1.666-3.612c.966 0 1.666-.798 1.666-1.904 0-1.12-.7-1.904-1.666-1.904-1.008 0-1.736.798-1.736 1.904 0 1.106.728 1.904 1.736 1.904zm7.415 1.736c-1.932 0-2.548-1.134-2.548-2.954V4h1.876v3.934c0 .98.42 1.428 1.288 1.428.98 0 1.456-.826 1.456-1.778V4h1.876v7h-1.764v-.98c-.42.686-1.372 1.12-2.184 1.12zm5.37-.14V4h1.876v7h-1.876zm.924-7.854a1.118 1.118 0 01-1.106-1.106c0-.616.504-1.12 1.106-1.12.616 0 1.12.504 1.12 1.12a1.12 1.12 0 01-1.12 1.106zm2.385 9.87V4H37v.84c.574-.686 1.4-.98 2.24-.98 1.932 0 3.164 1.624 3.164 3.626 0 2.03-1.26 3.654-3.192 3.654-.812 0-1.61-.322-2.114-.938v2.814h-1.876zm3.528-3.612c1.022 0 1.736-.798 1.736-1.904 0-1.106-.714-1.904-1.736-1.904-.952 0-1.666.784-1.666 1.904 0 1.106.7 1.904 1.666 1.904zm8.394 1.736c-2.086 0-3.738-1.61-3.738-3.64 0-2.03 1.652-3.64 3.738-3.64 2.1 0 3.752 1.61 3.752 3.64 0 2.03-1.652 3.64-3.752 3.64zm0-1.736c1.05 0 1.834-.798 1.834-1.904 0-1.092-.784-1.904-1.834-1.904S45.31 6.408 45.31 7.5c0 1.106.784 1.904 1.834 1.904zM55.196 11V4h1.834v.938c.406-.63 1.232-1.078 2.072-1.078 1.106 0 1.792.462 2.156 1.246.504-.84 1.47-1.246 2.268-1.246 1.974 0 2.59 1.358 2.59 3.15V11H64.24V7.248c0-.924-.224-1.61-1.218-1.61-.924 0-1.428.742-1.428 1.666V11h-1.876V7.248c0-.924-.21-1.61-1.218-1.61-.952 0-1.428.812-1.428 1.736V11h-1.876zM69.91 3.048L71.226.85h1.862L71.45 3.048h-1.54zm1.162 8.092c-2.044 0-3.836-1.33-3.836-3.64 0-2.016 1.568-3.64 3.626-3.64 1.904 0 3.402 1.624 3.402 3.612 0 .336-.042.672-.042.672H69.14c.224.966 1.022 1.428 1.946 1.428.672 0 1.372-.196 1.89-.546l.7 1.344a4.716 4.716 0 01-2.604.77zm-1.96-4.242H72.5c-.14-.882-.84-1.47-1.694-1.47-.812 0-1.512.588-1.694 1.47zm9.341 4.242c-1.932 0-3.164-1.624-3.164-3.64s1.26-3.64 3.192-3.64c.812 0 1.61.322 2.114.924V1.788h1.876V11h-1.778v-.84c-.504.672-1.4.98-2.24.98zm.476-1.736c.966 0 1.666-.784 1.666-1.904 0-1.092-.7-1.904-1.666-1.904-1.008 0-1.736.812-1.736 1.904 0 1.106.728 1.904 1.736 1.904zM83.894 11V4h1.876v7h-1.876zm.924-7.854a1.118 1.118 0 01-1.106-1.106c0-.616.504-1.12 1.106-1.12.616 0 1.12.504 1.12 1.12a1.12 1.12 0 01-1.12 1.106zm5.912 7.994c-2.086 0-3.738-1.61-3.738-3.64 0-2.03 1.652-3.64 3.738-3.64.966 0 1.806.322 2.506.896l-1.134 1.316c-.322-.294-.77-.476-1.33-.476-1.092 0-1.876.798-1.876 1.904 0 1.092.742 1.904 1.932 1.904.588 0 1.162-.224 1.526-.574l.994 1.4c-.672.574-1.61.91-2.618.91zm6.89 0c-2.085 0-3.737-1.61-3.737-3.64 0-2.03 1.652-3.64 3.738-3.64 2.1 0 3.752 1.61 3.752 3.64 0 2.03-1.652 3.64-3.752 3.64zm0-1.736c1.05 0 1.835-.798 1.835-1.904 0-1.092-.784-1.904-1.834-1.904s-1.834.812-1.834 1.904c0 1.106.784 1.904 1.834 1.904zm11.147-3.668V1.928h1.456v3.808h-1.456zm-2.59 0V1.928h1.442v3.808h-1.442zm9.771 7.322c-1.26 0-2.282-.336-2.926-.868l.7-1.176c.56.434 1.372.63 2.03.63 1.302 0 1.96-.784 2.016-1.904.014-.042.014-.098.014-.154-.308.546-1.064 1.036-2.1 1.036-1.946 0-3.164-1.512-3.164-3.374 0-1.876 1.218-3.388 3.164-3.388.896 0 1.82.392 2.198 1.092V4h1.778v5.306c0 2.296-1.386 3.752-3.71 3.752zm.154-4.074c.98 0 1.694-.728 1.694-1.778 0-.98-.728-1.722-1.694-1.722-.952 0-1.68.742-1.68 1.764 0 1.008.728 1.736 1.68 1.736zM121.068 11V4h1.848v1.344c.196-.574.91-1.484 2.45-1.484v2.044c-1.624 0-2.422.742-2.422 2.408V11h-1.876zm8.217.14c-1.932 0-3.164-1.624-3.164-3.64s1.232-3.64 3.164-3.64c.812 0 1.68.322 2.184.994V4h1.834v7h-1.834v-.84c-.49.672-1.372.98-2.184.98zm.476-1.736c.966 0 1.666-.784 1.666-1.904 0-1.092-.7-1.904-1.666-1.904-1.008 0-1.736.812-1.736 1.904 0 1.106.728 1.904 1.736 1.904zm7.597 1.736c-1.4 0-2.156-.812-2.156-2.394V5.512h-1.022V4h1.022V2.656l1.876-.42V4h1.932v1.512h-1.932v3.206c0 .602.294.798.63.798.448 0 .84-.252.896-.294l.532 1.386c-.42.28-1.036.532-1.778.532zm2.7-.14V4h1.876v7h-1.876zm.924-7.854a1.118 1.118 0 01-1.106-1.106c0-.616.504-1.12 1.106-1.12.616 0 1.12.504 1.12 1.12a1.12 1.12 0 01-1.12 1.106zm4.876 7.994c-1.498 0-2.464-.588-2.856-.952l.672-1.442a3.39 3.39 0 002.184.742c.434 0 1.148-.168 1.148-.588 0-.42-.602-.518-1.204-.686-1.386-.364-2.52-.826-2.52-2.17 0-1.428 1.4-2.184 2.716-2.184 1.148 0 1.876.28 2.604.7l-.63 1.4c-.686-.336-1.33-.49-1.946-.49-.434 0-.84.196-.84.49 0 .392.588.518 1.232.658 1.19.28 2.492.798 2.492 2.226 0 1.722-1.75 2.296-3.052 2.296zm7.261-5.404V1.928h1.456v3.808h-1.456zm-2.59 0V1.928h1.442v3.808h-1.442zm9.626 7.28V4h1.778v.84c.574-.686 1.4-.98 2.24-.98 1.932 0 3.164 1.624 3.164 3.626 0 2.03-1.26 3.654-3.192 3.654-.812 0-1.61-.322-2.114-.938v2.814h-1.876zm3.528-3.612c1.022 0 1.736-.798 1.736-1.904 0-1.106-.714-1.904-1.736-1.904-.952 0-1.666.784-1.666 1.904 0 1.106.7 1.904 1.666 1.904zm8.395 1.736c-2.086 0-3.738-1.61-3.738-3.64 0-2.03 1.652-3.64 3.738-3.64 2.1 0 3.752 1.61 3.752 3.64 0 2.03-1.652 3.64-3.752 3.64zm0-1.736c1.05 0 1.834-.798 1.834-1.904 0-1.092-.784-1.904-1.834-1.904s-1.834.812-1.834 1.904c0 1.106.784 1.904 1.834 1.904zM177.054 11V4h1.848v1.344c.196-.574.91-1.484 2.45-1.484v2.044c-1.624 0-2.422.742-2.422 2.408V11h-1.876zm11.026.14c-1.4 0-2.156-.812-2.156-2.394V5.512h-1.022V4h1.022V2.656l1.876-.42V4h1.932v1.512H187.8v3.206c0 .602.294.798.63.798.448 0 .84-.252.896-.294l.532 1.386c-.42.28-1.036.532-1.778.532zm5.15 0c-1.932 0-2.548-1.134-2.548-2.954V4h1.876v3.934c0 .98.42 1.428 1.288 1.428.98 0 1.456-.826 1.456-1.778V4h1.876v7h-1.764v-.98c-.42.686-1.372 1.12-2.184 1.12zM.714 25v-7h1.834v.938c.56-.77 1.358-1.078 2.212-1.078 1.848 0 2.492 1.19 2.492 3.108V25H5.376v-3.794c0-1.022-.266-1.568-1.218-1.568-.938 0-1.568.756-1.568 1.82V25H.714zm9.793-7.952l1.316-2.198h1.862l-1.638 2.198h-1.54zm.518 8.092c-1.932 0-2.548-1.134-2.548-2.954V18h1.876v3.934c0 .98.42 1.428 1.288 1.428.98 0 1.456-.826 1.456-1.778V18h1.876v7H13.21v-.98c-.42.686-1.372 1.12-2.184 1.12zm5.37-.14v-7h1.835v.938c.406-.63 1.232-1.078 2.072-1.078 1.106 0 1.792.462 2.156 1.246.504-.84 1.47-1.246 2.268-1.246 1.974 0 2.59 1.358 2.59 3.15V25H25.44v-3.752c0-.924-.224-1.61-1.218-1.61-.924 0-1.428.742-1.428 1.666V25h-1.876v-3.752c0-.924-.21-1.61-1.218-1.61-.952 0-1.428.812-1.428 1.736V25h-1.876zm15.877.14c-2.044 0-3.836-1.33-3.836-3.64 0-2.016 1.568-3.64 3.626-3.64 1.904 0 3.402 1.624 3.402 3.612 0 .336-.042.672-.042.672H30.34c.224.966 1.022 1.428 1.946 1.428.672 0 1.372-.196 1.89-.546l.7 1.344a4.716 4.716 0 01-2.604.77zm-1.96-4.242H33.7c-.14-.882-.84-1.47-1.694-1.47-.812 0-1.512.588-1.694 1.47zM36.698 25v-7h1.848v1.344c.196-.574.91-1.484 2.45-1.484v2.044c-1.624 0-2.422.742-2.422 2.408V25h-1.876zm8.792.14c-2.086 0-3.738-1.61-3.738-3.64 0-2.03 1.652-3.64 3.738-3.64 2.1 0 3.752 1.61 3.752 3.64 0 2.03-1.652 3.64-3.752 3.64zm0-1.736c1.05 0 1.834-.798 1.834-1.904 0-1.092-.784-1.904-1.834-1.904s-1.834.812-1.834 1.904c0 1.106.784 1.904 1.834 1.904zm11.006 1.736c-1.932 0-3.164-1.624-3.164-3.64s1.26-3.64 3.192-3.64c.812 0 1.61.322 2.114.924v-2.996h1.876V25h-1.778v-.84c-.504.672-1.4.98-2.24.98zm.476-1.736c.966 0 1.666-.784 1.666-1.904 0-1.092-.7-1.904-1.666-1.904-1.008 0-1.736.812-1.736 1.904 0 1.106.728 1.904 1.736 1.904zm8.59 1.736c-2.043 0-3.835-1.33-3.835-3.64 0-2.016 1.568-3.64 3.626-3.64 1.904 0 3.402 1.624 3.402 3.612 0 .336-.042.672-.042.672H63.63c.224.966 1.022 1.428 1.946 1.428.672 0 1.372-.196 1.89-.546l.7 1.344a4.716 4.716 0 01-2.604.77zm-1.96-4.242h3.389c-.14-.882-.84-1.47-1.694-1.47-.812 0-1.512.588-1.694 1.47zM73.249 25v-9.072h1.694l1.428 2.016c.532.742 1.638 2.352 1.638 2.352s1.12-1.596 1.638-2.338l1.428-2.03h1.694V25h-1.96v-5.74s-.35.574-.826 1.26l-1.974 2.814-1.988-2.828c-.462-.658-.812-1.246-.812-1.246V25h-1.96zm14.75.14c-2.044 0-3.836-1.33-3.836-3.64 0-2.016 1.568-3.64 3.626-3.64 1.904 0 3.402 1.624 3.402 3.612 0 .336-.042.672-.042.672h-5.082c.224.966 1.022 1.428 1.946 1.428.672 0 1.372-.196 1.89-.546l.7 1.344a4.716 4.716 0 01-2.604.77zm-1.96-4.242h3.388c-.14-.882-.84-1.47-1.694-1.47-.812 0-1.512.588-1.694 1.47zm9.34 4.242c-1.931 0-3.163-1.624-3.163-3.64s1.26-3.64 3.192-3.64c.812 0 1.61.322 2.114.924v-2.996h1.876V25h-1.778v-.84c-.504.672-1.4.98-2.24.98zm.477-1.736c.966 0 1.666-.784 1.666-1.904 0-1.092-.7-1.904-1.666-1.904-1.008 0-1.736.812-1.736 1.904 0 1.106.728 1.904 1.736 1.904zM100.819 25v-7h1.876v7h-1.876zm.924-7.854a1.118 1.118 0 01-1.106-1.106c0-.616.504-1.12 1.106-1.12.616 0 1.12.504 1.12 1.12a1.12 1.12 0 01-1.12 1.106zm5.913 7.994c-2.086 0-3.738-1.61-3.738-3.64 0-2.03 1.652-3.64 3.738-3.64.966 0 1.806.322 2.506.896l-1.134 1.316c-.322-.294-.77-.476-1.33-.476-1.092 0-1.876.798-1.876 1.904 0 1.092.742 1.904 1.932 1.904.588 0 1.162-.224 1.526-.574l.994 1.4c-.672.574-1.61.91-2.618.91zm6.317 0c-1.932 0-3.164-1.624-3.164-3.64s1.232-3.64 3.164-3.64c.812 0 1.68.322 2.184.994V18h1.834v7h-1.834v-.84c-.49.672-1.372.98-2.184.98zm.476-1.736c.966 0 1.666-.784 1.666-1.904 0-1.092-.7-1.904-1.666-1.904-1.008 0-1.736.812-1.736 1.904 0 1.106.728 1.904 1.736 1.904zM119.413 25v-7h1.848v1.344c.196-.574.91-1.484 2.45-1.484v2.044c-1.624 0-2.422.742-2.422 2.408V25h-1.876zm8.89.14c-2.044 0-3.836-1.33-3.836-3.64 0-2.016 1.568-3.64 3.626-3.64 1.904 0 3.402 1.624 3.402 3.612 0 .336-.042.672-.042.672h-5.082c.224.966 1.022 1.428 1.946 1.428.672 0 1.372-.196 1.89-.546l.7 1.344a4.716 4.716 0 01-2.604.77zm-1.96-4.242h3.388c-.14-.882-.84-1.47-1.694-1.47-.812 0-1.512.588-1.694 1.47zm8.753-5.11c1.89 0 3.024 1.274 3.024 2.842 0 1.302-.91 2.366-2.184 2.59l-.154.896h-1.526l-.21-1.89c1.428 0 2.212-.588 2.212-1.484 0-.644-.546-1.176-1.246-1.176-.532 0-.994.28-1.246.784l-1.526-.7c.462-1.176 1.512-1.862 2.856-1.862zm-.084 7.154c.63 0 1.12.504 1.12 1.106 0 .616-.49 1.106-1.12 1.106-.63 0-1.092-.49-1.092-1.106 0-.602.476-1.106 1.092-1.106z" fill="#42443C"/></svg>