<svg width="198" height="26" viewBox="0 0 198 26" fill="none" xmlns="http://www.w3.org/2000/svg"><path d="M3.71 13.366c-1.75 0-2.926-1.274-2.926-2.87 0-1.428 1.022-2.562 2.422-2.772l.112-1.19h.91l.126 1.89c-1.54.014-2.478.91-2.478 2.086 0 .994.826 1.82 1.876 1.82.84 0 1.498-.434 1.834-1.204l.882.42c-.434 1.134-1.428 1.82-2.758 1.82zm.056-7.868a.747.747 0 01-.742-.742c0-.42.336-.742.742-.742a.73.73 0 01.742.742.747.747 0 01-.742.742zM7.695 11V1.928h6.86v.98h-5.74v2.758h5.376v.966H8.815v3.388h5.95V11h-7.07zm13.933 1.974V9.81c-.503.882-1.47 1.33-2.561 1.33-1.89 0-3.22-1.568-3.22-3.556s1.33-3.542 3.22-3.542c1.105 0 2.1.434 2.604 1.316V4.182h1.021v8.792h-1.064zm-2.323-2.87c1.302 0 2.323-1.092 2.323-2.52s-1.021-2.506-2.323-2.506c-1.358 0-2.366 1.064-2.366 2.506 0 1.456 1.008 2.52 2.366 2.52zm7.541 1.036c-1.68 0-2.478-.882-2.478-2.702V4.182h1.064v4.116c0 1.274.616 1.806 1.722 1.806 1.232 0 1.946-1.008 1.946-2.058V4.182h1.064V11h-1.022V9.796c-.42.882-1.4 1.344-2.296 1.344zm5.113-.14V4.182h1.064V11h-1.065zm.531-8.036a.693.693 0 01-.7-.7c0-.392.309-.714.7-.714.392 0 .715.322.715.714 0 .392-.322.7-.715.7zm2.326 10.01V4.182h1.022v1.176c.504-.882 1.498-1.316 2.604-1.316 1.89 0 3.22 1.554 3.22 3.542 0 1.988-1.33 3.556-3.22 3.556-1.078 0-2.058-.448-2.562-1.33v3.164h-1.064zm3.388-2.87c1.358 0 2.366-1.064 2.366-2.52 0-1.442-1.008-2.506-2.366-2.506-1.302 0-2.324 1.078-2.324 2.506 0 1.428 1.022 2.52 2.324 2.52zm8.27 1.036c-2.003 0-3.585-1.568-3.585-3.542 0-1.988 1.582-3.556 3.584-3.556s3.584 1.568 3.584 3.556c0 1.974-1.582 3.542-3.584 3.542zm0-1.036c1.413 0 2.491-1.078 2.491-2.506 0-1.442-1.078-2.52-2.492-2.52s-2.492 1.078-2.492 2.52c0 1.428 1.078 2.506 2.492 2.506zm8.139.896V4.182h1.064v1.176c.378-.742 1.232-1.316 2.184-1.316 1.092 0 1.862.476 2.184 1.442.49-.994 1.554-1.442 2.352-1.442 1.638 0 2.506.952 2.506 2.828V11h-1.078V7.01c0-1.162-.406-1.932-1.652-1.932-1.148 0-1.876.924-1.876 1.946V11h-1.078V7.01c0-1.162-.406-1.932-1.638-1.932-1.19 0-1.904 1.008-1.904 2.002V11h-1.064zm14.371-7.91l1.134-1.862h1.162L69.964 3.09h-.98zm.868 8.05c-1.932 0-3.57-1.386-3.57-3.542 0-1.974 1.484-3.556 3.43-3.556 1.82 0 3.262 1.568 3.262 3.514 0 .196-.028.406-.028.42h-5.558c.168 1.358 1.218 2.212 2.478 2.212.77 0 1.54-.266 2.1-.728l.462.784a4.172 4.172 0 01-2.576.896zm-2.464-3.976h4.536c-.112-1.26-1.078-2.17-2.268-2.17-1.162 0-2.114.896-2.268 2.17zm10.044 3.976c-1.89 0-3.22-1.568-3.22-3.542 0-2.002 1.33-3.556 3.22-3.556 1.092 0 2.058.448 2.562 1.33V1.788h1.064V11h-1.022V9.81c-.504.896-1.498 1.33-2.604 1.33zm.238-1.036c1.302 0 2.324-1.078 2.324-2.506 0-1.428-1.022-2.52-2.324-2.52-1.358 0-2.366 1.064-2.366 2.52 0 1.442 1.008 2.506 2.366 2.506zm5.175.896V4.182h1.064V11h-1.064zm.532-8.036a.693.693 0 01-.7-.7c0-.392.308-.714.7-.714.392 0 .714.322.714.714 0 .392-.322.7-.714.7zm5.63 8.176c-2.002 0-3.584-1.554-3.584-3.542 0-1.988 1.582-3.556 3.584-3.556.938 0 1.792.336 2.436.91l-.672.756c-.42-.392-1.036-.63-1.75-.63-1.428 0-2.506 1.064-2.506 2.52 0 1.414 1.036 2.506 2.534 2.506.77 0 1.47-.294 1.946-.77l.616.798c-.658.63-1.582 1.008-2.604 1.008zm7.027 0c-2.002 0-3.584-1.568-3.584-3.542 0-1.988 1.582-3.556 3.584-3.556s3.584 1.568 3.584 3.556c0 1.974-1.582 3.542-3.584 3.542zm0-1.036c1.414 0 2.492-1.078 2.492-2.506 0-1.442-1.078-2.52-2.492-2.52s-2.492 1.078-2.492 2.52c0 1.428 1.078 2.506 2.492 2.506zm11.639-3.85V1.928h1.904v4.326h-1.904zm-3.192 0V1.928h1.904v4.326h-1.904zm10.974 6.804c-1.4 0-2.492-.322-3.136-.756l.91-1.596c.56.364 1.372.462 1.946.462.924 0 1.4-.42 1.568-.882.056-.14.084-.28.084-.42-.392.518-1.162.714-1.736.714-1.988 0-3.136-1.54-3.136-3.43 0-1.904 1.148-3.444 3.136-3.444.574 0 1.484.21 1.876.938v-.798h2.408v5.208c0 2.044-.91 4.004-3.92 4.004zm.238-4.676c.672 0 1.148-.504 1.148-1.232s-.476-1.246-1.148-1.246c-.672 0-1.148.518-1.148 1.246s.476 1.232 1.148 1.232zM120.421 11V3.846h2.478V5.12c.042-.308.658-1.414 2.338-1.414v2.772c-1.848 0-2.268.77-2.268 2.114V11h-2.548zm8.586.14c-1.988 0-3.066-1.652-3.066-3.71 0-2.072 1.078-3.724 3.066-3.724.574 0 1.526.196 1.946.938v-.798h2.408V11h-2.408v-.798c-.392.728-1.372.938-1.946.938zm.672-2.24c.672 0 1.148-.602 1.148-1.47 0-.854-.476-1.484-1.148-1.484-.672 0-1.148.63-1.148 1.484 0 .868.476 1.47 1.148 1.47zm7.653 2.24c-1.372 0-2.268-.882-2.268-2.45V5.862h-1.05V3.846h1.05V2.558l2.548-.63v1.918h1.582v2.016h-1.582v2.632c0 .336.168.448.392.448.21 0 .462-.098.644-.224l.686 1.862c-.616.434-1.372.56-2.002.56zm2.667-.14V3.846h2.548V11h-2.548zm1.26-7.7a1.458 1.458 0 01-1.442-1.442c0-.798.658-1.456 1.442-1.456.812 0 1.47.658 1.47 1.456 0 .784-.658 1.442-1.47 1.442zm5.037 7.84c-1.638 0-2.548-.49-2.968-.854l.812-1.792c.56.378 1.078.602 2.17.602.028 0 .7-.042.7-.322 0-.224-.42-.266-.84-.364-1.554-.378-2.702-1.008-2.702-2.324 0-1.568 1.428-2.38 2.94-2.38 1.386 0 2.212.308 2.898.672l-.756 1.708c-.826-.322-1.582-.42-2.058-.42-.252 0-.448.084-.448.224 0 .266.602.364 1.316.56 1.008.294 2.226.784 2.226 2.226 0 1.918-1.946 2.464-3.29 2.464zm7.957-4.886V1.928h1.904v4.326h-1.904zm-3.192 0V1.928h1.904v4.326h-1.904zm10.999 6.72V4.182h1.022v1.176c.504-.882 1.498-1.316 2.604-1.316 1.89 0 3.22 1.554 3.22 3.542 0 1.988-1.33 3.556-3.22 3.556-1.078 0-2.058-.448-2.562-1.33v3.164h-1.064zm3.388-2.87c1.358 0 2.366-1.064 2.366-2.52 0-1.442-1.008-2.506-2.366-2.506-1.302 0-2.324 1.078-2.324 2.506 0 1.428 1.022 2.52 2.324 2.52zm8.27 1.036c-2.002 0-3.584-1.568-3.584-3.542 0-1.988 1.582-3.556 3.584-3.556s3.584 1.568 3.584 3.556c0 1.974-1.582 3.542-3.584 3.542zm0-1.036c1.414 0 2.492-1.078 2.492-2.506 0-1.442-1.078-2.52-2.492-2.52s-2.492 1.078-2.492 2.52c0 1.428 1.078 2.506 2.492 2.506zm5.09.896V4.182h1.064v1.442c.392-.896 1.274-1.582 2.632-1.582v1.162c-1.596 0-2.632.896-2.632 2.562V11h-1.064zm10.253.14c-1.204 0-1.918-.588-1.918-2.184V5.064h-1.022v-.882h1.022v-1.47l1.064-.196v1.666h2.324v.882h-2.324v3.92c0 .938.406 1.204.952 1.204.63 0 1.12-.378 1.12-.378l.35.826a2.806 2.806 0 01-1.568.504zm5.197 0c-1.68 0-2.478-.882-2.478-2.702V4.182h1.064v4.116c0 1.274.616 1.806 1.722 1.806 1.232 0 1.946-1.008 1.946-2.058V4.182h1.064V11h-1.022V9.796c-.42.882-1.4 1.344-2.296 1.344zM.896 25v-6.818H1.96v1.162c.476-.826 1.358-1.302 2.366-1.302 1.708 0 2.464 1.036 2.464 2.828V25H5.726v-3.99c0-1.26-.462-1.932-1.694-1.932-1.218 0-2.072.952-2.072 2.086V25H.896zm9.562-7.91l1.134-1.862h1.162l-1.316 1.862h-.98zm.378 8.05c-1.68 0-2.478-.882-2.478-2.702v-4.256h1.064v4.116c0 1.274.616 1.806 1.722 1.806 1.232 0 1.946-1.008 1.946-2.058v-3.864h1.064V25h-1.022v-1.204c-.42.882-1.4 1.344-2.296 1.344zM15.95 25v-6.818h1.064v1.176c.378-.742 1.232-1.316 2.184-1.316 1.092 0 1.862.476 2.184 1.442.49-.994 1.554-1.442 2.352-1.442 1.638 0 2.506.952 2.506 2.828V25H25.16v-3.99c0-1.162-.406-1.932-1.652-1.932-1.148 0-1.876.924-1.876 1.946V25h-1.078v-3.99c0-1.162-.406-1.932-1.638-1.932-1.19 0-1.904 1.008-1.904 2.002V25h-1.064zm15.239.14c-1.932 0-3.57-1.386-3.57-3.542 0-1.974 1.484-3.556 3.43-3.556 1.82 0 3.262 1.568 3.262 3.514 0 .196-.028.406-.028.42h-5.558c.168 1.358 1.218 2.212 2.478 2.212.77 0 1.54-.266 2.1-.728l.462.784a4.172 4.172 0 01-2.576.896zm-2.464-3.976h4.536c-.112-1.26-1.078-2.17-2.268-2.17-1.162 0-2.114.896-2.268 2.17zM35.828 25v-6.818h1.064v1.442c.392-.896 1.274-1.582 2.632-1.582v1.162c-1.596 0-2.632.896-2.632 2.562V25h-1.064zm8.089.14c-2.002 0-3.584-1.568-3.584-3.542 0-1.988 1.582-3.556 3.584-3.556S47.5 19.61 47.5 21.598c0 1.974-1.582 3.542-3.584 3.542zm0-1.036c1.414 0 2.492-1.078 2.492-2.506 0-1.442-1.078-2.52-2.492-2.52s-2.492 1.078-2.492 2.52c0 1.428 1.078 2.506 2.492 2.506zm11.08 1.036c-1.89 0-3.22-1.568-3.22-3.542 0-2.002 1.33-3.556 3.22-3.556 1.091 0 2.057.448 2.561 1.33v-3.584h1.064V25H57.6v-1.19c-.504.896-1.498 1.33-2.604 1.33zm.237-1.036c1.302 0 2.324-1.078 2.324-2.506 0-1.428-1.022-2.52-2.324-2.52-1.358 0-2.366 1.064-2.366 2.52 0 1.442 1.008 2.506 2.366 2.506zM63.7 25.14c-1.932 0-3.57-1.386-3.57-3.542 0-1.974 1.484-3.556 3.43-3.556 1.82 0 3.262 1.568 3.262 3.514 0 .196-.028.406-.028.42h-5.558c.168 1.358 1.218 2.212 2.478 2.212.77 0 1.54-.266 2.1-.728l.462.784a4.172 4.172 0 01-2.576.896zm-2.464-3.976h4.536c-.112-1.26-1.078-2.17-2.268-2.17-1.162 0-2.114.896-2.268 2.17zM71.262 25v-9.072h2.268l1.778 2.548a73.8 73.8 0 01.77 1.176s.476-.742.77-1.176l1.778-2.548h2.268V25h-2.66v-4.592s-.462.742-.714 1.092l-1.442 2.016-1.456-2.016c-.252-.35-.7-1.064-.7-1.064V25h-2.66zm14.838.14c-2.17 0-4.018-1.358-4.018-3.71 0-2.072 1.61-3.724 3.724-3.724 2.03 0 3.584 1.652 3.584 3.724 0 .434-.056.826-.056.826h-4.746c.21.672.84.924 1.526.924.602 0 1.246-.182 1.694-.434l.854 1.722c-.798.49-1.68.672-2.562.672zm-1.582-4.326h2.548a1.237 1.237 0 00-1.26-1.106c-.63 0-1.134.448-1.288 1.106zm8.778 4.326c-1.988 0-3.066-1.652-3.066-3.71 0-2.072 1.148-3.724 3.15-3.724.575 0 1.288.196 1.723.742v-2.66h2.547V25h-2.407v-.798c-.378.728-1.372.938-1.947.938zm.672-2.24c.672 0 1.148-.602 1.148-1.47 0-.854-.475-1.484-1.147-1.484s-1.148.63-1.148 1.484c0 .868.475 1.47 1.148 1.47zm4.797 2.1v-7.154h2.548V25h-2.548zm1.26-7.7a1.458 1.458 0 01-1.442-1.442c0-.798.658-1.456 1.442-1.456.812 0 1.47.658 1.47 1.456 0 .784-.658 1.442-1.47 1.442zm6.128 7.84c-2.198 0-3.864-1.652-3.864-3.71 0-2.072 1.666-3.724 3.864-3.724.98 0 1.778.294 2.534.896l-1.47 1.764c-.266-.252-.56-.42-.994-.42-.826 0-1.358.63-1.358 1.484 0 .868.518 1.47 1.414 1.47.49 0 .896-.21 1.204-.518l1.274 1.876c-.686.574-1.596.882-2.604.882zm6.011 0c-1.988 0-3.066-1.652-3.066-3.71 0-2.072 1.078-3.724 3.066-3.724.574 0 1.526.196 1.946.938v-.798h2.408V25h-2.408v-.798c-.392.728-1.372.938-1.946.938zm.672-2.24c.672 0 1.148-.602 1.148-1.47 0-.854-.476-1.484-1.148-1.484-.672 0-1.148.63-1.148 1.484 0 .868.476 1.47 1.148 1.47zm4.796 2.1v-7.154h2.478v1.274c.042-.308.658-1.414 2.338-1.414v2.772c-1.848 0-2.268.77-2.268 2.114V25h-2.548zm9.538.14c-2.17 0-4.018-1.358-4.018-3.71 0-2.072 1.61-3.724 3.724-3.724 2.03 0 3.584 1.652 3.584 3.724 0 .434-.056.826-.056.826h-4.746c.21.672.84.924 1.526.924.602 0 1.246-.182 1.694-.434l.854 1.722c-.798.49-1.68.672-2.562.672zm-1.582-4.326h2.548a1.237 1.237 0 00-1.26-1.106c-.63 0-1.134.448-1.288 1.106zm8.359-5.026c1.75 0 2.926 1.274 2.926 2.87 0 1.428-1.022 2.562-2.422 2.772l-.112 1.19h-.91l-.126-1.89c1.54-.014 2.478-.91 2.478-2.086 0-.994-.826-1.82-1.876-1.82-.84 0-1.498.434-1.834 1.204l-.882-.42c.434-1.134 1.428-1.82 2.758-1.82zm-.056 7.868c.406 0 .742.336.742.742 0 .42-.336.742-.742.742a.73.73 0 01-.742-.742c0-.406.336-.742.742-.742z" fill="#42443C"/></svg>