<svg width="257" height="165" viewBox="0 0 257 165" fill="none" xmlns="http://www.w3.org/2000/svg"><path fill="#FCD77D" d="M49 149h147v16H49z"/><path d="M49.048 109V76.6h25.75v8.05h-16.25v3.95h15.6v7.95h-15.6v4.4h16.85V109h-26.35zm38.777.5c-5.85 0-9.1-1.75-10.6-3.05l2.9-6.4c2 1.35 3.85 2.15 7.75 2.15.1 0 2.5-.15 2.5-1.15 0-.8-1.5-.95-3-1.3-5.55-1.35-9.65-3.6-9.65-8.3 0-5.6 5.1-8.5 10.5-8.5 4.95 0 7.9 1.1 10.35 2.4l-2.7 6.1c-2.95-1.15-5.65-1.5-7.35-1.5-.9 0-1.6.3-1.6.8 0 .95 2.15 1.3 4.7 2 3.6 1.05 7.95 2.8 7.95 7.95 0 6.85-6.95 8.8-11.75 8.8zm34.855 0c-7.7 0-9.3-4.8-9.3-11.3V83.45h9.1v13.6c0 2.7.9 3.95 3.3 3.95 2.75 0 3.75-2.35 3.75-5.5V83.45h9.1V109h-8.6v-2.8c-1.4 1.8-4.7 3.3-7.35 3.3zm19.954-.5V83.45h8.6v2.95c2.35-2.75 5.15-3.45 7.7-3.45 6.45 0 8.95 3.8 8.95 11.3V109h-9.1V95.4c0-2.9-1.1-3.95-2.85-3.95-2.8 0-4.2 2.35-4.2 5.5V109h-9.1zm39.454.5c-7.1 0-10.95-5.9-10.95-13.25 0-7.4 3.85-13.3 10.95-13.3 2.05 0 5.45.7 6.95 3.35v-2.85h8.6V109h-8.6v-2.85c-1.4 2.6-4.9 3.35-6.95 3.35zm2.4-8c2.4 0 4.1-2.15 4.1-5.25 0-3.05-1.7-5.3-4.1-5.3-2.4 0-4.1 2.25-4.1 5.3 0 3.1 1.7 5.25 4.1 5.25zm-125.048 52c-7.75 0-14.35-4.85-14.35-13.25 0-7.4 5.75-13.3 13.3-13.3 7.25 0 12.8 5.9 12.8 13.3 0 1.55-.2 2.95-.2 2.95H54.04c.75 2.4 3 3.3 5.45 3.3 2.15 0 4.45-.65 6.05-1.55l3.05 6.15c-2.85 1.75-6 2.4-9.15 2.4zm-5.65-15.45h9.1c-.3-2.35-2.15-3.95-4.5-3.95-2.25 0-4.05 1.6-4.6 3.95zm30.302 15.45c-5.85 0-9.1-1.75-10.6-3.05l2.9-6.4c2 1.35 3.85 2.15 7.75 2.15.1 0 2.5-.15 2.5-1.15 0-.8-1.5-.95-3-1.3-5.55-1.35-9.65-3.6-9.65-8.3 0-5.6 5.1-8.5 10.5-8.5 4.95 0 7.9 1.1 10.35 2.4l-2.7 6.1c-2.95-1.15-5.65-1.5-7.35-1.5-.9 0-1.6.3-1.6.8 0 .95 2.15 1.3 4.7 2 3.6 1.05 7.95 2.8 7.95 7.95 0 6.85-6.95 8.8-11.75 8.8zm24.921 0c-4.9 0-8.1-3.15-8.1-8.75v-10.1h-3.75v-7.2h3.75v-4.6l9.1-2.25v6.85h5.65v7.2h-5.65v9.4c0 1.2.6 1.6 1.4 1.6.75 0 1.65-.35 2.3-.8l2.45 6.65c-2.2 1.55-4.9 2-7.15 2zm19.977 0c-7.1 0-10.95-5.9-10.95-13.25 0-7.4 3.85-13.3 10.95-13.3 2.05 0 5.45.7 6.95 3.35v-2.85h8.6V153h-8.6v-2.85c-1.4 2.6-4.9 3.35-6.95 3.35zm2.4-8c2.4 0 4.1-2.15 4.1-5.25 0-3.05-1.7-5.3-4.1-5.3-2.4 0-4.1 2.25-4.1 5.3 0 3.1 1.7 5.25 4.1 5.25zm18.63 7.5v-18.15h-3.85v-7.2h3.85v-1.6c0-5.6 3.2-8.75 8.1-8.75 2.25 0 4.95.35 7.15 1.45l-2.45 6.65c-.65-.25-1.35-.4-2-.4-.95 0-1.7.5-1.7 2.1v.55h5v7.2h-5V153h-9.1zm26.626.5c-7.1 0-10.95-5.9-10.95-13.25 0-7.4 3.85-13.3 10.95-13.3 2.05 0 5.45.7 6.95 3.35v-2.85h8.6V153h-8.6v-2.85c-1.4 2.6-4.9 3.35-6.95 3.35zm2.4-8c2.4 0 4.1-2.15 4.1-5.25 0-3.05-1.7-5.3-4.1-5.3-2.4 0-4.1 2.25-4.1 5.3 0 3.1 1.7 5.25 4.1 5.25zm24.685 8.15c-3.705 0-6.435-2.795-6.435-6.37s2.73-6.37 6.435-6.37c3.77 0 6.565 2.795 6.565 6.37s-2.795 6.37-6.565 6.37z" fill="#42443C"/></svg>