<svg width="249" height="181" viewBox="0 0 249 181" fill="none" xmlns="http://www.w3.org/2000/svg"><path d="M7.49 30.915c-4.376 0-7.316-3.185-7.316-7.175 0-3.57 2.555-6.405 6.055-6.93l.28-2.975h2.275L9.1 18.56c-3.85.035-6.195 2.275-6.195 5.215 0 2.485 2.065 4.55 4.69 4.55 2.1 0 3.745-1.085 4.585-3.01l2.205 1.05c-1.085 2.835-3.57 4.55-6.895 4.55zm.14-19.67A1.867 1.867 0 015.773 9.39c0-1.05.84-1.855 1.855-1.855 1.05 0 1.855.805 1.855 1.855 0 1.015-.84 1.855-1.855 1.855zM17.451 25V2.32h17.15v2.45h-14.35v6.895h13.44v2.415h-13.44v8.47h14.875V25H17.45zm34.834 4.935v-7.91c-1.26 2.205-3.675 3.325-6.406 3.325-4.724 0-8.05-3.92-8.05-8.89 0-4.97 3.326-8.855 8.05-8.855 2.765 0 5.25 1.085 6.51 3.29v-2.94h2.556v21.98h-2.66zm-5.81-7.175c3.255 0 5.81-2.73 5.81-6.3s-2.556-6.265-5.81-6.265c-3.395 0-5.916 2.66-5.916 6.265 0 3.64 2.52 6.3 5.915 6.3zm18.853 2.59c-4.2 0-6.195-2.205-6.195-6.755V7.955h2.66v10.29c0 3.185 1.54 4.515 4.305 4.515 3.08 0 4.865-2.52 4.865-5.145v-9.66h2.66V25H71.07v-3.01c-1.05 2.205-3.5 3.36-5.74 3.36zM78.111 25V7.955h2.66V25h-2.66zm1.33-20.09c-.98 0-1.75-.77-1.75-1.75s.77-1.785 1.75-1.785 1.785.805 1.785 1.785c0 .98-.805 1.75-1.785 1.75zm5.813 25.025V7.955h2.555v2.94c1.26-2.205 3.745-3.29 6.51-3.29 4.725 0 8.05 3.885 8.05 8.855 0 4.97-3.325 8.89-8.05 8.89-2.695 0-5.145-1.12-6.405-3.325v7.91h-2.66zm8.47-7.175c3.395 0 5.915-2.66 5.915-6.3 0-3.605-2.52-6.265-5.915-6.265-3.255 0-5.81 2.695-5.81 6.265s2.555 6.3 5.81 6.3zm20.674 2.59c-5.005 0-8.96-3.92-8.96-8.855 0-4.97 3.955-8.89 8.96-8.89 5.005 0 8.96 3.92 8.96 8.89 0 4.935-3.955 8.855-8.96 8.855zm0-2.59c3.535 0 6.23-2.695 6.23-6.265 0-3.605-2.695-6.3-6.23-6.3-3.535 0-6.23 2.695-6.23 6.3 0 3.57 2.695 6.265 6.23 6.265zM134.746 25V7.955h2.66v2.94c.945-1.855 3.08-3.29 5.46-3.29 2.73 0 4.655 1.19 5.46 3.605 1.225-2.485 3.885-3.605 5.88-3.605 4.095 0 6.265 2.38 6.265 7.07V25h-2.695v-9.975c0-2.905-1.015-4.83-4.13-4.83-2.87 0-4.69 2.31-4.69 4.865V25h-2.695v-9.975c0-2.905-1.015-4.83-4.095-4.83-2.975 0-4.76 2.52-4.76 5.005V25h-2.66zm35.928-19.775L173.509.57h2.905l-3.29 4.655h-2.45zm2.17 20.125c-4.83 0-8.925-3.465-8.925-8.855 0-4.935 3.71-8.89 8.575-8.89 4.55 0 8.155 3.92 8.155 8.785 0 .49-.07 1.015-.07 1.05h-13.895c.42 3.395 3.045 5.53 6.195 5.53 1.925 0 3.85-.665 5.25-1.82l1.155 1.96a10.43 10.43 0 01-6.44 2.24zm-6.16-9.94h11.34c-.28-3.15-2.695-5.425-5.67-5.425-2.905 0-5.285 2.24-5.67 5.425zm25.11 9.94c-4.725 0-8.05-3.92-8.05-8.855 0-5.005 3.325-8.89 8.05-8.89 2.73 0 5.145 1.12 6.405 3.325V1.97h2.66V25h-2.555v-2.975c-1.26 2.24-3.745 3.325-6.51 3.325zm.595-2.59c3.255 0 5.81-2.695 5.81-6.265s-2.555-6.3-5.81-6.3c-3.395 0-5.915 2.66-5.915 6.3 0 3.605 2.52 6.265 5.915 6.265zM205.327 25V7.955h2.66V25h-2.66zm1.33-20.09c-.98 0-1.75-.77-1.75-1.75s.77-1.785 1.75-1.785 1.785.805 1.785 1.785c0 .98-.805 1.75-1.785 1.75zm14.074 20.44c-5.005 0-8.96-3.885-8.96-8.855 0-4.97 3.955-8.89 8.96-8.89 2.345 0 4.48.84 6.09 2.275l-1.68 1.89c-1.05-.98-2.59-1.575-4.375-1.575-3.57 0-6.265 2.66-6.265 6.3 0 3.535 2.59 6.265 6.335 6.265 1.925 0 3.675-.735 4.865-1.925l1.54 1.995c-1.645 1.575-3.955 2.52-6.51 2.52zm17.568 0c-5.005 0-8.96-3.92-8.96-8.855 0-4.97 3.955-8.89 8.96-8.89 5.005 0 8.96 3.92 8.96 8.89 0 4.935-3.955 8.855-8.96 8.855zm0-2.59c3.535 0 6.23-2.695 6.23-6.265 0-3.605-2.695-6.3-6.23-6.3-3.535 0-6.23 2.695-6.23 6.3 0 3.57 2.695 6.265 6.23 6.265zM12.432 61.406V47.192h6.256v14.214h-6.256zm-10.488 0V47.192H8.2v14.214H1.944zM38 83.762c-4.6 0-8.188-1.058-10.304-2.484l2.99-5.244c1.84 1.196 4.508 1.518 6.394 1.518 3.036 0 4.6-1.38 5.152-2.898.184-.46.276-.92.276-1.38-1.288 1.702-3.818 2.346-5.704 2.346-6.532 0-10.304-5.06-10.304-11.27 0-6.256 3.772-11.316 10.304-11.316 1.886 0 4.876.69 6.164 3.082v-2.622h7.912v17.112c0 6.716-2.99 13.156-12.88 13.156zm.782-15.364c2.208 0 3.772-1.656 3.772-4.048 0-2.392-1.564-4.094-3.772-4.094-2.208 0-3.772 1.702-3.772 4.094 0 2.392 1.564 4.048 3.772 4.048zM54.318 77V53.494h8.142v4.186c.138-1.012 2.162-4.646 7.682-4.646v9.108c-6.072 0-7.452 2.53-7.452 6.946V77h-8.372zm28.212.46c-6.532 0-10.074-5.428-10.074-12.19 0-6.808 3.542-12.236 10.074-12.236 1.886 0 5.014.644 6.394 3.082v-2.622h7.912V77h-7.912v-2.622c-1.288 2.392-4.508 3.082-6.394 3.082zm2.208-7.36c2.208 0 3.772-1.978 3.772-4.83 0-2.806-1.564-4.876-3.772-4.876-2.208 0-3.772 2.07-3.772 4.876 0 2.852 1.564 4.83 3.772 4.83zm25.144 7.36c-4.508 0-7.452-2.898-7.452-8.05v-9.292h-3.45v-6.624h3.45v-4.232l8.372-2.07v6.302H116v6.624h-5.198v8.648c0 1.104.552 1.472 1.288 1.472.69 0 1.518-.322 2.116-.736l2.254 6.118c-2.024 1.426-4.508 1.84-6.578 1.84zm8.764-.46V53.494h8.372V77h-8.372zm4.14-25.3c-2.576 0-4.738-2.162-4.738-4.738 0-2.622 2.162-4.784 4.738-4.784 2.668 0 4.83 2.162 4.83 4.784 0 2.576-2.162 4.738-4.83 4.738zm16.547 25.76c-5.382 0-8.372-1.61-9.752-2.806l2.668-5.888c1.84 1.242 3.542 1.978 7.13 1.978.092 0 2.3-.138 2.3-1.058 0-.736-1.38-.874-2.76-1.196-5.106-1.242-8.878-3.312-8.878-7.636 0-5.152 4.692-7.82 9.66-7.82 4.554 0 7.268 1.012 9.522 2.208l-2.484 5.612c-2.714-1.058-5.198-1.38-6.762-1.38-.828 0-1.472.276-1.472.736 0 .874 1.978 1.196 4.324 1.84 3.312.966 7.314 2.576 7.314 7.314 0 6.302-6.394 8.096-10.81 8.096zm26.148-16.054V47.192h6.256v14.214h-6.256zm-10.488 0V47.192h6.256v14.214h-6.256zm34.665 21.234V57.52h2.92v3.36c1.44-2.52 4.28-3.76 7.44-3.76 5.4 0 9.2 4.44 9.2 10.12 0 5.68-3.8 10.16-9.2 10.16-3.08 0-5.88-1.28-7.32-3.8v9.04h-3.04zm9.68-8.2c3.88 0 6.76-3.04 6.76-7.2 0-4.12-2.88-7.16-6.76-7.16-3.72 0-6.64 3.08-6.64 7.16s2.92 7.2 6.64 7.2zm23.627 2.96c-5.72 0-10.24-4.48-10.24-10.12 0-5.68 4.52-10.16 10.24-10.16 5.72 0 10.24 4.48 10.24 10.16 0 5.64-4.52 10.12-10.24 10.12zm0-2.96c4.04 0 7.12-3.08 7.12-7.16 0-4.12-3.08-7.2-7.12-7.2s-7.12 3.08-7.12 7.2c0 4.08 3.08 7.16 7.12 7.16zM237.51 77V57.52h3.04v4.12c1.12-2.56 3.64-4.52 7.52-4.52v3.32c-4.56 0-7.52 2.56-7.52 7.32V77h-3.04zM13.889 129.4c-3.44 0-5.48-1.68-5.48-6.24v-11.12h-2.92v-2.52h2.92v-4.2l3.04-.56v4.76h6.64v2.52h-6.64v11.2c0 2.68 1.16 3.44 2.72 3.44 1.8 0 3.2-1.08 3.2-1.08l1 2.36c-.76.52-2.36 1.44-4.48 1.44zm14.849 0c-4.8 0-7.08-2.52-7.08-7.72v-12.16h3.04v11.76c0 3.64 1.76 5.16 4.92 5.16 3.52 0 5.56-2.88 5.56-5.88v-11.04h3.04V129h-2.92v-3.44c-1.2 2.52-4 3.84-6.56 3.84zm23.318-.4v-19.48h3.04v3.32c1.36-2.36 3.88-3.72 6.76-3.72 4.88 0 7.04 2.96 7.04 8.08V129h-3.04v-11.4c0-3.6-1.32-5.52-4.84-5.52-3.48 0-5.92 2.72-5.92 5.96V129h-3.04zm27.32-22.6l3.24-5.32h3.32l-3.76 5.32h-2.8zm1.08 23c-4.8 0-7.08-2.52-7.08-7.72v-12.16h3.04v11.76c0 3.64 1.76 5.16 4.92 5.16 3.52 0 5.56-2.88 5.56-5.88v-11.04h3.04V129h-2.92v-3.44c-1.2 2.52-4 3.84-6.56 3.84zm14.608-.4v-19.48h3.04v3.36c1.08-2.12 3.52-3.76 6.24-3.76 3.12 0 5.32 1.36 6.24 4.12 1.4-2.84 4.44-4.12 6.72-4.12 4.68 0 7.16 2.72 7.16 8.08V129h-3.08v-11.4c0-3.32-1.16-5.52-4.72-5.52-3.28 0-5.36 2.64-5.36 5.56V129h-3.08v-11.4c0-3.32-1.16-5.52-4.68-5.52-3.4 0-5.44 2.88-5.44 5.72V129h-3.04zm43.541.4c-5.52 0-10.2-3.96-10.2-10.12 0-5.64 4.24-10.16 9.8-10.16 5.2 0 9.32 4.48 9.32 10.04 0 .56-.08 1.16-.08 1.2h-15.88c.48 3.88 3.48 6.32 7.08 6.32 2.2 0 4.4-.76 6-2.08l1.32 2.24a11.92 11.92 0 01-7.36 2.56zm-7.04-11.36h12.96c-.32-3.6-3.08-6.2-6.48-6.2-3.32 0-6.04 2.56-6.48 6.2zM151.861 129v-19.48h3.04v4.12c1.12-2.56 3.64-4.52 7.52-4.52v3.32c-4.56 0-7.52 2.56-7.52 7.32V129h-3.04zm23.112.4c-5.72 0-10.24-4.48-10.24-10.12 0-5.68 4.52-10.16 10.24-10.16 5.72 0 10.24 4.48 10.24 10.16 0 5.64-4.52 10.12-10.24 10.12zm0-2.96c4.04 0 7.12-3.08 7.12-7.16 0-4.12-3.08-7.2-7.12-7.2s-7.12 3.08-7.12 7.2c0 4.08 3.08 7.16 7.12 7.16zm31.655 2.96c-5.4 0-9.2-4.48-9.2-10.12 0-5.72 3.8-10.16 9.2-10.16 3.12 0 5.88 1.28 7.32 3.8v-10.24h3.04V129h-2.92v-3.4c-1.44 2.56-4.28 3.8-7.44 3.8zm.68-2.96c3.72 0 6.64-3.08 6.64-7.16s-2.92-7.2-6.64-7.2c-3.88 0-6.76 3.04-6.76 7.2 0 4.12 2.88 7.16 6.76 7.16zm24.187 2.96c-5.52 0-10.2-3.96-10.2-10.12 0-5.64 4.24-10.16 9.8-10.16 5.2 0 9.32 4.48 9.32 10.04 0 .56-.08 1.16-.08 1.2h-15.88c.48 3.88 3.48 6.32 7.08 6.32 2.2 0 4.4-.76 6-2.08l1.32 2.24a11.92 11.92 0 01-7.36 2.56zm-7.04-11.36h12.96c-.32-3.6-3.08-6.2-6.48-6.2-3.32 0-6.04 2.56-6.48 6.2zM8.483 180v-32.4h8.1l6.35 9.1c1.05 1.55 2.75 4.2 2.75 4.2s1.7-2.65 2.75-4.2l6.35-9.1h8.1V180h-9.5v-16.4s-1.65 2.65-2.55 3.9l-5.15 7.2-5.2-7.2c-.9-1.25-2.5-3.8-2.5-3.8V180h-9.5zm52.993.5c-7.75 0-14.35-4.85-14.35-13.25 0-7.4 5.75-13.3 13.3-13.3 7.25 0 12.8 5.9 12.8 13.3 0 1.55-.2 2.95-.2 2.95h-16.95c.75 2.4 3 3.3 5.45 3.3 2.15 0 4.45-.65 6.05-1.55l3.05 6.15c-2.85 1.75-6 2.4-9.15 2.4zm-5.65-15.45h9.1c-.3-2.35-2.15-3.95-4.5-3.95-2.25 0-4.05 1.6-4.6 3.95zm31.351 15.45c-7.1 0-10.95-5.9-10.95-13.25 0-7.4 4.1-13.3 11.25-13.3 2.05 0 4.6.7 6.15 2.65v-9.5h9.101V180h-8.6v-2.85c-1.35 2.6-4.9 3.35-6.95 3.35zm2.4-8c2.4 0 4.1-2.15 4.1-5.25 0-3.05-1.7-5.3-4.1-5.3-2.4 0-4.1 2.25-4.1 5.3 0 3.1 1.7 5.25 4.1 5.25zm17.131 7.5v-25.55h9.1V180h-9.1zm4.5-27.5c-2.8 0-5.15-2.35-5.15-5.15 0-2.85 2.35-5.2 5.15-5.2 2.9 0 5.25 2.35 5.25 5.2 0 2.8-2.35 5.15-5.25 5.15zm21.886 28c-7.85 0-13.8-5.9-13.8-13.25 0-7.4 5.95-13.3 13.8-13.3 3.5 0 6.35 1.05 9.05 3.2l-5.25 6.3c-.95-.9-2-1.5-3.55-1.5-2.95 0-4.85 2.25-4.85 5.3 0 3.1 1.85 5.25 5.05 5.25 1.75 0 3.2-.75 4.3-1.85l4.55 6.7c-2.45 2.05-5.7 3.15-9.3 3.15zm21.466 0c-7.1 0-10.95-5.9-10.95-13.25 0-7.4 3.85-13.3 10.95-13.3 2.05 0 5.45.7 6.95 3.35v-2.85h8.6V180h-8.6v-2.85c-1.4 2.6-4.9 3.35-6.95 3.35zm2.4-8c2.4 0 4.1-2.15 4.1-5.25 0-3.05-1.7-5.3-4.1-5.3-2.4 0-4.1 2.25-4.1 5.3 0 3.1 1.7 5.25 4.1 5.25zm17.131 7.5v-25.55h8.85V159c.15-1.1 2.35-5.05 8.35-5.05v9.9c-6.6 0-8.1 2.75-8.1 7.55v8.6h-9.1zm34.065.5c-7.75 0-14.35-4.85-14.35-13.25 0-7.4 5.75-13.3 13.3-13.3 7.25 0 12.8 5.9 12.8 13.3 0 1.55-.2 2.95-.2 2.95h-16.95c.75 2.4 3 3.3 5.45 3.3 2.15 0 4.45-.65 6.05-1.55l3.05 6.15c-2.85 1.75-6 2.4-9.15 2.4zm-5.65-15.45h9.1c-.3-2.35-2.15-3.95-4.5-3.95-2.25 0-4.05 1.6-4.6 3.95zm27.88-12.028c5.125 0 8.569 3.731 8.569 8.405 0 4.182-2.993 7.503-7.093 8.118l-.328 3.485h-2.665l-.369-5.535c4.51-.041 7.257-2.665 7.257-6.109 0-2.911-2.419-5.33-5.494-5.33-2.46 0-4.387 1.271-5.371 3.526l-2.583-1.23c1.271-3.321 4.182-5.33 8.077-5.33zm-.164 23.042c1.189 0 2.173.984 2.173 2.173 0 1.23-.984 2.173-2.173 2.173-1.23 0-2.173-.943-2.173-2.173 0-1.189.984-2.173 2.173-2.173z" fill="#42443C"/></svg>