<svg width="265" height="17" viewBox="0 0 265 17" fill="none" xmlns="http://www.w3.org/2000/svg"><path d="M.296 12.18c0-.274.1-.51.3-.71.2-.201.44-.301.718-.301.279 0 .518.1.718.3.2.2.3.44.3.718 0 .283-.1.525-.3.725a.976.976 0 01-.718.293.985.985 0 01-.725-.293.994.994 0 01-.293-.732zm3.43 0c0-.274.1-.51.3-.71.2-.201.439-.301.717-.301.279 0 .518.1.718.3.2.2.3.44.3.718 0 .283-.1.525-.3.725a.976.976 0 01-.718.293.985.985 0 01-.725-.293.994.994 0 01-.293-.732zm3.428 0c0-.274.1-.51.3-.71.2-.201.44-.301.718-.301.279 0 .518.1.718.3.2.2.3.44.3.718 0 .283-.1.525-.3.725a.976.976 0 01-.718.293.985.985 0 01-.725-.293.994.994 0 01-.293-.732zm8.431 4.702v-4.68c-.654.669-1.4 1.003-2.24 1.003-.963 0-1.76-.354-2.396-1.062-.64-.713-.96-1.604-.96-2.673 0-1.084.32-1.99.96-2.718.645-.722 1.453-1.084 2.425-1.084.825 0 1.562.325 2.211.975v-.777h1.656v11.016h-1.655zm-3.91-7.486c0 .689.185 1.248.556 1.678.371.44.842.659 1.414.659.605 0 1.096-.21 1.472-.63.38-.425.571-.976.571-1.655 0-.67-.188-1.221-.564-1.656-.376-.424-.864-.637-1.465-.637-.566 0-1.04.215-1.42.645-.377.434-.565.967-.565 1.596zm9.47-3.53V9.96c0 1.182.466 1.773 1.399 1.773.932 0 1.398-.59 1.398-1.773V5.866h1.648v4.131c0 .571-.07 1.065-.212 1.48a2.485 2.485 0 01-.71 1.003c-.557.483-1.265.725-2.124.725-.855 0-1.56-.242-2.117-.725a2.526 2.526 0 01-.725-1.003c-.137-.332-.205-.826-.205-1.48v-4.13h1.648zm13.022 3.955h-5.112c.044.586.234 1.053.571 1.4.337.341.77.512 1.296.512.41 0 .75-.098 1.018-.293.264-.195.564-.557.901-1.084l1.392.776a5.67 5.67 0 01-.681.945c-.24.259-.496.474-.77.645a3.144 3.144 0 01-.885.366 4.315 4.315 0 01-1.033.117c-1.065 0-1.92-.342-2.564-1.025-.644-.689-.966-1.602-.966-2.74 0-1.127.312-2.04.937-2.739.63-.688 1.465-1.033 2.505-1.033 1.05 0 1.88.335 2.49 1.004.606.664.908 1.584.908 2.761l-.007.388zm-1.692-1.347c-.23-.88-.784-1.319-1.662-1.319-.2 0-.389.032-.564.095a1.557 1.557 0 00-.484.264 1.647 1.647 0 00-.366.41c-.102.161-.18.345-.234.55h3.31zm9.83-1.07V13h-1.649V7.404h-.703V5.866h.703V3.251h1.648v2.615h1.282v1.538h-1.282zm9.03 2.417h-5.112c.044.586.234 1.053.571 1.4.337.341.77.512 1.296.512.41 0 .75-.098 1.018-.293.264-.195.565-.557.901-1.084l1.392.776a5.671 5.671 0 01-.681.945c-.24.259-.496.474-.77.645a3.147 3.147 0 01-.885.366 4.316 4.316 0 01-1.033.117c-1.065 0-1.92-.342-2.564-1.025-.644-.689-.966-1.602-.966-2.74 0-1.127.312-2.04.937-2.739.63-.688 1.465-1.033 2.505-1.033 1.05 0 1.88.335 2.49 1.004.606.664.908 1.584.908 2.761l-.007.388zm-1.692-1.347c-.23-.88-.784-1.319-1.662-1.319-.2 0-.389.032-.564.095a1.556 1.556 0 00-.484.264 1.645 1.645 0 00-.366.41c-.102.161-.18.345-.234.55h3.31zm9.778 8.408h-1.648V5.866h1.648v.777c.65-.65 1.387-.975 2.212-.975.981 0 1.79.362 2.424 1.084.645.718.967 1.624.967 2.718 0 1.07-.32 1.96-.96 2.673-.634.708-1.435 1.062-2.402 1.062-.835 0-1.582-.334-2.241-1.003v4.68zm3.919-7.405c0-.684-.186-1.24-.557-1.67a1.8 1.8 0 00-1.421-.652c-.606 0-1.096.21-1.472.63-.376.42-.564.972-.564 1.655 0 .67.188 1.221.564 1.656.37.425.86.637 1.465.637.57 0 1.042-.215 1.413-.645.381-.43.572-.966.572-1.61zm5.075-3.61V13h-1.648V5.866h1.648zM66.518 2.9c0-.288.105-.537.315-.747.21-.21.462-.315.755-.315.297 0 .551.105.761.315.21.205.315.456.315.754s-.105.552-.315.762c-.205.21-.456.315-.754.315s-.552-.105-.762-.315a1.046 1.046 0 01-.315-.77zM75.761.63h1.656V13H75.76v-.747c-.65.635-1.384.952-2.204.952-.977 0-1.787-.356-2.432-1.07-.64-.727-.96-1.635-.96-2.724 0-1.064.32-1.953.96-2.666.635-.718 1.433-1.077 2.395-1.077.835 0 1.582.342 2.241 1.026V.629zm-3.91 8.781c0 .684.182 1.24.549 1.67a1.8 1.8 0 001.42.652c.61 0 1.104-.21 1.48-.63.376-.434.564-.986.564-1.655 0-.67-.188-1.221-.564-1.656-.376-.424-.864-.637-1.465-.637-.566 0-1.04.215-1.42.645-.377.434-.565.971-.565 1.611zm12.904-3.545h1.656V13h-1.656v-.747c-.678.635-1.408.952-2.19.952-.986 0-1.801-.356-2.446-1.07-.64-.727-.96-1.635-.96-2.724 0-1.07.32-1.96.96-2.673.64-.713 1.44-1.07 2.403-1.07.83 0 1.574.342 2.233 1.026v-.828zm-3.91 3.545c0 .684.182 1.24.549 1.67a1.8 1.8 0 001.42.652c.61 0 1.104-.21 1.48-.63.376-.434.564-.986.564-1.655 0-.67-.188-1.221-.564-1.656-.376-.424-.864-.637-1.465-.637-.566 0-1.04.215-1.42.645-.377.434-.565.971-.565 1.611zm7.646-3.545h1.655v.66c.576-.572 1.226-.858 1.948-.858.83 0 1.477.262 1.941.784.4.444.6 1.17.6 2.175V13h-1.654V9.016c0-.704-.098-1.19-.293-1.458-.19-.273-.538-.41-1.04-.41-.547 0-.935.18-1.165.542-.225.356-.337.979-.337 1.868V13h-1.655V5.866zm14.56 1.538V13h-1.648V7.404h-.703V5.866h.703V3.251h1.648v2.615h1.282v1.538h-1.282zm4.051-1.538V9.96c0 1.182.466 1.773 1.399 1.773.932 0 1.399-.59 1.399-1.773V5.866h1.647v4.131c0 .571-.07 1.065-.212 1.48a2.486 2.486 0 01-.71 1.003c-.557.483-1.265.725-2.124.725-.855 0-1.56-.242-2.117-.725a2.518 2.518 0 01-.725-1.003c-.137-.332-.205-.826-.205-1.48v-4.13h1.648zm11.154 0h1.656v.66c.576-.572 1.225-.858 1.948-.858.83 0 1.477.262 1.941.784.4.444.6 1.17.6 2.175V13h-1.655V9.016c0-.704-.097-1.19-.293-1.458-.19-.273-.537-.41-1.04-.41-.547 0-.935.18-1.164.542-.225.356-.337.979-.337 1.868V13h-1.656V5.866zm9.881 0V9.96c0 1.182.466 1.773 1.399 1.773.932 0 1.399-.59 1.399-1.773V5.866h1.648v4.131c0 .571-.071 1.065-.213 1.48a2.486 2.486 0 01-.71 1.003c-.557.483-1.265.725-2.124.725-.855 0-1.56-.242-2.117-.725a2.527 2.527 0 01-.725-1.003c-.137-.332-.205-.826-.205-1.48v-4.13h1.648zm3.984-3.515l-2.666 2.417-.901-.557 2.014-2.666 1.553.806zm2.542 3.515h1.648v.66c.317-.333.588-.557.813-.674.239-.123.539-.184.901-.184.805 0 1.442.352 1.911 1.055.518-.703 1.218-1.055 2.102-1.055 1.607 0 2.41.975 2.41 2.923V13h-1.655V9.038c0-.684-.083-1.167-.249-1.45-.171-.289-.452-.433-.843-.433-.454 0-.786.171-.996.513-.205.342-.307.891-.307 1.648V13h-1.656V9.06c0-1.27-.366-1.905-1.098-1.905-.464 0-.804.174-1.018.52-.21.347-.315.894-.315 1.64V13h-1.648V5.866zm18.362 3.955h-5.113c.044.586.235 1.053.571 1.4.337.341.77.512 1.297.512.41 0 .749-.098 1.018-.293.264-.195.564-.557.901-1.084l1.391.776a5.58 5.58 0 01-.681.945 3.75 3.75 0 01-.769.645 3.143 3.143 0 01-.886.366 4.316 4.316 0 01-1.033.117c-1.064 0-1.919-.342-2.563-1.025-.645-.689-.967-1.602-.967-2.74 0-1.127.313-2.04.938-2.739.629-.688 1.464-1.033 2.504-1.033 1.05 0 1.88.335 2.491 1.004.605.664.908 1.584.908 2.761l-.007.388zm-1.692-1.347c-.23-.88-.784-1.319-1.663-1.319-.2 0-.388.032-.564.095a1.546 1.546 0 00-.483.264 1.65 1.65 0 00-.367.41c-.102.161-.18.345-.234.55h3.311zm3.501-2.608h1.648v.637c.302-.317.571-.534.805-.651.239-.123.523-.184.85-.184.434 0 .888.142 1.362.425l-.754 1.51c-.313-.226-.618-.338-.916-.338-.898 0-1.347.679-1.347 2.036V13h-1.648V5.866zm5.141 3.516c0-1.03.369-1.907 1.106-2.63.737-.722 1.636-1.084 2.695-1.084 1.065 0 1.968.364 2.71 1.092.733.727 1.099 1.62 1.099 2.68 0 1.07-.369 1.966-1.106 2.688-.742.718-1.653 1.077-2.732 1.077-1.069 0-1.965-.366-2.688-1.099-.722-.722-1.084-1.63-1.084-2.724zm1.685.03c0 .712.19 1.276.571 1.691.391.42.906.63 1.545.63.645 0 1.16-.208 1.546-.623.386-.415.578-.969.578-1.662 0-.694-.192-1.248-.578-1.663-.391-.42-.906-.63-1.546-.63-.629 0-1.14.21-1.53.63-.391.42-.586.962-.586 1.626zM179.223.628h1.656V13h-1.656v-.747c-.649.635-1.384.952-2.204.952-.977 0-1.787-.356-2.432-1.07-.64-.727-.959-1.635-.959-2.724 0-1.064.319-1.953.959-2.666.635-.718 1.433-1.077 2.395-1.077.835 0 1.582.342 2.241 1.026V.629zm-3.911 8.782c0 .684.183 1.24.549 1.67a1.8 1.8 0 001.421.652c.611 0 1.104-.21 1.48-.63.376-.434.564-.986.564-1.655 0-.67-.188-1.221-.564-1.656-.376-.424-.864-.637-1.465-.637-.566 0-1.04.215-1.421.645-.376.434-.564.971-.564 1.611zm14.143.41h-5.112c.044.586.234 1.053.571 1.4.337.341.769.512 1.297.512.41 0 .749-.098 1.018-.293.263-.195.564-.557.9-1.084l1.392.776a5.694 5.694 0 01-.681.945 3.777 3.777 0 01-.769.645 3.155 3.155 0 01-.886.366 4.322 4.322 0 01-1.033.117c-1.065 0-1.919-.342-2.564-1.025-.644-.689-.966-1.602-.966-2.74 0-1.127.312-2.04.937-2.739.63-.688 1.465-1.033 2.505-1.033 1.05 0 1.88.335 2.49 1.004.606.664.908 1.584.908 2.761l-.007.388zm-1.692-1.347c-.229-.88-.783-1.319-1.662-1.319-.201 0-.389.032-.564.095a1.562 1.562 0 00-.484.264 1.666 1.666 0 00-.366.41 1.918 1.918 0 00-.234.55h3.31z" fill="#fff" fill-opacity=".75"/><path d="M196.672 13l1.664-9.802h2.522l1.963 5.226 1.95-5.226h2.522L208.957 13h-2.535l-.845-5.642L203.263 13h-1.014l-2.197-5.642-.845 5.642h-2.535zm18.198-4.303a1.414 1.414 0 00-.481-.793 1.347 1.347 0 00-.884-.299c-.364 0-.663.095-.897.286-.225.19-.368.46-.429.806h2.691zm-2.756 1.365c0 1.014.477 1.521 1.43 1.521.511 0 .897-.208 1.157-.624h2.275c-.459 1.525-1.608 2.288-3.445 2.288a4.634 4.634 0 01-1.547-.247 3.605 3.605 0 01-1.209-.728 3.263 3.263 0 01-.767-1.118 3.726 3.726 0 01-.273-1.456c0-.555.087-1.053.26-1.495.173-.45.42-.832.741-1.144a3.22 3.22 0 011.157-.715c.459-.173.975-.26 1.547-.26.563 0 1.07.087 1.521.26a3.01 3.01 0 011.144.728c.312.32.55.715.715 1.183.165.46.247.98.247 1.56v.247h-4.953zm8.482-.416c0 .217.039.42.117.611.078.182.182.342.312.481.139.139.299.247.481.325a1.598 1.598 0 001.196 0c.191-.078.351-.186.481-.325.139-.139.247-.299.325-.481.087-.182.13-.377.13-.585 0-.208-.043-.403-.13-.585a1.48 1.48 0 00-.325-.494 1.346 1.346 0 00-.481-.325 1.566 1.566 0 00-1.183 0 1.525 1.525 0 00-.481.325c-.13.139-.238.299-.325.481a1.378 1.378 0 00-.117.572zm2.964-7.436h2.366V13h-2.366v-.741c-.503.633-1.183.949-2.041.949a3.245 3.245 0 01-2.405-1.027 3.54 3.54 0 01-.715-1.131 3.912 3.912 0 01-.247-1.404c0-.477.078-.927.234-1.352.165-.433.394-.81.689-1.131.295-.32.646-.572 1.053-.754.416-.19.871-.286 1.365-.286.832 0 1.521.29 2.067.871V2.21zm6.32 4.121V13h-2.353V6.331h2.353zm-2.509-2.561a1.345 1.345 0 01.806-1.222 1.328 1.328 0 011.742.715 1.315 1.315 0 010 1.027 1.354 1.354 0 01-1.222.806c-.182 0-.355-.035-.52-.104a1.38 1.38 0 01-.702-.702 1.332 1.332 0 01-.104-.52zm9.148 4.719c-.407-.277-.819-.416-1.235-.416-.225 0-.437.039-.637.117-.19.078-.359.19-.507.338a1.527 1.527 0 00-.351.507c-.078.19-.117.407-.117.65 0 .234.039.45.117.65.087.19.2.36.338.507.148.139.321.247.52.325.2.078.412.117.637.117.442 0 .854-.152 1.235-.455v2.002c-.58.251-1.131.377-1.651.377-.485 0-.949-.082-1.391-.247a3.67 3.67 0 01-1.157-.702 3.648 3.648 0 01-.793-1.105 3.417 3.417 0 01-.299-1.443c0-.529.096-1.01.286-1.443.191-.442.451-.819.78-1.131.33-.32.72-.568 1.17-.741.46-.182.949-.273 1.469-.273.572 0 1.101.121 1.586.364v2.002zm3.526 1.157c0 .217.039.42.117.611.078.182.182.342.312.481.139.139.299.247.481.325a1.602 1.602 0 001.196 0c.191-.078.351-.186.481-.325.139-.139.247-.299.325-.481.087-.182.13-.377.13-.585 0-.208-.043-.403-.13-.585a1.48 1.48 0 00-.325-.494 1.346 1.346 0 00-.481-.325 1.602 1.602 0 00-1.196 0 1.525 1.525 0 00-.481.325c-.13.139-.234.299-.312.481a1.378 1.378 0 00-.117.572zm2.964-3.315h2.366V13h-2.366v-.741c-.502.633-1.183.949-2.041.949-.485 0-.931-.087-1.339-.26a3.323 3.323 0 01-1.066-.754 3.558 3.558 0 01-.715-1.131 3.972 3.972 0 01-.247-1.417c0-.477.083-.927.247-1.352.165-.433.395-.81.689-1.131.295-.32.646-.572 1.053-.754.408-.19.858-.286 1.352-.286.832 0 1.521.29 2.067.871v-.663zm3.968 0h2.353v1.092c.251-.399.559-.702.923-.91.364-.217.788-.325 1.274-.325h.195c.078 0 .164.009.26.026v2.249a2.236 2.236 0 00-1.014-.234c-.546 0-.958.165-1.235.494-.269.32-.403.793-.403 1.417V13h-2.353V6.331zm11.006 2.366a1.414 1.414 0 00-.481-.793 1.346 1.346 0 00-.884-.299c-.364 0-.663.095-.897.286-.225.19-.368.46-.429.806h2.691zm-2.756 1.365c0 1.014.477 1.521 1.43 1.521.512 0 .897-.208 1.157-.624h2.275c-.459 1.525-1.607 2.288-3.445 2.288a4.634 4.634 0 01-1.547-.247 3.605 3.605 0 01-1.209-.728 3.263 3.263 0 01-.767-1.118 3.726 3.726 0 01-.273-1.456c0-.555.087-1.053.26-1.495.174-.45.421-.832.741-1.144.321-.312.707-.55 1.157-.715.46-.173.975-.26 1.547-.26.564 0 1.071.087 1.521.26a3.01 3.01 0 011.144.728c.312.32.551.715.715 1.183.165.46.247.98.247 1.56v.247h-4.953zm6.181 1.69c0-.208.039-.403.117-.585a1.495 1.495 0 011.404-.936c.208 0 .403.039.585.117a1.475 1.475 0 01.819.819 1.565 1.565 0 010 1.183 1.516 1.516 0 01-.325.481 1.475 1.475 0 01-.494.325 1.566 1.566 0 01-1.183 0 1.524 1.524 0 01-.806-.806 1.565 1.565 0 01-.117-.598z" fill="#fff"/></svg>