<svg width="169" height="19" viewBox="0 0 169 19" fill="none" xmlns="http://www.w3.org/2000/svg"><path d="M.556 13.016c0-.329.12-.613.36-.853s.527-.36.861-.36c.334 0 .621.12.862.36.24.24.36.527.36.861 0 .34-.12.63-.36.87a1.171 1.171 0 01-.862.352c-.345 0-.635-.117-.87-.351a1.192 1.192 0 01-.351-.88zm4.294 0c0-.329.12-.613.36-.853s.528-.36.862-.36c.334 0 .621.12.861.36s.36.527.36.861c0 .34-.12.63-.36.87a1.171 1.171 0 01-.861.352c-.346 0-.636-.117-.87-.351a1.192 1.192 0 01-.352-.88zm4.295 0c0-.329.12-.613.36-.853s.528-.36.862-.36c.334 0 .62.12.861.36.24.24.36.527.36.861 0 .34-.12.63-.36.87a1.171 1.171 0 01-.861.352c-.346 0-.636-.117-.87-.351a1.192 1.192 0 01-.352-.88zm3.731-7.224h2.896V6.8c.79-.757 1.675-1.136 2.656-1.136 1.216 0 2.144.512 2.784 1.536.65-1.035 1.579-1.552 2.784-1.552.384 0 .747.059 1.088.176.341.107.635.283.88.528.245.235.437.544.576.928.15.384.224.848.224 1.392V14h-2.896V9.952c0-.416-.032-.757-.096-1.024-.053-.267-.139-.475-.256-.624A.804.804 0 0023.132 8c-.15-.053-.31-.08-.48-.08-.928 0-1.392.677-1.392 2.032V14h-2.896V9.952c0-.416-.027-.757-.08-1.024-.053-.277-.133-.496-.24-.656a.7.7 0 00-.384-.32 1.502 1.502 0 00-.56-.096c-.181 0-.352.027-.512.08a.937.937 0 00-.432.32c-.117.15-.213.363-.288.64-.064.267-.096.619-.096 1.056V14h-2.896V5.792zm21.875 2.912a1.743 1.743 0 00-.592-.976c-.299-.245-.661-.368-1.088-.368-.448 0-.816.117-1.104.352-.277.235-.453.565-.528.992h3.312zm-3.392 1.68c0 1.248.587 1.872 1.76 1.872.63 0 1.104-.256 1.424-.768h2.8c-.565 1.877-1.979 2.816-4.24 2.816A5.702 5.702 0 0131.2 14a4.437 4.437 0 01-1.488-.896 4.01 4.01 0 01-.944-1.376c-.224-.533-.336-1.13-.336-1.792 0-.683.107-1.296.32-1.84a3.873 3.873 0 01.912-1.408c.395-.384.87-.677 1.424-.88.565-.213 1.2-.32 1.904-.32.693 0 1.317.107 1.872.32a3.708 3.708 0 011.408.896c.384.395.677.88.88 1.456.203.565.304 1.205.304 1.92v.304H31.36zm7.751-4.592h2.896v1.04c.395-.48.795-.8 1.2-.96.406-.17.88-.256 1.424-.256.576 0 1.067.096 1.472.288.416.181.768.443 1.056.784.235.277.395.587.48.928.086.341.128.73.128 1.168V14H44.87V9.856c0-.405-.032-.73-.096-.976a1.174 1.174 0 00-.304-.608A1.097 1.097 0 0044.038 8c-.16-.053-.33-.08-.512-.08-.49 0-.869.15-1.136.448-.256.288-.384.704-.384 1.248V14H39.11V5.792zm16.065 2.112c-.533-.277-1.056-.416-1.568-.416-.266 0-.485.053-.656.16a.495.495 0 00-.24.432c0 .096.011.176.032.24.032.053.091.107.176.16.096.053.23.101.4.144.182.043.416.096.704.16.8.16 1.398.448 1.792.864.395.405.592.928.592 1.568 0 .48-.096.912-.288 1.296-.192.384-.458.71-.8.976a3.781 3.781 0 01-1.232.592c-.48.15-1.008.224-1.584.224-1.109 0-2.202-.315-3.28-.944l1.056-2.048c.811.555 1.58.832 2.304.832.267 0 .486-.059.656-.176.171-.117.256-.267.256-.448a.576.576 0 00-.048-.256.34.34 0 00-.16-.192 1.091 1.091 0 00-.384-.16 5.533 5.533 0 00-.64-.16c-.896-.181-1.525-.448-1.888-.8-.352-.363-.528-.859-.528-1.488 0-.459.086-.87.256-1.232a2.55 2.55 0 01.736-.944 3.46 3.46 0 011.152-.592 5.238 5.238 0 011.52-.208 6.86 6.86 0 012.64.528l-.976 1.888zm5.39 1.968c0 .267.047.517.143.752.096.224.224.421.384.592.17.17.368.304.592.4a1.966 1.966 0 001.472 0 1.66 1.66 0 00.592-.4c.17-.17.304-.368.4-.592.107-.224.16-.464.16-.72 0-.256-.053-.496-.16-.72a1.829 1.829 0 00-.4-.608 1.66 1.66 0 00-.592-.4 1.966 1.966 0 00-1.472 0c-.224.096-.421.23-.592.4-.16.17-.288.368-.384.592a1.696 1.696 0 00-.144.704zm3.647-4.08h2.912V14h-2.912v-.912c-.619.779-1.456 1.168-2.512 1.168a4.166 4.166 0 01-1.648-.32 4.075 4.075 0 01-1.312-.928 4.356 4.356 0 01-.88-1.392 4.87 4.87 0 01-.304-1.744c0-.587.101-1.141.304-1.664.203-.533.485-.997.848-1.392a3.898 3.898 0 011.296-.928 3.876 3.876 0 011.664-.352c1.024 0 1.872.357 2.544 1.072v-.816zm8.076 0v12.304h-2.896V5.792h2.896zM69.2 2.64c0-.224.042-.432.128-.624.085-.203.202-.379.352-.528.149-.15.32-.267.512-.352a1.633 1.633 0 012.144.88 1.633 1.633 0 010 1.264 1.688 1.688 0 01-.352.512c-.15.15-.326.267-.528.352a1.633 1.633 0 01-1.264 0 1.688 1.688 0 01-.864-.864 1.633 1.633 0 01-.128-.64zm11.067 6.064a1.742 1.742 0 00-.592-.976c-.299-.245-.662-.368-1.088-.368-.448 0-.816.117-1.104.352-.278.235-.454.565-.528.992h3.312zm-3.392 1.68c0 1.248.586 1.872 1.76 1.872.629 0 1.104-.256 1.424-.768h2.8c-.566 1.877-1.979 2.816-4.24 2.816A5.702 5.702 0 0176.715 14a4.437 4.437 0 01-1.488-.896 4.01 4.01 0 01-.944-1.376c-.224-.533-.336-1.13-.336-1.792 0-.683.106-1.296.32-1.84a3.873 3.873 0 01.912-1.408c.394-.384.869-.677 1.424-.88.565-.213 1.2-.32 1.904-.32.693 0 1.317.107 1.872.32a3.707 3.707 0 011.408.896c.384.395.677.88.88 1.456.202.565.304 1.205.304 1.92v.304h-6.096zm13.191-2.48c-.533-.277-1.056-.416-1.568-.416-.267 0-.485.053-.656.16a.495.495 0 00-.24.432c0 .096.01.176.032.24.032.053.09.107.176.16.096.053.23.101.4.144.181.043.416.096.704.16.8.16 1.397.448 1.792.864.395.405.592.928.592 1.568 0 .48-.096.912-.288 1.296-.192.384-.459.71-.8.976a3.782 3.782 0 01-1.232.592c-.48.15-1.008.224-1.584.224-1.11 0-2.203-.315-3.28-.944l1.056-2.048c.81.555 1.579.832 2.304.832.267 0 .485-.059.656-.176.17-.117.256-.267.256-.448a.576.576 0 00-.048-.256.342.342 0 00-.16-.192 1.093 1.093 0 00-.384-.16 5.538 5.538 0 00-.64-.16c-.896-.181-1.525-.448-1.888-.8-.352-.363-.528-.859-.528-1.488 0-.459.085-.87.256-1.232a2.55 2.55 0 01.736-.944 3.46 3.46 0 011.152-.592 5.237 5.237 0 011.52-.208c.907 0 1.787.176 2.64.528l-.976 1.888zm10.826 1.968c0 .267.048.517.144.752.096.224.224.421.384.592.171.17.368.304.592.4.235.096.486.144.752.144.256 0 .496-.048.72-.144.235-.096.432-.23.592-.4.171-.17.304-.368.4-.592.107-.224.16-.464.16-.72 0-.256-.053-.496-.16-.72a1.823 1.823 0 00-.4-.608 1.657 1.657 0 00-.592-.4 1.927 1.927 0 00-1.456 0c-.224.096-.421.23-.592.4a2.32 2.32 0 00-.4.592 1.696 1.696 0 00-.144.704zM104.54.72h2.912V14h-2.912v-.912c-.618.779-1.456 1.168-2.512 1.168a3.997 3.997 0 01-2.96-1.264 4.358 4.358 0 01-.88-1.392 4.824 4.824 0 01-.304-1.728c0-.587.096-1.141.288-1.664a4.28 4.28 0 01.848-1.392 3.901 3.901 0 011.296-.928 3.984 3.984 0 011.68-.352c1.024 0 1.872.357 2.544 1.072V.72zm10.883 7.984a1.74 1.74 0 00-.592-.976c-.299-.245-.661-.368-1.088-.368-.448 0-.816.117-1.104.352-.277.235-.453.565-.528.992h3.312zm-3.392 1.68c0 1.248.587 1.872 1.76 1.872.629 0 1.104-.256 1.424-.768h2.8c-.565 1.877-1.979 2.816-4.24 2.816a5.704 5.704 0 01-1.904-.304 4.437 4.437 0 01-1.488-.896 4.015 4.015 0 01-.944-1.376c-.224-.533-.336-1.13-.336-1.792 0-.683.107-1.296.32-1.84a3.865 3.865 0 01.912-1.408 3.962 3.962 0 011.424-.88c.565-.213 1.2-.32 1.904-.32.693 0 1.317.107 1.872.32a3.705 3.705 0 011.408.896c.384.395.677.88.88 1.456.203.565.304 1.205.304 1.92v.304h-6.096zm16.421-2.176V14h-2.896V8.208h-.96V5.792h.96V3.328h2.896v2.464h1.648v2.416h-1.648zm8.893.496a1.746 1.746 0 00-.592-.976c-.299-.245-.662-.368-1.088-.368-.448 0-.816.117-1.104.352-.278.235-.454.565-.528.992h3.312zm-3.392 1.68c0 1.248.586 1.872 1.76 1.872.629 0 1.104-.256 1.424-.768h2.8c-.566 1.877-1.979 2.816-4.24 2.816a5.7 5.7 0 01-1.904-.304 4.437 4.437 0 01-1.488-.896 4.001 4.001 0 01-.944-1.376c-.224-.533-.336-1.13-.336-1.792 0-.683.106-1.296.32-1.84a3.865 3.865 0 01.912-1.408 3.953 3.953 0 011.424-.88c.565-.213 1.2-.32 1.904-.32.693 0 1.317.107 1.872.32a3.712 3.712 0 011.408.896c.384.395.677.88.88 1.456.202.565.304 1.205.304 1.92v.304h-6.096zm10.418-.832l-3.328-3.76h3.776l1.408 1.696 1.44-1.696h3.776l-3.408 3.76L152.147 14h-3.84l-2.096-2.432L144.099 14h-3.824l4.096-4.448zm12.003-1.344V14h-2.896V8.208h-.96V5.792h.96V3.328h2.896v2.464h1.648v2.416h-1.648zm5.613 1.648c0 .277.048.533.144.768.107.224.24.421.4.592.171.17.368.304.592.4a1.927 1.927 0 001.456 0c.235-.096.432-.23.592-.4.171-.17.304-.368.4-.592a1.79 1.79 0 00.16-.752c0-.256-.053-.496-.16-.72a1.823 1.823 0 00-.4-.608 1.657 1.657 0 00-.592-.4 1.927 1.927 0 00-1.456 0c-.224.096-.421.23-.592.4a2.32 2.32 0 00-.4.592 1.808 1.808 0 00-.144.72zm-3.056-.032c0-.608.123-1.173.368-1.696a4.078 4.078 0 011.024-1.376 4.809 4.809 0 011.552-.928 5.695 5.695 0 011.984-.336c.704 0 1.355.112 1.952.336a4.562 4.562 0 011.568.912c.448.384.795.848 1.04 1.392.245.533.368 1.125.368 1.776 0 .65-.128 1.248-.384 1.792a4.248 4.248 0 01-1.024 1.392 4.675 4.675 0 01-1.584.896 5.953 5.953 0 01-1.984.32 5.764 5.764 0 01-1.952-.32 4.592 4.592 0 01-1.552-.912 4.299 4.299 0 01-1.008-1.408 4.505 4.505 0 01-.368-1.84z" fill="#fff"/></svg>