<svg width="258" height="58" viewBox="0 0 258 58" fill="none" xmlns="http://www.w3.org/2000/svg"><rect x="1" y="1" width="256" height="56" rx="7" fill="#FFF98F" stroke="#FFFCCD" stroke-width="2"/><path d="M23.847 33.514h.945c.714 0 1.35-.112 1.91-.336a3.972 3.972 0 001.408-.924c.392-.392.686-.854.882-1.386.21-.546.315-1.141.315-1.785 0-.63-.105-1.218-.315-1.764a3.986 3.986 0 00-.903-1.407 3.972 3.972 0 00-1.407-.924c-.56-.224-1.19-.336-1.89-.336h-.945v8.862zM19.73 21.166h6.09c1.078 0 2.086.217 3.024.651a8.01 8.01 0 012.478 1.743 7.794 7.794 0 011.68 2.52c.406.952.609 1.953.609 3.003a7.677 7.677 0 01-.61 3.003 7.811 7.811 0 01-1.658 2.52 8.01 8.01 0 01-2.478 1.743A7.162 7.162 0 0125.82 37h-6.09V21.166zm25.517 3.486h-4.893v2.646h4.62v3.486h-4.62v2.73h4.893V37H36.24V21.166h9.01v3.486zm8.974 0V37h-4.116V24.652h-3.381v-3.486h10.878v3.486h-3.381zm14.22 0H63.55v2.646h4.62v3.486h-4.62v2.73h4.893V37h-9.01V21.166h9.01v3.486zm-.776-7.518l-4.032 2.772-1.596-1.491 3.423-3.276 2.205 1.995zM71.41 37V21.166h4.116l7.602 9.681v-9.681h4.095V37h-4.095l-7.602-9.681V37H71.41zm30.387-15.834v12.348h4.935V37h-9.051V21.166h4.116zm16.327 9.954l-1.848-5.271-1.848 5.271h3.696zm1.092 3.129h-5.88L112.391 37h-4.389l6.027-15.834h4.494L124.55 37h-4.389l-.945-2.751zm15.829-9.03a4.853 4.853 0 00-1.344-.798 3.45 3.45 0 00-1.302-.273c-.532 0-.966.126-1.302.378-.336.252-.504.581-.504.987 0 .28.084.511.252.693.168.182.385.343.651.483.28.126.588.238.924.336.35.098.693.203 1.029.315 1.344.448 2.324 1.05 2.94 1.806.63.742.945 1.715.945 2.919 0 .812-.14 1.547-.42 2.205a4.535 4.535 0 01-1.197 1.701c-.518.462-1.162.819-1.932 1.071-.756.266-1.617.399-2.583.399-2.002 0-3.857-.595-5.565-1.785l1.764-3.318c.616.546 1.225.952 1.827 1.218a4.391 4.391 0 001.785.399c.672 0 1.169-.154 1.491-.462.336-.308.504-.658.504-1.05a1.35 1.35 0 00-.126-.609 1.237 1.237 0 00-.42-.483 3.07 3.07 0 00-.777-.42 21.63 21.63 0 00-1.134-.42 29.845 29.845 0 01-1.575-.546 5.36 5.36 0 01-1.365-.819 3.977 3.977 0 01-.966-1.26c-.238-.518-.357-1.169-.357-1.953s.126-1.491.378-2.121c.266-.644.63-1.19 1.092-1.638a4.915 4.915 0 011.722-1.071c.686-.252 1.449-.378 2.289-.378a9.68 9.68 0 012.457.336c.854.21 1.673.525 2.457.945l-1.638 3.213zm21.028-.567h-4.893v2.646h4.62v3.486h-4.62v2.73h4.893V37h-9.009V21.166h9.009v3.486zm11.661.567a4.853 4.853 0 00-1.344-.798 3.45 3.45 0 00-1.302-.273c-.532 0-.966.126-1.302.378-.336.252-.504.581-.504.987 0 .28.084.511.252.693.168.182.385.343.651.483.28.126.588.238.924.336.35.098.693.203 1.029.315 1.344.448 2.324 1.05 2.94 1.806.63.742.945 1.715.945 2.919 0 .812-.14 1.547-.42 2.205a4.535 4.535 0 01-1.197 1.701c-.518.462-1.162.819-1.932 1.071-.756.266-1.617.399-2.583.399-2.002 0-3.857-.595-5.565-1.785l1.764-3.318c.616.546 1.225.952 1.827 1.218a4.391 4.391 0 001.785.399c.672 0 1.169-.154 1.491-.462.336-.308.504-.658.504-1.05a1.35 1.35 0 00-.126-.609 1.237 1.237 0 00-.42-.483 3.07 3.07 0 00-.777-.42 21.63 21.63 0 00-1.134-.42 29.845 29.845 0 01-1.575-.546 5.36 5.36 0 01-1.365-.819 3.977 3.977 0 01-.966-1.26c-.238-.518-.357-1.169-.357-1.953s.126-1.491.378-2.121c.266-.644.63-1.19 1.092-1.638a4.915 4.915 0 011.722-1.071c.686-.252 1.449-.378 2.289-.378a9.68 9.68 0 012.457.336c.854.21 1.673.525 2.457.945l-1.638 3.213zm10.991-.567V37h-4.116V24.652h-3.381v-3.486h10.878v3.486h-3.381zm13.083 6.468l-1.848-5.271-1.848 5.271h3.696zm1.092 3.129h-5.88L186.075 37h-4.389l6.027-15.834h4.494L198.234 37h-4.389l-.945-2.751zm16.207-9.597h-4.956v2.646h4.515v3.486h-4.515V37h-4.116V21.166h9.072v3.486zm10.407 6.468l-1.848-5.271-1.848 5.271h3.696zm1.092 3.129h-5.88L213.781 37h-4.389l6.027-15.834h4.494L225.94 37h-4.389l-.945-2.751zm15.829-9.03a4.853 4.853 0 00-1.344-.798 3.45 3.45 0 00-1.302-.273c-.532 0-.966.126-1.302.378-.336.252-.504.581-.504.987 0 .28.084.511.252.693.168.182.385.343.651.483.28.126.588.238.924.336.35.098.693.203 1.029.315 1.344.448 2.324 1.05 2.94 1.806.63.742.945 1.715.945 2.919 0 .812-.14 1.547-.42 2.205a4.535 4.535 0 01-1.197 1.701c-.518.462-1.162.819-1.932 1.071-.756.266-1.617.399-2.583.399-2.002 0-3.857-.595-5.565-1.785l1.764-3.318c.616.546 1.225.952 1.827 1.218a4.391 4.391 0 001.785.399c.672 0 1.169-.154 1.491-.462.336-.308.504-.658.504-1.05a1.35 1.35 0 00-.126-.609 1.237 1.237 0 00-.42-.483 3.07 3.07 0 00-.777-.42 21.63 21.63 0 00-1.134-.42 29.845 29.845 0 01-1.575-.546 5.36 5.36 0 01-1.365-.819 3.977 3.977 0 01-.966-1.26c-.238-.518-.357-1.169-.357-1.953s.126-1.491.378-2.121c.266-.644.63-1.19 1.092-1.638a4.915 4.915 0 011.722-1.071c.686-.252 1.449-.378 2.289-.378a9.68 9.68 0 012.457.336c.854.21 1.673.525 2.457.945l-1.638 3.213z" fill="#484240"/></svg>