<svg width="200" height="72" viewBox="0 0 200 72" fill="none" xmlns="http://www.w3.org/2000/svg"><path d="M8.398 18.492c0 1.938-1.064 2.964-3.23 2.964-2.204 0-3.268-.988-3.268-2.964 0-1.938 1.064-2.964 3.268-2.964 2.128 0 3.23 1.026 3.23 2.964zm10.696 0c0 1.938-1.064 2.964-3.23 2.964-2.204 0-3.268-.988-3.268-2.964 0-1.938 1.064-2.964 3.268-2.964 2.128 0 3.23 1.026 3.23 2.964zm10.697 0c0 1.938-1.064 2.964-3.23 2.964-2.204 0-3.268-.988-3.268-2.964 0-1.938 1.064-2.964 3.268-2.964 2.128 0 3.23 1.026 3.23 2.964zm25.37-9.766c0-1.824-.114-3.344-2.014-3.344-1.406 0-3.154.798-3.952 1.406v10.184c0 .608.038.684.608.76l1.824.266V21H41.139v-3.04l1.71-.228c.532-.076.608-.19.608-.76V5.8c0-.418-.114-.684-.494-.798L40.91 4.28l.456-3.078h6.65l.304 1.976.152.076c1.9-1.406 4.104-2.432 6.688-2.432 4.142 0 5.738 2.28 5.738 6.46v9.69c0 .608.038.684.608.76l1.9.266V21H55.16V8.726zm19.875 12.73c-6.954 0-9.766-4.256-9.766-10.222C65.27 4.926 68.576.822 75.53.822c7.03 0 9.766 4.18 9.766 9.994 0 6.46-3.268 10.64-10.26 10.64zm.266-3.99c2.47 0 3.99-1.71 3.99-6.46 0-4.484-1.368-6.08-3.838-6.08-2.508 0-4.18 1.558-4.18 6.118 0 4.598 1.482 6.422 4.028 6.422zM.988 59.922l1.71-.228c.532-.076.608-.19.608-.76V47.8c0-.418-.114-.684-.494-.798L.76 46.28l.418-3.078h6.688l.456 3.04h.228c1.254-1.938 2.926-3.42 5.358-3.42.874 0 2.622.152 3.306.342v6.916l-4.56-.152-.38-2.014c-.076-.342-.19-.418-.494-.418-.988 0-2.166.836-2.736 1.33v10.07c0 .608.038.722.608.76l3.762.304V63H.988v-3.078zm35.825 1.596c-2.356 1.14-4.94 1.938-7.79 1.938-7.334 0-9.842-4.56-9.842-10.488 0-6.878 4.218-10.146 9.424-10.146 5.016 0 8.36 2.622 8.36 9.196 0 .456-.038 1.786-.076 2.546H25.261c.19 2.698 1.368 4.484 4.484 4.484 1.482 0 3.078-.342 5.662-1.292l1.406 3.762zm-5.472-10.564c-.038-3.192-1.292-4.028-2.85-4.028-1.634 0-2.964.912-3.192 4.028h6.042zm19.4-3.762c-.075-.342-.113-.456-.38-.532-.493-.152-1.405-.304-2.431-.304-1.9 0-2.964.722-2.964 1.938 0 1.558 2.09 1.9 4.408 2.432 3.002.684 6.384 1.748 6.384 6.194 0 4.636-3.762 6.536-8.588 6.536-3.458 0-6.84-.912-7.524-1.368v-5.51l4.066.304.38 2.166c.076.342.114.456.456.57.456.152 1.482.38 2.926.38 2.014 0 3.154-.57 3.154-1.976 0-1.52-1.52-1.976-3.458-2.318-3.192-.57-7.372-1.254-7.372-6.232 0-4.712 4.028-6.65 8.398-6.65 3.002 0 5.928.684 6.992 1.102v5.51l-4.066-.266-.38-1.976zm7.384 20.824l1.52-.228c.532-.076.684-.228.684-.798V47.8c0-.418-.076-.646-.494-.798l-2.014-.722.418-3.078h6.688l.342 1.938.19.076c1.824-1.482 4.294-2.394 6.46-2.394 4.256 0 7.296 2.66 7.296 9.728 0 4.56-1.558 10.906-7.828 10.906-1.976 0-3.762-.646-5.358-1.9v5.396c0 .608.038.722.608.76l3.876.342v3.002H58.125v-3.04zm7.904-10.45c.836.722 2.166 1.444 3.572 1.444 2.546 0 3.61-2.432 3.61-6.156 0-3.914-1.33-5.51-3.23-5.51-1.596 0-3.116.798-3.952 1.368v8.854zm25.511 5.89c-6.954 0-9.766-4.256-9.766-10.222 0-6.308 3.306-10.412 10.26-10.412 7.03 0 9.767 4.18 9.767 9.994 0 6.46-3.269 10.64-10.26 10.64zm.266-3.99c2.47 0 3.99-1.71 3.99-6.46 0-4.484-1.368-6.08-3.838-6.08-2.507 0-4.18 1.558-4.18 6.118 0 4.598 1.482 6.422 4.028 6.422zm26.301-8.74c0-1.824-.114-3.344-2.014-3.344-1.406 0-3.154.798-3.952 1.406v10.184c0 .608.038.684.608.76l1.824.266V63h-10.488v-3.04l1.71-.228c.532-.076.608-.19.608-.76V47.8c0-.418-.114-.684-.494-.798l-2.052-.722.456-3.078h6.65l.304 1.976.152.076c1.9-1.406 4.104-2.432 6.688-2.432 4.142 0 5.738 2.28 5.738 6.46v9.69c0 .608.038.684.608.76l1.9.266V63h-8.246V50.726zm24.283 10.146l-.266-.038c-1.596 1.558-3.458 2.622-6.232 2.622-4.484 0-7.372-2.85-7.372-10.108 0-7.638 3.838-10.526 8.056-10.526 2.204 0 3.914.76 5.358 1.824V38.87c0-.38-.152-.646-.494-.76l-2.09-.722.418-3.078h7.638v24.7c0 .57.038.646.608.722l1.824.266V63h-7.068l-.38-2.128zm-.684-12.502c-.95-.646-2.166-1.14-3.268-1.14-2.812 0-3.914 2.622-3.914 6.004 0 3.686 1.064 5.738 3.458 5.738 1.292 0 2.698-.76 3.724-1.634V48.37zm22.471 12.578l-.19-.038c-1.444 1.406-3.344 2.546-6.384 2.546-4.788 0-5.548-3.268-5.548-5.624 0-3.8 2.318-5.51 7.106-5.852l4.37-.304v-2.09c0-1.786-.19-3.002-2.546-3.002-1.824 0-2.774.266-2.774 2.546l-5.358-.456c0-5.13 4.674-5.852 8.17-5.852 5.776 0 8.094 1.558 8.094 6.878v9.234c0 .608.038.684.608.76l1.824.304V63h-6.992l-.38-2.052zm-3.23-5.928c-2.242.152-3.04.722-3.04 2.242s.912 2.09 2.166 2.09c1.292 0 2.584-.722 3.458-1.368V54.83l-2.584.19zm23.627-7.828c-.076-.342-.114-.456-.38-.532-.494-.152-1.406-.304-2.432-.304-1.9 0-2.964.722-2.964 1.938 0 1.558 2.09 1.9 4.408 2.432 3.002.684 6.384 1.748 6.384 6.194 0 4.636-3.762 6.536-8.588 6.536-3.458 0-6.84-.912-7.524-1.368v-5.51l4.066.304.38 2.166c.076.342.114.456.456.57.456.152 1.482.38 2.926.38 2.014 0 3.154-.57 3.154-1.976 0-1.52-1.52-1.976-3.458-2.318-3.192-.57-7.372-1.254-7.372-6.232 0-4.712 4.028-6.65 8.398-6.65 3.002 0 5.928.684 6.992 1.102v5.51l-4.066-.266-.38-1.976zm14.832 13.3c0 1.938-1.064 2.964-3.23 2.964-2.204 0-3.268-.988-3.268-2.964 0-1.938 1.064-2.964 3.268-2.964 2.128 0 3.23 1.026 3.23 2.964z" fill="#fff"/></svg>