<svg width="240" height="78" viewBox="0 0 240 78" fill="none" xmlns="http://www.w3.org/2000/svg"><path d="M33.558 30V7.005h7.74V9.66c2.115-2.475 4.635-3.105 6.93-3.105 5.805 0 8.055 3.42 8.055 10.17V30h-8.19V17.76c0-2.61-.99-3.555-2.565-3.555-2.52 0-3.78 2.115-3.78 4.95V30h-8.19zm34.248.45c-6.93 0-8.37-4.32-8.37-10.17V7.005h8.19v12.24c0 2.43.81 3.555 2.97 3.555 2.475 0 3.375-2.115 3.375-4.95V7.005h8.19V30h-7.74v-2.52c-1.26 1.62-4.23 2.97-6.615 2.97zM85.765 30V7.005h7.74V9.66c2.115-2.475 4.635-3.105 6.93-3.105 5.805 0 8.055 3.42 8.055 10.17V30h-8.19V17.76c0-2.61-.99-3.555-2.565-3.555-2.52 0-3.78 2.115-3.78 4.95V30h-8.19zm38.073.45c-7.065 0-12.42-5.31-12.42-11.925 0-6.66 5.355-11.97 12.42-11.97 3.15 0 5.715.945 8.145 2.88l-4.725 5.67c-.855-.81-1.8-1.35-3.195-1.35-2.655 0-4.365 2.025-4.365 4.77 0 2.79 1.665 4.725 4.545 4.725 1.575 0 2.88-.675 3.87-1.665l4.095 6.03c-2.205 1.845-5.13 2.835-8.37 2.835zm19.32 0c-6.39 0-9.855-5.31-9.855-11.925 0-6.66 3.465-11.97 9.855-11.97 1.845 0 4.905.63 6.255 3.015V7.005h7.74V30h-7.74v-2.565c-1.26 2.34-4.41 3.015-6.255 3.015zm2.16-7.2c2.16 0 3.69-1.935 3.69-4.725 0-2.745-1.53-4.77-3.69-4.77s-3.69 2.025-3.69 4.77c0 2.79 1.53 4.725 3.69 4.725zM170.711 30V.39h8.19V30h-8.19zm23.747.45c-7.065 0-12.42-5.31-12.42-11.925 0-6.66 5.355-11.97 12.42-11.97 7.065 0 12.42 5.31 12.42 11.97 0 6.615-5.355 11.925-12.42 11.925zm0-7.2c2.43 0 4.14-1.935 4.14-4.725 0-2.745-1.71-4.77-4.14-4.77-2.43 0-4.14 2.025-4.14 4.77 0 2.79 1.71 4.725 4.14 4.725zm-181.89 48.2c-7.064 0-12.42-5.31-12.42-11.925 0-6.66 5.356-11.97 12.42-11.97 3.15 0 5.716.945 8.146 2.88l-4.725 5.67c-.855-.81-1.8-1.35-3.195-1.35-2.655 0-4.365 2.025-4.365 4.77 0 2.79 1.665 4.725 4.545 4.725 1.575 0 2.88-.675 3.87-1.665l4.095 6.03c-2.205 1.845-5.13 2.835-8.37 2.835zm21.886 0c-7.065 0-12.42-5.31-12.42-11.925 0-6.66 5.355-11.97 12.42-11.97 7.065 0 12.42 5.31 12.42 11.97 0 6.615-5.355 11.925-12.42 11.925zm0-7.2c2.43 0 4.14-1.935 4.14-4.725 0-2.745-1.71-4.77-4.14-4.77-2.43 0-4.14 2.025-4.14 4.77 0 2.79 1.71 4.725 4.14 4.725zM50.037 71V48.005h7.74v2.52c1.71-1.935 4.365-2.97 6.93-2.97 3.69 0 5.67 1.485 6.75 3.555 1.98-2.88 5.04-3.555 7.335-3.555 7.425 0 8.055 5.985 8.055 10.62V71h-8.19V59.12c0-2.745-.765-4.005-2.565-4.005-2.43 0-3.555 2.205-3.555 5.04V71h-8.19V59.12c0-2.745-.765-4.005-2.565-4.005-2.43 0-3.555 2.205-3.555 5.04V71h-8.19zm40.166 6.615v-29.61h7.74v2.565c1.845-2.475 4.41-3.015 6.255-3.015 6.39 0 9.855 5.31 9.855 11.925 0 6.66-3.69 11.97-10.125 11.97-1.845 0-4.14-.63-5.535-2.385v8.55h-8.19zm11.79-13.365c2.16 0 3.69-1.935 3.69-4.725 0-2.745-1.53-4.77-3.69-4.77s-3.69 2.025-3.69 4.77c0 2.79 1.53 4.725 3.69 4.725zm24.598 7.2c-6.39 0-9.855-5.31-9.855-11.925 0-6.66 3.465-11.97 9.855-11.97 1.845 0 4.905.63 6.255 3.015v-2.565h7.74V71h-7.74v-2.565c-1.26 2.34-4.41 3.015-6.255 3.015zm2.16-7.2c2.16 0 3.69-1.935 3.69-4.725 0-2.745-1.53-4.77-3.69-4.77s-3.69 2.025-3.69 4.77c0 2.79 1.53 4.725 3.69 4.725zM144.168 71V48.005h7.965V52.1c.135-.99 2.115-4.545 7.515-4.545v8.91c-5.94 0-7.29 2.475-7.29 6.795V71h-8.19zm28.252.45c-4.41 0-7.29-2.835-7.29-7.875v-9.09h-3.375v-6.48h3.375v-4.14l8.19-2.025v6.165h5.085v6.48h-5.085v8.46c0 1.08.54 1.44 1.26 1.44.675 0 1.485-.315 2.07-.72l2.205 5.985c-1.98 1.395-4.41 1.8-6.435 1.8zm17.979 0c-6.39 0-9.855-5.31-9.855-11.925 0-6.66 3.465-11.97 9.855-11.97 1.845 0 4.905.63 6.255 3.015v-2.565h7.74V71h-7.74v-2.565c-1.26 2.34-4.41 3.015-6.255 3.015zm2.16-7.2c2.16 0 3.69-1.935 3.69-4.725 0-2.745-1.53-4.77-3.69-4.77s-3.69 2.025-3.69 4.77c0 2.79 1.53 4.725 3.69 4.725zm23.878 7.2c-5.265 0-8.19-1.575-9.54-2.745l2.61-5.76c1.8 1.215 3.465 1.935 6.975 1.935.09 0 2.25-.135 2.25-1.035 0-.72-1.35-.855-2.7-1.17-4.995-1.215-8.685-3.24-8.685-7.47 0-5.04 4.59-7.65 9.45-7.65 4.455 0 7.11.99 9.315 2.16l-2.43 5.49c-2.655-1.035-5.085-1.35-6.615-1.35-.81 0-1.44.27-1.44.72 0 .855 1.935 1.17 4.23 1.8 3.24.945 7.155 2.52 7.155 7.155 0 6.165-6.255 7.92-10.575 7.92zm18.064 0c-2.565 0-4.455-1.935-4.455-4.41s1.89-4.41 4.455-4.41c2.61 0 4.545 1.935 4.545 4.41s-1.935 4.41-4.545 4.41z" fill="#0B2E54"/></svg>