<svg width="293" height="27" viewBox="0 0 293 27" fill="none" xmlns="http://www.w3.org/2000/svg"><path d="M14.745 14.556H3.41c.165 1.025.601 1.841 1.311 2.444.71.606 1.618.908 2.721.908 1.319 0 2.452-.473 3.4-1.417l2.972 1.43c-.74 1.079-1.628 1.874-2.662 2.392-1.035.517-2.262.775-3.682.775-2.206 0-4.001-.713-5.388-2.14C.695 17.52 0 15.734 0 13.587c0-2.148.692-4.028 2.074-5.481 1.382-1.454 3.117-2.179 5.203-2.179 2.214 0 4.014.728 5.401 2.179 1.387 1.453 2.082 3.372 2.082 5.759l-.012.689-.003.002zm-3.527-2.85a3.618 3.618 0 00-1.38-1.96c-.687-.504-1.48-.756-2.388-.756-.984 0-1.846.283-2.59.847-.466.354-.897.975-1.295 1.87H11.218zM25.745 8.313l-2.183 2.239C22.674 9.65 21.868 9.2 21.145 9.2c-.395 0-.707.086-.93.257-.226.172-.335.388-.335.643 0 .195.071.374.213.535.142.164.492.388 1.052.668l1.294.663c1.361.69 2.297 1.391 2.804 2.106.507.715.763 1.555.763 2.517 0 1.282-.459 2.35-1.377 3.206-.918.858-2.147 1.284-3.689 1.284-2.051 0-3.687-.821-4.912-2.464l2.17-2.426c.414.494.898.894 1.454 1.198.555.305 1.05.458 1.48.458.467 0 .84-.114 1.124-.343.284-.229.426-.494.426-.796 0-.556-.512-1.1-1.537-1.63l-1.189-.608c-2.274-1.176-3.41-2.647-3.41-4.413 0-1.138.428-2.113 1.285-2.922.857-.809 1.955-1.212 3.289-1.212.913 0 1.772.206 2.579.617a5.753 5.753 0 012.049 1.768l-.003.007zM29.437 16.94c.56 0 1.04.2 1.435.603.396.403.594.89.594 1.464 0 .575-.198 1.066-.594 1.472a1.932 1.932 0 01-1.435.608c-.56 0-1.037-.203-1.435-.608a2.032 2.032 0 01-.593-1.472c0-.575.198-1.064.593-1.464a1.937 1.937 0 011.435-.603zM37.148 1.225h3.524l4.41 13.598L49.53 1.225h3.524l3.193 19.495H52.75L50.71 8.41 46.67 20.72h-3.192L39.476 8.41l-2.087 12.31h-3.532l3.29-19.495zM72.693 14.56H61.358c.162 1.026.601 1.84 1.311 2.446.71.603 1.618.907 2.723.907 1.319 0 2.452-.473 3.4-1.42l2.975 1.433c-.74 1.077-1.628 1.877-2.665 2.395-1.035.517-2.262.775-3.684.775-2.206 0-4.002-.713-5.391-2.14-1.387-1.428-2.082-3.214-2.082-5.359s.69-4.027 2.074-5.478c1.385-1.45 3.12-2.179 5.203-2.179 2.214 0 4.015.728 5.402 2.179 1.386 1.456 2.081 3.372 2.081 5.756l-.012.69h-.005l.005-.006zm-3.53-2.85a3.631 3.631 0 00-1.38-1.96c-.687-.505-1.48-.757-2.388-.757-.984 0-1.846.283-2.591.847-.467.354-.9.978-1.296 1.87h7.655zM85.612.732h3.53v19.984h-3.53v-1.524c-.69.671-1.38 1.157-2.072 1.451a5.7 5.7 0 01-2.254.445c-1.815 0-3.385-.723-4.711-2.166-1.326-1.443-1.99-3.24-1.99-5.387 0-2.148.638-4.051 1.924-5.476 1.283-1.422 2.837-2.135 4.673-2.135.844 0 1.636.164 2.376.49.74.324 1.423.818 2.051 1.47V.733h.003zM81.9 9.268c-1.09 0-1.998.393-2.719 1.186-.72.79-1.082 1.804-1.082 3.042 0 1.237.367 2.27 1.1 3.073.733.803 1.636 1.204 2.71 1.204 1.076 0 2.03-.393 2.757-1.186.73-.79 1.093-1.825 1.093-3.11 0-1.284-.365-2.27-1.093-3.05-.73-.774-1.65-1.164-2.769-1.164v.005h.003zM94.132.363c.616 0 1.148.23 1.59.689.44.46.664 1.016.664 1.669 0 .652-.22 1.196-.66 1.65-.438.453-.96.685-1.569.685a2.16 2.16 0 01-1.605-.697 2.366 2.366 0 01-.664-1.69c0-.663.218-1.18.654-1.63.438-.45.966-.676 1.585-.676h.005zm-1.765 5.935h3.53v14.417h-3.53V6.298zM112.762 9.218l-2.936 1.659c-.551-.593-1.098-1.001-1.636-1.232-.54-.232-1.171-.346-1.897-.346-1.318 0-2.388.4-3.202 1.209-.814.806-1.222 1.84-1.222 3.102 0 1.26.39 2.225 1.179 3.005.783.775 1.815 1.165 3.093 1.165 1.577 0 2.807-.554 3.687-1.659l2.779 1.953c-1.509 2.012-3.636 3.018-6.387 3.018-2.475 0-4.41-.75-5.809-2.254-1.4-1.503-2.103-3.26-2.103-5.275a7.59 7.59 0 011.02-3.856 7.346 7.346 0 012.85-2.772c1.217-.67 2.584-1.006 4.09-1.006 1.397 0 2.65.286 3.76.856a7.149 7.149 0 012.726 2.433v.005l.008-.005zM125.024 6.298h3.53v14.417h-3.53v-1.524c-.69.671-1.379 1.157-2.072 1.451a5.698 5.698 0 01-2.254.445c-1.815 0-3.385-.723-4.711-2.166-1.326-1.443-1.991-3.24-1.991-5.387 0-2.148.639-4.051 1.925-5.476 1.283-1.422 2.837-2.134 4.673-2.134.844 0 1.636.163 2.376.488.74.325 1.423.82 2.051 1.472V6.293v.005h.003zm-3.712 2.97c-1.091 0-1.998.392-2.719 1.185-.72.79-1.082 1.804-1.082 3.042 0 1.237.367 2.27 1.1 3.073.733.803 1.636 1.204 2.711 1.204s2.028-.393 2.756-1.186c.73-.79 1.093-1.825 1.093-3.11 0-1.284-.365-2.27-1.093-3.05-.73-.774-1.651-1.164-2.769-1.164v.005h.003zM131.548 6.298h3.025v1.818c.324-.715.763-1.261 1.306-1.63a3.102 3.102 0 011.782-.557c.457 0 .936.122 1.435.37l-1.098 3.112c-.416-.211-.753-.318-1.019-.318-.543 0-1.002.346-1.377 1.035-.375.69-.563 2.041-.563 4.056l.013.705v5.832h-3.502V6.298h-.005.003zM154.199 14.56h-11.334c.162 1.026.601 1.84 1.311 2.446.71.603 1.617.907 2.723.907 1.318 0 2.452-.473 3.4-1.42l2.975 1.433c-.741 1.077-1.628 1.877-2.665 2.395-1.035.517-2.262.775-3.685.775-2.206 0-4.001-.713-5.391-2.14-1.387-1.428-2.081-3.214-2.081-5.359s.689-4.027 2.074-5.478c1.384-1.45 3.119-2.179 5.203-2.179 2.214 0 4.014.728 5.401 2.179 1.387 1.456 2.082 3.372 2.082 5.756l-.013.69h-.005l.005-.006zm-3.53-2.85a3.627 3.627 0 00-1.379-1.96c-.685-.503-1.481-.757-2.389-.757-.983 0-1.846.283-2.591.847-.467.354-.9.978-1.296 1.87h7.655zM157.835 16.943c.558 0 1.04.202 1.436.603.395.4.593.892.593 1.464s-.198 1.066-.593 1.471a1.939 1.939 0 01-1.436.609 1.938 1.938 0 01-1.435-.609 2.03 2.03 0 01-.593-1.471c0-.578.198-1.061.593-1.464.396-.4.878-.603 1.435-.603zM172.804 6.298h3.517v12.35c0 2.437-.477 4.23-1.435 5.38-1.283 1.555-3.218 2.335-5.805 2.335-1.379 0-2.535-.175-3.478-.528-.939-.354-1.735-.871-2.376-1.558-.647-.683-1.124-1.518-1.436-2.496h3.89c.345.406.786.713 1.331.923.543.208 1.187.31 1.927.31.946 0 1.71-.151 2.288-.45.578-.302.983-.689 1.222-1.165.236-.478.357-1.3.357-2.465-.621.637-1.273 1.095-1.95 1.373-.682.278-1.45.419-2.315.419-1.889 0-3.481-.697-4.782-2.096-1.298-1.396-1.95-3.161-1.95-5.301 0-2.286.69-4.126 2.067-5.515 1.247-1.253 2.741-1.88 4.47-1.88.812 0 1.575.151 2.295.458.72.307 1.443.806 2.163 1.503V6.298zm-3.657 3.011c-1.113 0-2.028.382-2.753 1.144-.726.764-1.086 1.727-1.086 2.884 0 1.157.373 2.186 1.114 2.953.74.767 1.671 1.152 2.791 1.152 1.121 0 1.998-.374 2.706-1.126.71-.751 1.067-1.737 1.067-2.953 0-1.217-.357-2.18-1.075-2.93-.712-.752-1.635-1.126-2.764-1.126v.002zM186.273 5.93c1.327 0 2.574.343 3.743 1.021a7.278 7.278 0 012.734 2.772 7.594 7.594 0 01.981 3.778c0 1.352-.33 2.631-.989 3.817a7.194 7.194 0 01-2.696 2.774c-1.136.668-2.393 1-3.76 1-2.016 0-3.738-.735-5.165-2.206-1.428-1.472-2.14-3.256-2.14-5.36 0-2.253.806-4.13 2.416-5.633 1.413-1.308 3.035-1.96 4.874-1.96l.005-.006-.003.003zm.059 3.408c-1.098 0-2.009.39-2.739 1.173-.73.782-1.093 1.78-1.093 3.003 0 1.222.36 2.27 1.083 3.05.72.78 1.633 1.164 2.739 1.164 1.105 0 2.023-.392 2.756-1.18.733-.788 1.1-1.797 1.1-3.034 0-1.238-.36-2.244-1.082-3.014-.721-.772-1.641-1.162-2.764-1.162zM194.085 6.3h3.596l3.552 8.509 3.545-8.51h3.575l-5.984 14.417h-2.287L194.083 6.3h.005-.003zM208.917 24.21L217.5.547h2.538L211.44 24.21h-2.523zM223.72 1.107h10.529v3.64h-6.915v3.56h4.493v3.585h-4.493v8.824h-3.614V1.104v.003zM236.104 6.213h3.043v1.825c.33-.72.769-1.266 1.314-1.64a3.1 3.1 0 011.795-.56c.459 0 .941.126 1.443.375l-1.106 3.133c-.416-.213-.758-.32-1.027-.32-.545 0-1.006.346-1.384 1.04-.378.695-.566 2.054-.566 4.08l.013.707v5.866h-3.522V6.213h-.003zM255.893 6.213h3.55V20.72h-3.55v-1.534c-.693.676-1.387 1.162-2.085 1.458a5.69 5.69 0 01-2.267.447c-1.825 0-3.408-.725-4.739-2.178-1.334-1.454-2-3.26-2-5.419 0-2.158.644-4.074 1.934-5.507 1.291-1.43 2.858-2.147 4.701-2.147.85 0 1.646.164 2.389.494.746.33 1.433.821 2.064 1.48v-1.6h.003zm-3.73 2.988c-1.098 0-2.009.397-2.734 1.193-.725.796-1.088 1.815-1.088 3.06 0 1.246.371 2.286 1.109 3.094.737.809 1.648 1.215 2.728 1.215 1.08 0 2.039-.398 2.774-1.194.735-.795 1.1-1.838 1.1-3.125s-.367-2.283-1.1-3.066c-.735-.782-1.663-1.172-2.787-1.172l-.002-.005zM263.018 6.212h3.588v6.986c0 1.36.091 2.303.274 2.834.182.528.476.941.88 1.232.403.291.9.44 1.493.44.594 0 1.093-.146 1.506-.435.414-.288.72-.712.918-1.274.147-.418.221-1.31.221-2.68V6.209h3.55v6.146c0 2.533-.195 4.267-.586 5.2-.477 1.14-1.179 2.01-2.107 2.621-.928.609-2.107.913-3.537.913-1.552 0-2.807-.356-3.763-1.066-.959-.71-1.631-1.703-2.021-2.972-.277-.879-.416-2.48-.416-4.8v-6.04zM289.45.612H293v20.103h-3.55v-1.534c-.692.676-1.387 1.162-2.084 1.459a5.693 5.693 0 01-2.267.447c-1.826 0-3.408-.726-4.739-2.179-1.334-1.453-2.001-3.26-2.001-5.418 0-2.158.644-4.075 1.935-5.507 1.29-1.43 2.857-2.148 4.701-2.148.849 0 1.646.164 2.388.494.746.33 1.433.822 2.065 1.48v-7.2l.002.003zm-3.73 8.585c-1.098 0-2.008.398-2.733 1.193-.726.796-1.088 1.815-1.088 3.06 0 1.246.37 2.286 1.108 3.095.738.808 1.648 1.214 2.728 1.214 1.08 0 2.039-.398 2.774-1.194.736-.795 1.101-1.838 1.101-3.125s-.368-2.283-1.101-3.065c-.735-.783-1.663-1.173-2.786-1.173l-.003-.005z" fill="#fff"/></svg>