<svg width="562" height="33" viewBox="0 0 562 33" fill="none" xmlns="http://www.w3.org/2000/svg"><path d="M6.456 9.296v13.312c0 .512.032.576.512.64l2.144.256V26H.216v-2.496l2.016-.224c.448-.064.512-.16.512-.64V6.192c0-.48-.032-.576-.512-.64L.216 5.328V2.832h7.936L18.2 19.568V6.256c0-.48-.032-.576-.512-.64l-2.016-.224v-2.56h8.896v2.56l-2.144.256c-.48.064-.512.128-.512.608V26h-5.248L6.456 9.296zm27.796 17.088c-5.856 0-8.224-3.584-8.224-8.608 0-5.312 2.784-8.768 8.64-8.768 5.92 0 8.224 3.52 8.224 8.416 0 5.44-2.752 8.96-8.64 8.96zm.224-3.36c2.08 0 3.36-1.44 3.36-5.44 0-3.776-1.152-5.12-3.232-5.12-2.112 0-3.52 1.312-3.52 5.152 0 3.872 1.248 5.408 3.392 5.408zm17.222.384l1.44-.192c.448-.064.512-.16.512-.64V13.2c0-.352-.096-.576-.416-.672l-1.728-.608.352-2.592h5.632l.384 2.56h.192c1.056-1.632 2.464-2.88 4.512-2.88.736 0 2.208.128 2.784.288v5.824l-3.84-.128-.32-1.696c-.064-.288-.16-.352-.416-.352-.832 0-1.824.704-2.304 1.12v8.48c0 .512.032.608.512.64l3.168.256V26H51.698v-2.592zm30.169 1.344c-1.984.96-4.16 1.632-6.56 1.632-6.176 0-8.288-3.84-8.288-8.832 0-5.792 3.552-8.544 7.936-8.544 4.224 0 7.04 2.208 7.04 7.744 0 .384-.032 1.504-.064 2.144h-9.792c.16 2.272 1.152 3.776 3.776 3.776 1.248 0 2.592-.288 4.768-1.088l1.184 3.168zm-4.608-8.896c-.032-2.688-1.088-3.392-2.4-3.392-1.376 0-2.496.768-2.688 3.392h5.088zm16.337-3.168c-.064-.288-.096-.384-.32-.448-.416-.128-1.184-.256-2.048-.256-1.6 0-2.496.608-2.496 1.632 0 1.312 1.76 1.6 3.712 2.048 2.528.576 5.376 1.472 5.376 5.216 0 3.904-3.168 5.504-7.232 5.504-2.912 0-5.76-.768-6.336-1.152v-4.64l3.424.256.32 1.824c.064.288.096.384.384.48.384.128 1.248.32 2.464.32 1.696 0 2.656-.48 2.656-1.664 0-1.28-1.28-1.664-2.912-1.952-2.688-.48-6.208-1.056-6.208-5.248 0-3.968 3.392-5.6 7.072-5.6 2.528 0 4.992.576 5.888.928v4.64l-3.424-.224-.32-1.664zm6.218 17.536l1.28-.192c.448-.064.576-.192.576-.672V13.2c0-.352-.064-.544-.416-.672l-1.696-.608.352-2.592h5.632l.288 1.632.16.064c1.536-1.248 3.616-2.016 5.44-2.016 3.584 0 6.144 2.24 6.144 8.192 0 3.84-1.312 9.184-6.592 9.184-1.664 0-3.168-.544-4.512-1.6v4.544c0 .512.032.608.512.64l3.264.288v2.528H99.814v-2.56zm6.656-8.8c.704.608 1.824 1.216 3.008 1.216 2.144 0 3.04-2.048 3.04-5.184 0-3.296-1.12-4.64-2.72-4.64-1.344 0-2.624.672-3.328 1.152v7.456zm21.483 4.96c-5.856 0-8.224-3.584-8.224-8.608 0-5.312 2.784-8.768 8.64-8.768 5.92 0 8.224 3.52 8.224 8.416 0 5.44-2.752 8.96-8.64 8.96zm.224-3.36c2.08 0 3.36-1.44 3.36-5.44 0-3.776-1.152-5.12-3.232-5.12-2.112 0-3.52 1.312-3.52 5.152 0 3.872 1.248 5.408 3.392 5.408zm22.148-7.36c0-1.536-.096-2.816-1.696-2.816-1.184 0-2.656.672-3.328 1.184v8.576c0 .512.032.576.512.64l1.536.224V26h-8.832v-2.56l1.44-.192c.448-.064.512-.16.512-.64V13.2c0-.352-.096-.576-.416-.672l-1.728-.608.384-2.592h5.6l.256 1.664.128.064c1.6-1.184 3.456-2.048 5.632-2.048 3.488 0 4.832 1.92 4.832 5.44v8.16c0 .512.032.576.512.64l1.6.224V26h-6.944V15.664zm20.449 8.544l-.224-.032c-1.344 1.312-2.912 2.208-5.248 2.208-3.776 0-6.208-2.4-6.208-8.512 0-6.432 3.232-8.864 6.784-8.864 1.856 0 3.296.64 4.512 1.536V5.68c0-.32-.128-.544-.416-.64l-1.76-.608.352-2.592h6.432v20.8c0 .48.032.544.512.608l1.536.224V26h-5.952l-.32-1.792zm-.576-10.528c-.8-.544-1.824-.96-2.752-.96-2.368 0-3.296 2.208-3.296 5.056 0 3.104.896 4.832 2.912 4.832 1.088 0 2.272-.64 3.136-1.376V13.68zm18.922 10.592l-.16-.032c-1.216 1.184-2.816 2.144-5.376 2.144-4.032 0-4.672-2.752-4.672-4.736 0-3.2 1.952-4.64 5.984-4.928l3.68-.256v-1.76c0-1.504-.16-2.528-2.144-2.528-1.536 0-2.336.224-2.336 2.144l-4.512-.384c0-4.32 3.936-4.928 6.88-4.928 4.864 0 6.816 1.312 6.816 5.792v7.776c0 .512.032.576.512.64l1.536.256V26h-5.888l-.32-1.728zm-2.72-4.992c-1.888.128-2.56.608-2.56 1.888 0 1.28.768 1.76 1.824 1.76 1.088 0 2.176-.608 2.912-1.152V19.12l-2.176.16zm19.897-6.592c-.064-.288-.096-.384-.32-.448-.416-.128-1.184-.256-2.048-.256-1.6 0-2.496.608-2.496 1.632 0 1.312 1.76 1.6 3.712 2.048 2.528.576 5.376 1.472 5.376 5.216 0 3.904-3.168 5.504-7.232 5.504-2.912 0-5.76-.768-6.336-1.152v-4.64l3.424.256.32 1.824c.064.288.096.384.384.48.384.128 1.248.32 2.464.32 1.696 0 2.656-.48 2.656-1.664 0-1.28-1.28-1.664-2.912-1.952-2.688-.48-6.208-1.056-6.208-5.248 0-3.968 3.392-5.6 7.072-5.6 2.528 0 4.992.576 5.888.928v4.64l-3.424-.224-.32-1.664zm12.49 11.2c0 1.632-.896 2.496-2.72 2.496-1.856 0-2.752-.832-2.752-2.496 0-1.632.896-2.496 2.752-2.496 1.792 0 2.72.864 2.72 2.496z" fill="#8F3FB0"/><path d="M228.727 23.472l2.016-.224c.448-.064.512-.16.512-.64V6.256c0-.48-.032-.576-.512-.64l-2.016-.224v-2.56h10.848c5.92 0 7.712 3.136 7.712 6.816 0 5.568-3.36 7.808-8.768 7.808h-2.336v5.12c0 .512.064.608.512.64l4.576.256V26h-12.544v-2.528zm9.056-9.44c2.112 0 4.448-.48 4.448-4.096 0-3.072-1.888-3.616-4.16-3.616h-1.888v7.712h1.6zm18.73 12.352c-5.856 0-8.224-3.584-8.224-8.608 0-5.312 2.784-8.768 8.64-8.768 5.92 0 8.224 3.52 8.224 8.416 0 5.44-2.752 8.96-8.64 8.96zm.224-3.36c2.08 0 3.36-1.44 3.36-5.44 0-3.776-1.152-5.12-3.232-5.12-2.112 0-3.52 1.312-3.52 5.152 0 3.872 1.248 5.408 3.392 5.408zm22.402 1.184l-.224-.032c-1.344 1.312-2.912 2.208-5.248 2.208-3.776 0-6.208-2.4-6.208-8.512 0-6.432 3.232-8.864 6.784-8.864 1.856 0 3.296.64 4.512 1.536V5.68c0-.32-.128-.544-.416-.64l-1.76-.608.352-2.592h6.432v20.8c0 .48.032.544.512.608l1.536.224V26h-5.952l-.32-1.792zm-.576-10.528c-.8-.544-1.824-.96-2.752-.96-2.368 0-3.296 2.208-3.296 5.056 0 3.104.896 4.832 2.912 4.832 1.088 0 2.272-.64 3.136-1.376V13.68zm8.49 9.728l1.44-.192c.448-.064.512-.16.512-.64V13.2c0-.352-.096-.576-.416-.672l-1.728-.608.352-2.592h5.632l.384 2.56h.192c1.056-1.632 2.464-2.88 4.512-2.88.736 0 2.208.128 2.784.288v5.824l-3.84-.128-.32-1.696c-.064-.288-.16-.352-.416-.352-.832 0-1.824.704-2.304 1.12v8.48c0 .512.032.608.512.64l3.168.256V26h-10.464v-2.592zm15.253.064l1.632-.224c.448-.064.512-.16.512-.64V13.2c0-.352-.096-.576-.416-.672l-1.728-.608.352-2.592h6.624v13.28c0 .512.032.576.512.64l1.632.224V26h-9.12v-2.528zm.288-16.96L307.49.944l2.624 2.496-5.728 4.672-1.792-1.6zm20.781 17.76l-.16-.032c-1.216 1.184-2.816 2.144-5.376 2.144-4.032 0-4.672-2.752-4.672-4.736 0-3.2 1.952-4.64 5.984-4.928l3.68-.256v-1.76c0-1.504-.16-2.528-2.144-2.528-1.536 0-2.336.224-2.336 2.144l-4.512-.384c0-4.32 3.936-4.928 6.88-4.928 4.864 0 6.816 1.312 6.816 5.792v7.776c0 .512.032.576.512.64l1.536.256V26h-5.888l-.32-1.728zm-2.72-4.992c-1.888.128-2.56.608-2.56 1.888 0 1.28.768 1.76 1.824 1.76 1.088 0 2.176-.608 2.912-1.152V19.12l-2.176.16zm26.874-6.592c-.064-.288-.096-.384-.32-.448-.416-.128-1.184-.256-2.048-.256-1.6 0-2.496.608-2.496 1.632 0 1.312 1.76 1.6 3.712 2.048 2.528.576 5.376 1.472 5.376 5.216 0 3.904-3.168 5.504-7.232 5.504-2.912 0-5.76-.768-6.336-1.152v-4.64l3.424.256.32 1.824c.064.288.096.384.384.48.384.128 1.248.32 2.464.32 1.696 0 2.656-.48 2.656-1.664 0-1.28-1.28-1.664-2.912-1.952-2.688-.48-6.208-1.056-6.208-5.248 0-3.968 3.392-5.6 7.072-5.6 2.528 0 4.992.576 5.888.928v4.64l-3.424-.224-.32-1.664zm21.129 12.064c-1.984.96-4.16 1.632-6.56 1.632-6.176 0-8.288-3.84-8.288-8.832 0-5.792 3.552-8.544 7.936-8.544 4.224 0 7.04 2.208 7.04 7.744 0 .384-.032 1.504-.064 2.144h-9.792c.16 2.272 1.152 3.776 3.776 3.776 1.248 0 2.592-.288 4.768-1.088l1.184 3.168zm-4.608-8.896c-.032-2.688-1.088-3.392-2.4-3.392-1.376 0-2.496.768-2.688 3.392h5.088zm6.861 7.552l1.44-.192c.448-.064.512-.16.512-.64V13.2c0-.352-.096-.576-.416-.672l-1.728-.608.352-2.592h5.632l.384 2.56h.192c1.056-1.632 2.464-2.88 4.512-2.88.736 0 2.208.128 2.784.288v5.824l-3.84-.128-.32-1.696c-.064-.288-.16-.352-.416-.352-.832 0-1.824.704-2.304 1.12v8.48c0 .512.032.608.512.64l3.168.256V26h-10.464v-2.592zm34.586.864l-.16-.032c-1.312.992-2.976 2.144-5.696 2.144-3.36 0-4.64-1.92-4.64-5.632v-7.808c0-.512-.032-.576-.512-.672l-1.536-.32.32-2.624h6.56V19.92c0 1.952.32 2.688 1.696 2.688 1.408 0 2.56-.8 3.296-1.472v-8.224c0-.512-.032-.544-.512-.64l-1.376-.32.352-2.624h6.368v13.28c0 .416.064.544.448.608l1.6.224V26h-5.952l-.256-1.728zm19.713-8.608c0-1.536-.096-2.816-1.696-2.816-1.184 0-2.656.672-3.328 1.184v8.576c0 .512.032.576.512.64l1.536.224V26h-8.832v-2.56l1.44-.192c.448-.064.512-.16.512-.64V13.2c0-.352-.096-.576-.416-.672l-1.728-.608.384-2.592h5.6l.256 1.664.128.064c1.6-1.184 3.456-2.048 5.632-2.048 3.488 0 4.832 1.92 4.832 5.44v8.16c0 .512.032.576.512.64l1.6.224V26h-6.944V15.664zm18.913 8.608l-.16-.032c-1.216 1.184-2.816 2.144-5.376 2.144-4.032 0-4.672-2.752-4.672-4.736 0-3.2 1.952-4.64 5.984-4.928l3.68-.256v-1.76c0-1.504-.16-2.528-2.144-2.528-1.536 0-2.336.224-2.336 2.144l-4.512-.384c0-4.32 3.936-4.928 6.88-4.928 4.864 0 6.816 1.312 6.816 5.792v7.776c0 .512.032.576.512.64l1.536.256V26h-5.888l-.32-1.728zm-2.72-4.992c-1.888.128-2.56.608-2.56 1.888 0 1.28.768 1.76 1.824 1.76 1.088 0 2.176-.608 2.912-1.152V19.12l-2.176.16zm32.089 5.472c-1.984.96-4.16 1.632-6.56 1.632-6.176 0-8.288-3.84-8.288-8.832 0-5.792 3.552-8.544 7.936-8.544 4.224 0 7.04 2.208 7.04 7.744 0 .384-.032 1.504-.064 2.144h-9.792c.16 2.272 1.152 3.776 3.776 3.776 1.248 0 2.592-.288 4.768-1.088l1.184 3.168zm-4.608-8.896c-.032-2.688-1.088-3.392-2.4-3.392-1.376 0-2.496.768-2.688 3.392h5.088zm16.337-3.168c-.064-.288-.096-.384-.32-.448-.416-.128-1.184-.256-2.048-.256-1.6 0-2.496.608-2.496 1.632 0 1.312 1.76 1.6 3.712 2.048 2.528.576 5.376 1.472 5.376 5.216 0 3.904-3.168 5.504-7.232 5.504-2.912 0-5.76-.768-6.336-1.152v-4.64l3.424.256.32 1.824c.064.288.096.384.384.48.384.128 1.248.32 2.464.32 1.696 0 2.656-.48 2.656-1.664 0-1.28-1.28-1.664-2.912-1.952-2.688-.48-6.208-1.056-6.208-5.248 0-3.968 3.392-5.6 7.072-5.6 2.528 0 4.992.576 5.888.928v4.64l-3.424-.224-.32-1.664zm18.634 12.416c-1.376.672-3.392 1.28-5.216 1.28-3.808 0-5.248-1.536-5.248-5.152v-8.384c0-.192 0-.32-.256-.32h-2.24V9.68c2.816-.32 3.936-1.728 4.288-5.216h3.04v4.544c0 .224 0 .32.256.32h4.512v3.2h-4.768v7.648c0 1.888.448 2.624 2.176 2.624.896 0 1.824-.224 2.592-.512l.864 2.816zm11.836-.832l-.16-.032c-1.216 1.184-2.816 2.144-5.376 2.144-4.032 0-4.672-2.752-4.672-4.736 0-3.2 1.952-4.64 5.984-4.928l3.68-.256v-1.76c0-1.504-.16-2.528-2.144-2.528-1.536 0-2.336.224-2.336 2.144l-4.512-.384c0-4.32 3.936-4.928 6.88-4.928 4.864 0 6.816 1.312 6.816 5.792v7.776c0 .512.032.576.512.64l1.536.256V26h-5.888l-.32-1.728zm-2.72-4.992c-1.888.128-2.56.608-2.56 1.888 0 1.28.768 1.76 1.824 1.76 1.088 0 2.176-.608 2.912-1.152V19.12l-2.176.16zm10.453 4.16l1.792-.192c.448-.064.512-.192.512-.672v-9.728c0-.192 0-.32-.256-.32h-2.144v-3.2h2.4v-1.76c0-4.32 2.432-6.112 6.848-6.112 2.976 0 5.728.736 5.728 4.608l-4.48.544c.032-1.632-.416-2.016-1.472-2.016-1.6 0-1.792.864-1.792 2.4v2.016c0 .224 0 .32.256.32h5.056v3.2h-5.312v9.952c0 .512.096.608.576.64l3.904.352V26h-11.616v-2.56zm23.72.832l-.16-.032c-1.216 1.184-2.816 2.144-5.376 2.144-4.032 0-4.672-2.752-4.672-4.736 0-3.2 1.952-4.64 5.984-4.928l3.68-.256v-1.76c0-1.504-.16-2.528-2.144-2.528-1.536 0-2.336.224-2.336 2.144l-4.512-.384c0-4.32 3.936-4.928 6.88-4.928 4.864 0 6.816 1.312 6.816 5.792v7.776c0 .512.032.576.512.64l1.536.256V26h-5.888l-.32-1.728zm-2.72-4.992c-1.888.128-2.56.608-2.56 1.888 0 1.28.768 1.76 1.824 1.76 1.088 0 2.176-.608 2.912-1.152V19.12l-2.176.16zm16.661 4.608c0 1.632-.896 2.496-2.72 2.496-1.856 0-2.752-.832-2.752-2.496 0-1.632.896-2.496 2.752-2.496 1.792 0 2.72.864 2.72 2.496z" fill="#2B3D51"/></svg>