<svg width="267" height="58" viewBox="0 0 267 58" fill="none" xmlns="http://www.w3.org/2000/svg"><rect x="2" y="2" width="263" height="54" rx="6" fill="#fff"/><rect x="1" y="1" width="265" height="56" rx="7" stroke="#fff" stroke-opacity=".5" stroke-width="2"/><path d="M23.922 36.12v-14.2h5.46c1.573 0 2.887.32 3.94.96a6.003 6.003 0 012.4 2.56c.547 1.067.82 2.253.82 3.56 0 1.44-.3 2.694-.9 3.76a6.135 6.135 0 01-2.5 2.48c-1.067.587-2.32.88-3.76.88h-5.46zm8.66-7.12c0-.733-.127-1.373-.38-1.92a2.934 2.934 0 00-1.1-1.3c-.48-.306-1.053-.46-1.72-.46h-1.56v7.4h1.56c.68 0 1.253-.16 1.72-.48.48-.32.846-.76 1.1-1.32.253-.573.38-1.213.38-1.92zm17.376 3.72v3.4h-10.12v-14.2h9.94v3.4h-6.04v2h5.16v3.16h-5.16v2.24h6.22zm14.474-7.4h-4.08v10.8h-3.9v-10.8h-4.1v-3.4h12.08v3.4zm13.14 7.4v3.4h-10.12v-14.2h9.94v3.4h-6.04v2h5.16v3.16h-5.16v2.24h6.22zm-3.82-11.4l-2.4-.64 1-2.84h3.38l-1.98 3.48zm11.134 7.82v6.98h-3.9v-14.2h3.04l5.7 7.22v-7.22h3.9v14.2h-3.1l-5.64-6.98zm18.87 6.98v-14.2h3.9v10.8h6.44v3.4h-10.34zm16.579-14.2h4.36l4.52 14.2h-3.96l-.86-2.78h-3.78l-.84 2.78h-3.98l4.54-14.2zm3.44 8.82l-1.26-5-1.32 5h2.58zm16.664-4.18l-.34-.2a8.247 8.247 0 00-.9-.44 9.298 9.298 0 00-1.22-.46c-.44-.133-.873-.2-1.3-.2-.333 0-.607.053-.82.16-.213.107-.32.287-.32.54 0 .24.107.433.32.58.213.147.513.28.9.4.4.12.873.267 1.42.44.88.267 1.64.573 2.28.92.64.347 1.133.793 1.48 1.34.347.534.52 1.247.52 2.14 0 .853-.153 1.573-.46 2.16a3.759 3.759 0 01-1.24 1.38c-.52.347-1.1.6-1.74.76-.64.147-1.293.22-1.96.22-.68 0-1.393-.066-2.14-.2a16.306 16.306 0 01-2.14-.58 11.885 11.885 0 01-1.9-.88l1.68-3.42.4.24c.267.16.62.34 1.06.54.44.2.927.38 1.46.54.547.16 1.093.24 1.64.24.427 0 .72-.053.88-.16.173-.12.26-.273.26-.46 0-.28-.147-.493-.44-.64-.293-.16-.68-.306-1.16-.44-.467-.146-.987-.313-1.56-.5-.827-.28-1.507-.593-2.04-.94-.533-.36-.927-.78-1.18-1.26-.253-.493-.38-1.086-.38-1.78 0-1.053.247-1.933.74-2.64a4.642 4.642 0 011.94-1.6 6.205 6.205 0 012.62-.56c.693 0 1.36.087 2 .26.653.16 1.26.36 1.82.6.573.24 1.073.467 1.5.68l-1.68 3.22zm21.556 6.16v3.4h-10.12v-14.2h9.94v3.4h-6.04v2h5.16v3.16h-5.16v2.24h6.22zm12.014-6.16l-.34-.2a8.247 8.247 0 00-.9-.44 9.352 9.352 0 00-1.22-.46c-.44-.133-.874-.2-1.3-.2-.334 0-.607.053-.82.16-.214.107-.32.287-.32.54 0 .24.106.433.32.58.213.147.513.28.9.4.4.12.873.267 1.42.44.88.267 1.64.573 2.28.92.64.347 1.133.793 1.48 1.34.346.534.52 1.247.52 2.14 0 .853-.154 1.573-.46 2.16a3.759 3.759 0 01-1.24 1.38c-.52.347-1.1.6-1.74.76-.64.147-1.294.22-1.96.22-.68 0-1.394-.066-2.14-.2a16.263 16.263 0 01-2.14-.58 11.845 11.845 0 01-1.9-.88l1.68-3.42.4.24c.266.16.62.34 1.06.54.44.2.926.38 1.46.54.546.16 1.093.24 1.64.24.426 0 .72-.053.88-.16.173-.12.26-.273.26-.46 0-.28-.147-.493-.44-.64-.294-.16-.68-.306-1.16-.44-.467-.146-.987-.313-1.56-.5-.827-.28-1.507-.593-2.04-.94-.534-.36-.927-.78-1.18-1.26-.254-.493-.38-1.086-.38-1.78 0-1.053.246-1.933.74-2.64a4.642 4.642 0 011.94-1.6 6.202 6.202 0 012.62-.56c.693 0 1.36.087 2 .26.653.16 1.26.36 1.82.6.573.24 1.073.467 1.5.68l-1.68 3.22zm16.403-1.24h-4.08v10.8h-3.9v-10.8h-4.1v-3.4h12.08v3.4zm4.992-3.4h4.36l4.52 14.2h-3.96l-.86-2.78h-3.78l-.84 2.78h-3.98l4.54-14.2zm3.44 8.82l-1.26-5-1.32 5h2.58zm8.22 5.38v-14.2h9.74v3.4h-5.84v2.36h4.76v3.16h-4.76v5.28h-3.9zm15.232-14.2h4.36l4.52 14.2h-3.96l-.86-2.78h-3.78l-.84 2.78h-3.98l4.54-14.2zm3.44 8.82l-1.26-5-1.32 5h2.58zm16.663-4.18l-.34-.2a8.068 8.068 0 00-.9-.44 9.298 9.298 0 00-1.22-.46c-.44-.133-.873-.2-1.3-.2-.333 0-.606.053-.82.16-.213.107-.32.287-.32.54 0 .24.107.433.32.58.214.147.514.28.9.4.4.12.874.267 1.42.44.88.267 1.64.573 2.28.92.64.347 1.134.793 1.48 1.34.347.534.52 1.247.52 2.14 0 .853-.153 1.573-.46 2.16a3.75 3.75 0 01-1.24 1.38c-.52.347-1.1.6-1.74.76-.64.147-1.293.22-1.96.22-.68 0-1.393-.066-2.14-.2a16.348 16.348 0 01-2.14-.58 11.926 11.926 0 01-1.9-.88l1.68-3.42.4.24c.267.16.62.34 1.06.54.44.2.927.38 1.46.54.547.16 1.094.24 1.64.24.427 0 .72-.053.88-.16.174-.12.26-.273.26-.46 0-.28-.146-.493-.44-.64-.293-.16-.68-.306-1.16-.44-.466-.146-.986-.313-1.56-.5-.826-.28-1.506-.593-2.04-.94-.533-.36-.926-.78-1.18-1.26-.253-.493-.38-1.086-.38-1.78 0-1.053.247-1.933.74-2.64a4.648 4.648 0 011.94-1.6 6.209 6.209 0 012.62-.56c.694 0 1.36.087 2 .26.654.16 1.26.36 1.82.6.574.24 1.074.467 1.5.68l-1.68 3.22z" fill="#2B3D51"/></svg>