<svg width="209" height="28" viewBox="0 0 209 28" fill="none" xmlns="http://www.w3.org/2000/svg"><path d="M6.932 8.62H2.736L1.644 11H.051L4.9.583 9.578 11H7.96L6.932 8.62zm-.603-1.39L4.875 3.896 3.352 7.229h2.977zm5.636 7.134h-1.428V4.817h1.428v.673c.563-.563 1.202-.844 1.917-.844.85 0 1.551.313 2.101.94.559.622.838 1.407.838 2.354 0 .927-.277 1.7-.831 2.317-.55.614-1.244.92-2.082.92-.724 0-1.371-.29-1.943-.869v4.056zm3.396-6.417c0-.593-.16-1.075-.482-1.447a1.56 1.56 0 00-1.231-.565c-.525 0-.95.182-1.276.545-.326.364-.49.843-.49 1.435 0 .58.164 1.058.49 1.435.321.368.744.552 1.27.552.494 0 .903-.186 1.224-.559.33-.372.495-.838.495-1.396zm2.971-3.13h1.428v.553c.263-.275.495-.464.698-.565.208-.106.453-.159.737-.159.377 0 .77.123 1.18.368l-.653 1.308c-.271-.195-.536-.292-.794-.292-.778 0-1.168.588-1.168 1.764V11h-1.428V4.817zm10.404 3.428h-4.43c.037.508.202.912.494 1.213.292.296.667.444 1.124.444.355 0 .65-.085.882-.254.229-.17.489-.482.78-.94l1.207.673c-.186.318-.383.59-.59.82-.208.223-.43.41-.667.558-.237.144-.493.25-.768.317a3.74 3.74 0 01-.895.102c-.922 0-1.663-.296-2.222-.889-.558-.597-.837-1.388-.837-2.374 0-.978.27-1.769.812-2.374.546-.597 1.27-.895 2.17-.895.91 0 1.63.29 2.16.87.524.575.786 1.373.786 2.393l-.006.336zM27.27 7.077c-.2-.762-.68-1.142-1.441-1.142-.174 0-.337.027-.49.082a1.35 1.35 0 00-.418.229 1.428 1.428 0 00-.317.355c-.09.14-.157.298-.204.476h2.87zm3.034-2.26h1.434v.572c.5-.495 1.063-.743 1.689-.743.72 0 1.28.226 1.682.68.347.384.52 1.013.52 1.884V11h-1.434V7.547c0-.61-.085-1.03-.254-1.263-.165-.237-.466-.356-.901-.356-.474 0-.81.157-1.01.47-.194.309-.292.848-.292 1.619V11h-1.434V4.817zM41.996.28h1.435V11h-1.435v-.648c-.563.55-1.2.826-1.91.826-.847 0-1.55-.31-2.108-.927-.554-.63-.831-1.418-.831-2.361 0-.923.277-1.693.831-2.31.55-.623 1.242-.934 2.076-.934.723 0 1.37.296 1.942.889V.279zm-3.39 7.61c0 .593.16 1.076.477 1.448a1.56 1.56 0 001.231.565c.529 0 .956-.182 1.282-.546.326-.377.489-.855.489-1.435 0-.58-.163-1.058-.489-1.434-.326-.368-.749-.552-1.27-.552-.49 0-.9.186-1.23.558-.327.377-.49.842-.49 1.397zm12.258.356h-4.43c.037.508.202.912.494 1.213.292.296.667.444 1.124.444.355 0 .65-.085.882-.254.229-.17.489-.482.78-.94l1.207.673a4.92 4.92 0 01-.59.82c-.208.223-.43.41-.667.558-.237.144-.493.25-.768.317a3.74 3.74 0 01-.895.102c-.922 0-1.663-.296-2.222-.889-.558-.597-.838-1.388-.838-2.374 0-.978.271-1.769.813-2.374.546-.597 1.27-.895 2.17-.895.91 0 1.63.29 2.159.87.525.575.787 1.373.787 2.393l-.006.336zm-1.466-1.168c-.2-.762-.68-1.142-1.442-1.142-.173 0-.336.027-.488.082-.153.05-.292.127-.42.229a1.428 1.428 0 00-.317.355 1.67 1.67 0 00-.203.476h2.87zm11.857-1.993v1.898c-.326-.398-.618-.67-.876-.819a1.706 1.706 0 00-.895-.228c-.538 0-.984.188-1.34.565-.355.376-.533.848-.533 1.415 0 .58.172 1.056.515 1.428.346.373.789.559 1.326.559.343 0 .645-.074.908-.222.254-.144.552-.423.895-.838v1.885c-.58.3-1.16.45-1.74.45-.956 0-1.756-.308-2.399-.926-.643-.622-.965-1.394-.965-2.317 0-.922.326-1.701.978-2.336.652-.635 1.451-.952 2.4-.952.609 0 1.184.146 1.726.438zm1.092 2.78c0-.893.32-1.652.958-2.279.64-.626 1.418-.939 2.336-.939.923 0 1.706.315 2.349.946.635.63.952 1.405.952 2.323 0 .927-.32 1.703-.959 2.33-.643.622-1.432.933-2.367.933-.927 0-1.704-.318-2.33-.952-.626-.627-.94-1.414-.94-2.362zm1.46.026c0 .617.165 1.106.495 1.466.338.364.785.546 1.34.546.558 0 1.004-.18 1.339-.54.334-.36.5-.84.5-1.44 0-.602-.166-1.082-.5-1.442-.34-.363-.785-.545-1.34-.545-.546 0-.988.182-1.327.545-.338.364-.507.834-.507 1.41zm3.98-6.12l-2.31 2.095-.782-.482 1.746-2.31 1.346.698zm2.672 3.047h1.428v.572c.275-.288.51-.483.705-.584.207-.106.467-.159.78-.159.699 0 1.251.305 1.657.914.449-.61 1.056-.914 1.822-.914 1.392 0 2.088.844 2.088 2.533V11h-1.434V7.566c0-.593-.072-1.011-.216-1.257-.148-.25-.391-.374-.73-.374-.394 0-.681.148-.863.444-.178.296-.267.772-.267 1.428V11h-1.434V7.585c0-1.1-.318-1.65-.953-1.65-.401 0-.696.15-.882.45-.182.3-.273.775-.273 1.422V11H70.46V4.817zm9.991 3.047c0-.893.32-1.652.959-2.279.639-.626 1.417-.939 2.336-.939.922 0 1.705.315 2.348.946.635.63.952 1.405.952 2.323 0 .927-.32 1.703-.958 2.33-.643.622-1.433.933-2.368.933-.926 0-1.703-.318-2.33-.952-.626-.627-.939-1.414-.939-2.362zm1.46.026c0 .617.165 1.106.495 1.466.339.364.785.546 1.34.546.558 0 1.005-.18 1.339-.54.334-.36.501-.84.501-1.44 0-.602-.167-1.082-.501-1.442-.339-.363-.785-.545-1.34-.545-.545 0-.987.182-1.326.545-.339.364-.508.834-.508 1.41zm12.092 6.474h-1.428V4.817h1.428v.673c.563-.563 1.202-.844 1.917-.844.851 0 1.551.313 2.102.94.558.622.837 1.407.837 2.354 0 .927-.277 1.7-.831 2.317-.55.614-1.244.92-2.082.92-.724 0-1.371-.29-1.943-.869v4.056zm3.396-6.417c0-.593-.16-1.075-.482-1.447a1.56 1.56 0 00-1.231-.565c-.525 0-.95.182-1.276.545-.326.364-.49.843-.49 1.435 0 .58.164 1.058.49 1.435.321.368.744.552 1.27.552.494 0 .903-.186 1.224-.559.33-.372.495-.838.495-1.396zm2.971-3.13h1.428v.553c.263-.275.495-.464.699-.565.207-.106.452-.159.736-.159.377 0 .77.123 1.181.368l-.654 1.308c-.271-.195-.536-.292-.794-.292-.778 0-1.168.588-1.168 1.764V11h-1.428V4.817zm4.456 3.047c0-.893.32-1.652.959-2.279.639-.626 1.417-.939 2.336-.939.922 0 1.705.315 2.348.946.635.63.952 1.405.952 2.323 0 .927-.319 1.703-.958 2.33-.643.622-1.433.933-2.368.933-.927 0-1.703-.318-2.329-.952-.627-.627-.94-1.414-.94-2.362zm1.46.026c0 .617.165 1.106.495 1.466.339.364.785.546 1.34.546.558 0 1.005-.18 1.339-.54.334-.36.501-.84.501-1.44 0-.602-.167-1.082-.501-1.442-.339-.363-.785-.545-1.339-.545-.546 0-.988.182-1.327.545-.339.364-.508.834-.508 1.41zm8.201-1.74V11h-1.428V6.15h-.609V4.817h.609V2.551h1.428v2.266h1.111V6.15h-1.111zm7.827 2.095h-4.431c.038.508.203.912.495 1.213.292.296.667.444 1.124.444.355 0 .65-.085.882-.254.229-.17.489-.482.781-.94l1.206.673c-.186.318-.383.59-.59.82-.208.223-.43.41-.667.558-.237.144-.493.25-.768.317a3.737 3.737 0 01-.895.102c-.922 0-1.663-.296-2.221-.889-.559-.597-.838-1.388-.838-2.374 0-.978.27-1.769.812-2.374.546-.597 1.27-.895 2.171-.895.91 0 1.629.29 2.158.87.525.575.787 1.373.787 2.393l-.006.336zm-1.466-1.168c-.199-.762-.68-1.142-1.441-1.142-.174 0-.337.027-.489.082-.152.05-.292.127-.419.229a1.422 1.422 0 00-.317.355c-.089.14-.157.298-.203.476h2.869zm9.013 3.777c0 .292-.01.548-.031.768a4.911 4.911 0 01-.077.59 2.61 2.61 0 01-.596 1.2c-.559.643-1.327.965-2.304.965-.826 0-1.505-.222-2.038-.667-.55-.457-.868-1.09-.952-1.898h1.434c.055.305.146.54.273.705.297.385.728.578 1.295.578 1.046 0 1.568-.641 1.568-1.924v-.863c-.567.58-1.221.87-1.961.87-.842 0-1.532-.305-2.07-.914-.541-.618-.812-1.39-.812-2.317 0-.902.252-1.668.755-2.298.542-.669 1.257-1.003 2.146-1.003.778 0 1.426.29 1.942.87v-.699h1.428v6.037zm-1.371-2.933c0-.6-.161-1.08-.482-1.44a1.596 1.596 0 00-1.251-.553c-.541 0-.969.201-1.282.603-.283.36-.425.825-.425 1.397 0 .563.142 1.024.425 1.384.309.393.736.59 1.282.59s.978-.199 1.295-.597c.292-.36.438-.82.438-1.384zm8.804.324h-4.43c.038.508.203.912.495 1.213.292.296.666.444 1.123.444.356 0 .65-.085.883-.254.228-.17.489-.482.781-.94l1.206.673c-.187.318-.383.59-.591.82-.207.223-.429.41-.666.558-.237.144-.493.25-.768.317a3.743 3.743 0 01-.895.102c-.923 0-1.663-.296-2.222-.889-.559-.597-.838-1.388-.838-2.374 0-.978.271-1.769.813-2.374.545-.597 1.269-.895 2.17-.895.91 0 1.63.29 2.159.87.524.575.787 1.373.787 2.393l-.007.336zm-1.466-1.168c-.199-.762-.679-1.142-1.441-1.142-.173 0-.336.027-.489.082a1.426 1.426 0 00-.736.584c-.089.14-.156.298-.203.476h2.869zm3.034-2.26h1.429v.553c.262-.275.495-.464.698-.565a1.6 1.6 0 01.736-.159c.377 0 .77.123 1.181.368l-.654 1.308c-.271-.195-.535-.292-.793-.292-.779 0-1.168.588-1.168 1.764V11h-1.429V4.817zm6.805 1.333V11h-1.428V6.15h-.61V4.817h.61V2.551h1.428v2.266h1.111V6.15h-1.111zm7.827 2.095h-4.431c.038.508.203.912.495 1.213.292.296.667.444 1.124.444.355 0 .649-.085.882-.254.229-.17.489-.482.781-.94l1.206.673a4.87 4.87 0 01-.591.82c-.207.223-.429.41-.666.558-.237.144-.493.25-.768.317a3.743 3.743 0 01-.895.102c-.923 0-1.663-.296-2.222-.889-.558-.597-.838-1.388-.838-2.374 0-.978.271-1.769.813-2.374.546-.597 1.269-.895 2.171-.895.91 0 1.629.29 2.158.87.525.575.787 1.373.787 2.393l-.006.336zm-1.467-1.168c-.199-.762-.679-1.142-1.441-1.142-.173 0-.336.027-.488.082a1.426 1.426 0 00-.737.584c-.089.14-.156.298-.203.476h2.869zm11.858-1.993v1.898c-.326-.398-.618-.67-.876-.819a1.706 1.706 0 00-.895-.228c-.538 0-.984.188-1.34.565-.355.376-.533.848-.533 1.415 0 .58.172 1.056.514 1.428.347.373.79.559 1.327.559.343 0 .645-.074.908-.222.254-.144.552-.423.895-.838v1.885c-.58.3-1.16.45-1.739.45-.957 0-1.757-.308-2.4-.926-.643-.622-.965-1.394-.965-2.317 0-.922.326-1.701.978-2.336.652-.635 1.451-.952 2.399-.952.61 0 1.185.146 1.727.438zm1.092 2.78c0-.893.319-1.652.958-2.279.639-.626 1.418-.939 2.336-.939.923 0 1.705.315 2.349.946.634.63.952 1.405.952 2.323 0 .927-.32 1.703-.959 2.33-.643.622-1.432.933-2.367.933-.927 0-1.704-.318-2.33-.952-.626-.627-.939-1.414-.939-2.362zm1.46.026c0 .617.165 1.106.495 1.466.338.364.785.546 1.339.546.559 0 1.005-.18 1.339-.54.335-.36.502-.84.502-1.44 0-.602-.167-1.082-.502-1.442-.338-.363-.785-.545-1.339-.545-.546 0-.988.182-1.327.545-.338.364-.507.834-.507 1.41zm6.652-3.073h1.434v.572c.5-.495 1.063-.743 1.689-.743.719 0 1.28.226 1.682.68.347.384.521 1.013.521 1.884V11h-1.435V7.547c0-.61-.085-1.03-.254-1.263-.165-.237-.465-.356-.901-.356-.474 0-.811.157-1.01.47-.194.309-.292.848-.292 1.619V11h-1.434V4.817zm8.607 1.333V11h-1.428V6.15h-.609V4.817h.609V2.551h1.428v2.266h1.111V6.15h-1.111zm2.082-1.333h1.429v.553c.262-.275.495-.464.698-.565a1.6 1.6 0 01.736-.159c.377 0 .77.123 1.181.368l-.654 1.308c-.271-.195-.535-.292-.793-.292-.779 0-1.168.588-1.168 1.764V11h-1.429V4.817zm9.331 0h1.435V11h-1.435v-.648c-.588.55-1.22.826-1.898.826-.854 0-1.561-.31-2.12-.927-.554-.63-.831-1.418-.831-2.361 0-.927.277-1.7.831-2.317a2.682 2.682 0 012.082-.927c.72 0 1.365.296 1.936.889v-.718zm-3.389 3.073c0 .592.158 1.075.476 1.447.326.377.736.565 1.231.565.529 0 .957-.182 1.282-.546.326-.377.489-.855.489-1.435 0-.58-.163-1.058-.489-1.434-.325-.368-.749-.552-1.269-.552-.491 0-.901.186-1.231.558-.326.377-.489.842-.489 1.397zm16.269.355h-4.431c.038.508.203.912.495 1.213.292.296.667.444 1.124.444.355 0 .649-.085.882-.254.229-.17.489-.482.781-.94l1.206.673c-.186.318-.383.59-.59.82-.208.223-.43.41-.667.558-.237.144-.493.25-.768.317a3.737 3.737 0 01-.895.102c-.923 0-1.663-.296-2.222-.889-.558-.597-.838-1.388-.838-2.374 0-.978.271-1.769.813-2.374.546-.597 1.269-.895 2.171-.895.91 0 1.629.29 2.158.87.525.575.787 1.373.787 2.393l-.006.336zm-1.467-1.168c-.198-.762-.679-1.142-1.44-1.142-.174 0-.337.027-.489.082a1.426 1.426 0 00-.737.584c-.088.14-.156.298-.203.476h2.869zM208.984.28V11h-1.428V.279h1.428zM2.38 22.15V27H.946v-4.85H.438v-1.333h.508v-2.386c0-.779.135-1.33.406-1.65.372-.45.914-.674 1.625-.674.254 0 .573.075.959.223v1.46l-.146-.077c-.31-.156-.563-.235-.762-.235-.254 0-.425.091-.514.273-.09.178-.134.521-.134 1.029v2.037h1.556v1.333H2.38zm2.38-1.333H6.19v.553c.262-.275.495-.464.698-.565.208-.106.453-.159.737-.159.376 0 .77.123 1.18.368l-.654 1.308c-.27-.195-.535-.292-.793-.292-.779 0-1.168.588-1.168 1.764V27H4.761v-6.183zm9.332 0h1.434V27h-1.434v-.648c-.588.55-1.221.826-1.898.826-.855 0-1.562-.31-2.12-.927-.555-.63-.832-1.418-.832-2.361 0-.927.277-1.7.832-2.317a2.68 2.68 0 012.082-.927c.72 0 1.364.296 1.936.889v-.718zm-3.39 3.073c0 .592.159 1.075.476 1.447a1.56 1.56 0 001.232.565c.529 0 .956-.182 1.282-.546.326-.377.489-.855.489-1.435 0-.58-.163-1.058-.49-1.434-.325-.368-.748-.552-1.269-.552-.49 0-.901.186-1.231.558-.326.377-.489.842-.489 1.397zm8.055-3.073v3.549c0 1.024.404 1.536 1.213 1.536.808 0 1.212-.512 1.212-1.536v-3.549h1.428v3.58c0 .496-.061.923-.184 1.283a2.154 2.154 0 01-.615.87c-.483.418-1.096.628-1.841.628-.74 0-1.352-.21-1.835-.629a2.189 2.189 0 01-.628-.87c-.119-.287-.178-.714-.178-1.281v-3.58h1.428zm10.214-4.538h1.434V27h-1.434v-.648c-.563.55-1.2.826-1.91.826-.847 0-1.55-.31-2.108-.927-.555-.63-.832-1.418-.832-2.361 0-.923.277-1.693.832-2.31.55-.623 1.242-.934 2.075-.934.724 0 1.371.296 1.943.889v-5.256zm-3.39 7.61c0 .593.159 1.076.476 1.448a1.56 1.56 0 001.232.565c.528 0 .956-.182 1.282-.546.326-.377.489-.855.489-1.435 0-.58-.163-1.058-.49-1.434-.325-.368-.748-.552-1.269-.552-.49 0-.901.186-1.231.558-.326.377-.489.842-.489 1.397zm12.257.356h-4.43c.038.508.203.912.495 1.212.292.297.666.445 1.123.445.356 0 .65-.085.883-.254.228-.17.489-.482.78-.94l1.206.673c-.186.318-.383.59-.59.82a3.27 3.27 0 01-.666.558c-.237.144-.493.25-.768.317a3.74 3.74 0 01-.895.102c-.923 0-1.663-.297-2.222-.889-.559-.597-.838-1.388-.838-2.374 0-.977.27-1.769.812-2.374.546-.597 1.27-.895 2.171-.895.91 0 1.63.29 2.159.87.524.575.787 1.373.787 2.393l-.007.336zm-1.466-1.168c-.199-.762-.68-1.142-1.44-1.142-.174 0-.337.027-.49.082-.152.05-.292.127-.419.229a1.424 1.424 0 00-.317.355c-.089.14-.157.298-.203.476h2.87zm11.604-2.26h1.434V27h-1.434v-.648c-.589.55-1.221.826-1.898.826-.855 0-1.562-.31-2.12-.927-.555-.63-.832-1.418-.832-2.361 0-.927.277-1.7.832-2.317a2.68 2.68 0 012.082-.927c.719 0 1.364.296 1.936.889v-.718zm-3.39 3.073c0 .592.159 1.075.476 1.447a1.56 1.56 0 001.232.565c.528 0 .956-.182 1.282-.546.325-.377.489-.855.489-1.435 0-.58-.163-1.058-.49-1.434-.325-.368-.748-.552-1.269-.552-.49 0-.901.186-1.231.558-.326.377-.49.842-.49 1.397z" fill="#DEEDFC"/><path d="M54.908 27l1.664-9.802h2.522l1.963 5.226 1.95-5.226h2.522L67.193 27h-2.535l-.845-5.642L61.5 27h-1.014l-2.197-5.642L57.443 27h-2.535zm18.198-4.303a1.415 1.415 0 00-.481-.793 1.348 1.348 0 00-.884-.299c-.364 0-.663.095-.897.286-.225.19-.368.46-.43.806h2.692zm-2.756 1.365c0 1.014.477 1.521 1.43 1.521.511 0 .897-.208 1.157-.624h2.275c-.46 1.525-1.608 2.288-3.445 2.288A4.633 4.633 0 0170.22 27a3.605 3.605 0 01-1.21-.728 3.259 3.259 0 01-.766-1.118 3.726 3.726 0 01-.273-1.456c0-.555.087-1.053.26-1.495.173-.45.42-.832.74-1.144a3.22 3.22 0 011.158-.715c.46-.173.975-.26 1.547-.26.563 0 1.07.087 1.52.26.451.165.833.407 1.145.728.312.32.55.715.715 1.183.165.46.247.98.247 1.56v.247H70.35zm8.482-.416c0 .217.039.42.117.611.078.182.182.342.312.481.139.139.299.247.48.325a1.598 1.598 0 001.197 0c.19-.078.35-.186.48-.325.14-.139.248-.299.326-.481.087-.182.13-.377.13-.585 0-.208-.043-.403-.13-.585a1.485 1.485 0 00-.325-.494 1.348 1.348 0 00-.481-.325 1.565 1.565 0 00-1.183 0 1.521 1.521 0 00-.481.325 1.88 1.88 0 00-.325.481 1.378 1.378 0 00-.117.572zm2.964-7.436h2.366V27h-2.366v-.741c-.503.633-1.183.949-2.041.949a3.245 3.245 0 01-2.405-1.027 3.54 3.54 0 01-.715-1.131 3.919 3.919 0 01-.247-1.404c0-.477.078-.927.234-1.352.165-.433.394-.81.689-1.131.294-.32.645-.572 1.053-.754.416-.19.87-.286 1.365-.286.832 0 1.52.29 2.067.871V16.21zm6.32 4.121V27h-2.353v-6.669h2.353zm-2.509-2.561c0-.182.035-.351.104-.507a1.33 1.33 0 01.286-.429c.121-.121.26-.217.416-.286a1.327 1.327 0 011.742.715 1.325 1.325 0 010 1.027c-.07.156-.165.295-.286.416a1.328 1.328 0 01-.429.286 1.327 1.327 0 01-1.027 0 1.372 1.372 0 01-.702-.702 1.327 1.327 0 01-.104-.52zm9.148 4.719c-.407-.277-.819-.416-1.235-.416-.225 0-.438.039-.637.117-.19.078-.36.19-.507.338a1.516 1.516 0 00-.351.507c-.078.19-.117.407-.117.65 0 .234.039.45.117.65.087.19.2.36.338.507a1.6 1.6 0 00.52.325c.2.078.412.117.637.117.442 0 .854-.152 1.235-.455v2.002c-.58.251-1.131.377-1.651.377a3.95 3.95 0 01-1.391-.247 3.666 3.666 0 01-1.157-.702 3.63 3.63 0 01-.793-1.105 3.41 3.41 0 01-.299-1.443c0-.529.095-1.01.286-1.443.19-.442.45-.819.78-1.131.33-.32.72-.568 1.17-.741.46-.182.949-.273 1.469-.273.572 0 1.1.121 1.586.364v2.002zm3.526 1.157c0 .217.039.42.117.611.078.182.182.342.312.481.139.139.299.247.481.325a1.598 1.598 0 001.196 0c.191-.078.351-.186.481-.325.139-.139.247-.299.325-.481.087-.182.13-.377.13-.585 0-.208-.043-.403-.13-.585a1.48 1.48 0 00-.325-.494 1.345 1.345 0 00-.481-.325 1.598 1.598 0 00-1.196 0 1.521 1.521 0 00-.481.325c-.13.139-.234.299-.312.481a1.378 1.378 0 00-.117.572zm2.964-3.315h2.366V27h-2.366v-.741c-.503.633-1.183.949-2.041.949-.485 0-.932-.087-1.339-.26a3.312 3.312 0 01-1.066-.754 3.54 3.54 0 01-.715-1.131 3.957 3.957 0 01-.247-1.417c0-.477.082-.927.247-1.352.165-.433.394-.81.689-1.131.295-.32.646-.572 1.053-.754a3.15 3.15 0 011.352-.286c.832 0 1.521.29 2.067.871v-.663zm3.967 0h2.353v1.092a2.65 2.65 0 01.923-.91c.364-.217.789-.325 1.274-.325h.195c.078 0 .165.009.26.026v2.249a2.236 2.236 0 00-1.014-.234c-.546 0-.957.165-1.235.494-.268.32-.403.793-.403 1.417V27h-2.353v-6.669zm11.007 2.366a1.414 1.414 0 00-.481-.793 1.348 1.348 0 00-.884-.299c-.364 0-.663.095-.897.286-.225.19-.368.46-.429.806h2.691zm-2.756 1.365c0 1.014.477 1.521 1.43 1.521.511 0 .897-.208 1.157-.624h2.275c-.459 1.525-1.608 2.288-3.445 2.288a4.634 4.634 0 01-1.547-.247 3.605 3.605 0 01-1.209-.728 3.263 3.263 0 01-.767-1.118 3.726 3.726 0 01-.273-1.456c0-.555.087-1.053.26-1.495.173-.45.42-.832.741-1.144a3.22 3.22 0 011.157-.715c.459-.173.975-.26 1.547-.26.563 0 1.07.087 1.521.26a3.01 3.01 0 011.144.728c.312.32.55.715.715 1.183.165.46.247.98.247 1.56v.247h-4.953zm6.181 1.69c0-.208.039-.403.117-.585a1.48 1.48 0 01.806-.819 1.566 1.566 0 011.183 0c.191.078.355.186.494.325s.247.303.325.494a1.565 1.565 0 010 1.183 1.485 1.485 0 01-.819.806 1.566 1.566 0 01-1.183 0 1.524 1.524 0 01-.806-.806 1.565 1.565 0 01-.117-.598z" fill="#fff"/></svg>