<svg width="125" height="11" viewBox="0 0 125 11" fill="none" xmlns="http://www.w3.org/2000/svg"><path d="M6.29 6.005H1.455c.07.434.256.779.56 1.034.302.256.69.384 1.16.384.563 0 1.046-.2 1.45-.6l1.268.606c-.315.456-.694.793-1.135 1.012-.442.218-.965.327-1.571.327-.941 0-1.707-.301-2.299-.905C.296 7.259 0 6.503 0 5.595c0-.909.295-1.704.885-2.319.59-.615 1.33-.922 2.22-.922.944 0 1.712.308 2.304.922.592.615.888 1.427.888 2.437l-.005.291-.002.001zM4.787 4.8a1.53 1.53 0 00-.589-.83 1.684 1.684 0 00-1.019-.32c-.42 0-.787.12-1.104.359-.2.15-.383.412-.553.79h3.264zM10.983 3.364l-.931.947c-.379-.382-.723-.572-1.03-.572-.17 0-.303.036-.398.109a.328.328 0 00-.052.498c.06.07.21.164.45.283l.55.28c.582.292.98.589 1.197.891.217.303.326.658.326 1.065 0 .543-.196.995-.588 1.357-.391.363-.916.543-1.574.543-.875 0-1.572-.348-2.095-1.043l.926-1.026c.176.209.383.378.62.507s.448.194.632.194a.744.744 0 00.479-.146c.121-.096.182-.209.182-.336 0-.236-.219-.466-.656-.69l-.507-.257c-.97-.498-1.455-1.12-1.455-1.867 0-.482.183-.894.548-1.236.366-.343.834-.513 1.403-.513.39 0 .756.087 1.1.26.344.174.635.424.875.749l-.002.003zM12.559 7.013a.83.83 0 01.612.256c.169.17.253.376.253.619a.856.856 0 01-.253.623.828.828 0 01-.612.257.83.83 0 01-.613-.257.856.856 0 01-.253-.623c0-.243.085-.45.253-.62a.83.83 0 01.613-.255zM15.848.365h1.504l1.88 5.753L21.13.365h1.504l1.362 8.248h-1.492l-.87-5.209-1.724 5.209h-1.362l-1.707-5.209-.89 5.209h-1.507L15.848.365zM31.012 6.006h-4.835c.069.435.256.779.559 1.035.303.256.69.384 1.162.384.562 0 1.046-.2 1.45-.6l1.27.606c-.317.455-.695.794-1.138 1.013-.441.219-.965.328-1.571.328-.942 0-1.707-.302-2.3-.906-.592-.604-.888-1.36-.888-2.267 0-.907.294-1.704.884-2.317.591-.614 1.331-.922 2.22-.922.945 0 1.713.308 2.304.922.592.616.889 1.426.889 2.435l-.006.291h-.002l.002-.002zm-1.506-1.205c-.1-.34-.296-.617-.588-.83a1.684 1.684 0 00-1.02-.32c-.419 0-.787.12-1.105.359-.199.15-.384.413-.552.79h3.265zM36.524.156h1.506v8.455h-1.506v-.645c-.294.284-.589.49-.884.614a2.45 2.45 0 01-.962.188c-.774 0-1.444-.305-2.01-.916-.565-.61-.849-1.37-.849-2.28 0-.908.273-1.713.821-2.316.548-.601 1.21-.903 1.994-.903.36 0 .698.07 1.014.207.316.137.606.346.875.623V.156zM34.94 3.768c-.465 0-.852.166-1.16.501-.307.335-.462.764-.462 1.287 0 .524.157.96.47 1.3.313.34.698.51 1.156.51.46 0 .866-.166 1.176-.502.312-.334.467-.772.467-1.315 0-.544-.156-.96-.467-1.29-.311-.328-.704-.493-1.181-.493v.002h.001zM40.159 0c.262 0 .49.098.678.291a.98.98 0 01.283.707.961.961 0 01-.281.698.906.906 0 01-.67.29.925.925 0 01-.684-.295.997.997 0 01-.284-.715c0-.28.093-.5.28-.69A.914.914 0 0140.155 0h.003zm-.753 2.511h1.505v6.1h-1.505v-6.1zM48.107 3.747l-1.253.701c-.235-.25-.468-.423-.698-.521-.23-.098-.5-.146-.809-.146-.563 0-1.019.169-1.366.511-.348.341-.522.779-.522 1.312 0 .534.167.942.503 1.272.335.328.775.493 1.32.493.673 0 1.198-.234 1.573-.702l1.186.826c-.644.852-1.552 1.277-2.725 1.277-1.056 0-1.882-.318-2.479-.953-.597-.636-.897-1.38-.897-2.232 0-.591.147-1.134.435-1.632a3.121 3.121 0 011.216-1.172 3.582 3.582 0 011.745-.426c.596 0 1.13.121 1.604.362.475.24.863.584 1.163 1.03v.002l.004-.002zM53.338 2.511h1.506v6.1h-1.506v-.645c-.294.284-.589.49-.884.614a2.45 2.45 0 01-.962.188c-.774 0-1.444-.306-2.01-.916-.565-.611-.849-1.371-.849-2.28 0-.908.273-1.713.821-2.316.548-.602 1.21-.903 1.994-.903.36 0 .698.069 1.014.206.316.138.606.347.875.623v-.673.002zm-1.584 1.256c-.465 0-.852.166-1.16.502-.307.334-.461.763-.461 1.287 0 .523.156.96.469 1.3.313.34.698.51 1.157.51.458 0 .865-.167 1.175-.502.312-.335.467-.772.467-1.316 0-.543-.156-.96-.467-1.29-.311-.328-.704-.493-1.181-.493v.002h.001zM56.12 2.511h1.291v.77c.139-.303.326-.534.558-.69.231-.157.484-.236.76-.236.195 0 .4.052.612.156l-.468 1.317c-.177-.09-.321-.134-.435-.134-.231 0-.427.146-.587.438-.16.291-.24.863-.24 1.716l.005.298v2.467h-1.494V2.51h-.002zM65.785 6.006h-4.836c.07.435.257.779.56 1.035.302.256.69.384 1.161.384.563 0 1.046-.2 1.45-.6l1.27.606c-.316.455-.695.794-1.137 1.013-.441.219-.965.328-1.572.328-.941 0-1.707-.302-2.3-.906-.592-.604-.888-1.36-.888-2.267 0-.907.294-1.704.885-2.317.59-.614 1.33-.922 2.22-.922.944 0 1.712.308 2.304.922.592.616.888 1.426.888 2.435l-.005.291h-.002l.002-.002zm-1.506-1.205c-.1-.34-.297-.617-.589-.83a1.688 1.688 0 00-1.019-.32c-.42 0-.787.12-1.105.359-.2.15-.384.413-.553.79h3.266zM67.336 7.015c.238 0 .443.085.612.255.169.17.253.377.253.62a.858.858 0 01-.253.622.83.83 0 01-.612.257.83.83 0 01-.612-.257.854.854 0 01-.254-.623c0-.244.085-.449.254-.62a.836.836 0 01.612-.254zM73.722 2.511h1.5v5.225c0 1.031-.203 1.79-.612 2.276-.547.658-1.373.988-2.476.988-.589 0-1.082-.074-1.484-.223a2.64 2.64 0 01-1.014-.66 2.706 2.706 0 01-.612-1.055h1.66c.146.171.335.301.567.39.232.088.506.131.822.131.404 0 .73-.064.976-.19.247-.128.42-.292.521-.493.101-.202.153-.55.153-1.043-.265.27-.543.463-.832.581a2.61 2.61 0 01-.988.177 2.687 2.687 0 01-2.04-.886c-.554-.591-.832-1.338-.832-2.243 0-.967.294-1.746.882-2.333a2.61 2.61 0 011.907-.796c.346 0 .672.064.98.194.306.13.615.34.922.636V2.51zm-1.56 1.274c-.475 0-.866.162-1.175.484-.31.324-.463.73-.463 1.22s.16.925.475 1.25c.316.324.713.487 1.191.487.478 0 .853-.158 1.154-.476.303-.318.456-.735.456-1.25s-.153-.922-.459-1.24c-.304-.318-.698-.476-1.18-.476v.001zM79.468 2.355a3.15 3.15 0 011.597.433c.498.288.887.677 1.166 1.172.28.493.419 1.027.419 1.599 0 .572-.14 1.113-.422 1.614a3.056 3.056 0 01-1.15 1.174 3.13 3.13 0 01-1.604.424c-.86 0-1.595-.312-2.204-.934-.609-.623-.913-1.378-.913-2.267 0-.954.344-1.748 1.03-2.384.603-.553 1.296-.83 2.08-.83l.002-.002v.001zm.025 1.442c-.468 0-.857.165-1.168.497-.312.33-.466.753-.466 1.27s.153.96.461 1.29c.308.33.697.493 1.169.493.471 0 .863-.166 1.176-.5.312-.333.47-.76.47-1.283 0-.524-.154-.95-.463-1.275-.307-.327-.7-.492-1.179-.492zM82.8 2.512h1.535l1.515 3.6 1.513-3.6h1.525L86.335 8.61h-.976l-2.56-6.1h.003-.001z" fill="#DEEDFC"/><path d="M89.128 10.09L92.79.077h1.083l-3.668 10.011h-1.077zM95.444.315h4.491v1.54h-2.95v1.506h1.917v1.517h-1.917V8.61h-1.541V.314v.001zM100.727 2.475h1.298v.772a1.65 1.65 0 01.561-.694c.232-.158.487-.236.765-.236.196 0 .402.053.616.158l-.472 1.326c-.177-.09-.323-.136-.438-.136-.232 0-.429.147-.59.44-.162.294-.242.87-.242 1.726l.006.3v2.481h-1.503V2.475h-.001zM109.169 2.475h1.515v6.137h-1.515v-.649a2.935 2.935 0 01-.889.617c-.297.127-.62.19-.967.19-.779 0-1.454-.307-2.022-.922-.569-.615-.853-1.38-.853-2.293 0-.913.274-1.723.825-2.33.551-.605 1.219-.908 2.006-.908a2.5 2.5 0 011.019.209c.318.14.611.347.88.626v-.677h.001zm-1.591 1.264c-.468 0-.857.168-1.166.505-.309.337-.464.768-.464 1.295 0 .527.158.967.473 1.309a1.52 1.52 0 001.164.513c.46 0 .869-.168 1.183-.504.314-.337.469-.778.469-1.323 0-.544-.156-.965-.469-1.297-.314-.33-.71-.496-1.189-.496l-.001-.002zM112.209 2.475h1.531V5.43c0 .576.039.975.117 1.2.077.223.203.397.375.52.172.124.384.187.637.187s.466-.062.643-.184c.176-.122.307-.302.391-.54.063-.176.094-.554.094-1.133V2.473h1.515v2.6c0 1.072-.083 1.806-.25 2.2-.203.483-.503.851-.899 1.11-.396.257-.899.386-1.509.386-.662 0-1.198-.151-1.605-.451-.409-.3-.696-.72-.863-1.258-.117-.371-.177-1.049-.177-2.03V2.475zM123.486.106H125V8.61h-1.514v-.65a2.95 2.95 0 01-.89.618c-.297.126-.62.189-.967.189-.779 0-1.454-.307-2.022-.922-.569-.615-.853-1.38-.853-2.292 0-.913.275-1.724.825-2.33.551-.605 1.219-.909 2.006-.909a2.5 2.5 0 011.019.21c.318.14.611.347.88.625V.104l.002.002zm-1.592 3.632c-.468 0-.857.168-1.166.505-.309.336-.464.767-.464 1.294s.158.967.473 1.31a1.52 1.52 0 001.164.513 1.57 1.57 0 001.183-.505c.314-.336.47-.778.47-1.322 0-.545-.157-.966-.47-1.297-.314-.331-.709-.496-1.189-.496l-.001-.002z" fill="#fff"/></svg>