<svg width="524" height="34" viewBox="0 0 524 34" fill="none" xmlns="http://www.w3.org/2000/svg"><path d="M.376 28 10.594 2.728h7.644L28.456 28H20.89l-1.17-3.276H9.112L7.942 28H.376zm10.725-8.97h6.63l-3.003-8.541c-.234-.624-.273-.858-.312-1.014 0 0-.078.351-.312 1.014l-3.003 8.541zm19.63 14.703V8.071h6.708v2.223c1.6-2.145 3.822-2.613 5.421-2.613 5.538 0 8.541 4.602 8.541 10.335 0 5.772-3.198 10.374-8.775 10.374-1.599 0-3.588-.546-4.797-2.067v7.41h-7.098zM40.95 22.15c1.872 0 3.198-1.677 3.198-4.095 0-2.379-1.326-4.134-3.198-4.134-1.872 0-3.198 1.755-3.198 4.134 0 2.418 1.326 4.095 3.198 4.095zM54.506 28V8.071h6.903v3.549c.117-.858 1.833-3.939 6.513-3.939v7.722c-5.148 0-6.318 2.145-6.318 5.889V28h-7.098zm26.96.39c-6.045 0-11.193-3.783-11.193-10.335 0-5.772 4.485-10.374 10.374-10.374 5.655 0 9.984 4.602 9.984 10.374 0 1.209-.156 2.301-.156 2.301h-13.22c.584 1.872 2.34 2.574 4.25 2.574 1.677 0 3.471-.507 4.72-1.209l2.378 4.797c-2.223 1.365-4.68 1.872-7.137 1.872zM77.06 16.339h7.098c-.234-1.833-1.677-3.081-3.51-3.081-1.755 0-3.159 1.248-3.588 3.081zM93.753 28V8.071h6.708v2.301c1.833-2.145 4.017-2.691 6.006-2.691 5.031 0 6.981 2.964 6.981 8.814V28h-7.098V17.392c0-2.262-.858-3.081-2.223-3.081-2.184 0-3.276 1.833-3.276 4.29V28h-7.098zm31.164.39c-5.538 0-8.541-4.602-8.541-10.335 0-5.772 3.198-10.374 8.775-10.374 1.599 0 3.588.546 4.797 2.067v-7.41h7.098V28h-6.708v-2.223c-1.053 2.028-3.822 2.613-5.421 2.613zm1.872-6.24c1.872 0 3.198-1.677 3.198-4.095 0-2.379-1.326-4.134-3.198-4.134-1.872 0-3.198 1.755-3.198 4.134 0 2.418 1.326 4.095 3.198 4.095zm24.554 6.24c-6.045 0-11.193-3.783-11.193-10.335 0-5.772 4.485-10.374 10.374-10.374 5.655 0 9.984 4.602 9.984 10.374 0 1.209-.156 2.301-.156 2.301h-13.221c.585 1.872 2.34 2.574 4.251 2.574 1.677 0 3.471-.507 4.719-1.209l2.379 4.797c-2.223 1.365-4.68 1.872-7.137 1.872zm-4.407-12.051h7.098c-.234-1.833-1.677-3.081-3.51-3.081-1.755 0-3.159 1.248-3.588 3.081zm33.88 12.051c-5.538 0-8.541-4.602-8.541-10.335 0-5.772 3.003-10.374 8.541-10.374 1.599 0 4.251.546 5.421 2.613V8.071h6.708V28h-6.708v-2.223c-1.092 2.028-3.822 2.613-5.421 2.613zm1.872-6.24c1.872 0 3.198-1.677 3.198-4.095 0-2.379-1.326-4.134-3.198-4.134-1.872 0-3.198 1.755-3.198 4.134 0 2.418 1.326 4.095 3.198 4.095zm30.938 6.24c-5.538 0-8.541-4.602-8.541-10.335 0-5.772 3.198-10.374 8.775-10.374 1.599 0 3.588.546 4.797 2.067v-7.41h7.098V28h-6.708v-2.223c-1.053 2.028-3.822 2.613-5.421 2.613zm1.872-6.24c1.872 0 3.198-1.677 3.198-4.095 0-2.379-1.326-4.134-3.198-4.134-1.872 0-3.198 1.755-3.198 4.134 0 2.418 1.326 4.095 3.198 4.095zm24.555 6.24c-6.045 0-11.193-3.783-11.193-10.335 0-5.772 4.485-10.374 10.374-10.374 5.655 0 9.984 4.602 9.984 10.374 0 1.209-.156 2.301-.156 2.301h-13.221c.585 1.872 2.34 2.574 4.251 2.574 1.677 0 3.471-.507 4.719-1.209l2.379 4.797c-2.223 1.365-4.68 1.872-7.137 1.872zm-4.407-12.051h7.098c-.234-1.833-1.677-3.081-3.51-3.081-1.755 0-3.159 1.248-3.588 3.081zm24.649 12.051c-3.822 0-6.318-2.457-6.318-6.825v-7.878h-2.925V8.071h2.925V4.483l7.098-1.755v5.343h4.407v5.616h-4.407v7.332c0 .936.468 1.248 1.092 1.248.585 0 1.287-.273 1.794-.624l1.911 5.187c-1.716 1.209-3.822 1.56-5.577 1.56zm18.624 0c-6.045 0-11.193-3.783-11.193-10.335 0-5.772 4.485-10.374 10.374-10.374 5.655 0 9.984 4.602 9.984 10.374 0 1.209-.156 2.301-.156 2.301h-13.221c.585 1.872 2.34 2.574 4.251 2.574 1.677 0 3.471-.507 4.719-1.209l2.379 4.797c-2.223 1.365-4.68 1.872-7.137 1.872zm-4.407-12.051h7.098c-.234-1.833-1.677-3.081-3.51-3.081-1.755 0-3.159 1.248-3.588 3.081zm27.067 12.051c-6.123 0-10.764-4.602-10.764-10.335 0-5.772 4.641-10.374 10.764-10.374 2.73 0 4.953.819 7.059 2.496l-4.095 4.914c-.741-.702-1.56-1.17-2.769-1.17-2.301 0-3.783 1.755-3.783 4.134 0 2.418 1.443 4.095 3.939 4.095 1.365 0 2.496-.585 3.354-1.443l3.549 5.226c-1.911 1.599-4.446 2.457-7.254 2.457zm17.587 0c-3.822 0-6.318-2.457-6.318-6.825v-7.878h-2.925V8.071h2.925V4.483l7.098-1.755v5.343h4.407v5.616h-4.407v7.332c0 .936.468 1.248 1.092 1.248.585 0 1.287-.273 1.794-.624l1.911 5.187c-1.716 1.209-3.822 1.56-5.577 1.56zm15.971 0c-5.538 0-8.541-4.602-8.541-10.335 0-5.772 3.003-10.374 8.541-10.374 1.599 0 4.251.546 5.421 2.613V8.071h6.708V28h-6.708v-2.223c-1.092 2.028-3.822 2.613-5.421 2.613zm1.872-6.24c1.872 0 3.198-1.677 3.198-4.095 0-2.379-1.326-4.134-3.198-4.134-1.872 0-3.198 1.755-3.198 4.134 0 2.418 1.326 4.095 3.198 4.095zM350.761 28V8.071h6.903v3.549c.117-.858 1.833-3.939 6.513-3.939v7.722c-5.148 0-6.318 2.145-6.318 5.889V28h-7.098zm35.996.39c-6.045 0-11.193-3.783-11.193-10.335 0-5.772 4.485-10.374 10.374-10.374 5.655 0 9.984 4.602 9.984 10.374 0 1.209-.156 2.301-.156 2.301h-13.221c.585 1.872 2.34 2.574 4.251 2.574 1.677 0 3.471-.507 4.719-1.209l2.379 4.797c-2.223 1.365-4.68 1.872-7.137 1.872zm-4.407-12.051h7.098c-.234-1.833-1.677-3.081-3.51-3.081-1.755 0-3.159 1.248-3.588 3.081zm24.025 12.051c-4.563 0-7.098-1.365-8.268-2.379l2.262-4.992c1.56 1.053 3.003 1.677 6.045 1.677.078 0 1.95-.117 1.95-.897 0-.624-1.17-.741-2.34-1.014-4.329-1.053-7.527-2.808-7.527-6.474 0-4.368 3.978-6.63 8.19-6.63 3.861 0 6.162.858 8.073 1.872l-2.106 4.758c-2.301-.897-4.407-1.17-5.733-1.17-.702 0-1.248.234-1.248.624 0 .741 1.677 1.014 3.666 1.56 2.808.819 6.201 2.184 6.201 6.201 0 5.343-5.421 6.864-9.165 6.864zm19.829 0c-3.822 0-6.318-2.457-6.318-6.825v-7.878h-2.925V8.071h2.925V4.483l7.098-1.755v5.343h4.407v5.616h-4.407v7.332c0 .936.468 1.248 1.092 1.248.585 0 1.287-.273 1.794-.624l1.911 5.187c-1.716 1.209-3.822 1.56-5.577 1.56zm15.972 0c-5.538 0-8.541-4.602-8.541-10.335 0-5.772 3.003-10.374 8.541-10.374 1.599 0 4.251.546 5.421 2.613V8.071h6.708V28h-6.708v-2.223c-1.092 2.028-3.822 2.613-5.421 2.613zm1.872-6.24c1.872 0 3.198-1.677 3.198-4.095 0-2.379-1.326-4.134-3.198-4.134-1.872 0-3.198 1.755-3.198 4.134 0 2.418 1.326 4.095 3.198 4.095zM458.969 28V13.843h-3.003V8.227h3.003V6.979c0-4.368 2.496-6.825 6.318-6.825 1.755 0 3.861.273 5.577 1.131l-1.911 5.187a4.447 4.447 0 0 0-1.56-.312c-.741 0-1.326.39-1.326 1.638v.429h3.9v5.616h-3.9V28h-7.098zm21.158.39c-5.538 0-8.541-4.602-8.541-10.335 0-5.772 3.003-10.374 8.541-10.374 1.599 0 4.251.546 5.421 2.613V8.071h6.708V28h-6.708v-2.223c-1.092 2.028-3.822 2.613-5.421 2.613zm1.872-6.24c1.872 0 3.198-1.677 3.198-4.095 0-2.379-1.326-4.134-3.198-4.134-1.872 0-3.198 1.755-3.198 4.134 0 2.418 1.326 4.095 3.198 4.095zm21.084 6.24c-4.563 0-7.098-1.365-8.268-2.379l2.262-4.992c1.56 1.053 3.003 1.677 6.045 1.677.078 0 1.95-.117 1.95-.897 0-.624-1.17-.741-2.34-1.014-4.329-1.053-7.527-2.808-7.527-6.474 0-4.368 3.978-6.63 8.19-6.63 3.861 0 6.162.858 8.073 1.872l-2.106 4.758c-2.301-.897-4.407-1.17-5.733-1.17-.702 0-1.248.234-1.248.624 0 .741 1.677 1.014 3.666 1.56 2.808.819 6.201 2.184 6.201 6.201 0 5.343-5.421 6.864-9.165 6.864zm16.046 0c-2.223 0-3.861-1.677-3.861-3.822s1.638-3.822 3.861-3.822c2.262 0 3.939 1.677 3.939 3.822s-1.677 3.822-3.939 3.822z" fill="#0B2E54"/></svg>