<svg width="223" height="85" viewBox="0 0 223 85" fill="none" xmlns="http://www.w3.org/2000/svg"><path d="M.214 29.792a2.6 2.6 0 01.207-1.035 2.628 2.628 0 011.426-1.449c.338-.138.69-.207 1.058-.207a2.6 2.6 0 011.035.207c.338.138.629.33.874.575.246.245.437.537.575.874a2.6 2.6 0 01.207 1.035c0 .368-.069.72-.207 1.058a2.628 2.628 0 01-1.449 1.426 2.6 2.6 0 01-1.035.207c-.368 0-.72-.069-1.058-.207A2.692 2.692 0 01.421 30.85a2.768 2.768 0 01-.207-1.058zm8.277 0a2.6 2.6 0 01.207-1.035 2.628 2.628 0 011.426-1.449c.337-.138.69-.207 1.058-.207a2.6 2.6 0 011.035.207c.337.138.628.33.874.575.245.245.437.537.575.874a2.6 2.6 0 01.207 1.035c0 .368-.07.72-.207 1.058a2.69 2.69 0 01-.575.851 2.627 2.627 0 01-.874.575 2.6 2.6 0 01-1.035.207c-.368 0-.721-.069-1.058-.207a2.692 2.692 0 01-1.426-1.426 2.768 2.768 0 01-.207-1.058zm8.276 0a2.6 2.6 0 01.207-1.035c.138-.337.33-.629.575-.874.245-.245.53-.437.851-.575.337-.138.69-.207 1.058-.207a2.6 2.6 0 011.035.207c.337.138.629.33.874.575.245.245.437.537.575.874a2.6 2.6 0 01.207 1.035c0 .368-.069.72-.207 1.058a2.629 2.629 0 01-1.449 1.426 2.6 2.6 0 01-1.035.207c-.368 0-.72-.069-1.058-.207a2.691 2.691 0 01-1.426-1.426 2.768 2.768 0 01-.207-1.058zm9.476-17.799H33.3v2.457c1.924-1.846 4.082-2.769 6.474-2.769 2.965 0 5.227 1.248 6.787 3.744 1.586-2.522 3.848-3.783 6.785-3.783.936 0 1.82.143 2.652.429.832.26 1.547.689 2.145 1.287.599.572 1.067 1.326 1.404 2.262.364.936.546 2.067.546 3.393V32h-7.059v-9.867c0-1.014-.077-1.846-.233-2.496-.13-.65-.338-1.157-.624-1.521-.26-.364-.572-.611-.936-.741a3.453 3.453 0 00-1.17-.195c-2.263 0-3.394 1.651-3.394 4.953V32H39.62v-9.867c0-1.014-.066-1.846-.195-2.496-.13-.676-.325-1.209-.585-1.599-.235-.39-.547-.65-.937-.78-.39-.156-.844-.234-1.364-.234-.443 0-.858.065-1.248.195s-.741.39-1.053.78c-.286.364-.52.884-.703 1.56-.155.65-.233 1.508-.233 2.574V32h-7.06V11.993zm54.1 7.098c-.234-.988-.715-1.781-1.443-2.379-.728-.598-1.612-.897-2.652-.897-1.092 0-1.99.286-2.691.858-.676.572-1.105 1.378-1.287 2.418h8.073zm-8.268 4.095c0 3.042 1.43 4.563 4.29 4.563 1.534 0 2.69-.624 3.47-1.872h6.826c-1.378 4.576-4.823 6.864-10.335 6.864-1.69 0-3.237-.247-4.641-.741-1.404-.52-2.613-1.248-3.627-2.184a9.774 9.774 0 01-2.301-3.354c-.546-1.3-.82-2.756-.82-4.368 0-1.664.26-3.159.78-4.485.52-1.352 1.262-2.496 2.224-3.432.962-.936 2.119-1.651 3.47-2.145 1.379-.52 2.926-.78 4.642-.78 1.69 0 3.21.26 4.563.78 1.352.494 2.496 1.222 3.432 2.184.936.962 1.65 2.145 2.145 3.549.494 1.378.74 2.938.74 4.68v.741H72.076zm19.674-11.193h7.059v2.535c.962-1.17 1.937-1.95 2.925-2.34.988-.416 2.145-.624 3.471-.624 1.404 0 2.6.234 3.588.702a6.957 6.957 0 012.574 1.911c.572.676.962 1.43 1.17 2.262.208.832.312 1.781.312 2.847V32h-7.059V21.899c0-.988-.078-1.781-.234-2.379-.13-.624-.377-1.118-.741-1.482a2.675 2.675 0 00-1.053-.663 3.921 3.921 0 00-1.248-.195c-1.196 0-2.119.364-2.77 1.092-.623.702-.935 1.716-.935 3.042V32h-7.06V11.993zm39.938 5.148c-1.3-.676-2.574-1.014-3.822-1.014-.65 0-1.183.13-1.599.39-.39.26-.585.611-.585 1.053 0 .234.026.429.078.585.078.13.221.26.429.39.234.13.559.247.975.351.442.104 1.014.234 1.716.39 1.95.39 3.406 1.092 4.368 2.106.962.988 1.443 2.262 1.443 3.822 0 1.17-.234 2.223-.702 3.159a6.902 6.902 0 01-1.95 2.379c-.832.624-1.833 1.105-3.003 1.443-1.17.364-2.457.546-3.861.546-2.704 0-5.369-.767-7.995-2.301l2.574-4.992c1.976 1.352 3.848 2.028 5.616 2.028.65 0 1.183-.143 1.599-.429.416-.286.624-.65.624-1.092 0-.26-.039-.468-.117-.624-.052-.182-.182-.338-.39-.468-.208-.156-.52-.286-.936-.39-.39-.13-.91-.26-1.56-.39-2.184-.442-3.718-1.092-4.602-1.95-.858-.884-1.287-2.093-1.287-3.627 0-1.118.208-2.119.624-3.003a6.217 6.217 0 011.794-2.301c.78-.624 1.716-1.105 2.808-1.443 1.118-.338 2.353-.507 3.705-.507 2.21 0 4.355.429 6.435 1.287l-2.379 4.602zm13.915 4.797c0 .65.117 1.261.351 1.833.234.546.546 1.027.936 1.443.416.416.897.741 1.443.975a4.794 4.794 0 001.833.351c.624 0 1.209-.117 1.755-.351a4.046 4.046 0 001.443-.975c.416-.416.741-.897.975-1.443a4.03 4.03 0 00.39-1.755 4.03 4.03 0 00-.39-1.755 4.455 4.455 0 00-.975-1.482 4.046 4.046 0 00-1.443-.975 4.408 4.408 0 00-1.755-.351c-.65 0-1.261.117-1.833.351a4.563 4.563 0 00-1.443.975c-.39.416-.702.897-.936 1.443a4.134 4.134 0 00-.351 1.716zm8.892-9.945h7.098V32h-7.098v-2.223c-1.508 1.898-3.549 2.847-6.123 2.847-1.456 0-2.795-.26-4.017-.78a9.937 9.937 0 01-3.198-2.262 10.62 10.62 0 01-2.145-3.393c-.494-1.3-.741-2.717-.741-4.251 0-1.43.247-2.782.741-4.056.494-1.3 1.183-2.431 2.067-3.393a9.505 9.505 0 013.159-2.262c1.222-.572 2.574-.858 4.056-.858 2.496 0 4.563.871 6.201 2.613v-1.989zm20.464 0v29.991h-7.059V11.993h7.059zm-7.527-7.683c0-.546.104-1.053.312-1.521.208-.494.494-.923.858-1.287.364-.364.78-.65 1.248-.858a3.98 3.98 0 011.56-.312c.546 0 1.053.104 1.521.312.494.208.923.494 1.287.858.364.364.65.793.858 1.287.208.468.312.975.312 1.521a3.98 3.98 0 01-.312 1.56 4.113 4.113 0 01-.858 1.248c-.364.364-.793.65-1.287.858a3.702 3.702 0 01-1.521.312 3.98 3.98 0 01-1.56-.312 4.113 4.113 0 01-1.248-.858 4.113 4.113 0 01-.858-1.248 3.98 3.98 0 01-.312-1.56zm27.756 14.781c-.234-.988-.715-1.781-1.443-2.379-.728-.598-1.612-.897-2.652-.897-1.092 0-1.989.286-2.691.858-.676.572-1.105 1.378-1.287 2.418h8.073zm-8.268 4.095c0 3.042 1.43 4.563 4.29 4.563 1.534 0 2.691-.624 3.471-1.872h6.825c-1.378 4.576-4.823 6.864-10.335 6.864-1.69 0-3.237-.247-4.641-.741-1.404-.52-2.613-1.248-3.627-2.184a9.774 9.774 0 01-2.301-3.354c-.546-1.3-.819-2.756-.819-4.368 0-1.664.26-3.159.78-4.485.52-1.352 1.261-2.496 2.223-3.432.962-.936 2.119-1.651 3.471-2.145 1.378-.52 2.925-.78 4.641-.78 1.69 0 3.211.26 4.563.78 1.352.494 2.496 1.222 3.432 2.184.936.962 1.651 2.145 2.145 3.549.494 1.378.741 2.938.741 4.68v.741h-14.859zm32.934-6.045c-1.3-.676-2.574-1.014-3.822-1.014-.65 0-1.183.13-1.599.39-.39.26-.585.611-.585 1.053 0 .234.026.429.078.585.078.13.221.26.429.39.234.13.559.247.975.351.442.104 1.014.234 1.716.39 1.95.39 3.406 1.092 4.368 2.106.962.988 1.443 2.262 1.443 3.822 0 1.17-.234 2.223-.702 3.159a6.902 6.902 0 01-1.95 2.379c-.832.624-1.833 1.105-3.003 1.443-1.17.364-2.457.546-3.861.546-2.704 0-5.369-.767-7.995-2.301l2.574-4.992c1.976 1.352 3.848 2.028 5.616 2.028.65 0 1.183-.143 1.599-.429.416-.286.624-.65.624-1.092 0-.26-.039-.468-.117-.624-.052-.182-.182-.338-.39-.468-.208-.156-.52-.286-.936-.39-.39-.13-.91-.26-1.56-.39-2.184-.442-3.718-1.092-4.602-1.95-.858-.884-1.287-2.093-1.287-3.627 0-1.118.208-2.119.624-3.003a6.217 6.217 0 011.794-2.301c.78-.624 1.716-1.105 2.808-1.443 1.118-.338 2.353-.507 3.705-.507 2.21 0 4.355.429 6.435 1.287l-2.379 4.602zM30.082 73.938c0 .65.117 1.261.35 1.833.235.546.547 1.027.937 1.443.416.416.897.741 1.443.975a4.794 4.794 0 001.833.351c.624 0 1.209-.117 1.755-.351a4.046 4.046 0 001.443-.975c.416-.416.74-.897.975-1.443a4.03 4.03 0 00.39-1.755 4.03 4.03 0 00-.39-1.755 4.455 4.455 0 00-.975-1.482 4.046 4.046 0 00-1.443-.975 4.408 4.408 0 00-1.755-.351c-.624 0-1.222.117-1.794.351a4.563 4.563 0 00-1.443.975c-.39.416-.715.897-.975 1.443a4.134 4.134 0 00-.351 1.716zm8.892-22.308h7.098V84h-7.098v-2.223c-1.508 1.898-3.55 2.847-6.123 2.847-1.456 0-2.795-.273-4.017-.819a9.937 9.937 0 01-3.198-2.262 10.62 10.62 0 01-2.145-3.393c-.494-1.3-.741-2.704-.741-4.212 0-1.43.234-2.782.702-4.056.494-1.3 1.183-2.431 2.067-3.393a9.505 9.505 0 013.159-2.262c1.248-.572 2.613-.858 4.095-.858 2.496 0 4.563.871 6.2 2.613V51.63zM66.28 71.091c-.234-.988-.715-1.781-1.443-2.379-.728-.598-1.612-.897-2.652-.897-1.092 0-1.99.286-2.691.858-.676.572-1.105 1.378-1.287 2.418h8.073zm-8.268 4.095c0 3.042 1.43 4.563 4.29 4.563 1.534 0 2.69-.624 3.47-1.872H72.6c-1.378 4.576-4.823 6.864-10.335 6.864-1.69 0-3.237-.247-4.641-.741-1.404-.52-2.613-1.248-3.627-2.184a9.774 9.774 0 01-2.301-3.354c-.546-1.3-.82-2.756-.82-4.368 0-1.664.26-3.159.78-4.485.52-1.352 1.262-2.496 2.224-3.432.962-.936 2.119-1.651 3.47-2.145 1.379-.52 2.926-.78 4.642-.78 1.69 0 3.21.26 4.563.78 1.352.494 2.496 1.222 3.432 2.184.936.962 1.65 2.145 2.145 3.549.494 1.378.74 2.938.74 4.68v.741H58.014zm41.585-5.304V84H92.54V69.882H90.2v-5.889h2.34v-6.006h7.06v6.006h4.016v5.889h-4.017zm22.457 1.209c-.234-.988-.715-1.781-1.443-2.379-.728-.598-1.612-.897-2.652-.897-1.092 0-1.989.286-2.691.858-.676.572-1.105 1.378-1.287 2.418h8.073zm-8.268 4.095c0 3.042 1.43 4.563 4.29 4.563 1.534 0 2.691-.624 3.471-1.872h6.825c-1.378 4.576-4.823 6.864-10.335 6.864-1.69 0-3.237-.247-4.641-.741-1.404-.52-2.613-1.248-3.627-2.184a9.774 9.774 0 01-2.301-3.354c-.546-1.3-.819-2.756-.819-4.368 0-1.664.26-3.159.78-4.485.52-1.352 1.261-2.496 2.223-3.432.962-.936 2.119-1.651 3.471-2.145 1.378-.52 2.925-.78 4.641-.78 1.69 0 3.211.26 4.563.78 1.352.494 2.496 1.222 3.432 2.184.936.962 1.651 2.145 2.145 3.549.494 1.378.741 2.938.741 4.68v.741h-14.859zm26.174-2.028l-8.112-9.165h9.204l3.432 4.134 3.51-4.134h9.204l-8.307 9.165L158.915 84h-9.36l-5.109-5.928L139.298 84h-9.321l9.984-10.842zm30.037-3.276V84h-7.059V69.882h-2.34v-5.889h2.34v-6.006h7.059v6.006h4.017v5.889h-4.017zm14.463 4.017c0 .676.117 1.3.351 1.872.26.546.585 1.027.975 1.443.416.416.897.741 1.443.975.572.234 1.17.351 1.794.351.624 0 1.209-.117 1.755-.351a4.046 4.046 0 001.443-.975c.416-.416.741-.897.975-1.443.26-.572.39-1.183.39-1.833a4.03 4.03 0 00-.39-1.755 4.455 4.455 0 00-.975-1.482 4.046 4.046 0 00-1.443-.975 4.408 4.408 0 00-1.755-.351c-.624 0-1.222.117-1.794.351a4.563 4.563 0 00-1.443.975c-.39.416-.715.897-.975 1.443a4.408 4.408 0 00-.351 1.755zm-7.449-.078c0-1.482.299-2.86.897-4.134a9.94 9.94 0 012.496-3.354c1.066-.962 2.327-1.716 3.783-2.262 1.482-.546 3.094-.819 4.836-.819 1.716 0 3.302.273 4.758.819 1.482.52 2.756 1.261 3.822 2.223a9.622 9.622 0 012.535 3.393c.598 1.3.897 2.743.897 4.329 0 1.586-.312 3.042-.936 4.368a10.353 10.353 0 01-2.496 3.393c-1.066.936-2.353 1.664-3.861 2.184-1.482.52-3.094.78-4.836.78-1.716 0-3.302-.26-4.758-.78s-2.717-1.261-3.783-2.223a10.502 10.502 0 01-2.457-3.432c-.598-1.352-.897-2.847-.897-4.485z" fill="#fff"/></svg>