<svg width="211" height="36" viewBox="0 0 211 36" fill="none" xmlns="http://www.w3.org/2000/svg"><path d="M8.122 24.122c0 .728.126 1.4.378 2.016.28.588.63 1.106 1.05 1.554.448.448.966.798 1.554 1.05.616.252 1.26.378 1.932.378.672 0 1.302-.126 1.89-.378a4.358 4.358 0 001.554-1.05 4.915 4.915 0 001.05-1.554c.28-.616.42-1.274.42-1.974a4.34 4.34 0 00-.42-1.89 4.798 4.798 0 00-1.05-1.596 4.358 4.358 0 00-1.554-1.05 4.747 4.747 0 00-1.89-.378c-.672 0-1.316.126-1.932.378a4.915 4.915 0 00-1.554 1.05c-.42.448-.77.966-1.05 1.554a4.747 4.747 0 00-.378 1.89zM.1 24.038c0-1.596.322-3.08.966-4.452.644-1.4 1.54-2.604 2.688-3.612 1.148-1.036 2.506-1.848 4.074-2.436 1.596-.588 3.332-.882 5.208-.882 1.848 0 3.556.294 5.124.882 1.596.56 2.968 1.358 4.116 2.394a10.362 10.362 0 012.73 3.654c.644 1.4.966 2.954.966 4.662 0 1.708-.336 3.276-1.008 4.704a11.15 11.15 0 01-2.688 3.654c-1.148 1.008-2.534 1.792-4.158 2.352-1.596.56-3.332.84-5.208.84-1.848 0-3.556-.28-5.124-.84-1.568-.56-2.926-1.358-4.074-2.394a11.31 11.31 0 01-2.646-3.696C.422 27.412.1 25.802.1 24.038zm60.271-2.94c-.252-1.064-.77-1.918-1.553-2.562-.785-.644-1.736-.966-2.856-.966-1.177 0-2.143.308-2.899.924-.727.616-1.19 1.484-1.386 2.604h8.694zm-8.904 4.41c0 3.276 1.54 4.914 4.62 4.914 1.652 0 2.898-.672 3.738-2.016h7.35c-1.483 4.928-5.194 7.392-11.13 7.392-1.82 0-3.486-.266-4.998-.798-1.511-.56-2.813-1.344-3.905-2.352a10.526 10.526 0 01-2.479-3.612c-.587-1.4-.881-2.968-.881-4.704 0-1.792.28-3.402.84-4.83.56-1.456 1.358-2.688 2.394-3.696 1.035-1.008 2.282-1.778 3.738-2.31 1.483-.56 3.15-.84 4.998-.84 1.82 0 3.457.28 4.913.84 1.456.532 2.688 1.316 3.697 2.352 1.008 1.036 1.778 2.31 2.31 3.822.532 1.484.797 3.164.797 5.04v.798H51.468zm20.348-12.054h7.602V16.1c2.072-1.988 4.396-2.982 6.972-2.982 3.192 0 5.628 1.344 7.308 4.032 1.708-2.716 4.144-4.074 7.308-4.074 1.008 0 1.96.154 2.856.462.896.28 1.666.742 2.31 1.386.644.616 1.148 1.428 1.512 2.436.392 1.008.588 2.226.588 3.654V35h-7.602V24.374c0-1.092-.084-1.988-.252-2.688-.14-.7-.364-1.246-.672-1.638-.28-.392-.616-.658-1.008-.798a3.719 3.719 0 00-1.26-.21c-2.436 0-3.654 1.778-3.654 5.334V35H86.22V24.374c0-1.092-.07-1.988-.21-2.688-.14-.728-.35-1.302-.63-1.722-.252-.42-.588-.7-1.008-.84-.42-.168-.91-.252-1.47-.252-.476 0-.924.07-1.344.21-.42.14-.798.42-1.134.84-.308.392-.56.952-.756 1.68-.168.7-.252 1.624-.252 2.772V35h-7.602V13.454zm48.728 10.71c0 .7.126 1.358.378 1.974a5.307 5.307 0 001.008 1.554c.448.448.966.798 1.554 1.05a5.162 5.162 0 001.974.378c.672 0 1.302-.126 1.89-.378a4.358 4.358 0 001.554-1.05 4.915 4.915 0 001.05-1.554 4.34 4.34 0 00.42-1.89 4.34 4.34 0 00-.42-1.89 4.798 4.798 0 00-1.05-1.596 4.358 4.358 0 00-1.554-1.05 4.747 4.747 0 00-1.89-.378c-.7 0-1.358.126-1.974.378a4.915 4.915 0 00-1.554 1.05c-.42.448-.756.966-1.008 1.554a4.452 4.452 0 00-.378 1.848zm9.576-10.71h7.644V35h-7.644v-2.394c-1.624 2.044-3.822 3.066-6.594 3.066-1.568 0-3.01-.28-4.326-.84a10.701 10.701 0 01-3.444-2.436c-.98-1.036-1.75-2.254-2.31-3.654-.532-1.4-.798-2.926-.798-4.578 0-1.54.266-2.996.798-4.368.532-1.4 1.274-2.618 2.226-3.654a10.237 10.237 0 013.402-2.436c1.316-.616 2.772-.924 4.368-.924 2.688 0 4.914.938 6.678 2.814v-2.142zm20.419 0V35h-7.602V13.454h7.602zm-8.106-8.274c0-.588.112-1.134.336-1.638.224-.532.532-.994.924-1.386.392-.392.84-.7 1.344-.924a4.286 4.286 0 011.68-.336c.588 0 1.134.112 1.638.336.532.224.994.532 1.386.924.392.392.7.854.924 1.386.224.504.336 1.05.336 1.638 0 .588-.112 1.148-.336 1.68a4.43 4.43 0 01-.924 1.344c-.392.392-.854.7-1.386.924a3.987 3.987 0 01-1.638.336 4.286 4.286 0 01-1.68-.336 4.43 4.43 0 01-1.344-.924 4.43 4.43 0 01-.924-1.344 4.286 4.286 0 01-.336-1.68zM163.335.14V35h-7.602V.14h7.602zm19.475 18.858c-1.4-.728-2.772-1.092-4.116-1.092-.7 0-1.274.14-1.722.42-.42.28-.63.658-.63 1.134 0 .252.028.462.084.63.084.14.238.28.462.42.252.14.602.266 1.05.378.476.112 1.092.252 1.848.42 2.1.42 3.668 1.176 4.704 2.268 1.036 1.064 1.554 2.436 1.554 4.116 0 1.26-.252 2.394-.756 3.402a7.433 7.433 0 01-2.1 2.562c-.896.672-1.974 1.19-3.234 1.554-1.26.392-2.646.588-4.158.588-2.912 0-5.782-.826-8.61-2.478l2.772-5.376c2.128 1.456 4.144 2.184 6.048 2.184.7 0 1.274-.154 1.722-.462.448-.308.672-.7.672-1.176 0-.28-.042-.504-.126-.672-.056-.196-.196-.364-.42-.504-.224-.168-.56-.308-1.008-.42-.42-.14-.98-.28-1.68-.42-2.352-.476-4.004-1.176-4.956-2.1-.924-.952-1.386-2.254-1.386-3.906 0-1.204.224-2.282.672-3.234a6.695 6.695 0 011.932-2.478c.84-.672 1.848-1.19 3.024-1.554 1.204-.364 2.534-.546 3.99-.546 2.38 0 4.69.462 6.93 1.386l-2.562 4.956zm5.704 13.794a2.6 2.6 0 01.207-1.035 2.633 2.633 0 011.426-1.449c.337-.138.69-.207 1.058-.207a2.6 2.6 0 011.035.207c.337.138.629.33.874.575.245.245.437.537.575.874a2.6 2.6 0 01.207 1.035c0 .368-.069.72-.207 1.058a2.628 2.628 0 01-1.449 1.426 2.6 2.6 0 01-1.035.207c-.368 0-.721-.069-1.058-.207a2.688 2.688 0 01-1.426-1.426 2.768 2.768 0 01-.207-1.058zm8.276 0a2.6 2.6 0 01.207-1.035 2.633 2.633 0 011.426-1.449 2.77 2.77 0 011.058-.207 2.6 2.6 0 011.035.207c.338.138.629.33.874.575.246.245.437.537.575.874a2.6 2.6 0 01.207 1.035c0 .368-.069.72-.207 1.058a2.68 2.68 0 01-.575.851 2.618 2.618 0 01-.874.575 2.6 2.6 0 01-1.035.207 2.77 2.77 0 01-1.058-.207 2.7 2.7 0 01-1.426-1.426 2.768 2.768 0 01-.207-1.058zm8.277 0a2.6 2.6 0 01.207-1.035c.138-.337.329-.629.575-.874.245-.245.529-.437.851-.575.337-.138.69-.207 1.058-.207a2.6 2.6 0 011.035.207c.337.138.628.33.874.575.245.245.437.537.575.874a2.6 2.6 0 01.207 1.035c0 .368-.069.72-.207 1.058a2.638 2.638 0 01-1.449 1.426 2.6 2.6 0 01-1.035.207c-.368 0-.721-.069-1.058-.207a2.688 2.688 0 01-1.426-1.426 2.768 2.768 0 01-.207-1.058z" fill="#fff"/></svg>