<svg width="250" height="58" viewBox="0 0 250 58" fill="none" xmlns="http://www.w3.org/2000/svg"><rect x="1" y="1" width="248" height="56" rx="7" fill="#55F272" stroke="#BBF2C5" stroke-width="2"/><path d="M39.086 31.12l-1.848-5.271-1.848 5.271h3.696zm1.092 3.129h-5.88L33.353 37h-4.389l6.027-15.834h4.494L45.512 37h-4.389l-.945-2.751zm11.671-5.817h1.365c1.512 0 2.268-.658 2.268-1.974 0-1.316-.756-1.974-2.268-1.974H51.85v3.948zm0 8.568h-4.116V21.166h6.552c1.778 0 3.136.462 4.074 1.386.952.924 1.428 2.226 1.428 3.906 0 1.68-.476 2.982-1.428 3.906-.938.924-2.296 1.386-4.074 1.386H51.85V37zm14.652-8.757h.777c.813 0 1.435-.168 1.87-.504.434-.336.65-.819.65-1.449 0-.63-.216-1.113-.65-1.449-.434-.336-1.057-.504-1.87-.504h-.777v3.906zM75.552 37h-5.124l-3.927-6.09V37h-4.116V21.166h6.405c.882 0 1.652.133 2.31.399.659.252 1.198.602 1.618 1.05.433.448.755.966.965 1.554.224.588.336 1.218.336 1.89 0 1.204-.294 2.184-.882 2.94-.573.742-1.427 1.246-2.561 1.512L75.553 37zm11.151-12.348H81.81v2.646h4.62v3.486h-4.62v2.73h4.893V37h-9.009V21.166h9.01v3.486zM90.091 37V21.166h4.116l7.602 9.681v-9.681h4.095V37h-4.095l-7.602-9.681V37H90.09zm23.67-3.486h.945c.714 0 1.351-.112 1.911-.336a3.972 3.972 0 001.407-.924c.392-.392.686-.854.882-1.386.21-.546.315-1.141.315-1.785 0-.63-.105-1.218-.315-1.764a3.986 3.986 0 00-.903-1.407 3.972 3.972 0 00-1.407-.924c-.56-.224-1.19-.336-1.89-.336h-.945v8.862zm-4.116-12.348h6.09c1.078 0 2.086.217 3.024.651a8.01 8.01 0 012.478 1.743 7.794 7.794 0 011.68 2.52c.406.952.609 1.953.609 3.003a7.677 7.677 0 01-.609 3.003 7.811 7.811 0 01-1.659 2.52 8.01 8.01 0 01-2.478 1.743 7.162 7.162 0 01-3.045.651h-6.09V21.166zm25.937 3.486h-4.893v2.646h4.62v3.486h-4.62v2.73h4.893V37h-9.009V21.166h9.009v3.486zm22.348 1.806c-.952-1.162-2.128-1.743-3.528-1.743-.616 0-1.19.112-1.722.336a4.113 4.113 0 00-1.344.924 4.222 4.222 0 00-.903 1.365 4.648 4.648 0 00-.315 1.722c0 .63.105 1.211.315 1.743.224.532.525.994.903 1.386.392.392.847.7 1.365.924a4.187 4.187 0 001.68.336c1.316 0 2.499-.56 3.549-1.68v4.872l-.42.147c-.63.224-1.218.385-1.764.483a8.032 8.032 0 01-1.617.168 8.354 8.354 0 01-3.15-.609 8.608 8.608 0 01-2.646-1.743 8.94 8.94 0 01-1.827-2.667c-.462-1.036-.693-2.163-.693-3.381s.224-2.331.672-3.339a8.405 8.405 0 011.827-2.625 8.243 8.243 0 012.667-1.722 8.164 8.164 0 013.171-.63c.63 0 1.246.07 1.848.21.616.126 1.26.329 1.932.609v4.914zm6.84 2.625c0 .63.119 1.211.357 1.743s.56.994.966 1.386c.406.392.875.7 1.407.924.546.21 1.12.315 1.722.315a4.59 4.59 0 001.701-.315 4.482 4.482 0 001.428-.924 4.22 4.22 0 001.344-3.129 4.22 4.22 0 00-1.344-3.129 4.204 4.204 0 00-1.428-.903 4.338 4.338 0 00-1.701-.336c-.602 0-1.176.112-1.722.336a4.253 4.253 0 00-1.407.903 4.407 4.407 0 00-.966 1.386 4.22 4.22 0 00-.357 1.743zm-4.305 0c0-1.176.217-2.268.651-3.276a8.172 8.172 0 011.806-2.667 8.143 8.143 0 012.751-1.764c1.078-.434 2.261-.651 3.549-.651 1.274 0 2.45.217 3.528.651 1.078.42 2.002 1.008 2.772 1.764a8.016 8.016 0 011.827 2.667c.434 1.008.651 2.1.651 3.276a8.347 8.347 0 01-.651 3.297 8.073 8.073 0 01-1.827 2.646c-.77.756-1.694 1.351-2.772 1.785-1.078.42-2.254.63-3.528.63-1.288 0-2.471-.21-3.549-.63a8.412 8.412 0 01-2.751-1.785 8.232 8.232 0 01-1.806-2.646 8.347 8.347 0 01-.651-3.297zm12.537-11.949l-4.032 2.772-1.596-1.491 3.423-3.276 2.205 1.995zM180.306 37l2.688-15.834h4.074l3.171 8.442 3.15-8.442h4.074L200.151 37h-4.095l-1.365-9.114L190.953 37h-1.638l-3.549-9.114L184.401 37h-4.095zm26.463-7.917c0 .63.119 1.211.357 1.743s.56.994.966 1.386c.406.392.875.7 1.407.924.546.21 1.12.315 1.722.315a4.59 4.59 0 001.701-.315 4.482 4.482 0 001.428-.924 4.22 4.22 0 001.344-3.129 4.22 4.22 0 00-1.344-3.129 4.204 4.204 0 00-1.428-.903 4.338 4.338 0 00-1.701-.336c-.602 0-1.176.112-1.722.336a4.253 4.253 0 00-1.407.903 4.407 4.407 0 00-.966 1.386 4.22 4.22 0 00-.357 1.743zm-4.305 0c0-1.176.217-2.268.651-3.276a8.172 8.172 0 011.806-2.667 8.143 8.143 0 012.751-1.764c1.078-.434 2.261-.651 3.549-.651 1.274 0 2.45.217 3.528.651 1.078.42 2.002 1.008 2.772 1.764a8.016 8.016 0 011.827 2.667c.434 1.008.651 2.1.651 3.276a8.347 8.347 0 01-.651 3.297 8.073 8.073 0 01-1.827 2.646c-.77.756-1.694 1.351-2.772 1.785-1.078.42-2.254.63-3.528.63-1.288 0-2.471-.21-3.549-.63a8.412 8.412 0 01-2.751-1.785 8.232 8.232 0 01-1.806-2.646 8.347 8.347 0 01-.651-3.297z" fill="#68222F"/></svg>