<svg width="253" height="85" viewBox="0 0 253 85" fill="none" xmlns="http://www.w3.org/2000/svg"><path d="M.492 29V.819L19.735 20.95V2.613h3.982v27.993L4.474 10.526V29H.492zm28.284-8.442c0-2.404.86-4.45 2.58-6.136 1.72-1.686 3.817-2.529 6.29-2.529 2.483 0 4.591.849 6.323 2.546 1.709 1.698 2.563 3.783 2.563 6.255 0 2.495-.86 4.586-2.58 6.272-1.732 1.675-3.857 2.512-6.375 2.512-2.495 0-4.586-.854-6.272-2.563-1.686-1.686-2.53-3.805-2.53-6.357zm3.93.068c0 1.663.445 2.98 1.334 3.948.911.98 2.113 1.47 3.605 1.47 1.504 0 2.706-.485 3.606-1.453.9-.969 1.35-2.262 1.35-3.88 0-1.617-.45-2.91-1.35-3.879-.911-.98-2.113-1.47-3.605-1.47-1.47 0-2.66.49-3.572 1.47-.912.98-1.367 2.244-1.367 3.794zm28.711-8.272h3.846v1.487c.706-.74 1.333-1.247 1.88-1.52.558-.285 1.219-.428 1.982-.428 1.014 0 2.074.33 3.179.991l-1.76 3.52c-.73-.523-1.442-.785-2.137-.785-2.096 0-3.144 1.583-3.144 4.75V29h-3.846V12.355zm28.01 9.229H77.5c.103 1.367.547 2.455 1.333 3.264.786.798 1.794 1.197 3.025 1.197.957 0 1.749-.228 2.375-.684.616-.456 1.316-1.299 2.103-2.53l3.247 1.812a13.237 13.237 0 01-1.59 2.205 8.806 8.806 0 01-1.794 1.504 7.34 7.34 0 01-2.068.854c-.74.182-1.544.274-2.41.274-2.483 0-4.477-.798-5.981-2.393-1.504-1.606-2.256-3.737-2.256-6.392 0-2.631.73-4.762 2.187-6.391 1.47-1.607 3.418-2.41 5.845-2.41 2.45 0 4.386.78 5.81 2.341 1.413 1.55 2.12 3.697 2.12 6.443l-.017.906zm-3.947-3.144c-.535-2.051-1.829-3.077-3.88-3.077-.466 0-.905.074-1.315.223a3.63 3.63 0 00-1.128.615c-.33.262-.615.58-.855.957-.239.376-.421.803-.547 1.282h7.725zm17.842-3.248l-3.179 1.692c-.501-1.025-1.122-1.538-1.863-1.538-.353 0-.655.12-.906.36-.25.227-.375.523-.375.888 0 .638.74 1.27 2.221 1.897 2.04.877 3.412 1.686 4.119 2.427.706.74 1.059 1.737 1.059 2.99 0 1.607-.592 2.951-1.777 4.033-1.151 1.026-2.541 1.538-4.17 1.538-2.791 0-4.768-1.361-5.93-4.084l3.281-1.521c.456.798.803 1.305 1.043 1.521.467.433 1.025.65 1.674.65 1.3 0 1.949-.593 1.949-1.778 0-.683-.502-1.321-1.504-1.914a54.464 54.464 0 00-1.162-.564c-.388-.182-.78-.37-1.18-.564-1.116-.547-1.902-1.094-2.358-1.64-.58-.695-.871-1.59-.871-2.684 0-1.446.495-2.643 1.486-3.588 1.014-.946 2.245-1.419 3.692-1.419 2.13 0 3.714 1.1 4.751 3.298zm8.391 22.867h-3.845V12.355h3.845v1.811c1.515-1.515 3.236-2.273 5.161-2.273 2.29 0 4.176.843 5.657 2.53 1.504 1.674 2.256 3.788 2.256 6.34 0 2.495-.747 4.574-2.239 6.237-1.481 1.652-3.35 2.479-5.606 2.479-1.948 0-3.691-.78-5.229-2.342v10.92zm9.143-17.278c0-1.595-.433-2.894-1.299-3.897-.877-1.014-1.982-1.52-3.315-1.52-1.413 0-2.558.49-3.435 1.469-.878.98-1.316 2.267-1.316 3.862 0 1.561.438 2.849 1.316 3.863.866.99 2.005 1.487 3.418 1.487 1.333 0 2.432-.502 3.298-1.504.889-1.003 1.333-2.256 1.333-3.76zm7.212-.222c0-2.404.86-4.45 2.58-6.136 1.721-1.686 3.817-2.529 6.29-2.529 2.483 0 4.591.849 6.323 2.546 1.709 1.698 2.563 3.783 2.563 6.255 0 2.495-.86 4.586-2.58 6.272-1.732 1.675-3.857 2.512-6.375 2.512-2.495 0-4.586-.854-6.272-2.563-1.686-1.686-2.529-3.805-2.529-6.357zm3.931.068c0 1.663.444 2.98 1.333 3.948.911.98 2.113 1.47 3.606 1.47 1.503 0 2.705-.485 3.605-1.453.901-.969 1.351-2.262 1.351-3.88 0-1.617-.45-2.91-1.351-3.879-.911-.98-2.113-1.47-3.605-1.47-1.47 0-2.661.49-3.572 1.47-.912.98-1.367 2.244-1.367 3.794zm17.91-8.272h3.862v1.539c1.344-1.333 2.86-2 4.546-2 1.937 0 3.446.61 4.529 1.829.934 1.037 1.401 2.728 1.401 5.075V29h-3.862v-9.297c0-1.64-.228-2.774-.684-3.4-.444-.639-1.253-.958-2.427-.958-1.276 0-2.181.422-2.717 1.265-.524.832-.786 2.284-.786 4.358V29h-3.862V12.355zM181.388.136h3.862V29h-3.862v-1.743c-1.515 1.481-3.23 2.221-5.144 2.221-2.279 0-4.17-.831-5.674-2.495-1.492-1.697-2.238-3.816-2.238-6.357 0-2.484.746-4.557 2.238-6.22 1.481-1.676 3.344-2.513 5.589-2.513 1.948 0 3.691.798 5.229 2.393V.136zm-9.126 20.491c0 1.595.427 2.894 1.282 3.896.877 1.015 1.982 1.522 3.315 1.522 1.425 0 2.575-.49 3.453-1.47.877-1.014 1.315-2.302 1.315-3.863 0-1.56-.438-2.848-1.315-3.862-.878-.991-2.017-1.487-3.418-1.487-1.322 0-2.427.502-3.316 1.504-.877 1.014-1.316 2.268-1.316 3.76zm30.113-8.272h3.862V29h-3.862v-1.743c-1.584 1.481-3.287 2.221-5.11 2.221-2.302 0-4.204-.831-5.708-2.495-1.493-1.697-2.239-3.816-2.239-6.357 0-2.495.746-4.574 2.239-6.238 1.492-1.663 3.361-2.495 5.605-2.495 1.937 0 3.674.798 5.213 2.393v-1.931zm-9.126 8.272c0 1.595.427 2.894 1.281 3.896.878 1.015 1.983 1.522 3.316 1.522 1.424 0 2.575-.49 3.452-1.47.877-1.014 1.316-2.302 1.316-3.863 0-1.56-.439-2.848-1.316-3.862-.877-.991-2.017-1.487-3.418-1.487-1.322 0-2.427.502-3.316 1.504-.877 1.014-1.315 2.268-1.315 3.76zm27.514-5.435l-3.179 1.692c-.501-1.025-1.122-1.538-1.862-1.538-.354 0-.655.12-.906.36-.251.227-.376.523-.376.888 0 .638.741 1.27 2.222 1.897 2.039.877 3.412 1.686 4.118 2.427.707.74 1.06 1.737 1.06 2.99 0 1.607-.593 2.951-1.778 4.033-1.15 1.026-2.54 1.538-4.169 1.538-2.792 0-4.768-1.361-5.931-4.084l3.282-1.521c.455.798.803 1.305 1.042 1.521a2.38 2.38 0 001.675.65c1.299 0 1.948-.593 1.948-1.778 0-.683-.501-1.321-1.504-1.914a52.012 52.012 0 00-1.162-.564c-.387-.182-.78-.37-1.179-.564-1.117-.547-1.903-1.094-2.358-1.64-.581-.695-.872-1.59-.872-2.684 0-1.446.496-2.643 1.487-3.588 1.014-.946 2.244-1.419 3.691-1.419 2.131 0 3.714 1.1 4.751 3.298zm27.617-2.837h3.863V29h-3.863v-1.743c-1.583 1.481-3.287 2.221-5.109 2.221-2.302 0-4.205-.831-5.709-2.495-1.492-1.697-2.238-3.816-2.238-6.357 0-2.495.746-4.574 2.238-6.238 1.493-1.663 3.362-2.495 5.606-2.495 1.937 0 3.674.798 5.212 2.393v-1.931zm-9.126 8.272c0 1.595.428 2.894 1.282 3.896.877 1.015 1.983 1.522 3.316 1.522 1.424 0 2.574-.49 3.452-1.47.877-1.014 1.316-2.302 1.316-3.863 0-1.56-.439-2.848-1.316-3.862-.878-.991-2.017-1.487-3.418-1.487-1.322 0-2.427.502-3.316 1.504-.877 1.014-1.316 2.268-1.316 3.76z" fill="#fff" fill-opacity=".75"/><path d="M19.613 51.63V84h-7.06V51.63h7.06zm12.662 0V84h-7.059V51.63h7.06zm12.156 22.308c0 .65.117 1.261.351 1.833.234.546.546 1.027.936 1.443.416.416.897.741 1.443.975a4.794 4.794 0 001.833.351c.624 0 1.21-.117 1.755-.351a4.046 4.046 0 001.443-.975c.416-.416.741-.897.975-1.443a4.03 4.03 0 00.39-1.755 4.03 4.03 0 00-.39-1.755 4.455 4.455 0 00-.975-1.482 4.046 4.046 0 00-1.443-.975 4.408 4.408 0 00-1.755-.351c-.65 0-1.26.117-1.833.351a4.563 4.563 0 00-1.443.975c-.39.416-.702.897-.936 1.443a4.134 4.134 0 00-.35 1.716zm8.892-9.945h7.098V84h-7.098v-2.223c-1.508 1.898-3.549 2.847-6.123 2.847-1.456 0-2.795-.26-4.017-.78a9.937 9.937 0 01-3.198-2.262 10.62 10.62 0 01-2.145-3.393c-.494-1.3-.74-2.717-.74-4.251 0-1.43.246-2.782.74-4.056.494-1.3 1.183-2.431 2.067-3.393a9.505 9.505 0 013.16-2.262c1.221-.572 2.573-.858 4.055-.858 2.496 0 4.563.871 6.201 2.613v-1.989zm12.682 0h7.059v2.457c1.924-1.846 4.082-2.769 6.474-2.769 2.964 0 5.226 1.248 6.786 3.744 1.586-2.522 3.848-3.783 6.786-3.783.936 0 1.82.143 2.652.429.832.26 1.547.689 2.145 1.287.598.572 1.066 1.326 1.404 2.262.364.936.546 2.067.546 3.393V84h-7.06v-9.867c0-1.014-.077-1.846-.233-2.496-.13-.65-.338-1.157-.624-1.521-.26-.364-.572-.611-.936-.741a3.453 3.453 0 00-1.17-.195c-2.262 0-3.393 1.651-3.393 4.953V84h-7.06v-9.867c0-1.014-.064-1.846-.194-2.496-.13-.676-.325-1.209-.585-1.599-.234-.39-.546-.65-.936-.78-.39-.156-.845-.234-1.365-.234-.442 0-.858.065-1.248.195s-.741.39-1.053.78c-.286.364-.52.884-.702 1.56-.156.65-.234 1.508-.234 2.574V84h-7.06V63.993zm46.027 9.945c0 .65.117 1.261.351 1.833.234.546.546 1.027.936 1.443.416.416.897.741 1.443.975a4.794 4.794 0 001.833.351c.624 0 1.209-.117 1.755-.351a4.046 4.046 0 001.443-.975c.416-.416.741-.897.975-1.443a4.03 4.03 0 00.39-1.755 4.03 4.03 0 00-.39-1.755 4.455 4.455 0 00-.975-1.482 4.046 4.046 0 00-1.443-.975 4.408 4.408 0 00-1.755-.351c-.65 0-1.261.117-1.833.351a4.563 4.563 0 00-1.443.975c-.39.416-.702.897-.936 1.443a4.134 4.134 0 00-.351 1.716zm8.892-9.945h7.098V84h-7.098v-2.223c-1.508 1.898-3.549 2.847-6.123 2.847-1.456 0-2.795-.26-4.017-.78a9.937 9.937 0 01-3.198-2.262 10.62 10.62 0 01-2.145-3.393c-.494-1.3-.741-2.717-.741-4.251 0-1.43.247-2.782.741-4.056.494-1.3 1.183-2.431 2.067-3.393a9.505 9.505 0 013.159-2.262c1.222-.572 2.574-.858 4.056-.858 2.496 0 4.563.871 6.201 2.613v-1.989zm19.234 9.945c0 .65.117 1.261.351 1.833.234.546.546 1.027.936 1.443.416.416.897.741 1.443.975a4.794 4.794 0 001.833.351c.624 0 1.209-.117 1.755-.351a4.046 4.046 0 001.443-.975c.416-.416.741-.897.975-1.443a4.03 4.03 0 00.39-1.755 4.03 4.03 0 00-.39-1.755 4.455 4.455 0 00-.975-1.482 4.046 4.046 0 00-1.443-.975 4.408 4.408 0 00-1.755-.351c-.624 0-1.222.117-1.794.351a4.563 4.563 0 00-1.443.975c-.39.416-.715.897-.975 1.443a4.134 4.134 0 00-.351 1.716zm8.892-22.308h7.098V84h-7.098v-2.223c-1.508 1.898-3.549 2.847-6.123 2.847-1.456 0-2.795-.273-4.017-.819a9.937 9.937 0 01-3.198-2.262 10.62 10.62 0 01-2.145-3.393c-.494-1.3-.741-2.704-.741-4.212 0-1.43.234-2.782.702-4.056.494-1.3 1.183-2.431 2.067-3.393a9.505 9.505 0 013.159-2.262c1.248-.572 2.613-.858 4.095-.858 2.496 0 4.563.871 6.201 2.613V51.63zm19.234 22.308c0 .65.117 1.261.351 1.833.234.546.546 1.027.936 1.443.416.416.897.741 1.443.975a4.794 4.794 0 001.833.351c.624 0 1.209-.117 1.755-.351a4.046 4.046 0 001.443-.975c.416-.416.741-.897.975-1.443a4.03 4.03 0 00.39-1.755 4.03 4.03 0 00-.39-1.755 4.455 4.455 0 00-.975-1.482 4.046 4.046 0 00-1.443-.975 4.408 4.408 0 00-1.755-.351c-.65 0-1.261.117-1.833.351a4.563 4.563 0 00-1.443.975c-.39.416-.702.897-.936 1.443a4.134 4.134 0 00-.351 1.716zm8.892-9.945h7.098V84h-7.098v-2.223c-1.508 1.898-3.549 2.847-6.123 2.847-1.456 0-2.795-.26-4.017-.78a9.937 9.937 0 01-3.198-2.262 10.62 10.62 0 01-2.145-3.393c-.494-1.3-.741-2.717-.741-4.251 0-1.43.247-2.782.741-4.056.494-1.3 1.183-2.431 2.067-3.393a9.505 9.505 0 013.159-2.262c1.222-.572 2.574-.858 4.056-.858 2.496 0 4.563.871 6.201 2.613v-1.989zm25.941 5.148c-1.3-.676-2.574-1.014-3.822-1.014-.65 0-1.183.13-1.599.39-.39.26-.585.611-.585 1.053 0 .234.026.429.078.585.078.13.221.26.429.39.234.13.559.247.975.351.442.104 1.014.234 1.716.39 1.95.39 3.406 1.092 4.368 2.106.962.988 1.443 2.262 1.443 3.822 0 1.17-.234 2.223-.702 3.159a6.902 6.902 0 01-1.95 2.379c-.832.624-1.833 1.105-3.003 1.443-1.17.364-2.457.546-3.861.546-2.704 0-5.369-.767-7.995-2.301l2.574-4.992c1.976 1.352 3.848 2.028 5.616 2.028.65 0 1.183-.143 1.599-.429.416-.286.624-.65.624-1.092 0-.26-.039-.468-.117-.624-.052-.182-.182-.338-.39-.468-.208-.156-.52-.286-.936-.39-.39-.13-.91-.26-1.56-.39-2.184-.442-3.718-1.092-4.602-1.95-.858-.884-1.287-2.093-1.287-3.627 0-1.118.208-2.119.624-3.003a6.217 6.217 0 011.794-2.301c.78-.624 1.716-1.105 2.808-1.443 1.118-.338 2.353-.507 3.705-.507 2.21 0 4.355.429 6.435 1.287l-2.379 4.602zm7.97 12.945c0-.638.234-1.19.701-1.658a2.284 2.284 0 011.674-.7c.65 0 1.208.233 1.675.7.467.467.701 1.026.701 1.675 0 .66-.234 1.225-.701 1.692-.455.456-1.014.683-1.675.683-.672 0-1.236-.227-1.691-.683-.456-.456-.684-1.026-.684-1.71zm11.501 0c0-.638.233-1.19.7-1.658a2.288 2.288 0 011.675-.7c.65 0 1.208.233 1.675.7.467.467.701 1.026.701 1.675 0 .66-.234 1.225-.701 1.692a2.278 2.278 0 01-1.675.683c-.672 0-1.236-.227-1.692-.683-.455-.456-.683-1.026-.683-1.71zm11.501 0c0-.638.233-1.19.7-1.658a2.287 2.287 0 011.675-.7c.649 0 1.208.233 1.675.7.467.467.701 1.026.701 1.675 0 .66-.234 1.225-.701 1.692a2.278 2.278 0 01-1.675.683c-.672 0-1.236-.227-1.692-.683-.456-.456-.683-1.026-.683-1.71z" fill="#fff"/></svg>