<svg width="198" height="98" viewBox="0 0 198 98" fill="none" xmlns="http://www.w3.org/2000/svg"><path d="M9.559 31.364h2.07c1.564 0 2.959-.245 4.186-.736 1.226-.49 2.254-1.165 3.082-2.024a8.291 8.291 0 001.932-3.036c.46-1.196.69-2.5.69-3.91 0-1.38-.23-2.668-.69-3.864a8.73 8.73 0 00-1.978-3.082c-.828-.859-1.856-1.533-3.082-2.024-1.227-.49-2.607-.736-4.14-.736h-2.07v19.412zM.543 4.316h13.34c2.361 0 4.569.475 6.624 1.426 2.085.95 3.894 2.223 5.428 3.818 1.564 1.564 2.79 3.404 3.68 5.52a16.597 16.597 0 011.334 6.578c0 2.27-.445 4.462-1.334 6.578a17.112 17.112 0 01-3.634 5.52c-1.534 1.595-3.343 2.867-5.428 3.818-2.055.95-4.278 1.426-6.67 1.426H.543V4.316zm52.63 19.458c-.276-1.165-.843-2.1-1.702-2.806-.859-.705-1.901-1.058-3.128-1.058-1.288 0-2.346.337-3.174 1.012-.797.675-1.303 1.625-1.518 2.852h9.522zm-9.752 4.83c0 3.588 1.687 5.382 5.06 5.382 1.81 0 3.174-.736 4.094-2.208h8.05c-1.626 5.397-5.689 8.096-12.19 8.096-1.994 0-3.818-.291-5.474-.874-1.656-.613-3.082-1.472-4.278-2.576a11.53 11.53 0 01-2.714-3.956c-.644-1.533-.966-3.25-.966-5.152 0-1.963.306-3.726.92-5.29.613-1.595 1.487-2.944 2.622-4.048 1.134-1.104 2.5-1.947 4.094-2.53 1.625-.613 3.45-.92 5.474-.92 1.993 0 3.787.307 5.382.92 1.595.583 2.944 1.441 4.048 2.576s1.947 2.53 2.53 4.186c.583 1.625.874 3.465.874 5.52v.874H43.42zm31.892-6.256V39h-8.326V22.348h-2.76v-6.946h2.76V8.318h8.326v7.084h4.737v6.946h-4.737zm25.567 1.426c-.276-1.165-.844-2.1-1.702-2.806-.859-.705-1.901-1.058-3.128-1.058-1.288 0-2.346.337-3.174 1.012-.797.675-1.303 1.625-1.518 2.852h9.522zm-9.752 4.83c0 3.588 1.686 5.382 5.06 5.382 1.81 0 3.174-.736 4.094-2.208h8.05c-1.626 5.397-5.689 8.096-12.19 8.096-1.993 0-3.818-.291-5.474-.874-1.656-.613-3.082-1.472-4.278-2.576a11.53 11.53 0 01-2.714-3.956c-.644-1.533-.966-3.25-.966-5.152 0-1.963.306-3.726.92-5.29.613-1.595 1.487-2.944 2.622-4.048 1.135-1.104 2.5-1.947 4.094-2.53 1.625-.613 3.45-.92 5.474-.92 1.993 0 3.787.307 5.382.92 1.594.583 2.944 1.441 4.048 2.576s1.947 2.53 2.53 4.186c.582 1.625.874 3.465.874 5.52v.874H91.128zm12.558-23.736l-8.004 7.084L91.818 9.1l6.578-8.05 5.29 3.818zm9.727 10.534h8.326v2.99c1.135-1.38 2.285-2.3 3.45-2.76 1.165-.49 2.53-.736 4.094-.736 1.656 0 3.067.276 4.232.828a8.206 8.206 0 013.036 2.254 6.534 6.534 0 011.38 2.668c.245.981.368 2.1.368 3.358V39h-8.326V27.086c0-1.165-.092-2.1-.276-2.806-.153-.736-.445-1.319-.874-1.748a3.155 3.155 0 00-1.242-.782 4.628 4.628 0 00-1.472-.23c-1.411 0-2.499.43-3.266 1.288-.736.828-1.104 2.024-1.104 3.588V39h-8.326V15.402zm63.43 8.372c-.276-1.165-.844-2.1-1.702-2.806-.859-.705-1.902-1.058-3.128-1.058-1.288 0-2.346.337-3.174 1.012-.798.675-1.304 1.625-1.518 2.852h9.522zm-9.752 4.83c0 3.588 1.686 5.382 5.06 5.382 1.809 0 3.174-.736 4.094-2.208h8.05c-1.626 5.397-5.689 8.096-12.19 8.096-1.994 0-3.818-.291-5.474-.874-1.656-.613-3.082-1.472-4.278-2.576a11.52 11.52 0 01-2.714-3.956c-.644-1.533-.966-3.25-.966-5.152 0-1.963.306-3.726.92-5.29.613-1.595 1.487-2.944 2.622-4.048 1.134-1.104 2.499-1.947 4.094-2.53 1.625-.613 3.45-.92 5.474-.92 1.993 0 3.787.307 5.382.92 1.594.583 2.944 1.441 4.048 2.576s1.947 2.53 2.53 4.186c.582 1.625.874 3.465.874 5.52v.874h-17.526zM197.702.82V39h-8.326V.82h8.326zM20.412 80.348V97h-8.326V80.348h-2.99v-6.946h2.99V69.86c0-1.963.184-3.527.551-4.692a8.084 8.084 0 011.473-2.714 10.676 10.676 0 012.346-2.208A11.872 11.872 0 0119.4 58.82a9.974 9.974 0 013.082-.506c.705 0 1.349.077 1.931.23a10.96 10.96 0 011.84.644v7.268a7.71 7.71 0 00-1.564-.598c-.46-.153-.95-.23-1.471-.23-.338 0-.69.061-1.058.184-.338.092-.66.307-.966.644-.307.337-.522.828-.645 1.472-.091.613-.137 1.457-.137 2.53v2.944h5.841v6.946h-5.841zm8.952-6.946h8.326v3.864c.89-1.41 1.978-2.484 3.266-3.22 1.288-.767 2.79-1.15 4.508-1.15h.69c.276 0 .583.03.92.092v7.958a7.91 7.91 0 00-3.588-.828c-1.932 0-3.389.583-4.37 1.748-.95 1.135-1.426 2.806-1.426 5.014V97h-8.326V73.402zm29.425 11.73c0 .767.139 1.487.414 2.162a5.813 5.813 0 001.104 1.702c.491.49 1.058.874 1.703 1.15a5.654 5.654 0 002.161.414c.736 0 1.426-.138 2.07-.414a4.773 4.773 0 001.703-1.15c.49-.49.873-1.058 1.15-1.702.306-.644.46-1.334.46-2.07 0-.736-.154-1.426-.46-2.07a5.256 5.256 0 00-1.15-1.748 4.773 4.773 0 00-1.703-1.15 5.199 5.199 0 00-2.07-.414c-.766 0-1.487.138-2.162.414a5.381 5.381 0 00-1.702 1.15 5.813 5.813 0 00-1.104 1.702 4.875 4.875 0 00-.414 2.024zm10.489-11.73h8.371V97h-8.371v-2.622c-1.78 2.239-4.187 3.358-7.223 3.358-1.717 0-3.296-.307-4.737-.92a11.719 11.719 0 01-3.773-2.668c-1.073-1.135-1.916-2.469-2.53-4.002-.582-1.533-.873-3.205-.873-5.014 0-1.687.29-3.281.873-4.784.583-1.533 1.396-2.867 2.438-4.002a11.21 11.21 0 013.726-2.668c1.442-.675 3.036-1.012 4.785-1.012 2.944 0 5.382 1.027 7.314 3.082v-2.346zm22.363 0v13.294c0 2.913 1.411 4.37 4.232 4.37 2.822 0 4.232-1.457 4.232-4.37V73.402h8.326v14.904c0 3.19-1.058 5.581-3.174 7.176-2.085 1.595-5.213 2.392-9.384 2.392-4.17 0-7.314-.797-9.43-2.392-2.085-1.595-3.128-3.987-3.128-7.176V73.402h8.326zm30.174 11.73c0 .767.138 1.487.414 2.162a5.813 5.813 0 001.104 1.702c.491.49 1.058.874 1.702 1.15a5.654 5.654 0 002.162.414c.736 0 1.426-.138 2.07-.414a4.77 4.77 0 001.702-1.15 5.377 5.377 0 001.15-1.702c.307-.644.46-1.334.46-2.07 0-.736-.153-1.426-.46-2.07a5.25 5.25 0 00-1.15-1.748 4.77 4.77 0 00-1.702-1.15 5.199 5.199 0 00-2.07-.414c-.736 0-1.441.138-2.116.414a5.386 5.386 0 00-1.702 1.15 6.654 6.654 0 00-1.15 1.702 4.875 4.875 0 00-.414 2.024zm10.488-26.312h8.372V97h-8.372v-2.622c-1.779 2.239-4.186 3.358-7.222 3.358-1.717 0-3.297-.322-4.738-.966a11.72 11.72 0 01-3.772-2.668c-1.073-1.135-1.917-2.469-2.53-4.002-.583-1.533-.874-3.19-.874-4.968 0-1.687.276-3.281.828-4.784.583-1.533 1.395-2.867 2.438-4.002a11.218 11.218 0 013.726-2.668c1.472-.675 3.082-1.012 4.83-1.012 2.944 0 5.382 1.027 7.314 3.082V58.82zm31.288 22.954c-.276-1.165-.844-2.1-1.702-2.806-.859-.705-1.902-1.058-3.128-1.058-1.288 0-2.346.337-3.174 1.012-.798.675-1.304 1.625-1.518 2.852h9.522zm-9.752 4.83c0 3.588 1.686 5.382 5.06 5.382 1.809 0 3.174-.736 4.094-2.208h8.05c-1.626 5.397-5.689 8.096-12.19 8.096-1.994 0-3.818-.291-5.474-.874-1.656-.613-3.082-1.472-4.278-2.576a11.52 11.52 0 01-2.714-3.956c-.644-1.533-.966-3.25-.966-5.152 0-1.963.306-3.726.92-5.29.613-1.595 1.487-2.944 2.622-4.048 1.134-1.104 2.499-1.947 4.094-2.53 1.625-.613 3.45-.92 5.474-.92 1.993 0 3.787.307 5.382.92 1.594.583 2.944 1.441 4.048 2.576s1.947 2.53 2.53 4.186c.582 1.625.874 3.465.874 5.52v.874h-17.526zm21.871 5.98c0-.736.138-1.426.414-2.07a5.25 5.25 0 011.15-1.748 5.386 5.386 0 011.702-1.15 5.537 5.537 0 012.116-.414c.736 0 1.426.138 2.07.414.675.276 1.257.66 1.748 1.15a5.25 5.25 0 011.15 1.748c.276.644.414 1.334.414 2.07 0 .736-.138 1.441-.414 2.116a5.377 5.377 0 01-1.15 1.702 5.254 5.254 0 01-1.748 1.15 5.199 5.199 0 01-2.07.414 5.537 5.537 0 01-2.116-.414 5.386 5.386 0 01-1.702-1.15 5.377 5.377 0 01-1.15-1.702 5.536 5.536 0 01-.414-2.116z" fill="#fff"/></svg>