<svg width="234" height="178" viewBox="0 0 234 178" fill="none" xmlns="http://www.w3.org/2000/svg"><path d="M41.366 24.758c0-.748.273-1.395.82-1.942a2.677 2.677 0 011.962-.82c.761 0 1.415.273 1.962.82.548.547.821 1.201.821 1.962a2.7 2.7 0 01-.82 1.982c-.534.534-1.188.8-1.962.8-.788 0-1.449-.266-1.982-.8-.534-.534-.801-1.201-.801-2.002zm9.372 0c0-.748.274-1.395.82-1.942a2.678 2.678 0 011.963-.82c.76 0 1.415.273 1.962.82.547.547.82 1.201.82 1.962a2.7 2.7 0 01-.82 1.982c-.534.534-1.188.8-1.962.8-.788 0-1.448-.266-1.982-.8s-.8-1.201-.8-2.002zm9.373 0c0-.748.273-1.395.82-1.942a2.677 2.677 0 011.962-.82c.76 0 1.415.273 1.962.82.547.547.82 1.201.82 1.962a2.7 2.7 0 01-.82 1.982c-.534.534-1.188.8-1.962.8-.787 0-1.448-.266-1.982-.8s-.8-1.201-.8-2.002zM83.156 37.61V24.818c-1.788 1.828-3.83 2.742-6.126 2.742-2.629 0-4.811-.967-6.546-2.902-1.749-1.949-2.623-4.385-2.623-7.307 0-2.963.874-5.44 2.623-7.428 1.762-1.975 3.97-2.963 6.626-2.963 2.256 0 4.271.888 6.046 2.663V7.501h4.525v30.11h-4.525zm-10.69-20.46c0 1.882.507 3.41 1.521 4.585 1.015 1.201 2.303 1.802 3.864 1.802 1.655 0 2.996-.574 4.024-1.722 1.04-1.161 1.561-2.67 1.561-4.524 0-1.829-.513-3.337-1.541-4.525-1.028-1.161-2.362-1.742-4.004-1.742-1.548 0-2.843.588-3.884 1.762-1.027 1.188-1.541 2.643-1.541 4.364zM98.35 7.501v11.19c0 3.23 1.275 4.846 3.824 4.846s3.823-1.615 3.823-4.845V7.5h4.505v11.291c0 1.561-.194 2.91-.581 4.044-.373 1.014-1.021 1.929-1.942 2.743-1.521 1.32-3.456 1.982-5.805 1.982-2.336 0-4.264-.661-5.786-1.982-.934-.814-1.595-1.729-1.982-2.743-.373-.908-.56-2.256-.56-4.044V7.501h4.504zm35.595 10.81h-13.974c.12 1.602.641 2.877 1.562 3.824.921.934 2.102 1.402 3.543 1.402 1.121 0 2.049-.267 2.783-.801.72-.534 1.541-1.522 2.462-2.963l3.804 2.122c-.587 1.001-1.208 1.862-1.862 2.582a10.324 10.324 0 01-2.102 1.762 8.598 8.598 0 01-2.422 1.001c-.868.214-1.809.32-2.823.32-2.91 0-5.245-.934-7.007-2.802-1.762-1.882-2.642-4.378-2.642-7.488 0-3.082.854-5.578 2.562-7.487 1.722-1.882 4.004-2.823 6.847-2.823 2.869 0 5.138.915 6.806 2.743 1.655 1.815 2.483 4.331 2.483 7.547l-.02 1.061zm-4.625-3.683c-.627-2.402-2.142-3.604-4.544-3.604a4.51 4.51 0 00-1.542.26c-.48.16-.921.401-1.321.721-.387.307-.721.681-1.001 1.121-.28.44-.494.941-.641 1.502h9.049zm26.866-2.923V27h-4.504V11.705h-1.922V7.501h1.922V.354h4.504v7.147h3.504v4.204h-3.504zm24.685 6.606h-13.974c.12 1.602.64 2.877 1.561 3.824.921.934 2.102 1.402 3.544 1.402 1.121 0 2.049-.267 2.783-.801.72-.534 1.541-1.522 2.462-2.963l3.804 2.122c-.588 1.001-1.208 1.862-1.862 2.582a10.324 10.324 0 01-2.102 1.762 8.604 8.604 0 01-2.423 1.001c-.867.214-1.808.32-2.822.32-2.91 0-5.245-.934-7.007-2.802-1.762-1.882-2.643-4.378-2.643-7.488 0-3.082.854-5.578 2.563-7.487 1.721-1.882 4.004-2.823 6.846-2.823 2.87 0 5.139.915 6.807 2.743 1.655 1.815 2.483 4.331 2.483 7.547l-.02 1.061zm-4.625-3.683c-.627-2.402-2.142-3.604-4.544-3.604-.548 0-1.061.087-1.542.26-.48.16-.921.401-1.321.721-.387.307-.721.681-1.001 1.121-.28.44-.494.941-.641 1.502h9.049zM47.737 84.61h-4.505V54.501h4.505v2.122c1.775-1.775 3.79-2.663 6.046-2.663 2.682 0 4.891.988 6.626 2.963 1.762 1.962 2.643 4.438 2.643 7.428 0 2.922-.874 5.358-2.623 7.307-1.735 1.935-3.924 2.903-6.566 2.903-2.282 0-4.324-.915-6.126-2.743V84.61zm10.71-20.24c0-1.868-.507-3.39-1.521-4.564-1.028-1.188-2.323-1.782-3.884-1.782-1.655 0-2.996.574-4.024 1.722-1.028 1.148-1.541 2.656-1.541 4.524 0 1.829.513 3.337 1.541 4.525 1.014 1.161 2.349 1.742 4.004 1.742 1.562 0 2.85-.588 3.864-1.762 1.04-1.175 1.561-2.643 1.561-4.404zm13.874-9.869V74h-4.505V54.501h4.505zm-5.185-8.108c0-.787.287-1.468.86-2.042a2.813 2.813 0 012.063-.86c.814 0 1.508.286 2.082.86.573.56.86 1.248.86 2.062 0 .814-.287 1.508-.86 2.082-.56.574-1.248.861-2.062.861a2.836 2.836 0 01-2.082-.86c-.574-.575-.861-1.276-.861-2.103zM92.4 40.187h4.525V74H92.4v-2.042c-1.775 1.735-3.783 2.603-6.026 2.603-2.669 0-4.884-.975-6.646-2.923-1.748-1.989-2.622-4.471-2.622-7.448 0-2.91.874-5.338 2.622-7.287 1.735-1.962 3.917-2.943 6.546-2.943 2.283 0 4.325.935 6.126 2.803V40.187zM81.71 64.19c0 1.869.5 3.39 1.501 4.565 1.028 1.188 2.323 1.782 3.884 1.782 1.668 0 3.017-.574 4.044-1.722 1.028-1.188 1.542-2.696 1.542-4.525 0-1.828-.514-3.336-1.542-4.524-1.027-1.161-2.362-1.742-4.004-1.742-1.548 0-2.843.588-3.884 1.762-1.027 1.188-1.541 2.656-1.541 4.404zm35.274-9.689h4.525V74h-4.525v-2.042c-1.855 1.735-3.85 2.603-5.985 2.603-2.696 0-4.925-.975-6.687-2.923-1.748-1.989-2.623-4.471-2.623-7.448 0-2.922.875-5.358 2.623-7.307 1.748-1.948 3.937-2.923 6.566-2.923 2.269 0 4.305.935 6.106 2.803v-2.262zm-10.69 9.69c0 1.868.5 3.39 1.501 4.564 1.028 1.188 2.323 1.782 3.884 1.782 1.668 0 3.016-.574 4.044-1.722 1.028-1.188 1.542-2.696 1.542-4.525 0-1.828-.514-3.336-1.542-4.524-1.028-1.161-2.362-1.742-4.004-1.742-1.548 0-2.843.588-3.884 1.762-1.027 1.188-1.541 2.656-1.541 4.404zm20.9-9.69h4.525v1.802c1.575-1.562 3.35-2.343 5.325-2.343 2.269 0 4.037.715 5.305 2.142 1.095 1.215 1.642 3.197 1.642 5.946V74h-4.525V63.11c0-1.922-.267-3.25-.8-3.984-.521-.748-1.469-1.122-2.843-1.122-1.495 0-2.556.494-3.183 1.482-.614.974-.921 2.676-.921 5.105V74h-4.525V54.501zm39.799 4.204V74h-4.504V58.705h-1.922v-4.204h1.922v-7.147h4.504v7.147h3.504v4.204h-3.504zm11.071-4.204v11.19c0 3.23 1.275 4.846 3.824 4.846s3.823-1.615 3.823-4.845V54.5h4.505v11.291c0 1.561-.194 2.91-.581 4.044-.373 1.014-1.021 1.928-1.942 2.743-1.521 1.32-3.456 1.982-5.805 1.982-2.336 0-4.264-.661-5.786-1.982-.934-.814-1.595-1.729-1.982-2.743-.374-.908-.56-2.256-.56-4.044V54.501h4.504zm-158.274 47h4.524v1.802c1.575-1.562 3.35-2.343 5.325-2.343 2.269 0 4.037.714 5.305 2.143 1.095 1.214 1.642 3.196 1.642 5.945V121h-4.524v-10.891c0-1.921-.267-3.249-.801-3.984-.52-.747-1.468-1.121-2.843-1.121-1.495 0-2.556.494-3.183 1.482-.614.974-.921 2.676-.921 5.105V121H19.79v-19.499zm27.006 0v11.191c0 3.23 1.275 4.845 3.824 4.845s3.823-1.615 3.823-4.845v-11.191h4.505v11.291c0 1.562-.194 2.909-.58 4.044-.375 1.014-1.022 1.928-1.943 2.743-1.521 1.321-3.456 1.982-5.805 1.982-2.336 0-4.264-.661-5.786-1.982-.934-.815-1.595-1.729-1.982-2.743-.374-.908-.56-2.256-.56-4.044v-11.291h4.504zm10.89-9.61L50.4 98.499l-2.462-1.521 5.505-7.288 4.245 2.203zm6.947 9.61h4.505v1.802c.867-.908 1.608-1.522 2.222-1.842.654-.334 1.475-.501 2.462-.501 2.202 0 3.944.961 5.225 2.883 1.415-1.922 3.33-2.883 5.746-2.883 4.39 0 6.586 2.663 6.586 7.988V121h-4.524v-10.831c0-1.868-.227-3.189-.68-3.963-.468-.788-1.235-1.182-2.303-1.182-1.241 0-2.149.468-2.723 1.402-.56.934-.84 2.435-.84 4.504V121h-4.525v-10.771c0-3.47-1-5.205-3.003-5.205-1.268 0-2.195.474-2.782 1.422-.574.947-.861 2.442-.861 4.484V121h-4.505v-19.499zm50.189 10.811h-13.973c.12 1.601.64 2.876 1.561 3.823.921.934 2.102 1.402 3.544 1.402 1.121 0 2.048-.267 2.782-.801.721-.534 1.542-1.522 2.463-2.963l3.803 2.122c-.587 1.001-1.207 1.862-1.861 2.583a10.326 10.326 0 01-2.102 1.761 8.58 8.58 0 01-2.423 1.001c-.867.214-1.808.321-2.823.321-2.909 0-5.245-.935-7.006-2.803-1.762-1.882-2.643-4.378-2.643-7.487 0-3.083.854-5.579 2.563-7.488 1.721-1.882 4.003-2.823 6.846-2.823 2.87 0 5.139.915 6.807 2.743 1.655 1.815 2.482 4.331 2.482 7.547l-.02 1.062zm-4.624-3.684c-.628-2.402-2.142-3.604-4.545-3.604-.547 0-1.061.087-1.541.261-.481.16-.921.4-1.321.72a4.482 4.482 0 00-1.001 1.121 5.247 5.247 0 00-.641 1.502h9.049zm9.569-7.127h4.504v1.742c.828-.868 1.562-1.462 2.203-1.782.654-.334 1.428-.501 2.322-.501 1.188 0 2.429.387 3.724 1.162l-2.062 4.124c-.855-.614-1.689-.921-2.503-.921-2.456 0-3.684 1.855-3.684 5.565V121h-4.504v-19.499zm14.054 9.609c0-2.816 1.007-5.211 3.023-7.187 2.015-1.975 4.471-2.963 7.367-2.963 2.909 0 5.379.995 7.407 2.983 2.002 1.989 3.003 4.431 3.003 7.328 0 2.922-1.008 5.371-3.023 7.347-2.029 1.962-4.518 2.943-7.467 2.943-2.923 0-5.372-1.001-7.347-3.003-1.976-1.976-2.963-4.458-2.963-7.448zm4.604.08c0 1.949.521 3.491 1.562 4.625 1.068 1.148 2.476 1.722 4.224 1.722 1.762 0 3.17-.568 4.224-1.702 1.054-1.134 1.582-2.649 1.582-4.544 0-1.896-.528-3.41-1.582-4.545-1.068-1.148-2.476-1.722-4.224-1.722-1.722 0-3.116.574-4.184 1.722-1.068 1.148-1.602 2.629-1.602 4.444zm48.007-24.003h4.525V121h-4.525v-2.042c-1.775 1.735-3.784 2.603-6.026 2.603-2.669 0-4.885-.975-6.646-2.923-1.749-1.989-2.623-4.471-2.623-7.448 0-2.909.874-5.338 2.623-7.287 1.735-1.962 3.917-2.943 6.546-2.943 2.282 0 4.324.935 6.126 2.803V87.187zm-10.69 24.003c0 1.869.5 3.39 1.501 4.565 1.028 1.188 2.322 1.782 3.884 1.782 1.668 0 3.016-.574 4.044-1.722 1.028-1.188 1.541-2.696 1.541-4.524 0-1.829-.513-3.337-1.541-4.525-1.028-1.161-2.362-1.742-4.004-1.742-1.548 0-2.843.588-3.884 1.762-1.027 1.188-1.541 2.656-1.541 4.404zm38.657 1.122h-13.973c.12 1.601.64 2.876 1.561 3.823.921.934 2.102 1.402 3.544 1.402 1.121 0 2.048-.267 2.782-.801.721-.534 1.542-1.522 2.463-2.963l3.804 2.122c-.588 1.001-1.208 1.862-1.862 2.583a10.326 10.326 0 01-2.102 1.761 8.58 8.58 0 01-2.423 1.001 11.76 11.76 0 01-2.822.321c-2.91 0-5.246-.935-7.007-2.803-1.762-1.882-2.643-4.378-2.643-7.487 0-3.083.854-5.579 2.563-7.488 1.721-1.882 4.004-2.823 6.846-2.823 2.87 0 5.139.915 6.807 2.743 1.655 1.815 2.482 4.331 2.482 7.547l-.02 1.062zm-4.624-3.684c-.627-2.402-2.142-3.604-4.545-3.604-.547 0-1.061.087-1.541.261-.481.16-.921.4-1.321.72a4.502 4.502 0 00-1.001 1.121 5.247 5.247 0 00-.641 1.502h9.049z" fill="#fff" fill-opacity=".75"/><path d="M.537 177l5.888-34.684h8.924l6.946 18.492 6.9-18.492h8.924L44.007 177h-8.97l-2.99-19.964L23.86 177h-3.588l-7.774-19.964L9.507 177H.537zm64.392-15.226c-.276-1.165-.844-2.101-1.702-2.806-.859-.705-1.902-1.058-3.128-1.058-1.288 0-2.346.337-3.174 1.012-.798.675-1.304 1.625-1.518 2.852h9.522zm-9.752 4.83c0 3.588 1.686 5.382 5.06 5.382 1.809 0 3.174-.736 4.094-2.208h8.05c-1.626 5.397-5.689 8.096-12.19 8.096-1.994 0-3.818-.291-5.474-.874-1.656-.613-3.082-1.472-4.278-2.576a11.53 11.53 0 01-2.714-3.956c-.644-1.533-.966-3.251-.966-5.152 0-1.963.306-3.726.92-5.29.613-1.595 1.487-2.944 2.622-4.048 1.134-1.104 2.499-1.947 4.094-2.53 1.625-.613 3.45-.92 5.474-.92 1.993 0 3.787.307 5.382.92 1.594.583 2.944 1.441 4.048 2.576s1.947 2.53 2.53 4.186c.582 1.625.874 3.465.874 5.52v.874H55.177zm30.013-1.472c0 .767.138 1.487.414 2.162a5.817 5.817 0 001.104 1.702c.49.491 1.058.874 1.702 1.15a5.654 5.654 0 002.162.414c.736 0 1.426-.138 2.07-.414a4.769 4.769 0 001.702-1.15 5.387 5.387 0 001.15-1.702c.306-.644.46-1.334.46-2.07 0-.736-.153-1.426-.46-2.07a5.256 5.256 0 00-1.15-1.748 4.769 4.769 0 00-1.702-1.15 5.199 5.199 0 00-2.07-.414c-.736 0-1.442.138-2.116.414a5.376 5.376 0 00-1.702 1.15 6.649 6.649 0 00-1.15 1.702 4.874 4.874 0 00-.414 2.024zm10.488-26.312h8.372V177h-8.372v-2.622c-1.779 2.239-4.186 3.358-7.222 3.358-1.718 0-3.297-.322-4.738-.966a11.714 11.714 0 01-3.772-2.668c-1.073-1.135-1.917-2.469-2.53-4.002-.583-1.533-.874-3.189-.874-4.968 0-1.687.276-3.281.828-4.784.582-1.533 1.395-2.867 2.438-4.002a11.205 11.205 0 013.726-2.668c1.472-.675 3.082-1.012 4.83-1.012 2.944 0 5.382 1.027 7.314 3.082V138.82zm22.364 14.582V177h-8.326v-23.598h8.326zm-8.878-9.062c0-.644.122-1.242.368-1.794a4.68 4.68 0 011.012-1.518c.429-.429.92-.767 1.472-1.012a4.697 4.697 0 011.84-.368c.644 0 1.242.123 1.794.368a4.717 4.717 0 011.518 1.012c.429.429.766.935 1.012 1.518.245.552.368 1.15.368 1.794a4.7 4.7 0 01-.368 1.84 4.865 4.865 0 01-1.012 1.472c-.43.429-.936.767-1.518 1.012a4.372 4.372 0 01-1.794.368 4.697 4.697 0 01-1.84-.368 4.848 4.848 0 01-1.472-1.012 4.83 4.83 0 01-1.012-1.472 4.683 4.683 0 01-.368-1.84zm32.369 16.698c-1.441-.981-2.898-1.472-4.37-1.472-.797 0-1.548.138-2.254.414a5.431 5.431 0 00-1.794 1.196 5.384 5.384 0 00-1.242 1.794c-.276.675-.414 1.441-.414 2.3 0 .828.138 1.595.414 2.3a6.564 6.564 0 001.196 1.794 5.67 5.67 0 001.84 1.15 6.134 6.134 0 002.254.414c1.564 0 3.021-.537 4.37-1.61v7.084c-2.054.889-4.002 1.334-5.842 1.334-1.717 0-3.358-.291-4.922-.874a12.985 12.985 0 01-4.094-2.484 12.862 12.862 0 01-2.806-3.91c-.705-1.533-1.058-3.235-1.058-5.106s.338-3.573 1.012-5.106c.675-1.564 1.595-2.898 2.76-4.002 1.166-1.135 2.546-2.009 4.14-2.622 1.626-.644 3.358-.966 5.198-.966 2.024 0 3.895.429 5.612 1.288v7.084zm12.477 4.094c0 .767.138 1.487.414 2.162a5.817 5.817 0 001.104 1.702 5.38 5.38 0 001.702 1.15 5.658 5.658 0 002.162.414c.736 0 1.426-.138 2.07-.414a4.765 4.765 0 001.702-1.15 5.38 5.38 0 001.15-1.702c.307-.644.46-1.334.46-2.07 0-.736-.153-1.426-.46-2.07a5.25 5.25 0 00-1.15-1.748 4.765 4.765 0 00-1.702-1.15 5.199 5.199 0 00-2.07-.414c-.766 0-1.487.138-2.162.414a5.38 5.38 0 00-1.702 1.15 5.817 5.817 0 00-1.104 1.702 4.874 4.874 0 00-.414 2.024zm10.488-11.73h8.372V177h-8.372v-2.622c-1.778 2.239-4.186 3.358-7.222 3.358-1.717 0-3.296-.307-4.738-.92a11.726 11.726 0 01-3.772-2.668c-1.073-1.135-1.916-2.469-2.53-4.002-.582-1.533-.874-3.205-.874-5.014 0-1.687.292-3.281.874-4.784.583-1.533 1.396-2.867 2.438-4.002a11.213 11.213 0 013.726-2.668c1.442-.675 3.036-1.012 4.784-1.012 2.944 0 5.382 1.027 7.314 3.082v-2.346zm14.038 0h8.326v3.864c.889-1.411 1.978-2.484 3.266-3.22 1.288-.767 2.791-1.15 4.508-1.15h.69c.276 0 .583.031.92.092v7.958a7.91 7.91 0 00-3.588-.828c-1.932 0-3.389.583-4.37 1.748-.951 1.135-1.426 2.806-1.426 5.014V177h-8.326v-23.598zm38.947 8.372c-.276-1.165-.843-2.101-1.702-2.806-.858-.705-1.901-1.058-3.128-1.058-1.288 0-2.346.337-3.174 1.012-.797.675-1.303 1.625-1.518 2.852h9.522zm-9.752 4.83c0 3.588 1.687 5.382 5.06 5.382 1.81 0 3.174-.736 4.094-2.208h8.05c-1.625 5.397-5.688 8.096-12.19 8.096-1.993 0-3.818-.291-5.474-.874-1.656-.613-3.082-1.472-4.278-2.576a11.536 11.536 0 01-2.714-3.956c-.644-1.533-.966-3.251-.966-5.152 0-1.963.307-3.726.92-5.29.614-1.595 1.488-2.944 2.622-4.048 1.135-1.104 2.5-1.947 4.094-2.53 1.626-.613 3.45-.92 5.474-.92 1.994 0 3.788.307 5.382.92 1.595.583 2.944 1.441 4.048 2.576s1.948 2.53 2.53 4.186c.583 1.625.874 3.465.874 5.52v.874h-17.526zm20.653 8.188a2.6 2.6 0 01.207-1.035c.138-.337.329-.629.575-.874.245-.245.529-.437.851-.575.337-.138.69-.207 1.058-.207a2.6 2.6 0 011.035.207c.337.138.628.33.874.575.245.245.437.537.575.874a2.6 2.6 0 01.207 1.035c0 .368-.069.721-.207 1.058a2.643 2.643 0 01-1.449 1.426 2.6 2.6 0 01-1.035.207c-.368 0-.721-.069-1.058-.207a2.693 2.693 0 01-1.426-1.426 2.767 2.767 0 01-.207-1.058z" fill="#fff"/></svg>