<svg width="313" height="70" viewBox="0 0 313 70" fill="none" xmlns="http://www.w3.org/2000/svg"><rect x="1" y="1" width="311" height="68" rx="7" fill="#DEEDFC" stroke="#09C0CB" stroke-width="2"/><path d="M38.11 41.388h1.17c.885 0 1.673-.139 2.367-.416a4.918 4.918 0 001.742-1.144 4.687 4.687 0 001.092-1.716c.26-.676.39-1.413.39-2.21 0-.78-.13-1.508-.39-2.184a4.935 4.935 0 00-1.118-1.742 4.918 4.918 0 00-1.742-1.144c-.694-.277-1.474-.416-2.34-.416h-1.17v10.972zM33.016 26.1h7.54c1.334 0 2.583.269 3.744.806a9.916 9.916 0 013.068 2.158 9.65 9.65 0 012.08 3.12 9.38 9.38 0 01.754 3.718 9.504 9.504 0 01-.754 3.718 9.67 9.67 0 01-2.054 3.12 9.916 9.916 0 01-3.068 2.158c-1.162.537-2.418.806-3.77.806h-7.54V26.1zm32.113 4.316H59.07v3.276h5.72v4.316h-5.72v3.38h6.058v4.316H53.974V26.1h11.154v4.316zm11.63 0v15.288h-5.096V30.416h-4.186V26.1h13.468v4.316h-4.186zm18.127 0h-6.058v3.276h5.72v4.316h-5.72v3.38h6.058v4.316H83.731V26.1h11.154v4.316zm-.962-9.308l-4.992 3.432-1.976-1.846 4.238-4.056 2.73 2.47zm5.156 24.596V26.1h5.096l9.412 11.986V26.1h5.07v19.604h-5.07l-9.412-11.986v11.986h-5.096zm44.72-15.288h-6.058v3.276h5.72v4.316h-5.72v3.38h6.058v4.316h-11.154V26.1h11.154v4.316zm9.29-4.316v15.288h6.11v4.316h-11.206V26.1h5.096zm29.849 4.316h-6.136v3.276h5.59v4.316h-5.59v7.696h-5.096V26.1h11.232v4.316zm8.654 4.446h.962c1.005 0 1.777-.208 2.314-.624.537-.416.806-1.014.806-1.794s-.269-1.378-.806-1.794c-.537-.416-1.309-.624-2.314-.624h-.962v4.836zm11.206 10.842h-6.344l-4.862-7.54v7.54h-5.096V26.1h7.93c1.092 0 2.045.165 2.86.494.815.312 1.482.745 2.002 1.3a5.297 5.297 0 011.196 1.924c.277.728.416 1.508.416 2.34 0 1.49-.364 2.704-1.092 3.64-.711.919-1.768 1.543-3.172 1.872l6.162 8.034zm13.312-7.28l-2.288-6.526-2.288 6.526h4.576zm1.352 3.874h-7.28l-1.17 3.406h-5.434L211.04 26.1h5.564l7.462 19.604h-5.434l-1.17-3.406zM231.353 26.1v10.66c0 .572.017 1.161.052 1.768.052.59.182 1.127.39 1.612.225.485.572.884 1.04 1.196.468.295 1.126.442 1.976.442.849 0 1.499-.147 1.95-.442a2.88 2.88 0 001.04-1.196 4.42 4.42 0 00.39-1.612 20.71 20.71 0 00.078-1.768V26.1h5.07v11.362c0 3.05-.702 5.278-2.106 6.682-1.387 1.404-3.528 2.106-6.422 2.106-2.895 0-5.044-.702-6.448-2.106-1.404-1.404-2.106-3.631-2.106-6.682V26.1h5.096zm21.721 15.288h1.17c.884 0 1.673-.139 2.366-.416a4.921 4.921 0 001.742-1.144 4.695 4.695 0 001.092-1.716c.26-.676.39-1.413.39-2.21 0-.78-.13-1.508-.39-2.184a4.939 4.939 0 00-1.118-1.742 4.921 4.921 0 00-1.742-1.144c-.693-.277-1.473-.416-2.34-.416h-1.17v10.972zM247.978 26.1h7.54c1.335 0 2.583.269 3.744.806a9.916 9.916 0 013.068 2.158 9.655 9.655 0 012.08 3.12 9.375 9.375 0 01.754 3.718 9.499 9.499 0 01-.754 3.718 9.665 9.665 0 01-2.054 3.12 9.916 9.916 0 01-3.068 2.158c-1.161.537-2.418.806-3.77.806h-7.54V26.1zm32.113 4.316h-6.058v3.276h5.72v4.316h-5.72v3.38h6.058v4.316h-11.154V26.1h11.154v4.316z" fill="#4A2B43"/></svg>