<svg width="668" height="64" viewBox="0 0 668 64" fill="none" xmlns="http://www.w3.org/2000/svg"><path d="M21.17 14.896V49H9.802V14.896H.464V5.268h30.044v9.628H21.17zm22.547 4.35v16.762c0 3.673 1.779 5.51 5.336 5.51 3.557 0 5.336-1.837 5.336-5.51V19.246h10.498v18.792c0 4.021-1.334 7.037-4.002 9.048-2.63 2.01-6.573 3.016-11.832 3.016s-9.222-1.005-11.89-3.016c-2.63-2.01-3.944-5.027-3.944-9.048V19.246h10.498zM59.145 5.964l-10.092 8.932-4.872-3.596 8.294-10.15 6.67 4.814zm44.3 22.04V49H92.947V28.004h-3.48v-8.758h3.48v-8.932h10.498v8.932h5.974v8.758h-5.974zm20.231 6.032c0 .967.174 1.875.522 2.726a7.33 7.33 0 001.392 2.146 6.79 6.79 0 002.146 1.45 7.13 7.13 0 002.726.522c.928 0 1.798-.174 2.61-.522.851-.348 1.566-.831 2.146-1.45a6.782 6.782 0 001.45-2.146c.387-.812.58-1.682.58-2.61 0-.928-.193-1.798-.58-2.61a6.62 6.62 0 00-1.45-2.204c-.58-.619-1.295-1.102-2.146-1.45a6.555 6.555 0 00-2.61-.522 7.13 7.13 0 00-2.726.522 6.79 6.79 0 00-2.146 1.45 7.33 7.33 0 00-1.392 2.146c-.348.773-.522 1.624-.522 2.552zm13.224-14.79h10.556V49H136.9v-3.306c-2.243 2.823-5.278 4.234-9.106 4.234-2.165 0-4.157-.387-5.974-1.16a14.778 14.778 0 01-4.756-3.364c-1.353-1.43-2.417-3.113-3.19-5.046-.735-1.933-1.102-4.04-1.102-6.322 0-2.127.367-4.137 1.102-6.032.735-1.933 1.759-3.615 3.074-5.046a14.142 14.142 0 014.698-3.364c1.817-.85 3.828-1.276 6.032-1.276 3.712 0 6.786 1.295 9.222 3.886v-2.958zm17.7 0h10.498V22.9c2.861-2.745 6.071-4.118 9.628-4.118 4.408 0 7.772 1.856 10.092 5.568 2.359-3.75 5.723-5.626 10.092-5.626 1.392 0 2.707.213 3.944.638a7.676 7.676 0 013.19 1.914c.889.85 1.585 1.972 2.088 3.364.541 1.392.812 3.074.812 5.046V49h-10.498V34.326c0-1.508-.116-2.745-.348-3.712-.193-.967-.503-1.72-.928-2.262-.387-.541-.851-.909-1.392-1.102a5.133 5.133 0 00-1.74-.29c-3.364 0-5.046 2.455-5.046 7.366V49h-10.498V34.326c0-1.508-.097-2.745-.29-3.712-.193-1.005-.483-1.798-.87-2.378-.348-.58-.812-.967-1.392-1.16-.58-.232-1.257-.348-2.03-.348-.657 0-1.276.097-1.856.29-.58.193-1.102.58-1.566 1.16-.425.541-.773 1.315-1.044 2.32-.232.967-.348 2.243-.348 3.828V49H154.6V19.246zm82.288 14.964c0-.928-.174-1.798-.522-2.61a5.94 5.94 0 00-1.392-2.204 6.615 6.615 0 00-2.204-1.45c-.812-.387-1.701-.58-2.668-.58-.928 0-1.798.174-2.61.522a6.79 6.79 0 00-2.146 1.45 8.084 8.084 0 00-1.45 2.204 6.555 6.555 0 00-.522 2.61c0 .928.174 1.798.522 2.61a6.798 6.798 0 001.45 2.146 8.385 8.385 0 002.146 1.45 6.98 6.98 0 002.668.522c.928 0 1.798-.174 2.61-.522a6.14 6.14 0 002.088-1.45 6.782 6.782 0 001.45-2.146c.387-.812.58-1.663.58-2.552zm-13.224 29.638h-10.498V19.246h10.498v3.306c2.243-2.823 5.298-4.234 9.164-4.234 2.127 0 4.099.425 5.916 1.276a14.605 14.605 0 014.814 3.364c1.354 1.43 2.398 3.113 3.132 5.046.774 1.933 1.16 4.002 1.16 6.206 0 2.204-.386 4.253-1.16 6.148a15.126 15.126 0 01-3.132 4.988 14.122 14.122 0 01-4.698 3.364c-1.817.812-3.789 1.218-5.916 1.218-3.712 0-6.805-1.276-9.28-3.828v17.748zm40.088-29.87c0 1.005.174 1.933.522 2.784.387.812.87 1.527 1.45 2.146a6.79 6.79 0 002.146 1.45 6.98 6.98 0 002.668.522c.928 0 1.798-.174 2.61-.522.851-.348 1.566-.831 2.146-1.45a6.782 6.782 0 001.45-2.146c.387-.85.58-1.76.58-2.726 0-.928-.193-1.798-.58-2.61a6.62 6.62 0 00-1.45-2.204c-.58-.619-1.295-1.102-2.146-1.45a6.555 6.555 0 00-2.61-.522 6.98 6.98 0 00-2.668.522 6.79 6.79 0 00-2.146 1.45 8.387 8.387 0 00-1.45 2.146 6.555 6.555 0 00-.522 2.61zm-11.078-.116c0-2.204.445-4.253 1.334-6.148a14.797 14.797 0 013.712-4.988c1.586-1.43 3.461-2.552 5.626-3.364 2.204-.812 4.602-1.218 7.192-1.218 2.552 0 4.911.406 7.076 1.218 2.204.773 4.099 1.875 5.684 3.306a14.305 14.305 0 013.77 5.046c.89 1.933 1.334 4.08 1.334 6.438 0 2.359-.464 4.524-1.392 6.496a15.384 15.384 0 01-3.712 5.046c-1.585 1.392-3.499 2.475-5.742 3.248-2.204.773-4.601 1.16-7.192 1.16-2.552 0-4.91-.387-7.076-1.16-2.165-.773-4.04-1.875-5.626-3.306a15.638 15.638 0 01-3.654-5.104c-.889-2.01-1.334-4.234-1.334-6.67zm64.218-4.988c-1.818-1.237-3.654-1.856-5.51-1.856a7.725 7.725 0 00-2.842.522 6.819 6.819 0 00-2.262 1.508 6.75 6.75 0 00-1.566 2.262c-.348.85-.522 1.817-.522 2.9 0 1.044.174 2.01.522 2.9.386.85.889 1.605 1.508 2.262a7.132 7.132 0 002.32 1.45 7.725 7.725 0 002.842.522c1.972 0 3.808-.677 5.51-2.03v8.932c-2.591 1.121-5.046 1.682-7.366 1.682-2.166 0-4.234-.367-6.206-1.102a16.346 16.346 0 01-5.162-3.132 16.184 16.184 0 01-3.538-4.93c-.89-1.933-1.334-4.08-1.334-6.438 0-2.359.425-4.505 1.276-6.438.85-1.972 2.01-3.654 3.48-5.046 1.469-1.43 3.209-2.533 5.22-3.306 2.049-.812 4.234-1.218 6.554-1.218 2.552 0 4.91.541 7.076 1.624v8.932zm15.905 5.104c0 1.005.174 1.933.522 2.784.387.812.87 1.527 1.45 2.146a6.79 6.79 0 002.146 1.45 6.98 6.98 0 002.668.522c.928 0 1.798-.174 2.61-.522.851-.348 1.566-.831 2.146-1.45a6.782 6.782 0 001.45-2.146c.387-.85.58-1.76.58-2.726 0-.928-.193-1.798-.58-2.61a6.62 6.62 0 00-1.45-2.204c-.58-.619-1.295-1.102-2.146-1.45a6.555 6.555 0 00-2.61-.522 6.98 6.98 0 00-2.668.522 6.79 6.79 0 00-2.146 1.45 8.387 8.387 0 00-1.45 2.146 6.555 6.555 0 00-.522 2.61zm-11.078-.116c0-2.204.445-4.253 1.334-6.148a14.797 14.797 0 013.712-4.988c1.586-1.43 3.461-2.552 5.626-3.364 2.204-.812 4.602-1.218 7.192-1.218 2.552 0 4.911.406 7.076 1.218 2.204.773 4.099 1.875 5.684 3.306a14.305 14.305 0 013.77 5.046c.89 1.933 1.334 4.08 1.334 6.438 0 2.359-.464 4.524-1.392 6.496a15.384 15.384 0 01-3.712 5.046c-1.585 1.392-3.499 2.475-5.742 3.248-2.204.773-4.601 1.16-7.192 1.16-2.552 0-4.91-.387-7.076-1.16-2.165-.773-4.04-1.875-5.626-3.306a15.638 15.638 0 01-3.654-5.104c-.889-2.01-1.334-4.234-1.334-6.67zm71.226.174c0 .967.174 1.875.522 2.726a7.33 7.33 0 001.392 2.146 6.79 6.79 0 002.146 1.45c.851.348 1.76.522 2.726.522.928 0 1.798-.174 2.61-.522.851-.348 1.566-.831 2.146-1.45a6.782 6.782 0 001.45-2.146c.387-.812.58-1.682.58-2.61 0-.928-.193-1.798-.58-2.61a6.62 6.62 0 00-1.45-2.204c-.58-.619-1.295-1.102-2.146-1.45a6.555 6.555 0 00-2.61-.522 6.98 6.98 0 00-2.668.522 6.79 6.79 0 00-2.146 1.45 8.387 8.387 0 00-1.45 2.146c-.348.773-.522 1.624-.522 2.552zM406.169.86h10.556V49h-10.556v-3.306c-2.242 2.823-5.278 4.234-9.106 4.234-2.165 0-4.156-.406-5.974-1.218a14.788 14.788 0 01-4.756-3.364c-1.353-1.43-2.416-3.113-3.19-5.046-.734-1.933-1.102-4.021-1.102-6.264 0-2.127.348-4.137 1.044-6.032.735-1.933 1.76-3.615 3.074-5.046a14.142 14.142 0 014.698-3.364c1.856-.85 3.886-1.276 6.09-1.276 3.712 0 6.786 1.295 9.222 3.886V.86zm39.45 28.942c-.348-1.47-1.063-2.649-2.146-3.538-1.082-.89-2.397-1.334-3.944-1.334-1.624 0-2.958.425-4.002 1.276-1.005.85-1.643 2.05-1.914 3.596h12.006zm-12.296 6.09c0 4.524 2.127 6.786 6.38 6.786 2.282 0 4.002-.928 5.162-2.784h10.15c-2.049 6.805-7.172 10.208-15.37 10.208-2.513 0-4.814-.367-6.902-1.102-2.088-.773-3.886-1.856-5.394-3.248-1.469-1.392-2.61-3.055-3.422-4.988-.812-1.933-1.218-4.099-1.218-6.496 0-2.475.387-4.698 1.16-6.67.774-2.01 1.876-3.712 3.306-5.104 1.431-1.392 3.152-2.455 5.162-3.19 2.05-.773 4.35-1.16 6.902-1.16 2.514 0 4.776.387 6.786 1.16 2.011.735 3.712 1.817 5.104 3.248 1.392 1.43 2.456 3.19 3.19 5.278.735 2.05 1.102 4.37 1.102 6.96v1.102h-22.098zm51.821-1.682c0-.928-.174-1.798-.522-2.61a6.62 6.62 0 00-1.45-2.204 6.779 6.779 0 00-2.146-1.45c-.812-.387-1.701-.58-2.668-.58-.928 0-1.798.174-2.61.522a6.79 6.79 0 00-2.146 1.45 8.084 8.084 0 00-1.45 2.204 6.555 6.555 0 00-.522 2.61c0 .928.174 1.798.522 2.61a6.798 6.798 0 001.45 2.146 8.385 8.385 0 002.146 1.45 6.98 6.98 0 002.668.522c.928 0 1.798-.174 2.61-.522a6.14 6.14 0 002.088-1.45 6.782 6.782 0 001.45-2.146c.387-.812.58-1.663.58-2.552zM471.92.86v21.344c2.475-2.59 5.568-3.886 9.28-3.886 2.204 0 4.215.425 6.032 1.276 1.856.812 3.422 1.933 4.698 3.364 1.315 1.392 2.34 3.055 3.074 4.988.735 1.895 1.102 3.925 1.102 6.09 0 2.204-.386 4.273-1.16 6.206-.734 1.933-1.778 3.615-3.132 5.046-1.353 1.43-2.958 2.571-4.814 3.422-1.817.812-3.789 1.218-5.916 1.218-3.866 0-6.921-1.411-9.164-4.234V49h-10.498V.86h10.498zm51.92 28.942c-.348-1.47-1.063-2.649-2.146-3.538-1.083-.89-2.397-1.334-3.944-1.334-1.624 0-2.958.425-4.002 1.276-1.005.85-1.643 2.05-1.914 3.596h12.006zm-12.296 6.09c0 4.524 2.127 6.786 6.38 6.786 2.281 0 4.002-.928 5.162-2.784h10.15c-2.049 6.805-7.173 10.208-15.37 10.208-2.513 0-4.814-.367-6.902-1.102-2.088-.773-3.886-1.856-5.394-3.248-1.469-1.392-2.61-3.055-3.422-4.988-.812-1.933-1.218-4.099-1.218-6.496 0-2.475.387-4.698 1.16-6.67.773-2.01 1.875-3.712 3.306-5.104s3.151-2.455 5.162-3.19c2.049-.773 4.35-1.16 6.902-1.16 2.513 0 4.775.387 6.786 1.16 2.011.735 3.712 1.817 5.104 3.248 1.392 1.43 2.455 3.19 3.19 5.278.735 2.05 1.102 4.37 1.102 6.96v1.102h-22.098zm28.099-16.646h10.498v4.872c1.121-1.779 2.494-3.132 4.118-4.06 1.624-.967 3.519-1.45 5.684-1.45h.87c.348 0 .735.039 1.16.116v10.034c-1.392-.696-2.9-1.044-4.524-1.044-2.436 0-4.273.735-5.51 2.204-1.199 1.43-1.798 3.538-1.798 6.322V49h-10.498V19.246zm37.459 0V49h-10.498V19.246h10.498zm4.872-13.282l-10.092 8.932-4.872-3.596 8.294-10.15 6.67 4.814zm12.046 28.072c0 .967.174 1.875.522 2.726a7.33 7.33 0 001.392 2.146 6.779 6.779 0 002.146 1.45c.85.348 1.759.522 2.726.522.928 0 1.798-.174 2.61-.522.85-.348 1.566-.831 2.146-1.45a6.798 6.798 0 001.45-2.146c.386-.812.58-1.682.58-2.61 0-.928-.194-1.798-.58-2.61a6.636 6.636 0 00-1.45-2.204c-.58-.619-1.296-1.102-2.146-1.45a6.555 6.555 0 00-2.61-.522c-.967 0-1.876.174-2.726.522a6.779 6.779 0 00-2.146 1.45 7.33 7.33 0 00-1.392 2.146c-.348.773-.522 1.624-.522 2.552zm13.224-14.79H617.8V49h-10.556v-3.306c-2.243 2.823-5.278 4.234-9.106 4.234-2.166 0-4.157-.387-5.974-1.16a14.767 14.767 0 01-4.756-3.364c-1.354-1.43-2.417-3.113-3.19-5.046-.735-1.933-1.102-4.04-1.102-6.322 0-2.127.367-4.137 1.102-6.032.734-1.933 1.759-3.615 3.074-5.046a14.122 14.122 0 014.698-3.364c1.817-.85 3.828-1.276 6.032-1.276 3.712 0 6.786 1.295 9.222 3.886v-2.958zm37.42 7.656c-1.934-1.005-3.828-1.508-5.684-1.508-.967 0-1.76.193-2.378.58-.58.387-.87.909-.87 1.566 0 .348.038.638.116.87.116.193.328.387.638.58.348.193.831.367 1.45.522.657.155 1.508.348 2.552.58 2.9.58 5.065 1.624 6.496 3.132 1.43 1.47 2.146 3.364 2.146 5.684 0 1.74-.348 3.306-1.044 4.698a10.268 10.268 0 01-2.9 3.538c-1.238.928-2.726 1.643-4.466 2.146-1.74.541-3.654.812-5.742.812-4.022 0-7.985-1.14-11.89-3.422l3.828-7.424c2.938 2.01 5.722 3.016 8.352 3.016.966 0 1.759-.213 2.378-.638.618-.425.928-.967.928-1.624 0-.387-.058-.696-.174-.928-.078-.27-.271-.503-.58-.696-.31-.232-.774-.425-1.392-.58-.58-.193-1.354-.387-2.32-.58-3.248-.657-5.53-1.624-6.844-2.9-1.276-1.315-1.914-3.113-1.914-5.394 0-1.663.309-3.151.928-4.466a9.239 9.239 0 012.668-3.422c1.16-.928 2.552-1.643 4.176-2.146 1.662-.503 3.499-.754 5.51-.754 3.286 0 6.476.638 9.57 1.914l-3.538 6.844zm9.267 16.53c0-.928.174-1.798.522-2.61a6.636 6.636 0 011.45-2.204 6.79 6.79 0 012.146-1.45 6.98 6.98 0 012.668-.522c.928 0 1.798.174 2.61.522a6.615 6.615 0 012.204 1.45 6.62 6.62 0 011.45 2.204c.348.812.522 1.682.522 2.61a6.98 6.98 0 01-.522 2.668 6.782 6.782 0 01-1.45 2.146 6.615 6.615 0 01-2.204 1.45 6.555 6.555 0 01-2.61.522 6.98 6.98 0 01-2.668-.522 6.798 6.798 0 01-3.596-3.596 6.98 6.98 0 01-.522-2.668z" fill="#fff"/></svg>