<svg width="142" height="57" viewBox="0 0 142 57" fill="none" xmlns="http://www.w3.org/2000/svg"><path d="M1.625 19V1.375h3.4L13.95 12.45h-.725V1.375H17.5V19h-3.4L5.225 7.925h.725V19H1.625zm25.466.275c-1.417 0-2.642-.267-3.675-.8a5.75 5.75 0 01-2.4-2.275c-.566-1-.85-2.183-.85-3.55 0-1.383.284-2.567.85-3.55a5.75 5.75 0 012.4-2.275c1.034-.533 2.258-.8 3.675-.8 1.4 0 2.617.267 3.65.8a5.706 5.706 0 012.4 2.3c.567.983.85 2.158.85 3.525 0 1.35-.283 2.525-.85 3.525a5.706 5.706 0 01-2.4 2.3c-1.033.533-2.25.8-3.65.8zm0-3.3c.733 0 1.317-.258 1.75-.775.433-.533.65-1.383.65-2.55 0-1.167-.216-2.008-.65-2.525-.433-.533-1.017-.8-1.75-.8-.75 0-1.341.267-1.775.8-.433.517-.65 1.358-.65 2.525 0 1.167.217 2.017.65 2.55.434.517 1.025.775 1.775.775zM43.897 19V.6h4.45V19h-4.45zm13.803.275c-1.417 0-2.642-.267-3.675-.8a5.75 5.75 0 01-2.4-2.275c-.567-1-.85-2.183-.85-3.55 0-1.383.283-2.567.85-3.55a5.75 5.75 0 012.4-2.275c1.033-.533 2.258-.8 3.675-.8 1.4 0 2.616.267 3.65.8a5.706 5.706 0 012.4 2.3c.566.983.85 2.158.85 3.525 0 1.35-.284 2.525-.85 3.525a5.706 5.706 0 01-2.4 2.3c-1.034.533-2.25.8-3.65.8zm0-3.3c.733 0 1.316-.258 1.75-.775.433-.533.65-1.383.65-2.55 0-1.167-.217-2.008-.65-2.525-.434-.533-1.017-.8-1.75-.8-.75 0-1.342.267-1.775.8-.434.517-.65 1.358-.65 2.525 0 1.167.216 2.017.65 2.55.433.517 1.025.775 1.775.775zm-49.9 35.3c-1.4 0-2.625-.267-3.675-.8a5.877 5.877 0 01-2.45-2.275C1.092 47.2.8 46.008.8 44.625s.292-2.567.875-3.55a5.718 5.718 0 012.45-2.25c1.05-.533 2.275-.8 3.675-.8.867 0 1.717.117 2.55.35.833.233 1.508.567 2.025 1l-1.25 3.025a4.083 4.083 0 00-1.375-.75 4.267 4.267 0 00-1.475-.275c-.917 0-1.633.275-2.15.825-.5.55-.75 1.358-.75 2.425 0 1.067.25 1.883.75 2.45.517.55 1.233.825 2.15.825.467 0 .958-.083 1.475-.25a4.758 4.758 0 001.375-.75l1.25 3.025c-.533.417-1.217.75-2.05 1a9.147 9.147 0 01-2.525.35zm12.773 0c-1.417 0-2.642-.267-3.675-.8a5.749 5.749 0 01-2.4-2.275c-.567-1-.85-2.183-.85-3.55 0-1.383.283-2.567.85-3.55a5.749 5.749 0 012.4-2.275c1.033-.533 2.258-.8 3.675-.8 1.4 0 2.616.267 3.65.8a5.706 5.706 0 012.4 2.3c.566.983.85 2.158.85 3.525 0 1.35-.284 2.525-.85 3.525a5.706 5.706 0 01-2.4 2.3c-1.034.533-2.25.8-3.65.8zm0-3.3c.733 0 1.316-.258 1.75-.775.433-.533.65-1.383.65-2.55 0-1.167-.217-2.008-.65-2.525-.434-.533-1.017-.8-1.75-.8-.75 0-1.342.267-1.775.8-.434.517-.65 1.358-.65 2.525 0 1.167.216 2.017.65 2.55.433.517 1.025.775 1.775.775zM29.903 51v-9.25a30.173 30.173 0 00-.2-3.45h4.3l.25 2.2h-.276a4.148 4.148 0 011.625-1.8c.717-.45 1.559-.675 2.525-.675.934 0 1.725.225 2.375.675.667.433 1.15 1.125 1.45 2.075h-.425c.417-.867 1.017-1.542 1.8-2.025.8-.483 1.692-.725 2.675-.725 1.45 0 2.534.442 3.25 1.325.717.867 1.075 2.225 1.075 4.075V51h-4.475v-7.425c0-.783-.116-1.333-.35-1.65-.233-.333-.608-.5-1.125-.5-.65 0-1.158.233-1.525.7-.35.467-.525 1.108-.525 1.925V51h-4.45v-7.425c0-.783-.125-1.333-.375-1.65-.233-.333-.6-.5-1.1-.5-.65 0-1.158.233-1.525.7-.35.467-.525 1.108-.525 1.925V51h-4.45zm23.345 5.4V41.75a30.173 30.173 0 00-.2-3.45h4.3l.275 2.25h-.25c.233-.75.75-1.358 1.55-1.825.8-.467 1.692-.7 2.675-.7 1.1 0 2.067.267 2.9.8.833.517 1.483 1.275 1.95 2.275.483.983.725 2.167.725 3.55 0 1.367-.242 2.55-.725 3.55-.467 1-1.117 1.767-1.95 2.3-.833.517-1.8.775-2.9.775-.967 0-1.842-.217-2.625-.65-.783-.45-1.3-1.042-1.55-1.775h.275v7.55h-4.45zm6.925-8.425c.767 0 1.375-.258 1.825-.775.467-.533.7-1.383.7-2.55 0-1.167-.233-2.008-.7-2.525-.45-.533-1.058-.8-1.825-.8-.75 0-1.358.267-1.825.8-.467.517-.7 1.358-.7 2.525 0 1.167.233 2.017.7 2.55.467.517 1.075.775 1.825.775zm14.414 3.3c-1.1 0-2.067-.258-2.9-.775-.833-.533-1.492-1.3-1.975-2.3-.467-1-.7-2.183-.7-3.55 0-1.383.233-2.567.7-3.55.483-1 1.142-1.758 1.975-2.275.833-.533 1.8-.8 2.9-.8.983 0 1.867.233 2.65.7.8.467 1.325 1.075 1.575 1.825h-.25l.275-2.25h4.275l-.15 1.725c-.033.583-.05 1.158-.05 1.725V51h-4.4l-.05-2.15h.3c-.25.733-.775 1.325-1.575 1.775-.783.433-1.65.65-2.6.65zm1.425-3.3c.75 0 1.358-.258 1.825-.775.467-.533.7-1.383.7-2.55 0-1.167-.233-2.008-.7-2.525-.467-.533-1.075-.8-1.825-.8s-1.358.267-1.825.8c-.467.517-.7 1.358-.7 2.525 0 1.167.225 2.017.675 2.55.467.517 1.083.775 1.85.775zM85.926 51v-9.225a30.7 30.7 0 00-.05-1.75 28.962 28.962 0 00-.15-1.725h4.3l.475 3.9h-.675c.166-.95.433-1.733.8-2.35.366-.617.825-1.075 1.375-1.375.55-.3 1.2-.45 1.95-.45.35 0 .608.017.775.05.183.017.375.067.575.15v3.9c-.417-.183-.75-.3-1-.35a5.142 5.142 0 00-.975-.075c-.684 0-1.242.125-1.675.375-.434.233-.75.6-.95 1.1-.184.5-.275 1.142-.275 1.925V51h-4.5zm18.2.275c-1.8 0-3.158-.425-4.075-1.275-.9-.867-1.35-2.175-1.35-3.925v-4.5h-2.375V38.3h2.375v-3l4.45-1.05v4.05h3.1v3.275h-3.1V45.9c0 .733.167 1.225.5 1.475.333.233.733.35 1.2.35.283 0 .525-.017.725-.05.217-.05.442-.117.675-.2V50.9c-.367.15-.733.25-1.1.3-.35.05-.692.075-1.025.075zm9.102 0c-1.1 0-2.067-.258-2.9-.775-.834-.533-1.492-1.3-1.975-2.3-.467-1-.7-2.183-.7-3.55 0-1.383.233-2.567.7-3.55.483-1 1.141-1.758 1.975-2.275.833-.533 1.8-.8 2.9-.8.983 0 1.866.233 2.65.7.8.467 1.325 1.075 1.575 1.825h-.25l.275-2.25h4.275l-.15 1.725c-.034.583-.05 1.158-.05 1.725V51h-4.4l-.05-2.15h.3c-.25.733-.775 1.325-1.575 1.775-.784.433-1.65.65-2.6.65zm1.425-3.3c.75 0 1.358-.258 1.825-.775.466-.533.7-1.383.7-2.55 0-1.167-.234-2.008-.7-2.525-.467-.533-1.075-.8-1.825-.8s-1.359.267-1.825.8c-.467.517-.7 1.358-.7 2.525 0 1.167.225 2.017.675 2.55.466.517 1.083.775 1.85.775zm14.788 3.3c-1.183 0-2.258-.117-3.225-.35-.95-.25-1.758-.583-2.425-1l1.075-2.9c.65.367 1.375.667 2.175.9.817.233 1.625.35 2.425.35.634 0 1.092-.092 1.375-.275.3-.2.45-.458.45-.775 0-.25-.091-.45-.275-.6-.183-.15-.458-.258-.825-.325l-2.7-.475c-1.066-.2-1.9-.592-2.5-1.175-.583-.6-.875-1.375-.875-2.325 0-.867.234-1.617.7-2.25.467-.65 1.134-1.15 2-1.5.867-.367 1.892-.55 3.075-.55.967 0 1.884.108 2.75.325.884.217 1.65.558 2.3 1.025l-1.15 2.825a6.831 6.831 0 00-1.825-.85c-.683-.233-1.325-.35-1.925-.35-.716 0-1.225.108-1.525.325-.3.2-.45.45-.45.75 0 .233.084.433.25.6.167.15.434.258.8.325l2.7.475c1.1.183 1.942.567 2.525 1.15.6.567.9 1.342.9 2.325 0 .917-.25 1.7-.75 2.35-.483.633-1.158 1.125-2.025 1.475-.866.333-1.875.5-3.025.5zm7.6-.275v-4.55h4.625V51h-4.625z" fill="#fff"/></svg>