<svg width="160" height="82" viewBox="0 0 160 82" fill="none" xmlns="http://www.w3.org/2000/svg"><path d="M1.032 19v-4.368h4.44V19h-4.44zm6.78 0v-4.368h4.44V19h-4.44zm6.778 0v-4.368h4.44V19h-4.44zm14.245 5.184V10.12a29.027 29.027 0 00-.192-3.312h4.128l.264 2.16h-.24c.224-.72.72-1.304 1.488-1.752.768-.448 1.624-.672 2.568-.672 1.056 0 1.984.256 2.784.768.8.496 1.424 1.224 1.872 2.184.464.944.696 2.08.696 3.408 0 1.312-.232 2.448-.696 3.408-.448.96-1.072 1.696-1.872 2.208-.8.496-1.728.744-2.784.744-.928 0-1.768-.208-2.52-.624-.752-.432-1.248-1-1.488-1.704h.264v7.248h-4.272zm6.648-8.088c.736 0 1.32-.248 1.752-.744.448-.512.672-1.328.672-2.448 0-1.12-.224-1.928-.672-2.424-.432-.512-1.016-.768-1.752-.768-.72 0-1.304.256-1.752.768-.448.496-.672 1.304-.672 2.424 0 1.12.224 1.936.672 2.448.448.496 1.032.744 1.752.744zM44.52 19V6.808h4.272V19H44.52zm-.096-13.92V1.24h4.488v3.84h-4.488zm12.098 14.184c-1.04 0-1.968-.248-2.784-.744-.816-.512-1.456-1.248-1.92-2.208-.464-.96-.696-2.096-.696-3.408 0-1.328.224-2.464.672-3.408.464-.96 1.104-1.688 1.92-2.184.832-.512 1.768-.768 2.808-.768.928 0 1.768.216 2.52.648.752.416 1.256.976 1.512 1.68h-.36V1.336h4.272V19h-4.2v-2.184h.312c-.224.736-.72 1.328-1.488 1.776-.752.448-1.608.672-2.568.672zm1.368-3.168c.704 0 1.28-.248 1.728-.744.464-.512.696-1.328.696-2.448 0-1.12-.232-1.928-.696-2.424-.448-.512-1.024-.768-1.728-.768-.72 0-1.312.256-1.776.768-.448.496-.672 1.304-.672 2.424 0 1.12.224 1.936.672 2.448.464.496 1.056.744 1.776.744zM67.36 19V6.808h4.271V19H67.36zm-.097-13.92V1.24h4.488v3.84h-4.488zm13.682 14.184c-2.208 0-3.928-.568-5.16-1.704-1.216-1.136-1.824-2.696-1.824-4.68 0-1.232.256-2.328.768-3.288a5.478 5.478 0 012.16-2.232c.928-.544 2.016-.816 3.264-.816 1.232 0 2.256.272 3.072.816.832.528 1.456 1.264 1.872 2.208.416.928.624 2.008.624 3.24v.912h-8.184v-2.016h5.04l-.408.336c0-.912-.176-1.584-.528-2.016-.336-.448-.816-.672-1.44-.672-.72 0-1.272.272-1.656.816-.368.528-.552 1.328-.552 2.4V13c0 1.072.264 1.856.792 2.352.528.496 1.288.744 2.28.744.64 0 1.24-.072 1.8-.216a5.646 5.646 0 001.632-.696l1.104 2.784a7.098 7.098 0 01-2.112.96c-.8.224-1.648.336-2.544.336zm-2.16-13.632L81.21.712h4.008l-3.696 4.92h-2.736zM87.995 19v-8.88a29.027 29.027 0 00-.191-3.312h4.128l.24 2.112h-.264c.4-.768.968-1.352 1.704-1.752.736-.416 1.568-.624 2.496-.624 1.424 0 2.488.424 3.192 1.272.72.832 1.08 2.136 1.08 3.912V19h-4.272v-7.08c0-.784-.136-1.328-.408-1.632-.272-.32-.664-.48-1.176-.48-.672 0-1.216.224-1.632.672-.416.432-.624 1.008-.624 1.728V19h-4.272zm20.042.264c-1.04 0-1.968-.248-2.784-.744-.816-.512-1.456-1.248-1.92-2.208-.464-.96-.696-2.096-.696-3.408 0-1.328.224-2.464.672-3.408.464-.96 1.104-1.688 1.92-2.184.832-.512 1.768-.768 2.808-.768.928 0 1.768.216 2.52.648.752.416 1.256.976 1.512 1.68h-.36V1.336h4.272V19h-4.2v-2.184h.312c-.224.736-.72 1.328-1.488 1.776-.752.448-1.608.672-2.568.672zm1.368-3.168c.704 0 1.28-.248 1.728-.744.464-.512.696-1.328.696-2.448 0-1.12-.232-1.928-.696-2.424-.448-.512-1.024-.768-1.728-.768-.72 0-1.312.256-1.776.768-.448.496-.672 1.304-.672 2.424 0 1.12.224 1.936.672 2.448.464.496 1.056.744 1.776.744zm15.565 3.168c-1.36 0-2.536-.256-3.528-.768a5.52 5.52 0 01-2.304-2.184c-.544-.96-.816-2.096-.816-3.408 0-1.328.272-2.464.816-3.408a5.52 5.52 0 012.304-2.184c.992-.512 2.168-.768 3.528-.768 1.344 0 2.512.256 3.504.768a5.478 5.478 0 012.304 2.208c.544.944.816 2.072.816 3.384 0 1.296-.272 2.424-.816 3.384a5.478 5.478 0 01-2.304 2.208c-.992.512-2.16.768-3.504.768zm0-3.168c.704 0 1.264-.248 1.68-.744.416-.512.624-1.328.624-2.448 0-1.12-.208-1.928-.624-2.424-.416-.512-.976-.768-1.68-.768-.72 0-1.288.256-1.704.768-.416.496-.624 1.304-.624 2.424 0 1.12.208 1.936.624 2.448.416.496.984.744 1.704.744zm15.079 3.168c-1.728 0-3.032-.408-3.912-1.224-.864-.832-1.296-2.088-1.296-3.768v-4.32h-2.28V6.808h2.28v-2.88l4.272-1.008v3.888h2.976v3.144h-2.976v4.152c0 .704.16 1.176.48 1.416.32.224.704.336 1.152.336.272 0 .504-.016.696-.048.208-.048.424-.112.648-.192v3.288c-.352.144-.704.24-1.056.288a6.955 6.955 0 01-.984.072zm10.253 0c-2.208 0-3.928-.568-5.16-1.704-1.216-1.136-1.824-2.696-1.824-4.68 0-1.232.256-2.328.768-3.288a5.478 5.478 0 012.16-2.232c.928-.544 2.016-.816 3.264-.816 1.232 0 2.256.272 3.072.816.832.528 1.456 1.264 1.872 2.208.416.928.624 2.008.624 3.24v.912h-8.184v-2.016h5.04l-.408.336c0-.912-.176-1.584-.528-2.016-.336-.448-.816-.672-1.44-.672-.72 0-1.272.272-1.656.816-.368.528-.552 1.328-.552 2.4V13c0 1.072.264 1.856.792 2.352.528.496 1.288.744 2.28.744.64 0 1.24-.072 1.8-.216a5.646 5.646 0 001.632-.696l1.104 2.784a7.098 7.098 0 01-2.112.96c-.8.224-1.648.336-2.544.336zm-142.742 31c-1.728 0-3.032-.408-3.912-1.224-.864-.832-1.296-2.088-1.296-3.768v-4.32H.072v-3.144h2.28v-2.88l4.272-1.008v3.888H9.6v3.144H6.624v4.152c0 .704.16 1.176.48 1.416.32.224.704.336 1.152.336.272 0 .504-.016.696-.048.208-.048.424-.112.648-.192v3.288c-.352.144-.704.24-1.056.288a6.955 6.955 0 01-.984.072zm8.425 0c-1.551 0-2.704-.424-3.455-1.272-.736-.864-1.104-2.168-1.104-3.912v-7.272h4.271v7.296c0 .64.129 1.12.384 1.44.273.304.68.456 1.224.456.608 0 1.105-.216 1.489-.648.4-.448.6-1.032.6-1.752v-6.792h4.272V50h-4.152v-2.184h.36c-.384.784-.904 1.392-1.56 1.824-.657.416-1.433.624-2.329.624zM33.752 50v-8.88a29.027 29.027 0 00-.192-3.312h4.128l.24 2.112h-.264c.4-.768.968-1.352 1.704-1.752.736-.416 1.568-.624 2.496-.624 1.424 0 2.488.424 3.192 1.272.72.832 1.08 2.136 1.08 3.912V50h-4.272v-7.08c0-.784-.136-1.328-.408-1.632-.272-.32-.664-.48-1.176-.48-.672 0-1.216.224-1.632.672-.416.432-.624 1.008-.624 1.728V50H33.75zm19.681.264c-1.552 0-2.704-.424-3.456-1.272-.736-.864-1.104-2.168-1.104-3.912v-7.272h4.272v7.296c0 .64.128 1.12.384 1.44.272.304.68.456 1.224.456.608 0 1.104-.216 1.488-.648.4-.448.6-1.032.6-1.752v-6.792h4.272V50H56.96v-2.184h.36c-.384.784-.904 1.392-1.56 1.824-.656.416-1.432.624-2.328.624zm.216-13.632l2.424-4.92h4.008l-3.696 4.92h-2.736zM64.02 50v-8.88a29.027 29.027 0 00-.192-3.312h4.128l.24 2.112h-.264a3.982 3.982 0 011.56-1.728c.688-.432 1.496-.648 2.424-.648.896 0 1.656.216 2.28.648.64.416 1.104 1.08 1.392 1.992h-.408c.4-.832.976-1.48 1.728-1.944.768-.464 1.624-.696 2.568-.696 1.392 0 2.432.424 3.12 1.272.688.832 1.032 2.136 1.032 3.912V50h-4.296v-7.128c0-.752-.112-1.28-.336-1.584-.224-.32-.584-.48-1.08-.48-.624 0-1.112.224-1.464.672-.336.448-.504 1.064-.504 1.848V50h-4.272v-7.128c0-.752-.12-1.28-.36-1.584-.224-.32-.576-.48-1.056-.48-.624 0-1.112.224-1.464.672-.336.448-.504 1.064-.504 1.848V50H64.02zm28.844.264c-2.208 0-3.928-.568-5.16-1.704-1.216-1.136-1.824-2.696-1.824-4.68 0-1.232.256-2.328.768-3.288a5.478 5.478 0 012.16-2.232c.928-.544 2.016-.816 3.264-.816 1.232 0 2.256.272 3.072.816.832.528 1.456 1.264 1.872 2.208.416.928.624 2.008.624 3.24v.912h-8.184v-2.016h5.04l-.408.336c0-.912-.176-1.584-.528-2.016-.336-.448-.816-.672-1.44-.672-.72 0-1.272.272-1.656.816-.368.528-.552 1.328-.552 2.4V44c0 1.072.264 1.856.792 2.352.528.496 1.288.744 2.28.744.64 0 1.24-.072 1.8-.216a5.646 5.646 0 001.632-.696l1.104 2.784a7.098 7.098 0 01-2.112.96c-.8.224-1.648.336-2.544.336zm7.05-.264v-8.856a29.442 29.442 0 00-.192-3.336h4.128l.456 3.744h-.648c.16-.912.416-1.664.768-2.256.352-.592.792-1.032 1.32-1.32.528-.288 1.152-.432 1.872-.432.336 0 .584.016.744.048.176.016.36.064.552.144v3.744c-.4-.176-.72-.288-.96-.336a4.936 4.936 0 00-.936-.072c-.656 0-1.192.12-1.608.36-.416.224-.72.576-.912 1.056-.176.48-.264 1.096-.264 1.848V50h-4.32zm16.414.264c-1.36 0-2.536-.256-3.528-.768a5.52 5.52 0 01-2.304-2.184c-.544-.96-.816-2.096-.816-3.408 0-1.328.272-2.464.816-3.408a5.52 5.52 0 012.304-2.184c.992-.512 2.168-.768 3.528-.768 1.344 0 2.512.256 3.504.768a5.478 5.478 0 012.304 2.208c.544.944.816 2.072.816 3.384 0 1.296-.272 2.424-.816 3.384a5.478 5.478 0 01-2.304 2.208c-.992.512-2.16.768-3.504.768zm0-3.168c.704 0 1.264-.248 1.68-.744.416-.512.624-1.328.624-2.448 0-1.12-.208-1.928-.624-2.424-.416-.512-.976-.768-1.68-.768-.72 0-1.288.256-1.704.768-.416.496-.624 1.304-.624 2.424 0 1.12.208 1.936.624 2.448.416.496.984.744 1.704.744zm20.982 3.168c-1.04 0-1.968-.248-2.784-.744-.816-.512-1.456-1.248-1.92-2.208-.464-.96-.696-2.096-.696-3.408 0-1.328.224-2.464.672-3.408.464-.96 1.104-1.688 1.92-2.184.832-.512 1.768-.768 2.808-.768.928 0 1.768.216 2.52.648.752.416 1.256.976 1.512 1.68h-.36v-7.536h4.272V50h-4.2v-2.184h.312c-.224.736-.72 1.328-1.488 1.776-.752.448-1.608.672-2.568.672zm1.368-3.168c.704 0 1.28-.248 1.728-.744.464-.512.696-1.328.696-2.448 0-1.12-.232-1.928-.696-2.424-.448-.512-1.024-.768-1.728-.768-.72 0-1.312.256-1.776.768-.448.496-.672 1.304-.672 2.424 0 1.12.224 1.936.672 2.448.464.496 1.056.744 1.776.744zm15.901 3.168c-2.208 0-3.928-.568-5.16-1.704-1.216-1.136-1.824-2.696-1.824-4.68 0-1.232.256-2.328.768-3.288a5.478 5.478 0 012.16-2.232c.928-.544 2.016-.816 3.264-.816 1.232 0 2.256.272 3.072.816.832.528 1.457 1.264 1.872 2.208.416.928.624 2.008.624 3.24v.912h-8.184v-2.016h5.041l-.409.336c0-.912-.176-1.584-.527-2.016-.336-.448-.816-.672-1.44-.672-.721 0-1.273.272-1.657.816-.368.528-.552 1.328-.552 2.4V44c0 1.072.264 1.856.792 2.352.528.496 1.288.744 2.28.744.64 0 1.241-.072 1.801-.216a5.652 5.652 0 001.631-.696l1.104 2.784a7.075 7.075 0 01-2.112.96c-.8.224-1.648.336-2.544.336zM1.632 81V64.08h3.84l5.544 12.408h-.792l5.52-12.408h3.864V81H15.6V70.632h1.032L11.832 81H9.336L4.512 70.632h1.104V81H1.632zm27.57.264c-2.207 0-3.927-.568-5.16-1.704-1.215-1.136-1.823-2.696-1.823-4.68 0-1.232.256-2.328.768-3.288a5.478 5.478 0 012.16-2.232c.928-.544 2.016-.816 3.264-.816 1.232 0 2.256.272 3.072.816.832.528 1.456 1.264 1.872 2.208.416.928.624 2.008.624 3.24v.912h-8.184v-2.016h5.04l-.408.336c0-.912-.176-1.584-.528-2.016-.336-.448-.816-.672-1.44-.672-.72 0-1.272.272-1.656.816-.368.528-.552 1.328-.552 2.4V75c0 1.072.264 1.856.792 2.352.528.496 1.288.744 2.28.744.64 0 1.24-.072 1.8-.216a5.646 5.646 0 001.632-.696l1.104 2.784a7.098 7.098 0 01-2.112.96c-.8.224-1.648.336-2.544.336zm11.9 0c-1.04 0-1.969-.248-2.785-.744-.816-.512-1.456-1.248-1.92-2.208-.464-.96-.696-2.096-.696-3.408 0-1.328.224-2.464.672-3.408.464-.96 1.104-1.688 1.92-2.184.832-.512 1.768-.768 2.808-.768.928 0 1.768.216 2.52.648.752.416 1.256.976 1.512 1.68h-.36v-7.536h4.272V81h-4.2v-2.184h.312c-.224.736-.72 1.328-1.488 1.776-.752.448-1.608.672-2.568.672zm1.367-3.168c.704 0 1.28-.248 1.728-.744.464-.512.696-1.328.696-2.448 0-1.12-.232-1.928-.696-2.424-.448-.512-1.024-.768-1.728-.768-.72 0-1.312.256-1.776.768-.448.496-.672 1.304-.672 2.424 0 1.12.224 1.936.672 2.448.464.496 1.056.744 1.776.744zM51.94 81V68.808h4.271V81h-4.272zm-.097-13.92v-3.84h4.488v3.84h-4.488zM65.26 81.264c-1.344 0-2.52-.256-3.528-.768a5.642 5.642 0 01-2.352-2.184c-.56-.96-.84-2.104-.84-3.432 0-1.328.28-2.464.84-3.408a5.488 5.488 0 012.352-2.16c1.008-.512 2.184-.768 3.528-.768.832 0 1.648.112 2.448.336.8.224 1.448.544 1.945.96l-1.2 2.904a3.919 3.919 0 00-1.32-.72 4.095 4.095 0 00-1.416-.264c-.88 0-1.569.264-2.064.792-.48.528-.72 1.304-.72 2.328 0 1.024.24 1.808.72 2.352.495.528 1.184.792 2.063.792.449 0 .92-.08 1.416-.24a4.57 4.57 0 001.32-.72l1.2 2.904c-.511.4-1.168.72-1.968.96a8.78 8.78 0 01-2.424.336zm11.177 0c-1.056 0-1.984-.248-2.784-.744-.8-.512-1.432-1.248-1.896-2.208-.448-.96-.672-2.096-.672-3.408 0-1.328.224-2.464.672-3.408.464-.96 1.096-1.688 1.896-2.184.8-.512 1.728-.768 2.784-.768.944 0 1.792.224 2.544.672.768.448 1.272 1.032 1.512 1.752h-.24l.264-2.16h4.104a664.45 664.45 0 00-.144 1.656c-.032.56-.048 1.112-.048 1.656V81h-4.224l-.048-2.064h.288c-.24.704-.744 1.272-1.512 1.704a5.07 5.07 0 01-2.496.624zm1.368-3.168c.72 0 1.304-.248 1.752-.744.448-.512.672-1.328.672-2.448 0-1.12-.224-1.928-.672-2.424-.448-.512-1.032-.768-1.752-.768s-1.304.256-1.752.768c-.448.496-.672 1.304-.672 2.424 0 1.12.216 1.936.648 2.448.448.496 1.04.744 1.776.744zM87.322 81v-8.856a29.442 29.442 0 00-.192-3.336h4.129l.456 3.744h-.648c.16-.912.416-1.664.768-2.256.352-.592.791-1.032 1.32-1.32.528-.288 1.151-.432 1.871-.432.337 0 .585.016.745.048.175.016.36.064.552.144v3.744c-.4-.176-.72-.288-.96-.336a4.936 4.936 0 00-.936-.072c-.657 0-1.193.12-1.609.36-.415.224-.72.576-.912 1.056-.175.48-.264 1.096-.264 1.848V81h-4.32zm16.751.264c-2.208 0-3.928-.568-5.16-1.704-1.216-1.136-1.824-2.696-1.824-4.68 0-1.232.256-2.328.768-3.288a5.476 5.476 0 012.16-2.232c.928-.544 2.016-.816 3.264-.816 1.232 0 2.256.272 3.072.816.832.528 1.456 1.264 1.872 2.208.416.928.624 2.008.624 3.24v.912h-8.184v-2.016h5.04l-.408.336c0-.912-.176-1.584-.528-2.016-.336-.448-.816-.672-1.44-.672-.72 0-1.272.272-1.656.816-.368.528-.552 1.328-.552 2.4V75c0 1.072.264 1.856.792 2.352.528.496 1.288.744 2.28.744.64 0 1.24-.072 1.8-.216a5.646 5.646 0 001.632-.696l1.104 2.784a7.098 7.098 0 01-2.112.96c-.8.224-1.648.336-2.544.336zm6.762-.264v-4.368h4.44V81h-4.44z" fill="#fff"/></svg>