<svg width="320" height="17" viewBox="0 0 320 17" fill="none" xmlns="http://www.w3.org/2000/svg"><path fill="#EF6129" d="M0 0h320v17H0z"/><path d="M26.158 12.121c-1.159 0-2.028-.286-2.607-.858-.58-.572-.869-1.426-.869-2.563V4.245h2.024v4.466c0 .565.117.994.352 1.287.235.286.601.429 1.1.429.499 0 .865-.143 1.1-.429.235-.293.352-.722.352-1.287V4.245h2.002V8.7c0 1.137-.286 1.991-.858 2.563-.572.572-1.437.858-2.596.858zM33.616 12V4.245h1.496l3.927 4.873h-.32V4.245h1.882V12h-1.496L35.2 7.127h.319V12h-1.903zm16.904 0V4.245h1.76l2.54 5.687h-.362l2.53-5.687h1.77V12h-1.836V7.248h.473L55.195 12H54.05L51.84 7.248h.506V12H50.52zm12.328 0V4.245h5.566v1.551h-3.619v1.485h3.355v1.562h-3.355v1.595h3.62V12h-5.567zm9.268 0V4.245h1.496l3.927 4.873h-.319V4.245h1.881V12h-1.496L73.7 7.127h.32V12h-1.904zm13.966.121a7.06 7.06 0 01-1.782-.22c-.557-.154-1.026-.36-1.408-.616l.572-1.573c.242.154.506.286.792.396.286.11.583.198.891.264.316.059.635.088.957.088.484 0 .818-.062 1.001-.187.191-.125.286-.286.286-.484a.482.482 0 00-.187-.407c-.124-.103-.359-.19-.704-.264l-1.342-.275c-.711-.147-1.243-.4-1.595-.759-.352-.367-.528-.843-.528-1.43 0-.513.136-.957.407-1.331.279-.381.668-.675 1.166-.88.499-.213 1.082-.319 1.75-.319.55 0 1.066.077 1.55.231.484.147.88.352 1.188.616l-.572 1.474a3.275 3.275 0 00-.99-.484 3.993 3.993 0 00-1.22-.176c-.426 0-.749.066-.969.198a.592.592 0 00-.319.539c0 .161.063.3.187.418.132.11.37.202.715.275l1.32.264c.712.14 1.243.389 1.595.748.36.36.54.829.54 1.408 0 .499-.14.935-.419 1.309-.271.374-.652.664-1.144.869-.491.205-1.07.308-1.738.308zM92.144 12l3.63-7.755h1.65L101.076 12h-2.035l-.935-2.134.781.561h-4.554l.77-.561L94.18 12h-2.035zm4.444-5.665l-1.287 3.069-.308-.517h3.223l-.275.517-1.298-3.069h-.055zm8.229 7.722c-.132 0-.297-.007-.495-.022a4.152 4.152 0 01-.594-.088v-1.551c.14.03.279.048.418.055.14.015.25.022.33.022.33 0 .558-.092.682-.275.132-.183.198-.48.198-.891V4.245h2.035v7.062c0 .616-.088 1.13-.264 1.54-.168.41-.44.715-.814.913-.374.198-.872.297-1.496.297zM111.465 12V4.245h5.566v1.551h-3.619v1.485h3.355v1.562h-3.355v1.595h3.619V12h-5.566zm14.879-3.883c0-.807.158-1.507.473-2.101a3.354 3.354 0 011.353-1.397c.587-.33 1.28-.495 2.079-.495.807 0 1.503.165 2.09.495.587.33 1.038.796 1.353 1.397.323.594.484 1.294.484 2.101 0 .8-.161 1.5-.484 2.101a3.424 3.424 0 01-1.353 1.408c-.587.33-1.283.495-2.09.495-.799 0-1.492-.165-2.079-.495a3.527 3.527 0 01-1.353-1.408c-.315-.601-.473-1.302-.473-2.101zm2.123 0c0 .726.147 1.294.44 1.705.293.403.741.605 1.342.605.601 0 1.052-.202 1.353-.605.301-.41.451-.979.451-1.705 0-.726-.15-1.29-.451-1.694-.301-.403-.752-.605-1.353-.605s-1.049.202-1.342.605c-.293.396-.44.96-.44 1.694zM138.034 12V4.245h5.445v1.551h-3.41v1.573h3.157V8.92h-3.157V12h-2.035zm9.053 0V4.245h2.035V12h-2.035zm10.003.121c-.843 0-1.573-.165-2.189-.495a3.525 3.525 0 01-1.419-1.397c-.33-.601-.495-1.305-.495-2.112 0-.807.165-1.507.495-2.101a3.525 3.525 0 011.419-1.397c.616-.33 1.346-.495 2.189-.495.536 0 1.023.073 1.463.22.44.14.811.341 1.111.605l-.605 1.595a3.594 3.594 0 00-.935-.506 2.753 2.753 0 00-.957-.154c-.66 0-1.169.194-1.529.583-.352.381-.528.931-.528 1.65 0 .726.176 1.283.528 1.672.36.381.869.572 1.529.572.36 0 .679-.048.957-.143.286-.103.598-.275.935-.517l.605 1.595c-.3.264-.671.47-1.111.616-.44.14-.927.209-1.463.209zm6.277-.121V4.245h2.035V12h-2.035zm5.152 0l3.63-7.755h1.65L177.451 12h-2.035l-.935-2.134.781.561h-4.554l.77-.561-.924 2.134h-2.035zm4.444-5.665l-1.287 3.069-.308-.517h3.223l-.275.517-1.298-3.069h-.055zM180.571 12V4.245h2.035v6.072h3.322V12h-5.357zm14.819 0V4.245h3.124c.916 0 1.69.158 2.321.473.63.308 1.107.752 1.43 1.331.33.572.495 1.261.495 2.068 0 .8-.165 1.489-.495 2.068-.323.58-.8 1.027-1.43 1.342-.631.315-1.405.473-2.321.473h-3.124zm2.035-1.65h.957c.799 0 1.389-.183 1.771-.55.388-.367.583-.928.583-1.683 0-.763-.195-1.324-.583-1.683-.382-.367-.972-.55-1.771-.55h-.957v4.466zm9.198 1.65V4.245h5.566v1.551h-3.619v1.485h3.355v1.562h-3.355v1.595h3.619V12h-5.566zm15.121 0V4.245h1.76l2.541 5.687h-.363l2.53-5.687h1.771V12h-1.837V7.248h.473l-2.2 4.752h-1.144l-2.211-4.752h.506V12h-1.826zm12.329 0V4.245h5.566v1.551h-3.619v1.485h3.355v1.562h-3.355v1.595h3.619V12h-5.566zm9.268 0V4.245h3.124c.916 0 1.69.158 2.321.473.63.308 1.107.752 1.43 1.331.33.572.495 1.261.495 2.068 0 .8-.165 1.489-.495 2.068-.323.58-.8 1.027-1.43 1.342-.631.315-1.405.473-2.321.473h-3.124zm2.035-1.65h.957c.799 0 1.389-.183 1.771-.55.388-.367.583-.928.583-1.683 0-.763-.195-1.324-.583-1.683-.382-.367-.972-.55-1.771-.55h-.957v4.466zm9.198 1.65V4.245h2.035V12h-2.035zm10.004.121c-.843 0-1.573-.165-2.189-.495a3.513 3.513 0 01-1.419-1.397c-.33-.601-.495-1.305-.495-2.112 0-.807.165-1.507.495-2.101a3.512 3.512 0 011.419-1.397c.616-.33 1.346-.495 2.189-.495.535 0 1.023.073 1.463.22.44.14.81.341 1.111.605l-.605 1.595a3.594 3.594 0 00-.935-.506 2.76 2.76 0 00-.957-.154c-.66 0-1.17.194-1.529.583-.352.381-.528.931-.528 1.65 0 .726.176 1.283.528 1.672.359.381.869.572 1.529.572.359 0 .678-.048.957-.143.286-.103.598-.275.935-.517l.605 1.595c-.301.264-.671.47-1.111.616-.44.14-.928.209-1.463.209zm5.19-.121l3.63-7.755h1.65L278.7 12h-2.035l-.935-2.134.781.561h-4.554l.77-.561-.924 2.134h-2.035zm4.444-5.665l-1.287 3.069-.308-.517h3.223l-.275.517-1.298-3.069h-.055zM281.82 12V4.245h3.663c.894 0 1.584.213 2.068.638.491.425.737 1.016.737 1.771 0 .506-.11.939-.33 1.298-.22.352-.539.627-.957.825-.418.19-.917.286-1.496.286l.099-.275h.55c.322 0 .608.088.858.264.249.176.454.422.616.737L288.805 12h-2.222l-1.265-2.475a.642.642 0 00-.363-.33 1.476 1.476 0 00-.528-.088h-.572V12h-2.035zm2.035-4.334h1.276c.396 0 .696-.077.902-.231.205-.161.308-.4.308-.715 0-.308-.103-.539-.308-.693-.206-.154-.506-.231-.902-.231h-1.276v1.87zM292.301 12V4.245h5.566v1.551h-3.619v1.485h3.355v1.562h-3.355v1.595h3.619V12h-5.566z" fill="#fff"/></svg>