<svg width="213" height="23" viewBox="0 0 213 23" fill="none" xmlns="http://www.w3.org/2000/svg"><path d="M3.96 9.132c-.68 0-1.328-.08-1.944-.24C1.408 8.724.896 8.5.48 8.22l.624-1.716c.264.168.552.312.864.432.312.12.636.216.972.288.344.064.692.096 1.044.096.528 0 .892-.068 1.092-.204.208-.136.312-.312.312-.528a.526.526 0 00-.204-.444c-.136-.112-.392-.208-.768-.288l-1.464-.3c-.776-.16-1.356-.436-1.74-.828-.384-.4-.576-.92-.576-1.56 0-.56.148-1.044.444-1.452.304-.416.728-.736 1.272-.96C2.896.524 3.532.408 4.26.408c.6 0 1.164.084 1.692.252.528.16.96.384 1.296.672L6.624 2.94a3.573 3.573 0 00-1.08-.528 4.355 4.355 0 00-1.332-.192c-.464 0-.816.072-1.056.216-.232.136-.348.332-.348.588 0 .176.068.328.204.456.144.12.404.22.78.3l1.44.288c.776.152 1.356.424 1.74.816.392.392.588.904.588 1.536 0 .544-.152 1.02-.456 1.428-.296.408-.712.724-1.248.948-.536.224-1.168.336-1.896.336zM8.83 9V2.904h2.137V9H8.83zm-.047-6.96V.12h2.244v1.92H8.783zM15.997 9V4.572a14.721 14.721 0 00-.096-1.668h2.064l.228 1.872h-.324c.08-.456.208-.832.384-1.128a1.74 1.74 0 01.66-.66c.264-.144.576-.216.936-.216.168 0 .292.008.372.024a.94.94 0 01.276.072V4.74c-.2-.088-.36-.144-.48-.168a2.468 2.468 0 00-.468-.036c-.328 0-.596.06-.804.18a.994.994 0 00-.456.528c-.088.24-.132.548-.132.924V9h-2.16zm8.375.132c-1.104 0-1.964-.284-2.58-.852-.608-.568-.912-1.348-.912-2.34 0-.616.128-1.164.384-1.644s.616-.852 1.08-1.116c.464-.272 1.008-.408 1.632-.408.616 0 1.128.136 1.536.408.416.264.728.632.936 1.104.208.464.312 1.004.312 1.62v.456h-4.092V5.352h2.52l-.204.168c0-.456-.088-.792-.264-1.008-.168-.224-.408-.336-.72-.336-.36 0-.636.136-.828.408-.184.264-.276.664-.276 1.2V6c0 .536.132.928.396 1.176.264.248.644.372 1.14.372.32 0 .62-.036.9-.108.288-.072.56-.188.816-.348l.552 1.392a3.549 3.549 0 01-1.056.48c-.4.112-.824.168-1.272.168zm6.609 0c-.672 0-1.26-.128-1.764-.384a2.821 2.821 0 01-1.176-1.092c-.28-.48-.42-1.052-.42-1.716 0-.664.14-1.232.42-1.704.28-.472.672-.832 1.176-1.08.504-.256 1.092-.384 1.764-.384.416 0 .824.056 1.224.168.4.112.724.272.972.48l-.6 1.452a1.96 1.96 0 00-.66-.36 2.048 2.048 0 00-.708-.132c-.44 0-.784.132-1.032.396-.24.264-.36.652-.36 1.164 0 .512.12.904.36 1.176.248.264.592.396 1.032.396.224 0 .46-.04.708-.12.248-.088.468-.208.66-.36l.6 1.452c-.256.2-.584.36-.984.48a4.39 4.39 0 01-1.212.168zM34.18 9V2.904h2.136V9H34.18zm-.048-6.96V.12h2.244v1.92h-2.244zm7.62 7.092c-.463 0-.887-.112-1.271-.336-.376-.224-.624-.52-.744-.888h.132V9h-2.112V.168h2.136v3.768h-.144c.136-.352.388-.632.756-.84a2.46 2.46 0 011.248-.324c.528 0 .992.128 1.392.384.408.256.724.624.948 1.104.232.48.348 1.048.348 1.704 0 .664-.116 1.232-.348 1.704-.224.472-.54.836-.948 1.092-.4.248-.864.372-1.392.372zm-.671-1.584c.352 0 .64-.124.864-.372.232-.248.348-.652.348-1.212 0-.56-.116-.968-.348-1.224a1.096 1.096 0 00-.864-.384c-.36 0-.652.128-.876.384-.224.248-.336.652-.336 1.212 0 .56.112.968.336 1.224.224.248.516.372.876.372zm7.734 1.584c-1.104 0-1.964-.284-2.58-.852-.607-.568-.911-1.348-.911-2.34 0-.616.127-1.164.383-1.644.257-.48.617-.852 1.08-1.116.465-.272 1.009-.408 1.633-.408.615 0 1.127.136 1.535.408.416.264.728.632.936 1.104.208.464.313 1.004.313 1.62v.456h-4.093V5.352h2.52l-.203.168c0-.456-.089-.792-.265-1.008-.168-.224-.407-.336-.72-.336-.36 0-.636.136-.828.408-.184.264-.276.664-.276 1.2V6c0 .536.132.928.396 1.176.265.248.645.372 1.14.372.32 0 .62-.036.9-.108.288-.072.56-.188.816-.348l.553 1.392a3.549 3.549 0 01-1.056.48c-.4.112-.825.168-1.273.168zm5.866 0a6.604 6.604 0 01-1.548-.168 4.21 4.21 0 01-1.164-.48l.516-1.392c.312.176.66.32 1.044.432.392.112.78.168 1.164.168.304 0 .524-.044.66-.132.144-.096.216-.22.216-.372a.353.353 0 00-.132-.288.87.87 0 00-.396-.156l-1.296-.228c-.512-.096-.912-.284-1.2-.564-.28-.288-.42-.66-.42-1.116 0-.416.112-.776.336-1.08.224-.312.544-.552.96-.72.416-.176.908-.264 1.476-.264.464 0 .904.052 1.32.156.424.104.792.268 1.104.492l-.552 1.356a3.283 3.283 0 00-.876-.408 2.866 2.866 0 00-.924-.168c-.344 0-.588.052-.732.156-.144.096-.216.216-.216.36 0 .112.04.208.12.288.08.072.208.124.384.156l1.296.228c.528.088.932.272 1.212.552.288.272.432.644.432 1.116 0 .44-.12.816-.36 1.128-.232.304-.556.54-.972.708-.416.16-.9.24-1.452.24zm9.683 0c-.776 0-1.352-.212-1.728-.636-.368-.432-.552-1.084-.552-1.956V2.904h2.136v3.648c0 .32.064.56.192.72.136.152.34.228.612.228a.95.95 0 00.744-.324c.2-.224.3-.516.3-.876V2.904h2.136V9h-2.076V7.908h.18a2.244 2.244 0 01-.78.912c-.328.208-.716.312-1.164.312zM69.659 9V4.56a14.513 14.513 0 00-.096-1.656h2.064l.12 1.056h-.132c.2-.384.484-.676.852-.876a2.492 2.492 0 011.248-.312c.712 0 1.244.212 1.596.636.36.416.54 1.068.54 1.956V9h-2.136V5.46c0-.392-.068-.664-.204-.816-.136-.16-.332-.24-.588-.24-.336 0-.608.112-.816.336-.208.216-.312.504-.312.864V9h-2.136zm9.996.132c-.528 0-.992-.124-1.392-.372-.4-.256-.716-.624-.948-1.104-.224-.48-.336-1.048-.336-1.704 0-.664.112-1.232.336-1.704.232-.48.548-.844.948-1.092.4-.256.864-.384 1.392-.384.472 0 .896.112 1.272.336.384.224.636.516.756.876h-.12l.132-1.08h2.052l-.072.828c-.016.28-.024.556-.024.828V9H81.54l-.024-1.032h.144c-.12.352-.372.636-.756.852a2.535 2.535 0 01-1.248.312zm.684-1.584c.36 0 .652-.124.876-.372.224-.256.336-.664.336-1.224 0-.56-.112-.964-.336-1.212a1.109 1.109 0 00-.876-.384c-.36 0-.652.128-.876.384-.224.248-.336.652-.336 1.212 0 .56.108.968.324 1.224.224.248.52.372.888.372zM88.687 9V.168h2.136V9h-2.136zm3.577 0V.168H94.4V9h-2.136zm5.977.132c-.528 0-.992-.124-1.392-.372-.4-.256-.716-.624-.948-1.104-.224-.48-.336-1.048-.336-1.704 0-.664.112-1.232.336-1.704.232-.48.548-.844.948-1.092.4-.256.864-.384 1.392-.384.472 0 .896.112 1.272.336.384.224.636.516.756.876h-.12l.132-1.08h2.052l-.072.828c-.016.28-.024.556-.024.828V9h-2.112l-.024-1.032h.144c-.12.352-.372.636-.756.852a2.535 2.535 0 01-1.248.312zm.684-1.584c.36 0 .652-.124.876-.372.224-.256.336-.664.336-1.224 0-.56-.112-.964-.336-1.212a1.109 1.109 0 00-.876-.384c-.36 0-.652.128-.876.384-.224.248-.336.652-.336 1.212 0 .56.108.968.324 1.224.224.248.52.372.888.372zM103.683 9V4.56a14.513 14.513 0 00-.096-1.656h2.064l.12 1.056h-.132a1.99 1.99 0 01.78-.864c.344-.216.748-.324 1.212-.324.448 0 .828.108 1.14.324.32.208.552.54.696.996h-.204c.2-.416.488-.74.864-.972a2.435 2.435 0 011.284-.348c.696 0 1.216.212 1.56.636.344.416.516 1.068.516 1.956V9h-2.148V5.436c0-.376-.056-.64-.168-.792-.112-.16-.292-.24-.54-.24-.312 0-.556.112-.732.336-.168.224-.252.532-.252.924V9h-2.136V5.436c0-.376-.06-.64-.18-.792-.112-.16-.288-.24-.528-.24-.312 0-.556.112-.732.336-.168.224-.252.532-.252.924V9h-2.136zm13.606.132c-.528 0-.992-.124-1.392-.372-.4-.256-.716-.624-.948-1.104-.224-.48-.336-1.048-.336-1.704 0-.664.112-1.232.336-1.704.232-.48.548-.844.948-1.092.4-.256.864-.384 1.392-.384.472 0 .896.112 1.272.336.384.224.636.516.756.876h-.12l.132-1.08h2.052l-.072.828c-.016.28-.024.556-.024.828V9h-2.112l-.024-1.032h.144c-.12.352-.372.636-.756.852a2.535 2.535 0 01-1.248.312zm.684-1.584c.36 0 .652-.124.876-.372.224-.256.336-.664.336-1.224 0-.56-.112-.964-.336-1.212a1.109 1.109 0 00-.876-.384c-.36 0-.652.128-.876.384-.224.248-.336.652-.336 1.212 0 .56.108.968.324 1.224.224.248.52.372.888.372zm7.183 1.584c-.52 0-.984-.124-1.392-.372-.408-.256-.728-.624-.96-1.104-.232-.48-.348-1.048-.348-1.704 0-.664.112-1.232.336-1.704.232-.48.552-.844.96-1.092a2.625 2.625 0 011.404-.384c.464 0 .884.108 1.26.324.376.208.628.488.756.84h-.18V.168h2.136V9h-2.1V7.908h.156c-.112.368-.36.664-.744.888a2.46 2.46 0 01-1.284.336zm.684-1.584c.352 0 .64-.124.864-.372.232-.256.348-.664.348-1.224 0-.56-.116-.964-.348-1.212a1.096 1.096 0 00-.864-.384c-.36 0-.656.128-.888.384-.224.248-.336.652-.336 1.212 0 .56.112.968.336 1.224.232.248.528.372.888.372zm7.135 1.584c-.528 0-.992-.124-1.392-.372-.4-.256-.716-.624-.948-1.104-.224-.48-.336-1.048-.336-1.704 0-.664.112-1.232.336-1.704.232-.48.548-.844.948-1.092.4-.256.864-.384 1.392-.384.472 0 .896.112 1.272.336.384.224.636.516.756.876h-.12l.132-1.08h2.052l-.072.828c-.016.28-.024.556-.024.828V9h-2.112l-.024-1.032h.144c-.12.352-.372.636-.756.852a2.535 2.535 0 01-1.248.312zm.684-1.584c.36 0 .652-.124.876-.372.224-.256.336-.664.336-1.224 0-.56-.112-.964-.336-1.212a1.109 1.109 0 00-.876-.384c-.36 0-.652.128-.876.384-.224.248-.336.652-.336 1.212 0 .56.108.968.324 1.224.224.248.52.372.888.372zm5.622 3.312l-.804-.636c.312-.304.532-.592.66-.864.136-.272.204-.564.204-.876l.456.516h-1.524V6.816h2.22v1.38c0 .504-.092.96-.276 1.368-.176.416-.488.848-.936 1.296zm8.358-1.728c-.776 0-1.352-.212-1.728-.636-.368-.432-.552-1.084-.552-1.956V2.904h2.136v3.648c0 .32.064.56.192.72.136.152.34.228.612.228a.95.95 0 00.744-.324c.2-.224.3-.516.3-.876V2.904h2.136V9h-2.076V7.908h.18a2.244 2.244 0 01-.78.912c-.328.208-.716.312-1.164.312zM152.933 9V4.56a14.513 14.513 0 00-.096-1.656h2.064l.12 1.056h-.132c.2-.384.484-.676.852-.876a2.492 2.492 0 011.248-.312c.712 0 1.244.212 1.596.636.36.416.54 1.068.54 1.956V9h-2.136V5.46c0-.392-.068-.664-.204-.816-.136-.16-.332-.24-.588-.24-.336 0-.608.112-.816.336-.208.216-.312.504-.312.864V9h-2.136zm11.186 0V4.56a14.513 14.513 0 00-.096-1.656h2.064l.12 1.056h-.132a1.99 1.99 0 01.78-.864c.344-.216.748-.324 1.212-.324.448 0 .828.108 1.14.324.32.208.552.54.696.996h-.204c.2-.416.488-.74.864-.972a2.435 2.435 0 011.284-.348c.696 0 1.216.212 1.56.636.344.416.516 1.068.516 1.956V9h-2.148V5.436c0-.376-.056-.64-.168-.792-.112-.16-.292-.24-.54-.24-.312 0-.556.112-.732.336-.168.224-.252.532-.252.924V9h-2.136V5.436c0-.376-.06-.64-.18-.792-.112-.16-.288-.24-.528-.24-.312 0-.556.112-.732.336-.168.224-.252.532-.252.924V9h-2.136zm14.422.132c-1.104 0-1.964-.284-2.58-.852-.608-.568-.912-1.348-.912-2.34 0-.616.128-1.164.384-1.644s.616-.852 1.08-1.116c.464-.272 1.008-.408 1.632-.408.616 0 1.128.136 1.536.408.416.264.728.632.936 1.104.208.464.312 1.004.312 1.62v.456h-4.092V5.352h2.52l-.204.168c0-.456-.088-.792-.264-1.008-.168-.224-.408-.336-.72-.336-.36 0-.636.136-.828.408-.184.264-.276.664-.276 1.2V6c0 .536.132.928.396 1.176.264.248.644.372 1.14.372.32 0 .62-.036.9-.108.288-.072.56-.188.816-.348l.552 1.392a3.549 3.549 0 01-1.056.48c-.4.112-.824.168-1.272.168zM182.066 9V4.56a14.513 14.513 0 00-.096-1.656h2.064l.12 1.056h-.132c.2-.384.484-.676.852-.876a2.492 2.492 0 011.248-.312c.712 0 1.244.212 1.596.636.36.416.54 1.068.54 1.956V9h-2.136V5.46c0-.392-.068-.664-.204-.816-.136-.16-.332-.24-.588-.24-.336 0-.608.112-.816.336-.208.216-.312.504-.312.864V9h-2.136zm9.936.132a6.604 6.604 0 01-1.548-.168 4.21 4.21 0 01-1.164-.48l.516-1.392c.312.176.66.32 1.044.432.392.112.78.168 1.164.168.304 0 .524-.044.66-.132.144-.096.216-.22.216-.372a.353.353 0 00-.132-.288.87.87 0 00-.396-.156l-1.296-.228c-.512-.096-.912-.284-1.2-.564-.28-.288-.42-.66-.42-1.116 0-.416.112-.776.336-1.08.224-.312.544-.552.96-.72.416-.176.908-.264 1.476-.264.464 0 .904.052 1.32.156.424.104.792.268 1.104.492l-.552 1.356a3.283 3.283 0 00-.876-.408 2.866 2.866 0 00-.924-.168c-.344 0-.588.052-.732.156-.144.096-.216.216-.216.36 0 .112.04.208.12.288.08.072.208.124.384.156l1.296.228c.528.088.932.272 1.212.552.288.272.432.644.432 1.116 0 .44-.12.816-.36 1.128-.232.304-.556.54-.972.708-.416.16-.9.24-1.452.24zm6.251 0c-.528 0-.992-.124-1.392-.372-.4-.256-.716-.624-.948-1.104-.224-.48-.336-1.048-.336-1.704 0-.664.112-1.232.336-1.704.232-.48.548-.844.948-1.092.4-.256.864-.384 1.392-.384.472 0 .896.112 1.272.336.384.224.636.516.756.876h-.12l.132-1.08h2.052l-.072.828c-.016.28-.024.556-.024.828V9h-2.112l-.024-1.032h.144c-.12.352-.372.636-.756.852a2.535 2.535 0 01-1.248.312zm.684-1.584c.36 0 .652-.124.876-.372.224-.256.336-.664.336-1.224 0-.56-.112-.964-.336-1.212a1.109 1.109 0 00-.876-.384c-.36 0-.652.128-.876.384-.224.248-.336.652-.336 1.212 0 .56.108.968.324 1.224.224.248.52.372.888.372zm4.374 4.152a4.64 4.64 0 01-.576-.036 2.158 2.158 0 01-.552-.144V9.876c.12.04.236.068.348.084.104.016.216.024.336.024a.832.832 0 00.576-.204c.16-.128.24-.364.24-.708V2.904h2.136v6.24c0 .84-.2 1.476-.6 1.908-.392.432-1.028.648-1.908.648zm.312-9.66V.12h2.244v1.92h-2.244zm6.865 7.092c-1.104 0-1.964-.284-2.58-.852-.608-.568-.912-1.348-.912-2.34 0-.616.128-1.164.384-1.644s.616-.852 1.08-1.116c.464-.272 1.008-.408 1.632-.408.616 0 1.128.136 1.536.408.416.264.728.632.936 1.104.208.464.312 1.004.312 1.62v.456h-4.092V5.352h2.52l-.204.168c0-.456-.088-.792-.264-1.008-.168-.224-.408-.336-.72-.336-.36 0-.636.136-.828.408-.184.264-.276.664-.276 1.2V6c0 .536.132.928.396 1.176.264.248.644.372 1.14.372.32 0 .62-.036.9-.108.288-.072.56-.188.816-.348l.552 1.392a3.549 3.549 0 01-1.056.48c-.4.112-.824.168-1.272.168zm-207.404 13c-.52 0-.984-.124-1.392-.372-.408-.256-.728-.624-.96-1.104-.232-.48-.348-1.048-.348-1.704 0-.664.112-1.232.336-1.704.232-.48.552-.844.96-1.092a2.625 2.625 0 011.404-.384c.464 0 .884.108 1.26.324.376.208.628.488.756.84h-.18v-3.768h2.136V22h-2.1v-1.092h.156c-.112.368-.36.664-.744.888a2.46 2.46 0 01-1.284.336zm.684-1.584c.352 0 .64-.124.864-.372.232-.256.348-.664.348-1.224 0-.56-.116-.964-.348-1.212a1.096 1.096 0 00-.864-.384c-.36 0-.656.128-.888.384-.224.248-.336.652-.336 1.212 0 .56.112.968.336 1.224.232.248.528.372.888.372zm7.95 1.584c-1.103 0-1.963-.284-2.58-.852-.607-.568-.911-1.348-.911-2.34 0-.616.128-1.164.384-1.644s.616-.852 1.08-1.116c.464-.272 1.008-.408 1.632-.408.616 0 1.128.136 1.536.408.416.264.728.632.936 1.104.208.464.312 1.004.312 1.62v.456h-4.092v-1.008h2.52l-.204.168c0-.456-.088-.792-.264-1.008-.168-.224-.408-.336-.72-.336-.36 0-.636.136-.828.408-.184.264-.276.664-.276 1.2V19c0 .536.132.928.396 1.176.264.248.644.372 1.14.372.32 0 .62-.036.9-.108.288-.072.56-.188.816-.348l.552 1.392a3.549 3.549 0 01-1.056.48c-.4.112-.824.168-1.272.168zm10.235 0c-.864 0-1.517-.204-1.956-.612-.433-.416-.648-1.044-.648-1.884v-2.16h-1.14v-1.572h1.14v-1.44l2.136-.504v1.944h1.488v1.572h-1.488v2.076c0 .352.08.588.24.708.16.112.351.168.575.168.136 0 .252-.008.348-.024.105-.024.212-.056.325-.096v1.644c-.176.072-.352.12-.528.144a3.477 3.477 0 01-.492.036zm5.126 0c-1.104 0-1.964-.284-2.58-.852-.608-.568-.912-1.348-.912-2.34 0-.616.128-1.164.384-1.644s.616-.852 1.08-1.116c.464-.272 1.008-.408 1.632-.408.616 0 1.128.136 1.536.408.416.264.728.632.936 1.104.208.464.312 1.004.312 1.62v.456h-4.092v-1.008h2.52l-.204.168c0-.456-.088-.792-.264-1.008-.168-.224-.408-.336-.72-.336-.36 0-.636.136-.828.408-.184.264-.276.664-.276 1.2V19c0 .536.132.928.396 1.176.264.248.644.372 1.14.372.32 0 .62-.036.9-.108.288-.072.56-.188.816-.348l.552 1.392a3.549 3.549 0 01-1.056.48c-.4.112-.824.168-1.272.168zM29.512 22l2.952-3.6v.924l-2.784-3.42h2.496l1.512 1.98h-.768l1.524-1.98h2.484l-2.784 3.432v-.96L37.108 22h-2.52l-1.668-2.148h.768L32.008 22h-2.496zm11.117.132c-.864 0-1.516-.204-1.956-.612-.432-.416-.648-1.044-.648-1.884v-2.16h-1.14v-1.572h1.14v-1.44l2.136-.504v1.944h1.488v1.572H40.16v2.076c0 .352.08.588.24.708.16.112.352.168.576.168.136 0 .252-.008.348-.024.104-.024.212-.056.324-.096v1.644c-.176.072-.352.12-.528.144a3.477 3.477 0 01-.492.036zm4.958 0c-.68 0-1.268-.128-1.764-.384a2.76 2.76 0 01-1.152-1.092c-.272-.48-.408-1.048-.408-1.704 0-.664.136-1.232.408-1.704a2.76 2.76 0 011.152-1.092c.496-.256 1.084-.384 1.764-.384.672 0 1.256.128 1.752.384s.88.624 1.152 1.104c.272.472.408 1.036.408 1.692 0 .648-.136 1.212-.408 1.692-.272.48-.656.848-1.152 1.104-.496.256-1.08.384-1.752.384zm0-1.584c.352 0 .632-.124.84-.372.208-.256.312-.664.312-1.224 0-.56-.104-.964-.312-1.212-.208-.256-.488-.384-.84-.384-.36 0-.644.128-.852.384-.208.248-.312.652-.312 1.212 0 .56.104.968.312 1.224.208.248.492.372.852.372zm11.115 1.584c-.68 0-1.268-.128-1.764-.384a2.76 2.76 0 01-1.152-1.092c-.272-.48-.408-1.048-.408-1.704 0-.664.136-1.232.408-1.704a2.76 2.76 0 011.152-1.092c.496-.256 1.084-.384 1.764-.384.672 0 1.256.128 1.752.384s.88.624 1.152 1.104c.272.472.408 1.036.408 1.692 0 .648-.136 1.212-.408 1.692-.272.48-.656.848-1.152 1.104-.496.256-1.08.384-1.752.384zm0-1.584c.352 0 .632-.124.84-.372.208-.256.312-.664.312-1.224 0-.56-.104-.964-.312-1.212-.208-.256-.488-.384-.84-.384-.36 0-.644.128-.852.384-.208.248-.312.652-.312 1.212 0 .56.104.968.312 1.224.208.248.492.372.852.372zm10.311 1.584c-.776 0-1.352-.212-1.728-.636-.368-.432-.552-1.084-.552-1.956v-3.636h2.136v3.648c0 .32.064.56.192.72.136.152.34.228.612.228a.95.95 0 00.744-.324c.2-.224.3-.516.3-.876v-3.396h2.136V22h-2.076v-1.092h.18a2.244 2.244 0 01-.78.912c-.328.208-.716.312-1.164.312zM72.307 22v-4.44a14.513 14.513 0 00-.096-1.656h2.064l.12 1.056h-.132c.2-.384.484-.676.852-.876a2.492 2.492 0 011.248-.312c.712 0 1.244.212 1.596.636.36.416.54 1.068.54 1.956V22h-2.136v-3.54c0-.392-.068-.664-.204-.816-.136-.16-.332-.24-.588-.24-.336 0-.608.112-.816.336-.208.216-.312.504-.312.864V22h-2.136zm14.401.132c-1.104 0-1.964-.284-2.58-.852-.608-.568-.912-1.348-.912-2.34 0-.616.128-1.164.384-1.644s.616-.852 1.08-1.116c.464-.272 1.008-.408 1.632-.408.616 0 1.128.136 1.536.408.416.264.728.632.936 1.104.208.464.312 1.004.312 1.62v.456h-4.092v-1.008h2.52l-.204.168c0-.456-.088-.792-.264-1.008-.168-.224-.408-.336-.72-.336-.36 0-.636.136-.828.408-.184.264-.276.664-.276 1.2V19c0 .536.132.928.396 1.176.264.248.644.372 1.14.372.32 0 .62-.036.9-.108.288-.072.56-.188.816-.348l.552 1.392a3.549 3.549 0 01-1.056.48c-.4.112-.824.168-1.272.168zM90.233 22v-4.44a14.513 14.513 0 00-.096-1.656h2.064l.12 1.056h-.132a1.99 1.99 0 01.78-.864c.344-.216.748-.324 1.212-.324.448 0 .828.108 1.14.324.32.208.552.54.696.996h-.204c.2-.416.488-.74.864-.972a2.435 2.435 0 011.284-.348c.696 0 1.216.212 1.56.636.344.416.516 1.068.516 1.956V22h-2.148v-3.564c0-.376-.056-.64-.168-.792-.112-.16-.292-.24-.54-.24-.312 0-.556.112-.732.336-.168.224-.252.532-.252.924V22h-2.136v-3.564c0-.376-.06-.64-.18-.792-.112-.16-.288-.24-.528-.24-.312 0-.556.112-.732.336-.168.224-.252.532-.252.924V22h-2.136zm13.606.132c-.528 0-.992-.124-1.392-.372-.4-.256-.716-.624-.948-1.104-.224-.48-.336-1.048-.336-1.704 0-.664.112-1.232.336-1.704.232-.48.548-.844.948-1.092.4-.256.864-.384 1.392-.384.472 0 .896.112 1.272.336.384.224.636.516.756.876h-.12l.132-1.08h2.052l-.072.828c-.016.28-.024.556-.024.828V22h-2.112l-.024-1.032h.144c-.12.352-.372.636-.756.852a2.535 2.535 0 01-1.248.312zm.684-1.584c.36 0 .652-.124.876-.372.224-.256.336-.664.336-1.224 0-.56-.112-.964-.336-1.212a1.109 1.109 0 00-.876-.384c-.36 0-.652.128-.876.384-.224.248-.336.652-.336 1.212 0 .56.108.968.324 1.224.224.248.52.372.888.372zM109.282 22v-6.096h2.136V22h-2.136zm-.048-6.96v-1.92h2.244v1.92h-2.244zm3.625 6.96v-8.832h2.136V22h-2.136zm3.433 0v-2.184h2.22V22h-2.22zm3.39 0v-2.184h2.22V22h-2.22zm3.389 0v-2.184h2.22V22h-2.22z" fill="#fff"/></svg>