<svg width="151" height="13" viewBox="0 0 151 13" fill="none" xmlns="http://www.w3.org/2000/svg"><path d="M7.599 7.097H1.758c.085.512.31.92.675 1.222.366.303.834.454 1.402.454.68 0 1.264-.237 1.753-.709l1.531.715c-.381.54-.839.938-1.372 1.196-.533.259-1.165.388-1.897.388-1.137 0-2.062-.357-2.777-1.07C.358 8.579 0 7.686 0 6.613c0-1.075.357-2.015 1.069-2.741.712-.727 1.606-1.09 2.681-1.09 1.141 0 2.07.364 2.784 1.09.715.726 1.073 1.686 1.073 2.88l-.007.344-.001.001zM5.78 5.672a1.81 1.81 0 00-.71-.98 2.065 2.065 0 00-1.232-.378c-.507 0-.951.141-1.334.423-.24.177-.462.488-.668.935h3.944zM13.268 3.976l-1.125 1.119c-.458-.451-.873-.676-1.246-.676-.204 0-.364.043-.48.129a.385.385 0 00-.062.588c.073.082.253.194.542.335l.667.331c.701.345 1.184.696 1.445 1.053.261.358.393.777.393 1.258 0 .641-.236 1.176-.71 1.603-.472.43-1.106.643-1.9.643-1.058 0-1.9-.411-2.532-1.233L9.38 7.913c.213.247.462.447.749.6.286.152.54.228.763.228.24 0 .432-.057.579-.171.146-.115.22-.247.22-.398 0-.278-.265-.55-.793-.815l-.613-.304c-1.172-.588-1.757-1.324-1.757-2.206 0-.57.22-1.057.662-1.462.442-.404 1.008-.605 1.695-.605a2.96 2.96 0 012.385 1.192l-.001.004zM15.17 8.289c.29 0 .537.1.74.301a.99.99 0 01.306.732 1 1 0 01-.306.736 1.01 1.01 0 01-.74.304c-.288 0-.534-.101-.739-.304a1 1 0 01-.306-.736c0-.287.102-.531.306-.732.204-.201.45-.301.74-.301zM19.144.432h1.817l2.272 6.799 2.292-6.8h1.817l1.645 9.748h-1.802l-1.05-6.156-2.084 6.156h-1.645l-2.062-6.156-1.075 6.156h-1.82L19.143.432zM37.463 7.098h-5.841c.083.514.31.92.675 1.224.366.301.834.453 1.404.453.68 0 1.263-.236 1.752-.71l1.533.717c-.382.538-.84.938-1.374 1.197-.533.259-1.165.388-1.898.388-1.137 0-2.063-.357-2.779-1.07-.714-.714-1.072-1.607-1.072-2.68 0-1.072.355-2.013 1.069-2.739.713-.725 1.607-1.09 2.681-1.09 1.14 0 2.069.365 2.784 1.09.714.728 1.072 1.686 1.072 2.878l-.006.345h-.003l.003-.003zm-1.82-1.425a1.817 1.817 0 00-.71-.98 2.065 2.065 0 00-1.231-.378c-.507 0-.951.142-1.336.424-.24.177-.464.489-.667.934h3.945zM44.12.185h1.82v9.992h-1.82v-.762c-.354.335-.71.578-1.067.725a3.016 3.016 0 01-1.161.223c-.936 0-1.745-.362-2.428-1.083-.684-.722-1.026-1.62-1.026-2.694 0-1.074.33-2.025.992-2.738.66-.71 1.462-1.067 2.408-1.067.435 0 .843.082 1.224.244.382.163.733.41 1.058.736V.185zm-1.912 4.268c-.562 0-1.03.196-1.401.593-.371.395-.558.902-.558 1.52 0 .62.19 1.135.567 1.537a1.84 1.84 0 001.397.602c.554 0 1.045-.196 1.42-.593.377-.395.564-.912.564-1.555 0-.642-.189-1.134-.564-1.524-.376-.388-.85-.583-1.427-.583v.003h.002zM48.511 0c.318 0 .592.116.82.345.227.23.342.508.342.834 0 .326-.114.598-.34.826a1.106 1.106 0 01-.808.342c-.314 0-.6-.116-.828-.349a1.164 1.164 0 01-.342-.845c0-.331.112-.59.337-.815.226-.225.498-.338.817-.338h.002zm-.909 2.968h1.819v7.209h-1.819v-7.21zM58.113 4.428l-1.514.83c-.283-.297-.565-.501-.842-.617a2.533 2.533 0 00-.978-.173c-.68 0-1.23.2-1.65.605-.42.403-.63.92-.63 1.55s.201 1.113.607 1.503c.404.388.936.583 1.595.583.813 0 1.446-.277 1.9-.83l1.432.977c-.778 1.006-1.874 1.509-3.292 1.509-1.275 0-2.272-.376-2.994-1.127-.721-.752-1.083-1.63-1.083-2.638a3.708 3.708 0 011.994-3.314c.627-.335 1.332-.503 2.108-.503.72 0 1.366.143 1.938.428.574.285 1.041.69 1.405 1.217v.002l.004-.002zM64.432 2.968h1.82v7.208h-1.82v-.762c-.355.336-.71.579-1.067.726a3.016 3.016 0 01-1.162.222c-.936 0-1.745-.361-2.428-1.083-.684-.721-1.026-1.62-1.026-2.693 0-1.074.33-2.026.992-2.738.661-.711 1.462-1.068 2.408-1.068.435 0 .843.082 1.225.245.381.162.733.41 1.057.736v-.796.003h.001zM62.52 4.452c-.562 0-1.03.197-1.4.593-.372.395-.559.902-.559 1.521 0 .619.19 1.135.567 1.537a1.84 1.84 0 001.397.602c.554 0 1.046-.197 1.42-.593.377-.395.564-.913.564-1.555 0-.642-.188-1.135-.563-1.525-.377-.387-.85-.582-1.427-.582v.002h.001zM67.794 2.968h1.56v.909c.166-.358.393-.631.672-.816.28-.184.586-.278.919-.278.235 0 .482.061.74.185l-.566 1.556c-.215-.105-.388-.159-.526-.159-.28 0-.516.173-.71.518-.193.344-.29 1.02-.29 2.028l.007.352v2.916h-1.804V2.968h-.003.001zM79.468 7.098h-5.841c.083.514.31.92.675 1.224.366.301.834.453 1.404.453.68 0 1.263-.236 1.752-.71l1.533.717c-.382.538-.839.938-1.373 1.197-.534.259-1.166.388-1.9.388-1.136 0-2.061-.357-2.778-1.07-.714-.714-1.072-1.607-1.072-2.68 0-1.072.355-2.013 1.069-2.739.713-.725 1.607-1.09 2.681-1.09 1.14 0 2.069.365 2.784 1.09.714.728 1.072 1.686 1.072 2.878l-.006.345h-.003l.003-.003zm-1.82-1.425a1.818 1.818 0 00-.71-.98 2.071 2.071 0 00-1.231-.378c-.507 0-.951.142-1.335.424-.241.177-.464.489-.668.934h3.945zM81.342 8.29c.287 0 .536.101.74.302a.99.99 0 01.305.732c0 .286-.102.533-.306.735a1.013 1.013 0 01-.74.305c-.287 0-.535-.102-.739-.305a.998.998 0 01-.306-.735c0-.29.102-.53.306-.732.204-.2.452-.302.74-.302zM89.056 2.968h1.813v6.175c0 1.218-.246 2.115-.74 2.69C89.468 12.61 88.47 13 87.138 13c-.711 0-1.307-.087-1.793-.264a3.195 3.195 0 01-1.225-.779 3.182 3.182 0 01-.74-1.248h2.005c.178.203.405.357.686.462.28.104.612.155.993.155.488 0 .881-.076 1.18-.225.297-.151.506-.345.629-.583.122-.239.184-.65.184-1.232-.32.318-.656.547-1.005.686-.351.14-.747.21-1.193.21-.973 0-1.794-.349-2.464-1.048-.67-.698-1.005-1.581-1.005-2.65 0-1.144.355-2.064 1.065-2.758a3.188 3.188 0 012.304-.94c.418 0 .811.075 1.182.229.371.153.744.403 1.115.751v-.798zm-1.884 1.505c-.574 0-1.046.191-1.42.572-.373.383-.559.864-.559 1.442 0 .579.192 1.093.574 1.477.381.383.861.576 1.439.576.577 0 1.03-.187 1.394-.563.366-.376.55-.869.55-1.477 0-.608-.184-1.09-.554-1.465-.367-.376-.843-.563-1.424-.563v.001zM95.998 2.784c.683 0 1.326.171 1.928.51.602.341 1.072.801 1.41 1.386.336.583.505 1.213.505 1.89 0 .675-.17 1.315-.51 1.908a3.65 3.65 0 01-1.389 1.387c-.585.334-1.233.5-1.938.5a3.627 3.627 0 01-2.662-1.104c-.736-.735-1.103-1.627-1.103-2.679 0-1.127.416-2.066 1.246-2.817.728-.654 1.564-.98 2.511-.98L96 2.782l-.001.002zm.03 1.704c-.566 0-1.035.195-1.412.586-.376.391-.563.89-.563 1.502 0 .61.186 1.135.558 1.525.371.39.842.582 1.411.582.57 0 1.043-.196 1.42-.59.379-.394.568-.899.568-1.517 0-.62-.186-1.122-.558-1.507-.371-.386-.846-.581-1.424-.581zM100.023 2.968h1.853l1.831 4.255 1.827-4.255h1.843l-3.084 7.209h-1.179l-3.092-7.209h.003-.002zM107.667 11.924L112.09.091h1.309l-4.432 11.832h-1.3zM115.296.372h5.426v1.82h-3.564v1.78h2.316v1.793h-2.316v4.412h-1.862V.37v.001zM121.678 2.925h1.569v.913c.169-.36.396-.633.677-.82.28-.188.589-.28.925-.28.236 0 .485.062.743.187l-.569 1.567c-.215-.107-.391-.16-.53-.16-.281 0-.519.173-.713.52-.195.347-.292 1.027-.292 2.04l.007.353v2.933h-1.815V2.925h-.002zM131.877 2.925h1.829v7.253h-1.829v-.767c-.357.338-.715.581-1.075.73-.359.149-.748.223-1.168.223-.941 0-1.756-.363-2.442-1.09-.688-.726-1.031-1.63-1.031-2.709 0-1.079.332-2.037.997-2.753.665-.715 1.472-1.074 2.422-1.074.438 0 .849.082 1.231.247.385.165.739.41 1.064.74v-.8h.002zm-1.923 1.494c-.566 0-1.035.199-1.408.597-.374.397-.561.907-.561 1.53 0 .622.191 1.142.571 1.547.38.404.849.607 1.406.607.557 0 1.051-.199 1.43-.597.379-.398.567-.919.567-1.562 0-.644-.19-1.142-.567-1.533-.379-.391-.858-.586-1.436-.586l-.002-.003zM135.549 2.925h1.849v3.493c0 .68.047 1.151.141 1.417.094.264.245.47.453.616.208.145.464.22.77.22s.563-.073.776-.218a1.26 1.26 0 00.473-.637c.076-.209.114-.655.114-1.34V2.923h1.829v3.073c0 1.267-.1 2.134-.301 2.6-.246.57-.608 1.005-1.086 1.31-.479.305-1.086.457-1.823.457-.8 0-1.447-.178-1.94-.533-.494-.355-.84-.851-1.041-1.486-.143-.44-.214-1.24-.214-2.4v-3.02zM149.17.125H151v10.051h-1.83V9.41c-.356.338-.714.581-1.074.73a3.01 3.01 0 01-1.168.223c-.941 0-1.756-.362-2.442-1.09-.688-.726-1.031-1.63-1.031-2.708 0-1.08.332-2.037.997-2.754.665-.715 1.472-1.074 2.422-1.074.438 0 .849.082 1.231.247.385.166.739.411 1.064.74v-3.6l.001.002zm-1.922 4.292c-.566 0-1.035.2-1.409.597-.373.398-.56.907-.56 1.53s.191 1.143.571 1.547c.38.404.849.607 1.406.607.557 0 1.051-.199 1.43-.596.379-.398.567-.92.567-1.563 0-.644-.19-1.141-.567-1.533-.379-.391-.858-.586-1.437-.586l-.001-.003z" fill="#fff"/></svg>