<svg width="756" height="42" viewBox="0 0 756 42" fill="none" xmlns="http://www.w3.org/2000/svg"><path d="M19.104 21.36l-3.345-9.538-3.344 9.538h6.689zm1.976 5.662H10.44L8.73 32H.786L11.694 3.348h8.132L30.73 32H22.79l-1.71-4.978zm28.215-4.712c0-.608-.114-1.178-.343-1.71a3.898 3.898 0 00-.911-1.444 4.342 4.342 0 00-1.444-.95 4.014 4.014 0 00-1.748-.38c-.608 0-1.178.114-1.71.342-.533.228-1.001.545-1.407.95a5.29 5.29 0 00-.95 1.444 4.295 4.295 0 00-.341 1.71c0 .608.113 1.178.341 1.71.229.532.545 1 .95 1.406.406.38.874.697 1.407.95.557.228 1.14.342 1.747.342.608 0 1.178-.114 1.71-.342a4.023 4.023 0 001.369-.95c.405-.405.721-.874.95-1.406.253-.532.38-1.09.38-1.672zM40.63 41.728h-6.878V12.506h6.878v2.166c1.47-1.85 3.471-2.774 6.005-2.774 1.393 0 2.685.279 3.876.836a9.572 9.572 0 013.153 2.204 9.835 9.835 0 012.053 3.306c.506 1.267.76 2.622.76 4.066s-.254 2.787-.76 4.028a9.923 9.923 0 01-2.053 3.268 9.261 9.261 0 01-3.078 2.204c-1.19.532-2.482.798-3.875.798-2.432 0-4.46-.836-6.08-2.508v11.628zm19.767-29.222h6.878v3.192c.735-1.165 1.634-2.052 2.698-2.66 1.064-.633 2.305-.95 3.724-.95h.57c.228 0 .481.025.76.076v6.574a6.535 6.535 0 00-2.964-.684c-1.596 0-2.8.481-3.61 1.444-.785.937-1.178 2.318-1.178 4.142V32h-6.878V12.506zm32.174 6.916c-.228-.963-.697-1.735-1.406-2.318-.71-.583-1.57-.874-2.584-.874-1.064 0-1.938.279-2.622.836-.659.557-1.077 1.343-1.254 2.356h7.866zm-8.056 3.99c0 2.964 1.393 4.446 4.18 4.446 1.495 0 2.622-.608 3.382-1.824h6.65c-1.343 4.459-4.7 6.688-10.07 6.688-1.647 0-3.154-.24-4.522-.722-1.368-.507-2.546-1.216-3.534-2.128a9.524 9.524 0 01-2.242-3.268c-.532-1.267-.798-2.685-.798-4.256 0-1.621.253-3.078.76-4.37.507-1.317 1.228-2.432 2.166-3.344.937-.912 2.065-1.609 3.382-2.09 1.343-.507 2.85-.76 4.522-.76 1.646 0 3.128.253 4.446.76 1.317.481 2.432 1.19 3.344 2.128.912.937 1.609 2.09 2.09 3.458.481 1.343.722 2.863.722 4.56v.722H84.515zm18.409-10.906h6.878v2.47c.938-1.14 1.888-1.9 2.85-2.28.963-.405 2.09-.608 3.382-.608 1.368 0 2.534.228 3.496.684a6.779 6.779 0 012.508 1.862 5.389 5.389 0 011.14 2.204c.203.81.304 1.735.304 2.774V32h-6.878v-9.842c0-.963-.076-1.735-.228-2.318-.126-.608-.367-1.09-.722-1.444a2.607 2.607 0 00-1.026-.646 3.818 3.818 0 00-1.216-.19c-1.165 0-2.064.355-2.698 1.064-.608.684-.912 1.672-.912 2.964V32h-6.878V12.506zm31.619 9.69c0 .633.114 1.229.342 1.786.228.532.532 1 .912 1.406.405.405.874.722 1.406.95a4.667 4.667 0 001.786.342c.608 0 1.178-.114 1.71-.342a3.946 3.946 0 001.406-.95c.405-.405.722-.874.95-1.406.253-.532.38-1.102.38-1.71 0-.608-.127-1.178-.38-1.71a4.346 4.346 0 00-.95-1.444 3.946 3.946 0 00-1.406-.95 4.295 4.295 0 00-1.71-.342c-.608 0-1.191.114-1.748.342a4.443 4.443 0 00-1.406.95 5.48 5.48 0 00-.95 1.406 4.028 4.028 0 00-.342 1.672zM143.207.46h6.916V32h-6.916v-2.166c-1.47 1.85-3.458 2.774-5.966 2.774-1.419 0-2.724-.266-3.914-.798a9.672 9.672 0 01-3.116-2.204 10.33 10.33 0 01-2.09-3.306c-.482-1.267-.722-2.635-.722-4.104 0-1.393.228-2.71.684-3.952.481-1.267 1.152-2.369 2.014-3.306a9.255 9.255 0 013.078-2.204c1.216-.557 2.546-.836 3.99-.836 2.432 0 4.446.849 6.042 2.546V.46zm25.846 18.962c-.228-.963-.696-1.735-1.406-2.318-.709-.583-1.57-.874-2.584-.874-1.064 0-1.938.279-2.622.836-.658.557-1.076 1.343-1.254 2.356h7.866zm-8.056 3.99c0 2.964 1.394 4.446 4.18 4.446 1.495 0 2.622-.608 3.382-1.824h6.65c-1.342 4.459-4.699 6.688-10.07 6.688-1.646 0-3.154-.24-4.522-.722-1.368-.507-2.546-1.216-3.534-2.128a9.533 9.533 0 01-2.242-3.268c-.532-1.267-.798-2.685-.798-4.256 0-1.621.254-3.078.76-4.37.507-1.317 1.229-2.432 2.166-3.344.938-.912 2.065-1.609 3.382-2.09 1.343-.507 2.85-.76 4.522-.76 1.647 0 3.129.253 4.446.76 1.318.481 2.432 1.19 3.344 2.128.912.937 1.609 2.09 2.09 3.458.482 1.343.722 2.863.722 4.56v.722h-14.478zm44.244-5.89c-1.267-.659-2.508-.988-3.724-.988-.633 0-1.153.127-1.558.38-.38.253-.57.595-.57 1.026 0 .228.025.418.076.57.076.127.215.253.418.38.228.127.545.24.95.342.431.101.988.228 1.672.38 1.9.38 3.319 1.064 4.256 2.052.937.963 1.406 2.204 1.406 3.724 0 1.14-.228 2.166-.684 3.078a6.72 6.72 0 01-1.9 2.318c-.811.608-1.786 1.077-2.926 1.406-1.14.355-2.394.532-3.762.532-2.635 0-5.231-.747-7.79-2.242l2.508-4.864c1.925 1.317 3.749 1.976 5.472 1.976.633 0 1.153-.14 1.558-.418.405-.279.608-.633.608-1.064 0-.253-.038-.456-.114-.608-.051-.177-.177-.33-.38-.456-.203-.152-.507-.279-.912-.38-.38-.127-.887-.253-1.52-.38-2.128-.43-3.623-1.064-4.484-1.9-.836-.861-1.254-2.04-1.254-3.534 0-1.09.203-2.065.608-2.926a6.054 6.054 0 011.748-2.242c.76-.608 1.672-1.077 2.736-1.406 1.089-.33 2.293-.494 3.61-.494 2.153 0 4.243.418 6.27 1.254l-2.318 4.484zm12.912 4.636c0 .659.114 1.267.342 1.824.253.532.57 1 .95 1.406.405.405.874.722 1.406.95.557.228 1.14.342 1.748.342.608 0 1.178-.114 1.71-.342a3.946 3.946 0 001.406-.95c.405-.405.722-.874.95-1.406a4.27 4.27 0 00.38-1.786c0-.608-.127-1.178-.38-1.71a4.346 4.346 0 00-.95-1.444 3.946 3.946 0 00-1.406-.95 4.295 4.295 0 00-1.71-.342c-.608 0-1.191.114-1.748.342a4.443 4.443 0 00-1.406.95 5.48 5.48 0 00-.95 1.406 4.295 4.295 0 00-.342 1.71zm-7.258-.076c0-1.444.291-2.787.874-4.028a9.672 9.672 0 012.432-3.268c1.038-.937 2.267-1.672 3.686-2.204 1.444-.532 3.014-.798 4.712-.798 1.672 0 3.217.266 4.636.798 1.444.507 2.685 1.229 3.724 2.166a9.379 9.379 0 012.47 3.306c.582 1.267.874 2.673.874 4.218s-.304 2.964-.912 4.256a10.101 10.101 0 01-2.432 3.306c-1.039.912-2.293 1.621-3.762 2.128-1.444.507-3.015.76-4.712.76-1.672 0-3.218-.253-4.636-.76-1.419-.507-2.648-1.229-3.686-2.166a10.213 10.213 0 01-2.394-3.344c-.583-1.317-.874-2.774-.874-4.37zm42.909.228c0-.608-.114-1.178-.342-1.71a4.33 4.33 0 00-.95-1.444 4.443 4.443 0 00-1.406-.95 4.011 4.011 0 00-1.748-.38c-.608 0-1.178.114-1.71.342-.532.228-1 .545-1.406.95-.38.405-.696.887-.95 1.444a4.295 4.295 0 00-.342 1.71c0 .608.114 1.178.342 1.71.228.532.545 1 .95 1.406a5.5 5.5 0 001.406.95c.558.228 1.14.342 1.748.342.608 0 1.178-.114 1.71-.342a4.023 4.023 0 001.368-.95c.406-.405.722-.874.95-1.406.254-.532.38-1.09.38-1.672zM245.14.46v13.984c1.622-1.697 3.648-2.546 6.08-2.546 1.444 0 2.762.279 3.952.836 1.216.532 2.242 1.267 3.078 2.204.862.912 1.533 2.001 2.014 3.268.482 1.241.722 2.571.722 3.99 0 1.444-.253 2.8-.76 4.066a9.826 9.826 0 01-2.052 3.306 10.058 10.058 0 01-3.154 2.242c-1.19.532-2.482.798-3.876.798-2.533 0-4.534-.925-6.004-2.774V32h-6.878V.46h6.878zm19.767 12.046h6.878v3.192c.734-1.165 1.634-2.052 2.698-2.66 1.064-.633 2.305-.95 3.724-.95h.57c.228 0 .481.025.76.076v6.574a6.535 6.535 0 00-2.964-.684c-1.596 0-2.8.481-3.61 1.444-.786.937-1.178 2.318-1.178 4.142V32h-6.878V12.506zm32.174 6.916c-.228-.963-.697-1.735-1.406-2.318-.71-.583-1.571-.874-2.584-.874-1.064 0-1.938.279-2.622.836-.659.557-1.077 1.343-1.254 2.356h7.866zm-8.056 3.99c0 2.964 1.393 4.446 4.18 4.446 1.494 0 2.622-.608 3.382-1.824h6.65c-1.343 4.459-4.7 6.688-10.07 6.688-1.647 0-3.154-.24-4.522-.722-1.368-.507-2.546-1.216-3.534-2.128a9.519 9.519 0 01-2.242-3.268c-.532-1.267-.798-2.685-.798-4.256 0-1.621.253-3.078.76-4.37.506-1.317 1.228-2.432 2.166-3.344.937-.912 2.064-1.609 3.382-2.09 1.342-.507 2.85-.76 4.522-.76 1.646 0 3.128.253 4.446.76 1.317.481 2.432 1.19 3.344 2.128.912.937 1.608 2.09 2.09 3.458.481 1.343.722 2.863.722 4.56v.722h-14.478zm45.573-3.99c-.228-.963-.696-1.735-1.406-2.318-.709-.583-1.57-.874-2.584-.874-1.064 0-1.938.279-2.622.836-.658.557-1.076 1.343-1.254 2.356h7.866zm-8.056 3.99c0 2.964 1.394 4.446 4.18 4.446 1.495 0 2.622-.608 3.382-1.824h6.65c-1.342 4.459-4.699 6.688-10.07 6.688-1.646 0-3.154-.24-4.522-.722-1.368-.507-2.546-1.216-3.534-2.128a9.533 9.533 0 01-2.242-3.268c-.532-1.267-.798-2.685-.798-4.256 0-1.621.254-3.078.76-4.37.507-1.317 1.229-2.432 2.166-3.344.938-.912 2.065-1.609 3.382-2.09 1.343-.507 2.85-.76 4.522-.76 1.647 0 3.129.253 4.446.76 1.318.481 2.432 1.19 3.344 2.128.912.937 1.609 2.09 2.09 3.458.482 1.343.722 2.863.722 4.56v.722h-14.478zM351.83.46V32h-6.878V.46h6.878zm25.062 17.784V32h-6.878V18.244h-2.47v-5.738h2.47V9.58c0-1.621.152-2.913.456-3.876a6.68 6.68 0 011.216-2.242 8.808 8.808 0 011.938-1.824c.76-.507 1.571-.9 2.432-1.178a8.237 8.237 0 012.546-.418c.583 0 1.115.063 1.596.19a9.054 9.054 0 011.52.532v6.004a6.374 6.374 0 00-1.292-.494 3.82 3.82 0 00-1.216-.19c-.279 0-.57.05-.874.152-.279.076-.545.253-.798.532s-.431.684-.532 1.216c-.076.507-.114 1.203-.114 2.09v2.432h4.826v5.738h-4.826zm7.396-5.738h6.878v3.192c.734-1.165 1.634-2.052 2.698-2.66 1.064-.633 2.305-.95 3.724-.95h.57c.228 0 .481.025.76.076v6.574a6.535 6.535 0 00-2.964-.684c-1.596 0-2.8.481-3.61 1.444-.786.937-1.178 2.318-1.178 4.142V32h-6.878V12.506zm24.307 9.69c0 .633.114 1.229.342 1.786.228.532.532 1 .912 1.406.406.405.874.722 1.406.95a4.675 4.675 0 001.786.342c.608 0 1.178-.114 1.71-.342a3.937 3.937 0 001.406-.95c.406-.405.722-.874.95-1.406.254-.532.38-1.102.38-1.71 0-.608-.126-1.178-.38-1.71a4.33 4.33 0 00-.95-1.444 3.937 3.937 0 00-1.406-.95 4.295 4.295 0 00-1.71-.342c-.633 0-1.228.114-1.786.342-.532.228-1 .545-1.406.95-.38.405-.684.874-.912 1.406a4.028 4.028 0 00-.342 1.672zm8.664-9.69h6.916V32h-6.916v-2.166c-1.469 1.85-3.458 2.774-5.966 2.774-1.418 0-2.723-.253-3.914-.76a9.694 9.694 0 01-3.116-2.204 10.364 10.364 0 01-2.09-3.306c-.481-1.267-.722-2.647-.722-4.142 0-1.393.241-2.71.722-3.952.482-1.267 1.153-2.369 2.014-3.306a9.276 9.276 0 013.078-2.204c1.191-.557 2.508-.836 3.952-.836 2.432 0 4.446.849 6.042 2.546v-1.938zm18.475 0v10.982c0 2.407 1.165 3.61 3.496 3.61s3.496-1.203 3.496-3.61V12.506h6.878v12.312c0 2.635-.874 4.61-2.622 5.928-1.723 1.317-4.307 1.976-7.752 1.976-3.445 0-6.042-.659-7.79-1.976-1.723-1.317-2.584-3.293-2.584-5.928V12.506h6.878zm24.926 9.69c0 .633.114 1.229.342 1.786.228.532.532 1 .912 1.406.405.405.874.722 1.406.95a4.67 4.67 0 001.786.342c.608 0 1.178-.114 1.71-.342a3.946 3.946 0 001.406-.95c.405-.405.722-.874.95-1.406.253-.532.38-1.102.38-1.71 0-.608-.127-1.178-.38-1.71a4.346 4.346 0 00-.95-1.444 3.946 3.946 0 00-1.406-.95 4.295 4.295 0 00-1.71-.342c-.608 0-1.191.114-1.748.342a4.443 4.443 0 00-1.406.95 5.48 5.48 0 00-.95 1.406 4.028 4.028 0 00-.342 1.672zM469.324.46h6.916V32h-6.916v-2.166c-1.469 1.85-3.458 2.774-5.966 2.774-1.419 0-2.723-.266-3.914-.798a9.683 9.683 0 01-3.116-2.204 10.347 10.347 0 01-2.09-3.306c-.481-1.267-.722-2.635-.722-4.104 0-1.393.228-2.71.684-3.952a10.164 10.164 0 012.014-3.306 9.255 9.255 0 013.078-2.204c1.216-.557 2.546-.836 3.99-.836 2.432 0 4.446.849 6.042 2.546V.46zm25.846 18.962c-.228-.963-.696-1.735-1.406-2.318-.709-.583-1.57-.874-2.584-.874-1.064 0-1.938.279-2.622.836-.658.557-1.076 1.343-1.254 2.356h7.866zm-8.056 3.99c0 2.964 1.394 4.446 4.18 4.446 1.495 0 2.622-.608 3.382-1.824h6.65c-1.342 4.459-4.699 6.688-10.07 6.688-1.646 0-3.154-.24-4.522-.722-1.368-.507-2.546-1.216-3.534-2.128a9.533 9.533 0 01-2.242-3.268c-.532-1.267-.798-2.685-.798-4.256 0-1.621.254-3.078.76-4.37.507-1.317 1.229-2.432 2.166-3.344.938-.912 2.065-1.609 3.382-2.09 1.343-.507 2.85-.76 4.522-.76 1.647 0 3.129.253 4.446.76 1.318.481 2.432 1.19 3.344 2.128.912.937 1.609 2.09 2.09 3.458.482 1.343.722 2.863.722 4.56v.722h-14.478zm37.708-1.216c0 .633.114 1.229.342 1.786.228.532.532 1 .912 1.406.405.405.874.722 1.406.95a4.67 4.67 0 001.786.342c.608 0 1.178-.114 1.71-.342a3.946 3.946 0 001.406-.95c.405-.405.722-.874.95-1.406.253-.532.38-1.102.38-1.71 0-.608-.127-1.178-.38-1.71a4.346 4.346 0 00-.95-1.444 3.946 3.946 0 00-1.406-.95 4.295 4.295 0 00-1.71-.342 4.67 4.67 0 00-1.786.342 4.443 4.443 0 00-1.406.95c-.38.405-.684.874-.912 1.406a4.028 4.028 0 00-.342 1.672zm8.664-9.69h6.916V32h-6.916v-2.166c-1.469 1.85-3.458 2.774-5.966 2.774-1.419 0-2.723-.253-3.914-.76a9.683 9.683 0 01-3.116-2.204 10.347 10.347 0 01-2.09-3.306c-.481-1.267-.722-2.647-.722-4.142 0-1.393.241-2.71.722-3.952a10.164 10.164 0 012.014-3.306 9.255 9.255 0 013.078-2.204c1.191-.557 2.508-.836 3.952-.836 2.432 0 4.446.849 6.042 2.546v-1.938zM557.351 32l4.864-28.652h7.372l5.738 15.276 5.7-15.276h7.372L593.261 32h-7.41l-2.47-16.492L576.617 32h-2.964l-6.422-16.492L564.761 32h-7.41zm53.193-12.578c-.228-.963-.697-1.735-1.406-2.318-.71-.583-1.571-.874-2.584-.874-1.064 0-1.938.279-2.622.836-.659.557-1.077 1.343-1.254 2.356h7.866zm-8.056 3.99c0 2.964 1.393 4.446 4.18 4.446 1.494 0 2.622-.608 3.382-1.824h6.65c-1.343 4.459-4.7 6.688-10.07 6.688-1.647 0-3.154-.24-4.522-.722-1.368-.507-2.546-1.216-3.534-2.128a9.519 9.519 0 01-2.242-3.268c-.532-1.267-.798-2.685-.798-4.256 0-1.621.253-3.078.76-4.37.506-1.317 1.228-2.432 2.166-3.344.937-.912 2.064-1.609 3.382-2.09 1.342-.507 2.85-.76 4.522-.76 1.646 0 3.128.253 4.446.76 1.317.481 2.432 1.19 3.344 2.128.912.937 1.608 2.09 2.09 3.458.481 1.343.722 2.863.722 4.56v.722h-14.478zm24.793-1.216c0 .633.114 1.229.342 1.786.228.532.532 1 .912 1.406.405.405.874.722 1.406.95a4.67 4.67 0 001.786.342c.608 0 1.178-.114 1.71-.342a3.946 3.946 0 001.406-.95c.405-.405.722-.874.95-1.406.253-.532.38-1.102.38-1.71 0-.608-.127-1.178-.38-1.71a4.346 4.346 0 00-.95-1.444 3.946 3.946 0 00-1.406-.95 4.295 4.295 0 00-1.71-.342c-.608 0-1.191.114-1.748.342a4.443 4.443 0 00-1.406.95 5.48 5.48 0 00-.95 1.406 4.028 4.028 0 00-.342 1.672zM635.945.46h6.916V32h-6.916v-2.166c-1.469 1.85-3.458 2.774-5.966 2.774-1.419 0-2.723-.266-3.914-.798a9.683 9.683 0 01-3.116-2.204 10.347 10.347 0 01-2.09-3.306c-.481-1.267-.722-2.635-.722-4.104 0-1.393.228-2.71.684-3.952a10.164 10.164 0 012.014-3.306 9.255 9.255 0 013.078-2.204c1.216-.557 2.546-.836 3.99-.836 2.432 0 4.446.849 6.042 2.546V.46zm18.475 12.046V32h-6.878V12.506h6.878zm-7.334-7.486c0-.532.101-1.026.304-1.482.202-.481.481-.9.836-1.254a4 4 0 011.216-.836 3.876 3.876 0 011.52-.304c.532 0 1.026.101 1.482.304.481.203.899.481 1.254.836.354.355.633.773.836 1.254.202.456.304.95.304 1.482a3.89 3.89 0 01-.304 1.52 4.026 4.026 0 01-.836 1.216 3.892 3.892 0 01-1.254.836c-.456.203-.95.304-1.482.304a3.876 3.876 0 01-1.52-.304 4 4 0 01-1.216-.836 3.99 3.99 0 01-.836-1.216 3.871 3.871 0 01-.304-1.52zm26.74 13.794c-1.191-.81-2.394-1.216-3.61-1.216a5.06 5.06 0 00-1.862.342 4.457 4.457 0 00-1.482.988c-.431.405-.773.9-1.026 1.482-.228.557-.342 1.19-.342 1.9 0 .684.114 1.317.342 1.9a5.39 5.39 0 00.988 1.482c.43.405.937.722 1.52.95a5.06 5.06 0 001.862.342c1.292 0 2.495-.443 3.61-1.33v5.852c-1.698.735-3.306 1.102-4.826 1.102-1.419 0-2.774-.24-4.066-.722a10.709 10.709 0 01-3.382-2.052 10.598 10.598 0 01-2.318-3.23c-.583-1.267-.874-2.673-.874-4.218s.278-2.951.836-4.218c.557-1.292 1.317-2.394 2.28-3.306a9.958 9.958 0 013.42-2.166 11.547 11.547 0 014.294-.798c1.672 0 3.217.355 4.636 1.064v5.852zm10.307 3.382c0 .633.114 1.229.342 1.786.228.532.532 1 .912 1.406.405.405.874.722 1.406.95a4.667 4.667 0 001.786.342c.608 0 1.178-.114 1.71-.342a3.946 3.946 0 001.406-.95c.405-.405.722-.874.95-1.406.253-.532.38-1.102.38-1.71 0-.608-.127-1.178-.38-1.71a4.346 4.346 0 00-.95-1.444 3.946 3.946 0 00-1.406-.95 4.295 4.295 0 00-1.71-.342c-.634 0-1.229.114-1.786.342a4.443 4.443 0 00-1.406.95c-.38.405-.684.874-.912 1.406a4.028 4.028 0 00-.342 1.672zm8.664-9.69h6.916V32h-6.916v-2.166c-1.47 1.85-3.458 2.774-5.966 2.774-1.419 0-2.724-.253-3.914-.76a9.672 9.672 0 01-3.116-2.204 10.33 10.33 0 01-2.09-3.306c-.482-1.267-.722-2.647-.722-4.142 0-1.393.24-2.71.722-3.952.481-1.267 1.152-2.369 2.014-3.306a9.255 9.255 0 013.078-2.204c1.19-.557 2.508-.836 3.952-.836 2.432 0 4.446.849 6.042 2.546v-1.938zm11.596 0h6.878v3.192c.735-1.165 1.634-2.052 2.698-2.66 1.064-.633 2.305-.95 3.724-.95h.57c.228 0 .481.025.76.076v6.574a6.535 6.535 0 00-2.964-.684c-1.596 0-2.799.481-3.61 1.444-.785.937-1.178 2.318-1.178 4.142V32h-6.878V12.506zm32.174 6.916c-.228-.963-.697-1.735-1.406-2.318s-1.571-.874-2.584-.874c-1.064 0-1.938.279-2.622.836-.659.557-1.077 1.343-1.254 2.356h7.866zm-8.056 3.99c0 2.964 1.393 4.446 4.18 4.446 1.495 0 2.622-.608 3.382-1.824h6.65c-1.343 4.459-4.699 6.688-10.07 6.688-1.647 0-3.154-.24-4.522-.722-1.368-.507-2.546-1.216-3.534-2.128a9.519 9.519 0 01-2.242-3.268c-.532-1.267-.798-2.685-.798-4.256 0-1.621.253-3.078.76-4.37.507-1.317 1.229-2.432 2.166-3.344.937-.912 2.065-1.609 3.382-2.09 1.343-.507 2.85-.76 4.522-.76 1.647 0 3.129.253 4.446.76 1.317.481 2.432 1.19 3.344 2.128.912.937 1.609 2.09 2.09 3.458.481 1.343.722 2.863.722 4.56v.722h-14.478zm18.067 4.94c0-.608.114-1.178.342-1.71a4.346 4.346 0 01.95-1.444 4.455 4.455 0 011.406-.95 4.575 4.575 0 011.748-.342c.608 0 1.178.114 1.71.342a4.331 4.331 0 011.444.95c.406.405.722.887.95 1.444.228.532.342 1.102.342 1.71 0 .608-.114 1.19-.342 1.748-.228.532-.544 1-.95 1.406a4.331 4.331 0 01-1.444.95 4.295 4.295 0 01-1.71.342c-.608 0-1.19-.114-1.748-.342a4.455 4.455 0 01-2.356-2.356 4.573 4.573 0 01-.342-1.748z" fill="#fff"/></svg>