<svg width="613" height="34" viewBox="0 0 613 34" fill="none" xmlns="http://www.w3.org/2000/svg"><path d="M15.015 5.11l-2.861 1.696c-.535-.929-1.045-1.534-1.529-1.817-.505-.323-1.155-.484-1.953-.484-.978 0-1.79.277-2.437.832-.645.545-.968 1.232-.968 2.059 0 1.14.847 2.059 2.543 2.755l2.33.954c1.898.766 3.285 1.705 4.163 2.815.878 1.1 1.317 2.452 1.317 4.057 0 2.149-.716 3.925-2.15 5.328-1.442 1.412-3.234 2.119-5.373 2.119-2.028 0-3.703-.6-5.025-1.801C1.77 22.422.958 20.73.635 18.552l3.572-.787c.161 1.372.444 2.32.848 2.845.726 1.01 1.786 1.514 3.178 1.514 1.1 0 2.014-.368 2.74-1.105.727-.737 1.09-1.67 1.09-2.8 0-.454-.066-.868-.197-1.242a2.913 2.913 0 00-.59-1.044 4.32 4.32 0 00-1.03-.893 9.553 9.553 0 00-1.513-.802l-2.255-.939c-3.2-1.352-4.799-3.33-4.799-5.933 0-1.756.671-3.224 2.013-4.405 1.343-1.19 3.013-1.786 5.01-1.786 2.695 0 4.799 1.312 6.313 3.935zm7.613 5.147V25h-3.405V10.257h3.405zm-3.92-6.13c0-.596.217-1.11.65-1.544.435-.434.954-.651 1.56-.651.616 0 1.14.217 1.574.65.434.424.651.944.651 1.56 0 .615-.217 1.14-.65 1.574-.425.434-.944.65-1.56.65-.616 0-1.14-.216-1.574-.65a2.162 2.162 0 01-.651-1.59zm21.66 14.304H29.804c.091 1.21.485 2.174 1.18 2.89.697.707 1.59 1.06 2.68 1.06.848 0 1.55-.201 2.104-.605.545-.404 1.166-1.15 1.862-2.24l2.876 1.604a11.724 11.724 0 01-1.408 1.953 7.799 7.799 0 01-1.59 1.332 6.499 6.499 0 01-1.83.757 8.915 8.915 0 01-2.135.242c-2.2 0-3.966-.707-5.298-2.12-1.332-1.422-1.998-3.31-1.998-5.66 0-2.331.646-4.218 1.938-5.662 1.301-1.422 3.027-2.134 5.176-2.134 2.17 0 3.885.691 5.147 2.074 1.251 1.372 1.877 3.274 1.877 5.706l-.015.803zm-3.496-2.786c-.474-1.816-1.62-2.724-3.436-2.724-.414 0-.802.066-1.166.197a3.215 3.215 0 00-.999.545 3.4 3.4 0 00-.756.847 3.975 3.975 0 00-.485 1.136h6.842zm7.235-5.388h3.406v1.362c.656-.686 1.216-1.15 1.68-1.392.495-.253 1.115-.379 1.862-.379 1.665 0 2.982.727 3.95 2.18 1.07-1.453 2.519-2.18 4.345-2.18 3.32 0 4.98 2.013 4.98 6.04V25h-3.42v-8.189c0-1.413-.172-2.412-.515-2.997-.354-.595-.934-.893-1.741-.893-.939 0-1.625.353-2.059 1.06-.424.706-.636 1.841-.636 3.405V25h-3.42v-8.144c0-2.623-.757-3.935-2.27-3.935-.96 0-1.66.358-2.105 1.075-.434.716-.65 1.846-.65 3.39V25h-3.407V10.257zm28.321 22.766h-3.406V10.257h3.406v1.604C73.77 10.52 75.294 9.848 77 9.848c2.028 0 3.698.747 5.01 2.24 1.332 1.484 1.998 3.356 1.998 5.616 0 2.21-.661 4.052-1.983 5.525-1.312 1.463-2.967 2.195-4.965 2.195-1.725 0-3.27-.691-4.632-2.074v9.672zm8.098-15.304c0-1.413-.383-2.563-1.15-3.45-.777-.899-1.756-1.348-2.937-1.348-1.25 0-2.265.434-3.042 1.302-.777.867-1.166 2.008-1.166 3.42 0 1.383.389 2.523 1.166 3.421.767.878 1.776 1.317 3.027 1.317 1.181 0 2.155-.444 2.922-1.332.787-.888 1.18-1.998 1.18-3.33zm7.084-7.462h3.406v1.317c.626-.656 1.18-1.105 1.665-1.347.495-.253 1.08-.379 1.756-.379.898 0 1.837.293 2.815.878l-1.559 3.118c-.645-.464-1.276-.696-1.892-.696-1.856 0-2.785 1.403-2.785 4.208V25H87.61V10.257zm24.809 8.174h-10.565c.091 1.21.484 2.174 1.181 2.89.696.707 1.589 1.06 2.679 1.06.848 0 1.549-.201 2.104-.605.545-.404 1.165-1.15 1.862-2.24l2.876 1.604a11.748 11.748 0 01-1.408 1.953 7.813 7.813 0 01-1.589 1.332 6.512 6.512 0 01-1.832.757 8.911 8.911 0 01-2.134.242c-2.2 0-3.966-.707-5.298-2.12-1.332-1.422-1.998-3.31-1.998-5.66 0-2.331.646-4.218 1.937-5.662 1.302-1.422 3.028-2.134 5.177-2.134 2.17 0 3.885.691 5.147 2.074 1.251 1.372 1.877 3.274 1.877 5.706l-.016.803zm-3.496-2.786c-.474-1.816-1.62-2.724-3.436-2.724a3.41 3.41 0 00-1.166.197 3.222 3.222 0 00-.999.545 3.415 3.415 0 00-.757.847 4 4 0 00-.484 1.136h6.842zm16.802-5.388h3.405v1.317c.626-.656 1.181-1.105 1.665-1.347.495-.253 1.08-.379 1.756-.379.898 0 1.837.293 2.816.878l-1.559 3.118c-.646-.464-1.277-.696-1.892-.696-1.857 0-2.786 1.403-2.786 4.208V25h-3.405V10.257zm24.809 8.174h-10.566c.091 1.21.485 2.174 1.181 2.89.696.707 1.589 1.06 2.679 1.06.848 0 1.549-.201 2.104-.605.545-.404 1.166-1.15 1.862-2.24l2.876 1.604a11.69 11.69 0 01-1.408 1.953 7.786 7.786 0 01-1.589 1.332 6.5 6.5 0 01-1.832.757 8.911 8.911 0 01-2.134.242c-2.2 0-3.966-.707-5.298-2.12-1.332-1.422-1.998-3.31-1.998-5.66 0-2.331.646-4.218 1.938-5.662 1.301-1.422 3.027-2.134 5.176-2.134 2.17 0 3.885.691 5.147 2.074 1.251 1.372 1.877 3.274 1.877 5.706l-.015.803zm-3.497-2.786c-.474-1.816-1.62-2.724-3.436-2.724a3.4 3.4 0 00-1.165.197 3.2 3.2 0 00-.999.545 3.395 3.395 0 00-.757.847 3.973 3.973 0 00-.485 1.136h6.842zm8.522-5.388l3.815 8.28 3.799-8.28h3.829l-7.659 15.757-7.598-15.757h3.814zm17.165 0V25h-3.406V10.257h3.406zm-3.92-6.13c0-.596.217-1.11.651-1.544.434-.434.953-.651 1.559-.651.615 0 1.14.217 1.574.65.434.424.651.944.651 1.56 0 .615-.217 1.14-.651 1.574-.424.434-.944.65-1.559.65-.616 0-1.14-.216-1.574-.65a2.162 2.162 0 01-.651-1.59zm16.801 8.643l-2.815 1.498c-.444-.908-.994-1.362-1.65-1.362-.313 0-.58.106-.802.318a1.014 1.014 0 00-.333.787c0 .565.656 1.125 1.968 1.68 1.806.777 3.022 1.493 3.648 2.15.625.655.938 1.538.938 2.648 0 1.423-.525 2.614-1.574 3.572-1.019.909-2.25 1.363-3.693 1.363-2.473 0-4.224-1.206-5.253-3.618l2.906-1.347c.404.706.712 1.155.924 1.347.413.384.908.575 1.483.575 1.15 0 1.726-.524 1.726-1.574 0-.605-.444-1.17-1.332-1.695a48.547 48.547 0 00-1.03-.5 94.893 94.893 0 01-1.044-.5c-.989-.484-1.685-.968-2.089-1.452-.515-.616-.772-1.408-.772-2.377 0-1.281.439-2.34 1.317-3.178.898-.838 1.988-1.257 3.269-1.257 1.888 0 3.29.974 4.208 2.921zm14.895-2.513h3.421V25H200.5v-1.544c-1.403 1.312-2.911 1.968-4.526 1.968-2.038 0-3.724-.737-5.056-2.21-1.321-1.504-1.982-3.38-1.982-5.631 0-2.21.661-4.052 1.982-5.525 1.322-1.473 2.977-2.21 4.965-2.21 1.716 0 3.255.707 4.617 2.12v-1.711zm-8.083 7.326c0 1.413.378 2.563 1.135 3.451.777.898 1.756 1.347 2.937 1.347 1.261 0 2.28-.434 3.057-1.301.777-.898 1.166-2.039 1.166-3.421 0-1.383-.389-2.523-1.166-3.421-.777-.878-1.786-1.317-3.027-1.317-1.171 0-2.149.444-2.936 1.332-.777.898-1.166 2.008-1.166 3.33zm29.333-3.081V25h-5.249V14.502h-1.74v-4.379h1.74V5.657h5.249v4.466h2.987v4.379h-2.987zm10.209-4.379v8.381c0 1.837.889 2.755 2.668 2.755 1.779 0 2.668-.918 2.668-2.755v-8.381h5.249v9.396c0 2.01-.667 3.519-2.001 4.524-1.315 1.005-3.287 1.508-5.916 1.508-2.629 0-4.611-.503-5.945-1.508-1.315-1.005-1.972-2.513-1.972-4.524v-9.396h5.249zm24.011 3.828c-.967-.503-1.914-.754-2.842-.754-.484 0-.88.097-1.189.29-.29.193-.435.454-.435.783 0 .174.019.319.058.435a.947.947 0 00.319.29c.174.097.415.184.725.261.328.077.754.174 1.276.29 1.45.29 2.532.812 3.248 1.566.715.735 1.073 1.682 1.073 2.842 0 .87-.174 1.653-.522 2.349a5.14 5.14 0 01-1.45 1.769c-.619.464-1.363.822-2.233 1.073-.87.27-1.827.406-2.871.406-2.011 0-3.993-.57-5.945-1.711l1.914-3.712c1.469 1.005 2.861 1.508 4.176 1.508.483 0 .879-.106 1.189-.319.309-.213.464-.483.464-.812 0-.193-.029-.348-.087-.464-.039-.135-.136-.251-.29-.348-.155-.116-.387-.213-.696-.29a10.05 10.05 0 00-1.16-.29c-1.624-.329-2.765-.812-3.422-1.45-.638-.657-.957-1.556-.957-2.697 0-.831.154-1.576.464-2.233a4.62 4.62 0 011.334-1.711c.58-.464 1.276-.822 2.088-1.073.831-.251 1.749-.377 2.755-.377 1.643 0 3.238.319 4.785.957l-1.769 3.422zm20.434.551V25h-5.249V14.502h-1.885v-4.379h1.885V7.89c0-1.237.116-2.223.348-2.958a5.098 5.098 0 01.928-1.711 6.719 6.719 0 011.479-1.392 7.49 7.49 0 011.856-.899 6.286 6.286 0 011.943-.319c.445 0 .851.048 1.218.145a6.91 6.91 0 011.16.406v4.582a4.866 4.866 0 00-.986-.377 2.914 2.914 0 00-.928-.145c-.213 0-.435.039-.667.116-.213.058-.416.193-.609.406-.193.213-.329.522-.406.928-.058.387-.087.918-.087 1.595v1.856h3.683v4.379h-3.683zm10.828 3.016c0 .483.087.938.261 1.363.174.406.406.764.696 1.073.309.31.667.551 1.073.725a3.56 3.56 0 001.363.261c.464 0 .899-.087 1.305-.261a3.012 3.012 0 001.073-.725c.309-.31.551-.667.725-1.073.193-.406.29-.841.29-1.305 0-.464-.097-.899-.29-1.305a3.318 3.318 0 00-.725-1.102 3.012 3.012 0 00-1.073-.725 3.278 3.278 0 00-1.305-.261 3.56 3.56 0 00-1.363.261 3.39 3.39 0 00-1.073.725c-.29.31-.522.667-.696 1.073a3.074 3.074 0 00-.261 1.276zm6.612-7.395h5.278V25h-5.278v-1.653c-1.122 1.411-2.639 2.117-4.553 2.117-1.083 0-2.079-.193-2.987-.58a7.379 7.379 0 01-2.378-1.682 7.879 7.879 0 01-1.595-2.523c-.368-.967-.551-2.02-.551-3.161 0-1.063.183-2.069.551-3.016a7.74 7.74 0 011.537-2.523 7.062 7.062 0 012.349-1.682c.908-.425 1.914-.638 3.016-.638 1.856 0 3.393.648 4.611 1.943v-1.479zm20.073 4.814c-.909-.619-1.827-.928-2.755-.928a3.86 3.86 0 00-1.421.261 3.398 3.398 0 00-1.131.754c-.329.31-.59.686-.783 1.131a3.802 3.802 0 00-.261 1.45c0 .522.087 1.005.261 1.45.193.425.444.802.754 1.131.328.31.715.551 1.16.725a3.86 3.86 0 001.421.261c.986 0 1.904-.338 2.755-1.015v4.466c-1.296.56-2.523.841-3.683.841a8.815 8.815 0 01-3.103-.551 8.171 8.171 0 01-2.581-1.566 8.084 8.084 0 01-1.769-2.465c-.445-.967-.667-2.04-.667-3.219 0-1.18.212-2.252.638-3.219a7.535 7.535 0 011.74-2.523 7.597 7.597 0 012.61-1.653 8.812 8.812 0 013.277-.609c1.276 0 2.455.27 3.538.812v4.466zm8.851-.435V25h-5.249V14.502h-1.74v-4.379h1.74V5.657h5.249v4.466h2.987v4.379h-2.987zm10.21-4.379v8.381c0 1.837.889 2.755 2.668 2.755 1.778 0 2.668-.918 2.668-2.755v-8.381h5.249v9.396c0 2.01-.667 3.519-2.001 4.524-1.315 1.005-3.287 1.508-5.916 1.508-2.63 0-4.611-.503-5.945-1.508-1.315-1.005-1.972-2.513-1.972-4.524v-9.396h5.249zm14.15 0h5.249v2.436c.561-.89 1.247-1.566 2.059-2.03.812-.483 1.759-.725 2.842-.725h.435c.174 0 .367.02.58.058v5.017a4.987 4.987 0 00-2.262-.522c-1.218 0-2.136.367-2.755 1.102-.599.715-.899 1.769-.899 3.161V25h-5.249V10.123zm18.551 7.395c0 .483.087.938.261 1.363.174.406.406.764.696 1.073.309.31.667.551 1.073.725a3.56 3.56 0 001.363.261c.464 0 .899-.087 1.305-.261a3.012 3.012 0 001.073-.725c.309-.31.551-.667.725-1.073.193-.406.29-.841.29-1.305 0-.464-.097-.899-.29-1.305a3.318 3.318 0 00-.725-1.102 3.012 3.012 0 00-1.073-.725 3.278 3.278 0 00-1.305-.261 3.56 3.56 0 00-1.363.261 3.39 3.39 0 00-1.073.725c-.29.31-.522.667-.696 1.073a3.074 3.074 0 00-.261 1.276zm6.612-7.395h5.278V25h-5.278v-1.653c-1.122 1.411-2.639 2.117-4.553 2.117-1.083 0-2.079-.193-2.987-.58a7.379 7.379 0 01-2.378-1.682 7.879 7.879 0 01-1.595-2.523c-.368-.967-.551-2.02-.551-3.161 0-1.063.183-2.069.551-3.016a7.74 7.74 0 011.537-2.523 7.062 7.062 0 012.349-1.682c.908-.425 1.914-.638 3.016-.638 1.856 0 3.393.648 4.611 1.943v-1.479zm18.71 3.828c-.967-.503-1.914-.754-2.842-.754-.484 0-.88.097-1.189.29-.29.193-.435.454-.435.783 0 .174.019.319.058.435a.947.947 0 00.319.29c.174.097.415.184.725.261.328.077.754.174 1.276.29 1.45.29 2.532.812 3.248 1.566.715.735 1.073 1.682 1.073 2.842 0 .87-.174 1.653-.522 2.349a5.14 5.14 0 01-1.45 1.769c-.619.464-1.363.822-2.233 1.073-.87.27-1.827.406-2.871.406-2.011 0-3.993-.57-5.945-1.711l1.914-3.712c1.469 1.005 2.861 1.508 4.176 1.508.483 0 .879-.106 1.189-.319.309-.213.464-.483.464-.812 0-.193-.029-.348-.087-.464-.039-.135-.136-.251-.29-.348-.155-.116-.387-.213-.696-.29a10.05 10.05 0 00-1.16-.29c-1.624-.329-2.765-.812-3.422-1.45-.638-.657-.957-1.556-.957-2.697 0-.831.154-1.576.464-2.233a4.62 4.62 0 011.334-1.711c.58-.464 1.276-.822 2.088-1.073.831-.251 1.749-.377 2.755-.377 1.643 0 3.238.319 4.785.957l-1.769 3.422zm19.622 3.567c0 .483.087.938.261 1.363.174.406.406.764.696 1.073.309.31.667.551 1.073.725.425.174.88.261 1.363.261.464 0 .899-.087 1.305-.261a3.012 3.012 0 001.073-.725c.309-.31.551-.667.725-1.073.193-.406.29-.841.29-1.305 0-.464-.097-.899-.29-1.305a3.318 3.318 0 00-.725-1.102 3.012 3.012 0 00-1.073-.725 3.278 3.278 0 00-1.305-.261c-.464 0-.909.087-1.334.261a3.39 3.39 0 00-1.073.725 4.18 4.18 0 00-.725 1.073 3.074 3.074 0 00-.261 1.276zM417.235.93h5.278V25h-5.278v-1.653c-1.121 1.411-2.639 2.117-4.553 2.117-1.083 0-2.078-.203-2.987-.609a7.39 7.39 0 01-2.378-1.682 7.896 7.896 0 01-1.595-2.523 8.752 8.752 0 01-.551-3.132c0-1.063.174-2.069.522-3.016a7.756 7.756 0 011.537-2.523 7.062 7.062 0 012.349-1.682c.928-.425 1.943-.638 3.045-.638 1.856 0 3.393.648 4.611 1.943V.93zm19.725 14.471c-.174-.735-.532-1.324-1.073-1.769-.541-.445-1.199-.667-1.972-.667-.812 0-1.479.213-2.001.638-.503.425-.822 1.025-.957 1.798h6.003zm-6.148 3.045c0 2.262 1.063 3.393 3.19 3.393 1.141 0 2.001-.464 2.581-1.392h5.075c-1.025 3.403-3.586 5.104-7.685 5.104-1.257 0-2.407-.184-3.451-.551-1.044-.387-1.943-.928-2.697-1.624a7.263 7.263 0 01-1.711-2.494c-.406-.967-.609-2.05-.609-3.248 0-1.237.193-2.349.58-3.335.387-1.005.938-1.856 1.653-2.552.715-.696 1.576-1.228 2.581-1.595 1.025-.387 2.175-.58 3.451-.58 1.257 0 2.388.193 3.393.58 1.005.367 1.856.909 2.552 1.624.696.715 1.228 1.595 1.595 2.639.367 1.025.551 2.185.551 3.48v.551h-11.049zM454.224 25l3.712-21.866h5.626l4.379 11.658 4.35-11.658h5.626L481.629 25h-5.655l-1.885-12.586L468.927 25h-2.262l-4.901-12.586L459.879 25h-5.655zm40.595-9.599c-.174-.735-.532-1.324-1.073-1.769-.542-.445-1.199-.667-1.972-.667-.812 0-1.479.213-2.001.638-.503.425-.822 1.025-.957 1.798h6.003zm-6.148 3.045c0 2.262 1.063 3.393 3.19 3.393 1.14 0 2.001-.464 2.581-1.392h5.075c-1.025 3.403-3.587 5.104-7.685 5.104-1.257 0-2.407-.184-3.451-.551-1.044-.387-1.943-.928-2.697-1.624a7.263 7.263 0 01-1.711-2.494c-.406-.967-.609-2.05-.609-3.248 0-1.237.193-2.349.58-3.335.386-1.005.937-1.856 1.653-2.552.715-.696 1.575-1.228 2.581-1.595 1.024-.387 2.175-.58 3.451-.58 1.256 0 2.387.193 3.393.58 1.005.367 1.856.909 2.552 1.624.696.715 1.227 1.595 1.595 2.639.367 1.025.551 2.185.551 3.48v.551h-11.049zm18.921-.928c0 .483.087.938.261 1.363.174.406.406.764.696 1.073.309.31.667.551 1.073.725.425.174.88.261 1.363.261.464 0 .899-.087 1.305-.261a3.012 3.012 0 001.073-.725c.309-.31.551-.667.725-1.073.193-.406.29-.841.29-1.305 0-.464-.097-.899-.29-1.305a3.318 3.318 0 00-.725-1.102 3.012 3.012 0 00-1.073-.725 3.278 3.278 0 00-1.305-.261c-.464 0-.909.087-1.334.261a3.39 3.39 0 00-1.073.725 4.18 4.18 0 00-.725 1.073 3.074 3.074 0 00-.261 1.276zM514.204.93h5.278V25h-5.278v-1.653c-1.121 1.411-2.639 2.117-4.553 2.117-1.083 0-2.078-.203-2.987-.609a7.39 7.39 0 01-2.378-1.682 7.896 7.896 0 01-1.595-2.523 8.752 8.752 0 01-.551-3.132c0-1.063.174-2.069.522-3.016a7.756 7.756 0 011.537-2.523 7.062 7.062 0 012.349-1.682c.928-.425 1.943-.638 3.045-.638 1.856 0 3.393.648 4.611 1.943V.93zm14.099 9.193V25h-5.249V10.123h5.249zm-5.597-5.713c0-.406.077-.783.232-1.131.155-.367.367-.686.638-.957.271-.27.58-.483.928-.638a2.958 2.958 0 011.16-.232c.406 0 .783.077 1.131.232.367.155.686.367.957.638.271.27.483.59.638.957.155.348.232.725.232 1.131s-.077.793-.232 1.16a3.059 3.059 0 01-.638.928c-.271.27-.59.483-.957.638a2.753 2.753 0 01-1.131.232c-.406 0-.793-.077-1.16-.232a3.063 3.063 0 01-.928-.638 3.059 3.059 0 01-.638-.928 2.953 2.953 0 01-.232-1.16zm20.407 10.527c-.909-.619-1.827-.928-2.755-.928a3.86 3.86 0 00-1.421.261 3.398 3.398 0 00-1.131.754c-.329.31-.59.686-.783 1.131a3.802 3.802 0 00-.261 1.45c0 .522.087 1.005.261 1.45.193.425.444.802.754 1.131.328.31.715.551 1.16.725a3.86 3.86 0 001.421.261c.986 0 1.904-.338 2.755-1.015v4.466c-1.296.56-2.523.841-3.683.841a8.815 8.815 0 01-3.103-.551 8.171 8.171 0 01-2.581-1.566 8.084 8.084 0 01-1.769-2.465c-.445-.967-.667-2.04-.667-3.219 0-1.18.212-2.252.638-3.219a7.535 7.535 0 011.74-2.523 7.597 7.597 0 012.61-1.653 8.812 8.812 0 013.277-.609c1.276 0 2.455.27 3.538.812v4.466zm7.866 2.581c0 .483.087.938.261 1.363.174.406.406.764.696 1.073.309.31.667.551 1.073.725a3.56 3.56 0 001.363.261c.464 0 .899-.087 1.305-.261a3.012 3.012 0 001.073-.725c.309-.31.551-.667.725-1.073.193-.406.29-.841.29-1.305 0-.464-.097-.899-.29-1.305a3.318 3.318 0 00-.725-1.102 3.012 3.012 0 00-1.073-.725 3.278 3.278 0 00-1.305-.261 3.56 3.56 0 00-1.363.261 3.39 3.39 0 00-1.073.725c-.29.31-.522.667-.696 1.073a3.074 3.074 0 00-.261 1.276zm6.612-7.395h5.278V25h-5.278v-1.653c-1.122 1.411-2.639 2.117-4.553 2.117-1.083 0-2.079-.193-2.987-.58a7.379 7.379 0 01-2.378-1.682 7.879 7.879 0 01-1.595-2.523c-.368-.967-.551-2.02-.551-3.161 0-1.063.183-2.069.551-3.016a7.74 7.74 0 011.537-2.523 7.062 7.062 0 012.349-1.682c.908-.425 1.914-.638 3.016-.638 1.856 0 3.393.648 4.611 1.943v-1.479zm8.85 0h5.249v2.436c.56-.89 1.247-1.566 2.059-2.03.812-.483 1.759-.725 2.842-.725h.435c.174 0 .367.02.58.058v5.017a4.987 4.987 0 00-2.262-.522c-1.218 0-2.137.367-2.755 1.102-.6.715-.899 1.769-.899 3.161V25h-5.249V10.123zm24.553 5.278c-.174-.735-.531-1.324-1.073-1.769-.541-.445-1.198-.667-1.972-.667-.812 0-1.479.213-2.001.638-.502.425-.821 1.025-.957 1.798h6.003zm-6.148 3.045c0 2.262 1.064 3.393 3.19 3.393 1.141 0 2.001-.464 2.581-1.392h5.075c-1.024 3.403-3.586 5.104-7.685 5.104-1.256 0-2.407-.184-3.451-.551-1.044-.387-1.943-.928-2.697-1.624a7.277 7.277 0 01-1.711-2.494c-.406-.967-.609-2.05-.609-3.248 0-1.237.194-2.349.58-3.335.387-1.005.938-1.856 1.653-2.552a7.19 7.19 0 012.581-1.595c1.025-.387 2.175-.58 3.451-.58 1.257 0 2.388.193 3.393.58 1.006.367 1.856.909 2.552 1.624.696.715 1.228 1.595 1.595 2.639.368 1.025.551 2.185.551 3.48v.551h-11.049zm13.1 5.018c0-.256.048-.496.144-.72.096-.235.229-.437.4-.608.17-.17.368-.304.592-.4a1.923 1.923 0 011.456 0c.234.096.437.23.608.4.17.17.304.373.4.608a1.926 1.926 0 010 1.456 1.838 1.838 0 01-1.008.992 1.923 1.923 0 01-1.456 0 1.864 1.864 0 01-1.136-1.728zm5.437 0c0-.256.048-.496.144-.72.096-.235.229-.437.4-.608.171-.17.368-.304.592-.4a1.927 1.927 0 011.456 0c.235.096.437.23.608.4.171.17.304.373.4.608a1.926 1.926 0 010 1.456 1.827 1.827 0 01-1.008.992 1.927 1.927 0 01-1.456 0 1.875 1.875 0 01-.992-.992 1.926 1.926 0 01-.144-.736zm5.438 0c0-.256.048-.496.144-.72.096-.235.229-.437.4-.608.17-.17.368-.304.592-.4a1.923 1.923 0 011.456 0c.234.096.437.23.608.4.17.17.304.373.4.608a1.926 1.926 0 010 1.456 1.838 1.838 0 01-1.008.992 1.923 1.923 0 01-1.456 0 1.864 1.864 0 01-1.136-1.728z" fill="#fff"/></svg>