<svg width="255" height="68" viewBox="0 0 255 68" fill="none" xmlns="http://www.w3.org/2000/svg"><path d="M9.088 24V.024h4.958l8.251 11.396c1.332 1.813 2.85 4.403 2.85 4.403V.024h5.18V24H25.33L17.34 13.048c-1.59-2.146-3.07-4.699-3.07-4.699V24h-5.18zm34.823.37c-5.513 0-9.88-4.255-9.88-9.62 0-5.365 4.367-9.62 9.88-9.62 5.55 0 9.916 4.255 9.916 9.62 0 5.365-4.366 9.62-9.916 9.62zm0-4.588c2.775 0 4.847-2.109 4.847-5.032 0-2.886-2.072-5.032-4.847-5.032-2.775 0-4.847 2.146-4.847 5.032 0 2.923 2.072 5.032 4.847 5.032zm30.604 4.588c-5.513 0-9.879-4.255-9.879-9.62 0-5.365 4.366-9.62 9.88-9.62 2.552 0 4.772.851 6.622 2.368l-2.997 3.478c-.85-.777-2.035-1.258-3.515-1.258-2.886 0-4.958 2.109-4.958 5.032 0 2.886 1.961 5.032 5.106 5.032 1.554 0 3.071-.592 4.033-1.517l2.627 3.7c-1.776 1.517-4.255 2.405-6.919 2.405zm18.211 0c-5.513 0-9.879-4.255-9.879-9.62 0-5.365 4.366-9.62 9.88-9.62 5.55 0 9.915 4.255 9.915 9.62 0 5.365-4.366 9.62-9.916 9.62zm0-4.588c2.775 0 4.847-2.109 4.847-5.032 0-2.886-2.072-5.032-4.847-5.032-2.775 0-4.847 2.146-4.847 5.032 0 2.923 2.072 5.032 4.847 5.032zM105.877 24V5.5h4.847v2.479c1.073-1.665 3.256-2.849 5.476-2.849 2.923 0 4.736 1.221 5.698 3.293 1.332-2.22 3.885-3.293 5.994-3.293 5.217 0 6.845 3.589 6.845 8.325V24h-4.958v-9.916c0-2.442-.592-4.255-3.219-4.255-2.442 0-3.774 1.961-3.774 4.403V24h-4.958v-9.916c0-2.442-.555-4.255-3.219-4.255-2.516 0-3.774 2.146-3.774 4.588V24h-4.958zm32.375 5.328V5.5h4.699v2.22c1.517-1.813 3.7-2.59 5.92-2.59 5.106 0 8.362 4.292 8.362 9.583 0 5.365-3.33 9.657-8.436 9.657-2.146 0-4.255-.851-5.587-2.479v7.437h-4.958zm9.324-9.546c2.701 0 4.588-2.109 4.588-5.032s-1.887-5.032-4.588-5.032c-2.516 0-4.403 2.072-4.403 5.032 0 2.923 1.85 5.032 4.403 5.032zm20.668 4.588c-5.106 0-8.362-4.292-8.362-9.62 0-5.328 3.256-9.62 8.362-9.62 2.146 0 4.44.851 5.772 2.627V5.5h4.847V24h-4.847v-2.22c-1.295 1.776-3.626 2.59-5.772 2.59zm1.258-4.588c2.553 0 4.403-2.072 4.403-5.032 0-2.886-1.85-5.032-4.403-5.032-2.664 0-4.588 2.146-4.588 5.032 0 2.923 1.924 5.032 4.588 5.032zM182.623 24V5.5h4.884v3.552c.518-1.517 2.405-3.922 6.475-3.922v5.402c-4.292 0-6.401 1.961-6.401 6.364V24h-4.958zm21.734.37c-3.7 0-5.698-2.146-5.698-6.327V9.496h-2.701V5.5h2.701V1.948l4.958-1.11V5.5h5.106v3.996h-5.106v8.473c0 1.591.777 2.109 1.665 2.109 1.184 0 2.22-.666 2.368-.777l1.406 3.663a8.526 8.526 0 01-4.699 1.406zm14.835 0c-5.106 0-8.362-4.292-8.362-9.62 0-5.328 3.256-9.62 8.362-9.62 2.146 0 4.44.851 5.772 2.627V5.5h4.847V24h-4.847v-2.22c-1.295 1.776-3.626 2.59-5.772 2.59zm1.258-4.588c2.553 0 4.403-2.072 4.403-5.032 0-2.886-1.85-5.032-4.403-5.032-2.664 0-4.588 2.146-4.588 5.032 0 2.923 1.924 5.032 4.588 5.032zm19.706 4.588c-3.959 0-6.512-1.554-7.548-2.516l1.776-3.811c1.258.962 2.997 1.961 5.772 1.961 1.147 0 3.034-.444 3.034-1.554s-1.591-1.369-3.182-1.813c-3.663-.962-6.66-2.183-6.66-5.735 0-3.774 3.7-5.772 7.178-5.772 3.034 0 4.958.74 6.882 1.85l-1.665 3.7c-1.813-.888-3.515-1.295-5.143-1.295-1.147 0-2.22.518-2.22 1.295 0 1.036 1.554 1.369 3.256 1.739 3.145.74 6.586 2.109 6.586 5.883 0 4.551-4.625 6.068-8.066 6.068zm-231.187 43c-3.7 0-5.698-2.146-5.698-6.327v-8.547H.57V48.5h2.701v-3.552l4.958-1.11V48.5h5.106v3.996H8.229v8.473c0 1.591.777 2.109 1.665 2.109 1.184 0 2.22-.666 2.368-.777l1.406 3.663a8.526 8.526 0 01-4.699 1.406zm13.61 0c-5.105 0-6.733-2.997-6.733-7.807V48.5h4.958v10.397c0 2.59 1.11 3.774 3.404 3.774 2.59 0 3.848-2.183 3.848-4.699V48.5h4.958V67h-4.662v-2.59c-1.11 1.813-3.626 2.96-5.772 2.96zM44.904 67V48.5h4.958V67h-4.958zm2.442-20.757c-1.591 0-2.923-1.332-2.923-2.923 0-1.628 1.332-2.96 2.923-2.96a2.969 2.969 0 012.96 2.96c0 1.591-1.332 2.923-2.96 2.923zM53.647 67V48.5h4.847v2.479c1.48-2.035 3.589-2.849 5.846-2.849 4.884 0 6.586 3.145 6.586 8.214V67h-4.958V56.973c0-2.701-.703-4.144-3.22-4.144-2.478 0-4.143 1.998-4.143 4.81V67h-4.958zM75.2 67V52.533h-2.886v-3.996H75.2v-1.221c0-4.292 2.368-6.142 5.513-6.142 1.665 0 3.515.481 4.81 1.147l-1.406 3.663c-.407-.185-1.22-.555-2.072-.555-1.036 0-1.887.518-1.887 2.442v.666h4.625v3.996h-4.625V67H75.2zm20.652.37c-5.513 0-9.88-4.255-9.88-9.62 0-5.365 4.367-9.62 9.88-9.62 5.55 0 9.916 4.255 9.916 9.62 0 5.365-4.366 9.62-9.916 9.62zm0-4.588c2.775 0 4.847-2.109 4.847-5.032 0-2.886-2.072-5.032-4.847-5.032-2.775 0-4.847 2.146-4.847 5.032 0 2.923 2.072 5.032 4.847 5.032zM109.002 67V48.5h4.884v3.552c.518-1.517 2.405-3.922 6.475-3.922v5.402c-4.292 0-6.401 1.961-6.401 6.364V67h-4.958zm14.056 0V48.5h4.847v2.479c1.073-1.665 3.256-2.849 5.476-2.849 2.923 0 4.736 1.221 5.698 3.293 1.332-2.22 3.885-3.293 5.994-3.293 5.217 0 6.845 3.589 6.845 8.325V67h-4.958v-9.916c0-2.442-.592-4.255-3.219-4.255-2.442 0-3.774 1.961-3.774 4.403V67h-4.958v-9.916c0-2.442-.555-4.255-3.219-4.255-2.516 0-3.774 2.146-3.774 4.588V67h-4.958zm40.182.37c-5.106 0-8.362-4.292-8.362-9.62 0-5.328 3.256-9.62 8.362-9.62 2.146 0 4.44.851 5.772 2.627V48.5h4.847V67h-4.847v-2.22c-1.295 1.776-3.626 2.59-5.772 2.59zm1.258-4.588c2.553 0 4.403-2.072 4.403-5.032 0-2.886-1.85-5.032-4.403-5.032-2.664 0-4.588 2.146-4.588 5.032 0 2.923 1.924 5.032 4.588 5.032zm22.444 4.588c-5.513 0-9.879-4.255-9.879-9.62 0-5.365 4.366-9.62 9.879-9.62 2.553 0 4.773.851 6.623 2.368l-2.997 3.478c-.851-.777-2.035-1.258-3.515-1.258-2.886 0-4.958 2.109-4.958 5.032 0 2.886 1.961 5.032 5.106 5.032 1.554 0 3.071-.592 4.033-1.517l2.627 3.7c-1.776 1.517-4.255 2.405-6.919 2.405zm9.466-.37V48.5h4.958V67h-4.958zm2.442-20.757c-1.591 0-2.923-1.332-2.923-2.923 0-1.628 1.332-2.96 2.923-2.96a2.969 2.969 0 012.96 2.96c0 1.591-1.332 2.923-2.96 2.923zm12.37-.259l3.478-5.809h4.921l-4.329 5.809h-4.07zm3.256 21.386c-5.513 0-9.879-4.255-9.879-9.62 0-5.365 4.366-9.62 9.879-9.62 5.55 0 9.916 4.255 9.916 9.62 0 5.365-4.366 9.62-9.916 9.62zm0-4.588c2.775 0 4.847-2.109 4.847-5.032 0-2.886-2.072-5.032-4.847-5.032-2.775 0-4.847 2.146-4.847 5.032 0 2.923 2.072 5.032 4.847 5.032zM227.626 67V48.5h4.847v2.479c1.48-2.035 3.589-2.849 5.846-2.849 4.884 0 6.586 3.145 6.586 8.214V67h-4.958V56.973c0-2.701-.703-4.144-3.219-4.144-2.479 0-4.144 1.998-4.144 4.81V67h-4.958zm23.552.37c-1.665 0-2.923-1.295-2.923-2.886 0-1.665 1.295-2.923 2.923-2.923 1.665 0 2.96 1.258 2.96 2.923 0 1.591-1.295 2.886-2.96 2.886z" fill="#fff"/></svg>