<svg width="202" height="125" viewBox="0 0 202 125" fill="none" xmlns="http://www.w3.org/2000/svg"><path d="M12.09 30V1.488h3.124l6.952 9.68c1.496 2.112 4.62 6.6 4.62 6.6s3.124-4.444 4.62-6.556l6.952-9.724h3.124V30h-3.52V7.428s-.748 1.364-2.112 3.256l-9.064 12.76-9.108-12.848c-1.276-1.804-2.068-3.168-2.068-3.168V30h-3.52zm45.863.44c-6.072 0-11.22-4.356-11.22-11.132 0-6.204 4.664-11.176 10.78-11.176 5.72 0 10.252 4.928 10.252 11.044 0 .616-.088 1.276-.088 1.32H50.209c.528 4.268 3.828 6.952 7.788 6.952 2.42 0 4.84-.836 6.6-2.288l1.452 2.464a13.112 13.112 0 01-8.096 2.816zm-7.744-12.496h14.256c-.352-3.96-3.388-6.82-7.128-6.82-3.652 0-6.644 2.816-7.128 6.82zM81.775 30.44c-5.94 0-10.12-4.928-10.12-11.132 0-6.292 4.18-11.176 10.12-11.176 3.432 0 6.468 1.408 8.052 4.18V1.048h3.344V30h-3.212v-3.74c-1.584 2.816-4.708 4.18-8.184 4.18zm.748-3.256c4.092 0 7.304-3.388 7.304-7.876s-3.212-7.92-7.304-7.92c-4.268 0-7.436 3.344-7.436 7.92 0 4.532 3.168 7.876 7.436 7.876zM98.789 30V8.572h3.344V30h-3.344zm1.672-25.256c-1.232 0-2.2-.968-2.2-2.2 0-1.232.968-2.244 2.2-2.244a2.253 2.253 0 012.244 2.244c0 1.232-1.012 2.2-2.244 2.2zm17.692 25.696c-6.292 0-11.264-4.884-11.264-11.132 0-6.248 4.972-11.176 11.264-11.176 2.948 0 5.632 1.056 7.656 2.86l-2.112 2.376c-1.32-1.232-3.256-1.98-5.5-1.98-4.488 0-7.876 3.344-7.876 7.92 0 4.444 3.256 7.876 7.964 7.876 2.42 0 4.62-.924 6.116-2.42l1.936 2.508c-2.068 1.98-4.972 3.168-8.184 3.168zm20.942 0c-5.94 0-10.12-4.928-10.12-11.132 0-6.292 4.18-11.176 10.12-11.176 3.432 0 6.468 1.408 8.052 4.18v-3.74h3.344V30h-3.344v-3.74c-1.584 2.816-4.62 4.18-8.052 4.18zm.748-3.256c4.092 0 7.304-3.388 7.304-7.876s-3.212-7.92-7.304-7.92c-4.268 0-7.436 3.344-7.436 7.92 0 4.532 3.168 7.876 7.436 7.876zM156.109 30V8.572h3.344v4.532c1.232-2.816 4.004-4.972 8.272-4.972v3.652c-5.016 0-8.272 2.816-8.272 8.052V30h-3.344zm25.379.44c-6.072 0-11.22-4.356-11.22-11.132 0-6.204 4.664-11.176 10.78-11.176 5.72 0 10.252 4.928 10.252 11.044 0 .616-.088 1.276-.088 1.32h-17.468c.528 4.268 3.828 6.952 7.788 6.952 2.42 0 4.84-.836 6.6-2.288l1.452 2.464a13.112 13.112 0 01-8.096 2.816zm-7.744-12.496H188c-.352-3.96-3.388-6.82-7.128-6.82-3.652 0-6.644 2.816-7.128 6.82zm-15.99 59.496c-3.784 0-6.028-1.848-6.028-6.864V58.344h-3.212v-2.772h3.212v-4.62l3.344-.616v5.236h7.304v2.772h-7.304v12.32c0 2.948 1.276 3.784 2.992 3.784 1.98 0 3.52-1.188 3.52-1.188l1.1 2.596c-.836.572-2.596 1.584-4.928 1.584zm18.98 0c-6.072 0-11.22-4.356-11.22-11.132 0-6.204 4.664-11.176 10.78-11.176 5.72 0 10.252 4.928 10.252 11.044 0 .616-.088 1.276-.088 1.32H168.99c.528 4.268 3.828 6.952 7.788 6.952 2.42 0 4.84-.836 6.6-2.288l1.452 2.464a13.112 13.112 0 01-8.096 2.816zm-7.744-12.496h14.256c-.352-3.96-3.388-6.82-7.128-6.82-3.652 0-6.644 2.816-7.128 6.82zM11.311 124.44c-6.292 0-11.264-4.884-11.264-11.132 0-6.248 4.972-11.176 11.264-11.176 2.948 0 5.632 1.056 7.656 2.86l-2.112 2.376c-1.32-1.232-3.256-1.98-5.5-1.98-4.488 0-7.876 3.344-7.876 7.92 0 4.444 3.256 7.876 7.964 7.876 2.42 0 4.62-.924 6.116-2.42l1.936 2.508c-2.068 1.98-4.972 3.168-8.184 3.168zm22.086 0c-6.292 0-11.264-4.928-11.264-11.132 0-6.248 4.972-11.176 11.264-11.176 6.292 0 11.264 4.928 11.264 11.176 0 6.204-4.972 11.132-11.264 11.132zm0-3.256c4.444 0 7.832-3.388 7.832-7.876 0-4.532-3.388-7.92-7.832-7.92s-7.832 3.388-7.832 7.92c0 4.488 3.388 7.876 7.832 7.876zm16 2.816v-21.428h3.343v3.652c1.496-2.596 4.268-4.092 7.436-4.092 5.368 0 7.744 3.256 7.744 8.888V124h-3.344v-12.54c0-3.96-1.452-6.072-5.324-6.072-3.828 0-6.512 2.992-6.512 6.556V124h-3.344zm30.976.44c-3.784 0-6.028-1.848-6.028-6.864v-12.232h-3.212v-2.772h3.212v-4.62l3.344-.616v5.236h7.304v2.772h-7.304v12.32c0 2.948 1.276 3.784 2.992 3.784 1.98 0 3.52-1.188 3.52-1.188l1.1 2.596c-.836.572-2.596 1.584-4.928 1.584zm17.88 0c-5.94 0-10.12-4.928-10.12-11.132 0-6.292 4.18-11.176 10.12-11.176 3.432 0 6.468 1.408 8.052 4.18v-3.74h3.344V124h-3.344v-3.74c-1.584 2.816-4.62 4.18-8.052 4.18zm.748-3.256c4.092 0 7.304-3.388 7.304-7.876s-3.212-7.92-7.304-7.92c-4.268 0-7.436 3.344-7.436 7.92 0 4.532 3.168 7.876 7.436 7.876zm26.65 3.256c-6.292 0-11.264-4.884-11.264-11.132 0-6.248 4.972-11.176 11.264-11.176 2.948 0 5.632 1.056 7.656 2.86l-2.112 2.376c-1.32-1.232-3.256-1.98-5.5-1.98-4.488 0-7.876 3.344-7.876 7.92 0 4.444 3.256 7.876 7.964 7.876 2.42 0 4.62-.924 6.116-2.42l1.936 2.508c-2.068 1.98-4.972 3.168-8.184 3.168zm19.347 0c-3.784 0-6.028-1.848-6.028-6.864v-12.232h-3.212v-2.772h3.212v-4.62l3.344-.616v5.236h7.304v2.772h-7.304v12.32c0 2.948 1.276 3.784 2.992 3.784 1.98 0 3.52-1.188 3.52-1.188l1.1 2.596c-.836.572-2.596 1.584-4.928 1.584zm17.88 0c-5.94 0-10.12-4.928-10.12-11.132 0-6.292 4.18-11.176 10.12-11.176 3.432 0 6.468 1.408 8.052 4.18v-3.74h3.344V124h-3.344v-3.74c-1.584 2.816-4.62 4.18-8.052 4.18zm.748-3.256c4.092 0 7.304-3.388 7.304-7.876s-3.212-7.92-7.304-7.92c-4.268 0-7.436 3.344-7.436 7.92 0 4.532 3.168 7.876 7.436 7.876zm17.894 3.256c-1.32 0-2.288-1.056-2.288-2.332 0-1.276 1.012-2.332 2.288-2.332a2.347 2.347 0 012.332 2.332 2.347 2.347 0 01-2.332 2.332zm8.938 0c-1.32 0-2.288-1.056-2.288-2.332 0-1.276 1.012-2.332 2.288-2.332a2.347 2.347 0 012.332 2.332 2.347 2.347 0 01-2.332 2.332zm8.937 0c-1.32 0-2.288-1.056-2.288-2.332 0-1.276 1.012-2.332 2.288-2.332a2.347 2.347 0 012.332 2.332 2.347 2.347 0 01-2.332 2.332z" fill="#275D80"/><path d="M15.744 77V55h5.764v2.948c1.76-2.42 4.268-3.388 6.952-3.388 5.808 0 7.832 3.74 7.832 9.768V77h-5.896V65.076c0-3.212-.836-4.928-3.828-4.928-2.948 0-4.928 2.376-4.928 5.72V77h-5.896zm32.407.44c-6.072 0-8.008-3.564-8.008-9.284V55h5.896v12.364c0 3.08 1.32 4.488 4.048 4.488 3.08 0 4.576-2.596 4.576-5.588V55h5.896v22h-5.544v-3.08c-1.32 2.156-4.312 3.52-6.864 3.52zM65.029 77V55h5.764v2.948c1.76-2.42 4.268-3.388 6.952-3.388 5.808 0 7.832 3.74 7.832 9.768V77h-5.896V65.076c0-3.212-.836-4.928-3.828-4.928-2.948 0-4.928 2.376-4.928 5.72V77H65.03zm35.795.44c-6.556 0-11.748-5.06-11.748-11.44s5.192-11.44 11.748-11.44c3.036 0 5.676 1.012 7.876 2.816l-3.564 4.136c-1.012-.924-2.42-1.496-4.18-1.496-3.432 0-5.896 2.508-5.896 5.984 0 3.432 2.332 5.984 6.072 5.984 1.848 0 3.652-.704 4.796-1.804l3.124 4.4c-2.112 1.804-5.06 2.86-8.228 2.86zm19.852 0c-6.072 0-9.944-5.104-9.944-11.44 0-6.336 3.872-11.44 9.944-11.44 2.552 0 5.28 1.012 6.864 3.124V55h5.764v22h-5.764v-2.64c-1.54 2.112-4.312 3.08-6.864 3.08zm1.496-5.456c3.036 0 5.236-2.464 5.236-5.984 0-3.432-2.2-5.984-5.236-5.984-3.168 0-5.456 2.552-5.456 5.984 0 3.476 2.288 5.984 5.456 5.984z" fill="#091C29"/></svg>