<svg width="252" height="117" viewBox="0 0 252 117" fill="none" xmlns="http://www.w3.org/2000/svg"><path d="M2.677 20.4c-1.2 0-2.08-.96-2.08-2.12 0-1.16.92-2.12 2.08-2.12 1.16 0 2.12.96 2.12 2.12 0 1.16-.96 2.12-2.12 2.12zm8.125 0c-1.2 0-2.08-.96-2.08-2.12 0-1.16.92-2.12 2.08-2.12 1.16 0 2.12.96 2.12 2.12 0 1.16-.96 2.12-2.12 2.12zm8.125 0c-1.2 0-2.08-.96-2.08-2.12 0-1.16.92-2.12 2.08-2.12 1.16 0 2.12.96 2.12 2.12 0 1.16-.96 2.12-2.12 2.12zm15.045 0c-5.4 0-9.2-4.48-9.2-10.12 0-5.72 3.8-10.16 9.2-10.16 3.12 0 5.88 1.28 7.32 3.8V.52h3.04V20h-3.04v-3.4c-1.44 2.56-4.2 3.8-7.32 3.8zm.68-2.96c3.72 0 6.64-3.08 6.64-7.16s-2.92-7.2-6.64-7.2c-3.88 0-6.76 3.04-6.76 7.2 0 4.12 2.88 7.16 6.76 7.16zM58.15 20V.52h3.04v3.36C62.27 1.76 64.71.12 67.43.12c3.12 0 5.32 1.36 6.24 4.12C75.07 1.4 78.11.12 80.39.12c4.68 0 7.16 2.72 7.16 8.08V20h-3.08V8.6c0-3.32-1.16-5.52-4.72-5.52-3.28 0-5.36 2.64-5.36 5.56V20h-3.08V8.6c0-3.32-1.16-5.52-4.68-5.52-3.4 0-5.44 2.88-5.44 5.72V20h-3.04zm43.54.4c-5.52 0-10.2-3.96-10.2-10.12 0-5.64 4.24-10.16 9.8-10.16 5.2 0 9.32 4.48 9.32 10.04 0 .56-.08 1.16-.08 1.2H94.65c.48 3.88 3.48 6.32 7.08 6.32 2.2 0 4.4-.76 6-2.08l1.32 2.24a11.92 11.92 0 01-7.36 2.56zM94.65 9.04h12.96c-.32-3.6-3.08-6.2-6.48-6.2-3.32 0-6.04 2.56-6.48 6.2zM114.947 20V.52h3.04v3.32c1.36-2.36 3.88-3.72 6.76-3.72 4.88 0 7.04 2.96 7.04 8.08V20h-3.04V8.6c0-3.6-1.32-5.52-4.84-5.52-3.48 0-5.92 2.72-5.92 5.96V20h-3.04zm31.08.4c-5.72 0-10.24-4.48-10.24-10.12 0-5.68 4.52-10.16 10.24-10.16 5.72 0 10.24 4.48 10.24 10.16 0 5.64-4.52 10.12-10.24 10.12zm0-2.96c4.04 0 7.12-3.08 7.12-7.16 0-4.12-3.08-7.2-7.12-7.2s-7.12 3.08-7.12 7.2c0 4.08 3.08 7.16 7.12 7.16zm21.105 2.96c-3.96 0-6.48-1.8-7.6-2.96l1.24-2.48c1.44 1.4 3.52 2.56 6.36 2.56 2.68 0 4.88-1.24 4.88-3 0-2.04-2.36-2.6-4.72-3.2-3.6-.92-6.88-1.92-6.88-5.64 0-3.52 3.68-5.56 6.96-5.56 2.68 0 4.64.72 6.64 2.08l-1.2 2.48c-1.64-1.12-3.36-1.68-5.4-1.68-2 0-3.88 1.12-3.88 2.64 0 1.92 2.16 2.36 4.44 2.84 3.52.8 7.16 2.12 7.16 5.96 0 4.12-4.2 5.96-8 5.96zm36.621 5.24V16.6c-1.44 2.52-4.2 3.8-7.32 3.8-5.4 0-9.2-4.48-9.2-10.16s3.8-10.12 9.2-10.12c3.16 0 6 1.24 7.44 3.76V.52h2.92v25.12h-3.04zm-6.64-8.2c3.72 0 6.64-3.12 6.64-7.2s-2.92-7.16-6.64-7.16c-3.88 0-6.76 3.04-6.76 7.16 0 4.16 2.88 7.2 6.76 7.2zm21.547 2.96c-4.8 0-7.08-2.52-7.08-7.72V.52h3.04v11.76c0 3.64 1.76 5.16 4.92 5.16 3.52 0 5.56-2.88 5.56-5.88V.52h3.04V20h-2.92v-3.44c-1.2 2.52-4 3.84-6.56 3.84zm24.007 0c-5.52 0-10.2-3.96-10.2-10.12 0-5.64 4.24-10.16 9.8-10.16 5.2 0 9.32 4.48 9.32 10.04 0 .56-.08 1.16-.08 1.2h-15.88c.48 3.88 3.48 6.32 7.08 6.32 2.2 0 4.4-.76 6-2.08l1.32 2.24a11.92 11.92 0 01-7.36 2.56zm-7.04-11.36h12.96c-.32-3.6-3.08-6.2-6.48-6.2-3.32 0-6.04 2.56-6.48 6.2zM47.047 116.204V88.572h3.212v3.696c1.584-2.772 4.708-4.136 8.184-4.136 5.94 0 10.12 4.884 10.12 11.132 0 6.248-4.18 11.176-10.12 11.176-3.389 0-6.468-1.408-8.052-4.18v9.944h-3.344zm10.648-9.02c4.267 0 7.435-3.344 7.435-7.92 0-4.532-3.167-7.876-7.435-7.876-4.093 0-7.304 3.388-7.304 7.876s3.212 7.92 7.303 7.92zM73.3 110V88.572h3.344v4.532c1.232-2.816 4.004-4.972 8.272-4.972v3.652c-5.016 0-8.272 2.816-8.272 8.052V110H73.3zm15.47 0V88.572h3.343V110H88.77zm1.671-25.256c-1.232 0-2.2-.968-2.2-2.2 0-1.232.968-2.244 2.2-2.244a2.253 2.253 0 012.244 2.244c0 1.232-1.012 2.2-2.244 2.2zM97.75 110V88.572h3.344v3.696c1.188-2.332 3.872-4.136 6.864-4.136 3.432 0 5.852 1.496 6.864 4.532 1.54-3.124 4.884-4.532 7.392-4.532 5.148 0 7.876 2.992 7.876 8.888V110h-3.388V97.46c0-3.652-1.276-6.072-5.192-6.072-3.608 0-5.896 2.904-5.896 6.116V110h-3.388V97.46c0-3.652-1.276-6.072-5.148-6.072-3.74 0-5.984 3.168-5.984 6.292V110H97.75zm47.894.44c-6.072 0-11.22-4.356-11.22-11.132 0-6.204 4.664-11.176 10.78-11.176 5.72 0 10.252 4.928 10.252 11.044 0 .616-.088 1.276-.088 1.32H137.9c.528 4.268 3.828 6.952 7.788 6.952 2.42 0 4.84-.836 6.6-2.288l1.452 2.464a13.112 13.112 0 01-8.096 2.816zM137.9 97.944h14.256c-.352-3.96-3.388-6.82-7.128-6.82-3.652 0-6.644 2.816-7.128 6.82zM160.226 110V88.572h3.344v4.532c1.232-2.816 4.004-4.972 8.272-4.972v3.652c-5.016 0-8.272 2.816-8.272 8.052V110h-3.344zm25.423.44c-6.292 0-11.264-4.928-11.264-11.132 0-6.248 4.972-11.176 11.264-11.176 6.292 0 11.264 4.928 11.264 11.176 0 6.204-4.972 11.132-11.264 11.132zm0-3.256c4.444 0 7.832-3.388 7.832-7.876 0-4.532-3.388-7.92-7.832-7.92s-7.832 3.388-7.832 7.92c0 4.488 3.388 7.876 7.832 7.876zm17.627 3.256c-1.32 0-2.288-1.056-2.288-2.332 0-1.276 1.012-2.332 2.288-2.332a2.347 2.347 0 012.332 2.332 2.347 2.347 0 01-2.332 2.332z" fill="#275D80"/><path d="M11.262 65.44c-4.4 0-6.776-2.552-6.776-7.524V47.752H1.274V43h3.212v-4.224l5.896-1.32V43h6.072v4.752h-6.072v10.076c0 1.892.924 2.508 1.98 2.508 1.408 0 2.64-.792 2.816-.924l1.672 4.356a10.139 10.139 0 01-5.588 1.672zM25.82 40.008l4.136-6.908h5.852l-5.148 6.908h-4.84zm1.628 25.432c-6.072 0-8.008-3.564-8.008-9.284V43h5.896v12.364c0 3.08 1.32 4.488 4.048 4.488 3.08 0 4.576-2.596 4.576-5.588V43h5.896v22h-5.544v-3.08c-1.32 2.156-4.312 3.52-6.864 3.52zM53.994 65V36.048h5.896V65h-5.896zm21.486.44c-6.556 0-11.748-5.06-11.748-11.44s5.192-11.44 11.748-11.44c6.6 0 11.792 5.06 11.792 11.44S82.08 65.44 75.48 65.44zm0-5.456c3.3 0 5.764-2.508 5.764-5.984 0-3.432-2.464-5.984-5.764-5.984-3.3 0-5.764 2.552-5.764 5.984 0 3.476 2.464 5.984 5.764 5.984zm23.342 5.456c-4.708 0-7.744-1.848-8.976-2.992l2.112-4.532c1.496 1.144 3.564 2.332 6.864 2.332 1.364 0 3.608-.528 3.608-1.848s-1.892-1.628-3.784-2.156c-4.356-1.144-7.92-2.596-7.92-6.82 0-4.488 4.4-6.864 8.536-6.864 3.608 0 5.896.88 8.184 2.2l-1.98 4.4c-2.156-1.056-4.18-1.54-6.116-1.54-1.364 0-2.64.616-2.64 1.54 0 1.232 1.848 1.628 3.872 2.068 3.74.88 7.832 2.508 7.832 6.996 0 5.412-5.5 7.216-9.592 7.216zm22.762-.44V36.048h5.896V65h-5.896zm10.398 0V36.048h5.896V65h-5.896zm19.683.44c-6.072 0-9.944-5.104-9.944-11.44 0-6.336 3.872-11.44 9.944-11.44 2.552 0 5.28 1.012 6.864 3.124V43h5.764v22h-5.764v-2.64c-1.54 2.112-4.312 3.08-6.864 3.08zm1.496-5.456c3.036 0 5.236-2.464 5.236-5.984 0-3.432-2.2-5.984-5.236-5.984-3.168 0-5.456 2.552-5.456 5.984 0 3.476 2.288 5.984 5.456 5.984zM168.764 65V43h5.764v2.948c1.276-1.98 3.872-3.388 6.512-3.388 3.476 0 5.632 1.452 6.776 3.916 1.584-2.64 4.62-3.916 7.128-3.916 6.204 0 8.14 4.268 8.14 9.9V65h-5.896V53.208c0-2.904-.704-5.06-3.828-5.06-2.904 0-4.488 2.332-4.488 5.236V65h-5.896V53.208c0-2.904-.66-5.06-3.828-5.06-2.992 0-4.488 2.552-4.488 5.456V65h-5.896zm49.896.44c-6.424 0-12.056-4.18-12.056-11.44 0-6.336 4.928-11.44 11.396-11.44 5.984 0 10.692 5.104 10.692 11.352 0 1.056-.132 2.112-.132 2.112h-15.972c.704 3.036 3.212 4.488 6.116 4.488 2.112 0 4.312-.616 5.94-1.716l2.2 4.224c-2.464 1.628-5.324 2.42-8.184 2.42zm-6.16-13.332h10.648c-.44-2.772-2.64-4.62-5.324-4.62-2.552 0-4.752 1.848-5.324 4.62zm27.904 13.332c-4.708 0-7.744-1.848-8.976-2.992l2.112-4.532c1.496 1.144 3.564 2.332 6.864 2.332 1.364 0 3.608-.528 3.608-1.848s-1.892-1.628-3.784-2.156c-4.356-1.144-7.92-2.596-7.92-6.82 0-4.488 4.4-6.864 8.536-6.864 3.608 0 5.896.88 8.184 2.2l-1.98 4.4c-2.156-1.056-4.18-1.54-6.116-1.54-1.364 0-2.64.616-2.64 1.54 0 1.232 1.848 1.628 3.872 2.068 3.74.88 7.832 2.508 7.832 6.996 0 5.412-5.5 7.216-9.592 7.216z" fill="#091C29"/></svg>