<svg width="162" height="15" viewBox="0 0 162 15" fill="none" xmlns="http://www.w3.org/2000/svg"><path d="M.68 12V3.313h2.924v1.003c.799-.935 1.751-1.173 2.618-1.173 2.193 0 3.043 1.292 3.043 3.842V12H6.171V7.376c0-.986-.374-1.343-.969-1.343-.952 0-1.428.799-1.428 1.87V12H.68zm12.938.17c-2.618 0-3.162-1.632-3.162-3.842V3.313h3.094v4.624c0 .918.306 1.343 1.122 1.343.935 0 1.275-.799 1.275-1.87V3.313h3.094V12h-2.924v-.952c-.476.612-1.598 1.122-2.499 1.122zm6.785-.17V3.313h2.924v1.003c.799-.935 1.75-1.173 2.618-1.173 2.193 0 3.043 1.292 3.043 3.842V12h-3.094V7.376c0-.986-.374-1.343-.97-1.343-.951 0-1.427.799-1.427 1.87V12h-3.094zm14.383.17c-2.669 0-4.692-2.006-4.692-4.505 0-2.516 2.023-4.522 4.692-4.522 1.19 0 2.159.357 3.077 1.088l-1.785 2.142c-.323-.306-.68-.51-1.207-.51-1.003 0-1.649.765-1.649 1.802 0 1.054.629 1.785 1.717 1.785.595 0 1.088-.255 1.462-.629l1.547 2.278c-.833.697-1.938 1.071-3.162 1.071zm7.299 0c-2.414 0-3.723-2.006-3.723-4.505 0-2.516 1.309-4.522 3.723-4.522.697 0 1.853.238 2.363 1.139v-.969h2.924V12h-2.924v-.969c-.476.884-1.666 1.139-2.363 1.139zm.816-2.72c.816 0 1.394-.731 1.394-1.785 0-1.037-.578-1.802-1.394-1.802s-1.394.765-1.394 1.802c0 1.054.578 1.785 1.394 1.785zM52.493 12V.814h3.094V12h-3.094zm8.972.17c-2.67 0-4.692-2.006-4.692-4.505 0-2.516 2.023-4.522 4.692-4.522s4.692 2.006 4.692 4.522c0 2.499-2.023 4.505-4.692 4.505zm0-2.72c.918 0 1.564-.731 1.564-1.785 0-1.037-.646-1.802-1.564-1.802S59.9 6.628 59.9 7.665c0 1.054.646 1.785 1.564 1.785zm14.177 2.72c-2.669 0-4.692-2.006-4.692-4.505 0-2.516 2.023-4.522 4.692-4.522 1.19 0 2.16.357 3.077 1.088l-1.785 2.142c-.323-.306-.68-.51-1.207-.51-1.003 0-1.649.765-1.649 1.802 0 1.054.63 1.785 1.717 1.785.595 0 1.088-.255 1.462-.629l1.547 2.278c-.833.697-1.938 1.071-3.162 1.071zm8.268 0c-2.669 0-4.692-2.006-4.692-4.505 0-2.516 2.023-4.522 4.692-4.522s4.692 2.006 4.692 4.522c0 2.499-2.023 4.505-4.692 4.505zm0-2.72c.918 0 1.564-.731 1.564-1.785 0-1.037-.646-1.802-1.564-1.802s-1.564.765-1.564 1.802c0 1.054.646 1.785 1.564 1.785zM89.797 12V3.313h2.924v.952c.646-.731 1.65-1.122 2.618-1.122 1.394 0 2.142.561 2.55 1.343.748-1.088 1.904-1.343 2.771-1.343 2.805 0 3.043 2.261 3.043 4.012V12h-3.094V7.512c0-1.037-.289-1.513-.969-1.513-.918 0-1.343.833-1.343 1.904V12h-3.094V7.512c0-1.037-.289-1.513-.969-1.513-.918 0-1.343.833-1.343 1.904V12h-3.094zm15.174 2.499V3.313h2.924v.969c.697-.935 1.666-1.139 2.363-1.139 2.414 0 3.723 2.006 3.723 4.505 0 2.516-1.394 4.522-3.825 4.522-.697 0-1.564-.238-2.091-.901v3.23h-3.094zm4.454-5.049c.816 0 1.394-.731 1.394-1.785 0-1.037-.578-1.802-1.394-1.802s-1.394.765-1.394 1.802c0 1.054.578 1.785 1.394 1.785zm9.292 2.72c-2.414 0-3.723-2.006-3.723-4.505 0-2.516 1.309-4.522 3.723-4.522.697 0 1.853.238 2.363 1.139v-.969h2.924V12h-2.924v-.969c-.476.884-1.666 1.139-2.363 1.139zm.816-2.72c.816 0 1.394-.731 1.394-1.785 0-1.037-.578-1.802-1.394-1.802s-1.394.765-1.394 1.802c0 1.054.578 1.785 1.394 1.785zm5.825 2.55V3.313h3.009V4.86c.051-.374.799-1.717 2.839-1.717v3.366c-2.244 0-2.754.935-2.754 2.567V12h-3.094zm10.673.17c-1.666 0-2.754-1.071-2.754-2.975V5.761h-1.275V3.313h1.275V1.749l3.094-.765v2.329h1.921v2.448h-1.921v3.196c0 .408.204.544.476.544.255 0 .561-.119.782-.272l.833 2.261c-.748.527-1.666.68-2.431.68zm6.792 0c-2.414 0-3.723-2.006-3.723-4.505 0-2.516 1.309-4.522 3.723-4.522.697 0 1.853.238 2.363 1.139v-.969h2.924V12h-2.924v-.969c-.476.884-1.666 1.139-2.363 1.139zm.816-2.72c.816 0 1.394-.731 1.394-1.785 0-1.037-.578-1.802-1.394-1.802s-1.394.765-1.394 1.802c0 1.054.578 1.785 1.394 1.785zm9.02 2.72c-1.989 0-3.094-.595-3.604-1.037l.986-2.176c.68.459 1.309.731 2.635.731.034 0 .85-.051.85-.391 0-.272-.51-.323-1.02-.442-1.887-.459-3.281-1.224-3.281-2.822 0-1.904 1.734-2.89 3.57-2.89 1.683 0 2.686.374 3.519.816l-.918 2.074c-1.003-.391-1.921-.51-2.499-.51-.306 0-.544.102-.544.272 0 .323.731.442 1.598.68 1.224.357 2.703.952 2.703 2.703 0 2.329-2.363 2.992-3.995 2.992zm6.824 0c-.969 0-1.683-.731-1.683-1.666 0-.935.714-1.666 1.683-1.666.986 0 1.717.731 1.717 1.666 0 .935-.731 1.666-1.717 1.666z" fill="#0B2E54"/></svg>