<svg width="242" height="16" viewBox="0 0 242 16" fill="none" xmlns="http://www.w3.org/2000/svg"><path d="M.52 13L5.236 1.336h3.528L13.48 13H9.988l-.54-1.512H4.552L4.012 13H.52zm4.95-4.14h3.06L7.144 4.918C7.036 4.63 7.018 4.522 7 4.45c0 0-.036.162-.144.468L5.47 8.86zm9.06 6.786V3.802h3.096v1.026c.738-.99 1.764-1.206 2.502-1.206 2.556 0 3.942 2.124 3.942 4.77 0 2.664-1.476 4.788-4.05 4.788-.738 0-1.656-.252-2.214-.954v3.42H14.53zm4.716-5.346c.864 0 1.476-.774 1.476-1.89 0-1.098-.612-1.908-1.476-1.908s-1.476.81-1.476 1.908c0 1.116.612 1.89 1.476 1.89zm6.257 2.7V3.802h3.186V5.44c.054-.396.846-1.818 3.006-1.818v3.564c-2.376 0-2.916.99-2.916 2.718V13h-3.276zm12.443.18c-2.79 0-5.166-1.746-5.166-4.77 0-2.664 2.07-4.788 4.788-4.788 2.61 0 4.608 2.124 4.608 4.788 0 .558-.072 1.062-.072 1.062h-6.102c.27.864 1.08 1.188 1.962 1.188.774 0 1.602-.234 2.178-.558l1.098 2.214c-1.026.63-2.16.864-3.294.864zm-2.034-5.562h3.276c-.108-.846-.774-1.422-1.62-1.422-.81 0-1.458.576-1.656 1.422zM43.617 13V3.802h3.096v1.062c.846-.99 1.854-1.242 2.772-1.242 2.322 0 3.222 1.368 3.222 4.068V13H49.43V8.104c0-1.044-.396-1.422-1.026-1.422-1.008 0-1.512.846-1.512 1.98V13h-3.276zM58 13.18c-2.556 0-3.942-2.124-3.942-4.77 0-2.664 1.476-4.788 4.05-4.788.738 0 1.656.252 2.214.954v-3.42h3.276V13h-3.096v-1.026c-.486.936-1.764 1.206-2.502 1.206zm.864-2.88c.864 0 1.476-.774 1.476-1.89 0-1.098-.612-1.908-1.476-1.908s-1.476.81-1.476 1.908c0 1.116.612 1.89 1.476 1.89zm11.333 2.88c-2.79 0-5.166-1.746-5.166-4.77 0-2.664 2.07-4.788 4.788-4.788 2.61 0 4.608 2.124 4.608 4.788 0 .558-.072 1.062-.072 1.062h-6.102c.27.864 1.08 1.188 1.962 1.188.774 0 1.602-.234 2.178-.558l1.098 2.214c-1.026.63-2.16.864-3.294.864zm-2.034-5.562h3.276c-.108-.846-.774-1.422-1.62-1.422-.81 0-1.458.576-1.656 1.422zM83.8 13.18c-2.556 0-3.942-2.124-3.942-4.77 0-2.664 1.386-4.788 3.942-4.788.738 0 1.962.252 2.502 1.206V3.802h3.096V13h-3.096v-1.026c-.504.936-1.764 1.206-2.502 1.206zm.864-2.88c.864 0 1.476-.774 1.476-1.89 0-1.098-.612-1.908-1.476-1.908s-1.476.81-1.476 1.908c0 1.116.612 1.89 1.476 1.89zm14.279 2.88c-2.556 0-3.942-2.124-3.942-4.77 0-2.664 1.476-4.788 4.05-4.788.738 0 1.656.252 2.214.954v-3.42h3.276V13h-3.096v-1.026c-.486.936-1.764 1.206-2.502 1.206zm.864-2.88c.864 0 1.476-.774 1.476-1.89 0-1.098-.612-1.908-1.476-1.908s-1.476.81-1.476 1.908c0 1.116.612 1.89 1.476 1.89zm11.333 2.88c-2.79 0-5.166-1.746-5.166-4.77 0-2.664 2.07-4.788 4.788-4.788 2.61 0 4.608 2.124 4.608 4.788 0 .558-.072 1.062-.072 1.062h-6.102c.27.864 1.08 1.188 1.962 1.188.774 0 1.602-.234 2.178-.558l1.098 2.214c-1.026.63-2.16.864-3.294.864zm-2.034-5.562h3.276c-.108-.846-.774-1.422-1.62-1.422-.81 0-1.458.576-1.656 1.422zm11.377 5.562c-1.764 0-2.916-1.134-2.916-3.15V6.394h-1.35V3.802h1.35V2.146l3.276-.81v2.466h2.034v2.592h-2.034v3.384c0 .432.216.576.504.576.27 0 .594-.126.828-.288l.882 2.394c-.792.558-1.764.72-2.574.72zm8.595 0c-2.79 0-5.166-1.746-5.166-4.77 0-2.664 2.07-4.788 4.788-4.788 2.61 0 4.608 2.124 4.608 4.788 0 .558-.072 1.062-.072 1.062h-6.102c.27.864 1.08 1.188 1.962 1.188.774 0 1.602-.234 2.178-.558l1.098 2.214c-1.026.63-2.16.864-3.294.864zm-2.034-5.562h3.276c-.108-.846-.774-1.422-1.62-1.422-.81 0-1.458.576-1.656 1.422zm12.493 5.562c-2.826 0-4.968-2.124-4.968-4.77 0-2.664 2.142-4.788 4.968-4.788 1.26 0 2.286.378 3.258 1.152l-1.89 2.268c-.342-.324-.72-.54-1.278-.54-1.062 0-1.746.81-1.746 1.908 0 1.116.666 1.89 1.818 1.89.63 0 1.152-.27 1.548-.666l1.638 2.412c-.882.738-2.052 1.134-3.348 1.134zm8.116 0c-1.764 0-2.916-1.134-2.916-3.15V6.394h-1.35V3.802h1.35V2.146l3.276-.81v2.466h2.034v2.592h-2.034v3.384c0 .432.216.576.504.576.27 0 .594-.126.828-.288l.882 2.394c-.792.558-1.764.72-2.574.72zm7.372 0c-2.556 0-3.942-2.124-3.942-4.77 0-2.664 1.386-4.788 3.942-4.788.738 0 1.962.252 2.502 1.206V3.802h3.096V13h-3.096v-1.026c-.504.936-1.764 1.206-2.502 1.206zm.864-2.88c.864 0 1.476-.774 1.476-1.89 0-1.098-.612-1.908-1.476-1.908s-1.476.81-1.476 1.908c0 1.116.612 1.89 1.476 1.89zm6.347 2.7V3.802h3.186V5.44c.054-.396.846-1.818 3.006-1.818v3.564c-2.376 0-2.916.99-2.916 2.718V13h-3.276zm16.613.18c-2.79 0-5.166-1.746-5.166-4.77 0-2.664 2.07-4.788 4.788-4.788 2.61 0 4.608 2.124 4.608 4.788 0 .558-.072 1.062-.072 1.062h-6.102c.27.864 1.08 1.188 1.962 1.188.774 0 1.602-.234 2.178-.558l1.098 2.214c-1.026.63-2.16.864-3.294.864zm-2.034-5.562h3.276c-.108-.846-.774-1.422-1.62-1.422-.81 0-1.458.576-1.656 1.422zm11.089 5.562c-2.106 0-3.276-.63-3.816-1.098l1.044-2.304c.72.486 1.386.774 2.79.774.036 0 .9-.054.9-.414 0-.288-.54-.342-1.08-.468-1.998-.486-3.474-1.296-3.474-2.988 0-2.016 1.836-3.06 3.78-3.06 1.782 0 2.844.396 3.726.864l-.972 2.196c-1.062-.414-2.034-.54-2.646-.54-.324 0-.576.108-.576.288 0 .342.774.468 1.692.72 1.296.378 2.862 1.008 2.862 2.862 0 2.466-2.502 3.168-4.23 3.168zm9.152 0c-1.764 0-2.916-1.134-2.916-3.15V6.394h-1.35V3.802h1.35V2.146l3.276-.81v2.466h2.034v2.592h-2.034v3.384c0 .432.216.576.504.576.27 0 .594-.126.828-.288l.882 2.394c-.792.558-1.764.72-2.574.72zm7.371 0c-2.556 0-3.942-2.124-3.942-4.77 0-2.664 1.386-4.788 3.942-4.788.738 0 1.962.252 2.502 1.206V3.802h3.096V13h-3.096v-1.026c-.504.936-1.764 1.206-2.502 1.206zm.864-2.88c.864 0 1.476-.774 1.476-1.89 0-1.098-.612-1.908-1.476-1.908s-1.476.81-1.476 1.908c0 1.116.612 1.89 1.476 1.89zm6.887 2.7V6.466h-1.386V3.874h1.386v-.576c0-2.016 1.152-3.15 2.916-3.15.81 0 1.782.126 2.574.522l-.882 2.394a2.052 2.052 0 00-.72-.144c-.342 0-.612.18-.612.756v.198h1.8v2.592h-1.8V13h-3.276zm9.765.18c-2.556 0-3.942-2.124-3.942-4.77 0-2.664 1.386-4.788 3.942-4.788.738 0 1.962.252 2.502 1.206V3.802h3.096V13h-3.096v-1.026c-.504.936-1.764 1.206-2.502 1.206zm.864-2.88c.864 0 1.476-.774 1.476-1.89 0-1.098-.612-1.908-1.476-1.908s-1.476.81-1.476 1.908c0 1.116.612 1.89 1.476 1.89zm9.731 2.88c-2.106 0-3.276-.63-3.816-1.098l1.044-2.304c.72.486 1.386.774 2.79.774.036 0 .9-.054.9-.414 0-.288-.54-.342-1.08-.468-1.998-.486-3.474-1.296-3.474-2.988 0-2.016 1.836-3.06 3.78-3.06 1.782 0 2.844.396 3.726.864l-.972 2.196c-1.062-.414-2.034-.54-2.646-.54-.324 0-.576.108-.576.288 0 .342.774.468 1.692.72 1.296.378 2.862 1.008 2.862 2.862 0 2.466-2.502 3.168-4.23 3.168zm7.406 0c-1.026 0-1.782-.774-1.782-1.764s.756-1.764 1.782-1.764c1.044 0 1.818.774 1.818 1.764s-.774 1.764-1.818 1.764z" fill="#0B2E54"/></svg>