<svg width="156" height="110" viewBox="0 0 156 110" fill="none" xmlns="http://www.w3.org/2000/svg"><path d="M4.83 19.718c-2.75 0-4.598-2.002-4.598-4.51 0-2.244 1.606-4.026 3.806-4.356l.176-1.87h1.43l.198 2.97c-2.42.022-3.894 1.43-3.894 3.278 0 1.562 1.298 2.86 2.948 2.86 1.32 0 2.354-.682 2.882-1.892l1.386.66c-.682 1.782-2.244 2.86-4.334 2.86zm.088-12.364a1.174 1.174 0 01-1.166-1.166c0-.66.528-1.166 1.166-1.166.66 0 1.166.506 1.166 1.166 0 .638-.528 1.166-1.166 1.166zM11.092 16V1.744h10.78v1.54h-9.02v4.334H21.3v1.518h-8.448v5.324h9.35V16h-11.11zm21.896 3.102V14.13c-.792 1.386-2.31 2.09-4.026 2.09-2.97 0-5.06-2.464-5.06-5.588s2.09-5.566 5.06-5.566c1.738 0 3.3.682 4.092 2.068V5.286h1.606v13.816h-1.672zm-3.652-4.51c2.046 0 3.652-1.716 3.652-3.96 0-2.244-1.606-3.938-3.652-3.938-2.134 0-3.718 1.672-3.718 3.938 0 2.288 1.584 3.96 3.718 3.96zm11.85 1.628c-2.64 0-3.894-1.386-3.894-4.246V5.286h1.672v6.468c0 2.002.968 2.838 2.706 2.838 1.936 0 3.058-1.584 3.058-3.234V5.286H46.4V16h-1.605v-1.892c-.66 1.386-2.2 2.112-3.608 2.112zm8.035-.22V5.286h1.672V16H49.22zm.836-12.628a1.09 1.09 0 01-1.1-1.1c0-.616.483-1.122 1.1-1.122.615 0 1.121.506 1.121 1.122 0 .616-.505 1.1-1.121 1.1zm3.654 15.73V5.286h1.606v1.848c.792-1.386 2.354-2.068 4.092-2.068 2.97 0 5.06 2.442 5.06 5.566 0 3.124-2.09 5.588-5.06 5.588-1.694 0-3.234-.704-4.026-2.09v4.972H53.71zm5.324-4.51c2.134 0 3.718-1.672 3.718-3.96 0-2.266-1.584-3.938-3.718-3.938-2.046 0-3.652 1.694-3.652 3.938s1.606 3.96 3.652 3.96zM72.03 16.22c-3.146 0-5.632-2.464-5.632-5.566 0-3.124 2.486-5.588 5.632-5.588 3.146 0 5.632 2.464 5.632 5.588 0 3.102-2.486 5.566-5.632 5.566zm0-1.628c2.222 0 3.916-1.694 3.916-3.938 0-2.266-1.694-3.96-3.916-3.96s-3.916 1.694-3.916 3.96c0 2.244 1.694 3.938 3.916 3.938zM84.82 16V5.286h1.672v1.848c.594-1.166 1.936-2.068 3.432-2.068 1.716 0 2.926.748 3.432 2.266.77-1.562 2.442-2.266 3.696-2.266 2.574 0 3.938 1.496 3.938 4.444V16h-1.694V9.73c0-1.826-.638-3.036-2.596-3.036-1.804 0-2.948 1.452-2.948 3.058V16h-1.694V9.73c0-1.826-.638-3.036-2.574-3.036-1.87 0-2.992 1.584-2.992 3.146V16H84.82zm22.583-12.43l1.782-2.926h1.826l-2.068 2.926h-1.54zm1.364 12.65c-3.036 0-5.61-2.178-5.61-5.566 0-3.102 2.332-5.588 5.39-5.588 2.86 0 5.126 2.464 5.126 5.522 0 .308-.044.638-.044.66h-8.734c.264 2.134 1.914 3.476 3.894 3.476 1.21 0 2.42-.418 3.3-1.144l.726 1.232a6.556 6.556 0 01-4.048 1.408zm-3.872-6.248h7.128c-.176-1.98-1.694-3.41-3.564-3.41-1.826 0-3.322 1.408-3.564 3.41zm15.783 6.248c-2.97 0-5.06-2.464-5.06-5.566 0-3.146 2.09-5.588 5.06-5.588 1.716 0 3.234.704 4.026 2.09V1.524h1.672V16h-1.606v-1.87c-.792 1.408-2.354 2.09-4.092 2.09zm.374-1.628c2.046 0 3.652-1.694 3.652-3.938s-1.606-3.96-3.652-3.96c-2.134 0-3.718 1.672-3.718 3.96 0 2.266 1.584 3.938 3.718 3.938zM129.185 16V5.286h1.672V16h-1.672zm.836-12.628a1.09 1.09 0 01-1.1-1.1c0-.616.484-1.122 1.1-1.122.616 0 1.122.506 1.122 1.122 0 .616-.506 1.1-1.122 1.1zm8.847 12.848c-3.146 0-5.632-2.442-5.632-5.566 0-3.124 2.486-5.588 5.632-5.588 1.474 0 2.816.528 3.828 1.43l-1.056 1.188c-.66-.616-1.628-.99-2.75-.99-2.244 0-3.938 1.672-3.938 3.96 0 2.222 1.628 3.938 3.982 3.938 1.21 0 2.31-.462 3.058-1.21l.968 1.254c-1.034.99-2.486 1.584-4.092 1.584zm11.043 0c-3.146 0-5.632-2.464-5.632-5.566 0-3.124 2.486-5.588 5.632-5.588 3.146 0 5.632 2.464 5.632 5.588 0 3.102-2.486 5.566-5.632 5.566zm0-1.628c2.222 0 3.916-1.694 3.916-3.938 0-2.266-1.694-3.96-3.916-3.96s-3.916 1.694-3.916 3.96c0 2.244 1.694 3.938 3.916 3.938zM7.792 37.508v-8.652H11.6v8.652H7.792zm-6.384 0v-8.652h3.808v8.652H1.408zm21.948 13.608c-2.8 0-4.984-.644-6.272-1.512l1.82-3.192c1.12.728 2.744.924 3.892.924 1.848 0 2.8-.84 3.136-1.764.112-.28.168-.56.168-.84-.784 1.036-2.324 1.428-3.472 1.428-3.976 0-6.272-3.08-6.272-6.86 0-3.808 2.296-6.888 6.272-6.888 1.148 0 2.968.42 3.752 1.876v-1.596h4.816v10.416c0 4.088-1.82 8.008-7.84 8.008zm.476-9.352c1.344 0 2.296-1.008 2.296-2.464s-.952-2.492-2.296-2.492c-1.344 0-2.296 1.036-2.296 2.492s.952 2.464 2.296 2.464zM33.288 47V32.692h4.956v2.548c.084-.616 1.316-2.828 4.676-2.828v5.544c-3.696 0-4.536 1.54-4.536 4.228V47h-5.096zm17.172.28c-3.976 0-6.132-3.304-6.132-7.42 0-4.144 2.156-7.448 6.132-7.448 1.148 0 3.052.392 3.892 1.876v-1.596h4.816V47h-4.816v-1.596c-.784 1.456-2.744 1.876-3.892 1.876zm1.344-4.48c1.344 0 2.296-1.204 2.296-2.94 0-1.708-.952-2.968-2.296-2.968-1.344 0-2.296 1.26-2.296 2.968 0 1.736.952 2.94 2.296 2.94zm15.305 4.48c-2.744 0-4.536-1.764-4.536-4.9v-5.656h-2.1v-4.032h2.1v-2.576l5.096-1.26v3.836h3.164v4.032H67.67v5.264c0 .672.336.896.784.896.42 0 .924-.196 1.288-.448l1.372 3.724c-1.232.868-2.744 1.12-4.004 1.12zm5.335-.28V32.692h5.096V47h-5.096zm2.52-15.4c-1.568 0-2.884-1.316-2.884-2.884 0-1.596 1.316-2.912 2.884-2.912 1.624 0 2.94 1.316 2.94 2.912 0 1.568-1.316 2.884-2.94 2.884zm10.072 15.68c-3.276 0-5.096-.98-5.936-1.708l1.624-3.584c1.12.756 2.156 1.204 4.34 1.204.056 0 1.4-.084 1.4-.644 0-.448-.84-.532-1.68-.728-3.108-.756-5.404-2.016-5.404-4.648 0-3.136 2.856-4.76 5.88-4.76 2.772 0 4.424.616 5.796 1.344l-1.512 3.416c-1.652-.644-3.164-.84-4.116-.84-.504 0-.896.168-.896.448 0 .532 1.204.728 2.632 1.12 2.016.588 4.452 1.568 4.452 4.452 0 3.836-3.892 4.928-6.58 4.928zm15.916-9.772v-8.652h3.808v8.652h-3.808zm-6.384 0v-8.652h3.808v8.652h-3.808zM.536 81.384V66.312h1.752v2.016c.864-1.512 2.568-2.256 4.464-2.256 3.24 0 5.52 2.664 5.52 6.072s-2.28 6.096-5.52 6.096c-1.848 0-3.528-.768-4.392-2.28v5.424H.536zm5.808-4.92c2.328 0 4.056-1.824 4.056-4.32 0-2.472-1.728-4.296-4.056-4.296-2.232 0-3.984 1.848-3.984 4.296 0 2.448 1.752 4.32 3.984 4.32zM20.52 78.24c-3.432 0-6.144-2.688-6.144-6.072 0-3.408 2.712-6.096 6.144-6.096s6.144 2.688 6.144 6.096c0 3.384-2.712 6.072-6.144 6.072zm0-1.776c2.424 0 4.272-1.848 4.272-4.296 0-2.472-1.848-4.32-4.272-4.32-2.424 0-4.272 1.848-4.272 4.32 0 2.448 1.848 4.296 4.272 4.296zM29.247 78V66.312h1.824v2.472c.672-1.536 2.184-2.712 4.512-2.712v1.992c-2.736 0-4.512 1.536-4.512 4.392V78h-1.824zm17.576.24c-2.064 0-3.288-1.008-3.288-3.744v-6.672h-1.752v-1.512h1.752v-2.52l1.824-.336v2.856h3.984v1.512h-3.984v6.72c0 1.608.696 2.064 1.632 2.064 1.08 0 1.92-.648 1.92-.648l.6 1.416c-.456.312-1.416.864-2.688.864zm8.91 0c-2.88 0-4.248-1.512-4.248-4.632v-7.296h1.824v7.056c0 2.184 1.056 3.096 2.952 3.096 2.112 0 3.336-1.728 3.336-3.528v-6.624h1.824V78h-1.752v-2.064c-.72 1.512-2.4 2.304-3.936 2.304zm13.99-.24V66.312h1.825v1.992c.816-1.416 2.328-2.232 4.055-2.232 2.928 0 4.225 1.776 4.225 4.848V78h-1.825v-6.84c0-2.16-.791-3.312-2.903-3.312-2.088 0-3.552 1.632-3.552 3.576V78h-1.825zm16.393-13.56l1.944-3.192h1.992l-2.256 3.192h-1.68zm.648 13.8c-2.88 0-4.248-1.512-4.248-4.632v-7.296h1.824v7.056c0 2.184 1.056 3.096 2.952 3.096 2.112 0 3.336-1.728 3.336-3.528v-6.624h1.824V78H90.7v-2.064c-.72 1.512-2.4 2.304-3.936 2.304zm8.764-.24V66.312h1.824v2.016c.648-1.272 2.112-2.256 3.744-2.256 1.872 0 3.192.816 3.744 2.472.84-1.704 2.664-2.472 4.032-2.472 2.808 0 4.296 1.632 4.296 4.848V78h-1.848v-6.84c0-1.992-.696-3.312-2.832-3.312-1.968 0-3.216 1.584-3.216 3.336V78h-1.848v-6.84c0-1.992-.696-3.312-2.808-3.312-2.04 0-3.264 1.728-3.264 3.432V78h-1.824zm26.125.24c-3.312 0-6.12-2.376-6.12-6.072 0-3.384 2.544-6.096 5.88-6.096 3.12 0 5.592 2.688 5.592 6.024 0 .336-.048.696-.048.72h-9.528c.288 2.328 2.088 3.792 4.248 3.792 1.32 0 2.64-.456 3.6-1.248l.792 1.344a7.152 7.152 0 01-4.416 1.536zm-4.224-6.816h7.776c-.192-2.16-1.848-3.72-3.888-3.72-1.992 0-3.624 1.536-3.888 3.72zM129.606 78V66.312h1.824v2.472c.672-1.536 2.184-2.712 4.512-2.712v1.992c-2.736 0-4.512 1.536-4.512 4.392V78h-1.824zm13.867.24c-3.432 0-6.144-2.688-6.144-6.072 0-3.408 2.712-6.096 6.144-6.096s6.144 2.688 6.144 6.096c0 3.384-2.712 6.072-6.144 6.072zm0-1.776c2.424 0 4.272-1.848 4.272-4.296 0-2.472-1.848-4.32-4.272-4.32-2.424 0-4.272 1.848-4.272 4.32 0 2.448 1.848 4.296 4.272 4.296zM5.576 109.24c-3.24 0-5.52-2.688-5.52-6.072 0-3.432 2.28-6.096 5.52-6.096 1.872 0 3.528.768 4.392 2.28v-6.144h1.824V109H10.04v-2.04c-.864 1.536-2.568 2.28-4.464 2.28zm.408-1.776c2.232 0 3.984-1.848 3.984-4.296 0-2.448-1.752-4.32-3.984-4.32-2.328 0-4.056 1.824-4.056 4.32 0 2.472 1.728 4.296 4.056 4.296zm14.512 1.776c-3.312 0-6.12-2.376-6.12-6.072 0-3.384 2.544-6.096 5.88-6.096 3.12 0 5.592 2.688 5.592 6.024 0 .336-.048.696-.048.72h-9.528c.288 2.328 2.088 3.792 4.248 3.792 1.32 0 2.64-.456 3.6-1.248l.792 1.344a7.152 7.152 0 01-4.416 1.536zm-4.224-6.816h7.776c-.192-2.16-1.848-3.72-3.888-3.72-1.992 0-3.624 1.536-3.888 3.72zM33.461 109V93.448h3.888l3.048 4.368c.504.744 1.32 2.016 1.32 2.016s.816-1.272 1.32-2.016l3.048-4.368h3.888V109h-4.56v-7.872S44.62 102.4 44.189 103l-2.472 3.456L39.22 103c-.432-.6-1.2-1.824-1.2-1.824V109h-4.56zm25.436.24c-3.72 0-6.888-2.328-6.888-6.36 0-3.552 2.76-6.384 6.384-6.384 3.48 0 6.144 2.832 6.144 6.384 0 .744-.096 1.416-.096 1.416h-8.136c.36 1.152 1.44 1.584 2.616 1.584 1.032 0 2.136-.312 2.904-.744l1.464 2.952c-1.368.84-2.88 1.152-4.392 1.152zm-2.712-7.416h4.368c-.144-1.128-1.032-1.896-2.16-1.896-1.08 0-1.944.768-2.208 1.896zm15.049 7.416c-3.408 0-5.256-2.832-5.256-6.36 0-3.552 1.968-6.384 5.4-6.384.984 0 2.208.336 2.952 1.272v-4.56h4.368V109H74.57v-1.368c-.648 1.248-2.352 1.608-3.336 1.608zm1.152-3.84c1.152 0 1.968-1.032 1.968-2.52 0-1.464-.816-2.544-1.968-2.544-1.152 0-1.968 1.08-1.968 2.544 0 1.488.816 2.52 1.968 2.52zm8.222 3.6V96.736h4.368V109h-4.368zm2.16-13.2c-1.344 0-2.472-1.128-2.472-2.472 0-1.368 1.128-2.496 2.472-2.496 1.392 0 2.52 1.128 2.52 2.496 0 1.344-1.128 2.472-2.52 2.472zm10.506 13.44c-3.768 0-6.624-2.832-6.624-6.36 0-3.552 2.856-6.384 6.624-6.384 1.68 0 3.048.504 4.344 1.536l-2.52 3.024c-.456-.432-.96-.72-1.704-.72-1.416 0-2.328 1.08-2.328 2.544 0 1.488.888 2.52 2.424 2.52.84 0 1.536-.36 2.064-.888l2.184 3.216c-1.176.984-2.736 1.512-4.464 1.512zm10.304 0c-3.408 0-5.256-2.832-5.256-6.36 0-3.552 1.848-6.384 5.256-6.384.984 0 2.616.336 3.336 1.608v-1.368h4.128V109h-4.128v-1.368c-.672 1.248-2.352 1.608-3.336 1.608zm1.152-3.84c1.152 0 1.968-1.032 1.968-2.52 0-1.464-.816-2.544-1.968-2.544-1.152 0-1.968 1.08-1.968 2.544 0 1.488.816 2.52 1.968 2.52zm8.222 3.6V96.736h4.248v2.184c.072-.528 1.128-2.424 4.008-2.424v4.752c-3.168 0-3.888 1.32-3.888 3.624V109h-4.368zm16.351.24c-3.72 0-6.888-2.328-6.888-6.36 0-3.552 2.76-6.384 6.384-6.384 3.48 0 6.144 2.832 6.144 6.384 0 .744-.096 1.416-.096 1.416h-8.136c.36 1.152 1.44 1.584 2.616 1.584 1.032 0 2.136-.312 2.904-.744l1.464 2.952c-1.368.84-2.88 1.152-4.392 1.152zm-2.712-7.416h4.368c-.144-1.128-1.032-1.896-2.16-1.896-1.08 0-1.944.768-2.208 1.896zm15.205-11.248c3.5 0 5.852 2.548 5.852 5.74 0 2.856-2.044 5.124-4.844 5.544l-.224 2.38h-1.82l-.252-3.78c3.08-.028 4.956-1.82 4.956-4.172 0-1.988-1.652-3.64-3.752-3.64-1.68 0-2.996.868-3.668 2.408l-1.764-.84c.868-2.268 2.856-3.64 5.516-3.64zm-.112 15.736c.812 0 1.484.672 1.484 1.484 0 .84-.672 1.484-1.484 1.484-.84 0-1.484-.644-1.484-1.484 0-.812.672-1.484 1.484-1.484z" fill="#42443C"/></svg>