<svg width="200" height="116" viewBox="0 0 200 116" fill="none" xmlns="http://www.w3.org/2000/svg"><path fill="#FCD77D" d="M3 105h135v11H3z"/><path d="M2.475 60V30.84H25.65v7.245H11.025v3.555h14.04v7.155h-14.04v3.96H26.19V60H2.475zm34.9.45c-5.266 0-8.19-1.575-9.54-2.745l2.61-5.76c1.8 1.215 3.464 1.935 6.974 1.935.09 0 2.25-.135 2.25-1.035 0-.72-1.35-.855-2.7-1.17-4.995-1.215-8.685-3.24-8.685-7.47 0-5.04 4.59-7.65 9.45-7.65 4.455 0 7.11.99 9.315 2.16l-2.43 5.49c-2.655-1.035-5.085-1.35-6.615-1.35-.81 0-1.44.27-1.44.72 0 .855 1.935 1.17 4.23 1.8 3.24.945 7.155 2.52 7.155 7.155 0 6.165-6.255 7.92-10.575 7.92zm31.369 0c-6.93 0-8.37-4.32-8.37-10.17V37.005h8.19v12.24c0 2.43.81 3.555 2.97 3.555 2.475 0 3.375-2.115 3.375-4.95V37.005h8.19V60h-7.74v-2.52c-1.26 1.62-4.23 2.97-6.615 2.97zM86.702 60V37.005h7.74v2.655c2.115-2.475 4.635-3.105 6.93-3.105 5.805 0 8.055 3.42 8.055 10.17V60h-8.19V47.76c0-2.61-.99-3.555-2.565-3.555-2.52 0-3.78 2.115-3.78 4.95V60h-8.19zm35.509.45c-6.39 0-9.855-5.31-9.855-11.925 0-6.66 3.465-11.97 9.855-11.97 1.845 0 4.905.63 6.255 3.015v-2.565h7.74V60h-7.74v-2.565c-1.26 2.34-4.41 3.015-6.255 3.015zm2.16-7.2c2.16 0 3.69-1.935 3.69-4.725 0-2.745-1.53-4.77-3.69-4.77s-3.69 2.025-3.69 4.77c0 2.79 1.53 4.725 3.69 4.725zM14.582 108.46c-7.13 0-13.202-4.462-13.202-12.19 0-6.808 5.29-12.236 12.236-12.236 6.67 0 11.776 5.428 11.776 12.236 0 1.426-.184 2.714-.184 2.714H9.614c.69 2.208 2.76 3.036 5.014 3.036 1.978 0 4.094-.598 5.566-1.426L23 106.252c-2.622 1.61-5.52 2.208-8.418 2.208zM9.384 94.246h8.372c-.276-2.162-1.978-3.634-4.14-3.634-2.07 0-3.726 1.472-4.232 3.634zm27.877 14.214c-5.382 0-8.372-1.61-9.752-2.806l2.668-5.888c1.84 1.242 3.542 1.978 7.13 1.978.092 0 2.3-.138 2.3-1.058 0-.736-1.38-.874-2.76-1.196-5.106-1.242-8.878-3.312-8.878-7.636 0-5.152 4.692-7.82 9.66-7.82 4.554 0 7.268 1.012 9.522 2.208l-2.484 5.612c-2.714-1.058-5.198-1.38-6.762-1.38-.828 0-1.472.276-1.472.736 0 .874 1.978 1.196 4.324 1.84 3.312.966 7.314 2.576 7.314 7.314 0 6.302-6.394 8.096-10.81 8.096zm22.928 0c-4.508 0-7.452-2.898-7.452-8.05v-9.292h-3.45v-6.624h3.45v-4.232l8.372-2.07v6.302h5.198v6.624h-5.198v8.648c0 1.104.552 1.472 1.288 1.472.69 0 1.518-.322 2.116-.736l2.254 6.118c-2.024 1.426-4.508 1.84-6.578 1.84zm18.378 0c-6.532 0-10.074-5.428-10.074-12.19 0-6.808 3.542-12.236 10.074-12.236 1.886 0 5.014.644 6.394 3.082v-2.622h7.912V108h-7.912v-2.622c-1.288 2.392-4.508 3.082-6.394 3.082zm2.208-7.36c2.208 0 3.772-1.978 3.772-4.83 0-2.806-1.564-4.876-3.772-4.876-2.208 0-3.772 2.07-3.772 4.876 0 2.852 1.564 4.83 3.772 4.83zm17.14 6.9V91.302h-3.542v-6.624h3.542v-1.472c0-5.152 2.944-8.05 7.452-8.05 2.07 0 4.554.322 6.578 1.334l-2.254 6.118c-.598-.23-1.242-.368-1.84-.368-.874 0-1.564.46-1.564 1.932v.506h4.6v6.624h-4.6V108h-8.372zm24.496.46c-6.532 0-10.074-5.428-10.074-12.19 0-6.808 3.542-12.236 10.074-12.236 1.886 0 5.014.644 6.394 3.082v-2.622h7.912V108h-7.912v-2.622c-1.288 2.392-4.508 3.082-6.394 3.082zm2.208-7.36c2.208 0 3.772-1.978 3.772-4.83 0-2.806-1.564-4.876-3.772-4.876-2.208 0-3.772 2.07-3.772 4.876 0 2.852 1.564 4.83 3.772 4.83zm20.682 7.36c-2.622 0-4.554-1.978-4.554-4.508 0-2.53 1.932-4.508 4.554-4.508 2.668 0 4.646 1.978 4.646 4.508 0 2.53-1.978 4.508-4.646 4.508z" fill="#42443C"/></svg>