<svg width="128" height="25" viewBox="0 0 128 25" fill="none" xmlns="http://www.w3.org/2000/svg"><path d="M4.884 2.884c-.024-.144-.06-.192-.144-.228a2.856 2.856 0 00-.876-.132c-.9 0-1.344.408-1.344 1.02 0 .792.816 1.008 1.728 1.284 1.14.348 2.412.78 2.412 2.58 0 1.968-1.536 2.736-3.372 2.736-1.08 0-2.292-.276-2.748-.492v-2.34h1.344l.24 1.14c.036.156.048.18.204.216.144.036.552.132 1.008.132.972 0 1.512-.384 1.512-1.116 0-.768-.684-1.008-1.488-1.236C2.172 6.112.708 5.788.708 3.856c0-1.848 1.392-2.7 3.216-2.7 1.032 0 1.92.252 2.46.48v2.34l-1.356-.12-.144-.972zm5.23-1.176c0 .684-.397 1.08-1.093 1.08-.684 0-1.08-.396-1.08-1.08S8.337.652 9.021.652c.696 0 1.092.372 1.092 1.056zm-2.64 7.344l.611-.084c.168-.024.192-.06.192-.24V5.2c0-.132-.036-.216-.156-.252l-.648-.228.132-.972h2.484v4.98c0 .192.012.216.192.24l.612.084V10h-3.42v-.948zm10.446.3l-.06-.012c-.456.444-1.056.804-2.016.804-1.512 0-1.752-1.032-1.752-1.776 0-1.2.732-1.74 2.244-1.848l1.38-.096v-.66c0-.564-.06-.948-.804-.948-.576 0-.876.084-.876.804l-1.692-.144c0-1.62 1.476-1.848 2.58-1.848 1.824 0 2.556.492 2.556 2.172v2.916c0 .192.012.216.192.24l.576.096V10H18.04l-.12-.648zM16.9 7.48c-.708.048-.96.228-.96.708s.288.66.684.66c.408 0 .816-.228 1.092-.432V7.42l-.816.06zm3.848 1.572l.6-.084c.168-.024.192-.06.192-.24V2.392c0-.132-.036-.216-.156-.252l-.66-.228.132-.972h2.496v7.788c0 .192.012.216.192.24l.588.084V10h-3.384v-.948zm9.232-4.2c.216.276.444.66.444 1.212 0 1.332-1.043 2.112-2.555 2.112-.384 0-.732-.048-.948-.108l-.396.636 1.176.072c2.087.132 3.3.192 3.3 1.788 0 1.38-1.213 2.16-3.3 2.16-2.172 0-3-.552-3-1.5 0-.54.24-.828.66-1.224-.396-.168-.529-.468-.529-.792 0-.264.133-.504.348-.732.216-.228.457-.456.744-.72-.587-.288-1.032-.912-1.032-1.8 0-1.38.913-2.328 2.748-2.328.517 0 .828.048 1.104.12h2.34v1.02l-1.104.084zm-1.14 1.044c0-.708-.407-1.08-1.091-1.08-.66 0-1.152.324-1.152 1.104 0 .588.323.996 1.115.996.672 0 1.128-.396 1.128-1.02zm-2.412 4.428c-.155.192-.312.396-.312.636 0 .48.613.624 1.453.624.696 0 1.643-.048 1.643-.696 0-.384-.456-.408-1.032-.444l-1.752-.12zm9.88-.972l-.06-.012c-.491.372-1.115.804-2.136.804-1.26 0-1.74-.72-1.74-2.112V5.104c0-.192-.011-.216-.191-.252l-.576-.12.12-.984h2.46V7.72c0 .732.12 1.008.636 1.008.528 0 .96-.3 1.236-.552V5.092c0-.192-.013-.204-.193-.24l-.515-.12.132-.984h2.387v4.98c0 .156.024.204.168.228l.6.084V10h-2.232l-.096-.648zm5.533-7.644c0 .684-.396 1.08-1.092 1.08-.684 0-1.08-.396-1.08-1.08S40.065.652 40.75.652c.696 0 1.092.372 1.092 1.056zm-2.64 7.344l.612-.084c.168-.024.192-.06.192-.24V5.2c0-.132-.036-.216-.156-.252l-.648-.228.132-.972h2.484v4.98c0 .192.012.216.192.24l.612.084V10h-3.42v-.948zm9.569.48c-.744.36-1.56.612-2.46.612-2.316 0-3.108-1.44-3.108-3.312 0-2.172 1.332-3.204 2.976-3.204 1.584 0 2.64.828 2.64 2.904 0 .144-.012.564-.024.804h-3.672c.06.852.432 1.416 1.416 1.416.468 0 .972-.108 1.788-.408l.444 1.188zm-1.728-3.336c-.012-1.008-.408-1.272-.9-1.272-.516 0-.936.288-1.008 1.272h1.908zm7-.072c0-.576-.035-1.056-.635-1.056-.444 0-.996.252-1.248.444v3.216c0 .192.012.216.192.24l.576.084V10h-3.312v-.96l.54-.072c.168-.024.192-.06.192-.24V5.2c0-.132-.036-.216-.156-.252l-.648-.228.144-.972h2.1l.096.624.048.024c.6-.444 1.296-.768 2.112-.768 1.308 0 1.812.72 1.812 2.04v3.06c0 .192.012.216.192.24l.6.084V10h-2.604V6.124zm10.37 3.54c-.515.252-1.271.48-1.955.48-1.428 0-1.968-.576-1.968-1.932V5.068c0-.072 0-.12-.096-.12h-.84V3.88c1.056-.12 1.476-.648 1.608-1.956h1.14v1.704c0 .084 0 .12.096.12h1.692v1.2H62.3v2.868c0 .708.168.984.816.984.336 0 .684-.084.972-.192l.324 1.056zm5.897-.132c-.744.36-1.56.612-2.46.612-2.316 0-3.108-1.44-3.108-3.312 0-2.172 1.332-3.204 2.976-3.204 1.584 0 2.64.828 2.64 2.904 0 .144-.012.564-.024.804H66.66c.06.852.432 1.416 1.416 1.416.468 0 .972-.108 1.788-.408l.444 1.188zM68.58 6.196c-.012-1.008-.408-1.272-.9-1.272-.516 0-.936.288-1.008 1.272h1.908zm5.106 5.388l.48-.072c.168-.024.216-.072.216-.252V5.2c0-.132-.024-.204-.156-.252l-.636-.228.132-.972h2.112l.108.612.06.024c.576-.468 1.356-.756 2.04-.756 1.344 0 2.304.84 2.304 3.072 0 1.44-.492 3.444-2.472 3.444a2.676 2.676 0 01-1.692-.6v1.704c0 .192.012.228.192.24l1.224.108v.948h-3.912v-.96zm2.496-3.3c.264.228.684.456 1.128.456.804 0 1.14-.768 1.14-1.944 0-1.236-.42-1.74-1.02-1.74-.504 0-.984.252-1.248.432v2.796zm7.528-6.576c0 .684-.396 1.08-1.092 1.08-.684 0-1.08-.396-1.08-1.08S81.935.652 82.62.652c.696 0 1.092.372 1.092 1.056zm-2.64 7.344l.612-.084c.168-.024.192-.06.192-.24V5.2c0-.132-.036-.216-.156-.252l-.648-.228.132-.972h2.484v4.98c0 .192.012.216.192.24l.612.084V10h-3.42v-.948zm8.442.276l-.084-.012c-.504.492-1.092.828-1.968.828-1.416 0-2.328-.9-2.328-3.192 0-2.412 1.212-3.324 2.544-3.324.696 0 1.236.24 1.692.576V2.38c0-.12-.048-.204-.156-.24l-.66-.228.132-.972h2.412v7.8c0 .18.012.204.192.228l.576.084V10h-2.232l-.12-.672zm-.216-3.948c-.3-.204-.684-.36-1.032-.36-.888 0-1.236.828-1.236 1.896 0 1.164.336 1.812 1.092 1.812.408 0 .852-.24 1.176-.516V5.38zm8.67 4.152c-.744.36-1.56.612-2.46.612-2.316 0-3.108-1.44-3.108-3.312 0-2.172 1.332-3.204 2.976-3.204 1.584 0 2.64.828 2.64 2.904 0 .144-.012.564-.024.804H94.32c.06.852.432 1.416 1.416 1.416.468 0 .972-.108 1.788-.408l.444 1.188zM96.24 6.196c-.012-1.008-.408-1.272-.9-1.272-.516 0-.936.288-1.008 1.272h1.908zm9.763 3.468c-.516.252-1.272.48-1.956.48-1.428 0-1.968-.576-1.968-1.932V5.068c0-.072 0-.12-.096-.12h-.84V3.88c1.056-.12 1.476-.648 1.608-1.956h1.14v1.704c0 .084 0 .12.096.12h1.692v1.2h-1.788v2.868c0 .708.168.984.816.984.336 0 .684-.084.972-.192l.324 1.056zm5.053-.312l-.06-.012c-.492.372-1.116.804-2.136.804-1.26 0-1.74-.72-1.74-2.112V5.104c0-.192-.012-.216-.192-.252l-.576-.12.12-.984h2.46V7.72c0 .732.12 1.008.636 1.008.528 0 .96-.3 1.236-.552V5.092c0-.192-.012-.204-.192-.24l-.516-.12.132-.984h2.388v4.98c0 .156.024.204.168.228l.6.084V10h-2.232l-.096-.648zM4.74 20.124c0-.576-.036-1.056-.636-1.056-.444 0-.996.252-1.248.444v3.216c0 .192.012.216.192.24l.576.084V24H.312v-.96l.54-.072c.168-.024.192-.06.192-.24V19.2c0-.132-.036-.216-.156-.252L.24 18.72l.144-.972h2.1l.096.624.048.024c.6-.444 1.296-.768 2.112-.768 1.308 0 1.812.72 1.812 2.04v3.06c0 .192.012.216.192.24l.6.084V24H4.74v-3.876zm7.695 3.228l-.06-.012c-.492.372-1.116.804-2.136.804-1.26 0-1.74-.72-1.74-2.112v-2.928c0-.192-.012-.216-.192-.252l-.576-.12.12-.984h2.46v3.972c0 .732.12 1.008.636 1.008.528 0 .96-.3 1.236-.552v-3.084c0-.192-.012-.204-.192-.24l-.516-.12.132-.984h2.388v4.98c0 .156.024.204.168.228l.6.084V24h-2.232l-.096-.648zM9.94 16.668l1.836-2.088.984.936-2.148 1.752-.672-.6zm13.057 3.456c0-.468-.048-1.032-.672-1.032-.336 0-.66.12-.972.324.024.192.036.384.036.588v2.724c0 .204.012.228.192.252l.48.072V24h-2.484v-3.936c0-.444-.036-.972-.636-.972-.36 0-.756.18-.996.384v3.252c0 .192.012.216.192.24l.588.084V24H15.4v-.948l.54-.084c.168-.024.192-.06.192-.24V19.2c0-.132-.036-.216-.156-.252l-.648-.228.132-.972h2.112l.096.624.06.012c.54-.444 1.152-.756 1.92-.756.588 0 1.128.156 1.464.72.396-.312 1.092-.72 1.932-.72 1.284 0 1.764.636 1.764 2.028v3.072c0 .192.012.228.192.252l.6.072V24h-2.604v-3.876zm8.768 3.408c-.744.36-1.56.612-2.46.612-2.316 0-3.108-1.44-3.108-3.312 0-2.172 1.332-3.204 2.976-3.204 1.584 0 2.64.828 2.64 2.904 0 .144-.012.564-.024.804h-3.672c.06.852.432 1.416 1.416 1.416.468 0 .972-.108 1.788-.408l.444 1.188zm-1.728-3.336c-.012-1.008-.408-1.272-.9-1.272-.516 0-.936.288-1.008 1.272h1.908zm2.572 2.832l.54-.072c.168-.024.192-.06.192-.24V19.2c0-.132-.036-.216-.156-.252l-.648-.228.132-.972h2.112l.144.96h.072c.396-.612.924-1.08 1.692-1.08.276 0 .828.048 1.044.108v2.184l-1.44-.048-.12-.636c-.024-.108-.06-.132-.156-.132-.312 0-.684.264-.864.42v3.18c0 .192.012.228.192.24l1.188.096V24h-3.924v-.972zm8.83 1.116c-2.196 0-3.084-1.344-3.084-3.228 0-1.992 1.044-3.288 3.24-3.288 2.22 0 3.084 1.32 3.084 3.156 0 2.04-1.032 3.36-3.24 3.36zm.084-1.26c.78 0 1.26-.54 1.26-2.04 0-1.416-.432-1.92-1.212-1.92-.792 0-1.32.492-1.32 1.932 0 1.452.468 2.028 1.272 2.028zm10.946.444l-.084-.012c-.504.492-1.092.828-1.968.828-1.416 0-2.328-.9-2.328-3.192 0-2.412 1.212-3.324 2.544-3.324.696 0 1.236.24 1.692.576V16.38c0-.12-.048-.204-.156-.24l-.66-.228.132-.972h2.412v7.8c0 .18.012.204.192.228l.576.084V24h-2.232l-.12-.672zm-.216-3.948c-.3-.204-.684-.36-1.032-.36-.888 0-1.236.828-1.236 1.896 0 1.164.336 1.812 1.092 1.812.408 0 .852-.24 1.176-.516V19.38zm8.67 4.152c-.744.36-1.56.612-2.46.612-2.316 0-3.108-1.44-3.108-3.312 0-2.172 1.332-3.204 2.976-3.204 1.584 0 2.64.828 2.64 2.904 0 .144-.012.564-.024.804h-3.672c.06.852.432 1.416 1.416 1.416.468 0 .972-.108 1.788-.408l.444 1.188zm-1.728-3.336c-.012-1.008-.408-1.272-.9-1.272-.516 0-.936.288-1.008 1.272h1.908zm11.983 2.868l.984-.084c.18-.012.192-.072.192-.24v-4.56h-.048l-1.716 4.092h-1.956l-1.692-4.104h-.06v4.56c0 .192.024.228.192.24l1.032.096V24h-3.648v-.936l.756-.084c.168-.024.192-.06.192-.24v-6.156c0-.18-.024-.216-.192-.24l-.756-.084v-.948h3.216l2.088 5.436h.048l2.196-5.436h3.12v.936l-.804.096c-.18.024-.192.048-.192.228v6.168c0 .156.036.204.192.228l.804.096V24h-3.948v-.936zm10.262.468c-.744.36-1.56.612-2.46.612-2.316 0-3.108-1.44-3.108-3.312 0-2.172 1.332-3.204 2.976-3.204 1.584 0 2.64.828 2.64 2.904 0 .144-.012.564-.024.804H77.79c.06.852.432 1.416 1.416 1.416.468 0 .972-.108 1.788-.408l.444 1.188zm-1.728-3.336c-.012-1.008-.408-1.272-.9-1.272-.516 0-.936.288-1.008 1.272h1.908zm7.025 3.132l-.084-.012c-.504.492-1.092.828-1.968.828-1.416 0-2.328-.9-2.328-3.192 0-2.412 1.212-3.324 2.544-3.324.696 0 1.236.24 1.692.576V16.38c0-.12-.048-.204-.156-.24l-.66-.228.132-.972h2.412v7.8c0 .18.012.204.192.228l.576.084V24h-2.232l-.12-.672zm-.216-3.948c-.3-.204-.684-.36-1.032-.36-.888 0-1.236.828-1.236 1.896 0 1.164.336 1.812 1.092 1.812.408 0 .852-.24 1.176-.516V19.38zm5.752-3.672c0 .684-.396 1.08-1.092 1.08-.684 0-1.08-.396-1.08-1.08s.396-1.056 1.08-1.056c.696 0 1.092.372 1.092 1.056zm-2.64 7.344l.612-.084c.168-.024.192-.06.192-.24V19.2c0-.132-.036-.216-.156-.252l-.648-.228.132-.972h2.484v4.98c0 .192.012.216.192.24l.612.084V24h-3.42v-.948zm9.425.504c-.552.336-1.404.588-2.28.588-2.172 0-3.144-1.356-3.144-3.18 0-2.244 1.368-3.336 3.288-3.336.936 0 1.764.264 2.136.504v1.884l-1.284-.06-.144-.792c-.012-.084-.036-.156-.144-.192a2.086 2.086 0 00-.612-.084c-.72 0-1.332.492-1.332 1.896 0 1.56.696 2.004 1.548 2.004.6 0 1.14-.192 1.5-.348l.468 1.116zm4.549-.204l-.06-.012c-.456.444-1.056.804-2.016.804-1.512 0-1.752-1.032-1.752-1.776 0-1.2.732-1.74 2.244-1.848l1.38-.096v-.66c0-.564-.06-.948-.804-.948-.576 0-.876.084-.876.804l-1.692-.144c0-1.62 1.476-1.848 2.58-1.848 1.824 0 2.556.492 2.556 2.172v2.916c0 .192.012.216.192.24l.576.096V24h-2.208l-.12-.648zm-1.02-1.872c-.708.048-.96.228-.96.708s.288.66.684.66c.408 0 .816-.228 1.092-.432v-.996l-.816.06zm3.908 1.548l.54-.072c.168-.024.192-.06.192-.24V19.2c0-.132-.036-.216-.156-.252l-.648-.228.132-.972h2.112l.144.96h.072c.396-.612.924-1.08 1.692-1.08.276 0 .828.048 1.044.108v2.184l-1.44-.048-.12-.636c-.024-.108-.06-.132-.156-.132-.312 0-.684.264-.864.42v3.18c0 .192.012.228.192.24l1.188.096V24h-3.924v-.972zm11.313.504c-.744.36-1.56.612-2.46.612-2.316 0-3.108-1.44-3.108-3.312 0-2.172 1.332-3.204 2.976-3.204 1.584 0 2.64.828 2.64 2.904 0 .144-.012.564-.024.804h-3.672c.06.852.432 1.416 1.416 1.416.468 0 .972-.108 1.788-.408l.444 1.188zm-1.728-3.336c-.012-1.008-.408-1.272-.9-1.272-.516 0-.936.288-1.008 1.272h1.908zm4.854 3.012c0 .612-.336.936-1.02.936-.696 0-1.032-.312-1.032-.936 0-.612.336-.936 1.032-.936.672 0 1.02.324 1.02.936zm3.378 0c0 .612-.336.936-1.02.936-.696 0-1.032-.312-1.032-.936 0-.612.336-.936 1.032-.936.672 0 1.02.324 1.02.936zm3.378 0c0 .612-.336.936-1.02.936-.696 0-1.032-.312-1.032-.936 0-.612.336-.936 1.032-.936.672 0 1.02.324 1.02.936z" fill="#fff"/></svg>