<svg width="300" height="11" viewBox="0 0 300 11" fill="none" xmlns="http://www.w3.org/2000/svg"><path fill="#F3C501" d="M0 1h300v10H0z"/><path d="M22.078 9.108c-1.476 0-2.601-.819-2.601-2.421V3.168h1.71v3.42c0 .702.405.972.891.972s.891-.27.891-.972v-3.42h1.71v3.519c0 1.602-1.125 2.421-2.601 2.421zM28.888 9V3.168h1.484l1.854 2.583c.135.18.261.441.261.441V3.168h1.71V9h-1.485l-1.854-2.538c-.135-.18-.26-.441-.26-.441V9h-1.71zm14.776 0V3.168h1.458l1.143 1.638c.19.279.495.756.495.756s.306-.477.495-.756l1.143-1.638h1.458V9h-1.71V6.048s-.297.477-.459.702l-.927 1.296-.936-1.296c-.162-.225-.45-.684-.45-.684V9h-1.71zm10.42 0V3.168h4.636v1.449h-2.925v.711h2.808v1.431h-2.808v.792h3.033V9h-4.743zm8.664 0V3.168h1.485l1.854 2.583c.135.18.26.441.26.441V3.168h1.71V9h-1.484l-1.854-2.538c-.135-.18-.261-.441-.261-.441V9h-1.71zm11.783.108c-1.639 0-2.278-.63-2.458-.702l.559-1.332c.45.252.962.531 1.898.531.18 0 .703-.054.703-.36 0-.279-.37-.324-.703-.405-1.124-.252-2.303-.684-2.303-1.998 0-1.215 1.106-1.764 2.303-1.764.963 0 1.665.243 2.26.594l-.577 1.323c-.341-.234-1.115-.423-1.682-.423-.145 0-.523.036-.523.27 0 .207.217.297.523.369.872.189 2.483.54 2.483 2.034 0 1.332-1.277 1.863-2.483 1.863zM80.678 9l2.358-5.832H84.8L87.159 9h-1.746l-.27-.756h-2.448l-.27.756h-1.746zm2.475-2.07h1.53l-.693-1.971c-.054-.144-.063-.198-.072-.234 0 0-.018.081-.072.234l-.693 1.971zm9.804 2.178c-.891 0-1.81-.342-2.286-1.323l1.134-.945c.279.576.648.72 1.16.72.604 0 .937-.36.937-.999V3.168h1.71v3.339c0 1.683-.945 2.601-2.655 2.601zM99.825 9V3.168h4.635v1.449h-2.925v.711h2.808v1.431h-2.808v.792h3.033V9h-4.743zm16.841.108c-1.872 0-3.123-1.341-3.123-3.024 0-1.665 1.251-3.006 3.123-3.006 1.872 0 3.132 1.341 3.132 3.006 0 1.683-1.26 3.024-3.132 3.024zm0-1.548c.792 0 1.35-.612 1.35-1.476 0-.846-.558-1.458-1.35-1.458-.738 0-1.341.612-1.341 1.458 0 .864.558 1.476 1.341 1.476zM123.845 9V3.168h4.5v1.449h-2.79v.711h2.439v1.431h-2.439V9h-1.71zm8.276 0V3.168h1.71V9h-1.71zm8.845.108c-1.854 0-3.087-1.341-3.087-3.024 0-1.665 1.233-3.006 3.087-3.006.891 0 1.692.315 2.223.846l-1.125 1.161c-.414-.423-.747-.459-1.026-.459-.756 0-1.377.612-1.377 1.458 0 .864.576 1.476 1.377 1.476.477 0 .918-.216 1.242-.648l1.089 1.197c-.585.648-1.404.999-2.403.999zM147.223 9V3.168h1.71V9h-1.71zm5.515 0l2.358-5.832h1.764L159.218 9h-1.746l-.27-.756h-2.448l-.27.756h-1.746zm2.475-2.07h1.53l-.693-1.971c-.054-.144-.063-.198-.072-.234 0 0-.018.081-.072.234l-.693 1.971zM163.028 9V3.168h1.71v4.383h3.105V9h-4.815zm14.012 0V3.168h2.43c1.953 0 3.177 1.323 3.177 2.916S181.423 9 179.47 9h-2.43zm1.71-1.449h.657c.873 0 1.431-.621 1.431-1.467 0-.837-.558-1.467-1.431-1.467h-.657v2.934zM186.696 9V3.168h4.635v1.449h-2.925v.711h2.808v1.431h-2.808v.792h3.033V9h-4.743zm13.898 0V3.168h1.458l1.143 1.638c.189.279.495.756.495.756s.306-.477.495-.756l1.143-1.638h1.458V9h-1.71V6.048s-.297.477-.459.702l-.927 1.296-.936-1.296c-.162-.225-.45-.684-.45-.684V9h-1.71zm10.421 0V3.168h4.635v1.449h-2.925v.711h2.808v1.431h-2.808v.792h3.033V9h-4.743zm8.663 0V3.168h2.43c1.953 0 3.177 1.323 3.177 2.916S224.061 9 222.108 9h-2.43zm1.71-1.449h.657c.873 0 1.431-.621 1.431-1.467 0-.837-.558-1.467-1.431-1.467h-.657v2.934zM229.334 9V3.168h1.71V9h-1.71zm8.845.108c-1.854 0-3.087-1.341-3.087-3.024 0-1.665 1.233-3.006 3.087-3.006.891 0 1.692.315 2.223.846l-1.125 1.161c-.414-.423-.747-.459-1.026-.459-.756 0-1.377.612-1.377 1.458 0 .864.576 1.476 1.377 1.476.477 0 .918-.216 1.242-.648l1.089 1.197c-.585.648-1.404.999-2.403.999zM244.101 9l2.358-5.832h1.764L250.581 9h-1.746l-.27-.756h-2.448l-.27.756h-1.746zm2.475-2.07h1.53l-.693-1.971c-.054-.144-.063-.198-.072-.234 0 0-.018.081-.072.234l-.693 1.971zM254.391 9V3.168h2.574c1.791 0 2.709 1.035 2.709 2.304a2.17 2.17 0 01-.918 1.791L259.845 9h-1.953l-.666-1.251c-.18.018-.279.027-.423.027h-.702V9h-1.71zm1.71-2.673h.882c.531 0 .882-.387.882-.855 0-.477-.36-.855-.873-.855h-.891v1.71zM263.722 9V3.168h4.635v1.449h-2.925v.711h2.808v1.431h-2.808v.792h3.033V9h-4.743z" fill="#2B3D51"/></svg>