<svg width="141" height="12" viewBox="0 0 141 12" fill="none" xmlns="http://www.w3.org/2000/svg"><path d="M7.096 6.551H1.64c.08.473.29.85.631 1.128.342.28.779.419 1.31.419.634 0 1.18-.219 1.636-.654l1.43.66a3.354 3.354 0 01-1.281 1.104c-.498.239-1.089.357-1.772.357-1.062 0-1.926-.328-2.593-.987C.334 7.919 0 7.095 0 6.103c0-.99.333-1.858.998-2.53.665-.67 1.5-1.005 2.504-1.005 1.065 0 1.932.336 2.6 1.006.667.67 1.001 1.556 1.001 2.658l-.006.318-.001.001zM5.398 5.236a1.672 1.672 0 00-.663-.905 1.944 1.944 0 00-1.15-.35c-.473 0-.888.132-1.246.392-.224.163-.432.45-.623.863h3.682zM12.39 3.67l-1.052 1.033c-.427-.417-.815-.624-1.162-.624-.19 0-.34.04-.448.119a.354.354 0 00-.161.296c0 .09.034.173.102.247.069.076.237.18.507.309l.622.306c.655.318 1.105.642 1.35.972.244.33.367.717.367 1.161 0 .592-.221 1.085-.663 1.48-.441.396-1.033.593-1.775.593-.987 0-1.774-.38-2.364-1.138l1.045-1.12c.199.229.432.413.699.554.267.14.505.21.712.21.225 0 .404-.052.541-.157.137-.106.205-.228.205-.368 0-.256-.246-.507-.74-.752l-.572-.28c-1.094-.543-1.64-1.223-1.64-2.037 0-.526.205-.976.618-1.35.412-.372.94-.558 1.582-.558.44 0 .853.094 1.241.284.388.19.717.462.986.816v.004zM14.166 7.651c.27 0 .5.093.69.279.191.186.286.41.286.675a.918.918 0 01-.285.68.95.95 0 01-.69.28.952.952 0 01-.691-.28.918.918 0 01-.286-.68c0-.265.095-.49.286-.675a.952.952 0 01.69-.279zM17.877.398h1.696l2.122 6.276 2.14-6.276h1.696l1.536 8.998h-1.682l-.981-5.682-1.945 5.682h-1.537l-1.925-5.682-1.005 5.682h-1.7L17.878.398zM34.982 6.552h-5.454c.078.474.289.85.63 1.13.342.278.779.418 1.31.418.635 0 1.18-.218 1.637-.655l1.431.661c-.356.497-.783.867-1.282 1.105-.498.24-1.088.358-1.773.358-1.062 0-1.926-.329-2.594-.988-.668-.658-1.002-1.483-1.002-2.473 0-.99.332-1.859.998-2.528.666-.67 1.501-1.006 2.504-1.006 1.065 0 1.932.336 2.6 1.006.667.672 1.001 1.556 1.001 2.657l-.006.318h-.002l.002-.003zm-1.699-1.315a1.678 1.678 0 00-.663-.905 1.943 1.943 0 00-1.15-.349c-.473 0-.888.13-1.247.391-.224.163-.433.451-.624.863h3.684zM41.199.17h1.699v9.224h-1.7V8.69c-.331.31-.663.534-.996.67a2.845 2.845 0 01-1.085.205c-.873 0-1.629-.334-2.267-1-.638-.666-.958-1.495-.958-2.487 0-.99.308-1.87.926-2.527.618-.656 1.366-.985 2.25-.985.406 0 .786.076 1.143.226.356.15.684.378.987.679V.17zm-1.786 3.94c-.525 0-.962.181-1.309.547-.346.365-.52.833-.52 1.404 0 .572.176 1.048.529 1.419.353.37.787.556 1.304.556.518 0 .977-.182 1.327-.548.351-.364.526-.842.526-1.435 0-.593-.176-1.048-.526-1.408-.352-.357-.795-.537-1.333-.537v.002h.002zM45.299 0c.296 0 .553.107.765.318.212.212.32.47.32.77 0 .302-.106.552-.318.762a1.038 1.038 0 01-.755.316 1.06 1.06 0 01-.772-.322 1.069 1.069 0 01-.32-.78 1 1 0 01.315-.752c.21-.208.465-.312.763-.312h.002zm-.85 2.74h1.7v6.654h-1.7V2.74zM54.264 4.087l-1.413.766c-.264-.274-.528-.462-.787-.57a2.39 2.39 0 00-.912-.159c-.635 0-1.15.185-1.542.558-.391.372-.588.85-.588 1.432s.188 1.027.568 1.387c.377.358.873.538 1.488.538.76 0 1.351-.256 1.775-.766l1.337.901c-.726.93-1.75 1.394-3.074 1.394-1.19 0-2.122-.347-2.795-1.04-.674-.694-1.012-1.506-1.012-2.436 0-.644.165-1.237.49-1.78a3.471 3.471 0 011.372-1.279c.586-.31 1.244-.464 1.968-.464.673 0 1.276.132 1.81.395a3.4 3.4 0 011.312 1.123v.003l.003-.003zM60.165 2.74h1.699v6.653h-1.699V8.69c-.332.31-.664.534-.997.67a2.845 2.845 0 01-1.084.205c-.874 0-1.63-.334-2.268-1-.638-.666-.958-1.495-.958-2.486 0-.991.308-1.87.927-2.527.617-.657 1.365-.985 2.248-.985.407 0 .788.075 1.144.225.356.15.684.378.987.68v-.735.002h.001zM58.38 4.11c-.525 0-.962.18-1.308.547-.347.365-.521.833-.521 1.404s.177 1.048.53 1.418c.352.371.786.556 1.304.556.517 0 .976-.181 1.326-.547.352-.365.526-.843.526-1.435 0-.593-.176-1.048-.526-1.408-.351-.358-.794-.538-1.332-.538v.003zM63.304 2.74h1.456v.838c.156-.33.367-.582.629-.752.26-.17.546-.257.857-.257.22 0 .45.056.691.17l-.528 1.437c-.2-.097-.363-.147-.49-.147-.262 0-.483.16-.663.478-.181.318-.271.942-.271 1.872l.006.325v2.692h-1.685V2.739h-.003.001zM74.205 6.552H68.75c.078.474.29.85.631 1.13.342.278.779.418 1.31.418.635 0 1.18-.218 1.637-.655l1.431.661c-.356.497-.783.867-1.282 1.105-.498.24-1.089.358-1.773.358-1.062 0-1.926-.329-2.594-.988-.668-.658-1.002-1.483-1.002-2.473 0-.99.332-1.859.998-2.528.666-.67 1.5-1.006 2.504-1.006 1.065 0 1.932.336 2.6 1.006.667.672 1 1.556 1 2.657l-.005.318h-.003l.003-.003zm-1.699-1.315a1.678 1.678 0 00-.664-.905 1.95 1.95 0 00-1.149-.349c-.474 0-.888.13-1.247.391-.225.163-.433.451-.624.863h3.684zM75.955 7.652c.268 0 .5.094.69.279.191.185.286.411.286.675a.92.92 0 01-.285.68.952.952 0 01-.691.28.951.951 0 01-.69-.28.916.916 0 01-.286-.68c0-.266.095-.49.285-.675a.959.959 0 01.691-.279zM83.158 2.74h1.693v5.7c0 1.124-.23 1.952-.691 2.482-.617.718-1.548 1.078-2.793 1.078-.664 0-1.22-.08-1.674-.244a2.988 2.988 0 01-1.144-.718 2.93 2.93 0 01-.69-1.152h1.872c.165.187.378.328.64.426.261.096.571.142.928.142.455 0 .822-.07 1.1-.207.278-.14.474-.318.588-.538.114-.22.172-.6.172-1.137a2.83 2.83 0 01-.938.633 3.032 3.032 0 01-1.114.193c-.91 0-1.675-.321-2.302-.967-.624-.644-.938-1.459-.938-2.447 0-1.054.332-1.904.995-2.545.6-.578 1.319-.867 2.151-.867.39 0 .758.07 1.104.21.347.142.695.373 1.041.694V2.74zm-1.76 1.39c-.535 0-.976.176-1.325.527-.349.353-.522.797-.522 1.331 0 .534.18 1.01.536 1.363.356.354.804.532 1.343.532.54 0 .962-.173 1.302-.52.342-.347.514-.801.514-1.363 0-.562-.172-1.006-.517-1.352-.343-.347-.787-.52-1.33-.52v.001zM89.64 2.57c.638 0 1.239.158 1.801.471.562.314 1 .74 1.316 1.28.315.537.472 1.119.472 1.743 0 .624-.159 1.214-.476 1.761a3.39 3.39 0 01-1.297 1.28 3.624 3.624 0 01-1.81.463c-.97 0-1.798-.34-2.485-1.019-.687-.68-1.03-1.502-1.03-2.473 0-1.04.388-1.907 1.163-2.6.68-.604 1.46-.905 2.345-.905l.002-.003v.001zm.028 1.573c-.528 0-.966.18-1.318.54-.351.362-.525.823-.525 1.387 0 .564.173 1.047.52 1.407.347.36.786.538 1.319.538.531 0 .973-.181 1.326-.545.353-.363.53-.829.53-1.4s-.174-1.036-.522-1.391c-.346-.356-.79-.536-1.33-.536zM93.4 2.74h1.73l1.709 3.928 1.706-3.928h1.72l-2.88 6.654h-1.1L93.398 2.74h.002zM100.537 11.006l4.13-10.92h1.222l-4.138 10.92h-1.214zM107.661.344h5.066v1.68h-3.328v1.642h2.163v1.655h-2.163v4.073h-1.738V.342v.002zM113.62 2.7h1.464v.843c.159-.333.37-.585.632-.757a1.54 1.54 0 01.864-.258c.221 0 .453.057.695.172l-.532 1.446c-.2-.098-.365-.147-.494-.147-.263 0-.485.16-.667.48-.182.32-.272.948-.272 1.883l.006.326v2.707h-1.695V2.7h-.001zM123.143 2.7h1.708v6.695h-1.708v-.708c-.333.312-.668.537-1.003.673a2.841 2.841 0 01-1.091.207c-.879 0-1.64-.335-2.281-1.006-.642-.67-.963-1.505-.963-2.5 0-.997.31-1.881.931-2.542.622-.66 1.376-.991 2.263-.991.409 0 .792.075 1.149.228.359.152.69.379.994.682V2.7h.001zm-1.795 1.38c-.529 0-.967.183-1.316.55-.349.367-.523.838-.523 1.412 0 .575.178 1.055.533 1.428.355.374.793.56 1.313.56.52 0 .981-.183 1.335-.55.354-.367.53-.848.53-1.442s-.177-1.054-.53-1.415c-.354-.361-.8-.541-1.341-.541l-.001-.003zM126.572 2.7h1.726v3.224c0 .628.044 1.063.132 1.308.088.244.23.434.424.569.194.134.433.203.718.203.286 0 .526-.068.725-.2.199-.134.347-.33.442-.589.071-.193.106-.605.106-1.237v-3.28h1.708v2.837c0 1.169-.094 1.97-.281 2.4-.23.526-.568.928-1.015 1.21-.446.28-1.014.421-1.702.421-.747 0-1.351-.164-1.811-.492-.461-.328-.784-.786-.972-1.372-.133-.405-.2-1.144-.2-2.215V2.7zM139.292.115H141v9.279h-1.708v-.708c-.333.312-.668.536-1.003.673-.336.138-.7.206-1.091.206-.879 0-1.64-.335-2.281-1.005-.642-.671-.963-1.505-.963-2.501s.31-1.88.931-2.542c.621-.66 1.376-.991 2.263-.991.408 0 .792.076 1.149.228.359.152.69.38.993.683V.114l.002.001zm-1.795 3.963c-.529 0-.967.183-1.316.55-.349.368-.523.838-.523 1.413 0 .575.178 1.055.533 1.428.355.373.793.56 1.313.56.52 0 .981-.183 1.335-.55.354-.368.53-.85.53-1.443 0-.594-.177-1.054-.53-1.415-.354-.361-.801-.541-1.341-.541l-.001-.002z" fill="#fff"/></svg>