<svg width="524" height="123" viewBox="0 0 524 123" fill="none" xmlns="http://www.w3.org/2000/svg"><path d="M13.95 21.336h3.77c4.176 0 6.264-1.817 6.264-5.452s-2.088-5.452-6.264-5.452h-3.77v10.904zm0 23.664H2.582V1.268h18.096c4.91 0 8.661 1.276 11.252 3.828 2.63 2.552 3.944 6.148 3.944 10.788 0 4.64-1.315 8.236-3.944 10.788-2.59 2.552-6.341 3.828-11.252 3.828H13.95V45zm26.955-29.754h10.498v4.872c1.12-1.779 2.494-3.132 4.118-4.06 1.624-.967 3.518-1.45 5.684-1.45h.87c.348 0 .734.039 1.16.116v10.034c-1.392-.696-2.9-1.044-4.524-1.044-2.436 0-4.273.735-5.51 2.204-1.2 1.43-1.798 3.538-1.798 6.322V45H40.905V15.246zm37.162 14.732c0 1.005.174 1.933.522 2.784a8.38 8.38 0 001.45 2.146 6.787 6.787 0 002.146 1.45 6.98 6.98 0 002.668.522c.928 0 1.798-.174 2.61-.522.85-.348 1.566-.831 2.146-1.45a6.787 6.787 0 001.45-2.146c.386-.85.58-1.76.58-2.726 0-.928-.194-1.798-.58-2.61a6.625 6.625 0 00-1.45-2.204c-.58-.619-1.296-1.102-2.146-1.45a6.555 6.555 0 00-2.61-.522 6.98 6.98 0 00-2.668.522 6.787 6.787 0 00-2.146 1.45 8.38 8.38 0 00-1.45 2.146 6.555 6.555 0 00-.522 2.61zm-11.078-.116c0-2.204.444-4.253 1.334-6.148a14.785 14.785 0 013.712-4.988c1.585-1.43 3.46-2.552 5.626-3.364 2.204-.812 4.601-1.218 7.192-1.218 2.552 0 4.91.406 7.076 1.218 2.204.773 4.098 1.875 5.684 3.306a14.318 14.318 0 013.77 5.046c.889 1.933 1.334 4.08 1.334 6.438 0 2.359-.464 4.524-1.392 6.496a15.407 15.407 0 01-3.712 5.046c-1.586 1.392-3.5 2.475-5.742 3.248-2.204.773-4.602 1.16-7.192 1.16-2.552 0-4.91-.387-7.076-1.16-2.166-.773-4.04-1.875-5.626-3.306a15.62 15.62 0 01-3.654-5.104c-.89-2.01-1.334-4.234-1.334-6.67zm53.657-5.858V45h-10.498V24.004h-3.48v-8.758h3.48V6.314h10.498v8.932h5.974v8.758h-5.974zm32.237 1.798c-.348-1.47-1.063-2.649-2.146-3.538-1.083-.89-2.397-1.334-3.944-1.334-1.624 0-2.958.425-4.002 1.276-1.005.85-1.643 2.05-1.914 3.596h12.006zm-12.296 6.09c0 4.524 2.127 6.786 6.38 6.786 2.281 0 4.002-.928 5.162-2.784h10.15c-2.049 6.805-7.173 10.208-15.37 10.208-2.513 0-4.814-.367-6.902-1.102-2.088-.773-3.886-1.856-5.394-3.248-1.469-1.392-2.61-3.055-3.422-4.988-.812-1.933-1.218-4.099-1.218-6.496 0-2.475.387-4.698 1.16-6.67.773-2.01 1.875-3.712 3.306-5.104s3.151-2.455 5.162-3.19c2.049-.773 4.35-1.16 6.902-1.16 2.513 0 4.775.387 6.786 1.16 2.011.735 3.712 1.817 5.104 3.248 1.392 1.43 2.455 3.19 3.19 5.278.735 2.05 1.102 4.37 1.102 6.96v1.102h-22.098zm37.843-1.914c0 .967.174 1.875.522 2.726a7.33 7.33 0 001.392 2.146 6.79 6.79 0 002.146 1.45 7.13 7.13 0 002.726.522c.928 0 1.798-.174 2.61-.522.851-.348 1.566-.831 2.146-1.45a6.782 6.782 0 001.45-2.146c.387-.85.58-1.74.58-2.668 0-.967-.193-1.856-.58-2.668a6.782 6.782 0 00-1.45-2.146 6.625 6.625 0 00-2.204-1.45 6.413 6.413 0 00-2.552-.522c-.928 0-1.798.193-2.61.58a6.79 6.79 0 00-2.146 1.45 6.886 6.886 0 00-1.508 2.088 6.555 6.555 0 00-.522 2.61zm23.548-14.732V42.97c0 1.663-.097 3.151-.29 4.466-.193 1.315-.464 2.475-.812 3.48-.464 1.276-1.199 2.455-2.204 3.538-.967 1.121-2.146 2.088-3.538 2.9-1.392.812-2.977 1.45-4.756 1.914-1.74.464-3.635.696-5.684.696-2.32 0-4.447-.29-6.38-.87-1.933-.58-3.635-1.392-5.104-2.436a13.586 13.586 0 01-3.538-3.596 11.669 11.669 0 01-1.856-4.466h11.832c.735 1.972 2.397 2.958 4.988 2.958 2.204 0 3.886-.619 5.046-1.856 1.199-1.237 1.798-2.958 1.798-5.162v-2.842a18.374 18.374 0 01-2.262 1.856c-.696.464-1.411.85-2.146 1.16a9.37 9.37 0 01-2.32.638c-.812.155-1.701.232-2.668.232-2.127 0-4.079-.367-5.858-1.102a14.096 14.096 0 01-4.64-3.074c-1.276-1.315-2.281-2.88-3.016-4.698-.696-1.856-1.044-3.905-1.044-6.148 0-2.281.387-4.389 1.16-6.322.773-1.972 1.817-3.673 3.132-5.104a14.374 14.374 0 014.756-3.422c1.856-.85 3.867-1.276 6.032-1.276 3.519 0 6.477 1.315 8.874 3.944v-3.132h10.498zm29.579 10.556c-.348-1.47-1.063-2.649-2.146-3.538-1.083-.89-2.397-1.334-3.944-1.334-1.624 0-2.958.425-4.002 1.276-1.005.85-1.643 2.05-1.914 3.596h12.006zm-12.296 6.09c0 4.524 2.127 6.786 6.38 6.786 2.281 0 4.002-.928 5.162-2.784h10.15c-2.049 6.805-7.173 10.208-15.37 10.208-2.513 0-4.814-.367-6.902-1.102-2.088-.773-3.886-1.856-5.394-3.248-1.469-1.392-2.61-3.055-3.422-4.988-.812-1.933-1.218-4.099-1.218-6.496 0-2.475.387-4.698 1.16-6.67.773-2.01 1.875-3.712 3.306-5.104s3.151-2.455 5.162-3.19c2.049-.773 4.35-1.16 6.902-1.16 2.513 0 4.775.387 6.786 1.16 2.011.735 3.712 1.817 5.104 3.248 1.392 1.43 2.455 3.19 3.19 5.278.735 2.05 1.102 4.37 1.102 6.96v1.102h-22.098zm54.805-8.529V45h-6.372V23.363h-2.718v-5.947h2.718V7.306h6.372v10.11h4.956v5.947h-4.956zm15.662-5.947v15.831c0 4.57 1.803 6.854 5.409 6.854s5.409-2.285 5.409-6.854V17.416h6.372v15.973c0 2.209-.274 4.116-.821 5.72-.529 1.435-1.445 2.729-2.747 3.88-2.153 1.87-4.89 2.804-8.213 2.804-3.304 0-6.033-.935-8.185-2.804-1.321-1.151-2.256-2.445-2.804-3.88-.528-1.284-.793-3.19-.793-5.72V17.416h6.373zm43.131 0h6.401v2.549c2.228-2.21 4.739-3.314 7.533-3.314 3.21 0 5.711 1.01 7.505 3.03 1.548 1.719 2.322 4.522 2.322 8.412V45h-6.4V29.594c0-2.719-.378-4.598-1.133-5.636-.736-1.057-2.077-1.586-4.022-1.586-2.114 0-3.615.699-4.503 2.096-.868 1.378-1.302 3.785-1.302 7.221V45h-6.401V17.416zm38.204 0v15.831c0 4.57 1.804 6.854 5.41 6.854s5.409-2.285 5.409-6.854V17.416h6.372v15.973c0 2.209-.274 4.116-.821 5.72-.529 1.435-1.445 2.729-2.747 3.88-2.153 1.87-4.89 2.804-8.213 2.804-3.304 0-6.033-.935-8.185-2.804-1.322-1.151-2.256-2.445-2.804-3.88-.528-1.284-.793-3.19-.793-5.72V17.416h6.372zM386.47 3.822l-10.309 9.346-3.483-2.152L380.466.707l6.004 3.115zm9.827 13.594h6.372v2.549c1.227-1.284 2.275-2.152 3.143-2.606.926-.472 2.087-.708 3.484-.708 3.115 0 5.579 1.36 7.392 4.079 2.001-2.72 4.71-4.079 8.127-4.079 6.212 0 9.318 3.767 9.318 11.3V45h-6.401V29.679c0-2.643-.321-4.513-.962-5.608-.661-1.114-1.747-1.67-3.257-1.67-1.756 0-3.04.66-3.852 1.982-.793 1.321-1.189 3.445-1.189 6.372V45h-6.401V29.764c0-4.91-1.416-7.364-4.248-7.364-1.793 0-3.106.67-3.936 2.011-.812 1.34-1.218 3.455-1.218 6.344V45h-6.372V17.416zm70.999 15.293h-19.768c.17 2.266.907 4.069 2.209 5.41 1.303 1.32 2.974 1.982 5.013 1.982 1.586 0 2.898-.378 3.937-1.133 1.019-.755 2.18-2.153 3.483-4.192l5.381 3.002c-.831 1.416-1.709 2.634-2.634 3.654-.925 1-1.916 1.831-2.974 2.492a12.152 12.152 0 01-3.426 1.416c-1.228.302-2.559.453-3.994.453-4.115 0-7.419-1.322-9.912-3.965-2.492-2.662-3.738-6.193-3.738-10.592 0-4.361 1.208-7.892 3.625-10.591 2.436-2.663 5.664-3.994 9.686-3.994 4.059 0 7.268 1.294 9.628 3.88 2.342 2.568 3.512 6.127 3.512 10.677l-.028 1.501zm-6.542-5.211c-.887-3.398-3.03-5.098-6.429-5.098-.774 0-1.501.123-2.18.369a6.023 6.023 0 00-1.87 1.02 6.384 6.384 0 00-1.416 1.585 7.46 7.46 0 00-.906 2.124h12.801zm13.537-10.082h6.372v2.464c1.171-1.227 2.209-2.067 3.115-2.52.925-.473 2.021-.709 3.285-.709 1.681 0 3.437.548 5.268 1.643l-2.917 5.834c-1.208-.869-2.388-1.303-3.54-1.303-3.474 0-5.211 2.625-5.211 7.873V45h-6.372V17.416zm19.881 13.594c0-3.984 1.425-7.373 4.276-10.167 2.851-2.794 6.325-4.192 10.422-4.192 4.116 0 7.609 1.407 10.479 4.22 2.832 2.813 4.248 6.268 4.248 10.365 0 4.135-1.426 7.6-4.277 10.394-2.869 2.775-6.391 4.163-10.563 4.163-4.135 0-7.599-1.416-10.394-4.248-2.794-2.794-4.191-6.306-4.191-10.535zm6.514.113c0 2.757.736 4.937 2.209 6.542 1.51 1.624 3.502 2.436 5.975 2.436 2.492 0 4.484-.803 5.976-2.408 1.491-1.604 2.237-3.747 2.237-6.428s-.746-4.824-2.237-6.43c-1.511-1.623-3.503-2.435-5.976-2.435-2.435 0-4.408.812-5.919 2.436-1.51 1.624-2.265 3.72-2.265 6.287zM24.036 69.868h6.841V121h-6.842v-3.088c-2.684 2.624-5.721 3.936-9.112 3.936-4.037 0-7.387-1.474-10.05-4.42-2.645-3.007-3.967-6.761-3.967-11.262 0-4.4 1.322-8.073 3.966-11.02 2.624-2.966 5.924-4.45 9.9-4.45 3.45 0 6.539 1.413 9.263 4.239V69.868zM7.868 106.166c0 2.826.757 5.126 2.27 6.902 1.555 1.797 3.512 2.695 5.874 2.695 2.522 0 4.56-.868 6.115-2.604 1.554-1.796 2.331-4.077 2.331-6.842 0-2.765-.777-5.045-2.331-6.841-1.554-1.756-3.572-2.634-6.055-2.634-2.34 0-4.299.888-5.873 2.664-1.554 1.796-2.33 4.016-2.33 6.66zm58.458 1.695h-21.13c.18 2.422.968 4.35 2.36 5.783 1.393 1.412 3.18 2.119 5.359 2.119 1.695 0 3.098-.404 4.208-1.211 1.09-.808 2.331-2.301 3.724-4.481l5.752 3.209c-.888 1.514-1.827 2.816-2.816 3.906a15.636 15.636 0 01-3.178 2.664 13.009 13.009 0 01-3.664 1.513c-1.312.323-2.734.485-4.268.485-4.4 0-7.932-1.413-10.596-4.239-2.664-2.845-3.996-6.619-3.996-11.322 0-4.662 1.292-8.436 3.875-11.322 2.603-2.846 6.055-4.269 10.353-4.269 4.34 0 7.77 1.383 10.293 4.148 2.503 2.745 3.754 6.549 3.754 11.413l-.03 1.604zm-6.993-5.57c-.949-3.633-3.24-5.45-6.872-5.45a6.81 6.81 0 00-2.331.394 6.43 6.43 0 00-1.998 1.09 6.797 6.797 0 00-1.514 1.696 7.942 7.942 0 00-.969 2.27h13.684zM91.429 121l7.936-46.748h12.028l9.362 24.924 9.3-24.924h12.028L150.019 121h-12.09l-4.03-26.908L122.863 121h-4.836l-10.478-26.908-4.03 26.908h-12.09zm86.788-20.522c-.372-1.57-1.137-2.831-2.294-3.782-1.157-.95-2.563-1.426-4.216-1.426-1.736 0-3.162.455-4.278 1.364-1.075.91-1.757 2.19-2.046 3.844h12.834zm-13.144 6.51c0 4.836 2.273 7.254 6.82 7.254 2.439 0 4.278-.992 5.518-2.976h10.85c-2.191 7.275-7.667 10.912-16.43 10.912-2.687 0-5.146-.393-7.378-1.178-2.232-.827-4.154-1.984-5.766-3.472-1.571-1.488-2.79-3.265-3.658-5.332-.868-2.067-1.302-4.381-1.302-6.944 0-2.645.413-5.022 1.24-7.13.827-2.15 2.005-3.968 3.534-5.456 1.529-1.488 3.369-2.625 5.518-3.41 2.191-.827 4.65-1.24 7.378-1.24 2.687 0 5.105.413 7.254 1.24 2.149.785 3.968 1.943 5.456 3.472 1.488 1.53 2.625 3.41 3.41 5.642.785 2.191 1.178 4.671 1.178 7.44v1.178h-23.622zm40.453-1.984a7.62 7.62 0 00.558 2.914 7.83 7.83 0 001.488 2.294 7.257 7.257 0 002.294 1.55c.909.372 1.88.558 2.914.558.992 0 1.922-.186 2.79-.558.909-.372 1.674-.889 2.294-1.55a7.257 7.257 0 001.55-2.294c.413-.868.62-1.798.62-2.79s-.207-1.922-.62-2.79a7.088 7.088 0 00-1.55-2.356c-.62-.661-1.385-1.178-2.294-1.55a7.007 7.007 0 00-2.79-.558 7.46 7.46 0 00-2.852.558 7.252 7.252 0 00-2.294 1.55 8.942 8.942 0 00-1.55 2.294c-.372.827-.558 1.736-.558 2.728zm14.136-35.464h11.284V121h-11.284v-3.534c-2.398 3.017-5.642 4.526-9.734 4.526-2.315 0-4.444-.434-6.386-1.302a15.792 15.792 0 01-5.084-3.596c-1.447-1.529-2.584-3.327-3.41-5.394-.786-2.067-1.178-4.299-1.178-6.696 0-2.273.372-4.423 1.116-6.448.785-2.067 1.88-3.865 3.286-5.394a15.105 15.105 0 015.022-3.596c1.984-.91 4.154-1.364 6.51-1.364 3.968 0 7.254 1.385 9.858 4.154V69.54zm30.142 19.654V121h-11.222V89.194h11.222zM237.838 76.98c0-.868.166-1.674.496-2.418a6.356 6.356 0 011.364-2.046 6.543 6.543 0 011.984-1.364 6.328 6.328 0 012.48-.496c.868 0 1.674.165 2.418.496.786.33 1.468.785 2.046 1.364a6.323 6.323 0 011.364 2.046 5.88 5.88 0 01.496 2.418 6.32 6.32 0 01-.496 2.48 6.522 6.522 0 01-1.364 1.984 6.324 6.324 0 01-2.046 1.364c-.744.33-1.55.496-2.418.496a6.328 6.328 0 01-2.48-.496 6.543 6.543 0 01-1.984-1.364 6.558 6.558 0 01-1.364-1.984 6.338 6.338 0 01-.496-2.48zm43.629 22.506c-1.943-1.323-3.906-1.984-5.89-1.984a8.262 8.262 0 00-3.038.558 7.302 7.302 0 00-2.418 1.612 7.218 7.218 0 00-1.674 2.418c-.372.909-.558 1.943-.558 3.1 0 1.116.186 2.149.558 3.1a8.84 8.84 0 001.612 2.418 7.641 7.641 0 002.48 1.55 8.262 8.262 0 003.038.558c2.108 0 4.071-.723 5.89-2.17v9.548c-2.769 1.199-5.394 1.798-7.874 1.798-2.315 0-4.526-.393-6.634-1.178a17.464 17.464 0 01-5.518-3.348c-1.571-1.488-2.831-3.245-3.782-5.27-.951-2.067-1.426-4.361-1.426-6.882s.455-4.815 1.364-6.882c.909-2.108 2.149-3.906 3.72-5.394 1.571-1.53 3.431-2.707 5.58-3.534 2.191-.868 4.526-1.302 7.006-1.302 2.728 0 5.249.579 7.564 1.736v9.548zm16.816 5.518a7.62 7.62 0 00.558 2.914 7.83 7.83 0 001.488 2.294 7.268 7.268 0 002.294 1.55c.91.372 1.881.558 2.914.558.992 0 1.922-.186 2.79-.558.91-.372 1.674-.889 2.294-1.55a7.24 7.24 0 001.55-2.294c.414-.868.62-1.798.62-2.79s-.206-1.922-.62-2.79a7.073 7.073 0 00-1.55-2.356c-.62-.661-1.384-1.178-2.294-1.55a7.007 7.007 0 00-2.79-.558 7.624 7.624 0 00-2.914.558 7.263 7.263 0 00-2.294 1.55 7.83 7.83 0 00-1.488 2.294c-.372.827-.558 1.736-.558 2.728zm14.136-15.81h11.284V121h-11.284v-3.534c-2.397 3.017-5.642 4.526-9.734 4.526-2.314 0-4.443-.413-6.386-1.24a15.813 15.813 0 01-5.084-3.596c-1.446-1.529-2.583-3.327-3.41-5.394-.785-2.067-1.178-4.319-1.178-6.758 0-2.273.393-4.423 1.178-6.448.786-2.067 1.881-3.865 3.286-5.394a15.125 15.125 0 015.022-3.596c1.943-.91 4.092-1.364 6.448-1.364 3.968 0 7.254 1.385 9.858 4.154v-3.162zm18.921 0h11.222v5.208c1.199-1.901 2.666-3.348 4.402-4.34 1.736-1.033 3.761-1.55 6.076-1.55h.93c.372 0 .785.041 1.24.124v10.726c-1.488-.744-3.1-1.116-4.836-1.116-2.604 0-4.567.785-5.89 2.356-1.281 1.529-1.922 3.782-1.922 6.758V121H331.34V89.194zm52.494 11.284c-.372-1.57-1.136-2.831-2.294-3.782-1.157-.95-2.562-1.426-4.216-1.426-1.736 0-3.162.455-4.278 1.364-1.074.91-1.756 2.19-2.046 3.844h12.834zm-13.144 6.51c0 4.836 2.274 7.254 6.82 7.254 2.439 0 4.278-.992 5.518-2.976h10.85c-2.19 7.275-7.667 10.912-16.43 10.912-2.686 0-5.146-.393-7.378-1.178-2.232-.827-4.154-1.984-5.766-3.472-1.57-1.488-2.79-3.265-3.658-5.332-.868-2.067-1.302-4.381-1.302-6.944 0-2.645.414-5.022 1.24-7.13.827-2.15 2.005-3.968 3.534-5.456 1.53-1.488 3.369-2.625 5.518-3.41 2.191-.827 4.65-1.24 7.378-1.24 2.687 0 5.105.413 7.254 1.24 2.15.785 3.968 1.943 5.456 3.472 1.488 1.53 2.625 3.41 3.41 5.642.786 2.191 1.178 4.671 1.178 7.44v1.178H370.69zm29.479 8.06c0-.992.186-1.922.558-2.79a7.073 7.073 0 011.55-2.356 7.257 7.257 0 012.294-1.55 7.46 7.46 0 012.852-.558c.992 0 1.922.186 2.79.558a7.098 7.098 0 012.356 1.55 7.088 7.088 0 011.55 2.356c.372.868.558 1.798.558 2.79a7.46 7.46 0 01-.558 2.852 7.257 7.257 0 01-1.55 2.294 7.098 7.098 0 01-2.356 1.55 7.007 7.007 0 01-2.79.558 7.46 7.46 0 01-2.852-.558 7.257 7.257 0 01-2.294-1.55 7.24 7.24 0 01-1.55-2.294 7.46 7.46 0 01-.558-2.852zm21.07 0c0-.992.186-1.922.558-2.79a7.088 7.088 0 011.55-2.356 7.257 7.257 0 012.294-1.55 7.46 7.46 0 012.852-.558c.992 0 1.922.186 2.79.558a7.088 7.088 0 012.356 1.55 7.088 7.088 0 011.55 2.356c.372.868.558 1.798.558 2.79a7.46 7.46 0 01-.558 2.852 7.257 7.257 0 01-1.55 2.294 7.088 7.088 0 01-2.356 1.55 7.007 7.007 0 01-2.79.558 7.46 7.46 0 01-2.852-.558 7.257 7.257 0 01-2.294-1.55 7.257 7.257 0 01-1.55-2.294 7.46 7.46 0 01-.558-2.852zm21.07 0c0-.992.186-1.922.558-2.79a7.088 7.088 0 011.55-2.356 7.268 7.268 0 012.294-1.55 7.463 7.463 0 012.852-.558c.992 0 1.922.186 2.79.558.91.372 1.695.889 2.356 1.55a7.073 7.073 0 011.55 2.356c.372.868.558 1.798.558 2.79a7.46 7.46 0 01-.558 2.852 7.24 7.24 0 01-1.55 2.294 7.078 7.078 0 01-2.356 1.55 7.007 7.007 0 01-2.79.558 7.463 7.463 0 01-2.852-.558 7.268 7.268 0 01-3.844-3.844 7.46 7.46 0 01-.558-2.852z" fill="#66124B"/></svg>