<svg width="374" height="75" viewBox="0 0 374 75" fill="none" xmlns="http://www.w3.org/2000/svg"><path d="M13.815 29.256h4.42c4.896 0 7.344-2.13 7.344-6.392 0-4.261-2.448-6.392-7.344-6.392h-4.42v12.784zm0 27.744H.487V5.728h21.216c5.758 0 10.155 1.496 13.192 4.488 3.083 2.992 4.624 7.208 4.624 12.648 0 5.44-1.541 9.656-4.624 12.648C31.858 38.504 27.461 40 21.703 40h-7.888v17zm31.602-34.884h12.308v5.712c1.315-2.085 2.924-3.672 4.828-4.76 1.904-1.133 4.126-1.7 6.664-1.7h1.02c.408 0 .862.045 1.36.136v11.764c-1.632-.816-3.4-1.224-5.304-1.224-2.856 0-5.01.861-6.46 2.584-1.405 1.677-2.108 4.148-2.108 7.412V57H45.417V22.116zm43.57 17.272c0 1.179.204 2.267.612 3.264a9.821 9.821 0 001.7 2.516 7.957 7.957 0 002.516 1.7c.997.408 2.04.612 3.128.612a7.689 7.689 0 003.06-.612c.997-.408 1.836-.975 2.516-1.7a7.962 7.962 0 001.7-2.516c.453-.997.68-2.063.68-3.196a7.031 7.031 0 00-.68-3.06 7.773 7.773 0 00-1.7-2.584c-.68-.725-1.519-1.292-2.516-1.7a7.689 7.689 0 00-3.06-.612c-1.088 0-2.131.204-3.128.612a7.957 7.957 0 00-2.516 1.7 9.821 9.821 0 00-1.7 2.516 7.685 7.685 0 00-.612 3.06zm-12.988-.136c0-2.584.52-4.987 1.564-7.208a17.33 17.33 0 014.352-5.848c1.858-1.677 4.057-2.992 6.596-3.944 2.584-.952 5.394-1.428 8.432-1.428 2.992 0 5.757.476 8.296 1.428 2.584.907 4.805 2.199 6.664 3.876a16.78 16.78 0 014.42 5.916c1.042 2.267 1.564 4.783 1.564 7.548 0 2.765-.544 5.304-1.632 7.616a18.065 18.065 0 01-4.352 5.916c-1.859 1.632-4.103 2.901-6.732 3.808-2.584.907-5.395 1.36-8.432 1.36-2.992 0-5.758-.453-8.296-1.36-2.54-.907-4.738-2.199-6.596-3.876-1.814-1.677-3.242-3.672-4.284-5.984-1.043-2.357-1.564-4.964-1.564-7.82zm62.908-6.868V57h-12.308V32.384h-4.08V22.116h4.08V11.644h12.308v10.472h7.004v10.268h-7.004zm37.795 2.108c-.408-1.723-1.246-3.105-2.516-4.148-1.269-1.043-2.81-1.564-4.624-1.564-1.904 0-3.468.499-4.692 1.496-1.178.997-1.926 2.403-2.244 4.216h14.076zm-14.416 7.14c0 5.304 2.494 7.956 7.48 7.956 2.675 0 4.692-1.088 6.052-3.264h11.9c-2.402 7.979-8.409 11.968-18.02 11.968-2.946 0-5.644-.43-8.092-1.292-2.448-.907-4.556-2.176-6.324-3.808-1.722-1.632-3.06-3.581-4.012-5.848-.952-2.267-1.428-4.805-1.428-7.616 0-2.901.454-5.508 1.36-7.82.907-2.357 2.199-4.352 3.876-5.984 1.678-1.632 3.695-2.879 6.052-3.74 2.403-.907 5.1-1.36 8.092-1.36 2.947 0 5.599.453 7.956 1.36 2.358.861 4.352 2.13 5.984 3.808 1.632 1.677 2.879 3.74 3.74 6.188.862 2.403 1.292 5.123 1.292 8.16v1.292h-25.908zM180.85 6.544l-11.832 10.472-5.712-4.216L173.03.9l7.82 5.644zm25.804 32.844c0 1.133.204 2.199.612 3.196.408.952.952 1.79 1.632 2.516a7.954 7.954 0 002.516 1.7 8.355 8.355 0 003.196.612 7.685 7.685 0 003.06-.612c.997-.408 1.836-.975 2.516-1.7a7.962 7.962 0 001.7-2.516 7.48 7.48 0 00.68-3.128c0-1.133-.227-2.176-.68-3.128a7.962 7.962 0 00-1.7-2.516 7.779 7.779 0 00-2.584-1.7 7.52 7.52 0 00-2.992-.612 7.027 7.027 0 00-3.06.68 7.954 7.954 0 00-2.516 1.7 8.056 8.056 0 00-1.768 2.448 7.685 7.685 0 00-.612 3.06zm27.608-17.272V54.62c0 1.95-.114 3.695-.34 5.236-.227 1.541-.544 2.901-.952 4.08-.544 1.496-1.406 2.879-2.584 4.148-1.134 1.315-2.516 2.448-4.148 3.4-1.632.952-3.491 1.7-5.576 2.244-2.04.544-4.262.816-6.664.816-2.72 0-5.214-.34-7.48-1.02-2.267-.68-4.262-1.632-5.984-2.856-1.678-1.179-3.06-2.584-4.148-4.216a13.677 13.677 0 01-2.176-5.236h13.872c.861 2.312 2.81 3.468 5.848 3.468 2.584 0 4.556-.725 5.916-2.176 1.405-1.45 2.108-3.468 2.108-6.052v-3.332a21.65 21.65 0 01-2.652 2.176c-.816.544-1.655.997-2.516 1.36-.862.363-1.768.612-2.72.748-.952.181-1.995.272-3.128.272-2.494 0-4.783-.43-6.868-1.292-2.086-.861-3.899-2.063-5.44-3.604-1.496-1.541-2.675-3.377-3.536-5.508-.816-2.176-1.224-4.579-1.224-7.208 0-2.675.453-5.145 1.36-7.412.906-2.312 2.13-4.307 3.672-5.984a16.841 16.841 0 015.576-4.012c2.176-.997 4.533-1.496 7.072-1.496 4.125 0 7.593 1.541 10.404 4.624v-3.672h12.308zm34.679 12.376c-.408-1.723-1.247-3.105-2.516-4.148-1.27-1.043-2.811-1.564-4.624-1.564-1.904 0-3.468.499-4.692 1.496-1.179.997-1.927 2.403-2.244 4.216h14.076zm-14.416 7.14c0 5.304 2.493 7.956 7.48 7.956 2.674 0 4.692-1.088 6.052-3.264h11.9c-2.403 7.979-8.41 11.968-18.02 11.968-2.947 0-5.644-.43-8.092-1.292-2.448-.907-4.556-2.176-6.324-3.808-1.723-1.632-3.06-3.581-4.012-5.848-.952-2.267-1.428-4.805-1.428-7.616 0-2.901.453-5.508 1.36-7.82.906-2.357 2.198-4.352 3.876-5.984 1.677-1.632 3.694-2.879 6.052-3.74 2.402-.907 5.1-1.36 8.092-1.36 2.946 0 5.598.453 7.956 1.36 2.357.861 4.352 2.13 5.984 3.808 1.632 1.677 2.878 3.74 3.74 6.188.861 2.403 1.292 5.123 1.292 8.16v1.292h-25.908zm47.144-9.248V57h-12.308V32.384h-4.08V22.116h4.08V11.644h12.308v10.472h7.004v10.268h-7.004zm37.795 2.108c-.408-1.723-1.247-3.105-2.516-4.148-1.269-1.043-2.811-1.564-4.624-1.564-1.904 0-3.468.499-4.692 1.496-1.179.997-1.927 2.403-2.244 4.216h14.076zm-14.416 7.14c0 5.304 2.493 7.956 7.48 7.956 2.675 0 4.692-1.088 6.052-3.264h11.9c-2.403 7.979-8.409 11.968-18.02 11.968-2.947 0-5.644-.43-8.092-1.292-2.448-.907-4.556-2.176-6.324-3.808-1.723-1.632-3.06-3.581-4.012-5.848-.952-2.267-1.428-4.805-1.428-7.616 0-2.901.453-5.508 1.36-7.82.907-2.357 2.199-4.352 3.876-5.984 1.677-1.632 3.695-2.879 6.052-3.74 2.403-.907 5.1-1.36 8.092-1.36 2.947 0 5.599.453 7.956 1.36 2.357.861 4.352 2.13 5.984 3.808 1.632 1.677 2.879 3.74 3.74 6.188.861 2.403 1.292 5.123 1.292 8.16v1.292h-25.908zm32.331 8.84c0-1.088.204-2.108.612-3.06a7.773 7.773 0 011.7-2.584 7.965 7.965 0 012.516-1.7 8.186 8.186 0 013.128-.612c1.088 0 2.108.204 3.06.612a7.759 7.759 0 012.584 1.7 7.758 7.758 0 011.7 2.584c.408.952.612 1.972.612 3.06s-.204 2.13-.612 3.128a7.945 7.945 0 01-1.7 2.516 7.759 7.759 0 01-2.584 1.7 7.685 7.685 0 01-3.06.612 8.186 8.186 0 01-3.128-.612 7.965 7.965 0 01-2.516-1.7 7.962 7.962 0 01-1.7-2.516 8.183 8.183 0 01-.612-3.128z" fill="#fff"/></svg>