<svg width="440" height="39" viewBox="0 0 440 39" fill="none" xmlns="http://www.w3.org/2000/svg"><path d="M22.143 21.291H5.122c.247 1.537.902 2.762 1.968 3.666 1.066.91 2.43 1.361 4.086 1.361 1.98 0 3.682-.71 5.106-2.125l4.463 2.145c-1.112 1.618-2.445 2.812-3.998 3.588-1.554.776-3.397 1.162-5.53 1.162-3.312 0-6.008-1.068-8.09-3.21C1.042 25.738 0 23.058 0 19.837c0-3.222 1.04-6.041 3.115-8.222 2.075-2.18 4.68-3.268 7.813-3.268 3.325 0 6.028 1.092 8.111 3.268 2.083 2.18 3.126 5.059 3.126 8.639l-.019 1.034-.003.003zm-5.297-4.274a5.428 5.428 0 00-2.072-2.94c-1.031-.757-2.223-1.136-3.587-1.136-1.477 0-2.772.425-3.887 1.272-.701.53-1.348 1.462-1.946 2.804H16.846zM38.662 11.927l-3.279 3.358c-1.333-1.354-2.544-2.028-3.629-2.028-.594 0-1.062.129-1.397.386-.34.257-.503.581-.503.963 0 .293.107.562.32.804.213.245.739.58 1.58 1.002l1.942.994c2.045 1.034 3.45 2.087 4.212 3.16.761 1.072 1.146 2.332 1.146 3.775 0 1.922-.69 3.525-2.068 4.808-1.378 1.287-3.225 1.927-5.54 1.927-3.08 0-5.537-1.232-7.376-3.697l3.26-3.639a7.563 7.563 0 002.181 1.798c.834.456 1.577.686 2.224.686.7 0 1.26-.171 1.687-.514.427-.344.64-.741.64-1.194 0-.834-.77-1.65-2.308-2.445l-1.786-.913c-3.415-1.763-5.121-3.97-5.121-6.618 0-1.708.643-3.17 1.93-4.384 1.287-1.213 2.936-1.817 4.94-1.817a8.42 8.42 0 013.872.924c1.21.616 2.235 1.502 3.076 2.652l-.003.012zM44.206 24.865c.842 0 1.561.3 2.155.905.594.605.891 1.334.891 2.196 0 .862-.297 1.599-.89 2.207a2.903 2.903 0 01-2.156.913c-.841 0-1.557-.304-2.155-.913-.594-.608-.891-1.345-.891-2.207 0-.862.297-1.595.89-2.196a2.91 2.91 0 012.156-.905zM55.785 1.295h5.293L67.7 21.692l6.679-20.397h5.293l4.794 29.242h-5.251l-3.062-18.466-6.07 18.466H65.29l-6.01-18.466-3.133 18.466h-5.304l4.942-29.242zM109.163 21.295H92.142c.243 1.54.902 2.761 1.968 3.67 1.067.905 2.43 1.361 4.09 1.361 1.98 0 3.682-.71 5.106-2.13l4.467 2.15c-1.112 1.614-2.445 2.816-4.002 3.592-1.554.776-3.397 1.162-5.533 1.162-3.313 0-6.009-1.069-8.095-3.21-2.083-2.14-3.127-4.82-3.127-8.038 0-3.217 1.036-6.04 3.115-8.217 2.08-2.176 4.684-3.268 7.814-3.268 3.324 0 6.028 1.092 8.111 3.268 2.082 2.184 3.126 5.058 3.126 8.635l-.019 1.033h-.008l.008-.008zm-5.301-4.274c-.35-1.205-1.043-2.188-2.071-2.94-1.032-.757-2.224-1.136-3.587-1.136-1.478 0-2.772.425-3.892 1.272-.7.53-1.352 1.466-1.946 2.804h11.496zM128.564.556h5.3v29.976h-5.3v-2.286c-1.036 1.006-2.072 1.736-3.111 2.176a8.57 8.57 0 01-3.385.667c-2.727 0-5.084-1.084-7.075-3.248-1.992-2.165-2.989-4.86-2.989-8.081 0-3.222.959-6.077 2.89-8.214 1.926-2.133 4.261-3.202 7.018-3.202 1.268 0 2.456.246 3.567.733 1.112.488 2.137 1.229 3.081 2.208V.555h.004zm-5.575 12.804c-1.637 0-3 .589-4.082 1.778-1.081 1.186-1.626 2.707-1.626 4.563 0 1.857.552 3.405 1.653 4.61 1.1 1.205 2.456 1.806 4.07 1.806 1.615 0 3.047-.59 4.139-1.779 1.097-1.185 1.642-2.738 1.642-4.664 0-1.927-.549-3.405-1.642-4.575-1.096-1.162-2.478-1.747-4.158-1.747v.008h.004zM141.358 0c.925 0 1.725.347 2.388 1.034.662.69.997 1.524.997 2.503 0 .98-.331 1.794-.99 2.477-.659.678-1.443 1.026-2.357 1.026a3.244 3.244 0 01-2.41-1.046c-.663-.698-.998-1.54-.998-2.535 0-.994.328-1.77.983-2.445C139.629.339 140.421 0 141.35 0h.008zm-2.65 8.904h5.3v21.625h-5.3V8.904zM169.335 13.283l-4.409 2.489c-.827-.89-1.649-1.502-2.456-1.849-.811-.347-1.76-.519-2.849-.519-1.98 0-3.587.6-4.809 1.814-1.222 1.209-1.835 2.761-1.835 4.653 0 1.891.586 3.338 1.77 4.508 1.177 1.162 2.727 1.747 4.646 1.747 2.368 0 4.215-.83 5.537-2.488l4.173 2.929c-2.266 3.018-5.461 4.528-9.592 4.528-3.716 0-6.622-1.127-8.724-3.381-2.102-2.255-3.156-4.891-3.156-7.914 0-2.094.514-4.02 1.53-5.783 1.025-1.76 2.453-3.148 4.28-4.158 1.828-1.006 3.88-1.51 6.142-1.51 2.098 0 3.979.43 5.647 1.284a10.742 10.742 0 014.094 3.65v.008l.011-.008zM187.749 8.903h5.301V30.53h-5.301v-2.286c-1.036 1.007-2.071 1.736-3.111 2.177a8.566 8.566 0 01-3.385.667c-2.726 0-5.083-1.085-7.075-3.25-1.991-2.164-2.989-4.859-2.989-8.08 0-3.222.959-6.076 2.89-8.214 1.927-2.133 4.261-3.201 7.018-3.201 1.268 0 2.456.245 3.568.733 1.112.487 2.136 1.228 3.08 2.207V8.895v.008h.004zm-5.574 4.454c-1.638 0-3.001.589-4.082 1.778-1.082 1.186-1.626 2.707-1.626 4.563 0 1.857.552 3.405 1.652 4.61 1.101 1.205 2.456 1.806 4.071 1.806 1.614 0 3.046-.589 4.139-1.778 1.097-1.186 1.641-2.738 1.641-4.665s-.548-3.405-1.641-4.575c-1.097-1.162-2.479-1.747-4.158-1.747v.008h.004zM197.546 8.904h4.542v2.726c.488-1.073 1.147-1.892 1.961-2.446a4.665 4.665 0 012.677-.834c.686 0 1.405.183 2.156.554l-1.649 4.668c-.625-.316-1.131-.476-1.531-.476-.815 0-1.504.519-2.068 1.552-.563 1.034-.845 3.062-.845 6.085l.019 1.056v8.748h-5.259V8.904h-.007.004zM231.562 21.295h-17.021c.243 1.54.902 2.761 1.968 3.67 1.067.905 2.43 1.361 4.09 1.361 1.98 0 3.682-.71 5.106-2.13l4.467 2.15c-1.112 1.614-2.445 2.816-4.002 3.592-1.554.776-3.397 1.162-5.533 1.162-3.313 0-6.009-1.069-8.095-3.21-2.083-2.14-3.127-4.82-3.127-8.038 0-3.217 1.036-6.04 3.115-8.217 2.079-2.176 4.684-3.268 7.814-3.268 3.324 0 6.028 1.092 8.111 3.268 2.083 2.184 3.126 5.058 3.126 8.635l-.019 1.033h-.008l.008-.008zm-5.301-4.274c-.35-1.205-1.043-2.188-2.071-2.94-1.028-.753-2.224-1.136-3.587-1.136-1.478 0-2.772.425-3.892 1.272-.7.53-1.352 1.466-1.946 2.804h11.496zM237.022 24.87a2.93 2.93 0 012.155.905c.595.6.892 1.338.892 2.196 0 .858-.297 1.599-.892 2.207a2.908 2.908 0 01-2.155.913 2.91 2.91 0 01-2.155-.913c-.594-.608-.891-1.342-.891-2.207 0-.866.297-1.592.891-2.196a2.932 2.932 0 012.155-.905zM259.501 8.903h5.281V27.43c0 3.654-.716 6.345-2.155 8.069C260.7 37.83 257.795 39 253.911 39c-2.072 0-3.808-.261-5.224-.792-1.409-.53-2.605-1.306-3.568-2.336-.971-1.026-1.687-2.278-2.156-3.744h5.842c.517.608 1.18 1.069 1.999 1.385.815.312 1.782.464 2.894.464 1.42 0 2.566-.226 3.434-.675.869-.452 1.478-1.033 1.836-1.747.354-.718.537-1.95.537-3.697-.933.955-1.912 1.642-2.929 2.059-1.024.417-2.178.628-3.476.628-2.837 0-5.228-1.046-7.182-3.144-1.949-2.094-2.928-4.742-2.928-7.952 0-3.428 1.036-6.19 3.103-8.272 1.874-1.88 4.117-2.82 6.714-2.82a8.7 8.7 0 013.446.687c1.081.46 2.166 1.209 3.248 2.254V8.903zm-5.491 4.517c-1.672 0-3.046.573-4.135 1.716-1.089 1.146-1.63 2.59-1.63 4.325 0 1.735.56 3.28 1.672 4.43 1.111 1.15 2.509 1.728 4.192 1.728 1.683 0 3.001-.562 4.063-1.689 1.066-1.127 1.603-2.605 1.603-4.43 0-1.825-.537-3.268-1.615-4.396-1.07-1.127-2.456-1.688-4.15-1.688v.004zM279.728 8.351c1.991 0 3.865.515 5.62 1.533 1.752 1.022 3.123 2.402 4.105 4.157a11.374 11.374 0 011.474 5.667c0 2.028-.495 3.947-1.485 5.725-.99 1.779-2.342 3.167-4.048 4.162-1.706 1.002-3.595 1.501-5.647 1.501-3.027 0-5.613-1.104-7.757-3.311-2.143-2.207-3.213-4.883-3.213-8.038 0-3.381 1.211-6.197 3.628-8.451 2.121-1.962 4.558-2.941 7.319-2.941l.008-.008-.004.004zm.088 5.113c-1.649 0-3.016.585-4.113 1.759-1.097 1.174-1.641 2.671-1.641 4.504 0 1.834.541 3.405 1.626 4.575 1.081 1.17 2.452 1.747 4.112 1.747 1.661 0 3.039-.588 4.139-1.77 1.101-1.182 1.653-2.695 1.653-4.552 0-1.856-.541-3.365-1.626-4.52-1.081-1.158-2.464-1.743-4.15-1.743zM291.459 8.905h5.399l5.335 12.765 5.323-12.765h5.369l-8.986 21.625h-3.435l-9.009-21.625h.008-.004z" fill="#F3F0DA"/><path d="M313.732 35.77L326.621.277h3.812L317.52 35.771h-3.788zM335.962 1.116h15.81v5.46h-10.384v5.34h6.748v5.378h-6.748V30.53h-5.426V1.112v.004zM354.559 8.776h4.57v2.738c.495-1.08 1.154-1.9 1.972-2.461a4.663 4.663 0 012.696-.839c.689 0 1.413.188 2.167.562l-1.66 4.7c-.625-.32-1.139-.48-1.542-.48-.819 0-1.512.518-2.08 1.56-.567 1.041-.849 3.08-.849 6.119l.019 1.06v8.8h-5.289V8.775h-.004zM384.276 8.776h5.331v21.758h-5.331v-2.3c-1.04 1.013-2.083 1.742-3.13 2.187-1.047.449-2.182.67-3.404.67-2.742 0-5.118-1.087-7.117-3.267-2.003-2.18-3.005-4.89-3.005-8.128 0-3.237.968-6.111 2.906-8.26 1.938-2.145 4.291-3.222 7.06-3.222 1.275 0 2.471.246 3.587.741 1.119.496 2.151 1.233 3.099 2.22V8.776h.004zm-5.601 4.481c-1.649 0-3.016.597-4.105 1.79-1.089 1.194-1.634 2.722-1.634 4.59 0 1.869.556 3.429 1.664 4.642 1.108 1.212 2.475 1.82 4.097 1.82 1.623 0 3.062-.596 4.166-1.79 1.104-1.193 1.653-2.757 1.653-4.687 0-1.93-.552-3.424-1.653-4.598-1.104-1.174-2.498-1.76-4.185-1.76l-.003-.007zM394.976 8.773h5.388v10.48c0 2.04.137 3.455.411 4.25.274.792.716 1.412 1.321 1.85.606.436 1.352.658 2.243.658.891 0 1.641-.218 2.262-.651.621-.433 1.081-1.069 1.378-1.911.221-.628.332-1.966.332-4.02V8.768h5.331v9.22c0 3.799-.294 6.4-.88 7.8-.716 1.708-1.771 3.015-3.164 3.931-1.394.913-3.165 1.37-5.312 1.37-2.331 0-4.215-.535-5.651-1.6-1.439-1.065-2.448-2.554-3.035-4.458-.415-1.318-.624-3.72-.624-7.199v-9.06zM434.669.374H440V30.53h-5.331v-2.3c-1.04 1.013-2.083 1.743-3.13 2.187-1.047.449-2.182.671-3.404.671-2.742 0-5.118-1.088-7.117-3.268-2.003-2.18-3.004-4.89-3.004-8.128 0-3.237.967-6.111 2.905-8.26 1.938-2.145 4.291-3.222 7.06-3.222 1.275 0 2.471.246 3.587.741 1.119.496 2.151 1.233 3.099 2.22V.37l.004.004zm-5.601 12.878c-1.649 0-3.016.597-4.105 1.79-1.089 1.194-1.634 2.723-1.634 4.59 0 1.869.556 3.429 1.664 4.642 1.108 1.213 2.475 1.821 4.098 1.821 1.622 0 3.061-.597 4.165-1.79 1.105-1.194 1.653-2.758 1.653-4.688 0-1.93-.552-3.424-1.653-4.598-1.104-1.174-2.498-1.759-4.184-1.759l-.004-.008z" fill="#fff"/></svg>