<svg width="569" height="26" viewBox="0 0 569 26" fill="none" xmlns="http://www.w3.org/2000/svg"><path d="M.65 21V1.56H5.6l6.18 8.61c.45.6.87 1.47.87 1.47V1.56h5.7V21H13.4l-6.18-8.46c-.45-.6-.87-1.47-.87-1.47V21H.65zm25.986.3c-4.62 0-5.58-2.88-5.58-6.78V5.67h5.46v8.16c0 1.62.54 2.37 1.98 2.37 1.65 0 2.25-1.41 2.25-3.3V5.67h5.46V21h-5.16v-1.68c-.84 1.08-2.82 1.98-4.41 1.98zm11.972-.3V5.67h5.16v1.77c1.41-1.65 3.09-2.07 4.62-2.07 3.87 0 5.37 2.28 5.37 6.78V21h-5.46v-8.16c0-1.74-.66-2.37-1.71-2.37-1.68 0-2.52 1.41-2.52 3.3V21h-5.46zm25.383.3c-4.71 0-8.28-3.54-8.28-7.95 0-4.44 3.57-7.98 8.28-7.98 2.1 0 3.81.63 5.43 1.92l-3.15 3.78c-.57-.54-1.2-.9-2.13-.9-1.77 0-2.91 1.35-2.91 3.18 0 1.86 1.11 3.15 3.03 3.15 1.05 0 1.92-.45 2.58-1.11l2.73 4.02c-1.47 1.23-3.42 1.89-5.58 1.89zm12.88 0c-4.26 0-6.57-3.54-6.57-7.95 0-4.44 2.31-7.98 6.57-7.98 1.23 0 3.27.42 4.17 2.01V5.67h5.16V21h-5.16v-1.71c-.84 1.56-2.94 2.01-4.17 2.01zm1.44-4.8c1.44 0 2.46-1.29 2.46-3.15 0-1.83-1.02-3.18-2.46-3.18s-2.46 1.35-2.46 3.18c0 1.86 1.02 3.15 2.46 3.15zm24.908 4.8c-4.71 0-8.28-3.54-8.28-7.95 0-4.44 3.57-7.98 8.28-7.98 2.1 0 3.81.63 5.43 1.92l-3.15 3.78c-.57-.54-1.2-.9-2.13-.9-1.77 0-2.91 1.35-2.91 3.18 0 1.86 1.11 3.15 3.03 3.15 1.05 0 1.92-.45 2.58-1.11l2.73 4.02c-1.47 1.23-3.42 1.89-5.58 1.89zm14.59 0c-4.71 0-8.28-3.54-8.28-7.95 0-4.44 3.57-7.98 8.28-7.98 4.71 0 8.28 3.54 8.28 7.98 0 4.41-3.57 7.95-8.28 7.95zm0-4.8c1.62 0 2.76-1.29 2.76-3.15 0-1.83-1.14-3.18-2.76-3.18-1.62 0-2.76 1.35-2.76 3.18 0 1.86 1.14 3.15 2.76 3.15zm10.389 4.5V5.67h5.16v1.68c1.14-1.29 2.91-1.98 4.62-1.98 2.46 0 3.78.99 4.5 2.37 1.32-1.92 3.36-2.37 4.89-2.37 4.95 0 5.37 3.99 5.37 7.08V21h-5.46v-7.92c0-1.83-.51-2.67-1.71-2.67-1.62 0-2.37 1.47-2.37 3.36V21h-5.46v-7.92c0-1.83-.51-2.67-1.71-2.67-1.62 0-2.37 1.47-2.37 3.36V21h-5.46zm26.777 4.41V5.67h5.16v1.71c1.23-1.65 2.94-2.01 4.17-2.01 4.26 0 6.57 3.54 6.57 7.95 0 4.44-2.46 7.98-6.75 7.98-1.23 0-2.76-.42-3.69-1.59v5.7h-5.46zm7.86-8.91c1.44 0 2.46-1.29 2.46-3.15 0-1.83-1.02-3.18-2.46-3.18s-2.46 1.35-2.46 3.18c0 1.86 1.02 3.15 2.46 3.15zm16.399 4.8c-4.26 0-6.57-3.54-6.57-7.95 0-4.44 2.31-7.98 6.57-7.98 1.23 0 3.27.42 4.17 2.01V5.67h5.16V21h-5.16v-1.71c-.84 1.56-2.94 2.01-4.17 2.01zm1.44-4.8c1.44 0 2.46-1.29 2.46-3.15 0-1.83-1.02-3.18-2.46-3.18s-2.46 1.35-2.46 3.18c0 1.86 1.02 3.15 2.46 3.15zm10.278 4.5V5.67h5.31V8.4c.09-.66 1.41-3.03 5.01-3.03v5.94c-3.96 0-4.86 1.65-4.86 4.53V21h-5.46zm18.835.3c-2.94 0-4.86-1.89-4.86-5.25V9.99h-2.25V5.67h2.25V2.91l5.46-1.35v4.11h3.39v4.32h-3.39v5.64c0 .72.36.96.84.96.45 0 .99-.21 1.38-.48l1.47 3.99c-1.32.93-2.94 1.2-4.29 1.2zm11.986 0c-4.26 0-6.57-3.54-6.57-7.95 0-4.44 2.31-7.98 6.57-7.98 1.23 0 3.27.42 4.17 2.01V5.67h5.16V21h-5.16v-1.71c-.84 1.56-2.94 2.01-4.17 2.01zm1.44-4.8c1.44 0 2.46-1.29 2.46-3.15 0-1.83-1.02-3.18-2.46-3.18s-2.46 1.35-2.46 3.18c0 1.86 1.02 3.15 2.46 3.15zm15.918 4.8c-3.51 0-5.46-1.05-6.36-1.83l1.74-3.84c1.2.81 2.31 1.29 4.65 1.29.06 0 1.5-.09 1.5-.69 0-.48-.9-.57-1.8-.78-3.33-.81-5.79-2.16-5.79-4.98 0-3.36 3.06-5.1 6.3-5.1 2.97 0 4.74.66 6.21 1.44l-1.62 3.66c-1.77-.69-3.39-.9-4.41-.9-.54 0-.96.18-.96.48 0 .57 1.29.78 2.82 1.2 2.16.63 4.77 1.68 4.77 4.77 0 4.11-4.17 5.28-7.05 5.28zm21.093 0c-2.58 0-4.11-1.26-4.11-4.68V8.28h-2.19V6.39h2.19V3.24l2.28-.42v3.57h4.98v1.89h-4.98v8.4c0 2.01.87 2.58 2.04 2.58 1.35 0 2.4-.81 2.4-.81l.75 1.77c-.57.39-1.77 1.08-3.36 1.08zm11.137 0c-3.6 0-5.31-1.89-5.31-5.79V6.39h2.28v8.82c0 2.73 1.32 3.87 3.69 3.87 2.64 0 4.17-2.16 4.17-4.41V6.39h2.28V21h-2.19v-2.58c-.9 1.89-3 2.88-4.92 2.88zm17.489-.3V6.39h2.28v2.49c1.02-1.77 2.91-2.79 5.07-2.79 3.66 0 5.28 2.22 5.28 6.06V21h-2.28v-8.55c0-2.7-.99-4.14-3.63-4.14-2.61 0-4.44 2.04-4.44 4.47V21h-2.28zm20.49-16.95l2.43-3.99h2.49l-2.82 3.99h-2.1zm.81 17.25c-3.6 0-5.31-1.89-5.31-5.79V6.39h2.28v8.82c0 2.73 1.32 3.87 3.69 3.87 2.64 0 4.17-2.16 4.17-4.41V6.39h2.28V21h-2.19v-2.58c-.9 1.89-3 2.88-4.92 2.88zm10.956-.3V6.39h2.28v2.52c.81-1.59 2.64-2.82 4.68-2.82 2.34 0 3.99 1.02 4.68 3.09 1.05-2.13 3.33-3.09 5.04-3.09 3.51 0 5.37 2.04 5.37 6.06V21h-2.31v-8.55c0-2.49-.87-4.14-3.54-4.14-2.46 0-4.02 1.98-4.02 4.17V21h-2.31v-8.55c0-2.49-.87-4.14-3.51-4.14-2.55 0-4.08 2.16-4.08 4.29V21h-2.28zm32.655.3c-4.14 0-7.65-2.97-7.65-7.59 0-4.23 3.18-7.62 7.35-7.62 3.9 0 6.99 3.36 6.99 7.53 0 .42-.06.87-.06.9h-11.91c.36 2.91 2.61 4.74 5.31 4.74 1.65 0 3.3-.57 4.5-1.56l.99 1.68a8.94 8.94 0 01-5.52 1.92zm-5.28-8.52h9.72c-.24-2.7-2.31-4.65-4.86-4.65-2.49 0-4.53 1.92-4.86 4.65zM363.703 21V6.39h2.28v3.09c.84-1.92 2.73-3.39 5.64-3.39v2.49c-3.42 0-5.64 1.92-5.64 5.49V21h-2.28zm17.334.3c-4.29 0-7.68-3.36-7.68-7.59 0-4.26 3.39-7.62 7.68-7.62 4.29 0 7.68 3.36 7.68 7.62 0 4.23-3.39 7.59-7.68 7.59zm0-2.22c3.03 0 5.34-2.31 5.34-5.37 0-3.09-2.31-5.4-5.34-5.4s-5.34 2.31-5.34 5.4c0 3.06 2.31 5.37 5.34 5.37zm23.742 2.22c-4.05 0-6.9-3.36-6.9-7.59 0-4.29 2.85-7.62 6.9-7.62 2.34 0 4.41.96 5.49 2.85V1.26h2.28V21h-2.19v-2.55c-1.08 1.92-3.21 2.85-5.58 2.85zm.51-2.22c2.79 0 4.98-2.31 4.98-5.37s-2.19-5.4-4.98-5.4c-2.91 0-5.07 2.28-5.07 5.4 0 3.09 2.16 5.37 5.07 5.37zm18.14 2.22c-4.14 0-7.65-2.97-7.65-7.59 0-4.23 3.18-7.62 7.35-7.62 3.9 0 6.99 3.36 6.99 7.53 0 .42-.06.87-.06.9h-11.91c.36 2.91 2.61 4.74 5.31 4.74 1.65 0 3.3-.57 4.5-1.56l.99 1.68a8.94 8.94 0 01-5.52 1.92zm-5.28-8.52h9.72c-.24-2.7-2.31-4.65-4.86-4.65-2.49 0-4.53 1.92-4.86 4.65zM440.264 21V1.56h2.13l4.74 6.6c1.02 1.44 3.15 4.5 3.15 4.5s2.13-3.03 3.15-4.47l4.74-6.63h2.13V21h-2.4V5.61s-.51.93-1.44 2.22l-6.18 8.7-6.21-8.76c-.87-1.23-1.41-2.16-1.41-2.16V21h-2.4zm31.27.3c-4.14 0-7.65-2.97-7.65-7.59 0-4.23 3.18-7.62 7.35-7.62 3.9 0 6.99 3.36 6.99 7.53 0 .42-.06.87-.06.9h-11.91c.36 2.91 2.61 4.74 5.31 4.74 1.65 0 3.3-.57 4.5-1.56l.99 1.68a8.94 8.94 0 01-5.52 1.92zm-5.28-8.52h9.72c-.24-2.7-2.31-4.65-4.86-4.65-2.49 0-4.53 1.92-4.86 4.65zm21.523 8.52c-4.05 0-6.9-3.36-6.9-7.59 0-4.29 2.85-7.62 6.9-7.62 2.34 0 4.41.96 5.49 2.85V1.26h2.28V21h-2.19v-2.55c-1.08 1.92-3.21 2.85-5.58 2.85zm.51-2.22c2.79 0 4.98-2.31 4.98-5.37s-2.19-5.4-4.98-5.4c-2.91 0-5.07 2.28-5.07 5.4 0 3.09 2.16 5.37 5.07 5.37zm11.09 1.92V6.39h2.28V21h-2.28zm1.14-17.22c-.84 0-1.5-.66-1.5-1.5s.66-1.53 1.5-1.53 1.53.69 1.53 1.53c0 .84-.69 1.5-1.53 1.5zM512.58 21.3c-4.29 0-7.68-3.33-7.68-7.59s3.39-7.62 7.68-7.62c2.01 0 3.84.72 5.22 1.95l-1.44 1.62c-.9-.84-2.22-1.35-3.75-1.35-3.06 0-5.37 2.28-5.37 5.4 0 3.03 2.22 5.37 5.43 5.37 1.65 0 3.15-.63 4.17-1.65l1.32 1.71c-1.41 1.35-3.39 2.16-5.58 2.16zm14.279 0c-4.05 0-6.9-3.36-6.9-7.59 0-4.29 2.85-7.62 6.9-7.62 2.34 0 4.41.96 5.49 2.85V6.39h2.28V21h-2.28v-2.55c-1.08 1.92-3.15 2.85-5.49 2.85zm.51-2.22c2.79 0 4.98-2.31 4.98-5.37s-2.19-5.4-4.98-5.4c-2.91 0-5.07 2.28-5.07 5.4 0 3.09 2.16 5.37 5.07 5.37zm11.09 1.92V6.39h2.28v3.09c.84-1.92 2.73-3.39 5.64-3.39v2.49c-3.42 0-5.64 1.92-5.64 5.49V21h-2.28zm17.304.3c-4.14 0-7.65-2.97-7.65-7.59 0-4.23 3.18-7.62 7.35-7.62 3.9 0 6.99 3.36 6.99 7.53 0 .42-.06.87-.06.9h-11.91c.36 2.91 2.61 4.74 5.31 4.74 1.65 0 3.3-.57 4.5-1.56l.99 1.68a8.94 8.94 0 01-5.52 1.92zm-5.28-8.52h9.72c-.24-2.7-2.31-4.65-4.86-4.65-2.49 0-4.53 1.92-4.86 4.65zm16.332 8.52c-.9 0-1.56-.72-1.56-1.59 0-.87.69-1.59 1.56-1.59.87 0 1.59.72 1.59 1.59a1.6 1.6 0 01-1.59 1.59z" fill="#42443C"/></svg>