<svg width="231" height="52" viewBox="0 0 231 52" fill="none" xmlns="http://www.w3.org/2000/svg"><rect x="2.001" y="1" width="227.259" height="50" rx="7" fill="#FFC332" stroke="#FFE094" stroke-width="2"/><path d="M29.753 32.747V20.435h5.13c4.123 0 6.707 2.793 6.707 6.156 0 3.363-2.584 6.156-6.707 6.156h-5.13zm3.61-3.06h1.387c1.843 0 3.02-1.31 3.02-3.096 0-1.767-1.177-3.097-3.02-3.097h-1.387v6.194zm10.315 3.06V20.435h9.785v3.059h-6.175v1.5h5.928v3.022h-5.928v1.672h6.403v3.059H43.678zm15.02 0v-9.253H54.84v-3.06h11.324v3.06h-3.857v9.253h-3.61zm9.267 0V20.435h9.785v3.059h-6.175v1.5h5.928v3.022h-5.928v1.672h6.403v3.059H67.965zm3.154-12.92l1.995-3.401h3.325l-2.755 3.4h-2.565zm8.674 12.92V20.435h3.135l3.914 5.453c.285.38.551.93.551.93v-6.383h3.61v12.312h-3.135l-3.914-5.358c-.285-.38-.55-.931-.55-.931v6.289h-3.61zm18.276 0V20.435h9.785v3.059h-6.175v1.5h5.928v3.022h-5.928v1.672h6.403v3.059H98.069zm11.828 0V20.435h3.61v9.253h6.555v3.059h-10.165zm16.661 0V20.435h9.5v3.059h-5.89v1.5h5.149v3.022h-5.149v4.73h-3.61zm11.012 0V20.435h5.434c3.781 0 5.719 2.185 5.719 4.864 0 1.425-.646 2.888-1.938 3.78l2.299 3.668h-4.123l-1.406-2.641a8.04 8.04 0 01-.893.057h-1.482v2.584h-3.61zm3.61-5.643h1.862c1.121 0 1.862-.817 1.862-1.805 0-1.007-.76-1.805-1.843-1.805h-1.881v3.61zm8.736 5.643l4.978-12.312h3.724l4.978 12.312h-3.686l-.57-1.596h-5.168l-.57 1.596h-3.686zm5.225-4.37h3.23l-1.463-4.161c-.114-.304-.133-.418-.152-.494 0 0-.038.17-.152.494l-1.463 4.16zm14.916 4.598c-3.116 0-5.491-1.73-5.491-5.111v-7.43h3.61v7.22c0 1.483.855 2.053 1.881 2.053s1.881-.57 1.881-2.052v-7.22h3.61v7.429c0 3.382-2.375 5.11-5.491 5.11zm7.915-.228V20.435h5.13c4.123 0 6.707 2.793 6.707 6.156 0 3.363-2.584 6.156-6.707 6.156h-5.13zm3.61-3.06h1.387c1.843 0 3.021-1.31 3.021-3.096 0-1.767-1.178-3.097-3.021-3.097h-1.387v6.194zm10.315 3.06V20.435h9.785v3.059h-6.175v1.5h5.928v3.022h-5.928v1.672h6.403v3.059h-10.013z" fill="#1F211C"/></svg>