<svg width="423" height="53" viewBox="0 0 423 53" fill="none" xmlns="http://www.w3.org/2000/svg"><path d="M6.95 28.07c-3.75 0-6.27-2.73-6.27-6.15 0-3.06 2.19-5.49 5.19-5.94l.24-2.55h1.95l.27 4.05c-3.3.03-5.31 1.95-5.31 4.47 0 2.13 1.77 3.9 4.02 3.9 1.8 0 3.21-.93 3.93-2.58l1.89.9c-.93 2.43-3.06 3.9-5.91 3.9zm.12-16.86a1.6 1.6 0 01-1.59-1.59c0-.9.72-1.59 1.59-1.59.9 0 1.59.69 1.59 1.59a1.6 1.6 0 01-1.59 1.59zM15.489 23V3.56h14.7v2.1h-12.3v5.91h11.52v2.07h-11.52v7.26h12.75V23h-15.15zm29.858 4.23v-6.78c-1.08 1.89-3.15 2.85-5.49 2.85-4.05 0-6.9-3.36-6.9-7.62s2.85-7.59 6.9-7.59c2.37 0 4.5.93 5.58 2.82V8.39h2.19v18.84h-2.28zm-4.98-6.15c2.79 0 4.98-2.34 4.98-5.4 0-3.06-2.19-5.37-4.98-5.37-2.91 0-5.07 2.28-5.07 5.37 0 3.12 2.16 5.4 5.07 5.4zm16.16 2.22c-3.6 0-5.31-1.89-5.31-5.79V8.39h2.28v8.82c0 2.73 1.32 3.87 3.69 3.87 2.64 0 4.17-2.16 4.17-4.41V8.39h2.28V23h-2.19v-2.58c-.9 1.89-3 2.88-4.92 2.88zm10.956-.3V8.39h2.28V23h-2.28zm1.14-17.22c-.84 0-1.5-.66-1.5-1.5s.66-1.53 1.5-1.53 1.53.69 1.53 1.53c0 .84-.69 1.5-1.53 1.5zm4.983 21.45V8.39h2.19v2.52c1.08-1.89 3.21-2.82 5.58-2.82 4.05 0 6.9 3.33 6.9 7.59s-2.85 7.62-6.9 7.62c-2.31 0-4.41-.96-5.49-2.85v6.78h-2.28zm7.26-6.15c2.91 0 5.07-2.28 5.07-5.4 0-3.09-2.16-5.37-5.07-5.37-2.79 0-4.98 2.31-4.98 5.37s2.19 5.4 4.98 5.4zm17.72 2.22c-4.29 0-7.68-3.36-7.68-7.59 0-4.26 3.39-7.62 7.68-7.62 4.29 0 7.68 3.36 7.68 7.62 0 4.23-3.39 7.59-7.68 7.59zm0-2.22c3.03 0 5.34-2.31 5.34-5.37 0-3.09-2.31-5.4-5.34-5.4s-5.34 2.31-5.34 5.4c0 3.06 2.31 5.37 5.34 5.37zM116.027 23V8.39h2.28v2.52c.81-1.59 2.64-2.82 4.68-2.82 2.34 0 3.99 1.02 4.68 3.09 1.05-2.13 3.33-3.09 5.04-3.09 3.51 0 5.37 2.04 5.37 6.06V23h-2.31v-8.55c0-2.49-.87-4.14-3.54-4.14-2.46 0-4.02 1.98-4.02 4.17V23h-2.31v-8.55c0-2.49-.87-4.14-3.51-4.14-2.55 0-4.08 2.16-4.08 4.29V23h-2.28zm30.796-16.95l2.43-3.99h2.49l-2.82 3.99h-2.1zm1.86 17.25c-4.14 0-7.65-2.97-7.65-7.59 0-4.23 3.18-7.62 7.35-7.62 3.9 0 6.99 3.36 6.99 7.53 0 .42-.06.87-.06.9h-11.91c.36 2.91 2.61 4.74 5.31 4.74 1.65 0 3.3-.57 4.5-1.56l.99 1.68a8.94 8.94 0 01-5.52 1.92zm-5.28-8.52h9.72c-.24-2.7-2.31-4.65-4.86-4.65-2.49 0-4.53 1.92-4.86 4.65zm21.522 8.52c-4.05 0-6.9-3.36-6.9-7.59 0-4.29 2.85-7.62 6.9-7.62 2.34 0 4.41.96 5.49 2.85V3.26h2.28V23h-2.19v-2.55c-1.08 1.92-3.21 2.85-5.58 2.85zm.51-2.22c2.79 0 4.98-2.31 4.98-5.37s-2.19-5.4-4.98-5.4c-2.91 0-5.07 2.28-5.07 5.4 0 3.09 2.16 5.37 5.07 5.37zm11.09 1.92V8.39h2.28V23h-2.28zm1.14-17.22c-.84 0-1.5-.66-1.5-1.5s.66-1.53 1.5-1.53 1.53.69 1.53 1.53c0 .84-.69 1.5-1.53 1.5zm12.064 17.52c-4.29 0-7.68-3.33-7.68-7.59s3.39-7.62 7.68-7.62c2.01 0 3.84.72 5.22 1.95l-1.44 1.62c-.9-.84-2.22-1.35-3.75-1.35-3.06 0-5.37 2.28-5.37 5.4 0 3.03 2.22 5.37 5.43 5.37 1.65 0 3.15-.63 4.17-1.65l1.32 1.71c-1.41 1.35-3.39 2.16-5.58 2.16zm15.058 0c-4.29 0-7.68-3.36-7.68-7.59 0-4.26 3.39-7.62 7.68-7.62 4.29 0 7.68 3.36 7.68 7.62 0 4.23-3.39 7.59-7.68 7.59zm0-2.22c3.03 0 5.34-2.31 5.34-5.37 0-3.09-2.31-5.4-5.34-5.4s-5.34 2.31-5.34 5.4c0 3.06 2.31 5.37 5.34 5.37zm24.942-8.25V3.56h4.08v9.27h-4.08zm-6.84 0V3.56h4.08v9.27h-4.08zm23.515 14.58c-3 0-5.34-.69-6.72-1.62l1.95-3.42c1.2.78 2.94.99 4.17.99 1.98 0 3-.9 3.36-1.89.12-.3.18-.6.18-.9-.84 1.11-2.49 1.53-3.72 1.53-4.26 0-6.72-3.3-6.72-7.35 0-4.08 2.46-7.38 6.72-7.38 1.23 0 3.18.45 4.02 2.01V7.67h5.16v11.16c0 4.38-1.95 8.58-8.4 8.58zm.51-10.02c1.44 0 2.46-1.08 2.46-2.64s-1.02-2.67-2.46-2.67-2.46 1.11-2.46 2.67c0 1.56 1.02 2.64 2.46 2.64zM257.046 23V7.67h5.31v2.73c.09-.66 1.41-3.03 5.01-3.03v5.94c-3.96 0-4.86 1.65-4.86 4.53V23h-5.46zm18.399.3c-4.26 0-6.57-3.54-6.57-7.95 0-4.44 2.31-7.98 6.57-7.98 1.23 0 3.27.42 4.17 2.01V7.67h5.16V23h-5.16v-1.71c-.84 1.56-2.94 2.01-4.17 2.01zm1.44-4.8c1.44 0 2.46-1.29 2.46-3.15 0-1.83-1.02-3.18-2.46-3.18s-2.46 1.35-2.46 3.18c0 1.86 1.02 3.15 2.46 3.15zm16.398 4.8c-2.94 0-4.86-1.89-4.86-5.25v-6.06h-2.25V7.67h2.25V4.91l5.46-1.35v4.11h3.39v4.32h-3.39v5.64c0 .72.36.96.84.96.45 0 .99-.21 1.38-.48l1.47 3.99c-1.32.93-2.94 1.2-4.29 1.2zm5.716-.3V7.67h5.46V23h-5.46zm2.7-16.5c-1.68 0-3.09-1.41-3.09-3.09 0-1.71 1.41-3.12 3.09-3.12 1.74 0 3.15 1.41 3.15 3.12 0 1.68-1.41 3.09-3.15 3.09zm10.791 16.8c-3.51 0-5.46-1.05-6.36-1.83l1.74-3.84c1.2.81 2.31 1.29 4.65 1.29.06 0 1.5-.09 1.5-.69 0-.48-.9-.57-1.8-.78-3.33-.81-5.79-2.16-5.79-4.98 0-3.36 3.06-5.1 6.3-5.1 2.97 0 4.74.66 6.21 1.44l-1.62 3.66c-1.77-.69-3.39-.9-4.41-.9-.54 0-.96.18-.96.48 0 .57 1.29.78 2.82 1.2 2.16.63 4.77 1.68 4.77 4.77 0 4.11-4.17 5.28-7.05 5.28zm17.053-10.47V3.56h4.08v9.27h-4.08zm-6.84 0V3.56h4.08v9.27h-4.08zm23.569 14.4V8.39h2.19v2.52c1.08-1.89 3.21-2.82 5.58-2.82 4.05 0 6.9 3.33 6.9 7.59s-2.85 7.62-6.9 7.62c-2.31 0-4.41-.96-5.49-2.85v6.78h-2.28zm7.26-6.15c2.91 0 5.07-2.28 5.07-5.4 0-3.09-2.16-5.37-5.07-5.37-2.79 0-4.98 2.31-4.98 5.37s2.19 5.4 4.98 5.4zm17.72 2.22c-4.29 0-7.68-3.36-7.68-7.59 0-4.26 3.39-7.62 7.68-7.62 4.29 0 7.68 3.36 7.68 7.62 0 4.23-3.39 7.59-7.68 7.59zm0-2.22c3.03 0 5.34-2.31 5.34-5.37 0-3.09-2.31-5.4-5.34-5.4s-5.34 2.31-5.34 5.4c0 3.06 2.31 5.37 5.34 5.37zM382.16 23V8.39h2.28v3.09c.84-1.92 2.73-3.39 5.64-3.39v2.49c-3.42 0-5.64 1.92-5.64 5.49V23h-2.28zm21.97.3c-2.58 0-4.11-1.26-4.11-4.68v-8.34h-2.19V8.39h2.19V5.24l2.28-.42v3.57h4.98v1.89h-4.98v8.4c0 2.01.87 2.58 2.04 2.58 1.35 0 2.4-.81 2.4-.81l.75 1.77c-.57.39-1.77 1.08-3.36 1.08zm11.137 0c-3.6 0-5.31-1.89-5.31-5.79V8.39h2.28v8.82c0 2.73 1.32 3.87 3.69 3.87 2.64 0 4.17-2.16 4.17-4.41V8.39h2.28V23h-2.19v-2.58c-.9 1.89-3 2.88-4.92 2.88zM.92 52V37.39H3.2v2.49c1.02-1.77 2.91-2.79 5.07-2.79 3.66 0 5.28 2.22 5.28 6.06V52h-2.28v-8.55c0-2.7-.99-4.14-3.63-4.14-2.61 0-4.44 2.04-4.44 4.47V52H.92zm20.49-16.95l2.43-3.99h2.49l-2.82 3.99h-2.1zm.81 17.25c-3.6 0-5.31-1.89-5.31-5.79v-9.12h2.28v8.82c0 2.73 1.32 3.87 3.69 3.87 2.64 0 4.17-2.16 4.17-4.41v-8.28h2.28V52h-2.19v-2.58c-.9 1.89-3 2.88-4.92 2.88zm10.956-.3V37.39h2.28v2.52c.81-1.59 2.64-2.82 4.68-2.82 2.34 0 3.99 1.02 4.68 3.09 1.05-2.13 3.33-3.09 5.04-3.09 3.51 0 5.37 2.04 5.37 6.06V52h-2.31v-8.55c0-2.49-.87-4.14-3.54-4.14-2.46 0-4.02 1.98-4.02 4.17V52h-2.31v-8.55c0-2.49-.87-4.14-3.51-4.14-2.55 0-4.08 2.16-4.08 4.29V52h-2.28zm32.655.3c-4.14 0-7.65-2.97-7.65-7.59 0-4.23 3.18-7.62 7.35-7.62 3.9 0 6.99 3.36 6.99 7.53 0 .42-.06.87-.06.9h-11.91c.36 2.91 2.61 4.74 5.31 4.74 1.65 0 3.3-.57 4.5-1.56l.99 1.68a8.94 8.94 0 01-5.52 1.92zm-5.28-8.52h9.72c-.24-2.7-2.31-4.65-4.86-4.65-2.49 0-4.53 1.92-4.86 4.65zM75.773 52V37.39h2.28v3.09c.84-1.92 2.73-3.39 5.64-3.39v2.49c-3.42 0-5.64 1.92-5.64 5.49V52h-2.28zm17.334.3c-4.29 0-7.68-3.36-7.68-7.59 0-4.26 3.39-7.62 7.68-7.62 4.29 0 7.68 3.36 7.68 7.62 0 4.23-3.39 7.59-7.68 7.59zm0-2.22c3.03 0 5.34-2.31 5.34-5.37 0-3.09-2.31-5.4-5.34-5.4s-5.34 2.31-5.34 5.4c0 3.06 2.31 5.37 5.34 5.37zm23.742 2.22c-4.05 0-6.9-3.36-6.9-7.59 0-4.29 2.85-7.62 6.9-7.62 2.34 0 4.41.96 5.49 2.85v-7.68h2.28V52h-2.19v-2.55c-1.08 1.92-3.21 2.85-5.58 2.85zm.51-2.22c2.79 0 4.98-2.31 4.98-5.37s-2.19-5.4-4.98-5.4c-2.91 0-5.07 2.28-5.07 5.4 0 3.09 2.16 5.37 5.07 5.37zm18.14 2.22c-4.14 0-7.65-2.97-7.65-7.59 0-4.23 3.18-7.62 7.35-7.62 3.9 0 6.99 3.36 6.99 7.53 0 .42-.06.87-.06.9h-11.91c.36 2.91 2.61 4.74 5.31 4.74 1.65 0 3.3-.57 4.5-1.56l.99 1.68a8.94 8.94 0 01-5.52 1.92zm-5.28-8.52h9.72c-.24-2.7-2.31-4.65-4.86-4.65-2.49 0-4.53 1.92-4.86 4.65zM151.705 52V32.56h4.86l3.81 5.46c.63.93 1.65 2.52 1.65 2.52s1.02-1.59 1.65-2.52l3.81-5.46h4.86V52h-5.7v-9.84s-.99 1.59-1.53 2.34l-3.09 4.32-3.12-4.32c-.54-.75-1.5-2.28-1.5-2.28V52h-5.7zm31.795.3c-4.65 0-8.61-2.91-8.61-7.95 0-4.44 3.45-7.98 7.98-7.98 4.35 0 7.68 3.54 7.68 7.98 0 .93-.12 1.77-.12 1.77h-10.17c.45 1.44 1.8 1.98 3.27 1.98 1.29 0 2.67-.39 3.63-.93l1.83 3.69c-1.71 1.05-3.6 1.44-5.49 1.44zm-3.39-9.27h5.46c-.18-1.41-1.29-2.37-2.7-2.37-1.35 0-2.43.96-2.76 2.37zm18.811 9.27c-4.26 0-6.57-3.54-6.57-7.95 0-4.44 2.46-7.98 6.75-7.98 1.23 0 2.76.42 3.69 1.59v-5.7h5.46V52h-5.16v-1.71c-.81 1.56-2.94 2.01-4.17 2.01zm1.44-4.8c1.44 0 2.46-1.29 2.46-3.15 0-1.83-1.02-3.18-2.46-3.18s-2.46 1.35-2.46 3.18c0 1.86 1.02 3.15 2.46 3.15zm10.278 4.5V36.67h5.46V52h-5.46zm2.7-16.5c-1.68 0-3.09-1.41-3.09-3.09 0-1.71 1.41-3.12 3.09-3.12 1.74 0 3.15 1.41 3.15 3.12 0 1.68-1.41 3.09-3.15 3.09zm13.132 16.8c-4.71 0-8.28-3.54-8.28-7.95 0-4.44 3.57-7.98 8.28-7.98 2.1 0 3.81.63 5.43 1.92l-3.15 3.78c-.57-.54-1.2-.9-2.13-.9-1.77 0-2.91 1.35-2.91 3.18 0 1.86 1.11 3.15 3.03 3.15 1.05 0 1.92-.45 2.58-1.11l2.73 4.02c-1.47 1.23-3.42 1.89-5.58 1.89zm12.88 0c-4.26 0-6.57-3.54-6.57-7.95 0-4.44 2.31-7.98 6.57-7.98 1.23 0 3.27.42 4.17 2.01v-1.71h5.16V52h-5.16v-1.71c-.84 1.56-2.94 2.01-4.17 2.01zm1.44-4.8c1.44 0 2.46-1.29 2.46-3.15 0-1.83-1.02-3.18-2.46-3.18s-2.46 1.35-2.46 3.18c0 1.86 1.02 3.15 2.46 3.15zm10.278 4.5V36.67h5.31v2.73c.09-.66 1.41-3.03 5.01-3.03v5.94c-3.96 0-4.86 1.65-4.86 4.53V52h-5.46zm20.439.3c-4.65 0-8.61-2.91-8.61-7.95 0-4.44 3.45-7.98 7.98-7.98 4.35 0 7.68 3.54 7.68 7.98 0 .93-.12 1.77-.12 1.77h-10.17c.45 1.44 1.8 1.98 3.27 1.98 1.29 0 2.67-.39 3.63-.93l1.83 3.69c-1.71 1.05-3.6 1.44-5.49 1.44zm-3.39-9.27h5.46c-.18-1.41-1.29-2.37-2.7-2.37-1.35 0-2.43.96-2.76 2.37zm17.911-10.77c3.75 0 6.27 2.73 6.27 6.15 0 3.06-2.19 5.49-5.19 5.94l-.24 2.55h-1.95l-.27-4.05c3.3-.03 5.31-1.95 5.31-4.47 0-2.13-1.77-3.9-4.02-3.9-1.8 0-3.21.93-3.93 2.58l-1.89-.9c.93-2.43 3.06-3.9 5.91-3.9zm-.12 16.86c.87 0 1.59.72 1.59 1.59 0 .9-.72 1.59-1.59 1.59-.9 0-1.59-.69-1.59-1.59 0-.87.72-1.59 1.59-1.59z" fill="#42443C"/></svg>