<svg width="213" height="44" viewBox="0 0 213 44" fill="none" xmlns="http://www.w3.org/2000/svg"><path d="M15.845 43.06C7.053 43.06.389 36.452.389 28.22c0-8.288 6.664-14.896 15.456-14.896S31.3 19.932 31.3 28.22c0 8.232-6.664 14.84-15.456 14.84zm0-8.96c3.024 0 5.152-2.408 5.152-5.88 0-3.416-2.128-5.936-5.152-5.936s-5.152 2.52-5.152 5.936c0 3.472 2.128 5.88 5.152 5.88zm49.559 8.96c-8.68 0-16.072-5.432-16.072-14.84 0-8.288 6.44-14.896 14.896-14.896 8.12 0 14.336 6.608 14.336 14.896 0 1.736-.224 3.304-.224 3.304H59.356c.84 2.688 3.36 3.696 6.104 3.696 2.408 0 4.984-.728 6.776-1.736l3.416 6.888c-3.192 1.96-6.72 2.688-10.248 2.688zm-6.328-17.304h10.192c-.336-2.632-2.408-4.424-5.04-4.424-2.52 0-4.536 1.792-5.152 4.424zM83.606 42.5V13.884h9.632v3.136c2.128-2.408 5.432-3.696 8.624-3.696 4.592 0 7.056 1.848 8.4 4.424 2.464-3.584 6.272-4.424 9.128-4.424 9.24 0 10.024 7.448 10.024 13.216V42.5h-10.192V27.716c0-3.416-.952-4.984-3.192-4.984-3.024 0-4.424 2.744-4.424 6.272V42.5h-10.192V27.716c0-3.416-.952-4.984-3.192-4.984-3.024 0-4.424 2.744-4.424 6.272V42.5H83.606zm62.808.56c-7.952 0-12.264-6.608-12.264-14.84 0-8.288 4.312-14.896 12.264-14.896 2.296 0 6.104.784 7.784 3.752v-3.192h9.632V42.5h-9.632v-3.192c-1.568 2.912-5.488 3.752-7.784 3.752zm2.688-8.96c2.688 0 4.592-2.408 4.592-5.88 0-3.416-1.904-5.936-4.592-5.936-2.688 0-4.592 2.52-4.592 5.936 0 3.472 1.904 5.88 4.592 5.88zm20.306 8.4V13.884H179.6V42.5h-10.192zm5.04-30.8c-3.136 0-5.768-2.632-5.768-5.768 0-3.192 2.632-5.824 5.768-5.824 3.248 0 5.88 2.632 5.88 5.824 0 3.136-2.632 5.768-5.88 5.768zm10.737 30.8V5.652h10.192V42.5h-10.192zm21.768.56c-3.192 0-5.544-2.408-5.544-5.488 0-3.08 2.352-5.488 5.544-5.488 3.248 0 5.656 2.408 5.656 5.488 0 3.08-2.408 5.488-5.656 5.488z" fill="#fff"/></svg>