<svg width="238" height="157" viewBox="0 0 238 157" fill="none" xmlns="http://www.w3.org/2000/svg"><path d="M40.562 30V2.136h21.07v3.01h-17.63v8.471h16.512v2.967H44.002V26.99h18.275V30H40.562zm25.897 0V1.706h3.268V30h-3.268zm18.614 0V11.768h-3.397V9.059h3.397V7.468c0-5.203 2.752-6.622 5.633-6.622 2.064 0 3.999.774 5.03 1.419l-1.074 2.494c-.43-.258-1.677-1.032-3.268-1.032-1.634 0-3.053.817-3.053 4.085v1.247h6.665v2.709H88.34V30h-3.268zm13.048 0V9.059h3.268v4.429c1.204-2.752 3.913-4.859 8.084-4.859v3.569c-4.902 0-8.084 2.752-8.084 7.869V30h-3.268zm23.727.43c-5.805 0-9.89-4.816-9.89-10.879 0-6.149 4.085-10.922 9.89-10.922 3.354 0 6.321 1.376 7.869 4.085V9.059h3.268V30h-3.268v-3.655c-1.548 2.752-4.515 4.085-7.869 4.085zm.731-3.182c3.999 0 7.138-3.311 7.138-7.697s-3.139-7.74-7.138-7.74c-4.171 0-7.267 3.268-7.267 7.74 0 4.429 3.096 7.697 7.267 7.697zm23.164 3.182c-5.16 0-7.611-2.709-7.611-8.299V9.059h3.268v12.642c0 3.913 1.892 5.547 5.289 5.547 3.784 0 5.977-3.096 5.977-6.321V9.059h3.268V30h-3.139v-3.698c-1.29 2.709-4.3 4.128-7.052 4.128zm24.732 0c-5.805 0-9.89-4.816-9.89-10.879 0-6.149 4.085-10.922 9.89-10.922 3.354 0 6.321 1.376 7.869 4.085V1.706h3.268V30h-3.139v-3.655c-1.548 2.752-4.601 4.085-7.998 4.085zm.731-3.182c3.999 0 7.138-3.311 7.138-7.697s-3.139-7.74-7.138-7.74c-4.171 0-7.267 3.268-7.267 7.74 0 4.429 3.096 7.697 7.267 7.697zm26.002 3.182c-5.934 0-10.965-4.257-10.965-10.879 0-6.063 4.558-10.922 10.535-10.922 5.59 0 10.019 4.816 10.019 10.793 0 .602-.086 1.247-.086 1.29H189.64c.516 4.171 3.741 6.794 7.611 6.794 2.365 0 4.73-.817 6.45-2.236l1.419 2.408a12.814 12.814 0 01-7.912 2.752zm-7.568-12.212h13.932c-.344-3.87-3.311-6.665-6.966-6.665-3.569 0-6.493 2.752-6.966 6.665zM.783 78.063V51.059h3.14v3.612c1.547-2.709 4.6-4.042 7.997-4.042 5.805 0 9.89 4.773 9.89 10.879S17.725 72.43 11.92 72.43c-3.31 0-6.32-1.376-7.869-4.085v9.718H.783zm10.406-8.815c4.171 0 7.267-3.268 7.267-7.74 0-4.429-3.096-7.697-7.267-7.697-3.999 0-7.138 3.311-7.138 7.697s3.14 7.74 7.138 7.74zm22.519 3.182c-5.16 0-7.611-2.709-7.611-8.299V51.059h3.267v12.642c0 3.913 1.892 5.547 5.29 5.547 3.783 0 5.976-3.096 5.976-6.321V51.059h3.268V72H40.76v-3.698c-1.29 2.709-4.3 4.128-7.051 4.128zm25.807 0c-5.934 0-10.965-4.257-10.965-10.879 0-6.063 4.558-10.922 10.535-10.922 5.59 0 10.02 4.816 10.02 10.793 0 .602-.087 1.247-.087 1.29h-17.07c.515 4.171 3.74 6.794 7.61 6.794 2.365 0 4.73-.817 6.45-2.236l1.42 2.408a12.814 12.814 0 01-7.913 2.752zm-7.568-12.212H65.88c-.344-3.87-3.31-6.665-6.966-6.665-3.569 0-6.493 2.752-6.966 6.665zM82.796 72.43c-5.805 0-9.89-4.816-9.89-10.879 0-6.149 4.085-10.922 9.89-10.922 3.354 0 6.32 1.376 7.869 4.085V43.706h3.268V72h-3.14v-3.655c-1.547 2.752-4.6 4.085-7.997 4.085zm.73-3.182c4 0 7.139-3.311 7.139-7.697s-3.14-7.74-7.138-7.74c-4.171 0-7.267 3.268-7.267 7.74 0 4.429 3.096 7.697 7.267 7.697zm26.002 3.182c-5.934 0-10.965-4.257-10.965-10.879 0-6.063 4.558-10.922 10.535-10.922 5.59 0 10.019 4.816 10.019 10.793 0 .602-.086 1.247-.086 1.29H101.96c.516 4.171 3.741 6.794 7.611 6.794 2.365 0 4.73-.817 6.45-2.236l1.419 2.408a12.814 12.814 0 01-7.912 2.752zm-7.568-12.212h13.932c-.344-3.87-3.311-6.665-6.966-6.665-3.569 0-6.493 2.752-6.966 6.665zM133.143 72V43.706h3.268V72h-3.268zm8.776 0V43.706h3.268V72h-3.268zm18.881.43c-5.934 0-10.965-4.257-10.965-10.879 0-6.063 4.558-10.922 10.535-10.922 5.59 0 10.019 4.816 10.019 10.793 0 .602-.086 1.247-.086 1.29h-17.071c.516 4.171 3.741 6.794 7.611 6.794 2.365 0 4.73-.817 6.45-2.236l1.419 2.408a12.814 12.814 0 01-7.912 2.752zm-7.568-12.212h13.932c-.344-3.87-3.311-6.665-6.966-6.665-3.569 0-6.493 2.752-6.966 6.665zm31.236 18.103c-3.354 0-6.235-1.118-8.213-3.096l1.376-2.107c1.677 1.677 4.128 2.623 6.579 2.623 3.569 0 7.611-2.193 7.611-8.385v-.688c-.903 2.365-3.784 4.3-7.826 4.3-5.762 0-9.804-4.472-9.804-10.148 0-5.676 4.042-10.191 9.804-10.191 3.612 0 6.88 1.634 7.955 4.257v-3.827h3.139V67.27c0 8.428-6.02 11.051-10.621 11.051zm.172-10.277c4.085 0 7.181-3.096 7.181-7.482 0-3.956-3.225-7.009-7.181-7.009-3.999 0-7.095 3.139-7.095 7.267s3.096 7.224 7.095 7.224zm24.972 4.386c-5.805 0-9.89-4.816-9.89-10.879 0-6.149 4.085-10.922 9.89-10.922 3.354 0 6.321 1.376 7.869 4.085v-3.655h3.268V72h-3.268v-3.655c-1.548 2.752-4.515 4.085-7.869 4.085zm.731-3.182c3.999 0 7.138-3.311 7.138-7.697s-3.139-7.74-7.138-7.74c-4.171 0-7.267 3.268-7.267 7.74 0 4.429 3.096 7.697 7.267 7.697zM226.239 72V51.059h3.268v4.429c1.204-2.752 3.913-4.859 8.084-4.859v3.569c-4.902 0-8.084 2.752-8.084 7.869V72h-3.268zm-174.79 42.43c-5.805 0-9.89-4.816-9.89-10.879 0-6.149 4.085-10.922 9.89-10.922 3.354 0 6.32 1.376 7.869 4.085v-3.655h3.268V114h-3.268v-3.655c-1.548 2.752-4.515 4.085-7.87 4.085zm.73-3.182c4 0 7.139-3.311 7.139-7.697s-3.14-7.74-7.139-7.74c-4.17 0-7.267 3.268-7.267 7.74 0 4.429 3.096 7.697 7.267 7.697zm32.27 3.182c-3.698 0-5.891-1.806-5.891-6.708V95.768h-3.139v-2.709h3.139v-4.515l3.268-.602v5.117h7.138v2.709h-7.138v12.04c0 2.881 1.247 3.698 2.924 3.698 1.935 0 3.44-1.161 3.44-1.161l1.075 2.537c-.817.559-2.537 1.548-4.816 1.548zm8.696-.43V93.059h3.268v4.429c1.204-2.752 3.913-4.859 8.084-4.859v3.569c-4.902 0-8.084 2.752-8.084 7.869V114h-3.268zm23.727.43c-5.805 0-9.89-4.816-9.89-10.879 0-6.149 4.085-10.922 9.89-10.922 3.354 0 6.321 1.376 7.869 4.085v-3.655h3.268V114h-3.268v-3.655c-1.548 2.752-4.515 4.085-7.869 4.085zm.731-3.182c3.999 0 7.138-3.311 7.138-7.697s-3.139-7.74-7.138-7.74c-4.171 0-7.267 3.268-7.267 7.74 0 4.429 3.096 7.697 7.267 7.697zm22.777 2.881l-9.245-21.07h3.311l5.934 13.373c.86 1.935 1.505 4.171 1.505 4.171s.645-2.236 1.505-4.171l5.891-13.373h3.311l-9.202 21.07h-3.01zm22.269-24.424l3.483-5.719h3.569l-4.042 5.719h-3.01zm2.666 24.725c-5.934 0-10.965-4.257-10.965-10.879 0-6.063 4.558-10.922 10.535-10.922 5.59 0 10.019 4.816 10.019 10.793 0 .602-.086 1.247-.086 1.29h-17.071c.516 4.171 3.741 6.794 7.611 6.794 2.365 0 4.73-.817 6.45-2.236l1.419 2.408a12.814 12.814 0 01-7.912 2.752zm-7.568-12.212h13.932c-.344-3.87-3.311-6.665-6.966-6.665-3.569 0-6.493 2.752-6.966 6.665zm28.87 12.212c-4.257 0-6.966-1.935-8.17-3.182l1.333-2.666c1.548 1.505 3.784 2.752 6.837 2.752 2.881 0 5.246-1.333 5.246-3.225 0-2.193-2.537-2.795-5.074-3.44-3.87-.989-7.396-2.064-7.396-6.063 0-3.784 3.956-5.977 7.482-5.977 2.881 0 4.988.774 7.138 2.236l-1.29 2.666c-1.763-1.204-3.612-1.806-5.805-1.806-2.15 0-4.171 1.204-4.171 2.838 0 2.064 2.322 2.537 4.773 3.053 3.784.86 7.697 2.279 7.697 6.407 0 4.429-4.515 6.407-8.6 6.407zm-89.943 42c-5.805 0-9.89-4.816-9.89-10.879 0-6.149 4.085-10.922 9.89-10.922 3.354 0 6.321 1.376 7.869 4.085v-11.008h3.268V156h-3.139v-3.655c-1.548 2.752-4.601 4.085-7.998 4.085zm.731-3.182c3.999 0 7.138-3.311 7.138-7.697s-3.139-7.74-7.138-7.74c-4.17 0-7.267 3.268-7.267 7.74 0 4.429 3.096 7.697 7.267 7.697zm26.001 3.182c-5.934 0-10.965-4.257-10.965-10.879 0-6.063 4.558-10.922 10.535-10.922 5.59 0 10.019 4.816 10.019 10.793 0 .602-.086 1.247-.086 1.29h-17.071c.516 4.171 3.741 6.794 7.611 6.794 2.365 0 4.73-.817 6.45-2.236l1.419 2.408a12.814 12.814 0 01-7.912 2.752zm-7.568-12.212h13.932c-.344-3.87-3.311-6.665-6.966-6.665-3.569 0-6.493 2.752-6.966 6.665zm23.41 12.212c-1.29 0-2.236-1.032-2.236-2.279 0-1.247.989-2.279 2.236-2.279a2.294 2.294 0 012.279 2.279 2.294 2.294 0 01-2.279 2.279zm8.734 0c-1.29 0-2.236-1.032-2.236-2.279 0-1.247.989-2.279 2.236-2.279a2.294 2.294 0 012.279 2.279 2.294 2.294 0 01-2.279 2.279zm8.735 0c-1.29 0-2.236-1.032-2.236-2.279 0-1.247.989-2.279 2.236-2.279a2.294 2.294 0 012.279 2.279 2.294 2.294 0 01-2.279 2.279z" fill="#fff" fill-opacity=".75"/></svg>