<svg width="129" height="61" viewBox="0 0 129 61" fill="none" xmlns="http://www.w3.org/2000/svg"><path d="M.937 24V8.159h5.332v1.736c1.178-1.333 3.007-2.046 4.774-2.046 2.542 0 3.906 1.023 4.65 2.449 1.364-1.984 3.472-2.449 5.053-2.449 5.115 0 5.549 4.123 5.549 7.316V24h-5.642v-8.184c0-1.891-.527-2.759-1.767-2.759-1.674 0-2.45 1.519-2.45 3.472V24h-5.641v-8.184c0-1.891-.527-2.759-1.767-2.759-1.674 0-2.45 1.519-2.45 3.472V24H.938zm36.877.31c-4.805 0-8.897-3.007-8.897-8.215 0-4.588 3.565-8.246 8.246-8.246 4.495 0 7.936 3.658 7.936 8.246 0 .961-.124 1.829-.124 1.829h-10.51c.466 1.488 1.86 2.046 3.38 2.046 1.333 0 2.759-.403 3.75-.961l1.892 3.813c-1.767 1.085-3.72 1.488-5.673 1.488zm-3.503-9.579h5.642c-.186-1.457-1.333-2.449-2.79-2.449-1.395 0-2.511.992-2.852 2.449zM47.89 24V8.159h5.332v1.829c1.457-1.705 3.193-2.139 4.774-2.139 3.999 0 5.549 2.356 5.549 7.006V24h-5.642v-8.432c0-1.798-.682-2.449-1.767-2.449-1.736 0-2.604 1.457-2.604 3.41V24H47.89zm24.43.31c-3.627 0-5.642-1.085-6.572-1.891l1.798-3.968c1.24.837 2.387 1.333 4.805 1.333.062 0 1.55-.093 1.55-.713 0-.496-.93-.589-1.86-.806-3.441-.837-5.983-2.232-5.983-5.146 0-3.472 3.162-5.27 6.51-5.27 3.069 0 4.898.682 6.417 1.488l-1.674 3.782c-1.829-.713-3.503-.93-4.557-.93-.558 0-.992.186-.992.496 0 .589 1.333.806 2.914 1.24 2.232.651 4.929 1.736 4.929 4.929 0 4.247-4.309 5.456-7.285 5.456zm16.226 0c-4.402 0-6.789-3.658-6.789-8.215 0-4.588 2.387-8.246 6.79-8.246 1.27 0 3.378.434 4.308 2.077V8.159h5.332V24h-5.332v-1.767c-.868 1.612-3.038 2.077-4.309 2.077zm1.488-4.96c1.488 0 2.542-1.333 2.542-3.255 0-1.891-1.054-3.286-2.542-3.286-1.488 0-2.542 1.395-2.542 3.286 0 1.922 1.054 3.255 2.542 3.255zm10.652 10.664l-2.046-3.813c1.984-.992 2.635-2.759 2.635-4.619V8.159h5.642v12.524c0 4.929-2.17 7.533-6.231 9.331zm3.379-23.064c-1.736 0-3.193-1.457-3.193-3.193 0-1.767 1.457-3.224 3.193-3.224 1.798 0 3.255 1.457 3.255 3.224 0 1.736-1.457 3.193-3.255 3.193zm14.53 17.36c-4.805 0-8.897-3.007-8.897-8.215 0-4.588 3.565-8.246 8.246-8.246 4.495 0 7.936 3.658 7.936 8.246 0 .961-.124 1.829-.124 1.829h-10.509c.465 1.488 1.86 2.046 3.379 2.046 1.333 0 2.759-.403 3.751-.961l1.891 3.813c-1.767 1.085-3.72 1.488-5.673 1.488zm-3.503-9.579h5.642c-.186-1.457-1.333-2.449-2.79-2.449-1.395 0-2.511.992-2.852 2.449zM11.987 60.31c-4.402 0-6.789-3.658-6.789-8.215 0-4.588 2.542-8.246 6.975-8.246 1.271 0 2.852.434 3.813 1.643v-5.89h5.642V60h-5.332v-1.767c-.837 1.612-3.038 2.077-4.309 2.077zm1.488-4.96c1.488 0 2.542-1.333 2.542-3.255 0-1.891-1.054-3.286-2.542-3.286-1.488 0-2.542 1.395-2.542 3.286 0 1.922 1.054 3.255 2.542 3.255zm19.828 4.96c-4.805 0-8.897-3.007-8.897-8.215 0-4.588 3.565-8.246 8.246-8.246 4.495 0 7.936 3.658 7.936 8.246 0 .961-.124 1.829-.124 1.829h-10.51c.466 1.488 1.86 2.046 3.38 2.046 1.333 0 2.759-.403 3.75-.961l1.892 3.813c-1.767 1.085-3.72 1.488-5.673 1.488zM29.8 50.731h5.642c-.186-1.457-1.333-2.449-2.79-2.449-1.395 0-2.511.992-2.852 2.449zm27.395 9.579c-3.038 0-5.022-1.953-5.022-5.425v-6.262h-2.325v-4.464h2.325v-2.852l5.642-1.395v4.247h3.503v4.464h-3.503v5.828c0 .744.372.992.868.992.465 0 1.023-.217 1.426-.496l1.519 4.123c-1.364.961-3.038 1.24-4.433 1.24zm15.113 0c-4.805 0-8.897-3.007-8.897-8.215 0-4.588 3.565-8.246 8.246-8.246 4.495 0 7.936 3.658 7.936 8.246 0 .961-.124 1.829-.124 1.829H68.96c.465 1.488 1.86 2.046 3.38 2.046 1.332 0 2.758-.403 3.75-.961l1.891 3.813c-1.767 1.085-3.72 1.488-5.673 1.488zm-3.503-9.579h5.642c-.186-1.457-1.333-2.449-2.79-2.449-1.395 0-2.51.992-2.852 2.449zM80.426 60l4.681-8.122-4.68-7.719h6.075l.651 1.364c.62 1.302 1.52 3.441 1.52 3.441s.898-2.139 1.519-3.441l.65-1.364h6.076l-4.68 7.719L96.917 60H90.78l-.775-1.736c-.557-1.271-1.332-3.379-1.332-3.379s-.806 2.077-1.365 3.379L86.564 60h-6.137zm25.038.31c-3.038 0-5.022-1.953-5.022-5.425v-6.262h-2.325v-4.464h2.325v-2.852l5.642-1.395v4.247h3.503v4.464h-3.503v5.828c0 .744.372.992.868.992.465 0 1.023-.217 1.426-.496l1.519 4.123c-1.364.961-3.038 1.24-4.433 1.24zm14.773 0c-4.867 0-8.556-3.658-8.556-8.215 0-4.588 3.689-8.246 8.556-8.246 4.867 0 8.556 3.658 8.556 8.246 0 4.557-3.689 8.215-8.556 8.215zm0-4.96c1.674 0 2.852-1.333 2.852-3.255 0-1.891-1.178-3.286-2.852-3.286s-2.852 1.395-2.852 3.286c0 1.922 1.178 3.255 2.852 3.255z" fill="#fff"/></svg>