<svg width="130" height="58" viewBox="0 0 130 58" fill="none" xmlns="http://www.w3.org/2000/svg"><path d="M23.225 17.31c-1.767 0-3.069-1.333-3.069-3.038 0-1.705 1.302-3.038 3.07-3.038 1.797 0 3.13 1.333 3.13 3.038 0 1.705-1.333 3.038-3.13 3.038zm9.793 0c-1.767 0-3.069-1.333-3.069-3.038 0-1.705 1.302-3.038 3.07-3.038 1.797 0 3.13 1.333 3.13 3.038 0 1.705-1.333 3.038-3.13 3.038zm9.793 0c-1.767 0-3.069-1.333-3.069-3.038 0-1.705 1.302-3.038 3.069-3.038 1.798 0 3.131 1.333 3.131 3.038 0 1.705-1.333 3.038-3.131 3.038zm12.087 0c-4.774 0-5.766-2.976-5.766-7.006V1.159h5.642v8.432c0 1.674.558 2.449 2.046 2.449 1.705 0 2.325-1.457 2.325-3.41V1.159h5.642V17h-5.332v-1.736c-.868 1.116-2.914 2.046-4.557 2.046zM67.889 17V1.159h5.332v1.829C74.678 1.283 76.414.849 77.995.849c4 0 5.55 2.356 5.55 7.006V17h-5.643V8.568c0-1.798-.682-2.449-1.767-2.449-1.736 0-2.604 1.457-2.604 3.41V17H67.89zm25.082.31c-4.402 0-6.79-3.658-6.79-8.215 0-4.588 2.388-8.246 6.79-8.246 1.27 0 3.379.434 4.309 2.077V1.159h5.332V17H97.28v-1.767c-.868 1.612-3.038 2.077-4.31 2.077zm1.488-4.96c1.488 0 2.542-1.333 2.542-3.255 0-1.891-1.054-3.286-2.542-3.286-1.488 0-2.542 1.395-2.542 3.286 0 1.922 1.054 3.255 2.542 3.255zM.375 53V32.602h5.642V53H.375zm8.733 0V32.602h5.642V53H9.108zm15.212.31c-4.402 0-6.789-3.658-6.789-8.215 0-4.588 2.387-8.246 6.79-8.246 1.27 0 3.378.434 4.308 2.077v-1.767h5.332V53H28.63v-1.767c-.868 1.612-3.038 2.077-4.309 2.077zm1.488-4.96c1.488 0 2.542-1.333 2.542-3.255 0-1.891-1.054-3.286-2.542-3.286-1.488 0-2.542 1.395-2.542 3.286 0 1.922 1.054 3.255 2.542 3.255zM37.05 53V37.159h5.332v1.736c1.178-1.333 3.007-2.046 4.774-2.046 2.542 0 3.906 1.023 4.65 2.449 1.364-1.984 3.472-2.449 5.053-2.449 5.115 0 5.55 4.123 5.55 7.316V53h-5.643v-8.184c0-1.891-.527-2.759-1.767-2.759-1.674 0-2.449 1.519-2.449 3.472V53h-5.642v-8.184c0-1.891-.527-2.759-1.767-2.759-1.674 0-2.449 1.519-2.449 3.472V53H37.05zm34.77.31c-4.403 0-6.79-3.658-6.79-8.215 0-4.588 2.387-8.246 6.79-8.246 1.27 0 3.378.434 4.308 2.077v-1.767h5.332V53h-5.332v-1.767c-.868 1.612-3.038 2.077-4.309 2.077zm1.487-4.96c1.488 0 2.542-1.333 2.542-3.255 0-1.891-1.054-3.286-2.542-3.286-1.488 0-2.542 1.395-2.542 3.286 0 1.922 1.054 3.255 2.542 3.255zm17.72 4.96c-4.402 0-6.789-3.658-6.789-8.215 0-4.588 2.542-8.246 6.975-8.246 1.271 0 2.852.434 3.813 1.643v-5.89h5.642V53h-5.332v-1.767c-.837 1.612-3.038 2.077-4.309 2.077zm1.488-4.96c1.488 0 2.542-1.333 2.542-3.255 0-1.891-1.054-3.286-2.542-3.286-1.488 0-2.542 1.395-2.542 3.286 0 1.922 1.054 3.255 2.542 3.255zm17.72 4.96c-4.402 0-6.789-3.658-6.789-8.215 0-4.588 2.387-8.246 6.789-8.246 1.271 0 3.379.434 4.309 2.077v-1.767h5.332V53h-5.332v-1.767c-.868 1.612-3.038 2.077-4.309 2.077zm1.488-4.96c1.488 0 2.542-1.333 2.542-3.255 0-1.891-1.054-3.286-2.542-3.286-1.488 0-2.542 1.395-2.542 3.286 0 1.922 1.054 3.255 2.542 3.255zm10.683 8.897l2.108-9.548h4.805l-3.596 9.548h-3.317z" fill="#fff"/></svg>