<svg width="142" height="30" viewBox="0 0 142 30" fill="none" xmlns="http://www.w3.org/2000/svg"><path d="M.751 29.352l.48-13.024h4.672l.448 13.024h-5.6zm2.784-14.784c-1.824 0-3.168-1.376-3.168-3.136 0-1.76 1.344-3.136 3.168-3.136 1.856 0 3.232 1.376 3.232 3.136 0 1.76-1.376 3.136-3.232 3.136zm16.983 10.816c-6.592 0-10.976-4.768-10.976-10.752 0-5.92 4.384-10.688 10.976-10.688 3.168 0 6.016 1.12 7.904 3.008l-4 4.128c-1.472-1.504-2.656-1.632-3.648-1.632-2.688 0-4.896 2.176-4.896 5.184 0 3.072 2.048 5.248 4.896 5.248 1.696 0 3.264-.768 4.416-2.304l3.872 4.256c-2.08 2.304-4.992 3.552-8.544 3.552zm16.038-.064c-4.928 0-5.952-3.072-5.952-7.232v-9.44h5.824v8.704c0 1.728.576 2.528 2.112 2.528 1.76 0 2.4-1.504 2.4-3.52V8.648h5.824V25H41.26v-1.792c-.896 1.152-3.008 2.112-4.704 2.112zm12.77-.32V8.648h5.825V25h-5.824zm2.88-17.6c-1.791 0-3.295-1.504-3.295-3.296 0-1.824 1.504-3.328 3.296-3.328 1.856 0 3.36 1.504 3.36 3.328 0 1.792-1.504 3.296-3.36 3.296zM64.39 25.32c-4.544 0-7.008-3.776-7.008-8.48 0-4.736 2.624-8.512 7.2-8.512 1.312 0 2.944.448 3.936 1.696v-6.08h5.824V25h-5.504v-1.824c-.864 1.664-3.136 2.144-4.448 2.144zm1.536-5.12c1.536 0 2.624-1.376 2.624-3.36 0-1.952-1.088-3.392-2.624-3.392s-2.624 1.44-2.624 3.392c0 1.984 1.088 3.36 2.624 3.36zm17.651 5.12c-4.544 0-7.008-3.776-7.008-8.48 0-4.736 2.464-8.512 7.008-8.512 1.312 0 3.488.448 4.448 2.144V8.648h5.504V25h-5.504v-1.824c-.896 1.664-3.136 2.144-4.448 2.144zm1.536-5.12c1.536 0 2.624-1.376 2.624-3.36 0-1.952-1.088-3.392-2.624-3.392s-2.624 1.44-2.624 3.392c0 1.984 1.088 3.36 2.624 3.36zm17.652 5.12c-4.544 0-7.008-3.776-7.008-8.48 0-4.736 2.624-8.512 7.2-8.512 1.312 0 2.944.448 3.936 1.696v-6.08h5.824V25h-5.504v-1.824c-.864 1.664-3.136 2.144-4.448 2.144zm1.536-5.12c1.536 0 2.624-1.376 2.624-3.36 0-1.952-1.088-3.392-2.624-3.392s-2.624 1.44-2.624 3.392c0 1.984 1.088 3.36 2.624 3.36zm19.475 5.12c-5.024 0-8.832-3.776-8.832-8.48 0-4.736 3.808-8.512 8.832-8.512 5.024 0 8.832 3.776 8.832 8.512 0 4.704-3.808 8.48-8.832 8.48zm0-5.12c1.728 0 2.944-1.376 2.944-3.36 0-1.952-1.216-3.392-2.944-3.392s-2.944 1.44-2.944 3.392c0 1.984 1.216 3.36 2.944 3.36zm12.33-2.912l-.48-13.024h5.6l-.448 13.024h-4.672zm2.304 1.76c1.856 0 3.232 1.376 3.232 3.136 0 1.76-1.376 3.136-3.232 3.136-1.824 0-3.168-1.376-3.168-3.136 0-1.76 1.344-3.136 3.168-3.136z" fill="#fff"/></svg>