<svg width="112" height="138" viewBox="0 0 112 138" fill="none" xmlns="http://www.w3.org/2000/svg"><path d="M77.376 4.596h-59.77C10.533 4.596 4.8 10.2 4.8 17.113v100.134c0 6.913 5.734 12.517 12.807 12.517h59.77c7.073 0 12.807-5.604 12.807-12.517V17.113c0-6.913-5.734-12.517-12.807-12.517z" fill="#F2F2F2"/><path d="M90.183 17.113c0-3.32-1.35-6.503-3.751-8.85a12.96 12.96 0 00-9.056-3.667h-59.77A12.96 12.96 0 008.55 8.262c-2.402 2.348-3.751 5.531-3.751 8.85v16.69h85.384v-16.69zM4.832 118.668c0 2.943 1.343 5.765 3.734 7.846 2.39 2.081 5.633 3.25 9.013 3.25h59.487c3.381 0 6.623-1.169 9.014-3.25 2.39-2.081 3.734-4.903 3.734-7.846v-14.794H4.832v14.794zM105.809 44.198L73.106 68.815 40.404 44.198a4.262 4.262 0 012.818-1.07h59.769a4.264 4.264 0 012.818 1.07z" fill="#C1C5C8"/><path d="M107.26 47.409V90.22a4.29 4.29 0 01-1.25 3.028 4.265 4.265 0 01-3.019 1.253h-59.77a4.263 4.263 0 01-3.018-1.253 4.287 4.287 0 01-1.25-3.028V47.41a4.292 4.292 0 011.451-3.211l32.702 24.617 32.703-24.617a4.28 4.28 0 011.451 3.21z" fill="#F2F2F2"/><path d="M51.76 21.721c0-1.135-.45-2.224-1.25-3.027a4.263 4.263 0 00-3.02-1.254H30.415a4.263 4.263 0 00-3.019 1.254 4.287 4.287 0 000 6.055 4.263 4.263 0 003.019 1.253h17.077a4.263 4.263 0 003.019-1.253 4.287 4.287 0 001.25-3.028z" fill="#101B31"/><path d="M108.626 40.987a8.524 8.524 0 00-5.635-2.14h-8.538V17.44c0-4.542-1.8-8.898-5.002-12.11A17.053 17.053 0 0077.376.316h-59.77A17.053 17.053 0 005.531 5.33 17.15 17.15 0 00.53 17.44v102.75c0 4.542 1.8 8.898 5.002 12.109a17.051 17.051 0 0012.075 5.016h59.77c4.529 0 8.872-1.804 12.075-5.016a17.148 17.148 0 005.002-12.109V98.784h8.538a8.528 8.528 0 006.038-2.508 8.575 8.575 0 002.5-6.055V47.41a8.566 8.566 0 00-2.903-6.422zm-14.174 6.422L73.106 63.463 51.76 47.41h42.693zm-8.538 72.781c0 2.271-.9 4.449-2.5 6.055a8.529 8.529 0 01-6.038 2.507h-59.77a8.529 8.529 0 01-6.037-2.507 8.576 8.576 0 01-2.501-6.055V17.44c0-2.271.9-4.449 2.5-6.055a8.527 8.527 0 016.038-2.508h59.77c2.264 0 4.436.903 6.037 2.508a8.575 8.575 0 012.501 6.055v21.406H43.222a8.525 8.525 0 00-5.636 2.14 8.563 8.563 0 00-2.903 6.423V90.22c0 2.271.9 4.449 2.501 6.055a8.526 8.526 0 006.038 2.508h42.692v21.406zM43.222 90.221V51.69l27.323 20.55a4.261 4.261 0 005.123 0l27.323-20.55V90.22h-59.77z" fill="#101B31"/><path d="M64.568 26.002a4.275 4.275 0 004.269-4.28 4.275 4.275 0 00-4.27-4.282A4.275 4.275 0 0060.3 21.72a4.275 4.275 0 004.269 4.281zM47.49 118.032a4.275 4.275 0 004.27-4.281 4.275 4.275 0 00-4.27-4.281 4.275 4.275 0 00-4.268 4.281 4.275 4.275 0 004.269 4.281z" fill="#101B31"/><path d="M108.626 40.987a8.524 8.524 0 00-5.635-2.14h-59.77a8.525 8.525 0 00-5.635 2.14 8.561 8.561 0 00-2.903 6.422V90.22c0 2.271.9 4.449 2.501 6.055a8.526 8.526 0 006.038 2.508h59.769a8.53 8.53 0 006.038-2.508 8.575 8.575 0 002.5-6.055V47.41a8.566 8.566 0 00-2.903-6.422zm-14.174 6.422L73.106 63.463 51.76 47.41h42.693zm8.539 42.812h-59.77V51.69l27.324 20.55a4.261 4.261 0 005.123 0l27.323-20.55V90.22z" fill="#C80000"/></svg>