<svg width="126" height="98" viewBox="0 0 126 98" fill="none" xmlns="http://www.w3.org/2000/svg"><path d="M13.923 27V4.32h9.45c7.595 0 12.355 5.145 12.355 11.34S30.968 27 23.373 27h-9.45zm6.65-5.635h2.555c3.395 0 5.565-2.415 5.565-5.705 0-3.255-2.17-5.705-5.565-5.705h-2.555v11.41zm28.52 5.985c-5.424 0-10.044-3.395-10.044-9.275 0-5.18 4.025-9.31 9.31-9.31 5.075 0 8.96 4.13 8.96 9.31 0 1.085-.14 2.065-.14 2.065H45.314c.525 1.68 2.1 2.31 3.815 2.31 1.505 0 3.115-.455 4.235-1.085l2.135 4.305c-1.995 1.225-4.2 1.68-6.405 1.68zM45.14 16.535h6.37c-.21-1.645-1.505-2.765-3.15-2.765-1.575 0-2.835 1.12-3.22 2.765zm22.82 10.815c-3.43 0-5.67-2.205-5.67-6.125v-7.07h-2.624v-5.04h2.625v-3.22l6.37-1.575v4.795h3.955v5.04H68.66v6.58c0 .84.42 1.12.98 1.12.525 0 1.155-.245 1.61-.56l1.715 4.655c-1.54 1.085-3.43 1.4-5.005 1.4zm13.95-20.3L85.583.785h6.126L86.633 7.05H81.91zm3.465 20.3c-5.425 0-10.045-3.395-10.045-9.275 0-5.18 4.025-9.31 9.31-9.31 5.075 0 8.96 4.13 8.96 9.31 0 1.085-.14 2.065-.14 2.065H81.594c.525 1.68 2.1 2.31 3.815 2.31 1.504 0 3.114-.455 4.234-1.085l2.135 4.305c-1.995 1.225-4.2 1.68-6.404 1.68zm-3.956-10.815h6.37c-.21-1.645-1.504-2.765-3.15-2.765-1.575 0-2.835 1.12-3.22 2.765zM97.1 27V9.115h6.02v2.065c1.645-1.925 3.605-2.415 5.39-2.415 4.515 0 6.265 2.66 6.265 7.91V27h-6.37v-9.52c0-2.03-.77-2.765-1.995-2.765-1.96 0-2.94 1.645-2.94 3.85V27H97.1zM59.804 62.35c-5.425 0-10.045-3.395-10.045-9.275 0-5.18 4.025-9.31 9.31-9.31 5.075 0 8.96 4.13 8.96 9.31 0 1.085-.14 2.065-.14 2.065H56.024c.525 1.68 2.1 2.31 3.815 2.31 1.505 0 3.115-.455 4.235-1.085l2.135 4.305c-1.995 1.225-4.2 1.68-6.405 1.68zM55.85 51.535h6.37c-.21-1.645-1.505-2.765-3.15-2.765-1.575 0-2.835 1.12-3.22 2.765zM71.531 62V38.97h6.37V62h-6.37zM3.537 97V84.295H.842v-5.04h2.695v-1.12c0-3.92 2.24-6.125 5.67-6.125 1.575 0 3.465.245 5.005 1.015l-1.715 4.655a3.99 3.99 0 00-1.4-.28c-.665 0-1.19.35-1.19 1.47v.385h3.5v5.04h-3.5V97h-6.37zm12.373 0V79.115h6.195V82.3c.105-.77 1.645-3.535 5.845-3.535v6.93c-4.62 0-5.67 1.925-5.67 5.285V97h-6.37zm22.515.35c-4.97 0-7.665-4.13-7.665-9.275 0-5.18 2.695-9.31 7.665-9.31 1.435 0 3.815.49 4.865 2.345v-1.995h6.02V97h-6.02v-1.995c-.98 1.82-3.43 2.345-4.865 2.345zm1.68-5.6c1.68 0 2.87-1.505 2.87-3.675 0-2.135-1.19-3.71-2.87-3.71-1.68 0-2.87 1.575-2.87 3.71 0 2.17 1.19 3.675 2.87 3.675zm19.377 5.6c-5.39 0-6.51-3.36-6.51-7.91V79.115h6.37v9.52c0 1.89.63 2.765 2.31 2.765 1.925 0 2.625-1.645 2.625-3.85v-8.435h6.37V97h-6.02v-1.96c-.98 1.26-3.29 2.31-5.145 2.31zm22.332 0c-4.97 0-7.665-4.13-7.665-9.275 0-5.18 2.87-9.31 7.875-9.31 1.435 0 3.22.49 4.305 1.855v-6.65h6.37V97h-6.02v-1.995c-.945 1.82-3.43 2.345-4.865 2.345zm1.68-5.6c1.68 0 2.87-1.505 2.87-3.675 0-2.135-1.19-3.71-2.87-3.71-1.68 0-2.87 1.575-2.87 3.71 0 2.17 1.19 3.675 2.87 3.675zm22.737 5.6c-5.425 0-10.045-3.395-10.045-9.275 0-5.18 4.025-9.31 9.31-9.31 5.075 0 8.96 4.13 8.96 9.31 0 1.085-.14 2.065-.14 2.065h-11.865c.525 1.68 2.1 2.31 3.815 2.31 1.505 0 3.115-.455 4.235-1.085l2.135 4.305c-1.995 1.225-4.2 1.68-6.405 1.68zm-3.955-10.815h6.37c-.21-1.645-1.505-2.765-3.15-2.765-1.575 0-2.835 1.12-3.22 2.765zm19.426 10.815c-1.995 0-3.465-1.505-3.465-3.43 0-1.925 1.47-3.43 3.465-3.43 2.03 0 3.535 1.505 3.535 3.43 0 1.925-1.505 3.43-3.535 3.43z" fill="#fff"/></svg>