<svg width="123" height="110" viewBox="0 0 123 110" fill="none" xmlns="http://www.w3.org/2000/svg"><path d="M9.768 4.768c-.048-.288-.12-.384-.288-.456a5.711 5.711 0 00-1.752-.264c-1.8 0-2.688.816-2.688 2.04 0 1.584 1.632 2.016 3.456 2.568 2.28.696 4.824 1.56 4.824 5.16 0 3.936-3.072 5.472-6.744 5.472-2.16 0-4.584-.552-5.496-.984v-4.68h2.688l.48 2.28c.072.312.096.36.408.432a8.616 8.616 0 002.016.264c1.944 0 3.024-.768 3.024-2.232 0-1.536-1.368-2.016-2.976-2.472-2.376-.672-5.304-1.32-5.304-5.184 0-3.696 2.784-5.4 6.432-5.4 2.064 0 3.84.504 4.92.96v4.68l-2.712-.24-.288-1.944zm10.459-2.352c0 1.368-.792 2.16-2.184 2.16-1.368 0-2.16-.792-2.16-2.16s.792-2.112 2.16-2.112c1.392 0 2.184.744 2.184 2.112zm-5.28 14.688l1.224-.168c.336-.048.384-.12.384-.48V9.4c0-.264-.072-.432-.312-.504l-1.296-.456.264-1.944h4.968v9.96c0 .384.024.432.384.48l1.224.168V19h-6.84v-1.896zm20.893.6l-.12-.024c-.912.888-2.112 1.608-4.032 1.608-3.024 0-3.504-2.064-3.504-3.552 0-2.4 1.464-3.48 4.488-3.696l2.76-.192v-1.32c0-1.128-.12-1.896-1.608-1.896-1.152 0-1.752.168-1.752 1.608l-3.384-.288c0-3.24 2.952-3.696 5.16-3.696 3.648 0 5.112.984 5.112 4.344v5.832c0 .384.024.432.384.48l1.152.192V19H36.08l-.24-1.296zM33.8 13.96c-1.416.096-1.92.456-1.92 1.416s.576 1.32 1.368 1.32c.816 0 1.632-.456 2.184-.864V13.84l-1.632.12zm7.695 3.144l1.2-.168c.336-.048.384-.12.384-.48V3.784c0-.264-.072-.432-.312-.504l-1.32-.456.264-1.944h4.992v15.576c0 .384.024.432.384.48l1.176.168V19h-6.768v-1.896zm18.466-8.4c.432.552.888 1.32.888 2.424 0 2.664-2.088 4.224-5.112 4.224-.768 0-1.464-.096-1.896-.216l-.792 1.272 2.352.144c4.176.264 6.6.384 6.6 3.576 0 2.76-2.424 4.32-6.6 4.32-4.344 0-6-1.104-6-3 0-1.08.48-1.656 1.32-2.448-.792-.336-1.056-.936-1.056-1.584 0-.528.264-1.008.696-1.464.432-.456.912-.912 1.488-1.44-1.176-.576-2.064-1.824-2.064-3.6 0-2.76 1.824-4.656 5.496-4.656 1.032 0 1.656.096 2.208.24h4.68v2.04l-2.208.168zm-2.28 2.088c0-1.416-.816-2.16-2.184-2.16-1.32 0-2.304.648-2.304 2.208 0 1.176.648 1.992 2.232 1.992 1.344 0 2.256-.792 2.256-2.04zm-4.824 8.856c-.312.384-.624.792-.624 1.272 0 .96 1.224 1.248 2.904 1.248 1.392 0 3.288-.096 3.288-1.392 0-.768-.912-.816-2.064-.888l-3.504-.24zm19.76-1.944l-.12-.024c-.984.744-2.232 1.608-4.272 1.608-2.52 0-3.48-1.44-3.48-4.224V9.208c0-.384-.024-.432-.384-.504l-1.152-.24.24-1.968h4.92v7.944c0 1.464.24 2.016 1.272 2.016 1.056 0 1.92-.6 2.472-1.104V9.184c0-.384-.024-.408-.384-.48l-1.032-.24.264-1.968h4.776v9.96c0 .312.048.408.336.456l1.2.168V19H72.81l-.192-1.296zM83.682 2.416c0 1.368-.792 2.16-2.184 2.16-1.368 0-2.16-.792-2.16-2.16S80.13.304 81.498.304c1.392 0 2.184.744 2.184 2.112zm-5.28 14.688l1.224-.168c.336-.048.384-.12.384-.48V9.4c0-.264-.072-.432-.312-.504l-1.296-.456.264-1.944h4.968v9.96c0 .384.024.432.384.48l1.224.168V19h-6.84v-1.896zm19.138.96c-1.488.72-3.12 1.224-4.92 1.224-4.632 0-6.216-2.88-6.216-6.624 0-4.344 2.664-6.408 5.952-6.408 3.168 0 5.28 1.656 5.28 5.808 0 .288-.024 1.128-.048 1.608h-7.344c.12 1.704.864 2.832 2.832 2.832.936 0 1.944-.216 3.576-.816l.888 2.376zm-3.456-6.672c-.024-2.016-.816-2.544-1.8-2.544-1.032 0-1.872.576-2.016 2.544h3.816zm14.001-.144c0-1.152-.072-2.112-1.272-2.112-.888 0-1.992.504-2.496.888v6.432c0 .384.024.432.384.48l1.152.168V19h-6.624v-1.92l1.08-.144c.336-.048.384-.12.384-.48V9.4c0-.264-.072-.432-.312-.504l-1.296-.456.288-1.944h4.2l.192 1.248.096.048c1.2-.888 2.592-1.536 4.224-1.536 2.616 0 3.624 1.44 3.624 4.08v6.12c0 .384.024.432.384.48l1.2.168V19h-5.208v-7.752zM9.912 48.328c-1.032.504-2.544.96-3.912.96-2.856 0-3.936-1.152-3.936-3.864v-6.288c0-.144 0-.24-.192-.24H.192V36.76c2.112-.24 2.952-1.296 3.216-3.912h2.28v3.408c0 .168 0 .24.192.24h3.384v2.4H5.688v5.736c0 1.416.336 1.968 1.632 1.968.672 0 1.368-.168 1.944-.384l.648 2.112zm11.792-.264c-1.488.72-3.12 1.224-4.92 1.224-4.632 0-6.216-2.88-6.216-6.624 0-4.344 2.664-6.408 5.952-6.408 3.168 0 5.28 1.656 5.28 5.808 0 .288-.024 1.128-.048 1.608h-7.344c.12 1.704.864 2.832 2.832 2.832.936 0 1.944-.216 3.576-.816l.888 2.376zm-3.456-6.672c-.024-2.016-.816-2.544-1.8-2.544-1.032 0-1.872.576-2.016 2.544h3.816zM28.46 52.168l.96-.144c.336-.048.432-.144.432-.504V39.4c0-.264-.048-.408-.312-.504l-1.272-.456.264-1.944h4.224l.216 1.224.12.048c1.152-.936 2.712-1.512 4.08-1.512 2.688 0 4.608 1.68 4.608 6.144 0 2.88-.984 6.888-4.944 6.888-1.248 0-2.376-.408-3.384-1.2v3.408c0 .384.024.456.384.48l2.448.216v1.896H28.46v-1.92zm4.992-6.6c.528.456 1.368.912 2.256.912 1.608 0 2.28-1.536 2.28-3.888 0-2.472-.84-3.48-2.04-3.48-1.008 0-1.968.504-2.496.864v5.592zm15.056-13.152c0 1.368-.792 2.16-2.184 2.16-1.368 0-2.16-.792-2.16-2.16s.792-2.112 2.16-2.112c1.392 0 2.184.744 2.184 2.112zm-5.28 14.688l1.224-.168c.336-.048.384-.12.384-.48V39.4c0-.264-.072-.432-.312-.504l-1.296-.456.264-1.944h4.968v9.96c0 .384.024.432.384.48l1.224.168V49h-6.84v-1.896zm16.883.552l-.168-.024c-1.008.984-2.184 1.656-3.936 1.656-2.832 0-4.656-1.8-4.656-6.384 0-4.824 2.425-6.648 5.089-6.648 1.392 0 2.471.48 3.383 1.152V33.76c0-.24-.096-.408-.311-.48l-1.32-.456.264-1.944h4.824v15.6c0 .36.023.408.383.456l1.153.168V49h-4.464l-.24-1.344zm-.431-7.896c-.6-.408-1.368-.72-2.064-.72-1.776 0-2.472 1.656-2.472 3.792 0 2.328.671 3.624 2.183 3.624.816 0 1.704-.48 2.352-1.032V39.76zm17.34 8.304c-1.488.72-3.12 1.224-4.92 1.224-4.632 0-6.216-2.88-6.216-6.624 0-4.344 2.664-6.408 5.952-6.408 3.168 0 5.28 1.656 5.28 5.808 0 .288-.024 1.128-.048 1.608h-7.344c.12 1.704.864 2.832 2.832 2.832.936 0 1.944-.216 3.576-.816l.888 2.376zm-3.456-6.672c-.024-2.016-.816-2.544-1.8-2.544-1.032 0-1.872.576-2.016 2.544h3.816zm19.525 6.936c-1.032.504-2.544.96-3.912.96-2.856 0-3.936-1.152-3.936-3.864v-6.288c0-.144 0-.24-.192-.24h-1.68V36.76c2.112-.24 2.952-1.296 3.216-3.912h2.28v3.408c0 .168 0 .24.192.24h3.384v2.4h-3.576v5.736c0 1.416.336 1.968 1.632 1.968.672 0 1.368-.168 1.944-.384l.648 2.112zm10.106-.624l-.12-.024c-.984.744-2.232 1.608-4.272 1.608-2.52 0-3.48-1.44-3.48-4.224v-5.856c0-.384-.024-.432-.384-.504l-1.152-.24.24-1.968h4.92v7.944c0 1.464.24 2.016 1.272 2.016 1.056 0 1.92-.6 2.472-1.104v-6.168c0-.384-.024-.408-.384-.48l-1.032-.24.264-1.968h4.776v9.96c0 .312.048.408.336.456l1.2.168V49h-4.464l-.192-1.296zM9.48 71.248c0-1.152-.072-2.112-1.272-2.112-.888 0-1.992.504-2.496.888v6.432c0 .384.024.432.384.48l1.152.168V79H.624v-1.92l1.08-.144c.336-.048.384-.12.384-.48V69.4c0-.264-.072-.432-.312-.504L.48 68.44l.288-1.944h4.2l.192 1.248.096.048c1.2-.888 2.592-1.536 4.224-1.536 2.616 0 3.624 1.44 3.624 4.08v6.12c0 .384.024.432.384.48l1.2.168V79H9.48v-7.752zm15.39 6.456l-.12-.024c-.984.744-2.232 1.608-4.272 1.608-2.52 0-3.48-1.44-3.48-4.224v-5.856c0-.384-.024-.432-.384-.504l-1.152-.24.24-1.968h4.92v7.944c0 1.464.24 2.016 1.272 2.016 1.056 0 1.92-.6 2.472-1.104v-6.168c0-.384-.024-.408-.384-.48l-1.032-.24.264-1.968h4.776v9.96c0 .312.048.408.336.456l1.2.168V79h-4.464l-.192-1.296zm-4.992-13.368l3.672-4.176 1.968 1.872-4.296 3.504-1.344-1.2zm26.113 6.912c0-.936-.096-2.064-1.344-2.064-.672 0-1.32.24-1.944.648.048.384.072.768.072 1.176v5.448c0 .408.024.456.384.504l.96.144V79h-4.968v-7.872c0-.888-.072-1.944-1.272-1.944-.72 0-1.512.36-1.992.768v6.504c0 .384.024.432.384.48l1.176.168V79H30.8v-1.896l1.08-.168c.336-.048.384-.12.384-.48V69.4c0-.264-.072-.432-.312-.504l-1.296-.456.264-1.944h4.224l.192 1.248.12.024c1.08-.888 2.304-1.512 3.84-1.512 1.176 0 2.256.312 2.928 1.44.792-.624 2.184-1.44 3.864-1.44 2.568 0 3.528 1.272 3.528 4.056v6.144c0 .384.024.456.384.504l1.2.144V79h-5.208v-7.752zm17.536 6.816c-1.488.72-3.12 1.224-4.92 1.224-4.632 0-6.216-2.88-6.216-6.624 0-4.344 2.664-6.408 5.952-6.408 3.168 0 5.28 1.656 5.28 5.808 0 .288-.024 1.128-.048 1.608h-7.344c.12 1.704.864 2.832 2.832 2.832.936 0 1.944-.216 3.576-.816l.888 2.376zm-3.456-6.672c-.024-2.016-.816-2.544-1.8-2.544-1.032 0-1.872.576-2.016 2.544h3.816zm5.146 5.664l1.08-.144c.336-.048.384-.12.384-.48V69.4c0-.264-.072-.432-.312-.504l-1.296-.456.264-1.944h4.224l.288 1.92h.144c.792-1.224 1.848-2.16 3.384-2.16.552 0 1.656.096 2.088.216v4.368l-2.88-.096-.24-1.272c-.048-.216-.12-.264-.312-.264-.624 0-1.368.528-1.728.84v6.36c0 .384.024.456.384.48l2.376.192V79h-7.848v-1.944zm17.658 2.232c-4.392 0-6.168-2.688-6.168-6.456 0-3.984 2.088-6.576 6.48-6.576 4.44 0 6.168 2.64 6.168 6.312 0 4.08-2.064 6.72-6.48 6.72zm.168-2.52c1.56 0 2.52-1.08 2.52-4.08 0-2.832-.864-3.84-2.424-3.84-1.584 0-2.64.984-2.64 3.864 0 2.904.936 4.056 2.544 4.056zm21.893.888l-.168-.024c-1.008.984-2.184 1.656-3.936 1.656-2.832 0-4.656-1.8-4.656-6.384 0-4.824 2.424-6.648 5.088-6.648 1.392 0 2.472.48 3.384 1.152V63.76c0-.24-.096-.408-.312-.48l-1.32-.456.264-1.944h4.824v15.6c0 .36.024.408.384.456l1.152.168V79h-4.464l-.24-1.344zm-.432-7.896c-.6-.408-1.368-.72-2.064-.72-1.776 0-2.472 1.656-2.472 3.792 0 2.328.672 3.624 2.184 3.624.816 0 1.704-.48 2.352-1.032V69.76zm17.341 8.304c-1.488.72-3.12 1.224-4.92 1.224-4.632 0-6.216-2.88-6.216-6.624 0-4.344 2.664-6.408 5.952-6.408 3.168 0 5.28 1.656 5.28 5.808 0 .288-.024 1.128-.048 1.608h-7.344c.12 1.704.864 2.832 2.832 2.832.936 0 1.944-.216 3.576-.816l.888 2.376zm-3.456-6.672c-.024-2.016-.816-2.544-1.8-2.544-1.032 0-1.872.576-2.016 2.544h3.816zM13.754 107.206l1.886-.161c.345-.023.368-.138.368-.46v-8.74h-.092l-3.289 7.843H8.878l-3.243-7.866H5.52v8.74c0 .368.046.437.368.46l1.978.184V109H.874v-1.794l1.449-.161c.322-.046.368-.115.368-.46V94.786c0-.345-.046-.414-.368-.46l-1.449-.161v-1.817h6.164l4.002 10.419h.092l4.209-10.419h5.98v1.794l-1.541.184c-.345.046-.368.092-.368.437v11.822c0 .299.069.391.368.437l1.541.184V109h-7.567v-1.794zm19.668.897c-1.426.69-2.99 1.173-4.715 1.173-4.439 0-5.957-2.76-5.957-6.348 0-4.163 2.553-6.141 5.704-6.141 3.036 0 5.06 1.587 5.06 5.566 0 .276-.023 1.081-.046 1.541H26.43c.115 1.633.828 2.714 2.714 2.714.897 0 1.863-.207 3.427-.782l.851 2.277zm-3.312-6.394c-.023-1.932-.782-2.438-1.725-2.438-.989 0-1.794.552-1.932 2.438h3.657zm13.466 6.003l-.161-.023c-.966.943-2.093 1.587-3.772 1.587-2.714 0-4.462-1.725-4.462-6.118 0-4.623 2.323-6.371 4.876-6.371 1.334 0 2.369.46 3.243 1.104v-3.496c0-.23-.092-.391-.299-.46l-1.265-.437.253-1.863h4.623v14.95c0 .345.023.391.368.437l1.104.161V109h-4.278l-.23-1.288zm-.414-7.567c-.575-.391-1.311-.69-1.978-.69-1.702 0-2.369 1.587-2.369 3.634 0 2.231.644 3.473 2.093 3.473.782 0 1.633-.46 2.254-.989v-5.428zm11.025-7.038c0 1.311-.76 2.07-2.093 2.07-1.311 0-2.07-.759-2.07-2.07s.759-2.024 2.07-2.024c1.334 0 2.093.713 2.093 2.024zm-5.06 14.076l1.173-.161c.322-.046.368-.115.368-.46V99.8c0-.253-.07-.414-.3-.483l-1.241-.437.253-1.863h4.76v9.545c0 .368.024.414.369.46l1.173.161V109h-6.555v-1.817zm18.064.966c-1.058.644-2.691 1.127-4.37 1.127-4.163 0-6.026-2.599-6.026-6.095 0-4.301 2.622-6.394 6.302-6.394 1.794 0 3.38.506 4.094.966v3.611l-2.461-.115-.276-1.518c-.023-.161-.07-.299-.276-.368-.276-.092-.713-.161-1.173-.161-1.38 0-2.553.943-2.553 3.634 0 2.99 1.334 3.841 2.967 3.841 1.15 0 2.185-.368 2.875-.667l.897 2.139zm8.72-.391l-.116-.023c-.874.851-2.024 1.541-3.864 1.541-2.898 0-3.358-1.978-3.358-3.404 0-2.3 1.403-3.335 4.301-3.542l2.645-.184v-1.265c0-1.081-.115-1.817-1.54-1.817-1.105 0-1.68.161-1.68 1.541l-3.243-.276c0-3.105 2.83-3.542 4.945-3.542 3.496 0 4.9.943 4.9 4.163v5.589c0 .368.022.414.367.46l1.104.184V109H76.14l-.23-1.242zm-1.956-3.588c-1.357.092-1.84.437-1.84 1.357 0 .92.552 1.265 1.311 1.265.782 0 1.564-.437 2.093-.828v-1.909l-1.564.115zm7.49 2.967l1.035-.138c.322-.046.368-.115.368-.46V99.8c0-.253-.07-.414-.3-.483l-1.241-.437.253-1.863h4.048l.276 1.84h.138c.759-1.173 1.77-2.07 3.243-2.07.529 0 1.587.092 2 .207v4.186l-2.76-.092-.23-1.219c-.045-.207-.114-.253-.298-.253-.598 0-1.311.506-1.656.805v6.095c0 .368.023.437.368.46l2.277.184V109h-7.521v-1.863zm21.684.966c-1.426.69-2.99 1.173-4.715 1.173-4.44 0-5.957-2.76-5.957-6.348 0-4.163 2.553-6.141 5.704-6.141 3.036 0 5.06 1.587 5.06 5.566 0 .276-.023 1.081-.046 1.541h-7.038c.115 1.633.828 2.714 2.714 2.714.897 0 1.863-.207 3.427-.782l.851 2.277zm-3.312-6.394c-.023-1.932-.782-2.438-1.725-2.438-.99 0-1.794.552-1.932 2.438h3.657zm9.303 5.773c0 1.173-.644 1.794-1.955 1.794-1.334 0-1.978-.598-1.978-1.794 0-1.173.644-1.794 1.978-1.794 1.288 0 1.955.621 1.955 1.794zm6.474 0c0 1.173-.644 1.794-1.955 1.794-1.334 0-1.978-.598-1.978-1.794 0-1.173.644-1.794 1.978-1.794 1.288 0 1.955.621 1.955 1.794zm6.475 0c0 1.173-.644 1.794-1.955 1.794-1.334 0-1.978-.598-1.978-1.794 0-1.173.644-1.794 1.978-1.794 1.288 0 1.955.621 1.955 1.794z" fill="#fff"/></svg>