<svg width="122" height="110" viewBox="0 0 122 110" fill="none" xmlns="http://www.w3.org/2000/svg"><path d="M11.933 17.128l1.968-.216-.864-2.496H7.085l-.84 2.496 1.896.216V19H1.445v-1.872l1.056-.264c.288-.072.504-.168.6-.456L8.357 1.624h4.248l5.232 14.832c.096.288.288.336.576.408l1.104.264V19h-7.584v-1.872zM10.037 5.296L7.83 11.824h4.488l-2.136-6.528h-.144zm10.387 16.872l.96-.144c.336-.048.432-.144.432-.504V9.4c0-.264-.048-.408-.312-.504l-1.272-.456.264-1.944h4.224l.216 1.224.12.048c1.152-.936 2.712-1.512 4.08-1.512 2.688 0 4.608 1.68 4.608 6.144 0 2.88-.984 6.888-4.944 6.888-1.248 0-2.376-.408-3.384-1.2v3.408c0 .384.024.456.384.48l2.448.216v1.896h-7.824v-1.92zm4.992-6.6c.528.456 1.368.912 2.256.912 1.608 0 2.28-1.536 2.28-3.888 0-2.472-.84-3.48-2.04-3.48-1.008 0-1.968.504-2.496.864v5.592zm10.038 1.488l1.08-.144c.336-.048.384-.12.384-.48V9.4c0-.264-.072-.432-.312-.504L35.31 8.44l.264-1.944h4.224l.288 1.92h.144c.792-1.224 1.848-2.16 3.384-2.16.552 0 1.656.096 2.088.216v4.368l-2.88-.096-.24-1.272c-.048-.216-.12-.264-.312-.264-.624 0-1.368.528-1.728.84v6.36c0 .384.024.456.384.48l2.376.192V19h-7.848v-1.944zm22.626 1.008c-1.488.72-3.12 1.224-4.92 1.224-4.632 0-6.216-2.88-6.216-6.624 0-4.344 2.664-6.408 5.952-6.408 3.168 0 5.28 1.656 5.28 5.808 0 .288-.024 1.128-.048 1.608h-7.344c.12 1.704.864 2.832 2.832 2.832.936 0 1.944-.216 3.576-.816l.888 2.376zm-3.456-6.672c-.024-2.016-.816-2.544-1.8-2.544-1.032 0-1.872.576-2.016 2.544h3.816zm14.002-.144c0-1.152-.072-2.112-1.272-2.112-.888 0-1.992.504-2.496.888v6.432c0 .384.024.432.384.48l1.152.168V19H59.77v-1.92l1.08-.144c.336-.048.384-.12.384-.48V9.4c0-.264-.072-.432-.312-.504l-1.296-.456.288-1.944h4.2l.192 1.248.096.048c1.2-.888 2.592-1.536 4.224-1.536 2.616 0 3.624 1.44 3.624 4.08v6.12c0 .384.024.432.384.48l1.2.168V19h-5.208v-7.752zm15.336 6.408l-.168-.024c-1.008.984-2.184 1.656-3.936 1.656-2.832 0-4.656-1.8-4.656-6.384 0-4.824 2.424-6.648 5.088-6.648 1.392 0 2.472.48 3.384 1.152V3.76c0-.24-.096-.408-.312-.48l-1.32-.456.264-1.944h4.824v15.6c0 .36.024.408.384.456l1.152.168V19h-4.464l-.24-1.344zM83.53 9.76c-.6-.408-1.368-.72-2.064-.72-1.776 0-2.472 1.656-2.472 3.792 0 2.328.672 3.624 2.184 3.624.816 0 1.704-.48 2.352-1.032V9.76zm17.341 8.304c-1.488.72-3.12 1.224-4.92 1.224-4.632 0-6.216-2.88-6.216-6.624 0-4.344 2.664-6.408 5.952-6.408 3.168 0 5.28 1.656 5.28 5.808 0 .288-.024 1.128-.048 1.608h-7.344c.12 1.704.864 2.832 2.832 2.832.936 0 1.944-.216 3.576-.816l.888 2.376zm-3.456-6.672c-.024-2.016-.816-2.544-1.8-2.544-1.032 0-1.872.576-2.016 2.544h3.816zm18.06 6.312l-.12-.024c-.912.888-2.112 1.608-4.032 1.608-3.024 0-3.504-2.064-3.504-3.552 0-2.4 1.464-3.48 4.488-3.696l2.76-.192v-1.32c0-1.128-.12-1.896-1.608-1.896-1.152 0-1.752.168-1.752 1.608l-3.384-.288c0-3.24 2.952-3.696 5.16-3.696 3.648 0 5.112.984 5.112 4.344v5.832c0 .384.024.432.384.48l1.152.192V19h-4.416l-.24-1.296zm-2.04-3.744c-1.416.096-1.92.456-1.92 1.416s.576 1.32 1.368 1.32c.816 0 1.632-.456 2.184-.864V13.84l-1.632.12zM5.712 32.416c0 1.368-.792 2.16-2.184 2.16-1.368 0-2.16-.792-2.16-2.16s.792-2.112 2.16-2.112c1.392 0 2.184.744 2.184 2.112zM.432 47.104l1.224-.168c.336-.048.384-.12.384-.48V39.4c0-.264-.072-.432-.312-.504L.432 38.44l.264-1.944h4.968v9.96c0 .384.024.432.384.48l1.224.168V49H.432v-1.896zm16.884.552l-.168-.024c-1.008.984-2.184 1.656-3.936 1.656-2.832 0-4.656-1.8-4.656-6.384 0-4.824 2.424-6.648 5.088-6.648 1.392 0 2.472.48 3.384 1.152V33.76c0-.24-.096-.408-.312-.48l-1.32-.456.264-1.944h4.824v15.6c0 .36.024.408.384.456l1.152.168V49h-4.464l-.24-1.344zm-.432-7.896c-.6-.408-1.368-.72-2.064-.72-1.776 0-2.472 1.656-2.472 3.792 0 2.328.672 3.624 2.184 3.624.816 0 1.704-.48 2.352-1.032V39.76zm17.34 8.304c-1.488.72-3.12 1.224-4.92 1.224-4.632 0-6.216-2.88-6.216-6.624 0-4.344 2.664-6.408 5.952-6.408 3.168 0 5.28 1.656 5.28 5.808 0 .288-.024 1.128-.048 1.608h-7.344c.12 1.704.864 2.832 2.832 2.832.936 0 1.944-.216 3.576-.816l.888 2.376zm-3.456-6.672c-.024-2.016-.816-2.544-1.8-2.544-1.032 0-1.872.576-2.016 2.544h3.816zm14.002-.144c0-1.152-.073-2.112-1.273-2.112-.888 0-1.992.504-2.495.888v6.432c0 .384.023.432.383.48l1.153.168V49h-6.624v-1.92l1.08-.144c.336-.048.383-.12.383-.48V39.4c0-.264-.072-.432-.312-.504l-1.295-.456.287-1.944h4.2l.193 1.248.095.048c1.2-.888 2.593-1.536 4.224-1.536 2.617 0 3.625 1.44 3.625 4.08v6.12c0 .384.023.432.384.48l1.2.168V49h-5.209v-7.752zm15.53 7.08c-1.031.504-2.543.96-3.911.96-2.856 0-3.936-1.152-3.936-3.864v-6.288c0-.144 0-.24-.192-.24h-1.68V36.76c2.112-.24 2.952-1.296 3.216-3.912h2.28v3.408c0 .168 0 .24.192.24h3.384v2.4h-3.576v5.736c0 1.416.336 1.968 1.632 1.968.672 0 1.368-.168 1.944-.384l.648 2.112zm6.542-15.912c0 1.368-.792 2.16-2.184 2.16-1.368 0-2.16-.792-2.16-2.16s.792-2.112 2.16-2.112c1.392 0 2.184.744 2.184 2.112zm-5.28 14.688l1.224-.168c.336-.048.384-.12.384-.48V39.4c0-.264-.072-.432-.312-.504l-1.296-.456.264-1.944h4.968v9.96c0 .384.024.432.384.48l1.224.168V49h-6.84v-1.896zm17.41-7.92c0-.192-.048-.288-.24-.288h-3.816v7.464c0 .432.072.456.432.504l1.68.24V49h-7.464v-1.896l1.296-.168c.408-.048.432-.12.432-.576v-7.224c0-.144 0-.24-.192-.24h-1.608v-2.4h1.8v-1.2c0-3.552 2.064-4.704 5.976-4.704 2.976 0 5.04.504 5.088 3.792l-3.408.408c0-1.488-.336-1.848-1.872-1.848-1.608 0-2.16.48-2.16 1.848v1.464c0 .192.024.24.264.24h7.416v9.96c0 .384.024.432.384.48l1.224.168V49h-5.232v-9.816zm17.242 8.928c-1.104.672-2.808 1.176-4.56 1.176-4.344 0-6.288-2.712-6.288-6.36 0-4.488 2.736-6.672 6.576-6.672 1.872 0 3.528.528 4.272 1.008v3.768l-2.568-.12-.288-1.584c-.024-.168-.072-.312-.288-.384-.288-.096-.744-.168-1.224-.168-1.44 0-2.664.984-2.664 3.792 0 3.12 1.392 4.008 3.096 4.008 1.2 0 2.28-.384 3-.696l.936 2.232zm9.099-.408l-.12-.024c-.912.888-2.112 1.608-4.032 1.608-3.025 0-3.505-2.064-3.505-3.552 0-2.4 1.465-3.48 4.489-3.696l2.76-.192v-1.32c0-1.128-.12-1.896-1.608-1.896-1.152 0-1.752.168-1.752 1.608l-3.385-.288c0-3.24 2.953-3.696 5.161-3.696 3.648 0 5.112.984 5.112 4.344v5.832c0 .384.024.432.384.48l1.152.192V49h-4.416l-.24-1.296zm-2.04-3.744c-1.416.096-1.92.456-1.92 1.416s.576 1.32 1.368 1.32c.816 0 1.632-.456 2.184-.864V43.84l-1.632.12zm7.815 3.096l1.08-.144c.336-.048.384-.12.384-.48V39.4c0-.264-.072-.432-.312-.504l-1.296-.456.264-1.944h4.224l.288 1.92h.144c.792-1.224 1.848-2.16 3.384-2.16.552 0 1.656.096 2.088.216v4.368l-2.88-.096-.24-1.272c-.048-.216-.12-.264-.312-.264-.624 0-1.368.528-1.728.84v6.36c0 .384.024.456.384.48l2.376.192V49h-7.848v-1.944zM3.272 82.144l1.872-.216c.312-.024.456-.192.6-.528l1.032-2.28-4.584-10.032c-.144-.288-.216-.336-.504-.408l-.984-.24.384-1.944h6.36v1.944l-1.512.192L8.6 74.968h.168l2.544-6.336-1.56-.192.312-1.944h5.352v1.944l-.768.144c-.288.048-.48.12-.6.408l-5.28 12.912 2.496.264v1.92H3.272v-1.944zm18.175-5.088l1.08-.144c.336-.048.384-.12.384-.48V69.4c0-.264-.072-.432-.312-.504l-1.296-.456.264-1.944h4.224l.288 1.92h.144c.792-1.224 1.848-2.16 3.384-2.16.552 0 1.656.096 2.088.216v4.368l-2.88-.096-.24-1.272c-.048-.216-.12-.264-.312-.264-.624 0-1.368.528-1.728.84v6.36c0 .384.024.456.384.48l2.376.192V79h-7.848v-1.944zm22.627 1.008c-1.488.72-3.12 1.224-4.92 1.224-4.633 0-6.217-2.88-6.217-6.624 0-4.344 2.665-6.408 5.953-6.408 3.167 0 5.28 1.656 5.28 5.808 0 .288-.025 1.128-.049 1.608h-7.343c.12 1.704.864 2.832 2.831 2.832.936 0 1.944-.216 3.576-.816l.889 2.376zm-3.456-6.672c-.025-2.016-.817-2.544-1.8-2.544-1.032 0-1.872.576-2.017 2.544h3.816zm5.05 10.776l.96-.144c.337-.048.433-.144.433-.504V69.4c0-.264-.048-.408-.312-.504l-1.272-.456.264-1.944h4.224l.216 1.224.12.048c1.152-.936 2.712-1.512 4.08-1.512 2.688 0 4.608 1.68 4.608 6.144 0 2.88-.984 6.888-4.944 6.888-1.248 0-2.376-.408-3.384-1.2v3.408c0 .384.024.456.384.48l2.448.216v1.896h-7.824v-1.92zm4.993-6.6c.528.456 1.368.912 2.256.912 1.608 0 2.28-1.536 2.28-3.888 0-2.472-.84-3.48-2.04-3.48-1.008 0-1.968.504-2.496.864v5.592zm16.112 3.72c-4.392 0-6.168-2.688-6.168-6.456 0-3.984 2.088-6.576 6.48-6.576 4.44 0 6.168 2.64 6.168 6.312 0 4.08-2.064 6.72-6.48 6.72zm.168-2.52c1.56 0 2.52-1.08 2.52-4.08 0-2.832-.864-3.84-2.424-3.84-1.584 0-2.64.984-2.64 3.864 0 2.904.936 4.056 2.544 4.056zm7.755.288l1.08-.144c.336-.048.384-.12.384-.48V69.4c0-.264-.072-.432-.312-.504l-1.296-.456.264-1.944h4.224l.288 1.92h.144c.792-1.224 1.848-2.16 3.384-2.16.552 0 1.656.096 2.088.216v4.368l-2.88-.096-.24-1.272c-.048-.216-.12-.264-.312-.264-.624 0-1.368.528-1.728.84v6.36c0 .384.024.456.384.48l2.376.192V79h-7.848v-1.944zm21.06 1.272c-1.033.504-2.545.96-3.913.96-2.856 0-3.936-1.152-3.936-3.864v-6.288c0-.144 0-.24-.192-.24h-1.68V66.76c2.112-.24 2.952-1.296 3.216-3.912h2.28v3.408c0 .168 0 .24.192.24h3.384v2.4h-3.576v5.736c0 1.416.336 1.968 1.632 1.968.672 0 1.368-.168 1.944-.384l.648 2.112zm8.877-.624l-.12-.024c-.912.888-2.112 1.608-4.032 1.608-3.024 0-3.504-2.064-3.504-3.552 0-2.4 1.464-3.48 4.488-3.696l2.76-.192v-1.32c0-1.128-.12-1.896-1.608-1.896-1.152 0-1.752.168-1.752 1.608l-3.384-.288c0-3.24 2.952-3.696 5.16-3.696 3.648 0 5.112.984 5.112 4.344v5.832c0 .384.024.432.384.48l1.152.192V79h-4.416l-.24-1.296zm-2.04-3.744c-1.416.096-1.92.456-1.92 1.416s.576 1.32 1.368 1.32c.816 0 1.632-.456 2.184-.864V73.84l-1.632.12zm7.815 3.096l1.08-.144c.336-.048.384-.12.384-.48V69.4c0-.264-.072-.432-.312-.504l-1.296-.456.264-1.944h4.224l.288 1.92h.144c.792-1.224 1.848-2.16 3.384-2.16.552 0 1.656.096 2.088.216v4.368l-2.88-.096-.24-1.272c-.048-.216-.12-.264-.312-.264-.624 0-1.368.528-1.728.84v6.36c0 .384.024.456.384.48l2.376.192V79h-7.848v-1.944zM17.95 108.064c-1.488.72-3.12 1.224-4.92 1.224-4.632 0-6.216-2.88-6.216-6.624 0-4.344 2.664-6.408 5.952-6.408 3.168 0 5.28 1.656 5.28 5.808 0 .288-.024 1.128-.048 1.608h-7.344c.12 1.704.864 2.832 2.832 2.832.936 0 1.944-.216 3.576-.816l.888 2.376zm-3.456-6.672c-.024-2.016-.816-2.544-1.8-2.544-1.032 0-1.872.576-2.016 2.544h3.816zm5.026 5.712l1.2-.168c.335-.048.384-.12.384-.48V93.784c0-.264-.072-.432-.313-.504l-1.32-.456.264-1.944h4.992v15.576c0 .384.024.432.384.48l1.177.168V109H19.52v-1.896zm13.069-.024l1.344-.144c.336-.048.384-.144.384-.504v-7.296c0-.144 0-.24-.192-.24h-1.608v-2.4h1.8v-1.32c0-3.24 1.824-4.584 5.136-4.584 2.232 0 4.296.552 4.296 3.456l-3.36.408c.024-1.224-.312-1.512-1.104-1.512-1.2 0-1.344.648-1.344 1.8v1.512c0 .168 0 .24.192.24h3.792v2.4H37.94v7.464c0 .384.072.456.432.48l2.928.264V109h-8.712v-1.92zm10.692-.024l1.08-.144c.336-.048.384-.12.384-.48V99.4c0-.264-.072-.432-.312-.504l-1.296-.456.264-1.944h4.224l.288 1.92h.144c.792-1.224 1.848-2.16 3.384-2.16.552 0 1.656.096 2.088.216v4.368l-2.88-.096-.24-1.272c-.048-.216-.12-.264-.312-.264-.624 0-1.368.528-1.728.84v6.36c0 .384.024.456.384.48l2.376.192V109h-7.848v-1.944zm18.799.648l-.12-.024c-.912.888-2.112 1.608-4.032 1.608-3.024 0-3.504-2.064-3.504-3.552 0-2.4 1.464-3.48 4.488-3.696l2.76-.192v-1.32c0-1.128-.12-1.896-1.608-1.896-1.152 0-1.752.168-1.752 1.608l-3.384-.288c0-3.24 2.952-3.696 5.16-3.696 3.648 0 5.112.984 5.112 4.344v5.832c0 .384.024.432.384.48l1.152.192V109H62.32l-.24-1.296zm-2.04-3.744c-1.416.096-1.92.456-1.92 1.416s.576 1.32 1.368 1.32c.816 0 1.632-.456 2.184-.864v-1.992l-1.632.12zm16.657 3.744l-.12-.024c-.984.744-2.232 1.608-4.272 1.608-2.52 0-3.48-1.44-3.48-4.224v-5.856c0-.384-.024-.432-.384-.504l-1.152-.24.24-1.968h4.92v7.944c0 1.464.24 2.016 1.272 2.016 1.056 0 1.92-.6 2.472-1.104v-6.168c0-.384-.024-.408-.384-.48l-1.032-.24.264-1.968h4.776v9.96c0 .312.048.408.336.456l1.2.168V109H76.89l-.192-1.296zm14.765-.048l-.168-.024c-1.008.984-2.184 1.656-3.936 1.656-2.832 0-4.656-1.8-4.656-6.384 0-4.824 2.424-6.648 5.088-6.648 1.392 0 2.472.48 3.384 1.152V93.76c0-.24-.096-.408-.312-.48l-1.32-.456.264-1.944h4.824v15.6c0 .36.024.408.384.456l1.152.168V109h-4.464l-.24-1.344zm-.432-7.896c-.6-.408-1.368-.72-2.064-.72-1.776 0-2.472 1.656-2.472 3.792 0 2.328.672 3.624 2.184 3.624.816 0 1.704-.48 2.352-1.032V99.76zm17.34 8.304c-1.488.72-3.12 1.224-4.92 1.224-4.632 0-6.216-2.88-6.216-6.624 0-4.344 2.664-6.408 5.952-6.408 3.168 0 5.28 1.656 5.28 5.808 0 .288-.024 1.128-.048 1.608h-7.344c.12 1.704.864 2.832 2.832 2.832.936 0 1.944-.216 3.576-.816l.888 2.376zm-3.456-6.672c-.024-2.016-.816-2.544-1.8-2.544-1.032 0-1.872.576-2.016 2.544h3.816zm9.708 6.024c0 1.224-.672 1.872-2.04 1.872-1.392 0-2.064-.624-2.064-1.872 0-1.224.672-1.872 2.064-1.872 1.344 0 2.04.648 2.04 1.872z" fill="#fff"/></svg>