<svg width="140" height="55" viewBox="0 0 140 55" fill="none" xmlns="http://www.w3.org/2000/svg"><rect y=".672" width="140" height="54" rx="2" fill="#F3C501"/><path d="M15.467 23.98V11.91h5.542c.59 0 1.133.118 1.632.357.499.238.93.56 1.292.969.363.396.64.844.833 1.342.204.5.306 1.004.306 1.514 0 .464-.068.912-.204 1.343-.136.43-.334.827-.595 1.19-.26.35-.572.657-.935.918l2.55 4.437H22.25l-2.125-3.707h-1.343v3.707h-3.315zm3.315-6.596h2.09a.61.61 0 00.392-.154c.125-.102.227-.249.306-.442.09-.192.136-.425.136-.697 0-.283-.051-.515-.153-.697-.09-.192-.21-.34-.357-.441a.678.678 0 00-.408-.153h-2.006v2.584zM36.73 21.09v2.89h-8.602V11.91h8.449v2.89h-5.134v1.7h4.386v2.686h-4.386v1.904h5.287zm2.731 2.89V11.91h5.202c.59 0 1.133.118 1.632.357.499.238.93.56 1.292.969.363.396.64.844.833 1.342.204.5.306 1.004.306 1.514 0 .713-.17 1.388-.51 2.023a4.2 4.2 0 01-1.394 1.564c-.59.396-1.28.595-2.074.595h-1.972v3.706h-3.315zm3.315-6.596h1.751c.136 0 .267-.04.391-.12.125-.079.227-.215.306-.407.09-.193.136-.448.136-.765 0-.34-.05-.601-.153-.782-.09-.193-.21-.324-.357-.392a.804.804 0 00-.408-.118h-1.666v2.584zm13.907 6.697c-.918 0-1.751-.17-2.5-.51a6.323 6.323 0 01-1.937-1.394 6.659 6.659 0 01-1.241-1.971 6.295 6.295 0 01-.425-2.279c0-.804.153-1.57.459-2.294a6.326 6.326 0 011.275-1.938 6.066 6.066 0 011.955-1.36 6.18 6.18 0 012.482-.494c.918 0 1.75.176 2.499.527.748.34 1.388.805 1.92 1.394.534.59.942 1.253 1.225 1.99a5.908 5.908 0 01-.017 4.521 6.134 6.134 0 01-1.275 1.956 6.228 6.228 0 01-1.938 1.36c-.748.328-1.575.492-2.482.492zm-2.737-6.12c0 .409.057.805.17 1.19.113.375.283.715.51 1.02.227.295.51.533.85.715.351.17.765.255 1.24.255.477 0 .89-.091 1.242-.272a2.32 2.32 0 00.85-.732c.227-.317.39-.663.493-1.037a4.138 4.138 0 000-2.346 3.105 3.105 0 00-.51-1.003 2.317 2.317 0 00-.867-.713c-.351-.17-.76-.255-1.224-.255-.476 0-.89.09-1.241.272a2.52 2.52 0 00-.85.73 3.08 3.08 0 00-.51 1.02c-.102.375-.153.76-.153 1.157zm11.486 6.019V11.91h5.542c.59 0 1.133.118 1.632.357.499.238.93.56 1.292.969.363.396.64.844.833 1.342.204.5.306 1.004.306 1.514 0 .464-.068.912-.204 1.343-.136.43-.334.827-.595 1.19-.26.35-.572.657-.935.918l2.55 4.437h-3.638l-2.125-3.707h-1.343v3.707h-3.315zm3.315-6.596h2.09a.61.61 0 00.392-.154c.125-.102.227-.249.306-.442.09-.192.136-.425.136-.697 0-.283-.051-.515-.153-.697a1.08 1.08 0 00-.357-.441.678.678 0 00-.408-.153h-2.006v2.584zm18.582-2.585h-3.468v9.18h-3.315V14.8h-3.485v-2.89H87.33v2.89zm4.073-2.89h3.706l3.842 12.07h-3.366l-.731-2.363H91.64l-.714 2.364h-3.383l3.859-12.07zm2.924 7.498l-1.071-4.25-1.122 4.25h2.193zm19.912 1.683v2.89h-8.602V11.91h8.449v2.89h-5.134v1.7h4.386v2.686h-4.386v1.904h5.287zm2.732 2.89V11.91h3.315v9.18h5.474v2.89h-8.789zm-81.845 20V31.91h8.28v2.89H38.44v2.006h4.046v2.686h-4.046v4.488h-3.315zm10.77 0V31.91h5.542c.589 0 1.133.119 1.632.357.498.237.929.56 1.292.968.362.397.64.845.833 1.343.204.5.306 1.003.306 1.514 0 .464-.068.912-.204 1.343-.136.43-.335.827-.595 1.19-.261.35-.573.657-.935.917l2.55 4.438h-3.638l-2.125-3.706H49.21v3.706h-3.315zm3.315-6.596h2.09a.61.61 0 00.392-.154c.124-.101.226-.249.306-.441.09-.193.136-.425.136-.697 0-.284-.051-.516-.153-.697-.091-.193-.21-.34-.357-.443a.678.678 0 00-.408-.152H49.21v2.584zm12.134-5.474h3.706l3.842 12.07h-3.366l-.73-2.363h-3.214l-.714 2.363h-3.383l3.86-12.07zm2.924 7.497l-1.07-4.25-1.123 4.25h2.193zm11.622 4.675c-.963 0-1.79-.16-2.482-.477a4.566 4.566 0 01-1.7-1.308 5.568 5.568 0 01-.952-1.904 8.375 8.375 0 01-.306-2.279V31.91h3.315v6.204c0 .397.04.777.12 1.14.079.362.203.685.373.968.17.284.386.51.646.68.272.16.6.239.986.239.397 0 .731-.08 1.003-.238a1.86 1.86 0 00.646-.68c.17-.295.295-.624.374-.986.08-.363.12-.737.12-1.123V31.91h3.314v6.204c0 .84-.113 1.621-.34 2.347a5.436 5.436 0 01-.986 1.904 4.49 4.49 0 01-1.7 1.274c-.68.295-1.49.442-2.43.442zm8.554-.102V31.91h4.641c1.337 0 2.454.271 3.35.815a5.102 5.102 0 012.04 2.176c.464.907.696 1.916.696 3.026 0 1.224-.255 2.29-.765 3.197a5.215 5.215 0 01-2.125 2.107c-.907.5-1.972.748-3.196.748h-4.64zm7.361-6.052c0-.624-.108-1.168-.323-1.633a2.494 2.494 0 00-.935-1.105c-.408-.26-.895-.39-1.462-.39H87.76v6.29h1.326c.578 0 1.065-.137 1.462-.409.408-.271.72-.645.935-1.121a3.996 3.996 0 00.323-1.633zm14.6 3.162v2.89h-8.602V31.91h8.449v2.89h-5.134v1.7h4.386v2.685h-4.386v1.904h5.287z" fill="#2B3D51"/></svg>