<svg width="136" height="23" viewBox="0 0 136 23" fill="none" xmlns="http://www.w3.org/2000/svg"><path d="M5.684 15.266c0 .45.078.867.234 1.248.173.364.39.685.65.962.277.277.598.494.962.65.381.156.78.234 1.196.234.416 0 .806-.078 1.17-.234.381-.156.702-.373.962-.65.277-.277.494-.598.65-.962.173-.381.26-.789.26-1.222 0-.416-.087-.806-.26-1.17a2.97 2.97 0 00-.65-.988 2.698 2.698 0 00-.962-.65 2.938 2.938 0 00-1.17-.234c-.416 0-.815.078-1.196.234a3.043 3.043 0 00-.962.65c-.26.277-.477.598-.65.962a2.938 2.938 0 00-.234 1.17zm-4.966-.052c0-.988.2-1.907.598-2.756a6.627 6.627 0 011.664-2.236 7.815 7.815 0 012.522-1.508c.988-.364 2.063-.546 3.224-.546 1.144 0 2.201.182 3.172.546.988.347 1.837.84 2.548 1.482a6.415 6.415 0 011.69 2.262c.399.867.598 1.829.598 2.886 0 1.057-.208 2.028-.624 2.912a6.903 6.903 0 01-1.664 2.262c-.71.624-1.569 1.11-2.574 1.456-.988.347-2.063.52-3.224.52-1.144 0-2.201-.173-3.172-.52a7.464 7.464 0 01-2.522-1.482 7 7 0 01-1.638-2.288c-.399-.901-.598-1.898-.598-2.99zm37.311-1.82c-.156-.659-.477-1.187-.962-1.586s-1.075-.598-1.768-.598c-.728 0-1.326.19-1.794.572-.45.381-.737.919-.858 1.612h5.382zm-5.512 2.73c0 2.028.953 3.042 2.86 3.042 1.023 0 1.794-.416 2.314-1.248h4.55c-.919 3.05-3.215 4.576-6.89 4.576-1.127 0-2.158-.165-3.094-.494a7.211 7.211 0 01-2.418-1.456 6.515 6.515 0 01-1.534-2.236c-.364-.867-.546-1.837-.546-2.912 0-1.11.173-2.106.52-2.99.347-.901.84-1.664 1.482-2.288a6.438 6.438 0 012.314-1.43c.919-.347 1.95-.52 3.094-.52 1.127 0 2.14.173 3.042.52.901.33 1.664.815 2.288 1.456.624.641 1.1 1.43 1.43 2.366.33.919.494 1.959.494 3.12v.494h-9.906zm12.596-7.462h4.706V10.3c1.283-1.23 2.721-1.846 4.316-1.846 1.976 0 3.484.832 4.524 2.496 1.057-1.681 2.565-2.522 4.524-2.522.624 0 1.213.095 1.768.286.555.173 1.031.46 1.43.858.399.381.71.884.936 1.508.243.624.364 1.378.364 2.262V22h-4.706v-6.578c0-.676-.052-1.23-.156-1.664-.087-.433-.225-.771-.416-1.014a1.307 1.307 0 00-.624-.494 2.302 2.302 0 00-.78-.13c-1.508 0-2.262 1.1-2.262 3.302V22h-4.706v-6.578c0-.676-.043-1.23-.13-1.664-.087-.45-.217-.806-.39-1.066a1.138 1.138 0 00-.624-.52 2.44 2.44 0 00-.91-.156c-.295 0-.572.043-.832.13-.26.087-.494.26-.702.52-.19.243-.347.59-.468 1.04-.104.433-.156 1.005-.156 1.716V22h-4.706V8.662zm30.165 6.63c0 .433.078.84.234 1.222.156.364.364.685.624.962.277.277.598.494.962.65.381.156.788.234 1.222.234.416 0 .806-.078 1.17-.234.381-.156.702-.373.962-.65.277-.277.494-.598.65-.962.173-.364.26-.754.26-1.17 0-.416-.087-.806-.26-1.17a2.97 2.97 0 00-.65-.988 2.698 2.698 0 00-.962-.65 2.938 2.938 0 00-1.17-.234c-.433 0-.84.078-1.222.234a3.043 3.043 0 00-.962.65c-.26.277-.468.598-.624.962a2.756 2.756 0 00-.234 1.144zm5.928-6.63h4.732V22h-4.732v-1.482c-1.005 1.265-2.366 1.898-4.082 1.898-.97 0-1.864-.173-2.678-.52a6.624 6.624 0 01-2.132-1.508 7.077 7.077 0 01-1.43-2.262c-.33-.867-.494-1.811-.494-2.834 0-.953.165-1.855.494-2.704.33-.867.788-1.62 1.378-2.262a6.336 6.336 0 012.106-1.508c.815-.381 1.716-.572 2.704-.572 1.664 0 3.042.58 4.134 1.742V8.662zm12.64 0V22H89.14V8.662h4.706zM88.828 3.54c0-.364.07-.702.208-1.014.139-.33.33-.615.572-.858.243-.243.52-.433.832-.572.33-.139.676-.208 1.04-.208s.702.07 1.014.208c.33.139.616.33.858.572.243.243.434.529.572.858.139.312.208.65.208 1.014s-.069.71-.208 1.04a2.74 2.74 0 01-.572.832 2.657 2.657 0 01-.858.572c-.312.139-.65.208-1.014.208s-.71-.07-1.04-.208a2.743 2.743 0 01-.832-.572 2.744 2.744 0 01-.572-.832 2.654 2.654 0 01-.208-1.04zm12.94-3.12V22h-4.706V.42h4.706zm12.056 11.674c-.867-.45-1.716-.676-2.548-.676-.433 0-.789.087-1.066.26-.26.173-.39.407-.39.702 0 .156.017.286.052.39a.849.849 0 00.286.26c.156.087.373.165.65.234.295.07.676.156 1.144.26 1.3.26 2.271.728 2.912 1.404.641.659.962 1.508.962 2.548 0 .78-.156 1.482-.468 2.106a4.597 4.597 0 01-1.3 1.586c-.555.416-1.222.737-2.002.962-.78.243-1.638.364-2.574.364-1.803 0-3.579-.511-5.33-1.534l1.716-3.328c1.317.901 2.565 1.352 3.744 1.352.433 0 .789-.095 1.066-.286.277-.19.416-.433.416-.728a.937.937 0 00-.078-.416.555.555 0 00-.26-.312c-.139-.104-.347-.19-.624-.26a9.012 9.012 0 00-1.04-.26c-1.456-.295-2.479-.728-3.068-1.3-.572-.59-.858-1.395-.858-2.418 0-.745.139-1.413.416-2.002a4.14 4.14 0 011.196-1.534c.52-.416 1.144-.737 1.872-.962.745-.225 1.569-.338 2.47-.338 1.473 0 2.903.286 4.29.858l-1.586 3.068zm5.369 8.265c0-.547.201-1.02.601-1.42.4-.4.879-.601 1.435-.601.557 0 1.036.2 1.436.6.4.4.601.88.601 1.436 0 .566-.201 1.05-.601 1.45-.391.39-.869.586-1.436.586-.576 0-1.059-.195-1.45-.586-.39-.39-.586-.879-.586-1.465zm6.258 0c0-.547.2-1.02.601-1.42.4-.4.879-.601 1.435-.601.557 0 1.035.2 1.436.6.4.4.6.88.6 1.436 0 .566-.2 1.05-.6 1.45-.391.39-.869.586-1.436.586-.576 0-1.059-.195-1.45-.586-.391-.39-.586-.879-.586-1.465zm6.258 0c0-.547.2-1.02.601-1.42.4-.4.878-.601 1.435-.601s1.035.2 1.436.6c.4.4.6.88.6 1.436 0 .566-.2 1.05-.6 1.45-.391.39-.869.586-1.436.586-.576 0-1.059-.195-1.45-.586-.391-.39-.586-.879-.586-1.465z" fill="#fff"/></svg>