<svg width="132" height="87" viewBox="0 0 132 87" fill="none" xmlns="http://www.w3.org/2000/svg"><path d="M45.446 21V.065l14.295 14.956V1.398H62.7v20.795L48.404 7.276V21h-2.958zm21.011-6.271c0-1.786.639-3.305 1.917-4.558 1.278-1.253 2.835-1.879 4.672-1.879 1.845 0 3.41.63 4.697 1.892 1.27 1.26 1.904 2.81 1.904 4.646 0 1.854-.639 3.407-1.916 4.66-1.287 1.243-2.865 1.866-4.736 1.866-1.853 0-3.407-.635-4.66-1.905-1.252-1.252-1.878-2.827-1.878-4.723zm2.92.05c0 1.236.33 2.213.99 2.933.677.728 1.57 1.092 2.679 1.092 1.117 0 2.01-.36 2.679-1.08.668-.719 1.003-1.68 1.003-2.881 0-1.202-.335-2.163-1.003-2.882-.677-.728-1.57-1.092-2.68-1.092-1.09 0-1.975.364-2.652 1.092-.677.728-1.016 1.667-1.016 2.818zM.574 39.586h2.637v1.02c.484-.508.914-.856 1.289-1.044.383-.195.836-.292 1.36-.292.695 0 1.421.226 2.18.68l-1.208 2.413c-.5-.36-.988-.539-1.465-.539-1.437 0-2.156 1.086-2.156 3.258V51H.574V39.586zm19.207 6.328h-8.18c.07.938.376 1.684.915 2.238.539.547 1.23.82 2.074.82.656 0 1.2-.156 1.629-.468.422-.313.902-.89 1.441-1.734l2.227 1.242a9.069 9.069 0 01-1.09 1.511 6.037 6.037 0 01-1.23 1.032c-.438.265-.91.46-1.419.586a6.903 6.903 0 01-1.652.187c-1.703 0-3.07-.547-4.101-1.64-1.032-1.102-1.547-2.563-1.547-4.383 0-1.805.5-3.266 1.5-4.383 1.007-1.102 2.343-1.652 4.007-1.652 1.68 0 3.008.535 3.985 1.605.969 1.063 1.453 2.535 1.453 4.418l-.012.621zm-2.707-2.156c-.367-1.406-1.254-2.11-2.66-2.11-.32 0-.621.051-.902.153a2.49 2.49 0 00-.774.422c-.226.18-.422.398-.586.656a3.08 3.08 0 00-.375.879h5.297zM29.31 41.53l-2.18 1.16c-.344-.703-.77-1.054-1.277-1.054a.867.867 0 00-.622.246.785.785 0 00-.257.61c0 .437.508.87 1.523 1.3 1.399.602 2.34 1.156 2.824 1.664.485.508.727 1.191.727 2.05 0 1.102-.406 2.024-1.219 2.766-.789.704-1.742 1.055-2.86 1.055-1.913 0-3.269-.934-4.066-2.8l2.25-1.044c.313.547.551.895.715 1.043.32.297.703.446 1.149.446.89 0 1.336-.407 1.336-1.22 0-.468-.344-.905-1.032-1.312a37.04 37.04 0 00-.797-.386 73.8 73.8 0 01-.808-.387c-.766-.375-1.305-.75-1.617-1.125-.399-.477-.598-1.09-.598-1.84 0-.992.34-1.812 1.02-2.46.695-.65 1.539-.974 2.53-.974 1.462 0 2.548.754 3.259 2.262zm5.753 15.68h-2.636V39.586h2.636v1.242c1.04-1.039 2.22-1.559 3.54-1.559 1.57 0 2.863.579 3.879 1.735 1.03 1.148 1.546 2.598 1.546 4.348 0 1.71-.511 3.136-1.535 4.277-1.015 1.133-2.297 1.7-3.844 1.7-1.336 0-2.53-.536-3.586-1.606v7.488zm6.27-11.848c0-1.093-.297-1.984-.89-2.672-.602-.695-1.36-1.043-2.274-1.043-.969 0-1.754.336-2.355 1.008-.602.672-.903 1.555-.903 2.649 0 1.07.3 1.953.903 2.648.593.68 1.374 1.02 2.343 1.02.914 0 1.668-.344 2.262-1.032.61-.687.914-1.547.914-2.578zm4.945-.152c0-1.648.59-3.05 1.77-4.207 1.18-1.156 2.617-1.734 4.312-1.734 1.703 0 3.149.582 4.336 1.746 1.172 1.164 1.758 2.593 1.758 4.289 0 1.71-.59 3.144-1.77 4.3-1.187 1.149-2.644 1.723-4.37 1.723-1.711 0-3.145-.586-4.301-1.758-1.157-1.156-1.735-2.61-1.735-4.36zm2.696.047c0 1.14.304 2.043.914 2.707.625.672 1.449 1.008 2.472 1.008 1.032 0 1.856-.332 2.473-.996.617-.664.926-1.551.926-2.66 0-1.11-.309-1.997-.926-2.66-.625-.673-1.45-1.009-2.473-1.009-1.007 0-1.824.336-2.449 1.008-.625.672-.937 1.54-.937 2.602zm12.28-5.672h2.65v1.055c.921-.914 1.96-1.371 3.116-1.371 1.329 0 2.364.417 3.106 1.253.64.711.96 1.871.96 3.48V51h-2.647v-6.375c0-1.125-.157-1.902-.47-2.332-.304-.438-.859-.656-1.663-.656-.875 0-1.496.289-1.864.867-.359.57-.539 1.566-.539 2.988V51h-2.648V39.586zm21.587-8.379h2.648V51H82.84v-1.195c-1.04 1.015-2.215 1.523-3.528 1.523-1.562 0-2.859-.57-3.89-1.71-1.024-1.165-1.535-2.618-1.535-4.36 0-1.703.511-3.125 1.535-4.266 1.016-1.148 2.293-1.722 3.832-1.722 1.336 0 2.531.546 3.586 1.64v-9.703zm-6.258 14.05c0 1.095.293 1.985.879 2.673.602.695 1.36 1.043 2.273 1.043.977 0 1.766-.336 2.368-1.008.601-.696.902-1.578.902-2.649 0-1.07-.3-1.953-.902-2.648-.602-.68-1.383-1.02-2.344-1.02-.906 0-1.664.344-2.274 1.032-.601.695-.902 1.554-.902 2.578zm20.649-5.671h2.648V51H97.23v-1.195c-1.087 1.015-2.254 1.523-3.504 1.523-1.579 0-2.883-.57-3.915-1.71-1.023-1.165-1.535-2.618-1.535-4.36 0-1.711.512-3.137 1.535-4.278 1.024-1.14 2.305-1.71 3.844-1.71 1.328 0 2.52.546 3.575 1.64v-1.324zm-6.258 5.672c0 1.094.293 1.984.879 2.672.601.695 1.359 1.043 2.273 1.043.977 0 1.766-.336 2.367-1.008.602-.696.902-1.578.902-2.649 0-1.07-.3-1.953-.902-2.648-.601-.68-1.383-1.02-2.344-1.02-.906 0-1.664.344-2.273 1.032-.602.695-.902 1.554-.902 2.578zm18.867-3.727l-2.18 1.16c-.344-.703-.769-1.054-1.277-1.054a.868.868 0 00-.621.246.785.785 0 00-.258.61c0 .437.508.87 1.523 1.3 1.399.602 2.34 1.156 2.825 1.664.484.508.726 1.191.726 2.05 0 1.102-.406 2.024-1.219 2.766-.789.704-1.742 1.055-2.859 1.055-1.914 0-3.27-.934-4.066-2.8l2.25-1.044c.312.547.55.895.714 1.043.321.297.704.446 1.149.446.891 0 1.336-.407 1.336-1.22 0-.468-.344-.905-1.031-1.312a39.748 39.748 0 00-.797-.386 74.705 74.705 0 01-.809-.387c-.766-.375-1.305-.75-1.617-1.125-.399-.477-.598-1.09-.598-1.84 0-.992.34-1.812 1.02-2.46.695-.65 1.539-.974 2.531-.974 1.461 0 2.547.754 3.258 2.262zm18.937-1.945h2.649V51h-2.649v-1.195c-1.086 1.015-2.254 1.523-3.504 1.523-1.578 0-2.882-.57-3.914-1.71-1.023-1.165-1.535-2.618-1.535-4.36 0-1.711.512-3.137 1.535-4.278 1.024-1.14 2.305-1.71 3.844-1.71 1.328 0 2.52.546 3.574 1.64v-1.324zm-6.257 5.672c0 1.094.292 1.984.878 2.672.602.695 1.36 1.043 2.274 1.043.976 0 1.766-.336 2.367-1.008.602-.696.902-1.578.902-2.649 0-1.07-.3-1.953-.902-2.648-.601-.68-1.383-1.02-2.344-1.02-.906 0-1.664.344-2.273 1.032-.602.695-.902 1.554-.902 2.578z" fill="#fff" fill-opacity=".75"/><path d="M4.42 66.91V86H.257V66.91H4.42zm7.467 0V86H7.724V66.91h4.163zm7.17 13.156c0 .383.068.744.206 1.081.138.322.322.606.552.851.245.245.53.437.851.575.337.138.698.207 1.081.207a2.6 2.6 0 001.035-.207c.337-.138.621-.33.851-.575.245-.245.437-.529.575-.851.154-.322.23-.667.23-1.035 0-.368-.076-.713-.23-1.035a2.628 2.628 0 00-.575-.874 2.387 2.387 0 00-.85-.575 2.6 2.6 0 00-1.036-.207c-.383 0-.744.069-1.08.207-.323.138-.607.33-.852.575-.23.245-.414.529-.552.851a2.438 2.438 0 00-.207 1.012zm5.243-5.865h4.186V86H24.3v-1.311c-.89 1.12-2.093 1.679-3.61 1.679a5.988 5.988 0 01-2.37-.46 5.86 5.86 0 01-1.886-1.334 6.262 6.262 0 01-1.265-2.001 7.002 7.002 0 01-.437-2.507c0-.843.146-1.64.437-2.392a6.151 6.151 0 011.22-2.001 5.606 5.606 0 011.862-1.334c.72-.337 1.518-.506 2.392-.506 1.472 0 2.691.514 3.657 1.541v-1.173zm7.48 0h4.162v1.449c1.135-1.089 2.407-1.633 3.818-1.633 1.748 0 3.082.736 4.002 2.208.935-1.487 2.27-2.231 4.002-2.231.552 0 1.073.084 1.564.253.49.153.912.406 1.265.759.353.337.629.782.828 1.334.215.552.322 1.219.322 2.001V86H47.58v-5.819c0-.598-.046-1.089-.138-1.472-.077-.383-.2-.682-.368-.897a1.155 1.155 0 00-.552-.437 2.035 2.035 0 00-.69-.115c-1.334 0-2 .974-2 2.921V86h-4.164v-5.819c0-.598-.038-1.089-.115-1.472-.076-.399-.191-.713-.345-.943a1.007 1.007 0 00-.552-.46 2.159 2.159 0 00-.805-.138c-.26 0-.506.038-.736.115-.23.077-.437.23-.62.46-.17.215-.307.521-.415.92-.092.383-.138.89-.138 1.518V86H31.78V74.201zm27.143 5.865c0 .383.07.744.207 1.081.139.322.322.606.552.851.246.245.53.437.851.575.338.138.698.207 1.081.207a2.6 2.6 0 001.036-.207c.337-.138.62-.33.85-.575.246-.245.438-.529.576-.851.153-.322.23-.667.23-1.035 0-.368-.077-.713-.23-1.035a2.628 2.628 0 00-.575-.874 2.387 2.387 0 00-.851-.575 2.6 2.6 0 00-1.035-.207c-.384 0-.744.069-1.082.207-.322.138-.605.33-.85.575-.23.245-.414.529-.553.851a2.438 2.438 0 00-.207 1.012zm5.245-5.865h4.185V86h-4.185v-1.311c-.89 1.12-2.094 1.679-3.612 1.679a5.987 5.987 0 01-2.368-.46 5.86 5.86 0 01-1.887-1.334 6.26 6.26 0 01-1.265-2.001 7 7 0 01-.437-2.507c0-.843.146-1.64.438-2.392a6.15 6.15 0 011.218-2.001 5.606 5.606 0 011.863-1.334c.721-.337 1.518-.506 2.392-.506 1.473 0 2.692.514 3.658 1.541v-1.173zm11.342 5.865c0 .383.07.744.207 1.081.138.322.322.606.552.851.246.245.53.437.851.575.338.138.698.207 1.081.207a2.6 2.6 0 001.035-.207c.338-.138.621-.33.851-.575.246-.245.437-.529.575-.851.154-.322.23-.667.23-1.035 0-.368-.076-.713-.23-1.035a2.628 2.628 0 00-.575-.874 2.387 2.387 0 00-.85-.575 2.6 2.6 0 00-1.036-.207c-.368 0-.72.069-1.058.207-.322.138-.605.33-.85.575a3.32 3.32 0 00-.576.851 2.438 2.438 0 00-.207 1.012zm5.244-13.156h4.186V86h-4.186v-1.311c-.889 1.12-2.093 1.679-3.61 1.679a5.741 5.741 0 01-4.256-1.817 6.262 6.262 0 01-1.265-2.001 6.936 6.936 0 01-.437-2.484c0-.843.138-1.64.414-2.392a6.151 6.151 0 011.22-2.001 5.606 5.606 0 011.862-1.334 5.727 5.727 0 012.415-.506c1.472 0 2.691.514 3.657 1.541V66.91zm11.343 13.156c0 .383.07.744.207 1.081.138.322.322.606.552.851.246.245.53.437.851.575.338.138.698.207 1.081.207a2.6 2.6 0 001.035-.207c.338-.138.621-.33.851-.575.246-.245.437-.529.575-.851.154-.322.23-.667.23-1.035 0-.368-.076-.713-.23-1.035a2.628 2.628 0 00-.575-.874 2.387 2.387 0 00-.85-.575 2.6 2.6 0 00-1.036-.207c-.383 0-.743.069-1.08.207-.323.138-.606.33-.852.575-.23.245-.414.529-.552.851a2.438 2.438 0 00-.207 1.012zm5.244-5.865h4.186V86h-4.186v-1.311c-.889 1.12-2.093 1.679-3.61 1.679a5.987 5.987 0 01-2.37-.46 5.86 5.86 0 01-1.886-1.334 6.26 6.26 0 01-1.265-2.001 7 7 0 01-.437-2.507c0-.843.146-1.64.437-2.392a6.15 6.15 0 011.22-2.001 5.606 5.606 0 011.862-1.334c.721-.337 1.518-.506 2.392-.506 1.472 0 2.691.514 3.657 1.541v-1.173zm15.299 3.036c-.766-.399-1.518-.598-2.254-.598-.383 0-.697.077-.943.23a.712.712 0 00-.345.621c0 .138.016.253.046.345a.76.76 0 00.253.23c.138.077.33.146.575.207.261.061.598.138 1.012.23 1.15.23 2.009.644 2.576 1.242.568.583.851 1.334.851 2.254 0 .69-.138 1.311-.414 1.863a4.066 4.066 0 01-1.15 1.403c-.49.368-1.081.652-1.771.851a7.636 7.636 0 01-2.277.322c-1.594 0-3.166-.452-4.715-1.357l1.518-2.944c1.166.797 2.27 1.196 3.312 1.196.384 0 .698-.084.943-.253.246-.169.368-.383.368-.644a.829.829 0 00-.069-.368.487.487 0 00-.23-.276c-.122-.092-.306-.169-.552-.23a7.92 7.92 0 00-.92-.23c-1.288-.26-2.192-.644-2.714-1.15-.506-.521-.759-1.234-.759-2.139 0-.66.123-1.25.368-1.771a3.673 3.673 0 011.058-1.357 4.973 4.973 0 011.656-.851c.66-.2 1.388-.299 2.185-.299 1.304 0 2.569.253 3.795.759l-1.403 2.714zm4.904 7.505c0-.42.154-.782.461-1.09.307-.306.674-.46 1.1-.46.427 0 .794.154 1.101.46.307.308.46.675.46 1.101 0 .435-.153.805-.46 1.112-.3.3-.666.45-1.101.45-.441 0-.812-.15-1.112-.45a1.525 1.525 0 01-.449-1.123zm5.258 0c0-.42.153-.782.46-1.09.307-.306.674-.46 1.101-.46.427 0 .794.154 1.101.46.306.308.46.675.46 1.101 0 .435-.154.805-.46 1.112-.3.3-.667.45-1.101.45a1.51 1.51 0 01-1.112-.45 1.525 1.525 0 01-.449-1.123zm5.258 0c0-.42.153-.782.46-1.09.307-.306.674-.46 1.101-.46.426 0 .793.154 1.1.46.307.308.461.675.461 1.101 0 .435-.154.805-.461 1.112-.299.3-.666.45-1.1.45a1.51 1.51 0 01-1.112-.45c-.3-.3-.449-.674-.449-1.123z" fill="#fff"/></svg>