<svg width="366" height="39" viewBox="0 0 366 39" fill="none" xmlns="http://www.w3.org/2000/svg"><path d="M.025 28.086c0-.638.233-1.19.7-1.658a2.286 2.286 0 011.675-.7c.65 0 1.208.233 1.675.7.467.467.7 1.026.7 1.675 0 .66-.233 1.225-.7 1.692a2.277 2.277 0 01-1.675.683c-.672 0-1.236-.227-1.692-.683-.455-.456-.683-1.026-.683-1.71zm8.35 0c0-.638.234-1.19.701-1.658a2.286 2.286 0 011.675-.7c.65 0 1.208.233 1.675.7.467.467.7 1.026.7 1.675 0 .66-.233 1.225-.7 1.692a2.277 2.277 0 01-1.675.683c-.672 0-1.236-.227-1.692-.683-.455-.456-.683-1.026-.683-1.71zm8.352 0c0-.638.233-1.19.7-1.658a2.286 2.286 0 011.675-.7c.65 0 1.208.233 1.675.7.467.467.7 1.026.7 1.675 0 .66-.233 1.225-.7 1.692a2.277 2.277 0 01-1.675.683c-.672 0-1.236-.227-1.692-.683-.456-.456-.683-1.026-.683-1.71zm7.495-16.041h6.335v2.205c1.727-1.657 3.664-2.485 5.81-2.485 2.66 0 4.69 1.12 6.09 3.36 1.424-2.263 3.454-3.395 6.09-3.395.84 0 1.634.128 2.38.385a4.63 4.63 0 011.925 1.155c.537.513.957 1.19 1.26 2.03.327.84.49 1.855.49 3.045V30h-6.335v-8.855c0-.91-.07-1.657-.21-2.24-.116-.583-.303-1.038-.56-1.365-.233-.327-.513-.548-.84-.665a3.098 3.098 0 00-1.05-.175c-2.03 0-3.045 1.482-3.045 4.445V30h-6.335v-8.855c0-.91-.058-1.657-.175-2.24-.116-.607-.291-1.085-.525-1.435-.21-.35-.49-.583-.84-.7-.35-.14-.758-.21-1.225-.21-.396 0-.77.058-1.12.175-.35.117-.665.35-.945.7-.256.327-.466.793-.63 1.4-.14.583-.21 1.353-.21 2.31V30h-6.335V12.045zm47.852 6.37c-.21-.887-.642-1.598-1.295-2.135-.653-.537-1.447-.805-2.38-.805-.98 0-1.785.257-2.415.77-.607.513-.992 1.237-1.155 2.17h7.245zm-7.42 3.675c0 2.73 1.283 4.095 3.85 4.095 1.377 0 2.415-.56 3.115-1.68h6.125c-1.237 4.107-4.328 6.16-9.275 6.16-1.517 0-2.905-.222-4.165-.665-1.26-.467-2.345-1.12-3.255-1.96a8.771 8.771 0 01-2.065-3.01c-.49-1.167-.735-2.473-.735-3.92 0-1.493.233-2.835.7-4.025.467-1.213 1.132-2.24 1.995-3.08.863-.84 1.902-1.482 3.115-1.925 1.237-.467 2.625-.7 4.165-.7 1.517 0 2.882.233 4.095.7 1.213.443 2.24 1.097 3.08 1.96.84.863 1.482 1.925 1.925 3.185.443 1.237.665 2.637.665 4.2v.665H64.654zM81.61 12.045h6.335v2.275c.863-1.05 1.738-1.75 2.625-2.1.887-.373 1.925-.56 3.115-.56 1.26 0 2.333.21 3.22.63.91.397 1.68.968 2.31 1.715a4.981 4.981 0 011.05 2.03c.187.747.28 1.598.28 2.555V30H94.21v-9.065c0-.887-.07-1.598-.21-2.135-.117-.56-.338-1.003-.665-1.33a2.4 2.4 0 00-.945-.595 3.518 3.518 0 00-1.12-.175c-1.073 0-1.902.327-2.485.98-.56.63-.84 1.54-.84 2.73V30H81.61V12.045zm35.142 4.62c-1.166-.607-2.31-.91-3.43-.91-.583 0-1.061.117-1.435.35-.35.233-.525.548-.525.945 0 .21.024.385.07.525.07.117.199.233.385.35.21.117.502.222.875.315.397.093.91.21 1.54.35 1.75.35 3.057.98 3.92 1.89.864.887 1.295 2.03 1.295 3.43 0 1.05-.21 1.995-.63 2.835a6.19 6.19 0 01-1.75 2.135c-.746.56-1.645.992-2.695 1.295-1.05.327-2.205.49-3.465.49-2.426 0-4.818-.688-7.175-2.065l2.31-4.48c1.774 1.213 3.454 1.82 5.04 1.82.584 0 1.062-.128 1.435-.385.374-.257.56-.583.56-.98 0-.233-.035-.42-.105-.56-.046-.163-.163-.303-.35-.42-.186-.14-.466-.257-.84-.35-.35-.117-.816-.233-1.4-.35-1.96-.397-3.336-.98-4.13-1.75-.77-.793-1.155-1.878-1.155-3.255 0-1.003.187-1.902.56-2.695a5.586 5.586 0 011.61-2.065c.7-.56 1.54-.992 2.52-1.295 1.004-.303 2.112-.455 3.325-.455 1.984 0 3.909.385 5.775 1.155l-2.135 4.13zm11.788 4.305c0 .583.105 1.132.315 1.645.21.49.49.922.84 1.295.373.373.805.665 1.295.875.513.21 1.062.315 1.645.315.56 0 1.085-.105 1.575-.315.513-.21.945-.502 1.295-.875a4.1 4.1 0 00.875-1.295c.233-.49.35-1.015.35-1.575s-.117-1.085-.35-1.575a4.003 4.003 0 00-.875-1.33 3.635 3.635 0 00-1.295-.875 3.956 3.956 0 00-1.575-.315c-.583 0-1.132.105-1.645.315-.49.21-.922.502-1.295.875-.35.373-.63.805-.84 1.295a3.71 3.71 0 00-.315 1.54zm7.98-8.925h6.37V30h-6.37v-1.995c-1.353 1.703-3.185 2.555-5.495 2.555-1.307 0-2.508-.233-3.605-.7a8.918 8.918 0 01-2.87-2.03 9.53 9.53 0 01-1.925-3.045c-.443-1.167-.665-2.438-.665-3.815 0-1.283.222-2.497.665-3.64a9.361 9.361 0 011.855-3.045 8.524 8.524 0 012.835-2.03c1.097-.513 2.31-.77 3.64-.77 2.24 0 4.095.782 5.565 2.345v-1.785zm17.665 0V38.96h-6.335V12.045h6.335zM147.43 5.15c0-.49.094-.945.28-1.365.187-.443.444-.828.77-1.155.327-.327.7-.583 1.12-.77.444-.187.91-.28 1.4-.28.49 0 .945.093 1.365.28.444.187.829.443 1.155.77.327.327.584.712.77 1.155.187.42.28.875.28 1.365s-.093.957-.28 1.4c-.186.42-.443.793-.77 1.12a3.564 3.564 0 01-1.155.77c-.42.187-.875.28-1.365.28s-.956-.093-1.4-.28a3.696 3.696 0 01-1.12-.77 3.71 3.71 0 01-.77-1.12 3.583 3.583 0 01-.28-1.4zm24.209 13.265c-.21-.887-.641-1.598-1.295-2.135-.653-.537-1.446-.805-2.38-.805-.98 0-1.785.257-2.415.77-.606.513-.991 1.237-1.155 2.17h7.245zm-7.42 3.675c0 2.73 1.284 4.095 3.85 4.095 1.377 0 2.415-.56 3.115-1.68h6.125c-1.236 4.107-4.328 6.16-9.275 6.16-1.516 0-2.905-.222-4.165-.665-1.26-.467-2.345-1.12-3.255-1.96a8.78 8.78 0 01-2.065-3.01c-.49-1.167-.735-2.473-.735-3.92 0-1.493.234-2.835.7-4.025.467-1.213 1.132-2.24 1.995-3.08.864-.84 1.902-1.482 3.115-1.925 1.237-.467 2.625-.7 4.165-.7 1.517 0 2.882.233 4.095.7 1.214.443 2.24 1.097 3.08 1.96.84.863 1.482 1.925 1.925 3.185.444 1.237.665 2.637.665 4.2v.665h-13.335zm28.856-5.425c-1.166-.607-2.31-.91-3.43-.91-.583 0-1.061.117-1.435.35-.35.233-.525.548-.525.945 0 .21.024.385.07.525.07.117.199.233.385.35.21.117.502.222.875.315.397.093.91.21 1.54.35 1.75.35 3.057.98 3.92 1.89.864.887 1.295 2.03 1.295 3.43 0 1.05-.21 1.995-.63 2.835a6.19 6.19 0 01-1.75 2.135c-.746.56-1.645.992-2.695 1.295-1.05.327-2.205.49-3.465.49-2.426 0-4.818-.688-7.175-2.065l2.31-4.48c1.774 1.213 3.454 1.82 5.04 1.82.584 0 1.062-.128 1.435-.385.374-.257.56-.583.56-.98 0-.233-.035-.42-.105-.56-.046-.163-.163-.303-.35-.42-.186-.14-.466-.257-.84-.35-.35-.117-.816-.233-1.4-.35-1.96-.397-3.336-.98-4.13-1.75-.77-.793-1.155-1.878-1.155-3.255 0-1.003.187-1.902.56-2.695a5.586 5.586 0 011.61-2.065c.7-.56 1.54-.992 2.52-1.295 1.004-.303 2.112-.455 3.325-.455 1.984 0 3.909.385 5.775 1.155l-2.135 4.13zm23.683 4.305c0 .583.105 1.132.315 1.645.21.49.49.922.84 1.295.373.373.805.665 1.295.875.513.21 1.061.315 1.645.315.56 0 1.085-.105 1.575-.315.513-.21.945-.502 1.295-.875a4.1 4.1 0 00.875-1.295c.233-.49.35-1.015.35-1.575s-.117-1.085-.35-1.575a4.003 4.003 0 00-.875-1.33 3.635 3.635 0 00-1.295-.875 3.956 3.956 0 00-1.575-.315 4.21 4.21 0 00-1.61.315c-.49.21-.922.502-1.295.875-.35.373-.642.805-.875 1.295a3.71 3.71 0 00-.315 1.54zm7.98-20.02h6.37V30h-6.37v-1.995c-1.354 1.703-3.185 2.555-5.495 2.555-1.307 0-2.509-.245-3.605-.735a8.908 8.908 0 01-2.87-2.03 9.513 9.513 0 01-1.925-3.045c-.444-1.167-.665-2.427-.665-3.78 0-1.283.21-2.497.63-3.64a9.344 9.344 0 011.855-3.045 8.524 8.524 0 012.835-2.03c1.12-.513 2.345-.77 3.675-.77 2.24 0 4.095.782 5.565 2.345V.95zm23.806 17.465c-.21-.887-.642-1.598-1.295-2.135-.654-.537-1.447-.805-2.38-.805-.98 0-1.785.257-2.415.77-.607.513-.992 1.237-1.155 2.17h7.245zm-7.42 3.675c0 2.73 1.283 4.095 3.85 4.095 1.376 0 2.415-.56 3.115-1.68h6.125c-1.237 4.107-4.329 6.16-9.275 6.16-1.517 0-2.905-.222-4.165-.665-1.26-.467-2.345-1.12-3.255-1.96a8.767 8.767 0 01-2.065-3.01c-.49-1.167-.735-2.473-.735-3.92 0-1.493.233-2.835.7-4.025.466-1.213 1.131-2.24 1.995-3.08.863-.84 1.901-1.482 3.115-1.925 1.236-.467 2.625-.7 4.165-.7 1.516 0 2.881.233 4.095.7 1.213.443 2.24 1.097 3.08 1.96.84.863 1.481 1.925 1.925 3.185.443 1.237.665 2.637.665 4.2v.665h-13.335zm35.92-4.76V30h-6.335V17.33h-2.1v-5.285h2.1v-5.39h6.335v5.39h3.605v5.285h-3.605zm19.454 1.085c-.21-.887-.642-1.598-1.295-2.135-.654-.537-1.447-.805-2.38-.805-.98 0-1.785.257-2.415.77-.607.513-.992 1.237-1.155 2.17h7.245zm-7.42 3.675c0 2.73 1.283 4.095 3.85 4.095 1.376 0 2.415-.56 3.115-1.68h6.125c-1.237 4.107-4.329 6.16-9.275 6.16-1.517 0-2.905-.222-4.165-.665-1.26-.467-2.345-1.12-3.255-1.96a8.767 8.767 0 01-2.065-3.01c-.49-1.167-.735-2.473-.735-3.92 0-1.493.233-2.835.7-4.025.466-1.213 1.131-2.24 1.995-3.08.863-.84 1.901-1.482 3.115-1.925 1.236-.467 2.625-.7 4.165-.7 1.516 0 2.881.233 4.095.7 1.213.443 2.24 1.097 3.08 1.96.84.863 1.481 1.925 1.925 3.185.443 1.237.665 2.637.665 4.2v.665h-13.335zm22.789-1.82l-7.28-8.225h8.26l3.08 3.71 3.15-3.71h8.26l-7.455 8.225 8.995 9.73h-8.4l-4.585-5.32-4.62 5.32h-8.365l8.96-9.73zm26.256-2.94V30h-6.335V17.33h-2.1v-5.285h2.1v-5.39h6.335v5.39h3.605v5.285h-3.605zm12.28 3.605c0 .607.105 1.167.315 1.68.233.49.525.922.875 1.295.373.373.805.665 1.295.875a4.21 4.21 0 001.61.315c.56 0 1.085-.105 1.575-.315.513-.21.945-.502 1.295-.875a4.1 4.1 0 00.875-1.295c.233-.513.35-1.062.35-1.645 0-.56-.117-1.085-.35-1.575a4.003 4.003 0 00-.875-1.33 3.635 3.635 0 00-1.295-.875 3.956 3.956 0 00-1.575-.315 4.21 4.21 0 00-1.61.315c-.49.21-.922.502-1.295.875-.35.373-.642.805-.875 1.295a3.956 3.956 0 00-.315 1.575zm-6.685-.07c0-1.33.268-2.567.805-3.71a8.907 8.907 0 012.24-3.01c.956-.863 2.088-1.54 3.395-2.03 1.33-.49 2.776-.735 4.34-.735 1.54 0 2.963.245 4.27.735 1.33.467 2.473 1.132 3.43 1.995a8.639 8.639 0 012.275 3.045c.536 1.167.805 2.462.805 3.885 0 1.423-.28 2.73-.84 3.92a9.305 9.305 0 01-2.24 3.045c-.957.84-2.112 1.493-3.465 1.96-1.33.467-2.777.7-4.34.7-1.54 0-2.964-.233-4.27-.7-1.307-.467-2.439-1.132-3.395-1.995a9.405 9.405 0 01-2.205-3.08c-.537-1.213-.805-2.555-.805-4.025z" fill="#fff"/></svg>