<svg width="202" height="34" viewBox="0 0 202 34" fill="none" xmlns="http://www.w3.org/2000/svg"><path d="M8.087 22.899c0 .676.117 1.3.351 1.872.26.546.585 1.027.975 1.443.416.416.897.741 1.443.975.572.234 1.17.351 1.794.351.624 0 1.209-.117 1.755-.351a4.046 4.046 0 001.443-.975c.416-.416.741-.897.975-1.443.26-.572.39-1.183.39-1.833a4.03 4.03 0 00-.39-1.755 4.455 4.455 0 00-.975-1.482 4.046 4.046 0 00-1.443-.975 4.408 4.408 0 00-1.755-.351c-.624 0-1.222.117-1.794.351a4.563 4.563 0 00-1.443.975c-.39.416-.715.897-.975 1.443a4.408 4.408 0 00-.351 1.755zm-7.449-.078c0-1.482.299-2.86.897-4.134a9.94 9.94 0 012.496-3.354c1.066-.962 2.327-1.716 3.783-2.262 1.482-.546 3.094-.819 4.836-.819 1.716 0 3.302.273 4.758.819 1.482.52 2.756 1.261 3.822 2.223a9.622 9.622 0 012.535 3.393c.598 1.3.897 2.743.897 4.329 0 1.586-.312 3.042-.936 4.368a10.353 10.353 0 01-2.496 3.393c-1.066.936-2.353 1.664-3.861 2.184-1.482.52-3.094.78-4.836.78-1.716 0-3.302-.26-4.758-.78S5.058 31.7 3.992 30.738a10.502 10.502 0 01-2.457-3.432c-.598-1.352-.897-2.847-.897-4.485zm55.967-2.73c-.234-.988-.715-1.781-1.444-2.379-.727-.598-1.611-.897-2.651-.897-1.093 0-1.99.286-2.691.858-.677.572-1.105 1.378-1.288 2.418h8.074zm-8.268 4.095c0 3.042 1.43 4.563 4.29 4.563 1.533 0 2.69-.624 3.47-1.872h6.825c-1.377 4.576-4.822 6.864-10.334 6.864-1.69 0-3.238-.247-4.642-.741-1.404-.52-2.612-1.248-3.627-2.184a9.774 9.774 0 01-2.3-3.354c-.547-1.3-.82-2.756-.82-4.368 0-1.664.26-3.159.78-4.485.52-1.352 1.261-2.496 2.224-3.432.961-.936 2.118-1.651 3.47-2.145 1.378-.52 2.925-.78 4.642-.78 1.69 0 3.21.26 4.563.78 1.352.494 2.495 1.222 3.431 2.184.937.962 1.652 2.145 2.146 3.549.494 1.378.74 2.938.74 4.68v.741H48.338zM67.23 12.993h7.059v2.457c1.923-1.846 4.081-2.769 6.473-2.769 2.965 0 5.227 1.248 6.786 3.744 1.586-2.522 3.848-3.783 6.786-3.783.937 0 1.82.143 2.653.429.832.26 1.546.689 2.144 1.287.599.572 1.067 1.326 1.405 2.262.364.936.546 2.067.546 3.393V33h-7.06v-9.867c0-1.014-.078-1.846-.233-2.496-.13-.65-.339-1.157-.625-1.521-.26-.364-.572-.611-.936-.741a3.453 3.453 0 00-1.17-.195c-2.261 0-3.392 1.651-3.392 4.953V33h-7.06v-9.867c0-1.014-.064-1.846-.195-2.496-.13-.676-.325-1.209-.585-1.599-.233-.39-.546-.65-.936-.78-.39-.156-.845-.234-1.365-.234-.441 0-.858.065-1.248.195s-.74.39-1.053.78c-.285.364-.52.884-.701 1.56-.156.65-.234 1.508-.234 2.574V33h-7.06V12.993zm45.247 9.945c0 .65.117 1.261.351 1.833.234.546.546 1.027.936 1.443.416.416.897.741 1.443.975a4.794 4.794 0 001.833.351c.624 0 1.209-.117 1.755-.351a4.046 4.046 0 001.443-.975c.416-.416.741-.897.975-1.443a4.03 4.03 0 00.39-1.755 4.03 4.03 0 00-.39-1.755 4.455 4.455 0 00-.975-1.482 4.046 4.046 0 00-1.443-.975 4.408 4.408 0 00-1.755-.351c-.65 0-1.261.117-1.833.351a4.563 4.563 0 00-1.443.975c-.39.416-.702.897-.936 1.443a4.134 4.134 0 00-.351 1.716zm8.892-9.945h7.098V33h-7.098v-2.223c-1.508 1.898-3.549 2.847-6.123 2.847-1.456 0-2.795-.26-4.017-.78a9.937 9.937 0 01-3.198-2.262 10.62 10.62 0 01-2.145-3.393c-.494-1.3-.741-2.717-.741-4.251 0-1.43.247-2.782.741-4.056.494-1.3 1.183-2.431 2.067-3.393a9.505 9.505 0 013.159-2.262c1.222-.572 2.574-.858 4.056-.858 2.496 0 4.563.871 6.201 2.613v-1.989zm18.961 0V33h-7.059V12.993h7.059zm-7.527-7.683c0-.546.104-1.053.312-1.521.208-.494.494-.923.858-1.287.364-.364.78-.65 1.248-.858a3.98 3.98 0 011.56-.312c.546 0 1.053.104 1.521.312.494.208.923.494 1.287.858.364.364.65.793.858 1.287.208.468.312.975.312 1.521a3.98 3.98 0 01-.312 1.56 4.113 4.113 0 01-.858 1.248c-.364.364-.793.65-1.287.858a3.702 3.702 0 01-1.521.312 3.98 3.98 0 01-1.56-.312 4.113 4.113 0 01-1.248-.858 4.113 4.113 0 01-.858-1.248 3.98 3.98 0 01-.312-1.56zM152.213.63V33h-7.059V.63h7.059zm18.084 17.511c-1.3-.676-2.574-1.014-3.822-1.014-.65 0-1.183.13-1.599.39-.39.26-.585.611-.585 1.053 0 .234.026.429.078.585.078.13.221.26.429.39.234.13.559.247.975.351.442.104 1.014.234 1.716.39 1.95.39 3.406 1.092 4.368 2.106.962.988 1.443 2.262 1.443 3.822 0 1.17-.234 2.223-.702 3.159a6.902 6.902 0 01-1.95 2.379c-.832.624-1.833 1.105-3.003 1.443-1.17.364-2.457.546-3.861.546-2.704 0-5.369-.767-7.995-2.301l2.574-4.992c1.976 1.352 3.848 2.028 5.616 2.028.65 0 1.183-.143 1.599-.429.416-.286.624-.65.624-1.092 0-.26-.039-.468-.117-.624-.052-.182-.182-.338-.39-.468-.208-.156-.52-.286-.936-.39-.39-.13-.91-.26-1.56-.39-2.184-.442-3.718-1.092-4.602-1.95-.858-.884-1.287-2.093-1.287-3.627 0-1.118.208-2.119.624-3.003a6.217 6.217 0 011.794-2.301c.78-.624 1.716-1.105 2.808-1.443 1.118-.338 2.353-.507 3.705-.507 2.21 0 4.355.429 6.435 1.287l-2.379 4.602zm7.536 12.726c0-.71.26-1.326.78-1.847a2.548 2.548 0 011.866-.78c.724 0 1.346.26 1.867.78.52.52.78 1.143.78 1.866a2.57 2.57 0 01-.78 1.886c-.508.507-1.13.761-1.867.761-.749 0-1.377-.254-1.885-.761-.508-.508-.761-1.143-.761-1.905zm9.305 0c0-.71.26-1.326.78-1.847a2.549 2.549 0 011.867-.78c.723 0 1.345.26 1.866.78.52.52.781 1.143.781 1.866 0 .737-.261 1.365-.781 1.886-.508.507-1.13.761-1.866.761-.749 0-1.378-.254-1.886-.761-.507-.508-.761-1.143-.761-1.905zm9.305 0c0-.71.26-1.326.781-1.847.52-.52 1.142-.78 1.866-.78.723 0 1.346.26 1.866.78.521.52.781 1.143.781 1.866 0 .737-.26 1.365-.781 1.886-.508.507-1.13.761-1.866.761-.749 0-1.378-.254-1.885-.761-.508-.508-.762-1.143-.762-1.905z" fill="#fff"/></svg>