<svg width="693" height="42" viewBox="0 0 693 42" fill="none" xmlns="http://www.w3.org/2000/svg"><path d="M.284 29.922c0-.693.254-1.293.76-1.8a2.481 2.481 0 011.82-.76c.704 0 1.31.253 1.818.76.507.507.76 1.113.76 1.818 0 .718-.253 1.33-.76 1.837-.495.495-1.101.742-1.819.742-.73 0-1.342-.247-1.837-.742-.494-.494-.742-1.113-.742-1.855zm8.687 0c0-.693.253-1.293.76-1.8a2.481 2.481 0 011.819-.76c.705 0 1.311.253 1.818.76.507.507.76 1.113.76 1.818 0 .718-.253 1.33-.76 1.837-.495.495-1.1.742-1.818.742-.73 0-1.342-.247-1.837-.742-.495-.494-.742-1.113-.742-1.855zm8.686 0c0-.693.254-1.293.761-1.8a2.482 2.482 0 011.818-.76c.706 0 1.312.253 1.819.76.507.507.76 1.113.76 1.818 0 .718-.253 1.33-.76 1.837-.495.495-1.101.742-1.819.742-.73 0-1.342-.247-1.837-.742-.494-.494-.742-1.113-.742-1.855zm21.36 11.912V29.977c-1.658 1.695-3.55 2.543-5.678 2.543-2.437 0-4.46-.897-6.067-2.69-1.62-1.807-2.431-4.064-2.431-6.773 0-2.746.81-5.041 2.43-6.884 1.633-1.83 3.68-2.746 6.142-2.746 2.09 0 3.959.822 5.604 2.468v-1.967h4.193v27.906h-4.193zm-9.909-18.963c0 1.744.47 3.16 1.41 4.25.94 1.112 2.135 1.669 3.582 1.669 1.534 0 2.777-.532 3.73-1.596.964-1.076 1.447-2.474 1.447-4.193 0-1.695-.477-3.093-1.43-4.193-.952-1.077-2.189-1.615-3.71-1.615-1.435 0-2.635.545-3.6 1.633-.952 1.101-1.428 2.45-1.428 4.045zM53.1 13.928V24.3c0 2.993 1.181 4.49 3.544 4.49 2.362 0 3.544-1.497 3.544-4.49V13.928h4.174v10.465c0 1.447-.179 2.696-.538 3.748-.346.94-.946 1.787-1.8 2.542-1.41 1.224-3.203 1.837-5.38 1.837-2.165 0-3.953-.613-5.363-1.837-.865-.755-1.478-1.602-1.837-2.542-.346-.841-.52-2.09-.52-3.748V13.928H53.1zm32.99 10.02H73.139c.111 1.484.594 2.665 1.447 3.543.854.866 1.948 1.299 3.284 1.299 1.04 0 1.899-.247 2.58-.742.667-.495 1.428-1.41 2.282-2.746l3.525 1.967c-.544.927-1.12 1.725-1.726 2.393a9.558 9.558 0 01-1.948 1.633 7.97 7.97 0 01-2.245.928 10.93 10.93 0 01-2.616.297c-2.697 0-4.861-.866-6.494-2.598-1.633-1.744-2.45-4.057-2.45-6.94 0-2.857.792-5.17 2.375-6.939 1.596-1.744 3.711-2.616 6.346-2.616 2.66 0 4.763.847 6.309 2.542 1.534 1.682 2.3 4.014 2.3 6.995l-.018.983zm-4.286-3.415c-.582-2.226-1.986-3.34-4.212-3.34-.507 0-.983.08-1.429.242a3.943 3.943 0 00-1.224.668c-.36.284-.668.63-.928 1.039-.26.408-.458.872-.594 1.391h8.387zm24.9-2.709V32h-4.175V17.824h-1.781v-3.896h1.781V7.304h4.175v6.624h3.247v3.896h-3.247zm22.878 6.123h-12.951c.111 1.485.594 2.666 1.447 3.544.854.866 1.948 1.299 3.284 1.299 1.039 0 1.899-.247 2.58-.742.667-.495 1.428-1.41 2.282-2.746l3.525 1.967c-.544.927-1.119 1.725-1.725 2.393a9.575 9.575 0 01-1.949 1.633c-.692.42-1.441.73-2.245.928-.804.198-1.676.297-2.616.297-2.697 0-4.861-.866-6.494-2.598-1.633-1.744-2.449-4.057-2.449-6.94 0-2.857.791-5.17 2.375-6.939 1.595-1.744 3.711-2.616 6.345-2.616 2.66 0 4.763.847 6.309 2.542 1.534 1.682 2.301 4.014 2.301 6.995l-.019.983zm-4.286-3.414c-.581-2.226-1.985-3.34-4.212-3.34-.507 0-.983.08-1.429.242a3.942 3.942 0 00-1.224.668 4.17 4.17 0 00-.928 1.039c-.26.408-.458.872-.594 1.391h8.387zm24.771 21.301h-4.175V13.928h4.175v1.966c1.645-1.645 3.513-2.467 5.603-2.467 2.486 0 4.534.915 6.142 2.746 1.632 1.818 2.449 4.113 2.449 6.884 0 2.709-.81 4.966-2.431 6.772-1.608 1.794-3.637 2.69-6.086 2.69-2.115 0-4.008-.847-5.677-2.541v11.856zm9.926-18.759c0-1.732-.47-3.142-1.41-4.23-.952-1.101-2.152-1.652-3.599-1.652-1.534 0-2.777.532-3.73 1.596-.952 1.064-1.429 2.462-1.429 4.193 0 1.695.477 3.093 1.429 4.194.94 1.076 2.177 1.614 3.711 1.614 1.447 0 2.641-.544 3.581-1.633.965-1.088 1.447-2.449 1.447-4.082zm12.859-9.147V32h-4.175V13.928h4.175zm-4.806-7.515c0-.73.266-1.36.798-1.892a2.607 2.607 0 011.911-.798c.755 0 1.398.266 1.93.798.532.519.798 1.156.798 1.91 0 .755-.266 1.398-.798 1.93a2.57 2.57 0 01-1.911.798 2.629 2.629 0 01-1.93-.798c-.532-.532-.798-1.181-.798-1.948zM191.462.661h4.193V32h-4.193v-1.893c-1.645 1.608-3.507 2.413-5.585 2.413-2.474 0-4.527-.904-6.16-2.71-1.621-1.843-2.431-4.143-2.431-6.902 0-2.696.81-4.948 2.431-6.754 1.608-1.818 3.63-2.727 6.067-2.727 2.116 0 4.008.866 5.678 2.597V.661zm-9.908 22.247c0 1.732.464 3.142 1.391 4.23.953 1.102 2.153 1.652 3.6 1.652 1.546 0 2.796-.532 3.748-1.596.953-1.1 1.429-2.498 1.429-4.193 0-1.695-.476-3.093-1.429-4.193-.952-1.077-2.189-1.615-3.711-1.615-1.435 0-2.635.545-3.599 1.633-.953 1.101-1.429 2.462-1.429 4.082zm32.693-8.98h4.194V32h-4.194v-1.893c-1.719 1.608-3.568 2.413-5.548 2.413-2.498 0-4.564-.904-6.197-2.71-1.62-1.843-2.431-4.143-2.431-6.902 0-2.709.811-4.966 2.431-6.772 1.621-1.806 3.649-2.71 6.086-2.71 2.103 0 3.989.867 5.659 2.598v-2.096zm-9.908 8.98c0 1.732.464 3.142 1.392 4.23.952 1.102 2.152 1.652 3.599 1.652 1.546 0 2.796-.532 3.748-1.596.953-1.1 1.429-2.498 1.429-4.193 0-1.695-.476-3.093-1.429-4.193-.952-1.077-2.189-1.615-3.711-1.615-1.435 0-2.634.545-3.599 1.633-.953 1.101-1.429 2.462-1.429 4.082zm19.371-8.98h4.193v1.67c1.46-1.448 3.105-2.171 4.936-2.171 2.103 0 3.742.662 4.917 1.985 1.014 1.126 1.521 2.963 1.521 5.51V32h-4.193V21.906c0-1.781-.247-3.012-.742-3.692-.483-.693-1.361-1.04-2.635-1.04-1.385 0-2.369.459-2.95 1.374-.569.903-.854 2.48-.854 4.731V32h-4.193V13.928zm36.887 3.896V32h-4.175V17.824h-1.781v-3.896h1.781V7.304h4.175v6.624h3.247v3.896h-3.247zm10.261-3.896V24.3c0 2.993 1.181 4.49 3.543 4.49 2.363 0 3.544-1.497 3.544-4.49V13.928h4.175v10.465c0 1.447-.179 2.696-.538 3.748-.346.94-.946 1.787-1.8 2.542-1.41 1.224-3.203 1.837-5.381 1.837-2.164 0-3.952-.613-5.362-1.837-.866-.755-1.478-1.602-1.837-2.542-.346-.841-.519-2.09-.519-3.748V13.928h4.175zm28.258 0h4.194v1.67c1.459-1.448 3.105-2.171 4.935-2.171 2.103 0 3.742.662 4.917 1.985 1.015 1.126 1.522 2.963 1.522 5.51V32h-4.194V21.906c0-1.781-.247-3.012-.742-3.692-.482-.693-1.361-1.04-2.635-1.04-1.385 0-2.368.459-2.95 1.374-.569.903-.853 2.48-.853 4.731V32h-4.194V13.928zm25.031 0V24.3c0 2.993 1.181 4.49 3.544 4.49 2.362 0 3.543-1.497 3.543-4.49V13.928h4.175v10.465c0 1.447-.179 2.696-.538 3.748-.346.94-.946 1.787-1.8 2.542-1.41 1.224-3.203 1.837-5.38 1.837-2.165 0-3.953-.613-5.363-1.837-.866-.755-1.478-1.602-1.837-2.542-.346-.841-.519-2.09-.519-3.748V13.928h4.175zM334.24 5.02l-6.754 6.124-2.282-1.41 5.103-6.755 3.933 2.041zm6.439 8.907h4.175v1.67c.804-.841 1.49-1.41 2.059-1.707.606-.31 1.367-.464 2.282-.464 2.041 0 3.656.89 4.843 2.672 1.311-1.782 3.086-2.672 5.325-2.672 4.07 0 6.105 2.468 6.105 7.403V32h-4.193V21.962c0-1.732-.211-2.956-.631-3.674-.433-.73-1.145-1.095-2.134-1.095-1.151 0-1.992.433-2.524 1.3-.519.865-.779 2.257-.779 4.174V32h-4.193v-9.982c0-3.217-.928-4.825-2.783-4.825-1.176 0-2.035.44-2.58 1.318-.531.878-.797 2.263-.797 4.156V32h-4.175V13.928zm46.516 10.02h-12.951c.112 1.484.594 2.665 1.448 3.543.853.866 1.948 1.299 3.284 1.299 1.039 0 1.898-.247 2.579-.742.668-.495 1.429-1.41 2.282-2.746l3.525 1.967c-.544.927-1.119 1.725-1.725 2.393a9.57 9.57 0 01-1.948 1.633c-.693.42-1.441.73-2.246.928-.804.198-1.676.297-2.616.297-2.696 0-4.861-.866-6.494-2.598-1.633-1.744-2.449-4.057-2.449-6.94 0-2.857.792-5.17 2.375-6.939 1.596-1.744 3.711-2.616 6.346-2.616 2.659 0 4.762.847 6.308 2.542 1.534 1.682 2.301 4.014 2.301 6.995l-.019.983zm-4.286-3.415c-.581-2.226-1.985-3.34-4.212-3.34-.507 0-.983.08-1.428.242a3.936 3.936 0 00-1.225.668 4.17 4.17 0 00-.928 1.039 4.89 4.89 0 00-.593 1.391h8.386zm8.869-6.605h4.175v1.614c.767-.804 1.448-1.354 2.041-1.651.606-.31 1.324-.464 2.153-.464 1.101 0 2.251.359 3.451 1.076l-1.911 3.822c-.792-.569-1.565-.853-2.32-.853-2.276 0-3.414 1.72-3.414 5.158V32h-4.175V13.928zm13.026 8.906c0-2.61.934-4.83 2.802-6.661 1.867-1.83 4.143-2.746 6.828-2.746 2.696 0 4.985.921 6.865 2.764 1.855 1.844 2.783 4.107 2.783 6.791 0 2.71-.934 4.98-2.802 6.81-1.88 1.818-4.187 2.727-6.921 2.727-2.708 0-4.978-.927-6.809-2.783-1.831-1.83-2.746-4.131-2.746-6.902zm4.267.074c0 1.806.483 3.235 1.448 4.286.989 1.064 2.294 1.596 3.915 1.596 1.633 0 2.938-.526 3.915-1.577.977-1.052 1.466-2.456 1.466-4.212 0-1.757-.489-3.16-1.466-4.212-.99-1.064-2.295-1.596-3.915-1.596-1.596 0-2.889.532-3.878 1.596-.99 1.064-1.485 2.437-1.485 4.12zM453.566.661h4.193V32h-4.193v-1.893c-1.646 1.608-3.507 2.413-5.585 2.413-2.474 0-4.528-.904-6.161-2.71-1.62-1.843-2.43-4.143-2.43-6.902 0-2.696.81-4.948 2.43-6.754 1.609-1.818 3.631-2.727 6.068-2.727 2.115 0 4.008.866 5.678 2.597V.661zm-9.909 22.247c0 1.732.464 3.142 1.392 4.23.952 1.102 2.152 1.652 3.6 1.652 1.546 0 2.795-.532 3.748-1.596.952-1.1 1.428-2.498 1.428-4.193 0-1.695-.476-3.093-1.428-4.193-.953-1.077-2.19-1.615-3.711-1.615-1.435 0-2.635.545-3.6 1.633-.952 1.101-1.429 2.462-1.429 4.082zm35.829 1.04h-12.951c.112 1.484.594 2.665 1.448 3.543.853.866 1.948 1.299 3.284 1.299 1.039 0 1.898-.247 2.579-.742.668-.495 1.429-1.41 2.282-2.746l3.525 1.967c-.544.927-1.119 1.725-1.725 2.393a9.57 9.57 0 01-1.948 1.633c-.693.42-1.441.73-2.246.928-.804.198-1.676.297-2.616.297-2.696 0-4.861-.866-6.494-2.598-1.633-1.744-2.449-4.057-2.449-6.94 0-2.857.792-5.17 2.375-6.939 1.596-1.744 3.711-2.616 6.346-2.616 2.659 0 4.762.847 6.308 2.542 1.534 1.682 2.301 4.014 2.301 6.995l-.019.983zm-4.286-3.415c-.581-2.226-1.985-3.34-4.212-3.34-.507 0-.983.08-1.428.242a3.936 3.936 0 00-1.225.668 4.17 4.17 0 00-.928 1.039 4.89 4.89 0 00-.593 1.391h8.386z" fill="#fff" fill-opacity=".75"/><path d="M494.871 32l4.864-28.652h7.372l5.738 15.276 5.7-15.276h7.372L530.781 32h-7.41l-2.47-16.492L514.137 32h-2.964l-6.422-16.492L502.281 32h-7.41zm53.193-12.578c-.228-.963-.697-1.735-1.406-2.318s-1.571-.874-2.584-.874c-1.064 0-1.938.279-2.622.836-.659.557-1.077 1.343-1.254 2.356h7.866zm-8.056 3.99c0 2.964 1.393 4.446 4.18 4.446 1.495 0 2.622-.608 3.382-1.824h6.65c-1.343 4.459-4.699 6.688-10.07 6.688-1.647 0-3.154-.24-4.522-.722-1.368-.507-2.546-1.216-3.534-2.128a9.519 9.519 0 01-2.242-3.268c-.532-1.267-.798-2.685-.798-4.256 0-1.621.253-3.078.76-4.37.507-1.317 1.229-2.432 2.166-3.344.937-.912 2.065-1.609 3.382-2.09 1.343-.507 2.85-.76 4.522-.76 1.647 0 3.129.253 4.446.76 1.317.481 2.432 1.19 3.344 2.128.912.937 1.609 2.09 2.09 3.458.481 1.343.722 2.863.722 4.56v.722h-14.478zm24.794-1.216c0 .633.114 1.229.342 1.786.228.532.532 1 .912 1.406.405.405.874.722 1.406.95a4.667 4.667 0 001.786.342c.608 0 1.178-.114 1.71-.342a3.946 3.946 0 001.406-.95c.405-.405.722-.874.95-1.406.253-.532.38-1.102.38-1.71 0-.608-.127-1.178-.38-1.71a4.346 4.346 0 00-.95-1.444 3.946 3.946 0 00-1.406-.95 4.295 4.295 0 00-1.71-.342c-.608 0-1.191.114-1.748.342a4.443 4.443 0 00-1.406.95 5.48 5.48 0 00-.95 1.406 4.028 4.028 0 00-.342 1.672zM573.466.46h6.916V32h-6.916v-2.166c-1.47 1.85-3.458 2.774-5.966 2.774-1.419 0-2.724-.266-3.914-.798a9.672 9.672 0 01-3.116-2.204 10.33 10.33 0 01-2.09-3.306c-.482-1.267-.722-2.635-.722-4.104 0-1.393.228-2.71.684-3.952.481-1.267 1.152-2.369 2.014-3.306a9.255 9.255 0 013.078-2.204c1.216-.557 2.546-.836 3.99-.836 2.432 0 4.446.849 6.042 2.546V.46zm18.474 12.046V32h-6.878V12.506h6.878zm-7.334-7.486c0-.532.102-1.026.304-1.482.203-.481.482-.9.836-1.254.355-.355.76-.633 1.216-.836a3.88 3.88 0 011.52-.304c.532 0 1.026.101 1.482.304.482.203.9.481 1.254.836.355.355.634.773.836 1.254.203.456.304.95.304 1.482s-.101 1.039-.304 1.52a3.99 3.99 0 01-.836 1.216 3.87 3.87 0 01-1.254.836c-.456.203-.95.304-1.482.304a3.88 3.88 0 01-1.52-.304 4.012 4.012 0 01-1.216-.836 4.026 4.026 0 01-.836-1.216 3.89 3.89 0 01-.304-1.52zm26.74 13.794c-1.19-.81-2.394-1.216-3.61-1.216-.658 0-1.279.114-1.862.342a4.478 4.478 0 00-1.482.988c-.43.405-.772.9-1.026 1.482-.228.557-.342 1.19-.342 1.9 0 .684.114 1.317.342 1.9.254.557.583 1.051.988 1.482.431.405.938.722 1.52.95a5.068 5.068 0 001.862.342c1.292 0 2.496-.443 3.61-1.33v5.852c-1.697.735-3.306 1.102-4.826 1.102-1.418 0-2.774-.24-4.066-.722a10.72 10.72 0 01-3.382-2.052 10.632 10.632 0 01-2.318-3.23c-.582-1.267-.874-2.673-.874-4.218s.279-2.951.836-4.218c.558-1.292 1.318-2.394 2.28-3.306a9.977 9.977 0 013.42-2.166 11.55 11.55 0 014.294-.798c1.672 0 3.218.355 4.636 1.064v5.852zm10.307 3.382c0 .633.114 1.229.342 1.786.228.532.532 1 .912 1.406.406.405.874.722 1.406.95a4.675 4.675 0 001.786.342c.608 0 1.178-.114 1.71-.342a3.937 3.937 0 001.406-.95c.406-.405.722-.874.95-1.406.254-.532.38-1.102.38-1.71 0-.608-.126-1.178-.38-1.71a4.33 4.33 0 00-.95-1.444 3.937 3.937 0 00-1.406-.95 4.295 4.295 0 00-1.71-.342c-.633 0-1.228.114-1.786.342-.532.228-1 .545-1.406.95-.38.405-.684.874-.912 1.406a4.028 4.028 0 00-.342 1.672zm8.664-9.69h6.916V32h-6.916v-2.166c-1.469 1.85-3.458 2.774-5.966 2.774-1.418 0-2.723-.253-3.914-.76a9.694 9.694 0 01-3.116-2.204 10.364 10.364 0 01-2.09-3.306c-.481-1.267-.722-2.647-.722-4.142 0-1.393.241-2.71.722-3.952.482-1.267 1.153-2.369 2.014-3.306a9.276 9.276 0 013.078-2.204c1.191-.557 2.508-.836 3.952-.836 2.432 0 4.446.849 6.042 2.546v-1.938zm11.597 0h6.878v3.192c.734-1.165 1.634-2.052 2.698-2.66 1.064-.633 2.305-.95 3.724-.95h.57c.228 0 .481.025.76.076v6.574a6.535 6.535 0 00-2.964-.684c-1.596 0-2.8.481-3.61 1.444-.786.937-1.178 2.318-1.178 4.142V32h-6.878V12.506zm32.174 6.916c-.228-.963-.697-1.735-1.406-2.318-.71-.583-1.571-.874-2.584-.874-1.064 0-1.938.279-2.622.836-.659.557-1.077 1.343-1.254 2.356h7.866zm-8.056 3.99c0 2.964 1.393 4.446 4.18 4.446 1.494 0 2.622-.608 3.382-1.824h6.65c-1.343 4.459-4.7 6.688-10.07 6.688-1.647 0-3.154-.24-4.522-.722-1.368-.507-2.546-1.216-3.534-2.128a9.519 9.519 0 01-2.242-3.268c-.532-1.267-.798-2.685-.798-4.256 0-1.621.253-3.078.76-4.37.506-1.317 1.228-2.432 2.166-3.344.937-.912 2.064-1.609 3.382-2.09 1.342-.507 2.85-.76 4.522-.76 1.646 0 3.128.253 4.446.76 1.317.481 2.432 1.19 3.344 2.128.912.937 1.608 2.09 2.09 3.458.481 1.343.722 2.863.722 4.56v.722h-14.478zm18.067 4.94c0-.608.114-1.178.342-1.71a4.346 4.346 0 01.95-1.444 4.443 4.443 0 011.406-.95 4.572 4.572 0 011.748-.342c.608 0 1.178.114 1.71.342a4.342 4.342 0 011.444.95c.405.405.722.887.95 1.444.228.532.342 1.102.342 1.71 0 .608-.114 1.19-.342 1.748-.228.532-.545 1-.95 1.406a4.342 4.342 0 01-1.444.95 4.295 4.295 0 01-1.71.342 4.572 4.572 0 01-1.748-.342 4.452 4.452 0 01-2.356-2.356 4.573 4.573 0 01-.342-1.748z" fill="#fff"/></svg>