<svg width="554" height="45" viewBox="0 0 554 45" fill="none" xmlns="http://www.w3.org/2000/svg"><path d="M7.92 18.264c-1.36 0-2.656-.16-3.888-.48C2.816 17.448 1.792 17 .96 16.44l1.248-3.432a9.681 9.681 0 001.728.864c.624.24 1.272.432 1.944.576.688.128 1.384.192 2.088.192 1.056 0 1.784-.136 2.184-.408.416-.272.624-.624.624-1.056 0-.384-.136-.68-.408-.888-.272-.224-.784-.416-1.536-.576l-2.928-.6c-1.552-.32-2.712-.872-3.48-1.656-.768-.8-1.152-1.84-1.152-3.12 0-1.12.296-2.088.888-2.904.608-.832 1.456-1.472 2.544-1.92C5.792 1.048 7.064.816 8.52.816c1.2 0 2.328.168 3.384.504 1.056.32 1.92.768 2.592 1.344L13.248 5.88a7.146 7.146 0 00-2.16-1.056c-.8-.256-1.688-.384-2.664-.384-.928 0-1.632.144-2.112.432-.464.272-.696.664-.696 1.176 0 .352.136.656.408.912.288.24.808.44 1.56.6l2.88.576c1.552.304 2.712.848 3.48 1.632.784.784 1.176 1.808 1.176 3.072 0 1.088-.304 2.04-.912 2.856-.592.816-1.424 1.448-2.496 1.896-1.072.448-2.336.672-3.792.672zM17.662 18V5.808h4.272V18h-4.272zm-.096-13.92V.24h4.488v3.84h-4.488zM31.993 18V9.144a29.442 29.442 0 00-.192-3.336h4.128l.456 3.744h-.648c.16-.912.416-1.664.768-2.256.352-.592.792-1.032 1.32-1.32.528-.288 1.152-.432 1.872-.432.336 0 .584.016.744.048.176.016.36.064.552.144V9.48c-.4-.176-.72-.288-.96-.336a4.936 4.936 0 00-.936-.072c-.656 0-1.192.12-1.608.36-.416.224-.72.576-.912 1.056-.176.48-.264 1.096-.264 1.848V18h-4.32zm16.75.264c-2.208 0-3.928-.568-5.16-1.704-1.216-1.136-1.824-2.696-1.824-4.68 0-1.232.256-2.328.768-3.288a5.478 5.478 0 012.16-2.232c.928-.544 2.016-.816 3.264-.816 1.232 0 2.256.272 3.072.816.832.528 1.456 1.264 1.872 2.208.416.928.624 2.008.624 3.24v.912h-8.184v-2.016h5.04l-.408.336c0-.912-.176-1.584-.528-2.016-.336-.448-.816-.672-1.44-.672-.72 0-1.272.272-1.656.816-.368.528-.552 1.328-.552 2.4V12c0 1.072.264 1.856.792 2.352.528.496 1.288.744 2.28.744.64 0 1.24-.072 1.8-.216a5.646 5.646 0 001.632-.696l1.104 2.784a7.098 7.098 0 01-2.112.96c-.8.224-1.648.336-2.544.336zm13.218 0c-1.344 0-2.52-.256-3.528-.768a5.642 5.642 0 01-2.352-2.184c-.56-.96-.84-2.104-.84-3.432 0-1.328.28-2.464.84-3.408a5.488 5.488 0 012.352-2.16c1.008-.512 2.184-.768 3.528-.768.832 0 1.648.112 2.448.336.8.224 1.448.544 1.944.96l-1.2 2.904a3.919 3.919 0 00-1.32-.72 4.095 4.095 0 00-1.416-.264c-.88 0-1.568.264-2.064.792-.48.528-.72 1.304-.72 2.328 0 1.024.24 1.808.72 2.352.496.528 1.184.792 2.064.792.448 0 .92-.08 1.416-.24a4.57 4.57 0 001.32-.72l1.2 2.904c-.512.4-1.168.72-1.968.96a8.78 8.78 0 01-2.424.336zm6.4-.264V5.808h4.273V18h-4.272zm-.095-13.92V.24h4.488v3.84h-4.488zm15.242 14.184a4.957 4.957 0 01-2.544-.672c-.752-.448-1.248-1.04-1.488-1.776h.264V18h-4.224V.336h4.272v7.536H79.5c.272-.704.776-1.264 1.512-1.68a4.921 4.921 0 012.496-.648c1.056 0 1.984.256 2.784.768.816.512 1.448 1.248 1.896 2.208.464.96.696 2.096.696 3.408 0 1.328-.232 2.464-.696 3.408-.448.944-1.08 1.672-1.896 2.184-.8.496-1.728.744-2.784.744zm-1.344-3.168c.704 0 1.28-.248 1.728-.744.464-.496.696-1.304.696-2.424 0-1.12-.232-1.936-.696-2.448-.448-.512-1.024-.768-1.728-.768-.72 0-1.304.256-1.752.768-.448.496-.672 1.304-.672 2.424 0 1.12.224 1.936.672 2.448.448.496 1.032.744 1.752.744zm15.469 3.168c-2.208 0-3.928-.568-5.16-1.704-1.216-1.136-1.824-2.696-1.824-4.68 0-1.232.256-2.328.768-3.288a5.478 5.478 0 012.16-2.232c.928-.544 2.016-.816 3.264-.816 1.232 0 2.256.272 3.072.816.832.528 1.456 1.264 1.872 2.208.416.928.624 2.008.624 3.24v.912h-8.184v-2.016h5.04l-.408.336c0-.912-.176-1.584-.528-2.016-.336-.448-.816-.672-1.44-.672-.72 0-1.272.272-1.656.816-.368.528-.552 1.328-.552 2.4V12c0 1.072.264 1.856.792 2.352.528.496 1.288.744 2.28.744.64 0 1.24-.072 1.8-.216a5.646 5.646 0 001.632-.696l1.104 2.784a7.098 7.098 0 01-2.112.96c-.8.224-1.648.336-2.544.336zm11.73 0c-1.136 0-2.168-.112-3.096-.336-.912-.24-1.688-.56-2.328-.96l1.032-2.784c.624.352 1.32.64 2.088.864.784.224 1.56.336 2.328.336.608 0 1.048-.088 1.32-.264.288-.192.432-.44.432-.744a.706.706 0 00-.264-.576c-.176-.144-.44-.248-.792-.312l-2.592-.456c-1.024-.192-1.824-.568-2.4-1.128-.56-.576-.84-1.32-.84-2.232 0-.832.224-1.552.672-2.16.448-.624 1.088-1.104 1.92-1.44.832-.352 1.816-.528 2.952-.528.928 0 1.808.104 2.64.312.848.208 1.584.536 2.208.984l-1.104 2.712a6.566 6.566 0 00-1.752-.816c-.656-.224-1.272-.336-1.848-.336-.688 0-1.176.104-1.464.312-.288.192-.432.432-.432.72 0 .224.08.416.24.576.16.144.416.248.768.312l2.592.456c1.056.176 1.864.544 2.424 1.104.576.544.864 1.288.864 2.232 0 .88-.24 1.632-.72 2.256-.464.608-1.112 1.08-1.944 1.416-.832.32-1.8.48-2.904.48zm19.366 0c-1.552 0-2.704-.424-3.456-1.272-.736-.864-1.104-2.168-1.104-3.912V5.808h4.272v7.296c0 .64.128 1.12.384 1.44.272.304.68.456 1.224.456.608 0 1.104-.216 1.488-.648.4-.448.6-1.032.6-1.752V5.808h4.272V18h-4.152v-2.184h.36c-.384.784-.904 1.392-1.56 1.824-.656.416-1.432.624-2.328.624zM139.317 18V9.12a29.027 29.027 0 00-.192-3.312h4.128l.24 2.112h-.264c.4-.768.968-1.352 1.704-1.752.736-.416 1.568-.624 2.496-.624 1.424 0 2.488.424 3.192 1.272.72.832 1.08 2.136 1.08 3.912V18h-4.272v-7.08c0-.784-.136-1.328-.408-1.632-.272-.32-.664-.48-1.176-.48-.672 0-1.216.224-1.632.672-.416.432-.624 1.008-.624 1.728V18h-4.272zm19.993.264c-1.056 0-1.984-.248-2.784-.744-.8-.512-1.432-1.248-1.896-2.208-.448-.96-.672-2.096-.672-3.408 0-1.328.224-2.464.672-3.408.464-.96 1.096-1.688 1.896-2.184.8-.512 1.728-.768 2.784-.768.944 0 1.792.224 2.544.672.768.448 1.272 1.032 1.512 1.752h-.24l.264-2.16h4.104a664.45 664.45 0 00-.144 1.656c-.032.56-.048 1.112-.048 1.656V18h-4.224l-.048-2.064h.288c-.24.704-.744 1.272-1.512 1.704a5.07 5.07 0 01-2.496.624zm1.368-3.168c.72 0 1.304-.248 1.752-.744.448-.512.672-1.328.672-2.448 0-1.12-.224-1.928-.672-2.424-.448-.512-1.032-.768-1.752-.768s-1.304.256-1.752.768c-.448.496-.672 1.304-.672 2.424 0 1.12.216 1.936.648 2.448.448.496 1.04.744 1.776.744zM177.373 18V.336h4.272V18h-4.272zm7.154 0V.336h4.272V18h-4.272zm11.954.264c-1.056 0-1.984-.248-2.784-.744-.8-.512-1.432-1.248-1.896-2.208-.448-.96-.672-2.096-.672-3.408 0-1.328.224-2.464.672-3.408.464-.96 1.096-1.688 1.896-2.184.8-.512 1.728-.768 2.784-.768.944 0 1.792.224 2.544.672.768.448 1.272 1.032 1.512 1.752h-.24l.264-2.16h4.104a664.45 664.45 0 00-.144 1.656c-.032.56-.048 1.112-.048 1.656V18h-4.224l-.048-2.064h.288c-.24.704-.744 1.272-1.512 1.704a5.07 5.07 0 01-2.496.624zm1.368-3.168c.72 0 1.304-.248 1.752-.744.448-.512.672-1.328.672-2.448 0-1.12-.224-1.928-.672-2.424-.448-.512-1.032-.768-1.752-.768s-1.304.256-1.752.768c-.448.496-.672 1.304-.672 2.424 0 1.12.216 1.936.648 2.448.448.496 1.04.744 1.776.744zM207.367 18V9.12a29.027 29.027 0 00-.192-3.312h4.128l.24 2.112h-.264a3.982 3.982 0 011.56-1.728c.688-.432 1.496-.648 2.424-.648.896 0 1.656.216 2.28.648.64.416 1.104 1.08 1.392 1.992h-.408c.4-.832.976-1.48 1.728-1.944.768-.464 1.624-.696 2.568-.696 1.392 0 2.432.424 3.12 1.272.688.832 1.032 2.136 1.032 3.912V18h-4.296v-7.128c0-.752-.112-1.28-.336-1.584-.224-.32-.584-.48-1.08-.48-.624 0-1.112.224-1.464.672-.336.448-.504 1.064-.504 1.848V18h-4.272v-7.128c0-.752-.12-1.28-.36-1.584-.224-.32-.576-.48-1.056-.48-.624 0-1.112.224-1.464.672-.336.448-.504 1.064-.504 1.848V18h-4.272zm27.211.264c-1.056 0-1.984-.248-2.784-.744-.8-.512-1.432-1.248-1.896-2.208-.448-.96-.672-2.096-.672-3.408 0-1.328.224-2.464.672-3.408.464-.96 1.096-1.688 1.896-2.184.8-.512 1.728-.768 2.784-.768.944 0 1.792.224 2.544.672.768.448 1.272 1.032 1.512 1.752h-.24l.264-2.16h4.104a664.45 664.45 0 00-.144 1.656c-.032.56-.048 1.112-.048 1.656V18h-4.224l-.048-2.064h.288c-.24.704-.744 1.272-1.512 1.704a5.07 5.07 0 01-2.496.624zm1.368-3.168c.72 0 1.304-.248 1.752-.744.448-.512.672-1.328.672-2.448 0-1.12-.224-1.928-.672-2.424-.448-.512-1.032-.768-1.752-.768s-1.304.256-1.752.768c-.448.496-.672 1.304-.672 2.424 0 1.12.216 1.936.648 2.448.448.496 1.04.744 1.776.744zm14.366 3.168c-1.04 0-1.968-.248-2.784-.744-.816-.512-1.456-1.248-1.92-2.208-.464-.96-.696-2.096-.696-3.408 0-1.328.224-2.464.672-3.408.464-.96 1.104-1.688 1.92-2.184.832-.512 1.768-.768 2.808-.768.928 0 1.768.216 2.52.648.752.416 1.256.976 1.512 1.68h-.36V.336h4.272V18h-4.2v-2.184h.312c-.224.736-.72 1.328-1.488 1.776-.752.448-1.608.672-2.568.672zm1.368-3.168c.704 0 1.28-.248 1.728-.744.464-.512.696-1.328.696-2.448 0-1.12-.232-1.928-.696-2.424-.448-.512-1.024-.768-1.728-.768-.72 0-1.312.256-1.776.768-.448.496-.672 1.304-.672 2.424 0 1.12.224 1.936.672 2.448.464.496 1.056.744 1.776.744zm14.269 3.168c-1.056 0-1.984-.248-2.784-.744-.8-.512-1.432-1.248-1.896-2.208-.448-.96-.672-2.096-.672-3.408 0-1.328.224-2.464.672-3.408.464-.96 1.096-1.688 1.896-2.184.8-.512 1.728-.768 2.784-.768.944 0 1.792.224 2.544.672.768.448 1.272 1.032 1.512 1.752h-.24l.264-2.16h4.104a664.45 664.45 0 00-.144 1.656c-.032.56-.048 1.112-.048 1.656V18h-4.224l-.048-2.064h.288c-.24.704-.744 1.272-1.512 1.704a5.07 5.07 0 01-2.496.624zm1.368-3.168c.72 0 1.304-.248 1.752-.744.448-.512.672-1.328.672-2.448 0-1.12-.224-1.928-.672-2.424-.448-.512-1.032-.768-1.752-.768s-1.304.256-1.752.768c-.448.496-.672 1.304-.672 2.424 0 1.12.216 1.936.648 2.448.448.496 1.04.744 1.776.744zm11.245 6.624l-1.608-1.272c.624-.608 1.064-1.184 1.32-1.728a3.864 3.864 0 00.408-1.752l.912 1.032h-3.048v-4.368h4.44v2.76c0 1.008-.184 1.92-.552 2.736-.352.832-.976 1.696-1.872 2.592zm16.717-3.456c-1.552 0-2.704-.424-3.456-1.272-.736-.864-1.104-2.168-1.104-3.912V5.808h4.272v7.296c0 .64.128 1.12.384 1.44.272.304.68.456 1.224.456.608 0 1.104-.216 1.488-.648.4-.448.6-1.032.6-1.752V5.808h4.272V18h-4.152v-2.184h.36c-.384.784-.904 1.392-1.56 1.824-.656.416-1.432.624-2.328.624zM305.867 18V9.12a29.027 29.027 0 00-.192-3.312h4.128l.24 2.112h-.264c.4-.768.968-1.352 1.704-1.752.736-.416 1.568-.624 2.496-.624 1.424 0 2.488.424 3.192 1.272.72.832 1.08 2.136 1.08 3.912V18h-4.272v-7.08c0-.784-.136-1.328-.408-1.632-.272-.32-.664-.48-1.176-.48-.672 0-1.216.224-1.632.672-.416.432-.624 1.008-.624 1.728V18h-4.272zm22.371 0V9.12a29.027 29.027 0 00-.192-3.312h4.128l.24 2.112h-.264a3.982 3.982 0 011.56-1.728c.688-.432 1.496-.648 2.424-.648.896 0 1.656.216 2.28.648.64.416 1.104 1.08 1.392 1.992h-.408c.4-.832.976-1.48 1.728-1.944.768-.464 1.624-.696 2.568-.696 1.392 0 2.432.424 3.12 1.272.688.832 1.032 2.136 1.032 3.912V18h-4.296v-7.128c0-.752-.112-1.28-.336-1.584-.224-.32-.584-.48-1.08-.48-.624 0-1.112.224-1.464.672-.336.448-.504 1.064-.504 1.848V18h-4.272v-7.128c0-.752-.12-1.28-.36-1.584-.224-.32-.576-.48-1.056-.48-.624 0-1.112.224-1.464.672-.336.448-.504 1.064-.504 1.848V18h-4.272zm28.843.264c-2.208 0-3.928-.568-5.16-1.704-1.216-1.136-1.824-2.696-1.824-4.68 0-1.232.256-2.328.768-3.288a5.478 5.478 0 012.16-2.232c.928-.544 2.016-.816 3.264-.816 1.232 0 2.256.272 3.072.816.832.528 1.456 1.264 1.872 2.208.416.928.624 2.008.624 3.24v.912h-8.184v-2.016h5.04l-.408.336c0-.912-.176-1.584-.528-2.016-.336-.448-.816-.672-1.44-.672-.72 0-1.272.272-1.656.816-.368.528-.552 1.328-.552 2.4V12c0 1.072.264 1.856.792 2.352.528.496 1.288.744 2.28.744.64 0 1.24-.072 1.8-.216a5.646 5.646 0 001.632-.696l1.104 2.784a7.098 7.098 0 01-2.112.96c-.8.224-1.648.336-2.544.336zm7.051-.264V9.12a29.027 29.027 0 00-.192-3.312h4.128l.24 2.112h-.264c.4-.768.968-1.352 1.704-1.752.736-.416 1.568-.624 2.496-.624 1.424 0 2.488.424 3.192 1.272.72.832 1.08 2.136 1.08 3.912V18h-4.272v-7.08c0-.784-.136-1.328-.408-1.632-.272-.32-.664-.48-1.176-.48-.672 0-1.216.224-1.632.672-.416.432-.624 1.008-.624 1.728V18h-4.272zm19.873.264c-1.136 0-2.168-.112-3.096-.336-.912-.24-1.688-.56-2.328-.96l1.032-2.784c.624.352 1.32.64 2.088.864.784.224 1.56.336 2.328.336.608 0 1.048-.088 1.32-.264.288-.192.432-.44.432-.744a.706.706 0 00-.264-.576c-.176-.144-.44-.248-.792-.312l-2.592-.456c-1.024-.192-1.824-.568-2.4-1.128-.56-.576-.84-1.32-.84-2.232 0-.832.224-1.552.672-2.16.448-.624 1.088-1.104 1.92-1.44.832-.352 1.816-.528 2.952-.528.928 0 1.808.104 2.64.312.848.208 1.584.536 2.208.984l-1.104 2.712a6.566 6.566 0 00-1.752-.816c-.656-.224-1.272-.336-1.848-.336-.688 0-1.176.104-1.464.312-.288.192-.432.432-.432.72 0 .224.08.416.24.576.16.144.416.248.768.312l2.592.456c1.056.176 1.864.544 2.424 1.104.576.544.864 1.288.864 2.232 0 .88-.24 1.632-.72 2.256-.464.608-1.112 1.08-1.944 1.416-.832.32-1.8.48-2.904.48zm12.5 0c-1.056 0-1.984-.248-2.784-.744-.8-.512-1.432-1.248-1.896-2.208-.448-.96-.672-2.096-.672-3.408 0-1.328.224-2.464.672-3.408.464-.96 1.096-1.688 1.896-2.184.8-.512 1.728-.768 2.784-.768.944 0 1.792.224 2.544.672.768.448 1.272 1.032 1.512 1.752h-.24l.264-2.16h4.104a664.45 664.45 0 00-.144 1.656c-.032.56-.048 1.112-.048 1.656V18h-4.224l-.048-2.064h.288c-.24.704-.744 1.272-1.512 1.704a5.07 5.07 0 01-2.496.624zm1.368-3.168c.72 0 1.304-.248 1.752-.744.448-.512.672-1.328.672-2.448 0-1.12-.224-1.928-.672-2.424-.448-.512-1.032-.768-1.752-.768s-1.304.256-1.752.768c-.448.496-.672 1.304-.672 2.424 0 1.12.216 1.936.648 2.448.448.496 1.04.744 1.776.744zm8.75 8.304c-.384 0-.768-.024-1.152-.072a4.316 4.316 0 01-1.104-.288v-3.288c.24.08.472.136.696.168.208.032.432.048.672.048.464 0 .848-.136 1.152-.408.32-.256.48-.728.48-1.416V5.808h4.272v12.48c0 1.68-.4 2.952-1.2 3.816-.784.864-2.056 1.296-3.816 1.296zm.624-19.32V.24h4.488v3.84h-4.488zm13.73 14.184c-2.208 0-3.928-.568-5.16-1.704-1.216-1.136-1.824-2.696-1.824-4.68 0-1.232.256-2.328.768-3.288a5.478 5.478 0 012.16-2.232c.928-.544 2.016-.816 3.264-.816 1.232 0 2.256.272 3.072.816.832.528 1.456 1.264 1.872 2.208.416.928.624 2.008.624 3.24v.912h-8.184v-2.016h5.04l-.408.336c0-.912-.176-1.584-.528-2.016-.336-.448-.816-.672-1.44-.672-.72 0-1.272.272-1.656.816-.368.528-.552 1.328-.552 2.4V12c0 1.072.264 1.856.792 2.352.528.496 1.288.744 2.28.744.64 0 1.24-.072 1.8-.216a5.646 5.646 0 001.632-.696l1.104 2.784a7.098 7.098 0 01-2.112.96c-.8.224-1.648.336-2.544.336zm19.075 0c-1.04 0-1.968-.248-2.784-.744-.816-.512-1.456-1.248-1.92-2.208-.464-.96-.696-2.096-.696-3.408 0-1.328.224-2.464.672-3.408.464-.96 1.104-1.688 1.92-2.184.832-.512 1.768-.768 2.808-.768.928 0 1.768.216 2.52.648.752.416 1.256.976 1.512 1.68h-.36V.336h4.272V18h-4.2v-2.184h.312c-.224.736-.72 1.328-1.488 1.776-.752.448-1.608.672-2.568.672zm1.368-3.168c.704 0 1.28-.248 1.728-.744.464-.512.696-1.328.696-2.448 0-1.12-.232-1.928-.696-2.424-.448-.512-1.024-.768-1.728-.768-.72 0-1.312.256-1.776.768-.448.496-.672 1.304-.672 2.424 0 1.12.224 1.936.672 2.448.464.496 1.056.744 1.776.744zm15.902 3.168c-2.208 0-3.928-.568-5.16-1.704-1.216-1.136-1.824-2.696-1.824-4.68 0-1.232.256-2.328.768-3.288a5.478 5.478 0 012.16-2.232c.928-.544 2.016-.816 3.264-.816 1.232 0 2.256.272 3.072.816.832.528 1.456 1.264 1.872 2.208.416.928.624 2.008.624 3.24v.912h-8.184v-2.016h5.04l-.408.336c0-.912-.176-1.584-.528-2.016-.336-.448-.816-.672-1.44-.672-.72 0-1.272.272-1.656.816-.368.528-.552 1.328-.552 2.4V12c0 1.072.264 1.856.792 2.352.528.496 1.288.744 2.28.744.64 0 1.24-.072 1.8-.216a5.646 5.646 0 001.632-.696l1.104 2.784a7.098 7.098 0 01-2.112.96c-.8.224-1.648.336-2.544.336zm20.467 0c-1.728 0-3.032-.408-3.912-1.224-.864-.832-1.296-2.088-1.296-3.768v-4.32h-2.28V5.808h2.28v-2.88l4.272-1.008v3.888h2.976v3.144h-2.976v4.152c0 .704.16 1.176.48 1.416.32.224.704.336 1.152.336.272 0 .504-.016.696-.048.208-.048.424-.112.648-.192v3.288c-.352.144-.704.24-1.056.288a6.955 6.955 0 01-.984.072zm10.253 0c-2.208 0-3.928-.568-5.16-1.704-1.216-1.136-1.824-2.696-1.824-4.68 0-1.232.256-2.328.768-3.288a5.478 5.478 0 012.16-2.232c.928-.544 2.016-.816 3.264-.816 1.232 0 2.256.272 3.072.816.832.528 1.456 1.264 1.872 2.208.416.928.624 2.008.624 3.24v.912h-8.184v-2.016h5.04l-.408.336c0-.912-.176-1.584-.528-2.016-.336-.448-.816-.672-1.44-.672-.72 0-1.272.272-1.656.816-.368.528-.552 1.328-.552 2.4V12c0 1.072.264 1.856.792 2.352.528.496 1.288.744 2.28.744.64 0 1.24-.072 1.8-.216a5.646 5.646 0 001.632-.696l1.104 2.784a7.098 7.098 0 01-2.112.96c-.8.224-1.648.336-2.544.336zm4.866-.264l5.904-7.2v1.848l-5.568-6.84h4.992l3.024 3.96h-1.536l3.048-3.96h4.968l-5.568 6.864v-1.92L508.1 18h-5.04l-3.336-4.296h1.536L497.9 18h-4.992zm22.234.264c-1.728 0-3.032-.408-3.912-1.224-.864-.832-1.296-2.088-1.296-3.768v-4.32h-2.28V5.808h2.28v-2.88l4.272-1.008v3.888h2.976v3.144h-2.976v4.152c0 .704.16 1.176.48 1.416.32.224.704.336 1.152.336.272 0 .504-.016.696-.048.208-.048.424-.112.648-.192v3.288c-.352.144-.704.24-1.056.288a6.955 6.955 0 01-.984.072zm9.917 0c-1.36 0-2.536-.256-3.528-.768a5.52 5.52 0 01-2.304-2.184c-.544-.96-.816-2.096-.816-3.408 0-1.328.272-2.464.816-3.408a5.52 5.52 0 012.304-2.184c.992-.512 2.168-.768 3.528-.768 1.344 0 2.512.256 3.504.768a5.478 5.478 0 012.304 2.208c.544.944.816 2.072.816 3.384 0 1.296-.272 2.424-.816 3.384a5.478 5.478 0 01-2.304 2.208c-.992.512-2.16.768-3.504.768zm0-3.168c.704 0 1.264-.248 1.68-.744.416-.512.624-1.328.624-2.448 0-1.12-.208-1.928-.624-2.424-.416-.512-.976-.768-1.68-.768-.72 0-1.288.256-1.704.768-.416.496-.624 1.304-.624 2.424 0 1.12.208 1.936.624 2.448.416.496.984.744 1.704.744zm22.229 3.168c-1.36 0-2.536-.256-3.528-.768a5.52 5.52 0 01-2.304-2.184c-.544-.96-.816-2.096-.816-3.408 0-1.328.272-2.464.816-3.408a5.52 5.52 0 012.304-2.184c.992-.512 2.168-.768 3.528-.768 1.344 0 2.512.256 3.504.768a5.478 5.478 0 012.304 2.208c.544.944.816 2.072.816 3.384 0 1.296-.272 2.424-.816 3.384a5.478 5.478 0 01-2.304 2.208c-.992.512-2.16.768-3.504.768zm0-3.168c.704 0 1.264-.248 1.68-.744.416-.512.624-1.328.624-2.448 0-1.12-.208-1.928-.624-2.424-.416-.512-.976-.768-1.68-.768-.72 0-1.288.256-1.704.768-.416.496-.624 1.304-.624 2.424 0 1.12.208 1.936.624 2.448.416.496.984.744 1.704.744zM5.808 44.264c-1.552 0-2.704-.424-3.456-1.272-.736-.864-1.104-2.168-1.104-3.912v-7.272H5.52v7.296c0 .64.128 1.12.384 1.44.272.304.68.456 1.224.456.608 0 1.104-.216 1.488-.648.4-.448.6-1.032.6-1.752v-6.792h4.272V44H9.336v-2.184h.36c-.384.784-.904 1.392-1.56 1.824-.656.416-1.432.624-2.328.624zM16.396 44v-8.88a29.027 29.027 0 00-.192-3.312h4.128l.24 2.112h-.264c.4-.768.968-1.352 1.704-1.752.736-.416 1.568-.624 2.496-.624 1.424 0 2.488.424 3.192 1.272.72.832 1.08 2.136 1.08 3.912V44h-4.272v-7.08c0-.784-.136-1.328-.408-1.632-.272-.32-.664-.48-1.176-.48-.672 0-1.216.224-1.632.672-.416.432-.624 1.008-.624 1.728V44h-4.272zm28.803.264c-2.208 0-3.928-.568-5.16-1.704-1.216-1.136-1.824-2.696-1.824-4.68 0-1.232.256-2.328.768-3.288a5.478 5.478 0 012.16-2.232c.928-.544 2.016-.816 3.264-.816 1.232 0 2.256.272 3.072.816.832.528 1.456 1.264 1.872 2.208.416.928.624 2.008.624 3.24v.912H41.79v-2.016h5.04l-.408.336c0-.912-.176-1.584-.528-2.016-.336-.448-.816-.672-1.44-.672-.72 0-1.272.272-1.656.816-.368.528-.552 1.328-.552 2.4V38c0 1.072.264 1.856.792 2.352.528.496 1.288.744 2.28.744.64 0 1.24-.072 1.8-.216a5.646 5.646 0 001.632-.696l1.104 2.784a7.098 7.098 0 01-2.112.96c-.8.224-1.648.336-2.544.336zm7.05-.264v-8.88a29.027 29.027 0 00-.192-3.312h4.128l.24 2.112h-.264a3.982 3.982 0 011.56-1.728c.688-.432 1.496-.648 2.424-.648.896 0 1.656.216 2.28.648.64.416 1.104 1.08 1.392 1.992h-.408c.4-.832.976-1.48 1.728-1.944.768-.464 1.624-.696 2.568-.696 1.392 0 2.432.424 3.12 1.272.688.832 1.032 2.136 1.032 3.912V44H67.56v-7.128c0-.752-.112-1.28-.336-1.584-.224-.32-.584-.48-1.08-.48-.624 0-1.112.224-1.464.672-.336.448-.504 1.064-.504 1.848V44h-4.272v-7.128c0-.752-.12-1.28-.36-1.584-.224-.32-.576-.48-1.056-.48-.624 0-1.112.224-1.464.672-.336.448-.504 1.064-.504 1.848V44h-4.272zm27.212.264c-1.056 0-1.984-.248-2.784-.744-.8-.512-1.432-1.248-1.896-2.208-.448-.96-.672-2.096-.672-3.408 0-1.328.224-2.464.672-3.408.464-.96 1.096-1.688 1.896-2.184.8-.512 1.728-.768 2.784-.768.944 0 1.792.224 2.544.672.768.448 1.272 1.032 1.512 1.752h-.24l.264-2.16h4.104a664.45 664.45 0 00-.144 1.656c-.032.56-.048 1.112-.048 1.656V44h-4.224l-.048-2.064h.288c-.24.704-.744 1.272-1.512 1.704a5.07 5.07 0 01-2.496.624zm1.368-3.168c.72 0 1.304-.248 1.752-.744.448-.512.672-1.328.672-2.448 0-1.12-.224-1.928-.672-2.424-.448-.512-1.032-.768-1.752-.768s-1.304.256-1.752.768c-.448.496-.672 1.304-.672 2.424 0 1.12.216 1.936.648 2.448.448.496 1.04.744 1.776.744zM90.346 44V31.808h4.272V44h-4.272zm-.096-13.92v-3.84h4.488v3.84H90.25zM97.5 44V26.336h4.272V44H97.5zm6.866 0v-4.368h4.44V44h-4.44zm6.779 0v-4.368h4.44V44h-4.44zm6.779 0v-4.368h4.44V44h-4.44z" fill="#fff"/></svg>