<svg width="179" height="45" viewBox="0 0 179 45" fill="none" xmlns="http://www.w3.org/2000/svg"><path d="M6.44 17V.152h3.484l5.798 8.008c.936 1.274 2.002 3.094 2.002 3.094V.152h3.64V17h-3.51l-5.616-7.696C11.12 7.796 10.08 6.002 10.08 6.002V17H6.44zm24.47.26c-3.874 0-6.942-2.99-6.942-6.76 0-3.77 3.068-6.76 6.942-6.76 3.9 0 6.968 2.99 6.968 6.76 0 3.77-3.068 6.76-6.968 6.76zm0-3.224c1.95 0 3.406-1.482 3.406-3.536 0-2.028-1.456-3.536-3.406-3.536-1.95 0-3.406 1.508-3.406 3.536 0 2.054 1.456 3.536 3.406 3.536zm21.506 3.224c-3.874 0-6.942-2.99-6.942-6.76 0-3.77 3.068-6.76 6.942-6.76 1.794 0 3.354.598 4.654 1.664l-2.106 2.444c-.598-.546-1.43-.884-2.47-.884-2.028 0-3.484 1.482-3.484 3.536 0 2.028 1.378 3.536 3.588 3.536 1.092 0 2.158-.416 2.834-1.066l1.846 2.6c-1.248 1.066-2.99 1.69-4.862 1.69zm12.797 0c-3.874 0-6.942-2.99-6.942-6.76 0-3.77 3.068-6.76 6.942-6.76 3.9 0 6.968 2.99 6.968 6.76 0 3.77-3.068 6.76-6.968 6.76zm0-3.224c1.95 0 3.406-1.482 3.406-3.536 0-2.028-1.456-3.536-3.406-3.536-1.95 0-3.406 1.508-3.406 3.536 0 2.054 1.456 3.536 3.406 3.536zM74.453 17V4h3.407v1.742c.754-1.17 2.288-2.002 3.848-2.002 2.054 0 3.328.858 4.004 2.314.936-1.56 2.73-2.314 4.212-2.314 3.666 0 4.81 2.522 4.81 5.85V17H91.25v-6.968c0-1.716-.416-2.99-2.262-2.99-1.716 0-2.652 1.378-2.652 3.094V17h-3.484v-6.968c0-1.716-.39-2.99-2.262-2.99-1.768 0-2.652 1.508-2.652 3.224V17h-3.484zm22.75 3.744V4h3.303v1.56c1.066-1.274 2.6-1.82 4.16-1.82 3.588 0 5.876 3.016 5.876 6.734 0 3.77-2.34 6.786-5.928 6.786-1.508 0-2.99-.598-3.926-1.742v5.226h-3.484zm6.553-6.708c1.898 0 3.224-1.482 3.224-3.536 0-2.054-1.326-3.536-3.224-3.536-1.768 0-3.094 1.456-3.094 3.536 0 2.054 1.3 3.536 3.094 3.536zm14.524 3.224c-3.588 0-5.876-3.016-5.876-6.76 0-3.744 2.288-6.76 5.876-6.76 1.508 0 3.12.598 4.056 1.846V4h3.406v13h-3.406v-1.56c-.91 1.248-2.548 1.82-4.056 1.82zm.884-3.224c1.794 0 3.094-1.456 3.094-3.536 0-2.028-1.3-3.536-3.094-3.536-1.872 0-3.224 1.508-3.224 3.536 0 2.054 1.352 3.536 3.224 3.536zm9.22 2.964V4h3.432v2.496c.364-1.066 1.69-2.756 4.55-2.756v3.796c-3.016 0-4.498 1.378-4.498 4.472V17h-3.484zm15.272.26c-2.6 0-4.004-1.508-4.004-4.446V6.808h-1.898V4h1.898V1.504l3.484-.78V4h3.588v2.808h-3.588v5.954c0 1.118.546 1.482 1.17 1.482.832 0 1.56-.468 1.664-.546l.988 2.574c-.78.52-1.924.988-3.302.988zm10.425 0c-3.588 0-5.876-3.016-5.876-6.76 0-3.744 2.288-6.76 5.876-6.76 1.508 0 3.12.598 4.056 1.846V4h3.406v13h-3.406v-1.56c-.91 1.248-2.548 1.82-4.056 1.82zm.884-3.224c1.794 0 3.094-1.456 3.094-3.536 0-2.028-1.3-3.536-3.094-3.536-1.872 0-3.224 1.508-3.224 3.536 0 2.054 1.352 3.536 3.224 3.536zm13.847 3.224c-2.782 0-4.576-1.092-5.304-1.768l1.248-2.678c.884.676 2.106 1.378 4.056 1.378.806 0 2.132-.312 2.132-1.092s-1.118-.962-2.236-1.274c-2.574-.676-4.68-1.534-4.68-4.03 0-2.652 2.6-4.056 5.044-4.056 2.132 0 3.484.52 4.836 1.3l-1.17 2.6c-1.274-.624-2.47-.91-3.614-.91-.806 0-1.56.364-1.56.91 0 .728 1.092.962 2.288 1.222 2.21.52 4.628 1.482 4.628 4.134 0 3.198-3.25 4.264-5.668 4.264zm-162.455 27c-2.6 0-4.004-1.508-4.004-4.446v-6.006H.455V31h1.898v-2.496l3.484-.78V31h3.588v2.808H5.837v5.954c0 1.118.546 1.482 1.17 1.482.832 0 1.56-.468 1.664-.546l.988 2.574c-.78.52-1.924.988-3.302.988zm9.564 0c-3.588 0-4.732-2.106-4.732-5.486V31h3.484v7.306c0 1.82.78 2.652 2.392 2.652 1.82 0 2.704-1.534 2.704-3.302V31h3.484v13h-3.276v-1.82c-.78 1.274-2.548 2.08-4.056 2.08zM31.607 44V31h3.484v13h-3.484zm1.716-14.586a2.075 2.075 0 01-2.054-2.054c0-1.144.936-2.08 2.054-2.08 1.144 0 2.08.936 2.08 2.08 0 1.118-.936 2.054-2.08 2.054zM37.752 44V31h3.406v1.742c1.04-1.43 2.522-2.002 4.108-2.002 3.432 0 4.628 2.21 4.628 5.772V44H46.41v-7.046c0-1.898-.494-2.912-2.262-2.912-1.742 0-2.912 1.404-2.912 3.38V44h-3.484zm15.145 0V33.834H50.87v-2.808h2.028v-.858c0-3.016 1.664-4.316 3.874-4.316 1.17 0 2.47.338 3.38.806l-.988 2.574c-.286-.13-.858-.39-1.456-.39-.728 0-1.326.364-1.326 1.716v.468h3.25v2.808h-3.25V44h-3.484zm14.512.26c-3.874 0-6.942-2.99-6.942-6.76 0-3.77 3.068-6.76 6.942-6.76 3.9 0 6.968 2.99 6.968 6.76 0 3.77-3.068 6.76-6.968 6.76zm0-3.224c1.95 0 3.406-1.482 3.406-3.536 0-2.028-1.456-3.536-3.406-3.536-1.95 0-3.406 1.508-3.406 3.536 0 2.054 1.456 3.536 3.406 3.536zM76.65 44V31h3.432v2.496c.364-1.066 1.69-2.756 4.55-2.756v3.796c-3.016 0-4.498 1.378-4.498 4.472V44H76.65zm9.877 0V31h3.406v1.742c.754-1.17 2.288-2.002 3.848-2.002 2.054 0 3.328.858 4.004 2.314.936-1.56 2.73-2.314 4.212-2.314 3.666 0 4.81 2.522 4.81 5.85V44h-3.484v-6.968c0-1.716-.416-2.99-2.262-2.99-1.716 0-2.652 1.378-2.652 3.094V44h-3.484v-6.968c0-1.716-.39-2.99-2.262-2.99-1.768 0-2.652 1.508-2.652 3.224V44h-3.484zm28.236.26c-3.588 0-5.876-3.016-5.876-6.76 0-3.744 2.288-6.76 5.876-6.76 1.508 0 3.12.598 4.056 1.846V31h3.406v13h-3.406v-1.56c-.91 1.248-2.548 1.82-4.056 1.82zm.884-3.224c1.794 0 3.094-1.456 3.094-3.536 0-2.028-1.3-3.536-3.094-3.536-1.872 0-3.224 1.508-3.224 3.536 0 2.054 1.352 3.536 3.224 3.536zm15.772 3.224c-3.874 0-6.942-2.99-6.942-6.76 0-3.77 3.068-6.76 6.942-6.76 1.794 0 3.354.598 4.654 1.664l-2.106 2.444c-.598-.546-1.43-.884-2.47-.884-2.028 0-3.484 1.482-3.484 3.536 0 2.028 1.378 3.536 3.588 3.536 1.092 0 2.158-.416 2.834-1.066l1.846 2.6c-1.248 1.066-2.99 1.69-4.862 1.69zm6.651-.26V31h3.484v13h-3.484zm1.716-14.586a2.075 2.075 0 01-2.054-2.054c0-1.144.936-2.08 2.054-2.08 1.144 0 2.08.936 2.08 2.08 0 1.118-.936 2.054-2.08 2.054zm8.693-.182l2.444-4.082h3.458l-3.042 4.082h-2.86zm2.288 15.028c-3.874 0-6.942-2.99-6.942-6.76 0-3.77 3.068-6.76 6.942-6.76 3.9 0 6.968 2.99 6.968 6.76 0 3.77-3.068 6.76-6.968 6.76zm0-3.224c1.95 0 3.406-1.482 3.406-3.536 0-2.028-1.456-3.536-3.406-3.536-1.95 0-3.406 1.508-3.406 3.536 0 2.054 1.456 3.536 3.406 3.536zM160.008 44V31h3.406v1.742c1.04-1.43 2.522-2.002 4.108-2.002 3.432 0 4.628 2.21 4.628 5.772V44h-3.484v-7.046c0-1.898-.494-2.912-2.262-2.912-1.742 0-2.912 1.404-2.912 3.38V44h-3.484zm16.549.26c-1.17 0-2.054-.91-2.054-2.028 0-1.17.91-2.054 2.054-2.054 1.17 0 2.08.884 2.08 2.054 0 1.118-.91 2.028-2.08 2.028z" fill="#fff"/></svg>