<svg width="227" height="56" viewBox="0 0 227 56" fill="none" xmlns="http://www.w3.org/2000/svg"><path d="M.494 22V1.264h2.273l5.055 7.04c1.089 1.536 3.36 4.8 3.36 4.8s2.272-3.232 3.36-4.768L19.6 1.264h2.271V22h-2.56V5.584s-.543.992-1.535 2.368l-6.592 9.28-6.624-9.344C3.63 6.576 3.054 5.584 3.054 5.584V22H.494zm33.355.32c-4.416 0-8.16-3.168-8.16-8.096 0-4.512 3.392-8.128 7.84-8.128 4.16 0 7.456 3.584 7.456 8.032 0 .448-.064.928-.064.96H28.217c.384 3.104 2.784 5.056 5.664 5.056 1.76 0 3.52-.608 4.8-1.664l1.056 1.792a9.536 9.536 0 01-5.888 2.048zm-5.632-9.088h10.368c-.256-2.88-2.464-4.96-5.184-4.96-2.656 0-4.832 2.048-5.184 4.96zm22.957 9.088c-4.32 0-7.36-3.584-7.36-8.096 0-4.576 3.04-8.128 7.36-8.128 2.496 0 4.704 1.024 5.856 3.04V.944h2.432V22h-2.336v-2.72c-1.152 2.048-3.424 3.04-5.952 3.04zm.544-2.368c2.976 0 5.312-2.464 5.312-5.728s-2.336-5.76-5.312-5.76c-3.104 0-5.408 2.432-5.408 5.76 0 3.296 2.304 5.728 5.408 5.728zM63.548 22V6.416h2.432V22h-2.432zm1.216-18.368c-.896 0-1.6-.704-1.6-1.6 0-.896.704-1.632 1.6-1.632.896 0 1.632.736 1.632 1.632 0 .896-.736 1.6-1.632 1.6zM77.631 22.32c-4.576 0-8.192-3.552-8.192-8.096 0-4.544 3.616-8.128 8.192-8.128 2.144 0 4.096.768 5.568 2.08l-1.536 1.728c-.96-.896-2.368-1.44-4-1.44-3.264 0-5.728 2.432-5.728 5.76 0 3.232 2.368 5.728 5.792 5.728 1.76 0 3.36-.672 4.448-1.76l1.408 1.824c-1.504 1.44-3.616 2.304-5.952 2.304zm15.23 0c-4.32 0-7.36-3.584-7.36-8.096 0-4.576 3.04-8.128 7.36-8.128 2.497 0 4.705 1.024 5.857 3.04v-2.72h2.432V22h-2.432v-2.72c-1.152 2.048-3.36 3.04-5.856 3.04zm.545-2.368c2.976 0 5.312-2.464 5.312-5.728s-2.336-5.76-5.312-5.76c-3.104 0-5.408 2.432-5.408 5.76 0 3.296 2.304 5.728 5.408 5.728zM105.236 22V6.416h2.432v3.296c.896-2.048 2.912-3.616 6.016-3.616v2.656c-3.648 0-6.016 2.048-6.016 5.856V22h-2.432zm18.457.32c-4.416 0-8.16-3.168-8.16-8.096 0-4.512 3.392-8.128 7.84-8.128 4.16 0 7.456 3.584 7.456 8.032 0 .448-.064.928-.064.96h-12.704c.384 3.104 2.784 5.056 5.664 5.056 1.76 0 3.52-.608 4.8-1.664l1.056 1.792a9.536 9.536 0 01-5.888 2.048zm-5.632-9.088h10.368c-.256-2.88-2.464-4.96-5.184-4.96-2.656 0-4.832 2.048-5.184 4.96zM49.014 55.32c-2.752 0-4.384-1.344-4.384-4.992v-8.896h-2.336v-2.016h2.336v-3.36l2.432-.448v3.808h5.312v2.016h-5.312v8.96c0 2.144.928 2.752 2.176 2.752 1.44 0 2.56-.864 2.56-.864l.8 1.888c-.608.416-1.888 1.152-3.584 1.152zm13.804 0c-4.416 0-8.16-3.168-8.16-8.096 0-4.512 3.392-8.128 7.84-8.128 4.16 0 7.456 3.584 7.456 8.032 0 .448-.064.928-.064.96H57.186c.384 3.104 2.784 5.056 5.664 5.056 1.76 0 3.52-.608 4.8-1.664l1.056 1.792a9.536 9.536 0 01-5.888 2.048zm-5.632-9.088h10.368c-.256-2.88-2.464-4.96-5.184-4.96-2.656 0-4.832 2.048-5.184 4.96zm30.758 9.088c-4.576 0-8.192-3.552-8.192-8.096 0-4.544 3.616-8.128 8.192-8.128 2.144 0 4.096.768 5.568 2.08l-1.536 1.728c-.96-.896-2.368-1.44-4-1.44-3.264 0-5.728 2.432-5.728 5.76 0 3.232 2.368 5.728 5.792 5.728 1.76 0 3.36-.672 4.448-1.76l1.408 1.824c-1.504 1.44-3.616 2.304-5.952 2.304zm16.062 0c-4.576 0-8.192-3.584-8.192-8.096 0-4.544 3.616-8.128 8.192-8.128 4.576 0 8.192 3.584 8.192 8.128 0 4.512-3.616 8.096-8.192 8.096zm0-2.368c3.232 0 5.696-2.464 5.696-5.728 0-3.296-2.464-5.76-5.696-5.76-3.232 0-5.696 2.464-5.696 5.76 0 3.264 2.464 5.728 5.696 5.728zM115.642 55V39.416h2.432v2.656c1.088-1.888 3.104-2.976 5.408-2.976 3.904 0 5.632 2.368 5.632 6.464V55h-2.432v-9.12c0-2.88-1.056-4.416-3.872-4.416-2.784 0-4.736 2.176-4.736 4.768V55h-2.432zm22.528.32c-2.752 0-4.384-1.344-4.384-4.992v-8.896h-2.336v-2.016h2.336v-3.36l2.432-.448v3.808h5.312v2.016h-5.312v8.96c0 2.144.928 2.752 2.176 2.752 1.44 0 2.56-.864 2.56-.864l.8 1.888c-.608.416-1.888 1.152-3.584 1.152zm13.004 0c-4.32 0-7.36-3.584-7.36-8.096 0-4.576 3.04-8.128 7.36-8.128 2.496 0 4.704 1.024 5.856 3.04v-2.72h2.432V55h-2.432v-2.72c-1.152 2.048-3.36 3.04-5.856 3.04zm.544-2.368c2.976 0 5.312-2.464 5.312-5.728s-2.336-5.76-5.312-5.76c-3.104 0-5.408 2.432-5.408 5.76 0 3.296 2.304 5.728 5.408 5.728zM171.1 55.32c-4.576 0-8.192-3.552-8.192-8.096 0-4.544 3.616-8.128 8.192-8.128 2.144 0 4.096.768 5.568 2.08l-1.536 1.728c-.96-.896-2.368-1.44-4-1.44-3.264 0-5.728 2.432-5.728 5.76 0 3.232 2.368 5.728 5.792 5.728 1.76 0 3.36-.672 4.448-1.76l1.408 1.824c-1.504 1.44-3.616 2.304-5.952 2.304zm14.07 0c-2.752 0-4.384-1.344-4.384-4.992v-8.896h-2.336v-2.016h2.336v-3.36l2.432-.448v3.808h5.312v2.016h-5.312v8.96c0 2.144.928 2.752 2.176 2.752 1.44 0 2.56-.864 2.56-.864l.8 1.888c-.608.416-1.888 1.152-3.584 1.152zm13.004 0c-4.32 0-7.36-3.584-7.36-8.096 0-4.576 3.04-8.128 7.36-8.128 2.496 0 4.704 1.024 5.856 3.04v-2.72h2.432V55h-2.432v-2.72c-1.152 2.048-3.36 3.04-5.856 3.04zm.544-2.368c2.976 0 5.312-2.464 5.312-5.728s-2.336-5.76-5.312-5.76c-3.104 0-5.408 2.432-5.408 5.76 0 3.296 2.304 5.728 5.408 5.728zm13.014 2.368c-.96 0-1.664-.768-1.664-1.696 0-.928.736-1.696 1.664-1.696.928 0 1.696.768 1.696 1.696 0 .928-.768 1.696-1.696 1.696zm6.5 0c-.96 0-1.664-.768-1.664-1.696 0-.928.736-1.696 1.664-1.696.928 0 1.696.768 1.696 1.696 0 .928-.768 1.696-1.696 1.696zm6.5 0c-.96 0-1.664-.768-1.664-1.696 0-.928.736-1.696 1.664-1.696.928 0 1.696.768 1.696 1.696 0 .928-.768 1.696-1.696 1.696z" fill="#275D80"/><path d="M140.882 22V6h4.192v2.144c1.28-1.76 3.104-2.464 5.056-2.464 4.224 0 5.696 2.72 5.696 7.104V22h-4.288v-8.672c0-2.336-.608-3.584-2.784-3.584-2.144 0-3.584 1.728-3.584 4.16V22h-4.288zm23.569.32c-4.416 0-5.824-2.592-5.824-6.752V6h4.288v8.992c0 2.24.96 3.264 2.944 3.264 2.24 0 3.328-1.888 3.328-4.064V6h4.288v16h-4.032v-2.24c-.96 1.568-3.136 2.56-4.992 2.56zm12.275-.32V6h4.192v2.144c1.28-1.76 3.104-2.464 5.056-2.464 4.224 0 5.696 2.72 5.696 7.104V22h-4.288v-8.672c0-2.336-.608-3.584-2.784-3.584-2.144 0-3.584 1.728-3.584 4.16V22h-4.288zm26.033.32c-4.768 0-8.544-3.68-8.544-8.32 0-4.64 3.776-8.32 8.544-8.32 2.208 0 4.128.736 5.728 2.048l-2.592 3.008c-.736-.672-1.76-1.088-3.04-1.088-2.496 0-4.288 1.824-4.288 4.352 0 2.496 1.696 4.352 4.416 4.352 1.344 0 2.656-.512 3.488-1.312l2.272 3.2c-1.536 1.312-3.68 2.08-5.984 2.08zm14.438 0c-4.416 0-7.232-3.712-7.232-8.32 0-4.608 2.816-8.32 7.232-8.32 1.856 0 3.84.736 4.992 2.272V6h4.192v16h-4.192v-1.92c-1.12 1.536-3.136 2.24-4.992 2.24zm1.088-3.968c2.208 0 3.808-1.792 3.808-4.352 0-2.496-1.6-4.352-3.808-4.352-2.304 0-3.968 1.856-3.968 4.352 0 2.528 1.664 4.352 3.968 4.352z" fill="#091C29"/></svg>