<svg width="268" height="58" viewBox="0 0 268 58" fill="none" xmlns="http://www.w3.org/2000/svg"><rect x="1" y="1" width="266" height="56" rx="7" fill="#FFC332" stroke="#FFE094" stroke-width="2"/><path d="M30.196 37V22.096h6.21c4.99 0 8.119 3.381 8.119 7.452S41.397 37 36.405 37h-6.21zm4.37-3.703h1.679c2.23 0 3.657-1.587 3.657-3.749 0-2.139-1.426-3.749-3.657-3.749h-1.68v7.498zM47.052 37V22.096h11.845v3.703h-7.475v1.817h7.176v3.657h-7.176v2.024h7.751V37h-12.12zm18.183 0V25.799h-4.67v-3.703h13.709v3.703h-4.67V37h-4.37zm11.218 0V22.096h11.845v3.703h-7.475v1.817h7.176v3.657h-7.176v2.024h7.75V37h-12.12zm3.818-15.64l2.415-4.117h4.025l-3.335 4.117H80.27zM90.77 37V22.096h3.795l4.738 6.601c.345.46.667 1.127.667 1.127v-7.728h4.37V37h-3.795l-4.738-6.486c-.345-.46-.667-1.127-.667-1.127V37h-4.37zm22.123 0V22.096h11.845v3.703h-7.475v1.817h7.176v3.657h-7.176v2.024h7.751V37h-12.121zm14.319 0V22.096h4.37v11.201h7.935V37h-12.305zm20.169 0V22.096h11.5v3.703h-7.13v1.817h6.233v3.657h-6.233V37h-4.37zm13.33 0V22.096h6.578c4.577 0 6.923 2.645 6.923 5.888 0 1.725-.782 3.496-2.346 4.577L174.65 37h-4.991l-1.702-3.197c-.46.046-.713.069-1.081.069h-1.794V37h-4.37zm4.37-6.831h2.254c1.357 0 2.254-.989 2.254-2.185 0-1.219-.92-2.185-2.231-2.185h-2.277v4.37zM175.656 37l6.026-14.904h4.508L192.216 37h-4.462l-.69-1.932h-6.256l-.69 1.932h-4.462zm6.325-5.29h3.91l-1.771-5.037c-.138-.368-.161-.506-.184-.598 0 0-.046.207-.184.598l-1.771 5.037zm18.057 5.566c-3.772 0-6.647-2.093-6.647-6.187v-8.993h4.37v8.74c0 1.794 1.035 2.484 2.277 2.484 1.242 0 2.277-.69 2.277-2.484v-8.74h4.37v8.993c0 4.094-2.875 6.187-6.647 6.187zm9.581-.276V22.096h6.21c4.991 0 8.119 3.381 8.119 7.452S220.82 37 215.829 37h-6.21zm4.37-3.703h1.679c2.231 0 3.657-1.587 3.657-3.749 0-2.139-1.426-3.749-3.657-3.749h-1.679v7.498zM226.476 37V22.096h11.845v3.703h-7.475v1.817h7.176v3.657h-7.176v2.024h7.751V37h-12.121z" fill="#1F211C"/></svg>