<svg width="193" height="125" viewBox="0 0 193 125" fill="none" xmlns="http://www.w3.org/2000/svg"><path d="M2.09 25V.376h6.27l7.828 10.906c.57.76 1.102 1.862 1.102 1.862V.376h7.22V25h-6.27l-7.828-10.716c-.57-.76-1.102-1.862-1.102-1.862V25H2.09zm32.915.38c-5.852 0-7.068-3.648-7.068-8.588V5.582h6.916v10.336c0 2.052.684 3.002 2.508 3.002 2.09 0 2.85-1.786 2.85-4.18V5.582h6.916V25h-6.536v-2.128c-1.064 1.368-3.572 2.508-5.586 2.508zM50.17 25V5.582h6.536v2.242c1.786-2.09 3.914-2.622 5.852-2.622 4.902 0 6.802 2.888 6.802 8.588V25h-6.916V14.664c0-2.204-.836-3.002-2.166-3.002-2.128 0-3.192 1.786-3.192 4.18V25H50.17zm32.151.38c-5.966 0-10.488-4.484-10.488-10.07 0-5.624 4.522-10.108 10.488-10.108 2.66 0 4.826.798 6.878 2.432l-3.99 4.788c-.722-.684-1.52-1.14-2.698-1.14-2.242 0-3.686 1.71-3.686 4.028 0 2.356 1.406 3.99 3.838 3.99 1.33 0 2.432-.57 3.268-1.406l3.458 5.092c-1.862 1.558-4.332 2.394-7.068 2.394zm16.315 0c-5.396 0-8.322-4.484-8.322-10.07 0-5.624 2.926-10.108 8.322-10.108 1.558 0 4.142.532 5.282 2.546V5.582h6.536V25h-6.536v-2.166c-1.064 1.976-3.724 2.546-5.282 2.546zm1.824-6.08c1.824 0 3.116-1.634 3.116-3.99 0-2.318-1.292-4.028-3.116-4.028s-3.116 1.71-3.116 4.028c0 2.356 1.292 3.99 3.116 3.99zM11.628 58.38c-5.966 0-10.488-4.484-10.488-10.07 0-5.624 4.522-10.108 10.488-10.108 2.66 0 4.826.798 6.878 2.432l-3.99 4.788c-.722-.684-1.52-1.14-2.698-1.14-2.242 0-3.686 1.71-3.686 4.028 0 2.356 1.406 3.99 3.838 3.99 1.33 0 2.432-.57 3.268-1.406l3.458 5.092c-1.862 1.558-4.332 2.394-7.068 2.394zm18.48 0c-5.966 0-10.488-4.484-10.488-10.07 0-5.624 4.522-10.108 10.488-10.108 5.966 0 10.488 4.484 10.488 10.108 0 5.586-4.521 10.07-10.487 10.07zm0-6.08c2.052 0 3.497-1.634 3.497-3.99 0-2.318-1.444-4.028-3.496-4.028-2.053 0-3.497 1.71-3.497 4.028 0 2.356 1.445 3.99 3.497 3.99zm13.16 5.7V38.582h6.536v2.128c1.444-1.634 3.686-2.508 5.852-2.508 3.116 0 4.788 1.254 5.7 3.002 1.672-2.432 4.256-3.002 6.194-3.002 6.27 0 6.802 5.054 6.802 8.968V58h-6.916V47.968c0-2.318-.646-3.382-2.166-3.382-2.052 0-3.002 1.862-3.002 4.256V58h-6.916V47.968c0-2.318-.646-3.382-2.166-3.382-2.052 0-3.002 1.862-3.002 4.256V58h-6.916zm33.918 5.586V38.582h6.536v2.166c1.558-2.09 3.724-2.546 5.282-2.546 5.396 0 8.322 4.484 8.322 10.07 0 5.624-3.116 10.108-8.55 10.108-1.558 0-3.496-.532-4.674-2.014v7.22h-6.916zM87.142 52.3c1.824 0 3.116-1.634 3.116-3.99 0-2.318-1.292-4.028-3.116-4.028s-3.116 1.71-3.116 4.028c0 2.356 1.292 3.99 3.116 3.99zm20.771 6.08c-5.396 0-8.322-4.484-8.322-10.07 0-5.624 2.926-10.108 8.322-10.108 1.558 0 4.142.532 5.282 2.546v-2.166h6.536V58h-6.536v-2.166c-1.064 1.976-3.724 2.546-5.282 2.546zm1.824-6.08c1.824 0 3.116-1.634 3.116-3.99 0-2.318-1.292-4.028-3.116-4.028s-3.116 1.71-3.116 4.028c0 2.356 1.292 3.99 3.116 3.99zm13.019 5.7V38.582h6.726v3.458c.114-.836 1.786-3.838 6.346-3.838v7.524c-5.016 0-6.156 2.09-6.156 5.738V58h-6.916zm23.858.38c-3.724 0-6.156-2.394-6.156-6.65v-7.676h-2.85v-5.472h2.85v-3.496l6.916-1.71v5.206h4.294v5.472h-4.294v7.144c0 .912.456 1.216 1.064 1.216.57 0 1.254-.266 1.748-.608l1.862 5.054c-1.672 1.178-3.724 1.52-5.434 1.52zm15.182 0c-5.396 0-8.322-4.484-8.322-10.07 0-5.624 2.926-10.108 8.322-10.108 1.558 0 4.142.532 5.282 2.546v-2.166h6.536V58h-6.536v-2.166c-1.064 1.976-3.724 2.546-5.282 2.546zm1.824-6.08c1.824 0 3.116-1.634 3.116-3.99 0-2.318-1.292-4.028-3.116-4.028s-3.116 1.71-3.116 4.028c0 2.356 1.292 3.99 3.116 3.99zm20.163 6.08c-4.446 0-6.916-1.33-8.056-2.318l2.204-4.864c1.52 1.026 2.926 1.634 5.89 1.634.076 0 1.9-.114 1.9-.874 0-.608-1.14-.722-2.28-.988-4.218-1.026-7.334-2.736-7.334-6.308 0-4.256 3.876-6.46 7.98-6.46 3.762 0 6.004.836 7.866 1.824l-2.052 4.636c-2.242-.874-4.294-1.14-5.586-1.14-.684 0-1.216.228-1.216.608 0 .722 1.634.988 3.572 1.52 2.736.798 6.042 2.128 6.042 6.042 0 5.206-5.282 6.688-8.93 6.688zM6.81 91.3c-2.58 0-4.11-1.26-4.11-4.68v-8.34H.51v-1.89H2.7v-3.15l2.28-.42v3.57h4.98v1.89H4.98v8.4c0 2.01.87 2.58 2.04 2.58 1.35 0 2.4-.81 2.4-.81l.75 1.77c-.57.39-1.77 1.08-3.36 1.08zm11.137 0c-3.6 0-5.31-1.89-5.31-5.79v-9.12h2.28v8.82c0 2.73 1.32 3.87 3.69 3.87 2.64 0 4.17-2.16 4.17-4.41v-8.28h2.28V91h-2.19v-2.58c-.9 1.89-3 2.88-4.92 2.88zm17.489-.3V76.39h2.28v2.49c1.02-1.77 2.91-2.79 5.07-2.79 3.66 0 5.28 2.22 5.28 6.06V91h-2.28v-8.55c0-2.7-.99-4.14-3.63-4.14-2.61 0-4.44 2.04-4.44 4.47V91h-2.28zm20.49-16.95l2.43-3.99h2.49l-2.82 3.99h-2.1zm.81 17.25c-3.6 0-5.31-1.89-5.31-5.79v-9.12h2.28v8.82c0 2.73 1.32 3.87 3.69 3.87 2.64 0 4.17-2.16 4.17-4.41v-8.28h2.28V91h-2.19v-2.58c-.9 1.89-3 2.88-4.92 2.88zm10.956-.3V76.39h2.28v2.52c.81-1.59 2.64-2.82 4.68-2.82 2.34 0 3.99 1.02 4.68 3.09 1.05-2.13 3.33-3.09 5.04-3.09 3.51 0 5.37 2.04 5.37 6.06V91h-2.31v-8.55c0-2.49-.87-4.14-3.54-4.14-2.46 0-4.02 1.98-4.02 4.17V91h-2.31v-8.55c0-2.49-.87-4.14-3.51-4.14-2.55 0-4.08 2.16-4.08 4.29V91h-2.28zm32.655.3c-4.14 0-7.65-2.97-7.65-7.59 0-4.23 3.18-7.62 7.35-7.62 3.9 0 6.99 3.36 6.99 7.53 0 .42-.06.87-.06.9h-11.91c.36 2.91 2.61 4.74 5.31 4.74 1.65 0 3.3-.57 4.5-1.56l.99 1.68a8.94 8.94 0 01-5.52 1.92zm-5.28-8.52h9.72c-.24-2.7-2.31-4.65-4.86-4.65-2.49 0-4.53 1.92-4.86 4.65zM110.289 91V76.39h2.28v3.09c.84-1.92 2.73-3.39 5.64-3.39v2.49c-3.42 0-5.64 1.92-5.64 5.49V91h-2.28zm17.334.3c-4.29 0-7.68-3.36-7.68-7.59 0-4.26 3.39-7.62 7.68-7.62 4.29 0 7.68 3.36 7.68 7.62 0 4.23-3.39 7.59-7.68 7.59zm0-2.22c3.03 0 5.34-2.31 5.34-5.37 0-3.09-2.31-5.4-5.34-5.4s-5.34 2.31-5.34 5.4c0 3.06 2.31 5.37 5.34 5.37zm23.742 2.22c-4.05 0-6.9-3.36-6.9-7.59 0-4.29 2.85-7.62 6.9-7.62 2.34 0 4.41.96 5.49 2.85v-7.68h2.28V91h-2.19v-2.55c-1.08 1.92-3.21 2.85-5.58 2.85zm.51-2.22c2.79 0 4.98-2.31 4.98-5.37s-2.19-5.4-4.98-5.4c-2.91 0-5.07 2.28-5.07 5.4 0 3.09 2.16 5.37 5.07 5.37zm18.14 2.22c-4.14 0-7.65-2.97-7.65-7.59 0-4.23 3.18-7.62 7.35-7.62 3.9 0 6.99 3.36 6.99 7.53 0 .42-.06.87-.06.9h-11.91c.36 2.91 2.61 4.74 5.31 4.74 1.65 0 3.3-.57 4.5-1.56l.99 1.68a8.94 8.94 0 01-5.52 1.92zm-5.28-8.52h9.72c-.24-2.7-2.31-4.65-4.86-4.65-2.49 0-4.53 1.92-4.86 4.65zM2.28 124v-19.44h2.13l4.74 6.6c1.02 1.44 3.15 4.5 3.15 4.5s2.13-3.03 3.15-4.47l4.74-6.63h2.13V124h-2.4v-15.39s-.51.93-1.44 2.22l-6.18 8.7-6.21-8.76c-.87-1.23-1.41-2.16-1.41-2.16V124h-2.4zm31.27.3c-4.14 0-7.65-2.97-7.65-7.59 0-4.23 3.18-7.62 7.35-7.62 3.9 0 6.99 3.36 6.99 7.53 0 .42-.06.87-.06.9H28.27c.36 2.91 2.61 4.74 5.31 4.74 1.65 0 3.3-.57 4.5-1.56l.99 1.68a8.94 8.94 0 01-5.52 1.92zm-5.28-8.52h9.72c-.24-2.7-2.31-4.65-4.86-4.65-2.49 0-4.53 1.92-4.86 4.65zm21.522 8.52c-4.05 0-6.9-3.36-6.9-7.59 0-4.29 2.85-7.62 6.9-7.62 2.34 0 4.41.96 5.49 2.85v-7.68h2.28V124h-2.19v-2.55c-1.08 1.92-3.21 2.85-5.58 2.85zm.51-2.22c2.79 0 4.98-2.31 4.98-5.37s-2.19-5.4-4.98-5.4c-2.91 0-5.07 2.28-5.07 5.4 0 3.09 2.16 5.37 5.07 5.37zm11.09 1.92v-14.61h2.28V124h-2.28zm1.14-17.22c-.84 0-1.5-.66-1.5-1.5s.66-1.53 1.5-1.53 1.53.69 1.53 1.53c0 .84-.69 1.5-1.53 1.5zm12.064 17.52c-4.29 0-7.68-3.33-7.68-7.59s3.39-7.62 7.68-7.62c2.01 0 3.84.72 5.22 1.95l-1.44 1.62c-.9-.84-2.22-1.35-3.75-1.35-3.06 0-5.37 2.28-5.37 5.4 0 3.03 2.22 5.37 5.43 5.37 1.65 0 3.15-.63 4.17-1.65l1.32 1.71c-1.41 1.35-3.39 2.16-5.58 2.16zm14.278 0c-4.05 0-6.9-3.36-6.9-7.59 0-4.29 2.85-7.62 6.9-7.62 2.34 0 4.41.96 5.49 2.85v-2.55h2.28V124h-2.28v-2.55c-1.08 1.92-3.15 2.85-5.49 2.85zm.51-2.22c2.79 0 4.98-2.31 4.98-5.37s-2.19-5.4-4.98-5.4c-2.91 0-5.07 2.28-5.07 5.4 0 3.09 2.16 5.37 5.07 5.37zm11.091 1.92v-14.61h2.28v3.09c.84-1.92 2.73-3.39 5.64-3.39v2.49c-3.42 0-5.64 1.92-5.64 5.49V124h-2.28zm17.304.3c-4.14 0-7.65-2.97-7.65-7.59 0-4.23 3.18-7.62 7.35-7.62 3.9 0 6.99 3.36 6.99 7.53 0 .42-.06.87-.06.9h-11.91c.36 2.91 2.61 4.74 5.31 4.74 1.65 0 3.3-.57 4.5-1.56l.99 1.68a8.94 8.94 0 01-5.52 1.92zm-5.28-8.52h9.72c-.24-2.7-2.31-4.65-4.86-4.65-2.49 0-4.53 1.92-4.86 4.65zm16.332 8.52c-.9 0-1.56-.72-1.56-1.59 0-.87.69-1.59 1.56-1.59.87 0 1.59.72 1.59 1.59a1.6 1.6 0 01-1.59 1.59z" fill="#42443C"/></svg>