<svg width="225" height="21" viewBox="0 0 225 21" fill="none" xmlns="http://www.w3.org/2000/svg"><path d="M11.323 11.668H2.619c.127.788.461 1.416 1.007 1.88.545.466 1.242.698 2.089.698 1.013 0 1.883-.364 2.611-1.09l2.282 1.1c-.568.83-1.25 1.442-2.044 1.84-.795.398-1.737.596-2.828.596-1.694 0-3.072-.548-4.137-1.646C.534 13.948 0 12.574 0 10.922 0 9.27.532 7.824 1.593 6.706 2.654 5.588 3.986 5.03 5.588 5.03c1.7 0 3.083.56 4.148 1.676 1.065 1.118 1.599 2.594 1.599 4.43l-.01.53-.002.002zM8.614 9.476a2.783 2.783 0 00-1.059-1.508c-.528-.388-1.137-.582-1.834-.582-.756 0-1.418.218-1.988.652-.359.272-.69.75-.995 1.438H8.614zM19.77 6.866l-1.676 1.722c-.682-.694-1.301-1.04-1.856-1.04-.304 0-.543.066-.715.198a.598.598 0 00-.257.494c0 .15.055.288.164.412.109.126.378.298.808.514l.993.51c1.046.53 1.764 1.07 2.154 1.62.389.55.586 1.196.586 1.936 0 .986-.353 1.808-1.058 2.466-.704.66-1.649.988-2.833.988-1.575 0-2.831-.632-3.771-1.896l1.666-1.866c.318.38.69.688 1.116.922.426.234.806.352 1.137.352.358 0 .645-.088.863-.264.218-.176.327-.38.327-.612 0-.428-.393-.846-1.18-1.254l-.913-.468c-1.747-.904-2.62-2.036-2.62-3.394 0-.876.33-1.626.988-2.248.658-.622 1.501-.932 2.525-.932.701 0 1.361.158 1.98.474a4.42 4.42 0 011.574 1.36l-.002.006zM22.605 13.502c.43 0 .799.154 1.102.464.304.31.456.684.456 1.126 0 .442-.152.82-.456 1.132a1.483 1.483 0 01-1.102.468c-.43 0-.796-.156-1.102-.468a1.564 1.564 0 01-.455-1.132c0-.442.152-.818.455-1.126.304-.31.672-.464 1.102-.464zM28.526 1.414h2.707l3.386 10.46 3.416-10.46h2.706l2.452 14.996h-2.685l-1.566-9.47-3.104 9.47h-2.451l-3.073-9.47-1.602 9.47h-2.713l2.527-14.996zM55.822 11.67h-8.704c.125.79.462 1.416 1.007 1.883.545.463 1.242.697 2.091.697 1.012 0 1.883-.364 2.611-1.091l2.284 1.101c-.568.829-1.25 1.444-2.046 1.842-.795.398-1.737.596-2.83.596-1.694 0-3.072-.547-4.14-1.646-1.064-1.098-1.598-2.471-1.598-4.122 0-1.65.53-3.098 1.593-4.214C47.153 5.6 48.485 5.04 50.085 5.04c1.7 0 3.083.56 4.148 1.676 1.065 1.12 1.599 2.594 1.599 4.428l-.01.53h-.004l.004-.004zm-2.71-2.192a2.794 2.794 0 00-1.06-1.508c-.527-.388-1.137-.582-1.834-.582-.756 0-1.418.218-1.99.652-.358.272-.691.752-.995 1.438h5.879zM65.743 1.034h2.71v15.373h-2.71v-1.172c-.53.516-1.06.89-1.59 1.116a4.371 4.371 0 01-1.732.342c-1.394 0-2.6-.556-3.618-1.666-1.018-1.11-1.528-2.492-1.528-4.144 0-1.652.49-3.116 1.477-4.212.986-1.094 2.18-1.642 3.59-1.642a4.48 4.48 0 011.824.376c.568.25 1.092.63 1.575 1.132V1.034h.002zm-2.85 6.567c-.838 0-1.535.302-2.088.912-.553.608-.832 1.388-.832 2.34s.283 1.746.846 2.364c.562.618 1.255.926 2.081.926.826 0 1.558-.302 2.117-.912.56-.608.839-1.404.839-2.392s-.28-1.746-.84-2.346c-.56-.596-1.267-.896-2.126-.896V7.6h.002zM72.285.75c.474 0 .883.178 1.221.53.34.354.51.782.51 1.284s-.169.92-.506 1.27c-.337.348-.738.526-1.205.526-.467 0-.894-.178-1.233-.536a1.822 1.822 0 01-.51-1.3c0-.51.168-.908.502-1.254.337-.346.742-.52 1.218-.52h.003zM70.93 5.316h2.71v11.09h-2.71V5.316zM86.592 7.562l-2.255 1.276c-.422-.456-.843-.77-1.256-.948-.415-.178-.9-.266-1.456-.266-1.013 0-1.835.308-2.46.93-.625.62-.938 1.416-.938 2.386 0 .97.3 1.712.905 2.312.602.596 1.394.896 2.376.896 1.21 0 2.155-.426 2.831-1.276l2.134 1.502c-1.159 1.548-2.792 2.322-4.905 2.322-1.9 0-3.386-.578-4.46-1.734-1.076-1.156-1.615-2.508-1.615-4.058 0-1.074.263-2.062.783-2.966a5.644 5.644 0 012.188-2.132c.935-.516 1.984-.774 3.141-.774 1.073 0 2.035.22 2.888.658a5.497 5.497 0 012.093 1.872v.004l.006-.004zM96.008 5.316h2.71v11.09h-2.71v-1.172c-.53.516-1.06.89-1.59 1.116a4.371 4.371 0 01-1.732.342c-1.394 0-2.6-.556-3.618-1.666-1.018-1.11-1.528-2.492-1.528-4.144 0-1.652.49-3.116 1.478-4.212.985-1.094 2.179-1.642 3.588-1.642a4.48 4.48 0 011.825.376c.569.25 1.092.63 1.575 1.132V5.312v.004h.002zM93.158 7.6c-.838 0-1.535.302-2.088.912-.553.608-.831 1.388-.831 2.34s.282 1.746.845 2.364c.562.618 1.256.926 2.081.926.826 0 1.558-.302 2.117-.912.56-.608.84-1.404.84-2.392s-.281-1.746-.84-2.346c-.561-.596-1.268-.896-2.126-.896V7.6h.001zM101.018 5.316h2.323v1.398c.249-.55.586-.97 1.003-1.254a2.377 2.377 0 011.368-.428c.351 0 .719.094 1.103.284l-.844 2.394c-.319-.162-.578-.244-.782-.244-.417 0-.769.266-1.058.796-.288.53-.432 1.57-.432 3.12l.01.542v4.486h-2.689V5.316h-.004.002zM118.412 11.67h-8.704c.125.79.462 1.416 1.007 1.883.545.463 1.242.697 2.091.697 1.013 0 1.883-.364 2.612-1.091l2.284 1.101c-.569.829-1.251 1.444-2.047 1.842-.794.398-1.737.596-2.829.596-1.694 0-3.073-.547-4.14-1.646-1.065-1.098-1.599-2.471-1.599-4.122 0-1.65.53-3.098 1.593-4.214 1.063-1.116 2.395-1.676 3.996-1.676 1.7 0 3.082.56 4.147 1.676 1.065 1.12 1.599 2.594 1.599 4.428l-.01.53h-.004l.004-.004zm-2.71-2.192a2.796 2.796 0 00-1.059-1.508c-.526-.386-1.138-.582-1.835-.582-.755 0-1.417.218-1.99.652-.358.272-.691.752-.995 1.438h5.879zM121.205 13.504c.428 0 .798.156 1.102.464.304.308.455.686.455 1.126 0 .44-.151.82-.455 1.132a1.486 1.486 0 01-1.102.468c-.429 0-.799-.156-1.102-.468a1.561 1.561 0 01-.456-1.132c0-.444.152-.816.456-1.126a1.495 1.495 0 011.102-.464zM132.699 5.316h2.701v9.5c0 1.874-.366 3.254-1.102 4.138-.985 1.196-2.471 1.796-4.457 1.796-1.06 0-1.947-.134-2.672-.406a4.743 4.743 0 01-1.824-1.198c-.497-.526-.863-1.168-1.102-1.92h2.987c.264.312.603.548 1.022.71.417.16.911.238 1.48.238.726 0 1.312-.116 1.756-.346.444-.232.756-.53.939-.896.181-.368.274-1 .274-1.896-.477.49-.977.842-1.497 1.056-.524.214-1.114.322-1.778.322-1.451 0-2.674-.536-3.672-1.612-.997-1.074-1.498-2.432-1.498-4.078 0-1.758.53-3.174 1.587-4.242.958-.964 2.105-1.446 3.433-1.446.623 0 1.209.116 1.762.352.553.236 1.108.62 1.661 1.156V5.316zm-2.808 2.316c-.854 0-1.557.294-2.114.88-.557.588-.834 1.328-.834 2.218 0 .89.287 1.682.855 2.272.569.59 1.283.886 2.144.886.861 0 1.534-.288 2.078-.866.545-.578.819-1.336.819-2.272 0-.936-.274-1.676-.825-2.254-.547-.578-1.256-.866-2.123-.866v.002zM143.043 5.032a5.63 5.63 0 012.874.786 5.595 5.595 0 012.099 2.132c.502.896.753 1.866.753 2.906s-.253 2.024-.759 2.936a5.59 5.59 0 01-4.958 2.904c-1.548 0-2.87-.566-3.966-1.698-1.096-1.132-1.643-2.504-1.643-4.122 0-1.734.619-3.178 1.855-4.334 1.085-1.006 2.331-1.508 3.743-1.508l.004-.004-.002.002zm.045 2.622c-.844 0-1.543.3-2.103.902-.561.602-.84 1.37-.84 2.31s.277 1.746.832 2.346c.553.6 1.254.896 2.103.896.849 0 1.554-.302 2.116-.908.563-.606.845-1.382.845-2.334 0-.952-.276-1.726-.831-2.318-.553-.594-1.26-.894-2.122-.894zM149.041 5.316h2.762l2.728 6.547 2.722-6.547h2.745l-4.595 11.09h-1.756l-4.608-11.09h.004-.002zM160.431 19.094L167.022.892h1.949l-6.602 18.202h-1.938zM171.799 1.323h8.085v2.8h-5.31V6.86h3.45v2.758h-3.45v6.788h-2.775V1.32v.002zM181.309 5.25h2.336v1.404c.254-.554.591-.974 1.009-1.262a2.38 2.38 0 011.379-.43c.352 0 .722.096 1.108.288l-.849 2.41c-.32-.164-.582-.246-.789-.246-.419 0-.773.266-1.063.8-.29.534-.434 1.58-.434 3.138l.009.544v4.512h-2.704V5.25h-.002zM196.505 5.25h2.726V16.41h-2.726v-1.18c-.532.52-1.065.893-1.601 1.122a4.363 4.363 0 01-1.741.344c-1.402 0-2.617-.558-3.639-1.677-1.024-1.118-1.536-2.508-1.536-4.168 0-1.66.494-3.134 1.485-4.236.991-1.1 2.195-1.652 3.61-1.652a4.46 4.46 0 011.835.38c.572.254 1.1.632 1.585 1.138V5.25h.002zm-2.865 2.298c-.843 0-1.542.306-2.099.918-.557.612-.835 1.396-.835 2.354 0 .958.284 1.758.851 2.38.566.623 1.266.934 2.095.934.83 0 1.566-.306 2.13-.918.565-.611.845-1.413.845-2.403s-.282-1.757-.845-2.359c-.564-.602-1.277-.902-2.14-.902l-.002-.004zM201.976 5.25h2.756v5.373c0 1.046.07 1.772.21 2.18.14.406.366.724.675.948.31.224.692.338 1.147.338.456 0 .84-.112 1.157-.334.317-.222.553-.548.705-.98.113-.322.169-1.008.169-2.062V5.247h2.726v4.728c0 1.948-.15 3.282-.449 4-.367.876-.906 1.546-1.619 2.016-.712.468-1.618.702-2.716.702-1.192 0-2.155-.274-2.889-.82-.737-.546-1.253-1.31-1.552-2.286-.213-.676-.32-1.908-.32-3.692V5.25zM222.274.942H225v15.464h-2.726v-1.18c-.532.52-1.065.894-1.601 1.122a4.358 4.358 0 01-1.74.344c-1.402 0-2.617-.558-3.64-1.676-1.024-1.118-1.536-2.508-1.536-4.168 0-1.66.495-3.134 1.486-4.236.991-1.1 2.194-1.652 3.61-1.652a4.46 4.46 0 011.834.38c.572.254 1.1.632 1.585 1.138V.94l.002.002zm-2.864 6.604c-.844 0-1.543.306-2.099.918-.557.612-.836 1.396-.836 2.354 0 .958.284 1.758.851 2.38.567.622 1.266.934 2.095.934.83 0 1.566-.306 2.131-.918.564-.612.845-1.414.845-2.404s-.283-1.756-.845-2.358c-.565-.602-1.278-.902-2.14-.902l-.002-.004z" fill="#fff"/></svg>