<svg width="180" height="98" viewBox="0 0 180 98" fill="none" xmlns="http://www.w3.org/2000/svg"><path d="M6.93 16.231c-1.19 0-2.324-.14-3.402-.42-1.064-.294-1.96-.686-2.688-1.176l1.092-3.003c.462.294.966.546 1.512.756.546.21 1.113.378 1.701.504a9.967 9.967 0 001.827.168c.924 0 1.561-.119 1.911-.357.364-.238.546-.546.546-.924 0-.336-.119-.595-.357-.777-.238-.196-.686-.364-1.344-.504l-2.562-.525c-1.358-.28-2.373-.763-3.045-1.449-.672-.7-1.008-1.61-1.008-2.73 0-.98.259-1.827.777-2.541.532-.728 1.274-1.288 2.226-1.68.952-.406 2.065-.609 3.339-.609a9.71 9.71 0 012.961.441c.924.28 1.68.672 2.268 1.176l-1.092 2.814a6.253 6.253 0 00-1.89-.924c-.7-.224-1.477-.336-2.331-.336-.812 0-1.428.126-1.848.378-.406.238-.609.581-.609 1.029 0 .308.119.574.357.798.252.21.707.385 1.365.525l2.52.504c1.358.266 2.373.742 3.045 1.428.686.686 1.029 1.582 1.029 2.688 0 .952-.266 1.785-.798 2.499-.518.714-1.246 1.267-2.184 1.659-.938.392-2.044.588-3.318.588zM15.454 16V5.332h3.738V16h-3.738zM15.37 3.82V.46h3.927v3.36H15.37zM27.994 16V8.251a25.762 25.762 0 00-.168-2.919h3.612l.399 3.276h-.567c.14-.798.364-1.456.672-1.974.308-.518.693-.903 1.155-1.155.462-.252 1.008-.378 1.638-.378.294 0 .511.014.651.042.154.014.315.056.483.126v3.276c-.35-.154-.63-.252-.84-.294a4.32 4.32 0 00-.819-.063c-.574 0-1.043.105-1.407.315-.364.196-.63.504-.798.924-.154.42-.231.959-.231 1.617V16h-3.78zm14.656.231c-1.932 0-3.437-.497-4.515-1.491-1.064-.994-1.596-2.359-1.596-4.095 0-1.078.224-2.037.672-2.877a4.793 4.793 0 011.89-1.953c.812-.476 1.764-.714 2.856-.714 1.078 0 1.974.238 2.688.714.728.462 1.274 1.106 1.638 1.932.364.812.546 1.757.546 2.835v.798h-7.16V9.616h4.41l-.358.294c0-.798-.154-1.386-.462-1.764-.294-.392-.714-.588-1.26-.588-.63 0-1.113.238-1.449.714-.322.462-.483 1.162-.483 2.1v.378c0 .938.231 1.624.693 2.058.462.434 1.127.651 1.995.651.56 0 1.085-.063 1.575-.189a4.94 4.94 0 001.428-.609l.966 2.436a6.21 6.21 0 01-1.848.84 8.22 8.22 0 01-2.226.294zm11.566 0c-1.176 0-2.205-.224-3.087-.672a4.937 4.937 0 01-2.058-1.911c-.49-.84-.735-1.841-.735-3.003 0-1.162.245-2.156.735-2.982a4.802 4.802 0 012.058-1.89c.882-.448 1.911-.672 3.087-.672.728 0 1.442.098 2.142.294.7.196 1.267.476 1.701.84l-1.05 2.541a3.429 3.429 0 00-1.155-.63 3.584 3.584 0 00-1.239-.231c-.77 0-1.372.231-1.806.693-.42.462-.63 1.141-.63 2.037 0 .896.21 1.582.63 2.058.434.462 1.036.693 1.806.693.392 0 .805-.07 1.24-.21a3.998 3.998 0 001.154-.63l1.05 2.541c-.448.35-1.022.63-1.722.84a7.683 7.683 0 01-2.12.294zm5.6-.231V5.332h3.738V16h-3.738zm-.084-12.18V.46h3.927v3.36h-3.927zM73.07 16.231a4.337 4.337 0 01-2.226-.588c-.658-.392-1.092-.91-1.302-1.554h.231V16h-3.696V.544h3.738v6.594h-.252c.238-.616.68-1.106 1.323-1.47a4.306 4.306 0 012.184-.567c.924 0 1.736.224 2.436.672.714.448 1.267 1.092 1.66 1.932.405.84.608 1.834.608 2.982 0 1.162-.203 2.156-.609 2.982-.392.826-.945 1.463-1.659 1.911-.7.434-1.512.651-2.436.651zm-1.176-2.772c.616 0 1.12-.217 1.512-.651.406-.434.61-1.141.61-2.121s-.204-1.694-.61-2.142c-.392-.448-.896-.672-1.512-.672-.63 0-1.14.224-1.533.672-.392.434-.588 1.141-.588 2.121s.196 1.694.588 2.142c.392.434.903.651 1.533.651zm13.536 2.772c-1.932 0-3.437-.497-4.515-1.491-1.064-.994-1.596-2.359-1.596-4.095 0-1.078.224-2.037.672-2.877a4.793 4.793 0 011.89-1.953c.812-.476 1.764-.714 2.856-.714 1.078 0 1.974.238 2.688.714.728.462 1.274 1.106 1.638 1.932.364.812.546 1.757.546 2.835v.798h-7.161V9.616h4.41l-.357.294c0-.798-.154-1.386-.462-1.764-.294-.392-.714-.588-1.26-.588-.63 0-1.113.238-1.45.714-.321.462-.482 1.162-.482 2.1v.378c0 .938.23 1.624.693 2.058.462.434 1.127.651 1.995.651.56 0 1.085-.063 1.575-.189a4.94 4.94 0 001.428-.609l.966 2.436a6.21 6.21 0 01-1.848.84 8.22 8.22 0 01-2.226.294zm10.264 0c-.994 0-1.897-.098-2.71-.294-.797-.21-1.476-.49-2.036-.84l.903-2.436c.546.308 1.155.56 1.827.756a7.389 7.389 0 002.037.294c.532 0 .917-.077 1.155-.231.252-.168.378-.385.378-.651a.618.618 0 00-.231-.504c-.154-.126-.385-.217-.693-.273l-2.268-.399c-.896-.168-1.596-.497-2.1-.987-.49-.504-.735-1.155-.735-1.953 0-.728.196-1.358.588-1.89.392-.546.952-.966 1.68-1.26.728-.308 1.589-.462 2.583-.462.812 0 1.582.091 2.31.273.742.182 1.386.469 1.932.861l-.966 2.373a5.746 5.746 0 00-1.533-.714C97.24 7.698 96.7 7.6 96.197 7.6c-.602 0-1.03.091-1.281.273-.252.168-.378.378-.378.63 0 .196.07.364.21.504.14.126.364.217.672.273l2.268.399c.924.154 1.63.476 2.12.966.505.476.757 1.127.757 1.953 0 .77-.21 1.428-.63 1.974-.406.532-.973.945-1.701 1.239-.728.28-1.575.42-2.541.42zm16.945 0c-1.358 0-2.366-.371-3.024-1.113-.644-.756-.966-1.897-.966-3.423V5.332h3.738v6.384c0 .56.112.98.336 1.26.238.266.595.399 1.071.399.532 0 .966-.189 1.302-.567.35-.392.525-.903.525-1.533V5.332h3.738V16h-3.633v-1.911h.315c-.336.686-.791 1.218-1.365 1.596-.574.364-1.253.546-2.037.546zm9.265-.231V8.23a25.398 25.398 0 00-.168-2.898h3.612l.21 1.848h-.231a3.584 3.584 0 011.491-1.533c.644-.364 1.372-.546 2.184-.546 1.246 0 2.177.371 2.793 1.113.63.728.945 1.869.945 3.423V16h-3.738V9.805c0-.686-.119-1.162-.357-1.428-.238-.28-.581-.42-1.029-.42-.588 0-1.064.196-1.428.588-.364.378-.546.882-.546 1.512V16h-3.738zm17.494.231c-.924 0-1.736-.217-2.436-.651-.7-.448-1.253-1.092-1.659-1.932-.392-.84-.588-1.834-.588-2.982 0-1.162.196-2.156.588-2.982.406-.84.959-1.477 1.659-1.911.7-.448 1.512-.672 2.436-.672.826 0 1.568.196 2.226.588.672.392 1.113.903 1.323 1.533h-.21l.231-1.89h3.591l-.126 1.449c-.028.49-.042.973-.042 1.449V16h-3.696l-.042-1.806h.252c-.21.616-.651 1.113-1.323 1.491a4.436 4.436 0 01-2.184.546zm1.197-2.772c.63 0 1.141-.217 1.533-.651.392-.448.588-1.162.588-2.142s-.196-1.687-.588-2.121c-.392-.448-.903-.672-1.533-.672-.63 0-1.141.224-1.533.672-.392.434-.588 1.141-.588 2.121s.189 1.694.567 2.142c.392.434.91.651 1.554.651zM1.155 43V27.544h3.738V43H1.155zm6.26 0V27.544h3.738V43H7.415zm10.46.231c-.924 0-1.736-.217-2.436-.651-.7-.448-1.253-1.092-1.66-1.932-.391-.84-.587-1.834-.587-2.982 0-1.162.196-2.156.588-2.982.406-.84.959-1.477 1.659-1.911.7-.448 1.512-.672 2.436-.672.826 0 1.568.196 2.226.588.672.392 1.113.903 1.323 1.533h-.21l.23-1.89h3.592l-.126 1.449c-.028.49-.042.973-.042 1.449V43h-3.696l-.042-1.806h.252c-.21.616-.651 1.113-1.323 1.491a4.436 4.436 0 01-2.184.546zm1.197-2.772c.63 0 1.14-.217 1.533-.651.392-.448.588-1.162.588-2.142s-.196-1.687-.588-2.121c-.392-.448-.903-.672-1.533-.672-.63 0-1.141.224-1.533.672-.392.434-.588 1.141-.588 2.121s.189 1.694.567 2.142c.392.434.91.651 1.554.651zM27.399 43v-7.77a25.398 25.398 0 00-.168-2.898h3.612l.21 1.848h-.23a3.484 3.484 0 011.364-1.512c.602-.378 1.31-.567 2.121-.567.784 0 1.45.189 1.995.567.56.364.966.945 1.218 1.743h-.357a3.97 3.97 0 011.512-1.701 4.26 4.26 0 012.247-.609c1.218 0 2.128.371 2.73 1.113.602.728.903 1.869.903 3.423V43h-3.759v-6.237c0-.658-.098-1.12-.294-1.386-.196-.28-.51-.42-.945-.42-.546 0-.973.196-1.28.588-.295.392-.442.931-.442 1.617V43h-3.738v-6.237c0-.658-.105-1.12-.315-1.386-.196-.28-.504-.42-.924-.42-.546 0-.973.196-1.28.588-.295.392-.442.931-.442 1.617V43H27.4zm23.81.231c-.923 0-1.735-.217-2.435-.651-.7-.448-1.253-1.092-1.66-1.932-.391-.84-.587-1.834-.587-2.982 0-1.162.196-2.156.588-2.982.406-.84.959-1.477 1.659-1.911.7-.448 1.512-.672 2.436-.672.826 0 1.568.196 2.226.588.672.392 1.113.903 1.323 1.533h-.21l.23-1.89h3.592l-.126 1.449c-.028.49-.042.973-.042 1.449V43h-3.696l-.042-1.806h.252c-.21.616-.651 1.113-1.323 1.491a4.436 4.436 0 01-2.184.546zm1.198-2.772c.63 0 1.14-.217 1.533-.651.392-.448.588-1.162.588-2.142s-.196-1.687-.588-2.121c-.392-.448-.903-.672-1.533-.672-.63 0-1.141.224-1.533.672-.392.434-.588 1.141-.588 2.121s.189 1.694.567 2.142c.392.434.91.651 1.554.651zm12.57 2.772c-.91 0-1.723-.217-2.437-.651-.714-.448-1.274-1.092-1.68-1.932-.406-.84-.609-1.834-.609-2.982 0-1.162.196-2.156.588-2.982.406-.84.966-1.477 1.68-1.911.728-.448 1.547-.672 2.457-.672.812 0 1.547.189 2.205.567.658.364 1.1.854 1.323 1.47h-.315v-6.594h3.738V43h-3.675v-1.911h.273c-.196.644-.63 1.162-1.302 1.554-.658.392-1.407.588-2.247.588zm1.196-2.772c.616 0 1.12-.217 1.512-.651.406-.448.61-1.162.61-2.142s-.204-1.687-.61-2.121c-.392-.448-.896-.672-1.512-.672-.63 0-1.148.224-1.554.672-.392.434-.588 1.141-.588 2.121s.196 1.694.588 2.142c.406.434.924.651 1.554.651zm12.486 2.772c-.924 0-1.736-.217-2.436-.651-.7-.448-1.253-1.092-1.66-1.932-.391-.84-.587-1.834-.587-2.982 0-1.162.196-2.156.588-2.982.406-.84.959-1.477 1.659-1.911.7-.448 1.512-.672 2.436-.672.826 0 1.568.196 2.226.588.672.392 1.113.903 1.323 1.533h-.21l.23-1.89h3.592l-.126 1.449c-.028.49-.042.973-.042 1.449V43h-3.696l-.042-1.806h.252c-.21.616-.651 1.113-1.323 1.491a4.436 4.436 0 01-2.184.546zm1.197-2.772c.63 0 1.14-.217 1.533-.651.392-.448.588-1.162.588-2.142s-.196-1.687-.588-2.121c-.392-.448-.903-.672-1.533-.672-.63 0-1.141.224-1.533.672-.392.434-.588 1.141-.588 2.121s.189 1.694.567 2.142c.392.434.91.651 1.554.651zm9.84 5.796l-1.407-1.113c.546-.532.93-1.036 1.155-1.512a3.38 3.38 0 00.357-1.533l.798.903h-2.667v-3.822h3.885v2.415c0 .882-.161 1.68-.483 2.394-.308.728-.854 1.484-1.638 2.268zm14.627-3.024c-1.358 0-2.366-.371-3.024-1.113-.644-.756-.966-1.897-.966-3.423v-6.363h3.738v6.384c0 .56.112.98.336 1.26.238.266.595.399 1.071.399.532 0 .966-.189 1.302-.567.35-.392.525-.903.525-1.533v-5.943h3.738V43h-3.633v-1.911h.315c-.336.686-.791 1.218-1.365 1.596-.574.364-1.253.546-2.037.546zm9.264-.231v-7.77a25.398 25.398 0 00-.168-2.898h3.612l.21 1.848h-.231a3.584 3.584 0 011.491-1.533c.644-.364 1.372-.546 2.184-.546 1.246 0 2.177.371 2.793 1.113.63.728.945 1.869.945 3.423V43h-3.738v-6.195c0-.686-.119-1.162-.357-1.428-.238-.28-.581-.42-1.029-.42-.588 0-1.064.196-1.428.588-.364.378-.546.882-.546 1.512V43h-3.738zM1.155 70v-7.77a25.398 25.398 0 00-.168-2.898h3.612l.21 1.848h-.231a3.484 3.484 0 011.365-1.512c.602-.378 1.309-.567 2.121-.567.784 0 1.449.189 1.995.567.56.364.966.945 1.218 1.743h-.357a3.97 3.97 0 011.512-1.701 4.26 4.26 0 012.247-.609c1.218 0 2.128.371 2.73 1.113.602.728.903 1.869.903 3.423V70h-3.759v-6.237c0-.658-.098-1.12-.294-1.386-.196-.28-.511-.42-.945-.42-.546 0-.973.196-1.281.588-.294.392-.441.931-.441 1.617V70H7.854v-6.237c0-.658-.105-1.12-.315-1.386-.196-.28-.504-.42-.924-.42-.546 0-.973.196-1.281.588-.294.392-.441.931-.441 1.617V70H1.155zm25.238.231c-1.932 0-3.437-.497-4.515-1.491-1.064-.994-1.596-2.359-1.596-4.095 0-1.078.224-2.037.672-2.877a4.793 4.793 0 011.89-1.953c.812-.476 1.764-.714 2.856-.714 1.078 0 1.974.238 2.688.714.728.462 1.274 1.106 1.638 1.932.364.812.546 1.757.546 2.835v.798h-7.16v-1.764h4.41l-.358.294c0-.798-.154-1.386-.462-1.764-.294-.392-.714-.588-1.26-.588-.63 0-1.113.238-1.449.714-.322.462-.483 1.162-.483 2.1v.378c0 .938.231 1.624.693 2.058.462.434 1.127.651 1.995.651.56 0 1.085-.063 1.575-.189a4.94 4.94 0 001.428-.609l.966 2.436a6.21 6.21 0 01-1.848.84 8.22 8.22 0 01-2.226.294zm6.17-.231v-7.77a25.398 25.398 0 00-.169-2.898h3.612l.21 1.848h-.23a3.584 3.584 0 011.49-1.533c.644-.364 1.372-.546 2.184-.546 1.246 0 2.177.371 2.793 1.113.63.728.945 1.869.945 3.423V70H39.66v-6.195c0-.686-.119-1.162-.357-1.428-.238-.28-.58-.42-1.029-.42-.588 0-1.064.196-1.428.588-.364.378-.546.882-.546 1.512V70h-3.738zm17.388.231c-.994 0-1.897-.098-2.709-.294-.798-.21-1.477-.49-2.037-.84l.903-2.436c.546.308 1.155.56 1.827.756a7.389 7.389 0 002.037.294c.532 0 .917-.077 1.155-.231.252-.168.378-.385.378-.651a.618.618 0 00-.23-.504c-.155-.126-.386-.217-.694-.273l-2.268-.399c-.896-.168-1.596-.497-2.1-.987-.49-.504-.735-1.155-.735-1.953 0-.728.196-1.358.588-1.89.392-.546.952-.966 1.68-1.26.728-.308 1.59-.462 2.583-.462.812 0 1.582.091 2.31.273.742.182 1.386.469 1.932.861l-.966 2.373a5.746 5.746 0 00-1.533-.714c-.574-.196-1.113-.294-1.617-.294-.602 0-1.029.091-1.28.273-.253.168-.379.378-.379.63 0 .196.07.364.21.504.14.126.364.217.672.273l2.268.399c.924.154 1.631.476 2.121.966.504.476.756 1.127.756 1.953 0 .77-.21 1.428-.63 1.974-.406.532-.973.945-1.7 1.239-.729.28-1.576.42-2.542.42zm10.938 0c-.924 0-1.736-.217-2.436-.651-.7-.448-1.253-1.092-1.659-1.932-.392-.84-.588-1.834-.588-2.982 0-1.162.196-2.156.588-2.982.406-.84.96-1.477 1.66-1.911.7-.448 1.511-.672 2.435-.672.826 0 1.568.196 2.226.588.672.392 1.113.903 1.323 1.533h-.21l.231-1.89h3.591l-.126 1.449c-.028.49-.042.973-.042 1.449V70h-3.696l-.042-1.806h.252c-.21.616-.65 1.113-1.323 1.491a4.436 4.436 0 01-2.184.546zm1.197-2.772c.63 0 1.141-.217 1.533-.651.392-.448.588-1.162.588-2.142s-.196-1.687-.588-2.121c-.392-.448-.903-.672-1.533-.672-.63 0-1.14.224-1.533.672-.392.434-.588 1.141-.588 2.121s.19 1.694.567 2.142c.392.434.91.651 1.554.651zm7.656 7.266a8.12 8.12 0 01-1.008-.063 3.777 3.777 0 01-.966-.252v-2.877c.21.07.413.119.609.147.182.028.378.042.588.042.406 0 .742-.119 1.008-.357.28-.224.42-.637.42-1.239V59.332h3.738v10.92c0 1.47-.35 2.583-1.05 3.339-.686.756-1.799 1.134-3.339 1.134zm.546-16.905v-3.36h3.927v3.36h-3.927zm12.014 12.411c-1.932 0-3.437-.497-4.515-1.491-1.064-.994-1.596-2.359-1.596-4.095 0-1.078.224-2.037.672-2.877a4.793 4.793 0 011.89-1.953c.812-.476 1.764-.714 2.856-.714 1.078 0 1.974.238 2.688.714.728.462 1.274 1.106 1.638 1.932.364.812.546 1.757.546 2.835v.798H79.32v-1.764h4.41l-.357.294c0-.798-.154-1.386-.462-1.764-.294-.392-.714-.588-1.26-.588-.63 0-1.113.238-1.45.714-.321.462-.482 1.162-.482 2.1v.378c0 .938.23 1.624.693 2.058.462.434 1.127.651 1.995.651.56 0 1.085-.063 1.575-.189a4.94 4.94 0 001.428-.609l.966 2.436a6.21 6.21 0 01-1.848.84 8.22 8.22 0 01-2.226.294zm16.691 0c-.91 0-1.722-.217-2.436-.651-.714-.448-1.274-1.092-1.68-1.932-.406-.84-.609-1.834-.609-2.982 0-1.162.196-2.156.588-2.982.406-.84.966-1.477 1.68-1.911.728-.448 1.547-.672 2.457-.672.812 0 1.547.189 2.205.567.658.364 1.099.854 1.323 1.47h-.315v-6.594h3.738V70h-3.675v-1.911h.273c-.196.644-.63 1.162-1.302 1.554-.658.392-1.407.588-2.247.588zm1.197-2.772c.616 0 1.12-.217 1.512-.651.406-.448.609-1.162.609-2.142s-.203-1.687-.609-2.121c-.392-.448-.896-.672-1.512-.672-.63 0-1.148.224-1.554.672-.392.434-.588 1.141-.588 2.121s.196 1.694.588 2.142c.406.434.924.651 1.554.651zm13.914 2.772c-1.932 0-3.437-.497-4.515-1.491-1.064-.994-1.596-2.359-1.596-4.095 0-1.078.224-2.037.672-2.877a4.793 4.793 0 011.89-1.953c.812-.476 1.764-.714 2.856-.714 1.078 0 1.974.238 2.688.714.728.462 1.274 1.106 1.638 1.932.364.812.546 1.757.546 2.835v.798h-7.161v-1.764h4.41l-.357.294c0-.798-.154-1.386-.462-1.764-.294-.392-.714-.588-1.26-.588-.63 0-1.113.238-1.449.714-.322.462-.483 1.162-.483 2.1v.378c0 .938.231 1.624.693 2.058.462.434 1.127.651 1.995.651.56 0 1.085-.063 1.575-.189a4.94 4.94 0 001.428-.609l.966 2.436a6.21 6.21 0 01-1.848.84 8.22 8.22 0 01-2.226.294zm17.909 0c-1.512 0-2.653-.357-3.423-1.071-.756-.728-1.134-1.827-1.134-3.297v-3.78h-1.995v-2.751h1.995v-2.52l3.738-.882v3.402h2.604v2.751h-2.604v3.633c0 .616.14 1.029.42 1.239.28.196.616.294 1.008.294.238 0 .441-.014.609-.042.182-.042.371-.098.567-.168v2.877c-.308.126-.616.21-.924.252a6.085 6.085 0 01-.861.063zm8.971 0c-1.932 0-3.437-.497-4.515-1.491-1.064-.994-1.596-2.359-1.596-4.095 0-1.078.224-2.037.672-2.877a4.793 4.793 0 011.89-1.953c.812-.476 1.764-.714 2.856-.714 1.078 0 1.974.238 2.688.714.728.462 1.274 1.106 1.638 1.932.364.812.546 1.757.546 2.835v.798h-7.161v-1.764h4.41l-.357.294c0-.798-.154-1.386-.462-1.764-.294-.392-.714-.588-1.26-.588-.63 0-1.113.238-1.449.714-.322.462-.483 1.162-.483 2.1v.378c0 .938.231 1.624.693 2.058.462.434 1.127.651 1.995.651.56 0 1.085-.063 1.575-.189a4.94 4.94 0 001.428-.609l.966 2.436a6.21 6.21 0 01-1.848.84 8.22 8.22 0 01-2.226.294zm4.258-.231l5.166-6.3v1.617l-4.872-5.985h4.368l2.646 3.465h-1.344l2.667-3.465h4.347l-4.872 6.006v-1.68L158.535 70h-4.41l-2.919-3.759h1.344L149.61 70h-4.368zm19.455.231c-1.512 0-2.653-.357-3.423-1.071-.756-.728-1.134-1.827-1.134-3.297v-3.78h-1.995v-2.751h1.995v-2.52l3.738-.882v3.402h2.604v2.751h-2.604v3.633c0 .616.14 1.029.42 1.239.28.196.616.294 1.008.294.238 0 .441-.014.609-.042.182-.042.371-.098.567-.168v2.877c-.308.126-.616.21-.924.252a6.085 6.085 0 01-.861.063zm8.676 0c-1.19 0-2.219-.224-3.087-.672a4.83 4.83 0 01-2.016-1.911c-.476-.84-.714-1.834-.714-2.982 0-1.162.238-2.156.714-2.982a4.83 4.83 0 012.016-1.911c.868-.448 1.897-.672 3.087-.672 1.176 0 2.198.224 3.066.672a4.793 4.793 0 012.016 1.932c.476.826.714 1.813.714 2.961 0 1.134-.238 2.121-.714 2.961a4.793 4.793 0 01-2.016 1.932c-.868.448-1.89.672-3.066.672zm0-2.772c.616 0 1.106-.217 1.47-.651.364-.448.546-1.162.546-2.142s-.182-1.687-.546-2.121c-.364-.448-.854-.672-1.47-.672-.63 0-1.127.224-1.491.672-.364.434-.546 1.141-.546 2.121s.182 1.694.546 2.142c.364.434.861.651 1.491.651zM6.489 97.231c-1.19 0-2.219-.224-3.087-.672a4.83 4.83 0 01-2.016-1.911c-.476-.84-.714-1.834-.714-2.982 0-1.162.238-2.156.714-2.982a4.83 4.83 0 012.016-1.911c.868-.448 1.897-.672 3.087-.672 1.176 0 2.198.224 3.066.672a4.793 4.793 0 012.016 1.932c.476.826.714 1.813.714 2.961 0 1.134-.238 2.121-.714 2.961a4.793 4.793 0 01-2.016 1.932c-.868.448-1.89.672-3.066.672zm0-2.772c.616 0 1.106-.217 1.47-.651.364-.448.546-1.162.546-2.142s-.182-1.687-.546-2.121c-.364-.448-.854-.672-1.47-.672-.63 0-1.127.224-1.491.672-.364.434-.546 1.141-.546 2.121s.182 1.694.546 2.142c.364.434.861.651 1.491.651zm18.044 2.772c-1.358 0-2.366-.371-3.024-1.113-.644-.756-.966-1.897-.966-3.423v-6.363h3.738v6.384c0 .56.112.98.336 1.26.238.266.595.399 1.071.399.532 0 .966-.189 1.302-.567.35-.392.525-.903.525-1.533v-5.943h3.738V97H27.62v-1.911h.315c-.336.686-.79 1.218-1.365 1.596-.574.364-1.253.546-2.037.546zM33.798 97v-7.77a25.398 25.398 0 00-.168-2.898h3.612l.21 1.848h-.231a3.584 3.584 0 011.49-1.533c.645-.364 1.373-.546 2.185-.546 1.246 0 2.177.371 2.793 1.113.63.728.945 1.869.945 3.423V97h-3.738v-6.195c0-.686-.12-1.162-.357-1.428-.238-.28-.581-.42-1.03-.42-.587 0-1.063.196-1.427.588-.364.378-.546.882-.546 1.512V97h-3.738zM59 97.231c-1.932 0-3.437-.497-4.515-1.491-1.064-.994-1.596-2.359-1.596-4.095 0-1.078.224-2.037.672-2.877a4.793 4.793 0 011.89-1.953c.812-.476 1.764-.714 2.856-.714 1.078 0 1.974.238 2.688.714.728.462 1.274 1.106 1.638 1.932.364.812.546 1.757.546 2.835v.798h-7.161v-1.764h4.41l-.357.294c0-.798-.154-1.386-.462-1.764-.294-.392-.714-.588-1.26-.588-.63 0-1.113.238-1.449.714-.322.462-.483 1.162-.483 2.1v.378c0 .938.231 1.624.693 2.058.462.434 1.127.651 1.995.651.56 0 1.085-.063 1.575-.189a4.94 4.94 0 001.428-.609l.966 2.436a6.21 6.21 0 01-1.848.84 8.22 8.22 0 01-2.226.294zM65.169 97v-7.77A25.398 25.398 0 0065 86.332h3.612l.21 1.848h-.231a3.484 3.484 0 011.365-1.512c.602-.378 1.309-.567 2.12-.567.785 0 1.45.189 1.996.567.56.364.966.945 1.218 1.743h-.357a3.97 3.97 0 011.512-1.701 4.26 4.26 0 012.247-.609c1.218 0 2.128.371 2.73 1.113.602.728.903 1.869.903 3.423V97h-3.76v-6.237c0-.658-.097-1.12-.293-1.386-.196-.28-.511-.42-.945-.42-.546 0-.973.196-1.281.588-.294.392-.441.931-.441 1.617V97h-3.738v-6.237c0-.658-.105-1.12-.315-1.386-.196-.28-.504-.42-.924-.42-.546 0-.973.196-1.281.588-.294.392-.441.931-.441 1.617V97h-3.738zm23.81.231c-.924 0-1.736-.217-2.436-.651-.7-.448-1.253-1.092-1.659-1.932-.392-.84-.588-1.834-.588-2.982 0-1.162.196-2.156.588-2.982.406-.84.96-1.477 1.66-1.911.7-.448 1.511-.672 2.435-.672.826 0 1.568.196 2.226.588.672.392 1.113.903 1.323 1.533h-.21l.231-1.89h3.591l-.126 1.449c-.028.49-.042.973-.042 1.449V97h-3.696l-.042-1.806h.252c-.21.616-.65 1.113-1.323 1.491a4.436 4.436 0 01-2.184.546zm1.197-2.772c.63 0 1.141-.217 1.533-.651.392-.448.588-1.162.588-2.142s-.196-1.687-.588-2.121c-.392-.448-.903-.672-1.533-.672-.63 0-1.14.224-1.533.672-.392.434-.588 1.141-.588 2.121s.19 1.694.567 2.142c.392.434.91.651 1.554.651zM98.504 97V86.332h3.738V97h-3.738zm-.084-12.18v-3.36h3.927v3.36H98.42zM104.764 97V81.544h3.738V97h-3.738zm6.008 0v-3.822h3.885V97h-3.885zm5.931 0v-3.822h3.885V97h-3.885zm5.932 0v-3.822h3.885V97h-3.885z" fill="#fff"/></svg>