<svg width="155" height="79" viewBox="0 0 155 79" fill="none" xmlns="http://www.w3.org/2000/svg"><path d="M38.468 9.392h1.69c1.872 0 2.808-.815 2.808-2.444 0-1.63-.936-2.444-2.808-2.444h-1.69v4.888zm0 10.608h-5.096V.396h8.112c2.201 0 3.883.572 5.044 1.716 1.179 1.144 1.768 2.756 1.768 4.836 0 2.08-.59 3.692-1.768 4.836-1.161 1.144-2.843 1.716-5.044 1.716h-3.016V20zM50.031 6.662h4.706v2.184c.503-.797 1.118-1.404 1.846-1.82.728-.433 1.578-.65 2.548-.65h.39c.156 0 .33.017.52.052v4.498a4.471 4.471 0 00-2.028-.468c-1.092 0-1.915.33-2.47.988-.537.641-.806 1.586-.806 2.834V20h-4.706V6.662zm16.14 6.604c0 .45.077.867.233 1.248.174.364.39.685.65.962.278.277.598.494.962.65.381.156.78.234 1.196.234.416 0 .806-.078 1.17-.234.381-.156.702-.373.962-.65.278-.277.494-.598.65-.962.174-.381.26-.789.26-1.222 0-.416-.087-.806-.26-1.17a2.97 2.97 0 00-.65-.988 2.698 2.698 0 00-.962-.65 2.938 2.938 0 00-1.17-.234c-.416 0-.815.078-1.196.234a3.043 3.043 0 00-.962.65c-.26.277-.477.598-.65.962a2.938 2.938 0 00-.234 1.17zm-4.967-.052c0-.988.2-1.907.598-2.756a6.627 6.627 0 011.664-2.236 7.815 7.815 0 012.522-1.508c.988-.364 2.063-.546 3.224-.546 1.144 0 2.201.182 3.172.546.988.347 1.838.84 2.548 1.482a6.415 6.415 0 011.69 2.262c.399.867.598 1.829.598 2.886 0 1.057-.208 2.028-.624 2.912a6.901 6.901 0 01-1.664 2.262c-.71.624-1.569 1.11-2.574 1.456-.988.347-2.063.52-3.224.52-1.144 0-2.201-.173-3.172-.52a7.464 7.464 0 01-2.522-1.482 7.002 7.002 0 01-1.638-2.288c-.398-.901-.598-1.898-.598-2.99zm23.533-2.626V20h-4.706v-9.412h-1.56V6.662h1.56V2.658h4.706v4.004h2.678v3.926h-2.678zm13.932.806c-.156-.659-.477-1.187-.962-1.586-.486-.399-1.075-.598-1.768-.598-.728 0-1.326.19-1.794.572-.451.381-.737.919-.858 1.612h5.382zm-5.512 2.73c0 2.028.953 3.042 2.86 3.042 1.022 0 1.794-.416 2.314-1.248h4.55c-.919 3.05-3.216 4.576-6.89 4.576-1.127 0-2.158-.165-3.094-.494a7.211 7.211 0 01-2.418-1.456 6.515 6.515 0 01-1.534-2.236c-.364-.867-.546-1.837-.546-2.912 0-1.11.173-2.106.52-2.99.346-.901.84-1.664 1.482-2.288a6.437 6.437 0 012.314-1.43c.918-.347 1.95-.52 3.094-.52 1.126 0 2.14.173 3.042.52.9.33 1.664.815 2.288 1.456.624.641 1.1 1.43 1.43 2.366.329.919.494 1.959.494 3.12v.494h-9.906zm16.444-.858c0 .433.078.84.234 1.222.156.364.364.685.624.962.277.277.598.494.962.65.381.156.788.234 1.222.234.416 0 .806-.078 1.17-.234a2.7 2.7 0 00.962-.65c.277-.277.494-.598.65-.962.173-.381.26-.78.26-1.196a2.75 2.75 0 00-.26-1.196 2.98 2.98 0 00-1.638-1.612 2.877 2.877 0 00-1.144-.234c-.416 0-.806.087-1.17.26a3.04 3.04 0 00-.962.65 3.07 3.07 0 00-.676.936 2.938 2.938 0 00-.234 1.17zm10.556-6.604V19.09c0 .745-.044 1.413-.13 2.002a8.659 8.659 0 01-.364 1.56 4.677 4.677 0 01-.988 1.586 6.196 6.196 0 01-1.586 1.3 8.441 8.441 0 01-2.132.858c-.78.208-1.63.312-2.548.312-1.04 0-1.994-.13-2.86-.39a7.76 7.76 0 01-2.288-1.092 6.083 6.083 0 01-1.586-1.612 5.223 5.223 0 01-.832-2.002h5.304c.329.884 1.074 1.326 2.236 1.326.988 0 1.742-.277 2.262-.832.537-.555.806-1.326.806-2.314v-1.274c-.347.33-.685.607-1.014.832a5.785 5.785 0 01-.962.52c-.33.139-.676.234-1.04.286-.364.07-.763.104-1.196.104-.954 0-1.829-.165-2.626-.494a6.309 6.309 0 01-2.08-1.378 6.458 6.458 0 01-1.352-2.106c-.312-.832-.468-1.75-.468-2.756 0-1.023.173-1.967.52-2.834a7.232 7.232 0 011.404-2.288 6.433 6.433 0 012.132-1.534 6.41 6.41 0 012.704-.572c1.577 0 2.903.59 3.978 1.768V6.662h4.706zm12.739 4.732c-.156-.659-.477-1.187-.962-1.586s-1.075-.598-1.768-.598c-.728 0-1.326.19-1.794.572-.451.381-.737.919-.858 1.612h5.382zm-5.512 2.73c0 2.028.953 3.042 2.86 3.042 1.023 0 1.794-.416 2.314-1.248h4.55c-.919 3.05-3.215 4.576-6.89 4.576-1.127 0-2.158-.165-3.094-.494a7.211 7.211 0 01-2.418-1.456 6.511 6.511 0 01-1.534-2.236c-.364-.867-.546-1.837-.546-2.912 0-1.11.173-2.106.52-2.99.347-.901.841-1.664 1.482-2.288a6.438 6.438 0 012.314-1.43c.919-.347 1.95-.52 3.094-.52 1.127 0 2.141.173 3.042.52.901.33 1.664.815 2.288 1.456.624.641 1.101 1.43 1.43 2.366.329.919.494 1.959.494 3.12v.494h-9.906zM3.645 40.42V49H1.118v-8.58H.04v-2.358h1.078v-4.01h2.527v4.01h1.966v2.358H3.645zm6.44-2.358v6.277c0 1.812.716 2.718 2.146 2.718s2.145-.906 2.145-2.718v-6.277h2.527v6.334c0 .876-.109 1.632-.326 2.268-.21.57-.573 1.082-1.09 1.539-.853.74-1.939 1.111-3.256 1.111-1.31 0-2.392-.37-3.246-1.111-.524-.457-.895-.97-1.112-1.539-.21-.51-.314-1.265-.314-2.269v-6.334h2.527zm17.565 0h2.538v1.01c.883-.876 1.879-1.314 2.987-1.314 1.273 0 2.265.4 2.976 1.202.614.681.921 1.793.921 3.335V49h-2.538v-6.11c0-1.078-.15-1.822-.45-2.234-.291-.42-.823-.63-1.594-.63-.839 0-1.434.278-1.786.832-.344.547-.516 1.501-.516 2.864V49H27.65V38.062zm15.38 0v6.277c0 1.812.715 2.718 2.145 2.718 1.43 0 2.145-.906 2.145-2.718v-6.277h2.526v6.334c0 .876-.108 1.632-.325 2.268-.21.57-.573 1.082-1.09 1.539-.853.74-1.939 1.111-3.256 1.111-1.31 0-2.392-.37-3.246-1.111-.524-.457-.895-.97-1.112-1.539-.21-.51-.314-1.265-.314-2.269v-6.334h2.527zm6.109-5.391l-4.088 3.706-1.381-.854 3.088-4.088 2.381 1.236zm4.127 5.39h2.527v1.011c.486-.509.902-.853 1.246-1.033.367-.187.828-.28 1.382-.28 1.235 0 2.212.538 2.93 1.617.794-1.079 1.869-1.618 3.224-1.618 2.463 0 3.695 1.494 3.695 4.481V49h-2.538v-6.076c0-1.048-.127-1.79-.382-2.223-.262-.442-.693-.663-1.291-.663-.697 0-1.206.262-1.528.786-.314.524-.472 1.367-.472 2.527V49h-2.538v-6.042c0-1.947-.561-2.92-1.684-2.92-.712 0-1.232.266-1.561.797-.322.532-.483 1.37-.483 2.516V49h-2.527V38.062zm28.385 6.065h-7.84c.068.898.36 1.613.877 2.145.516.524 1.18.786 1.988.786.629 0 1.149-.15 1.56-.45.405-.299.865-.853 1.382-1.661l2.134 1.19a8.692 8.692 0 01-1.045 1.449c-.366.397-.76.726-1.179.988-.42.255-.872.442-1.359.562-.486.12-1.014.18-1.583.18-1.632 0-2.943-.525-3.93-1.573-.99-1.055-1.483-2.456-1.483-4.2 0-1.73.479-3.13 1.437-4.2.966-1.056 2.246-1.584 3.841-1.584 1.61 0 2.883.513 3.818 1.539.929 1.018 1.393 2.43 1.393 4.234l-.011.595zm-2.594-2.066c-.352-1.348-1.202-2.022-2.55-2.022-.307 0-.595.049-.865.146-.27.09-.516.225-.74.404a2.523 2.523 0 00-.562.63 2.95 2.95 0 00-.36.842h5.076zm5.598-3.998h2.526v.977c.465-.487.877-.82 1.236-1 .367-.187.801-.28 1.303-.28.666 0 1.362.216 2.088.65l-1.156 2.314c-.48-.344-.947-.517-1.404-.517-1.378 0-2.067 1.041-2.067 3.123V49h-2.526V38.062zm8.114 5.39c0-1.58.565-2.923 1.695-4.032 1.13-1.108 2.508-1.662 4.133-1.662 1.632 0 3.017.558 4.155 1.674 1.123 1.115 1.685 2.485 1.685 4.11 0 1.64-.565 3.014-1.696 4.122-1.138 1.1-2.534 1.65-4.189 1.65-1.64 0-3.013-.561-4.121-1.684-1.108-1.108-1.662-2.5-1.662-4.178zm2.582.045c0 1.093.293 1.958.877 2.594.598.644 1.388.966 2.37.966.987 0 1.777-.318 2.369-.955.591-.636.887-1.486.887-2.549s-.296-1.913-.887-2.55c-.599-.643-1.39-.965-2.37-.965-.966 0-1.748.322-2.347.966-.599.644-.898 1.475-.898 2.493zm27.391-13.465h2.538V49h-2.538v-1.145c-.996.973-2.122 1.46-3.38 1.46-1.498 0-2.74-.547-3.729-1.64-.981-1.116-1.471-2.508-1.471-4.178 0-1.632.49-2.995 1.471-4.088.974-1.1 2.198-1.65 3.673-1.65 1.28 0 2.425.523 3.436 1.572v-9.3zm-5.997 13.465c0 1.048.281 1.902.842 2.56.577.667 1.303 1 2.179 1 .936 0 1.692-.322 2.269-.966.576-.666.864-1.512.864-2.538 0-1.025-.288-1.871-.864-2.538-.577-.651-1.326-.977-2.246-.977-.869 0-1.595.33-2.179.988-.577.667-.865 1.49-.865 2.471zm21.916.629h-7.839c.068.898.36 1.613.876 2.145.517.524 1.179.786 1.988.786.629 0 1.149-.15 1.561-.45.404-.299.865-.853 1.381-1.661l2.134 1.19a8.663 8.663 0 01-1.044 1.449c-.367.397-.76.726-1.179.988a4.84 4.84 0 01-1.359.562c-.487.12-1.015.18-1.584.18-1.632 0-2.942-.525-3.931-1.573-.988-1.055-1.482-2.456-1.482-4.2 0-1.73.479-3.13 1.438-4.2.965-1.056 2.246-1.584 3.84-1.584 1.61 0 2.883.513 3.819 1.539.928 1.018 1.392 2.43 1.392 4.234l-.011.595zm-2.594-2.066c-.352-1.348-1.202-2.022-2.549-2.022-.307 0-.596.049-.865.146-.27.09-.517.225-.741.404a2.503 2.503 0 00-.562.63 2.944 2.944 0 00-.359.842h5.076zM12.194 78l3.328-19.604h5.044l3.926 10.452 3.9-10.452h5.044L36.764 78h-5.07l-1.69-11.284L25.376 78h-2.028l-4.394-11.284L17.264 78h-5.07zm35.875-8.606c-.156-.659-.477-1.187-.962-1.586s-1.075-.598-1.768-.598c-.728 0-1.326.19-1.794.572-.45.381-.737.919-.858 1.612h5.382zm-5.512 2.73c0 2.028.953 3.042 2.86 3.042 1.023 0 1.794-.416 2.314-1.248h4.55c-.919 3.05-3.215 4.576-6.89 4.576-1.127 0-2.158-.165-3.094-.494a7.211 7.211 0 01-2.418-1.456 6.515 6.515 0 01-1.534-2.236c-.364-.867-.546-1.837-.546-2.912 0-1.11.173-2.106.52-2.99.347-.901.84-1.664 1.482-2.288a6.437 6.437 0 012.314-1.43c.919-.347 1.95-.52 3.094-.52 1.127 0 2.14.173 3.042.52.901.33 1.664.815 2.288 1.456.624.641 1.1 1.43 1.43 2.366.33.919.494 1.959.494 3.12v.494h-9.906zm16.444-.832c0 .433.078.84.234 1.222.156.364.364.685.624.962.277.277.598.494.962.65.381.156.789.234 1.222.234.416 0 .806-.078 1.17-.234.381-.156.702-.373.962-.65a3.04 3.04 0 00.65-.962c.173-.364.26-.754.26-1.17 0-.416-.087-.806-.26-1.17a2.97 2.97 0 00-.65-.988 2.697 2.697 0 00-.962-.65 2.938 2.938 0 00-1.17-.234 3.13 3.13 0 00-1.196.234 3.044 3.044 0 00-.962.65c-.26.277-.477.598-.65.962A2.756 2.756 0 0059 71.292zm5.928-14.872h4.732V78h-4.732v-1.482c-1.005 1.265-2.366 1.898-4.082 1.898-.97 0-1.863-.182-2.678-.546a6.626 6.626 0 01-2.132-1.508 7.08 7.08 0 01-1.43-2.262 7.84 7.84 0 01-.494-2.808c0-.953.156-1.855.468-2.704.33-.867.789-1.62 1.378-2.262a6.339 6.339 0 012.106-1.508c.832-.381 1.742-.572 2.73-.572 1.664 0 3.042.58 4.134 1.742V56.42zm12.12 8.242V78h-4.706V64.662h4.706zm-5.018-5.122c0-.364.07-.702.208-1.014.14-.33.33-.615.572-.858.243-.243.52-.433.832-.572.33-.139.676-.208 1.04-.208s.702.07 1.014.208c.33.139.616.33.858.572.243.243.434.529.572.858.14.312.208.65.208 1.014s-.069.71-.208 1.04c-.138.312-.329.59-.572.832a2.659 2.659 0 01-.858.572c-.312.139-.65.208-1.014.208s-.71-.07-1.04-.208a2.743 2.743 0 01-.832-.572 2.743 2.743 0 01-.572-.832 2.652 2.652 0 01-.208-1.04zm17.776 9.438c-.814-.555-1.638-.832-2.47-.832-.45 0-.875.078-1.274.234a3.06 3.06 0 00-1.014.676 3.032 3.032 0 00-.702 1.014 3.408 3.408 0 00-.234 1.3c0 .468.078.901.234 1.3.174.381.399.72.676 1.014.295.277.642.494 1.04.65.399.156.824.234 1.274.234.884 0 1.708-.303 2.47-.91v4.004c-1.161.503-2.262.754-3.302.754-.97 0-1.898-.165-2.782-.494a7.329 7.329 0 01-2.314-1.404 7.263 7.263 0 01-1.586-2.21c-.398-.867-.598-1.829-.598-2.886 0-1.057.191-2.02.572-2.886a6.763 6.763 0 011.56-2.262 6.823 6.823 0 012.34-1.482 7.902 7.902 0 012.938-.546c1.144 0 2.202.243 3.172.728v4.004zm6.532 2.314c0 .433.078.84.234 1.222.156.364.364.685.624.962.278.277.598.494.962.65.382.156.789.234 1.222.234.416 0 .806-.078 1.17-.234.382-.156.702-.373.962-.65a3.03 3.03 0 00.65-.962c.174-.364.26-.754.26-1.17 0-.416-.086-.806-.26-1.17a2.96 2.96 0 00-.65-.988 2.692 2.692 0 00-.962-.65 2.937 2.937 0 00-1.17-.234c-.433 0-.84.078-1.222.234a3.043 3.043 0 00-.962.65c-.26.277-.468.598-.624.962a2.756 2.756 0 00-.234 1.144zm5.928-6.63h4.732V78h-4.732v-1.482c-1.005 1.265-2.366 1.898-4.082 1.898-.97 0-1.863-.173-2.678-.52a6.624 6.624 0 01-2.132-1.508 7.077 7.077 0 01-1.43-2.262c-.329-.867-.494-1.811-.494-2.834 0-.953.165-1.855.494-2.704.33-.867.789-1.62 1.378-2.262a6.337 6.337 0 012.106-1.508c.815-.381 1.716-.572 2.704-.572 1.664 0 3.042.58 4.134 1.742v-1.326zm7.415 0h4.706v2.184c.503-.797 1.118-1.404 1.846-1.82.728-.433 1.577-.65 2.548-.65h.39c.156 0 .329.017.52.052v4.498a4.471 4.471 0 00-2.028-.468c-1.092 0-1.915.33-2.47.988-.537.641-.806 1.586-.806 2.834V78h-4.706V64.662zm21.494 4.732c-.156-.659-.477-1.187-.962-1.586-.486-.399-1.075-.598-1.768-.598-.728 0-1.326.19-1.794.572-.451.381-.737.919-.858 1.612h5.382zm-5.512 2.73c0 2.028.953 3.042 2.86 3.042 1.022 0 1.794-.416 2.314-1.248h4.55c-.919 3.05-3.216 4.576-6.89 4.576-1.127 0-2.158-.165-3.094-.494a7.211 7.211 0 01-2.418-1.456 6.511 6.511 0 01-1.534-2.236c-.364-.867-.546-1.837-.546-2.912 0-1.11.173-2.106.52-2.99.346-.901.84-1.664 1.482-2.288a6.43 6.43 0 012.314-1.43c.918-.347 1.95-.52 3.094-.52 1.126 0 2.14.173 3.042.52.901.33 1.664.815 2.288 1.456.624.641 1.1 1.43 1.43 2.366.329.919.494 1.959.494 3.12v.494h-9.906zm11.312 4.34c0-.256.048-.496.144-.72.096-.235.229-.437.4-.608.17-.17.368-.304.592-.4a1.923 1.923 0 011.456 0c.234.096.437.23.608.4.17.17.304.373.4.608a1.926 1.926 0 010 1.456 1.838 1.838 0 01-1.008.992 1.923 1.923 0 01-1.456 0 1.864 1.864 0 01-1.136-1.728zm6.717 0c0-.256.048-.496.144-.72.096-.235.229-.437.4-.608.171-.17.368-.304.592-.4a1.927 1.927 0 011.456 0c.235.096.437.23.608.4.171.17.304.373.4.608a1.926 1.926 0 010 1.456 1.827 1.827 0 01-1.008.992 1.927 1.927 0 01-1.456 0 1.875 1.875 0 01-.992-.992 1.926 1.926 0 01-.144-.736zm6.718 0c0-.256.048-.496.144-.72.096-.235.229-.437.4-.608.17-.17.368-.304.592-.4a1.923 1.923 0 011.456 0c.234.096.437.23.608.4.17.17.304.373.4.608a1.926 1.926 0 010 1.456 1.838 1.838 0 01-1.008.992 1.923 1.923 0 01-1.456 0 1.864 1.864 0 01-1.136-1.728z" fill="#66124B"/></svg>