<svg width="548" height="103" viewBox="0 0 548 103" fill="none" xmlns="http://www.w3.org/2000/svg"><path d="M2.494 33.156c0-.948.347-1.769 1.041-2.463.694-.694 1.524-1.04 2.488-1.04.965 0 1.795.346 2.489 1.04.694.694 1.04 1.524 1.04 2.489 0 .981-.346 1.82-1.04 2.513-.677.677-1.507 1.016-2.489 1.016-.998 0-1.836-.339-2.513-1.016-.677-.677-1.016-1.523-1.016-2.539zm11.367 0c0-.948.347-1.769 1.041-2.463.694-.694 1.524-1.04 2.488-1.04.965 0 1.795.346 2.489 1.04.694.694 1.04 1.524 1.04 2.489 0 .981-.346 1.82-1.04 2.513-.678.677-1.507 1.016-2.489 1.016-.998 0-1.836-.339-2.513-1.016-.677-.677-1.016-1.523-1.016-2.539zm11.367 0c0-.948.347-1.769 1.04-2.463.695-.694 1.524-1.04 2.49-1.04.964 0 1.794.346 2.488 1.04.694.694 1.04 1.524 1.04 2.489 0 .981-.347 1.82-1.04 2.513-.678.677-1.507 1.016-2.489 1.016-.998 0-1.836-.339-2.514-1.016-.677-.677-1.015-1.523-1.015-2.539zm16.729 17.077h-6.043V9.843h6.043v2.847c2.38-2.382 5.084-3.572 8.11-3.572 3.599 0 6.562 1.325 8.89 3.974 2.362 2.632 3.544 5.953 3.544 9.964 0 3.92-1.173 7.188-3.518 9.802-2.327 2.596-5.264 3.894-8.809 3.894-3.061 0-5.8-1.226-8.217-3.68v17.161zm14.367-27.15c0-2.507-.68-4.548-2.04-6.123-1.38-1.594-3.116-2.39-5.21-2.39-2.22 0-4.02.77-5.399 2.309-1.378 1.54-2.067 3.563-2.067 6.07 0 2.452.689 4.475 2.067 6.069 1.361 1.557 3.151 2.336 5.371 2.336 2.095 0 3.823-.788 5.184-2.363 1.396-1.576 2.094-3.545 2.094-5.909zm31.85-13.24h6.07V36h-6.07v-2.74c-2.488 2.328-5.164 3.492-8.029 3.492-3.617 0-6.606-1.307-8.97-3.92-2.345-2.669-3.518-5.999-3.518-9.991 0-3.921 1.173-7.189 3.518-9.802 2.346-2.614 5.282-3.921 8.809-3.921 3.044 0 5.774 1.253 8.19 3.76V9.842zM73.835 22.84c0 2.506.671 4.547 2.014 6.123 1.379 1.593 3.115 2.39 5.21 2.39 2.238 0 4.046-.77 5.425-2.31 1.379-1.593 2.068-3.616 2.068-6.069s-.69-4.476-2.068-6.07c-1.379-1.557-3.169-2.336-5.371-2.336-2.077 0-3.814.788-5.21 2.364-1.379 1.593-2.068 3.562-2.068 5.908zm28.037-12.998h6.043v2.336c1.11-1.164 2.094-1.96 2.954-2.39.877-.448 1.915-.671 3.115-.671 1.593 0 3.258.519 4.995 1.557l-2.766 5.532c-1.146-.823-2.265-1.235-3.357-1.235-3.294 0-4.941 2.489-4.941 7.466V36h-6.043V9.843zm39.478 0h6.069V36h-6.069v-2.74c-2.489 2.328-5.166 3.492-8.03 3.492-3.617 0-6.607-1.307-8.97-3.92-2.345-2.669-3.518-5.999-3.518-9.991 0-3.921 1.173-7.189 3.518-9.802 2.346-2.614 5.282-3.921 8.809-3.921 3.043 0 5.774 1.253 8.191 3.76V9.842zM127.008 22.84c0 2.506.671 4.547 2.014 6.123 1.379 1.593 3.115 2.39 5.21 2.39 2.238 0 4.046-.77 5.425-2.31 1.378-1.593 2.068-3.616 2.068-6.069s-.69-4.476-2.068-6.07c-1.379-1.557-3.169-2.336-5.371-2.336-2.077 0-3.814.788-5.21 2.364-1.379 1.593-2.068 3.562-2.068 5.908zM191.3 9.843h6.069V36H191.3v-2.74c-2.489 2.328-5.165 3.492-8.03 3.492-3.616 0-6.606-1.307-8.97-3.92-2.345-2.669-3.518-5.999-3.518-9.991 0-3.921 1.173-7.189 3.518-9.802 2.346-2.614 5.282-3.921 8.809-3.921 3.044 0 5.774 1.253 8.191 3.76V9.842zM176.959 22.84c0 2.506.671 4.547 2.014 6.123 1.379 1.593 3.115 2.39 5.21 2.39 2.238 0 4.046-.77 5.425-2.31 1.379-1.593 2.068-3.616 2.068-6.069s-.689-4.476-2.068-6.07c-1.379-1.557-3.169-2.336-5.371-2.336-2.077 0-3.814.788-5.21 2.364-1.379 1.593-2.068 3.562-2.068 5.908zm43.237-8.54l-4.995 2.658c-.788-1.61-1.763-2.416-2.927-2.416-.555 0-1.029.188-1.423.563-.394.358-.591.824-.591 1.397 0 1.003 1.164 1.996 3.491 2.98 3.205 1.38 5.362 2.65 6.472 3.814 1.11 1.164 1.665 2.73 1.665 4.7 0 2.524-.931 4.637-2.793 6.338-1.808 1.611-3.992 2.417-6.552 2.417-4.387 0-7.493-2.14-9.319-6.419l5.156-2.39c.716 1.254 1.262 2.05 1.638 2.39.734.68 1.611 1.021 2.632 1.021 2.041 0 3.061-.931 3.061-2.793 0-1.074-.787-2.077-2.363-3.008-.609-.304-1.217-.6-1.826-.886-.609-.287-1.226-.582-1.853-.886-1.755-.86-2.99-1.719-3.706-2.578-.913-1.093-1.37-2.498-1.37-4.217 0-2.273.779-4.153 2.337-5.64 1.593-1.485 3.527-2.228 5.801-2.228 3.347 0 5.836 1.727 7.465 5.183zm30.965 10.044h-18.745c.161 2.148.859 3.858 2.094 5.13 1.236 1.252 2.82 1.879 4.754 1.879 1.504 0 2.748-.358 3.733-1.074.966-.716 2.067-2.041 3.303-3.975l5.102 2.847c-.787 1.343-1.62 2.497-2.497 3.464a13.814 13.814 0 01-2.82 2.364 11.54 11.54 0 01-3.25 1.342c-1.163.287-2.425.43-3.786.43-3.903 0-7.036-1.253-9.4-3.76-2.363-2.524-3.544-5.872-3.544-10.044 0-4.136 1.145-7.484 3.437-10.044 2.31-2.524 5.371-3.786 9.185-3.786 3.849 0 6.893 1.226 9.13 3.679 2.221 2.435 3.331 5.81 3.331 10.124l-.027 1.424zm-6.204-4.942c-.841-3.222-2.873-4.834-6.096-4.834-.734 0-1.423.117-2.068.35a5.695 5.695 0 00-1.772.966c-.52.412-.967.913-1.343 1.504a7.053 7.053 0 00-.86 2.014h12.139zm38.135 15.98a34.6 34.6 0 01-.134 3.249 20.808 20.808 0 01-.323 2.497c-.429 1.97-1.271 3.662-2.524 5.076-2.363 2.721-5.613 4.082-9.749 4.082-3.491 0-6.364-.94-8.62-2.82-2.328-1.933-3.671-4.61-4.029-8.03h6.07c.233 1.29.617 2.283 1.155 2.982 1.253 1.629 3.079 2.443 5.478 2.443 4.422 0 6.633-2.712 6.633-8.137v-3.652c-2.399 2.453-5.165 3.679-8.298 3.679-3.563 0-6.481-1.29-8.755-3.867-2.292-2.614-3.437-5.882-3.437-9.802 0-3.814 1.065-7.054 3.195-9.722 2.292-2.829 5.318-4.243 9.078-4.243 3.294 0 6.033 1.226 8.217 3.679V9.843h6.043v25.54zm-5.801-12.408c0-2.542-.68-4.574-2.041-6.096-1.379-1.558-3.142-2.337-5.29-2.337-2.292 0-4.1.85-5.425 2.552-1.2 1.522-1.8 3.491-1.8 5.908 0 2.381.6 4.333 1.8 5.854 1.307 1.665 3.115 2.498 5.425 2.498 2.309 0 4.135-.841 5.478-2.524 1.235-1.522 1.853-3.474 1.853-5.855zm19.47-13.132v15.012c0 4.333 1.71 6.499 5.13 6.499 3.419 0 5.129-2.166 5.129-6.499V9.843h6.043v15.146c0 2.095-.26 3.903-.779 5.425-.502 1.36-1.37 2.587-2.605 3.68-2.041 1.772-4.637 2.658-7.788 2.658-3.133 0-5.721-.886-7.762-2.659-1.253-1.092-2.139-2.318-2.658-3.679-.502-1.217-.752-3.026-.752-5.425V9.843h6.042zm23.928 0h6.043v2.336c1.11-1.164 2.095-1.96 2.954-2.39.877-.448 1.916-.671 3.115-.671 1.594 0 3.259.519 4.995 1.557l-2.766 5.532c-1.146-.823-2.265-1.235-3.357-1.235-3.294 0-4.941 2.489-4.941 7.466V36h-6.043V9.843zm39.478 0h6.069V36h-6.069v-2.74c-2.489 2.328-5.165 3.492-8.03 3.492-3.616 0-6.606-1.307-8.969-3.92-2.346-2.669-3.519-5.999-3.519-9.991 0-3.921 1.173-7.189 3.519-9.802 2.345-2.614 5.281-3.921 8.808-3.921 3.044 0 5.774 1.253 8.191 3.76V9.842zM345.826 22.84c0 2.506.672 4.547 2.014 6.123 1.379 1.593 3.116 2.39 5.21 2.39 2.238 0 4.047-.77 5.425-2.31 1.379-1.593 2.068-3.616 2.068-6.069s-.689-4.476-2.068-6.07c-1.378-1.557-3.169-2.336-5.371-2.336-2.077 0-3.813.788-5.21 2.364-1.379 1.593-2.068 3.562-2.068 5.908zm28.037-12.998h6.043v2.336c1.11-1.164 2.095-1.96 2.954-2.39.877-.448 1.916-.671 3.115-.671 1.594 0 3.259.519 4.995 1.557l-2.766 5.532c-1.146-.823-2.265-1.235-3.357-1.235-3.294 0-4.941 2.489-4.941 7.466V36h-6.043V9.843zm28.789 5.64V36h-6.042V15.482h-2.578v-5.64h2.578V.256h6.042v9.588h4.7v5.64h-4.7zm33.113 8.862H417.02c.161 2.148.859 3.858 2.095 5.13 1.235 1.252 2.82 1.879 4.753 1.879 1.504 0 2.748-.358 3.733-1.074.967-.716 2.068-2.041 3.303-3.975l5.103 2.847c-.788 1.343-1.62 2.497-2.498 3.464a13.814 13.814 0 01-2.82 2.364 11.522 11.522 0 01-3.249 1.342c-1.164.287-2.426.43-3.787.43-3.903 0-7.036-1.253-9.399-3.76-2.363-2.524-3.545-5.872-3.545-10.044 0-4.136 1.146-7.484 3.438-10.044 2.309-2.524 5.371-3.786 9.184-3.786 3.849 0 6.893 1.226 9.131 3.679 2.22 2.435 3.33 5.81 3.33 10.124l-.027 1.424zm-6.203-4.942c-.842-3.222-2.874-4.834-6.097-4.834-.734 0-1.423.117-2.068.35a5.707 5.707 0 00-1.772.966 6.037 6.037 0 00-1.343 1.504 7.052 7.052 0 00-.859 2.014h12.139zm49.091 30.83v-17.16c-2.399 2.453-5.138 3.679-8.217 3.679-3.527 0-6.455-1.298-8.782-3.894-2.346-2.614-3.518-5.881-3.518-9.802 0-3.975 1.172-7.296 3.518-9.964 2.363-2.65 5.326-3.974 8.889-3.974 3.026 0 5.729 1.19 8.11 3.572V9.843h6.07v40.39h-6.07zm-14.34-27.446c0 2.524.68 4.575 2.041 6.15 1.36 1.611 3.088 2.417 5.183 2.417 2.22 0 4.019-.77 5.398-2.31 1.396-1.557 2.094-3.58 2.094-6.069 0-2.453-.689-4.476-2.068-6.07-1.378-1.557-3.168-2.336-5.371-2.336-2.076 0-3.813.788-5.21 2.364-1.378 1.593-2.067 3.544-2.067 5.854zm34.724-12.944v15.012c0 4.333 1.709 6.499 5.129 6.499 3.42 0 5.129-2.166 5.129-6.499V9.843h6.043v15.146c0 2.095-.26 3.903-.779 5.425-.501 1.36-1.37 2.587-2.605 3.68-2.041 1.772-4.637 2.658-7.788 2.658-3.133 0-5.72-.886-7.761-2.659-1.253-1.092-2.14-2.318-2.659-3.679-.501-1.217-.752-3.026-.752-5.425V9.843h6.043zm47.749 14.502h-18.745c.161 2.148.859 3.858 2.094 5.13 1.236 1.252 2.82 1.879 4.754 1.879 1.504 0 2.748-.358 3.733-1.074.966-.716 2.068-2.041 3.303-3.975l5.102 2.847c-.787 1.343-1.62 2.497-2.497 3.464a13.814 13.814 0 01-2.82 2.364 11.546 11.546 0 01-3.249 1.342c-1.164.287-2.426.43-3.787.43-3.903 0-7.036-1.253-9.4-3.76-2.363-2.524-3.544-5.872-3.544-10.044 0-4.136 1.145-7.484 3.437-10.044 2.31-2.524 5.371-3.786 9.185-3.786 3.849 0 6.893 1.226 9.13 3.679 2.221 2.435 3.331 5.81 3.331 10.124l-.027 1.424zm-6.204-4.942c-.841-3.222-2.873-4.834-6.096-4.834-.734 0-1.423.117-2.068.35a5.695 5.695 0 00-1.772.966c-.52.412-.967.913-1.343 1.504a7.053 7.053 0 00-.86 2.014h12.139zM22.035 82.795c-.33-1.393-1.008-2.512-2.035-3.355-1.027-.843-2.273-1.265-3.74-1.265-1.54 0-2.805.403-3.795 1.21-.953.807-1.558 1.943-1.815 3.41h11.385zm-11.66 5.775c0 4.29 2.017 6.435 6.05 6.435 2.163 0 3.795-.88 4.895-2.64h9.625c-1.943 6.453-6.802 9.68-14.575 9.68-2.383 0-4.565-.348-6.545-1.045-1.98-.733-3.685-1.76-5.115-3.08-1.393-1.32-2.475-2.897-3.245-4.73C.695 91.357.31 89.303.31 87.03c0-2.347.367-4.455 1.1-6.325.733-1.907 1.778-3.52 3.135-4.84 1.357-1.32 2.988-2.328 4.895-3.025 1.943-.733 4.125-1.1 6.545-1.1 2.383 0 4.528.367 6.435 1.1 1.907.697 3.52 1.723 4.84 3.08 1.32 1.357 2.328 3.025 3.025 5.005.697 1.943 1.045 4.143 1.045 6.6v1.045H10.375zm45.345-8.525c-1.833-.953-3.63-1.43-5.39-1.43-.916 0-1.668.183-2.255.55-.55.367-.825.862-.825 1.485 0 .33.037.605.11.825.11.183.312.367.605.55.33.183.789.348 1.375.495a207 207 0 002.42.55c2.75.55 4.804 1.54 6.16 2.97 1.357 1.393 2.035 3.19 2.035 5.39 0 1.65-.33 3.135-.99 4.455a9.734 9.734 0 01-2.75 3.355c-1.173.88-2.585 1.558-4.235 2.035-1.65.513-3.465.77-5.445.77-3.813 0-7.571-1.082-11.275-3.245l3.63-7.04c2.787 1.907 5.427 2.86 7.92 2.86.917 0 1.669-.202 2.255-.605.587-.403.88-.917.88-1.54 0-.367-.055-.66-.165-.88-.073-.257-.256-.477-.55-.66-.293-.22-.733-.403-1.32-.55-.55-.183-1.283-.367-2.2-.55-3.08-.623-5.243-1.54-6.49-2.75-1.21-1.247-1.815-2.952-1.815-5.115 0-1.577.294-2.988.88-4.235a8.767 8.767 0 012.53-3.245c1.1-.88 2.42-1.558 3.96-2.035 1.577-.477 3.319-.715 5.225-.715 3.117 0 6.142.605 9.075 1.815l-3.355 6.49zm21.146 1.045V101H66.91V81.09h-3.3v-8.305h3.3v-8.47h9.955v8.47h5.665v8.305h-5.665zm19.184 5.72c0 .917.165 1.778.495 2.585.33.77.77 1.448 1.32 2.035a6.436 6.436 0 002.035 1.375 6.76 6.76 0 002.585.495c.88 0 1.705-.165 2.475-.495a5.703 5.703 0 002.035-1.375 6.43 6.43 0 001.375-2.035c.367-.77.55-1.595.55-2.475 0-.88-.183-1.705-.55-2.475a6.278 6.278 0 00-1.375-2.09 5.703 5.703 0 00-2.035-1.375 6.216 6.216 0 00-2.475-.495 6.76 6.76 0 00-2.585.495c-.77.33-1.448.788-2.035 1.375a6.95 6.95 0 00-1.32 2.035c-.33.733-.495 1.54-.495 2.42zm12.54-14.025h10.01V101h-10.01v-3.135c-2.126 2.677-5.005 4.015-8.635 4.015-2.053 0-3.941-.367-5.665-1.1a14.013 14.013 0 01-4.51-3.19c-1.283-1.357-2.291-2.952-3.025-4.785-.696-1.833-1.045-3.832-1.045-5.995 0-2.017.349-3.923 1.045-5.72.697-1.833 1.669-3.428 2.915-4.785a13.405 13.405 0 014.455-3.19c1.724-.807 3.63-1.21 5.72-1.21 3.52 0 6.435 1.228 8.745 3.685v-2.805zm3.685-12.595l-9.57 8.47-4.62-3.41 7.865-9.625 6.325 4.565zm13.1 12.595h9.955v3.575c1.357-1.65 2.732-2.75 4.125-3.3 1.393-.587 3.025-.88 4.895-.88 1.98 0 3.667.33 5.06.99a9.811 9.811 0 013.63 2.695 7.815 7.815 0 011.65 3.19c.293 1.173.44 2.512.44 4.015V101h-9.955V86.755c0-1.393-.11-2.512-.33-3.355-.183-.88-.532-1.577-1.045-2.09a3.772 3.772 0 00-1.485-.935 5.533 5.533 0 00-1.76-.275c-1.687 0-2.988.513-3.905 1.54-.88.99-1.32 2.42-1.32 4.29V101h-9.955V72.785zm76.5 9.13c-1.724-1.173-3.465-1.76-5.225-1.76-.954 0-1.852.165-2.695.495a6.466 6.466 0 00-2.145 1.43 6.4 6.4 0 00-1.485 2.145c-.33.807-.495 1.723-.495 2.75 0 .99.165 1.907.495 2.75a7.81 7.81 0 001.43 2.145 6.762 6.762 0 002.2 1.375c.843.33 1.741.495 2.695.495 1.87 0 3.611-.642 5.225-1.925v8.47c-2.457 1.063-4.785 1.595-6.985 1.595a16.71 16.71 0 01-5.885-1.045 15.506 15.506 0 01-4.895-2.97 15.346 15.346 0 01-3.355-4.675c-.844-1.833-1.265-3.868-1.265-6.105 0-2.237.403-4.272 1.21-6.105.806-1.87 1.906-3.465 3.3-4.785 1.393-1.357 3.043-2.402 4.95-3.135 1.943-.77 4.015-1.155 6.215-1.155 2.42 0 4.656.513 6.71 1.54v8.47zm15.083 4.84c0 .953.165 1.833.495 2.64.366.77.825 1.448 1.375 2.035a6.428 6.428 0 002.035 1.375c.806.33 1.65.495 2.53.495.88 0 1.705-.165 2.475-.495a5.712 5.712 0 002.035-1.375 6.447 6.447 0 001.375-2.035c.366-.807.55-1.668.55-2.585 0-.88-.184-1.705-.55-2.475a6.293 6.293 0 00-1.375-2.09 5.712 5.712 0 00-2.035-1.375 6.216 6.216 0 00-2.475-.495c-.88 0-1.724.165-2.53.495-.77.33-1.449.788-2.035 1.375a7.928 7.928 0 00-1.375 2.035 6.216 6.216 0 00-.495 2.475zm-10.505-.11c0-2.09.421-4.033 1.265-5.83a14.006 14.006 0 013.52-4.73c1.503-1.357 3.281-2.42 5.335-3.19 2.09-.77 4.363-1.155 6.82-1.155 2.42 0 4.656.385 6.71 1.155 2.09.733 3.886 1.778 5.39 3.135a13.577 13.577 0 013.575 4.785c.843 1.833 1.265 3.868 1.265 6.105 0 2.237-.44 4.29-1.32 6.16a14.616 14.616 0 01-3.52 4.785c-1.504 1.32-3.319 2.347-5.445 3.08-2.09.733-4.364 1.1-6.82 1.1-2.42 0-4.657-.367-6.71-1.1-2.054-.733-3.832-1.778-5.335-3.135a14.8 14.8 0 01-3.465-4.84c-.844-1.907-1.265-4.015-1.265-6.325zm39.61-13.86h9.955v4.62c1.064-1.687 2.365-2.97 3.905-3.85 1.54-.917 3.337-1.375 5.39-1.375h.825c.33 0 .697.037 1.1.11v9.515c-1.32-.66-2.75-.99-4.29-.99-2.31 0-4.051.697-5.225 2.09-1.136 1.357-1.705 3.355-1.705 5.995V101h-9.955V72.785zm25.62 0h9.955v4.62c1.064-1.687 2.365-2.97 3.905-3.85 1.54-.917 3.337-1.375 5.39-1.375h.825c.33 0 .697.037 1.1.11v9.515c-1.32-.66-2.75-.99-4.29-.99-2.31 0-4.051.697-5.225 2.09-1.136 1.357-1.705 3.355-1.705 5.995V101h-9.955V72.785zm46.568 10.01c-.33-1.393-1.009-2.512-2.035-3.355-1.027-.843-2.274-1.265-3.74-1.265-1.54 0-2.805.403-3.795 1.21-.954.807-1.559 1.943-1.815 3.41h11.385zm-11.66 5.775c0 4.29 2.016 6.435 6.05 6.435 2.163 0 3.795-.88 4.895-2.64h9.625c-1.944 6.453-6.802 9.68-14.575 9.68-2.384 0-4.565-.348-6.545-1.045-1.98-.733-3.685-1.76-5.115-3.08-1.394-1.32-2.475-2.897-3.245-4.73-.77-1.833-1.155-3.887-1.155-6.16 0-2.347.366-4.455 1.1-6.325.733-1.907 1.778-3.52 3.135-4.84 1.356-1.32 2.988-2.328 4.895-3.025 1.943-.733 4.125-1.1 6.545-1.1 2.383 0 4.528.367 6.435 1.1 1.906.697 3.52 1.723 4.84 3.08 1.32 1.357 2.328 3.025 3.025 5.005.696 1.943 1.045 4.143 1.045 6.6v1.045h-20.955zm47.93-6.655c-1.723-1.173-3.465-1.76-5.225-1.76-.953 0-1.851.165-2.695.495a6.486 6.486 0 00-2.145 1.43 6.428 6.428 0 00-1.485 2.145c-.33.807-.495 1.723-.495 2.75 0 .99.165 1.907.495 2.75a7.854 7.854 0 001.43 2.145 6.783 6.783 0 002.2 1.375c.844.33 1.742.495 2.695.495 1.87 0 3.612-.642 5.225-1.925v8.47c-2.456 1.063-4.785 1.595-6.985 1.595-2.053 0-4.015-.348-5.885-1.045a15.517 15.517 0 01-4.895-2.97 15.38 15.38 0 01-3.355-4.675c-.843-1.833-1.265-3.868-1.265-6.105 0-2.237.404-4.272 1.21-6.105.807-1.87 1.907-3.465 3.3-4.785 1.394-1.357 3.044-2.402 4.95-3.135 1.944-.77 4.015-1.155 6.215-1.155 2.42 0 4.657.513 6.71 1.54v8.47zm16.788-.825V101h-9.955V81.09h-3.3v-8.305h3.3v-8.47h9.955v8.47h5.665v8.305h-5.665zm19.185 5.72c0 .917.165 1.778.495 2.585.33.77.77 1.448 1.32 2.035a6.428 6.428 0 002.035 1.375c.806.33 1.668.495 2.585.495.88 0 1.705-.165 2.475-.495a5.712 5.712 0 002.035-1.375 6.447 6.447 0 001.375-2.035c.366-.77.55-1.595.55-2.475 0-.88-.184-1.705-.55-2.475a6.293 6.293 0 00-1.375-2.09 5.712 5.712 0 00-2.035-1.375 6.216 6.216 0 00-2.475-.495c-.917 0-1.779.165-2.585.495-.77.33-1.449.788-2.035 1.375a6.95 6.95 0 00-1.32 2.035c-.33.733-.495 1.54-.495 2.42zm12.54-14.025h10.01V101h-10.01v-3.135c-2.127 2.677-5.005 4.015-8.635 4.015-2.054 0-3.942-.367-5.665-1.1a14.002 14.002 0 01-4.51-3.19c-1.284-1.357-2.292-2.952-3.025-4.785-.697-1.833-1.045-3.832-1.045-5.995 0-2.017.348-3.923 1.045-5.72.696-1.833 1.668-3.428 2.915-4.785a13.391 13.391 0 014.455-3.19c1.723-.807 3.63-1.21 5.72-1.21 3.52 0 6.435 1.228 8.745 3.685v-2.805zm35.484 7.26c-1.833-.953-3.63-1.43-5.39-1.43-.916 0-1.668.183-2.255.55-.55.367-.825.862-.825 1.485 0 .33.037.605.11.825.11.183.312.367.605.55.33.183.789.348 1.375.495.624.147 1.43.33 2.42.55 2.75.55 4.804 1.54 6.16 2.97 1.357 1.393 2.035 3.19 2.035 5.39 0 1.65-.33 3.135-.99 4.455a9.726 9.726 0 01-2.75 3.355c-1.173.88-2.585 1.558-4.235 2.035-1.65.513-3.465.77-5.445.77-3.813 0-7.571-1.082-11.275-3.245l3.63-7.04c2.787 1.907 5.427 2.86 7.92 2.86.917 0 1.669-.202 2.255-.605.587-.403.88-.917.88-1.54 0-.367-.055-.66-.165-.88-.073-.257-.256-.477-.55-.66-.293-.22-.733-.403-1.32-.55-.55-.183-1.283-.367-2.2-.55-3.08-.623-5.243-1.54-6.49-2.75-1.21-1.247-1.815-2.952-1.815-5.115 0-1.577.294-2.988.88-4.235a8.771 8.771 0 012.53-3.245c1.1-.88 2.42-1.558 3.96-2.035 1.577-.477 3.319-.715 5.225-.715 3.117 0 6.142.605 9.075 1.815l-3.355 6.49zm8.63 15.963c0-.832.156-1.612.468-2.34a5.935 5.935 0 011.3-1.976 6.077 6.077 0 011.924-1.3 6.255 6.255 0 012.392-.468c.832 0 1.612.156 2.34.468a5.95 5.95 0 011.976 1.3 5.95 5.95 0 011.3 1.976c.312.728.468 1.508.468 2.34 0 .832-.156 1.63-.468 2.392a6.096 6.096 0 01-1.3 1.924 5.945 5.945 0 01-1.976 1.3 5.877 5.877 0 01-2.34.468c-.832 0-1.63-.156-2.392-.468a6.072 6.072 0 01-1.924-1.3 6.08 6.08 0 01-1.3-1.924 6.258 6.258 0 01-.468-2.392z" fill="#fff"/></svg>