<svg width="639" height="110" viewBox="0 0 639 110" fill="none" xmlns="http://www.w3.org/2000/svg"><path d="M22.797 12.203l-4.43 2.625c-.828-1.437-1.617-2.375-2.367-2.812-.781-.5-1.79-.75-3.023-.75-1.516 0-2.774.43-3.774 1.289-1 .843-1.5 1.906-1.5 3.187 0 1.766 1.313 3.188 3.938 4.266l3.609 1.476c2.938 1.188 5.086 2.641 6.445 4.36 1.36 1.703 2.04 3.797 2.04 6.281 0 3.328-1.11 6.078-3.329 8.25-2.234 2.188-5.008 3.281-8.32 3.281-3.14 0-5.734-.93-7.781-2.789-2.016-1.86-3.274-4.476-3.774-7.851l5.532-1.22c.25 2.126.687 3.595 1.312 4.407 1.125 1.563 2.766 2.344 4.922 2.344 1.703 0 3.117-.57 4.242-1.711 1.125-1.14 1.688-2.586 1.688-4.336 0-.703-.102-1.344-.305-1.922a4.51 4.51 0 00-.914-1.617c-.406-.5-.938-.961-1.594-1.383-.656-.437-1.437-.851-2.344-1.242l-3.492-1.453c-4.953-2.094-7.43-5.156-7.43-9.188 0-2.718 1.04-4.992 3.118-6.82 2.078-1.844 4.664-2.766 7.757-2.766 4.172 0 7.43 2.032 9.774 6.094zm11.789 7.969V43h-5.273V20.172h5.273zm-6.07-9.492c0-.922.336-1.72 1.007-2.39.672-.673 1.477-1.009 2.415-1.009a3.32 3.32 0 012.437 1.008c.672.656 1.008 1.461 1.008 2.414a3.32 3.32 0 01-1.008 2.438c-.656.671-1.46 1.007-2.414 1.007a3.32 3.32 0 01-2.438-1.007c-.671-.672-1.007-1.493-1.007-2.461zm33.539 22.148h-16.36c.14 1.875.75 3.367 1.828 4.477 1.079 1.093 2.461 1.64 4.149 1.64 1.312 0 2.398-.312 3.258-.937.843-.625 1.804-1.781 2.883-3.469l4.453 2.484c-.688 1.172-1.414 2.18-2.18 3.024a12.073 12.073 0 01-2.461 2.062c-.875.532-1.82.922-2.836 1.172-1.016.25-2.117.375-3.305.375-3.406 0-6.14-1.093-8.203-3.281-2.062-2.203-3.093-5.125-3.093-8.766 0-3.609 1-6.53 3-8.765 2.015-2.203 4.687-3.305 8.015-3.305 3.36 0 6.016 1.07 7.969 3.211 1.937 2.125 2.906 5.07 2.906 8.836l-.023 1.242zm-5.414-4.312c-.735-2.813-2.508-4.22-5.32-4.22-.641 0-1.243.102-1.805.306a4.978 4.978 0 00-1.547.843c-.453.36-.844.797-1.172 1.313a6.156 6.156 0 00-.75 1.758H56.64zm11.203-8.344h5.273v2.11C74.133 21.218 75 20.5 75.72 20.124c.765-.39 1.726-.586 2.883-.586 2.578 0 4.617 1.125 6.117 3.375 1.656-2.25 3.898-3.375 6.726-3.375 5.14 0 7.711 3.117 7.711 9.352V43H93.86V30.32c0-2.187-.265-3.734-.796-4.64-.547-.922-1.446-1.383-2.696-1.383-1.453 0-2.515.547-3.187 1.64-.657 1.094-.985 2.852-.985 5.274V43h-5.297V30.39c0-4.062-1.171-6.093-3.515-6.093-1.485 0-2.57.555-3.258 1.664-.672 1.11-1.008 2.86-1.008 5.25V43h-5.273V20.172zm43.851 35.25h-5.273v-35.25h5.273v2.484c2.078-2.078 4.438-3.117 7.078-3.117 3.141 0 5.727 1.156 7.758 3.469 2.063 2.297 3.094 5.195 3.094 8.695 0 3.422-1.023 6.274-3.07 8.555-2.032 2.265-4.594 3.398-7.688 3.398-2.672 0-5.062-1.07-7.172-3.21v14.976zm12.539-23.695c0-2.188-.593-3.97-1.781-5.344-1.203-1.39-2.719-2.086-4.547-2.086-1.937 0-3.508.672-4.711 2.015-1.203 1.344-1.804 3.11-1.804 5.297 0 2.141.601 3.907 1.804 5.297 1.188 1.36 2.75 2.04 4.688 2.04 1.828 0 3.336-.688 4.523-2.063 1.219-1.375 1.828-3.094 1.828-5.156zm10.969-11.555h5.274v2.039c.968-1.016 1.828-1.711 2.578-2.086.765-.39 1.672-.586 2.718-.586 1.391 0 2.844.453 4.36 1.36l-2.414 4.828c-1-.72-1.977-1.079-2.93-1.079-2.875 0-4.312 2.172-4.312 6.516V43h-5.274V20.172zm38.414 12.656h-16.359c.14 1.875.75 3.367 1.828 4.477 1.078 1.093 2.461 1.64 4.148 1.64 1.313 0 2.399-.312 3.258-.937.844-.625 1.805-1.781 2.883-3.469l4.453 2.484c-.687 1.172-1.414 2.18-2.18 3.024a12.079 12.079 0 01-2.46 2.062c-.876.532-1.821.922-2.836 1.172-1.016.25-2.118.375-3.305.375-3.406 0-6.141-1.093-8.203-3.281-2.063-2.203-3.094-5.125-3.094-8.766 0-3.609 1-6.53 3-8.765 2.016-2.203 4.688-3.305 8.016-3.305 3.359 0 6.015 1.07 7.968 3.211 1.938 2.125 2.907 5.07 2.907 8.836l-.024 1.242zm-5.414-4.312c-.734-2.813-2.508-4.22-5.32-4.22-.641 0-1.242.102-1.805.306a4.988 4.988 0 00-1.547.843c-.453.36-.843.797-1.172 1.313a6.161 6.161 0 00-.75 1.758h10.594zm26.016-8.344h5.273v2.039c.969-1.016 1.828-1.711 2.578-2.086.766-.39 1.672-.586 2.719-.586 1.391 0 2.844.453 4.359 1.36l-2.414 4.828c-1-.72-1.976-1.079-2.929-1.079-2.875 0-4.313 2.172-4.313 6.516V43h-5.273V20.172zm38.414 12.656h-16.36c.141 1.875.75 3.367 1.829 4.477 1.078 1.093 2.46 1.64 4.148 1.64 1.312 0 2.398-.312 3.258-.937.844-.625 1.804-1.781 2.883-3.469l4.453 2.484c-.688 1.172-1.414 2.18-2.18 3.024a12.084 12.084 0 01-2.461 2.062c-.875.532-1.82.922-2.836 1.172-1.015.25-2.117.375-3.305.375-3.406 0-6.14-1.093-8.203-3.281-2.062-2.203-3.093-5.125-3.093-8.766 0-3.609 1-6.53 3-8.765 2.015-2.203 4.687-3.305 8.015-3.305 3.36 0 6.016 1.07 7.969 3.211 1.938 2.125 2.906 5.07 2.906 8.836l-.023 1.242zm-5.414-4.312c-.735-2.813-2.508-4.22-5.321-4.22-.64 0-1.242.102-1.804.306a4.977 4.977 0 00-1.547.843c-.453.36-.844.797-1.172 1.313a6.161 6.161 0 00-.75 1.758h10.594zm13.195-8.344l5.906 12.82 5.883-12.82h5.93l-11.86 24.398-11.765-24.398h5.906zm26.578 0V43h-5.273V20.172h5.273zm-6.07-9.492c0-.922.336-1.72 1.008-2.39.672-.673 1.476-1.009 2.414-1.009a3.32 3.32 0 012.437 1.008c.672.656 1.008 1.461 1.008 2.414a3.32 3.32 0 01-1.008 2.438c-.656.671-1.461 1.007-2.414 1.007a3.32 3.32 0 01-2.437-1.007c-.672-.672-1.008-1.493-1.008-2.461zm26.016 13.383l-4.36 2.32c-.687-1.406-1.539-2.11-2.555-2.11-.484 0-.898.165-1.242.493-.343.312-.515.718-.515 1.218 0 .875 1.015 1.743 3.046 2.602 2.797 1.203 4.68 2.312 5.649 3.328.969 1.016 1.453 2.383 1.453 4.102 0 2.203-.812 4.047-2.437 5.53-1.579 1.407-3.485 2.11-5.719 2.11-3.828 0-6.539-1.867-8.133-5.601l4.5-2.086c.625 1.093 1.102 1.789 1.43 2.086.64.593 1.406.89 2.297.89 1.781 0 2.671-.812 2.671-2.437 0-.938-.687-1.813-2.062-2.625a74.552 74.552 0 00-1.594-.774c-.531-.25-1.07-.507-1.617-.773-1.531-.75-2.609-1.5-3.234-2.25-.797-.953-1.196-2.18-1.196-3.68 0-1.984.68-3.625 2.039-4.922 1.391-1.297 3.079-1.945 5.063-1.945 2.922 0 5.094 1.508 6.516 4.523zM310 20.172h5.297V43H310v-2.39c-2.172 2.03-4.508 3.046-7.008 3.046-3.156 0-5.765-1.14-7.828-3.422-2.047-2.328-3.07-5.234-3.07-8.718 0-3.422 1.023-6.274 3.07-8.555 2.047-2.281 4.609-3.422 7.688-3.422 2.656 0 5.039 1.094 7.148 3.281v-2.648zm-12.516 11.344c0 2.187.586 3.968 1.758 5.343 1.203 1.391 2.719 2.086 4.547 2.086 1.953 0 3.531-.672 4.734-2.015 1.204-1.39 1.805-3.157 1.805-5.297 0-2.14-.601-3.906-1.805-5.297-1.203-1.36-2.765-2.04-4.687-2.04-1.813 0-3.328.688-4.547 2.063-1.203 1.391-1.805 3.11-1.805 5.157zm47.611-6.616V43h-9.05V24.9h-3v-7.55h3v-7.7h9.05v7.7h5.15v7.55h-5.15zm17.602-7.55V31.8c0 3.167 1.533 4.75 4.6 4.75 3.067 0 4.6-1.583 4.6-4.75V17.35h9.05v16.2c0 3.467-1.15 6.067-3.45 7.8-2.267 1.733-5.667 2.6-10.2 2.6-4.533 0-7.95-.867-10.25-2.6-2.267-1.733-3.4-4.333-3.4-7.8v-16.2h9.05zm41.397 6.6c-1.667-.867-3.3-1.3-4.9-1.3-.833 0-1.517.167-2.05.5-.5.333-.75.783-.75 1.35 0 .3.033.55.1.75.1.167.283.333.55.5.3.167.717.317 1.25.45.567.133 1.3.3 2.2.5 2.5.5 4.367 1.4 5.6 2.7 1.233 1.267 1.85 2.9 1.85 4.9 0 1.5-.3 2.85-.9 4.05a8.844 8.844 0 01-2.5 3.05c-1.067.8-2.35 1.417-3.85 1.85-1.5.467-3.15.7-4.95.7-3.467 0-6.883-.983-10.25-2.95l3.3-6.4c2.533 1.733 4.933 2.6 7.2 2.6.833 0 1.517-.183 2.05-.55.533-.367.8-.833.8-1.4 0-.333-.05-.6-.15-.8-.067-.233-.233-.433-.5-.6-.267-.2-.667-.367-1.2-.5-.5-.167-1.167-.333-2-.5-2.8-.567-4.767-1.4-5.9-2.5-1.1-1.133-1.65-2.683-1.65-4.65 0-1.433.267-2.717.8-3.85a7.967 7.967 0 012.3-2.95c1-.8 2.2-1.417 3.6-1.85 1.433-.433 3.017-.65 4.75-.65 2.833 0 5.583.55 8.25 1.65l-3.05 5.9zm32.853.95V43h-9.05V24.9h-3.25v-7.55h3.25V13.5c0-2.133.2-3.833.6-5.1a8.789 8.789 0 011.6-2.95 11.594 11.594 0 012.55-2.4 12.91 12.91 0 013.2-1.55 10.84 10.84 0 013.35-.55c.767 0 1.467.083 2.1.25.667.167 1.333.4 2 .7v7.9c-.6-.3-1.167-.517-1.7-.65a5.026 5.026 0 00-1.6-.25c-.367 0-.75.067-1.15.2-.367.1-.717.333-1.05.7-.333.367-.567.9-.7 1.6-.1.667-.15 1.583-.15 2.75v3.2h6.35v7.55h-6.35zm18.668 5.2c0 .833.15 1.617.45 2.35.3.7.7 1.317 1.2 1.85.534.533 1.15.95 1.85 1.25.734.3 1.517.45 2.35.45.8 0 1.55-.15 2.25-.45.734-.3 1.35-.717 1.85-1.25a5.84 5.84 0 001.25-1.85c.334-.7.5-1.45.5-2.25s-.166-1.55-.5-2.25a5.702 5.702 0 00-1.25-1.9 5.182 5.182 0 00-1.85-1.25c-.7-.3-1.45-.45-2.25-.45a6.15 6.15 0 00-2.35.45c-.7.3-1.316.717-1.85 1.25-.5.533-.9 1.15-1.2 1.85a5.3 5.3 0 00-.45 2.2zm11.4-12.75h9.1V43h-9.1v-2.85c-1.933 2.433-4.55 3.65-7.85 3.65-1.866 0-3.583-.333-5.15-1a12.751 12.751 0 01-4.1-2.9c-1.166-1.233-2.083-2.683-2.75-4.35-.633-1.667-.95-3.483-.95-5.45 0-1.833.317-3.567.95-5.2.634-1.667 1.517-3.117 2.65-4.35a12.2 12.2 0 014.05-2.9c1.567-.733 3.3-1.1 5.2-1.1 3.2 0 5.85 1.117 7.95 3.35v-2.55zm34.609 8.3c-1.567-1.067-3.15-1.6-4.75-1.6a6.66 6.66 0 00-2.45.45 5.87 5.87 0 00-1.95 1.3 5.824 5.824 0 00-1.35 1.95c-.3.733-.45 1.567-.45 2.5 0 .9.15 1.733.45 2.5a7.1 7.1 0 001.3 1.95c.566.533 1.233.95 2 1.25.766.3 1.583.45 2.45.45 1.7 0 3.283-.583 4.75-1.75v7.7c-2.234.967-4.35 1.45-6.35 1.45-1.867 0-3.65-.317-5.35-.95a14.092 14.092 0 01-4.45-2.7 13.95 13.95 0 01-3.05-4.25c-.767-1.667-1.15-3.517-1.15-5.55s.366-3.883 1.1-5.55c.733-1.7 1.733-3.15 3-4.35 1.266-1.233 2.766-2.183 4.5-2.85 1.766-.7 3.65-1.05 5.65-1.05 2.2 0 4.233.467 6.1 1.4v7.7zm15.262-.75V43h-9.05V24.9h-3v-7.55h3v-7.7h9.05v7.7h5.15v7.55h-5.15zm17.602-7.55V31.8c0 3.167 1.533 4.75 4.6 4.75 3.067 0 4.6-1.583 4.6-4.75V17.35h9.05v16.2c0 3.467-1.15 6.067-3.45 7.8-2.267 1.733-5.667 2.6-10.2 2.6-4.533 0-7.95-.867-10.25-2.6-2.267-1.733-3.4-4.333-3.4-7.8v-16.2h9.05zm24.397 0h9.05v4.2c.967-1.533 2.15-2.7 3.55-3.5 1.4-.833 3.033-1.25 4.9-1.25h.75c.3 0 .633.033 1 .1v8.65c-1.2-.6-2.5-.9-3.9-.9-2.1 0-3.683.633-4.75 1.9-1.033 1.233-1.55 3.05-1.55 5.45v11h-9.05V17.35zm31.984 12.75c0 .833.15 1.617.45 2.35.3.7.7 1.317 1.2 1.85.533.533 1.15.95 1.85 1.25.733.3 1.517.45 2.35.45.8 0 1.55-.15 2.25-.45.733-.3 1.35-.717 1.85-1.25.533-.533.95-1.15 1.25-1.85.333-.7.5-1.45.5-2.25s-.167-1.55-.5-2.25a5.717 5.717 0 00-1.25-1.9 5.191 5.191 0 00-1.85-1.25c-.7-.3-1.45-.45-2.25-.45-.833 0-1.617.15-2.35.45-.7.3-1.317.717-1.85 1.25-.5.533-.9 1.15-1.2 1.85a5.3 5.3 0 00-.45 2.2zm11.4-12.75h9.1V43h-9.1v-2.85c-1.933 2.433-4.55 3.65-7.85 3.65-1.867 0-3.583-.333-5.15-1a12.74 12.74 0 01-4.1-2.9c-1.167-1.233-2.083-2.683-2.75-4.35-.633-1.667-.95-3.483-.95-5.45 0-1.833.317-3.567.95-5.2.633-1.667 1.517-3.117 2.65-4.35a12.18 12.18 0 014.05-2.9c1.567-.733 3.3-1.1 5.2-1.1 3.2 0 5.85 1.117 7.95 3.35v-2.55zm32.259 6.6c-1.667-.867-3.3-1.3-4.9-1.3-.834 0-1.517.167-2.05.5-.5.333-.75.783-.75 1.35 0 .3.033.55.1.75.1.167.283.333.55.5.3.167.716.317 1.25.45.566.133 1.3.3 2.2.5 2.5.5 4.366 1.4 5.6 2.7 1.233 1.267 1.85 2.9 1.85 4.9 0 1.5-.3 2.85-.9 4.05a8.855 8.855 0 01-2.5 3.05c-1.067.8-2.35 1.417-3.85 1.85-1.5.467-3.15.7-4.95.7-3.467 0-6.884-.983-10.25-2.95l3.3-6.4c2.533 1.733 4.933 2.6 7.2 2.6.833 0 1.516-.183 2.05-.55.533-.367.8-.833.8-1.4 0-.333-.05-.6-.15-.8-.067-.233-.234-.433-.5-.6-.267-.2-.667-.367-1.2-.5-.5-.167-1.167-.333-2-.5-2.8-.567-4.767-1.4-5.9-2.5-1.1-1.133-1.65-2.683-1.65-4.65 0-1.433.266-2.717.8-3.85a7.967 7.967 0 012.3-2.95c1-.8 2.2-1.417 3.6-1.85 1.433-.433 3.016-.65 4.75-.65 2.833 0 5.583.55 8.25 1.65l-3.05 5.9zM9.5 96.1c0 .833.15 1.617.45 2.35.3.7.7 1.317 1.2 1.85.533.533 1.15.95 1.85 1.25.733.3 1.517.45 2.35.45.8 0 1.55-.15 2.25-.45.733-.3 1.35-.717 1.85-1.25a5.85 5.85 0 001.25-1.85c.333-.7.5-1.45.5-2.25s-.167-1.55-.5-2.25a5.712 5.712 0 00-1.25-1.9 5.188 5.188 0 00-1.85-1.25c-.7-.3-1.45-.45-2.25-.45s-1.567.15-2.3.45c-.7.3-1.317.717-1.85 1.25-.5.533-.917 1.15-1.25 1.85a5.3 5.3 0 00-.45 2.2zm11.4-28.6H30V109h-9.1v-2.85c-1.933 2.433-4.55 3.65-7.85 3.65-1.867 0-3.583-.35-5.15-1.05a12.745 12.745 0 01-4.1-2.9c-1.167-1.233-2.083-2.683-2.75-4.35C.417 99.833.1 98.033.1 96.1c0-1.833.3-3.567.9-5.2.633-1.667 1.517-3.117 2.65-4.35a12.187 12.187 0 014.05-2.9c1.6-.733 3.35-1.1 5.25-1.1 3.2 0 5.85 1.117 7.95 3.35V67.5zm34.009 24.95c-.3-1.267-.917-2.283-1.85-3.05-.934-.767-2.067-1.15-3.4-1.15-1.4 0-2.55.367-3.45 1.1-.867.733-1.417 1.767-1.65 3.1h10.35zm-10.6 5.25c0 3.9 1.833 5.85 5.5 5.85 1.966 0 3.45-.8 4.45-2.4h8.75c-1.767 5.867-6.184 8.8-13.25 8.8-2.167 0-4.15-.317-5.95-.95-1.8-.667-3.35-1.6-4.65-2.8a12.527 12.527 0 01-2.95-4.3c-.7-1.667-1.05-3.533-1.05-5.6 0-2.133.333-4.05 1-5.75.666-1.733 1.616-3.2 2.85-4.4 1.233-1.2 2.716-2.117 4.45-2.75 1.766-.667 3.75-1 5.95-1 2.166 0 4.116.333 5.85 1 1.733.633 3.2 1.567 4.4 2.8 1.2 1.233 2.116 2.75 2.75 4.55.633 1.767.95 3.767.95 6v.95h-19.05zM84.674 109l6.4-37.7h9.7l7.55 20.1 7.5-20.1h9.7l6.4 37.7h-9.75l-3.25-21.7-8.9 21.7h-3.9l-8.45-21.7-3.25 21.7h-9.75zm69.99-16.55c-.3-1.267-.916-2.283-1.85-3.05-.933-.767-2.066-1.15-3.4-1.15-1.4 0-2.55.367-3.45 1.1-.866.733-1.416 1.767-1.65 3.1h10.35zm-10.6 5.25c0 3.9 1.834 5.85 5.5 5.85 1.967 0 3.45-.8 4.45-2.4h8.75c-1.766 5.867-6.183 8.8-13.25 8.8-2.166 0-4.15-.317-5.95-.95-1.8-.667-3.35-1.6-4.65-2.8a12.537 12.537 0 01-2.95-4.3c-.7-1.667-1.05-3.533-1.05-5.6 0-2.133.334-4.05 1-5.75.667-1.733 1.617-3.2 2.85-4.4 1.234-1.2 2.717-2.117 4.45-2.75 1.767-.667 3.75-1 5.95-1 2.167 0 4.117.333 5.85 1 1.734.633 3.2 1.567 4.4 2.8 1.2 1.233 2.117 2.75 2.75 4.55.634 1.767.95 3.767.95 6v.95h-19.05zm32.624-1.6c0 .833.15 1.617.45 2.35.3.7.7 1.317 1.2 1.85.533.533 1.15.95 1.85 1.25.733.3 1.516.45 2.35.45.8 0 1.55-.15 2.25-.45.733-.3 1.35-.717 1.85-1.25.533-.533.95-1.15 1.25-1.85.333-.7.5-1.45.5-2.25s-.167-1.55-.5-2.25a5.717 5.717 0 00-1.25-1.9 5.191 5.191 0 00-1.85-1.25c-.7-.3-1.45-.45-2.25-.45s-1.567.15-2.3.45c-.7.3-1.317.717-1.851 1.25a7.236 7.236 0 00-1.249 1.85 5.3 5.3 0 00-.45 2.2zm11.4-28.6h9.1V109h-9.1v-2.85c-1.934 2.433-4.55 3.65-7.85 3.65-1.867 0-3.584-.35-5.15-1.05a12.734 12.734 0 01-4.1-2.9c-1.167-1.233-2.084-2.683-2.75-4.35-.634-1.667-.95-3.467-.95-5.4 0-1.833.3-3.567.9-5.2.633-1.667 1.516-3.117 2.65-4.35a12.18 12.18 0 014.05-2.9c1.6-.733 3.35-1.1 5.25-1.1 3.2 0 5.85 1.117 7.95 3.35V67.5zm24.308 15.85V109h-9.05V83.35h9.05zm-9.65-9.85c0-.7.133-1.35.4-1.95a5.113 5.113 0 011.1-1.65c.467-.467 1-.833 1.6-1.1a5.1 5.1 0 012-.4c.7 0 1.35.133 1.95.4a5.12 5.12 0 011.65 1.1 5.113 5.113 0 011.1 1.65c.267.6.4 1.25.4 1.95s-.133 1.367-.4 2a5.274 5.274 0 01-1.1 1.6 5.12 5.12 0 01-1.65 1.1c-.6.267-1.25.4-1.95.4a5.1 5.1 0 01-2-.4 5.278 5.278 0 01-1.6-1.1c-.467-.467-.833-1-1.1-1.6-.267-.633-.4-1.3-.4-2zm35.184 18.15c-1.566-1.067-3.15-1.6-4.75-1.6-.866 0-1.683.15-2.45.45a5.89 5.89 0 00-1.95 1.3 5.853 5.853 0 00-1.35 1.95c-.3.733-.45 1.567-.45 2.5 0 .9.15 1.733.45 2.5a7.149 7.149 0 001.3 1.95c.567.533 1.234.95 2 1.25.767.3 1.584.45 2.45.45 1.7 0 3.284-.583 4.75-1.75v7.7c-2.233.967-4.35 1.45-6.35 1.45a15.21 15.21 0 01-5.35-.95 14.092 14.092 0 01-4.45-2.7 13.988 13.988 0 01-3.05-4.25c-.766-1.667-1.15-3.517-1.15-5.55s.367-3.883 1.1-5.55c.734-1.7 1.734-3.15 3-4.35 1.267-1.233 2.767-2.183 4.5-2.85 1.767-.7 3.65-1.05 5.65-1.05 2.2 0 4.234.467 6.1 1.4v7.7zm13.562 4.45c0 .833.15 1.617.45 2.35.3.7.7 1.317 1.2 1.85.534.533 1.15.95 1.85 1.25.734.3 1.517.45 2.35.45.8 0 1.55-.15 2.25-.45.734-.3 1.35-.717 1.85-1.25a5.84 5.84 0 001.25-1.85c.334-.7.5-1.45.5-2.25s-.166-1.55-.5-2.25a5.702 5.702 0 00-1.25-1.9 5.182 5.182 0 00-1.85-1.25c-.7-.3-1.45-.45-2.25-.45a6.15 6.15 0 00-2.35.45c-.7.3-1.316.717-1.85 1.25-.5.533-.9 1.15-1.2 1.85a5.3 5.3 0 00-.45 2.2zm11.4-12.75h9.1V109h-9.1v-2.85c-1.933 2.433-4.55 3.65-7.85 3.65-1.866 0-3.583-.333-5.15-1a12.756 12.756 0 01-4.1-2.9c-1.166-1.233-2.083-2.683-2.75-4.35-.633-1.667-.95-3.483-.95-5.45 0-1.833.317-3.567.95-5.2.634-1.667 1.517-3.117 2.65-4.35a12.2 12.2 0 014.05-2.9c1.567-.733 3.3-1.1 5.2-1.1 3.2 0 5.85 1.117 7.95 3.35v-2.55zm15.259 0h9.05v4.2c.966-1.533 2.15-2.7 3.55-3.5 1.4-.833 3.033-1.25 4.9-1.25h.75c.3 0 .633.033 1 .1v8.65c-1.2-.6-2.5-.9-3.9-.9-2.1 0-3.684.633-4.75 1.9-1.034 1.233-1.55 3.05-1.55 5.45v11h-9.05V83.35zm42.334 9.1c-.3-1.267-.917-2.283-1.85-3.05-.934-.767-2.067-1.15-3.4-1.15-1.4 0-2.55.367-3.45 1.1-.867.733-1.417 1.767-1.65 3.1h10.35zm-10.6 5.25c0 3.9 1.833 5.85 5.5 5.85 1.966 0 3.45-.8 4.45-2.4h8.75c-1.767 5.867-6.184 8.8-13.25 8.8-2.167 0-4.15-.317-5.95-.95-1.8-.667-3.35-1.6-4.65-2.8a12.523 12.523 0 01-2.95-4.3c-.7-1.667-1.05-3.533-1.05-5.6 0-2.133.333-4.05 1-5.75.666-1.733 1.616-3.2 2.85-4.4 1.233-1.2 2.716-2.117 4.45-2.75 1.766-.667 3.75-1 5.95-1 2.166 0 4.116.333 5.85 1 1.733.633 3.2 1.567 4.4 2.8 1.2 1.233 2.116 2.75 2.75 4.55.633 1.767.95 3.767.95 6v.95h-19.05zm22.925 8.036c0-.544.102-1.054.306-1.53.204-.499.487-.929.85-1.292a3.965 3.965 0 011.258-.85 4.09 4.09 0 011.564-.306c.544 0 1.054.102 1.53.306a3.89 3.89 0 011.292.85c.362.363.646.793.85 1.292.204.476.306.986.306 1.53s-.102 1.065-.306 1.564a3.993 3.993 0 01-.85 1.258 3.89 3.89 0 01-1.292.85 3.843 3.843 0 01-1.53.306 4.09 4.09 0 01-1.564-.306 3.965 3.965 0 01-1.258-.85 3.977 3.977 0 01-.85-1.258 4.093 4.093 0 01-.306-1.564zm11.555 0c0-.544.102-1.054.306-1.53.204-.499.487-.929.85-1.292a3.965 3.965 0 011.258-.85 4.09 4.09 0 011.564-.306c.544 0 1.054.102 1.53.306a3.89 3.89 0 011.292.85c.362.363.646.793.85 1.292.204.476.306.986.306 1.53s-.102 1.065-.306 1.564a3.993 3.993 0 01-.85 1.258 3.89 3.89 0 01-1.292.85 3.843 3.843 0 01-1.53.306 4.09 4.09 0 01-1.564-.306 3.965 3.965 0 01-1.258-.85 3.977 3.977 0 01-.85-1.258 4.093 4.093 0 01-.306-1.564zm11.554 0c0-.544.102-1.054.306-1.53a3.894 3.894 0 012.108-2.142 4.093 4.093 0 011.564-.306c.544 0 1.054.102 1.53.306.499.204.93.487 1.292.85.363.363.646.793.85 1.292.204.476.306.986.306 1.53s-.102 1.065-.306 1.564a3.977 3.977 0 01-.85 1.258 3.869 3.869 0 01-1.292.85 3.843 3.843 0 01-1.53.306 4.093 4.093 0 01-1.564-.306 3.993 3.993 0 01-2.108-2.108 4.093 4.093 0 01-.306-1.564z" fill="#fff"/></svg>