<svg width="535" height="34" viewBox="0 0 535 34" fill="none" xmlns="http://www.w3.org/2000/svg"><path d="M.68 24.305c0-.565.206-1.055.62-1.469.414-.413.908-.62 1.483-.62.575 0 1.07.207 1.484.62.413.414.62.909.62 1.484 0 .585-.207 1.085-.62 1.498a2.017 2.017 0 01-1.484.606c-.595 0-1.095-.202-1.498-.606-.404-.403-.606-.908-.606-1.513zm6.466 0c0-.565.206-1.055.62-1.469.414-.413.908-.62 1.484-.62.575 0 1.07.207 1.483.62.414.414.62.909.62 1.484 0 .585-.206 1.085-.62 1.498a2.017 2.017 0 01-1.483.606c-.596 0-1.095-.202-1.499-.606-.404-.403-.605-.908-.605-1.513zm6.466 0c0-.565.207-1.055.62-1.469.414-.413.909-.62 1.484-.62s1.07.207 1.483.62c.414.414.621.909.621 1.484 0 .585-.207 1.085-.62 1.498a2.017 2.017 0 01-1.484.606c-.595 0-1.095-.202-1.498-.606-.404-.403-.606-.908-.606-1.513zm17.41-12.412v4.526c-.777-.95-1.473-1.6-2.089-1.953-.605-.364-1.317-.545-2.134-.545-1.282 0-2.346.449-3.194 1.347-.847.898-1.271 2.023-1.271 3.376 0 1.382.409 2.517 1.226 3.405.827.888 1.882 1.332 3.163 1.332.818 0 1.54-.176 2.165-.53.605-.342 1.317-1.009 2.134-1.997v4.495c-1.382.717-2.765 1.075-4.147 1.075-2.28 0-4.188-.737-5.722-2.21-1.534-1.483-2.3-3.325-2.3-5.525s.776-4.057 2.33-5.57c1.554-1.514 3.462-2.27 5.722-2.27a8.55 8.55 0 014.117 1.044zm2.604 6.63c0-2.13.762-3.941 2.285-5.435 1.524-1.493 3.381-2.24 5.57-2.24 2.2 0 4.067.752 5.601 2.255 1.514 1.504 2.27 3.35 2.27 5.54 0 2.21-.761 4.062-2.285 5.556-1.534 1.483-3.416 2.225-5.646 2.225-2.21 0-4.062-.757-5.555-2.27-1.493-1.494-2.24-3.371-2.24-5.631zm3.481.06c0 1.473.394 2.639 1.18 3.497.808.867 1.873 1.301 3.195 1.301 1.332 0 2.396-.428 3.194-1.286.797-.858 1.195-2.003 1.195-3.436 0-1.433-.398-2.579-1.195-3.436-.808-.868-1.872-1.302-3.194-1.302-1.302 0-2.356.434-3.164 1.302-.807.867-1.21 1.988-1.21 3.36zm15.864-7.326h3.405v1.362c.656-.686 1.216-1.15 1.68-1.392.495-.253 1.116-.379 1.862-.379 1.665 0 2.982.727 3.95 2.18 1.07-1.453 2.519-2.18 4.345-2.18 3.32 0 4.98 2.013 4.98 6.04V26h-3.42v-8.189c0-1.413-.172-2.412-.515-2.997-.354-.595-.934-.893-1.741-.893-.939 0-1.625.353-2.059 1.06-.424.706-.635 1.841-.635 3.405V26h-3.421v-8.144c0-2.623-.757-3.935-2.27-3.935-.96 0-1.66.358-2.105 1.075-.434.716-.65 1.846-.65 3.39V26H52.97V11.257zm23.825 7.266c0-2.13.762-3.941 2.285-5.435 1.524-1.493 3.38-2.24 5.57-2.24 2.2 0 4.067.752 5.601 2.255 1.514 1.504 2.27 3.35 2.27 5.54 0 2.21-.761 4.062-2.285 5.556-1.534 1.483-3.416 2.225-5.646 2.225-2.21 0-4.062-.757-5.555-2.27-1.494-1.494-2.24-3.371-2.24-5.631zm3.481.06c0 1.473.394 2.639 1.18 3.497.808.867 1.873 1.301 3.195 1.301 1.332 0 2.396-.428 3.194-1.286.797-.858 1.195-2.003 1.195-3.436 0-1.433-.398-2.579-1.195-3.436-.808-.868-1.872-1.302-3.194-1.302-1.302 0-2.357.434-3.164 1.302-.807.867-1.21 1.988-1.21 3.36zm36.903-6.69v4.526c-.777-.95-1.473-1.6-2.088-1.953-.606-.364-1.317-.545-2.135-.545-1.281 0-2.346.449-3.194 1.347-.847.898-1.271 2.023-1.271 3.376 0 1.382.409 2.517 1.226 3.405.828.888 1.882 1.332 3.164 1.332.817 0 1.539-.176 2.164-.53.606-.342 1.317-1.009 2.134-1.997v4.495c-1.382.717-2.765 1.075-4.147 1.075-2.281 0-4.188-.737-5.722-2.21-1.534-1.483-2.3-3.325-2.3-5.525s.777-4.057 2.331-5.57c1.554-1.514 3.461-2.27 5.721-2.27 1.453 0 2.826.347 4.117 1.044zm6.706-.636v8.461c0 2.442.964 3.663 2.891 3.663 1.928 0 2.891-1.22 2.891-3.663v-8.461h3.406v8.537c0 1.18-.146 2.2-.439 3.058-.282.767-.772 1.458-1.468 2.073-1.151 1-2.614 1.499-4.39 1.499-1.766 0-3.224-.5-4.374-1.499-.707-.615-1.206-1.306-1.499-2.073-.282-.687-.424-1.706-.424-3.058v-8.537h3.406zm16.893 0V26h-3.406V11.257h3.406zm-3.921-6.13c0-.596.217-1.11.651-1.544.434-.434.954-.651 1.559-.651.616 0 1.14.217 1.574.65.434.424.651.944.651 1.56 0 .615-.217 1.14-.651 1.574-.423.434-.943.65-1.559.65-.615 0-1.14-.216-1.574-.65a2.162 2.162 0 01-.651-1.59zM155.961.433h3.421V26h-3.421v-1.544c-1.342 1.312-2.861 1.968-4.556 1.968-2.019 0-3.694-.737-5.026-2.21-1.322-1.504-1.983-3.38-1.983-5.631 0-2.2.661-4.036 1.983-5.51 1.312-1.483 2.962-2.225 4.95-2.225 1.725 0 3.269.707 4.632 2.12V.433zm-8.083 18.149c0 1.413.378 2.563 1.135 3.451.777.898 1.756 1.347 2.937 1.347 1.261 0 2.28-.434 3.057-1.301.777-.898 1.166-2.039 1.166-3.421 0-1.383-.389-2.523-1.166-3.421-.777-.878-1.786-1.317-3.027-1.317-1.171 0-2.15.444-2.937 1.332-.777.898-1.165 2.008-1.165 3.33zm26.671-7.326h3.421V26h-3.421v-1.544c-1.403 1.312-2.912 1.968-4.526 1.968-2.039 0-3.724-.737-5.056-2.21-1.322-1.504-1.983-3.38-1.983-5.631 0-2.21.661-4.052 1.983-5.525 1.322-1.473 2.977-2.21 4.965-2.21 1.715 0 3.254.707 4.617 2.12v-1.711zm-8.083 7.326c0 1.413.378 2.563 1.135 3.451.777.898 1.756 1.347 2.936 1.347 1.262 0 2.281-.434 3.058-1.301.777-.898 1.166-2.039 1.166-3.421 0-1.383-.389-2.523-1.166-3.421-.777-.878-1.786-1.317-3.027-1.317-1.171 0-2.15.444-2.937 1.332-.777.898-1.165 2.008-1.165 3.33zm24.37-4.813l-2.816 1.498c-.444-.908-.994-1.362-1.65-1.362-.312 0-.58.106-.802.318a1.014 1.014 0 00-.333.787c0 .565.656 1.125 1.968 1.68 1.806.777 3.022 1.493 3.648 2.15.626.655.938 1.538.938 2.648 0 1.423-.524 2.614-1.574 3.572-1.019.909-2.25 1.363-3.693 1.363-2.473 0-4.223-1.206-5.253-3.618l2.907-1.347c.403.706.711 1.155.923 1.347.414.384.908.575 1.483.575 1.151 0 1.726-.524 1.726-1.574 0-.605-.444-1.17-1.332-1.695a48.48 48.48 0 00-1.029-.5 86.978 86.978 0 01-1.045-.5c-.989-.484-1.685-.968-2.089-1.452-.514-.616-.772-1.408-.772-2.377 0-1.281.439-2.34 1.317-3.178.898-.838 1.988-1.257 3.27-1.257 1.887 0 3.289.974 4.208 2.921zm17.104.665V26h-3.406V14.435h-1.453v-3.178h1.453V5.853h3.406v5.404h2.649v3.178h-2.649zm8.371-3.178v8.461c0 2.442.964 3.663 2.891 3.663s2.891-1.22 2.891-3.663v-8.461h3.406v8.537c0 1.18-.146 2.2-.439 3.058-.283.767-.772 1.458-1.468 2.073-1.151 1-2.614 1.499-4.39 1.499-1.766 0-3.224-.5-4.375-1.499-.706-.615-1.205-1.306-1.498-2.073-.283-.687-.424-1.706-.424-3.058v-8.537h3.406zm29.088 3.521V26h-5.611V14.778h-1.86v-4.681h1.86V5.323h5.611v4.774h3.193v4.681h-3.193zm10.813 3.224c0 .517.093 1.002.279 1.457.186.434.434.816.744 1.147.33.33.713.589 1.147.775.455.186.94.279 1.457.279.496 0 .961-.093 1.395-.279a3.213 3.213 0 001.147-.775c.331-.33.589-.713.775-1.147.207-.434.31-.899.31-1.395s-.103-.961-.31-1.395a3.536 3.536 0 00-.775-1.178 3.213 3.213 0 00-1.147-.775 3.504 3.504 0 00-1.395-.279 3.81 3.81 0 00-1.457.279 3.62 3.62 0 00-1.147.775c-.31.33-.558.713-.744 1.147a3.286 3.286 0 00-.279 1.364zm7.068-7.905h5.642V26h-5.642v-1.767c-1.199 1.509-2.821 2.263-4.867 2.263-1.158 0-2.222-.207-3.193-.62a7.887 7.887 0 01-2.542-1.798 8.425 8.425 0 01-1.705-2.697c-.393-1.033-.589-2.16-.589-3.379 0-1.137.196-2.211.589-3.224a8.276 8.276 0 011.643-2.697 7.542 7.542 0 012.511-1.798c.971-.455 2.046-.682 3.224-.682 1.984 0 3.627.692 4.929 2.077v-1.581zm9.46 0h5.611v2.604c.6-.95 1.333-1.674 2.201-2.17.868-.517 1.881-.775 3.038-.775h.465c.186 0 .393.02.62.062v5.363a5.331 5.331 0 00-2.418-.558c-1.302 0-2.283.393-2.945 1.178-.64.765-.961 1.891-.961 3.379V26h-5.611V10.097zm20.052 0v23.839h-5.611V10.097h5.611zm-5.983-6.107c0-.434.082-.837.248-1.209.165-.393.392-.734.682-1.023.289-.29.62-.517.992-.682a3.16 3.16 0 011.24-.248c.434 0 .837.083 1.209.248.392.165.733.393 1.023.682.289.29.516.63.682 1.023.165.372.248.775.248 1.209 0 .434-.083.847-.248 1.24a3.287 3.287 0 01-.682.992c-.29.29-.631.517-1.023.682a2.943 2.943 0 01-1.209.248 3.16 3.16 0 01-1.24-.248 3.266 3.266 0 01-.992-.682c-.29-.29-.517-.62-.682-.992a3.151 3.151 0 01-.248-1.24zm21.442 11.749c-.186-.785-.568-1.416-1.147-1.891-.579-.475-1.281-.713-2.108-.713-.868 0-1.581.227-2.139.682-.537.455-.878 1.095-1.023 1.922h6.417zm-6.572 3.255c0 2.418 1.137 3.627 3.41 3.627 1.219 0 2.139-.496 2.759-1.488h5.425c-1.095 3.637-3.834 5.456-8.215 5.456-1.343 0-2.573-.196-3.689-.589-1.116-.413-2.077-.992-2.883-1.736a7.774 7.774 0 01-1.829-2.666c-.434-1.033-.651-2.19-.651-3.472 0-1.323.207-2.511.62-3.565.413-1.075 1.002-1.984 1.767-2.728.765-.744 1.684-1.312 2.759-1.705 1.095-.413 2.325-.62 3.689-.62 1.343 0 2.552.207 3.627.62 1.075.393 1.984.971 2.728 1.736.744.765 1.312 1.705 1.705 2.821.393 1.095.589 2.335.589 3.72v.589h-11.811zm21.492-4.216V26h-5.611V14.778h-1.86v-4.681h1.86V5.323h5.611v4.774h3.193v4.681h-3.193zm10.813 3.224c0 .517.093 1.002.279 1.457.186.434.434.816.744 1.147.331.33.713.589 1.147.775.455.186.941.279 1.457.279.496 0 .961-.093 1.395-.279a3.213 3.213 0 001.147-.775c.331-.33.589-.713.775-1.147.207-.434.31-.899.31-1.395s-.103-.961-.31-1.395a3.536 3.536 0 00-.775-1.178 3.213 3.213 0 00-1.147-.775 3.504 3.504 0 00-1.395-.279c-.516 0-1.002.093-1.457.279a3.63 3.63 0 00-1.147.775c-.31.33-.558.713-.744 1.147a3.286 3.286 0 00-.279 1.364zm7.068-7.905h5.642V26h-5.642v-1.767c-1.198 1.509-2.821 2.263-4.867 2.263-1.157 0-2.221-.207-3.193-.62a7.909 7.909 0 01-2.542-1.798 8.46 8.46 0 01-1.705-2.697c-.392-1.033-.589-2.16-.589-3.379 0-1.137.197-2.211.589-3.224a8.31 8.31 0 011.643-2.697 7.562 7.562 0 012.511-1.798c.972-.455 2.046-.682 3.224-.682 1.984 0 3.627.692 4.929 2.077v-1.581zm25.204 7.905c0 .517.093 1.002.279 1.457.186.434.434.816.744 1.147.33.33.713.589 1.147.775.454.186.94.279 1.457.279.496 0 .961-.093 1.395-.279a3.222 3.222 0 001.147-.775c.33-.33.589-.713.775-1.147.206-.434.31-.899.31-1.395s-.104-.961-.31-1.395a3.552 3.552 0 00-.775-1.178 3.222 3.222 0 00-1.147-.775 3.504 3.504 0 00-1.395-.279c-.496 0-.972.093-1.426.279a3.62 3.62 0 00-1.147.775c-.31.33-.569.713-.775 1.147a3.286 3.286 0 00-.279 1.364zM373.324.27h5.642V26h-5.642v-1.767c-1.199 1.509-2.821 2.263-4.867 2.263-1.158 0-2.222-.217-3.193-.651a7.887 7.887 0 01-2.542-1.798 8.425 8.425 0 01-1.705-2.697c-.393-1.033-.589-2.15-.589-3.348 0-1.137.186-2.211.558-3.224a8.276 8.276 0 011.643-2.697 7.542 7.542 0 012.511-1.798c.992-.455 2.077-.682 3.255-.682 1.984 0 3.627.692 4.929 2.077V.27zm21.085 15.469c-.186-.785-.568-1.416-1.147-1.891-.579-.475-1.281-.713-2.108-.713-.868 0-1.581.227-2.139.682-.537.455-.878 1.095-1.023 1.922h6.417zm-6.572 3.255c0 2.418 1.137 3.627 3.41 3.627 1.219 0 2.139-.496 2.759-1.488h5.425c-1.095 3.637-3.834 5.456-8.215 5.456-1.343 0-2.573-.196-3.689-.589-1.116-.413-2.077-.992-2.883-1.736a7.774 7.774 0 01-1.829-2.666c-.434-1.033-.651-2.19-.651-3.472 0-1.323.207-2.511.62-3.565.413-1.075 1.002-1.984 1.767-2.728.765-.744 1.684-1.312 2.759-1.705 1.095-.413 2.325-.62 3.689-.62 1.343 0 2.552.207 3.627.62 1.075.393 1.984.971 2.728 1.736.744.765 1.312 1.705 1.705 2.821.393 1.095.589 2.335.589 3.72v.589h-11.811zm37.551-3.751c-.972-.661-1.953-.992-2.945-.992-.538 0-1.044.093-1.519.279a3.641 3.641 0 00-1.209.806c-.352.33-.631.734-.837 1.209-.186.455-.279.971-.279 1.55 0 .558.093 1.075.279 1.55.206.455.475.858.806 1.209.351.33.764.589 1.24.775.475.186.981.279 1.519.279 1.054 0 2.035-.362 2.945-1.085v4.774c-1.385.6-2.697.899-3.937.899a9.42 9.42 0 01-3.317-.589 8.734 8.734 0 01-2.759-1.674 8.642 8.642 0 01-1.891-2.635c-.476-1.033-.713-2.18-.713-3.441 0-1.26.227-2.408.682-3.441a8.045 8.045 0 011.86-2.697 8.126 8.126 0 012.79-1.767 9.42 9.42 0 013.503-.651c1.364 0 2.624.29 3.782.868v4.774zm3.2-5.146h5.611v2.604c.599-.95 1.333-1.674 2.201-2.17.868-.517 1.88-.775 3.038-.775h.465c.186 0 .392.02.62.062v5.363a5.331 5.331 0 00-2.418-.558c-1.302 0-2.284.393-2.945 1.178-.641.765-.961 1.891-.961 3.379V26h-5.611V10.097zm26.247 5.642c-.186-.785-.568-1.416-1.147-1.891-.579-.475-1.281-.713-2.108-.713-.868 0-1.581.227-2.139.682-.537.455-.878 1.095-1.023 1.922h6.417zm-6.572 3.255c0 2.418 1.137 3.627 3.41 3.627 1.219 0 2.139-.496 2.759-1.488h5.425c-1.095 3.637-3.834 5.456-8.215 5.456-1.343 0-2.573-.196-3.689-.589-1.116-.413-2.077-.992-2.883-1.736a7.774 7.774 0 01-1.829-2.666c-.434-1.033-.651-2.19-.651-3.472 0-1.323.207-2.511.62-3.565.413-1.075 1.002-1.984 1.767-2.728.765-.744 1.684-1.312 2.759-1.705 1.095-.413 2.325-.62 3.689-.62 1.343 0 2.552.207 3.627.62 1.075.393 1.984.971 2.728 1.736.744.765 1.312 1.705 1.705 2.821.393 1.095.589 2.335.589 3.72v.589h-11.811zm8.463-15.996l-5.394 4.774-2.604-1.922 4.433-5.425 3.565 2.573zm11.763 15.004c0 .517.093 1.002.279 1.457.186.434.434.816.744 1.147.331.33.713.589 1.147.775.455.186.941.279 1.457.279.496 0 .961-.093 1.395-.279a3.213 3.213 0 001.147-.775c.331-.33.589-.713.775-1.147.207-.434.31-.899.31-1.395s-.103-.961-.31-1.395a3.536 3.536 0 00-.775-1.178 3.213 3.213 0 00-1.147-.775 3.504 3.504 0 00-1.395-.279c-.496 0-.971.093-1.426.279a3.63 3.63 0 00-1.147.775c-.31.33-.568.713-.775 1.147a3.286 3.286 0 00-.279 1.364zM475.557.27h5.642V26h-5.642v-1.767c-1.198 1.509-2.821 2.263-4.867 2.263-1.157 0-2.221-.217-3.193-.651a7.909 7.909 0 01-2.542-1.798 8.46 8.46 0 01-1.705-2.697c-.392-1.033-.589-2.15-.589-3.348 0-1.137.186-2.211.558-3.224a8.31 8.31 0 011.643-2.697 7.562 7.562 0 012.511-1.798c.992-.455 2.077-.682 3.255-.682 1.984 0 3.627.692 4.929 2.077V.27zm15.072 9.827V26h-5.611V10.097h5.611zm-5.983-6.107c0-.434.082-.837.248-1.209.165-.393.392-.734.682-1.023.289-.29.62-.517.992-.682a3.16 3.16 0 011.24-.248c.434 0 .837.083 1.209.248.392.165.733.393 1.023.682.289.29.516.63.682 1.023.165.372.248.775.248 1.209 0 .434-.083.847-.248 1.24a3.287 3.287 0 01-.682.992c-.29.29-.631.517-1.023.682a2.943 2.943 0 01-1.209.248 3.16 3.16 0 01-1.24-.248 3.266 3.266 0 01-.992-.682c-.29-.29-.517-.62-.682-.992a3.151 3.151 0 01-.248-1.24zm16.079 10.788V26h-5.611V14.778h-1.86v-4.681h1.86V5.323h5.611v4.774h3.193v4.681h-3.193zm10.876 3.193c0 .537.093 1.033.279 1.488.206.434.465.816.775 1.147.33.33.713.589 1.147.775.454.186.93.279 1.426.279.496 0 .961-.093 1.395-.279a3.222 3.222 0 001.147-.775c.33-.33.589-.713.775-1.147.206-.455.31-.94.31-1.457 0-.496-.104-.961-.31-1.395a3.552 3.552 0 00-.775-1.178 3.222 3.222 0 00-1.147-.775 3.504 3.504 0 00-1.395-.279c-.496 0-.972.093-1.426.279a3.62 3.62 0 00-1.147.775c-.31.33-.569.713-.775 1.147a3.504 3.504 0 00-.279 1.395zm-5.921-.062c0-1.178.237-2.273.713-3.286a7.889 7.889 0 011.984-2.666c.847-.765 1.849-1.364 3.007-1.798 1.178-.434 2.459-.651 3.844-.651 1.364 0 2.624.217 3.782.651 1.178.413 2.19 1.002 3.038 1.767a7.656 7.656 0 012.015 2.697c.475 1.033.713 2.18.713 3.441 0 1.26-.248 2.418-.744 3.472a8.244 8.244 0 01-1.984 2.697c-.848.744-1.871 1.323-3.069 1.736-1.178.413-2.46.62-3.844.62-1.364 0-2.625-.207-3.782-.62-1.158-.413-2.16-1.002-3.007-1.767a8.338 8.338 0 01-1.953-2.728c-.476-1.075-.713-2.263-.713-3.565zm22.047 5.115c0-.496.093-.961.279-1.395.186-.455.444-.847.775-1.178a3.62 3.62 0 011.147-.775c.454-.186.93-.279 1.426-.279.496 0 .961.093 1.395.279.454.186.847.444 1.178.775.33.33.589.723.775 1.178.186.434.279.899.279 1.395s-.093.971-.279 1.426a3.551 3.551 0 01-1.953 1.922 3.504 3.504 0 01-1.395.279c-.496 0-.972-.093-1.426-.279a3.62 3.62 0 01-1.147-.775 3.622 3.622 0 01-.775-1.147 3.73 3.73 0 01-.279-1.426z" fill="#66124B"/></svg>