<svg width="227" height="44" viewBox="0 0 227 44" fill="none" xmlns="http://www.w3.org/2000/svg"><path d="M8.115 16.68h2.6c2.88 0 4.32-1.253 4.32-3.76 0-2.507-1.44-3.76-4.32-3.76h-2.6v7.52zm0 16.32H.275V2.84h12.48c3.386 0 5.973.88 7.76 2.64 1.813 1.76 2.72 4.24 2.72 7.44s-.907 5.68-2.72 7.44c-1.787 1.76-4.373 2.64-7.76 2.64h-4.64v10zm19.39-20.52h7.24v3.36c.773-1.227 1.72-2.16 2.84-2.8 1.12-.667 2.426-1 3.92-1h.6c.24 0 .506.027.8.08v6.92c-.96-.48-2-.72-3.12-.72-1.68 0-2.947.507-3.8 1.52-.828.987-1.24 2.44-1.24 4.36V33h-7.24V12.48zm26.428 10.16c0 .693.12 1.333.36 1.92.267.56.6 1.053 1 1.48.427.427.92.76 1.48 1 .587.24 1.2.36 1.84.36.64 0 1.24-.12 1.8-.36a4.15 4.15 0 001.48-1c.427-.427.76-.92 1-1.48a4.49 4.49 0 00.4-1.88c0-.64-.133-1.24-.4-1.8a4.57 4.57 0 00-1-1.52 4.15 4.15 0 00-1.48-1 4.52 4.52 0 00-1.8-.36c-.64 0-1.253.12-1.84.36a4.68 4.68 0 00-1.48 1c-.4.427-.733.92-1 1.48a4.52 4.52 0 00-.36 1.8zm-7.64-.08c0-1.52.307-2.933.92-4.24a10.194 10.194 0 012.56-3.44c1.094-.987 2.387-1.76 3.88-2.32 1.52-.56 3.174-.84 4.96-.84 1.76 0 3.387.28 4.88.84 1.52.533 2.827 1.293 3.92 2.28a9.87 9.87 0 012.6 3.48c.614 1.333.92 2.813.92 4.44 0 1.627-.32 3.12-.96 4.48a10.62 10.62 0 01-2.56 3.48c-1.093.96-2.413 1.707-3.96 2.24-1.52.533-3.173.8-4.96.8-1.76 0-3.386-.267-4.88-.8-1.493-.533-2.786-1.293-3.88-2.28a10.77 10.77 0 01-2.52-3.52c-.613-1.387-.92-2.92-.92-4.6zm37.805-4.04V33h-7.24V18.52h-2.4v-6.04h2.4V6.32h7.24v6.16h4.12v6.04h-4.12zm23.033 1.24c-.24-1.013-.734-1.827-1.48-2.44-.747-.613-1.654-.92-2.72-.92-1.12 0-2.04.293-2.76.88-.694.587-1.134 1.413-1.32 2.48h8.28zm-8.48 4.2c0 3.12 1.466 4.68 4.4 4.68 1.573 0 2.76-.64 3.56-1.92h7c-1.414 4.693-4.947 7.04-10.6 7.04-1.734 0-3.32-.253-4.76-.76-1.44-.533-2.68-1.28-3.72-2.24a10.024 10.024 0 01-2.36-3.44c-.56-1.333-.84-2.827-.84-4.48 0-1.707.266-3.24.8-4.6.533-1.387 1.293-2.56 2.28-3.52.986-.96 2.173-1.693 3.56-2.2 1.413-.533 3-.8 4.76-.8 1.733 0 3.293.267 4.68.8 1.386.507 2.56 1.253 3.52 2.24.96.987 1.693 2.2 2.2 3.64.506 1.413.76 3.013.76 4.8v.76h-15.24zm10.92-20.64l-6.96 6.16L99.251 7l5.72-7 4.6 3.32zm15.978 19.32c0 .667.12 1.293.36 1.88.24.56.56 1.053.96 1.48.427.427.92.76 1.48 1a4.92 4.92 0 001.88.36c.64 0 1.24-.12 1.8-.36a4.147 4.147 0 001.48-1c.427-.427.76-.92 1-1.48.267-.587.4-1.2.4-1.84a4.22 4.22 0 00-.4-1.84 4.675 4.675 0 00-1-1.48 4.559 4.559 0 00-1.52-1 4.42 4.42 0 00-1.76-.36c-.64 0-1.24.133-1.8.4-.56.24-1.053.573-1.48 1-.426.4-.773.88-1.04 1.44a4.52 4.52 0 00-.36 1.8zm16.24-10.16V31.6c0 1.147-.066 2.173-.2 3.08-.133.907-.32 1.707-.56 2.4-.32.88-.826 1.693-1.52 2.44a9.505 9.505 0 01-2.44 2c-.96.56-2.053 1-3.28 1.32-1.2.32-2.506.48-3.92.48-1.6 0-3.066-.2-4.4-.6-1.333-.4-2.506-.96-3.52-1.68a9.383 9.383 0 01-2.44-2.48 8.061 8.061 0 01-1.28-3.08h8.16c.507 1.36 1.654 2.04 3.44 2.04 1.52 0 2.68-.427 3.48-1.28.827-.853 1.24-2.04 1.24-3.56v-1.96c-.533.507-1.053.933-1.56 1.28a8.86 8.86 0 01-1.48.8c-.506.213-1.04.36-1.6.44-.56.107-1.173.16-1.84.16-1.466 0-2.813-.253-4.04-.76a9.732 9.732 0 01-3.2-2.12c-.88-.907-1.573-1.987-2.08-3.24-.48-1.28-.72-2.693-.72-4.24 0-1.573.267-3.027.8-4.36.534-1.36 1.254-2.533 2.16-3.52a9.924 9.924 0 013.28-2.36c1.28-.587 2.667-.88 4.16-.88 2.427 0 4.467.907 6.12 2.72v-2.16h7.24zm21.2 7.28c-.24-1.013-.734-1.827-1.48-2.44-.747-.613-1.654-.92-2.72-.92-1.12 0-2.04.293-2.76.88-.694.587-1.134 1.413-1.32 2.48h8.28zm-8.48 4.2c0 3.12 1.466 4.68 4.4 4.68 1.573 0 2.76-.64 3.56-1.92h7c-1.414 4.693-4.947 7.04-10.6 7.04-1.734 0-3.32-.253-4.76-.76-1.44-.533-2.68-1.28-3.72-2.24a10.016 10.016 0 01-2.36-3.44c-.56-1.333-.84-2.827-.84-4.48 0-1.707.266-3.24.8-4.6.533-1.387 1.293-2.56 2.28-3.52.986-.96 2.173-1.693 3.56-2.2 1.413-.533 3-.8 4.76-.8 1.733 0 3.293.267 4.68.8 1.386.507 2.56 1.253 3.52 2.24.96.987 1.693 2.2 2.2 3.64.506 1.413.76 3.013.76 4.8v.76h-15.24zm28.531-5.44V33h-7.24V18.52h-2.4v-6.04h2.4V6.32h7.24v6.16h4.12v6.04h-4.12zm23.033 1.24c-.24-1.013-.733-1.827-1.48-2.44s-1.653-.92-2.72-.92c-1.12 0-2.04.293-2.76.88-.693.587-1.133 1.413-1.32 2.48h8.28zm-8.48 4.2c0 3.12 1.467 4.68 4.4 4.68 1.573 0 2.76-.64 3.56-1.92h7c-1.413 4.693-4.947 7.04-10.6 7.04-1.733 0-3.32-.253-4.76-.76-1.44-.533-2.68-1.28-3.72-2.24a10.03 10.03 0 01-2.36-3.44c-.56-1.333-.84-2.827-.84-4.48 0-1.707.267-3.24.8-4.6.533-1.387 1.293-2.56 2.28-3.52.987-.96 2.173-1.693 3.56-2.2 1.413-.533 3-.8 4.76-.8 1.733 0 3.293.267 4.68.8 1.387.507 2.56 1.253 3.52 2.24.96.987 1.693 2.2 2.2 3.64.507 1.413.76 3.013.76 4.8v.76h-15.24zm19.818 5.2c0-.64.12-1.24.36-1.8a4.58 4.58 0 011-1.52c.427-.427.92-.76 1.48-1 .587-.24 1.2-.36 1.84-.36.64 0 1.24.12 1.8.36.587.24 1.094.573 1.52 1 .427.427.76.933 1 1.52.24.56.36 1.16.36 1.8 0 .64-.12 1.253-.36 1.84a4.675 4.675 0 01-1 1.48c-.426.427-.933.76-1.52 1-.56.24-1.16.36-1.8.36-.64 0-1.253-.12-1.84-.36a4.684 4.684 0 01-2.48-2.48c-.24-.587-.36-1.2-.36-1.84z" fill="#fff"/></svg>