<svg width="286" height="25" viewBox="0 0 286 25" fill="none" xmlns="http://www.w3.org/2000/svg"><path d="M14.393 13.648H3.329c.16.985.587 1.77 1.28 2.35.693.582 1.579.872 2.655.872 1.287 0 2.394-.455 3.32-1.362l2.9 1.375c-.722 1.037-1.589 1.802-2.598 2.3-1.01.497-2.208.745-3.594.745-2.154 0-3.906-.685-5.26-2.058C.678 16.498 0 14.78 0 12.715c0-2.065.676-3.872 2.025-5.27C3.374 6.048 5.067 5.35 7.104 5.35c2.16 0 3.918.7 5.272 2.095 1.353 1.398 2.032 3.243 2.032 5.538l-.013.662-.002.003zm-3.443-2.74a3.48 3.48 0 00-1.347-1.885c-.67-.485-1.445-.728-2.331-.728-.96 0-1.802.273-2.527.815-.456.34-.876.938-1.265 1.798h7.47zM25.13 7.645L23 9.798c-.866-.868-1.653-1.3-2.359-1.3-.386 0-.69.082-.908.247-.22.165-.327.373-.327.618 0 .187.07.36.208.515.139.158.48.373 1.027.643l1.262.637c1.33.662 2.243 1.337 2.738 2.025.495.687.745 1.495.745 2.42 0 1.232-.448 2.26-1.344 3.082-.896.825-2.096 1.235-3.601 1.235-2.003 0-3.599-.79-4.795-2.37l2.12-2.332c.403.475.875.86 1.417 1.152.542.293 1.025.44 1.446.44.455 0 .82-.11 1.096-.33.277-.22.416-.475.416-.765 0-.535-.5-1.057-1.5-1.567l-1.16-.585c-2.22-1.13-3.33-2.545-3.33-4.243 0-1.095.419-2.032 1.255-2.81.837-.777 1.909-1.165 3.21-1.165.892 0 1.73.198 2.518.593a5.592 5.592 0 012 1.7l-.003.007zM28.734 15.939c.547 0 1.015.192 1.4.58.387.388.58.855.58 1.408 0 .552-.193 1.024-.58 1.415a1.9 1.9 0 01-1.4.585 1.904 1.904 0 01-1.4-.585 1.938 1.938 0 01-.58-1.415c0-.553.193-1.023.58-1.408.385-.387.853-.58 1.4-.58zM36.26.83h3.44l4.305 13.075L48.346.83h3.44l3.117 18.745H51.49L49.5 7.738l-3.946 11.837h-3.116L38.532 7.738l-2.036 11.837h-3.448L36.26.83zM70.956 13.65H59.892c.158.988.587 1.77 1.28 2.353.693.58 1.579.872 2.658.872 1.287 0 2.393-.454 3.32-1.364l2.902 1.377c-.722 1.035-1.589 1.805-2.6 2.302-1.01.498-2.209.745-3.597.745-2.154 0-3.906-.684-5.262-2.057-1.354-1.372-2.032-3.09-2.032-5.152 0-2.063.673-3.873 2.024-5.268 1.352-1.395 3.045-2.095 5.08-2.095 2.16 0 3.917.7 5.271 2.095 1.354 1.4 2.032 3.242 2.032 5.535l-.012.662h-.005l.005-.005zm-3.446-2.74a3.492 3.492 0 00-1.346-1.884c-.67-.485-1.445-.728-2.331-.728-.96 0-1.802.273-2.53.815-.456.34-.879.94-1.265 1.798h7.472zM83.567.356h3.445v19.215h-3.445v-1.465c-.674.645-1.347 1.113-2.023 1.395a5.637 5.637 0 01-2.2.428c-1.772 0-3.304-.695-4.599-2.083-1.294-1.387-1.943-3.115-1.943-5.18 0-2.065.624-3.895 1.879-5.265 1.252-1.367 2.77-2.052 4.562-2.052.824 0 1.596.157 2.319.47.722.312 1.388.787 2.002 1.415V.356h.003zm-3.624 8.208c-1.064 0-1.95.377-2.653 1.14-.703.76-1.057 1.735-1.057 2.925 0 1.19.359 2.182 1.074 2.955.715.772 1.596 1.157 2.646 1.157 1.05 0 1.98-.377 2.69-1.14.713-.76 1.067-1.755 1.067-2.99 0-1.235-.356-2.182-1.067-2.932-.713-.745-1.611-1.12-2.703-1.12v.005h.003zM91.883 0a2.1 2.1 0 011.552.662c.43.443.648.978.648 1.606 0 .627-.215 1.15-.643 1.587-.429.435-.939.657-1.532.657a2.124 2.124 0 01-1.567-.67 2.257 2.257 0 01-.649-1.625c0-.637.213-1.135.639-1.567.428-.433.943-.65 1.547-.65h.005zM90.16 5.707h3.445V19.57H90.16V5.707zM110.068 8.515l-2.866 1.595c-.537-.57-1.072-.963-1.597-1.185-.527-.223-1.143-.333-1.851-.333-1.287 0-2.332.385-3.126 1.163-.795.775-1.193 1.77-1.193 2.982 0 1.213.381 2.14 1.151 2.89.765.745 1.772 1.12 3.019 1.12 1.54 0 2.74-.532 3.599-1.595l2.713 1.878c-1.473 1.935-3.549 2.902-6.235 2.902-2.416 0-4.304-.722-5.67-2.167-1.367-1.445-2.052-3.135-2.052-5.073 0-1.342.334-2.577.995-3.707.666-1.128 1.594-2.018 2.782-2.665 1.188-.645 2.522-.968 3.992-.968 1.364 0 2.587.275 3.671.823a6.95 6.95 0 012.66 2.34v.005l.008-.005zM122.037 5.707h3.445V19.57h-3.445v-1.465c-.673.645-1.346 1.112-2.022 1.395a5.636 5.636 0 01-2.201.427c-1.772 0-3.304-.695-4.598-2.082-1.295-1.388-1.943-3.115-1.943-5.18 0-2.065.624-3.895 1.878-5.265 1.253-1.368 2.77-2.053 4.562-2.053a5.78 5.78 0 012.319.47c.723.313 1.389.788 2.003 1.415v-1.53.005h.002zm-3.624 2.855c-1.064 0-1.95.378-2.653 1.14-.703.76-1.057 1.735-1.057 2.925 0 1.19.359 2.183 1.075 2.955.715.773 1.596 1.158 2.645 1.158 1.05 0 1.98-.378 2.691-1.14.713-.76 1.067-1.755 1.067-2.99 0-1.235-.357-2.183-1.067-2.933-.713-.745-1.611-1.12-2.703-1.12v.005h.002zM128.405 5.707h2.953v1.748c.316-.688.745-1.213 1.274-1.568a3.063 3.063 0 011.74-.535c.446 0 .914.118 1.401.355L134.701 8.7c-.405-.203-.735-.305-.995-.305-.529 0-.977.332-1.343.995-.367.662-.55 1.962-.55 3.9l.012.677v5.608h-3.418V5.707h-.005.003zM150.515 13.65h-11.063c.158.988.586 1.77 1.279 2.353.693.58 1.579.872 2.658.872 1.288 0 2.394-.454 3.32-1.364l2.903 1.377c-.723 1.035-1.589 1.805-2.601 2.302-1.01.498-2.208.745-3.597.745-2.153 0-3.905-.684-5.262-2.057-1.354-1.372-2.032-3.09-2.032-5.152 0-2.063.673-3.873 2.025-5.268 1.351-1.395 3.044-2.095 5.079-2.095 2.16 0 3.918.7 5.272 2.095 1.353 1.4 2.032 3.242 2.032 5.535l-.013.662h-.005l.005-.005zm-3.445-2.74a3.491 3.491 0 00-1.347-1.884c-.668-.483-1.445-.728-2.331-.728-.96 0-1.802.273-2.53.815-.455.34-.878.94-1.264 1.798h7.472zM154.064 15.942c.545 0 1.015.195 1.401.58.386.385.58.858.58 1.408 0 .55-.194 1.025-.58 1.415-.386.39-.856.585-1.401.585a1.903 1.903 0 01-1.4-.585c-.387-.39-.58-.86-.58-1.415s.193-1.02.58-1.408c.386-.385.856-.58 1.4-.58zM168.676 5.707h3.433v11.875c0 2.343-.466 4.068-1.401 5.173-1.253 1.495-3.141 2.245-5.666 2.245-1.346 0-2.475-.168-3.396-.508-.915-.34-1.693-.837-2.319-1.497-.631-.658-1.096-1.46-1.401-2.4h3.797c.337.39.767.685 1.3.887.529.2 1.158.298 1.881.298.923 0 1.668-.145 2.232-.433.565-.29.961-.662 1.193-1.12.23-.46.349-1.25.349-2.37-.606.613-1.242 1.053-1.903 1.32-.666.268-1.416.403-2.26.403-1.844 0-3.398-.67-4.668-2.015-1.267-1.343-1.903-3.04-1.903-5.098 0-2.197.673-3.967 2.017-5.302 1.218-1.205 2.675-1.808 4.364-1.808.792 0 1.537.145 2.239.44.703.295 1.409.775 2.112 1.445V5.707zm-3.569 2.895c-1.087 0-1.98.368-2.688 1.1-.708.735-1.06 1.66-1.06 2.773 0 1.112.364 2.102 1.087 2.84.723.737 1.631 1.107 2.725 1.107s1.95-.36 2.641-1.082c.693-.723 1.042-1.67 1.042-2.84s-.349-2.095-1.049-2.818c-.696-.722-1.597-1.082-2.698-1.082v.002zM181.823 5.353c1.295 0 2.512.33 3.653.982A7.042 7.042 0 01188.145 9a7.22 7.22 0 01.957 3.633c0 1.3-.321 2.53-.965 3.67a6.963 6.963 0 01-2.631 2.667c-1.109.643-2.336.963-3.67.963-1.968 0-3.649-.708-5.042-2.123-1.394-1.415-2.089-3.13-2.089-5.152 0-2.168.787-3.973 2.359-5.418 1.378-1.257 2.962-1.885 4.757-1.885l.005-.005-.003.003zm.057 3.277c-1.072 0-1.96.375-2.673 1.128-.713.752-1.067 1.712-1.067 2.887s.352 2.183 1.057 2.933c.703.75 1.594 1.12 2.673 1.12s1.975-.378 2.691-1.135c.715-.758 1.074-1.728 1.074-2.918 0-1.19-.352-2.157-1.057-2.897-.703-.743-1.601-1.118-2.698-1.118zM189.448 5.708h3.51l3.468 8.183 3.46-8.183h3.49l-5.842 13.863h-2.232l-5.856-13.863h.005-.003z" fill="#F3F0DA"/><path d="M203.926 22.93L212.304.177h2.478l-8.394 22.753h-2.462zM218.375.716h10.277v3.5h-6.75v3.422h4.386v3.448h-4.386v8.485h-3.527V.713v.003zM230.464 5.625h2.97V7.38c.321-.692.75-1.217 1.282-1.577a3.058 3.058 0 011.752-.538c.448 0 .918.12 1.408.36l-1.079 3.013c-.406-.205-.74-.308-1.002-.308-.532 0-.983.333-1.351 1-.369.668-.552 1.975-.552 3.923l.012.68v5.64h-3.438V5.625h-.002zM249.779 5.625h3.466v13.948h-3.466v-1.475c-.675.65-1.353 1.117-2.034 1.402a5.628 5.628 0 01-2.213.43c-1.782 0-3.326-.697-4.626-2.095-1.302-1.397-1.953-3.135-1.953-5.21s.629-3.917 1.889-5.295c1.26-1.375 2.789-2.065 4.589-2.065.829 0 1.606.158 2.331.475.728.318 1.399.79 2.015 1.423V5.625h.002zm-3.64 2.873c-1.072 0-1.961.382-2.669 1.147-.707.765-1.061 1.745-1.061 2.943 0 1.197.361 2.197 1.081 2.975.72.777 1.609 1.167 2.663 1.167 1.055 0 1.99-.382 2.708-1.147.718-.765 1.074-1.768 1.074-3.005 0-1.238-.359-2.195-1.074-2.948-.718-.752-1.623-1.127-2.72-1.127l-.002-.005zM256.734 5.624h3.503v6.717c0 1.308.089 2.215.267 2.725.178.508.465.905.859 1.185.393.28.878.423 1.457.423.58 0 1.067-.14 1.471-.418.403-.277.703-.685.896-1.225.143-.402.215-1.26.215-2.577V5.62h3.465v5.91c0 2.435-.19 4.103-.572 5-.465 1.095-1.151 1.933-2.056 2.52-.906.585-2.057.878-3.453.878-1.515 0-2.74-.343-3.673-1.025-.936-.683-1.592-1.638-1.973-2.858-.27-.845-.406-2.385-.406-4.615V5.624zM282.535.24H286v19.33h-3.465v-1.475c-.676.65-1.354 1.117-2.035 1.402-.68.288-1.418.43-2.212.43-1.783 0-3.327-.697-4.626-2.095-1.302-1.397-1.953-3.135-1.953-5.21s.628-3.917 1.888-5.295c1.26-1.375 2.79-2.065 4.589-2.065.829 0 1.606.158 2.332.475.727.318 1.398.79 2.014 1.423V.237l.003.003zm-3.641 8.255c-1.072 0-1.96.382-2.668 1.147-.708.765-1.062 1.745-1.062 2.943 0 1.197.361 2.197 1.082 2.975.72.777 1.608 1.167 2.663 1.167 1.054 0 1.99-.382 2.708-1.147.717-.765 1.074-1.768 1.074-3.005 0-1.238-.359-2.195-1.074-2.948-.718-.752-1.624-1.127-2.721-1.127l-.002-.005z" fill="#fff"/></svg>