<svg width="288" height="52" viewBox="0 0 288 52" fill="none" xmlns="http://www.w3.org/2000/svg"><rect x="1" y="1" width="286" height="50" rx="7" fill="#EFD63A" stroke="#EFE28E" stroke-width="2"/><path d="M49.897 29.223l-2.024-5.773-2.024 5.773h4.048zm1.196 3.427h-6.44l-1.035 3.013h-4.807l6.601-17.342h4.922l6.601 17.342h-4.807l-1.035-3.013zm12.782-6.371h1.496c1.656 0 2.484-.72 2.484-2.162s-.829-2.162-2.484-2.162h-1.495v4.324zm0 9.384h-4.508V18.32h7.176c1.948 0 3.435.506 4.462 1.518 1.043 1.012 1.565 2.438 1.565 4.278 0 1.84-.522 3.266-1.564 4.278-1.028 1.012-2.515 1.518-4.463 1.518h-2.668v5.75zm16.048-9.591h.851c.89 0 1.572-.184 2.047-.552.476-.368.713-.897.713-1.587s-.237-1.22-.713-1.587c-.475-.368-1.157-.552-2.047-.552h-.85v4.278zm9.913 9.59h-5.612l-4.3-6.67v6.67h-4.509V18.322h7.015c.966 0 1.81.145 2.53.437.721.276 1.311.66 1.771 1.15.476.49.828 1.058 1.058 1.702.246.644.368 1.334.368 2.07 0 1.319-.322 2.392-.966 3.22-.628.813-1.564 1.365-2.806 1.656l5.451 7.107zM102.05 22.14H96.69v2.898h5.06v3.818h-5.06v2.99h5.359v3.818h-9.867V18.32h9.867v3.818zm3.71 13.524V18.32h4.508l8.326 10.603V18.32h4.485v17.342h-4.485l-8.326-10.603v10.603h-4.508zm25.924-3.818h1.035c.782 0 1.48-.123 2.093-.368a4.343 4.343 0 001.541-1.012c.43-.43.752-.936.966-1.518.23-.598.345-1.25.345-1.955 0-.69-.115-1.334-.345-1.932a4.357 4.357 0 00-.989-1.541 4.346 4.346 0 00-1.541-1.012c-.613-.245-1.303-.368-2.07-.368h-1.035v9.706zm-4.508-13.524h6.67a7.79 7.79 0 013.312.713 8.762 8.762 0 012.714 1.909 8.525 8.525 0 011.84 2.76 8.292 8.292 0 01.667 3.289 8.402 8.402 0 01-.667 3.289 8.55 8.55 0 01-1.817 2.76 8.758 8.758 0 01-2.714 1.909 7.842 7.842 0 01-3.335.713h-6.67V18.32zm28.408 3.818h-5.359v2.898h5.06v3.818h-5.06v2.99h5.359v3.818h-9.867V18.32h9.867v3.818zm24.476 1.978c-1.043-1.273-2.331-1.91-3.864-1.91a4.81 4.81 0 00-1.886.369 4.51 4.51 0 00-1.472 1.012 4.62 4.62 0 00-.989 1.495 5.09 5.09 0 00-.345 1.886c0 .69.115 1.326.345 1.909.245.582.575 1.088.989 1.518.429.43.928.767 1.495 1.012a4.584 4.584 0 001.84.368c1.441 0 2.737-.613 3.887-1.84v5.336l-.46.16c-.69.246-1.334.422-1.932.53a8.792 8.792 0 01-1.771.184 9.15 9.15 0 01-3.45-.667 9.419 9.419 0 01-2.898-1.91 9.79 9.79 0 01-2.001-2.92c-.506-1.135-.759-2.37-.759-3.703 0-1.334.245-2.553.736-3.657a9.207 9.207 0 012.001-2.875 9.026 9.026 0 012.921-1.886 8.942 8.942 0 013.473-.69c.69 0 1.365.076 2.024.23.675.138 1.38.36 2.116.667v5.382zm7.492 2.875c0 .69.13 1.326.391 1.909A4.81 4.81 0 00189 30.419c.444.43.958.767 1.541 1.012.598.23 1.226.345 1.886.345a5.03 5.03 0 001.863-.345 4.91 4.91 0 001.564-1.012c.46-.43.82-.936 1.081-1.518.26-.583.391-1.22.391-1.91s-.131-1.325-.391-1.908a4.66 4.66 0 00-1.081-1.518 4.608 4.608 0 00-1.564-.99 4.754 4.754 0 00-1.863-.367 4.92 4.92 0 00-1.886.368c-.583.23-1.097.56-1.541.989-.445.43-.798.935-1.058 1.518a4.616 4.616 0 00-.391 1.909zm-4.715 0c0-1.288.237-2.484.713-3.588a8.935 8.935 0 011.978-2.921 8.91 8.91 0 013.013-1.932c1.18-.475 2.476-.713 3.887-.713 1.395 0 2.683.238 3.864.713 1.18.46 2.192 1.104 3.036 1.932a8.8 8.8 0 012.001 2.92c.475 1.105.713 2.3.713 3.589a9.147 9.147 0 01-.713 3.61 8.863 8.863 0 01-2.001 2.899c-.844.828-1.856 1.48-3.036 1.955-1.181.46-2.469.69-3.864.69-1.411 0-2.707-.23-3.887-.69a9.202 9.202 0 01-3.013-1.955 9 9 0 01-1.978-2.898c-.476-1.12-.713-2.323-.713-3.611zm13.731-13.087l-4.416 3.036-1.748-1.633 3.749-3.588 2.415 2.185zm7.999 21.758l2.944-17.342h4.462l3.473 9.246 3.45-9.246h4.462l2.944 17.342h-4.485l-1.495-9.982-4.094 9.982h-1.794l-3.887-9.982-1.495 9.982h-4.485zm28.984-8.671c0 .69.13 1.326.391 1.909a4.826 4.826 0 001.058 1.518c.445.43.958.767 1.541 1.012a5.21 5.21 0 001.886.345 5.03 5.03 0 001.863-.345 4.91 4.91 0 001.564-1.012 4.616 4.616 0 001.472-3.427 4.616 4.616 0 00-1.472-3.427 4.608 4.608 0 00-1.564-.99 4.754 4.754 0 00-1.863-.367c-.659 0-1.288.123-1.886.368-.583.23-1.096.56-1.541.989-.445.43-.797.935-1.058 1.518a4.616 4.616 0 00-.391 1.909zm-4.715 0c0-1.288.238-2.484.713-3.588a8.95 8.95 0 011.978-2.921 8.919 8.919 0 013.013-1.932c1.181-.475 2.476-.713 3.887-.713 1.395 0 2.683.238 3.864.713 1.181.46 2.193 1.104 3.036 1.932a8.77 8.77 0 012.001 2.92c.475 1.105.713 2.3.713 3.589a9.147 9.147 0 01-.713 3.61 8.832 8.832 0 01-2.001 2.899c-.843.828-1.855 1.48-3.036 1.955-1.181.46-2.469.69-3.864.69-1.411 0-2.706-.23-3.887-.69-1.165-.476-2.17-1.127-3.013-1.955a9.016 9.016 0 01-1.978-2.898 9.147 9.147 0 01-.713-3.611z" fill="#66124B"/></svg>