<svg width="144" height="90" viewBox="0 0 144 90" fill="none" xmlns="http://www.w3.org/2000/svg"><path fill-rule="evenodd" clip-rule="evenodd" d="M84.641-8.491c-11.74 0-23.216 3.387-32.978 9.732-9.761 6.345-17.37 15.364-21.862 25.915a56.289 56.289 0 00-3.378 33.364c2.29 11.202 7.944 21.49 16.245 29.567 8.302 8.076 18.878 13.575 30.393 15.803a60.89 60.89 0 0034.296-3.286c10.846-4.37 20.117-11.772 26.639-21.268C140.519 71.84 144 60.676 144 49.254c0-15.315-6.254-30.002-17.386-40.832C115.482-2.408 100.384-8.49 84.641-8.49z" fill="#495E89" opacity=".54"/><path fill-rule="evenodd" clip-rule="evenodd" d="M6.779 64.582c-1.341 0-2.652.387-3.766 1.111a6.637 6.637 0 00-2.497 2.96 6.428 6.428 0 00-.386 3.81 6.541 6.541 0 001.855 3.376 6.84 6.84 0 003.471 1.805 6.954 6.954 0 003.917-.375 6.743 6.743 0 003.042-2.429 6.468 6.468 0 001.142-3.664 6.505 6.505 0 00-1.985-4.663 6.876 6.876 0 00-4.793-1.931zM136.214-7.422c-.998 0-1.973.288-2.802.827a4.941 4.941 0 00-1.857 2.202 4.784 4.784 0 00-.286 2.834A4.863 4.863 0 00132.65.952a5.085 5.085 0 002.582 1.342 5.175 5.175 0 002.914-.28 5.018 5.018 0 002.262-1.809 4.82 4.82 0 00.848-2.726 4.84 4.84 0 00-1.478-3.466 5.117 5.117 0 00-3.564-1.435z" fill="#7588AF"/><path fill-rule="evenodd" clip-rule="evenodd" d="M44.622-15c-8.61 0-17.025 2.482-24.183 7.135C13.28-3.213 7.7 3.4 4.405 11.138a41.276 41.276 0 00-2.478 24.465c1.68 8.214 5.825 15.76 11.912 21.681 6.088 5.922 13.844 9.955 22.287 11.589a44.657 44.657 0 0025.15-2.41c7.953-3.206 14.75-8.633 19.533-15.597 4.783-6.964 7.335-15.151 7.334-23.526 0-11.23-4.585-21.999-12.747-29.939C67.235-10.539 56.165-15 44.622-15z" fill="#1A2B4F" opacity=".51"/></svg>