<svg width="238" height="48" viewBox="0 0 238 48" fill="none" xmlns="http://www.w3.org/2000/svg"><path d="M.666 47.072l.78-21.164h7.592l.728 21.164h-9.1zM5.19 23.048c-2.964 0-5.148-2.236-5.148-5.096s2.184-5.096 5.148-5.096c3.016 0 5.252 2.236 5.252 5.096s-2.236 5.096-5.252 5.096zm28.637 17.576c-10.712 0-17.836-7.748-17.836-17.472 0-9.62 7.123-17.368 17.836-17.368 5.148 0 9.776 1.82 12.843 4.888l-6.5 6.708c-2.392-2.444-4.316-2.652-5.928-2.652-4.367 0-7.955 3.536-7.955 8.424 0 4.992 3.328 8.528 7.956 8.528 2.755 0 5.303-1.248 7.176-3.744l6.292 6.916c-3.38 3.744-8.112 5.772-13.884 5.772zm27.102-.104c-8.008 0-9.672-4.992-9.672-11.752v-15.34h9.464v14.144c0 2.808.936 4.108 3.432 4.108 2.86 0 3.9-2.444 3.9-5.72V13.428h9.464V40h-8.944v-2.912c-1.456 1.872-4.888 3.432-7.644 3.432zM82.721 40V13.428h9.464V40h-9.464zm4.68-28.6c-2.912 0-5.356-2.444-5.356-5.356 0-2.964 2.444-5.408 5.356-5.408 3.016 0 5.46 2.444 5.46 5.408 0 2.912-2.444 5.356-5.46 5.356zm20.838 29.12c-7.384 0-11.388-6.136-11.388-13.78 0-7.696 4.264-13.832 11.7-13.832 2.132 0 4.784.728 6.396 2.756v-9.88h9.464V40h-8.944v-2.964c-1.404 2.704-5.096 3.484-7.228 3.484zm2.496-8.32c2.496 0 4.264-2.236 4.264-5.46 0-3.172-1.768-5.512-4.264-5.512-2.496 0-4.264 2.34-4.264 5.512 0 3.224 1.768 5.46 4.264 5.46zm29.723 8.32c-7.384 0-11.388-6.136-11.388-13.78 0-7.696 4.004-13.832 11.388-13.832 2.132 0 5.668.728 7.228 3.484v-2.964h8.944V40h-8.944v-2.964c-1.456 2.704-5.096 3.484-7.228 3.484zm2.496-8.32c2.496 0 4.264-2.236 4.264-5.46 0-3.172-1.768-5.512-4.264-5.512-2.496 0-4.264 2.34-4.264 5.512 0 3.224 1.768 5.46 4.264 5.46zm29.724 8.32c-7.384 0-11.388-6.136-11.388-13.78 0-7.696 4.264-13.832 11.7-13.832 2.132 0 4.784.728 6.396 2.756v-9.88h9.464V40h-8.944v-2.964c-1.404 2.704-5.096 3.484-7.228 3.484zm2.496-8.32c2.496 0 4.264-2.236 4.264-5.46 0-3.172-1.768-5.512-4.264-5.512-2.496 0-4.264 2.34-4.264 5.512 0 3.224 1.768 5.46 4.264 5.46zm32.688 8.32c-8.164 0-14.352-6.136-14.352-13.78 0-7.696 6.188-13.832 14.352-13.832 8.164 0 14.352 6.136 14.352 13.832 0 7.644-6.188 13.78-14.352 13.78zm0-8.32c2.808 0 4.784-2.236 4.784-5.46 0-3.172-1.976-5.512-4.784-5.512s-4.784 2.34-4.784 5.512c0 3.224 1.976 5.46 4.784 5.46zm21.075-4.732l-.78-21.164h9.1l-.728 21.164h-7.592zm3.744 2.86c3.016 0 5.252 2.236 5.252 5.096s-2.236 5.096-5.252 5.096c-2.964 0-5.148-2.236-5.148-5.096s2.184-5.096 5.148-5.096z" fill="#fff"/></svg>