<svg width="383" height="44" viewBox="0 0 383 44" fill="none" xmlns="http://www.w3.org/2000/svg"><path d="M.214 35V12.005h7.74v2.52c1.71-1.935 4.365-2.97 6.93-2.97 3.69 0 5.67 1.485 6.75 3.555 1.98-2.88 5.04-3.555 7.335-3.555 7.425 0 8.055 5.985 8.055 10.62V35h-8.19V23.12c0-2.745-.765-4.005-2.565-4.005-2.43 0-3.555 2.205-3.555 5.04V35h-8.19V23.12c0-2.745-.765-4.005-2.565-4.005-2.43 0-3.555 2.205-3.555 5.04V35H.214zm53.981.45c-6.975 0-12.915-4.365-12.915-11.925 0-6.66 5.175-11.97 11.97-11.97 6.525 0 11.52 5.31 11.52 11.97 0 1.395-.18 2.655-.18 2.655H49.335c.675 2.16 2.7 2.97 4.905 2.97 1.935 0 4.005-.585 5.445-1.395l2.745 5.535c-2.565 1.575-5.4 2.16-8.235 2.16zM49.11 21.545h8.19c-.27-2.115-1.935-3.555-4.05-3.555-2.025 0-3.645 1.44-4.14 3.555zM69.272 35V12.005h7.74v2.655c2.114-2.475 4.635-3.105 6.93-3.105 5.805 0 8.055 3.42 8.055 10.17V35h-8.19V22.76c0-2.61-.99-3.555-2.566-3.555-2.52 0-3.78 2.115-3.78 4.95V35h-8.19zm35.913.45c-5.265 0-8.19-1.575-9.54-2.745l2.61-5.76c1.8 1.215 3.465 1.935 6.975 1.935.09 0 2.25-.135 2.25-1.035 0-.72-1.35-.855-2.7-1.17-4.995-1.215-8.685-3.24-8.685-7.47 0-5.04 4.59-7.65 9.45-7.65 4.455 0 7.11.99 9.315 2.16l-2.43 5.49c-2.655-1.035-5.085-1.35-6.615-1.35-.81 0-1.44.27-1.44.72 0 .855 1.935 1.17 4.23 1.8 3.24.945 7.155 2.52 7.155 7.155 0 6.165-6.255 7.92-10.575 7.92zm24.004 0c-6.39 0-9.855-5.31-9.855-11.925 0-6.66 3.465-11.97 9.855-11.97 1.845 0 4.905.63 6.255 3.015v-2.565h7.74V35h-7.74v-2.565c-1.26 2.34-4.41 3.015-6.255 3.015zm2.16-7.2c2.16 0 3.69-1.935 3.69-4.725 0-2.745-1.53-4.77-3.69-4.77s-3.69 2.025-3.69 4.77c0 2.79 1.53 4.725 3.69 4.725zm15.912 15.48l-2.97-5.535c2.88-1.44 3.825-4.005 3.825-6.705V12.005h8.19v18.18c0 7.155-3.15 10.935-9.045 13.545zm4.905-33.48c-2.52 0-4.635-2.115-4.635-4.635 0-2.565 2.115-4.68 4.635-4.68 2.61 0 4.725 2.115 4.725 4.68 0 2.52-2.115 4.635-4.725 4.635zm21.543 25.2c-6.975 0-12.915-4.365-12.915-11.925 0-6.66 5.175-11.97 11.97-11.97 6.525 0 11.52 5.31 11.52 11.97 0 1.395-.18 2.655-.18 2.655h-15.255c.675 2.16 2.7 2.97 4.905 2.97 1.935 0 4.005-.585 5.445-1.395l2.745 5.535c-2.565 1.575-5.4 2.16-8.235 2.16zm-5.085-13.905h8.19c-.27-2.115-1.935-3.555-4.05-3.555-2.025 0-3.645 1.44-4.14 3.555zm40.892 13.905c-6.39 0-9.855-5.31-9.855-11.925 0-6.66 3.69-11.97 10.125-11.97 1.845 0 4.14.63 5.535 2.385V5.39h8.19V35h-7.74v-2.565c-1.215 2.34-4.41 3.015-6.255 3.015zm2.16-7.2c2.16 0 3.69-1.935 3.69-4.725 0-2.745-1.53-4.77-3.69-4.77s-3.69 2.025-3.69 4.77c0 2.79 1.53 4.725 3.69 4.725zm29.232 7.2c-6.975 0-12.915-4.365-12.915-11.925 0-6.66 5.175-11.97 11.97-11.97 6.525 0 11.52 5.31 11.52 11.97 0 1.395-.18 2.655-.18 2.655h-15.255c.675 2.16 2.7 2.97 4.905 2.97 1.935 0 4.005-.585 5.445-1.395l2.745 5.535c-2.565 1.575-5.4 2.16-8.235 2.16zm-5.085-13.905h8.19c-.27-2.115-1.935-3.555-4.05-3.555-2.025 0-3.645 1.44-4.14 3.555zM276.49 35.45c-4.41 0-7.29-2.835-7.29-7.875v-9.09h-3.375v-6.48h3.375v-4.14l8.19-2.025v6.165h5.085v6.48h-5.085v8.46c0 1.08.54 1.44 1.26 1.44.675 0 1.485-.315 2.07-.72l2.205 5.985c-1.98 1.395-4.41 1.8-6.435 1.8zm22.389 0c-6.975 0-12.915-4.365-12.915-11.925 0-6.66 5.175-11.97 11.97-11.97 6.525 0 11.52 5.31 11.52 11.97 0 1.395-.18 2.655-.18 2.655h-15.255c.675 2.16 2.7 2.97 4.905 2.97 1.935 0 4.005-.585 5.445-1.395l2.745 5.535c-2.565 1.575-5.4 2.16-8.235 2.16zm-5.085-13.905h8.19c-.27-2.115-1.935-3.555-4.05-3.555-2.025 0-3.645 1.44-4.14 3.555zM311.113 35l6.795-11.79-6.795-11.205h8.82l.945 1.98c.9 1.89 2.205 4.995 2.205 4.995s1.305-3.105 2.205-4.995l.945-1.98h8.82l-6.795 11.205L335.053 35h-8.91l-1.125-2.52c-.81-1.845-1.935-4.905-1.935-4.905s-1.17 3.015-1.98 4.905l-1.08 2.52h-8.91zm36.795.45c-4.41 0-7.29-2.835-7.29-7.875v-9.09h-3.375v-6.48h3.375v-4.14l8.19-2.025v6.165h5.085v6.48h-5.085v8.46c0 1.08.54 1.44 1.26 1.44.675 0 1.485-.315 2.07-.72l2.205 5.985c-1.98 1.395-4.41 1.8-6.435 1.8zm21.894 0c-7.065 0-12.42-5.31-12.42-11.925 0-6.66 5.355-11.97 12.42-11.97 7.065 0 12.42 5.31 12.42 11.97 0 6.615-5.355 11.925-12.42 11.925zm0-7.2c2.43 0 4.14-1.935 4.14-4.725 0-2.745-1.71-4.77-4.14-4.77-2.43 0-4.14 2.025-4.14 4.77 0 2.79 1.71 4.725 4.14 4.725z" fill="#fff"/></svg>