<svg width="204" height="41" viewBox="0 0 204 41" fill="none" xmlns="http://www.w3.org/2000/svg"><rect x="1" y="1" width="202" height="39" rx="3" fill="#FF9759" stroke="#F2B795" stroke-width="2"/><path d="M25.273 26.997l4.978-12.312h3.724l4.978 12.312h-3.686l-.57-1.596h-5.168l-.57 1.596h-3.686zm5.225-4.37h3.23l-1.463-4.161c-.114-.304-.133-.418-.152-.494 0 0-.038.17-.152.494l-1.463 4.16zm10.038 4.37V14.685h5.434c3.78 0 5.719 2.185 5.719 4.864s-1.938 4.864-5.738 4.864h-1.805v2.584h-3.61zm3.61-5.643h1.9c1.064 0 1.824-.798 1.824-1.805s-.76-1.805-1.805-1.805h-1.92v3.61zm9.61 5.643V14.685h5.434c3.78 0 5.719 2.185 5.719 4.864 0 1.425-.646 2.888-1.938 3.78l2.299 3.668h-4.123l-1.406-2.641a8.04 8.04 0 01-.893.057h-1.482v2.584h-3.61zm3.61-5.643h1.862c1.12 0 1.862-.817 1.862-1.805 0-1.007-.76-1.805-1.843-1.805h-1.881v3.61zm9.628 5.643V14.685h9.785v3.059h-6.175v1.5h5.928v3.022h-5.928v1.672h6.403v3.059H66.994zm11.828 0V14.685h3.135l3.914 5.453c.285.38.551.93.551.93v-6.383h3.61v12.312h-3.135l-3.914-5.358c-.285-.38-.55-.931-.55-.931v6.289h-3.61zm13.684 0V14.685h5.13c4.123 0 6.707 2.793 6.707 6.156 0 3.363-2.584 6.156-6.707 6.156h-5.13zm3.61-3.06h1.387c1.843 0 3.021-1.31 3.021-3.096 0-1.767-1.178-3.097-3.021-3.097h-1.387v6.194zm10.315 3.06V14.685h9.785v3.059h-6.175v1.5h5.928v3.022h-5.928v1.672h6.403v3.059h-10.013zm22.557.228c-3.914 0-6.517-2.831-6.517-6.384 0-3.515 2.603-6.346 6.517-6.346 1.881 0 3.572.665 4.693 1.786l-2.375 2.45c-.874-.892-1.577-.968-2.166-.968-1.596 0-2.907 1.292-2.907 3.078 0 1.824 1.216 3.116 2.907 3.116 1.007 0 1.938-.456 2.622-1.368l2.299 2.527c-1.235 1.368-2.964 2.109-5.073 2.109zm12.591 0c-3.952 0-6.593-2.831-6.593-6.384 0-3.515 2.641-6.346 6.593-6.346s6.612 2.83 6.612 6.346c0 3.553-2.66 6.384-6.612 6.384zm0-3.268c1.672 0 2.85-1.292 2.85-3.116 0-1.786-1.178-3.078-2.85-3.078-1.558 0-2.831 1.292-2.831 3.078 0 1.824 1.178 3.116 2.831 3.116zm-1.615-9.88l1.995-3.401h3.325l-2.755 3.4h-2.565zm10.31 12.92V14.685h3.078l2.413 3.458c.399.589 1.045 1.596 1.045 1.596s.646-1.007 1.045-1.596l2.413-3.458h3.078v12.312h-3.61v-6.232s-.627 1.007-.969 1.482l-1.957 2.736-1.976-2.736c-.342-.475-.95-1.444-.95-1.444v6.194h-3.61zm21.752.228c-3.952 0-6.593-2.831-6.593-6.384 0-3.515 2.641-6.346 6.593-6.346s6.612 2.83 6.612 6.346c0 3.553-2.66 6.384-6.612 6.384zm0-3.268c1.672 0 2.85-1.292 2.85-3.116 0-1.786-1.178-3.078-2.85-3.078-1.558 0-2.831 1.292-2.831 3.078 0 1.824 1.178 3.116 2.831 3.116z" fill="#101B31"/></svg>