<svg width="372" height="37" viewBox="0 0 372 37" fill="none" xmlns="http://www.w3.org/2000/svg"><path d="M-.002 36V5.544h12.69c10.199 0 16.59 6.909 16.59 15.228 0 8.319-6.391 15.228-16.59 15.228H-.002zm8.93-7.567h3.43c4.56 0 7.474-3.243 7.474-7.661 0-4.371-2.914-7.661-7.473-7.661H8.928v15.322zm38.3 8.037c-7.285 0-13.49-4.559-13.49-12.455 0-6.956 5.406-12.502 12.503-12.502 6.815 0 12.032 5.546 12.032 12.502 0 1.457-.188 2.773-.188 2.773H42.152c.705 2.256 2.82 3.102 5.123 3.102 2.02 0 4.183-.611 5.687-1.457l2.867 5.781c-2.68 1.645-5.64 2.256-8.601 2.256zm-5.311-14.523h8.554c-.282-2.209-2.021-3.713-4.23-3.713-2.115 0-3.807 1.504-4.324 3.713zM72.562 36.47c-4.606 0-7.614-2.961-7.614-8.225v-9.494h-3.525v-6.768h3.525V7.659l8.554-2.115v6.439h5.311v6.768h-5.31v8.836c0 1.128.563 1.504 1.315 1.504.705 0 1.551-.329 2.162-.752l2.303 6.251c-2.068 1.457-4.606 1.88-6.72 1.88zM91.293 9.21L96.228.797h8.225L97.638 9.21h-6.345zm4.653 27.26c-7.285 0-13.489-4.559-13.489-12.455 0-6.956 5.405-12.502 12.502-12.502 6.815 0 12.032 5.546 12.032 12.502 0 1.457-.188 2.773-.188 2.773H90.87c.705 2.256 2.82 3.102 5.123 3.102 2.021 0 4.183-.611 5.687-1.457l2.867 5.781c-2.679 1.645-5.64 2.256-8.6 2.256zm-5.31-14.523h8.553c-.282-2.209-2.02-3.713-4.23-3.713-2.115 0-3.807 1.504-4.324 3.713zM111.692 36V11.983h8.084v2.773c2.209-2.585 4.841-3.243 7.238-3.243 6.063 0 8.413 3.572 8.413 10.622V36h-8.554V23.216c0-2.726-1.034-3.713-2.679-3.713-2.632 0-3.948 2.209-3.948 5.17V36h-8.554zm53.521.47c-7.285 0-13.489-4.559-13.489-12.455 0-6.956 5.405-12.502 12.502-12.502 6.815 0 12.032 5.546 12.032 12.502 0 1.457-.188 2.773-.188 2.773h-15.933c.705 2.256 2.82 3.102 5.123 3.102 2.021 0 4.183-.611 5.687-1.457l2.867 5.781c-2.679 1.645-5.64 2.256-8.601 2.256zm-5.311-14.523h8.554c-.282-2.209-2.021-3.713-4.23-3.713-2.115 0-3.807 1.504-4.324 3.713zM180.961 36V5.074h8.554V36h-8.554zm26.949 0V18.939h-3.619v-6.768h3.619v-1.504c0-5.264 3.008-8.225 7.614-8.225 2.115 0 4.653.329 6.721 1.363l-2.303 6.251c-.611-.235-1.269-.376-1.88-.376-.893 0-1.598.47-1.598 1.974v.517h4.7v6.768h-4.7V36h-8.554zm16.616 0V11.983h8.319v4.277c.141-1.034 2.209-4.747 7.849-4.747v9.306c-6.204 0-7.614 2.585-7.614 7.097V36h-8.554zm30.235.47c-6.674 0-10.293-5.546-10.293-12.455 0-6.956 3.619-12.502 10.293-12.502 1.927 0 5.123.658 6.533 3.149v-2.679h8.084V36h-8.084v-2.679c-1.316 2.444-4.606 3.149-6.533 3.149zm2.256-7.52c2.256 0 3.854-2.021 3.854-4.935 0-2.867-1.598-4.982-3.854-4.982-2.256 0-3.854 2.115-3.854 4.982 0 2.914 1.598 4.935 3.854 4.935zm26.019 7.52c-7.238 0-8.742-4.512-8.742-10.622V11.983h8.554v12.784c0 2.538.846 3.713 3.102 3.713 2.585 0 3.525-2.209 3.525-5.17V11.983h8.554V36h-8.084v-2.632c-1.316 1.692-4.418 3.102-6.909 3.102zm29.99 0c-6.674 0-10.293-5.546-10.293-12.455 0-6.956 3.854-12.502 10.575-12.502 1.927 0 4.324.658 5.781 2.491v-8.93h8.554V36h-8.084v-2.679c-1.269 2.444-4.606 3.149-6.533 3.149zm2.256-7.52c2.256 0 3.854-2.021 3.854-4.935 0-2.867-1.598-4.982-3.854-4.982-2.256 0-3.854 2.115-3.854 4.982 0 2.914 1.598 4.935 3.854 4.935zm30.531 7.52c-7.285 0-13.489-4.559-13.489-12.455 0-6.956 5.405-12.502 12.502-12.502 6.815 0 12.032 5.546 12.032 12.502 0 1.457-.188 2.773-.188 2.773h-15.933c.705 2.256 2.82 3.102 5.123 3.102 2.021 0 4.183-.611 5.687-1.457l2.867 5.781c-2.679 1.645-5.64 2.256-8.601 2.256zm-5.311-14.523h8.554c-.282-2.209-2.021-3.713-4.23-3.713-2.115 0-3.807 1.504-4.324 3.713zm26.087 14.523c-2.679 0-4.653-2.021-4.653-4.606s1.974-4.606 4.653-4.606c2.726 0 4.747 2.021 4.747 4.606s-2.021 4.606-4.747 4.606z" fill="#fff"/></svg>