<svg width="100" height="87" viewBox="0 0 100 87" fill="none" xmlns="http://www.w3.org/2000/svg"><path d="M60 3.25H13.333c-5.523 0-10 4.365-10 9.75v78c0 5.385 4.477 9.75 10 9.75H60c5.523 0 10-4.365 10-9.75V13c0-5.385-4.477-9.75-10-9.75z" fill="#F2F2F2"/><path d="M70 13a9.628 9.628 0 00-2.929-6.894A10.131 10.131 0 0060 3.25H13.333a10.131 10.131 0 00-7.07 2.856A9.628 9.628 0 003.332 13v13H70V13zM3.333 91a9.628 9.628 0 002.93 6.894 10.131 10.131 0 007.07 2.856H60c2.652 0 5.196-1.027 7.071-2.856A9.628 9.628 0 0070 91V78H3.333v13z" fill="#C1C5C8"/><path d="M60 104H13.333c-3.536 0-6.927-1.37-9.428-3.808C1.405 97.754 0 94.448 0 91V13c0-3.448 1.405-6.754 3.905-9.192C6.405 1.37 9.797 0 13.333 0H60c3.536 0 6.928 1.37 9.428 3.808 2.5 2.438 3.905 5.744 3.905 9.192v78c0 3.448-1.404 6.754-3.905 9.192C66.928 102.63 63.536 104 60 104zM13.333 6.5A6.754 6.754 0 008.62 8.404 6.419 6.419 0 006.667 13v78c0 1.724.702 3.377 1.952 4.596a6.754 6.754 0 004.714 1.904H60a6.754 6.754 0 004.714-1.904A6.419 6.419 0 0066.667 91V13a6.419 6.419 0 00-1.953-4.596A6.754 6.754 0 0060 6.5H13.333z" fill="#101B31"/><path d="M36.667 19.5H23.333a3.377 3.377 0 01-2.357-.952A3.21 3.21 0 0120 16.25c0-.862.351-1.689.976-2.298A3.377 3.377 0 0123.333 13h13.334c.884 0 1.732.342 2.357.952A3.21 3.21 0 0140 16.25a3.21 3.21 0 01-.976 2.298 3.377 3.377 0 01-2.357.952zM83.333 68.25a3.377 3.377 0 01-2.357-.952A3.21 3.21 0 0180 65V39c0-.862.351-1.689.976-2.298a3.377 3.377 0 012.357-.952c.884 0 1.732.342 2.357.952A3.21 3.21 0 0186.667 39v26a3.21 3.21 0 01-.977 2.298 3.377 3.377 0 01-2.357.952zM96.667 58.5a3.377 3.377 0 01-2.357-.952 3.21 3.21 0 01-.977-2.298V45.5c0-.862.352-1.688.977-2.298a3.378 3.378 0 012.357-.952c.884 0 1.732.343 2.357.952A3.21 3.21 0 01100 45.5v9.75a3.21 3.21 0 01-.976 2.298 3.377 3.377 0 01-2.357.952zM50 19.5c1.84 0 3.333-1.455 3.333-3.25S51.841 13 50 13c-1.841 0-3.333 1.455-3.333 3.25S48.159 19.5 50 19.5zM36.667 91.819c1.84 0 3.333-1.455 3.333-3.25s-1.492-3.25-3.333-3.25c-1.841 0-3.334 1.455-3.334 3.25s1.493 3.25 3.334 3.25z" fill="#101B31"/><path d="M36.467 68.575c9.48 0 17.166-7.494 17.166-16.737 0-9.244-7.685-16.738-17.166-16.738-9.481 0-17.167 7.494-17.167 16.738 0 9.243 7.686 16.737 17.167 16.737z" fill="#C80000"/><path d="M36.467 54.698a3 3 0 001.122-.218c.356-.143.68-.354.952-.62.272-.265.488-.58.636-.928.147-.347.223-.718.223-1.094V43.29a2.793 2.793 0 00-.126-1.184 2.844 2.844 0 00-.609-1.032 2.931 2.931 0 00-.987-.7 2.997 2.997 0 00-2.39 0 2.932 2.932 0 00-.986.7c-.276.299-.483.65-.61 1.032-.126.382-.17.785-.125 1.184V52a2.83 2.83 0 00.903 1.907c.539.501 1.252.784 1.997.79zM36.467 63.245c1.62 0 2.933-1.28 2.933-2.86 0-1.58-1.313-2.86-2.933-2.86-1.62 0-2.934 1.28-2.934 2.86 0 1.58 1.314 2.86 2.934 2.86z" fill="#fff"/></svg>