<svg width="88" height="84" viewBox="0 0 88 84" fill="none" xmlns="http://www.w3.org/2000/svg"><path d="M61.113 3.526H14.267c-5.544 0-10.039 4.254-10.039 9.501v76.015c0 5.247 4.495 9.501 10.039 9.501h46.846c5.544 0 10.038-4.254 10.038-9.501V13.027c0-5.247-4.494-9.501-10.038-9.501z" fill="#F2F2F2"/><path d="M71.151 13.027c0-2.52-1.057-4.936-2.94-6.718-1.882-1.782-4.436-2.783-7.098-2.783H14.267c-2.662 0-5.216 1-7.098 2.783-1.883 1.782-2.94 4.198-2.94 6.718v12.67H71.15v-12.67zM4.255 90.12c0 2.234 1.052 4.377 2.926 5.956 1.874 1.58 4.415 2.467 7.065 2.467H60.87c2.65 0 5.19-.887 7.064-2.467 1.874-1.58 2.927-3.722 2.927-5.955V78.89H4.255v11.23zM83.399 33.588L57.767 52.276 32.135 33.588a3.404 3.404 0 012.209-.812H81.19c.814 0 1.599.29 2.209.812z" fill="#C1C5C8"/><path d="M84.536 36.026v32.5c0 .862-.352 1.688-.98 2.298a3.397 3.397 0 01-2.366.952H34.344a3.397 3.397 0 01-2.366-.952 3.203 3.203 0 01-.98-2.298v-32.5c0-.462.102-.918.298-1.338.196-.42.482-.795.84-1.1l25.63 18.688L83.4 33.588c.356.305.642.68.839 1.1.196.42.297.876.298 1.338z" fill="#F2F2F2"/><path d="M41.036 16.526c0-.862-.352-1.689-.98-2.299a3.397 3.397 0 00-2.366-.951H24.305c-.887 0-1.738.342-2.366.951a3.204 3.204 0 00-.98 2.299c0 .862.353 1.688.98 2.298.628.61 1.479.952 2.366.952H37.69c.888 0 1.739-.343 2.366-.952.628-.61.98-1.436.98-2.298z" fill="#101B31"/><path d="M85.607 31.15a6.808 6.808 0 00-4.417-1.624h-6.692v-16.25c0-3.448-1.41-6.755-3.92-9.193-2.51-2.438-5.915-3.807-9.465-3.807H14.267c-3.55 0-6.954 1.37-9.464 3.807-2.51 2.438-3.92 5.745-3.92 9.193v78c0 3.447 1.41 6.754 3.92 9.192 2.51 2.438 5.914 3.808 9.464 3.808h46.846c3.55 0 6.954-1.37 9.464-3.808 2.51-2.438 3.92-5.745 3.92-9.192v-16.25h6.693a6.794 6.794 0 004.732-1.904 6.407 6.407 0 001.96-4.596v-32.5a6.343 6.343 0 00-.597-2.676 6.518 6.518 0 00-1.678-2.2zm-11.11 4.876l-16.73 12.187-16.73-12.187h33.46zm-6.692 55.25a6.407 6.407 0 01-1.96 4.596 6.794 6.794 0 01-4.732 1.904H14.267a6.794 6.794 0 01-4.732-1.904 6.407 6.407 0 01-1.96-4.596v-78c0-1.724.705-3.378 1.96-4.597a6.794 6.794 0 014.732-1.903h46.846c1.775 0 3.477.684 4.732 1.903a6.407 6.407 0 011.96 4.597v16.25H34.344a6.808 6.808 0 00-4.417 1.625 6.52 6.52 0 00-1.678 2.2 6.343 6.343 0 00-.597 2.675v32.5c0 1.724.705 3.377 1.96 4.596a6.794 6.794 0 004.732 1.904h33.461v16.25zm-33.461-22.75v-29.25l21.415 15.6c.58.422 1.284.65 2.008.65s1.428-.228 2.008-.65l21.415-15.6v29.25H34.344z" fill="#101B31"/><path d="M51.075 19.776c1.848 0 3.346-1.455 3.346-3.25s-1.498-3.25-3.346-3.25-3.347 1.455-3.347 3.25 1.499 3.25 3.347 3.25zM37.69 89.638c1.848 0 3.346-1.455 3.346-3.25s-1.498-3.25-3.346-3.25-3.346 1.455-3.346 3.25 1.498 3.25 3.346 3.25z" fill="#101B31"/><path d="M85.607 31.15a6.808 6.808 0 00-4.417-1.624H34.344a6.808 6.808 0 00-4.417 1.625 6.517 6.517 0 00-1.678 2.2 6.341 6.341 0 00-.598 2.675v32.5c0 1.724.706 3.377 1.96 4.596a6.794 6.794 0 004.733 1.904H81.19a6.794 6.794 0 004.732-1.904 6.407 6.407 0 001.96-4.596v-32.5a6.343 6.343 0 00-.597-2.676 6.518 6.518 0 00-1.678-2.2zm-11.11 4.876l-16.73 12.187-16.73-12.187h33.46zm6.693 32.5H34.344v-29.25l21.415 15.6c.58.422 1.284.65 2.008.65s1.428-.228 2.008-.65l21.415-15.6v29.25z" fill="#C80000"/></svg>