<svg width="223" height="179" viewBox="0 0 223 179" fill="none" xmlns="http://www.w3.org/2000/svg"><path d="M10.22 26.374a21.83 21.83 0 01-5.508-.68c-1.723-.476-3.173-1.11-4.352-1.904l1.768-4.862c.748.476 1.564.884 2.448 1.224.884.34 1.802.612 2.754.816.975.181 1.96.272 2.958.272 1.496 0 2.527-.193 3.094-.578.59-.385.884-.884.884-1.496 0-.544-.193-.963-.578-1.258-.385-.317-1.11-.59-2.176-.816l-4.148-.85c-2.199-.453-3.842-1.235-4.93-2.346C1.346 12.763.802 11.289.802 9.476c0-1.587.42-2.958 1.258-4.114.861-1.179 2.063-2.085 3.604-2.72 1.541-.657 3.343-.986 5.406-.986 1.7 0 3.298.238 4.794.714 1.496.453 2.72 1.088 3.672 1.904L17.768 8.83a10.125 10.125 0 00-3.06-1.496c-1.133-.363-2.391-.544-3.774-.544-1.315 0-2.312.204-2.992.612-.657.385-.986.94-.986 1.666 0 .499.193.93.578 1.292.408.34 1.145.623 2.21.85l4.08.816c2.199.43 3.842 1.201 4.93 2.312 1.11 1.11 1.666 2.561 1.666 4.352 0 1.541-.43 2.89-1.292 4.046-.839 1.156-2.017 2.051-3.536 2.686-1.519.635-3.31.952-5.372.952zM24.02 26V8.728h6.053V26H24.02zm-.136-19.72V.84h6.358v5.44h-6.358zM44.325 26V13.454c0-.793-.023-1.587-.068-2.38a39.178 39.178 0 00-.204-2.346H49.9l.646 5.304h-.918c.226-1.292.589-2.357 1.088-3.196.498-.839 1.122-1.462 1.87-1.87.748-.408 1.632-.612 2.652-.612.476 0 .827.023 1.054.068.249.023.51.09.782.204v5.304c-.567-.25-1.02-.408-1.36-.476-.34-.068-.782-.102-1.326-.102-.93 0-1.69.17-2.278.51-.59.317-1.02.816-1.292 1.496-.25.68-.374 1.553-.374 2.618V26h-6.12zm23.729.374c-3.128 0-5.565-.805-7.31-2.414-1.723-1.61-2.584-3.82-2.584-6.63 0-1.745.363-3.298 1.088-4.658a7.76 7.76 0 013.06-3.162c1.315-.77 2.856-1.156 4.624-1.156 1.745 0 3.196.385 4.352 1.156 1.179.748 2.063 1.79 2.652 3.128.59 1.315.884 2.845.884 4.59v1.292H63.225v-2.856h7.14l-.578.476c0-1.292-.25-2.244-.748-2.856-.476-.635-1.156-.952-2.04-.952-1.02 0-1.802.385-2.346 1.156-.521.748-.782 1.881-.782 3.4v.612c0 1.519.374 2.63 1.122 3.332.748.703 1.825 1.054 3.23 1.054.907 0 1.757-.102 2.55-.306a8 8 0 002.312-.986l1.564 3.944c-.861.59-1.859 1.043-2.992 1.36a13.31 13.31 0 01-3.604.476zm18.726 0c-1.904 0-3.57-.363-4.998-1.088-1.428-.725-2.539-1.757-3.332-3.094-.794-1.36-1.19-2.98-1.19-4.862 0-1.881.396-3.49 1.19-4.828.793-1.337 1.904-2.357 3.332-3.06 1.428-.725 3.094-1.088 4.998-1.088 1.178 0 2.334.159 3.468.476 1.133.317 2.051.77 2.754 1.36l-1.7 4.114a5.552 5.552 0 00-1.87-1.02 5.803 5.803 0 00-2.006-.374c-1.247 0-2.222.374-2.924 1.122-.68.748-1.02 1.847-1.02 3.298 0 1.45.34 2.561 1.02 3.332.702.748 1.677 1.122 2.924 1.122.634 0 1.303-.113 2.006-.34a6.471 6.471 0 001.87-1.02l1.7 4.114c-.726.567-1.655 1.02-2.788 1.36a12.44 12.44 0 01-3.434.476zM95.846 26V8.728h6.052V26h-6.052zM95.71 6.28V.84h6.358v5.44H95.71zm21.592 20.094c-1.314 0-2.516-.317-3.604-.952-1.065-.635-1.768-1.473-2.108-2.516h.374V26h-5.984V.976h6.052v10.676h-.408c.386-.997 1.1-1.79 2.142-2.38 1.066-.612 2.244-.918 3.536-.918 1.496 0 2.811.363 3.944 1.088 1.156.725 2.052 1.768 2.686 3.128.658 1.36.986 2.97.986 4.828 0 1.881-.328 3.49-.986 4.828-.634 1.337-1.53 2.369-2.686 3.094-1.133.703-2.448 1.054-3.944 1.054zm-1.904-4.488c.998 0 1.814-.351 2.448-1.054.658-.703.986-1.847.986-3.434 0-1.587-.328-2.743-.986-3.468-.634-.725-1.45-1.088-2.448-1.088-1.02 0-1.847.363-2.482 1.088-.634.703-.952 1.847-.952 3.434 0 1.587.318 2.743.952 3.468.635.703 1.462 1.054 2.482 1.054zm21.915 4.488c-3.128 0-5.564-.805-7.31-2.414-1.722-1.61-2.584-3.82-2.584-6.63 0-1.745.363-3.298 1.088-4.658a7.768 7.768 0 013.06-3.162c1.315-.77 2.856-1.156 4.624-1.156 1.746 0 3.196.385 4.352 1.156 1.179.748 2.063 1.79 2.652 3.128.59 1.315.884 2.845.884 4.59v1.292h-11.594v-2.856h7.14l-.578.476c0-1.292-.249-2.244-.748-2.856-.476-.635-1.156-.952-2.04-.952-1.02 0-1.802.385-2.346 1.156-.521.748-.782 1.881-.782 3.4v.612c0 1.519.374 2.63 1.122 3.332.748.703 1.825 1.054 3.23 1.054.907 0 1.757-.102 2.55-.306a7.996 7.996 0 002.312-.986l1.564 3.944c-.861.59-1.858 1.043-2.992 1.36a13.306 13.306 0 01-3.604.476zm16.618 0c-1.609 0-3.071-.159-4.386-.476-1.292-.34-2.391-.793-3.298-1.36l1.462-3.944c.884.499 1.87.907 2.958 1.224 1.111.317 2.21.476 3.298.476.861 0 1.485-.125 1.87-.374.408-.272.612-.623.612-1.054 0-.34-.125-.612-.374-.816-.249-.204-.623-.351-1.122-.442l-3.672-.646c-1.451-.272-2.584-.805-3.4-1.598-.793-.816-1.19-1.87-1.19-3.162 0-1.179.317-2.199.952-3.06.635-.884 1.541-1.564 2.72-2.04 1.179-.499 2.573-.748 4.182-.748 1.315 0 2.561.147 3.74.442 1.201.295 2.244.76 3.128 1.394l-1.564 3.842c-.703-.476-1.53-.861-2.482-1.156-.929-.317-1.802-.476-2.618-.476-.975 0-1.666.147-2.074.442-.408.272-.612.612-.612 1.02 0 .317.113.59.34.816.227.204.589.351 1.088.442l3.672.646c1.496.25 2.641.77 3.434 1.564.816.77 1.224 1.825 1.224 3.162 0 1.247-.34 2.312-1.02 3.196-.657.861-1.575 1.53-2.754 2.006-1.179.453-2.55.68-4.114.68zm-146.703 38c-2.199 0-3.83-.6-4.896-1.802C1.289 61.348.768 59.501.768 57.03V46.728H6.82v10.336c0 .907.181 1.587.544 2.04.385.43.963.646 1.734.646.861 0 1.564-.306 2.108-.918.567-.635.85-1.462.85-2.482v-9.622h6.052V64h-5.882v-3.094h.51c-.544 1.11-1.28 1.972-2.21 2.584-.93.59-2.029.884-3.298.884zm15-.374V51.42a41.15 41.15 0 00-.272-4.692h5.848l.34 2.992h-.374c.566-1.088 1.37-1.915 2.414-2.482 1.042-.59 2.22-.884 3.536-.884 2.017 0 3.524.6 4.522 1.802 1.02 1.179 1.53 3.026 1.53 5.542V64H33.72V53.97c0-1.11-.193-1.881-.578-2.312-.386-.453-.941-.68-1.666-.68-.952 0-1.723.317-2.312.952-.59.612-.884 1.428-.884 2.448V64h-6.052zm28.323.374c-1.496 0-2.81-.351-3.944-1.054-1.133-.725-2.029-1.768-2.686-3.128-.635-1.36-.952-2.97-.952-4.828 0-1.881.317-3.49.952-4.828.657-1.36 1.553-2.391 2.686-3.094 1.133-.725 2.448-1.088 3.944-1.088 1.337 0 2.539.317 3.604.952 1.088.635 1.802 1.462 2.142 2.482h-.34l.374-3.06h5.814c-.068.77-.136 1.553-.204 2.346a41.058 41.058 0 00-.068 2.346V64H55.89l-.068-2.924h.408c-.34.997-1.054 1.802-2.142 2.414-1.065.59-2.244.884-3.536.884zm1.938-4.488c1.02 0 1.848-.351 2.482-1.054.635-.725.952-1.881.952-3.468s-.317-2.731-.952-3.434c-.634-.725-1.462-1.088-2.482-1.088-1.02 0-1.847.363-2.482 1.088-.634.703-.952 1.847-.952 3.434 0 1.587.306 2.743.918 3.468.635.703 1.474 1.054 2.516 1.054zM76.14 64V38.976h6.052V64H76.14zm10.135 0V38.976h6.052V64h-6.052zm16.935.374c-1.496 0-2.811-.351-3.944-1.054-1.133-.725-2.029-1.768-2.686-3.128-.635-1.36-.952-2.97-.952-4.828 0-1.881.317-3.49.952-4.828.657-1.36 1.553-2.391 2.686-3.094 1.133-.725 2.448-1.088 3.944-1.088 1.337 0 2.539.317 3.604.952 1.088.635 1.802 1.462 2.142 2.482h-.34l.374-3.06h5.814c-.068.77-.136 1.553-.204 2.346a41.429 41.429 0 00-.068 2.346V64h-5.984l-.068-2.924h.408c-.34.997-1.054 1.802-2.142 2.414-1.065.59-2.244.884-3.536.884zm1.938-4.488c1.02 0 1.847-.351 2.482-1.054.635-.725.952-1.881.952-3.468s-.317-2.731-.952-3.434c-.635-.725-1.462-1.088-2.482-1.088-1.02 0-1.847.363-2.482 1.088-.635.703-.952 1.847-.952 3.434 0 1.587.306 2.743.918 3.468.635.703 1.473 1.054 2.516 1.054zM118.631 64V51.42a41.429 41.429 0 00-.272-4.692h5.848l.34 2.992h-.374a5.64 5.64 0 012.21-2.448c.975-.612 2.119-.918 3.434-.918 1.269 0 2.346.306 3.23.918.907.59 1.564 1.53 1.972 2.822h-.578c.567-1.179 1.383-2.097 2.448-2.754 1.088-.657 2.301-.986 3.638-.986 1.972 0 3.445.6 4.42 1.802.975 1.179 1.462 3.026 1.462 5.542V64h-6.086V53.902c0-1.065-.159-1.813-.476-2.244-.317-.453-.827-.68-1.53-.68-.884 0-1.575.317-2.074.952-.476.635-.714 1.507-.714 2.618V64h-6.052V53.902c0-1.065-.17-1.813-.51-2.244-.317-.453-.816-.68-1.496-.68-.884 0-1.575.317-2.074.952-.476.635-.714 1.507-.714 2.618V64h-6.052zm38.55.374c-1.496 0-2.811-.351-3.944-1.054-1.133-.725-2.029-1.768-2.686-3.128-.635-1.36-.952-2.97-.952-4.828 0-1.881.317-3.49.952-4.828.657-1.36 1.553-2.391 2.686-3.094 1.133-.725 2.448-1.088 3.944-1.088 1.337 0 2.539.317 3.604.952 1.088.635 1.802 1.462 2.142 2.482h-.34l.374-3.06h5.814c-.068.77-.136 1.553-.204 2.346a41.429 41.429 0 00-.068 2.346V64h-5.984l-.068-2.924h.408c-.34.997-1.054 1.802-2.142 2.414-1.065.59-2.244.884-3.536.884zm1.938-4.488c1.02 0 1.847-.351 2.482-1.054.635-.725.952-1.881.952-3.468s-.317-2.731-.952-3.434c-.635-.725-1.462-1.088-2.482-1.088-1.02 0-1.847.363-2.482 1.088-.635.703-.952 1.847-.952 3.434 0 1.587.306 2.743.918 3.468.635.703 1.473 1.054 2.516 1.054zm20.351 4.488c-1.473 0-2.788-.351-3.944-1.054-1.156-.725-2.063-1.768-2.72-3.128s-.986-2.97-.986-4.828c0-1.881.317-3.49.952-4.828.657-1.36 1.564-2.391 2.72-3.094 1.179-.725 2.505-1.088 3.978-1.088 1.315 0 2.505.306 3.57.918 1.065.59 1.779 1.383 2.142 2.38h-.51V38.976h6.052V64h-5.95v-3.094h.442c-.317 1.043-1.02 1.881-2.108 2.516-1.065.635-2.278.952-3.638.952zm1.938-4.488c.997 0 1.813-.351 2.448-1.054.657-.725.986-1.881.986-3.468s-.329-2.731-.986-3.434c-.635-.725-1.451-1.088-2.448-1.088-1.02 0-1.859.363-2.516 1.088-.635.703-.952 1.847-.952 3.434 0 1.587.317 2.743.952 3.468.657.703 1.496 1.054 2.516 1.054zm20.215 4.488c-1.496 0-2.811-.351-3.944-1.054-1.134-.725-2.029-1.768-2.686-3.128-.635-1.36-.952-2.97-.952-4.828 0-1.881.317-3.49.952-4.828.657-1.36 1.552-2.391 2.686-3.094 1.133-.725 2.448-1.088 3.944-1.088 1.337 0 2.538.317 3.604.952 1.088.635 1.802 1.462 2.142 2.482h-.34l.374-3.06h5.814c-.068.77-.136 1.553-.204 2.346a40.515 40.515 0 00-.068 2.346V64h-5.984l-.068-2.924h.408c-.34.997-1.054 1.802-2.142 2.414-1.066.59-2.244.884-3.536.884zm1.938-4.488c1.02 0 1.847-.351 2.482-1.054.634-.725.952-1.881.952-3.468s-.318-2.731-.952-3.434c-.635-.725-1.462-1.088-2.482-1.088-1.02 0-1.848.363-2.482 1.088-.635.703-.952 1.847-.952 3.434 0 1.587.306 2.743.918 3.468.634.703 1.473 1.054 2.516 1.054zm15.931 9.384l-2.278-1.802c.884-.861 1.507-1.677 1.87-2.448.385-.77.578-1.598.578-2.482L220.954 64h-4.318v-6.188h6.29v3.91c0 1.428-.261 2.72-.782 3.876-.499 1.179-1.383 2.403-2.652 3.672zM7.228 102.374c-2.199 0-3.83-.601-4.896-1.802C1.289 99.348.768 97.501.768 95.03V84.728H6.82v10.336c0 .907.181 1.587.544 2.04.385.43.963.646 1.734.646.861 0 1.564-.306 2.108-.918.567-.635.85-1.462.85-2.482v-9.622h6.052V102h-5.882v-3.094h.51c-.544 1.111-1.28 1.972-2.21 2.584-.93.589-2.029.884-3.298.884zm15-.374V89.42a41.15 41.15 0 00-.272-4.692h5.848l.34 2.992h-.374c.566-1.088 1.37-1.915 2.414-2.482 1.042-.59 2.22-.884 3.536-.884 2.017 0 3.524.6 4.522 1.802 1.02 1.179 1.53 3.026 1.53 5.542V102H33.72V91.97c0-1.11-.193-1.881-.578-2.312-.386-.453-.941-.68-1.666-.68-.952 0-1.723.317-2.312.952-.59.612-.884 1.428-.884 2.448V102h-6.052zm31.691 0V89.42a41.15 41.15 0 00-.272-4.692h5.848l.34 2.992h-.374a5.64 5.64 0 012.21-2.448c.975-.612 2.12-.918 3.434-.918 1.27 0 2.346.306 3.23.918.907.59 1.564 1.53 1.972 2.822h-.578c.567-1.179 1.383-2.097 2.448-2.754 1.088-.657 2.301-.986 3.638-.986 1.972 0 3.446.6 4.42 1.802.975 1.179 1.462 3.026 1.462 5.542V102h-6.086V91.902c0-1.065-.158-1.813-.476-2.244-.317-.453-.827-.68-1.53-.68-.884 0-1.575.317-2.074.952-.476.635-.714 1.507-.714 2.618V102h-6.052V91.902c0-1.065-.17-1.813-.51-2.244-.317-.453-.816-.68-1.496-.68-.884 0-1.575.317-2.074.952-.476.635-.714 1.507-.714 2.618V102H53.92zm40.862.374c-3.128 0-5.564-.805-7.31-2.414-1.722-1.61-2.584-3.82-2.584-6.63 0-1.745.363-3.298 1.088-4.658a7.76 7.76 0 013.06-3.162c1.315-.77 2.856-1.156 4.624-1.156 1.746 0 3.197.385 4.352 1.156 1.18.748 2.063 1.79 2.652 3.128.59 1.315.884 2.845.884 4.59v1.292H89.954v-2.856h7.14l-.578.476c0-1.292-.25-2.244-.749-2.856-.475-.635-1.155-.952-2.04-.952-1.02 0-1.802.385-2.346 1.156-.52.748-.781 1.881-.781 3.4v.612c0 1.519.374 2.63 1.122 3.332.748.703 1.824 1.054 3.23 1.054.906 0 1.756-.102 2.55-.306a8 8 0 002.312-.986l1.563 3.944c-.861.589-1.858 1.043-2.992 1.36a13.323 13.323 0 01-3.604.476zm9.988-.374V89.42a40.515 40.515 0 00-.272-4.692h5.848l.34 2.992h-.374c.567-1.088 1.372-1.915 2.414-2.482 1.043-.59 2.222-.884 3.536-.884 2.018 0 3.525.6 4.522 1.802 1.02 1.179 1.53 3.026 1.53 5.542V102h-6.052V91.97c0-1.11-.192-1.881-.578-2.312-.385-.453-.94-.68-1.666-.68-.952 0-1.722.317-2.312.952-.589.612-.884 1.428-.884 2.448V102h-6.052zm28.154.374c-1.61 0-3.072-.159-4.386-.476-1.292-.34-2.392-.793-3.298-1.36l1.462-3.944c.884.499 1.87.907 2.958 1.224 1.11.317 2.21.476 3.298.476.861 0 1.484-.125 1.87-.374.408-.272.612-.623.612-1.054 0-.34-.125-.612-.374-.816-.25-.204-.624-.351-1.122-.442l-3.672-.646c-1.451-.272-2.584-.805-3.4-1.598-.794-.816-1.19-1.87-1.19-3.162 0-1.179.317-2.199.952-3.06.634-.884 1.541-1.564 2.72-2.04 1.178-.499 2.572-.748 4.182-.748 1.314 0 2.561.147 3.74.442 1.201.295 2.244.76 3.128 1.394l-1.564 3.842c-.703-.476-1.53-.861-2.482-1.156-.93-.317-1.802-.476-2.618-.476-.975 0-1.666.147-2.074.442-.408.272-.612.612-.612 1.02 0 .317.113.59.34.816.226.204.589.351 1.088.442l3.672.646c1.496.25 2.64.77 3.434 1.564.816.77 1.224 1.825 1.224 3.162 0 1.247-.34 2.312-1.02 3.196-.658.861-1.576 1.53-2.754 2.006-1.179.453-2.55.68-4.114.68zm17.709 0c-1.496 0-2.811-.351-3.944-1.054-1.133-.725-2.029-1.768-2.686-3.128-.635-1.36-.952-2.97-.952-4.828 0-1.881.317-3.49.952-4.828.657-1.36 1.553-2.391 2.686-3.094 1.133-.725 2.448-1.088 3.944-1.088 1.337 0 2.539.317 3.604.952 1.088.635 1.802 1.462 2.142 2.482h-.34l.374-3.06h5.814c-.068.77-.136 1.553-.204 2.346a41.429 41.429 0 00-.068 2.346V102h-5.984l-.068-2.924h.408c-.34.997-1.054 1.802-2.142 2.414-1.065.589-2.244.884-3.536.884zm1.938-4.488c1.02 0 1.847-.351 2.482-1.054.635-.725.952-1.881.952-3.468s-.317-2.731-.952-3.434c-.635-.725-1.462-1.088-2.482-1.088-1.02 0-1.847.363-2.482 1.088-.635.703-.952 1.847-.952 3.434 0 1.587.306 2.743.918 3.468.635.703 1.473 1.054 2.516 1.054zm12.395 11.764c-.544 0-1.088-.034-1.632-.102a6.118 6.118 0 01-1.564-.408v-4.658c.34.113.669.193.986.238.295.045.612.068.952.068.657 0 1.201-.193 1.632-.578.453-.363.68-1.031.68-2.006V84.728h6.052v17.68c0 2.38-.567 4.182-1.7 5.406-1.111 1.224-2.913 1.836-5.406 1.836zm.884-27.37v-5.44h6.358v5.44h-6.358zm19.451 20.094c-3.128 0-5.565-.805-7.31-2.414-1.723-1.61-2.584-3.82-2.584-6.63 0-1.745.362-3.298 1.088-4.658a7.756 7.756 0 013.06-3.162c1.314-.77 2.856-1.156 4.624-1.156 1.745 0 3.196.385 4.352 1.156 1.178.748 2.062 1.79 2.652 3.128.589 1.315.884 2.845.884 4.59v1.292h-11.594v-2.856h7.14l-.578.476c0-1.292-.25-2.244-.748-2.856-.476-.635-1.156-.952-2.04-.952-1.02 0-1.802.385-2.346 1.156-.522.748-.782 1.881-.782 3.4v.612c0 1.519.374 2.63 1.122 3.332.748.703 1.824 1.054 3.23 1.054.906 0 1.756-.102 2.55-.306a8.007 8.007 0 002.312-.986l1.564 3.944c-.862.589-1.859 1.043-2.992 1.36a13.328 13.328 0 01-3.604.476zm-177.562 38c-1.473 0-2.788-.351-3.944-1.054-1.156-.725-2.063-1.768-2.72-3.128s-.986-2.969-.986-4.828c0-1.881.317-3.491.952-4.828.657-1.36 1.564-2.391 2.72-3.094 1.179-.725 2.505-1.088 3.978-1.088 1.315 0 2.505.306 3.57.918 1.065.589 1.78 1.383 2.142 2.38h-.51v-10.676h6.052V140h-5.95v-3.094h.442c-.317 1.043-1.02 1.881-2.108 2.516-1.065.635-2.278.952-3.638.952zm1.938-4.488c.997 0 1.813-.351 2.448-1.054.657-.725.986-1.881.986-3.468s-.329-2.731-.986-3.434c-.635-.725-1.45-1.088-2.448-1.088-1.02 0-1.859.363-2.516 1.088-.635.703-.952 1.847-.952 3.434 0 1.587.317 2.743.952 3.468.657.703 1.496 1.054 2.516 1.054zm22.527 4.488c-3.128 0-5.565-.805-7.31-2.414-1.723-1.609-2.584-3.819-2.584-6.63 0-1.745.363-3.298 1.088-4.658a7.76 7.76 0 013.06-3.162c1.314-.771 2.856-1.156 4.624-1.156 1.745 0 3.196.385 4.352 1.156 1.178.748 2.063 1.791 2.652 3.128.59 1.315.884 2.845.884 4.59v1.292H27.375v-2.856h7.14l-.578.476c0-1.292-.25-2.244-.748-2.856-.476-.635-1.156-.952-2.04-.952-1.02 0-1.802.385-2.346 1.156-.521.748-.782 1.881-.782 3.4v.612c0 1.519.374 2.629 1.122 3.332.748.703 1.825 1.054 3.23 1.054.907 0 1.757-.102 2.55-.306a8.009 8.009 0 002.312-.986l1.564 3.944c-.861.589-1.859 1.043-2.992 1.36a13.323 13.323 0 01-3.604.476zm28.996 0c-2.448 0-4.296-.578-5.542-1.734-1.224-1.179-1.836-2.958-1.836-5.338v-6.12h-3.23v-4.454h3.23v-4.08l6.052-1.428v5.508h4.216v4.454h-4.216v5.882c0 .997.226 1.666.68 2.006.453.317.997.476 1.632.476.385 0 .714-.023.986-.068.294-.068.6-.159.918-.272v4.658c-.499.204-.998.34-1.496.408-.476.068-.94.102-1.394.102zm14.524 0c-3.128 0-5.565-.805-7.31-2.414-1.723-1.609-2.584-3.819-2.584-6.63 0-1.745.363-3.298 1.088-4.658a7.76 7.76 0 013.06-3.162c1.314-.771 2.856-1.156 4.624-1.156 1.745 0 3.196.385 4.352 1.156 1.178.748 2.063 1.791 2.652 3.128.59 1.315.884 2.845.884 4.59v1.292H70.895v-2.856h7.14l-.578.476c0-1.292-.25-2.244-.748-2.856-.476-.635-1.156-.952-2.04-.952-1.02 0-1.802.385-2.346 1.156-.521.748-.782 1.881-.782 3.4v.612c0 1.519.374 2.629 1.122 3.332.748.703 1.825 1.054 3.23 1.054.906 0 1.757-.102 2.55-.306a8.009 8.009 0 002.312-.986l1.564 3.944c-.862.589-1.859 1.043-2.992 1.36a13.323 13.323 0 01-3.604.476zm6.894-.374l8.364-10.2v2.618l-7.888-9.69h7.072l4.284 5.61h-2.176l4.318-5.61h7.038l-7.888 9.724v-2.72L104.14 140h-7.14l-4.726-6.086h2.176L89.69 140h-7.072zm31.498.374c-2.448 0-4.295-.578-5.542-1.734-1.224-1.179-1.836-2.958-1.836-5.338v-6.12h-3.23v-4.454h3.23v-4.08l6.052-1.428v5.508h4.216v4.454h-4.216v5.882c0 .997.227 1.666.68 2.006.454.317.998.476 1.632.476.386 0 .714-.023.986-.068.295-.068.601-.159.918-.272v4.658a6.12 6.12 0 01-1.496.408c-.476.068-.94.102-1.394.102zm14.048 0c-1.926 0-3.592-.363-4.998-1.088-1.405-.725-2.493-1.757-3.264-3.094-.77-1.36-1.156-2.969-1.156-4.828 0-1.881.386-3.491 1.156-4.828.771-1.337 1.859-2.369 3.264-3.094 1.406-.725 3.072-1.088 4.998-1.088 1.904 0 3.559.363 4.964 1.088a7.75 7.75 0 013.264 3.128c.771 1.337 1.156 2.935 1.156 4.794 0 1.836-.385 3.434-1.156 4.794a7.75 7.75 0 01-3.264 3.128c-1.405.725-3.06 1.088-4.964 1.088zm0-4.488c.998 0 1.791-.351 2.38-1.054.59-.725.884-1.881.884-3.468s-.294-2.731-.884-3.434c-.589-.725-1.382-1.088-2.38-1.088-1.02 0-1.824.363-2.414 1.088-.589.703-.884 1.847-.884 3.434 0 1.587.295 2.743.884 3.468.59.703 1.394 1.054 2.414 1.054zm31.493 4.488c-1.927 0-3.593-.363-4.998-1.088-1.405-.725-2.493-1.757-3.264-3.094-.771-1.36-1.156-2.969-1.156-4.828 0-1.881.385-3.491 1.156-4.828.771-1.337 1.859-2.369 3.264-3.094 1.405-.725 3.071-1.088 4.998-1.088 1.904 0 3.559.363 4.964 1.088a7.762 7.762 0 013.264 3.128c.771 1.337 1.156 2.935 1.156 4.794 0 1.836-.385 3.434-1.156 4.794a7.762 7.762 0 01-3.264 3.128c-1.405.725-3.06 1.088-4.964 1.088zm0-4.488c.997 0 1.791-.351 2.38-1.054.589-.725.884-1.881.884-3.468s-.295-2.731-.884-3.434c-.589-.725-1.383-1.088-2.38-1.088-1.02 0-1.825.363-2.414 1.088-.589.703-.884 1.847-.884 3.434 0 1.587.295 2.743.884 3.468.589.703 1.394 1.054 2.414 1.054zm29.214 4.488c-2.198 0-3.83-.601-4.896-1.802-1.042-1.224-1.564-3.071-1.564-5.542v-10.302h6.052v10.336c0 .907.182 1.587.544 2.04.386.431.964.646 1.734.646.862 0 1.564-.306 2.108-.918.567-.635.85-1.462.85-2.482v-9.622h6.052V140h-5.882v-3.094h.51c-.544 1.111-1.28 1.972-2.21 2.584-.929.589-2.028.884-3.298.884zm15-.374v-12.58a41.412 41.412 0 00-.272-4.692h5.848l.34 2.992h-.374c.567-1.088 1.371-1.915 2.414-2.482 1.043-.589 2.221-.884 3.536-.884 2.017 0 3.525.601 4.522 1.802 1.02 1.179 1.53 3.026 1.53 5.542V140h-6.052v-10.03c0-1.111-.193-1.881-.578-2.312-.385-.453-.941-.68-1.666-.68-.952 0-1.723.317-2.312.952-.589.612-.884 1.428-.884 2.448V140h-6.052zM9.982 178.374c-3.128 0-5.565-.805-7.31-2.414-1.723-1.609-2.584-3.819-2.584-6.63 0-1.745.363-3.298 1.088-4.658a7.76 7.76 0 013.06-3.162c1.315-.771 2.856-1.156 4.624-1.156 1.745 0 3.196.385 4.352 1.156 1.179.748 2.063 1.791 2.652 3.128.59 1.315.884 2.845.884 4.59v1.292H5.154v-2.856h7.14l-.578.476c0-1.292-.25-2.244-.748-2.856-.476-.635-1.156-.952-2.04-.952-1.02 0-1.802.385-2.346 1.156-.521.748-.782 1.881-.782 3.4v.612c0 1.519.374 2.629 1.122 3.332.748.703 1.825 1.054 3.23 1.054.907 0 1.757-.102 2.55-.306a8.007 8.007 0 002.312-.986l1.564 3.944c-.861.589-1.859 1.043-2.992 1.36a13.323 13.323 0 01-3.604.476zM19.97 178v-12.58a41.134 41.134 0 00-.272-4.692h5.848l.34 2.992h-.374a5.636 5.636 0 012.21-2.448c.974-.612 2.12-.918 3.434-.918 1.27 0 2.346.306 3.23.918.906.589 1.564 1.53 1.972 2.822h-.578c.566-1.179 1.382-2.097 2.448-2.754 1.088-.657 2.3-.986 3.638-.986 1.972 0 3.445.601 4.42 1.802.974 1.179 1.462 3.026 1.462 5.542V178h-6.086v-10.098c0-1.065-.159-1.813-.476-2.244-.318-.453-.828-.68-1.53-.68-.884 0-1.576.317-2.074.952-.476.635-.714 1.507-.714 2.618V178h-6.052v-10.098c0-1.065-.17-1.813-.51-2.244-.318-.453-.816-.68-1.496-.68-.884 0-1.576.317-2.074.952-.476.635-.714 1.507-.714 2.618V178H19.97zm38.55.374c-1.496 0-2.81-.351-3.944-1.054-1.133-.725-2.029-1.768-2.686-3.128-.635-1.36-.952-2.969-.952-4.828 0-1.881.317-3.491.952-4.828.657-1.36 1.553-2.391 2.686-3.094 1.133-.725 2.448-1.088 3.944-1.088 1.337 0 2.539.317 3.604.952 1.088.635 1.802 1.462 2.142 2.482h-.34l.374-3.06h5.814l-.204 2.346a41.134 41.134 0 00-.068 2.346V178h-5.984l-.068-2.924h.408c-.34.997-1.054 1.802-2.142 2.414-1.065.589-2.244.884-3.536.884zm1.938-4.488c1.02 0 1.847-.351 2.482-1.054.635-.725.952-1.881.952-3.468s-.317-2.731-.952-3.434c-.635-.725-1.462-1.088-2.482-1.088-1.02 0-1.847.363-2.482 1.088-.635.703-.952 1.847-.952 3.434 0 1.587.306 2.743.918 3.468.635.703 1.473 1.054 2.516 1.054zM73.94 178v-17.272h6.052V178H73.94zm-.136-19.72v-5.44h6.358v5.44h-6.358zM84.075 178v-25.024h6.053V178h-6.052zm9.728 0v-6.188h6.29V178h-6.29zm9.603 0v-6.188h6.29V178h-6.29zm9.604 0v-6.188h6.29V178h-6.29z" fill="#fff"/></svg>