<svg width="200" height="149" viewBox="0 0 200 149" fill="none" xmlns="http://www.w3.org/2000/svg"><path d="M12.065 25l10.89-23.265h4.95L38.861 25h-6.105l-2.805-6.402 2.343 1.683H18.632l2.31-1.683L18.17 25h-6.105zM25.397 8.005l-3.86 9.207-.925-1.551h9.67l-.826 1.551-3.894-9.207h-.165zM40.3 32.128V12.79a39.912 39.912 0 00-.264-4.554h5.676l.363 2.97h-.33c.308-.99.99-1.793 2.046-2.409 1.056-.616 2.233-.924 3.53-.924 1.453 0 2.729.352 3.829 1.056 1.1.682 1.958 1.683 2.574 3.003.638 1.298.957 2.86.957 4.686 0 1.804-.32 3.366-.957 4.686-.616 1.32-1.474 2.332-2.574 3.036-1.1.682-2.376 1.023-3.828 1.023-1.276 0-2.431-.286-3.465-.858-1.034-.594-1.716-1.375-2.046-2.343h.363v9.966h-5.874zm9.14-11.121c1.013 0 1.816-.341 2.41-1.023.616-.704.924-1.826.924-3.366s-.308-2.651-.924-3.333c-.594-.704-1.397-1.056-2.41-1.056-.99 0-1.792.352-2.408 1.056-.616.682-.924 1.793-.924 3.333 0 1.54.308 2.662.924 3.366.616.682 1.419 1.023 2.409 1.023zM61.867 25V12.823c0-.77-.022-1.54-.066-2.31-.044-.77-.11-1.529-.198-2.277h5.676l.627 5.148h-.891c.22-1.254.572-2.288 1.056-3.102.484-.814 1.089-1.419 1.815-1.815.726-.396 1.584-.594 2.574-.594.462 0 .803.022 1.023.066.242.022.495.088.759.198v5.148c-.55-.242-.99-.396-1.32-.462-.33-.066-.759-.099-1.287-.099-.902 0-1.639.165-2.211.495-.572.308-.99.792-1.254 1.452-.242.66-.363 1.507-.363 2.541V25h-5.94zm23.031.363c-3.036 0-5.4-.781-7.095-2.343-1.672-1.562-2.508-3.707-2.508-6.435 0-1.694.352-3.201 1.056-4.521a7.532 7.532 0 012.97-3.069c1.276-.748 2.772-1.122 4.488-1.122 1.694 0 3.102.374 4.224 1.122 1.144.726 2.002 1.738 2.574 3.036.572 1.276.858 2.761.858 4.455v1.254H80.211v-2.772h6.93l-.56.462c0-1.254-.243-2.178-.727-2.772-.462-.616-1.122-.924-1.98-.924-.99 0-1.749.374-2.277 1.122-.506.726-.759 1.826-.759 3.3v.594c0 1.474.363 2.552 1.09 3.234.725.682 1.77 1.023 3.134 1.023a9.91 9.91 0 002.475-.297 7.763 7.763 0 002.244-.957l1.518 3.828c-.836.572-1.804 1.012-2.904 1.32-1.1.308-2.266.462-3.498.462zM94.591 25V12.79a39.912 39.912 0 00-.264-4.554h5.676l.33 2.904h-.363c.55-1.056 1.331-1.859 2.343-2.409 1.012-.572 2.156-.858 3.432-.858 1.958 0 3.421.583 4.389 1.749.99 1.144 1.485 2.937 1.485 5.379V25h-5.874v-9.735c0-1.078-.187-1.826-.561-2.244-.374-.44-.913-.66-1.617-.66-.924 0-1.672.308-2.244.924-.572.594-.858 1.386-.858 2.376V25h-5.874zm27.557.363c-1.43 0-2.706-.341-3.828-1.023-1.122-.704-2.002-1.716-2.64-3.036-.638-1.32-.957-2.882-.957-4.686 0-1.826.308-3.388.924-4.686.638-1.32 1.518-2.321 2.64-3.003 1.144-.704 2.431-1.056 3.861-1.056 1.276 0 2.431.297 3.465.891 1.034.572 1.727 1.342 2.079 2.31h-.495V.712h5.874V25h-5.775v-3.003h.429c-.308 1.012-.99 1.826-2.046 2.442-1.034.616-2.211.924-3.531.924zm1.881-4.356c.968 0 1.76-.341 2.376-1.023.638-.704.957-1.826.957-3.366s-.319-2.651-.957-3.333c-.616-.704-1.408-1.056-2.376-1.056-.99 0-1.804.352-2.442 1.056-.616.682-.924 1.793-.924 3.333 0 1.54.308 2.662.924 3.366.638.682 1.452 1.023 2.442 1.023zm21.864 4.356c-3.036 0-5.401-.781-7.095-2.343-1.672-1.562-2.508-3.707-2.508-6.435 0-1.694.352-3.201 1.056-4.521a7.532 7.532 0 012.97-3.069c1.276-.748 2.772-1.122 4.488-1.122 1.694 0 3.102.374 4.224 1.122 1.144.726 2.002 1.738 2.574 3.036.572 1.276.858 2.761.858 4.455v1.254h-11.253v-2.772h6.93l-.561.462c0-1.254-.242-2.178-.726-2.772-.462-.616-1.122-.924-1.98-.924-.99 0-1.749.374-2.277 1.122-.506.726-.759 1.826-.759 3.3v.594c0 1.474.363 2.552 1.089 3.234.726.682 1.771 1.023 3.135 1.023a9.91 9.91 0 002.475-.297 7.763 7.763 0 002.244-.957l1.518 3.828c-.836.572-1.804 1.012-2.904 1.32-1.1.308-2.266.462-3.498.462zm26.163 0c-1.452 0-2.728-.341-3.828-1.023-1.1-.704-1.969-1.716-2.607-3.036-.616-1.32-.924-2.882-.924-4.686 0-1.826.308-3.388.924-4.686.638-1.32 1.507-2.321 2.607-3.003 1.1-.704 2.376-1.056 3.828-1.056 1.298 0 2.464.308 3.498.924 1.056.616 1.749 1.419 2.079 2.409h-.33l.363-2.97h5.643l-.198 2.277c-.044.77-.066 1.529-.066 2.277V25h-5.808l-.066-2.838h.396c-.33.968-1.023 1.749-2.079 2.343-1.034.572-2.178.858-3.432.858zm1.881-4.356c.99 0 1.793-.341 2.409-1.023.616-.704.924-1.826.924-3.366s-.308-2.651-.924-3.333c-.616-.704-1.419-1.056-2.409-1.056-.99 0-1.793.352-2.409 1.056-.616.682-.924 1.793-.924 3.333 0 1.54.297 2.662.891 3.366.616.682 1.43 1.023 2.442 1.023zM.963 66V49.236h5.874V66H.963zM.83 46.86v-5.28H7v5.28H.832zm16.635 19.503c-1.43 0-2.706-.341-3.828-1.023-1.122-.704-2.002-1.716-2.64-3.036-.638-1.32-.957-2.882-.957-4.686 0-1.826.308-3.388.924-4.686.638-1.32 1.518-2.321 2.64-3.003 1.144-.704 2.43-1.056 3.86-1.056 1.277 0 2.432.297 3.466.891 1.034.572 1.727 1.342 2.079 2.31h-.495V41.712h5.874V66h-5.775v-3.003h.429c-.308 1.012-.99 1.826-2.046 2.442-1.034.616-2.211.924-3.531.924zm1.88-4.356c.969 0 1.76-.341 2.377-1.023.638-.704.957-1.826.957-3.366s-.32-2.651-.957-3.333c-.616-.704-1.408-1.056-2.376-1.056-.99 0-1.804.352-2.442 1.056-.616.682-.924 1.793-.924 3.333 0 1.54.308 2.662.924 3.366.638.682 1.452 1.023 2.442 1.023zm21.865 4.356c-3.036 0-5.4-.781-7.095-2.343-1.672-1.562-2.508-3.707-2.508-6.435 0-1.694.352-3.201 1.056-4.521a7.532 7.532 0 012.97-3.069c1.276-.748 2.772-1.122 4.488-1.122 1.694 0 3.102.374 4.224 1.122 1.144.726 2.002 1.738 2.574 3.036.572 1.276.858 2.761.858 4.455v1.254H36.525v-2.772h6.93l-.56.462c0-1.254-.243-2.178-.727-2.772-.462-.616-1.122-.924-1.98-.924-.99 0-1.749.374-2.277 1.122-.506.726-.759 1.826-.759 3.3v.594c0 1.474.363 2.552 1.09 3.234.725.682 1.77 1.023 3.134 1.023a9.91 9.91 0 002.475-.297 7.763 7.763 0 002.244-.957l1.518 3.828c-.836.572-1.804 1.012-2.904 1.32-1.1.308-2.266.462-3.498.462zM50.905 66V53.79a39.912 39.912 0 00-.264-4.554h5.676l.33 2.904h-.363c.55-1.056 1.331-1.859 2.343-2.409 1.012-.572 2.156-.858 3.432-.858 1.958 0 3.421.583 4.39 1.749.99 1.144 1.484 2.937 1.484 5.379V66H62.06v-9.735c0-1.078-.187-1.826-.56-2.244-.375-.44-.914-.66-1.618-.66-.924 0-1.672.308-2.244.924-.572.594-.858 1.386-.858 2.376V66h-5.874zm29.47.363c-2.375 0-4.168-.561-5.378-1.683-1.188-1.144-1.782-2.871-1.782-5.181v-5.94H70.08v-4.323h3.135v-3.96l5.874-1.386v5.346h4.092v4.323h-4.092v5.709c0 .968.22 1.617.66 1.947.44.308.968.462 1.584.462.374 0 .693-.022.957-.066a8.01 8.01 0 00.89-.264v4.521c-.483.198-.967.33-1.451.396a9.563 9.563 0 01-1.353.099zM85.79 66V49.236h5.874V66H85.79zm-.132-19.14v-5.28h6.17v5.28h-6.17zM97.046 66V53.559H93.91v-4.323h4.785l-1.65 1.518v-2.277c0-2.31.594-4.037 1.782-5.181 1.189-1.144 2.927-1.716 5.215-1.716.572 0 1.166.033 1.782.099a6.049 6.049 0 011.65.396v4.488a4.681 4.681 0 00-1.056-.231 7.022 7.022 0 00-1.155-.099c-.66 0-1.221.176-1.683.528-.462.33-.693.957-.693 1.881v1.485l-.825-.891H114.8V66h-5.874V53.559h-6.006V66h-5.874zm11.715-19.14v-5.28h6.171v5.28h-6.171zm18.493 19.503c-1.848 0-3.465-.352-4.851-1.056-1.386-.704-2.464-1.705-3.234-3.003-.77-1.32-1.155-2.893-1.155-4.719 0-1.826.385-3.388 1.155-4.686s1.848-2.288 3.234-2.97c1.386-.704 3.003-1.056 4.851-1.056 1.144 0 2.266.154 3.366.462 1.1.308 1.991.748 2.673 1.32l-1.65 3.993a5.388 5.388 0 00-1.815-.99 5.631 5.631 0 00-1.947-.363c-1.21 0-2.156.363-2.838 1.089-.66.726-.99 1.793-.99 3.201 0 1.408.33 2.486.99 3.234.682.726 1.628 1.089 2.838 1.089.616 0 1.265-.11 1.947-.33a6.283 6.283 0 001.815-.99l1.65 3.993c-.704.55-1.606.99-2.706 1.32a12.073 12.073 0 01-3.333.462zm15.368 0c-1.452 0-2.728-.341-3.828-1.023-1.1-.704-1.969-1.716-2.607-3.036-.616-1.32-.924-2.882-.924-4.686 0-1.826.308-3.388.924-4.686.638-1.32 1.507-2.321 2.607-3.003 1.1-.704 2.376-1.056 3.828-1.056 1.298 0 2.464.308 3.498.924 1.056.616 1.749 1.419 2.079 2.409h-.33l.363-2.97h5.643l-.198 2.277c-.044.77-.066 1.529-.066 2.277V66h-5.808l-.066-2.838h.396c-.33.968-1.023 1.749-2.079 2.343-1.034.572-2.178.858-3.432.858zm1.881-4.356c.99 0 1.793-.341 2.409-1.023.616-.704.924-1.826.924-3.366s-.308-2.651-.924-3.333c-.616-.704-1.419-1.056-2.409-1.056-.99 0-1.793.352-2.409 1.056-.616.682-.924 1.793-.924 3.333 0 1.54.297 2.662.891 3.366.616.682 1.43 1.023 2.442 1.023zM157.589 66V53.823c0-.77-.022-1.54-.066-2.31-.044-.77-.11-1.529-.198-2.277h5.676l.627 5.148h-.891c.22-1.254.572-2.288 1.056-3.102.484-.814 1.089-1.419 1.815-1.815.726-.396 1.584-.594 2.574-.594.462 0 .803.022 1.023.066.242.022.495.088.759.198v5.148c-.55-.242-.99-.396-1.32-.462-.33-.066-.759-.099-1.287-.099-.902 0-1.639.165-2.211.495-.572.308-.99.792-1.254 1.452-.242.66-.363 1.507-.363 2.541V66h-5.94zm24.413 7.491l-1.386-4.554c1.056-.198 1.936-.418 2.64-.66.726-.22 1.32-.528 1.782-.924.462-.396.825-.913 1.089-1.551l.825-1.914-.132 2.211-7.326-16.863h6.204l4.29 11.121h-1.089l4.422-11.121h5.808l-7.524 17.127c-.594 1.342-1.232 2.442-1.914 3.3-.66.858-1.386 1.54-2.178 2.046-.77.506-1.617.88-2.541 1.122-.902.264-1.892.484-2.97.66zM11.456 107V94.823c0-.77-.021-1.54-.066-2.31-.043-.77-.11-1.529-.197-2.277h5.676l.627 5.148h-.891c.22-1.254.572-2.288 1.055-3.102.485-.814 1.09-1.419 1.816-1.815.726-.396 1.584-.594 2.573-.594.463 0 .803.022 1.024.066.241.022.494.088.758.198v5.148c-.55-.242-.99-.396-1.32-.462-.33-.066-.758-.099-1.287-.099-.901 0-1.639.165-2.21.495-.572.308-.99.792-1.255 1.452-.242.66-.363 1.507-.363 2.541V107h-5.94zm23.032.363c-3.036 0-5.401-.781-7.095-2.343-1.672-1.562-2.508-3.707-2.508-6.435 0-1.694.352-3.201 1.056-4.521a7.532 7.532 0 012.97-3.069c1.276-.748 2.772-1.122 4.488-1.122 1.694 0 3.102.374 4.224 1.122 1.144.726 2.002 1.738 2.574 3.036.572 1.276.858 2.761.858 4.455v1.254H29.802v-2.772h6.93l-.561.462c0-1.254-.242-2.178-.726-2.772-.462-.616-1.122-.924-1.98-.924-.99 0-1.749.374-2.277 1.122-.506.726-.759 1.826-.759 3.3v.594c0 1.474.363 2.552 1.089 3.234.726.682 1.771 1.023 3.135 1.023a9.91 9.91 0 002.475-.297 7.763 7.763 0 002.244-.957l1.518 3.828c-.836.572-1.804 1.012-2.904 1.32-1.1.308-2.266.462-3.498.462zm9.694 6.765V94.79a39.912 39.912 0 00-.264-4.554h5.676l.363 2.97h-.33c.308-.99.99-1.793 2.046-2.409 1.056-.616 2.233-.924 3.531-.924 1.452 0 2.728.352 3.828 1.056 1.1.682 1.958 1.683 2.574 3.003.638 1.298.957 2.86.957 4.686 0 1.804-.319 3.366-.957 4.686-.616 1.32-1.474 2.332-2.574 3.036-1.1.682-2.376 1.023-3.828 1.023-1.276 0-2.431-.286-3.465-.858-1.034-.594-1.716-1.375-2.046-2.343h.363v9.966h-5.874zm9.141-11.121c1.012 0 1.815-.341 2.409-1.023.616-.704.924-1.826.924-3.366s-.308-2.651-.924-3.333c-.594-.704-1.397-1.056-2.409-1.056-.99 0-1.793.352-2.409 1.056-.616.682-.924 1.793-.924 3.333 0 1.54.308 2.662.924 3.366.616.682 1.419 1.023 2.409 1.023zm20.808 4.356c-1.87 0-3.487-.352-4.85-1.056-1.365-.704-2.42-1.705-3.169-3.003-.748-1.32-1.122-2.882-1.122-4.686 0-1.826.374-3.388 1.122-4.686.748-1.298 1.804-2.299 3.168-3.003 1.364-.704 2.981-1.056 4.851-1.056 1.848 0 3.454.352 4.818 1.056a7.532 7.532 0 013.168 3.036c.748 1.298 1.122 2.849 1.122 4.653 0 1.782-.374 3.333-1.122 4.653a7.532 7.532 0 01-3.168 3.036c-1.364.704-2.97 1.056-4.818 1.056zm0-4.356c.968 0 1.738-.341 2.31-1.023.572-.704.858-1.826.858-3.366s-.286-2.651-.858-3.333c-.572-.704-1.342-1.056-2.31-1.056-.99 0-1.77.352-2.343 1.056-.572.682-.858 1.793-.858 3.333 0 1.54.286 2.662.858 3.366.572.682 1.353 1.023 2.343 1.023zM86.447 107V94.823c0-.77-.023-1.54-.067-2.31-.043-.77-.11-1.529-.197-2.277h5.675l.627 5.148h-.89c.22-1.254.572-2.288 1.055-3.102.484-.814 1.09-1.419 1.816-1.815.726-.396 1.584-.594 2.574-.594.461 0 .802.022 1.022.066.243.022.496.088.76.198v5.148c-.55-.242-.99-.396-1.32-.462-.33-.066-.76-.099-1.287-.099-.903 0-1.64.165-2.212.495-.572.308-.99.792-1.254 1.452-.242.66-.362 1.507-.362 2.541V107h-5.94zm24.024.363c-2.376 0-4.169-.561-5.379-1.683-1.188-1.144-1.782-2.871-1.782-5.181v-5.94h-3.135v-4.323h3.135v-3.96l5.874-1.386v5.346h4.092v4.323h-4.092v5.709c0 .968.22 1.617.66 1.947.44.308.968.462 1.584.462.374 0 .693-.022.957-.066a8.01 8.01 0 00.891-.264v4.521c-.484.198-.968.33-1.452.396a9.563 9.563 0 01-1.353.099zm12.014 0c-1.452 0-2.728-.341-3.828-1.023-1.1-.704-1.969-1.716-2.607-3.036-.616-1.32-.924-2.882-.924-4.686 0-1.826.308-3.388.924-4.686.638-1.32 1.507-2.321 2.607-3.003 1.1-.704 2.376-1.056 3.828-1.056 1.298 0 2.464.308 3.498.924 1.056.616 1.749 1.419 2.079 2.409h-.33l.363-2.97h5.643l-.198 2.277c-.044.77-.066 1.529-.066 2.277V107h-5.808l-.066-2.838h.396c-.33.968-1.023 1.749-2.079 2.343-1.034.572-2.178.858-3.432.858zm1.881-4.356c.99 0 1.793-.341 2.409-1.023.616-.704.924-1.826.924-3.366s-.308-2.651-.924-3.333c-.616-.704-1.419-1.056-2.409-1.056-.99 0-1.793.352-2.409 1.056-.616.682-.924 1.793-.924 3.333 0 1.54.297 2.662.891 3.366.616.682 1.43 1.023 2.442 1.023zM137.452 107V94.823c0-.77-.022-1.54-.066-2.31-.044-.77-.11-1.529-.198-2.277h5.676l.627 5.148h-.891c.22-1.254.572-2.288 1.056-3.102.484-.814 1.089-1.419 1.815-1.815.726-.396 1.584-.594 2.574-.594.462 0 .803.022 1.023.066.242.022.495.088.759.198v5.148c-.55-.242-.99-.396-1.32-.462-.33-.066-.759-.099-1.287-.099-.902 0-1.639.165-2.211.495-.572.308-.99.792-1.254 1.452-.242.66-.363 1.507-.363 2.541V107h-5.94zm33.191.363c-3.036 0-5.401-.781-7.095-2.343-1.672-1.562-2.508-3.707-2.508-6.435 0-1.694.352-3.201 1.056-4.521a7.532 7.532 0 012.97-3.069c1.276-.748 2.772-1.122 4.488-1.122 1.694 0 3.102.374 4.224 1.122 1.144.726 2.002 1.738 2.574 3.036.572 1.276.858 2.761.858 4.455v1.254h-11.253v-2.772h6.93l-.561.462c0-1.254-.242-2.178-.726-2.772-.462-.616-1.122-.924-1.98-.924-.99 0-1.749.374-2.277 1.122-.506.726-.759 1.826-.759 3.3v.594c0 1.474.363 2.552 1.089 3.234.726.682 1.771 1.023 3.135 1.023a9.91 9.91 0 002.475-.297 7.763 7.763 0 002.244-.957l1.518 3.828c-.836.572-1.804 1.012-2.904 1.32-1.1.308-2.266.462-3.498.462zm9.694-.363V82.712h5.874V107h-5.874zM42.543 148v-12.441h-3.135v-4.323h4.785l-1.65 1.518v-2.277c0-2.31.605-4.037 1.815-5.181 1.21-1.144 3.036-1.716 5.478-1.716.55 0 1.133.033 1.75.099a6.049 6.049 0 011.65.396v4.488a4.681 4.681 0 00-1.057-.231 7.022 7.022 0 00-1.155-.099c-.44 0-.869.077-1.287.231a2.014 2.014 0 00-.99.726c-.242.352-.363.836-.363 1.452v1.485l-.825-.891h4.884v4.323h-4.026V148h-5.874zm12.253 0v-12.177c0-.77-.022-1.54-.066-2.31-.044-.77-.11-1.529-.198-2.277h5.676l.627 5.148h-.89c.22-1.254.571-2.288 1.055-3.102.484-.814 1.09-1.419 1.815-1.815.726-.396 1.584-.594 2.574-.594.462 0 .803.022 1.023.066.242.022.495.088.76.198v5.148c-.55-.242-.99-.396-1.32-.462-.33-.066-.76-.099-1.288-.099-.902 0-1.639.165-2.21.495-.573.308-.99.792-1.255 1.452-.242.66-.363 1.507-.363 2.541V148h-5.94zm20.916.363c-1.452 0-2.728-.341-3.828-1.023-1.1-.704-1.969-1.716-2.607-3.036-.616-1.32-.924-2.882-.924-4.686 0-1.826.308-3.388.924-4.686.638-1.32 1.507-2.321 2.607-3.003 1.1-.704 2.376-1.056 3.828-1.056 1.298 0 2.464.308 3.498.924 1.056.616 1.75 1.419 2.08 2.409h-.33l.362-2.97h5.643l-.198 2.277c-.044.77-.066 1.529-.066 2.277V148h-5.808l-.066-2.838h.396c-.33.968-1.023 1.749-2.079 2.343-1.034.572-2.178.858-3.432.858zm1.881-4.356c.99 0 1.793-.341 2.41-1.023.615-.704.923-1.826.923-3.366s-.308-2.651-.924-3.333c-.616-.704-1.419-1.056-2.409-1.056-.99 0-1.793.352-2.409 1.056-.616.682-.924 1.793-.924 3.333 0 1.54.297 2.662.891 3.366.616.682 1.43 1.023 2.442 1.023zm19.258 4.356c-2.134 0-3.718-.583-4.752-1.749-1.012-1.188-1.518-2.981-1.518-5.379v-9.999h5.874v10.032c0 .88.176 1.54.528 1.98.374.418.935.627 1.683.627.836 0 1.518-.297 2.046-.891.55-.616.825-1.419.825-2.409v-9.339h5.874V148h-5.709v-3.003h.495c-.528 1.078-1.243 1.914-2.145 2.508-.902.572-1.97.858-3.201.858zm21.224 0c-1.43 0-2.706-.341-3.828-1.023-1.122-.704-2.002-1.716-2.64-3.036-.638-1.32-.957-2.882-.957-4.686 0-1.826.308-3.388.924-4.686.638-1.32 1.518-2.321 2.64-3.003 1.144-.704 2.431-1.056 3.861-1.056 1.276 0 2.431.297 3.465.891 1.034.572 1.727 1.342 2.079 2.31h-.495v-10.362h5.874V148h-5.775v-3.003h.429c-.308 1.012-.99 1.826-2.046 2.442-1.034.616-2.211.924-3.531.924zm1.881-4.356c.968 0 1.76-.341 2.376-1.023.638-.704.957-1.826.957-3.366s-.319-2.651-.957-3.333c-.616-.704-1.408-1.056-2.376-1.056-.99 0-1.804.352-2.442 1.056-.616.682-.924 1.793-.924 3.333 0 1.54.308 2.662.924 3.366.638.682 1.452 1.023 2.442 1.023zm21.864 4.356c-3.036 0-5.401-.781-7.095-2.343-1.672-1.562-2.508-3.707-2.508-6.435 0-1.694.352-3.201 1.056-4.521a7.532 7.532 0 012.97-3.069c1.276-.748 2.772-1.122 4.488-1.122 1.694 0 3.102.374 4.224 1.122 1.144.726 2.002 1.738 2.574 3.036.572 1.276.858 2.761.858 4.455v1.254h-11.253v-2.772h6.93l-.561.462c0-1.254-.242-2.178-.726-2.772-.462-.616-1.122-.924-1.98-.924-.99 0-1.749.374-2.277 1.122-.506.726-.759 1.826-.759 3.3v.594c0 1.474.363 2.552 1.089 3.234.726.682 1.771 1.023 3.135 1.023a9.91 9.91 0 002.475-.297 7.763 7.763 0 002.244-.957l1.518 3.828c-.836.572-1.804 1.012-2.904 1.32-1.1.308-2.266.462-3.498.462zm9.298-.363v-6.006h6.105V148h-6.105z" fill="#fff"/></svg>