<svg width="199" height="166" viewBox="0 0 199 166" fill="none" xmlns="http://www.w3.org/2000/svg"><path d="M30.317 21.576l-3.344-9.538-3.344 9.538h6.688zm1.976 5.662h-10.64l-1.71 4.978h-7.942L22.907 3.564h8.132l10.906 28.652h-7.942l-1.71-4.978zm28.215-4.712c0-.608-.114-1.178-.342-1.71a3.898 3.898 0 00-.912-1.444 4.343 4.343 0 00-1.444-.95 4.014 4.014 0 00-1.748-.38c-.608 0-1.178.114-1.71.342-.532.228-1 .545-1.406.95a5.29 5.29 0 00-.95 1.444 4.295 4.295 0 00-.342 1.71c0 .608.114 1.178.342 1.71.228.532.545 1 .95 1.406.406.38.874.697 1.406.95.558.228 1.14.342 1.748.342.608 0 1.178-.114 1.71-.342a4.023 4.023 0 001.368-.95c.406-.405.722-.874.95-1.406.254-.532.38-1.09.38-1.672zm-8.664 19.418h-6.878V12.722h6.878v2.166c1.47-1.85 3.471-2.774 6.004-2.774 1.394 0 2.686.279 3.876.836a9.572 9.572 0 013.154 2.204 9.839 9.839 0 012.052 3.306c.507 1.267.76 2.622.76 4.066s-.253 2.787-.76 4.028a9.926 9.926 0 01-2.052 3.268 9.263 9.263 0 01-3.078 2.204c-1.19.532-2.482.798-3.876.798-2.432 0-4.458-.836-6.08-2.508v11.628zm19.767-29.222h6.878v3.192c.735-1.165 1.634-2.052 2.698-2.66 1.064-.633 2.305-.95 3.724-.95h.57c.228 0 .481.025.76.076v6.574a6.535 6.535 0 00-2.964-.684c-1.596 0-2.8.482-3.61 1.444-.785.938-1.178 2.318-1.178 4.142v8.36H71.61V12.722zm32.174 6.916c-.228-.963-.697-1.735-1.406-2.318-.71-.582-1.571-.874-2.584-.874-1.064 0-1.938.279-2.622.836-.659.558-1.077 1.343-1.254 2.356h7.866zm-8.056 3.99c0 2.964 1.393 4.446 4.18 4.446 1.494 0 2.622-.608 3.382-1.824h6.65c-1.343 4.459-4.7 6.688-10.07 6.688-1.647 0-3.154-.24-4.522-.722-1.368-.507-2.546-1.216-3.534-2.128a9.523 9.523 0 01-2.242-3.268c-.532-1.267-.798-2.685-.798-4.256 0-1.621.253-3.078.76-4.37.506-1.317 1.228-2.432 2.166-3.344.937-.912 2.064-1.608 3.382-2.09 1.342-.506 2.85-.76 4.522-.76 1.646 0 3.128.254 4.446.76 1.317.482 2.432 1.19 3.344 2.128.912.938 1.608 2.09 2.09 3.458.481 1.343.722 2.863.722 4.56v.722H95.729zm18.409-10.906h6.878v2.47c.938-1.14 1.888-1.9 2.85-2.28.963-.405 2.09-.608 3.382-.608 1.368 0 2.534.228 3.496.684a6.779 6.779 0 012.508 1.862 5.389 5.389 0 011.14 2.204c.203.81.304 1.736.304 2.774v12.388h-6.878v-9.842c0-.962-.076-1.735-.228-2.318-.126-.608-.367-1.09-.722-1.444a2.607 2.607 0 00-1.026-.646 3.818 3.818 0 00-1.216-.19c-1.165 0-2.064.355-2.698 1.064-.608.684-.912 1.672-.912 2.964v10.412h-6.878V12.722zm31.619 9.69c0 .634.114 1.229.342 1.786.228.532.532 1 .912 1.406.405.405.874.722 1.406.95a4.667 4.667 0 001.786.342c.608 0 1.178-.114 1.71-.342a3.946 3.946 0 001.406-.95c.405-.405.722-.874.95-1.406.253-.532.38-1.102.38-1.71 0-.608-.127-1.178-.38-1.71a4.346 4.346 0 00-.95-1.444 3.946 3.946 0 00-1.406-.95 4.295 4.295 0 00-1.71-.342c-.608 0-1.191.114-1.748.342a4.443 4.443 0 00-1.406.95 5.48 5.48 0 00-.95 1.406 4.028 4.028 0 00-.342 1.672zM154.421.676h6.916v31.54h-6.916V30.05c-1.47 1.85-3.458 2.774-5.966 2.774-1.419 0-2.724-.266-3.914-.798a9.672 9.672 0 01-3.116-2.204 10.33 10.33 0 01-2.09-3.306c-.482-1.266-.722-2.634-.722-4.104 0-1.393.228-2.71.684-3.952.481-1.267 1.152-2.369 2.014-3.306a9.255 9.255 0 013.078-2.204c1.216-.557 2.546-.836 3.99-.836 2.432 0 4.446.849 6.042 2.546V.676zm25.846 18.962c-.228-.963-.697-1.735-1.406-2.318-.709-.582-1.571-.874-2.584-.874-1.064 0-1.938.279-2.622.836-.659.558-1.077 1.343-1.254 2.356h7.866zm-8.056 3.99c0 2.964 1.393 4.446 4.18 4.446 1.495 0 2.622-.608 3.382-1.824h6.65c-1.343 4.459-4.699 6.688-10.07 6.688-1.647 0-3.154-.24-4.522-.722-1.368-.507-2.546-1.216-3.534-2.128a9.519 9.519 0 01-2.242-3.268c-.532-1.267-.798-2.685-.798-4.256 0-1.621.253-3.078.76-4.37.507-1.317 1.229-2.432 2.166-3.344.937-.912 2.065-1.608 3.382-2.09 1.343-.506 2.85-.76 4.522-.76 1.647 0 3.129.254 4.446.76 1.317.482 2.432 1.19 3.344 2.128.912.938 1.609 2.09 2.09 3.458.481 1.343.722 2.863.722 4.56v.722h-14.478zm-139.04 38.11c-1.266-.658-2.508-.988-3.723-.988-.634 0-1.153.127-1.558.38-.38.253-.57.595-.57 1.026 0 .228.025.418.075.57.076.127.216.254.419.38.227.127.544.24.95.342.43.102.988.228 1.672.38 1.9.38 3.318 1.064 4.255 2.052.938.963 1.406 2.204 1.406 3.724 0 1.14-.227 2.166-.684 3.078a6.724 6.724 0 01-1.9 2.318c-.81.608-1.785 1.077-2.925 1.406-1.14.355-2.395.532-3.762.532-2.635 0-5.232-.747-7.79-2.242l2.508-4.864c1.925 1.318 3.749 1.976 5.471 1.976.634 0 1.153-.14 1.558-.418.406-.278.608-.633.608-1.064 0-.253-.038-.456-.114-.608-.05-.177-.177-.33-.38-.456-.202-.152-.506-.278-.912-.38-.38-.127-.886-.253-1.52-.38-2.127-.43-3.622-1.064-4.483-1.9-.836-.861-1.255-2.04-1.255-3.534 0-1.09.203-2.064.608-2.926a6.057 6.057 0 011.748-2.242c.76-.608 1.672-1.076 2.736-1.406 1.09-.33 2.293-.494 3.61-.494 2.154 0 4.244.418 6.27 1.254l-2.317 4.484zm12.913 4.636c0 .659.113 1.267.341 1.824.254.532.57 1 .95 1.406.406.406.874.722 1.407.95.557.228 1.14.342 1.748.342.608 0 1.178-.114 1.71-.342a3.943 3.943 0 001.405-.95c.406-.405.722-.874.95-1.406.254-.557.38-1.152.38-1.786 0-.608-.126-1.178-.38-1.71a4.342 4.342 0 00-.95-1.444 3.943 3.943 0 00-1.406-.95 4.295 4.295 0 00-1.71-.342c-.608 0-1.19.114-1.748.342-.532.228-1 .545-1.405.95-.38.405-.697.874-.95 1.406a4.295 4.295 0 00-.343 1.71zm-7.259-.076c0-1.444.292-2.787.874-4.028a9.685 9.685 0 012.433-3.268c1.038-.937 2.267-1.672 3.686-2.204 1.444-.532 3.014-.798 4.712-.798 1.672 0 3.217.266 4.636.798 1.444.507 2.685 1.229 3.724 2.166a9.375 9.375 0 012.47 3.306c.582 1.267.873 2.673.873 4.218 0 1.546-.303 2.964-.911 4.256a10.087 10.087 0 01-2.433 3.306c-1.038.912-2.292 1.621-3.762 2.128-1.444.507-3.014.76-4.712.76-1.672 0-3.217-.253-4.636-.76-1.418-.507-2.647-1.228-3.686-2.166a10.233 10.233 0 01-2.394-3.344c-.582-1.317-.873-2.774-.873-4.37zm42.91.228c0-.608-.114-1.178-.342-1.71a4.342 4.342 0 00-.95-1.444 4.447 4.447 0 00-1.406-.95 4.014 4.014 0 00-1.748-.38c-.608 0-1.178.114-1.71.342-.532.228-1 .545-1.406.95a5.29 5.29 0 00-.95 1.444 4.295 4.295 0 00-.342 1.71c0 .608.114 1.178.342 1.71.228.532.545 1 .95 1.406.405.38.874.697 1.406.95.557.228 1.14.342 1.748.342.608 0 1.178-.114 1.71-.342a4.023 4.023 0 001.368-.95c.405-.405.722-.874.95-1.406.253-.532.38-1.09.38-1.672zm-8.664-21.85V58.66c1.621-1.697 3.648-2.546 6.08-2.546 1.444 0 2.761.279 3.952.836 1.216.532 2.242 1.267 3.078 2.204.861.912 1.533 2.002 2.014 3.268.481 1.242.722 2.572.722 3.99 0 1.444-.253 2.8-.76 4.066a9.835 9.835 0 01-2.052 3.306 10.066 10.066 0 01-3.154 2.242c-1.19.532-2.483.798-3.876.798-2.533 0-4.535-.924-6.004-2.774v2.166h-6.878v-31.54h6.878zm19.766 12.046h6.878v3.192c.735-1.165 1.634-2.052 2.698-2.66 1.064-.633 2.306-.95 3.724-.95h.57c.228 0 .482.026.76.076v6.574a6.535 6.535 0 00-2.964-.684c-1.596 0-2.799.481-3.61 1.444-.785.938-1.178 2.318-1.178 4.142v8.36h-6.878V56.722zm32.174 6.916c-.228-.962-.696-1.735-1.406-2.318-.709-.583-1.57-.874-2.584-.874-1.064 0-1.938.279-2.622.836-.658.558-1.076 1.343-1.254 2.356h7.866zm-8.056 3.99c0 2.964 1.394 4.446 4.18 4.446 1.495 0 2.622-.608 3.382-1.824h6.65c-1.342 4.459-4.699 6.688-10.07 6.688-1.646 0-3.154-.24-4.522-.722-1.368-.506-2.546-1.216-3.534-2.128a9.533 9.533 0 01-2.242-3.268c-.532-1.266-.798-2.685-.798-4.256 0-1.621.254-3.078.76-4.37.507-1.317 1.229-2.432 2.166-3.344.938-.912 2.065-1.608 3.382-2.09 1.343-.506 2.85-.76 4.522-.76 1.647 0 3.129.254 4.446.76 1.318.482 2.432 1.19 3.344 2.128.912.938 1.609 2.09 2.09 3.458.482 1.343.722 2.863.722 4.56v.722h-14.478zm45.574-3.99c-.228-.962-.697-1.735-1.406-2.318s-1.571-.874-2.584-.874c-1.064 0-1.938.279-2.622.836-.659.558-1.077 1.343-1.254 2.356h7.866zm-8.056 3.99c0 2.964 1.393 4.446 4.18 4.446 1.495 0 2.622-.608 3.382-1.824h6.65c-1.343 4.459-4.699 6.688-10.07 6.688-1.647 0-3.154-.24-4.522-.722-1.368-.506-2.546-1.216-3.534-2.128a9.519 9.519 0 01-2.242-3.268c-.532-1.266-.798-2.685-.798-4.256 0-1.621.253-3.078.76-4.37.507-1.317 1.229-2.432 2.166-3.344.937-.912 2.065-1.608 3.382-2.09 1.343-.506 2.85-.76 4.522-.76 1.647 0 3.129.254 4.446.76 1.317.482 2.432 1.19 3.344 2.128.912.938 1.609 2.09 2.09 3.458.481 1.343.722 2.863.722 4.56v.722h-14.478zm25.287-22.952v31.54h-6.878v-31.54h6.878zM21.985 106.46v13.756h-6.878V106.46h-2.47v-5.738h2.47v-2.926c0-1.621.152-2.913.456-3.876a6.677 6.677 0 011.216-2.242 8.823 8.823 0 011.938-1.824c.76-.507 1.57-.9 2.432-1.178a8.238 8.238 0 012.546-.418c.582 0 1.114.064 1.596.19a9.06 9.06 0 011.52.532v6.004a6.365 6.365 0 00-1.292-.494 3.82 3.82 0 00-1.216-.19c-.279 0-.57.05-.874.152-.279.076-.545.254-.798.532-.254.279-.431.684-.532 1.216-.076.507-.114 1.203-.114 2.09v2.432h4.826v5.738h-4.826zm7.395-5.738h6.878v3.192c.735-1.165 1.634-2.052 2.698-2.66 1.064-.633 2.306-.95 3.724-.95h.57c.228 0 .482.026.76.076v6.574a6.535 6.535 0 00-2.964-.684c-1.596 0-2.799.482-3.61 1.444-.785.938-1.178 2.318-1.178 4.142v8.36H29.38v-19.494zm24.308 9.69c0 .634.114 1.229.342 1.786.228.532.532 1.001.912 1.406.406.406.874.722 1.406.95a4.671 4.671 0 001.786.342c.608 0 1.178-.114 1.71-.342a3.933 3.933 0 001.406-.95c.406-.405.722-.874.95-1.406.254-.532.38-1.102.38-1.71 0-.608-.126-1.178-.38-1.71a4.35 4.35 0 00-.95-1.444 3.946 3.946 0 00-1.406-.95 4.295 4.295 0 00-1.71-.342c-.633 0-1.228.114-1.786.342-.532.228-1 .545-1.406.95a4.81 4.81 0 00-.912 1.406 4.029 4.029 0 00-.342 1.672zm8.664-9.69h6.916v19.494h-6.916v-2.166c-1.47 1.85-3.458 2.774-5.966 2.774-1.418 0-2.723-.253-3.914-.76a9.673 9.673 0 01-3.116-2.204 10.342 10.342 0 01-2.09-3.306c-.481-1.266-.722-2.647-.722-4.142 0-1.393.24-2.71.722-3.952.482-1.266 1.153-2.368 2.014-3.306a9.268 9.268 0 013.078-2.204c1.19-.557 2.508-.836 3.952-.836 2.432 0 4.446.849 6.042 2.546v-1.938zm18.475 0v10.982c0 2.407 1.165 3.61 3.496 3.61 2.33 0 3.496-1.203 3.496-3.61v-10.982h6.878v12.312c0 2.635-.874 4.611-2.622 5.928-1.723 1.318-4.307 1.976-7.752 1.976-3.446 0-6.042-.658-7.79-1.976-1.723-1.317-2.584-3.293-2.584-5.928v-12.312h6.878zm24.926 9.69c0 .634.114 1.229.342 1.786.228.532.532 1.001.912 1.406.405.406.874.722 1.406.95a4.667 4.667 0 001.786.342c.608 0 1.178-.114 1.71-.342a3.937 3.937 0 001.406-.95c.405-.405.722-.874.95-1.406.253-.532.38-1.102.38-1.71 0-.608-.127-1.178-.38-1.71a4.356 4.356 0 00-.95-1.444 3.95 3.95 0 00-1.406-.95 4.295 4.295 0 00-1.71-.342c-.608 0-1.191.114-1.748.342a4.448 4.448 0 00-1.406.95c-.38.406-.697.874-.95 1.406a4.029 4.029 0 00-.342 1.672zm8.664-21.736h6.916v31.54h-6.916v-2.166c-1.47 1.85-3.458 2.774-5.966 2.774-1.419 0-2.724-.266-3.914-.798a9.661 9.661 0 01-3.116-2.204 10.336 10.336 0 01-2.09-3.306c-.482-1.266-.722-2.634-.722-4.104 0-1.393.228-2.71.684-3.952.481-1.266 1.152-2.368 2.014-3.306a9.26 9.26 0 013.078-2.204c1.216-.557 2.546-.836 3.99-.836 2.432 0 4.446.849 6.042 2.546V88.676zm25.846 18.962c-.228-.962-.696-1.735-1.406-2.318-.709-.582-1.57-.874-2.584-.874-1.064 0-1.938.279-2.622.836-.658.558-1.076 1.343-1.254 2.356h7.866zm-8.056 3.99c0 2.964 1.394 4.446 4.18 4.446 1.495 0 2.622-.608 3.382-1.824h6.65c-1.342 4.459-4.699 6.688-10.07 6.688-1.646 0-3.154-.24-4.522-.722-1.368-.506-2.546-1.216-3.534-2.128a9.53 9.53 0 01-2.242-3.268c-.532-1.266-.798-2.685-.798-4.256 0-1.621.254-3.078.76-4.37.507-1.317 1.229-2.432 2.166-3.344.938-.912 2.065-1.608 3.382-2.09 1.343-.506 2.85-.76 4.522-.76 1.647 0 3.129.254 4.446.76 1.318.482 2.432 1.191 3.344 2.128.912.938 1.609 2.09 2.09 3.458.482 1.343.722 2.863.722 4.56v.722h-14.478zm37.708-1.216c0 .634.114 1.229.342 1.786.228.532.532 1.001.912 1.406.405.406.874.722 1.406.95a4.667 4.667 0 001.786.342c.608 0 1.178-.114 1.71-.342a3.937 3.937 0 001.406-.95c.405-.405.722-.874.95-1.406.253-.532.38-1.102.38-1.71 0-.608-.127-1.178-.38-1.71a4.356 4.356 0 00-.95-1.444 3.95 3.95 0 00-1.406-.95 4.295 4.295 0 00-1.71-.342c-.634 0-1.229.114-1.786.342a4.448 4.448 0 00-1.406.95 4.81 4.81 0 00-.912 1.406 4.029 4.029 0 00-.342 1.672zm8.664-9.69h6.916v19.494h-6.916v-2.166c-1.47 1.85-3.458 2.774-5.966 2.774-1.419 0-2.724-.253-3.914-.76a9.661 9.661 0 01-3.116-2.204 10.323 10.323 0 01-2.09-3.306c-.482-1.266-.722-2.647-.722-4.142 0-1.393.24-2.71.722-3.952.481-1.266 1.152-2.368 2.014-3.306a9.26 9.26 0 013.078-2.204c1.19-.557 2.508-.836 3.952-.836 2.432 0 4.446.849 6.042 2.546v-1.938zM.791 164.216l4.864-28.652h7.372l5.738 15.276 5.7-15.276h7.372l4.864 28.652h-7.41l-2.47-16.492-6.764 16.492h-2.964l-6.422-16.492-2.47 16.492H.791zm53.193-12.578c-.228-.962-.697-1.735-1.406-2.318-.71-.582-1.57-.874-2.584-.874-1.064 0-1.938.279-2.622.836-.659.558-1.077 1.343-1.254 2.356h7.866zm-8.056 3.99c0 2.964 1.393 4.446 4.18 4.446 1.495 0 2.622-.608 3.382-1.824h6.65c-1.343 4.459-4.7 6.688-10.07 6.688-1.647 0-3.154-.24-4.522-.722-1.368-.506-2.546-1.216-3.534-2.128a9.521 9.521 0 01-2.242-3.268c-.532-1.266-.798-2.685-.798-4.256 0-1.621.253-3.078.76-4.37.507-1.317 1.229-2.432 2.166-3.344.937-.912 2.065-1.608 3.382-2.09 1.343-.506 2.85-.76 4.522-.76 1.647 0 3.129.254 4.446.76 1.317.482 2.432 1.191 3.344 2.128.912.938 1.609 2.09 2.09 3.458.481 1.343.722 2.863.722 4.56v.722H45.928zm24.793-1.216c0 .634.114 1.229.342 1.786.228.532.532 1.001.912 1.406.406.406.874.722 1.406.95a4.671 4.671 0 001.786.342c.608 0 1.178-.114 1.71-.342a3.933 3.933 0 001.406-.95c.406-.405.722-.874.95-1.406.254-.532.38-1.102.38-1.71 0-.608-.126-1.178-.38-1.71a4.35 4.35 0 00-.95-1.444 3.946 3.946 0 00-1.406-.95 4.295 4.295 0 00-1.71-.342c-.608 0-1.19.114-1.748.342-.532.228-1 .545-1.406.95-.38.406-.696.874-.95 1.406a4.029 4.029 0 00-.342 1.672zm8.664-21.736h6.916v31.54h-6.916v-2.166c-1.469 1.85-3.458 2.774-5.966 2.774-1.418 0-2.723-.266-3.914-.798a9.673 9.673 0 01-3.116-2.204 10.342 10.342 0 01-2.09-3.306c-.48-1.266-.722-2.634-.722-4.104 0-1.393.228-2.71.684-3.952.482-1.266 1.153-2.368 2.014-3.306a9.268 9.268 0 013.078-2.204c1.216-.557 2.546-.836 3.99-.836 2.432 0 4.446.849 6.042 2.546v-13.984zm18.475 12.046v19.494h-6.878v-19.494h6.878zm-7.334-7.486c0-.532.101-1.026.304-1.482a3.89 3.89 0 01.836-1.254c.355-.354.76-.633 1.216-.836a3.89 3.89 0 011.52-.304c.532 0 1.026.102 1.482.304.481.203.9.482 1.254.836.355.355.633.773.836 1.254.203.456.304.95.304 1.482s-.101 1.039-.304 1.52a4.002 4.002 0 01-.836 1.216 3.87 3.87 0 01-1.254.836c-.456.203-.95.304-1.482.304a3.871 3.871 0 01-1.52-.304 3.99 3.99 0 01-1.216-.836 3.998 3.998 0 01-.836-1.216 3.876 3.876 0 01-.304-1.52zm26.74 13.794c-1.191-.81-2.394-1.216-3.61-1.216-.659 0-1.279.114-1.862.342a4.488 4.488 0 00-1.482.988c-.431.406-.773.9-1.026 1.482-.228.558-.342 1.191-.342 1.9 0 .684.114 1.318.342 1.9.253.558.583 1.052.988 1.482.431.406.937.722 1.52.95a5.064 5.064 0 001.862.342c1.292 0 2.495-.443 3.61-1.33v5.852c-1.697.735-3.306 1.102-4.826 1.102-1.419 0-2.774-.24-4.066-.722a10.698 10.698 0 01-3.382-2.052 10.607 10.607 0 01-2.318-3.23c-.583-1.266-.874-2.672-.874-4.218 0-1.545.279-2.951.836-4.218.557-1.292 1.317-2.394 2.28-3.306a9.986 9.986 0 013.42-2.166 11.55 11.55 0 014.294-.798c1.672 0 3.217.355 4.636 1.064v5.852zm10.307 3.382c0 .634.114 1.229.342 1.786.228.532.532 1.001.912 1.406.405.406.874.722 1.406.95a4.67 4.67 0 001.786.342c.608 0 1.178-.114 1.71-.342a3.937 3.937 0 001.406-.95c.405-.405.722-.874.95-1.406.253-.532.38-1.102.38-1.71 0-.608-.127-1.178-.38-1.71a4.356 4.356 0 00-.95-1.444 3.95 3.95 0 00-1.406-.95 4.295 4.295 0 00-1.71-.342 4.67 4.67 0 00-1.786.342 4.448 4.448 0 00-1.406.95 4.81 4.81 0 00-.912 1.406 4.029 4.029 0 00-.342 1.672zm8.664-9.69h6.916v19.494h-6.916v-2.166c-1.469 1.85-3.458 2.774-5.966 2.774-1.419 0-2.723-.253-3.914-.76a9.672 9.672 0 01-3.116-2.204 10.34 10.34 0 01-2.09-3.306c-.481-1.266-.722-2.647-.722-4.142 0-1.393.241-2.71.722-3.952a10.178 10.178 0 012.014-3.306 9.26 9.26 0 013.078-2.204c1.191-.557 2.508-.836 3.952-.836 2.432 0 4.446.849 6.042 2.546v-1.938zm11.597 0h6.878v3.192c.734-1.165 1.634-2.052 2.698-2.66 1.064-.633 2.305-.95 3.724-.95h.57c.228 0 .481.026.76.076v6.574a6.535 6.535 0 00-2.964-.684c-1.596 0-2.8.482-3.61 1.444-.786.938-1.178 2.318-1.178 4.142v8.36h-6.878v-19.494zm32.173 6.916c-.228-.962-.696-1.735-1.406-2.318-.709-.582-1.57-.874-2.584-.874-1.064 0-1.938.279-2.622.836-.658.558-1.076 1.343-1.254 2.356h7.866zm-8.056 3.99c0 2.964 1.394 4.446 4.18 4.446 1.495 0 2.622-.608 3.382-1.824h6.65c-1.342 4.459-4.699 6.688-10.07 6.688-1.646 0-3.154-.24-4.522-.722-1.368-.506-2.546-1.216-3.534-2.128a9.53 9.53 0 01-2.242-3.268c-.532-1.266-.798-2.685-.798-4.256 0-1.621.254-3.078.76-4.37.507-1.317 1.229-2.432 2.166-3.344.938-.912 2.065-1.608 3.382-2.09 1.343-.506 2.85-.76 4.522-.76 1.647 0 3.129.254 4.446.76 1.318.482 2.432 1.191 3.344 2.128.912.938 1.609 2.09 2.09 3.458.482 1.343.722 2.863.722 4.56v.722h-14.478zm18.068 4.94c0-.608.114-1.178.342-1.71a4.356 4.356 0 012.356-2.394 4.572 4.572 0 011.748-.342c.608 0 1.178.114 1.71.342a4.346 4.346 0 011.444.95c.405.406.722.887.95 1.444.228.532.342 1.102.342 1.71 0 .608-.114 1.191-.342 1.748a4.448 4.448 0 01-.95 1.406 4.33 4.33 0 01-1.444.95 4.295 4.295 0 01-1.71.342 4.572 4.572 0 01-1.748-.342 4.448 4.448 0 01-2.356-2.356 4.572 4.572 0 01-.342-1.748z" fill="#fff"/></svg>