<svg width="251" height="109" viewBox="0 0 251 109" fill="none" xmlns="http://www.w3.org/2000/svg"><path d="M8.388 9.208v14.976c0 .576.036.648.576.72l2.412.288V28H1.368v-2.808l2.268-.252c.504-.072.576-.18.576-.72V5.716c0-.54-.036-.648-.576-.72l-2.268-.252V1.936h8.928L21.6 20.764V5.788c0-.54-.036-.648-.576-.72l-2.268-.252v-2.88h10.008v2.88l-2.412.288c-.54.072-.576.144-.576.684V28h-5.904L8.388 9.208zm31.27 19.224c-6.588 0-9.252-4.032-9.252-9.684 0-5.976 3.132-9.864 9.72-9.864 6.66 0 9.252 3.96 9.252 9.468 0 6.12-3.096 10.08-9.72 10.08zm.252-3.78c2.34 0 3.78-1.62 3.78-6.12 0-4.248-1.296-5.76-3.636-5.76-2.376 0-3.96 1.476-3.96 5.796 0 4.356 1.404 6.084 3.816 6.084zm19.376.432l1.62-.216c.504-.072.575-.18.575-.72V13.6c0-.396-.108-.648-.468-.756l-1.944-.684.396-2.916h6.337l.431 2.88h.216c1.189-1.836 2.773-3.24 5.076-3.24.828 0 2.484.144 3.132.324v6.552l-4.32-.144-.36-1.908c-.072-.324-.18-.396-.468-.396-.936 0-2.052.792-2.591 1.26v9.54c0 .576.035.684.575.72l3.565.288V28H59.285v-2.916zm33.94 1.512c-2.233 1.08-4.68 1.836-7.38 1.836-6.949 0-9.325-4.32-9.325-9.936 0-6.516 3.996-9.612 8.928-9.612 4.752 0 7.92 2.484 7.92 8.712 0 .432-.036 1.692-.072 2.412H82.281c.18 2.556 1.296 4.248 4.248 4.248 1.404 0 2.916-.324 5.364-1.224l1.332 3.564zM88.04 16.588c-.036-3.024-1.224-3.816-2.7-3.816-1.548 0-2.808.864-3.024 3.816h5.724zm18.38-3.564c-.072-.324-.108-.432-.36-.504-.468-.144-1.332-.288-2.304-.288-1.8 0-2.808.684-2.808 1.836 0 1.476 1.98 1.8 4.176 2.304 2.844.648 6.048 1.656 6.048 5.868 0 4.392-3.564 6.192-8.136 6.192-3.277 0-6.48-.864-7.129-1.296v-5.22l3.852.288.361 2.052c.072.324.108.432.432.54.432.144 1.404.36 2.772.36 1.908 0 2.988-.54 2.988-1.872 0-1.44-1.44-1.872-3.276-2.196-3.024-.54-6.985-1.188-6.985-5.904 0-4.464 3.816-6.3 7.957-6.3 2.844 0 5.616.648 6.624 1.044v5.22l-3.852-.252-.36-1.872zm6.994 19.728l1.44-.216c.504-.072.648-.216.648-.756V13.6c0-.396-.072-.612-.468-.756l-1.908-.684.396-2.916h6.336l.324 1.836.18.072c1.728-1.404 4.068-2.268 6.12-2.268 4.032 0 6.912 2.52 6.912 9.216 0 4.32-1.476 10.332-7.416 10.332-1.872 0-3.564-.612-5.076-1.8v5.112c0 .576.036.684.576.72l3.672.324v2.844h-11.736v-2.88zm7.488-9.9c.792.684 2.052 1.368 3.384 1.368 2.412 0 3.42-2.304 3.42-5.832 0-3.708-1.26-5.22-3.06-5.22-1.512 0-2.952.756-3.744 1.296v8.388zm24.169 5.58c-6.588 0-9.252-4.032-9.252-9.684 0-5.976 3.132-9.864 9.72-9.864 6.66 0 9.252 3.96 9.252 9.468 0 6.12-3.096 10.08-9.72 10.08zm.252-3.78c2.34 0 3.78-1.62 3.78-6.12 0-4.248-1.296-5.76-3.636-5.76-2.376 0-3.96 1.476-3.96 5.796 0 4.356 1.404 6.084 3.816 6.084zm24.917-8.28c0-1.728-.108-3.168-1.908-3.168-1.332 0-2.988.756-3.744 1.332v9.648c0 .576.036.648.576.72l1.728.252V28h-9.936v-2.88l1.62-.216c.504-.072.576-.18.576-.72V13.6c0-.396-.108-.648-.468-.756l-1.944-.684.432-2.916h6.3l.288 1.872.144.072c1.8-1.332 3.888-2.304 6.336-2.304 3.924 0 5.436 2.16 5.436 6.12v9.18c0 .576.036.648.576.72l1.8.252V28h-7.812V16.372zm23.004 9.612l-.252-.036c-1.512 1.476-3.276 2.484-5.904 2.484-4.248 0-6.984-2.7-6.984-9.576 0-7.236 3.636-9.972 7.632-9.972 2.088 0 3.708.72 5.076 1.728V5.14c0-.36-.144-.612-.468-.72l-1.98-.684.396-2.916h7.236v23.4c0 .54.036.612.576.684l1.728.252V28h-6.696l-.36-2.016zm-.648-11.844c-.9-.612-2.052-1.08-3.096-1.08-2.664 0-3.708 2.484-3.708 5.688 0 3.492 1.008 5.436 3.276 5.436 1.224 0 2.556-.72 3.528-1.548V14.14zm21.288 11.916l-.18-.036c-1.368 1.332-3.168 2.412-6.048 2.412-4.536 0-5.256-3.096-5.256-5.328 0-3.6 2.196-5.22 6.732-5.544l4.14-.288v-1.98c0-1.692-.18-2.844-2.412-2.844-1.728 0-2.628.252-2.628 2.412l-5.076-.432c0-4.86 4.428-5.544 7.74-5.544 5.472 0 7.668 1.476 7.668 6.516v8.748c0 .576.036.648.576.72l1.728.288V28h-6.624l-.36-1.944zm-3.06-5.616c-2.124.144-2.88.684-2.88 2.124s.864 1.98 2.052 1.98c1.224 0 2.448-.684 3.276-1.296V20.26l-2.448.18zm22.384-7.416c-.072-.324-.108-.432-.36-.504-.468-.144-1.332-.288-2.304-.288-1.8 0-2.808.684-2.808 1.836 0 1.476 1.98 1.8 4.176 2.304 2.844.648 6.048 1.656 6.048 5.868 0 4.392-3.564 6.192-8.136 6.192-3.276 0-6.48-.864-7.128-1.296v-5.22l3.852.288.36 2.052c.072.324.108.432.432.54.432.144 1.404.36 2.772.36 1.908 0 2.988-.54 2.988-1.872 0-1.44-1.44-1.872-3.276-2.196-3.024-.54-6.984-1.188-6.984-5.904 0-4.464 3.816-6.3 7.956-6.3 2.844 0 5.616.648 6.624 1.044v5.22l-3.852-.252-.36-1.872zm14.051 12.6c0 1.836-1.008 2.808-3.06 2.808-2.088 0-3.096-.936-3.096-2.808 0-1.836 1.008-2.808 3.096-2.808 2.016 0 3.06.972 3.06 2.808z" fill="#8F3FB0"/><path d="M1.368 65.156l2.268-.252c.504-.072.576-.18.576-.72V45.788c0-.54-.036-.648-.576-.72l-2.268-.252v-2.88h12.204c6.66 0 8.676 3.528 8.676 7.668 0 6.264-3.78 8.784-9.864 8.784H9.756v5.76c0 .576.072.684.576.72l5.148.288V68H1.368v-2.844zm10.188-10.62c2.376 0 5.004-.54 5.004-4.608 0-3.456-2.124-4.068-4.68-4.068H9.756v8.676h1.8zm21.071 13.896c-6.588 0-9.252-4.032-9.252-9.684 0-5.976 3.132-9.864 9.72-9.864 6.66 0 9.252 3.96 9.252 9.468 0 6.12-3.096 10.08-9.72 10.08zm.252-3.78c2.34 0 3.78-1.62 3.78-6.12 0-4.248-1.296-5.76-3.636-5.76-2.376 0-3.96 1.476-3.96 5.796 0 4.356 1.404 6.084 3.816 6.084zm25.202 1.332l-.252-.036c-1.512 1.476-3.276 2.484-5.904 2.484-4.248 0-6.984-2.7-6.984-9.576 0-7.236 3.636-9.972 7.632-9.972 2.088 0 3.708.72 5.076 1.728V45.14c0-.36-.144-.612-.468-.72l-1.98-.684.396-2.916h7.236v23.4c0 .54.036.612.576.684l1.728.252V68H58.44l-.36-2.016zm-.648-11.844c-.9-.612-2.052-1.08-3.096-1.08-2.664 0-3.708 2.484-3.708 5.688 0 3.492 1.008 5.436 3.276 5.436 1.224 0 2.556-.72 3.528-1.548V54.14zm9.552 10.944l1.62-.216c.504-.072.576-.18.576-.72V53.6c0-.396-.108-.648-.468-.756l-1.944-.684.396-2.916H73.5l.432 2.88h.216c1.188-1.836 2.772-3.24 5.076-3.24.828 0 2.484.144 3.132.324v6.552l-4.32-.144-.36-1.908c-.072-.324-.18-.396-.468-.396-.936 0-2.052.792-2.592 1.26v9.54c0 .576.036.684.576.72l3.564.288V68H66.985v-2.916zm17.16.072l1.835-.252c.504-.072.576-.18.576-.72V53.6c0-.396-.108-.648-.468-.756l-1.944-.684.396-2.916h7.452v14.94c0 .576.036.648.576.72l1.836.252V68h-10.26v-2.844zm.323-19.08l5.508-6.264 2.952 2.808-6.444 5.256-2.016-1.8zm23.379 19.98l-.18-.036c-1.368 1.332-3.168 2.412-6.048 2.412-4.536 0-5.256-3.096-5.256-5.328 0-3.6 2.196-5.22 6.732-5.544l4.14-.288v-1.98c0-1.692-.18-2.844-2.412-2.844-1.728 0-2.628.252-2.628 2.412l-5.076-.432c0-4.86 4.428-5.544 7.74-5.544 5.472 0 7.668 1.476 7.668 6.516v8.748c0 .576.036.648.576.72l1.728.288V68h-6.624l-.36-1.944zm-3.06-5.616c-2.124.144-2.88.684-2.88 2.124s.864 1.98 2.052 1.98c1.224 0 2.448-.684 3.276-1.296V60.26l-2.448.18zm30.232-7.416c-.072-.324-.108-.432-.36-.504-.468-.144-1.332-.288-2.304-.288-1.8 0-2.808.684-2.808 1.836 0 1.476 1.98 1.8 4.176 2.304 2.844.648 6.048 1.656 6.048 5.868 0 4.392-3.564 6.192-8.136 6.192-3.276 0-6.48-.864-7.128-1.296v-5.22l3.852.288.36 2.052c.072.324.108.432.432.54.432.144 1.404.36 2.772.36 1.908 0 2.988-.54 2.988-1.872 0-1.44-1.44-1.872-3.276-2.196-3.024-.54-6.984-1.188-6.984-5.904 0-4.464 3.816-6.3 7.956-6.3 2.844 0 5.616.648 6.624 1.044v5.22l-3.852-.252-.36-1.872zm23.771 13.572c-2.232 1.08-4.68 1.836-7.38 1.836-6.948 0-9.324-4.32-9.324-9.936 0-6.516 3.996-9.612 8.928-9.612 4.752 0 7.92 2.484 7.92 8.712 0 .432-.036 1.692-.072 2.412h-11.016c.18 2.556 1.296 4.248 4.248 4.248 1.404 0 2.916-.324 5.364-1.224l1.332 3.564zm-5.184-10.008c-.036-3.024-1.224-3.816-2.7-3.816-1.548 0-2.808.864-3.024 3.816h5.724zm7.718 8.496l1.62-.216c.504-.072.576-.18.576-.72V53.6c0-.396-.108-.648-.468-.756l-1.944-.684.396-2.916h6.336l.432 2.88h.216c1.188-1.836 2.772-3.24 5.076-3.24.828 0 2.484.144 3.132.324v6.552l-4.32-.144-.36-1.908c-.072-.324-.18-.396-.468-.396-.936 0-2.052.792-2.592 1.26v9.54c0 .576.036.684.576.72l3.564.288V68h-11.772v-2.916zm38.909.972l-.18-.036c-1.476 1.116-3.348 2.412-6.408 2.412-3.78 0-5.22-2.16-5.22-6.336v-8.784c0-.576-.036-.648-.576-.756l-1.728-.36.36-2.952h7.38V61.16c0 2.196.36 3.024 1.908 3.024 1.584 0 2.88-.9 3.708-1.656v-9.252c0-.576-.036-.612-.576-.72l-1.548-.36.396-2.952h7.164v14.94c0 .468.072.612.504.684l1.8.252V68h-6.696l-.288-1.944zm22.178-9.684c0-1.728-.108-3.168-1.908-3.168-1.332 0-2.988.756-3.744 1.332v9.648c0 .576.036.648.576.72l1.728.252V68h-9.936v-2.88l1.62-.216c.504-.072.576-.18.576-.72V53.6c0-.396-.108-.648-.468-.756l-1.944-.684.432-2.916h6.3l.288 1.872.144.072c1.8-1.332 3.888-2.304 6.336-2.304 3.924 0 5.436 2.16 5.436 6.12v9.18c0 .576.036.648.576.72l1.8.252V68h-7.812V56.372zm21.277 9.684l-.18-.036c-1.368 1.332-3.168 2.412-6.048 2.412-4.536 0-5.256-3.096-5.256-5.328 0-3.6 2.196-5.22 6.732-5.544l4.14-.288v-1.98c0-1.692-.18-2.844-2.412-2.844-1.728 0-2.628.252-2.628 2.412l-5.076-.432c0-4.86 4.428-5.544 7.74-5.544 5.472 0 7.668 1.476 7.668 6.516v8.748c0 .576.036.648.576.72l1.728.288V68h-6.624l-.36-1.944zm-3.06-5.616c-2.124.144-2.88.684-2.88 2.124s.864 1.98 2.052 1.98c1.224 0 2.448-.684 3.276-1.296V60.26l-2.448.18zM17.676 106.596c-2.232 1.08-4.68 1.836-7.38 1.836-6.948 0-9.324-4.32-9.324-9.936 0-6.516 3.996-9.612 8.928-9.612 4.752 0 7.92 2.484 7.92 8.712 0 .432-.036 1.692-.072 2.412H6.732c.18 2.556 1.296 4.248 4.248 4.248 1.404 0 2.916-.324 5.364-1.224l1.332 3.564zm-5.184-10.008c-.036-3.024-1.224-3.816-2.7-3.816-1.548 0-2.808.864-3.024 3.816h5.724zm18.38-3.564c-.073-.324-.109-.432-.36-.504-.469-.144-1.333-.288-2.305-.288-1.8 0-2.808.684-2.808 1.836 0 1.476 1.98 1.8 4.176 2.304 2.844.648 6.048 1.656 6.048 5.868 0 4.392-3.564 6.192-8.136 6.192-3.276 0-6.48-.864-7.128-1.296v-5.22l3.852.288.36 2.052c.072.324.108.432.432.54.432.144 1.404.36 2.772.36 1.908 0 2.988-.54 2.988-1.872 0-1.44-1.44-1.872-3.276-2.196-3.024-.54-6.984-1.188-6.984-5.904 0-4.464 3.816-6.3 7.956-6.3 2.844 0 5.616.648 6.624 1.044v5.22l-3.852-.252-.36-1.872zm20.962 13.968c-1.548.756-3.816 1.44-5.868 1.44-4.284 0-5.904-1.728-5.904-5.796v-9.432c0-.216 0-.36-.288-.36h-2.52V89.64c3.168-.36 4.428-1.944 4.824-5.868h3.42v5.112c0 .252 0 .36.288.36h5.076v3.6h-5.364v8.604c0 2.124.504 2.952 2.448 2.952 1.008 0 2.052-.252 2.916-.576l.972 3.168zm13.316-.936l-.18-.036c-1.368 1.332-3.168 2.412-6.048 2.412-4.536 0-5.256-3.096-5.256-5.328 0-3.6 2.196-5.22 6.732-5.544l4.14-.288v-1.98c0-1.692-.18-2.844-2.412-2.844-1.728 0-2.628.252-2.628 2.412l-5.076-.432c0-4.86 4.428-5.544 7.74-5.544 5.472 0 7.668 1.476 7.668 6.516v8.748c0 .576.036.648.576.72l1.728.288V108H65.51l-.36-1.944zm-3.06-5.616c-2.124.144-2.88.684-2.88 2.124s.864 1.98 2.052 1.98c1.224 0 2.448-.684 3.276-1.296v-2.988l-2.448.18zm11.76 4.68l2.016-.216c.504-.072.576-.216.576-.756V93.204c0-.216 0-.36-.288-.36h-2.412v-3.6h2.7v-1.98c0-4.86 2.736-6.876 7.704-6.876 3.347 0 6.444.828 6.444 5.184l-5.04.612c.035-1.836-.468-2.268-1.656-2.268-1.8 0-2.017.972-2.017 2.7v2.268c0 .252 0 .36.288.36h5.688v3.6h-5.975v11.196c0 .576.108.684.647.72l4.392.396V108H73.85v-2.88zm26.685.936l-.18-.036c-1.368 1.332-3.169 2.412-6.049 2.412-4.535 0-5.255-3.096-5.255-5.328 0-3.6 2.195-5.22 6.731-5.544l4.14-.288v-1.98c0-1.692-.18-2.844-2.412-2.844-1.728 0-2.628.252-2.628 2.412l-5.076-.432c0-4.86 4.428-5.544 7.74-5.544 5.473 0 7.669 1.476 7.669 6.516v8.748c0 .576.036.648.576.72l1.728.288V108h-6.624l-.36-1.944zm-3.06-5.616c-2.124.144-2.88.684-2.88 2.124s.864 1.98 2.052 1.98c1.224 0 2.447-.684 3.275-1.296v-2.988l-2.447.18zm18.743 5.184c0 1.836-1.008 2.808-3.06 2.808-2.088 0-3.096-.936-3.096-2.808 0-1.836 1.008-2.808 3.096-2.808 2.016 0 3.06.972 3.06 2.808z" fill="#2B3D51"/></svg>