<svg width="160" height="57" viewBox="0 0 160 57" fill="none" xmlns="http://www.w3.org/2000/svg"><path fill="#FFBA1A" d="M0 0h160v57H0z"/><path d="M33.975 9.706v4.51c0 .242.007.491.022.748.022.25.077.477.165.682.095.205.242.374.44.506.198.125.477.187.836.187.36 0 .634-.062.825-.187.198-.132.345-.3.44-.506.095-.205.15-.433.165-.682.022-.257.033-.506.033-.748v-4.51h2.145v4.807c0 1.29-.297 2.233-.89 2.827-.588.594-1.493.891-2.718.891-1.225 0-2.134-.297-2.728-.891-.594-.594-.89-1.536-.89-2.827V9.706h2.155zM42.77 18V9.706h2.156l3.982 5.071V9.706h2.145V18h-2.145l-3.982-5.071V18h-2.156zm17.347 0l1.408-8.294h2.134l1.66 4.422 1.65-4.422h2.135L70.51 18h-2.145l-.715-4.774L65.693 18h-.858l-1.86-4.774L62.262 18h-2.145zm18.46-6.468h-2.564v1.386h2.42v1.826h-2.42v1.43h2.563V18h-4.719V9.706h4.72v1.826zM82.11 18V9.706h2.156l3.982 5.071V9.706h2.145V18h-2.145l-3.982-5.071V18H82.11zm16.556-6.171c-.234-.19-.47-.33-.704-.418a1.808 1.808 0 00-.682-.143c-.279 0-.506.066-.682.198a.617.617 0 00-.264.517c0 .147.044.268.132.363.088.095.202.18.341.253.147.066.308.125.484.176.184.051.363.106.54.165.703.235 1.216.55 1.54.946.33.389.494.898.494 1.529 0 .425-.073.81-.22 1.155-.14.345-.348.642-.627.891a2.812 2.812 0 01-1.012.561c-.396.14-.847.209-1.353.209-1.049 0-2.02-.312-2.915-.935l.924-1.738c.323.286.642.499.957.638a2.3 2.3 0 00.935.209c.352 0 .612-.08.781-.242.176-.161.264-.345.264-.55a.648.648 0 00-.286-.572 1.61 1.61 0 00-.407-.22c-.161-.066-.36-.14-.594-.22a15.582 15.582 0 01-.825-.286 2.806 2.806 0 01-.715-.429 2.082 2.082 0 01-.506-.66c-.125-.271-.187-.612-.187-1.023 0-.41.066-.781.198-1.111.14-.337.33-.623.572-.858.25-.242.55-.429.902-.561.36-.132.76-.198 1.2-.198.41 0 .839.059 1.286.176.448.11.877.275 1.287.495l-.858 1.683zm8.897 3.091l-.968-2.761-.968 2.761h1.936zm.572 1.639h-3.08L104.56 18h-2.299l3.157-8.294h2.354L110.929 18h-2.299l-.495-1.441zm9.798-6.853v5.753c0 .242-.014.466-.044.671a1.99 1.99 0 01-.121.528 2.476 2.476 0 01-.968 1.144c-.22.132-.465.235-.737.308-.264.08-.542.121-.836.121-.887 0-1.609-.407-2.167-1.221l1.408-1.441c.037.25.118.447.242.594.125.147.279.22.462.22.404 0 .605-.319.605-.957v-5.72h2.156zm8.451 1.826h-2.563v1.386h2.42v1.826h-2.42v1.43h2.563V18h-4.719V9.706h4.719v1.826zM40.521 28.853c0 .33.063.634.187.913.125.279.294.52.506.726.213.205.459.367.737.484.286.11.587.165.902.165.316 0 .613-.055.891-.165.286-.117.536-.279.748-.484a2.21 2.21 0 00.704-1.639 2.21 2.21 0 00-.704-1.639 2.203 2.203 0 00-.748-.473 2.273 2.273 0 00-.89-.176c-.316 0-.617.059-.903.176-.278.11-.524.268-.737.473a2.308 2.308 0 00-.506.726 2.21 2.21 0 00-.187.913zm-2.255 0c0-.616.114-1.188.341-1.716a4.28 4.28 0 01.946-1.397 4.266 4.266 0 011.441-.924 4.934 4.934 0 011.86-.341c.667 0 1.283.114 1.847.341.565.22 1.05.528 1.452.924a4.293 4.293 0 011.298 3.113c0 .616-.113 1.192-.34 1.727-.228.528-.547.99-.958 1.386a4.379 4.379 0 01-1.452.935c-.564.22-1.18.33-1.848.33-.674 0-1.294-.11-1.859-.33a4.406 4.406 0 01-1.44-.935 4.312 4.312 0 01-.947-1.386 4.372 4.372 0 01-.34-1.727zm17.28-2.321h-2.597v1.386h2.365v1.826H52.95V33h-2.156v-8.294h4.752v1.826zm5.42-1.826V33H58.81v-8.294h2.156zm9.686 2.772c-.499-.609-1.115-.913-1.848-.913-.323 0-.623.059-.902.176a2.155 2.155 0 00-.704.484 2.212 2.212 0 00-.473.715c-.11.279-.165.58-.165.902 0 .33.055.634.165.913.117.279.275.52.473.726.205.205.444.367.715.484.271.117.565.176.88.176.69 0 1.309-.293 1.859-.88v2.552l-.22.077c-.33.117-.638.202-.924.253a4.204 4.204 0 01-.847.088 4.375 4.375 0 01-1.65-.319 4.51 4.51 0 01-1.386-.913 4.683 4.683 0 01-.957-1.397 4.299 4.299 0 01-.363-1.771c0-.638.117-1.221.352-1.749.242-.535.561-.994.957-1.375.403-.389.869-.69 1.397-.902a4.276 4.276 0 011.661-.33c.33 0 .653.037.968.11.323.066.66.172 1.012.319v2.574zm5.5-2.772V33h-2.156v-8.294h2.156zm8.223 5.214l-.968-2.761-.968 2.761h1.936zm.572 1.639h-3.08L81.372 33h-2.3l3.158-8.294h2.354L87.74 33h-2.3l-.494-1.441zm7.873-6.853v6.468h2.585V33h-4.741v-8.294h2.156zm13.553 6.468h.495a2.68 2.68 0 001.001-.176 2.084 2.084 0 001.199-1.21c.11-.286.165-.598.165-.935 0-.33-.055-.638-.165-.924a2.092 2.092 0 00-.473-.737 2.084 2.084 0 00-.737-.484 2.652 2.652 0 00-.99-.176h-.495v4.642zm-2.156-6.468h3.19a3.73 3.73 0 011.584.341c.498.227.931.532 1.298.913.374.374.667.814.88 1.32a4.033 4.033 0 010 3.146 4.102 4.102 0 01-.869 1.32c-.367.381-.8.686-1.298.913a3.754 3.754 0 01-1.595.341h-3.19v-8.294zm15.346 1.826H117v1.386h2.42v1.826H117v1.43h2.563V33h-4.719v-8.294h4.719v1.826zM43.256 48l1.408-8.294h2.134l1.66 4.422 1.65-4.422h2.135L53.65 48h-2.145l-.715-4.774L48.833 48h-.858l-1.86-4.774L45.402 48h-2.145zm18.46-6.468h-2.563v1.386h2.42v1.826h-2.42v1.43h2.563V48h-4.72v-8.294h4.72v1.826zm5.69 4.642h.495c.374 0 .708-.059 1.001-.176a2.081 2.081 0 001.2-1.21c.11-.286.164-.598.164-.935 0-.33-.055-.638-.165-.924a2.088 2.088 0 00-.473-.737 2.081 2.081 0 00-.737-.484 2.647 2.647 0 00-.99-.176h-.495v4.642zm-2.156-6.468h3.19c.565 0 1.093.114 1.584.341.499.227.931.532 1.298.913.374.374.667.814.88 1.32a3.97 3.97 0 01.32 1.573c0 .543-.107 1.067-.32 1.573a4.092 4.092 0 01-.869 1.32c-.367.381-.8.686-1.298.913A3.752 3.752 0 0168.44 48h-3.19v-8.294zm12.784 0V48h-2.157v-8.294h2.157zm9.685 2.772c-.498-.609-1.114-.913-1.848-.913-.322 0-.623.059-.902.176a2.155 2.155 0 00-.704.484 2.21 2.21 0 00-.473.715c-.11.279-.165.58-.165.902 0 .33.055.634.165.913.117.279.275.52.473.726.206.205.444.367.715.484.271.117.565.176.88.176.69 0 1.31-.293 1.86-.88v2.552l-.22.077c-.33.117-.639.202-.925.253a4.204 4.204 0 01-.847.088 4.375 4.375 0 01-1.65-.319 4.507 4.507 0 01-1.386-.913 4.683 4.683 0 01-.957-1.397 4.299 4.299 0 01-.363-1.771c0-.638.118-1.221.352-1.749.242-.535.561-.994.957-1.375.404-.389.87-.69 1.397-.902a4.276 4.276 0 011.661-.33c.33 0 .653.037.968.11.323.066.66.172 1.012.319v2.574zm8.047 2.442l-.968-2.761-.968 2.761h1.936zm.572 1.639h-3.08L92.763 48h-2.299l3.157-8.294h2.355L99.132 48h-2.299l-.495-1.441zm7.874-3.146h.407c.425 0 .751-.088.979-.264.227-.176.341-.429.341-.759s-.114-.583-.341-.759c-.228-.176-.554-.264-.979-.264h-.407v2.046zM108.953 48h-2.684l-2.057-3.19V48h-2.156v-8.294h3.355c.462 0 .865.07 1.21.209.344.132.627.315.847.55.227.235.396.506.506.814.117.308.176.638.176.99 0 .63-.154 1.144-.462 1.54-.301.389-.748.653-1.342.792L108.953 48zm7.601-6.468h-2.563v1.386h2.42v1.826h-2.42v1.43h2.563V48h-4.719v-8.294h4.719v1.826z" fill="#0B2E54"/></svg>