<svg width="144" height="51" viewBox="0 0 144 51" fill="none" xmlns="http://www.w3.org/2000/svg"><path d="M17.142 18V4.203h4.644v1.593c1.269-1.485 2.781-1.863 4.158-1.863 3.483 0 4.833 2.052 4.833 6.102V18h-4.914v-7.344c0-1.566-.594-2.133-1.539-2.133-1.512 0-2.268 1.269-2.268 2.97V18h-4.914zm20.55.27c-4.159 0-5.023-2.592-5.023-6.102V4.203h4.914v7.344c0 1.458.486 2.133 1.782 2.133 1.485 0 2.025-1.269 2.025-2.97V4.203h4.914V18H41.66v-1.512c-.756.972-2.538 1.782-3.969 1.782zM48.465 18V4.203h4.644v1.593c1.27-1.485 2.781-1.863 4.158-1.863 3.483 0 4.833 2.052 4.833 6.102V18h-4.914v-7.344c0-1.566-.594-2.133-1.539-2.133-1.512 0-2.268 1.269-2.268 2.97V18h-4.914zm22.844.27c-4.239 0-7.452-3.186-7.452-7.155 0-3.996 3.213-7.182 7.452-7.182 1.89 0 3.43.567 4.887 1.728l-2.835 3.402c-.513-.486-1.08-.81-1.917-.81-1.593 0-2.619 1.215-2.619 2.862 0 1.674 1 2.835 2.727 2.835.945 0 1.728-.405 2.322-.999l2.457 3.618c-1.323 1.107-3.078 1.701-5.022 1.701zm11.592 0c-3.834 0-5.913-3.186-5.913-7.155 0-3.996 2.08-7.182 5.913-7.182 1.107 0 2.943.378 3.753 1.809V4.203H91.3V18h-4.644v-1.539c-.756 1.404-2.646 1.809-3.753 1.809zm1.296-4.32c1.296 0 2.214-1.161 2.214-2.835 0-1.647-.918-2.862-2.214-2.862-1.296 0-2.214 1.215-2.214 2.862 0 1.674.918 2.835 2.214 2.835zM99.434 18V.234h4.914V18h-4.914zm14.248.27c-4.239 0-7.452-3.186-7.452-7.155 0-3.996 3.213-7.182 7.452-7.182s7.452 3.186 7.452 7.182c0 3.969-3.213 7.155-7.452 7.155zm0-4.32c1.458 0 2.484-1.161 2.484-2.835 0-1.647-1.026-2.862-2.484-2.862s-2.484 1.215-2.484 2.862c0 1.674 1.026 2.835 2.484 2.835zM7.542 47.27c-4.24 0-7.453-3.186-7.453-7.155 0-3.996 3.213-7.182 7.452-7.182 1.89 0 3.43.567 4.887 1.728l-2.835 3.402c-.513-.486-1.08-.81-1.917-.81-1.593 0-2.619 1.215-2.619 2.862 0 1.674 1 2.835 2.727 2.835.945 0 1.728-.405 2.322-.999l2.457 3.618c-1.323 1.107-3.078 1.701-5.022 1.701zm13.13 0c-4.239 0-7.452-3.186-7.452-7.155 0-3.996 3.213-7.182 7.452-7.182 4.24 0 7.452 3.186 7.452 7.182 0 3.969-3.213 7.155-7.452 7.155zm0-4.32c1.458 0 2.484-1.161 2.484-2.835 0-1.647-1.026-2.862-2.484-2.862s-2.484 1.215-2.484 2.862c0 1.674 1.026 2.835 2.484 2.835zm9.35 4.05V33.203h4.644v1.512c1.026-1.161 2.62-1.782 4.158-1.782 2.214 0 3.402.891 4.05 2.133 1.188-1.728 3.024-2.133 4.401-2.133 4.455 0 4.833 3.591 4.833 6.372V47h-4.914v-7.128c0-1.647-.459-2.403-1.539-2.403-1.458 0-2.133 1.323-2.133 3.024V47h-4.914v-7.128c0-1.647-.459-2.403-1.539-2.403-1.458 0-2.133 1.323-2.133 3.024V47h-4.914zm24.1 3.969V33.203h4.644v1.539c1.107-1.485 2.646-1.809 3.753-1.809 3.834 0 5.913 3.186 5.913 7.155 0 3.996-2.214 7.182-6.075 7.182-1.107 0-2.484-.378-3.321-1.431v5.13h-4.914zm7.074-8.019c1.296 0 2.214-1.161 2.214-2.835 0-1.647-.918-2.862-2.214-2.862-1.296 0-2.214 1.215-2.214 2.862 0 1.674.918 2.835 2.214 2.835zm14.758 4.32c-3.834 0-5.913-3.186-5.913-7.155 0-3.996 2.08-7.182 5.913-7.182 1.107 0 2.943.378 3.753 1.809v-1.539h4.644V47h-4.644v-1.539c-.756 1.404-2.646 1.809-3.753 1.809zm1.296-4.32c1.296 0 2.214-1.161 2.214-2.835 0-1.647-.918-2.862-2.214-2.862-1.296 0-2.214 1.215-2.214 2.862 0 1.674.918 2.835 2.214 2.835zM86.5 47V33.203h4.78v2.457c.08-.594 1.269-2.727 4.509-2.727v5.346c-3.564 0-4.374 1.485-4.374 4.077V47H86.5zm16.952.27c-2.646 0-4.374-1.701-4.374-4.725v-5.454h-2.025v-3.888h2.025v-2.484l4.914-1.215v3.699h3.051v3.888h-3.051v5.076c0 .648.324.864.756.864.405 0 .891-.189 1.242-.432l1.323 3.591c-1.188.837-2.646 1.08-3.861 1.08zm10.788 0c-3.834 0-5.913-3.186-5.913-7.155 0-3.996 2.079-7.182 5.913-7.182 1.107 0 2.943.378 3.753 1.809v-1.539h4.644V47h-4.644v-1.539c-.756 1.404-2.646 1.809-3.753 1.809zm1.296-4.32c1.296 0 2.214-1.161 2.214-2.835 0-1.647-.918-2.862-2.214-2.862-1.296 0-2.214 1.215-2.214 2.862 0 1.674.918 2.835 2.214 2.835zm14.326 4.32c-3.159 0-4.914-.945-5.724-1.647l1.566-3.456c1.08.729 2.079 1.161 4.185 1.161.054 0 1.35-.081 1.35-.621 0-.432-.81-.513-1.62-.702-2.997-.729-5.211-1.944-5.211-4.482 0-3.024 2.754-4.59 5.67-4.59 2.673 0 4.266.594 5.589 1.296l-1.458 3.294c-1.593-.621-3.051-.81-3.969-.81-.486 0-.864.162-.864.432 0 .513 1.161.702 2.538 1.08 1.944.567 4.293 1.512 4.293 4.293 0 3.699-3.753 4.752-6.345 4.752zm10.838 0c-1.539 0-2.673-1.161-2.673-2.646 0-1.485 1.134-2.646 2.673-2.646 1.566 0 2.727 1.161 2.727 2.646 0 1.485-1.161 2.646-2.727 2.646z" fill="#0B2E54"/></svg>