<svg width="128" height="12" viewBox="0 0 128 12" fill="none" xmlns="http://www.w3.org/2000/svg"><path d="M6.441 6.38H1.49c.072.433.262.779.573 1.034.31.256.706.384 1.188.384.576 0 1.071-.2 1.486-.6l1.298.605a3.053 3.053 0 01-1.163 1.012c-.452.22-.988.328-1.609.328-.963 0-1.748-.301-2.354-.905C.304 7.634 0 6.878 0 5.97 0 5.06.302 4.266.906 3.65c.604-.615 1.362-.922 2.273-.922.967 0 1.754.308 2.36.922.606.615.91 1.427.91 2.436l-.006.292-.002.001zm-1.54-1.206a1.532 1.532 0 00-.603-.829c-.3-.213-.647-.32-1.043-.32-.43 0-.807.12-1.131.359-.204.15-.393.412-.567.79H4.9zM11.247 3.739l-.954.947c-.387-.382-.74-.572-1.055-.572-.173 0-.31.036-.407.109a.326.326 0 00-.146.272.33.33 0 00.093.226c.062.07.215.164.46.283l.565.28c.594.292 1.003.589 1.225.891.221.303.333.658.333 1.065 0 .543-.2.995-.601 1.357-.401.363-.939.543-1.612.543-.896 0-1.61-.348-2.146-1.043l.948-1.026c.18.209.392.378.635.507s.459.194.647.194c.204 0 .367-.049.49-.146.125-.096.187-.209.187-.336 0-.236-.224-.466-.671-.69l-.52-.257c-.994-.498-1.49-1.12-1.49-1.867 0-.482.187-.894.562-1.236.374-.343.854-.513 1.436-.513a2.512 2.512 0 012.022 1.009l-.001.003zM12.86 7.388a.86.86 0 01.627.256c.173.17.26.376.26.619a.846.846 0 01-.26.623.858.858 0 01-.627.257.86.86 0 01-.627-.257.846.846 0 01-.26-.623c0-.243.087-.45.26-.62a.86.86 0 01.627-.255zM16.228.74h1.54l1.927 5.753L21.637.74h1.54l1.395 8.248h-1.528l-.89-5.209-1.766 5.209h-1.395l-1.748-5.209-.911 5.209H14.79L16.228.74zM31.757 6.381h-4.952c.07.435.262.779.573 1.035.31.256.706.384 1.19.384.575 0 1.07-.2 1.485-.6l1.3.606a3.06 3.06 0 01-1.165 1.013c-.452.219-.988.328-1.61.328-.963 0-1.747-.302-2.355-.906-.605-.604-.909-1.36-.909-2.267 0-.907.301-1.704.906-2.317.605-.614 1.363-.922 2.273-.922.967 0 1.754.308 2.36.922.606.616.91 1.426.91 2.435l-.006.291h-.003l.003-.002zm-1.542-1.205a1.538 1.538 0 00-.603-.83c-.3-.213-.647-.32-1.043-.32-.43 0-.807.12-1.133.359-.203.15-.393.413-.566.79h3.345zM37.4.531h1.542v8.455H37.4v-.645c-.3.284-.602.49-.905.614a2.56 2.56 0 01-.984.188c-.794 0-1.48-.305-2.059-.916-.579-.61-.87-1.37-.87-2.28 0-.908.28-1.713.842-2.316.56-.601 1.24-.903 2.041-.903.37 0 .715.07 1.038.207.324.137.622.346.896.623V.53h.001zM35.78 4.143c-.477 0-.873.166-1.188.501-.314.335-.473.764-.473 1.287 0 .524.16.96.481 1.3.32.34.714.51 1.184.51s.886-.166 1.204-.502c.32-.334.478-.772.478-1.315 0-.544-.16-.96-.478-1.29-.319-.328-.72-.493-1.21-.493v.002h.002zM41.122.375c.27 0 .502.098.695.291.193.195.29.43.29.707a.95.95 0 01-.288.698.938.938 0 01-.686.29.958.958 0 01-.7-.295.984.984 0 01-.291-.715c0-.28.095-.5.286-.69a.947.947 0 01.692-.286h.002zm-.77 2.511h1.541v6.1h-1.542v-6.1zM49.261 4.121l-1.283.702c-.24-.25-.48-.423-.714-.521a2.15 2.15 0 00-.829-.146c-.576 0-1.043.169-1.399.511-.355.341-.534.779-.534 1.312 0 .534.17.942.515 1.272.343.328.794.493 1.352.493.689 0 1.226-.235 1.61-.702l1.215.826c-.66.851-1.589 1.277-2.79 1.277-1.082 0-1.927-.318-2.539-.954-.611-.635-.918-1.379-.918-2.231a3.133 3.133 0 011.69-2.804 3.738 3.738 0 011.787-.426c.61 0 1.158.121 1.643.362.486.24.883.584 1.19 1.03v.002l.004-.003zM54.618 2.886h1.542v6.1h-1.542V8.34c-.301.284-.603.49-.905.614a2.56 2.56 0 01-.985.188c-.793 0-1.479-.306-2.058-.917-.58-.61-.87-1.37-.87-2.279 0-.908.28-1.713.841-2.316.56-.602 1.24-.903 2.042-.903.369 0 .714.069 1.038.206.323.138.621.347.896.623v-.673.002h.001zm-1.622 1.256c-.476 0-.873.166-1.187.502-.315.334-.473.763-.473 1.287 0 .523.16.96.48 1.3.32.34.715.51 1.185.51.47 0 .886-.167 1.204-.502.319-.335.477-.773.477-1.316s-.16-.96-.477-1.29c-.32-.328-.721-.493-1.21-.493v.002h.001zM57.468 2.886h1.321v.77c.142-.303.334-.534.57-.69.238-.157.497-.236.78-.236.2 0 .408.052.627.156l-.48 1.317c-.182-.09-.329-.134-.445-.134-.237 0-.438.146-.602.437-.164.292-.246.864-.246 1.716l.006.299v2.467h-1.53V2.886h-.002zM67.363 6.381h-4.951c.07.435.262.779.572 1.035.31.256.707.384 1.19.384.576 0 1.071-.2 1.486-.6l1.299.606a3.06 3.06 0 01-1.164 1.013c-.452.219-.988.328-1.61.328-.964 0-1.748-.302-2.355-.906-.606-.604-.91-1.36-.91-2.267 0-.907.302-1.704.907-2.317.605-.614 1.362-.922 2.273-.922.967 0 1.754.308 2.36.922.605.616.909 1.426.909 2.435l-.006.291h-.002l.002-.002zm-1.542-1.205a1.538 1.538 0 00-.602-.83c-.3-.212-.647-.32-1.044-.32-.43 0-.806.12-1.132.359-.204.15-.393.413-.566.79h3.344zM68.952 7.39c.244 0 .454.085.627.255.173.17.26.377.26.62a.848.848 0 01-.26.622.86.86 0 01-.627.257.86.86 0 01-.627-.257.844.844 0 01-.26-.623c0-.244.087-.449.26-.62a.866.866 0 01.627-.254zM75.491 2.886h1.537v5.225c0 1.031-.209 1.79-.627 2.276-.56.658-1.406.988-2.536.988-.603 0-1.108-.074-1.52-.223a2.71 2.71 0 01-1.038-.66 2.691 2.691 0 01-.627-1.055h1.7c.15.171.343.301.581.39.237.088.519.131.842.131.413 0 .747-.064 1-.19.252-.128.429-.292.533-.493.103-.202.156-.55.156-1.043-.271.27-.556.463-.852.581a2.73 2.73 0 01-1.01.177c-.826 0-1.522-.295-2.09-.886-.567-.591-.852-1.338-.852-2.243 0-.967.301-1.746.903-2.333a2.705 2.705 0 011.953-.796c.354 0 .688.064 1.002.194.315.13.63.34.945.636v-.676zM73.894 4.16c-.487 0-.886.162-1.203.484-.317.323-.474.73-.474 1.22s.163.925.486 1.25c.323.324.73.487 1.22.487s.873-.159 1.182-.476c.31-.318.466-.735.466-1.25s-.156-.922-.47-1.24c-.311-.318-.714-.476-1.207-.476v.001zM81.375 2.73c.58 0 1.125.145 1.635.433.51.288.909.677 1.194 1.172.286.493.43 1.026.43 1.598 0 .572-.145 1.114-.433 1.615a3.092 3.092 0 01-1.177 1.174 3.265 3.265 0 01-1.643.423c-.88 0-1.633-.31-2.257-.933-.623-.623-.934-1.378-.934-2.268 0-.953.352-1.747 1.055-2.383.617-.554 1.326-.83 2.13-.83l.001-.002v.001zm.026 1.442c-.48 0-.877.165-1.197.496-.319.332-.477.754-.477 1.271 0 .517.157.96.473 1.29.315.33.713.493 1.196.493s.884-.166 1.204-.5c.32-.333.481-.76.481-1.283 0-.524-.157-.95-.473-1.275-.314-.327-.716-.492-1.207-.492zM84.788 2.887h1.57l1.553 3.6 1.548-3.6h1.562l-2.614 6.099h-1l-2.62-6.1h.002-.001zM91.267 10.464l3.75-10.01h1.109l-3.756 10.01h-1.103zM97.734.69h4.6v1.54h-3.021v1.506h1.963v1.517h-1.963v3.733h-1.579V.69.69zM103.145 2.85h1.329v.772a1.66 1.66 0 01.574-.694c.238-.158.499-.236.784-.236.201 0 .411.053.63.158l-.483 1.326c-.181-.09-.331-.136-.448-.136-.238 0-.44.147-.605.44-.165.294-.247.87-.247 1.726l.005.3v2.481h-1.538V2.85h-.001zM111.789 2.85h1.551v6.137h-1.551v-.649a3.02 3.02 0 01-.91.617c-.305.127-.635.19-.99.19-.798 0-1.489-.307-2.071-.922-.583-.615-.874-1.38-.874-2.293 0-.913.282-1.723.845-2.33.564-.605 1.249-.908 2.054-.908.371 0 .719.07 1.044.209.325.14.625.347.901.626V2.85h.001zm-1.629 1.264c-.48 0-.877.168-1.194.505-.317.337-.475.768-.475 1.295 0 .527.161.967.484 1.309.322.342.72.513 1.192.513.471 0 .89-.168 1.211-.504.322-.337.481-.778.481-1.323 0-.544-.16-.965-.481-1.297-.321-.33-.726-.496-1.217-.496l-.001-.002zM114.902 2.85h1.568v2.955c0 .576.039.975.119 1.2.08.223.208.397.385.52.176.124.393.187.652.187s.477-.062.658-.184c.181-.122.315-.302.401-.54.064-.176.096-.554.096-1.133V2.848h1.551v2.6c0 1.072-.085 1.806-.256 2.2-.208.483-.515.851-.92 1.11-.406.257-.921.386-1.545.386-.678 0-1.227-.151-1.644-.451-.419-.3-.713-.72-.883-1.258-.121-.371-.182-1.049-.182-2.03V2.85zM126.449.48H128v8.506h-1.551v-.65a3.02 3.02 0 01-.91.618 2.56 2.56 0 01-.991.189c-.797 0-1.488-.307-2.07-.922-.583-.615-.874-1.38-.874-2.292 0-.913.281-1.724.845-2.33.564-.605 1.249-.909 2.054-.909.371 0 .719.07 1.043.21.326.14.626.347.902.625V.48l.001.002zm-1.629 3.633c-.48 0-.878.168-1.194.505-.317.336-.476.767-.476 1.294s.162.967.484 1.31c.323.341.72.513 1.192.513s.891-.168 1.212-.505c.321-.336.481-.778.481-1.322 0-.545-.161-.966-.481-1.297-.321-.331-.726-.496-1.217-.496l-.001-.002z" fill="#fff"/></svg>