<svg width="133" height="11" viewBox="0 0 133 11" fill="none" xmlns="http://www.w3.org/2000/svg"><path d="M6.693 6.005H1.548c.075.434.273.779.595 1.034.322.256.735.384 1.235.384.599 0 1.113-.2 1.544-.6l1.349.606A3.14 3.14 0 015.062 8.44c-.47.218-1.027.327-1.671.327-1.002 0-1.816-.301-2.446-.905C.315 7.26 0 6.503 0 5.595c0-.909.314-1.704.942-2.319.627-.615 1.414-.922 2.361-.922 1.005 0 1.822.308 2.452.922.63.615.945 1.427.945 2.437l-.006.291v.001zM5.093 4.8a1.537 1.537 0 00-.627-.83 1.87 1.87 0 00-1.084-.32c-.447 0-.838.12-1.176.359-.211.15-.407.412-.588.79H5.092zM11.686 3.364l-.99.947c-.404-.382-.77-.572-1.098-.572-.18 0-.32.036-.422.109a.322.322 0 00-.152.272c0 .082.032.158.097.226.064.07.223.164.477.283l.587.28c.618.292 1.043.589 1.273.891.23.303.347.658.347 1.065 0 .542-.208.995-.625 1.356-.417.363-.975.544-1.675.544-.931 0-1.673-.348-2.23-1.043l.986-1.026c.188.209.407.378.66.507.252.129.476.193.672.193.211 0 .38-.048.51-.145.128-.097.193-.209.193-.336 0-.236-.233-.466-.698-.69l-.54-.257C8.027 5.47 7.51 4.848 7.51 4.1c0-.482.195-.894.584-1.237.389-.342.887-.512 1.493-.512.414 0 .804.087 1.17.26.367.174.676.424.93.749v.003zM13.362 7.013c.255 0 .472.085.652.256.18.17.269.376.269.619a.83.83 0 01-.27.623.91.91 0 01-.65.257.911.911 0 01-.652-.257.83.83 0 01-.27-.623c0-.243.09-.45.27-.62a.912.912 0 01.651-.255zM16.862.365h1.6l2.002 5.753L22.483.365h1.6l1.449 8.248h-1.588l-.925-5.209-1.835 5.209h-1.449L17.92 3.404l-.947 5.209h-1.604L16.862.365zM32.997 6.006h-5.145c.074.435.273.779.595 1.035.322.255.735.384 1.236.384.599 0 1.113-.2 1.544-.6l1.35.606a3.148 3.148 0 01-1.21 1.013c-.47.219-1.026.328-1.672.328-1.002 0-1.816-.302-2.447-.906-.63-.604-.945-1.36-.945-2.267 0-.907.313-1.704.941-2.318.629-.613 1.416-.921 2.362-.921 1.005 0 1.822.308 2.452.921.63.616.945 1.427.945 2.436l-.006.291h-.002l.002-.002zm-1.602-1.205a1.542 1.542 0 00-.626-.83 1.87 1.87 0 00-1.084-.32c-.447 0-.838.12-1.177.359-.212.15-.409.413-.588.79h3.475zM38.861.156h1.603v8.455H38.86v-.644c-.313.283-.626.489-.94.613a2.751 2.751 0 01-1.023.188c-.824 0-1.537-.305-2.139-.916-.602-.61-.903-1.37-.903-2.28 0-.908.29-1.713.873-2.316a2.84 2.84 0 012.122-.903c.383 0 .742.07 1.078.207.336.138.646.347.931.623V.156h.001zm-1.685 3.612c-.495 0-.907.166-1.233.501-.327.335-.492.764-.492 1.287 0 .524.167.96.5 1.3.332.34.742.51 1.23.51s.92-.166 1.251-.502c.332-.334.496-.772.496-1.315 0-.544-.166-.96-.496-1.29-.331-.328-.75-.493-1.257-.493v.002h.001zM42.729 0c.28 0 .521.098.721.292.2.194.302.43.302.706 0 .276-.1.506-.3.698a.994.994 0 01-.712.29c-.276 0-.528-.098-.728-.295a.966.966 0 01-.302-.715c0-.28.1-.5.297-.69.2-.19.439-.286.72-.286h.002zm-.801 2.511h1.602v6.1h-1.602v-6.1zM51.185 3.746l-1.333.702c-.25-.25-.498-.423-.742-.521a2.312 2.312 0 00-.86-.146c-.6 0-1.085.169-1.455.511-.369.341-.554.779-.554 1.312 0 .534.177.942.535 1.272.355.328.824.493 1.404.493.716 0 1.274-.234 1.674-.702l1.261.826c-.685.851-1.65 1.277-2.9 1.277-1.123 0-2-.318-2.636-.954-.636-.635-.954-1.379-.954-2.231 0-.591.155-1.135.462-1.632a3.24 3.24 0 011.294-1.172c.553-.284 1.173-.426 1.857-.426.634 0 1.202.121 1.707.362.505.24.917.584 1.237 1.03v.002l.003-.003zM56.752 2.511h1.602v6.1h-1.602v-.645c-.314.284-.627.49-.94.614a2.752 2.752 0 01-1.024.188c-.824 0-1.537-.306-2.139-.916-.602-.61-.903-1.371-.903-2.28 0-.908.29-1.713.873-2.316a2.84 2.84 0 012.122-.903c.383 0 .742.069 1.078.207.336.137.646.346.931.622V2.51v.002h.002zm-1.686 1.256c-.494 0-.907.166-1.233.502-.327.334-.492.763-.492 1.287 0 .524.167.96.5 1.3.332.34.742.51 1.23.51s.92-.167 1.251-.502c.332-.335.496-.772.496-1.316 0-.543-.165-.96-.496-1.29-.331-.328-.75-.493-1.257-.493v.002h.002zM59.713 2.511h1.373v.77c.147-.303.346-.534.593-.69.246-.157.515-.236.809-.236.207 0 .425.052.651.156l-.498 1.317c-.189-.09-.342-.134-.463-.134-.246 0-.454.146-.625.437-.17.292-.255.864-.255 1.716l.006.299v2.467h-1.59V2.51h-.002zM69.995 6.006H64.85c.074.435.273.779.595 1.035.322.255.734.384 1.236.384.599 0 1.113-.2 1.544-.6l1.35.606a3.148 3.148 0 01-1.21 1.013c-.47.219-1.026.328-1.672.328-1.002 0-1.817-.302-2.447-.906-.63-.604-.945-1.36-.945-2.267 0-.907.313-1.704.941-2.318.629-.613 1.416-.921 2.362-.921 1.005 0 1.822.308 2.452.921.63.616.945 1.427.945 2.436l-.006.291h-.002l.002-.002zm-1.602-1.205a1.543 1.543 0 00-.626-.83 1.877 1.877 0 00-1.085-.32c-.446 0-.838.12-1.176.359-.212.15-.409.413-.588.79h3.475zM71.646 7.015c.253 0 .472.085.651.255.18.17.27.377.27.62 0 .241-.09.45-.27.622a.911.911 0 01-.651.257.911.911 0 01-.652-.257.828.828 0 01-.27-.623.82.82 0 01.27-.62.918.918 0 01.652-.254zM78.44 2.511h1.596v5.225c0 1.031-.216 1.79-.651 2.276-.583.658-1.46.988-2.635.988-.626 0-1.15-.074-1.579-.223a2.83 2.83 0 01-1.078-.66 2.674 2.674 0 01-.652-1.055h1.766c.156.171.357.301.604.39.246.088.539.131.875.131.43 0 .776-.064 1.038-.19.263-.128.447-.292.555-.493.107-.202.162-.55.162-1.043-.282.27-.578.463-.885.581-.31.118-.658.177-1.05.177-.858 0-1.581-.295-2.172-.886-.589-.591-.885-1.338-.885-2.243 0-.967.313-1.746.938-2.333a2.869 2.869 0 012.03-.796c.368 0 .714.064 1.041.194.327.13.655.34.982.636V2.51zm-1.66 1.274c-.505 0-.92.162-1.25.484-.329.323-.492.73-.492 1.22s.169.925.505 1.25c.336.324.758.487 1.267.487.509 0 .907-.159 1.228-.476.323-.318.485-.735.485-1.25s-.162-.922-.488-1.24c-.324-.318-.743-.476-1.255-.476v.001zM84.554 2.355c.602 0 1.168.146 1.699.433.53.288.944.677 1.24 1.172.298.493.446 1.027.446 1.599 0 .572-.15 1.113-.449 1.614-.299.502-.707.894-1.223 1.174a3.496 3.496 0 01-1.707.424c-.915 0-1.697-.312-2.345-.934-.648-.623-.971-1.378-.971-2.267 0-.954.366-1.748 1.097-2.384a3.285 3.285 0 012.212-.83l.002-.002v.001zm.027 1.442c-.499 0-.912.165-1.243.497-.332.33-.497.753-.497 1.27s.164.96.492 1.29c.327.33.741.493 1.243.493.502 0 .919-.166 1.251-.5.333-.333.5-.76.5-1.283 0-.524-.164-.95-.492-1.275-.327-.327-.744-.492-1.254-.492zM88.1 2.512h1.632l1.613 3.6 1.609-3.6h1.623l-2.716 6.1h-1.039l-2.723-6.1h.002zM94.833 10.09L98.729.077h1.152l-3.903 10.011h-1.145zM101.552.315h4.779v1.54h-3.139v1.506h2.04v1.517h-2.04V8.61h-1.64V.314v.001zM107.174 2.475h1.381v.772c.15-.304.349-.535.596-.694.248-.158.519-.236.815-.236.208 0 .427.053.655.158l-.502 1.326c-.189-.09-.344-.136-.466-.136-.247 0-.457.147-.628.44-.172.294-.257.87-.257 1.726l.006.3v2.481h-1.599V2.475h-.001zM116.156 2.475h1.612v6.137h-1.612v-.649a3.139 3.139 0 01-.946.617c-.316.127-.659.19-1.029.19-.829 0-1.547-.307-2.151-.922-.606-.615-.908-1.38-.908-2.293 0-.913.292-1.723.878-2.33a2.86 2.86 0 012.134-.908 2.804 2.804 0 012.021.835v-.677h.001zm-1.693 1.264c-.498 0-.912.168-1.241.505-.329.337-.494.768-.494 1.295 0 .527.169.967.503 1.309.335.342.749.513 1.239.513.49 0 .925-.168 1.259-.504.334-.337.5-.778.5-1.323 0-.544-.167-.965-.5-1.297-.334-.33-.755-.496-1.265-.496l-.001-.002zM119.39 2.475h1.629V5.43c0 .576.042.975.124 1.2.083.223.217.398.4.52.183.124.408.187.678.187.269 0 .496-.062.683-.184.188-.122.327-.301.417-.539.067-.177.1-.554.1-1.134V2.474h1.612v2.6c0 1.071-.089 1.805-.266 2.2a2.43 2.43 0 01-.957 1.109c-.421.257-.956.386-1.605.386-.705 0-1.275-.15-1.708-.451-.436-.3-.741-.72-.918-1.257-.125-.372-.189-1.05-.189-2.031V2.475zM131.389.106H133V8.61h-1.611v-.65c-.315.287-.63.492-.947.618-.316.126-.659.189-1.029.189-.828 0-1.547-.307-2.151-.922-.605-.615-.908-1.38-.908-2.292 0-.913.292-1.724.878-2.33a2.86 2.86 0 012.134-.909 2.8 2.8 0 011.084.21c.339.14.651.347.937.625V.104l.002.002zm-1.694 3.632c-.498 0-.911.168-1.24.505-.33.336-.494.767-.494 1.294s.168.967.503 1.31c.335.341.748.513 1.238.513.491 0 .926-.168 1.26-.505.333-.336.499-.778.499-1.322 0-.545-.167-.966-.499-1.297-.334-.331-.756-.496-1.265-.496l-.002-.002z" fill="#fff"/></svg>