<svg width="142" height="52" viewBox="0 0 142 52" fill="none" xmlns="http://www.w3.org/2000/svg"><rect x="2" y="2" width="138" height="48" rx="4" fill="#2B3D51"/><rect x="1" y="1" width="140" height="50" rx="5" stroke="#fff" stroke-opacity=".5" stroke-width="2"/><path d="M24.012 23V11.64h4.368c1.258 0 2.309.256 3.152.768a4.8 4.8 0 011.92 2.048c.437.853.656 1.803.656 2.848 0 1.152-.24 2.155-.72 3.008a4.908 4.908 0 01-2 1.984c-.854.47-1.856.704-3.008.704h-4.368zm6.928-5.696c0-.587-.102-1.099-.304-1.536a2.346 2.346 0 00-.88-1.04c-.384-.245-.843-.368-1.376-.368h-1.248v5.92h1.248c.544 0 1.002-.128 1.376-.384a2.45 2.45 0 00.88-1.056 3.76 3.76 0 00.304-1.536zm13.74 2.976V23h-8.095V11.64h7.952v2.72h-4.832v1.6h4.128v2.528h-4.128v1.792h4.976zm11.42-5.92h-3.264V23h-3.12v-8.64h-3.28v-2.72H56.1v2.72zm10.352 5.92V23h-8.096V11.64h7.952v2.72h-4.832v1.6h4.128v2.528h-4.128v1.792h4.976zm-3.056-9.12l-1.92-.512.8-2.272h2.704l-1.584 2.784zm8.747 6.256V23h-3.12V11.64h2.432l4.56 5.776V11.64h3.12V23h-2.48l-4.512-5.584zM86.919 23V11.64h3.12v8.64h5.152V23H86.92zm13.104-11.36h3.488L107.127 23h-3.168l-.688-2.224h-3.024L99.575 23H96.39l3.632-11.36zm2.752 7.056l-1.008-4-1.056 4h2.064zm13.17-3.344l-.272-.16a6.48 6.48 0 00-.72-.352 7.406 7.406 0 00-.976-.368 3.57 3.57 0 00-1.04-.16c-.266 0-.485.043-.656.128-.17.085-.256.23-.256.432a.54.54 0 00.256.464c.171.117.411.224.72.32.32.096.699.213 1.136.352a9.82 9.82 0 011.824.736c.512.277.907.635 1.184 1.072.278.427.416.997.416 1.712 0 .683-.122 1.259-.368 1.728a3.002 3.002 0 01-.992 1.104 4.42 4.42 0 01-1.392.608 6.995 6.995 0 01-1.568.176 9.749 9.749 0 01-1.712-.16 13.09 13.09 0 01-1.712-.464 9.556 9.556 0 01-1.52-.704l1.344-2.736.32.192c.214.128.496.272.848.432.352.16.742.304 1.168.432.438.128.875.192 1.312.192.342 0 .576-.043.704-.128.139-.096.208-.219.208-.368 0-.224-.117-.395-.352-.512a4.46 4.46 0 00-.928-.352c-.373-.117-.789-.25-1.248-.4-.661-.224-1.205-.475-1.632-.752-.426-.288-.741-.624-.944-1.008-.202-.395-.304-.87-.304-1.424 0-.843.198-1.547.592-2.112a3.717 3.717 0 011.552-1.28 4.967 4.967 0 012.096-.448c.555 0 1.088.07 1.6.208a9.307 9.307 0 011.456.48c.459.192.859.373 1.2.544l-1.344 2.576zm-73.6 23.928V42h-8.096V30.64H42.2v2.72h-4.832v1.6h4.128v2.528h-4.128v1.792h4.976zm9.45-4.928l-.271-.16a6.532 6.532 0 00-.72-.352 7.443 7.443 0 00-.976-.368 3.573 3.573 0 00-1.04-.16c-.267 0-.486.043-.656.128-.171.085-.256.23-.256.432 0 .192.085.347.256.464.17.117.41.224.72.32.32.096.698.213 1.136.352a9.82 9.82 0 011.824.736c.512.277.906.635 1.184 1.072.277.427.416.997.416 1.712 0 .683-.123 1.259-.368 1.728a3.005 3.005 0 01-.992 1.104 4.42 4.42 0 01-1.392.608 7 7 0 01-1.568.176 9.743 9.743 0 01-1.712-.16 13.048 13.048 0 01-1.712-.464 9.515 9.515 0 01-1.52-.704l1.344-2.736.32.192c.213.128.496.272.848.432.352.16.741.304 1.168.432a4.65 4.65 0 001.312.192c.341 0 .576-.043.704-.128.138-.096.208-.219.208-.368 0-.224-.118-.395-.352-.512a4.476 4.476 0 00-.928-.352c-.374-.117-.79-.25-1.248-.4-.662-.224-1.206-.475-1.632-.752-.427-.288-.742-.624-.944-1.008-.203-.395-.304-.87-.304-1.424 0-.843.197-1.547.592-2.112a3.715 3.715 0 011.552-1.28 4.963 4.963 0 012.096-.448c.554 0 1.088.07 1.6.208a9.318 9.318 0 011.456.48c.458.192.858.373 1.2.544l-1.344 2.576zm12.964-.992h-3.264V42h-3.12v-8.64h-3.28v-2.72h9.664v2.72zm3.833-2.72h3.488L75.696 42h-3.168l-.688-2.224h-3.024L68.144 42H64.96l3.632-11.36zm2.752 7.056l-1.008-4-1.056 4h2.064zM77.76 42V30.64h7.792v2.72H80.88v1.888h3.808v2.528H80.88V42h-3.12zm12.025-11.36h3.488L96.89 42h-3.168l-.688-2.224H90.01L89.337 42h-3.184l3.632-11.36zm2.752 7.056l-1.008-4-1.056 4h2.064zm13.171-3.344l-.272-.16a6.48 6.48 0 00-.72-.352 7.406 7.406 0 00-.976-.368 3.57 3.57 0 00-1.04-.16c-.266 0-.485.043-.656.128-.17.085-.256.23-.256.432a.54.54 0 00.256.464c.171.117.411.224.72.32.32.096.699.213 1.136.352a9.82 9.82 0 011.824.736c.512.277.907.635 1.184 1.072.278.427.416.997.416 1.712 0 .683-.122 1.259-.368 1.728a3.002 3.002 0 01-.992 1.104 4.42 4.42 0 01-1.392.608 6.995 6.995 0 01-1.568.176 9.749 9.749 0 01-1.712-.16 13.079 13.079 0 01-1.712-.464 9.515 9.515 0 01-1.52-.704l1.344-2.736.32.192c.213.128.496.272.848.432.352.16.742.304 1.168.432.438.128.875.192 1.312.192.342 0 .576-.043.704-.128.139-.096.208-.219.208-.368 0-.224-.117-.395-.352-.512a4.46 4.46 0 00-.928-.352c-.373-.117-.789-.25-1.248-.4-.661-.224-1.205-.475-1.632-.752-.427-.288-.741-.624-.944-1.008-.203-.395-.304-.87-.304-1.424 0-.843.198-1.547.592-2.112a3.715 3.715 0 011.552-1.28 4.967 4.967 0 012.096-.448c.555 0 1.088.07 1.6.208a9.307 9.307 0 011.456.48c.459.192.859.373 1.2.544l-1.344 2.576z" fill="#fff"/></svg>