<svg width="339" height="70" viewBox="0 0 339 70" fill="none" xmlns="http://www.w3.org/2000/svg"><rect x="1" y="1" width="337" height="68" rx="7" fill="#EFD63A" stroke="#EFE28E" stroke-width="2"/><path d="M59.03 38.126l-2.375-6.777-2.376 6.777h4.752zm1.405 4.023h-7.56l-1.215 3.537h-5.643l7.749-20.358h5.778l7.749 20.358H61.65l-1.215-3.537zM75.44 34.67h1.755c1.944 0 2.916-.846 2.916-2.538 0-1.692-.972-2.538-2.916-2.538H75.44v5.076zm0 11.016h-5.292V25.328h8.424c2.286 0 4.032.594 5.238 1.782 1.224 1.188 1.836 2.862 1.836 5.022s-.612 3.834-1.836 5.022c-1.206 1.188-2.952 1.782-5.238 1.782H75.44v6.75zm18.84-11.259h.998c1.044 0 1.845-.216 2.403-.648.558-.432.837-1.053.837-1.863s-.279-1.431-.837-1.863c-.558-.432-1.359-.648-2.403-.648h-.999v5.022zm11.636 11.259h-6.588l-5.049-7.83v7.83h-5.292V25.328h8.235c1.134 0 2.124.171 2.97.513.846.324 1.539.774 2.079 1.35a5.496 5.496 0 011.242 1.998c.288.756.432 1.566.432 2.43 0 1.548-.378 2.808-1.134 3.78-.738.954-1.836 1.602-3.294 1.944l6.399 8.343zm14.337-15.876h-6.291v3.402h5.94v4.482h-5.94v3.51h6.291v4.482H108.67V25.328h11.583v4.482zm4.355 15.876V25.328h5.292l9.774 12.447V25.328h5.265v20.358h-5.265L129.9 33.239v12.447h-5.292zm30.433-4.482h1.215c.918 0 1.737-.144 2.457-.432.72-.288 1.323-.684 1.809-1.188a4.867 4.867 0 001.134-1.782 6.34 6.34 0 00.405-2.295c0-.81-.135-1.566-.405-2.268a5.124 5.124 0 00-1.161-1.809c-.486-.504-1.089-.9-1.809-1.188-.72-.288-1.53-.432-2.43-.432h-1.215v11.394zm-5.292-15.876h7.83c1.386 0 2.682.279 3.888.837a10.297 10.297 0 013.186 2.241 10.02 10.02 0 012.16 3.24 9.741 9.741 0 01.783 3.861 9.87 9.87 0 01-.783 3.861 10.043 10.043 0 01-2.133 3.24c-.9.936-1.962 1.683-3.186 2.241-1.206.558-2.511.837-3.915.837h-7.83V25.328zm33.348 4.482h-6.291v3.402h5.94v4.482h-5.94v3.51h6.291v4.482h-11.583V25.328h11.583v4.482zm28.733 2.322c-1.224-1.494-2.736-2.241-4.536-2.241-.792 0-1.53.144-2.214.432a5.288 5.288 0 00-1.728 1.188 5.429 5.429 0 00-1.161 1.755 5.976 5.976 0 00-.405 2.214c0 .81.135 1.557.405 2.241a5.756 5.756 0 001.161 1.782c.504.504 1.089.9 1.755 1.188a5.383 5.383 0 002.16.432c1.692 0 3.213-.72 4.563-2.16v6.264l-.54.189c-.81.288-1.566.495-2.268.621-.702.144-1.395.216-2.079.216-1.404 0-2.754-.261-4.05-.783a11.067 11.067 0 01-3.402-2.241 11.493 11.493 0 01-2.349-3.429c-.594-1.332-.891-2.781-.891-4.347 0-1.566.288-2.997.864-4.293.594-1.314 1.377-2.439 2.349-3.375a10.599 10.599 0 013.429-2.214c1.296-.54 2.655-.81 4.077-.81.81 0 1.602.09 2.376.27.792.162 1.62.423 2.484.783v6.318zm8.794 3.375c0 .81.153 1.557.459 2.241.306.684.72 1.278 1.242 1.782s1.125.9 1.809 1.188c.702.27 1.44.405 2.214.405s1.503-.135 2.187-.405a5.762 5.762 0 001.836-1.188 5.463 5.463 0 001.269-1.782 5.425 5.425 0 00.459-2.241c0-.81-.153-1.557-.459-2.241a5.463 5.463 0 00-1.269-1.782 5.405 5.405 0 00-1.836-1.161 5.578 5.578 0 00-2.187-.432c-.774 0-1.512.144-2.214.432a5.468 5.468 0 00-1.809 1.161 5.666 5.666 0 00-1.242 1.782 5.425 5.425 0 00-.459 2.241zm-5.535 0c0-1.512.279-2.916.837-4.212a10.506 10.506 0 012.322-3.429c.99-.972 2.169-1.728 3.537-2.268 1.386-.558 2.907-.837 4.563-.837 1.638 0 3.15.279 4.536.837 1.386.54 2.574 1.296 3.564 2.268a10.306 10.306 0 012.349 3.429c.558 1.296.837 2.7.837 4.212 0 1.512-.279 2.925-.837 4.239a10.38 10.38 0 01-2.349 3.402c-.99.972-2.178 1.737-3.564 2.295-1.386.54-2.898.81-4.536.81-1.656 0-3.177-.27-4.563-.81-1.368-.558-2.547-1.323-3.537-2.295a10.584 10.584 0 01-2.322-3.402c-.558-1.314-.837-2.727-.837-4.239zm16.119-15.363l-5.184 3.564-2.052-1.917 4.401-4.212 2.835 2.565zm9.391 25.542l3.456-20.358h5.238l4.077 10.854 4.05-10.854h5.238l3.456 20.358h-5.265l-1.755-11.718-4.806 11.718h-2.106l-4.563-11.718-1.755 11.718h-5.265zm34.024-10.179c0 .81.153 1.557.459 2.241.306.684.72 1.278 1.242 1.782s1.125.9 1.809 1.188c.702.27 1.44.405 2.214.405s1.503-.135 2.187-.405a5.762 5.762 0 001.836-1.188 5.463 5.463 0 001.269-1.782 5.425 5.425 0 00.459-2.241c0-.81-.153-1.557-.459-2.241a5.463 5.463 0 00-1.269-1.782 5.405 5.405 0 00-1.836-1.161 5.578 5.578 0 00-2.187-.432c-.774 0-1.512.144-2.214.432a5.468 5.468 0 00-1.809 1.161 5.666 5.666 0 00-1.242 1.782 5.425 5.425 0 00-.459 2.241zm-5.535 0c0-1.512.279-2.916.837-4.212a10.506 10.506 0 012.322-3.429c.99-.972 2.169-1.728 3.537-2.268 1.386-.558 2.907-.837 4.563-.837 1.638 0 3.15.279 4.536.837 1.386.54 2.574 1.296 3.564 2.268a10.306 10.306 0 012.349 3.429c.558 1.296.837 2.7.837 4.212 0 1.512-.279 2.925-.837 4.239a10.38 10.38 0 01-2.349 3.402c-.99.972-2.178 1.737-3.564 2.295-1.386.54-2.898.81-4.536.81-1.656 0-3.177-.27-4.563-.81-1.368-.558-2.547-1.323-3.537-2.295a10.584 10.584 0 01-2.322-3.402c-.558-1.314-.837-2.727-.837-4.239z" fill="#66124B"/></svg>