<svg width="557" height="140" viewBox="0 0 557 140" fill="none" xmlns="http://www.w3.org/2000/svg"><path d="M4.445 48.555c0-1.149.42-2.143 1.261-2.984.84-.841 1.846-1.261 3.015-1.261s2.174.42 3.014 1.26c.841.842 1.262 1.846 1.262 3.015 0 1.19-.42 2.205-1.262 3.046-.82.82-1.825 1.23-3.014 1.23-1.21 0-2.225-.41-3.046-1.23-.82-.82-1.23-1.846-1.23-3.076zm13.141 0c0-1.149.42-2.143 1.262-2.984.84-.841 1.845-1.261 3.014-1.261 1.17 0 2.174.42 3.015 1.26.84.842 1.261 1.846 1.261 3.015 0 1.19-.42 2.205-1.261 3.046-.82.82-1.825 1.23-3.015 1.23-1.21 0-2.225-.41-3.045-1.23-.82-.82-1.23-1.846-1.23-3.076zm13.142 0c0-1.149.42-2.143 1.26-2.984.842-.841 1.847-1.261 3.016-1.261s2.173.42 3.014 1.26c.841.842 1.261 1.846 1.261 3.015 0 1.19-.42 2.205-1.26 3.046-.821.82-1.826 1.23-3.015 1.23-1.21 0-2.226-.41-3.046-1.23-.82-.82-1.23-1.846-1.23-3.076zM66.11 23.33v9.198c-1.58-1.928-2.994-3.25-4.245-3.968-1.23-.739-2.677-1.108-4.338-1.108-2.604 0-4.768.913-6.49 2.738-1.723 1.825-2.584 4.112-2.584 6.86 0 2.81.83 5.117 2.491 6.921 1.682 1.805 3.825 2.707 6.43 2.707 1.66 0 3.127-.359 4.398-1.076 1.23-.698 2.677-2.051 4.338-4.061v9.136c-2.81 1.456-5.62 2.184-8.429 2.184-4.635 0-8.51-1.497-11.628-4.49-3.117-3.016-4.676-6.758-4.676-11.229 0-4.47 1.58-8.244 4.738-11.32 3.158-3.076 7.034-4.614 11.628-4.614 2.953 0 5.742.707 8.367 2.122zm5.29 13.474c0-4.327 1.55-8.009 4.646-11.044s6.87-4.553 11.32-4.553c4.47 0 8.265 1.528 11.382 4.584 3.076 3.056 4.614 6.809 4.614 11.259 0 4.491-1.548 8.254-4.645 11.29-3.117 3.014-6.942 4.521-11.474 4.521-4.491 0-8.254-1.538-11.29-4.614-3.035-3.035-4.552-6.85-4.552-11.443zm7.076.123c0 2.994.8 5.363 2.4 7.106 1.64 1.763 3.804 2.645 6.49 2.645 2.707 0 4.87-.871 6.49-2.614 1.621-1.744 2.431-4.071 2.431-6.983 0-2.913-.81-5.24-2.43-6.983-1.64-1.764-3.804-2.646-6.49-2.646-2.646 0-4.79.882-6.43 2.646-1.64 1.763-2.461 4.04-2.461 6.829zm32.238-14.889h6.922v2.769c1.333-1.395 2.471-2.338 3.414-2.83 1.005-.513 2.266-.77 3.784-.77 3.384 0 6.06 1.477 8.029 4.43 2.174-2.953 5.116-4.43 8.828-4.43 6.747 0 10.121 4.092 10.121 12.274V52h-6.952V35.358c0-2.871-.349-4.901-1.046-6.09-.718-1.21-1.897-1.816-3.538-1.816-1.907 0-3.301.718-4.183 2.153-.862 1.436-1.292 3.743-1.292 6.922V52h-6.952V35.45c0-5.332-1.539-7.998-4.615-7.998-1.948 0-3.373.728-4.276 2.184-.881 1.456-1.322 3.753-1.322 6.89V52h-6.922V22.038zm48.419 14.766c0-4.327 1.549-8.009 4.645-11.044 3.097-3.035 6.87-4.553 11.321-4.553 4.47 0 8.264 1.528 11.381 4.584 3.077 3.056 4.615 6.809 4.615 11.259 0 4.491-1.549 8.254-4.645 11.29-3.118 3.014-6.942 4.521-11.475 4.521-4.491 0-8.254-1.538-11.289-4.614-3.035-3.035-4.553-6.85-4.553-11.443zm7.075.123c0 2.994.8 5.363 2.4 7.106 1.64 1.763 3.804 2.645 6.491 2.645 2.707 0 4.87-.871 6.49-2.614 1.62-1.744 2.43-4.071 2.43-6.983 0-2.913-.81-5.24-2.43-6.983-1.64-1.764-3.804-2.646-6.49-2.646-2.646 0-4.789.882-6.43 2.646-1.64 1.763-2.461 4.04-2.461 6.829zm74.997-13.597v9.198c-1.579-1.928-2.994-3.25-4.245-3.968-1.23-.739-2.676-1.108-4.337-1.108-2.605 0-4.768.913-6.491 2.738-1.722 1.825-2.584 4.112-2.584 6.86 0 2.81.831 5.117 2.492 6.921 1.682 1.805 3.825 2.707 6.429 2.707 1.661 0 3.128-.359 4.399-1.076 1.231-.698 2.676-2.051 4.337-4.061v9.136c-2.809 1.456-5.619 2.184-8.428 2.184-4.635 0-8.511-1.497-11.628-4.49-3.117-3.016-4.676-6.758-4.676-11.229 0-4.47 1.579-8.244 4.737-11.32 3.159-3.076 7.035-4.614 11.628-4.614 2.953 0 5.742.707 8.367 2.122zm13.628-1.292v17.196c0 4.963 1.958 7.444 5.875 7.444s5.876-2.481 5.876-7.444V22.038h6.921v17.35c0 2.4-.297 4.47-.892 6.214-.574 1.558-1.569 2.963-2.984 4.214-2.338 2.03-5.311 3.045-8.921 3.045-3.588 0-6.552-1.015-8.89-3.045-1.435-1.251-2.45-2.656-3.045-4.214-.574-1.395-.861-3.466-.861-6.214v-17.35h6.921zm34.33 0V52h-6.921V22.038h6.921zM281.196 9.58c0-1.21.441-2.256 1.322-3.138.882-.882 1.938-1.323 3.169-1.323 1.251 0 2.317.441 3.199 1.323.882.861 1.323 1.917 1.323 3.168 0 1.251-.441 2.318-1.323 3.2-.861.881-1.917 1.322-3.168 1.322-1.251 0-2.318-.44-3.2-1.322-.881-.882-1.322-1.959-1.322-3.23zM320.017.043h6.952V52h-6.952v-3.138c-2.728 2.666-5.814 4-9.259 4-4.102 0-7.506-1.498-10.213-4.492-2.687-3.055-4.03-6.87-4.03-11.443 0-4.47 1.343-8.203 4.03-11.197 2.666-3.015 6.019-4.523 10.059-4.523 3.507 0 6.644 1.436 9.413 4.307V.044zM303.59 36.927c0 2.87.769 5.209 2.307 7.013 1.579 1.826 3.569 2.738 5.968 2.738 2.564 0 4.635-.882 6.214-2.645 1.579-1.825 2.369-4.143 2.369-6.952 0-2.81-.79-5.127-2.369-6.953-1.579-1.784-3.63-2.676-6.152-2.676-2.379 0-4.368.902-5.968 2.707-1.579 1.825-2.369 4.081-2.369 6.768zm54.202-14.889h6.953V52h-6.953v-3.138c-2.85 2.666-5.916 4-9.197 4-4.143 0-7.568-1.498-10.275-4.492-2.686-3.055-4.03-6.87-4.03-11.443 0-4.492 1.344-8.234 4.03-11.228 2.687-2.994 6.05-4.492 10.09-4.492 3.486 0 6.614 1.436 9.382 4.307v-3.476zm-16.426 14.889c0 2.87.769 5.209 2.307 7.013 1.579 1.826 3.568 2.738 5.968 2.738 2.563 0 4.634-.882 6.213-2.645 1.58-1.825 2.369-4.143 2.369-6.952 0-2.81-.789-5.127-2.369-6.953-1.579-1.784-3.629-2.676-6.152-2.676-2.379 0-4.368.902-5.968 2.707-1.579 1.825-2.368 4.081-2.368 6.768zm49.526-9.782l-5.722 3.045c-.902-1.846-2.02-2.769-3.353-2.769-.635 0-1.179.216-1.63.646-.451.41-.677.944-.677 1.6 0 1.148 1.333 2.287 3.999 3.414 3.671 1.58 6.142 3.036 7.414 4.369 1.271 1.333 1.907 3.127 1.907 5.383 0 2.892-1.066 5.312-3.199 7.26-2.072 1.845-4.573 2.768-7.506 2.768-5.025 0-8.583-2.45-10.674-7.352l5.906-2.737c.82 1.435 1.446 2.348 1.876 2.737.841.78 1.846 1.17 3.015 1.17 2.338 0 3.507-1.067 3.507-3.2 0-1.23-.903-2.379-2.707-3.445-.698-.349-1.395-.687-2.092-1.015-.697-.329-1.405-.667-2.123-1.016-2.009-.984-3.424-1.968-4.245-2.953-1.046-1.25-1.569-2.86-1.569-4.83 0-2.604.893-4.757 2.677-6.46 1.825-1.701 4.04-2.553 6.644-2.553 3.835 0 6.686 1.98 8.552 5.938zm34.761 1.353V52h-6.922V28.498h-2.953v-6.46h2.953V11.056h6.922v10.982h5.383v6.46h-5.383zm17.011-6.46v17.196c0 4.963 1.958 7.444 5.875 7.444s5.876-2.481 5.876-7.444V22.038h6.921v17.35c0 2.4-.297 4.47-.892 6.214-.574 1.558-1.569 2.963-2.984 4.214-2.338 2.03-5.311 3.045-8.921 3.045-3.588 0-6.552-1.015-8.89-3.045-1.435-1.251-2.45-2.656-3.045-4.214-.574-1.395-.861-3.466-.861-6.214v-17.35h6.921zM14.312 104.004V125H3.814v-20.996H.334v-8.758h3.48v-8.932h10.498v8.932h5.974v8.758h-5.974zm20.231 6.032c0 .967.174 1.875.522 2.726a7.333 7.333 0 001.392 2.146 6.782 6.782 0 002.146 1.45 7.13 7.13 0 002.726.522c.928 0 1.798-.174 2.61-.522.85-.348 1.566-.831 2.146-1.45a6.79 6.79 0 001.45-2.146c.387-.812.58-1.682.58-2.61 0-.928-.193-1.798-.58-2.61a6.625 6.625 0 00-1.45-2.204c-.58-.619-1.295-1.102-2.146-1.45a6.555 6.555 0 00-2.61-.522 7.13 7.13 0 00-2.726.522 6.782 6.782 0 00-2.146 1.45 7.333 7.333 0 00-1.392 2.146c-.348.773-.522 1.624-.522 2.552zm13.224-14.79h10.556V125H47.767v-3.306c-2.242 2.823-5.278 4.234-9.106 4.234-2.165 0-4.157-.387-5.974-1.16a14.774 14.774 0 01-4.756-3.364c-1.353-1.431-2.416-3.113-3.19-5.046-.735-1.933-1.102-4.041-1.102-6.322 0-2.127.367-4.137 1.102-6.032.735-1.933 1.76-3.615 3.074-5.046a14.136 14.136 0 014.698-3.364c1.818-.85 3.828-1.276 6.032-1.276 3.712 0 6.786 1.295 9.222 3.886v-2.958zm17.7 0h10.498v4.872c1.121-1.779 2.494-3.132 4.118-4.06 1.624-.967 3.519-1.45 5.684-1.45h.87c.348 0 .735.039 1.16.116v10.034c-1.392-.696-2.9-1.044-4.524-1.044-2.436 0-4.273.735-5.51 2.204-1.199 1.431-1.798 3.538-1.798 6.322V125H65.467V95.246zm37.516 0v44.602H92.485V95.246h10.498zM91.789 83.82c0-.812.154-1.566.464-2.262a5.927 5.927 0 011.276-1.914 6.117 6.117 0 011.856-1.276 5.918 5.918 0 012.32-.464c.812 0 1.566.155 2.262.464.734.31 1.372.735 1.914 1.276.541.541.966 1.18 1.276 1.914.309.696.464 1.45.464 2.262s-.155 1.585-.464 2.32a6.135 6.135 0 01-1.276 1.856 5.942 5.942 0 01-1.914 1.276c-.696.31-1.45.464-2.262.464a5.918 5.918 0 01-2.32-.464 6.117 6.117 0 01-1.856-1.276 6.115 6.115 0 01-1.276-1.856 5.917 5.917 0 01-.464-2.32zm40.118 21.982c-.348-1.469-1.064-2.649-2.146-3.538-1.083-.889-2.398-1.334-3.944-1.334-1.624 0-2.958.425-4.002 1.276-1.006.851-1.644 2.049-1.914 3.596h12.006zm-12.296 6.09c0 4.524 2.126 6.786 6.38 6.786 2.281 0 4.002-.928 5.162-2.784h10.15c-2.05 6.805-7.173 10.208-15.37 10.208-2.514 0-4.814-.367-6.902-1.102-2.088-.773-3.886-1.856-5.394-3.248-1.47-1.392-2.61-3.055-3.422-4.988-.812-1.933-1.218-4.099-1.218-6.496 0-2.475.386-4.698 1.16-6.67.773-2.011 1.875-3.712 3.306-5.104 1.43-1.392 3.151-2.455 5.162-3.19 2.049-.773 4.35-1.16 6.902-1.16 2.513 0 4.775.387 6.786 1.16 2.01.735 3.712 1.817 5.104 3.248 1.392 1.43 2.455 3.19 3.19 5.278.734 2.049 1.102 4.369 1.102 6.96v1.102h-22.098zm40.211-7.888V125h-10.498v-20.996h-3.48v-8.758h3.48v-8.932h10.498v8.932h5.974v8.758h-5.974zm20.231 6.032c0 .967.174 1.875.522 2.726a7.333 7.333 0 001.392 2.146 6.785 6.785 0 002.146 1.45 7.13 7.13 0 002.726.522c.928 0 1.798-.174 2.61-.522.851-.348 1.566-.831 2.146-1.45a6.785 6.785 0 001.45-2.146c.387-.812.58-1.682.58-2.61 0-.928-.193-1.798-.58-2.61a6.62 6.62 0 00-1.45-2.204c-.58-.619-1.295-1.102-2.146-1.45a6.555 6.555 0 00-2.61-.522 7.13 7.13 0 00-2.726.522 6.785 6.785 0 00-2.146 1.45 7.333 7.333 0 00-1.392 2.146c-.348.773-.522 1.624-.522 2.552zm13.224-14.79h10.556V125h-10.556v-3.306c-2.243 2.823-5.278 4.234-9.106 4.234-2.165 0-4.157-.387-5.974-1.16a14.773 14.773 0 01-4.756-3.364c-1.353-1.431-2.417-3.113-3.19-5.046-.735-1.933-1.102-4.041-1.102-6.322 0-2.127.367-4.137 1.102-6.032.735-1.933 1.759-3.615 3.074-5.046a14.142 14.142 0 014.698-3.364c1.817-.85 3.828-1.276 6.032-1.276 3.712 0 6.786 1.295 9.222 3.886v-2.958zm47.155 14.79c0 .967.174 1.875.522 2.726a7.333 7.333 0 001.392 2.146 6.774 6.774 0 002.146 1.45c.85.348 1.759.522 2.726.522.928 0 1.798-.174 2.61-.522.85-.348 1.566-.831 2.146-1.45a6.802 6.802 0 001.45-2.146c.386-.812.58-1.682.58-2.61 0-.928-.194-1.798-.58-2.61a6.636 6.636 0 00-1.45-2.204c-.58-.619-1.296-1.102-2.146-1.45a6.555 6.555 0 00-2.61-.522c-.928 0-1.818.174-2.668.522a6.774 6.774 0 00-2.146 1.45 8.367 8.367 0 00-1.45 2.146c-.348.773-.522 1.624-.522 2.552zm13.224-33.176h10.556V125h-10.556v-3.306c-2.243 2.823-5.278 4.234-9.106 4.234-2.166 0-4.157-.406-5.974-1.218a14.762 14.762 0 01-4.756-3.364c-1.354-1.431-2.417-3.113-3.19-5.046-.735-1.933-1.102-4.021-1.102-6.264 0-2.127.348-4.137 1.044-6.032.734-1.933 1.759-3.615 3.074-5.046a14.122 14.122 0 014.698-3.364c1.856-.85 3.886-1.276 6.09-1.276 3.712 0 6.786 1.295 9.222 3.886V76.86zm39.45 28.942c-.348-1.469-1.064-2.649-2.146-3.538-1.083-.889-2.398-1.334-3.944-1.334-1.624 0-2.958.425-4.002 1.276-1.006.851-1.644 2.049-1.914 3.596h12.006zm-12.296 6.09c0 4.524 2.126 6.786 6.38 6.786 2.281 0 4.002-.928 5.162-2.784h10.15c-2.05 6.805-7.173 10.208-15.37 10.208-2.514 0-4.814-.367-6.902-1.102-2.088-.773-3.886-1.856-5.394-3.248-1.47-1.392-2.61-3.055-3.422-4.988-.812-1.933-1.218-4.099-1.218-6.496 0-2.475.386-4.698 1.16-6.67.773-2.011 1.875-3.712 3.306-5.104 1.43-1.392 3.151-2.455 5.162-3.19 2.049-.773 4.35-1.16 6.902-1.16 2.513 0 4.775.387 6.786 1.16 2.01.735 3.712 1.817 5.104 3.248 1.392 1.43 2.455 3.19 3.19 5.278.734 2.049 1.102 4.369 1.102 6.96v1.102H280.81zm70.255-7.018c-1.817-1.237-3.654-1.856-5.51-1.856a7.733 7.733 0 00-2.842.522 6.843 6.843 0 00-2.262 1.508 6.784 6.784 0 00-1.566 2.262c-.348.851-.522 1.817-.522 2.9 0 1.044.174 2.011.522 2.9.387.851.89 1.605 1.508 2.262a7.148 7.148 0 002.32 1.45c.89.348 1.837.522 2.842.522 1.972 0 3.809-.677 5.51-2.03v8.932c-2.59 1.121-5.046 1.682-7.366 1.682-2.165 0-4.234-.367-6.206-1.102a16.368 16.368 0 01-5.162-3.132 16.214 16.214 0 01-3.538-4.93c-.889-1.933-1.334-4.079-1.334-6.438s.426-4.505 1.276-6.438c.851-1.972 2.011-3.654 3.48-5.046 1.47-1.43 3.21-2.533 5.22-3.306 2.05-.812 4.234-1.218 6.554-1.218 2.552 0 4.911.541 7.076 1.624v8.932zm5.988-9.628h10.498v4.872c1.121-1.779 2.494-3.132 4.118-4.06 1.624-.967 3.519-1.45 5.684-1.45h.87c.348 0 .735.039 1.16.116v10.034c-1.392-.696-2.9-1.044-4.524-1.044-2.436 0-4.273.735-5.51 2.204-1.199 1.431-1.798 3.538-1.798 6.322V125h-10.498V95.246zm49.107 10.556c-.348-1.469-1.063-2.649-2.146-3.538-1.082-.889-2.397-1.334-3.944-1.334-1.624 0-2.958.425-4.002 1.276-1.005.851-1.643 2.049-1.914 3.596h12.006zm-12.296 6.09c0 4.524 2.127 6.786 6.38 6.786 2.282 0 4.002-.928 5.162-2.784h10.15c-2.049 6.805-7.172 10.208-15.37 10.208-2.513 0-4.814-.367-6.902-1.102-2.088-.773-3.886-1.856-5.394-3.248-1.469-1.392-2.61-3.055-3.422-4.988-.812-1.933-1.218-4.099-1.218-6.496 0-2.475.387-4.698 1.16-6.67.774-2.011 1.876-3.712 3.306-5.104 1.431-1.392 3.152-2.455 5.162-3.19 2.05-.773 4.35-1.16 6.902-1.16 2.514 0 4.776.387 6.786 1.16 2.011.735 3.712 1.817 5.104 3.248 1.392 1.43 2.456 3.19 3.19 5.278.735 2.049 1.102 4.369 1.102 6.96v1.102h-22.098zm15.834-29.928l-10.092 8.932-4.872-3.596 8.294-10.15 6.67 4.814zm22.009 28.072c0 .967.174 1.875.522 2.726a7.333 7.333 0 001.392 2.146 6.785 6.785 0 002.146 1.45c.851.348 1.76.522 2.726.522.928 0 1.798-.174 2.61-.522.851-.348 1.566-.831 2.146-1.45a6.785 6.785 0 001.45-2.146c.387-.812.58-1.682.58-2.61 0-.928-.193-1.798-.58-2.61a6.62 6.62 0 00-1.45-2.204c-.58-.619-1.295-1.102-2.146-1.45a6.555 6.555 0 00-2.61-.522 6.98 6.98 0 00-2.668.522 6.785 6.785 0 00-2.146 1.45 8.392 8.392 0 00-1.45 2.146c-.348.773-.522 1.624-.522 2.552zm13.224-33.176h10.556V125h-10.556v-3.306c-2.242 2.823-5.278 4.234-9.106 4.234-2.165 0-4.156-.406-5.974-1.218a14.784 14.784 0 01-4.756-3.364c-1.353-1.431-2.416-3.113-3.19-5.046-.734-1.933-1.102-4.021-1.102-6.264 0-2.127.348-4.137 1.044-6.032.735-1.933 1.76-3.615 3.074-5.046a14.142 14.142 0 014.698-3.364c1.856-.85 3.886-1.276 6.09-1.276 3.712 0 6.786 1.295 9.222 3.886V76.86zm28.198 18.386V125h-10.498V95.246h10.498zM461.935 83.82c0-.812.155-1.566.464-2.262a5.929 5.929 0 011.276-1.914 6.113 6.113 0 011.856-1.276 5.92 5.92 0 012.32-.464c.812 0 1.566.155 2.262.464.735.31 1.373.735 1.914 1.276.541.541.967 1.18 1.276 1.914.309.696.464 1.45.464 2.262s-.155 1.585-.464 2.32a6.117 6.117 0 01-1.276 1.856 5.923 5.923 0 01-1.914 1.276c-.696.31-1.45.464-2.262.464a5.92 5.92 0 01-2.32-.464 6.113 6.113 0 01-1.856-1.276 6.117 6.117 0 01-1.276-1.856 5.924 5.924 0 01-.464-2.32zm30.084 20.184V125h-10.498v-20.996h-3.48v-8.758h3.48v-8.932h10.498v8.932h5.974v8.758h-5.974zm20.349 5.974c0 1.005.174 1.933.522 2.784.386.812.87 1.527 1.45 2.146a6.774 6.774 0 002.146 1.45c.85.348 1.74.522 2.668.522.928 0 1.798-.174 2.61-.522.85-.348 1.566-.831 2.146-1.45a6.802 6.802 0 001.45-2.146 6.52 6.52 0 00.58-2.726c0-.928-.194-1.798-.58-2.61a6.636 6.636 0 00-1.45-2.204c-.58-.619-1.296-1.102-2.146-1.45a6.555 6.555 0 00-2.61-.522c-.928 0-1.818.174-2.668.522a6.774 6.774 0 00-2.146 1.45 8.367 8.367 0 00-1.45 2.146 6.555 6.555 0 00-.522 2.61zm-11.078-.116c0-2.204.444-4.253 1.334-6.148a14.773 14.773 0 013.712-4.988c1.585-1.43 3.46-2.552 5.626-3.364 2.204-.812 4.601-1.218 7.192-1.218 2.552 0 4.91.406 7.076 1.218 2.204.773 4.098 1.875 5.684 3.306a14.317 14.317 0 013.77 5.046c.889 1.933 1.334 4.079 1.334 6.438s-.464 4.524-1.392 6.496a15.418 15.418 0 01-3.712 5.046c-1.586 1.392-3.5 2.475-5.742 3.248-2.204.773-4.602 1.16-7.192 1.16-2.552 0-4.911-.387-7.076-1.16-2.166-.773-4.041-1.875-5.626-3.306a15.612 15.612 0 01-3.654-5.104c-.89-2.011-1.334-4.234-1.334-6.67zm41.249 9.57c0-.928.174-1.798.522-2.61a6.62 6.62 0 011.45-2.204 6.785 6.785 0 012.146-1.45 6.98 6.98 0 012.668-.522c.928 0 1.798.174 2.61.522a6.62 6.62 0 012.204 1.45 6.62 6.62 0 011.45 2.204c.348.812.522 1.682.522 2.61a6.98 6.98 0 01-.522 2.668 6.785 6.785 0 01-1.45 2.146 6.62 6.62 0 01-2.204 1.45 6.555 6.555 0 01-2.61.522 6.98 6.98 0 01-2.668-.522 6.785 6.785 0 01-2.146-1.45 6.785 6.785 0 01-1.45-2.146 6.98 6.98 0 01-.522-2.668z" fill="#66124B"/></svg>