<svg width="211" height="45" viewBox="0 0 211 45" fill="none" xmlns="http://www.w3.org/2000/svg"><path d="M9.614 15.22c-2.816 0-4.532-1.122-5.566-2.222l.748-1.32c1.144 1.122 2.684 1.936 4.84 1.936 1.848 0 3.784-.814 3.784-2.574 0-1.628-1.848-2.112-3.674-2.574-2.552-.638-5.104-1.452-5.104-4.092 0-2.552 2.442-3.85 4.994-3.85 1.76 0 3.366.44 4.796 1.584l-.726 1.342C12.43 2.46 11 2.13 9.636 2.13c-1.408 0-3.212.66-3.212 2.244 0 1.474 1.628 1.958 3.542 2.442 2.64.66 5.302 1.562 5.302 4.224 0 2.926-2.926 4.18-5.654 4.18zM18.18 15V4.286h1.672V15h-1.672zm.836-12.628a1.09 1.09 0 01-1.1-1.1c0-.616.484-1.122 1.1-1.122.616 0 1.122.506 1.122 1.122 0 .616-.506 1.1-1.122 1.1zM31.93 15.22c-1.892 0-3.014-.924-3.014-3.432V5.672h-1.606V4.286h1.606v-2.31l1.672-.308v2.618h3.652v1.386h-3.652v6.16c0 1.474.638 1.892 1.496 1.892.99 0 1.76-.594 1.76-.594l.55 1.298c-.418.286-1.298.792-2.464.792zm9.93 0c-3.036 0-5.61-2.178-5.61-5.566 0-3.102 2.332-5.588 5.39-5.588 2.86 0 5.126 2.464 5.126 5.522 0 .308-.044.638-.044.66h-8.734c.264 2.134 1.914 3.476 3.894 3.476 1.21 0 2.42-.418 3.3-1.144l.726 1.232a6.556 6.556 0 01-4.048 1.408zm-3.872-6.248h7.128c-.176-1.98-1.694-3.41-3.564-3.41-1.826 0-3.322 1.408-3.564 3.41zm22.026 6.248c-3.146 0-5.632-2.464-5.632-5.566 0-3.124 2.486-5.588 5.632-5.588 3.146 0 5.632 2.464 5.632 5.588 0 3.102-2.486 5.566-5.632 5.566zm0-1.628c2.222 0 3.916-1.694 3.916-3.938 0-2.266-1.694-3.96-3.916-3.96s-3.916 1.694-3.916 3.96c0 2.244 1.694 3.938 3.916 3.938zM68.694 15V5.672h-1.738V4.286h1.738v-.814c0-2.662 1.408-3.388 2.882-3.388A5.19 5.19 0 0174.15.81l-.55 1.276c-.22-.132-.858-.528-1.672-.528-.836 0-1.562.418-1.562 2.09v.638h3.41v1.386h-3.41V15h-1.672zm7.116 0V4.286h1.672v2.266c.616-1.408 2.002-2.486 4.136-2.486v1.826c-2.508 0-4.136 1.408-4.136 4.026V15H75.81zm13.13.22c-3.036 0-5.61-2.178-5.61-5.566 0-3.102 2.332-5.588 5.39-5.588 2.86 0 5.126 2.464 5.126 5.522 0 .308-.044.638-.044.66h-8.734c.264 2.134 1.914 3.476 3.894 3.476 1.21 0 2.42-.418 3.3-1.144l.726 1.232a6.556 6.556 0 01-4.048 1.408zm-3.872-6.248h7.128c-.176-1.98-1.694-3.41-3.564-3.41-1.826 0-3.322 1.408-3.564 3.41zm16.795 6.248c-3.146 0-5.632-2.442-5.632-5.566 0-3.124 2.486-5.588 5.632-5.588 1.474 0 2.816.528 3.828 1.43l-1.056 1.188c-.66-.616-1.628-.99-2.75-.99-2.244 0-3.938 1.672-3.938 3.96 0 2.222 1.628 3.938 3.982 3.938 1.21 0 2.31-.462 3.058-1.21l.968 1.254c-1.034.99-2.486 1.584-4.092 1.584zm11.461 0c-3.036 0-5.61-2.178-5.61-5.566 0-3.102 2.332-5.588 5.39-5.588 2.86 0 5.126 2.464 5.126 5.522 0 .308-.044.638-.044.66h-8.734c.264 2.134 1.914 3.476 3.894 3.476 1.21 0 2.42-.418 3.3-1.144l.726 1.232a6.556 6.556 0 01-4.048 1.408zm-3.872-6.248h7.128c-.176-1.98-1.694-3.41-3.564-3.41-1.826 0-3.322 1.408-3.564 3.41zM121.055 15V4.286h1.672v1.826c.748-1.298 2.134-2.046 3.718-2.046 2.684 0 3.872 1.628 3.872 4.444V15h-1.672V8.73c0-1.98-.726-3.036-2.662-3.036-1.914 0-3.256 1.496-3.256 3.278V15h-1.672zm22.743.22c-3.036 0-5.61-2.178-5.61-5.566 0-3.102 2.332-5.588 5.39-5.588 2.86 0 5.126 2.464 5.126 5.522 0 .308-.044.638-.044.66h-8.734c.264 2.134 1.914 3.476 3.894 3.476 1.21 0 2.42-.418 3.3-1.144l.726 1.232a6.556 6.556 0 01-4.048 1.408zm-3.872-6.248h7.128c-.176-1.98-1.694-3.41-3.564-3.41-1.826 0-3.322 1.408-3.564 3.41zm20.249 9.13V13.13c-.792 1.386-2.31 2.09-4.026 2.09-2.97 0-5.06-2.464-5.06-5.588s2.09-5.566 5.06-5.566c1.738 0 3.3.682 4.092 2.068V4.286h1.606v13.816h-1.672zm-3.652-4.51c2.046 0 3.652-1.716 3.652-3.96 0-2.244-1.606-3.938-3.652-3.938-2.134 0-3.718 1.672-3.718 3.938 0 2.288 1.584 3.96 3.718 3.96zm12.291 1.628c-2.64 0-3.894-1.386-3.894-4.246V4.286h1.672v6.468c0 2.002.968 2.838 2.706 2.838 1.936 0 3.058-1.584 3.058-3.234V4.286h1.672V15h-1.606v-1.892c-.66 1.386-2.2 2.112-3.608 2.112zm8.474-.22V4.286h1.672V15h-1.672zm.836-12.628a1.09 1.09 0 01-1.1-1.1c0-.616.484-1.122 1.1-1.122.616 0 1.122.506 1.122 1.122 0 .616-.506 1.1-1.122 1.1zm4.094 15.73V4.286h1.606v1.848c.792-1.386 2.354-2.068 4.092-2.068 2.97 0 5.06 2.442 5.06 5.566 0 3.124-2.09 5.588-5.06 5.588-1.694 0-3.234-.704-4.026-2.09v4.972h-1.672zm5.324-4.51c2.134 0 3.718-1.672 3.718-3.96 0-2.266-1.584-3.938-3.718-3.938-2.046 0-3.652 1.694-3.652 3.938s1.606 3.96 3.652 3.96zm13.435 1.628c-3.146 0-5.632-2.464-5.632-5.566 0-3.124 2.486-5.588 5.632-5.588 3.146 0 5.632 2.464 5.632 5.588 0 3.102-2.486 5.566-5.632 5.566zm0-1.628c2.222 0 3.916-1.694 3.916-3.938 0-2.266-1.694-3.96-3.916-3.96s-3.916 1.694-3.916 3.96c0 2.244 1.694 3.938 3.916 3.938zM.258 40V29.286H1.93v1.848c.594-1.166 1.936-2.068 3.432-2.068 1.716 0 2.926.748 3.432 2.266.77-1.562 2.442-2.266 3.696-2.266 2.574 0 3.938 1.496 3.938 4.444V40h-1.694v-6.27c0-1.826-.638-3.036-2.596-3.036-1.804 0-2.948 1.452-2.948 3.058V40H7.496v-6.27c0-1.826-.638-3.036-2.574-3.036-1.87 0-2.992 1.584-2.992 3.146V40H.258zm23.024-12.43l1.782-2.926h1.826l-2.068 2.926h-1.54zm1.364 12.65c-3.036 0-5.61-2.178-5.61-5.566 0-3.102 2.332-5.588 5.39-5.588 2.86 0 5.126 2.464 5.126 5.522 0 .308-.044.638-.044.66h-8.734c.264 2.134 1.914 3.476 3.894 3.476 1.21 0 2.42-.418 3.3-1.144l.726 1.232a6.556 6.556 0 01-4.048 1.408zm-3.872-6.248h7.128c-.176-1.98-1.694-3.41-3.564-3.41-1.826 0-3.322 1.408-3.564 3.41zm16.223 6.248c-2.97 0-5.06-2.464-5.06-5.566 0-3.146 2.09-5.588 5.06-5.588 1.716 0 3.234.704 4.026 2.09v-5.632h1.672V40h-1.606v-1.87c-.792 1.408-2.354 2.09-4.092 2.09zm.374-1.628c2.046 0 3.652-1.694 3.652-3.938s-1.606-3.96-3.652-3.96c-2.134 0-3.718 1.672-3.718 3.96 0 2.266 1.584 3.938 3.718 3.938zM45.944 40V29.286h1.672V40h-1.672zm.836-12.628a1.09 1.09 0 01-1.1-1.1c0-.616.484-1.122 1.1-1.122.616 0 1.122.506 1.122 1.122 0 .616-.506 1.1-1.122 1.1zm9.286 12.848c-3.146 0-5.632-2.442-5.632-5.566 0-3.124 2.486-5.588 5.632-5.588 1.474 0 2.816.528 3.828 1.43l-1.056 1.188c-.66-.616-1.628-.99-2.75-.99-2.244 0-3.938 1.672-3.938 3.96 0 2.222 1.628 3.938 3.982 3.938 1.21 0 2.31-.462 3.058-1.21l.968 1.254c-1.034.99-2.486 1.584-4.092 1.584zm11.483 0c-3.146 0-5.632-2.464-5.632-5.566 0-3.124 2.486-5.588 5.632-5.588 3.146 0 5.632 2.464 5.632 5.588 0 3.102-2.486 5.566-5.632 5.566zm0-1.628c2.222 0 3.916-1.694 3.916-3.938 0-2.266-1.694-3.96-3.916-3.96s-3.916 1.694-3.916 3.96c0 2.244 1.694 3.938 3.916 3.938z" fill="#000"/><path d="M88.603 30.508v-8.652h3.808v8.652h-3.808zm-6.384 0v-8.652h3.808v8.652H82.22zm22.508 13.608c-2.8 0-4.984-.644-6.272-1.512l1.82-3.192c1.12.728 2.744.924 3.892.924 1.848 0 2.8-.84 3.136-1.764.112-.28.168-.56.168-.84-.784 1.036-2.324 1.428-3.472 1.428-3.976 0-6.272-3.08-6.272-6.86 0-3.808 2.296-6.888 6.272-6.888 1.148 0 2.968.42 3.752 1.876v-1.596h4.816v10.416c0 4.088-1.82 8.008-7.84 8.008zm.476-9.352c1.344 0 2.296-1.008 2.296-2.464s-.952-2.492-2.296-2.492c-1.344 0-2.296 1.036-2.296 2.492s.952 2.464 2.296 2.464zM115.219 40V25.692h4.956v2.548c.084-.616 1.316-2.828 4.676-2.828v5.544c-3.696 0-4.536 1.54-4.536 4.228V40h-5.096zm17.733.28c-3.976 0-6.132-3.304-6.132-7.42 0-4.144 2.156-7.448 6.132-7.448 1.148 0 3.052.392 3.892 1.876v-1.596h4.816V40h-4.816v-1.596c-.784 1.456-2.744 1.876-3.892 1.876zm1.344-4.48c1.344 0 2.296-1.204 2.296-2.94 0-1.708-.952-2.968-2.296-2.968-1.344 0-2.296 1.26-2.296 2.968 0 1.736.952 2.94 2.296 2.94zm15.865 4.48c-2.744 0-4.536-1.764-4.536-4.9v-5.656h-2.1v-4.032h2.1v-2.576l5.096-1.26v3.836h3.164v4.032h-3.164v5.264c0 .672.336.896.784.896.42 0 .924-.196 1.288-.448l1.372 3.724c-1.232.868-2.744 1.12-4.004 1.12zm5.895-.28V25.692h5.096V40h-5.096zm2.52-15.4c-1.568 0-2.884-1.316-2.884-2.884 0-1.596 1.316-2.912 2.884-2.912 1.624 0 2.94 1.316 2.94 2.912 0 1.568-1.316 2.884-2.94 2.884zm10.632 15.68c-3.276 0-5.096-.98-5.936-1.708l1.624-3.584c1.12.756 2.156 1.204 4.34 1.204.056 0 1.4-.084 1.4-.644 0-.448-.84-.532-1.68-.728-3.108-.756-5.404-2.016-5.404-4.648 0-3.136 2.856-4.76 5.88-4.76 2.772 0 4.424.616 5.796 1.344l-1.512 3.416c-1.652-.644-3.164-.84-4.116-.84-.504 0-.896.168-.896.448 0 .532 1.204.728 2.632 1.12 2.016.588 4.452 1.568 4.452 4.452 0 3.836-3.892 4.928-6.58 4.928zm16.475-9.772v-8.652h3.808v8.652h-3.808zm-6.384 0v-8.652h3.808v8.652h-3.808zm17.496 9.772c-.84 0-1.456-.672-1.456-1.484 0-.812.644-1.484 1.456-1.484.812 0 1.484.672 1.484 1.484 0 .812-.672 1.484-1.484 1.484zm6.248 0c-.84 0-1.456-.672-1.456-1.484 0-.812.644-1.484 1.456-1.484.812 0 1.484.672 1.484 1.484 0 .812-.672 1.484-1.484 1.484zm6.247 0c-.84 0-1.456-.672-1.456-1.484 0-.812.644-1.484 1.456-1.484.812 0 1.484.672 1.484 1.484 0 .812-.672 1.484-1.484 1.484z" fill="#0B2E54"/></svg>