<svg width="181" height="44" viewBox="0 0 181 44" fill="none" xmlns="http://www.w3.org/2000/svg"><path d="M1.317 16.22c-.66 0-1.144-.528-1.144-1.166 0-.638.506-1.166 1.144-1.166.638 0 1.166.528 1.166 1.166 0 .638-.528 1.166-1.166 1.166zm4.468 0c-.66 0-1.144-.528-1.144-1.166 0-.638.506-1.166 1.144-1.166.638 0 1.166.528 1.166 1.166 0 .638-.528 1.166-1.166 1.166zm4.47 0c-.66 0-1.145-.528-1.145-1.166 0-.638.506-1.166 1.144-1.166.638 0 1.166.528 1.166 1.166 0 .638-.528 1.166-1.166 1.166zm3.654 2.882V5.286h1.606v1.848c.792-1.386 2.354-2.068 4.092-2.068 2.97 0 5.06 2.442 5.06 5.566 0 3.124-2.09 5.588-5.06 5.588-1.694 0-3.234-.704-4.026-2.09v4.972h-1.672zm5.324-4.51c2.134 0 3.718-1.672 3.718-3.96 0-2.266-1.584-3.938-3.718-3.938-2.046 0-3.652 1.694-3.652 3.938s1.606 3.96 3.652 3.96zm12.995 1.628c-3.146 0-5.632-2.464-5.632-5.566 0-3.124 2.486-5.588 5.632-5.588 3.146 0 5.632 2.464 5.632 5.588 0 3.102-2.486 5.566-5.632 5.566zm0-1.628c2.222 0 3.916-1.694 3.916-3.938 0-2.266-1.694-3.96-3.916-3.96s-3.916 1.694-3.916 3.96c0 2.244 1.694 3.938 3.916 3.938zm8 1.408V5.286h1.671v2.266c.616-1.408 2.002-2.486 4.136-2.486v1.826c-2.508 0-4.136 1.408-4.136 4.026V16h-1.672zm16.11.22c-1.891 0-3.013-.924-3.013-3.432V6.672h-1.606V5.286h1.606v-2.31l1.672-.308v2.618h3.652v1.386h-3.652v6.16c0 1.474.638 1.892 1.496 1.892.99 0 1.76-.594 1.76-.594l.55 1.298c-.418.286-1.298.792-2.464.792zm8.168 0c-2.64 0-3.894-1.386-3.894-4.246V5.286h1.672v6.468c0 2.002.968 2.838 2.706 2.838 1.936 0 3.058-1.584 3.058-3.234V5.286h1.672V16h-1.606v-1.892c-.66 1.386-2.2 2.112-3.608 2.112zM77.33 16V5.286h1.672v1.826c.748-1.298 2.134-2.046 3.718-2.046 2.684 0 3.872 1.628 3.872 4.444V16H84.92V9.73c0-1.98-.726-3.036-2.662-3.036-1.914 0-3.256 1.496-3.256 3.278V16H77.33zM92.357 3.57L94.14.644h1.826L93.897 3.57h-1.54zm.594 12.65c-2.64 0-3.894-1.386-3.894-4.246V5.286h1.672v6.468c0 2.002.968 2.838 2.706 2.838 1.936 0 3.058-1.584 3.058-3.234V5.286h1.672V16H96.56v-1.892c-.66 1.386-2.2 2.112-3.608 2.112zm8.034-.22V5.286h1.672v1.848c.594-1.166 1.936-2.068 3.432-2.068 1.716 0 2.926.748 3.432 2.266.77-1.562 2.442-2.266 3.696-2.266 2.574 0 3.938 1.496 3.938 4.444V16h-1.694V9.73c0-1.826-.638-3.036-2.596-3.036-1.804 0-2.948 1.452-2.948 3.058V16h-1.694V9.73c0-1.826-.638-3.036-2.574-3.036-1.87 0-2.992 1.584-2.992 3.146V16h-1.672zm23.947.22c-3.036 0-5.61-2.178-5.61-5.566 0-3.102 2.332-5.588 5.39-5.588 2.86 0 5.126 2.464 5.126 5.522 0 .308-.044.638-.044.66h-8.734c.264 2.134 1.914 3.476 3.894 3.476 1.21 0 2.42-.418 3.3-1.144l.726 1.232a6.556 6.556 0 01-4.048 1.408zm-3.872-6.248h7.128c-.176-1.98-1.694-3.41-3.564-3.41-1.826 0-3.322 1.408-3.564 3.41zM132.223 16V5.286h1.672v2.266c.616-1.408 2.002-2.486 4.136-2.486v1.826c-2.508 0-4.136 1.408-4.136 4.026V16h-1.672zm12.712.22c-3.146 0-5.632-2.464-5.632-5.566 0-3.124 2.486-5.588 5.632-5.588 3.146 0 5.632 2.464 5.632 5.588 0 3.102-2.486 5.566-5.632 5.566zm0-1.628c2.222 0 3.916-1.694 3.916-3.938 0-2.266-1.694-3.96-3.916-3.96s-3.916 1.694-3.916 3.96c0 2.244 1.694 3.938 3.916 3.938zm17.41 1.628c-2.97 0-5.06-2.464-5.06-5.566 0-3.146 2.09-5.588 5.06-5.588 1.716 0 3.234.704 4.026 2.09V1.524h1.672V16h-1.606v-1.87c-.792 1.408-2.354 2.09-4.092 2.09zm.374-1.628c2.046 0 3.652-1.694 3.652-3.938s-1.606-3.96-3.652-3.96c-2.134 0-3.718 1.672-3.718 3.96 0 2.266 1.584 3.938 3.718 3.938zm13.303 1.628c-3.036 0-5.61-2.178-5.61-5.566 0-3.102 2.332-5.588 5.39-5.588 2.86 0 5.126 2.464 5.126 5.522 0 .308-.044.638-.044.66h-8.734c.264 2.134 1.914 3.476 3.894 3.476 1.21 0 2.42-.418 3.3-1.144l.726 1.232a6.556 6.556 0 01-4.048 1.408zm-3.872-6.248h7.128c-.176-1.98-1.694-3.41-3.564-3.41-1.826 0-3.322 1.408-3.564 3.41z" fill="#000"/><path d="M28.808 40V21.856h4.536l3.556 5.096c.588.868 1.54 2.352 1.54 2.352s.952-1.484 1.54-2.352l3.556-5.096h4.536V40h-5.32v-9.184S41.828 32.3 41.324 33l-2.884 4.032L35.528 33c-.504-.7-1.4-2.128-1.4-2.128V40h-5.32zm29.675.28c-4.34 0-8.036-2.716-8.036-7.42 0-4.144 3.22-7.448 7.448-7.448 4.06 0 7.168 3.304 7.168 7.448 0 .868-.112 1.652-.112 1.652H55.46c.42 1.344 1.68 1.848 3.052 1.848 1.204 0 2.492-.364 3.388-.868l1.708 3.444c-1.596.98-3.36 1.344-5.124 1.344zm-3.164-8.652h5.096c-.168-1.316-1.204-2.212-2.52-2.212-1.26 0-2.268.896-2.576 2.212zm17.557 8.652c-3.976 0-6.132-3.304-6.132-7.42 0-4.144 2.296-7.448 6.3-7.448 1.148 0 2.576.392 3.444 1.484v-5.32h5.096V40h-4.816v-1.596c-.756 1.456-2.744 1.876-3.892 1.876zm1.344-4.48c1.344 0 2.296-1.204 2.296-2.94 0-1.708-.952-2.968-2.296-2.968-1.344 0-2.296 1.26-2.296 2.968 0 1.736.952 2.94 2.296 2.94zm9.593 4.2V25.692h5.096V40h-5.096zm2.52-15.4c-1.568 0-2.884-1.316-2.884-2.884 0-1.596 1.316-2.912 2.884-2.912 1.624 0 2.94 1.316 2.94 2.912 0 1.568-1.316 2.884-2.94 2.884zM98.59 40.28c-4.397 0-7.728-3.304-7.728-7.42 0-4.144 3.332-7.448 7.728-7.448 1.959 0 3.555.588 5.067 1.792l-2.94 3.528c-.532-.504-1.12-.84-1.987-.84-1.653 0-2.717 1.26-2.717 2.968 0 1.736 1.036 2.94 2.828 2.94.98 0 1.792-.42 2.408-1.036l2.548 3.752c-1.372 1.148-3.192 1.764-5.207 1.764zm12.021 0c-3.976 0-6.132-3.304-6.132-7.42 0-4.144 2.156-7.448 6.132-7.448 1.148 0 3.052.392 3.892 1.876v-1.596h4.816V40h-4.816v-1.596c-.784 1.456-2.744 1.876-3.892 1.876zm1.344-4.48c1.344 0 2.296-1.204 2.296-2.94 0-1.708-.952-2.968-2.296-2.968-1.344 0-2.296 1.26-2.296 2.968 0 1.736.952 2.94 2.296 2.94zm9.593 4.2V25.692h4.956v2.548c.084-.616 1.316-2.828 4.676-2.828v5.544c-3.696 0-4.536 1.54-4.536 4.228V40h-5.096zm19.076.28c-4.34 0-8.036-2.716-8.036-7.42 0-4.144 3.22-7.448 7.448-7.448 4.06 0 7.168 3.304 7.168 7.448 0 .868-.112 1.652-.112 1.652H137.6c.42 1.344 1.68 1.848 3.052 1.848 1.204 0 2.492-.364 3.388-.868l1.708 3.444c-1.596.98-3.36 1.344-5.124 1.344zm-3.164-8.652h5.096c-.168-1.316-1.204-2.212-2.52-2.212-1.26 0-2.268.896-2.576 2.212zm11.593 12.208l1.372-6.412h2.1l-1.96 6.412h-1.512z" fill="#0B2E54"/></svg>