<svg width="199" height="12" viewBox="0 0 199 12" fill="none" xmlns="http://www.w3.org/2000/svg"><path d="M.14 11V1.28h1.065l2.37 3.3c.51.72 1.575 2.25 1.575 2.25s1.065-1.515 1.575-2.235l2.37-3.315h1.065V11h-1.2V3.305s-.255.465-.72 1.11l-3.09 4.35-3.105-4.38c-.435-.615-.705-1.08-.705-1.08V11H.14zm15.635.15c-2.07 0-3.825-1.485-3.825-3.795 0-2.115 1.59-3.81 3.675-3.81 1.95 0 3.495 1.68 3.495 3.765 0 .21-.03.435-.03.45h-5.955c.18 1.455 1.305 2.37 2.655 2.37.825 0 1.65-.285 2.25-.78l.495.84a4.47 4.47 0 01-2.76.96zm-2.64-4.26h4.86c-.12-1.35-1.155-2.325-2.43-2.325-1.245 0-2.265.96-2.43 2.325zm10.761 4.26c-2.025 0-3.45-1.68-3.45-3.795 0-2.145 1.425-3.81 3.45-3.81 1.17 0 2.205.48 2.745 1.425V1.13h1.14V11h-1.095V9.725c-.54.96-1.605 1.425-2.79 1.425zm.255-1.11c1.395 0 2.49-1.155 2.49-2.685s-1.095-2.7-2.49-2.7c-1.455 0-2.535 1.14-2.535 2.7 0 1.545 1.08 2.685 2.535 2.685zm5.545.96V3.695h1.14V11h-1.14zm.57-8.61c-.42 0-.75-.33-.75-.75s.33-.765.75-.765.765.345.765.765c0 .42-.345.75-.765.75zm6.032 8.76c-2.145 0-3.84-1.665-3.84-3.795s1.695-3.81 3.84-3.81c1.005 0 1.92.36 2.61.975l-.72.81c-.45-.42-1.11-.675-1.875-.675-1.53 0-2.685 1.14-2.685 2.7 0 1.515 1.11 2.685 2.715 2.685.825 0 1.575-.315 2.085-.825l.66.855c-.705.675-1.695 1.08-2.79 1.08zm7.14 0c-2.026 0-3.45-1.68-3.45-3.795 0-2.145 1.424-3.81 3.45-3.81 1.17 0 2.204.48 2.744 1.425V3.695h1.14V11h-1.14V9.725c-.54.96-1.575 1.425-2.745 1.425zm.254-1.11c1.395 0 2.49-1.155 2.49-2.685s-1.095-2.7-2.49-2.7c-1.455 0-2.535 1.14-2.535 2.7 0 1.545 1.08 2.685 2.535 2.685zm5.545.96V3.695h1.14V5.24c.42-.96 1.365-1.695 2.82-1.695V4.79c-1.71 0-2.82.96-2.82 2.745V11h-1.14zm8.652.15c-2.07 0-3.825-1.485-3.825-3.795 0-2.115 1.59-3.81 3.675-3.81 1.95 0 3.495 1.68 3.495 3.765 0 .21-.03.435-.03.45H55.25c.18 1.455 1.305 2.37 2.655 2.37.825 0 1.65-.285 2.25-.78l.495.84a4.47 4.47 0 01-2.76.96zm-2.64-4.26h4.86c-.12-1.35-1.155-2.325-2.43-2.325-1.245 0-2.265.96-2.43 2.325zm60.037 4.26c-1.29 0-2.055-.63-2.055-2.34V4.64h-1.095v-.945h1.095V2.12l1.14-.21v1.785h2.49v.945h-2.49v4.2c0 1.005.435 1.29 1.02 1.29.675 0 1.2-.405 1.2-.405l.375.885c-.285.195-.885.54-1.68.54zm6.47 0c-2.07 0-3.825-1.485-3.825-3.795 0-2.115 1.59-3.81 3.675-3.81 1.95 0 3.495 1.68 3.495 3.765 0 .21-.03.435-.03.45h-5.955c.18 1.455 1.305 2.37 2.655 2.37.825 0 1.65-.285 2.25-.78l.495.84a4.47 4.47 0 01-2.76.96zm-2.64-4.26h4.86c-.12-1.35-1.155-2.325-2.43-2.325-1.245 0-2.265.96-2.43 2.325zm14.418 4.26c-2.145 0-3.84-1.665-3.84-3.795s1.695-3.81 3.84-3.81c1.005 0 1.92.36 2.61.975l-.72.81c-.45-.42-1.11-.675-1.875-.675-1.53 0-2.685 1.14-2.685 2.7 0 1.515 1.11 2.685 2.715 2.685.825 0 1.575-.315 2.085-.825l.66.855c-.705.675-1.695 1.08-2.79 1.08zm7.529 0c-2.145 0-3.84-1.68-3.84-3.795 0-2.13 1.695-3.81 3.84-3.81 2.145 0 3.84 1.68 3.84 3.81 0 2.115-1.695 3.795-3.84 3.795zm0-1.11c1.515 0 2.67-1.155 2.67-2.685 0-1.545-1.155-2.7-2.67-2.7s-2.67 1.155-2.67 2.7c0 1.53 1.155 2.685 2.67 2.685zm5.455.96V3.695h1.14V4.94c.51-.885 1.455-1.395 2.535-1.395 1.83 0 2.64 1.11 2.64 3.03V11h-1.14V6.725c0-1.35-.495-2.07-1.815-2.07-1.305 0-2.22 1.02-2.22 2.235V11h-1.14zm10.56.15c-1.29 0-2.055-.63-2.055-2.34V4.64h-1.095v-.945h1.095V2.12l1.14-.21v1.785h2.49v.945h-2.49v4.2c0 1.005.435 1.29 1.02 1.29.675 0 1.2-.405 1.2-.405l.375.885c-.285.195-.885.54-1.68.54zm6.095 0c-2.025 0-3.45-1.68-3.45-3.795 0-2.145 1.425-3.81 3.45-3.81 1.17 0 2.205.48 2.745 1.425V3.695h1.14V11h-1.14V9.725c-.54.96-1.575 1.425-2.745 1.425zm.255-1.11c1.395 0 2.49-1.155 2.49-2.685s-1.095-2.7-2.49-2.7c-1.455 0-2.535 1.14-2.535 2.7 0 1.545 1.08 2.685 2.535 2.685zm9.086 1.11c-2.145 0-3.84-1.665-3.84-3.795s1.695-3.81 3.84-3.81c1.005 0 1.92.36 2.61.975l-.72.81c-.45-.42-1.11-.675-1.875-.675-1.53 0-2.685 1.14-2.685 2.7 0 1.515 1.11 2.685 2.715 2.685.825 0 1.575-.315 2.085-.825l.66.855c-.705.675-1.695 1.08-2.79 1.08zm6.595 0c-1.29 0-2.055-.63-2.055-2.34V4.64h-1.095v-.945h1.095V2.12l1.14-.21v1.785h2.49v.945h-2.49v4.2c0 1.005.435 1.29 1.02 1.29.675 0 1.2-.405 1.2-.405l.375.885c-.285.195-.885.54-1.68.54zm6.096 0c-2.025 0-3.45-1.68-3.45-3.795 0-2.145 1.425-3.81 3.45-3.81 1.17 0 2.205.48 2.745 1.425V3.695h1.14V11h-1.14V9.725c-.54.96-1.575 1.425-2.745 1.425zm.255-1.11c1.395 0 2.49-1.155 2.49-2.685s-1.095-2.7-2.49-2.7c-1.455 0-2.535 1.14-2.535 2.7 0 1.545 1.08 2.685 2.535 2.685zm6.1 1.11c-.45 0-.78-.36-.78-.795 0-.435.345-.795.78-.795a.8.8 0 01.795.795.8.8 0 01-.795.795zm3.047 0c-.45 0-.78-.36-.78-.795 0-.435.345-.795.78-.795a.8.8 0 01.795.795.8.8 0 01-.795.795zm3.047 0c-.45 0-.78-.36-.78-.795 0-.435.345-.795.78-.795a.8.8 0 01.795.795.8.8 0 01-.795.795z" fill="#275D80"/><path d="M65.947 11V3.5h1.965v1.005c.6-.825 1.455-1.155 2.37-1.155 1.98 0 2.67 1.275 2.67 3.33V11h-2.01V6.935c0-1.095-.285-1.68-1.305-1.68-1.005 0-1.68.81-1.68 1.95V11h-2.01zm11.047.15c-2.07 0-2.73-1.215-2.73-3.165V3.5h2.01v4.215c0 1.05.45 1.53 1.38 1.53 1.05 0 1.56-.885 1.56-1.905V3.5h2.01V11h-1.89V9.95c-.45.735-1.47 1.2-2.34 1.2zm5.754-.15V3.5h1.965v1.005c.6-.825 1.455-1.155 2.37-1.155 1.98 0 2.67 1.275 2.67 3.33V11h-2.01V6.935c0-1.095-.285-1.68-1.305-1.68-1.005 0-1.68.81-1.68 1.95V11h-2.01zm12.203.15c-2.235 0-4.005-1.725-4.005-3.9s1.77-3.9 4.005-3.9a4.14 4.14 0 012.685.96l-1.215 1.41c-.345-.315-.825-.51-1.425-.51-1.17 0-2.01.855-2.01 2.04 0 1.17.795 2.04 2.07 2.04.63 0 1.245-.24 1.635-.615l1.065 1.5c-.72.615-1.725.975-2.805.975zm6.768 0c-2.07 0-3.39-1.74-3.39-3.9s1.32-3.9 3.39-3.9c.87 0 1.8.345 2.34 1.065V3.5h1.965V11h-1.965v-.9c-.525.72-1.47 1.05-2.34 1.05zm.51-1.86c1.035 0 1.785-.84 1.785-2.04 0-1.17-.75-2.04-1.785-2.04-1.08 0-1.86.87-1.86 2.04 0 1.185.78 2.04 1.86 2.04z" fill="#091C29"/></svg>