<svg width="269" height="18" viewBox="0 0 269 18" fill="none" xmlns="http://www.w3.org/2000/svg"><path d="m.078 15 5.24-12.96h3.92L14.478 15h-3.88l-.6-1.68h-5.44l-.6 1.68H.078zm5.5-4.6h3.4l-1.54-4.38c-.12-.32-.14-.44-.16-.52 0 0-.04.18-.16.52l-1.54 4.38zm10.066 7.54V4.78h3.44v1.14c.82-1.1 1.96-1.34 2.78-1.34 2.84 0 4.38 2.36 4.38 5.3 0 2.96-1.64 5.32-4.5 5.32-.82 0-1.84-.28-2.46-1.06v3.8h-3.64zm5.24-5.94c.96 0 1.64-.86 1.64-2.1 0-1.22-.68-2.12-1.64-2.12-.96 0-1.64.9-1.64 2.12 0 1.24.68 2.1 1.64 2.1zm6.952 3V4.78h3.54V6.6c.06-.44.94-2.02 3.34-2.02v3.96c-2.64 0-3.24 1.1-3.24 3.02V15h-3.64zm13.826.2c-3.1 0-5.74-1.94-5.74-5.3 0-2.96 2.3-5.32 5.32-5.32 2.9 0 5.12 2.36 5.12 5.32 0 .62-.08 1.18-.08 1.18h-6.78c.3.96 1.2 1.32 2.18 1.32.86 0 1.78-.26 2.42-.62l1.22 2.46c-1.14.7-2.4.96-3.66.96zm-2.26-6.18h3.64c-.12-.94-.86-1.58-1.8-1.58-.9 0-1.62.64-1.84 1.58zm8.56 5.98V4.78h3.44v1.18c.94-1.1 2.06-1.38 3.08-1.38 2.58 0 3.58 1.52 3.58 4.52V15h-3.64V9.56c0-1.16-.44-1.58-1.14-1.58-1.12 0-1.68.94-1.68 2.2V15h-3.64zm15.982.2c-2.84 0-4.38-2.36-4.38-5.3 0-2.96 1.64-5.32 4.5-5.32.82 0 1.84.28 2.46 1.06v-3.8h3.64V15h-3.44v-1.14c-.54 1.04-1.96 1.34-2.78 1.34zm.96-3.2c.96 0 1.64-.86 1.64-2.1 0-1.22-.68-2.12-1.64-2.12-.96 0-1.64.9-1.64 2.12 0 1.24.68 2.1 1.64 2.1zm12.593 3.2c-3.1 0-5.74-1.94-5.74-5.3 0-2.96 2.3-5.32 5.32-5.32 2.9 0 5.12 2.36 5.12 5.32 0 .62-.08 1.18-.08 1.18h-6.78c.3.96 1.2 1.32 2.18 1.32.86 0 1.78-.26 2.42-.62l1.22 2.46c-1.14.7-2.4.96-3.66.96zm-2.26-6.18h3.64c-.12-.94-.86-1.58-1.8-1.58-.9 0-1.62.64-1.84 1.58zM92.61 15.2c-2.84 0-4.38-2.36-4.38-5.3 0-2.96 1.54-5.32 4.38-5.32.82 0 2.18.28 2.78 1.34V4.78h3.44V15h-3.44v-1.14c-.56 1.04-1.96 1.34-2.78 1.34zm.96-3.2c.96 0 1.64-.86 1.64-2.1 0-1.22-.68-2.12-1.64-2.12-.96 0-1.64.9-1.64 2.12 0 1.24.68 2.1 1.64 2.1zm15.866 3.2c-2.84 0-4.38-2.36-4.38-5.3 0-2.96 1.64-5.32 4.5-5.32.82 0 1.84.28 2.46 1.06v-3.8h3.64V15h-3.44v-1.14c-.54 1.04-1.96 1.34-2.78 1.34zm.96-3.2c.96 0 1.64-.86 1.64-2.1 0-1.22-.68-2.12-1.64-2.12-.96 0-1.64.9-1.64 2.12 0 1.24.68 2.1 1.64 2.1zm12.592 3.2c-3.1 0-5.74-1.94-5.74-5.3 0-2.96 2.3-5.32 5.32-5.32 2.9 0 5.12 2.36 5.12 5.32 0 .62-.08 1.18-.08 1.18h-6.78c.3.96 1.2 1.32 2.18 1.32.86 0 1.78-.26 2.42-.62l1.22 2.46c-1.14.7-2.4.96-3.66.96zm-2.26-6.18h3.64c-.12-.94-.86-1.58-1.8-1.58-.9 0-1.62.64-1.84 1.58zm12.64 6.18c-1.96 0-3.24-1.26-3.24-3.5V7.66h-1.5V4.78h1.5V2.94l3.64-.9v2.74h2.26v2.88h-2.26v3.76c0 .48.24.64.56.64.3 0 .66-.14.92-.32l.98 2.66c-.88.62-1.96.8-2.86.8zm9.551 0c-3.1 0-5.74-1.94-5.74-5.3 0-2.96 2.3-5.32 5.32-5.32 2.9 0 5.12 2.36 5.12 5.32 0 .62-.08 1.18-.08 1.18h-6.78c.3.96 1.2 1.32 2.18 1.32.86 0 1.78-.26 2.42-.62l1.22 2.46c-1.14.7-2.4.96-3.66.96zm-2.26-6.18h3.64c-.12-.94-.86-1.58-1.8-1.58-.9 0-1.62.64-1.84 1.58zm13.881 6.18c-3.14 0-5.52-2.36-5.52-5.3 0-2.96 2.38-5.32 5.52-5.32 1.4 0 2.54.42 3.62 1.28l-2.1 2.52c-.38-.36-.8-.6-1.42-.6-1.18 0-1.94.9-1.94 2.12 0 1.24.74 2.1 2.02 2.1.7 0 1.28-.3 1.72-.74l1.82 2.68c-.98.82-2.28 1.26-3.72 1.26zm9.018 0c-1.96 0-3.24-1.26-3.24-3.5V7.66h-1.5V4.78h1.5V2.94l3.64-.9v2.74h2.26v2.88h-2.26v3.76c0 .48.24.64.56.64.3 0 .66-.14.92-.32l.98 2.66c-.88.62-1.96.8-2.86.8zm8.191 0c-2.84 0-4.38-2.36-4.38-5.3 0-2.96 1.54-5.32 4.38-5.32.82 0 2.18.28 2.78 1.34V4.78h3.44V15h-3.44v-1.14c-.56 1.04-1.96 1.34-2.78 1.34zm.96-3.2c.96 0 1.64-.86 1.64-2.1 0-1.22-.68-2.12-1.64-2.12-.96 0-1.64.9-1.64 2.12 0 1.24.68 2.1 1.64 2.1zm7.052 3V4.78h3.54V6.6c.06-.44.94-2.02 3.34-2.02v3.96c-2.64 0-3.24 1.1-3.24 3.02V15h-3.64zm18.46.2c-3.1 0-5.74-1.94-5.74-5.3 0-2.96 2.3-5.32 5.32-5.32 2.9 0 5.12 2.36 5.12 5.32 0 .62-.08 1.18-.08 1.18h-6.78c.3.96 1.2 1.32 2.18 1.32.86 0 1.78-.26 2.42-.62l1.22 2.46c-1.14.7-2.4.96-3.66.96zm-2.26-6.18h3.64c-.12-.94-.86-1.58-1.8-1.58-.9 0-1.62.64-1.84 1.58zm12.32 6.18c-2.34 0-3.64-.7-4.24-1.22l1.16-2.56c.8.54 1.54.86 3.1.86.04 0 1-.06 1-.46 0-.32-.6-.38-1.2-.52-2.22-.54-3.86-1.44-3.86-3.32 0-2.24 2.04-3.4 4.2-3.4 1.98 0 3.16.44 4.14.96l-1.08 2.44c-1.18-.46-2.26-.6-2.94-.6-.36 0-.64.12-.64.32 0 .38.86.52 1.88.8 1.44.42 3.18 1.12 3.18 3.18 0 2.74-2.78 3.52-4.7 3.52zm10.169 0c-1.96 0-3.24-1.26-3.24-3.5V7.66h-1.5V4.78h1.5V2.94l3.64-.9v2.74h2.26v2.88h-2.26v3.76c0 .48.24.64.56.64.3 0 .66-.14.92-.32l.98 2.66c-.88.62-1.96.8-2.86.8zm8.19 0c-2.84 0-4.38-2.36-4.38-5.3 0-2.96 1.54-5.32 4.38-5.32.82 0 2.18.28 2.78 1.34V4.78h3.44V15h-3.44v-1.14c-.56 1.04-1.96 1.34-2.78 1.34zm.96-3.2c.96 0 1.64-.86 1.64-2.1 0-1.22-.68-2.12-1.64-2.12-.96 0-1.64.9-1.64 2.12 0 1.24.68 2.1 1.64 2.1zm7.653 3V7.74h-1.54V4.86h1.54v-.64c0-2.24 1.28-3.5 3.24-3.5.9 0 1.98.14 2.86.58l-.98 2.66c-.26-.1-.54-.16-.8-.16-.38 0-.68.2-.68.84v.22h2v2.88h-2V15h-3.64zm10.85.2c-2.84 0-4.38-2.36-4.38-5.3 0-2.96 1.54-5.32 4.38-5.32.82 0 2.18.28 2.78 1.34V4.78h3.44V15h-3.44v-1.14c-.56 1.04-1.96 1.34-2.78 1.34zm.96-3.2c.96 0 1.64-.86 1.64-2.1 0-1.22-.68-2.12-1.64-2.12-.96 0-1.64.9-1.64 2.12 0 1.24.68 2.1 1.64 2.1zm10.812 3.2c-2.34 0-3.64-.7-4.24-1.22l1.16-2.56c.8.54 1.54.86 3.1.86.04 0 1-.06 1-.46 0-.32-.6-.38-1.2-.52-2.22-.54-3.86-1.44-3.86-3.32 0-2.24 2.04-3.4 4.2-3.4 1.98 0 3.16.44 4.14.96l-1.08 2.44c-1.18-.46-2.26-.6-2.94-.6-.36 0-.64.12-.64.32 0 .38.86.52 1.88.8 1.44.42 3.18 1.12 3.18 3.18 0 2.74-2.78 3.52-4.7 3.52zm8.228 0c-1.14 0-1.98-.86-1.98-1.96s.84-1.96 1.98-1.96c1.16 0 2.02.86 2.02 1.96s-.86 1.96-2.02 1.96z" fill="#0B2E54"/></svg>