<svg width="152" height="14" viewBox="0 0 152 14" fill="none" xmlns="http://www.w3.org/2000/svg"><path d="M.64 11V2.824h2.752v.944c.752-.88 1.648-1.104 2.464-1.104C7.92 2.664 8.72 3.88 8.72 6.28V11H5.808V6.648c0-.928-.352-1.264-.912-1.264-.896 0-1.344.752-1.344 1.76V11H.64zm12.177.16c-2.464 0-2.976-1.536-2.976-3.616v-4.72h2.912v4.352c0 .864.288 1.264 1.056 1.264.88 0 1.2-.752 1.2-1.76V2.824h2.912V11H15.17v-.896c-.448.576-1.504 1.056-2.352 1.056zm6.386-.16V2.824h2.752v.944c.752-.88 1.648-1.104 2.464-1.104 2.064 0 2.863 1.216 2.863 3.616V11H24.37V6.648c0-.928-.352-1.264-.912-1.264-.895 0-1.343.752-1.343 1.76V11h-2.912zm13.537.16c-2.512 0-4.416-1.888-4.416-4.24 0-2.368 1.904-4.256 4.416-4.256 1.12 0 2.032.336 2.896 1.024l-1.68 2.016c-.304-.288-.64-.48-1.136-.48-.944 0-1.552.72-1.552 1.696 0 .992.592 1.68 1.616 1.68.56 0 1.024-.24 1.376-.592l1.456 2.144c-.784.656-1.824 1.008-2.976 1.008zm6.869 0c-2.272 0-3.504-1.888-3.504-4.24 0-2.368 1.232-4.256 3.504-4.256.656 0 1.744.224 2.224 1.072v-.912h2.752V11h-2.752v-.912c-.448.832-1.568 1.072-2.224 1.072zm.768-2.56c.768 0 1.312-.688 1.312-1.68 0-.976-.544-1.696-1.312-1.696s-1.312.72-1.312 1.696c0 .992.544 1.68 1.312 1.68zm9.029 2.4V.472h2.912V11h-2.912zm8.443.16c-2.512 0-4.416-1.888-4.416-4.24 0-2.368 1.904-4.256 4.416-4.256 2.512 0 4.416 1.888 4.416 4.256 0 2.352-1.904 4.24-4.416 4.24zm0-2.56c.864 0 1.472-.688 1.472-1.68 0-.976-.608-1.696-1.472-1.696s-1.472.72-1.472 1.696c0 .992.608 1.68 1.472 1.68zm13.344 2.56c-2.512 0-4.416-1.888-4.416-4.24 0-2.368 1.904-4.256 4.416-4.256 1.12 0 2.032.336 2.896 1.024l-1.68 2.016c-.304-.288-.64-.48-1.136-.48-.944 0-1.552.72-1.552 1.696 0 .992.592 1.68 1.616 1.68.56 0 1.024-.24 1.376-.592l1.456 2.144c-.784.656-1.824 1.008-2.976 1.008zm7.781 0c-2.512 0-4.416-1.888-4.416-4.24 0-2.368 1.904-4.256 4.416-4.256 2.512 0 4.416 1.888 4.416 4.256 0 2.352-1.904 4.24-4.416 4.24zm0-2.56c.864 0 1.472-.688 1.472-1.68 0-.976-.608-1.696-1.472-1.696s-1.472.72-1.472 1.696c0 .992.608 1.68 1.472 1.68zm5.541 2.4V2.824h2.752v.896c.608-.688 1.552-1.056 2.464-1.056 1.312 0 2.016.528 2.4 1.264.704-1.024 1.792-1.264 2.608-1.264 2.64 0 2.864 2.128 2.864 3.776V11h-2.912V6.776c0-.976-.272-1.424-.912-1.424-.864 0-1.264.784-1.264 1.792V11h-2.912V6.776c0-.976-.272-1.424-.912-1.424-.864 0-1.264.784-1.264 1.792V11h-2.912zm14.281 2.352V2.824h2.752v.912c.656-.88 1.568-1.072 2.224-1.072 2.272 0 3.504 1.888 3.504 4.24 0 2.368-1.312 4.256-3.6 4.256-.656 0-1.472-.224-1.968-.848v3.04h-2.912zm4.192-4.752c.768 0 1.312-.688 1.312-1.68 0-.976-.544-1.696-1.312-1.696s-1.312.72-1.312 1.696c0 .992.544 1.68 1.312 1.68zm8.746 2.56c-2.272 0-3.504-1.888-3.504-4.24 0-2.368 1.232-4.256 3.504-4.256.656 0 1.744.224 2.224 1.072v-.912h2.752V11h-2.752v-.912c-.448.832-1.568 1.072-2.224 1.072zm.768-2.56c.768 0 1.312-.688 1.312-1.68 0-.976-.544-1.696-1.312-1.696s-1.312.72-1.312 1.696c0 .992.544 1.68 1.312 1.68zm5.482 2.4V2.824h2.832V4.28c.048-.352.752-1.616 2.672-1.616v3.168c-2.112 0-2.592.88-2.592 2.416V11h-2.912zm10.045.16c-1.568 0-2.592-1.008-2.592-2.8V5.128h-1.2V2.824h1.2V1.352l2.912-.72v2.192h1.808v2.304h-1.808v3.008c0 .384.192.512.448.512.24 0 .528-.112.736-.256l.784 2.128c-.704.496-1.568.64-2.288.64zm6.393 0c-2.272 0-3.504-1.888-3.504-4.24 0-2.368 1.232-4.256 3.504-4.256.656 0 1.744.224 2.224 1.072v-.912h2.752V11h-2.752v-.912c-.448.832-1.568 1.072-2.224 1.072zm.768-2.56c.768 0 1.312-.688 1.312-1.68 0-.976-.544-1.696-1.312-1.696s-1.312.72-1.312 1.696c0 .992.544 1.68 1.312 1.68zm8.489 2.56c-1.872 0-2.912-.56-3.392-.976l.928-2.048c.64.432 1.232.688 2.48.688.032 0 .8-.048.8-.368 0-.256-.48-.304-.96-.416-1.776-.432-3.088-1.152-3.088-2.656 0-1.792 1.632-2.72 3.36-2.72 1.584 0 2.528.352 3.312.768l-.864 1.952c-.944-.368-1.808-.48-2.352-.48-.288 0-.512.096-.512.256 0 .304.688.416 1.504.64 1.152.336 2.544.896 2.544 2.544 0 2.192-2.224 2.816-3.76 2.816zm6.423 0c-.912 0-1.584-.688-1.584-1.568 0-.88.672-1.568 1.584-1.568.928 0 1.616.688 1.616 1.568 0 .88-.688 1.568-1.616 1.568z" fill="#0B2E54"/></svg>