<svg width="622" height="28" viewBox="0 0 622 28" fill="none" xmlns="http://www.w3.org/2000/svg"><path d="M12.797 16.605H5.05L3.035 21H.094L9.047 1.77 17.684 21h-2.989l-1.898-4.395zm-1.113-2.566L9 7.887l-2.813 6.152h5.497zM22.09 27.211h-2.637V9.586h2.637v1.242c1.039-1.039 2.219-1.558 3.539-1.558 1.57 0 2.863.578 3.879 1.734 1.031 1.148 1.547 2.598 1.547 4.348 0 1.71-.512 3.136-1.535 4.277-1.016 1.133-2.297 1.7-3.844 1.7-1.336 0-2.531-.536-3.586-1.606v7.488zm6.27-11.848c0-1.093-.297-1.984-.891-2.672-.602-.695-1.36-1.043-2.274-1.043-.968 0-1.754.336-2.355 1.008-.602.672-.902 1.555-.902 2.649 0 1.07.3 1.953.902 2.648.594.68 1.375 1.02 2.344 1.02.914 0 1.668-.344 2.261-1.032.61-.687.914-1.546.914-2.578zm5.484-5.777h2.636v1.02c.485-.508.915-.856 1.29-1.043.382-.196.835-.293 1.359-.293.695 0 1.422.226 2.18.68l-1.207 2.413c-.5-.36-.989-.539-1.465-.539-1.438 0-2.157 1.086-2.157 3.258V21h-2.636V9.586zm19.207 6.328h-8.18c.07.938.375 1.684.914 2.238.54.547 1.23.82 2.074.82.657 0 1.2-.156 1.63-.468.421-.313.902-.89 1.44-1.735l2.227 1.243a9.069 9.069 0 01-1.09 1.511 6.037 6.037 0 01-1.23 1.032c-.438.265-.91.46-1.418.586a6.903 6.903 0 01-1.652.187c-1.703 0-3.07-.547-4.102-1.64-1.031-1.102-1.547-2.563-1.547-4.383 0-1.805.5-3.266 1.5-4.383 1.008-1.102 2.344-1.652 4.008-1.652 1.68 0 3.008.535 3.984 1.605.97 1.063 1.453 2.535 1.453 4.418l-.011.621zm-2.707-2.156c-.367-1.406-1.254-2.11-2.66-2.11-.32 0-.621.051-.903.153a2.49 2.49 0 00-.773.422 2.63 2.63 0 00-.586.656c-.164.258-.29.55-.375.879h5.297zm5.601-4.172h2.649v1.055c.922-.914 1.96-1.371 3.117-1.371 1.328 0 2.363.418 3.105 1.253.641.711.961 1.872.961 3.48V21H63.13v-6.375c0-1.125-.156-1.902-.469-2.332-.304-.438-.86-.656-1.664-.656-.875 0-1.496.289-1.863.867-.36.57-.54 1.566-.54 2.988V21h-2.648V9.586zm21.586-8.379h2.649V21H77.53v-1.195c-1.039 1.015-2.215 1.523-3.527 1.523-1.563 0-2.86-.57-3.89-1.71-1.024-1.165-1.536-2.618-1.536-4.36 0-1.703.512-3.125 1.535-4.266 1.016-1.148 2.293-1.722 3.832-1.722 1.336 0 2.532.546 3.586 1.64V1.207zm-6.258 14.05c0 1.095.293 1.985.88 2.673.6.695 1.359 1.043 2.273 1.043.976 0 1.765-.336 2.367-1.008.601-.695.902-1.578.902-2.649 0-1.07-.3-1.953-.902-2.648-.602-.68-1.383-1.02-2.344-1.02-.906 0-1.664.344-2.273 1.032-.602.695-.903 1.554-.903 2.578zm22.63.657h-8.18c.07.938.375 1.684.914 2.238.539.547 1.23.82 2.074.82.656 0 1.2-.156 1.629-.468.422-.313.902-.89 1.441-1.735l2.227 1.243a9.069 9.069 0 01-1.09 1.511 6.037 6.037 0 01-1.23 1.032c-.438.265-.91.46-1.419.586a6.903 6.903 0 01-1.652.187c-1.703 0-3.07-.547-4.101-1.64-1.032-1.102-1.547-2.563-1.547-4.383 0-1.805.5-3.266 1.5-4.383 1.008-1.102 2.344-1.652 4.008-1.652 1.68 0 3.007.535 3.984 1.605.969 1.063 1.453 2.535 1.453 4.418l-.012.621zm-2.708-2.156c-.367-1.406-1.254-2.11-2.66-2.11-.32 0-.62.051-.902.153a2.49 2.49 0 00-.774.422c-.226.18-.421.398-.586.656a3.08 3.08 0 00-.375.879h5.297zm21.891-3.68v3.504c-.602-.734-1.141-1.238-1.617-1.512-.469-.28-1.02-.422-1.653-.422-.992 0-1.816.348-2.472 1.043-.656.696-.985 1.567-.985 2.614 0 1.07.317 1.949.95 2.636.64.688 1.457 1.032 2.449 1.032.633 0 1.191-.137 1.676-.41.468-.266 1.019-.782 1.652-1.547v3.48c-1.07.555-2.141.832-3.211.832-1.766 0-3.242-.57-4.43-1.71-1.187-1.15-1.781-2.575-1.781-4.278 0-1.703.602-3.14 1.805-4.313 1.203-1.172 2.679-1.757 4.429-1.757 1.125 0 2.188.27 3.188.808zm2.016 5.133c0-1.649.589-3.05 1.769-4.207 1.18-1.156 2.617-1.734 4.313-1.734 1.703 0 3.148.582 4.336 1.746 1.171 1.164 1.757 2.593 1.757 4.289 0 1.71-.589 3.144-1.769 4.3-1.188 1.149-2.645 1.723-4.371 1.723-1.711 0-3.145-.586-4.301-1.758-1.156-1.156-1.734-2.61-1.734-4.36zm2.695.047c0 1.14.305 2.043.914 2.707.625.672 1.449 1.008 2.473 1.008 1.031 0 1.855-.332 2.472-.996.617-.665.926-1.551.926-2.66 0-1.11-.309-1.997-.926-2.66-.625-.673-1.449-1.009-2.472-1.009-1.008 0-1.825.336-2.45 1.008-.625.672-.937 1.54-.937 2.602zm7.348-11.297l-4.266 3.867-1.441-.89 3.222-4.266 2.485 1.289zm4.933 5.625h2.637v1.055c.508-.532.941-.891 1.301-1.079.382-.195.863-.292 1.441-.292 1.289 0 2.309.562 3.059 1.687.828-1.125 1.949-1.687 3.363-1.687 2.57 0 3.855 1.558 3.855 4.675V21h-2.648v-6.34c0-1.094-.133-1.867-.398-2.32-.274-.461-.723-.692-1.348-.692-.727 0-1.258.274-1.594.82-.328.548-.492 1.427-.492 2.637V21h-2.649v-6.305c0-2.03-.585-3.047-1.757-3.047-.743 0-1.286.278-1.629.832-.336.555-.504 1.43-.504 2.625V21h-2.637V9.586zm18.445 5.625c0-1.649.59-3.05 1.77-4.207 1.18-1.156 2.617-1.734 4.312-1.734 1.704 0 3.149.582 4.336 1.746 1.172 1.164 1.758 2.593 1.758 4.289 0 1.71-.59 3.144-1.769 4.3-1.188 1.149-2.645 1.723-4.371 1.723-1.711 0-3.145-.586-4.301-1.758-1.156-1.156-1.735-2.61-1.735-4.36zm2.696.047c0 1.14.304 2.043.914 2.707.625.672 1.449 1.008 2.472 1.008 1.032 0 1.856-.332 2.473-.996.617-.665.926-1.551.926-2.66 0-1.11-.309-1.997-.926-2.66-.625-.673-1.449-1.009-2.473-1.009-1.007 0-1.824.336-2.449 1.008-.625.672-.937 1.54-.937 2.602zm22.324 11.953h-2.637V9.586h2.637v1.242c1.039-1.039 2.219-1.558 3.539-1.558 1.57 0 2.863.578 3.879 1.734 1.031 1.148 1.547 2.598 1.547 4.348 0 1.71-.512 3.136-1.535 4.277-1.016 1.133-2.297 1.7-3.844 1.7-1.336 0-2.531-.536-3.586-1.606v7.488zm6.269-11.848c0-1.093-.296-1.984-.89-2.672-.602-.695-1.36-1.043-2.274-1.043-.968 0-1.753.336-2.355 1.008-.602.672-.902 1.555-.902 2.649 0 1.07.3 1.953.902 2.648.594.68 1.375 1.02 2.344 1.02.914 0 1.668-.344 2.261-1.032.61-.687.914-1.546.914-2.578zm5.485-5.777h2.637v1.02c.484-.508.914-.856 1.289-1.043.382-.196.836-.293 1.359-.293.695 0 1.422.226 2.18.68l-1.207 2.413c-.5-.36-.989-.539-1.465-.539-1.438 0-2.156 1.086-2.156 3.258V21h-2.637V9.586zm8.226 5.625c0-1.649.59-3.05 1.77-4.207 1.18-1.156 2.617-1.734 4.312-1.734 1.704 0 3.149.582 4.336 1.746 1.172 1.164 1.758 2.593 1.758 4.289 0 1.71-.59 3.144-1.769 4.3-1.188 1.149-2.645 1.723-4.371 1.723-1.711 0-3.145-.586-4.301-1.758-1.156-1.156-1.735-2.61-1.735-4.36zm2.696.047c0 1.14.304 2.043.914 2.707.625.672 1.449 1.008 2.472 1.008 1.032 0 1.856-.332 2.473-.996.617-.665.926-1.551.926-2.66 0-1.11-.309-1.997-.926-2.66-.625-.673-1.449-1.009-2.473-1.009-1.007 0-1.824.336-2.449 1.008-.625.672-.937 1.54-.937 2.602zm15.14-3.211V21h-2.636v-8.953h-1.125V9.586h1.125V5.402h2.636v4.184h2.051v2.46h-2.051zm14.45 3.867h-8.18c.07.938.375 1.684.914 2.238.539.547 1.23.82 2.074.82.656 0 1.199-.156 1.629-.468.422-.313.902-.89 1.442-1.735l2.226 1.243a9.075 9.075 0 01-1.09 1.511 6.053 6.053 0 01-1.23 1.032c-.438.265-.91.46-1.418.586a6.908 6.908 0 01-1.653.187c-1.703 0-3.07-.547-4.101-1.64-1.031-1.102-1.547-2.563-1.547-4.383 0-1.805.5-3.266 1.5-4.383 1.008-1.102 2.344-1.652 4.008-1.652 1.679 0 3.008.535 3.984 1.605.969 1.063 1.453 2.535 1.453 4.418l-.011.621zm-2.707-2.156c-.368-1.406-1.254-2.11-2.661-2.11-.32 0-.621.051-.902.153a2.485 2.485 0 00-.773.422c-.227.18-.422.398-.586.656a3.08 3.08 0 00-.375.879h5.297zm16.64 6.973c0 .538-.019 1.011-.058 1.417a9.376 9.376 0 01-.141 1.09c-.188.86-.555 1.598-1.102 2.215-1.031 1.188-2.449 1.781-4.253 1.781-1.524 0-2.778-.41-3.762-1.23-1.016-.844-1.602-2.012-1.758-3.504h2.648c.102.563.27.996.504 1.3.547.712 1.344 1.067 2.391 1.067 1.93 0 2.894-1.183 2.894-3.55v-1.594c-1.046 1.07-2.253 1.605-3.621 1.605-1.554 0-2.828-.562-3.82-1.687-1-1.141-1.5-2.567-1.5-4.278 0-1.664.465-3.078 1.395-4.242 1-1.234 2.32-1.851 3.961-1.851 1.437 0 2.632.535 3.585 1.605v-1.29h2.637V20.73zm-2.531-5.415c0-1.109-.297-1.996-.891-2.66-.601-.68-1.371-1.02-2.308-1.02-1 0-1.789.372-2.367 1.114-.524.664-.786 1.523-.786 2.578 0 1.04.262 1.89.786 2.555.57.726 1.359 1.09 2.367 1.09s1.804-.367 2.39-1.102c.539-.664.809-1.515.809-2.555zm16.254.598h-8.18c.07.938.375 1.684.914 2.238.539.547 1.231.82 2.074.82.657 0 1.2-.156 1.629-.468.422-.313.903-.89 1.442-1.735l2.226 1.243a9.018 9.018 0 01-1.09 1.511 6 6 0 01-1.23 1.032c-.438.265-.91.46-1.418.586a6.905 6.905 0 01-1.652.187c-1.703 0-3.071-.547-4.102-1.64-1.031-1.102-1.547-2.563-1.547-4.383 0-1.805.5-3.266 1.5-4.383 1.008-1.102 2.344-1.652 4.008-1.652 1.68 0 3.008.535 3.984 1.605.969 1.063 1.454 2.535 1.454 4.418l-.012.621zm-2.707-2.156c-.367-1.406-1.254-2.11-2.66-2.11-.321 0-.621.051-.903.153a2.485 2.485 0 00-.773.422c-.227.18-.422.398-.586.656a3.08 3.08 0 00-.375.879h5.297zm5.601-4.172h2.637v1.02c.484-.508.914-.856 1.289-1.043.383-.196.836-.293 1.36-.293.695 0 1.421.226 2.179.68l-1.207 2.413c-.5-.36-.988-.539-1.465-.539-1.437 0-2.156 1.086-2.156 3.258V21h-2.637V9.586zm12.563 2.46V21h-2.637v-8.953h-1.125V9.586h1.125V5.402h2.637v4.184h2.051v2.46h-2.051zm14.449 3.868h-8.18c.071.938.375 1.684.914 2.238.54.547 1.231.82 2.075.82.656 0 1.199-.156 1.629-.468.421-.313.902-.89 1.441-1.735l2.227 1.243a9.075 9.075 0 01-1.09 1.511 6.031 6.031 0 01-1.231 1.032c-.437.265-.91.46-1.418.586a6.9 6.9 0 01-1.652.187c-1.703 0-3.07-.547-4.102-1.64-1.031-1.102-1.546-2.563-1.546-4.383 0-1.805.5-3.266 1.5-4.383 1.007-1.102 2.343-1.652 4.007-1.652 1.68 0 3.008.535 3.985 1.605.968 1.063 1.453 2.535 1.453 4.418l-.012.621zm-2.707-2.156c-.367-1.406-1.254-2.11-2.66-2.11-.32 0-.621.051-.902.153-.282.094-.54.234-.774.422-.226.18-.422.398-.586.656a3.08 3.08 0 00-.375.879h5.297zm21.891-3.68v3.504c-.602-.734-1.141-1.238-1.617-1.512-.469-.28-1.02-.422-1.653-.422-.992 0-1.816.348-2.473 1.043-.656.696-.984 1.567-.984 2.614 0 1.07.317 1.949.949 2.636.641.688 1.457 1.032 2.45 1.032.632 0 1.191-.137 1.675-.41.469-.266 1.02-.782 1.653-1.547v3.48c-1.071.555-2.141.832-3.211.832-1.766 0-3.242-.57-4.43-1.71-1.187-1.15-1.781-2.575-1.781-4.278 0-1.703.601-3.14 1.805-4.313 1.203-1.172 2.679-1.757 4.429-1.757 1.125 0 2.188.27 3.188.808zm2.015 5.133c0-1.649.59-3.05 1.77-4.207 1.18-1.156 2.617-1.734 4.312-1.734 1.703 0 3.149.582 4.336 1.746 1.172 1.164 1.758 2.593 1.758 4.289 0 1.71-.59 3.144-1.769 4.3-1.188 1.149-2.645 1.723-4.372 1.723-1.71 0-3.144-.586-4.3-1.758-1.157-1.156-1.735-2.61-1.735-4.36zm2.696.047c0 1.14.304 2.043.914 2.707.625.672 1.449 1.008 2.472 1.008 1.032 0 1.856-.332 2.473-.996.617-.665.926-1.551.926-2.66 0-1.11-.309-1.997-.926-2.66-.625-.673-1.449-1.009-2.473-1.009-1.007 0-1.824.336-2.449 1.008-.625.672-.937 1.54-.937 2.602zm12.281-5.672h2.648v1.055c.922-.914 1.961-1.371 3.117-1.371 1.329 0 2.364.418 3.106 1.253.641.711.961 1.872.961 3.48V21h-2.649v-6.375c0-1.125-.156-1.902-.468-2.332-.305-.438-.86-.656-1.664-.656-.875 0-1.496.289-1.864.867-.359.57-.539 1.566-.539 2.988V21h-2.648V9.586zm15.891 2.46V21h-2.637v-8.953h-1.125V9.586h1.125V5.402h2.637v4.184h2.05v2.46h-2.05zm3.843-2.46h2.637v1.02c.484-.508.914-.856 1.289-1.043.383-.196.836-.293 1.359-.293.696 0 1.422.226 2.18.68l-1.207 2.413c-.5-.36-.988-.539-1.465-.539-1.437 0-2.156 1.086-2.156 3.258V21h-2.637V9.586zm17.227 0h2.648V21h-2.648v-1.195c-1.086 1.015-2.254 1.523-3.504 1.523-1.578 0-2.883-.57-3.914-1.71-1.024-1.165-1.535-2.618-1.535-4.36 0-1.711.511-3.137 1.535-4.277 1.023-1.141 2.305-1.711 3.844-1.711 1.328 0 2.519.546 3.574 1.64V9.586zm-6.258 5.672c0 1.094.293 1.984.879 2.672.601.695 1.359 1.043 2.273 1.043.977 0 1.766-.336 2.368-1.008.601-.695.902-1.578.902-2.649 0-1.07-.301-1.953-.902-2.648-.602-.68-1.383-1.02-2.344-1.02-.906 0-1.664.344-2.274 1.032-.601.695-.902 1.554-.902 2.578zm30.035.656h-8.18c.071.938.375 1.684.915 2.238.539.547 1.23.82 2.074.82.656 0 1.199-.156 1.629-.468.422-.313.902-.89 1.441-1.735l2.227 1.243a9.075 9.075 0 01-1.09 1.511 6.031 6.031 0 01-1.231 1.032c-.437.265-.91.46-1.418.586a6.893 6.893 0 01-1.652.187c-1.703 0-3.07-.547-4.102-1.64-1.031-1.102-1.546-2.563-1.546-4.383 0-1.805.5-3.266 1.5-4.383 1.007-1.102 2.343-1.652 4.007-1.652 1.68 0 3.008.535 3.985 1.605.968 1.063 1.453 2.535 1.453 4.418l-.012.621zm-2.707-2.156c-.367-1.406-1.254-2.11-2.66-2.11-.32 0-.621.051-.902.153a2.49 2.49 0 00-.774.422c-.226.18-.422.398-.586.656a3.08 3.08 0 00-.375.879h5.297zm8.238-12.551V21h-2.636V1.207h2.636zm13.477 10.84V21h-2.648v-8.953h-.938V9.586h.938V5.18c0-1.438.25-2.453.75-3.047.687-.828 1.687-1.242 3-1.242.468 0 1.058.136 1.769.41v2.695l-.269-.14c-.571-.29-1.04-.434-1.407-.434-.468 0-.785.168-.949.504-.164.328-.246.96-.246 1.898v3.762h2.871v2.46h-2.871zm4.395-2.461h2.636v1.02c.485-.508.914-.856 1.289-1.043.383-.196.836-.293 1.36-.293.695 0 1.422.226 2.179.68l-1.207 2.413c-.5-.36-.988-.539-1.465-.539-1.437 0-2.156 1.086-2.156 3.258V21h-2.636V9.586zm17.226 0h2.648V21h-2.648v-1.195c-1.086 1.015-2.254 1.523-3.504 1.523-1.578 0-2.883-.57-3.914-1.71-1.023-1.165-1.535-2.618-1.535-4.36 0-1.711.512-3.137 1.535-4.277 1.024-1.141 2.305-1.711 3.844-1.711 1.328 0 2.519.546 3.574 1.64V9.586zm-6.258 5.672c0 1.094.293 1.984.879 2.672.602.695 1.36 1.043 2.274 1.043.976 0 1.765-.336 2.367-1.008.601-.695.902-1.578.902-2.649 0-1.07-.301-1.953-.902-2.648-.602-.68-1.383-1.02-2.344-1.02-.906 0-1.664.344-2.273 1.032-.602.695-.903 1.554-.903 2.578zm14.871-5.672v6.55c0 1.891.746 2.837 2.239 2.837 1.492 0 2.238-.946 2.238-2.836V9.586h2.637v6.61c0 .913-.114 1.702-.34 2.366-.219.594-.598 1.13-1.137 1.606-.891.773-2.023 1.16-3.398 1.16-1.368 0-2.496-.387-3.387-1.16-.547-.477-.934-1.012-1.16-1.605-.219-.532-.328-1.32-.328-2.368v-6.61h2.636zm18.856-8.379h2.648V21h-2.648v-1.195c-1.039 1.015-2.215 1.523-3.528 1.523-1.562 0-2.859-.57-3.89-1.71-1.024-1.165-1.535-2.618-1.535-4.36 0-1.703.511-3.125 1.535-4.266 1.015-1.148 2.293-1.722 3.832-1.722 1.336 0 2.531.546 3.586 1.64V1.207zm-6.258 14.05c0 1.095.293 1.985.879 2.673.601.695 1.359 1.043 2.273 1.043.977 0 1.766-.336 2.368-1.008.601-.695.902-1.578.902-2.649 0-1.07-.301-1.953-.902-2.648-.602-.68-1.383-1.02-2.344-1.02-.906 0-1.664.344-2.274 1.032-.601.695-.902 1.554-.902 2.578zm22.629.657h-8.18c.071.938.375 1.684.914 2.238.539.547 1.231.82 2.074.82.657 0 1.2-.156 1.629-.468.422-.313.903-.89 1.442-1.735l2.226 1.243a9.072 9.072 0 01-1.089 1.511 6.031 6.031 0 01-1.231 1.032c-.437.265-.91.46-1.418.586a6.905 6.905 0 01-1.652.187c-1.703 0-3.071-.547-4.102-1.64-1.031-1.102-1.547-2.563-1.547-4.383 0-1.805.5-3.266 1.5-4.383 1.008-1.102 2.344-1.652 4.008-1.652 1.68 0 3.008.535 3.984 1.605.969 1.063 1.454 2.535 1.454 4.418l-.012.621zm-2.707-2.156c-.367-1.406-1.254-2.11-2.66-2.11-.321 0-.621.051-.903.153a2.485 2.485 0 00-.773.422c-.227.18-.422.398-.586.656a3.08 3.08 0 00-.375.879h5.297zm21.422-4.172h2.648V21h-2.648v-1.195c-1.086 1.015-2.254 1.523-3.504 1.523-1.578 0-2.883-.57-3.914-1.71-1.024-1.165-1.535-2.618-1.535-4.36 0-1.711.511-3.137 1.535-4.277 1.023-1.141 2.304-1.711 3.844-1.711 1.328 0 2.519.546 3.574 1.64V9.586zm-6.258 5.672c0 1.094.293 1.984.879 2.672.601.695 1.359 1.043 2.273 1.043.977 0 1.766-.336 2.367-1.008.602-.695.903-1.578.903-2.649 0-1.07-.301-1.953-.903-2.648-.601-.68-1.382-1.02-2.343-1.02-.907 0-1.664.344-2.274 1.032-.601.695-.902 1.554-.902 2.578z" fill="#DEEDFC"/><path d="M496.268 21l3.072-18.096h4.656l3.624 9.648 3.6-9.648h4.656L518.948 21h-4.68l-1.56-10.416L508.436 21h-1.872l-4.056-10.416L500.948 21h-4.68zm33.595-7.944c-.144-.608-.44-1.096-.888-1.464-.448-.368-.992-.552-1.632-.552-.672 0-1.224.176-1.656.528-.416.352-.68.848-.792 1.488h4.968zm-5.088 2.52c0 1.872.88 2.808 2.64 2.808.944 0 1.656-.384 2.136-1.152h4.2c-.848 2.816-2.968 4.224-6.36 4.224-1.04 0-1.992-.152-2.856-.456a6.656 6.656 0 01-2.232-1.344 6.015 6.015 0 01-1.416-2.064c-.336-.8-.504-1.696-.504-2.688 0-1.024.16-1.944.48-2.76a5.81 5.81 0 011.368-2.112 5.943 5.943 0 012.136-1.32c.848-.32 1.8-.48 2.856-.48 1.04 0 1.976.16 2.808.48a5.56 5.56 0 012.112 1.344c.576.592 1.016 1.32 1.32 2.184.304.848.456 1.808.456 2.88v.456h-9.144zm15.659-.768c0 .4.072.776.216 1.128.144.336.336.632.576.888.256.256.552.456.888.6a2.95 2.95 0 001.128.216c.384 0 .744-.072 1.08-.216a2.49 2.49 0 00.888-.6c.256-.256.456-.552.6-.888.16-.336.24-.696.24-1.08 0-.384-.08-.744-.24-1.08a2.742 2.742 0 00-.6-.912 2.49 2.49 0 00-.888-.6 2.712 2.712 0 00-1.08-.216c-.384 0-.752.072-1.104.216a2.808 2.808 0 00-.888.6c-.24.256-.44.552-.6.888-.144.32-.216.672-.216 1.056zm5.472-13.728h4.368V21h-4.368v-1.368c-.928 1.168-2.184 1.752-3.768 1.752a5.99 5.99 0 01-4.44-1.896c-.56-.592-1-1.288-1.32-2.088a7.237 7.237 0 01-.456-2.592c0-.88.144-1.712.432-2.496a6.42 6.42 0 011.272-2.088 5.85 5.85 0 011.944-1.392 5.975 5.975 0 012.52-.528c1.536 0 2.808.536 3.816 1.608V1.08zm11.668 7.608V21h-4.344V8.688h4.344zm-4.632-4.728c0-.336.064-.648.192-.936.128-.304.304-.568.528-.792.224-.224.48-.4.768-.528.304-.128.624-.192.96-.192.336 0 .648.064.936.192.304.128.568.304.792.528.224.224.4.488.528.792.128.288.192.6.192.936 0 .336-.064.656-.192.96a2.531 2.531 0 01-.528.768c-.224.224-.488.4-.792.528-.288.128-.6.192-.936.192-.336 0-.656-.064-.96-.192a2.531 2.531 0 01-.768-.528c-.224-.224-.4-.48-.528-.768a2.449 2.449 0 01-.192-.96zm16.889 8.712c-.752-.512-1.512-.768-2.28-.768-.416 0-.808.072-1.176.216a2.824 2.824 0 00-.936.624 2.8 2.8 0 00-.648.936 3.146 3.146 0 00-.216 1.2c0 .432.072.832.216 1.2.16.352.368.664.624.936.272.256.592.456.96.6.368.144.76.216 1.176.216.816 0 1.576-.28 2.28-.84v3.696c-1.072.464-2.088.696-3.048.696a7.296 7.296 0 01-2.568-.456 6.766 6.766 0 01-2.136-1.296 6.704 6.704 0 01-1.464-2.04c-.368-.8-.552-1.688-.552-2.664 0-.976.176-1.864.528-2.664a6.244 6.244 0 011.44-2.088 6.297 6.297 0 012.16-1.368 7.294 7.294 0 012.712-.504c1.056 0 2.032.224 2.928.672v3.696zm6.509 2.136c0 .4.072.776.216 1.128.144.336.336.632.576.888.256.256.552.456.888.6a2.95 2.95 0 001.128.216c.384 0 .744-.072 1.08-.216a2.49 2.49 0 00.888-.6c.256-.256.456-.552.6-.888.16-.336.24-.696.24-1.08 0-.384-.08-.744-.24-1.08a2.742 2.742 0 00-.6-.912 2.49 2.49 0 00-.888-.6 2.712 2.712 0 00-1.08-.216c-.4 0-.776.072-1.128.216a2.808 2.808 0 00-.888.6c-.24.256-.432.552-.576.888-.144.32-.216.672-.216 1.056zm5.472-6.12h4.368V21h-4.368v-1.368c-.928 1.168-2.184 1.752-3.768 1.752-.896 0-1.72-.16-2.472-.48a6.115 6.115 0 01-1.968-1.392c-.56-.592-1-1.288-1.32-2.088a7.306 7.306 0 01-.456-2.616c0-.88.152-1.712.456-2.496a6.42 6.42 0 011.272-2.088 5.85 5.85 0 011.944-1.392c.752-.352 1.584-.528 2.496-.528 1.536 0 2.808.536 3.816 1.608V8.688zm7.324 0h4.344v2.016c.464-.736 1.032-1.296 1.704-1.68.672-.4 1.456-.6 2.352-.6h.36c.144 0 .304.016.48.048v4.152a4.127 4.127 0 00-1.872-.432c-1.008 0-1.768.304-2.28.912-.496.592-.744 1.464-.744 2.616V21h-4.344V8.688zm20.321 4.368c-.144-.608-.44-1.096-.888-1.464-.448-.368-.992-.552-1.632-.552-.672 0-1.224.176-1.656.528-.416.352-.68.848-.792 1.488h4.968zm-5.088 2.52c0 1.872.88 2.808 2.64 2.808.944 0 1.656-.384 2.136-1.152h4.2c-.848 2.816-2.968 4.224-6.36 4.224-1.04 0-1.992-.152-2.856-.456a6.656 6.656 0 01-2.232-1.344 6.015 6.015 0 01-1.416-2.064c-.336-.8-.504-1.696-.504-2.688 0-1.024.16-1.944.48-2.76a5.81 5.81 0 011.368-2.112 5.943 5.943 0 012.136-1.32c.848-.32 1.8-.48 2.856-.48 1.04 0 1.976.16 2.808.48a5.56 5.56 0 012.112 1.344c.576.592 1.016 1.32 1.32 2.184.304.848.456 1.808.456 2.88v.456h-9.144zm11.411 3.12c0-.384.072-.744.216-1.08.144-.352.344-.656.6-.912s.552-.456.888-.6c.352-.144.72-.216 1.104-.216.384 0 .744.072 1.08.216.352.144.656.344.912.6s.456.56.6.912c.144.336.216.696.216 1.08 0 .384-.072.752-.216 1.104a2.808 2.808 0 01-.6.888c-.256.256-.56.456-.912.6a2.712 2.712 0 01-1.08.216c-.384 0-.752-.072-1.104-.216a2.808 2.808 0 01-1.488-1.488 2.888 2.888 0 01-.216-1.104z" fill="#fff"/></svg>