<svg width="332" height="30" viewBox="0 0 332 30" fill="none" xmlns="http://www.w3.org/2000/svg"><path d="M17.294 16.67H4.49c.186 1.143.679 2.054 1.481 2.727.802.676 1.828 1.012 3.074 1.012 1.49 0 2.77-.528 3.841-1.58l3.357 1.594c-.836 1.204-1.839 2.091-3.008 2.668-1.168.577-2.555.864-4.159.864-2.492 0-4.52-.794-6.087-2.386-1.567-1.592-2.352-3.584-2.352-5.98 0-2.395.782-4.492 2.343-6.113 1.562-1.621 3.52-2.43 5.878-2.43 2.501 0 4.535.812 6.102 2.43 1.567 1.621 2.352 3.761 2.352 6.423l-.015.769-.003.003zm-3.984-3.178a4.036 4.036 0 00-1.558-2.186c-.777-.563-1.673-.844-2.699-.844-1.111 0-2.085.316-2.924.945-.528.395-1.015 1.088-1.464 2.085h8.645zM29.721 9.708l-2.466 2.497c-1.003-1.006-1.914-1.508-2.73-1.508-.447 0-.8.096-1.051.287-.255.192-.378.432-.378.716 0 .218.08.418.24.598.16.183.556.432 1.189.745l1.461.74c1.538.768 2.595 1.551 3.168 2.349.573.797.862 1.734.862 2.807 0 1.43-.518 2.621-1.555 3.576-1.037.956-2.426 1.432-4.168 1.432-2.317 0-4.165-.916-5.549-2.75l2.453-2.705a5.677 5.677 0 001.64 1.337c.628.34 1.187.51 1.674.51.527 0 .948-.127 1.269-.382.32-.256.481-.551.481-.888 0-.62-.579-1.226-1.736-1.818l-1.343-.679c-2.57-1.31-3.853-2.952-3.853-4.92 0-1.271.484-2.358 1.452-3.26.968-.902 2.209-1.352 3.715-1.352 1.032 0 2.003.23 2.914.688A6.475 6.475 0 0129.724 9.7l-.003.008zM33.892 19.33c.633 0 1.175.223 1.622.673.447.45.67.991.67 1.632 0 .641-.223 1.19-.67 1.642a2.197 2.197 0 01-1.622.678 2.201 2.201 0 01-1.621-.678c-.447-.453-.67-1-.67-1.642 0-.64.223-1.186.67-1.632.447-.45.988-.673 1.621-.673zM42.603 1.802h3.982l4.981 15.167L56.59 1.802h3.982l3.606 21.744h-3.95L57.925 9.815 53.36 23.546h-3.606l-4.52-13.731-2.358 13.731h-3.99l3.718-21.744zM82.757 16.674H69.953c.183 1.146.679 2.053 1.48 2.729.803.673 1.828 1.012 3.077 1.012 1.49 0 2.77-.528 3.842-1.583l3.36 1.598c-.837 1.2-1.84 2.093-3.01 2.67-1.17.578-2.556.865-4.163.865-2.492 0-4.52-.795-6.09-2.387-1.567-1.592-2.352-3.584-2.352-5.977 0-2.392.78-4.492 2.344-6.11 1.564-1.618 3.523-2.43 5.877-2.43 2.501 0 4.535.812 6.102 2.43 1.567 1.624 2.352 3.761 2.352 6.42l-.015.769h-.005l.005-.006zm-3.987-3.178a4.05 4.05 0 00-1.558-2.187c-.777-.562-1.673-.844-2.699-.844-1.111 0-2.085.316-2.927.946-.527.394-1.017 1.09-1.464 2.085h8.648zM97.352 1.252h3.988v22.29h-3.988v-1.7c-.779.748-1.558 1.29-2.34 1.618a6.51 6.51 0 01-2.547.496c-2.05 0-3.824-.806-5.322-2.416-1.498-1.61-2.249-3.613-2.249-6.008 0-2.396.722-4.518 2.175-6.108 1.449-1.586 3.205-2.38 5.279-2.38.954 0 1.847.182 2.684.545.836.362 1.607.913 2.317 1.641V1.252h.003zm-4.193 9.52c-1.232 0-2.258.439-3.071 1.323-.814.882-1.223 2.013-1.223 3.393s.415 2.532 1.243 3.428c.828.896 1.847 1.343 3.062 1.343 1.215 0 2.292-.438 3.114-1.323.825-.881 1.234-2.036 1.234-3.468 0-1.433-.412-2.532-1.234-3.402-.825-.864-1.865-1.299-3.128-1.299v.006h.003zM106.977.84c.696 0 1.298.258 1.796.768.499.514.751 1.134.751 1.862a2.53 2.53 0 01-.745 1.842c-.496.504-1.086.762-1.773.762a2.453 2.453 0 01-1.813-.777 2.62 2.62 0 01-.751-1.885c0-.74.246-1.316.739-1.818a2.425 2.425 0 011.79-.754h.006zm-1.994 6.62h3.988v16.08h-3.988V7.46zM128.023 10.717l-3.317 1.85c-.621-.661-1.24-1.117-1.847-1.375-.61-.258-1.324-.385-2.143-.385-1.49 0-2.698.446-3.618 1.348-.919.9-1.381 2.053-1.381 3.46 0 1.406.442 2.482 1.332 3.352.886.864 2.051 1.3 3.495 1.3 1.782 0 3.171-.618 4.165-1.85l3.14 2.177c-1.705 2.245-4.108 3.367-7.216 3.367-2.796 0-4.981-.838-6.563-2.514-1.581-1.677-2.374-3.637-2.374-5.884a8.38 8.38 0 011.151-4.301c.771-1.308 1.845-2.34 3.22-3.091 1.375-.749 2.919-1.123 4.62-1.123 1.579 0 2.994.32 4.248.954a8.044 8.044 0 013.08 2.715v.006l.008-.006zM141.876 7.46h3.987v16.08h-3.987v-1.7c-.779.749-1.558 1.291-2.341 1.619a6.508 6.508 0 01-2.546.495c-2.051 0-3.824-.806-5.322-2.415-1.499-1.61-2.249-3.614-2.249-6.009 0-2.395.722-4.518 2.174-6.107 1.45-1.586 3.206-2.381 5.279-2.381a6.68 6.68 0 012.685.545c.836.363 1.607.914 2.317 1.642V7.454v.006h.003zm-4.194 3.311c-1.232 0-2.257.438-3.071 1.323-.813.881-1.223 2.012-1.223 3.393 0 1.38.416 2.531 1.243 3.427.828.896 1.848 1.343 3.063 1.343 1.214 0 2.291-.438 3.113-1.322.825-.882 1.235-2.036 1.235-3.469 0-1.432-.413-2.531-1.235-3.401-.825-.864-1.864-1.3-3.128-1.3v.006h.003zM149.246 7.46h3.417v2.027c.367-.797.862-1.406 1.475-1.818a3.54 3.54 0 012.014-.62c.516 0 1.057.136 1.621.411l-1.24 3.471c-.47-.234-.851-.353-1.152-.353-.613 0-1.131.385-1.555 1.154-.424.768-.636 2.276-.636 4.524l.014.786v6.504h-3.956V7.46h-.005.003zM174.835 16.674H162.03c.184 1.146.679 2.053 1.481 2.729.802.673 1.828 1.012 3.077 1.012 1.489 0 2.77-.528 3.841-1.583l3.36 1.598c-.836 1.2-1.839 2.093-3.01 2.67-1.169.578-2.555.865-4.162.865-2.493 0-4.521-.795-6.09-2.387-1.567-1.592-2.352-3.584-2.352-5.977 0-2.392.779-4.492 2.343-6.11 1.564-1.618 3.523-2.43 5.878-2.43 2.501 0 4.535.812 6.101 2.43 1.567 1.624 2.352 3.761 2.352 6.42l-.014.769h-.006l.006-.006zm-3.988-3.178a4.045 4.045 0 00-1.558-2.187c-.773-.56-1.673-.844-2.698-.844-1.112 0-2.086.316-2.928.946-.527.394-1.017 1.09-1.464 2.085h8.648zM178.943 19.333c.63 0 1.174.226 1.621.673.447.446.67.994.67 1.632 0 .638-.223 1.19-.67 1.642a2.201 2.201 0 01-1.621.678 2.202 2.202 0 01-1.622-.678 2.246 2.246 0 01-.67-1.642c0-.644.223-1.183.67-1.632a2.219 2.219 0 011.622-.673zM195.853 7.46h3.973v13.776c0 2.717-.539 4.718-1.622 6-1.449 1.734-3.635 2.604-6.556 2.604-1.559 0-2.865-.194-3.931-.589-1.059-.394-1.959-.971-2.684-1.737-.73-.763-1.269-1.693-1.621-2.784h4.394c.39.453.888.795 1.504 1.03.613.232 1.341.345 2.177.345 1.069 0 1.931-.168 2.584-.502.653-.336 1.111-.768 1.381-1.3.266-.533.404-1.45.404-2.748-.702.71-1.438 1.22-2.203 1.53-.771.311-1.639.468-2.616.468-2.134 0-3.933-.777-5.402-2.338-1.467-1.557-2.203-3.526-2.203-5.913 0-2.549.779-4.602 2.335-6.15 1.409-1.398 3.096-2.097 5.05-2.097.916 0 1.779.168 2.592.51.814.343 1.63.9 2.444 1.676v-1.78zm-4.131 3.36c-1.258 0-2.292.425-3.111 1.275-.819.853-1.226 1.926-1.226 3.216 0 1.29.421 2.439 1.258 3.294.836.856 1.887 1.285 3.153 1.285 1.267 0 2.258-.418 3.057-1.256.802-.838 1.206-1.937 1.206-3.294s-.404-2.43-1.215-3.268c-.805-.838-1.847-1.256-3.122-1.256v.003zM211.069 7.049c1.498 0 2.907.383 4.228 1.14a8.155 8.155 0 013.088 3.09 8.386 8.386 0 011.109 4.214 8.555 8.555 0 01-1.118 4.258 8.063 8.063 0 01-3.045 3.094c-1.283.745-2.704 1.116-4.248 1.116-2.277 0-4.222-.82-5.835-2.462-1.612-1.641-2.417-3.63-2.417-5.976 0-2.515.91-4.609 2.729-6.285 1.596-1.458 3.429-2.186 5.506-2.186l.006-.006-.003.003zm.066 3.802c-1.24 0-2.269.435-3.094 1.307-.825.873-1.234 1.987-1.234 3.35s.406 2.532 1.223 3.402c.813.87 1.844 1.299 3.093 1.299 1.249 0 2.286-.438 3.114-1.317.828-.878 1.243-2.004 1.243-3.384s-.406-2.503-1.223-3.361c-.813-.861-1.853-1.296-3.122-1.296zM219.894 7.461h4.062l4.013 9.492 4.005-9.492h4.038l-6.76 16.08h-2.584l-6.777-16.08h.006-.003z" fill="#DEEDFC"/><path d="M236.649 27.438l9.697-26.392h2.867l-9.714 26.392h-2.85zM253.372 1.67h11.894v4.06h-7.812V9.7h5.076v4h-5.076v9.842h-4.082V1.667v.003zM267.363 7.365h3.437v2.036c.372-.803.868-1.412 1.484-1.83a3.535 3.535 0 012.028-.623c.519 0 1.063.139 1.63.417l-1.249 3.495c-.47-.238-.856-.357-1.16-.357-.616 0-1.137.386-1.564 1.16-.427.774-.639 2.291-.639 4.55l.014.789v6.542h-3.978V7.365h-.003zM289.718 7.365h4.01v16.18h-4.01v-1.712c-.782.754-1.567 1.297-2.355 1.627a6.5 6.5 0 01-2.561.499c-2.062 0-3.85-.81-5.354-2.43-1.507-1.621-2.26-3.637-2.26-6.044 0-2.407.728-4.544 2.186-6.142 1.458-1.595 3.228-2.395 5.311-2.395.959 0 1.859.182 2.698.55.842.369 1.618.917 2.332 1.65V7.366h.003zm-4.214 3.332c-1.241 0-2.269.444-3.088 1.332-.819.887-1.229 2.024-1.229 3.413 0 1.389.418 2.549 1.252 3.45.833.903 1.862 1.355 3.082 1.355 1.22 0 2.303-.444 3.134-1.331s1.243-2.05 1.243-3.486c0-1.435-.415-2.546-1.243-3.419-.831-.873-1.879-1.308-3.148-1.308l-.003-.006zM297.767 7.363h4.053v7.792c0 1.517.103 2.57.309 3.16.207.59.539 1.05.994 1.375.456.325 1.017.49 1.688.49.67 0 1.234-.162 1.701-.484.467-.322.814-.794 1.037-1.42.166-.468.249-1.462.249-2.99V7.36h4.011v6.855c0 2.825-.221 4.76-.662 5.8-.539 1.27-1.332 2.242-2.381 2.923-1.048.679-2.38 1.018-3.996 1.018-1.753 0-3.171-.397-4.251-1.189-1.082-.791-1.841-1.9-2.283-3.314-.312-.98-.469-2.767-.469-5.354V7.363zM327.627 1.118h4.01v22.423h-4.01V21.83c-.782.754-1.567 1.296-2.355 1.627a6.5 6.5 0 01-2.561.498c-2.062 0-3.85-.809-5.353-2.43-1.507-1.62-2.261-3.636-2.261-6.043s.728-4.544 2.186-6.142c1.458-1.595 3.228-2.396 5.311-2.396.959 0 1.859.183 2.698.551.842.369 1.619.917 2.332 1.65v-8.03l.003.003zm-4.214 9.576c-1.24 0-2.269.444-3.088 1.331s-1.229 2.024-1.229 3.413c0 1.39.419 2.55 1.252 3.451.834.902 1.862 1.355 3.082 1.355 1.221 0 2.303-.444 3.134-1.331.831-.888 1.243-2.05 1.243-3.486 0-1.436-.415-2.546-1.243-3.42-.831-.872-1.879-1.307-3.148-1.307l-.003-.006z" fill="#fff"/></svg>