<svg width="271" height="23" viewBox="0 0 271 23" fill="none" xmlns="http://www.w3.org/2000/svg"><path d="M13.638 12.556H3.154c.153.906.556 1.628 1.213 2.162.657.536 1.496.803 2.516.803 1.22 0 2.268-.419 3.145-1.254l2.75 1.265c-.686.955-1.507 1.659-2.463 2.116-.957.458-2.092.686-3.406.686-2.04 0-3.7-.63-4.984-1.893C.643 15.178 0 13.598 0 11.698c0-1.9.64-3.563 1.918-4.848 1.279-1.286 2.883-1.928 4.813-1.928 2.047 0 3.713.644 4.995 1.928 1.283 1.285 1.926 2.983 1.926 5.094l-.012.61-.002.002zm-3.262-2.52A3.206 3.206 0 009.1 8.3c-.636-.446-1.37-.67-2.21-.67-.91 0-1.707.251-2.394.75-.432.313-.83.863-1.199 1.654h7.079zM23.812 7.033l-2.02 1.98c-.82-.797-1.566-1.195-2.234-1.195-.366 0-.654.076-.86.227-.21.152-.31.343-.31.569 0 .172.065.33.197.473.13.145.454.343.973.591l1.196.587c1.26.61 2.125 1.23 2.594 1.863.469.632.706 1.375.706 2.226 0 1.134-.425 2.08-1.274 2.836-.849.76-1.986 1.136-3.412 1.136-1.897 0-3.41-.726-4.543-2.18L16.833 14c.382.437.83.791 1.344 1.06.513.27.97.405 1.37.405.43 0 .775-.101 1.038-.303.263-.203.394-.437.394-.704 0-.492-.474-.973-1.421-1.442l-1.1-.539c-2.104-1.04-3.154-2.34-3.154-3.903 0-1.007.396-1.87 1.189-2.585.792-.715 1.808-1.072 3.041-1.072.845 0 1.64.182 2.386.546a5.26 5.26 0 011.894 1.564l-.002.006zM27.227 14.665c.518 0 .961.177 1.327.533.366.357.549.787.549 1.295 0 .508-.183.943-.549 1.302-.366.359-.81.538-1.327.538-.519 0-.96-.18-1.328-.538a1.758 1.758 0 01-.549-1.302c0-.508.183-.94.55-1.295.365-.356.808-.533 1.327-.533zM34.359.763h3.26l4.078 12.03L45.811.762h3.26l2.953 17.246h-3.235l-1.885-10.89-3.739 10.89h-2.952l-3.701-10.89-1.93 10.89h-3.267L34.359.763zM67.234 12.558H56.751c.15.909.556 1.629 1.213 2.165.656.533 1.496.802 2.518.802 1.22 0 2.268-.418 3.145-1.255l2.752 1.267c-.685.952-1.506 1.66-2.465 2.118-.957.458-2.092.685-3.408.685-2.04 0-3.7-.63-4.986-1.892-1.283-1.263-1.926-2.843-1.926-4.74 0-1.898.638-3.563 1.919-4.847 1.28-1.283 2.885-1.927 4.812-1.927 2.048 0 3.713.644 4.996 1.927 1.283 1.288 1.925 2.983 1.925 5.092l-.011.61h-.005l.004-.005zm-3.264-2.52c-.216-.711-.643-1.29-1.276-1.735-.636-.446-1.37-.669-2.21-.669-.91 0-1.707.25-2.396.75-.432.313-.833.865-1.199 1.653h7.08zM79.183.327h3.265v17.678h-3.265v-1.348c-.638.593-1.276 1.024-1.916 1.284a5.48 5.48 0 01-2.085.393c-1.68 0-3.13-.64-4.357-1.916-1.227-1.277-1.841-2.866-1.841-4.766s.59-3.583 1.78-4.843C71.95 5.55 73.388 4.92 75.086 4.92c.781 0 1.513.145 2.198.433.684.287 1.315.724 1.897 1.301V.327h.002zM75.75 7.878c-1.009 0-1.848.347-2.514 1.049-.666.699-1.002 1.596-1.002 2.69 0 1.096.34 2.009 1.018 2.72.678.71 1.513 1.064 2.507 1.064.995 0 1.876-.347 2.55-1.049.675-.699 1.01-1.614 1.01-2.75s-.338-2.008-1.01-2.698c-.676-.686-1.527-1.03-2.562-1.03v.004h.003zM87.064 0c.57 0 1.062.205 1.47.61.408.407.615.899.615 1.476s-.204 1.058-.61 1.46c-.406.4-.889.605-1.452.605a2.042 2.042 0 01-1.484-.616 2.045 2.045 0 01-.615-1.495c0-.586.202-1.044.605-1.442A2.018 2.018 0 0187.06 0h.005zm-1.632 5.25h3.264v12.754h-3.264V5.251zM104.295 7.834L101.579 9.3c-.509-.524-1.015-.886-1.512-1.09-.5-.205-1.084-.306-1.755-.306-1.22 0-2.209.354-2.962 1.07-.753.712-1.13 1.628-1.13 2.743 0 1.116.361 1.969 1.09 2.659.725.685 1.68 1.03 2.862 1.03 1.458 0 2.596-.49 3.41-1.467l2.57 1.727c-1.395 1.78-3.363 2.67-5.908 2.67-2.289 0-4.078-.664-5.373-1.994-1.294-1.329-1.944-2.884-1.944-4.666a6.49 6.49 0 01.943-3.411c.63-1.037 1.51-1.856 2.636-2.452 1.126-.593 2.39-.89 3.783-.89 1.292 0 2.451.253 3.478.757a6.532 6.532 0 012.521 2.153v.004l.007-.004zM115.637 5.25h3.264v12.754h-3.264v-1.348c-.638.593-1.276 1.023-1.917 1.283a5.474 5.474 0 01-2.084.393c-1.68 0-3.131-.639-4.358-1.915-1.227-1.277-1.841-2.866-1.841-4.766s.591-3.583 1.78-4.844c1.187-1.258 2.624-1.888 4.322-1.888a5.62 5.62 0 012.198.432c.685.288 1.316.725 1.897 1.302V5.246v.004h.003zm-3.434 2.627c-1.008 0-1.848.347-2.514 1.049-.666.699-1.001 1.596-1.001 2.69 0 1.095.34 2.008 1.017 2.72.678.71 1.513 1.064 2.507 1.064.995 0 1.877-.347 2.55-1.049.675-.699 1.011-1.614 1.011-2.75 0-1.137-.338-2.008-1.011-2.698-.676-.686-1.527-1.03-2.561-1.03v.004h.002zM121.67 5.25h2.798v1.608c.3-.632.706-1.115 1.208-1.442a2.96 2.96 0 011.648-.492c.423 0 .866.108 1.328.327l-1.016 2.753c-.384-.187-.696-.28-.943-.28-.501 0-.926.305-1.273.915-.347.609-.521 1.805-.521 3.588l.012.623v5.159h-3.239V5.25h-.004.002zM142.621 12.558h-10.484c.15.909.556 1.629 1.213 2.165.656.533 1.496.802 2.519.802 1.219 0 2.267-.418 3.145-1.255l2.751 1.267c-.685.952-1.506 1.66-2.465 2.118-.957.458-2.092.685-3.408.685-2.04 0-3.701-.63-4.986-1.892-1.283-1.263-1.926-2.843-1.926-4.74 0-1.898.638-3.563 1.919-4.847 1.28-1.283 2.885-1.927 4.812-1.927 2.048 0 3.713.644 4.996 1.927 1.283 1.288 1.925 2.983 1.925 5.092l-.011.61h-.005l.005-.005zm-3.265-2.52c-.216-.711-.643-1.29-1.276-1.735-.633-.444-1.37-.669-2.209-.669-.91 0-1.707.25-2.397.75-.432.313-.833.865-1.198 1.653h7.08zM145.984 14.667c.516 0 .962.18 1.328.534.366.354.549.788.549 1.294s-.183.944-.549 1.302a1.833 1.833 0 01-1.328.538c-.515 0-.961-.179-1.327-.538a1.754 1.754 0 01-.549-1.302c0-.51.183-.938.549-1.294a1.847 1.847 0 011.327-.534zM159.829 5.251h3.253v10.925c0 2.155-.441 3.742-1.328 4.759-1.187 1.375-2.976 2.065-5.368 2.065-1.276 0-2.346-.154-3.218-.467-.868-.313-1.604-.77-2.198-1.378-.598-.605-1.038-1.343-1.327-2.208h3.598a3 3 0 001.231.817c.502.184 1.098.274 1.782.274.875 0 1.581-.134 2.116-.398.535-.267.91-.61 1.13-1.03.218-.424.331-1.15.331-2.181-.575.563-1.177.968-1.804 1.214-.63.246-1.341.37-2.141.37-1.747 0-3.22-.616-4.423-1.853-1.201-1.235-1.804-2.797-1.804-4.69 0-2.022.638-3.65 1.912-4.878 1.154-1.109 2.535-1.663 4.135-1.663.75 0 1.456.133 2.122.405.666.271 1.335.713 2.001 1.33V5.25zm-3.382 2.663c-1.03 0-1.876.338-2.547 1.012-.671.677-1.004 1.527-1.004 2.551 0 1.024.345 1.934 1.03 2.613.684.678 1.545 1.019 2.582 1.019 1.036 0 1.848-.332 2.502-.996.657-.665.987-1.537.987-2.613s-.33-1.927-.994-2.592c-.659-.665-1.513-.996-2.556-.996v.002zM172.287 4.925c1.226 0 2.38.303 3.461.904 1.079.602 1.924 1.416 2.529 2.451a6.49 6.49 0 01.907 3.342A6.63 6.63 0 01178.27 15a6.512 6.512 0 01-2.493 2.454c-1.051.59-2.214.885-3.478.885-1.865 0-3.457-.65-4.778-1.953-1.32-1.301-1.979-2.88-1.979-4.74 0-1.994.746-3.654 2.235-4.984 1.306-1.157 2.807-1.734 4.507-1.734l.005-.005-.002.003zm.054 3.015c-1.016 0-1.858.345-2.533 1.037-.676.693-1.011 1.576-1.011 2.657 0 1.08.333 2.008 1.001 2.698.667.69 1.511 1.03 2.533 1.03 1.023 0 1.872-.347 2.55-1.044.678-.697 1.018-1.59 1.018-2.684 0-1.095-.333-1.985-1.002-2.666-.666-.683-1.517-1.028-2.556-1.028zM179.512 5.251h3.325l3.286 7.528 3.279-7.528h3.306l-5.534 12.754h-2.116L179.509 5.25h.005-.002zM193.23 21.096L201.169.163h2.348l-7.953 20.933h-2.334zM206.922.659h9.738v3.22h-6.396v3.148h4.156V10.2h-4.156v7.806h-3.342V.656.66zM218.376 5.175h2.815V6.79c.305-.637.71-1.12 1.215-1.451a2.958 2.958 0 011.66-.495c.425 0 .87.11 1.335.331l-1.023 2.772c-.385-.189-.701-.283-.95-.283-.504 0-.931.306-1.28.92-.35.614-.523 1.817-.523 3.609l.011.625v5.19h-3.257V5.174h-.003zM236.679 5.175h3.283v12.832h-3.283V16.65c-.641.598-1.283 1.028-1.928 1.29a5.473 5.473 0 01-2.097.396c-1.689 0-3.152-.642-4.383-1.927-1.234-1.286-1.851-2.885-1.851-4.794 0-1.909.596-3.604 1.79-4.871 1.193-1.265 2.643-1.9 4.348-1.9.786 0 1.522.145 2.209.437.69.292 1.325.727 1.909 1.309V5.175h.003zm-3.45 2.643c-1.016 0-1.858.352-2.529 1.056-.67.704-1.006 1.605-1.006 2.707 0 1.102.343 2.022 1.025 2.737.683.715 1.525 1.074 2.524 1.074.999 0 1.885-.352 2.565-1.056.681-.704 1.018-1.626 1.018-2.764 0-1.139-.34-2.02-1.018-2.712-.68-.692-1.538-1.037-2.577-1.037l-.002-.005zM243.268 5.174h3.319v6.18c0 1.203.084 2.038.253 2.507.169.467.441.833.814 1.09.373.258.833.39 1.381.39.549 0 1.011-.13 1.394-.385.382-.255.666-.63.849-1.127.136-.37.204-1.16.204-2.371V5.172h3.283v5.437c0 2.24-.181 3.774-.542 4.6-.441 1.007-1.09 1.778-1.949 2.318-.858.539-1.949.808-3.271.808-1.436 0-2.597-.315-3.481-.943-.886-.628-1.508-1.507-1.869-2.63-.256-.777-.385-2.193-.385-4.245V5.174zM267.717.22H271v17.784h-3.283v-1.357c-.641.598-1.283 1.028-1.928 1.29a5.473 5.473 0 01-2.097.396c-1.688 0-3.152-.642-4.383-1.927-1.234-1.286-1.851-2.885-1.851-4.794 0-1.909.596-3.604 1.79-4.871 1.194-1.265 2.643-1.9 4.348-1.9.786 0 1.522.145 2.209.437.69.292 1.325.727 1.909 1.309V.218l.003.003zm-3.45 7.595c-1.016 0-1.858.352-2.528 1.056-.671.704-1.007 1.605-1.007 2.707 0 1.102.343 2.022 1.025 2.737.683.715 1.525 1.074 2.524 1.074.999 0 1.885-.352 2.566-1.056.68-.704 1.017-1.626 1.017-2.764 0-1.139-.34-2.02-1.017-2.712-.681-.692-1.539-1.037-2.578-1.037l-.002-.005z" fill="#fff"/></svg>