<svg width="143" height="90" viewBox="0 0 143 90" fill="none" xmlns="http://www.w3.org/2000/svg"><path fill-rule="evenodd" clip-rule="evenodd" d="M58.947 100.491c11.658 0 23.055-3.386 32.748-9.732 9.694-6.345 17.25-15.364 21.711-25.915a56.654 56.654 0 003.355-33.364c-2.275-11.201-7.889-21.49-16.133-29.567-8.244-8.076-18.747-13.575-30.181-15.803a60.087 60.087 0 00-34.058 3.286C25.618-6.234 16.41 1.168 9.934 10.664 3.457 20.16 0 31.324 0 42.746 0 58.06 6.21 72.749 17.265 83.578c11.055 10.83 26.048 16.913 41.682 16.913z" fill="#495E89" opacity=".54"/><path fill-rule="evenodd" clip-rule="evenodd" d="M136.268 27.418a6.83 6.83 0 003.74-1.111 6.63 6.63 0 002.48-2.96 6.48 6.48 0 00.383-3.81 6.553 6.553 0 00-1.843-3.376 6.776 6.776 0 00-3.446-1.805 6.864 6.864 0 00-3.89.375 6.705 6.705 0 00-3.021 2.43 6.504 6.504 0 00-1.134 3.663c0 1.749.709 3.426 1.972 4.663a6.801 6.801 0 004.759 1.931zM7.732 99.422c.99 0 1.959-.288 2.782-.827a4.928 4.928 0 001.844-2.202 4.812 4.812 0 00.284-2.834 4.875 4.875 0 00-1.37-2.511 5.04 5.04 0 00-2.565-1.342 5.104 5.104 0 00-2.893.28 4.986 4.986 0 00-2.247 1.809 4.834 4.834 0 00-.842 2.726 4.855 4.855 0 001.468 3.466 5.06 5.06 0 003.54 1.435z" fill="#7588AF"/><path fill-rule="evenodd" clip-rule="evenodd" d="M98.688 107c8.549.001 16.907-2.482 24.016-7.135 7.108-4.652 12.649-11.265 15.921-19.002a41.54 41.54 0 002.46-24.466c-1.667-8.214-5.784-15.76-11.829-21.681-6.045-5.922-13.747-9.955-22.132-11.589a44.06 44.06 0 00-24.975 2.41C74.251 28.743 67.5 34.17 62.751 41.134c-4.75 6.964-7.284 15.151-7.283 23.526 0 11.23 4.554 21.999 12.659 29.939C76.232 102.539 87.226 107 98.688 107z" fill="#1A2B4F" opacity=".51"/></svg>