<svg width="728" height="14" viewBox="0 0 728 14" fill="none" xmlns="http://www.w3.org/2000/svg"><path fill="#FF9759" d="M0 0h728v14H0z"/><path d="M42.475 3.839v3.69c0 .198.006.402.018.612.018.204.063.39.135.558a.995.995 0 00.36.414c.162.102.39.153.684.153.294 0 .519-.051.675-.153a.995.995 0 00.36-.414c.078-.168.123-.354.135-.558.018-.21.027-.414.027-.612v-3.69h1.755v3.933c0 1.056-.243 1.827-.729 2.313-.48.486-1.221.729-2.223.729-1.002 0-1.746-.243-2.232-.729-.486-.486-.729-1.257-.729-2.313V3.839h1.764zm9.625 6.786V3.839h1.764l3.258 4.149V3.839h1.755v6.786h-1.755l-3.258-4.149v4.149H52.1zm19.053 0l1.152-6.786h1.746l1.359 3.618 1.35-3.618h1.746l1.152 6.786h-1.755l-.585-3.906-1.602 3.906h-.702l-1.521-3.906-.585 3.906h-1.755zm17.533-5.292H86.59v1.134h1.98v1.494h-1.98v1.17h2.097v1.494h-3.86V3.839h3.86v1.494zm5.322 5.292V3.839h1.764l3.258 4.149V3.839h1.755v6.786H99.03l-3.258-4.149v4.149h-1.764zm15.976-5.049a2.08 2.08 0 00-.576-.342 1.479 1.479 0 00-.558-.117c-.228 0-.414.054-.558.162a.505.505 0 00-.216.423c0 .12.036.219.108.297.072.078.165.147.279.207.12.054.252.102.396.144.15.042.297.087.441.135.576.192.996.45 1.26.774.27.318.405.735.405 1.251 0 .348-.06.663-.18.945a1.944 1.944 0 01-.513.729 2.3 2.3 0 01-.828.459 3.325 3.325 0 01-1.107.171 4.088 4.088 0 01-2.385-.765l.756-1.422c.264.234.525.408.783.522.258.114.513.171.765.171.288 0 .501-.066.639-.198a.597.597 0 00.162-.711.53.53 0 00-.18-.207 1.316 1.316 0 00-.333-.18 9.27 9.27 0 00-.486-.18 12.79 12.79 0 01-.675-.234 2.297 2.297 0 01-.585-.351 1.704 1.704 0 01-.414-.54c-.102-.222-.153-.501-.153-.837 0-.336.054-.639.162-.909.114-.276.27-.51.468-.702.204-.198.45-.351.738-.459.294-.108.621-.162.981-.162.336 0 .687.048 1.053.144.366.09.717.225 1.053.405l-.702 1.377zm9.709 2.529l-.792-2.259-.792 2.259h1.584zm.468 1.341h-2.52l-.405 1.179h-1.881l2.583-6.786h1.926l2.583 6.786h-1.881l-.405-1.179zm10.447-5.607v4.707c0 .198-.012.381-.036.549a1.638 1.638 0 01-.099.432 2.033 2.033 0 01-.792.936c-.18.108-.381.192-.603.252a2.328 2.328 0 01-.684.099c-.726 0-1.317-.333-1.773-.999l1.152-1.179c.03.204.096.366.198.486.102.12.228.18.378.18.33 0 .495-.261.495-.783v-4.68h1.764zm9.345 1.494h-2.097v1.134h1.98v1.494h-1.98v1.17h2.097v1.494h-3.861V3.839h3.861v1.494zm13.969 1.899c0 .27.051.519.153.747.102.228.24.426.414.594.174.168.375.3.603.396.234.09.48.135.738.135s.501-.045.729-.135a1.92 1.92 0 00.612-.396 1.808 1.808 0 00.576-1.341 1.808 1.808 0 00-.576-1.341 1.802 1.802 0 00-.612-.387 1.86 1.86 0 00-.729-.144c-.258 0-.504.048-.738.144-.228.09-.429.219-.603.387a1.889 1.889 0 00-.414.594 1.808 1.808 0 00-.153.747zm-1.845 0c0-.504.093-.972.279-1.404.186-.438.444-.819.774-1.143a3.49 3.49 0 011.179-.756 4.036 4.036 0 011.521-.279c.546 0 1.05.093 1.512.279a3.471 3.471 0 011.971 1.899c.186.432.279.9.279 1.404a3.46 3.46 0 01-1.062 2.547c-.33.324-.726.579-1.188.765a4.13 4.13 0 01-1.512.27c-.552 0-1.059-.09-1.521-.27a3.528 3.528 0 01-1.953-1.899 3.577 3.577 0 01-.279-1.413zm16.567-1.899h-2.124v1.134h1.935v1.494h-1.935v2.664h-1.764V3.839h3.888v1.494zm6.866-1.494v6.786h-1.764V3.839h1.764zm10.354 2.268c-.408-.498-.912-.747-1.512-.747-.264 0-.51.048-.738.144a1.763 1.763 0 00-.576.396 1.81 1.81 0 00-.387.585c-.09.228-.135.474-.135.738 0 .27.045.519.135.747.096.228.225.426.387.594.168.168.363.3.585.396.222.096.462.144.72.144.564 0 1.071-.24 1.521-.72v2.088l-.18.063c-.27.096-.522.165-.756.207a3.442 3.442 0 01-.693.072 3.58 3.58 0 01-1.35-.261 3.689 3.689 0 01-1.134-.747 3.831 3.831 0 01-.783-1.143 3.517 3.517 0 01-.297-1.449c0-.522.096-.999.288-1.431a3.533 3.533 0 011.926-1.863c.432-.18.885-.27 1.359-.27.27 0 .534.03.792.09.264.054.54.141.828.261v2.106zm6.93-2.268v6.786h-1.764V3.839h1.764zm9.158 4.266l-.792-2.259-.792 2.259h1.584zm.468 1.341h-2.52l-.405 1.179h-1.881l2.583-6.786h1.926l2.583 6.786h-1.881l-.405-1.179zm8.872-5.607v5.292h2.115v1.494h-3.879V3.839h1.764zm15.948 5.292h.405c.306 0 .579-.048.819-.144a1.702 1.702 0 00.981-.99c.09-.234.135-.489.135-.765 0-.27-.045-.522-.135-.756a1.708 1.708 0 00-.387-.603 1.702 1.702 0 00-.603-.396 2.165 2.165 0 00-.81-.144h-.405v3.798zm-1.764-5.292h2.61c.462 0 .894.093 1.296.279.408.186.762.435 1.062.747.306.306.546.666.72 1.08a3.29 3.29 0 010 2.574 3.348 3.348 0 01-.711 1.08c-.3.312-.654.561-1.062.747a3.07 3.07 0 01-1.305.279h-2.61V3.839zm14.987 1.494h-2.097v1.134h1.98v1.494h-1.98v1.17h2.097v1.494h-3.861V3.839h3.861v1.494zm12.124 5.292l1.152-6.786h1.746l1.359 3.618 1.35-3.618h1.746l1.152 6.786h-1.755l-.585-3.906-1.602 3.906h-.702l-1.521-3.906-.585 3.906h-1.755zm17.533-5.292h-2.097v1.134h1.98v1.494h-1.98v1.17h2.097v1.494h-3.861V3.839h3.861v1.494zm7.086 3.798h.405c.306 0 .579-.048.819-.144a1.702 1.702 0 00.981-.99c.09-.234.135-.489.135-.765 0-.27-.045-.522-.135-.756a1.708 1.708 0 00-.387-.603 1.702 1.702 0 00-.603-.396 2.165 2.165 0 00-.81-.144h-.405v3.798zm-1.764-5.292h2.61c.462 0 .894.093 1.296.279.408.186.762.435 1.062.747.306.306.546.666.72 1.08a3.29 3.29 0 010 2.574 3.348 3.348 0 01-.711 1.08c-.3.312-.654.561-1.062.747a3.07 3.07 0 01-1.305.279h-2.61V3.839zm12.889 0v6.786h-1.764V3.839h1.764zm10.355 2.268c-.408-.498-.912-.747-1.512-.747-.264 0-.51.048-.738.144a1.763 1.763 0 00-.576.396 1.81 1.81 0 00-.387.585c-.09.228-.135.474-.135.738 0 .27.045.519.135.747.096.228.225.426.387.594.168.168.363.3.585.396.222.096.462.144.72.144.564 0 1.071-.24 1.521-.72v2.088l-.18.063c-.27.096-.522.165-.756.207a3.442 3.442 0 01-.693.072 3.58 3.58 0 01-1.35-.261 3.689 3.689 0 01-1.134-.747 3.831 3.831 0 01-.783-1.143 3.517 3.517 0 01-.297-1.449c0-.522.096-.999.288-1.431a3.533 3.533 0 011.926-1.863c.432-.18.885-.27 1.359-.27.27 0 .534.03.792.09.264.054.54.141.828.261v2.106zm9.014 1.998l-.792-2.259-.792 2.259h1.584zm.468 1.341h-2.52l-.405 1.179h-1.881l2.583-6.786h1.926l2.583 6.786h-1.881l-.405-1.179zm8.872-2.574h.333c.348 0 .615-.072.801-.216.186-.144.279-.351.279-.621s-.093-.477-.279-.621c-.186-.144-.453-.216-.801-.216h-.333v1.674zm3.879 3.753h-2.196l-1.683-2.61v2.61h-1.764V3.839h2.745c.378 0 .708.057.99.171.282.108.513.258.693.45.186.192.324.414.414.666.096.252.144.522.144.81 0 .516-.126.936-.378 1.26-.246.318-.612.534-1.098.648l2.133 2.781zm8.649-5.292h-2.097v1.134h1.98v1.494h-1.98v1.17h2.097v1.494h-3.861V3.839h3.861v1.494z" fill="#101B31"/></svg>