<svg width="329" height="37" viewBox="0 0 329 37" fill="none" xmlns="http://www.w3.org/2000/svg"><path d="M4.648 30.45c-2.565 0-4.455-1.935-4.455-4.41s1.89-4.41 4.455-4.41c2.61 0 4.545 1.935 4.545 4.41s-1.935 4.41-4.545 4.41zm14.666 0c-2.565 0-4.455-1.935-4.455-4.41s1.89-4.41 4.455-4.41c2.61 0 4.545 1.935 4.545 4.41s-1.935 4.41-4.545 4.41zm14.665 0c-2.565 0-4.455-1.935-4.455-4.41s1.89-4.41 4.455-4.41c2.61 0 4.545 1.935 4.545 4.41s-1.935 4.41-4.545 4.41zm17.996 0c-6.93 0-8.37-4.32-8.37-10.17V7.005h8.19v12.24c0 2.43.81 3.555 2.97 3.555 2.475 0 3.375-2.115 3.375-4.95V7.005h8.19V30h-7.74v-2.52c-1.26 1.62-4.23 2.97-6.615 2.97zM71.283 30V7.005h7.74V9.66c2.115-2.475 4.635-3.105 6.93-3.105 5.805 0 8.055 3.42 8.055 10.17V30h-8.19V17.76c0-2.61-.99-3.555-2.565-3.555-2.52 0-3.78 2.115-3.78 4.95V30h-8.19zm36.859.45c-6.39 0-9.855-5.31-9.855-11.925 0-6.66 3.465-11.97 9.855-11.97 1.845 0 4.905.63 6.255 3.015V7.005h7.74V30h-7.74v-2.565c-1.26 2.34-4.41 3.015-6.255 3.015zm2.16-7.2c2.16 0 3.69-1.935 3.69-4.725 0-2.745-1.53-4.77-3.69-4.77s-3.69 2.025-3.69 4.77c0 2.79 1.53 4.725 3.69 4.725zM138.395 30V.39h8.19V30h-8.19zm13.127 0V.39h8.19V30h-8.19zm22.532.45c-6.39 0-9.855-5.31-9.855-11.925 0-6.66 3.465-11.97 9.855-11.97 1.845 0 4.905.63 6.255 3.015V7.005h7.74V30h-7.74v-2.565c-1.26 2.34-4.41 3.015-6.255 3.015zm2.16-7.2c2.16 0 3.69-1.935 3.69-4.725 0-2.745-1.53-4.77-3.69-4.77s-3.69 2.025-3.69 4.77c0 2.79 1.53 4.725 3.69 4.725zM192.982 30V7.005h7.74v2.52c1.71-1.935 4.365-2.97 6.93-2.97 3.69 0 5.67 1.485 6.75 3.555 1.98-2.88 5.04-3.555 7.335-3.555 7.425 0 8.055 5.985 8.055 10.62V30h-8.19V18.12c0-2.745-.765-4.005-2.565-4.005-2.43 0-3.555 2.205-3.555 5.04V30h-8.19V18.12c0-2.745-.765-4.005-2.565-4.005-2.43 0-3.555 2.205-3.555 5.04V30h-8.19zm50.921.45c-6.39 0-9.855-5.31-9.855-11.925 0-6.66 3.465-11.97 9.855-11.97 1.845 0 4.905.63 6.255 3.015V7.005h7.74V30h-7.74v-2.565c-1.26 2.34-4.41 3.015-6.255 3.015zm2.16-7.2c2.16 0 3.69-1.935 3.69-4.725 0-2.745-1.53-4.77-3.69-4.77s-3.69 2.025-3.69 4.77c0 2.79 1.53 4.725 3.69 4.725zm26.172 7.2c-6.39 0-9.855-5.31-9.855-11.925 0-6.66 3.69-11.97 10.125-11.97 1.845 0 4.14.63 5.535 2.385V.39h8.19V30h-7.74v-2.565c-1.215 2.34-4.41 3.015-6.255 3.015zm2.16-7.2c2.16 0 3.69-1.935 3.69-4.725 0-2.745-1.53-4.77-3.69-4.77s-3.69 2.025-3.69 4.77c0 2.79 1.53 4.725 3.69 4.725zm26.173 7.2c-6.39 0-9.855-5.31-9.855-11.925 0-6.66 3.465-11.97 9.855-11.97 1.845 0 4.905.63 6.255 3.015V7.005h7.74V30h-7.74v-2.565c-1.26 2.34-4.41 3.015-6.255 3.015zm2.16-7.2c2.16 0 3.69-1.935 3.69-4.725 0-2.745-1.53-4.77-3.69-4.77s-3.69 2.025-3.69 4.77c0 2.79 1.53 4.725 3.69 4.725zm15.957 12.915l3.06-13.86h6.975l-5.22 13.86h-4.815z" fill="#fff"/></svg>