<svg width="326" height="50" viewBox="0 0 326 50" fill="none" xmlns="http://www.w3.org/2000/svg"><path d="M1.128 19V.856h13.72v1.96H3.368v5.516H14.12v1.932H3.368v6.776h11.9V19H1.128zm17.143 0V.576H20.4V19h-2.128zm12.68 0V7.128H28.74V5.364h2.212V4.328C30.952.94 32.744.016 34.62.016c1.344 0 2.604.504 3.276.924l-.7 1.624c-.28-.168-1.092-.672-2.128-.672-1.064 0-1.988.532-1.988 2.66v.812h4.34v1.764h-4.34V19h-2.128zm8.777 0V5.364h2.128v2.884c.784-1.792 2.548-3.164 5.264-3.164v2.324c-3.192 0-5.264 1.792-5.264 5.124V19h-2.128zm15.73.28c-3.78 0-6.44-3.136-6.44-7.084 0-4.004 2.66-7.112 6.44-7.112 2.185 0 4.117.896 5.125 2.66v-2.38h2.128V19h-2.128v-2.38c-1.008 1.792-2.94 2.66-5.124 2.66zm.477-2.072c2.604 0 4.648-2.156 4.648-5.012 0-2.856-2.044-5.04-4.648-5.04-2.716 0-4.732 2.128-4.732 5.04 0 2.884 2.016 5.012 4.732 5.012zm15.363 2.072c-3.36 0-4.956-1.764-4.956-5.404V5.364h2.128v8.232c0 2.548 1.232 3.612 3.444 3.612 2.464 0 3.892-2.016 3.892-4.116V5.364h2.128V19H75.89v-2.408c-.84 1.764-2.8 2.688-4.592 2.688zm16.385 0c-3.78 0-6.44-3.136-6.44-7.084 0-4.004 2.66-7.112 6.44-7.112 2.184 0 4.116.896 5.124 2.66V.576h2.128V19H92.89v-2.38c-1.008 1.792-2.996 2.66-5.208 2.66zm.476-2.072c2.604 0 4.648-2.156 4.648-5.012 0-2.856-2.044-5.04-4.648-5.04-2.716 0-4.732 2.128-4.732 5.04 0 2.884 2.016 5.012 4.732 5.012zm17.211 2.072c-3.864 0-7.14-2.772-7.14-7.084 0-3.948 2.968-7.112 6.86-7.112 3.64 0 6.524 3.136 6.524 7.028 0 .392-.056.812-.056.84h-11.116c.336 2.716 2.436 4.424 4.956 4.424 1.54 0 3.08-.532 4.2-1.456l.924 1.568a8.344 8.344 0 01-5.152 1.792zm-4.928-7.952h9.072c-.224-2.52-2.156-4.34-4.536-4.34-2.324 0-4.228 1.792-4.536 4.34zM.792 48.948V31.364h2.044v2.352c1.008-1.764 2.996-2.632 5.208-2.632 3.78 0 6.44 3.108 6.44 7.084 0 3.976-2.66 7.112-6.44 7.112-2.156 0-4.116-.896-5.124-2.66v6.328H.792zm6.776-5.74c2.716 0 4.732-2.128 4.732-5.04 0-2.884-2.016-5.012-4.732-5.012-2.604 0-4.648 2.156-4.648 5.012 0 2.856 2.044 5.04 4.648 5.04zm14.943 2.072c-3.36 0-4.956-1.764-4.956-5.404v-8.512h2.128v8.232c0 2.548 1.232 3.612 3.444 3.612 2.464 0 3.892-2.016 3.892-4.116v-7.728h2.128V45h-2.044v-2.408c-.84 1.764-2.8 2.688-4.592 2.688zm17.085 0c-3.864 0-7.14-2.772-7.14-7.084 0-3.948 2.968-7.112 6.86-7.112 3.64 0 6.524 3.136 6.524 7.028 0 .392-.056.812-.056.84H34.668c.336 2.716 2.436 4.424 4.956 4.424 1.54 0 3.08-.532 4.2-1.456l.924 1.568a8.344 8.344 0 01-5.152 1.792zm-4.928-7.952h9.072c-.224-2.52-2.156-4.34-4.536-4.34-2.324 0-4.228 1.792-4.536 4.34zm20.367 7.952c-3.78 0-6.44-3.136-6.44-7.084 0-4.004 2.66-7.112 6.44-7.112 2.184 0 4.116.896 5.124 2.66v-7.168h2.128V45h-2.044v-2.38c-1.008 1.792-2.996 2.66-5.208 2.66zm.476-2.072c2.604 0 4.648-2.156 4.648-5.012 0-2.856-2.044-5.04-4.648-5.04-2.716 0-4.732 2.128-4.732 5.04 0 2.884 2.016 5.012 4.732 5.012zm17.211 2.072c-3.863 0-7.14-2.772-7.14-7.084 0-3.948 2.969-7.112 6.86-7.112 3.64 0 6.525 3.136 6.525 7.028 0 .392-.056.812-.056.84H67.793c.337 2.716 2.437 4.424 4.957 4.424 1.54 0 3.08-.532 4.2-1.456l.924 1.568a8.344 8.344 0 01-5.153 1.792zm-4.927-7.952h9.072c-.225-2.52-2.157-4.34-4.537-4.34-2.323 0-4.227 1.792-4.535 4.34zM88.659 45V26.576h2.128V45H88.66zm5.995 0V26.576h2.128V45h-2.128zm12.575.28c-3.864 0-7.14-2.772-7.14-7.084 0-3.948 2.968-7.112 6.86-7.112 3.64 0 6.524 3.136 6.524 7.028 0 .392-.056.812-.056.84h-11.116c.336 2.716 2.436 4.424 4.956 4.424 1.54 0 3.08-.532 4.2-1.456l.924 1.568a8.344 8.344 0 01-5.152 1.792zm-4.928-7.952h9.072c-.224-2.52-2.156-4.34-4.536-4.34-2.324 0-4.228 1.792-4.536 4.34zm20.62 11.788c-2.184 0-4.06-.728-5.348-2.016l.896-1.372c1.092 1.092 2.688 1.708 4.284 1.708 2.324 0 4.956-1.428 4.956-5.46v-.448c-.588 1.54-2.464 2.8-5.096 2.8-3.752 0-6.384-2.912-6.384-6.608 0-3.696 2.632-6.636 6.384-6.636 2.352 0 4.48 1.064 5.18 2.772v-2.492h2.044V41.92c0 5.488-3.92 7.196-6.916 7.196zm.112-6.692c2.66 0 4.676-2.016 4.676-4.872 0-2.576-2.1-4.564-4.676-4.564-2.604 0-4.62 2.044-4.62 4.732s2.016 4.704 4.62 4.704zm16.541 2.856c-3.78 0-6.44-3.136-6.44-7.084 0-4.004 2.66-7.112 6.44-7.112 2.184 0 4.116.896 5.124 2.66v-2.38h2.128V45h-2.128v-2.38c-1.008 1.792-2.94 2.66-5.124 2.66zm.476-2.072c2.604 0 4.648-2.156 4.648-5.012 0-2.856-2.044-5.04-4.648-5.04-2.716 0-4.732 2.128-4.732 5.04 0 2.884 2.016 5.012 4.732 5.012zM150.681 45V31.364h2.128v2.884c.784-1.792 2.548-3.164 5.264-3.164v2.324c-3.192 0-5.264 1.792-5.264 5.124V45h-2.128zm22.381.28c-3.78 0-6.44-3.136-6.44-7.084 0-4.004 2.66-7.112 6.44-7.112 2.184 0 4.116.896 5.124 2.66v-2.38h2.128V45h-2.128v-2.38c-1.008 1.792-2.94 2.66-5.124 2.66zm.476-2.072c2.604 0 4.648-2.156 4.648-5.012 0-2.856-2.044-5.04-4.648-5.04-2.716 0-4.732 2.128-4.732 5.04 0 2.884 2.016 5.012 4.732 5.012zm21.573 2.072c-2.408 0-3.836-1.176-3.836-4.368v-7.784h-2.044v-1.764h2.044v-2.94l2.128-.392v3.332h4.648v1.764h-4.648v7.84c0 1.876.812 2.408 1.904 2.408 1.26 0 2.24-.756 2.24-.756l.7 1.652c-.532.364-1.652 1.008-3.136 1.008zm5.942-.28V31.364h2.128v2.884c.784-1.792 2.548-3.164 5.264-3.164v2.324c-3.192 0-5.264 1.792-5.264 5.124V45h-2.128zm15.731.28c-3.78 0-6.44-3.136-6.44-7.084 0-4.004 2.66-7.112 6.44-7.112 2.184 0 4.116.896 5.124 2.66v-2.38h2.128V45h-2.128v-2.38c-1.008 1.792-2.94 2.66-5.124 2.66zm.476-2.072c2.604 0 4.648-2.156 4.648-5.012 0-2.856-2.044-5.04-4.648-5.04-2.716 0-4.732 2.128-4.732 5.04 0 2.884 2.016 5.012 4.732 5.012zm15.111 1.876l-6.02-13.72h2.156l3.864 8.708c.56 1.26.98 2.716.98 2.716s.42-1.456.98-2.716l3.836-8.708h2.156l-5.992 13.72h-1.96zm14.78-15.904l2.268-3.724h2.324l-2.632 3.724h-1.96zm1.736 16.1c-3.864 0-7.14-2.772-7.14-7.084 0-3.948 2.968-7.112 6.86-7.112 3.64 0 6.524 3.136 6.524 7.028 0 .392-.056.812-.056.84h-11.116c.336 2.716 2.436 4.424 4.956 4.424 1.54 0 3.08-.532 4.2-1.456l.924 1.568a8.344 8.344 0 01-5.152 1.792zm-4.928-7.952h9.072c-.224-2.52-2.156-4.34-4.536-4.34-2.324 0-4.228 1.792-4.536 4.34zm19.08 7.952c-2.772 0-4.536-1.26-5.32-2.072l.868-1.736c1.008.98 2.464 1.792 4.452 1.792 1.876 0 3.416-.868 3.416-2.1 0-1.428-1.652-1.82-3.304-2.24-2.52-.644-4.816-1.344-4.816-3.948 0-2.464 2.576-3.892 4.872-3.892 1.876 0 3.248.504 4.648 1.456l-.84 1.736c-1.148-.784-2.352-1.176-3.78-1.176-1.4 0-2.716.784-2.716 1.848 0 1.344 1.512 1.652 3.108 1.988 2.464.56 5.012 1.484 5.012 4.172 0 2.884-2.94 4.172-5.6 4.172zm21.07 0c-3.78 0-6.44-3.136-6.44-7.084 0-4.004 2.66-7.112 6.44-7.112 2.184 0 4.116.896 5.124 2.66v-7.168h2.128V45h-2.044v-2.38c-1.008 1.792-2.996 2.66-5.208 2.66zm.476-2.072c2.604 0 4.648-2.156 4.648-5.012 0-2.856-2.044-5.04-4.648-5.04-2.716 0-4.732 2.128-4.732 5.04 0 2.884 2.016 5.012 4.732 5.012zm17.211 2.072c-3.864 0-7.14-2.772-7.14-7.084 0-3.948 2.968-7.112 6.86-7.112 3.64 0 6.524 3.136 6.524 7.028 0 .392-.056.812-.056.84h-11.116c.336 2.716 2.436 4.424 4.956 4.424 1.54 0 3.08-.532 4.2-1.456l.924 1.568a8.344 8.344 0 01-5.152 1.792zm-4.928-7.952h9.072c-.224-2.52-2.156-4.34-4.536-4.34-2.324 0-4.228 1.792-4.536 4.34zm15.524 7.952c-.84 0-1.456-.672-1.456-1.484 0-.812.644-1.484 1.456-1.484.812 0 1.484.672 1.484 1.484 0 .812-.672 1.484-1.484 1.484zm5.967 0c-.84 0-1.456-.672-1.456-1.484 0-.812.644-1.484 1.456-1.484.812 0 1.484.672 1.484 1.484 0 .812-.672 1.484-1.484 1.484zm5.968 0c-.84 0-1.456-.672-1.456-1.484 0-.812.644-1.484 1.456-1.484.812 0 1.484.672 1.484 1.484 0 .812-.672 1.484-1.484 1.484z" fill="#fff" fill-opacity=".75"/></svg>