<svg width="88" height="84" viewBox="0 0 88 84" fill="none" xmlns="http://www.w3.org/2000/svg"><path d="M60.592 3.432H13.746c-5.544 0-10.039 4.24-10.039 9.469v75.75c0 5.23 4.495 9.468 10.039 9.468h46.846c5.544 0 10.038-4.239 10.038-9.468V12.9c0-5.23-4.494-9.47-10.038-9.47z" fill="#F2F2F2"/><path d="M70.63 12.9c0-2.51-1.057-4.92-2.94-6.695-1.882-1.776-4.436-2.773-7.098-2.773H13.746c-2.662 0-5.216.997-7.098 2.773-1.883 1.776-2.94 4.184-2.94 6.696v12.625H70.63V12.9zM3.707 88.65c0 2.512 1.058 4.92 2.94 6.696 1.883 1.776 4.437 2.774 7.099 2.774h46.846c2.662 0 5.216-.998 7.098-2.774 1.883-1.775 2.94-4.184 2.94-6.695V76.026H3.707V88.65z" fill="#C1C5C8"/><path d="M84.015 25.526v31.562c0 .837-.352 1.64-.98 2.232a3.45 3.45 0 01-2.366.924h-16.73l-10.04 9.47-10.038-9.47H33.823a3.45 3.45 0 01-2.366-.924 3.068 3.068 0 01-.98-2.232V25.526c0-.837.352-1.64.98-2.232a3.45 3.45 0 012.366-.925h46.846c.887 0 1.739.333 2.366.925.628.592.98 1.395.98 2.232z" fill="#F2F2F2"/><path d="M80.669 19.213h-6.692v-6.312c0-3.349-1.41-6.56-3.92-8.928-2.51-2.367-5.915-3.697-9.465-3.697H13.746c-3.55 0-6.954 1.33-9.464 3.697-2.51 2.368-3.92 5.58-3.92 8.928v75.75c0 3.348 1.41 6.56 3.92 8.927s5.914 3.698 9.464 3.698h46.846c3.55 0 6.954-1.33 9.464-3.698 2.51-2.368 3.92-5.579 3.92-8.927V72.869c0-.837-.352-1.64-.98-2.231a3.451 3.451 0 00-2.365-.925c-.888 0-1.739.333-2.367.925a3.068 3.068 0 00-.98 2.231v15.782c0 1.674-.705 3.28-1.96 4.463-1.255 1.184-2.957 1.85-4.732 1.85H13.746c-1.775 0-3.477-.666-4.732-1.85-1.255-1.184-1.96-2.79-1.96-4.463V12.9c0-1.675.705-3.28 1.96-4.464 1.255-1.184 2.957-1.849 4.732-1.849h46.846c1.775 0 3.477.665 4.732 1.849 1.255 1.184 1.96 2.79 1.96 4.464v6.312H33.823c-1.775 0-3.477.665-4.732 1.849-1.255 1.184-1.96 2.79-1.96 4.464v31.562c0 1.674.705 3.28 1.96 4.464 1.255 1.184 2.957 1.849 4.732 1.849h8.666l9.035 8.553c.311.296.681.53 1.089.691a3.523 3.523 0 002.574 0c.407-.16.778-.395 1.089-.69L65.31 63.4H80.67c1.775 0 3.477-.665 4.732-1.85 1.255-1.183 1.96-2.789 1.96-4.463V25.526c0-1.674-.705-3.28-1.96-4.464-1.255-1.184-2.957-1.849-4.732-1.849zm0 37.875h-16.73a3.523 3.523 0 00-1.285.234 3.367 3.367 0 00-1.092.681l-7.662 7.26-7.663-7.26a3.369 3.369 0 00-1.091-.68 3.522 3.522 0 00-1.285-.235H33.823V25.526h46.846v31.562z" fill="#101B31"/><path d="M80.669 19.213H33.823c-1.775 0-3.477.665-4.732 1.849-1.255 1.184-1.96 2.79-1.96 4.464v31.562c0 1.674.705 3.28 1.96 4.464 1.255 1.184 2.957 1.849 4.732 1.849h8.666l9.035 8.553c.311.296.681.53 1.089.691a3.522 3.522 0 002.574 0c.407-.16.777-.395 1.089-.69L65.31 63.4H80.67c1.775 0 3.477-.665 4.732-1.85 1.255-1.183 1.96-2.789 1.96-4.463V25.526c0-1.674-.705-3.28-1.96-4.464-1.255-1.184-2.957-1.849-4.732-1.849zm0 37.875h-16.73a3.522 3.522 0 00-1.285.234 3.369 3.369 0 00-1.092.681l-7.662 7.26-7.663-7.26a3.367 3.367 0 00-1.091-.68 3.523 3.523 0 00-1.285-.235H33.823V25.526h46.846v31.562z" fill="#C80000"/><path d="M47.208 38.15h20.076c.888 0 1.739-.332 2.366-.924.628-.592.98-1.395.98-2.232 0-.837-.352-1.64-.98-2.231a3.451 3.451 0 00-2.366-.925H47.207c-.887 0-1.738.333-2.366.925a3.068 3.068 0 00-.98 2.231c0 .837.353 1.64.98 2.232a3.451 3.451 0 002.367.925zM47.208 50.776h20.076c.888 0 1.739-.333 2.366-.925.628-.592.98-1.395.98-2.232 0-.837-.352-1.64-.98-2.231a3.451 3.451 0 00-2.366-.925H47.207c-.887 0-1.738.333-2.366.925a3.068 3.068 0 00-.98 2.231c0 .837.353 1.64.98 2.232a3.451 3.451 0 002.367.925z" fill="#C80000"/><path d="M37.169 89.061c1.848 0 3.346-1.46 3.346-3.259 0-1.8-1.498-3.259-3.346-3.259s-3.346 1.46-3.346 3.26c0 1.799 1.498 3.258 3.346 3.258z" fill="#101B31"/></svg>