<svg width="234" height="16" viewBox="0 0 234 16" fill="none" xmlns="http://www.w3.org/2000/svg"><path d="M.124 11.29c0-.238.086-.443.26-.617a.849.849 0 01.622-.26c.241 0 .448.087.622.26.173.174.26.381.26.622a.856.856 0 01-.26.629.846.846 0 01-.622.254.853.853 0 01-.629-.254.861.861 0 01-.253-.635zm2.711 0c0-.238.087-.443.26-.617a.849.849 0 01.623-.26c.24 0 .448.087.622.26.173.174.26.381.26.622a.856.856 0 01-.26.629.846.846 0 01-.622.254.853.853 0 01-.629-.254.861.861 0 01-.254-.635zm2.712 0c0-.238.087-.443.26-.617a.849.849 0 01.622-.26c.242 0 .449.087.622.26.174.174.26.381.26.622a.856.856 0 01-.26.629.846.846 0 01-.622.254.853.853 0 01-.628-.254.861.861 0 01-.254-.635zm7.301-5.206v1.898c-.326-.398-.618-.67-.876-.819a1.706 1.706 0 00-.895-.228c-.537 0-.984.188-1.34.565-.355.376-.533.848-.533 1.415 0 .58.172 1.056.515 1.428.347.373.789.559 1.326.559.343 0 .646-.074.908-.222.254-.144.552-.423.895-.838v1.885c-.58.3-1.16.45-1.74.45-.956 0-1.755-.308-2.399-.926-.643-.622-.964-1.394-.964-2.317 0-.922.325-1.701.977-2.336.652-.635 1.452-.952 2.4-.952.609 0 1.184.146 1.726.438zm1.092 2.78c0-.893.32-1.652.958-2.279.64-.626 1.418-.939 2.336-.939.923 0 1.706.315 2.349.946.635.63.952 1.405.952 2.323 0 .927-.32 1.703-.958 2.33-.644.622-1.433.933-2.368.933-.927 0-1.703-.318-2.33-.952-.626-.627-.94-1.414-.94-2.362zm1.46.026c0 .617.165 1.106.495 1.466.338.364.785.546 1.34.546.558 0 1.004-.18 1.339-.54.334-.36.501-.84.501-1.44 0-.602-.167-1.082-.501-1.442-.339-.363-.785-.545-1.34-.545-.546 0-.988.182-1.326.545-.339.364-.508.834-.508 1.41zm6.652-3.073h1.428v.572c.275-.288.51-.483.705-.584.207-.106.468-.159.78-.159.699 0 1.251.305 1.657.914.449-.61 1.056-.914 1.822-.914 1.393 0 2.089.844 2.089 2.533V12h-1.435V8.566c0-.593-.072-1.011-.216-1.257-.148-.25-.391-.374-.73-.374-.393 0-.681.148-.863.444-.178.296-.267.772-.267 1.428V12h-1.434V8.585c0-1.1-.318-1.65-.952-1.65-.402 0-.697.15-.883.45-.182.3-.273.775-.273 1.422V12h-1.428V5.817zm9.991 3.047c0-.893.32-1.652.959-2.279.639-.626 1.417-.939 2.336-.939.922 0 1.705.315 2.348.946.635.63.953 1.405.953 2.323 0 .927-.32 1.703-.959 2.33-.643.622-1.432.933-2.368.933-.926 0-1.703-.318-2.33-.952-.626-.627-.939-1.414-.939-2.362zm1.46.026c0 .617.165 1.106.495 1.466.339.364.785.546 1.34.546.558 0 1.005-.18 1.34-.54.334-.36.5-.84.5-1.44 0-.602-.166-1.082-.5-1.442-.34-.363-.786-.545-1.34-.545-.546 0-.988.182-1.327.545-.338.364-.508.834-.508 1.41zM48.98 6.084v1.898c-.326-.398-.618-.67-.876-.819a1.706 1.706 0 00-.895-.228c-.538 0-.984.188-1.34.565-.355.376-.533.848-.533 1.415 0 .58.172 1.056.514 1.428.348.373.79.559 1.327.559.343 0 .645-.074.908-.222.254-.144.552-.423.895-.838v1.885c-.58.3-1.16.45-1.74.45-.956 0-1.755-.308-2.399-.926-.643-.622-.965-1.394-.965-2.317 0-.922.326-1.701.978-2.336.652-.635 1.451-.952 2.4-.952.609 0 1.184.146 1.726.438zm2.812-.267v3.549c0 1.024.404 1.536 1.212 1.536.809 0 1.213-.512 1.213-1.536V5.817h1.428v3.58c0 .496-.061.923-.184 1.283a2.154 2.154 0 01-.616.87c-.482.418-1.096.628-1.84.628-.741 0-1.353-.21-1.835-.629a2.189 2.189 0 01-.629-.87c-.118-.287-.177-.714-.177-1.282v-3.58h1.428zm7.084 0V12h-1.428V5.817h1.428zm-1.644-2.57c0-.25.09-.466.273-.648a.892.892 0 01.654-.273.9.9 0 01.66.273.879.879 0 01.273.654.9.9 0 01-.273.66.879.879 0 01-.654.273.9.9 0 01-.66-.273.907.907 0 01-.273-.666zm8.01-1.968h1.435V12h-1.434v-.648c-.563.55-1.2.826-1.911.826-.846 0-1.549-.31-2.108-.927-.554-.63-.831-1.418-.831-2.361 0-.923.277-1.693.831-2.31.55-.623 1.243-.934 2.076-.934.724 0 1.371.296 1.943.889V1.279zm-3.389 7.61c0 .593.159 1.076.476 1.448a1.56 1.56 0 001.231.565c.53 0 .957-.182 1.283-.546.326-.377.489-.855.489-1.435 0-.58-.163-1.058-.49-1.434-.325-.368-.748-.552-1.269-.552-.49 0-.901.186-1.231.558-.326.377-.489.842-.489 1.397zm11.185-3.072h1.434V12h-1.434v-.648c-.589.55-1.221.826-1.898.826-.855 0-1.562-.31-2.12-.927-.555-.63-.832-1.418-.832-2.361 0-.927.277-1.7.832-2.317.554-.618 1.248-.927 2.081-.927.72 0 1.365.296 1.937.889v-.718zm-3.39 3.073c0 .592.159 1.075.476 1.447a1.56 1.56 0 001.231.565c.53 0 .957-.182 1.283-.546.326-.377.488-.855.488-1.435 0-.58-.162-1.058-.488-1.434-.326-.368-.75-.552-1.27-.552-.49 0-.901.186-1.231.558-.326.377-.49.842-.49 1.397zm10.22-2.019l-1.181.629c-.186-.381-.417-.572-.692-.572a.47.47 0 00-.336.134.425.425 0 00-.14.33c0 .237.275.471.825.704.758.326 1.268.626 1.53.902.262.275.393.645.393 1.11 0 .597-.22 1.096-.66 1.498-.427.381-.943.572-1.548.572-1.037 0-1.772-.506-2.203-1.517l1.219-.565c.169.296.298.484.387.565.173.16.38.24.622.24.482 0 .724-.22.724-.66 0-.253-.187-.49-.56-.71a19.932 19.932 0 00-.43-.21c-.145-.067-.29-.137-.439-.21-.414-.202-.706-.405-.876-.609-.215-.258-.323-.59-.323-.996 0-.538.184-.982.552-1.333a1.937 1.937 0 011.371-.527c.791 0 1.38.408 1.765 1.225zm7.172.28V12h-1.428V7.15h-.61V5.817h.61V3.551h1.428v2.266h1.111V7.15h-1.11zm3.51-1.334v3.549c0 1.024.405 1.536 1.213 1.536s1.213-.512 1.213-1.536V5.817h1.428v3.58c0 .496-.062.923-.184 1.283a2.154 2.154 0 01-.616.87c-.482.418-1.096.628-1.84.628-.742 0-1.353-.21-1.835-.629a2.189 2.189 0 01-.629-.87c-.118-.287-.178-.714-.178-1.282v-3.58h1.429zm12.463 1.115V12h-2.534V6.932h-.84V4.818h.84V2.662h2.534v2.156h1.442v2.114h-1.442zm4.883 1.456c0 .233.042.453.126.658.084.196.196.369.336.518.15.15.322.266.518.35a1.725 1.725 0 001.288 0c.206-.084.378-.2.518-.35.15-.15.266-.322.35-.518.094-.196.14-.406.14-.63 0-.224-.046-.434-.14-.63a1.59 1.59 0 00-.35-.532 1.447 1.447 0 00-.518-.35 1.725 1.725 0 00-1.288 0c-.196.084-.368.2-.518.35-.14.15-.252.322-.336.518a1.484 1.484 0 00-.126.616zm3.192-3.57h2.548V12h-2.548v-.798c-.541.681-1.274 1.022-2.198 1.022a3.648 3.648 0 01-1.442-.28 3.579 3.579 0 01-1.148-.812 3.829 3.829 0 01-.77-1.218 4.27 4.27 0 01-.266-1.526c0-.513.089-.999.266-1.456.178-.467.425-.873.742-1.218a3.426 3.426 0 011.134-.812 3.393 3.393 0 011.456-.308c.896 0 1.638.313 2.226.938v-.714zm4.273 0h2.534v1.176c.27-.43.602-.756.994-.98.392-.233.849-.35 1.372-.35h.21c.084 0 .177.01.28.028v2.422a2.408 2.408 0 00-1.092-.252c-.588 0-1.032.177-1.33.532-.29.345-.434.854-.434 1.526V12h-2.534V4.818zm9.055 0v10.766h-2.534V4.818h2.534zm-2.702-2.758c0-.196.037-.378.112-.546.075-.177.177-.331.308-.462.131-.13.28-.233.448-.308a1.427 1.427 0 011.876.77 1.423 1.423 0 010 1.106 1.439 1.439 0 01-.77.756 1.427 1.427 0 01-1.106 0 1.48 1.48 0 01-.756-.756 1.423 1.423 0 01-.112-.56zm9.684 5.306a1.526 1.526 0 00-.518-.854 1.453 1.453 0 00-.952-.322c-.392 0-.714.103-.966.308-.243.205-.397.495-.462.868h2.898zm-2.968 1.47c0 1.092.513 1.638 1.54 1.638.55 0 .966-.224 1.246-.672h2.45c-.495 1.643-1.732 2.464-3.71 2.464a4.99 4.99 0 01-1.666-.266 3.883 3.883 0 01-1.302-.784 3.504 3.504 0 01-.826-1.204 4.013 4.013 0 01-.294-1.568c0-.597.093-1.134.28-1.61.186-.485.452-.896.798-1.232.345-.336.76-.593 1.246-.77a4.687 4.687 0 011.666-.28c.606 0 1.152.093 1.638.28.485.177.896.439 1.232.784.336.345.592.77.77 1.274.177.495.266 1.055.266 1.68v.266h-5.334zm9.706-1.904V12h-2.534V6.932h-.84V4.818h.84V2.662h2.534v2.156h1.442v2.114h-1.442zm4.883 1.456c0 .233.042.453.126.658.084.196.196.369.336.518.15.15.322.266.518.35a1.725 1.725 0 001.288 0c.206-.084.378-.2.518-.35.15-.15.266-.322.35-.518.094-.196.14-.406.14-.63 0-.224-.046-.434-.14-.63a1.59 1.59 0 00-.35-.532 1.447 1.447 0 00-.518-.35 1.725 1.725 0 00-1.288 0c-.196.084-.368.2-.518.35-.14.15-.252.322-.336.518a1.484 1.484 0 00-.126.616zm3.192-3.57h2.548V12h-2.548v-.798c-.541.681-1.274 1.022-2.198 1.022a3.648 3.648 0 01-1.442-.28 3.579 3.579 0 01-1.148-.812 3.829 3.829 0 01-.77-1.218 4.27 4.27 0 01-.266-1.526c0-.513.089-.999.266-1.456.178-.467.425-.873.742-1.218a3.426 3.426 0 011.134-.812 3.393 3.393 0 011.456-.308c.896 0 1.638.313 2.226.938v-.714zm11.382 3.57c0 .233.042.453.126.658.084.196.196.369.336.518.15.15.322.266.518.35a1.725 1.725 0 001.288 0c.206-.084.378-.2.518-.35.15-.15.266-.322.35-.518.094-.196.14-.406.14-.63 0-.224-.046-.434-.14-.63a1.59 1.59 0 00-.35-.532 1.447 1.447 0 00-.518-.35 1.687 1.687 0 00-1.274 0c-.196.084-.368.2-.518.35a2.04 2.04 0 00-.35.518 1.484 1.484 0 00-.126.616zM160.784.38h2.548V12h-2.548v-.798c-.541.681-1.274 1.022-2.198 1.022a3.498 3.498 0 01-2.59-1.106 3.829 3.829 0 01-.77-1.218 4.229 4.229 0 01-.266-1.512c0-.513.084-.999.252-1.456.178-.467.425-.873.742-1.218a3.426 3.426 0 011.134-.812 3.486 3.486 0 011.47-.308c.896 0 1.638.313 2.226.938V.38zm9.523 6.986a1.526 1.526 0 00-.518-.854 1.451 1.451 0 00-.952-.322c-.392 0-.714.103-.966.308-.243.205-.397.495-.462.868h2.898zm-2.968 1.47c0 1.092.513 1.638 1.54 1.638.551 0 .966-.224 1.246-.672h2.45c-.495 1.643-1.731 2.464-3.71 2.464a4.99 4.99 0 01-1.666-.266 3.883 3.883 0 01-1.302-.784 3.504 3.504 0 01-.826-1.204 4.013 4.013 0 01-.294-1.568c0-.597.093-1.134.28-1.61.187-.485.453-.896.798-1.232a3.467 3.467 0 011.246-.77 4.691 4.691 0 011.666-.28c.607 0 1.153.093 1.638.28.485.177.896.439 1.232.784.336.345.593.77.77 1.274.177.495.266 1.055.266 1.68v.266h-5.334zm16.958-1.694c-.439-.299-.882-.448-1.33-.448-.243 0-.471.042-.686.126a1.654 1.654 0 00-.546.364c-.159.15-.285.331-.378.546a1.835 1.835 0 00-.126.7c0 .252.042.485.126.7.093.205.215.387.364.546.159.15.345.266.56.35.215.084.443.126.686.126.476 0 .919-.163 1.33-.49v2.156c-.625.27-1.218.406-1.778.406a4.255 4.255 0 01-1.498-.266 3.942 3.942 0 01-1.246-.756 3.911 3.911 0 01-.854-1.19 3.67 3.67 0 01-.322-1.554c0-.57.103-1.087.308-1.554.205-.476.485-.882.84-1.218a3.68 3.68 0 011.26-.798 4.256 4.256 0 011.582-.294c.616 0 1.185.13 1.708.392v2.156zm1.445-2.324h2.534v1.176a2.85 2.85 0 01.994-.98c.392-.233.85-.35 1.372-.35h.21c.084 0 .178.01.28.028v2.422a2.408 2.408 0 00-1.092-.252c-.588 0-1.031.177-1.33.532-.289.345-.434.854-.434 1.526V12h-2.534V4.818zm11.854 2.548a1.526 1.526 0 00-.518-.854 1.451 1.451 0 00-.952-.322c-.392 0-.714.103-.966.308-.243.205-.397.495-.462.868h2.898zm-2.968 1.47c0 1.092.513 1.638 1.54 1.638.551 0 .966-.224 1.246-.672h2.45c-.495 1.643-1.731 2.464-3.71 2.464a4.99 4.99 0 01-1.666-.266 3.883 3.883 0 01-1.302-.784 3.504 3.504 0 01-.826-1.204 4.013 4.013 0 01-.294-1.568c0-.597.093-1.134.28-1.61.187-.485.453-.896.798-1.232a3.467 3.467 0 011.246-.77 4.691 4.691 0 011.666-.28c.607 0 1.153.093 1.638.28.485.177.896.439 1.232.784.336.345.593.77.77 1.274.177.495.266 1.055.266 1.68v.266h-5.334zm3.822-7.224l-2.436 2.156-1.176-.868L196.84.45l1.61 1.162zm5.312 6.776c0 .233.042.453.126.658.084.196.196.369.336.518.15.15.322.266.518.35a1.725 1.725 0 001.288 0c.206-.084.378-.2.518-.35.15-.15.266-.322.35-.518.094-.196.14-.406.14-.63 0-.224-.046-.434-.14-.63a1.59 1.59 0 00-.35-.532 1.447 1.447 0 00-.518-.35 1.687 1.687 0 00-1.274 0c-.196.084-.368.2-.518.35a2.04 2.04 0 00-.35.518 1.484 1.484 0 00-.126.616zM206.954.38h2.548V12h-2.548v-.798c-.541.681-1.274 1.022-2.198 1.022a3.498 3.498 0 01-2.59-1.106 3.829 3.829 0 01-.77-1.218 4.229 4.229 0 01-.266-1.512c0-.513.084-.999.252-1.456.178-.467.425-.873.742-1.218a3.426 3.426 0 011.134-.812 3.486 3.486 0 011.47-.308c.896 0 1.638.313 2.226.938V.38zm6.807 4.438V12h-2.534V4.818h2.534zm-2.702-2.758c0-.196.037-.378.112-.546a1.468 1.468 0 01.756-.77 1.427 1.427 0 011.876.77c.074.168.112.35.112.546 0 .196-.038.383-.112.56a1.439 1.439 0 01-.77.756 1.427 1.427 0 01-1.106 0 1.469 1.469 0 01-.448-.308 1.46 1.46 0 01-.308-.448 1.423 1.423 0 01-.112-.56zm7.261 4.872V12h-2.534V6.932h-.84V4.818h.84V2.662h2.534v2.156h1.442v2.114h-1.442zm4.912 1.442c0 .243.042.467.126.672.093.196.21.369.35.518.149.15.322.266.518.35a1.684 1.684 0 001.274 0c.205-.084.378-.2.518-.35.149-.15.266-.322.35-.518.093-.205.14-.425.14-.658 0-.224-.047-.434-.14-.63a1.604 1.604 0 00-.35-.532 1.456 1.456 0 00-.518-.35 1.684 1.684 0 00-1.274 0c-.196.084-.369.2-.518.35-.14.15-.257.322-.35.518a1.582 1.582 0 00-.126.63zm-2.674-.028c0-.532.107-1.027.322-1.484.215-.467.513-.868.896-1.204a4.208 4.208 0 011.358-.812 4.986 4.986 0 011.736-.294c.616 0 1.185.098 1.708.294.532.187.989.453 1.372.798.392.336.695.742.91 1.218.215.467.322.985.322 1.554a3.716 3.716 0 01-1.232 2.786 4.104 4.104 0 01-1.386.784 5.21 5.21 0 01-1.736.28 5.045 5.045 0 01-1.708-.28 4.02 4.02 0 01-1.358-.798 3.78 3.78 0 01-.882-1.232 3.931 3.931 0 01-.322-1.61zm9.904 2.406c0-.208.039-.403.117-.585a1.48 1.48 0 01.806-.819 1.566 1.566 0 011.183 0c.191.078.355.186.494.325s.247.303.325.494a1.565 1.565 0 010 1.183 1.485 1.485 0 01-.819.806 1.566 1.566 0 01-1.183 0 1.524 1.524 0 01-.806-.806 1.565 1.565 0 01-.117-.598z" fill="#66124B"/></svg>