<svg width="224" height="15" viewBox="0 0 224 15" fill="none" xmlns="http://www.w3.org/2000/svg"><path d="M2.575 6.31h.845c.936 0 1.404-.407 1.404-1.221 0-.815-.468-1.223-1.404-1.223h-.845v2.445zm0 5.304H.027V1.813h4.056c1.1 0 1.941.286 2.522.859.59.572.884 1.377.884 2.417 0 1.04-.295 1.846-.884 2.418-.58.572-1.421.858-2.522.858H2.575v3.25zm6.042-6.669h2.352v1.092c.252-.398.56-.702.924-.91.364-.216.788-.324 1.273-.324h.195c.079 0 .165.008.26.026v2.248a2.236 2.236 0 00-1.014-.234c-.545 0-.957.165-1.234.495-.27.32-.403.792-.403 1.417v2.86H8.617v-6.67zm8.329 3.303c0 .225.039.433.117.623.087.182.195.343.325.481.139.14.299.248.481.325a1.565 1.565 0 001.183 0c.19-.077.351-.186.481-.325a1.52 1.52 0 00.325-.48c.087-.191.13-.395.13-.611 0-.208-.043-.403-.13-.585a1.485 1.485 0 00-.325-.495 1.348 1.348 0 00-.481-.325 1.565 1.565 0 00-1.183 0 1.521 1.521 0 00-.481.325c-.13.14-.238.3-.325.481a1.47 1.47 0 00-.117.586zm-2.483-.026c0-.494.1-.954.299-1.378.2-.434.477-.807.832-1.119.355-.32.776-.571 1.261-.753a4.628 4.628 0 011.612-.274c.572 0 1.1.091 1.586.273.494.174.919.42 1.274.742.364.311.646.689.845 1.13.2.434.299.915.299 1.444a3.452 3.452 0 01-1.144 2.587 3.803 3.803 0 01-1.287.727 4.838 4.838 0 01-1.612.26c-.572 0-1.1-.086-1.586-.26a3.73 3.73 0 01-1.261-.74 3.5 3.5 0 01-.819-1.145c-.2-.45-.299-.948-.299-1.494zM26.49 6.909v4.705h-2.353V6.908h-.78V4.946h.78V2.944h2.353v2.002h1.339v1.963h-1.34zm7.225.402a1.416 1.416 0 00-.48-.792 1.348 1.348 0 00-.885-.3c-.364 0-.663.096-.897.286-.225.191-.368.46-.429.806h2.691zM30.96 8.678c0 1.014.477 1.52 1.43 1.52.511 0 .897-.207 1.157-.623h2.275c-.46 1.525-1.607 2.287-3.445 2.287a4.633 4.633 0 01-1.547-.247 3.605 3.605 0 01-1.209-.728 3.257 3.257 0 01-.767-1.117 3.726 3.726 0 01-.273-1.457c0-.554.087-1.052.26-1.494.174-.451.42-.832.741-1.144.32-.313.707-.55 1.157-.716.46-.173.975-.26 1.547-.26.564 0 1.07.087 1.521.26.45.165.832.408 1.144.728.312.321.55.716.715 1.184.165.459.247.979.247 1.56v.247H30.96zm8.482-.43c0 .217.04.42.117.611.078.182.182.343.312.481.139.14.3.247.481.325a1.598 1.598 0 001.196 0 1.35 1.35 0 00.481-.325c.139-.138.247-.299.325-.48.087-.191.13-.39.13-.598 0-.217-.043-.416-.13-.598a1.486 1.486 0 00-.819-.806 1.437 1.437 0 00-.572-.118c-.208 0-.403.044-.585.13a1.52 1.52 0 00-.48.325c-.14.13-.252.287-.339.468a1.47 1.47 0 00-.117.586zm5.278-3.301v6.213c0 .373-.022.707-.065 1.002a4.319 4.319 0 01-.182.78c-.104.285-.269.55-.494.792a3.094 3.094 0 01-.793.65 4.22 4.22 0 01-1.066.43c-.39.103-.815.155-1.274.155-.52 0-.996-.065-1.43-.194a3.885 3.885 0 01-1.144-.546 3.045 3.045 0 01-.793-.806 2.616 2.616 0 01-.416-1.002h2.652c.165.443.538.664 1.118.664.494 0 .871-.14 1.131-.416.269-.278.403-.663.403-1.157v-.637a4.14 4.14 0 01-.507.415c-.156.104-.316.191-.48.26a2.1 2.1 0 01-.52.144 3.2 3.2 0 01-.599.052c-.477 0-.914-.083-1.313-.247a3.158 3.158 0 01-1.04-.69 3.232 3.232 0 01-.676-1.053 3.897 3.897 0 01-.234-1.378c0-.51.087-.983.26-1.417.174-.441.407-.823.702-1.144a3.22 3.22 0 011.066-.766c.416-.191.867-.287 1.352-.287.789 0 1.452.295 1.99.885v-.702h2.352zm6.63 2.365a1.416 1.416 0 00-.481-.792 1.348 1.348 0 00-.884-.3c-.364 0-.663.096-.897.286-.225.191-.368.46-.429.806h2.691zm-2.756 1.366c0 1.014.477 1.52 1.43 1.52.511 0 .897-.207 1.157-.623h2.275c-.46 1.525-1.608 2.287-3.445 2.287a4.633 4.633 0 01-1.547-.247 3.605 3.605 0 01-1.209-.728 3.257 3.257 0 01-.767-1.117 3.726 3.726 0 01-.273-1.457c0-.554.087-1.052.26-1.494.173-.451.42-.832.741-1.144.32-.313.706-.55 1.157-.716.46-.173.975-.26 1.547-.26.563 0 1.07.087 1.521.26.45.165.832.408 1.144.728.312.321.55.716.715 1.184.165.459.247.979.247 1.56v.247h-4.953zM61.06 6.392v5.222h-1.538V6.392h-.657V4.956h.657v-2.44h1.538v2.44h1.196v1.436H61.06zm3.78-1.436v3.822c0 1.102.435 1.654 1.305 1.654.871 0 1.306-.552 1.306-1.654V4.956h1.538v3.856c0 .533-.066.993-.198 1.38a2.319 2.319 0 01-.663.937c-.52.451-1.18.677-1.983.677-.797 0-1.456-.226-1.975-.677a2.357 2.357 0 01-.677-.936c-.127-.31-.191-.77-.191-1.381V4.956h1.538zm10.411 0h1.545v.616c.538-.534 1.144-.8 1.818-.8.775 0 1.379.244 1.812.731.373.415.56 1.092.56 2.03v4.081h-1.545V7.896c0-.657-.09-1.11-.273-1.36-.178-.256-.501-.383-.97-.383-.511 0-.873.168-1.088.505-.21.333-.314.914-.314 1.744v3.213H75.25V4.955zm9.222 0v3.822c0 1.102.435 1.654 1.305 1.654.87 0 1.306-.552 1.306-1.654V4.956h1.538v3.856c0 .533-.066.993-.198 1.38a2.319 2.319 0 01-.663.937c-.52.451-1.18.677-1.983.677-.797 0-1.456-.226-1.975-.677a2.357 2.357 0 01-.677-.936c-.128-.31-.191-.77-.191-1.381V4.956h1.538zm3.718-3.281l-2.488 2.256-.84-.52 1.88-2.488 1.448.752zm2.373 3.281h1.538v.616c.296-.31.549-.52.758-.63.224-.113.504-.17.841-.17.752 0 1.347.328 1.784.984.483-.656 1.137-.984 1.962-.984 1.5 0 2.25.909 2.25 2.727v4.115H98.15V7.916c0-.638-.077-1.089-.232-1.353-.16-.27-.422-.404-.786-.404-.424 0-.734.16-.93.479-.191.319-.287.832-.287 1.538v3.438h-1.545V7.938c0-1.185-.342-1.778-1.025-1.778-.433 0-.75.162-.95.486-.197.323-.294.834-.294 1.531v3.438h-1.538V4.956zM107.7 8.648h-4.771c.041.547.218.982.533 1.305.314.32.718.479 1.21.479.383 0 .699-.091.95-.274.246-.182.526-.52.841-1.011l1.299.724a5.343 5.343 0 01-.636.882 3.52 3.52 0 01-.718.602 2.933 2.933 0 01-.827.341c-.296.073-.617.11-.964.11-.993 0-1.791-.32-2.392-.957-.602-.643-.903-1.495-.903-2.557 0-1.053.292-1.905.875-2.556.588-.643 1.367-.964 2.338-.964.98 0 1.755.312 2.324.936.565.62.848 1.48.848 2.577l-.007.363zm-1.579-1.258c-.214-.82-.731-1.23-1.552-1.23-.187 0-.362.029-.526.088a1.444 1.444 0 00-.451.246 1.546 1.546 0 00-.342.383c-.096.15-.169.321-.219.513h3.09zm3.268-2.434h1.538v.595c.282-.296.533-.499.752-.608.223-.114.487-.171.793-.171.405 0 .829.132 1.271.396l-.704 1.408c-.292-.21-.576-.314-.854-.314-.839 0-1.258.633-1.258 1.9v3.452h-1.538V4.956zm4.798 3.282c0-.962.345-1.78 1.033-2.455.688-.674 1.526-1.011 2.515-1.011.994 0 1.837.34 2.53 1.018.683.68 1.025 1.513 1.025 2.502 0 .998-.344 1.835-1.032 2.509-.693.67-1.543 1.005-2.55 1.005-.998 0-1.834-.342-2.509-1.025-.674-.675-1.012-1.523-1.012-2.543zm1.573.027c0 .665.177 1.192.533 1.579.365.392.845.588 1.442.588.602 0 1.083-.194 1.443-.581.36-.388.54-.905.54-1.552s-.18-1.164-.54-1.552c-.365-.392-.846-.588-1.443-.588-.588 0-1.064.196-1.428.588-.365.392-.547.898-.547 1.518zM132.153.069h1.545v11.545h-1.545v-.697c-.606.593-1.292.889-2.057.889-.912 0-1.668-.333-2.27-.998-.597-.68-.895-1.527-.895-2.543 0-.994.298-1.823.895-2.488.593-.67 1.338-1.005 2.236-1.005.779 0 1.476.319 2.091.957V.069zm-3.65 8.196c0 .638.171 1.157.513 1.558a1.68 1.68 0 001.326.609c.569 0 1.03-.196 1.381-.588.351-.406.526-.92.526-1.545 0-.624-.175-1.14-.526-1.545-.351-.396-.807-.595-1.368-.595-.528 0-.97.2-1.326.602-.351.406-.526.907-.526 1.504zm13.2.383h-4.771c.041.547.218.982.533 1.305.314.32.718.479 1.21.479.383 0 .699-.091.95-.274.246-.182.526-.52.841-1.011l1.299.724a5.343 5.343 0 01-.636.882 3.52 3.52 0 01-.718.602 2.933 2.933 0 01-.827.341 4.03 4.03 0 01-.964.11c-.993 0-1.791-.32-2.392-.957-.602-.643-.903-1.495-.903-2.557 0-1.053.292-1.905.875-2.556.588-.643 1.367-.964 2.338-.964.98 0 1.755.312 2.324.936.565.62.848 1.48.848 2.577l-.007.363zm-1.579-1.258c-.214-.82-.731-1.23-1.552-1.23-.187 0-.362.029-.526.088a1.444 1.444 0 00-.451.246 1.546 1.546 0 00-.342.383c-.096.15-.169.321-.219.513h3.09zm6.939 4.224l1.792-10.556h2.716l2.114 5.628 2.1-5.628h2.716l1.792 10.556h-2.73l-.91-6.076-2.492 6.076h-1.092l-2.366-6.076-.91 6.076h-2.73zM166.66 6.98a1.526 1.526 0 00-.518-.854 1.451 1.451 0 00-.952-.322c-.392 0-.714.103-.966.308-.243.206-.397.495-.462.869h2.898zm-2.968 1.47c0 1.093.513 1.639 1.54 1.639.551 0 .966-.225 1.246-.673h2.45c-.495 1.643-1.731 2.464-3.71 2.464a4.99 4.99 0 01-1.666-.266 3.883 3.883 0 01-1.302-.784 3.504 3.504 0 01-.826-1.204 4.013 4.013 0 01-.294-1.567c0-.598.093-1.134.28-1.61.187-.486.453-.896.798-1.232a3.467 3.467 0 011.246-.77 4.692 4.692 0 011.666-.28c.607 0 1.153.093 1.638.28.485.177.896.438 1.232.784.336.345.593.77.77 1.274.177.494.266 1.054.266 1.68v.265h-5.334zm9.134-.447c0 .233.042.452.126.658.084.196.196.368.336.518.15.149.322.265.518.35a1.725 1.725 0 001.288 0c.206-.085.378-.201.518-.35.15-.15.266-.322.35-.518.094-.197.14-.406.14-.63 0-.225-.046-.435-.14-.63a1.59 1.59 0 00-.35-.532 1.447 1.447 0 00-.518-.35 1.687 1.687 0 00-1.274 0c-.196.083-.368.2-.518.35a2.04 2.04 0 00-.35.518 1.484 1.484 0 00-.126.615zm3.192-8.008h2.548v11.62h-2.548v-.799c-.541.682-1.274 1.022-2.198 1.022a3.498 3.498 0 01-2.59-1.105 3.83 3.83 0 01-.77-1.219 4.229 4.229 0 01-.266-1.511c0-.514.084-1 .252-1.457.178-.466.425-.872.742-1.218a3.426 3.426 0 011.134-.812 3.486 3.486 0 011.47-.308c.896 0 1.638.313 2.226.938V-.005zm6.807 4.438v7.181h-2.534V4.432h2.534zm-2.702-2.758c0-.197.037-.379.112-.546.075-.178.177-.332.308-.462.131-.131.28-.234.448-.308a1.427 1.427 0 011.876.77 1.423 1.423 0 010 1.106 1.439 1.439 0 01-.77.756 1.427 1.427 0 01-1.106 0 1.48 1.48 0 01-.756-.756 1.423 1.423 0 01-.112-.56zm9.851 5.082c-.438-.3-.882-.448-1.33-.448a1.87 1.87 0 00-.686.125 1.654 1.654 0 00-.546.364c-.158.15-.284.332-.378.546a1.835 1.835 0 00-.126.7c0 .252.042.486.126.7.094.206.215.388.364.546.159.15.346.267.56.35.215.085.444.127.686.127.476 0 .92-.164 1.33-.49v2.155c-.625.271-1.218.406-1.778.406a4.26 4.26 0 01-1.498-.265 3.953 3.953 0 01-1.246-.757 3.928 3.928 0 01-.854-1.19 3.685 3.685 0 01-.322-1.553c0-.57.103-1.088.308-1.554.206-.476.486-.883.84-1.218a3.68 3.68 0 011.26-.798 4.256 4.256 0 011.582-.295c.616 0 1.186.131 1.708.393v2.155zm3.798 1.245c0 .234.042.453.126.659.084.196.196.368.336.518.149.149.322.265.518.35a1.717 1.717 0 001.288 0c.205-.085.378-.201.518-.35.149-.15.266-.322.35-.518.093-.197.14-.406.14-.63 0-.225-.047-.435-.14-.63a1.605 1.605 0 00-.35-.532 1.456 1.456 0 00-.518-.35 1.717 1.717 0 00-1.288 0c-.196.083-.369.2-.518.35a1.77 1.77 0 00-.336.518 1.484 1.484 0 00-.126.615zm3.192-3.57h2.548v7.182h-2.548v-.798c-.542.682-1.274 1.022-2.198 1.022a3.641 3.641 0 01-1.442-.28 3.557 3.557 0 01-1.148-.812 3.795 3.795 0 01-.77-1.218 4.247 4.247 0 01-.266-1.526c0-.513.088-.998.266-1.456.177-.466.424-.872.742-1.218a3.405 3.405 0 011.134-.812 3.39 3.39 0 011.456-.308c.896 0 1.638.313 2.226.938v-.713zm4.272 0h2.534v1.176a2.85 2.85 0 01.994-.98c.392-.233.849-.35 1.372-.35h.21c.084 0 .177.01.28.029v2.421a2.408 2.408 0 00-1.092-.252c-.588 0-1.031.178-1.33.532-.289.346-.434.854-.434 1.526v3.08h-2.534V4.432zM213.09 6.98a1.526 1.526 0 00-.518-.854 1.453 1.453 0 00-.952-.322c-.392 0-.714.103-.966.308-.243.206-.397.495-.462.869h2.898zm-2.968 1.47c0 1.093.513 1.639 1.54 1.639.55 0 .966-.225 1.246-.673h2.45c-.495 1.643-1.732 2.464-3.71 2.464a4.99 4.99 0 01-1.666-.266 3.883 3.883 0 01-1.302-.784 3.504 3.504 0 01-.826-1.204 4.013 4.013 0 01-.294-1.567c0-.598.093-1.134.28-1.61.186-.486.452-.896.798-1.232.345-.337.76-.593 1.246-.77a4.688 4.688 0 011.666-.28c.606 0 1.152.093 1.638.28.485.177.896.438 1.232.784.336.345.592.77.77 1.274.177.494.266 1.054.266 1.68v.265h-5.334zm6.338 2.397c0-.128.024-.248.072-.36a.919.919 0 01.864-.576c.128 0 .248.024.36.072a.914.914 0 01.576.864c0 .128-.024.25-.072.367a.914.914 0 01-.504.496.961.961 0 01-.728 0 .933.933 0 01-.568-.863zm2.719 0c0-.128.024-.248.072-.36a.919.919 0 01.864-.576c.128 0 .248.024.36.072a.914.914 0 01.576.864c0 .128-.024.25-.072.367a.914.914 0 01-.504.496.961.961 0 01-.728 0 .933.933 0 01-.568-.863zm2.719 0c0-.128.024-.248.072-.36a.904.904 0 01.496-.505.961.961 0 011.032.2.919.919 0 01.2.304.963.963 0 010 .728.925.925 0 01-.504.496.961.961 0 01-.728 0 .933.933 0 01-.568-.863z" fill="#66124B"/></svg>