<svg width="121" height="25" viewBox="0 0 121 25" fill="none" xmlns="http://www.w3.org/2000/svg"><path d="M2.652 9.208c0 .612-.336.936-1.02.936C.936 10.144.6 9.832.6 9.208c0-.612.336-.936 1.032-.936.672 0 1.02.324 1.02.936zm3.378 0c0 .612-.336.936-1.02.936-.696 0-1.032-.312-1.032-.936 0-.612.336-.936 1.032-.936.672 0 1.02.324 1.02.936zm3.378 0c0 .612-.336.936-1.02.936-.696 0-1.032-.312-1.032-.936 0-.612.336-.936 1.032-.936.672 0 1.02.324 1.02.936zm7.495.144l-.06-.012c-.456.444-1.056.804-2.016.804-1.512 0-1.752-1.032-1.752-1.776 0-1.2.732-1.74 2.244-1.848l1.38-.096v-.66c0-.564-.06-.948-.804-.948-.576 0-.876.084-.876.804l-1.692-.144c0-1.62 1.476-1.848 2.58-1.848 1.824 0 2.556.492 2.556 2.172v2.916c0 .192.012.216.192.24l.576.096V10h-2.208l-.12-.648zm-1.02-1.872c-.708.048-.96.228-.96.708s.288.66.684.66c.408 0 .816-.228 1.092-.432V7.42l-.816.06zm11.89 2.076c-.552.336-1.404.588-2.28.588-2.172 0-3.144-1.356-3.144-3.18 0-2.244 1.368-3.336 3.288-3.336.936 0 1.764.264 2.136.504v1.884l-1.284-.06-.144-.792c-.012-.084-.036-.156-.144-.192a2.086 2.086 0 00-.612-.084c-.72 0-1.332.492-1.332 1.896 0 1.56.696 2.004 1.548 2.004.6 0 1.14-.192 1.5-.348l.468 1.116zm4.549-.204l-.06-.012c-.456.444-1.056.804-2.016.804-1.512 0-1.752-1.032-1.752-1.776 0-1.2.732-1.74 2.244-1.848l1.38-.096v-.66c0-.564-.06-.948-.804-.948-.576 0-.876.084-.876.804l-1.692-.144c0-1.62 1.476-1.848 2.58-1.848 1.824 0 2.556.492 2.556 2.172v2.916c0 .192.012.216.192.24l.576.096V10h-2.208l-.12-.648zm-1.02-1.872c-.708.048-.96.228-.96.708s.288.66.684.66c.408 0 .816-.228 1.092-.432V7.42l-.816.06zm11.504-1.356c0-.468-.048-1.032-.672-1.032-.337 0-.66.12-.973.324.024.192.036.384.036.588v2.724c0 .204.012.228.192.252l.48.072V10h-2.483V6.064c0-.444-.037-.972-.637-.972-.36 0-.756.18-.995.384v3.252c0 .192.012.216.192.24l.587.084V10H35.21v-.948l.54-.084c.168-.024.192-.06.192-.24V5.2c0-.132-.035-.216-.156-.252l-.647-.228.132-.972h2.111l.096.624.06.012c.54-.444 1.153-.756 1.92-.756.588 0 1.129.156 1.465.72.396-.312 1.092-.72 1.931-.72 1.285 0 1.764.636 1.764 2.028v3.072c0 .192.013.228.193.252l.6.072V10h-2.604V6.124zM46.425 10c.084-.54.18-1.164.18-1.752V2.392c0-.132-.036-.216-.156-.252l-.66-.228.132-.972h2.472v3.324l.048.012a2.723 2.723 0 011.812-.648c1.296 0 2.316.84 2.316 3.072 0 2.472-1.044 3.444-2.52 3.444-.792 0-1.392-.336-1.764-.756l-.06.012-.084.6h-1.716zm1.98-1.728c.276.252.684.468 1.104.468.792 0 1.164-.744 1.164-1.944 0-.936-.3-1.752-1.104-1.752-.432 0-.876.228-1.164.42v2.808zm7.53-6.564c0 .684-.397 1.08-1.093 1.08-.684 0-1.08-.396-1.08-1.08S54.16.652 54.843.652c.696 0 1.092.372 1.092 1.056zm-2.64 7.344l.611-.084c.169-.024.193-.06.193-.24V5.2c0-.132-.037-.216-.157-.252l-.648-.228.133-.972h2.483v4.98c0 .192.012.216.192.24l.612.084V10h-3.42v-.948zm7.084 1.092c-2.196 0-3.084-1.344-3.084-3.228 0-1.992 1.044-3.288 3.24-3.288 2.22 0 3.084 1.32 3.084 3.156 0 2.04-1.032 3.36-3.24 3.36zm.084-1.26c.78 0 1.26-.54 1.26-2.04 0-1.416-.432-1.92-1.212-1.92-.792 0-1.32.492-1.32 1.932 0 1.452.468 2.028 1.272 2.028zm10.947.444l-.084-.012c-.504.492-1.092.828-1.968.828-1.416 0-2.328-.9-2.328-3.192 0-2.412 1.212-3.324 2.544-3.324.696 0 1.236.24 1.692.576V2.38c0-.12-.048-.204-.156-.24l-.66-.228.132-.972h2.412v7.8c0 .18.012.204.192.228l.576.084V10H71.53l-.12-.672zm-.216-3.948c-.3-.204-.684-.36-1.032-.36-.888 0-1.236.828-1.236 1.896 0 1.164.336 1.812 1.092 1.812.408 0 .852-.24 1.176-.516V5.38zm8.67 4.152c-.744.36-1.56.612-2.46.612-2.316 0-3.108-1.44-3.108-3.312 0-2.172 1.332-3.204 2.976-3.204 1.584 0 2.64.828 2.64 2.904 0 .144-.012.564-.024.804h-3.672c.06.852.432 1.416 1.416 1.416.468 0 .972-.108 1.788-.408l.444 1.188zm-1.728-3.336c-.012-1.008-.408-1.272-.9-1.272-.516 0-.936.288-1.008 1.272h1.908zm9.762 3.468c-.516.252-1.272.48-1.956.48-1.428 0-1.968-.576-1.968-1.932V5.068c0-.072 0-.12-.096-.12h-.84V3.88c1.056-.12 1.476-.648 1.608-1.956h1.14v1.704c0 .084 0 .12.096.12h1.692v1.2h-1.788v2.868c0 .708.168.984.816.984.336 0 .684-.084.972-.192l.324 1.056zm5.054-.312l-.06-.012c-.492.372-1.116.804-2.136.804-1.26 0-1.74-.72-1.74-2.112V5.104c0-.192-.012-.216-.192-.252l-.576-.12.12-.984h2.46V7.72c0 .732.12 1.008.636 1.008.528 0 .96-.3 1.236-.552V5.092c0-.192-.012-.204-.192-.24l-.516-.12.132-.984h2.388v4.98c0 .156.024.204.168.228l.6.084V10h-2.232l-.096-.648zM4.74 20.124c0-.576-.036-1.056-.636-1.056-.444 0-.996.252-1.248.444v3.216c0 .192.012.216.192.24l.576.084V24H.312v-.96l.54-.072c.168-.024.192-.06.192-.24V19.2c0-.132-.036-.216-.156-.252L.24 18.72l.144-.972h2.1l.096.624.048.024c.6-.444 1.296-.768 2.112-.768 1.308 0 1.812.72 1.812 2.04v3.06c0 .192.012.216.192.24l.6.084V24H4.74v-3.876zm7.695 3.228l-.06-.012c-.492.372-1.116.804-2.136.804-1.26 0-1.74-.72-1.74-2.112v-2.928c0-.192-.012-.216-.192-.252l-.576-.12.12-.984h2.46v3.972c0 .732.12 1.008.636 1.008.528 0 .96-.3 1.236-.552v-3.084c0-.192-.012-.204-.192-.24l-.516-.12.132-.984h2.388v4.98c0 .156.024.204.168.228l.6.084V24h-2.232l-.096-.648zM9.94 16.668l1.836-2.088.984.936-2.148 1.752-.672-.6zm13.057 3.456c0-.468-.048-1.032-.672-1.032-.336 0-.66.12-.972.324.024.192.036.384.036.588v2.724c0 .204.012.228.192.252l.48.072V24h-2.484v-3.936c0-.444-.036-.972-.636-.972-.36 0-.756.18-.996.384v3.252c0 .192.012.216.192.24l.588.084V24H15.4v-.948l.54-.084c.168-.024.192-.06.192-.24V19.2c0-.132-.036-.216-.156-.252l-.648-.228.132-.972h2.112l.096.624.06.012c.54-.444 1.152-.756 1.92-.756.588 0 1.128.156 1.464.72.396-.312 1.092-.72 1.932-.72 1.284 0 1.764.636 1.764 2.028v3.072c0 .192.012.228.192.252l.6.072V24h-2.604v-3.876zm8.768 3.408c-.744.36-1.56.612-2.46.612-2.316 0-3.108-1.44-3.108-3.312 0-2.172 1.332-3.204 2.976-3.204 1.584 0 2.64.828 2.64 2.904 0 .144-.012.564-.024.804h-3.672c.06.852.432 1.416 1.416 1.416.468 0 .972-.108 1.788-.408l.444 1.188zm-1.728-3.336c-.012-1.008-.408-1.272-.9-1.272-.516 0-.936.288-1.008 1.272h1.908zm2.572 2.832l.54-.072c.168-.024.192-.06.192-.24V19.2c0-.132-.036-.216-.156-.252l-.648-.228.132-.972h2.112l.144.96h.072c.396-.612.924-1.08 1.692-1.08.276 0 .828.048 1.044.108v2.184l-1.44-.048-.12-.636c-.024-.108-.06-.132-.156-.132-.312 0-.684.264-.864.42v3.18c0 .192.012.228.192.24l1.188.096V24h-3.924v-.972zm8.83 1.116c-2.196 0-3.084-1.344-3.084-3.228 0-1.992 1.044-3.288 3.24-3.288 2.22 0 3.084 1.32 3.084 3.156 0 2.04-1.032 3.36-3.24 3.36zm.084-1.26c.78 0 1.26-.54 1.26-2.04 0-1.416-.432-1.92-1.212-1.92-.792 0-1.32.492-1.32 1.932 0 1.452.468 2.028 1.272 2.028zm10.946.444l-.084-.012c-.504.492-1.092.828-1.968.828-1.416 0-2.328-.9-2.328-3.192 0-2.412 1.212-3.324 2.544-3.324.696 0 1.236.24 1.692.576V16.38c0-.12-.048-.204-.156-.24l-.66-.228.132-.972h2.412v7.8c0 .18.012.204.192.228l.576.084V24h-2.232l-.12-.672zm-.216-3.948c-.3-.204-.684-.36-1.032-.36-.888 0-1.236.828-1.236 1.896 0 1.164.336 1.812 1.092 1.812.408 0 .852-.24 1.176-.516V19.38zm8.67 4.152c-.744.36-1.56.612-2.46.612-2.316 0-3.108-1.44-3.108-3.312 0-2.172 1.332-3.204 2.976-3.204 1.584 0 2.64.828 2.64 2.904 0 .144-.012.564-.024.804h-3.672c.06.852.432 1.416 1.416 1.416.468 0 .972-.108 1.788-.408l.444 1.188zm-1.728-3.336c-.012-1.008-.408-1.272-.9-1.272-.516 0-.936.288-1.008 1.272h1.908zm11.983 2.868l.984-.084c.18-.012.192-.072.192-.24v-4.56h-.048l-1.716 4.092h-1.956l-1.692-4.104h-.06v4.56c0 .192.024.228.192.24l1.032.096V24h-3.648v-.936l.756-.084c.168-.024.192-.06.192-.24v-6.156c0-.18-.024-.216-.192-.24l-.756-.084v-.948h3.216l2.088 5.436h.048l2.196-5.436h3.12v.936l-.804.096c-.18.024-.192.048-.192.228v6.168c0 .156.036.204.192.228l.804.096V24h-3.948v-.936zm10.262.468c-.744.36-1.56.612-2.46.612-2.316 0-3.108-1.44-3.108-3.312 0-2.172 1.332-3.204 2.976-3.204 1.584 0 2.64.828 2.64 2.904 0 .144-.012.564-.024.804H77.79c.06.852.432 1.416 1.416 1.416.468 0 .972-.108 1.788-.408l.444 1.188zm-1.728-3.336c-.012-1.008-.408-1.272-.9-1.272-.516 0-.936.288-1.008 1.272h1.908zm7.025 3.132l-.084-.012c-.504.492-1.092.828-1.968.828-1.416 0-2.328-.9-2.328-3.192 0-2.412 1.212-3.324 2.544-3.324.696 0 1.236.24 1.692.576V16.38c0-.12-.048-.204-.156-.24l-.66-.228.132-.972h2.412v7.8c0 .18.012.204.192.228l.576.084V24h-2.232l-.12-.672zm-.216-3.948c-.3-.204-.684-.36-1.032-.36-.888 0-1.236.828-1.236 1.896 0 1.164.336 1.812 1.092 1.812.408 0 .852-.24 1.176-.516V19.38zm5.752-3.672c0 .684-.396 1.08-1.092 1.08-.684 0-1.08-.396-1.08-1.08s.396-1.056 1.08-1.056c.696 0 1.092.372 1.092 1.056zm-2.64 7.344l.612-.084c.168-.024.192-.06.192-.24V19.2c0-.132-.036-.216-.156-.252l-.648-.228.132-.972h2.484v4.98c0 .192.012.216.192.24l.612.084V24h-3.42v-.948zm9.425.504c-.552.336-1.404.588-2.28.588-2.172 0-3.144-1.356-3.144-3.18 0-2.244 1.368-3.336 3.288-3.336.936 0 1.764.264 2.136.504v1.884l-1.284-.06-.144-.792c-.012-.084-.036-.156-.144-.192a2.086 2.086 0 00-.612-.084c-.72 0-1.332.492-1.332 1.896 0 1.56.696 2.004 1.548 2.004.6 0 1.14-.192 1.5-.348l.468 1.116zm4.549-.204l-.06-.012c-.456.444-1.056.804-2.016.804-1.512 0-1.752-1.032-1.752-1.776 0-1.2.732-1.74 2.244-1.848l1.38-.096v-.66c0-.564-.06-.948-.804-.948-.576 0-.876.084-.876.804l-1.692-.144c0-1.62 1.476-1.848 2.58-1.848 1.824 0 2.556.492 2.556 2.172v2.916c0 .192.012.216.192.24l.576.096V24h-2.208l-.12-.648zm-1.02-1.872c-.708.048-.96.228-.96.708s.288.66.684.66c.408 0 .816-.228 1.092-.432v-.996l-.816.06zm3.908 1.548l.54-.072c.168-.024.192-.06.192-.24V19.2c0-.132-.036-.216-.156-.252l-.648-.228.132-.972h2.112l.144.96h.072c.396-.612.924-1.08 1.692-1.08.276 0 .828.048 1.044.108v2.184l-1.44-.048-.12-.636c-.024-.108-.06-.132-.156-.132-.312 0-.684.264-.864.42v3.18c0 .192.012.228.192.24l1.188.096V24h-3.924v-.972zm11.313.504c-.744.36-1.56.612-2.46.612-2.316 0-3.108-1.44-3.108-3.312 0-2.172 1.332-3.204 2.976-3.204 1.584 0 2.64.828 2.64 2.904 0 .144-.012.564-.024.804h-3.672c.06.852.432 1.416 1.416 1.416.468 0 .972-.108 1.788-.408l.444 1.188zm-1.728-3.336c-.012-1.008-.408-1.272-.9-1.272-.516 0-.936.288-1.008 1.272h1.908zm4.854 3.012c0 .612-.336.936-1.02.936-.696 0-1.032-.312-1.032-.936 0-.612.336-.936 1.032-.936.672 0 1.02.324 1.02.936z" fill="#2B3D51"/></svg>