<svg width="751" height="49" viewBox="0 0 751 49" fill="none" xmlns="http://www.w3.org/2000/svg"><path d="M.117 40L14.79 3.712h10.976L40.437 40H29.573l-1.68-4.704H12.661L10.981 40H.117zm15.4-12.88h9.52l-4.312-12.264c-.336-.896-.392-1.232-.448-1.456 0 0-.112.504-.448 1.456L15.517 27.12zm28.187 21.112V11.384h9.632v3.192c2.296-3.08 5.488-3.752 7.784-3.752 7.952 0 12.264 6.608 12.264 14.84 0 8.288-4.592 14.896-12.6 14.896-2.296 0-5.152-.784-6.888-2.968v10.64H43.704zM58.376 31.6c2.688 0 4.592-2.408 4.592-5.88 0-3.416-1.904-5.936-4.592-5.936-2.688 0-4.592 2.52-4.592 5.936 0 3.472 1.904 5.88 4.592 5.88zM77.842 40V11.384h9.912v5.096c.168-1.232 2.632-5.656 9.352-5.656v11.088c-7.392 0-9.072 3.08-9.072 8.456V40H77.842zm38.712.56c-8.68 0-16.072-5.432-16.072-14.84 0-8.288 6.44-14.896 14.896-14.896 8.12 0 14.336 6.608 14.336 14.896 0 1.736-.224 3.304-.224 3.304h-18.984c.84 2.688 3.36 3.696 6.104 3.696 2.408 0 4.984-.728 6.776-1.736l3.416 6.888c-3.192 1.96-6.72 2.688-10.248 2.688zm-6.328-17.304h10.192c-.336-2.632-2.408-4.424-5.04-4.424-2.52 0-4.536 1.792-5.152 4.424zM134.196 40V11.384h9.632v3.304c2.632-3.08 5.768-3.864 8.624-3.864 7.224 0 10.024 4.256 10.024 12.656V40h-10.192V24.768c0-3.248-1.232-4.424-3.192-4.424-3.136 0-4.704 2.632-4.704 6.16V40h-10.192zm44.748.56c-7.952 0-12.264-6.608-12.264-14.84 0-8.288 4.592-14.896 12.6-14.896 2.296 0 5.152.784 6.888 2.968V3.152h10.192V40h-9.632v-3.192c-1.512 2.912-5.488 3.752-7.784 3.752zm2.688-8.96c2.688 0 4.592-2.408 4.592-5.88 0-3.416-1.904-5.936-4.592-5.936-2.688 0-4.592 2.52-4.592 5.936 0 3.472 1.904 5.88 4.592 5.88zm35.259 8.96c-8.68 0-16.072-5.432-16.072-14.84 0-8.288 6.44-14.896 14.896-14.896 8.12 0 14.336 6.608 14.336 14.896 0 1.736-.224 3.304-.224 3.304h-18.984c.84 2.688 3.36 3.696 6.104 3.696 2.408 0 4.984-.728 6.776-1.736l3.416 6.888c-3.192 1.96-6.72 2.688-10.248 2.688zm-6.328-17.304h10.192c-.336-2.632-2.408-4.424-5.04-4.424-2.52 0-4.536 1.792-5.152 4.424zM259.21 40.56c-7.952 0-12.264-6.608-12.264-14.84 0-8.288 4.312-14.896 12.264-14.896 2.296 0 6.104.784 7.784 3.752v-3.192h9.632V40h-9.632v-3.192c-1.568 2.912-5.488 3.752-7.784 3.752zm2.688-8.96c2.688 0 4.592-2.408 4.592-5.88 0-3.416-1.904-5.936-4.592-5.936-2.688 0-4.592 2.52-4.592 5.936 0 3.472 1.904 5.88 4.592 5.88zm44.425 8.96c-7.952 0-12.264-6.608-12.264-14.84 0-8.288 4.592-14.896 12.6-14.896 2.296 0 5.152.784 6.888 2.968V3.152h10.192V40h-9.632v-3.192c-1.512 2.912-5.488 3.752-7.784 3.752zm2.688-8.96c2.688 0 4.592-2.408 4.592-5.88 0-3.416-1.904-5.936-4.592-5.936-2.688 0-4.592 2.52-4.592 5.936 0 3.472 1.904 5.88 4.592 5.88zm35.258 8.96c-8.68 0-16.072-5.432-16.072-14.84 0-8.288 6.44-14.896 14.896-14.896 8.12 0 14.336 6.608 14.336 14.896 0 1.736-.224 3.304-.224 3.304h-18.984c.84 2.688 3.36 3.696 6.104 3.696 2.408 0 4.984-.728 6.776-1.736l3.416 6.888c-3.192 1.96-6.72 2.688-10.248 2.688zm-6.328-17.304h10.192c-.336-2.632-2.408-4.424-5.04-4.424-2.52 0-4.536 1.792-5.152 4.424zm35.393 17.304c-5.488 0-9.072-3.528-9.072-9.8V19.448h-4.2v-8.064h4.2V6.232l10.192-2.52v7.672h6.328v8.064h-6.328v10.528c0 1.344.672 1.792 1.568 1.792.84 0 1.848-.392 2.576-.896l2.744 7.448c-2.464 1.736-5.488 2.24-8.008 2.24zm26.742 0c-8.68 0-16.072-5.432-16.072-14.84 0-8.288 6.44-14.896 14.896-14.896 8.12 0 14.336 6.608 14.336 14.896 0 1.736-.224 3.304-.224 3.304h-18.984c.84 2.688 3.36 3.696 6.104 3.696 2.408 0 4.984-.728 6.776-1.736l3.416 6.888c-3.192 1.96-6.72 2.688-10.248 2.688zm-6.328-17.304h10.192c-.336-2.632-2.408-4.424-5.04-4.424-2.52 0-4.536 1.792-5.152 4.424zm38.866 17.304c-8.792 0-15.456-6.608-15.456-14.84 0-8.288 6.664-14.896 15.456-14.896 3.92 0 7.112 1.176 10.136 3.584l-5.88 7.056c-1.064-1.008-2.24-1.68-3.976-1.68-3.304 0-5.432 2.52-5.432 5.936 0 3.472 2.072 5.88 5.656 5.88 1.96 0 3.584-.84 4.816-2.072l5.096 7.504c-2.744 2.296-6.384 3.528-10.416 3.528zm25.252 0c-5.488 0-9.072-3.528-9.072-9.8V19.448h-4.2v-8.064h4.2V6.232l10.192-2.52v7.672h6.328v8.064h-6.328v10.528c0 1.344.672 1.792 1.568 1.792.84 0 1.848-.392 2.576-.896l2.744 7.448c-2.464 1.736-5.488 2.24-8.008 2.24zm22.934 0c-7.952 0-12.264-6.608-12.264-14.84 0-8.288 4.312-14.896 12.264-14.896 2.296 0 6.104.784 7.784 3.752v-3.192h9.632V40h-9.632v-3.192c-1.568 2.912-5.488 3.752-7.784 3.752zm2.688-8.96c2.688 0 4.592-2.408 4.592-5.88 0-3.416-1.904-5.936-4.592-5.936-2.688 0-4.592 2.52-4.592 5.936 0 3.472 1.904 5.88 4.592 5.88zm19.746 8.4V11.384h9.912v5.096c.168-1.232 2.632-5.656 9.352-5.656v11.088c-7.392 0-9.072 3.08-9.072 8.456V40h-10.192zm51.687.56c-8.68 0-16.072-5.432-16.072-14.84 0-8.288 6.44-14.896 14.896-14.896 8.12 0 14.336 6.608 14.336 14.896a26.37 26.37 0 01-.224 3.304h-18.984c.84 2.688 3.36 3.696 6.104 3.696 2.408 0 4.984-.728 6.776-1.736l3.416 6.888c-3.192 1.96-6.72 2.688-10.248 2.688zm-6.328-17.304h10.192c-.336-2.632-2.408-4.424-5.04-4.424-2.52 0-4.536 1.792-5.152 4.424zM583.09 40.56c-6.552 0-10.192-1.96-11.872-3.416l3.248-7.168c2.24 1.512 4.312 2.408 8.68 2.408.112 0 2.8-.168 2.8-1.288 0-.896-1.68-1.064-3.36-1.456-6.216-1.512-10.808-4.032-10.808-9.296 0-6.272 5.712-9.52 11.76-9.52 5.544 0 8.848 1.232 11.592 2.688l-3.024 6.832c-3.304-1.288-6.328-1.68-8.232-1.68-1.008 0-1.792.336-1.792.896 0 1.064 2.408 1.456 5.264 2.24 4.032 1.176 8.904 3.136 8.904 8.904 0 7.672-7.784 9.856-13.16 9.856zm28.472 0c-5.488 0-9.072-3.528-9.072-9.8V19.448h-4.2v-8.064h4.2V6.232l10.192-2.52v7.672h6.328v8.064h-6.328v10.528c0 1.344.672 1.792 1.568 1.792.84 0 1.848-.392 2.576-.896l2.744 7.448c-2.464 1.736-5.488 2.24-8.008 2.24zm22.934 0c-7.952 0-12.264-6.608-12.264-14.84 0-8.288 4.312-14.896 12.264-14.896 2.296 0 6.104.784 7.784 3.752v-3.192h9.632V40h-9.632v-3.192c-1.568 2.912-5.488 3.752-7.784 3.752zm2.688-8.96c2.688 0 4.592-2.408 4.592-5.88 0-3.416-1.904-5.936-4.592-5.936-2.688 0-4.592 2.52-4.592 5.936 0 3.472 1.904 5.88 4.592 5.88zM658.61 40V19.672h-4.312v-8.064h4.312V9.816c0-6.272 3.584-9.8 9.072-9.8 2.52 0 5.544.392 8.008 1.624l-2.744 7.448c-.728-.28-1.512-.448-2.24-.448-1.064 0-1.904.56-1.904 2.352v.616h5.6v8.064h-5.6V40H658.61zm30.381.56c-7.952 0-12.264-6.608-12.264-14.84 0-8.288 4.312-14.896 12.264-14.896 2.296 0 6.104.784 7.784 3.752v-3.192h9.632V40h-9.632v-3.192c-1.568 2.912-5.488 3.752-7.784 3.752zm2.688-8.96c2.688 0 4.592-2.408 4.592-5.88 0-3.416-1.904-5.936-4.592-5.936-2.688 0-4.592 2.52-4.592 5.936 0 3.472 1.904 5.88 4.592 5.88zm30.274 8.96c-6.552 0-10.192-1.96-11.872-3.416l3.248-7.168c2.24 1.512 4.312 2.408 8.68 2.408.112 0 2.8-.168 2.8-1.288 0-.896-1.68-1.064-3.36-1.456-6.216-1.512-10.808-4.032-10.808-9.296 0-6.272 5.712-9.52 11.76-9.52 5.544 0 8.848 1.232 11.592 2.688l-3.024 6.832c-3.304-1.288-6.328-1.68-8.232-1.68-1.008 0-1.792.336-1.792.896 0 1.064 2.408 1.456 5.264 2.24 4.032 1.176 8.904 3.136 8.904 8.904 0 7.672-7.784 9.856-13.16 9.856zm23.039 0c-3.192 0-5.544-2.408-5.544-5.488 0-3.08 2.352-5.488 5.544-5.488 3.248 0 5.656 2.408 5.656 5.488 0 3.08-2.408 5.488-5.656 5.488z" fill="#0B2E54"/></svg>