<svg width="125" height="26" viewBox="0 0 125 26" fill="none" xmlns="http://www.w3.org/2000/svg"><path d="M1.032 25.808l.42-11.396H5.54l.392 11.396h-4.9zm2.436-12.936c-1.596 0-2.772-1.204-2.772-2.744 0-1.54 1.176-2.744 2.772-2.744 1.624 0 2.828 1.204 2.828 2.744 0 1.54-1.204 2.744-2.828 2.744zm14.86 9.464c-5.768 0-9.604-4.172-9.604-9.408 0-5.18 3.836-9.352 9.604-9.352 2.772 0 5.264.98 6.916 2.632l-3.5 3.612c-1.288-1.316-2.324-1.428-3.192-1.428-2.352 0-4.284 1.904-4.284 4.536 0 2.688 1.792 4.592 4.284 4.592 1.484 0 2.856-.672 3.864-2.016l3.388 3.724c-1.82 2.016-4.368 3.108-7.476 3.108zm14.034-.056c-4.312 0-5.208-2.688-5.208-6.328v-8.26h5.096v7.616c0 1.512.504 2.212 1.848 2.212 1.54 0 2.1-1.316 2.1-3.08V7.692h5.096V22h-4.816v-1.568c-.784 1.008-2.632 1.848-4.116 1.848zM43.536 22V7.692h5.096V22h-5.096zm2.52-15.4c-1.568 0-2.884-1.316-2.884-2.884 0-1.596 1.316-2.912 2.884-2.912 1.624 0 2.94 1.316 2.94 2.912 0 1.568-1.316 2.884-2.94 2.884zm10.66 15.68c-3.976 0-6.132-3.304-6.132-7.42 0-4.144 2.296-7.448 6.3-7.448 1.148 0 2.576.392 3.444 1.484v-5.32h5.096V22h-4.816v-1.596c-.756 1.456-2.744 1.876-3.892 1.876zm1.344-4.48c1.344 0 2.296-1.204 2.296-2.94 0-1.708-.952-2.968-2.296-2.968-1.344 0-2.296 1.26-2.296 2.968 0 1.736.952 2.94 2.296 2.94zm15.445 4.48c-3.976 0-6.132-3.304-6.132-7.42 0-4.144 2.156-7.448 6.132-7.448 1.148 0 3.052.392 3.892 1.876V7.692h4.816V22h-4.816v-1.596c-.784 1.456-2.744 1.876-3.892 1.876zm1.344-4.48c1.344 0 2.296-1.204 2.296-2.94 0-1.708-.952-2.968-2.296-2.968-1.344 0-2.296 1.26-2.296 2.968 0 1.736.952 2.94 2.296 2.94zm15.445 4.48c-3.976 0-6.132-3.304-6.132-7.42 0-4.144 2.296-7.448 6.3-7.448 1.148 0 2.576.392 3.444 1.484v-5.32h5.096V22h-4.816v-1.596c-.756 1.456-2.744 1.876-3.892 1.876zm1.344-4.48c1.344 0 2.296-1.204 2.296-2.94 0-1.708-.952-2.968-2.296-2.968-1.344 0-2.296 1.26-2.296 2.968 0 1.736.952 2.94 2.296 2.94zm17.041 4.48c-4.396 0-7.728-3.304-7.728-7.42 0-4.144 3.332-7.448 7.728-7.448s7.728 3.304 7.728 7.448c0 4.116-3.332 7.42-7.728 7.42zm0-4.48c1.512 0 2.576-1.204 2.576-2.94 0-1.708-1.064-2.968-2.576-2.968s-2.576 1.26-2.576 2.968c0 1.736 1.064 2.94 2.576 2.94zm10.789-2.548l-.42-11.396h4.9l-.392 11.396h-4.088zm2.016 1.54c1.624 0 2.828 1.204 2.828 2.744 0 1.54-1.204 2.744-2.828 2.744-1.596 0-2.772-1.204-2.772-2.744 0-1.54 1.176-2.744 2.772-2.744z" fill="#fff"/></svg>