<svg width="48" height="43" viewBox="0 0 48 43" fill="none" xmlns="http://www.w3.org/2000/svg"><path d="M28.8 1.594H6.4c-2.651 0-4.8 2.14-4.8 4.781v38.25c0 2.64 2.149 4.781 4.8 4.781h22.4c2.65 0 4.8-2.14 4.8-4.781V6.375c0-2.64-2.15-4.781-4.8-4.781z" fill="#F2F2F2"/><path d="M33.6 6.375a4.772 4.772 0 00-1.406-3.38A4.81 4.81 0 0028.8 1.593H6.4a4.81 4.81 0 00-3.394 1.4A4.772 4.772 0 001.6 6.375v6.375h32V6.375zM1.6 44.625c0 1.268.506 2.484 1.406 3.38A4.81 4.81 0 006.4 49.407h22.4a4.81 4.81 0 003.394-1.4 4.772 4.772 0 001.406-3.381V38.25h-32v6.375z" fill="#C1C5C8"/><path d="M28.8 51H6.4a6.413 6.413 0 01-4.525-1.867A6.362 6.362 0 010 44.625V6.375c0-1.69.674-3.312 1.875-4.508A6.413 6.413 0 016.4 0h22.4c1.697 0 3.325.672 4.525 1.867A6.363 6.363 0 0135.2 6.375v38.25c0 1.69-.674 3.312-1.875 4.508A6.413 6.413 0 0128.8 51zM6.4 3.187c-.849 0-1.663.336-2.263.934A3.181 3.181 0 003.2 6.375v38.25c0 .845.337 1.656.937 2.254.6.598 1.414.934 2.263.934h22.4c.849 0 1.663-.336 2.263-.934A3.18 3.18 0 0032 44.625V6.375a3.18 3.18 0 00-.937-2.254 3.206 3.206 0 00-2.263-.934H6.4z" fill="#101B31"/><path d="M17.6 9.563h-6.4c-.424 0-.831-.168-1.131-.467a1.59 1.59 0 010-2.254c.3-.3.707-.467 1.131-.467h6.4c.424 0 .831.168 1.131.467a1.59 1.59 0 010 2.254c-.3.299-.707.466-1.131.466zM40 33.469c-.424 0-.831-.168-1.131-.467a1.59 1.59 0 01-.469-1.127v-12.75c0-.423.169-.828.469-1.127a1.603 1.603 0 012.262 0c.3.299.469.704.469 1.127v12.75c0 .423-.169.828-.469 1.127-.3.299-.707.467-1.131.467zM46.4 28.688c-.424 0-.831-.168-1.131-.467a1.59 1.59 0 01-.469-1.127v-4.781c0-.423.169-.828.469-1.127A1.603 1.603 0 0148 22.313v4.78c0 .424-.169.829-.469 1.128-.3.299-.707.467-1.131.467zM24 9.563c.884 0 1.6-.714 1.6-1.594 0-.88-.716-1.594-1.6-1.594-.884 0-1.6.714-1.6 1.594 0 .88.716 1.593 1.6 1.593zM17.6 45.027c.884 0 1.6-.714 1.6-1.594 0-.88-.716-1.594-1.6-1.594-.884 0-1.6.714-1.6 1.594 0 .88.716 1.594 1.6 1.594z" fill="#101B31"/><path d="M17.504 33.628c4.55 0 8.24-3.675 8.24-8.208s-3.69-8.208-8.24-8.208c-4.55 0-8.24 3.675-8.24 8.208s3.69 8.208 8.24 8.208z" fill="#C80000"/><path d="M17.504 26.823a1.412 1.412 0 001.3-.866c.072-.17.108-.352.108-.537V21.23a1.397 1.397 0 00-.827-1.43 1.412 1.412 0 00-1.913.85c-.06.186-.081.384-.06.58V25.5c.02.355.175.69.434.935.258.246.6.385.958.388zM17.504 31.014c.778 0 1.408-.628 1.408-1.402 0-.775-.63-1.403-1.408-1.403-.778 0-1.408.628-1.408 1.403 0 .774.63 1.402 1.408 1.402z" fill="#fff"/></svg>