<svg width="139" height="17" viewBox="0 0 139 17" fill="none" xmlns="http://www.w3.org/2000/svg"><path d="M2.94 14.2c-1.14 0-1.98-.86-1.98-1.96s.84-1.96 1.98-1.96c1.16 0 2.02.86 2.02 1.96S4.1 14.2 2.94 14.2zm5.918 0c-1.14 0-1.98-.86-1.98-1.96s.84-1.96 1.98-1.96c1.16 0 2.02.86 2.02 1.96s-.86 1.96-2.02 1.96zm5.918 0c-1.14 0-1.98-.86-1.98-1.96s.84-1.96 1.98-1.96c1.16 0 2.02.86 2.02 1.96s-.86 1.96-2.02 1.96zm7.398 0c-3.08 0-3.72-1.92-3.72-4.52v-5.9h3.64v5.44c0 1.08.36 1.58 1.32 1.58 1.1 0 1.5-.94 1.5-2.2V3.78h3.64V14h-3.44v-1.12c-.56.72-1.88 1.32-2.94 1.32zm7.982-.2V3.78h3.44v1.18c.94-1.1 2.06-1.38 3.08-1.38 2.58 0 3.58 1.52 3.58 4.52V14h-3.64V8.56c0-1.16-.44-1.58-1.14-1.58-1.12 0-1.68.94-1.68 2.2V14h-3.64zm15.781.2c-2.84 0-4.38-2.36-4.38-5.3 0-2.96 1.54-5.32 4.38-5.32.82 0 2.18.28 2.78 1.34V3.78h3.44V14h-3.44v-1.14c-.56 1.04-1.96 1.34-2.78 1.34zm.96-3.2c.96 0 1.64-.86 1.64-2.1 0-1.22-.68-2.12-1.64-2.12-.96 0-1.64.9-1.64 2.12 0 1.24.68 2.1 1.64 2.1zm11.286 3V.84h3.64V14h-3.64zm5.234 0V.84h3.64V14h-3.64zm9.415.2c-2.84 0-4.38-2.36-4.38-5.3 0-2.96 1.54-5.32 4.38-5.32.82 0 2.18.28 2.78 1.34V3.78h3.44V14h-3.44v-1.14c-.56 1.04-1.96 1.34-2.78 1.34zm.96-3.2c.96 0 1.64-.86 1.64-2.1 0-1.22-.68-2.12-1.64-2.12-.96 0-1.64.9-1.64 2.12 0 1.24.68 2.1 1.64 2.1zm6.852 3V3.78h3.44V4.9c.76-.86 1.94-1.32 3.08-1.32 1.64 0 2.52.66 3 1.58.88-1.28 2.24-1.58 3.26-1.58 3.3 0 3.58 2.66 3.58 4.72V14h-3.64V8.72c0-1.22-.34-1.78-1.14-1.78-1.08 0-1.58.98-1.58 2.24V14h-3.64V8.72c0-1.22-.34-1.78-1.14-1.78-1.08 0-1.58.98-1.58 2.24V14h-3.64zm22.031.2c-2.84 0-4.38-2.36-4.38-5.3 0-2.96 1.54-5.32 4.38-5.32.82 0 2.18.28 2.78 1.34V3.78h3.44V14h-3.44v-1.14c-.56 1.04-1.96 1.34-2.78 1.34zm.96-3.2c.96 0 1.64-.86 1.64-2.1 0-1.22-.68-2.12-1.64-2.12-.96 0-1.64.9-1.64 2.12 0 1.24.68 2.1 1.64 2.1zm11.033 3.2c-2.84 0-4.38-2.36-4.38-5.3 0-2.96 1.64-5.32 4.5-5.32.82 0 1.84.28 2.46 1.06V.84h3.64V14h-3.44v-1.14c-.54 1.04-1.96 1.34-2.78 1.34zm.96-3.2c.96 0 1.64-.86 1.64-2.1 0-1.22-.68-2.12-1.64-2.12-.96 0-1.64.9-1.64 2.12 0 1.24.68 2.1 1.64 2.1zm11.032 3.2c-2.84 0-4.38-2.36-4.38-5.3 0-2.96 1.54-5.32 4.38-5.32.82 0 2.18.28 2.78 1.34V3.78h3.44V14h-3.44v-1.14c-.56 1.04-1.96 1.34-2.78 1.34zm.96-3.2c.96 0 1.64-.86 1.64-2.1 0-1.22-.68-2.12-1.64-2.12-.96 0-1.64.9-1.64 2.12 0 1.24.68 2.1 1.64 2.1zm6.492 5.74l1.36-6.16h3.1l-2.32 6.16h-2.14z" fill="#fff"/></svg>