<svg width="134" height="29" viewBox="0 0 134 29" fill="none" xmlns="http://www.w3.org/2000/svg"><path d="M.96 11V1.28h7.605v1.8H3.06v1.98h5.22v1.785H3.06V9.2h5.715V11H.96zm9.081 0V1.13h2.01V11h-2.01zm7.456 0V5.135h-1.17v-1.62h1.17V3.02c0-1.74.96-2.49 2.235-2.49.675 0 1.425.195 1.95.465l-.57 1.485c-.165-.075-.495-.225-.84-.225-.42 0-.765.21-.765.99v.27h1.875v1.62h-1.875V11h-2.01zm4.874 0V3.5h1.98v1.44c.21-.615.975-1.59 2.625-1.59v2.19c-1.74 0-2.595.795-2.595 2.58V11h-2.01zm8.955.15c-2.07 0-3.39-1.74-3.39-3.9s1.32-3.9 3.39-3.9c.87 0 1.8.345 2.34 1.065V3.5h1.965V11h-1.965v-.9c-.525.72-1.47 1.05-2.34 1.05zm.51-1.86c1.035 0 1.785-.84 1.785-2.04 0-1.17-.75-2.04-1.786-2.04-1.08 0-1.86.87-1.86 2.04 0 1.185.78 2.04 1.86 2.04zm8.094 1.86c-2.07 0-2.73-1.215-2.73-3.165V3.5h2.01v4.215c0 1.05.45 1.53 1.38 1.53 1.05 0 1.56-.885 1.56-1.905V3.5h2.01V11h-1.89V9.95c-.45.735-1.47 1.2-2.34 1.2zm9.069 0c-2.07 0-3.39-1.74-3.39-3.9s1.35-3.9 3.42-3.9c.87 0 1.725.345 2.265.99V1.13h2.01V11h-1.905v-.9c-.54.72-1.5 1.05-2.4 1.05zm.51-1.86c1.035 0 1.785-.84 1.785-2.04 0-1.17-.75-2.04-1.785-2.04-1.08 0-1.86.87-1.86 2.04 0 1.185.78 2.04 1.86 2.04zm9.354 1.86c-2.19 0-4.11-1.425-4.11-3.9 0-2.16 1.68-3.9 3.885-3.9 2.04 0 3.645 1.74 3.645 3.87 0 .36-.045.72-.045.72h-5.445c.24 1.035 1.095 1.53 2.085 1.53.72 0 1.47-.21 2.025-.585l.75 1.44a5.053 5.053 0 01-2.79.825zm-2.1-4.545h3.63c-.15-.945-.9-1.575-1.815-1.575-.87 0-1.62.63-1.815 1.575zM67.2 13.16V3.5h1.906v.9c.615-.735 1.5-1.05 2.4-1.05 2.07 0 3.39 1.74 3.39 3.885 0 2.175-1.35 3.915-3.42 3.915-.87 0-1.726-.345-2.266-1.005v3.015h-2.01zm3.78-3.87c1.096 0 1.86-.855 1.86-2.04s-.764-2.04-1.86-2.04c-1.02 0-1.784.84-1.784 2.04 0 1.185.75 2.04 1.784 2.04zm7.99 1.86c-2.07 0-2.73-1.215-2.73-3.165V3.5h2.01v4.215c0 1.05.45 1.53 1.38 1.53 1.05 0 1.56-.885 1.56-1.905V3.5h2.01V11h-1.89V9.95c-.45.735-1.47 1.2-2.34 1.2zm9.789 0c-2.19 0-4.11-1.425-4.11-3.9 0-2.16 1.68-3.9 3.885-3.9 2.04 0 3.645 1.74 3.645 3.87 0 .36-.045.72-.045.72H86.69c.24 1.035 1.095 1.53 2.085 1.53.72 0 1.47-.21 2.025-.585l.75 1.44a5.053 5.053 0 01-2.79.825zm-2.1-4.545h3.63c-.15-.945-.9-1.575-1.815-1.575-.87 0-1.62.63-1.815 1.575zm10.157 4.545c-2.07 0-3.39-1.74-3.39-3.9s1.35-3.9 3.42-3.9c.87 0 1.726.345 2.266.99V1.13h2.009V11h-1.904v-.9c-.54.72-1.5 1.05-2.4 1.05zm.51-1.86c1.035 0 1.785-.84 1.785-2.04 0-1.17-.75-2.04-1.784-2.04-1.08 0-1.86.87-1.86 2.04 0 1.185.78 2.04 1.86 2.04zm9.355 1.86c-2.19 0-4.11-1.425-4.11-3.9 0-2.16 1.68-3.9 3.885-3.9 2.04 0 3.645 1.74 3.645 3.87 0 .36-.045.72-.045.72h-5.445c.24 1.035 1.095 1.53 2.085 1.53.72 0 1.47-.21 2.025-.585l.75 1.44a5.053 5.053 0 01-2.79.825zm-2.1-4.545h3.63c-.15-.945-.9-1.575-1.815-1.575-.87 0-1.62.63-1.815 1.575zM.765 26v-9.87h2.01V26H.765zm3.695 0v-9.87h2.01V26H4.46zm7.58.15c-2.19 0-4.11-1.425-4.11-3.9 0-2.16 1.68-3.9 3.885-3.9 2.04 0 3.645 1.74 3.645 3.87 0 .36-.045.72-.045.72H9.97c.24 1.035 1.095 1.53 2.085 1.53.72 0 1.47-.21 2.025-.585l.75 1.44a5.053 5.053 0 01-2.79.825zm-2.1-4.545h3.63c-.15-.945-.9-1.575-1.815-1.575-.87 0-1.62.63-1.815 1.575zm10.443 6.6c-1.35 0-2.445-.36-3.135-.93l.75-1.26c.6.465 1.47.675 2.175.675 1.395 0 2.1-.84 2.16-2.04.015-.045.015-.105.015-.165-.33.585-1.14 1.11-2.25 1.11-2.085 0-3.39-1.62-3.39-3.615 0-2.01 1.305-3.63 3.39-3.63.96 0 1.95.42 2.355 1.17V18.5h1.905v5.685c0 2.46-1.485 4.02-3.975 4.02zm.165-4.365c1.05 0 1.815-.78 1.815-1.905 0-1.05-.78-1.845-1.815-1.845-1.02 0-1.8.795-1.8 1.89 0 1.08.78 1.86 1.8 1.86zm8.635 2.31c-2.07 0-3.39-1.74-3.39-3.9s1.32-3.9 3.39-3.9c.87 0 1.8.345 2.34 1.065V18.5h1.965V26h-1.965v-.9c-.525.72-1.47 1.05-2.34 1.05zm.51-1.86c1.035 0 1.785-.84 1.785-2.04 0-1.17-.75-2.04-1.785-2.04-1.08 0-1.86.87-1.86 2.04 0 1.185.78 2.04 1.86 2.04zm5.47 1.71v-7.5h1.98v1.44c.21-.615.974-1.59 2.624-1.59v2.19c-1.74 0-2.595.795-2.595 2.58V26h-2.01zm12.459.15c-2.07 0-3.39-1.74-3.39-3.9s1.32-3.9 3.39-3.9c.87 0 1.8.345 2.34 1.065V18.5h1.965V26h-1.965v-.9c-.525.72-1.47 1.05-2.34 1.05zm.51-1.86c1.035 0 1.785-.84 1.785-2.04 0-1.17-.75-2.04-1.785-2.04-1.08 0-1.86.87-1.86 2.04 0 1.185.78 2.04 1.86 2.04zm11.735 1.86c-1.5 0-2.31-.87-2.31-2.565V20.12h-1.095V18.5h1.095v-1.44l2.01-.45v1.89h2.07v1.62h-2.07v3.435c0 .645.315.855.675.855.48 0 .9-.27.96-.315l.57 1.485c-.45.3-1.11.57-1.905.57zM62.91 26v-7.5h1.98v1.44c.21-.615.975-1.59 2.624-1.59v2.19c-1.74 0-2.594.795-2.594 2.58V26h-2.01zm8.954.15c-2.07 0-3.39-1.74-3.39-3.9s1.32-3.9 3.39-3.9c.87 0 1.8.345 2.34 1.065V18.5h1.965V26h-1.965v-.9c-.525.72-1.47 1.05-2.34 1.05zm.51-1.86c1.035 0 1.785-.84 1.785-2.04 0-1.17-.75-2.04-1.785-2.04-1.08 0-1.86.87-1.86 2.04 0 1.185.78 2.04 1.86 2.04zm7.764 1.725L77.183 18.5h2.01l1.395 3.855c.285.78.525 1.56.555 1.665.015-.105.27-.915.54-1.65l1.395-3.87h1.995l-2.955 7.515h-1.98zm8.376-8.535l1.41-2.355h1.995l-1.755 2.355h-1.65zm1.245 8.67c-2.19 0-4.11-1.425-4.11-3.9 0-2.16 1.68-3.9 3.885-3.9 2.04 0 3.645 1.74 3.645 3.87 0 .36-.045.72-.045.72H87.69c.24 1.035 1.095 1.53 2.085 1.53.72 0 1.47-.21 2.025-.585l.75 1.44a5.053 5.053 0 01-2.79.825zm-2.1-4.545h3.63c-.15-.945-.9-1.575-1.815-1.575-.87 0-1.62.63-1.815 1.575zm9.663 4.545c-1.605 0-2.64-.63-3.06-1.02l.72-1.545c.51.39 1.215.795 2.34.795.465 0 1.23-.18 1.23-.63s-.645-.555-1.29-.735c-1.485-.39-2.7-.885-2.7-2.325 0-1.53 1.5-2.34 2.91-2.34 1.23 0 2.01.3 2.79.75l-.675 1.5c-.735-.36-1.425-.525-2.085-.525-.465 0-.9.21-.9.525 0 .42.63.555 1.32.705 1.275.3 2.67.855 2.67 2.385 0 1.845-1.875 2.46-3.27 2.46zm11.225 0c-2.07 0-3.39-1.74-3.39-3.9s1.35-3.9 3.42-3.9c.87 0 1.725.345 2.265.99v-3.21h2.01V26h-1.905v-.9c-.54.72-1.5 1.05-2.4 1.05zm.51-1.86c1.035 0 1.785-.84 1.785-2.04 0-1.17-.75-2.04-1.785-2.04-1.08 0-1.86.87-1.86 2.04 0 1.185.78 2.04 1.86 2.04zm9.354 1.86c-2.19 0-4.11-1.425-4.11-3.9 0-2.16 1.68-3.9 3.885-3.9 2.04 0 3.645 1.74 3.645 3.87 0 .36-.045.72-.045.72h-5.445c.24 1.035 1.095 1.53 2.085 1.53.72 0 1.47-.21 2.025-.585l.75 1.44a5.053 5.053 0 01-2.79.825zm-2.1-4.545h3.63c-.15-.945-.9-1.575-1.815-1.575-.87 0-1.62.63-1.815 1.575zm8.118 4.545a1.165 1.165 0 01-1.185-1.17c0-.675.525-1.185 1.185-1.185.675 0 1.2.51 1.2 1.185 0 .645-.525 1.17-1.2 1.17zm3.944 0a1.165 1.165 0 01-1.185-1.17c0-.675.525-1.185 1.185-1.185.675 0 1.2.51 1.2 1.185 0 .645-.525 1.17-1.2 1.17zm3.944 0a1.165 1.165 0 01-1.185-1.17c0-.675.525-1.185 1.185-1.185.675 0 1.2.51 1.2 1.185 0 .645-.525 1.17-1.2 1.17z" fill="#fff" fill-opacity=".75"/></svg>