<svg width="97" height="50" viewBox="0 0 97 50" fill="none" xmlns="http://www.w3.org/2000/svg"><path fill-rule="evenodd" clip-rule="evenodd" d="M57.015.428A40.493 40.493 0 0034.801 7.05c-6.576 4.317-11.7 10.452-14.727 17.631A38.648 38.648 0 0017.8 47.378C19.342 55 23.149 62 28.742 67.493c5.592 5.495 12.716 9.236 20.473 10.752a40.645 40.645 0 0023.102-2.236c7.306-2.973 13.55-8.008 17.944-14.469A38.8 38.8 0 0097 39.714c0-10.42-4.213-20.412-11.711-27.78C77.79 4.568 67.619.429 57.015.429z" fill="#495E89" opacity=".54"/><path fill-rule="evenodd" clip-rule="evenodd" d="M91.755 1.156a3.44 3.44 0 00-1.887.562 3.35 3.35 0 00-1.25 1.498 3.283 3.283 0 00-.194 1.928 3.32 3.32 0 00.93 1.709c.476.466 1.081.784 1.74.913a3.452 3.452 0 001.963-.191 3.384 3.384 0 001.523-1.23c.373-.55.572-1.195.571-1.855 0-.884-.358-1.733-.995-2.358a3.427 3.427 0 00-2.4-.976z" fill="#7588AF"/><path fill-rule="evenodd" clip-rule="evenodd" d="M30.058-4c-5.8 0-11.468 1.689-16.29 4.854a28.923 28.923 0 00-10.8 12.928 28.34 28.34 0 00-1.67 16.645 28.655 28.655 0 008.025 14.75 29.484 29.484 0 0015.013 7.884 29.803 29.803 0 0016.94-1.64 29.214 29.214 0 0013.159-10.61 28.45 28.45 0 004.94-16.006c0-7.64-3.089-14.966-8.587-20.368C45.29-.965 37.833-4 30.058-4z" fill="#1A2B4F" opacity=".51"/></svg>