<svg width="320" height="11" viewBox="0 0 320 11" fill="none" xmlns="http://www.w3.org/2000/svg"><path fill="#FF9759" d="M0 0h320v11H0z"/><path d="M19.925 2.722v2.87c0 .154.005.313.014.476.014.159.049.303.105.434.06.13.154.238.28.322.126.08.303.119.532.119.229 0 .404-.04.525-.119a.774.774 0 00.28-.322c.06-.13.096-.275.105-.434.014-.163.021-.322.021-.476v-2.87h1.365v3.059c0 .821-.189 1.421-.567 1.799-.373.378-.95.567-1.729.567-.78 0-1.358-.189-1.736-.567-.378-.378-.567-.978-.567-1.799V2.722h1.372zM26.151 8V2.722h1.372l2.534 3.227V2.722h1.365V8h-1.365l-2.534-3.227V8h-1.372zM38.45 8l.896-5.278h1.358l1.057 2.814 1.05-2.814h1.358L45.065 8H43.7l-.455-3.038L41.999 8h-.546L40.27 4.962 39.815 8H38.45zm12.377-4.116h-1.631v.882h1.54v1.162h-1.54v.91h1.63V8h-3.002V2.722h3.003v1.162zM53.707 8V2.722h1.371l2.534 3.227V2.722h1.365V8h-1.365l-2.534-3.227V8h-1.372zm11.165-3.927a1.62 1.62 0 00-.448-.266 1.15 1.15 0 00-.434-.091.704.704 0 00-.434.126.393.393 0 00-.168.329c0 .093.028.17.084.231.056.06.128.114.217.161.093.042.196.08.308.112.117.033.231.068.343.105.448.15.775.35.98.602.21.247.315.572.315.973 0 .27-.047.516-.14.735-.089.22-.222.408-.399.567a1.79 1.79 0 01-.644.357 2.586 2.586 0 01-.86.133 3.18 3.18 0 01-1.856-.595l.588-1.106c.205.182.408.317.61.406.2.089.398.133.594.133.224 0 .39-.051.497-.154a.465.465 0 00.126-.553.412.412 0 00-.14-.161 1.025 1.025 0 00-.259-.14 7.23 7.23 0 00-.378-.14 9.91 9.91 0 01-.525-.182 1.786 1.786 0 01-.455-.273 1.325 1.325 0 01-.322-.42 1.56 1.56 0 01-.119-.651c0-.261.042-.497.126-.707a1.6 1.6 0 01.364-.546c.159-.154.35-.273.574-.357.229-.084.483-.126.763-.126.261 0 .534.037.82.112.284.07.557.175.818.315l-.546 1.071zm6.292 1.967l-.616-1.757-.616 1.757h1.232zm.364 1.043h-1.96L69.253 8H67.79l2.009-5.278h1.498L73.306 8h-1.463l-.315-.917zm6.865-4.361v3.661c0 .154-.01.296-.028.427-.014.13-.04.243-.077.336a1.58 1.58 0 01-.616.728c-.14.084-.296.15-.469.196a1.81 1.81 0 01-.532.077c-.565 0-1.024-.259-1.379-.777l.896-.917a.737.737 0 00.154.378c.08.093.177.14.294.14.257 0 .385-.203.385-.609v-3.64h1.372zm6.008 1.162H82.77v.882h1.54v1.162h-1.54v.91h1.631V8h-3.003V2.722h3.003v1.162zm8.345 1.477c0 .21.04.404.12.581a1.467 1.467 0 001.364.875c.2 0 .39-.035.567-.105.182-.075.34-.177.476-.308a1.407 1.407 0 00.448-1.043 1.407 1.407 0 00-.448-1.043 1.402 1.402 0 00-.476-.301 1.498 1.498 0 00-1.141 0c-.177.07-.334.17-.469.301-.135.13-.243.285-.322.462-.08.177-.119.371-.119.581zm-1.435 0c0-.392.072-.756.217-1.092.145-.34.345-.637.602-.889s.562-.448.917-.588c.36-.145.754-.217 1.183-.217.425 0 .817.072 1.176.217a2.7 2.7 0 011.533 1.477c.145.336.217.7.217 1.092a2.692 2.692 0 01-.826 1.981c-.257.252-.565.45-.924.595-.36.14-.751.21-1.176.21-.43 0-.824-.07-1.183-.21a2.742 2.742 0 01-1.519-1.477 2.782 2.782 0 01-.217-1.099zm11.626-1.477h-1.652v.882h1.505v1.162h-1.505V8h-1.372V2.722h3.024v1.162zm4.079-1.162V8h-1.372V2.722h1.372zm6.794 1.764c-.317-.387-.709-.581-1.176-.581-.205 0-.397.037-.574.112a1.413 1.413 0 00-.749.763 1.55 1.55 0 00-.105.574c0 .21.035.404.105.581.075.177.175.331.301.462.131.13.282.233.455.308.173.075.359.112.56.112.439 0 .833-.187 1.183-.56v1.624l-.14.049a3.74 3.74 0 01-.588.161 2.785 2.785 0 01-1.589-.147 2.877 2.877 0 01-.882-.581 2.98 2.98 0 01-.609-.889 2.735 2.735 0 01-.231-1.127 2.715 2.715 0 011.722-2.562 2.72 2.72 0 011.057-.21c.21 0 .415.023.616.07.205.042.42.11.644.203v1.638zm4.13-1.764V8h-1.372V2.722h1.372zm5.863 3.318l-.616-1.757-.616 1.757h1.232zm.364 1.043h-1.96l-.315.917h-1.463l2.009-5.278h1.498L125.945 8h-1.463l-.315-.917zm5.64-4.361v4.116h1.645V8h-3.017V2.722h1.372zm9.884 4.116h.315c.238 0 .451-.037.637-.112a1.321 1.321 0 00.763-.77c.07-.182.105-.38.105-.595 0-.21-.035-.406-.105-.588a1.324 1.324 0 00-.301-.469 1.321 1.321 0 00-.469-.308 1.679 1.679 0 00-.63-.112h-.315v2.954zm-1.372-4.116h2.03c.36 0 .696.072 1.008.217.318.145.593.338.826.581.238.238.425.518.56.84.136.317.203.651.203 1.001 0 .345-.067.679-.203 1.001-.13.317-.315.597-.553.84a2.658 2.658 0 01-.826.581 2.385 2.385 0 01-1.015.217h-2.03V2.722zm10.396 1.162h-1.631v.882h1.54v1.162h-1.54v.91h1.631V8h-3.003V2.722h3.003v1.162zM155.625 8l.896-5.278h1.358l1.057 2.814 1.05-2.814h1.358L162.24 8h-1.365l-.455-3.038L159.174 8h-.546l-1.183-3.038L156.99 8h-1.365zm12.378-4.116h-1.631v.882h1.54v1.162h-1.54v.91h1.631V8H165V2.722h3.003v1.162zm4.251 2.954h.315c.238 0 .45-.037.637-.112a1.33 1.33 0 00.763-.77c.07-.182.105-.38.105-.595 0-.21-.035-.406-.105-.588a1.338 1.338 0 00-.77-.777 1.686 1.686 0 00-.63-.112h-.315v2.954zm-1.372-4.116h2.03c.359 0 .695.072 1.008.217.317.145.592.338.826.581.238.238.424.518.56.84a2.565 2.565 0 010 2.002 2.61 2.61 0 01-.553.84 2.682 2.682 0 01-.826.581 2.388 2.388 0 01-1.015.217h-2.03V2.722zm8.765 0V8h-1.372V2.722h1.372zm6.793 1.764c-.317-.387-.709-.581-1.176-.581a1.378 1.378 0 00-1.022.42 1.413 1.413 0 00-.301.455 1.55 1.55 0 00-.105.574c0 .21.035.404.105.581.075.177.175.331.301.462.131.13.283.233.455.308.173.075.36.112.56.112.439 0 .833-.187 1.183-.56v1.624l-.14.049a3.74 3.74 0 01-.588.161 2.785 2.785 0 01-1.589-.147 2.877 2.877 0 01-.882-.581 2.98 2.98 0 01-.609-.889 2.735 2.735 0 01-.231-1.127 2.715 2.715 0 011.722-2.562 2.724 2.724 0 011.673-.14c.206.042.42.11.644.203v1.638zm5.751 1.554l-.616-1.757-.616 1.757h1.232zm.364 1.043h-1.96L190.28 8h-1.463l2.009-5.278h1.498L194.333 8h-1.463l-.315-.917zm5.641-2.002h.259c.27 0 .478-.056.623-.168.144-.112.217-.273.217-.483 0-.21-.073-.371-.217-.483-.145-.112-.353-.168-.623-.168h-.259v1.302zM201.213 8h-1.708l-1.309-2.03V8h-1.372V2.722h2.135c.294 0 .55.044.77.133a1.434 1.434 0 01.861.868c.074.196.112.406.112.63 0 .401-.098.728-.294.98-.192.247-.476.415-.854.504L201.213 8zm5.466-4.116h-1.631v.882h1.54v1.162h-1.54v.91h1.631V8h-3.003V2.722h3.003v1.162z" fill="#101B31"/></svg>