<svg width="300" height="15" viewBox="0 0 300 15" fill="none" xmlns="http://www.w3.org/2000/svg"><path fill="#F3C501" d="M0 0h300v15H0z"/><path d="M32.126 10.62c-1.64 0-2.89-.91-2.89-2.69V4.02h1.9v3.8c0 .78.45 1.08.99 1.08s.99-.3.99-1.08v-3.8h1.9v3.91c0 1.78-1.25 2.69-2.89 2.69zm6.366-.12V4.02h1.65l2.06 2.87c.15.2.29.49.29.49V4.02h1.9v6.48h-1.65l-2.06-2.82c-.15-.2-.29-.49-.29-.49v3.31h-1.9zm14.019 0V4.02h1.62l1.27 1.82c.21.31.55.84.55.84s.34-.53.55-.84l1.27-1.82h1.62v6.48h-1.9V7.22s-.33.53-.51.78l-1.03 1.44L54.91 8c-.18-.25-.5-.76-.5-.76v3.26h-1.9zm10.378 0V4.02h5.15v1.61h-3.25v.79h3.12v1.59h-3.12v.88h3.37v1.61h-5.27zm8.425 0V4.02h1.65l2.06 2.87c.15.2.29.49.29.49V4.02h1.9v6.48h-1.65l-2.06-2.82c-.15-.2-.29-.49-.29-.49v3.31h-1.9zm11.892.12c-1.82 0-2.53-.7-2.73-.78l.62-1.48c.5.28 1.07.59 2.11.59.2 0 .78-.06.78-.4 0-.31-.41-.36-.78-.45-1.25-.28-2.56-.76-2.56-2.22 0-1.35 1.23-1.96 2.56-1.96 1.07 0 1.85.27 2.51.66l-.64 1.47c-.38-.26-1.24-.47-1.87-.47-.16 0-.58.04-.58.3 0 .23.24.33.58.41.97.21 2.76.6 2.76 2.26 0 1.48-1.42 2.07-2.76 2.07zm5.632-.12l2.62-6.48h1.96l2.62 6.48h-1.94l-.3-.84h-2.72l-.3.84h-1.94zm2.75-2.3h1.7l-.77-2.19c-.06-.16-.07-.22-.08-.26 0 0-.02.09-.08.26l-.77 2.19zm9.693 2.42c-.99 0-2.01-.38-2.54-1.47l1.26-1.05c.31.64.72.8 1.29.8.67 0 1.04-.4 1.04-1.11V4.02h1.9v3.71c0 1.87-1.05 2.89-2.95 2.89zm6.43-.12V4.02h5.15v1.61h-3.25v.79h3.12v1.59h-3.12v.88h3.37v1.61h-5.27zm16.313.12c-2.08 0-3.47-1.49-3.47-3.36 0-1.85 1.39-3.34 3.47-3.34s3.48 1.49 3.48 3.34c0 1.87-1.4 3.36-3.48 3.36zm0-1.72c.88 0 1.5-.68 1.5-1.64 0-.94-.62-1.62-1.5-1.62-.82 0-1.49.68-1.49 1.62 0 .96.62 1.64 1.49 1.64zm6.776 1.6V4.02h5v1.61h-3.1v.79h2.71v1.59h-2.71v2.49h-1.9zm7.996 0V4.02h1.9v6.48h-1.9zm8.628.12c-2.06 0-3.43-1.49-3.43-3.36 0-1.85 1.37-3.34 3.43-3.34.99 0 1.88.35 2.47.94l-1.25 1.29c-.46-.47-.83-.51-1.14-.51-.84 0-1.53.68-1.53 1.62 0 .96.64 1.64 1.53 1.64.53 0 1.02-.24 1.38-.72l1.21 1.33c-.65.72-1.56 1.11-2.67 1.11zm5.752-.12V4.02h1.9v6.48h-1.9zm4.928 0l2.62-6.48h1.96l2.62 6.48h-1.94l-.3-.84h-2.72l-.3.84h-1.94zm2.75-2.3h1.7l-.77-2.19c-.06-.16-.07-.22-.08-.26 0 0-.02.09-.08.26l-.77 2.19zm7.483 2.3V4.02h1.9v4.87h3.45v1.61h-5.35zm13.169 0V4.02h2.7c2.17 0 3.53 1.47 3.53 3.24 0 1.77-1.36 3.24-3.53 3.24h-2.7zm1.9-1.61h.73c.97 0 1.59-.69 1.59-1.63 0-.93-.62-1.63-1.59-1.63h-.73v3.26zm7.629 1.61V4.02h5.15v1.61h-3.25v.79h3.12v1.59h-3.12v.88h3.37v1.61h-5.27zm13.042 0V4.02h1.62l1.27 1.82c.21.31.55.84.55.84s.34-.53.55-.84l1.27-1.82h1.62v6.48h-1.9V7.22s-.33.53-.51.78l-1.03 1.44-1.04-1.44c-.18-.25-.5-.76-.5-.76v3.26h-1.9zm10.379 0V4.02h5.15v1.61h-3.25v.79h3.12v1.59h-3.12v.88h3.37v1.61h-5.27zm8.425 0V4.02h2.7c2.17 0 3.53 1.47 3.53 3.24 0 1.77-1.36 3.24-3.53 3.24h-2.7zm1.9-1.61h.73c.97 0 1.59-.69 1.59-1.63 0-.93-.62-1.63-1.59-1.63h-.73v3.26zm7.629 1.61V4.02h1.9v6.48h-1.9zm8.628.12c-2.06 0-3.43-1.49-3.43-3.36 0-1.85 1.37-3.34 3.43-3.34.99 0 1.88.35 2.47.94l-1.25 1.29c-.46-.47-.83-.51-1.14-.51-.84 0-1.53.68-1.53 1.62 0 .96.64 1.64 1.53 1.64.53 0 1.02-.24 1.38-.72l1.21 1.33c-.65.72-1.56 1.11-2.67 1.11zm5.38-.12l2.62-6.48h1.96l2.62 6.48h-1.94l-.3-.84h-2.72l-.3.84h-1.94zm2.75-2.3h1.7l-.77-2.19c-.06-.16-.07-.22-.08-.26 0 0-.02.09-.08.26l-.77 2.19zm7.483 2.3V4.02h2.86c1.99 0 3.01 1.15 3.01 2.56 0 .75-.34 1.52-1.02 1.99l1.21 1.93h-2.17l-.74-1.39c-.2.02-.31.03-.47.03h-.78v1.36h-1.9zm1.9-2.97h.98c.59 0 .98-.43.98-.95 0-.53-.4-.95-.97-.95h-.99v1.9zm7.268 2.97V4.02h5.15v1.61h-3.25v.79h3.12v1.59h-3.12v.88h3.37v1.61h-5.27z" fill="#2B3D51"/></svg>