<svg width="232" height="49" viewBox="0 0 232 49" fill="none" xmlns="http://www.w3.org/2000/svg"><rect width="232" height="49" rx="2" fill="#F3C501"/><path d="M20.999 31.143v-12.07h5.542c.59 0 1.133.12 1.632.357.499.238.93.561 1.292.97.363.396.64.844.833 1.342.204.5.306 1.003.306 1.513 0 .465-.068.913-.204 1.343-.136.431-.334.828-.595 1.19-.26.352-.572.658-.935.918l2.55 4.437h-3.638l-2.125-3.706h-1.343v3.706h-3.315zm3.315-6.596h2.09a.61.61 0 00.392-.153c.125-.102.227-.249.306-.442.09-.192.136-.425.136-.697 0-.283-.051-.515-.153-.697-.09-.192-.21-.34-.357-.442a.678.678 0 00-.408-.153h-2.006v2.584zm18.119 3.706v2.89H33.83v-12.07h8.449v2.89h-5.134v1.7h4.386v2.686h-4.386v1.904h5.287zm2.901 2.89v-12.07h5.202c.59 0 1.133.12 1.632.357.499.238.93.561 1.292.97.363.396.64.844.833 1.342.204.5.306 1.003.306 1.513 0 .714-.17 1.389-.51 2.023a4.201 4.201 0 01-1.394 1.564c-.59.397-1.28.595-2.074.595H48.65v3.706h-3.315zm3.315-6.596H50.4c.136 0 .267-.04.391-.119.125-.079.227-.215.306-.408.09-.192.136-.447.136-.765 0-.34-.05-.6-.153-.782-.09-.192-.21-.323-.357-.39a.804.804 0 00-.408-.12H48.65v2.584zm14.077 6.698c-.918 0-1.751-.17-2.499-.51a6.323 6.323 0 01-1.938-1.394 6.656 6.656 0 01-1.241-1.972 6.292 6.292 0 01-.425-2.278c0-.804.153-1.57.459-2.295a6.326 6.326 0 011.275-1.938 6.066 6.066 0 011.955-1.36 6.182 6.182 0 012.482-.493c.918 0 1.751.176 2.499.527.748.34 1.388.805 1.921 1.394.533.59.94 1.253 1.224 1.99a5.911 5.911 0 01-.017 4.521 6.133 6.133 0 01-1.275 1.955 6.228 6.228 0 01-1.938 1.36c-.748.33-1.575.493-2.482.493zm-2.737-6.12c0 .408.057.805.17 1.19.113.374.283.714.51 1.02a2.6 2.6 0 00.85.714c.351.17.765.255 1.241.255.476 0 .89-.09 1.241-.272.351-.18.635-.425.85-.73.227-.318.391-.664.493-1.038a4.138 4.138 0 000-2.346 3.11 3.11 0 00-.51-1.003 2.317 2.317 0 00-.867-.714c-.351-.17-.76-.255-1.224-.255-.476 0-.89.091-1.241.272a2.52 2.52 0 00-.85.731 3.08 3.08 0 00-.51 1.02c-.102.374-.153.76-.153 1.156zm11.656 6.018v-12.07h5.542c.59 0 1.133.12 1.632.357.499.238.93.561 1.292.97.363.396.64.844.833 1.342.204.5.306 1.003.306 1.513 0 .465-.068.913-.204 1.343-.136.431-.334.828-.595 1.19-.26.352-.572.658-.935.918l2.55 4.437h-3.638l-2.125-3.706H74.96v3.706h-3.315zm3.315-6.596h2.091a.61.61 0 00.391-.153c.125-.102.227-.249.306-.442.09-.192.136-.425.136-.697 0-.283-.051-.515-.153-.697-.09-.192-.21-.34-.357-.442a.678.678 0 00-.408-.153H74.96v2.584zm18.752-2.584h-3.468v9.18h-3.315v-9.18h-3.485v-2.89h10.268v2.89zm4.243-2.89h3.706l3.842 12.07h-3.366l-.731-2.363h-3.213l-.714 2.363h-3.383l3.859-12.07zm2.924 7.497l-1.071-4.25-1.122 4.25h2.193zm20.252 1.683v2.89h-8.602v-12.07h8.449v2.89h-5.134v1.7h4.386v2.686h-4.386v1.904h5.287zm2.902 2.89v-12.07h3.315v9.18h5.474v2.89h-8.789zm15.985 0v-12.07h8.279v2.89h-4.964v2.006h4.046v2.686h-4.046v4.488h-3.315zm10.939 0v-12.07h5.542c.589 0 1.133.12 1.632.357.498.238.929.561 1.292.97.362.396.64.844.833 1.342.204.5.306 1.003.306 1.513 0 .465-.068.913-.204 1.343a4.2 4.2 0 01-.595 1.19 4.247 4.247 0 01-.935.918l2.55 4.437h-3.638l-2.125-3.706h-1.343v3.706h-3.315zm3.315-6.596h2.091a.61.61 0 00.391-.153c.124-.102.226-.249.306-.442.09-.192.136-.425.136-.697 0-.283-.051-.515-.153-.697a1.087 1.087 0 00-.357-.442.678.678 0 00-.408-.153h-2.006v2.584zm12.304-5.474h3.706l3.842 12.07h-3.366l-.731-2.363h-3.213l-.714 2.363h-3.383l3.859-12.07zm2.924 7.497l-1.071-4.25-1.122 4.25h2.193zm11.792 4.675c-.963 0-1.79-.158-2.482-.476a4.568 4.568 0 01-1.7-1.309 5.58 5.58 0 01-.952-1.904 8.374 8.374 0 01-.306-2.278v-6.205h3.315v6.205c0 .397.04.777.119 1.14.08.362.204.685.374.968.17.284.386.51.646.68.272.16.601.238.986.238.397 0 .731-.079 1.003-.238.272-.17.488-.396.646-.68.17-.294.295-.623.374-.986.08-.362.119-.736.119-1.122v-6.205h3.315v6.205c0 .84-.113 1.621-.34 2.346a5.429 5.429 0 01-.986 1.904 4.484 4.484 0 01-1.7 1.275c-.68.295-1.49.442-2.431.442zm8.724-.102v-12.07h4.641c1.337 0 2.454.272 3.349.816a5.098 5.098 0 012.04 2.176c.465.907.697 1.916.697 3.026 0 1.224-.255 2.29-.765 3.196a5.216 5.216 0 01-2.125 2.108c-.907.5-1.972.748-3.196.748h-4.641zm7.361-6.052c0-.623-.108-1.167-.323-1.632a2.491 2.491 0 00-.935-1.105c-.408-.26-.895-.39-1.462-.39h-1.326v6.29h1.326c.578 0 1.065-.137 1.462-.409.408-.272.72-.646.935-1.122a4 4 0 00.323-1.632zm14.77 3.162v2.89h-8.602v-12.07h8.449v2.89h-5.134v1.7h4.386v2.686h-4.386v1.904h5.287z" fill="#2B3D51"/></svg>