<svg width="644" height="35" viewBox="0 0 644 35" fill="none" xmlns="http://www.w3.org/2000/svg"><path d="M2.939 29.39c-1.17 0-2.028-.936-2.028-2.067 0-1.131.897-2.067 2.028-2.067a2.08 2.08 0 012.067 2.067 2.08 2.08 0 01-2.067 2.067zm8.312 0c-1.17 0-2.028-.936-2.028-2.067 0-1.131.897-2.067 2.028-2.067a2.08 2.08 0 012.067 2.067 2.08 2.08 0 01-2.067 2.067zm8.312 0c-1.17 0-2.028-.936-2.028-2.067 0-1.131.897-2.067 2.028-2.067a2.08 2.08 0 012.067 2.067 2.08 2.08 0 01-2.067 2.067zm15.059 0c-5.265 0-8.97-4.368-8.97-9.867 0-5.577 3.705-9.906 8.97-9.906 3.042 0 5.733 1.248 7.137 3.705v-3.315h2.964V29h-2.964v-3.315c-1.404 2.496-4.095 3.705-7.137 3.705zm.663-2.886c3.627 0 6.474-3.003 6.474-6.981 0-3.978-2.847-7.02-6.474-7.02-3.783 0-6.591 2.964-6.591 7.02 0 4.017 2.808 6.981 6.59 6.981zM58.975 29V10.007h2.964v3.276c1.053-2.067 3.432-3.666 6.084-3.666 3.042 0 5.187 1.326 6.084 4.017 1.365-2.769 4.33-4.017 6.552-4.017 4.563 0 6.981 2.652 6.981 7.878V29h-3.003V17.885c0-3.237-1.13-5.382-4.602-5.382-3.198 0-5.226 2.574-5.226 5.421V29h-3.003V17.885c0-3.237-1.13-5.382-4.563-5.382-3.315 0-5.304 2.808-5.304 5.577V29h-2.964zm42.842.39c-5.382 0-9.945-3.861-9.945-9.867 0-5.499 4.134-9.906 9.555-9.906 5.07 0 9.087 4.368 9.087 9.789 0 .546-.078 1.131-.078 1.17H94.953c.468 3.783 3.393 6.162 6.903 6.162 2.145 0 4.29-.741 5.85-2.028l1.287 2.184a11.622 11.622 0 01-7.176 2.496zm-6.864-11.076h12.636c-.312-3.51-3.003-6.045-6.318-6.045-3.237 0-5.889 2.496-6.318 6.045zM115.132 29V10.007h2.964v3.237c1.326-2.301 3.783-3.627 6.591-3.627 4.758 0 6.864 2.886 6.864 7.878V29h-2.964V17.885c0-3.51-1.287-5.382-4.719-5.382-3.393 0-5.772 2.652-5.772 5.811V29h-2.964zm30.694.39c-5.577 0-9.984-4.368-9.984-9.867 0-5.538 4.407-9.906 9.984-9.906s9.984 4.368 9.984 9.906c0 5.499-4.407 9.867-9.984 9.867zm0-2.886c3.939 0 6.942-3.003 6.942-6.981 0-4.017-3.003-7.02-6.942-7.02s-6.942 3.003-6.942 7.02c0 3.978 3.003 6.981 6.942 6.981zm20.967 2.886c-3.861 0-6.318-1.755-7.41-2.886l1.209-2.418c1.404 1.365 3.432 2.496 6.201 2.496 2.613 0 4.758-1.209 4.758-2.925 0-1.989-2.301-2.535-4.602-3.12-3.51-.897-6.708-1.872-6.708-5.499 0-3.432 3.588-5.421 6.786-5.421 2.613 0 4.524.702 6.474 2.028l-1.17 2.418c-1.599-1.092-3.276-1.638-5.265-1.638-1.95 0-3.783 1.092-3.783 2.574 0 1.872 2.106 2.301 4.329 2.769 3.432.78 6.981 2.067 6.981 5.811 0 4.017-4.095 5.811-7.8 5.811zm36.485 5.109v-8.814c-1.404 2.457-4.095 3.705-7.137 3.705-5.265 0-8.97-4.368-8.97-9.906s3.705-9.867 8.97-9.867c3.081 0 5.85 1.209 7.254 3.666v-3.276h2.847v24.492h-2.964zm-6.474-7.995c3.627 0 6.474-3.042 6.474-7.02 0-3.978-2.847-6.981-6.474-6.981-3.783 0-6.591 2.964-6.591 6.981 0 4.056 2.808 7.02 6.591 7.02zm21.399 2.886c-4.68 0-6.903-2.457-6.903-7.527V10.007h2.964v11.466c0 3.549 1.716 5.031 4.797 5.031 3.432 0 5.421-2.808 5.421-5.733V10.007h2.964V29h-2.847v-3.354c-1.17 2.457-3.9 3.744-6.396 3.744zm23.797 0c-5.382 0-9.945-3.861-9.945-9.867 0-5.499 4.134-9.906 9.555-9.906 5.07 0 9.087 4.368 9.087 9.789 0 .546-.078 1.131-.078 1.17h-15.483c.468 3.783 3.393 6.162 6.903 6.162 2.145 0 4.29-.741 5.85-2.028l1.287 2.184A11.622 11.622 0 01242 29.39zm-6.864-11.076h12.636c-.312-3.51-3.003-6.045-6.318-6.045-3.237 0-5.889 2.496-6.318 6.045zm265.17 16.185V10.007h2.847v3.276c1.404-2.457 4.173-3.666 7.254-3.666 5.265 0 8.97 4.329 8.97 9.867 0 5.538-3.705 9.906-8.97 9.906-3.003 0-5.733-1.248-7.137-3.705v8.814h-2.964zm9.438-7.995c3.783 0 6.591-2.964 6.591-7.02 0-4.017-2.808-6.981-6.591-6.981-3.627 0-6.474 3.003-6.474 6.981 0 3.978 2.847 7.02 6.474 7.02zM523.967 29V10.007h2.964v4.017c1.092-2.496 3.549-4.407 7.332-4.407v3.237c-4.446 0-7.332 2.496-7.332 7.137V29h-2.964zm14.1 0V10.007h2.964V29h-2.964zm1.482-22.386a1.931 1.931 0 01-1.95-1.95c0-1.092.858-1.989 1.95-1.989s1.989.897 1.989 1.989-.897 1.95-1.989 1.95zM546.417 29V10.007h2.964v3.276c1.053-2.067 3.432-3.666 6.084-3.666 3.042 0 5.187 1.326 6.084 4.017 1.365-2.769 4.329-4.017 6.552-4.017 4.563 0 6.981 2.652 6.981 7.878V29h-3.003V17.885c0-3.237-1.131-5.382-4.602-5.382-3.198 0-5.226 2.574-5.226 5.421V29h-3.003V17.885c0-3.237-1.131-5.382-4.563-5.382-3.315 0-5.304 2.808-5.304 5.577V29h-2.964zm42.843.39c-5.382 0-9.945-3.861-9.945-9.867 0-5.499 4.134-9.906 9.555-9.906 5.07 0 9.087 4.368 9.087 9.789 0 .546-.078 1.131-.078 1.17h-15.483c.468 3.783 3.393 6.162 6.903 6.162 2.145 0 4.29-.741 5.85-2.028l1.287 2.184a11.622 11.622 0 01-7.176 2.496zm-6.864-11.076h12.636c-.312-3.51-3.003-6.045-6.318-6.045-3.237 0-5.889 2.496-6.318 6.045zM602.574 29V10.007h2.964v4.017c1.092-2.496 3.549-4.407 7.332-4.407v3.237c-4.446 0-7.332 2.496-7.332 7.137V29h-2.964zm22.924.39c-5.577 0-9.984-4.368-9.984-9.867 0-5.538 4.407-9.906 9.984-9.906s9.984 4.368 9.984 9.906c0 5.499-4.407 9.867-9.984 9.867zm0-2.886c3.939 0 6.942-3.003 6.942-6.981 0-4.017-3.003-7.02-6.942-7.02s-6.942 3.003-6.942 7.02c0 3.978 3.003 6.981 6.942 6.981zm16.014 2.886c-1.17 0-2.028-.936-2.028-2.067 0-1.131.897-2.067 2.028-2.067a2.08 2.08 0 012.067 2.067 2.08 2.08 0 01-2.067 2.067z" fill="#275D80"/><path d="M271.061 29.39c-3.9 0-6.006-2.262-6.006-6.669v-9.009h-2.847V9.5h2.847V5.756l5.226-1.17V9.5h5.382v4.212h-5.382v8.931c0 1.677.819 2.223 1.755 2.223 1.248 0 2.34-.702 2.496-.819l1.482 3.861a8.987 8.987 0 01-4.953 1.482zm13.293-22.542L288.02.725h5.187l-4.563 6.123h-4.29zm1.443 22.542c-5.382 0-7.098-3.159-7.098-8.229V9.5h5.226v10.959c0 2.73 1.17 3.978 3.588 3.978 2.73 0 4.056-2.301 4.056-4.953V9.5h5.226V29h-4.914v-2.73c-1.17 1.911-3.822 3.12-6.084 3.12zm24.31-.39V3.338h5.226V29h-5.226zm19.434.39c-5.811 0-10.413-4.485-10.413-10.14s4.602-10.14 10.413-10.14c5.85 0 10.452 4.485 10.452 10.14s-4.602 10.14-10.452 10.14zm0-4.836c2.925 0 5.109-2.223 5.109-5.304 0-3.042-2.184-5.304-5.109-5.304s-5.109 2.262-5.109 5.304c0 3.081 2.184 5.304 5.109 5.304zm21.08 4.836c-4.173 0-6.864-1.638-7.956-2.652l1.872-4.017c1.326 1.014 3.159 2.067 6.084 2.067 1.209 0 3.198-.468 3.198-1.638s-1.677-1.443-3.354-1.911c-3.861-1.014-7.02-2.301-7.02-6.045 0-3.978 3.9-6.084 7.566-6.084 3.198 0 5.226.78 7.254 1.95l-1.755 3.9c-1.911-.936-3.705-1.365-5.421-1.365-1.209 0-2.34.546-2.34 1.365 0 1.092 1.638 1.443 3.432 1.833 3.315.78 6.942 2.223 6.942 6.201 0 4.797-4.875 6.396-8.502 6.396zm20.955-.39V3.338h5.226V29h-5.226zm9.607 0V3.338h5.226V29h-5.226zm17.835.39c-5.382 0-8.814-4.524-8.814-10.14 0-5.616 3.432-10.14 8.814-10.14 2.262 0 4.68.897 6.084 2.769V9.5h5.109V29h-5.109v-2.34c-1.365 1.872-3.822 2.73-6.084 2.73zm1.326-4.836c2.691 0 4.641-2.184 4.641-5.304 0-3.042-1.95-5.304-4.641-5.304-2.808 0-4.836 2.262-4.836 5.304 0 3.081 2.028 5.304 4.836 5.304zM414.564 29V9.5h5.109v2.613c1.131-1.755 3.432-3.003 5.772-3.003 3.081 0 4.992 1.287 6.006 3.471 1.404-2.34 4.095-3.471 6.318-3.471 5.499 0 7.215 3.783 7.215 8.775V29h-5.226V18.548c0-2.574-.624-4.485-3.393-4.485-2.574 0-3.978 2.067-3.978 4.641V29h-5.226V18.548c0-2.574-.585-4.485-3.393-4.485-2.652 0-3.978 2.262-3.978 4.836V29h-5.226zm44.616.39c-5.694 0-10.686-3.705-10.686-10.14 0-5.616 4.368-10.14 10.101-10.14 5.304 0 9.477 4.524 9.477 10.062 0 .936-.117 1.872-.117 1.872h-14.157c.624 2.691 2.847 3.978 5.421 3.978 1.872 0 3.822-.546 5.265-1.521l1.95 3.744c-2.184 1.443-4.719 2.145-7.254 2.145zm-5.46-11.817h9.438c-.39-2.457-2.34-4.095-4.719-4.095-2.262 0-4.212 1.638-4.719 4.095zm25.124 11.817c-4.173 0-6.864-1.638-7.956-2.652l1.872-4.017c1.326 1.014 3.159 2.067 6.084 2.067 1.209 0 3.198-.468 3.198-1.638s-1.677-1.443-3.354-1.911c-3.861-1.014-7.02-2.301-7.02-6.045 0-3.978 3.9-6.084 7.566-6.084 3.198 0 5.226.78 7.254 1.95l-1.755 3.9c-1.911-.936-3.705-1.365-5.421-1.365-1.209 0-2.34.546-2.34 1.365 0 1.092 1.638 1.443 3.432 1.833 3.315.78 6.942 2.223 6.942 6.201 0 4.797-4.875 6.396-8.502 6.396z" fill="#091C29"/></svg>