<svg width="283" height="52" viewBox="0 0 283 52" fill="none" xmlns="http://www.w3.org/2000/svg"><rect x="1" y="1" width="281" height="50" rx="7" fill="#51B9FA" stroke="#99CAE9" stroke-width="2"/><path d="M31.365 34.663V19.11h6.48c5.208 0 8.472 3.528 8.472 7.776 0 4.248-3.264 7.776-8.472 7.776h-6.48zm4.56-3.864h1.752c2.328 0 3.816-1.656 3.816-3.912 0-2.232-1.488-3.912-3.816-3.912h-1.752v7.824zm13.27 3.864V19.11h12.36v3.864h-7.8v1.896h7.488v3.816h-7.488v2.112h8.088v3.864H49.195zm19.213 0V22.975h-4.872V19.11H77.84v3.864h-4.872v11.688h-4.56zm11.945 0V19.11h12.36v3.864h-7.8v1.896h7.488v3.816h-7.488v2.112h8.088v3.864H80.353zm3.984-16.32l2.52-4.296h4.2l-3.48 4.296h-3.24zm11.197 16.32V19.11h3.96l4.944 6.888c.36.48.696 1.176.696 1.176V19.11h4.56v15.552h-3.96l-4.944-6.768c-.36-.48-.696-1.176-.696-1.176v7.944h-4.56zm23.565 0V19.11h12.36v3.864h-7.8v1.896h7.488v3.816h-7.488v2.112h8.088v3.864h-12.648zm15.181 0V19.11h4.56v11.688h8.28v3.864h-12.84zm21.526 0V19.11h12v3.864h-7.44v1.896h6.504v3.816h-6.504v5.976h-4.56zm14.15 0V19.11h6.864c4.776 0 7.224 2.76 7.224 6.144 0 1.8-.816 3.648-2.448 4.776l2.904 4.632h-5.208l-1.776-3.336c-.48.048-.744.072-1.128.072h-1.872v3.264h-4.56zm4.56-7.128h2.352c1.416 0 2.352-1.032 2.352-2.28 0-1.272-.96-2.28-2.328-2.28h-2.376v4.56zm11.274 7.128l6.288-15.552h4.704l6.288 15.552h-4.656l-.72-2.016h-6.528l-.72 2.016h-4.656zm6.6-5.52h4.08l-1.848-5.256c-.144-.384-.168-.528-.192-.624 0 0-.048.216-.192.624l-1.848 5.256zm19.081 5.808c-3.936 0-6.936-2.184-6.936-6.456V19.11h4.56v9.12c0 1.872 1.08 2.592 2.376 2.592 1.296 0 2.376-.72 2.376-2.592v-9.12h4.56v9.384c0 4.272-3 6.456-6.936 6.456zm10.239-.288V19.11h6.48c5.208 0 8.472 3.528 8.472 7.776 0 4.248-3.264 7.776-8.472 7.776h-6.48zm4.56-3.864h1.752c2.328 0 3.816-1.656 3.816-3.912 0-2.232-1.488-3.912-3.816-3.912h-1.752v7.824zm13.269 3.864V19.11h12.36v3.864h-7.8v1.896h7.488v3.816h-7.488v2.112h8.088v3.864h-12.648z" fill="#091C29"/></svg>