<svg width="239" height="21" viewBox="0 0 239 21" fill="none" xmlns="http://www.w3.org/2000/svg"><path d="M12.027 11.464H2.782c.134.828.49 1.487 1.07 1.974.578.49 1.319.733 2.219.733 1.075 0 2-.382 2.773-1.144l2.424 1.155c-.604.871-1.328 1.514-2.171 1.932-.844.418-1.845.625-3.004.625-1.8 0-3.264-.575-4.395-1.728C.567 13.858 0 12.416 0 10.681c0-1.735.565-3.253 1.692-4.427 1.127-1.174 2.542-1.76 4.244-1.76 1.806 0 3.274.588 4.406 1.76 1.131 1.174 1.698 2.724 1.698 4.652l-.01.556-.003.002zM9.15 9.163a2.923 2.923 0 0 0-1.125-1.584c-.56-.407-1.208-.61-1.948-.61-.803 0-1.506.228-2.112.684-.38.285-.732.787-1.057 1.51H9.15zM21 6.422 19.22 8.23c-.725-.728-1.382-1.092-1.972-1.092-.323 0-.577.07-.759.208a.626.626 0 0 0-.1.952c.117.132.402.312.86.54l1.054.535c1.11.556 1.874 1.123 2.288 1.7.413.578.622 1.257.622 2.034 0 1.035-.374 1.898-1.123 2.589-.749.693-1.752 1.037-3.01 1.037-1.673 0-3.007-.663-4.006-1.99l1.77-1.96a4.1 4.1 0 0 0 1.186.968c.453.246.856.37 1.208.37.38 0 .684-.093.916-.277.232-.185.348-.4.348-.643 0-.45-.418-.888-1.254-1.317l-.97-.491c-1.855-.95-2.782-2.138-2.782-3.564 0-.92.35-1.707 1.049-2.36.699-.653 1.595-.979 2.682-.979.745 0 1.446.166 2.104.498a4.68 4.68 0 0 1 1.671 1.428L21 6.422zm3.012 6.968c.457 0 .848.161 1.17.487.323.325.485.718.485 1.182 0 .464-.162.861-.484 1.189a1.584 1.584 0 0 1-1.171.491c-.457 0-.846-.164-1.17-.491a1.633 1.633 0 0 1-.485-1.189c0-.464.162-.859.484-1.182a1.588 1.588 0 0 1 1.171-.488zM30.302.697h2.874l3.597 10.983L40.401.697h2.875l2.604 15.746h-2.852l-1.663-9.944-3.297 9.944h-2.604L32.2 6.499l-1.702 9.944h-2.881L30.3.697zm28.993 10.769H50.05c.132.83.49 1.487 1.07 1.977.578.487 1.319.732 2.22.732 1.076 0 2-.382 2.774-1.146l2.426 1.157c-.604.87-1.328 1.516-2.173 1.934-.844.418-1.845.626-3.006.626-1.8 0-3.264-.575-4.397-1.728-1.131-1.153-1.698-2.596-1.698-4.329 0-1.732.562-3.252 1.692-4.424 1.129-1.172 2.544-1.76 4.244-1.76 1.806 0 3.274.588 4.406 1.76 1.13 1.176 1.698 2.724 1.698 4.65l-.01.556h-.005l.004-.005zm-2.879-2.301a2.933 2.933 0 0 0-1.125-1.583c-.56-.408-1.208-.612-1.948-.612-.803 0-1.506.23-2.114.685-.38.286-.734.79-1.057 1.51h6.244zM69.834.299h2.879v16.14h-2.88v-1.23c-.562.542-1.125.934-1.69 1.172a4.69 4.69 0 0 1-1.838.359c-1.48 0-2.761-.584-3.843-1.75-1.082-1.165-1.624-2.616-1.624-4.35 0-1.735.522-3.273 1.57-4.423 1.047-1.15 2.315-1.725 3.812-1.725.689 0 1.334.133 1.938.395.604.263 1.16.662 1.674 1.189V.299h.002zm-3.028 6.894c-.89 0-1.63.317-2.218.958-.587.638-.883 1.457-.883 2.457 0 1 .3 1.833.898 2.482.598.649 1.334.972 2.21.972.878 0 1.656-.317 2.25-.957.595-.639.89-1.475.89-2.512s-.297-1.833-.89-2.463c-.597-.626-1.347-.941-2.26-.941v.004h.003zM76.783 0c.503 0 .937.187 1.297.557.36.371.542.82.542 1.348 0 .527-.18.966-.538 1.333-.358.366-.784.553-1.28.553a1.77 1.77 0 0 1-1.31-.563 1.901 1.901 0 0 1-.541-1.365c0-.536.178-.954.533-1.317A1.749 1.749 0 0 1 76.78 0h.004zm-1.44 4.794h2.88V16.44h-2.88V4.794zM91.98 7.152l-2.395 1.34c-.45-.479-.896-.808-1.334-.995-.441-.187-.956-.28-1.548-.28-1.075 0-1.948.324-2.612.977-.664.651-.997 1.487-.997 2.505 0 1.019.319 1.798.962 2.428.639.626 1.48.94 2.523.94 1.287 0 2.29-.447 3.008-1.339l2.267 1.577c-1.231 1.626-2.966 2.438-5.21 2.438-2.02 0-3.597-.607-4.74-1.82-1.14-1.214-1.714-2.634-1.714-4.261 0-1.128.28-2.166.832-3.115a5.964 5.964 0 0 1 2.325-2.238c.992-.542 2.107-.813 3.336-.813 1.14 0 2.161.231 3.067.69a5.817 5.817 0 0 1 2.224 1.966v.005l.006-.005zm10.002-2.358h2.879v11.644h-2.879v-1.23c-.563.542-1.125.934-1.69 1.172a4.688 4.688 0 0 1-1.839.359c-1.48 0-2.76-.584-3.843-1.75-1.081-1.165-1.623-2.616-1.623-4.35 0-1.735.521-3.273 1.57-4.423 1.046-1.15 2.314-1.725 3.812-1.725a4.81 4.81 0 0 1 1.938.395c.604.263 1.16.662 1.673 1.189V4.79v.004h.002zm-3.028 2.398c-.89 0-1.63.317-2.217.958-.588.638-.883 1.457-.883 2.457 0 1 .3 1.833.897 2.482.598.649 1.334.972 2.211.972.877 0 1.655-.317 2.249-.957.595-.639.891-1.475.891-2.512s-.298-1.833-.891-2.463c-.596-.626-1.347-.941-2.26-.941v.004h.003zm8.349-2.398h2.468v1.468c.265-.577.622-1.018 1.065-1.317a2.55 2.55 0 0 1 1.454-.449c.372 0 .763.099 1.171.298l-.896 2.514c-.339-.17-.614-.256-.831-.256-.443 0-.817.279-1.123.835-.306.557-.46 1.649-.46 3.277l.011.569v4.71h-2.857V4.794h-.004.002zm18.477 6.672h-9.245c.132.83.49 1.487 1.069 1.977.579.487 1.32.732 2.221.732 1.076 0 2-.382 2.774-1.146l2.426 1.157c-.604.87-1.328 1.516-2.174 1.934-.843.418-1.845.626-3.005.626-1.799 0-3.264-.575-4.397-1.728-1.132-1.153-1.698-2.596-1.698-4.329 0-1.732.562-3.252 1.692-4.424 1.129-1.172 2.544-1.76 4.244-1.76 1.805 0 3.274.588 4.405 1.76 1.132 1.176 1.698 2.724 1.698 4.65l-.01.556h-.004l.004-.005zm-2.879-2.301a2.934 2.934 0 0 0-1.125-1.583c-.559-.406-1.208-.612-1.949-.612-.802 0-1.505.23-2.113.685-.381.286-.735.79-1.057 1.51h6.244zm5.845 4.227a1.6 1.6 0 0 1 1.171.487c.323.323.484.72.484 1.182 0 .462-.161.861-.484 1.189a1.588 1.588 0 0 1-1.171.491c-.455 0-.848-.164-1.17-.491a1.628 1.628 0 0 1-.484-1.189c0-.466.161-.857.484-1.182a1.597 1.597 0 0 1 1.17-.487zm12.21-8.598h2.869v9.975c0 1.968-.389 3.417-1.171 4.345C141.608 20.37 140.029 21 137.92 21c-1.126 0-2.069-.14-2.838-.426-.765-.286-1.415-.704-1.938-1.258-.528-.552-.916-1.227-1.171-2.016h3.173c.281.327.641.575 1.086.745.443.168.968.25 1.572.25.771 0 1.394-.122 1.865-.363.472-.244.803-.557.997-.94.193-.387.292-1.05.292-1.992-.507.515-1.038.884-1.591 1.11-.556.224-1.183.337-1.888.337-1.541 0-2.84-.563-3.901-1.692-1.059-1.128-1.59-2.554-1.59-4.282 0-1.846.562-3.333 1.685-4.454 1.018-1.013 2.236-1.519 3.647-1.519.662 0 1.284.122 1.872.37.587.248 1.177.65 1.764 1.214v-1.29zm-2.983 2.432c-.908 0-1.654.309-2.246.924-.591.617-.885 1.394-.885 2.329 0 .935.304 1.766.908 2.386.604.62 1.363.93 2.277.93.914 0 1.63-.303 2.207-.91.579-.606.871-1.402.871-2.385 0-.983-.292-1.76-.877-2.367-.581-.607-1.334-.909-2.255-.909v.002zm13.97-2.73c1.082 0 2.099.278 3.053.826a5.905 5.905 0 0 1 2.23 2.238c.533.941.8 1.96.8 3.052a6.209 6.209 0 0 1-.807 3.082 5.836 5.836 0 0 1-2.198 2.241c-.927.54-1.953.809-3.068.809-1.644 0-3.048-.595-4.213-1.783-1.164-1.189-1.745-2.63-1.745-4.328 0-1.821.657-3.337 1.971-4.551 1.152-1.056 2.475-1.583 3.975-1.583l.004-.005-.002.002zm.048 2.754c-.896 0-1.638.315-2.234.947-.596.632-.892 1.438-.892 2.425 0 .987.294 1.834.884 2.463.587.63 1.332.941 2.233.941.902 0 1.651-.317 2.249-.953.597-.636.897-1.451.897-2.45 0-1-.293-1.813-.883-2.435-.587-.623-1.338-.938-2.254-.938zm6.324-2.455h2.933l2.898 6.873 2.891-6.873h2.917l-4.882 11.644h-1.865l-4.894-11.644h.004-.002zm12.098 14.466L177.415.15h2.07l-7.014 19.112h-2.058zM182.489.601h8.587v2.94h-5.64v2.875h3.665v2.896h-3.665v7.128h-2.947V.6zm10.101 4.124h2.482V6.2c.269-.582.627-1.023 1.072-1.326a2.544 2.544 0 0 1 1.464-.451c.374 0 .767.1 1.177.302l-.902 2.53c-.339-.171-.618-.257-.838-.257-.444 0-.821.279-1.129.84-.308.56-.461 1.659-.461 3.295l.01.57v4.738h-2.873V4.725h-.002zm16.142 0h2.895v11.716h-2.895v-1.239c-.565.546-1.132.939-1.701 1.178a4.678 4.678 0 0 1-1.849.362c-1.489 0-2.78-.586-3.866-1.76-1.087-1.174-1.631-2.634-1.631-4.377 0-1.743.525-3.29 1.578-4.447 1.053-1.155 2.331-1.735 3.834-1.735a4.78 4.78 0 0 1 1.949.399 5.314 5.314 0 0 1 1.683 1.195V4.725h.003zm-3.043 2.413c-.896 0-1.638.322-2.23.964-.591.643-.887 1.466-.887 2.472s.302 1.846.904 2.499c.602.653 1.344.98 2.225.98.882 0 1.663-.32 2.263-.963.6-.643.898-1.485.898-2.524 0-1.04-.3-1.844-.898-2.476-.6-.633-1.357-.948-2.273-.948l-.002-.004zm8.855-2.414h2.926v5.643c0 1.098.075 1.86.224 2.289.149.426.389.76.718.995.328.235.734.355 1.218.355s.891-.118 1.228-.35c.338-.234.588-.576.749-1.03.12-.338.18-1.058.18-2.165v-5.74h2.896v4.965c0 2.046-.16 3.446-.478 4.2-.389.92-.962 1.624-1.719 2.117-.757.491-1.719.737-2.885.737-1.266 0-2.29-.287-3.07-.86-.781-.574-1.33-1.376-1.648-2.401-.226-.71-.339-2.003-.339-3.877V4.724zm21.56-4.522H239v16.237h-2.896v-1.24c-.564.547-1.131.94-1.7 1.179a4.682 4.682 0 0 1-1.849.361c-1.489 0-2.78-.586-3.866-1.76-1.088-1.174-1.632-2.633-1.632-4.376 0-1.743.526-3.29 1.578-4.448C229.688 5 230.966 4.42 232.47 4.42a4.78 4.78 0 0 1 1.949.4 5.314 5.314 0 0 1 1.683 1.194V.2l.002.003zm-3.042 6.934c-.896 0-1.638.321-2.23.964-.592.642-.887 1.465-.887 2.471s.302 1.846.904 2.5c.601.652 1.344.98 2.225.98s1.663-.321 2.263-.964c.6-.642.898-1.485.898-2.524 0-1.04-.3-1.844-.898-2.476-.6-.632-1.357-.947-2.273-.947l-.002-.004z" fill="#fff"/></svg>