<svg width="266" height="24" viewBox="0 0 266 24" fill="none" xmlns="http://www.w3.org/2000/svg"><path d="M.696 19V4.692h4.816v1.652c1.316-1.54 2.884-1.932 4.312-1.932 3.612 0 5.012 2.128 5.012 6.328V19H9.74v-7.616c0-1.624-.616-2.212-1.596-2.212-1.568 0-2.352 1.316-2.352 3.08V19H.696zm21.31.28c-4.312 0-5.208-2.688-5.208-6.328v-8.26h5.096v7.616c0 1.512.504 2.212 1.848 2.212 1.54 0 2.1-1.316 2.1-3.08V4.692h5.096V19h-4.816v-1.568c-.784 1.008-2.632 1.848-4.116 1.848zM33.181 19V4.692h4.816v1.652c1.316-1.54 2.883-1.932 4.312-1.932 3.611 0 5.012 2.128 5.012 6.328V19h-5.096v-7.616c0-1.624-.617-2.212-1.596-2.212-1.569 0-2.352 1.316-2.352 3.08V19H33.18zm23.69.28c-4.396 0-7.728-3.304-7.728-7.42 0-4.144 3.332-7.448 7.728-7.448 1.96 0 3.556.588 5.068 1.792l-2.94 3.528c-.532-.504-1.12-.84-1.988-.84-1.652 0-2.716 1.26-2.716 2.968 0 1.736 1.036 2.94 2.828 2.94.98 0 1.792-.42 2.408-1.036l2.548 3.752c-1.372 1.148-3.192 1.764-5.208 1.764zm12.02 0c-3.975 0-6.131-3.304-6.131-7.42 0-4.144 2.156-7.448 6.132-7.448 1.148 0 3.052.392 3.892 1.876V4.692H77.6V19h-4.816v-1.596C72 18.86 70.04 19.28 68.892 19.28zm1.345-4.48c1.344 0 2.296-1.204 2.296-2.94 0-1.708-.952-2.968-2.296-2.968-1.344 0-2.296 1.26-2.296 2.968 0 1.736.952 2.94 2.296 2.94zm15.8 4.2V.576h5.096V19h-5.096zm14.776.28c-4.396 0-7.728-3.304-7.728-7.42 0-4.144 3.332-7.448 7.728-7.448s7.728 3.304 7.728 7.448c0 4.116-3.332 7.42-7.728 7.42zm0-4.48c1.512 0 2.576-1.204 2.576-2.94 0-1.708-1.064-2.968-2.576-2.968s-2.576 1.26-2.576 2.968c0 1.736 1.064 2.94 2.576 2.94zm23.352 4.48c-4.396 0-7.728-3.304-7.728-7.42 0-4.144 3.332-7.448 7.728-7.448 1.96 0 3.556.588 5.068 1.792l-2.94 3.528c-.532-.504-1.12-.84-1.988-.84-1.652 0-2.716 1.26-2.716 2.968 0 1.736 1.036 2.94 2.828 2.94.98 0 1.792-.42 2.408-1.036l2.548 3.752c-1.372 1.148-3.192 1.764-5.208 1.764zm13.617 0c-4.396 0-7.728-3.304-7.728-7.42 0-4.144 3.332-7.448 7.728-7.448s7.728 3.304 7.728 7.448c0 4.116-3.332 7.42-7.728 7.42zm0-4.48c1.512 0 2.576-1.204 2.576-2.94 0-1.708-1.064-2.968-2.576-2.968s-2.576 1.26-2.576 2.968c0 1.736 1.064 2.94 2.576 2.94zm9.696 4.2V4.692h4.816V6.26c1.064-1.204 2.716-1.848 4.312-1.848 2.296 0 3.528.924 4.2 2.212 1.232-1.792 3.136-2.212 4.564-2.212 4.62 0 5.012 3.724 5.012 6.608V19h-5.096v-7.392c0-1.708-.476-2.492-1.596-2.492-1.512 0-2.212 1.372-2.212 3.136V19h-5.096v-7.392c0-1.708-.476-2.492-1.596-2.492-1.512 0-2.212 1.372-2.212 3.136V19h-5.096zm24.993 4.116V4.692h4.816v1.596c1.148-1.54 2.744-1.876 3.892-1.876 3.976 0 6.132 3.304 6.132 7.42 0 4.144-2.296 7.448-6.3 7.448-1.148 0-2.576-.392-3.444-1.484v5.32h-5.096zm7.336-8.316c1.344 0 2.296-1.204 2.296-2.94 0-1.708-.952-2.968-2.296-2.968-1.344 0-2.296 1.26-2.296 2.968 0 1.736.952 2.94 2.296 2.94zm15.305 4.48c-3.976 0-6.132-3.304-6.132-7.42 0-4.144 2.156-7.448 6.132-7.448 1.148 0 3.052.392 3.892 1.876V4.692h4.816V19h-4.816v-1.596c-.784 1.456-2.744 1.876-3.892 1.876zm1.344-4.48c1.344 0 2.296-1.204 2.296-2.94 0-1.708-.952-2.968-2.296-2.968-1.344 0-2.296 1.26-2.296 2.968 0 1.736.952 2.94 2.296 2.94zm9.593 4.2V4.692h4.956V7.24c.084-.616 1.316-2.828 4.676-2.828v5.544c-3.696 0-4.536 1.54-4.536 4.228V19h-5.096zm17.579.28c-2.744 0-4.536-1.764-4.536-4.9V8.724h-2.1V4.692h2.1V2.116l5.096-1.26v3.836h3.164v4.032h-3.164v5.264c0 .672.336.896.784.896.42 0 .924-.196 1.288-.448l1.372 3.724c-1.232.868-2.744 1.12-4.004 1.12zm11.187 0c-3.976 0-6.132-3.304-6.132-7.42 0-4.144 2.156-7.448 6.132-7.448 1.148 0 3.052.392 3.892 1.876V4.692h4.816V19h-4.816v-1.596c-.784 1.456-2.744 1.876-3.892 1.876zm1.344-4.48c1.344 0 2.296-1.204 2.296-2.94 0-1.708-.952-2.968-2.296-2.968-1.344 0-2.296 1.26-2.296 2.968 0 1.736.952 2.94 2.296 2.94zm14.857 4.48c-3.276 0-5.096-.98-5.936-1.708l1.624-3.584c1.12.756 2.156 1.204 4.34 1.204.056 0 1.4-.084 1.4-.644 0-.448-.84-.532-1.68-.728-3.108-.756-5.404-2.016-5.404-4.648 0-3.136 2.856-4.76 5.88-4.76 2.772 0 4.424.616 5.796 1.344l-1.512 3.416c-1.652-.644-3.164-.84-4.116-.84-.504 0-.896.168-.896.448 0 .532 1.204.728 2.632 1.12 2.016.588 4.452 1.568 4.452 4.452 0 3.836-3.892 4.928-6.58 4.928zm11.24 0c-1.596 0-2.772-1.204-2.772-2.744 0-1.54 1.176-2.744 2.772-2.744 1.624 0 2.828 1.204 2.828 2.744 0 1.54-1.204 2.744-2.828 2.744z" fill="#0B2E54"/></svg>