<svg width="134" height="72" viewBox="0 0 134 72" fill="none" xmlns="http://www.w3.org/2000/svg"><path d="M10.332 3.168L8.486 4.262c-.345-.6-.674-.99-.986-1.172-.326-.208-.745-.313-1.26-.313-.631 0-1.155.18-1.572.537a1.665 1.665 0 00-.625 1.329c0 .735.547 1.328 1.64 1.777l1.505.615c1.223.495 2.119 1.1 2.685 1.817.567.71.85 1.582.85 2.617 0 1.386-.463 2.532-1.387 3.437-.931.912-2.087 1.367-3.467 1.367-1.308 0-2.39-.387-3.242-1.162-.84-.774-1.364-1.865-1.572-3.271l2.304-.508c.105.885.287 1.497.547 1.836.469.651 1.153.977 2.051.977.71 0 1.299-.238 1.768-.713.468-.476.703-1.078.703-1.807 0-.293-.043-.56-.127-.8a1.878 1.878 0 00-.381-.675c-.17-.208-.39-.4-.664-.576a6.16 6.16 0 00-.977-.517L4.824 8.45C2.76 7.58 1.73 6.303 1.73 4.623c0-1.133.432-2.08 1.298-2.842C3.893 1.013 4.971.63 6.26.63c1.738 0 3.095.846 4.072 2.539zm4.912 3.32V16h-2.197V6.488h2.197zm-2.53-3.955c0-.384.14-.716.42-.996.28-.28.616-.42 1.007-.42.397 0 .735.14 1.015.42.28.274.42.609.42 1.006s-.14.736-.42 1.016c-.273.28-.609.42-1.006.42s-.735-.14-1.015-.42c-.28-.28-.42-.622-.42-1.026zm13.975 9.229h-6.816c.059.781.313 1.403.762 1.865.449.456 1.025.683 1.728.683.547 0 1-.13 1.358-.39.351-.26.752-.742 1.2-1.445l1.856 1.035c-.286.488-.589.908-.908 1.26-.319.345-.66.631-1.025.859a4.194 4.194 0 01-1.182.488 5.75 5.75 0 01-1.377.156c-1.42 0-2.558-.455-3.418-1.367-.86-.918-1.289-2.135-1.289-3.652 0-1.504.417-2.721 1.25-3.652.84-.918 1.953-1.377 3.34-1.377 1.4 0 2.506.446 3.32 1.338.808.885 1.211 2.112 1.211 3.681l-.01.518zm-2.255-1.797c-.306-1.172-1.045-1.758-2.217-1.758-.267 0-.518.042-.752.127-.235.078-.45.195-.645.352-.189.15-.351.332-.488.546-.137.215-.24.46-.313.733h4.415zm4.668-3.477h2.197v.88c.423-.444.784-.743 1.084-.9.319-.162.72-.243 1.201-.243 1.074 0 1.924.468 2.549 1.406.69-.938 1.624-1.406 2.802-1.406 2.142 0 3.213 1.298 3.213 3.896V16h-2.207v-5.283c0-.912-.11-1.556-.332-1.934-.227-.384-.602-.576-1.123-.576-.605 0-1.048.228-1.328.684-.273.455-.41 1.188-.41 2.197V16h-2.207v-5.254c0-1.693-.488-2.539-1.465-2.539-.618 0-1.07.231-1.357.693-.28.463-.42 1.192-.42 2.188V16h-2.197V6.488zm18.271 14.688h-2.197V6.488h2.197v1.035c.866-.865 1.849-1.298 2.95-1.298 1.308 0 2.385.481 3.232 1.445.86.957 1.289 2.165 1.289 3.623 0 1.426-.427 2.614-1.28 3.564-.846.944-1.914 1.416-3.203 1.416-1.113 0-2.109-.445-2.988-1.338v6.24zm5.225-9.873c0-.912-.248-1.654-.742-2.227-.502-.58-1.133-.869-1.895-.869-.807 0-1.462.28-1.963.84-.501.56-.752 1.295-.752 2.207 0 .892.25 1.628.752 2.207.495.566 1.146.85 1.953.85.762 0 1.39-.287 1.885-.86.508-.573.762-1.289.762-2.148zm4.57-4.815h2.197v.85c.404-.423.762-.713 1.075-.87.319-.162.696-.243 1.132-.243.58 0 1.185.188 1.817.566l-1.006 2.012c-.417-.3-.824-.45-1.22-.45-1.199 0-1.798.905-1.798 2.715V16h-2.197V6.488zm16.006 5.274h-6.817c.059.781.313 1.403.762 1.865.45.456 1.025.683 1.729.683.546 0 .999-.13 1.357-.39.352-.26.752-.742 1.201-1.445l1.856 1.035c-.287.488-.59.908-.909 1.26-.319.345-.66.631-1.025.859a4.193 4.193 0 01-1.181.488 5.751 5.751 0 01-1.378.156c-1.419 0-2.558-.455-3.417-1.367-.86-.918-1.29-2.135-1.29-3.652 0-1.504.417-2.721 1.25-3.652.84-.918 1.954-1.377 3.34-1.377 1.4 0 2.507.446 3.32 1.338.808.885 1.212 2.112 1.212 3.681l-.01.518zm-2.256-1.797c-.306-1.172-1.045-1.758-2.217-1.758-.267 0-.517.042-.752.127-.234.078-.449.195-.644.352-.19.15-.352.332-.489.546-.136.215-.24.46-.312.733h4.414zm10.84-3.477h2.197v.85c.404-.423.762-.713 1.074-.87.32-.162.697-.243 1.133-.243.58 0 1.185.188 1.816.566l-1.005 2.012c-.417-.3-.824-.45-1.221-.45-1.198 0-1.797.905-1.797 2.715V16h-2.197V6.488zm16.006 5.274h-6.817c.059.781.313 1.403.762 1.865.45.456 1.025.683 1.728.683.547 0 1-.13 1.358-.39.352-.26.752-.742 1.201-1.445l1.856 1.035c-.287.488-.59.908-.909 1.26-.319.345-.66.631-1.025.859a4.194 4.194 0 01-1.182.488 5.75 5.75 0 01-1.377.156c-1.419 0-2.558-.455-3.418-1.367-.859-.918-1.289-2.135-1.289-3.652 0-1.504.417-2.721 1.25-3.652.84-.918 1.954-1.377 3.34-1.377 1.4 0 2.507.446 3.32 1.338.808.885 1.211 2.112 1.211 3.681l-.01.518zm-2.256-1.797c-.306-1.172-1.045-1.758-2.217-1.758-.267 0-.518.042-.752.127-.234.078-.45.195-.645.352-.188.15-.351.332-.488.546-.137.215-.24.46-.312.733h4.414zm5.498-3.477l2.461 5.342 2.451-5.342h2.471l-4.942 10.166-4.902-10.166h2.461zm11.074 0V16h-2.197V6.488h2.197zm-2.529-3.955c0-.384.14-.716.42-.996.28-.28.615-.42 1.006-.42.397 0 .735.14 1.015.42.28.274.42.609.42 1.006s-.14.736-.42 1.016c-.273.28-.609.42-1.006.42s-.735-.14-1.015-.42c-.28-.28-.42-.622-.42-1.026zm10.84 5.576l-1.817.967c-.286-.586-.641-.879-1.064-.879a.723.723 0 00-.518.205.655.655 0 00-.215.508c0 .365.424.726 1.27 1.084 1.165.501 1.95.964 2.353 1.387.404.423.606.993.606 1.709 0 .918-.339 1.686-1.016 2.305-.657.585-1.452.878-2.383.878-1.595 0-2.724-.778-3.388-2.333l1.875-.87c.26.456.459.746.595.87.267.247.586.37.957.37.743 0 1.114-.338 1.114-1.015 0-.39-.287-.755-.86-1.094-.221-.11-.442-.218-.664-.322a65.409 65.409 0 01-.674-.322c-.638-.313-1.087-.625-1.347-.938-.332-.397-.498-.908-.498-1.533 0-.827.283-1.51.849-2.05.58-.541 1.283-.811 2.11-.811 1.217 0 2.122.628 2.715 1.884zM130 6.49h2.207V16H130v-.996c-.905.846-1.878 1.27-2.92 1.27-1.315 0-2.402-.476-3.262-1.426-.853-.97-1.279-2.181-1.279-3.633 0-1.426.426-2.614 1.279-3.565.853-.95 1.921-1.425 3.203-1.425 1.107 0 2.1.455 2.979 1.367V6.488zm-5.215 4.726c0 .911.244 1.653.733 2.226.501.58 1.132.87 1.894.87.814 0 1.471-.28 1.973-.84.501-.58.752-1.315.752-2.207 0-.892-.251-1.628-.752-2.207-.502-.567-1.153-.85-1.953-.85-.756 0-1.387.286-1.895.86-.501.579-.752 1.295-.752 2.148zM4.488 35.846V42H1.411v-6.154H.391v-2.567h1.02v-2.618h3.077v2.618h1.751v2.567H4.488zm5.985-2.567v4.913c0 1.077.521 1.615 1.564 1.615 1.042 0 1.564-.538 1.564-1.615v-4.913h3.077v5.508c0 1.179-.391 2.063-1.173 2.652-.77.59-1.927.884-3.468.884-1.542 0-2.703-.295-3.485-.884-.77-.59-1.156-1.473-1.156-2.652v-5.508h3.077zm14.075 2.244c-.567-.295-1.122-.442-1.666-.442-.284 0-.516.057-.697.17a.526.526 0 00-.255.459c0 .102.011.187.034.255a.557.557 0 00.187.17c.102.057.244.108.425.153.192.045.442.102.748.17.85.17 1.484.476 1.904.918.42.43.629.986.629 1.666 0 .51-.102.969-.306 1.377a3.009 3.009 0 01-.85 1.037 4.017 4.017 0 01-1.31.629 5.644 5.644 0 01-1.682.238c-1.179 0-2.34-.334-3.485-1.003l1.122-2.176c.861.59 1.677.884 2.448.884.283 0 .515-.062.697-.187.181-.125.272-.283.272-.476a.613.613 0 00-.051-.272.363.363 0 00-.17-.204 1.159 1.159 0 00-.408-.17 5.882 5.882 0 00-.68-.17c-.952-.193-1.62-.476-2.006-.85-.374-.385-.561-.912-.561-1.581 0-.487.09-.924.272-1.309a2.71 2.71 0 01.782-1.003c.34-.272.748-.482 1.224-.629a5.565 5.565 0 011.615-.221 7.29 7.29 0 012.805.561l-1.037 2.006zm11.979.323V42H33.45v-6.154h-1.105v-2.567h1.105V31.97c0-.725.068-1.303.204-1.734a2.99 2.99 0 01.544-1.003c.249-.317.538-.59.867-.816.34-.227.702-.402 1.088-.527a3.685 3.685 0 011.139-.187c.26 0 .498.028.714.085.226.057.453.136.68.238v2.686a2.845 2.845 0 00-.578-.221 1.708 1.708 0 00-.544-.085c-.125 0-.255.023-.391.068a.763.763 0 00-.357.238c-.114.125-.193.306-.238.544a6.65 6.65 0 00-.051.935v1.088h2.159v2.567h-2.16zm6.347 1.768c0 .283.05.55.153.799.102.238.238.448.408.629.181.181.39.323.629.425a2.09 2.09 0 001.564 0c.25-.102.459-.244.629-.425a1.99 1.99 0 00.425-.629c.113-.238.17-.493.17-.765s-.057-.527-.17-.765a1.943 1.943 0 00-.425-.646 1.765 1.765 0 00-.63-.425 2.09 2.09 0 00-1.564 0 1.99 1.99 0 00-.628.425c-.17.181-.306.391-.408.629a1.802 1.802 0 00-.153.748zm3.876-4.335h3.094V42H46.75v-.969c-.657.827-1.547 1.241-2.67 1.241a4.425 4.425 0 01-1.75-.34 4.33 4.33 0 01-1.394-.986A4.627 4.627 0 0140 39.467a5.174 5.174 0 01-.323-1.853c0-.623.108-1.213.323-1.768.215-.567.516-1.06.9-1.479.386-.42.845-.748 1.378-.986a4.12 4.12 0 011.768-.374c1.088 0 1.989.38 2.703 1.139v-.867zm11.767 2.822c-.533-.363-1.071-.544-1.615-.544-.295 0-.572.051-.833.153a2 2 0 00-.663.442 1.982 1.982 0 00-.46.663c-.101.25-.152.533-.152.85 0 .306.05.59.153.85.113.25.26.47.442.663.192.181.42.323.68.425.26.102.538.153.833.153.578 0 1.116-.198 1.615-.595v2.618c-.76.329-1.48.493-2.16.493a5.168 5.168 0 01-1.818-.323 4.791 4.791 0 01-1.513-.918 4.75 4.75 0 01-1.037-1.445 4.462 4.462 0 01-.391-1.887c0-.691.124-1.32.374-1.887.25-.578.59-1.071 1.02-1.479.43-.42.94-.742 1.53-.969a5.167 5.167 0 011.92-.357c.749 0 1.44.159 2.075.476v2.618zm5.189-.255V42h-3.077v-6.154h-1.02v-2.567h1.02v-2.618h3.077v2.618h1.75v2.567h-1.75zm5.985-2.567v4.913c0 1.077.52 1.615 1.564 1.615 1.042 0 1.564-.538 1.564-1.615v-4.913h3.077v5.508c0 1.179-.391 2.063-1.173 2.652-.771.59-1.927.884-3.468.884-1.542 0-2.703-.295-3.485-.884-.771-.59-1.156-1.473-1.156-2.652v-5.508h3.077zm8.295 0h3.077v1.428c.328-.521.73-.918 1.207-1.19.476-.283 1.031-.425 1.666-.425h.255c.102 0 .215.011.34.034v2.941a2.923 2.923 0 00-1.326-.306c-.714 0-1.253.215-1.615.646-.352.42-.527 1.037-.527 1.853V42h-3.077v-8.721zm10.874 4.335c0 .283.051.55.153.799.102.238.238.448.408.629.181.181.391.323.63.425a2.09 2.09 0 001.563 0c.25-.102.46-.244.63-.425a1.99 1.99 0 00.424-.629c.113-.238.17-.493.17-.765s-.056-.527-.17-.765a1.943 1.943 0 00-.425-.646 1.765 1.765 0 00-.629-.425 2.09 2.09 0 00-1.564 0 1.99 1.99 0 00-.629.425c-.17.181-.306.391-.408.629a1.802 1.802 0 00-.153.748zm3.876-4.335h3.094V42h-3.094v-.969c-.657.827-1.547 1.241-2.669 1.241a4.426 4.426 0 01-1.75-.34 4.332 4.332 0 01-1.395-.986 4.628 4.628 0 01-.935-1.479 5.176 5.176 0 01-.323-1.853c0-.623.108-1.213.323-1.768.216-.567.516-1.06.901-1.479.385-.42.844-.748 1.377-.986a4.12 4.12 0 011.768-.374c1.088 0 1.99.38 2.703 1.139v-.867zm10.968 2.244c-.567-.295-1.122-.442-1.666-.442-.283 0-.516.057-.697.17a.526.526 0 00-.255.459c0 .102.011.187.034.255a.554.554 0 00.187.17c.102.057.244.108.425.153.193.045.442.102.748.17.85.17 1.485.476 1.904.918.419.43.629.986.629 1.666 0 .51-.102.969-.306 1.377a3.004 3.004 0 01-.85 1.037 4.02 4.02 0 01-1.309.629 5.644 5.644 0 01-1.683.238c-1.178 0-2.34-.334-3.485-1.003l1.122-2.176c.862.59 1.677.884 2.448.884.283 0 .516-.062.697-.187.181-.125.272-.283.272-.476a.613.613 0 00-.051-.272.363.363 0 00-.17-.204 1.164 1.164 0 00-.408-.17 5.899 5.899 0 00-.68-.17c-.952-.193-1.62-.476-2.006-.85-.374-.385-.56-.912-.56-1.581 0-.487.09-.924.271-1.309a2.71 2.71 0 01.782-1.003c.34-.272.748-.482 1.224-.629a5.566 5.566 0 011.615-.221c.963 0 1.898.187 2.805.561l-1.037 2.006zm11.503 2.091c0 .283.051.55.153.799.102.238.238.448.408.629.181.181.391.323.629.425a2.09 2.09 0 001.564 0c.249-.102.459-.244.629-.425.181-.181.323-.391.425-.629.113-.238.17-.493.17-.765s-.057-.527-.17-.765a1.947 1.947 0 00-.425-.646 1.767 1.767 0 00-.629-.425 2.045 2.045 0 00-1.547 0 1.986 1.986 0 00-.629.425c-.17.181-.312.391-.425.629a1.802 1.802 0 00-.153.748zm3.876-9.724h3.094V42h-3.094v-.969c-.657.827-1.547 1.241-2.669 1.241a4.243 4.243 0 01-3.145-1.343 4.628 4.628 0 01-.935-1.479 5.134 5.134 0 01-.323-1.836c0-.623.102-1.213.306-1.768.215-.567.516-1.06.901-1.479.385-.42.844-.748 1.377-.986a4.233 4.233 0 011.785-.374c1.088 0 1.989.38 2.703 1.139V27.89zm11.563 8.483a1.853 1.853 0 00-.629-1.037c-.318-.26-.703-.391-1.156-.391-.476 0-.867.125-1.173.374-.295.25-.482.6-.561 1.054h3.519zm-3.604 1.785c0 1.326.623 1.989 1.87 1.989.668 0 1.173-.272 1.513-.816h2.975c-.601 1.995-2.103 2.992-4.505 2.992a6.059 6.059 0 01-2.023-.323 4.715 4.715 0 01-1.581-.952 4.256 4.256 0 01-1.003-1.462c-.238-.567-.357-1.201-.357-1.904 0-.725.113-1.377.34-1.955.226-.59.549-1.088.969-1.496a4.2 4.2 0 011.513-.935c.6-.227 1.275-.34 2.023-.34.736 0 1.399.113 1.989.34a3.941 3.941 0 011.496.952c.408.42.719.935.935 1.547.215.6.323 1.28.323 2.04v.323h-6.477zM.9 71l2.56-15.08h3.88l3.02 8.04 3-8.04h3.88L19.8 71h-3.9l-1.3-8.68L11.04 71H9.48L6.1 62.32 4.8 71H.9zm27.996-6.62a2.178 2.178 0 00-.74-1.22c-.373-.307-.826-.46-1.36-.46-.56 0-1.02.147-1.38.44-.346.293-.566.707-.66 1.24h4.14zm-4.24 2.1c0 1.56.734 2.34 2.2 2.34.787 0 1.38-.32 1.78-.96h3.5c-.706 2.347-2.473 3.52-5.3 3.52-.866 0-1.66-.127-2.38-.38a5.547 5.547 0 01-1.86-1.12 5.012 5.012 0 01-1.18-1.72c-.28-.667-.42-1.413-.42-2.24 0-.853.134-1.62.4-2.3a4.84 4.84 0 011.14-1.76 4.951 4.951 0 011.78-1.1c.707-.267 1.5-.4 2.38-.4.867 0 1.647.133 2.34.4.694.253 1.28.627 1.76 1.12.48.493.847 1.1 1.1 1.82.254.707.38 1.507.38 2.4v.38h-7.62zm13.05-.64c0 .333.06.647.18.94.12.28.28.527.48.74.213.213.46.38.74.5.293.12.606.18.94.18.32 0 .62-.06.9-.18.293-.12.54-.287.74-.5.213-.213.38-.46.5-.74.133-.28.2-.58.2-.9 0-.32-.067-.62-.2-.9a2.285 2.285 0 00-.5-.76c-.2-.213-.447-.38-.74-.5a2.407 2.407 0 00-1.82 0 2.34 2.34 0 00-.74.5c-.2.213-.367.46-.5.74-.12.267-.18.56-.18.88zm4.56-11.44h3.64V71h-3.64v-1.14c-.774.973-1.82 1.46-3.14 1.46a4.992 4.992 0 01-3.7-1.58 5.444 5.444 0 01-1.1-1.74 6.03 6.03 0 01-.38-2.16c0-.733.12-1.427.36-2.08a5.347 5.347 0 011.06-1.74c.453-.493.993-.88 1.62-1.16a4.98 4.98 0 012.1-.44c1.28 0 2.34.447 3.18 1.34V54.4zm9.723 6.34V71h-3.62V60.74h3.62zm-3.86-3.94c0-.28.053-.54.16-.78.107-.253.253-.473.44-.66.187-.187.4-.333.64-.44a2.04 2.04 0 012.24.44c.187.187.333.407.44.66a2.04 2.04 0 010 1.58 2.11 2.11 0 01-.44.64 2.045 2.045 0 01-.66.44 2.04 2.04 0 01-1.58 0 2.11 2.11 0 01-.64-.44 2.11 2.11 0 01-.44-.64 2.04 2.04 0 01-.16-.8zm14.074 7.26c-.627-.427-1.26-.64-1.9-.64-.347 0-.674.06-.98.18-.294.12-.554.293-.78.52a2.332 2.332 0 00-.54.78c-.12.293-.18.627-.18 1 0 .36.06.693.18 1 .133.293.306.553.52.78.226.213.493.38.8.5.306.12.633.18.98.18.68 0 1.313-.233 1.9-.7v3.08c-.894.387-1.74.58-2.54.58a6.08 6.08 0 01-2.14-.38 5.637 5.637 0 01-1.78-1.08 5.585 5.585 0 01-1.22-1.7c-.307-.667-.46-1.407-.46-2.22 0-.813.146-1.553.44-2.22.293-.68.693-1.26 1.2-1.74a5.247 5.247 0 011.8-1.14c.706-.28 1.46-.42 2.26-.42.88 0 1.693.187 2.44.56v3.08zm5.424 1.78c0 .333.06.647.18.94.12.28.28.527.48.74.214.213.46.38.74.5.294.12.607.18.94.18.32 0 .62-.06.9-.18.294-.12.54-.287.74-.5.214-.213.38-.46.5-.74.134-.28.2-.58.2-.9 0-.32-.066-.62-.2-.9a2.284 2.284 0 00-.5-.76c-.2-.213-.446-.38-.74-.5a2.26 2.26 0 00-.9-.18c-.333 0-.646.06-.94.18-.28.12-.526.287-.74.5-.2.213-.36.46-.48.74-.12.267-.18.56-.18.88zm4.56-5.1h3.64V71h-3.64v-1.14c-.773.973-1.82 1.46-3.14 1.46a5.207 5.207 0 01-2.06-.4 5.097 5.097 0 01-1.64-1.16 5.447 5.447 0 01-1.1-1.74 6.09 6.09 0 01-.38-2.18c0-.733.127-1.427.38-2.08a5.35 5.35 0 011.06-1.74c.454-.493.994-.88 1.62-1.16a4.846 4.846 0 012.08-.44c1.28 0 2.34.447 3.18 1.34v-1.02zm6.104 0h3.62v1.68c.386-.613.86-1.08 1.42-1.4.56-.333 1.213-.5 1.96-.5h.3c.12 0 .253.013.4.04v3.46c-.48-.24-1-.36-1.56-.36-.84 0-1.474.253-1.9.76-.414.493-.62 1.22-.62 2.18V71h-3.62V60.74zm16.933 3.64a2.178 2.178 0 00-.74-1.22c-.373-.307-.826-.46-1.36-.46-.56 0-1.02.147-1.38.44-.346.293-.566.707-.66 1.24h4.14zm-4.24 2.1c0 1.56.734 2.34 2.2 2.34.787 0 1.38-.32 1.78-.96h3.5c-.706 2.347-2.473 3.52-5.3 3.52-.866 0-1.66-.127-2.38-.38a5.547 5.547 0 01-1.86-1.12 5.012 5.012 0 01-1.18-1.72c-.28-.667-.42-1.413-.42-2.24 0-.853.134-1.62.4-2.3a4.84 4.84 0 011.14-1.76 4.951 4.951 0 011.78-1.1c.707-.267 1.5-.4 2.38-.4.867 0 1.647.133 2.34.4.694.253 1.28.627 1.76 1.12.48.493.847 1.1 1.1 1.82.254.707.38 1.507.38 2.4v.38h-7.62zm9.51 2.6c0-.32.06-.62.18-.9.12-.293.286-.547.5-.76.213-.213.46-.38.74-.5a2.406 2.406 0 011.82 0c.293.12.546.287.76.5.213.213.38.467.5.76a2.407 2.407 0 010 1.82 2.295 2.295 0 01-1.26 1.24 2.406 2.406 0 01-1.82 0 2.337 2.337 0 01-1.24-1.24c-.12-.293-.18-.6-.18-.92zm6.796 0c0-.32.06-.62.18-.9a2.29 2.29 0 011.24-1.26c.294-.12.6-.18.92-.18.32 0 .62.06.9.18.294.12.547.287.76.5.214.213.38.467.5.76a2.407 2.407 0 010 1.82c-.12.28-.286.527-.5.74-.213.213-.466.38-.76.5-.28.12-.58.18-.9.18-.32 0-.626-.06-.92-.18a2.348 2.348 0 01-1.24-1.24c-.12-.293-.18-.6-.18-.92zm6.797 0c0-.32.06-.62.18-.9a2.29 2.29 0 011.24-1.26c.294-.12.6-.18.92-.18.32 0 .62.06.9.18.294.12.547.287.76.5.214.213.38.467.5.76a2.407 2.407 0 010 1.82c-.12.28-.286.527-.5.74-.213.213-.466.38-.76.5-.28.12-.58.18-.9.18-.32 0-.626-.06-.92-.18a2.348 2.348 0 01-1.24-1.24c-.12-.293-.18-.6-.18-.92z" fill="#fff"/></svg>