<svg width="239" height="21" viewBox="0 0 239 21" fill="none" xmlns="http://www.w3.org/2000/svg"><path d="M12.027 11.466H2.783c.134.827.49 1.487 1.07 1.974.578.49 1.319.733 2.219.733 1.075 0 2-.382 2.773-1.145l2.424 1.155c-.604.872-1.328 1.515-2.171 1.933-.844.418-1.845.625-3.004.625-1.8 0-3.263-.575-4.395-1.728C.567 13.86 0 12.417 0 10.683 0 8.948.565 7.43 1.692 6.256c1.127-1.174 2.542-1.76 4.244-1.76 1.806 0 3.274.588 4.406 1.76 1.131 1.174 1.698 2.723 1.698 4.651l-.01.557-.002.002zM9.15 9.164a2.923 2.923 0 00-1.125-1.583c-.56-.408-1.208-.611-1.948-.611-.803 0-1.506.229-2.112.684-.38.286-.732.788-1.057 1.51H9.15zM21 6.423l-1.78 1.808c-.724-.728-1.382-1.092-1.971-1.092-.323 0-.577.07-.76.208a.626.626 0 00-.099.951c.116.133.401.313.859.54l1.055.536c1.11.556 1.873 1.123 2.287 1.7.414.578.623 1.257.623 2.034 0 1.035-.375 1.898-1.123 2.59-.75.692-1.752 1.037-3.01 1.037-1.673 0-3.007-.664-4.006-1.991l1.77-1.96a4.1 4.1 0 001.185.968c.453.246.857.37 1.208.37.38 0 .685-.092.917-.277.231-.185.347-.4.347-.643 0-.45-.418-.888-1.253-1.317l-.97-.491c-1.856-.95-2.782-2.138-2.782-3.564 0-.92.35-1.707 1.048-2.36.7-.654 1.595-.979 2.683-.979.745 0 1.446.166 2.103.498a4.68 4.68 0 011.672 1.428L21 6.423zM24.012 13.39c.457 0 .848.162 1.17.487.323.326.485.718.485 1.183 0 .464-.162.86-.485 1.188a1.584 1.584 0 01-1.17.492c-.457 0-.846-.164-1.17-.492a1.633 1.633 0 01-.485-1.188c0-.465.161-.86.484-1.183a1.588 1.588 0 011.17-.487zM30.302.697h2.875l3.597 10.983L40.4.697h2.876l2.604 15.746h-2.853L41.365 6.5l-3.297 9.944h-2.604L32.2 6.5l-1.702 9.944h-2.88L30.301.697zM59.296 11.466H50.05c.133.83.49 1.487 1.07 1.977.579.487 1.32.732 2.22.732 1.076 0 2.001-.382 2.774-1.146l2.427 1.157c-.604.87-1.328 1.516-2.174 1.934-.844.418-1.845.626-3.005.626-1.8 0-3.264-.575-4.398-1.728-1.131-1.153-1.698-2.596-1.698-4.329 0-1.732.563-3.253 1.692-4.425 1.13-1.171 2.544-1.76 4.244-1.76 1.806 0 3.275.589 4.406 1.76 1.131 1.176 1.698 2.724 1.698 4.65l-.01.556h-.005l.005-.004zm-2.88-2.301a2.933 2.933 0 00-1.125-1.584c-.56-.407-1.208-.611-1.948-.611-.803 0-1.506.229-2.114.685-.38.285-.734.79-1.057 1.51h6.245zM69.833.3h2.88v16.14h-2.88v-1.23c-.562.542-1.125.934-1.69 1.172a4.69 4.69 0 01-1.838.359c-1.481 0-2.762-.584-3.843-1.75-1.082-1.165-1.624-2.616-1.624-4.35 0-1.735.521-3.273 1.57-4.424 1.047-1.148 2.314-1.724 3.812-1.724.689 0 1.334.133 1.938.395.604.263 1.16.662 1.673 1.189V.299h.002zm-3.028 6.894c-.89 0-1.63.317-2.217.958-.587.638-.883 1.457-.883 2.457 0 1 .3 1.833.898 2.482.597.649 1.334.972 2.21.972.878 0 1.655-.317 2.249-.957.596-.639.891-1.475.891-2.512s-.297-1.833-.891-2.463c-.596-.626-1.347-.941-2.259-.941v.004h.002zM76.784 0c.502 0 .937.187 1.296.557.36.371.542.82.542 1.348 0 .527-.18.966-.537 1.333-.358.366-.784.553-1.28.553a1.77 1.77 0 01-1.31-.563 1.901 1.901 0 01-.542-1.365c0-.536.178-.954.534-1.317A1.749 1.749 0 0176.78 0h.004zm-1.44 4.795h2.88V16.44h-2.88V4.794zM91.98 7.154l-2.395 1.34c-.449-.479-.895-.809-1.334-.996-.44-.186-.955-.279-1.547-.279-1.075 0-1.948.324-2.612.977-.664.65-.997 1.487-.997 2.505 0 1.019.318 1.798.962 2.428.639.626 1.48.94 2.523.94 1.287 0 2.29-.447 3.007-1.34l2.267 1.578c-1.23 1.625-2.966 2.438-5.21 2.438-2.019 0-3.597-.607-4.739-1.82-1.141-1.215-1.714-2.634-1.714-4.262 0-1.127.279-2.165.831-3.114a5.965 5.965 0 012.325-2.239c.993-.542 2.108-.813 3.336-.813 1.14 0 2.162.231 3.068.691a5.817 5.817 0 012.223 1.966v.004l.006-.004zM101.982 4.795h2.88V16.44h-2.88v-1.23c-.562.541-1.125.934-1.689 1.171a4.693 4.693 0 01-1.84.36c-1.48 0-2.76-.585-3.842-1.75-1.082-1.166-1.624-2.617-1.624-4.352 0-1.734.521-3.272 1.57-4.422 1.047-1.15 2.314-1.725 3.812-1.725.689 0 1.334.133 1.938.395.604.263 1.16.662 1.673 1.189V4.79v.004h.002zm-3.028 2.398c-.889 0-1.63.317-2.217.958-.587.638-.883 1.457-.883 2.457 0 1 .3 1.833.898 2.482.597.65 1.334.973 2.21.973.878 0 1.655-.318 2.249-.958.596-.639.891-1.474.891-2.512 0-1.037-.297-1.833-.891-2.463-.596-.626-1.347-.941-2.259-.941v.004h.002zM107.303 4.796h2.468v1.468c.265-.578.622-1.019 1.065-1.317a2.55 2.55 0 011.454-.45c.372 0 .763.1 1.171.299l-.896 2.513c-.339-.17-.614-.256-.831-.256-.443 0-.817.28-1.123.836-.306.557-.46 1.649-.46 3.276l.011.57v4.71h-2.857V4.795h-.004.002zM125.78 11.466h-9.245c.132.83.49 1.487 1.069 1.977.579.487 1.32.732 2.222.732 1.075 0 2-.382 2.773-1.146l2.426 1.157c-.604.87-1.327 1.516-2.173 1.934-.844.418-1.845.626-3.006.626-1.799 0-3.264-.575-4.397-1.728-1.131-1.153-1.698-2.596-1.698-4.329 0-1.732.562-3.253 1.692-4.425 1.129-1.171 2.544-1.76 4.244-1.76 1.806 0 3.274.589 4.406 1.76 1.131 1.176 1.698 2.724 1.698 4.65l-.011.556h-.004l.004-.004zm-2.879-2.301a2.929 2.929 0 00-1.125-1.584c-.558-.405-1.208-.611-1.948-.611-.803 0-1.506.229-2.114.685-.381.285-.734.79-1.057 1.51h6.244zM128.747 13.393a1.6 1.6 0 011.171.487c.322.323.484.72.484 1.182 0 .462-.162.861-.484 1.189a1.588 1.588 0 01-1.171.491c-.455 0-.848-.164-1.171-.491a1.628 1.628 0 01-.484-1.189c0-.466.161-.857.484-1.182a1.6 1.6 0 011.171-.488zM140.957 4.794h2.868v9.975c0 1.968-.388 3.417-1.17 4.345C141.608 20.37 140.03 21 137.92 21c-1.125 0-2.068-.14-2.838-.426a5.054 5.054 0 01-1.938-1.258c-.527-.553-.916-1.227-1.17-2.016h3.173a2.64 2.64 0 001.085.745c.443.168.968.25 1.572.25.772 0 1.394-.122 1.866-.363.472-.244.803-.557.997-.941.192-.386.292-1.05.292-1.991-.507.514-1.039.884-1.591 1.109-.556.224-1.183.338-1.888.338-1.541 0-2.84-.563-3.901-1.693-1.059-1.127-1.591-2.553-1.591-4.282 0-1.846.563-3.333 1.686-4.454 1.018-1.012 2.236-1.518 3.646-1.518.662 0 1.285.121 1.872.37.588.247 1.177.65 1.765 1.213V4.794zm-2.983 2.431c-.908 0-1.655.31-2.246.924-.592.618-.885 1.395-.885 2.33 0 .934.304 1.766.908 2.385.603.62 1.363.93 2.277.93.914 0 1.63-.302 2.207-.909.579-.607.87-1.403.87-2.386 0-.982-.291-1.76-.876-2.366-.582-.607-1.335-.91-2.255-.91v.002zM151.944 4.498c1.082 0 2.099.277 3.053.825a5.895 5.895 0 012.229 2.239c.534.94.801 1.96.801 3.051a6.209 6.209 0 01-.807 3.083 5.842 5.842 0 01-2.198 2.241c-.927.54-1.953.809-3.068.809-1.644 0-3.049-.595-4.213-1.783-1.165-1.19-1.746-2.63-1.746-4.329 0-1.82.658-3.337 1.971-4.55 1.152-1.057 2.476-1.584 3.976-1.584l.004-.004-.002.002zm.047 2.753c-.895 0-1.638.315-2.233.947-.596.632-.892 1.439-.892 2.426 0 .987.294 1.833.883 2.463.588.63 1.332.941 2.234.941.902 0 1.651-.317 2.248-.953.598-.637.898-1.452.898-2.451 0-1-.294-1.813-.883-2.434-.587-.624-1.338-.939-2.255-.939zM158.315 4.794h2.933l2.898 6.874 2.892-6.874h2.916l-4.881 11.645h-1.866l-4.894-11.645h.004-.002zM170.414 19.262L177.416.15h2.07l-7.014 19.113h-2.058zM182.489.603h8.588v2.94h-5.64v2.875h3.665v2.896h-3.665v7.128h-2.948V.6v.003zM192.591 4.726h2.482V6.2c.269-.582.627-1.023 1.072-1.325a2.546 2.546 0 011.464-.452c.374 0 .767.1 1.177.303l-.902 2.53c-.339-.172-.618-.258-.837-.258-.445 0-.822.28-1.13.84-.308.56-.461 1.659-.461 3.295l.01.571v4.738h-2.873V4.726h-.002zM208.732 4.726h2.896v11.716h-2.896v-1.24c-.564.547-1.131.94-1.7 1.179a4.682 4.682 0 01-1.849.361c-1.489 0-2.78-.586-3.866-1.76-1.088-1.174-1.632-2.633-1.632-4.376 0-1.743.526-3.291 1.578-4.448 1.053-1.155 2.331-1.735 3.835-1.735.693 0 1.342.132 1.949.4a5.314 5.314 0 011.683 1.194V4.726h.002zm-3.042 2.413c-.896 0-1.638.32-2.23.963-.592.643-.887 1.466-.887 2.472s.302 1.846.904 2.5c.601.652 1.344.98 2.225.98s1.663-.321 2.263-.964c.6-.643.898-1.485.898-2.524 0-1.04-.3-1.844-.898-2.476-.6-.632-1.357-.947-2.273-.947l-.002-.004zM214.544 4.725h2.927v5.643c0 1.098.074 1.86.223 2.289.149.426.389.76.718.995.329.236.734.355 1.218.355s.891-.117 1.229-.35c.337-.233.587-.576.748-1.03.12-.338.18-1.058.18-2.165v-5.74h2.896v4.965c0 2.046-.159 3.447-.478 4.2-.389.92-.962 1.624-1.719 2.117-.757.492-1.718.738-2.885.738-1.266 0-2.29-.288-3.069-.861-.782-.574-1.33-1.376-1.649-2.4-.225-.71-.339-2.004-.339-3.878V4.725zM236.104.201H239V16.44h-2.896v-1.24c-.564.547-1.131.94-1.7 1.18a4.682 4.682 0 01-1.849.36c-1.489 0-2.78-.586-3.866-1.76-1.088-1.173-1.632-2.633-1.632-4.376 0-1.743.526-3.291 1.579-4.448C229.688 5 230.967 4.42 232.47 4.42c.693 0 1.343.132 1.949.4a5.314 5.314 0 011.683 1.194V.2l.002.002zm-3.042 6.935c-.896 0-1.638.32-2.23.964-.591.642-.887 1.465-.887 2.471s.302 1.846.904 2.5c.602.653 1.344.98 2.225.98s1.663-.321 2.263-.964c.6-.642.898-1.485.898-2.524 0-1.04-.3-1.844-.898-2.476-.6-.632-1.357-.947-2.273-.947l-.002-.004z" fill="#fff"/></svg>