<svg width="126" height="101" viewBox="0 0 126 101" fill="none" xmlns="http://www.w3.org/2000/svg"><path d="M1.074 11.688c0-.438.16-.817.48-1.137.321-.32.704-.48 1.15-.48.444 0 .827.16 1.148.48.32.32.48.703.48 1.148 0 .453-.16.84-.48 1.16a1.562 1.562 0 01-1.149.47c-.46 0-.848-.157-1.16-.47-.313-.312-.469-.703-.469-1.171zm5.246 0c0-.438.16-.817.48-1.137.321-.32.704-.48 1.15-.48.445 0 .827.16 1.148.48.32.32.48.703.48 1.148 0 .453-.16.84-.48 1.16a1.562 1.562 0 01-1.149.47c-.46 0-.847-.157-1.16-.47-.312-.312-.469-.703-.469-1.171zm5.247 0c0-.438.16-.817.48-1.137.32-.32.703-.48 1.149-.48.445 0 .828.16 1.148.48.32.32.48.703.48 1.148 0 .453-.16.84-.48 1.16a1.562 1.562 0 01-1.148.47c-.461 0-.848-.157-1.16-.47-.313-.312-.47-.703-.47-1.171zm7.83 8.04h-2.855V.636h2.856V1.98C20.524.855 21.802.292 23.232.292c1.701 0 3.102.626 4.202 1.879 1.117 1.244 1.676 2.814 1.676 4.71 0 1.853-.555 3.398-1.663 4.634-1.1 1.227-2.488 1.84-4.164 1.84-1.448 0-2.742-.58-3.885-1.739v8.113zM26.19 6.895c0-1.185-.322-2.15-.965-2.895-.652-.753-1.473-1.13-2.463-1.13-1.05 0-1.9.364-2.552 1.092-.651.728-.977 1.684-.977 2.87 0 1.159.326 2.115.977 2.868.644.736 1.49 1.105 2.54 1.105.99 0 1.806-.373 2.45-1.117.66-.745.99-1.676.99-2.793zM41.247.634h2.869V13h-2.87v-1.295c-1.176 1.1-2.441 1.65-3.795 1.65-1.71 0-3.123-.617-4.24-1.853-1.11-1.261-1.664-2.835-1.664-4.723 0-1.853.555-3.398 1.663-4.633C34.32.91 35.707.292 37.374.292c1.44 0 2.73.592 3.873 1.777V.635zm-6.78 6.145c0 1.185.318 2.15.952 2.895.652.753 1.473 1.13 2.463 1.13 1.058 0 1.913-.364 2.565-1.092.651-.753.977-1.71.977-2.87 0-1.159-.325-2.115-.977-2.868-.652-.737-1.498-1.105-2.54-1.105-.981 0-1.802.373-2.462 1.117-.652.754-.978 1.685-.978 2.793zM47.721.635h2.857v1.104c.524-.55.99-.927 1.396-1.13.415-.211.906-.317 1.473-.317.753 0 1.54.245 2.361.736l-1.307 2.616c-.542-.39-1.071-.584-1.587-.584-1.558 0-2.336 1.176-2.336 3.529V13H47.72V.635zm18.662 0h2.87V13h-2.87v-1.295c-1.176 1.1-2.441 1.65-3.796 1.65-1.71 0-3.123-.617-4.24-1.853-1.109-1.261-1.663-2.835-1.663-4.723 0-1.853.554-3.398 1.663-4.633C59.456.91 60.844.292 62.511.292c1.439 0 2.73.592 3.872 1.777V.635zm-6.779 6.144c0 1.185.317 2.15.952 2.895.652.753 1.473 1.13 2.463 1.13 1.058 0 1.913-.364 2.565-1.092.651-.753.977-1.71.977-2.87 0-1.159-.326-2.115-.978-2.868-.651-.737-1.498-1.105-2.539-1.105-.981 0-1.802.373-2.462 1.117-.652.754-.978 1.685-.978 2.793zM9.918 29.635h2.87V42h-2.87v-1.295c-1.176 1.1-2.442 1.65-3.796 1.65-1.71 0-3.123-.617-4.24-1.853C.773 39.241.219 37.667.219 35.779c0-1.853.554-3.398 1.663-4.634 1.109-1.235 2.497-1.853 4.164-1.853 1.439 0 2.73.592 3.872 1.777v-1.434zm-6.78 6.144c0 1.185.318 2.15.953 2.895.652.753 1.472 1.13 2.463 1.13 1.058 0 1.912-.364 2.564-1.092.652-.753.978-1.71.978-2.87 0-1.159-.326-2.115-.978-2.868-.652-.737-1.498-1.105-2.539-1.105-.982 0-1.803.373-2.463 1.117-.651.754-.977 1.685-.977 2.793zm20.44-4.037L21.217 33c-.373-.762-.834-1.143-1.384-1.143a.94.94 0 00-.673.267.85.85 0 00-.28.66c0 .474.551.944 1.651 1.41 1.515.651 2.535 1.252 3.06 1.802.525.55.787 1.29.787 2.222 0 1.193-.44 2.192-1.32 2.996-.855.762-1.888 1.142-3.098 1.142-2.074 0-3.542-1.01-4.405-3.034l2.437-1.13c.339.593.597.97.775 1.13.347.322.761.483 1.244.483.965 0 1.447-.44 1.447-1.32 0-.508-.372-.982-1.117-1.422a39.908 39.908 0 00-.864-.42c-.287-.135-.58-.275-.875-.418-.83-.407-1.414-.813-1.752-1.22-.432-.515-.648-1.18-.648-1.992 0-1.075.368-1.964 1.105-2.666.753-.703 1.667-1.054 2.742-1.054 1.582 0 2.759.817 3.53 2.45zm14.638 4.748h-8.861c.076 1.016.406 1.824.99 2.425.584.593 1.333.889 2.247.889.71 0 1.299-.17 1.764-.508.457-.339.978-.965 1.562-1.879l2.412 1.346a9.832 9.832 0 01-1.18 1.637 6.536 6.536 0 01-1.334 1.118c-.474.287-.986.499-1.536.634a7.474 7.474 0 01-1.79.203c-1.845 0-3.326-.592-4.443-1.777-1.117-1.193-1.676-2.776-1.676-4.748 0-1.955.542-3.538 1.625-4.748 1.092-1.193 2.54-1.79 4.342-1.79 1.82 0 3.258.58 4.316 1.74 1.05 1.15 1.574 2.746 1.574 4.785l-.012.673zm-2.933-2.336c-.398-1.523-1.358-2.285-2.882-2.285-.347 0-.673.055-.977.165a2.696 2.696 0 00-.838.457 2.855 2.855 0 00-.635.711c-.178.28-.313.597-.406.952h5.738zm18.027 7.554c0 .584-.02 1.096-.063 1.536a9.887 9.887 0 01-.152 1.18c-.203.932-.601 1.732-1.194 2.4-1.117 1.287-2.653 1.93-4.608 1.93-1.65 0-3.009-.444-4.075-1.333-1.1-.914-1.735-2.18-1.905-3.796h2.87c.11.61.292 1.08.545 1.41.593.77 1.456 1.155 2.59 1.155 2.09 0 3.136-1.283 3.136-3.847v-1.727c-1.134 1.16-2.442 1.74-3.923 1.74-1.684 0-3.064-.61-4.138-1.829-1.084-1.235-1.625-2.78-1.625-4.633 0-1.803.503-3.335 1.51-4.596 1.084-1.337 2.514-2.006 4.291-2.006 1.558 0 2.852.58 3.885 1.74v-1.397h2.856v12.073zm-2.742-5.865c0-1.202-.321-2.163-.965-2.882-.651-.736-1.485-1.105-2.5-1.105-1.084 0-1.939.402-2.565 1.206-.567.72-.85 1.65-.85 2.794 0 1.125.283 2.048.85 2.767.618.787 1.473 1.18 2.565 1.18 1.091 0 1.955-.397 2.59-1.193.583-.719.875-1.642.875-2.767zm9.205-6.208v7.096c0 2.049.808 3.073 2.424 3.073 1.617 0 2.425-1.024 2.425-3.073v-7.096h2.856v7.16c0 .99-.122 1.845-.368 2.564-.237.644-.647 1.223-1.231 1.74-.965.838-2.192 1.257-3.682 1.257-1.48 0-2.704-.42-3.669-1.257-.592-.517-1.011-1.096-1.256-1.74-.237-.575-.356-1.43-.356-2.564v-7.16h2.857zm11.311 0h2.856v1.104c.525-.55.99-.927 1.397-1.13.415-.211.906-.317 1.473-.317.753 0 1.54.245 2.36.736l-1.307 2.616c-.541-.39-1.07-.584-1.587-.584-1.557 0-2.336 1.176-2.336 3.529V42h-2.856V29.635zm18.662 0h2.87V42h-2.87v-1.295c-1.176 1.1-2.442 1.65-3.796 1.65-1.71 0-3.123-.617-4.24-1.853-1.109-1.261-1.663-2.835-1.663-4.723 0-1.853.554-3.398 1.663-4.634 1.109-1.235 2.497-1.853 4.164-1.853 1.439 0 2.73.592 3.872 1.777v-1.434zm-6.78 6.144c0 1.185.318 2.15.953 2.895.652.753 1.473 1.13 2.463 1.13 1.058 0 1.913-.364 2.564-1.092.652-.753.978-1.71.978-2.87 0-1.159-.326-2.115-.978-2.868-.651-.737-1.498-1.105-2.539-1.105-.981 0-1.802.373-2.463 1.117-.651.754-.977 1.685-.977 2.793zm13.255-6.144h2.856v1.104c.525-.55.99-.927 1.397-1.13.414-.211.905-.317 1.472-.317.754 0 1.541.245 2.362.736L103 32.644c-.542-.39-1.071-.584-1.587-.584-1.557 0-2.336 1.176-2.336 3.529V42h-2.856V29.635zM109.83 32.3V42h-2.856v-9.7h-1.219v-2.665h1.219v-4.533h2.856v4.533h2.222V32.3h-2.222zm15.653 4.19h-8.861c.076 1.015.406 1.823.99 2.424.584.593 1.333.889 2.247.889.711 0 1.3-.17 1.765-.508.457-.339.978-.965 1.562-1.879l2.412 1.346a9.85 9.85 0 01-1.181 1.637 6.544 6.544 0 01-1.333 1.118c-.474.287-.986.499-1.536.634a7.474 7.474 0 01-1.79.203c-1.845 0-3.326-.592-4.444-1.777-1.117-1.193-1.675-2.776-1.675-4.748 0-1.955.541-3.538 1.625-4.748 1.091-1.193 2.539-1.79 4.341-1.79 1.82 0 3.259.58 4.317 1.74 1.049 1.15 1.574 2.746 1.574 4.785l-.013.673zm-2.932-2.337c-.398-1.523-1.359-2.285-2.882-2.285a2.86 2.86 0 00-.978.165 2.69 2.69 0 00-.837.457 2.83 2.83 0 00-.635.711c-.178.28-.313.597-.407.952h5.739zM9.918 77.728v-8.112c-1.134 1.16-2.43 1.74-3.885 1.74-1.667 0-3.05-.614-4.151-1.841C.773 68.279.219 66.735.219 64.88c0-1.879.554-3.449 1.663-4.71 1.117-1.253 2.518-1.879 4.202-1.879 1.43 0 2.708.563 3.834 1.688v-1.345h2.87v19.093h-2.87zm-6.78-12.974c0 1.193.322 2.162.966 2.907.643.762 1.46 1.143 2.45 1.143 1.05 0 1.9-.364 2.551-1.092.66-.736.99-1.693.99-2.87 0-1.159-.325-2.115-.977-2.868-.652-.737-1.498-1.105-2.539-1.105-.982 0-1.803.373-2.463 1.117-.651.754-.977 1.676-.977 2.768zm16.416-6.12v7.097c0 2.049.808 3.073 2.425 3.073 1.616 0 2.424-1.024 2.424-3.073v-7.096h2.857v7.16c0 .99-.123 1.845-.368 2.564-.237.644-.648 1.223-1.232 1.74-.965.837-2.192 1.257-3.681 1.257-1.482 0-2.705-.42-3.67-1.257-.592-.517-1.01-1.096-1.256-1.74-.237-.575-.356-1.43-.356-2.564v-7.16h2.857zm22.572 6.856h-8.861c.076 1.016.406 1.824.99 2.425.584.592 1.333.889 2.247.889.71 0 1.3-.17 1.765-.508.457-.339.977-.965 1.561-1.879l2.412 1.346a9.831 9.831 0 01-1.18 1.637c-.415.449-.86.821-1.333 1.118-.474.287-.986.499-1.537.634a7.473 7.473 0 01-1.79.204c-1.845 0-3.326-.593-4.443-1.778-1.117-1.193-1.676-2.776-1.676-4.748 0-1.955.542-3.538 1.625-4.748 1.092-1.193 2.54-1.79 4.342-1.79 1.82 0 3.259.58 4.317 1.74 1.049 1.15 1.574 2.746 1.574 4.785l-.013.673zm-2.933-2.336c-.397-1.523-1.358-2.285-2.881-2.285-.347 0-.673.055-.978.165a2.696 2.696 0 00-.838.457 2.857 2.857 0 00-.635.711c-.177.28-.313.597-.406.952h5.738zm23.214-.429c-.15-.633-.458-1.142-.925-1.525-.466-.383-1.033-.575-1.7-.575-.7 0-1.275.183-1.725.55-.433.367-.708.883-.825 1.55h5.175zm-5.3 2.625c0 1.95.917 2.925 2.75 2.925.984 0 1.725-.4 2.225-1.2h4.375c-.883 2.933-3.091 4.4-6.625 4.4-1.083 0-2.075-.158-2.975-.475-.9-.333-1.675-.8-2.325-1.4a6.266 6.266 0 01-1.475-2.15c-.35-.833-.525-1.767-.525-2.8 0-1.067.167-2.025.5-2.875.334-.867.809-1.6 1.425-2.2a6.192 6.192 0 012.225-1.375c.884-.333 1.875-.5 2.975-.5 1.084 0 2.059.167 2.925.5.867.317 1.6.783 2.2 1.4.6.617 1.059 1.375 1.375 2.275.317.883.475 1.883.475 3v.475h-9.525zm20.612-3.875c-.833-.433-1.65-.65-2.45-.65-.417 0-.758.083-1.025.25-.25.167-.375.392-.375.675 0 .15.017.275.05.375a.82.82 0 00.275.25c.15.083.358.158.625.225.283.067.65.15 1.1.25 1.25.25 2.183.7 2.8 1.35.617.633.925 1.45.925 2.45 0 .75-.15 1.425-.45 2.025-.3.6-.717 1.108-1.25 1.525-.533.4-1.175.708-1.925.925-.75.233-1.575.35-2.475.35-1.733 0-3.442-.492-5.125-1.475l1.65-3.2c1.267.867 2.467 1.3 3.6 1.3.417 0 .758-.092 1.025-.275.267-.183.4-.417.4-.7a.9.9 0 00-.075-.4.533.533 0 00-.25-.3c-.133-.1-.333-.183-.6-.25a8.646 8.646 0 00-1-.25c-1.4-.283-2.383-.7-2.95-1.25-.55-.567-.825-1.342-.825-2.325 0-.717.133-1.358.4-1.925a3.986 3.986 0 011.15-1.475c.5-.4 1.1-.708 1.8-.925.717-.217 1.508-.325 2.375-.325 1.417 0 2.792.275 4.125.825l-1.525 2.95zm9.612.475V71h-4.526v-9.05h-1.5v-3.775h1.5v-3.85h4.525v3.85h2.576v3.775H87.33zm8.72 2.6c0 .417.075.808.225 1.175.15.35.35.658.6.925.266.267.575.475.925.625.366.15.758.225 1.175.225.4 0 .775-.075 1.125-.225a2.6 2.6 0 00.925-.625c.266-.267.475-.575.625-.925.166-.35.25-.725.25-1.125s-.084-.775-.25-1.125a2.866 2.866 0 00-.625-.95 2.6 2.6 0 00-.925-.625 2.827 2.827 0 00-1.125-.225c-.417 0-.809.075-1.175.225-.35.15-.659.358-.925.625a3.16 3.16 0 00-.6.925c-.15.333-.225.7-.225 1.1zm5.7-6.375h4.55V71h-4.55v-1.425c-.967 1.217-2.275 1.825-3.925 1.825-.934 0-1.792-.167-2.575-.5a6.368 6.368 0 01-2.05-1.45 6.807 6.807 0 01-1.375-2.175c-.317-.833-.475-1.742-.475-2.725 0-.917.158-1.783.475-2.6a6.686 6.686 0 011.325-2.175 6.091 6.091 0 012.025-1.45c.783-.367 1.65-.55 2.6-.55 1.6 0 2.925.558 3.975 1.675v-1.275zm1.675-5.725l-4.35 3.85-2.1-1.55 3.575-4.375 2.875 2.075zm5.954 5.725h4.525V59.8c.617-.75 1.242-1.25 1.875-1.5.633-.267 1.375-.4 2.225-.4.9 0 1.667.15 2.3.45.65.283 1.2.692 1.65 1.225.367.433.617.917.75 1.45.133.533.2 1.142.2 1.825V71h-4.525v-6.475c0-.633-.05-1.142-.15-1.525-.083-.4-.242-.717-.475-.95-.2-.2-.425-.342-.675-.425a2.516 2.516 0 00-.8-.125c-.767 0-1.358.233-1.775.7-.4.45-.6 1.1-.6 1.95V71h-4.525V58.175zm-99.155 33.15c-.783-.533-1.575-.8-2.375-.8-.433 0-.842.075-1.225.225-.367.15-.692.367-.975.65a2.918 2.918 0 00-.675.975c-.15.367-.225.783-.225 1.25 0 .45.075.867.225 1.25.167.367.383.692.65.975.283.267.617.475 1 .625.383.15.792.225 1.225.225.85 0 1.642-.292 2.375-.875v3.85c-1.117.483-2.175.725-3.175.725a7.592 7.592 0 01-2.675-.475 7.05 7.05 0 01-2.225-1.35A6.983 6.983 0 01.625 96.45C.242 95.617.05 94.692.05 93.675S.233 91.733.6 90.9a6.504 6.504 0 011.5-2.175A6.558 6.558 0 014.35 87.3a7.598 7.598 0 012.825-.525c1.1 0 2.117.233 3.05.7v3.85zm6.856 2.2c0 .433.075.833.225 1.2.166.35.375.658.625.925.267.267.575.475.925.625.366.15.75.225 1.15.225.4 0 .775-.075 1.125-.225.366-.15.675-.358.925-.625.267-.267.475-.575.625-.925.166-.367.25-.758.25-1.175 0-.4-.084-.775-.25-1.125a2.857 2.857 0 00-.625-.95 2.594 2.594 0 00-.925-.625 2.825 2.825 0 00-1.125-.225c-.4 0-.784.075-1.15.225-.35.15-.659.358-.925.625a3.61 3.61 0 00-.625.925c-.15.35-.225.725-.225 1.125zm-4.775-.05c0-.95.192-1.833.575-2.65a6.371 6.371 0 011.6-2.15 7.513 7.513 0 012.425-1.45c.95-.35 1.983-.525 3.1-.525 1.1 0 2.116.175 3.05.525.95.333 1.767.808 2.45 1.425.7.6 1.241 1.325 1.625 2.175.383.833.575 1.758.575 2.775s-.2 1.95-.6 2.8a6.639 6.639 0 01-1.6 2.175c-.683.6-1.509 1.067-2.475 1.4-.95.333-1.983.5-3.1.5-1.1 0-2.117-.167-3.05-.5a7.174 7.174 0 01-2.425-1.425 6.731 6.731 0 01-1.575-2.2c-.383-.867-.575-1.825-.575-2.875zm18.005-6.3h4.525v2.1c.483-.767 1.075-1.35 1.775-1.75.7-.417 1.516-.625 2.45-.625h.375c.15 0 .316.017.5.05v4.325a4.3 4.3 0 00-1.95-.45c-1.05 0-1.842.317-2.375.95-.517.617-.775 1.525-.775 2.725v5.5H30.31V87.175zm11.645 0h4.525v2.1c.484-.767 1.075-1.35 1.775-1.75.7-.417 1.517-.625 2.45-.625h.375c.15 0 .317.017.5.05v4.325a4.3 4.3 0 00-1.95-.45c-1.05 0-1.841.317-2.375.95-.516.617-.775 1.525-.775 2.725v5.5h-4.525V87.175zm21.167 4.55c-.15-.633-.458-1.142-.925-1.525-.466-.383-1.033-.575-1.7-.575-.7 0-1.275.183-1.725.55-.433.367-.708.883-.825 1.55h5.175zm-5.3 2.625c0 1.95.917 2.925 2.75 2.925.984 0 1.725-.4 2.225-1.2h4.375c-.883 2.933-3.091 4.4-6.625 4.4-1.083 0-2.075-.158-2.975-.475-.9-.333-1.675-.8-2.325-1.4a6.266 6.266 0 01-1.475-2.15c-.35-.833-.525-1.767-.525-2.8 0-1.067.167-2.025.5-2.875.334-.867.809-1.6 1.425-2.2a6.192 6.192 0 012.225-1.375c.884-.333 1.875-.5 2.975-.5 1.084 0 2.059.167 2.925.5.867.317 1.6.783 2.2 1.4.6.617 1.059 1.375 1.375 2.275.317.883.475 1.883.475 3v.475h-9.525zm21.787-3.025c-.784-.533-1.575-.8-2.375-.8-.434 0-.842.075-1.225.225-.367.15-.692.367-.975.65a2.916 2.916 0 00-.675.975c-.15.367-.225.783-.225 1.25 0 .45.075.867.225 1.25.166.367.383.692.65.975.283.267.616.475 1 .625.383.15.791.225 1.225.225.85 0 1.641-.292 2.375-.875v3.85c-1.117.483-2.175.725-3.175.725a7.592 7.592 0 01-2.675-.475 7.049 7.049 0 01-2.225-1.35 6.981 6.981 0 01-1.525-2.125c-.384-.833-.575-1.758-.575-2.775s.183-1.942.55-2.775a6.502 6.502 0 011.5-2.175 6.557 6.557 0 012.25-1.425 7.598 7.598 0 012.825-.525c1.1 0 2.116.233 3.05.7v3.85zm7.63-.375V100h-4.524v-9.05h-1.5v-3.775h1.5v-3.85h4.525v3.85h2.575v3.775H87.24zm8.72 2.6c0 .417.076.808.226 1.175.15.35.35.658.6.925.267.267.575.475.925.625.367.15.758.225 1.175.225.4 0 .775-.075 1.125-.225a2.59 2.59 0 00.925-.625 2.92 2.92 0 00.625-.925c.167-.35.25-.725.25-1.125s-.083-.775-.25-1.125a2.85 2.85 0 00-.625-.95 2.59 2.59 0 00-.925-.625 2.826 2.826 0 00-1.125-.225c-.417 0-.808.075-1.175.225-.35.15-.658.358-.925.625a3.16 3.16 0 00-.6.925c-.15.333-.225.7-.225 1.1zm5.701-6.375h4.55V100h-4.55v-1.425c-.967 1.217-2.275 1.825-3.925 1.825-.933 0-1.792-.167-2.575-.5a6.37 6.37 0 01-2.05-1.45 6.81 6.81 0 01-1.375-2.175c-.317-.833-.475-1.742-.475-2.725 0-.917.158-1.783.475-2.6a6.69 6.69 0 011.325-2.175 6.093 6.093 0 012.025-1.45c.783-.367 1.65-.55 2.6-.55 1.6 0 2.925.558 3.975 1.675v-1.275zm16.129 3.3c-.833-.433-1.65-.65-2.45-.65-.416 0-.758.083-1.025.25-.25.167-.375.392-.375.675 0 .15.017.275.05.375.05.083.142.167.275.25.15.083.359.158.625.225.284.067.65.15 1.1.25 1.25.25 2.184.7 2.8 1.35.617.633.925 1.45.925 2.45 0 .75-.15 1.425-.45 2.025-.3.6-.716 1.108-1.25 1.525-.533.4-1.175.708-1.925.925-.75.233-1.575.35-2.475.35-1.733 0-3.441-.492-5.125-1.475l1.65-3.2c1.267.867 2.467 1.3 3.6 1.3.417 0 .759-.092 1.025-.275.267-.183.4-.417.4-.7a.9.9 0 00-.075-.4.53.53 0 00-.25-.3c-.133-.1-.333-.183-.6-.25a8.63 8.63 0 00-1-.25c-1.4-.283-2.383-.7-2.95-1.25-.55-.567-.825-1.342-.825-2.325 0-.717.134-1.358.4-1.925a3.989 3.989 0 011.15-1.475c.5-.4 1.1-.708 1.8-.925.717-.217 1.509-.325 2.375-.325 1.417 0 2.792.275 4.125.825l-1.525 2.95zm3.571 7.893c0-.272.051-.527.153-.765a1.947 1.947 0 011.054-1.071 2.045 2.045 0 011.547 0c.249.102.465.244.646.425s.323.397.425.646a2.046 2.046 0 010 1.547 1.943 1.943 0 01-1.071 1.054 2.045 2.045 0 01-1.547 0 1.986 1.986 0 01-1.207-1.836z" fill="#fff"/></svg>