<svg width="520" height="34" viewBox="0 0 520 34" fill="none" xmlns="http://www.w3.org/2000/svg"><path d="M6.525 13.352H8.54c2.232 0 3.348-.971 3.348-2.914S10.772 7.524 8.54 7.524H6.525v5.828zm0 12.648H.449V2.626h9.672c2.625 0 4.63.682 6.014 2.046 1.405 1.364 2.108 3.286 2.108 5.766s-.703 4.402-2.108 5.766c-1.385 1.364-3.39 2.046-6.014 2.046H6.525V26zm14.407-15.903h5.61v2.604c.6-.95 1.334-1.674 2.202-2.17.868-.517 1.88-.775 3.038-.775h.465c.186 0 .392.02.62.062v5.363a5.331 5.331 0 00-2.418-.558c-1.302 0-2.284.393-2.945 1.178-.64.765-.961 1.891-.961 3.379V26h-5.611V10.097zm19.862 7.874c0 .537.093 1.033.28 1.488.206.434.464.816.774 1.147.331.33.713.589 1.147.775.455.186.93.279 1.426.279.496 0 .961-.093 1.395-.279a3.216 3.216 0 001.147-.775c.331-.33.59-.713.775-1.147.207-.455.31-.94.31-1.457 0-.496-.103-.961-.31-1.395a3.54 3.54 0 00-.775-1.178 3.216 3.216 0 00-1.147-.775 3.504 3.504 0 00-1.395-.279 3.73 3.73 0 00-1.426.279 3.627 3.627 0 00-1.147.775 4.48 4.48 0 00-.775 1.147 3.504 3.504 0 00-.279 1.395zm-5.92-.062c0-1.178.237-2.273.712-3.286a7.902 7.902 0 011.984-2.666c.848-.765 1.85-1.364 3.007-1.798 1.178-.434 2.46-.651 3.844-.651 1.364 0 2.625.217 3.782.651 1.178.413 2.191 1.002 3.038 1.767a7.648 7.648 0 012.015 2.697c.476 1.033.713 2.18.713 3.441 0 1.26-.248 2.418-.744 3.472a8.23 8.23 0 01-1.984 2.697c-.847.744-1.87 1.323-3.069 1.736-1.178.413-2.459.62-3.844.62-1.364 0-2.624-.207-3.782-.62-1.157-.413-2.16-1.002-3.007-1.767a8.347 8.347 0 01-1.953-2.728c-.475-1.075-.713-2.263-.713-3.565zm28.678-3.131V26h-5.61V14.778h-1.86v-4.681h1.86V5.323h5.61v4.774h3.193v4.681h-3.193zm17.23.961c-.186-.785-.568-1.416-1.147-1.891-.578-.475-1.281-.713-2.108-.713-.868 0-1.58.227-2.139.682-.537.455-.878 1.095-1.023 1.922h6.417zm-6.572 3.255c0 2.418 1.137 3.627 3.41 3.627 1.22 0 2.14-.496 2.76-1.488h5.424c-1.095 3.637-3.833 5.456-8.215 5.456-1.343 0-2.573-.196-3.689-.589-1.116-.413-2.077-.992-2.883-1.736a7.769 7.769 0 01-1.829-2.666c-.434-1.033-.65-2.19-.65-3.472 0-1.323.206-2.511.62-3.565.413-1.075 1.002-1.984 1.766-2.728.765-.744 1.685-1.312 2.76-1.705 1.095-.413 2.324-.62 3.688-.62 1.344 0 2.553.207 3.627.62 1.075.393 1.984.971 2.728 1.736.744.765 1.313 1.705 1.705 2.821.393 1.095.59 2.335.59 3.72v.589H74.21zm20.227-1.023c0 .517.093 1.002.279 1.457.186.434.434.816.744 1.147.33.33.713.589 1.147.775.454.186.94.279 1.457.279.496 0 .96-.093 1.395-.279a3.217 3.217 0 001.147-.775c.33-.33.589-.713.775-1.147.206-.455.31-.93.31-1.426 0-.517-.104-.992-.31-1.426a3.639 3.639 0 00-.775-1.147 3.546 3.546 0 00-1.178-.775 3.427 3.427 0 00-1.364-.279c-.496 0-.961.103-1.395.31a3.627 3.627 0 00-1.147.775c-.331.31-.6.682-.806 1.116a3.504 3.504 0 00-.28 1.395zm12.586-7.874v14.818c0 .889-.052 1.684-.155 2.387a10.344 10.344 0 01-.434 1.86 5.57 5.57 0 01-1.178 1.891 7.38 7.38 0 01-1.891 1.55c-.744.434-1.592.775-2.542 1.023-.93.248-1.943.372-3.038.372-1.24 0-2.377-.155-3.41-.465-1.034-.31-1.943-.744-2.728-1.302a7.265 7.265 0 01-1.891-1.922 6.24 6.24 0 01-.992-2.387h6.324c.392 1.054 1.281 1.581 2.666 1.581 1.178 0 2.077-.33 2.697-.992.64-.661.961-1.581.961-2.759v-1.519a9.948 9.948 0 01-1.209.992 6.895 6.895 0 01-1.147.62 5.006 5.006 0 01-1.24.341c-.434.083-.91.124-1.426.124-1.137 0-2.18-.196-3.131-.589a7.535 7.535 0 01-2.48-1.643 7.709 7.709 0 01-1.612-2.511c-.372-.992-.558-2.087-.558-3.286 0-1.22.206-2.346.62-3.379.413-1.054.971-1.963 1.674-2.728a7.684 7.684 0 012.542-1.829 7.644 7.644 0 013.224-.682c1.88 0 3.461.703 4.743 2.108v-1.674h5.611zm15.809 5.642c-.186-.785-.568-1.416-1.147-1.891-.579-.475-1.281-.713-2.108-.713-.868 0-1.581.227-2.139.682-.537.455-.878 1.095-1.023 1.922h6.417zm-6.572 3.255c0 2.418 1.137 3.627 3.41 3.627 1.219 0 2.139-.496 2.759-1.488h5.425c-1.095 3.637-3.834 5.456-8.215 5.456-1.343 0-2.573-.196-3.689-.589-1.116-.413-2.077-.992-2.883-1.736a7.774 7.774 0 01-1.829-2.666c-.434-1.033-.651-2.19-.651-3.472 0-1.323.207-2.511.62-3.565.413-1.075 1.002-1.984 1.767-2.728.765-.744 1.684-1.312 2.759-1.705 1.095-.413 2.325-.62 3.689-.62 1.343 0 2.552.207 3.627.62 1.075.393 1.984.971 2.728 1.736.744.765 1.312 1.705 1.705 2.821.393 1.095.589 2.335.589 3.72v.589H116.26zm29.293-4.559V26h-3.406V14.435h-1.453v-3.178h1.453V5.853h3.406v5.404h2.649v3.178h-2.649zm8.37-3.178v8.461c0 2.442.964 3.663 2.891 3.663 1.928 0 2.892-1.22 2.892-3.663v-8.461h3.405v8.537c0 1.18-.146 2.2-.439 3.058-.282.767-.772 1.458-1.468 2.073-1.15 1-2.614 1.499-4.39 1.499-1.765 0-3.224-.5-4.374-1.499-.706-.615-1.206-1.306-1.499-2.073-.282-.687-.423-1.706-.423-3.058v-8.537h3.405zm23.054 0h3.42v1.362c1.191-1.18 2.533-1.77 4.027-1.77 1.715 0 3.052.539 4.011 1.619.828.918 1.241 2.417 1.241 4.495V26h-3.421v-8.234c0-1.453-.201-2.458-.605-3.013-.394-.565-1.11-.847-2.15-.847-1.13 0-1.932.373-2.406 1.12-.464.736-.697 2.023-.697 3.86V26h-3.42V11.257zm20.419 0v8.461c0 2.442.964 3.663 2.891 3.663 1.928 0 2.891-1.22 2.891-3.663v-8.461h3.406v8.537c0 1.18-.146 2.2-.439 3.058-.283.767-.772 1.458-1.468 2.073-1.151 1-2.614 1.499-4.39 1.499-1.766 0-3.224-.5-4.374-1.499-.707-.615-1.206-1.306-1.499-2.073-.282-.687-.424-1.706-.424-3.058v-8.537h3.406zm8.234-7.266l-5.509 4.995-1.862-1.15 4.162-5.51 3.209 1.665zm5.253 7.266h3.406v1.362c.655-.686 1.216-1.15 1.68-1.392.494-.253 1.115-.379 1.862-.379 1.665 0 2.981.727 3.95 2.18 1.07-1.453 2.518-2.18 4.344-2.18 3.32 0 4.98 2.013 4.98 6.04V26h-3.42v-8.189c0-1.413-.172-2.412-.515-2.997-.353-.595-.934-.893-1.741-.893-.938 0-1.624.353-2.058 1.06-.424.706-.636 1.841-.636 3.405V26h-3.421v-8.144c0-2.623-.757-3.935-2.271-3.935-.958 0-1.66.358-2.104 1.075-.433.716-.65 1.846-.65 3.39V26h-3.406V11.257zm37.948 8.174h-10.566c.091 1.21.485 2.174 1.181 2.89.696.707 1.589 1.06 2.679 1.06.848 0 1.549-.201 2.104-.605.545-.404 1.166-1.15 1.862-2.24l2.876 1.604a11.69 11.69 0 01-1.408 1.953 7.786 7.786 0 01-1.589 1.332 6.5 6.5 0 01-1.832.757 8.911 8.911 0 01-2.134.242c-2.2 0-3.966-.707-5.298-2.12-1.332-1.422-1.998-3.31-1.998-5.66 0-2.331.646-4.218 1.938-5.662 1.301-1.422 3.027-2.134 5.176-2.134 2.17 0 3.885.691 5.147 2.074 1.251 1.372 1.877 3.274 1.877 5.706l-.015.803zm-3.497-2.786c-.474-1.816-1.62-2.724-3.436-2.724a3.41 3.41 0 00-1.166.197 3.222 3.222 0 00-.999.545 3.392 3.392 0 00-.756.847 3.973 3.973 0 00-.485 1.135h6.842zm7.235-5.388h3.406v1.317c.626-.656 1.181-1.105 1.665-1.347.495-.253 1.08-.379 1.756-.379.898 0 1.837.293 2.815.878l-1.559 3.118c-.645-.464-1.276-.696-1.892-.696-1.857 0-2.785 1.403-2.785 4.208V26h-3.406V11.257zm10.626 7.266c0-2.13.762-3.941 2.286-5.435 1.524-1.493 3.38-2.24 5.57-2.24 2.2 0 4.067.752 5.601 2.255 1.514 1.504 2.27 3.35 2.27 5.54 0 2.21-.762 4.062-2.285 5.556-1.534 1.483-3.416 2.225-5.646 2.225-2.21 0-4.062-.757-5.555-2.27-1.494-1.494-2.241-3.371-2.241-5.631zm3.482.06c0 1.473.393 2.639 1.18 3.497.808.867 1.872 1.301 3.194 1.301 1.332 0 2.397-.428 3.194-1.286.797-.858 1.196-2.003 1.196-3.436 0-1.433-.399-2.579-1.196-3.436-.807-.868-1.872-1.302-3.194-1.302-1.301 0-2.356.434-3.163 1.302-.808.867-1.211 1.988-1.211 3.36zM302.975.434h3.421V26h-3.421v-1.544c-1.343 1.312-2.861 1.968-4.557 1.968-2.018 0-3.693-.737-5.025-2.21-1.322-1.504-1.983-3.38-1.983-5.631 0-2.2.661-4.036 1.983-5.51 1.312-1.483 2.962-2.225 4.95-2.225 1.725 0 3.269.707 4.632 2.12V.433zm-8.083 18.149c0 1.413.378 2.563 1.135 3.451.777.898 1.756 1.347 2.936 1.347 1.262 0 2.281-.434 3.058-1.301.777-.898 1.166-2.039 1.166-3.421 0-1.383-.389-2.523-1.166-3.421-.777-.878-1.786-1.317-3.027-1.317-1.171 0-2.15.444-2.937 1.332-.777.898-1.165 2.008-1.165 3.33zm29.229.848h-10.566c.091 1.21.485 2.174 1.181 2.89.696.707 1.589 1.06 2.679 1.06.848 0 1.549-.201 2.104-.605.545-.404 1.166-1.15 1.862-2.24l2.876 1.604a11.69 11.69 0 01-1.408 1.953 7.786 7.786 0 01-1.589 1.332 6.5 6.5 0 01-1.832.757 8.911 8.911 0 01-2.134.242c-2.2 0-3.966-.707-5.298-2.12-1.332-1.422-1.998-3.31-1.998-5.66 0-2.331.646-4.218 1.938-5.662 1.301-1.422 3.027-2.134 5.176-2.134 2.17 0 3.885.691 5.147 2.074 1.251 1.372 1.877 3.274 1.877 5.706l-.015.803zm-3.497-2.786c-.474-1.816-1.62-2.724-3.436-2.724a3.41 3.41 0 00-1.166.197 3.222 3.222 0 00-.999.545 3.411 3.411 0 00-.756.847 3.973 3.973 0 00-.485 1.135h6.842zM336.671 26l3.968-23.374h6.014l4.681 12.462 4.65-12.462h6.014L365.966 26h-6.045l-2.015-13.454L352.388 26h-2.418l-5.239-13.454L342.716 26h-6.045zm43.395-10.261c-.186-.785-.569-1.416-1.147-1.891-.579-.475-1.282-.713-2.108-.713-.868 0-1.581.227-2.139.682-.538.455-.879 1.095-1.023 1.922h6.417zm-6.572 3.255c0 2.418 1.136 3.627 3.41 3.627 1.219 0 2.139-.496 2.759-1.488h5.425c-1.096 3.637-3.834 5.456-8.215 5.456-1.344 0-2.573-.196-3.689-.589-1.116-.413-2.077-.992-2.883-1.736a7.76 7.76 0 01-1.829-2.666c-.434-1.033-.651-2.19-.651-3.472 0-1.323.206-2.511.62-3.565.413-1.075 1.002-1.984 1.767-2.728.764-.744 1.684-1.312 2.759-1.705 1.095-.413 2.325-.62 3.689-.62 1.343 0 2.552.207 3.627.62 1.074.393 1.984.971 2.728 1.736.744.765 1.312 1.705 1.705 2.821.392 1.095.589 2.335.589 3.72v.589h-11.811zm20.226-.992c0 .517.093 1.002.279 1.457.186.434.434.816.744 1.147.331.33.713.589 1.147.775.455.186.94.279 1.457.279.496 0 .961-.093 1.395-.279a3.213 3.213 0 001.147-.775c.331-.33.589-.713.775-1.147.207-.434.31-.899.31-1.395s-.103-.961-.31-1.395a3.536 3.536 0 00-.775-1.178 3.213 3.213 0 00-1.147-.775 3.504 3.504 0 00-1.395-.279c-.496 0-.971.093-1.426.279a3.63 3.63 0 00-1.147.775c-.31.33-.568.713-.775 1.147a3.286 3.286 0 00-.279 1.364zM400.788.27h5.642V26h-5.642v-1.767c-1.199 1.509-2.821 2.263-4.867 2.263-1.157 0-2.222-.217-3.193-.651a7.898 7.898 0 01-2.542-1.798 8.442 8.442 0 01-1.705-2.697c-.393-1.033-.589-2.15-.589-3.348 0-1.137.186-2.211.558-3.224a8.293 8.293 0 011.643-2.697 7.562 7.562 0 012.511-1.798c.992-.455 2.077-.682 3.255-.682 1.984 0 3.627.692 4.929 2.077V.27zm15.071 9.827V26h-5.611V10.097h5.611zm-5.983-6.107c0-.434.083-.837.248-1.209.166-.393.393-.734.682-1.023.29-.29.62-.517.992-.682a3.164 3.164 0 011.24-.248c.434 0 .837.083 1.209.248.393.165.734.393 1.023.682.29.29.517.63.682 1.023.166.372.248.775.248 1.209 0 .434-.082.847-.248 1.24a3.252 3.252 0 01-.682.992c-.289.29-.63.517-1.023.682a2.943 2.943 0 01-1.209.248c-.434 0-.847-.083-1.24-.248a3.287 3.287 0 01-1.674-1.674 3.17 3.17 0 01-.248-1.24zm21.814 11.253c-.971-.661-1.953-.992-2.945-.992-.537 0-1.043.093-1.519.279a3.662 3.662 0 00-1.209.806c-.351.33-.63.734-.837 1.209-.186.455-.279.971-.279 1.55 0 .558.093 1.075.279 1.55.207.455.476.858.806 1.209.352.33.765.589 1.24.775.476.186.982.279 1.519.279 1.054 0 2.036-.362 2.945-1.085v4.774c-1.384.6-2.697.899-3.937.899a9.424 9.424 0 01-3.317-.589 8.745 8.745 0 01-2.759-1.674 8.676 8.676 0 01-1.891-2.635c-.475-1.033-.713-2.18-.713-3.441 0-1.26.228-2.408.682-3.441a8.074 8.074 0 011.86-2.697 8.145 8.145 0 012.79-1.767 9.425 9.425 0 013.503-.651c1.364 0 2.625.29 3.782.868v4.774zm8.409 2.759c0 .517.093 1.002.279 1.457.186.434.434.816.744 1.147.33.33.713.589 1.147.775.454.186.94.279 1.457.279.496 0 .961-.093 1.395-.279a3.222 3.222 0 001.147-.775c.33-.33.589-.713.775-1.147.206-.434.31-.899.31-1.395s-.104-.961-.31-1.395a3.552 3.552 0 00-.775-1.178 3.222 3.222 0 00-1.147-.775 3.504 3.504 0 00-1.395-.279c-.517 0-1.003.093-1.457.279a3.62 3.62 0 00-1.147.775c-.31.33-.558.713-.744 1.147a3.286 3.286 0 00-.279 1.364zm7.068-7.905h5.642V26h-5.642v-1.767c-1.199 1.509-2.821 2.263-4.867 2.263-1.158 0-2.222-.207-3.193-.62a7.887 7.887 0 01-2.542-1.798 8.425 8.425 0 01-1.705-2.697c-.393-1.033-.589-2.16-.589-3.379 0-1.137.196-2.211.589-3.224a8.276 8.276 0 011.643-2.697 7.542 7.542 0 012.511-1.798c.971-.455 2.046-.682 3.224-.682 1.984 0 3.627.692 4.929 2.077v-1.581zm9.46 0h5.611v2.604c.599-.95 1.333-1.674 2.201-2.17.868-.517 1.881-.775 3.038-.775h.465c.186 0 .393.02.62.062v5.363a5.331 5.331 0 00-2.418-.558c-1.302 0-2.284.393-2.945 1.178-.641.765-.961 1.891-.961 3.379V26h-5.611V10.097zm26.247 5.642c-.186-.785-.568-1.416-1.147-1.891-.579-.475-1.281-.713-2.108-.713-.868 0-1.581.227-2.139.682-.537.455-.878 1.095-1.023 1.922h6.417zm-6.572 3.255c0 2.418 1.137 3.627 3.41 3.627 1.219 0 2.139-.496 2.759-1.488h5.425c-1.095 3.637-3.834 5.456-8.215 5.456-1.343 0-2.573-.196-3.689-.589-1.116-.413-2.077-.992-2.883-1.736a7.774 7.774 0 01-1.829-2.666c-.434-1.033-.651-2.19-.651-3.472 0-1.323.207-2.511.62-3.565.413-1.075 1.002-1.984 1.767-2.728.765-.744 1.684-1.312 2.759-1.705 1.095-.413 2.325-.62 3.689-.62 1.343 0 2.552.207 3.627.62 1.075.393 1.984.971 2.728 1.736.744.765 1.312 1.705 1.705 2.821.393 1.095.589 2.335.589 3.72v.589h-11.811zm14.739 4.03c0-.496.093-.961.279-1.395a3.552 3.552 0 011.922-1.953c.455-.186.93-.279 1.426-.279.496 0 .961.093 1.395.279a3.53 3.53 0 011.178.775c.331.33.589.723.775 1.178.186.434.279.899.279 1.395s-.093.971-.279 1.426a3.622 3.622 0 01-.775 1.147 3.53 3.53 0 01-1.178.775 3.504 3.504 0 01-1.395.279c-.496 0-.971-.093-1.426-.279a3.63 3.63 0 01-1.922-1.922 3.73 3.73 0 01-.279-1.426zm10.536 0c0-.496.093-.961.279-1.395.186-.455.444-.847.775-1.178a3.62 3.62 0 011.147-.775c.454-.186.93-.279 1.426-.279.496 0 .961.093 1.395.279.454.186.847.444 1.178.775.33.33.589.723.775 1.178.186.434.279.899.279 1.395s-.093.971-.279 1.426a3.551 3.551 0 01-1.953 1.922 3.504 3.504 0 01-1.395.279c-.496 0-.972-.093-1.426-.279a3.62 3.62 0 01-1.147-.775 3.622 3.622 0 01-.775-1.147 3.73 3.73 0 01-.279-1.426zm10.535 0c0-.496.093-.961.279-1.395.186-.455.444-.847.775-1.178a3.62 3.62 0 011.147-.775c.454-.186.93-.279 1.426-.279.496 0 .961.093 1.395.279.454.186.847.444 1.178.775.33.33.589.723.775 1.178.186.434.279.899.279 1.395s-.093.971-.279 1.426a3.551 3.551 0 01-1.953 1.922 3.504 3.504 0 01-1.395.279c-.496 0-.972-.093-1.426-.279a3.62 3.62 0 01-1.147-.775 3.622 3.622 0 01-.775-1.147 3.73 3.73 0 01-.279-1.426z" fill="#66124B"/></svg>