<svg width="313" height="70" viewBox="0 0 313 70" fill="none" xmlns="http://www.w3.org/2000/svg"><rect x="1" y="1" width="311" height="68" rx="7" fill="#FFF98F" stroke="#FFFCCD" stroke-width="2"/><path d="M30.555 40.72h1.08c.816 0 1.544-.128 2.184-.384a4.54 4.54 0 001.608-1.056 4.326 4.326 0 001.008-1.584c.24-.624.36-1.304.36-2.04 0-.72-.12-1.392-.36-2.016a4.555 4.555 0 00-1.032-1.608 4.54 4.54 0 00-1.608-1.056c-.64-.256-1.36-.384-2.16-.384h-1.08V40.72zm-4.704-14.112h6.96a8.13 8.13 0 013.456.744 9.153 9.153 0 012.832 1.992 8.907 8.907 0 011.92 2.88 8.659 8.659 0 01.696 3.432 8.773 8.773 0 01-.696 3.432 8.927 8.927 0 01-1.896 2.88 9.153 9.153 0 01-2.832 1.992c-1.072.496-2.232.744-3.48.744h-6.96V26.608zm29.883 3.984h-5.592v3.024h5.28V37.6h-5.28v3.12h5.592v3.984H45.438V26.608h10.296v3.984zm10.976 0v14.112h-4.704V30.592h-3.864v-3.984h12.432v3.984H66.71zm16.972 0H78.09v3.024h5.28V37.6h-5.28v3.12h5.592v3.984H73.386V26.608h10.296v3.984zM82.794 22l-4.608 3.168-1.824-1.704 3.912-3.744 2.52 2.28zm5 22.704V26.608h4.704l8.688 11.064V26.608h4.68v18.096h-4.68L92.498 33.64v11.064h-4.704zm36.167-18.096V40.72h5.64v3.984h-10.344V26.608h4.704zm19.379 11.376l-2.112-6.024-2.112 6.024h4.224zm1.248 3.576h-6.72l-1.08 3.144h-5.016l6.888-18.096h5.136l6.888 18.096h-5.016l-1.08-3.144zm18.811-10.32c-.512-.416-1.024-.72-1.536-.912a3.943 3.943 0 00-1.488-.312c-.608 0-1.104.144-1.488.432-.384.288-.576.664-.576 1.128 0 .32.096.584.288.792.192.208.44.392.744.552.32.144.672.272 1.056.384.4.112.792.232 1.176.36 1.536.512 2.656 1.2 3.36 2.064.72.848 1.08 1.96 1.08 3.336 0 .928-.16 1.768-.48 2.52-.304.752-.76 1.4-1.368 1.944-.592.528-1.328.936-2.208 1.224-.864.304-1.848.456-2.952.456-2.288 0-4.408-.68-6.36-2.04l2.016-3.792c.704.624 1.4 1.088 2.088 1.392.688.304 1.368.456 2.04.456.768 0 1.336-.176 1.704-.528.384-.352.576-.752.576-1.2 0-.272-.048-.504-.144-.696a1.413 1.413 0 00-.48-.552 3.51 3.51 0 00-.888-.48 24.721 24.721 0 00-1.296-.48c-.608-.192-1.208-.4-1.8-.624a6.125 6.125 0 01-1.56-.936 4.545 4.545 0 01-1.104-1.44c-.272-.592-.408-1.336-.408-2.232 0-.896.144-1.704.432-2.424.304-.736.72-1.36 1.248-1.872a5.617 5.617 0 011.968-1.224c.784-.288 1.656-.432 2.616-.432.896 0 1.832.128 2.808.384.976.24 1.912.6 2.808 1.08l-1.872 3.672zm25.471-.648h-5.592v3.024h5.28V37.6h-5.28v3.12h5.592v3.984h-10.296V26.608h10.296v3.984zm14.048.648c-.512-.416-1.024-.72-1.536-.912a3.943 3.943 0 00-1.488-.312c-.608 0-1.104.144-1.488.432-.384.288-.576.664-.576 1.128 0 .32.096.584.288.792.192.208.44.392.744.552.32.144.672.272 1.056.384.4.112.792.232 1.176.36 1.536.512 2.656 1.2 3.36 2.064.72.848 1.08 1.96 1.08 3.336 0 .928-.16 1.768-.48 2.52-.304.752-.76 1.4-1.368 1.944-.592.528-1.328.936-2.208 1.224-.864.304-1.848.456-2.952.456-2.288 0-4.408-.68-6.36-2.04l2.016-3.792c.704.624 1.4 1.088 2.088 1.392.688.304 1.368.456 2.04.456.768 0 1.336-.176 1.704-.528.384-.352.576-.752.576-1.2 0-.272-.048-.504-.144-.696a1.413 1.413 0 00-.48-.552 3.51 3.51 0 00-.888-.48 24.721 24.721 0 00-1.296-.48c-.608-.192-1.208-.4-1.8-.624a6.125 6.125 0 01-1.56-.936 4.545 4.545 0 01-1.104-1.44c-.272-.592-.408-1.336-.408-2.232 0-.896.144-1.704.432-2.424.304-.736.72-1.36 1.248-1.872a5.617 5.617 0 011.968-1.224c.784-.288 1.656-.432 2.616-.432.896 0 1.832.128 2.808.384.976.24 1.912.6 2.808 1.08l-1.872 3.672zm13.281-.648v14.112h-4.704V30.592h-3.864v-3.984h12.432v3.984h-3.864zm15.672 7.392l-2.112-6.024-2.112 6.024h4.224zm1.248 3.576h-6.72l-1.08 3.144h-5.016l6.888-18.096h5.136l6.888 18.096h-5.016l-1.08-3.144zm19.243-10.968h-5.664v3.024h5.16V37.6h-5.16v7.104h-4.704V26.608h10.368v3.984zm12.613 7.392l-2.112-6.024-2.112 6.024h4.224zm1.248 3.576h-6.72l-1.08 3.144h-5.016l6.888-18.096h5.136l6.888 18.096h-5.016l-1.08-3.144zm18.811-10.32c-.512-.416-1.024-.72-1.536-.912a3.943 3.943 0 00-1.488-.312c-.608 0-1.104.144-1.488.432-.384.288-.576.664-.576 1.128 0 .32.096.584.288.792.192.208.44.392.744.552.32.144.672.272 1.056.384.4.112.792.232 1.176.36 1.536.512 2.656 1.2 3.36 2.064.72.848 1.08 1.96 1.08 3.336 0 .928-.16 1.768-.48 2.52-.304.752-.76 1.4-1.368 1.944-.592.528-1.328.936-2.208 1.224-.864.304-1.848.456-2.952.456-2.288 0-4.408-.68-6.36-2.04l2.016-3.792c.704.624 1.4 1.088 2.088 1.392.688.304 1.368.456 2.04.456.768 0 1.336-.176 1.704-.528.384-.352.576-.752.576-1.2 0-.272-.048-.504-.144-.696a1.413 1.413 0 00-.48-.552 3.51 3.51 0 00-.888-.48 24.721 24.721 0 00-1.296-.48c-.608-.192-1.208-.4-1.8-.624a6.125 6.125 0 01-1.56-.936 4.545 4.545 0 01-1.104-1.44c-.272-.592-.408-1.336-.408-2.232 0-.896.144-1.704.432-2.424.304-.736.72-1.36 1.248-1.872a5.617 5.617 0 011.968-1.224c.784-.288 1.656-.432 2.616-.432.896 0 1.832.128 2.808.384.976.24 1.912.6 2.808 1.08l-1.872 3.672z" fill="#484240"/></svg>