<svg width="855" height="48" viewBox="0 0 855 48" fill="none" xmlns="http://www.w3.org/2000/svg"><path d="M21.249 24.96l-3.784-10.793L13.68 24.96h7.568zm2.236 6.407h-12.04L9.51 37H.523l12.34-32.422h9.203L34.406 37H25.42l-1.935-5.633zm31.927-5.332a4.86 4.86 0 00-.387-1.935 4.412 4.412 0 00-1.032-1.634 4.913 4.913 0 00-1.634-1.075 4.54 4.54 0 00-1.978-.43 4.86 4.86 0 00-1.935.387 5.03 5.03 0 00-1.59 1.075 5.986 5.986 0 00-1.076 1.634 4.86 4.86 0 00-.387 1.935c0 .688.13 1.333.387 1.935a5.031 5.031 0 001.075 1.591c.459.43.99.788 1.591 1.075.63.258 1.29.387 1.978.387a4.86 4.86 0 001.935-.387 4.551 4.551 0 001.548-1.075 5.033 5.033 0 001.075-1.591 4.35 4.35 0 00.43-1.892zm-9.804 21.973h-7.783V14.941h7.783v2.451c1.663-2.093 3.928-3.139 6.794-3.139 1.577 0 3.039.315 4.386.946a10.831 10.831 0 013.57 2.494 11.133 11.133 0 012.321 3.741c.573 1.433.86 2.967.86 4.601s-.287 3.153-.86 4.558a11.231 11.231 0 01-2.322 3.698 10.48 10.48 0 01-3.483 2.494c-1.347.602-2.81.903-4.386.903-2.752 0-5.045-.946-6.88-2.838v13.158zm22.368-33.067h7.783v3.612c.83-1.319 1.849-2.322 3.053-3.01 1.204-.717 2.608-1.075 4.214-1.075h.645c.258 0 .544.029.86.086v7.439a7.395 7.395 0 00-3.354-.774c-1.806 0-3.168.545-4.085 1.634-.89 1.06-1.333 2.623-1.333 4.687V37h-7.783V14.941zm36.407 7.826c-.258-1.09-.789-1.964-1.591-2.623-.803-.66-1.778-.989-2.924-.989-1.204 0-2.193.315-2.967.946-.745.63-1.218 1.52-1.42 2.666h8.902zm-9.116 4.515c0 3.354 1.577 5.031 4.73 5.031 1.691 0 2.967-.688 3.827-2.064h7.525c-1.52 5.045-5.318 7.568-11.395 7.568-1.863 0-3.57-.272-5.117-.817-1.548-.573-2.881-1.376-4-2.408a10.778 10.778 0 01-2.536-3.698c-.602-1.433-.903-3.039-.903-4.816 0-1.835.287-3.483.86-4.945.573-1.49 1.39-2.752 2.45-3.784 1.061-1.032 2.337-1.82 3.828-2.365 1.52-.573 3.225-.86 5.117-.86 1.863 0 3.54.287 5.031.86 1.49.545 2.752 1.347 3.784 2.408 1.032 1.06 1.82 2.365 2.365 3.913.544 1.52.817 3.24.817 5.16v.817H95.267zm20.832-12.341h7.783v2.795c1.06-1.29 2.135-2.15 3.225-2.58 1.089-.459 2.365-.688 3.827-.688 1.548 0 2.866.258 3.956.774a7.67 7.67 0 012.838 2.107 6.132 6.132 0 011.29 2.494c.229.917.344 1.964.344 3.139V37h-7.783V25.863c0-1.09-.086-1.964-.258-2.623-.144-.688-.416-1.233-.817-1.634a2.949 2.949 0 00-1.161-.731 4.326 4.326 0 00-1.376-.215c-1.319 0-2.337.401-3.053 1.204-.688.774-1.032 1.892-1.032 3.354V37h-7.783V14.941zm35.778 10.965c0 .717.129 1.39.387 2.021a5.434 5.434 0 001.032 1.591c.459.459.989.817 1.591 1.075a5.29 5.29 0 002.021.387 4.86 4.86 0 001.935-.387 4.458 4.458 0 001.591-1.075 5.026 5.026 0 001.075-1.591c.287-.602.43-1.247.43-1.935s-.143-1.333-.43-1.935a4.907 4.907 0 00-1.075-1.634 4.458 4.458 0 00-1.591-1.075 4.86 4.86 0 00-1.935-.387c-.688 0-1.347.129-1.978.387a5.035 5.035 0 00-1.591 1.075 6.22 6.22 0 00-1.075 1.591 4.557 4.557 0 00-.387 1.892zm9.804-24.596h7.826V37h-7.826v-2.451c-1.662 2.093-3.913 3.139-6.751 3.139-1.605 0-3.081-.301-4.429-.903a10.967 10.967 0 01-3.526-2.494c-1.003-1.06-1.791-2.308-2.365-3.741-.544-1.433-.817-2.981-.817-4.644 0-1.577.258-3.067.774-4.472.545-1.433 1.305-2.68 2.279-3.741a10.487 10.487 0 013.483-2.494c1.376-.63 2.881-.946 4.515-.946 2.752 0 5.031.96 6.837 2.881V1.31zm29.248 21.457c-.258-1.09-.789-1.964-1.591-2.623-.803-.66-1.778-.989-2.924-.989-1.204 0-2.193.315-2.967.946-.746.63-1.219 1.52-1.419 2.666h8.901zm-9.116 4.515c0 3.354 1.576 5.031 4.73 5.031 1.691 0 2.967-.688 3.827-2.064h7.525c-1.52 5.045-5.318 7.568-11.395 7.568-1.864 0-3.569-.272-5.117-.817-1.548-.573-2.881-1.376-3.999-2.408a10.768 10.768 0 01-2.537-3.698c-.602-1.433-.903-3.039-.903-4.816 0-1.835.286-3.483.86-4.945.573-1.49 1.39-2.752 2.451-3.784 1.06-1.032 2.336-1.82 3.827-2.365 1.519-.573 3.225-.86 5.117-.86 1.863 0 3.54.287 5.031.86 1.49.545 2.752 1.347 3.784 2.408 1.032 1.06 1.82 2.365 2.365 3.913.544 1.52.817 3.24.817 5.16v.817h-16.383zm50.065-6.665c-1.434-.745-2.838-1.118-4.214-1.118-.717 0-1.305.143-1.763.43-.43.287-.645.674-.645 1.161 0 .258.028.473.086.645.086.143.243.287.473.43.258.143.616.272 1.075.387.487.115 1.118.258 1.892.43 2.15.43 3.755 1.204 4.816 2.322 1.06 1.09 1.591 2.494 1.591 4.214 0 1.29-.258 2.451-.774 3.483a7.614 7.614 0 01-2.15 2.623c-.918.688-2.021 1.218-3.311 1.591-1.29.401-2.709.602-4.257.602-2.982 0-5.92-.846-8.815-2.537l2.838-5.504c2.178 1.49 4.242 2.236 6.192 2.236.716 0 1.304-.158 1.763-.473.458-.315.688-.717.688-1.204 0-.287-.043-.516-.129-.688-.058-.2-.201-.373-.43-.516-.23-.172-.574-.315-1.032-.43a14.91 14.91 0 00-1.72-.43c-2.408-.487-4.1-1.204-5.074-2.15-.946-.975-1.419-2.308-1.419-3.999 0-1.233.229-2.336.688-3.311a6.848 6.848 0 011.978-2.537c.86-.688 1.892-1.218 3.096-1.591 1.232-.373 2.594-.559 4.085-.559 2.436 0 4.801.473 7.095 1.419l-2.623 5.074zm14.611 5.246a5.4 5.4 0 00.387 2.064 6.195 6.195 0 001.075 1.591c.458.459.989.817 1.591 1.075.63.258 1.29.387 1.978.387a4.86 4.86 0 001.935-.387 4.467 4.467 0 001.591-1.075 5.043 5.043 0 001.075-1.591c.286-.63.43-1.304.43-2.021 0-.688-.144-1.333-.43-1.935a4.923 4.923 0 00-1.075-1.634 4.467 4.467 0 00-1.591-1.075 4.86 4.86 0 00-1.935-.387c-.688 0-1.348.129-1.978.387a5.024 5.024 0 00-1.591 1.075c-.43.459-.789.989-1.075 1.591a4.86 4.86 0 00-.387 1.935zm-8.213-.086c0-1.634.329-3.153.989-4.558a10.947 10.947 0 012.752-3.698c1.175-1.06 2.565-1.892 4.171-2.494 1.634-.602 3.411-.903 5.332-.903 1.892 0 3.64.301 5.246.903 1.634.573 3.038 1.39 4.214 2.451a10.617 10.617 0 012.795 3.741c.659 1.433.989 3.024.989 4.773 0 1.749-.344 3.354-1.032 4.816a11.43 11.43 0 01-2.752 3.741c-1.176 1.032-2.595 1.835-4.257 2.408-1.634.573-3.412.86-5.332.86-1.892 0-3.641-.287-5.246-.86-1.606-.573-2.996-1.39-4.171-2.451a11.57 11.57 0 01-2.709-3.784c-.66-1.49-.989-3.139-.989-4.945zm48.555.258a4.86 4.86 0 00-.387-1.935 4.907 4.907 0 00-1.075-1.634 5.035 5.035 0 00-1.591-1.075 4.54 4.54 0 00-1.978-.43 4.86 4.86 0 00-1.935.387 5.035 5.035 0 00-1.591 1.075 5.995 5.995 0 00-1.075 1.634 4.86 4.86 0 00-.387 1.935c0 .688.129 1.333.387 1.935a5.026 5.026 0 001.075 1.591c.459.43.989.788 1.591 1.075.631.258 1.29.387 1.978.387a4.86 4.86 0 001.935-.387 4.551 4.551 0 001.548-1.075 5.026 5.026 0 001.075-1.591c.287-.602.43-1.233.43-1.892zM277.027 1.31v15.824c1.835-1.92 4.128-2.881 6.88-2.881 1.634 0 3.125.315 4.472.946 1.376.602 2.537 1.433 3.483 2.494.975 1.032 1.734 2.265 2.279 3.698.545 1.405.817 2.91.817 4.515 0 1.634-.287 3.168-.86 4.601a11.143 11.143 0 01-2.322 3.741 11.386 11.386 0 01-3.569 2.537c-1.347.602-2.809.903-4.386.903-2.867 0-5.131-1.046-6.794-3.139V37h-7.783V1.31h7.783zm22.368 13.631h7.783v3.612c.831-1.319 1.849-2.322 3.053-3.01 1.204-.717 2.608-1.075 4.214-1.075h.645c.258 0 .544.029.86.086v7.439a7.395 7.395 0 00-3.354-.774c-1.806 0-3.168.545-4.085 1.634-.889 1.06-1.333 2.623-1.333 4.687V37h-7.783V14.941zm36.407 7.826c-.258-1.09-.789-1.964-1.591-2.623-.803-.66-1.778-.989-2.924-.989-1.204 0-2.193.315-2.967.946-.746.63-1.219 1.52-1.419 2.666h8.901zm-9.116 4.515c0 3.354 1.576 5.031 4.73 5.031 1.691 0 2.967-.688 3.827-2.064h7.525c-1.52 5.045-5.318 7.568-11.395 7.568-1.864 0-3.569-.272-5.117-.817-1.548-.573-2.881-1.376-3.999-2.408a10.768 10.768 0 01-2.537-3.698c-.602-1.433-.903-3.039-.903-4.816 0-1.835.286-3.483.86-4.945.573-1.49 1.39-2.752 2.451-3.784 1.06-1.032 2.336-1.82 3.827-2.365 1.519-.573 3.225-.86 5.117-.86 1.863 0 3.54.287 5.031.86 1.49.545 2.752 1.347 3.784 2.408 1.032 1.06 1.82 2.365 2.365 3.913.544 1.52.817 3.24.817 5.16v.817h-16.383zm51.57-4.515c-.258-1.09-.788-1.964-1.591-2.623-.803-.66-1.777-.989-2.924-.989-1.204 0-2.193.315-2.967.946-.745.63-1.218 1.52-1.419 2.666h8.901zm-9.116 4.515c0 3.354 1.577 5.031 4.73 5.031 1.691 0 2.967-.688 3.827-2.064h7.525c-1.519 5.045-5.318 7.568-11.395 7.568-1.863 0-3.569-.272-5.117-.817-1.548-.573-2.881-1.376-3.999-2.408a10.782 10.782 0 01-2.537-3.698c-.602-1.433-.903-3.039-.903-4.816 0-1.835.287-3.483.86-4.945.573-1.49 1.39-2.752 2.451-3.784 1.061-1.032 2.336-1.82 3.827-2.365 1.519-.573 3.225-.86 5.117-.86 1.863 0 3.54.287 5.031.86 1.491.545 2.752 1.347 3.784 2.408 1.032 1.06 1.82 2.365 2.365 3.913.545 1.52.817 3.24.817 5.16v.817H369.14zM397.755 1.31V37h-7.783V1.31h7.783zm28.36 20.124V37h-7.783V21.434h-2.795v-6.493h2.795V11.63c0-1.835.172-3.297.516-4.386a7.54 7.54 0 011.376-2.537 9.954 9.954 0 012.193-2.064 11.092 11.092 0 012.752-1.333 9.32 9.32 0 012.881-.473c.659 0 1.261.072 1.806.215.573.143 1.146.344 1.72.602v6.794a7.219 7.219 0 00-1.462-.559 4.325 4.325 0 00-1.376-.215c-.316 0-.645.057-.989.172-.316.086-.617.287-.903.602-.287.315-.488.774-.602 1.376-.086.573-.129 1.362-.129 2.365v2.752h5.461v6.493h-5.461zm8.368-6.493h7.783v3.612c.832-1.319 1.849-2.322 3.053-3.01 1.204-.717 2.609-1.075 4.214-1.075h.645c.258 0 .545.029.86.086v7.439a7.395 7.395 0 00-3.354-.774c-1.806 0-3.167.545-4.085 1.634-.888 1.06-1.333 2.623-1.333 4.687V37h-7.783V14.941zm27.507 10.965c0 .717.129 1.39.387 2.021a5.434 5.434 0 001.032 1.591c.458.459.989.817 1.591 1.075.63.258 1.304.387 2.021.387a4.86 4.86 0 001.935-.387 4.467 4.467 0 001.591-1.075 5.043 5.043 0 001.075-1.591c.286-.602.43-1.247.43-1.935s-.144-1.333-.43-1.935a4.923 4.923 0 00-1.075-1.634 4.467 4.467 0 00-1.591-1.075 4.86 4.86 0 00-1.935-.387c-.717 0-1.391.129-2.021.387a5.024 5.024 0 00-1.591 1.075c-.43.459-.774.989-1.032 1.591a4.557 4.557 0 00-.387 1.892zm9.804-10.965h7.826V37h-7.826v-2.451c-1.663 2.093-3.913 3.139-6.751 3.139-1.606 0-3.082-.287-4.429-.86a10.945 10.945 0 01-3.526-2.494c-1.004-1.06-1.792-2.308-2.365-3.741-.545-1.433-.817-2.996-.817-4.687 0-1.577.272-3.067.817-4.472.544-1.433 1.304-2.68 2.279-3.741a10.466 10.466 0 013.483-2.494c1.347-.63 2.838-.946 4.472-.946 2.752 0 5.031.96 6.837 2.881v-2.193zm20.905 0v12.427c0 2.723 1.319 4.085 3.956 4.085s3.956-1.362 3.956-4.085V14.941h7.783v13.932c0 2.981-.989 5.217-2.967 6.708-1.949 1.49-4.873 2.236-8.772 2.236s-6.837-.745-8.815-2.236c-1.949-1.49-2.924-3.727-2.924-6.708V14.941h7.783zm28.206 10.965c0 .717.129 1.39.387 2.021a5.434 5.434 0 001.032 1.591c.458.459.989.817 1.591 1.075.63.258 1.304.387 2.021.387a4.86 4.86 0 001.935-.387 4.467 4.467 0 001.591-1.075 5.043 5.043 0 001.075-1.591c.286-.602.43-1.247.43-1.935s-.144-1.333-.43-1.935a4.923 4.923 0 00-1.075-1.634 4.467 4.467 0 00-1.591-1.075 4.86 4.86 0 00-1.935-.387c-.688 0-1.348.129-1.978.387a5.024 5.024 0 00-1.591 1.075c-.43.459-.789.989-1.075 1.591a4.557 4.557 0 00-.387 1.892zm9.804-24.596h7.826V37h-7.826v-2.451c-1.663 2.093-3.913 3.139-6.751 3.139-1.606 0-3.082-.301-4.429-.903a10.945 10.945 0 01-3.526-2.494c-1.004-1.06-1.792-2.308-2.365-3.741-.545-1.433-.817-2.981-.817-4.644 0-1.577.258-3.067.774-4.472.544-1.433 1.304-2.68 2.279-3.741a10.466 10.466 0 013.483-2.494c1.376-.63 2.881-.946 4.515-.946 2.752 0 5.031.96 6.837 2.881V1.31zm29.247 21.457c-.258-1.09-.788-1.964-1.591-2.623-.803-.66-1.777-.989-2.924-.989-1.204 0-2.193.315-2.967.946-.745.63-1.218 1.52-1.419 2.666h8.901zm-9.116 4.515c0 3.354 1.577 5.031 4.73 5.031 1.691 0 2.967-.688 3.827-2.064h7.525c-1.519 5.045-5.318 7.568-11.395 7.568-1.863 0-3.569-.272-5.117-.817-1.548-.573-2.881-1.376-3.999-2.408a10.782 10.782 0 01-2.537-3.698c-.602-1.433-.903-3.039-.903-4.816 0-1.835.287-3.483.86-4.945.573-1.49 1.39-2.752 2.451-3.784 1.061-1.032 2.336-1.82 3.827-2.365 1.519-.573 3.225-.86 5.117-.86 1.863 0 3.54.287 5.031.86 1.491.545 2.752 1.347 3.784 2.408 1.032 1.06 1.82 2.365 2.365 3.913.545 1.52.817 3.24.817 5.16v.817H550.84zm42.669-1.376c0 .717.129 1.39.387 2.021a5.434 5.434 0 001.032 1.591c.459.459.989.817 1.591 1.075a5.285 5.285 0 002.021.387 4.86 4.86 0 001.935-.387 4.458 4.458 0 001.591-1.075 5.026 5.026 0 001.075-1.591c.287-.602.43-1.247.43-1.935s-.143-1.333-.43-1.935a4.907 4.907 0 00-1.075-1.634 4.458 4.458 0 00-1.591-1.075 4.86 4.86 0 00-1.935-.387c-.717 0-1.39.129-2.021.387a5.035 5.035 0 00-1.591 1.075c-.43.459-.774.989-1.032 1.591a4.557 4.557 0 00-.387 1.892zm9.804-10.965h7.826V37h-7.826v-2.451c-1.663 2.093-3.913 3.139-6.751 3.139-1.605 0-3.082-.287-4.429-.86a10.956 10.956 0 01-3.526-2.494c-1.003-1.06-1.792-2.308-2.365-3.741-.545-1.433-.817-2.996-.817-4.687 0-1.577.272-3.067.817-4.472.545-1.433 1.304-2.68 2.279-3.741a10.487 10.487 0 013.483-2.494c1.347-.63 2.838-.946 4.472-.946 2.752 0 5.031.96 6.837 2.881v-2.193zM630.318 37l5.504-32.422h8.342l6.493 17.286 6.45-17.286h8.342L670.953 37h-8.385l-2.795-18.662L652.119 37h-3.354l-7.267-18.662L638.703 37h-8.385zm60.192-14.233c-.258-1.09-.789-1.964-1.591-2.623-.803-.66-1.778-.989-2.924-.989-1.204 0-2.193.315-2.967.946-.746.63-1.219 1.52-1.419 2.666h8.901zm-9.116 4.515c0 3.354 1.576 5.031 4.73 5.031 1.691 0 2.967-.688 3.827-2.064h7.525c-1.52 5.045-5.318 7.568-11.395 7.568-1.864 0-3.569-.272-5.117-.817-1.548-.573-2.881-1.376-3.999-2.408a10.768 10.768 0 01-2.537-3.698c-.602-1.433-.903-3.039-.903-4.816 0-1.835.286-3.483.86-4.945.573-1.49 1.39-2.752 2.451-3.784 1.06-1.032 2.336-1.82 3.827-2.365 1.519-.573 3.225-.86 5.117-.86 1.863 0 3.54.287 5.031.86 1.49.545 2.752 1.347 3.784 2.408 1.032 1.06 1.82 2.365 2.365 3.913.544 1.52.817 3.24.817 5.16v.817h-16.383zm28.056-1.376c0 .717.129 1.39.387 2.021a5.434 5.434 0 001.032 1.591c.458.459.989.817 1.591 1.075.63.258 1.304.387 2.021.387a4.86 4.86 0 001.935-.387 4.467 4.467 0 001.591-1.075 5.043 5.043 0 001.075-1.591c.286-.602.43-1.247.43-1.935s-.144-1.333-.43-1.935a4.923 4.923 0 00-1.075-1.634 4.467 4.467 0 00-1.591-1.075 4.86 4.86 0 00-1.935-.387c-.688 0-1.348.129-1.978.387a5.024 5.024 0 00-1.591 1.075c-.43.459-.789.989-1.075 1.591a4.557 4.557 0 00-.387 1.892zm9.804-24.596h7.826V37h-7.826v-2.451c-1.663 2.093-3.913 3.139-6.751 3.139-1.606 0-3.082-.301-4.429-.903a10.945 10.945 0 01-3.526-2.494c-1.004-1.06-1.792-2.308-2.365-3.741-.545-1.433-.817-2.981-.817-4.644 0-1.577.258-3.067.774-4.472.544-1.433 1.304-2.68 2.279-3.741a10.466 10.466 0 013.483-2.494c1.376-.63 2.881-.946 4.515-.946 2.752 0 5.031.96 6.837 2.881V1.31zm20.905 13.631V37h-7.783V14.941h7.783zM731.86 6.47c0-.602.115-1.161.344-1.677a4.396 4.396 0 01.946-1.419c.401-.401.86-.717 1.376-.946a4.389 4.389 0 011.72-.344c.602 0 1.161.115 1.677.344.545.23 1.018.545 1.419.946.401.401.717.874.946 1.419.229.516.344 1.075.344 1.677 0 .602-.115 1.175-.344 1.72a4.535 4.535 0 01-.946 1.376 4.389 4.389 0 01-1.419.946 4.083 4.083 0 01-1.677.344 4.39 4.39 0 01-1.72-.344 4.53 4.53 0 01-1.376-.946 4.535 4.535 0 01-.946-1.376 4.394 4.394 0 01-.344-1.72zm30.259 15.609c-1.348-.917-2.709-1.376-4.085-1.376-.746 0-1.448.129-2.107.387-.631.258-1.19.63-1.677 1.118a4.999 4.999 0 00-1.161 1.677c-.258.63-.387 1.347-.387 2.15 0 .774.129 1.49.387 2.15a6.1 6.1 0 001.118 1.677c.487.459 1.06.817 1.72 1.075a5.726 5.726 0 002.107.387c1.462 0 2.823-.502 4.085-1.505v6.622c-1.921.831-3.741 1.247-5.461 1.247-1.606 0-3.139-.272-4.601-.817a12.117 12.117 0 01-3.827-2.322 11.994 11.994 0 01-2.623-3.655c-.66-1.433-.989-3.024-.989-4.773 0-1.749.315-3.34.946-4.773.63-1.462 1.49-2.709 2.58-3.741 1.089-1.06 2.379-1.878 3.87-2.451 1.519-.602 3.139-.903 4.859-.903 1.892 0 3.64.401 5.246 1.204v6.622zm11.663 3.827c0 .717.129 1.39.387 2.021a5.434 5.434 0 001.032 1.591c.458.459.989.817 1.591 1.075.63.258 1.304.387 2.021.387a4.86 4.86 0 001.935-.387 4.467 4.467 0 001.591-1.075 5.043 5.043 0 001.075-1.591c.286-.602.43-1.247.43-1.935s-.144-1.333-.43-1.935a4.923 4.923 0 00-1.075-1.634 4.467 4.467 0 00-1.591-1.075 4.86 4.86 0 00-1.935-.387c-.717 0-1.391.129-2.021.387a5.024 5.024 0 00-1.591 1.075c-.43.459-.774.989-1.032 1.591a4.557 4.557 0 00-.387 1.892zm9.804-10.965h7.826V37h-7.826v-2.451c-1.663 2.093-3.913 3.139-6.751 3.139-1.606 0-3.082-.287-4.429-.86a10.945 10.945 0 01-3.526-2.494c-1.004-1.06-1.792-2.308-2.365-3.741-.545-1.433-.817-2.996-.817-4.687 0-1.577.272-3.067.817-4.472.544-1.433 1.304-2.68 2.279-3.741a10.466 10.466 0 013.483-2.494c1.347-.63 2.838-.946 4.472-.946 2.752 0 5.031.96 6.837 2.881v-2.193zm13.122 0h7.783v3.612c.831-1.319 1.849-2.322 3.053-3.01 1.204-.717 2.609-1.075 4.214-1.075h.645c.258 0 .545.029.86.086v7.439a7.395 7.395 0 00-3.354-.774c-1.806 0-3.168.545-4.085 1.634-.889 1.06-1.333 2.623-1.333 4.687V37h-7.783V14.941zm36.407 7.826c-.258-1.09-.788-1.964-1.591-2.623-.802-.66-1.777-.989-2.924-.989-1.204 0-2.193.315-2.967.946-.745.63-1.218 1.52-1.419 2.666h8.901zm-9.116 4.515c0 3.354 1.577 5.031 4.73 5.031 1.692 0 2.967-.688 3.827-2.064h7.525c-1.519 5.045-5.317 7.568-11.395 7.568-1.863 0-3.569-.272-5.117-.817-1.548-.573-2.881-1.376-3.999-2.408a10.782 10.782 0 01-2.537-3.698c-.602-1.433-.903-3.039-.903-4.816 0-1.835.287-3.483.86-4.945.574-1.49 1.391-2.752 2.451-3.784 1.061-1.032 2.337-1.82 3.827-2.365 1.52-.573 3.225-.86 5.117-.86 1.864 0 3.541.287 5.031.86 1.491.545 2.752 1.347 3.784 2.408 1.032 1.06 1.821 2.365 2.365 3.913.545 1.52.817 3.24.817 5.16v.817h-16.383zm20.445 5.59c0-.688.129-1.333.387-1.935a4.907 4.907 0 011.075-1.634 5.035 5.035 0 011.591-1.075 5.176 5.176 0 011.978-.387 4.86 4.86 0 011.935.387 4.912 4.912 0 011.634 1.075 4.907 4.907 0 011.075 1.634 4.86 4.86 0 01.387 1.935c0 .688-.129 1.347-.387 1.978a5.026 5.026 0 01-1.075 1.591 4.912 4.912 0 01-1.634 1.075 4.86 4.86 0 01-1.935.387 5.176 5.176 0 01-1.978-.387 5.035 5.035 0 01-1.591-1.075 5.026 5.026 0 01-1.075-1.591 5.175 5.175 0 01-.387-1.978z" fill="#fff"/></svg>