<svg width="446" height="39" viewBox="0 0 446 39" fill="none" xmlns="http://www.w3.org/2000/svg"><path d="M22.445 21.291H5.19c.251 1.537.915 2.761 1.996 3.666 1.08.909 2.462 1.361 4.141 1.361 2.008 0 3.733-.71 5.176-2.125l4.524 2.145c-1.127 1.618-2.478 2.812-4.053 3.588-1.575.776-3.443 1.162-5.604 1.162-3.358 0-6.09-1.069-8.202-3.21C1.058 25.738 0 23.058 0 19.837c0-3.222 1.054-6.042 3.157-8.222 2.104-2.18 4.744-3.268 7.92-3.268 3.37 0 6.11 1.092 8.222 3.268 2.111 2.18 3.169 5.059 3.169 8.639l-.02 1.033-.003.004zm-5.37-4.274c-.354-1.205-1.053-2.188-2.1-2.94-1.045-.757-2.253-1.136-3.635-1.136-1.498 0-2.81.425-3.94 1.272-.711.53-1.367 1.462-1.973 2.804h11.649zM39.189 11.927l-3.324 3.358c-1.35-1.353-2.578-2.028-3.678-2.028-.602 0-1.077.129-1.416.386-.344.257-.51.581-.51.963 0 .293.108.562.324.804.216.245.75.58 1.602 1.002l1.969.995c2.072 1.033 3.497 2.086 4.269 3.159.772 1.072 1.161 2.332 1.161 3.775 0 1.922-.698 3.525-2.096 4.808-1.397 1.287-3.269 1.927-5.616 1.927-3.122 0-5.612-1.232-7.476-3.697l3.304-3.639a7.648 7.648 0 002.212 1.798c.845.456 1.598.686 2.254.686.71 0 1.278-.171 1.71-.514.432-.344.648-.741.648-1.194 0-.834-.78-1.65-2.339-2.445l-1.81-.913c-3.462-1.763-5.191-3.97-5.191-6.618 0-1.708.652-3.17 1.956-4.383 1.305-1.213 2.976-1.818 5.007-1.818a8.63 8.63 0 013.925.924c1.227.617 2.266 1.502 3.119 2.652l-.004.012zM44.809 24.866c.853 0 1.583.3 2.185.904.602.605.903 1.334.903 2.196 0 .862-.301 1.6-.903 2.208a2.963 2.963 0 01-2.185.912 2.969 2.969 0 01-2.185-.912 3.025 3.025 0 01-.903-2.208c0-.862.301-1.595.903-2.196a2.97 2.97 0 012.185-.904zM56.546 1.295h5.365l6.712 20.397 6.77-20.397h5.365l4.86 29.242h-5.323L77.192 12.07l-6.153 18.466h-4.86L60.09 12.07l-3.176 18.466h-5.377l5.01-29.242zM110.651 21.295H93.398c.247 1.54.915 2.761 1.996 3.67 1.08.905 2.462 1.361 4.145 1.361 2.007 0 3.733-.71 5.176-2.13l4.528 2.15c-1.127 1.614-2.478 2.815-4.057 3.591-1.575.776-3.443 1.163-5.608 1.163-3.358 0-6.09-1.069-8.206-3.21-2.111-2.141-3.169-4.82-3.169-8.038 0-3.217 1.05-6.04 3.157-8.217 2.108-2.176 4.748-3.268 7.92-3.268 3.37 0 6.111 1.092 8.222 3.268 2.111 2.184 3.169 5.058 3.169 8.634l-.02 1.034h-.007l.007-.008zm-5.372-4.274c-.355-1.205-1.058-2.188-2.1-2.94-1.046-.757-2.254-1.136-3.636-1.136-1.498 0-2.81.425-3.945 1.272-.71.53-1.37 1.466-1.972 2.804h11.653zM130.317.555h5.373v29.976h-5.373v-2.286c-1.05 1.006-2.1 1.736-3.153 2.177-1.05.44-2.197.666-3.432.666-2.763 0-5.152-1.084-7.171-3.248-2.019-2.165-3.03-4.86-3.03-8.081 0-3.221.973-6.076 2.93-8.213 1.953-2.134 4.319-3.202 7.113-3.202 1.285 0 2.49.245 3.617.733 1.127.487 2.165 1.228 3.122 2.207V.555h.004zm-5.651 12.804c-1.659 0-3.041.589-4.137 1.778-1.096 1.186-1.648 2.707-1.648 4.563 0 1.857.559 3.405 1.675 4.61 1.115 1.205 2.489 1.806 4.126 1.806 1.636 0 3.088-.589 4.195-1.779 1.112-1.185 1.664-2.737 1.664-4.664 0-1.926-.556-3.405-1.664-4.575-1.111-1.162-2.512-1.747-4.215-1.747v.008h.004zM143.286 0c.938 0 1.748.347 2.42 1.033.671.69 1.011 1.525 1.011 2.504 0 .98-.336 1.794-1.003 2.477-.668.678-1.463 1.025-2.39 1.025a3.312 3.312 0 01-2.443-1.045c-.672-.698-1.011-1.54-1.011-2.535 0-.994.332-1.77.996-2.445.667-.675 1.47-1.014 2.412-1.014h.008zm-2.687 8.904h5.373v21.625h-5.373V8.904zM171.644 13.283l-4.469 2.489c-.838-.89-1.672-1.502-2.49-1.85-.822-.346-1.783-.518-2.887-.518-2.007 0-3.636.6-4.875 1.814-1.239 1.209-1.86 2.76-1.86 4.652 0 1.892.594 3.339 1.795 4.509 1.192 1.162 2.763 1.747 4.709 1.747 2.4 0 4.272-.83 5.612-2.488l4.23 2.929c-2.297 3.018-5.535 4.527-9.723 4.527-3.767 0-6.712-1.127-8.843-3.38-2.13-2.255-3.199-4.891-3.199-7.914 0-2.094.521-4.02 1.551-5.784 1.039-1.758 2.486-3.147 4.339-4.157 1.852-1.006 3.933-1.51 6.226-1.51 2.126 0 4.033.43 5.724 1.284a10.84 10.84 0 014.149 3.65v.008l.011-.008zM190.309 8.903h5.373v21.625h-5.373v-2.285c-1.049 1.006-2.099 1.735-3.153 2.176-1.05.44-2.196.667-3.431.667-2.764 0-5.153-1.084-7.172-3.249-2.018-2.164-3.03-4.86-3.03-8.08 0-3.222.973-6.077 2.93-8.214 1.953-2.133 4.319-3.202 7.113-3.202 1.286 0 2.49.246 3.617.734 1.127.487 2.165 1.228 3.123 2.207V8.895v.008h.003zm-5.65 4.454c-1.66 0-3.042.589-4.138 1.778-1.096 1.186-1.648 2.707-1.648 4.563 0 1.856.56 3.405 1.675 4.61 1.116 1.205 2.49 1.805 4.126 1.805 1.637 0 3.088-.588 4.196-1.778 1.111-1.186 1.663-2.738 1.663-4.664 0-1.927-.555-3.405-1.663-4.575-1.112-1.162-2.513-1.747-4.215-1.747v.008h.004zM200.24 8.904h4.604v2.726c.494-1.073 1.162-1.892 1.988-2.446a4.772 4.772 0 012.713-.834c.695 0 1.425.183 2.185.554l-1.671 4.668c-.633-.316-1.147-.476-1.552-.476-.826 0-1.524.519-2.096 1.552-.571 1.034-.857 3.062-.857 6.084l.02 1.057v8.748h-5.331V8.904h-.007.004zM234.72 21.295h-17.254c.247 1.54.915 2.761 1.996 3.67 1.081.905 2.462 1.361 4.145 1.361 2.007 0 3.733-.71 5.176-2.13l4.528 2.15c-1.127 1.614-2.478 2.815-4.057 3.591-1.575.776-3.443 1.163-5.608 1.163-3.358 0-6.091-1.069-8.206-3.21-2.111-2.141-3.169-4.82-3.169-8.038 0-3.217 1.05-6.04 3.157-8.217 2.108-2.176 4.748-3.268 7.921-3.268 3.369 0 6.11 1.092 8.221 3.268 2.111 2.184 3.169 5.058 3.169 8.634l-.019 1.034h-.008l.008-.008zm-5.373-4.274c-.355-1.205-1.058-2.188-2.1-2.94-1.042-.753-2.254-1.136-3.636-1.136-1.497 0-2.81.425-3.945 1.272-.71.53-1.37 1.466-1.972 2.804h11.653zM240.254 24.87c.85 0 1.583.304 2.185.904.602.601.903 1.338.903 2.196 0 .858-.301 1.6-.903 2.207a2.968 2.968 0 01-2.185.913 2.967 2.967 0 01-2.184-.913 3.019 3.019 0 01-.903-2.207c0-.866.301-1.591.903-2.196a2.99 2.99 0 012.184-.904zM263.04 8.904h5.353v18.525c0 3.654-.726 6.345-2.185 8.069C264.255 37.83 261.31 39 257.373 39c-2.099 0-3.859-.261-5.295-.792-1.428-.53-2.64-1.306-3.617-2.336-.984-1.026-1.71-2.277-2.184-3.744h5.921c.524.609 1.196 1.069 2.026 1.385.826.312 1.806.464 2.933.464 1.44 0 2.602-.226 3.482-.675.88-.452 1.497-1.033 1.86-1.747.359-.718.544-1.95.544-3.697-.945.955-1.937 1.642-2.968 2.059-1.038.417-2.208.628-3.524.628-2.875 0-5.299-1.045-7.279-3.144-1.976-2.094-2.968-4.742-2.968-7.952 0-3.428 1.049-6.189 3.145-8.271 1.899-1.88 4.173-2.82 6.805-2.82 1.235 0 2.397.226 3.493.686 1.096.46 2.196 1.21 3.293 2.255V8.904zm-5.566 4.516c-1.695 0-3.088.573-4.192 1.716-1.104 1.147-1.652 2.59-1.652 4.325 0 1.736.568 3.28 1.695 4.43 1.127 1.151 2.543 1.728 4.249 1.728 1.706 0 3.042-.561 4.119-1.689 1.08-1.127 1.625-2.605 1.625-4.43 0-1.825-.545-3.268-1.637-4.395-1.085-1.127-2.49-1.689-4.207-1.689v.004zM283.543 8.351c2.018 0 3.917.515 5.697 1.533 1.775 1.022 3.165 2.402 4.16 4.157a11.258 11.258 0 011.494 5.667c0 2.028-.502 3.947-1.505 5.725-1.004 1.778-2.374 3.167-4.103 4.161-1.729 1.002-3.644 1.502-5.724 1.502-3.069 0-5.689-1.104-7.862-3.311-2.174-2.208-3.258-4.883-3.258-8.038 0-3.381 1.227-6.197 3.678-8.451 2.15-1.962 4.62-2.941 7.419-2.941l.007-.008-.003.004zm.088 5.113c-1.671 0-3.057.585-4.168 1.759-1.112 1.174-1.664 2.671-1.664 4.504 0 1.833.548 3.405 1.648 4.575 1.097 1.17 2.486 1.747 4.169 1.747 1.683 0 3.08-.589 4.195-1.77 1.116-1.182 1.676-2.695 1.676-4.552 0-1.856-.548-3.365-1.648-4.52-1.097-1.158-2.498-1.743-4.208-1.743zM295.433 8.904h5.473l5.408 12.765 5.396-12.765h5.442l-9.109 21.626h-3.481l-9.133-21.626h.008-.004zM318.01 35.77L331.075.276h3.864L321.85 35.77h-3.84zM340.544 1.116h16.025v5.46h-10.525v5.34h6.839v5.378h-6.839V30.53h-5.5V1.113v.003zM359.394 8.776h4.632v2.738c.502-1.08 1.17-1.9 2-2.461a4.765 4.765 0 012.732-.839c.699 0 1.432.187 2.196.562l-1.682 4.7c-.633-.32-1.155-.48-1.564-.48-.829 0-1.532.518-2.107 1.56-.575 1.04-.861 3.08-.861 6.118l.019 1.061v8.799h-5.361V8.776h-.004zM389.516 8.776h5.404v21.758h-5.404v-2.301c-1.053 1.014-2.111 1.743-3.172 2.188-1.062.448-2.212.67-3.451.67-2.779 0-5.188-1.088-7.214-3.268-2.03-2.18-3.045-4.89-3.045-8.127 0-3.237.98-6.112 2.945-8.26 1.964-2.145 4.35-3.222 7.156-3.222 1.293 0 2.505.246 3.636.741 1.134.495 2.18 1.232 3.141 2.22v-2.4h.004zm-5.677 4.48c-1.672 0-3.057.598-4.161 1.79-1.104 1.194-1.656 2.723-1.656 4.591 0 1.868.563 3.428 1.687 4.641 1.123 1.213 2.508 1.821 4.153 1.821 1.644 0 3.103-.596 4.222-1.79 1.12-1.193 1.675-2.757 1.675-4.688 0-1.93-.559-3.424-1.675-4.597-1.119-1.174-2.532-1.76-4.242-1.76l-.003-.007zM400.362 8.773h5.461v10.48c0 2.04.139 3.455.417 4.25.278.792.726 1.412 1.34 1.849.613.437 1.37.659 2.273.659s1.664-.218 2.293-.651c.629-.433 1.096-1.069 1.397-1.911.224-.628.336-1.966.336-4.021V8.769h5.403v9.22c0 3.798-.297 6.4-.891 7.8-.726 1.708-1.795 3.014-3.208 3.93-1.412.913-3.207 1.37-5.384 1.37-2.362 0-4.273-.534-5.728-1.6-1.459-1.064-2.482-2.554-3.076-4.457-.421-1.318-.633-3.72-.633-7.2V8.774zM440.596.374H446V30.53h-5.404v-2.301c-1.053 1.014-2.111 1.743-3.172 2.188-1.062.448-2.212.67-3.451.67-2.779 0-5.188-1.088-7.214-3.268-2.03-2.18-3.045-4.89-3.045-8.127 0-3.237.98-6.111 2.945-8.26 1.964-2.145 4.35-3.222 7.156-3.222 1.293 0 2.505.246 3.636.741 1.134.496 2.18 1.233 3.141 2.22V.37l.004.004zm-5.677 12.878c-1.672 0-3.057.597-4.161 1.79-1.104 1.193-1.656 2.722-1.656 4.59 0 1.868.563 3.428 1.687 4.641 1.123 1.213 2.509 1.822 4.153 1.822 1.644 0 3.103-.597 4.222-1.79 1.12-1.194 1.676-2.758 1.676-4.688 0-1.93-.56-3.425-1.676-4.598-1.119-1.174-2.532-1.76-4.241-1.76l-.004-.007z" fill="#fff"/></svg>