<svg width="254" height="106" viewBox="0 0 254 106" fill="none" xmlns="http://www.w3.org/2000/svg"><path d="M12.617 6.617c-.062-.372-.155-.496-.372-.589a7.377 7.377 0 00-2.263-.341c-2.325 0-3.472 1.054-3.472 2.635 0 2.046 2.108 2.604 4.464 3.317 2.945.899 6.231 2.015 6.231 6.665 0 5.084-3.968 7.068-8.711 7.068-2.79 0-5.921-.713-7.099-1.271v-6.045h3.472l.62 2.945c.093.403.124.465.527.558.372.093 1.426.341 2.604.341 2.511 0 3.906-.992 3.906-2.883 0-1.984-1.767-2.604-3.844-3.193-3.069-.868-6.851-1.705-6.851-6.696 0-4.774 3.596-6.975 8.308-6.975 2.666 0 4.96.651 6.355 1.24v6.045l-3.503-.31-.372-2.511zm13.509-3.038c0 1.767-1.023 2.79-2.821 2.79-1.767 0-2.79-1.023-2.79-2.79 0-1.767 1.023-2.728 2.79-2.728 1.798 0 2.821.961 2.821 2.728zm-6.82 18.972l1.581-.217c.434-.062.496-.155.496-.62V12.6c0-.341-.093-.558-.403-.651l-1.674-.589.341-2.511h6.417v12.865c0 .496.031.558.496.62l1.581.217V25h-8.835v-2.449zm26.987.775l-.155-.031c-1.178 1.147-2.728 2.077-5.208 2.077-3.906 0-4.526-2.666-4.526-4.588 0-3.1 1.891-4.495 5.797-4.774l3.565-.248v-1.705c0-1.457-.155-2.449-2.077-2.449-1.488 0-2.263.217-2.263 2.077l-4.37-.372c0-4.185 3.812-4.774 6.664-4.774 4.712 0 6.603 1.271 6.603 5.611v7.533c0 .496.031.558.496.62l1.488.248V25h-5.704l-.31-1.674zm-2.635-4.836c-1.829.124-2.48.589-2.48 1.829s.744 1.705 1.767 1.705c1.054 0 2.108-.589 2.821-1.116v-2.573l-2.108.155zm9.94 4.061l1.55-.217c.434-.062.496-.155.496-.62V5.346c0-.341-.093-.558-.403-.651l-1.705-.589.341-2.511h6.448v20.119c0 .496.031.558.496.62l1.519.217V25h-8.742v-2.449zm23.852-10.85c.558.713 1.147 1.705 1.147 3.131 0 3.441-2.697 5.456-6.603 5.456-.992 0-1.891-.124-2.45-.279l-1.022 1.643 3.038.186c5.394.341 8.525.496 8.525 4.619 0 3.565-3.131 5.58-8.525 5.58-5.611 0-7.75-1.426-7.75-3.875 0-1.395.62-2.139 1.705-3.162-1.023-.434-1.364-1.209-1.364-2.046 0-.682.34-1.302.899-1.891a38.036 38.036 0 011.922-1.86c-1.52-.744-2.666-2.356-2.666-4.65 0-3.565 2.356-6.014 7.099-6.014 1.333 0 2.139.124 2.852.31h6.045v2.635l-2.852.217zm-2.945 2.697c0-1.829-1.054-2.79-2.821-2.79-1.705 0-2.976.837-2.976 2.852 0 1.519.837 2.573 2.883 2.573 1.736 0 2.914-1.023 2.914-2.635zm-6.231 11.439c-.403.496-.806 1.023-.806 1.643 0 1.24 1.58 1.612 3.75 1.612 1.799 0 4.248-.124 4.248-1.798 0-.992-1.178-1.054-2.666-1.147l-4.526-.31zm25.523-2.511l-.155-.031c-1.271.961-2.883 2.077-5.518 2.077-3.255 0-4.495-1.86-4.495-5.456v-7.564c0-.496-.031-.558-.496-.651l-1.488-.31.31-2.542h6.355V19.11c0 1.891.31 2.604 1.643 2.604 1.364 0 2.48-.775 3.193-1.426v-7.967c0-.496-.031-.527-.496-.62l-1.333-.31.341-2.542h6.169v12.865c0 .403.062.527.434.589l1.55.217V25h-5.766l-.248-1.674zm14.292-19.747c0 1.767-1.023 2.79-2.821 2.79-1.767 0-2.79-1.023-2.79-2.79 0-1.767 1.023-2.728 2.79-2.728 1.798 0 2.821.961 2.821 2.728zm-6.82 18.972l1.581-.217c.434-.062.496-.155.496-.62V12.6c0-.341-.093-.558-.403-.651l-1.674-.589.341-2.511h6.417v12.865c0 .496.031.558.496.62l1.581.217V25h-8.835v-2.449zm24.72 1.24c-1.922.93-4.03 1.581-6.355 1.581-5.983 0-8.029-3.72-8.029-8.556 0-5.611 3.441-8.277 7.688-8.277 4.092 0 6.82 2.139 6.82 7.502 0 .372-.031 1.457-.062 2.077h-9.486c.155 2.201 1.116 3.658 3.658 3.658 1.209 0 2.511-.279 4.619-1.054l1.147 3.069zm-4.464-8.618c-.031-2.604-1.054-3.286-2.325-3.286-1.333 0-2.418.744-2.604 3.286h4.929zm18.085-.186c0-1.488-.093-2.728-1.643-2.728-1.147 0-2.573.651-3.224 1.147v8.308c0 .496.031.558.496.62l1.488.217V25h-8.556v-2.48l1.395-.186c.434-.062.496-.155.496-.62V12.6c0-.341-.093-.558-.403-.651l-1.674-.589.372-2.511h5.425l.248 1.612.124.062c1.55-1.147 3.348-1.984 5.456-1.984 3.379 0 4.681 1.86 4.681 5.27v7.905c0 .496.031.558.496.62l1.55.217V25h-6.727V14.987zm26.79 9.145c-1.333.651-3.286 1.24-5.053 1.24-3.689 0-5.084-1.488-5.084-4.991v-8.122c0-.186 0-.31-.248-.31h-2.17V9.19c2.728-.31 3.813-1.674 4.154-5.053h2.945v4.402c0 .217 0 .31.248.31h4.371v3.1h-4.619v7.409c0 1.829.434 2.542 2.108 2.542.868 0 1.767-.217 2.511-.496l.837 2.728zm15.23-.341c-1.922.93-4.03 1.581-6.355 1.581-5.983 0-8.029-3.72-8.029-8.556 0-5.611 3.441-8.277 7.688-8.277 4.092 0 6.82 2.139 6.82 7.502 0 .372-.031 1.457-.062 2.077h-9.486c.155 2.201 1.116 3.658 3.658 3.658 1.209 0 2.511-.279 4.619-1.054l1.147 3.069zm-4.464-8.618c-.031-2.604-1.054-3.286-2.325-3.286-1.333 0-2.418.744-2.604 3.286h4.929zm13.192 13.919l1.24-.186c.434-.062.558-.186.558-.651V12.6c0-.341-.062-.527-.403-.651l-1.643-.589.341-2.511h5.456l.279 1.581.155.062c1.488-1.209 3.503-1.953 5.27-1.953 3.472 0 5.952 2.17 5.952 7.936 0 3.72-1.271 8.897-6.386 8.897-1.612 0-3.069-.527-4.371-1.55v4.402c0 .496.031.589.496.62l3.162.279v2.449h-10.106v-2.48zm6.448-8.525c.682.589 1.767 1.178 2.914 1.178 2.077 0 2.945-1.984 2.945-5.022 0-3.193-1.085-4.495-2.635-4.495-1.302 0-2.542.651-3.224 1.116v7.223zm19.448-16.988c0 1.767-1.023 2.79-2.821 2.79-1.767 0-2.79-1.023-2.79-2.79 0-1.767 1.023-2.728 2.79-2.728 1.798 0 2.821.961 2.821 2.728zm-6.82 18.972l1.581-.217c.434-.062.496-.155.496-.62V12.6c0-.341-.093-.558-.403-.651l-1.674-.589.341-2.511h6.417v12.865c0 .496.031.558.496.62l1.581.217V25h-8.835v-2.449zm21.808.713l-.217-.031c-1.302 1.271-2.821 2.139-5.084 2.139-3.658 0-6.014-2.325-6.014-8.246 0-6.231 3.131-8.587 6.572-8.587 1.798 0 3.193.62 4.371 1.488V5.315c0-.31-.124-.527-.403-.62l-1.705-.589.341-2.511h6.231v20.15c0 .465.031.527.496.589l1.488.217V25h-5.766l-.31-1.736zm-.558-10.199c-.775-.527-1.767-.93-2.666-.93-2.294 0-3.193 2.139-3.193 4.898 0 3.007.868 4.681 2.821 4.681 1.054 0 2.201-.62 3.038-1.333v-7.316zm22.398 10.726c-1.922.93-4.03 1.581-6.355 1.581-5.983 0-8.029-3.72-8.029-8.556 0-5.611 3.441-8.277 7.688-8.277 4.092 0 6.82 2.139 6.82 7.502 0 .372-.031 1.457-.062 2.077h-9.486c.155 2.201 1.116 3.658 3.658 3.658 1.209 0 2.511-.279 4.619-1.054l1.147 3.069zm-4.464-8.618c-.031-2.604-1.054-3.286-2.325-3.286-1.333 0-2.418.744-2.604 3.286h4.929zM12.803 64.132c-1.333.651-3.286 1.24-5.053 1.24-3.689 0-5.084-1.488-5.084-4.991v-8.122c0-.186 0-.31-.248-.31H.248V49.19c2.728-.31 3.813-1.674 4.154-5.053h2.945v4.402c0 .217 0 .31.248.31h4.371v3.1H7.347v7.409c0 1.829.434 2.542 2.108 2.542.868 0 1.767-.217 2.511-.496l.837 2.728zm13.054-.806l-.155-.031c-1.27.961-2.883 2.077-5.518 2.077-3.255 0-4.495-1.86-4.495-5.456v-7.564c0-.496-.03-.558-.496-.651l-1.488-.31.31-2.542h6.355V59.11c0 1.891.31 2.604 1.643 2.604 1.364 0 2.48-.775 3.193-1.426v-7.967c0-.496-.03-.527-.496-.62l-1.333-.31.341-2.542h6.17v12.865c0 .403.061.527.433.589l1.55.217V65h-5.766l-.248-1.674zm25.674-8.339c0-1.488-.093-2.728-1.643-2.728-1.147 0-2.573.651-3.224 1.147v8.308c0 .496.031.558.496.62l1.488.217V65h-8.556v-2.48l1.395-.186c.434-.062.496-.155.496-.62V52.6c0-.341-.093-.558-.403-.651l-1.674-.589.372-2.511h5.425l.248 1.612.124.062c1.55-1.147 3.348-1.984 5.456-1.984 3.38 0 4.681 1.86 4.681 5.27v7.905c0 .496.031.558.496.62l1.55.217V65h-6.727V54.987zm19.88 8.339l-.156-.031c-1.27.961-2.883 2.077-5.518 2.077-3.255 0-4.495-1.86-4.495-5.456v-7.564c0-.496-.03-.558-.496-.651l-1.488-.31.31-2.542h6.355V59.11c0 1.891.31 2.604 1.643 2.604 1.364 0 2.48-.775 3.193-1.426v-7.967c0-.496-.03-.527-.496-.62l-1.333-.31.341-2.542h6.17v12.865c0 .403.061.527.433.589l1.55.217V65h-5.766l-.248-1.674zm-6.449-17.267l4.743-5.394 2.542 2.418-5.549 4.526-1.736-1.55zm33.73 8.928c0-1.209-.124-2.666-1.736-2.666-.868 0-1.705.31-2.511.837.062.496.093.992.093 1.519v7.037c0 .527.03.589.496.651l1.24.186V65h-6.417V54.832c0-1.147-.093-2.511-1.643-2.511-.93 0-1.953.465-2.573.992v8.401c0 .496.03.558.496.62l1.519.217V65h-8.587v-2.449l1.395-.217c.434-.062.496-.155.496-.62V52.6c0-.341-.093-.558-.403-.651l-1.674-.589.34-2.511h5.457l.248 1.612.155.031c1.395-1.147 2.976-1.953 4.96-1.953 1.519 0 2.914.403 3.782 1.86 1.023-.806 2.82-1.86 4.99-1.86 3.318 0 4.558 1.643 4.558 5.239v7.936c0 .496.031.589.496.651l1.55.186V65h-6.727V54.987zm22.651 8.804c-1.922.93-4.03 1.581-6.355 1.581-5.983 0-8.029-3.72-8.029-8.556 0-5.611 3.441-8.277 7.688-8.277 4.092 0 6.82 2.139 6.82 7.502 0 .372-.031 1.457-.062 2.077h-9.486c.155 2.201 1.116 3.658 3.658 3.658 1.209 0 2.511-.279 4.619-1.054l1.147 3.069zm-4.464-8.618c-.031-2.604-1.054-3.286-2.325-3.286-1.333 0-2.418.744-2.604 3.286h4.929zm6.646 7.316l1.395-.186c.434-.062.496-.155.496-.62V52.6c0-.341-.093-.558-.403-.651l-1.674-.589.341-2.511h5.456l.372 2.48h.186c1.023-1.581 2.387-2.79 4.371-2.79.713 0 2.139.124 2.697.279v5.642l-3.72-.124-.31-1.643c-.062-.279-.155-.341-.403-.341-.806 0-1.767.682-2.232 1.085v8.215c0 .496.031.589.496.62l3.069.248V65h-10.137v-2.511zm22.809 2.883c-5.673 0-7.967-3.472-7.967-8.339 0-5.146 2.697-8.494 8.37-8.494 5.735 0 7.967 3.41 7.967 8.153 0 5.27-2.666 8.68-8.37 8.68zm.217-3.255c2.015 0 3.255-1.395 3.255-5.27 0-3.658-1.116-4.96-3.131-4.96-2.046 0-3.41 1.271-3.41 4.991 0 3.751 1.209 5.239 3.286 5.239zm28.278 1.147l-.217-.031c-1.302 1.271-2.821 2.139-5.084 2.139-3.658 0-6.014-2.325-6.014-8.246 0-6.231 3.131-8.587 6.572-8.587 1.798 0 3.193.62 4.371 1.488v-4.712c0-.31-.124-.527-.403-.62l-1.705-.589.341-2.511h6.231v20.15c0 .465.031.527.496.589l1.488.217V65h-5.766l-.31-1.736zm-.558-10.199c-.775-.527-1.767-.93-2.666-.93-2.294 0-3.193 2.139-3.193 4.898 0 3.007.868 4.681 2.821 4.681 1.054 0 2.201-.62 3.038-1.333v-7.316zm22.398 10.726c-1.922.93-4.03 1.581-6.355 1.581-5.983 0-8.029-3.72-8.029-8.556 0-5.611 3.441-8.277 7.688-8.277 4.092 0 6.82 2.139 6.82 7.502 0 .372-.031 1.457-.062 2.077h-9.486c.155 2.201 1.116 3.658 3.658 3.658 1.209 0 2.511-.279 4.619-1.054l1.147 3.069zm-4.464-8.618c-.031-2.604-1.054-3.286-2.325-3.286-1.333 0-2.418.744-2.604 3.286h4.929zM18.538 102.582l2.542-.217c.465-.031.496-.186.496-.62v-11.78h-.124l-4.433 10.571h-5.053L7.595 89.934H7.44v11.78c0 .496.062.589.496.62l2.666.248V105H1.178v-2.418l1.953-.217c.434-.062.496-.155.496-.62V85.842c0-.465-.062-.558-.496-.62l-1.953-.217v-2.449h8.308l5.394 14.043h.124l5.673-14.043h8.06v2.418l-2.077.248c-.465.062-.496.124-.496.589v15.934c0 .403.093.527.496.589l2.077.248V105H18.538v-2.418zm26.51 1.209c-1.922.93-4.03 1.581-6.355 1.581-5.983 0-8.03-3.72-8.03-8.556 0-5.611 3.442-8.277 7.689-8.277 4.092 0 6.82 2.139 6.82 7.502 0 .372-.031 1.457-.062 2.077h-9.486c.155 2.201 1.116 3.658 3.658 3.658 1.209 0 2.51-.279 4.619-1.054l1.147 3.069zm-4.464-8.618c-.031-2.604-1.054-3.286-2.325-3.286-1.333 0-2.418.744-2.604 3.286h4.929zm18.149 8.091l-.217-.031c-1.302 1.271-2.821 2.139-5.084 2.139-3.658 0-6.014-2.325-6.014-8.246 0-6.231 3.13-8.587 6.572-8.587 1.798 0 3.193.62 4.37 1.488v-4.712c0-.31-.123-.527-.402-.62l-1.705-.589.34-2.511h6.232v20.15c0 .465.03.527.496.589l1.488.217V105h-5.766l-.31-1.736zm-.558-10.199c-.775-.527-1.767-.93-2.666-.93-2.294 0-3.193 2.139-3.193 4.898 0 3.007.868 4.681 2.82 4.681 1.055 0 2.202-.62 3.039-1.333v-7.316zm14.86-9.486c0 1.767-1.024 2.79-2.822 2.79-1.767 0-2.79-1.023-2.79-2.79 0-1.767 1.023-2.728 2.79-2.728 1.798 0 2.821.961 2.821 2.728zm-6.82 18.972l1.58-.217c.434-.062.496-.155.496-.62V92.6c0-.341-.093-.558-.403-.651l-1.674-.589.341-2.511h6.417v12.865c0 .496.031.558.496.62l1.581.217V105h-8.835v-2.449zm24.347 1.302c-1.426.868-3.627 1.519-5.89 1.519-5.611 0-8.122-3.503-8.122-8.215 0-5.797 3.534-8.618 8.494-8.618 2.418 0 4.557.682 5.518 1.302v4.867l-3.317-.155-.372-2.046c-.031-.217-.093-.403-.372-.496-.372-.124-.961-.217-1.581-.217-1.86 0-3.441 1.271-3.441 4.898 0 4.03 1.798 5.177 3.999 5.177 1.55 0 2.945-.496 3.875-.899l1.209 2.883zm11.752-.527l-.155-.031c-1.178 1.147-2.728 2.077-5.208 2.077-3.906 0-4.526-2.666-4.526-4.588 0-3.1 1.89-4.495 5.797-4.774l3.565-.248v-1.705c0-1.457-.155-2.449-2.077-2.449-1.488 0-2.263.217-2.263 2.077l-4.371-.372c0-4.185 3.813-4.774 6.665-4.774 4.712 0 6.603 1.271 6.603 5.611v7.533c0 .496.031.558.496.62l1.488.248V105h-5.704l-.31-1.674zm-2.635-4.836c-1.83.124-2.48.589-2.48 1.829s.744 1.705 1.767 1.705c1.054 0 2.108-.589 2.821-1.116v-2.573l-2.108.155zm10.094 3.999l1.395-.186c.434-.062.496-.155.496-.62V92.6c0-.341-.093-.558-.403-.651l-1.674-.589.341-2.511h5.456l.372 2.48h.186c1.023-1.581 2.387-2.79 4.371-2.79.713 0 2.139.124 2.697.279v5.642l-3.72-.124-.31-1.643c-.062-.279-.155-.341-.403-.341-.806 0-1.767.682-2.232 1.085v8.215c0 .496.031.589.496.62l3.069.248V105h-10.137v-2.511zm29.226 1.302c-1.922.93-4.03 1.581-6.355 1.581-5.983 0-8.029-3.72-8.029-8.556 0-5.611 3.441-8.277 7.688-8.277 4.092 0 6.82 2.139 6.82 7.502 0 .372-.031 1.457-.062 2.077h-9.486c.155 2.201 1.116 3.658 3.658 3.658 1.209 0 2.511-.279 4.619-1.054l1.147 3.069zm-4.464-8.618c-.031-2.604-1.054-3.286-2.325-3.286-1.333 0-2.418.744-2.604 3.286h4.929zm12.54 7.781c0 1.581-.868 2.418-2.635 2.418-1.798 0-2.666-.806-2.666-2.418 0-1.581.868-2.418 2.666-2.418 1.736 0 2.635.837 2.635 2.418zm8.726 0c0 1.581-.868 2.418-2.635 2.418-1.798 0-2.666-.806-2.666-2.418 0-1.581.868-2.418 2.666-2.418 1.736 0 2.635.837 2.635 2.418zm8.726 0c0 1.581-.868 2.418-2.635 2.418-1.798 0-2.666-.806-2.666-2.418 0-1.581.868-2.418 2.666-2.418 1.736 0 2.635.837 2.635 2.418z" fill="#fff"/></svg>