<svg width="49" height="42" viewBox="0 0 49 42" fill="none" xmlns="http://www.w3.org/2000/svg"><path d="M29.4 1.594H6.533c-2.706 0-4.9 2.14-4.9 4.781v38.25c0 2.64 2.194 4.781 4.9 4.781H29.4c2.706 0 4.9-2.14 4.9-4.78V6.375c0-2.642-2.194-4.782-4.9-4.782z" fill="#F2F2F2"/><path d="M34.3 6.375a4.723 4.723 0 00-1.435-3.38A4.962 4.962 0 0029.4 1.593H6.533c-1.3 0-2.546.504-3.465 1.4a4.723 4.723 0 00-1.435 3.381v6.375H34.3V6.375zM1.633 44.625c0 1.268.517 2.484 1.435 3.38a4.963 4.963 0 003.465 1.401H29.4c1.3 0 2.546-.503 3.465-1.4a4.723 4.723 0 001.435-3.381V38.25H1.633v6.375z" fill="#C1C5C8"/><path d="M29.4 51H6.533a6.617 6.617 0 01-4.62-1.867A6.297 6.297 0 010 44.625V6.375c0-1.69.688-3.312 1.914-4.508A6.617 6.617 0 016.534 0H29.4c1.733 0 3.395.672 4.62 1.867a6.298 6.298 0 011.913 4.508v38.25c0 1.69-.688 3.312-1.913 4.508A6.617 6.617 0 0129.4 51zM6.533 3.187c-.866 0-1.697.336-2.31.934a3.149 3.149 0 00-.956 2.254v38.25c0 .845.344 1.656.956 2.254a3.308 3.308 0 002.31.934H29.4c.866 0 1.697-.336 2.31-.934a3.149 3.149 0 00.957-2.254V6.375c0-.845-.345-1.656-.957-2.254a3.308 3.308 0 00-2.31-.934H6.533z" fill="#101B31"/><path d="M17.967 9.563h-6.534c-.433 0-.848-.168-1.155-.467A1.575 1.575 0 019.8 7.969c0-.423.172-.828.478-1.127a1.654 1.654 0 011.155-.467h6.534c.433 0 .848.168 1.155.467.306.299.478.704.478 1.127 0 .422-.172.828-.478 1.127a1.654 1.654 0 01-1.155.467zM40.833 33.469c-.433 0-.848-.168-1.155-.467a1.574 1.574 0 01-.478-1.127v-12.75c0-.423.172-.828.478-1.127a1.654 1.654 0 011.155-.467c.434 0 .849.168 1.155.467.306.299.479.704.479 1.127v12.75c0 .423-.172.828-.479 1.127a1.654 1.654 0 01-1.155.467zM47.367 28.688c-.434 0-.849-.168-1.155-.467a1.575 1.575 0 01-.479-1.127v-4.781c0-.423.172-.828.479-1.127a1.654 1.654 0 011.155-.467c.433 0 .848.168 1.155.467.306.299.478.704.478 1.127v4.78c0 .424-.172.829-.478 1.128a1.654 1.654 0 01-1.155.467z" fill="#101B31"/><path d="M17.869 33.628c4.645 0 8.411-3.675 8.411-8.208s-3.766-8.208-8.411-8.208c-4.646 0-8.412 3.675-8.412 8.208s3.766 8.208 8.412 8.208z" fill="#C80000"/><path d="M17.869 26.823a1.468 1.468 0 001.016-.41 1.401 1.401 0 00.421-.992v-4.192a1.37 1.37 0 00-.36-1.087 1.468 1.468 0 00-2.138 0 1.393 1.393 0 00-.36 1.087V25.5c.02.355.179.69.442.935.264.246.614.385.979.388z" fill="#fff"/><path d="M17.967 45.027c.902 0 1.633-.714 1.633-1.594 0-.88-.731-1.594-1.633-1.594s-1.634.714-1.634 1.594c0 .88.732 1.594 1.634 1.594z" fill="#101B31"/><path d="M17.869 31.014c.793 0 1.437-.627 1.437-1.402 0-.775-.644-1.403-1.437-1.403-.794 0-1.438.628-1.438 1.403s.644 1.402 1.438 1.402z" fill="#fff"/><path d="M24.5 9.563c.902 0 1.633-.714 1.633-1.594 0-.88-.73-1.594-1.633-1.594-.902 0-1.633.714-1.633 1.594 0 .88.731 1.594 1.633 1.594z" fill="#101B31"/></svg>