<svg width="149" height="13" viewBox="0 0 149 13" fill="none" xmlns="http://www.w3.org/2000/svg"><path d="M7.498 7.097H1.734c.084.512.306.92.667 1.222.361.303.823.454 1.384.454.67 0 1.247-.237 1.729-.709l1.511.715c-.376.54-.828.937-1.354 1.196-.526.259-1.15.388-1.872.388-1.122 0-2.035-.357-2.74-1.07C.353 8.579 0 7.686 0 6.613c0-1.075.352-2.015 1.055-2.741.703-.727 1.585-1.09 2.646-1.09 1.125 0 2.041.364 2.746 1.09.706.726 1.059 1.686 1.059 2.88l-.006.344-.002.001zM5.705 5.672a1.81 1.81 0 00-.702-.98 2.019 2.019 0 00-1.215-.378c-.5 0-.938.141-1.316.423-.237.177-.457.488-.659.935h3.892zM13.092 3.976l-1.11 1.119c-.451-.451-.861-.676-1.229-.676-.2 0-.36.043-.473.129a.386.386 0 00-.062.588c.072.082.25.194.535.335l.658.331c.692.345 1.168.696 1.426 1.053.258.358.388.777.388 1.258 0 .641-.233 1.176-.7 1.603-.467.43-1.092.643-1.876.643-1.043 0-1.875-.411-2.498-1.233l1.104-1.213c.21.247.456.447.739.6.282.152.534.228.753.228.237 0 .427-.057.571-.171.144-.115.217-.247.217-.398 0-.278-.26-.55-.782-.815l-.604-.304c-1.157-.588-1.735-1.324-1.735-2.206 0-.57.218-1.057.654-1.462.436-.404.994-.605 1.672-.605a2.888 2.888 0 012.354 1.192l-.002.004zM14.97 8.289c.285 0 .528.1.73.301a.997.997 0 01.301.732c0 .287-.1.533-.302.736a.991.991 0 01-.73.304.993.993 0 01-.73-.304 1.007 1.007 0 01-.301-.736c0-.287.1-.532.302-.732a.993.993 0 01.73-.301zM18.891.432h1.792l2.243 6.799 2.262-6.8h1.792l1.623 9.748h-1.778l-1.037-6.156-2.055 6.156H22.11l-2.035-6.156-1.061 6.156h-1.797L18.891.432zM36.967 7.098h-5.764c.082.514.305.92.666 1.224.361.301.823.453 1.385.453.67 0 1.247-.236 1.73-.71l1.512.717c-.377.538-.828.938-1.355 1.197-.526.259-1.15.387-1.874.387-1.122 0-2.035-.356-2.741-1.07-.706-.713-1.059-1.606-1.059-2.679 0-1.072.35-2.013 1.055-2.739.704-.725 1.586-1.09 2.646-1.09 1.126 0 2.041.365 2.746 1.09.706.728 1.06 1.686 1.06 2.878l-.007.345h-.003l.003-.003zm-1.795-1.425a1.816 1.816 0 00-.702-.98 2.019 2.019 0 00-1.215-.378c-.5 0-.938.142-1.317.424-.238.177-.458.489-.66.934h3.894zM43.536.185h1.795v9.992h-1.795v-.762c-.35.335-.701.578-1.053.725-.351.147-.734.223-1.147.223-.923 0-1.721-.362-2.395-1.083-.675-.722-1.013-1.62-1.013-2.694 0-1.074.325-2.025.98-2.738.651-.71 1.442-1.067 2.375-1.067.43 0 .832.082 1.209.244.376.163.723.41 1.043.736V.185h.001zm-1.888 4.268c-.554 0-1.016.196-1.382.593-.366.395-.55.902-.55 1.52 0 .62.187 1.136.56 1.537.372.402.83.602 1.378.602a1.86 1.86 0 001.401-.593c.372-.395.556-.912.556-1.554 0-.643-.186-1.135-.556-1.525-.371-.388-.84-.583-1.408-.583v.003h.002zM47.87 0c.312 0 .583.116.808.344.224.23.337.509.337.835 0 .326-.112.598-.335.826a1.084 1.084 0 01-.798.341c-.31 0-.592-.115-.816-.348a1.173 1.173 0 01-.338-.845c0-.331.11-.59.333-.815.223-.225.49-.338.806-.338h.002zm-.898 2.968h1.795v7.208h-1.795V2.968zM57.343 4.428l-1.493.83c-.28-.297-.558-.501-.832-.617a2.47 2.47 0 00-.964-.173c-.67 0-1.215.2-1.629.604-.414.404-.621.92-.621 1.551 0 .63.198 1.113.6 1.503.398.388.922.583 1.572.583.802 0 1.428-.277 1.875-.83l1.413.976c-.767 1.007-1.849 1.51-3.248 1.51-1.258 0-2.242-.376-2.954-1.127-.712-.752-1.069-1.63-1.069-2.638a3.707 3.707 0 011.968-3.314c.619-.335 1.314-.503 2.08-.503.71 0 1.347.143 1.912.428.566.285 1.028.69 1.386 1.217v.002l.004-.002zM63.579 2.968h1.795v7.208h-1.795v-.762c-.35.336-.702.579-1.054.726-.35.147-.733.222-1.146.222-.923 0-1.721-.361-2.396-1.083-.674-.721-1.012-1.62-1.012-2.694 0-1.073.325-2.025.979-2.737.652-.711 1.443-1.068 2.376-1.068.43 0 .832.082 1.208.245.377.162.724.41 1.044.736v-.796.003zM61.69 4.452c-.554 0-1.016.196-1.382.593-.366.395-.55.902-.55 1.521 0 .619.186 1.135.559 1.537.372.401.832.601 1.378.601a1.86 1.86 0 001.402-.592c.371-.396.556-.913.556-1.555 0-.642-.186-1.135-.556-1.525-.371-.387-.84-.582-1.408-.582v.002h.001zM66.896 2.968h1.538v.909c.166-.358.389-.631.665-.816.275-.184.577-.278.906-.278.232 0 .476.061.73.185l-.558 1.556c-.212-.105-.384-.159-.519-.159-.276 0-.51.173-.7.518-.19.344-.286 1.02-.286 2.028l.006.352v2.916h-1.78V2.968h-.003.001zM78.415 7.098h-5.764c.083.514.306.92.667 1.224.36.301.823.453 1.385.453.67 0 1.247-.236 1.729-.71l1.513.717c-.377.538-.828.938-1.356 1.197-.526.259-1.15.387-1.873.387-1.122 0-2.035-.356-2.742-1.07-.705-.713-1.058-1.606-1.058-2.679 0-1.072.35-2.013 1.054-2.739.704-.725 1.586-1.09 2.646-1.09 1.126 0 2.042.365 2.747 1.09.705.728 1.059 1.686 1.059 2.878l-.007.345h-.002l.002-.003zM76.62 5.673a1.816 1.816 0 00-.701-.98 2.024 2.024 0 00-1.215-.378c-.5 0-.939.142-1.318.424-.237.177-.458.489-.659.934h3.893zM80.265 8.29a1 1 0 01.73.302c.2.2.301.446.301.732s-.1.533-.302.735a.993.993 0 01-.73.305.993.993 0 01-.73-.305 1.005 1.005 0 01-.301-.735c0-.29.1-.53.302-.732a1 1 0 01.73-.302zM87.876 2.968h1.789v6.175c0 1.218-.243 2.115-.73 2.69-.652.777-1.636 1.167-2.952 1.167-.701 0-1.289-.087-1.769-.264a3.15 3.15 0 01-1.208-.779 3.191 3.191 0 01-.73-1.248h1.978c.176.203.4.357.677.462.276.104.604.155.98.155.481 0 .87-.076 1.163-.225.294-.151.5-.345.622-.583.12-.239.182-.65.182-1.232a2.988 2.988 0 01-.992.686c-.347.14-.737.21-1.177.21-.96 0-1.77-.349-2.432-1.048-.66-.698-.992-1.581-.992-2.65 0-1.144.351-2.064 1.051-2.758.635-.627 1.394-.94 2.273-.94.413 0 .801.075 1.167.229.367.153.734.403 1.1.751v-.798zm-1.86 1.505c-.565 0-1.03.191-1.4.572-.368.383-.551.864-.551 1.442 0 .579.19 1.093.566 1.477.376.383.85.576 1.42.576s1.016-.187 1.375-.563c.361-.376.543-.869.543-1.477 0-.608-.182-1.09-.546-1.465-.363-.376-.832-.563-1.406-.563v.001zM94.726 2.784a3.78 3.78 0 011.903.51c.593.341 1.058.801 1.39 1.386.333.583.5 1.213.5 1.89 0 .675-.168 1.315-.503 1.908a3.627 3.627 0 01-1.371 1.387c-.578.334-1.217.5-1.912.5-1.026 0-1.901-.368-2.627-1.104-.726-.735-1.088-1.627-1.088-2.679 0-1.127.41-2.066 1.228-2.817.719-.654 1.544-.98 2.479-.98l.002-.003v.002zm.03 1.704c-.559 0-1.022.195-1.393.586-.371.391-.556.89-.556 1.502 0 .61.183 1.135.551 1.525.366.39.83.582 1.393.582.562 0 1.029-.196 1.401-.59.373-.394.56-.899.56-1.517 0-.62-.183-1.122-.55-1.507-.367-.386-.835-.581-1.406-.581zM98.698 2.968h1.829l1.806 4.255 1.803-4.255h1.818l-3.043 7.209h-1.163l-3.05-7.209h.002-.002zM106.241 11.924L110.606.091h1.291l-4.373 11.832h-1.283zM113.769.372h5.354v1.82h-3.516v1.78h2.284v1.793h-2.284v4.412h-1.838V.37v.001zM120.067 2.925h1.547v.913c.168-.36.391-.633.668-.82.277-.188.582-.28.913-.28.234 0 .479.062.734.187l-.562 1.567c-.212-.107-.386-.16-.523-.16-.277 0-.512.173-.704.52-.192.347-.287 1.027-.287 2.04l.006.353v2.933h-1.791V2.925h-.001zM130.13 2.925h1.805v7.253h-1.805V9.41c-.352.338-.706.581-1.06.73-.355.149-.739.223-1.153.223-.928 0-1.733-.363-2.41-1.09-.678-.726-1.017-1.63-1.017-2.709 0-1.079.327-2.037.983-2.753.657-.715 1.454-1.074 2.391-1.074.432 0 .837.082 1.215.247.379.165.728.41 1.049.74v-.8h.002zm-1.897 1.494c-.558 0-1.021.199-1.39.597-.369.397-.553.907-.553 1.53 0 .622.188 1.142.563 1.547a1.82 1.82 0 001.388.607 1.88 1.88 0 001.41-.597c.374-.398.56-.919.56-1.562 0-.644-.187-1.142-.56-1.533-.374-.391-.846-.586-1.417-.586l-.001-.003zM133.753 2.924h1.825v3.494c0 .68.046 1.151.139 1.417.093.263.242.47.447.616.205.145.458.22.76.22.301 0 .556-.073.766-.218.21-.144.366-.356.466-.637.075-.209.113-.655.113-1.34V2.923h1.805v3.073c0 1.267-.099 2.134-.298 2.6-.242.57-.6 1.005-1.071 1.31-.472.305-1.072.457-1.799.457-.789 0-1.428-.178-1.914-.533-.487-.355-.829-.851-1.028-1.486-.14-.44-.211-1.24-.211-2.4v-3.02zM147.195.125H149v10.051h-1.805V9.41c-.352.338-.705.581-1.06.73-.355.15-.739.223-1.153.223-.928 0-1.733-.362-2.41-1.09-.678-.726-1.017-1.63-1.017-2.708 0-1.08.327-2.037.984-2.754.656-.715 1.453-1.074 2.39-1.074.432 0 .837.082 1.215.247.379.166.729.411 1.05.74v-3.6l.001.002zm-1.897 4.292c-.558 0-1.021.2-1.39.597-.369.398-.553.907-.553 1.53s.188 1.143.563 1.547c.376.404.839.607 1.388.607.549 0 1.037-.199 1.411-.596.374-.398.559-.92.559-1.563 0-.644-.187-1.141-.559-1.533-.374-.391-.846-.586-1.418-.586l-.001-.003z" fill="#fff"/></svg>