<svg width="42" height="40" viewBox="0 0 42 40" fill="none" xmlns="http://www.w3.org/2000/svg"><path d="M29.077 1.531H6.462c-2.677 0-4.847 2.057-4.847 4.594v36.75c0 2.537 2.17 4.594 4.847 4.594h22.615c2.676 0 4.846-2.057 4.846-4.594V6.125c0-2.537-2.17-4.594-4.846-4.594z" fill="#F2F2F2"/><path d="M33.923 6.125c0-1.218-.51-2.387-1.42-3.248a4.984 4.984 0 00-3.426-1.346H6.462a4.985 4.985 0 00-3.427 1.346 4.476 4.476 0 00-1.42 3.248v6.125h32.308V6.125zM1.615 42.875c0 1.218.51 2.387 1.42 3.248a4.985 4.985 0 003.427 1.346h22.615a4.984 4.984 0 003.427-1.346 4.476 4.476 0 001.42-3.248V36.75H1.614v6.125z" fill="#C1C5C8"/><path d="M40.385 12.25v15.313c0 .406-.17.795-.474 1.082a1.662 1.662 0 01-1.142.449h-8.077l-4.846 4.593L21 29.095h-4.846c-.429 0-.84-.162-1.142-.449a1.492 1.492 0 01-.473-1.082V12.25c0-.406.17-.796.473-1.083a1.661 1.661 0 011.142-.448h22.615c.429 0 .84.161 1.142.448.303.287.474.677.474 1.083z" fill="#F2F2F2"/><path d="M38.77 9.188h-3.232V6.124c0-1.624-.68-3.182-1.892-4.331C32.434.645 30.79 0 29.076 0H6.463c-1.714 0-3.358.645-4.57 1.794C.682 2.943 0 4.501 0 6.125v36.75c0 1.624.68 3.182 1.893 4.331C3.104 48.355 4.748 49 6.462 49h22.615c1.714 0 3.357-.645 4.569-1.794 1.212-1.149 1.892-2.707 1.892-4.331v-7.656c0-.406-.17-.796-.473-1.083a1.661 1.661 0 00-1.142-.449c-.428 0-.84.162-1.142.449a1.492 1.492 0 00-.473 1.083v7.656c0 .812-.34 1.591-.947 2.166a3.323 3.323 0 01-2.284.897H6.462a3.323 3.323 0 01-2.285-.898 2.984 2.984 0 01-.946-2.165V6.125c0-.812.34-1.591.946-2.166a3.323 3.323 0 012.285-.897h22.615c.857 0 1.678.323 2.284.897.606.575.947 1.354.947 2.166v3.063H16.154c-.857 0-1.679.322-2.285.896a2.984 2.984 0 00-.946 2.166v15.313c0 .812.34 1.59.946 2.165a3.323 3.323 0 002.285.897h4.184l4.361 4.15c.15.143.33.257.526.335a1.694 1.694 0 001.242 0c.197-.078.376-.192.526-.335l4.362-4.15h7.414c.857 0 1.679-.323 2.285-.897A2.984 2.984 0 0042 27.562V12.25c0-.812-.34-1.591-.946-2.165a3.323 3.323 0 00-2.285-.898zm0 18.374h-8.078a1.693 1.693 0 00-.62.114 1.623 1.623 0 00-.527.33l-3.699 3.522-3.7-3.521a1.623 1.623 0 00-.526-.33 1.693 1.693 0 00-.62-.114h-4.846V12.25h22.615v15.313z" fill="#101B31"/><path d="M38.77 9.188H16.153c-.857 0-1.679.322-2.285.896a2.984 2.984 0 00-.946 2.166v15.313c0 .812.34 1.59.946 2.165a3.323 3.323 0 002.285.897h4.184l4.361 4.15c.15.143.33.257.526.335a1.694 1.694 0 001.242 0c.197-.078.376-.192.526-.335l4.362-4.15h7.414c.857 0 1.679-.323 2.285-.897A2.984 2.984 0 0042 27.562V12.25c0-.812-.34-1.591-.946-2.165a3.323 3.323 0 00-2.285-.898zm0 18.374h-8.078a1.692 1.692 0 00-.62.114 1.624 1.624 0 00-.527.33l-3.699 3.522-3.7-3.521a1.623 1.623 0 00-.526-.33 1.693 1.693 0 00-.62-.114h-4.846V12.25h22.615v15.313z" fill="#C80000"/><path d="M22.615 18.375h9.693c.428 0 .839-.161 1.142-.448.303-.288.473-.677.473-1.083 0-.406-.17-.796-.473-1.083a1.661 1.661 0 00-1.142-.448h-9.693c-.428 0-.839.16-1.142.448A1.492 1.492 0 0021 16.844c0 .406.17.795.473 1.082.303.288.714.449 1.142.449zM22.615 24.5h9.693c.428 0 .839-.161 1.142-.448.303-.288.473-.677.473-1.083 0-.406-.17-.796-.473-1.083a1.661 1.661 0 00-1.142-.448h-9.693c-.428 0-.839.16-1.142.448A1.492 1.492 0 0021 22.969c0 .406.17.795.473 1.082.303.288.714.449 1.142.449z" fill="#C80000"/><path d="M17.77 43.074c.891 0 1.615-.708 1.615-1.58 0-.874-.724-1.582-1.616-1.582-.892 0-1.615.708-1.615 1.581s.723 1.581 1.615 1.581z" fill="#101B31"/></svg>