<svg width="191" height="19" viewBox="0 0 191 19" fill="none" xmlns="http://www.w3.org/2000/svg"><path d="M.775 18V2.448h6.48c5.208 0 8.473 3.528 8.473 7.776 0 4.248-3.264 7.776-8.473 7.776H.775zm4.56-3.864h1.752c2.328 0 3.816-1.656 3.816-3.912 0-2.232-1.488-3.912-3.816-3.912H5.335v7.824zm19.558 4.104c-3.72 0-6.888-2.328-6.888-6.36 0-3.552 2.76-6.384 6.384-6.384 3.48 0 6.144 2.832 6.144 6.384 0 .744-.096 1.416-.096 1.416H22.3c.36 1.152 1.44 1.584 2.616 1.584 1.032 0 2.136-.312 2.904-.744l1.464 2.952c-1.368.84-2.88 1.152-4.392 1.152zm-2.712-7.416h4.368c-.144-1.128-1.032-1.896-2.16-1.896-1.08 0-1.944.768-2.208 1.896zM37.83 18.24c-2.352 0-3.888-1.512-3.888-4.2V9.192h-1.8V5.736h1.8V3.528l4.368-1.08v3.288h2.712v3.456H38.31v4.512c0 .576.288.768.672.768.36 0 .792-.168 1.104-.384l1.176 3.192c-1.056.744-2.352.96-3.432.96zm9.564-13.92l2.52-4.296h4.2l-3.48 4.296h-3.24zm2.376 13.92c-3.72 0-6.888-2.328-6.888-6.36 0-3.552 2.76-6.384 6.384-6.384 3.48 0 6.144 2.832 6.144 6.384 0 .744-.096 1.416-.096 1.416h-8.136c.36 1.152 1.44 1.584 2.616 1.584 1.032 0 2.136-.312 2.904-.744l1.464 2.952c-1.368.84-2.88 1.152-4.392 1.152zm-2.712-7.416h4.368c-.144-1.128-1.032-1.896-2.16-1.896-1.08 0-1.944.768-2.208 1.896zM57.811 18V5.736h4.128v1.416c1.128-1.32 2.472-1.656 3.696-1.656 3.096 0 4.296 1.824 4.296 5.424V18h-4.368v-6.528c0-1.392-.528-1.896-1.368-1.896-1.344 0-2.016 1.128-2.016 2.64V18h-4.368zm27.33.24c-3.72 0-6.888-2.328-6.888-6.36 0-3.552 2.76-6.384 6.384-6.384 3.48 0 6.144 2.832 6.144 6.384 0 .744-.096 1.416-.096 1.416H82.55c.36 1.152 1.44 1.584 2.616 1.584 1.032 0 2.136-.312 2.904-.744l1.464 2.952c-1.368.84-2.88 1.152-4.392 1.152zm-2.712-7.416h4.368c-.144-1.128-1.032-1.896-2.16-1.896-1.08 0-1.944.768-2.208 1.896zM93.182 18V2.208h4.368V18h-4.368zm13.762 0V9.288h-1.848V5.832h1.848v-.768c0-2.688 1.536-4.2 3.888-4.2 1.08 0 2.376.168 3.432.696l-1.176 3.192a2.736 2.736 0 00-.96-.192c-.456 0-.816.24-.816 1.008v.264h2.4v3.456h-2.4V18h-4.368zm8.484 0V5.736h4.248V7.92c.072-.528 1.128-2.424 4.008-2.424v4.752c-3.168 0-3.888 1.32-3.888 3.624V18h-4.368zm15.439.24c-3.408 0-5.256-2.832-5.256-6.36 0-3.552 1.848-6.384 5.256-6.384.984 0 2.616.336 3.336 1.608V5.736h4.128V18h-4.128v-1.368c-.672 1.248-2.352 1.608-3.336 1.608zm1.152-3.84c1.152 0 1.968-1.032 1.968-2.52 0-1.464-.816-2.544-1.968-2.544-1.152 0-1.968 1.08-1.968 2.544 0 1.488.816 2.52 1.968 2.52zm13.287 3.84c-3.696 0-4.464-2.304-4.464-5.424v-7.08h4.368v6.528c0 1.296.432 1.896 1.584 1.896 1.32 0 1.8-1.128 1.8-2.64V5.736h4.368V18h-4.128v-1.344c-.672.864-2.256 1.584-3.528 1.584zm15.314 0c-3.408 0-5.256-2.832-5.256-6.36 0-3.552 1.968-6.384 5.4-6.384.984 0 2.208.336 2.952 1.272v-4.56h4.368V18h-4.128v-1.368c-.648 1.248-2.352 1.608-3.336 1.608zm1.152-3.84c1.152 0 1.968-1.032 1.968-2.52 0-1.464-.816-2.544-1.968-2.544-1.152 0-1.968 1.08-1.968 2.544 0 1.488.816 2.52 1.968 2.52zm15.59 3.84c-3.72 0-6.888-2.328-6.888-6.36 0-3.552 2.76-6.384 6.384-6.384 3.48 0 6.144 2.832 6.144 6.384 0 .744-.096 1.416-.096 1.416h-8.136c.36 1.152 1.44 1.584 2.616 1.584 1.032 0 2.136-.312 2.904-.744l1.464 2.952c-1.368.84-2.88 1.152-4.392 1.152zm-2.712-7.416h4.368c-.144-1.128-1.032-1.896-2.16-1.896-1.08 0-1.944.768-2.208 1.896zm13.321 7.416c-1.368 0-2.376-1.032-2.376-2.352 0-1.32 1.008-2.352 2.376-2.352 1.392 0 2.424 1.032 2.424 2.352 0 1.32-1.032 2.352-2.424 2.352z" fill="#fff"/></svg>