<svg width="129" height="29" viewBox="0 0 129 29" fill="none" xmlns="http://www.w3.org/2000/svg"><rect x="2" y="2" width="125" height="25" rx="4" fill="#fff"/><rect x="1" y="1" width="127" height="27" rx="5" stroke="#fff" stroke-opacity=".5" stroke-width="2"/><path d="M9.58 18.024v-7.1h2.73c.786 0 1.443.16 1.97.48a3 3 0 011.2 1.28c.273.534.41 1.127.41 1.78 0 .72-.15 1.347-.45 1.88-.294.534-.71.947-1.25 1.24-.534.294-1.16.44-1.88.44H9.58zm4.33-3.56c0-.366-.064-.686-.19-.96a1.467 1.467 0 00-.55-.65 1.563 1.563 0 00-.86-.23h-.78v3.7h.78c.34 0 .626-.08.86-.24.24-.16.423-.38.55-.66a2.35 2.35 0 00.19-.96zm8.688 1.86v1.7h-5.06v-7.1h4.97v1.7h-3.02v1h2.58v1.58h-2.58v1.12h3.11zm7.236-3.7h-2.04v5.4h-1.95v-5.4h-2.05v-1.7h6.04v1.7zm6.57 3.7v1.7h-5.06v-7.1h4.97v1.7h-3.02v1h2.58v1.58h-2.58v1.12h3.11zm-1.91-5.7l-1.2-.32.5-1.42h1.69l-.99 1.74zm5.567 3.91v3.49h-1.95v-7.1h1.52l2.85 3.61v-3.61h1.95v7.1h-1.55l-2.82-3.49zm9.435 3.49v-7.1h1.95v5.4h3.22v1.7h-5.17zm8.29-7.1h2.18l2.26 7.1h-1.98l-.43-1.39h-1.89l-.42 1.39h-1.99l2.27-7.1zm1.72 4.41l-.63-2.5-.66 2.5h1.29zm8.332-2.09l-.17-.1a4.096 4.096 0 00-.45-.22 4.662 4.662 0 00-.61-.23c-.22-.066-.437-.1-.65-.1a.917.917 0 00-.41.08c-.107.054-.16.144-.16.27 0 .12.053.217.16.29.107.074.257.14.45.2.2.06.437.134.71.22.44.134.82.287 1.14.46.32.174.567.397.74.67.173.267.26.624.26 1.07 0 .427-.077.787-.23 1.08-.153.287-.36.517-.62.69-.26.174-.55.3-.87.38-.32.074-.647.11-.98.11-.34 0-.697-.033-1.07-.1a8.157 8.157 0 01-1.07-.29 5.942 5.942 0 01-.95-.44l.84-1.71.2.12a5.781 5.781 0 001.26.54c.273.08.547.12.82.12.213 0 .36-.026.44-.08.087-.06.13-.136.13-.23 0-.14-.073-.246-.22-.32a2.796 2.796 0 00-.58-.22 78.47 78.47 0 01-.78-.25 4.574 4.574 0 01-1.02-.47 1.758 1.758 0 01-.59-.63c-.127-.246-.19-.543-.19-.89 0-.526.123-.966.37-1.32.247-.353.57-.62.97-.8.407-.186.843-.28 1.31-.28.347 0 .68.044 1 .13.327.08.63.18.91.3.287.12.537.234.75.34l-.84 1.61zm10.778 3.08v1.7h-5.06v-7.1h4.97v1.7h-3.02v1h2.58v1.58h-2.58v1.12h3.11zm6.007-3.08l-.17-.1a4.096 4.096 0 00-.45-.22 4.667 4.667 0 00-.61-.23c-.22-.066-.437-.1-.65-.1a.917.917 0 00-.41.08c-.107.054-.16.144-.16.27 0 .12.053.217.16.29.106.074.256.14.45.2.2.06.436.134.71.22.44.134.82.287 1.14.46.32.174.566.397.74.67.173.267.26.624.26 1.07 0 .427-.077.787-.23 1.08-.154.287-.36.517-.62.69-.26.174-.55.3-.87.38a4.37 4.37 0 01-.98.11c-.34 0-.697-.033-1.07-.1a8.153 8.153 0 01-1.07-.29 5.938 5.938 0 01-.95-.44l.84-1.71.2.12a5.776 5.776 0 001.26.54c.273.08.546.12.82.12.213 0 .36-.026.44-.08.086-.06.13-.136.13-.23 0-.14-.074-.246-.22-.32a2.798 2.798 0 00-.58-.22 78.47 78.47 0 01-.78-.25 4.574 4.574 0 01-1.02-.47 1.758 1.758 0 01-.59-.63c-.127-.246-.19-.543-.19-.89 0-.526.123-.966.37-1.32.246-.353.57-.62.97-.8.406-.186.843-.28 1.31-.28.346 0 .68.044 1 .13.326.08.63.18.91.3.286.12.536.234.75.34l-.84 1.61zm8.202-.62h-2.04v5.4h-1.95v-5.4h-2.05v-1.7h6.04v1.7zm2.495-1.7h2.18l2.26 7.1h-1.98l-.43-1.39h-1.89l-.42 1.39h-1.99l2.27-7.1zm1.72 4.41l-.63-2.5-.66 2.5h1.29zm4.11 2.69v-7.1h4.87v1.7h-2.92v1.18h2.38v1.58h-2.38v2.64h-1.95zm7.616-7.1h2.18l2.26 7.1h-1.98l-.43-1.39h-1.89l-.42 1.39h-1.99l2.27-7.1zm1.72 4.41l-.63-2.5-.66 2.5h1.29zm8.332-2.09l-.17-.1a4.043 4.043 0 00-.45-.22 4.683 4.683 0 00-.61-.23c-.22-.066-.437-.1-.65-.1a.917.917 0 00-.41.08c-.107.054-.16.144-.16.27 0 .12.053.217.16.29.107.074.257.14.45.2.2.06.437.134.71.22.44.134.82.287 1.14.46.32.174.567.397.74.67.173.267.26.624.26 1.07 0 .427-.077.787-.23 1.08-.153.287-.36.517-.62.69-.26.174-.55.3-.87.38-.32.074-.647.11-.98.11-.34 0-.697-.033-1.07-.1a8.153 8.153 0 01-1.07-.29 5.938 5.938 0 01-.95-.44l.84-1.71.2.12a5.759 5.759 0 001.26.54c.273.08.547.12.82.12.213 0 .36-.026.44-.08.087-.06.13-.136.13-.23 0-.14-.073-.246-.22-.32a2.805 2.805 0 00-.58-.22 83.87 83.87 0 01-.78-.25 4.587 4.587 0 01-1.02-.47 1.758 1.758 0 01-.59-.63c-.127-.246-.19-.543-.19-.89 0-.526.123-.966.37-1.32.247-.353.57-.62.97-.8.407-.186.843-.28 1.31-.28.347 0 .68.044 1 .13.327.08.63.18.91.3.287.12.537.234.75.34l-.84 1.61z" fill="#2B3D51"/></svg>