<svg width="472" height="46" viewBox="0 0 472 46" fill="none" xmlns="http://www.w3.org/2000/svg"><path d="M14.965 10.892V35H6.929V10.892H.328V4.086h21.238v6.806h-6.601zm15.938 3.075v11.849c0 2.597 1.258 3.895 3.772 3.895 2.515 0 3.772-1.298 3.772-3.895V13.967h7.421v13.284c0 2.843-.943 4.975-2.829 6.396-1.858 1.421-4.646 2.132-8.364 2.132-3.717 0-6.519-.71-8.405-2.132-1.858-1.421-2.788-3.553-2.788-6.396V13.967h7.421zM41.81 4.578l-7.134 6.314-3.444-2.542 5.863-7.175 4.715 3.403zm31.316 15.58V35h-7.421V20.158h-2.46v-6.191h2.46V7.653h7.42v6.314h4.224v6.191h-4.223zm14.301 4.264c0 .683.123 1.326.37 1.927a5.18 5.18 0 00.983 1.517c.437.437.943.779 1.517 1.025a5.04 5.04 0 001.927.369c.656 0 1.271-.123 1.845-.369a4.255 4.255 0 001.517-1.025 4.798 4.798 0 001.025-1.517c.273-.574.41-1.189.41-1.845 0-.656-.137-1.271-.41-1.845a4.684 4.684 0 00-1.025-1.558 4.255 4.255 0 00-1.517-1.025 4.634 4.634 0 00-1.845-.369 5.04 5.04 0 00-1.927.369 4.798 4.798 0 00-1.517 1.025 5.18 5.18 0 00-.984 1.517 4.346 4.346 0 00-.369 1.804zm9.348-10.455h7.462V35h-7.462v-2.337c-1.585 1.995-3.73 2.993-6.437 2.993-1.53 0-2.938-.273-4.223-.82a10.447 10.447 0 01-3.362-2.378c-.957-1.011-1.708-2.2-2.255-3.567-.52-1.367-.779-2.856-.779-4.469 0-1.503.26-2.925.78-4.264.518-1.367 1.243-2.556 2.172-3.567a9.993 9.993 0 013.321-2.378c1.285-.601 2.706-.902 4.264-.902 2.624 0 4.797.916 6.52 2.747v-2.091zm12.512 0h7.421v2.583c2.023-1.94 4.291-2.911 6.806-2.911 3.116 0 5.494 1.312 7.134 3.936 1.667-2.651 4.045-3.977 7.134-3.977.984 0 1.913.15 2.788.451a5.425 5.425 0 012.255 1.353c.629.601 1.121 1.394 1.476 2.378.383.984.574 2.173.574 3.567V35h-7.421V24.627c0-1.066-.082-1.94-.246-2.624-.137-.683-.355-1.216-.656-1.599-.273-.383-.601-.642-.984-.779a3.632 3.632 0 00-1.23-.205c-2.378 0-3.567 1.736-3.567 5.207V35h-7.421V24.627c0-1.066-.068-1.94-.205-2.624-.137-.71-.342-1.271-.615-1.681-.246-.41-.574-.683-.984-.82-.41-.164-.888-.246-1.435-.246a4.12 4.12 0 00-1.312.205c-.41.137-.779.41-1.107.82-.301.383-.547.93-.738 1.64-.164.683-.246 1.585-.246 2.706V35h-7.421V13.967zm58.17 10.578c0-.656-.123-1.271-.369-1.845a4.214 4.214 0 00-.984-1.558 4.694 4.694 0 00-1.558-1.025 4.331 4.331 0 00-1.886-.41c-.656 0-1.271.123-1.845.369a4.794 4.794 0 00-1.517 1.025c-.41.437-.752.957-1.025 1.558a4.634 4.634 0 00-.369 1.845c0 .656.123 1.271.369 1.845.246.574.587 1.08 1.025 1.517.437.41.943.752 1.517 1.025.601.246 1.23.369 1.886.369.656 0 1.271-.123 1.845-.369a4.34 4.34 0 001.476-1.025 4.803 4.803 0 001.025-1.517c.273-.574.41-1.175.41-1.804zm-9.348 20.951h-7.421V13.967h7.421v2.337c1.585-1.995 3.744-2.993 6.478-2.993 1.503 0 2.897.3 4.182.902a10.331 10.331 0 013.403 2.378 10.634 10.634 0 012.214 3.567c.546 1.367.82 2.829.82 4.387 0 1.558-.274 3.007-.82 4.346a10.73 10.73 0 01-2.214 3.526 10.007 10.007 0 01-3.321 2.378c-1.285.574-2.679.861-4.182.861-2.624 0-4.811-.902-6.56-2.706v12.546zm28.338-21.115c0 .71.123 1.367.369 1.968.273.574.615 1.08 1.025 1.517.437.437.943.779 1.517 1.025.601.246 1.23.369 1.886.369.656 0 1.271-.123 1.845-.369a4.257 4.257 0 001.517-1.025 4.803 4.803 0 001.025-1.517c.273-.601.41-1.244.41-1.927 0-.656-.137-1.271-.41-1.845a4.689 4.689 0 00-1.025-1.558 4.257 4.257 0 00-1.517-1.025 4.634 4.634 0 00-1.845-.369c-.656 0-1.285.123-1.886.369a4.794 4.794 0 00-1.517 1.025c-.41.437-.752.943-1.025 1.517a4.634 4.634 0 00-.369 1.845zm-7.831-.082c0-1.558.314-3.007.943-4.346a10.437 10.437 0 012.624-3.526c1.12-1.011 2.446-1.804 3.977-2.378 1.558-.574 3.252-.861 5.084-.861 1.804 0 3.471.287 5.002.861 1.558.547 2.897 1.326 4.018 2.337a10.12 10.12 0 012.665 3.567c.628 1.367.943 2.884.943 4.551 0 1.667-.328 3.198-.984 4.592a10.898 10.898 0 01-2.624 3.567c-1.121.984-2.474 1.75-4.059 2.296-1.558.547-3.253.82-5.084.82-1.804 0-3.472-.273-5.002-.82-1.531-.547-2.857-1.326-3.977-2.337a11.02 11.02 0 01-2.583-3.608c-.629-1.421-.943-2.993-.943-4.715zm45.395-3.526c-1.285-.875-2.583-1.312-3.895-1.312a5.46 5.46 0 00-2.009.369 4.81 4.81 0 00-1.599 1.066c-.465.437-.834.97-1.107 1.599-.246.601-.369 1.285-.369 2.05 0 .738.123 1.421.369 2.05a5.817 5.817 0 001.066 1.599 5.04 5.04 0 001.64 1.025 5.46 5.46 0 002.009.369c1.394 0 2.692-.478 3.895-1.435v6.314c-1.832.793-3.567 1.189-5.207 1.189-1.531 0-2.993-.26-4.387-.779a11.554 11.554 0 01-3.649-2.214 11.436 11.436 0 01-2.501-3.485c-.629-1.367-.943-2.884-.943-4.551 0-1.667.3-3.184.902-4.551.601-1.394 1.421-2.583 2.46-3.567 1.038-1.011 2.268-1.79 3.69-2.337 1.448-.574 2.993-.861 4.633-.861 1.804 0 3.471.383 5.002 1.148v6.314zm11.243 3.608c0 .71.123 1.367.369 1.968.274.574.615 1.08 1.025 1.517.438.437.943.779 1.517 1.025.602.246 1.23.369 1.886.369.656 0 1.271-.123 1.845-.369a4.248 4.248 0 001.517-1.025 4.786 4.786 0 001.025-1.517c.274-.601.41-1.244.41-1.927 0-.656-.136-1.271-.41-1.845a4.674 4.674 0 00-1.025-1.558 4.248 4.248 0 00-1.517-1.025 4.634 4.634 0 00-1.845-.369c-.656 0-1.284.123-1.886.369a4.806 4.806 0 00-1.517 1.025c-.41.437-.751.943-1.025 1.517a4.634 4.634 0 00-.369 1.845zm-7.831-.082c0-1.558.315-3.007.943-4.346a10.463 10.463 0 012.624-3.526c1.121-1.011 2.447-1.804 3.977-2.378 1.558-.574 3.253-.861 5.084-.861 1.804 0 3.472.287 5.002.861 1.558.547 2.898 1.326 4.018 2.337a10.107 10.107 0 012.665 3.567c.629 1.367.943 2.884.943 4.551 0 1.667-.328 3.198-.984 4.592a10.87 10.87 0 01-2.624 3.567c-1.12.984-2.473 1.75-4.059 2.296-1.558.547-3.252.82-5.084.82-1.804 0-3.471-.273-5.002-.82-1.53-.547-2.856-1.326-3.977-2.337a11.05 11.05 0 01-2.583-3.608c-.628-1.421-.943-2.993-.943-4.715zm50.35.123c0 .683.123 1.326.369 1.927a5.18 5.18 0 00.984 1.517c.437.437.943.779 1.517 1.025a5.036 5.036 0 001.927.369c.656 0 1.271-.123 1.845-.369a4.257 4.257 0 001.517-1.025 4.803 4.803 0 001.025-1.517c.273-.574.41-1.189.41-1.845 0-.656-.137-1.271-.41-1.845a4.689 4.689 0 00-1.025-1.558 4.257 4.257 0 00-1.517-1.025 4.634 4.634 0 00-1.845-.369c-.656 0-1.285.123-1.886.369a4.794 4.794 0 00-1.517 1.025c-.41.437-.752.943-1.025 1.517a4.346 4.346 0 00-.369 1.804zM287.12.97h7.462V35h-7.462v-2.337c-1.586 1.995-3.731 2.993-6.437 2.993-1.531 0-2.939-.287-4.223-.861a10.436 10.436 0 01-3.362-2.378 11.146 11.146 0 01-2.255-3.567c-.52-1.367-.779-2.843-.779-4.428 0-1.503.246-2.925.738-4.264.519-1.367 1.243-2.556 2.173-3.567a9.986 9.986 0 013.321-2.378c1.312-.601 2.747-.902 4.305-.902 2.624 0 4.797.916 6.519 2.747V.97zm27.887 20.459c-.246-1.039-.752-1.872-1.517-2.501-.765-.629-1.695-.943-2.788-.943-1.148 0-2.091.3-2.829.902-.711.601-1.162 1.449-1.353 2.542h8.487zm-8.692 4.305c0 3.198 1.503 4.797 4.51 4.797 1.613 0 2.829-.656 3.649-1.968h7.175c-1.449 4.81-5.07 7.216-10.865 7.216-1.777 0-3.403-.26-4.879-.779-1.476-.547-2.747-1.312-3.813-2.296a10.27 10.27 0 01-2.419-3.526c-.574-1.367-.861-2.897-.861-4.592 0-1.75.273-3.321.82-4.715.547-1.421 1.326-2.624 2.337-3.608 1.011-.984 2.228-1.736 3.649-2.255 1.449-.547 3.075-.82 4.879-.82 1.777 0 3.376.273 4.797.82 1.421.52 2.624 1.285 3.608 2.296s1.736 2.255 2.255 3.731c.519 1.449.779 3.089.779 4.92v.779h-15.621zm36.632-1.189c0-.656-.123-1.271-.369-1.845a4.689 4.689 0 00-1.025-1.558 4.806 4.806 0 00-1.517-1.025 4.331 4.331 0 00-1.886-.41c-.656 0-1.271.123-1.845.369a4.794 4.794 0 00-1.517 1.025c-.41.437-.752.957-1.025 1.558a4.634 4.634 0 00-.369 1.845c0 .656.123 1.271.369 1.845.246.574.587 1.08 1.025 1.517.437.41.943.752 1.517 1.025.601.246 1.23.369 1.886.369.656 0 1.271-.123 1.845-.369a4.34 4.34 0 001.476-1.025 4.803 4.803 0 001.025-1.517c.273-.574.41-1.175.41-1.804zM333.599.97v15.088c1.749-1.831 3.936-2.747 6.56-2.747 1.558 0 2.979.3 4.264.902 1.312.574 2.419 1.367 3.321 2.378.929.984 1.653 2.16 2.173 3.526.519 1.34.779 2.774.779 4.305 0 1.558-.274 3.02-.82 4.387a10.634 10.634 0 01-2.214 3.567 10.864 10.864 0 01-3.403 2.419c-1.285.574-2.679.861-4.182.861-2.734 0-4.893-.998-6.478-2.993V35h-7.421V.97h7.421zm36.702 20.459c-.246-1.039-.752-1.872-1.517-2.501-.766-.629-1.695-.943-2.788-.943-1.148 0-2.091.3-2.829.902-.711.601-1.162 1.449-1.353 2.542h8.487zm-8.692 4.305c0 3.198 1.503 4.797 4.51 4.797 1.612 0 2.829-.656 3.649-1.968h7.175c-1.449 4.81-5.071 7.216-10.865 7.216-1.777 0-3.403-.26-4.879-.779-1.476-.547-2.747-1.312-3.813-2.296a10.27 10.27 0 01-2.419-3.526c-.574-1.367-.861-2.897-.861-4.592 0-1.75.273-3.321.82-4.715.546-1.421 1.325-2.624 2.337-3.608 1.011-.984 2.227-1.736 3.649-2.255 1.448-.547 3.075-.82 4.879-.82 1.776 0 3.375.273 4.797.82 1.421.52 2.624 1.285 3.608 2.296s1.735 2.255 2.255 3.731c.519 1.449.779 3.089.779 4.92v.779h-15.621zm19.863-11.767h7.421v3.444c.792-1.257 1.763-2.214 2.911-2.87 1.148-.683 2.487-1.025 4.018-1.025h.615c.246 0 .519.027.82.082v7.093a7.05 7.05 0 00-3.198-.738c-1.722 0-3.021.52-3.895 1.558-.848 1.011-1.271 2.501-1.271 4.469V35h-7.421V13.967zm26.479 0V35h-7.421V13.967h7.421zm3.444-9.389l-7.134 6.314-3.444-2.542 5.863-7.175 4.715 3.403zm8.515 19.844c0 .683.123 1.326.369 1.927a5.18 5.18 0 00.984 1.517c.438.437.943.779 1.517 1.025a5.043 5.043 0 001.927.369c.656 0 1.271-.123 1.845-.369a4.248 4.248 0 001.517-1.025 4.786 4.786 0 001.025-1.517c.274-.574.41-1.189.41-1.845 0-.656-.136-1.271-.41-1.845a4.674 4.674 0 00-1.025-1.558 4.248 4.248 0 00-1.517-1.025 4.634 4.634 0 00-1.845-.369c-.683 0-1.325.123-1.927.369a4.806 4.806 0 00-1.517 1.025 5.18 5.18 0 00-.984 1.517 4.346 4.346 0 00-.369 1.804zm9.348-10.455h7.462V35h-7.462v-2.337c-1.585 1.995-3.731 2.993-6.437 2.993-1.53 0-2.938-.273-4.223-.82a10.458 10.458 0 01-3.362-2.378 11.18 11.18 0 01-2.255-3.567c-.519-1.367-.779-2.856-.779-4.469 0-1.503.26-2.925.779-4.264.52-1.367 1.244-2.556 2.173-3.567a10.007 10.007 0 013.321-2.378c1.285-.601 2.706-.902 4.264-.902 2.624 0 4.797.916 6.519 2.747v-2.091zm26.453 5.412c-1.367-.71-2.706-1.066-4.018-1.066-.684 0-1.244.137-1.681.41-.41.273-.615.642-.615 1.107 0 .246.027.451.082.615.082.137.232.273.451.41.246.137.587.26 1.025.369.464.11 1.066.246 1.804.41 2.05.41 3.58 1.148 4.592 2.214 1.011 1.039 1.517 2.378 1.517 4.018 0 1.23-.246 2.337-.738 3.321a7.263 7.263 0 01-2.05 2.501c-.875.656-1.927 1.162-3.157 1.517-1.23.383-2.583.574-4.059.574-2.843 0-5.645-.806-8.405-2.419l2.706-5.248c2.077 1.421 4.045 2.132 5.904 2.132.683 0 1.243-.15 1.681-.451.437-.3.656-.683.656-1.148 0-.273-.041-.492-.123-.656-.055-.191-.192-.355-.41-.492-.219-.164-.547-.3-.984-.41a14.2 14.2 0 00-1.64-.41c-2.296-.465-3.909-1.148-4.838-2.05-.902-.93-1.353-2.2-1.353-3.813 0-1.175.218-2.228.656-3.157a6.532 6.532 0 011.886-2.419c.82-.656 1.804-1.162 2.952-1.517 1.175-.355 2.473-.533 3.895-.533 2.323 0 4.578.451 6.765 1.353l-2.501 4.838zm6.551 11.685c0-.656.123-1.271.369-1.845a4.689 4.689 0 011.025-1.558 4.794 4.794 0 011.517-1.025 4.933 4.933 0 011.886-.369c.656 0 1.271.123 1.845.369a4.684 4.684 0 011.558 1.025c.437.437.779.957 1.025 1.558.246.574.369 1.189.369 1.845 0 .656-.123 1.285-.369 1.886a4.803 4.803 0 01-1.025 1.517 4.684 4.684 0 01-1.558 1.025 4.634 4.634 0 01-1.845.369 4.933 4.933 0 01-1.886-.369 4.803 4.803 0 01-2.542-2.542 4.934 4.934 0 01-.369-1.886z" fill="#fff"/></svg>