<svg width="218" height="29" viewBox="0 0 218 29" fill="none" xmlns="http://www.w3.org/2000/svg"><path d="M5.409 20.086c0 1.479-.812 2.262-2.465 2.262-1.682 0-2.494-.754-2.494-2.262 0-1.479.812-2.262 2.494-2.262 1.624 0 2.465.783 2.465 2.262zm8.163 0c0 1.479-.812 2.262-2.465 2.262-1.682 0-2.494-.754-2.494-2.262 0-1.479.812-2.262 2.494-2.262 1.624 0 2.465.783 2.465 2.262zm8.163 0c0 1.479-.812 2.262-2.465 2.262-1.682 0-2.494-.754-2.494-2.262 0-1.479.812-2.262 2.494-2.262 1.624 0 2.465.783 2.465 2.262zm13.21-7.453c0-1.392-.088-2.552-1.538-2.552-1.073 0-2.407.609-3.016 1.073v7.772c0 .464.03.522.464.58l1.392.203V22h-8.004v-2.32l1.305-.174c.406-.058.464-.145.464-.58V10.4c0-.319-.087-.522-.377-.609L24.07 9.24l.348-2.349h5.075l.232 1.508.116.058c1.45-1.073 3.132-1.856 5.104-1.856 3.161 0 4.38 1.74 4.38 4.93v7.395c0 .464.028.522.463.58l1.45.203V22h-6.293v-9.367zm15.167 9.715c-5.307 0-7.453-3.248-7.453-7.801 0-4.814 2.523-7.946 7.83-7.946 5.365 0 7.453 3.19 7.453 7.627 0 4.93-2.494 8.12-7.83 8.12zm.203-3.045c1.885 0 3.045-1.305 3.045-4.93 0-3.422-1.044-4.64-2.93-4.64-1.913 0-3.19 1.189-3.19 4.669 0 3.509 1.132 4.901 3.075 4.901zm15.608.348l1.305-.174c.406-.058.464-.145.464-.58V10.4c0-.319-.087-.522-.377-.609l-1.566-.551.319-2.349h5.104l.348 2.32h.174c.957-1.479 2.233-2.61 4.089-2.61.667 0 2 .116 2.523.261v5.278l-3.48-.116-.29-1.537c-.058-.261-.145-.319-.377-.319-.754 0-1.653.638-2.088 1.015v7.685c0 .464.029.551.464.58l2.87.232V22h-9.482v-2.349zm27.34 1.218c-1.798.87-3.77 1.479-5.945 1.479-5.597 0-7.51-3.48-7.51-8.004 0-5.249 3.218-7.743 7.191-7.743 3.828 0 6.38 2.001 6.38 7.018 0 .348-.029 1.363-.058 1.943h-8.874c.145 2.059 1.044 3.422 3.422 3.422 1.131 0 2.35-.261 4.321-.986l1.073 2.871zm-4.176-8.062c-.029-2.436-.986-3.074-2.175-3.074-1.247 0-2.262.696-2.436 3.074h4.611zm14.806-2.871c-.058-.261-.087-.348-.29-.406-.377-.116-1.073-.232-1.856-.232-1.45 0-2.263.551-2.263 1.479 0 1.189 1.596 1.45 3.365 1.856 2.291.522 4.872 1.334 4.872 4.727 0 3.538-2.871 4.988-6.554 4.988-2.64 0-5.22-.696-5.743-1.044v-4.205l3.103.232.29 1.653c.059.261.088.348.349.435.347.116 1.131.29 2.233.29 1.537 0 2.407-.435 2.407-1.508 0-1.16-1.16-1.508-2.639-1.769-2.436-.435-5.627-.957-5.627-4.756 0-3.596 3.075-5.075 6.41-5.075 2.291 0 4.524.522 5.336.841v4.205l-3.103-.203-.29-1.508zm5.634 15.892l1.16-.174c.406-.058.522-.174.522-.609V10.4c0-.319-.058-.493-.377-.609l-1.537-.551.319-2.349h5.104l.261 1.479.145.058c1.392-1.131 3.277-1.827 4.93-1.827 3.248 0 5.568 2.03 5.568 7.424 0 3.48-1.189 8.323-5.974 8.323-1.508 0-2.871-.493-4.089-1.45v4.118c0 .464.029.551.464.58l2.958.261v2.291h-9.454v-2.32zm6.032-7.975c.638.551 1.653 1.102 2.726 1.102 1.943 0 2.755-1.856 2.755-4.698 0-2.987-1.015-4.205-2.465-4.205-1.218 0-2.378.609-3.016 1.044v6.757zm19.47 4.495c-5.307 0-7.453-3.248-7.453-7.801 0-4.814 2.523-7.946 7.83-7.946 5.365 0 7.453 3.19 7.453 7.627 0 4.93-2.494 8.12-7.83 8.12zm.203-3.045c1.885 0 3.045-1.305 3.045-4.93 0-3.422-1.044-4.64-2.929-4.64-1.914 0-3.19 1.189-3.19 4.669 0 3.509 1.131 4.901 3.074 4.901zm20.071-6.67c0-1.392-.087-2.552-1.537-2.552-1.073 0-2.407.609-3.016 1.073v7.772c0 .464.029.522.464.58l1.392.203V22h-8.004v-2.32l1.305-.174c.406-.058.464-.145.464-.58V10.4c0-.319-.087-.522-.377-.609l-1.566-.551.348-2.349h5.075l.232 1.508.116.058c1.45-1.073 3.132-1.856 5.104-1.856 3.161 0 4.379 1.74 4.379 4.93v7.395c0 .464.029.522.464.58l1.45.203V22h-6.293v-9.367zm18.532 7.743l-.203-.029c-1.218 1.189-2.639 2.001-4.756 2.001-3.422 0-5.626-2.175-5.626-7.714 0-5.829 2.929-8.033 6.148-8.033 1.682 0 2.987.58 4.089 1.392V3.585c0-.29-.116-.493-.377-.58l-1.595-.551.319-2.349h5.829v18.85c0 .435.029.493.464.551l1.392.203V22h-5.394l-.29-1.624zm-.522-9.541c-.725-.493-1.653-.87-2.494-.87-2.146 0-2.987 2.001-2.987 4.582 0 2.813.812 4.379 2.639 4.379.986 0 2.059-.58 2.842-1.247v-6.844zm17.148 9.599l-.145-.029c-1.102 1.073-2.552 1.943-4.872 1.943-3.654 0-4.234-2.494-4.234-4.292 0-2.9 1.769-4.205 5.423-4.466l3.335-.232v-1.595c0-1.363-.145-2.291-1.943-2.291-1.392 0-2.117.203-2.117 1.943l-4.089-.348c0-3.915 3.567-4.466 6.235-4.466 4.408 0 6.177 1.189 6.177 5.249v7.047c0 .464.029.522.464.58l1.392.232V22h-5.336l-.29-1.566zm-2.465-4.524c-1.711.116-2.32.551-2.32 1.711 0 1.16.696 1.595 1.653 1.595.986 0 1.972-.551 2.639-1.044v-2.407l-1.972.145zm18.032-5.974c-.058-.261-.087-.348-.29-.406-.377-.116-1.073-.232-1.856-.232-1.45 0-2.262.551-2.262 1.479 0 1.189 1.595 1.45 3.364 1.856 2.291.522 4.872 1.334 4.872 4.727 0 3.538-2.871 4.988-6.554 4.988-2.639 0-5.22-.696-5.742-1.044v-4.205l3.103.232.29 1.653c.058.261.087.348.348.435.348.116 1.131.29 2.233.29 1.537 0 2.407-.435 2.407-1.508 0-1.16-1.16-1.508-2.639-1.769-2.436-.435-5.626-.957-5.626-4.756 0-3.596 3.074-5.075 6.409-5.075 2.291 0 4.524.522 5.336.841v4.205l-3.103-.203-.29-1.508zm11.319 10.15c0 1.479-.812 2.262-2.465 2.262-1.682 0-2.494-.754-2.494-2.262 0-1.479.812-2.262 2.494-2.262 1.624 0 2.465.783 2.465 2.262z" fill="#fff"/></svg>