<svg width="798" height="28" viewBox="0 0 798 28" fill="none" xmlns="http://www.w3.org/2000/svg"><path d="M8.24 21.308c-1.587 0-3.099-.187-4.536-.56-1.419-.392-2.613-.915-3.584-1.568l1.456-4.004c.616.392 1.288.728 2.016 1.008s1.484.504 2.268.672c.803.15 1.615.224 2.436.224 1.232 0 2.081-.159 2.548-.476.485-.317.728-.728.728-1.232 0-.448-.159-.793-.476-1.036-.317-.261-.915-.485-1.792-.672l-3.416-.7c-1.81-.373-3.164-1.017-4.06-1.932C.932 10.099.484 8.885.484 7.392c0-1.307.345-2.436 1.036-3.388.71-.97 1.699-1.717 2.968-2.24C5.758 1.223 7.241.952 8.94.952c1.4 0 2.716.196 3.948.588 1.232.373 2.24.896 3.024 1.568L14.456 6.86a8.338 8.338 0 00-2.52-1.232c-.933-.299-1.97-.448-3.108-.448-1.083 0-1.904.168-2.464.504-.541.317-.812.775-.812 1.372 0 .41.159.765.476 1.064.336.28.943.513 1.82.7l3.36.672c1.81.355 3.164.99 4.06 1.904.915.915 1.372 2.11 1.372 3.584 0 1.27-.355 2.38-1.064 3.332-.69.952-1.661 1.69-2.912 2.212-1.25.523-2.725.784-4.424.784zM19.605 21V6.776h4.984V21h-4.984zm-.112-16.24V.28h5.236v4.48h-5.236zM36.325 21V10.668c0-.653-.018-1.307-.056-1.96a32.253 32.253 0 00-.168-1.932h4.816l.532 4.368h-.756c.187-1.064.486-1.941.896-2.632.411-.69.924-1.204 1.54-1.54.616-.336 1.344-.504 2.184-.504.392 0 .682.019.868.056.206.019.42.075.644.168v4.368c-.466-.205-.84-.336-1.12-.392a5.759 5.759 0 00-1.092-.084c-.765 0-1.39.14-1.876.42-.485.261-.84.672-1.064 1.232-.205.56-.308 1.279-.308 2.156V21h-5.04zm19.542.308c-2.576 0-4.582-.663-6.02-1.988-1.419-1.325-2.128-3.145-2.128-5.46 0-1.437.299-2.716.896-3.836a6.391 6.391 0 012.52-2.604c1.083-.635 2.352-.952 3.808-.952 1.438 0 2.632.317 3.584.952.97.616 1.699 1.475 2.184 2.576.486 1.083.728 2.343.728 3.78v1.064h-9.548v-2.352h5.88l-.476.392c0-1.064-.205-1.848-.616-2.352-.392-.523-.952-.784-1.68-.784-.84 0-1.484.317-1.932.952-.43.616-.644 1.55-.644 2.8V14c0 1.25.308 2.165.924 2.744.616.579 1.503.868 2.66.868.747 0 1.447-.084 2.1-.252a6.588 6.588 0 001.904-.812l1.288 3.248c-.71.485-1.53.859-2.464 1.12-.933.261-1.922.392-2.968.392zm15.421 0c-1.568 0-2.94-.299-4.116-.896-1.176-.597-2.09-1.447-2.744-2.548-.653-1.12-.98-2.455-.98-4.004 0-1.55.327-2.875.98-3.976a6.404 6.404 0 012.744-2.52c1.176-.597 2.548-.896 4.116-.896.971 0 1.923.13 2.856.392.934.261 1.69.635 2.268 1.12l-1.4 3.388a4.573 4.573 0 00-1.54-.84 4.779 4.779 0 00-1.652-.308c-1.026 0-1.829.308-2.408.924-.56.616-.84 1.521-.84 2.716 0 1.195.28 2.11.84 2.744.579.616 1.382.924 2.408.924a5.38 5.38 0 001.652-.28 5.329 5.329 0 001.54-.84l1.4 3.388c-.597.467-1.362.84-2.296 1.12-.914.261-1.857.392-2.828.392zM78.755 21V6.776h4.984V21h-4.984zm-.112-16.24V.28h5.236v4.48h-5.236zm17.783 16.548a5.783 5.783 0 01-2.968-.784c-.878-.523-1.456-1.213-1.736-2.072h.308V21h-4.928V.392h4.984v8.792h-.336c.317-.821.905-1.475 1.764-1.96.877-.504 1.848-.756 2.912-.756 1.232 0 2.314.299 3.248.896.952.597 1.689 1.456 2.212 2.576.541 1.12.812 2.445.812 3.976 0 1.55-.271 2.875-.812 3.976-.523 1.101-1.26 1.95-2.212 2.548-.934.579-2.016.868-3.248.868zm-1.568-3.696c.82 0 1.493-.29 2.016-.868.54-.579.812-1.521.812-2.828s-.271-2.259-.812-2.856c-.523-.597-1.195-.896-2.016-.896-.84 0-1.522.299-2.044.896-.523.579-.784 1.521-.784 2.828s.26 2.259.784 2.856c.522.579 1.204.868 2.044.868zm18.047 3.696c-2.576 0-4.583-.663-6.02-1.988-1.419-1.325-2.128-3.145-2.128-5.46 0-1.437.299-2.716.896-3.836a6.386 6.386 0 012.52-2.604c1.083-.635 2.352-.952 3.808-.952 1.437 0 2.632.317 3.584.952.971.616 1.699 1.475 2.184 2.576.485 1.083.728 2.343.728 3.78v1.064h-9.548v-2.352h5.88l-.476.392c0-1.064-.205-1.848-.616-2.352-.392-.523-.952-.784-1.68-.784-.84 0-1.484.317-1.932.952-.429.616-.644 1.55-.644 2.8V14c0 1.25.308 2.165.924 2.744.616.579 1.503.868 2.66.868.747 0 1.447-.084 2.1-.252a6.584 6.584 0 001.904-.812l1.288 3.248c-.709.485-1.531.859-2.464 1.12-.933.261-1.923.392-2.968.392zm13.685 0c-1.325 0-2.529-.13-3.612-.392-1.064-.28-1.969-.653-2.716-1.12l1.204-3.248c.728.41 1.54.747 2.436 1.008.915.261 1.82.392 2.716.392.71 0 1.223-.103 1.54-.308.336-.224.504-.513.504-.868a.822.822 0 00-.308-.672c-.205-.168-.513-.29-.924-.364l-3.024-.532c-1.194-.224-2.128-.663-2.8-1.316-.653-.672-.98-1.54-.98-2.604 0-.97.262-1.81.784-2.52.523-.728 1.27-1.288 2.24-1.68.971-.41 2.119-.616 3.444-.616 1.083 0 2.11.121 3.08.364.99.243 1.848.625 2.576 1.148l-1.288 3.164c-.578-.392-1.26-.71-2.044-.952-.765-.261-1.484-.392-2.156-.392-.802 0-1.372.121-1.708.364-.336.224-.504.504-.504.84a.92.92 0 00.28.672c.187.168.486.29.896.364l3.024.532c1.232.205 2.175.635 2.828 1.288.672.635 1.008 1.503 1.008 2.604 0 1.027-.28 1.904-.84 2.632-.541.71-1.297 1.26-2.268 1.652-.97.373-2.1.56-3.388.56zm22.594 0c-1.811 0-3.155-.495-4.032-1.484-.859-1.008-1.288-2.53-1.288-4.564V6.776h4.984v8.512c0 .747.149 1.307.448 1.68.317.355.793.532 1.428.532.709 0 1.288-.252 1.736-.756.467-.523.7-1.204.7-2.044V6.776h4.984V21H153.3v-2.548h.42c-.448.915-1.055 1.624-1.82 2.128-.765.485-1.671.728-2.716.728zM161.537 21V10.64a34.173 34.173 0 00-.224-3.864h4.816l.28 2.464h-.308a4.773 4.773 0 011.988-2.044c.858-.485 1.829-.728 2.912-.728 1.661 0 2.902.495 3.724 1.484.84.97 1.26 2.492 1.26 4.564V21h-4.984v-8.26c0-.915-.159-1.55-.476-1.904-.318-.373-.775-.56-1.372-.56-.784 0-1.419.261-1.904.784-.486.504-.728 1.176-.728 2.016V21h-4.984zm23.325.308c-1.232 0-2.315-.29-3.248-.868-.933-.597-1.671-1.456-2.212-2.576-.523-1.12-.784-2.445-.784-3.976 0-1.55.261-2.875.784-3.976.541-1.12 1.279-1.97 2.212-2.548.933-.597 2.016-.896 3.248-.896 1.101 0 2.091.261 2.968.784.896.523 1.484 1.204 1.764 2.044h-.28l.308-2.52h4.788l-.168 1.932a34.173 34.173 0 00-.056 1.932V21h-4.928l-.056-2.408h.336c-.28.821-.868 1.484-1.764 1.988-.877.485-1.848.728-2.912.728zm1.596-3.696c.84 0 1.521-.29 2.044-.868.523-.597.784-1.55.784-2.856 0-1.307-.261-2.25-.784-2.828-.523-.597-1.204-.896-2.044-.896-.84 0-1.521.299-2.044.896-.523.579-.784 1.521-.784 2.828s.252 2.259.756 2.856c.523.579 1.213.868 2.072.868zM205.935 21V.392h4.984V21h-4.984zm8.347 0V.392h4.984V21h-4.984zm13.946.308c-1.232 0-2.315-.29-3.248-.868-.933-.597-1.671-1.456-2.212-2.576-.523-1.12-.784-2.445-.784-3.976 0-1.55.261-2.875.784-3.976.541-1.12 1.279-1.97 2.212-2.548.933-.597 2.016-.896 3.248-.896 1.101 0 2.091.261 2.968.784.896.523 1.484 1.204 1.764 2.044h-.28l.308-2.52h4.788l-.168 1.932a34.173 34.173 0 00-.056 1.932V21h-4.928l-.056-2.408h.336c-.28.821-.868 1.484-1.764 1.988-.877.485-1.848.728-2.912.728zm1.596-3.696c.84 0 1.521-.29 2.044-.868.523-.597.784-1.55.784-2.856 0-1.307-.261-2.25-.784-2.828-.523-.597-1.204-.896-2.044-.896-.84 0-1.521.299-2.044.896-.523.579-.784 1.521-.784 2.828s.252 2.259.756 2.856c.523.579 1.213.868 2.072.868zM240.928 21V10.64a34.173 34.173 0 00-.224-3.864h4.816l.28 2.464h-.308a4.64 4.64 0 011.82-2.016c.802-.504 1.745-.756 2.828-.756 1.045 0 1.932.252 2.66.756.746.485 1.288 1.26 1.624 2.324h-.476c.466-.97 1.138-1.727 2.016-2.268.896-.541 1.894-.812 2.996-.812 1.624 0 2.837.495 3.64 1.484.802.97 1.204 2.492 1.204 4.564V21h-5.012v-8.316c0-.877-.131-1.493-.392-1.848-.262-.373-.682-.56-1.26-.56-.728 0-1.298.261-1.708.784-.392.523-.588 1.241-.588 2.156V21h-4.984v-8.316c0-.877-.14-1.493-.42-1.848-.262-.373-.672-.56-1.232-.56-.728 0-1.298.261-1.708.784-.392.523-.588 1.241-.588 2.156V21h-4.984zm31.747.308c-1.232 0-2.315-.29-3.248-.868-.933-.597-1.671-1.456-2.212-2.576-.523-1.12-.784-2.445-.784-3.976 0-1.55.261-2.875.784-3.976.541-1.12 1.279-1.97 2.212-2.548.933-.597 2.016-.896 3.248-.896 1.101 0 2.091.261 2.968.784.896.523 1.484 1.204 1.764 2.044h-.28l.308-2.52h4.788l-.168 1.932a34.173 34.173 0 00-.056 1.932V21h-4.928l-.056-2.408h.336c-.28.821-.868 1.484-1.764 1.988-.877.485-1.848.728-2.912.728zm1.596-3.696c.84 0 1.521-.29 2.044-.868.523-.597.784-1.55.784-2.856 0-1.307-.261-2.25-.784-2.828-.523-.597-1.204-.896-2.044-.896-.84 0-1.521.299-2.044.896-.523.579-.784 1.521-.784 2.828s.252 2.259.756 2.856c.523.579 1.213.868 2.072.868zm16.759 3.696c-1.213 0-2.296-.29-3.248-.868-.952-.597-1.698-1.456-2.24-2.576-.541-1.12-.812-2.445-.812-3.976 0-1.55.262-2.875.784-3.976.542-1.12 1.288-1.97 2.24-2.548.971-.597 2.063-.896 3.276-.896 1.083 0 2.063.252 2.94.756.878.485 1.466 1.139 1.764 1.96h-.42V.392h4.984V21h-4.9v-2.548h.364c-.261.859-.84 1.55-1.736 2.072-.877.523-1.876.784-2.996.784zm1.596-3.696c.822 0 1.494-.29 2.016-.868.542-.597.812-1.55.812-2.856 0-1.307-.27-2.25-.812-2.828-.522-.597-1.194-.896-2.016-.896-.84 0-1.53.299-2.072.896-.522.579-.784 1.521-.784 2.828s.262 2.259.784 2.856c.542.579 1.232.868 2.072.868zm16.648 3.696c-1.232 0-2.315-.29-3.248-.868-.933-.597-1.671-1.456-2.212-2.576-.523-1.12-.784-2.445-.784-3.976 0-1.55.261-2.875.784-3.976.541-1.12 1.279-1.97 2.212-2.548.933-.597 2.016-.896 3.248-.896 1.101 0 2.091.261 2.968.784.896.523 1.484 1.204 1.764 2.044h-.28l.308-2.52h4.788l-.168 1.932a34.173 34.173 0 00-.056 1.932V21h-4.928l-.056-2.408h.336c-.28.821-.868 1.484-1.764 1.988-.877.485-1.848.728-2.912.728zm1.596-3.696c.84 0 1.521-.29 2.044-.868.523-.597.784-1.55.784-2.856 0-1.307-.261-2.25-.784-2.828-.523-.597-1.204-.896-2.044-.896-.84 0-1.521.299-2.044.896-.523.579-.784 1.521-.784 2.828s.252 2.259.756 2.856c.523.579 1.213.868 2.072.868zm13.119 7.728l-1.876-1.484c.728-.71 1.242-1.381 1.54-2.016a4.5 4.5 0 00.476-2.044L325.193 21h-3.556v-5.096h5.18v3.22c0 1.176-.214 2.24-.644 3.192-.41.97-1.138 1.979-2.184 3.024zm19.503-4.032c-1.811 0-3.155-.495-4.032-1.484-.859-1.008-1.288-2.53-1.288-4.564V6.776h4.984v8.512c0 .747.149 1.307.448 1.68.317.355.793.532 1.428.532.709 0 1.288-.252 1.736-.756.467-.523.7-1.204.7-2.044V6.776h4.984V21h-4.844v-2.548h.42c-.448.915-1.055 1.624-1.82 2.128-.765.485-1.671.728-2.716.728zM355.845 21V10.64a34.173 34.173 0 00-.224-3.864h4.816l.28 2.464h-.308a4.773 4.773 0 011.988-2.044c.858-.485 1.829-.728 2.912-.728 1.661 0 2.902.495 3.724 1.484.84.97 1.26 2.492 1.26 4.564V21h-4.984v-8.26c0-.915-.159-1.55-.476-1.904-.318-.373-.775-.56-1.372-.56-.784 0-1.419.261-1.904.784-.486.504-.728 1.176-.728 2.016V21h-4.984zm26.099 0V10.64a34.173 34.173 0 00-.224-3.864h4.816l.28 2.464h-.308a4.64 4.64 0 011.82-2.016c.802-.504 1.745-.756 2.828-.756 1.045 0 1.932.252 2.66.756.746.485 1.288 1.26 1.624 2.324h-.476c.466-.97 1.138-1.727 2.016-2.268.896-.541 1.894-.812 2.996-.812 1.624 0 2.837.495 3.64 1.484.802.97 1.204 2.492 1.204 4.564V21h-5.012v-8.316c0-.877-.131-1.493-.392-1.848-.262-.373-.682-.56-1.26-.56-.728 0-1.298.261-1.708.784-.392.523-.588 1.241-.588 2.156V21h-4.984v-8.316c0-.877-.14-1.493-.42-1.848-.262-.373-.672-.56-1.232-.56-.728 0-1.298.261-1.708.784-.392.523-.588 1.241-.588 2.156V21h-4.984zm33.651.308c-2.576 0-4.583-.663-6.02-1.988-1.419-1.325-2.128-3.145-2.128-5.46 0-1.437.299-2.716.896-3.836a6.386 6.386 0 012.52-2.604c1.083-.635 2.352-.952 3.808-.952 1.437 0 2.632.317 3.584.952.971.616 1.699 1.475 2.184 2.576.485 1.083.728 2.343.728 3.78v1.064h-9.548v-2.352h5.88l-.476.392c0-1.064-.205-1.848-.616-2.352-.392-.523-.952-.784-1.68-.784-.84 0-1.484.317-1.932.952-.429.616-.644 1.55-.644 2.8V14c0 1.25.308 2.165.924 2.744.616.579 1.503.868 2.66.868.747 0 1.447-.084 2.1-.252a6.584 6.584 0 001.904-.812l1.288 3.248c-.709.485-1.531.859-2.464 1.12-.933.261-1.923.392-2.968.392zM423.82 21V10.64a34.173 34.173 0 00-.224-3.864h4.816l.28 2.464h-.308a4.778 4.778 0 011.988-2.044c.859-.485 1.829-.728 2.912-.728 1.661 0 2.903.495 3.724 1.484.84.97 1.26 2.492 1.26 4.564V21h-4.984v-8.26c0-.915-.159-1.55-.476-1.904-.317-.373-.775-.56-1.372-.56-.784 0-1.419.261-1.904.784-.485.504-.728 1.176-.728 2.016V21h-4.984zm23.185.308c-1.325 0-2.529-.13-3.612-.392-1.064-.28-1.969-.653-2.716-1.12l1.204-3.248c.728.41 1.54.747 2.436 1.008.915.261 1.82.392 2.716.392.71 0 1.223-.103 1.54-.308.336-.224.504-.513.504-.868a.822.822 0 00-.308-.672c-.205-.168-.513-.29-.924-.364l-3.024-.532c-1.194-.224-2.128-.663-2.8-1.316-.653-.672-.98-1.54-.98-2.604 0-.97.262-1.81.784-2.52.523-.728 1.27-1.288 2.24-1.68.971-.41 2.119-.616 3.444-.616 1.083 0 2.11.121 3.08.364.99.243 1.848.625 2.576 1.148l-1.288 3.164c-.578-.392-1.26-.71-2.044-.952-.765-.261-1.484-.392-2.156-.392-.802 0-1.372.121-1.708.364-.336.224-.504.504-.504.84a.92.92 0 00.28.672c.187.168.486.29.896.364l3.024.532c1.232.205 2.175.635 2.828 1.288.672.635 1.008 1.503 1.008 2.604 0 1.027-.28 1.904-.84 2.632-.541.71-1.297 1.26-2.268 1.652-.97.373-2.1.56-3.388.56zm14.585 0c-1.232 0-2.315-.29-3.248-.868-.934-.597-1.671-1.456-2.212-2.576-.523-1.12-.784-2.445-.784-3.976 0-1.55.261-2.875.784-3.976.541-1.12 1.278-1.97 2.212-2.548.933-.597 2.016-.896 3.248-.896 1.101 0 2.09.261 2.968.784.896.523 1.484 1.204 1.764 2.044h-.28l.308-2.52h4.788l-.168 1.932a33.261 33.261 0 00-.056 1.932V21h-4.928l-.056-2.408h.336c-.28.821-.868 1.484-1.764 1.988-.878.485-1.848.728-2.912.728zm1.596-3.696c.84 0 1.521-.29 2.044-.868.522-.597.784-1.55.784-2.856 0-1.307-.262-2.25-.784-2.828-.523-.597-1.204-.896-2.044-.896-.84 0-1.522.299-2.044.896-.523.579-.784 1.521-.784 2.828s.252 2.259.756 2.856c.522.579 1.213.868 2.072.868zm10.207 9.688c-.448 0-.896-.028-1.344-.084a5.04 5.04 0 01-1.288-.336v-3.836c.28.093.551.159.812.196.243.037.504.056.784.056.541 0 .989-.159 1.344-.476.373-.299.56-.85.56-1.652V6.776h4.984v14.56c0 1.96-.467 3.444-1.4 4.452-.915 1.008-2.399 1.512-4.452 1.512zm.728-22.54V.28h5.236v4.48h-5.236zm16.018 16.548c-2.576 0-4.582-.663-6.02-1.988-1.418-1.325-2.128-3.145-2.128-5.46 0-1.437.299-2.716.896-3.836a6.399 6.399 0 012.52-2.604c1.083-.635 2.352-.952 3.808-.952 1.438 0 2.632.317 3.584.952.971.616 1.699 1.475 2.184 2.576.486 1.083.728 2.343.728 3.78v1.064h-9.548v-2.352h5.88l-.476.392c0-1.064-.205-1.848-.616-2.352-.392-.523-.952-.784-1.68-.784-.84 0-1.484.317-1.932.952-.429.616-.644 1.55-.644 2.8V14c0 1.25.308 2.165.924 2.744.616.579 1.503.868 2.66.868.747 0 1.447-.084 2.1-.252a6.584 6.584 0 001.904-.812l1.288 3.248c-.709.485-1.53.859-2.464 1.12-.933.261-1.922.392-2.968.392zm22.255 0c-1.213 0-2.296-.29-3.248-.868-.952-.597-1.698-1.456-2.24-2.576-.541-1.12-.812-2.445-.812-3.976 0-1.55.262-2.875.784-3.976.542-1.12 1.288-1.97 2.24-2.548.971-.597 2.063-.896 3.276-.896 1.083 0 2.063.252 2.94.756.878.485 1.466 1.139 1.764 1.96h-.42V.392h4.984V21h-4.9v-2.548h.364c-.261.859-.84 1.55-1.736 2.072-.877.523-1.876.784-2.996.784zm1.596-3.696c.822 0 1.494-.29 2.016-.868.542-.597.812-1.55.812-2.856 0-1.307-.27-2.25-.812-2.828-.522-.597-1.194-.896-2.016-.896-.84 0-1.53.299-2.072.896-.522.579-.784 1.521-.784 2.828s.262 2.259.784 2.856c.542.579 1.232.868 2.072.868zm18.552 3.696c-2.576 0-4.583-.663-6.02-1.988-1.419-1.325-2.128-3.145-2.128-5.46 0-1.437.299-2.716.896-3.836a6.386 6.386 0 012.52-2.604c1.083-.635 2.352-.952 3.808-.952 1.437 0 2.632.317 3.584.952.971.616 1.699 1.475 2.184 2.576.485 1.083.728 2.343.728 3.78v1.064h-9.548v-2.352h5.88l-.476.392c0-1.064-.205-1.848-.616-2.352-.392-.523-.952-.784-1.68-.784-.84 0-1.484.317-1.932.952-.429.616-.644 1.55-.644 2.8V14c0 1.25.308 2.165.924 2.744.616.579 1.503.868 2.66.868.747 0 1.447-.084 2.1-.252a6.584 6.584 0 001.904-.812l1.288 3.248c-.709.485-1.531.859-2.464 1.12-.933.261-1.923.392-2.968.392zm23.879 0c-2.016 0-3.537-.476-4.564-1.428-1.008-.97-1.512-2.436-1.512-4.396v-5.04h-2.66V6.776h2.66v-3.36l4.984-1.176v4.536h3.472v3.668h-3.472v4.844c0 .821.187 1.372.56 1.652.373.261.821.392 1.344.392.317 0 .588-.019.812-.056.243-.056.495-.13.756-.224v3.836a5.05 5.05 0 01-1.232.336 8.117 8.117 0 01-1.148.084zm11.961 0c-2.576 0-4.583-.663-6.02-1.988-1.419-1.325-2.128-3.145-2.128-5.46 0-1.437.299-2.716.896-3.836a6.386 6.386 0 012.52-2.604c1.083-.635 2.352-.952 3.808-.952 1.437 0 2.632.317 3.584.952.971.616 1.699 1.475 2.184 2.576.485 1.083.728 2.343.728 3.78v1.064h-9.548v-2.352h5.88l-.476.392c0-1.064-.205-1.848-.616-2.352-.392-.523-.952-.784-1.68-.784-.84 0-1.484.317-1.932.952-.429.616-.644 1.55-.644 2.8V14c0 1.25.308 2.165.924 2.744.616.579 1.503.868 2.66.868.747 0 1.447-.084 2.1-.252a6.584 6.584 0 001.904-.812l1.288 3.248c-.709.485-1.531.859-2.464 1.12-.933.261-1.923.392-2.968.392zM574.06 21l6.888-8.4v2.156l-6.496-7.98h5.824l3.528 4.62h-1.792l3.556-4.62h5.796l-6.496 8.008v-2.24L591.784 21h-5.88l-3.892-5.012h1.792L579.884 21h-5.824zm25.939.308c-2.016 0-3.537-.476-4.564-1.428-1.008-.97-1.512-2.436-1.512-4.396v-5.04h-2.66V6.776h2.66v-3.36l4.984-1.176v4.536h3.472v3.668h-3.472v4.844c0 .821.187 1.372.56 1.652.374.261.822.392 1.344.392.318 0 .588-.019.812-.056.243-.056.495-.13.756-.224v3.836c-.41.168-.821.28-1.232.336a8.107 8.107 0 01-1.148.084zm11.569 0c-1.586 0-2.958-.299-4.116-.896a6.444 6.444 0 01-2.688-2.548c-.634-1.12-.952-2.445-.952-3.976 0-1.55.318-2.875.952-3.976a6.444 6.444 0 012.688-2.548c1.158-.597 2.53-.896 4.116-.896 1.568 0 2.931.299 4.088.896a6.383 6.383 0 012.688 2.576c.635 1.101.952 2.417.952 3.948 0 1.512-.317 2.828-.952 3.948a6.383 6.383 0 01-2.688 2.576c-1.157.597-2.52.896-4.088.896zm0-3.696c.822 0 1.475-.29 1.96-.868.486-.597.728-1.55.728-2.856 0-1.307-.242-2.25-.728-2.828-.485-.597-1.138-.896-1.96-.896-.84 0-1.502.299-1.988.896-.485.579-.728 1.521-.728 2.828s.243 2.259.728 2.856c.486.579 1.148.868 1.988.868zm25.935 3.696c-1.586 0-2.958-.299-4.116-.896a6.444 6.444 0 01-2.688-2.548c-.634-1.12-.952-2.445-.952-3.976 0-1.55.318-2.875.952-3.976a6.444 6.444 0 012.688-2.548c1.158-.597 2.53-.896 4.116-.896 1.568 0 2.931.299 4.088.896a6.383 6.383 0 012.688 2.576c.635 1.101.952 2.417.952 3.948 0 1.512-.317 2.828-.952 3.948a6.383 6.383 0 01-2.688 2.576c-1.157.597-2.52.896-4.088.896zm0-3.696c.822 0 1.475-.29 1.96-.868.486-.597.728-1.55.728-2.856 0-1.307-.242-2.25-.728-2.828-.485-.597-1.138-.896-1.96-.896-.84 0-1.502.299-1.988.896-.485.579-.728 1.521-.728 2.828s.243 2.259.728 2.856c.486.579 1.148.868 1.988.868zm24.059 3.696c-1.81 0-3.154-.495-4.032-1.484-.858-1.008-1.288-2.53-1.288-4.564V6.776h4.984v8.512c0 .747.15 1.307.448 1.68.318.355.794.532 1.428.532.71 0 1.288-.252 1.736-.756.467-.523.7-1.204.7-2.044V6.776h4.984V21h-4.844v-2.548h.42c-.448.915-1.054 1.624-1.82 2.128-.765.485-1.67.728-2.716.728zM673.915 21V10.64a34.173 34.173 0 00-.224-3.864h4.816l.28 2.464h-.308a4.773 4.773 0 011.988-2.044c.858-.485 1.829-.728 2.912-.728 1.661 0 2.902.495 3.724 1.484.84.97 1.26 2.492 1.26 4.564V21h-4.984v-8.26c0-.915-.159-1.55-.476-1.904-.318-.373-.775-.56-1.372-.56-.784 0-1.419.261-1.904.784-.486.504-.728 1.176-.728 2.016V21h-4.984zm33.603.308c-2.576 0-4.583-.663-6.02-1.988-1.419-1.325-2.128-3.145-2.128-5.46 0-1.437.299-2.716.896-3.836a6.386 6.386 0 012.52-2.604c1.083-.635 2.352-.952 3.808-.952 1.437 0 2.632.317 3.584.952.971.616 1.699 1.475 2.184 2.576.485 1.083.728 2.343.728 3.78v1.064h-9.548v-2.352h5.88l-.476.392c0-1.064-.205-1.848-.616-2.352-.392-.523-.952-.784-1.68-.784-.84 0-1.484.317-1.932.952-.429.616-.644 1.55-.644 2.8V14c0 1.25.308 2.165.924 2.744.616.579 1.503.868 2.66.868.747 0 1.447-.084 2.1-.252a6.584 6.584 0 001.904-.812l1.288 3.248c-.709.485-1.531.859-2.464 1.12-.933.261-1.923.392-2.968.392zm8.225-.308V10.64a34.173 34.173 0 00-.224-3.864h4.816l.28 2.464h-.308a4.645 4.645 0 011.82-2.016c.803-.504 1.745-.756 2.828-.756 1.045 0 1.932.252 2.66.756.747.485 1.288 1.26 1.624 2.324h-.476c.467-.97 1.139-1.727 2.016-2.268.896-.541 1.895-.812 2.996-.812 1.624 0 2.837.495 3.64 1.484.803.97 1.204 2.492 1.204 4.564V21h-5.012v-8.316c0-.877-.131-1.493-.392-1.848-.261-.373-.681-.56-1.26-.56-.728 0-1.297.261-1.708.784-.392.523-.588 1.241-.588 2.156V21h-4.984v-8.316c0-.877-.14-1.493-.42-1.848-.261-.373-.672-.56-1.232-.56-.728 0-1.297.261-1.708.784-.392.523-.588 1.241-.588 2.156V21h-4.984zm31.747.308c-1.232 0-2.314-.29-3.248-.868-.933-.597-1.67-1.456-2.212-2.576-.522-1.12-.784-2.445-.784-3.976 0-1.55.262-2.875.784-3.976.542-1.12 1.279-1.97 2.212-2.548.934-.597 2.016-.896 3.248-.896 1.102 0 2.091.261 2.968.784.896.523 1.484 1.204 1.764 2.044h-.28l.308-2.52h4.788l-.168 1.932a34.173 34.173 0 00-.056 1.932V21h-4.928l-.056-2.408h.336c-.28.821-.868 1.484-1.764 1.988-.877.485-1.848.728-2.912.728zm1.596-3.696c.84 0 1.522-.29 2.044-.868.523-.597.784-1.55.784-2.856 0-1.307-.261-2.25-.784-2.828-.522-.597-1.204-.896-2.044-.896-.84 0-1.521.299-2.044.896-.522.579-.784 1.521-.784 2.828s.252 2.259.756 2.856c.523.579 1.214.868 2.072.868zM760.19 21V6.776h4.984V21h-4.984zm-.112-16.24V.28h5.236v4.48h-5.236zM768.536 21V.392h4.984V21h-4.984zm8.011 0v-5.096h5.18V21h-5.18zm7.909 0v-5.096h5.18V21h-5.18zm7.908 0v-5.096h5.18V21h-5.18z" fill="#fff"/></svg>