<svg width="239" height="47" viewBox="0 0 239 47" fill="none" xmlns="http://www.w3.org/2000/svg"><rect x="-.009" width="238.999" height="47" rx="2" fill="#EF6129"/><path d="M20.59 30V17.22h4.913c1.416 0 2.598.288 3.546.864a5.401 5.401 0 012.16 2.304c.492.96.738 2.028.738 3.204 0 1.296-.27 2.424-.81 3.384a5.522 5.522 0 01-2.25 2.232c-.96.528-2.088.792-3.384.792H20.59zm7.793-6.408c0-.66-.114-1.236-.342-1.728a2.64 2.64 0 00-.99-1.17c-.432-.276-.948-.414-1.548-.414H24.1v6.66h1.404c.612 0 1.128-.144 1.548-.432.432-.288.762-.684.99-1.188a4.23 4.23 0 00.342-1.728zm15.639 3.348V30h-9.108V17.22h8.946v3.06h-5.436v1.8h4.644v2.844h-4.644v2.016h5.598zm13.026-6.66h-3.672V30h-3.51v-9.72h-3.69v-3.06h10.872v3.06zm11.827 6.66V30h-9.108V17.22h8.946v3.06h-5.436v1.8h4.644v2.844h-4.644v2.016h5.598zm-3.438-10.26l-2.16-.576.9-2.556h3.042l-1.782 3.132zm10.02 7.038V30h-3.51V17.22h2.736l5.13 6.498V17.22h3.51V30h-2.79l-5.076-6.282zM92.44 30V17.22h3.51v9.72h5.796V30H92.44zm14.922-12.78h3.924L115.354 30h-3.564l-.774-2.502h-3.402L106.858 30h-3.582l4.086-12.78zm3.096 7.938l-1.134-4.5-1.188 4.5h2.322zm14.997-3.762l-.306-.18a7.362 7.362 0 00-.81-.396 8.372 8.372 0 00-1.098-.414 4.02 4.02 0 00-1.17-.18c-.3 0-.546.048-.738.144-.192.096-.288.258-.288.486 0 .216.096.39.288.522.192.132.462.252.81.36.36.108.786.24 1.278.396.792.24 1.476.516 2.052.828.576.312 1.02.714 1.332 1.206.312.48.468 1.122.468 1.926 0 .768-.138 1.416-.414 1.944-.276.516-.648.93-1.116 1.242-.468.312-.99.54-1.566.684a7.872 7.872 0 01-1.764.198c-.612 0-1.254-.06-1.926-.18a14.684 14.684 0 01-1.926-.522 10.705 10.705 0 01-1.71-.792l1.512-3.078.36.216c.24.144.558.306.954.486.396.18.834.342 1.314.486.492.144.984.216 1.476.216.384 0 .648-.048.792-.144.156-.108.234-.246.234-.414 0-.252-.132-.444-.396-.576a5.032 5.032 0 00-1.044-.396c-.42-.132-.888-.282-1.404-.45-.744-.252-1.356-.534-1.836-.846-.48-.324-.834-.702-1.062-1.134-.228-.444-.342-.978-.342-1.602 0-.948.222-1.74.666-2.376a4.18 4.18 0 011.746-1.44 5.584 5.584 0 012.358-.504c.624 0 1.224.078 1.8.234.588.144 1.134.324 1.638.54.516.216.966.42 1.35.612l-1.512 2.898zm19.4 5.544V30h-9.108V17.22h8.946v3.06h-5.436v1.8h4.644v2.844h-4.644v2.016h5.598zm10.812-5.544l-.306-.18a7.362 7.362 0 00-.81-.396 8.372 8.372 0 00-1.098-.414 4.02 4.02 0 00-1.17-.18c-.3 0-.546.048-.738.144-.192.096-.288.258-.288.486 0 .216.096.39.288.522.192.132.462.252.81.36.36.108.786.24 1.278.396.792.24 1.476.516 2.052.828.576.312 1.02.714 1.332 1.206.312.48.468 1.122.468 1.926 0 .768-.138 1.416-.414 1.944-.276.516-.648.93-1.116 1.242-.468.312-.99.54-1.566.684a7.872 7.872 0 01-1.764.198c-.612 0-1.254-.06-1.926-.18a14.684 14.684 0 01-1.926-.522 10.705 10.705 0 01-1.71-.792l1.512-3.078.36.216c.24.144.558.306.954.486.396.18.834.342 1.314.486.492.144.984.216 1.476.216.384 0 .648-.048.792-.144.156-.108.234-.246.234-.414 0-.252-.132-.444-.396-.576a5.032 5.032 0 00-1.044-.396c-.42-.132-.888-.282-1.404-.45-.744-.252-1.356-.534-1.836-.846-.48-.324-.834-.702-1.062-1.134-.228-.444-.342-.978-.342-1.602 0-.948.222-1.74.666-2.376a4.18 4.18 0 011.746-1.44 5.584 5.584 0 012.358-.504c.624 0 1.224.078 1.8.234.588.144 1.134.324 1.638.54.516.216.966.42 1.35.612l-1.512 2.898zm14.764-1.116h-3.672V30h-3.51v-9.72h-3.69v-3.06h10.872v3.06zm4.492-3.06h3.924L182.915 30h-3.564l-.774-2.502h-3.402L174.419 30h-3.582l4.086-12.78zm3.096 7.938l-1.134-4.5-1.188 4.5h2.322zM185.417 30V17.22h8.766v3.06h-5.256v2.124h4.284v2.844h-4.284V30h-3.51zm13.709-12.78h3.924L207.118 30h-3.564l-.774-2.502h-3.402L198.622 30h-3.582l4.086-12.78zm3.096 7.938l-1.134-4.5-1.188 4.5h2.322zm14.997-3.762l-.306-.18a7.362 7.362 0 00-.81-.396 8.372 8.372 0 00-1.098-.414 4.02 4.02 0 00-1.17-.18c-.3 0-.546.048-.738.144-.192.096-.288.258-.288.486 0 .216.096.39.288.522.192.132.462.252.81.36.36.108.786.24 1.278.396.792.24 1.476.516 2.052.828.576.312 1.02.714 1.332 1.206.312.48.468 1.122.468 1.926 0 .768-.138 1.416-.414 1.944-.276.516-.648.93-1.116 1.242-.468.312-.99.54-1.566.684a7.872 7.872 0 01-1.764.198c-.612 0-1.254-.06-1.926-.18a14.684 14.684 0 01-1.926-.522 10.705 10.705 0 01-1.71-.792l1.512-3.078.36.216c.24.144.558.306.954.486.396.18.834.342 1.314.486.492.144.984.216 1.476.216.384 0 .648-.048.792-.144.156-.108.234-.246.234-.414 0-.252-.132-.444-.396-.576a5.032 5.032 0 00-1.044-.396c-.42-.132-.888-.282-1.404-.45-.744-.252-1.356-.534-1.836-.846-.48-.324-.834-.702-1.062-1.134-.228-.444-.342-.978-.342-1.602 0-.948.222-1.74.666-2.376a4.18 4.18 0 011.746-1.44 5.584 5.584 0 012.358-.504c.624 0 1.224.078 1.8.234.588.144 1.134.324 1.638.54.516.216.966.42 1.35.612l-1.512 2.898z" fill="#fff"/></svg>