<svg width="218" height="30" viewBox="0 0 218 30" fill="none" xmlns="http://www.w3.org/2000/svg"><path d="M7.465 9.437H2.946L1.771 12H.055L5.277.782 10.315 12H8.572L7.465 9.437zm-.65-1.498L5.25 4.351 3.61 7.939h3.205zm6.35 7.684h-1.537V5.342h1.538v.724c.606-.606 1.294-.909 2.064-.909.916 0 1.67.337 2.263 1.012.602.67.902 1.515.902 2.536 0 .998-.298 1.83-.895 2.495-.593.661-1.34.991-2.242.991-.78 0-1.477-.312-2.092-.936v4.368zm3.658-6.911c0-.638-.173-1.158-.52-1.559a1.68 1.68 0 00-1.326-.608c-.565 0-1.023.196-1.374.588-.35.392-.526.907-.526 1.545 0 .624.175 1.14.526 1.545.347.396.802.594 1.367.594.534 0 .973-.2 1.32-.601.355-.401.533-.903.533-1.504zm3.48-3.37h1.537v.595c.283-.297.534-.5.752-.609.224-.114.488-.17.793-.17.406 0 .83.131 1.272.396l-.704 1.408c-.292-.21-.577-.315-.855-.315-.838 0-1.258.634-1.258 1.9V12h-1.538V5.342zm11.483 3.691h-4.771c.04.547.219.982.533 1.306.315.319.718.478 1.21.478.383 0 .7-.09.95-.273.246-.182.527-.52.841-1.012l1.299.725c-.2.342-.413.636-.636.882a3.522 3.522 0 01-.718.601c-.255.155-.53.27-.827.342-.296.073-.617.11-.964.11-.993 0-1.79-.32-2.392-.958-.602-.642-.903-1.494-.903-2.556 0-1.053.292-1.905.875-2.557.588-.642 1.367-.964 2.338-.964.98 0 1.755.312 2.325.937.565.62.847 1.479.847 2.577l-.007.362zm-1.579-1.258c-.214-.82-.731-1.23-1.552-1.23-.186 0-.362.03-.526.089a1.452 1.452 0 00-.451.246 1.535 1.535 0 00-.342.383c-.096.15-.168.321-.219.512h3.09zm3.548-2.433H35.3v.615c.537-.533 1.144-.8 1.818-.8.775 0 1.379.244 1.812.732.373.414.56 1.091.56 2.03V12h-1.545V8.281c0-.656-.091-1.11-.273-1.36-.178-.255-.502-.383-.97-.383-.511 0-.874.169-1.088.506-.21.333-.314.914-.314 1.743V12h-1.545V5.342zM46.627.454h1.544V12h-1.544v-.697c-.607.592-1.292.888-2.058.888-.912 0-1.668-.332-2.27-.998-.597-.679-.895-1.526-.895-2.543 0-.993.298-1.823.895-2.488.593-.67 1.338-1.005 2.236-1.005.78 0 1.476.32 2.092.957V.454zm-3.65 8.196c0 .638.17 1.158.512 1.559.35.406.793.608 1.326.608.57 0 1.03-.196 1.38-.588.352-.405.527-.92.527-1.544 0-.625-.175-1.14-.526-1.545-.351-.397-.807-.595-1.367-.595-.529 0-.971.2-1.327.601-.35.406-.526.907-.526 1.504zm13.48.383h-4.772c.04.547.219.982.533 1.306.314.319.718.478 1.21.478.383 0 .7-.09.95-.273.246-.182.527-.52.841-1.012l1.299.725a5.29 5.29 0 01-.636.882 3.521 3.521 0 01-.718.601c-.255.155-.53.27-.827.342-.296.073-.617.11-.964.11-.993 0-1.79-.32-2.392-.958-.602-.642-.903-1.494-.903-2.556 0-1.053.292-1.905.875-2.557.588-.642 1.368-.964 2.338-.964.98 0 1.755.312 2.325.937.565.62.847 1.479.847 2.577l-.007.362zm-1.58-1.258c-.214-.82-.731-1.23-1.552-1.23-.186 0-.362.03-.526.089a1.453 1.453 0 00-.451.246 1.535 1.535 0 00-.342.383c-.096.15-.168.321-.219.512h3.09zm13.33-2.146v2.044c-.351-.429-.666-.722-.944-.882a1.837 1.837 0 00-.963-.246c-.58 0-1.06.203-1.443.608-.383.406-.574.914-.574 1.525 0 .624.184 1.137.554 1.538.373.4.85.601 1.428.601.37 0 .695-.08.978-.239.273-.155.595-.456.964-.902v2.03c-.625.324-1.249.485-1.873.485-1.03 0-1.892-.332-2.584-.998-.693-.67-1.04-1.501-1.04-2.495 0-.993.352-1.832 1.053-2.515.702-.684 1.564-1.026 2.584-1.026a3.86 3.86 0 011.86.472zm1.456 2.994c0-.962.344-1.78 1.032-2.454.688-.675 1.527-1.012 2.515-1.012.994 0 1.837.34 2.53 1.019.683.679 1.025 1.513 1.025 2.502 0 .998-.344 1.834-1.032 2.508-.693.67-1.543 1.005-2.55 1.005-.998 0-1.834-.341-2.509-1.025-.674-.675-1.011-1.522-1.011-2.543zm1.572.027c0 .666.178 1.192.533 1.58.365.391.845.587 1.442.587.602 0 1.083-.193 1.443-.58.36-.388.54-.905.54-1.552 0-.648-.18-1.165-.54-1.552-.365-.392-.846-.588-1.443-.588-.587 0-1.064.196-1.428.588-.365.392-.547.898-.547 1.517zm4.286-6.59l-2.488 2.256-.841-.52 1.88-2.487 1.449.752zm3.158 3.282h1.538v.615c.296-.31.55-.52.759-.629.223-.114.503-.17.84-.17.753 0 1.347.327 1.785.984.483-.657 1.137-.985 1.962-.985 1.499 0 2.249.91 2.249 2.728V12h-1.545V8.302c0-.638-.078-1.09-.233-1.354-.16-.269-.421-.403-.786-.403-.424 0-.734.16-.93.478-.19.32-.287.832-.287 1.539V12h-1.544V8.322c0-1.185-.342-1.777-1.026-1.777-.433 0-.75.162-.95.485-.196.324-.294.834-.294 1.532V12h-1.538V5.342zm11.04 3.281c0-.962.344-1.78 1.032-2.454.688-.675 1.527-1.012 2.515-1.012.994 0 1.837.34 2.53 1.019.683.679 1.025 1.513 1.025 2.502 0 .998-.344 1.834-1.032 2.508-.693.67-1.543 1.005-2.55 1.005-.998 0-1.834-.341-2.509-1.025-.674-.675-1.011-1.522-1.011-2.543zm1.572.027c0 .666.178 1.192.533 1.58.365.391.846.587 1.442.587.602 0 1.083-.193 1.443-.58.36-.388.54-.905.54-1.552 0-.648-.18-1.165-.54-1.552-.365-.392-.846-.588-1.443-.588-.587 0-1.064.196-1.428.588-.365.392-.547.898-.547 1.517zm13.582 6.973h-1.538V5.342h1.538v.724c.607-.606 1.295-.909 2.065-.909.916 0 1.67.337 2.263 1.012.601.67.902 1.515.902 2.536 0 .998-.299 1.83-.896 2.495-.592.661-1.339.991-2.242.991-.779 0-1.476-.312-2.092-.936v4.368zm3.658-6.911c0-.638-.174-1.158-.52-1.559a1.68 1.68 0 00-1.326-.608c-.565 0-1.023.196-1.374.588-.351.392-.526.907-.526 1.545 0 .624.175 1.14.526 1.545.346.396.802.594 1.367.594.533 0 .973-.2 1.319-.601.356-.401.534-.903.534-1.504zm3.479-3.37h1.538v.595c.282-.297.533-.5.752-.609.223-.114.488-.17.793-.17.405 0 .829.131 1.271.396l-.704 1.408c-.291-.21-.576-.315-.854-.315-.839 0-1.258.634-1.258 1.9V12h-1.538V5.342zm5.079 3.281c0-.962.344-1.78 1.032-2.454.688-.675 1.527-1.012 2.516-1.012.993 0 1.836.34 2.529 1.019.683.679 1.025 1.513 1.025 2.502 0 .998-.344 1.834-1.032 2.508-.693.67-1.543 1.005-2.55 1.005-.998 0-1.834-.341-2.509-1.025-.674-.675-1.011-1.522-1.011-2.543zm1.572.027c0 .666.178 1.192.533 1.58.365.391.846.587 1.443.587.601 0 1.082-.193 1.442-.58.36-.388.54-.905.54-1.552 0-.648-.18-1.165-.54-1.552-.365-.392-.845-.588-1.442-.588-.588 0-1.065.196-1.429.588-.365.392-.547.898-.547 1.517zm9.112-1.873V12h-1.538V6.777h-.656V5.342h.656v-2.44h1.538v2.44h1.196v1.435h-1.196zm8.709 2.256h-4.772c.041.547.219.982.533 1.306.315.319.718.478 1.21.478.383 0 .7-.09.951-.273.246-.182.526-.52.84-1.012l1.299.725c-.2.342-.412.636-.636.882a3.515 3.515 0 01-.717.601 2.945 2.945 0 01-.827.342c-.297.073-.618.11-.964.11-.994 0-1.791-.32-2.393-.958-.601-.642-.902-1.494-.902-2.556 0-1.053.291-1.905.875-2.557.588-.642 1.367-.964 2.338-.964.979 0 1.754.312 2.324.937.565.62.848 1.479.848 2.577l-.007.362zm-1.579-1.258c-.215-.82-.732-1.23-1.552-1.23-.187 0-.362.03-.527.089a1.455 1.455 0 00-.451.246 1.546 1.546 0 00-.342.383 1.81 1.81 0 00-.218.512h3.09zm9.987 4.068c0 .314-.012.59-.035.827a5.166 5.166 0 01-.082.636 2.812 2.812 0 01-.642 1.292c-.602.692-1.429 1.039-2.482 1.039-.888 0-1.62-.24-2.194-.718-.592-.492-.934-1.174-1.025-2.044h1.545c.059.328.157.581.294.759.319.415.783.622 1.394.622 1.126 0 1.689-.69 1.689-2.071v-.93c-.611.624-1.315.936-2.113.936-.907 0-1.65-.328-2.228-.984-.584-.665-.875-1.497-.875-2.495 0-.97.271-1.796.813-2.475.584-.72 1.354-1.08 2.311-1.08.838 0 1.536.312 2.092.937v-.752h1.538v6.5zm-1.477-3.158c0-.648-.173-1.165-.519-1.552-.351-.397-.8-.595-1.347-.595-.584 0-1.044.217-1.381.65-.305.387-.458.888-.458 1.503 0 .607.153 1.103.458 1.49.333.425.793.636 1.381.636s1.053-.214 1.394-.642c.315-.388.472-.884.472-1.49zm9.761.348h-4.771c.041.547.219.982.533 1.306.315.319.718.478 1.21.478.383 0 .7-.09.95-.273.246-.182.527-.52.841-1.012l1.299.725c-.2.342-.412.636-.636.882a3.515 3.515 0 01-.717.601 2.94 2.94 0 01-.828.342c-.296.073-.617.11-.964.11-.993 0-1.791-.32-2.392-.958-.602-.642-.902-1.494-.902-2.556 0-1.053.291-1.905.875-2.557.587-.642 1.367-.964 2.337-.964.98 0 1.755.312 2.325.937.565.62.847 1.479.847 2.577l-.007.362zm-1.579-1.258c-.214-.82-.731-1.23-1.551-1.23-.187 0-.363.03-.527.089a1.455 1.455 0 00-.451.246 1.546 1.546 0 00-.342.383 1.81 1.81 0 00-.218.512h3.089zm3.548-2.433h1.538v.595c.283-.297.533-.5.752-.609.223-.114.488-.17.793-.17.406 0 .829.131 1.271.396l-.704 1.408c-.291-.21-.576-.315-.854-.315-.839 0-1.258.634-1.258 1.9V12h-1.538V5.342zm7.608 1.435V12h-1.538V6.777h-.656V5.342h.656v-2.44h1.538v2.44h1.196v1.435h-1.196zm8.709 2.256h-4.772c.041.547.219.982.534 1.306.314.319.717.478 1.209.478.383 0 .7-.09.951-.273.246-.182.526-.52.841-1.012l1.298.725c-.2.342-.412.636-.635.882a3.547 3.547 0 01-.718.601 2.933 2.933 0 01-.827.342c-.297.073-.618.11-.964.11-.994 0-1.791-.32-2.393-.958-.601-.642-.902-1.494-.902-2.556 0-1.053.292-1.905.875-2.557.588-.642 1.367-.964 2.338-.964.98 0 1.754.312 2.324.937.565.62.848 1.479.848 2.577l-.007.362zm-1.579-1.258c-.214-.82-.732-1.23-1.552-1.23-.187 0-.362.03-.526.089a1.46 1.46 0 00-.452.246 1.523 1.523 0 00-.341.383c-.096.15-.169.321-.219.512h3.09zM183.21 5.63v2.044c-.351-.429-.665-.722-.943-.882a1.84 1.84 0 00-.964-.246c-.579 0-1.06.203-1.442.608-.383.406-.575.914-.575 1.525 0 .624.185 1.137.554 1.538.374.4.85.601 1.429.601.369 0 .695-.08.977-.239.274-.155.595-.456.964-.902v2.03c-.624.324-1.248.485-1.873.485-1.03 0-1.891-.332-2.584-.998-.693-.67-1.039-1.501-1.039-2.495 0-.993.351-1.832 1.053-2.515.702-.684 1.563-1.026 2.584-1.026a3.86 3.86 0 011.859.472zm1.456 2.994c0-.962.344-1.78 1.032-2.454.688-.675 1.527-1.012 2.516-1.012.993 0 1.836.34 2.529 1.019.684.679 1.026 1.513 1.026 2.502 0 .998-.345 1.834-1.033 2.508-.692.67-1.542 1.005-2.549 1.005-.999 0-1.835-.341-2.509-1.025-.675-.675-1.012-1.522-1.012-2.543zm1.572.027c0 .666.178 1.192.533 1.58.365.391.846.587 1.443.587.601 0 1.082-.193 1.442-.58.36-.388.54-.905.54-1.552 0-.648-.18-1.165-.54-1.552-.364-.392-.845-.588-1.442-.588-.588 0-1.064.196-1.429.588-.364.392-.547.898-.547 1.517zm7.444-3.308h1.545v.615c.538-.533 1.144-.8 1.819-.8.774 0 1.378.244 1.811.732.374.414.561 1.091.561 2.03V12h-1.545V8.281c0-.656-.091-1.11-.274-1.36-.177-.255-.501-.383-.97-.383-.511 0-.873.169-1.087.506-.21.333-.315.914-.315 1.743V12h-1.545V5.342zm9.55 1.435V12h-1.538V6.777h-.656V5.342h.656v-2.44h1.538v2.44h1.196v1.435h-1.196zm2.522-1.435h1.538v.595c.283-.297.533-.5.752-.609.223-.114.488-.17.793-.17.406 0 .829.131 1.272.396l-.705 1.408c-.291-.21-.576-.315-.854-.315-.839 0-1.258.634-1.258 1.9V12h-1.538V5.342zm10.329 0h1.545V12h-1.545v-.697c-.634.592-1.315.888-2.044.888-.921 0-1.682-.332-2.283-.998-.597-.679-.896-1.526-.896-2.543 0-.998.299-1.83.896-2.495s1.344-.998 2.242-.998c.775 0 1.47.32 2.085.957v-.772zm-3.651 3.308c0 .638.171 1.158.513 1.559a1.68 1.68 0 001.326.608c.57 0 1.03-.196 1.381-.588.351-.405.527-.92.527-1.544 0-.625-.176-1.14-.527-1.545-.351-.397-.806-.595-1.367-.595-.529 0-.971.2-1.326.601-.351.406-.527.907-.527 1.504zM7.034 26.033H2.263c.04.547.218.982.533 1.306.314.319.718.478 1.21.478.383 0 .7-.09.95-.273.246-.182.526-.52.84-1.012l1.3.725c-.2.342-.413.636-.636.882a3.522 3.522 0 01-.718.601c-.255.155-.53.27-.827.342-.296.073-.617.11-.964.11-.993 0-1.79-.32-2.392-.958-.602-.642-.903-1.494-.903-2.556 0-1.053.292-1.905.875-2.557.588-.642 1.367-.964 2.338-.964.98 0 1.755.312 2.324.937.565.62.848 1.479.848 2.577l-.007.362zm-1.579-1.258c-.214-.82-.731-1.23-1.552-1.23-.187 0-.362.03-.526.089a1.452 1.452 0 00-.451.246 1.536 1.536 0 00-.342.383c-.096.15-.169.321-.219.512h3.09zm5.086-7.32V29H9.003V17.454h1.538zm8.421 6.322V29h-1.545v-5.223h-.547v-1.435h.547v-2.57c0-.84.146-1.431.438-1.778.4-.483.984-.724 1.75-.724.273 0 .617.08 1.032.239v1.572L20.48 19c-.333-.169-.607-.253-.82-.253-.274 0-.459.098-.554.294-.096.191-.144.56-.144 1.108v2.194h1.675v1.435h-1.675zm2.843-1.435h1.539v.595c.282-.297.533-.5.752-.609.223-.114.487-.17.793-.17.405 0 .829.131 1.271.396l-.704 1.408c-.292-.21-.577-.314-.855-.314-.838 0-1.257.633-1.257 1.9V29h-1.539v-6.658zm10.33 0h1.544V29h-1.545v-.697c-.633.592-1.314.888-2.044.888-.92 0-1.681-.332-2.283-.998-.597-.679-.895-1.526-.895-2.543 0-.998.298-1.83.895-2.495s1.345-.998 2.242-.998c.775 0 1.47.32 2.085.957v-.772zm-3.651 3.308c0 .638.17 1.158.513 1.559.35.406.793.608 1.326.608.57 0 1.03-.196 1.38-.587.352-.406.527-.921.527-1.545 0-.625-.175-1.14-.526-1.545-.351-.397-.807-.595-1.367-.595-.53 0-.971.2-1.327.601-.35.406-.526.907-.526 1.504zm8.955-3.308v3.821c0 1.103.435 1.654 1.306 1.654.87 0 1.305-.551 1.305-1.654v-3.821h1.538v3.855c0 .534-.066.994-.198 1.381a2.319 2.319 0 01-.663.937c-.52.45-1.18.676-1.982.676-.798 0-1.457-.225-1.976-.676a2.357 2.357 0 01-.677-.937c-.127-.31-.191-.77-.191-1.38v-3.856h1.538zm11.279-4.888h1.545V29h-1.545v-.697c-.606.592-1.292.888-2.058.888-.911 0-1.668-.332-2.27-.998-.596-.679-.895-1.526-.895-2.543 0-.993.299-1.822.896-2.488.592-.67 1.337-1.005 2.235-1.005.78 0 1.477.32 2.092.957v-5.66zm-3.65 8.196c0 .638.17 1.158.512 1.559.351.406.793.608 1.326.608.57 0 1.03-.196 1.381-.587.351-.406.526-.921.526-1.545 0-.625-.175-1.14-.526-1.545-.35-.397-.806-.595-1.367-.595-.529 0-.97.2-1.326.601-.351.406-.527.907-.527 1.504zm13.48.383h-4.772c.041.547.219.982.533 1.306.315.319.718.478 1.21.478.383 0 .7-.09.95-.273.247-.182.527-.52.841-1.012l1.3.725c-.201.342-.413.636-.637.882a3.522 3.522 0 01-.717.601c-.256.155-.531.27-.828.342-.296.073-.617.11-.963.11-.994 0-1.791-.32-2.393-.958-.602-.642-.902-1.494-.902-2.556 0-1.053.291-1.905.875-2.557.588-.642 1.367-.964 2.338-.964.98 0 1.754.312 2.324.937.565.62.847 1.479.847 2.577l-.006.362zm-1.58-1.258c-.214-.82-.73-1.23-1.551-1.23-.187 0-.363.03-.527.089a1.452 1.452 0 00-.45.246 1.537 1.537 0 00-.343.383c-.095.15-.168.321-.218.512h3.09zm13.057-2.433h1.544V29h-1.544v-.697c-.634.592-1.315.888-2.044.888-.92 0-1.682-.332-2.283-.998-.597-.679-.896-1.526-.896-2.543 0-.998.298-1.83.895-2.495s1.345-.998 2.243-.998c.774 0 1.47.32 2.085.957v-.772zm-3.65 3.308c0 .638.17 1.158.512 1.559.35.406.793.608 1.326.608.57 0 1.03-.196 1.38-.587.352-.406.527-.921.527-1.545 0-.625-.175-1.14-.526-1.545-.351-.397-.807-.595-1.367-.595-.529 0-.97.2-1.326.601-.351.406-.527.907-.527 1.504z" fill="#DEEDFC"/><path d="M78.05 29l1.793-10.556h2.715l2.114 5.628 2.1-5.628h2.716L91.282 29h-2.73l-.91-6.076L85.148 29h-1.091l-2.367-6.076L80.78 29h-2.73zm19.878-4.634a1.524 1.524 0 00-.518-.854 1.45 1.45 0 00-.952-.322c-.392 0-.714.103-.966.308-.243.205-.397.495-.462.868h2.898zm-2.968 1.47c0 1.092.513 1.638 1.54 1.638.55 0 .966-.224 1.246-.672h2.45c-.495 1.643-1.731 2.464-3.71 2.464A4.991 4.991 0 0194.82 29a3.883 3.883 0 01-1.302-.784 3.51 3.51 0 01-.826-1.204 4.013 4.013 0 01-.294-1.568c0-.597.093-1.134.28-1.61a3.39 3.39 0 01.798-1.232c.345-.336.76-.593 1.246-.77a4.69 4.69 0 011.666-.28c.607 0 1.153.093 1.638.28.485.177.896.439 1.232.784.336.345.593.77.77 1.274.177.495.266 1.055.266 1.68v.266H94.96zm9.414-.448c0 .233.042.453.126.658.084.196.196.369.336.518.15.15.322.266.518.35a1.725 1.725 0 001.288 0c.206-.084.378-.2.518-.35.15-.15.266-.322.35-.518.094-.196.14-.406.14-.63 0-.224-.046-.434-.14-.63a1.59 1.59 0 00-.35-.532 1.447 1.447 0 00-.518-.35 1.687 1.687 0 00-1.274 0c-.196.084-.368.2-.518.35-.14.15-.256.322-.35.518a1.484 1.484 0 00-.126.616zm3.192-8.008h2.548V29h-2.548v-.798c-.541.681-1.274 1.022-2.198 1.022a3.498 3.498 0 01-2.59-1.106 3.829 3.829 0 01-.77-1.218 4.229 4.229 0 01-.266-1.512c0-.513.084-.999.252-1.456.178-.467.425-.873.742-1.218a3.426 3.426 0 011.134-.812 3.486 3.486 0 011.47-.308c.896 0 1.638.313 2.226.938V17.38zm7.087 4.438V29h-2.534v-7.182h2.534zm-2.702-2.758c0-.196.037-.378.112-.546a1.469 1.469 0 01.756-.77 1.427 1.427 0 011.568.308 1.448 1.448 0 01.42 1.008c0 .196-.038.383-.112.56a1.439 1.439 0 01-.77.756 1.427 1.427 0 01-1.106 0 1.469 1.469 0 01-.448-.308 1.46 1.46 0 01-.308-.448 1.422 1.422 0 01-.112-.56zm10.131 5.082c-.438-.299-.882-.448-1.33-.448a1.87 1.87 0 00-.686.126 1.654 1.654 0 00-.546.364c-.158.15-.284.331-.378.546a1.835 1.835 0 00-.126.7c0 .252.042.485.126.7.094.205.215.387.364.546.159.15.346.266.56.35.215.084.444.126.686.126.476 0 .92-.163 1.33-.49v2.156c-.625.27-1.218.406-1.778.406a4.26 4.26 0 01-1.498-.266 3.953 3.953 0 01-1.246-.756 3.928 3.928 0 01-.854-1.19 3.685 3.685 0 01-.322-1.554c0-.57.103-1.087.308-1.554.206-.476.486-.882.84-1.218a3.68 3.68 0 011.26-.798 4.256 4.256 0 011.582-.294c.616 0 1.186.13 1.708.392v2.156zm4.078 1.246c0 .233.042.453.126.658.084.196.196.369.336.518.149.15.322.266.518.35a1.717 1.717 0 001.288 0c.205-.084.378-.2.518-.35.149-.15.266-.322.35-.518.093-.196.14-.406.14-.63 0-.224-.047-.434-.14-.63a1.604 1.604 0 00-.35-.532 1.456 1.456 0 00-.518-.35 1.717 1.717 0 00-1.288 0c-.196.084-.369.2-.518.35-.14.15-.252.322-.336.518a1.484 1.484 0 00-.126.616zm3.192-3.57h2.548V29h-2.548v-.798c-.542.681-1.274 1.022-2.198 1.022a3.641 3.641 0 01-1.442-.28 3.557 3.557 0 01-1.148-.812 3.794 3.794 0 01-.77-1.218 4.247 4.247 0 01-.266-1.526c0-.513.088-.999.266-1.456.177-.467.424-.873.742-1.218a3.406 3.406 0 011.134-.812 3.39 3.39 0 011.456-.308c.896 0 1.638.313 2.226.938v-.714zm4.552 0h2.534v1.176a2.85 2.85 0 01.994-.98c.392-.233.849-.35 1.372-.35h.21c.084 0 .177.01.28.028v2.422a2.408 2.408 0 00-1.092-.252c-.588 0-1.031.177-1.33.532-.289.345-.434.854-.434 1.526V29h-2.534v-7.182zm12.134 2.548a1.526 1.526 0 00-.518-.854 1.453 1.453 0 00-.952-.322c-.392 0-.714.103-.966.308-.243.205-.397.495-.462.868h2.898zm-2.968 1.47c0 1.092.513 1.638 1.54 1.638.55 0 .966-.224 1.246-.672h2.45c-.495 1.643-1.732 2.464-3.71 2.464A4.99 4.99 0 01142.93 29a3.883 3.883 0 01-1.302-.784 3.504 3.504 0 01-.826-1.204 4.013 4.013 0 01-.294-1.568c0-.597.093-1.134.28-1.61.186-.485.452-.896.798-1.232.345-.336.76-.593 1.246-.77a4.687 4.687 0 011.666-.28c.606 0 1.152.093 1.638.28.485.177.896.439 1.232.784.336.345.592.77.77 1.274.177.495.266 1.055.266 1.68v.266h-5.334zm6.936 1.82c0-.224.042-.434.126-.63a1.604 1.604 0 011.512-1.008c.224 0 .434.042.63.126.205.084.383.2.532.35.149.15.266.327.35.532a1.685 1.685 0 010 1.274 1.6 1.6 0 01-.882.868 1.684 1.684 0 01-1.274 0 1.635 1.635 0 01-.994-1.512z" fill="#fff"/></svg>