<svg width="231" height="23" viewBox="0 0 231 23" fill="none" xmlns="http://www.w3.org/2000/svg"><path d="M7.3 5.24V17H3.38V5.24H.16V1.92h10.36v3.32H7.3zm7.775 1.5v5.78c0 1.267.613 1.9 1.84 1.9s1.84-.633 1.84-1.9V6.74h3.62v6.48c0 1.387-.46 2.427-1.38 3.12-.907.693-2.267 1.04-4.08 1.04-1.813 0-3.18-.347-4.1-1.04-.907-.693-1.36-1.733-1.36-3.12V6.74h3.62zm5.32-4.58l-3.48 3.08L15.235 4l2.86-3.5 2.3 1.66zm15.276 7.6V17h-3.62V9.76h-1.2V6.74h1.2V3.66h3.62v3.08h2.06v3.02h-2.06zm6.976 2.08c0 .333.06.647.18.94.12.28.28.527.48.74.213.213.46.38.74.5.293.12.607.18.94.18.32 0 .62-.06.9-.18.293-.12.54-.287.74-.5.213-.213.38-.46.5-.74.133-.28.2-.58.2-.9 0-.32-.067-.62-.2-.9a2.285 2.285 0 00-.5-.76c-.2-.213-.447-.38-.74-.5a2.26 2.26 0 00-.9-.18c-.334 0-.647.06-.94.18a2.34 2.34 0 00-.74.5c-.2.213-.36.46-.48.74-.12.267-.18.56-.18.88zm4.56-5.1h3.64V17h-3.64v-1.14c-.773.973-1.82 1.46-3.14 1.46a5.206 5.206 0 01-2.06-.4 5.095 5.095 0 01-1.64-1.16 5.444 5.444 0 01-1.1-1.74 6.087 6.087 0 01-.38-2.18c0-.733.127-1.427.38-2.08a5.348 5.348 0 011.06-1.74c.453-.493.993-.88 1.62-1.16a4.845 4.845 0 012.08-.44c1.28 0 2.34.447 3.18 1.34V6.74zm6.103 0h3.62V8c.987-.947 2.094-1.42 3.32-1.42 1.52 0 2.68.64 3.48 1.92.814-1.293 1.974-1.94 3.48-1.94.48 0 .934.073 1.36.22.427.133.794.353 1.1.66.307.293.547.68.72 1.16.187.48.28 1.06.28 1.74V17h-3.62v-5.06c0-.52-.04-.947-.12-1.28-.066-.333-.173-.593-.32-.78a1.004 1.004 0 00-.48-.38 1.771 1.771 0 00-.6-.1c-1.16 0-1.74.847-1.74 2.54V17h-3.62v-5.06c0-.52-.033-.947-.1-1.28-.066-.347-.166-.62-.3-.82a.875.875 0 00-.48-.4c-.2-.08-.433-.12-.7-.12-.226 0-.44.033-.64.1s-.38.2-.54.4c-.146.187-.266.453-.36.8-.08.333-.12.773-.12 1.32V17h-3.62V6.74zm28.376 5.16c0-.32-.06-.62-.18-.9a2.05 2.05 0 00-.48-.76 2.284 2.284 0 00-.76-.5c-.28-.133-.587-.2-.92-.2-.32 0-.62.06-.9.18s-.527.287-.74.5c-.2.213-.367.467-.5.76-.12.28-.18.58-.18.9 0 .32.06.62.18.9s.286.527.5.74c.213.2.46.367.74.5.293.12.6.18.92.18.32 0 .62-.06.9-.18s.52-.287.72-.5c.213-.213.38-.46.5-.74.133-.28.2-.573.2-.88zm-4.56 10.22h-3.62V6.74h3.62v1.14c.773-.973 1.826-1.46 3.16-1.46.733 0 1.413.147 2.04.44.64.28 1.193.667 1.66 1.16a5.176 5.176 0 011.08 1.74c.266.667.4 1.38.4 2.14 0 .76-.134 1.467-.4 2.12a5.222 5.222 0 01-1.08 1.72c-.454.493-.994.88-1.62 1.16-.627.28-1.307.42-2.04.42-1.28 0-2.347-.44-3.2-1.32v6.12zm13.823-10.3c0 .347.06.667.18.96.133.28.3.527.5.74.213.213.46.38.74.5a2.407 2.407 0 001.82 0c.293-.12.54-.287.74-.5.213-.213.38-.46.5-.74.133-.293.2-.607.2-.94 0-.32-.067-.62-.2-.9a2.285 2.285 0 00-.5-.76c-.2-.213-.447-.38-.74-.5a2.407 2.407 0 00-1.82 0 2.34 2.34 0 00-.74.5c-.2.213-.367.46-.5.74-.12.28-.18.58-.18.9zm-3.82-.04c0-.76.153-1.467.46-2.12a5.096 5.096 0 011.28-1.72 6.01 6.01 0 011.94-1.16 7.12 7.12 0 012.48-.42c.88 0 1.693.14 2.44.42.76.267 1.413.647 1.96 1.14.56.48.993 1.06 1.3 1.74.307.667.46 1.407.46 2.22 0 .813-.16 1.56-.48 2.24a5.31 5.31 0 01-1.28 1.74c-.547.48-1.207.853-1.98 1.12-.76.267-1.587.4-2.48.4-.88 0-1.693-.133-2.44-.4a5.741 5.741 0 01-1.94-1.14 5.383 5.383 0 01-1.26-1.76c-.307-.693-.46-1.46-.46-2.3zm22.144-1.72c-.627-.427-1.26-.64-1.9-.64-.347 0-.673.06-.98.18a2.36 2.36 0 00-.78.52 2.323 2.323 0 00-.54.78c-.12.293-.18.627-.18 1 0 .36.06.693.18 1 .133.293.307.553.52.78.227.213.493.38.8.5.307.12.633.18.98.18.68 0 1.313-.233 1.9-.7v3.08c-.893.387-1.74.58-2.54.58a6.08 6.08 0 01-2.14-.38 5.634 5.634 0 01-1.78-1.08 5.587 5.587 0 01-1.22-1.7c-.307-.667-.46-1.407-.46-2.22 0-.813.147-1.553.44-2.22.293-.68.693-1.26 1.2-1.74a5.254 5.254 0 011.8-1.14 6.08 6.08 0 012.26-.42c.88 0 1.693.187 2.44.56v3.08zm5.485 1.76c0 .347.06.667.18.96.133.28.3.527.5.74.213.213.46.38.74.5a2.406 2.406 0 001.82 0c.293-.12.54-.287.74-.5.213-.213.38-.46.5-.74.133-.293.2-.607.2-.94 0-.32-.067-.62-.2-.9a2.29 2.29 0 00-.5-.76c-.2-.213-.447-.38-.74-.5a2.406 2.406 0 00-1.82 0c-.28.12-.527.287-.74.5-.2.213-.367.46-.5.74-.12.28-.18.58-.18.9zm-3.82-.04c0-.76.153-1.467.46-2.12a5.085 5.085 0 011.28-1.72 6 6 0 011.94-1.16c.76-.28 1.586-.42 2.48-.42.88 0 1.693.14 2.44.42a5.71 5.71 0 011.96 1.14c.56.48.993 1.06 1.3 1.74.306.667.46 1.407.46 2.22 0 .813-.16 1.56-.48 2.24a5.323 5.323 0 01-1.28 1.74c-.547.48-1.207.853-1.98 1.12-.76.267-1.587.4-2.48.4-.88 0-1.694-.133-2.44-.4a5.732 5.732 0 01-1.94-1.14 5.366 5.366 0 01-1.26-1.76c-.307-.693-.46-1.46-.46-2.3zm24.56.06c0 .333.06.647.18.94.12.28.28.527.48.74.214.213.46.38.74.5.294.12.607.18.94.18.32 0 .62-.06.9-.18.294-.12.54-.287.74-.5.214-.213.38-.46.5-.74.134-.28.2-.58.2-.9 0-.32-.066-.62-.2-.9a2.275 2.275 0 00-.5-.76 2.07 2.07 0 00-.74-.5 2.26 2.26 0 00-.9-.18c-.32 0-.626.06-.92.18-.28.12-.526.287-.74.5-.2.213-.366.46-.5.74-.12.267-.18.56-.18.88zM140.058.4h3.64V17h-3.64v-1.14c-.773.973-1.82 1.46-3.14 1.46a4.996 4.996 0 01-3.7-1.58 5.463 5.463 0 01-1.1-1.74 6.038 6.038 0 01-.38-2.16c0-.733.12-1.427.36-2.08a5.367 5.367 0 011.06-1.74c.454-.493.994-.88 1.62-1.16a4.98 4.98 0 012.1-.44c1.28 0 2.34.447 3.18 1.34V.4zm13.604 9.98a2.18 2.18 0 00-.74-1.22c-.373-.307-.827-.46-1.36-.46-.56 0-1.02.147-1.38.44-.347.293-.567.707-.66 1.24h4.14zm-4.24 2.1c0 1.56.733 2.34 2.2 2.34.787 0 1.38-.32 1.78-.96h3.5c-.707 2.347-2.473 3.52-5.3 3.52-.867 0-1.66-.127-2.38-.38a5.547 5.547 0 01-1.86-1.12 5.008 5.008 0 01-1.18-1.72c-.28-.667-.42-1.413-.42-2.24 0-.853.133-1.62.4-2.3a4.85 4.85 0 011.14-1.76 4.952 4.952 0 011.78-1.1c.707-.267 1.5-.4 2.38-.4.867 0 1.647.133 2.34.4.693.253 1.28.627 1.76 1.12.48.493.847 1.1 1.1 1.82.253.707.38 1.507.38 2.4v.38h-7.62zm17.869-.58c0-.32-.06-.62-.18-.9a2.29 2.29 0 00-1.24-1.26c-.28-.133-.587-.2-.92-.2-.32 0-.62.06-.9.18s-.527.287-.74.5c-.2.213-.367.467-.5.76-.12.28-.18.58-.18.9 0 .32.06.62.18.9s.287.527.5.74c.213.2.46.367.74.5a2.406 2.406 0 001.82 0c.28-.12.52-.287.72-.5.213-.213.38-.46.5-.74.133-.28.2-.573.2-.88zM162.731.4v7.36c.853-.893 1.92-1.34 3.2-1.34.76 0 1.453.147 2.08.44.64.28 1.18.667 1.62 1.16.453.48.807 1.053 1.06 1.72.253.653.38 1.353.38 2.1 0 .76-.133 1.473-.4 2.14a5.166 5.166 0 01-2.74 2.92c-.627.28-1.307.42-2.04.42-1.333 0-2.387-.487-3.16-1.46V17h-3.62V.4h3.62zm17.904 9.98a2.18 2.18 0 00-.74-1.22c-.374-.307-.827-.46-1.36-.46-.56 0-1.02.147-1.38.44-.347.293-.567.707-.66 1.24h4.14zm-4.24 2.1c0 1.56.733 2.34 2.2 2.34.786 0 1.38-.32 1.78-.96h3.5c-.707 2.347-2.474 3.52-5.3 3.52-.867 0-1.66-.127-2.38-.38a5.547 5.547 0 01-1.86-1.12 5.008 5.008 0 01-1.18-1.72c-.28-.667-.42-1.413-.42-2.24 0-.853.133-1.62.4-2.3a4.825 4.825 0 011.14-1.76 4.944 4.944 0 011.78-1.1c.706-.267 1.5-.4 2.38-.4.866 0 1.646.133 2.34.4.693.253 1.28.627 1.76 1.12.48.493.846 1.1 1.1 1.82.253.707.38 1.507.38 2.4v.38h-7.62zm9.689-5.74h3.62v1.68c.386-.613.86-1.08 1.42-1.4.56-.333 1.213-.5 1.96-.5h.3c.12 0 .253.013.4.04v3.46c-.48-.24-1-.36-1.56-.36-.84 0-1.474.253-1.9.76-.414.493-.62 1.22-.62 2.18V17h-3.62V6.74zm12.917 0V17h-3.62V6.74h3.62zm1.68-4.58l-3.48 3.08-1.68-1.24 2.86-3.5 2.3 1.66zm4.153 9.68c0 .333.06.647.18.94.12.28.28.527.48.74.214.213.46.38.74.5.294.12.607.18.94.18.32 0 .62-.06.9-.18.294-.12.54-.287.74-.5.214-.213.38-.46.5-.74.134-.28.2-.58.2-.9 0-.32-.066-.62-.2-.9a2.275 2.275 0 00-.5-.76 2.07 2.07 0 00-.74-.5 2.26 2.26 0 00-.9-.18c-.333 0-.646.06-.94.18-.28.12-.526.287-.74.5-.2.213-.36.46-.48.74-.12.267-.18.56-.18.88zm4.56-5.1h3.64V17h-3.64v-1.14c-.773.973-1.82 1.46-3.14 1.46a5.21 5.21 0 01-2.06-.4 5.107 5.107 0 01-1.64-1.16 5.463 5.463 0 01-1.1-1.74 6.096 6.096 0 01-.38-2.18c0-.733.127-1.427.38-2.08a5.367 5.367 0 011.06-1.74c.454-.493.994-.88 1.62-1.16a4.847 4.847 0 012.08-.44c1.28 0 2.34.447 3.18 1.34V6.74zm12.904 2.64c-.667-.347-1.32-.52-1.96-.52-.334 0-.607.067-.82.2-.2.133-.3.313-.3.54 0 .12.013.22.04.3.04.067.113.133.22.2.12.067.286.127.5.18.226.053.52.12.88.2 1 .2 1.746.56 2.24 1.08.493.507.74 1.16.74 1.96 0 .6-.12 1.14-.36 1.62-.24.48-.574.887-1 1.22-.427.32-.94.567-1.54.74-.6.187-1.26.28-1.98.28-1.387 0-2.754-.393-4.1-1.18l1.32-2.56c1.013.693 1.973 1.04 2.88 1.04.333 0 .606-.073.82-.22.213-.147.32-.333.32-.56a.72.72 0 00-.06-.32.431.431 0 00-.2-.24 1.369 1.369 0 00-.48-.2 6.936 6.936 0 00-.8-.2c-1.12-.227-1.907-.56-2.36-1-.44-.453-.66-1.073-.66-1.86 0-.573.106-1.087.32-1.54.213-.467.52-.86.92-1.18.4-.32.88-.567 1.44-.74a6.542 6.542 0 011.9-.26c1.133 0 2.233.22 3.3.66l-1.22 2.36zm3.196 5.7c0-.32.06-.62.18-.9.12-.293.286-.547.5-.76.213-.213.46-.38.74-.5a2.406 2.406 0 011.82 0c.293.12.546.287.76.5.213.213.38.467.5.76a2.407 2.407 0 010 1.82 2.295 2.295 0 01-1.26 1.24 2.406 2.406 0 01-1.82 0 2.337 2.337 0 01-1.24-1.24c-.12-.293-.18-.6-.18-.92z" fill="#fff"/></svg>