<svg width="507" height="26" viewBox="0 0 507 26" fill="none" xmlns="http://www.w3.org/2000/svg"><path d="M11 18.05l2.05-.225-.9-2.6h-6.2l-.875 2.6 1.975.225V20H.075v-1.95l1.1-.275c.3-.075.525-.175.625-.475L7.275 1.9H11.7l5.45 15.45c.1.3.3.35.6.425l1.15.275V20H11v-1.95zM9.025 5.725l-2.3 6.8H11.4l-2.225-6.8h-.15zM19.845 23.3l1-.15c.35-.05.45-.15.45-.525V10c0-.275-.05-.425-.325-.525L19.645 9l.275-2.025h4.4l.225 1.275.125.05c1.2-.975 2.825-1.575 4.25-1.575 2.8 0 4.8 1.75 4.8 6.4 0 3-1.025 7.175-5.15 7.175-1.3 0-2.475-.425-3.525-1.25v3.55c0 .4.025.475.4.5l2.55.225V25.3h-8.15v-2zm5.2-6.875c.55.475 1.425.95 2.35.95 1.675 0 2.375-1.6 2.375-4.05 0-2.575-.875-3.625-2.125-3.625-1.05 0-2.05.525-2.6.9v5.825zm10.456 1.55l1.125-.15c.35-.05.4-.125.4-.5V10c0-.275-.075-.45-.325-.525L35.35 9l.275-2.025h4.4l.3 2h.15C41.3 7.7 42.4 6.725 44 6.725c.575 0 1.725.1 2.175.225v4.55l-3-.1-.25-1.325c-.05-.225-.125-.275-.325-.275-.65 0-1.425.55-1.8.875V17.3c0 .4.025.475.4.5l2.475.2v2H35.5v-2.025zm23.569 1.05c-1.55.75-3.25 1.275-5.125 1.275-4.825 0-6.475-3-6.475-6.9 0-4.525 2.775-6.675 6.2-6.675 3.3 0 5.5 1.725 5.5 6.05 0 .3-.025 1.175-.05 1.675h-7.65c.125 1.775.9 2.95 2.95 2.95.975 0 2.025-.225 3.725-.85l.925 2.475zm-3.6-6.95c-.025-2.1-.85-2.65-1.875-2.65-1.075 0-1.95.6-2.1 2.65h3.975zm14.585-.15c0-1.2-.075-2.2-1.325-2.2-.925 0-2.075.525-2.6.925v6.7c0 .4.025.45.4.5l1.2.175V20h-6.9v-2l1.125-.15c.35-.05.4-.125.4-.5V10c0-.275-.075-.45-.325-.525L60.68 9l.3-2.025h4.375l.2 1.3.1.05c1.25-.925 2.7-1.6 4.4-1.6 2.725 0 3.775 1.5 3.775 4.25v6.375c0 .4.025.45.4.5l1.25.175V20h-5.425v-8.075zM86.03 18.6l-.175-.025c-1.05 1.025-2.275 1.725-4.1 1.725-2.95 0-4.85-1.875-4.85-6.65 0-5.025 2.525-6.925 5.3-6.925 1.45 0 2.575.5 3.525 1.2v-3.8c0-.25-.1-.425-.325-.5L84.03 3.15l.275-2.025h5.025v16.25c0 .375.025.425.4.475l1.2.175V20h-4.65l-.25-1.4zm-.45-8.225c-.625-.425-1.425-.75-2.15-.75-1.85 0-2.575 1.725-2.575 3.95 0 2.425.7 3.775 2.275 3.775.85 0 1.775-.5 2.45-1.075v-5.9zm18.063 8.65c-1.55.75-3.25 1.275-5.125 1.275-4.825 0-6.475-3-6.475-6.9 0-4.525 2.775-6.675 6.2-6.675 3.3 0 5.5 1.725 5.5 6.05 0 .3-.025 1.175-.05 1.675h-7.65c.125 1.775.9 2.95 2.95 2.95.975 0 2.025-.225 3.725-.85l.925 2.475zm-3.6-6.95c-.025-2.1-.85-2.65-1.875-2.65-1.075 0-1.95.6-2.1 2.65h3.975zm18.814 6.575l-.125-.025c-.95.925-2.2 1.675-4.2 1.675-3.15 0-3.65-2.15-3.65-3.7 0-2.5 1.525-3.625 4.675-3.85l2.875-.2v-1.375c0-1.175-.125-1.975-1.675-1.975-1.2 0-1.825.175-1.825 1.675l-3.525-.3c0-3.375 3.075-3.85 5.375-3.85 3.8 0 5.325 1.025 5.325 4.525v6.075c0 .4.025.45.4.5l1.2.2V20h-4.6l-.25-1.35zm-2.125-3.9c-1.475.1-2 .475-2 1.475s.6 1.375 1.425 1.375c.85 0 1.7-.475 2.275-.9v-2.075l-1.7.125zm18.794-12.025c0 1.425-.825 2.25-2.275 2.25-1.425 0-2.25-.825-2.25-2.25s.825-2.2 2.25-2.2c1.45 0 2.275.775 2.275 2.2zm-5.5 15.3l1.275-.175c.35-.05.4-.125.4-.5V10c0-.275-.075-.45-.325-.525L130.026 9l.275-2.025h5.175V17.35c0 .4.025.45.4.5l1.275.175V20h-7.125v-1.975zm17.587.575l-.175-.025c-1.05 1.025-2.275 1.725-4.1 1.725-2.95 0-4.85-1.875-4.85-6.65 0-5.025 2.525-6.925 5.3-6.925 1.45 0 2.575.5 3.525 1.2v-3.8c0-.25-.1-.425-.325-.5l-1.375-.475.275-2.025h5.025v16.25c0 .375.025.425.4.475l1.2.175V20h-4.65l-.25-1.4zm-.45-8.225c-.625-.425-1.425-.75-2.15-.75-1.85 0-2.575 1.725-2.575 3.95 0 2.425.7 3.775 2.275 3.775.85 0 1.775-.5 2.45-1.075v-5.9zm18.063 8.65c-1.55.75-3.25 1.275-5.125 1.275-4.825 0-6.475-3-6.475-6.9 0-4.525 2.775-6.675 6.2-6.675 3.3 0 5.5 1.725 5.5 6.05 0 .3-.025 1.175-.05 1.675h-7.65c.125 1.775.9 2.95 2.95 2.95.975 0 2.025-.225 3.725-.85l.925 2.475zm-3.6-6.95c-.025-2.1-.85-2.65-1.875-2.65-1.075 0-1.95.6-2.1 2.65h3.975zm14.585-.15c0-1.2-.075-2.2-1.325-2.2-.925 0-2.075.525-2.6.925v6.7c0 .4.025.45.4.5l1.2.175V20h-6.9v-2l1.125-.15c.35-.05.4-.125.4-.5V10c0-.275-.075-.45-.325-.525L166.836 9l.3-2.025h4.375l.2 1.3.1.05c1.25-.925 2.7-1.6 4.4-1.6 2.725 0 3.775 1.5 3.775 4.25v6.375c0 .4.025.45.4.5l1.25.175V20h-5.425v-8.075zm16.178 7.375c-1.075.525-2.65 1-4.075 1-2.975 0-4.1-1.2-4.1-4.025v-6.55c0-.15 0-.25-.2-.25h-1.75V7.25c2.2-.25 3.075-1.35 3.35-4.075h2.375v3.55c0 .175 0 .25.2.25h3.525v2.5h-3.725v5.975c0 1.475.35 2.05 1.7 2.05.7 0 1.425-.175 2.025-.4l.675 2.2zm6.814-16.575c0 1.425-.825 2.25-2.275 2.25-1.425 0-2.25-.825-2.25-2.25s.825-2.2 2.25-2.2c1.45 0 2.275.775 2.275 2.2zm-5.5 15.3l1.275-.175c.35-.05.4-.125.4-.5V10c0-.275-.075-.45-.325-.525L193.703 9l.275-2.025h5.175V17.35c0 .4.025.45.4.5l1.275.175V20h-7.125v-1.975zm18.135-8.25c0-.2-.05-.3-.25-.3h-3.975v7.775c0 .45.075.475.45.525l1.75.25V20h-7.775v-1.975l1.35-.175c.425-.05.45-.125.45-.6V9.725c0-.15 0-.25-.2-.25h-1.675v-2.5h1.875v-1.25c0-3.7 2.15-4.9 6.225-4.9 3.1 0 5.25.525 5.3 3.95l-3.55.425c0-1.55-.35-1.925-1.95-1.925-1.675 0-2.25.5-2.25 1.925v1.525c0 .2.025.25.275.25h7.725V17.35c0 .4.025.45.4.5l1.275.175V20h-5.45V9.775zm17.961 9.3c-1.15.7-2.925 1.225-4.75 1.225-4.525 0-6.55-2.825-6.55-6.625 0-4.675 2.85-6.95 6.85-6.95 1.95 0 3.675.55 4.45 1.05V11.7l-2.675-.125-.3-1.65c-.025-.175-.075-.325-.3-.4-.3-.1-.775-.175-1.275-.175-1.5 0-2.775 1.025-2.775 3.95 0 3.25 1.45 4.175 3.225 4.175 1.25 0 2.375-.4 3.125-.725l.975 2.325zm9.478-.425l-.125-.025c-.95.925-2.2 1.675-4.2 1.675-3.15 0-3.65-2.15-3.65-3.7 0-2.5 1.525-3.625 4.675-3.85l2.875-.2v-1.375c0-1.175-.125-1.975-1.675-1.975-1.2 0-1.825.175-1.825 1.675l-3.525-.3c0-3.375 3.075-3.85 5.375-3.85 3.8 0 5.325 1.025 5.325 4.525v6.075c0 .4.025.45.4.5l1.2.2V20h-4.6l-.25-1.35zm-2.125-3.9c-1.475.1-2 .475-2 1.475s.6 1.375 1.425 1.375c.85 0 1.7-.475 2.275-.9v-2.075l-1.7.125zm8.141 3.225l1.125-.15c.35-.05.4-.125.4-.5V10c0-.275-.075-.45-.325-.525L245.143 9l.275-2.025h4.4l.3 2h.15c.825-1.275 1.925-2.25 3.525-2.25.575 0 1.725.1 2.175.225v4.55l-3-.1-.25-1.325c-.05-.225-.125-.275-.325-.275-.65 0-1.425.55-1.8.875V17.3c0 .4.025.475.4.5l2.475.2v2h-8.175v-2.025zm19.47 5.3l1.95-.225c.325-.025.475-.2.625-.55l1.075-2.375-4.775-10.45c-.15-.3-.225-.35-.525-.425L262.088 9l.4-2.025h6.625V9l-1.575.2 2.775 6.6h.175l2.65-6.6-1.625-.2.325-2.025h5.575V9l-.8.15c-.3.05-.5.125-.625.425l-5.5 13.45 2.6.275v2h-8.325v-2.025zm18.932-5.3l1.125-.15c.35-.05.4-.125.4-.5V10c0-.275-.075-.45-.325-.525L283.545 9l.275-2.025h4.4l.3 2h.15c.825-1.275 1.925-2.25 3.525-2.25.575 0 1.725.1 2.175.225v4.55l-3-.1-.25-1.325c-.05-.225-.125-.275-.325-.275-.65 0-1.425.55-1.8.875V17.3c0 .4.025.475.4.5l2.475.2v2h-8.175v-2.025zm23.569 1.05c-1.55.75-3.25 1.275-5.125 1.275-4.825 0-6.475-3-6.475-6.9 0-4.525 2.775-6.675 6.2-6.675 3.3 0 5.5 1.725 5.5 6.05 0 .3-.025 1.175-.05 1.675h-7.65c.125 1.775.9 2.95 2.95 2.95.975 0 2.025-.225 3.725-.85l.925 2.475zm-3.6-6.95c-.025-2.1-.85-2.65-1.875-2.65-1.075 0-1.95.6-2.1 2.65h3.975zm5.262 11.225l1-.15c.35-.05.45-.15.45-.525V10c0-.275-.05-.425-.325-.525L308.726 9l.275-2.025h4.4l.225 1.275.125.05c1.2-.975 2.825-1.575 4.25-1.575 2.8 0 4.8 1.75 4.8 6.4 0 3-1.025 7.175-5.15 7.175-1.3 0-2.475-.425-3.525-1.25v3.55c0 .4.025.475.4.5l2.55.225V25.3h-8.15v-2zm5.2-6.875c.55.475 1.425.95 2.35.95 1.675 0 2.375-1.6 2.375-4.05 0-2.575-.875-3.625-2.125-3.625-1.05 0-2.05.525-2.6.9v5.825zM330.91 20.3c-4.575 0-6.425-2.8-6.425-6.725 0-4.15 2.175-6.85 6.75-6.85 4.625 0 6.425 2.75 6.425 6.575 0 4.25-2.15 7-6.75 7zm.175-2.625c1.625 0 2.625-1.125 2.625-4.25 0-2.95-.9-4-2.525-4-1.65 0-2.75 1.025-2.75 4.025 0 3.025.975 4.225 2.65 4.225zm8.078.3l1.125-.15c.35-.05.4-.125.4-.5V10c0-.275-.075-.45-.325-.525L339.013 9l.275-2.025h4.4l.3 2h.15c.825-1.275 1.925-2.25 3.525-2.25.575 0 1.725.1 2.175.225v4.55l-3-.1-.25-1.325c-.05-.225-.125-.275-.325-.275-.65 0-1.425.55-1.8.875V17.3c0 .4.025.475.4.5l2.475.2v2h-8.175v-2.025zm21.936 1.325c-1.075.525-2.65 1-4.075 1-2.975 0-4.1-1.2-4.1-4.025v-6.55c0-.15 0-.25-.2-.25h-1.75V7.25c2.2-.25 3.075-1.35 3.35-4.075h2.375v3.55c0 .175 0 .25.2.25h3.525v2.5h-3.725v5.975c0 1.475.35 2.05 1.7 2.05.7 0 1.425-.175 2.025-.4l.675 2.2zm9.248-.65l-.125-.025c-.95.925-2.2 1.675-4.2 1.675-3.15 0-3.65-2.15-3.65-3.7 0-2.5 1.525-3.625 4.675-3.85l2.875-.2v-1.375c0-1.175-.125-1.975-1.675-1.975-1.2 0-1.825.175-1.825 1.675l-3.525-.3c0-3.375 3.075-3.85 5.375-3.85 3.8 0 5.325 1.025 5.325 4.525v6.075c0 .4.025.45.4.5l1.2.2V20h-4.6l-.25-1.35zm-2.125-3.9c-1.475.1-2 .475-2 1.475s.6 1.375 1.425 1.375c.85 0 1.7-.475 2.275-.9v-2.075l-1.7.125zm8.141 3.225l1.125-.15c.35-.05.4-.125.4-.5V10c0-.275-.075-.45-.325-.525L376.213 9l.275-2.025h4.4l.3 2h.15c.825-1.275 1.925-2.25 3.525-2.25.575 0 1.725.1 2.175.225v4.55l-3-.1-.25-1.325c-.05-.225-.125-.275-.325-.275-.65 0-1.425.55-1.8.875V17.3c0 .4.025.475.4.5l2.475.2v2h-8.175v-2.025zm28.995 1.05c-1.55.75-3.25 1.275-5.125 1.275-4.825 0-6.475-3-6.475-6.9 0-4.525 2.775-6.675 6.2-6.675 3.3 0 5.5 1.725 5.5 6.05 0 .3-.025 1.175-.05 1.675h-7.65c.125 1.775.9 2.95 2.95 2.95.975 0 2.025-.225 3.725-.85l.925 2.475zm-3.6-6.95c-.025-2.1-.85-2.65-1.875-2.65-1.075 0-1.95.6-2.1 2.65h3.975zm5.235 5.95l1.25-.175c.35-.05.4-.125.4-.5V4.15c0-.275-.075-.45-.325-.525l-1.375-.475.275-2.025h5.2V17.35c0 .4.025.45.4.5l1.225.175V20h-7.05v-1.975zM420.607 18l1.4-.15c.35-.05.4-.15.4-.525v-7.6c0-.15 0-.25-.2-.25h-1.675v-2.5h1.875V5.6c0-3.375 1.9-4.775 5.35-4.775 2.325 0 4.475.575 4.475 3.6l-3.5.425c.025-1.275-.325-1.575-1.15-1.575-1.25 0-1.4.675-1.4 1.875v1.575c0 .175 0 .25.2.25h3.95v2.5h-4.15v7.775c0 .4.075.475.45.5l3.05.275V20h-9.075v-2zm11.138-.025l1.125-.15c.35-.05.4-.125.4-.5V10c0-.275-.075-.45-.325-.525L431.595 9l.275-2.025h4.4l.3 2h.15c.825-1.275 1.925-2.25 3.525-2.25.575 0 1.725.1 2.175.225v4.55l-3-.1-.25-1.325c-.05-.225-.125-.275-.325-.275-.65 0-1.425.55-1.8.875V17.3c0 .4.025.475.4.5l2.475.2v2h-8.175v-2.025zm19.581.675l-.125-.025c-.95.925-2.2 1.675-4.2 1.675-3.15 0-3.65-2.15-3.65-3.7 0-2.5 1.525-3.625 4.675-3.85l2.875-.2v-1.375c0-1.175-.125-1.975-1.675-1.975-1.2 0-1.825.175-1.825 1.675l-3.525-.3c0-3.375 3.075-3.85 5.375-3.85 3.8 0 5.325 1.025 5.325 4.525v6.075c0 .4.025.45.4.5l1.2.2V20h-4.6l-.25-1.35zm-2.125-3.9c-1.475.1-2 .475-2 1.475s.6 1.375 1.425 1.375c.85 0 1.7-.475 2.275-.9v-2.075l-1.7.125zm17.352 3.9l-.125-.025c-1.025.775-2.325 1.675-4.45 1.675-2.625 0-3.625-1.5-3.625-4.4V9.8c0-.4-.025-.45-.4-.525l-1.2-.25.25-2.05h5.125v8.275c0 1.525.25 2.1 1.325 2.1 1.1 0 2-.625 2.575-1.15V9.775c0-.4-.025-.425-.4-.5l-1.075-.25.275-2.05h4.975V17.35c0 .325.05.425.35.475l1.25.175v2h-4.65l-.2-1.35zm15.38-.05l-.175-.025c-1.05 1.025-2.275 1.725-4.1 1.725-2.95 0-4.85-1.875-4.85-6.65 0-5.025 2.525-6.925 5.3-6.925 1.45 0 2.575.5 3.525 1.2v-3.8c0-.25-.1-.425-.325-.5l-1.375-.475.275-2.025h5.025v16.25c0 .375.025.425.4.475l1.2.175V20h-4.65l-.25-1.4zm-.45-8.225c-.625-.425-1.425-.75-2.15-.75-1.85 0-2.575 1.725-2.575 3.95 0 2.425.7 3.775 2.275 3.775.85 0 1.775-.5 2.45-1.075v-5.9zm18.063 8.65c-1.55.75-3.25 1.275-5.125 1.275-4.825 0-6.475-3-6.475-6.9 0-4.525 2.775-6.675 6.2-6.675 3.3 0 5.5 1.725 5.5 6.05 0 .3-.025 1.175-.05 1.675h-7.65c.125 1.775.9 2.95 2.95 2.95.975 0 2.025-.225 3.725-.85l.925 2.475zm-3.6-6.95c-.025-2.1-.85-2.65-1.875-2.65-1.075 0-1.95.6-2.1 2.65h3.975zm10.112 6.275c0 1.275-.7 1.95-2.125 1.95-1.45 0-2.15-.65-2.15-1.95 0-1.275.7-1.95 2.15-1.95 1.4 0 2.125.675 2.125 1.95z" fill="#fff"/></svg>