<svg width="195" height="106" viewBox="0 0 195 106" fill="none" xmlns="http://www.w3.org/2000/svg"><path d="M2.91 23.36c0-.547.2-1.021.6-1.421.4-.4.88-.601 1.436-.601.556 0 1.035.2 1.435.6.4.4.6.88.6 1.436 0 .566-.2 1.05-.6 1.45-.39.39-.869.586-1.435.586-.576 0-1.06-.195-1.45-.586-.391-.39-.586-.879-.586-1.465zm6.857 0c0-.547.2-1.021.601-1.421.4-.4.879-.601 1.435-.601.557 0 1.036.2 1.436.6.4.4.6.88.6 1.436 0 .566-.2 1.05-.6 1.45-.39.39-.87.586-1.436.586-.576 0-1.06-.195-1.45-.586-.39-.39-.586-.879-.586-1.465zm6.858 0c0-.547.2-1.021.6-1.421.401-.4.88-.601 1.436-.601.557 0 1.035.2 1.436.6.4.4.6.88.6 1.436 0 .566-.2 1.05-.6 1.45-.39.39-.87.586-1.436.586-.576 0-1.06-.195-1.45-.586-.39-.39-.586-.879-.586-1.465zm16.863 9.404v-9.36c-1.309 1.337-2.803 2.006-4.482 2.006-1.924 0-3.521-.708-4.79-2.124-1.28-1.426-1.92-3.208-1.92-5.347 0-2.168.64-3.979 1.92-5.434 1.288-1.445 2.905-2.168 4.848-2.168 1.65 0 3.125.65 4.424 1.948v-1.553h3.31v22.032h-3.31zm-7.822-14.971c0 1.377.37 2.495 1.113 3.355.742.878 1.684 1.318 2.827 1.318 1.211 0 2.192-.42 2.944-1.26.762-.85 1.143-1.953 1.143-3.31 0-1.338-.376-2.442-1.128-3.311-.752-.85-1.728-1.275-2.93-1.275-1.133 0-2.08.43-2.841 1.29-.752.869-1.128 1.933-1.128 3.193zm18.94-7.06v8.188c0 2.363.933 3.545 2.798 3.545s2.798-1.182 2.798-3.545v-8.189h3.296v8.262c0 1.143-.142 2.129-.425 2.96-.274.741-.747 1.41-1.421 2.006-1.113.967-2.53 1.45-4.248 1.45-1.71 0-3.12-.483-4.234-1.45-.683-.596-1.166-1.265-1.45-2.007-.273-.664-.41-1.65-.41-2.959v-8.262h3.296zm26.045 7.91H60.426c.088 1.171.47 2.104 1.143 2.797.674.684 1.538 1.026 2.593 1.026.82 0 1.499-.196 2.036-.586.527-.39 1.128-1.113 1.802-2.168l2.783 1.553c-.43.732-.884 1.362-1.362 1.89a7.544 7.544 0 01-1.539 1.288 6.294 6.294 0 01-1.772.733 8.632 8.632 0 01-2.066.234c-2.128 0-3.837-.683-5.126-2.05-1.29-1.378-1.934-3.204-1.934-5.48 0-2.255.625-4.081 1.875-5.478 1.26-1.377 2.93-2.065 5.01-2.065 2.1 0 3.76.669 4.98 2.007 1.211 1.328 1.817 3.169 1.817 5.522l-.015.777zm-3.384-2.696c-.459-1.757-1.567-2.636-3.325-2.636-.4 0-.776.063-1.128.19a3.11 3.11 0 00-.967.527 3.293 3.293 0 00-.732.82 3.848 3.848 0 00-.469 1.1h6.621zm19.658-2.138V25H83.63V13.809h-1.406v-3.077h1.406v-5.23h3.296v5.23h2.564v3.077h-2.564zm18.062 4.834H94.762c.088 1.171.469 2.104 1.143 2.797.674.684 1.538 1.026 2.593 1.026.82 0 1.499-.196 2.036-.586.527-.39 1.128-1.113 1.802-2.168l2.783 1.553c-.43.732-.884 1.362-1.363 1.89a7.527 7.527 0 01-1.538 1.288 6.29 6.29 0 01-1.772.733 8.632 8.632 0 01-2.066.234c-2.128 0-3.837-.683-5.126-2.05-1.29-1.378-1.934-3.204-1.934-5.48 0-2.255.625-4.081 1.875-5.478 1.26-1.377 2.93-2.065 5.01-2.065 2.099 0 3.759.669 4.98 2.007 1.211 1.328 1.817 3.169 1.817 5.522l-.015.777zm-3.384-2.696c-.459-1.757-1.567-2.636-3.325-2.636-.4 0-.776.063-1.128.19a3.112 3.112 0 00-.967.527 3.293 3.293 0 00-.732.82 3.845 3.845 0 00-.469 1.1h6.621zm19.556 16.817h-3.296V10.732h3.296v1.553c1.299-1.299 2.773-1.948 4.424-1.948 1.963 0 3.579.723 4.848 2.168 1.289 1.435 1.934 3.247 1.934 5.434 0 2.14-.64 3.921-1.919 5.347-1.27 1.416-2.871 2.124-4.805 2.124-1.67 0-3.164-.669-4.482-2.007v9.36zm7.837-14.81c0-1.367-.371-2.48-1.114-3.34-.752-.869-1.699-1.304-2.841-1.304-1.211 0-2.193.42-2.945 1.26-.752.84-1.128 1.944-1.128 3.31 0 1.339.376 2.442 1.128 3.311.742.85 1.719 1.275 2.93 1.275 1.143 0 2.085-.43 2.827-1.29.762-.859 1.143-1.933 1.143-3.222zm10.151-7.222V25h-3.296V10.732h3.296zM135.353 4.8c0-.576.21-1.074.63-1.494.42-.42.923-.63 1.509-.63.595 0 1.103.21 1.523.63.42.41.63.913.63 1.508 0 .596-.21 1.104-.63 1.524-.41.42-.913.63-1.509.63-.595 0-1.103-.21-1.523-.63-.42-.42-.63-.933-.63-1.538zM153.839.259h3.311V25h-3.311v-1.494c-1.298 1.27-2.768 1.904-4.409 1.904-1.953 0-3.574-.713-4.863-2.139-1.279-1.455-1.919-3.271-1.919-5.449 0-2.129.64-3.906 1.919-5.332 1.27-1.435 2.866-2.153 4.79-2.153 1.67 0 3.164.684 4.482 2.05V.26zm-7.822 17.563c0 1.367.366 2.48 1.099 3.34.752.87 1.699 1.304 2.842 1.304 1.22 0 2.207-.42 2.959-1.26.752-.87 1.128-1.973 1.128-3.31 0-1.338-.376-2.442-1.128-3.311-.752-.85-1.729-1.275-2.93-1.275-1.133 0-2.08.43-2.842 1.29-.752.869-1.128 1.943-1.128 3.222zm25.811-7.09h3.31V25h-3.31v-1.494c-1.358 1.27-2.818 1.904-4.38 1.904-1.973 0-3.604-.713-4.893-2.139-1.279-1.455-1.919-3.271-1.919-5.449 0-2.138.64-3.92 1.919-5.346 1.28-1.426 2.881-2.14 4.805-2.14 1.66 0 3.149.684 4.468 2.052v-1.656zm-7.823 7.09c0 1.367.367 2.48 1.099 3.34.752.87 1.699 1.304 2.842 1.304 1.221 0 2.207-.42 2.959-1.26.752-.87 1.128-1.973 1.128-3.31 0-1.338-.376-2.442-1.128-3.311-.752-.85-1.729-1.275-2.93-1.275-1.133 0-2.08.43-2.842 1.29-.752.869-1.128 1.943-1.128 3.222zm15.293-7.09h3.311v1.319c1.152-1.143 2.451-1.714 3.896-1.714 1.661 0 2.955.522 3.882 1.567.801.889 1.201 2.34 1.201 4.35V25h-3.31v-7.969c0-1.406-.195-2.378-.586-2.915-.381-.547-1.074-.82-2.08-.82-1.094 0-1.87.361-2.329 1.084-.449.713-.674 1.958-.674 3.735V25h-3.311V10.732zM12.566 45.81V57H9.271V45.809H7.864v-3.077h1.407v-5.23h3.295v5.23h2.564v3.077h-2.564zm8.101-3.077v8.189c0 2.363.933 3.545 2.798 3.545s2.798-1.182 2.798-3.545v-8.189h3.296v8.262c0 1.143-.142 2.129-.425 2.96-.274.741-.747 1.41-1.421 2.006-1.113.967-2.53 1.45-4.248 1.45-1.71 0-3.12-.483-4.234-1.45-.683-.596-1.167-1.265-1.45-2.007-.273-.664-.41-1.65-.41-2.959v-8.262h3.296zm22.31 0h3.31v1.319c1.153-1.143 2.451-1.714 3.897-1.714 1.66 0 2.954.522 3.881 1.567.801.889 1.202 2.34 1.202 4.35V57h-3.31v-7.969c0-1.406-.196-2.378-.587-2.915-.38-.547-1.074-.82-2.08-.82-1.094 0-1.87.361-2.33 1.084-.448.713-.673 1.958-.673 3.735V57h-3.31V42.732zm19.76 0v8.189c0 2.363.933 3.545 2.798 3.545s2.798-1.182 2.798-3.545v-8.189h3.296v8.262c0 1.143-.142 2.129-.425 2.96-.273.741-.747 1.41-1.42 2.006-1.114.967-2.53 1.45-4.249 1.45-1.709 0-3.12-.483-4.233-1.45-.684-.596-1.167-1.265-1.45-2.007-.274-.664-.41-1.65-.41-2.959v-8.262h3.295zm7.97-7.03l-5.333 4.833-1.802-1.113 4.029-5.332 3.105 1.611zm5.082 7.03h3.296v1.319c.635-.664 1.177-1.114 1.626-1.348.478-.244 1.079-.366 1.802-.366 1.611 0 2.885.703 3.823 2.11 1.035-1.407 2.436-2.11 4.204-2.11 3.213 0 4.82 1.948 4.82 5.845V57h-3.311v-7.925c0-1.367-.166-2.334-.498-2.9-.342-.576-.904-.864-1.685-.864-.908 0-1.572.341-1.992 1.025-.41.684-.615 1.782-.615 3.296V57h-3.31v-7.88c0-2.54-.733-3.81-2.198-3.81-.928 0-1.607.347-2.036 1.04-.42.694-.63 1.788-.63 3.282V57h-3.296V42.732zm36.724 7.91h-10.225c.088 1.172.469 2.105 1.143 2.798.673.684 1.538 1.026 2.592 1.026.821 0 1.499-.196 2.037-.586.527-.39 1.128-1.113 1.801-2.168l2.784 1.553c-.43.732-.884 1.362-1.363 1.89a7.527 7.527 0 01-1.538 1.288 6.301 6.301 0 01-1.772.733 8.638 8.638 0 01-2.066.234c-2.129 0-3.838-.683-5.127-2.05-1.289-1.378-1.933-3.204-1.933-5.48 0-2.255.625-4.081 1.875-5.478 1.259-1.377 2.929-2.065 5.009-2.065 2.1 0 3.76.669 4.981 2.007 1.211 1.328 1.816 3.169 1.816 5.522l-.014.777zm-3.384-2.695c-.459-1.758-1.567-2.637-3.325-2.637a3.29 3.29 0 00-1.128.191 3.108 3.108 0 00-.967.527 3.293 3.293 0 00-.732.82 3.81 3.81 0 00-.469 1.1h6.621zm7.002-5.215h3.296v1.275c.605-.635 1.142-1.07 1.611-1.304.479-.244 1.045-.366 1.699-.366.869 0 1.778.283 2.725.85l-1.509 3.017c-.625-.45-1.235-.674-1.831-.674-1.797 0-2.695 1.358-2.695 4.072V57h-3.296V42.732zm10.283 7.032c0-2.06.737-3.814 2.212-5.26 1.475-1.444 3.271-2.167 5.391-2.167 2.129 0 3.935.727 5.42 2.182 1.464 1.456 2.197 3.243 2.197 5.362 0 2.139-.738 3.93-2.212 5.376-1.484 1.435-3.306 2.153-5.464 2.153-2.139 0-3.931-.732-5.376-2.197-1.445-1.445-2.168-3.262-2.168-5.45zm3.369.058c0 1.426.381 2.554 1.143 3.384.781.84 1.811 1.26 3.091 1.26 1.289 0 2.319-.415 3.09-1.245.772-.83 1.158-1.939 1.158-3.325 0-1.387-.386-2.496-1.158-3.326-.781-.84-1.811-1.26-3.09-1.26-1.26 0-2.281.42-3.062 1.26-.781.84-1.172 1.924-1.172 3.252zM164.91 32.26h3.311V57h-3.311v-1.494c-1.299 1.27-2.768 1.904-4.409 1.904-1.953 0-3.574-.713-4.863-2.138-1.28-1.456-1.919-3.272-1.919-5.45 0-2.129.639-3.906 1.919-5.332 1.269-1.435 2.866-2.153 4.79-2.153 1.67 0 3.164.683 4.482 2.05V32.26zm-7.822 17.563c0 1.367.366 2.48 1.099 3.34.751.87 1.699 1.304 2.841 1.304 1.221 0 2.207-.42 2.959-1.26.752-.87 1.128-1.973 1.128-3.31 0-1.338-.376-2.442-1.128-3.311-.752-.85-1.728-1.275-2.929-1.275-1.133 0-2.08.43-2.842 1.29-.752.869-1.128 1.943-1.128 3.222zm28.286.82h-10.225c.088 1.172.469 2.105 1.143 2.798.674.684 1.538 1.026 2.593 1.026.82 0 1.499-.196 2.036-.586.527-.39 1.128-1.113 1.802-2.168l2.783 1.553c-.43.732-.884 1.362-1.362 1.89a7.559 7.559 0 01-1.539 1.288 6.277 6.277 0 01-1.772.733 8.63 8.63 0 01-2.065.234c-2.129 0-3.838-.683-5.127-2.05-1.289-1.378-1.934-3.204-1.934-5.48 0-2.255.625-4.081 1.875-5.478 1.26-1.377 2.93-2.065 5.01-2.065 2.099 0 3.76.669 4.98 2.007 1.211 1.328 1.817 3.169 1.817 5.522l-.015.777zm-3.384-2.695c-.459-1.758-1.567-2.637-3.325-2.637-.4 0-.776.064-1.128.191a3.12 3.12 0 00-.967.527 3.293 3.293 0 00-.732.82 3.865 3.865 0 00-.469 1.1h6.621z" fill="#fff" fill-opacity=".75"/><path d="M.34 105l4.864-28.652h7.372l5.738 15.276 5.7-15.276h7.372L36.25 105h-7.41l-2.47-16.492L19.606 105h-2.964L10.22 88.508 7.75 105H.34zm53.193-12.578c-.228-.963-.697-1.735-1.406-2.318-.71-.583-1.57-.874-2.584-.874-1.064 0-1.938.279-2.622.836-.659.557-1.077 1.343-1.254 2.356h7.866zm-8.056 3.99c0 2.964 1.393 4.446 4.18 4.446 1.494 0 2.622-.608 3.382-1.824h6.65c-1.343 4.459-4.7 6.688-10.07 6.688-1.647 0-3.154-.241-4.522-.722-1.368-.507-2.546-1.216-3.534-2.128a9.52 9.52 0 01-2.242-3.268c-.532-1.267-.798-2.685-.798-4.256 0-1.621.253-3.078.76-4.37.506-1.317 1.228-2.432 2.166-3.344.937-.912 2.064-1.609 3.382-2.09 1.342-.507 2.85-.76 4.522-.76 1.646 0 3.128.253 4.446.76 1.317.481 2.432 1.19 3.344 2.128.912.937 1.608 2.09 2.09 3.458.481 1.343.722 2.863.722 4.56v.722H45.477zm24.793-1.216c0 .633.114 1.229.342 1.786.228.532.532 1 .912 1.406.406.405.874.722 1.406.95a4.67 4.67 0 001.786.342c.608 0 1.178-.114 1.71-.342a3.943 3.943 0 001.406-.95c.406-.405.722-.874.95-1.406.254-.532.38-1.102.38-1.71 0-.608-.126-1.178-.38-1.71a4.342 4.342 0 00-.95-1.444 3.943 3.943 0 00-1.406-.95 4.295 4.295 0 00-1.71-.342c-.608 0-1.19.114-1.748.342-.532.228-1 .545-1.406.95-.38.405-.696.874-.95 1.406a4.028 4.028 0 00-.342 1.672zm8.664-21.736h6.916V105h-6.916v-2.166c-1.47 1.849-3.458 2.774-5.966 2.774-1.418 0-2.723-.266-3.914-.798a9.686 9.686 0 01-3.116-2.204 10.338 10.338 0 01-2.09-3.306c-.481-1.267-.722-2.635-.722-4.104 0-1.393.228-2.71.684-3.952.482-1.267 1.153-2.369 2.014-3.306a9.261 9.261 0 013.078-2.204c1.216-.557 2.546-.836 3.99-.836 2.432 0 4.446.849 6.042 2.546V73.46zM97.41 85.506V105H90.53V85.506h6.878zm-7.334-7.486c0-.532.101-1.026.304-1.482.203-.481.481-.9.836-1.254.355-.355.76-.633 1.216-.836a3.877 3.877 0 011.52-.304c.532 0 1.026.101 1.482.304.481.203.9.481 1.254.836.355.355.633.773.836 1.254.203.456.304.95.304 1.482s-.102 1.039-.304 1.52a4.008 4.008 0 01-.836 1.216 3.886 3.886 0 01-1.254.836c-.456.203-.95.304-1.482.304a3.877 3.877 0 01-1.52-.304 4.008 4.008 0 01-1.216-.836 4.008 4.008 0 01-.836-1.216 3.877 3.877 0 01-.304-1.52zm26.74 13.794c-1.191-.81-2.394-1.216-3.61-1.216-.659 0-1.279.114-1.862.342a4.478 4.478 0 00-1.482.988c-.431.405-.773.9-1.026 1.482-.228.557-.342 1.19-.342 1.9 0 .684.114 1.317.342 1.9.253.557.583 1.051.988 1.482a4.68 4.68 0 001.52.95 5.064 5.064 0 001.862.342c1.292 0 2.495-.443 3.61-1.33v5.852c-1.697.735-3.306 1.102-4.826 1.102-1.419 0-2.774-.241-4.066-.722a10.698 10.698 0 01-3.382-2.052 10.619 10.619 0 01-2.318-3.23c-.583-1.267-.874-2.673-.874-4.218s.279-2.951.836-4.218c.557-1.292 1.317-2.394 2.28-3.306a9.977 9.977 0 013.42-2.166 11.55 11.55 0 014.294-.798c1.672 0 3.217.355 4.636 1.064v5.852zm10.307 3.382c0 .633.114 1.229.342 1.786.228.532.532 1 .912 1.406.405.405.874.722 1.406.95a4.67 4.67 0 001.786.342c.608 0 1.178-.114 1.71-.342a3.946 3.946 0 001.406-.95c.405-.405.722-.874.95-1.406.253-.532.38-1.102.38-1.71 0-.608-.127-1.178-.38-1.71a4.346 4.346 0 00-.95-1.444 3.946 3.946 0 00-1.406-.95 4.295 4.295 0 00-1.71-.342 4.67 4.67 0 00-1.786.342 4.443 4.443 0 00-1.406.95c-.38.405-.684.874-.912 1.406a4.028 4.028 0 00-.342 1.672zm8.664-9.69h6.916V105h-6.916v-2.166c-1.469 1.849-3.458 2.774-5.966 2.774-1.419 0-2.723-.253-3.914-.76a9.687 9.687 0 01-3.116-2.204 10.34 10.34 0 01-2.09-3.306c-.481-1.267-.722-2.647-.722-4.142 0-1.393.241-2.71.722-3.952a10.164 10.164 0 012.014-3.306 9.255 9.255 0 013.078-2.204c1.191-.557 2.508-.836 3.952-.836 2.432 0 4.446.849 6.042 2.546v-1.938zm11.596 0h6.878v3.192c.735-1.165 1.634-2.052 2.698-2.66 1.064-.633 2.306-.95 3.724-.95h.57c.228 0 .482.025.76.076v6.574a6.535 6.535 0 00-2.964-.684c-1.596 0-2.799.481-3.61 1.444-.785.937-1.178 2.318-1.178 4.142V105h-6.878V85.506zm32.174 6.916c-.228-.963-.696-1.735-1.406-2.318-.709-.583-1.57-.874-2.584-.874-1.064 0-1.938.279-2.622.836-.658.557-1.076 1.343-1.254 2.356h7.866zm-8.056 3.99c0 2.964 1.394 4.446 4.18 4.446 1.495 0 2.622-.608 3.382-1.824h6.65c-1.342 4.459-4.699 6.688-10.07 6.688-1.646 0-3.154-.241-4.522-.722-1.368-.507-2.546-1.216-3.534-2.128a9.53 9.53 0 01-2.242-3.268c-.532-1.267-.798-2.685-.798-4.256 0-1.621.254-3.078.76-4.37.507-1.317 1.229-2.432 2.166-3.344.938-.912 2.065-1.609 3.382-2.09 1.343-.507 2.85-.76 4.522-.76 1.647 0 3.129.253 4.446.76 1.318.481 2.432 1.19 3.344 2.128.912.937 1.609 2.09 2.09 3.458.482 1.343.722 2.863.722 4.56v.722H171.5zm17.273 6.38a2.6 2.6 0 01.207-1.035c.138-.337.329-.629.575-.874.245-.245.529-.437.851-.575.337-.138.69-.207 1.058-.207a2.6 2.6 0 011.035.207c.337.138.628.33.874.575.245.245.437.537.575.874a2.6 2.6 0 01.207 1.035c0 .368-.069.721-.207 1.058a2.643 2.643 0 01-1.449 1.426 2.6 2.6 0 01-1.035.207c-.368 0-.721-.069-1.058-.207a2.693 2.693 0 01-1.426-1.426 2.767 2.767 0 01-.207-1.058z" fill="#fff"/></svg>