<svg width="277" height="24" viewBox="0 0 277 24" fill="none" xmlns="http://www.w3.org/2000/svg"><path d="M.897 18V1.091l11.546 12.08V2.167h2.389v16.796L3.286 6.916V18H.897zm16.97-5.065c0-1.443.516-2.67 1.549-3.682 1.032-1.011 2.29-1.517 3.773-1.517 1.49 0 2.755.51 3.794 1.528 1.025 1.018 1.538 2.27 1.538 3.753 0 1.497-.516 2.751-1.548 3.763-1.04 1.005-2.314 1.507-3.825 1.507-1.497 0-2.752-.513-3.763-1.538-1.012-1.012-1.518-2.283-1.518-3.814zm2.359.04c0 .999.266 1.788.8 2.37.546.587 1.268.881 2.163.881.902 0 1.623-.29 2.163-.871.54-.582.81-1.357.81-2.328 0-.97-.27-1.747-.81-2.328-.546-.588-1.268-.882-2.163-.882-.882 0-1.596.294-2.143.882-.547.588-.82 1.347-.82 2.277zm17.226-4.962h2.307v.892c.424-.445.8-.749 1.128-.913.335-.17.732-.256 1.19-.256.608 0 1.244.198 1.907.595l-1.056 2.112c-.438-.315-.865-.472-1.282-.472-1.258 0-1.887.95-1.887 2.85V18h-2.307V8.013zm16.806 5.537h-7.157c.062.82.328 1.473.8 1.958.472.479 1.076.718 1.815.718.574 0 1.05-.137 1.425-.41.37-.274.79-.78 1.261-1.518l1.949 1.087c-.301.513-.62.954-.954 1.323a5.285 5.285 0 01-1.077.902 4.402 4.402 0 01-1.24.513c-.445.11-.927.164-1.446.164-1.49 0-2.687-.478-3.59-1.435-.901-.964-1.353-2.243-1.353-3.835 0-1.58.438-2.858 1.313-3.835.882-.964 2.05-1.446 3.507-1.446 1.47 0 2.632.468 3.486 1.405.848.93 1.272 2.218 1.272 3.865l-.01.544zm-2.368-1.887c-.322-1.23-1.098-1.846-2.328-1.846-.28 0-.543.045-.79.134a2.18 2.18 0 00-.676.369c-.198.157-.37.348-.513.574a2.695 2.695 0 00-.328.77h4.635zm10.705-1.948l-1.907 1.015c-.301-.615-.674-.923-1.118-.923a.759.759 0 00-.544.216.687.687 0 00-.225.533c0 .383.444.762 1.333 1.138 1.223.526 2.047 1.012 2.471 1.456.424.444.636 1.042.636 1.794 0 .964-.356 1.77-1.067 2.42-.69.616-1.524.923-2.502.923-1.674 0-2.86-.817-3.558-2.45l1.969-.913c.273.478.482.783.626.912.28.26.615.39 1.004.39.78 0 1.17-.355 1.17-1.066 0-.41-.302-.793-.903-1.149a32.254 32.254 0 00-.697-.338c-.233-.11-.468-.222-.708-.338-.67-.329-1.141-.657-1.415-.985-.348-.417-.523-.954-.523-1.61 0-.868.298-1.586.892-2.153.609-.567 1.347-.851 2.215-.851 1.279 0 2.229.66 2.85 1.979zm5.034 13.72h-2.307V8.013h2.307V9.1c.91-.91 1.942-1.364 3.097-1.364 1.374 0 2.505.506 3.394 1.517.902 1.005 1.354 2.273 1.354 3.805 0 1.497-.448 2.744-1.344 3.742-.888.991-2.01 1.487-3.363 1.487-1.169 0-2.215-.468-3.138-1.405v6.553zm5.486-10.367c0-.957-.26-1.736-.78-2.338-.525-.608-1.188-.913-1.988-.913-.848 0-1.535.294-2.061.882-.527.588-.79 1.36-.79 2.318 0 .936.263 1.709.79 2.317.52.595 1.203.892 2.05.892.8 0 1.46-.3 1.98-.902.533-.602.8-1.354.8-2.256zm4.327-.133c0-1.443.517-2.67 1.549-3.682 1.032-1.011 2.29-1.517 3.773-1.517 1.49 0 2.755.51 3.794 1.528 1.025 1.018 1.538 2.27 1.538 3.753 0 1.497-.516 2.751-1.548 3.763-1.04 1.005-2.314 1.507-3.825 1.507-1.497 0-2.751-.513-3.763-1.538-1.012-1.012-1.518-2.283-1.518-3.814zm2.359.04c0 .999.266 1.788.8 2.37.546.587 1.268.881 2.163.881.903 0 1.624-.29 2.164-.871.54-.582.81-1.357.81-2.328 0-.97-.27-1.747-.81-2.328-.547-.588-1.268-.882-2.164-.882-.882 0-1.596.294-2.143.882-.547.588-.82 1.347-.82 2.277zm10.746-4.962h2.317v.923c.807-.8 1.716-1.2 2.728-1.2 1.162 0 2.068.366 2.717 1.097.56.622.84 1.637.84 3.045V18h-2.317v-5.578c0-.985-.136-1.665-.41-2.04-.266-.383-.752-.575-1.456-.575-.765 0-1.309.253-1.63.759-.314.499-.472 1.37-.472 2.615V18h-2.317V8.013zM109.435.68h2.317V18h-2.317v-1.046c-.91.889-1.938 1.333-3.087 1.333-1.367 0-2.502-.499-3.404-1.497-.896-1.018-1.343-2.29-1.343-3.814 0-1.49.447-2.735 1.343-3.733.889-1.005 2.006-1.507 3.353-1.507 1.169 0 2.215.478 3.138 1.435V.681zm-5.476 12.295c0 .957.256 1.736.769 2.337.526.609 1.189.913 1.989.913.855 0 1.545-.294 2.072-.882.526-.608.789-1.38.789-2.317 0-.937-.263-1.71-.789-2.317-.527-.595-1.21-.893-2.051-.893-.793 0-1.456.301-1.989.903-.527.608-.79 1.36-.79 2.256zm18.067-4.963h2.318V18h-2.318v-1.046c-.95.889-1.972 1.333-3.066 1.333-1.38 0-2.522-.499-3.424-1.497-.896-1.018-1.344-2.29-1.344-3.814 0-1.498.448-2.745 1.344-3.743.895-.998 2.016-1.497 3.363-1.497 1.162 0 2.205.478 3.127 1.435V8.013zm-5.475 4.963c0 .957.256 1.736.769 2.337.526.609 1.189.913 1.989.913.855 0 1.545-.294 2.071-.882.527-.608.79-1.38.79-2.317 0-.937-.263-1.71-.79-2.317-.526-.595-1.21-.893-2.05-.893-.793 0-1.456.301-1.99.903-.526.608-.789 1.36-.789 2.256zm16.509-3.261l-1.908 1.015c-.3-.615-.673-.923-1.117-.923a.76.76 0 00-.544.216.688.688 0 00-.225.533c0 .383.444.762 1.333 1.138 1.223.526 2.047 1.012 2.471 1.456.424.444.636 1.042.636 1.794 0 .964-.356 1.77-1.067 2.42-.69.616-1.524.923-2.502.923-1.675 0-2.861-.817-3.558-2.45l1.969-.913c.273.478.482.783.625.912.281.26.616.39 1.005.39.78 0 1.169-.355 1.169-1.066 0-.41-.301-.793-.902-1.149a34.673 34.673 0 00-.697-.338c-.233-.11-.469-.222-.708-.338-.67-.329-1.142-.657-1.415-.985-.349-.417-.523-.954-.523-1.61 0-.868.297-1.586.892-2.153.609-.567 1.347-.851 2.215-.851 1.278 0 2.229.66 2.851 1.979zm16.57-1.702h2.317V18h-2.317v-1.046c-.95.889-1.972 1.333-3.066 1.333-1.381 0-2.522-.499-3.425-1.497-.895-1.018-1.343-2.29-1.343-3.814 0-1.498.448-2.745 1.343-3.743.896-.998 2.017-1.497 3.363-1.497 1.163 0 2.205.478 3.128 1.435V8.013zm-5.476 4.963c0 .957.257 1.736.769 2.337.527.609 1.19.913 1.99.913.854 0 1.545-.294 2.071-.882.526-.608.789-1.38.789-2.317 0-.937-.263-1.71-.789-2.317-.526-.595-1.21-.893-2.051-.893-.793 0-1.456.301-1.989.903-.527.608-.79 1.36-.79 2.256z" fill="#fff" fill-opacity=".75"/><path d="M164.744 1.4V18h-3.62V1.4h3.62zm6.494 0V18h-3.62V1.4h3.62zm6.233 11.44c0 .333.06.647.18.94.12.28.28.527.48.74.214.213.46.38.74.5.294.12.607.18.94.18.32 0 .62-.06.9-.18.294-.12.54-.287.74-.5.214-.213.38-.46.5-.74.134-.28.2-.58.2-.9 0-.32-.066-.62-.2-.9a2.275 2.275 0 00-.5-.76 2.07 2.07 0 00-.74-.5 2.26 2.26 0 00-.9-.18c-.333 0-.646.06-.94.18-.28.12-.526.287-.74.5-.2.213-.36.46-.48.74-.12.267-.18.56-.18.88zm4.56-5.1h3.64V18h-3.64v-1.14c-.773.973-1.82 1.46-3.14 1.46a5.21 5.21 0 01-2.06-.4 5.107 5.107 0 01-1.64-1.16 5.463 5.463 0 01-1.1-1.74 6.096 6.096 0 01-.38-2.18c0-.733.127-1.427.38-2.08a5.366 5.366 0 011.06-1.74c.454-.493.994-.88 1.62-1.16a4.847 4.847 0 012.08-.44c1.28 0 2.34.447 3.18 1.34V7.74zm6.504 0h3.62V9c.986-.947 2.093-1.42 3.32-1.42 1.52 0 2.68.64 3.48 1.92.813-1.293 1.973-1.94 3.48-1.94.48 0 .933.073 1.36.22.426.133.793.353 1.1.66.306.293.546.68.72 1.16.186.48.28 1.06.28 1.74V18h-3.62v-5.06c0-.52-.04-.947-.12-1.28-.067-.333-.174-.593-.32-.78a1.01 1.01 0 00-.48-.38 1.773 1.773 0 00-.6-.1c-1.16 0-1.74.847-1.74 2.54V18h-3.62v-5.06c0-.52-.034-.947-.1-1.28-.067-.347-.167-.62-.3-.82a.875.875 0 00-.48-.4 1.88 1.88 0 00-.7-.12c-.227 0-.44.033-.64.1s-.38.2-.54.4c-.147.187-.267.453-.36.8-.08.333-.12.773-.12 1.32V18h-3.62V7.74zm23.603 5.1c0 .333.06.647.18.94.12.28.28.527.48.74.214.213.46.38.74.5.294.12.607.18.94.18.32 0 .62-.06.9-.18.294-.12.54-.287.74-.5.214-.213.38-.46.5-.74.134-.28.2-.58.2-.9 0-.32-.066-.62-.2-.9a2.275 2.275 0 00-.5-.76 2.07 2.07 0 00-.74-.5 2.26 2.26 0 00-.9-.18c-.333 0-.646.06-.94.18-.28.12-.526.287-.74.5-.2.213-.36.46-.48.74-.12.267-.18.56-.18.88zm4.56-5.1h3.64V18h-3.64v-1.14c-.773.973-1.82 1.46-3.14 1.46a5.21 5.21 0 01-2.06-.4 5.107 5.107 0 01-1.64-1.16 5.463 5.463 0 01-1.1-1.74 6.096 6.096 0 01-.38-2.18c0-.733.127-1.427.38-2.08a5.366 5.366 0 011.06-1.74c.454-.493.994-.88 1.62-1.16a4.847 4.847 0 012.08-.44c1.28 0 2.34.447 3.18 1.34V7.74zm9.864 5.1c0 .333.06.647.18.94.12.28.28.527.48.74.213.213.46.38.74.5.293.12.607.18.94.18.32 0 .62-.06.9-.18.293-.12.54-.287.74-.5.213-.213.38-.46.5-.74.133-.28.2-.58.2-.9 0-.32-.067-.62-.2-.9a2.29 2.29 0 00-.5-.76c-.2-.213-.447-.38-.74-.5a2.406 2.406 0 00-1.82 0c-.28.12-.527.287-.74.5-.2.213-.367.46-.5.74-.12.267-.18.56-.18.88zm4.56-11.44h3.64V18h-3.64v-1.14c-.773.973-1.82 1.46-3.14 1.46a4.992 4.992 0 01-3.7-1.58 5.445 5.445 0 01-1.1-1.74 6.038 6.038 0 01-.38-2.16c0-.733.12-1.427.36-2.08a5.35 5.35 0 011.06-1.74c.453-.493.993-.88 1.62-1.16a4.98 4.98 0 012.1-.44c1.28 0 2.34.447 3.18 1.34V1.4zm9.863 11.44c0 .333.06.647.18.94.12.28.28.527.48.74.214.213.46.38.74.5.294.12.607.18.94.18.32 0 .62-.06.9-.18.294-.12.54-.287.74-.5.214-.213.38-.46.5-.74.134-.28.2-.58.2-.9 0-.32-.066-.62-.2-.9a2.275 2.275 0 00-.5-.76 2.07 2.07 0 00-.74-.5 2.26 2.26 0 00-.9-.18c-.333 0-.646.06-.94.18-.28.12-.526.287-.74.5-.2.213-.36.46-.48.74-.12.267-.18.56-.18.88zm4.56-5.1h3.64V18h-3.64v-1.14c-.773.973-1.82 1.46-3.14 1.46a5.21 5.21 0 01-2.06-.4 5.107 5.107 0 01-1.64-1.16 5.463 5.463 0 01-1.1-1.74 6.096 6.096 0 01-.38-2.18c0-.733.127-1.427.38-2.08a5.366 5.366 0 011.06-1.74c.454-.493.994-.88 1.62-1.16a4.847 4.847 0 012.08-.44c1.28 0 2.34.447 3.18 1.34V7.74zm13.304 2.64c-.667-.347-1.32-.52-1.96-.52-.334 0-.607.067-.82.2-.2.133-.3.313-.3.54 0 .12.013.22.04.3.04.067.113.133.22.2.12.067.286.127.5.18.226.053.52.12.88.2 1 .2 1.746.56 2.24 1.08.493.507.74 1.16.74 1.96 0 .6-.12 1.14-.36 1.62-.24.48-.574.887-1 1.22-.427.32-.94.567-1.54.74-.6.187-1.26.28-1.98.28-1.387 0-2.754-.393-4.1-1.18l1.32-2.56c1.013.693 1.973 1.04 2.88 1.04.333 0 .606-.073.82-.22.213-.147.32-.333.32-.56a.72.72 0 00-.06-.32.431.431 0 00-.2-.24 1.369 1.369 0 00-.48-.2 6.936 6.936 0 00-.8-.2c-1.12-.227-1.907-.56-2.36-1-.44-.453-.66-1.073-.66-1.86 0-.573.106-1.087.32-1.54.213-.467.52-.86.92-1.18.4-.32.88-.567 1.44-.74a6.542 6.542 0 011.9-.26c1.133 0 2.233.22 3.3.66l-1.22 2.36zm3.331 6.18c0-.24.045-.465.135-.675a1.714 1.714 0 01.93-.945 1.805 1.805 0 011.365 0c.22.09.41.215.57.375.16.16.285.35.375.57a1.805 1.805 0 010 1.365 1.714 1.714 0 01-.945.93 1.805 1.805 0 01-1.365 0 1.755 1.755 0 01-.93-.93c-.09-.22-.135-.45-.135-.69zm5.247 0c0-.24.045-.465.135-.675a1.714 1.714 0 01.93-.945 1.805 1.805 0 011.365 0c.22.09.41.215.57.375.16.16.285.35.375.57a1.805 1.805 0 010 1.365 1.714 1.714 0 01-.945.93 1.805 1.805 0 01-1.365 0 1.755 1.755 0 01-.93-.93c-.09-.22-.135-.45-.135-.69zm5.248 0c0-.24.045-.465.135-.675a1.714 1.714 0 01.93-.945 1.805 1.805 0 011.365 0c.22.09.41.215.57.375.16.16.285.35.375.57a1.805 1.805 0 010 1.365 1.714 1.714 0 01-.945.93 1.805 1.805 0 01-1.365 0 1.755 1.755 0 01-.93-.93c-.09-.22-.135-.45-.135-.69z" fill="#fff"/></svg>