<svg width="126" height="25" viewBox="0 0 126 25" fill="none" xmlns="http://www.w3.org/2000/svg"><path d="M2.796 3.736v4.992c0 .192.012.216.192.24l.804.096V10H.456v-.936l.756-.084c.168-.024.192-.06.192-.24V2.572c0-.18-.012-.216-.192-.24l-.756-.084v-.936h2.976L7.2 7.588V2.596c0-.18-.012-.216-.192-.24l-.756-.084v-.96h3.336v.96l-.804.096c-.18.024-.192.048-.192.228V10H6.624L2.796 3.736zm10.423 6.408c-2.196 0-3.084-1.344-3.084-3.228 0-1.992 1.044-3.288 3.24-3.288 2.22 0 3.084 1.32 3.084 3.156 0 2.04-1.032 3.36-3.24 3.36zm.084-1.26c.78 0 1.26-.54 1.26-2.04 0-1.416-.432-1.92-1.212-1.92-.792 0-1.32.492-1.32 1.932 0 1.452.468 2.028 1.272 2.028zm6.459.144l.54-.072c.168-.024.192-.06.192-.24V5.2c0-.132-.036-.216-.156-.252l-.648-.228.132-.972h2.112l.144.96h.072c.396-.612.924-1.08 1.692-1.08.276 0 .828.048 1.044.108V5.92l-1.44-.048-.12-.636c-.024-.108-.06-.132-.156-.132-.312 0-.684.264-.864.42v3.18c0 .192.012.228.192.24l1.188.096V10h-3.924v-.972zm11.313.504c-.744.36-1.56.612-2.46.612-2.316 0-3.108-1.44-3.108-3.312 0-2.172 1.332-3.204 2.976-3.204 1.584 0 2.64.828 2.64 2.904 0 .144-.012.564-.024.804h-3.672c.06.852.432 1.416 1.416 1.416.468 0 .972-.108 1.788-.408l.444 1.188zm-1.728-3.336c-.012-1.008-.408-1.272-.9-1.272-.516 0-.936.288-1.008 1.272h1.908zm6.127-1.188c-.024-.108-.036-.144-.12-.168a2.86 2.86 0 00-.768-.096c-.6 0-.936.228-.936.612 0 .492.66.6 1.392.768.947.216 2.015.552 2.015 1.956 0 1.464-1.188 2.064-2.712 2.064-1.091 0-2.16-.288-2.375-.432v-1.74l1.284.096.12.684c.023.108.035.144.143.18.144.048.468.12.924.12.636 0 .996-.18.996-.624 0-.48-.48-.624-1.091-.732-1.008-.18-2.328-.396-2.328-1.968 0-1.488 1.271-2.1 2.651-2.1.949 0 1.873.216 2.209.348v1.74l-1.285-.084-.12-.624zm2.331 6.576l.48-.072c.168-.024.216-.072.216-.252V5.2c0-.132-.024-.204-.156-.252l-.636-.228.132-.972h2.112l.108.612.06.024c.576-.468 1.356-.756 2.04-.756 1.344 0 2.304.84 2.304 3.072 0 1.44-.492 3.444-2.472 3.444a2.676 2.676 0 01-1.692-.6v1.704c0 .192.012.228.192.24l1.224.108v.948h-3.912v-.96zm2.496-3.3c.264.228.684.456 1.128.456.804 0 1.14-.768 1.14-1.944 0-1.236-.42-1.74-1.02-1.74-.504 0-.984.252-1.248.432v2.796zm8.056 1.86c-2.196 0-3.084-1.344-3.084-3.228 0-1.992 1.044-3.288 3.24-3.288 2.22 0 3.084 1.32 3.084 3.156 0 2.04-1.032 3.36-3.24 3.36zm.084-1.26c.78 0 1.26-.54 1.26-2.04 0-1.416-.432-1.92-1.212-1.92-.792 0-1.32.492-1.32 1.932 0 1.452.468 2.028 1.272 2.028zm8.306-2.76c0-.576-.036-1.056-.636-1.056-.444 0-.996.252-1.248.444v3.216c0 .192.012.216.192.24l.576.084V10h-3.312v-.96l.54-.072c.168-.024.192-.06.192-.24V5.2c0-.132-.036-.216-.156-.252l-.648-.228.144-.972h2.1l.096.624.048.024c.6-.444 1.296-.768 2.112-.768 1.308 0 1.812.72 1.812 2.04v3.06c0 .192.012.216.192.24l.6.084V10h-2.604V6.124zm7.668 3.204l-.084-.012c-.504.492-1.092.828-1.968.828-1.416 0-2.328-.9-2.328-3.192 0-2.412 1.212-3.324 2.544-3.324.696 0 1.236.24 1.692.576V2.38c0-.12-.048-.204-.156-.24l-.66-.228.132-.972H66v7.8c0 .18.012.204.192.228l.576.084V10h-2.232l-.12-.672zM64.2 5.38c-.3-.204-.684-.36-1.032-.36-.888 0-1.236.828-1.236 1.896 0 1.164.336 1.812 1.092 1.812.408 0 .852-.24 1.176-.516V5.38zm7.096 3.972l-.06-.012c-.456.444-1.056.804-2.016.804-1.512 0-1.752-1.032-1.752-1.776 0-1.2.732-1.74 2.244-1.848l1.38-.096v-.66c0-.564-.06-.948-.804-.948-.576 0-.876.084-.876.804l-1.692-.144c0-1.62 1.476-1.848 2.58-1.848 1.824 0 2.556.492 2.556 2.172v2.916c0 .192.012.216.192.24l.576.096V10h-2.208l-.12-.648zm-1.02-1.872c-.708.048-.96.228-.96.708s.288.66.684.66c.408 0 .816-.228 1.092-.432V7.42l-.816.06zm7.462-2.472c-.024-.108-.036-.144-.12-.168a2.86 2.86 0 00-.769-.096c-.6 0-.936.228-.936.612 0 .492.66.6 1.392.768.948.216 2.016.552 2.016 1.956 0 1.464-1.188 2.064-2.711 2.064-1.093 0-2.16-.288-2.376-.432v-1.74l1.283.096.12.684c.025.108.037.144.145.18.143.048.468.12.923.12.637 0 .997-.18.997-.624 0-.48-.48-.624-1.092-.732-1.008-.18-2.328-.396-2.328-1.968 0-1.488 1.271-2.1 2.651-2.1.948 0 1.873.216 2.209.348v1.74l-1.285-.084-.12-.624zm4.683 4.2c0 .612-.336.936-1.02.936-.696 0-1.032-.312-1.032-.936 0-.612.336-.936 1.032-.936.672 0 1.02.324 1.02.936z" fill="#8F3FB0"/><path d="M.456 23.052l.756-.084c.168-.024.192-.06.192-.24v-6.132c0-.18-.012-.216-.192-.24l-.756-.084v-.96h4.068c2.22 0 2.892 1.176 2.892 2.556 0 2.088-1.26 2.928-3.288 2.928h-.876v1.92c0 .192.024.228.192.24l1.716.096V24H.456v-.948zm3.396-3.54c.792 0 1.668-.18 1.668-1.536 0-1.152-.708-1.356-1.56-1.356h-.708v2.892h.6zm7.024 4.632c-2.196 0-3.084-1.344-3.084-3.228 0-1.992 1.044-3.288 3.24-3.288 2.22 0 3.084 1.32 3.084 3.156 0 2.04-1.032 3.36-3.24 3.36zm.084-1.26c.78 0 1.26-.54 1.26-2.04 0-1.416-.432-1.92-1.212-1.92-.792 0-1.32.492-1.32 1.932 0 1.452.468 2.028 1.272 2.028zm8.4.444l-.084-.012c-.504.492-1.092.828-1.968.828-1.416 0-2.328-.9-2.328-3.192 0-2.412 1.212-3.324 2.544-3.324.696 0 1.236.24 1.692.576V16.38c0-.12-.048-.204-.156-.24l-.66-.228.132-.972h2.412v7.8c0 .18.012.204.192.228l.576.084V24H19.48l-.12-.672zm-.216-3.948c-.3-.204-.684-.36-1.032-.36-.888 0-1.236.828-1.236 1.896 0 1.164.336 1.812 1.092 1.812.408 0 .852-.24 1.176-.516V19.38zm3.184 3.648l.54-.072c.168-.024.192-.06.192-.24V19.2c0-.132-.036-.216-.156-.252l-.648-.228.132-.972H24.5l.144.96h.072c.396-.612.924-1.08 1.692-1.08.276 0 .828.048 1.044.108v2.184l-1.44-.048-.12-.636c-.024-.108-.06-.132-.156-.132-.312 0-.684.264-.864.42v3.18c0 .192.012.228.192.24l1.188.096V24h-3.924v-.972zm5.72.024l.612-.084c.168-.024.192-.06.192-.24V19.2c0-.132-.036-.216-.156-.252l-.648-.228.132-.972h2.484v4.98c0 .192.012.216.192.24l.612.084V24h-3.42v-.948zm.108-6.36l1.836-2.088.984.936-2.148 1.752-.672-.6zm7.793 6.66l-.06-.012c-.456.444-1.056.804-2.016.804-1.512 0-1.752-1.032-1.752-1.776 0-1.2.732-1.74 2.244-1.848l1.38-.096v-.66c0-.564-.06-.948-.804-.948-.576 0-.876.084-.876.804l-1.692-.144c0-1.62 1.476-1.848 2.58-1.848 1.824 0 2.556.492 2.556 2.172v2.916c0 .192.012.216.192.24l.576.096V24h-2.208l-.12-.648zm-1.02-1.872c-.708.048-.96.228-.96.708s.288.66.684.66c.408 0 .816-.228 1.092-.432v-.996l-.816.06zm10.078-2.472c-.024-.108-.036-.144-.12-.168a2.86 2.86 0 00-.769-.096c-.6 0-.936.228-.936.612 0 .492.66.6 1.392.768.949.216 2.017.552 2.017 1.956 0 1.464-1.188 2.064-2.712 2.064-1.093 0-2.16-.288-2.377-.432v-1.74l1.284.096.12.684c.025.108.037.144.145.18.143.048.468.12.923.12.637 0 .997-.18.997-.624 0-.48-.48-.624-1.092-.732-1.008-.18-2.328-.396-2.328-1.968 0-1.488 1.271-2.1 2.651-2.1.949 0 1.873.216 2.209.348v1.74l-1.285-.084-.12-.624zm7.923 4.524c-.744.36-1.56.612-2.46.612-2.316 0-3.108-1.44-3.108-3.312 0-2.172 1.332-3.204 2.976-3.204 1.584 0 2.64.828 2.64 2.904 0 .144-.012.564-.024.804h-3.672c.06.852.432 1.416 1.416 1.416.468 0 .972-.108 1.788-.408l.444 1.188zm-1.728-3.336c-.012-1.008-.408-1.272-.9-1.272-.516 0-.936.288-1.008 1.272h1.908zm2.573 2.832l.54-.072c.168-.024.192-.06.192-.24V19.2c0-.132-.036-.216-.156-.252l-.648-.228.132-.972h2.112l.144.96h.072c.396-.612.924-1.08 1.692-1.08.276 0 .828.048 1.044.108v2.184l-1.44-.048-.12-.636c-.024-.108-.06-.132-.156-.132-.312 0-.684.264-.864.42v3.18c0 .192.012.228.192.24l1.188.096V24h-3.924v-.972zm12.97.324l-.06-.012c-.493.372-1.117.804-2.136.804-1.26 0-1.74-.72-1.74-2.112v-2.928c0-.192-.012-.216-.192-.252l-.576-.12.12-.984h2.46v3.972c0 .732.12 1.008.636 1.008.527 0 .96-.3 1.236-.552v-3.084c0-.192-.012-.204-.192-.24l-.517-.12.132-.984h2.389v4.98c0 .156.023.204.167.228l.6.084V24h-2.231l-.096-.648zm7.392-3.228c0-.576-.036-1.056-.636-1.056-.444 0-.996.252-1.248.444v3.216c0 .192.012.216.192.24l.576.084V24h-3.312v-.96l.54-.072c.168-.024.192-.06.192-.24V19.2c0-.132-.036-.216-.156-.252l-.648-.228.144-.972h2.1l.096.624.048.024c.6-.444 1.296-.768 2.112-.768 1.308 0 1.812.72 1.812 2.04v3.06c0 .192.012.216.192.24l.6.084V24h-2.604v-3.876zm7.092 3.228l-.06-.012c-.456.444-1.056.804-2.016.804-1.512 0-1.752-1.032-1.752-1.776 0-1.2.732-1.74 2.244-1.848l1.38-.096v-.66c0-.564-.06-.948-.804-.948-.576 0-.876.084-.876.804l-1.692-.144c0-1.62 1.476-1.848 2.58-1.848 1.824 0 2.556.492 2.556 2.172v2.916c0 .192.012.216.192.24l.576.096V24H81.35l-.12-.648zm-1.02-1.872c-.708.048-.96.228-.96.708s.288.66.684.66c.408 0 .816-.228 1.092-.432v-.996l-.816.06zm12.034 2.052c-.744.36-1.56.612-2.46.612-2.316 0-3.108-1.44-3.108-3.312 0-2.172 1.332-3.204 2.976-3.204 1.584 0 2.64.828 2.64 2.904 0 .144-.012.564-.024.804h-3.672c.06.852.432 1.416 1.416 1.416.468 0 .972-.108 1.788-.408l.444 1.188zm-1.728-3.336c-.012-1.008-.408-1.272-.9-1.272-.516 0-.936.288-1.008 1.272h1.908zm6.126-1.188c-.024-.108-.036-.144-.12-.168a2.86 2.86 0 00-.768-.096c-.6 0-.936.228-.936.612 0 .492.66.6 1.392.768.948.216 2.016.552 2.016 1.956 0 1.464-1.188 2.064-2.712 2.064-1.092 0-2.16-.288-2.376-.432v-1.74l1.284.096.12.684c.024.108.036.144.144.18.144.048.468.12.924.12.636 0 .996-.18.996-.624 0-.48-.48-.624-1.092-.732-1.008-.18-2.328-.396-2.328-1.968 0-1.488 1.272-2.1 2.652-2.1.948 0 1.872.216 2.208.348v1.74l-1.284-.084-.12-.624zm6.988 4.656c-.516.252-1.272.48-1.956.48-1.428 0-1.968-.576-1.968-1.932v-3.144c0-.072 0-.12-.096-.12h-.84V17.88c1.056-.12 1.476-.648 1.608-1.956h1.14v1.704c0 .084 0 .12.096.12h1.692v1.2h-1.788v2.868c0 .708.168.984.816.984.336 0 .684-.084.972-.192l.324 1.056zm4.439-.312l-.06-.012c-.456.444-1.056.804-2.016.804-1.512 0-1.752-1.032-1.752-1.776 0-1.2.732-1.74 2.244-1.848l1.38-.096v-.66c0-.564-.06-.948-.804-.948-.576 0-.876.084-.876.804l-1.692-.144c0-1.62 1.476-1.848 2.58-1.848 1.824 0 2.556.492 2.556 2.172v2.916c0 .192.012.216.192.24l.576.096V24h-2.208l-.12-.648zm-1.02-1.872c-.708.048-.96.228-.96.708s.288.66.684.66c.408 0 .816-.228 1.092-.432v-.996l-.816.06zm3.919 1.56l.672-.072c.168-.024.192-.072.192-.252v-3.648c0-.072 0-.12-.096-.12h-.804v-1.2h.9v-.66c0-1.62.912-2.292 2.568-2.292 1.116 0 2.148.276 2.148 1.728l-1.68.204c.012-.612-.156-.756-.552-.756-.6 0-.672.324-.672.9v.756c0 .084 0 .12.096.12h1.896v1.2h-1.992v3.732c0 .192.036.228.216.24l1.464.132V24h-4.356v-.96zm8.895.312l-.06-.012c-.456.444-1.056.804-2.016.804-1.512 0-1.752-1.032-1.752-1.776 0-1.2.732-1.74 2.244-1.848l1.38-.096v-.66c0-.564-.06-.948-.804-.948-.576 0-.876.084-.876.804l-1.692-.144c0-1.62 1.476-1.848 2.58-1.848 1.824 0 2.556.492 2.556 2.172v2.916c0 .192.012.216.192.24l.576.096V24h-2.208l-.12-.648zm-1.02-1.872c-.708.048-.96.228-.96.708s.288.66.684.66c.408 0 .816-.228 1.092-.432v-.996l-.816.06zm6.248 1.728c0 .612-.336.936-1.02.936-.696 0-1.032-.312-1.032-.936 0-.612.336-.936 1.032-.936.672 0 1.02.324 1.02.936z" fill="#2B3D51"/></svg>