<svg width="115" height="27" viewBox="0 0 115 27" fill="none" xmlns="http://www.w3.org/2000/svg"><path d="M4.884 2.884c-.024-.144-.06-.192-.144-.228a2.856 2.856 0 00-.876-.132c-.9 0-1.344.408-1.344 1.02 0 .792.816 1.008 1.728 1.284 1.14.348 2.412.78 2.412 2.58 0 1.968-1.536 2.736-3.372 2.736-1.08 0-2.292-.276-2.748-.492v-2.34h1.344l.24 1.14c.036.156.048.18.204.216.144.036.552.132 1.008.132.972 0 1.512-.384 1.512-1.116 0-.768-.684-1.008-1.488-1.236C2.172 6.112.708 5.788.708 3.856c0-1.848 1.392-2.7 3.216-2.7 1.032 0 1.92.252 2.46.48v2.34l-1.356-.12-.144-.972zm5.23-1.176c0 .684-.397 1.08-1.093 1.08-.684 0-1.08-.396-1.08-1.08S8.337.652 9.021.652c.696 0 1.092.372 1.092 1.056zm-2.64 7.344l.611-.084c.168-.024.192-.06.192-.24V5.2c0-.132-.036-.216-.156-.252l-.648-.228.132-.972h2.484v4.98c0 .192.012.216.192.24l.612.084V10h-3.42v-.948zm11.178.612c-.516.252-1.272.48-1.956.48-1.428 0-1.968-.576-1.968-1.932V5.068c0-.072 0-.12-.096-.12h-.84V3.88c1.056-.12 1.476-.648 1.608-1.956h1.14v1.704c0 .084 0 .12.096.12h1.692v1.2H16.54v2.868c0 .708.168.984.816.984.336 0 .684-.084.972-.192l.324 1.056zm5.896-.132c-.744.36-1.56.612-2.46.612-2.316 0-3.108-1.44-3.108-3.312 0-2.172 1.332-3.204 2.976-3.204 1.584 0 2.64.828 2.64 2.904 0 .144-.012.564-.024.804H20.9c.06.852.432 1.416 1.416 1.416.468 0 .972-.108 1.788-.408l.444 1.188zM22.82 6.196c-.012-1.008-.408-1.272-.9-1.272-.516 0-.936.288-1.008 1.272h1.908zm8.214 3.948c-2.196 0-3.084-1.344-3.084-3.228 0-1.992 1.044-3.288 3.24-3.288 2.22 0 3.084 1.32 3.084 3.156 0 2.04-1.032 3.36-3.24 3.36zm.084-1.26c.78 0 1.26-.54 1.26-2.04 0-1.416-.432-1.92-1.212-1.92-.792 0-1.32.492-1.32 1.932 0 1.452.468 2.028 1.272 2.028zm3.925.156l.672-.072c.168-.024.192-.072.192-.252V5.068c0-.072 0-.12-.096-.12h-.804v-1.2h.9v-.66c0-1.62.912-2.292 2.568-2.292 1.116 0 2.148.276 2.148 1.728l-1.68.204c.012-.612-.156-.756-.552-.756-.6 0-.672.324-.672.9v.756c0 .084 0 .12.096.12h1.896v1.2h-1.992V8.68c0 .192.036.228.216.24l1.464.132V10h-4.356v-.96zm5.346-.012l.54-.072c.168-.024.192-.06.192-.24V5.2c0-.132-.036-.216-.156-.252l-.648-.228.132-.972h2.112l.144.96h.072c.396-.612.924-1.08 1.692-1.08.276 0 .828.048 1.044.108V5.92l-1.44-.048-.12-.636c-.024-.108-.06-.132-.156-.132-.312 0-.684.264-.864.42v3.18c0 .192.012.228.192.24l1.188.096V10H40.39v-.972zm11.313.504c-.743.36-1.56.612-2.46.612-2.316 0-3.107-1.44-3.107-3.312 0-2.172 1.332-3.204 2.976-3.204 1.584 0 2.64.828 2.64 2.904 0 .144-.012.564-.024.804h-3.672c.06.852.431 1.416 1.416 1.416.468 0 .972-.108 1.788-.408l.444 1.188zm-1.727-3.336c-.013-1.008-.409-1.272-.9-1.272-.517 0-.937.288-1.009 1.272h1.908zm7.973 3.36c-.552.336-1.404.588-2.28.588-2.172 0-3.144-1.356-3.144-3.18 0-2.244 1.368-3.336 3.288-3.336.936 0 1.764.264 2.136.504v1.884l-1.284-.06-.144-.792c-.012-.084-.036-.156-.144-.192a2.086 2.086 0 00-.612-.084c-.72 0-1.332.492-1.332 1.896 0 1.56.696 2.004 1.548 2.004.6 0 1.14-.192 1.5-.348l.468 1.116zm6.229-.024c-.744.36-1.56.612-2.46.612-2.316 0-3.108-1.44-3.108-3.312 0-2.172 1.332-3.204 2.976-3.204 1.584 0 2.64.828 2.64 2.904 0 .144-.012.564-.024.804h-3.672c.06.852.432 1.416 1.416 1.416.468 0 .972-.108 1.788-.408l.444 1.188zm-1.728-3.336c-.012-1.008-.408-1.272-.9-1.272-.516 0-.936.288-1.008 1.272h1.908zm7-.072c0-.576-.035-1.056-.635-1.056-.444 0-.996.252-1.248.444v3.216c0 .192.011.216.191.24l.576.084V10h-3.311v-.96l.54-.072c.168-.024.192-.06.192-.24V5.2c0-.132-.037-.216-.157-.252l-.647-.228.144-.972h2.1l.096.624.047.024c.6-.444 1.296-.768 2.112-.768 1.308 0 1.813.72 1.813 2.04v3.06c0 .192.011.216.192.24l.6.084V10h-2.605V6.124zm11.307 3.408c-.744.36-1.56.612-2.46.612-2.316 0-3.108-1.44-3.108-3.312 0-2.172 1.332-3.204 2.976-3.204 1.584 0 2.64.828 2.64 2.904 0 .144-.012.564-.024.804h-3.672c.06.852.432 1.416 1.416 1.416.468 0 .972-.108 1.788-.408l.444 1.188zm-1.728-3.336c-.012-1.008-.408-1.272-.9-1.272-.516 0-.936.288-1.008 1.272h1.908zm5.561 5.388l1.032-.084c.192-.012.24-.06.24-.216V9.532l-.06-.024c-.42.36-.996.636-1.74.636-1.416 0-2.388-.9-2.388-3.144 0-2.46 1.26-3.372 2.568-3.372.72 0 1.284.288 1.74.684l.18-.564h1.572a18.316 18.316 0 00-.096 1.944v5.592c0 .18.012.204.192.228l.564.084v.948H84.59v-.96zm1.236-6.18c-.3-.204-.684-.384-1.056-.384-.864 0-1.212.828-1.212 1.896 0 1.164.324 1.812 1.128 1.812.408 0 .816-.216 1.14-.492V5.404zm7.64 3.948l-.06-.012c-.491.372-1.115.804-2.135.804-1.26 0-1.74-.72-1.74-2.112V5.104c0-.192-.012-.216-.192-.252l-.576-.12.12-.984h2.46V7.72c0 .732.12 1.008.636 1.008.528 0 .96-.3 1.236-.552V5.092c0-.192-.012-.204-.192-.24l-.516-.12.132-.984h2.388v4.98c0 .156.024.204.168.228l.6.084V10h-2.232l-.096-.648zm5.533-7.644c0 .684-.396 1.08-1.092 1.08-.684 0-1.08-.396-1.08-1.08s.396-1.056 1.08-1.056c.696 0 1.092.372 1.092 1.056zm-2.64 7.344l.612-.084c.168-.024.192-.06.192-.24V5.2c0-.132-.036-.216-.156-.252l-.648-.228.132-.972h2.484v4.98c0 .192.012.216.192.24l.612.084V10h-3.42v-.948zm3.977 2.532l.48-.072c.168-.024.216-.072.216-.252V5.2c0-.132-.024-.204-.156-.252l-.636-.228.132-.972h2.112l.108.612.06.024c.576-.468 1.356-.756 2.04-.756 1.344 0 2.304.84 2.304 3.072 0 1.44-.492 3.444-2.472 3.444a2.676 2.676 0 01-1.692-.6v1.704c0 .192.012.228.192.24l1.224.108v.948h-3.912v-.96zm2.496-3.3c.264.228.684.456 1.128.456.804 0 1.14-.768 1.14-1.944 0-1.236-.42-1.74-1.02-1.74-.504 0-.984.252-1.248.432v2.796zm8.056 1.86c-2.196 0-3.084-1.344-3.084-3.228 0-1.992 1.044-3.288 3.24-3.288 2.22 0 3.084 1.32 3.084 3.156 0 2.04-1.032 3.36-3.24 3.36zm.084-1.26c.78 0 1.26-.54 1.26-2.04 0-1.416-.432-1.92-1.212-1.92-.792 0-1.32.492-1.32 1.932 0 1.452.468 2.028 1.272 2.028zM7.908 20.124c0-.468-.048-1.032-.672-1.032-.336 0-.66.12-.972.324.024.192.036.384.036.588v2.724c0 .204.012.228.192.252l.48.072V24H4.488v-3.936c0-.444-.036-.972-.636-.972-.36 0-.756.18-.996.384v3.252c0 .192.012.216.192.24l.588.084V24H.312v-.948l.54-.084c.168-.024.192-.06.192-.24V19.2c0-.132-.036-.216-.156-.252L.24 18.72l.132-.972h2.112l.096.624.06.012c.54-.444 1.152-.756 1.92-.756.588 0 1.128.156 1.464.72.396-.312 1.092-.72 1.932-.72 1.284 0 1.764.636 1.764 2.028v3.072c0 .192.012.228.192.252l.6.072V24H7.908v-3.876zm8.768 3.408c-.744.36-1.56.612-2.46.612-2.316 0-3.108-1.44-3.108-3.312 0-2.172 1.332-3.204 2.976-3.204 1.584 0 2.64.828 2.64 2.904 0 .144-.012.564-.024.804h-3.672c.06.852.432 1.416 1.416 1.416.468 0 .972-.108 1.788-.408l.444 1.188zm-1.728-3.336c-.012-1.008-.408-1.272-.9-1.272-.516 0-.936.288-1.008 1.272h1.908zm-2.256-3.528l1.836-2.088.984.936-2.148 1.752-.672-.6zm9.282 6.66l-.084-.012c-.504.492-1.092.828-1.968.828-1.416 0-2.328-.9-2.328-3.192 0-2.412 1.212-3.324 2.544-3.324.696 0 1.236.24 1.692.576V16.38c0-.12-.048-.204-.156-.24l-.66-.228.132-.972h2.412v7.8c0 .18.012.204.192.228l.576.084V24h-2.232l-.12-.672zm-.216-3.948c-.3-.204-.684-.36-1.032-.36-.888 0-1.236.828-1.236 1.896 0 1.164.336 1.812 1.092 1.812.408 0 .852-.24 1.176-.516V19.38zm5.752-3.672c0 .684-.397 1.08-1.093 1.08-.684 0-1.08-.396-1.08-1.08s.396-1.056 1.08-1.056c.696 0 1.092.372 1.092 1.056zm-2.64 7.344l.611-.084c.168-.024.192-.06.192-.24V19.2c0-.132-.035-.216-.155-.252l-.649-.228.133-.972h2.483v4.98c0 .192.012.216.192.24l.613.084V24h-3.42v-.948zm9.424.504c-.552.336-1.404.588-2.28.588-2.172 0-3.144-1.356-3.144-3.18 0-2.244 1.368-3.336 3.288-3.336.936 0 1.764.264 2.136.504v1.884l-1.284-.06-.144-.792c-.012-.084-.036-.156-.144-.192a2.086 2.086 0 00-.612-.084c-.72 0-1.332.492-1.332 1.896 0 1.56.696 2.004 1.548 2.004.6 0 1.14-.192 1.5-.348l.468 1.116zm3.745.588c-2.196 0-3.084-1.344-3.084-3.228 0-1.992 1.044-3.288 3.24-3.288 2.22 0 3.084 1.32 3.084 3.156 0 2.04-1.032 3.36-3.24 3.36zm.084-1.26c.78 0 1.26-.54 1.26-2.04 0-1.416-.432-1.92-1.212-1.92-.792 0-1.32.492-1.32 1.932 0 1.452.468 2.028 1.272 2.028zm8.187-5.328c-.852-.012-1.56-.108-1.56-.876 0-.24.096-.504.228-.768l.576-1.212.756.228-.276 1.188c-.024.084-.012.108.06.132l.456.156-.24 1.152zm2.16 0c-.852-.012-1.56-.108-1.56-.876 0-.24.096-.504.228-.768l.576-1.212.756.228-.276 1.188c-.024.084-.012.108.06.132l.456.156-.24 1.152zm5.566 1.296c.216.276.444.66.444 1.212 0 1.332-1.044 2.112-2.556 2.112-.384 0-.732-.048-.948-.108l-.396.636 1.176.072c2.088.132 3.3.192 3.3 1.788 0 1.38-1.212 2.16-3.3 2.16-2.172 0-3-.552-3-1.5 0-.54.24-.828.66-1.224-.396-.168-.528-.468-.528-.792 0-.264.132-.504.348-.732.216-.228.456-.456.744-.72-.588-.288-1.032-.912-1.032-1.8 0-1.38.912-2.328 2.748-2.328.516 0 .828.048 1.104.12h2.34v1.02l-1.104.084zm-1.14 1.044c0-.708-.408-1.08-1.092-1.08-.66 0-1.152.324-1.152 1.104 0 .588.324.996 1.116.996.672 0 1.128-.396 1.128-1.02zm-2.412 4.428c-.156.192-.312.396-.312.636 0 .48.612.624 1.452.624.696 0 1.644-.048 1.644-.696 0-.384-.456-.408-1.032-.444l-1.752-.12zm5.248-1.296l.54-.072c.168-.024.192-.06.192-.24V19.2c0-.132-.036-.216-.156-.252l-.648-.228.132-.972h2.112l.144.96h.072c.396-.612.924-1.08 1.692-1.08.276 0 .828.048 1.044.108v2.184l-1.44-.048-.12-.636c-.024-.108-.06-.132-.156-.132-.312 0-.684.264-.864.42v3.18c0 .192.012.228.192.24l1.188.096V24h-3.924v-.972zm9.399.324l-.06-.012c-.456.444-1.056.804-2.016.804-1.512 0-1.752-1.032-1.752-1.776 0-1.2.732-1.74 2.244-1.848l1.38-.096v-.66c0-.564-.06-.948-.804-.948-.576 0-.876.084-.876.804l-1.692-.144c0-1.62 1.476-1.848 2.58-1.848 1.824 0 2.556.492 2.556 2.172v2.916c0 .192.012.216.192.24l.576.096V24h-2.208l-.12-.648zm-1.02-1.872c-.708.048-.96.228-.96.708s.288.66.684.66c.408 0 .816-.228 1.092-.432v-.996l-.816.06zm8.434 2.184c-.516.252-1.272.48-1.956.48-1.427 0-1.968-.576-1.968-1.932v-3.144c0-.072 0-.12-.096-.12h-.84V17.88c1.056-.12 1.477-.648 1.608-1.956h1.14v1.704c0 .084 0 .12.096.12h1.693v1.2h-1.788v2.868c0 .708.168.984.816.984.335 0 .683-.084.972-.192l.324 1.056zm3.271-7.956c0 .684-.396 1.08-1.092 1.08-.684 0-1.08-.396-1.08-1.08s.396-1.056 1.08-1.056c.696 0 1.092.372 1.092 1.056zm-2.64 7.344l.612-.084c.168-.024.192-.06.192-.24V19.2c0-.132-.036-.216-.156-.252l-.648-.228.132-.972h2.484v4.98c0 .192.012.216.192.24l.612.084V24h-3.42v-.948zm7.613-4.044c-.024-.108-.036-.144-.12-.168a2.86 2.86 0 00-.768-.096c-.6 0-.936.228-.936.612 0 .492.66.6 1.392.768.948.216 2.016.552 2.016 1.956 0 1.464-1.188 2.064-2.712 2.064-1.092 0-2.16-.288-2.376-.432v-1.74l1.284.096.12.684c.024.108.036.144.144.18.144.048.468.12.924.12.636 0 .996-.18.996-.624 0-.48-.48-.624-1.092-.732-1.008-.18-2.328-.396-2.328-1.968 0-1.488 1.272-2.1 2.652-2.1.948 0 1.872.216 2.208.348v1.74l-1.284-.084-.12-.624zm2.733-2.856c.024-.108.012-.132-.06-.156l-.456-.144.24-1.152c.852.012 1.56.096 1.56.876 0 .24-.084.504-.216.768l-.576 1.212-.768-.228.276-1.176zm2.16 0c.024-.108.012-.132-.06-.156l-.456-.144.24-1.152c.852.012 1.56.096 1.56.876 0 .24-.084.504-.216.768l-.576 1.212-.768-.228.276-1.176zm4.54 7.056c0 .612-.337.936-1.02.936-.697 0-1.032-.312-1.032-.936 0-.612.335-.936 1.031-.936.673 0 1.02.324 1.02.936zm3.377 0c0 .612-.336.936-1.02.936-.696 0-1.032-.312-1.032-.936 0-.612.336-.936 1.032-.936.672 0 1.02.324 1.02.936zm3.378 0c0 .612-.336.936-1.02.936-.696 0-1.032-.312-1.032-.936 0-.612.336-.936 1.032-.936.672 0 1.02.324 1.02.936z" fill="#2B3D51"/></svg>