<svg width="284" height="40" viewBox="0 0 284 40" fill="none" xmlns="http://www.w3.org/2000/svg"><path d="M18.24 15V1.428h3.527l6.516 8.298V1.428h3.51V15h-3.51l-6.516-8.298V15H18.24zm19.312-4.662c0 .312.054.6.162.864.12.252.27.474.45.666.192.192.414.342.666.45a2.166 2.166 0 001.638 0c.264-.108.486-.258.666-.45.192-.192.342-.414.45-.666.12-.264.18-.546.18-.846 0-.288-.06-.558-.18-.81a2.056 2.056 0 00-.45-.684 1.868 1.868 0 00-.666-.45 2.166 2.166 0 00-1.638 0 2.106 2.106 0 00-.666.45 2.6 2.6 0 00-.45.666 2.034 2.034 0 00-.162.81zm-3.438-.036c0-.684.138-1.32.414-1.908.276-.6.66-1.116 1.152-1.548a5.41 5.41 0 011.746-1.044 6.409 6.409 0 012.232-.378c.792 0 1.524.126 2.196.378.684.24 1.272.582 1.764 1.026a4.44 4.44 0 011.17 1.566c.276.6.414 1.266.414 1.998s-.144 1.404-.432 2.016c-.276.6-.66 1.122-1.152 1.566a5.268 5.268 0 01-1.782 1.008c-.684.24-1.428.36-2.232.36-.792 0-1.524-.12-2.196-.36a5.167 5.167 0 01-1.746-1.026 4.847 4.847 0 01-1.134-1.584 5.062 5.062 0 01-.414-2.07zm19.084-2.16c-.6-.312-1.188-.468-1.764-.468-.3 0-.546.06-.738.18a.557.557 0 00-.27.486c0 .108.012.198.036.27a.59.59 0 00.198.18 1.9 1.9 0 00.45.162c.204.048.468.108.792.18.9.18 1.572.504 2.016.972.444.456.666 1.044.666 1.764 0 .54-.108 1.026-.324 1.458a3.185 3.185 0 01-.9 1.098c-.384.288-.846.51-1.386.666a5.977 5.977 0 01-1.782.252c-1.248 0-2.478-.354-3.69-1.062l1.188-2.304c.912.624 1.776.936 2.592.936.3 0 .546-.066.738-.198.192-.132.288-.3.288-.504a.649.649 0 00-.054-.288.384.384 0 00-.18-.216 1.227 1.227 0 00-.432-.18c-.18-.06-.42-.12-.72-.18-1.008-.204-1.716-.504-2.124-.9-.396-.408-.594-.966-.594-1.674 0-.516.096-.978.288-1.386a2.87 2.87 0 01.828-1.062c.36-.288.792-.51 1.296-.666a5.892 5.892 0 011.71-.234c1.02 0 2.01.198 2.97.594l-1.098 2.124zm6.116 2.196c0 .312.054.6.162.864.12.252.27.474.45.666.192.192.414.342.666.45a2.166 2.166 0 001.638 0c.264-.108.486-.258.666-.45.192-.192.342-.414.45-.666.12-.264.18-.546.18-.846 0-.288-.06-.558-.18-.81a2.056 2.056 0 00-.45-.684 1.868 1.868 0 00-.666-.45 2.166 2.166 0 00-1.638 0 2.106 2.106 0 00-.666.45 2.6 2.6 0 00-.45.666 2.034 2.034 0 00-.162.81zm-3.438-.036c0-.684.138-1.32.414-1.908.276-.6.66-1.116 1.152-1.548a5.41 5.41 0 011.746-1.044 6.409 6.409 0 012.232-.378c.792 0 1.524.126 2.196.378.684.24 1.272.582 1.764 1.026a4.44 4.44 0 011.17 1.566c.276.6.414 1.266.414 1.998s-.144 1.404-.432 2.016c-.276.6-.66 1.122-1.152 1.566a5.268 5.268 0 01-1.782 1.008c-.684.24-1.428.36-2.232.36-.792 0-1.524-.12-2.196-.36a5.167 5.167 0 01-1.746-1.026 4.847 4.847 0 01-1.134-1.584 5.062 5.062 0 01-.414-2.07zm16.652-1.818V15H69.27V8.484h-1.08V5.766h1.08V2.994h3.258v2.772h1.854v2.718h-1.854zm3.08-2.718h3.257v1.512c.348-.552.774-.972 1.278-1.26.504-.3 1.092-.45 1.764-.45h.27c.108 0 .228.012.36.036v3.114a3.095 3.095 0 00-1.404-.324c-.756 0-1.326.228-1.71.684-.372.444-.558 1.098-.558 1.962V15h-3.258V5.766zm11.513 4.59c0 .3.054.582.162.846.108.252.252.474.432.666.192.192.414.342.666.45a2.212 2.212 0 001.656 0c.264-.108.486-.258.666-.45.192-.192.342-.414.45-.666.12-.252.18-.522.18-.81 0-.288-.06-.558-.18-.81a2.056 2.056 0 00-.45-.684 1.868 1.868 0 00-.666-.45 2.212 2.212 0 00-1.656 0 2.106 2.106 0 00-.666.45c-.18.192-.324.414-.432.666-.108.24-.162.504-.162.792zm4.104-4.59h3.276V15h-3.276v-1.026c-.696.876-1.638 1.314-2.826 1.314-.672 0-1.29-.12-1.854-.36a4.586 4.586 0 01-1.476-1.044 4.901 4.901 0 01-.99-1.566 5.48 5.48 0 01-.342-1.962c0-.66.114-1.284.342-1.872.228-.6.546-1.122.954-1.566a4.387 4.387 0 011.458-1.044 4.361 4.361 0 011.872-.396c1.152 0 2.106.402 2.862 1.206v-.918zm11.614 2.376c-.6-.312-1.188-.468-1.764-.468-.3 0-.546.06-.738.18a.557.557 0 00-.27.486c0 .108.012.198.036.27a.59.59 0 00.198.18 1.9 1.9 0 00.45.162c.204.048.468.108.792.18.9.18 1.572.504 2.016.972.444.456.666 1.044.666 1.764 0 .54-.108 1.026-.324 1.458a3.185 3.185 0 01-.9 1.098c-.384.288-.846.51-1.386.666a5.978 5.978 0 01-1.782.252c-1.248 0-2.478-.354-3.69-1.062l1.188-2.304c.912.624 1.775.936 2.591.936.301 0 .547-.066.739-.198.192-.132.288-.3.288-.504a.649.649 0 00-.054-.288.384.384 0 00-.18-.216 1.227 1.227 0 00-.432-.18c-.18-.06-.42-.12-.72-.18-1.008-.204-1.716-.504-2.124-.9-.396-.408-.594-.966-.594-1.674 0-.516.096-.978.287-1.386a2.87 2.87 0 01.828-1.062c.36-.288.793-.51 1.297-.666a5.896 5.896 0 011.71-.234c1.02 0 2.01.198 2.97.594l-1.098 2.124zm9.155-2.376h3.258v1.17c.444-.54.894-.9 1.35-1.08.456-.192.99-.288 1.602-.288.648 0 1.2.108 1.656.324.468.204.864.498 1.188.882.264.312.444.66.54 1.044.096.384.144.822.144 1.314V15h-3.258v-4.662c0-.456-.036-.822-.108-1.098-.06-.288-.174-.516-.342-.684a1.235 1.235 0 00-.486-.306 1.81 1.81 0 00-.576-.09c-.552 0-.978.168-1.278.504-.288.324-.432.792-.432 1.404V15h-3.258V5.766zm15.031 4.572c0 .312.054.6.162.864.12.252.27.474.45.666.192.192.414.342.666.45a2.166 2.166 0 001.638 0c.264-.108.486-.258.666-.45.192-.192.342-.414.45-.666.12-.264.18-.546.18-.846 0-.288-.06-.558-.18-.81a2.056 2.056 0 00-.45-.684 1.868 1.868 0 00-.666-.45 2.166 2.166 0 00-1.638 0 2.106 2.106 0 00-.666.45 2.6 2.6 0 00-.45.666 2.034 2.034 0 00-.162.81zm-3.438-.036c0-.684.138-1.32.414-1.908.276-.6.66-1.116 1.152-1.548a5.41 5.41 0 011.746-1.044 6.409 6.409 0 012.232-.378c.792 0 1.524.126 2.196.378.684.24 1.272.582 1.764 1.026a4.44 4.44 0 011.17 1.566c.276.6.414 1.266.414 1.998s-.144 1.404-.432 2.016c-.276.6-.66 1.122-1.152 1.566a5.268 5.268 0 01-1.782 1.008c-.684.24-1.428.36-2.232.36-.792 0-1.524-.12-2.196-.36a5.167 5.167 0 01-1.746-1.026 4.847 4.847 0 01-1.134-1.584 5.062 5.062 0 01-.414-2.07zm26.047-1.548c-.564-.384-1.134-.576-1.71-.576-.312 0-.606.054-.882.162a2.118 2.118 0 00-.702.468 2.1 2.1 0 00-.486.702 2.36 2.36 0 00-.162.9c0 .324.054.624.162.9.12.264.276.498.468.702.204.192.444.342.72.45.276.108.57.162.882.162.612 0 1.182-.21 1.71-.63v2.772c-.804.348-1.566.522-2.286.522a5.472 5.472 0 01-1.926-.342 5.075 5.075 0 01-1.602-.972 5.028 5.028 0 01-1.098-1.53 4.724 4.724 0 01-.414-1.998c0-.732.132-1.398.396-1.998a4.683 4.683 0 011.08-1.566 4.722 4.722 0 011.62-1.026 5.47 5.47 0 012.034-.378c.792 0 1.524.168 2.196.504v2.772zm4.936 1.584c0 .312.054.6.162.864.12.252.27.474.45.666.192.192.414.342.666.45a2.166 2.166 0 001.638 0c.264-.108.486-.258.666-.45.192-.192.342-.414.45-.666.12-.264.18-.546.18-.846 0-.288-.06-.558-.18-.81a2.056 2.056 0 00-.45-.684 1.868 1.868 0 00-.666-.45 2.166 2.166 0 00-1.638 0 2.106 2.106 0 00-.666.45 2.6 2.6 0 00-.45.666 2.034 2.034 0 00-.162.81zm-3.438-.036c0-.684.138-1.32.414-1.908.276-.6.66-1.116 1.152-1.548a5.41 5.41 0 011.746-1.044 6.409 6.409 0 012.232-.378c.792 0 1.524.126 2.196.378.684.24 1.272.582 1.764 1.026a4.44 4.44 0 011.17 1.566c.276.6.414 1.266.414 1.998s-.144 1.404-.432 2.016c-.276.6-.66 1.122-1.152 1.566a5.268 5.268 0 01-1.782 1.008c-.684.24-1.428.36-2.232.36-.792 0-1.524-.12-2.196-.36a5.167 5.167 0 01-1.746-1.026 4.847 4.847 0 01-1.134-1.584 5.062 5.062 0 01-.414-2.07zm12.963-4.536h3.258V6.9c.888-.852 1.884-1.278 2.988-1.278 1.368 0 2.412.576 3.132 1.728.732-1.164 1.776-1.746 3.132-1.746.432 0 .84.066 1.224.198.384.12.714.318.99.594.276.264.492.612.648 1.044.168.432.252.954.252 1.566V15h-3.258v-4.554c0-.468-.036-.852-.108-1.152-.06-.3-.156-.534-.288-.702a.904.904 0 00-.432-.342 1.594 1.594 0 00-.54-.09c-1.044 0-1.566.762-1.566 2.286V15h-3.258v-4.554c0-.468-.03-.852-.09-1.152-.06-.312-.15-.558-.27-.738a.788.788 0 00-.432-.36 1.69 1.69 0 00-.63-.108c-.204 0-.396.03-.576.09-.18.06-.342.18-.486.36-.132.168-.24.408-.324.72-.072.3-.108.696-.108 1.188V15h-3.258V5.766zm25.538 4.644c0-.288-.054-.558-.162-.81a1.846 1.846 0 00-.432-.684 2.056 2.056 0 00-.684-.45 1.9 1.9 0 00-.828-.18c-.288 0-.558.054-.81.162a2.106 2.106 0 00-.666.45c-.18.192-.33.42-.45.684a2.034 2.034 0 00-.162.81c0 .288.054.558.162.81.108.252.258.474.45.666.192.18.414.33.666.45a2.166 2.166 0 001.638 0c.252-.108.468-.258.648-.45.192-.192.342-.414.45-.666.12-.252.18-.516.18-.792zm-4.104 9.198h-3.258V5.766h3.258v1.026c.696-.876 1.644-1.314 2.844-1.314.66 0 1.272.132 1.836.396.576.252 1.074.6 1.494 1.044.42.444.744.966.972 1.566.24.6.36 1.242.36 1.926a5 5 0 01-.36 1.908 4.7 4.7 0 01-.972 1.548 4.387 4.387 0 01-1.458 1.044 4.449 4.449 0 01-1.836.378c-1.152 0-2.112-.396-2.88-1.188v5.508zm12.387-9.252c0 .3.054.582.162.846.108.252.252.474.432.666.192.192.414.342.666.45a2.212 2.212 0 001.656 0c.264-.108.486-.258.666-.45.192-.192.342-.414.45-.666.12-.252.18-.522.18-.81 0-.288-.06-.558-.18-.81a2.056 2.056 0 00-.45-.684 1.868 1.868 0 00-.666-.45 2.212 2.212 0 00-1.656 0 2.106 2.106 0 00-.666.45c-.18.192-.324.414-.432.666-.108.24-.162.504-.162.792zm4.104-4.59h3.276V15h-3.276v-1.026c-.696.876-1.638 1.314-2.826 1.314-.672 0-1.29-.12-1.854-.36a4.586 4.586 0 01-1.476-1.044 4.901 4.901 0 01-.99-1.566 5.48 5.48 0 01-.342-1.962c0-.66.114-1.284.342-1.872.228-.6.546-1.122.954-1.566a4.387 4.387 0 011.458-1.044 4.361 4.361 0 011.872-.396c1.152 0 2.106.402 2.862 1.206v-.918zm5.493 0h3.258v1.512c.348-.552.774-.972 1.278-1.26.504-.3 1.092-.45 1.764-.45h.27c.108 0 .228.012.36.036v3.114a3.095 3.095 0 00-1.404-.324c-.756 0-1.326.228-1.71.684-.372.444-.558 1.098-.558 1.962V15h-3.258V5.766zm12.355 2.718V15h-3.258V8.484h-1.08V5.766h1.08V2.994h3.258v2.772h1.854v2.718h-1.854zm6.583-2.718V15h-3.258V5.766h3.258zm-3.474-3.546c0-.252.048-.486.144-.702a1.84 1.84 0 01.396-.594c.168-.168.36-.3.576-.396a1.837 1.837 0 012.412.99 1.837 1.837 0 010 1.422 1.899 1.899 0 01-.396.576 1.84 1.84 0 01-.594.396 1.837 1.837 0 01-1.422 0 1.899 1.899 0 01-.576-.396c-.168-.168-.3-.36-.396-.576a1.837 1.837 0 01-.144-.72zm5.701 3.546h3.258V6.9c.888-.852 1.884-1.278 2.988-1.278 1.368 0 2.412.576 3.132 1.728.732-1.164 1.776-1.746 3.132-1.746.432 0 .84.066 1.224.198.384.12.714.318.99.594.276.264.492.612.648 1.044.168.432.252.954.252 1.566V15h-3.258v-4.554c0-.468-.036-.852-.108-1.152-.06-.3-.156-.534-.288-.702a.904.904 0 00-.432-.342 1.594 1.594 0 00-.54-.09c-1.044 0-1.566.762-1.566 2.286V15h-3.258v-4.554c0-.468-.03-.852-.09-1.152-.06-.312-.15-.558-.27-.738a.788.788 0 00-.432-.36 1.69 1.69 0 00-.63-.108c-.204 0-.396.03-.576.09-.18.06-.342.18-.486.36-.132.168-.24.408-.324.72-.072.3-.108.696-.108 1.188V15h-3.258V5.766zm20.937 4.572c0 .312.054.6.162.864.12.252.27.474.45.666.192.192.414.342.666.45a2.166 2.166 0 001.638 0c.264-.108.486-.258.666-.45.192-.192.342-.414.45-.666.12-.264.18-.546.18-.846 0-.288-.06-.558-.18-.81a2.056 2.056 0 00-.45-.684 1.868 1.868 0 00-.666-.45 2.166 2.166 0 00-1.638 0 2.106 2.106 0 00-.666.45 2.6 2.6 0 00-.45.666 2.034 2.034 0 00-.162.81zm-3.438-.036c0-.684.138-1.32.414-1.908.276-.6.66-1.116 1.152-1.548a5.41 5.41 0 011.746-1.044 6.409 6.409 0 012.232-.378c.792 0 1.524.126 2.196.378.684.24 1.272.582 1.764 1.026a4.44 4.44 0 011.17 1.566c.276.6.414 1.266.414 1.998s-.144 1.404-.432 2.016c-.276.6-.66 1.122-1.152 1.566a5.268 5.268 0 01-1.782 1.008c-.684.24-1.428.36-2.232.36-.792 0-1.524-.12-2.196-.36a5.167 5.167 0 01-1.746-1.026 4.847 4.847 0 01-1.134-1.584 5.062 5.062 0 01-.414-2.07zm19.083-2.16c-.6-.312-1.188-.468-1.764-.468-.3 0-.546.06-.738.18a.557.557 0 00-.27.486c0 .108.012.198.036.27a.59.59 0 00.198.18 1.9 1.9 0 00.45.162c.204.048.468.108.792.18.9.18 1.572.504 2.016.972.444.456.666 1.044.666 1.764 0 .54-.108 1.026-.324 1.458a3.185 3.185 0 01-.9 1.098c-.384.288-.846.51-1.386.666a5.977 5.977 0 01-1.782.252c-1.248 0-2.478-.354-3.69-1.062l1.188-2.304c.912.624 1.776.936 2.592.936.3 0 .546-.066.738-.198.192-.132.288-.3.288-.504a.649.649 0 00-.054-.288.384.384 0 00-.18-.216 1.227 1.227 0 00-.432-.18c-.18-.06-.42-.12-.72-.18-1.008-.204-1.716-.504-2.124-.9-.396-.408-.594-.966-.594-1.674 0-.516.096-.978.288-1.386a2.87 2.87 0 01.828-1.062c.36-.288.792-.51 1.296-.666a5.892 5.892 0 011.71-.234c1.02 0 2.01.198 2.97.594l-1.098 2.124zM.303 29.766H3.56v1.17c.444-.54.894-.9 1.35-1.08.456-.192.99-.288 1.602-.288.648 0 1.2.108 1.656.324.468.204.864.498 1.188.882.264.312.444.66.54 1.044.096.384.143.822.143 1.314V39H6.784v-4.662c0-.456-.036-.822-.108-1.098-.06-.288-.174-.516-.342-.684a1.235 1.235 0 00-.486-.306 1.81 1.81 0 00-.576-.09c-.552 0-.978.168-1.278.504-.288.324-.432.792-.432 1.404V39H.303v-9.234zm15.21 0v5.202c0 1.14.553 1.71 1.657 1.71s1.656-.57 1.656-1.71v-5.202h3.258v5.832c0 1.248-.414 2.184-1.242 2.808-.816.624-2.04.936-3.672.936-1.632 0-2.862-.312-3.69-.936-.816-.624-1.224-1.56-1.224-2.808v-5.832h3.258zm15.534 3.276a1.96 1.96 0 00-.666-1.098c-.336-.276-.744-.414-1.224-.414-.504 0-.918.132-1.242.396-.312.264-.51.636-.594 1.116h3.726zm-3.816 1.89c0 1.404.66 2.106 1.98 2.106.708 0 1.242-.288 1.602-.864h3.15c-.636 2.112-2.226 3.168-4.77 3.168-.78 0-1.494-.114-2.142-.342a4.992 4.992 0 01-1.674-1.008 4.511 4.511 0 01-1.062-1.548c-.252-.6-.378-1.272-.378-2.016 0-.768.12-1.458.36-2.07a4.358 4.358 0 011.026-1.584 4.457 4.457 0 011.602-.99c.636-.24 1.35-.36 2.142-.36.78 0 1.482.12 2.106.36a4.17 4.17 0 011.584 1.008c.432.444.762.99.99 1.638.228.636.342 1.356.342 2.16v.342H27.23zm14.84-2.79c-.6-.312-1.188-.468-1.764-.468-.3 0-.546.06-.738.18a.557.557 0 00-.27.486c0 .108.012.198.036.27a.59.59 0 00.198.18 1.9 1.9 0 00.45.162c.204.048.468.108.792.18.9.18 1.572.504 2.016.972.444.456.666 1.044.666 1.764 0 .54-.108 1.026-.324 1.458a3.185 3.185 0 01-.9 1.098c-.384.288-.846.51-1.386.666a5.977 5.977 0 01-1.782.252c-1.248 0-2.478-.354-3.69-1.062l1.188-2.304c.912.624 1.776.936 2.592.936.3 0 .546-.066.738-.198.192-.132.288-.3.288-.504a.649.649 0 00-.054-.288.384.384 0 00-.18-.216 1.227 1.227 0 00-.432-.18c-.18-.06-.42-.12-.72-.18-1.008-.204-1.716-.504-2.124-.9-.396-.408-.594-.966-.594-1.674 0-.516.096-.978.288-1.386a2.87 2.87 0 01.828-1.062c.36-.288.792-.51 1.296-.666a5.892 5.892 0 011.71-.234c1.02 0 2.01.198 2.97.594l-1.098 2.124zm6.92.342V39h-3.258v-6.516h-1.08v-2.718h1.08v-2.772h3.258v2.772h1.854v2.718h-1.854zm3.08-2.718h3.257v1.512c.348-.552.774-.972 1.278-1.26.504-.3 1.092-.45 1.764-.45h.27c.108 0 .228.012.36.036v3.114a3.095 3.095 0 00-1.404-.324c-.756 0-1.326.228-1.71.684-.372.444-.558 1.098-.558 1.962V39H52.07v-9.234zm11.532 4.572c0 .312.054.6.162.864.12.252.27.474.45.666.192.192.414.342.666.45a2.166 2.166 0 001.638 0c.264-.108.486-.258.666-.45.192-.192.342-.414.45-.666.12-.264.18-.546.18-.846 0-.288-.06-.558-.18-.81a2.056 2.056 0 00-.45-.684 1.868 1.868 0 00-.666-.45 2.166 2.166 0 00-1.638 0 2.106 2.106 0 00-.666.45 2.6 2.6 0 00-.45.666 2.034 2.034 0 00-.162.81zm-3.438-.036c0-.684.138-1.32.414-1.908.276-.6.66-1.116 1.152-1.548a5.41 5.41 0 011.746-1.044 6.409 6.409 0 012.232-.378c.792 0 1.524.126 2.196.378.684.24 1.272.582 1.764 1.026a4.44 4.44 0 011.17 1.566c.276.6.414 1.266.414 1.998s-.144 1.404-.432 2.016c-.276.6-.66 1.122-1.152 1.566a5.268 5.268 0 01-1.782 1.008c-.684.24-1.428.36-2.232.36-.792 0-1.524-.12-2.196-.36a5.167 5.167 0 01-1.746-1.026 4.847 4.847 0 01-1.134-1.584 5.062 5.062 0 01-.414-2.07zm19.08-4.536h3.259v1.17c.444-.54.894-.9 1.35-1.08.456-.192.99-.288 1.602-.288.648 0 1.2.108 1.656.324.468.204.864.498 1.188.882.264.312.444.66.54 1.044.096.384.144.822.144 1.314V39h-3.258v-4.662c0-.456-.036-.822-.108-1.098-.06-.288-.174-.516-.342-.684a1.235 1.235 0 00-.486-.306 1.81 1.81 0 00-.576-.09c-.552 0-.978.168-1.278.504-.288.324-.432.792-.432 1.404V39h-3.258v-9.234zm15.212 0v5.202c0 1.14.552 1.71 1.656 1.71 1.104 0 1.656-.57 1.656-1.71v-5.202h3.258v5.832c0 1.248-.414 2.184-1.242 2.808-.816.624-2.04.936-3.672.936-1.632 0-2.862-.312-3.69-.936-.816-.624-1.224-1.56-1.224-2.808v-5.832h3.258zm4.788-4.122l-3.132 2.772-1.512-1.116 2.574-3.15 2.07 1.494zm3.995 4.122h3.258V30.9c.888-.852 1.884-1.278 2.988-1.278 1.368 0 2.412.576 3.132 1.728.732-1.164 1.776-1.746 3.132-1.746.432 0 .84.066 1.224.198.384.12.714.318.99.594.276.264.492.612.648 1.044.168.432.252.954.252 1.566V39h-3.258v-4.554c0-.468-.036-.852-.108-1.152-.06-.3-.156-.534-.288-.702a.904.904 0 00-.432-.342 1.594 1.594 0 00-.54-.09c-1.044 0-1.566.762-1.566 2.286V39h-3.258v-4.554c0-.468-.03-.852-.09-1.152-.06-.312-.15-.558-.27-.738a.788.788 0 00-.432-.36 1.69 1.69 0 00-.63-.108c-.204 0-.396.03-.576.09-.18.06-.342.18-.486.36-.132.168-.24.408-.324.72-.072.3-.108.696-.108 1.188V39h-3.258v-9.234zm24.609 3.276a1.96 1.96 0 00-.666-1.098c-.336-.276-.744-.414-1.224-.414-.504 0-.918.132-1.242.396-.312.264-.51.636-.594 1.116h3.726zm-3.816 1.89c0 1.404.66 2.106 1.98 2.106.708 0 1.242-.288 1.602-.864h3.15c-.636 2.112-2.226 3.168-4.77 3.168-.78 0-1.494-.114-2.142-.342a4.992 4.992 0 01-1.674-1.008 4.511 4.511 0 01-1.062-1.548c-.252-.6-.378-1.272-.378-2.016 0-.768.12-1.458.36-2.07a4.358 4.358 0 011.026-1.584 4.457 4.457 0 011.602-.99c.636-.24 1.35-.36 2.142-.36.78 0 1.482.12 2.106.36a4.17 4.17 0 011.584 1.008c.432.444.762.99.99 1.638.228.636.342 1.356.342 2.16v.342h-6.858zm8.721-5.166h3.258v1.512c.348-.552.774-.972 1.278-1.26.504-.3 1.092-.45 1.764-.45h.27c.108 0 .228.012.36.036v3.114a3.095 3.095 0 00-1.404-.324c-.756 0-1.326.228-1.71.684-.372.444-.558 1.098-.558 1.962V39h-3.258v-9.234zm11.533 4.572c0 .312.054.6.162.864.12.252.27.474.45.666.192.192.414.342.666.45a2.166 2.166 0 001.638 0c.264-.108.486-.258.666-.45.192-.192.342-.414.45-.666.12-.264.18-.546.18-.846 0-.288-.06-.558-.18-.81a2.056 2.056 0 00-.45-.684 1.868 1.868 0 00-.666-.45 2.166 2.166 0 00-1.638 0 2.106 2.106 0 00-.666.45 2.6 2.6 0 00-.45.666 2.034 2.034 0 00-.162.81zm-3.438-.036c0-.684.138-1.32.414-1.908.276-.6.66-1.116 1.152-1.548a5.41 5.41 0 011.746-1.044 6.409 6.409 0 012.232-.378c.792 0 1.524.126 2.196.378.684.24 1.272.582 1.764 1.026a4.44 4.44 0 011.17 1.566c.276.6.414 1.266.414 1.998s-.144 1.404-.432 2.016c-.276.6-.66 1.122-1.152 1.566a5.268 5.268 0 01-1.782 1.008c-.684.24-1.428.36-2.232.36-.792 0-1.524-.12-2.196-.36a5.167 5.167 0 01-1.746-1.026 4.847 4.847 0 01-1.134-1.584 5.062 5.062 0 01-.414-2.07zm22.104.054c0 .3.054.582.162.846.108.252.252.474.432.666.192.192.414.342.666.45a2.212 2.212 0 001.656 0c.264-.108.486-.258.666-.45.192-.192.342-.414.45-.666.12-.252.18-.522.18-.81 0-.288-.06-.558-.18-.81a2.056 2.056 0 00-.45-.684 1.868 1.868 0 00-.666-.45 2.166 2.166 0 00-1.638 0 2.106 2.106 0 00-.666.45 2.6 2.6 0 00-.45.666c-.108.24-.162.504-.162.792zm4.104-10.296h3.276V39h-3.276v-1.026c-.696.876-1.638 1.314-2.826 1.314a4.493 4.493 0 01-3.33-1.422 4.901 4.901 0 01-.99-1.566 5.428 5.428 0 01-.342-1.944c0-.66.108-1.284.324-1.872.228-.6.546-1.122.954-1.566a4.387 4.387 0 011.458-1.044 4.482 4.482 0 011.89-.396c1.152 0 2.106.402 2.862 1.206V24.06zm12.244 8.982a1.96 1.96 0 00-.666-1.098c-.336-.276-.744-.414-1.224-.414-.504 0-.918.132-1.242.396-.312.264-.51.636-.594 1.116h3.726zm-3.816 1.89c0 1.404.66 2.106 1.98 2.106.708 0 1.242-.288 1.602-.864h3.15c-.636 2.112-2.226 3.168-4.77 3.168-.78 0-1.494-.114-2.142-.342a4.992 4.992 0 01-1.674-1.008 4.511 4.511 0 01-1.062-1.548c-.252-.6-.378-1.272-.378-2.016 0-.768.12-1.458.36-2.07a4.358 4.358 0 011.026-1.584 4.457 4.457 0 011.602-.99c.636-.24 1.35-.36 2.142-.36.78 0 1.482.12 2.106.36a4.17 4.17 0 011.584 1.008c.432.444.762.99.99 1.638.228.636.342 1.356.342 2.16v.342h-6.858zM190.016 39l2.304-13.572h3.492l2.718 7.236 2.7-7.236h3.492L207.026 39h-3.51l-1.17-7.812L199.142 39h-1.404l-3.042-7.812-1.17 7.812h-3.51zm25.197-5.958a1.96 1.96 0 00-.666-1.098c-.336-.276-.744-.414-1.224-.414-.504 0-.918.132-1.242.396-.312.264-.51.636-.594 1.116h3.726zm-3.816 1.89c0 1.404.66 2.106 1.98 2.106.708 0 1.242-.288 1.602-.864h3.15c-.636 2.112-2.226 3.168-4.77 3.168-.78 0-1.494-.114-2.142-.342a4.992 4.992 0 01-1.674-1.008 4.511 4.511 0 01-1.062-1.548c-.252-.6-.378-1.272-.378-2.016 0-.768.12-1.458.36-2.07a4.358 4.358 0 011.026-1.584 4.457 4.457 0 011.602-.99c.636-.24 1.35-.36 2.142-.36.78 0 1.482.12 2.106.36a4.17 4.17 0 011.584 1.008c.432.444.762.99.99 1.638.228.636.342 1.356.342 2.16v.342h-6.858zm11.744-.576c0 .3.054.582.162.846.108.252.252.474.432.666.192.192.414.342.666.45a2.212 2.212 0 001.656 0c.264-.108.486-.258.666-.45.192-.192.342-.414.45-.666.12-.252.18-.522.18-.81 0-.288-.06-.558-.18-.81a2.056 2.056 0 00-.45-.684 1.868 1.868 0 00-.666-.45 2.166 2.166 0 00-1.638 0 2.106 2.106 0 00-.666.45 2.6 2.6 0 00-.45.666c-.108.24-.162.504-.162.792zm4.104-10.296h3.276V39h-3.276v-1.026c-.696.876-1.638 1.314-2.826 1.314a4.493 4.493 0 01-3.33-1.422 4.901 4.901 0 01-.99-1.566 5.428 5.428 0 01-.342-1.944c0-.66.108-1.284.324-1.872.228-.6.546-1.122.954-1.566a4.387 4.387 0 011.458-1.044 4.482 4.482 0 011.89-.396c1.152 0 2.106.402 2.862 1.206V24.06zm8.751 5.706V39h-3.258v-9.234h3.258zm-3.474-3.546c0-.252.048-.486.144-.702a1.84 1.84 0 01.396-.594c.168-.168.36-.3.576-.396a1.837 1.837 0 012.412.99 1.837 1.837 0 010 1.422 1.899 1.899 0 01-.396.576 1.84 1.84 0 01-.594.396 1.837 1.837 0 01-1.422 0 1.899 1.899 0 01-.576-.396c-.168-.168-.3-.36-.396-.576a1.837 1.837 0 01-.144-.72zm12.666 6.534c-.564-.384-1.134-.576-1.71-.576-.312 0-.606.054-.882.162a2.118 2.118 0 00-.702.468 2.1 2.1 0 00-.486.702 2.36 2.36 0 00-.162.9c0 .324.054.624.162.9.12.264.276.498.468.702.204.192.444.342.72.45.276.108.57.162.882.162.612 0 1.182-.21 1.71-.63v2.772c-.804.348-1.566.522-2.286.522a5.472 5.472 0 01-1.926-.342 5.075 5.075 0 01-1.602-.972 5.028 5.028 0 01-1.098-1.53 4.724 4.724 0 01-.414-1.998c0-.732.132-1.398.396-1.998a4.683 4.683 0 011.08-1.566 4.722 4.722 0 011.62-1.026 5.47 5.47 0 012.034-.378c.792 0 1.524.168 2.196.504v2.772zm4.883 1.602c0 .3.054.582.162.846.108.252.252.474.432.666.192.192.414.342.666.45a2.212 2.212 0 001.656 0c.264-.108.486-.258.666-.45.192-.192.342-.414.45-.666.12-.252.18-.522.18-.81 0-.288-.06-.558-.18-.81a2.056 2.056 0 00-.45-.684 1.868 1.868 0 00-.666-.45 2.212 2.212 0 00-1.656 0 2.106 2.106 0 00-.666.45c-.18.192-.324.414-.432.666-.108.24-.162.504-.162.792zm4.104-4.59h3.276V39h-3.276v-1.026c-.696.876-1.638 1.314-2.826 1.314-.672 0-1.29-.12-1.854-.36a4.586 4.586 0 01-1.476-1.044 4.901 4.901 0 01-.99-1.566 5.48 5.48 0 01-.342-1.962c0-.66.114-1.284.342-1.872.228-.6.546-1.122.954-1.566a4.387 4.387 0 011.458-1.044 4.361 4.361 0 011.872-.396c1.152 0 2.106.402 2.862 1.206v-.918zm5.493 0h3.258v1.512c.348-.552.774-.972 1.278-1.26.504-.3 1.092-.45 1.764-.45h.27c.108 0 .228.012.36.036v3.114a3.095 3.095 0 00-1.404-.324c-.756 0-1.326.228-1.71.684-.372.444-.558 1.098-.558 1.962V39h-3.258v-9.234zm15.24 3.276a1.96 1.96 0 00-.666-1.098c-.336-.276-.744-.414-1.224-.414-.504 0-.918.132-1.242.396-.312.264-.51.636-.594 1.116h3.726zm-3.816 1.89c0 1.404.66 2.106 1.98 2.106.708 0 1.242-.288 1.602-.864h3.15c-.636 2.112-2.226 3.168-4.77 3.168-.78 0-1.494-.114-2.142-.342a4.992 4.992 0 01-1.674-1.008 4.511 4.511 0 01-1.062-1.548c-.252-.6-.378-1.272-.378-2.016 0-.768.12-1.458.36-2.07a4.358 4.358 0 011.026-1.584 4.457 4.457 0 011.602-.99c.636-.24 1.35-.36 2.142-.36.78 0 1.482.12 2.106.36a4.17 4.17 0 011.584 1.008c.432.444.762.99.99 1.638.228.636.342 1.356.342 2.16v.342h-6.858zm8.558 2.34c0-.288.054-.558.162-.81a2.056 2.056 0 011.116-1.134 2.166 2.166 0 011.638 0c.264.108.492.258.684.45.192.192.342.42.45.684a2.166 2.166 0 010 1.638 2.056 2.056 0 01-1.134 1.116 2.166 2.166 0 01-1.638 0 2.106 2.106 0 01-1.116-1.116 2.166 2.166 0 01-.162-.828z" fill="#fff"/></svg>