<svg width="264" height="14" viewBox="0 0 264 14" fill="none" xmlns="http://www.w3.org/2000/svg"><path d="M6.317 9.986l1.066-.117-.468-1.352H3.69l-.455 1.352 1.027.117V11H.636V9.986l.572-.143c.156-.039.273-.091.325-.247L4.38 1.588h2.3l2.835 8.034c.052.156.156.182.312.221l.598.143V11H6.317V9.986zM5.29 3.577L4.094 7.113h2.43L5.369 3.577H5.29zm5.626 9.139l.52-.078c.182-.026.234-.078.234-.273V5.8c0-.143-.026-.221-.169-.273l-.689-.247.143-1.053h2.288l.117.663.065.026c.624-.507 1.469-.819 2.21-.819 1.456 0 2.496.91 2.496 3.328 0 1.56-.533 3.731-2.678 3.731a2.9 2.9 0 01-1.833-.65v1.846c0 .208.013.247.208.26l1.326.117v1.027h-4.238v-1.04zm2.704-3.575c.286.247.741.494 1.222.494.871 0 1.235-.832 1.235-2.106 0-1.339-.455-1.885-1.105-1.885-.546 0-1.066.273-1.352.468v3.029zm5.437.806l.585-.078c.182-.026.208-.065.208-.26V5.8c0-.143-.039-.234-.169-.273l-.702-.247.143-1.053h2.288l.156 1.04h.078c.429-.663 1.001-1.17 1.833-1.17.299 0 .897.052 1.131.117V6.58l-1.56-.052-.13-.689c-.026-.117-.065-.143-.169-.143-.338 0-.741.286-.936.455v3.445c0 .208.013.247.208.26l1.287.104V11h-4.251V9.947zm12.256.546c-.806.39-1.69.663-2.665.663-2.509 0-3.367-1.56-3.367-3.588 0-2.353 1.443-3.471 3.224-3.471 1.716 0 2.86.897 2.86 3.146 0 .156-.013.611-.026.871h-3.978c.065.923.468 1.534 1.534 1.534.507 0 1.053-.117 1.937-.442l.481 1.287zm-1.872-3.614c-.013-1.092-.442-1.378-.975-1.378-.559 0-1.014.312-1.092 1.378h2.067zm7.584-.078c0-.624-.039-1.144-.689-1.144-.48 0-1.079.273-1.352.481v3.484c0 .208.013.234.208.26l.624.091V11h-3.588V9.96l.585-.078c.182-.026.208-.065.208-.26V5.8c0-.143-.039-.234-.169-.273l-.702-.247.156-1.053h2.275l.104.676.052.026c.65-.481 1.404-.832 2.288-.832 1.417 0 1.963.78 1.963 2.21v3.315c0 .208.013.234.208.26l.65.091V11h-2.82V6.801zm8.308 3.471l-.091-.013c-.546.533-1.183.897-2.133.897-1.534 0-2.522-.975-2.522-3.458 0-2.613 1.313-3.601 2.756-3.601.754 0 1.34.26 1.833.624V2.745c0-.13-.052-.221-.169-.26l-.715-.247.143-1.053h2.613v8.45c0 .195.014.221.209.247l.623.091V11h-2.418l-.13-.728zm-.234-4.277c-.325-.221-.741-.39-1.118-.39-.962 0-1.34.897-1.34 2.054 0 1.261.364 1.963 1.184 1.963.441 0 .922-.26 1.273-.559V5.995zm9.392 4.498c-.806.39-1.69.663-2.665.663-2.509 0-3.367-1.56-3.367-3.588 0-2.353 1.443-3.471 3.224-3.471 1.716 0 2.86.897 2.86 3.146 0 .156-.013.611-.026.871H50.54c.065.923.468 1.534 1.534 1.534.507 0 1.053-.117 1.937-.442l.481 1.287zM52.62 6.879c-.013-1.092-.442-1.378-.975-1.378-.559 0-1.014.312-1.092 1.378h2.067zm9.783 3.419l-.065-.013c-.494.481-1.144.871-2.184.871-1.638 0-1.898-1.118-1.898-1.924 0-1.3.793-1.885 2.431-2.002l1.495-.104v-.715c0-.611-.065-1.027-.87-1.027-.625 0-.95.091-.95.871l-1.833-.156c0-1.755 1.6-2.002 2.795-2.002 1.976 0 2.77.533 2.77 2.353v3.159c0 .208.012.234.207.26l.624.104V11h-2.392l-.13-.702zM61.297 8.27c-.767.052-1.04.247-1.04.767s.312.715.741.715c.442 0 .884-.247 1.183-.468V8.205l-.884.065zm9.773-6.253c0 .741-.429 1.17-1.183 1.17-.74 0-1.17-.429-1.17-1.17 0-.741.43-1.144 1.17-1.144.754 0 1.183.403 1.183 1.144zm-2.86 7.956l.663-.091c.182-.026.208-.065.208-.26V5.8c0-.143-.039-.234-.169-.273l-.702-.247.143-1.053h2.691v5.395c0 .208.013.234.208.26l.663.091V11H68.21V9.973zm9.146.299l-.091-.013c-.546.533-1.183.897-2.132.897-1.534 0-2.522-.975-2.522-3.458 0-2.613 1.313-3.601 2.756-3.601.754 0 1.339.26 1.833.624V2.745c0-.13-.052-.221-.17-.26l-.714-.247.143-1.053h2.613v8.45c0 .195.013.221.208.247l.624.091V11h-2.418l-.13-.728zm-.234-4.277c-.325-.221-.741-.39-1.118-.39-.962 0-1.34.897-1.34 2.054 0 1.261.365 1.963 1.184 1.963.442 0 .923-.26 1.274-.559V5.995zm9.392 4.498c-.806.39-1.69.663-2.665.663-2.509 0-3.367-1.56-3.367-3.588 0-2.353 1.443-3.471 3.224-3.471 1.716 0 2.86.897 2.86 3.146 0 .156-.013.611-.026.871h-3.978c.065.923.468 1.534 1.534 1.534.507 0 1.053-.117 1.937-.442l.481 1.287zm-1.872-3.614c-.013-1.092-.442-1.378-.975-1.378-.559 0-1.014.312-1.092 1.378h2.067zm7.584-.078c0-.624-.039-1.144-.689-1.144-.48 0-1.079.273-1.352.481v3.484c0 .208.013.234.208.26l.624.091V11H87.43V9.96l.585-.078c.182-.026.208-.065.208-.26V5.8c0-.143-.039-.234-.169-.273l-.702-.247.156-1.053h2.275l.104.676.052.026c.65-.481 1.404-.832 2.288-.832 1.417 0 1.963.78 1.963 2.21v3.315c0 .208.013.234.208.26l.65.091V11h-2.82V6.801zm8.413 3.835c-.559.273-1.378.52-2.119.52-1.547 0-2.132-.624-2.132-2.093V5.657c0-.078 0-.13-.104-.13h-.91V4.37c1.144-.13 1.6-.702 1.742-2.119h1.235v1.846c0 .091 0 .13.104.13h1.833v1.3h-1.937v3.107c0 .767.182 1.066.884 1.066.364 0 .741-.091 1.053-.208l.351 1.144zm3.543-8.619c0 .741-.429 1.17-1.183 1.17-.741 0-1.17-.429-1.17-1.17 0-.741.429-1.144 1.17-1.144.754 0 1.183.403 1.183 1.144zm-2.86 7.956l.663-.091c.182-.026.208-.065.208-.26V5.8c0-.143-.039-.234-.169-.273l-.702-.247.143-1.053h2.691v5.395c0 .208.013.234.208.26l.663.091V11h-3.705V9.973zm9.431-4.29c0-.104-.026-.156-.13-.156h-2.067V9.57c0 .234.039.247.234.273l.91.13V11h-4.043V9.973l.702-.091c.221-.026.234-.065.234-.312V5.657c0-.078 0-.13-.104-.13h-.871v-1.3h.975v-.65c0-1.924 1.118-2.548 3.237-2.548 1.612 0 2.73.273 2.756 2.054l-1.846.221c0-.806-.182-1.001-1.014-1.001-.871 0-1.17.26-1.17 1.001v.793c0 .104.013.13.143.13h4.017v5.395c0 .208.013.234.208.26l.663.091V11h-2.834V5.683zm9.339 4.836c-.598.364-1.521.637-2.47.637-2.353 0-3.406-1.469-3.406-3.445 0-2.431 1.482-3.614 3.562-3.614 1.014 0 1.911.286 2.314.546v2.041l-1.391-.065-.156-.858c-.013-.091-.039-.169-.156-.208a2.26 2.26 0 00-.663-.091c-.78 0-1.443.533-1.443 2.054 0 1.69.754 2.171 1.677 2.171.65 0 1.235-.208 1.625-.377l.507 1.209zm4.929-.221l-.065-.013c-.494.481-1.144.871-2.184.871-1.638 0-1.898-1.118-1.898-1.924 0-1.3.793-1.885 2.431-2.002l1.495-.104v-.715c0-.611-.065-1.027-.871-1.027-.624 0-.949.091-.949.871l-1.833-.156c0-1.755 1.599-2.002 2.795-2.002 1.976 0 2.769.533 2.769 2.353v3.159c0 .208.013.234.208.26l.624.104V11h-2.392l-.13-.702zm-1.105-2.028c-.767.052-1.04.247-1.04.767s.312.715.741.715c.442 0 .884-.247 1.183-.468V8.205l-.884.065zm4.233 1.677l.585-.078c.182-.026.208-.065.208-.26V5.8c0-.143-.039-.234-.169-.273l-.702-.247.143-1.053h2.288l.156 1.04h.078c.429-.663 1.001-1.17 1.833-1.17.299 0 .897.052 1.131.117V6.58l-1.56-.052-.13-.689c-.026-.117-.065-.143-.169-.143-.338 0-.741.286-.936.455v3.445c0 .208.013.247.208.26l1.287.104V11h-4.251V9.947zm10.124 2.756l1.014-.117c.169-.013.247-.104.325-.286l.559-1.235-2.483-5.434c-.078-.156-.117-.182-.273-.221l-.533-.13.208-1.053h3.445V5.28l-.819.104 1.443 3.432h.091l1.378-3.432-.845-.104.169-1.053h2.899V5.28l-.416.078c-.156.026-.26.065-.325.221l-2.86 6.994 1.352.143v1.04h-4.329v-1.053zm9.845-2.756l.585-.078c.182-.026.208-.065.208-.26V5.8c0-.143-.039-.234-.169-.273l-.702-.247.143-1.053h2.288l.156 1.04h.078c.429-.663 1.001-1.17 1.833-1.17.299 0 .897.052 1.131.117V6.58l-1.56-.052-.13-.689c-.026-.117-.065-.143-.169-.143-.338 0-.741.286-.936.455v3.445c0 .208.013.247.208.26l1.287.104V11h-4.251V9.947zm12.256.546c-.806.39-1.69.663-2.665.663-2.509 0-3.367-1.56-3.367-3.588 0-2.353 1.443-3.471 3.224-3.471 1.716 0 2.86.897 2.86 3.146 0 .156-.013.611-.026.871h-3.978c.065.923.468 1.534 1.534 1.534.507 0 1.053-.117 1.937-.442l.481 1.287zm-1.872-3.614c-.013-1.092-.442-1.378-.975-1.378-.559 0-1.014.312-1.092 1.378h2.067zm2.736 5.837l.52-.078c.182-.026.234-.078.234-.273V5.8c0-.143-.026-.221-.169-.273l-.689-.247.143-1.053h2.288l.117.663.065.026c.624-.507 1.469-.819 2.21-.819 1.456 0 2.496.91 2.496 3.328 0 1.56-.533 3.731-2.678 3.731a2.9 2.9 0 01-1.833-.65v1.846c0 .208.013.247.208.26l1.326.117v1.027h-4.238v-1.04zm2.704-3.575c.286.247.741.494 1.222.494.871 0 1.235-.832 1.235-2.106 0-1.339-.455-1.885-1.105-1.885-.546 0-1.066.273-1.352.468v3.029zm8.728 2.015c-2.379 0-3.341-1.456-3.341-3.497 0-2.158 1.131-3.562 3.51-3.562 2.405 0 3.341 1.43 3.341 3.419 0 2.21-1.118 3.64-3.51 3.64zm.091-1.365c.845 0 1.365-.585 1.365-2.21 0-1.534-.468-2.08-1.313-2.08-.858 0-1.43.533-1.43 2.093 0 1.573.507 2.197 1.378 2.197zm4.2.156l.585-.078c.182-.026.208-.065.208-.26V5.8c0-.143-.039-.234-.169-.273l-.702-.247.143-1.053h2.288l.156 1.04h.078c.429-.663 1.001-1.17 1.833-1.17.299 0 .897.052 1.131.117V6.58l-1.56-.052-.13-.689c-.026-.117-.065-.143-.169-.143-.338 0-.741.286-.936.455v3.445c0 .208.013.247.208.26l1.287.104V11h-4.251V9.947zm11.407.689c-.559.273-1.378.52-2.119.52-1.547 0-2.132-.624-2.132-2.093V5.657c0-.078 0-.13-.104-.13h-.91V4.37c1.144-.13 1.599-.702 1.742-2.119h1.235v1.846c0 .091 0 .13.104.13h1.833v1.3h-1.937v3.107c0 .767.182 1.066.884 1.066.364 0 .741-.091 1.053-.208l.351 1.144zm4.809-.338l-.065-.013c-.494.481-1.144.871-2.184.871-1.638 0-1.898-1.118-1.898-1.924 0-1.3.793-1.885 2.431-2.002l1.495-.104v-.715c0-.611-.065-1.027-.871-1.027-.624 0-.949.091-.949.871l-1.833-.156c0-1.755 1.599-2.002 2.795-2.002 1.976 0 2.769.533 2.769 2.353v3.159c0 .208.013.234.208.26l.624.104V11h-2.392l-.13-.702zm-1.105-2.028c-.767.052-1.04.247-1.04.767s.312.715.741.715c.442 0 .884-.247 1.183-.468V8.205l-.884.065zm4.233 1.677l.585-.078c.182-.026.208-.065.208-.26V5.8c0-.143-.039-.234-.169-.273l-.702-.247.143-1.053h2.288l.156 1.04h.078c.429-.663 1.001-1.17 1.833-1.17.299 0 .897.052 1.131.117V6.58l-1.56-.052-.13-.689c-.026-.117-.065-.143-.169-.143-.338 0-.741.286-.936.455v3.445c0 .208.013.247.208.26l1.287.104V11h-4.251V9.947zm15.078.546c-.806.39-1.69.663-2.665.663-2.509 0-3.367-1.56-3.367-3.588 0-2.353 1.443-3.471 3.224-3.471 1.716 0 2.86.897 2.86 3.146 0 .156-.013.611-.026.871h-3.978c.065.923.468 1.534 1.534 1.534.507 0 1.053-.117 1.937-.442l.481 1.287zm-1.872-3.614c-.013-1.092-.442-1.378-.975-1.378-.559 0-1.014.312-1.092 1.378h2.067zm2.722 3.094l.65-.091c.182-.026.208-.065.208-.26V2.758c0-.143-.039-.234-.169-.273l-.715-.247.143-1.053h2.704v8.437c0 .208.013.234.208.26l.637.091V11h-3.666V9.973zm7.079-.013l.728-.078c.182-.026.208-.078.208-.273V5.657c0-.078 0-.13-.104-.13h-.871v-1.3h.975v-.715c0-1.755.988-2.483 2.782-2.483 1.209 0 2.327.299 2.327 1.872l-1.82.221c.013-.663-.169-.819-.598-.819-.65 0-.728.351-.728.975v.819c0 .091 0 .13.104.13h2.054v1.3h-2.158V9.57c0 .208.039.247.234.26l1.586.143V11h-4.719V9.96zm5.792-.013l.585-.078c.182-.026.208-.065.208-.26V5.8c0-.143-.039-.234-.169-.273l-.702-.247.143-1.053h2.288l.156 1.04h.078c.429-.663 1.001-1.17 1.833-1.17.299 0 .897.052 1.131.117V6.58l-1.56-.052-.13-.689c-.026-.117-.065-.143-.169-.143-.338 0-.741.286-.936.455v3.445c0 .208.013.247.208.26l1.287.104V11h-4.251V9.947zm10.182.351l-.065-.013c-.494.481-1.144.871-2.184.871-1.638 0-1.898-1.118-1.898-1.924 0-1.3.793-1.885 2.431-2.002l1.495-.104v-.715c0-.611-.065-1.027-.871-1.027-.624 0-.949.091-.949.871l-1.833-.156c0-1.755 1.599-2.002 2.795-2.002 1.976 0 2.769.533 2.769 2.353v3.159c0 .208.013.234.208.26l.624.104V11h-2.392l-.13-.702zm-1.105-2.028c-.767.052-1.04.247-1.04.767s.312.715.741.715c.442 0 .884-.247 1.183-.468V8.205l-.884.065zm9.023 2.028l-.065-.013c-.533.403-1.209.871-2.314.871-1.365 0-1.885-.78-1.885-2.288V5.696c0-.208-.013-.234-.208-.273l-.624-.13.13-1.066h2.665V8.53c0 .793.13 1.092.689 1.092.572 0 1.04-.325 1.339-.598V5.683c0-.208-.013-.221-.208-.26l-.559-.13.143-1.066h2.587v5.395c0 .169.026.221.182.247l.65.091V11h-2.418l-.104-.702zm7.998-.026l-.091-.013c-.546.533-1.183.897-2.132.897-1.534 0-2.522-.975-2.522-3.458 0-2.613 1.313-3.601 2.756-3.601.754 0 1.339.26 1.833.624V2.745c0-.13-.052-.221-.169-.26l-.715-.247.143-1.053h2.613v8.45c0 .195.013.221.208.247l.624.091V11h-2.418l-.13-.728zm-.234-4.277c-.325-.221-.741-.39-1.118-.39-.962 0-1.339.897-1.339 2.054 0 1.261.364 1.963 1.183 1.963.442 0 .923-.26 1.274-.559V5.995zm9.392 4.498c-.806.39-1.69.663-2.665.663-2.509 0-3.367-1.56-3.367-3.588 0-2.353 1.443-3.471 3.224-3.471 1.716 0 2.86.897 2.86 3.146 0 .156-.013.611-.026.871h-3.978c.065.923.468 1.534 1.534 1.534.507 0 1.053-.117 1.937-.442l.481 1.287zm-1.872-3.614c-.013-1.092-.442-1.378-.975-1.378-.559 0-1.014.312-1.092 1.378h2.067zm5.259 3.263c0 .663-.364 1.014-1.105 1.014-.754 0-1.118-.338-1.118-1.014 0-.663.364-1.014 1.118-1.014.728 0 1.105.351 1.105 1.014z" fill="#fff"/></svg>