<svg width="96" height="25" viewBox="0 0 96 25" fill="none" xmlns="http://www.w3.org/2000/svg"><path d="M5.604 9.064l.756-.084c.168-.024.192-.06.192-.24V6.208H3.264v2.52c0 .192.012.216.192.24l.804.096V10H.456v-.936l.756-.084c.168-.024.192-.06.192-.24V2.596c0-.18-.012-.216-.192-.24l-.756-.084v-.96H4.26v.96l-.804.096c-.18.024-.192.048-.192.228v2.268h3.288V2.596c0-.18-.012-.216-.192-.24l-.756-.084v-.96h3.792v.96l-.804.096c-.18.024-.192.048-.192.228v6.132c0 .192.012.216.192.24l.804.096V10H5.604v-.936zm8.56.288l-.06-.012c-.456.444-1.056.804-2.016.804-1.512 0-1.752-1.032-1.752-1.776 0-1.2.732-1.74 2.244-1.848l1.38-.096v-.66c0-.564-.06-.948-.804-.948-.576 0-.876.084-.876.804l-1.692-.144c0-1.62 1.476-1.848 2.58-1.848 1.824 0 2.556.492 2.556 2.172v2.916c0 .192.012.216.192.24l.576.096V10h-2.208l-.12-.648zm-1.02-1.872c-.708.048-.96.228-.96.708s.288.66.684.66c.408 0 .816-.228 1.092-.432V7.42l-.816.06zm4.016 1.512l3.216-4.116h-1.68c-.108 0-.12.072-.132.156l-.144.672-1.272.072V3.748h5.268V4.78L19.26 8.884h1.764c.108 0 .12-.072.132-.156L21.3 7.9l1.308-.06V10H17.16V8.992zm14.337.54c-.744.36-1.56.612-2.46.612-2.316 0-3.108-1.44-3.108-3.312 0-2.172 1.332-3.204 2.976-3.204 1.584 0 2.64.828 2.64 2.904 0 .144-.012.564-.024.804h-3.672c.06.852.432 1.416 1.416 1.416.468 0 .972-.108 1.788-.408l.444 1.188zm-1.728-3.336c-.012-1.008-.408-1.272-.9-1.272-.516 0-.936.288-1.008 1.272h1.908zm5.562 5.388l1.031-.084c.192-.012.24-.06.24-.216V9.532l-.06-.024c-.42.36-.995.636-1.74.636-1.416 0-2.388-.9-2.388-3.144 0-2.46 1.26-3.372 2.569-3.372.72 0 1.284.288 1.74.684l.18-.564h1.572a18.316 18.316 0 00-.096 1.944v5.592c0 .18.012.204.192.228l.564.084v.948H35.33v-.96zm1.235-6.18c-.3-.204-.684-.384-1.056-.384-.863 0-1.212.828-1.212 1.896 0 1.164.325 1.812 1.128 1.812.408 0 .816-.216 1.14-.492V5.404zm7.641 3.948l-.06-.012c-.492.372-1.116.804-2.136.804-1.26 0-1.74-.72-1.74-2.112V5.104c0-.192-.012-.216-.192-.252l-.576-.12.12-.984h2.46V7.72c0 .732.12 1.008.636 1.008.528 0 .96-.3 1.236-.552V5.092c0-.192-.012-.204-.192-.24l-.516-.12.132-.984h2.388v4.98c0 .156.024.204.168.228l.6.084V10h-2.232l-.096-.648zm5.532-7.644c0 .684-.395 1.08-1.091 1.08-.684 0-1.08-.396-1.08-1.08s.396-1.056 1.08-1.056c.695 0 1.091.372 1.091 1.056zM47.1 9.052l.613-.084c.167-.024.191-.06.191-.24V5.2c0-.132-.035-.216-.155-.252L47.1 4.72l.131-.972h2.484v4.98c0 .192.012.216.192.24l.613.084V10H47.1v-.948zm3.977 2.532l.48-.072c.168-.024.216-.072.216-.252V5.2c0-.132-.024-.204-.156-.252l-.636-.228.132-.972h2.112l.108.612.06.024c.576-.468 1.356-.756 2.04-.756 1.344 0 2.304.84 2.304 3.072 0 1.44-.492 3.444-2.472 3.444a2.676 2.676 0 01-1.692-.6v1.704c0 .192.012.228.192.24l1.224.108v.948h-3.912v-.96zm2.496-3.3c.264.228.684.456 1.128.456.804 0 1.14-.768 1.14-1.944 0-1.236-.42-1.74-1.02-1.74-.504 0-.984.252-1.248.432v2.796zm8.057 1.86c-2.196 0-3.084-1.344-3.084-3.228 0-1.992 1.044-3.288 3.24-3.288 2.22 0 3.084 1.32 3.084 3.156 0 2.04-1.032 3.36-3.24 3.36zm.084-1.26c.78 0 1.26-.54 1.26-2.04 0-1.416-.432-1.92-1.212-1.92-.792 0-1.32.492-1.32 1.932 0 1.452.468 2.028 1.272 2.028zM5.748 23.556c-.552.336-1.404.588-2.28.588-2.172 0-3.144-1.356-3.144-3.18 0-2.244 1.368-3.336 3.288-3.336.936 0 1.764.264 2.136.504v1.884l-1.284-.06-.144-.792c-.012-.084-.036-.156-.144-.192a2.086 2.086 0 00-.612-.084c-.72 0-1.332.492-1.332 1.896 0 1.56.696 2.004 1.548 2.004.6 0 1.14-.192 1.5-.348l.468 1.116zm3.745.588c-2.196 0-3.084-1.344-3.084-3.228 0-1.992 1.044-3.288 3.24-3.288 2.22 0 3.084 1.32 3.084 3.156 0 2.04-1.032 3.36-3.24 3.36zm.084-1.26c.78 0 1.26-.54 1.26-2.04 0-1.416-.432-1.92-1.212-1.92-.792 0-1.32.492-1.32 1.932 0 1.452.468 2.028 1.272 2.028zm8.305-2.76c0-.576-.036-1.056-.636-1.056-.444 0-.996.252-1.248.444v3.216c0 .192.012.216.192.24l.576.084V24h-3.312v-.96l.54-.072c.168-.024.192-.06.192-.24V19.2c0-.132-.036-.216-.156-.252l-.648-.228.144-.972h2.1l.096.624.048.024c.6-.444 1.296-.768 2.112-.768 1.308 0 1.812.72 1.812 2.04v3.06c0 .192.012.216.192.24l.6.084V24h-2.604v-3.876zm7.766 3.54c-.516.252-1.272.48-1.956.48-1.428 0-1.968-.576-1.968-1.932v-3.144c0-.072 0-.12-.096-.12h-.84V17.88c1.056-.12 1.476-.648 1.608-1.956h1.14v1.704c0 .084 0 .12.096.12h1.692v1.2h-1.788v2.868c0 .708.168.984.816.984.336 0 .684-.084.972-.192l.324 1.056zm.703-.636l.54-.072c.168-.024.192-.06.192-.24V19.2c0-.132-.036-.216-.156-.252l-.648-.228.132-.972h2.112l.144.96h.072c.396-.612.924-1.08 1.692-1.08.276 0 .828.048 1.044.108v2.184l-1.44-.048-.12-.636c-.024-.108-.06-.132-.156-.132-.312 0-.684.264-.864.42v3.18c0 .192.012.228.192.24l1.188.096V24H26.35v-.972zm9.399.324l-.06-.012c-.456.444-1.056.804-2.016.804-1.512 0-1.752-1.032-1.752-1.776 0-1.2.732-1.74 2.244-1.848l1.38-.096v-.66c0-.564-.06-.948-.804-.948-.576 0-.876.084-.876.804l-1.692-.144c0-1.62 1.476-1.848 2.58-1.848 1.824 0 2.556.492 2.556 2.172v2.916c0 .192.012.216.192.24l.576.096V24H35.87l-.12-.648zm-1.02-1.872c-.708.048-.96.228-.96.708s.288.66.684.66c.408 0 .816-.228 1.092-.432v-.996l-.816.06zm12.033 2.052c-.744.36-1.56.612-2.46.612-2.316 0-3.108-1.44-3.108-3.312 0-2.172 1.332-3.204 2.976-3.204 1.584 0 2.64.828 2.64 2.904 0 .144-.012.564-.024.804h-3.672c.06.852.432 1.416 1.416 1.416.468 0 .972-.108 1.788-.408l.444 1.188zm-1.728-3.336c-.012-1.008-.408-1.272-.9-1.272-.516 0-.936.288-1.008 1.272h1.908zm2.513 2.856l.6-.084c.168-.024.192-.06.192-.24v-6.336c0-.132-.036-.216-.156-.252l-.66-.228.132-.972h2.496v7.788c0 .192.012.216.192.24l.588.084V24h-3.384v-.948zm6.535-.012l.672-.072c.168-.024.192-.072.192-.252v-3.648c0-.072 0-.12-.096-.12h-.804v-1.2h.9v-.66c0-1.62.912-2.292 2.568-2.292 1.116 0 2.148.276 2.148 1.728l-1.68.204c.012-.612-.156-.756-.552-.756-.6 0-.672.324-.672.9v.756c0 .084 0 .12.096.12h1.896v1.2h-1.992v3.732c0 .192.036.228.216.24l1.464.132V24h-4.356v-.96zm5.346-.012l.54-.072c.168-.024.192-.06.192-.24V19.2c0-.132-.036-.216-.156-.252l-.648-.228.132-.972H61.6l.144.96h.072c.396-.612.924-1.08 1.692-1.08.276 0 .828.048 1.044.108v2.184l-1.44-.048-.12-.636c-.024-.108-.06-.132-.156-.132-.312 0-.684.264-.864.42v3.18c0 .192.012.228.192.24l1.188.096V24h-3.924v-.972zm9.4.324l-.06-.012c-.457.444-1.057.804-2.017.804-1.512 0-1.752-1.032-1.752-1.776 0-1.2.732-1.74 2.244-1.848l1.38-.096v-.66c0-.564-.06-.948-.804-.948-.576 0-.876.084-.876.804l-1.692-.144c0-1.62 1.476-1.848 2.58-1.848 1.824 0 2.556.492 2.556 2.172v2.916c0 .192.012.216.192.24l.576.096V24h-2.208l-.12-.648zm-1.02-1.872c-.709.048-.96.228-.96.708s.287.66.683.66c.408 0 .816-.228 1.092-.432v-.996l-.816.06zm8.328 1.872l-.06-.012c-.492.372-1.116.804-2.136.804-1.26 0-1.74-.72-1.74-2.112v-2.928c0-.192-.012-.216-.192-.252l-.576-.12.12-.984h2.46v3.972c0 .732.12 1.008.636 1.008.528 0 .96-.3 1.236-.552v-3.084c0-.192-.012-.204-.192-.24l-.516-.12.132-.984h2.388v4.98c0 .156.024.204.168.228l.6.084V24h-2.232l-.096-.648zm7.382-.024l-.084-.012c-.504.492-1.092.828-1.968.828-1.416 0-2.328-.9-2.328-3.192 0-2.412 1.212-3.324 2.544-3.324.696 0 1.236.24 1.692.576V16.38c0-.12-.048-.204-.156-.24l-.66-.228.132-.972h2.412v7.8c0 .18.012.204.192.228l.576.084V24H83.64l-.12-.672zm-.216-3.948c-.3-.204-.684-.36-1.032-.36-.888 0-1.236.828-1.236 1.896 0 1.164.336 1.812 1.092 1.812.408 0 .852-.24 1.176-.516V19.38zm8.67 4.152c-.744.36-1.56.612-2.46.612-2.316 0-3.108-1.44-3.108-3.312 0-2.172 1.332-3.204 2.976-3.204 1.584 0 2.64.828 2.64 2.904 0 .144-.012.564-.024.804h-3.672c.06.852.432 1.416 1.416 1.416.468 0 .972-.108 1.788-.408l.444 1.188zm-1.728-3.336c-.012-1.008-.408-1.272-.9-1.272-.516 0-.936.288-1.008 1.272h1.908zm4.854 3.012c0 .612-.336.936-1.02.936-.696 0-1.032-.312-1.032-.936 0-.612.336-.936 1.032-.936.672 0 1.02.324 1.02.936z" fill="#fff"/></svg>