<svg width="277" height="86" viewBox="0 0 277 86" fill="none" xmlns="http://www.w3.org/2000/svg"><path d="M.983 29.696c0-.384.072-.744.216-1.08.144-.352.344-.656.6-.912s.552-.456.888-.6c.352-.144.72-.216 1.104-.216.384 0 .744.072 1.08.216.352.144.656.344.912.6s.456.56.6.912c.144.336.216.696.216 1.08 0 .384-.072.752-.216 1.104a2.808 2.808 0 01-.6.888c-.256.256-.56.456-.912.6a2.712 2.712 0 01-1.08.216c-.384 0-.752-.072-1.104-.216A2.808 2.808 0 011.199 30.8a2.888 2.888 0 01-.216-1.104zm8.156 0c0-.384.072-.744.216-1.08.144-.352.344-.656.6-.912s.552-.456.888-.6c.352-.144.72-.216 1.104-.216.384 0 .744.072 1.08.216.352.144.656.344.912.6s.456.56.6.912c.144.336.216.696.216 1.08 0 .384-.072.752-.216 1.104a2.808 2.808 0 01-.6.888c-.256.256-.56.456-.912.6a2.712 2.712 0 01-1.08.216c-.384 0-.752-.072-1.104-.216A2.808 2.808 0 019.355 30.8a2.888 2.888 0 01-.216-1.104zm8.157 0c0-.384.072-.744.216-1.08.143-.352.343-.656.6-.912.256-.256.552-.456.888-.6.352-.144.72-.216 1.104-.216.384 0 .744.072 1.08.216.351.144.655.344.912.6.256.256.456.56.6.912a2.888 2.888 0 010 2.184 2.808 2.808 0 01-.6.888c-.256.256-.56.456-.913.6a2.712 2.712 0 01-1.08.216c-.384 0-.752-.072-1.104-.216a2.808 2.808 0 01-1.487-1.488 2.888 2.888 0 01-.216-1.104zm9.24-17.19h6.878V14.9c1.874-1.799 3.977-2.698 6.308-2.698 2.888 0 5.092 1.216 6.612 3.648 1.545-2.457 3.75-3.686 6.612-3.686.912 0 1.773.14 2.584.418.81.253 1.507.671 2.09 1.254.582.557 1.038 1.292 1.368 2.204.354.912.532 2.014.532 3.306V32h-6.878v-9.614c0-.988-.076-1.799-.228-2.432-.127-.633-.33-1.127-.608-1.482-.254-.355-.558-.595-.912-.722a3.363 3.363 0 00-1.14-.19c-2.204 0-3.306 1.609-3.306 4.826V32H39.57v-9.614c0-.988-.064-1.799-.19-2.432-.127-.659-.317-1.178-.57-1.558-.228-.38-.532-.633-.912-.76-.38-.152-.824-.228-1.33-.228-.43 0-.836.063-1.216.19s-.722.38-1.026.76c-.279.355-.507.861-.684 1.52-.152.633-.228 1.47-.228 2.508V32h-6.878V12.506zm51.953 6.916c-.228-.963-.697-1.735-1.406-2.318-.71-.583-1.57-.874-2.584-.874-1.064 0-1.938.279-2.622.836-.659.557-1.077 1.343-1.254 2.356h7.866zm-8.056 3.99c0 2.964 1.393 4.446 4.18 4.446 1.495 0 2.622-.608 3.382-1.824h6.65c-1.343 4.459-4.7 6.688-10.07 6.688-1.647 0-3.154-.24-4.522-.722-1.368-.507-2.546-1.216-3.534-2.128a9.523 9.523 0 01-2.242-3.268c-.532-1.267-.798-2.685-.798-4.256 0-1.621.253-3.078.76-4.37.507-1.317 1.228-2.432 2.166-3.344.937-.912 2.064-1.609 3.382-2.09 1.342-.507 2.85-.76 4.522-.76 1.647 0 3.129.253 4.446.76 1.317.481 2.432 1.19 3.344 2.128.912.937 1.608 2.09 2.09 3.458.481 1.343.722 2.863.722 4.56v.722H70.433zm18.41-10.906h6.877v2.47c.938-1.14 1.888-1.9 2.85-2.28.963-.405 2.09-.608 3.382-.608 1.368 0 2.534.228 3.496.684a6.779 6.779 0 012.508 1.862 5.389 5.389 0 011.14 2.204c.203.81.304 1.735.304 2.774V32h-6.878v-9.842c0-.963-.076-1.735-.228-2.318-.126-.608-.367-1.09-.722-1.444a2.607 2.607 0 00-1.026-.646 3.817 3.817 0 00-1.216-.19c-1.165 0-2.064.355-2.698 1.064-.608.684-.912 1.672-.912 2.964V32h-6.878V12.506zm38.154 5.016c-1.267-.659-2.508-.988-3.724-.988-.634 0-1.153.127-1.558.38-.38.253-.57.595-.57 1.026 0 .228.025.418.076.57.076.127.215.253.418.38.228.127.544.24.95.342.43.101.988.228 1.672.38 1.9.38 3.318 1.064 4.256 2.052.937.963 1.406 2.204 1.406 3.724 0 1.14-.228 2.166-.684 3.078a6.732 6.732 0 01-1.9 2.318c-.811.608-1.786 1.077-2.926 1.406-1.14.355-2.394.532-3.762.532-2.635 0-5.232-.747-7.79-2.242l2.508-4.864c1.925 1.317 3.749 1.976 5.472 1.976.633 0 1.152-.14 1.558-.418.405-.279.608-.633.608-1.064 0-.253-.038-.456-.114-.608-.051-.177-.178-.33-.38-.456-.203-.152-.507-.279-.912-.38-.38-.127-.887-.253-1.52-.38-2.128-.43-3.623-1.064-4.484-1.9-.836-.861-1.254-2.04-1.254-3.534 0-1.09.202-2.065.608-2.926a6.054 6.054 0 011.748-2.242c.76-.608 1.672-1.077 2.736-1.406 1.089-.33 2.292-.494 3.61-.494 2.153 0 4.243.418 6.27 1.254l-2.318 4.484zm12.798 4.674c0 .633.114 1.229.342 1.786.228.532.532 1 .912 1.406.405.405.874.722 1.406.95a4.667 4.667 0 001.786.342c.608 0 1.178-.114 1.71-.342a3.946 3.946 0 001.406-.95c.405-.405.722-.874.95-1.406.253-.532.38-1.102.38-1.71 0-.608-.127-1.178-.38-1.71a4.346 4.346 0 00-.95-1.444 3.946 3.946 0 00-1.406-.95 4.295 4.295 0 00-1.71-.342c-.634 0-1.229.114-1.786.342a4.443 4.443 0 00-1.406.95c-.38.405-.684.874-.912 1.406a4.028 4.028 0 00-.342 1.672zm8.664-9.69h6.916V32h-6.916v-2.166c-1.47 1.85-3.458 2.774-5.966 2.774-1.419 0-2.724-.253-3.914-.76a9.672 9.672 0 01-3.116-2.204 10.33 10.33 0 01-2.09-3.306c-.482-1.267-.722-2.647-.722-4.142 0-1.393.24-2.71.722-3.952.481-1.267 1.152-2.369 2.014-3.306a9.255 9.255 0 013.078-2.204c1.19-.557 2.508-.836 3.952-.836 2.432 0 4.446.849 6.042 2.546v-1.938zm19.179 0v29.222h-6.878V12.506h6.878zm-7.334-7.486c0-.532.102-1.026.304-1.482.203-.481.482-.9.836-1.254.355-.355.76-.633 1.216-.836a3.88 3.88 0 011.52-.304c.532 0 1.026.101 1.482.304.482.203.9.481 1.254.836.355.355.634.773.836 1.254.203.456.304.95.304 1.482s-.101 1.039-.304 1.52a3.99 3.99 0 01-.836 1.216 3.87 3.87 0 01-1.254.836c-.456.203-.95.304-1.482.304a3.88 3.88 0 01-1.52-.304 4.012 4.012 0 01-1.216-.836 4.026 4.026 0 01-.836-1.216 3.89 3.89 0 01-.304-1.52zm26.284 14.402c-.228-.963-.696-1.735-1.406-2.318-.709-.583-1.57-.874-2.584-.874-1.064 0-1.938.279-2.622.836-.658.557-1.076 1.343-1.254 2.356h7.866zm-8.056 3.99c0 2.964 1.394 4.446 4.18 4.446 1.495 0 2.622-.608 3.382-1.824h6.65c-1.342 4.459-4.699 6.688-10.07 6.688-1.646 0-3.154-.24-4.522-.722-1.368-.507-2.546-1.216-3.534-2.128a9.533 9.533 0 01-2.242-3.268c-.532-1.267-.798-2.685-.798-4.256 0-1.621.254-3.078.76-4.37.507-1.317 1.229-2.432 2.166-3.344.938-.912 2.065-1.609 3.382-2.09 1.343-.507 2.85-.76 4.522-.76 1.647 0 3.129.253 4.446.76 1.318.481 2.432 1.19 3.344 2.128.912.937 1.609 2.09 2.09 3.458.482 1.343.722 2.863.722 4.56v.722h-14.478zm31.33-5.89c-1.267-.659-2.508-.988-3.724-.988-.633 0-1.153.127-1.558.38-.38.253-.57.595-.57 1.026 0 .228.025.418.076.57.076.127.215.253.418.38.228.127.545.24.95.342.431.101.988.228 1.672.38 1.9.38 3.319 1.064 4.256 2.052.937.963 1.406 2.204 1.406 3.724 0 1.14-.228 2.166-.684 3.078a6.72 6.72 0 01-1.9 2.318c-.811.608-1.786 1.077-2.926 1.406-1.14.355-2.394.532-3.762.532-2.635 0-5.231-.747-7.79-2.242l2.508-4.864c1.925 1.317 3.749 1.976 5.472 1.976.633 0 1.153-.14 1.558-.418.405-.279.608-.633.608-1.064 0-.253-.038-.456-.114-.608-.051-.177-.177-.33-.38-.456-.203-.152-.507-.279-.912-.38-.38-.127-.887-.253-1.52-.38-2.128-.43-3.623-1.064-4.484-1.9-.836-.861-1.254-2.04-1.254-3.534 0-1.09.203-2.065.608-2.926a6.054 6.054 0 011.748-2.242c.76-.608 1.672-1.077 2.736-1.406 1.089-.33 2.293-.494 3.61-.494 2.153 0 4.243.418 6.27 1.254l-2.318 4.484zm25.712 4.674c0 .633.114 1.229.342 1.786.228.532.532 1 .912 1.406.405.405.874.722 1.406.95a4.67 4.67 0 001.786.342c.608 0 1.178-.114 1.71-.342a3.946 3.946 0 001.406-.95c.405-.405.722-.874.95-1.406.253-.532.38-1.102.38-1.71 0-.608-.127-1.178-.38-1.71a4.346 4.346 0 00-.95-1.444 3.946 3.946 0 00-1.406-.95 4.295 4.295 0 00-1.71-.342c-.608 0-1.191.114-1.748.342a4.443 4.443 0 00-1.406.95 5.48 5.48 0 00-.95 1.406 4.028 4.028 0 00-.342 1.672zM244.238.46h6.916V32h-6.916v-2.166c-1.469 1.85-3.458 2.774-5.966 2.774-1.419 0-2.723-.266-3.914-.798a9.683 9.683 0 01-3.116-2.204 10.347 10.347 0 01-2.09-3.306c-.481-1.267-.722-2.635-.722-4.104 0-1.393.228-2.71.684-3.952a10.164 10.164 0 012.014-3.306 9.255 9.255 0 013.078-2.204c1.216-.557 2.546-.836 3.99-.836 2.432 0 4.446.849 6.042 2.546V.46zm25.847 18.962c-.228-.963-.697-1.735-1.406-2.318-.71-.583-1.571-.874-2.584-.874-1.064 0-1.938.279-2.622.836-.659.557-1.077 1.343-1.254 2.356h7.866zm-8.056 3.99c0 2.964 1.393 4.446 4.18 4.446 1.494 0 2.622-.608 3.382-1.824h6.65c-1.343 4.459-4.7 6.688-10.07 6.688-1.647 0-3.154-.24-4.522-.722-1.368-.507-2.546-1.216-3.534-2.128a9.519 9.519 0 01-2.242-3.268c-.532-1.267-.798-2.685-.798-4.256 0-1.621.253-3.078.76-4.37.506-1.317 1.228-2.432 2.166-3.344.937-.912 2.064-1.609 3.382-2.09 1.342-.507 2.85-.76 4.522-.76 1.646 0 3.128.253 4.446.76 1.317.481 2.432 1.19 3.344 2.128.912.937 1.608 2.09 2.09 3.458.481 1.343.722 2.863.722 4.56v.722h-14.478zM95.213 71.244V85h-6.878V71.244h-2.28v-5.738h2.28v-5.852h6.878v5.852h3.914v5.738h-3.914zm21.121 1.178c-.228-.963-.697-1.735-1.406-2.318-.71-.583-1.571-.874-2.584-.874-1.064 0-1.938.279-2.622.836-.659.557-1.077 1.343-1.254 2.356h7.866zm-8.056 3.99c0 2.964 1.393 4.446 4.18 4.446 1.494 0 2.622-.608 3.382-1.824h6.65c-1.343 4.459-4.7 6.688-10.07 6.688-1.647 0-3.154-.24-4.522-.722-1.368-.507-2.546-1.216-3.534-2.128a9.519 9.519 0 01-2.242-3.268c-.532-1.267-.798-2.685-.798-4.256 0-1.621.253-3.078.76-4.37.506-1.317 1.228-2.432 2.166-3.344.937-.912 2.064-1.609 3.382-2.09 1.342-.507 2.85-.76 4.522-.76 1.646 0 3.128.253 4.446.76 1.317.481 2.432 1.19 3.344 2.128.912.937 1.608 2.09 2.09 3.458.481 1.343.722 2.863.722 4.56v.722h-14.478zm24.742-1.976l-7.904-8.93h8.968l3.344 4.028 3.42-4.028h8.968l-8.094 8.93L151.488 85h-9.12l-4.978-5.776L132.374 85h-9.082l9.728-10.564zm28.507-3.192V85h-6.878V71.244h-2.28v-5.738h2.28v-5.852h6.878v5.852h3.914v5.738h-3.914zm13.332 3.914c0 .659.114 1.267.342 1.824.253.532.57 1 .95 1.406.405.405.874.722 1.406.95.557.228 1.14.342 1.748.342.608 0 1.178-.114 1.71-.342a3.946 3.946 0 001.406-.95c.405-.405.722-.874.95-1.406a4.27 4.27 0 00.38-1.786c0-.608-.127-1.178-.38-1.71a4.346 4.346 0 00-.95-1.444 3.946 3.946 0 00-1.406-.95 4.295 4.295 0 00-1.71-.342c-.608 0-1.191.114-1.748.342a4.443 4.443 0 00-1.406.95 5.48 5.48 0 00-.95 1.406 4.295 4.295 0 00-.342 1.71zm-7.258-.076c0-1.444.291-2.787.874-4.028a9.685 9.685 0 012.432-3.268c1.039-.937 2.267-1.672 3.686-2.204 1.444-.532 3.015-.798 4.712-.798 1.672 0 3.217.266 4.636.798 1.444.507 2.685 1.229 3.724 2.166a9.379 9.379 0 012.47 3.306c.583 1.267.874 2.673.874 4.218s-.304 2.964-.912 4.256a10.087 10.087 0 01-2.432 3.306c-1.039.912-2.293 1.621-3.762 2.128-1.444.507-3.015.76-4.712.76-1.672 0-3.217-.253-4.636-.76s-2.647-1.229-3.686-2.166a10.242 10.242 0 01-2.394-3.344c-.583-1.317-.874-2.774-.874-4.37z" fill="#fff"/></svg>