<svg width="446" height="40" viewBox="0 0 446 40" fill="none" xmlns="http://www.w3.org/2000/svg"><path d="M22.445 22.166H5.19c.251 1.536.915 2.76 1.996 3.666 1.08.908 2.462 1.36 4.141 1.36 2.008 0 3.733-.71 5.176-2.125l4.524 2.145c-1.127 1.619-2.478 2.812-4.053 3.588-1.575.776-3.443 1.162-5.604 1.162-3.358 0-6.09-1.068-8.202-3.21C1.058 26.613 0 23.933 0 20.712s1.054-6.041 3.157-8.221c2.104-2.18 4.744-3.268 7.92-3.268 3.37 0 6.11 1.092 8.222 3.268 2.111 2.18 3.169 5.058 3.169 8.638l-.02 1.034-.003.004zm-5.37-4.275c-.354-1.205-1.053-2.188-2.1-2.94-1.045-.757-2.253-1.135-3.635-1.135-1.498 0-2.81.425-3.94 1.271-.711.53-1.367 1.463-1.973 2.804h11.649zM39.189 12.802l-3.323 3.358c-1.351-1.354-2.579-2.028-3.679-2.028-.602 0-1.077.128-1.416.386-.344.257-.51.58-.51.963 0 .292.108.561.324.803.217.246.75.581 1.602 1.003l1.969.994c2.072 1.034 3.497 2.087 4.269 3.159.772 1.072 1.161 2.332 1.161 3.775 0 1.923-.698 3.526-2.096 4.809-1.397 1.287-3.269 1.926-5.615 1.926-3.123 0-5.613-1.232-7.477-3.697l3.304-3.638a7.645 7.645 0 002.212 1.797c.845.457 1.598.687 2.254.687.71 0 1.278-.172 1.71-.515.432-.343.648-.741.648-1.193 0-.835-.78-1.65-2.339-2.446l-1.81-.912c-3.462-1.763-5.191-3.97-5.191-6.618 0-1.709.652-3.171 1.956-4.384 1.305-1.213 2.976-1.817 5.007-1.817a8.63 8.63 0 013.925.924c1.227.616 2.266 1.501 3.119 2.652l-.004.012zM44.809 25.74c.853 0 1.582.3 2.185.905.602.605.903 1.334.903 2.196 0 .862-.301 1.599-.903 2.207a2.963 2.963 0 01-2.185.913 2.969 2.969 0 01-2.185-.913 3.025 3.025 0 01-.903-2.207c0-.862.301-1.595.903-2.196a2.97 2.97 0 012.185-.904zM56.546 2.17h5.365l6.712 20.396 6.77-20.397h5.365l4.86 29.242h-5.323l-3.103-18.466-6.153 18.466h-4.86l-6.09-18.466-3.176 18.466h-5.377l5.01-29.242zM110.652 22.17H93.398c.247 1.54.915 2.761 1.996 3.67 1.08.904 2.462 1.36 4.145 1.36 2.007 0 3.733-.709 5.176-2.129l4.528 2.15c-1.127 1.614-2.478 2.815-4.057 3.591-1.575.776-3.443 1.162-5.608 1.162-3.358 0-6.09-1.068-8.206-3.21-2.111-2.14-3.169-4.82-3.169-8.037 0-3.218 1.05-6.041 3.157-8.217 2.108-2.177 4.748-3.269 7.92-3.269 3.37 0 6.111 1.092 8.222 3.269 2.111 2.184 3.169 5.058 3.169 8.634l-.019 1.034h-.008l.008-.008zm-5.373-4.275c-.355-1.205-1.058-2.187-2.1-2.94-1.046-.757-2.254-1.135-3.636-1.135-1.497 0-2.81.425-3.945 1.271-.71.53-1.37 1.467-1.972 2.804h11.653zM130.317 1.43h5.373v29.974h-5.373V29.12c-1.05 1.006-2.1 1.735-3.153 2.176-1.05.44-2.197.667-3.432.667-2.763 0-5.152-1.084-7.171-3.249-2.019-2.164-3.03-4.859-3.03-8.08 0-3.222.973-6.076 2.93-8.214 1.953-2.133 4.319-3.202 7.113-3.202 1.285 0 2.49.246 3.617.734 1.127.487 2.165 1.228 3.122 2.207V1.429h.004zm-5.651 12.803c-1.659 0-3.041.589-4.137 1.778-1.096 1.186-1.648 2.707-1.648 4.563 0 1.856.559 3.405 1.675 4.61 1.115 1.205 2.489 1.806 4.126 1.806 1.636 0 3.088-.59 4.195-1.779 1.112-1.185 1.664-2.738 1.664-4.664 0-1.927-.556-3.405-1.664-4.575-1.111-1.162-2.512-1.747-4.214-1.747v.008h.003zM143.286.875c.938 0 1.748.347 2.42 1.033.671.69 1.011 1.525 1.011 2.504 0 .979-.336 1.794-1.003 2.476-.668.68-1.463 1.026-2.39 1.026a3.312 3.312 0 01-2.443-1.045c-.671-.698-1.011-1.54-1.011-2.535 0-.994.332-1.77.996-2.445.667-.675 1.47-1.014 2.412-1.014h.008zm-2.687 8.903h5.373v21.626h-5.373V9.778zM171.644 14.158l-4.469 2.488c-.838-.89-1.672-1.502-2.49-1.849-.822-.347-1.783-.519-2.887-.519-2.007 0-3.636.601-4.875 1.814-1.239 1.209-1.86 2.761-1.86 4.653 0 1.891.594 3.338 1.795 4.508 1.192 1.162 2.763 1.747 4.709 1.747 2.4 0 4.272-.83 5.612-2.488l4.23 2.929c-2.297 3.018-5.535 4.528-9.723 4.528-3.767 0-6.712-1.127-8.843-3.382-2.13-2.254-3.199-4.89-3.199-7.913 0-2.094.521-4.02 1.551-5.783 1.039-1.76 2.486-3.148 4.339-4.158 1.852-1.006 3.933-1.509 6.226-1.509 2.126 0 4.033.43 5.724 1.283a10.84 10.84 0 014.149 3.65v.008l.011-.007zM190.309 9.778h5.373v21.625h-5.373v-2.285c-1.049 1.006-2.099 1.735-3.153 2.176-1.05.44-2.196.667-3.431.667-2.764 0-5.153-1.084-7.172-3.249-2.018-2.164-3.03-4.86-3.03-8.08 0-3.222.973-6.077 2.93-8.214 1.953-2.133 4.319-3.202 7.113-3.202 1.286 0 2.49.246 3.617.734 1.127.487 2.165 1.228 3.123 2.207V9.77v.008h.003zm-5.65 4.454c-1.66 0-3.042.589-4.138 1.778-1.096 1.186-1.648 2.707-1.648 4.563 0 1.856.56 3.405 1.675 4.61 1.116 1.205 2.49 1.805 4.126 1.805 1.637 0 3.088-.588 4.196-1.778 1.111-1.186 1.663-2.738 1.663-4.664 0-1.927-.556-3.405-1.663-4.575-1.112-1.162-2.513-1.747-4.215-1.747v.008h.004zM200.24 9.778h4.604v2.726c.494-1.072 1.162-1.891 1.988-2.445a4.773 4.773 0 012.714-.835c.694 0 1.424.183 2.184.554l-1.671 4.668c-.633-.316-1.146-.476-1.552-.476-.826 0-1.524.52-2.096 1.553-.571 1.033-.856 3.061-.856 6.084l.019 1.056v8.748h-5.33V9.778h-.008.004zM234.72 22.17h-17.254c.247 1.54.915 2.761 1.996 3.67 1.081.904 2.462 1.36 4.145 1.36 2.007 0 3.733-.709 5.176-2.129l4.528 2.15c-1.127 1.614-2.478 2.815-4.057 3.591-1.575.776-3.443 1.162-5.608 1.162-3.358 0-6.091-1.068-8.206-3.21-2.111-2.14-3.169-4.82-3.169-8.037 0-3.218 1.05-6.041 3.157-8.217 2.108-2.177 4.748-3.269 7.921-3.269 3.369 0 6.11 1.092 8.221 3.269 2.111 2.184 3.169 5.058 3.169 8.634l-.019 1.034h-.008l.008-.008zm-5.373-4.275c-.355-1.205-1.058-2.187-2.1-2.94-1.042-.753-2.254-1.135-3.636-1.135-1.497 0-2.81.425-3.945 1.271-.71.53-1.37 1.467-1.972 2.804h11.653zM240.255 25.745a2.99 2.99 0 012.184.904c.602.601.903 1.338.903 2.196 0 .858-.301 1.6-.903 2.207a2.967 2.967 0 01-2.184.913c-.85 0-1.583-.304-2.185-.913a3.019 3.019 0 01-.903-2.207c0-.866.301-1.591.903-2.196a2.99 2.99 0 012.185-.904zM263.039 9.779h5.354v18.525c0 3.654-.726 6.345-2.185 8.069-1.953 2.332-4.898 3.502-8.835 3.502-2.099 0-3.859-.261-5.295-.792-1.428-.53-2.64-1.306-3.617-2.336-.984-1.026-1.71-2.278-2.185-3.744h5.921c.525.609 1.197 1.069 2.027 1.385.826.312 1.806.464 2.933.464 1.44 0 2.602-.226 3.482-.675.88-.452 1.497-1.033 1.86-1.747.359-.718.544-1.95.544-3.697-.945.955-1.937 1.642-2.968 2.059-1.038.417-2.208.628-3.524.628-2.875 0-5.299-1.045-7.279-3.144-1.977-2.094-2.969-4.742-2.969-7.952 0-3.428 1.05-6.189 3.146-8.271 1.899-1.88 4.173-2.82 6.805-2.82 1.235 0 2.397.226 3.493.686 1.096.46 2.196 1.21 3.292 2.255V9.779zm-5.565 4.516c-1.695 0-3.088.573-4.192 1.716-1.104 1.147-1.652 2.59-1.652 4.325 0 1.736.567 3.28 1.694 4.43s2.544 1.728 4.25 1.728 3.041-.561 4.118-1.689c1.081-1.127 1.625-2.605 1.625-4.43 0-1.825-.544-3.268-1.636-4.395-1.085-1.127-2.49-1.689-4.207-1.689v.004zM283.543 9.226c2.018 0 3.917.514 5.697 1.532 1.775 1.022 3.165 2.403 4.16 4.158a11.258 11.258 0 011.494 5.666c0 2.028-.502 3.947-1.505 5.725-1.004 1.779-2.374 3.167-4.103 4.162-1.729 1.002-3.644 1.501-5.724 1.501-3.069 0-5.689-1.104-7.862-3.31-2.174-2.208-3.258-4.884-3.258-8.039 0-3.381 1.227-6.197 3.678-8.45 2.15-1.963 4.62-2.942 7.419-2.942l.007-.007-.003.004zm.088 5.112c-1.671 0-3.057.585-4.168 1.76-1.112 1.173-1.664 2.67-1.664 4.504 0 1.833.548 3.404 1.648 4.574 1.097 1.17 2.486 1.748 4.169 1.748 1.683 0 3.08-.59 4.195-1.771 1.116-1.182 1.676-2.695 1.676-4.551 0-1.857-.548-3.366-1.648-4.52-1.097-1.159-2.498-1.744-4.208-1.744zM295.433 9.78h5.473l5.408 12.764 5.396-12.765h5.442l-9.109 21.626h-3.481l-9.133-21.626h.008-.004z" fill="#FAF2DE"/><path d="M318.01 36.645l13.066-35.493h3.863l-13.088 35.493h-3.841zM340.544 1.991h16.025v5.46h-10.525v5.34h6.839v5.377h-6.839v13.237h-5.5V1.987v.004zM359.395 9.65h4.631v2.738c.502-1.08 1.17-1.899 2-2.46a4.766 4.766 0 012.732-.84c.699 0 1.432.188 2.197.562l-1.683 4.7c-.633-.32-1.154-.48-1.564-.48-.829 0-1.532.519-2.107 1.56-.575 1.041-.861 3.081-.861 6.12l.02 1.06v8.798h-5.362V9.65h-.003zM389.516 9.65h5.404v21.758h-5.404v-2.3c-1.054 1.013-2.111 1.743-3.173 2.187-1.061.449-2.211.671-3.45.671-2.779 0-5.188-1.088-7.214-3.268-2.031-2.18-3.046-4.89-3.046-8.128 0-3.237.981-6.11 2.945-8.26 1.965-2.145 4.35-3.221 7.156-3.221 1.293 0 2.505.246 3.636.74 1.135.496 2.181 1.233 3.142 2.22V9.65h.004zm-5.678 4.482c-1.671 0-3.057.596-4.161 1.79-1.104 1.193-1.655 2.722-1.655 4.59 0 1.868.563 3.428 1.686 4.64 1.123 1.214 2.509 1.822 4.153 1.822 1.645 0 3.104-.597 4.223-1.79 1.119-1.193 1.675-2.757 1.675-4.688 0-1.93-.56-3.424-1.675-4.598-1.119-1.174-2.532-1.759-4.242-1.759l-.004-.007zM400.362 9.648h5.461v10.48c0 2.039.139 3.454.417 4.25.278.792.726 1.412 1.339 1.849.614.436 1.371.659 2.274.659s1.663-.219 2.293-.651c.629-.433 1.096-1.07 1.397-1.912.224-.627.336-1.965.336-4.02V9.644h5.403v9.22c0 3.798-.297 6.4-.891 7.8-.726 1.708-1.795 3.014-3.208 3.93-1.412.913-3.207 1.37-5.384 1.37-2.362 0-4.273-.535-5.728-1.6-1.459-1.064-2.482-2.554-3.076-4.457-.421-1.318-.633-3.72-.633-7.2v-9.06zM440.596 1.249H446v30.154h-5.404v-2.301c-1.053 1.014-2.111 1.743-3.172 2.188-1.062.448-2.212.67-3.451.67-2.779 0-5.188-1.087-7.214-3.268-2.03-2.18-3.045-4.89-3.045-8.127 0-3.237.98-6.111 2.945-8.26 1.964-2.145 4.35-3.221 7.156-3.221 1.293 0 2.505.245 3.636.74 1.134.496 2.18 1.233 3.141 2.22v-10.8l.004.005zm-5.677 12.877c-1.672 0-3.057.597-4.161 1.79-1.104 1.194-1.656 2.722-1.656 4.59 0 1.869.563 3.429 1.687 4.642 1.123 1.212 2.509 1.82 4.153 1.82 1.644 0 3.103-.596 4.222-1.79 1.12-1.193 1.676-2.757 1.676-4.687 0-1.93-.56-3.424-1.676-4.598-1.119-1.174-2.532-1.759-4.241-1.759l-.004-.008z" fill="#fff"/></svg>