<svg width="587" height="91" viewBox="0 0 587 91" fill="none" xmlns="http://www.w3.org/2000/svg"><path d="M11.925 42.605c-5.625 0-9.405-4.095-9.405-9.225 0-4.59 3.285-8.235 7.785-8.91l.36-3.825h2.925l.405 6.075c-4.95.045-7.965 2.925-7.965 6.705 0 3.195 2.655 5.85 6.03 5.85 2.7 0 4.815-1.395 5.895-3.87l2.835 1.35c-1.395 3.645-4.59 5.85-8.865 5.85zm.18-25.29A2.4 2.4 0 019.72 14.93c0-1.35 1.08-2.385 2.385-2.385 1.35 0 2.385 1.035 2.385 2.385a2.4 2.4 0 01-2.385 2.385zM24.733 35V5.84h22.05v3.15h-18.45v8.865h17.28v3.105h-17.28v10.89H47.46V35H24.733zm44.787 6.345v-10.17c-1.62 2.835-4.725 4.275-8.235 4.275-6.075 0-10.35-5.04-10.35-11.43s4.275-11.385 10.35-11.385c3.555 0 6.75 1.395 8.37 4.23v-3.78h3.285v28.26h-3.42zm-7.47-9.225c4.185 0 7.47-3.51 7.47-8.1s-3.285-8.055-7.47-8.055c-4.365 0-7.605 3.42-7.605 8.055 0 4.68 3.24 8.1 7.605 8.1zm24.24 3.33c-5.4 0-7.964-2.835-7.964-8.685v-13.68h3.42v13.23c0 4.095 1.98 5.805 5.535 5.805 3.96 0 6.255-3.24 6.255-6.615v-12.42h3.42V35H93.67v-3.87c-1.35 2.835-4.5 4.32-7.38 4.32zm16.434-.45V13.085h3.42V35h-3.42zm1.71-25.83c-1.26 0-2.25-.99-2.25-2.25s.99-2.295 2.25-2.295a2.305 2.305 0 012.295 2.295c0 1.26-1.035 2.25-2.295 2.25zm7.474 32.175v-28.26h3.285v3.78c1.62-2.835 4.815-4.23 8.37-4.23 6.075 0 10.35 4.995 10.35 11.385s-4.275 11.43-10.35 11.43c-3.465 0-6.615-1.44-8.235-4.275v10.17h-3.42zm10.89-9.225c4.365 0 7.605-3.42 7.605-8.1 0-4.635-3.24-8.055-7.605-8.055-4.185 0-7.47 3.465-7.47 8.055s3.285 8.1 7.47 8.1zm26.581 3.33c-6.435 0-11.52-5.04-11.52-11.385 0-6.39 5.085-11.43 11.52-11.43s11.52 5.04 11.52 11.43c0 6.345-5.085 11.385-11.52 11.385zm0-3.33c4.545 0 8.01-3.465 8.01-8.055 0-4.635-3.465-8.1-8.01-8.1s-8.01 3.465-8.01 8.1c0 4.59 3.465 8.055 8.01 8.055zM175.541 35V13.085h3.42v3.78c1.215-2.385 3.96-4.23 7.02-4.23 3.51 0 5.985 1.53 7.02 4.635 1.575-3.195 4.995-4.635 7.56-4.635 5.265 0 8.055 3.06 8.055 9.09V35h-3.465V22.175c0-3.735-1.305-6.21-5.31-6.21-3.69 0-6.03 2.97-6.03 6.255V35h-3.465V22.175c0-3.735-1.305-6.21-5.265-6.21-3.825 0-6.12 3.24-6.12 6.435V35h-3.42zm46.193-25.425l3.645-5.985h3.735l-4.23 5.985h-3.15zm2.79 25.875c-6.21 0-11.475-4.455-11.475-11.385 0-6.345 4.77-11.43 11.025-11.43 5.85 0 10.485 5.04 10.485 11.295 0 .63-.09 1.305-.09 1.35h-17.865c.54 4.365 3.915 7.11 7.965 7.11 2.475 0 4.95-.855 6.75-2.34l1.485 2.52a13.41 13.41 0 01-8.28 2.88zm-7.92-12.78h14.58c-.36-4.05-3.465-6.975-7.29-6.975-3.735 0-6.795 2.88-7.29 6.975zm32.284 12.78c-6.075 0-10.35-5.04-10.35-11.385 0-6.435 4.275-11.43 10.35-11.43 3.51 0 6.615 1.44 8.235 4.275V5.39h3.42V35h-3.285v-3.825c-1.62 2.88-4.815 4.275-8.37 4.275zm.765-3.33c4.185 0 7.47-3.465 7.47-8.055s-3.285-8.1-7.47-8.1c-4.365 0-7.605 3.42-7.605 8.1 0 4.635 3.24 8.055 7.605 8.055zM266.288 35V13.085h3.42V35h-3.42zm1.71-25.83c-1.26 0-2.25-.99-2.25-2.25s.99-2.295 2.25-2.295a2.305 2.305 0 012.295 2.295c0 1.26-1.035 2.25-2.295 2.25zm18.095 26.28c-6.435 0-11.52-4.995-11.52-11.385s5.085-11.43 11.52-11.43c3.015 0 5.76 1.08 7.83 2.925l-2.16 2.43c-1.35-1.26-3.33-2.025-5.625-2.025-4.59 0-8.055 3.42-8.055 8.1 0 4.545 3.33 8.055 8.145 8.055 2.475 0 4.725-.945 6.255-2.475l1.98 2.565c-2.115 2.025-5.085 3.24-8.37 3.24zm22.588 0c-6.435 0-11.52-5.04-11.52-11.385 0-6.39 5.085-11.43 11.52-11.43s11.52 5.04 11.52 11.43c0 6.345-5.085 11.385-11.52 11.385zm0-3.33c4.545 0 8.01-3.465 8.01-8.055 0-4.635-3.465-8.1-8.01-8.1s-8.01 3.465-8.01 8.1c0 4.59 3.465 8.055 8.01 8.055zm37.412-12.375V5.84h6.12v13.905h-6.12zm-10.26 0V5.84h6.12v13.905h-6.12zm35.273 21.87c-4.5 0-8.01-1.035-10.08-2.43l2.925-5.13c1.8 1.17 4.41 1.485 6.255 1.485 2.97 0 4.5-1.35 5.04-2.835.18-.45.27-.9.27-1.35-1.26 1.665-3.735 2.295-5.58 2.295-6.39 0-10.08-4.95-10.08-11.025 0-6.12 3.69-11.07 10.08-11.07 1.845 0 4.77.675 6.03 3.015v-2.565h7.74v16.74c0 6.57-2.925 12.87-12.6 12.87zm.765-15.03c2.16 0 3.69-1.62 3.69-3.96s-1.53-4.005-3.69-4.005-3.69 1.665-3.69 4.005 1.53 3.96 3.69 3.96zM387.069 35V12.005h7.965V16.1c.135-.99 2.115-4.545 7.515-4.545v8.91c-5.94 0-7.29 2.475-7.29 6.795V35h-8.19zm27.598.45c-6.39 0-9.855-5.31-9.855-11.925 0-6.66 3.465-11.97 9.855-11.97 1.845 0 4.905.63 6.255 3.015v-2.565h7.74V35h-7.74v-2.565c-1.26 2.34-4.41 3.015-6.255 3.015zm2.16-7.2c2.16 0 3.69-1.935 3.69-4.725 0-2.745-1.53-4.77-3.69-4.77s-3.69 2.025-3.69 4.77c0 2.79 1.53 4.725 3.69 4.725zm24.597 7.2c-4.41 0-7.29-2.835-7.29-7.875v-9.09h-3.375v-6.48h3.375v-4.14l8.19-2.025v6.165h5.085v6.48h-5.085v8.46c0 1.08.54 1.44 1.26 1.44.675 0 1.485-.315 2.07-.72l2.205 5.985c-1.98 1.395-4.41 1.8-6.435 1.8zm8.574-.45V12.005h8.19V35h-8.19zm4.05-24.75c-2.52 0-4.635-2.115-4.635-4.635 0-2.565 2.115-4.68 4.635-4.68 2.61 0 4.725 2.115 4.725 4.68 0 2.52-2.115 4.635-4.725 4.635zm16.188 25.2c-5.265 0-8.19-1.575-9.54-2.745l2.61-5.76c1.8 1.215 3.465 1.935 6.975 1.935.09 0 2.25-.135 2.25-1.035 0-.72-1.35-.855-2.7-1.17-4.995-1.215-8.685-3.24-8.685-7.47 0-5.04 4.59-7.65 9.45-7.65 4.455 0 7.11.99 9.315 2.16l-2.43 5.49c-2.655-1.035-5.085-1.35-6.615-1.35-.81 0-1.44.27-1.44.72 0 .855 1.935 1.17 4.23 1.8 3.24.945 7.155 2.52 7.155 7.155 0 6.165-6.255 7.92-10.575 7.92zm25.579-15.705V5.84h6.12v13.905h-6.12zm-10.26 0V5.84h6.12v13.905h-6.12zm35.352 21.6v-28.26h3.285v3.78c1.62-2.835 4.815-4.23 8.37-4.23 6.075 0 10.35 4.995 10.35 11.385s-4.275 11.43-10.35 11.43c-3.465 0-6.615-1.44-8.235-4.275v10.17h-3.42zm10.89-9.225c4.365 0 7.605-3.42 7.605-8.1 0-4.635-3.24-8.055-7.605-8.055-4.185 0-7.47 3.465-7.47 8.055s3.285 8.1 7.47 8.1zm26.581 3.33c-6.435 0-11.52-5.04-11.52-11.385 0-6.39 5.085-11.43 11.52-11.43s11.52 5.04 11.52 11.43c0 6.345-5.085 11.385-11.52 11.385zm0-3.33c4.545 0 8.01-3.465 8.01-8.055 0-4.635-3.465-8.1-8.01-8.1s-8.01 3.465-8.01 8.1c0 4.59 3.465 8.055 8.01 8.055zM574.74 35V13.085h3.42v4.635c1.26-2.88 4.095-5.085 8.46-5.085v3.735c-5.13 0-8.46 2.88-8.46 8.235V35h-3.42zM10.215 90.45c-3.87 0-6.165-1.89-6.165-7.02V70.92H.765v-2.835H4.05V63.36l3.42-.63v5.355h7.47v2.835H7.47v12.6c0 3.015 1.305 3.87 3.06 3.87 2.025 0 3.6-1.215 3.6-1.215l1.125 2.655c-.855.585-2.655 1.62-5.04 1.62zm16.706 0c-5.4 0-7.965-2.835-7.965-8.685v-13.68h3.42v13.23c0 4.095 1.98 5.805 5.534 5.805 3.96 0 6.256-3.24 6.256-6.615v-12.42h3.42V90H34.3v-3.87c-1.35 2.835-4.5 4.32-7.38 4.32zM53.153 90V68.085h3.42v3.735c1.53-2.655 4.365-4.185 7.605-4.185 5.49 0 7.92 3.33 7.92 9.09V90h-3.42V77.175c0-4.05-1.485-6.21-5.445-6.21-3.915 0-6.66 3.06-6.66 6.705V90h-3.42zM83.89 64.575l3.645-5.985h3.735l-4.23 5.985h-3.15zm1.215 25.875c-5.4 0-7.965-2.835-7.965-8.685v-13.68h3.42v13.23c0 4.095 1.98 5.805 5.535 5.805 3.96 0 6.255-3.24 6.255-6.615v-12.42h3.42V90h-3.285v-3.87c-1.35 2.835-4.5 4.32-7.38 4.32zm16.433-.45V68.085h3.42v3.78c1.215-2.385 3.96-4.23 7.02-4.23 3.51 0 5.985 1.53 7.02 4.635 1.575-3.195 4.995-4.635 7.56-4.635 5.265 0 8.055 3.06 8.055 9.09V90h-3.465V77.175c0-3.735-1.305-6.21-5.31-6.21-3.69 0-6.03 2.97-6.03 6.255V90h-3.465V77.175c0-3.735-1.305-6.21-5.265-6.21-3.825 0-6.12 3.24-6.12 6.435V90h-3.42zm48.983.45c-6.21 0-11.475-4.455-11.475-11.385 0-6.345 4.77-11.43 11.025-11.43 5.85 0 10.485 5.04 10.485 11.295 0 .63-.09 1.305-.09 1.35H142.6c.54 4.365 3.915 7.11 7.965 7.11 2.475 0 4.95-.855 6.75-2.34l1.485 2.52a13.41 13.41 0 01-8.28 2.88zm-7.92-12.78h14.58c-.36-4.05-3.465-6.975-7.29-6.975-3.735 0-6.795 2.88-7.29 6.975zM165.434 90V68.085h3.42v4.635c1.26-2.88 4.095-5.085 8.46-5.085v3.735c-5.13 0-8.46 2.88-8.46 8.235V90h-3.42zm26.001.45c-6.435 0-11.52-5.04-11.52-11.385 0-6.39 5.085-11.43 11.52-11.43s11.52 5.04 11.52 11.43c0 6.345-5.085 11.385-11.52 11.385zm0-3.33c4.545 0 8.01-3.465 8.01-8.055 0-4.635-3.465-8.1-8.01-8.1s-8.01 3.465-8.01 8.1c0 4.59 3.465 8.055 8.01 8.055zm35.612 3.33c-6.075 0-10.35-5.04-10.35-11.385 0-6.435 4.275-11.43 10.35-11.43 3.51 0 6.615 1.44 8.235 4.275V60.39h3.42V90h-3.285v-3.825c-1.62 2.88-4.815 4.275-8.37 4.275zm.765-3.33c4.185 0 7.47-3.465 7.47-8.055s-3.285-8.1-7.47-8.1c-4.365 0-7.605 3.42-7.605 8.1 0 4.635 3.24 8.055 7.605 8.055zm27.21 3.33c-6.21 0-11.475-4.455-11.475-11.385 0-6.345 4.77-11.43 11.025-11.43 5.85 0 10.485 5.04 10.485 11.295 0 .63-.09 1.305-.09 1.35h-17.865c.54 4.365 3.915 7.11 7.965 7.11 2.475 0 4.95-.855 6.75-2.34l1.485 2.52a13.41 13.41 0 01-8.28 2.88zm-7.92-12.78h14.58c-.36-4.05-3.465-6.975-7.29-6.975-3.735 0-6.795 2.88-7.29 6.975zM279.33 90V60.84h7.29l5.715 8.19c.945 1.395 2.475 3.78 2.475 3.78s1.53-2.385 2.475-3.78L303 60.84h7.29V90h-8.55V75.24s-1.485 2.385-2.295 3.51l-4.635 6.48-4.68-6.48c-.81-1.125-2.25-3.42-2.25-3.42V90h-8.55zm47.694.45c-6.975 0-12.915-4.365-12.915-11.925 0-6.66 5.175-11.97 11.97-11.97 6.525 0 11.52 5.31 11.52 11.97 0 1.395-.18 2.655-.18 2.655h-15.255c.675 2.16 2.7 2.97 4.905 2.97 1.935 0 4.005-.585 5.445-1.395l2.745 5.535c-2.565 1.575-5.4 2.16-8.235 2.16zm-5.085-13.905h8.19c-.27-2.115-1.935-3.555-4.05-3.555-2.025 0-3.645 1.44-4.14 3.555zm28.216 13.905c-6.39 0-9.855-5.31-9.855-11.925 0-6.66 3.69-11.97 10.125-11.97 1.845 0 4.14.63 5.535 2.385v-8.55h8.19V90h-7.74v-2.565c-1.215 2.34-4.41 3.015-6.255 3.015zm2.16-7.2c2.16 0 3.69-1.935 3.69-4.725 0-2.745-1.53-4.77-3.69-4.77s-3.69 2.025-3.69 4.77c0 2.79 1.53 4.725 3.69 4.725zM367.733 90V67.005h8.19V90h-8.19zm4.05-24.75c-2.52 0-4.635-2.115-4.635-4.635 0-2.565 2.115-4.68 4.635-4.68 2.61 0 4.725 2.115 4.725 4.68 0 2.52-2.115 4.635-4.725 4.635zm19.697 25.2c-7.065 0-12.42-5.31-12.42-11.925 0-6.66 5.355-11.97 12.42-11.97 3.15 0 5.715.945 8.145 2.88l-4.725 5.67c-.855-.81-1.8-1.35-3.195-1.35-2.655 0-4.365 2.025-4.365 4.77 0 2.79 1.665 4.725 4.545 4.725 1.575 0 2.88-.675 3.87-1.665l4.095 6.03c-2.205 1.845-5.13 2.835-8.37 2.835zm19.32 0c-6.39 0-9.855-5.31-9.855-11.925 0-6.66 3.465-11.97 9.855-11.97 1.845 0 4.905.63 6.255 3.015v-2.565h7.74V90h-7.74v-2.565c-1.26 2.34-4.41 3.015-6.255 3.015zm2.16-7.2c2.16 0 3.69-1.935 3.69-4.725 0-2.745-1.53-4.77-3.69-4.77s-3.69 2.025-3.69 4.77c0 2.79 1.53 4.725 3.69 4.725zM428.377 90V67.005h7.965V71.1c.135-.99 2.115-4.545 7.515-4.545v8.91c-5.94 0-7.29 2.475-7.29 6.795V90h-8.19zm30.659.45c-6.975 0-12.915-4.365-12.915-11.925 0-6.66 5.175-11.97 11.97-11.97 6.525 0 11.52 5.31 11.52 11.97 0 1.395-.18 2.655-.18 2.655h-15.255c.675 2.16 2.7 2.97 4.905 2.97 1.935 0 4.005-.585 5.445-1.395l2.745 5.535c-2.565 1.575-5.4 2.16-8.235 2.16zm-5.085-13.905h8.19c-.27-2.115-1.935-3.555-4.05-3.555-2.025 0-3.645 1.44-4.14 3.555zm26.866-16.155c5.625 0 9.405 4.095 9.405 9.225 0 4.59-3.285 8.235-7.785 8.91l-.36 3.825h-2.925l-.405-6.075c4.95-.045 7.965-2.925 7.965-6.705 0-3.195-2.655-5.85-6.03-5.85-2.7 0-4.815 1.395-5.895 3.87l-2.835-1.35c1.395-3.645 4.59-5.85 8.865-5.85zm-.18 25.29a2.4 2.4 0 012.385 2.385c0 1.35-1.08 2.385-2.385 2.385-1.35 0-2.385-1.035-2.385-2.385a2.4 2.4 0 012.385-2.385z" fill="#42443C"/></svg>