<svg width="313" height="70" viewBox="0 0 313 70" fill="none" xmlns="http://www.w3.org/2000/svg"><rect x="1" y="1" width="311" height="68" rx="7" fill="#FFC332" stroke="#FFE094" stroke-width="2"/><path d="M38.992 43.704V26.856h7.02c5.642 0 9.178 3.822 9.178 8.424 0 4.602-3.536 8.424-9.178 8.424h-7.02zm4.94-4.186h1.898c2.522 0 4.134-1.794 4.134-4.238 0-2.418-1.612-4.238-4.134-4.238h-1.898v8.476zm14.115 4.186V26.856h13.39v4.186h-8.45v2.054H71.1v4.134h-8.112v2.288h8.761v4.186H58.048zm20.555 0V31.042h-5.279v-4.186H88.82v4.186h-5.278v12.662h-4.94zm12.68 0V26.856h13.391v4.186h-8.45v2.054h8.112v4.134h-8.112v2.288h8.762v4.186H91.283zm4.317-17.68l2.73-4.654h4.55l-3.77 4.654h-3.51zm11.87 17.68V26.856h4.29l5.356 7.462c.39.52.754 1.274.754 1.274v-8.736h4.94v16.848h-4.29l-5.356-7.332c-.39-.52-.754-1.274-.754-1.274v8.606h-4.94zm25.009 0V26.856h13.39v4.186h-8.45v2.054h8.112v4.134h-8.112v2.288h8.762v4.186h-13.702zm16.186 0V26.856h4.94v12.662h8.97v4.186h-13.91zm22.799 0V26.856h13v4.186h-8.06v2.054h7.046v4.134h-7.046v6.474h-4.94zm15.069 0V26.856h7.436c5.174 0 7.826 2.99 7.826 6.656 0 1.95-.884 3.952-2.652 5.174l3.146 5.018h-5.642l-1.924-3.614c-.52.052-.806.078-1.222.078h-2.028v3.536h-4.94zm4.94-7.722h2.548c1.534 0 2.548-1.118 2.548-2.47 0-1.378-1.04-2.47-2.522-2.47h-2.574v4.94zm11.954 7.722l6.812-16.848h5.096l6.812 16.848h-5.044l-.78-2.184h-7.072l-.78 2.184h-5.044zm7.15-5.98h4.42l-2.002-5.694c-.156-.416-.182-.572-.208-.676 0 0-.052.234-.208.676l-2.002 5.694zm20.411 6.292c-4.264 0-7.514-2.366-7.514-6.994V26.856h4.94v9.88c0 2.028 1.17 2.808 2.574 2.808s2.574-.78 2.574-2.808v-9.88h4.94v10.166c0 4.628-3.25 6.994-7.514 6.994zm10.832-.312V26.856h7.02c5.642 0 9.178 3.822 9.178 8.424 0 4.602-3.536 8.424-9.178 8.424h-7.02zm4.94-4.186h1.898c2.522 0 4.134-1.794 4.134-4.238 0-2.418-1.612-4.238-4.134-4.238h-1.898v8.476zm14.115 4.186V26.856h13.39v4.186h-8.45v2.054h8.112v4.134h-8.112v2.288h8.762v4.186h-13.702z" fill="#1F211C"/></svg>