<svg width="159" height="13" viewBox="0 0 159 13" fill="none" xmlns="http://www.w3.org/2000/svg"><path d="M8.002 7.097H1.85c.09.512.326.92.711 1.222.385.303.878.454 1.477.454.715 0 1.33-.237 1.845-.709l1.613.715c-.402.54-.884.937-1.445 1.196-.562.259-1.228.388-1.998.388-1.197 0-2.172-.357-2.924-1.07C.377 8.579 0 7.686 0 6.612s.376-2.014 1.126-2.74c.75-.727 1.69-1.09 2.823-1.09 1.201 0 2.178.364 2.931 1.09.753.726 1.13 1.686 1.13 2.88l-.007.344H8zM6.087 5.672a1.818 1.818 0 0 0-.748-.98 2.255 2.255 0 0 0-1.296-.378c-.534 0-1.002.141-1.405.423-.253.177-.487.488-.703.935h4.152zm7.884-1.696-1.185 1.119c-.481-.451-.919-.676-1.311-.676-.215 0-.384.043-.505.129-.123.085-.182.193-.182.32a.38.38 0 0 0 .116.268c.077.082.267.194.57.335l.703.331c.739.345 1.246.696 1.522 1.053.275.358.414.777.414 1.258 0 .641-.25 1.176-.747 1.603-.499.43-1.166.643-2.002.643-1.114 0-2.001-.411-2.666-1.233l1.178-1.213a2.7 2.7 0 0 0 .788.6c.302.152.57.228.804.228.253 0 .456-.057.61-.171.154-.115.23-.247.23-.398 0-.278-.277-.55-.833-.815l-.645-.304c-1.235-.588-1.851-1.324-1.851-2.206 0-.57.232-1.057.697-1.462.466-.404 1.061-.605 1.785-.605.495 0 .962.102 1.4.308.437.205.807.5 1.111.884l-.001.004zm2.003 4.313c.304 0 .564.1.78.301a.966.966 0 0 1 .321.732.976.976 0 0 1-.322.736 1.094 1.094 0 0 1-.779.304c-.304 0-.563-.101-.779-.304a.976.976 0 0 1-.322-.736c0-.287.108-.531.322-.732a1.1 1.1 0 0 1 .78-.301zM20.159.432h1.913l2.392 6.799 2.414-6.8h1.913l1.732 9.748h-1.898L27.52 4.023l-2.193 6.156h-1.733l-2.171-6.156-1.132 6.156h-1.917L20.159.432zm19.288 6.666h-6.15c.088.514.326.92.711 1.223.385.302.878.454 1.478.454.716 0 1.33-.236 1.845-.71l1.614.717A3.753 3.753 0 0 1 37.5 9.979c-.561.259-1.227.387-2 .387-1.196 0-2.17-.356-2.925-1.07-.752-.713-1.13-1.606-1.13-2.679 0-1.072.375-2.014 1.126-2.739.752-.725 1.693-1.09 2.824-1.09 1.201 0 2.178.365 2.93 1.09.753.728 1.13 1.686 1.13 2.878l-.007.345h-.002l.002-.003zm-1.915-1.425a1.825 1.825 0 0 0-.748-.98 2.255 2.255 0 0 0-1.297-.378c-.534 0-1.001.142-1.406.424-.253.176-.488.488-.703.934h4.154zM46.458.185h1.915v9.992h-1.915v-.762c-.374.335-.748.578-1.124.725a3.323 3.323 0 0 1-1.223.223c-.986 0-1.837-.362-2.557-1.083-.72-.722-1.08-1.62-1.08-2.694 0-1.074.347-2.025 1.044-2.738a3.415 3.415 0 0 1 2.536-1.067c.458 0 .888.082 1.29.244.401.163.771.41 1.113.736V.185h.001zm-2.014 4.268c-.592 0-1.085.196-1.476.593-.39.395-.587.902-.587 1.52 0 .62.2 1.136.597 1.537.398.402.888.602 1.471.602.584 0 1.1-.196 1.496-.593.396-.395.593-.912.593-1.554 0-.643-.198-1.135-.593-1.525-.397-.388-.896-.583-1.503-.583v.003h.002zM51.082 0c.334 0 .623.116.862.344.24.23.361.509.361.835 0 .326-.12.598-.358.826a1.195 1.195 0 0 1-.852.341c-.33 0-.631-.115-.87-.348a1.135 1.135 0 0 1-.361-.845c0-.331.118-.59.355-.815.238-.225.524-.338.86-.338h.003zm-.958 2.968h1.915v7.208h-1.915V2.968zm11.068 1.46-1.594.83c-.298-.297-.596-.501-.887-.617a2.793 2.793 0 0 0-1.03-.173c-.715 0-1.296.2-1.737.604-.442.404-.664.92-.664 1.551 0 .63.212 1.113.64 1.503.425.388.985.583 1.679.583.856 0 1.523-.277 2-.83l1.509.976c-.819 1.007-1.973 1.51-3.466 1.51-1.343 0-2.393-.376-3.153-1.127-.76-.752-1.14-1.63-1.14-2.638 0-.698.185-1.34.553-1.928a3.862 3.862 0 0 1 1.546-1.386c.66-.335 1.402-.503 2.22-.503.758 0 1.438.143 2.04.428a3.8 3.8 0 0 1 1.48 1.217v.002l.004-.002zm6.654-1.46h1.915v7.208h-1.915v-.762c-.374.336-.749.579-1.124.726a3.323 3.323 0 0 1-1.224.222c-.985 0-1.837-.361-2.556-1.083-.72-.721-1.08-1.62-1.08-2.694 0-1.073.346-2.025 1.044-2.737a3.414 3.414 0 0 1 2.536-1.068 3.4 3.4 0 0 1 1.29.245c.401.162.771.41 1.112.736v-.796.003h.002zM65.83 4.452c-.591 0-1.084.196-1.475.593-.39.395-.587.902-.587 1.521 0 .619.2 1.135.597 1.537.398.401.887.601 1.47.601.584 0 1.102-.196 1.497-.592.396-.396.593-.913.593-1.555 0-.642-.198-1.135-.593-1.525-.397-.387-.896-.582-1.503-.582v.002h.001zm5.556-1.484h1.641v.909c.176-.358.414-.631.709-.816.294-.184.616-.278.967-.278.248 0 .508.061.78.185l-.597 1.556c-.225-.105-.408-.159-.553-.159-.294 0-.543.173-.747.518-.204.344-.306 1.02-.306 2.028l.007.352v2.916h-1.9V2.968h-.003.002zm12.292 4.13h-6.151c.088.514.326.92.711 1.223.386.302.878.454 1.478.454.716 0 1.33-.236 1.846-.71l1.614.717a3.753 3.753 0 0 1-1.447 1.197c-.561.259-1.227.387-1.999.387-1.197 0-2.171-.356-2.925-1.07-.753-.713-1.13-1.606-1.13-2.679 0-1.072.374-2.014 1.126-2.739.75-.725 1.692-1.09 2.823-1.09 1.201 0 2.178.365 2.931 1.09.753.728 1.13 1.686 1.13 2.878l-.007.345h-.003l.003-.003zm-1.916-1.425a1.825 1.825 0 0 0-.748-.98 2.262 2.262 0 0 0-1.296-.378 2.4 2.4 0 0 0-1.407.424c-.253.176-.488.488-.703.934h4.154zm3.889 2.617c.303 0 .565.101.78.302.214.2.321.446.321.732a.978.978 0 0 1-.322.735 1.096 1.096 0 0 1-.779.305c-.302 0-.564-.102-.778-.305a.974.974 0 0 1-.322-.735c0-.29.107-.53.322-.732.214-.2.476-.302.778-.302zm8.123-5.322h1.909v6.175c0 1.218-.26 2.115-.78 2.69-.696.777-1.746 1.167-3.149 1.167-.749 0-1.376-.087-1.888-.264a3.391 3.391 0 0 1-1.29-.779 3.152 3.152 0 0 1-.778-1.248h2.11c.188.203.427.357.723.462.295.104.644.155 1.046.155.513 0 .927-.076 1.241-.225.314-.151.534-.345.663-.583.128-.239.194-.65.194-1.232-.337.318-.69.547-1.058.686-.37.14-.787.21-1.256.21-1.025 0-1.89-.349-2.595-1.048-.705-.698-1.058-1.58-1.058-2.65 0-1.143.374-2.064 1.121-2.758.677-.627 1.487-.94 2.426-.94.44 0 .855.075 1.245.229.391.153.783.403 1.174.751v-.798zM91.79 4.473c-.604 0-1.101.192-1.495.572-.393.383-.588.864-.588 1.442 0 .579.202 1.093.604 1.477.401.383.906.576 1.515.576.608 0 1.084-.187 1.468-.563.385-.376.58-.869.58-1.477 0-.608-.195-1.09-.584-1.465-.387-.376-.888-.563-1.5-.563v.001zm9.293-1.689c.72 0 1.397.171 2.031.51a3.8 3.8 0 0 1 1.484 1.386c.355.583.532 1.213.532 1.89 0 .675-.179 1.315-.536 1.908a3.759 3.759 0 0 1-1.463 1.387c-.616.334-1.299.5-2.041.5-1.094 0-2.028-.368-2.803-1.104-.774-.735-1.161-1.627-1.161-2.679 0-1.127.438-2.066 1.311-2.817a3.953 3.953 0 0 1 2.645-.98l.003-.003-.002.002zm.032 1.704c-.596 0-1.09.195-1.486.586-.396.391-.593.89-.593 1.502 0 .61.195 1.135.588 1.525.39.39.886.582 1.486.582s1.098-.196 1.495-.59c.398-.394.598-.899.598-1.517 0-.62-.196-1.122-.588-1.507-.391-.386-.89-.581-1.5-.581zm4.207-1.52h1.951l1.928 4.255 1.924-4.255h1.94l-3.247 7.209h-1.241l-3.256-7.209h.003-.002zm8.049 8.955 4.658-11.83h1.377l-4.666 11.83h-1.369zM121.404.372h5.714v1.82h-3.753v1.78h2.439v1.793h-2.439v4.412h-1.961V.37v.001zm6.721 2.553h1.651v.913c.179-.36.417-.633.713-.82a1.78 1.78 0 0 1 1.757-.093l-.6 1.567c-.225-.107-.411-.16-.557-.16-.296 0-.546.173-.751.52-.205.347-.307 1.027-.307 2.04l.007.353v2.933h-1.912V2.925h-.001zm10.738 0h1.927v7.253h-1.927V9.41c-.376.338-.753.581-1.131.73a3.324 3.324 0 0 1-1.23.223c-.991 0-1.85-.363-2.572-1.09-.724-.726-1.086-1.63-1.086-2.709 0-1.079.35-2.037 1.05-2.753.701-.715 1.551-1.074 2.551-1.074.461 0 .893.082 1.297.247.404.165.777.41 1.12.74v-.8h.001zm-2.024 1.494c-.596 0-1.09.199-1.483.597-.394.397-.591.907-.591 1.53 0 .622.201 1.142.602 1.547.4.404.894.607 1.48.607s1.107-.2 1.506-.597c.399-.398.597-.919.597-1.562 0-.644-.2-1.142-.597-1.533-.399-.391-.903-.586-1.513-.586l-.001-.003zm5.89-1.494h1.947v3.493c0 .68.05 1.151.149 1.417.099.263.259.47.478.616.218.145.488.22.81.22.322 0 .593-.073.817-.218a1.27 1.27 0 0 0 .499-.637c.079-.209.119-.655.119-1.34V2.923h1.927v3.073c0 1.267-.106 2.134-.318 2.6a2.883 2.883 0 0 1-1.144 1.31c-.503.305-1.143.457-1.919.457-.842 0-1.523-.178-2.042-.533-.52-.355-.885-.851-1.097-1.486-.15-.44-.226-1.24-.226-2.4v-3.02zm14.345-2.8H159v10.051h-1.926V9.41c-.376.338-.753.581-1.131.73-.379.15-.789.223-1.231.223-.99 0-1.849-.363-2.571-1.09-.724-.726-1.086-1.63-1.086-2.708 0-1.08.349-2.037 1.05-2.754a3.439 3.439 0 0 1 2.551-1.074c.461 0 .893.082 1.296.247.405.165.778.411 1.12.74v-3.6l.002.002zm-2.025 4.292c-.595 0-1.089.2-1.483.597-.393.398-.59.907-.59 1.53s.201 1.143.601 1.547c.401.404.895.607 1.481.607.586 0 1.106-.199 1.505-.597.399-.397.597-.919.597-1.562 0-.644-.199-1.141-.597-1.533-.399-.391-.903-.586-1.512-.586l-.002-.003z" fill="#fff"/></svg>