<svg width="174" height="27" viewBox="0 0 174 27" fill="none" xmlns="http://www.w3.org/2000/svg"><path d="M4.214 10.14c-1.792 0-2.884-.714-3.542-1.414l.476-.84c.728.714 1.708 1.232 3.08 1.232 1.176 0 2.408-.518 2.408-1.638 0-1.036-1.176-1.344-2.338-1.638-1.624-.406-3.248-.924-3.248-2.604 0-1.624 1.554-2.45 3.178-2.45 1.12 0 2.142.28 3.052 1.008l-.462.854c-.812-.63-1.722-.84-2.59-.84-.896 0-2.044.42-2.044 1.428 0 .938 1.036 1.246 2.254 1.554 1.68.42 3.374.994 3.374 2.688 0 1.862-1.862 2.66-3.598 2.66zM9.666 10V3.182h1.064V10H9.666zm.532-8.036a.693.693 0 0 1-.7-.7c0-.392.308-.714.7-.714.392 0 .714.322.714.714 0 .392-.322.7-.714.7zm8.216 8.176c-1.204 0-1.918-.588-1.918-2.184V4.064h-1.021v-.882h1.022v-1.47l1.064-.196v1.666h2.323v.882h-2.323v3.92c0 .938.405 1.204.951 1.204.63 0 1.12-.378 1.12-.378l.35.826a2.806 2.806 0 0 1-1.567.504zm6.32 0c-1.932 0-3.57-1.386-3.57-3.542 0-1.974 1.484-3.556 3.43-3.556 1.82 0 3.262 1.568 3.262 3.514 0 .196-.028.406-.028.42H22.27c.168 1.358 1.218 2.212 2.478 2.212.77 0 1.54-.266 2.1-.728l.462.784a4.172 4.172 0 0 1-2.576.896zM22.27 6.164h4.536c-.112-1.26-1.078-2.17-2.268-2.17-1.162 0-2.114.896-2.268 2.17zm14.016 3.976c-2.002 0-3.584-1.568-3.584-3.542 0-1.988 1.582-3.556 3.584-3.556S39.87 4.61 39.87 6.598c0 1.974-1.582 3.542-3.584 3.542zm0-1.036c1.414 0 2.492-1.078 2.492-2.506 0-1.442-1.078-2.52-2.492-2.52s-2.492 1.078-2.492 2.52c0 1.428 1.078 2.506 2.492 2.506zm5.525.896V4.064h-1.106v-.882h1.106v-.518c0-1.694.896-2.156 1.834-2.156.672 0 1.302.252 1.638.462l-.35.812c-.14-.084-.546-.336-1.064-.336-.532 0-.994.266-.994 1.33v.406h2.17v.882h-2.17V10H41.81zm4.528 0V3.182h1.064v1.442c.392-.896 1.274-1.582 2.632-1.582v1.162c-1.596 0-2.632.896-2.632 2.562V10H46.34zm8.355.14c-1.932 0-3.57-1.386-3.57-3.542 0-1.974 1.484-3.556 3.43-3.556 1.82 0 3.262 1.568 3.262 3.514 0 .196-.028.406-.028.42H52.23c.168 1.358 1.218 2.212 2.478 2.212.77 0 1.54-.266 2.1-.728l.462.784a4.172 4.172 0 0 1-2.576.896zM52.23 6.164h4.536c-.112-1.26-1.078-2.17-2.268-2.17-1.162 0-2.114.896-2.268 2.17zm10.688 3.976c-2.002 0-3.584-1.554-3.584-3.542 0-1.988 1.582-3.556 3.584-3.556.938 0 1.792.336 2.436.91l-.672.756c-.42-.392-1.036-.63-1.75-.63-1.428 0-2.506 1.064-2.506 2.52 0 1.414 1.036 2.506 2.534 2.506.77 0 1.47-.294 1.946-.77l.616.798c-.658.63-1.582 1.008-2.604 1.008zm7.293 0c-1.932 0-3.57-1.386-3.57-3.542 0-1.974 1.484-3.556 3.43-3.556 1.82 0 3.262 1.568 3.262 3.514 0 .196-.028.406-.028.42h-5.558c.168 1.358 1.218 2.212 2.478 2.212.77 0 1.54-.266 2.1-.728l.462.784a4.172 4.172 0 0 1-2.576.896zm-2.464-3.976h4.536c-.112-1.26-1.078-2.17-2.268-2.17-1.162 0-2.114.896-2.268 2.17zM75.131 10V3.182h1.064v1.162c.476-.826 1.358-1.302 2.366-1.302 1.708 0 2.464 1.036 2.464 2.828V10h-1.064V6.01c0-1.26-.462-1.932-1.694-1.932-1.218 0-2.072.952-2.072 2.086V10h-1.064zM4.186 24.14c-1.932 0-3.57-1.386-3.57-3.542 0-1.974 1.484-3.556 3.43-3.556 1.82 0 3.262 1.568 3.262 3.514 0 .196-.028.406-.028.42H1.722c.168 1.358 1.218 2.212 2.478 2.212.77 0 1.54-.266 2.1-.728l.462.784a4.172 4.172 0 0 1-2.576.896zm-2.464-3.976h4.536c-.112-1.26-1.078-2.17-2.268-2.17-1.162 0-2.114.896-2.268 2.17zm12.886 5.81V22.81c-.504.882-1.47 1.33-2.562 1.33-1.89 0-3.22-1.568-3.22-3.556s1.33-3.542 3.22-3.542c1.106 0 2.1.434 2.604 1.316v-1.176h1.022v8.792h-1.064zm-2.324-2.87c1.302 0 2.324-1.092 2.324-2.52s-1.022-2.506-2.324-2.506c-1.358 0-2.366 1.064-2.366 2.506 0 1.456 1.008 2.52 2.366 2.52zm7.821 1.036c-1.68 0-2.478-.882-2.478-2.702v-4.256h1.064v4.116c0 1.274.616 1.806 1.722 1.806 1.232 0 1.946-1.008 1.946-2.058v-3.864h1.064V24h-1.022v-1.204c-.42.882-1.4 1.344-2.296 1.344zm5.393-.14v-6.818h1.064V24h-1.064zm.532-8.036a.693.693 0 0 1-.7-.7c0-.392.308-.714.7-.714.392 0 .714.322.714.714 0 .392-.322.7-.714.7zm2.605 10.01v-8.792h1.022v1.176c.504-.882 1.498-1.316 2.604-1.316 1.89 0 3.22 1.554 3.22 3.542 0 1.988-1.33 3.556-3.22 3.556-1.078 0-2.058-.448-2.562-1.33v3.164h-1.064zm3.388-2.87c1.358 0 2.366-1.064 2.366-2.52 0-1.442-1.008-2.506-2.366-2.506-1.302 0-2.324 1.078-2.324 2.506 0 1.428 1.022 2.52 2.324 2.52zm8.55 1.036c-2.002 0-3.584-1.568-3.584-3.542 0-1.988 1.582-3.556 3.584-3.556s3.584 1.568 3.584 3.556c0 1.974-1.582 3.542-3.584 3.542zm0-1.036c1.414 0 2.492-1.078 2.492-2.506 0-1.442-1.078-2.52-2.492-2.52s-2.492 1.078-2.492 2.52c0 1.428 1.078 2.506 2.492 2.506zm8.699.896v-6.818h1.064v1.176c.378-.742 1.232-1.316 2.184-1.316 1.092 0 1.862.476 2.184 1.442.49-.994 1.554-1.442 2.352-1.442 1.638 0 2.506.952 2.506 2.828V24h-1.078v-3.99c0-1.162-.406-1.932-1.652-1.932-1.148 0-1.876.924-1.876 1.946V24h-1.078v-3.99c0-1.162-.406-1.932-1.638-1.932-1.19 0-1.904 1.008-1.904 2.002V24h-1.064zm14.651-7.91 1.134-1.862h1.162l-1.316 1.862h-.98zm.868 8.05c-1.932 0-3.57-1.386-3.57-3.542 0-1.974 1.484-3.556 3.43-3.556 1.82 0 3.262 1.568 3.262 3.514 0 .196-.028.406-.028.42h-5.558c.168 1.358 1.218 2.212 2.478 2.212.77 0 1.54-.266 2.1-.728l.462.784a4.172 4.172 0 0 1-2.576.896zm-2.464-3.976h4.536c-.112-1.26-1.078-2.17-2.268-2.17-1.162 0-2.114.896-2.268 2.17zm10.324 3.976c-1.89 0-3.22-1.568-3.22-3.542 0-2.002 1.33-3.556 3.22-3.556 1.092 0 2.058.448 2.562 1.33v-3.584h1.064V24h-1.022v-1.19c-.504.896-1.498 1.33-2.604 1.33zm.238-1.036c1.302 0 2.324-1.078 2.324-2.506 0-1.428-1.022-2.52-2.324-2.52-1.358 0-2.366 1.064-2.366 2.52 0 1.442 1.008 2.506 2.366 2.506zm5.455.896v-6.818h1.064V24h-1.064zm.532-8.036a.693.693 0 0 1-.7-.7c0-.392.308-.714.7-.714.392 0 .714.322.714.714 0 .392-.322.7-.714.7zm5.91 8.176c-2.002 0-3.584-1.554-3.584-3.542 0-1.988 1.582-3.556 3.584-3.556.938 0 1.792.336 2.436.91l-.672.756c-.42-.392-1.036-.63-1.75-.63-1.428 0-2.506 1.064-2.506 2.52 0 1.414 1.036 2.506 2.534 2.506.77 0 1.47-.294 1.946-.77l.616.798c-.658.63-1.582 1.008-2.604 1.008zm7.307 0c-2.002 0-3.584-1.568-3.584-3.542 0-1.988 1.582-3.556 3.584-3.556s3.584 1.568 3.584 3.556c0 1.974-1.582 3.542-3.584 3.542zm0-1.036c1.414 0 2.492-1.078 2.492-2.506 0-1.442-1.078-2.52-2.492-2.52s-2.492 1.078-2.492 2.52c0 1.428 1.078 2.506 2.492 2.506z" fill="#000"/><path d="M104.921 18.576v-4.944h2.176v4.944h-2.176zm-3.648 0v-4.944h2.176v4.944h-2.176zm12.861 7.776c-1.6 0-2.848-.368-3.584-.864l1.04-1.824c.64.416 1.568.528 2.224.528 1.056 0 1.6-.48 1.792-1.008.064-.16.096-.32.096-.48-.448.592-1.328.816-1.984.816-2.272 0-3.584-1.76-3.584-3.92 0-2.176 1.312-3.936 3.584-3.936.656 0 1.696.24 2.144 1.072v-.912h2.752v5.952c0 2.336-1.04 4.576-4.48 4.576zm.272-5.344c.768 0 1.312-.576 1.312-1.408s-.544-1.424-1.312-1.424-1.312.592-1.312 1.424.544 1.408 1.312 1.408zM120.13 24v-8.176h2.832v1.456c.048-.352.752-1.616 2.672-1.616v3.168c-2.112 0-2.592.88-2.592 2.416V24h-2.912zm10.132.16c-2.272 0-3.504-1.888-3.504-4.24 0-2.368 1.232-4.256 3.504-4.256.656 0 1.744.224 2.224 1.072v-.912h2.752V24h-2.752v-.912c-.448.832-1.568 1.072-2.224 1.072zm.768-2.56c.768 0 1.312-.688 1.312-1.68 0-.976-.544-1.696-1.312-1.696s-1.312.72-1.312 1.696c0 .992.544 1.68 1.312 1.68zm9.066 2.56c-1.568 0-2.592-1.008-2.592-2.8v-3.232h-1.2v-2.304h1.2v-1.472l2.912-.72v2.192h1.808v2.304h-1.808v3.008c0 .384.192.512.448.512.24 0 .528-.112.736-.256l.784 2.128c-.704.496-1.568.64-2.288.64zm3.369-.16v-8.176h2.912V24h-2.912zm1.44-8.8a1.666 1.666 0 0 1-1.648-1.648c0-.912.752-1.664 1.648-1.664.928 0 1.68.752 1.68 1.664 0 .896-.752 1.648-1.68 1.648zm6.075 8.96c-1.872 0-2.912-.56-3.392-.976l.928-2.048c.64.432 1.232.688 2.48.688.032 0 .8-.048.8-.368 0-.256-.48-.304-.96-.416-1.776-.432-3.088-1.152-3.088-2.656 0-1.792 1.632-2.72 3.36-2.72 1.584 0 2.528.352 3.312.768l-.864 1.952c-.944-.368-1.808-.48-2.352-.48-.288 0-.512.096-.512.256 0 .304.688.416 1.504.64 1.152.336 2.544.896 2.544 2.544 0 2.192-2.224 2.816-3.76 2.816zm9.415-5.584v-4.944h2.176v4.944h-2.176zm-3.648 0v-4.944h2.176v4.944h-2.176zm9.795 5.564a.726.726 0 0 1-.728-.742c0-.406.322-.742.728-.742.406 0 .742.336.742.742a.747.747 0 0 1-.742.742zm3.124 0a.726.726 0 0 1-.728-.742c0-.406.322-.742.728-.742.406 0 .742.336.742.742a.747.747 0 0 1-.742.742zm3.124 0a.726.726 0 0 1-.728-.742c0-.406.322-.742.728-.742.406 0 .742.336.742.742a.747.747 0 0 1-.742.742z" fill="#0B2E54"/></svg>