<svg width="185" height="13" viewBox="0 0 185 13" fill="none" xmlns="http://www.w3.org/2000/svg"><path d="M1.414 11.14a.726.726 0 0 1-.728-.742c0-.406.322-.742.728-.742.406 0 .742.336.742.742a.747.747 0 0 1-.742.742zm2.844 0a.726.726 0 0 1-.728-.742c0-.406.322-.742.728-.742.406 0 .742.336.742.742a.747.747 0 0 1-.742.742zm2.843 0a.726.726 0 0 1-.728-.742c0-.406.322-.742.728-.742.407 0 .742.336.742.742a.747.747 0 0 1-.742.742zm2.326 1.834V4.182h1.022v1.176c.504-.882 1.498-1.316 2.604-1.316 1.89 0 3.22 1.554 3.22 3.542 0 1.988-1.33 3.556-3.22 3.556-1.078 0-2.058-.448-2.562-1.33v3.164H9.427zm3.388-2.87c1.358 0 2.366-1.064 2.366-2.52 0-1.442-1.008-2.506-2.366-2.506-1.302 0-2.324 1.078-2.324 2.506 0 1.428 1.022 2.52 2.324 2.52zm8.27 1.036c-2.002 0-3.584-1.568-3.584-3.542 0-1.988 1.582-3.556 3.584-3.556s3.584 1.568 3.584 3.556c0 1.974-1.582 3.542-3.584 3.542zm0-1.036c1.414 0 2.492-1.078 2.492-2.506 0-1.442-1.078-2.52-2.492-2.52s-2.492 1.078-2.492 2.52c0 1.428 1.078 2.506 2.492 2.506zm5.09.896V4.182h1.064v1.442c.392-.896 1.274-1.582 2.632-1.582v1.162c-1.596 0-2.632.896-2.632 2.562V11h-1.064zm10.253.14c-1.204 0-1.918-.588-1.918-2.184V5.064h-1.022v-.882h1.022v-1.47l1.064-.196v1.666h2.324v.882h-2.324v3.92c0 .938.406 1.204.952 1.204.63 0 1.12-.378 1.12-.378l.35.826a2.806 2.806 0 0 1-1.568.504zm5.197 0c-1.68 0-2.478-.882-2.478-2.702V4.182h1.064v4.116c0 1.274.616 1.806 1.722 1.806 1.232 0 1.946-1.008 1.946-2.058V4.182h1.064V11h-1.022V9.796c-.42.882-1.4 1.344-2.296 1.344zm8.162-.14V4.182h1.064v1.162c.476-.826 1.358-1.302 2.366-1.302 1.708 0 2.464 1.036 2.464 2.828V11h-1.064V7.01c0-1.26-.462-1.932-1.694-1.932-1.218 0-2.072.952-2.072 2.086V11h-1.064zm9.562-7.91 1.134-1.862h1.162L60.329 3.09h-.98zm.378 8.05c-1.68 0-2.478-.882-2.478-2.702V4.182h1.064v4.116c0 1.274.616 1.806 1.722 1.806 1.232 0 1.946-1.008 1.946-2.058V4.182h1.064V11h-1.022V9.796c-.42.882-1.4 1.344-2.296 1.344zm5.112-.14V4.182h1.064v1.176c.378-.742 1.232-1.316 2.184-1.316 1.092 0 1.862.476 2.184 1.442.49-.994 1.554-1.442 2.352-1.442 1.638 0 2.506.952 2.506 2.828V11h-1.078V7.01c0-1.162-.406-1.932-1.652-1.932-1.148 0-1.876.924-1.876 1.946V11h-1.078V7.01c0-1.162-.406-1.932-1.638-1.932-1.19 0-1.904 1.008-1.904 2.002V11H64.84zm15.24.14c-1.932 0-3.57-1.386-3.57-3.542 0-1.974 1.484-3.556 3.43-3.556 1.82 0 3.262 1.568 3.262 3.514 0 .196-.028.406-.028.42h-5.558c.168 1.358 1.218 2.212 2.478 2.212.77 0 1.54-.266 2.1-.728l.462.784a4.172 4.172 0 0 1-2.576.896zm-2.464-3.976h4.536c-.112-1.26-1.078-2.17-2.268-2.17-1.162 0-2.114.896-2.268 2.17zM84.718 11V4.182h1.064v1.442c.392-.896 1.274-1.582 2.632-1.582v1.162c-1.596 0-2.632.896-2.632 2.562V11h-1.064zm8.09.14c-2.003 0-3.585-1.568-3.585-3.542 0-1.988 1.582-3.556 3.584-3.556s3.584 1.568 3.584 3.556c0 1.974-1.582 3.542-3.584 3.542zm0-1.036c1.413 0 2.491-1.078 2.491-2.506 0-1.442-1.078-2.52-2.492-2.52s-2.492 1.078-2.492 2.52c0 1.428 1.078 2.506 2.492 2.506zm11.079 1.036c-1.89 0-3.22-1.568-3.22-3.542 0-2.002 1.33-3.556 3.22-3.556 1.092 0 2.058.448 2.562 1.33V1.788h1.064V11h-1.022V9.81c-.504.896-1.498 1.33-2.604 1.33zm.238-1.036c1.302 0 2.324-1.078 2.324-2.506 0-1.428-1.022-2.52-2.324-2.52-1.358 0-2.366 1.064-2.366 2.52 0 1.442 1.008 2.506 2.366 2.506zm8.465 1.036c-1.932 0-3.57-1.386-3.57-3.542 0-1.974 1.484-3.556 3.43-3.556 1.82 0 3.262 1.568 3.262 3.514 0 .196-.028.406-.028.42h-5.558c.168 1.358 1.218 2.212 2.478 2.212.77 0 1.54-.266 2.1-.728l.462.784a4.172 4.172 0 0 1-2.576.896zm-2.464-3.976h4.536c-.112-1.26-1.078-2.17-2.268-2.17-1.162 0-2.114.896-2.268 2.17z" fill="#000"/><path d="M120.153 11V1.928h2.268l1.778 2.548a73.8 73.8 0 0 1 .77 1.176s.476-.742.77-1.176l1.778-2.548h2.268V11h-2.66V6.408s-.462.742-.714 1.092l-1.442 2.016-1.456-2.016c-.252-.35-.7-1.064-.7-1.064V11h-2.66zm15.118.14c-2.17 0-4.018-1.358-4.018-3.71 0-2.072 1.61-3.724 3.724-3.724 2.03 0 3.584 1.652 3.584 3.724 0 .434-.056.826-.056.826h-4.746c.21.672.84.924 1.526.924.602 0 1.246-.182 1.694-.434l.854 1.722c-.798.49-1.68.672-2.562.672zm-1.582-4.326h2.548a1.237 1.237 0 0 0-1.26-1.106c-.63 0-1.134.448-1.288 1.106zm9.058 4.326c-1.988 0-3.066-1.652-3.066-3.71 0-2.072 1.148-3.724 3.15-3.724.574 0 1.288.196 1.722.742v-2.66h2.548V11h-2.408v-.798c-.378.728-1.372.938-1.946.938zm.672-2.24c.672 0 1.148-.602 1.148-1.47 0-.854-.476-1.484-1.148-1.484-.672 0-1.148.63-1.148 1.484 0 .868.476 1.47 1.148 1.47zm5.077 2.1V3.846h2.548V11h-2.548zm1.26-7.7a1.458 1.458 0 0 1-1.442-1.442c0-.798.658-1.456 1.442-1.456.812 0 1.47.658 1.47 1.456 0 .784-.658 1.442-1.47 1.442zm6.408 7.84c-2.198 0-3.864-1.652-3.864-3.71 0-2.072 1.666-3.724 3.864-3.724.98 0 1.778.294 2.534.896l-1.47 1.764c-.266-.252-.56-.42-.994-.42-.826 0-1.358.63-1.358 1.484 0 .868.518 1.47 1.414 1.47.49 0 .896-.21 1.204-.518l1.274 1.876c-.686.574-1.596.882-2.604.882zm6.29 0c-1.988 0-3.066-1.652-3.066-3.71 0-2.072 1.078-3.724 3.066-3.724.574 0 1.526.196 1.946.938v-.798h2.408V11H164.4v-.798c-.392.728-1.372.938-1.946.938zm.672-2.24c.672 0 1.148-.602 1.148-1.47 0-.854-.476-1.484-1.148-1.484-.672 0-1.148.63-1.148 1.484 0 .868.476 1.47 1.148 1.47zm5.077 2.1V3.846h2.478V5.12c.042-.308.658-1.414 2.338-1.414v2.772c-1.848 0-2.268.77-2.268 2.114V11h-2.548zm9.818.14c-2.17 0-4.018-1.358-4.018-3.71 0-2.072 1.61-3.724 3.724-3.724 2.03 0 3.584 1.652 3.584 3.724 0 .434-.056.826-.056.826h-4.746c.21.672.84.924 1.526.924.602 0 1.246-.182 1.694-.434l.854 1.722c-.798.49-1.68.672-2.562.672zm-1.582-4.326h2.548a1.237 1.237 0 0 0-1.26-1.106c-.63 0-1.134.448-1.288 1.106zm6.076 6.104.686-3.206h1.05l-.98 3.206h-.756z" fill="#0B2E54"/></svg>