<svg width="217" height="93" viewBox="0 0 217 93" fill="none" xmlns="http://www.w3.org/2000/svg"><path d="M38.926 28.52c-2.964 0-5.148-2.236-5.148-5.096s2.184-5.096 5.148-5.096c3.016 0 5.252 2.236 5.252 5.096s-2.236 5.096-5.252 5.096zm16.427 0c-2.964 0-5.148-2.236-5.148-5.096s2.184-5.096 5.148-5.096c3.016 0 5.252 2.236 5.252 5.096s-2.236 5.096-5.252 5.096zm16.427 0c-2.964 0-5.148-2.236-5.148-5.096s2.184-5.096 5.148-5.096c3.016 0 5.252 2.236 5.252 5.096s-2.236 5.096-5.252 5.096zm20.275 0c-8.009 0-9.673-4.992-9.673-11.752V1.428h9.465v14.144c0 2.808.936 4.108 3.431 4.108 2.86 0 3.9-2.444 3.9-5.72V1.428h9.465V28h-8.945v-2.912c-1.455 1.872-4.887 3.432-7.643 3.432zm21.792-.52V1.428h8.944v3.068c2.444-2.86 5.356-3.588 8.008-3.588 6.708 0 9.308 3.952 9.308 11.752V28h-9.464V13.856c0-3.016-1.144-4.108-2.964-4.108-2.912 0-4.368 2.444-4.368 5.72V28h-9.464zm42.072.52c-7.384 0-11.388-6.136-11.388-13.78 0-7.696 4.004-13.832 11.388-13.832 2.132 0 5.668.728 7.228 3.484V1.428h8.944V28h-8.944v-2.964c-1.456 2.704-5.096 3.484-7.228 3.484zm2.496-8.32c2.496 0 4.264-2.236 4.264-5.46 0-3.172-1.768-5.512-4.264-5.512-2.496 0-4.264 2.34-4.264 5.512 0 3.224 1.768 5.46 4.264 5.46zM.596 85V50.784h9.464V85H.596zm14.65 0V50.784h9.464V85h-9.464zm25.517.52c-7.384 0-11.388-6.136-11.388-13.78 0-7.696 4.004-13.832 11.388-13.832 2.132 0 5.668.728 7.228 3.484v-2.964h8.944V85h-8.944v-2.964c-1.456 2.704-5.096 3.484-7.228 3.484zm2.496-8.32c2.496 0 4.264-2.236 4.264-5.46 0-3.172-1.768-5.512-4.264-5.512-2.496 0-4.264 2.34-4.264 5.512 0 3.224 1.768 5.46 4.264 5.46zM62.115 85V58.428h8.944v2.912c1.976-2.236 5.044-3.432 8.008-3.432 4.264 0 6.552 1.716 7.8 4.108 2.288-3.328 5.824-4.108 8.476-4.108 8.58 0 9.308 6.916 9.308 12.272V85h-9.464V71.272c0-3.172-.884-4.628-2.964-4.628-2.808 0-4.108 2.548-4.108 5.824V85H78.65V71.272c0-3.172-.884-4.628-2.964-4.628-2.808 0-4.108 2.548-4.108 5.824V85h-9.464zm58.322.52c-7.384 0-11.388-6.136-11.388-13.78 0-7.696 4.004-13.832 11.388-13.832 2.132 0 5.668.728 7.228 3.484v-2.964h8.944V85h-8.944v-2.964c-1.456 2.704-5.096 3.484-7.228 3.484zm2.496-8.32c2.496 0 4.264-2.236 4.264-5.46 0-3.172-1.768-5.512-4.264-5.512-2.496 0-4.264 2.34-4.264 5.512 0 3.224 1.768 5.46 4.264 5.46zm29.723 8.32c-7.384 0-11.388-6.136-11.388-13.78 0-7.696 4.264-13.832 11.7-13.832 2.132 0 4.784.728 6.396 2.756v-9.88h9.464V85h-8.944v-2.964c-1.404 2.704-5.096 3.484-7.228 3.484zm2.496-8.32c2.496 0 4.264-2.236 4.264-5.46 0-3.172-1.768-5.512-4.264-5.512-2.496 0-4.264 2.34-4.264 5.512 0 3.224 1.768 5.46 4.264 5.46zm29.724 8.32c-7.384 0-11.388-6.136-11.388-13.78 0-7.696 4.004-13.832 11.388-13.832 2.132 0 5.668.728 7.228 3.484v-2.964h8.944V85h-8.944v-2.964c-1.456 2.704-5.096 3.484-7.228 3.484zm2.496-8.32c2.496 0 4.264-2.236 4.264-5.46 0-3.172-1.768-5.512-4.264-5.512-2.496 0-4.264 2.34-4.264 5.512 0 3.224 1.768 5.46 4.264 5.46zm17.92 14.924l3.536-16.016h8.06l-6.032 16.016h-5.564z" fill="#fff"/></svg>