<svg width="239" height="49" viewBox="0 0 239 49" fill="none" xmlns="http://www.w3.org/2000/svg"><path d="M.955 48.344l.81-21.978h7.884l.756 21.978H.955zm4.698-24.948c-3.078 0-5.346-2.322-5.346-5.292 0-2.97 2.268-5.292 5.346-5.292 3.132 0 5.454 2.322 5.454 5.292 0 2.97-2.322 5.292-5.454 5.292zm28.658 18.252c-11.124 0-18.522-8.046-18.522-18.144 0-9.99 7.398-18.036 18.522-18.036 5.346 0 10.152 1.89 13.338 5.076L40.9 17.51c-2.484-2.538-4.482-2.754-6.156-2.754-4.536 0-8.262 3.672-8.262 8.748 0 5.184 3.456 8.856 8.262 8.856 2.862 0 5.508-1.296 7.452-3.888l6.534 7.182c-3.51 3.888-8.424 5.994-14.418 5.994zm27.065-.108c-8.316 0-10.044-5.184-10.044-12.204v-15.93h9.828v14.688c0 2.916.972 4.266 3.564 4.266 2.97 0 4.05-2.538 4.05-5.94V13.406h9.828V41h-9.288v-3.024c-1.512 1.944-5.076 3.564-7.938 3.564zm21.55-.54V13.406h9.829V41h-9.828zm4.86-29.7c-3.023 0-5.561-2.538-5.561-5.562 0-3.078 2.538-5.616 5.562-5.616 3.132 0 5.67 2.538 5.67 5.616 0 3.024-2.538 5.562-5.67 5.562zm20.559 30.24c-7.668 0-11.826-6.372-11.826-14.31 0-7.992 4.428-14.364 12.15-14.364 2.214 0 4.968.756 6.642 2.862V5.468h9.828V41h-9.288v-3.078c-1.458 2.808-5.292 3.618-7.506 3.618zm2.592-8.64c2.592 0 4.428-2.322 4.428-5.67 0-3.294-1.836-5.724-4.428-5.724-2.592 0-4.428 2.43-4.428 5.724 0 3.348 1.836 5.67 4.428 5.67zm29.787 8.64c-7.668 0-11.826-6.372-11.826-14.31 0-7.992 4.158-14.364 11.826-14.364 2.214 0 5.886.756 7.506 3.618v-3.078h9.288V41h-9.288v-3.078c-1.512 2.808-5.292 3.618-7.506 3.618zm2.592-8.64c2.592 0 4.428-2.322 4.428-5.67 0-3.294-1.836-5.724-4.428-5.724-2.592 0-4.428 2.43-4.428 5.724 0 3.348 1.836 5.67 4.428 5.67zm29.787 8.64c-7.668 0-11.826-6.372-11.826-14.31 0-7.992 4.428-14.364 12.15-14.364 2.214 0 4.968.756 6.642 2.862V5.468h9.828V41h-9.288v-3.078c-1.458 2.808-5.292 3.618-7.506 3.618zm2.592-8.64c2.592 0 4.428-2.322 4.428-5.67 0-3.294-1.836-5.724-4.428-5.724-2.592 0-4.428 2.43-4.428 5.724 0 3.348 1.836 5.67 4.428 5.67zm32.865 8.64c-8.478 0-14.904-6.372-14.904-14.31 0-7.992 6.426-14.364 14.904-14.364s14.904 6.372 14.904 14.364c0 7.938-6.426 14.31-14.904 14.31zm0-8.64c2.916 0 4.968-2.322 4.968-5.67 0-3.294-2.052-5.724-4.968-5.724s-4.968 2.43-4.968 5.724c0 3.348 2.052 5.67 4.968 5.67zm20.807-4.914l-.81-21.978h9.45l-.756 21.978h-7.884zm3.888 2.97c3.132 0 5.454 2.322 5.454 5.292 0 2.97-2.322 5.292-5.454 5.292-3.078 0-5.346-2.322-5.346-5.292 0-2.97 2.268-5.292 5.346-5.292z" fill="#fff"/></svg>