<svg width="116" height="24" viewBox="0 0 116 24" fill="none" xmlns="http://www.w3.org/2000/svg"><path d="M.923 23.536l.39-10.582h3.796l.364 10.582H.923zm2.262-12.012C1.703 11.524.61 10.406.61 8.976s1.092-2.548 2.574-2.548c1.508 0 2.626 1.118 2.626 2.548s-1.118 2.548-2.626 2.548zm13.798 8.788c-5.356 0-8.918-3.874-8.918-8.736 0-4.81 3.562-8.684 8.918-8.684 2.574 0 4.888.91 6.422 2.444l-3.25 3.354c-1.196-1.222-2.158-1.326-2.964-1.326-2.184 0-3.978 1.768-3.978 4.212 0 2.496 1.664 4.264 3.978 4.264 1.378 0 2.652-.624 3.588-1.872l3.146 3.458c-1.69 1.872-4.056 2.886-6.942 2.886zm13.032-.052c-4.004 0-4.836-2.496-4.836-5.876v-7.67h4.732v7.072c0 1.404.468 2.054 1.716 2.054 1.43 0 1.95-1.222 1.95-2.86V6.714h4.732V20h-4.472v-1.456c-.728.936-2.444 1.716-3.822 1.716zM40.39 20V6.714h4.732V20H40.39zm2.34-14.3c-1.456 0-2.678-1.222-2.678-2.678 0-1.482 1.222-2.704 2.678-2.704 1.508 0 2.73 1.222 2.73 2.704 0 1.456-1.222 2.678-2.73 2.678zm9.898 14.56c-3.692 0-5.694-3.068-5.694-6.89 0-3.848 2.132-6.916 5.85-6.916 1.066 0 2.392.364 3.198 1.378v-4.94h4.732V20h-4.472v-1.482c-.702 1.352-2.548 1.742-3.614 1.742zm1.248-4.16c1.248 0 2.132-1.118 2.132-2.73 0-1.586-.884-2.756-2.132-2.756-1.248 0-2.132 1.17-2.132 2.756 0 1.612.884 2.73 2.132 2.73zm14.342 4.16c-3.692 0-5.694-3.068-5.694-6.89 0-3.848 2.002-6.916 5.694-6.916 1.066 0 2.834.364 3.614 1.742V6.714h4.472V20h-4.472v-1.482c-.728 1.352-2.548 1.742-3.614 1.742zm1.248-4.16c1.248 0 2.132-1.118 2.132-2.73 0-1.586-.884-2.756-2.132-2.756-1.248 0-2.132 1.17-2.132 2.756 0 1.612.884 2.73 2.132 2.73zm14.342 4.16c-3.692 0-5.694-3.068-5.694-6.89 0-3.848 2.132-6.916 5.85-6.916 1.066 0 2.392.364 3.198 1.378v-4.94h4.732V20h-4.472v-1.482c-.702 1.352-2.548 1.742-3.614 1.742zm1.248-4.16c1.248 0 2.132-1.118 2.132-2.73 0-1.586-.884-2.756-2.132-2.756-1.248 0-2.132 1.17-2.132 2.756 0 1.612.884 2.73 2.132 2.73zm15.824 4.16c-4.082 0-7.176-3.068-7.176-6.89 0-3.848 3.094-6.916 7.176-6.916 4.082 0 7.176 3.068 7.176 6.916 0 3.822-3.094 6.89-7.176 6.89zm0-4.16c1.404 0 2.392-1.118 2.392-2.73 0-1.586-.988-2.756-2.392-2.756s-2.392 1.17-2.392 2.756c0 1.612.988 2.73 2.392 2.73zm10.018-2.366l-.39-10.582h4.55l-.364 10.582h-3.796zm1.872 1.43c1.508 0 2.626 1.118 2.626 2.548s-1.118 2.548-2.626 2.548c-1.482 0-2.574-1.118-2.574-2.548s1.092-2.548 2.574-2.548z" fill="#fff"/></svg>