<svg width="111" height="31" viewBox="0 0 111 31" fill="none" xmlns="http://www.w3.org/2000/svg"><rect x="1.178" y="5.281" width="108" height="23.85" rx="3" fill="#FF9759" stroke="#F2B795" stroke-width="2"/><path d="M14.685 20.13l2.62-6.48h1.96l2.62 6.48h-1.94l-.3-.84h-2.72l-.3.84h-1.94zm2.75-2.3h1.7l-.77-2.19c-.06-.16-.07-.22-.08-.26 0 0-.02.09-.08.26l-.77 2.19zm5.283 2.3v-6.48h2.86c1.99 0 3.01 1.15 3.01 2.56 0 1.41-1.02 2.56-3.02 2.56h-.95v1.36h-1.9zm1.9-2.97h1c.56 0 .96-.42.96-.95s-.4-.95-.95-.95h-1.01v1.9zm5.058 2.97v-6.48h2.86c1.99 0 3.01 1.15 3.01 2.56 0 .75-.34 1.52-1.02 1.99l1.21 1.93h-2.17l-.74-1.39c-.2.02-.31.03-.47.03h-.78v1.36h-1.9zm1.9-2.97h.98c.59 0 .98-.43.98-.95 0-.53-.4-.95-.97-.95h-.99v1.9zm5.068 2.97v-6.48h5.15v1.61h-3.25v.79h3.12v1.59h-3.12v.88h3.37v1.61h-5.27zm6.225 0v-6.48h1.65l2.06 2.87c.15.2.29.49.29.49v-3.36h1.9v6.48h-1.65l-2.06-2.82c-.15-.2-.29-.49-.29-.49v3.31h-1.9zm7.202 0v-6.48h2.7c2.17 0 3.53 1.47 3.53 3.24 0 1.77-1.36 3.24-3.53 3.24h-2.7zm1.9-1.61h.73c.97 0 1.59-.69 1.59-1.63 0-.93-.62-1.63-1.59-1.63h-.73v3.26zm5.43 1.61v-6.48h5.15v1.61H59.3v.79h3.12v1.59H59.3v.88h3.37v1.61H57.4zm11.871.12c-2.06 0-3.43-1.49-3.43-3.36 0-1.85 1.37-3.34 3.43-3.34.99 0 1.88.35 2.47.94l-1.25 1.29c-.46-.47-.83-.51-1.14-.51-.84 0-1.53.68-1.53 1.62 0 .96.64 1.64 1.53 1.64.53 0 1.02-.24 1.38-.72l1.21 1.33c-.65.72-1.56 1.11-2.67 1.11zm6.627 0c-2.08 0-3.47-1.49-3.47-3.36 0-1.85 1.39-3.34 3.47-3.34s3.48 1.49 3.48 3.34c0 1.87-1.4 3.36-3.48 3.36zm0-1.72c.88 0 1.5-.68 1.5-1.64 0-.94-.62-1.62-1.5-1.62-.82 0-1.49.68-1.49 1.62 0 .96.62 1.64 1.49 1.64zm-.85-5.2l1.05-1.79h1.75l-1.45 1.79h-1.35zm5.426 6.8v-6.48h1.62l1.27 1.82c.21.31.55.84.55.84s.34-.53.55-.84l1.27-1.82h1.62v6.48h-1.9v-3.28s-.33.53-.51.78l-1.03 1.44-1.04-1.44c-.18-.25-.5-.76-.5-.76v3.26h-1.9zm11.449.12c-2.08 0-3.47-1.49-3.47-3.36 0-1.85 1.39-3.34 3.47-3.34s3.48 1.49 3.48 3.34c0 1.87-1.4 3.36-3.48 3.36zm0-1.72c.88 0 1.5-.68 1.5-1.64 0-.94-.62-1.62-1.5-1.62-.82 0-1.49.68-1.49 1.62 0 .96.62 1.64 1.49 1.64z" fill="#101B31"/></svg>