<svg width="84" height="43" viewBox="0 0 84 43" fill="none" xmlns="http://www.w3.org/2000/svg"><path fill-rule="evenodd" clip-rule="evenodd" d="M49.374 3.895a34.678 34.678 0 00-19.237 5.823 34.57 34.57 0 00-12.753 15.506 34.484 34.484 0 00-1.97 19.964A34.529 34.529 0 0024.89 62.88a34.65 34.65 0 0017.729 9.456 34.695 34.695 0 0020.006-1.966 34.61 34.61 0 0015.54-12.726A34.5 34.5 0 0084 38.447a34.516 34.516 0 00-10.142-24.432 34.664 34.664 0 00-24.484-10.12z" fill="#495E89" opacity=".54"/><path fill-rule="evenodd" clip-rule="evenodd" d="M79.458 4.534a2.946 2.946 0 00-2.717 1.813 2.93 2.93 0 00.638 3.198 2.943 2.943 0 005.02-2.078c0-.778-.31-1.524-.862-2.074a2.944 2.944 0 00-2.079-.859z" fill="#7588AF"/><path fill-rule="evenodd" clip-rule="evenodd" d="M26.03 0a25.428 25.428 0 00-14.108 4.27A25.348 25.348 0 002.57 15.64a25.287 25.287 0 00-1.445 14.639 25.32 25.32 0 006.949 12.973 25.407 25.407 0 0013 6.934 25.44 25.44 0 0014.67-1.442 25.379 25.379 0 0011.395-9.333 25.297 25.297 0 00-3.158-31.99A25.415 25.415 0 0026.03 0z" fill="#1A2B4F" opacity=".51"/></svg>