<svg width="43" height="41" viewBox="0 0 43 41" fill="none" xmlns="http://www.w3.org/2000/svg"><path d="M29.96 2.2H7.343c-2.677 0-4.846 2.086-4.846 4.66v37.276c0 2.573 2.17 4.66 4.846 4.66h22.615c2.677 0 4.846-2.087 4.846-4.66V6.86c0-2.574-2.17-4.66-4.846-4.66z" fill="#F2F2F2"/><path d="M34.805 6.86a4.57 4.57 0 00-1.419-3.295A4.947 4.947 0 0029.959 2.2H7.344c-1.285 0-2.518.491-3.427 1.365a4.57 4.57 0 00-1.42 3.295v6.212h32.308V6.86zM2.51 44.665c0 1.095.509 2.146 1.413 2.92.905.775 2.132 1.21 3.41 1.21h22.51c1.279 0 2.505-.435 3.41-1.21.904-.774 1.413-1.825 1.413-2.92v-5.508H2.51v5.508zM40.718 16.942l-12.374 9.164-12.374-9.164a1.628 1.628 0 011.066-.398h22.616c.392 0 .771.142 1.066.398z" fill="#C1C5C8"/><path d="M41.267 18.137v15.938c0 .423-.17.828-.473 1.127a1.626 1.626 0 01-1.142.467H17.035c-.428 0-.84-.168-1.142-.467a1.583 1.583 0 01-.473-1.127V18.137a1.576 1.576 0 01.549-1.195l12.374 9.164 12.374-9.164a1.596 1.596 0 01.549 1.195z" fill="#F2F2F2"/><path d="M20.267 8.575c0-.423-.17-.828-.473-1.127a1.627 1.627 0 00-1.142-.467H12.19c-.428 0-.84.168-1.142.467a1.583 1.583 0 00-.473 1.127c0 .423.17.828.473 1.127.303.299.714.467 1.142.467h6.462c.428 0 .839-.168 1.142-.467.303-.299.473-.704.473-1.127z" fill="#101B31"/><path d="M41.784 15.747a3.256 3.256 0 00-2.132-.797H36.42V6.981c0-1.69-.681-3.312-1.893-4.508A6.506 6.506 0 0029.96.606H7.344a6.506 6.506 0 00-4.57 1.867A6.332 6.332 0 00.883 6.981v38.25c0 1.691.681 3.313 1.893 4.508a6.507 6.507 0 004.569 1.867h22.615a6.506 6.506 0 004.57-1.867 6.332 6.332 0 001.892-4.508v-7.968h3.23c.857 0 1.68-.336 2.285-.934a3.166 3.166 0 00.946-2.254V18.138c0-.453-.099-.9-.288-1.313a3.191 3.191 0 00-.81-1.078zm-5.363 2.39l-8.077 5.977-8.077-5.976H36.42zM33.19 45.232c0 .846-.34 1.656-.946 2.254a3.253 3.253 0 01-2.285.934H7.344a3.253 3.253 0 01-2.285-.934 3.166 3.166 0 01-.946-2.254V6.981c0-.845.34-1.656.946-2.254a3.253 3.253 0 012.285-.933h22.615c.857 0 1.679.336 2.285.933.606.598.946 1.409.946 2.254v7.97H17.036a3.256 3.256 0 00-2.132.796 3.19 3.19 0 00-.81 1.079c-.19.412-.288.859-.289 1.312v15.937c0 .845.34 1.656.947 2.254a3.253 3.253 0 002.284.934H33.19v7.968zM17.036 34.075V19.731l10.339 7.65a1.63 1.63 0 001.938 0l10.339-7.65v14.344H17.036z" fill="#101B31"/><path d="M25.113 10.169c.892 0 1.615-.714 1.615-1.594 0-.88-.723-1.594-1.615-1.594s-1.615.714-1.615 1.594c0 .88.723 1.594 1.615 1.594z" fill="#101B31"/><path d="M41.784 15.747a3.256 3.256 0 00-2.132-.797H17.036a3.256 3.256 0 00-2.132.797c-.345.299-.62.666-.81 1.079-.19.412-.288.859-.289 1.312v15.937c0 .845.34 1.656.947 2.254a3.253 3.253 0 002.284.934h22.616c.856 0 1.678-.336 2.284-.934a3.166 3.166 0 00.946-2.254V18.138c0-.453-.099-.9-.288-1.313a3.191 3.191 0 00-.81-1.078zm-5.363 2.39l-8.077 5.977-8.077-5.976h16.154zm3.23 15.938H17.037V19.731l10.339 7.65a1.63 1.63 0 001.938 0l10.339-7.65v14.344z" fill="#C80000"/></svg>