<svg width="74" height="43" viewBox="0 0 74 43" fill="none" xmlns="http://www.w3.org/2000/svg"><path fill-rule="evenodd" clip-rule="evenodd" d="M34.626 69.105a34.678 34.678 0 0019.237-5.823 34.57 34.57 0 0012.753-15.506 34.484 34.484 0 001.97-19.964A34.53 34.53 0 0059.11 10.12 34.649 34.649 0 0041.381.664 34.694 34.694 0 0021.375 2.63a34.61 34.61 0 00-15.54 12.726A34.5 34.5 0 000 34.553a34.516 34.516 0 0010.142 24.432 34.664 34.664 0 0024.484 10.12z" fill="#495E89" opacity=".54"/><path fill-rule="evenodd" clip-rule="evenodd" d="M57.97 73c5.023 0 9.932-1.485 14.108-4.27a25.348 25.348 0 009.352-11.37 25.287 25.287 0 001.445-14.639 25.32 25.32 0 00-6.949-12.973 25.407 25.407 0 00-13-6.934 25.44 25.44 0 00-14.67 1.442 25.379 25.379 0 00-11.395 9.333 25.297 25.297 0 003.158 31.99A25.415 25.415 0 0057.97 73z" fill="#1A2B4F" opacity=".51"/></svg>