<svg width="162" height="20" viewBox="0 0 162 20" fill="none" xmlns="http://www.w3.org/2000/svg"><path d="M.8 16V5.78h3.44V6.9C5 6.04 6.18 5.58 7.32 5.58c1.64 0 2.52.66 3 1.58.88-1.28 2.24-1.58 3.26-1.58 3.3 0 3.58 2.66 3.58 4.72V16h-3.64v-5.28c0-1.22-.34-1.78-1.14-1.78-1.08 0-1.58.98-1.58 2.24V16H7.16v-5.28c0-1.22-.34-1.78-1.14-1.78-1.08 0-1.58.98-1.58 2.24V16H.8zm23.392.2c-3.1 0-5.74-1.94-5.74-5.3 0-2.96 2.3-5.32 5.32-5.32 2.9 0 5.12 2.36 5.12 5.32 0 .62-.08 1.18-.08 1.18h-6.78c.3.96 1.2 1.32 2.18 1.32.86 0 1.78-.26 2.42-.62l1.22 2.46c-1.14.7-2.4.96-3.66.96zm-2.26-6.18h3.64c-.12-.94-.86-1.58-1.8-1.58-.9 0-1.62.64-1.84 1.58zm8.36 5.98V5.78h3.44v1.18c.94-1.1 2.06-1.38 3.08-1.38 2.58 0 3.58 1.52 3.58 4.52V16h-3.64v-5.44c0-1.16-.44-1.58-1.14-1.58-1.12 0-1.68.94-1.68 2.2V16h-3.64zm15.362.2c-2.34 0-3.64-.7-4.24-1.22l1.16-2.56c.8.54 1.54.86 3.1.86.04 0 1-.06 1-.46 0-.32-.6-.38-1.2-.52-2.22-.54-3.86-1.44-3.86-3.32 0-2.24 2.04-3.4 4.2-3.4 1.98 0 3.16.44 4.14.96l-1.08 2.44c-1.18-.46-2.26-.6-2.94-.6-.36 0-.64.12-.64.32 0 .38.86.52 1.88.8 1.44.42 3.18 1.12 3.18 3.18 0 2.74-2.78 3.52-4.7 3.52zm10.068 0c-2.84 0-4.38-2.36-4.38-5.3 0-2.96 1.54-5.32 4.38-5.32.82 0 2.18.28 2.78 1.34V5.78h3.44V16h-3.44v-1.14c-.56 1.04-1.96 1.34-2.78 1.34zm.96-3.2c.96 0 1.64-.86 1.64-2.1 0-1.22-.68-2.12-1.64-2.12-.96 0-1.64.9-1.64 2.12 0 1.24.68 2.1 1.64 2.1zm6.472 6.88l-1.32-2.46c1.28-.64 1.7-1.78 1.7-2.98V5.78h3.64v8.08c0 3.18-1.4 4.86-4.02 6.02zM65.334 5c-1.12 0-2.06-.94-2.06-2.06 0-1.14.94-2.08 2.06-2.08 1.16 0 2.1.94 2.1 2.08 0 1.12-.94 2.06-2.1 2.06zm8.975 11.2c-3.1 0-5.74-1.94-5.74-5.3 0-2.96 2.3-5.32 5.32-5.32 2.9 0 5.12 2.36 5.12 5.32 0 .62-.08 1.18-.08 1.18h-6.78c.3.96 1.2 1.32 2.18 1.32.86 0 1.78-.26 2.42-.62l1.22 2.46c-1.14.7-2.4.96-3.66.96zm-2.26-6.18h3.64c-.12-.94-.86-1.58-1.8-1.58-.9 0-1.62.64-1.84 1.58zm16.974 6.18c-2.84 0-4.38-2.36-4.38-5.3 0-2.96 1.64-5.32 4.5-5.32.82 0 1.84.28 2.46 1.06v-3.8h3.64V16h-3.44v-1.14c-.54 1.04-1.96 1.34-2.78 1.34zm.96-3.2c.96 0 1.64-.86 1.64-2.1 0-1.22-.68-2.12-1.64-2.12-.96 0-1.64.9-1.64 2.12 0 1.24.68 2.1 1.64 2.1zm12.392 3.2c-3.1 0-5.74-1.94-5.74-5.3 0-2.96 2.3-5.32 5.32-5.32 2.9 0 5.12 2.36 5.12 5.32 0 .62-.08 1.18-.08 1.18h-6.78c.3.96 1.2 1.32 2.18 1.32.86 0 1.78-.26 2.42-.62l1.22 2.46c-1.14.7-2.4.96-3.66.96zm-2.26-6.18h3.64c-.12-.94-.86-1.58-1.8-1.58-.9 0-1.62.64-1.84 1.58zm16.874 6.18c-1.96 0-3.24-1.26-3.24-3.5V8.66h-1.5V5.78h1.5V3.94l3.64-.9v2.74h2.26v2.88h-2.26v3.76c0 .48.24.64.56.64.3 0 .66-.14.92-.32l.98 2.66c-.88.62-1.96.8-2.86.8zm9.351 0c-3.1 0-5.74-1.94-5.74-5.3 0-2.96 2.3-5.32 5.32-5.32 2.9 0 5.12 2.36 5.12 5.32 0 .62-.08 1.18-.08 1.18h-6.78c.3.96 1.2 1.32 2.18 1.32.86 0 1.78-.26 2.42-.62l1.22 2.46c-1.14.7-2.4.96-3.66.96zm-2.26-6.18h3.64c-.12-.94-.86-1.58-1.8-1.58-.9 0-1.62.64-1.84 1.58zm7.098 5.98l3.02-5.24-3.02-4.98h3.92l.42.88c.4.84.98 2.22.98 2.22s.58-1.38.98-2.22l.42-.88h3.92l-3.02 4.98 3.02 5.24h-3.96l-.5-1.12c-.36-.82-.86-2.18-.86-2.18s-.52 1.34-.88 2.18l-.48 1.12h-3.96zm15.753.2c-1.96 0-3.24-1.26-3.24-3.5V8.66h-1.5V5.78h1.5V3.94l3.64-.9v2.74h2.26v2.88h-2.26v3.76c0 .48.24.64.56.64.3 0 .66-.14.92-.32l.98 2.66c-.88.62-1.96.8-2.86.8zm9.13 0c-3.14 0-5.52-2.36-5.52-5.3 0-2.96 2.38-5.32 5.52-5.32 3.14 0 5.52 2.36 5.52 5.32 0 2.94-2.38 5.3-5.52 5.3zm0-3.2c1.08 0 1.84-.86 1.84-2.1 0-1.22-.76-2.12-1.84-2.12s-1.84.9-1.84 2.12c0 1.24.76 2.1 1.84 2.1z" fill="#fff"/></svg>