<svg width="80" height="17" viewBox="0 0 80 17" fill="none" xmlns="http://www.w3.org/2000/svg"><path d="M5.817 16.21C2.52 16.21.02 13.732.02 10.645c0-3.108 2.499-5.586 5.796-5.586s5.796 2.478 5.796 5.586c0 3.087-2.5 5.565-5.796 5.565zm0-3.36c1.134 0 1.932-.903 1.932-2.205 0-1.281-.798-2.226-1.932-2.226s-1.932.945-1.932 2.226c0 1.302.798 2.205 1.932 2.205zM24.4 16.21c-3.255 0-6.026-2.037-6.026-5.565 0-3.108 2.415-5.586 5.585-5.586 3.046 0 5.377 2.478 5.377 5.586 0 .651-.084 1.239-.084 1.239h-7.12c.316 1.008 1.26 1.386 2.29 1.386.903 0 1.869-.273 2.54-.651l1.281 2.583c-1.197.735-2.52 1.008-3.843 1.008zM22.03 9.721h3.822c-.127-.987-.903-1.659-1.89-1.659-.945 0-1.701.672-1.932 1.659zM31.227 16V5.269h3.612v1.176c.798-.903 2.037-1.386 3.234-1.386 1.722 0 2.646.693 3.15 1.659.924-1.344 2.352-1.659 3.423-1.659 3.465 0 3.76 2.793 3.76 4.956V16h-3.823v-5.544c0-1.281-.357-1.869-1.197-1.869-1.134 0-1.659 1.029-1.659 2.352V16h-3.822v-5.544c0-1.281-.357-1.869-1.197-1.869-1.134 0-1.659 1.029-1.659 2.352V16h-3.822zm23.553.21c-2.982 0-4.599-2.478-4.599-5.565 0-3.108 1.617-5.586 4.6-5.586.86 0 2.288.294 2.918 1.407V5.269h3.612V16H57.7v-1.197c-.588 1.092-2.058 1.407-2.919 1.407zm1.008-3.36c1.008 0 1.722-.903 1.722-2.205 0-1.281-.714-2.226-1.722-2.226s-1.722.945-1.722 2.226c0 1.302.714 2.205 1.722 2.205zM63.403 16V5.269h3.822V16h-3.822zm1.89-11.55a2.187 2.187 0 01-2.163-2.163c0-1.197.987-2.184 2.163-2.184 1.218 0 2.205.987 2.205 2.184 0 1.176-.987 2.163-2.205 2.163zM69.32 16V2.182h3.822V16H69.32zm8.163.21c-1.197 0-2.079-.903-2.079-2.058 0-1.155.882-2.058 2.08-2.058 1.217 0 2.12.903 2.12 2.058 0 1.155-.903 2.058-2.12 2.058z" fill="#fff"/></svg>