<svg width="650" height="107" viewBox="0 0 650 107" fill="none" xmlns="http://www.w3.org/2000/svg"><path d="M2.575 43V.88H13.3l13.39 18.655c.975 1.3 1.885 3.185 1.885 3.185V.88h12.35V43H30.2L16.81 24.67c-.975-1.3-1.885-3.185-1.885-3.185V43H2.575zm56.303.65c-10.01 0-12.09-6.24-12.09-14.69V9.785h11.83v17.68c0 3.51 1.17 5.135 4.29 5.135 3.575 0 4.875-3.055 4.875-7.15V9.785h11.83V43h-11.18v-3.64c-1.82 2.34-6.11 4.29-9.555 4.29zm25.94-.65V9.785h11.18v3.835c3.055-3.575 6.695-4.485 10.01-4.485 8.385 0 11.635 4.94 11.635 14.69V43h-11.83V25.32c0-3.77-1.43-5.135-3.705-5.135-3.64 0-5.46 3.055-5.46 7.15V43h-11.83zm54.995.65c-10.205 0-17.94-7.67-17.94-17.225 0-9.62 7.735-17.29 17.94-17.29 4.55 0 8.255 1.365 11.765 4.16l-6.825 8.19c-1.235-1.17-2.6-1.95-4.615-1.95-3.835 0-6.305 2.925-6.305 6.89 0 4.03 2.405 6.825 6.565 6.825 2.275 0 4.16-.975 5.59-2.405l5.915 8.71c-3.185 2.665-7.41 4.095-12.09 4.095zm27.906 0c-9.23 0-14.235-7.67-14.235-17.225 0-9.62 5.005-17.29 14.235-17.29 2.665 0 7.085.91 9.035 4.355V9.785h11.18V43h-11.18v-3.705c-1.82 3.38-6.37 4.355-9.035 4.355zm3.12-10.4c3.12 0 5.33-2.795 5.33-6.825 0-3.965-2.21-6.89-5.33-6.89s-5.33 2.925-5.33 6.89c0 4.03 2.21 6.825 5.33 6.825zm53.969 10.4c-10.205 0-17.94-7.67-17.94-17.225 0-9.62 7.735-17.29 17.94-17.29 4.55 0 8.255 1.365 11.765 4.16l-6.825 8.19c-1.235-1.17-2.6-1.95-4.615-1.95-3.835 0-6.305 2.925-6.305 6.89 0 4.03 2.405 6.825 6.565 6.825 2.275 0 4.16-.975 5.59-2.405l5.915 8.71c-3.185 2.665-7.41 4.095-12.09 4.095zm31.611 0c-10.205 0-17.94-7.67-17.94-17.225 0-9.62 7.735-17.29 17.94-17.29 10.205 0 17.94 7.67 17.94 17.29 0 9.555-7.735 17.225-17.94 17.225zm0-10.4c3.51 0 5.98-2.795 5.98-6.825 0-3.965-2.47-6.89-5.98-6.89-3.51 0-5.98 2.925-5.98 6.89 0 4.03 2.47 6.825 5.98 6.825zm22.51 9.75V9.785h11.18v3.64c2.47-2.795 6.305-4.29 10.01-4.29 5.33 0 8.19 2.145 9.75 5.135 2.86-4.16 7.28-5.135 10.595-5.135 10.725 0 11.635 8.645 11.635 15.34V43h-11.83V25.84c0-3.965-1.105-5.785-3.705-5.785-3.51 0-5.135 3.185-5.135 7.28V43h-11.83V25.84c0-3.965-1.105-5.785-3.705-5.785-3.51 0-5.135 3.185-5.135 7.28V43h-11.83zm58.018 9.555V9.785h11.18v3.705c2.665-3.575 6.37-4.355 9.035-4.355 9.23 0 14.235 7.67 14.235 17.225 0 9.62-5.33 17.29-14.625 17.29-2.665 0-5.98-.91-7.995-3.445v12.35h-11.83zm17.03-19.305c3.12 0 5.33-2.795 5.33-6.825 0-3.965-2.21-6.89-5.33-6.89s-5.33 2.925-5.33 6.89c0 4.03 2.21 6.825 5.33 6.825zm35.529 10.4c-9.23 0-14.235-7.67-14.235-17.225 0-9.62 5.005-17.29 14.235-17.29 2.665 0 7.085.91 9.035 4.355V9.785h11.18V43h-11.18v-3.705c-1.82 3.38-6.37 4.355-9.035 4.355zm3.12-10.4c3.12 0 5.33-2.795 5.33-6.825 0-3.965-2.21-6.89-5.33-6.89s-5.33 2.925-5.33 6.89c0 4.03 2.21 6.825 5.33 6.825zm22.27 9.75V9.785h11.505V15.7c.195-1.43 3.055-6.565 10.855-6.565v12.87c-8.58 0-10.53 3.575-10.53 9.815V43h-11.83zm40.809.65c-6.37 0-10.53-4.095-10.53-11.375v-13.13H440.3v-9.36h4.875v-5.98L457.005.88v8.905h7.345v9.36h-7.345v12.22c0 1.56.78 2.08 1.82 2.08.975 0 2.145-.455 2.99-1.04L465 41.05c-2.86 2.015-6.37 2.6-9.295 2.6zm25.969 0c-9.23 0-14.235-7.67-14.235-17.225 0-9.62 5.005-17.29 14.235-17.29 2.665 0 7.085.91 9.035 4.355V9.785h11.18V43h-11.18v-3.705c-1.82 3.38-6.37 4.355-9.035 4.355zm3.12-10.4c3.12 0 5.33-2.795 5.33-6.825 0-3.965-2.21-6.89-5.33-6.89s-5.33 2.925-5.33 6.89c0 4.03 2.21 6.825 5.33 6.825zm34.49 10.4c-7.605 0-11.83-2.275-13.78-3.965l3.77-8.32c2.6 1.755 5.005 2.795 10.075 2.795.13 0 3.25-.195 3.25-1.495 0-1.04-1.95-1.235-3.9-1.69-7.215-1.755-12.545-4.68-12.545-10.79 0-7.28 6.63-11.05 13.65-11.05 6.435 0 10.27 1.43 13.455 3.12l-3.51 7.93c-3.835-1.495-7.345-1.95-9.555-1.95-1.17 0-2.08.39-2.08 1.04 0 1.235 2.795 1.69 6.11 2.6 4.68 1.365 10.335 3.64 10.335 10.335 0 8.905-9.035 11.44-15.275 11.44zm-506.21 62.97c-5.332 0-8.494-2.604-8.494-9.672V79.712H.054v-3.906H4.58v-6.51l4.712-.868v7.378h10.292v3.906H9.292v17.36c0 4.154 1.798 5.332 4.216 5.332 2.79 0 4.96-1.674 4.96-1.674l1.55 3.658c-1.178.806-3.658 2.232-6.944 2.232zm23.017 0c-7.44 0-10.975-3.906-10.975-11.966V75.806h4.712v18.228c0 5.642 2.729 7.998 7.627 7.998 5.456 0 8.617-4.464 8.617-9.114V75.806h4.712V106h-4.526v-5.332c-1.86 3.906-6.2 5.952-10.168 5.952zm36.143-.62V75.806h4.712v5.146c2.108-3.658 6.014-5.766 10.478-5.766 7.564 0 10.912 4.588 10.912 12.524V106h-4.712V88.33c0-5.58-2.046-8.556-7.502-8.556-5.394 0-9.176 4.216-9.176 9.238V106h-4.712zm42.347-35.03l5.022-8.246h5.146l-5.828 8.246h-4.34zm1.674 35.65c-7.44 0-10.974-3.906-10.974-11.966V75.806h4.712v18.228c0 5.642 2.728 7.998 7.626 7.998 5.456 0 8.618-4.464 8.618-9.114V75.806h4.712V106h-4.526v-5.332c-1.86 3.906-6.2 5.952-10.168 5.952zm22.641-.62V75.806h4.712v5.208c1.674-3.286 5.456-5.828 9.672-5.828 4.836 0 8.246 2.108 9.672 6.386 2.17-4.402 6.882-6.386 10.416-6.386 7.254 0 11.098 4.216 11.098 12.524V106h-4.774V88.33c0-5.146-1.798-8.556-7.316-8.556-5.084 0-8.308 4.092-8.308 8.618V106h-4.774V88.33c0-5.146-1.798-8.556-7.254-8.556-5.27 0-8.432 4.464-8.432 8.866V106h-4.712zm67.488.62c-8.556 0-15.81-6.138-15.81-15.686 0-8.742 6.572-15.748 15.19-15.748 8.06 0 14.446 6.944 14.446 15.562 0 .868-.124 1.798-.124 1.86h-24.614c.744 6.014 5.394 9.796 10.974 9.796 3.41 0 6.82-1.178 9.3-3.224l2.046 3.472a18.475 18.475 0 01-11.408 3.968zm-10.912-17.608h20.088c-.496-5.58-4.774-9.61-10.044-9.61-5.146 0-9.362 3.968-10.044 9.61zM226.931 106V75.806h4.712v6.386c1.736-3.968 5.642-7.006 11.656-7.006v5.146c-7.068 0-11.656 3.968-11.656 11.346V106h-4.712zm35.823.62c-8.866 0-15.872-6.944-15.872-15.686 0-8.804 7.006-15.748 15.872-15.748s15.872 6.944 15.872 15.748c0 8.742-7.006 15.686-15.872 15.686zm0-4.588c6.262 0 11.036-4.774 11.036-11.098 0-6.386-4.774-11.16-11.036-11.16s-11.036 4.774-11.036 11.16c0 6.324 4.774 11.098 11.036 11.098zm49.066 4.588c-8.37 0-14.26-6.944-14.26-15.686 0-8.866 5.89-15.748 14.26-15.748 4.836 0 9.114 1.984 11.346 5.89V65.204h4.712V106h-4.526v-5.27c-2.232 3.968-6.634 5.89-11.532 5.89zm1.054-4.588c5.766 0 10.292-4.774 10.292-11.098 0-6.324-4.526-11.16-10.292-11.16-6.014 0-10.478 4.712-10.478 11.16 0 6.386 4.464 11.098 10.478 11.098zm37.49 4.588c-8.556 0-15.81-6.138-15.81-15.686 0-8.742 6.572-15.748 15.19-15.748 8.06 0 14.446 6.944 14.446 15.562 0 .868-.124 1.798-.124 1.86h-24.614c.744 6.014 5.394 9.796 10.974 9.796 3.41 0 6.82-1.178 9.3-3.224l2.046 3.472a18.475 18.475 0 01-11.408 3.968zm-10.912-17.608h20.088c-.496-5.58-4.774-9.61-10.044-9.61-5.146 0-9.362 3.968-10.044 9.61zM385.157 106V65.824h4.402l9.796 13.64c2.108 2.976 6.51 9.3 6.51 9.3s4.402-6.262 6.51-9.238l9.796-13.702h4.402V106h-4.96V74.194s-1.054 1.922-2.976 4.588l-12.772 17.98-12.834-18.104c-1.798-2.542-2.914-4.464-2.914-4.464V106h-4.96zm64.625.62c-8.556 0-15.81-6.138-15.81-15.686 0-8.742 6.572-15.748 15.19-15.748 8.06 0 14.446 6.944 14.446 15.562 0 .868-.124 1.798-.124 1.86H438.87c.744 6.014 5.394 9.796 10.974 9.796 3.41 0 6.82-1.178 9.3-3.224l2.046 3.472a18.475 18.475 0 01-11.408 3.968zM438.87 89.012h20.088c-.496-5.58-4.774-9.61-10.044-9.61-5.146 0-9.362 3.968-10.044 9.61zm44.479 17.608c-8.37 0-14.26-6.944-14.26-15.686 0-8.866 5.89-15.748 14.26-15.748 4.836 0 9.114 1.984 11.346 5.89V65.204h4.712V106h-4.526v-5.27c-2.232 3.968-6.634 5.89-11.532 5.89zm1.054-4.588c5.766 0 10.292-4.774 10.292-11.098 0-6.324-4.526-11.16-10.292-11.16-6.014 0-10.478 4.712-10.478 11.16 0 6.386 4.464 11.098 10.478 11.098zm22.92 3.968V75.806h4.712V106h-4.712zm2.356-35.588a3.07 3.07 0 01-3.1-3.1c0-1.736 1.364-3.162 3.1-3.162a3.175 3.175 0 013.162 3.162c0 1.736-1.426 3.1-3.162 3.1zm24.931 36.208c-8.866 0-15.872-6.882-15.872-15.686s7.006-15.748 15.872-15.748c4.154 0 7.936 1.488 10.788 4.03l-2.976 3.348c-1.86-1.736-4.588-2.79-7.75-2.79-6.324 0-11.098 4.712-11.098 11.16 0 6.262 4.588 11.098 11.222 11.098 3.41 0 6.51-1.302 8.618-3.41l2.728 3.534c-2.914 2.79-7.006 4.464-11.532 4.464zm29.509 0c-8.37 0-14.26-6.944-14.26-15.686 0-8.866 5.89-15.748 14.26-15.748 4.836 0 9.114 1.984 11.346 5.89v-5.27h4.712V106h-4.712v-5.27c-2.232 3.968-6.51 5.89-11.346 5.89zm1.054-4.588c5.766 0 10.292-4.774 10.292-11.098 0-6.324-4.526-11.16-10.292-11.16-6.014 0-10.478 4.712-10.478 11.16 0 6.386 4.464 11.098 10.478 11.098zm22.92 3.968V75.806h4.712v6.386c1.736-3.968 5.642-7.006 11.656-7.006v5.146c-7.068 0-11.656 3.968-11.656 11.346V106h-4.712zm35.761.62c-8.556 0-15.81-6.138-15.81-15.686 0-8.742 6.572-15.748 15.19-15.748 8.06 0 14.446 6.944 14.446 15.562 0 .868-.124 1.798-.124 1.86h-24.614c.744 6.014 5.394 9.796 10.974 9.796 3.41 0 6.82-1.178 9.3-3.224l2.046 3.472a18.475 18.475 0 01-11.408 3.968zm-10.912-17.608h20.088c-.496-5.58-4.774-9.61-10.044-9.61-5.146 0-9.362 3.968-10.044 9.61zm33.754 17.608c-1.86 0-3.224-1.488-3.224-3.286s1.426-3.286 3.224-3.286c1.798 0 3.286 1.488 3.286 3.286s-1.488 3.286-3.286 3.286z" fill="#42443C"/></svg>