<svg width="810" height="95" viewBox="0 0 810 95" fill="none" xmlns="http://www.w3.org/2000/svg"><path fill="#FCD77D" d="M260 74h229v17H260z"/><path d="M4.29 80V29.456h40.17v12.558H19.11v6.162h24.336v12.402H19.11v6.864h26.286V80H4.29zm60.492.78c-9.126 0-14.196-2.73-16.536-4.758l4.524-9.984c3.12 2.106 6.006 3.354 12.09 3.354.156 0 3.9-.234 3.9-1.794 0-1.248-2.34-1.482-4.68-2.028-8.658-2.106-15.054-5.616-15.054-12.948 0-8.736 7.956-13.26 16.38-13.26 7.722 0 12.324 1.716 16.146 3.744l-4.212 9.516c-4.602-1.794-8.814-2.34-11.466-2.34-1.404 0-2.496.468-2.496 1.248 0 1.482 3.354 2.028 7.332 3.12 5.616 1.638 12.402 4.368 12.402 12.402 0 10.686-10.842 13.728-18.33 13.728zm54.374 0c-12.012 0-14.508-7.488-14.508-17.628v-23.01h14.196v21.216c0 4.212 1.404 6.162 5.148 6.162 4.29 0 5.85-3.666 5.85-8.58V40.142h14.196V80h-13.416v-4.368c-2.184 2.808-7.332 5.148-11.466 5.148zm31.128-.78V40.142H163.7v4.602c3.666-4.29 8.034-5.382 12.012-5.382 10.062 0 13.962 5.928 13.962 17.628V80h-14.196V58.784c0-4.524-1.716-6.162-4.446-6.162-4.368 0-6.552 3.666-6.552 8.58V80h-14.196zm61.548.78c-11.076 0-17.082-9.204-17.082-20.67 0-11.544 6.006-20.748 17.082-20.748 3.198 0 8.502 1.092 10.842 5.226v-4.446h13.416V80h-13.416v-4.446c-2.184 4.056-7.644 5.226-10.842 5.226zm3.744-12.48c3.744 0 6.396-3.354 6.396-8.19 0-4.758-2.652-8.268-6.396-8.268-3.744 0-6.396 3.51-6.396 8.268 0 4.836 2.652 8.19 6.396 8.19zm65.621 12.48c-12.09 0-22.386-7.566-22.386-20.67 0-11.544 8.97-20.748 20.748-20.748 11.31 0 19.968 9.204 19.968 20.748a36.73 36.73 0 01-.312 4.602h-26.442c1.17 3.744 4.68 5.148 8.502 5.148 3.354 0 6.942-1.014 9.438-2.418l4.758 9.594c-4.446 2.73-9.36 3.744-14.274 3.744zm-8.814-24.102h14.196c-.468-3.666-3.354-6.162-7.02-6.162-3.51 0-6.318 2.496-7.176 6.162zm47.27 24.102c-9.126 0-14.196-2.73-16.536-4.758l4.524-9.984c3.12 2.106 6.006 3.354 12.09 3.354.156 0 3.9-.234 3.9-1.794 0-1.248-2.34-1.482-4.68-2.028-8.658-2.106-15.054-5.616-15.054-12.948 0-8.736 7.956-13.26 16.38-13.26 7.722 0 12.324 1.716 16.146 3.744l-4.212 9.516c-4.602-1.794-8.814-2.34-11.466-2.34-1.404 0-2.496.468-2.496 1.248 0 1.482 3.354 2.028 7.332 3.12 5.616 1.638 12.402 4.368 12.402 12.402 0 10.686-10.842 13.728-18.33 13.728zm38.877 0c-7.644 0-12.636-4.914-12.636-13.65V51.374h-5.85V40.142h5.85v-7.176l14.196-3.51v10.686h8.814v11.232h-8.814v14.664c0 1.872.936 2.496 2.184 2.496 1.17 0 2.574-.546 3.588-1.248l3.822 10.374c-3.432 2.418-7.644 3.12-11.154 3.12zm31.163 0c-11.076 0-17.082-9.204-17.082-20.67 0-11.544 6.006-20.748 17.082-20.748 3.198 0 8.502 1.092 10.842 5.226v-4.446h13.416V80h-13.416v-4.446c-2.184 4.056-7.644 5.226-10.842 5.226zm3.744-12.48c3.744 0 6.396-3.354 6.396-8.19 0-4.758-2.652-8.268-6.396-8.268-3.744 0-6.396 3.51-6.396 8.268 0 4.836 2.652 8.19 6.396 8.19zM422.501 80V51.686h-6.006V40.454h6.006v-2.496c0-8.736 4.992-13.65 12.636-13.65 3.51 0 7.722.546 11.154 2.262l-3.822 10.374c-1.014-.39-2.106-.624-3.12-.624-1.482 0-2.652.78-2.652 3.276v.858h7.8v11.232h-7.8V80h-14.196zm41.536.78c-11.076 0-17.082-9.204-17.082-20.67 0-11.544 6.006-20.748 17.082-20.748 3.198 0 8.502 1.092 10.842 5.226v-4.446h13.416V80h-13.416v-4.446c-2.184 4.056-7.644 5.226-10.842 5.226zm3.744-12.48c3.744 0 6.396-3.354 6.396-8.19 0-4.758-2.652-8.268-6.396-8.268-3.744 0-6.396 3.51-6.396 8.268 0 4.836 2.652 8.19 6.396 8.19zm35.07 12.48c-4.446 0-7.722-3.354-7.722-7.644s3.276-7.644 7.722-7.644c4.524 0 7.878 3.354 7.878 7.644s-3.354 7.644-7.878 7.644z" fill="#42443C"/></svg>