<svg width="122" height="99" viewBox="0 0 122 99" fill="none" xmlns="http://www.w3.org/2000/svg"><path d="M5.359 4.994v9.568c0 .368.023.414.368.46l1.541.184V17H.874v-1.794l1.449-.161c.322-.046.368-.115.368-.46V2.763c0-.345-.023-.414-.368-.46L.874 2.142V.348h5.704L13.8 12.377V2.809c0-.345-.023-.414-.368-.46l-1.449-.161V.348h6.394v1.84l-1.541.184c-.345.046-.368.092-.368.437V17h-3.772L5.359 4.994zm19.978 12.282c-4.209 0-5.91-2.576-5.91-6.187 0-3.818 2-6.302 6.21-6.302 4.254 0 5.91 2.53 5.91 6.049 0 3.91-1.978 6.44-6.21 6.44zm.161-2.415c1.495 0 2.415-1.035 2.415-3.91 0-2.714-.828-3.68-2.323-3.68-1.518 0-2.53.943-2.53 3.703 0 2.783.897 3.887 2.438 3.887zM.598 42.137l1.035-.138c.322-.046.368-.115.368-.46V34.8c0-.253-.069-.414-.299-.483L.46 33.88l.253-1.863h4.048l.276 1.84h.138c.759-1.173 1.771-2.07 3.243-2.07.529 0 1.587.092 2.001.207v4.186l-2.76-.092-.23-1.219c-.046-.207-.115-.253-.299-.253-.598 0-1.311.506-1.656.805v6.095c0 .368.023.437.368.46l2.277.184V44H.598v-1.863zm21.684.966c-1.426.69-2.99 1.173-4.715 1.173-4.44 0-5.957-2.76-5.957-6.348 0-4.163 2.553-6.141 5.704-6.141 3.036 0 5.06 1.587 5.06 5.566 0 .276-.023 1.081-.046 1.541H15.29c.115 1.633.828 2.714 2.714 2.714.897 0 1.863-.207 3.427-.782l.85 2.277zm-3.312-6.394c-.023-1.932-.782-2.438-1.725-2.438-.99 0-1.794.552-1.932 2.438h3.657zm11.742-2.277c-.046-.207-.069-.276-.23-.322-.299-.092-.851-.184-1.472-.184-1.15 0-1.794.437-1.794 1.173 0 .943 1.265 1.15 2.668 1.472 1.817.414 3.864 1.058 3.864 3.749 0 2.806-2.277 3.956-5.198 3.956-2.093 0-4.14-.552-4.554-.828v-3.335l2.461.184.23 1.311c.046.207.069.276.276.345.276.092.897.23 1.771.23 1.219 0 1.909-.345 1.909-1.196 0-.92-.92-1.196-2.093-1.403-1.932-.345-4.462-.759-4.462-3.772 0-2.852 2.438-4.025 5.083-4.025 1.817 0 3.588.414 4.232.667v3.335l-2.461-.161-.23-1.196zm4.469 12.604l.92-.138c.322-.046.414-.138.414-.483V34.8c0-.253-.046-.391-.299-.483l-1.219-.437.253-1.863h4.048l.207 1.173.115.046c1.104-.897 2.599-1.449 3.91-1.449 2.576 0 4.416 1.61 4.416 5.888 0 2.76-.943 6.601-4.738 6.601-1.196 0-2.277-.391-3.243-1.15v3.266c0 .368.023.437.368.46l2.346.207v1.817h-7.498v-1.84zm4.784-6.325c.506.437 1.311.874 2.162.874 1.541 0 2.185-1.472 2.185-3.726 0-2.369-.805-3.335-1.955-3.335-.966 0-1.886.483-2.392.828v5.359zm15.441 3.565c-4.209 0-5.91-2.576-5.91-6.187 0-3.818 2-6.302 6.21-6.302 4.254 0 5.91 2.53 5.91 6.049 0 3.91-1.978 6.44-6.21 6.44zm.161-2.415c1.495 0 2.415-1.035 2.415-3.91 0-2.714-.828-3.68-2.323-3.68-1.518 0-2.53.943-2.53 3.703 0 2.783.897 3.887 2.438 3.887zm15.919-5.29c0-1.104-.069-2.024-1.219-2.024-.851 0-1.909.483-2.392.851v6.164c0 .368.023.414.368.46l1.104.161V44h-6.348v-1.84l1.035-.138c.322-.046.368-.115.368-.46V34.8c0-.253-.069-.414-.299-.483l-1.242-.437.276-1.863h4.025l.184 1.196.092.046c1.15-.851 2.484-1.472 4.048-1.472 2.507 0 3.473 1.38 3.473 3.91v5.865c0 .368.023.414.368.46l1.15.161V44h-4.991v-7.429zm14.697 6.141l-.16-.023c-.966.943-2.093 1.587-3.772 1.587-2.715 0-4.463-1.725-4.463-6.118 0-4.623 2.324-6.371 4.877-6.371 1.334 0 2.368.46 3.242 1.104v-3.496c0-.23-.091-.391-.298-.46l-1.265-.437.253-1.863h4.623v14.95c0 .345.023.391.368.437l1.104.161V44h-4.278l-.23-1.288zm-.414-7.567c-.575-.391-1.31-.69-1.978-.69-1.701 0-2.368 1.587-2.368 3.634 0 2.231.644 3.473 2.093 3.473.781 0 1.632-.46 2.253-.989v-5.428zm13.601 7.613l-.115-.023c-.874.851-2.024 1.541-3.864 1.541-2.898 0-3.358-1.978-3.358-3.404 0-2.3 1.403-3.335 4.301-3.542l2.645-.184v-1.265c0-1.081-.115-1.817-1.54-1.817-1.105 0-1.68.161-1.68 1.541l-3.243-.276c0-3.105 2.83-3.542 4.945-3.542 3.496 0 4.899.943 4.899 4.163v5.589c0 .368.023.414.368.46l1.104.184V44H99.6l-.23-1.242zm-1.955-3.588c-1.357.092-1.84.437-1.84 1.357 0 .92.552 1.265 1.311 1.265.782 0 1.564-.437 2.093-.828v-1.909l-1.564.115zm14.301-4.738c-.046-.207-.069-.276-.23-.322-.299-.092-.851-.184-1.472-.184-1.15 0-1.794.437-1.794 1.173 0 .943 1.265 1.15 2.668 1.472 1.817.414 3.864 1.058 3.864 3.749 0 2.806-2.277 3.956-5.198 3.956-2.093 0-4.14-.552-4.554-.828v-3.335l2.461.184.23 1.311c.046.207.069.276.276.345.276.092.897.23 1.771.23 1.219 0 1.909-.345 1.909-1.196 0-.92-.92-1.196-2.093-1.403-1.932-.345-4.462-.759-4.462-3.772 0-2.852 2.438-4.025 5.083-4.025 1.817 0 3.588.414 4.232.667v3.335l-2.461-.161-.23-1.196zm8.977 8.05c0 1.173-.644 1.794-1.955 1.794-1.334 0-1.978-.598-1.978-1.794 0-1.173.644-1.794 1.978-1.794 1.288 0 1.955.621 1.955 1.794z" fill="#8F3FB0"/><path d="M.874 69.183l1.449-.161c.322-.046.368-.115.368-.46V56.809c0-.345-.023-.414-.368-.46l-1.449-.161v-1.84h7.797c4.255 0 5.543 2.254 5.543 4.899 0 4.002-2.415 5.612-6.302 5.612H6.233v3.68c0 .368.046.437.368.46l3.289.184V71H.874v-1.817zm6.509-6.785c1.518 0 3.197-.345 3.197-2.944 0-2.208-1.357-2.599-2.99-2.599H6.233v5.543h1.15zm13.462 8.878c-4.209 0-5.911-2.576-5.911-6.187 0-3.818 2.001-6.302 6.21-6.302 4.255 0 5.911 2.53 5.911 6.049 0 3.91-1.978 6.44-6.21 6.44zm.161-2.415c1.495 0 2.415-1.035 2.415-3.91 0-2.714-.828-3.68-2.323-3.68-1.518 0-2.53.943-2.53 3.703 0 2.783.897 3.887 2.438 3.887zm16.101.851l-.16-.023c-.967.943-2.094 1.587-3.773 1.587-2.714 0-4.462-1.725-4.462-6.118 0-4.623 2.323-6.371 4.876-6.371 1.334 0 2.37.46 3.243 1.104v-3.496c0-.23-.092-.391-.299-.46l-1.265-.437.253-1.863h4.623v14.95c0 .345.023.391.368.437l1.104.161V71h-4.278l-.23-1.288zm-.414-7.567c-.575-.391-1.31-.69-1.978-.69-1.702 0-2.369 1.587-2.369 3.634 0 2.231.644 3.473 2.093 3.473.782 0 1.633-.46 2.254-.989v-5.428zm6.103 6.992l1.035-.138c.322-.046.368-.115.368-.46V61.8c0-.253-.07-.414-.3-.483l-1.241-.437.253-1.863h4.048l.276 1.84h.138c.759-1.173 1.77-2.07 3.243-2.07.529 0 1.587.092 2 .207v4.186l-2.76-.092-.23-1.219c-.045-.207-.114-.253-.298-.253-.598 0-1.311.506-1.656.805v6.095c0 .368.023.437.368.46l2.277.184V71h-7.521v-1.863zm10.963.046l1.173-.161c.322-.046.368-.115.368-.46V61.8c0-.253-.07-.414-.3-.483l-1.241-.437.253-1.863h4.76v9.545c0 .368.024.414.369.46l1.173.161V71h-6.555v-1.817zm.207-12.19l3.519-4.002 1.886 1.794-4.117 3.358-1.288-1.15zm14.936 12.765l-.115-.023c-.874.851-2.024 1.541-3.864 1.541-2.898 0-3.358-1.978-3.358-3.404 0-2.3 1.403-3.335 4.301-3.542l2.645-.184v-1.265c0-1.081-.115-1.817-1.54-1.817-1.105 0-1.68.161-1.68 1.541l-3.243-.276c0-3.105 2.83-3.542 4.945-3.542 3.496 0 4.9.943 4.9 4.163v5.589c0 .368.022.414.367.46l1.104.184V71h-4.232l-.23-1.242zm-1.955-3.588c-1.357.092-1.84.437-1.84 1.357 0 .92.552 1.265 1.311 1.265.782 0 1.564-.437 2.093-.828v-1.909l-1.564.115zm19.315-4.738c-.046-.207-.069-.276-.23-.322-.299-.092-.85-.184-1.472-.184-1.15 0-1.794.437-1.794 1.173 0 .943 1.265 1.15 2.668 1.472 1.817.414 3.864 1.058 3.864 3.749 0 2.806-2.277 3.956-5.198 3.956-2.093 0-4.14-.552-4.554-.828v-3.335l2.461.184.23 1.311c.046.207.07.276.276.345.276.092.897.23 1.771.23 1.22 0 1.91-.345 1.91-1.196 0-.92-.92-1.196-2.094-1.403-1.932-.345-4.462-.759-4.462-3.772 0-2.852 2.438-4.025 5.083-4.025 1.817 0 3.588.414 4.232.667v3.335l-2.46-.161-.23-1.196zm15.187 8.671c-1.426.69-2.99 1.173-4.715 1.173-4.439 0-5.957-2.76-5.957-6.348 0-4.163 2.553-6.141 5.704-6.141 3.036 0 5.06 1.587 5.06 5.566 0 .276-.023 1.081-.046 1.541h-7.038c.115 1.633.828 2.714 2.714 2.714.897 0 1.863-.207 3.427-.782l.851 2.277zm-3.312-6.394c-.023-1.932-.782-2.438-1.725-2.438-.989 0-1.794.552-1.932 2.438h3.657zm4.931 5.428l1.035-.138c.322-.046.368-.115.368-.46V61.8c0-.253-.069-.414-.299-.483l-1.242-.437.253-1.863h4.048l.276 1.84h.138c.759-1.173 1.771-2.07 3.243-2.07.529 0 1.587.092 2.001.207v4.186l-2.76-.092-.23-1.219c-.046-.207-.115-.253-.299-.253-.598 0-1.311.506-1.656.805v6.095c0 .368.023.437.368.46l2.277.184V71h-7.521v-1.863zM9.476 96.758l-.115-.023c-.943.713-2.139 1.541-4.094 1.541-2.415 0-3.335-1.38-3.335-4.048v-5.612c0-.368-.023-.414-.368-.483l-1.104-.23.23-1.886h4.715v7.613c0 1.403.23 1.932 1.219 1.932 1.012 0 1.84-.575 2.369-1.058v-5.911c0-.368-.023-.391-.368-.46l-.989-.23.253-1.886h4.577v9.545c0 .299.046.391.322.437l1.15.161V98H9.66l-.184-1.242zm14.17-6.187c0-1.104-.07-2.024-1.22-2.024-.85 0-1.909.483-2.392.851v6.164c0 .368.023.414.368.46l1.104.161V98h-6.348v-1.84l1.035-.138c.322-.046.368-.115.368-.46V88.8c0-.253-.069-.414-.299-.483l-1.242-.437.276-1.863h4.025l.184 1.196.092.046c1.15-.851 2.484-1.472 4.048-1.472 2.507 0 3.473 1.38 3.473 3.91v5.865c0 .368.023.414.368.46l1.15.161V98h-4.99v-7.429zm13.593 6.187l-.115-.023c-.874.851-2.024 1.541-3.864 1.541-2.898 0-3.358-1.978-3.358-3.404 0-2.3 1.403-3.335 4.3-3.542l2.646-.184v-1.265c0-1.081-.115-1.817-1.541-1.817-1.104 0-1.68.161-1.68 1.541l-3.242-.276c0-3.105 2.829-3.542 4.945-3.542 3.496 0 4.899.943 4.899 4.163v5.589c0 .368.023.414.368.46l1.104.184V98h-4.232l-.23-1.242zm-1.955-3.588c-1.357.092-1.84.437-1.84 1.357 0 .92.552 1.265 1.31 1.265.783 0 1.565-.437 2.094-.828v-1.909l-1.564.115zm23.064 3.933c-1.426.69-2.99 1.173-4.715 1.173-4.44 0-5.957-2.76-5.957-6.348 0-4.163 2.553-6.141 5.704-6.141 3.036 0 5.06 1.587 5.06 5.566 0 .276-.023 1.081-.046 1.541h-7.038c.115 1.633.828 2.714 2.714 2.714.897 0 1.863-.207 3.427-.782l.85 2.277zm-3.312-6.394c-.023-1.932-.782-2.438-1.725-2.438-.99 0-1.794.552-1.932 2.438h3.657zm11.742-2.277c-.046-.207-.069-.276-.23-.322-.299-.092-.851-.184-1.472-.184-1.15 0-1.794.437-1.794 1.173 0 .943 1.265 1.15 2.668 1.472 1.817.414 3.864 1.058 3.864 3.749 0 2.806-2.277 3.956-5.198 3.956-2.093 0-4.14-.552-4.554-.828v-3.335l2.461.184.23 1.311c.046.207.069.276.276.345.276.092.897.23 1.771.23 1.219 0 1.909-.345 1.909-1.196 0-.92-.92-1.196-2.093-1.403-1.932-.345-4.462-.759-4.462-3.772 0-2.852 2.438-4.025 5.083-4.025 1.817 0 3.588.414 4.232.667v3.335l-2.461-.161-.23-1.196zm13.393 8.924c-.989.483-2.438.92-3.749.92-2.737 0-3.772-1.104-3.772-3.703v-6.026c0-.138 0-.23-.184-.23h-1.61V86.27c2.024-.23 2.829-1.242 3.082-3.749h2.185v3.266c0 .161 0 .23.184.23h3.243v2.3h-3.427v5.497c0 1.357.322 1.886 1.564 1.886.644 0 1.311-.161 1.863-.368l.621 2.024zm8.508-.598l-.115-.023c-.874.851-2.024 1.541-3.864 1.541-2.898 0-3.358-1.978-3.358-3.404 0-2.3 1.403-3.335 4.3-3.542l2.646-.184v-1.265c0-1.081-.115-1.817-1.541-1.817-1.104 0-1.68.161-1.68 1.541l-3.242-.276c0-3.105 2.829-3.542 4.945-3.542 3.496 0 4.899.943 4.899 4.163v5.589c0 .368.023.414.368.46l1.104.184V98h-4.232l-.23-1.242zm-1.955-3.588c-1.357.092-1.84.437-1.84 1.357 0 .92.552 1.265 1.31 1.265.783 0 1.565-.437 2.094-.828v-1.909l-1.564.115zm7.512 2.99l1.288-.138c.322-.046.368-.138.368-.483v-6.992c0-.138 0-.23-.184-.23h-1.54v-2.3h1.724v-1.265c0-3.105 1.748-4.393 4.922-4.393 2.139 0 4.117.529 4.117 3.312l-3.22.391c.023-1.173-.299-1.449-1.058-1.449-1.15 0-1.288.621-1.288 1.725v1.449c0 .161 0 .23.184.23h3.634v2.3h-3.818v7.153c0 .368.07.437.414.46l2.806.253V98h-8.349v-1.84zm17.049.598l-.115-.023c-.874.851-2.024 1.541-3.864 1.541-2.898 0-3.358-1.978-3.358-3.404 0-2.3 1.403-3.335 4.301-3.542l2.645-.184v-1.265c0-1.081-.115-1.817-1.541-1.817-1.104 0-1.679.161-1.679 1.541l-3.243-.276c0-3.105 2.829-3.542 4.945-3.542 3.496 0 4.899.943 4.899 4.163v5.589c0 .368.023.414.368.46l1.104.184V98h-4.232l-.23-1.242zm-1.955-3.588c-1.357.092-1.84.437-1.84 1.357 0 .92.552 1.265 1.311 1.265.782 0 1.564-.437 2.093-.828v-1.909l-1.564.115zm11.975 3.312c0 1.173-.644 1.794-1.955 1.794-1.334 0-1.978-.598-1.978-1.794 0-1.173.644-1.794 1.978-1.794 1.288 0 1.955.621 1.955 1.794z" fill="#2B3D51"/></svg>