<svg width="109" height="127" viewBox="0 0 109 127" fill="none" xmlns="http://www.w3.org/2000/svg"><path d="M16.934 16.206l1.886-.207-.828-2.392h-5.704l-.805 2.392 1.817.207V18H6.883v-1.794l1.012-.253c.276-.069.483-.161.575-.437l5.037-14.168h4.07l5.015 14.214c.092.276.276.322.552.391l1.058.253V18h-7.268v-1.794zM15.117 4.867L13 11.123h4.3l-2.046-6.256h-.138zm9.954 16.169l.92-.138c.322-.046.414-.138.414-.483V8.8c0-.253-.046-.391-.3-.483l-1.218-.437.253-1.863h4.048l.207 1.173.115.046c1.104-.897 2.599-1.449 3.91-1.449 2.576 0 4.416 1.61 4.416 5.888 0 2.76-.943 6.601-4.738 6.601-1.196 0-2.277-.391-3.243-1.15v3.266c0 .368.023.437.368.46l2.346.207v1.817H25.07v-1.84zm4.784-6.325c.506.437 1.31.874 2.162.874 1.54 0 2.185-1.472 2.185-3.726 0-2.369-.805-3.335-1.955-3.335-.966 0-1.886.483-2.392.828v5.359zm9.62 1.426l1.034-.138c.322-.046.368-.115.368-.46V8.8c0-.253-.069-.414-.299-.483l-1.242-.437.253-1.863h4.048l.276 1.84h.138c.76-1.173 1.771-2.07 3.243-2.07.53 0 1.587.092 2.001.207v4.186l-2.76-.092-.23-1.219c-.046-.207-.115-.253-.299-.253-.598 0-1.31.506-1.656.805v6.095c0 .368.023.437.368.46l2.277.184V18h-7.52v-1.863zm21.683.966c-1.426.69-2.99 1.173-4.715 1.173-4.439 0-5.957-2.76-5.957-6.348 0-4.163 2.553-6.141 5.704-6.141 3.036 0 5.06 1.587 5.06 5.566 0 .276-.023 1.081-.046 1.541h-7.038c.115 1.633.828 2.714 2.714 2.714.897 0 1.863-.207 3.427-.782l.851 2.277zm-3.312-6.394c-.023-1.932-.782-2.438-1.725-2.438-.989 0-1.794.552-1.932 2.438h3.657zm13.418-.138c0-1.104-.069-2.024-1.219-2.024-.851 0-1.909.483-2.392.851v6.164c0 .368.023.414.368.46l1.104.161V18h-6.348v-1.84l1.035-.138c.322-.046.368-.115.368-.46V8.8c0-.253-.069-.414-.299-.483l-1.242-.437.276-1.863h4.025l.184 1.196.092.046c1.15-.851 2.484-1.472 4.048-1.472 2.507 0 3.473 1.38 3.473 3.91v5.865c0 .368.023.414.368.46l1.15.161V18h-4.991v-7.429zm14.698 6.141l-.162-.023c-.965.943-2.093 1.587-3.772 1.587-2.714 0-4.462-1.725-4.462-6.118 0-4.623 2.323-6.371 4.876-6.371 1.335 0 2.37.46 3.244 1.104V3.395c0-.23-.093-.391-.3-.46l-1.264-.437.252-1.863h4.624v14.95c0 .345.022.391.367.437l1.105.161V18h-4.278l-.23-1.288zm-.415-7.567c-.575-.391-1.31-.69-1.977-.69-1.702 0-2.37 1.587-2.37 3.634 0 2.231.644 3.473 2.093 3.473.782 0 1.633-.46 2.254-.989V9.145zm16.618 7.958c-1.426.69-2.99 1.173-4.715 1.173-4.439 0-5.957-2.76-5.957-6.348 0-4.163 2.553-6.141 5.704-6.141 3.036 0 5.06 1.587 5.06 5.566 0 .276-.023 1.081-.046 1.541h-7.038c.115 1.633.828 2.714 2.714 2.714.897 0 1.863-.207 3.427-.782l.851 2.277zm-3.312-6.394c-.023-1.932-.782-2.438-1.725-2.438-.989 0-1.794.552-1.932 2.438h3.657zM13.005 35.432c-.046-.207-.07-.276-.23-.322-.3-.092-.851-.184-1.472-.184-1.15 0-1.794.437-1.794 1.173 0 .943 1.265 1.15 2.668 1.472 1.817.414 3.864 1.058 3.864 3.749 0 2.806-2.277 3.956-5.198 3.956-2.093 0-4.14-.552-4.554-.828v-3.335l2.46.184.23 1.311c.047.207.07.276.277.345.276.092.897.23 1.77.23 1.22 0 1.91-.345 1.91-1.196 0-.92-.92-1.196-2.093-1.403-1.932-.345-4.462-.759-4.462-3.772 0-2.852 2.438-4.025 5.083-4.025 1.817 0 3.588.414 4.232.667v3.335l-2.461-.161-.23-1.196zm10.426 9.844c-4.21 0-5.911-2.576-5.911-6.187 0-3.818 2-6.302 6.21-6.302 4.255 0 5.91 2.53 5.91 6.049 0 3.91-1.977 6.44-6.21 6.44zm.16-2.415c1.496 0 2.416-1.035 2.416-3.91 0-2.714-.828-3.68-2.323-3.68-1.518 0-2.53.943-2.53 3.703 0 2.783.897 3.887 2.438 3.887zM31.695 45c.161-1.035.345-2.231.345-3.358V30.418c0-.253-.069-.414-.299-.483l-1.265-.437.253-1.863h4.738v6.371l.092.023c.99-.805 2.07-1.242 3.473-1.242 2.484 0 4.44 1.61 4.44 5.888 0 4.738-2.002 6.601-4.83 6.601-1.519 0-2.669-.644-3.382-1.449l-.115.023-.16 1.15h-3.29zm3.795-3.312c.53.483 1.311.897 2.116.897 1.518 0 2.231-1.426 2.231-3.726 0-1.794-.575-3.358-2.116-3.358-.828 0-1.679.437-2.23.805v5.382zm9.623 1.449l1.035-.138c.322-.046.368-.115.368-.46V35.8c0-.253-.07-.414-.3-.483l-1.241-.437.253-1.863h4.048l.276 1.84h.138c.759-1.173 1.77-2.07 3.243-2.07.529 0 1.587.092 2 .207v4.186l-2.76-.092-.23-1.219c-.045-.207-.114-.253-.298-.253-.598 0-1.311.506-1.656.805v6.095c0 .368.023.437.368.46l2.277.184V45h-7.521v-1.863zm21.684.966c-1.426.69-2.99 1.173-4.715 1.173-4.44 0-5.957-2.76-5.957-6.348 0-4.163 2.553-6.141 5.704-6.141 3.036 0 5.06 1.587 5.06 5.566 0 .276-.023 1.081-.046 1.541h-7.038c.115 1.633.828 2.714 2.714 2.714.897 0 1.863-.207 3.427-.782l.85 2.277zm-3.312-6.394c-.023-1.932-.782-2.438-1.725-2.438-.99 0-1.794.552-1.932 2.438h3.657zm9.695 5.474l1.15-.161c.322-.046.368-.115.368-.46V30.418c0-.253-.069-.414-.299-.483l-1.265-.437.253-1.863h4.784v14.927c0 .368.023.414.368.46l1.127.161V45H73.18v-1.817zm15.12.575l-.115-.023c-.874.851-2.024 1.541-3.864 1.541-2.898 0-3.358-1.978-3.358-3.404 0-2.3 1.403-3.335 4.301-3.542l2.645-.184v-1.265c0-1.081-.115-1.817-1.54-1.817-1.105 0-1.68.161-1.68 1.541l-3.243-.276c0-3.105 2.83-3.542 4.945-3.542 3.496 0 4.9.943 4.9 4.163v5.589c0 .368.022.414.367.46l1.104.184V45H88.53l-.23-1.242zm-1.955-3.588c-1.357.092-1.84.437-1.84 1.357 0 .92.552 1.265 1.311 1.265.782 0 1.564-.437 2.093-.828v-1.909l-1.564.115zm14.301-4.738c-.046-.207-.069-.276-.23-.322-.299-.092-.85-.184-1.472-.184-1.15 0-1.794.437-1.794 1.173 0 .943 1.265 1.15 2.668 1.472 1.817.414 3.864 1.058 3.864 3.749 0 2.806-2.277 3.956-5.198 3.956-2.093 0-4.14-.552-4.554-.828v-3.335l2.461.184.23 1.311c.046.207.07.276.276.345.276.092.897.23 1.771.23 1.22 0 1.909-.345 1.909-1.196 0-.92-.92-1.196-2.093-1.403-1.932-.345-4.462-.759-4.462-3.772 0-2.852 2.438-4.025 5.083-4.025 1.817 0 3.588.414 4.232.667v3.335l-2.461-.161-.23-1.196zM26.058 71.103c-1.426.69-2.99 1.173-4.715 1.173-4.44 0-5.957-2.76-5.957-6.348 0-4.163 2.553-6.141 5.704-6.141 3.036 0 5.06 1.587 5.06 5.566 0 .276-.023 1.081-.046 1.541h-7.038c.115 1.633.828 2.714 2.714 2.714.897 0 1.863-.207 3.427-.782l.85 2.277zm-3.312-6.394c-.023-1.932-.782-2.438-1.725-2.438-.99 0-1.794.552-1.932 2.438h3.657zm11.742-2.277c-.046-.207-.069-.276-.23-.322-.299-.092-.851-.184-1.472-.184-1.15 0-1.794.437-1.794 1.173 0 .943 1.265 1.15 2.668 1.472 1.817.414 3.864 1.058 3.864 3.749 0 2.806-2.277 3.956-5.198 3.956-2.093 0-4.14-.552-4.554-.828v-3.335l2.461.184.23 1.311c.046.207.069.276.276.345.276.092.897.23 1.771.23 1.219 0 1.909-.345 1.909-1.196 0-.92-.92-1.196-2.093-1.403-1.932-.345-4.462-.759-4.462-3.772 0-2.852 2.438-4.025 5.083-4.025 1.817 0 3.588.414 4.232.667v3.335l-2.461-.161-.23-1.196zm13.393 8.924c-.989.483-2.438.92-3.749.92-2.737 0-3.772-1.104-3.772-3.703v-6.026c0-.138 0-.23-.184-.23h-1.61V60.27c2.024-.23 2.829-1.242 3.082-3.749h2.185v3.266c0 .161 0 .23.184.23h3.243v2.3h-3.427v5.497c0 1.357.322 1.886 1.564 1.886.644 0 1.311-.161 1.863-.368l.621 2.024zm8.508-.598l-.115-.023c-.874.851-2.024 1.541-3.864 1.541-2.898 0-3.358-1.978-3.358-3.404 0-2.3 1.403-3.335 4.3-3.542l2.646-.184v-1.265c0-1.081-.115-1.817-1.541-1.817-1.104 0-1.68.161-1.68 1.541l-3.242-.276c0-3.105 2.829-3.542 4.945-3.542 3.496 0 4.899.943 4.899 4.163v5.589c0 .368.023.414.368.46l1.104.184V72h-4.232l-.23-1.242zm-1.955-3.588c-1.357.092-1.84.437-1.84 1.357 0 .92.552 1.265 1.31 1.265.783 0 1.565-.437 2.094-.828v-1.909l-1.564.115zm7.512 2.99l1.288-.138c.322-.046.368-.138.368-.483v-6.992c0-.138 0-.23-.184-.23h-1.54v-2.3h1.724v-1.265c0-3.105 1.748-4.393 4.922-4.393 2.14 0 4.117.529 4.117 3.312l-3.22.391c.023-1.173-.299-1.449-1.058-1.449-1.15 0-1.288.621-1.288 1.725v1.449c0 .161 0 .23.184.23h3.634v2.3h-3.818v7.153c0 .368.07.437.414.46l2.806.253V72h-8.349v-1.84zm17.05.598l-.116-.023c-.874.851-2.024 1.541-3.864 1.541-2.898 0-3.358-1.978-3.358-3.404 0-2.3 1.403-3.335 4.301-3.542l2.645-.184v-1.265c0-1.081-.115-1.817-1.54-1.817-1.105 0-1.68.161-1.68 1.541l-3.243-.276c0-3.105 2.83-3.542 4.945-3.542 3.496 0 4.9.943 4.9 4.163v5.589c0 .368.022.414.367.46l1.104.184V72h-4.232l-.23-1.242zM77.04 67.17c-1.357.092-1.84.437-1.84 1.357 0 .92.552 1.265 1.311 1.265.782 0 1.564-.437 2.093-.828v-1.909l-1.564.115zm14.301-4.738c-.046-.207-.069-.276-.23-.322-.299-.092-.85-.184-1.472-.184-1.15 0-1.794.437-1.794 1.173 0 .943 1.265 1.15 2.668 1.472 1.817.414 3.864 1.058 3.864 3.749 0 2.806-2.277 3.956-5.198 3.956-2.093 0-4.14-.552-4.554-.828v-3.335l2.461.184.23 1.311c.046.207.07.276.276.345.276.092.897.23 1.771.23 1.22 0 1.91-.345 1.91-1.196 0-.92-.92-1.196-2.094-1.403-1.932-.345-4.462-.759-4.462-3.772 0-2.852 2.438-4.025 5.083-4.025 1.817 0 3.588.414 4.232.667v3.335l-2.46-.161-.23-1.196zM29.288 98.149c-1.058.644-2.69 1.127-4.37 1.127-4.163 0-6.026-2.599-6.026-6.095 0-4.301 2.622-6.394 6.302-6.394 1.794 0 3.381.506 4.094.966v3.611l-2.46-.115-.277-1.518c-.023-.161-.069-.299-.276-.368-.276-.092-.713-.161-1.173-.161-1.38 0-2.553.943-2.553 3.634 0 2.99 1.334 3.841 2.967 3.841 1.15 0 2.185-.368 2.875-.667l.897 2.139zm7.178 1.127c-4.209 0-5.911-2.576-5.911-6.187 0-3.818 2.001-6.302 6.21-6.302 4.255 0 5.911 2.53 5.911 6.049 0 3.91-1.978 6.44-6.21 6.44zm.161-2.415c1.495 0 2.415-1.035 2.415-3.91 0-2.714-.828-3.68-2.323-3.68-1.518 0-2.53.943-2.53 3.703 0 2.783.897 3.887 2.438 3.887zm15.919-5.29c0-1.104-.07-2.024-1.22-2.024-.85 0-1.908.483-2.391.851v6.164c0 .368.023.414.368.46l1.104.161V99h-6.348v-1.84l1.035-.138c.322-.046.368-.115.368-.46V89.8c0-.253-.07-.414-.3-.483l-1.241-.437.276-1.863h4.025l.184 1.196.092.046c1.15-.851 2.484-1.472 4.048-1.472 2.507 0 3.473 1.38 3.473 3.91v5.865c0 .368.023.414.368.46l1.15.161V99h-4.991v-7.429zm14.884 6.785c-.989.483-2.438.92-3.749.92-2.737 0-3.772-1.104-3.772-3.703v-6.026c0-.138 0-.23-.184-.23h-1.61V87.27c2.024-.23 2.83-1.242 3.082-3.749h2.185v3.266c0 .161 0 .23.184.23h3.243v2.3h-3.427v5.497c0 1.357.322 1.886 1.564 1.886.644 0 1.311-.161 1.863-.368l.621 2.024zm1.347-1.219l1.035-.138c.322-.046.368-.115.368-.46V89.8c0-.253-.07-.414-.3-.483l-1.241-.437.253-1.863h4.048l.276 1.84h.138c.759-1.173 1.77-2.07 3.243-2.07.529 0 1.587.092 2 .207v4.186l-2.76-.092-.23-1.219c-.045-.207-.114-.253-.298-.253-.598 0-1.311.506-1.656.805v6.095c0 .368.023.437.368.46l2.277.184V99h-7.521v-1.863zm18.015.621l-.115-.023c-.874.851-2.024 1.541-3.864 1.541-2.898 0-3.358-1.978-3.358-3.404 0-2.3 1.403-3.335 4.3-3.542l2.646-.184v-1.265c0-1.081-.115-1.817-1.541-1.817-1.104 0-1.68.161-1.68 1.541l-3.242-.276c0-3.105 2.829-3.542 4.945-3.542 3.496 0 4.899.943 4.899 4.163v5.589c0 .368.023.414.368.46l1.104.184V99h-4.232l-.23-1.242zm-1.955-3.588c-1.357.092-1.84.437-1.84 1.357 0 .92.552 1.265 1.31 1.265.783 0 1.565-.437 2.094-.828v-1.909l-1.564.115zm-71.224 30.036l1.886-.161c.345-.023.368-.138.368-.46v-8.74h-.092l-3.289 7.843H8.737l-3.243-7.866H5.38v8.74c0 .368.046.437.368.46l1.978.184V126H.733v-1.794l1.45-.161c.321-.046.367-.115.367-.46v-11.799c0-.345-.046-.414-.368-.46l-1.449-.161v-1.817h6.164l4.002 10.419h.092l4.21-10.419h5.98v1.794l-1.542.184c-.345.046-.368.092-.368.437v11.822c0 .299.07.391.368.437l1.541.184V126h-7.567v-1.794zm19.669.897c-1.426.69-2.99 1.173-4.715 1.173-4.44 0-5.957-2.76-5.957-6.348 0-4.163 2.553-6.141 5.704-6.141 3.036 0 5.06 1.587 5.06 5.566 0 .276-.023 1.081-.046 1.541H26.29c.115 1.633.828 2.714 2.714 2.714.897 0 1.863-.207 3.427-.782l.85 2.277zm-3.312-6.394c-.023-1.932-.782-2.438-1.725-2.438-.99 0-1.794.552-1.932 2.438h3.657zm13.465 6.003l-.16-.023c-.967.943-2.094 1.587-3.773 1.587-2.714 0-4.462-1.725-4.462-6.118 0-4.623 2.323-6.371 4.876-6.371 1.334 0 2.37.46 3.243 1.104v-3.496c0-.23-.092-.391-.299-.46l-1.265-.437.253-1.863h4.623v14.95c0 .345.023.391.368.437l1.104.161V126h-4.278l-.23-1.288zm-.414-7.567c-.575-.391-1.31-.69-1.978-.69-1.702 0-2.369 1.587-2.369 3.634 0 2.231.644 3.473 2.093 3.473.782 0 1.633-.46 2.254-.989v-5.428zm11.025-7.038c0 1.311-.76 2.07-2.093 2.07-1.311 0-2.07-.759-2.07-2.07s.759-2.024 2.07-2.024c1.334 0 2.093.713 2.093 2.024zm-5.06 14.076l1.173-.161c.322-.046.368-.115.368-.46V116.8c0-.253-.07-.414-.3-.483l-1.241-.437.253-1.863h4.76v9.545c0 .368.024.414.369.46l1.173.161V126h-6.555v-1.817zm18.064.966c-1.058.644-2.69 1.127-4.37 1.127-4.163 0-6.026-2.599-6.026-6.095 0-4.301 2.622-6.394 6.302-6.394 1.794 0 3.381.506 4.094.966v3.611l-2.46-.115-.277-1.518c-.023-.161-.069-.299-.276-.368-.276-.092-.713-.161-1.173-.161-1.38 0-2.553.943-2.553 3.634 0 2.99 1.334 3.841 2.967 3.841 1.15 0 2.185-.368 2.875-.667l.897 2.139zm8.72-.391l-.116-.023c-.874.851-2.024 1.541-3.864 1.541-2.898 0-3.358-1.978-3.358-3.404 0-2.3 1.403-3.335 4.301-3.542l2.645-.184v-1.265c0-1.081-.115-1.817-1.54-1.817-1.105 0-1.68.161-1.68 1.541l-3.243-.276c0-3.105 2.83-3.542 4.945-3.542 3.496 0 4.9.943 4.9 4.163v5.589c0 .368.022.414.367.46l1.104.184V126H76l-.23-1.242zm-1.956-3.588c-1.357.092-1.84.437-1.84 1.357 0 .92.552 1.265 1.311 1.265.782 0 1.564-.437 2.093-.828v-1.909l-1.564.115zm7.49 2.967l1.035-.138c.322-.046.368-.115.368-.46V116.8c0-.253-.069-.414-.299-.483l-1.242-.437.253-1.863h4.048l.276 1.84h.138c.76-1.173 1.771-2.07 3.243-2.07.53 0 1.587.092 2.001.207v4.186l-2.76-.092-.23-1.219c-.046-.207-.115-.253-.299-.253-.598 0-1.31.506-1.656.805v6.095c0 .368.023.437.368.46l2.277.184V126h-7.52v-1.863zm21.684.966c-1.426.69-2.99 1.173-4.715 1.173-4.44 0-5.957-2.76-5.957-6.348 0-4.163 2.553-6.141 5.704-6.141 3.036 0 5.06 1.587 5.06 5.566 0 .276-.023 1.081-.046 1.541h-7.038c.115 1.633.828 2.714 2.714 2.714.897 0 1.863-.207 3.427-.782l.851 2.277zm-3.312-6.394c-.023-1.932-.782-2.438-1.725-2.438-.99 0-1.794.552-1.932 2.438h3.657zm9.304 5.773c0 1.173-.644 1.794-1.955 1.794-1.334 0-1.978-.598-1.978-1.794 0-1.173.644-1.794 1.978-1.794 1.288 0 1.955.621 1.955 1.794z" fill="#fff"/></svg>