<svg width="135" height="100" viewBox="0 0 135 100" fill="none" xmlns="http://www.w3.org/2000/svg"><path d="M5.083 16.482c0 1.173-.644 1.794-1.955 1.794-1.334 0-1.978-.598-1.978-1.794 0-1.173.644-1.794 1.978-1.794 1.288 0 1.955.621 1.955 1.794zm6.474 0c0 1.173-.644 1.794-1.955 1.794-1.334 0-1.978-.598-1.978-1.794 0-1.173.644-1.794 1.978-1.794 1.288 0 1.955.621 1.955 1.794zm6.474 0c0 1.173-.644 1.794-1.955 1.794-1.334 0-1.978-.598-1.978-1.794 0-1.173.644-1.794 1.978-1.794 1.288 0 1.955.621 1.955 1.794zm14.367.276l-.115-.023c-.874.851-2.024 1.541-3.864 1.541-2.898 0-3.358-1.978-3.358-3.404 0-2.3 1.403-3.335 4.3-3.542l2.646-.184V9.881c0-1.081-.115-1.817-1.541-1.817-1.104 0-1.68.161-1.68 1.541l-3.242-.276c0-3.105 2.829-3.542 4.945-3.542 3.496 0 4.899.943 4.899 4.163v5.589c0 .368.023.414.368.46l1.104.184V18h-4.232l-.23-1.242zm-1.955-3.588c-1.357.092-1.84.437-1.84 1.357 0 .92.552 1.265 1.31 1.265.783 0 1.565-.437 2.094-.828v-1.909l-1.564.115zm22.788 3.979c-1.058.644-2.691 1.127-4.37 1.127-4.163 0-6.026-2.599-6.026-6.095 0-4.301 2.622-6.394 6.302-6.394 1.794 0 3.381.506 4.094.966v3.611l-2.461-.115-.276-1.518c-.023-.161-.069-.299-.276-.368-.276-.092-.713-.161-1.173-.161-1.38 0-2.553.943-2.553 3.634 0 2.99 1.334 3.841 2.967 3.841 1.15 0 2.185-.368 2.875-.667l.897 2.139zm8.72-.391l-.116-.023c-.874.851-2.024 1.541-3.864 1.541-2.898 0-3.358-1.978-3.358-3.404 0-2.3 1.403-3.335 4.301-3.542l2.645-.184V9.881c0-1.081-.115-1.817-1.54-1.817-1.105 0-1.68.161-1.68 1.541l-3.243-.276c0-3.105 2.83-3.542 4.945-3.542 3.496 0 4.9.943 4.9 4.163v5.589c0 .368.022.414.367.46l1.104.184V18H62.18l-.23-1.242zm-1.956-3.588c-1.357.092-1.84.437-1.84 1.357 0 .92.552 1.265 1.311 1.265.782 0 1.564-.437 2.093-.828v-1.909l-1.564.115zm22.049-2.599c0-.897-.092-1.978-1.288-1.978-.644 0-1.265.23-1.863.621.046.368.069.736.069 1.127v5.221c0 .391.023.437.368.483l.92.138V18h-4.761v-7.544c0-.851-.07-1.863-1.22-1.863-.69 0-1.448.345-1.908.736v6.233c0 .368.023.414.368.46l1.127.161V18h-6.371v-1.817l1.035-.161c.322-.046.368-.115.368-.46V8.8c0-.253-.07-.414-.3-.483l-1.241-.437.253-1.863h4.048l.184 1.196.115.023c1.035-.851 2.208-1.449 3.68-1.449 1.127 0 2.162.299 2.806 1.38.759-.598 2.093-1.38 3.703-1.38 2.46 0 3.38 1.219 3.38 3.887v5.888c0 .368.024.437.369.483l1.15.138V18h-4.991v-7.429zM88.982 18c.161-1.035.345-2.231.345-3.358V3.418c0-.253-.069-.414-.299-.483l-1.265-.437.253-1.863h4.738v6.371l.092.023c.99-.805 2.07-1.242 3.473-1.242 2.484 0 4.439 1.61 4.439 5.888 0 4.738-2 6.601-4.83 6.601-1.518 0-2.668-.644-3.38-1.449l-.116.023-.16 1.15h-3.29zm3.795-3.312c.53.483 1.311.897 2.116.897 1.518 0 2.231-1.426 2.231-3.726 0-1.794-.575-3.358-2.116-3.358-.828 0-1.679.437-2.23.805v5.382zM107.21 2.107c0 1.311-.759 2.07-2.093 2.07-1.311 0-2.07-.759-2.07-2.07s.759-2.024 2.07-2.024c1.334 0 2.093.713 2.093 2.024zm-5.06 14.076l1.173-.161c.322-.046.368-.115.368-.46V8.8c0-.253-.069-.414-.299-.483l-1.242-.437.253-1.863h4.761v9.545c0 .368.023.414.368.46l1.173.161V18h-6.555v-1.817zm13.579 2.093c-4.209 0-5.911-2.576-5.911-6.187 0-3.818 2.001-6.302 6.21-6.302 4.255 0 5.911 2.53 5.911 6.049 0 3.91-1.978 6.44-6.21 6.44zm.161-2.415c1.495 0 2.415-1.035 2.415-3.91 0-2.714-.828-3.68-2.323-3.68-1.518 0-2.53.943-2.53 3.703 0 2.783.897 3.887 2.438 3.887zM9.2 43.712l-.161-.023c-.966.943-2.093 1.587-3.772 1.587-2.714 0-4.462-1.725-4.462-6.118 0-4.623 2.323-6.371 4.876-6.371 1.334 0 2.369.46 3.243 1.104v-3.496c0-.23-.092-.391-.299-.46l-1.265-.437.253-1.863h4.623v14.95c0 .345.023.391.368.437l1.104.161V45H9.43l-.23-1.288zm-.414-7.567c-.575-.391-1.311-.69-1.978-.69-1.702 0-2.369 1.587-2.369 3.634 0 2.231.644 3.473 2.093 3.473.782 0 1.633-.46 2.254-.989v-5.428zm16.618 7.958c-1.426.69-2.99 1.173-4.715 1.173-4.44 0-5.957-2.76-5.957-6.348 0-4.163 2.553-6.141 5.704-6.141 3.036 0 5.06 1.587 5.06 5.566 0 .276-.023 1.081-.046 1.541h-7.038c.115 1.633.828 2.714 2.714 2.714.897 0 1.863-.207 3.427-.782l.85 2.277zm-3.312-6.394c-.023-1.932-.782-2.438-1.725-2.438-.99 0-1.794.552-1.932 2.438h3.657zm18.711 6.647c-.989.483-2.438.92-3.749.92-2.737 0-3.772-1.104-3.772-3.703v-6.026c0-.138 0-.23-.184-.23h-1.61V33.27c2.024-.23 2.83-1.242 3.082-3.749h2.185v3.266c0 .161 0 .23.184.23h3.243v2.3h-3.427v5.497c0 1.357.322 1.886 1.564 1.886.644 0 1.311-.161 1.863-.368l.621 2.024zm9.686-.598l-.115-.023c-.943.713-2.14 1.541-4.094 1.541-2.415 0-3.335-1.38-3.335-4.048v-5.612c0-.368-.023-.414-.368-.483l-1.104-.23.23-1.886h4.715v7.613c0 1.403.23 1.932 1.219 1.932 1.012 0 1.84-.575 2.369-1.058v-5.911c0-.368-.023-.391-.368-.46l-.99-.23.254-1.886h4.577v9.545c0 .299.046.391.322.437l1.15.161V45h-4.278l-.184-1.242zM9.085 64.571c0-1.104-.069-2.024-1.219-2.024-.851 0-1.909.483-2.392.851v6.164c0 .368.023.414.368.46l1.104.161V72H.598v-1.84l1.035-.138c.322-.046.368-.115.368-.46V62.8c0-.253-.069-.414-.299-.483L.46 61.88l.276-1.863h4.025l.184 1.196.092.046c1.15-.851 2.484-1.472 4.048-1.472 2.507 0 3.473 1.38 3.473 3.91v5.865c0 .368.023.414.368.46l1.15.161V72H9.085v-7.429zm14.749 6.187l-.115-.023c-.943.713-2.14 1.541-4.094 1.541-2.415 0-3.335-1.38-3.335-4.048v-5.612c0-.368-.023-.414-.368-.483l-1.104-.23.23-1.886h4.715v7.613c0 1.403.23 1.932 1.219 1.932 1.012 0 1.84-.575 2.369-1.058v-5.911c0-.368-.023-.391-.368-.46l-.99-.23.254-1.886h4.577v9.545c0 .299.046.391.322.437l1.15.161V72h-4.278l-.184-1.242zM19.05 57.947l3.519-4.002 1.886 1.794-4.117 3.358-1.288-1.15zm25.025 6.624c0-.897-.092-1.978-1.288-1.978-.644 0-1.265.23-1.863.621.046.368.069.736.069 1.127v5.221c0 .391.023.437.368.483l.92.138V72H37.52v-7.544c0-.851-.069-1.863-1.219-1.863-.69 0-1.449.345-1.909.736v6.233c0 .368.023.414.368.46l1.127.161V72h-6.371v-1.817l1.035-.161c.322-.046.368-.115.368-.46V62.8c0-.253-.069-.414-.299-.483l-1.242-.437.253-1.863h4.048l.184 1.196.115.023c1.035-.851 2.208-1.449 3.68-1.449 1.127 0 2.162.299 2.806 1.38.759-.598 2.093-1.38 3.703-1.38 2.461 0 3.381 1.219 3.381 3.887v5.888c0 .368.023.437.368.483l1.15.138V72h-4.991v-7.429zm16.805 6.532c-1.425.69-2.99 1.173-4.715 1.173-4.438 0-5.956-2.76-5.956-6.348 0-4.163 2.552-6.141 5.703-6.141 3.037 0 5.06 1.587 5.06 5.566 0 .276-.023 1.081-.046 1.541h-7.038c.116 1.633.829 2.714 2.715 2.714.896 0 1.862-.207 3.426-.782l.851 2.277zm-3.312-6.394c-.023-1.932-.782-2.438-1.724-2.438-.99 0-1.794.552-1.933 2.438h3.657zm4.931 5.428l1.035-.138c.322-.046.368-.115.368-.46V62.8c0-.253-.069-.414-.299-.483l-1.242-.437.253-1.863h4.048l.276 1.84h.138c.76-1.173 1.771-2.07 3.243-2.07.53 0 1.587.092 2.001.207v4.186l-2.76-.092-.23-1.219c-.046-.207-.115-.253-.299-.253-.598 0-1.31.506-1.656.805v6.095c0 .368.023.437.368.46l2.277.184V72H62.5v-1.863zm16.923 2.139c-4.209 0-5.91-2.576-5.91-6.187 0-3.818 2-6.302 6.21-6.302 4.254 0 5.91 2.53 5.91 6.049 0 3.91-1.978 6.44-6.21 6.44zm.161-2.415c1.495 0 2.415-1.035 2.415-3.91 0-2.714-.828-3.68-2.323-3.68-1.518 0-2.53.943-2.53 3.703 0 2.783.897 3.887 2.438 3.887zM8.8 97.768l-.154-.022c-.924.902-2.002 1.518-3.608 1.518-2.596 0-4.268-1.65-4.268-5.852 0-4.422 2.222-6.094 4.664-6.094 1.276 0 2.266.44 3.102 1.056V85.03c0-.22-.088-.374-.286-.44l-1.21-.418.242-1.782h4.422v14.3c0 .33.022.374.352.418l1.056.154V99H9.02l-.22-1.232zm-.396-7.238c-.55-.374-1.254-.66-1.892-.66-1.628 0-2.266 1.518-2.266 3.476 0 2.134.616 3.322 2.002 3.322.748 0 1.562-.44 2.156-.946V90.53zm15.895 7.612c-1.364.66-2.86 1.122-4.51 1.122-4.246 0-5.698-2.64-5.698-6.072 0-3.982 2.442-5.874 5.456-5.874 2.904 0 4.84 1.518 4.84 5.324 0 .264-.022 1.034-.044 1.474h-6.732c.11 1.562.792 2.596 2.596 2.596.858 0 1.782-.198 3.278-.748l.814 2.178zm-3.168-6.116c-.022-1.848-.748-2.332-1.65-2.332-.946 0-1.716.528-1.848 2.332h3.498zM43.1 97.284l1.804-.154c.33-.022.352-.132.352-.44v-8.36h-.088l-3.146 7.502h-3.586l-3.102-7.524h-.11v8.36c0 .352.044.418.352.44l1.892.176V99H30.78v-1.716l1.386-.154c.308-.044.352-.11.352-.44V85.404c0-.33-.044-.396-.352-.44l-1.386-.154v-1.738h5.896l3.828 9.966h.088l4.026-9.966h5.72v1.716l-1.474.176c-.33.044-.352.088-.352.418V96.69c0 .286.066.374.352.418l1.474.176V99H43.1v-1.716zm18.814.858c-1.364.66-2.86 1.122-4.51 1.122-4.246 0-5.698-2.64-5.698-6.072 0-3.982 2.442-5.874 5.456-5.874 2.904 0 4.84 1.518 4.84 5.324 0 .264-.023 1.034-.044 1.474h-6.733c.11 1.562.793 2.596 2.597 2.596.858 0 1.782-.198 3.278-.748l.814 2.178zm-3.168-6.116c-.023-1.848-.748-2.332-1.65-2.332-.947 0-1.716.528-1.849 2.332h3.498zm12.88 5.742l-.154-.022c-.924.902-2.002 1.518-3.608 1.518-2.596 0-4.268-1.65-4.268-5.852 0-4.422 2.222-6.094 4.664-6.094 1.276 0 2.266.44 3.102 1.056V85.03c0-.22-.088-.374-.286-.44l-1.21-.418.242-1.782h4.422v14.3c0 .33.022.374.352.418l1.056.154V99h-4.092l-.22-1.232zm-.396-7.238c-.55-.374-1.254-.66-1.892-.66-1.628 0-2.266 1.518-2.266 3.476 0 2.134.616 3.322 2.002 3.322.748 0 1.562-.44 2.156-.946V90.53zm10.545-6.732c0 1.254-.726 1.98-2.002 1.98-1.254 0-1.98-.726-1.98-1.98s.726-1.936 1.98-1.936c1.276 0 2.002.682 2.002 1.936zm-4.84 13.464l1.122-.154c.308-.044.352-.11.352-.44V90.2c0-.242-.066-.396-.286-.462l-1.188-.418.242-1.782h4.554v9.13c0 .352.022.396.352.44l1.122.154V99h-6.27v-1.738zm17.279.924c-1.012.616-2.574 1.078-4.18 1.078-3.982 0-5.764-2.486-5.764-5.83 0-4.114 2.508-6.116 6.028-6.116 1.716 0 3.234.484 3.916.924v3.454l-2.354-.11-.264-1.452c-.022-.154-.066-.286-.264-.352-.264-.088-.682-.154-1.122-.154-1.32 0-2.442.902-2.442 3.476 0 2.86 1.276 3.674 2.838 3.674 1.1 0 2.09-.352 2.75-.638l.858 2.046zm8.34-.374l-.11-.022c-.836.814-1.936 1.474-3.696 1.474-2.772 0-3.212-1.892-3.212-3.256 0-2.2 1.342-3.19 4.114-3.388l2.53-.176v-1.21c0-1.034-.11-1.738-1.474-1.738-1.056 0-1.606.154-1.606 1.474l-3.102-.264c0-2.97 2.706-3.388 4.73-3.388 3.344 0 4.686.902 4.686 3.982v5.346c0 .352.022.396.352.44l1.056.176V99h-4.048l-.22-1.188zm-1.87-3.432c-1.298.088-1.76.418-1.76 1.298 0 .88.528 1.21 1.254 1.21.748 0 1.496-.418 2.002-.792V94.27l-1.496.11zm7.164 2.838l.99-.132c.308-.044.352-.11.352-.44V90.2c0-.242-.066-.396-.286-.462l-1.188-.418.242-1.782h3.872l.264 1.76h.132c.726-1.122 1.694-1.98 3.102-1.98.506 0 1.518.088 1.914.198v4.004l-2.64-.088-.22-1.166c-.044-.198-.11-.242-.286-.242-.572 0-1.254.484-1.584.77v5.83c0 .352.022.418.352.44l2.178.176V99h-7.194v-1.782zm20.741.924c-1.364.66-2.86 1.122-4.51 1.122-4.246 0-5.698-2.64-5.698-6.072 0-3.982 2.442-5.874 5.456-5.874 2.904 0 4.84 1.518 4.84 5.324 0 .264-.022 1.034-.044 1.474H121.9c.11 1.562.792 2.596 2.596 2.596.858 0 1.782-.198 3.278-.748l.814 2.178zm-3.168-6.116c-.022-1.848-.748-2.332-1.65-2.332-.946 0-1.716.528-1.848 2.332h3.498zm8.899 5.522c0 1.122-.616 1.716-1.87 1.716-1.276 0-1.892-.572-1.892-1.716 0-1.122.616-1.716 1.892-1.716 1.232 0 1.87.594 1.87 1.716z" fill="#2B3D51"/></svg>