<svg width="143" height="109" viewBox="0 0 143 109" fill="none" xmlns="http://www.w3.org/2000/svg"><path d="M52.583 18V.504H56.2l6.021 8.316c.973 1.323 2.08 3.213 2.08 3.213V.504h3.78V18h-3.645l-5.833-7.992c-1.16-1.566-2.24-3.429-2.24-3.429V18h-3.78zm25.41.27c-4.022 0-7.209-3.105-7.209-7.02 0-3.915 3.186-7.02 7.21-7.02 4.05 0 7.236 3.105 7.236 7.02 0 3.915-3.187 7.02-7.237 7.02zm0-3.348c2.026 0 3.538-1.539 3.538-3.672 0-2.106-1.513-3.672-3.538-3.672-2.024 0-3.536 1.566-3.536 3.672 0 2.133 1.512 3.672 3.537 3.672zM11.825 48.27c-4.023 0-7.209-3.105-7.209-7.02 0-3.915 3.186-7.02 7.209-7.02 1.863 0 3.483.621 4.833 1.728l-2.187 2.538c-.621-.567-1.485-.918-2.565-.918-2.106 0-3.618 1.539-3.618 3.672 0 2.106 1.431 3.672 3.726 3.672 1.134 0 2.241-.432 2.943-1.107l1.917 2.7c-1.296 1.107-3.105 1.755-5.049 1.755zm13.29 0c-4.024 0-7.21-3.105-7.21-7.02 0-3.915 3.186-7.02 7.21-7.02 4.05 0 7.235 3.105 7.235 7.02 0 3.915-3.186 7.02-7.236 7.02zm0-3.348c2.024 0 3.536-1.539 3.536-3.672 0-2.106-1.512-3.672-3.537-3.672s-3.537 1.566-3.537 3.672c0 2.133 1.512 3.672 3.537 3.672zM34.71 48V34.5h3.537v1.809c.783-1.215 2.376-2.079 3.995-2.079 2.133 0 3.456.891 4.158 2.403.972-1.62 2.835-2.403 4.374-2.403 3.808 0 4.995 2.619 4.995 6.075V48h-3.617v-7.236c0-1.782-.432-3.105-2.35-3.105-1.781 0-2.753 1.431-2.753 3.213V48h-3.618v-7.236c0-1.782-.406-3.105-2.35-3.105-1.836 0-2.754 1.566-2.754 3.348V48h-3.617zm23.625 3.888V34.5h3.428v1.62c1.107-1.323 2.7-1.89 4.32-1.89 3.727 0 6.102 3.132 6.102 6.993 0 3.915-2.43 7.047-6.156 7.047-1.566 0-3.105-.621-4.077-1.809v5.427h-3.617zm6.803-6.966c1.972 0 3.349-1.539 3.349-3.672s-1.377-3.672-3.349-3.672c-1.835 0-3.212 1.512-3.212 3.672 0 2.133 1.35 3.672 3.212 3.672zm15.083 3.348c-3.726 0-6.102-3.132-6.102-7.02 0-3.888 2.376-7.02 6.102-7.02 1.566 0 3.24.621 4.212 1.917V34.5h3.537V48h-3.537v-1.62c-.945 1.296-2.646 1.89-4.212 1.89zm.918-3.348c1.863 0 3.213-1.512 3.213-3.672 0-2.106-1.35-3.672-3.213-3.672-1.944 0-3.348 1.566-3.348 3.672 0 2.133 1.404 3.672 3.348 3.672zM90.714 48V34.5h3.564v2.592c.378-1.107 1.755-2.862 4.725-2.862v3.942c-3.132 0-4.67 1.431-4.67 4.644V48h-3.619zm15.861.27c-2.7 0-4.158-1.566-4.158-4.617v-6.237h-1.971V34.5h1.971v-2.592l3.618-.81V34.5h3.726v2.916h-3.726v6.183c0 1.161.567 1.539 1.215 1.539.864 0 1.62-.486 1.728-.567l1.026 2.673a6.221 6.221 0 01-3.429 1.026zm10.825 0c-3.726 0-6.102-3.132-6.102-7.02 0-3.888 2.376-7.02 6.102-7.02 1.566 0 3.24.621 4.212 1.917V34.5h3.537V48h-3.537v-1.62c-.945 1.296-2.646 1.89-4.212 1.89zm.918-3.348c1.863 0 3.213-1.512 3.213-3.672 0-2.106-1.35-3.672-3.213-3.672-1.944 0-3.348 1.566-3.348 3.672 0 2.133 1.404 3.672 3.348 3.672zm14.38 3.348c-2.889 0-4.752-1.134-5.508-1.836l1.296-2.781c.918.702 2.187 1.431 4.212 1.431.837 0 2.214-.324 2.214-1.134 0-.81-1.161-.999-2.322-1.323-2.673-.702-4.86-1.593-4.86-4.185 0-2.754 2.7-4.212 5.238-4.212 2.214 0 3.618.54 5.022 1.35l-1.215 2.7c-1.323-.648-2.565-.945-3.753-.945-.837 0-1.62.378-1.62.945 0 .756 1.134.999 2.376 1.269 2.295.54 4.806 1.539 4.806 4.293 0 3.321-3.375 4.428-5.886 4.428zm-70.394 30c-2.7 0-4.158-1.566-4.158-4.617v-6.237h-1.97V64.5h1.97v-2.592l3.618-.81V64.5h3.726v2.916h-3.726v6.183c0 1.161.567 1.539 1.215 1.539.864 0 1.62-.486 1.728-.567l1.026 2.673a6.221 6.221 0 01-3.429 1.026zm9.932 0c-3.726 0-4.914-2.187-4.914-5.697V64.5h3.618v7.587c0 1.89.81 2.754 2.484 2.754 1.89 0 2.808-1.593 2.808-3.429V64.5h3.618V78h-3.402v-1.89c-.81 1.323-2.646 2.16-4.212 2.16zM.863 108V95.5h3.35V108H.863zm1.65-14.025c-1.075 0-1.975-.9-1.975-1.975 0-1.1.9-2 1.975-2 1.1 0 2 .9 2 2 0 1.075-.9 1.975-2 1.975zM6.772 108V95.5h3.275v1.675c1-1.375 2.425-1.925 3.95-1.925 3.3 0 4.45 2.125 4.45 5.55v7.2h-3.35v-6.775c0-1.825-.475-2.8-2.175-2.8-1.675 0-2.8 1.35-2.8 3.25V108h-3.35zm14.563 0v-9.775h-1.95v-2.7h1.95V94.7c0-2.9 1.6-4.15 3.725-4.15 1.125 0 2.375.325 3.25.775l-.95 2.475c-.275-.125-.825-.375-1.4-.375-.7 0-1.275.35-1.275 1.65v.45h3.125v2.7h-3.125V108h-3.35zm13.953.25c-3.725 0-6.675-2.875-6.675-6.5s2.95-6.5 6.675-6.5c3.75 0 6.7 2.875 6.7 6.5s-2.95 6.5-6.7 6.5zm0-3.1c1.875 0 3.275-1.425 3.275-3.4 0-1.95-1.4-3.4-3.275-3.4s-3.275 1.45-3.275 3.4c0 1.975 1.4 3.4 3.275 3.4zm8.886 2.85V95.5h3.3v2.4c.35-1.025 1.625-2.65 4.375-2.65v3.65c-2.9 0-4.325 1.325-4.325 4.3v4.8h-3.35zm9.497 0V95.5h3.275v1.675c.725-1.125 2.2-1.925 3.7-1.925 1.975 0 3.2.825 3.85 2.225.9-1.5 2.625-2.225 4.05-2.225 3.525 0 4.625 2.425 4.625 5.625V108h-3.35v-6.7c0-1.65-.4-2.875-2.175-2.875-1.65 0-2.55 1.325-2.55 2.975v6.6h-3.35v-6.7c0-1.65-.375-2.875-2.175-2.875-1.7 0-2.55 1.45-2.55 3.1V108h-3.35zm27.15.25c-3.45 0-5.65-2.9-5.65-6.5s2.2-6.5 5.65-6.5c1.45 0 3 .575 3.9 1.775V95.5h3.275V108h-3.275v-1.5c-.875 1.2-2.45 1.75-3.9 1.75zm.85-3.1c1.725 0 2.975-1.4 2.975-3.4 0-1.95-1.25-3.4-2.975-3.4-1.8 0-3.1 1.45-3.1 3.4 0 1.975 1.3 3.4 3.1 3.4zm15.165 3.1c-3.725 0-6.675-2.875-6.675-6.5s2.95-6.5 6.675-6.5a6.9 6.9 0 014.475 1.6l-2.025 2.35c-.575-.525-1.375-.85-2.375-.85-1.95 0-3.35 1.425-3.35 3.4 0 1.95 1.325 3.4 3.45 3.4 1.05 0 2.075-.4 2.725-1.025l1.775 2.5c-1.2 1.025-2.875 1.625-4.675 1.625zm6.396-.25V95.5h3.35V108h-3.35zm1.65-14.025c-1.075 0-1.975-.9-1.975-1.975 0-1.1.9-2 1.975-2 1.1 0 2 .9 2 2 0 1.075-.9 1.975-2 1.975zm8.358-.175l2.35-3.925h3.325L115.99 93.8h-2.75zm2.2 14.45c-3.725 0-6.675-2.875-6.675-6.5s2.95-6.5 6.675-6.5c3.75 0 6.7 2.875 6.7 6.5s-2.95 6.5-6.7 6.5zm0-3.1c1.875 0 3.275-1.425 3.275-3.4 0-1.95-1.4-3.4-3.275-3.4s-3.275 1.45-3.275 3.4c0 1.975 1.4 3.4 3.275 3.4zm8.885 2.85V95.5h3.275v1.675c1-1.375 2.425-1.925 3.95-1.925 3.3 0 4.45 2.125 4.45 5.55v7.2h-3.35v-6.775c0-1.825-.475-2.8-2.175-2.8-1.675 0-2.8 1.35-2.8 3.25V108h-3.35zm15.913.25c-1.125 0-1.975-.875-1.975-1.95 0-1.125.875-1.975 1.975-1.975 1.125 0 2 .85 2 1.975 0 1.075-.875 1.95-2 1.95z" fill="#fff"/></svg>