<svg width="143" height="94" viewBox="0 0 143 94" fill="none" xmlns="http://www.w3.org/2000/svg"><path d="M5.318 23V1.616H7.66l5.214 7.26c1.122 1.584 3.465 4.95 3.465 4.95s2.343-3.333 3.465-4.917l5.214-7.293h2.343V23h-2.64V6.071s-.561 1.023-1.584 2.442l-6.798 9.57-6.831-9.636c-.957-1.353-1.551-2.376-1.551-2.376V23h-2.64zm34.397.33c-4.554 0-8.415-3.267-8.415-8.349 0-4.653 3.498-8.382 8.085-8.382 4.29 0 7.689 3.696 7.689 8.283 0 .462-.066.957-.066.99H33.907c.396 3.201 2.87 5.214 5.84 5.214 1.816 0 3.63-.627 4.95-1.716l1.09 1.848a9.834 9.834 0 01-6.072 2.112zm-5.808-9.372h10.692c-.264-2.97-2.541-5.115-5.346-5.115-2.74 0-4.983 2.112-5.346 5.115zM57.58 23.33c-4.455 0-7.59-3.696-7.59-8.349 0-4.719 3.135-8.382 7.59-8.382 2.574 0 4.851 1.056 6.04 3.135V1.286h2.507V23H63.72v-2.805c-1.188 2.112-3.53 3.135-6.138 3.135zm.561-2.442c3.07 0 5.478-2.541 5.478-5.907s-2.409-5.94-5.478-5.94c-3.2 0-5.577 2.508-5.577 5.94 0 3.399 2.376 5.907 5.577 5.907zM70.342 23V6.929h2.508V23h-2.508zm1.254-18.942c-.925 0-1.65-.726-1.65-1.65 0-.924.725-1.683 1.65-1.683a1.69 1.69 0 011.682 1.683c0 .924-.759 1.65-1.683 1.65zM84.865 23.33c-4.72 0-8.448-3.663-8.448-8.349s3.729-8.382 8.448-8.382c2.21 0 4.224.792 5.742 2.145l-1.584 1.782c-.99-.924-2.442-1.485-4.125-1.485-3.366 0-5.907 2.508-5.907 5.94 0 3.333 2.442 5.907 5.973 5.907 1.815 0 3.465-.693 4.587-1.815l1.452 1.881c-1.551 1.485-3.73 2.376-6.138 2.376zm15.706 0c-4.455 0-7.59-3.696-7.59-8.349 0-4.719 3.135-8.382 7.59-8.382 2.574 0 4.851 1.056 6.039 3.135V6.929h2.508V23h-2.508v-2.805c-1.188 2.112-3.465 3.135-6.039 3.135zm.561-2.442c3.069 0 5.478-2.541 5.478-5.907s-2.409-5.94-5.478-5.94c-3.2 0-5.577 2.508-5.577 5.94 0 3.399 2.376 5.907 5.577 5.907zm12.2 2.112V6.929h2.508v3.399c.924-2.112 3.003-3.729 6.204-3.729v2.739c-3.762 0-6.204 2.112-6.204 6.039V23h-2.508zm19.034.33c-4.554 0-8.415-3.267-8.415-8.349 0-4.653 3.498-8.382 8.085-8.382 4.29 0 7.689 3.696 7.689 8.283 0 .462-.066.957-.066.99h-13.101c.396 3.201 2.871 5.214 5.841 5.214 1.815 0 3.63-.627 4.95-1.716l1.089 1.848a9.834 9.834 0 01-6.072 2.112zm-5.808-9.372h10.692c-.264-2.97-2.541-5.115-5.346-5.115-2.739 0-4.983 2.112-5.346 5.115zM110.01 59.33c-2.838 0-4.521-1.386-4.521-5.148v-9.174h-2.409v-2.079h2.409v-3.465l2.508-.462v3.927h5.478v2.079h-5.478v9.24c0 2.211.957 2.838 2.244 2.838 1.485 0 2.64-.891 2.64-.891l.825 1.947c-.627.429-1.947 1.188-3.696 1.188zm14.235 0c-4.554 0-8.415-3.267-8.415-8.349 0-4.653 3.498-8.382 8.085-8.382 4.29 0 7.689 3.696 7.689 8.283 0 .462-.066.957-.066.99h-13.101c.396 3.201 2.871 5.214 5.841 5.214 1.815 0 3.63-.627 4.95-1.716l1.089 1.848a9.834 9.834 0 01-6.072 2.112zm-5.808-9.372h10.692c-.264-2.97-2.541-5.115-5.346-5.115-2.739 0-4.983 2.112-5.346 5.115zM8.81 93.31c-4.433 0-7.936-3.441-7.936-7.843s3.503-7.874 7.936-7.874c2.077 0 3.968.744 5.394 2.015l-1.488 1.674c-.93-.868-2.294-1.395-3.875-1.395-3.162 0-5.549 2.356-5.549 5.58 0 3.131 2.294 5.549 5.611 5.549 1.705 0 3.255-.651 4.31-1.705l1.363 1.767c-1.457 1.395-3.503 2.232-5.766 2.232zm15.56 0c-4.432 0-7.935-3.472-7.935-7.843 0-4.402 3.503-7.874 7.936-7.874s7.936 3.472 7.936 7.874c0 4.371-3.503 7.843-7.936 7.843zm0-2.294c3.132 0 5.519-2.387 5.519-5.549 0-3.193-2.387-5.58-5.518-5.58s-5.518 2.387-5.518 5.58c0 3.162 2.387 5.549 5.518 5.549zM35.644 93V77.903h2.356v2.573c1.054-1.829 3.007-2.883 5.239-2.883 3.782 0 5.456 2.294 5.456 6.262V93h-2.356v-8.835c0-2.79-1.023-4.278-3.751-4.278-2.697 0-4.588 2.108-4.588 4.619V93h-2.356zm21.824.31c-2.666 0-4.247-1.302-4.247-4.836v-8.618h-2.263v-1.953h2.263v-3.255l2.356-.434v3.689h5.146v1.953h-5.146v8.68c0 2.077.9 2.666 2.108 2.666 1.395 0 2.48-.837 2.48-.837l.775 1.829c-.589.403-1.829 1.116-3.472 1.116zm12.598 0c-4.185 0-7.13-3.472-7.13-7.843 0-4.433 2.945-7.874 7.13-7.874 2.418 0 4.557.992 5.673 2.945v-2.635h2.356V93h-2.356v-2.635c-1.116 1.984-3.255 2.945-5.673 2.945zm.527-2.294c2.883 0 5.146-2.387 5.146-5.549 0-3.162-2.263-5.58-5.146-5.58-3.007 0-5.24 2.356-5.24 5.58 0 3.193 2.233 5.549 5.24 5.549zm18.776 2.294c-4.433 0-7.936-3.441-7.936-7.843s3.503-7.874 7.936-7.874c2.077 0 3.968.744 5.394 2.015l-1.488 1.674c-.93-.868-2.294-1.395-3.875-1.395-3.162 0-5.55 2.356-5.55 5.58 0 3.131 2.295 5.549 5.612 5.549 1.705 0 3.255-.651 4.309-1.705l1.364 1.767c-1.457 1.395-3.503 2.232-5.766 2.232zm13.63 0c-2.666 0-4.247-1.302-4.247-4.836v-8.618h-2.263v-1.953h2.263v-3.255l2.356-.434v3.689h5.146v1.953h-5.146v8.68c0 2.077.899 2.666 2.108 2.666 1.395 0 2.48-.837 2.48-.837l.775 1.829c-.589.403-1.829 1.116-3.472 1.116zm12.598 0c-4.185 0-7.13-3.472-7.13-7.843 0-4.433 2.945-7.874 7.13-7.874 2.418 0 4.557.992 5.673 2.945v-2.635h2.356V93h-2.356v-2.635c-1.116 1.984-3.255 2.945-5.673 2.945zm.527-2.294c2.883 0 5.146-2.387 5.146-5.549 0-3.162-2.263-5.58-5.146-5.58-3.007 0-5.239 2.356-5.239 5.58 0 3.193 2.232 5.549 5.239 5.549zm12.607 2.294c-.93 0-1.612-.744-1.612-1.643s.713-1.643 1.612-1.643c.899 0 1.643.744 1.643 1.643s-.744 1.643-1.643 1.643zm6.297 0c-.93 0-1.612-.744-1.612-1.643s.713-1.643 1.612-1.643c.899 0 1.643.744 1.643 1.643s-.744 1.643-1.643 1.643zm6.297 0c-.93 0-1.612-.744-1.612-1.643s.713-1.643 1.612-1.643c.899 0 1.643.744 1.643 1.643s-.744 1.643-1.643 1.643z" fill="#275D80"/><path d="M5.427 59V42.5H9.75v2.211c1.32-1.815 3.201-2.541 5.214-2.541 4.356 0 5.874 2.805 5.874 7.326V59h-4.422v-8.943c0-2.409-.627-3.696-2.87-3.696-2.212 0-3.697 1.782-3.697 4.29V59H5.427zm24.305.33c-4.554 0-6.006-2.673-6.006-6.963V42.5h4.422v9.273c0 2.31.99 3.366 3.036 3.366 2.31 0 3.432-1.947 3.432-4.191V42.5h4.422V59H34.88v-2.31c-.99 1.617-3.234 2.64-5.148 2.64zM42.391 59V42.5h4.323v2.211c1.32-1.815 3.201-2.541 5.214-2.541 4.356 0 5.874 2.805 5.874 7.326V59H53.38v-8.943c0-2.409-.627-3.696-2.871-3.696-2.211 0-3.696 1.782-3.696 4.29V59h-4.422zm26.846.33c-4.917 0-8.81-3.795-8.81-8.58s3.893-8.58 8.81-8.58c2.277 0 4.257.759 5.907 2.112l-2.673 3.102c-.759-.693-1.815-1.122-3.135-1.122-2.574 0-4.422 1.881-4.422 4.488 0 2.574 1.75 4.488 4.554 4.488 1.386 0 2.74-.528 3.597-1.353l2.343 3.3c-1.584 1.353-3.795 2.145-6.17 2.145zm14.89 0c-4.554 0-7.459-3.828-7.459-8.58 0-4.752 2.904-8.58 7.458-8.58 1.914 0 3.96.759 5.148 2.343V42.5h4.323V59h-4.322v-1.98c-1.156 1.584-3.235 2.31-5.149 2.31zm1.122-4.092c2.276 0 3.927-1.848 3.927-4.488 0-2.574-1.65-4.488-3.927-4.488-2.376 0-4.093 1.914-4.093 4.488 0 2.607 1.716 4.488 4.093 4.488z" fill="#091C29"/></svg>