<svg width="829" height="36" viewBox="0 0 829 36" fill="none" xmlns="http://www.w3.org/2000/svg"><path d="M17.063 21.14H6.733L4.047 27H.125L12.063 1.36 23.578 27h-3.984l-2.532-5.86zm-1.485-3.421L12 9.516l-3.75 8.203h7.328zM29.453 35.28h-3.515v-23.5h3.515v1.656c1.386-1.385 2.958-2.078 4.719-2.078 2.094 0 3.818.771 5.172 2.313 1.375 1.531 2.062 3.463 2.062 5.797 0 2.281-.682 4.182-2.047 5.703-1.354 1.51-3.062 2.265-5.125 2.265-1.78 0-3.375-.713-4.78-2.14v9.984zm8.36-15.797c0-1.458-.396-2.646-1.188-3.562-.802-.927-1.813-1.39-3.031-1.39-1.292 0-2.339.447-3.14 1.343-.803.896-1.204 2.073-1.204 3.531 0 1.427.401 2.604 1.203 3.532.792.906 1.833 1.359 3.125 1.359 1.219 0 2.224-.459 3.016-1.375.812-.917 1.218-2.063 1.218-3.438zm7.312-7.703h3.516v1.36c.645-.678 1.218-1.141 1.718-1.391.51-.26 1.115-.39 1.813-.39.927 0 1.896.302 2.906.906l-1.61 3.218c-.666-.479-1.317-.718-1.952-.718-1.917 0-2.875 1.447-2.875 4.343V27h-3.516V11.781zm25.61 8.438H59.827c.094 1.25.5 2.244 1.219 2.984.719.73 1.64 1.094 2.766 1.094.874 0 1.599-.209 2.171-.625.563-.417 1.204-1.188 1.922-2.313l2.969 1.657a12.095 12.095 0 01-1.453 2.015 8.043 8.043 0 01-1.64 1.375 6.71 6.71 0 01-1.891.782 9.202 9.202 0 01-2.204.25c-2.27 0-4.093-.73-5.468-2.188-1.375-1.469-2.063-3.417-2.063-5.844 0-2.406.667-4.354 2-5.843 1.344-1.47 3.125-2.204 5.344-2.204 2.24 0 4.01.714 5.313 2.141 1.291 1.417 1.937 3.38 1.937 5.89l-.016.829zm-3.61-2.875c-.49-1.875-1.672-2.813-3.547-2.813-.427 0-.828.068-1.203.203a3.318 3.318 0 00-1.031.563 3.51 3.51 0 00-.782.875 4.103 4.103 0 00-.5 1.172h7.063zm7.469-5.563h3.531v1.406c1.23-1.218 2.615-1.828 4.156-1.828 1.771 0 3.151.558 4.14 1.672.855.948 1.282 2.495 1.282 4.64V27h-3.531v-8.5c0-1.5-.209-2.537-.625-3.11-.406-.583-1.146-.874-2.219-.874-1.166 0-1.995.385-2.484 1.156-.48.76-.719 2.088-.719 3.984V27h-3.531V11.781zM103.375.61h3.531V27h-3.531v-1.594c-1.385 1.354-2.953 2.032-4.703 2.032-2.084 0-3.813-.76-5.188-2.282-1.364-1.552-2.046-3.49-2.046-5.812 0-2.271.682-4.167 2.046-5.688 1.355-1.531 3.058-2.297 5.11-2.297 1.781 0 3.375.73 4.781 2.188V.609zm-8.344 18.735c0 1.458.39 2.646 1.172 3.562.802.927 1.813 1.39 3.031 1.39 1.302 0 2.355-.447 3.157-1.343.802-.927 1.203-2.104 1.203-3.531s-.401-2.604-1.203-3.531c-.802-.907-1.844-1.36-3.125-1.36-1.209 0-2.22.459-3.032 1.375-.802.927-1.203 2.073-1.203 3.438zm30.172.875h-10.906c.094 1.25.5 2.244 1.219 2.984.718.73 1.64 1.094 2.765 1.094.875 0 1.599-.209 2.172-.625.563-.417 1.203-1.188 1.922-2.313l2.969 1.657a12.158 12.158 0 01-1.453 2.015 8.071 8.071 0 01-1.641 1.375 6.71 6.71 0 01-1.891.782 9.198 9.198 0 01-2.203.25c-2.271 0-4.094-.73-5.468-2.188-1.376-1.469-2.063-3.417-2.063-5.844 0-2.406.667-4.354 2-5.843 1.344-1.47 3.125-2.204 5.344-2.204 2.239 0 4.01.714 5.312 2.141 1.292 1.417 1.938 3.38 1.938 5.89l-.016.829zm-3.609-2.875c-.49-1.875-1.672-2.813-3.547-2.813-.427 0-.828.068-1.203.203a3.329 3.329 0 00-1.032.563c-.302.24-.562.531-.781.875a4.106 4.106 0 00-.5 1.172h7.063zm29.187-4.907v4.672c-.802-.979-1.521-1.65-2.156-2.015-.625-.375-1.359-.563-2.203-.563-1.323 0-2.422.464-3.297 1.39-.875.928-1.313 2.09-1.313 3.485 0 1.427.422 2.6 1.266 3.516.854.916 1.943 1.375 3.266 1.375.844 0 1.588-.182 2.234-.547.625-.354 1.36-1.042 2.203-2.063v4.641c-1.427.74-2.854 1.11-4.281 1.11-2.354 0-4.323-.76-5.906-2.282-1.584-1.531-2.375-3.432-2.375-5.703 0-2.27.802-4.187 2.406-5.75 1.604-1.562 3.573-2.344 5.906-2.344 1.5 0 2.917.36 4.25 1.079zm2.688 6.844c0-2.198.786-4.067 2.359-5.61 1.573-1.54 3.49-2.312 5.75-2.312 2.271 0 4.198.776 5.781 2.329 1.563 1.552 2.344 3.458 2.344 5.718 0 2.282-.786 4.193-2.359 5.735-1.584 1.53-3.526 2.297-5.828 2.297-2.282 0-4.193-.782-5.735-2.344-1.541-1.542-2.312-3.48-2.312-5.813zm3.593.063c0 1.52.407 2.724 1.219 3.61.834.895 1.933 1.343 3.297 1.343 1.375 0 2.474-.443 3.297-1.328.823-.886 1.234-2.068 1.234-3.547 0-1.48-.411-2.662-1.234-3.547-.833-.896-1.932-1.344-3.297-1.344-1.344 0-2.432.448-3.266 1.344-.833.896-1.25 2.052-1.25 3.469zm9.797-15.063l-5.687 5.157-1.922-1.188 4.297-5.688 3.312 1.72zm6.579 7.5h3.515v1.406c.677-.708 1.255-1.187 1.735-1.437.51-.26 1.151-.39 1.921-.39 1.719 0 3.079.75 4.079 2.25 1.104-1.5 2.598-2.25 4.484-2.25 3.427 0 5.14 2.078 5.14 6.234V27h-3.531v-8.453c0-1.459-.177-2.49-.531-3.094-.365-.614-.964-.922-1.797-.922-.969 0-1.677.365-2.125 1.094-.437.73-.656 1.901-.656 3.516V27h-3.531v-8.406c0-2.709-.782-4.063-2.344-4.063-.99 0-1.714.37-2.172 1.11-.448.74-.672 1.906-.672 3.5V27h-3.515V11.781zm24.593 7.5c0-2.198.787-4.067 2.36-5.61 1.573-1.54 3.489-2.312 5.75-2.312 2.27 0 4.198.776 5.781 2.329 1.562 1.552 2.344 3.458 2.344 5.718 0 2.282-.787 4.193-2.36 5.735-1.583 1.53-3.526 2.297-5.828 2.297-2.281 0-4.193-.782-5.734-2.344-1.542-1.542-2.313-3.48-2.313-5.813zm3.594.063c0 1.52.406 2.724 1.219 3.61.833.895 1.932 1.343 3.297 1.343 1.375 0 2.474-.443 3.297-1.328.822-.886 1.234-2.068 1.234-3.547 0-1.48-.412-2.662-1.234-3.547-.834-.896-1.933-1.344-3.297-1.344-1.344 0-2.433.448-3.266 1.344-.833.896-1.25 2.052-1.25 3.469zm29.766 15.937h-3.516v-23.5h3.516v1.656c1.385-1.385 2.958-2.078 4.718-2.078 2.094 0 3.818.771 5.172 2.313 1.375 1.531 2.063 3.463 2.063 5.797 0 2.281-.683 4.182-2.047 5.703-1.354 1.51-3.063 2.265-5.125 2.265-1.781 0-3.375-.713-4.781-2.14v9.984zm8.359-15.797c0-1.458-.396-2.646-1.188-3.562-.802-.927-1.812-1.39-3.031-1.39-1.291 0-2.338.447-3.14 1.343-.802.896-1.203 2.073-1.203 3.531 0 1.427.401 2.604 1.203 3.532.791.906 1.833 1.359 3.125 1.359 1.218 0 2.224-.459 3.015-1.375.813-.917 1.219-2.063 1.219-3.438zm7.312-7.703h3.516v1.36c.646-.678 1.219-1.141 1.719-1.391.51-.26 1.114-.39 1.812-.39.927 0 1.896.302 2.907.906l-1.61 3.218c-.666-.479-1.317-.718-1.953-.718-1.917 0-2.875 1.447-2.875 4.343V27h-3.516V11.781zm10.969 7.5c0-2.198.787-4.067 2.36-5.61 1.573-1.54 3.489-2.312 5.75-2.312 2.27 0 4.198.776 5.781 2.329 1.562 1.552 2.344 3.458 2.344 5.718 0 2.282-.787 4.193-2.36 5.735-1.583 1.53-3.526 2.297-5.828 2.297-2.281 0-4.193-.782-5.734-2.344-1.542-1.542-2.313-3.48-2.313-5.813zm3.594.063c0 1.52.406 2.724 1.219 3.61.833.895 1.932 1.343 3.297 1.343 1.375 0 2.474-.443 3.297-1.328.822-.886 1.234-2.068 1.234-3.547 0-1.48-.412-2.662-1.234-3.547-.834-.896-1.933-1.344-3.297-1.344-1.344 0-2.433.448-3.266 1.344-.833.896-1.25 2.052-1.25 3.469zm20.187-4.282V27h-3.515V15.062h-1.5v-3.28h1.5V6.202h3.515v5.578h2.735v3.281h-2.735zm19.266 5.157h-10.906c.094 1.25.5 2.244 1.219 2.984.718.73 1.64 1.094 2.765 1.094.875 0 1.599-.209 2.172-.625.563-.417 1.203-1.188 1.922-2.313l2.969 1.657a12.158 12.158 0 01-1.453 2.015 8.071 8.071 0 01-1.641 1.375 6.71 6.71 0 01-1.891.782 9.198 9.198 0 01-2.203.25c-2.271 0-4.093-.73-5.469-2.188-1.374-1.469-2.062-3.417-2.062-5.844 0-2.406.667-4.354 2-5.843 1.344-1.47 3.125-2.204 5.344-2.204 2.239 0 4.01.714 5.312 2.141 1.292 1.417 1.938 3.38 1.938 5.89l-.016.829zm-3.609-2.875c-.49-1.875-1.672-2.813-3.547-2.813-.427 0-.828.068-1.203.203a3.313 3.313 0 00-1.031.563 3.5 3.5 0 00-.782.875 4.134 4.134 0 00-.5 1.172h7.063zm22.187 9.297c0 .718-.026 1.349-.078 1.89a12.306 12.306 0 01-.187 1.453c-.25 1.146-.74 2.13-1.469 2.953-1.375 1.584-3.266 2.376-5.672 2.376-2.031 0-3.703-.547-5.016-1.641-1.354-1.125-2.135-2.682-2.343-4.672h3.531c.135.75.359 1.328.672 1.734.729.948 1.791 1.422 3.187 1.422 2.573 0 3.86-1.578 3.86-4.734v-2.125c-1.396 1.427-3.006 2.14-4.829 2.14-2.072 0-3.77-.75-5.093-2.25-1.334-1.52-2-3.421-2-5.703 0-2.218.62-4.104 1.859-5.656 1.333-1.646 3.094-2.469 5.281-2.469 1.917 0 3.511.714 4.782 2.141v-1.719h3.515v14.86zm-3.375-7.22c0-1.478-.396-2.66-1.187-3.546-.802-.906-1.828-1.36-3.078-1.36-1.334 0-2.386.495-3.157 1.485-.698.885-1.047 2.031-1.047 3.438 0 1.385.349 2.52 1.047 3.406.761.968 1.813 1.453 3.157 1.453 1.343 0 2.406-.49 3.187-1.469.719-.885 1.078-2.02 1.078-3.406zm21.672.798h-10.906c.094 1.25.5 2.244 1.219 2.984.718.73 1.64 1.094 2.765 1.094.875 0 1.599-.209 2.172-.625.563-.417 1.203-1.188 1.922-2.313l2.969 1.657a12.158 12.158 0 01-1.453 2.015A8.071 8.071 0 01335 26.406a6.71 6.71 0 01-1.891.782 9.198 9.198 0 01-2.203.25c-2.271 0-4.094-.73-5.468-2.188-1.376-1.469-2.063-3.417-2.063-5.844 0-2.406.667-4.354 2-5.843 1.344-1.47 3.125-2.204 5.344-2.204 2.239 0 4.01.714 5.312 2.141 1.292 1.417 1.938 3.38 1.938 5.89l-.016.829zm-3.609-2.875c-.49-1.875-1.672-2.813-3.547-2.813-.427 0-.828.068-1.203.203a3.329 3.329 0 00-1.032.563c-.302.24-.562.531-.781.875a4.106 4.106 0 00-.5 1.172h7.063zm7.468-5.563h3.516v1.36c.646-.678 1.219-1.141 1.719-1.391.51-.26 1.114-.39 1.812-.39.927 0 1.896.302 2.907.906l-1.61 3.218c-.666-.479-1.317-.718-1.953-.718-1.917 0-2.875 1.447-2.875 4.343V27h-3.516V11.781zm16.75 3.281V27h-3.515V15.062h-1.5v-3.28h1.5V6.202h3.515v5.578h2.735v3.281h-2.735zm19.266 5.157h-10.906c.094 1.25.5 2.244 1.219 2.984.718.73 1.64 1.094 2.765 1.094.875 0 1.599-.209 2.172-.625.563-.417 1.203-1.188 1.922-2.313l2.969 1.657a12.158 12.158 0 01-1.453 2.015 8.071 8.071 0 01-1.641 1.375 6.71 6.71 0 01-1.891.782 9.198 9.198 0 01-2.203.25c-2.271 0-4.093-.73-5.469-2.188-1.374-1.469-2.062-3.417-2.062-5.844 0-2.406.667-4.354 2-5.843 1.344-1.47 3.125-2.204 5.344-2.204 2.239 0 4.01.714 5.312 2.141 1.292 1.417 1.938 3.38 1.938 5.89l-.016.829zm-3.609-2.875c-.49-1.875-1.672-2.813-3.547-2.813-.427 0-.828.068-1.203.203a3.313 3.313 0 00-1.031.563 3.5 3.5 0 00-.782.875 4.134 4.134 0 00-.5 1.172h7.063zm29.187-4.907v4.672c-.802-.979-1.521-1.65-2.156-2.015-.625-.375-1.359-.563-2.203-.563-1.323 0-2.422.464-3.297 1.39-.875.928-1.312 2.09-1.312 3.485 0 1.427.421 2.6 1.265 3.516.854.916 1.943 1.375 3.266 1.375.843 0 1.588-.182 2.234-.547.625-.354 1.359-1.042 2.203-2.063v4.641c-1.427.74-2.854 1.11-4.281 1.11-2.354 0-4.323-.76-5.906-2.282-1.584-1.531-2.375-3.432-2.375-5.703 0-2.27.802-4.187 2.406-5.75 1.604-1.562 3.573-2.344 5.906-2.344 1.5 0 2.917.36 4.25 1.079zm2.688 6.844c0-2.198.786-4.067 2.359-5.61 1.573-1.54 3.49-2.312 5.75-2.312 2.271 0 4.198.776 5.781 2.329 1.563 1.552 2.344 3.458 2.344 5.718 0 2.282-.786 4.193-2.359 5.735-1.584 1.53-3.526 2.297-5.828 2.297-2.282 0-4.193-.782-5.735-2.344-1.541-1.542-2.312-3.48-2.312-5.813zm3.594.063c0 1.52.406 2.724 1.218 3.61.834.895 1.933 1.343 3.297 1.343 1.375 0 2.474-.443 3.297-1.328.823-.886 1.234-2.068 1.234-3.547 0-1.48-.411-2.662-1.234-3.547-.833-.896-1.932-1.344-3.297-1.344-1.344 0-2.432.448-3.265 1.344-.834.896-1.25 2.052-1.25 3.469zm16.374-7.563h3.532v1.406c1.229-1.218 2.614-1.828 4.156-1.828 1.771 0 3.151.558 4.141 1.672.854.948 1.281 2.495 1.281 4.64V27h-3.531v-8.5c0-1.5-.209-2.537-.625-3.11-.407-.583-1.146-.874-2.219-.874-1.167 0-1.995.385-2.485 1.156-.479.76-.718 2.088-.718 3.984V27h-3.532V11.781zm21.188 3.281V27h-3.516V15.062h-1.5v-3.28h1.5V6.202h3.516v5.578h2.734v3.281h-2.734zm5.125-3.28h3.516v1.359c.645-.678 1.218-1.141 1.718-1.391.511-.26 1.115-.39 1.813-.39.927 0 1.896.302 2.906.906l-1.609 3.218c-.667-.479-1.318-.718-1.953-.718-1.917 0-2.875 1.447-2.875 4.343V27h-3.516V11.781zm22.969 0h3.531V27h-3.531v-1.594c-1.448 1.354-3.005 2.032-4.672 2.032-2.104 0-3.844-.76-5.219-2.282-1.364-1.552-2.047-3.49-2.047-5.812 0-2.282.683-4.183 2.047-5.703 1.365-1.521 3.073-2.282 5.125-2.282 1.771 0 3.36.73 4.766 2.188V11.78zM467 19.343c0 1.458.391 2.646 1.172 3.562.802.927 1.812 1.39 3.031 1.39 1.302 0 2.354-.447 3.156-1.343.802-.927 1.203-2.104 1.203-3.531s-.401-2.604-1.203-3.531c-.802-.907-1.843-1.36-3.125-1.36-1.208 0-2.218.459-3.031 1.375-.802.927-1.203 2.073-1.203 3.438zm40.047.875h-10.906c.093 1.25.5 2.244 1.218 2.984.719.73 1.641 1.094 2.766 1.094.875 0 1.599-.209 2.172-.625.562-.417 1.203-1.188 1.922-2.313l2.969 1.657a12.103 12.103 0 01-1.454 2.015 8.04 8.04 0 01-1.64 1.375 6.722 6.722 0 01-1.891.782 9.198 9.198 0 01-2.203.25c-2.271 0-4.094-.73-5.469-2.188-1.375-1.469-2.062-3.417-2.062-5.844 0-2.406.666-4.354 2-5.843 1.343-1.47 3.125-2.204 5.343-2.204 2.24 0 4.011.714 5.313 2.141 1.292 1.417 1.937 3.38 1.937 5.89l-.015.829zm-3.609-2.875c-.49-1.875-1.672-2.813-3.547-2.813-.427 0-.829.068-1.203.203a3.318 3.318 0 00-1.032.563c-.302.24-.562.531-.781.875a4.106 4.106 0 00-.5 1.172h7.063zM514.422.609V27h-3.516V.61h3.516zm17.969 14.454V27h-3.532V15.062h-1.25v-3.28h1.25V5.905c0-1.916.334-3.27 1-4.062.917-1.104 2.25-1.657 4-1.657.625 0 1.412.183 2.36.547v3.594l-.36-.187c-.76-.386-1.385-.579-1.875-.579-.625 0-1.046.224-1.265.672-.219.438-.328 1.282-.328 2.532v5.015h3.828v3.281h-3.828zm5.859-3.282h3.516v1.36c.645-.678 1.218-1.141 1.718-1.391.511-.26 1.115-.39 1.813-.39.927 0 1.896.302 2.906.906l-1.609 3.218c-.667-.479-1.318-.718-1.953-.718-1.917 0-2.875 1.447-2.875 4.343V27h-3.516V11.781zm22.969 0h3.531V27h-3.531v-1.594c-1.448 1.354-3.005 2.032-4.672 2.032-2.104 0-3.844-.76-5.219-2.282-1.364-1.552-2.047-3.49-2.047-5.812 0-2.282.683-4.183 2.047-5.703 1.365-1.521 3.073-2.282 5.125-2.282 1.771 0 3.359.73 4.766 2.188V11.78zm-8.344 7.563c0 1.458.391 2.646 1.172 3.562.802.927 1.812 1.39 3.031 1.39 1.302 0 2.354-.447 3.156-1.343.802-.927 1.204-2.104 1.204-3.531s-.402-2.604-1.204-3.531c-.802-.907-1.843-1.36-3.125-1.36-1.208 0-2.218.459-3.031 1.375-.802.927-1.203 2.073-1.203 3.438zm19.828-7.563v8.735c0 2.52.995 3.78 2.985 3.78 1.989 0 2.984-1.26 2.984-3.78V11.78h3.516v8.813c0 1.218-.152 2.27-.454 3.156-.291.792-.796 1.505-1.515 2.14-1.188 1.032-2.698 1.547-4.531 1.547-1.823 0-3.329-.515-4.516-1.546-.729-.636-1.245-1.35-1.547-2.141-.292-.708-.437-1.76-.437-3.156V11.78h3.515zM597.844.61h3.531V27h-3.531v-1.594c-1.386 1.354-2.953 2.032-4.703 2.032-2.084 0-3.813-.76-5.188-2.282-1.364-1.552-2.047-3.49-2.047-5.812 0-2.271.683-4.167 2.047-5.688 1.354-1.531 3.057-2.297 5.109-2.297 1.782 0 3.376.73 4.782 2.188V.609zM589.5 19.344c0 1.458.391 2.646 1.172 3.562.802.927 1.812 1.39 3.031 1.39 1.302 0 2.354-.447 3.156-1.343.802-.927 1.203-2.104 1.203-3.531s-.401-2.604-1.203-3.531c-.802-.907-1.843-1.36-3.125-1.36-1.208 0-2.218.459-3.031 1.375-.802.927-1.203 2.073-1.203 3.438zm30.172.875h-10.906c.093 1.25.5 2.244 1.218 2.984.719.73 1.641 1.094 2.766 1.094.875 0 1.599-.209 2.172-.625.562-.417 1.203-1.188 1.922-2.313l2.968 1.657a12.043 12.043 0 01-1.453 2.015 8.04 8.04 0 01-1.64 1.375 6.722 6.722 0 01-1.891.782 9.198 9.198 0 01-2.203.25c-2.271 0-4.094-.73-5.469-2.188-1.375-1.469-2.062-3.417-2.062-5.844 0-2.406.666-4.354 2-5.843 1.344-1.47 3.125-2.204 5.344-2.204 2.239 0 4.01.714 5.312 2.141 1.292 1.417 1.938 3.38 1.938 5.89l-.016.829zm-3.61-2.875c-.489-1.875-1.671-2.813-3.546-2.813-.427 0-.828.068-1.204.203a3.335 3.335 0 00-1.031.563c-.302.24-.562.531-.781.875a4.106 4.106 0 00-.5 1.172h7.062zm28.563-5.563h3.531V27h-3.531v-1.594c-1.448 1.354-3.005 2.032-4.672 2.032-2.104 0-3.844-.76-5.219-2.282-1.364-1.552-2.046-3.49-2.046-5.812 0-2.282.682-4.183 2.046-5.703 1.365-1.521 3.073-2.282 5.125-2.282 1.771 0 3.36.73 4.766 2.188V11.78zm-8.344 7.563c0 1.458.391 2.646 1.172 3.562.802.927 1.813 1.39 3.031 1.39 1.302 0 2.355-.447 3.157-1.343.802-.927 1.203-2.104 1.203-3.531s-.401-2.604-1.203-3.531c-.802-.907-1.844-1.36-3.125-1.36-1.209 0-2.219.459-3.032 1.375-.802.927-1.203 2.073-1.203 3.438z" fill="#DEEDFC"/><path d="M661.69 27l4.096-24.128h6.208l4.832 12.864 4.8-12.864h6.208L691.93 27h-6.24l-2.08-13.888L677.914 27h-2.496l-5.408-13.888L667.93 27h-6.24zm44.794-10.592c-.192-.81-.587-1.461-1.184-1.952-.597-.49-1.323-.736-2.176-.736-.896 0-1.632.235-2.208.704-.555.47-.907 1.13-1.056 1.984h6.624zm-6.784 3.36c0 2.496 1.173 3.744 3.52 3.744 1.259 0 2.208-.512 2.848-1.536h5.6c-1.131 3.755-3.957 5.632-8.48 5.632-1.387 0-2.656-.203-3.808-.608-1.152-.427-2.144-1.024-2.976-1.792a8.015 8.015 0 01-1.888-2.752c-.448-1.067-.672-2.261-.672-3.584 0-1.365.213-2.592.64-3.68.427-1.11 1.035-2.048 1.824-2.816.789-.768 1.739-1.355 2.848-1.76 1.131-.427 2.4-.64 3.808-.64 1.387 0 2.635.213 3.744.64 1.109.405 2.048 1.003 2.816 1.792.768.79 1.355 1.76 1.76 2.912.405 1.13.608 2.41.608 3.84v.608H699.7zm20.879-1.024c0 .533.096 1.035.288 1.504.192.448.448.843.768 1.184.341.341.736.608 1.184.8.469.192.97.288 1.504.288.512 0 .992-.096 1.44-.288a3.323 3.323 0 001.184-.8 3.75 3.75 0 00.8-1.184c.213-.448.32-.928.32-1.44 0-.512-.107-.992-.32-1.44a3.66 3.66 0 00-.8-1.216 3.323 3.323 0 00-1.184-.8 3.617 3.617 0 00-1.44-.288 3.85 3.85 0 00-1.472.288 3.741 3.741 0 00-1.184.8c-.32.341-.587.736-.8 1.184a3.392 3.392 0 00-.288 1.408zM727.875.44h5.824V27h-5.824v-1.824c-1.238 1.557-2.912 2.336-5.024 2.336-1.195 0-2.294-.224-3.296-.672a8.143 8.143 0 01-2.624-1.856 8.696 8.696 0 01-1.76-2.784c-.406-1.067-.608-2.219-.608-3.456 0-1.173.192-2.283.576-3.328a8.542 8.542 0 011.696-2.784 7.793 7.793 0 012.592-1.856c1.024-.47 2.144-.704 3.36-.704 2.048 0 3.744.715 5.088 2.144V.44zm15.557 10.144V27h-5.792V10.584h5.792zm-6.176-6.304c0-.448.086-.864.256-1.248.171-.405.406-.757.704-1.056a3.38 3.38 0 011.024-.704c.406-.17.832-.256 1.28-.256.448 0 .864.085 1.248.256.406.17.758.405 1.056.704.299.299.534.65.704 1.056.171.384.256.8.256 1.248 0 .448-.085.875-.256 1.28-.17.384-.405.725-.704 1.024-.298.299-.65.533-1.056.704-.384.17-.8.256-1.248.256-.448 0-.874-.085-1.28-.256a3.38 3.38 0 01-1.024-.704 3.393 3.393 0 01-.704-1.024 3.277 3.277 0 01-.256-1.28zm22.518 11.616c-1.002-.683-2.016-1.024-3.04-1.024-.554 0-1.077.096-1.568.288-.469.192-.885.47-1.248.832-.362.341-.65.757-.864 1.248-.192.47-.288 1.003-.288 1.6 0 .576.096 1.11.288 1.6.214.47.491.885.832 1.248.363.341.79.608 1.28.8a4.268 4.268 0 001.568.288c1.088 0 2.102-.373 3.04-1.12v4.928c-1.429.619-2.784.928-4.064.928a9.731 9.731 0 01-3.424-.608 9.028 9.028 0 01-2.848-1.728 8.956 8.956 0 01-1.952-2.72c-.49-1.067-.736-2.25-.736-3.552 0-1.301.235-2.485.704-3.552a8.344 8.344 0 011.92-2.784 8.403 8.403 0 012.88-1.824 9.727 9.727 0 013.616-.672c1.408 0 2.71.299 3.904.896v4.928zm8.68 2.848c0 .533.096 1.035.288 1.504.192.448.448.843.768 1.184.341.341.736.608 1.184.8.469.192.97.288 1.504.288.512 0 .992-.096 1.44-.288a3.323 3.323 0 001.184-.8 3.75 3.75 0 00.8-1.184c.213-.448.32-.928.32-1.44 0-.512-.107-.992-.32-1.44a3.66 3.66 0 00-.8-1.216 3.323 3.323 0 00-1.184-.8 3.617 3.617 0 00-1.44-.288 3.93 3.93 0 00-1.504.288 3.741 3.741 0 00-1.184.8c-.32.341-.576.736-.768 1.184a3.392 3.392 0 00-.288 1.408zm7.296-8.16h5.824V27h-5.824v-1.824c-1.238 1.557-2.912 2.336-5.024 2.336-1.195 0-2.294-.213-3.296-.64a8.143 8.143 0 01-2.624-1.856 8.696 8.696 0 01-1.76-2.784c-.406-1.067-.608-2.23-.608-3.488a9.11 9.11 0 01.608-3.328 8.542 8.542 0 011.696-2.784 7.793 7.793 0 012.592-1.856c1.002-.47 2.112-.704 3.328-.704 2.048 0 3.744.715 5.088 2.144v-1.632zm9.765 0h5.792v2.688c.619-.981 1.376-1.728 2.272-2.24.896-.533 1.942-.8 3.136-.8h.48c.192 0 .406.021.64.064v5.536a5.503 5.503 0 00-2.496-.576c-1.344 0-2.357.405-3.04 1.216-.661.79-.992 1.952-.992 3.488V27h-5.792V10.584zm27.094 5.824c-.192-.81-.587-1.461-1.184-1.952-.597-.49-1.323-.736-2.176-.736-.896 0-1.632.235-2.208.704-.555.47-.907 1.13-1.056 1.984h6.624zm-6.784 3.36c0 2.496 1.173 3.744 3.52 3.744 1.259 0 2.208-.512 2.848-1.536h5.6c-1.131 3.755-3.957 5.632-8.48 5.632-1.387 0-2.656-.203-3.808-.608-1.152-.427-2.144-1.024-2.976-1.792a8.015 8.015 0 01-1.888-2.752c-.448-1.067-.672-2.261-.672-3.584 0-1.365.213-2.592.64-3.68.427-1.11 1.035-2.048 1.824-2.816.789-.768 1.739-1.355 2.848-1.76 1.131-.427 2.4-.64 3.808-.64 1.387 0 2.635.213 3.744.64 1.109.405 2.048 1.003 2.816 1.792.768.79 1.355 1.76 1.76 2.912.405 1.13.608 2.41.608 3.84v.608h-12.192zm15.215 4.16c0-.512.096-.992.288-1.44.192-.47.458-.875.8-1.216a3.741 3.741 0 011.184-.8 3.85 3.85 0 011.472-.288c.512 0 .992.096 1.44.288.469.192.874.459 1.216.8.341.341.608.747.8 1.216.192.448.288.928.288 1.44a3.85 3.85 0 01-.288 1.472 3.666 3.666 0 01-2.016 1.984 3.617 3.617 0 01-1.44.288 3.85 3.85 0 01-1.472-.288 3.741 3.741 0 01-1.184-.8 3.733 3.733 0 01-.8-1.184 3.85 3.85 0 01-.288-1.472z" fill="#fff"/></svg>