<svg width="631" height="24" viewBox="0 0 631 24" fill="none" xmlns="http://www.w3.org/2000/svg"><path d="M.659 18V2.166h4.116l7.602 9.681V2.166h4.095V18h-4.095L4.775 8.319V18H.659zm22.532-5.439c0 .364.063.7.189 1.008.14.294.315.553.525.777.224.224.483.399.777.525.308.126.63.189.966.189.336 0 .65-.063.945-.189.308-.126.567-.301.777-.525.224-.224.399-.483.525-.777.14-.308.21-.637.21-.987 0-.336-.07-.651-.21-.945a2.399 2.399 0 00-.525-.798 2.179 2.179 0 00-.777-.525 2.373 2.373 0 00-.945-.189c-.336 0-.658.063-.966.189a2.457 2.457 0 00-.777.525c-.21.224-.385.483-.525.777a2.373 2.373 0 00-.19.945zm-4.011-.042c0-.798.16-1.54.483-2.226.322-.7.77-1.302 1.344-1.806a6.312 6.312 0 012.037-1.218 7.477 7.477 0 012.604-.441 7.24 7.24 0 012.562.441c.798.28 1.484.679 2.058 1.197a5.181 5.181 0 011.365 1.827c.322.7.483 1.477.483 2.331 0 .854-.168 1.638-.504 2.352-.322.7-.77 1.309-1.344 1.827-.574.504-1.267.896-2.08 1.176-.797.28-1.665.42-2.603.42-.924 0-1.778-.14-2.562-.42a6.028 6.028 0 01-2.037-1.197 5.655 5.655 0 01-1.323-1.848c-.322-.728-.483-1.533-.483-2.415zm22.264-2.52c-.7-.364-1.386-.546-2.058-.546-.35 0-.637.07-.861.21a.65.65 0 00-.315.567c0 .126.014.231.042.315.042.07.119.14.231.21.126.07.301.133.525.189.238.056.546.126.924.21 1.05.21 1.834.588 2.352 1.134.518.532.777 1.218.777 2.058 0 .63-.126 1.197-.378 1.701a3.716 3.716 0 01-1.05 1.281c-.448.336-.987.595-1.617.777a6.973 6.973 0 01-2.079.294c-1.456 0-2.891-.413-4.305-1.239l1.386-2.688c1.064.728 2.072 1.092 3.024 1.092.35 0 .637-.077.861-.231.224-.154.336-.35.336-.588a.757.757 0 00-.063-.336.448.448 0 00-.21-.252c-.112-.084-.28-.154-.504-.21-.21-.07-.49-.14-.84-.21-1.176-.238-2.002-.588-2.478-1.05-.462-.476-.693-1.127-.693-1.953 0-.602.112-1.141.336-1.617.224-.49.546-.903.966-1.239.42-.336.924-.595 1.512-.777a6.874 6.874 0 011.995-.273c1.19 0 2.345.231 3.465.693l-1.281 2.478zm7.136 2.562c0 .364.063.7.189 1.008.14.294.315.553.525.777.224.224.483.399.777.525.308.126.63.189.965.189.337 0 .651-.063.945-.189.308-.126.567-.301.777-.525.224-.224.4-.483.525-.777.14-.308.21-.637.21-.987 0-.336-.07-.651-.21-.945a2.399 2.399 0 00-.525-.798 2.179 2.179 0 00-.777-.525 2.373 2.373 0 00-.945-.189c-.336 0-.657.063-.965.189a2.457 2.457 0 00-.777.525c-.21.224-.386.483-.525.777a2.373 2.373 0 00-.19.945zm-4.011-.042c0-.798.16-1.54.482-2.226.322-.7.77-1.302 1.344-1.806a6.312 6.312 0 012.037-1.218 7.477 7.477 0 012.604-.441 7.24 7.24 0 012.563.441c.798.28 1.484.679 2.058 1.197a5.181 5.181 0 011.365 1.827c.322.7.483 1.477.483 2.331 0 .854-.169 1.638-.505 2.352-.322.7-.77 1.309-1.343 1.827-.574.504-1.267.896-2.08 1.176-.797.28-1.666.42-2.603.42-.924 0-1.778-.14-2.563-.42a6.028 6.028 0 01-2.037-1.197 5.655 5.655 0 01-1.323-1.848c-.322-.728-.483-1.533-.483-2.415zm19.427-2.121V18h-3.8v-7.602h-1.26V7.227h1.26V3.993h3.8v3.234h2.163v3.171h-2.163zm3.592-3.171h3.801v1.764c.406-.644.903-1.134 1.491-1.47.588-.35 1.274-.525 2.058-.525h.315c.126 0 .266.014.42.042v3.633a3.611 3.611 0 00-1.638-.378c-.882 0-1.547.266-1.995.798-.434.518-.65 1.281-.65 2.289V18h-3.802V7.227zm13.433 5.355c0 .35.063.679.19.987.125.294.293.553.503.777.224.224.483.399.777.525.308.126.637.189.987.189.336 0 .651-.063.945-.189.308-.126.567-.301.777-.525.224-.224.4-.483.525-.777.14-.294.21-.609.21-.945 0-.336-.07-.651-.21-.945a2.399 2.399 0 00-.525-.798 2.179 2.179 0 00-.777-.525 2.373 2.373 0 00-.945-.189c-.35 0-.679.063-.987.189a2.457 2.457 0 00-.777.525c-.21.224-.378.483-.504.777-.126.28-.189.588-.189.924zm4.788-5.355h3.822V18H85.81v-1.197c-.812 1.022-1.91 1.533-3.297 1.533-.784 0-1.505-.14-2.163-.42a5.35 5.35 0 01-1.722-1.218 5.718 5.718 0 01-1.155-1.827 6.393 6.393 0 01-.399-2.289c0-.77.133-1.498.4-2.184.265-.7.636-1.309 1.112-1.827a5.118 5.118 0 011.701-1.218c.658-.308 1.386-.462 2.184-.462 1.344 0 2.457.469 3.34 1.407V7.227zm13.549 2.772c-.7-.364-1.386-.546-2.058-.546-.35 0-.637.07-.861.21a.65.65 0 00-.315.567c0 .126.014.231.042.315.042.07.119.14.231.21.126.07.301.133.525.189.238.056.546.126.924.21 1.05.21 1.834.588 2.352 1.134.518.532.777 1.218.777 2.058 0 .63-.126 1.197-.378 1.701a3.716 3.716 0 01-1.05 1.281c-.448.336-.987.595-1.617.777a6.973 6.973 0 01-2.079.294c-1.456 0-2.891-.413-4.305-1.239l1.386-2.688c1.064.728 2.072 1.092 3.024 1.092.35 0 .637-.077.861-.231.224-.154.336-.35.336-.588a.757.757 0 00-.063-.336.448.448 0 00-.21-.252c-.112-.084-.28-.154-.504-.21-.21-.07-.49-.14-.84-.21-1.176-.238-2.002-.588-2.478-1.05-.462-.476-.693-1.127-.693-1.953 0-.602.112-1.141.336-1.617.224-.49.546-.903.966-1.239.42-.336.924-.595 1.512-.777a6.874 6.874 0 011.995-.273c1.19 0 2.345.231 3.465.693l-1.281 2.478zm10.681-2.772h3.801v1.365c.518-.63 1.043-1.05 1.575-1.26.532-.224 1.155-.336 1.869-.336.756 0 1.4.126 1.932.378a3.746 3.746 0 011.386 1.029c.308.364.518.77.63 1.218.112.448.168.959.168 1.533V18h-3.801v-5.439c0-.532-.042-.959-.126-1.281-.07-.336-.203-.602-.399-.798a1.44 1.44 0 00-.567-.357 2.112 2.112 0 00-.672-.105c-.644 0-1.141.196-1.491.588-.336.378-.504.924-.504 1.638V18h-3.801V7.227zm17.537 5.334c0 .364.063.7.189 1.008.14.294.315.553.525.777.224.224.483.399.777.525.308.126.63.189.966.189.336 0 .651-.063.945-.189.308-.126.567-.301.777-.525.224-.224.399-.483.525-.777.14-.308.21-.637.21-.987 0-.336-.07-.651-.21-.945a2.399 2.399 0 00-.525-.798 2.179 2.179 0 00-.777-.525 2.373 2.373 0 00-.945-.189c-.336 0-.658.063-.966.189a2.457 2.457 0 00-.777.525c-.21.224-.385.483-.525.777a2.373 2.373 0 00-.189.945zm-4.011-.042c0-.798.161-1.54.483-2.226.322-.7.77-1.302 1.344-1.806a6.312 6.312 0 012.037-1.218 7.477 7.477 0 012.604-.441 7.24 7.24 0 012.562.441c.798.28 1.484.679 2.058 1.197a5.181 5.181 0 011.365 1.827c.322.7.483 1.477.483 2.331 0 .854-.168 1.638-.504 2.352-.322.7-.77 1.309-1.344 1.827-.574.504-1.267.896-2.079 1.176-.798.28-1.666.42-2.604.42-.924 0-1.778-.14-2.562-.42a6.028 6.028 0 01-2.037-1.197 5.655 5.655 0 01-1.323-1.848c-.322-.728-.483-1.533-.483-2.415zm30.387-1.806c-.658-.448-1.323-.672-1.995-.672-.364 0-.707.063-1.029.189a2.471 2.471 0 00-.819.546 2.45 2.45 0 00-.567.819 2.753 2.753 0 00-.189 1.05c0 .378.063.728.189 1.05.14.308.322.581.546.819.238.224.518.399.84.525.322.126.665.189 1.029.189.714 0 1.379-.245 1.995-.735v3.234c-.938.406-1.827.609-2.667.609a6.384 6.384 0 01-2.247-.399 5.92 5.92 0 01-1.869-1.134 5.866 5.866 0 01-1.281-1.785c-.322-.7-.483-1.477-.483-2.331 0-.854.154-1.631.462-2.331a5.463 5.463 0 011.26-1.827 5.51 5.51 0 011.89-1.197 6.383 6.383 0 012.373-.441c.924 0 1.778.196 2.562.588v3.234zm5.759 1.848c0 .364.063.7.189 1.008.14.294.315.553.525.777.224.224.483.399.777.525.308.126.63.189.966.189.336 0 .651-.063.945-.189.308-.126.567-.301.777-.525.224-.224.399-.483.525-.777.14-.308.21-.637.21-.987 0-.336-.07-.651-.21-.945a2.399 2.399 0 00-.525-.798 2.179 2.179 0 00-.777-.525 2.373 2.373 0 00-.945-.189c-.336 0-.658.063-.966.189a2.457 2.457 0 00-.777.525c-.21.224-.385.483-.525.777a2.373 2.373 0 00-.189.945zm-4.011-.042c0-.798.161-1.54.483-2.226.322-.7.77-1.302 1.344-1.806a6.312 6.312 0 012.037-1.218 7.477 7.477 0 012.604-.441 7.24 7.24 0 012.562.441c.798.28 1.484.679 2.058 1.197a5.181 5.181 0 011.365 1.827c.322.7.483 1.477.483 2.331 0 .854-.168 1.638-.504 2.352-.322.7-.77 1.309-1.344 1.827-.574.504-1.267.896-2.079 1.176-.798.28-1.666.42-2.604.42-.924 0-1.778-.14-2.562-.42a6.028 6.028 0 01-2.037-1.197 5.655 5.655 0 01-1.323-1.848c-.322-.728-.483-1.533-.483-2.415zm15.124-5.292h3.801V8.55c1.036-.994 2.198-1.491 3.486-1.491 1.596 0 2.814.672 3.654 2.016.854-1.358 2.072-2.037 3.654-2.037.504 0 .98.077 1.428.231.448.14.833.371 1.155.693.322.308.574.714.756 1.218.196.504.294 1.113.294 1.827V18h-3.801v-5.313c0-.546-.042-.994-.126-1.344-.07-.35-.182-.623-.336-.819a1.055 1.055 0 00-.504-.399 1.86 1.86 0 00-.63-.105c-1.218 0-1.827.889-1.827 2.667V18h-3.801v-5.313c0-.546-.035-.994-.105-1.344-.07-.364-.175-.651-.315-.861a.919.919 0 00-.504-.42 1.971 1.971 0 00-.735-.126c-.238 0-.462.035-.672.105-.21.07-.399.21-.567.42-.154.196-.28.476-.378.84-.084.35-.126.812-.126 1.386V18h-3.801V7.227zm29.795 5.418c0-.336-.063-.651-.189-.945a2.154 2.154 0 00-.504-.798 2.399 2.399 0 00-.798-.525 2.218 2.218 0 00-.966-.21c-.336 0-.651.063-.945.189a2.457 2.457 0 00-.777.525c-.21.224-.385.49-.525.798a2.373 2.373 0 00-.189.945c0 .336.063.651.189.945.126.294.301.553.525.777.224.21.483.385.777.525.308.126.63.189.966.189.336 0 .651-.063.945-.189.294-.126.546-.301.756-.525.224-.224.399-.483.525-.777.14-.294.21-.602.21-.924zm-4.788 10.731h-3.801V7.227h3.801v1.197c.812-1.022 1.918-1.533 3.318-1.533.77 0 1.484.154 2.142.462a5.29 5.29 0 011.743 1.218c.49.518.868 1.127 1.134 1.827.28.7.42 1.449.42 2.247 0 .798-.14 1.54-.42 2.226a5.484 5.484 0 01-1.134 1.806 5.118 5.118 0 01-1.701 1.218 5.19 5.19 0 01-2.142.441c-1.344 0-2.464-.462-3.36-1.386v6.426zm14.451-10.794c0 .35.063.679.189.987.126.294.294.553.504.777.224.224.483.399.777.525.308.126.637.189.987.189.336 0 .651-.063.945-.189.308-.126.567-.301.777-.525.224-.224.399-.483.525-.777.14-.294.21-.609.21-.945 0-.336-.07-.651-.21-.945a2.399 2.399 0 00-.525-.798 2.179 2.179 0 00-.777-.525 2.373 2.373 0 00-.945-.189c-.35 0-.679.063-.987.189a2.457 2.457 0 00-.777.525c-.21.224-.378.483-.504.777-.126.28-.189.588-.189.924zm4.788-5.355h3.822V18h-3.822v-1.197c-.812 1.022-1.911 1.533-3.297 1.533-.784 0-1.505-.14-2.163-.42a5.35 5.35 0 01-1.722-1.218 5.718 5.718 0 01-1.155-1.827 6.393 6.393 0 01-.399-2.289c0-.77.133-1.498.399-2.184.266-.7.637-1.309 1.113-1.827a5.118 5.118 0 011.701-1.218c.658-.308 1.386-.462 2.184-.462 1.344 0 2.457.469 3.339 1.407V7.227zm6.409 0h3.801v1.764c.406-.644.903-1.134 1.491-1.47.588-.35 1.274-.525 2.058-.525h.315c.126 0 .266.014.42.042v3.633a3.611 3.611 0 00-1.638-.378c-.882 0-1.547.266-1.995.798-.434.518-.651 1.281-.651 2.289V18h-3.801V7.227zm14.414 3.171V18h-3.801v-7.602h-1.26V7.227h1.26V3.993h3.801v3.234h2.163v3.171h-2.163zm7.68-3.171V18h-3.801V7.227h3.801zM239.52 3.09c0-.294.056-.567.168-.819.112-.266.266-.497.462-.693.196-.196.42-.35.672-.462a2.143 2.143 0 012.814 1.155 2.143 2.143 0 010 1.659 2.215 2.215 0 01-.462.672c-.196.196-.427.35-.693.462a2.143 2.143 0 01-1.659 0 2.215 2.215 0 01-.672-.462 2.215 2.215 0 01-.462-.672 2.143 2.143 0 01-.168-.84zm6.65 4.137h3.801V8.55c1.036-.994 2.198-1.491 3.486-1.491 1.596 0 2.814.672 3.654 2.016.854-1.358 2.072-2.037 3.654-2.037.504 0 .98.077 1.428.231.448.14.833.371 1.155.693.322.308.574.714.756 1.218.196.504.294 1.113.294 1.827V18h-3.801v-5.313c0-.546-.042-.994-.126-1.344-.07-.35-.182-.623-.336-.819a1.055 1.055 0 00-.504-.399 1.86 1.86 0 00-.63-.105c-1.218 0-1.827.889-1.827 2.667V18h-3.801v-5.313c0-.546-.035-.994-.105-1.344-.07-.364-.175-.651-.315-.861a.919.919 0 00-.504-.42 1.971 1.971 0 00-.735-.126c-.238 0-.462.035-.672.105-.21.07-.399.21-.567.42-.154.196-.28.476-.378.84-.084.35-.126.812-.126 1.386V18h-3.801V7.227zm24.427 5.334c0 .364.063.7.189 1.008.14.294.315.553.525.777.224.224.483.399.777.525.308.126.63.189.966.189.336 0 .651-.063.945-.189.308-.126.567-.301.777-.525.224-.224.399-.483.525-.777.14-.308.21-.637.21-.987 0-.336-.07-.651-.21-.945a2.399 2.399 0 00-.525-.798 2.179 2.179 0 00-.777-.525 2.373 2.373 0 00-.945-.189c-.336 0-.658.063-.966.189a2.457 2.457 0 00-.777.525c-.21.224-.385.483-.525.777a2.373 2.373 0 00-.189.945zm-4.011-.042c0-.798.161-1.54.483-2.226.322-.7.77-1.302 1.344-1.806a6.312 6.312 0 012.037-1.218 7.477 7.477 0 012.604-.441 7.24 7.24 0 012.562.441c.798.28 1.484.679 2.058 1.197a5.181 5.181 0 011.365 1.827c.322.7.483 1.477.483 2.331 0 .854-.168 1.638-.504 2.352-.322.7-.77 1.309-1.344 1.827-.574.504-1.267.896-2.079 1.176-.798.28-1.666.42-2.604.42-.924 0-1.778-.14-2.562-.42a6.028 6.028 0 01-2.037-1.197 5.655 5.655 0 01-1.323-1.848c-.322-.728-.483-1.533-.483-2.415zm22.264-2.52c-.7-.364-1.386-.546-2.058-.546-.35 0-.637.07-.861.21a.65.65 0 00-.315.567c0 .126.014.231.042.315.042.07.119.14.231.21.126.07.301.133.525.189.238.056.546.126.924.21 1.05.21 1.834.588 2.352 1.134.518.532.777 1.218.777 2.058 0 .63-.126 1.197-.378 1.701a3.716 3.716 0 01-1.05 1.281c-.448.336-.987.595-1.617.777a6.973 6.973 0 01-2.079.294c-1.456 0-2.891-.413-4.305-1.239l1.386-2.688c1.064.728 2.072 1.092 3.024 1.092.35 0 .637-.077.861-.231.224-.154.336-.35.336-.588a.757.757 0 00-.063-.336.448.448 0 00-.21-.252c-.112-.084-.28-.154-.504-.21-.21-.07-.49-.14-.84-.21-1.176-.238-2.002-.588-2.478-1.05-.462-.476-.693-1.127-.693-1.953 0-.602.112-1.141.336-1.617.224-.49.546-.903.966-1.239.42-.336.924-.595 1.512-.777a6.874 6.874 0 011.995-.273c1.19 0 2.345.231 3.465.693l-1.281 2.478zm10.681-2.772h3.801v1.365c.518-.63 1.043-1.05 1.575-1.26.532-.224 1.155-.336 1.869-.336.756 0 1.4.126 1.932.378a3.746 3.746 0 011.386 1.029c.308.364.518.77.63 1.218.112.448.168.959.168 1.533V18h-3.801v-5.439c0-.532-.042-.959-.126-1.281-.07-.336-.203-.602-.399-.798a1.44 1.44 0 00-.567-.357 2.112 2.112 0 00-.672-.105c-.644 0-1.141.196-1.491.588-.336.378-.504.924-.504 1.638V18h-3.801V7.227zm17.747 0v6.069c0 1.33.644 1.995 1.932 1.995 1.288 0 1.932-.665 1.932-1.995V7.227h3.801v6.804c0 1.456-.483 2.548-1.449 3.276-.952.728-2.38 1.092-4.284 1.092s-3.339-.364-4.305-1.092c-.952-.728-1.428-1.82-1.428-3.276V7.227h3.801zm18.122 3.822c-.126-.532-.385-.959-.777-1.281-.392-.322-.868-.483-1.428-.483-.588 0-1.071.154-1.449.462-.364.308-.595.742-.693 1.302h4.347zm-4.452 2.205c0 1.638.77 2.457 2.31 2.457.826 0 1.449-.336 1.869-1.008h3.675c-.742 2.464-2.597 3.696-5.565 3.696-.91 0-1.743-.133-2.499-.399a5.824 5.824 0 01-1.953-1.176 5.263 5.263 0 01-1.239-1.806c-.294-.7-.441-1.484-.441-2.352 0-.896.14-1.701.42-2.415a5.084 5.084 0 011.197-1.848 5.2 5.2 0 011.869-1.155c.742-.28 1.575-.42 2.499-.42.91 0 1.729.14 2.457.42a4.866 4.866 0 011.848 1.176c.504.518.889 1.155 1.155 1.911.266.742.399 1.582.399 2.52v.399h-8.001zm17.313-3.255c-.7-.364-1.386-.546-2.058-.546-.35 0-.637.07-.861.21a.65.65 0 00-.315.567c0 .126.014.231.042.315.042.07.119.14.231.21.126.07.301.133.525.189.238.056.546.126.924.21 1.05.21 1.834.588 2.352 1.134.518.532.777 1.218.777 2.058 0 .63-.126 1.197-.378 1.701a3.716 3.716 0 01-1.05 1.281c-.448.336-.987.595-1.617.777a6.973 6.973 0 01-2.079.294c-1.456 0-2.891-.413-4.305-1.239l1.386-2.688c1.064.728 2.072 1.092 3.024 1.092.35 0 .637-.077.861-.231.224-.154.336-.35.336-.588a.757.757 0 00-.063-.336.448.448 0 00-.21-.252c-.112-.084-.28-.154-.504-.21-.21-.07-.49-.14-.84-.21-1.176-.238-2.002-.588-2.478-1.05-.462-.476-.693-1.127-.693-1.953 0-.602.112-1.141.336-1.617.224-.49.546-.903.966-1.239.42-.336.924-.595 1.512-.777a6.874 6.874 0 011.995-.273c1.19 0 2.345.231 3.465.693l-1.281 2.478zm8.074.399V18h-3.801v-7.602h-1.26V7.227h1.26V3.993h3.801v3.234h2.163v3.171h-2.163zm3.592-3.171h3.801v1.764c.406-.644.903-1.134 1.491-1.47.588-.35 1.274-.525 2.058-.525h.315c.126 0 .266.014.42.042v3.633a3.611 3.611 0 00-1.638-.378c-.882 0-1.547.266-1.995.798-.434.518-.651 1.281-.651 2.289V18h-3.801V7.227zm13.455 5.334c0 .364.063.7.189 1.008.14.294.315.553.525.777.224.224.483.399.777.525.308.126.63.189.966.189.336 0 .651-.063.945-.189.308-.126.567-.301.777-.525.224-.224.399-.483.525-.777.14-.308.21-.637.21-.987 0-.336-.07-.651-.21-.945a2.399 2.399 0 00-.525-.798 2.179 2.179 0 00-.777-.525 2.373 2.373 0 00-.945-.189c-.336 0-.658.063-.966.189a2.457 2.457 0 00-.777.525c-.21.224-.385.483-.525.777a2.373 2.373 0 00-.189.945zm-4.011-.042c0-.798.161-1.54.483-2.226.322-.7.77-1.302 1.344-1.806a6.312 6.312 0 012.037-1.218 7.477 7.477 0 012.604-.441 7.24 7.24 0 012.562.441c.798.28 1.484.679 2.058 1.197a5.181 5.181 0 011.365 1.827c.322.7.483 1.477.483 2.331 0 .854-.168 1.638-.504 2.352-.322.7-.77 1.309-1.344 1.827-.574.504-1.267.896-2.079 1.176-.798.28-1.666.42-2.604.42-.924 0-1.778-.14-2.562-.42a6.028 6.028 0 01-2.037-1.197 5.655 5.655 0 01-1.323-1.848c-.322-.728-.483-1.533-.483-2.415zm22.261-5.292h3.801v1.365c.518-.63 1.043-1.05 1.575-1.26.532-.224 1.155-.336 1.869-.336.756 0 1.4.126 1.932.378a3.746 3.746 0 011.386 1.029c.308.364.518.77.63 1.218.112.448.168.959.168 1.533V18h-3.801v-5.439c0-.532-.042-.959-.126-1.281-.07-.336-.203-.602-.399-.798a1.44 1.44 0 00-.567-.357 2.112 2.112 0 00-.672-.105c-.644 0-1.141.196-1.491.588-.336.378-.504.924-.504 1.638V18h-3.801V7.227zm17.746 0v6.069c0 1.33.644 1.995 1.932 1.995 1.288 0 1.932-.665 1.932-1.995V7.227h3.801v6.804c0 1.456-.483 2.548-1.449 3.276-.952.728-2.38 1.092-4.284 1.092s-3.339-.364-4.305-1.092c-.952-.728-1.428-1.82-1.428-3.276V7.227h3.801zm5.586-4.809l-3.654 3.234-1.764-1.302 3.003-3.675 2.415 1.743zm4.661 4.809h3.801V8.55c1.036-.994 2.198-1.491 3.486-1.491 1.596 0 2.814.672 3.654 2.016.854-1.358 2.072-2.037 3.654-2.037.504 0 .98.077 1.428.231.448.14.833.371 1.155.693.322.308.574.714.756 1.218.196.504.294 1.113.294 1.827V18h-3.801v-5.313c0-.546-.042-.994-.126-1.344-.07-.35-.182-.623-.336-.819a1.055 1.055 0 00-.504-.399 1.86 1.86 0 00-.63-.105c-1.218 0-1.827.889-1.827 2.667V18h-3.801v-5.313c0-.546-.035-.994-.105-1.344-.07-.364-.175-.651-.315-.861a.919.919 0 00-.504-.42 1.971 1.971 0 00-.735-.126c-.238 0-.462.035-.672.105-.21.07-.399.21-.567.42-.154.196-.28.476-.378.84-.084.35-.126.812-.126 1.386V18h-3.801V7.227zm28.711 3.822c-.126-.532-.385-.959-.777-1.281-.392-.322-.868-.483-1.428-.483-.588 0-1.071.154-1.449.462-.364.308-.595.742-.693 1.302h4.347zm-4.452 2.205c0 1.638.77 2.457 2.31 2.457.826 0 1.449-.336 1.869-1.008h3.675c-.742 2.464-2.597 3.696-5.565 3.696-.91 0-1.743-.133-2.499-.399a5.824 5.824 0 01-1.953-1.176 5.263 5.263 0 01-1.239-1.806c-.294-.7-.441-1.484-.441-2.352 0-.896.14-1.701.42-2.415a5.084 5.084 0 011.197-1.848 5.2 5.2 0 011.869-1.155c.742-.28 1.575-.42 2.499-.42.91 0 1.729.14 2.457.42a4.866 4.866 0 011.848 1.176c.504.518.889 1.155 1.155 1.911.266.742.399 1.582.399 2.52v.399h-8.001zm10.174-6.027h3.801v1.764c.406-.644.903-1.134 1.491-1.47.588-.35 1.274-.525 2.058-.525h.315c.126 0 .266.014.42.042v3.633a3.611 3.611 0 00-1.638-.378c-.882 0-1.547.266-1.995.798-.434.518-.651 1.281-.651 2.289V18h-3.801V7.227zm13.455 5.334c0 .364.063.7.189 1.008.14.294.315.553.525.777.224.224.483.399.777.525.308.126.63.189.966.189.336 0 .651-.063.945-.189.308-.126.567-.301.777-.525.224-.224.399-.483.525-.777.14-.308.21-.637.21-.987 0-.336-.07-.651-.21-.945a2.399 2.399 0 00-.525-.798 2.179 2.179 0 00-.777-.525 2.373 2.373 0 00-.945-.189c-.336 0-.658.063-.966.189a2.457 2.457 0 00-.777.525c-.21.224-.385.483-.525.777a2.373 2.373 0 00-.189.945zm-4.011-.042c0-.798.161-1.54.483-2.226.322-.7.77-1.302 1.344-1.806a6.312 6.312 0 012.037-1.218 7.477 7.477 0 012.604-.441 7.24 7.24 0 012.562.441c.798.28 1.484.679 2.058 1.197a5.181 5.181 0 011.365 1.827c.322.7.483 1.477.483 2.331 0 .854-.168 1.638-.504 2.352-.322.7-.77 1.309-1.344 1.827-.574.504-1.267.896-2.079 1.176-.798.28-1.666.42-2.604.42-.924 0-1.778-.14-2.562-.42a6.028 6.028 0 01-2.037-1.197 5.655 5.655 0 01-1.323-1.848c-.322-.728-.483-1.533-.483-2.415zm25.789.063c0 .35.063.679.189.987.126.294.294.553.504.777.224.224.483.399.777.525.308.126.637.189.987.189.336 0 .651-.063.945-.189.308-.126.567-.301.777-.525.224-.224.399-.483.525-.777.14-.294.21-.609.21-.945 0-.336-.07-.651-.21-.945a2.399 2.399 0 00-.525-.798 2.179 2.179 0 00-.777-.525 2.373 2.373 0 00-.945-.189c-.336 0-.658.063-.966.189a2.457 2.457 0 00-.777.525c-.21.224-.385.483-.525.777-.126.28-.189.588-.189.924zM494.079.57h3.822V18h-3.822v-1.197c-.812 1.022-1.911 1.533-3.297 1.533a5.242 5.242 0 01-3.885-1.659 5.718 5.718 0 01-1.155-1.827 6.332 6.332 0 01-.399-2.268c0-.77.126-1.498.378-2.184.266-.7.637-1.309 1.113-1.827a5.118 5.118 0 011.701-1.218 5.228 5.228 0 012.205-.462c1.344 0 2.457.469 3.339 1.407V.57zm14.284 10.479c-.126-.532-.385-.959-.777-1.281-.392-.322-.868-.483-1.428-.483-.588 0-1.071.154-1.449.462-.364.308-.595.742-.693 1.302h4.347zm-4.452 2.205c0 1.638.77 2.457 2.31 2.457.826 0 1.449-.336 1.869-1.008h3.675c-.742 2.464-2.597 3.696-5.565 3.696-.91 0-1.743-.133-2.499-.399a5.824 5.824 0 01-1.953-1.176 5.263 5.263 0 01-1.239-1.806c-.294-.7-.441-1.484-.441-2.352 0-.896.14-1.701.42-2.415a5.084 5.084 0 011.197-1.848 5.2 5.2 0 011.869-1.155c.742-.28 1.575-.42 2.499-.42.91 0 1.729.14 2.457.42a4.866 4.866 0 011.848 1.176c.504.518.889 1.155 1.155 1.911.266.742.399 1.582.399 2.52v.399h-8.001zM520.864 18l2.688-15.834h4.074l3.171 8.442 3.15-8.442h4.074L540.709 18h-4.095l-1.365-9.114L531.511 18h-1.638l-3.549-9.114L524.959 18h-4.095zm29.396-6.951c-.126-.532-.385-.959-.777-1.281-.392-.322-.868-.483-1.428-.483-.588 0-1.071.154-1.449.462-.364.308-.595.742-.693 1.302h4.347zm-4.452 2.205c0 1.638.77 2.457 2.31 2.457.826 0 1.449-.336 1.869-1.008h3.675c-.742 2.464-2.597 3.696-5.565 3.696-.91 0-1.743-.133-2.499-.399a5.824 5.824 0 01-1.953-1.176 5.263 5.263 0 01-1.239-1.806c-.294-.7-.441-1.484-.441-2.352 0-.896.14-1.701.42-2.415a5.084 5.084 0 011.197-1.848 5.2 5.2 0 011.869-1.155c.742-.28 1.575-.42 2.499-.42.91 0 1.729.14 2.457.42a4.866 4.866 0 011.848 1.176c.504.518.889 1.155 1.155 1.911.266.742.399 1.582.399 2.52v.399h-8.001zm13.702-.672c0 .35.063.679.189.987.126.294.294.553.504.777.224.224.483.399.777.525.308.126.637.189.987.189.336 0 .651-.063.945-.189.308-.126.567-.301.777-.525.224-.224.399-.483.525-.777.14-.294.21-.609.21-.945 0-.336-.07-.651-.21-.945a2.399 2.399 0 00-.525-.798 2.179 2.179 0 00-.777-.525 2.373 2.373 0 00-.945-.189c-.336 0-.658.063-.966.189a2.457 2.457 0 00-.777.525c-.21.224-.385.483-.525.777-.126.28-.189.588-.189.924zM564.298.57h3.822V18h-3.822v-1.197c-.812 1.022-1.911 1.533-3.297 1.533a5.242 5.242 0 01-3.885-1.659 5.718 5.718 0 01-1.155-1.827 6.332 6.332 0 01-.399-2.268c0-.77.126-1.498.378-2.184.266-.7.637-1.309 1.113-1.827a5.118 5.118 0 011.701-1.218 5.228 5.228 0 012.205-.462c1.344 0 2.457.469 3.339 1.407V.57zm10.209 6.657V18h-3.801V7.227h3.801zm-4.053-4.137c0-.294.056-.567.168-.819.112-.266.266-.497.462-.693.196-.196.42-.35.672-.462a2.143 2.143 0 012.814 1.155 2.143 2.143 0 010 1.659 2.215 2.215 0 01-.462.672c-.196.196-.427.35-.693.462a2.143 2.143 0 01-1.659 0 2.215 2.215 0 01-.672-.462 2.215 2.215 0 01-.462-.672 2.143 2.143 0 01-.168-.84zm14.778 7.623c-.658-.448-1.323-.672-1.995-.672-.364 0-.707.063-1.029.189a2.471 2.471 0 00-.819.546 2.45 2.45 0 00-.567.819 2.753 2.753 0 00-.189 1.05c0 .378.063.728.189 1.05.14.308.322.581.546.819.238.224.518.399.84.525.322.126.665.189 1.029.189.714 0 1.379-.245 1.995-.735v3.234c-.938.406-1.827.609-2.667.609a6.384 6.384 0 01-2.247-.399 5.92 5.92 0 01-1.869-1.134 5.866 5.866 0 01-1.281-1.785c-.322-.7-.483-1.477-.483-2.331 0-.854.154-1.631.462-2.331a5.463 5.463 0 011.26-1.827 5.51 5.51 0 011.89-1.197 6.383 6.383 0 012.373-.441c.924 0 1.778.196 2.562.588v3.234zm5.696 1.869c0 .35.063.679.189.987.126.294.294.553.504.777.224.224.483.399.777.525.308.126.637.189.987.189.336 0 .651-.063.945-.189.308-.126.567-.301.777-.525.224-.224.399-.483.525-.777.14-.294.21-.609.21-.945 0-.336-.07-.651-.21-.945a2.399 2.399 0 00-.525-.798 2.179 2.179 0 00-.777-.525 2.373 2.373 0 00-.945-.189c-.35 0-.679.063-.987.189a2.457 2.457 0 00-.777.525c-.21.224-.378.483-.504.777-.126.28-.189.588-.189.924zm4.788-5.355h3.822V18h-3.822v-1.197c-.812 1.022-1.911 1.533-3.297 1.533-.784 0-1.505-.14-2.163-.42a5.35 5.35 0 01-1.722-1.218 5.718 5.718 0 01-1.155-1.827 6.393 6.393 0 01-.399-2.289c0-.77.133-1.498.399-2.184.266-.7.637-1.309 1.113-1.827a5.118 5.118 0 011.701-1.218c.658-.308 1.386-.462 2.184-.462 1.344 0 2.457.469 3.339 1.407V7.227zm6.408 0h3.801v1.764c.406-.644.903-1.134 1.491-1.47.588-.35 1.274-.525 2.058-.525h.315c.126 0 .266.014.42.042v3.633a3.611 3.611 0 00-1.638-.378c-.882 0-1.547.266-1.995.798-.434.518-.651 1.281-.651 2.289V18h-3.801V7.227zm17.781 3.822c-.126-.532-.385-.959-.777-1.281-.392-.322-.868-.483-1.428-.483-.588 0-1.071.154-1.449.462-.364.308-.595.742-.693 1.302h4.347zm-4.452 2.205c0 1.638.77 2.457 2.31 2.457.826 0 1.449-.336 1.869-1.008h3.675c-.742 2.464-2.597 3.696-5.565 3.696-.91 0-1.743-.133-2.499-.399a5.824 5.824 0 01-1.953-1.176 5.263 5.263 0 01-1.239-1.806c-.294-.7-.441-1.484-.441-2.352 0-.896.14-1.701.42-2.415a5.084 5.084 0 011.197-1.848 5.2 5.2 0 011.869-1.155c.742-.28 1.575-.42 2.499-.42.91 0 1.729.14 2.457.42a4.866 4.866 0 011.848 1.176c.504.518.889 1.155 1.155 1.911.266.742.399 1.582.399 2.52v.399h-8.001zm9.984 2.73c0-.336.063-.651.189-.945a2.399 2.399 0 011.302-1.323c.308-.126.63-.189.966-.189.336 0 .651.063.945.189.308.126.574.301.798.525.224.224.399.49.525.798.126.294.189.609.189.945 0 .336-.063.658-.189.966a2.399 2.399 0 01-1.323 1.302 2.373 2.373 0 01-.945.189c-.336 0-.658-.063-.966-.189a2.457 2.457 0 01-1.302-1.302 2.527 2.527 0 01-.189-.966z" fill="#fff"/></svg>