<svg width="322" height="29" viewBox="0 0 322 29" fill="none" xmlns="http://www.w3.org/2000/svg"><path d="M16.204 16.123H3.748c.181 1.104.66 1.983 1.44 2.633.781.652 1.779.977 2.99.977 1.45 0 2.695-.51 3.738-1.526l3.266 1.54c-.814 1.162-1.79 2.018-2.926 2.576-1.137.557-2.486.834-4.047.834-2.424 0-4.397-.767-5.921-2.304C.764 19.315 0 17.392 0 15.079s.76-4.337 2.28-5.902C3.797 7.612 5.703 6.83 7.997 6.83c2.432 0 4.41.784 5.935 2.346 1.524 1.565 2.288 3.631 2.288 6.202l-.014.742-.003.003zm-3.876-3.068a3.898 3.898 0 00-1.516-2.111c-.755-.544-1.627-.815-2.625-.815-1.081 0-2.029.305-2.845.913-.513.38-.986 1.05-1.424 2.013h8.41zM28.293 9.4l-2.4 2.411c-.974-.971-1.86-1.456-2.655-1.456-.434 0-.777.093-1.023.278-.247.184-.367.417-.367.691 0 .21.078.403.234.577.156.176.54.417 1.156.72l1.421.713c1.497.742 2.525 1.498 3.082 2.268.558.77.84 1.675.84 2.71 0 1.381-.505 2.532-1.514 3.453-1.009.924-2.36 1.383-4.055 1.383-2.254 0-4.051-.884-5.397-2.654L20 17.882c.454.532.987.963 1.597 1.29.61.328 1.154.493 1.627.493.513 0 .923-.123 1.235-.37.312-.246.468-.531.468-.856 0-.6-.563-1.185-1.689-1.756l-1.307-.655c-2.5-1.265-3.748-2.85-3.748-4.751 0-1.227.471-2.277 1.413-3.148.942-.87 2.149-1.304 3.614-1.304a6.26 6.26 0 015.086 2.567l-.003.009zM32.351 18.688a2.15 2.15 0 011.577.65c.435.433.652.957.652 1.576 0 .618-.217 1.148-.652 1.584a2.145 2.145 0 01-1.577.656 2.15 2.15 0 01-1.577-.656 2.165 2.165 0 01-.652-1.584c0-.62.217-1.146.652-1.577a2.15 2.15 0 011.577-.65zM40.825 1.767h3.873l4.846 14.644 4.888-14.644h3.873l3.509 20.994H57.97L55.73 9.503l-4.442 13.258H47.78L43.383 9.503l-2.294 13.258h-3.881l3.617-20.994zM79.888 16.127H67.43c.178 1.106.66 1.982 1.44 2.635.781.649 1.779.977 2.994.977 1.449 0 2.694-.51 3.737-1.53l3.268 1.544c-.813 1.159-1.789 2.021-2.928 2.578-1.137.558-2.486.835-4.05.835-2.424 0-4.397-.767-5.924-2.305-1.524-1.537-2.288-3.46-2.288-5.77 0-2.31.758-4.337 2.28-5.9 1.521-1.562 3.427-2.346 5.718-2.346 2.433 0 4.411.784 5.936 2.346 1.524 1.568 2.287 3.632 2.287 6.2l-.013.741h-.006l.005-.005zm-3.88-3.069a3.912 3.912 0 00-1.515-2.111c-.756-.543-1.628-.815-2.625-.815-1.082 0-2.03.305-2.848.913-.513.38-.99 1.053-1.424 2.013h8.412zM94.085 1.235h3.88v21.52h-3.88v-1.64c-.758.722-1.516 1.246-2.276 1.562a6.376 6.376 0 01-2.478.479c-1.995 0-3.72-.779-5.177-2.333-1.458-1.553-2.188-3.488-2.188-5.801s.702-4.362 2.115-5.897c1.41-1.531 3.118-2.298 5.136-2.298.928 0 1.797.176 2.611.526.814.35 1.563.882 2.254 1.585V1.235h.003zm-4.08 9.192c-1.198 0-2.195.423-2.987 1.277-.791.851-1.19 1.943-1.19 3.276 0 1.333.404 2.444 1.21 3.31.805.865 1.797 1.296 2.979 1.296 1.181 0 2.23-.423 3.029-1.277.802-.851 1.2-1.966 1.2-3.349 0-1.383-.4-2.444-1.2-3.284-.803-.834-1.814-1.254-3.043-1.254v.005h.003zM103.448.837c.678 0 1.263.25 1.748.742.484.496.73 1.095.73 1.798 0 .703-.243 1.288-.725 1.778-.482.487-1.056.736-1.725.736s-1.279-.249-1.764-.75a2.52 2.52 0 01-.73-1.82c0-.714.24-1.271.719-1.756a2.369 2.369 0 011.742-.728h.005zm-1.939 6.393h3.879v15.525h-3.879V7.23zM123.923 10.374l-3.227 1.786c-.605-.638-1.207-1.078-1.798-1.327-.593-.25-1.287-.372-2.084-.372-1.449 0-2.625.43-3.52 1.302-.894.868-1.343 1.982-1.343 3.34 0 1.358.429 2.397 1.296 3.237.861.834 1.995 1.254 3.4 1.254 1.733 0 3.084-.596 4.051-1.786l3.055 2.102c-1.658 2.168-3.996 3.251-7.02 3.251-2.72 0-4.846-.809-6.384-2.427-1.538-1.619-2.31-3.511-2.31-5.681 0-1.504.376-2.887 1.12-4.153.75-1.262 1.795-2.26 3.132-2.984 1.338-.723 2.84-1.084 4.495-1.084 1.535 0 2.912.308 4.133.921a7.807 7.807 0 012.995 2.62v.007l.009-.006zM137.398 7.229h3.879v15.525h-3.879v-1.64c-.758.722-1.516 1.246-2.277 1.562a6.373 6.373 0 01-2.477.479c-1.995 0-3.72-.779-5.178-2.332-1.457-1.554-2.187-3.49-2.187-5.802 0-2.313.702-4.362 2.115-5.897 1.41-1.531 3.118-2.298 5.136-2.298.928 0 1.797.176 2.611.526.813.35 1.563.882 2.254 1.585V7.223v.006h.003zm-4.08 3.197c-1.198 0-2.196.423-2.987 1.277-.791.851-1.19 1.943-1.19 3.276 0 1.333.404 2.444 1.21 3.31.805.865 1.797 1.296 2.978 1.296 1.182 0 2.23-.423 3.03-1.277.802-.851 1.201-1.965 1.201-3.348 0-1.384-.402-2.445-1.201-3.285-.803-.834-1.815-1.254-3.043-1.254v.005h.002zM144.568 7.23h3.324v1.957c.357-.77.839-1.358 1.435-1.756a3.463 3.463 0 011.959-.599c.502 0 1.028.132 1.577.398l-1.206 3.351c-.457-.227-.828-.341-1.12-.341-.597 0-1.101.372-1.514 1.114-.412.742-.618 2.198-.618 4.368l.014.759v6.28h-3.849V7.23h-.005.003zM169.461 16.127h-12.456c.178 1.106.66 1.982 1.441 2.635.78.649 1.777.977 2.992.977 1.449 0 2.695-.51 3.737-1.53l3.269 1.544c-.814 1.159-1.789 2.021-2.929 2.578-1.137.558-2.485.835-4.049.835-2.424 0-4.397-.767-5.924-2.305-1.524-1.537-2.288-3.46-2.288-5.77 0-2.31.758-4.337 2.279-5.9 1.522-1.562 3.428-2.346 5.719-2.346 2.432 0 4.411.784 5.935 2.346 1.525 1.568 2.288 3.632 2.288 6.2l-.014.741h-.005l.005-.005zm-3.879-3.069a3.907 3.907 0 00-1.516-2.111c-.752-.54-1.627-.815-2.625-.815-1.081 0-2.029.305-2.848.913-.513.38-.989 1.053-1.424 2.013h8.413zM173.457 18.692c.613 0 1.143.218 1.577.65.435.43.653.96.653 1.576a2.17 2.17 0 01-.653 1.585 2.148 2.148 0 01-1.577.655 2.15 2.15 0 01-1.577-.655 2.16 2.16 0 01-.652-1.585c0-.621.217-1.142.652-1.576.435-.431.964-.65 1.577-.65zM189.907 7.23h3.865v13.3c0 2.624-.523 4.555-1.577 5.793-1.41 1.674-3.536 2.514-6.378 2.514-1.516 0-2.787-.187-3.824-.568-1.031-.38-1.906-.938-2.611-1.677-.71-.736-1.234-1.635-1.577-2.688h4.275c.379.437.863.767 1.463.994.596.224 1.304.333 2.117.333 1.04 0 1.879-.162 2.514-.484.635-.325 1.081-.742 1.343-1.255.259-.515.393-1.4.393-2.654-.683.686-1.399 1.179-2.143 1.478-.749.3-1.594.451-2.544.451-2.076 0-3.826-.75-5.256-2.257-1.426-1.503-2.143-3.404-2.143-5.709 0-2.46.758-4.443 2.272-5.938 1.371-1.35 3.012-2.025 4.912-2.025a6.47 6.47 0 012.522.493c.792.33 1.586.868 2.377 1.619V7.23zm-4.018 3.243c-1.223 0-2.229.411-3.026 1.232-.797.823-1.193 1.859-1.193 3.105s.41 2.354 1.223 3.18c.814.827 1.837 1.24 3.068 1.24 1.232 0 2.196-.402 2.974-1.212.78-.809 1.173-1.87 1.173-3.18s-.393-2.347-1.182-3.156c-.783-.809-1.797-1.212-3.037-1.212v.003zM204.71 6.833c1.457 0 2.828.37 4.113 1.1 1.282.734 2.285 1.726 3.004 2.986a8.048 8.048 0 011.078 4.068 8.219 8.219 0 01-1.086 4.11 7.825 7.825 0 01-2.963 2.988c-1.248.72-2.63 1.078-4.132 1.078-2.215 0-4.108-.793-5.677-2.378-1.568-1.584-2.351-3.505-2.351-5.77 0-2.428.886-4.45 2.655-6.068 1.552-1.408 3.336-2.11 5.356-2.11l.006-.006-.003.002zm.064 3.671c-1.207 0-2.207.42-3.01 1.263-.802.843-1.201 1.918-1.201 3.234s.396 2.444 1.19 3.284c.792.84 1.795 1.254 3.01 1.254 1.215 0 2.224-.422 3.029-1.27.805-.85 1.209-1.935 1.209-3.268 0-1.333-.395-2.417-1.19-3.245-.791-.832-1.802-1.252-3.037-1.252zM213.295 7.23h3.951l3.904 9.164 3.896-9.164h3.929l-6.576 15.525h-2.514L213.292 7.23h.005-.002z" fill="#A6DAFC"/><path d="M229.594 26.518l9.433-25.482h2.79l-9.45 25.482h-2.773zM245.863 1.64h11.57v3.92h-7.599v3.833h4.938v3.86h-4.938v9.504h-3.971V1.637v.003zM259.473 7.139h3.344v1.966c.362-.776.844-1.364 1.443-1.767a3.458 3.458 0 011.973-.602c.504 0 1.034.134 1.586.403l-1.215 3.374c-.457-.23-.834-.344-1.129-.344-.599 0-1.106.372-1.521 1.12-.416.747-.622 2.212-.622 4.393l.014.761v6.317h-3.871V7.139h-.002zM281.22 7.139h3.902v15.62h-3.902v-1.651c-.761.728-1.524 1.251-2.29 1.57a6.37 6.37 0 01-2.492.482c-2.006 0-3.745-.781-5.208-2.346-1.466-1.565-2.199-3.511-2.199-5.835s.708-4.388 2.127-5.93c1.418-1.54 3.14-2.313 5.166-2.313.934 0 1.809.176 2.625.532.819.355 1.575.885 2.268 1.593V7.139h.003zm-4.099 3.217c-1.207 0-2.207.428-3.004 1.285-.797.857-1.195 1.955-1.195 3.296 0 1.341.406 2.461 1.217 3.332.811.87 1.812 1.307 2.999 1.307s2.24-.428 3.048-1.285c.808-.857 1.21-1.98 1.21-3.365 0-1.386-.404-2.459-1.21-3.302-.808-.842-1.828-1.262-3.062-1.262l-.003-.006zM289.05 7.136h3.943v7.523c0 1.465.101 2.481.301 3.052.201.569.524 1.014.967 1.327.443.314.99.474 1.642.474.652 0 1.201-.157 1.655-.468.454-.31.791-.767 1.009-1.372.161-.45.242-1.411.242-2.887V7.133h3.901v6.62c0 2.726-.214 4.594-.643 5.599-.524 1.226-1.296 2.164-2.316 2.822-1.02.655-2.316.983-3.887.983-1.706 0-3.085-.384-4.136-1.148-1.053-.764-1.791-1.834-2.221-3.2-.303-.947-.457-2.671-.457-5.169V7.136zM318.099 1.107H322v21.649h-3.901v-1.652c-.761.728-1.525 1.251-2.291 1.57a6.364 6.364 0 01-2.491.482c-2.007 0-3.745-.781-5.208-2.346-1.466-1.566-2.199-3.511-2.199-5.835s.708-4.388 2.126-5.93c1.419-1.54 3.141-2.313 5.167-2.313.933 0 1.808.176 2.625.532.819.355 1.574.884 2.268 1.593V1.104l.003.003zM314 10.352c-1.207 0-2.207.428-3.004 1.285-.797.857-1.196 1.954-1.196 3.296 0 1.34.407 2.46 1.218 3.332.811.87 1.811 1.307 2.998 1.307 1.187 0 2.241-.428 3.049-1.285.808-.857 1.209-1.98 1.209-3.366 0-1.386-.404-2.458-1.209-3.3-.808-.844-1.828-1.264-3.063-1.264l-.002-.005z" fill="#fff"/></svg>