<svg width="476" height="32" viewBox="0 0 476 32" fill="none" xmlns="http://www.w3.org/2000/svg"><path d="M.709 26V3.32h4.69l7.805 10.78c1.26 1.715 2.695 4.165 2.695 4.165V3.32h4.9V26h-4.725l-7.56-10.36c-1.505-2.03-2.905-4.445-2.905-4.445V26h-4.9zm32.94.35c-5.215 0-9.345-4.025-9.345-9.1 0-5.075 4.13-9.1 9.345-9.1 5.25 0 9.38 4.025 9.38 9.1 0 5.075-4.13 9.1-9.38 9.1zm0-4.34c2.625 0 4.585-1.995 4.585-4.76 0-2.73-1.96-4.76-4.585-4.76s-4.585 2.03-4.585 4.76c0 2.765 1.96 4.76 4.585 4.76zm28.95 4.34c-5.215 0-9.345-4.025-9.345-9.1 0-5.075 4.13-9.1 9.345-9.1 2.415 0 4.515.805 6.265 2.24l-2.835 3.29c-.805-.735-1.925-1.19-3.325-1.19-2.73 0-4.69 1.995-4.69 4.76 0 2.73 1.855 4.76 4.83 4.76 1.47 0 2.905-.56 3.815-1.435l2.485 3.5c-1.68 1.435-4.025 2.275-6.545 2.275zm17.227 0c-5.215 0-9.345-4.025-9.345-9.1 0-5.075 4.13-9.1 9.345-9.1 5.25 0 9.38 4.025 9.38 9.1 0 5.075-4.13 9.1-9.38 9.1zm0-4.34c2.625 0 4.585-1.995 4.585-4.76 0-2.73-1.96-4.76-4.585-4.76s-4.585 2.03-4.585 4.76c0 2.765 1.96 4.76 4.585 4.76zM92.266 26V8.5h4.584v2.345c1.016-1.575 3.08-2.695 5.18-2.695 2.765 0 4.48 1.155 5.39 3.115 1.26-2.1 3.675-3.115 5.67-3.115 4.935 0 6.475 3.395 6.475 7.875V26h-4.69v-9.38c0-2.31-.56-4.025-3.045-4.025-2.31 0-3.57 1.855-3.57 4.165V26h-4.69v-9.38c0-2.31-.525-4.025-3.045-4.025-2.38 0-3.57 2.03-3.57 4.34V26h-4.69zm30.624 5.04V8.5h4.445v2.1c1.435-1.715 3.5-2.45 5.6-2.45 4.83 0 7.91 4.06 7.91 9.065 0 5.075-3.15 9.135-7.98 9.135-2.03 0-4.025-.805-5.285-2.345v7.035h-4.69zm8.82-9.03c2.555 0 4.34-1.995 4.34-4.76 0-2.765-1.785-4.76-4.34-4.76-2.38 0-4.165 1.96-4.165 4.76 0 2.765 1.75 4.76 4.165 4.76zm19.552 4.34c-4.83 0-7.91-4.06-7.91-9.1s3.08-9.1 7.91-9.1c2.03 0 4.2.805 5.46 2.485V8.5h4.585V26h-4.585v-2.1c-1.225 1.68-3.43 2.45-5.46 2.45zm1.19-4.34c2.415 0 4.165-1.96 4.165-4.76 0-2.73-1.75-4.76-4.165-4.76-2.52 0-4.34 2.03-4.34 4.76 0 2.765 1.82 4.76 4.34 4.76zM164.863 26V8.5h4.62v3.36c.49-1.435 2.275-3.71 6.125-3.71v5.11c-4.06 0-6.055 1.855-6.055 6.02V26h-4.69zm20.56.35c-3.5 0-5.39-2.03-5.39-5.985V12.28h-2.555V8.5h2.555V5.14l4.69-1.05V8.5h4.83v3.78h-4.83v8.015c0 1.505.735 1.995 1.575 1.995 1.12 0 2.1-.63 2.24-.735l1.33 3.465c-1.05.7-2.59 1.33-4.445 1.33zm14.032 0c-4.83 0-7.91-4.06-7.91-9.1s3.08-9.1 7.91-9.1c2.03 0 4.2.805 5.46 2.485V8.5h4.585V26h-4.585v-2.1c-1.225 1.68-3.43 2.45-5.46 2.45zm1.19-4.34c2.415 0 4.165-1.96 4.165-4.76 0-2.73-1.75-4.76-4.165-4.76-2.52 0-4.34 2.03-4.34 4.76 0 2.765 1.82 4.76 4.34 4.76zm18.641 4.34c-3.745 0-6.16-1.47-7.14-2.38l1.68-3.605c1.19.91 2.835 1.855 5.46 1.855 1.085 0 2.87-.42 2.87-1.47s-1.505-1.295-3.01-1.715c-3.465-.91-6.3-2.065-6.3-5.425 0-3.57 3.5-5.46 6.79-5.46 2.87 0 4.69.7 6.51 1.75l-1.575 3.5c-1.715-.84-3.325-1.225-4.865-1.225-1.085 0-2.1.49-2.1 1.225 0 .98 1.47 1.295 3.08 1.645 2.975.7 6.23 1.995 6.23 5.565 0 4.305-4.375 5.74-7.63 5.74zm24.686 0c-3.5 0-5.39-2.03-5.39-5.985V12.28h-2.555V8.5h2.555V5.14l4.69-1.05V8.5h4.83v3.78h-4.83v8.015c0 1.505.735 1.995 1.575 1.995 1.12 0 2.1-.63 2.24-.735l1.33 3.465c-1.05.7-2.59 1.33-4.445 1.33zm12.876 0c-4.83 0-6.37-2.835-6.37-7.385V8.5h4.69v9.835c0 2.45 1.05 3.57 3.22 3.57 2.45 0 3.64-2.065 3.64-4.445V8.5h4.69V26h-4.41v-2.45c-1.05 1.715-3.43 2.8-5.46 2.8zm21.116-.35V8.5h4.69V26h-4.69zm2.31-19.635c-1.505 0-2.765-1.26-2.765-2.765 0-1.54 1.26-2.8 2.765-2.8 1.54 0 2.8 1.26 2.8 2.8 0 1.505-1.26 2.765-2.8 2.765zM286.235 26V8.5h4.585v2.345c1.4-1.925 3.395-2.695 5.53-2.695 4.62 0 6.23 2.975 6.23 7.77V26h-4.69v-9.485c0-2.555-.665-3.92-3.045-3.92-2.345 0-3.92 1.89-3.92 4.55V26h-4.69zm20.389 0V12.315h-2.73v-3.78h2.73V7.38c0-4.06 2.24-5.81 5.215-5.81 1.575 0 3.325.455 4.55 1.085l-1.33 3.465c-.385-.175-1.155-.525-1.96-.525-.98 0-1.785.49-1.785 2.31v.63h4.375v3.78h-4.375V26h-4.69zm19.535.35c-5.215 0-9.345-4.025-9.345-9.1 0-5.075 4.13-9.1 9.345-9.1 5.25 0 9.38 4.025 9.38 9.1 0 5.075-4.13 9.1-9.38 9.1zm0-4.34c2.625 0 4.585-1.995 4.585-4.76 0-2.73-1.96-4.76-4.585-4.76s-4.585 2.03-4.585 4.76c0 2.765 1.96 4.76 4.585 4.76zM338.598 26V8.5h4.62v3.36c.49-1.435 2.275-3.71 6.125-3.71v5.11c-4.06 0-6.055 1.855-6.055 6.02V26h-4.69zm13.296 0V8.5h4.585v2.345c1.015-1.575 3.08-2.695 5.18-2.695 2.765 0 4.48 1.155 5.39 3.115 1.26-2.1 3.675-3.115 5.67-3.115 4.935 0 6.475 3.395 6.475 7.875V26h-4.69v-9.38c0-2.31-.56-4.025-3.045-4.025-2.31 0-3.57 1.855-3.57 4.165V26h-4.69v-9.38c0-2.31-.525-4.025-3.045-4.025-2.38 0-3.57 2.03-3.57 4.34V26h-4.69zm38.01.35c-4.83 0-7.91-4.06-7.91-9.1s3.08-9.1 7.91-9.1c2.03 0 4.2.805 5.46 2.485V8.5h4.585V26h-4.585v-2.1c-1.225 1.68-3.43 2.45-5.46 2.45zm1.19-4.34c2.415 0 4.165-1.96 4.165-4.76 0-2.73-1.75-4.76-4.165-4.76-2.52 0-4.34 2.03-4.34 4.76 0 2.765 1.82 4.76 4.34 4.76zm21.232 4.34c-5.215 0-9.345-4.025-9.345-9.1 0-5.075 4.13-9.1 9.345-9.1 2.415 0 4.515.805 6.265 2.24l-2.835 3.29c-.805-.735-1.925-1.19-3.325-1.19-2.73 0-4.69 1.995-4.69 4.76 0 2.73 1.855 4.76 4.83 4.76 1.47 0 2.905-.56 3.815-1.435l2.485 3.5c-1.68 1.435-4.025 2.275-6.545 2.275zm8.953-.35V8.5h4.69V26h-4.69zm2.31-19.635c-1.505 0-2.765-1.26-2.765-2.765 0-1.54 1.26-2.8 2.765-2.8 1.54 0 2.8 1.26 2.8 2.8 0 1.505-1.26 2.765-2.8 2.765zm11.702-.245l3.29-5.495h4.655l-4.095 5.495h-3.85zm3.08 20.23c-5.215 0-9.345-4.025-9.345-9.1 0-5.075 4.13-9.1 9.345-9.1 5.25 0 9.38 4.025 9.38 9.1 0 5.075-4.13 9.1-9.38 9.1zm0-4.34c2.625 0 4.585-1.995 4.585-4.76 0-2.73-1.96-4.76-4.585-4.76s-4.585 2.03-4.585 4.76c0 2.765 1.96 4.76 4.585 4.76zM450.81 26V8.5h4.585v2.345c1.4-1.925 3.395-2.695 5.53-2.695 4.62 0 6.23 2.975 6.23 7.77V26h-4.69v-9.485c0-2.555-.665-3.92-3.045-3.92-2.345 0-3.92 1.89-3.92 4.55V26h-4.69zm22.279.35c-1.575 0-2.765-1.225-2.765-2.73 0-1.575 1.225-2.765 2.765-2.765 1.575 0 2.8 1.19 2.8 2.765 0 1.505-1.225 2.73-2.8 2.73z" fill="#fff"/></svg>