<svg width="452" height="25" viewBox="0 0 452 25" fill="none" xmlns="http://www.w3.org/2000/svg"><path d="M1.828 21.28c-.84 0-1.456-.672-1.456-1.484 0-.812.644-1.484 1.456-1.484.812 0 1.484.672 1.484 1.484 0 .812-.672 1.484-1.484 1.484zm5.688 0c-.84 0-1.457-.672-1.457-1.484 0-.812.644-1.484 1.457-1.484.812 0 1.483.672 1.483 1.484 0 .812-.671 1.484-1.484 1.484zm5.687 0c-.84 0-1.456-.672-1.456-1.484 0-.812.644-1.484 1.456-1.484.812 0 1.484.672 1.484 1.484 0 .812-.672 1.484-1.484 1.484zm10.532 0c-3.78 0-6.44-3.136-6.44-7.084 0-4.004 2.66-7.112 6.44-7.112 2.184 0 4.116.896 5.123 2.66v-2.38h2.128V21h-2.128v-2.38c-1.008 1.792-2.94 2.66-5.123 2.66zm.476-2.072c2.604 0 4.648-2.156 4.648-5.012 0-2.856-2.045-5.04-4.649-5.04-2.716 0-4.732 2.128-4.732 5.04 0 2.884 2.016 5.012 4.732 5.012zM40.659 21V7.364h2.128v2.352c.756-1.484 2.464-2.632 4.368-2.632 2.184 0 3.724.952 4.368 2.884.98-1.988 3.108-2.884 4.704-2.884 3.276 0 5.012 1.904 5.012 5.656V21h-2.156v-7.98c0-2.324-.812-3.864-3.304-3.864-2.296 0-3.752 1.848-3.752 3.892V21h-2.156v-7.98c0-2.324-.812-3.864-3.276-3.864-2.38 0-3.808 2.016-3.808 4.004V21H40.66zm30.479.28c-3.864 0-7.14-2.772-7.14-7.084 0-3.948 2.968-7.112 6.86-7.112 3.64 0 6.524 3.136 6.524 7.028 0 .392-.056.812-.056.84H66.21c.336 2.716 2.436 4.424 4.956 4.424 1.54 0 3.08-.532 4.2-1.456l.924 1.568a8.344 8.344 0 01-5.152 1.792zm-4.928-7.952h9.072c-.224-2.52-2.156-4.34-4.536-4.34-2.324 0-4.228 1.792-4.536 4.34zM80.417 21V7.364h2.128v2.324c.952-1.652 2.716-2.604 4.732-2.604 3.416 0 4.928 2.072 4.928 5.656V21h-2.128v-7.98c0-2.52-.924-3.864-3.388-3.864-2.436 0-4.144 1.904-4.144 4.172V21h-2.128zm21.756.28c-4.004 0-7.168-3.136-7.168-7.084 0-3.976 3.164-7.112 7.168-7.112s7.168 3.136 7.168 7.112c0 3.948-3.164 7.084-7.168 7.084zm0-2.072c2.828 0 4.984-2.156 4.984-5.012 0-2.884-2.156-5.04-4.984-5.04s-4.984 2.156-4.984 5.04c0 2.856 2.156 5.012 4.984 5.012zm14.774 2.072c-2.772 0-4.537-1.26-5.32-2.072l.868-1.736c1.008.98 2.464 1.792 4.452 1.792 1.876 0 3.416-.868 3.416-2.1 0-1.428-1.652-1.82-3.304-2.24-2.52-.644-4.816-1.344-4.816-3.948 0-2.464 2.576-3.892 4.872-3.892 1.876 0 3.248.504 4.648 1.456l-.84 1.736c-1.148-.784-2.352-1.176-3.78-1.176-1.4 0-2.716.784-2.716 1.848 0 1.344 1.512 1.652 3.108 1.988 2.464.56 5.012 1.484 5.012 4.172 0 2.884-2.94 4.172-5.6 4.172zm25.634 3.668V18.62c-1.008 1.764-2.94 2.66-5.124 2.66-3.78 0-6.44-3.136-6.44-7.112s2.66-7.084 6.44-7.084c2.212 0 4.2.868 5.208 2.632V7.364h2.044v17.584h-2.128zm-4.648-5.74c2.604 0 4.648-2.184 4.648-5.04s-2.044-5.012-4.648-5.012c-2.716 0-4.732 2.128-4.732 5.012 0 2.912 2.016 5.04 4.732 5.04zm15.083 2.072c-3.36 0-4.956-1.764-4.956-5.404V7.364h2.128v8.232c0 2.548 1.232 3.612 3.444 3.612 2.464 0 3.892-2.016 3.892-4.116V7.364h2.128V21h-2.044v-2.408c-.84 1.764-2.8 2.688-4.592 2.688zm16.805 0c-3.864 0-7.14-2.772-7.14-7.084 0-3.948 2.968-7.112 6.86-7.112 3.64 0 6.524 3.136 6.524 7.028 0 .392-.056.812-.056.84h-11.116c.336 2.716 2.436 4.424 4.956 4.424 1.54 0 3.08-.532 4.2-1.456l.924 1.568a8.344 8.344 0 01-5.152 1.792zm-4.928-7.952h9.072c-.224-2.52-2.156-4.34-4.536-4.34-2.324 0-4.228 1.792-4.536 4.34zm185.899 11.62V7.364h2.044v2.352c1.008-1.764 2.996-2.632 5.208-2.632 3.78 0 6.44 3.108 6.44 7.084 0 3.976-2.66 7.112-6.44 7.112-2.156 0-4.116-.896-5.124-2.66v6.328h-2.128zm6.776-5.74c2.716 0 4.732-2.128 4.732-5.04 0-2.884-2.016-5.012-4.732-5.012-2.604 0-4.648 2.156-4.648 5.012 0 2.856 2.044 5.04 4.648 5.04zM367.499 21V7.364h2.128v2.884c.784-1.792 2.548-3.164 5.264-3.164v2.324c-3.192 0-5.264 1.792-5.264 5.124V21h-2.128zm9.844 0V7.364h2.128V21h-2.128zm1.064-16.072c-.784 0-1.4-.616-1.4-1.4 0-.784.616-1.428 1.4-1.428.784 0 1.428.644 1.428 1.428 0 .784-.644 1.4-1.428 1.4zM383.058 21V7.364h2.128v2.352c.756-1.484 2.464-2.632 4.368-2.632 2.184 0 3.724.952 4.368 2.884.98-1.988 3.108-2.884 4.704-2.884 3.276 0 5.012 1.904 5.012 5.656V21h-2.156v-7.98c0-2.324-.812-3.864-3.304-3.864-2.296 0-3.752 1.848-3.752 3.892V21h-2.156v-7.98c0-2.324-.812-3.864-3.276-3.864-2.38 0-3.808 2.016-3.808 4.004V21h-2.128zm30.478.28c-3.864 0-7.14-2.772-7.14-7.084 0-3.948 2.968-7.112 6.86-7.112 3.64 0 6.524 3.136 6.524 7.028 0 .392-.056.812-.056.84h-11.116c.336 2.716 2.436 4.424 4.956 4.424 1.54 0 3.08-.532 4.2-1.456l.924 1.568a8.344 8.344 0 01-5.152 1.792zm-4.928-7.952h9.072c-.224-2.52-2.156-4.34-4.536-4.34-2.324 0-4.228 1.792-4.536 4.34zM422.815 21V7.364h2.128v2.884c.784-1.792 2.548-3.164 5.264-3.164v2.324c-3.192 0-5.264 1.792-5.264 5.124V21h-2.128zm16.179.28c-4.004 0-7.168-3.136-7.168-7.084 0-3.976 3.164-7.112 7.168-7.112s7.168 3.136 7.168 7.112c0 3.948-3.164 7.084-7.168 7.084zm0-2.072c2.828 0 4.984-2.156 4.984-5.012 0-2.884-2.156-5.04-4.984-5.04s-4.984 2.156-4.984 5.04c0 2.856 2.156 5.012 4.984 5.012zm11.217 2.072c-.84 0-1.456-.672-1.456-1.484 0-.812.644-1.484 1.456-1.484.812 0 1.484.672 1.484 1.484 0 .812-.672 1.484-1.484 1.484z" fill="#275D80"/><path d="M190.126 21.28c-2.8 0-4.312-1.624-4.312-4.788v-6.468h-2.044V7h2.044V4.312l3.752-.84V7h3.864v3.024h-3.864v6.412c0 1.204.588 1.596 1.26 1.596.896 0 1.68-.504 1.792-.588l1.064 2.772a6.452 6.452 0 01-3.556 1.064zm9.264-16.184L202.022.7h3.724l-3.276 4.396h-3.08zm1.036 16.184c-3.864 0-5.096-2.268-5.096-5.908V7h3.752v7.868c0 1.96.84 2.856 2.576 2.856 1.96 0 2.912-1.652 2.912-3.556V7h3.752v14h-3.528v-1.96c-.84 1.372-2.744 2.24-4.368 2.24zm16.893-.28V2.576h3.752V21h-3.752zm13.673.28c-4.172 0-7.476-3.22-7.476-7.28 0-4.06 3.304-7.28 7.476-7.28 4.2 0 7.504 3.22 7.504 7.28 0 4.06-3.304 7.28-7.504 7.28zm0-3.472c2.1 0 3.668-1.596 3.668-3.808 0-2.184-1.568-3.808-3.668-3.808s-3.668 1.624-3.668 3.808c0 2.212 1.568 3.808 3.668 3.808zm14.854 3.472c-2.996 0-4.928-1.176-5.712-1.904l1.344-2.884c.952.728 2.268 1.484 4.368 1.484.868 0 2.296-.336 2.296-1.176 0-.84-1.204-1.036-2.408-1.372-2.772-.728-5.04-1.652-5.04-4.34 0-2.856 2.8-4.368 5.432-4.368 2.296 0 3.752.56 5.208 1.4l-1.26 2.8c-1.372-.672-2.66-.98-3.892-.98-.868 0-1.68.392-1.68.98 0 .784 1.176 1.036 2.464 1.316 2.38.56 4.984 1.596 4.984 4.452 0 3.444-3.5 4.592-6.104 4.592zM260.33 21V2.576h3.752V21h-3.752zm6.618 0V2.576h3.752V21h-3.752zm12.525.28c-3.864 0-6.328-3.248-6.328-7.28s2.464-7.28 6.328-7.28c1.624 0 3.36.644 4.368 1.988V7h3.668v14h-3.668v-1.68c-.98 1.344-2.744 1.96-4.368 1.96zm.952-3.472c1.932 0 3.332-1.568 3.332-3.808 0-2.184-1.4-3.808-3.332-3.808-2.016 0-3.472 1.624-3.472 3.808 0 2.212 1.456 3.808 3.472 3.808zM290.354 21V7h3.668v1.876c.812-1.26 2.464-2.156 4.144-2.156 2.212 0 3.584.924 4.312 2.492 1.008-1.68 2.94-2.492 4.536-2.492 3.948 0 5.18 2.716 5.18 6.3V21h-3.752v-7.504c0-1.848-.448-3.22-2.436-3.22-1.848 0-2.856 1.484-2.856 3.332V21h-3.752v-7.504c0-1.848-.42-3.22-2.436-3.22-1.904 0-2.856 1.624-2.856 3.472V21h-3.752zm31.752.28c-4.088 0-7.672-2.66-7.672-7.28 0-4.032 3.136-7.28 7.252-7.28 3.808 0 6.804 3.248 6.804 7.224 0 .672-.084 1.344-.084 1.344h-10.164c.448 1.932 2.044 2.856 3.892 2.856 1.344 0 2.744-.392 3.78-1.092l1.4 2.688a9.431 9.431 0 01-5.208 1.54zm-3.92-8.484h6.776c-.28-1.764-1.68-2.94-3.388-2.94-1.624 0-3.024 1.176-3.388 2.94zm17.757 8.484c-2.996 0-4.928-1.176-5.712-1.904l1.344-2.884c.952.728 2.268 1.484 4.368 1.484.868 0 2.296-.336 2.296-1.176 0-.84-1.204-1.036-2.408-1.372-2.772-.728-5.04-1.652-5.04-4.34 0-2.856 2.8-4.368 5.432-4.368 2.296 0 3.752.56 5.208 1.4l-1.26 2.8c-1.372-.672-2.66-.98-3.892-.98-.868 0-1.68.392-1.68.98 0 .784 1.176 1.036 2.464 1.316 2.38.56 4.984 1.596 4.984 4.452 0 3.444-3.5 4.592-6.104 4.592z" fill="#091C29"/></svg>