<svg width="311" height="73" viewBox="0 0 311 73" fill="none" xmlns="http://www.w3.org/2000/svg"><rect x="1" y="1.24" width="309" height="70" rx="7" fill="#55F272" stroke="#BBF2C5" stroke-width="2"/><path d="M49.13 40.098l-2.288-6.526-2.288 6.526h4.576zm1.352 3.874h-7.28l-1.17 3.406h-5.434l7.462-19.604h5.564l7.462 19.604h-5.434l-1.17-3.406zm14.45-7.202h1.69c1.871 0 2.808-.815 2.808-2.444 0-1.63-.937-2.444-2.809-2.444h-1.69v4.888zm0 10.608h-5.096V27.774h8.112c2.2 0 3.882.572 5.044 1.716 1.178 1.144 1.767 2.756 1.767 4.836 0 2.08-.589 3.692-1.767 4.836-1.162 1.144-2.843 1.716-5.044 1.716h-3.016v6.5zm18.14-10.842h.963c1.005 0 1.776-.208 2.314-.624.537-.416.806-1.014.806-1.794s-.27-1.378-.806-1.794c-.538-.416-1.31-.624-2.314-.624h-.962v4.836zM94.28 47.378h-6.344l-4.862-7.54v7.54h-5.096V27.774h7.93c1.092 0 2.045.165 2.86.494.814.312 1.482.745 2.002 1.3a5.293 5.293 0 011.196 1.924c.277.728.416 1.508.416 2.34 0 1.49-.364 2.704-1.092 3.64-.711.919-1.768 1.543-3.172 1.872l6.162 8.034zm13.805-15.288h-6.058v3.276h5.72v4.316h-5.72v3.38h6.058v4.316H96.93V27.774h11.154v4.316zm4.194 15.288V27.774h5.096l9.412 11.986V27.774h5.07v19.604h-5.07l-9.412-11.986v11.986h-5.096zm29.306-4.316h1.17c.884 0 1.672-.139 2.366-.416a4.92 4.92 0 001.742-1.144 4.695 4.695 0 001.092-1.716c.26-.676.39-1.413.39-2.21 0-.78-.13-1.508-.39-2.184a4.94 4.94 0 00-1.118-1.742 4.922 4.922 0 00-1.742-1.144c-.694-.277-1.474-.416-2.34-.416h-1.17v10.972zm-5.096-15.288h7.54c1.334 0 2.582.269 3.744.806a9.93 9.93 0 013.068 2.158 9.655 9.655 0 012.08 3.12 9.392 9.392 0 01.754 3.718 9.516 9.516 0 01-.754 3.718 9.681 9.681 0 01-2.054 3.12 9.926 9.926 0 01-3.068 2.158c-1.162.537-2.418.806-3.77.806h-7.54V27.774zm32.113 4.316h-6.058v3.276h5.72v4.316h-5.72v3.38h6.058v4.316h-11.154V27.774h11.154v4.316zm27.668 2.236c-1.178-1.439-2.634-2.158-4.368-2.158-.762 0-1.473.139-2.132.416a5.097 5.097 0 00-1.664 1.144 5.24 5.24 0 00-1.118 1.69c-.26.659-.39 1.37-.39 2.132 0 .78.13 1.5.39 2.158.278.659.65 1.23 1.118 1.716a5.404 5.404 0 001.69 1.144 5.186 5.186 0 002.08.416c1.63 0 3.094-.693 4.394-2.08v6.032l-.52.182c-.78.277-1.508.477-2.184.598a9.94 9.94 0 01-2.002.208c-1.352 0-2.652-.251-3.9-.754a10.672 10.672 0 01-3.276-2.158 11.067 11.067 0 01-2.262-3.302c-.572-1.283-.858-2.678-.858-4.186s.278-2.886.832-4.134c.572-1.265 1.326-2.349 2.262-3.25a10.215 10.215 0 013.302-2.132c1.248-.52 2.557-.78 3.926-.78.78 0 1.543.087 2.288.26.763.156 1.56.407 2.392.754v6.084zm8.469 3.25c0 .78.148 1.5.442 2.158.295.659.694 1.23 1.196 1.716a5.638 5.638 0 001.742 1.144c.676.26 1.387.39 2.132.39.746 0 1.448-.13 2.106-.39a5.54 5.54 0 001.768-1.144 5.218 5.218 0 001.664-3.874 5.219 5.219 0 00-1.664-3.874 5.2 5.2 0 00-1.768-1.118 5.367 5.367 0 00-2.106-.416c-.745 0-1.456.139-2.132.416a5.276 5.276 0 00-1.742 1.118 5.474 5.474 0 00-1.196 1.716 5.235 5.235 0 00-.442 2.158zm-5.33 0c0-1.456.269-2.808.806-4.056a10.133 10.133 0 012.236-3.302c.954-.936 2.089-1.664 3.406-2.184 1.335-.537 2.8-.806 4.394-.806 1.578 0 3.034.269 4.368.806 1.335.52 2.479 1.248 3.432 2.184a9.915 9.915 0 012.262 3.302c.538 1.248.806 2.6.806 4.056s-.268 2.817-.806 4.082a9.986 9.986 0 01-2.262 3.276c-.953.936-2.097 1.673-3.432 2.21-1.334.52-2.79.78-4.368.78-1.594 0-3.059-.26-4.394-.78-1.317-.537-2.452-1.274-3.406-2.21a10.208 10.208 0 01-2.236-3.276c-.537-1.265-.806-2.626-.806-4.082zm15.522-14.794l-4.992 3.432-1.976-1.846 4.238-4.056 2.73 2.47zm9.043 24.596l3.328-19.604h5.044l3.926 10.452 3.9-10.452h5.044l3.328 19.604h-5.07l-1.69-11.284-4.628 11.284h-2.028l-4.394-11.284-1.69 11.284h-5.07zm32.764-9.802c0 .78.148 1.5.442 2.158.295.659.694 1.23 1.196 1.716a5.638 5.638 0 001.742 1.144c.676.26 1.387.39 2.132.39.746 0 1.448-.13 2.106-.39a5.54 5.54 0 001.768-1.144 5.218 5.218 0 001.664-3.874 5.219 5.219 0 00-1.664-3.874 5.2 5.2 0 00-1.768-1.118 5.367 5.367 0 00-2.106-.416c-.745 0-1.456.139-2.132.416a5.276 5.276 0 00-1.742 1.118 5.474 5.474 0 00-1.196 1.716 5.235 5.235 0 00-.442 2.158zm-5.33 0c0-1.456.269-2.808.806-4.056a10.133 10.133 0 012.236-3.302c.954-.936 2.089-1.664 3.406-2.184 1.335-.537 2.8-.806 4.394-.806 1.578 0 3.034.269 4.368.806 1.335.52 2.479 1.248 3.432 2.184a9.915 9.915 0 012.262 3.302c.538 1.248.806 2.6.806 4.056s-.268 2.817-.806 4.082a9.986 9.986 0 01-2.262 3.276c-.953.936-2.097 1.673-3.432 2.21-1.334.52-2.79.78-4.368.78-1.594 0-3.059-.26-4.394-.78-1.317-.537-2.452-1.274-3.406-2.21a10.208 10.208 0 01-2.236-3.276c-.537-1.265-.806-2.626-.806-4.082z" fill="#68222F"/></svg>