<svg width="331" height="56" viewBox="0 0 331 56" fill="none" xmlns="http://www.w3.org/2000/svg"><path d="M12.912 37.424c0 1.11.192 2.133.576 3.072.427.896.96 1.685 1.6 2.368a7.489 7.489 0 002.368 1.6c.939.384 1.92.576 2.944.576a7.233 7.233 0 002.88-.576c.939-.384 1.728-.917 2.368-1.6a7.489 7.489 0 001.6-2.368c.427-.939.64-1.941.64-3.008a6.613 6.613 0 00-.64-2.88 7.31 7.31 0 00-1.6-2.432c-.64-.683-1.43-1.216-2.368-1.6A7.233 7.233 0 0020.4 30a7.702 7.702 0 00-2.944.576 7.489 7.489 0 00-2.368 1.6 9.246 9.246 0 00-1.6 2.368 7.233 7.233 0 00-.576 2.88zM.688 37.296c0-2.432.49-4.693 1.472-6.784a16.313 16.313 0 014.096-5.504c1.75-1.579 3.819-2.816 6.208-3.712 2.432-.896 5.077-1.344 7.936-1.344 2.816 0 5.419.448 7.808 1.344 2.432.853 4.523 2.07 6.272 3.648a15.79 15.79 0 014.16 5.568c.981 2.133 1.472 4.501 1.472 7.104 0 2.603-.512 4.992-1.536 7.168a16.99 16.99 0 01-4.096 5.568c-1.75 1.536-3.861 2.73-6.336 3.584-2.432.853-5.077 1.28-7.936 1.28-2.816 0-5.419-.427-7.808-1.28-2.39-.853-4.459-2.07-6.208-3.648a17.234 17.234 0 01-4.032-5.632c-.981-2.219-1.472-4.672-1.472-7.36zm91.843-4.48c-.385-1.621-1.174-2.923-2.369-3.904-1.194-.981-2.645-1.472-4.352-1.472-1.791 0-3.264.47-4.416 1.408-1.109.939-1.813 2.261-2.112 3.968h13.249zm-13.569 6.72c0 4.992 2.347 7.488 7.04 7.488 2.518 0 4.416-1.024 5.697-3.072h11.2c-2.262 7.51-7.915 11.264-16.96 11.264-2.774 0-5.313-.405-7.616-1.216-2.304-.853-4.288-2.048-5.952-3.584-1.622-1.536-2.88-3.37-3.776-5.504-.897-2.133-1.344-4.523-1.344-7.168 0-2.73.426-5.184 1.28-7.36.853-2.219 2.069-4.096 3.647-5.632 1.58-1.536 3.478-2.71 5.697-3.52 2.26-.853 4.8-1.28 7.615-1.28 2.774 0 5.27.427 7.489 1.28 2.218.81 4.096 2.005 5.632 3.584 1.536 1.579 2.709 3.52 3.52 5.824.81 2.261 1.216 4.821 1.216 7.68v1.216H78.963zm31.006-18.368h11.584V25.2c3.157-3.03 6.699-4.544 10.624-4.544 4.864 0 8.576 2.048 11.136 6.144 2.603-4.139 6.315-6.208 11.136-6.208 1.536 0 2.987.235 4.352.704a8.47 8.47 0 013.52 2.112c.981.939 1.749 2.176 2.304 3.712.597 1.536.896 3.392.896 5.568V54h-11.584V37.808c0-1.664-.128-3.03-.384-4.096-.213-1.067-.555-1.899-1.024-2.496-.427-.597-.939-1.003-1.536-1.216a5.665 5.665 0 00-1.92-.32c-3.712 0-5.568 2.71-5.568 8.128V54H131.92V37.808c0-1.664-.107-3.03-.32-4.096-.213-1.11-.533-1.984-.96-2.624-.384-.64-.896-1.067-1.536-1.28-.64-.256-1.387-.384-2.24-.384-.725 0-1.408.107-2.048.32-.64.213-1.216.64-1.728 1.28-.469.597-.853 1.45-1.152 2.56-.256 1.067-.384 2.475-.384 4.224V54h-11.584V21.168zm74.252 16.32c0 1.067.192 2.07.576 3.008a8.088 8.088 0 001.536 2.368 7.492 7.492 0 002.368 1.6 7.867 7.867 0 003.008.576 7.233 7.233 0 002.88-.576c.939-.384 1.728-.917 2.368-1.6a7.484 7.484 0 001.6-2.368c.427-.896.64-1.856.64-2.88a6.609 6.609 0 00-.64-2.88 7.306 7.306 0 00-1.6-2.432c-.64-.683-1.429-1.216-2.368-1.6a7.233 7.233 0 00-2.88-.576 7.867 7.867 0 00-3.008.576 7.492 7.492 0 00-2.368 1.6 8.088 8.088 0 00-1.536 2.368c-.384.853-.576 1.792-.576 2.816zm14.592-16.32h11.648V54h-11.648v-3.648c-2.475 3.115-5.824 4.672-10.048 4.672-2.389 0-4.587-.427-6.592-1.28a16.306 16.306 0 01-5.248-3.712c-1.493-1.579-2.667-3.435-3.52-5.568-.811-2.133-1.216-4.459-1.216-6.976 0-2.347.405-4.565 1.216-6.656.811-2.133 1.941-3.99 3.392-5.568a15.605 15.605 0 015.184-3.712c2.005-.939 4.224-1.408 6.656-1.408 4.096 0 7.488 1.43 10.176 4.288v-3.264zm31.115 0V54h-11.584V21.168h11.584zM217.575 8.56c0-.896.171-1.728.512-2.496a6.543 6.543 0 011.408-2.112 6.746 6.746 0 012.048-1.408 6.531 6.531 0 012.56-.512c.896 0 1.728.17 2.496.512.811.341 1.515.81 2.112 1.408a6.543 6.543 0 011.408 2.112c.341.768.512 1.6.512 2.496 0 .896-.171 1.75-.512 2.56a6.75 6.75 0 01-1.408 2.048 6.536 6.536 0 01-2.112 1.408c-.768.341-1.6.512-2.496.512-.896 0-1.749-.17-2.56-.512a6.746 6.746 0 01-2.048-1.408 6.75 6.75 0 01-1.408-2.048 6.536 6.536 0 01-.512-2.56zM249.427.88V54h-11.584V.88h11.584zm29.676 28.736c-2.133-1.11-4.224-1.664-6.272-1.664-1.067 0-1.941.213-2.624.64-.64.427-.96 1.003-.96 1.728 0 .384.043.704.128.96.128.213.363.427.704.64.384.213.917.405 1.6.576.725.17 1.664.384 2.816.64 3.2.64 5.589 1.792 7.168 3.456 1.579 1.621 2.368 3.712 2.368 6.272 0 1.92-.384 3.648-1.152 5.184a11.33 11.33 0 01-3.2 3.904c-1.365 1.024-3.008 1.813-4.928 2.368-1.92.597-4.032.896-6.336.896-4.437 0-8.811-1.259-13.12-3.776l4.224-8.192c3.243 2.219 6.315 3.328 9.216 3.328 1.067 0 1.941-.235 2.624-.704.683-.47 1.024-1.067 1.024-1.792 0-.427-.064-.768-.192-1.024-.085-.299-.299-.555-.64-.768-.341-.256-.853-.47-1.536-.64-.64-.213-1.493-.427-2.56-.64-3.584-.725-6.101-1.792-7.552-3.2-1.408-1.45-2.112-3.435-2.112-5.952 0-1.835.341-3.477 1.024-4.928a10.206 10.206 0 012.944-3.776c1.28-1.024 2.816-1.813 4.608-2.368 1.835-.555 3.861-.832 6.08-.832 3.627 0 7.147.704 10.56 2.112l-3.904 7.552zM291.469 50.5c0-1.167.427-2.177 1.281-3.031.854-.854 1.875-1.282 3.062-1.282 1.188 0 2.209.428 3.063 1.282.854.854 1.281 1.875 1.281 3.062 0 1.209-.427 2.24-1.281 3.094-.833.833-1.854 1.25-3.063 1.25-1.229 0-2.26-.417-3.093-1.25-.834-.833-1.25-1.875-1.25-3.125zm15.27 0c0-1.167.427-2.177 1.281-3.031.854-.854 1.875-1.282 3.062-1.282 1.188 0 2.209.428 3.063 1.282.854.854 1.281 1.875 1.281 3.062 0 1.209-.427 2.24-1.281 3.094-.833.833-1.854 1.25-3.063 1.25-1.229 0-2.26-.417-3.093-1.25-.834-.833-1.25-1.875-1.25-3.125zm15.27 0c0-1.167.427-2.177 1.281-3.031.854-.854 1.875-1.282 3.063-1.282 1.187 0 2.208.428 3.062 1.282.854.854 1.281 1.875 1.281 3.062 0 1.209-.427 2.24-1.281 3.094-.833.833-1.854 1.25-3.062 1.25-1.23 0-2.261-.417-3.094-1.25-.834-.833-1.25-1.875-1.25-3.125z" fill="#fff"/></svg>