<svg width="857" height="52" viewBox="0 0 857 52" fill="none" xmlns="http://www.w3.org/2000/svg"><path d="M.062 36.43c0-.857.314-1.6.94-2.226.628-.628 1.378-.941 2.25-.941.872 0 1.622.313 2.249.94.627.628.94 1.378.94 2.25 0 .887-.313 1.644-.94 2.272-.612.612-1.362.918-2.25.918-.902 0-1.659-.306-2.271-.918-.612-.612-.918-1.377-.918-2.295zm10.744 0c0-.857.314-1.6.94-2.226.628-.628 1.378-.941 2.25-.941.872 0 1.622.313 2.249.94.627.628.94 1.378.94 2.25 0 .887-.313 1.644-.94 2.272-.612.612-1.362.918-2.25.918-.902 0-1.66-.306-2.271-.918-.612-.612-.918-1.377-.918-2.295zm10.744 0c0-.857.313-1.6.94-2.226.628-.628 1.378-.941 2.25-.941.872 0 1.622.313 2.249.94.627.628.94 1.378.94 2.25 0 .887-.313 1.644-.94 2.272-.612.612-1.362.918-2.25.918-.902 0-1.66-.306-2.271-.918-.612-.612-.918-1.377-.918-2.295zm26.418 14.733V36.5c-2.05 2.096-4.39 3.144-7.022 3.144-3.014 0-5.516-1.11-7.505-3.328-2.004-2.234-3.006-5.026-3.006-8.376 0-3.397 1.002-6.235 3.006-8.515 2.02-2.264 4.552-3.396 7.596-3.396 2.586 0 4.896 1.017 6.931 3.052v-2.432h5.187v34.515h-5.187zM35.713 27.71c0 2.157.581 3.909 1.744 5.255 1.163 1.377 2.64 2.066 4.43 2.066 1.897 0 3.434-.658 4.612-1.974 1.194-1.33 1.79-3.06 1.79-5.186 0-2.096-.589-3.825-1.767-5.187-1.178-1.33-2.708-1.997-4.59-1.997-1.774 0-3.258.674-4.452 2.02-1.178 1.362-1.767 3.03-1.767 5.003zm29.673-11.061v12.828c0 3.703 1.462 5.554 4.384 5.554 2.922 0 4.383-1.852 4.383-5.554V16.648h5.164V29.59c0 1.79-.222 3.335-.666 4.636-.428 1.162-1.17 2.21-2.226 3.144-1.744 1.514-3.962 2.272-6.655 2.272-2.678 0-4.888-.758-6.632-2.272-1.072-.934-1.829-1.982-2.273-3.144-.428-1.04-.642-2.586-.642-4.636V16.647h5.163zM106.19 29.04H90.172c.137 1.836.734 3.297 1.79 4.383 1.055 1.071 2.41 1.607 4.062 1.607 1.285 0 2.348-.306 3.19-.918.826-.612 1.767-1.744 2.822-3.397l4.361 2.433c-.673 1.147-1.385 2.134-2.135 2.96a11.792 11.792 0 01-2.409 2.02 9.865 9.865 0 01-2.777 1.147c-.994.245-2.073.368-3.236.368-3.335 0-6.013-1.071-8.032-3.213-2.02-2.157-3.03-5.018-3.03-8.583 0-3.535.98-6.396 2.938-8.583 1.974-2.158 4.59-3.236 7.849-3.236 3.29 0 5.89 1.048 7.802 3.144 1.898 2.08 2.846 4.965 2.846 8.652l-.023 1.216zm-5.301-4.223c-.719-2.753-2.456-4.13-5.21-4.13-.627 0-1.216.099-1.767.298a4.875 4.875 0 00-1.514.826c-.444.352-.826.78-1.148 1.285a6.026 6.026 0 00-.734 1.721h10.373zm30.798-3.35V39h-5.164V21.467h-2.203v-4.82h2.203V8.456h5.164v8.193h4.016v4.819h-4.016zm28.296 7.573h-16.018c.137 1.836.734 3.297 1.79 4.383 1.055 1.071 2.409 1.607 4.062 1.607 1.285 0 2.348-.306 3.19-.918.826-.612 1.767-1.744 2.822-3.397l4.361 2.433c-.673 1.147-1.385 2.134-2.135 2.96a11.792 11.792 0 01-2.409 2.02 9.865 9.865 0 01-2.777 1.147 13.52 13.52 0 01-3.236.368c-3.335 0-6.013-1.071-8.032-3.213-2.02-2.157-3.029-5.018-3.029-8.583 0-3.535.979-6.396 2.937-8.583 1.974-2.158 4.59-3.236 7.849-3.236 3.289 0 5.89 1.048 7.802 3.144 1.898 2.08 2.846 4.965 2.846 8.652l-.023 1.216zm-5.301-4.223c-.719-2.753-2.456-4.13-5.21-4.13-.627 0-1.216.099-1.767.298a4.88 4.88 0 00-1.514.826c-.444.352-.826.78-1.148 1.285a6.025 6.025 0 00-.734 1.721h10.373zm30.637 26.346h-5.163V16.648h5.163v2.432c2.035-2.035 4.345-3.052 6.931-3.052 3.075 0 5.607 1.132 7.596 3.396 2.02 2.25 3.029 5.087 3.029 8.515 0 3.35-1.002 6.142-3.006 8.376-1.989 2.218-4.498 3.328-7.527 3.328-2.617 0-4.957-1.048-7.023-3.145v14.665zm12.278-23.202c0-2.141-.581-3.886-1.744-5.232-1.178-1.362-2.662-2.043-4.452-2.043-1.897 0-3.435.658-4.613 1.974-1.178 1.316-1.767 3.045-1.767 5.187 0 2.096.589 3.825 1.767 5.186 1.163 1.331 2.693 1.997 4.59 1.997 1.79 0 3.266-.673 4.429-2.02 1.193-1.346 1.79-3.029 1.79-5.049zm15.904-11.313V39h-5.164V16.648h5.164zm-5.944-9.295c0-.903.329-1.683.987-2.34.658-.659 1.446-.988 2.364-.988a3.25 3.25 0 012.386.987c.658.643.987 1.43.987 2.364 0 .933-.329 1.729-.987 2.387-.642.658-1.43.986-2.364.986a3.25 3.25 0 01-2.386-.986c-.658-.658-.987-1.461-.987-2.41zM236.519.239h5.186V39h-5.186v-2.34c-2.035 1.988-4.338 2.983-6.908 2.983-3.06 0-5.599-1.117-7.619-3.351-2.004-2.28-3.006-5.125-3.006-8.537 0-3.335 1.002-6.12 3.006-8.354 1.989-2.249 4.49-3.373 7.504-3.373 2.617 0 4.957 1.07 7.023 3.213V.239zm-12.255 27.516c0 2.142.574 3.886 1.721 5.232 1.178 1.362 2.662 2.043 4.452 2.043 1.913 0 3.458-.658 4.636-1.974 1.178-1.361 1.767-3.09 1.767-5.186s-.589-3.825-1.767-5.187c-1.178-1.33-2.708-1.997-4.59-1.997-1.775 0-3.259.674-4.452 2.02-1.178 1.362-1.767 3.045-1.767 5.049zM264.7 16.648h5.187V39H264.7v-2.34c-2.126 1.988-4.413 2.983-6.861 2.983-3.091 0-5.646-1.117-7.665-3.351-2.005-2.28-3.007-5.125-3.007-8.537 0-3.35 1.002-6.143 3.007-8.377 2.004-2.233 4.513-3.35 7.527-3.35 2.601 0 4.934 1.07 6.999 3.213v-2.593zm-12.254 11.107c0 2.142.573 3.886 1.721 5.232 1.178 1.362 2.662 2.043 4.452 2.043 1.912 0 3.458-.658 4.636-1.974 1.178-1.361 1.767-3.09 1.767-5.186s-.589-3.825-1.767-5.187c-1.178-1.33-2.708-1.997-4.59-1.997-1.775 0-3.259.674-4.452 2.02-1.178 1.362-1.767 3.045-1.767 5.049zm23.959-11.107h5.186v2.065c1.805-1.79 3.84-2.685 6.105-2.685 2.6 0 4.628.818 6.081 2.455 1.255 1.393 1.882 3.665 1.882 6.816V39h-5.187V26.516c0-2.203-.306-3.726-.918-4.567-.596-.857-1.682-1.285-3.258-1.285-1.714 0-2.93.566-3.649 1.698-.704 1.117-1.056 3.067-1.056 5.852V39h-5.186V16.648zm45.623 4.819V39h-5.164V21.467h-2.203v-4.82h2.203V8.456h5.164v8.193h4.016v4.819h-4.016zm12.691-4.82v12.83c0 3.701 1.461 5.553 4.383 5.553 2.922 0 4.383-1.852 4.383-5.554V16.648h5.164V29.59c0 1.79-.222 3.335-.666 4.636-.428 1.162-1.17 2.21-2.226 3.144-1.744 1.514-3.962 2.272-6.655 2.272-2.678 0-4.888-.758-6.632-2.272-1.071-.934-1.829-1.982-2.272-3.144-.429-1.04-.643-2.586-.643-4.636V16.647h5.164zm34.951 0h5.187v2.066c1.805-1.79 3.84-2.685 6.104-2.685 2.601 0 4.628.818 6.082 2.455 1.254 1.393 1.882 3.665 1.882 6.816V39h-5.187V26.516c0-2.203-.306-3.726-.918-4.567-.597-.857-1.683-1.285-3.259-1.285-1.713 0-2.93.566-3.649 1.698-.703 1.117-1.055 3.067-1.055 5.852V39h-5.187V16.648zm30.959 0v12.83c0 3.701 1.461 5.553 4.383 5.553 2.922 0 4.383-1.852 4.383-5.554V16.648h5.164V29.59c0 1.79-.222 3.335-.666 4.636-.428 1.162-1.17 2.21-2.226 3.144-1.744 1.514-3.962 2.272-6.655 2.272-2.677 0-4.888-.758-6.632-2.272-1.071-.934-1.829-1.982-2.272-3.144-.429-1.04-.643-2.586-.643-4.636V16.647h5.164zm12.484-11.015l-8.353 7.573-2.823-1.744 6.311-8.354 4.865 2.525zm7.963 11.016h5.164v2.065c.994-1.04 1.844-1.744 2.547-2.111.75-.383 1.691-.574 2.823-.574 2.525 0 4.521 1.101 5.99 3.305 1.622-2.204 3.817-3.305 6.586-3.305 5.034 0 7.551 3.052 7.551 9.157V39h-5.187V26.584c0-2.142-.26-3.656-.78-4.543-.536-.903-1.415-1.355-2.639-1.355-1.423 0-2.464.536-3.121 1.607-.643 1.07-.964 2.792-.964 5.163V39h-5.187V26.653c0-3.977-1.147-5.966-3.442-5.966-1.454 0-2.517.543-3.19 1.629-.658 1.086-.987 2.8-.987 5.14V39h-5.164V16.648zM478.61 29.04h-16.018c.137 1.836.734 3.297 1.79 4.383 1.055 1.071 2.409 1.607 4.062 1.607 1.285 0 2.348-.306 3.19-.918.826-.612 1.767-1.744 2.822-3.397l4.361 2.433c-.673 1.147-1.385 2.134-2.135 2.96a11.792 11.792 0 01-2.409 2.02 9.865 9.865 0 01-2.777 1.147 13.52 13.52 0 01-3.236.368c-3.335 0-6.013-1.071-8.032-3.213-2.02-2.157-3.029-5.018-3.029-8.583 0-3.535.979-6.396 2.937-8.583 1.974-2.158 4.59-3.236 7.849-3.236 3.289 0 5.89 1.048 7.802 3.144 1.898 2.08 2.846 4.965 2.846 8.652l-.023 1.216zm-5.301-4.223c-.719-2.753-2.456-4.13-5.21-4.13-.627 0-1.216.099-1.767.298a4.88 4.88 0 00-1.514.826c-.444.352-.827.78-1.148 1.285a6.025 6.025 0 00-.734 1.721h10.373zm10.97-8.17h5.163v1.997c.949-.994 1.79-1.675 2.525-2.042.749-.383 1.637-.574 2.662-.574 1.361 0 2.784.444 4.268 1.33l-2.364 4.728c-.979-.703-1.935-1.055-2.868-1.055-2.815 0-4.223 2.126-4.223 6.38V39h-5.163V16.648zm16.11 11.016c0-3.228 1.155-5.974 3.465-8.239 2.31-2.264 5.126-3.396 8.446-3.396 3.335 0 6.165 1.14 8.491 3.42 2.295 2.279 3.442 5.079 3.442 8.399 0 3.35-1.155 6.158-3.465 8.422-2.326 2.25-5.179 3.374-8.56 3.374-3.351 0-6.158-1.148-8.423-3.443-2.264-2.264-3.396-5.11-3.396-8.537zm5.278.092c0 2.234.597 4 1.79 5.301 1.224 1.316 2.838 1.974 4.843 1.974 2.019 0 3.633-.65 4.842-1.95 1.209-1.301 1.813-3.038 1.813-5.21 0-2.173-.604-3.91-1.813-5.21-1.224-1.316-2.838-1.974-4.842-1.974-1.974 0-3.573.658-4.797 1.974-1.224 1.316-1.836 3.014-1.836 5.095zM560.699.239h5.187V39h-5.187v-2.34c-2.034 1.988-4.337 2.983-6.907 2.983-3.06 0-5.6-1.117-7.619-3.351-2.005-2.28-3.007-5.125-3.007-8.537 0-3.335 1.002-6.12 3.007-8.354 1.989-2.249 4.49-3.373 7.504-3.373 2.616 0 4.957 1.07 7.022 3.213V.239zm-12.254 27.516c0 2.142.573 3.886 1.721 5.232 1.178 1.362 2.662 2.043 4.452 2.043 1.912 0 3.458-.658 4.636-1.974 1.178-1.361 1.767-3.09 1.767-5.186s-.589-3.825-1.767-5.187c-1.178-1.33-2.708-1.997-4.59-1.997-1.775 0-3.259.674-4.452 2.02-1.178 1.362-1.767 3.045-1.767 5.049zm44.315 1.285h-16.019c.138 1.836.734 3.297 1.79 4.383 1.056 1.071 2.41 1.607 4.062 1.607 1.285 0 2.348-.306 3.19-.918.826-.612 1.767-1.744 2.823-3.397l4.36 2.433c-.673 1.147-1.385 2.134-2.134 2.96-.75.811-1.553 1.484-2.41 2.02a9.853 9.853 0 01-2.777 1.147c-.994.245-2.073.368-3.236.368-3.335 0-6.012-1.071-8.032-3.213-2.019-2.157-3.029-5.018-3.029-8.583 0-3.535.979-6.396 2.937-8.583 1.974-2.158 4.59-3.236 7.849-3.236 3.289 0 5.89 1.048 7.803 3.144 1.897 2.08 2.845 4.965 2.845 8.652l-.022 1.216zm-5.302-4.223c-.719-2.753-2.455-4.13-5.209-4.13-.627 0-1.217.099-1.767.298a4.875 4.875 0 00-1.515.826c-.444.352-.826.78-1.147 1.285a5.999 5.999 0 00-.735 1.721h10.373z" fill="#fff" fill-opacity=".75"/><path d="M611.788 39l6.016-35.438h9.118l7.097 18.894 7.05-18.894h9.118L656.203 39h-9.165l-3.055-20.398L635.617 39h-3.666l-7.943-20.398L620.953 39h-9.165zm65.791-15.557c-.282-1.19-.861-2.146-1.739-2.867-.877-.72-1.942-1.081-3.196-1.081-1.316 0-2.397.345-3.243 1.034-.814.69-1.331 1.66-1.551 2.914h9.729zm-9.964 4.935c0 3.666 1.724 5.499 5.17 5.499 1.849 0 3.243-.752 4.183-2.256h8.225c-1.66 5.515-5.812 8.272-12.455 8.272-2.036 0-3.901-.298-5.593-.893-1.692-.627-3.149-1.504-4.371-2.632a11.788 11.788 0 01-2.773-4.042c-.658-1.567-.987-3.321-.987-5.264 0-2.005.314-3.807.94-5.405.627-1.63 1.52-3.008 2.679-4.136 1.16-1.128 2.554-1.99 4.183-2.585 1.661-.627 3.525-.94 5.593-.94 2.037 0 3.87.313 5.499.94 1.63.595 3.008 1.473 4.136 2.632 1.128 1.16 1.99 2.585 2.585 4.277.596 1.66.893 3.54.893 5.64v.893h-17.907zm30.666-1.504c0 .783.141 1.52.423 2.209a5.939 5.939 0 001.128 1.739 5.496 5.496 0 001.739 1.175 5.777 5.777 0 002.209.423c.752 0 1.457-.141 2.115-.423a4.88 4.88 0 001.739-1.175 5.505 5.505 0 001.175-1.739c.313-.658.47-1.363.47-2.115 0-.752-.157-1.457-.47-2.115a5.374 5.374 0 00-1.175-1.786 4.88 4.88 0 00-1.739-1.175 5.312 5.312 0 00-2.115-.423c-.752 0-1.473.141-2.162.423a5.496 5.496 0 00-1.739 1.175 6.78 6.78 0 00-1.175 1.739 4.982 4.982 0 00-.423 2.068zM708.997-.01h8.554V39h-8.554v-2.679c-1.817 2.287-4.277 3.431-7.379 3.431-1.755 0-3.368-.329-4.841-.987a11.976 11.976 0 01-3.854-2.726c-1.097-1.16-1.958-2.522-2.585-4.089-.595-1.567-.893-3.259-.893-5.076 0-1.723.282-3.353.846-4.888.595-1.567 1.426-2.93 2.491-4.089a11.449 11.449 0 013.807-2.726c1.504-.69 3.149-1.034 4.935-1.034 3.008 0 5.499 1.05 7.473 3.149V-.01zm22.85 14.899V39h-8.507V14.889h8.507zm-9.071-9.259c0-.658.125-1.269.376-1.833a4.805 4.805 0 011.034-1.551c.439-.439.94-.783 1.504-1.034a4.794 4.794 0 011.88-.376c.658 0 1.269.125 1.833.376.595.25 1.112.595 1.551 1.034.439.439.783.956 1.034 1.551.251.564.376 1.175.376 1.833a4.79 4.79 0 01-.376 1.88 4.957 4.957 0 01-1.034 1.504 4.812 4.812 0 01-1.551 1.034 4.461 4.461 0 01-1.833.376 4.794 4.794 0 01-1.88-.376 4.961 4.961 0 01-1.504-1.034 4.957 4.957 0 01-1.034-1.504 4.79 4.79 0 01-.376-1.88zm33.073 17.061c-1.472-1.003-2.961-1.504-4.465-1.504-.814 0-1.582.141-2.303.423-.689.282-1.3.69-1.833 1.222a5.503 5.503 0 00-1.269 1.833c-.282.69-.423 1.473-.423 2.35 0 .846.141 1.63.423 2.35.314.69.721 1.3 1.222 1.833a5.8 5.8 0 001.88 1.175 6.267 6.267 0 002.303.423c1.598 0 3.087-.548 4.465-1.645v7.238c-2.099.909-4.089 1.363-5.969 1.363-1.754 0-3.431-.298-5.029-.893a13.257 13.257 0 01-4.183-2.538 13.146 13.146 0 01-2.867-3.995c-.72-1.567-1.081-3.306-1.081-5.217 0-1.911.345-3.65 1.034-5.217.69-1.598 1.63-2.961 2.82-4.089 1.191-1.16 2.601-2.052 4.23-2.679 1.661-.658 3.431-.987 5.311-.987 2.068 0 3.98.439 5.734 1.316v7.238zm12.748 4.183c0 .783.141 1.52.423 2.209a5.939 5.939 0 001.128 1.739 5.508 5.508 0 001.739 1.175 5.78 5.78 0 002.209.423c.752 0 1.457-.141 2.115-.423a4.87 4.87 0 001.739-1.175 5.488 5.488 0 001.175-1.739c.314-.658.47-1.363.47-2.115 0-.752-.156-1.457-.47-2.115a5.36 5.36 0 00-1.175-1.786 4.87 4.87 0 00-1.739-1.175 5.312 5.312 0 00-2.115-.423 5.78 5.78 0 00-2.209.423 5.508 5.508 0 00-1.739 1.175 5.939 5.939 0 00-1.128 1.739 4.982 4.982 0 00-.423 2.068zm10.716-11.985h8.554V39h-8.554v-2.679c-1.817 2.287-4.277 3.431-7.379 3.431-1.754 0-3.368-.313-4.841-.94a11.987 11.987 0 01-3.854-2.726c-1.096-1.16-1.958-2.522-2.585-4.089-.595-1.567-.893-3.274-.893-5.123 0-1.723.298-3.353.893-4.888.596-1.567 1.426-2.93 2.491-4.089a11.47 11.47 0 013.807-2.726c1.473-.69 3.102-1.034 4.888-1.034 3.008 0 5.499 1.05 7.473 3.149v-2.397zm14.343 0h8.507v3.948c.909-1.441 2.021-2.538 3.337-3.29 1.316-.783 2.852-1.175 4.606-1.175h.705c.282 0 .596.031.94.094v8.131a8.083 8.083 0 00-3.666-.846c-1.974 0-3.462.595-4.465 1.786-.971 1.16-1.457 2.867-1.457 5.123V39h-8.507V14.889zm39.794 8.554c-.282-1.19-.861-2.146-1.739-2.867-.877-.72-1.942-1.081-3.196-1.081-1.316 0-2.397.345-3.243 1.034-.814.69-1.331 1.66-1.551 2.914h9.729zm-9.964 4.935c0 3.666 1.724 5.499 5.17 5.499 1.849 0 3.243-.752 4.183-2.256h8.225c-1.66 5.515-5.812 8.272-12.455 8.272-2.036 0-3.901-.298-5.593-.893-1.692-.627-3.149-1.504-4.371-2.632a11.788 11.788 0 01-2.773-4.042c-.658-1.567-.987-3.321-.987-5.264 0-2.005.314-3.807.94-5.405.627-1.63 1.52-3.008 2.679-4.136 1.16-1.128 2.554-1.99 4.183-2.585 1.661-.627 3.525-.94 5.593-.94 2.037 0 3.87.313 5.499.94 1.63.595 3.008 1.473 4.136 2.632 1.128 1.16 1.99 2.585 2.585 4.277.596 1.66.893 3.54.893 5.64v.893h-17.907zm22.347 6.11c0-.752.141-1.457.423-2.115a5.374 5.374 0 011.175-1.786 5.496 5.496 0 011.739-1.175 5.655 5.655 0 012.162-.423c.752 0 1.457.141 2.115.423a5.37 5.37 0 011.786 1.175 5.374 5.374 0 011.175 1.786c.282.658.423 1.363.423 2.115 0 .752-.141 1.473-.423 2.162a5.505 5.505 0 01-1.175 1.739 5.37 5.37 0 01-1.786 1.175 5.312 5.312 0 01-2.115.423 5.655 5.655 0 01-2.162-.423 5.496 5.496 0 01-1.739-1.175 5.505 5.505 0 01-1.175-1.739 5.656 5.656 0 01-.423-2.162z" fill="#fff"/></svg>