<svg width="245" height="50" viewBox="0 0 245 50" fill="none" xmlns="http://www.w3.org/2000/svg"><rect width="245" height="50" rx="2" fill="#EF6129"/><path d="M18.159 32V18.51h5.187c1.495 0 2.742.304 3.743.912a5.702 5.702 0 012.28 2.432c.52 1.013.779 2.14.779 3.382 0 1.368-.285 2.559-.855 3.572a5.828 5.828 0 01-2.375 2.356c-1.013.557-2.204.836-3.572.836h-5.187zm8.227-6.764c0-.697-.12-1.305-.361-1.824a2.787 2.787 0 00-1.045-1.235c-.456-.291-1-.437-1.634-.437h-1.482v7.03h1.482c.646 0 1.19-.152 1.634-.456a2.91 2.91 0 001.045-1.254c.24-.545.361-1.153.361-1.824zm16.508 3.534V32H33.28V18.51h9.443v3.23h-5.738v1.9h4.902v3.002h-4.902v2.128h5.909zm13.75-7.03h-3.877V32h-3.705V21.74h-3.895v-3.23h11.477v3.23zm12.483 7.03V32h-9.614V18.51h9.443v3.23h-5.738v1.9h4.902v3.002h-4.902v2.128h5.909zm-3.63-10.83l-2.28-.608.95-2.698h3.212l-1.881 3.306zm10.578 7.429V32H72.37V18.51h2.888l5.415 6.859V18.51h3.705V32h-2.945l-5.358-6.631zM94.002 32V18.51h3.705v10.26h6.118V32h-9.823zm15.75-13.49h4.142L118.188 32h-3.762l-.817-2.641h-3.591L109.22 32h-3.781l4.313-13.49zm3.268 8.379l-1.197-4.75-1.254 4.75h2.451zm15.83-3.971l-.323-.19a7.706 7.706 0 00-.855-.418 8.8 8.8 0 00-1.159-.437 4.24 4.24 0 00-1.235-.19c-.316 0-.576.05-.779.152-.202.101-.304.272-.304.513 0 .228.102.412.304.551.203.14.488.266.855.38.38.114.83.253 1.349.418.836.253 1.558.545 2.166.874.608.33 1.077.754 1.406 1.273.33.507.494 1.184.494 2.033 0 .81-.145 1.495-.437 2.052a3.565 3.565 0 01-1.178 1.311 5.25 5.25 0 01-1.653.722 8.307 8.307 0 01-1.862.209c-.646 0-1.323-.063-2.033-.19a15.537 15.537 0 01-2.033-.551 11.34 11.34 0 01-1.805-.836l1.596-3.249.38.228c.254.152.589.323 1.007.513.418.19.881.361 1.387.513.52.152 1.039.228 1.558.228.406 0 .684-.05.836-.152.165-.114.247-.26.247-.437 0-.266-.139-.469-.418-.608-.278-.152-.646-.291-1.102-.418-.443-.14-.937-.298-1.482-.475-.785-.266-1.431-.564-1.938-.893-.506-.342-.88-.741-1.121-1.197-.24-.469-.361-1.032-.361-1.691 0-1 .235-1.837.703-2.508a4.414 4.414 0 011.843-1.52 5.897 5.897 0 012.489-.532c.659 0 1.292.082 1.9.247.621.152 1.197.342 1.729.57.545.228 1.02.443 1.425.646l-1.596 3.059zm20.478 5.852V32h-9.614V18.51h9.443v3.23h-5.738v1.9h4.902v3.002h-4.902v2.128h5.909zm11.413-5.852l-.323-.19a7.706 7.706 0 00-.855-.418 8.8 8.8 0 00-1.159-.437 4.24 4.24 0 00-1.235-.19c-.316 0-.576.05-.779.152-.202.101-.304.272-.304.513 0 .228.102.412.304.551.203.14.488.266.855.38.38.114.83.253 1.349.418.836.253 1.558.545 2.166.874.608.33 1.077.754 1.406 1.273.33.507.494 1.184.494 2.033 0 .81-.145 1.495-.437 2.052a3.565 3.565 0 01-1.178 1.311 5.25 5.25 0 01-1.653.722 8.307 8.307 0 01-1.862.209c-.646 0-1.323-.063-2.033-.19a15.537 15.537 0 01-2.033-.551 11.34 11.34 0 01-1.805-.836l1.596-3.249.38.228c.254.152.589.323 1.007.513.418.19.881.361 1.387.513.52.152 1.039.228 1.558.228.406 0 .684-.05.836-.152.165-.114.247-.26.247-.437 0-.266-.139-.469-.418-.608-.278-.152-.646-.291-1.102-.418-.443-.14-.937-.298-1.482-.475-.785-.266-1.431-.564-1.938-.893-.506-.342-.88-.741-1.121-1.197-.24-.469-.361-1.032-.361-1.691 0-1 .235-1.837.703-2.508a4.414 4.414 0 011.843-1.52 5.897 5.897 0 012.489-.532c.659 0 1.292.082 1.9.247.621.152 1.197.342 1.729.57.545.228 1.02.443 1.425.646l-1.596 3.059zm15.584-1.178h-3.876V32h-3.705V21.74h-3.895v-3.23h11.476v3.23zm4.742-3.23h4.142L189.503 32h-3.762l-.817-2.641h-3.591L180.535 32h-3.781l4.313-13.49zm3.268 8.379l-1.197-4.75-1.254 4.75h2.451zM192.144 32V18.51h9.253v3.23h-5.548v2.242h4.522v3.002h-4.522V32h-3.705zm14.47-13.49h4.142L215.05 32h-3.762l-.817-2.641h-3.591L206.082 32h-3.781l4.313-13.49zm3.268 8.379l-1.197-4.75-1.254 4.75h2.451zm15.83-3.971l-.323-.19a7.706 7.706 0 00-.855-.418 8.8 8.8 0 00-1.159-.437 4.24 4.24 0 00-1.235-.19c-.316 0-.576.05-.779.152-.202.101-.304.272-.304.513 0 .228.102.412.304.551.203.14.488.266.855.38.38.114.83.253 1.349.418.836.253 1.558.545 2.166.874.608.33 1.077.754 1.406 1.273.33.507.494 1.184.494 2.033 0 .81-.145 1.495-.437 2.052a3.565 3.565 0 01-1.178 1.311 5.25 5.25 0 01-1.653.722 8.307 8.307 0 01-1.862.209c-.646 0-1.323-.063-2.033-.19a15.537 15.537 0 01-2.033-.551 11.34 11.34 0 01-1.805-.836l1.596-3.249.38.228c.254.152.589.323 1.007.513.418.19.881.361 1.387.513.52.152 1.039.228 1.558.228.406 0 .684-.05.836-.152.165-.114.247-.26.247-.437 0-.266-.139-.469-.418-.608-.278-.152-.646-.291-1.102-.418-.443-.14-.937-.298-1.482-.475-.785-.266-1.431-.564-1.938-.893-.506-.342-.88-.741-1.121-1.197-.24-.469-.361-1.032-.361-1.691 0-1 .235-1.837.703-2.508a4.414 4.414 0 011.843-1.52 5.897 5.897 0 012.489-.532c.659 0 1.292.082 1.9.247.621.152 1.197.342 1.729.57.545.228 1.02.443 1.425.646l-1.596 3.059z" fill="#fff"/></svg>