<svg width="196" height="89" viewBox="0 0 196 89" fill="none" xmlns="http://www.w3.org/2000/svg"><path d="M38.568 22V1.912h15.19v2.17h-12.71v6.107h11.904v2.139H41.048v7.502h13.175V22H38.568zm18.67 0V1.602h2.356V22h-2.356zm13.419 0V8.856h-2.449V6.903h2.449V5.756c0-3.751 1.984-4.774 4.061-4.774 1.488 0 2.883.558 3.627 1.023l-.775 1.798c-.31-.186-1.209-.744-2.356-.744-1.178 0-2.201.589-2.201 2.945v.899h4.805v1.953h-4.805V22h-2.356zm9.407 0V6.903h2.356v3.193c.868-1.984 2.821-3.503 5.828-3.503v2.573c-3.534 0-5.828 1.984-5.828 5.673V22h-2.356zm17.106.31c-4.185 0-7.13-3.472-7.13-7.843 0-4.433 2.945-7.874 7.13-7.874 2.418 0 4.557.992 5.673 2.945V6.903h2.356V22h-2.356v-2.635c-1.116 1.984-3.255 2.945-5.673 2.945zm.527-2.294c2.883 0 5.146-2.387 5.146-5.549 0-3.162-2.263-5.58-5.146-5.58-3.007 0-5.24 2.356-5.24 5.58 0 3.193 2.233 5.549 5.24 5.549zm16.699 2.294c-3.72 0-5.487-1.953-5.487-5.983V6.903h2.356v9.114c0 2.821 1.364 3.999 3.813 3.999 2.728 0 4.309-2.232 4.309-4.557V6.903h2.356V22h-2.263v-2.666c-.93 1.953-3.1 2.976-5.084 2.976zm17.83 0c-4.185 0-7.13-3.472-7.13-7.843 0-4.433 2.945-7.874 7.13-7.874 2.418 0 4.557.992 5.673 2.945V1.602h2.356V22h-2.263v-2.635c-1.116 1.984-3.317 2.945-5.766 2.945zm.527-2.294c2.883 0 5.146-2.387 5.146-5.549 0-3.162-2.263-5.58-5.146-5.58-3.007 0-5.239 2.356-5.239 5.58 0 3.193 2.232 5.549 5.239 5.549zm18.745 2.294c-4.278 0-7.905-3.069-7.905-7.843 0-4.371 3.286-7.874 7.595-7.874 4.03 0 7.223 3.472 7.223 7.781 0 .434-.062.899-.062.93h-12.307c.372 3.007 2.697 4.898 5.487 4.898 1.705 0 3.41-.589 4.65-1.612l1.023 1.736a9.238 9.238 0 01-5.704 1.984zm-5.456-8.804h10.044c-.248-2.79-2.387-4.805-5.022-4.805-2.573 0-4.681 1.984-5.022 4.805zM.642 59.371V39.903h2.263v2.604c1.116-1.953 3.317-2.914 5.766-2.914 4.185 0 7.13 3.441 7.13 7.843s-2.945 7.874-7.13 7.874c-2.387 0-4.557-.992-5.673-2.945v7.006H.642zm7.502-6.355c3.007 0 5.239-2.356 5.239-5.58 0-3.193-2.232-5.549-5.24-5.549-2.882 0-5.145 2.387-5.145 5.549 0 3.162 2.263 5.58 5.146 5.58zm16.234 2.294c-3.72 0-5.487-1.953-5.487-5.983v-9.424h2.356v9.114c0 2.821 1.364 3.999 3.813 3.999 2.728 0 4.309-2.232 4.309-4.557v-8.556h2.356V55h-2.263v-2.666c-.93 1.953-3.1 2.976-5.084 2.976zm18.605 0c-4.278 0-7.905-3.069-7.905-7.843 0-4.371 3.286-7.874 7.595-7.874 4.03 0 7.223 3.472 7.223 7.781 0 .434-.062.899-.062.93H37.527c.372 3.007 2.697 4.898 5.487 4.898 1.705 0 3.41-.589 4.65-1.612l1.023 1.736a9.238 9.238 0 01-5.704 1.984zm-5.456-8.804h10.044c-.248-2.79-2.387-4.805-5.022-4.805-2.573 0-4.68 1.984-5.022 4.805zm22.24 8.804c-4.185 0-7.13-3.472-7.13-7.843 0-4.433 2.945-7.874 7.13-7.874 2.418 0 4.557.992 5.673 2.945v-7.936h2.356V55h-2.263v-2.635c-1.116 1.984-3.317 2.945-5.766 2.945zm.527-2.294c2.883 0 5.146-2.387 5.146-5.549 0-3.162-2.263-5.58-5.146-5.58-3.007 0-5.24 2.356-5.24 5.58 0 3.193 2.233 5.549 5.24 5.549zm18.745 2.294c-4.278 0-7.905-3.069-7.905-7.843 0-4.371 3.286-7.874 7.595-7.874 4.03 0 7.223 3.472 7.223 7.781 0 .434-.062.899-.062.93H73.583c.372 3.007 2.697 4.898 5.487 4.898 1.705 0 3.41-.589 4.65-1.612l1.023 1.736a9.238 9.238 0 01-5.704 1.984zm-5.456-8.804h10.044c-.248-2.79-2.387-4.805-5.022-4.805-2.573 0-4.681 1.984-5.022 4.805zM96.063 55V34.602h2.357V55h-2.356zm6.328 0V34.602h2.356V55h-2.356zm13.612.31c-4.278 0-7.905-3.069-7.905-7.843 0-4.371 3.286-7.874 7.595-7.874 4.03 0 7.223 3.472 7.223 7.781 0 .434-.062.899-.062.93h-12.307c.372 3.007 2.697 4.898 5.487 4.898 1.705 0 3.41-.589 4.65-1.612l1.023 1.736a9.238 9.238 0 01-5.704 1.984zm-5.456-8.804h10.044c-.248-2.79-2.387-4.805-5.022-4.805-2.573 0-4.681 1.984-5.022 4.805zm22.518 13.051c-2.418 0-4.495-.806-5.921-2.232l.992-1.519c1.209 1.209 2.976 1.891 4.743 1.891 2.573 0 5.487-1.581 5.487-6.045v-.496c-.651 1.705-2.728 3.1-5.642 3.1-4.154 0-7.068-3.224-7.068-7.316s2.914-7.347 7.068-7.347c2.604 0 4.96 1.178 5.735 3.069v-2.759h2.263V51.59c0 6.076-4.34 7.967-7.657 7.967zm.124-7.409c2.945 0 5.177-2.232 5.177-5.394 0-2.852-2.325-5.053-5.177-5.053-2.883 0-5.115 2.263-5.115 5.239s2.232 5.208 5.115 5.208zm18.004 3.162c-4.185 0-7.13-3.472-7.13-7.843 0-4.433 2.945-7.874 7.13-7.874 2.418 0 4.557.992 5.673 2.945v-2.635h2.356V55h-2.356v-2.635c-1.116 1.984-3.255 2.945-5.673 2.945zm.527-2.294c2.883 0 5.146-2.387 5.146-5.549 0-3.162-2.263-5.58-5.146-5.58-3.007 0-5.239 2.356-5.239 5.58 0 3.193 2.232 5.549 5.239 5.549zM163.18 55V39.903h2.356v3.193c.868-1.984 2.821-3.503 5.828-3.503v2.573c-3.534 0-5.828 1.984-5.828 5.673V55h-2.356zm24.159.31c-4.185 0-7.13-3.472-7.13-7.843 0-4.433 2.945-7.874 7.13-7.874 2.418 0 4.557.992 5.673 2.945v-2.635h2.356V55h-2.356v-2.635c-1.116 1.984-3.255 2.945-5.673 2.945zm.527-2.294c2.883 0 5.146-2.387 5.146-5.549 0-3.162-2.263-5.58-5.146-5.58-3.007 0-5.239 2.356-5.239 5.58 0 3.193 2.232 5.549 5.239 5.549zM30.11 88.31c-2.666 0-4.247-1.302-4.247-4.836v-8.618H23.6v-1.953h2.263v-3.255l2.356-.434v3.689h5.146v1.953H28.22v8.68c0 2.077.9 2.666 2.108 2.666 1.395 0 2.48-.837 2.48-.837l.775 1.829c-.589.403-1.829 1.116-3.472 1.116zm6.27-.31V72.903h2.355v3.193c.868-1.984 2.822-3.503 5.828-3.503v2.573c-3.534 0-5.828 1.984-5.828 5.673V88H36.38zm17.105.31c-4.185 0-7.13-3.472-7.13-7.843 0-4.433 2.945-7.874 7.13-7.874 2.418 0 4.557.992 5.673 2.945v-2.635h2.356V88h-2.356v-2.635c-1.116 1.984-3.255 2.945-5.673 2.945zm.527-2.294c2.883 0 5.146-2.387 5.146-5.549 0-3.162-2.263-5.58-5.146-5.58-3.007 0-5.239 2.356-5.239 5.58 0 3.193 2.232 5.549 5.24 5.549zm16.42 2.077l-6.665-15.19h2.387l4.278 9.641c.62 1.395 1.085 3.007 1.085 3.007s.465-1.612 1.085-3.007l4.247-9.641h2.387l-6.634 15.19h-2.17zm16.055-17.608l2.51-4.123h2.574l-2.914 4.123h-2.17zm1.922 17.825c-4.278 0-7.905-3.069-7.905-7.843 0-4.371 3.286-7.874 7.595-7.874 4.03 0 7.223 3.472 7.223 7.781 0 .434-.062.899-.062.93H82.953c.372 3.007 2.697 4.898 5.487 4.898 1.705 0 3.41-.589 4.65-1.612l1.023 1.736a9.238 9.238 0 01-5.704 1.984zm-5.456-8.804h10.044c-.248-2.79-2.387-4.805-5.022-4.805-2.573 0-4.681 1.984-5.022 4.805zm20.813 8.804c-3.069 0-5.022-1.395-5.89-2.294l.961-1.922c1.116 1.085 2.728 1.984 4.929 1.984 2.077 0 3.782-.961 3.782-2.325 0-1.581-1.829-2.015-3.658-2.48-2.79-.713-5.332-1.488-5.332-4.371 0-2.728 2.852-4.309 5.394-4.309 2.077 0 3.596.558 5.146 1.612l-.93 1.922c-1.271-.868-2.604-1.302-4.185-1.302-1.55 0-3.007.868-3.007 2.046 0 1.488 1.674 1.829 3.441 2.201 2.728.62 5.549 1.643 5.549 4.619 0 3.193-3.255 4.619-6.2 4.619zm22.708 0c-4.185 0-7.13-3.472-7.13-7.843 0-4.433 2.945-7.874 7.13-7.874 2.418 0 4.557.992 5.673 2.945v-7.936h2.356V88h-2.263v-2.635c-1.116 1.984-3.317 2.945-5.766 2.945zm.527-2.294c2.883 0 5.146-2.387 5.146-5.549 0-3.162-2.263-5.58-5.146-5.58-3.007 0-5.239 2.356-5.239 5.58 0 3.193 2.232 5.549 5.239 5.549zm18.746 2.294c-4.278 0-7.905-3.069-7.905-7.843 0-4.371 3.286-7.874 7.595-7.874 4.03 0 7.223 3.472 7.223 7.781 0 .434-.062.899-.062.93h-12.307c.372 3.007 2.697 4.898 5.487 4.898 1.705 0 3.41-.589 4.65-1.612l1.023 1.736a9.238 9.238 0 01-5.704 1.984zm-5.456-8.804h10.044c-.248-2.79-2.387-4.805-5.022-4.805-2.573 0-4.681 1.984-5.022 4.805zm16.876 8.804c-.93 0-1.612-.744-1.612-1.643s.713-1.643 1.612-1.643c.899 0 1.643.744 1.643 1.643s-.744 1.643-1.643 1.643zm6.297 0c-.93 0-1.612-.744-1.612-1.643s.713-1.643 1.612-1.643c.899 0 1.643.744 1.643 1.643s-.744 1.643-1.643 1.643zm6.297 0c-.93 0-1.612-.744-1.612-1.643s.713-1.643 1.612-1.643c.899 0 1.643.744 1.643 1.643s-.744 1.643-1.643 1.643z" fill="#fff" fill-opacity=".75"/></svg>