<svg width="266" height="32" viewBox="0 0 266 32" fill="none" xmlns="http://www.w3.org/2000/svg"><path d="M.015 25V8.137h5.676v1.848c1.254-1.419 3.201-2.178 5.082-2.178 2.706 0 4.158 1.089 4.95 2.607 1.452-2.112 3.696-2.607 5.38-2.607 5.444 0 5.906 4.389 5.906 7.788V25h-6.006v-8.712c0-2.013-.56-2.937-1.88-2.937-1.783 0-2.608 1.617-2.608 3.696V25H10.51v-8.712c0-2.013-.56-2.937-1.88-2.937-1.783 0-2.608 1.617-2.608 3.696V25H.015zm38.596.33c-5.115 0-9.47-3.201-9.47-8.745 0-4.884 3.794-8.778 8.777-8.778 4.785 0 8.448 3.894 8.448 8.778 0 1.023-.132 1.947-.132 1.947H35.047c.495 1.584 1.98 2.178 3.597 2.178 1.42 0 2.937-.429 3.993-1.023l2.013 4.059c-1.88 1.155-3.96 1.584-6.039 1.584zm-3.729-10.197h6.006c-.198-1.551-1.419-2.607-2.97-2.607-1.485 0-2.673 1.056-3.036 2.607zM48.677 25V8.137h5.676v1.947c1.551-1.815 3.4-2.277 5.082-2.277 4.257 0 5.907 2.508 5.907 7.458V25h-6.006v-8.976c0-1.914-.726-2.607-1.88-2.607-1.849 0-2.773 1.551-2.773 3.63V25h-6.006zm25.347.33c-3.861 0-6.006-1.155-6.996-2.013l1.914-4.224c1.32.891 2.541 1.419 5.115 1.419.066 0 1.65-.099 1.65-.759 0-.528-.99-.627-1.98-.858-3.663-.891-6.369-2.376-6.369-5.478 0-3.696 3.366-5.61 6.93-5.61 3.267 0 5.214.726 6.831 1.584l-1.782 4.026c-1.947-.759-3.729-.99-4.851-.99-.594 0-1.056.198-1.056.528 0 .627 1.419.858 3.102 1.32 2.376.693 5.247 1.848 5.247 5.247 0 4.521-4.587 5.808-7.755 5.808zm16.613 0c-4.686 0-7.227-3.894-7.227-8.745 0-4.884 2.54-8.778 7.227-8.778 1.353 0 3.597.462 4.587 2.211V8.137h5.676V25h-5.676v-1.881c-.924 1.716-3.234 2.211-4.587 2.211zm1.584-5.28c1.584 0 2.706-1.419 2.706-3.465 0-2.013-1.122-3.498-2.706-3.498-1.584 0-2.706 1.485-2.706 3.498 0 2.046 1.122 3.465 2.706 3.465zM102.9 31.402l-2.178-4.059c2.112-1.056 2.805-2.937 2.805-4.917V8.137h6.006v13.332c0 5.247-2.31 8.019-6.633 9.933zm3.597-24.552c-1.848 0-3.399-1.551-3.399-3.399 0-1.881 1.551-3.432 3.399-3.432 1.914 0 3.465 1.551 3.465 3.432 0 1.848-1.551 3.399-3.465 3.399zm14.808 18.48c-5.115 0-9.471-3.201-9.471-8.745 0-4.884 3.795-8.778 8.778-8.778 4.785 0 8.448 3.894 8.448 8.778 0 1.023-.132 1.947-.132 1.947h-11.187c.495 1.584 1.98 2.178 3.597 2.178 1.419 0 2.937-.429 3.993-1.023l2.013 4.059c-1.881 1.155-3.96 1.584-6.039 1.584zm-3.729-10.197h6.006c-.198-1.551-1.419-2.607-2.97-2.607-1.485 0-2.673 1.056-3.036 2.607zm28.007 10.197c-4.686 0-7.227-3.894-7.227-8.745 0-4.884 2.706-8.778 7.425-8.778 1.353 0 3.036.462 4.059 1.749v-6.27h6.006V25h-5.676v-1.881c-.891 1.716-3.234 2.211-4.587 2.211zm1.584-5.28c1.584 0 2.706-1.419 2.706-3.465 0-2.013-1.122-3.498-2.706-3.498-1.584 0-2.706 1.485-2.706 3.498 0 2.046 1.122 3.465 2.706 3.465zm20.447 5.28c-5.115 0-9.471-3.201-9.471-8.745 0-4.884 3.795-8.778 8.778-8.778 4.785 0 8.448 3.894 8.448 8.778 0 1.023-.132 1.947-.132 1.947H164.05c.495 1.584 1.98 2.178 3.597 2.178 1.419 0 2.937-.429 3.993-1.023l2.013 4.059c-1.881 1.155-3.96 1.584-6.039 1.584zm-3.729-10.197h6.006c-.198-1.551-1.419-2.607-2.97-2.607-1.485 0-2.673 1.056-3.036 2.607zm27.843 10.197c-3.234 0-5.346-2.079-5.346-5.775v-6.666h-2.475V8.137h2.475V5.101l6.006-1.485v4.521h3.729v4.752h-3.729v6.204c0 .792.396 1.056.924 1.056.495 0 1.089-.231 1.518-.528l1.617 4.389c-1.452 1.023-3.234 1.32-4.719 1.32zm15.428 0c-5.115 0-9.471-3.201-9.471-8.745 0-4.884 3.795-8.778 8.778-8.778 4.785 0 8.448 3.894 8.448 8.778 0 1.023-.132 1.947-.132 1.947h-11.187c.495 1.584 1.98 2.178 3.597 2.178 1.419 0 2.937-.429 3.993-1.023l2.013 4.059c-1.881 1.155-3.96 1.584-6.039 1.584zm-3.729-10.197h6.006c-.198-1.551-1.419-2.607-2.97-2.607-1.485 0-2.673 1.056-3.036 2.607zM215.138 25l4.983-8.646-4.983-8.217h6.468l.693 1.452c.66 1.386 1.617 3.663 1.617 3.663s.957-2.277 1.617-3.663l.693-1.452h6.468l-4.983 8.217L232.694 25h-6.534l-.825-1.848c-.594-1.353-1.419-3.597-1.419-3.597s-.858 2.211-1.452 3.597L221.672 25h-6.534zm25.993.33c-3.234 0-5.346-2.079-5.346-5.775v-6.666h-2.475V8.137h2.475V5.101l6.006-1.485v4.521h3.729v4.752h-3.729v6.204c0 .792.396 1.056.924 1.056.495 0 1.089-.231 1.518-.528l1.617 4.389c-1.452 1.023-3.234 1.32-4.719 1.32zm15.066 0c-5.181 0-9.108-3.894-9.108-8.745 0-4.884 3.927-8.778 9.108-8.778 5.181 0 9.108 3.894 9.108 8.778 0 4.851-3.927 8.745-9.108 8.745zm0-5.28c1.782 0 3.036-1.419 3.036-3.465 0-2.013-1.254-3.498-3.036-3.498s-3.036 1.485-3.036 3.498c0 2.046 1.254 3.465 3.036 3.465z" fill="#fff"/></svg>