<svg width="198" height="173" viewBox="0 0 198 173" fill="none" xmlns="http://www.w3.org/2000/svg"><path fill-rule="evenodd" clip-rule="evenodd" d="M81.618 163.453a81.763 81.763 0 0045.345-13.721 81.456 81.456 0 0030.061-36.536 81.22 81.22 0 004.644-47.038 81.343 81.343 0 00-22.337-41.684 81.679 81.679 0 00-41.79-22.28 81.81 81.81 0 00-47.157 4.632 81.574 81.574 0 00-36.629 29.985A81.265 81.265 0 000 82.04c0 21.592 8.599 42.299 23.905 57.567a81.727 81.727 0 0057.713 23.845z" fill="#495E89" opacity=".54"/><path fill-rule="evenodd" clip-rule="evenodd" d="M188.679 60.431a9.339 9.339 0 005.179-1.566 9.31 9.31 0 003.433-4.173 9.276 9.276 0 00-2.021-10.132 9.342 9.342 0 00-10.157-2.015 9.31 9.31 0 00-4.183 3.424 9.285 9.285 0 001.159 11.74 9.33 9.33 0 006.59 2.722zM10.706 161.945a6.946 6.946 0 003.852-1.166 6.917 6.917 0 002.553-3.104 6.899 6.899 0 00-1.505-7.536 6.936 6.936 0 00-7.556-1.496 6.926 6.926 0 00-3.11 2.549 6.902 6.902 0 00.866 8.729 6.94 6.94 0 004.9 2.024z" fill="#7588AF"/><path fill-rule="evenodd" clip-rule="evenodd" d="M136.645 172.629a59.958 59.958 0 0033.252-10.059 59.722 59.722 0 0022.045-26.791 59.56 59.56 0 003.407-34.492 59.645 59.645 0 00-16.38-30.567 59.893 59.893 0 00-30.644-16.338 59.99 59.99 0 00-34.58 3.398 59.817 59.817 0 00-26.859 21.99 59.591 59.591 0 00-10.084 33.167 59.618 59.618 0 0017.527 42.209 59.922 59.922 0 0042.316 17.483z" fill="#1A2B4F" opacity=".51"/></svg>