<svg width="259" height="58" viewBox="0 0 259 58" fill="none" xmlns="http://www.w3.org/2000/svg"><rect x="1" y="1" width="257" height="56" rx="7" fill="#FF9759" stroke="#F2B795" stroke-width="2"/><path d="M32.318 38l6.288-15.552h4.704L49.598 38h-4.656l-.72-2.016h-6.528L36.974 38h-4.656zm6.6-5.52h4.08l-1.848-5.256c-.144-.384-.168-.528-.192-.624 0 0-.048.216-.192.624l-1.848 5.256zM51.598 38V22.448h6.864c4.775 0 7.224 2.76 7.224 6.144 0 3.384-2.449 6.144-7.249 6.144h-2.28V38h-4.56zm4.56-7.128h2.4c1.343 0 2.303-1.008 2.303-2.28 0-1.272-.96-2.28-2.28-2.28h-2.424v4.56zM68.296 38V22.448h6.864c4.776 0 7.224 2.76 7.224 6.144 0 1.8-.816 3.648-2.448 4.776L82.84 38h-5.208l-1.776-3.336c-.48.048-.744.072-1.128.072h-1.872V38h-4.56zm4.56-7.128h2.352c1.416 0 2.352-1.032 2.352-2.28 0-1.272-.96-2.28-2.328-2.28h-2.376v4.56zM85.018 38V22.448h12.36v3.864h-7.8v1.896h7.488v3.816h-7.488v2.112h8.088V38H85.018zm14.941 0V22.448h3.96l4.944 6.888c.36.48.696 1.176.696 1.176v-8.064h4.56V38h-3.96l-4.944-6.768c-.36-.48-.696-1.176-.696-1.176V38h-4.56zm17.285 0V22.448h6.48c5.208 0 8.472 3.528 8.472 7.776 0 4.248-3.264 7.776-8.472 7.776h-6.48zm4.56-3.864h1.752c2.328 0 3.816-1.656 3.816-3.912 0-2.232-1.488-3.912-3.816-3.912h-1.752v7.824zM134.833 38V22.448h12.36v3.864h-7.8v1.896h7.488v3.816h-7.488v2.112h8.088V38h-12.648zm28.494.288c-4.944 0-8.232-3.576-8.232-8.064 0-4.44 3.288-8.016 8.232-8.016 2.376 0 4.512.84 5.928 2.256l-3 3.096c-1.104-1.128-1.992-1.224-2.736-1.224-2.016 0-3.672 1.632-3.672 3.888 0 2.304 1.536 3.936 3.672 3.936 1.272 0 2.448-.576 3.312-1.728l2.904 3.192c-1.56 1.728-3.744 2.664-6.408 2.664zm15.904 0c-4.992 0-8.328-3.576-8.328-8.064 0-4.44 3.336-8.016 8.328-8.016 4.992 0 8.352 3.576 8.352 8.016 0 4.488-3.36 8.064-8.352 8.064zm0-4.128c2.112 0 3.6-1.632 3.6-3.936 0-2.256-1.488-3.888-3.6-3.888-1.968 0-3.576 1.632-3.576 3.888 0 2.304 1.488 3.936 3.576 3.936zm-2.04-12.48l2.52-4.296h4.2l-3.48 4.296h-3.24zM190.214 38V22.448h3.888l3.048 4.368c.504.744 1.32 2.016 1.32 2.016s.816-1.272 1.32-2.016l3.048-4.368h3.888V38h-4.56v-7.872s-.792 1.272-1.224 1.872l-2.472 3.456L195.974 32c-.432-.6-1.2-1.824-1.2-1.824V38h-4.56zm27.477.288c-4.992 0-8.328-3.576-8.328-8.064 0-4.44 3.336-8.016 8.328-8.016 4.992 0 8.352 3.576 8.352 8.016 0 4.488-3.36 8.064-8.352 8.064zm0-4.128c2.112 0 3.6-1.632 3.6-3.936 0-2.256-1.488-3.888-3.6-3.888-1.968 0-3.576 1.632-3.576 3.888 0 2.304 1.488 3.936 3.576 3.936z" fill="#101B31"/></svg>