<svg width="119" height="127" viewBox="0 0 119 127" fill="none" xmlns="http://www.w3.org/2000/svg"><path d="M71.4 3.969H15.867c-6.573 0-11.9 5.33-11.9 11.906v95.25c0 6.576 5.327 11.906 11.9 11.906H71.4c6.572 0 11.9-5.33 11.9-11.906v-95.25C83.3 9.3 77.972 3.97 71.4 3.97z" fill="#F2F2F2"/><path d="M83.3 15.875a11.91 11.91 0 00-3.485-8.419A11.897 11.897 0 0071.4 3.97H15.867a11.897 11.897 0 00-8.415 3.487 11.91 11.91 0 00-3.485 8.42V31.75H83.3V15.875zM3.967 111.125a11.91 11.91 0 003.485 8.419 11.896 11.896 0 008.415 3.487H71.4c3.156 0 6.183-1.254 8.415-3.487a11.91 11.91 0 003.485-8.419V95.25H3.967v15.875z" fill="#C1C5C8"/><path d="M71.4 127H15.867a15.863 15.863 0 01-11.22-4.65A15.879 15.879 0 010 111.125v-95.25A15.88 15.88 0 014.647 4.65 15.863 15.863 0 0115.867 0H71.4c4.208 0 8.244 1.673 11.22 4.65a15.88 15.88 0 014.647 11.225v95.25c0 4.21-1.672 8.248-4.648 11.225A15.863 15.863 0 0171.4 127zM15.867 7.937a7.94 7.94 0 00-7.933 7.938v95.25a7.933 7.933 0 007.933 7.937H71.4a7.933 7.933 0 007.933-7.937v-95.25A7.931 7.931 0 0071.4 7.937H15.867z" fill="#101B31"/><path d="M43.633 23.813H27.767a3.966 3.966 0 01-3.967-3.97 3.97 3.97 0 013.967-3.968h15.866a3.966 3.966 0 013.967 3.969 3.97 3.97 0 01-3.967 3.968zM99.167 83.344a3.965 3.965 0 01-3.967-3.969v-31.75a3.97 3.97 0 013.967-3.969 3.97 3.97 0 013.966 3.969v31.75a3.97 3.97 0 01-3.966 3.969zM115.033 71.438a3.966 3.966 0 01-3.966-3.969V55.563a3.966 3.966 0 117.933 0v11.906a3.97 3.97 0 01-3.967 3.969zM59.5 23.813a3.968 3.968 0 003.967-3.97 3.968 3.968 0 10-3.967 3.97zM43.633 112.125a3.968 3.968 0 10-.002-7.936 3.968 3.968 0 00.002 7.936z" fill="#101B31"/><path d="M43.395 83.74c11.283 0 20.429-9.15 20.429-20.438 0-11.288-9.146-20.44-20.429-20.44-11.282 0-20.428 9.151-20.428 20.44 0 11.288 9.146 20.439 20.428 20.439z" fill="#C80000"/><path d="M43.395 66.794a3.49 3.49 0 003.49-3.492V52.864A3.494 3.494 0 0043.416 49a3.49 3.49 0 00-3.47 3.864V63.5a3.493 3.493 0 003.45 3.294zM43.395 77.232a3.492 3.492 0 003.49-3.493 3.492 3.492 0 10-3.49 3.493z" fill="#fff"/></svg>