<svg width="275" height="60" viewBox="0 0 275 60" fill="none" xmlns="http://www.w3.org/2000/svg"><path d="M6.843 11.521h1.95c2.16 0 3.24-.94 3.24-2.82s-1.08-2.82-3.24-2.82h-1.95v5.64zm0 12.24H.963V1.141h9.36c2.54 0 4.48.66 5.82 1.98 1.36 1.32 2.04 3.18 2.04 5.58s-.68 4.26-2.04 5.58c-1.34 1.32-3.28 1.98-5.82 1.98h-3.48v7.5zm13.942-15.39h5.43v2.52c.58-.92 1.29-1.62 2.13-2.1.84-.5 1.82-.75 2.94-.75h.45c.18 0 .38.02.6.06v5.19a5.16 5.16 0 00-2.34-.54c-1.26 0-2.21.38-2.85 1.14-.62.74-.93 1.83-.93 3.27v6.6h-5.43V8.371zm19.222 7.62c0 .52.09 1 .27 1.44.2.42.45.79.75 1.11.32.32.69.57 1.11.75.44.18.9.27 1.38.27.48 0 .93-.09 1.35-.27.44-.18.81-.43 1.11-.75.32-.32.57-.69.75-1.11.2-.44.3-.91.3-1.41 0-.48-.1-.93-.3-1.35-.18-.44-.43-.82-.75-1.14-.3-.32-.67-.57-1.11-.75a3.39 3.39 0 00-1.35-.27c-.48 0-.94.09-1.38.27-.42.18-.79.43-1.11.75-.3.32-.55.69-.75 1.11-.18.42-.27.87-.27 1.35zm-5.73-.06c0-1.14.23-2.2.69-3.18.46-1 1.1-1.86 1.92-2.58.82-.74 1.79-1.32 2.91-1.74 1.14-.42 2.38-.63 3.72-.63 1.32 0 2.54.21 3.66.63 1.14.4 2.12.97 2.94 1.71.84.72 1.49 1.59 1.95 2.61.46 1 .69 2.11.69 3.33 0 1.22-.24 2.34-.72 3.36-.46 1-1.1 1.87-1.92 2.61-.82.72-1.81 1.28-2.97 1.68-1.14.4-2.38.6-3.72.6-1.32 0-2.54-.2-3.66-.6-1.12-.4-2.09-.97-2.91-1.71-.8-.74-1.43-1.62-1.89-2.64-.46-1.04-.69-2.19-.69-3.45zm27.754-3.03v10.86H56.6v-10.86h-1.8v-4.53h1.8v-4.62h5.43v4.62h3.09v4.53h-3.09zm16.674.93c-.18-.76-.55-1.37-1.11-1.83-.56-.46-1.24-.69-2.04-.69-.84 0-1.53.22-2.07.66-.52.44-.85 1.06-.99 1.86h6.21zm-6.36 3.15c0 2.34 1.1 3.51 3.3 3.51 1.18 0 2.07-.48 2.67-1.44h5.25c-1.06 3.52-3.71 5.28-7.95 5.28-1.3 0-2.49-.19-3.57-.57-1.08-.4-2.01-.96-2.79-1.68a7.519 7.519 0 01-1.77-2.58c-.42-1-.63-2.12-.63-3.36 0-1.28.2-2.43.6-3.45.4-1.04.97-1.92 1.71-2.64.74-.72 1.63-1.27 2.67-1.65 1.06-.4 2.25-.6 3.57-.6 1.3 0 2.47.2 3.51.6 1.04.38 1.92.94 2.64 1.68.72.74 1.27 1.65 1.65 2.73.38 1.06.57 2.26.57 3.6v.57h-11.43zm19.574-.99c0 .5.09.97.27 1.41.18.42.42.79.72 1.11.32.32.69.57 1.11.75.44.18.91.27 1.41.27.48 0 .93-.09 1.35-.27.44-.18.81-.43 1.11-.75.32-.32.57-.69.75-1.11.2-.44.3-.9.3-1.38 0-.5-.1-.96-.3-1.38a3.51 3.51 0 00-.75-1.11c-.32-.32-.7-.57-1.14-.75-.42-.18-.86-.27-1.32-.27-.48 0-.93.1-1.35.3-.42.18-.79.43-1.11.75-.32.3-.58.66-.78 1.08-.18.42-.27.87-.27 1.35zm12.18-7.62v14.34c0 .86-.05 1.63-.15 2.31-.1.68-.24 1.28-.42 1.8-.24.66-.62 1.27-1.14 1.83-.5.58-1.11 1.08-1.83 1.5-.72.42-1.54.75-2.46.99-.9.24-1.88.36-2.94.36-1.2 0-2.3-.15-3.3-.45-1-.3-1.88-.72-2.64-1.26a7.03 7.03 0 01-1.83-1.86c-.48-.7-.8-1.47-.96-2.31h6.12c.38 1.02 1.24 1.53 2.58 1.53 1.14 0 2.01-.32 2.61-.96.62-.64.93-1.53.93-2.67v-1.47c-.4.38-.79.7-1.17.96-.36.24-.73.44-1.11.6-.38.16-.78.27-1.2.33-.42.08-.88.12-1.38.12-1.1 0-2.11-.19-3.03-.57-.92-.38-1.72-.91-2.4-1.59a7.459 7.459 0 01-1.56-2.43c-.36-.96-.54-2.02-.54-3.18 0-1.18.2-2.27.6-3.27.4-1.02.94-1.9 1.62-2.64.7-.76 1.52-1.35 2.46-1.77.96-.44 2-.66 3.12-.66 1.82 0 3.35.68 4.59 2.04v-1.62h5.43zm15.3 5.46c-.18-.76-.55-1.37-1.11-1.83-.56-.46-1.24-.69-2.04-.69-.84 0-1.53.22-2.07.66-.52.44-.85 1.06-.99 1.86h6.21zm-6.36 3.15c0 2.34 1.1 3.51 3.3 3.51 1.18 0 2.07-.48 2.67-1.44h5.25c-1.06 3.52-3.71 5.28-7.95 5.28-1.3 0-2.49-.19-3.57-.57-1.08-.4-2.01-.96-2.79-1.68a7.519 7.519 0 01-1.77-2.58c-.42-1-.63-2.12-.63-3.36 0-1.28.2-2.43.6-3.45.4-1.04.97-1.92 1.71-2.64.74-.72 1.63-1.27 2.67-1.65 1.06-.4 2.25-.6 3.57-.6 1.3 0 2.47.2 3.51.6 1.04.38 1.92.94 2.64 1.68.72.74 1.27 1.65 1.65 2.73.38 1.06.57 2.26.57 3.6v.57h-11.43zm28.53-4.784V23.76h-3.406V12.197h-1.453V9.018h1.453V3.614h3.406v5.404h2.649v3.179h-2.649zm8.37-3.179v8.462c0 2.442.964 3.663 2.892 3.663 1.927 0 2.891-1.221 2.891-3.663V9.018h3.405v8.537c0 1.18-.146 2.2-.439 3.058-.282.767-.771 1.458-1.468 2.073-1.15 1-2.613 1.5-4.389 1.5-1.766 0-3.225-.5-4.375-1.5-.706-.615-1.206-1.306-1.498-2.073-.283-.686-.424-1.706-.424-3.058V9.018h3.405zm23.054 0h3.421v1.362c1.19-1.18 2.532-1.77 4.026-1.77 1.715 0 3.053.54 4.011 1.619.828.918 1.241 2.417 1.241 4.496v9.036h-3.421v-8.234c0-1.453-.201-2.457-.605-3.012-.394-.566-1.11-.848-2.149-.848-1.131 0-1.933.373-2.407 1.12-.464.737-.696 2.023-.696 3.86v7.114h-3.421V9.018zm20.419 0v8.462c0 2.442.964 3.663 2.891 3.663 1.928 0 2.891-1.221 2.891-3.663V9.018h3.406v8.537c0 1.18-.146 2.2-.439 3.058-.282.767-.772 1.458-1.468 2.073-1.151 1-2.614 1.5-4.39 1.5-1.766 0-3.224-.5-4.374-1.5-.707-.615-1.206-1.306-1.499-2.073-.282-.686-.424-1.706-.424-3.058V9.018h3.406zm8.234-7.266l-5.509 4.996-1.862-1.15 4.163-5.51 3.208 1.664zm5.253 7.266h3.406v1.362c.656-.686 1.216-1.15 1.68-1.392.494-.252 1.115-.379 1.862-.379 1.665 0 2.982.727 3.95 2.18 1.07-1.453 2.518-2.18 4.345-2.18 3.32 0 4.98 2.014 4.98 6.04v9.112h-3.421v-8.189c0-1.412-.172-2.411-.515-2.997-.353-.595-.933-.893-1.741-.893-.938 0-1.624.353-2.058 1.06-.424.706-.636 1.841-.636 3.405v7.614h-3.421v-8.143c0-2.624-.757-3.936-2.27-3.936-.959 0-1.66.358-2.104 1.075-.434.716-.651 1.847-.651 3.39v7.614h-3.406V9.018zm37.948 8.174h-10.566c.091 1.21.485 2.174 1.181 2.891.696.706 1.589 1.06 2.679 1.06.848 0 1.549-.202 2.104-.606.545-.403 1.166-1.15 1.862-2.24l2.876 1.604a11.694 11.694 0 01-1.408 1.953 7.786 7.786 0 01-1.589 1.332 6.503 6.503 0 01-1.832.757 8.917 8.917 0 01-2.134.242c-2.2 0-3.966-.706-5.298-2.12-1.332-1.422-1.998-3.309-1.998-5.66 0-2.331.646-4.218 1.938-5.661 1.301-1.423 3.027-2.135 5.176-2.135 2.17 0 3.885.692 5.147 2.074 1.251 1.373 1.877 3.275 1.877 5.707l-.015.802zm-3.497-2.785c-.474-1.817-1.62-2.725-3.436-2.725a3.4 3.4 0 00-1.165.197 3.2 3.2 0 00-.999.545 3.397 3.397 0 00-.757.848 3.973 3.973 0 00-.485 1.135h6.842zm7.235-5.389h3.406v1.317c.626-.656 1.181-1.105 1.665-1.347.495-.252 1.08-.379 1.756-.379.898 0 1.837.293 2.816.878l-1.56 3.118c-.645-.464-1.276-.696-1.892-.696-1.856 0-2.785 1.403-2.785 4.208v7.644h-3.406V9.018zm10.626 7.266c0-2.13.762-3.94 2.286-5.434 1.524-1.494 3.381-2.24 5.57-2.24 2.2 0 4.067.751 5.601 2.255 1.514 1.503 2.27 3.35 2.27 5.54 0 2.21-.761 4.061-2.285 5.555-1.534 1.483-3.416 2.225-5.646 2.225-2.21 0-4.062-.757-5.555-2.27-1.494-1.494-2.241-3.37-2.241-5.631zm3.482.06c0 1.473.393 2.64 1.181 3.497.807.868 1.871 1.302 3.193 1.302 1.332 0 2.397-.43 3.194-1.287.797-.858 1.196-2.003 1.196-3.436 0-1.433-.399-2.578-1.196-3.436-.807-.868-1.872-1.302-3.194-1.302-1.301 0-2.356.434-3.163 1.302-.807.868-1.211 1.988-1.211 3.36zM42.068 33.195h3.42v25.566h-3.42v-1.544c-1.342 1.312-2.861 1.968-4.556 1.968-2.019 0-3.694-.737-5.026-2.21-1.322-1.504-1.983-3.38-1.983-5.63 0-2.2.661-4.037 1.983-5.51 1.312-1.484 2.962-2.226 4.95-2.226 1.726 0 3.27.707 4.632 2.12V33.194zm-8.083 18.15c0 1.412.378 2.562 1.135 3.45.777.898 1.756 1.348 2.937 1.348 1.261 0 2.28-.434 3.057-1.302.777-.898 1.166-2.039 1.166-3.421 0-1.383-.389-2.523-1.166-3.421-.777-.878-1.786-1.317-3.027-1.317-1.17 0-2.15.444-2.937 1.332-.777.898-1.165 2.008-1.165 3.33zm29.229.847H52.648c.091 1.21.485 2.175 1.181 2.891.696.706 1.59 1.06 2.68 1.06.847 0 1.548-.202 2.103-.606.545-.404 1.166-1.15 1.862-2.24L63.35 54.9a11.728 11.728 0 01-1.408 1.953 7.799 7.799 0 01-1.589 1.332 6.502 6.502 0 01-1.831.757 8.92 8.92 0 01-2.135.242c-2.2 0-3.966-.706-5.298-2.12-1.332-1.422-1.998-3.309-1.998-5.66 0-2.331.646-4.218 1.938-5.661 1.302-1.423 3.027-2.135 5.177-2.135 2.17 0 3.885.692 5.146 2.074 1.251 1.373 1.877 3.275 1.877 5.707l-.015.802zm-3.497-2.785c-.474-1.817-1.62-2.725-3.436-2.725-.413 0-.802.066-1.165.197a3.215 3.215 0 00-1 .545 3.402 3.402 0 00-.756.848 3.972 3.972 0 00-.484 1.135h6.841zM75.72 58.76l3.84-22.62h5.82l4.53 12.06 4.5-12.06h5.82l3.84 22.62h-5.85l-1.95-13.02-5.34 13.02h-2.34l-5.07-13.02-1.95 13.02h-5.85zm41.994-9.93c-.18-.76-.55-1.37-1.11-1.83-.56-.46-1.24-.69-2.04-.69-.84 0-1.53.22-2.07.66-.52.44-.85 1.06-.99 1.86h6.21zm-6.36 3.15c0 2.34 1.1 3.51 3.3 3.51 1.18 0 2.07-.48 2.67-1.44h5.25c-1.06 3.52-3.71 5.28-7.95 5.28-1.3 0-2.49-.19-3.57-.57-1.08-.4-2.01-.96-2.79-1.68a7.519 7.519 0 01-1.77-2.58c-.42-1-.63-2.12-.63-3.36 0-1.28.2-2.43.6-3.45.4-1.04.97-1.92 1.71-2.64.74-.72 1.63-1.27 2.67-1.65 1.06-.4 2.25-.6 3.57-.6 1.3 0 2.47.2 3.51.6 1.04.38 1.92.94 2.64 1.68.72.74 1.27 1.65 1.65 2.73.38 1.06.57 2.26.57 3.6v.57h-11.43zm19.574-.96c0 .5.09.97.27 1.41.18.42.42.79.72 1.11.32.32.69.57 1.11.75.44.18.91.27 1.41.27.48 0 .93-.09 1.35-.27.44-.18.81-.43 1.11-.75.32-.32.57-.69.75-1.11.2-.42.3-.87.3-1.35 0-.48-.1-.93-.3-1.35-.18-.44-.43-.82-.75-1.14-.3-.32-.67-.57-1.11-.75a3.39 3.39 0 00-1.35-.27c-.48 0-.94.09-1.38.27-.42.18-.79.43-1.11.75-.3.32-.55.69-.75 1.11-.18.4-.27.84-.27 1.32zm6.84-17.16h5.46v24.9h-5.46v-1.71c-1.16 1.46-2.73 2.19-4.71 2.19-1.12 0-2.15-.21-3.09-.63-.94-.42-1.76-1-2.46-1.74s-1.25-1.61-1.65-2.61c-.38-1-.57-2.08-.57-3.24 0-1.1.18-2.14.54-3.12.38-1 .91-1.87 1.59-2.61.68-.74 1.49-1.32 2.43-1.74.96-.44 2.01-.66 3.15-.66 1.92 0 3.51.67 4.77 2.01v-11.04zm14.585 9.51v15.39h-5.43v-15.39h5.43zm-5.79-5.91c0-.42.08-.81.24-1.17.16-.38.38-.71.66-.99s.6-.5.96-.66c.38-.16.78-.24 1.2-.24.42 0 .81.08 1.17.24.38.16.71.38.99.66s.5.61.66.99c.16.36.24.75.24 1.17 0 .42-.08.82-.24 1.2-.16.36-.38.68-.66.96-.28.28-.61.5-.99.66-.36.16-.75.24-1.17.24-.42 0-.82-.08-1.2-.24-.36-.16-.68-.38-.96-.66-.28-.28-.5-.6-.66-.96-.16-.38-.24-.78-.24-1.2zm21.111 10.89c-.94-.64-1.89-.96-2.85-.96-.52 0-1.01.09-1.47.27-.44.18-.83.44-1.17.78a3.5 3.5 0 00-.81 1.17c-.18.44-.27.94-.27 1.5 0 .54.09 1.04.27 1.5.2.44.46.83.78 1.17.34.32.74.57 1.2.75.46.18.95.27 1.47.27 1.02 0 1.97-.35 2.85-1.05v4.62c-1.34.58-2.61.87-3.81.87a9.12 9.12 0 01-3.21-.57c-1-.38-1.89-.92-2.67-1.62a8.38 8.38 0 01-1.83-2.55c-.46-1-.69-2.11-.69-3.33 0-1.22.22-2.33.66-3.33a7.805 7.805 0 011.8-2.61 7.87 7.87 0 012.7-1.71c1.06-.42 2.19-.63 3.39-.63 1.32 0 2.54.28 3.66.84v4.62zm8.137 2.67c0 .5.09.97.27 1.41.18.42.42.79.72 1.11.32.32.69.57 1.11.75.44.18.91.27 1.41.27.48 0 .93-.09 1.35-.27.44-.18.81-.43 1.11-.75.32-.32.57-.69.75-1.11.2-.42.3-.87.3-1.35 0-.48-.1-.93-.3-1.35-.18-.44-.43-.82-.75-1.14-.3-.32-.67-.57-1.11-.75a3.39 3.39 0 00-1.35-.27c-.5 0-.97.09-1.41.27-.42.18-.79.43-1.11.75-.3.32-.54.69-.72 1.11-.18.4-.27.84-.27 1.32zm6.84-7.65h5.46v15.39h-5.46v-1.71c-1.16 1.46-2.73 2.19-4.71 2.19-1.12 0-2.15-.2-3.09-.6-.94-.42-1.76-1-2.46-1.74s-1.25-1.61-1.65-2.61c-.38-1-.57-2.09-.57-3.27 0-1.1.19-2.14.57-3.12.38-1 .91-1.87 1.59-2.61.68-.74 1.49-1.32 2.43-1.74.94-.44 1.98-.66 3.12-.66 1.92 0 3.51.67 4.77 2.01v-1.53zm9.155 0h5.43v2.52c.58-.92 1.29-1.62 2.13-2.1.84-.5 1.82-.75 2.94-.75h.45c.18 0 .38.02.6.06v5.19a5.16 5.16 0 00-2.34-.54c-1.26 0-2.21.38-2.85 1.14-.62.74-.93 1.83-.93 3.27v6.6h-5.43v-15.39zm25.4 5.46c-.18-.76-.55-1.37-1.11-1.83-.56-.46-1.24-.69-2.04-.69-.84 0-1.53.22-2.07.66-.52.44-.85 1.06-.99 1.86h6.21zm-6.36 3.15c0 2.34 1.1 3.51 3.3 3.51 1.18 0 2.07-.48 2.67-1.44h5.25c-1.06 3.52-3.71 5.28-7.95 5.28-1.3 0-2.49-.19-3.57-.57-1.08-.4-2.01-.96-2.79-1.68a7.519 7.519 0 01-1.77-2.58c-.42-1-.63-2.12-.63-3.36 0-1.28.2-2.43.6-3.45.4-1.04.97-1.92 1.71-2.64.74-.72 1.63-1.27 2.67-1.65 1.06-.4 2.25-.6 3.57-.6 1.3 0 2.47.2 3.51.6 1.04.38 1.92.94 2.64 1.68.72.74 1.27 1.65 1.65 2.73.38 1.06.57 2.26.57 3.6v.57h-11.43zm13.84 4.668c0-.352.066-.682.198-.99a2.51 2.51 0 01.55-.836 2.58 2.58 0 01.814-.55c.323-.132.66-.198 1.012-.198s.682.066.99.198c.323.132.601.316.836.55.235.235.418.514.55.836.132.308.198.638.198.99s-.066.69-.198 1.012a2.513 2.513 0 01-1.386 1.364 2.486 2.486 0 01-.99.198c-.352 0-.689-.066-1.012-.198a2.577 2.577 0 01-1.364-1.364 2.647 2.647 0 01-.198-1.012zm7.477 0c0-.352.066-.682.198-.99a2.51 2.51 0 01.55-.836c.234-.234.506-.418.814-.55a2.645 2.645 0 012.002 0c.322.132.601.316.836.55.234.235.418.514.55.836.132.308.198.638.198.99s-.066.69-.198 1.012a2.523 2.523 0 01-1.386 1.364 2.645 2.645 0 01-2.002 0 2.568 2.568 0 01-1.364-1.364 2.647 2.647 0 01-.198-1.012zm7.476 0c0-.352.066-.682.198-.99a2.51 2.51 0 01.55-.836 2.58 2.58 0 01.814-.55c.323-.132.66-.198 1.012-.198s.682.066.99.198c.323.132.601.316.836.55.235.235.418.514.55.836.132.308.198.638.198.99s-.066.69-.198 1.012a2.513 2.513 0 01-1.386 1.364 2.486 2.486 0 01-.99.198c-.352 0-.689-.066-1.012-.198a2.577 2.577 0 01-1.364-1.364 2.647 2.647 0 01-.198-1.012z" fill="#66124B"/></svg>