<svg width="250" height="58" viewBox="0 0 250 58" fill="none" xmlns="http://www.w3.org/2000/svg"><rect x="1" y="1" width="248" height="56" rx="7" fill="#EFD63A" stroke="#EFE28E" stroke-width="2"/><path d="M47.257 30.68l-1.672-4.769-1.672 4.769h3.344zm.988 2.831h-5.32L42.07 36h-3.971l5.453-14.326h4.066L53.07 36H49.1l-.855-2.489zm10.56-5.263h1.234c1.368 0 2.052-.595 2.052-1.786 0-1.19-.684-1.786-2.052-1.786h-1.235v3.572zm0 7.752H55.08V21.674h5.928c1.609 0 2.838.418 3.686 1.254.862.836 1.292 2.014 1.292 3.534s-.43 2.698-1.292 3.534c-.848.836-2.077 1.254-3.686 1.254h-2.204V36zm13.256-7.923h.703c.735 0 1.299-.152 1.691-.456.393-.304.59-.741.59-1.311s-.197-1.007-.59-1.311c-.392-.304-.956-.456-1.69-.456h-.704v3.534zM80.251 36h-4.637l-3.553-5.51V36h-3.724V21.674h5.795c.798 0 1.495.12 2.09.361.596.228 1.083.545 1.463.95.393.405.684.874.874 1.406.203.532.304 1.102.304 1.71 0 1.09-.266 1.976-.798 2.66-.52.671-1.292 1.127-2.318 1.368L80.25 36zm10.088-11.172h-4.427v2.394h4.18v3.154h-4.18v2.47h4.427V36h-8.151V21.674h8.151v3.154zM93.404 36V21.674h3.724l6.878 8.759v-8.759h3.705V36h-3.705l-6.878-8.759V36h-3.724zm21.415-3.154h.855c.646 0 1.223-.101 1.729-.304a3.59 3.59 0 001.273-.836c.355-.355.621-.773.798-1.254.19-.494.285-1.032.285-1.615 0-.57-.095-1.102-.285-1.596a3.602 3.602 0 00-.817-1.273 3.59 3.59 0 00-1.273-.836c-.506-.203-1.076-.304-1.71-.304h-.855v8.018zm-3.724-11.172h5.51c.976 0 1.888.196 2.736.589a7.235 7.235 0 012.242 1.577 7.046 7.046 0 011.52 2.28c.368.861.551 1.767.551 2.717 0 .937-.183 1.843-.551 2.717a7.057 7.057 0 01-1.501 2.28 7.235 7.235 0 01-2.242 1.577 6.478 6.478 0 01-2.755.589h-5.51V21.674zm23.468 3.154h-4.427v2.394h4.18v3.154h-4.18v2.47h4.427V36h-8.151V21.674h8.151v3.154zm20.219 1.634c-.861-1.051-1.925-1.577-3.192-1.577-.557 0-1.077.101-1.558.304a3.717 3.717 0 00-1.216.836 3.826 3.826 0 00-.817 1.235c-.19.481-.285 1-.285 1.558 0 .57.095 1.096.285 1.577.203.481.475.9.817 1.254.355.355.766.633 1.235.836.469.203.975.304 1.52.304 1.191 0 2.261-.507 3.211-1.52v4.408l-.38.133a10.15 10.15 0 01-1.596.437 7.272 7.272 0 01-1.463.152 7.56 7.56 0 01-2.85-.551 7.796 7.796 0 01-2.394-1.577 8.087 8.087 0 01-1.653-2.413c-.418-.937-.627-1.957-.627-3.059s.203-2.109.608-3.021a7.605 7.605 0 011.653-2.375 7.462 7.462 0 012.413-1.558 7.385 7.385 0 012.869-.57c.57 0 1.127.063 1.672.19.557.114 1.14.298 1.748.551v4.446zm6.189 2.375c0 .57.108 1.096.323 1.577.215.481.507.9.874 1.254.367.355.792.633 1.273.836.494.19 1.013.285 1.558.285a4.15 4.15 0 001.539-.285 4.051 4.051 0 001.292-.836 3.84 3.84 0 00.893-1.254 3.823 3.823 0 00.323-1.577c0-.57-.108-1.096-.323-1.577a3.84 3.84 0 00-.893-1.254 3.8 3.8 0 00-1.292-.817 3.922 3.922 0 00-1.539-.304c-.545 0-1.064.101-1.558.304-.481.19-.906.462-1.273.817a3.988 3.988 0 00-.874 1.254 3.823 3.823 0 00-.323 1.577zm-3.895 0a7.41 7.41 0 01.589-2.964 7.393 7.393 0 011.634-2.413 7.368 7.368 0 012.489-1.596c.975-.393 2.046-.589 3.211-.589 1.153 0 2.217.196 3.192.589.975.38 1.811.912 2.508 1.596a7.41 7.41 0 012.242 5.377 7.546 7.546 0 01-.589 2.983 7.315 7.315 0 01-1.653 2.394 7.573 7.573 0 01-2.508 1.615c-.975.38-2.039.57-3.192.57-1.165 0-2.236-.19-3.211-.57a7.612 7.612 0 01-2.489-1.615 7.448 7.448 0 01-1.634-2.394 7.546 7.546 0 01-.589-2.983zm11.343-10.811l-3.648 2.508-1.444-1.349 3.097-2.964 1.995 1.805zM175.027 36l2.432-14.326h3.686l2.869 7.638 2.85-7.638h3.686L192.982 36h-3.705l-1.235-8.246L184.66 36h-1.482l-3.211-8.246L178.732 36h-3.705zm23.943-7.163c0 .57.108 1.096.323 1.577.215.481.507.9.874 1.254.367.355.792.633 1.273.836.494.19 1.013.285 1.558.285a4.15 4.15 0 001.539-.285 4.051 4.051 0 001.292-.836 3.84 3.84 0 00.893-1.254 3.823 3.823 0 00.323-1.577c0-.57-.108-1.096-.323-1.577a3.84 3.84 0 00-.893-1.254 3.8 3.8 0 00-1.292-.817 3.922 3.922 0 00-1.539-.304c-.545 0-1.064.101-1.558.304-.481.19-.906.462-1.273.817a3.988 3.988 0 00-.874 1.254 3.823 3.823 0 00-.323 1.577zm-3.895 0a7.41 7.41 0 01.589-2.964 7.393 7.393 0 011.634-2.413 7.368 7.368 0 012.489-1.596c.975-.393 2.046-.589 3.211-.589 1.153 0 2.217.196 3.192.589.975.38 1.811.912 2.508 1.596a7.41 7.41 0 012.242 5.377 7.546 7.546 0 01-.589 2.983 7.315 7.315 0 01-1.653 2.394 7.573 7.573 0 01-2.508 1.615c-.975.38-2.039.57-3.192.57-1.165 0-2.236-.19-3.211-.57a7.612 7.612 0 01-2.489-1.615 7.448 7.448 0 01-1.634-2.394 7.546 7.546 0 01-.589-2.983z" fill="#66124B"/></svg>